<svg xmlns="http://www.w3.org/2000/svg" width="226" height="218" viewBox="-6.65 -0.1 226.1 218.2"><path fill="#68ae28" d="M146.15 46.8L29.7 136.95q-1.8.2-5.35-.9-4.45-1.4-8.45-4.15-11.4-7.8-13.8-22.4-2.35-14 4.3-30.05 2.2-5.3 5.4-10.95l3.9-6.55q4.75-8.45 7.85-16.7 5.15-13.8 2.8-20.4l1.6.2q1.8.35 2.9 1.3-.15-1.6-.85-3.75-1.45-4.4-4.15-7.4l5.4-.75q6.85.05 13.9 3.9l-.35-2.75q-.2-2.8.55-3.1 1.15-.45 3.3 2.2.05-2.2.95-5 1.75-5.5 5.9-8.3l2.75 5.05q3.85 5.45 9.4 7.55 4.85 1.9 22 2.9 16.6 1 23.4 4.1l4.8.4q5.85.75 10.8 2.75 15.95 6.45 17.5 22.65"/><path fill="#56931f" d="M5.55 119.3q-11.3-21.3 5.4-48.95-8.45 22.35 5.7 35.75 6.15 5.8 15.5 8.5 9.15 2.6 19.4 1.7l-23.3 21.05q-5.1-.45-11.35-4.95-7.15-5.25-11.35-13.1"/><path fill="#7cbeb3" d="M191.85 40.2q4.45 1.95 7.75 13.25 2.95 10.25 2 14.5 5.9 6.85 11.5 26.75 6.35 22.3 2.15 32.45-1.35 3.25-7.9 8.85-6.8 5.9-13.45 9.1l2.25 3.65q2.7 4.8 4.85 10.35 6.85 17.9 5.7 37.1-.35 6.1-10.1 10-9.55 3.75-20.35 2.5-3.65-.5-9.65-8.55-6.85-9.35-8.15-19.4-9.15 5.3-15.45 7.15l-1.3 2.2q-1.7 2.7-4 5-7.25 7.4-17.15 8.25-9.85.85-15.3-1.55-1.7-.75-2.8-1.75l-.7-.85-39.95 1.35-4.1 3.6Q52.2 207.8 45 208q-9.85.3-15.5-1.8-7.1-2.7-10.1-9.85-4.35-10.3-4.6-23.6-.35-17.3 7.75-28.3 7.8-10.6 20.35-21.6 3.5-3.05 19.05-15.5 7.95-6.3 14.15-12.2 6.3-6 7.65-8.6 1.45-9.95 3.8-20.2 4.75-20.5 9.2-21.9 4.45-1.35 13.1 2.85 4.3 2.15 7.7 4.5l3.4-1.2q4.5-1.35 9.85-2.3 17.1-2.95 36.3-.35 2.9-3.1 12.8-6 9.55-2.8 11.95-1.75"/><path fill="#68a198" d="M200.9 60.1l1 7.85-5.15-7.65q.8-3.35.7-9.05l-.3-5q2.3 4.95 3.75 13.85M86.4 68.95q4.05-18.6 7.95-21.5-.95 10.8-.65 21.35.2 6.2 1.3 18.9.65 7.55-1.55 13.4-1.95 5.1-5.1 6.95-3.1 1.8-5.1-.8-2.15-2.85-1.45-9.8 1.4-13.85 4.6-28.5m90.25 127.1q3.85 7.2 9.2 9l-1.9 3.8q-7.55 1.5-13.35-3.95-6.95-6.65-12.3-24.15-8.65 5.25-19.2 7.85-10.4 2.6-25 3.15-2.3.75-3.35 3.2-1.05 2.35-.05 4.25l-2.8 3.3-6-3.65q.25-1.7 2.8-10.15 2.5-8.1 3.15-14.05 1.9-17.8-9.9-32.2 10.5 10.55 36.8 13.25 28.1 2.85 47.75-5.1-6.3 4.05-9 12.6-2.4 7.7-1.45 17.05.95 9 4.6 15.8M14.3 167.35q2.15 17.55 19.2 22.55 6.55 1.9 13.8 1.4 6.6-.45 10.85-2.6L61.8 201q-3.9 3.8-10.5 5.95-13.2 4.3-26.55-3.75-6.45-3.9-9.25-19.8-.9-5.35-1.2-10.85-.25-4.6 0-5.2"/><path fill="#fff" d="M121.35 85.85q1.95-.35 4.15.65-7.55 5.8-7.9 17.8-.35 10.95 5 20.55-10.5-1.15-14.8-4.8-1.25-1.1-1.05-6.15.2-5.25 1.85-11 4.3-15.3 12.75-17.05"/><path fill="#d60040" d="M138.65 104.9q2.35 6.3 2.9 11.35.6 5.4-1.2 7.2-1.2 1.2-6.45 1.65-5.35.4-11.3-.25-5.35-9.6-5-20.55.35-12 7.9-17.8 7.45 3.45 13.15 18.4m58.55-21.55q6.25 5.1 7.45 15.25.75 6.35-.6 17.85-2.2.85-4.25 1.15-2.1.35-3.15 0-2.95-.95-2.95-15.1-.05-14.45 3.5-19.15"/><path fill="#fff" d="M197.2 83.35q.9-1.25 1.9-1.45 4.85-1.05 9.4 11.85 4.45 12.8 1.75 18.3-1.25 2.6-6.2 4.4 1.35-11.5.6-17.85-1.2-10.15-7.45-15.25"/><path fill="#006359" d="M167.85 78.25q-1.45.55-7.55-3.05-6.4-3.7-6.15-6.05.35-3.1 10.35-8.55 10.15-5.5 13.5-4.05 2.15.9-2.25 10.6-4.45 9.75-7.9 11.1m-22.25 4.3q-.15-.65 1.5-2.45 1.7-1.85 3.05-2.2l1.1 1.55q1.4 2.35 2.8 6.6l-.65 1.55q-.95 1.7-2.35 2.35l-2.4-2.3q-2.5-2.75-3.05-5.1m38.65 10.9q1.55 8.85.25 9.9-1.15.95-7-.75-5.9-1.7-6.7-3.3.25-3.7 3.8-9.25 3.65-5.55 5.9-5.55 2.2 0 3.75 8.95m3 86.95q-.2-2.85 3.5-8.15 3.6-5.2 5.2-5 2.4.25 3.3 10.05.85 9.85-1.55 10.65-2.65.9-6.35-1-4.25-2.25-4.1-6.55m-158.5-28.1l8.25.35q5.55 1.1 6.4 2.45 1.4 2.25-1.85 9.5-3.2 7.2-5.4 7.4-1.9.15-7.7-3.8-5.85-3.95-5.8-5.5.05-2 1.95-5.7 2.1-4.15 4.15-4.7m47.55-42.85q1.3 2.25-4.2 12.5t-8.45 10.9q-2.7.65-8.8-2.35-5.75-2.75-7.65-5.05-.6-.75.8-4.4l1.5-3.55 6.7-5.3q6.8-5.35 7.6-5.55l6.25.55q5.5.95 6.25 2.25"/><path fill="#fff" d="M127.05 91.55q1.6 0 2.8 3.15 1.2 3.35 1.15 8.35-.1 4.75-1.3 7.5-1.1 2.5-2.7 2.5-1.5 0-2.6-2.7-1.2-2.85-1.3-7.2-.2-5.25 1.1-8.55 1.15-3.05 2.85-3.05m67.8 1.1l1-4.5q.6-.8 1.15-.75.9.05 1.7 1.95 1.15 2.55 1.25 7.2.05 4.4-.8 6.85-.8 2.2-2 2.2-.75 0-1.5-1.1-.8-1.2-1.1-3.15-.6-3.45.3-8.7"/><path fill="#0d131a" d="M173.55 50.25q-13.7-2.65-27.75-2.05-15.1.6-27.75 4.9-.45.15-1.25-1-.85-1.15-.4-1.35 14.35-4.85 31.1-5.2 14.7-.35 26.85 2.75 6.2 1.6 5.9 2.35l-6.7-.4m27 13.95q10.15 14.7 14.8 34.1 4.05 16.9 2 26.15-2.25 10.25-22.4 21-20 10.7-38.65 11.85-19.95 1.2-37.55-3.3-17.6-4.5-22.7-12.15-1.65-2.5-1.05-3.05.65-.55 2.95 1.95 6.75 7.4 24.05 11.3 16.45 3.7 34.35 2.6 18.7-1.15 37.75-11.75 18.3-10.2 20.3-19.3 2.1-9.45-1.75-25.5-4.3-17.95-13.75-32.3-3.9-5.95-3.05-6.6.8-.65 4.7 5M84.7 87.1q-3.3 6.2-13.35 14.75-6 5.05-20.2 16-12.95 10.3-20 18.15-9.7 10.8-12.9 21.25-3.85 12.55-.4 28.2 3.2 14.75 9.1 18.2 6.35 3.7 17.1 3.25 11.1-.45 15.35-5.2 6.55-7.35 5.1-23.8-1.5-16.8-10.2-26.8-3.4-3.95-2.9-4.8.5-.85 4.25 3.15 10.95 11.75 12.2 28.75 1.15 16.15-6.75 25-4.75 5.35-17.1 6-11.95.65-18.95-3.45-7.1-4.15-10.4-19.6-3.35-15.9.65-29.4 3.05-10.2 12.05-20.45 6.55-7.5 18.95-17.55l20.5-16.6Q77.9 92.6 83.35 84.6q.25-.35.9.85.7 1.25.45 1.65"/><path fill="#0d131a" d="M96.95 42.95q3.1-1 10.45 2 7.4 3.05 12.15 7.45 3.75 3.5 2.9 3.95-.8.5-4.6-2.45-4.9-3.7-11.35-6.25-6.3-2.55-8.45-1.8-3.5 1.15-8.1 17.75-4.85 17.55-6.3 36.8-.4 5.55-1.4 5.1-1.05-.45-.85-5.25.65-16.65 5-34.85 4.95-20.6 10.55-22.45m68.55 4.3q4.35-3.3 13.35-6.3 10.15-3.4 14.1-1.6 3.9 1.75 7.1 11.75 2.95 9.3 3.3 18.7 0 .45-1.25-.95-1.3-1.4-1.3-1.9-.3-7.6-3.5-16-3.05-8-5.65-9.2-2.45-1.1-11.2 1.4-8.85 2.5-12.6 5.35-.35.3-1.55-.3-1.15-.65-.8-.95"/><path fill="#0d131a" d="M167.35 76.85q2.45-.05 6.85-9.35 4.35-9.15 3.25-9.7-2.45-1.25-12.15 3.65-9.75 4.9-9.8 7.55-.05 1.65 4.3 4.65 4.45 3 7.55 3.2m-4-16.75q10.65-5.75 15.2-4.9 1.55.3.9 4.1-.6 3.5-2.7 8.2-5.25 11.7-9.4 11.5-3.3-.2-8.8-3.8-5.75-3.75-5.75-6.35 0-3.05 10.55-8.75m-10.3 26.25q.15-.4-1.1-3.7-1.25-3.35-1.8-3.4-.45-.05-2 1.35-1.55 1.4-1.55 2.1.05.65 2.1 3.4 2.05 2.65 2.4 2.65.3 0 1.05-1l.9-1.4m.1-5.25q1.55 3.7 1.6 5.05.05 1.1-1.6 3-1.7 1.95-2.55 1.55-1-.45-3.45-3.7-2.65-3.45-2.45-4.75.2-1.35 2.35-3.4 2.15-1.95 3.25-1.9 1.15.1 2.85 4.15m27 4.85q-1.55-.1-5.1 5.85-3.45 5.9-3.05 7.05.4 1.05 5.65 2.55 5.3 1.5 6.05.8 1.15-1.1-.45-8.65-1.6-7.5-3.1-7.6m-6.8 4.2q4.35-7.5 6.85-7.25 3.15.3 5.05 10.4 1.85 10.05-.3 11.1-1.85.95-8.15-1.15-6.2-2.05-6.8-3.5-.95-2.15 3.35-9.6M109.8 95.9q5.85-11.85 12.55-11.1 9.45 1.1 16.25 15.95 2.85 6.3 3.75 12.45.95 6.4-.65 10.2-.85 2.1-6.4 2.8-5.1.6-11.85-.1-6.8-.7-11.6-2.45-5.3-1.85-5.75-4.25-2.25-11.4 3.7-23.5m23.5.7q-5.25-8.9-11.2-9.55-2.35-.25-5.1 2.6-4.15 4.3-6.7 12.4-2.7 8.8-1.6 16.85.4 3.1 14.95 4.7 14.55 1.65 15.8-1.25 1.3-3.15-.45-11-1.85-8.2-5.7-14.75m73.65-4q-3.75-9.3-7.55-9.3-3.35 0-4.1 15.85-.75 15.75 1.9 17.3 1.75 1 6.6-1.1t5.25-3.95q1.95-8.85-2.1-18.8m-14 5.7Q193.8 81 199.4 81q4.85 0 9.4 10.35 4.75 10.9 2.65 20.35-.75 3.2-7.4 5.7-6.45 2.45-8.2.95-1.65-1.35-2.45-7.4-.8-5.8-.45-12.65m-129.7 7.4l8.75.55q5.1.9 5.85 2.35 1.35 2.75-4.9 14.1-6.25 11.45-9.55 11.45-3.15 0-10.3-3.15-7.55-3.3-7.55-5.4 0-1.2 1.1-3.6l2.4-4.7q.25-.4 1.35-.5 1.15-.05.9.35-1.35 2.5-2.15 4.85-.7 2.05-.7 2.95.2 1.35 6.45 4.15 6.1 2.75 8.45 2.8 2.2-.7 7.2-10.2t4.3-11.6q-.4-.85-4.3-1.6l-7.75-.55q-.5.05-.25-1.1.25-1.1.7-1.15M29.2 153.2q-1.55.75-3.55 4.15-2 3.35-1.85 4.65.2 1.35 5.3 4.95t6.6 3.4q1.5-.2 4.65-6.9 3.15-6.7 2.35-7.55-.9-.9-6.55-2.1-5.75-1.2-6.95-.6m-5.55 2.85q2.35-3.9 4.45-5l8.65.4q7.2 1.35 8.4 3.25 1.1 1.75-2.5 9.8-3.6 8-5.9 8.85-1.75.7-8.25-3.85-6.6-4.6-6.95-7.2-.25-2.25 2.1-6.25m164.7 24.25v.05q.1 4.15 4.05 6.05 3.55 1.7 4.8.55 1.3-1.2.9-9.1-.4-8.05-2.35-8.95-1.05-.45-4.25 4.5-3.15 4.95-3.15 6.9m1.45-8.6q3.85-6.15 5.95-6.1 3.4.05 4.25 10.85.85 10.6-1.4 12.25-1.85 1.4-6.75-.5-5.6-2.2-5.75-7.35-.05-3.1 3.7-9.15"/><path fill="#0d131a" d="M211.75 122.1q-.05 1.95-.55 3.2l-1 1.65q-2.45 2.9-11.7 7.3-9.55 4.55-16.55 5.95-12.75 2.6-39.15.45-26.4-2.1-33.35-6.3-1.15-.75-2.1-2.45-.85-1.45-1.25-3.2-.75-3.15-.1-3.55.65-.4 2.05 2.9.85 1.95 1.8 3l2 1.5q5.6 3.05 29.95 5.4 26.35 2.55 39.7-.15 6-1.25 14.25-4.85 7.65-3.35 11.45-6.1 1.4-1.05 2.05-2.15.7-1.15.9-2.8.35-3 1-2.8.65.25.6 3m-75.8-41.05q1.75 1.6 3.4 3.9 1.75 2.4 2.5 4.35 1.1 2.8.1 3.15-1.05.3-2.35-2.2-2.15-4.25-5.25-7.7-2.9-3.35-2.3-3.9.65-.55 3.9 2.4m56.35.35q-.95 2.75-1.2 5.9-.2 2.75-1.25 2.7-1.05 0-.9-2.7.15-3.3 1.7-6.5 1.4-2.85 2.05-2.7.6.2-.4 3.3"/><path fill="#0d131a" d="M170.35 133.8q-1.1-.55-1.75-1.4-.65-.8-.45-1.15l1.55.05q1.45.3 2.15.95.9.9.35 1.55t-1.85 0m17.05-2.5q-1.05 1.3-1.9.9-.85-.4-.1-1.65.55-.9 1.75-1.6 1.1-.7 1.4-.45.2.2-.1 1.05l-1.05 1.75m-60.1-44.55q.45.15.4 1.45-.05 1.3-.45 1.05-2.55-1.6-4.8 2.45-2.1 3.7-2.9 10.25-.85 6.75.2 12.6 1.25 6.65 4.65 9.5.4.3-.5.9-.9.55-1.3.25-4.1-3.05-5.65-10.1-1.35-6.35-.3-13.6 1.05-7.15 3.85-11.4 3.05-4.55 6.8-3.35m69.05-3q1.75-1.35 4.05 1.15 2.3 2.45 3.95 7.3 4.1 12.15.35 23.9-.15.45-1.15.65-1 .15-.9-.3 3.05-9.5.2-21.55-1.15-4.85-2.85-7.65-1.7-2.85-3.1-2.1-.4.25-.65-.45-.25-.65.1-.95m-3.7 62.1q-.25-.4 1.05-1.2 1.25-.85 1.45-.45 14.2 22.95 12.65 53.55-.15 2.85-4.35 5.9-4 2.9-9.9 4.85-14.3 4.7-21.5-.35-4.75-3.35-9.85-12.8-4.9-9.05-5-13.75 0-.45 1.4-1l1.35-.15q.1 4.65 4.65 13.15 4.85 9.05 9.75 12.5 6.25 4.35 18.85.25 5.1-1.65 8.6-4.1 3.65-2.5 3.75-4.6 1.45-28.6-12.9-51.8"/><path fill="#0d131a" d="M164.7 177.55q-12.95 10.15-30.9 13.75-16.65 3.3-29.75-.35-.45-.15-.15-1.55.25-1.35.7-1.25 12.85 3.6 28.75.45 16.15-3.2 29.3-12.15 5-3.4 5.55-2.7.5.65-3.5 3.8"/><path fill="#0d131a" d="M141.35 187.65q.25-.4 2.3-.7l1.8.15q-3.9 6.4-9.65 11.15-6.6 5.45-12.95 6.25l-15-.45q-5.9-1.45-6.95-4.4-.15-.45.75-1.5.85-1.1 1-.65 1 2.8 6.15 4.2 5.6 1.55 13.75.55 4.75-.6 10.05-4.75 5.25-4.1 8.75-9.85M25 23.9q.4-.3 1.95 0 2.4.45 4.2 2.15.4.3.05.95-.3.6-.7.3-1.05-.9-2.05-1.2l-.95-.05.2 1.6.3 3q.15 6.8-4.45 17.8-3.6 8.75-9.25 18.1-17.8 29.55-7.85 51 3.75 8.1 10.75 13.25 6.2 4.5 11.9 4.9.45.05-.15 1.15-.55 1.15-1.05 1.1-6.65-.45-13.3-5.25-7.4-5.4-11.25-14-10-22.3 8.65-53.15 8.8-14.6 11.95-24 3.35-9.95 1.1-16.15-.45-1.15-.05-1.5"/><path fill="#0d131a" d="M50.9 22.15q.35.35 0 1.1-.35.8-.7.45-3.75-3.9-9.75-6.25-5.65-2.15-10.15-1.9-2.1.15-2.25.55-.15.35 1 2.15 5.45 8.6.3 25.4-2.8 9-8.75 22.4-8.8 23.15-1.4 41.3 3.05 7.5 8.45 12.7 5 4.85 10.8 6.55.4.1-.6 1-1 .85-1.45.75-15.35-4.5-21.05-22.9-5.95-19.05 2.9-40.6l4.4-9.95q3.15-7.3 4.75-12.75 4.9-16.4-1.15-24.15-2.05-2.65-1.9-3.4.15-.85 3-1.2 5.35-.7 12 1.65 7.05 2.5 11.55 7.1"/><path fill="#0d131a" d="M47.4 12.5l1.85 1.5q.3.35-.15 1.45-.45 1.05-.75.7L47.3 14.9q-.9-.9-1.35-.7-.4.2-.3 1.3l.45 2.85q.1.4-.8.4-.9-.05-.95-.5l-.5-3.1q-.2-2.55.8-3.35.85-.65 2.75.7"/><path fill="#0d131a" d="M124.1 26.6q10.75 8.65 11.3 20.9.05.5-1.3.75-1.35.3-1.35-.2-.5-11.2-10.1-19.35-11.55-9.8-32.3-10.55-17.75-.65-25.4-3.95-6.2-2.65-8.95-8.95-.6-1.35-1-1.45-.45-.15-1.45 1-3.35 3.7-3.95 9.05-.6 5.5 2.3 8.55 5.85 6 9.25 14.15 2.1 5.05 5.1 16.85 3.65 14.35 8.05 21.35 3.55 5.65 10.4 10.2.3.15-.4 1.45-.65 1.25-1.05 1-8.8-5.8-12.65-12.3-3.55-6-6.85-19.5-3.55-14.65-5.3-19.05-2.7-6.95-8.15-12.6Q46.4 19.9 47.8 12q1.35-7.45 5.45-10.65Q55.1-.1 55.85.05q.75.15 1.45 2.1 3 7.8 8.6 10.3 6.3 2.75 24.5 3.45 21.4.75 33.7 10.7"/><path fill="#0d131a" d="M138.7 29.1q9.55 8.2 8.25 17.75-.05.45-1.5.4-1.45-.05-1.4-.5 1.1-8.2-6.5-15.4-8.75-8.25-24.35-9.4-.5-.05-2.9-1.2-2.45-1.2-2-1.2 19.3 0 30.4 9.55"/><path fill="#7cbeb3" d="M59.75 157.95q2.7-10.55 7.55-15.8l37.05 10.8q4.85 18.5.95 35.25-2.35 9.95-7.35 17.75-2.7 4.25-11 5.6Q78.2 213 70.1 209.8q-5.9-2.3-9.25-11.25-3.1-8.15-3.35-19.55-.25-11.15 2.25-21.05"/><path fill="#006359" d="M67.7 171.7q.3-3.05 7.35-8.25T84 159.7q1.95 1.45.75 15.8-1.2 14.35-3.65 14.55-1.45.1-7.5-8-6.1-8.2-5.9-10.35"/><path fill="#68a198" d="M58.8 160.05q.25 21.45 9.65 35.75 9 13.85 22.5 15.25-5.5 1.4-11.9.9-12.8-1-17.25-10.6-4.45-9.55-4.15-26.4l1.15-14.9"/><path fill="#0d131a" d="M65.15 147.65q-6.5 11.15-5.9 31.95.65 21.65 9.1 27.85 5.75 4.2 15.4 3.35 9.3-.85 12.3-5.1 6.8-9.65 8.9-23.3 1.9-12.3-.5-23.4-1.2-5.55-.3-5.95.9-.4 2.4 5 3.1 11.25 1.25 24.35-2 14.25-9.15 24.45-3.7 5.25-15.3 6.15-11.35.85-17.1-3.35-4.15-3.05-6.85-10.8-2.6-7.4-3.15-17-1.35-21.8 6.9-35.25 2.9-4.75 4-4.55 1.15.15-2 5.6"/><path fill="#0d131a" d="M68.9 171.2q-.1 1.75 5.15 9.8 5.35 8.2 6.85 8 1.65-.25 2.7-13.55 1.05-13.35-.5-14.45-1.45-1-7.8 3.75-6.3 4.75-6.4 6.45m-2.3-.5q.15-3.65 8.35-9.2 8.05-5.4 9.65-3.9 2.65 2.55 1.5 17.35-1.2 14.8-4.25 16.55-2.1 1.25-8.75-7.9-6.65-9.1-6.5-12.9"/><path fill="#fff" d="M28.9 206.05q-.25-.75 1.9-2.55 2.2-1.8 3.3-1.65 2 .25 2.75 4.35.7 3.8.1 4.35-.7.65-3.9-.8-3.45-1.55-4.15-3.7m14.9 3.75q-3.5-1.6-3.5-3.2 0-1.4 2.05-3.4 2-2 3.05-1.5 1.65.8 2.7 4.7 1 3.75.1 4.35-.95.65-4.4-.95m7.85-3.05q-.35-2.6 1.9-4.8l2.35-1.7q1.85.8 2.9 4.8.95 3.6.45 4.2l-3.95-.1q-3.5-.85-3.65-2.4m19.65 4.2q-.1-1.3.9-2.8 1.2-1.8 3.05-1.75 1.85.05 2.85 1.4.8 1.25.7 3.05-.1 1.65-1.15 3.7-1 2.05-1.6 2.05-.65 0-2.6-2.15-2.05-2.25-2.15-3.5m9.95 1.1q-.15-2.45 1.35-4.05 1.2-1.35 2.4-1.35.9 0 2.1 1.35 1.2 1.4 1.5 2.8.2.9-.45 3.1-.65 2.35-1.55 2.8-.9.5-3-1.1-2.25-1.65-2.35-3.55m9.85-.3q-1.4-1.5.25-4.55t3.25-2.6q1.5.5 2.9 4.2 1.3 3.55.65 4.55-.6.9-3.1.4-2.55-.55-3.95-2m17-9.1q-.2-1.05 1.95-2.6 2.1-1.5 3.05-1.1 1.65.75 2.15 4.2.5 3.35-.4 3.75-.9.4-3.55-.95-2.85-1.5-3.2-3.3m13.55 3.4q-3.05-1.05-3.55-2.4-.45-1.15 1.55-3.3 2-2.1 2.9-1.7 1.75.75 2.45 3.85.6 2.7.1 3.7l-3.45-.15m5.45-4.15q-.6-1.2 1.7-3.45 2.25-2.2 3.25-1.8 1.15.5 2.25 3.65 1.05 3.1.55 3.8l-3.8-.1q-3.3-.8-3.95-2.1m56.7 7.7q-.7-.7 1.1-3.6 1.8-2.95 3.05-2.9 1.65.1 3.7 3.6 1.95 3.3 1.5 3.9-.55.7-4.25.45-3.85-.25-5.1-1.45m10.9-2.75q-.7-.75.9-3.75 1.55-3 2.7-2.9 1.1.1 3.1 3.5 1.9 3.35 1.55 4.1-.45.75-3.65.55-3.4-.2-4.6-1.5m8.35-4.6q-.8-1 .5-3.8 1.25-2.7 2-2.6 1.3.15 3.2 3.3 1.85 3.1 1.4 3.9-.35.85-3.15.65-2.95-.2-3.95-1.45"/><path fill="#dbdcdc" d="M31.05 203.2l2.2 2.75q2.2 3.05 2.45 4.75l-3.5-1.8q-3.45-1.95-3.25-2.8.2-.85 1.2-1.95l.9-.95m11.25.2l1.9 2.35q2 2.8 2.65 5.05-6.15-2.15-6.3-4.25-.1-1.3.8-2.35l.95-.8m15.7 6.2q-3.2-.7-4.6-1.4-1.6-.75-1.8-1.85-.2-.95.4-2.2l.65-1.05q1.35.65 3.3 3.2 1.65 2.2 2.05 3.3m15.3-2.15l.5 3.05q.65 3.45 1.6 5.4l-1.9-1.65q-1.85-2.05-1.75-4.2.1-1.5.75-2.2.5-.55.8-.4m9 1.6l1.9 3.1 2.5 4.6q-1.4-.45-2.8-1.3-2.8-1.7-2.6-3.65.2-1.9.6-2.5l.4-.25m9.05-1.8l2.35 2.25q2.5 2.55 3.05 4.25l-3.1-1q-3.1-1.2-3-2.35l.4-2.25.3-.9m18.4-6.85q.45.3 1.9 2.25 1.8 2.45 2 3.95l-3.6-1.7q-1.4-.85-1.45-2.15-.05-.95.55-1.75l.6-.6m9.35.3l1.65 1.15q1.9 1.75 3.3 4.6l-2.7-.75q-2.75-1-3.05-2.3-.3-1.3.2-2.1l.6-.6m9.4-2l2.05 1.5q2.2 1.95 3 4.05l-2.85-.4q-3-.75-3.55-2.25-.3-.7.25-1.75.5-1 1.1-1.15m56.6 7.05q4.2 2 6.75 5l-3.75.05q-3.75-.2-3.9-1.5-.15-1.3.35-2.55l.55-1m10.45-2.15q.85.25 2.85 1.5 2.7 1.65 3.35 3.15l-3.5-.15q-3.55-.4-3.6-1.55-.1-1.1.4-2.15l.5-.8m7.9-4.9l2.2 1.35q2.45 1.7 3.4 3.6l-2.6-.2q-2.7-.4-3.35-1.35-.65-.95-.2-2.3l.55-1.1"/><path fill="#0d131a" d="M182.85 209.9q-.4-1.45 1.6-4.65 2-3.25 3.45-3.3 1.45-.05 4.05 3.8 2.55 3.75 2.2 5.1-.3 1.2-5.6.75-5.3-.45-5.7-1.7m3.25-3.9q-1.25 2-1 2.9.5.7 3.55 1.15 2.95.45 3.2-.05.25-.55-1.35-3.2-1.7-2.7-2.65-2.75-.55-.05-1.75 1.95m15.8 1.4q.3-.45-1.3-3.2-1.55-2.75-2.35-2.9-.6-.05-1.7 2.1-1.15 2.15-.95 3 .15.75 3.15 1.1l3.15-.1m-3.4-8.35q1.6.2 3.8 4.45 2.1 4.05 1.65 5-.45 1-4.75.6-4.4-.45-5.3-1.7-.8-1.1 1.05-4.75 1.85-3.8 3.55-3.6m5.7-.05q-.75 1.7-.3 2.8.2.6 2.65.95l2.65-.15q.3-.5-1.05-2.9-1.35-2.55-2.35-2.5-.85.1-1.6 1.8m-1.1-1.25q1.55-2.85 2.65-2.85 1.85 0 3.9 4.15 2 4 1.4 5l-4.45.15q-4.1-.5-4.45-1.4-.75-1.95.95-5.05M86.6 208.7q-.85-1-1.65-.9-1.15.05-2.05 1.45-.9 1.35-.75 2.6.15 1.15 1.95 2.6 1.75 1.35 2.35 1.1.4-.15.85-1.45.6-1.5.4-2.8-.15-1.55-1.1-2.6m-5.2-.65q1.7-2.5 3.7-2.35 1.45.1 2.6 1.5 1.15 1.4 1.45 3.45.35 2-.3 4.35-.65 2.3-1.6 2.65-1.2.45-3.85-1.3-2.85-1.95-3.25-4.25-.3-1.75 1.25-4.05m-4.35.55q-.65-.9-1.45-1-.95-.1-2 .8-1.1.9-1.1 1.95.05 1.3 1.45 3.1 1.25 1.7 1.85 1.7.55-.05 1.2-1.45.7-1.4.75-2.8.05-1.3-.7-2.3m-5.15-1.65q1.85-1.65 3.85-1.4 1.65.2 2.85 1.8 1.15 1.6 1.05 3.55-.05 1.6-1.25 4.1-1.3 2.6-2.25 2.7-1.1.15-3.45-2.55-2.5-2.8-2.6-4.75-.1-1.85 1.8-3.45m24.4.65q-1.15-1.6-2.1-1.6-.95-.1-1.9 1.4-1 1.55-.75 2.9.25 1.2 2.8 2.1 2.45.8 2.85.45.35-.3.15-2.1-.2-1.95-1.05-3.15m-1.75-3.8q2.45.35 3.85 5.15 1.3 4.5.5 5.4l-4.7-.3q-4.2-1.15-4.55-3-.4-2.05 1.15-4.7 1.7-2.85 3.75-2.55m-34.85.85q1.25 4.8.25 5.4-1.3.75-5.1-.3-3.95-1.1-4.4-2.65-.6-1.85 1.4-4.75 2.05-3 4.1-2.85 2.4.15 3.75 5.15m-7.15 1.65q.15 1.05 2.75 1.9 2.5.8 3.05.3.4-.35-.45-3.35-.9-3.2-2.1-3.4-1-.15-2.2 1.35-1.35 1.6-1.05 3.2m-11.05.3q0 1.15 2.75 2.4 2.7 1.2 3.1.65.45-.55-.25-3.25-.75-2.9-1.95-3.15-1.15-.25-2.4 1.05-1.15 1.2-1.25 2.2v.1m-.05-3.95q2.15-2 3.8-1.7 2.5.45 3.6 5.25 1.05 4.55.05 5.4-.95.9-5.3-1-4.55-1.9-4.35-4.3.15-1.7 2.2-3.65m86.65-1.45q.15 1 2.9 1.9 2.65.85 3 .4.35-.45-.45-3.1-.85-2.8-1.85-2.9-.85-.1-2.3 1.3-1.45 1.45-1.3 2.4m.05-3.35q2.6-2.5 4.1-2 1.9.7 3.1 4.75 1.15 3.85.4 4.55-.75.65-4.9-.45-4.25-1.15-4.75-2.55-.6-1.75 2.05-4.3m-6.4 7.35q2.2.75 2.55.4.35-.35-.15-2.85-.55-2.65-1.55-2.9t-2.35 1.1q-1.35 1.4-1.1 2.45.3 1.05 2.6 1.8M123 198q1.65.4 2.75 4.35 1 3.85.2 5.05-.5.75-4.45-.65-4.1-1.45-4.4-3.05-.35-1.6 1.9-3.85 2.3-2.3 4-1.85m-11.35 7.1q2.2 1.2 2.65.9.4-.25.1-2.9-.35-2.8-1.4-3.15-1-.35-2.4.7-1.35 1-1.3 2 .05 1.2 2.35 2.45m1.9-7q2.1.45 2.5 4.95.35 4.25-.5 4.85-.95.6-4.7-1.4-3.8-2.1-3.95-3.65-.15-1.45 2.15-3.3 2.45-1.9 4.5-1.45m-80.7 10.15q2.65 1.35 3.05.85.45-.5-.15-3.15-.65-2.75-1.55-3-1.05-.35-2.55.8-1.5 1.15-1.5 2.25.05.85 2.7 2.25m1.8-7.55q2.15.45 3.05 5.25.85 4.6-.05 5.15-1.55 1.05-5.6-1.1-4-2.1-4.15-3.75-.2-1.9 2.35-3.95 2.5-2 4.4-1.6"/></svg>