<svg xmlns="http://www.w3.org/2000/svg" width="133" height="133" viewBox="-0.9 0.0 133.25 132.85"><path fill="#0d131a" d="M80.5 78.1H57.55v-27H80.5v27m-80 .45q1.25-4.7 4.15-5.35 3.4-.75 6.45 3.5 2.7 3.8 3.7 9.2 1 5.35-.2 11.3-.95 4.95-2.65 7.45l-.8 1.1q-1.7-.7-4.4-3.7-3.9-4.4-5.5-10.2Q-.9 84 .5 78.55"/><path fill="#f0e78e" d="M2.65 89.7q-1.3-5.45-.75-9.95.6-4.95 3.3-5.5 2.2-.45 4.5 2.9 2.45 3.6 3.55 9.9.6 3.25.15 7.85-.45 5.55-2.25 9.5-2.7-1.85-5.05-6-2.3-4.05-3.45-8.7"/><path fill="#c9c279" d="M2.7 76.6q-.75 11.3 4.25 19.05 1.9 2.9 3.75 3.8 1.8.9 2.2-.8-.65 3.3-1.75 5.75-2.7-1.85-5.05-6-2.3-4.05-3.45-8.7-.9-3.65-.9-7.15-.05-3.75.95-5.95"/><path fill="#0d131a" d="M15.1 107.35l-1.7 1.35-2.2.9q-2.4-.35-2.4-3-.05-2.6 1.95-3.45 2-.9 3.6.6 1.65 1.5.75 3.6"/><path fill="#f0e78e" d="M14.2 105.15q.45.9-.4 1.95l-1 .85-.9.35q-1.05.2-1.7-.55-.5-.55-.3-1.7.15-1.2 1.05-1.8.65-.4 1.6-.25 1.15.15 1.65 1.15"/><path fill="#c9c279" d="M14.2 105.15q.45.9-.4 1.95l-1 .85-.9.35q-1.05.2-1.7-.55-.55-.6-.3-1.7l2.25.15q1.3-.65 1.05-2 .65.25 1 .95"/><path fill="#0d131a" d="M76.25 108.75q1.95-1.85 5.15-1.85 3.65 0 6.05 1.65 3.1 2.15 3.1 6.7 0 3-2.95 5.6-3 2.7-6.55 2.5-2.95-.15-4.85-2.05-2.15-2.25-2.15-6.3 0-4.1 2.2-6.25"/><path fill="#f0e78e" d="M76.75 109.65q1.85-2.45 4.75-2.45 3 0 5.15 2.15 2.2 2.25 2.2 5.7 0 2.9-2.65 5-2.5 1.95-5.55 1.95-2.15 0-3.95-2.25-1.75-2.2-1.75-4.7 0-3.1 1.8-5.4"/><path fill="#c9c279" d="M80.65 122q-2.15 0-3.95-2.25-1.75-2.2-1.75-4.7 0-3.1 1.8-5.4 1.85-2.45 4.75-2.45l2.25.35-1.2-.1q-2.7 0-4.6 1.9-1.9 1.9-1.9 4.6 0 2.7 1.9 4.65 1.9 1.9 4.6 1.9 2.15 0 3.9-1.3 1.7-1.25 2.35-3.25-.45 2.55-2.95 4.35-2.4 1.7-5.2 1.7"/><path fill="#0d131a" d="M73 97.9l-.65 23.25q-4.2 6.55-11.55 9.05-6.7 2.3-20.25 2.5-11.1.15-19-4.55-8.45-5-10.65-14.15-.8-3.55.95-5.8 1.95-2.45 5.6-.9l3.65 1.35 6.6.55q8.35-.25 12.75-6.2 4.35-5.95 3.4-15.9l14.85-7.2 14.3 18"/><path fill="#6cba5a" d="M24.25 110.25l-1.6.65q-1.8 1.1-3 3.35-1.2 2.3-.9 5l.6 2.3-2-.6q-1.35-.45-2.15-1.2-1.25-1.2-2.1-3.15-.8-1.95-.95-4.15-.15-2.45 1.2-3.8l3.75-.1 2.9 1.15q2.6.8 4.25.55"/><path fill="#5da24d" d="M12.5 114.6q.9 1.95 3.2 2.65l3.05-.2q-.3 2.5.6 4.5l-2-.6q-1.35-.45-2.15-1.2-2-1.95-2.7-5.15"/><path fill="#6cba5a" d="M33.4 109.95l-1.15 1.6q-1.15 2.05-1.15 4 0 2.1.85 4.05.7 1.5 1.4 2.1.75.7-.15.85l-5.5.45q-3.65 0-5.7-1.4-1.95-1.35-1.95-3.65 0-2.65 2-5 1.7-2 3.35-2.4l3.95-.25 2.35-.5q1.55-.4 1.7.15"/><path fill="#5da24d" d="M20.05 117.5q.75 1.95 5.5 2.6 4.8.6 6.15-1.2.7 1.95 1.65 2.8.75.7-.15.85l-5.5.45q-3.65 0-5.7-1.4-1.95-1.35-1.95-3.65v-.45"/><path fill="#6cba5a" d="M45.9 118.65q-4 2.4-7.15 2.9-3.25.4-4.95-1.65-1.4-1.7-1.4-4.55 0-1.75.5-2.95.5-1.35 1.8-2.6l4.15-3.25q3.05-2.5 4.1-4.75l.4-.4.35.4q.35 1.85 1.9 3.9 2.85 3.8 8.5 5.65l-1.9 2.35q-2.65 2.8-6.3 4.95"/><path fill="#5da24d" d="M41.6 117.05q5.7-3.65 4.7-10.5 2.8 3.2 7.8 4.8l-1.9 2.35q-2.65 2.8-6.3 4.95-4 2.4-7.15 2.9-4.25.55-5.7-2.9 3.6 1.5 8.55-1.6"/><path fill="#6cba5a" d="M58.85 82.6l1.6 17.8-1.85 6.35-3.8 2.75q-3.35 0-6.8-3.3-3.6-3.4-3.6-7.05 0-.85.35-2.55l.55-2.9q.7-4.35.6-5.4l8.05-5.7h4.9"/><path fill="#5da24d" d="M58.85 82.6l1.6 17.8-1.85 6.35-3.8 2.75q-1.85 0-4.05-1.25-2.15-1.2-3.8-3.15 3.55.1 5.6-2.4 1.8-2.2 2-5.65.25-3.25-1-5.8-1.3-2.7-3.55-2.95l3.95-5.7h4.9"/><path fill="#c9c279" d="M67.6 116.5q3 4.05 2.2 5.35-2.1 3.35-6.25 5.55-4.05 2.15-7.75 2.15-3.2 0-6.45-2.5-3.15-2.45-4.05-5.35-.35-1.25 1.25-2.05l5.4-4.1 12.5-2.85 3.15 3.8"/><path fill="#c9c279" d="M53.1 129.95q-9.2 1.9-14.05 1.35-2.6-.3-4.15-2.8-1.55-2.5-.35-4.25.3-.4.75-.6l1.45-.5 2.55-.55 4.75-1.6 1.45 3.5q2.5 3.85 7.6 5.45"/><path fill="#c9c279" d="M35.95 130.95q-8.2-.55-12.85-3.5-1.45-1.05-2-2.6-.5-1.5.2-1.55l5.05.75q3.6.25 6.9-.15-.9 2.15.15 4.25.8 1.7 2.55 2.8m-15.25-4.8q-2.45-1.5-4.05-3.6-.25-.3-.1-.55l.65-.1 2.5.9q-.4.7.1 1.9l.9 1.45"/><path fill="#0d131a" d="M43.5 36.75q2.65 2.4 9.25 9.7 5.3 5.3 9 12.35 3.4 6.45 3.4 10.15 0 2.85-1.6 5.6l-2.05 2.9L60 80.3 57.75 84q-2.1 3.05-4.3 4.15-2.25 1.1-6.55 1.1-7.3 0-14.6-10.5-7.5-10.7-7.5-22 0-7.3 3.55-14.2 3.35-6.5 7.35-8.2 3.5-1.45 7.8 2.4"/><path fill="#6cba5a" d="M36.1 36.5l3.9-.15 8.3 7.55 5.25 6.8q5.45 7.2 6.6 9.15 3.75 6.45 3.75 8.85 0 2.1-1.55 4.65L60.4 76l-1.75 3.05-2.15 3.75q-3.35 5.05-8.65 5.05-7.15 0-13.95-9.6-7-9.9-7-21.15 0-6.4 3.05-13.45 3.1-7.15 6.15-7.15"/><path fill="#5da24d" d="M63.9 68.7q0 2.1-1.55 4.65L60.4 76l-1.75 3.05-2.15 3.75q-3.35 5.05-8.65 5.05-2.55 0-5.7-1.7 5.8 1.65 8-2.1 2.35-4.1-1.35-12.15-.45-1-4.85-6.85-4.3-5.65-5.75-9.2l16.2-4 5.75 8q3.75 6.45 3.75 8.85"/><path fill="#0d131a" d="M71.8 87.2q8.3 0 12.45 3.95 4.35 4.1 4.35 12.75 0 6.2-6.55 12.25-6.75 6.3-14.35 6.3-5.9 0-9.15-4.25-3.25-4.3-3.25-12.05 0-6.25 4.65-12.3Q65.1 87.2 71.8 87.2"/><path fill="#f0e78e" d="M71.95 88.4q6.8 0 10.8 3.85 4.35 4.15 4.35 11.85 0 5.65-6.6 11.5-6.55 5.85-12.8 5.85-4.9 0-8-3.95-3.2-4.05-3.2-10.85 0-5.85 4.65-11.8 4.95-6.45 10.8-6.45"/><path fill="#c9c279" d="M59.05 98.05q2.6-4.75 6.4-7.4l7.4 5.3-.5 6.3q-2.6.2-5.15 1.75-2.4 1.45-3.6 3.35-.9 1.55-3.8 2.75l-2.75.9-.15-.05q-.4-2.1-.4-4.3 0-4 2.55-8.6m7.45 19.35q6.65 0 12.25-3.55 5.45-3.45 8.35-9.2-.35 5.6-6.85 11.2-6.45 5.6-12.55 5.6-2.85 0-5.15-1.4-2.35-1.4-3.85-4 3.7 1.35 7.8 1.35"/><path fill="#0d131a" d="M59.3 106.4q4.3 0 6.7 2.75 2.1 2.4 2 5.75-.1 2.95-2.65 5.4-2.7 2.55-6.3 2.55-3 0-5.25-2.15-2.55-2.45-2.55-6.35 0-3 2.1-5.35 2.35-2.6 5.95-2.6"/><path fill="#f0e78e" d="M59.5 107.7q3.05 0 5.1 2.05 1.9 1.95 1.9 4.5 0 2.8-2.15 5.1-2.2 2.4-5.1 2.4-2.45 0-4.5-2.05-2.1-2-2.1-4.45 0-3.5 1.95-5.55 1.85-2 4.9-2"/><path fill="#c9c279" d="M52.8 113.65q1.05 2.65 3.35 4.25 2.4 1.65 5.3 1.65 1.75 0 3.25-.6-2.3 2.8-5.45 2.8-2.45 0-4.5-2.05-2.1-2-2.1-4.45 0-.85.15-1.6"/><path fill="#0d131a" d="M92.1 98.55Q85.4 103 76.55 103q-8.45 0-13.3-4.75-5.05-4.9-5.05-13.85 0-6.15 5.45-10.75 5.8-4.95 14.6-4.95 10.6 0 15.8 5.55 4.7 5 4.7 14.15 0 5.7-6.65 10.15"/><path fill="#f0e78e" d="M90.45 97.5q-6.15 4.05-13.65 4.05-8.4 0-12.85-4.6-4.3-4.45-4.3-12.45 0-5.05 5.65-9.6 5.85-4.7 12.7-4.7 9.65 0 14.2 4.2 4.65 4.2 4.65 13.3 0 5.6-6.4 9.8"/><path fill="#c9c279" d="M90 91.65q4.55-3.9 6.2-10 .65 2.6.65 6.05 0 5.6-6.4 9.8-6.15 4.05-13.65 4.05-8.4 0-12.85-4.6-4.3-4.45-4.3-12.45 0-3 2.4-6.2.75 7.3 5.7 12.3 5 5 11.7 5 5.85 0 10.55-3.95m5.1-13.3Q91.25 80 87.15 80q-4.95 0-9.3-2.3-4.2-2.2-7.05-6.05 3.65-1.45 7.2-1.45 13.25 0 17.1 8.15"/><path fill="#0d131a" d="M65.85 80.45q3.55 0 6.25 2.55 2.85 2.75 2.85 6.85 0 4.2-3.2 6.75-3 2.4-7.4 2.4-3.55 0-6.05-2.6-2.6-2.7-2.6-6.75 0-4.15 2.9-6.7 2.85-2.5 7.25-2.5"/><path fill="#f0e78e" d="M65.45 81.75q3.65 0 5.95 2.55 2.1 2.35 2.1 5.55 0 3.35-2.6 5.65-2.55 2.25-6.15 2.25-3.3 0-5.55-2.3-2.2-2.3-2.2-5.6 0-3.45 2.35-5.75 2.4-2.35 6.1-2.35"/><path fill="#c9c279" d="M66.05 94.35q4.35 0 7.3-3.05-.55 2.8-3 4.65-2.45 1.8-5.6 1.8-3.3 0-5.55-2.3-2.2-2.3-2.2-5.6l.05-.85q1.35 2.45 3.7 3.9 2.4 1.45 5.3 1.45"/><path fill="#0d131a" d="M87.55 87.95q1.1-2.4 2.8-3.95 1.9-1.75 3.8-1.75 2.4 0 4 1.95 1.7 2 1.7 5.2 0 3.75-2.85 6.55-2.8 2.75-6.5 2.75-3.4 0-4.1-3.6-.65-3.25 1.15-7.15"/><path fill="#f0e78e" d="M93.95 83.3q1.9 0 3.15 1.75t1.25 4.15q0 3.35-2.3 5.65-2.35 2.35-5.65 2.35-1.2 0-2.05-.9-.95-1-.95-2.7 0-3.1 2.2-6.65 2.25-3.65 4.35-3.65"/><path fill="#c9c279" d="M87.4 93.7q2.05 1.95 5 1.95 2.15 0 3.9-1.1-2.35 2.65-5.9 2.65-1.2 0-2-.85-.95-1-1-2.65"/><path fill="#0d131a" d="M97.05 77.35q-9.55 0-17.4-5.05-7.5-4.8-7.5-10 0-2.5.3-3.1-1.2 1.6-4.2 3.2-5.9 3.15-14.6 3.15-8.1 0-13.35-7.55-5.45-7.75-5.45-20.15 0-17.5 13.8-28.25Q61 0 77.5 0q15.1 0 29.05 10.45 15 11.25 15 25.7 0 8.8-6.9 14.65l1.1 2.25q1.1 2.95 1.1 6.35 0 6.75-4.6 11.85-5.5 6.1-15.2 6.1"/><path fill="#6cba5a" d="M96.7 45.4q18.3 0 18.3 14.1 0 6.65-5.2 11.5-5.25 4.9-12.45 4.9-9.55 0-17.3-5.5-6.6-4.7-6.6-8.2l.1-2.7.1-.9L79 53.8q4-3.9 8.6-6.15 4.75-2.25 9.1-2.25"/><path fill="#5da24d" d="M93.15 68.8l1.2-.05v7q-8.5-.85-15.15-6-5.75-4.45-5.75-7.55l.1-2.7.1-.9 2.4-2.05q1.85 5.4 6.45 8.8 4.75 3.45 10.65 3.45"/><path fill="#6cba5a" d="M105.95 12.25q13.6 10.8 13.6 23.9 0 5.65-2.95 10l-2.95 3.2q-2.3-2.75-7.1-4.15-4.3-1.25-9.95-1.25-6.85 0-13.25 4.2-1.65 1.1-10.2 8.4-4.7 4.05-8.95 5.6-4.4 1.6-11.1 1.6-6.95 0-11.6-7.55-4.55-7.5-4.55-18.45 0-16.1 12.45-26.45Q61 1.65 77.15 1.65q15.4 0 28.8 10.6"/><path fill="#5da24d" d="M50.55 57.35q11 4.7 22.95-1.05l-.35.25q-4.7 4.05-8.95 5.6-4.4 1.6-11.1 1.6-6.5 0-11-6.65-4.45-6.5-5.05-16.45 2.55 11.95 13.5 16.7"/><path fill="#0d131a" d="M58.45 11.75q7 0 11.9 5.3 4.4 4.75 4.4 10.35 0 6.5-4.25 10.9-4.7 4.9-12.85 4.9-6 0-10.45-4.5-4.5-4.6-4.5-10.95 0-6.5 4.65-11.2 4.65-4.8 11.1-4.8"/><path fill="#f9be00" d="M58.8 13.55q6.25 0 10.45 4.8 3.7 4.25 3.7 9.15 0 5.85-4.25 10-4.5 4.45-11.35 4.1-5.4-.25-9.1-4.3-3.75-4.1-3.75-10 0-5.8 4.05-9.75 4.1-4 10.25-4"/><path fill="#0d131a" d="M58 38.05q-4.35 0-7.45-3.1-3.1-3.1-3.1-7.45 0-4.4 3.1-7.5 3.1-3.1 7.45-3.1 4.4 0 7.5 3.1 3.1 3.1 3.1 7.5 0 4.35-3.1 7.45-3.1 3.1-7.5 3.1m66.55-25.75q3.65-.75 5.65 2.05 2.15 2.9.7 5.85-1.65 3.35-7.75 5.95-9 3.95-11.8 5.55-2.05 1.15-2.7 1.95-.7.8-1.5 2.95-2.2 5.85-6.45 5.2-2.75-.4-3.95-2.25-.75-1.1-1.2-3.75l-.6-3.4q-.4-1.2-1.95-2.4-1.4-1.1-8.6-4.85-7.4-3.9-8.9-5-3.65-2.7-4-6.4-.25-3 1.4-4.9 1.7-2 4.55-2.15 2.85-.1 5.45 1.75L88.35 13l6.9 5.8q5.55 4.25 7.9 4.3 3.2.1 12.8-6.5 5.35-3.65 8.6-4.3"/><path fill="#da4e70" d="M122.05 14.8q2.35-1.25 4.2-1.1 1.7.2 2.65 1.45 1.45 1.95.4 4.15-1.1 2.35-4.7 4.1-7.95 3.85-13.2 6.55-2.45 1.25-3.35 2.15-1.3 1.2-2.05 3.45-1 2.75-2.25 3.85-1.3 1.1-3.15.75-1.85-.35-2.55-1.4-.65-1-.9-3.65-.25-2.25-1-3.65-.95-1.7-3.2-3.3l-5.2-2.95-8.35-4.55q-4.55-2.6-5.8-5.5-1.1-2.65.55-4.95 1.6-2.25 4.5-1.7 3.25.6 7.6 4.65 4.2 3.95 8.75 7.2 5.7 4.05 8.25 4.05 2.95 0 8.95-3.55l9.85-6.05"/><path fill="#b8405f" d="M129.7 17.15q.2 1.65-1.05 3.25-1.35 1.7-4.05 3-7.95 3.85-13.2 6.55-2.45 1.25-3.35 2.15-1.3 1.2-2.05 3.45-1 2.75-2.25 3.85-1.3 1.1-3.15.75-1.85-.35-2.55-1.4-.65-1-.9-3.65-.25-2.25-1-3.65-.95-1.7-3.2-3.3l-5.2-2.95-8.35-4.55q-3.5-1.95-5.05-4.2-1.4-2-1.1-4-.15 2.25 11.5 8.6 11.8 6.4 17.85 7 4.7.5 15.75-4.05 10.95-4.5 11.35-6.85"/><path fill="#0d131a" d="M98.5 55.75q6.3 0 10.3 3.4 3.75 3.15 3.75 7.75 0 2.9-3.15 5.9-3.95 3.8-10.35 4.05-5.85.2-10.05-2.1-4.85-2.65-4.85-7.55 0-4.7 4.25-8.05 4.25-3.4 10.1-3.4"/><path fill="#6cba5a" d="M98.35 57.2q4.85-.1 8.45 2.4 3.95 2.7 3.95 7.05 0 4.2-3.4 6.5-3.3 2.2-9.1 2.2-5.85 0-9.2-2.5-3-2.25-3-5.6 0-3.75 3.15-6.65 3.5-3.25 9.15-3.4"/><path fill="#8a969d" d="M57.85 27q-2.45.75-4.55-.05-2.15-.75-2.7-2.6-.6-1.85.7-3.75 1.3-1.85 3.7-2.6 2.45-.75 4.55 0 2.15.8 2.75 2.65.55 1.9-.7 3.7-1.3 1.85-3.75 2.65"/><path fill="#5da24d" d="M86.4 69.4q4.15 3.15 11.3 3.7 7.05.55 11.6-1.85-3.05 4.1-11.05 4.1-4.85 0-8-1.75-2.9-1.6-3.85-4.2"/><path fill="#5da24d" d="M86.4 69.4q4.15 3.15 11.3 3.7 7.05.55 11.6-1.85-3.05 4.1-11.05 4.1-4.85 0-8-1.75-2.9-1.6-3.85-4.2"/><path fill="#d6e6ae" d="M39.7 62.2q2.85 1.6 4.4 4.85 1.65 3.45 1.3 6.65-.35 3.15-2.6 4.4-2.2 1.25-5.25-.25-3.05-1.55-4.9-4.85-1.85-3.3-1.45-6.55.35-3.25 2.6-4.5 2.75-1.55 5.9.25"/><path fill="#6cba5a" d="M39.25 64.55q2.2 1.2 3.3 3.65 1.3 2.6 1 5-.25 2.35-1.95 3.3l-3.95-.2q-2.3-1.15-3.7-3.65-1.35-2.45-1.05-4.95.25-2.4 1.95-3.35 2.05-1.15 4.4.2"/><path fill="#d6e6ae" d="M52.95 96.7q-.15 1.7-1.1 2.85-.9 1.15-2.15 1.15-1.3 0-2.2-1.25-.95-1.3-.9-3 .05-1.7 1-2.9t2.2-1.15q1.55 0 2.45 1.4.8 1.3.7 2.9"/><path fill="#6cba5a" d="M52 96.7q-.1 1.3-.8 2.15-.7.85-1.65.85t-1.65-.95q-.7-1-.65-2.25 0-1.3.75-2.2.7-.85 1.65-.85 1.15.05 1.8 1.1.65.95.55 2.15"/><path fill="#d6e6ae" d="M42.1 114.95q-1.55 1.1-3.15 1.15-1.65.05-2.5-1-.9-1.05-.5-2.7.4-1.7 1.85-2.9 1.45-1.2 3.15-1.25 1.6-.05 2.5 1 1.1 1.3.6 3.05-.5 1.6-1.95 2.65"/><path fill="#6cba5a" d="M41.5 114.25q-1.2.85-2.4.9-1.3 0-1.95-.8-.7-.8-.35-2.05.3-1.3 1.4-2.25 1.1-.9 2.4-.95 1.25-.05 1.95.8.8 1 .4 2.35-.35 1.2-1.45 2"/><path fill="#d6e6ae" d="M26.35 117.6q-1.3.15-2.3-.4-1-.55-1.2-1.5-.2-.95.65-1.85.85-.85 2.1-1.1 1.3-.2 2.35.35 1.05.5 1.2 1.5.2 1.15-.7 2.05-.85.8-2.1.95"/><path fill="#6cba5a" d="M26.15 116.9l-1.75-.3q-.8-.4-.9-1.1-.1-.75.5-1.4.6-.65 1.6-.8.95-.2 1.75.25.75.4.9 1.1.15.85-.55 1.5-.6.65-1.55.75"/><path fill="#d6e6ae" d="M14.95 114.6q-.95-.65-1.25-1.55-.35-.9.05-1.6.4-.7 1.4-.8 1-.1 1.95.45t1.35 1.5q.35.9-.05 1.6-.55.85-1.6.9-.95.05-1.85-.5"/><path fill="#6cba5a" d="M15.25 113.95q-.7-.45-.95-1.1-.25-.6.05-1.1l1-.6q.7-.1 1.4.3t.95 1.05q.25.65-.05 1.2-.35.6-1.1.65-.7.05-1.3-.4"/><path fill="#edadb5" d="M127.9 16.1q-.05.6-.65 1t-1.4.3q-.8-.05-1.3-.55t-.45-1.15q.05-.6.65-1 .6-.35 1.4-.3.8.1 1.3.55.55.5.45 1.15m-38.65 3q-.15.2-4.05-2.15-3.7-2.25-5.45-3.55-2.35-1.75-1.85-2.45.65-.65 3.05 1.1 2.3 1.75 5 4 3.45 2.8 3.3 3.05"/></svg>