<svg xmlns="http://www.w3.org/2000/svg" width="177" height="176" viewBox="0.0 0.0 176.7 175.8"><path fill="#eeeeef" d="M19.8 91.95q21.85 23 51.6 31.25 32.65 9.05 58.25 8.05 20.1-.8 37.1-7.95-10.2 22.65-31.15 36.4-21.45 14-47.25 14-17.55 0-33.55-6.75-15.45-6.55-27.35-18.45-11.95-11.95-18.5-27.4-6.75-16-6.75-33.55 0-8.7 1.65-16.95 5 9.85 15.95 21.35"/><path fill="#e50044" d="M167.75 54q6.75 16 6.75 33.55 0 12.9-3.65 25.4-2.9 9.85-4.1 10.35-16.15 7.25-39.1 8.1-30.6 1.1-62.6-10.55-29.9-10.9-48.55-31.65Q7.2 78.8 3.85 70.6q5.95-29.85 29.5-49.4 23.9-19.8 55-19.8 17.55 0 33.55 6.75 15.45 6.55 27.4 18.5 11.9 11.9 18.45 27.35"/><path fill="#fff" d="M99 91.45q17.4-4.15 29.05-4.6-6.25 15.55-9.25 20.7-2.8 4.95-5.45 5.6l-10.1-.55q-4.85-.6-14.9-3.1-10.95-2.7-11.9-4-.7-.95-.6-3.2.1-2.35 1.1-3.15 4.5-3.5 22.05-7.7m-62.15-20.3q5.75 10.3 15.3 18.75.6.55-.65 2.55-1.35 2.1-2.8 1.75-3.55-.75-8.65-3.55-7.3-4-8.25-8.2-3.45-16.25-1.7-25.9l6.75 14.6"/><path fill="#c8c9ca" d="M60.05 168.8l-9.85-3.9q26.45 4.7 51.9-5.05 24.95-9.65 42.15-30.55 5.45-.35 11.5-2 4.2-1.1 11-3.55-5.05 10.95-12.9 19.95-28.3 32.1-68.8 29.85-12.65-.7-25-4.75"/><path fill="#c6003a" d="M168.45 53.7q6.3 10.55 6.65 29.4.4 21.65-8.35 40.65-6.8 2.45-11 3.55-6.05 1.65-11.5 2 12.45-15.05 18.65-33.8 6.6-19.85 5.55-41.8"/><path fill="#0d131a" d="M40.05 79.45l.3-3.9 3.2 3.9v.05q-.1 6.75-1.85 6.7-1.75-.05-1.65-6.75"/><path fill="#fff" d="M41 78.1l1.85 2.3q-.25 1.4-.95 1.4-.45 0-.7-.85-.3-.8-.3-2l.1-.85"/><path fill="#0d131a" d="M100 94.9q1.75-5.7 3.8-5.1.95.3.8 1.9-.1 1.35-1 4.3-2 6.5-3.8 5.95-1.75-.6.2-7.05"/><path fill="#fff" d="M101.35 92.85q.35-1.15.9-1.8.5-.7 1-.55.5.15.55 1l-.25 2q-.35 1.15-.9 1.8-.55.7-1.05.6-.5-.15-.55-1.05-.05-.85.3-2"/><path fill="#0d131a" d="M173.3 87.55q0-17.25-6.7-33.05-6.45-15.25-18.2-27t-27-18.2q-15.8-6.7-33.05-6.7-17.25 0-33.05 6.7-15.2 6.45-27 18.2-11.75 11.8-18.2 27-6.7 15.8-6.7 33.05 0 17.25 6.7 33.05 6.45 15.25 18.2 27t27 18.2q15.8 6.7 33.05 6.7 17.25 0 33.05-6.7 15.25-6.45 27-18.2t18.2-27q6.7-15.8 6.7-33.05m-3.55-34.2q6.95 16.25 6.95 34.2 0 17.95-6.95 34.25-6.7 15.7-18.95 27.8-12.25 12.05-28.1 18.7-16.4 6.8-34.35 6.8-18 0-34.35-6.8-15.9-6.65-28.1-18.7-12.25-12.1-18.95-27.8Q0 105.5 0 87.55t6.95-34.2Q13.65 37.6 25.9 25.5 38.1 13.45 54 6.85 70.4 0 88.35 0q17.95 0 34.35 6.85 15.85 6.6 28.1 18.65 12.25 12.1 18.95 27.85"/><path fill="#0d131a" d="M166.9 121.6q.3-.15.55 1 .2 1.1-.1 1.25-17 8.5-43.85 8.85-27.85.3-54.1-8.55-21.6-7.3-37.75-19.6Q12.7 90.2 2.95 70.25q-.15-.3.8-.9.9-.65 1.05-.35 9.1 18.6 26.95 32.5 16.3 12.65 38.15 20.05 25.4 8.6 52.4 8.7 27.25.05 44.6-8.65"/><path fill="#0d131a" d="M73.55 83.85q1.1-2.6 1.75-2.35.65.2-.1 2.9-.55 2-2.05 10-.55 2.95-1.1 2.85-.55-.05-.45-3.1.2-6.2 1.95-10.3m12.6-21q3.55-1.9 3.8-1.4.2.5-3.15 2.8-3.9 2.6-7.4 6-2.05 2.05-5.05 9.35-1.25 3.2-1.7 2.95-.5-.2.35-3.55 1.85-7.45 5-10.4 3.35-3.1 8.15-5.75m46 22.7q4.15-.2 4.15.7 0 .9-4.15 1.15-27.7 2-54.75 12.2-3.45 1.3-3.65.45-.2-.8 3.2-2.25 12.5-5.35 24.7-8.2 13.85-3.25 30.5-4.05"/><path fill="#0d131a" d="M126.5 86.85q.1-.3 1.6-.25 1.45 0 1.35.35l-3.05 8.15q-3.6 8.7-7.2 14.15-2.45 3.65-3.15 3.3-.7-.35 1.6-4.05 3.15-5.05 6.3-13.8l2.55-7.85m-49.3 19.7q-2.9-1.4-2.55-1.95.35-.55 3.3.7 6.15 2.5 14.8 4.3 8.95 1.85 18.3 2.45 3.55.25 3.4 1.1-.15.9-3.75.75-9-.35-18.15-2.4-9.15-2-15.35-4.95M29.1 51.1q3.3 10.8 10.15 21.65 6.95 11.1 14.2 16.7-.15-5.7 2.05-11.8 1.15-3.25 1.9-3.1.7.1-.35 3.75-1.7 6.25-2 11-.2 2.7-.55 2.9-.3.15-2.05-1.1-7.3-5.25-14.55-16.4Q30.3 63 27.5 51.8q-.8-3.25-.15-3.7.7-.5 1.75 3"/><path fill="#0d131a" d="M29.2 55.1q.05-.3.95 1.35L31 58.4q-.75 5.35-.2 12.4.7 8.55 3.05 13.35 1.45 2.85 12.8 8.8 2.6 1.3 2.45 1.75-.15.45-2.85-.55-4.05-1.5-8.15-4.05-4.95-3-6.1-5.4-2.8-5.75-3.4-14.6-.45-7.15.6-15"/></svg>