<svg xmlns="http://www.w3.org/2000/svg" width="293" height="290" viewBox="0.0 0.0 293.05 290.35"><path fill="#e50044" d="M290.2 145.2q0 29.25-11.3 55.95-10.9 25.75-30.75 45.65-19.9 19.9-45.7 30.8-26.7 11.3-55.95 11.3-27.95 0-53.65-10.35-24.85-10-44.5-28.4-19.6-18.3-31.25-42.35-12-24.75-13.95-52.3 15.9 9.65 43.9 17.15 56.05 14.95 116.7 4.15 60.7-10.85 98.05-39.05 11.7-8.8 19.65-18.3 3.95-4.75 5.6-7.75 3.15 13.95 3.15 33.5"/><path fill="#eeeeef" d="M195.15 9.65q22.7 7.95 41.4 22.85 18.55 14.85 31.2 34.9 12.9 20.5 18.25 44.3-1.5 3.55-7.45 10.4-8.65 9.9-21.1 18.9-37.55 27.2-95.25 36.3-64.3 10.15-118.1-4.8-16.8-4.7-30.55-11.3l-10.4-5.7q-.35-4.75-.35-10.3 0-29.25 11.3-55.95 10.9-25.8 30.8-45.7 19.9-19.9 45.65-30.8 26.7-11.3 55.95-11.3 25.3 0 48.65 8.2"/><path fill="#fff" d="M185.2 193.75q30.8-8.2 53.85-23-1.7 13.95-10.3 28.8-17.25 29.7-51.85 34.15-34.6 4.45-61.05-13.1-8.25-5.45-14.7-12.5l-4.8-5.9q48.45 2.35 88.85-8.45"/><path fill="#dbdcdc" d="M214.45 184q15.25-6.4 24.6-13l-1.5 8.6q-18.7 19.05-64.15 27.45-19.85 3.65-39.35 3.9-19.7.3-34-2.95l-3.45-6.3q37.65 5.4 82.85-6.1 18.65-4.75 35-11.6"/><path fill="#c8c9ca" d="M31.6 168.45q-5.75-3.2-14.25-7.25l-14.7-7q-1.35-21.35 3.5-41.95Q11.1 91.15 22.1 72.9q-2.45 25.25-.1 49.3 2.4 24.25 9.6 46.25"/><path fill="#c6003a" d="M2.65 154.2l14.7 7q8.5 4.05 14.25 7.25 14.25 43.35 45.45 73.75 33.1 32.25 82 46.35-35.6.4-65.25-10.8-27.6-10.4-48.15-30-19.35-18.5-30.5-43.2-10.8-23.95-12.5-50.35"/><path fill="#0d131a" d="M276.35 90.4q-10.7-25.3-30.2-44.85-19.55-19.5-44.85-30.2-26.15-11.1-54.8-11.1-28.6 0-54.8 11.1-25.3 10.7-44.8 30.2Q27.35 65.1 16.65 90.4q-11.1 26.15-11.1 54.8 0 28.6 11.1 54.8 10.7 25.3 30.25 44.8 19.5 19.55 44.8 30.25 26.2 11.1 54.8 11.1 28.65 0 54.8-11.1 25.3-10.7 44.85-30.25 19.5-19.5 30.2-44.8 11.1-26.2 11.1-54.8 0-28.65-11.1-54.8M250.1 42.3q20.3 20.05 31.4 46.15 11.55 27 11.55 56.75t-11.55 56.75q-11.1 26.1-31.4 46.15-20.3 20-46.6 30.95-27.2 11.3-57 11.3t-57-11.3Q63.2 268.1 42.95 248.1q-20.3-20.05-31.4-46.15Q0 174.95 0 145.2t11.55-56.75q11.1-26.1 31.4-46.15 20.25-20 46.55-30.95Q116.7 0 146.5 0t57 11.35q26.3 10.95 46.6 30.95"/><path fill="#0d131a" d="M285.2 111.05q.35-.4.95 1.75.65 2.15.3 2.6-18.65 25.2-51.65 42.05-33.2 16.9-76.35 23-45.35 6.4-89.55-.65-43.9-7.05-66.15-24-.45-.35.35-2.2.85-1.85 1.25-1.5 21.45 16.35 64.3 23.35 44.1 7.2 89.45.8 42.4-6 75.8-23.3 32.85-17 51.3-41.9M247.25 82.5q2.85 5.7 1.85 6.85-1.05 1.15-3.95-4.1-5.2-9.55-11.25-15.35-5.9-5.7-9.95-5.35-3.4.3-9.35 10.25-6.85 11.4-11.45 27.45-1.65 5.75-3.15 6.1-1.5.3-.25-5.35 3.85-17.1 11.15-30.1 7.15-12.75 12.85-13.25 5.05-.45 11.85 6.35 6.65 6.55 11.65 16.5m-84.1 3.2q-.4-5.55.85-6.05 1.3-.5 2.25 5.85.8 4.9 1.1 11.9.25 6.55-.05 9.6-.2 1.75-1.55 5.15-1.4 3.4-2.95 5.85-3.15 5-4.05 4.4-.85-.55 1.15-5.4 2.85-7.05 3.4-10.5.4-2.2.35-8.35-.05-5.9-.5-12.45m-48.05-.65q-17.65-8.55-25-6.95-5.15 1.15-13 11.9-6.35 8.6-13.1 21.35-3.15 6-4.55 5.55-1.35-.45.9-6 5.45-13.3 12.8-23.85Q82.05 74.3 89.5 72.6q7.8-1.75 26.2 7.7 18.8 9.65 35.6 24.5 6.1 5.45 5.4 6.8-.7 1.35-6.9-3.85-16.45-13.8-34.7-22.7"/><path fill="#0d131a" d="M109 140.7q-.4-5.1 0-7.55.5-3.15 2.3-3.3 1.85-.15 2.8 2.9.75 2.4 1.15 7.45.4 5.25.05 7.55-.45 3.2-2.35 3.35-1.9.15-2.85-2.95-.7-2.25-1.1-7.45m96.75-12.15q-.8-10.05 1.8-10.3 1.5-.1 2.35 2.8.65 2.25 1.05 7.1.4 4.9.15 7.15-.35 3-1.95 3.15-1.6.1-2.4-2.8-.6-2.1-1-7.1m-31.85 66.4q41.4-8.8 66.5-27.05 6.2-4.55 7-3 .8 1.5-5.4 6-27.15 19.75-70.1 28.45-39.3 7.9-79.25 4.4-9.35-.8-8.95-2.65.45-1.85 9.9-1.05 40.25 3.35 80.3-5.1"/><path fill="#0d131a" d="M237.15 172.4q.1-.55 2.35-1.8 2.25-1.2 2.15-.65-2.45 20.6-15.35 37.05-14.6 18.65-38.5 25.8-27.85 8.35-56.5-2.25-25.6-9.5-38.45-27.95-.35-.45 2.75-.65l3.35.2q12.95 18.6 39.25 26.75 26.3 8.15 49 .7 22.3-7.35 35.95-25.5 10.7-14.3 14-31.7"/><path fill="#0d131a" d="M148.25 221.35q-.95-5.35.35-5.8 1.3-.4 2.45 4.65l3.35 14.15q.1.55-1.8.3-1.9-.25-2-.8l-2.35-12.5M175.9 226q-.85-4.6.15-4.9 1.05-.3 2.45 4.2l2.35 8.1q.1.55-1.45.8-1.6.2-1.7-.35l-1.8-7.85"/></svg>