<svg xmlns="http://www.w3.org/2000/svg" width="155" height="167" viewBox="-1.15 0.0 155.2 167.35"><path fill="#f9dad9" d="M104.95 46.05q-7.85.3-14.8-3.3-4.7-2.45-7.7-9.15-3.25-7.25-1.3-13.4 2.95-9.4 9.35-14.55 5.25-4.2 12-5.05l.25 4.95 3.85-1.35q.8 2.1 2.75 4.55 2.3-.25 8.6-2.1 5.35 8.5 4.65 18.35-.6 8.4-5 14.35 7.6-.5 14.6 2.95 8.55 4.2 14.95 13.9 6.5 9.9 5.05 19.4-1.3 8.4-8.1 13.8-6.2 4.95-14 5.8-7.8.9-15.3-2.5.35 4.5-1.1 10.85 4.35-1.35 8.9-1.2 4.9.1 9.05 1.95 7.6 3.4 11.45 14.05 3.5 9.7 2.1 19.5-2.25 15.8-13.55 22.75-10.95 6.75-24.8 2.05-12.45-4.2-17-16.2-3.95-10.4-.35-19.7-7.7 2.25-15.65.65-6.2-1.25-11.05-4.4 1.2 9.35-4 17.55-4.05 6.45-9.7 9.4-12.5 6.55-25.5.95-12.35-5.25-18.45-18.15-5.7-12.1-3.95-25.15 1.75-12.9 9.45-18.05 7.2-4.85 18.25-2.75 10 1.9 19 8.45-.2-4.85.85-10.95-9.6-1.2-15.05-5.05-5.4-3.8-9.15-12-3.95-8.6-2.25-20.45 1.8-12.5 8.75-16.75 10.95-6.65 25.3.55 6.25 3.1 10.95 8.15 4.85 5.1 6.7 10.75 6.45-2.4 13.45-1.05 7.4 1.35 12.85 6.55 1.65-5.4 4.65-8.95"/><path fill="#ed8599" d="M52.3 55.1l-10.9 6.85q1.75-1.3 4.75-5.1l3.95-5.1q1.1 2.15 2.2 3.35m71.15 78.15q6.3.85 10.95 3.35l-14.6-.45q-5.45.5-12.15 2.2.6-1.55 1.2-4.4 7.15-1.75 14.6-.7m21-64.8q-4.7.6-11.6 3.6-5.5 2.35-11.1 5.6 4.05-5.95 10.35-8.6 6.3-2.6 12.35-.6"/><path fill="#ffe100" d="M114.2 16.35l-1.7.1.8 4.95-9.25 3.8-3.15-.35v-3.6l-2.8-3.4-5.65-1.05 2.15-2.9q1.4-1.75 2.3-2.6 5.25-3.2 10.9-1.2 5.3 1.85 6.4 6.25"/><path fill="#fff" d="M31.6 56.6q-1.5 1.75-4.35 3.75-1-1.55-2.7-6-.5-1.35-.05-1.9l1.15-.05 5.55 2.4q.7.25.75.9l-.35.9m16.95-16.5q1.4 2.45 2.45 7-1.6 1.1-6.15 2.95l-6.2 2.2q-1.6.5-1.7-.65-.1-1.05.85-2l4.2-4.75 4.55-5.5q1-1.25 2 .75m38.1 49.6q1.3.15 1.05 1.6-.25 1.25-.85 1.6-5.15 2.75-11.2 3.75-5.1.8-6.75 0-2.05-.95-4.4-10.1-.4-1.5.4-1.9l1.7.1q3 1.3 9.75 2.95l10.3 2m20.1-15.85q.35-.8 1-.5.55.25.85 1 1.15 2.55 1.5 5.5.35 2.9-.25 3.95-.55.95-3.95 2.4-3.25 1.4-5.5 1.8-.6.15-1.55-.85-1-1.1.05-2.1 4.5-4.2 7.85-11.2M120.6 55.5q-.45 5.25-4.4 7.2-3.05 1.5-7 .8-.95-.15-.95-.7 0-.5.6-.85 5.75-3.8 10.7-7.9.4-.35.75.2.4.5.3 1.25m22.75-4.45l.4.6L142.5 53q-1.1.9-2.45 1.35-3 .95-6-2.75-1.05-1.4.95-1.15l8.35.6m-16.8 69.55q.65.45.45 1.2t-1.2.8l-9.05-.05q-6.7-.25-7.15-.9-.45-.7-.25-3.55.2-2.35.65-4.35.6-2.5 1.15-2.75.25-.15 1.3.55 9.6 5.95 14.1 9.05m15.2.8q-.1 3.45-1 6.15-2.15-.7-4.85-2.5-.85-.6-.65-1.35.2-.65.85-.95 1.15-.4 4.5-2.45.45-.3.85.15.35.4.3.95m-134.45.25q.65-.35 1.65.4 3.65 2.65 11.35 5.5.75.3.6.9l-.9 1-3.25 1.8q-2 .8-3.9.55-2-.25-3.9-3.15-1.65-2.5-2.1-4.95-.3-1.65.45-2.05m35.5-14.5q4.9 7.6 4.35 8.85-.55 1.3-5.75 4.15-4.95 2.8-7.7 3.55-1.5.4-1.95-.35-.4-.7.1-1.95 1.05-2.7 4.05-7.55l4.8-7.35q.45-.65 1.1-.35l1 1"/><path fill="#d7bdbc" d="M114.85 86.5q.85 3.55.2 9.05-.5 4.25-1.7 8.45-8.2.75-16.25 9.8-6.85 7.7-7.9 13.35l-5.15.75q-11.8.8-20.95-4.5-.45-8.25-5.15-16.4 7.25 4.45 16.85 5.55 9.5 1.1 18.2-1.4 9.25-2.65 14.9-8.6 6.3-6.55 6.95-16.05"/><path fill="#d7bdbc" d="M53.85 101.35q11.6 14.45 8.5 30.4-1.45 7.4-6.1 12.65-4.9 5.55-12.45 7.6-10.6 2.95-20.15-1-8.15-3.35-14-10.95 7.65 4.3 16.8 3.25 8.85-1 16.05-6.55 7.55-5.8 10.7-14.6 3.5-9.7.65-20.8M60.9 33.5q4.55 2.95 8.1 7 4.15 4.75 4.8 8.95-11 4.5-17.6 14.8-5.35 8.4-7.65 20.35-7.4-.95-13.05-4.5-5-3.15-7.8-7.65 16.4 1.9 27-11.65 4.6-5.9 6.3-13.15 1.75-7.4-.1-14.15m53.95 59.05q.2-3.45-.2-8.7 16.55.75 25.35-7.35 9.7-8.9 4.45-24.55 8.35 11.15 8.1 21.1-.2 8.5-6.4 14.6-5.8 5.65-13.95 7.15-8.7 1.6-17.35-2.25M92.3 120q-1 8.15 3 15.75 3.85 7.25 11.2 11.9 7.6 4.75 16.55 5.15 9.8.45 19.05-4.4-5.1 12.15-17.95 15.2-11.1 2.65-21.1-2.3-14.7-7.25-15.25-22.9-.25-5.55 1.45-11.3 1.35-4.6 3.05-7.1m-4.15-78.8q-9.1-7.35-7.2-19.8 2.3 4.7 7.3 7.8 4.9 3 10.95 3.6 14.05 1.35 23.35-9.75 0 4.55-1.25 8.55-1.55 4.95-4.8 8.05-3.7.55-6.8 2.3-3.1 1.7-4.75 4.15-8.9 1.45-16.8-4.9"/><path fill="#dcc200" d="M108.45 10.4q2.1.7 3.65 2.35 1.6 1.65 2.1 3.7l-1.75-.1 1.05 5.05-9.1 3.85-3.45-.45-.1-3.6-1.7-2.4q4.25 1.4 7.45-1.35 3.2-2.85 1.85-7.05"/><path fill="#ce7486" d="M130.95 69.7q4.65-2.05 9.35-1.85 2.35.15 3.8.65l-5.3 1.3-5.55-.35-2.3.25m-3.55 64.35q1.3.35 5.6 2.2l-6.6-.25q-1.85-1.35-6.05-2.35l-3.85-.7q6.1-.3 10.9 1.1"/><path fill="#0d131a" d="M12.05 87.7q7.6-4.2 19.95-1.1 15.45 3.85 25.35 18.5 8.65 12.75 6 26.45-2.7 13.95-15.35 19.7-11.35 5.15-23.75.95-13.65-4.6-20.15-18.65-5.25-11.45-3.85-24.9 1.6-15.35 11.8-20.95m21.1.75q-12.3-3.75-20.1.55-9.9 5.5-11.3 19.8Q.5 121.3 5.7 132.4q6.3 13.4 18.9 18.05 11.6 4.25 22.5-.6 12.7-5.6 14.7-19.45 1.8-12.6-5.55-24.05-8.7-13.5-23.1-17.9"/><path fill="#0d131a" d="M12.6 123.95l1.6.8q.85 2.55.1 2.85-.4.15-1-1.05t-.7-2.6m22.5-8.85l.55-.9q1 .8 1.6 2.4.5 1.5.05 1.8-.4.25-1.2-.95-.75-1.2-1-2.35m15.15 19.7q1.4.05 1.4.4 0 .35-1.35.4-8.15.35-13.65 1.95-7.75 2.25-12.25 7.4-.6.7-.9.45-.25-.25.3-1 7.55-10.25 26.45-9.6m76.6-14.55q.7.5.5.8l-.9-.1q-12.05-7.7-15.9-9.95l.45-.95q8.15 4.6 15.85 10.2m-.9 2.15q.8 0 .8.25 0 .3-.8.35-2.95.3-8.65.1l-8.1-.85-.3-.3q-.3-1.3 0-3.95.3-2.35.9-4.3.3-.9.5-.75l.1 1q-.85 5.3-.5 7.2l7.85.9 8.2.35m-.85 10.5q7.45 1.4 12.3 5.45.55.5.3.8l-.85-.15q-4.9-3.8-12.4-5-7.8-1.25-16.05.65-.85.2-.95-.2-.1-.35.7-.6 8.6-2.5 16.95-.95"/><path fill="#0d131a" d="M121.65 117.4l.95.6q-.1.9-.85 2-.75 1.15-1.15.9-.45-.25-.05-1.5.4-1.2 1.1-2m16.35 4.15l1.4-.75-.35 2.15q-.4 1.15-.75 1.05-.6-.2-.3-2.45m-51.5-32.3q1.2.2 1.15.55-.05.4-1.25.3-5.55-.45-11.8-2.15-5.85-1.6-11.05-3.9-.9-.4-.8-.75l1.05-.05q14.15 4.9 22.7 6m-.85 3.65q1.45-.6 1.5-.25.1.35-1.35 1.1-4.55 2.25-10.65 3.3-5.7 1-6.8.1-1.7-1.3-3-5.3-.75-2.45-1.2-5.2-.1-1.05.3-1.1.35-.1.55.95.45 2.6 1.55 5.3 1.3 3.15 2.65 4.2l5.9-.2q5.75-.85 10.55-2.9m22.45-19.55q.35-.15.7.55 1.3 2.4 1.75 5.75.4 2.7.05 4.15-.25 1.25-3.75 2.75-3.2 1.3-6.45 1.8-.85.1-.95-.2-.05-.35.8-.5 2.85-.6 6-2.1 3-1.45 3.15-2.2.25-1.25-.05-3.85-.35-3-1.25-5.2-.35-.75 0-.95M67.8 102.7q-.1-.85.2-.85.35 0 .6.8.6 1.85 4.3 3.05 4.15 1.35 10.75 1.3 6.6-.05 12.75-1.5 5.35-1.25 7.75-2.85.85-.6 1.05-.3.25.3-.6.95-2.45 1.95-8 3.45-6.25 1.7-13 1.75-7.5.05-11.65-1.6-3.8-1.55-4.15-4.2m65.05-31.3q5.4-2.25 9.55-3-4.5-.8-9.85 1.35-5.35 2.2-9.05 6.35 4.25-2.6 9.35-4.7m-11.75 6.9q-.2-.2.15-.75 4-6.35 10.95-9.05 6.65-2.55 12.4-.35.75.3.65.5l-.75.3q-4.6.7-11.25 3.4-6.6 2.7-11.45 5.8l-.7.15m21.7-27.85l.6 1q-5.65.3-12.2-1.35-.8-.2-.8-.55.05-.35.85-.2 7.4 1.25 11.55 1.1"/><path fill="#0d131a" d="M143.2 51.1l.8.7q-.7 1.25-1.85 2.15-1.35 1.1-2.8 1.25-1.3.15-2.7-.55-1.8-.85-2.95-2.75-.35-.6-.15-.85.25-.2.6.35 1.1 1.5 2.5 2.25 1.3.65 2.6.55 1.2-.1 2.25-.95t1.7-2.15m-7.2-3.25l-.7-2.2q-.25-.5-2.3-2.65l2.1.8 1.2 1.55 1.25 5.15-.8.25-.75-2.9M48.65 36q.55-.7.85-.45.35.25-.2 1-6.45 8.85-12.6 14.8-.6.55-.75.3-.2-.3.35-.9L48.65 36M56 64.85l-.85 1.3-1.55-4.5q-1.2-3-1.45-4.35-.2-.75.1-.85.3-.1.5.6l3.25 7.8"/><path fill="#0d131a" d="M58.5 61.3l-.85 1.2-3.35-.5-.5-1.15 4.7.45m-30.55-8l1.2.65.4 1.15q.1.75-.25.9-.35.2-.95-.95t-.4-1.75m15.7-10.55l.5-.6q1 .65 1.5 1.9.45 1.15 0 1.4-.4.25-1.15-.7-.8-1-.85-2m26.9 43.05l.95.4q.35.7.2 2.2-.15 1.55-.75 1.5-.75-.1-.8-1.8 0-1.55.4-2.3m30.75-2.75l.55-.95q.7.95.7 2.25.05 1.15-.35 1.25-.4.1-.7-.95-.3-.95-.2-1.6m14.95-26.55l.4-.45q.7.4.85 1.35.15.9-.25 1-.4.15-.8-.55-.4-.75-.2-1.35m20.35-5.95l.8.15q.3.4.3 1.15-.05.8-.35.85-.5.2-.75-.65-.2-.8 0-1.5m-22.9-33.9q-.45-2.25-2.3-3.9-1.75-1.65-4.55-2.4-2.9-.8-6.15.05-3.05.75-5.1 2.55l1.1-2.1q1.95-1.35 4.75-1.9 3.1-.65 5.7.05 6.4 1.8 7.65 7.5l-1.1.15m-50.9 107.3l.15-1.75q10.55 6.35 24.25 4.1l2.4-.5-.65 1-.6 1.05-.8.15q-13.75 2.3-24.75-4.05"/><path fill="#0d131a" d="M113.55 85.05q-2.45-17-11.45-26.9-9-9.9-21.35-9.15-13 .8-22.6 14Q48 76.95 48.55 96.05l-1.8-1.4Q46.6 75.3 57.2 61.55q10-13 23.4-13.8 12.9-.75 22.35 9.15 9.7 10.2 12.35 28.25 1.4 9.85-.65 18.15l-1.9.65q2.35-8.4.8-18.9"/><path fill="#0d131a" d="M107.5 71.1q.4-.85.75-.7.35.15 0 1.05-3.65 9.85-9.5 14.25-.85.65-1.05.35-.25-.3.55-.95 4.65-4.05 9.25-14M44.6 59.4l-.9.95 7.6-5.5L50 52.6l-5.4 6.8M40 63.55l-4.2 2.55-1 .15q-.2-.25.6-.7 4.65-2.45 8.7-7.1l5.35-7 .5-.55q.3-.05.65.6.85 1.7 2 3.2.35.45-.1.7L40 63.55"/><path fill="#0d131a" d="M67.95 40.55q-7.4-9.1-19.45-12-12.05-2.85-18.4 3-7.8 7.2-7.5 21.45.25 14.6 9.1 23.25 3.4 3.35 7.9 5.3 4.35 1.85 9.1 2.15l-.2 1.45q-5.2-.45-9.75-2.3-4.9-2-8.35-5.4-8.95-8.75-9.2-24.1-.2-15.1 8-22.65 6.7-6.2 19.4-3.35 12.9 2.85 20.9 12.7 3.25 4 5.3 9.5l-1.45.35q-1.9-5.1-5.4-9.35"/><path fill="#0d131a" d="M23.35 51.55q-.55-.35-.35-.65.15-.35.7 0 3.5 1.85 7.55 3.45.85.35.75.6l-1.05-.05q-4.4-1.25-7.6-3.35m8.2 4.6q.45-.55.75-.4.3.15-.15.75-1.4 1.9-4.25 4.2-.95.75-1.35-.2-1.35-2.85-2.35-5.95-.25-.7.05-.85.25-.15.55.55 1.3 3.45 2.65 5.5 2.25-1.45 4.1-3.6M48.3 40.6q-.55-1.3-.2-1.3l.8.8q1.5 2.7 2.4 5.8l.15 1.25-.7.75q-1.8 1.15-5.5 2.6l-6.15 1.95q-.9.25-1.05 0-.15-.25.8-.6 3.3-1.1 6.65-2.55 3.55-1.55 4.9-2.55-.65-2.55-2.1-6.15"/><path fill="#0d131a" d="M49.45 52.1l-.5.7-1-1.2-4.9-1.05 1.7-.6 3.5.9q.6.25 1.2 1.25m-7.45-7l-1.2 1.3q0-1.3.55-9.35-1.5-1.65-2.95-6.25-3.5-1.55-4.65-2.45l1.25-.5q.95.65 3.95 2.3l.2.25 1.2 3.1q1 2.25 1.95 3.25l.1.3-.4 8.05M4.4 119.4q-.7-.6-.45-.9.2-.3.95.2 4.1 2.95 8.8 5.4 5.05 2.6 7.9 3.15 1.1.2 1 .55-.05.4-1.15.25-3.85-.55-8.7-3.1-4.45-2.35-8.35-5.55"/><path fill="#0d131a" d="M6.8 122.95q.25-.1.45.7.7 2.95 2.5 5.2 1.8 2.15 3.5 2.35l2.7-.35q2.05-.55 3.95-1.7.65-.35.85-.15.2.25-.4.65-1.8 1.25-4.1 2.1-2.25.8-3.35.65-2-.2-3.85-2.8-1.85-2.55-2.4-5.8-.15-.75.15-.85m38.05-22.65q.65-.7.95-.5.3.25-.3 1-9.85 13.05-14.2 22.75-.35.85-.75.7-.35-.15 0-1.05 4.45-11.6 14.3-22.9"/><path fill="#0d131a" d="M42.3 107.2q-.35-.6-.15-.8.2-.15.65.35l2.9 4.1q1.45 2.4 1.95 3.9.6 1.4-.6 2.55-1.55 1.5-6.15 3.85-4.4 2.25-7.1 3-.85.25-.95-.15-.1-.4.7-.65 2.2-.65 6.5-3.05 4.45-2.45 5.95-3.9.75-.7.45-1.5-1-2.95-4.15-7.7"/><path fill="#0d131a" d="M41.7 120.2q3.65 0 4.6.55l5.55 4.05 5.65 4.3q1.1 1.05 1.75 10.4l-1.1 2.35q.2-2.8-.65-7.4-.75-4.25-1.25-4.7l-5.4-4.2-5.2-3.9-2.15-.35-3.8-.2 2-.9"/><path fill="#0d131a" d="M63 126.45l.1 1.25q-1.15.35-2.95 1.2-1.75.85-2.95 1.6l-.1-1.1q3.4-2.15 5.9-2.95m72.65-20.3q7.55 5.9 9.8 18 2.25 12.15-2.15 23.7-4.6 12.2-16.8 15.85-11.05 3.3-22.95-1.6-11.7-4.75-15.55-17.3-4.3-13.85 5.25-27.6 7.95-11.4 21.45-14.5 12.85-2.95 20.95 3.45m6.05 41.15q4.05-10.6 2.5-21.9-1.65-12.15-9.3-18.2-7.4-5.85-19.15-3.35-12.95 2.7-21.05 14.3-8.95 12.85-4.9 26.15 3.65 12 14.35 16.35 12.1 4.95 22.7 1.25 10.7-3.75 14.85-14.6"/><path fill="#0d131a" d="M141.5 119.15l.8-.05q.2.3-.3.75-2.25 1.85-6.3 3.55l-.9-.05q-.15-.35.5-.7l6.2-3.5m-.3 2.45q.1-.8.35-.75.25 0 .3.8.3 3.95-.6 6.2-.2.55-.8.3-2.8-1.2-4.5-2.6-.65-.5-.4-.65.25-.2.9.25l1.75.85 2.3.9q.45-1.45.7-5.3"/><path fill="#0d131a" d="M139.5 127.25l1.15.55.95 3.05.55 2.55q0 1.15-.85 3-1.15 2.55-3.65 5.5-.6 5.5-1.6 7.25-.7 1.3-3.6 4.25-3.45 3.5-6.65 5.7l-1 .15q-.2-.3.5-.85 2.6-1.85 6.1-5.7 2.85-3.2 3.55-4.4l1.05-2.8.7-3.8.1-.25q2.15-2.5 3.3-5.1.85-1.9.85-2.85.05-.65-.5-2.8l-.95-3.45"/><path fill="#0d131a" d="M136.65 157.2l-1 .55-.75-8.5.8-1.1.95 9.05M132.8 136l2.15 1.25-13.65-.7q-7.5.45-12.85 2.15-1.65.5-1.25-.85l1.15-3.75 1.25-.25-1.05 3.55q5.05-1.45 11.85-1.85l12.4.45m12.5-7l-.05 1.6q-.65.25-1.8 1.2l-1.85 1.45-.3-.95 4-3.3m-14.9-23.7q-.1-.6-1.6-1.75l1.4.1 1.05 1.5.95 7.9q.9-.55 1.9-.85l1.4-.15q.6.25 2.45 2.45l2.2 2.95q.35.55.1 3.25l-.8.3q.15-2.5-.2-3.1l-2.05-2.9-1.85-2.05q-.25-.1-1.25.5l-1.9 1.15q-.85.55-1-.55l-.8-8.75"/><path fill="#0d131a" d="M138.9 109.65l.6.85-3.25 2.6-.55-.6 3.2-2.85M112.2 41.6q-4.2 1.8-7.15 5.6-2.85 3.65-4.15 8.65l-1.35-1.1q2.7-10.1 12.3-14.15 7.8-3.3 16.95-.25 9.4 3.15 16.1 11.65 9.15 11.7 8.15 23.1-.95 11.35-11.4 17.1-7.55 4.15-15.5 4.05-6.1-.1-11.25-2.6l.15-1.7q5.65 2.85 12.1 2.7 7-.2 13.7-3.95 9.65-5.45 10.7-15.75 1.15-10.8-7.95-22.4-6.25-8-15.1-11.05-8.8-3.05-16.3.1"/><path fill="#0d131a" d="M121.2 53.1q-4.65 4.95-14.05 10.4-.6.35-.8 0-.2-.3.35-.7l7.45-5.15 6.5-5.2q.7-.6.95-.35.25.3-.4 1"/><path fill="#0d131a" d="M120.35 55q0-.65.3-.65.3-.05.35.6.25 2.15-.55 4.15-.8 2.05-2.35 3.3-1.75 1.45-4.2 1.85-2.45.4-4.7-.4-.55-.2-.6-.55 0-.4.6-.25l4.3.1q2.1-.4 3.8-1.65 1.35-.95 2.25-2.9.9-1.95.8-3.6m27.8 15.85l-2.95-8.65-3.15-3.3-4.8-4.55 1.75.5q2.95 2.55 6.15 5.85l.75.7.45 1.25 1.6 4.55 1.15 3.35q.2 2-1.1 7.4-.2.9-.45.8-.2-.05-.15-.9l.75-7"/><path fill="#0d131a" d="M152.1 70.35l.2 1.85-2.15-2.15-2.4-1.7-.5-1.2q2.8 1.15 4.85 3.2m-29.15-50.9q.75 6.7-.85 12-1.2 4.3-3.95 7.75l-2.15.35q3.5-3.55 4.95-8.55 1.35-4.65.9-10.45-.55-7.4-4.15-13.05l-8.35 1.85-.4-.15q-1.7-2.35-2.55-4.05l-3.4 1.1q-.6.15-.65-.3l-.3-4.4q-6.05.8-10.8 4.55-4.7 3.65-7.85 9.9-3.3 6.65-1.05 14.95 2.6 9.5 11.35 12.85 2.9 1.05 6.55 1.35l5.7-.3-1.75 1.75q-5.65.6-11.25-1.55-9.1-3.45-11.85-13.1-2.55-8.8 1.35-16.6Q85.7 8.85 91 4.85 96.3.8 102.75 0q.45 0 .45.4l.25 4.7 1.75-.8q1.05-.5 1.65-.7.3-.15.5.2 1.2 2.95 2.2 4.4L118 6.05q.3-.1.45.15 3.65 5.6 4.5 13.25"/><path fill="#0d131a" d="M101.45 21.05l.1.25-.25 3.2 4.55.5q.2 0 .3.2l2.1 3.95v.45q-1.15 2.15-1.95 4l5.15-.35q1.7-.35 2.15.85.8 1.8 1.25 2.25 1 1.3 2.45 2.4l-.9.95-2.3-2.55q-.95-1.4-1.4-2.55-.3-.7-1.05-.55l-6.2.4q-.5-.1-.3-.55l2.1-4.4-1.85-3.6-4.75-.45q-.4 0-.4-.4l.4-3.7-2.7-3.05-7.9-1.1-3.2 10.75q-.35 1.1-.75.95-.4-.1-.05-1.2l1.5-5.85 1.45-5.8q.1-.35.55-.3l4.1.95 4.6.8.25.15 2.95 3.4"/><path fill="#0d131a" d="M88.55 19.7l-.45 1.4q-2.3 1.05-4.15 2.6-.8.65-1.05.35-.25-.3.5-1 2.7-2.4 5.15-3.35m7.7-8.55L94.5 9.1l-1.4-1.75q-.1-.25.1-.5l5.5-5 1.95-.6q-2.35 1.85-6.15 6l2.6 3.65q.2.2 0 .5-2.45 2.95-4.15 5.55l-1.15-.15q1.75-2.55 4.45-5.65M117.7 7l1.05 1.1q.8 6 .6 8.55l-.4.35-3.3-.05-2.85-.15.8 2.6.5 1.95-.25.4q-4.65 2.05-9 3.55l-2.05-.35q5.7-1.95 10.1-3.85l-1-4.5q-.1-.55.4-.55l6.05-.05q.2-3.95-.65-9"/></svg>