<svg xmlns="http://www.w3.org/2000/svg" width="387" height="385" viewBox="-0.5 -0.25 387.45 384.55"><path fill="#0d131a" d="M225.15 169.75q13.9 12.6 25.8 33.6 11.05 19.5 17.7 41.5 6.6 21.75 6.8 38.95.5 42.15-27.8 63.9-24.25 18.65-61.55 17.8-14.1-.35-29.2-5.95-16-5.95-29.15-16.45-31.3-24.95-34.05-63.45-1.75-24.65 8.25-49.1 8.95-21.9 25.8-40.35 15.65-17.15 33.85-26.85 18.1-9.7 32.45-8.65 15.6 1.1 31.1 15.05"/><path fill="#c18963" d="M190.3 152.25q8.6 0 21.15 9.6 12.9 9.85 25.05 26.1 13.3 17.95 21.95 38.8 9.75 23.65 11.9 47.6 3.6 39.7-20.95 64.65-11 11.2-26.15 17.2-14.95 5.95-31.6 5.95-17.05 0-34.4-6.7-18.3-7-32.15-19.7-15.15-13.9-22.1-32.2-7.75-20.4-4.45-44.15 6.7-48.1 44.7-81.4 13.65-11.95 28.5-19.45 12.5-6.3 18.55-6.3"/><path fill="#986c4c" d="M178.45 155.45q7.85-3.2 11.85-3.2 11.85 0 29.5 16.8 18.85 17.85 32.3 44.05-14.6 12.5-33.15 18.1-17.45 5.3-36.25 3.85-18.3-1.4-34.95-8.85-16.85-7.6-29.1-20.1 16.1-24.45 41.35-40.8 9.55-6.2 18.45-9.85M125.8 336.4q31.35-8.2 35.3-6.55 25.95 10.75 50.15.7 2.4-1 13.35.8 11.25 1.85 26.45 5.85-11.05 12.05-26.7 18.55-15.35 6.4-32.7 6.4-16.8 0-34-6.5-18.1-6.85-31.85-19.25"/><path fill="#0d131a" d="M118.65 283.95q15.2.1 26.7 8.9 10.35 7.85 15.05 20.3 4.55 12 1.95 22.8-2.7 11.45-12.45 16.3-1.75.9-6.65.7-5.7-.25-9.8.8-10.45 2.7-17.1 16.4-2.7 5.55-10.9-.6-6.9-5.15-16.2-17.25-8.25-10.8-14.1-21.2-5.95-10.55-4.7-12.4 12.85-19.25 26.5-27.95 10.85-6.9 21.7-6.8"/><path fill="#c18963" d="M120.45 286.35q14 .9 23.85 8.65 11.4 9 14.9 25.6 2.05 9.85-1.25 17.45-2.3 5.3-7.5 9.7-2.65 2.25-9.05 2.7-7.95.55-10.3 1.35 5.3-18.6-.1-34.3-4.45-13.2-13.6-18.7-8.6-5.2-19.85-.95-3.45 1.3-6.8 3.4l-2.6 1.75q2.5-4.65 11.3-10.25 11-7.05 21-6.4"/><path fill="#986c4c" d="M133.65 333.95q5.45.95 12.5.3 6.75-.6 13.55-2.55-1.3 9.35-9.25 16.05-2.65 2.25-9.05 2.7-7.95.55-10.3 1.35 2.65-9.35 2.55-17.85"/><path fill="#c18963" d="M106.1 298.85q19.45 1.8 23.5 26.55 3 18.2-1.5 26.85-1.95 1.35-7.35 6.2-4.5 4.05-5.1 4.05-5.15 0-12.65-6.85-6.95-6.35-13-15.8-6.2-9.65-8.3-17.65-2.3-8.95 1.6-12.5 5.85-5.3 10.7-7.9 6.35-3.45 12.1-2.95"/><path fill="#986c4c" d="M94.7 346.45q2-.65 3.65-.8 12.2-1.15 21.35-4.95 5.6-2.35 10.95-6.3.7 11.65-2.55 17.85-1.95 1.35-7.35 6.2-4.5 4.05-5.1 4.05-4.15 0-10.05-4.65-5.4-4.3-10.9-11.4"/><path fill="#0d131a" d="M58.6 299.85q14.15-9.1 30.1-5.9 14.2 2.85 23.95 16.6 8.2 11.45 11.35 27.2 3.4 17.1-4.95 30.2-8.7 13.7-24.9 13.8-6.9.05-16.8-5.85-9.5-5.65-18.2-14.7-9.1-9.45-13.8-19-5.25-10.65-3.6-18.75 2.95-14.65 16.85-23.6"/><path fill="#c18963" d="M61.75 301.95q12.15-7.1 23.7-5.5 11.35 1.6 21.65 12.95 12.45 13.7 14.5 34.4 1.25 12.6-6.5 23.35-7.75 10.7-18.9 11.75-5.9.55-15.2-4.75-8.85-5-17.45-13.35-8.9-8.55-13.95-17.2-5.6-9.6-4.7-16.5 2.1-16.5 16.85-25.15"/><path fill="#0d131a" d="M55.5 321.6q-.9 3.65-4.2 6.7-3.3 3.1-6.45 3.1-5.2 0-11.7-6.1-6.15-5.75-6-9.05.15-3.8 6.1-6.45 5.05-2.25 9.95-2.25 7 0 10.45 4.55 3.15 4.15 1.85 9.5"/><path fill="#fff" d="M52.25 321.15q-.55 2.4-2.5 4.45-1.8 1.85-3.95 2.6-3.2 1.1-9.7-4.15-6.4-5.15-5.9-7.9.4-2.45 5.45-4.2 5.15-1.8 9.8-.9 4.15.8 5.95 3.9 1.65 2.8.85 6.2"/><path fill="#0d131a" d="M81.1 282.15q3.9 3.15 6.15 6.8 2.7 4.45 1.75 8.05-1 3.85-6.05 6.05-4.85 2.1-9.2 1-3.9-1-5.35-8.5-1.35-7.05.55-11.1 1.65-3.5 5.25-4.2 3.65-.65 6.9 1.9"/><path fill="#fff" d="M85.5 290.05q1.65 2.95 1.1 5.45-.8 3.55-5.2 5.2-3.95 1.45-7.05.5-2.45-.75-3.6-5.75-1.1-4.75-.1-8.75.95-3.7 3.7-4.25 2.65-.5 5.95 1.95 3.5 2.65 5.2 5.65"/><path fill="#fff8b0" d="M65.6 317.95q11.75-9.3 26.35-7.55 4.35.5 9.15 4.45 4.8 3.95 8.55 10 8.85 14.25 6.2 28.35-1.75 9.35-7.55 15.3-6.15 6.4-14.6 6.4-9.05 0-23.75-12.15-15-12.4-15.6-21.25-.9-14 11.25-23.55"/><path fill="#0d131a" d="M97.4 285.2q-1.65.5-1.7-.7 0-1.2 1.45-1.6 51.5-13.3 91.55-11.3 31.9 1.6 83.2 15.7 1.55.45 1.4 1.8-.15 1.3-2.1.75-40.4-12.05-72.35-14.75-50.15-4.15-101.45 10.1m.25-29.95q-1.35.45-.75-1.3.6-1.7 2.15-2.2Q142.7 237.3 195.3 240q42.55 2.15 72.9 13.4 1.45.5 1.95 2.65.5 2.1-1.25 1.05-6.2-3.7-21.8-7.45-18.25-4.45-39.8-6.2-58.3-4.75-109.65 11.8"/><path fill="#0d131a" d="M251.3 288.35q15.5 1.55 28.9 7.55 14.5 6.5 25.3 17.75 1.55 1.65-2.1 13.05-3.6 11.4-9.5 23.5-6.7 13.7-12.6 20.25-7.05 7.8-11.25 3.3-11.75-12.6-22.5-12.25-2.6.1-8.5 1.45-5.15 1.15-8.25.9-10.5-.9-15.9-8.85-4.75-7-4.85-18.35-.15-18.7 10.95-33.6 12.3-16.45 30.3-14.7"/><path fill="#c18963" d="M244.4 291.25q12.5-1.1 25.8 3.8 10.75 4 13.85 7.8-4.25-2.45-10.1-3.75-11.7-2.55-19.25 4.05-6.7 5.85-9.55 18.4-3.95 17.5 4.8 36.85-2.45-.4-11.6 1.15-8.2 1.35-13.05-.5-5.2-2.05-8.45-8.25-3.75-7.2-3.4-17.75.5-16.75 11.4-29.6 9.65-11.35 19.55-12.2"/><path fill="#986c4c" d="M213.45 333.05v-.65q14.75 6.75 30.8 5.5.95 9.95 5.7 20.5-2.45-.4-11.6 1.15-8.2 1.35-13.05-.5-5.2-2.05-8.45-8.25-3.75-7.2-3.4-17.75"/><path fill="#c18963" d="M290 308.65q4.45 2.8 3.8 11.85-.6 8.1-4.9 18.5-4.25 10.2-9.95 17.5-6.1 7.9-11.15 8.8-13.4-4.7-14.45-6.65-2.35-4.4-4-10.55-2.15-7.95-2.2-15.9-.35-25.15 18.5-30.25 5.55-1.5 12.4.75 5.25 1.7 11.95 5.95"/><path fill="#986c4c" d="M253.35 358.65q-1.75-3.3-3.2-7.85-1.8-5.6-2.5-11.55 4.75 4.15 13 7.95 10.8 4.95 20.95 5.65-3.5 5.25-6.95 8.45-3.7 3.45-6.85 4-13.4-4.7-14.45-6.65"/><path fill="#0d131a" d="M332.9 314.85q3.2 8.1-.3 19.7-3.05 10.3-10.6 21.3-7 10.25-15.3 17.5-8.45 7.4-14.4 8.4-15 2.55-26.25-9.95-10.5-11.7-11.1-28.25-.55-15.8 6.25-29.4 7.4-14.85 20.65-20.05 14.65-5.75 29.95.35 15.5 6.15 21.1 20.4"/><path fill="#c18963" d="M330.85 319.05q2.1 6.65-1.75 17.05-3.45 9.4-10.7 19.4-7.05 9.7-14.85 16.2-8.25 6.8-14.15 7.3-11.15.95-20.65-8.25-9.5-9.2-10.5-21.9-1.6-20.7 8.3-36.4 8.15-12.95 19-16.5 4.7-1.5 11-1.3 6.9.25 13.3 2.6 16.05 5.95 21 21.8"/><path fill="#0d131a" d="M335.5 300.05q8 1 9.8 5.05 1.45 3.3-3.95 10.45-5.8 7.6-11.8 7.1-7.45-.7-9.7-7.95-2.25-7.35 3.65-12.3 4-3.35 12-2.35"/><path fill="#fff" d="M326.2 303.95q2.35-1.4 6.45-1.4 8.65 0 10.1 3.95 1 2.65-4.1 8.45-5.15 5.85-8.5 5.35-3.9-.6-6.45-3.9-2.9-3.8-.95-8.2 1.3-2.95 3.45-4.25"/><path fill="#0d131a" d="M302.35 291.65q.05 7.8-3.6 9.45-4.1 1.85-9.3.7-5.4-1.15-7.05-4.75-1.55-3.45.05-8.2 1.45-4.2 4.65-7.8 2.8-3.15 6.5-3.3 3.85-.15 6.05 2.95 2.6 3.7 2.7 10.95"/><path fill="#fff" d="M288.5 283.2q2.85-3 5.5-2.95 2.85.05 4.4 3.55 1.7 3.7 1.45 8.65-.3 5.05-2.5 6.2-2.9 1.5-7.05.75-4.65-.85-6.05-4.15-1-2.35.15-5.6 1.15-3.25 4.1-6.45"/><path fill="#fff8b0" d="M266.7 328.15q2.65-6.65 6.65-11.35 4.1-4.75 8.25-6 14.1-4.25 27.3 2.85 13.6 7.3 15.15 21.25 1 8.8-11.65 23.65-12.35 14.5-21.25 16.1-8.35 1.45-15.5-3.75-6.8-4.9-10.1-13.75-5.05-13.45 1.15-29"/><path fill="#0d131a" d="M180.25 119.55l12.85 27.05q-20.3 3.15-52.9 11.85-28.85 7.7-59.1 17.5-25.5 8.25-40.9 11.9-13.85 3.3-14.7 1.85-.75-1.25 2.65-5.6 3.55-4.6 9.65-9.9 16-13.85 34.05-19.85 18.1-6 51.75-11.3l20.55-3.05q8.3-1.2 8.2-1.55-.45-2.3-6-4.55-5.85-2.3-15.2-3.55-23.35-3.1-52.35 2.2-10 1.85-46.15 12Q.4 153.65.05 153.1q-.55-.85 2.6-6 3.55-5.8 9.1-12.25 15.75-18.15 34.6-26.6Q60.7 101.8 74 100.3q13.5-1.55 31.15 1.4l-59.4-26.65q-29.5-13.35-29-15.9.35-1.25 7.3-3.55 8.8-2.95 19.8-3.7 33.2-2.4 68.6 15.65 33.85 17.3 67.8 52M361.95 89q4.05 3.3 6.8 6.7 2.25 2.8 2.05 3.4l-14.9 1.35q-20.6 1.05-38.1 3.55-15.4 2.15-29.65 6.1 14.65-1.9 30.5.95 35.75 6.45 68.3 35.1-.1.5-9.55.1l-23.2-1.05q-37.65-1.35-57.05 1.75 7.9.15 18.9 2.05 12.3 2.15 23.05 5.65 15.15 4.9 24.05 12.35 3.1 2.55 4.8 4.9 1.4 1.95 1.1 2.45l-9.5-1.85-22.4-4.4q-35.1-5.9-51.3-.8l-77.7-39.5q39.05-45.1 77.8-58.35 13-4.45 23.3-4.4 8.45.1 8.7 2.1.05.4-8.05 3.35-10.7 3.95-17.65 7.3 8.9-2.4 19.3-2.9 11.6-.55 22.55 1.45Q349.95 79.3 361.95 89"/><path fill="#00a63c" d="M171.8 120l11.65 24.6q-31.65 8.35-102 28.85-54.1 15.75-53.25 14.65 23.8-30.55 81.6-41.6 16.25-3.15 36.5-4.8l14.1-1.6q-12.65-12.65-37.2-14.1-18.75-1.15-46.65 4.45-24.25 4.85-48.3 11.7L5 149q14.05-19.8 31.75-31.25 15.5-10.05 33.2-13.25 24.3-4.45 50.25 3.85 9.05 2.9 14.55 5.65Q107.1 98.55 75.4 84.35L38.55 67.9q-12.8-5.75-16.2-7.75 38.4-12.25 83.35 8.2 35 15.95 66.1 51.65"/><path fill="#009233" d="M38.65 67.95q-12.85-5.8-16.25-7.8 35.55 5.7 67.4 21.7 28.95 14.5 48.75 34.25l-1.9-1.05Q107.8 98.8 75.4 84.35l-36.75-16.4m144.7 76.4l.1.25q-31.65 8.35-102 28.85-54.1 15.75-53.25 14.65l.05-.05q33.2-19.15 78.55-31.45 42.35-11.45 76.55-12.25m-106.8-13.9q-24.25 4.85-48.3 11.7L5 149l.55-.75q38.2-22.6 78.5-27.05 38.05-4.25 60.75 9.05-13.1-4.95-32.3-4.4-15.35.5-35.95 4.6"/><path fill="#00a63c" d="M358.35 98l-25.75 1q-43.85 3.9-79.75 22.95-4.3 2.25-4.9 2.7-1.3.95 5.2-1.55 17.05-6.65 28.65-9.1 14.7-3.15 28.55-1.65 30.35 3.25 72.75 32.4-11.15-1.6-44.55-2.55-22.05-.6-67.05-1.2-3.05 2.85 7.8 5.3l27.8 4.85q46.5 7.95 57.8 20.5-37.6-9.95-59-10.5-30.8-.8-38.6 16.05l-61.35-41.15q27.75-39.1 63.9-56.95 23-11.3 41.6-11.6-11.5 4.1-16.95 6.6-9.2 4.15-19.4 11.05 18.1-6.65 35.85-7.4Q345.6 76.2 367.2 97.8q.3.3-8.85.2"/><path fill="#009233" d="M366.8 98.05L354.5 98l-26.15 1.4q-41.4 4.5-75.5 22.55-4.4 2.3-4.95 2.75 25.15-22.85 56.35-29.7 30.85-6.8 62.55 3.05m-2.4 73.1l.5.5q-35.45-9.4-57.55-9.1-30.45.35-49.35 17.4l-9.3-7.85q6.65-5.7 19.9-9.5 13.45-3.9 29.65-4.7 38.3-1.8 66.15 13.25M382 144l1.1.75q-11.15-1.6-44.55-2.55-22.05-.6-67.05-1.2 11.5-6.75 46.65-6 35.9.8 63.85 9"/><path fill="#0d131a" d="M196.2 62.3q3.3 11.95 3.9 21.35.5 9.05-1.75 10.9-6.7 5.45-13.15 6.2-7.25.8-8.6-5.65-7.05-34.75-21.35-62.05-7.35-14.1-14.6-24.55-4.25-6.15-3.8-7Q137.4.4 140.6.1q3.55-.35 8.05.65 12.15 2.65 21.65 12.6 17.35 18.2 25.9 48.95"/><path fill="#00a63c" d="M189.35 49.95q8 17.8 11.6 34.6 3.45 16.1.35 18.65-6.2 5-12.25 4.1-6.2-.95-7.6-7.75-8.95-43.95-27.9-75.95-4.25-7.1-10.95-16.45-3.55-4.95-2.3-5 14.35-.25 28.1 14.55 11.5 12.4 20.95 33.25"/><path fill="#009233" d="M190.55 107.4q-3.4-.05-5.8-2-2.55-2.05-3.3-5.85-8.6-42.3-26.55-73.6-4.75-8.25-11.05-17.1-4.3-5.95-4-6.5 19.3 11.3 32.45 41.4 10.5 24.15 18.25 63.65"/><path fill="#0d131a" d="M338.75 36.3q-23.55 10.3-52.3 27.65-42.9 25.9-72.6 61.2l-47.35-4.8q-5.9-18.95-28.45-42.05Q117.8 57.55 95 43.85 66.15 26.45 54.7 15q-7.3-7.25-5.85-9.5.4-.65 7.45-.8l18.5 1.05q29.65 3.65 53.5 17.35 18.05 10.4 30.05 24.25Q173.1 64.4 180.4 88.3q.15-11.55 8.4-31.2 9.05-21.7 19.95-31.75 18.05-16.7 40.8-22.75Q257.4.45 263.95.15q5.6-.25 6.25.65.9 1.25-5.35 9.35l-15.6 19.2q-7.15 9-17.45 22.8-10.6 14.25-12.35 17.3l5.75-5.65q5.8-5.55 12.2-10.4 20.1-15.2 43.95-22.2 20.55-6 48.25-5.5l17.8 1.3q7.05 1 7.05 2.05.05.7-3.75 2.25-6.45 2.6-11.95 5"/><path fill="#00a63c" d="M259.15 11.8Q246.2 27.1 239.8 35.3q-31.1 39.45-39.75 67.35-.35 1.1 0 .4l1.85-3.55q4.25-7.9 9.9-15.5 20-27.1 49.6-41 16.8-7.85 38.9-11.2 22.8-3.5 45.35-1.2-10.15 2.1-27.55 10.7-19.8 9.8-44.35 25.9-37.55 24.65-64.3 59.7l-39.9-8.7Q152.2 81.1 103.5 45.9L70.4 23.35Q54.95 12.85 52.1 7.8q26.25-2.35 56.2 9.5 26.2 10.4 43.85 28.75 22 22.9 28.95 56.6.35 1.65.65-.85l1.15-8.85q2.55-17.8 8.35-32.5Q211.6 8.9 265.7 2.9q1.1-.1-6.55 8.9"/><path fill="#009233" d="M176.85 119.8l-7.3-1.6q-17.25-36.95-65.6-71.95-1.35-.95-33.1-22.55-15.5-10.55-18.6-15.6 45.8 13.7 80.3 46.3 31.4 29.65 44.3 65.4M265.9 3.1q-.05.85-8.45 10.75Q245.4 28 238.05 37.5q-29.55 38-38 65.15 2.7-26.95 21.6-55.1Q240.1 19.95 265.9 3.1m79.35 27.45l.4.05q-10.15 2.1-27.55 10.7-19.8 9.8-44.35 25.9-37.55 24.65-64.3 59.7l-6.55-1.4q24.2-38.55 64.5-64.15 36.6-23.25 77.85-30.8"/><path fill="#0d131a" d="M282.3 123.6q21.15 8.35 33.3 27.75 11.7 18.65 8.15 38.15-3.3 18.05-17.2 27.65-6.55 4.55-15.15 6.05-8.75 1.55-17.75-.35-20.6-4.4-32.6-23.55-13.3-21.25-12.2-42.65 1.2-22.1 17.45-32.3 14.7-9.2 36-.75"/><path fill="#fff8b0" d="M281.85 126.1q20.35 8.05 31.7 26.75Q324.6 171 321.4 189q-3.1 17.4-17.85 26.7-13.65 8.65-30.35 4.35-18.05-4.6-28.75-22.3-11.65-19.3-11.45-39.9.25-21.7 14.1-30.7 14.15-9.2 34.75-1.05"/><path fill="#ddd698" d="M277.75 220.95q-15.15-2.1-26.3-13.95 20.4 10.5 39.55 7.85 19.6-2.7 28.25-18.15-4.75 12-15.7 19-11.5 7.25-25.8 5.25"/><path fill="#fff8b0" d="M302.1 146q1.7-1.75 3.85-3.3 2.3-1.65 3.2-1.7 2.7-.05 4.55 2.75 1.55 2.45 1.3 4.4-.65 5.85-3.95 8.35-5.55 4.2-22.35 6.35l-11.85 2-12.05 1.7-1.1-2.4-1.2-2.4 12.7-3.35q13.55-3.75 17.8-6.05 5.75-3.1 9.1-6.35"/><path fill="#0d131a" d="M313.65 144.05q-1.4-2.05-3.65-1.65-2.3.35-6.45 3.45-2.1 1.6-2.05.9 0-.6 1.25-1.85 4.1-4.1 7.6-4.5 3.3-.45 5.15 2.35 2.55 4 .95 9.1-1.5 4.75-5 6.3 4.4 13.75 2.85 29.5-1.9 19.95-14.25 21.95-6.25 1-9.9-1.85-4.85-3.75-10.6-16.6-4.05-8.95-10.05-24.8-.25-.65-.15-.9.15-.25.75-.3l17.75-2.9 16.65-3.4q8.05-2.45 10-7.45 1.5-3.9-.85-7.35"/><path fill="#fff" d="M308.7 171.7q-1.55 0-4.05-3.95-2.45-3.85-2.8-6.5 5.2-1.05 7.25-2.1 1.3 3.35 1.25 7.9-.1 4.65-1.65 4.65"/><path fill="#0d131a" d="M67.65 132q12.2-16.65 34.75-22.4 9.95-2.5 18.8-1.7 9.05.8 14.6 4.95 15.75 11.7 14.35 35.95-.5 8.85-3.3 18-2.25 7.55-4.95 12.1-11.55 19.8-30.75 24.95-18.45 4.95-34.25-5.6-15.75-10.5-18.9-29-3.3-19.45 9.65-37.25"/><path fill="#fff8b0" d="M61.35 172q-4.3-16.7 5.5-33.25 10.2-17.25 31.35-25.05 9.75-3.65 18.9-3.6 9.65 0 16.6 4.1 12.95 7.6 13.15 28.6.15 19.8-10.5 37.85-9.7 16.4-26.8 20.25-15.85 3.6-30.1-4.85-14.05-8.3-18.1-24.05"/><path fill="#ddd698" d="M79.45 196.05q-7.1-4.2-11.9-10.85-4.85-6.75-6.55-14.85 9.85 14.35 30.65 17.55 22.15 3.4 45.3-8.35l-.6 1.1q-9.7 16.4-26.8 20.25-15.85 3.6-30.1-4.85"/><path fill="#0d131a" d="M228.5 123.25q16.9 19.35 19.35 46.95 2.5 28-14.45 43.65-15.25 14.05-40.8 14.05-23.95 0-39.9-15-16.55-15.55-16.55-40.1 0-28.1 16-48.35 16.3-20.7 39.65-20.3 20.25.3 36.7 19.1"/><path fill="#fff8b0" d="M228.3 128.2q17.5 22.2 16.4 51.2-.9 23.05-16.4 34.95-13.85 10.6-36.1 10.3-23.6-.3-38.1-15.7-14.45-15.35-14.45-39.75 0-24.7 15.3-43.9 7.25-9.05 16.3-14 9.6-5.2 19.65-4.85 9.85.3 19.8 6.1 9.8 5.75 17.6 15.65"/><path fill="#ddd698" d="M163.25 206.15q13.1 6.3 28 6.35 15.6 0 29.05-7 14.75-7.7 24.15-22.6-2 21.3-17.2 32.25-13.7 9.8-35.05 9.5-18.35-.2-31.6-9.95-12.95-9.5-18.05-25.95 7.5 11 20.7 17.4"/><path fill="#922f00" d="M277.5 181.85q-1.1-2-3.45-7.75 1.4 2.45 2.95 4.05 1.55 1.65 2.3 1.4 2.05-.6 3.05-5.8.95-5 .1-9 9.9-1.3 17.65-3.25.75 4.25 3.85 8.25 3.1 4.05 5.25 3.55.9-.25 1.65-2.4.9-2.65.75-6.5 1.55 5.85 1.6 14.15.05 7.2-.9 13.2-2.95-8.85-13.45-12-10.65-3.15-21.35 2.1"/><path fill="#ed8599" d="M308.25 187.5q4.3 5.15 2.15 11.2-1.35 3.8-4.25 6.5-3 2.85-6.45 3.2-7.35.85-11.8-4.55-4.1-4.95-9.9-20.6 2.5-2 7.95-2.55 5-.55 9.8.25 8.25 1.5 12.5 6.55"/><path fill="#fff" d="M280.7 165.05q.9 3.1.1 8.2-.8 4.8-1.7 4.95-1.6.2-4.4-5.05-2.65-4.95-2.6-6.9l8.6-1.2"/><path fill="#ed8599" d="M201.05 165.35l-11.3-1.1-14-.65-9.1-.45q-2.15-.1-4-2.3-1.6-1.9-1.4-2.95.1-.45 4.75-.65l8.85-1.1q3-.8 8.5-1.45l9.55-.7q7-.1 12.7 1.1l6.2 1.5q1.7.15 2.45.85.5.55.4 1.15-.4 3.5-1.7 5.85l-1.6 2.05q-.9.75-1.4.65-3.75-1-8.9-1.8"/><path fill="#0d131a" d="M162.7 140.5q-4.6-2.8-7.25-8.75-2.65.55-2.5-.3.1-.85 2.1-1.45 23.5-7.85 27.3-12.25.85-1.05.7-2.65-.15-1.35.65-1.5.8-.15 1.15 1.3 1.05 4.45-2.35 6.3 1.35 7.4-.65 12.7-2.2 5.9-8.1 7.75-6 1.9-11.05-1.15"/><path fill="#fff" d="M181.4 121.65q.9 5.45-.9 10.8-2.95 8.7-12.3 8.2-3.9-.2-7.3-4.4-2.5-3.15-2.95-5.3l11.75-4.25q5.1-1.95 11.7-5.05"/><path fill="#0d131a" d="M224.3 130.35q-.8 2.8-2.8 5.9-3.2 4.9-7.25 5.9-7.85 1.95-13.3-4.75-5.1-6.3-4.55-14.95-1.75-.75-2.55-2.6-.8-1.8-.35-3.75.25-1.1.95-1.05.75.05.65 1.1-.05 1.9 1.15 3.1 2.4 2.25 12.15 5.2l16 4.15q2.1.5 2.25 1.25.15.8-2.35.5"/><path fill="#fff" d="M209.85 126.75l12.1 3.05q-.45 2.7-2.5 5.8-2.8 4.3-6.7 4.9-9.25 1.45-13.15-7.1-1.35-2.95-1.8-6.5-.35-2.85-.05-3.95 7.05 2.45 12.1 3.8m66.45 13.4q5.3 5.35 6.15 12.25l-5.7-1.95q-7.5-2.55-14.4-2.55-6.85 0-10.45.95-2.6.65-5.3-3.5-2.65-4.1-1.6-6.9 1.9-4.95 7.75-6.3 5.4-1.3 12.05.9 6.8 2.25 11.5 7.1"/><path fill="#0d131a" d="M302.7 138.8q-4.8 1.8-8.4 6.3l-3.3 3.95q-3.05-.15-4.95-7.4-2-7.45 1.65-10.15 2.8-2.1 6.5-.2 3.5 1.75 8.5 7.5"/><path fill="#fff" d="M300.4 137.85q-3.75 1.8-7.05 6.1-2.45 3.7-2.65 3.45-2.9-3.95-3.4-8.15-.45-4.15 1.6-5.85 1.75-1.35 4.6-.6 3.5.95 6.9 5.05"/><path fill="#0d131a" d="M83.7 119.75q.05-.7 2.15.35 3.3 1.65 6.35 2.95l7.4 3.25q1.2.55 1.3 1 .05.4-.75 1.25-1.65 1.8-4.35 2.5-3.4.85-6.85-.75-2.7-1.3-3.9-3.9-1.25-2.65-.35-5.35-1.05-.7-1-1.3m46.4 23.6q-1.65 2.1-5 2.4-3.35.3-6.85-1.3-3.3-1.5-4.95-4.05-1.55-2.4-1.3-5.25.1-.9.4-1.05.3-.2 1.2.25 8.55 4.2 17.05 7.8 1.3.55 1.6 1.2.3.7-2.15 0"/><path fill="#fff" d="M99.2 127.45q-.95 1.45-3.95 1.9-3 .45-5.2-.45-2.45-.95-3.6-3.35-1-2.2-.45-4.05 2.15.9 13.2 5.95m26.2 16.85q-2.95.2-6.7-1.55-4-1.85-5.1-4.8l-.35-2.55q7.1 3.55 15.65 7.35-1.05 1.35-3.5 1.55"/><path fill="#0d131a" d="M179.45 127.9q0 1.05-.8 1.8-.8.7-1.95.7t-2-.7q-.8-.75-.8-1.8t.8-1.75q.85-.75 2-.75t1.95.75q.8.7.8 1.75m25.85 1q0 1.05-.8 1.8-.8.7-1.95.7t-1.95-.7q-.8-.75-.8-1.8t.8-1.75q.8-.75 1.95-.75t1.95.75q.8.7.8 1.75m58.1 7.85q0 1.05-.8 1.8-.8.7-1.95.7t-1.95-.7q-.8-.75-.8-1.8t.8-1.75q.8-.75 1.95-.75t1.95.75q.8.7.8 1.75m29.7-1.6q0 .7-.6 1.25-.55.5-1.35.5t-1.4-.5q-.55-.55-.55-1.25 0-.75.55-1.25.6-.55 1.4-.55.8 0 1.35.55.6.5.6 1.25M89.9 124.3q0 .65-.45 1.05-.4.45-1.05.45t-1.05-.45q-.45-.4-.45-1.05 0-.6.45-1.05.4-.45 1.05-.45t1.05.45q.45.45.45 1.05m28.05 14.3q0 .65-.45 1.1-.4.45-1.05.45t-1.05-.45q-.45-.45-.45-1.1 0-.6.45-1.05.4-.45 1.05-.45t1.05.45q.45.45.45 1.05"/><path fill="#0d131a" d="M276.3 141.65q-4.15-4.15-10.1-6.65-5.95-2.45-11.2-2.2-5.65.3-8.5 3.7-1.55 1.85-1.65 1.25-.1-.5.55-1.75 2.35-4.3 8.25-5.1 5.45-.8 12 1.6 6.55 2.4 11.2 7 5.1 5.05 6 11.05.35 2.2-.15 2.5-.45.25-2.55-.75-10.25-5.2-25.65-2.8l-3.1-.2q-.45-.55 2.85-1.2 14.65-2.95 27.25 3.2-.75-5.1-5.2-9.65"/><path fill="#ed8599" d="M82.15 144.6q2.5-1.5 7.6-1.1 16.2 8.5 34.75 15.2-8.4 2.25-21.4-2.05-13.15-4.35-20.95-12.05"/><path fill="#922f00" d="M89.75 143.5q-5.1-.4-7.6 1.1-4.45-4.45-5.8-8.95 5.25 3.6 13.4 7.85"/><path fill="#ce7486" d="M82.55 144.7q2.4-1.7 6.95-1.15 2.85 1.75 10.9 5.3l11.5 4.85q-3.55-1.25-8-1.35-5.6-.1-7.3 1.85-4.3-1.95-8.7-5-4-2.75-5.35-4.5"/><path fill="#0d131a" d="M77.95 136.05l9.95 5.9q4.1 2.25 10.2 5l25.1 10.7q2 .85 2 1.2t-2 .9q-4.55 1.2-12.5-.2-9.05-1.65-17.55-6.1-6.8-3.55-11.85-8.95-4.2-4.5-5.05-7.65-.35-1.5-.1-1.65.25-.1 1.8.85m33.55 21.8q7.55 1.4 11.7.75-13.35-4.25-26.1-10.45-11.5-5.6-20-11.55 1.4 3.1 5.5 7.1 5.2 5.1 12.1 8.55 7.8 3.9 16.8 5.6"/><path fill="#0d131a" d="M81.8 144.35q1.2-1.05 3.45-1.3 2.3-.25 4.5.5l1.95 1.05-5.2-.5q-2.55.1-3.75 1l-.95-.75"/><path fill="#ce7486" d="M282.55 194.65q-1.95-4.4-4.55-11.4 2.5-2 7.95-2.55 5-.55 9.8.25 6.65 1.2 10.9 4.9 4.2 3.7 4.4 8.5-5.55-4.25-14.05-3.95-7.95.3-14.45 4.25M190.8 159.9q-12.75-.4-21.2 3.35l-2.95-.1q-2.15-.1-4-2.3-1.6-1.9-1.4-2.95.1-.45 4.75-.65l8.85-1.1q3-.8 8.5-1.45l9.55-.7q7-.1 12.7 1.1l6.2 1.5q1.7.15 2.45.85.5.55.4 1.15-.4 3.5-1.7 5.85l-1.05 1.4q-7.15-5.55-21.1-5.95"/><path fill="#0d131a" d="M190.4 165.05q-6-.4-13.1-.35l-9.5.15q-4 .05-6-2.45-1.65-2-1.5-4.75l2 .25q-.3 1.4 1.35 2.9 1.75 1.65 4.3 1.7 30.35.55 40.95 3.4 3.55 1 4.8-9.15l2.35.2q-.35 1.75-.15 7.8-.5 4.95-4.4 3.95-10.75-2.95-21.1-3.65"/><path fill="#0d131a" d="M212.9 156.25l4.8.4q2.15.05 2.1.45-.1 4.7-2.2 9.4-2.15 4.85-4.25 4.45-2.15-.4-4.1-5.4-1.95-4.95-2.1-10.1l1.45-.1 4.3.9"/><path fill="#fff" d="M217.35 156.95q1.6-.1-.25 6.55-1.9 6.65-3.6 6.3-1.7-.35-3.7-7.3-1.95-7-.45-6.95l3.65.8q2.9.7 4.35.6"/><path fill="#0d131a" d="M166.5 157.2l4.6-.65 1.5.05q.2 4.25-1.75 9-2 4.85-4.1 4.85-2.05 0-4.35-4.95-2.15-4.7-2.2-8.45l1.8-.05 4.5.2"/><path fill="#fff" d="M170.3 157.4q1.55-.1-.3 6t-3.5 5.75q-1.7-.35-3.5-6.25-1.75-5.95-.25-5.9l3.4.3 4.15.1"/><path fill="#0d131a" d="M192.9 154.7q-6.2 0-15.7 1.95-9.5 1.9-13.2 1.9-5.15 0-7-1.65-1.75-1.55-1-5 .6-2.55 1.1-2.35.5.2.5 2.6 0 4 6.5 4l12.8-1.6q10.15-1.6 16.05-1.6 7.25 0 15.05 1.5l9.15 1.5q2.7 0 4.2-1.05 1.4-.95 1.4-2.55 0-1.8.5-2 .5-.2.85 1.7.5 3.25-1.2 4.65-1.6 1.35-5.75 1.35-2.5 0-9.1-1.65-6.6-1.7-15.15-1.7M67 318.25q-11.95 8.85-11.05 22.6.55 8.65 14.9 20.7 14.1 11.8 22.8 11.8 8.45 0 14.2-6.35 5-5.55 6.6-14.2 2.45-12.9-5.85-26.85-3.6-6-8.1-9.85-4.6-3.95-8.75-4.45Q78.2 310 67 318.25m-14.1 23q-.95-15.3 11.85-25.1 12.05-9.2 27.25-7.45 4.9.6 10.05 4.9 5 4.2 8.9 10.75 8.85 14.9 6.2 29.05-1.95 10.25-8.3 16.45-6.45 6.35-15.25 6.25-9.65-.1-24.75-12.7-15.35-12.85-15.95-22.15m209.05 3.55q0-11.5 6.1-22.35 5.95-10.65 13.2-12.95 14.8-4.65 28.5 2.8 14.05 7.65 15.65 22.4 1 9.2-12.05 24.55-12.75 14.95-22 16.6-12.3 2.2-21.1-8.05-8.25-9.55-8.3-23m60.65-10.1q-1.4-12.55-13.55-19.7-12.6-7.35-27.1-2.95-6.45 1.95-12.05 12.6-5.5 10.4-5.5 19.95 0 13.05 8.15 21.85 8.1 8.8 18.35 6.95 8.6-1.5 20.5-15.65 12.2-14.45 11.2-23.05"/></svg>