<svg xmlns="http://www.w3.org/2000/svg" width="139" height="232" viewBox="0.0 -0.4 138.7 231.9"><path fill="#dcdbd6" d="M67.3 22.95l6.25-.2q3.1-.3 5.8 12.35.75 3.45-3.05 7.45-1.7 1.85-5.8 4.9-1.35 1-7.25-.15-6.45-1.25-8.15-.8-3 .75-17.95 15.35Q22 76.6 21.8 79.6q-.05 1.4 3.5 8.6-3.2 8.9-6.4 15.1-4.05 7.85-9 13.35-1.4-4.05-2.45-8l-.8-3.2-1.05.75q-1.25.7-2.45.4-2-.5 2.1-15.35-1.55-2.95-.95-7.1.5-3.35 1.65-5.05.45-.6.75-2.85.3-2.2 1.6-3.9 1.45-1.85 4.35-2.25l2.65-.05q17-32.4 18.85-36.6 1.15-2.65.7-5l-1.4-5q-.55-2.35 1.25-6.05 3.1-6.25 4.1-9.35 1.75-5.4 4-5.85l7.9-.65q5.2-1.1 7.95 1.05 1.05.8 3.95 5.2 1.4 2.2.7 5.95-.85 4.85-.5 7.1.3 1.8 4.5 2.1"/><path fill="#b4b4b0" d="M66.45 22.6l5.55.5q-4.15 1.3-5.95 2.6l-3.35 3.15q-2.05 2.05-3.55-3.25-1.45-5.05-.75-9.1.85-4.5-1.4-8.3-2.75-4.8-9.35-5.9l3.05-.75q5.2-1.1 7.95 1.05 1.05.8 3.95 5.2 1.4 2.2.7 5.95-.85 4.85-.5 7.1.2 1.15 3.65 1.75m12.4 10.3l.5 2.2q.75 3.45-3.05 7.45-1.7 1.85-5.8 4.9-1.35 1-7.25-.15-6.45-1.25-8.15-.8-3 .75-17.95 15.35Q22 76.6 21.8 79.6q-.05.65-7.6 13.3l-7.55 12.55q-1.3 1.3-2.9 1.25 3.3-6.2 6.6-15.5.8-2.3-.45-2.85-1.3-.55-3.95 1.25 1.65-3 3.15-5.15 2.9-4.1 6.35-5Q25.9 65.3 37.7 54q12.1-11.6 16.45-11.3 6.65.5 11.55-.85 7.85-2.1 13.15-8.95"/><path fill="#a95b00" d="M21.85 80q.6.5 1.45 3 1.1 3.4 2 5.2-3.2 8.9-6.4 15.1-4.05 7.85-9 13.35-1.75-5.15-2.9-9.85Q20.7 79.15 21.85 80"/><path fill="#cf7100" d="M12.6 70.05l2.65-.05q4 2.5 2.05 7.15-.55 1.4-3.05 3.75Q11.4 83.5 9.2 84q-.7.15-2 2.9l-2 4.2q-1.45-2.95-.9-7.05.5-3.3 1.65-4.95.45-.6.75-2.85.3-2.2 1.6-3.9 1.45-1.9 4.3-2.3m95 110.4l11.55.6q7.1-.4 9.65-1.95 5.95-3.55 7.25-2 1.45 1.7-1.75 10.35-2.55 6.95-10.45 14.4-9.25 8.75-18.55 9.75-6.15.65-8-4.25-1.6-4.15.05-11.1 1.5-6.3 4.6-11.25 3.2-5.05 5.65-4.55"/><path fill="#a95b00" d="M96.75 199.25q7.9 3.1 17.3 1.9 9.3-1.15 15.75-5.95-4.65 6.2-10.6 10.55-7.1 5.1-13.9 5.85-5.4.6-7.55-3.2-1.85-3.3-1-9.15"/><path fill="#cf7100" d="M27.05 174.8q2.5-1 9.4 3.2 6.8 4.1 13.25 10.35 7.1 6.9 9.6 12.65 2.95 6.7-1.45 9.95-8.45 6.2-19.35 8-9.25 1.55-12.1-.5-2.7-1.95 0-5.55l3.25-3.25-3.85-4.2-5.05-7.45q-3.3-5-1.2-12.95 2.1-8 7.5-10.25"/><path fill="#a95b00" d="M36.05 177.75q11.35 6.75 19.2 16.75 9.1 11.65 2.6 16.45-5.3 3.9-11.9 6.15-5.55 1.9-11 2.3-3.6-.75.4-2.75 6.05-3 6.7-3.9 1.95-2.65.45-14.95-1.6-13.55-6.45-20.05"/><path fill="#fff" d="M28.6 210.65q3.85.45 6.15 2.75 2.7 2.75-.05 6-6.25.45-8.3-.95-2.25-1.65-.8-4.35.9-1.75 3-3.45"/><path fill="#dbdcdc" d="M25.55 217.6q2.6.25 4.95-.05 2.35-.25 5.55-1.25-.1 1.65-1.35 3.1-6.25.45-8.3-.95l-.85-.85"/><path fill="#0d131a" d="M64.75 14.2l-.85 3.1q-.5 2.05-.3 3.45.15.75 3.1 1.2 3.2.5 6.55 0 3.1-.5 4.65 3.6.5 1.2 2.25 9.35.8 3.65-2.8 7.75-2 2.3-6.05 5.2l-.3.25q-2 1.4-9.2 0l-6.85.35Q50.7 50.1 36.7 63.65 22.75 77.15 22.65 79.6q-.15 1.05 3.4 8.25l.15.3-.1.35q-3.05 8.4-6.1 14.45-4.3 8.5-9.5 14.25l-.9 1-.45-1.3q-1.7-4.8-3-10.05-1.65.95-3.2.55l-.9-.7q-.35-.65-.35-2 0-3.55 2.7-13.4-.75-1.6-1.05-5.05-.3-3.3.5-5.3.25-.65 1.45-2.3l.5-1.9q.35-2.95 1.85-4.9 2.35-3.05 7.15-2.7 1.3-3.1 10.55-20.95 8.25-15.9 8.3-17.35l-.5-4.05-.65-4.75q-.1-1.2 1.9-6.55l2.95-7.65q1.4-4.35 3.25-5.7 1.4-.95 4.55-.95l6-.9q5.4-.7 7.5.45 3.55 1.9 5.25 6.9 1.3 3.95.85 6.55M61.9 8.25L61.1 7q-2-3.25-3.45-4.15-2.35-1.4-6.8-.5l-3.15.5-2.3.3q-2.8.6-3.65 1.4-1.15 1.1-2.4 4.95l-2.6 6.5Q35 20.05 34.9 20.65q-.45 2.15.15 5.35l.6 3.2q.2 2.45-.75 4.6-1.85 4.15-18.9 36.6l-.25.5-.6-.05-2.35.05q-2.6.35-3.85 1.95-.8 1.05-1.15 2.2l-.35 1.85q.9-.15.55.85L6.65 79.6Q5 81.2 5 86.25q0 1.35.55 3 1.15-3.6 2.9-5.25l-.8-.35q-.5-.4.9-.75 1.8-.4 4.9-2.4 3.2-2.05 3.3-3.1l1.25.15q-.2 1.6-3.25 3.95-2.9 2.25-4.75 2.6-1 .7-2.3 3.35-.95 1.85-1.6 3.8-.5 1.35-1.65 6.85-1.15 5.55-1.15 6.7 0 .7.15 1 1.35.25 2.65-.95l.95-.95 5.85-10.4q4-7.55 4.4-8.85.3-1 .75.5l.4 1.65-4.6 8.25Q9.2 103.2 7.5 105.4q.9 4.2 2.7 9.55 7.9-9.3 14.2-26.7-3.4-6.95-3.4-8.6v-.1q.2-3.6 14.5-18.05 14.4-14.65 19.4-15.8 2.05-.5 7.7.65l4.35.4q2.15-.05 3.1-.65 2.55-1.45 5.1-4 4.05-3.9 3.4-6.85-2.6-12.05-6.4-11.7l-4.9.25Q62.3 23.5 62 21q-.35-2.85.35-6.6l.4-3.2q0-1.65-.85-2.95"/><path fill="#0d131a" d="M58.6 33.95q1.4-1.65 2.9-6.2.65-1.9.8-1.8l.4 2q.3 1.55-1 4-1.15 2.15-2.15 2.85-.85.6-1.3.4-.45-.25.35-1.25m58.65 148.3q-3.65 0-9.75-1.2-1.75-.4-4.3 3.25-3.45 4.8-5.2 12-1.95 7.95.35 11.9 1.95 3.35 6.85 2.8 9.15-1 18.3-9.6 7.7-7.3 10.25-14.15 3.2-8.6 1.75-9.85-.45-.35-2.05.3l-4.3 1.95q-6.15 2.5-11.9 2.6m-20.5 13.95q1.7-7.45 5.4-12.6 3.05-4.3 5.55-3.75l10.75.6q6.4-.35 10.15-2.15 4.85-2.3 5.7-2.65 2.5-.95 3.3-.25 1.1.95.5 4.35-.6 3.4-2.7 8.4-3.7 8.75-12.5 15.85-8.95 7.3-17.55 8.2-5.75.6-8.05-3.35-2.5-4.35-.55-12.65M28.8 211.3l-.95.85q-1.25 1.25-1.85 2.5-.9 1.95.6 3.1.8.65 2.05.85l5.7.2q.65-.35.9-1.4.3-1.05-.05-2.2-.4-1.45-2.45-2.6-1.8-.95-3.95-1.3m-1.55-35.95q-4.15 1.75-6.3 8.75-1.1 3.5-.7 8.05.35 4 1.65 6.85 1.25 2.85 3.85 5.75 2.45 2.7 4.35 3.7l2 .95-.45.3q-.85.2-1.4.5l-.35.2q2.15.55 3.85 1.65 1.9 1.25 2.55 2.8.75 1.85-.35 3.85 12.2-1.4 21.55-8.25 4.6-3.4.3-11.15-4.8-8.6-16.25-17.15-10.95-8.15-14.3-6.8M17.7 191q-.15-6.9 3.2-11.75 2.55-3.65 5.9-5 4.15-1.7 15.7 7.1 11.55 8.8 16.35 17.35 5.2 9.3.4 12.75-5.25 3.9-12.5 6.2-6 1.9-11.75 2.35l-.3.05q-8 .55-9.7-2.05-1.1-1.7-.1-3.9 1.1-2.35 4.3-4.5-5.25-2.7-8.45-8.25-2.95-5.1-3.05-10.35"/><path fill="#cf7100" d="M29.45 191.95q-8.35-11.9-4.1-29.8 3.35-13.9 10.55-22.3 6.4-7.35 29.55-.3l18.25 6.15q10.15 3.45 14.55 3.95 9.15 1 14.65 6.95l3.4 4.5q1.65 2.4 2.5 3l3.05 2.25 2.05 2q1.55 1.55 1.3 5.7-.25 4.25-2.2 7.65-1.8 3.1-4.35 3.9-1.6.45-5.15.1-2.3-.2-2.7-1.5l.05-1.2q-.15-.25-.75-.45l-3.25-.25q5.35 4.85 4.4 16.85-.95 11.55-6.8 20.75-5 7.8-10.5 8.25-3.45.3-7-2.4-1-.8-3.05-4.4-2.2-3.95-6.55-7.85-16.95 1.15-27.55-3.5-11.05-4.85-20.35-18.05"/><path fill="#cf7100" d="M28.9 192.15q-8.3-11.85-3.8-29.85 3.5-13.95 10.8-22.45 6.4-7.35 29.55-.3l18.25 6.15q10.15 3.45 14.55 3.95 9.15 1 14.65 6.95l3.4 4.5q1.65 2.4 2.5 3l3.05 2.25 2.05 2q1.55 1.55 1.3 5.7-.25 4.25-2.2 7.65-1.8 3.1-4.35 3.9-1.6.45-5.15.1-2.3-.2-2.7-1.5l.05-1.2q-.15-.25-.75-.45l-3.25-.25q5.35 4.85 4.4 16.85-.95 11.55-6.8 20.75-5 7.8-10.5 8.25-3.45.3-7-2.4-.9-.7-3.65-4.45-2.85-3.9-7.5-7.75-16.8 1.2-27.05-3.4-10.5-4.7-19.85-18"/><path fill="#a95b00" d="M35.85 145.85l-4.55.9q2.35-4.25 4.6-6.9 6.4-7.35 29.55-.3l18.25 6.15q10.15 3.45 14.55 3.95 9.15 1 14.65 6.95l3.4 4.5q1.65 2.4 2.5 3l3.05 2.25 2.05 2q1.55 1.55 1.3 5.7-.25 4.25-2.2 7.65-1.7 3.05-4.2 3.8 1.3-2.4.8-6.35-.45-3.55-1.65-4.65-2.5-2.95-5.45-5.55-5.8-5.15-12.5-7.55-22.75-8.2-27.15-9.5-10.3-3.1-28.1-6.2-3.9-.65-8.9.15"/><path fill="#a95b00" d="M88.55 168.4l7.75 2.35q6.55 2.25 8.05 3.9.8.9 1.25 3.7.45 2.6.75 2.8 1 .7 1.4 1.1l-.9.05q5.35 4.85 4.4 16.85-.95 11.55-6.8 20.75-5.75 9-12.2 8.25l2-3.05q1.5-2.1 3.35-2.9 2-.85 4.8-5.95 3.15-5.7 4.35-12.1 3.4-17.8-10.6-25.95-4.4-2.55-7-6.55-2.55-3.8-.6-3.25"/><path fill="#f9f1ab" d="M29.15 193.35q-2.9-4.15-4.2-10.2-1.1-5.05-.95-10.8 1.9-13.45 11.6-18.05 7.15-3.35 16.35-1.4 8.45 1.75 17.25 8.85 10.5 8.45 12.25 18.7-11.5 9.1-11.05 19.8.3 6.95 5.4 13.3-16.7.95-26.7-3.1-11.05-4.45-19.95-17.1"/><path fill="#d3cd91" d="M75.8 213.55q-15.05.85-24.4-2.25-10.4-3.45-18.55-13.1 8.3 5.45 17.8 7.8 9.8 2.4 21.6 1.75 1.35 3 3.55 5.8"/><path fill="#fff" d="M86.35 225.2q.1-4.05 5.55-4.95 5.65-.9 9.45 3.75-6.95 7.5-14.4 1.75l-.6-.55"/><path fill="#dbdcdc" d="M98.35 221.45q1.65.9 3 2.55-6.4 6.9-13.1 2.65 3.25.1 5.8-1.1 2.9-1.3 4.3-4.1"/><path fill="#0d131a" d="M95.4 220.95l-4.75.25q-1.55.5-2.55 1.55-.95 1-1.1 2.2l1.2.95 1.3.75 1.25.5.7.2.1.05q4.5 1 8.9-3.4-2.15-2.4-5.05-3.05m-16.85-76.4q-16.75-5.8-24.4-7.2-13.2-2.35-17.8 2.95-5.85 6.75-9 16.05-2.75 8.2-2.75 16 0 20.95 16.95 32.55 15 10.3 33.05 8.1-5.4-6.35-5.45-14.15 0-7.75 5.8-14.15 5.75-6.4 12.75-6.4 1.65 0 1.6.3-.1.35-2.1.9-7.15 1.95-11.6 7.4-4.5 5.5-4.5 12.45 0 5.7 3.2 10.85 1.45 2.35 5.75 6.2 3.95 3.55 5 5.75l.95 1.65q.45-1.3 1.7-2.45 1.3-1.25 2.85-1.75 2.45-.8 5.2-.05 3.15.8 5.6 3.5l2.55-3.45q6-9.35 6.8-20.8.8-11.45-4.25-16.05-.2.45-1.1-.35-1.25-1.1-1.25-4.95l.2-2.1-15.65-6.15q-1.45-.5-1.65-1.25l2.75-.05q4.45 1.2 14.95 6.3l.6-.25q.6-.1.55.35-.4 5.55.6 6.35l.55.6.1.1 1.55.1q1.5.15 2.45.6.95.45.7.85l-.4.3-.05.25.15.55q.35.6 2.25.75 3.65.3 4.8.05 2.3-.55 3.95-3.4 1.8-3.25 2.05-7.35.25-3.95-1.1-5.25l-.7-.75-4.3-3.45q-.95-.7-2.8-3.35-2.95-4.35-5.7-6.5-4.7-3.7-11.75-4.5-3.25-.35-8.8-2.05l-10.85-3.65m-24.9-8.6q7.8 1.35 25.3 7.45L89.7 147q5.45 1.7 8.6 2.05 7.5.85 12.25 4.25 3 2.15 5.9 6.4l1.4 2.25 1.3 1.6 3.95 3.1.95.75.9 1.2q1.45 2.3 1.1 6.45-.35 4.15-2.35 7.65-1.85 3.25-4.75 3.8l-5.5-.2q-2.55-.15-3.35-1.45l-.1-.6.1-.6-.35-.2-.35-.25-.25-.2-.9-.15q1.9 2.3 3.15 6.45 1.25 4.05 1.3 8.05.05 6.5-1.9 11.75-.75 2.05-4.5 9.15-2.45 4.55-4.45 6.8-3.4 4-8.55 4.1-6.1.15-9.75-6.7-1-1.9-3.55-4.35l-4.25-3.8-8.55.75q-17.1 0-29.9-10.6-14.35-11.95-14.35-31.3 0-9.95 3.05-18.1 3-8.15 9.45-15.6 4.95-5.75 18.2-3.5"/><path fill="#fff" d="M105.45 181.5q.7-.65 2.35-.25 1.65.45 2 1.4-1.35 3.3-2.85 2.95-1.5-.3-1.5-4.1"/><path fill="#dcdbd6" d="M88.65 72l10.55-5.8q3.15-1.4 5.75.45 2.55 1.75 1 3.3-2.6 2.65-7.05 11.5-2.25 4.45-3.95 8.35l1.2 2.25q1.2 2.75 1.5 5.25.8 1.5 5.25 4.75 5 3.6 6.6 5.55 1.9 2.3 1.25 8.05-.8 7-.5 8.25 2.35 2.05-.1 8.65-1.2 3.3-2.9 6.2l.7 1.65q.75 2.1 1.05 4.6.4 3.9-1.95 8-1.45 2.6-3.5 4.65l-4.25 5.15q-3.6 4.1-5.65 4.55-1.9.45-4.6-1.75l-4.45-3.5q-1.8-.9-5.15-1.7l-4-.95q-.8-.25-3.55 2.35-3.15 2.95-4.35 3.3-1.55.45-4.3-5.25l-2.95-6.55q-.5-.65-6.75-3.2-5.25-2.15-7.3-2.85-.95-.3-2.75-2.05l-1.6-1.7-2.8-1.1q-2.95-1-3.4-.4l-2.25 2.6q-2.05 1.7-3.9.75-5.35-2.7-11.95-13.35l-5.5-10.1q-1.25.75-3.5-.25-1.75-.75-4.45-6.25-2.7-5.6-2.35-7.8.3-1.85 5.05-4.7 5.25-2.95 6.5-3.85 1.55-1.1 3.8-5.55l1.95-4.2q-.65-4.35-2.45-6.1-2.9-2.3-4.65-4.05-3.3-3.25-3.15-5.95.2-3.2 2.6-4.55 2.45-1.3 4.9.55 4.5 3.35 9.45 5.85 5 2.5 9.15 3.45l7.65-3.65q8.95-3.65 15.45-3.65 10.8 0 21.55 4.3 1.5.6 9.05-3.5"/><path fill="#b4b4b0" d="M18.65 116.35l4.45.1 4.05.95-7.7.75-7.35 3.75q-2.2.15-4.5-.85-.6-.3 3.8-2.3 4.55-2.05 7.25-2.4m25.6 24.6q.35.75 6.85 3.5 6.6 2.75 7.7 4.95 1.25 2.5 1.3 3.4 0 .65-.4.2-.5-.65-6.45-3.1-4.75-1.9-7-2.65-.95-.3-2.75-2.05l-1.6-1.7-2.8-1.1q-2.95-1-3.4-.4l-2.25 2.6q-2.05 1.7-3.9.75l-1.65-.7-1.6-1.05q3.75-.75 8.3-5.2 6.6-6.45 7.35-7 0 1.2.85 4.65.8 3.4 1.45 4.9m35.2 19.45l-4-.95-3.1 2.4q-2.65 2.4-2.65 2.05 0-.9 2.95-6.85 3.05-6.2 3.8-5.25.8 1 5 2.55l6.2 1.95q2.8.7 8 10-1.05.85-2 1.05-1.9.45-4.6-1.75l-4.45-3.5q-1.8-.9-5.15-1.7m27.85-21.85q-2.45-3.25-3.45-5.55-1.45-3.25-1.1-6.55l4.25 3.95q2.6 2.5 2.45 3.1l-1.05 2.7-1.1 2.35M95.7 90.9q-1.1-.8-2.1-2.7-1.05-1.95-2-2.75 1.65-.9 5.5-6.25 4.4-6.1 6.55-8.05 2.9-2.55-2.4 7.15L95.4 88.55l-.05.75q0 .9.35 1.6M34.95 78.5L40 75.95Q46.15 73.2 51.5 72q-4.85 2.9-7.5 5.3l-3.15 2.8-5.9-1.6m75.45 39.7l-.1 2.55q-.25 2-.1 2.8-6-4.05-8.3-8.6l5.35 1.8q3.05.85 3.15 1.45M9.95 70.05q-.2 1.8.2 2.9.4 1.15 1.7 2.45l9.6 10.75q4.45 5.5 3.05 7.3-2.95 3.8-11.2 9-7.55 4.75-8.1 6.15-.8 2.15-.75 4.85.1 2.15.6 3.65-1.5-2.7-2.45-5.35-1-2.85-.8-4.15.3-1.85 5.05-4.7 5.25-2.95 6.5-3.85 1.55-1.1 3.8-5.55l1.95-4.2q-.65-4.35-2.45-6.1-2.9-2.3-4.65-4.05-3.3-3.25-3.15-5.95.1-1.9 1.1-3.15M55.3 88.7q2.05 0 4.85 5.4 2.05 3.95 3.35 8.1 1 3.05 1.35 11.25.3 8.6-.8 10.75-1.4 2.6-6.1 4.85-5.2 2.45-9.95 1.95-4.35-.5-8.6-6.85-3.3-4.85-3.95-8.05-.4-1.75 2.4-11.65 2.8-9.8 3.9-11 1.15-1.15 6.2-2.95 5.05-1.8 7.35-1.8"/><path fill="#cf7100" d="M50.25 95.4q3.8-1.9 5.5-1.75.65.05 4.45 7.85 3.75 7.6 4.7 10.55.85 2.75.75 6.25-.15 3.35-1.1 5.05-.8 1.5-7.15 2.8-5.45 1.15-8.35 1.15-1.85 0-4.65-3.8-2.45-3.35-3.3-6.05-.65-2.05.9-8.65 1.4-6 2.85-9 1.1-2.3 5.4-4.4"/><path fill="#a95b00" d="M50.25 95.4q3.8-1.9 5.5-1.75.65.05 4.45 7.85 3.75 7.6 4.7 10.55l.65 3.3-3.05-5.3q-4.25-7.3-9.15-9.1-5.75-2.1-10.5 4.55 1.05-3.65 2-5.7 1.1-2.3 5.4-4.4"/><path fill="#fff" d="M62.45 121.85q.4 1.35.2 1.7l-1.3.2q-2.95-.35-7.6-2.6-4.1-2-4.85-2.9-.7-.8.2-6.85.95-6.1 1.85-6.35 2.55-.75 6.6 6.1 3.35 5.6 4.9 10.7"/><path fill="#b4b4b0" d="M92.15 90.8q3.05-.6 5.4 7.95 1.95 7.05 2.05 13.3.05 4-2.6 7.3-1.85 2.25-3.4 2.9l-1.2.3q-.5-.1.25-.7.8-.7 2.2-4.7 1.45-4 1.8-6.7.35-2.3-1.45-7.85-1.3-3.95-2.45-6.3-.45-.9-1.6-.15-1 .6-1 .25.15-1.45.6-3.1.65-2.35 1.4-2.5"/><path fill="#cf7100" d="M89.9 98.2q.2-1 .7-1.75.5-.7 1.1-.85 1.45-.4 3.25 6.15 1.55 5.7 1.9 9.9.25 2.85-1.8 6.5-1.7 3.1-2.75 3.5-.6.2-1-.85l-.8-2.4q-.45-1.15-.65-10.25-.2-8.7.05-9.95"/><path fill="#a95b00" d="M89.9 98.2q.2-1 .7-1.75.5-.7 1.1-.85 1.45-.4 3.25 6.15 1.55 5.7 1.9 9.9v.65q-2.25-4.7-2.9-5.55-2.1-3.05-4.15-1.55-.1-6.05.1-7"/><path fill="#fff" d="M92.8 104.8q.8-.25 1.25 3.7.4 3.4.25 5.1-.15 1.1-1.1 2.65-.95 1.4-1.9 2.15-.8.6-1.05-3.25-.2-3.2 0-5.05.2-1.7.65-3 .7-1.95 1.9-2.3"/><path fill="#b4b4b0" d="M75.05 148.05q-.3-2.7.55-4.8.8-1.95 3.3-2.45 1.7-.3 3.75.05 3.65.65 5.95 6.7 1.8 4.9 1.5 7.6-.15 1.25-1.3.95l-3.1-.6q-1.7.05-5.45-1.9l-4.15-2.5q-.8-.55-1.05-3.05m25.8-10.8q.75-1 2.4 1.15 1.35 1.7 2.1 3.55.45 1.2-.45 4.4-.85 2.9-2.05 5.1-.95 1.7-1.35.75l-.65-2.55q-.3-1.4-.35-6.6 0-5.25.35-5.8"/><path fill="#0d131a" d="M79.5 148.55q-.2-.95.15-2.9.2-1.25 1.55-2.75t2.3-1.45q3.25.1 5.2 5.65 1.5 4.2 1.3 6.4-.05.75-2.8-.2l-5.15-2.1q-2.15-.85-2.55-2.65m20.95-7.2q.35-.75 2.5 3.5.35.8-.3 2.65l-1.2 2.5q-.45.65-.85-3.7-.4-4.4-.15-4.95m8.65 41.35q-.45-.6-1.5-.85-1.05-.2-1.55 0 .05 1.55.45 2.45.25.65.6.75.9.1 2-2.35m-4.3-1.5l.2-.2q1-.8 2.85-.35 2.05.5 2.55 1.75l.05.25-.05.2q-1.55 3.8-3.55 3.4-2.05-.4-2.05-4.75v-.3m-55.75-61.95q-.85-.7-.95-3.1 0-1.85.25-2.95.2-.7.5-.8.3-.1.3.9 0 4.5.6 4.9 3.45 2.4 6.85 3.85 2.85 1.2 4.55 1.35 1.05.1 1.05.4l-1.2.35q-2.15.05-5.1-1.1-3.45-1.3-6.85-3.8m13.65 1.95q.4 1.75-.05 1.65-.4-.1-.8-1.3-1.4-4.55-4.9-9.75-3.25-4.85-5.25-5.95-.35-.2-.5.1l-.8 1.55-.55.6q-.25 0-.2-.7.1-1 .6-1.95.45-.9.8-1.1.25-.15.5 0l.5.3q3.3 1.8 6.4 6.65 3.15 4.85 4.25 9.9m-.65-9.25l.05 1q-.15.1-.45-.75l-1.8-3.95L58 105.1q-.6-.85-.55-1.1.1-.3 1.1.55.9.8 2 3.2 1.1 2.35 1.5 4.2"/><path fill="#0d131a" d="M60.9 117.65q-.2 2.35-1.25 3.85-1.1 1.45-2.3.95-2.65-1.2-3.15-5.65-.5-4.25 1.3-8.25l2.2 2.75q2.35 3.3 3.2 6.35"/><path fill="#fff" d="M58.9 116.35l-.3 1.8q-.3.7-.6.7t-.6-.75q-.35-.85-.35-1.85 0-.95.35-1.75.3-.7.6-.7t.6.75l.3 1.8"/><path fill="#0d131a" d="M92.5 103.9q.3-.3.8.2l.85 1.8.35 2.3-.2 1.5q-.25.5-.4-.35-.5-3.05-1.1-3.8-.5-.55-1.35 2.3 1.3.1 1.55 3.25.2 2.85-.55 5.05l1.55-2.2.25-.25.05.35-1.15 2.7q-1.1 1.85-1.9 2.2l-.35-.8-.05-.15-.1-.15.05-.05-.4-3.25-.15-4.15-.4-.95q.2-1.35.95-3 .8-1.9 1.7-2.55"/><path fill="#fff" d="M91.7 112.6l-.15 1.25-.35.65q-.2 0-.35-.7l-.15-1.3q0-1.95.4-1.95.25 0 .4.6l.2 1.45"/><path fill="#0d131a" d="M103.9 118.15q-.6-1.2-2.05-1.95-1.25-.65-2.35-.7-.65 2.05-1.75 3.65 2.3.8 2.75 1.15 1.45 1.2 2.15 4.5 1.7 7.9 4.4 12.55 2.05-3.8 3.1-7.25 1.2-4.05.05-4.95l-.2-.2-1.7-1.45q-2.9-2.45-4.4-5.35m4.95-10q-1.6-1.95-6.3-5.35l-4-3.1q1.15 4 1.5 7.75l.15 2.85q0 2.1-.4 3.95 1.4.15 2.65.9 1.45.85 2.2 2.3 2.15 4.05 4.85 5.5-.1-3.45.15-5.35.5-3.55.45-5.25-.1-2.75-1.25-4.2M80 146.35q-.25 1.75.1 2.65.25.8 1.15 1.45.9.6 4.55 1.75 3.6 1.1 3.65.8.15-1-1.1-4.4-1.65-4.5-4.3-6.4l-.3-.2q-1.15.2-2.3 1.4-1.25 1.3-1.45 2.95M39.5 136.3l-2.65 4.7q1.65.15 3.85 1.1-1.1-2.85-1.2-5.8m-1.9-13.2q-3.2-4.2-3.25-7.65-1.45.55-5.2 2.25l-4.65.7-4.65-.2q-.65-.05-2.1 1-.85.55-2.5 1.85l-1.2.8q-.6.4-.7.95-.15 1.3 5.4 9.65 6.3 9.4 11.05 11.75 1.05.55 2.95-1.1l1.75-1.7q6.45-10.25 8.9-12.35-3.5-2.9-5.8-5.95m39.8 19q-1.4 1.1-1.6 4.1-.2 2.55.35 4 .35.9 4.05 2.75 3.55 1.85 4.8 1.95l2.6.35 1.6.05.35-.6-.15-.65q-1.7 0-4.95-1.25-2.85-1.1-4-1.95-1-.75-1.25-1.6-.3-.9-.05-3 .2-1.55 1.3-2.95 1-1.25 2.25-1.8-3.05-1.2-5.3.6M50.65 94.7q4.2-2.1 5.85-1.3 2.3 1.1 7.25 14.8-1.1-7.35-2.9-12.15-2.3-6.15-5.25-6.65-2.3-.35-7.3 1.6-5 1.9-6.35 3.65-1.2 1.6-3.65 10.25-2.3 8.3-2.3 10.35 0 3.6 3.7 8.25 2.8 3.55 5.9 5.7 2.9 2 8.55.2 4.45-1.45 7.5-3.85l-7.15 1.8-5.4.65q-1.7-.2-5.05-4.65-3.4-4.45-3.65-6.8-.3-2.45 1.55-9.65 1.95-7.45 3.45-8.8 2-1.75 5.25-3.4m5.35-.2q-1.15-.5-4.65 1.25-3.2 1.6-5.1 3.25-1.25 1.1-3.05 8.2-1.85 6.95-1.6 9.2.25 2.1 3.45 6.25 3.1 4 4.2 4.1l5.85-.7q4.6-.85 6.65-1.7l1.4-.65q1.6-2.7 1.45-7.2l-.4-3.1q-1.3-4.65-4.05-11.2-3-7.15-4.15-7.7m39.2 0q-2.15-3.65-3-3.05-.85.6-1.25 3.75.5-.6 1.1-.6 1.2 0 3.05 4.05 2.25 5 2.25 11.55 0 2.9-1.1 6.2-1.25 3.85-3.1 5.25 1.7.25 3.8-3.85 2.4-4.65 1.85-10.2-.85-8.3-3.6-13.1m-4.15 2.35l-.35.55q-.45 2.2-.55 6.1-.05 7.45.9 12.95.75 4.6 1.45 4.6 1.3-.8 2.5-4.45 1.1-3.55 1.1-6.35 0-5.05-1.7-9.75-1.5-4.2-2.6-4.2l-.75.55M105.3 68.1q-.75-1.05-2.2-1.45-1.75-.5-3.55.3-1.8.8-6.25 3.35-8.75 4.95-11.5 5.75 2.25 2 2.25 2.35 0 .5-4.75-2.15-2.8-1.6-9.35-2.9-6.6-1.3-11.9-1.3-6.4 0-13.9 2.7-4.9 1.75-7 3.1-.45.3 2.85 1.4 3.15 1.05 2.55 1.25-1.25.45-7.8-1.2-4.2-1-9.3-3.5-5.1-2.55-9.6-5.95-1.9-1.4-3.8-.55-2.25 1.05-2.4 3.95-.1 1.95 2 4.35l3.9 3.55 1.7 1.45q1.3 1.3 2.05 3l1 2.85 1.05 3.2q.5 1.85-.05 1.95-.85.15-1.8-2.5l-2 3.95q-2 3.5-3.7 4.7l-3.05 1.8q-3.5 1.95-5.05 3.05-2.9 1.95-3.1 3.15-.35 2 2.3 7.3 2.55 5.25 4 5.85l2.8-.05 3.55-2q3.8-1.95 4.75-1.85 6.85.8 8.45 0l3.35-1.65q1.9-1 2.7-1.2.65-3.85 2.85-11.1 2.4-7.8 3.7-9.45 1.5-2 6.85-3.9 5.25-1.9 7.9-1.5 5.3.8 8.3 14.15 1.5 6.7 1.95 13.35.2 5.7-.9 7.85-1.7 3.4-8.6 6.3-7.85 3.3-12.15 0-1.4 1-4.15 5.25l.45 3.05q.55 3.3 1.35 4.5l2.3 2.35 2.15 1.5 5.75 2q5.9 2.15 7.1 3.05v-1.65q.2-1.15 1 1.55 2.05 6.7 4.1 10.05 1.65 2.7 2.9 2.8.65.05 1.8-1l1.95-1.95 2.55-2.15q1.2-.8 2.05-.55l1.9.45q-1.8-1.5 1.1-5.4l-2.8-1.45q-1.4-.8-1.65-1.4-.65-1.6-.1-4.8.65-3.65 2.4-5.1 1.8-1.45 4.3-1.2 2.15.2 3.9 1.45 3.8 2.75 5.5 8.4 1.4 4.55.7 6.15-.35.85-2.1.8l-3.15-.35-.8-.1-2.1-.6-3.35-1.45q-1.1 1.5-1.4 2.55-.35 1.5.7 2.8 4.2.95 6.25 2 1.4.7 3.35 2.5 3.25 2.8 5.55 2.25 1.4-.3 3.75-2.8l3.55-4.2 1.8-2.1q1.75-1.75 3.1-4.3 2.05-3.85 1.75-7.55-.25-2.8-2.55-8.6-2.55-6.4-3.25-10.35-.5-3.1-2.15-4.55-.9-.8-2.8-1.45l-.1-.05-1.2 1.2q-2.2 2.2-3.05 2.05-1.05-.1-1.95-3.6-.95-3.45-1.25-8.2-.45-8.15-.15-12.9.2-4.25.65-6.3.5-2.6 1.55-2.85.65-.2 1.65.4.95.6 1.75 1.65-.85-2.6-3.65-5.35-1.1-1.1-.75-1.3.35-.15 1.45.55 1.4.85 2.85 2.6 1.7-3.95 3.75-8 4.1-8.05 6.75-10.75.45-.5-.1-1.3m-1.75-3.1q2.15.55 3.1 2.15 1.6 2.65-.55 4.8-2.35 2.4-6.1 9.45-2.4 4.45-4.15 8.35.95 1.6 2.25 7.25.5.85 2.15 2.1l3.3 2.35 3.1 2.25 2.95 2.4 1.95 2.15q.85 1.5.95 4.25.05.9-.5 2.65l-.7 2.65-.4 4.3.1 1.5q.65.65 1.15 1.95.5 1.35.5 2.4 0 2.7-1.9 6.4l-2.6 4.4q1.2 2.3 1.65 6.15l.05 1.25q0 3.75-2.4 7.65l-3.3 4.4q-4.1 5.05-6 6.9-3 3-4.95 3-1.3 0-4.65-2.3-3.45-2.5-4.3-2.95-1.25-.6-5.25-1.7l-3.8-.95q-.5.05-2.95 2.35-3.75 3.6-5.05 4.05-1.75.5-4.25-3.8-2.4-4.2-3.3-9-.65-.6-6.7-3.05-5.45-2.2-7.5-2.85-1.05-.35-2.25-1.45-1.3-1.1-1.95-2.35-3.9-1.75-4.95-1.5l-.3.4q-1.55 2.4-3.85 3.05l-3.6-.25q-4.35-2.15-9.45-9.45-4.5-6.4-7.45-13.45-1.55.35-3.4-.5-2-.9-5.1-6.2Q0 110.75 0 108v-.55q.25-1.55 3.4-3.55.6-.4 6.55-3.75l2.95-1.75q1.2-.85 3-4.2l2.35-5-.7-2.7q-.65-1.9-1.45-2.75l-1.6-1.35q-2-1.65-4.5-4.4-2.55-2.9-2.9-4-.3-1.2 1-3.95 1.35-2.8 2.75-3.45 2.2-.95 6 1.95 4.3 3.25 9.15 5.7 4.8 2.4 8.85 3.35l7.25-4.05q7.35-3.3 15.75-3.75 5.05-.25 11.1 1.25 4.7 1.15 10.95 3.65 1.35.55 12.6-5.85 5.2-2.9 6.35-3.4 2.35-1.05 4.7-.45"/><path fill="#0d131a" d="M102.5 145.9q.1-.65-.35-1.85-.5-1.25-1.2-2.2.1 3.25.5 6.9.85-1.65 1.05-2.85m-.85-7.85l-.4.6-.3 2q1 .95 1.8 2.65.75 1.75.55 2.75-.55 2.9-1.6 4.4v1q0 .5.25.55.4.05 1.55-3.1 1.15-3.2 1.25-4.65v-.35q0-1.5-.75-3.25-.75-1.65-1.65-2.35-.4-.4-.7-.25m-1.65 8.6l-.3-5.5q0-4.05 1.25-4.5l1 .1q.7.2 1.25.65 1.15.9 2.1 3.15.95 2.3.8 4.2-.1 1.7-1.5 4.6-1.45 3-2.45 3.45l-.8-.05q-.9-.6-1.35-6.1"/></svg>