<svg xmlns="http://www.w3.org/2000/svg" width="264" height="345" viewBox="0.0 -0.8 264.4 344.7"><path fill="#fff" d="M85.4 94.1l.95 10.6-3.9.8-2.85-.2-2.05-.3q.2-2.75.8-5.6 1.2-5.7 3.3-6.1l3.15.15.6.65"/><path fill="#dbdcdc" d="M81.8 93.6q.95-.6 1.25-.6.55 0 2.25 1.5l.6 10.1q-.6 1-2.95.7.7-4.05-.3-7.7-.8-2.95-1.7-3.4l.85-.6"/><path fill="#cf7100" d="M252.15 246.55q-1.9 9.9-5 18.15-9.55 25.55-30.5 36.7-11.45 6.1-18.25-.5-5.6-5.35-7.35-18.15-1.5-10.65 0-21.2 1.45-10.15 3.85-9.5 4.7 1.3 18.9.1 14.6-1.25 17.8-3.6.75-2.15 1.5-9.5.55-5 2.1-4.7 2.75.55 8.05 3.3l6.8-8.35q2.2-3.35 3.65-1.45 1.55 2 .3 7.6l-1.85 11.1"/><path fill="#a95b00" d="M248.3 238.5q-.25 1.7-1.15 3.5-.8 1.65-1.6 2.3-.7.6-5.85-4.6-5.1-5.2-4.35-5.55.6-.3 3.15.95l4.75 2.55 3.75.1q1.45-.45 1.3.75"/><path fill="#a95b00" d="M253.15 228.45l.6 3.3q.5 2.55.25 3.7l-1.85 11.1q-1.9 9.9-5 18.15-9.55 25.55-30.5 36.7-12.55 6.7-19.5-1.8-5.55-6.8-6.6-21.6 16.95 1.15 23.5-.2 11.9-2.4 22.1-13.55 7.25-7.85 12.15-19.25 4.15-9.5 4.85-16.55"/><path fill="#cf7100" d="M82.8 74.2q1.8 2.45 1.35 3.3 1.3 5.7-9.7 10.25-4.6 1.9-21.1 6.35l-.4-4.1q-.15-3 .6-5.05.95-2.6 7.05-6.25 6.7-4.05 8.2-6.1 2.4-3.25 7.5-2.25 2.6.45 4.65 1.6l1.85 2.25"/><path fill="#a95b00" d="M82.8 74.2q1.8 2.45 1.35 3.3 1.25 5.4-8.55 9.75-5.4 2.4-19.7 6.15 2.95-2.15 10.7-5.8 7.1-3.35 10.1-5.9 2-2 2.85-4.65.9-2.8.35-5.55l1.05.45 1.85 2.25"/><path fill="#cf7100" d="M76.6 103.65q1.25 2 3.9 2.45 2.5.35 5.15-.7 6.4-2.65 5.1-8.3l7.15 21.55L78.3 183l-15.55-64.35-.85 1q2.4-4.1 7.4-9.25 3.75-3.85 7.3-6.75"/><path fill="#a95b00" d="M78.3 119.3q-9.75-4.8-14.3 4.5l-1.25-5.15-.85 1q2.4-4.1 7.4-9.25 3.75-3.85 7.3-6.75 1.25 2 3.9 2.45 2.5.35 5.15-.7 6.4-2.65 5.1-8.3l7.15 21.55-4 13.2q-10.1-9.8-15.6-12.55"/><path fill="#dcdbd6" d="M165.8 29.55q2.7 1.15.75 8.25l-3.75 10.55q-1.1 2.85-10.5 4.9-13.55 3-15 3.55-6.05 2.35-25.2 17.75Q92.7 90.1 90.05 95l-8.3-1.9q-2.6 2.75-3.7 7.9-.8 3.75-1.45 3.3l-6.9 6.5q-5.65 5.2-7.8 8.85-6.5 7.75-9.1 11.15-2.3 3.15-6.2 16.75-2.8 9.6-4.45 17.15-.9 4.25-9.6 4.2-8.85-.05-13.45-4.8-1.8-1.9-1.15-6.9l1.15-8.65q0-3.3-5.8-5.15-7-1.7-9.35-2.95-2.45-1.25-1.35-8.2.65-4.15 2.4-9.45.7-2.05 6.2-3.3 9.25-2.1 13.45-3.75 6.85-2.6 18.2-12l9.95-8.85q2.35-.2 2.25-1.15l9.9-2.4q5.75-1.4 9.1-2.75 9.25-3.75 10.4-11.35.4-.85-1.35-2.65l-2.65-2.7q5.6-4.45 20.8-21.3l17.9-19.85q3.45-3.45 6.75-11.6 3.95-9.8 5.35-12.05 2.75-4.25 9.25-4.55l10.15.9q4.3.5 5.55 1.95 1.4 1.6.5 5.95-1.2 6.05-1.8 13.95l3.85 1.45 7.05 2.8"/><path fill="#b4b4b0" d="M25.5 141.35q-.4 2.6-2.3 4.4-2.9 2.75-4.25 4.9l.15-2.1q0-3.3-5.8-5.15-7-1.7-9.35-2.95-2.3-1.15-1.45-7.55 3.7 5.9 14.2 6.35l6.4.25q2.65.35 2.4 1.85m138.4-104.3q1.75 3.1-1.1 11.3-1.1 2.85-10.5 4.9-13.55 3-15 3.55-6.05 2.35-25.2 17.75Q92.7 90.1 90.05 95l-3.75-.45-4.85.15q-1.1.65-2.6 3.8t-2 6l-.25-.2-6.9 6.5q-5.65 5.2-7.8 8.85-6.5 7.75-9.1 11.15-2.3 3.15-6.2 16.75-2.8 9.6-4.45 17.15-.45 2.15-3.65 3.3-3 1.1-7.1.85 3.1-2.05 4.7-4.15 1.7-2.35 2.5-5.85.85-3.9.3-13.8-.45-7.6 2.8-13.25 3.55-6.05 16.7-19.2Q70.1 101 70 99.55q-.15-2.25-5.05-4-4.6-1.6-8.85-1.45 2.5-1.3 15.45-5.55 11.95-5 12.9-11.3.4-.85-1.35-2.65l-2.65-2.7 1.85-1.6 7.6 1.05q3.75.75 6.6 2.25 3.25 1.7 22.25-16.05Q137.9 39.7 139.65 33q4.4-16.5 10-20.8 2.1-1.6 3.75-1 1.5.5 1.8 2.2l-1.1 7.4q-1.05 7.8-.55 12 .3 2.75 4.75 2.9 4.9.15 5.6 1.35"/><path fill="#0d131a" d="M252.65 230.7q-.5-2.55-1.75-.85l-2.8 3.75-3.3 3.7q1.6.95 1.3 1.45l-2.35-.05q-1.35-.35-4.75-2.15-2.85-1.55-3.3-1.35-.55.2-1.55 5.25-.85 4.4-1.4 9.05-.45 3.9-1.25 4-.8.05-.65-3.5-4.2 2.6-18.15 3.5-13.05.85-18-.45-.55.2-1.25 2.25-.95 2.7-1.5 7.05-.6 4.8-.6 9.7 0 9.7 2 17.15 2.4 8.95 7.25 12.25 6.05 4.2 15.6-.9 18.45-9.85 29.1-36.05 6.55-16.2 7.45-27.75.3-3.8-.1-6.05m-7.05 2.85l3.65-4.8q3-4.3 4.8-3.45 2.7 1.35.85 15.15-2.1 15.65-7.95 29.1-10.2 23.55-29.45 33.8-6 3.2-11.4 2.5-5.05-.7-8.85-4.65-7.3-7.7-7.85-26.25-.2-7.2.75-13.7.9-6.2 2.35-8.6 1.15-1.95 2.65-1.5 4.5 1.2 18.3 0 14.05-1.2 17.3-3.3.5-5.2.95-8.65.95-6.5 2.15-7.05 1.2-.55 4.75 1.5l4.4 2.8 2.6-2.9M75.95 71.5q-4.25-.8-6.15 1.8-1.1 1.5-3.35 3.15L62.1 79.2l-4.6 3q-2.25 1.7-2.8 3.2-.8 2.15-.9 3.6-.1 1.15.25 2.75.2.85 1 .95.95.05 3.4-.9l8.4-2.6q7-2.15 12-4.8 3.15-1.65 4-4.6 1.1-3.7-2.55-6.8-1.95-1.05-4.35-1.5m7.25 23.3q-.85-.15-1.6.55-2 1.8-3.15 9.05l6 .25q2.5-.5 3.4-1.2l1.3 1.3q-1.05 1.1-4.25 1.65-3.6.6-6.75-.15-.45 3.5-1.3 5.95-.85 2.45-.95-1.55 0-1.65.6-5.5l-12.55 13.2q1.25 5.2 7.75 28.55 6 22.7 6.75 31.45l18.2-59.7-6.7-20.05-1.5.9Q87.3 97.7 86 96.45 84.45 95 83.2 94.8m79.25-48.95q3.75-9.45 3.75-13.1 0-1.65-.85-2.1-5.35-2.25-8.9-3.55l-.7 2.45q-.8 2.35-1.5 1.7-.8-.8-.85-4.25-.05-3.3.55-5.9l.8-3.95.75-6.05q.45-3.45-1.2-5-1.15-1.1-3.8-1.4l-2.3-.3-8.75-.55q-5 .5-7.15 3.9-1.65 2.6-4.25 9.25l-3.4 8.35q-2.2 4.8-4.65 7.25L102.35 52Q87.6 68.2 82.25 72.35q1.7 1.5 2.45 2.65.75 1.2.75 2.55l-.45 3.1q-.5 1.65-3.15 3.95l-4.45 3.15q-4.7 2.65-13.3 4.7-8.25 1.95-10.45 3.35l-10.5 9.2q-11.2 9.25-18.05 11.9-4.9 1.95-12.05 3.45l-4.65 1.2q-1.9.7-2.2 1.65-2.1 6.25-2.6 10.9-.45 4.55.9 5.3 1.25.7 5.55 1.8 4.95 1.3 6.95 2.4 3.3 1.85 3.3 4.95 0 1.95-.7 6.05-.6 3.6-.6 5.05-.05 2.5 1 3.6 2.85 2.95 8.2 4 5.05 1 9.15-.15 3.2-.95 3.6-2.65 1.8-8 4.5-17.4 3.95-13.7 6.4-16.95l6.3-7.9 3.7-4.35 14.8-15.55 1.15-4.35q1.4-4.55 2.45-5.5 1.4-1.35 3-1.05 1.85.25 4.05 3.1l2.55 3.8-1.15-3.4.25-.5q2.85-5.25 21.5-20.55 18.45-15.15 24.35-17.4 4.5-1.75 12.9-3.5l8.8-2.05q4.5-1.4 5.15-3l.8-2.05m3.85-17.45q1.2.55 2 2.25.75 1.65.75 3.3 0 2.5-1.55 6.3l-2.8 6.5-1.4 3.65q-.9 2.4-4.6 3.3l-9.1 1.65-6.3 1.2q-3.85.75-5.55 1.4-5.9 2.3-24.5 17.25-18.55 14.95-21.85 20l7.8 23.45-21.05 69q-11.85-51.5-16-66.4l-8.35 10.3q-2.1 2.8-5.35 15.7l-4.1 17.95q-.3 1.5-2.3 2.95-1.9 1.35-4.25 2l-10.15.35q-6-1.05-9.3-4.5-2.75-2.75-2.75-4.9 0-1.05.65-3.4l.95-3.55.65-5.6q0-1.75-2.35-2.95-1.75-.9-6.05-2-4.3-1.15-6.05-2.05l-2.35-1.5Q0 139 0 137.25q0-2.9 1.05-7.7.85-4.05 1.95-7.35.6-1.8 3.35-2.75l6.2-1.5q7.3-1.6 11.7-3.3 6.1-2.4 16.2-10.55 5.7-4.6 11.05-9.65-.5-1.25-.65-2.8-.35-2.95.85-6.3.75-2.05 3.35-4.05l5.2-3.3q4.95-2.95 7.2-5.95 2.45-3.35 6.6-3.5 3.25-.1 5.95 1.6 4.45-3.05 18.85-18.6l18.4-20.6q2.35-2.75 4.7-6.9 2.3-4.05 3.8-7.95l2.3-6.55q1.55-4.35 2.6-6 2.8-4.35 13.1-3.35 9.2.9 13.2 3.9 1.4 1.05 1.6 4.1.15 2.05-.2 3.85-1.85 9.3-2.15 12.4l10.1 3.95"/><path fill="#cf7100" d="M213.3 165.4q17.95-4.35 22.9-4.9 9.9-1.05 16.05 2.5 3.75 2.2 8.65 8.6 3.3 4.3-.65 10.9-3.55 5.9-6.65 6.4l-3.65.15q-1.9.2-4.4 2.35-3.25 2.85-7.5 3.2-4.75.4-7.95-2.8-3.7 1-19.6 11.3-13.65 8.85-22.65 15.45.15 14.65 5.45 25.55 2.75 5.65 15.2 23.45 9.55 13.6 10.7 29.5.95 13.85-4.2 20.3l.95 7q.55 4.25.3 6.9-.65 7.5-7.7 9.4-5.9 1.6-14.15-1.6-8.6-3.3-14.45-9.85-4.4-.5-16.45-6.5-13.15-6.5-17.15-7.55-9.5-2.45-19.6-1.7-11.3.85-16.8 5.65l-10.9 9.05q-5.8 3.75-16.05 6.05-10.45 2.35-11.4-3.2-.7-4.15 3.9-11.9-8.45-4.7-11.15-14.95-2.15-8.25-.35-18.45 1.35-7.9 9.15-16.15 6.3-6.6 15.6-12.4 0-5.15 1.9-16.5 1.85-11.1 3.6-16.7 6.15-20.15 40.35-35.8 22.5-10.3 47.85-15.5l30.85-7.25"/><path fill="#a95b00" d="M71.6 331q-.7-4.15 3.9-11.9-3.85-2.2-6.6-5.65 14.3 7.5 27.95.2l8.95-6q4.35-3.15 6-3.2 9.5-1.2 22.2 2.05 2.95.75 21.7 6.9 12.6 4.1 19.8 4.4 10 .4 16.6-5.4 17.05-14.95 9.85-39.35-2.55-8.65-9.3-22.4L181.1 227.2l-1.2-1.85q-.7-1.05-.5-1.9.65-2.3 9.4-5.55-.45.35-.95.65.15 14.65 5.45 25.55 2.75 5.65 15.2 23.45 9.55 13.6 10.7 29.5.95 13.85-4.2 20.3l.95 7q.55 4.25.3 6.9-.65 7.5-7.7 9.4-5.9 1.6-14.15-1.6-8.6-3.3-14.45-9.85-4.4-.5-16.45-6.5-13.15-6.5-17.15-7.55-9.5-2.45-19.6-1.7-11.3.85-16.8 5.65l-10.9 9.05q-5.8 3.75-16.05 6.05-10.45 2.35-11.4-3.2m166.45-136.4q-4.75.4-7.95-2.8-4.75 1.3-27.2 16.3 14.55-16.65 22.65-21.2 2.25-1.25 5.3-.7l7.6 1.4q3.7.4 7.15-5.6l2-3.25q.9-1 1.6.45 1.45 3.05 5.5 3 3.45-.05 6.75-2.05-1.3 3.15-3.95 5.95-2.4 2.5-3.9 2.8l-3.65.15q-1.9.2-4.4 2.35-3.25 2.85-7.5 3.2m-40.1-13.75q-4.5 9.1-9.1 13.35-7.9 7.2-14.3 11.05-9.65 5.7-20.15 6.95-10.4 1.25-24.35-8.7-11.1-7.9-16.6-15.9 9.7-3.05 69-14.95l22.5-5.2q-1.25 1.8-7 13.4"/><path fill="#f9f1ab" d="M153.3 200.7q-.5 4.7-.5 8.2 0 3.5 3.45 12.4l8.8 22.4q5.9 15.55 5.35 27.55-.6 14.2-9.95 27.2-9.25 12.8-18.8 14.65-7.1 1.3-22.65-3.4-12.05-3.7-20.3-16.75-5.35-8.45-8.85-20.6-2.05-7.25-.35-23.25 1.45-13.4 3.95-22.3 5.15-17.9 33.25-25.8 14.05-3.95 27.1-4.35l-.5 4.05"/><path fill="#d3cd91" d="M153.25 212.45q-15.45 2.05-25.6-.1-10.55-3.2-17.75-4.6 11.35-6.45 28.75-9.45 8.7-1.45 15.15-1.65l-.5 4.05q-.5 4.7-.5 8.2 0 1.4.45 3.55m-26.6 91.45q12 1.6 22.6 6.15-6.9 4-13.8 3.6-4.55-.3-16.45-3.95l-5.05-1.75q-2-.95-4.25-2.8 4.45-2.9 16.95-1.25"/><path fill="#fff" d="M75.5 319.1q2.05-1.05 10.8 4.25 8.8 5.3 8.25 7.65-.55 2.5-10.2 4.15-9.65 1.65-11.55-.6-1.8-2.2-.65-8.3 1.15-6.05 3.35-7.15"/><path fill="#dbdcdc" d="M84.8 322.45q4.15 2.35 6.9 4.65 3.15 2.65 2.85 3.9-.55 2.5-10.05 4.15-9.55 1.65-11.6-.55 5.65-2.2 8.55-4.5 4.35-3.45 3.35-7.65"/><path fill="#fff" d="M216.85 330.75q1.95 1.1-1.4 5.75-3.3 4.5-5.65 5.15-2.7.75-11-.95-8.85-1.8-8.2-4.1 1.35-5.2 12.05-6.75 9.85-1.45 14.2.9"/><path fill="#dbdcdc" d="M216.85 330.75q1.45.8-.25 3.9-1.5 2.75-4.1 5.15-4.05-3.8-9.15-5.55-5.25-1.85-10.35-1 4.05-3.1 12.6-3.75 7.95-.55 11.25 1.25"/><path fill="#0d131a" d="M228 191.6q-1-1.6-1.3-3.75-.3-2.2.95-1.05 1 .9 1.85 2.15l1.5 1.95q2.7 2.9 6.9 2.55 3.85-.35 6.85-3 2.05-1.8 3.7-2.35l2.95-.35 2-.1q1.05-.15 3.25-2.45 2.55-2.65 3.75-5.7 1.65-4.35-.45-7.15-4.8-6.15-8.3-8.25-5.8-3.4-15.3-2.4-4.75.5-26.2 5.75l-27.45 6.4q-27.95 5.7-51.15 17.1-30.55 15-36.15 33.35-1.65 5.5-3.55 16.45-1.9 11.35-1.9 16.4v.7l-.55.35q-7.85 4.85-13.7 10.55-9.05 8.75-10.5 17.15-1.5 8.6-.1 15.9 2.15 11.3 11 16.2l1.1.65-.65 1.05q-2.6 4.4-3.45 7.7-.85 3.3.25 4.8 1.85 2.55 9.35.8 9.05-2.05 14-4.8 3.4-1.85 8.85-6.8l3.6-3.25q5.7-4.95 17.2-5.9 10.4-.85 20.3 1.7 6.55 1.7 15.65 6.8 7.5 4.2 13.8 6.35 3.1 1.05 4.75 1.25 5.7 6.45 14.1 9.6 7.85 2.95 13.3 1.5 5.65-1.5 6.85-6.5.8-3.3-.3-10.85l-.75-5.5q4.75-5.95 3.95-19.1-.95-15.6-10.5-29.25l-2.95-4.15q-10.8-15.3-13.1-20.2-4.55-9.6-4.65-23.35l-2.85 1.75q-2.75 1.4-2.15-.15.85-2.5 5.35-5.35 9.95-6.7 18.7-12.3 17-11 22.15-12.9m11.5 4.95q-4.25.85-9.6-3.4-4.15 1.55-19.1 11.2-13.05 8.5-21.7 14.8.25 13.15 4.75 23.1 2.95 6.55 12.7 20.45l2.95 4.15q5.6 8 8.45 17.35 2.55 8.4 2.55 16.55 0 5.35-1.15 9.8-1.1 4.3-3.1 7.05l1.15 4.4q1.1 4.55 1 7.8-.15 4.45-2.55 8.25-2.6 4.1-6.4 4.6-9.5 1.25-17.15-2.25-6.45-2.95-12.95-10.1-3.1-.45-8.3-2.7-3.35-1.4-9.85-4.65l-8.15-3.95q-4.35-2-7-2.65-9.4-2.45-19.35-1.65-10.85.85-15.95 5.3l-3.2 2.85q-1.65 4.05-7.95 7.5-6.5 3.55-16.7 5.85l-7.3.55q-2.7-.5-4.15-2.5-1.15-1.6-1.15-4.3 0-4.4 3.3-10.15-6.7-4.2-9.7-9.95-2.35-4.55-2.95-11.65-1.1-13.25 5.65-23.3 6.15-9.1 20.95-18.4 0-10.3 1.95-19.7.9-4.4 3.55-13.2 6.85-22.2 45.65-38.65 21.4-9.1 43.5-13.5l27.35-6.4q21.65-5.25 26.55-5.8 10.4-1.1 16.85 2.75 3.85 2.3 8.9 8.85 1.6 2.05 2.05 4.5.5 2.75-.55 5.4-1.3 3.4-4.55 6.35-2.95 2.6-5 3l-2.5.1-2.1.25q-1.15.4-2.85 1.85-4.2 3.7-6.85 4.25"/><path fill="#0d131a" d="M247.35 180.8q.15-4 1.7-.65 1.3 2.7-1.2 8.7l-1.7-.75q.4-.95.8-3.6l.4-3.7m-88.75 48.15q-4.3-10.3-5.45-15-1.9-7.75.1-13.75l2.45.15q-1.9 5.7-.35 13.2 1.15 5.7 4.95 14.7 4.55 10.75 7.25 19.7 2.75 8.95 3.15 14.35 1 13.15-2.3 24.55-3.35 11.4-10.35 18.85-4.25 4.5-10.6 6.7-5.7 1.95-12.3 1.85-20.9-.3-33-14.8Q93.7 289.3 90 275.3q-2.45-9.15-2.45-17.45 0-5.4.9-6.8.9-1.5 1.4 4.85.95 11.95 2.6 18.7 3.4 13.55 11.4 23.2 12 14.35 31.35 14.65 11.7.15 20.25-8.95 6.8-7.15 10.05-18.45 3.3-11.25 2.3-24-.65-8.3-3.5-17.25-1.75-5.55-5.7-14.85"/><path fill="#0d131a" d="M155.45 222.15l1-.45.55 1.35-.95.45q-10.85 4.95-21.85 5.45-10.05.45-17.9-2.85-3.2-1.4-5.65-3.6-2.4-2.2 6.2 1.65t22.4 2.1q10.2-1.35 16.2-4.1M89.2 261.1l.4-1.85q11.65 10.9 25.65 15.45 10.65 3.4 21.95 2.95 10.8-.45 20.7-4.15 8.1-3.05 10.8-6.05l1.1 1.45q-3 3.3-11.15 6.55-10.2 4-21.4 4.45-11.45.45-22.1-3.05-14-4.6-25.95-15.75m4.15 18.8l.05-1.85q16.85 16.5 43.95 15.65 9.45-.3 18.4-2.75 7.25-1.95 9.8-3.8v1.8q-2.75 2.15-10 4.25-8.8 2.55-18.2 2.85-26.65.85-44-16.15"/><path fill="#0d131a" d="M100.55 295.7l-.2-1.7q13.6 11.45 32.6 12.95l14.45-.7q6.35-1.2 9.75-3.75l-.35 1.6q-8.9 6.55-25.05 4.8-17.65-1.85-31.2-13.2M71.1 318.2q-3-2.35-3-4.3-.05-1.95 3.9 1.1 5.75 4.4 14.65 6.35 11.7 2.5 20.7-2.25 4.65-2.45 6.05-1.9 1.45.55-6.05 4.95-7.65 4.5-19.55 2.6-10.5-1.7-16.7-6.55"/><path fill="#0d131a" d="M84.85 323.75q-2.05-.95-.3-.9l2.2.25q4.45 1 8.4 6.65l-1.45 1.05q-3.3-4.5-8.85-7.05m118.6 4.55q7.9-.9 12.9 1.85l-.9 1.6q-3.65-2-11.35-.95-9 1.2-12.8 6.45l-1.55-.95q4.15-6.9 13.7-8"/><path fill="#0d131a" d="M159.45 320.9q-2.4-1.7-2.5-2.45-.1-.7 2.15.45 23.75 12.2 40.95 7.25 6.85-2 11.4-6.45 4.05-4 5.15-8.85 2.1-9.1 2.65-6.25.6 2.9-.7 8.25-2.15 9.05-13.85 14.75-12.7 6.15-26.15 2-12.3-3.75-19.1-8.7"/><path fill="#dcdbd6" d="M214.2 85.4q4.65-1.1 6.6-.05 2.2 1.15.1 4.7-7.15 12.2-20.05 35.25l6.1 4.25q5.95 4.85 5.15 8-.8 3.15-6.4 11.65l-5.45 7.9 1.1 3.8q1.35 4.6 2.85 8.45.75 1.9-4.7 7.25-5.55 5.4-8.05 5.1-5.6-.65-14.9 2.55-13.1 4.55-17.05 14.25-1.55 3.85-6.3 4.1l-10.5-.7q-6.2-.35-17.15 7.7-11.15 8.2-12.3 14.55-.3 1.65-9.6 3.95l-9.3 1.95q-6.35-2.1-10.95-2.55-2.85-.25-5.2-3.6-2.25-3.95-3.3-5.25-1.75-2.1-2.15-8.4-.45-7.1 1.4-14.25 2.4-9.15 4.85-25.05 2.9-18.95 1.35-22.7-1.95-4.95-.2-14.85 2.05-11.75 8.5-17.7-1.85-8.95-2.85-18.35-1.4-13.3.8-15.5 2.9-2.9 11.75 1.85 14.6 7.8 19.1 9.3 23.4-7.35 42.65-.85 9.6 3.25 14.55 8l15.6-6.4q17-6.7 23.95-8.35"/><path fill="#b4b4b0" d="M99.35 229.05l.95-1 .4.75-1.35.25"/><path fill="#b4b4b0" d="M217.6 88.7q4-2.05 4.2-.8.05.55-.9 2.15-7.15 12.2-20.05 35.25l6.1 4.25q5.95 4.85 5.15 8-.8 3.15-6.4 11.65l-5.45 7.9 1.1 3.8q1.35 4.6 2.85 8.45.75 1.9-4.7 7.25-5.55 5.4-8.05 5.1-5.6-.65-14.9 2.55-13.1 4.55-17.05 14.25-1.55 3.85-6.3 4.1l-10.5-.7q-6.2-.35-17.15 7.7-11.15 8.2-12.3 14.55-.3 1.95-12.55 4.65l-.9-.5-.45.75-5 1q-6.35-2.1-10.95-2.55-2.6-.2-4.75-2.95l-3-4.85q-.65-3.6 4.55-3l8.45 1.6q1.3.1 3.05 1.2l3 1.9q3.5 2 5.65-1.1 6.65-9.55 23.5-26.7 2.75-2.8 14.7-1.35l8.2.8q3.95 0 5.1-1.5 2-2.6 10.65-7.85 9.7-5.85 10.8-6.8 1.7-1.5 11.6-2.4 9.8-.95 12.35-3.3 2.9-2.65 1.3-8.95l-1.45-4.9q-.75-2.7-.65-4.1 1.05-12.75-6.95-22.35l-5.45-5.75q-2.45-2.5-2.2-3.8.55-3 15.8-16.7 14.9-13.35 19.95-15.95M92.8 95.5q-4-8.95-5.3-14.4-.7-3 9.25 2.15 15.2 7.9 20.7 9.75 2.45-.8-.55.7l-5.75 2.9q-10.05 6.1-12.2 7.75-1.65 1.35-6.15-8.85"/><path fill="#fff" d="M245.05 184.25q1.3-2.05 4.9.35 3.55 2.35 2.45 3.75-1 1.3-3.6 2.45-2.6 1.2-3.75.75-1.1-.4-1.05-3.1.05-2.6 1.05-4.2"/><path fill="#dbdcdc" d="M244.55 185.4l7.55 1.25q.75 1.2.3 1.7-1 1.3-3.6 2.45-2.6 1.2-3.75.75-.9-.3-1-2.4-.15-1.95.5-3.75"/><path fill="#dcdbd6" d="M161.1 142.25q.55.55.6 4.45.05 3.75-.4 6.1l-.2-10.55M117.45 93l-15 8.85q1.85-1.85 6.15-4.4 4.55-2.75 8.85-4.45m80.95 41.6q-.2-2.05 1.1-5.85l1.35-3.45-2.45 9.3"/><path fill="#b4b4b0" d="M168.05 133.8l.5.95q2.05 4.45-14.5 21.45-16.15 16.55-23.8 19.25-6.85 2.4-18.95 14.85-11.6 11.9-15.05 19.15-2.95 6.2-4.7 6.5-1.5.25-1.5-3.15 0-3.45 9.35-23.35 9.8-20.8 14.05-24.05 1.25-.95 18.3-9.7 18.5-9.5 36.3-21.9"/><path fill="#fff" d="M145.75 154.9q13.35-9.25 15.4-11.55 1.1-1.2.9 8.85-.15 10.1-1.65 11.85-1.7 2.05-13.25 6.35-13 4.8-19.45 3.95-2.4-.35-3.05-2.1-.45-1.2-.4-4.75l2.75-1 3.5-1.5 15.25-10.1"/><path fill="#dbdcdc" d="M124.8 171.4l-.5-3.6q6-3.05 16.6-10.5l20.7-15.2.5 4.8q-5.4 6.15-19 14.45-9.7 5.95-18.3 10.05"/><path fill="#bf794e" d="M136.65 161.45l10.15-6.8q.65 4.55-.7 9.25-1.5 5.45-4.75 6.4-2.5.75-4.15-2.2-1.7-3.05-.55-6.65"/><path fill="#965e3a" d="M146.8 154.65q.3 1.9.15 4.3-6.2 4.35-10.6 6.55-.3-2.1.3-4.05l10.15-6.8"/><path fill="#0d131a" d="M247.85 184.55q-1.55-.55-2 .15-.6.95-.8 2.6-.25 1.6.05 2.75l.3.65q.85.35 3.85-.6 3.05-1 3.2-1.95.15-.95-1.45-2.05-1.25-.85-3.15-1.55m-3.55-.8q.85-1.4 2.7-1.25 1.8.1 4.4 1.7 2.55 1.6 3.15 2.95.3.7-.05 1.3l-.55.7q-1.1 1.35-4.35 2.6-3.35 1.25-4.85.7-.95-.4-1.35-1.6-.5-1.45-.2-3.6.25-2.2 1.1-3.5m-160.75-28.2q-.35-1 0-1.15.4-.1.9 1 1.7 5.6 2.2 9.05.85 6.15-.7 10.85-2.8 8.35-5.5 21.65-3.05 15.05-1.8 17.9 1.1 1.3 2.3 3.7 1.35 2.8.75 3.4-.7.6-2.65-2-2-2.6-2.6-5.15-.9-3.75 1.9-17.5 2.6-12.8 5.85-22.6 1.45-4.4 1-10.1-.3-3.6-1.65-9.05m136.3-66.15q.85-1.2.85-2.25l-.15-.5q-.35-.45-1.65-.55l-4.45.5q-7 1.7-21.65 7.4-10.25 4-17.65 7.25-3.75 1.65-6.1 2.05-1.95.3-1.75-.3.15-.35 2.8-1.6l2.6-1.2q-6.5-4-16.55-6.7-20-5.35-38.3.65-3 .95-8.15 3.9-4.25 2.4-6.8 4.25-1.85 1.35-2 .7-.15-.6 1.1-1.6 7.45-5.55 12.95-8-4.95-1.9-13.8-6.75l-8-4.3q-3.5-1.4-5.05.2-.55.55-.95 2.45-.45 2-.45 4.15 0 12.3 2.6 24.95.55-.5 1.15-.75l.85-.15q.35.25-.15.95l-1.95 2.25q-3.45 3.7-6.1 11.5-2.5 7.5-2.5 13.35 0 4.35.9 6.55.55 1.4.55 4.7l-2.7 19.35q-2.9 20.2-4 24.45-1.45 5.65-1.45 11.35 0 3.7.6 6.65.55 2.65 1.35 3.6l1.85 2.85q1.5 2.6 2.4 3.6 1.6 1.8 3.4 1.95 4.1.4 10.95 2.5 6.35-1.15 11.4-2.5 5.6-1.55 6.25-2.5 1.35-6.9 12.8-15.3 11.2-8.2 17.85-7.85l4.6.4q5.35.5 7.3.15 2.7-.55 3.75-3.15 4.2-10.4 17.95-15.05 9.7-3.25 15.3-2.5.6.05 2.2-.9l4.25-3.35 3.7-4.1q1.25-1.75 1.25-2.4-1.5-3.9-2.85-8.4l-1.1-3.95q-.3-1.85-.45-3.8-.3-3.85.3-4.1 1-.4 1.8 5.2 2.85-3.85 5.8-8.7 3.7-6.1 4.35-8.75l.05-.45q0-1.9-2.8-4.65-2.45-2.4-6.2-4.7l-1.4 2.65q-.85 1.75-1.25 4.45-.5 3.4-1.25 3.55-.8.15-.55-3.4.35-5.6 3.9-13.85 5.55-12.95 18.45-31.45m-44.95 9.3q7.9-3.4 17.35-7.05 15.1-5.9 21.65-7.45 6.7-1.55 8.65 1 .6.85.6 1.95 0 1.5-1.2 3.5-9.4 16.1-19.45 34.2 3.95 2.45 7.25 5.55 4.85 4.55 4.85 7.65l-.1 1q-.75 2.95-6.2 10l-6.7 8.3q.4 1.55 4.95 12.55l.15.85q0 .6-.6 1.5l-1.9 2.5q-2.15 2.75-6.15 5.45-4.4 3-6.75 2.7-4.95-.65-13.95 2.35-12.9 4.3-16.7 13.7-1.65 4.2-4.1 5l-9.45-.45-4.45-.4q-5.8-.3-16.35 7.45-10.8 7.9-11.85 13.85-.4 2.25-18.75 7.5l-2.05.3q-.65-.5-1.95-.9l-3.7-1.45q-2.45-.9-5.1-1.15-2.6-.25-4.55-2.4-.85-1-2.75-4.35l-1.65-2.5q-1.15-1.4-1.8-4.5-.7-3.2-.7-7.25 0-6.2 1.55-12 2-7.65 4.2-21.25 2.45-15.15 2.45-22.05 0-2.55-.4-3.65-1.05-2.6-1.05-7.5 0-6.9 2.05-13.45 2.45-7.9 7.1-12.45l-1.9-10.75q-1.4-9.5-1.4-15.5 0-7.55 1.65-9.15 2.4-2.45 7.2-.6l9.85 5.2q5 2.8 6.95 3.8 4.15 2.1 7.85 3.35 21.9-6.8 40.2-1.65Q168.3 93 174.9 98.7"/><path fill="#0d131a" d="M160.45 165.35q-3.8 3.45-14.55 6.7-11.5 3.45-19.15 2.75-1.45-.15-1.55-.65-.05-.5 1.6-.45 6.05.25 16.2-2.6 10.4-2.9 16.5-6.7 2.15-1.3 2.15-.7.05.55-1.2 1.65m6.35-30.25q2.4-2.1 2.55-1.25.1.7-1.1 2.35-2.25 3.3-5.6 6.5.4 1.9.35 4.95-.05 3-.55 5.25-.45 2.25-.9 2.75-.45.45-.3-1.35v-5.15l-.3-5.05q-9.5 9.15-22.2 17.3-12.3 7.9-18.9 9.35-7.05 6.1-14 16.9-7.25 11.3-13.75 26.7-.65 1.65-.5 3.65l2.15 4.2q.35.9.25 2-.1 1.2-.75 1.25-.7.1-1.5-.8-.9-.95-1.4-2.35-.8-2-.75-4.4.05-2.25.85-4.3 5.65-15.2 12.5-26.4 7.15-11.6 15-17.85 4-1.3 11.3-5.65 14.6-8.6 37.55-28.6"/><path fill="#0d131a" d="M146.2 155.15q0-.25.75-.75l.85.05.2 2.95q.05 6.1-2.2 9.95-2.15 3.6-5.2 3.6-2.25 0-3.8-1.9-1.55-1.95-1.55-5l.2-1.75.2-.9 1.6-.25-.4 3.1q0 2.55 1.15 4.05 1.05 1.4 2.55 1.4 2.1 0 3.85-3 2-3.55 2-9.2l-.2-2.35"/><path fill="#0d131a" d="M141.05 166.35q-.35 0-.6-1.1-.25-1.05-.25-2.6 0-1.5.25-2.55.25-1.1.6-1.1t.55 1.1l.25 2.55-.25 2.6q-.2 1.1-.55 1.1m-15.75.1q.45 6.2-.3 6.4-.8.2-2.3-4.9-.2-.7 1.2-1.15l1.4-.35"/></svg>