<svg xmlns="http://www.w3.org/2000/svg" width="330" height="353" viewBox="-0.6 -1.0 329.95 353.4"><path fill="#a3623c" d="M325.75 89.25q2.85 6.95-.9 11.55-2.2 2.7-10.4 7.45-7.5 4.35-11.6 5.75-5.3 1.8-11.05.55-6.55-1.45-8.55-6.25-2.85-.3-7.6 0l-7 .8-1.8-.05-1.25-.8q-10.8 13.25-15.5 48-3.8 27.95-2.2 51.55.35 4.6-2.8 6.85-2.6 1.85-5.3 1.15-4.25-1.15-14-.9-9.55.3-13.65 1.55-4.45 1.4-7.2-1.9-4.05-4.65-7.05-25.25-6.7-12.5-23.7-19.45-15.8-6.45-27.35-3.6-6.35 1.6-12.3.5-6.2-1.15-7.35-4.5l13-46.1q3.4-.4 5.45-.05-5.45-7.35-10.55-25.2-4.35-15.25-5.05-24.2-.9-11.45 2.75-22.8 3.8-11.8 11.8-21.05 18.6-21.55 51.25-21.5 26.15 0 44.5 13.7 21 15.65 24.95 45.25 2.3 1.35 5.7 4.5 3.1 2.9 4.4 4.75 3.85.05 8.9 2.9 4.1 2.3 6.15 4.55 6.3-1.55 13.65-.65 7.55.9 14.15 4.15 4.9 2.4 7.5 8.75"/><path fill="#a3623c" d="M101.75 89.75q4.5-4.35 9.15-7.8 6.3-4.8 9.85-5.45 1.85-2.8 4.65-5.75 2.65-2.75 4.65-4.05.3 7.2 3 18 3 11.8 7.05 19.9-2.5-.5-5.65.05-3.05.6-5.25 1.85-3 1.7-7.35 3.2-6.55-3-17.75-.05-11.95 3.15-16.3 10.4-2.35-4.5-5.05-12.15-.95-2.65.4-5.1 1.45-2.6 4.85-3.6 5.85-1.7 13.75-9.45m-34.85 41.6q-1.1 6.45-6.15 11.4-3.6 3.45-8.25 5.5-4.75 2.1-13.4 12.45-3.3 4-7.4 1.75-4-2.2-3.5-6.45.25-2.3 3.75-6.8 3.2-4.05 5.95-6.25 2.8-2.25 2-8.45-.3-2.55-3.05-5.15-1.65-1.5-5.5-3.95-3.45-2.2-6.35-3.7-4.25-2.25-9.45.45-5.35 2.9-9.6 1.95-3.55-.8-4.7-3.55-.95-2.3.4-4.95 1.4-2.65 3.85-3.15l6.8-1.9q4.55-1.55 7.05-2.85t6-1.3q3.15.05 5.65 1.1 1.95-2.25 5.95-2.55 4.15-.3 8.25 1.75 2.1 1 7.4 4.65 5.3 3.7 8.9 6.65-1.1 2.75.95 7.75 2 5 4.45 5.6m60.2 55.8q5.55.55 8.5 4.85 2.65 4 2.3 9.75-.3 4.45 1.55 22.65.5 4.75-1.95 8.05-2.4 3.25-7.15 4.4-4.45 1.15-15.5 1.6-10.65.45-14.6-.2-4.55-.7-5.4-6.3-.8-5.45 2.45-11.7l9.45-19.6 20.35-13.5m91.65 118.4q8.45 6.85 13 11.1 2.25 2.1 3.4 4.85 1.45 3.4.05 5.45l-27.75 14.7q-3.4 1.55-8.15-.15-4.5-1.65-7.15-5-2.3-2.9-10.55-11.25l2.1-15.35q3.15-2.95 8.8-7.45l26.25 3.1"/><path fill="#fcd13e" d="M133.45 192.2q1.6-.1 2.8 1.45 1.3 1.6 1.6 4.5.35 2.9-.7 4.95-1.05 1.95-2.75 2-1.6.05-3-2-1.35-2-1.65-4.4-.25-2.4.8-4.35 1.1-2.1 2.9-2.15m52.05 117.95q1.5.4 2.3 2.65.8 2.3.45 5.35-.35 3.25-2.4 5.4-2.15 2.25-4.6 1.55-2.45-.7-3.2-3.5-.7-2.6.25-6.15.65-2.35 2.95-4.05 2.3-1.8 4.25-1.25"/><path fill="#ddd583" d="M264.45 96.15q-1.15-2.2 1.85-1.9l10.25-.35q6.9-.7 10.95-1.8 3.85-1 5.6 1.5 1.6 2.25 1.55 7.65-.05 4.55-2.45 6.6-1.95 1.65-4.2 1.1-3.95-.95-9.55-.9-5.6.05-10.05 1.1-1.8.4-2.4-.6-.55-.85-.15-1.95.75-2.05.05-5.7-.55-3.1-1.45-4.75M77.7 127q-6.1 2.8-9.6 3.95-3.5 1.15-5.9-5.6-2.4-6.75.1-7.8l9.85-4.7 10.45-5.3q.5 1.95 2.35 6.35l2.85 6.15q-.75.7-2.35 3.15-2.05 1.25-7.75 3.8"/><path fill="#ddd583" d="M123.55 110.25q5.5-.8 10.8 1.65 4.85 2.2 7.35 6 6.65 3.5 8.65 11.5 1.65 6.8-.4 14.55-2.75 10.45-10.85 15.6-7.45 4.7-12.15 1.35l-1.05 1.75q.65 3 .05 7.25-.5 3.75-1.7 7.1 2.5 2.3 2.75 6.95.25 4.25-1.35 8.05-1.4 3.25-8.5 6.25-6.55 2.75-10.05 2.4-2.95-.3-5.2-3.2-2.1-2.65-2.5-5.85-4.2-1.35-6.7-5.8-2.2-3.85-2.05-7.6-4-1.5-6.35-9.9-2.3-8.4.4-11-4.1-2.15-4.65-8.95-.55-6.45 2.35-10.4-1.05-17.15 14.05-25.35 6.3-3.45 13.75-4.05 7.3-.6 13.35 1.7m119.95 105.3q2.2 5.7 1.35 10.7-.7 4.3-2.9 5.5 1.1 4.65.2 9.05-.85 4.05-2.85 5.5.2 4.4-1.05 8.05-1.1 3.1-2.7 4.3 1.1 10.3-3.85 13.15.1 4.45-1.5 7.85-1.45 3.05-3.65 4.05.2 3.7-.75 6.75-1.1 3.3-3.2 4.35.85 2.55-.2 5.9-1.25 3.75-4.25 5.35-3.6 1.85-10.15 2.15-6.2.25-9.85-1-2.45-.9-4.25-3.15-1.6-2.05-1.95-4.15-.25-1.9 1.05-3.95 1.25-2 3.4-3.2-1.5-2.8-.35-6.9 1.2-4.3 4.35-5.05-2.7-2.85 1.45-11.75-1.15-5.4 3.1-11.45-1.1-1.9-.3-5.8.7-3.4 2.3-6.1-1.4-1.9-.85-6.3.55-4.3 2.3-7.25-1.85-.9-1.6-4.35l.7-4.7.9-6.2q1.85.2 4.65-.7 3.8-1.2 12.2-1.35l13.75.7 2.4.4q1.2.1 2.1-.4"/><path fill="#dcdbd6" d="M216.85 334.25q2.65 3.7 3.55 8.9.8 4.55-.05 7.95-1.8-1.75-6.6-5.35-4.15-3.1-6.6-4.7-2.05-1.35-1.65-3.7.35-2.1 2.4-3.85 2.05-1.8 4.45-1.8 2.7 0 4.5 2.55"/><path fill="#dcdbd6" d="M217.55 335.35q.2-3.05 2.9-4.6 2.95-1.7 6.2.2 3.35 1.9 4.7 7.5 1.1 4.45.45 7.4-1.6-1.15-6.3-3.4-3.85-1.85-6-2.7-.9-2.75-1.95-4.4"/><path fill="#dcdbd6" d="M227.85 331.8q.75-3.85 3.95-4.9 3.1-1 5.15 1.5 1.8 2.2 3.25 6.4 1.15 3.25 1.65 6.35l-4.9-1.55q-3.5-1.3-6.1-2.65l-1.35-2.75-1.65-2.4"/><path fill="#0d131a" d="M168.3 53.25q8.35 9.4 9 16.95-4.05.8-11.7-.3-7.05-1-12.05-2.75-2.6-5.9-2.75-13.2-.15-7.5 2.45-12.1 7.15 2.5 15.05 11.4M233 55q-.3 9.1-3.45 11.95-2.5 2.2-14 3.7l-19.2.75q3.3-9.8 13.6-18.25 9.4-7.65 21.05-11.5 2.25 4.7 2 13.35"/><path fill="#fff" d="M169.2 54.25q2.3 2.85 3.65 5.1-.5 3.05-2.15 5.3-2.05 2.85-4.55 1.8-3.1-1.3-4-7.3-.95-6.35 2.35-9.85l4.7 4.95m36.2 3.25q1.75-1.75 5.25-4.45 3.7-2.9 7.1-5.05 2.15 7.2.75 13.4-1.55 6.85-6.6 7.2-3.1.2-4.85-3.65-1.4-3.05-1.65-7.45"/><path fill="#804b2b" d="M197.55 188.1q-10.15-13.15-26.15-19.15-13.65-5.15-23.65-3-17 3.65-21.05-4l.7-.75q4.6 3 12.2-2.35 8.4-5.95 11.25-17.35 11.45 3.2 21.55 12 8.8 7.7 13.3 16.5 3.8 2.35 7.1 7.7 2.9 4.65 4.75 10.4m48.4-68.45l4.75-.85q1.65.05 2.95-1.1 1.35-1.2 1.45-2.8l4.2-2 4-2.65q-9.8 22.85-13.4 48.05-3.1 21.3-2.15 47.75.2 5.15-2.2 7.9-2.4 2.75-6.2 1.7l-13.9-.7q-9.15.35-14.1 1.45-3.1.7-4.55.05-1.1-.5-2.5-2.7-1.3-2-2.4-4.8-1.75-4.3-2.15-8.75 2.25 7.35 4.5 9.75 2.05 2.15 5.55 1.5 6.05-1.15 13.95-1.55 8.65-.5 13.4.3 2.1.35 3.2-.65 1.1-1.05.85-3.45-1.25-11.75 0-39.15 1.35-30.3 4.75-47.3m18.7-59.85q-1.6-1.2-4.3-2.45l-4-1.75q-.7-9.3-8.65-23.85-8.65-15.8-18.55-23.35 4.8 1.5 10.7 5.8 6.4 4.7 11.7 11.15 13.35 16.15 13.1 34.45m-10.1 23.25q2-2.25 4.9-2.8l13.4.5q8.65 1.65 13 5.3-1.85 1.05-3.1 3-1.45 2.2-1.3 4.5l-8.3.6q-5 .2-6.75-.05l-1.45.1q-.95.2-1.2.55-2.7-.2-6.7-2.6-3.5-2.2-4.75-3.85.15-2.95 2.25-5.25m67-.15q4.55 4 5.15 10.3.55 6.3-3.3 9.05l-9.5 6.05q-6.85 4.1-10.2 5.35-6.35 2.35-12.1 1-5.95-1.45-8.2-6.3l4.7.45q2.4.55 4.3-1.4 1.95-1.95 2.1-5.3 5.7.85 14.7-1.7 8.75-2.4 11.25-5.15 2.45-2.6 2.7-5.9.2-3.15-1.6-6.45M132.6 83q.35 3.2 2.95 10.65 2.45 6.9 4.45 10.95-2.3-.55-5.7.1-3.15.6-4.85 1.7-1.35.95-3.4 1.75l-4.25 1.55q-9.2-2.7-19.05.25-9.7 2.9-15 9.7-1.2-1.6-3.2-7.1 6.2-2.25 15.9-7.8 9.8-5.6 13.15-8.9 3.5-3.45 8.9-7.15 5.65-3.9 10.1-5.7"/><path fill="#b4ae6c" d="M286.95 108.7l-8.2-.65q-6.2-.1-10.15 1.1l-2.35-.2q-.85-.65-.45-2.05.75-2.5.45-4.9l13.5-1.05 14.85-.6q.55 9.55-7.65 8.35"/><path fill="#804b2b" d="M221.75 98.9h-.7q-.45 1.3-1.8 2.5-1.3 1.2-2.85 1.85 1.75 4.15 1.05 6.95-.7 2.7-3.8 4.4-2.45 1.35-5.05-.2-2.55-1.55-2.65-4.25 1.25 1.4 3.4 1.4 1.95 0 3.55-1.05 1.1-.7.95-3.35-.1-2.75-1.45-5.1-.25-.4 0-.9.25-.55.8-.6 1-.15 3.25-1.55l2.75-2.15q2.5 1 6.2.55 3.45-.4 6.15-1.85l2.6-.2q1.4.4 1.7 1.45 1 2.3.5 6.85-.4 3.95-1.6 7.35-.65 1.85 1.3 3.35 1.8 1.4 3.4.85l7.1-1q6.05-.15 8.3-1.45.7 3-.95 4.7-1.3 1.25-3.2 1.35l-2.9.2-3.05.6q-3.1 1.05-7.35 1.3l-10.15 7.85q-4.6 3.65-9.3-3.15 5.2-1.75 7.85-7.05 2.35-4.65 1.55-8.8-.4-2.2-1.65-5-1.7-3.6-3.95-5.85"/><path fill="#804b2b" d="M252.5 109.5q2.5-.25 7.05-2.4 4.8-2.25 6.45-4.2.3 3.8-.5 5.25-6.45 5.4-10.5 6.3-.25-3.05-2.5-4.95m-2.65-8.05q-.7 2.8-3.15 4.15l-.35-2.25q2.4-.75 3.5-1.9m-42.2 240.05q-2 1.75-6.9.45-4.75-1.3-7.15-3.95l-12.05-12.75q1.7.15 3.35-1 1.65-1.1 2.45-2.95 2 2.9 5.75 6.75l5.3 5.1q1.75 1.5 3.75 1.95l4.05.15q-.8 1.3-.4 3.3.4 2.1 1.85 2.95M195 305.55l-3.95 3.2q-2.05 1.9-3.35 3.5-.45-.95-1.6-1.65-1.25-.75-2.45-.5 1.85-1.8 4.6-4.05l4.6-3.45q.85 1.75 2.15 2.95M32.5 123.2q5.25 4.3 6.7 7.35l-7.75-5.15q-4.7-3-6.75-4-2.3-1.05-4.6-.95-2.65.1-4.95 1.75-4.7 3.3-9.8 1.6-5.5-1.8-3.55-8 .8 2.7 4.6 3.6 3.75.85 6.4-.75 3.05-1.8 6.25-2.1 3.35-.3 5.85 1.25 3.7 2.2 7.6 5.4m1.1-17.35q1.25 1.65 4.6 4.75 3.45 3.2 5.95 5-2.7-1.15-7.15-3.9-4-2.5-6.1-4.15 1.1-1.1 2.7-1.7m18.95 42.3q-2.55.95-7 5.35-3.6 3.55-6.05 6.75-1.9 2.5-4.7 2.75-2.75.25-4.7-1.85-2.1-2.2-1.95-4.8.2-2.9 3.25-6.6-.7 3.45 2.45 4.65 3.1 1.15 5.55-1.2 5.65-5.4 12.05-8.45 4-1.85 7.55-4.95 5.3-4.55 5.85-9.3.95.75 1.75.8.1 4.5-4.6 9.85-4.45 5.05-9.45 7"/><path fill="#804b2b" d="M15 122.4q3.2-2.3 6.35-2 3.6.4 8.65 4.25-1.3.35-3 1.8-1.65 1.4-2.55 2.8-1.2 1.9-2.85 3-2.3 1.55-4.6.9-2.5-.7-3-4.2-.45-3.3 1-6.55m109.9 70.8q1.95-2.05 2.1-5.65 4.4-.15 8.95 5.4-2.55-2.05-4.55 0-2 2.1-1.4 6.6.65 5.1 3.9 5.55 3.15.4 4-3.9-.45 3.9 1.35 21.4.45 4.65-1.05 8.3-1.65 4-5.3 5.4-4.1 1.55-15.55 2.25-11.95.75-17.35-.45-5-1.15-5.1-7.7-.1-5.3 2.25-9.65-.55 4.25.65 7.2 1.25 3.15 3.95 3.6l12.1.5 10.75-.5q2.95-.5 4.9-1.8 2.7-1.7 2.8-4.5.35-7.55-2.2-18.85-2.6-11.4-5.2-13.2"/><path fill="#b4ae6c" d="M62.5 126.15q4.65-1.6 12.55-5.4 7.85-3.75 10.45-5.6l2.25 4.5q-1.75 2.1-2.15 3.65-5.15 2.55-10.1 4.75-7.4 3.3-8.9 3.25-1-.05-2.25-1.75-1-1.4-1.85-3.4m181.05 89.5q1.05 2.65 1.1 3.7-1.1.95-3.5 1.15l-5.1-.5q-3.55-1-10-.7-6.2.3-9.4 1.45l-4.15 1.05q-2.75.35-4.7-.05l.2-2.2.2-2.45q1.45.35 4.95-.85 2.85-1 12.3-1.35l12.05.4 6.05.35m-36.45 20.1l1.3-3.5 2.45.4 2.6-.15 9.8-.8q6.9-.3 11.4-.15l3.95.3 3.45-.15q.6 2.95.35 3.05-2.4 1-6.1.8-2.75-.15-11.2.1l-11.85.7q-3.9.6-6.15-.6m-.15 10.1q.55.4 2.1.55l2.8-.15 10.95-.55 12.05.5 4.55.35q.2 1.9-.3 3.2l-2.95.35-3.05-.3q-1.7-.45-10.5-.15l-12.8.8q-2.3.35-4.55-1 .35-2.15 1.7-3.6m-3.25 26q-3-1-1.95-6.7 1-5.25 3.3-7.6 4 2.9 15.1 3.3 11.2.35 15.5-2.45l.3 4.1q-4.1 1.7-13.4 2.25l-13.45-.65q-3.25-.95-4.8 1.5-1.5 2.3-.6 6.25"/><path fill="#b4ae6c" d="M201.85 269.9q1.1 3.6 13.5 3.85 11.85.2 16.35-2.25l-.15 2.9q-2.55 1.7-10.75 2.7-8.35 1.05-12.4-.1-4.2-1.2-5.7.75-1.45 1.9.5 4.8-2.65-1.2-3.4-2.65-.75-1.5-.15-5 .65-3.7 2.2-5"/><path fill="#b4ae6c" d="M201.95 295.35q-2.35-.45-4-1.3-2-1.05-2.1-2.4-.4-4.2.85-7.15 1.35-3.1 4-3.7 4.45 3.7 13.6 4.2 7.9.4 12.25-1.45.25 1.75-.05 3.35-4.55 1.75-11.15 2.1-7.1.35-10.8-1.35-3.6-1.65-4.8 1.55-1.25 3.2 2.2 6.15"/><path fill="#b4ae6c" d="M222.65 294.85q.55 1.1.55 3.4-3.5 2.15-11.7 2.45-7.8.3-11.35-1.15-3.2-1.35-4.1 1.45-1 2.85 2.35 6.1-6.15-2.15-6.15-7.55-.05-5 3.95-6.7 3.25 3.05 11.85 3.8 8.9.8 14.6-1.8m-77.15-156.5q1.85-1.1 3.35-3.7 1.6-2.9 1.5-5.8 3.7 14.85-6.25 26.15-4.05 4.6-8.75 6.35-4.75 1.8-7.95-.15-.35-.65-.15-1.8.2-1 .65-1.65 6.45-.45 11.75-7.35 4.25-5.55 5.85-12.05"/><path fill="#b4ae6c" d="M145.4 128.5q1.6 7.85-2.7 17.15-4.8 10.35-13.2 11.65 3.35-2.25 5.7-8.85 1.95-5.4 2.25-10 2.95-1.8 5.05-4.35 2.15-2.7 2.9-5.6"/><path fill="#b4ae6c" d="M135.75 126.6q3.1 9.65.8 19.35-2.4 9.85-8.65 11.8 2.2-5-.2-12.65-2.2-7-6.35-11.15 3.25.5 8.35-2.05 5.15-2.55 6.05-5.3"/><path fill="#b4ae6c" d="M119.6 153.45q-5.1-2.4-12.4-3.1 6.35-.8 11.8-4.7 5.4-3.9 5.05-7.45 4.35 5.3 4.75 12.45.35 5.95-1.75 9.05-2.4-3.85-7.45-6.25"/><path fill="#b4ae6c" d="M83.85 166.6q1.8 3.3 5.35 4.75 3.35 1.35 7.2.7 6-1.1 16.35-5.55 10.95-4.75 13.7-7.9.7.65.85 1.45.1.9-.65 1.55-8.1 7.1-20.75 12.55-11.9 5.2-15.5 4-1.9-.65-4-5.1-1.4-2.85-2.55-6.45"/><path fill="#b4ae6c" d="M91.05 178.15q8.05-.4 19.05-5.9 9.5-4.75 15.85-10.3.7 4.2-.1 9.15-.65 4-1.9 6.9-1.95 4.5-10.3 9.25-8.3 4.65-12.9 3.95-4.6-.1-7.4-4.4-2.6-3.9-2.3-8.65"/><path fill="#b4ae6c" d="M99.7 191.5q6 .25 14.6-4.9 8.55-5.15 9.9-9.85 2.3 2.7 2.6 7.45.3 4.35-1.15 7.7-1.5 3.4-8.75 6.45-6.8 2.85-10.1 2.25-2.8-.45-5-3.55-2-2.85-2.1-5.55"/><path fill="#d9b536" d="M134.85 196.75q2.05 1.75 2.9 4.35 0 1.45-.85 2.6-1.05 1.45-2.7 1.4-2.1 0-3.45-3.3-1.45-3.4-.3-6.45 2.25-.45 4.4 1.4m42.7 122.7q1.65 2.95 5.6.6 4-2.35 4.7-7.15 1.1 4.05-.5 7.95-1.5 3.7-4.05 4.15-2.45.4-4.05-1.15-1.65-1.55-1.7-4.4"/><path fill="#b4b4b0" d="M208.05 333.45q3.4 2.4 7.4 8.15 4 5.8 4.7 9.3-9.55-7.55-12.5-9.4-2-1.3-2.1-4-.15-2.95 2.5-4.05m10.9-1.75q3.05 1.75 7.05 6 4.1 4.35 5.85 7.9-9.45-4.85-12.2-5.85l-2.1-4.25q.25-2.6 1.4-3.8m10.25-3.2q2.15 1.35 6.85 6.2l6 6.55-5.7-1.9q-4.15-1.5-5.4-2.2-1.4-3.6-3.3-5.2.4-1.9 1.55-3.45"/><path fill="#dbdcdc" d="M169.25 54.25q2.85 3.55 3.75 5.25l-.95 2.55q-1.3-2.25-4.3-5.35-2.45-2.5-4.8-4.4.65-2.05 1.85-2.9 1.5 1.15 4.45 4.85m36.35 6.3l-.4-2.75q1.7-1.9 5.85-5.25 4.1-3.35 6.6-4.85.8 1.95 1 3.3l-7.15 4.85-5.9 4.7"/><path fill="#0d131a" d="M263.5 59.3q-.65-21.35-16.85-37.3-18-17.7-47.05-19.35-18.9-1.05-34.4 6.15-15.5 7.25-24.4 21.3-10.6 16.8-8.95 38.95 1.65 22.1 15.3 47.25l-2.4-.3q-13.9-25.65-15.5-47.85-1.6-22.4 9.5-39.6 9.65-14.95 24.95-22.2Q179.3-1 199.75.15q31.25 1.75 49.75 21 16.4 17 16.75 39.75l-2.75-1.6"/><path fill="#0d131a" d="M274.1 69.55q-2.45-3.45-7.7-7.4-5.4-4.05-10-5.75-1.35-.5-1.2-1l1.55-.15q5 1.25 11.65 6.15 6.2 4.6 8.35 8.05l-2.65.1"/><path fill="#0d131a" d="M281.45 70.05q5.8 2.05 9.15 5.8 5.8-1.7 15.2-.2 8.75 1.45 13.15 4.15 6.7 4.15 8.5 11.4 1.9 7.6-3.65 11.9-4.3 3.3-11.1 7.25-8.05 4.55-11.9 5.25-6.7 1.15-10.9-.15-5.4-1.6-7.65-7.2l2.4.25q1.8 3.55 5.7 4.75 3.85 1.15 10.2.25 3.45-.45 11.05-4.9 6.4-3.7 11-7.25 4.4-3.4 2.75-9.9-1.65-6.35-7.35-9.9-4.9-3-13.2-4.2-8.6-1.2-14.2.6-.65.2-1.1-.3-2.95-3.55-8.4-5.75-5.7-2.35-10.2-1.4-1.1.25-1.25-.25-.15-.5.95-.9 4.6-1.5 10.85.7"/><path fill="#0d131a" d="M280.15 93.55q.35-6.65 6.6-8.9 3.2-1.1 7.7-2l7.8-.95q1.3-.05 1.35.5.05.5-1.25.7-8.35 1.2-14.95 3.65-2.2.8-3.5 2.5-1.35 1.75-1.4 4.15l-2.35.35"/><path fill="#0d131a" d="M265.05 95.6q1.15 2.2 1.7 5.95.55 3.85-.15 5.4-.4.8.1 1.3l1.55.2q2.8-.75 8.9-.95l10.55.5q6.35 1.2 6-8.7-.15-3.5-1.65-5.35-1.55-1.85-3.9-1.1-4.5 1.45-12 2-6.35.45-9.9.1l-1 .15q-.35.2-.2.5m10.45-2.25q7.25-.6 12.3-2.2 2.9-.95 5.15 1.05 2.55 2.2 2.75 7.05.2 5.3-1.95 8.2-2.25 3-6.35 2.25l-10.45-.75q-5.5.1-8.75.95-2 .5-2.95-.55-1-1.05-.2-2.8.6-1.25.1-4.85-.55-3.55-1.6-5.6-.7-1.3-.1-2.05.7-.75 2.6-.55 3.5.35 9.45-.15"/><path fill="#0d131a" d="M270 94.45q2.35 2.45 3.05 7 .75 4.6-1 7l-1.5.15q1.85-2.4 1.05-7.25-.8-4.75-3.2-6.85l1.6-.05m6.75-.4q2.5 2.4 3.15 6.75.65 4.55-1.45 7.35l-1.3-.15q2-2.75 1.25-7.4-.75-4.4-3.1-6.35l1.45-.2m7.25-1.1q3.45 2.65 3.95 7.65t-2.5 7.9l-1.55-.15q2.75-2.3 2.6-7.05-.15-5.1-3.85-7.9l1.35-.45m-27.35-18.2q1.05-1.5 3.15-2.4 2-.85 4.25-.8 1.3.05 1.35.55.05.45-1.25.65-3.8.6-6.7 2.85-.75.6-1.05.25-.35-.3.25-1.1m1.95 13.6q.8 1.85 1.55 2.25 1 .55.8 1-.15.45-1.1.15-1.3-.4-2.5-2.35-.9-1.65-1.7-2.15-.9-.55-.65-.95l1.25-.1q1.7.6 2.35 2.15"/><path fill="#0d131a" d="M264.1 96.05q-6.6-1.6-11.1-5.65-4.8-4.35-10.2-6.45-5.35-2.1-9.2-1.2-4.2 1-11.15 3.35-7.15 2.4-8.9 3.45-2.7 1.75-4.2 3.9l-4.7 4.75q-2.85 2.6-.2 6.8 1.1 1.75 2.8 6.65.55 1.7 2.9 2.15 2.4.4 4.4-.95 4.4-2.95.6-9.85-.55-1-.2-1.3.3-.3 1.1.5 2.85 3.05 2.95 6.35.05 3.55-3.2 5.95-2.85 2.1-6.05 1.4-3.25-.65-4.25-3.6-1.65-4.7-2.8-6.5-1.25-2-1.35-4.35-.1-3 2-4.65 2.7-2.15 4.35-4.4 1.6-2.2 5.1-4.35 1.9-1.2 9.3-3.7 7.05-2.4 11.15-3.35 4.15-.95 9.95 1.3 5.8 2.25 10.9 6.8 4 3.6 10.45 5.2l-.45 1.75"/><path fill="#0d131a" d="M222.15 97.75q-.35 2.1-1.95 3.95-1.65 1.85-3.6 2.35l-1.05-1.6q1.5-.2 3-1.65 1.55-1.55 1.85-3.3l1.75.25"/><path fill="#0d131a" d="M219.65 97.8q-1.2-.55-1.05-1l1.45-.15q4.8 1.15 10.8-1.35l1.35-.1q.2.45-.85 1.15-2.3 1.65-5.9 2.05-3.5.45-5.8-.6"/><path fill="#0d131a" d="M240.35 120.65q-1.95.65-6.05 3.6-3.4 2.45-6.8 5.35-2.95 2.55-6.3 1-2.1-1-3.65-3.6-1.5-2.55-1.45-4.9.15-3.3 8.45-10l1.45-1.6q.3-.75-.1-2.4-.5-2.25-1.75-4.4-1.45-2.65-3.6-4.35l1.05-1.7q2.3 1.9 4.1 5.05 1.6 2.7 2.15 5.1.55 2.25.1 3.35l-2.05 2.2q-7.65 6.2-7.8 8.75-.05 1.95 1.05 3.9 1.15 1.95 2.95 2.75 2.25 1.1 4.35-.75 6.2-5.3 10.65-7.55l3.25.2"/><path fill="#0d131a" d="M236.6 96.85q1.55 3.35-1.4 8.2-1.05 1.7-2 3.9-.9 2.1-1 3-.15 1.05 0 2 .15.9.5 1.15 2.7 2.15 3.3 3.75.4 1 2.15.95 4.6-.25 7.05-1.1 2.35-.85 5.6-.85 2.55 0 3.15-2.45.6-2.45-1.5-4.35-2.55-2.3-6.05-1.95l.2-1.85q1.95-.15 3.9.45 2 .6 3.25 1.8 3 2.7 2.2 6.35-.85 3.8-5.15 3.85-2.75 0-4.95.65l-3.9.9-3.8.35q-3.1 0-3.85-2-.55-1.55-2.8-3.05-1.5-1-1-4.8.1-1.1 1.1-3.4 1-2.35 2.1-4.2l1.75-3.55q.45-1.65.05-3.25-.25-1.05.2-1.25.45-.2.9.75"/><path fill="#0d131a" d="M245.6 109.05q.45-1.4.25-3.8-.15-2.25-.8-4.3-.35-1.1.15-1.25.5-.2 1 .85 1.05 2.1 1.2 4.7.2 2.75-.75 4.4-.5.9-.95.7-.45-.25-.1-1.3"/><path fill="#0d131a" d="M246.1 102.55q1.55-.25 2.85-1.2.9-.6 1.25-.25.3.35-.4 1.15-1.55 1.65-3.35 1.95l-.35-1.65M178.45 70.2q.2.8-.75.95-3.95.55-10.5-.1-7.1-.75-12.35-2.55l-1.65-1q-.55-.65-1.15-2.3-1.95-5.2-2-11.8-.1-7.25 2.3-11.2l-1.75-.75q-1.1-.35-.9-.9.15-.55 1.25-.25 9.4 2.65 17.6 11.65 8.05 8.9 9.9 18.25m-13.1-1.1l11.1.4q-1.6-7.45-8.25-15.15-6.55-7.65-14.6-11.6-2.3 4.05-1.9 11.9.3 7.2 2.4 12.05 4.85 1.55 11.25 2.4m66.45-27.3q2.7 6.05 2.05 14.5-.65 8.25-3.55 11.25-2.35 2.5-16.2 4.15l-18.05.6q-.6-.1-.75-.35-.15-.25.05-.75 3.35-9.9 13.8-18.45 10.2-8.35 23.35-12.45 1.5-.45 1.7.15.15.55-1.35 1l-1.05.35m.15 13.85q.6-8.3-1.5-13.35-10.3 3.8-19.15 11.15-9.85 8.15-13.85 17.3 5.8.75 17.85-1.05 11.85-1.75 13.6-3.45 2.4-2.35 3.05-10.6"/><path fill="#0d131a" d="M167.3 67.4q-4.15.25-5.7-6.75-1.6-7.2 2.5-11.6l.9.85q-3.35 3.7-2 10.05 1.25 6.05 4.25 5.85 2.15-.15 3.55-2.45 1.35-2.15 1.45-5l1 1.75q-.35 2.85-1.75 4.85-1.65 2.3-4.2 2.45m50.85-19.55q2.85 7.4.95 14.3-1.95 7.15-7.5 7.25-2.75.1-4.6-2.85-1.8-2.95-2.2-7.85l1.15-1.1q.35 4.6 2 7.4 1.6 2.75 3.75 2.75 4.35 0 6-6.3 1.65-6.15-.55-12.95l1-.65"/><path fill="#0d131a" d="M212 54.8q.7 0 .8 1.35l-.2 1.05-.5.45-.5-.45-.25-1.05q-.1-1.35.65-1.35m-43.95 3.6q-.65 0-.75-1.4 0-1.3.65-1.4.65-.1.75 1.45l-.15.95-.5.4m-47.9 17.3q4.4-6.65 10.4-10.85l.05 2.75q-3.05 2.25-5 4.2-2.15 2.2-3.8 4.85-3.15 5-8 8.2-1.1.75-1.5.35-.35-.4.75-1.3 3.8-3.1 7.1-8.2"/><path fill="#0d131a" d="M95.8 96.2q-3.85 2.65-6.45 3.4-3.3.95-4.9 3.25-1.75 2.55-.6 5.9 1.95 5.45 4.55 10.45l-1.25 1.5q-3.25-6.3-5-11.4-1.5-4.15.5-7.25 1.85-2.95 6.1-4.15 2.4-.7 6-3.15 3.6-2.5 5.85-5 3.8-4.15 10.4-9 7.2-5.25 10.15-5.45l-1.1 2.3q-3 .8-9.05 5.4-5.65 4.3-8.95 7.95-2.4 2.65-6.25 5.25"/><path fill="#0d131a" d="M97.15 98.5q-1.7 2.05-3.05 4.9-.45 1-.95.8-.5-.25-.15-1.35.8-2.6 3.15-5.05.9-.95 1.35-.6.45.3-.35 1.3m41.8 3.45q-3.25 1.25-7.85 1.5t-7.7-.65q-1.1-.3-.95-.8.1-.55 1.25-.35 3.65.5 7.6.1 3.8-.45 6.9-1.65l.75 1.85"/><path fill="#0d131a" d="M122.4 110.3l-2.95-1.35q3-.1 9.45-3.4 4.85-2.6 10.65-2.2l.75 2.1-6.15.25q-2.45.5-4.35 1.55-3.8 2.15-7.4 3.05m-44.8 15.85l8.65-4.25-.85 2.1q-10.9 5.75-17.75 8.05-3.4 1.1-6.3-6.35-2.9-7.45.35-8.85 15.15-6.65 20.85-10l.35 1.45-10.65 5.55-9.85 4.55q-1.75.75.6 6.7t4.15 5.3q4.7-1.65 10.45-4.25"/><path fill="#0d131a" d="M72.65 129.15Q70 127.5 68.15 123q-1.85-4.35-1.4-7.35l1.3-.55q-.6 2.6 1.35 7.25 2 4.75 4.45 6.2l-1.2.6m5.85-2.65q-2.85-1.45-4.65-6.15-1.7-4.4-1.05-7.55l1.35-.7q-.9 2.35.9 7.25 1.9 5.15 4.65 6.55l-1.2.6m2.2-9.45q1.85 4.85 4.2 6.4l-1.2.6q-2.45-1.7-4.25-6.35-1.85-4.7-1.2-7.6l1.3-.65q-.65 2.8 1.15 7.6m-35.95-9.55q-3.45-1.75-6.85-1.7-3.95 0-6.15 2.45l-1.8-1.05q2.7-2.95 7.2-3.2 4.1-.2 8.25 1.85 2.3 1.1 8.3 5.25 5.75 4 8.6 6.4l-1.1 1.4q-2.85-2.35-8.4-6.25-5.85-4.1-8.05-5.15"/><path fill="#0d131a" d="M67.55 131.15q.25 4.85-3.9 9.9-4.2 5.1-10.85 8-2.6 1.15-6.4 5-2.35 2.3-6.75 7.5-3.1 3.7-7.5 2.15-4.45-1.6-4.8-6.95-.15-2.7 3.2-7.35 3-4.05 6.55-6.95 1.75-1.4 2.05-3.75l-.2-4.45q-.2-1.3-.6-2-.4-.75-1.55-1.75-1.85-1.65-5.9-4.3-4.2-2.8-6.85-4.1-3.95-1.95-8 .75-4 2.6-8.6 2.35-4.65-.3-6.45-3.25-1.6-2.7-.65-5.8 1-3.2 4.2-4.3l7.8-2.6 7.25-2.65q3.15-1.45 7-1.05 3.9.4 6.4 2.45l5.55 3.9 5.45 3.15q1.15.55.85 1.05-.3.55-1.45 0-2.55-1.2-5.8-3.1-3.75-2.15-5.6-3.65-2.2-1.8-5.6-2.05-3.3-.25-6.2 1.1l-15.05 5.2q-2.1.75-2.85 3.05-.7 2.25.45 4.2 1.5 2.45 5.15 2.65 3.75.2 7.25-2.15 2.8-1.8 5.75-1.8 2.05 0 3.85.85 2.85 1.4 7.1 4.2l6.15 4.45q2.4 2.2 2.75 4.95.45 3.45.25 4.95-.2 1.7-.7 2.65l-1.9 2.1q-3.55 2.9-6.35 6.7-2.95 4-2.8 6.2.25 3.85 3.45 5.15 3.25 1.3 5.7-1.6Q47.3 149.6 52 147.5q5.85-2.6 9.95-7.45 4.1-4.95 3.85-9.15l1.75.25"/><path fill="#0d131a" d="M16.8 121.75q-1.9 2.4-2.05 5.5-.15 2.9 1.25 4.3 1.45 1.4 3.65.85 2.25-.6 3.7-2.9 1.05-1.75 2.65-3.25 1.6-1.45 3.25-2.25l1.7 1.2q-1.7.7-3.35 2.1-1.7 1.45-2.85 3.3-1.85 3.05-5.1 3.75-3.1.65-5-1.25-1.55-1.5-1.8-4.45-.25-3.15 1.25-5.75l2.7-1.15m249.25-13.2q-1.65 1.95-5.05 4.15-3.55 2.35-6.25 3.15l.05-1.9q2.75-.9 6.2-3.25 3.4-2.3 4.65-4.05l.4 1.9m-127 6.55q3.75-.7 8.5.65 4.9 1.35 7.95 4.1.9.75.5 1.2-.35.4-1.25-.25-3.05-2.25-7.05-3.3-3.75-1.05-6.95-.6l-1.7-1.8m-1.4 29.35q-1.95 8.5-7.5 13.2l-2.55.05q5.5-3.65 7.75-11.7 2.1-7.65.45-16-1.65-8.65-6.7-14.2-5.6-6.15-13.8-6.35-15.3-.35-24.2 8.05-8.05 7.65-7.85 19.05l-1.45 2.5q-1.5-13.75 7.8-22.7 9.45-9.15 25.75-8.75 8.65.25 14.65 6.25 5.45 5.45 7.55 14.15 1.95 8.4.1 16.45"/><path fill="#0d131a" d="M80.6 139.75q2.55-5.85 8.55-9.15 6.95-3.85 17.35-3.5 14.25.5 20.75 13.85 2.6 5.35 2.65 10.8.1 5.4-2.4 8.35l-1-1.65q1.85-2.65 1.45-7.45-.4-4.9-2.95-9.65-6.3-11.9-18.55-12.3-18.7-.55-24.1 11.35-2.1 4.65-1.15 9.5.9 4.7 4.05 7.05l-.95 1.35q-3.75-2.65-4.85-7.95-1.15-5.4 1.15-10.6"/><path fill="#0d131a" d="M87.4 173.15q2.1 4.1 3.65 4.15 6.05.25 18.05-5.7 10.85-5.3 15.9-9.9l1.25-1.55q.15-.55-.55-1.3-5.95-6.65-18.25-7.5-11-.7-17.35 2.95-3.8 2.2-4.95 4.3-1.15 2.05-.6 5.7.65 4.65 2.85 8.85m-4.05-15.3q1.45-2.75 5.9-5.2 7.2-3.95 18.75-2.95 12.8 1.1 19.1 8.15 2.05 2.3-.95 5.1-6.75 6.1-18.45 11.35-11.25 5-16.8 4.85-2.35-.05-5-5-2.55-4.7-3.25-9.6-.6-4.15.7-6.7"/><path fill="#0d131a" d="M146.8 134q-.45 9-5.5 16-5.45 7.55-13.65 8.9l.5-1.75q6.15-.95 11.2-8.05 5.1-7.1 5.5-15.25.55-10.3-5.2-16.85-5.85-6.7-15.3-5.95l-2.1-1.35q11.15-1.8 18.25 5.45 6.95 7.1 6.3 18.85"/><path fill="#0d131a" d="M151.75 131.8q1.8 11.15-4.75 20.85-5 7.4-11.65 9.65-5.9 2-9-.95l1-1.25q2.6 2.5 8.05.15 5.8-2.55 10-8.75 5.55-8.15 4.6-18.1-.95-10.1-7.95-14.65l-1.2-2.25q9.05 4.1 10.9 15.3m-30.9 48.7q2.3-2.35 3.6-7.9 1.25-5.55.45-9.75l1.5-.85q1.2 4.6 0 10.7-1.3 6.3-4.3 9.3-4.45 4.45-11.6 7.75-7.2 3.3-11 2.6-4.4-.8-7.3-5.35-2.6-4.1-2.55-8.8h1.7q-.1 4.15 2.25 7.75 2.5 3.8 6.3 4.5 3.7.75 11-3.1 6.55-3.4 9.95-6.85"/><path fill="#0d131a" d="M100.5 191.5q-.35 2.2 1.85 4.95t4.65 3.2q3.85.75 10.5-2.4 6.8-3.2 7.8-6.6 1.05-3.5.6-7.75-.45-4.45-2.2-5.2l.7-1.45q2.45 1.1 3.2 6.35.7 4.85-.5 8.5-1.35 4.3-9.15 7.9-7.25 3.35-11.4 2.6-3.15-.6-5.7-4.1-2.45-3.4-2-6.2l1.65.2"/><path fill="#0d131a" d="M126.75 186.7q4.75-.45 8.6 3.95 3.9 4.5 3.4 10.45-.25 3 .3 10.5.4 5.95.9 10.3.85 7.45-1.45 11.1-2.35 3.75-9.1 5.2l-15.9 1.35q-12.6.4-15.35-.85-4.1-1.9-4.6-7.55-.55-5.9 3.2-12.1 2.35-4 9.25-18.75l1.65.45q-7.15 15.65-9.2 19.25-2.85 5.1-2.7 10.15.2 5.1 3.3 6.55l15 .6 15.1-1q5.35-1.1 7.45-4.55 2.1-3.4 1.4-9.75-.45-3.9-.8-10.4-.35-7.45-.1-10.6.45-5.25-3.1-9.15-3.35-3.7-7.25-3.3v-1.85"/><path fill="#0d131a" d="M133.55 192.95q-1.5.05-2.3 1.55-.75 1.5-.6 4.05.1 2.25 1.2 4.05 1.15 1.85 2.4 1.75 1.55-.05 2.3-1.65.7-1.6.45-4.4-.25-2.2-1.15-3.75-1-1.65-2.3-1.6m3.4.45q1.4 2.05 1.65 4.75.4 3.65-.9 5.7-1.15 1.9-3.4 2-2 .15-3.6-2.15-1.55-2.2-1.7-5-.2-3.5 1.15-5.45 1.1-1.65 3.05-1.9 2.15-.25 3.75 2.05m61.25-.3q-5.4-13.15-22.05-20.95-16.05-7.5-30.35-4.75-7.6 1.5-12.95.15-5.55-1.4-7.1-5.5l1.7-1.1q1 3.15 5.9 4.4 5.15 1.35 12.2-.05 13.45-2.6 28.8 3.35 16.1 6.3 22.9 18l.95 6.45"/><path fill="#0d131a" d="M200.25 195.8q.5 5.55 2.45 11.35 1.75 5.3 3.35 7.05 1.05 1.15 2.15 1.45l3.05-.15q6.9-1.65 15.35-1.8 8-.1 13.6 1.2 2.95.65 4.8-1.9 1.85-2.45 1.7-6.6-.95-26.1 1.35-45.9 3.4-29.75 14.05-49.95l3.8-2.05q-9.75 17.8-13.8 40.65-4.3 24.1-3.1 57.2.2 5.5-2.75 8.6-2.7 2.85-6.25 2.05-5.45-1.3-13.85-1.1-8.4.25-14.45 1.85l-4.15.3q-1.65-.4-3.15-2.25-2.2-2.7-4.2-8.45-2-5.85-2.5-11.15-.65-7.35-4.05-14.65-3.75-7.9-8.75-11.25-.85-.6-.6-1.05l1.2-.05q5.5 2.3 9.95 10.95 4.15 7.95 4.8 15.65"/><path fill="#0d131a" d="M244.05 222.35q0-3.9-1.4-6.55l1.5-.75q1.6 3.05 1.75 7.3.1 4.1-1.2 7.4-1.4 3.65-5.7 3.2-4.25-.5-14-.1l-13.95 1q-2.55.3-4.1-1.55-1.7-1.95-1-5.2.95-4.75 1.55-10.45l1.65.25q-.65 7.6-1.2 10.4-.45 2.25.5 3.5.85 1.1 2.6.9l14-1q9.7-.4 14.05.1l2.25-.2q1.25-.45 1.65-1.65 1.05-3.1 1.05-6.6"/><path fill="#0d131a" d="M209.75 245.5l14.1-.95 12.7.8q2.7.6 3.65-1.5 1-2.15 1.25-5.9.3-3.75-.35-6.25l1.75-.4q.7 2.75.35 6.9-.3 4.15-1.35 6.5-.9 1.95-2.1 2.55l-3.65.15-12.35-.7-13.75.95q-2 .35-3.1-.4-1.45-1-1.7-4.15-.2-2.5.6-5.9.75-3.35 1.9-5.4l1.45.85q-1.2 2.05-1.7 5-.5 2.7-.3 5.3.15 1.7.7 2.25.55.55 1.9.3"/><path fill="#0d131a" d="M240.15 246q.3 5.6-1.6 9.9-.75 1.75-1.65 2.65-1.05 1.1-2.85 1.75-4.1 1.4-12.25 1.4-8.65.05-14.4-1.6-1.9-.55-2.85-1.6-.95-1.15-1.1-3.25-.15-1.9.6-4.75.85-3.3 2.35-5.4l1.35 1.05q-1.3 1.65-1.95 4.6-.55 2.4-.4 4.3.1 1.35.55 2 .55.7 2.1 1.15 5.4 1.55 13.25 1.65 7.9.05 12.1-1.4 2.45-.8 3.5-3.3 1.8-4 1.65-8.7l1.6-.45"/><path fill="#0d131a" d="M201.75 261.95q1.1-2.9 2.65-5.5l1 1.5q-1.3 2.35-2.1 4.9-.85 2.75-.8 4.5.1 1.95.8 2.9.75 1 2.45 1.35 5.55 1.25 13.9 1.05 8.25-.15 10.85-1.5l2.25-1.55q.75-.8 1.2-2.1 1.5-4.4.85-8.85l1.5-.45q.9 5.45-.75 10.15-.95 2.8-4.3 4.55-2.9 1.5-11.9 1.65-8.8.1-14.05-1.1-2.3-.55-3.45-1.95-1.25-1.5-1.3-4.15-.05-2 1.2-5.4"/><path fill="#0d131a" d="M201.85 280.65q3.95 2.85 11.3 3.45 6.95.6 12.05-1.05l2.1-1 1.2-1.4q1.1-1.65 1.8-4.15.75-2.4.85-4.65l1.6-1q0 5.7-2.85 10.9-.7 1.3-1.6 1.95l-2.6 1.15q-4.55 1.45-11.85 1.05-8.7-.5-13.15-3.7-2.4-1.7-2.25-5.05.05-1.85.95-4.4.85-2.45 1.95-4.3l.85 1.95q-1.65 3.05-1.85 6.75-.05 1.55.25 2.2l1.25 1.3"/><path fill="#0d131a" d="M198.55 293.4q4.5 1.95 10.6 2.4 6.65.45 11.8-1.25 1.9-.65 2.8-2.3 1.25-2.15 1.7-4.1.4-1.7.45-4.3l1.6-.4q-.05 5.55-2.15 9.7-1.2 2.3-3.85 3.2-4.45 1.5-10.95 1.35-7.4-.15-12.9-2.6-2.6-1.15-3-4.85-.25-2.95 1.7-7.1.5-.95 1.45-1.8.95-.8 2.05-1.2l1 1.25q-2 .55-2.95 2.55-1.55 3.2-1.35 6.1.25 2.45 2 3.35"/><path fill="#0d131a" d="M194.1 295.85q-1.2 1.75-1.25 3.3-.05 1.6.9 3.2.9 1.6 2.6 2.8 3.4 2.4 11 2.1Q214.4 307 218 305q2.55-1.45 3.8-5.1 1.2-3.45.05-4.55l1.3-.8q1.7 1.2.35 5.65-1.4 4.65-4.65 6.45-3.7 2.05-11.45 2.35-8.5.35-12.35-2.4-1.9-1.3-3.05-3.45-1.1-2.05-1-4 .1-1.95 1.6-4.15 1.55-2.3 3.5-3.1l.6 1.55q-1.45.65-2.6 2.4m-11.5 15.55q-3 1.9-3.9 6-.85 3.85.7 5.75 1 1.25 2.45 1.4 1.4.1 2.75-.95 2.1-1.55 2.7-5.15.5-3.2-.3-5.65-.5-1.45-1.75-1.85-1.25-.45-2.65.45m5.85.95q1.15 2.9.4 6.6-.75 4.15-3.5 5.95-4.1 2.65-7-.7-2.15-2.55-1.3-7.05.9-4.75 4.75-7.15 1.95-1.15 3.7-.7 1.95.55 2.95 3.05"/><path fill="#0d131a" d="M182.15 310.4q4.65-4.9 10.2-8.9l.8 1.75Q188 307 185 309.85l-2.85.55m26.2 31.65q-3.05 1.9-7.65.9-5.45-1.15-9.45-6-4.6-5.6-11.1-12l2.4.15q6.95 6.85 10.15 10.55 3.25 3.7 7.15 5.1 3.85 1.4 7.15.1l1.35 1.2"/><path fill="#0d131a" d="M208 340.6l6.85 5.3q4.9 3.95 5.05 3.85.85-.55-.4-6.4-1.35-6.3-3.85-8.95-2.3-2.5-5.4-1.35-2.9 1.05-3.65 3.7-.7 2.45 1.4 3.85m-3.1-4.35q1.1-3.95 5.25-5 4.05-1 6.85 1.95 2.65 2.85 3.95 8.85 1.3 6 .05 9.35-.35 1-1.2.25-1.7-1.55-6.25-5l-6.6-4.75q-3.1-2.05-2.05-5.65"/><path fill="#0d131a" d="M219.2 338.4l7 3.65q5 2.7 5.15 2.65.65-.45-.5-4.95-1.35-5.05-3.9-7.3t-5.55-1.2q-3.2 1.15-2.55 5.5l-1.8-2q0-4.05 3.9-5.3t7.2 1.6q2.4 2.15 3.8 7.05 1.35 4.65.8 7.95-.2 1-1.1.5-5.7-3.25-11.85-6.05l-.6-2.1"/><path fill="#0d131a" d="M231.3 326.05q4.15-1.55 6.7 2.25 1.35 2.1 2.9 6.5 1.35 3.9 1.8 6.5.2 1.05-.85.8-5.45-1.4-10.75-4.25l-.6-2.15q2.7 1.5 6.45 3.2 3.85 1.75 4.05 1.45.3-.3-1.45-4.7-1.8-4.5-3-6.3-2-3.05-5.05-1.4-2.95 1.55-2.75 4.85l-1.6-1.35q.1-3.85 4.15-5.4"/><path fill="#0d131a" d="M225.4 312.4q-4.1-3.55-7.75-6.05l1.6-1.1q10 7.05 14.3 11.65 2.3 2.45 3 5.55.7 3.15-.65 4.85l-2-.8q1.15-1.1.5-3.65-.65-2.6-2.5-4.45-2.75-2.8-6.5-6"/><path fill="#dcdbd6" d="M108.5 237.3q-.35 1.85-.25 4.6-1.4 2.2-3.85 4.9-2.7 2.95-4.95 4.65-1.3-2.85-2-7.05-.6-3.5-.55-6.05.1-4.7 5.8-5.05 2.3-.15 3.9.85 1.85 1.1 1.9 3.15"/><path fill="#dcdbd6" d="M121.25 238.65q-.25 3.65-3.7 8.45-2.55 3.6-5.5 6.2-1.85-2.35-2.9-7.1-.85-3.95-.85-7.6 0-2.7 2.1-4.35 1.9-1.45 4.6-1.45 2.7-.05 4.45 1.4 2 1.65 1.8 4.45m1.1-.6q-.1-2.4 2.05-4.2 1.95-1.6 4.75-2 2.75-.45 4.5.7 1.95 1.25 1.5 4.05-.55 3.5-3.35 7.85-2.55 3.95-5 5.85-1.35-1.5-2.8-5.4-1.55-4.1-1.65-6.85"/><path fill="#b4b4b0" d="M103.1 233.25q1.8.05 3.45 1.2 1.75 1.2 1.95 2.7-.25 1.45-.35 4.65-4.75 6.55-8.65 9.35 2.2-3.35 3.35-9.35 1.15-5.9.25-8.55m12.35-.4q2.4-.1 4.05 1.15 2 1.45 1.8 4.4-.2 3.25-2.85 7.5-2.7 4.3-6.5 7.2 1.5-3.95 2.6-10.5 1.15-6.6.9-9.75m13.05-.8q3.2-.75 4.95.35 1.5.95 1.6 3 .2 3.1-2.95 8.3-2.85 4.75-5.25 6.5 1.8-3.9 2.15-9.95.25-5.1-.5-8.2"/><path fill="#0d131a" d="M125.4 234.2q-2.15 1.55-2.1 4 .05 2.4 1.65 6.85 1.5 4.2 1.95 4.3.75.05 3.65-4.6 3.15-5 3.65-8.2.3-1.85-.7-2.85-1.05-1.1-3.45-1.05-2.75.1-4.65 1.55m4.55-3.3q3.1-.1 4.7 1.5 1.65 1.6 1.25 4.35-.55 3.7-3.3 8.05-2.55 4.05-5.3 6.15l-1-.05q-1.6-1.55-3.1-5.7-1.55-4.05-1.65-6.95-.15-3.15 2.3-5.2 2.35-2 6.1-2.15"/><path fill="#0d131a" d="M115.15 233.7q-2.3.05-3.9 1.15-1.75 1.25-2.05 3.5-.35 2.85 1 8.45 1.3 5.25 1.9 5.4.9 0 4.25-5.15 3.55-5.5 3.95-8.55.3-2.15-1.25-3.55-1.5-1.35-3.9-1.25m5-.1q2.3 1.9 1.9 5.1-.45 3.8-3.25 8.2-2.65 4.05-6.3 7.1-.5.45-1.05-.15-2-2.3-3.25-7.45-1.15-4.85-.8-8.25.3-2.9 2.6-4.6 2.1-1.55 5.1-1.65 3-.1 5.05 1.7"/><path fill="#0d131a" d="M98.6 245.75q.75 4.5 1.05 4.6.35.1 3.85-4.1 3.65-4.35 4.6-6.25l.15 2.7q-1.4 2.4-3.7 4.95-2.4 2.7-4.8 4.5-.65.45-1-.2-1.1-1.9-1.95-6.1-.8-4.2-.75-7.45.05-2.75 2-4.4 1.75-1.55 4.4-1.65 2.3-.1 4 .85 1.9 1.05 2.5 3l-1.2 2.15q-.2-2.1-1.75-3.25-1.4-1.05-3.5-1-2 .05-3.25 1.15-1.35 1.2-1.4 3.2-.05 2.5.75 7.3"/></svg>