<svg xmlns="http://www.w3.org/2000/svg" width="216" height="322" viewBox="0.0 0.0 216.1 321.95"><path fill="#be9c59" d="M124.6 19.95l4.2 1.65q4.6 1.9 6.3 3.35l8.25 7.35-9.4 30.5 13.55-15.6 4.55 10.3q0 6.75-4.2 18.7-4.6 13.25-11.85 25.1-19.2 31.35-42.6 31.35-28.35 0-41.2-38.65-4.1-12.45-6.1-27.55-1.25-9.4-1.25-14.45l2.75-3.7q2.95-3.7 3.65-3.85.7-.15 4.45 5.4l3.55 5.6-1.2-9.45q-1-9.9-.15-12.35.9-2.65 6.85-8.45 5.6-5.5 6.65-5.5.7 0 5.15 14.1l4.25 14.1L87 2.75l3.9-.8 5.25-.8 9.65.45 2.75 12.35 2.2 14.2 1.9 12.65 11.95-20.85"/><path fill="#fff" d="M63.15 82.7l15.15 9.35.55 2.15.5 3.35q0 1.15-.95 3.8-.95 2.7-1.5 3.05-.75.45-11.45-2.9-2.9-8.1-2.9-11.3 0-2 .3-4.95l.3-2.55m38.05 10.1l3.45-3.05q3.95-3.4 6.35-5.05 3.8-2.6 10.35-6.1l.3 2.8q.3 3.25.2 5.45-.15 2.6-1.3 7.3-1.1 4.65-1.95 6.15-.75 1.35-7.65 2.5l-7.75.4q-.8-.6-1.45-5.55l-.55-4.85"/><path fill="#be9c59" d="M11.2 96.6Q.55 84.1 1.05 82.5q.5-1.5 8-2.65l13.8-1.05q8.45 0 25.9.7l1.15 4.75 2.05 7.6q1.15 3.9 3.85 10.7 3.25 8.2 5.55 12 2.15 3.6 6.2 7.2l3.65 2.9-.9 3.1-1.4 4.45-3.65 7.35q-3.9-2.3-4.85-3.2-.55-.6-5.05-1.5l-4.35-.8q-7.1-5.3-19.7-16.5-9.15-8.15-20.1-20.95"/><path fill="#c5a7be" d="M78.9 169.95q3.35 1.5 4.1.75l1.55-2.6.9-2 5.35 1.25q6.15 1.2 10.25 1.2 4.5 0 11.35-2 6.15-1.85 7.9-3.2l2.9-2.7 1.4-1.55q2.4.9 3.35.6l7.3-4.4 5.15 2.95 6.65 4.05 4.3 3.95q2.85 2.85 2.85 3.4 0 .75-4.9 5.35l1.2 1.3q1.2 1.4 1.1 1.75-.1.5-4.35 3.35-4.4 2.95-6.95 4.1-1.85.85-8 4.15l-5.6 2.9q-.45 0-1.8-2.3-10.25 4-10.85 3.35-.65-.6-2.75-8.55l-8.4 1.1-3.1-.3-1.95-.35q-5.5 10.1-6.1 10.4-.65.3-10.7-3.95-2.3 3.05-3.05 3.2-.8.15-5.35-1.85 1.6-1.8 3.2-4.35 3.2-5.1 3.2-8.65l-.15-10.35"/><path fill="#30353a" d="M100.3 168.7q-3.95 0-9.8-1.6l-5.05-1.6.15-4.4-.45-3.2-.45-2.15 3-1.3q4.05-1.3 9.4-1.3 5.35 0 17.05 3.2 5.85 1.6 10.6 3.2-1.3 3.2-10.55 6.3-8.5 2.85-13.9 2.85"/><path fill="#be9c59" d="M124.6 189.5l.85 1.4 1.25 1.65q.6.3 14.35-7.8l.95 6.75 1.35 12.05q.6 7.05 2.9 22.3l1.5 3.5 2.65 7.05q1.5 4.7 5.5 38.65l-9 .3q-.5.1-3.05 3.65l-2.45 3.5-1.4-6.4-2.5-9-3.05-10.15-2.9-8.95-2.85-8.55q-.65-1.4-1.05-3.8-.35-2.2-.35-3.85 0-1.75-1.2-5.5l-10.4-33.15 8.9-3.65"/><path fill="#a5874c" d="M122.95 196.15q-.7 0-2.8 1.3-2.1 1.3-2.7 2.15l-1.75-6.45 8.9-3.65.85 1.4 1.25 1.65q.6.3 14.35-7.8l.75 3.25 1.1 6.05q-8.3.45-11.9 1.65-2.6.85-5.6.75l-2.45-.3"/><path fill="#be9c59" d="M77.2 195.15q.8 0 3.85-3.2l4.4 2.6-3.35 6.2q-3.65 6.45-4.9 8l-9.75 12.35.6 2.45q.6 2.85.6 5.05 0 2.65-1.7 16.85-1.75 14.2-2.4 17.05l-1.1 4.45q-3.5 1.85-5.8 1.85-1.45 0-3.6-2l-1.9-2-.6-21.25q-.1-2.1.1-8.2l.2-5.7-1.3-2.75q-1.3-3.3-1.3-5.8 0-2.4 1.7-6.25l2.45-5.2q.55-1.6 2.95-6.55l2.25-4.6 6.85-.9 6.6-4.15q4.4 1.7 5.15 1.7"/><path fill="#0d131a" d="M71.7 87.9l6.6 4.15.45 2.15.45 2.85q0 .75-1.2 2.15-1.25 1.4-2 1.4-.85 0-2.55-3-1.75-3.05-1.75-4.8v-4.9m36.85-1.2l7.6-4.6.55.8q.55 1.55.55 5.45 0 4.3-1.95 8.15-1.75 3.45-3.1 3.45-1.1 0-2.5-2.5-1.3-2.45-1.3-4.05l.15-6.7"/><path fill="#fff" d="M77.5 93.8l.05 2.45q-.2 1.05-.75 1.15-.55.1-1.15-.8-.6-.9-.85-2.3-.25-1.45 0-2.5.2-1.05.75-1.15.55-.1 1.15.8.6.95.8 2.35m37.1-3.15q0 1.75-.5 2.95-.55 1.25-1.3 1.25-.7 0-1.25-1.25-.5-1.25-.5-2.95 0-1.7.5-2.95.55-1.2 1.25-1.2.75 0 1.3 1.2.5 1.25.5 2.95"/><path fill="#be9c59" d="M36.6 135.85l1.8-11.9 11.45 9.85-13.25 2.05"/><path fill="#be9c59" d="M36.6 135.85l1.8-11.9 11.45 9.85-13.25 2.05"/><path fill="#a5874c" d="M48.95 133.25l-4.6.35-6.7-4.9v-4.3l11.3 8.85M78 195.15l3.05-3.2 5.2 2.3-2.45 5-2.5-.3-2.7-.15q-17.1-5.95-20-6.4l9.45-7.65 2.75 8.55 7.2 1.85"/><path fill="#0d131a" d="M175.65 92.6q11.4-4.95 25.15-7.2l11.4-1.35q-.65-1.25-8.35-2.45l-18.15-1.8q-26.4-1.4-39.85 2.3-.35.1-.25-1 .15-1.15.35-1.2 13.8-3.55 39.95-2.3 26.2 1.25 28.2 5.6 1.25 2.75-2.1 7.95-7.75 12.05-38.15 36.85-11.85 9.7-21.55 16.65-9.7 6.95-11.4 6.95-4.2 0-11.25-9.6-7.15-9.7-10.1-19.7-.15-.45 1.2-1.35 1.4-.9 1.5-.5 2.95 9.8 8.7 17.85 5.35 7.45 8.45 7.5-.3-37.35 36.25-53.2"/><path fill="#c5a7be" d="M71.25 125.8l5.85 3.45q7.55 3.4 15.85 3.4 10.15 0 20.35-6 5.1-3.05 8.2-6.05l2.05 5.1q2.55 6.15 5 11.1 2.45 4.95 10.65 3.8 4.1-.55 7.7-2.15-3.55 8.1-9.5 14.6-6.15 6.8-10.4 6.8-.7 0-6.35-1.8l-7.85-2.45-8.7-1.5-8.25-.8q-1.6 0-6.4 1.45L85 156.2l-2.75-7.05q-.5-1.25-2.45-2.7-2.1-1.55-3.8-1.55-1.55 0-3.3 1.4l-1.45 1.35-5.35-7.95q2-5.2 2.9-6.9.6-1.05 1.6-4.1l.85-2.9"/><path fill="#a2899c" d="M71.25 125.8l5.85 3.45q7.55 3.4 15.85 3.4 10.15 0 20.35-6 5.1-3.05 8.2-6.05l2.15 5.4q-5.05 5.3-11.7 8.25-6.85 3-14.4 3-7.6 0-14.55-3.1-6.7-2.95-11.75-8.35"/><path fill="#be9c59" d="M170.85 78.35q16.45-.15 30.1 2 10.75 1.7 12.1 3.05.4.45-24.9 5.95-26.45 5.75-28.5 7.8-2.05 2.05-10.95 26.05-8.7 23.35-9.25 23.45-1.2.2-4.1-2.1-3.35-2.7-6.65-7.1-3-4-5.35-11.1l-1.75-6.3 5.1-5.5q5.7-6.5 8.4-11.2 4.35-7.6 10.55-22l.4-.45q.8-.5 2.75-.95 6.3-1.45 22.05-1.6"/><path fill="#a5874c" d="M121.6 120.05q7.2-7.2 11.85-14.1-1.8 11.75-10.1 20.4l-1.3-4.5-.45-1.8"/><path fill="#e73820" d="M80.1 146.35q3.3 2.2 4.5 7.5 1.35 5.8.6 11.35-.75 5.3-2.55 5.4l-2.85-.55-1.15-.6q-1.15-7.7-2.45-11.35l-2.45-6.4-1.55-3.7q0-.8.35-1.6.7-1.6 2.4-1.6 2.95 0 5.15 1.55"/><path fill="#c82e19" d="M79.8 170.05l-1.15-.6-.5-3.05.3-1.8q2.05.25 4.1-1.55 2.4-2.2 2.6-6 .65 5.15-.2 9.35-.75 4.15-2.3 4.2l-2.85-.55"/><path fill="#0d131a" d="M135.7 26.95q-5.95-4.6-10.65-6-2.75 4.45-8.2 14.35l-9 16.4q-.75 1.45-1.3 1.1-.55-.3 0-1.6 2.25-5.6 4.45-9.75l-.8-6.4q-3.8-30.15-5-32.4l-8.95-.45q-7.3.25-8.15 1.3-.85 2.2-3.55 21-2.85 19.9-2.85 26.6 0 1.45-.5 1.5-.45.05-.85-1.35l-5-17.8Q72.3 23.4 71.2 20.8q-1.9 1.4-6.8 6.7-4.85 5.2-5.6 6.55l-.05.45q0 3.75.3 9.75.45 8.15 1.2 12.45.15.85-.15 1.1-.35.2-.9-.6-5.6-8.75-8.05-11.7-1.15.9-3.15 3.4-2.1 2.55-2.3 3.4 2.7 22.15 6.85 37.15 4.1 15.05 10.1 24.5 5.7 9 13.4 13.3 7.7 4.25 18.15 4.25 18.75 0 35.1-21.1 16.4-21.25 22-53.05-1.7-4.6-3.9-8.95L133.75 64l-.95.55q-.35-.15-.05-1.15l9.5-30.65q-3.15-3.15-6.55-5.8m-12-7.8q.3-.65 1.15-.45 5.7 1.45 12.95 7.25 3.65 2.95 6.4 5.85l.3.7-.05.3-7.5 24q4-4.7 9.85-10.9.35-.45.85-.35.6 0 .8.45.9 1.3 2.85 5.8l1.75 4.6q-.7 8.1-4.5 19.85-4.5 14-11.15 25.7-18.1 31.65-43.2 31.65-22.1 0-34.25-18.9-12.6-19.65-16.35-62.25-.1-1.25 2.5-4.45 2.05-2.6 3.5-3.9 1.15-1.1 2-.9l1.1.35q1.4 1.2 4.75 6.6-.75-6.35-.75-15.55l.05-1.05q.25-1.25 6-7.45 5.8-6.2 7.8-7.35.75-.45 1.4-.25.7.25 2.35 4.5 2.35 6.25 5.8 19.15.85-9.8 3.15-24.05 2.1-13.45 2.95-15.4.5-1.2 2.65-1.75Q92.1 0 98.7 0q6.55 0 7.85.95 1.1.8 6.35 35.7 4.9-9 10.8-17.5"/><path fill="#0d131a" d="M78.35 119.05q-4.15 1.45-5.9 1.45-4.75 0-7.6-2.2-.85-.7-1.35-1.8-.55-1.15.25-.4 1.5 1.35 4.15 2.05l4.55.65q1.6 0 6.15-1.75 4.55-1.8 7.6-1.8 2.9 0 9.6 2.05 6.65 2.05 8.65 2.05 11.95 0 20.7-8.9 1.65-1.65 2.25-1.2.6.4-.9 2.25-4.05 4.9-10.6 7.6-5.75 2.35-11.45 2.35-2.3 0-8.6-1.9-6.35-1.95-9.65-1.95-3.65 0-7.85 1.45m-.95-26.1l-7.15-4.85q-6.1-4-8.95-5.35-1.15-.6-.95-1.25.25-.65 1.45-.15 3.5 1.4 9.85 5.3l7.05 4.65.4.7-.2.75q-.65.8-1.5.2m-13.1 8.45q-.95-.6-.65-1.2l1.25-.05q5.45 3.35 12.25 3 .4-.05.75.25l.3.75-.25.75q-.3.3-.7.3-6.2.35-12.95-3.8"/><path fill="#0d131a" d="M62.35 82.2l1.15-.1q.95.35.85.75-1 3.25-.45 8.5.65 5.65 2.8 10.05l-.9-.05q-1.15-.35-1.25-.65-2.25-4.6-2.8-10.05-.5-4.95.6-8.45M77.1 92.5q-.15-.4.8-.8l1.15.05q1.15 3.05.9 6.65-.3 3.6-1.85 6.3-.2.4-1.1-.15-.9-.5-.7-.9 1.3-2.3 1.55-5.45.2-3.15-.75-5.7"/><path fill="#0d131a" d="M70.9 87.55l1.15-.05q.95.3.85.7-.8 2.25-.25 5.3.5 2.85 1.8 4.7.95 1.25 1.7 1.25.5 0 1.05-.5l.7-.95q.15-.4.55-.6.35-.15.75 0 .35.1.3 1.1l-.2 1.2q-.95 2.4-3.15 2.4-3 0-4.8-5.3-1.8-5.2-.45-9.25m40.9-2.1q-6.75 4.75-11.9 9.85-.85.85-1.2.2-.4-.7.45-1.65 4.9-5.5 11.8-10.4 6.35-4.5 11.8-6.7 2.5-.95 2.9 0 .4.95-2.1 1.95-4.95 2-11.75 6.75"/><path fill="#0d131a" d="M100.2 93.25q0-.3 1.05-.75l1.05-.05q0 3.55.5 6.45.45 2.55 1 3.3l8.3-.6q4.8-.9 5.9-2.75 1.6-2.75 2.4-10.5.7-7 .2-9.8-.05-.4.95-.55 1.05-.2 1.1.2.55 2.9-.15 10.2-.8 8.3-2.7 11.5-1.75 3.05-8.8 4l-7.75.35-.55-.2q-1.35-.95-2-5-.45-2.6-.5-5.8"/><path fill="#0d131a" d="M116.1 80.75q.4-.15.75 0l.6.6q.95 2.5.95 4.3 0 6.9-1.75 11.15-1.7 4.25-4.5 4.25-1.25 0-2.3-1.1-1.45-1.55-2.1-5.2-.65-3.65-.3-8.15 0-.45.35-.7.3-.3.75-.25l.7.35.25.75q-.35 4.3.3 7.7.55 2.95 1.55 4.1.4.45.8.45 1.45 0 2.7-3.25 1.45-3.85 1.45-10.1 0-1.5-.8-3.55-.15-.4 0-.8.2-.4.6-.55m-66.45 52q13.3.3 22.15 13.25 8.85 12.9 8.35 31.1-.25 9.45-6.3 15.75-6.35 6.65-16.4 6.7-17.3.1-27.6-10.25-10.15-10.15-9.75-26.35.35-14.85 8.45-22.85 7.8-7.7 21.1-7.35"/><path fill="#e73820" d="M75.3 159.4q3.85 13.2 2.35 21.8-1.5 8.65-8.45 12.95 3.3-4.55 4.35-11.8 1.4-9.95-1.8-22.45-3-11.55-8.45-20.25 8.1 6.2 12 19.75"/><path fill="#e73820" d="M37.8 191.6q-9.1-6-11.8-15.5-3.75-12.95.2-24.85 3.95-11.9 13-14.8 10.85-3.55 19.6.45 6.25 7.65 10.1 20.5 4.1 13.7 2.6 24.65-1.2 8.45-4.95 12.15-3.35 3.3-9.35 3.25-10.6 0-19.4-5.85"/><path fill="#f3a481" d="M63.3 139.65q3.55 2.7 6.45 7.1l-3.3-1.4-3.15-5.7m-4.5-2.75q2.45 3 4.85 7.5-13.05-6.55-23.5-1.8-10.85 4.95-15.9 20.85.1-9.75 4.1-17.2 4.15-7.65 10.85-9.8 10.85-3.55 19.6.45"/><path fill="#c82e19" d="M69.2 194.15q3.3-4.55 4.35-11.8 2.75-2.05 4.45-4.65-.6 11.3-8.8 16.45m-31.4-2.55q-9.1-6-11.8-15.5l-.45-1.55q3.8 5.75 13.95 9.55 9.1 3.35 17.5 3.35 7.9 0 14.2-3.6-1.35 7.45-5.05 10.7-3.3 2.95-8.95 2.9-10.6 0-19.4-5.85"/><path fill="#0d131a" d="M76.05 143.55q2.4 0 4.8 1.45 4.05 2.45 5.7 8 2 6.75.65 12.05-1.1 4.25-3.7 5.95-2.1 1.3-4.6-.25-.15-.1-.05-1.35.1-1.25.4-1 1.4 1.3 3 .3 1.8-1.1 2.45-4.4.8-4.35-1.05-10.7-1.2-3.95-3.35-5.85-1.7-1.5-3.7-1.5-3.4.1-3.95 2.1-.1.4-.85-.55-.8-1-.6-1.3.7-1.3 2-2.1t2.85-.85M.85 81.25q3.1-2.95 19.55-3.75 12.8-.6 28.1.15.4.05.55 1.4.15 1.4-.3 1.35-21.45-1.05-33.95-.2-10.65.75-12.55 2.55L2.1 83q.6 3.15 14.05 17.7 16.35 17.65 35.2 32.2l-1.55.6-2.05.25Q29.35 119.4 13.6 101.7 0 86.4 0 83q0-.95.85-1.75M70.2 124.9q.1-.4 1.35.55 1.2 1 1.1 1.4l-2.3 5.45q-2.6 5.85-4.05 8-.2.35-1.1-.25-.85-.55-.65-.9 1.35-2.05 3.65-8.35l2-5.9m106.55-32.75q11.15-4.65 24.45-6.8l11-1.3q-.65-1.25-8.35-2.45l-18.15-1.8q-26.4-1.4-39.85 2.3-.35.1-.25-1 .15-1.15.35-1.2 13.8-3.55 39.95-2.3 26.2 1.25 28.2 5.6.65 1.4-.05 2-.75.6-3.8 1.15-18.95 3.6-29.55 7.25-11.95 4.15-19.1 10.2-7.2 6.15-11.8 16.15-4.2 9.25-7.65 25.25-.45 2.15-2.8 3.2-2.9 1.25-5.9-1.7-4.25-4.1-8.3-11.45-3.75-6.8-5.6-12.95-.15-.45 1.2-1.35 1.4-.9 1.5-.5 2.05 6.85 5.75 13.25 3.35 5.75 6.8 9.2 2.45 2.45 3.6 2.1.95-.3 1.05-2.7 1.5-35.2 37.3-50.15"/><path fill="#0d131a" d="M142.8 141.5q.1-.4 1.95-.25 1.85.2 1.7.6-1.75 5.25-8.25 11.75-6.9 6.95-11.4 6.95-1.7 0-13.65-3.2-12-3.2-17.05-3.2-2.05 0-5.4.9l-4.75 1.4q-.45.15-.45-.9-.05-1.1.45-1.25 3.4-1.05 4.5-1.35 3.25-.85 5.65-.85 5.4 0 17.6 3.2l13.1 3.2q3.1 0 8.6-5.7 5.55-5.85 7.4-11.3"/><path fill="#0d131a" d="M107.6 168.85q-13.3 2.15-23-2.2-.4-.15.05-1.65t.8-1.3q10.5 4.75 21.65 3 10.75-1.65 15.65-8.2.25-.35 1.85.35 1.6.75 1.35 1.1-5.05 6.75-18.35 8.9m-29 27.65q-.65.15-2.4-.45l-3.8-1.55-.75-.35q-.35-.1.6-.85l1-.7q3.55 1.45 4.2 1.5 1.1-.9 5.45-6.8l5.75-8.2q1.2-1.9 1.7-1.7.5.2-.45 2.25l-5.25 9.1q-4.75 7.5-6.05 7.75"/><path fill="#0d131a" d="M80.35 193.1q-.4-.2.25-1.55.6-1.3.95-1.1l5.6 3.05q3.35 1.6 3.9 1.4.55-.25 2.3-3.4l3.4-6.6 1.05-.05q.85.3.65.65l-4.35 9.75q-.95 1.95-1.3 2.05-1.05.25-6.8-1.95l-5.65-2.25"/><path fill="#0d131a" d="M95.55 184.9q-1.65-1-1.3-1.35.3-.35 2.1.35 2.45.9 6.15.95 4.1.1 8.3-.95.4-.1.75 1.05.3 1.2-.1 1.35-3.1 1.1-8.1.7-5.1-.4-7.8-2.1"/><path fill="#0d131a" d="M109.2 176.3q-.25-1.35.25-1.5.5-.15.95 1.25l1.75 7.65q1.8 7.9 2.2 8.85 2.5-.45 9.9-3.7.4-.2.8 0l.6.55v.75l-.55.6q-10.45 4.55-12.45 3.8-.95-.4-2.3-9.35l-1.15-8.9"/><path fill="#0d131a" d="M121.2 182.75q-.4-1.7.1-1.9.5-.15 1.15 1.5l2 4.55 2.2 4.45q3.1-1.4 12.4-6.55 9.95-5.55 11.55-7l-3.45-3.2-3.25-2.75q-.85-.8-.6-1.15.25-.3 1.45.35 2.85 1.6 5.4 3.8 2.9 2.5 2.6 3.5-.45 1.45-12.85 8.45-12.3 6.95-14.1 6.95-1.4 0-3.15-5.45l-1.45-5.55"/><path fill="#0d131a" d="M149.3 162.4q6.9 4.8 6.9 6.3 0 2.05-6.4 7l-.75.2-.7-.4-.2-.6q0-.55.45-.85l2.95-2.55 1.85-2.1q-1-1.4-5.75-5.05-5.95-4.55-12.8-8.4-.55-.3-.55-.9l.15-.5q.2-.4.6-.5l.8.1q7.55 4.2 13.45 8.25m-64.35 31.4q.15-.3 1.35.5l1.15.9q-3.4 7.15-10.35 16.2l-8.1 9.85q1.5 2.75.65 13.55-1.05 13.1-5.3 34.35-.45 2.3-2.2 3.5-1.75 1.25-4.3 1.05-2.5-.2-4.5-1.55-2.15-1.5-2.25-3.5l-.35-19.7-.2-19.05q-2.1-3.85-2.1-7.9 0-8.3 7.55-23.2.1-.25 1.85-.45l1.5.1q-2.9 4.95-5.55 11.4-3.3 8-3.3 12.05 0 2.05.45 3.7.45 1.6 1.55 3.55l.1.5.6 38.9q.05 1.05 1.5 2 1.5.95 3.3 1.1 3.7.25 4.35-2.95 4.4-21.9 4.95-35.4.4-9.25-.85-11.6l-.3-.9.25-.5 7.1-8.65q7.75-10.1 11.45-17.85m29.1-.2q-.05-.15 1.4-.6l1.5-.15 11.2 36.9.55 3.7q.55 3.85.85 4.8 1.4 5.75 6.45 21.7 4.6 14.5 6.2 22.1.45.7 3.2.85 3.05.15 5.7-.85 4.25-1.55 3.8-5.15l-1.55-11.9q-2.7-21.95-3.4-25.45-1.05-5.25-3.15-9.7l-1.9-3.55q-2.35-27.75-4.7-41.45-.05-.4 1.75-.95l1.9-.15q1.4 8.3 2.6 24.45.9 11.9 1.05 17.5.95.85 2.25 4.85 1.35 3.95 2.25 8.6l3.45 25.6 1.5 11.85.05 1q0 2.65-2 4.5-2.05 1.9-5.7 2.55l-5.6.15q-3.1-.5-3.5-2.2-3-12.7-7.05-23.9-4.9-13.45-6.3-18.5-.65-2.1-1.2-6.1l-.4-3.6-11.2-36.9"/><path fill="#0d131a" d="M140.1 276.4l1 .9.7 3 .95-1.3q2.7-3.85 3.6-4.3 1.15-.55 6.8-1.05 5.5-.45 6.4-.15.75.25 1 2.1l.75 5.9.1.7q.3 1.75 3.85 7.25l1.9 2.5 5.2 6.75q3.1 4.6 3.1 7.8 0 6.05-2.15 10.8-2.2 4.65-4.9 4.65-6.45 0-14-3.85-7.45-3.75-10.1-8.2-.6-1-1.15-6.55l-.55-5.8-3.6-5.6-3.6-5.6q-.25-1.35.95-4.9 1.25-3.65 2.6-5.35.2-.25 1.15.3"/><path fill="#c5a7be" d="M138.05 286v-.1q0-1.1 1.75-5.15l.4 1.75q.1.8.85.95.65.15 1.3-.5l2.1-2.75q2.15-3.1 2.8-3.65l5.2-.55q4.35-.2 5.55 0 .45.75 1.25 5.8l.1.7q.3 2.1 4.15 8.05l2 2.7q3 3.8 4.5 6.2 2.6 4.25 2.6 7.05 0 5.55-1.55 9.15-1.3 3.05-2.65 3.05-5.9 0-12.6-3.15-6.75-3.2-9.05-7.05-.8-1.3-1.5-7.45l-.65-4.15q-.35-1.2-3.5-5.95-2.9-4.25-3.05-4.95"/><path fill="#a2899c" d="M138.05 286v-.1l.6-2.25 3.7 4.85 3.15 3.95 1.55 7.65q1.3 6.95 1.8 7.65 2.25 3 9.35 6.15 6.6 3 9.9 3 1.4 0 3.15-1.75l-1.45 2.7q-.75.85-1.4.85-5.9 0-12.6-3.15-6.75-3.2-9.05-7.05-.8-1.3-1.5-7.45l-.65-4.15q-.35-1.2-3.5-5.95-2.9-4.25-3.05-4.95"/><path fill="#0d131a" d="M25.4 295.45q-.8-4.65.95-7.75.9-1.55 9.2-7.2l8.3-5.55q.4-.4 1-2.3 1.6-5 3.1-7.1 1.8-2.6 4.2-2.3l.75.55q.65 1.2 1.7 2.25 1.5 1.5 2.85 1.5 2.8 0 5.9-2.35l1.4.1 3.4 3.75q2.95 3.8 2.95 6.25 0 5.1-2.2 8.45-1.75 2.6-4.5 3.8l-4.7 1.9q-2.3.95-3.95 1.95l-5.4 4.55-5.5 4.6q-3.5 2.05-8.75 2.35-5.35.35-7.75-1.45-2.2-1.55-2.95-6"/><path fill="#c5a7be" d="M29.25 288.8q1.3-2.4 12.15-9.6l4.05-2.9 1.35-2.9q3-7.4 4.65-8 2.7 4.25 6 4.25 2.9 0 6.4-2.25 4.55 5.1 4.55 7.9 0 7.75-5.45 10.1-4.45 1.9-8.3 4.2-1.6 1-5.85 4.6l-5.65 4.35q-2.85 1.7-6.85 1.95-3.95.2-5.9-1.25-.9-.65-1.5-2.45-.6-1.8-.6-3.8 0-2.5.95-4.2"/><path fill="#a2899c" d="M43.45 295.5q1.35-1.3 5.3-4.45 3.9-3.05 5.1-3.8 10.2-5.35 14.15-8.2-1.15 4.65-5.05 6.35-4.45 1.9-8.3 4.2-1.6 1-5.85 4.6l-5.65 4.35q-2.35 1.4-5.65 1.8l-5.55-.35q3.45-.3 7-1.8 3.1-1.3 4.5-2.7"/><path fill="#0d131a" d="M164.05 72.45q22.4 0 37.8 18.9 14.25 17.6 14.25 39.75 0 16.05-10.45 25.05-10.35 9-28.75 9-21.7 0-35.9-16.8-14.15-16.7-14.15-42 0-16.75 11.55-25.85 10.15-8.05 25.65-8.05"/><path fill="#0d131a" d="M125.65 134.6q0-6.3 2.75-10.45 2.6-3.8 6.7-4.65 6.55-1.35 11.75 4.2 5.35 5.8 5.35 15.2 0 5.85-3.7 10.6-3.5 4.55-7.3 4.55-6.85 0-11.35-6.2-4.2-5.75-4.2-13.25"/><path fill="#e73820" d="M128.5 134.35q0-5.3 1.9-8.65 1.8-3.3 4.7-3.75 5.95-.9 9.8 3.8 3.95 4.75 3.95 13.35 0 4-2.65 7.7-2.65 3.75-5.6 3.75-5.15 0-8.55-4.35-3.55-4.5-3.55-11.85"/><path fill="#c82e19" d="M132.05 146.2q-3.55-4.5-3.55-11.85v-1.25q2.05 6.2 5.4 9.6 2.95 3.05 6.05 3.05 6.2 0 8.35-3.15-1 3.2-3.15 5.55-2.3 2.4-4.55 2.4-5.15 0-8.55-4.35"/><path fill="#0d131a" d="M202.4 156.45q-16.7 3.5-27.35.8-12.4-3.2-26.1-16.35-.15-.15.35-1.35.5-1.25.85-.95 13.75 13 27.05 16 11.05 2.55 27.05-1.15.55-.1-.35 1.35-.9 1.5-1.5 1.65"/><path fill="#c82e19" d="M174.85 156.3q11.6 3.1 24 .8-8.45 4.75-21.95 4.75-8.5 0-16.1-2.85-7.4-2.85-13.45-8.15 2.95-3.05 4.25-7.5 10.55 9.55 23.25 12.95"/><path fill="#e73820" d="M164.05 75.95q21.25 0 35.3 17.6 12.95 16.3 12.95 37.55 0 12.1-6.35 18.5-5.75 5.75-15.65 6.15-9.2.35-19.7-3.85-10.35-4.2-18.5-11.5l.1-1.5q0-9.4-5.35-15.2-5.2-5.55-11.75-4.2-2.45.45-4.25 2-1.6-7.3-1.6-15.15 0-15.15 11.1-23.35 9.55-7.05 23.7-7.05"/><path fill="#f3a481" d="M164.05 75.95q10.9 0 20.35 5 8.75 4.65 15.3 13.05-6.1-5.55-15.75-8.85-9.3-3.2-18.3-3.2-13.85 0-23.4 10.7-10.05 11.15-8.7 27.3l-2.7 1.55q-1.6-7.3-1.6-15.15 0-15.15 11.1-23.35 9.55-7.05 23.7-7.05"/><path fill="#c82e19" d="M206.95 139.15q4.5-6.3 5.05-13.75l.3 5.7q0 11.8-6.1 18.2-5.45 5.75-15 6.4-8.9.6-19.15-3.25-10.1-3.75-18.35-10.65 8.5 4.8 22.25 6.9 14.3 2.2 20.8-.9 6-2.85 10.2-8.65"/><path fill="#0d131a" d="M34.75 136.35l1.1-7.05.8-5.9 2.7 1.25-.45 5-.85 6.35-3.3.35"/><path fill="#f3a481" d="M171.8 93.55q0 6.05-4.3 10.35t-10.4 4.3q-6.05 0-10.35-4.3-4.3-4.25-4.3-10.35 0-6.05 4.3-10.35t10.35-4.3q6.1 0 10.4 4.3 4.3 4.3 4.3 10.35m-115.7 51q.55 2.6-1.85 5-2.4 2.35-6.35 3.15-3.9.8-7.05-.5-3.1-1.3-3.6-3.9-.5-2.6 1.85-5 2.4-2.4 6.3-3.2 3.9-.75 7.05.55t3.65 3.9"/></svg>