<svg xmlns="http://www.w3.org/2000/svg" width="268" height="298" viewBox="-0.7 -3.15 267.5 297.9"><path fill="#0d131a" d="M25.35 95.4q10.15-15.55 28.9-21.85 14.35-4.75 27.8-3L117.5 113l-2.4 84.65-18.6 38.95-11.2-5.85.85 25.95q-12.3-9.15-30.9-35.2-20.8-29.15-31-55.2-9.65-24.6-7.15-46.15 1.7-14.75 8.25-24.75"/><path fill="#f09cb4" d="M55.8 74.85q7.2-2.85 16.1-3l7.4.45 35.3 42.3-3.25 81.45-16.85 34.2-13.05 16.7Q72.7 238.8 61.7 225q-22-27.7-33.2-56.15-17.25-44.05-.8-71.05 9.55-15.65 28.1-22.95"/><path fill="#d0879d" d="M22 111.05q1.2 8.05 7.8 19.65 7.05 12.45 17.95 24.65 27 30.25 61.85 42.8l.6.25-15.7 31.85-13.05 16.7Q72.7 238.8 61.7 225q-22-27.7-33.2-56.15Q15.25 135 22 111.05"/><path fill="#0d131a" d="M54.1 195.55l56.45 1.15 7.85 31.8q8.1 33.5 9.45 41.7 1.15 7.1.75 10.5-.45 3.75-3 6.45-5.45 5.7-30.15 6.35-42 1.25-58.5 1.25-6.9 0-10.85-1.75-3.65-1.65-3.65-4.25 0-3.75 5.4-8.6 5.9-5.2 14.1-7.75-2.95-4.3-5.9-10.8-5.95-12.95-5.95-23.85 0-13.55 6.65-24.3 5.65-9.15 17.35-17.9"/><path fill="#f09cb4" d="M110.15 288.75l-8.05.55-20.9.9-11.8.45q2-7.3-3.4-13.3-6.65-7.35-20.95-5.9-4.9-5.2-9.8-16.4-5.15-11.65-5.15-18.55 0-12 10.4-24.1 3.9-4.55 16.95-15.7l50.6 3.7 12.65 56.1 4.4 18.55q1.7 6.45-3.55 10.1-4.05 2.8-11.4 3.6"/><path fill="#d0879d" d="M110.15 288.75l-8.05.55-20.9.9-11.8.45q2-7.3-3.4-13.3-6.65-7.35-20.95-5.9-2.85-3.05-6.15-8.95-3.2-5.8-5.55-12.1 15.15 4.7 35.8-6.7 19.25-10.6 41-33.8l10.55 46.6 4.4 18.55q1.7 6.45-3.55 10.1-4.05 2.8-11.4 3.6"/><path fill="#c8c9ca" d="M26 289.2q-.2-.65.1-1.7 1.05-3.25 6.9-7.45 5.35-3.9 10.2-5.55l8.35-.25q5.95.9 10.5 4.05 2.5 1.7 3.45 3.5.9 1.65.7 3.95-.25 2.85-1.25 5.1l-23.2.7q-14.95 0-15.75-2.35"/><path fill="#eeeeef" d="M26.65 286.3q1.15-2 3.85-4.3 2.5-2.15 5.7-4.1l8.6-.65q4.1 0 8.7 2.6 4.5 2.5 4.5 4.5 0 1.75-11 2.5-11.25.75-20.35-.55"/><path fill="#0d131a" d="M40.5 216.3q7.75 0 13.05 7.05 5.3 7.1 5.3 17.5 0 10.45-5.25 17.4-5.25 6.9-13.1 6.9-7.7 0-12.8-7-5-6.95-5-17.45 0-9.7 5.1-16.9 5.25-7.5 12.7-7.5"/><path fill="#fdeabe" d="M51.25 225.45q4.45 6.75 4.45 15.65 0 8.75-4.6 15.25-4.65 6.55-10.95 6.6-6.2 0-10.55-6.55-4.3-6.45-4.3-15.3 0-8.9 4.45-15.65 4.5-6.9 10.7-6.9 6.2-.05 10.8 6.9"/><path fill="#dacaa5" d="M40.15 262.95q-5.1 0-9.1-4.65-3.9-4.5-5.2-11.45 11.9 7.85 28.4 3.15-1.9 5.7-5.7 9.25-3.85 3.65-8.4 3.7"/><path fill="#0d131a" d="M23.85 239.25q0-5.15 2.45-8.2 2.45-3.1 6.8-3.1t6.9 3.15q2.55 3.05 2.55 8.2.05 5.1-2.65 8.3-2.65 3.2-7 3.25-4.3 0-6.7-3.25-2.35-3.1-2.35-8.35"/><path fill="#f09cb4" d="M27.65 245.65q-1.7-2.55-1.7-6.4-.05-3.8 1.7-6.4 1.8-2.65 4.55-2.65 2.85 0 5.1 2.65 2.25 2.7 2.25 6.4t-2.25 6.4q-2.25 2.65-5.1 2.65-2.75 0-4.55-2.65m26.65-137.4q2.95-2.6 10.25-.45 8.85 2.6 14.15 11.6 5.15 8.8-6.9 31.3-4.25 8-9.6 15.6-4.65 6.65-6.6 8.2L43.7 184l-9.65 9.3q-7.65 7.7-10.1 9.3-2.95 1.95-6.4 3l-4.2.75q-3.95 0-7.25-6.1-3.55-6.55-3.55-15.7 0-8.85 3.6-17.75 3.25-8 11.1-19.85 4.55-6.8 18.9-21.35 11.55-11.65 18.15-17.35M171 74.15q4.8 0 14.7 1.95 10.4 2.05 14.35 4 7.3 3.65 15.5 8.55 12.05 7.25 17.25 12.3 5.3 5.15 11.85 10.35 5.1 4.1 7.15 5.3 2 1.2 5.25 4.5 3.95 4 4.8 6.7 4.95 15.45-.15 22.7-3.35 4.65-11.7 4.85-6.7.1-10.65-1.9-1.85-.9-6.7-5.2-5.1-4.5-7.65-5.95-4.85-2.8-12.35-6.05L204.9 133q-3.75-1.7-15.45-11.15-14.55-11.8-16.55-18.25-3.05-9.75-4.1-18.55-1.3-10.9 2.2-10.9"/><path fill="#f09cb4" d="M169.7 73.35q3.9 1.95 16.35 20.05 7.05 10.25 21.35 32.15 8.65 12.9 16.4 31.45 6.8 16.15 6.8 20.2 0 17.35-7.25 34.05-7.25 16.7-20.45 29.8-13.75 13.6-31.8 21.1-19.35 8.05-41.3 8.05-35.6 0-56.95-25.05-9.3-10.9-14.25-25.05-4.75-13.55-4.75-27.8 0-18.95 8.65-34.35 1.45-2.55 1.8-23.65.35-21.3.7-22.15 1.05-2.4 50.45-21.5 50.1-19.4 54.25-17.3"/><path fill="#f09cb4" d="M169.1 189.6q7.6-17.5 20.15-26.25 7.3-5.15 20.15-6.35 11.6-1.15 16 1.3 9.55 5.3 18.9 16.8 10.75 13.2 13.3 26 3.05 15.4 1.9 25.7-1.35 11.95-8.6 22-6.95 9.55-24.35 14-18.85 4.8-35.2-1.15-9.2-3.3-17.15-13.3-8.25-10.3-10.25-21.9-3.1-17.9 5.15-36.85"/><path fill="#fdeabe" d="M197.4 142.4q1.65 13.45-2.4 26.4-12.7 6.8-22.1 21.7-9.95 15.75-9.35 30.4-6.8 2.35-17.7 4.35-13.45 2.5-23.9 2.5-19.75 0-32.15-9.35-10.6-7.95-17.1-23.9-2.05-4.9-3.6-15.8-1.65-11.4-.75-16.7 9.55 14.4 21.25 20.55 18.65 9.85 47.75 4.3 22.6-4.35 38-23.5 11.75-14.6 17.95-35.7 2.9 4.8 4.1 14.75"/><path fill="#d0879d" d="M87.5 258.5q-17.3-10.7-24.45-27.05-3.6-8.25-6.35-20.2l-2.05-10.3q2.2 7.1 10.1 14 8.8 7.75 21.75 12.35 33 11.75 76.8-1.5 1.7 7.65 6.4 15.8 5.6 9.75 12.85 15-10.85 5.6-19.45 8.4-15.85 5.2-32.5 5.2-24.15 0-43.1-11.7"/><path fill="#dacaa5" d="M85.2 238.05q13.45 5.9 31.45 5.9 10.9 0 27.45-5 13.4-4.1 20.45-7.85.1 2.15 2.7 7.6 2.5 5.3 4.55 7.9-6.8 4.05-22.15 7.4-15.3 3.35-26.7 3.35-25.5 0-44.15-13.7-15.35-11.25-21.2-27.1 12.65 15 27.6 21.5"/><path fill="#d0879d" d="M241.5 171.9q11.85 13.8 16.1 28.5 4.65 16.05 1.55 30.75-3.3 15.8-14.4 23.4-6.4 4.35-23.3 7.8-19.35 4-28.1 0-10.55-4.75-16.35-9.8-5.65-4.85-8.95-11.8-1.3-2.65-3-9.5l-1.4-6q1.1 3.3 16.8 3.75 17.9.5 35.35-4.35 19-5.25 25.7-23.75 2.7-7.5 2.6-15.6-.1-7.65-2.6-13.4m-185.7 1.95l-8.4 7.45q-9.15 8.2-12.85 11.95-4.25 4.35-10.8 8.55-6.25 4.05-9.3 4.6-4.5.8-7.95-6 1.35.3 5.65-1.75 4.6-2.2 9.7-5.8 2.4-1.7 19.8-17.45 15.9-14.45 20.7-16.9-1.9 2.2-4.4 9-1.25 3.4-2.15 6.35m152.6-48.6l9.45 4.5q10.45 5.1 15.25 8.2 6.25 4.1 15.15 8.05 9.6 4.2 13.35 4.1-2.05 2.25-6.15 3.75-4.3 1.5-7.55 1-3.15-.5-7.85-2.8-4.25-2.1-7.65-4.6-2.5-1.85-7.7-5.1l-5.85-3.7q-1.05-.7-3.05-1.4l-1.8-.55-5.6-11.45m-38.5-51.1l6.5.55q-.35 19.8-8.65 31.8-12.5 18.1-44.55 24.8-31.6 6.6-51.55-1.95-12.55-5.35-20.7-17.2l5.2-4.3q12.45 6.95 25.3 6.85 11.05-.1 35.6-6.1 22.05-5.4 35.3-14.35 12.2-8.25 17.55-20.1"/><path fill="#0d131a" d="M85 249.05q-13.5-7.2-20.55-19.05-1.8-3.05-3.65-8.15l-1.45-4.55q23.25 23.6 49.1 25.6 22.85 1.8 55.2-13.4l.75 3.25q-27.45 15.15-55.3 12.75-28.4-2.45-46.9-22.35 15.7 25 44 30.5 27.15 5.35 63.8-7.6l1.65 2.5q-12.1 5.95-27.45 8.4-15.65 2.45-30.75.65-16.15-2-28.45-8.55M177.1 87.7q8.85 31.55.55 51.15-9.85 23.3-44.4 31.75-33.5 8.2-52.55-10.6-14.05-13.85-21-43.95-.35-1.45.95-1.85 1.15-.4 2.55.3 27.65 14 66.6-.15 15-5.45 27.35-13.7 11.4-7.65 15.1-13.8 1.4-2.35 2.65-2.25 1.4.05 2.2 3.1"/><path fill="#fdeabe" d="M174.75 87.3l1.95 9.55q5.35 29.75-5.4 47.1l-.05-.35-.2.3.25.05q-11.35 17.4-39.25 24.15-24.25 5.9-41.15-4.65-14.6-9.2-23-30.2-2.7-6.7-4.95-16.1 7.4 6.35 23.7 6.75 15.15.3 33.4-4.5 18.3-4.85 32.8-13.05 15.65-8.9 21.9-19.05"/><path fill="#dacaa5" d="M174.75 87.3l.3 1.4q-2.9 14.8-13.15 24.7-13.1 12.6-38.7 17.9-36.9 7.65-57.8-5.2l-2.45-8.95q7.4 6.35 23.7 6.75 15.15.3 33.4-4.5 18.3-4.85 32.8-13.05 15.65-8.9 21.9-19.05"/><path fill="#0d131a" d="M213.6 85.6q9.7 5.8 23.7 17.3l16.15 12.75q7.15 5.95 9.55 11 2.6 5.6 2.7 12.4.05 7.15-2.85 11.9-1.65 2.7-7.05 4.35-6.05 1.85-11.4.25-4.85-1.45-12.7-7.2-9.05-6.65-15.5-9.55l11.65 19.2 4 3.2q4.9 4.1 9.3 8.9 14.05 15.25 17.9 31.1 6.65 27.2-3.15 43.15-8.95 14.55-32.3 20.55-10.4 2.65-21.5.65-9.95-1.8-18.3-6.85-13.4 6.15-27.25 9.5-13.8 3.4-25.25 3.3-45.45-.15-66.35-34.3-8.3-13.6-11.2-30.6-2.6-15.15-.35-28.85l-5.3 4.6q-6.75 6.1-13.95 13.7-7.9 8.35-15.2 10.8-5.9 2-9.5-.2-4.15-2.55-6.6-7.8-3.55-7.55-2.7-19.3.9-13.4 16.55-34.55 15.7-21.25 36.85-37.6 8.55-6.6 24.4-14.65Q96 83.5 109.1 80.3q49.75-12.15 78.8-5.3 13.15 3.1 25.7 10.6M189 78.25q-14.85-3.8-33.6-2.75-19.25 1.15-45.7 7.6Q94 86.95 76.05 97.15 58.55 107.1 43 120.8q-16 14.1-26.15 28.8-10.9 15.85-13 29.55Q2.6 187.5 5.2 195.4q2.4 7.35 6.05 9.05 4.75 2.2 11.7-2.85 3.65-2.65 11.1-10.4 4.05-4.2 12.6-11.8l7.75-6.8q2.8-8 5.85-13 2.2-3.6 3-2.9.85.65-.75 3.75-7.5 14.4-6.4 35.15 1.2 21.75 11.6 39.45Q79.5 255.1 100 263.4q23.75 9.6 55.9 1.75 5.85-1.4 14.25-4.5 6.75-2.5 10.2-4.2-8.3-5.9-13.05-14.3-5.05-8.85-5.4-19.1-47.5 11.45-71.45-3.3-24.6-15.05-23.6-57.25.05-2.6 1.45-2.3 1.2.3 2.45 2.35 7.5 12.7 20.45 19.35 19.3 9.85 46.4 3.25 26-6.35 40.75-28.15 4.95-7.4 8.85-16.95l4.6-12.55q.65-1.75 1.75-1.55.95.15 1.4 1.35 4.6 11.8 4.15 24.65-.3 8.15-2.5 15.5 6.55-1.6 12-1.1 4.7.45 4.7 1.65l-6.25.15q-7.3.1-11.25 1.95-11.85 5.5-21 20.4-9.05 14.8-9.3 28.75-.15 9.6 3.85 18.7 4.1 9.25 11.6 15.8 17.3 15.1 42.25 8.9 21.7-5.4 29.95-19.5 8.85-15.1 2.6-40.75-4.1-16.85-17.85-31.6-4.3-4.65-9-8.5l-3.9-2.9q-14.85-27.75-16.75-32-1.4-3.1-.65-3.3.65-.15 2.3 2.4l5.45 9.25q4.9 2.2 15.8 9.2 9.65 6.2 13.55 7.4l10.55.35q4.1-1.1 5.5-3.15 1.55-2.2 1.85-8.35.35-7.4-2.25-12.7-2.1-4.25-8-9.25-7.15-5.55-10.45-8.5-15-13.45-25.85-20.45-13.3-8.5-27.05-12.05m6.85 76.15q.9-15.45-2.3-24.75-1.65 11.7-9.5 24.95-15.8 26.45-47 34.05-26.9 6.55-46.95-4.15-14.25-7.6-21.05-20.55-.25 35.8 22 51.7 24.7 17.65 70.85 4.5.6-18.75 11.6-34.45 9.55-13.55 20.8-17.7 1.1-5.85 1.55-13.6"/><path fill="#0d131a" d="M209 190.9q11-2.7 19.95 1.55 9.15 4.35 11.5 13.9 2.35 9.55-3.6 17.65-5.9 7.95-16.85 10.65-11 2.65-19.7-1.65-8.85-4.4-11.2-14-2.35-9.65 3.35-17.55 5.6-7.9 16.55-10.55"/><path fill="#fdeabe" d="M209.35 192.85q9.15-2.2 17.45 2.3 8.2 4.45 10.15 12.45 1.9 7.9-3.25 15.1-5.15 7.15-14.4 9.4-9.2 2.25-17.1-1.75-7.9-4-9.85-11.9-1.95-8 2.95-15.6 5-7.8 14.05-10"/><path fill="#dacaa5" d="M219.3 232.1q-5.7 1.4-11.3.25-5.4-1.1-9.4-4.3 8.9-1.1 17.2-3.4 13.9-3.8 21.45-15.3 1 7.5-4.1 14.05-5.15 6.6-13.85 8.7"/><path fill="#0d131a" d="M216.8 223.85q-5.5 1.35-9.7-.9-4.4-2.35-5.75-7.85-1.25-5.2 1.55-9.65 2.75-4.4 7.75-5.65 4.85-1.15 9.2 1.55 4.5 2.7 5.7 7.8 1.2 4.9-1.45 9.3-2.65 4.25-7.3 5.4"/><path fill="#f09cb4" d="M215.5 220.65q-4.2 1.05-7.1-.8-2.75-1.75-3.7-5.7-.85-3.4 1.3-6.95 2.15-3.6 5.6-4.4 3.95-.95 7.4 1.5 3.15 2.25 3.95 5.55.9 3.8-1.7 7.05-2.3 2.9-5.75 3.75"/><path fill="#0d131a" d="M19.9 190.9q2.95-2.75 7.45-2.4 4.3.3 5.8 2.95 1.8 3.1 1.5 5.95-.4 3.35-3.55 5.9-2.85 2.3-6.75 2.25-3.95-.05-6-2.65-2.25-2.8-1.7-6.2.45-3.25 3.25-5.8"/><path fill="#eeeeef" d="M31.7 196.7q.05 2.3-1.6 3.8-2.1 1.85-3.8 2.35-2.3.7-4.3-.85-4.85-3.8-.7-8.15 1.8-1.9 4.3-2.45 2.75-.6 4.35 1.15 1.7 1.9 1.75 4.15"/><path fill="#c8c9ca" d="M20 199.85q2.65 1.2 6 .4 3.3-.85 5.65-3.2-.1 2.1-1.55 3.45-2.1 1.85-3.8 2.35-2.3.7-4.3-.85-1.35-1.05-2-2.15"/><path fill="#0d131a" d="M234.8 146.35q.65-3.4 4.35-5.1l7.65-.2q3.1 1.3 4.4 3.55 1.4 2.45.9 6.2-.4 2.8-3.4 4.5-3.3 1.9-7.9.95-3.4-.7-5.1-3.75-1.55-2.85-.9-6.15"/><path fill="#eeeeef" d="M237.55 146.2q.55-2.3 3.3-3.05l4.95.2q5.7 1.95 3.15 7.55-1.05 2.35-3.45 2.8l-4.45-.35q-2.15-.55-3.15-2.65-.95-2.05-.35-4.5"/><path fill="#c8c9ca" d="M241.05 153.35q-1.85-.5-2.85-2.1-.95-1.55-.85-3.65 2 1.9 5.15 3.05 3.05 1.05 6 1.05-1.95 3-7.45 1.65"/><path fill="#0d131a" d="M201.65 256.95q6.7-7.85 16.4-10.2 11-2.7 20.45 1.35 9.45 4 8.3 10.65-.55 3.25-5.85 5.9-5.45 2.75-17.7 5.65-14.85 3.55-20.85 2.9-4.55-.5-5.5-3.9-1.45-5.05 4.75-12.35"/><path fill="#c8c9ca" d="M243.4 256.45l.15.5q.65 2.6-6.8 5.8-5.6 2.4-13.85 4.45-11.5 2.8-16.85 2.9-5.6.05-6.3-2.8l-.05-.55q10.05-1.05 22.05-3.85 12.3-2.9 21.65-6.45"/><path fill="#eeeeef" d="M219.9 249.25q7.9-1.95 15.5 1.05 6.5 2.55 8 6.15-9.35 3.55-21.65 6.45-12 2.8-22.05 3.85-.1-3.7 5.75-9.3 6.45-6.25 14.45-8.2"/><path fill="#0d131a" d="M164.65 85.3q-14.3 17.8-46.85 25.7-33.6 8.2-53.05 2.05Q48.55 107.9 45 94.2q-1.75-6.6 1.2-17.6 3.3-12.15 2.7-17.8-2.1-21.05 11-37.15 12.15-14.85 32-19.8 20.15-5 38 2.95 19.8 8.85 29.15 31.1 1.2 2.85 6.9 11 5.15 7.4 6.35 11.5 1.55 5.5-.1 12.2-1.85 7.65-7.55 14.7"/><path fill="#f09cb4" d="M164.35 49.65q4.1 6 5.2 10.5 3.6 14.7-14 29.4-16.25 13.5-39.95 19.3-32.85 8-50.8 1.6-13.85-4.9-16.6-17-1.4-6.1 1-15.6 2.75-10.9 2.25-18.35Q50.1 39.05 62.3 23.85 73.6 9.8 92 5.2q18.6-4.7 35.65 2.65 18.8 8.1 28.8 28.45l3.65 6.55 4.25 6.8"/><path fill="#0d131a" d="M71.2 64.8q-2.4.45-4.65-.8-2.3-1.3-2.85-3.6-.8-3.35.4-6 1.35-2.8 4.55-3.6 2.6-.6 4.75 1.4 2.1 1.95 2.4 4.95.3 2.7-.9 4.85-1.3 2.35-3.7 2.8"/><path fill="#fff" d="M69.6 56.7q-1 .25-1.85-.35-.9-.6-1.15-1.65-.25-.9.25-1.8.55-.95 1.55-1.2.95-.2 1.75.45.7.6.95 1.6.25 1.05-.2 1.9-.45.85-1.3 1.05"/><path fill="#0d131a" d="M135 48.5l-4.7-.15q-2.5-1-3.65-3.45-1.25-2.7-.55-5.5.7-3 3.3-4.05 2.65-1.05 5.3.3 2.5 1.25 3.75 4 1.15 2.4.15 5.1-1 2.85-3.6 3.75"/><path fill="#fff" d="M131.75 40.85q-.75.2-1.6-.35-.9-.55-1.1-1.45-.25-1 .15-1.85.4-.9 1.35-1.15 1-.2 1.75.3.8.5 1 1.5.25 1-.15 1.9-.45.9-1.4 1.1"/><path fill="#0d131a" d="M104.2 72q-.25.45-2.6-.75-2.35-1.15-1.8-1.8.6-.75 2.65.7 2 1.4 1.75 1.85"/><path fill="#922f00" d="M92.85 79.3q11.1.75 15.5-.35 4.85-1.2 12.9-7.45 8.1-6.25 12.85-7.5 3.9-1.05 8.25-.8 3.95.15 6.8 1.25 8.4 17.1-1.9 26.95-7.15 6.8-29.3 13.4-20.8 6.25-33.85 3.7-17.3-3.45-18.45-22.15 1.6-1.8 3.95-3.55 2.8-2.1 4.75-2.55 7.25-1.65 18.5-.95"/><path fill="#0d131a" d="M110.45 70.5q-.6-.4.65-2.65 1.25-2.2 2.1-1.65.85.55-.7 2.55-1.6 2.05-2.05 1.75"/><path fill="#0d131a" d="M108.95 80.2q-5.3 1.2-17.65.5-11.15-.6-15.35 1.1-5.7 2.3-8.65 5-2.45 2.25-3.6 5.45-.7 2-1.75 1.5-1.05-.45-.5-2.1 3.1-9.7 13.4-13.1 5.5-1.8 16.1-.7 11.3 1.15 17.5-.3 6.5-1.5 12.5-7.25 6.05-5.8 13.95-7.75 8.4-2.05 17.4 2 1.8.8 1.8 1.6l-2.25.05q-4.7-1.65-8.5-1.85-3.5-.15-7.5.8-6.3 1.55-13.45 7.65-7.05 6-13.45 7.4"/><path fill="#0d131a" d="M147.7 64.45l1.35-.15q1.55.25 1.75.6 7.75 14.55-.85 24.65-8.55 10.05-33.95 16.7-22.9 5.95-36.65 1.3-14.25-4.85-14.6-19.75-.05-.4 1-1.5 1-1.1 1.05-.7.95 15.25 13.95 19.95 12.55 4.55 34.75-1.25 24.8-6.5 32.85-17.1 7.6-10.1-.65-22.75"/><path fill="#0d131a" d="M100.65 86.55l9.35-.4q4.05-1.05 8.65-4.65 4.6-3.6 11-5.2 9.2-2.25 15.45-.3 5.8 1.85 7 6.55.95 3.75.3 8.8-.7 5.5-.3 7.95 2.6 15.5 20 58.55 18.05 44.65 21.05 58.7 4.2 19.45-6.4 35.3-9.85 14.75-26.8 18.9-19.35 4.75-33.95-2.25-16.05-7.7-23.3-28.45-4.3-12.3-10.6-60.7-6.5-49.85-11.65-66.5-.95-3.1-4.45-6.7-3.45-3.45-3.65-4.3-1.45-5.5 7.25-10.65 9.2-5.45 21.05-4.65"/><path fill="#eb6d65" d="M102.2 89l8.35-.4q4.35-1.3 9.7-5.4 4.75-3.5 10.1-4.8 8-1.95 13.5-.55 5 1.25 6.1 4.7.85 3.6-.1 8.25-1.05 4.7-.15 8.95 4.15 20.25 20.15 60.75 16.45 41.5 19.55 55.25 4.05 17.9-4.35 32.6-8.45 14.85-25.8 19.5-19.15 5.15-33.8-3.55-14.35-8.55-20.6-28.05-1.85-5.65-9-54.5-7.35-50.2-12.45-68.05-1.55-5.5-5.35-8.95-3.6-3.3-3.75-4.1-.45-2.35 4-5.75 5-3.8 12.5-5.65Q96.05 88 102.2 89"/><path fill="#cb5d57" d="M111.45 92.4l-10.2.65q-5.85-.35-10.65.65-5 1.05-9.5 3.35-3 1.55-6.6 4.2l-.2-.6q-.45-2.35 4-5.75 5-3.8 12.5-5.65Q96.05 88 102.2 89l8.35-.4q4.35-1.3 9.7-5.4 4.75-3.5 10.1-4.8 8-1.95 13.5-.55 5 1.25 6.1 4.7l.4 2.35q-5.25-2.05-8-2.65-5.25-1.2-9.85-.25-3.35.65-9.4 4.9-6.15 4.3-11.65 5.5m-6.6 143.85q-1.2-3.7-3.4-16.75 7.7 17.4 19.35 29.15 16.05 16.2 32.55 12.25 15.75-3.8 25.8-13 8.1-7.45 11.35-17.15-1.2 13.35-9.35 23.3-8.4 10.2-21.9 13.8-19.15 5.15-33.8-3.55-14.35-8.55-20.6-28.05"/><path fill="#0d131a" d="M114.35 103.15q-.95-4.35-.2-4.6.75-.3 2 4.2 4.95 17.65 18.05 70l13.75 54.65q1.25 4.55.2 4.45-1-.1-2.35-3.75-.6-1.65-13-51.5l-18.45-73.45"/></svg>