<svg xmlns="http://www.w3.org/2000/svg" width="304" height="280" viewBox="-1.1 -0.9 304.05 279.85"><path fill="#e7d35a" d="M243.3 43.7q5.95-2.95 13.2-1.2 3.6.9 6.05 2.35l3.1-2.55q4.05-2.55 8.65-2.5 4.65.05 8.65 5 2 2.5 3.1 4.95l2.05.3q2.45.55 4.65 1.6 6.9 3.4 8.2 10.95 1.25 7.55-2.75 13.3l-2.9 3.15-1.4 1.05q2.05 3.65 1.8 9.4-.3 6.3-3.5 9.5-4.9 4.9-13 4.75l-5.1-.6-2.05-.55q-.85 1.9-3.05 3.8-4.4 3.85-11.05 3.9-7.2.05-12.1-4.2-4.15-3.6-5.45-9.1-8.85 4-9.4 3.45-.35-.35.75-2.6l1.15-2.2-5.6 3.05q-5.65 2.95-5.85 2.55-.2-.45 5.6-6.95l5.85-6.4q-3.75-2.25-5.2-4.05-2.95-3.7-2.45-9.45.5-5.25 4.85-9.7 2.2-2.2 4.25-3.4-.15-3.2.9-7.05 2.1-7.6 8.05-10.55"/><path fill="#c2b14b" d="M280.65 80.15q7.25-.85 7.55-7.2 5.8.6 9-2.05 2.85-2.4 3.4-7.2l-.15 6.15q-1.25 6.85-6.55 10.25l1.7 6.2q.9 7.1-2.9 11.6-4.15 4.8-10.9 5.75-5.4.7-9.75-1.05-1.3 2.35-4.1 4.5-5.6 4.2-13.15 3-7.55-1.2-11.75-7.25-1.3-1.9-2.1-4.05l-.55-1.8-9.4 3.45 1.9-4.8-12 5.95 12.4-13.4q-3-1-5.35-3.95-4.7-5.9-1.25-15.6l.6 1.95q.9 2.25 2.45 3.8 4.95 5.05 14.3 1.45.55 3.15 3.65 5.65 3.05 2.5 7.1 3.15 10.05 1.6 15.2-8.1 3.65 4.4 10.65 3.6"/><path fill="#0d131a" d="M222.9 98l9.5-10.75 1.8 1.1-9.75 10q-1.15 1.25-1 1.3l1.8-.8 5.55-2.75q2.9-1.5 3.15-1.3.15.2-1.25 2.8-.95 1.7-.85 1.8.15.15 2.1-.65l5.05-2.2q1.25-.6 1.5-.4.25.1.7 1.5 1.75 5.4 6.5 8.6 4.25 2.85 9.4 3.15 4 .2 7.65-1.4 4.35-2 6.85-6.2 2.05-3.45 2.5-3.05.5.35-1.35 3.95-1.9 4.15-6.15 6.65-4.45 2.55-9.6 2.2-6-.4-10.3-3.55-4.85-3.5-6.8-10.05l-7.7 2.9q-2.3.7-2.55.4-.25-.25.65-1.8l1.1-2.1-6.25 3q-5.05 2.45-5.5 2.1-.45-.4 3.25-4.45"/><path fill="#0d131a" d="M297 53.8q4.45 3.65 5.25 9.3.7 4.85-1.35 9.6-2.05 4.8-6.15 7.6 2.15 5.5 1.45 11.35-.7 5.4-3.4 8.45-3.2 3.45-9 4.25-5.35.7-12.15-1l.45-1.3q6.05 1.55 11.05.55 5-1 8-4.3 2.45-2.65 3.2-7.05.75-4.65-.75-9.65-.4-1.35-.3-1.75.15-.4 1.2-1.1 3-2 4.55-6.4 1.6-4.5.95-9-.65-4.3-3.25-7.35-3.75-4.45-11.05-5.5l.25-1.25q6.75.95 11.05 4.55"/><path fill="#0d131a" d="M260.55 46.5q2.25-4.3 6.65-6.6 4.5-2.3 8.8-1.2 3.8.95 6.85 4.35 2.9 3.25 3.7 7.05.6 2.75.2 3.05-.4.25-1.4-2.7-1.15-3.45-3.65-5.9-2.6-2.6-6.05-3.5-3.9-1-7.5.6-3.7 1.55-6.35 5.35-1.5 2.15-2 2-.5-.15.75-2.5"/><path fill="#0d131a" d="M252.35 40.75q5.15.6 10.65 3.6l-.6 1.15q-4.9-2.7-9.75-2.95-4.8-.3-8.7 1.9-3.7 2.05-5.95 6-2.25 3.9-2.8 9.3l-.4 2-1.05.85q-4.2 2.45-6.2 6.8-1.75 3.9-1.35 8 .8 6.65 7.25 9.95 2.05 1.1 1.9 1.55-.15.4-2.35-.4-3.7-1.4-6.15-4.15-2.7-3-3.1-6.75-.45-4.3 1.95-8.8 2.7-5.05 7.9-7.85.45-6.55 2.6-11.25 2.4-5.05 6.5-7.35t9.65-1.6"/><path fill="#e7d35a" d="M201.35 59.9q.8 1.75.6 3.1l1.7 1.65q1.35 2.2-.35 5.1-1.85 3.2-4.9 2.65-2.5-.45-5.15-3.2-1.25.2-2.7 0-2.85-.35-3.9-2.4-1.35-2.65.65-5.4 2.15-2.9 5.5-1.3l1.7-1.6q2.15-1.5 4.45-.95 1.5.4 2.4 2.35"/><path fill="#c2b14b" d="M187.55 60.9q-.35 2.1 2.05 3.25 2.3 1.05 4.75.4 1.2 2.25 4.3 2.9 3.45.75 5.2-1.8l.15 3.2q-.55 3.15-4.1 3.2-3.55.05-5.4-1.55l-1.15-1.65q-2.8.15-4.9-.75-4.25-1.85-.9-7.2m12.9-2.45q1.05.45 1.55 2.55l.3 2.05-3.25-.8q.85-.2 1.3-1.6.45-1.35.1-2.2"/><path fill="#0d131a" d="M192.6 59.8q2-3.8 6-3.1 4.15.75 4.1 6.4l-.9-.35q-.55-4.45-3.95-4.8-3.1-.3-4.45 2.2l-.8-.35"/><path fill="#0d131a" d="M194.2 60q1.4 1.2 1.1 1.6-.3.45-1.9-.75-1.9-1.4-4.15-.2-2.2 1.2-2.2 3.6 0 1.8 1.65 2.95 1.5 1.05 3.65 1.05l1.25.15 1.1.85q1.7 1.7 3.65 2.05 2.15.35 3.85-1.15 1.7-1.55 1.25-4.15-.4-2.7-2.55-2.95-2.3-.25-2.2-.8.05-.55 2.3-.2 3.5.55 3.95 4.15.35 3.3-1.8 5.25-2.1 1.9-4.9 1.3-2.7-.55-5-3.25-3.4.3-5.4-.9-2.3-1.35-2.3-4.35 0-3.3 3-4.85 3.05-1.6 5.65.6"/><path fill="#e7d35a" d="M78.7 44.9q-.35 7.15-6.15 11.8-2.85 2.35-5.7 3.25l.7 3.8q.35 4.25-1.45 6.2-1.8 1.95-5.3 2.5l-3.15.2q3.4 10.8 2.85 11.05-.5.25-7-6.35.65 4.5 0 4.8-.65.25-5.6-5.35-2.55 1.65-6.15 2.55-7.15 1.9-12.25-1.5-3.6-2.4-4-7.6-.25-3.95.75-5.5-5 .45-10.55-1.35-11.1-3.6-13.85-15Q0 40.65 5.95 32.1q4.9-6.9 9.25-8.5-.4-3.4.4-7.6 1.65-8.45 7.8-12.4 6.15-3.95 14.85-.8 4.35 1.6 7.45 3.95l6.9-.8q7.6.05 10.9 4.4 3.3 4.4 2.75 12.05-.25 3.85-1.2 6.8l2.2.85q2.65 1.15 4.8 2.7 6.95 5 6.65 12.15"/><path fill="#c2b14b" d="M78.6 48.2q-1.95 5.3-7.05 9.05-2.55 1.9-4.7 2.7l.4 4.45q.05 4.7-1.55 6-1.6 1.3-5 1.9l-3.05.35q3.65 10.6 2.85 11.05-.75.45-7-6.35.65 4.55 0 4.8-.65.2-5.6-5.35-2.45 1.75-5.8 2.85-6.75 2.2-11.3-.85-4.55-3.1-5-8.9l.45-5.15q-4.95-.05-10.35-1.7-10.8-3.3-13-11.15-2.25-7.8.05-14.45.7-2.1 1.8-3.8l.95-1.3q-.9 7.8 3.95 11.4 4.9 3.7 14.7 2.2 4.45 8.85 15.5 9.6 11.2.7 18.4-7.8 8.8 2 13.95-2.85 4.6-4.35 2.9-9.4l2.9 3.2q2.5 4.2.6 9.5"/><path fill="#0d131a" d="M65.5 17.6q-.7-4.55-3.35-7.3-5-5.3-14.95-2.95l-1.55.2-1.45-.75q-4.5-3.45-9.75-4.25-5.3-.8-9.65 1.35-4.45 2.2-6.75 6.85-2.25 4.6-2.15 11.15l-.25 2.1-1.15 1.05Q8.15 28.8 4.95 35.6 1.7 42.4 3.15 49q1.5 6.65 7.3 10.6 5.8 3.95 14.9 4.55 1.5.1 1.65.4.15.25-.3 1.8-.85 3.45.15 6.45 1 2.85 3.45 4.6 3.15 2.2 7.55 2 5.05-.2 10.2-3.55 1.75-1.1 2.1-.7.35.4-1.3 1.55l1.55 1.8 1.8 2 1.1.85v-1l-.4-2.4q-.25-1.7-.05-1.8.2-.1 1.5 1.15l3.4 3.5 1.6 1.35q.3-.05-.25-1.8l-2.15-6.65q-.45-1.3-.25-1.6.15-.25 1.45-.25 4.6 0 6.7-2.5 2.25-2.7 1.35-7.95-.2-1.45 0-1.9.2-.35 1.35-.85 4.9-2.2 7.6-6.2 2.7-4 2.45-8.7-.25-4.5-3.3-7.95-3-3.4-8.15-5.05-1.55-.5-1.7-1-.2-.45.35-2.45 1.4-5.2.7-9.7m-1.35-8.75q3.65 3.8 3.75 9.75.1 4.4-1.8 10.5 6 1.7 9.65 5.55 3.7 3.9 4 9 .25 4.7-2.4 9-3.25 5.15-9.8 7.6 1.8 6.65-1.15 10.2-2.2 2.65-8 2.65l1.9 6.45q1.45 5.45.65 5.6-.65.1-4.5-3.9l-2.4-2.75.35 3.15q.15 1.85-.45 1.75l-1.9-1.4-4.8-4.25q-5.35 3.45-10.5 3.7-4.9.25-8.2-2.35-2.9-2.25-3.65-6.4-.65-3.55.5-7.05Q15.15 65 8.65 60.8 2 56.5.4 49.35-1.1 42.6 2.5 35.4q3.8-7.7 11.65-12.05l-.05-1.9q-.25-6.6 2.3-12.05 2.6-5.55 7.2-7.9Q28.45-.9 34.75.45q6.1 1.3 11.05 5.5 5.1-1.6 10.25-.85 5.3.8 8.1 3.75"/><path fill="#e7d35a" d="M28.7 103.55q4.2 1.7 5.35 5.05.75 2.15.3 6.15l3.35 4.7q2.8 5.55.1 9.9-1.65 2.65-5.6 3.7-4.05 1.15-7.25-.35-1.2 1.4-3.1 2.35-3.75 1.95-7.1-.1-2.3-1.45-3-4.05-.45-1.95 0-3.85-2.25-.5-4.3-2.15-4.05-3.3-2.85-9.05 1.2-5.7 6.75-7.2l5.25-.35q1.45-1.8 3.7-3.35 4.5-3 8.4-1.4"/><path fill="#c2b14b" d="M6 112.05q-.4 2.85 1.05 4.9 2.1 3 7.3 2.65 1 4.05 6.1 5.15 5.15 1.05 8.3-2.4 1.55 2.7 5.3 2.65 4-.05 4.2-4.6l.6 3.7q.05 4.15-2.4 6.6-2.45 2.45-7.25 2.45l-4.25-.45q-1.3 1.3-3.3 2.15-4 1.8-7.65-.1-2.35-1.25-2.55-4.6l.3-3.1q-1.6-.1-3.3-1.05-3.45-1.9-3.95-6.25-.4-3.8.5-6.1l1-1.6"/><path fill="#0d131a" d="M27.85 104.5q-3-.65-5.9.55-3.3 1.4-5.05 4.6-1.35 2.55-1.9 2.2-.6-.4.9-2.95-4.65-.9-7.7 2.1-2.7 2.55-2.85 6.25-.15 3.55 1.6 6 1.6 2.35 4.35 3 1.1.25 1.25.65.15.25-.1 1.4-.85 4.4 2.85 5.95 3.75 1.6 8.25-1.4.8-.55 1.3-.55l1.45.15 6-.3q2.9-.95 4.45-3.3 1.7-2.5 1.3-5.7-.45-3.55-3.25-6.3-.95-.9-1.05-1.35l.05-2.1q.35-3.2-1.15-5.65-1.6-2.55-4.8-3.25m-5.75-1.3q3.35-1.5 6.25-.9 4.45.95 6.15 5.1 1.4 3.4.55 7.7 3.95 3.3 4.8 8 .8 4.25-1.2 7.25-2.05 3.05-6.3 3.7-3.4.45-7.45-.65-5.5 5-10.55 2.3-2.15-1.15-3-3.3-.9-2.3-.05-4.85-3.95-.85-6.15-3.65-2.1-2.6-2.1-6.15 0-5.55 4.65-8.5 4.25-2.75 9-1.5 2-3 5.4-4.55"/><path fill="#e7d35a" d="M266.9 166.9q.5 3.4-2.45 5.95l-3.1 1.85q-.3 1.5-1.2 3.05-1.8 3.1-4.75 3.2-2.95.15-5.35-2.05l-1.8-2.2q-2-.35-3.85-1.3-3.8-1.95-3.3-4.95t3.65-4.55q1.55-.8 3-1 .35-1.55 1.05-3.25 1.5-3.3 3.6-3.85l3.85.15q2.1.75 4.1 3.25l3 .8q3.05 1.5 3.55 4.9"/><path fill="#c2b14b" d="M266.15 164.4q.7 1.35.8 2.75.3 4.45-5.6 7.55-.05 1.4-.75 2.85-1.4 2.9-4.6 3.3-3.2.45-5.8-1.8l-1.95-2.35q-2.55.15-4.85-2.1-2.45-2.35-1.9-5.25.2 1.35 2.1 2.5 1.95 1.2 4.5 1.5 6.5.75 9.35-4.75l5.1-.15q3.2-1.3 2.95-5.1l.65 1.05"/><path fill="#0d131a" d="M265.95 166.4q-.2-1.7-1.45-2.85-1.25-1.15-3.25-1.5l-1.25-.3-.85-.8q-1.3-1.6-2.95-2.25l-3.3-.2q-1.7.45-2.9 2.05-1.15 1.6-1.55 4 1.65 0 2 .5.4.55-1.8.5-2.7-.05-4.5 1.55-1.75 1.5-1.85 3.75-.1 1.8 1.25 3.25 1.5 1.6 4.3 2 .65.1.95.3l.7.9q.7 1.25 2.55 2.05 2 .8 3.9.5 1.9-.35 3.05-1.55 1.2-1.2 1.4-3.05.1-.85.3-1.05.15-.2.95-.55 2.3-1.05 3.5-3.25 1.1-2 .8-4m-23.7 8.4q-1.65-1.65-1.7-3.6-.05-2.5 1.75-4.35 1.85-2 4.95-2.3.25-3 1.6-5.05 1.4-2.1 3.65-2.7 1.9-.45 3.9.45 2.2.95 4.05 3.4 2.9.25 4.9 1.75 2.05 1.55 2.4 3.95.35 2.45-1.1 4.75-1.65 2.55-4.9 3.9-.25 2.75-1.95 4.6-1.5 1.65-3.6 2-2.3.4-4.6-.75-2.45-1.25-3.55-3.5-3.75-.45-5.8-2.55"/><path fill="#e7d35a" d="M86.75 257.65q-.9 5.85-6.2 8.95-4.35 2.5-9.8 2.45l-2 3.9q-3.05 4.05-8.25 4.7-5.4.7-8.85-1.25-2-1.2-3.9-3.85-2.25-.3-4.55-1.2-4.7-1.7-5.2-4.5-.85-4.85 3.9-8.85-2.45-1.95-4.25-5.2-3.6-6.45-.3-12.75 2.55-4.85 7.95-6.5l7.15-.25q1.7-2.05 4.55-3.65 5.7-3.2 11.55-.9 5.85 2.3 7.9 8.4 1.05 3.05.9 5.65l5.2 4.25q5 5.3 4.2 10.6"/><path fill="#c2b14b" d="M85.85 259.3q-2.45 8.55-15.1 9.75l-.25 1.25q-.5 1.5-1.5 2.8-3.2 4.2-10.6 4.95-4.25.45-7.85-2.2-2.95-2.2-2.8-3.3-2.05.15-4.25-.6-4.45-1.45-5.35-5.8-.5-2.65 1.1-5.4 1.4-2.45 2.65-2.75-2.05-1.4-3.75-3.85-3.45-4.9-1.65-10.2l.05 1.2q.2 1.45 1.05 2.65 2.8 3.85 11 3.85 2 6.8 9.8 8.4 7.8 1.65 11.9-3.9 6.1 2.95 10.45 1.7 4.55-1.3 5-6.8l.5 2.55q.35 3.05-.4 5.7"/><path fill="#0d131a" d="M86.15 249.85q2.6 4.55 1.15 9.5-1.4 4.85-5.95 7.7-4.6 2.9-10.65 2.6l.05-1.25q4.95.25 9.05-2.5 4.15-2.75 5.4-7.1 1.15-4.05-.75-7.9-1.85-3.8-6.45-6.7-.9-.5-1.1-.9-.3-.5-.25-1.5.2-3.75-1.7-6.9-1.95-3.3-5.5-4.9-4.25-1.9-8.95-.85-4.55 1.05-7.5 4.45l-1.15-.65q3.9-4.55 9-5.8 4.8-1.2 9.25.85 4.65 2.1 6.7 6.5 1.75 3.7 1.3 8.05 5.55 2.9 8.05 7.3"/><path fill="#0d131a" d="M37.4 267.3q-.8-2.3.25-5.05 1.1-2.8 3.7-4.45l.8.9Q39.7 260.5 39 263q-.55 2 .1 3.8.7 2 2.8 3.3 2.05 1.35 5.1 1.7l1.1.25.7.85q2 3.15 6 4.05l7.25-.35q3.8-1.15 5.95-3.7 1.8-2.2 2.15-5.2.35-2.65.85-2.5.5.1.4 2.6-.15 3.5-2.15 6.4-2.4 3.45-6.75 4.75l-8.25-.25q-4.55-1.55-6.8-5.5-3.75-.35-6.4-1.85-2.75-1.6-3.65-4.05"/><path fill="#0d131a" d="M51.75 232.6q3.35.55 3.25 1.1l-3.45.15q-4.25-.15-7.8 1.6-4.15 2.05-5.9 6.2-1.75 4.05-.45 8.4 1.45 4.95 6.7 9 2.15 1.65 1.75 2.1-.4.45-2.6-1.05-5.95-4.15-7.85-9.9-1.7-5.1.1-9.45 1.85-4.45 6.6-6.75 4.55-2.15 9.65-1.4"/><path fill="#e7d35a" d="M35.4 207.3q.9 2.5-.25 3.6-1.4 1.3-3.1 1.15-1.7-.15-4.05-1.75l-2.7.35q-2.8-.15-3.2-2.55-.35-2.45 1.65-4.05l2.1-1.15q.55-1.5 1.55-2.8 2.05-2.7 4.4-1.95 2.35.75 2.65 3.9.15 1.6-.2 3l1.15 2.25"/><path fill="#c2b14b" d="M35.65 207.7q.1 1.5-.75 2.75t-2.2 1.5l-2.85-.35q-1.6-.5-1.95-1.1l-2.5.05q-2.6-.25-3.05-1.5-.45-1.3.1-2.95l.7-1.45q-.05 1.8 1.6 2.35 1.6.55 2.9-.8.85 1.35 2.4.8 1.6-.55 1.5-2.25 1.05.35 1.95-.45.65-.6.8-1.6-.05 1.9.15 2.5l.7 1.35.5 1.15"/><path fill="#0d131a" d="M34.95 208.4q0-1.35-.7-2.15-.5-.65-.55-1.05l.15-1.3q.3-1.7-.3-3.05-.7-1.5-2.25-1.9-1.5-.35-2.8.7-1.1.9-1.75 2.7l-.45 1.05-1.05.6q-1.15.4-1.8 1.4-.7 1-.55 2.05.2 1.25 1.25 2 1.15.8 2.7.6l1.05-.1 1.15.35q1.15.8 2.6.85 1.6.1 2.45-.65.8-.7.85-2.1m-.2-8.5q.8 2.3.05 5 1.3 1.35 1.45 3.4.2 2.1-.95 3.25-1.2 1.15-3.25 1-2.1-.15-4.2-1.65l-4.3-.2q-2.2-1-2.2-3.55 0-1.55 1.25-2.8 1.1-1.2 2.9-1.8.75-3 2.45-4.5 1.75-1.6 3.85-1.05t2.95 2.9"/><path fill="#e7d35a" d="M244.95 254.6q-1.7 2-3.4 2.85l-3.1 5.95q-4.05 6-9.1 6.35-5.6.4-10.3-3.05-4.1-3-5.05-6.7-3.15-.05-6.5-1.15-6.65-2.2-7.5-7.45-.85-5.25 3.45-9.3l4.45-3q-.4-1.45-.4-3.25-.05-3.65 2-5.55 2-1.9 6-1.45 2 .25 3.6.85 3.4-4.8 9.3-3.55 5.75 1.2 7.05 6.6l6.25 2.75q6.3 3.85 6.45 9.45.15 5.65-3.2 9.65"/><path fill="#c2b14b" d="M247.8 244.3q1.15 7.6-6.25 13.15l-.55 1.85q-.8 2.25-2.05 4.1-4.05 5.95-11.1 6.05-7.05.1-11.15-4.65-1.3-1.5-2.1-3.3l-.6-1.5q-4 0-7.8-1.55-7.55-3.05-6.45-10.6 1.05 3.15 5.95 3.95 5 .85 9.9-1.6 1.45 2.45 4.6 3.8 3.05 1.3 6.35 1.05 8-.55 8.75-7.85 5.45.25 8.25-1.65 3.5-2.4 1.6-7.75l1.1 1.85q1.15 2.3 1.55 4.65"/><path fill="#0d131a" d="M245.4 237.35q3.6 3.2 4 7.1.8 7.8-7.45 13.4-1.55 6-5.65 9.65-3.65 3.25-7.9 3.55-4.9.35-9.05-2.65-4-2.95-6.15-8.25l1.4-.15q1.65 4.15 5.45 6.55 3.8 2.4 8.25 2.1 4.3-.3 7.5-3.05t4.6-7.35l.5-1.25q.2-.25.95-.8 2.85-2.2 4.25-5.55 1.4-3.25.9-6.2-.6-3.65-3.45-6.35-2.85-2.7-7.5-4.05-1.15-.4-1.55-1.45-.8-2.3-2.5-3.8-1.7-1.45-4-1.75-3.45-.5-6 .85-2.4 1.35-4.35 4.6-.9 1.5-1.25 1.45-.35-.1.35-1.9 1.3-3.2 4-5.1 3.25-2.25 7.35-1.7 2.75.4 4.9 2.5 2.05 2 2.95 4.95 5.75 1.3 9.45 4.65"/><path fill="#0d131a" d="M212.95 227.9q2.9-.15 6.25 1.3l-.4 1.15q-5.55-2.2-8.45.3-1.4 1.25-1.95 3.35-.45 1.85-.15 3.9l.05 1.45q-.15.3-.9.7-3.75 1.75-5.6 4.75-1.85 3.05-1.05 6.35.8 3.35 3.95 5.55 3.85 2.65 9.95 2.65 2.25-.05 2.35.6.05.6-2.2.65-6.85.05-11.4-2.85-3.9-2.55-4.8-6.25-.8-3.5 1.45-7.05 2.3-3.6 6.95-5.7-1.25-6.55 2.05-9.5 1.35-1.2 3.9-1.35"/><path fill="#796bae" d="M168.2 73.1q14.95 7.55 26.6 21 10.7 12.3 16.7 27.25 5.8 14.4 5.8 27.4l-.3 7.5q8.1 5.5 8.6 7.5.5 1.9-.85 8.5-1.3 6.55-2.2 7.25-.95.8-12.3 2.9-8.6 19.45-25.45 32.55-17.15 13.35-38.55 16.75-5.4 7.7-6.4 8.7-1.5 1.5-9.15.85-7.8-.65-10.25-2.8-.9-.85-2.85-7-15.9-2.8-29.65-11.4l-10.45.8q-1.8-.3-6.4-5.15-4.15-4.35-4.95-5.9-.6-1.2.3-8.8-10.6-13.2-15.2-29.35-3.95-1.65-5.7-3.05-1.7-1.35-2.6-9.7-.75-7.3-.35-9.4.2-1.15 5.65-5.95 1.35-21.2 12.55-39.1-4.1-9.6-3.75-10.9.4-1.4 6.45-7.05 6.2-5.8 7.75-5.8 1.55 0 8.2 2.75Q90.55 74.5 104 69.7q13.85-4.95 28.7-4.95 18.85 0 35.5 8.35"/><path fill="#695c97" d="M217.45 150.15q0 9.45-2.5 19.6-6.65 26.6-25.8 42.25-27.95 22.8-62.25 20.4-13.1-.95-25.3-5.5-10.3-3.85-16.95-9 28.8 5.35 53.45.7 22.75-4.3 40.15-16.6 16.3-11.55 26.05-28.75 9.45-16.6 11.25-35.75 1.9 4.2 1.9 12.65"/><path fill="#695c97" d="M145.25 232.05l-1.35 3.35q-1.8 3.6-4.05 5-2.7 1.7-9.6 1.05-6.75-.6-9.05-2.55-1.3-.55-2.55-4.05l-1-3.4 27.6.6m-67-10.9q-1.6-.1-5.35-3.35l-3.45-3.25q4.4 1.4 7.8.8 1.7-.3 2.5-.9l7.9 5.65q-4.55 1.35-9.4 1.05m135.25-50.8l4.85 2.6q5.15 2.1 6.65-.35-1.35 6.65-2.9 7.35l-6.7 1.9-5.5 1.35 3.6-12.85M49.6 161.1l1.55 10.8q-4.3-2.4-6-3.95-1.1-.95-1.7-5.3l-.35-4.1q.3 2.8 3.45 2.95l3.05-.4m8.9-69.4l2.8 2.6q3.3 2.7 5.65 3.15l-5.8 7.85-2.1-5.45q-2.1-5.6-1.95-6.3.2-.7.8-1.35l.6-.5m115.45 84.95q.7-3.6 1.95-5.3 1.4-1.95 4-2.25l5.35-.5q2.45-.6 3.3-3.25-2.1 10.1-3.45 10.75l-11.15.55M67.7 165.7q-6.75-.55-8.3-1.55-.95-.6-1.7-5.4l-.45-4.4q.2 1.5 2 2.5 1.45.85 5.95 2.25 2.95.9 3.7 3.9.7 2.9-1.2 2.7"/><path fill="#f0e78e" d="M92.7 175.85q-.45 3.3 2.85 5.65 2.75 1.9 7.4 2.8l8.55-.3q4.6-1.3 5.1-4.05.6-3.35-3.5-6.1-3.5-2.4-8-3.05-3.3-.55-7.15.5-4.8 1.35-5.25 4.55m7.7 16.95q-1.8-2.25-2.3-2.25-.5-.05-1.5.7-1 .8-1.65.7-.7-.1-2.8-2.95l-2.55-3.4q-2-1.3-3.95-3.75-3.1-3.95-2.55-7.55 1-6.2 8.75-9.3 6.85-2.7 14.9-1.9 9.15.95 15.1 6.4 5.8 5.4 4.9 11.7-.5 3.55-3.5 5.85-2.2 1.65-7.55 3.7-1.1.45-2.65 2.2l-1.9 1.65q-.6.05-2.35-1.45l-2-1.5-1.65 1.75q-1.4 1.65-2.2 1.65-.7 0-2.55-2.25"/><path fill="#f0e78e" d="M78.55 179.4q1.95 2.45 3 5.65 18.65 15.4 21.25 15.95 1.8.35 13.75-4.75 11.65-4.95 12.45-6 5.8-7.7 8.95-5.75 2.15 1.35 2.2 4.6.1 2.6-.95 4.6-1.2 2.3-2.65 3.4-1.2.85-2.95 1.15-.95.15-10.55 4.3l-10.55 4.35q10.05 6.5 10.9 6.65l3.5.45q3 .5 3.35 1.6 1 3-1.45 5.55-2.25 2.35-5.4 2.45-4.15.2-4.8-2.65l-16.5-10.65-12.65 3.4q-2.35 1-2.95.95-1.1-.2-3-1.4-2.65-1.7-2.85-3.65-.2-2.2.3-3 .45-.7 1.75-.75l5.7-.3q1.2-.1 5.2-1.7l-16.85-13.3q-1.25-.65-2.4-1.65-2.15-2-2.4-4.6-.25-2.9 1.2-5.2 1.25-2.05 2.5-2 1.15.1 2.9 2.3"/><path fill="#fff" d="M77 107.25q5.5-5.5 10.95-4.5 9.4 1.7 8.5 16l-9.1-.85q-10.05-1.5-14.7-4.95 1.65-2.95 4.35-5.7m72.25 12.55q-13.05 1.75-28.4.3.6-3.5 2.75-7.15 4.35-7.3 12.4-7.85 8.7-.6 15.65 4.05 5.7 3.8 7.55 8.6-3.45 1.2-9.95 2.05M78.8 134.2q-1.7 2.4-2.65 2.2-1.7-.35-2.6-5.5l-.55-5.1 8.15 3.85q-.7 2.25-2.35 4.55m63.15 1.45l11.8-2.55-2.6 5.7q-2.85 5.65-4.25 5.55-1.4-.1-3.3-4.4l-1.65-4.3"/><path fill="#ed8599" d="M77.65 135.8q1.05-1.2 2.2-3.95l.95-2.5q7.65 4.6 27.95 6.35 19.45 1.7 33.15-.45l3.1 7.3q-4.8 4.7-11.85 7.7-11.3 4.8-25.15 3.5-13.35-1.3-23.2-9.75-3.05-2.65-5.4-5.7l-1.75-2.5"/><path fill="#ce7486" d="M79.05 138.45l-1.5-2.2 3.1-6.45q19.2 6.45 42.25 6.65l19.2-1.1 2.9 7.6-2.05 1.75q-6.8-3.5-32.15-5.8-24.85-2.25-31.75-.45"/><path fill="#dbdcdc" d="M72.9 127.95l.2-2.25 8.1 4.05-1.35 2.6q-3.2-.85-5.4-2.7l-1.55-1.7m69.8 9.9l-.3-2.85 11.5-2-1.05 2.5q-2.6 1.65-6.65 2.15l-3.5.2"/><path fill="#c9c279" d="M129.8 219.85q-.95 1.6-2.75 2.65-1.8 1.05-3.65 1.1-4.15.2-4.8-2.65l-.45-.3 11.65-.8"/><path fill="#0d131a" d="M170.15 73q16.15 8.6 28.1 23.65 11.6 14.7 16.6 32.2 5.1 18 1.9 34.85-.65 3.4-1.4 3.35-.75-.05-.25-3.45 2.7-17.75-2.75-35.7-5.25-17.25-16.85-31.4-11.7-14.25-27.4-22.3-16.45-8.5-34.3-8.5-15.2 0-29.45 5.4-14.2 5.35-25.85 15.5-3.9 3.4-4.4 2.7-.55-.75 3.35-4.15 24.5-21.35 56.35-21.35 19.05 0 36.35 9.2m-104.6 27.45q-7.4 10-11.5 21.45t-4.65 23.65q-.25 5.95-1.05 6-.8.05-.75-5.9.1-12.65 4.45-24.55 4.25-11.8 12.2-21.75Q67 95.9 67.6 96.4q.55.45-2.05 4.05m-16.6 63.6q-.8-4.75.1-4.75.85-.05 1.7 4.7 4.5 24.85 22.5 43 19.55 19.7 48.3 24.1 4.55.7 4.55 1.5l-4.6.15q-28.1-3.7-47.6-21.7-20.15-18.6-24.95-47m161.95 14.6q1.6-3.95 2.3-3.65.7.3-.75 4.3-8.65 23.75-28.3 38.05-18.6 13.45-43.05 15.8-5.6.55-5.5-.35.1-.9 5.75-1.45 23.5-2.3 42.15-16.55 18.45-14.1 27.4-36.15"/><path fill="#0d131a" d="M81.3 83.1q.3.1-.3.9l-.95.7q-6.15-2.5-8.8-2.5-1.9 0-7.6 5.05-5.65 5-5.6 6.55.05 2.5 4.15 10.9.15.25-.65 1t-.95.45q-4.3-9.1-4.45-12.25-.1-1.95 5.75-7.65 6.1-6 9.45-6 2.9 0 9.95 2.85m144.95 79.8q1.05 2.65-.45 9.75-1.55 7.1-3.6 8.4-1.5.95-6.8 2l-5.75.95q-.35.05 0-1.05t.7-1.2q9.2-1.55 11.1-2.75 1.45-.95 2.8-7 1.3-5.95.65-7.65-.5-1.25-8.65-7.55-.25-.2.2-1.15.45-1 .7-.85 8.5 6.5 9.1 8.1m-43.7-8.05q2.6.9 5.25 2.3 2.6 1.4 2.85 1.95.7 1.6-1.45 8.95-2.25 7.5-4.05 8.65l-4.5.45-5.3-.5-.55 1.55q-.8 2.05-1.35 2.15-.5.05-.05-1.75l.7-2.6q.55-.8 2.2-.75l8.3-.45q.95-.65 2.55-7.1 1.6-6.3 1.25-7.35-1.15-1.8-6.6-4.2-3.5-1.55-3.2-2.05.25-.5 3.95.75M130.6 240.6q7 .45 8.5-.55 1.6-1.05 5.9-8.65l1.35-.15q1.2.15 1.05.4l-3.05 5q-2.9 4.55-4 5.25l-9.85.45q-8.45-.85-10.65-3.3-1.25-1.35-2.65-4.8-1.1-2.6-1.25-3.35l1.25-.15q1.3.1 1.4.4l.75 2.8q1 3 2.1 4.2 1.8 1.95 9.15 2.45m-43.05-21.35l.95.85q.65.95.35 1-8.1 1.55-11.4 1-2.3-.4-7-4.95-4.45-4.3-5.3-6.35-.6-1.6-.1-6 .3-2.65.7-4.6.05-.3 1.05.35l.95.95q-1.3 6.65-.65 8.3.7 1.8 4.75 5.85 4.2 4.15 5.95 4.45 3 .5 9.75-.85m-39.1-77.9q.25-.25.6.8.4 1.05.15 1.25-4.8 4.25-5.55 6.35-.65 1.9.15 9.2.8 7.3 1.75 8.55 1.05 1.25 6.4 3.75.25.1.35 1.3.1 1.15-.15 1.05-6.6-2.85-8.2-4.85-1.4-1.7-2.4-9.15-1.05-7.55-.15-10.4.65-1.85 3.85-4.95l3.2-2.9m13.8 4.3l2.6-.1q.25.6-2.05 1.5-4 1.5-4.6 2.55-.45.7.15 7.05.6 6.4 1.25 6.7 1.75.75 5.75 1.2 3.1.4 3 .95-.05.6-3.3.4l-6-.75q-1.5-.6-2.5-7.4-1.05-6.75-.15-9.4.2-.6 1.45-1.15 1.2-.55 4.4-1.55m1.1-5.5q.1-1.8.55-1.95.45-.15.6 1.65l.05 2.65q-.05 2-.5 1.95-.45-.1-.7-2.1v-2.2M158 117.3q-2.55-5.05-7.45-8.15-5.95-3.65-13.75-3.2-5.8.35-9.9 4.05-4 3.65-5.35 9.55 6.6.95 17.9.2 10.95-.7 18.55-2.45m-7.7-10.25q5.6 3.35 8.55 8.8.95 1.75.8 2.2-.15.45-1.75.85-7.8 1.9-18.35 2.5-10.05.55-17.2-.3-1.95-.25-2.15-.5-.3-.4.25-2.5 1.8-6.65 6.3-10.4 4.2-3.55 9.95-3.9 7.35-.4 13.6 3.25m-69.75-1.7q-4.25 2.6-6.8 7.25 2.55 2 9.55 3.75 7.05 1.75 12.4 1.65.6-5.1-1.4-9.2-2.05-4.25-5.8-5.15-3.7-.9-7.95 1.7m-7.35 5.3q3.05-4.75 7.3-7.3 4.4-2.6 8.35-1.7 4.2.95 6.35 5.05 2.2 4.1 2 10.45-.05 1.7-.4 2l-2.5.25q-6.1-.15-12.15-1.8-5.15-1.4-8.4-3.25-1.55-.9-1.6-1.45-.05-.45 1.05-2.25m47.9-9.35q-1.55.95-3.1 3.15-.9 1.35-1.2 1-.35-.35.45-1.95 1-1.95 3.1-3 1.65-.85 1.9-.45.2.35-1.15 1.25m-6.15 9.1q-.55-.25 0-1.8.5-1.6 1-1.35t.05 1.85q-.45 1.55-1.05 1.3M97.7 104q-.5-1.1-.2-1.4.3-.3 1.25.8 1.05 1.2 1.2 3.35.1 1.35-.3 1.4-.45.05-.8-1.2-.5-1.7-1.15-2.95m65.5 22.7q.7-.65.95-.55.45.2-.3 1.55-.85 1.5-2.5 2.65-6.5 4.45-21.8 6.25-14.9 1.7-31.1.1-15.95-1.6-27.1-5.85-10.2-3.9-13.2-8.65-.55-.8-.6-1.65-.1-.8.25-.85.35-.05.75.6l1.6 1.95q4.65 4.3 14.05 7.55 10.4 3.6 24.4 5 16.35 1.65 31.8-.35 15.3-1.95 21.1-6.3l1.7-1.45"/><path fill="#0d131a" d="M72.1 125.35l.8-.05q.8.25.85.55.2 3.65.95 6.55.75 2.85 1.5 3.3.65.45 2-1.95 1.15-2.15 1.95-4.8.1-.3.9.25.8.5.65.8-1.3 3.1-2.9 5.15-1.8 2.25-2.95 1.75-1.4-.6-2.4-3.8-.9-3.05-1.35-7.75m68.8 10.2q-.05-.3.8-.6l.95-.05 2.15 5.7q1.25 2.9 1.95 2.95 1.15.1 6.25-11l.95-.1q.85.2.75.5-2.15 5.55-4.6 9-2.2 3.15-3.35 3-1.3-.1-3.1-3.05-1.75-2.85-2.75-6.35"/><path fill="#0d131a" d="M76.45 136.3q-.15-.25.65-.75t.95-.25Q81 140.75 88 145.35q7.9 5.25 17.55 6.9 10.55 1.8 21.3-.9 10.8-2.75 17.75-9.05.25-.2.9.5t.4.9q-7.35 6.6-18.5 9.65-11.35 3.1-22.1 1.3-9.95-1.7-18.35-7.5-7.3-5.05-10.5-10.85m59.9-27.75l.2-1.25q.2-.55.45-.55.7 0 .7 1.8l-.2 1.25-.5.5-.45-.5-.2-1.25m-49.2-2.9q.1-1.5.65-1.4.55 0 .45 1.45-.1 1.4-.65 1.4-.55-.1-.45-1.45m7.5 76.1q-3.5-2.75-2.95-6.2.5-2.8 4.3-4.45 4.25-1.8 10.3-.75 5.9 1 9 3.95 2.75 2.65 2.3 5.6-.45 3.1-4.4 4.55-3.95 1.45-9.95.65-5.25-.7-8.6-3.35m-1.45-5.95q-.45 2.7 2.6 5 2.95 2.3 7.65 2.9l8.5-.45q3.25-1.1 3.8-3.6.5-2.4-2.4-4.7-2.9-2.35-7.3-3-5.6-.8-9.35.65-3.15 1.2-3.5 3.2"/><path fill="#0d131a" d="M83.3 180.35q-2.1-3.3-1.5-6.85.9-5.3 8.2-8.75 7.45-3.5 16.75-2.6 9.65.95 16.15 7.3 6.05 5.95 5 11.95-.7 4.1-4.35 6.6-1.8 1.2-5.7 2.55-1.85.65-3.05 1.65l-1.4 1.5q-1.35 1.65-2.5 1.55-1.15-.1-3-1.9l-1-.8q-.35-.05-.9.8l-1.1 1.55q-.75.85-1.55.9-.85.05-1.75-.8l-1.7-1.9-1.45-1.65q-.65-.5-1.3.25l-.75.65-1.25.3q-1.2-.1-3-2.65-2.2-3.15-3-3.75-4.1-3.15-5.85-5.9m.65-6.7q-.5 2.8 1 5.7 1.5 3 4.85 5.6l3.4 4.25q2.05 2.75 3 1.65.95-1.15 1.95-.9 1.05.25 2.6 2.2 1.4 1.7 2.25 1.8.85.1 1.65-1.15 1.1-1.7 2.05-1.7.8 0 2.25 1.4 1.1 1.1 1.9 1.15.75 0 1.55-.9l1.5-1.75q1.15-1.05 2.75-1.65l.7-.25q3.05-1 4.75-2.2 3.2-2.25 3.8-5.75.9-5.15-4.25-10.5-5.75-5.95-15.05-6.9-8.75-.85-15.5 2.4-6.35 3-7.15 7.5"/><path fill="#0d131a" d="M80.65 184.45q-2.8-6.6-5.45-6.25-.9.15-1.75 1.85-.95 1.9-.8 4.1.1 1.75 1 3 .75 1.1 2.45 2.3l1.25 1q1.25 1.25 16.3 12.45 1.05.8 1 1.3-.05.45-1.25.8l-3.35.9-2.55.5-4.1-.05q-1.4.05-1.85 1-1.15 2.45 1.45 4.9 2.6 2.45 4.95 1.4 3.25-1.45 12.45-3.85l1.7-.35q.55.05 1.7.85 7.5 5.3 10.95 7.3l3.85 2.5q.8.75 1.15 1.65.45 1.1 2.35 1.3 2.1.15 4.3-1.1 1.9-1.05 2.85-2.75.9-1.6.45-3-.35-1.15-3.25-1.65l-2.85-.3q-1.5-.35-10.75-5.9-1.6-.95-1.6-1.5.05-.4 1.4-.9 10.05-3.55 17-7.1 1.65-.9 3.55-1.2 1.7-.35 3-1.2 2.3-1.45 3-4.6.6-2.65-.1-4.9-.8-2.35-3.25-1.9-2.7.55-5.7 4.65-1.05 1.55-3.75 2.9-7.5 3.75-21.15 8.55l-2.15.55q-.95-.05-2.25-.95l-9.85-7.2q-9.6-7.3-10.35-9.1m-9.4-.55q-.2-2.6.9-4.9 1.15-2.3 2.85-2.55 3.75-.6 7.1 7.45.5 1.2 9 7.75l9.8 7.3q1.5 1 2.15 1.05l2.4-.5q14.65-5.2 20.3-8.05 2.9-1.5 3.7-2.65 3.45-5.25 7.3-5.45 3.85-.15 4.25 5 .25 3.05-1.1 6.1-1.25 2.8-3 3.75-1.45.85-3.5 1.25-2.15.45-3.25 1-6.2 3.05-16.4 6.65l6.55 4.1q2.75 1.75 3.25 1.85l3.75.45q2.65.45 3.55 1.45 1.15 1.35.4 3.55-.75 2.2-2.9 3.8-3.4 2.5-6.7 2-2.85-.45-3.6-2.25-.5-1.35-4.45-3.85l-9.55-6.1q-1.15-.8-2-.95l-1.8.25q-9.65 2.6-11.65 3.5-2.9 1.25-6.35-1.8-3.6-3.15-2.05-6.4.75-1.65 2.75-1.65l4.25.1 2.65-.5 2.75-.8-15.9-11.8q-2.9-2.1-4.05-3.85-1.15-1.7-1.4-4.3"/><path fill="#796bae" d="M121.4 64.45q3.7-9.55 4.3-10 4.55-3.3 13.5-1.8 8.7 1.4 10.2 4.95 1.65 3.95 4.25 19.45l-35.85-3.1 3.6-9.5m85.35 29.7q5.5.9 8.65 9.25 2.9 7.65 1.15 10.55-2.95 4.9-8.95 10.3l-5.4 4.45-17.5-32.45 22.05-2.1m-22.1 100.95l5.65-6.25q6.25 22.65 6.25 25.15 0 3.55-4.55 7.25-4.55 3.65-8.95 3.65-1.4 0-7.95-5.1l-6.3-5.15q-.15-1.4.45-3.4 1.2-3.95 5.05-6.65 3.9-2.7 10.35-9.5"/><path fill="#695c97" d="M192.6 220.1l-2.85 2.75q-3.45 2.65-6.2 2.25-2.7-.35-9.3-5.65l-6-5.2q-1.2-.95-1-3.1.25-2.05 1.5-3.9 3.25-4.85 6.65-1.45l8.05 8.5q5.2 5.15 9.15 5.8"/><path fill="#695c97" d="M154.5 205q-1.65-1.45-.5-4.15 1.25-2.8 4.45-.95l6.45 4.25q3.8 2.45 5.1 1.85-5.05 4.1-6.9 4-1.2-.05-5-2.5l-3.6-2.5"/><path fill="#0d131a" d="M193.95 199.65q1.3 3.55 2.6 8.05 1.55 5.45 1.35 6.75-.75 4.25-6.3 8.4-5.4 4-8.75 3.35-1.9-.35-6.4-3.85-3.35-2.65-5.85-5.1-2.25-2.3-1.9-2.75.3-.5 2.8 1.4l5.7 4.35q4.35 3.15 5.95 3.45 3.05.55 7.2-2.5 4.45-3.2 5.15-7.3.3-1.75-3.05-13.6-1.1-3.65-.45-4 .65-.3 1.95 3.35m-24.4-3.8q-1.85-3.1-1.3-3.4.55-.25 2.65 2.8 3.85 5.5 3.7 6.9-.25 1.95-5.15 5.65-4.75 3.55-6.55 3.55-1 0-3.1-1.5l-3.5-2.7q-2.75-2.25-2.4-2.75.35-.55 3.1 1.45 1.8 1.4 3.75 2.3 1.7.75 2.55.75 1.15 0 5-2.85 3.9-2.9 4.1-3.85.15-1.2-2.85-6.35"/><path fill="#695c97" d="M148.8 57.95l2.7 9.35q1.8 6.8 2.1 9.25-2.65.95-6.45 1.15-2.6.15-4.8-1.1-2.8-1.5-3.8-4.7-1.55-5.05-1.2-9.7.15-1.45.75-1.85l2.05-.25 4.85-.35q2.75-.6 3.8-1.8"/><path fill="#0d131a" d="M119.5 71.75q-1.05 2.55-1.8 2.4-.75-.15.2-2.8l3.8-10q2.45-6.25 2.95-7.05 2.45-4.25 13.15-3.1t12.6 5.85l1.65 6.8 1.75 9.05q.6 3.8-.05 3.95-.65.2-1.5-3.3-3.2-13.65-3.9-15.3-1.65-4.1-10.85-5.05-9.15-.9-11.05 2.6l-6.95 15.95"/><path fill="#695c97" d="M209.45 109.45q1.6 2.15 3.3 3.3 1.95 1.25 3.5.7-2.55 3.9-6.05 7.85-3.9 4.4-7.65 7.25-2.4-1.2-4.4-3.4-1.75-1.9-2.65-4-.7-1.7-.45-2.7.4-1.45 2.65-2.7 4.15-2.3 8.3-6.45 1.25-1.25 2-1.1.6.05 1.45 1.25"/><path fill="#0d131a" d="M199.2 95.35l-10.25.85-4.5-.15q-.1-.7 4.3-1.45 14.25-2.45 18.55-1.55 5.05 1 8.8 9 3.75 7.85 1.6 11.8-.8 1.95-4.55 6.05-3.7 4-7.15 6.8-3.15 2.6-3.7 2-.55-.6 2.55-3.15 3.1-2.5 6.3-6.25 3.3-3.8 4.3-6.1 1.85-3.45-1.05-10.15-3-6.9-7.4-7.75-1.55-.3-7.8.05"/></svg>