<svg xmlns="http://www.w3.org/2000/svg" width="210" height="117" viewBox="-0.2 -1.35 210.15 117.05"><path fill="#6fb92c" d="M167.3 64.3q6.4 5.15 8.4 8.1l2.15-.2q3.25.55 9 4.15l10.2.65q4.1-.15 6.05-1.55 1.6-1.1 2.3-.9 1.3.3 2.4 3.05.45 9.1-8.25 19.4-3.2 3.75-6.75 6.65-3.15 2.55-4.55 2.85l-3.2 2.45q-4.05 2.75-8.05 4.2-2.95 1.1-7.05 1.1-3.65 0-4.95-.75l-6.2.4q-6.1.7-10.75-.05-4.55-.4-9.9-1.85-5.6-1.55-6.7-2.9-2.25.75-10.25.2-8.25-.55-17.4-2.15Q80 103 75 96.85q-5.55 1-14.85-.3-9.45-1.25-10.5-3.3-3.25-6.2-10.7-15.55l-14.1-17.15Q6.35 37.95 2.1 23.2q-2-6.95-1-11.65.9-4.3 4.15-5.95 1.65-.85 10.8 2.8 3.05 1.25 15.9 7 12.4 5.55 22.65 5.8l10.15-1.05q5-.65 25-7Q111.8 6.2 117.7 2.45q1.85-1.15 4.45-1.35l3.95.35q1.5.55 2.25 2.75.8 2.25.3 4.9-.25 1.45-5.25 15.5-4.7 13.2-4.55 14.55.35 2.25 7.05 3.8l15.15 2.65q5.5.95 8.7 3.2 4 2.7 5.75 8 4.85 1.95 11.8 7.5"/><path fill="#5fa124" d="M124.6 10.85q1.25-2.1 2.75-1.25 1.45.8.75 3.05-2.35 5.55-4.45 11.2-4.25 11.25-4.95 16.75-.45 3.3 2.1 6.2 2.45 2.7 5.4 2.9 2.6.15.95 1.6-1.75 1.5-6.3 1.95-4.9.5-8.6-4.1-3.7-4.6-2.6-9.7.65-2.9 7.55-15.5l7.4-13.1"/><path fill="#0d131a" d="M77.45 31.25q0 5.05-3.55 8.65-3.6 3.65-8.95 3.65T56 39.85q-3.5-3.6-3.5-8.5 0-5.05 3.5-8.45 3.55-3.45 8.95-3.45 5.65 0 9.25 3.9 3.25 3.45 3.25 7.9"/><path fill="#fff" d="M74.5 26.8q1.15 2.15 1.15 4.65 0 4.3-3.15 7.3-3.15 3.05-7.6 3.05-4.4 0-7.45-2.95-3.25-3.1-3.2-7.9l-.1-.55 11-1.8 9.35-1.8"/><path fill="#6fb92c" d="M64.9 21.15q3.1 0 5.7 1.55 2.55 1.55 3.9 4.1l-9.6 1.95-10.6 1.5q.1-3.55 2.9-6.2 3.05-2.9 7.7-2.9"/><path fill="#0d131a" d="M75.05 27.35l-21.2 3.85q-1 .25-.85-.55.1-.75 1.15-.95L74.7 26q.85-.2 1.05.5.2.7-.7.85"/><path fill="#0d131a" d="M69.4 31.75q0 1.85-1.25 3.2-1.2 1.35-2.95 1.35-1.7 0-2.95-1.35-1.2-1.3-1.2-3.2 0-1.8 1.2-2.8 1.1-.9 2.95-.9t2.95.9q1.25 1 1.25 2.8"/><path fill="#5fa124" d="M193.1 94.6q2.15.1 6-2.2 4.7-2.75 7.55-7.05-3.7 10.55-11.2 16.5-2.3 1.85-4.75 3l-1.95.8q-2.85 4.5-10.65 7-7.7 2.45-13.1.85-4.5 1.65-18.2-.1-13.6-1.7-14.95-4-21.75.8-39.75-4.5-7.15-2.1-11.7-4.65-4.25-2.4-4.6-4.25l-5 .9-11.9-.5q-5.8-1.15-8.7-2.65l-1.75-1.25 3.55.35q3.85-.1 5.3-2.4l-7.2-3.7L52 87q2.3.1 4.2-.65Q62.25 83.9 62 73.6l4.1 2.85q4.95 3.05 9.45 4.25 14.4 3.8 18.5-12.65.55 6.75 7.25 13.45 6.05 6.05 15.8 10.8 9.3 4.5 18.85 6.3 9.85 1.9 16.45.2 4.2 2.6 11.65 3.6 7.9 1.1 15.85-.15 1.4-.25 5.6-2.25 5.55-2.7 7.6-5.4"/><path fill="#0d131a" d="M37.6 56.9q-6.15-1.95-6.75-1.35-.6.7.7 6.5 1.35 5.95 2.7 7.25 1.25 1.2 6.5 3.2 5.1 1.9 5.5 1.6.4-.35-.1-6.7-.5-6.5-1.2-7.25-1.15-1.3-7.35-3.25m-7.8-2.55q.95-1 8.1.9 7.15 1.9 8.55 3.5 1.4 1.5 1.65 8.9.25 7.25-.75 7.9-.95.65-6.5-1.35-5.7-2.05-7.6-3.85-1.9-1.8-3.2-8.4-1.3-6.5-.25-7.6m33.15-11.4l.75-.1q.7.2.6.5-2.5 8.9-2.2 21.9.3 12.9 3.1 19.8l-.55.55q-.65.25-.75 0-3.4-8.3-3.8-19.1-.45-11.85 2.85-23.55"/><path fill="#0d131a" d="M92.55 60.7q1.4.25 1.8.7.4.45.55 1.75.35 3.15.05 12.35l-.8 13.8q0 .3-.7.3t-.7-.3L93 76.8q.1-13.25-.45-13.9-.75-.9-18.65-2.7-19.6-2-27.8-.4-.25.05-.4-.65-.15-.65.15-.7 8.5-1.65 23.85-.6 12.2.85 22.85 2.85m-59.1 10.4q-.15-.25.35-.65.45-.35.6-.1 5.2 8.4 16.2 15.65 12.2 8 25.2 10 .3.05-.25.55-.6.55-.9.5-13.9-2.1-25.05-9.5-10.15-6.7-16.15-16.45"/><path fill="#0d131a" d="M93.55 88.15q.3.05.2.95-.1.95-.4.9l-26.8-3.95q-2.8-.3-4.75.5-1.65.75-2.05 2-.3 1 .45 2.2.8 1.25 2.2 2 .25.15-.2.55l-.75.2q-2.1-1.15-3.15-2.8-.95-1.55-.6-2.8.5-1.65 2.95-2.6 2.6-1 6.1-.65l26.8 3.5"/><path fill="#0d131a" d="M92.85 89.9q-.25-.15.25-1.1.5-.95.75-.8l8.1 5.2q8.8 5.4 12.6 6.8l12.05 1.65q11.55 1.7 15.7 4.05.25.15 0 .65-.25.45-.5.3-2.5-1.45-14.35-3.2l-13.3-2.1q-3.95-1.4-12.75-6.4l-8.55-5.05"/><path fill="#0d131a" d="M82.05 90.05q6.2-2.15 11.5-1.45.25.05.7.8.4.8.1.75-5.4-.75-11.65 1.55-6.4 2.3-6 5.25 0 .25-.7.35-.65.1-.7-.2-.55-4.5 6.75-7.05"/><path fill="#0d131a" d="M76.1 97.4q-.25-.1-.25-.95 0-.8.25-.65 4.85 2.55 15.3 6 9.25 3.1 18.9 5.55.3.1.15.55-.2.45-.5.35-26.2-6.8-33.85-10.85"/><path fill="#0d131a" d="M127.95 1.55q3.45 2.85 2 7.9l-4.45 13.1-5.2 15.3q-2.65 8.55 4.8 11 3.2 1 2.8 1.55l-4.3-.3q-3.95-.85-5.3-3.2-1.5-2.75-.2-8.55 1.25-5.45 5.95-18.35Q128 9.1 128 6.5q0-2.2-1.9-3.3-2.3-1.35-5.95.1-19.8 7.85-29.8 10.95-13.8 4.3-32.55 7.65-10.15 1.8-31.4-7.55Q16.5 9.8 12.75 8.3 6.6 5.9 5.2 7q-1.85 1.45-2.3 4.25-.5 3.05.25 9.5 1.3 10.9 11.25 25 1.95 2.75 17.25 21.4 8 9.8 13.6 17.75l5.5 7.8q1.25 1.55 8.35 2.7l14.9.7q1.6-.1 2.15.4.55.55-1.3.95-5 1.15-14.85 0-10.45-1.25-11.9-3.8-6.95-12.7-18.6-26.25-12.35-14.15-14.65-17.2Q3.15 34.7 1.2 23.85l-.95-6.2q-.45-4.2 0-6.6.85-4.7 3.25-6.35 2.4-1.65 5.95-.05 17.45 7.85 22.65 9.9 18.15 7.1 24.65 5.95 17.8-3.15 35.15-8.9 13-4.3 27.35-10.65 5.2-2.3 8.7.6M193.7 76.3q6.8.4 9.75-2.3 2.25-2.05 4.3 1.55 2.2 3.8.5 9.05-2.1 6.6-8.1 13.45-6.2 7-12.6 9.65-1.4.6-1.65.25-.2-.3 1.2-1.15 7.35-4.4 12.7-11.05 4.75-5.9 6.65-11.9 1.2-3.7.15-6.35-.9-2.25-1.8-1.7-3.55 2.1-8.3 2.2-5 .15-10.5-1.85-1.1-.4-1.45-1.05-.35-.65.35-.4 4 1.35 8.8 1.6"/><path fill="#0d131a" d="M138.75 44.25q13.15 1.95 18.35 13.5 3.45 7.75 3.05 19.2-.35 11.95-7.65 21.3-8.9 11.45-24.3 12.1l-11.65-.8q-19.15-2.35-26.5-4.35-9-2.45-15.85-8-1.1-.85-.3-1.15.85-.35 2.7.5 4.55 4.7 15.05 7.2l25.2 4.3q17.75 2.75 29.25-6.05 11.55-8.85 11.95-25.45.3-14.55-5.45-22.3-5-6.65-14.7-8.35l-10.3-2.15q-4.4-1.15-8.55-3.15-.95-.45-.9-1.35.05-.9 1.35-.2 2.65 1.5 8.95 3.1l10.3 2.1"/><path fill="#0d131a" d="M182.15 85.5q2.75 14.05-5.05 22.6-6.95 7.6-23.9 6.75-13.7-.7-22.25-4.95-2.2-1.05-1.1-.95l2.9.7q13.55 4 24.7 3.55 12.35-.45 18.1-6.35 6.15-6.35 5.35-17.9-.9-12.4-9.8-20.6-3.2-2.95-6.4-5.15l-8.25-5.3q-1.35-.85-1.45-1.8-.1-1 .8-.45 8.6 5.2 15.9 10.95 7.9 6.15 10.45 18.9"/><path fill="#0d131a" d="M175.3 72.1l-.75-1.3q6.85.75 11.7 4.2 4.1 2.95 6.15 7.4 3.2 7 .95 15.35-2.1 7.75-7.15 11.6-4.95 3.75-11.95 4.9l-12.55-.35 4.45-.75q5.3.8 10.4-.7 5.15-1.55 9.15-5.2 4.7-4.3 6.15-11.35 1.4-6.8-.95-12.6-1.5-3.7-4.85-6.45-4.2-3.4-10.75-4.75"/><path fill="#0d131a" d="M181.95 85.8q2.6 2.25 5.65 1.6 2.9-.6 4-3.15.4-1 .75-.4t-.15 1.55q-1.5 2.8-4.8 3.35-3.3.6-5.65-1.7l.2-1.25m-1.1 1.1q-1.35 2.25-4.95 2.7-3.55.45-7.4-1.15-9.75-4-10.15-15-.05-1.15.5-1.1.55.05.6.95.55 8.6 8.95 13.1 3.6 1.95 6.95 1.75 3.6-.25 5.6-2.95.95-1.25.7-.2l-.8 1.9m-3.95 19.75q-14.2 3.2-26.8-4.1-1.15-.65-.95-1.1.25-.5 1.8.3 5.3 2.75 12.2 3.75 7.2 1.05 13.7-.25 1.4-.3 1.4.4t-1.35 1"/><path fill="#0d131a" d="M192.85 97.85q-2.6 3.15-7.25 5.6-4 2.05-7.65 2.8l.7-1.55q7.15-1.5 13.85-7.7.6-.6.8-.25.15.35-.45 1.1"/></svg>