<svg xmlns="http://www.w3.org/2000/svg" width="369" height="317" viewBox="-1.1 -0.4 369.25 316.55"><path fill="#a586bc" d="M207.8 59.85l8.2.4q6.05 1 8.45 1.9 1.75.65 5.45 4.8 3.25 3.55 4.5 5.65 1.55 2.5 2 14.35 4.25 4.25 8 10.95 9.35 4 15.4 8.5 5.9 4.4 7.1 8.15 1.95 5.75-5.05 19.75 3.2 7.7 6.6 18.6 3.05 9.8 3.85 14.1.65 3.4-1.6 19.7-2.05 14.95-3.3 19.5-.85 3.1-6.2 13.05l-10.6 19.1 2.25 4.45q1.05 2.25 1.15 3.55.15 1.8-1.05 5.5-1.35 4.05-3.2 6.6-1.8 2.45-7.1 5.6-4.8 2.8-7.25 3.4l-4.55-.25q-1.95-.55-4.95-1.9-20.45 12.2-57.45 17.65-.15 1.35-1.05 3.15-.9 1.8-1.75 2.4-.8.55-6.9 1.7l-7.8 1.1q-1.7 0-7.1-2.3-5.35-2.3-6.45-3.45-.95-.9-2-3.95l-1.6-5.35q-5.6-1.2-17.35-6.1-11.25-4.7-18.9-8.9-3 2.1-6.25 3.85-3.55 1.9-5.5 2.35-1.9.45-6.55-2.15-4-2.2-6.7-4.55-2-1.8-4.15-5.8-1.95-3.6-2.2-5.3-.4-2.3 3.55-14.7-8.4-10.75-12.65-21.1-4.7-11.3-6.1-25.95-3.15-1.25-6.55-4.1-1.45-1.25-3.35-5.95-1.85-4.7-2.35-8.4-.5-3.8.05-9.2.55-5.65 1.75-7.3 1-1.4 4.2-3.65l6.4-4.35q1.6-11.3 6.8-23.05 4.2-9.35 10.35-18.3-2.1-6.35-2.1-13.05 0-2.8 2.8-8.25 2.9-5.65 6.35-9.05 3.3-3.35 9.2-6.35 5.4-2.75 8.9-3.3 2.8-.45 7.5 2.55 3.9 2.45 5.4 4.45 27.9-10.8 51.2-11.15 18.35-.25 43.55 6.6 3.95-5.05 6.7-6.2"/><path fill="#ed8599" d="M168.05 147.2l12.1 1 14.85 1.9 12.2 1.6q5.9.45 9.25-.2l12.15-.45q8.65.25 14.2 1.35 5.25 1 14.1 7.05 8.3 5.6 9.45 8.05 1.2 2.55.65 6.5-.5 3.8-2.3 7.1-4.4 8.15-9.7 4.3l-10.4-8.1q-7.8-6.05-9.95-6.95-6.05-2.55-26-4.6l-25.85-1.45q-5.8.25-16.8 3.8-8.6 2.75-15.1 5.65-5.05 2.2-13.15 6.4-8.5 4.4-11.75 6.6-4.2 2.8-6.25 3.8-3.2 1.6-6.3 1.8-10.45-7.45-8.85-14.4 1.15-4.8 9.15-10.8l6.5-3.9q6.65-3.9 7.1-4.05 12.95-6.05 26.35-9.45 9.95-2.55 14.35-2.55"/><path fill="#a586bc" d="M325.25 23.15q4.45 2.7 6.75 4.8 1.95 1.75 4.3 5 5.45.1 10.05 5 1.25 1.4 2.1 4.8.95 3.9.45 7.45 1.9 2.25 2.1 3.2.15.9-2.1 5.15.7 1.7 1.6 4.9l1 4.25q3 4.05 1.35 8.45l1.7 7.4q1.05 5.45.85 6.45-.35 2.05-5.15 9.1l-2 10.1q-1.5 6.55-2.5 8.85-2.15 4.95-12.9 14.6-.6 3.65-1.45 6.2-.8 2.4-1.5 2.85l-5.6 1.85-5.75 1.35q-.7-.1-1.7-.75L315 142.8q-2.7 1.7-8.95 4.3-1.35.55-7.3 1.1l-10.95.6-1.25 7 3.85-.15 2.75.25q1.05.3 3.4 3.5 2.15 3 3.35 5.45 1.85 1.35 3.55 3.05 1.95 1.9 2.2 2.85.3 1.05-.85 6.9-1.2 6.05-2.55 9.85 1.65 2.6 2.3 4.7-1.1.8-2.15 1.9-1.5 1.55-2 2.85-.8 2.15-5.9 1.5l-3.4 2.55-3.3 2.2-3.3.25-4.8-.25q-3.3 3.55-4.8 4.4-.55.35-3.45-.75l-4.1-1.8q1.7-6.1 3.55-21.25 1.55-12.95 1.55-15.9 0-1.5-.75-4.4l-2.15-6.95 1.8-9.95q-1.3-.5-6.35-3.4l-1.3-4.15-1.5-4.7q3.3-7.7 4.25-11.05 1.4-5.1.4-9.05-1-3.9-7.6-8.3-4.55-3-14.85-8.05-1.3-2.7-4-6.3-2.25-2.95-4-4.65-.45-9.1-1.4-13.6-.45-1.9-4.5-5.8-3.6-3.45-6.3-5.1-2.05-1.25-5.3-1.95l-6.95-1 .6-2.95q-1.8-1.8-3.3-5.5-.65-1.6-.65-3.9-.05-2.45.65-4.05.7-1.55 3.45-4.6 2.6-2.85 3.9-3.75 1.75-1.2 9.2-1.7 5.7-5.55 13.45-10.5 5.9-3.85 12.05-6.75l.2-4.25q.2-2 .75-2.75 1.25-1.6 6.3-4.35 4.85-2.65 7.2-3.15l6.25.5 5.5 1.5q1.2.45 2.25 2.4l1.8 4.1q14.25.25 27.8 5.4 7.55 2.85 15.9 7.95"/><path fill="#fff" d="M153.25 122.4q-7 5.8-19.25 9.35-8.35 2.45-16.25-1.75-5.85-3.15-9.45-8.4 15-9.2 30.8-14.85 14-5 24.85-6-.85 13.45-10.7 21.65m66.95-17.65q8.65 3.3 18.3 8.7 11 6.2 17.15 11.9-1.1 5.05-6.55 7-6.15 2.2-14.35-1.45-7.75-3.45-11.7-12.75-2.85-6.8-2.85-13.4m-98.85 84.9q-2.35-.75-3.8-2.95-1.05-1.6-1.4-3.3-1.3-6.4-1.65-15.95-.45-12.05 2.15-13.55 2.65-1.55 12.45 7.15 7.4 6.55 15.25 15.35-13.75 7.25-23 13.25m42.7-41.85l6-.4 5.75.7q0 3.05-1.55 4.45-1.6 1.45-12.65 3.7-10.55 2.15-11.7 1.8-.8-.2-2.05-2.45-1.1-1.85-1.95-4 4.3-1.45 10.05-2.4l8.1-1.4m69.5 11.2l-8.25-1.4-8.3-1.75q-1.1-.4-1.25-1.4l.1-2.15q6.05-1.15 13.25-1.35l9.75.5q-.05 1.05-.7 2.7l-1 2.65q-.4 1.15-1.35 1.75-.95.6-2.25.45m21.95-2.5q1.55-1.9 3.05-1.2 1.2.6 2.05 2.65 2.55 6.25 1.5 14.8-.7 5.65-3.25 13.55l-1.8.1q-1.2-.25-2.5-1.25l-5.85-4.45-8.4-6.8q6.35-6.5 15.2-17.4m51.9-121.25q-.3 5.5-6.15 9.55-5.65 3.95-12.2 3.8-6.05-.15-10.8-4.7-4.4-4.25-5-9.5 5.85-1.4 16.85-1.05 10.45.35 17.3 1.9m-42.9 25.3l14.5.65q-4.5 7.65-8.1 8.1-1.7.2-3.85-3-1.9-2.9-2.55-5.75m77.7-10.1l5.15 5.5Q349 58 349.3 59.9q.3 1.8-.65 2.8-1.25 1.35-2.55 1.6-2 .4-4.9-1.3-3.05-1.9-4.7-7.7-1.55-5.35-1.1-10.55 3.1 2.2 6.8 5.7"/><path fill="#f0e78e" d="M328.65 93.35q4.15 6.15 1.95 11.35-2.15 5.1-9.6 6.45-6.85 1.25-16.05-1.1-8.8-2.25-14.25-9.4-5.45-7.25-2.4-12.75 3-5.4 11.75-6.4 8.55-.95 17.3 2.75 7.25 3.15 11.3 9.1M190.1 19.95q6.7.9 8.25 7.5 1.5 6.35-3.15 10.6 2 6.3-3.7 11.65-5.8 5.5-12.7 2.75-4.25 4.45-12.35 1.3-3.6-1.4-5.35-3.2-2.05-2.15-1.8-5.15-3.5-.25-6.2-3-2.6-2.6-3.4-6.3-.8-3.85.75-7.15 1.8-3.7 6.25-5.6-1.25-7.25 4.6-10.55 2.35-1.3 4.9-1.3 2.6.05 4.15 1.45 5.75-5.1 12.2-2.4 6.1 2.55 7.55 9.4M83.3 46.05q.85-1 2.5-1.45 1.3-.4 2.6.7 1.4 1.1 1.85 3.15.4 1.75-.65 3.25-.85 1.25-1.9 1.6-1.05.35-2.55-.55-1.8-1.1-2.45-3.2-.6-2.15.6-3.5M41.2 30.3q-.15-3.85 2.8-5.6 3.05-1.8 6.75.45 7.35-7.7 14.85-3.7 3.15 1.7 4.85 5 1.75 3.35 1.3 7.15 4.95 3.4 5.3 7.5.25 3.4-2.6 6.55 2.05 3.7 1.3 7.1-.7 3.1-3.35 5.15-2.6 2-5.9 2.05-3.45.1-6.2-2.05-3.55 5.3-11.05 3.65-7.65-1.65-8.15-8.45-4 .8-5.6-1.9-1.5-2.55.05-5.8-3.5-4.75-1.9-9.95 1.65-5.3 7.55-7.15M23.45 96.4q.7-5 6.55-5.35 1.3-5.85 6.45-6 4.95-.2 6.65 4.2 3.2-.55 4.35 1.35 1.05 1.65.15 4.35 4.75 4.75 1.65 10.2-1.3 2.25-3.4 3.05-2.2.85-4.3-.4-3.85 4.8-8.8 2.95-4.85-1.85-3.9-7-6.05-2.3-5.4-7.35m330.25 55.7q7.45 3.4 7.45 12.4 5.65 3.25 5.75 8 .1 4.4-4.4 7.3 1.15 3.85-.85 6.95-2.15 3.25-6.5 3.45-2.4 3.95-6.75 5.65-4 1.65-8.35.9-4.4-.75-7.2-3.55-3.1-3.1-3.15-7.65-7.3-2.3-8.8-9.05-1.55-6.75 4.6-9.7-2.55-8.6 3.3-11.5 5.05-2.45 10.9.35 6.35-7.05 14-3.55m-55 82.35q3.5-.6 6.7 1.35 2.8 1.7 4.55 4.75 2.5 4.4 2.6 7.45.2 5.3-5.4 9.25 1.55 8.6-3.7 12.35-4.9 3.5-9.65-.25-8.05 6-16.15 2.25-8.25-3.8-6.75-13.4-4.7-4.35-4.4-9.85.3-5.8 6.35-7.3-.85-5.6 1.6-9.1 2-2.75 5.6-3.75 4.65-1.25 8.6-.55 6.1 1.1 10.05 6.8m-41.3 35.9q1.3 2.25.55 4.75-.7 2.35-2.4 2.85-1.5.45-3.65-1.9-2.1-2.35-1.7-3.9.3-1.4 3.55-2.05 3.15-.65 3.65.25M94.3 291.7q-.85-7.45 4.8-8.4 2.25-.4 4.5.65 2.35 1.1 3.55 3.15 5.15-2.45 7.85.95 2.3 2.9 1.55 6.95 4.45 2.8 3.05 7.25-1.5 4.65-8.05 4.8-.3 4.65-3 6.5-2.4 1.6-5.8.7-3.25-.9-5.55-3.5-2.45-2.8-2.25-6-5.75-.9-5.75-6.35-.05-5.4 5.1-6.7m-50.8-66.75q2.75 2.35 3.85 6.05 1.1 3.75.2 7.45 4.7 3.95 3.6 9.35-1.15 5.35-7.1 8.45-.3 3.65-3.3 6.45-2.85 2.65-7.05 3.6-9.85 2.25-15.3-5.3-2.8 1.95-5.5.7-2.85-1.3-2.35-5.15-3.4-1-6.2-4.6-2.8-3.55-3.45-7.7-.75-4.5 1.45-7.75 2.55-3.7 8.6-4.85-.6-4.25 1.25-7.15 1.6-2.6 4.7-3.45l5.9.25q3.15 1.1 4.9 3.9 9.3-5.9 15.8-.25"/><path fill="#a586bc" d="M297.25 90.35l.65-.75q.95-.8 2.4-1.2 4.6-1.35 12.5 1.75 8.05 3.2 9.7 7.55.85 2.3-.2 4.7-.8 1.7-3.5 2.25-4.25.8-11.9-1.95-7.7-2.8-9.65-6.8-1.3-2.6 0-5.55"/><path fill="#8f75a3" d="M239.6 113.8q-9.4-5.25-19.25-8.9l.2 4.85q-2.5-1.35-4.65-3.1-2.35-1.85-3.2-3.3l-.35-5.25q2.9-1 11.75 1.2 8.25 2.05 18.1 5.95 23.8 9.4 24.9 15.2-.25 2.7-1.85 6.95-1.35 3.65-3.05 6.75-2.35.45-7.05-.05l-7-1.25q7.2-2.5 7.5-7.35-5-5.55-16.05-11.7m-74.5-20.6q10.95-.55 15.25 2.1-1.1 4.5-1.95 5.8l-7.65 4.6q-5.35 2.9-8.75 4.15 1.8-4.95 1.6-9-15.3 2.3-30.3 8.15-13.15 5.1-25.15 12.55 1.4 2 5.05 5.05l4.85 3.6q-4.1 3.05-10.15 4.95-4.35 1.35-8.05 1.75-6.4.05-10.45-4.05-3.3-3.35-3.15-6.7 20.55-19.5 54.05-28.65 13.55-3.7 24.8-4.3m1.55 97.15q3.7-3 9.05-6.15 5.4-3.2 8.35-4.15 2.6-.8 17.3-.15l16.25 1.15q4.3.85 16.05 11.15 12.3 10.85 14.4 11.65 3.8 2.45 10.7.15 7.5-2.5 11.1-9-.3 9.6-10.25 27.6-1.9 3.45-13.6 22.15-4.4 7-7.6 10.5-4.75 5.1-12.95 10.3-12.55 7.95-41.2 14.45-8.75 2-12.6 2.4-4.8.5-11.4-.2-15.95-1.65-37.35-9.65-17.85-6.6-28.55-13.1-6.45-3.9-13.1-11L69.6 234.7q-7.35-8.95-12.05-19.4-6.2-13.75-6.55-27.65l4.65 1.45q4.25 11.15 18.75 22.95Q86.6 222 93.85 223.9q1.55 1.1 6.25 2.5 5.2 1.6 8.2 1.45 2.9-.15 7.6-2.8 2.6-1.5 6.65-4.35l25.65-17.45q15.6-10.6 18.45-12.9"/><path fill="#8f75a3" d="M97.35 261.15q-7.7 5.4-11.7 6.15-2 .4-7-2.4l-5.9-3.75-2.05-2.2q-.7-1.05-1.7-3.2 2.25-.8 5.65-4 2.85-2.7 4.85-5.4 6.95 8.55 17.85 14.8m62.1 28.85q-5.7 1.3-8.3 1.3-2.5 0-7.25-2.15-4.4-1.95-5.95-3.4-1.15-1.05-2.4-4.05l-1.95-5.4q18.85 5.7 34.6 6.9-.25 3.6-2.1 4.8-1.1.7-6.65 2m85-42.8q3.4-5 5.6-9.1l2.25 3.7q1.5 2.6 1.8 4.1.35 1.95-.65 5.25-1.15 3.65-3.4 6.85-2.05 2.95-7.85 6.1-4.5 2.5-7.15 3.2l-4.55-.35q-2.55-.65-4.45-1.6 4.15-2.75 8.2-6.35l5.3-5.2q1.85-2.1 4.9-6.6"/><path fill="#ce7486" d="M174.35 152.35q.9-.85 1.25-1.8.35-1 .5-3.05l13.05 1.9 10.15 1.55 10 .9 7.75-.6.35 2.6q.2 1.35.55 1.6 1.65 1 9.35 2.25l8.55.8q1.9-.95 2.95-7.25 3.6 1 7.4 2.5 5.1 2 8.55 4.2L243 170.4q-8.85-6.75-24.45-10.9-13.05-3.45-22.7-3.45-13.75 0-29.4 4.85-16.65 5.15-24.85 12.8-8.95-9.95-13.9-14.35 9.6-4.6 18.05-7.65 2.25 5.15 4 6.2 1.6.95 12.15-1.4 10.65-2.4 12.45-4.15m-60.2 14.5q.45 8.9 1.85 16.4.7 4 5.05 6.5-3.6 2.2-6.2 2.75-6.75-1.75-9.45-9.55-1.4-4.15.2-7.3l3.75-5.1q.55-.8 1.8-1.7l3-2m147.65-4q1.35.95 2.75 2.45 1.45 1.5 1.8 2.45.45 1.3.35 4.35-.1 3.95-1.35 8.2-.5 1.6-2.3 3.35-2.05 1.95-4.55 2.9 2.65-5.05 3.4-12.6.55-5.95-.1-11.1"/><path fill="#8f75a3" d="M347.15 64.3q1.45-.8 2.4-3.8 1.5 4.25 1.65 6.7 1.95 1.95 2.3 4.65.3 2.4-.65 4.15l1.4 7.25 1.2 6.65q.1 1.1-1.55 3.85l-3.5 5.3q-.7 4.95-2.35 11.3-1.55 6.1-2.55 8.3-1 2.05-4.65 6.15-3.6 4.05-7.8 7.9-.1 2.45-1.2 5.45-.8 2.3-1.55 3.35-.45.65-4.85 1.95l-7.1 1.8-3.4-2.45q-4.25 2.65-9.65 4.6l-13.2 1.2q-10.85.55-13.6.25-2.4-.2-6.55-1.95-4.1-1.7-6.85-3.6l-2.9-9.15 4.65-11.9q1.35-5.25-.6-9.5-1.95-4.25-9.2-8.7-4.95-3-13.3-6.65l-1.95-3.85q-1.2-2.05-2.15-3.15 10.9 6.95 24.35 8.9 12.3 1.8 25.55-.6 5.15 8.5 16.9 11.6 7.55 2 14.25.85 7.5-1.3 9.9-6.25 2.2-4.5-.75-9.7-2.65-4.7-8.85-8.95 7.7-5 12.75-11 5.2-6.1 6.85-12.3 4.3 2.6 6.55 1.35"/><path fill="#c9c279" d="M330.6 104.9q-2.4 4.95-9.9 6.25-6.7 1.15-14.25-.85-11.75-3.1-16.9-11.6l8.6-2.05q4.4 5.3 12.4 7.45 8.4 2.25 11.95-1.75 1.6-1.75-.7-5.95-2.6-4.65-8.05-5.95 3.7-1.9 7.25-4.2 6.2 4.25 8.85 8.95 2.95 5.2.75 9.7"/><path fill="#8f75a3" d="M347.75 39.95q.75 1.9 1.1 4.95.3 2.65.15 5.05l1.25 1.6q.65 1 .75 1.55.15.65-.45 2.1-.7 1.6-1.75 2.75-2.45-3.55-6.3-7.1l-7.05-6-.35 3.6q-2.55-2-3-4.45l.1-3q2.75 1.85 5.5 2.3 3 .5 5.15-.8l2.85-.25q1.4-.75 2.05-2.3M307.4 35.4q-17.7-4.5-36.65-.75 7.6-4.65 23.15-4.75 13.9-.1 25.25 3.05.25 1.35-.55 2.35l-3.4 2.75q-2 1.15-4.95 1.95l-4.85.9q1.8-3 2-5.5m-95.7 11.4q1.45 2.35 3.15 4.1l-2.15 5.55-2.4-2.9q-1.05-1.4-1.5-2.65-1.35-4.3.8-8.7.7 2.2 2.1 4.6m57.75 110.1l1.95-10.5q8.55 3.5 16.35 2.4l-1.2 5.5-1.05 5.3q7.95.8 10.1 1.95 8.7 6.45 9.6 8.75.65 1.65-.15 6.55-.9 5.45-3 10.7 3.05 4 2.25 4.8l-1.85 2.1-1.9 2.4q-.5.9-1.9 1.35l-3.8.15-4.2 3.2q-2.1 1.45-3.2 1.65l-7.95-.3-2.5 3q-1.6 1.8-2.3 1.8l-3.1-.7q-2.5-.85-3.8-1.85 2.05-10.5 3.6-22.1 1.55-11.75 1.2-14.4-.35-2.7-1.25-6.05l-1.9-5.7"/><path fill="#c9c279" d="M195.15 37.85q1.1 7.15-3.5 11.8-4.95 4.95-12.9 2.5-1.95 2.65-5.3 3.1-2.85.35-6.2-1-4-1.55-5.65-3-2.6-2.25-2.45-5.7-4.75-1.65-7.15-4.7-3.4-4.35-1.55-11.05.8 3.25 4.35 5.6 3.15 2.05 5.95 2.05 2.05 3.85 7.8 4.35 5.65.55 8.55-2.4 3.1 1.95 7.9-.45 4.8-2.4 5.3-6.2 2.25-.45 2.5-5.25.25-5-2.55-7.55 5.05.75 7.45 6.1 2.75 6.05-2.55 11.8M87.5 52.9q-4.05.4-5.1-4.7 1.4 1.35 3.65 1.4 2.55.05 3.75-1.85.55 1.4.1 3.05-.55 1.95-2.4 2.1M69.65 38.4l2.05-4.95q4.8 3.6 5.4 7.35.55 3.55-2.75 6.9 2.1 3.5 1.25 7-.75 3.15-3.5 5.25-2.7 2.05-5.9 2.15-3.45.05-5.8-2.3-4.8 6.25-12.1 3.65-3-1.05-4.95-3.35-2.05-2.3-2.1-4.8-4.2.55-5.7-2.35-1.3-2.55.05-5.7-1.75-2.5-2.2-5.6-.45-3.35 1.1-4.9-.4 5.75 4.7 9.95 4.7 3.9 8.75 2.85 2 4.4 9.85 3.55 7.8-.85 8.05-4.95 2.9.05 4.3-3.4 1.45-3.5-.5-6.35m-41.7 53q-1.45 2.75-.7 5.5.75 2.85 3.4 3.05 1.15 2.65 4.8 3.2 3.75.6 5.05-1.95 2.2 1.15 4.75-.7 2.75-2 2.1-5.4 1.95 1.5 2.65 4.05.7 2.45 0 4.75-1.75 5.7-8.4 4-3.2 4.15-8 2.85-4.95-1.35-5.05-7-4.6-1.85-4.95-6.35-.4-4.6 4.35-6M51.3 246.5q-.4 5.9-7.25 9.7-.7 3.7-3.6 6.45-2.8 2.7-6.75 3.7-9.15 2.25-15.15-5.35-2.5 2.05-5.4.8-3.1-1.35-2.8-5.35-2.95-1-5.55-4-2.7-3.1-3.6-6.75-2.3-9.2 7.85-13.55-3.35 4.45-1.3 10.2 2.05 5.65 6.8 6 .75 4.45 7.6 6 6.95 1.55 9.85-2.7 4.75 2.15 10.2-1.55 6.05-4.1 5.2-11.65 4.25 2.85 3.9 8.05m42.6 49.4q.9 1.9 3.3 2.2 1.35 4.85 5.1 5.7 3.6.8 5.7-2.5 1.95 1.75 4.9-.4 3.1-2.3 2.25-6.35 5.3 2.3 4.75 6.85-.55 4.85-8.6 5.55.25 3.35-1.75 5.7-2.15 2.55-5.6 2-8.4-1.45-8.95-9.6-4.8-1.5-5.7-6.2-1.05-5 5.05-7.1-1.4 2.2-.45 4.15m156.4-24.1q1.8 1.55 3.6 1.85 2.25.35 3.95-1.45.6 1.65-.05 3.55-.7 2.2-2.6 2.25-2 .1-3.65-2.05-1.55-2.1-1.25-4.15m16.5-19.85q-1.2-4.4 1.2-6.7.5 5.45 4 8.25 3.35 2.75 7.9 1.9 1 5.75 5.85 6.15 4.6.35 5.9-3.6 2.3 1.95 5.9.45 3.8-1.5 3.5-5.25 3.75 0 6.35-4.05 2.8-4.4 1.3-9.8 3.95 4.25 3.95 9.05.05 5.5-5.65 8.65 2 7.65-2.9 11.9-4.75 4.15-10.2.65-7.35 5.15-15.3 2.45-8.7-3-7.95-13.95-2.75-2.05-3.85-6.1m62.8-66.15q-6.35-2.05-8.2-7.65-2-6.15 3.95-11.35-1.45 4.65 1.15 8.65 2.5 3.9 6.65 3.9 2 6.1 8.8 5.95 6.7-.1 8.35-5.3 1.2 1.45 3.5.35 2.3-1.05 2.2-2.85 3.35.2 5.35-3.5 2.2-4.1-.35-9.2 4 1.45 5.45 5.6 1.7 5.05-3.85 9.2 1.15 4.25-.9 7.5-2.2 3.4-6.75 3.3-1.4 2.9-5.1 4.8-3.7 1.9-7.8 1.85-10.3-.2-12.45-11.25"/><path fill="#dbdcdc" d="M340.85 80.85q2.8 3.25 5.4 7.65-1.5 1.15-3.4 1.75l-2.6.05q-.5-.6-.15-4.05l.75-5.4m-79.4 80.55q1.65 2.25.85 10.55-.8 8.85-3.8 14.6-1.35.35-8.9-5.2-6.6-4.85-9.7-7.8l5-4.85q.65 3.75 3.5 5.8 2.7 1.95 5.85 1.35 3.4-.65 5.35-4.05 2.25-3.9 1.85-10.4m-146.75.55q-.1 5.6 3.4 9.6 3.15 3.65 8.05 4.8 4.7 1.15 8.1-.65 3.7-1.9 3.55-6.35l4.1 4.05q1.4 1.75 2.1 3.8l-22.6 12.5q-2.5-1.05-3.5-2.2-1.5-1.75-2.05-5.65-1.55-10.5-1.15-19.9m49.95-14.15l5.25-.5 5.9.5q.05 3.2-1.2 4.35-.45.4-3.05 1.3-4.4-.8-12.35-.1-6.8.55-11.85 1.7l-1.6-3.35q2.85-1.1 10.3-2.4l8.6-1.5m52.55 7.35q-1.3-.1-1.45-1.15l-.1-2.05q6.5-1.4 13.85-1.25l9 .8-.35 2.05-.65 2.5-10.2-.75q-5.85-.25-10.1-.15m3.5-46.15q-.6-2.45-.35-4.1 10 3.4 20.25 9.5 9.5 5.7 15.05 11.1-.35 1.65-1.25 3-.8 1.25-1.7 1.75-5.35-4.5-14.9-10.85-9.75-6.55-17.1-10.4m-57.35-3.45q-11.55 3.15-23.05 8.15-14.6 6.3-25.3 14.1-1.85-.95-3.5-2.45-1.4-1.3-3.35-3.8 12.7-7.8 27.05-13.25 15.35-5.8 28.8-7.45l-.65 4.7m127.85-72.2q9.8.4 16.2 2.05l-1 3.3q-4.3-1.3-15.45-1.25-10.9 0-16.25 1.15-1.05-2-1.55-4.2 7.5-1.45 18.05-1.05m44.05 13.85l.2-2.35q3.55 2.55 7.45 6.3 3.9 3.8 5.5 6.3 1.45 2.2.7 4.2-.55 1.4-1.85 2.25-2.2-6.15-12-16.7"/><path fill="#c9c279" d="M198.85 191.45q14.55.25 23.85 8.1 8.4 7.05 8.5 16.25.05 7.45-7.1 12.35-4.9 3.35-12.4 5.05-1.75.4-2.85 1.55-1.05 1.1-1.9 3.25-1.35 3.4-5.65 4.3-1.45.25-5.7.1l-7.55-.6q-4.65-.65-4.65-7.95 0-1.7-.9-2.7-.75-.8-2.25-1.25-7.1-2.1-12.15-6.35-6.2-5.3-5.9-11.75.45-8.6 10.85-14.55 10.6-6.05 25.8-5.8m19.5 24.15q.4-5.05-4.9-9.4-5.5-4.5-13.55-5.05-8.25-.6-15.8 2.75-7.6 3.35-7.95 7.9-.35 4.5 6.4 8.8 6.55 4.25 13.85 4.6 8.5.4 14.35-1.6 7.2-2.5 7.6-8"/><path fill="#c9c279" d="M145.1 219.25q2.6.3 3.9 3.4.85 2 1 4.95.1 1.85 1.25 3.75 1 1.7 2.4 2.8 2.85 2.35 17.05 10.45l16.3 9.05q2.35 1.2 4.75.9 1.45-.15 4.05-1.2 5.05-2.1 14.7-7.55 10.15-5.75 17.25-10.7 1.4-3.2 3.8-7.05 2.65-4.25 4.6-6.05 1.95-1.85 6.3-1.9 4.1 0 5.55 1.45 1.35 1.35 1.85 5.15.5 3.75-.3 5.95-.8 2.15-3.45 4.25-2.55 2-5.55 3.05-4.05 1.4-9.9 5.5l-11.7 6.95-17.05 9.6q2.85 1.7 9.45 3.35 5.9 1.5 10.65 2-3.3 1.95-8.55 4.15-4.1 1.7-7.6 2.85-2.1-.9-6.45-2.25l-5.7-1.85q-2.2-.75-3.95-.6-1.35.15-3.55 1.05-17.05 6.4-21.6 8.2l-3.2 1.25q-1.7.8-2.1 1.95l-11.1-2.15q-8.95-2-12.2-3.3 2.9-5.95 8.35-4l4.65.5 5.55-.8q2.8-.75 11.4-4.2 9.25-3.7 14.05-6.15l-34.55-18.85q-1.55-.9-4.35-1.75l-4.95-1.45q-2.3-.65-4.15-2.65-1.75-1.85-2.7-4.35-1.5-3.8 3.65-11.25 1.5-2.2 5.45-2.65l6.7.2"/><path fill="#8f75a3" d="M297.7 96.75q8.3-2.35 15.95-6.25 7.45 3.15 8.9 7.35.8 2.25-.25 4.55-.8 1.7-3.5 2.25-4.25.8-11.9-1.95-6.85-2.45-9.2-5.95"/><path fill="#dbdcdc" d="M265.7 63.8l-.7-3.2 13.9.45-1.35 3.05q-2.75-.8-5.9-.8l-5.95.5"/><path fill="#0d131a" d="M242.95 97.4q-9-14.25-26.9-23.55-18-9.35-41.9-12.05-22.5-2.55-44.45 2.6-21.05 4.9-39.1 16.15-1.55 1-1.95.4-.45-.55 1-1.65 16.45-12 38.95-17.45 22.85-5.5 45.85-2.75 24.85 2.95 43.05 12.35Q237.65 81.9 247 99.1l-4.05-1.7M53.6 142.35q1.15-.65 1.5-.15.35.45-.7 1.25-6.3 4.55-7.5 5.45-4.1 3-5.3 4.35-1.25 1.45-1.7 6.6-.4 4.9.2 8.85.55 3.55 2.2 8.05 1.65 4.55 3.05 6.1 1.65 1.85 5.1 3.55 4.05 2 8.35 2.5 1.45.15 1.45.7 0 .55-1.45.55-4.7.05-9.55-1.95-4.25-1.7-6.05-3.75-1.6-1.8-3.65-6.65-2.15-5.1-2.7-8.8-.6-3.85.05-9.4.65-5.9 2.2-7.6 2.45-2.8 14.5-9.65"/><path fill="#0d131a" d="M107.65 70.3l-2.25.9q-1.7-2.15-5.15-4.1-3.9-2.2-6.75-2.05-3 .1-9.15 3.65-5.6 3.2-8.3 5.85-3.15 3.15-5.55 7.6-2.3 4.2-2.8 7.35-.55 3.15-.1 7.05.4 3.2 1.3 5.95l-1.55 2.1q-1.25-3.35-1.95-7.2-1-5.3-.35-8.65.8-4.1 3.3-8.85 2.55-4.85 5.5-7.8 2.5-2.5 8.9-5.85 6.9-3.6 10.4-3.8 3.45-.15 8 2.5 4.05 2.35 6.5 5.35m71.9 25.45q.5-2.75.1-4.25-.5-1.9-4.4-5.35-3.85-3.4-8.4-6.05-.95-.55-.7-1 .25-.45 1.25 0 4.75 2.15 9.5 5.85 4.95 3.85 5.55 6.15.45 1.65-.75 4.65l-2.65 5.15q-.55.95-1 .75-.45-.2 0-1.2 1-2.25 1.5-4.7m31.85-3.9q.1-1.2.7-1.2.6.05.65 1.2.35 6.75.9 11.2.2 1.35-.9 1.45-1.05.1-1.3-1.25-.75-4.75-.05-11.4m6 12.75q-1.15-.4-.95-1.05.25-.6 1.45-.25 11.75 3.6 22.75 9.95 11.45 6.6 17.25 13.55.9 1.05.4 1.5-.45.45-1.45-.55-6-6.05-17.7-12.8-10.95-6.35-21.75-10.35m-65.15 1.35q0 .9-.45 1.55t-1.05.65q-.6 0-1-.65-.45-.65-.45-1.55t.45-1.55q.4-.65 1-.65t1.05.65q.45.65.45 1.55"/><path fill="#0d131a" d="M231.3 111.75q0 .9-.4 1.55l-.95.65q-.55 0-.9-.65-.4-.65-.4-1.55 0-.95.4-1.6.35-.65.9-.65t.95.65q.4.65.4 1.6m-118.9-23.9q1.9-.35 2 .3.1.7-1.8 1.05l-6.5 1.7q-4 1.25-6.9 2.5-2.2.95-2.45-.15-.25-1.1 1.95-2 4.85-1.9 13.7-3.4M84.75 110.9q.2-1.3.7-1.25.5.05.4 1.35-.55 7.7.35 12.55.85 4.8 3.3 7.8 1.7 2.05 3.85 3.2 2.2 1.25 5.45 1.85 1.75.3 1.7.7-.05.4-1.8.4-3.3 0-6.45-1.35-3.2-1.3-4.95-3.45-5.1-6.2-2.55-21.8m153.3 39.85l1.75.3q-.3 2.75-1.3 5.2-1.15 3-2.65 3.45-1.65.5-10.25-1.05-8.5-1.55-9.65-2.45-.5-.35-.85-1.65-.25-1.05-.25-2.1l1.85-.05q0 1.85.4 2.15.9.7 8.85 2.2 8.05 1.55 9.4 1.15 1.6-.5 2.7-7.15m-40.5 30.2q-11.95-.45-15.25.95-2.85 1.2-7 3.7-4.55 2.7-8.1 5.45-1.1.85-1.5.3-.45-.5.6-1.4 4.4-3.55 8.4-6.35 4.6-3.15 7.1-4.15 4.65-1.85 19.2-.95l16.3 1.6q1.65.25 5.15 2.55 3.15 2.1 4.9 3.85 1.05 1.05.75 1.55-.25.45-1.5-.4-6.9-4.9-9.45-5.2l-19.6-1.5m19.9 33.65q.3-3.95-5.2-7.85-5.85-4.1-13.5-4.55-6.9-.4-13.4 1.95-7.85 2.8-8.35 8.1-.4 4.4 5.65 8.1 6.1 3.75 13.8 3.8 8.9.1 14.45-2.15 6.1-2.5 6.55-7.4m1.85.15q-.25 5.1-5.6 8.05-6.05 3.4-17.25 3.05-8.75-.3-15.25-4.5-6.55-4.2-6.1-9.35.6-6 8.85-9.3 7-2.85 14.95-2.35 8.2.5 14.4 4.85 6.25 4.4 6 9.55m-129.6-14.7q.55-1.2 1.1-1.05.55.15.15 1.4-1.35 3.95-2 7.45-.75 3.85-.2 4.95l5.45 9.85q.45.8 5.7 2.55 5.25 1.7 8.4 2.05 1.25.1 1.2.75 0 .6-1.2.55-3.1-.05-8.95-1.5-6.3-1.6-7.15-2.9l-2.75-4.95-2.85-5.7q-.8-1.8.75-6.95 1.05-3.6 2.35-6.5M301.2 36l-.25 1.3q-.3.5-.7.5l-.7-.5q-.3-.55-.3-1.3t.3-1.25q.3-.55.7-.55.4 0 .7.55l.25 1.25m40.2 15.2l-.3 1.05-.55.4q-.35-.05-.55-.45-.25-.45-.2-1.05l.3-1q.25-.45.6-.4l.5.45.2 1m-8.7-6.9q0 1-.75 1t-.75-1q0-2.4.6-4.5.25-.85.7-.8.5.05.4.9l-.2 4.4m-14.05-15.15q-.05-.95.4-.95t.7.9l.45 3.4q.1 2.2-.25 2.85l-1.85 1.8q-1.65 1.15-2.8 1.5l-1.1-.1q-.1-.35.7-.95l3.35-2.9.35-1.9.05-3.65m31.8 65.2q.25-1.3.85-1.2.55.1.45 1.4-.7 7.5-2.35 14.95-1.55 7-2.95 9.75-1.4 2.85-5.3 7.05-5.8 6.25-13.5 10.75-1.25.75-1.55.25-.35-.5.85-1.35 12.35-8.6 17.1-18.05 3.25-6.5 6.4-23.55m-20.3 9.2q1.6-5-2.65-10.5-4.3-5.45-12.25-8.65-8.6-3.45-16.5-2-7.95 1.5-9.95 7-1.95 5.55 3.05 11.35 5.2 6.05 15.1 8.8 8.2 2.3 14.9.6 6.7-1.75 8.3-6.6m-1.3-11.4q4.5 6.25 2.85 11.8-1.65 5.5-9.2 7.75-7.5 2.15-16.15-.25-10.35-2.9-15.9-9.45-5.6-6.55-3.3-13.1 2.25-6.35 11.05-8.2 8.7-1.85 17.9 1.85 8.25 3.3 12.75 9.6"/><path fill="#0d131a" d="M320.55 96.2q-2.75-3.4-8.3-5.5-5.45-2-9.4-1.8-4.1.25-5.3 2.85-.95 2 1.9 5.1 2.95 3.25 7.75 4.95 12.25 4.35 14.6 0 1.3-2.4-1.25-5.6m-24.65-5.15q1.45-3.1 6.4-3.75 5-.65 10.85 1.55 6.2 2.3 9.15 6.55 2.8 3.95 1.15 7.05-1.75 3.3-7.9 3.05-4.4-.15-8.95-1.8-5.35-1.9-8.7-5.95-3.3-3.95-2-6.7M286.6 149h2.3l-2.3 10.6-1.8 8q-.25 1.6-.85 1.5-.55-.1-.45-1.7.45-4.65 1.25-8.2 1.1-4.9 1.85-10.2m4.5 22.25q.4-.2 1.15.55 3.4 3.6 3.5 4.25.15.9-.5 3.2-.6 2.35-1.4 3.55-.7 1.1-2.45 1.85-1.6.7-3.55.85-1.25.1-1.3-.45 0-.55 1.25-.65 1.35-.1 2.85-.95l1.95-1.75q.65-1.1 1.1-2.85.4-1.65.25-2.3l-1.15-2-1.55-2.25q-.6-.85-.15-1.05m69.6-6.25l-.25-.45q.05-4.95-2.9-8.3-2.45-2.8-6.15-3.75-3.7-.95-6.95.4t-5 4.55q-.55 1.05-.95.8-.4-.2-.05-1.35 1.3-3.8 5.45-5.65 4-1.75 8.2-.65 4.15 1.05 6.9 4.5 3.2 3.95 2.7 9.1 2.8 1.35 4.4 3.8 1.5 2.3 1.5 4.8 0 2.1-1.15 4-1.2 2-3.4 3.15.85 1.95.65 4.1-.2 2.25-1.5 3.95-1.1 1.5-3.4 2.45-2.25.9-3.95.65l.55-1.3q1.25-.1 2.6-.8 1.5-.85 2.55-2.25 2.25-2.9 1.4-6.9-.1-.4.2-.6 3.55-2.45 3.55-6.35 0-4.4-5-7.9M256.8 270.75l-3-.05q-2.65.75-2.85 1.75-.15.95 1.35 2.85 1.55 1.95 2.65 1.85 1.6-.1 2.3-1.9.7-2-.45-4.5m-7.4 1.3q.3-1.65 4.1-2.65 3.75-1 4.5.55 1.6 3 .6 5.95-.95 2.85-3.6 3.05-1.95.2-4-2.55-1.95-2.6-1.6-4.35M50.5 24.4q3.5-4.15 8.2-5 4.8-.9 8.95 1.95 3.6 2.4 4.75 7.15 1.25 5.3-1.85 9.6-.55.8-.9.6-.35-.25 0-1.2 1.85-4.7.8-8.5-.95-3.45-4.1-5.45-3.7-2.35-7.45-1.9-3.85.45-7.3 3.75-.85.75-1.4.4-1.35-.75-3.05-.75-1.65.05-2.8.75-1.3.85-1.85 1.8-.5.95-.55 2.4l-.1.65-.6.45q-2.25.7-4.05 2.75-1.75 2-2.55 4.75-1.3 4.6 2.35 9.75.8 1.1.5 1.4-.25.3-1.25-.6-2.4-2.2-3.45-5.9-.9-3.15-.4-5.3.7-2.9 3-5.05 2.05-1.95 5.05-2.95-.35-1.5.3-3.15.8-1.9 2.55-3 1.6-.95 3.75-.7 2 .25 3.45 1.3m-8.75 198.4q4.4 2.3 6.15 7.5 1.5 4.4.45 7.9 2.3 1.55 3.3 4.65.8 2.4.55 4.25-.35 3.15-2.55 5.75-2.1 2.5-5.05 3.65.05 3.5-2.8 6.45-2.75 2.75-7 3.95l-8.65.25q-5.1-1.15-7.9-5.2-1.55.95-3.4.95-1.85 0-3.25-.95-1.2-.85-1.75-2.6-.45-1.55-.1-2.55-6.15-2.15-8.55-8.05-1.9-4.65-.9-9 .75-3.55 3.6-5.85 2.75-2.2 6.4-2.6-.9-3.05.7-6.1 1.55-3.05 4.65-4.5 3.25-1.5 6.95-.35 3.5 1.05 5.4 4 2.45-1.9 5.45-2.55 4.4-1 8.3 1M50 246.7q.55-4.35-2.75-7.8-.25-.25-.2-.5.8-4.55-.95-8.25-1.65-3.65-5.2-5.5-3.55-1.85-7.35-1.15-3.9.7-7.2 3.95-.75.75-1.1.4-.35-.35.3-1.2l1.4-1.45q-1.65-2.3-4.65-3.1-3.1-.8-5.9.45-2.65 1.2-3.85 3.65-1.15 2.35-.8 5.6.05.65-.9.75-3.05.25-5.35 2.25-2.35 2.05-3.1 5.4-.95 4.1.85 8.15 2.1 4.8 7.6 7.65.4.15.3.6-.25 2.6 1.5 3.8 1.05.75 2.4.8 1.6.1 3.05-.85l.75.1q2.85 3.85 7.55 4.85l8-.35q3.85-1.1 6.3-3.4 2.45-2.4 2.7-5.4l.3-.45q5.5-2.75 6.3-9M71.5 98.45q1.15-1.25 1.55-.8.45.45-.6 1.8-7.25 9.55-11.8 19.45-5 10.95-8 24.95l-3.5 2.65q6.05-30.25 22.35-48.05m162.85-3.05q-1.5-.5-1.35-1.1.1-.65 1.65-.3 13.6 3.05 23.65 9.55 8.9 5.8 10.15 10.7.9 3.7-.5 9.25-1.3 5.4-4.55 11.6 2.05 4.35 5.55 15.4 3.45 10.8 4.4 15.7.65 3.3-.6 15-1.35 12.45-3.85 24.35-1.3 6.3-11.55 23.75-8.75 14.9-15.05 23.45-10.25 13.8-34.55 22.4-14 4.95-35.5 8.65-6.3 1.1-18.85-1.25-12.25-2.3-26.15-7-32.85-11.15-45-24.2-14.5-15.55-21.95-28.45-10.2-17.8-10.55-35.5l2.7 1q.35 16.95 10.1 33.8 7.1 12.2 21.4 27.55 11.75 12.6 43.9 23.4 13.55 4.55 25.5 6.75 12.25 2.25 18.3 1.2 22.15-3.8 34.9-8.1 23.8-8.1 33.85-21.65 5.8-7.85 14.55-23.15 9.95-17.35 11.25-23.55 1.9-8.7 3.4-19.8 1.95-13.9 1.15-18.2-.95-5-4.55-16.3-3.65-11.7-5.6-15.75-.15-.2 0-.45 6.6-12.8 5-19.25-1.05-4.3-9.55-9.75-8.95-5.75-21.7-9.75"/><path fill="#0d131a" d="M96.3 260.8l1.95.9-6.2 4.1q-4.35 2.55-6.3 2.75-2 .2-7.3-2.45-5.05-2.5-7.1-4.4-1.8-1.65-4.05-6.05-2.15-4.1-2.3-5.65-.1-.95 1.25-6.35l2.65-9.7 1.6 2.1q-1.15 3.7-2.2 7.9-1.25 4.85-1.15 5.7.15 1.25 2.1 4.7 2.1 3.7 3.9 5.4 2.1 1.95 6.25 4.3 4.5 2.6 6.1 2.45 1.7-.2 5.45-2.35l5.35-3.35m38.1 15.65q2.85 7.35 4.15 8.65 1.1 1.05 5.9 2.9 5.4 2.1 8 1.85l7.5-1.15q4.5-.9 5.3-1.4.75-.5 1.4-1.7.65-1.3.8-2.75l1.8.15q-.15 1.85-.8 3.55-.7 1.75-1.55 2.35-1.05.7-6.05 2l-8.15 1.7q-2.8.25-9-2.45-5.5-2.4-6.8-3.7-.7-.7-2.2-4.35l-2.35-6.1 2.05.45m115.45-37.3l1.1-2.2 2.95 5.75q1.2 2.5 1.2 3.4 0 2.75-.7 5.75-.85 3.4-2.35 5.9-2.05 3.45-8.15 7.1-5.25 3.1-8.6 3.8-3.05.7-10.65-2.6l2.1-1.35q5.4 2.3 8.5 1.6 2.95-.6 7.5-3.55 5.05-3.35 7.05-6.65 3.15-5.25 3.15-9.5 0-1.75-3.1-7.45m-9.55-63.8q-4-3.05-5.95-3.85-4.7-2-20.4-4.2-18.35-2.5-30.8-1.5-23.9 1.95-58.75 23.25-4.2 2.55-6.9 3.55-4.15 1.55-7.7.85-1.55-.3-1.45-1 .05-.75 1.55-.45 3.05.6 6.5-.75 2.15-.85 6.95-3.8 36.7-22.5 59.8-24.4 12.1-1 30.6 1.55 16.3 2.25 21.45 4.45 1.95.85 6.35 4.3l7.95 6.45q6 4.8 7.5 5.55l1.55.2q1.05-.15 1.8-.9 3.65-3.65 4.85-8.15 1.05-4.15-.05-8.45-.35-1.35-3.3-3.9l-.3-2.9q5.55 4.3 6 6.15 1.2 4.35-.2 9.65-1.6 6.15-5.95 9.3-1.25.85-2.6 1.2l-2.3-.05q-1.05-.5-3.55-2.3l-5.2-3.95-7.45-5.9M194.45 151q-5.8-1.15-14.05-1.8l-11.75-.5q-6.25.25-15.5 2.6-12.45 3.2-24.6 9.05l-2.15-1.95q12.55-6.05 25.85-9.35 9.75-2.45 16.4-2.7 6.7-.25 26.4 2.85l14.15 1.55q5.8.25 13.25-.3 11.45-.9 18.15.35 7.25 1.3 14.55 5.95l-1.15 1.9q-4-2.45-8.95-4.25-3.85-1.4-7.05-2l-6.3-.3-8.95.4q-6.55.6-13.85.25-7.4-.4-14.45-1.75"/><path fill="#0d131a" d="M114.25 165.15l.2 2.7-4.1 3q-5.45 4.65-4.1 11.45 1.45 7.2 9.7 9.8l-2.25.55q-6.45-1.5-9.3-8.2-3.25-7.65 3.75-14.4 2.55-2.5 6.1-4.9m52.8-65.2q1.4.1 1.25.75-.15.6-1.55.6-9.35.15-28.2 7-20.45 7.4-33.3 16.3-1.25.9-1.65.4-.45-.5.7-1.45 12.75-10.4 34.05-17.8 19.25-6.7 28.7-5.8"/><path fill="#0d131a" d="M162.9 100.85l2-.05q-.5 11.4-8.3 19.95-7.65 8.45-20.15 11.8-8.75 2.35-15.55.25-7.6-2.35-13.6-10.4l1.6-1.15q6.35 7 12.65 9 6.15 1.95 14.2-.2 13.45-3.6 20.7-12.5 6.1-7.5 6.45-16.7M237.4 133q-6.95-1.85-12.35-9.45-6-8.45-5.6-18.85l1.65.65q.25 9.4 5.55 16.8 4.9 6.8 11.25 8.5 7.3 2 11.8.4 4.45-1.55 5.15-6.2l1.35 1.4q-.7 4.7-5.8 6.7-5.4 2.15-13 .05m-62.2 14.7l1.7.2q-.05 1.9-.5 3.05l-1.2 1.95q-1.8 2.1-13.3 4.55-11.05 2.35-12.45 1.6-1-.5-2.25-2.55-1.2-1.95-2.2-4.55l1.55-.75q2.35 5.25 3.55 5.9 1.55.5 11.65-1.65 10.65-2.25 12.25-4.1l.85-1.35.35-2.3m65.75 26.9l-1.95-1.4 8.95-9.3 6.55-7.55q1.95-2.6 3.75-2.45 1.85.2 2.95 3.2 2.3 6.35 2.1 13.75-.25 7.7-3.3 15.1l-2.55.4q6.3-16.8 1.95-28.7-1.15-3.1-3.45 0l-6.3 7.55q-5.3 6.1-8.7 9.4m-119.9-18.9q-2.05-1.55-3.5-1.1-1.4.45-1.7 2.6-.7 5.1-.3 12.3.45 7.85 2.1 14.85.35 1.6 2 2.95 1.5 1.3 3 1.5l-2.65 1.4q-1.7-.35-3-2-1.25-1.45-1.7-3.35-1.7-7.05-2.05-15.35-.3-7.55.6-12.95.55-2.95 2.65-3.85 2.3-1 5.45 1.2 5.1 3.55 12.55 10.55 7.05 6.7 11.3 11.75l-2.6 1.05q-4.4-5.25-10.25-11.05-6.6-6.5-11.9-10.5m108.45 63.45q2.75-8.65-5.45-16.8-9.05-9.05-25.5-9.9-15.95-.8-26.4 6.4-8.55 5.8-9.2 12.65-.45 4.8 4.75 10.2 5.5 5.65 13.5 7.65 3.25.85 3.25 3.4 0 2.6.25 4.45.25 2.5 3.05 3.3l6.5.85 7.4-.2q2.05-.55 2.95-1.45 1.2-1.05 2.2-3.85.5-1.35 1.4-2.25.95-.85 2.05-1.05 15.95-2.85 19.25-13.4m-58.45-22q11-7.5 27.85-6.65 17.95.95 27.15 10.9 8.1 8.8 5.1 18.2-1.85 5.75-6.8 9.5-5.25 3.95-13.55 5.4-1.55.3-2.6 3.15-1.05 2.9-2.35 4.05-1.05.85-3.55 1.5-2.3.6-8.3.2l-7.45-.9q-3.5-1-3.75-4.35l-.2-2.25-.15-2.75q0-1.65-2.5-2.3-8.8-2.2-14.15-8.3-5-5.65-4.55-11.45.65-7.7 9.8-13.95"/><path fill="#0d131a" d="M147.85 219.1q1.4 1 2.3 3.6.8 2.3 1 5.25.15 1.75.85 2.95.8 1.3 2.5 2.55 5.35 3.9 13.95 9.1 10.9 6.6 19.6 10.7 1.75.85 3.1.8 1.35-.05 3.45-1 7.65-3.45 17.1-8.9 9.55-5.55 14.85-9.55.85-.65 1.95-3.15 1.95-4.35 5.5-8.75 2.45-3 6.8-3.9 4.35-.9 7.1 1 1.3.9 2.25 3.1.9 2.1 1.15 4.45.2 1.6-.25 3.75-.65 3.05-2.4 4.9-1.7 1.85-4.1 3.15l-4.65 2-3.55 1.35q-2.1.85-3.55 1.9-3.65 2.65-11.9 7.6l-17.3 9.9q10.75 3.95 19.8 4.7l-2.7 1.65q-8.8-.95-18.85-5-1.1-.4-1.15-1.05-.1-.65.95-1.2l17.85-10.15 12.25-7.8q2.75-2 7.75-3.85l4.15-1.85q2.05-1.2 3.65-2.95 2.2-2.4 1.65-6.95-.45-4.05-2.45-5.45-2.2-1.55-5.7-.8-3.3.7-5.1 2.85-3.55 4.45-5.1 8-1.35 3.05-2.45 3.85-5.3 4-15.35 9.65-9.55 5.35-17.75 9.05-4.05 1.85-7.35.35-8.85-4.15-20.2-10.95-9.45-5.65-14.5-9.3-3.5-2.55-3.75-6.5-.15-2.05-.75-4-.75-2.55-1.95-3.4-1.4-1-5.2-1-4.05 0-6.1 1.4-2.2 1.5-3.65 4.45-1.45 2.9-1.3 5.35.1 2.35 1.65 4.7 1.55 2.35 3.3 2.9 9.1 3 10.2 3.55l17.8 9.9q11.35 6.15 16.85 8.95 2 .95-.15 2.1-5.2 2.75-14.7 6.35-8 2.95-11.65 3.9-5.65 1.45-8.85.4-2.5-.85-4.05-.4-2.2.6-3.6 3.95l-2.25-.9q1.75-4.1 5.1-5l4.55.2 4.1.55 4.7-.45q2.5-.5 10.6-3.55 9.15-3.4 14.45-6.1-6.6-3.35-16.75-8.85-11.15-5.95-17-9.3-.6-.3-4.35-1.7l-5.55-1.9q-2.75-.8-4.65-3.65-1.8-2.7-1.95-5.65-.2-2.55 1.2-5.85 1.6-3.95 4.5-5.9 2.5-1.7 7.4-1.65 4.65.1 6.65 1.5"/><path fill="#0d131a" d="M161.65 278.8l24.65-9.3q3.9-1.6 6.3-.7l6.85 2.3 8.4 2.7-2.9 1-13.45-4.5-1.85-.05q-.95.15-2.95.95-17 6.8-24.05 9.15-2.2.75-2.75 2.35l-2.15-.5q.35-1 1.5-2 1.1-.95 2.4-1.4M201.6 66.45l-2.15-.75q1.3-1.5 3.45-3.45 2.85-2.65 4.1-3.05 2.2-.75 8.25-.2 6.05.5 8.7 1.65 2.7 1.15 7.05 5.65 4.4 4.55 5.05 7.1.55 2.1 1 7l.45 7.7-2.1-2.3-.55-6.35-1-5.5q-.5-2-4.45-5.85-3.95-3.85-6.6-5-2.6-1.1-7.75-1.9-5.4-.8-7.35-.15-.9.35-2.7 1.95l-3.4 3.45M88.45 46.3q-.95-1.15-2.55-.9-1.55.25-2.4 1.65-.35.55-.15 1.7.2 1.15.9 2.1 1.1 1.55 2.85 1.45 1.7-.1 2.2-1.5.35-1.05.05-2.4-.25-1.3-.9-2.1M89.8 45q.8.95 1.15 3.1.35 2.25-.1 3.65-.7 2-3.3 2.4-2.8.45-4.45-1.9-.9-1.25-1.25-3.05-.35-1.9.15-2.9 1.3-2.4 3.8-2.8 2.45-.35 4 1.5m-54.9 1.85l1.1 1.2q-1.1 2.9.65 5.05 1.65 2 4.15 1.45 1.1-.2 1.15.85.15 2.8 2.5 4.75 2.1 1.7 5.5 2.4 2.9.65 5.2.1 4.05-.9 5.6-5.3.4-1.05.85-.85.5.15.2 1.25-1.1 4.1-5 6-3.5 1.7-7.2 1-3.6-.7-6.25-3.25-2.75-2.6-2.9-5.55-3.4.8-5.45-1.95-1-1.3-.95-3.4 0-1.9.85-3.75"/><path fill="#0d131a" d="M71.5 34.3l.4-1.55q2.3 1.15 4.1 3.5 1.8 2.35 2 4.55.45 4.15-2.9 6.95 2 3.25 1.6 6.55-.4 3.65-3.65 6.2-2.95 2.3-6.75 2.45-4.2.15-6.35-2.7l.6-1.05q2 2.1 5.4 1.9 3.15-.15 5.7-2.15 2.55-1.95 3.25-4.6.9-3.15-1.2-6.3-.2-.4.1-.7 2.55-2.6 2.15-6.3-.2-1.85-1.45-3.7-1.2-1.75-3-3.05M31.65 86.2q1.9-1.9 4.35-2.15 2.35-.2 4.55 1.1 2.2 1.35 2.9 3.5l2.55.1q1.25.35 1.95 1.25.7.95.75 2.35.05 1.4-.55 2.45 3 3.05 3.1 6.45.1 2.9-1.8 5.2-1.65 2-4.1 2.55-2.5.6-4.2-.65l.65-1.1 3.15.2q1.85-.6 3.25-2.2 1.3-1.6 1.5-3.5.4-3.25-2.55-6.4-.25-.25-.1-.6.7-2.15-.45-3.65-1.3-1.5-3.4-1.3l-.55-.35Q41.8 87.7 40 86.7q-1.85-.95-3.95-.75-2.15.25-3.6 1.6-1.5 1.4-2 3.6l-.5.45q-2 .05-3.5 1.3-1.55 1.25-1.95 3.15-.45 2.15.75 4.05t3.75 3.2l-.45.95q-3.45-.9-5-3.65-1.35-2.35-.8-4.9.5-2.2 2.6-3.8 2.1-1.6 4.15-1.35.25-2.5 2.15-4.35"/><path fill="#0d131a" d="M42 105.8q.5-.95.9-.75.45.2.1 1.25-1.25 3.8-4.7 5.1-3.05 1.2-5.9 0-2.55-1.1-3.8-3.5-1.4-2.75 0-5.6.45-.95.85-.8.45.15.2 1.15-.65 2.6.5 4.55.95 1.75 3 2.6l4.65.2q2.65-.95 4.2-4.2m147.9-85.2q-.35-.05-.45-.5-1.3-4-4-6.4-2.65-2.35-6.4-2.9-6.4-.9-10.25 5.65-.6 1-1 .9-.4-.15-.05-1.25 1.2-3.5 4.6-5.6 3.4-2.15 7.1-1.75 3.95.45 7.05 3.4 3.1 2.95 4.05 7.2 2.8.35 5.05 2.2 2.2 1.8 3.15 4.4 1.1 3.1.4 6.6-.85 4-3.7 6.05l-.45-1.35q1.8-2.15 2.3-5.15.55-3-.45-5.65-1.85-5.05-6.95-5.85"/><path fill="#0d131a" d="M170.8 12.5l-1.15.9q-1.55-1.05-3.15-1.1-1.65-.05-3.7 1-2.8 1.45-4.4 3.95-1.8 2.8-1.2 5.95.1.45-.3.6-3.15 1.4-4.85 4.4-1.7 2.9-1.5 6.45.25 3.3 2.15 5.8 2.25 3 6.5 4.25l-.15 1.5q-4.25-.45-7.3-3.95-2.9-3.35-3.15-7.6-.2-2.95 1.3-6.1 1.95-4.15 5.95-5.7-.7-3 .75-6.05 1.6-3.3 5.2-5.15 4.85-2.55 9 .85M89.85 293.85q1.6-1.95 3.85-2.45-1-2.25.25-4.95 1.3-2.7 3.8-3.65 2.4-1 5.15-.1 2.95 1 4.45 3.7 1.65-1.25 3.7-1.3 2-.05 3.45 1.05 1.8 1.35 2.55 3.9.75 2.65-.1 5.35l-1.15-.7q.45-2.15-.2-4.05-.75-2-2.65-3.1-2.95-1.75-5.5.2-.45.35-.8-.15-1.3-2.35-3.75-3.1l-4.4.1q-2.15.8-3.15 2.65-1 1.85-.5 4.4.1.55-.4.65-2 .55-3.15 2.15-1.2 1.6-1.2 3.7 0 1.9 1.15 3.5 1.35 1.8 3.8 2.45l-.1 1.5q-2.9-.3-4.85-2.6-1.9-2.15-1.9-4.85 0-2.3 1.65-4.3"/><path fill="#0d131a" d="M115.55 295.2q-.9-.5-.7-.95l1.15-.05q2.6.95 3.95 3.25 1.3 2.3.6 4.75-.7 2.35-3.05 3.95-2.45 1.6-5.55 1.55-.1 2.5-1.05 4.35-1.1 2-2.9 2.8-3 1.3-6.3.3-3.2-.95-5.25-3.55-1.9-2.4-2.15-5.35-.3-3 1.15-5.8.55-1 1-.8.45.2.05 1.3-1.15 3.3-.55 6.1.45 2.1 1.75 3.5 1.95 2.05 4.75 2.8l5-.15q3.35-1.35 3.3-6 0-.5.3-.65l.8-.1q2.65 0 4.55-1.35 1.8-1.3 2.4-3.45 1.1-4-3.25-6.45m183.85-60.75l-1.6.1q-1.8-3.5-7.1-5.15l-9.95-.3q-4 1.2-5.9 4.2-1.95 3.1-1.5 7.8.1.45-.4.55-2.2.65-3.55 2.45-1.35 1.75-1.65 4.25-.4 3.4 1.35 6.45 1.8 3.1 5.45 5.1.85.5.65.95l-1.2.05q-4.25-1.65-6.65-5.4-2.3-3.6-1.85-7.4.3-2.7 2.15-4.7 1.9-2.05 4.6-2.6-1.1-4.05.55-7.75 2-4.5 7.45-6.1 5.2-1.5 10.95.65 5.9 2.25 8.2 6.85"/><path fill="#0d131a" d="M275.1 271.45q-3.2-2.25-4.6-6.3-1.5-4.15-.15-7.5l1.2.95q-.75 3 .65 5.95 1.3 2.85 4.25 4.85 3.4 2.35 7.45 2.55 4.9.2 9.65-3 .35-.25.65 0 1.9 1.35 4.35 1.2 2.35-.15 4.5-1.6 2.15-1.5 3.15-4.35 1.15-3.3.15-7.1l1.3-.65q1.6 4.4.35 8.6-1.1 3.55-3.6 5.3-2.4 1.65-5.4 1.7-3.15.05-5.15-1.85-4.6 3.75-10.3 3.75-4.85 0-8.45-2.5"/><path fill="#0d131a" d="M293.7 236.1q3.4-2.85 7.05-2.6 6.5.5 10.8 7.8 1.5 2.55 1.85 5.45.4 2.8-.45 5-.8 2.2-2.8 3.9-2.1 1.8-4.95 2.65-.95.25-1.1-.2-.2-.45.65-.8 5.05-2.1 6.45-6.1 1.35-4.05-1.3-8.65-4.25-7.2-9.45-7.35-3.25-.2-6.1 1.8-.95.65-1.2.25-.3-.4.55-1.15m46.65-81.05l-.85 1.15q-3.2-1.35-6.45-1.05-3.25.25-5.15 1.9-3.35 2.95-1.95 9.5l-.25.55q-2.25 1.6-3.2 4.1-.95 2.5-.4 5.35.7 3.35 3.05 5.75 2.4 2.4 5.75 3.1 1.25.25 1.15.75-.1.45-1.4.35-3.6-.35-6.7-3.3-3.15-2.9-3.85-6.6-.55-2.75.6-5.5 1.3-3.05 4.2-4.6-1.1-3-.75-5.9.4-3.15 2.45-5 2.3-2.1 6.25-2.3 4.05-.15 7.5 1.75"/><path fill="#0d131a" d="M328.95 185.65l1.4.2q.25 4 3.2 6.7 2.75 2.45 7.1 3.25 4.95.85 8.95-1.3 4.3-2.35 6.3-7.7.35-1 .8-.9.5.1.25 1.15-1.25 6.2-6.55 9.15-4.75 2.7-10.3 1.65-4.7-.8-7.95-4.2-3.45-3.55-3.2-8M341.6 42.2l-5.35-7.5-4.35-5.65q-1.6-1.75-6.65-4.75-5.65-3.4-12.15-6.25-8.85-3.9-15.6-5.6-9.8-2.55-18.7-1.7-1.6.2-1.7-.55-.1-.75 1.5-.9 16.9-1.65 35.25 6.4 6.5 2.85 12.65 6.65 5.45 3.4 7.15 5.25 2.6 2.9 9.15 13.8.7 1.15.15 1.55-.55.4-1.35-.75M255 13.9q1-.3 1.3.2.25.55-.75.9-8.25 3.2-17.3 9.45-10.2 7-17.25 15.15-.9 1.05-1.4.65-.45-.4.35-1.5 6.5-9.05 16.85-16.05 9.1-6.1 18.2-8.8m-39.5 36.5q-1.6 4.35-2.5 9.5l-2.2-.05q.4-2.3 1.3-5 1-2.85 2.15-4.9.65-1.15 1.15-.95.55.15.1 1.4m130.7-2.45q-.65-.75-.3-1 .35-.3 1.15.3 1.65 1.2 3.25 3.15 1.65 1.95 1.65 2.8 0 1-.75 2.8-.85 1.9-1.85 3l-1.05-1.9q1.6-2.15 1.6-3.8 0-1.15-3.7-5.35m1.7 16q5.75 3.6 6.5 7.4.55 2.5-.95 4.6l1.75 7.1q1.1 5.2 1.1 7l-.05.65q-.2 1.1-2.25 4.5l-4.3 6.55 1.15-4.85q3.15-5.4 3.55-7.3.2-.95-.7-5.5l-1.9-7.8.1-.45q1.1-1.65.55-4.4-.65-3.3-6.05-6.65l1.5-.85m-55.25 83.5l13.15-1.3 6.15-2.75 7.45-3.85q1.45-.8 1.75-.25.3.5-1.05 1.4-3.05 2-7.55 4.45-4.6 2.5-6.2 2.95L293 149.75q-11.8.95-15.2.25-5.9-1.25-11.8-5l-1.1-3.6q2.25 1.8 5.8 3.45 3.9 1.85 7.45 2.55 3.2.65 14.5.05"/><path fill="#0d131a" d="M207.5 47.95q-.2-2.95.55-5 .7-2.05 4-5.5 3.1-3.3 4.7-4.05 1.05-.5 4.65-.9l5.95-.4-2.3 1.95q-5.35.4-7.35 1.3-1.3.6-4.05 3.5-2.95 3.15-3.6 5-.65 1.9-.55 4.3.1 2.2.75 3.4 1.05 2.1 2.8 4.5l-.6 1.75-1.85-2.45-2-3.1q-.9-1.45-1.1-4.3m75.1-38.1l-1.8.15q-1.65-4.3-3.3-5.6-1.3-1-5.2-1.65-4.15-.7-6.9-.15-2.9.6-6.6 2.55-3.65 1.95-5 3.6-1.05 1.25-1.45 3.35l-.35 3.6-1.6.65.1-4.6q.25-2.6 1.45-4.05 1.5-1.85 5.7-4.3Q262.05.75 265 .2q2.9-.6 7.75.55 4.4 1.05 5.9 2.25 1.25 1 2.6 3.65l1.35 3.2m65.6 39.45q.25-6.15-2.9-10.7-2.6-3.85-8.3-5l-1.15-1.65q3.4.2 6.55 1.85 3.15 1.55 4.7 3.8 1.55 2.3 2.35 5.7.95 4.1.05 7.4l-1.3-1.4m-109.15 5.65q.95-.45 1.2 0t-.65.95q-1.55.85-3.15 2l-2.25 1.8q-.5.55-1.1 3.9-.55 3-.75 5.2l-1.7-1.45q.3-2.5.9-5 .7-3 1.25-3.7 1.15-1.45 6.25-3.7m6 25.75q1 .45.85.9l-1.2.15q-4.7-1.45-9.05-4.9l-.4-2.7q1.45 1.55 4.2 3.4 2.85 1.95 5.6 3.15M291 32.3q11.6.35 18.25 2.7 1.4.5 1.25 1.1-.1.6-1.55.25-7.35-1.65-17.85-2.05-11.85-.45-19.85 1.1-1.45.3-1.6-.3-.1-.65 1.35-1.05 7.9-2.2 20-1.75"/><path fill="#0d131a" d="M306.75 35.4l1.45.1q-.7 5.4-6.1 9.7-5.7 4.55-12.85 4.35-5.4-.15-9.65-3.05-5.6-3.85-7.55-11.85l2.1-.45q1.95 7.25 6.65 10.65 3.55 2.6 8.5 2.85 6.7.3 11.85-3.75 4.7-3.65 5.6-8.55m30.3 19.5q1.5 4.9 4.2 7.15 2.45 2.1 4.7 1.45 2-.55 2.6-2.75.55-2.3-5.1-7.95-3.1-3.15-7.5-6.75-.25 4.4 1.1 8.85m-2.3-9.8l-.4-.35q-.75-.6-.4-1 .3-.4 1.1.15 5.85 4.05 10.15 8.45 5.7 5.85 4.85 8.95-.8 3.05-3.55 4-3 1.05-6.3-1.6-2.95-2.35-4.55-7.9-1.5-5.3-.9-10.7"/><path fill="#0d131a" d="M352.15 68.4l-1.75-1.75q-.1-1.95-1.2-5.5l.65-1.8q.75 1.4 1.55 4.5.75 3.05.75 4.55m-19.8 64.8l1.65-1.3-1.6 7.3q-.85 3-1.95 3.4l-12 3.5h-.35q-1.55-.55-3.75-2.75l1.3-.95q.95 1 2.9 1.6l10.4-2.85q1.8-.65 3.4-7.95m-54-4.5q1.2-.3 1.3.15.15.45-1 .95-2.9 1.25-5.25 1.95l-3.2.45q-.8-.25-2.45-1.7l-2.65-2.75.6-2.25q3.65 4.45 4.8 4.85.85.3 7.85-1.65m-7.7 17.55l1.95.75-2.45 12.1-1.1-3.7 1.6-9.15m55.05-80.6q5.15 2.1 12.4 10.35 6.45 7.3 9.5 13.25.65 1.35.1 1.6-.55.3-1.35-.95-3.4-5.45-9.25-11.95-7.35-8.3-12.1-10.2-5.45-2.25-28.35-4.3-24-2.2-42.15-1.75-1.35.05-1.4-.6-.1-.6 1.25-.75 15.45-1.55 41.15.7 23.85 2.05 30.2 4.6M301.35 165.8l-3.05-2.5q-1.4-2.25-3.2-4.35l-2.25-2.25q-.5-.35-6.1 0l.1-2.1 7.4.3q.95.6 3.4 4.3 2.6 3.9 3.7 6.6"/><path fill="#0d131a" d="M296.15 161.15l6.05 4.5q3.7 3.1 4.2 4.4.6 1.55-.5 7.95-1.15 6.75-2.95 10.75l-1.75-2.1q1.65-3.3 2.65-9.25 1-5.5.5-6.7-.55-1.4-8.85-8.65-.85-.75-.55-1.1.3-.4 1.2.2"/><path fill="#0d131a" d="M294.4 197.7l.4-.05q3.85.9 4.4-.8.5-1.45 4.25-5.1.25-.25-1.25-2.55l-2.1-2.95q-.75-1.05-.35-1.3.35-.2 1.3.65 2 1.9 3.4 4.05 1.6 2.55.85 3.25l-2.5 2.5q-1.8 1.85-2.05 2.6-.3 1-1.65 1.3l-4.25-.2-3.55 2.85-3.15 2.15q-1.3.3-5.85-.05l-6.65-1.05q-1.1-.35-1-.75.1-.45 1.25-.35l6.45.4 5.2-.1 3.2-1.9 3.65-2.6"/><path fill="#0d131a" d="M278.85 202.95l2 .15-3.2 3.65q-1.65 1.55-2.5 1.8l-3-.35q-2.3-.7-4.5-1.9l.5-2 3.7 1.7q2.05.8 2.6.65 1-.3 4.4-3.7m61.85-113.2q.45.35 2.1-.3 1.8-.7 2.7-1.8l.95 1.35q-1.1 1.4-3.4 1.95l-3.15-.2q-.85-.65-.55-4.6.3-3.45.95-5.5l1.2 1.4q-.55 2.05-.8 4.7-.3 2.65 0 3m-62.65-28.2l2.1-.05q-1.7 3.15-4.45 5.85-3 2.95-4.9 2.8-1.95-.15-4.25-3.2-2.25-2.9-3-5.95l2.15.05q.75 3.05 2.35 5.4 1.55 2.2 2.85 2.3 1.3.1 3.35-2 2.05-2.05 3.8-5.2m-86.1-13.85q2.35-2.8 2.7-6.2.3-3.2-1.2-6.5-.45-1-.05-1.2.4-.25 1 .65 2.2 3.4 2 7.45-.25 4.1-2.8 7.2-2.35 2.85-6.05 4.1-4.3 1.45-8.55-.05-2.3 2.9-6.75 2.95-4.3.1-9.15-2.45-2.8-1.5-3.8-3.3-1.5-2.85-.25-8.05.35-1.3.8-1.2.5.1.3 1.45-.6 4.3.8 6.55.85 1.4 3.5 2.8 4.45 2.35 7.85 2.3 3.3-.05 6.05-2.35.25-.25.55-.15 3.95 1.4 7.7-.05 3.1-1.2 5.35-3.95"/></svg>