<svg xmlns="http://www.w3.org/2000/svg" width="310" height="269" viewBox="-0.35 -1.0 309.6 269.2"><path fill="#87b1d0" d="M252.65 57.4q3.3.3 4.85 1.05 1.1.55 2.25 1.95 3.2.5 11.35-2.2 4.25-1.4 12.55-4.75 2.25-.9 3.6-.65t2.4 1.85q1.4 2.25.9 5.3-.25 1.75-1.6 5.1-7.5 19.3-7.65 30.15 5.9 6.2 5.9 10.35 0 2.05-2.7 6.55l-4.95 7.4q3-.2 7.5 5.05 1.6 1.9 5.05 6.95 1 1.45.05 3.3-.6 1.2-2.35 2.85 10.7 17.95 14.5 40.8 3.7 21.9-1.4 31.65 1.45 8.95-.3 11.35-1.2 1.65-5.75 4.15-4.85 2.65-8.3 3.2l-13.1.8q-5.95.45-16.1-.4l-12.4-4.35q-1.25-7.35 2.15-15.7-2.6 2.25-6.85 2.7l-6.95.15-12.1-8.05q-6.15 3.5-14.35 10.2-8.25 6.7-13.25 12.35-4 4.45-7.2 3.55l-.15 4.05q1.6.25 1.75 3.05.15 1.5-.1 3.45-.3 2.25-1 3.75-.9 2.1-3.8 4.9-3.55 3.4-7.25 4.8l-15.4 4.25-7.8.8q-5.1.25-8.05-.15l-13.5-5.3q-3.3-2.45-1.95-8.9 1.25-5.85 4.7-9.65.6-2.5 1.2-7.6l.85-8.4q-4.6-.95-8-4.65-3.1-3.35-3.75-7.2-1.3 1.3-2.7 3.15-1.65 2.1-2.2 3.4-.65 1.5-2.5 3.45-1.95 2.05-3.95 3.1-2.35 1.3-5.55 1.7-3.9.5-7.95-.6l-11-.3-9.2-1.1q-2.55-.55-4.8-2.05-1.8-1.2-4.6-3.95-4.35 2.45-10.9 3.95-6.85 1.6-11.6 1.1l-16.1-1.5-6.15-2.45.25-12.4 6.15-7.5q-2.6.1-12.4 1.75-9.05 1.5-12.15-6.95-6.75-18.1-7.25-47.9-.05-2.65 1.35-5l2.6-3.35q1.3-1.5 2.55-4.15 1.35-2.85 1.95-5.5.55-2.5 0-7.55l-1.9-12.25q-2.55-7.4-2.3-12.1.2-3.25 2.05-6.6 5-9.3 12.25-15.7 2.55-2.25 9.45-6.8 3.2-2.2 5.5-2.9 2.55-.8 4.7 0 2.1.75 3.5 3.9 1.2 2.75 1.55 6.35l5.35 1.75q17.65-4.2 31.9-21.9Q93.95 35.5 99 17.95l2-7.55q1.05-3.2 3.05-5 2.25-2.05 8.2-3.1l9.65-.45q6.1.85 10.4 6.7l9.25 12.7q7.3 8.8 13.55 11.3 6-.6 12.9-8.9 2.55-3.05 7.8-11.15l3.95-5.75q2.2-2.9 3.7-3.55 4.4-1.8 10.7-.75 5.35.9 9.9 3.35 3.95 2.1 5.85 4.45 1.85 2.25 2.75 5.95 4.7 17.85 11.5 27.15 4.8 6.6 12.1 10 6.6 3.05 16.4 4.05"/><path fill="#fff" d="M65.05 172.3q7.3 4.9 12.85 10.95 3.7 3.95 7.1 9.1-7.45 1.8-14.15-3.85-2.65-2.2-4.35-6.9-1.7-4.7-1.45-9.3"/><path fill="#e50044" d="M70 176.2q5.15 3.6 10.9 10.15-1.3 1.3-3.2 1.6-2.35.4-4.6-1-2.3-1.45-3.1-4.75-.75-3 0-6"/><path fill="#c6dcdb" d="M27.5 203.1q2.05.4 2.75 5.05.65 4.45-.45 5.65-1.15 1.25-6.4 2-5.7.8-6.85-1.15-1.6-2.65 3.6-7.4 4.95-4.6 7.35-4.15m19.75 9.6q3.1 4.5 1.95 6.4-1.15 1.85-7.9 3.6-7.05 1.85-8.7-.2-1.7-2.1 1.75-7.6 3.3-5.35 5.85-6 3.8-.95 7.05 3.8"/><path fill="#fff" d="M77.8 207.7l-2.35 2.8q-1.4 1.3-2.5.95-1.2-.45-2.9-4.85-1.65-4.3-1.85-6.95 3.1 1.15 5.6 3.5 1.45 1.3 4 4.55"/><path fill="#c6dcdb" d="M147.2 248.75q1.95 4.35 1.35 6.35-1.4 4.7-7.45 7.6-5.75 2.75-7.05.8-2.8-4.2.2-12.3 3.05-8.4 8.3-7.55 2.55.4 4.65 5.1m28.55-.45q2.8 3.55 2.25 6.95-.55 3.5-3.7 7.5-3 3.75-4.8 3.95-1.25.1-3.8-2.8-2.95-3.3-3.1-6.45-.2-4.45 3.1-8.7 3.1-4.05 5.55-3.8 2 .25 4.5 3.35m80.45-32.4q2.5.85 3.4 6.2.85 4.95-.3 6.55-1.35 1.85-5.55 4.15-4.8 2.6-6.55 1.15-1.45-1.15-1.25-4.5.2-3.15 1.7-6.6 3.7-8.7 8.55-6.95m31 6.55q1.75 4 1.25 6.15-.45 1.9-3.4 4.7-2.9 2.7-4.15 2.65-1.3-.05-3.05-1.95-1.95-2.1-2.2-4.35-.3-3.05 2.7-7.3 2.95-4.15 4.95-4.1 2.05.05 3.9 4.2"/><path fill="#0d131a" d="M23.95 80.2q-1.25 3.1-2.7 12.05-1.35 8.05-1.7 8.25-.9.55-5.3-5.45 3-8.35 9.7-14.85m121.85 9.75q-3.45-6.85-11.65-19.25 3.2.35 6.35 1.6 3.35 1.4 4.4 2.95 1 1.5 1.25 7.15.2 5.25-.35 7.55"/><path fill="#759ab5" d="M12.55 111.65l9.95 9.25q4 3.65 11.9 15.5 1.45 2.2 5.7 11.75 4.3 9.6 6.3 12.65-2.85-.65-4.65-2.45-3.8-3.8-8.75-7.9-1.7-15.2-20.45-38.8m33.6 85.15q-1.15-.95-1.75-2.45 13.6-.2 23.95 5.55.25 3.3 1.8 7.2 1.55 3.95 2.75 4.2 1.65.6 5.05-3.6 2.95 3.65 9.75 7.65 6.45 3.85 13.25 6.2-14.6.35-21-1.8-4.65-1.55-9.8-6.9-4-4.2-11.15-8.85-5.7-3.7-9.2-5.15-2.5-1.05-3.65-2.05m70.15-9.65q2.55-6.15 3.9-13.55 1.25-6.7 1-11.1 2.4 4.15 2.15 16.65-.2 8.6-1.2 15.45-.45 3.5-2.3 6.15-1.65 2.4-3.85 3.25l-9.1.3q-4.9-1.15-7.25-4.05 9.95 3 16.65-13.1m14.2 6.45q-1.4 3.35-2.05 6.1-1.4 6.15-4.15 9.5l-3.45 5.1q-2.3 3.5-3.45 4.25.35-2.5 1.05-4.6.75-2.3 1.65-3.2l1.75-2.55q.85-1.75 1.15-3.6.35-2.3 1.55-7.05 1.3-5.4 2.2-7.55 1.4-3.2 5.6-8.95 5.25-7.2 10.35-11.55-3.4 4.55-6.05 11.05-2.8 7-3.65 8.25-1.2 1.8-2.5 4.8"/><path fill="#759ab5" d="M49.15 219.15q.2-4.6-3.35-7.75-2.95-2.7-5.3-2.4-1.6.2-4 3.05-1.85 2.2-3.7 5.4L27 215.3q2.25-.55 3-2.1l.45-2.9q5.15-.25 12.3-3.4 7.45-3.25 9.9-6.6 5 2.35 10 6.2l9.15 7.7q-5.4 2.3-11.65 3.75-6.75 1.5-11 1.2M65.7 74.85q-8.65 10.1-2 36.95 6.3 25.5 21.75 49.4-17-21.45-27.6-46.2-9.2-21.6-13.1-44.5 3.55 1.6 5.9 2.25 6.5 1.85 15.05 2.1m89.85 109.35q-2.7 2.75-4.7 6.35-2.05 3.65-2.2 6.15-3.8 3.3-6.25 8.15-2.6 5.15-4.85 14.1-3.4-.45-6.45-3.45-3.15-3.15-5.15-8.3 1.05-1.35 1.95-4.55l1.15-4.85q.85-3.15 8.4-7.65 8.75-5.15 18.1-5.95m28.5 6.05q5.05 4 6.35 10.4 1.5 7.25-2.15 16.2-.55-6.9-2.5-12.95-2-6.1-4.35-8.3-7.55-7.3-20.2-7.3 5.45-2.85 11.8-2.3 6.35.55 11.05 4.25M153.7 259.2l-7.1-.55q1.65-1.75 1.85-4.05.15-1.75-.65-4.6 7.5-2.15 14.7-6 8.5-4.6 12-9.35 3.65.9 7.3.7 2.95-.1 5-.8 1.55-.5 2.45.35.8.8.65 2.05l-.3 4.2q-.2 2.2-.75 3.2-3.05 5.65-10.75 9.5-1.3-4-3.1-6.45-2.1-3-4.15-2.5-3.9.95-6.45 6.1-2.35 4.65-1.55 7.45l-9.15.75m57.05-88.95q2.6 4.65 9.65 6.05l10.1.55q1.15 2.25.8 4.95-.35 2.75-2.05 2.95l-7.45-.3q-4.95-.8-6.6-2.15-1.65-1.35-3.05-5.3-1.3-3.75-1.4-6.75m-25.05-75.3l-7.55-2.55q-5.5-2.15-11.5-5.4 7.25 2.25 16.95-.65 9.15-2.75 12.25-7.3 6.1 1.05 11.55-4.3 4.7-4.65 5.5-9.75 6.1 3 11.35 7.3 5.15 4.15 7.15 7.6-10.8 9.35-24.25 13.15-11.35 3.2-21.45 1.9m19.65 33.85l-21.55 13.1q-8.85 1.4-15.1 1.4-9.45 0-16-2.9 0-2.75-1.6-5.35-1.65-2.5-3-5.65-1.95-4.6-1.9-7.85 3.2 5.6 16.45 6.55 12.6.95 29.95-2.45 17.8-3.55 33.9-10.35 17.7-7.5 28.4-17.05-6.55 10-10.5 25.95-2.5 10.15-3.55 20.95-.35 3.35-1.7 4.7-1.75 1.8-5.95 1.4l-8.1-.45-7.3.65 3.35-4.85q1.35-2.65.6-4.7-3.2-8.3-8.5-13.25-1.65-1.45-3.15-1.55-1.9-.1-4.75 1.7m83.05 100.1q.25-2.8-1.35-6.7-1.75-4.25-3.7-4.1-2.55.15-5.55 4.8-2.95 4.6-2.1 7l-16.5-.85q1.05-2.35.75-5.2 9.5-2.35 18.25-8.2 9.85-6.65 13-14.25 2.75.75 7.1 5.45 3.55 3.9 4.5 3l.8 6.4q.1 3.5-1.25 5.05-4.7 5.35-13.95 7.6M157.6 59.85q3.05 7.95 4 11.7-1.05-1-2.8-2.15l-4.3-2.8q1.35-3.75 3.1-6.75"/><path fill="#759ab5" d="M244.65 70.95q-2.5.85-12.8 9.1-3.2-4.4-8.6-8.6-5.05-3.9-10-6.15 9.55 3 22.55.65 11.9-2.2 21.9-7.8 2.5 1.5 3.45 6.55.9 4.5 1.35 16.8-1.5-2.85-3.55-5.8-2.25-3.3-3.15-3.7l-5.4-.95q-4.5-.5-5.75-.1m-57 140.8q1.75 11 .55 22.35-2.1.95-5.45 1.25l-6-.2q3.45-7.5 3.15-21.7-.3-13.5-3.45-21.65 8.55 3.75 11.2 19.95m102.5-74q9.6 17.75 13.6 38t.2 32.2q-.5 1.65-1.85 1.85-1.3.25-2.3-1.1-2.45-3.3-6.25-5.95 5.15-13.8 3.2-33.8-1.45-15.35-6.6-31.2m-27.55-55.7q7.4-1.35 15-7.1 8.1-6.15 12.7-14.75-3.75 10.05-5.3 15.2-3.2 10.8-3.8 19.5-5.3-5.95-7.25-5.8l-5.55.9-6.2.45q1.5-1.1 1.7-2.35.3-1.9-1.3-6.05m22.5 28.5q-2.05 4.35-5.65 9.2-9.05.55-16.95 3.05-10.15 3.2-20.25 10.05l1.6-8.35q1.1-5.15 2.25-7.75 12.75.8 24.15-2.55 11.4-3.4 16.75-9.65 0 2.05-1.9 6m-48.85 85.5q1.35-2.1 1.25-5.8 18.95 2.75 31.55-4.75 11-6.55 11.25-16.1 2 4.2 5.05 8.65 2.7 4 4.8 6.25l-.6 5.55-.6 3.65q-.55 1.35-1.35 1.95-1.1.75-3.1.6-7.4-.6-16.6 2.7-10.15 3.6-19.55 10.95-2.85 2.25-5.65 2.25l-3.7.1-3.75-.1-11.75-8.05q4.2-2.75 9.7-5.35 2.05-1 3.05-2.5"/><path fill="#0d131a" d="M23.85 80.45q-2.25 1.5-5.25 6.05-2.6 3.9-4.5 8.05-1-1.4-1.6-3.4-.65-2-.4-2.8 1.5-5.25 6.7-10.5 4.8-4.85 6.05-4.1.7.4.15 2.75l-1.15 3.95"/><path fill="#759ab5" d="M188.25 217.45q8.8-5.75 22.9-12.05 14.35-6.35 25.15-9.2-12 6.6-20.4 12.65-10.5 7.55-21.1 18.1l-2.7 2.45q-1.95 1.25-3.7.4.25-6.75-.15-12.35M146.05 122q.6 4.05 2.35 8.15 1.4 3.2 2.7 4.9 1.05 1.4 1.35 3.5.3 2.25-.55 4.1-3.15 7.2-6.15 15.45-.8-8.55-.65-19.4.1-10 .95-16.7"/><path fill="#a7bab9" d="M27.35 202.9q2 1.5 2.85 5.6.9 4-.45 5.25-1.45 1.3-5.2 1.75l-7.15-.45q4.6-1.85 7.4-5.6 2.45-3.35 2.55-6.55M41 208.75q4.2.2 6.75 4.45Q50 217 49 219.15q-.75 1.65-5.65 2.95-4.7 1.2-8.15.9 4.85-2.15 6.4-6.4 1.4-3.95-.6-7.85"/><path fill="#dbdcdc" d="M73.3 202.35q2.15 2.1 4.3 4.9-2.2 3.7-4.5 4.2 1.3-4.35.2-9.1"/><path fill="#a7bab9" d="M146.95 248.15q2.5 4.6 1.35 7.75-1.2 3.15-5.8 5.7-4.4 2.4-7.45 2.05 6-3.4 7.55-9.7 1.25-5-.45-10.45 2.4.25 4.8 4.65m28.45 0q3.1 3.8 2.6 7.1-.5 3.45-3.3 6.85-2.55 3.1-5.35 4.35 3.35-3.9 3.3-10.8 0-5.25-1.8-10.75 1.7-.35 4.55 3.25m79.95-32.6q2.7.25 4.05 5.6 1.25 5.15-.05 7.4-1.1 1.9-4.95 3.65-3.5 1.55-6.45 1.85 5.9-4.2 7.45-9.6 1.15-3.95-.05-8.9m31.85 6.95q1.75 4.05 1.15 6.2-.5 1.9-3 4.2-2.5 2.3-4.65 2.8 3.6-3.85 3.85-8.75.2-3.55-1.55-8.95 2.3.2 4.2 4.5"/><path fill="#0d131a" d="M170.95 143.05q3.45-3.25 7.8-4.7 5.55-1.9 9.75.55-4 2.6-6.25 3.45l-11.3.7m42.35 17.65q4.1 3.15 6 7.8 1.7 4.15.95 7.7-7.45-1.2-9.25-6.25 0-3.8 2.3-9.25"/><path fill="#759ab5" d="M147.7 63.25q3.4-1.25 9.45-2.9-1.4 2.7-2.65 6.25-.9-.6-6.8-3.35"/><path fill="#dbdcdc" d="M133.6 179.55q-.75 6.75-4.5 11.1-1.85 2.15-3.6 2.95 1-4 4.65-9.4l3.45-4.65"/><path fill="#0d131a" d="M75.95 181.55q.25 1.85-.15 3.3-.4 1.4-1.15 1.4-1 0-1.25-2.4-.25-2.45.6-4.1l1.95 1.8"/><path fill="#fff" d="M74.3 180.1q-.15 1.9-1.8 1.9-1.35 0-1.65-1.6-.3-1.6 1.1-2.35 1.4.8 2.35 2.05"/><path fill="#0d131a" d="M78.7 193.45q-3.1-.45-5.3-1.75-9.45-5.6-8.9-18.75l1.1.6q-.1 4.8 1.9 9.2 2.25 4.95 6.4 7.4 2.15 1.3 4.9 1.8l5.55-.15.6 1.45-6.25.2m-63.25-53.4q-1.45-.8-1.3-1.2.2-.45 1.7.25 7.75 3.65 15.5 9.2 6.75 4.8 10.25 8.6 1.7 1.85 4.8 3.3l1.05 2.8q-5.25-2.25-6.9-4.2-2.45-3-9.2-8.3-8-6.2-15.9-10.45M135.7 71.5l-.25.15q-.05.2.2.5 2.35 2.8 5.35 7.7 2.95 4.9 4.35 8.25l.2.35.05-.3V87.1l-.3-6.35q-.3-3.55-.9-4.8-.7-1.55-3.75-2.9-2.55-1.2-4.95-1.55m-1.05 1.35q-2.6-3.2 1.15-2.7 2.35.4 5.2 1.65 3.75 1.65 4.65 3.55.7 1.6 1 5.95.25 3.8.1 7.15-.1 2.05-.8 2.2-.75.2-1.65-1.8-1.3-3-4.45-8.15-3.1-5.2-5.2-7.85M45 197.5q-1.15-1.45-1.55-3.15l1.95.05q.3 1.15.95 1.8l2.75 1.55q5.7 2 12.85 7.25 6.15 4.45 12.7 10.8 2.55 2.45 6.95 3.45 5.35 1.25 17.1 1.4l4.4 1.95-20.4-.75q-6.4-.9-9.15-3.85-7.15-7.8-14.6-12.8-5.85-3.85-10.6-5.3-1.95-.6-3.35-2.4m-4.5 24.35q6.65-1.3 7.65-2.9.9-1.45-1.5-5.25-2.55-4.15-5.9-3.75-2.2.25-5.3 5.25-3.15 4.95-2.2 6.7.6 1.2 7.25-.05m.15-13.6q4.3-.5 7.65 4.3 3.15 4.6 1.65 7.15-1.7 2.7-9.75 4.35-8.05 1.65-9.15-.5-1.55-2.9 2.55-9 3.95-5.95 7.05-6.3M186.2 140.2q-1.65.95-3.35 1.85-6.5 2.4-15.8 2.1-8-.3-13.55-2.25-.35-.1-.9-1.3l-.5-1.15q5.25 2.4 15 3 11.35.7 19.1-2.25m-9.1 115.5q.45-2.15-1.7-5.8-2.15-3.75-4.25-3.95-1.9-.2-4.45 3.15-2.6 3.3-3.1 6.7-.45 2.75 1.9 6.3 2.3 3.4 4.1 3.3 1.7-.1 4.35-3.65 2.6-3.45 3.15-6.05m-11.2-8.55q3.1-3.4 5.45-3.15 2.9.3 5.5 4.8 2.5 4.3 1.95 7.05-.6 3.45-3.6 7.65-3.2 4.5-5.75 4.6-2.45.1-5.3-4.5-2.85-4.65-2.35-8.05.75-4.7 4.1-8.4m118.55-14.75q2.85-2.55 3.1-4 .35-2.1-1.05-5.5-1.45-3.5-3.05-3.8-1.35-.25-4.2 3.55-2.95 3.85-2.8 6.1.15 2.45 1.95 4.4 1.5 1.7 2.5 1.7.85 0 3.55-2.45m-.85-15.25q2.3.45 4.25 4.75 1.9 4.1 1.4 6.8-.35 2-3.45 5.2-3.15 3.3-4.9 3.3-1.7 0-3.8-2.6-2.25-2.75-2.45-5.7-.2-3.1 3.4-7.65 3.55-4.5 5.55-4.1"/><path fill="#0d131a" d="M301.95 209.95l1.85-.75q1.2 10.6-.4 13.05-2.5 3.95-15.35 7.75l.55-1.8q10.8-3.95 13.05-7.55 1.35-2.05.3-10.7M70.25 184.4q-1-1.85-1.2-4-.2-2.25.45-4.2l1.05.6q-1.2 3.65.6 7.1 1.65 3.2 4.65 3.65 2.65.35 4.4-1.35l.75.9q-2.3 2-5.45 1.35-3.4-.65-5.25-4.05m46.4-22.9q2.85-1.65 4.4-.85 1.6.85 2.2 4.45 1.3 7.85 1.25 16.4-.1 8.15-1.4 14.25-.85 4.25-2.95 6.5-2.95 3.2-8.65 3-1.05-.05-1.05-.45t1.05-.55q4.95-.75 7.1-3.25 1.5-1.75 2.3-5.7 1.35-6.45 1.7-13.9.35-8.65-.9-16.05-.75-4.4-4.45-2.15-3.9 2.35-10.6 9.9-6.7 7.5-9.25 12.4-2.3 4.35-.45 9.45 1.8 5 6.6 7.9 1 .6.8 1l-1.25-.1q-5.85-2.6-8.2-8.5-2.25-5.7.3-10.6 2.55-4.9 10-12.85 7.35-7.9 11.45-10.3"/><path fill="#0d131a" d="M40.1 61.55q-2.35-1.45-5.7.1-8.05 3.7-15.1 10.5Q11.25 80 8.15 88.8q-1.95 5.45.05 12.25 2.2 7.7 8.6 13.45 16 14.5 21.7 27.9 3.4 8 6.4 13.55 4 7.4 6.25 8.25 16.25 6.35 26.35 16.5 9.85 9.9 14.15 23.6.85 2.85 2.8 4.35 1.85 1.45 6.45 2.85 2.2.7 2.9 2.7.8 2.25.8 5.4-.05.9-.5.95-.4.05-.5-.85-.1-1-1.4-4.7-.6-1.65-2.15-2.2-4.9-1.5-6.75-2.7-2.5-1.6-3.5-4.75Q85.45 191.4 77.3 183q-9.35-9.6-27.6-16.6-2.7-1.05-6.45-8.7l-6.4-14.7q-5.35-12.35-21.7-27.15-7-6.35-9.25-14.7-1.95-7.2.1-13.05 3.25-9.15 11.85-17.9 7.8-7.95 15.8-11.6 4-1.85 7.05-.4 3.75 1.75 4.75 8.35 2.5 16.7 7.4 31.4 3.45 10.3 10.4 25.85 7.05 15.8 19.05 32.15 10.55 14.35 19.25 21.75l-1.2 1.85q-10.5-9.5-20.75-23.7-11.1-15.4-18.2-31.4-7.6-17.25-10.55-25.65-5.15-14.8-7.6-31.25-.7-4.45-3.15-6"/><path fill="#0d131a" d="M9 105.6q2.65 13.7 1.9 17.7-.8 4.2-2.15 7.15-1.3 2.75-3.55 5.3-2.5 2.9-2.55 5.55-.45 17.4 2.7 32.75 2.25 11.2 5.55 18.1 1.2 2.45 3.6 3.55 2.4 1.1 5.5.55 17.3-3 26.25-2.75 12.7.35 24.15 6.25 2.6 1.35 4.8 3.4 2 1.85 4.8 5.4 2.35 2.85 10.3 7.3 9.6 5.4 15.85 5.25 5.95-.1 7.75-1.5 5.95-4.4 7.3-7.2l1.9-2.9 1.95-2.45.85-1.75 1-2.7q2.55-10.6 6.2-14.9.75-.85 1.1-.55.35.25-.35 1.2-3 4.3-5.5 14.95l-1.1 3.05-.95 1.75q-2.6 3.2-3.75 5.75-1.8 3.9-7.45 7.7-2.55 1.8-8.95 2.05-6.6.25-16.6-5.5-8.35-4.8-11.05-8.25l-4.5-5.3q-2-2-4.4-3.25-11-5.65-24.3-5.4-7.25.1-26.45 3.45-3.4.6-6.6-1.15-3.1-1.65-4.45-4.65-3.1-6.7-5.3-18.75Q-.35 159 .1 141.4q.05-4.05 2.45-6.6 2.3-2.55 3.65-4.75 2-3.35 2.65-7.05.4-2.1-.7-10.8-.95-7.3-2.1-13.15L9 105.6"/><path fill="#0d131a" d="M77.25 206.5l.95 1.4q-1.1 1.9-2.45 3.1-1.55 1.3-2.8 1.1-1.8-.3-3.9-4.9-1.95-4.4-2.25-8.15l2 .85q.65 4 2 7.3t2.45 3.5q.8.15 2.05-1.4l1.95-2.8m46.4-144.65q3.8.6 5.7 4.25 1.95 3.85 1.2 9.8-.9 6.75-.95 11.25-.05 7.6 1.45 19.5 2.55 20.5 1.35 39.7-1.45 23.85-8.55 33.1l-.2-2.45q5.3-8.6 6.5-32.85 1.05-20.55-1.05-37.1-1.5-11.95-1.4-19.95.05-4.6.95-11.4.7-5.65-1.6-9.1-2.1-3.25-5.8-3.15l2.4-1.6"/><path fill="#0d131a" d="M118.65 64.95q2.9-3.5 5.9-5.45 2.95-1.9 5.2-1.75 4.95.35 12.35 10.15 8.25 11 11.9 25 .6 2.35-.25 5.15l-2.15 5.8q-4.05 11.3-5 27.35-.8 13.45.65 26.1.55 4.6-.65 7.7-.9 2.2-3.3 4.65-6.4 6.4-10.9 12.75-4.7 6.75-5.95 11.7L124 205.75q-.45 1.8-1.45 3.2l-1.8 2.1q-1 1.1-1.8 3.15-.7 1.65-.95 3.25l-1.35.85q.65-5.5 2.95-7.95 1.8-1.95 2.6-5.2l2.65-11.45q1.35-5.25 5.9-12.25 4.6-7.1 10.8-13.3 2.05-2.05 2.7-4.05.8-2.4.5-7-.85-13.4-.2-25.7.95-17.35 4.95-28.35 2.3-6.55 1.5-10.35-2.3-10.2-9.2-20.65-7.25-10.95-12.8-11.3-1.35-.1-3.95 1.7-2.55 1.7-4.25 3.75-3.1 3.8-8.3 6.25-5.2 2.4-11.5 3.05-37.9 3.6-56.1-3.45l-.05-2.65q10.6 4.65 31.85 5.15l24.15-.8q11.4-1.1 17.8-8.8"/><path fill="#0d131a" d="M164.1 180.65q.1 2.2-1.2 3.55-1.25 1.3-3.35 1.35-11.1.15-19.55 3.95-7.8 3.55-11.45 9.35l1.1-3.6q5.45-6.7 15.4-9.8 6.9-2.15 14.05-2.2 1.5-.05 2.05-.75.5-.65.4-2.25-.35-6.75-3.9-21.15-3.45-14.15-5.35-17.3-3.2-4.35-4.45-6.65-2.05-3.85-1.9-9.9l.9-4.6q-.45 7.2 1.9 12.25 1.3 2.9 4.75 6.7 2.75 3.1 6.75 20.1 3.55 15.25 3.85 20.95"/><path fill="#0d131a" d="M152.1 140.3l1 1.1q-1.05 2-3.7 8.95-2.8 7.4-3.75 10.95l.2-5.55q.6-2.3 2.9-7.95 2.3-5.75 3.35-7.5m-26.35 54.4l.35-1.65q2.05-1.65 4.15-5.35 2.3-4 3.05-7.8l1.2-1.05q-.5 5.1-2.8 9.3-2.3 4.25-5.95 6.55M12.85 88.75q0 2.05 1.55 4.95 1.55 2.85 4 5.3.75.75.85-.15 1.3-9.6 5.1-22.55.4-1.4 0-1.75-.45-.3-1.4.5-3.2 2.55-6.6 7.05-3.5 4.7-3.5 6.65m.3 5.9q-1.8-3.3-1.75-5.95.05-2.35 3.6-7.25 3.4-4.65 6.55-7.05 2.55-1.95 3.7-1.55 1.2.45.4 3.45-3.05 11.25-4.8 23.1-.25 1.65-1.1 1.95-.9.35-2.15-.9-2.75-2.75-4.45-5.8"/><path fill="#0d131a" d="M24.35 78.8l-.6 2.05q-2.45 2.5-5.05 6.85-2.5 4.1-3.95 7.8l-1-1.3q1.5-3.95 4.55-8.35 3.1-4.55 6.05-7.05m2.6 125.2q-2.2-.25-6.25 3.85-4.1 4.15-3.25 6.2.5 1.1 5.6.75 5.2-.3 6-1.9.85-1.7.05-5.2-.85-3.5-2.15-3.7m3.85 10.1q-1.15 2.2-8 2.75-6.9.55-7.9-1.75-1.3-2.95 4.1-8.15 5.25-5.1 8.4-4.7 2.55.3 3.65 4.9 1.1 4.45-.25 6.95"/><path fill="#0d131a" d="M33.4 216.9l-.6 1.55q-4.9-2.2-7.55-2.8l3.05-.75q2.6.8 5.1 2m-1.65-21.55l3.15-.05q-3 2.7-6.9 8.1l-1.95-.6 2.65-3.8q1.65-2.35 3.05-3.65m39.6 17.7l1.35 2.15q-2.95 2.25-11.35 3.7-6.65 1.15-12.55 1.3l.45-1.9q5.3-.15 11.65-1.45 7.5-1.6 10.45-3.8m102.55-28.3q9.4.55 14.7 8.95 5.35 8.4 2.2 18.05-.45 1.3-.9 1.15-.5-.2-.2-1.55 2.1-9.2-2.8-16.6-4.85-7.25-13.15-7.8-11.45-.7-22.2 8.4-12.05 10.2-12.95 25.9-.45 7.6-1.55 12.55l-3.15 4.1q.75-2.05 1.6-7.6.85-5.4 1.1-9.2.9-16.1 12.35-26.8 11.05-10.4 24.95-9.55"/><path fill="#0d131a" d="M162.45 187.65q8.15 0 14.35 3.3 6 3.25 8.5 8.65 2.5 5.5 3.65 15.4 1.2 10.05.35 19.4h-2.2q.85-9.45-.1-19.1-1-9.7-3.45-15.05-2.4-5.2-8.85-8.3-6.4-3-14.45-2.9l2.2-1.4"/><path fill="#0d131a" d="M129.55 245.2q.9-3.7 5.1-10.15 3.3-5 12-6.7 8.75-1.75 15.65 1.35 7.65 3.5 13.95 4.5 6.35 1 10.65-.6 1.7-.6 2.75.2t1.05 2.45v5.25q-.2 3.35-1.2 4.8-1.4 2-4.5 4.45-3.4 2.7-7.05 4.4l-.35-2.15q3-1.4 6.05-4.1 2.55-2.25 4-4.3.95-1.3 1.25-3.8l.2-4.3q0-1.9-1.75-1.25-4.5 1.65-11.2.65-6.75-1-14.5-4.55-6-2.75-14.35-1.1-8.35 1.6-11 5.95-3.3 5.4-4.15 8.55-1.3 5.05 1.6 8.4l-.65 2.5q-5.05-4.2-3.55-10.45m15.9 14.55l1.4-1.65q7.15.75 15.85-1.2l.3 2.1q-10.4 1.75-17.55.75"/><path fill="#0d131a" d="M141.75 244.6q-1.6.35-3.75 2.8-2.25 2.55-3.35 5.65-.9 2.5-.9 5.9.05 3.65 1.4 3.95 2.7.6 6.8-1.75t5.25-5.15q1.1-2.65-1.1-7.25-2.25-4.6-4.35-4.15m-4.75 1.1q2.6-2.7 4.9-3 3.25-.45 6.05 5.05 2.75 5.45 1.3 8.95-1.45 3.5-6.3 6.45-5 3.05-8.55 2.3-2.25-.5-2.55-5.3-.25-4.35.95-7.75 1.4-3.9 4.2-6.7m.8-27.65l-.3 2.55q-4.4-.85-8.05-5.05-3.5-3.95-3.95-8.05l1.45-1.65q.1 3.8 3.35 7.55 3.3 3.8 7.5 4.65M211 171.5l.1-3.4q1 5.75 8.65 7.35l9.55.45q2.95-.05 5 2.6 2.2 2.75 3.55 7.95 1.2 4.55.95 6.9-.25 2.15-1.1 3.5-1 1.55-3.15 2.6-24.95 11.85-40.1 30.15-1.25 1.5-3 1.65-1.3.1-2.55-.5l.15-1.55 2.1-.15q1.35-.65 2.4-1.8 8.9-9.4 19.35-17.25 10.45-7.85 20.55-12.75 2.55-1.25 2.85-4.4.25-2.15-.7-6.15-1.05-4.7-2.95-7.15-1.5-1.95-3.3-1.9l-9.6-.7q-7-1.5-8.75-5.45"/><path fill="#0d131a" d="M213.4 126.7q2.8 2.6 5.4 6.65 3.1 4.7 4.2 9 .4 1.5-.35 3.25l-1.5 2.3q-3.85 5.4-6.7 12-3.05 7.15-2.7 10.7.4 4.1 1.5 7.05 1.05 3 2.55 3.95 1.75 1.15 5 1.9 3.8.9 8.05.8 1.1-.05 1.15.45 0 .45-1.1.55-4.55.45-8.4-.05-3.75-.45-5.45-1.55-1.95-1.25-3.3-5.2-1.25-3.6-1.55-7.9-.25-3.85 2.55-10.75 2.75-6.8 6.8-12.65 1.6-2.25 1.15-4.55-.85-4.25-3.4-7.95-1.9-2.85-5.25-5.85-.9-.85-2.15-.75l-2.1.55q-1.6.65-4.35 2.3L198 134.3q-12 7.4-15.8 9.4-10.1 5.15-18.2 5.9l-7.95-.45-.5-1.95q2.65 1 8.25.5 7.85-.7 17.85-5.9 2.3-1.2 15.45-9.2l5.9-3.9 4.8-2.8q3.25-1.3 5.6.8"/><path fill="#0d131a" d="M189.2 138.6l-1.35.85q-2.7-2.1-7.7-.7-4.5 1.3-8.45 4.55l-2.1-.2q4.6-4.2 9.95-5.7 5.9-1.65 9.65 1.2m54.9-69.55l5.95.3 6.15 1.35q1.85.6 4.75 5.55 2.95 5.15 4.2 10.2.3 1.25.2 1.95-.15 1.25-1.3 2.2-11.9 10.1-17.1 27.1-2.7 8.95-5.05 29.25-.45 3.8-2.7 5.3-1.55.95-3.75.8l-9-.95q-6.45-.6-8.9.15l.8-1.65 7.95-.5 7.95.35q2.5.15 3.75-.55 1.75-1 2.05-4.05 1.7-17.05 4.5-26.85 5.5-19.35 17.5-29.45.85-.7.95-1.4l-.15-1.4q-1-4.3-3.8-9-2.7-4.45-4.25-4.95-1.75-.6-5.3-.95-3.7-.4-4.85-.05-1.4.4-7.8 5.2-8.1 6.6-12 9.15-6.1 3.95-13.2 6.5-11.9 4.2-23 3l-5.6-1.8q11.45 1.7 24.5-2.15 9.55-2.85 16.25-7.25 2.2-1.4 6.1-4.7l6.05-4.95q7.1-5.4 8.15-5.75"/><path fill="#0d131a" d="M244.55 80.45q3.65-2.55 6.6-3.3 4.2-1.1 8.8.6l1.05 2q-4.7-1.95-8.85-1.05-3.1.65-6.65 3.2-13.75 9.65-22.05 13.35-9.1 4.05-18.95 4.4-12.4.4-38.6-11.8-7.7-3.6-15.05 1.35l-1-1.45q4.4-2.6 7.75-3.1 4.3-.6 9.1 1.65 25.15 11.7 37.9 11.3 9.75-.35 18.4-4.15 8.1-3.55 21.55-13"/><path fill="#0d131a" d="M162.2 88.8q.95-.4 1.2 0 .2.4-.7.9-2.95 1.55-5.85 3.9-3.1 2.5-4.75 4.7v-2.95q3.45-3.5 10.1-6.55m58.95 87.65l-1.35-.3q.4-9.5-6.9-14.6l.5-1.4q4.15 2.5 6.25 7 2 4.35 1.5 9.3m21.25-42.9l.25-2.3q11.3-8.1 25.05-11.45 9.75-2.35 13.9-1.6 2.4.45 6.2 5 3.35 4 6.05 8.9.5.95.35 1.95-.15 1.05-1.05 1.9-6.3 6.3-10.15 13.5-3.7 6.85-3.7 11.55 0 4.5 3.6 11.25 3.35 6.25 8 11.25.75.85.25 5.7-.5 4.4-1.05 5.65-.85 1.85-3.6 1.85-11.1 0-19.15 3-8.6 3.15-19.4 11.7-2.25 1.75-4.35 1.75l-8.15.35q-1.15-.3-6.6-4.15l-6.55-4.85 1.6-1.2q1.15.95 6.2 4.3l5.55 3.55q.7.3 7.5-.1l2-.35q1.2-.4 2-1.05 8.5-6.7 16.2-10.1 10.4-4.55 22.1-4.55l1.5-.3.75-1.05.9-3.7q.55-3.2.55-5.6-5.4-6.05-8.4-12.2-3.05-6.15-3.05-11.05 0-5.25 3.25-12.05 3.65-7.55 9.95-13.85 1.2-1.25.55-2.5-2.45-4.5-5.3-7.95-3.1-3.8-5-4.1-4.2-.8-13.75 1.5-13.65 3.2-25 11.4"/><path fill="#0d131a" d="M289.4 138.2l1.5-1.5q10.6 18.85 14.35 37.8 4 20.15-1 35.05-.3 1.05-1.35 1.4-1.1.4-2.3-.4l-3.15-3.25q-2.4-2.65-3.95-3.5-2.65-1.45-4.35-1.75-3.1-.45-5.85 1.7l-5.8 4.4q-3.95 2.8-5.5 3.3-3.15.9-8.9-.8-6.1-1.8-9-5l1.4-1.05q2.15 2.7 7.7 4.15 5.25 1.35 8.25.5 2.1-.6 11.2-7.05 5.4-3.85 11.5.1 1.6 1 4.15 3.5l2.9 2.8 1 .1.65-.8q4.5-13.6-.9-36.6-4.65-19.6-12.55-33.1m-33.85 78.3q-1.8-.35-3.9 1.85-1.85 1.9-3.25 5-1.5 3.3-1.65 6.1-.15 2.75 1.1 3.6 1 .75 5.55-1.35 4.45-2.05 5.15-3.5.95-1.85.05-6.45-.95-4.85-3.05-5.25m-4.9.4q2.7-2.55 5.3-2.05 2.85.55 4.2 6.1 1.25 5.25-.05 7.9-1.2 2.4-6.35 5.05-5.35 2.75-7.3 1.45-1.75-1.15-1.45-5.5.3-4 1.85-7.5 1.5-3.35 3.8-5.45"/><path fill="#0d131a" d="M247.25 223.9l-.85 2.2q-1-2.4-.7-7 .3-5.35 2.4-9.4l2.7-1.85q-2.25 3.8-3.2 9-.85 4.55-.35 7.05m11.1 5.95l1.15-1.6 15.95.5.35 1.85q-3.5.2-8.5 0l-8.95-.75m2.95-138.2l1.8-1.8q3.1-.05 6.45-1.15l3.65-1.35q1.6-.5 3.2.7 3.75 3 7.8 8.25 4.6 5.9 4.65 8.9.05 1.8-2.3 5.85l-5.65 8.4-2.8.1q8.3-11.25 8.1-14.35-.1-2.55-3.65-7.35-3.45-4.55-7-7.35-1.1-.95-2.35-.55L268.6 91l-7.3.65"/><path fill="#0d131a" d="M272.65 89.25l2.55-.05q-3.6 4.2-9.95 8.1-7.2 4.5-12.5 4.95l1.1-1.55q4.2-.8 10.05-4.45 5.4-3.4 8.75-7m-.5-30.45q-8.5 2.75-12.05 2.5l-.9-1.4q3.25.3 12.2-3.2l13.55-5.65 3.15-.2q1.2.4 1.85 1.55 1.5 2.5 1.85 5.3.35 2.85-.55 5.2-4.7 12.65-5.65 15.6-3.7 11.6-3.4 17.5l-1.65-2.3q.05-6.25 3.25-16.7.95-3.1 4.95-14.3.9-2.35.85-4-.05-1.85-1.35-4-.9-1.5-3-.7l-13.1 4.8"/><path fill="#0d131a" d="M255.4 55.95q5 .45 6.3 4.4.9 2.65 1.25 9.9l.35 13.55-1.65-3.25q-.85-14.25-2.35-18.75-.45-1.35-1.7-2.25-1.3-.95-3.2-1.1-17.5-1.5-26.3-9.6-10.25-9.45-16.65-33.75l-1.05-3q-.65-1.15-2-2.35-1.3-1.15-3.85-2.45l-3.4-1.5-4.3-.1q-1.65.5-3.75 2.6-2.1 2.05-6.45 8.05-5.55 7.55-8.95 11.05-5.55 5.8-10.05 6.7-11.65 2.35-20.4-5-5-4.25-16.65-20.75L129 6.4q-.95-.8-2.4-1-3.05-.5-6.85.75-3.15 1.05-5.35 2.7-3.15 2.4-5.1 7.2-1.3 3.1-3.2 10.65-2.55 10.1-5.9 18.05-3.95 9.05-7.45 14.7-5.85 9.4-13.75 16l-2.65-.15q8.1-6.6 14.1-16.15 3.65-5.8 7.55-14.9 1.8-4.15 3.3-9.2l2.35-8.55q1.9-7.65 3.65-11.65 2.4-5.65 5.8-8.2 2.3-1.7 6.1-2.9 4.45-1.4 7.7-.9 3.7.6 5.9 3.75l7.6 10.95q4.15 5.8 7.45 8.9 8.45 7.95 19.6 5.75 4.15-.8 9.05-6.35l8.15-10.75q2.45-3.35 6.7-8.3Q195.7 1.55 201 3q1.35.35 4.65 2.05 3.65 1.85 5.1 3.1 1.5 1.25 2.25 2.75.6 1.2 1.1 3.35 5.05 22.45 13.7 31.2 8.7 8.9 27.6 10.5"/><path fill="#0d131a" d="M164.2 26q2.7-3 8.9-12.7 3.2-4.95 5.25-7.5 2.85-3.5 5-4.4 4.95-1.95 12-.35 6.2 1.35 8.45 3.7l-4-.2q-2.95-1.25-6.55-1.5-4.5-.3-8.55 1.1-3.05 1.05-8.95 10.2-5.2 8.15-9.1 12.2-5.7 6-10.9 6.25l-2.35-1.15q5.2.6 10.8-5.65M130.95 5.75l-4.15-1.2q-3.8-2.05-9.1-2-5.6.1-11.3 2.5-1.9.8-3.35 3.95-.85 1.85-2.5 7.15-2.4 8.05-4.65 12.8-7.4 15.5-15.9 25.2-12.35 14.1-28.5 18.45l-3.4-.95q16.55-3.9 29.3-18.6 8.65-9.9 16.25-25.95 1.4-2.85 2.6-6.85L98 13.8q1.5-5.45 2.7-7.7 1.55-2.85 4.2-3.95Q112.15-1 120.85.4q8.45 1.3 10.1 5.35M170.1 55.8q7.8-.65 13.55-.1 1.1.1 1.95 1.2.8 1 1 2.2 1.45 8.2 8.15 17 7.55 10 18.05 15.05l-1.6.8q-11.35-5.25-18.85-15.45-5.95-8.15-7.75-16.5-.3-1.6-1.8-1.7-5.35-.55-12 0-5.95.45-11.05 1.65-.65.15-.85.45-.2.35.1 1.05l3.25 9.05q.45 1.4 0 1.8-.5.45-1.75-.55-2.9-2.4-7.15-4.8-4.45-2.45-6.3-2.6l-3.4.5q-2.35.6-4.35 1.55l-.9-1.15q7.45-3.75 9-3.55 1.25.1 5.6 2.75 4.65 2.75 7.45 5.25L157 61.3q-.65-1.3-.35-2.35.25-1 1.25-1.25 5.1-1.25 12.2-1.9"/><path fill="#0d131a" d="M147 62.7q7.35-2.8 10.8-3.6l.25 1.9q-4.3.7-9.65 2.75L147 62.7"/><path fill="#0d131a" d="M155.15 67.15l-1.25-.8q.2-1.3 1.2-3.55t1.95-3.75l1.1 1.7q-2.25 3.65-3 6.4m30.1-7.65l-.4-2.1q14.05-.6 29.1 7.2 13.7 7.1 18.2 15.15l-1.7.9Q226.1 73.1 213.3 66.4q-14.35-7.45-28.05-6.9"/></svg>