<svg xmlns="http://www.w3.org/2000/svg" width="392" height="398" viewBox="-3.55 0.05 391.6 397.9"><path fill="#87b1d0" d="M378.1 200.8q-2.5-.65-7.5-1.35-2.05-.2-3.4 1.25-1.35 1.5-1.7 4.35-.35 2.55 1.35 5.2 1.3 2.1 2.7 2.8 1.55.85 11.05-3.7 3.05 21.45-26.45 23.4-15.6 1.05-26.35-14.2-7.9-11.2-26.8-16.8-1.05 2.2-3.05 3.75-1.7 1.3-3.15 1.5.9 9.05-2.25 14.35-2.8 4.6-7.2 4.7 1.05 10.7-1.05 24.55 13.85 11.6 21.4 21.4 7.2 9.4 11.35 20.8 4 10.8.65 21.4-3.1 9.75-12.55 19.75l6.3 4.15 4.9 2.9q1.15.6 1.35 1.5.25.9-.5 1.7-3.3 3.8-3.8 4.75-1.35-.4-3.05.35-1.75.8-2.7 2.4-2.65 4.35-4.15 7.75-.75 1.65-2.25 2.4l-3.35.85q-7.25 1.05-23.1-.45l-19.5-2.45q-4.35-.65-4.4-4.4-.05-3.05 2.05-5.45 1.45-1.75 2.4-4.45.95-2.5 1.05-4.75-11.75-3.75-18.5-10.95-15.55 11.35-40.1 14.45-23.45 2.95-40.95-3.05-2.4 2-5.75 3.7-2.9 1.45-5 1.95 0 8.45.35 12.15.25 2.65-1.5 4.65-1.55 1.75-5.15 3.45.15 3.8-2.25 6.4l-6.6 5.9q-1-4.6-3.8-9.25-2.85-4.7-4.55-4.35-3.1.65-6.7 7.55-3.65 6.95-2.2 9.85-3.65.6-9.5 0-5.6-.55-8.9-1.7 2.45-4.6-1.25-11.45-3.45-6.4-6.15-6.3-1.5.05-3.55 1.7-1.8 1.35-3.5 3.5.45-3.75 2.4-12.45 1.65-7.25 3-12.35 1-3.7 1-8.2.05-2.95-.5-10.25-24.05-8.25-45.35-28.2-17.5-16.4-25.5-32.35Q-1.05 231.2 2.8 194.8q2.8-26.7 16.2-51.75 11.1-20.6 17.8-37.35 7.45-18.6 8.6-30.2.35-3.2 1.25-4.2 1.25-1.35 3.5 1.2 13.7 15.65 12.5 45-.65 14.9-5.8 34.95-2.95 11.5-3.6 17.4-1.1 10.45 1.2 21.55 5.05 24.05 24.4 35.4 7.85 4.65 16.7 6.2 8.2 1.45 14.95-.05l1.6-5.45q-3.05-9.2-3.8-12.2-1.45-5.55-.65-7.45 1.35-3.2 14.7-6.65 2.6-6.1 7.7-15.7-1.9-6.55-2.8-11.2-.95-4.9-.4-6.05.55-1.05 4.3-2.95 3.45-1.75 6.75-2.85-.1-3 .2-5.8-6.65-8.05-9.15-18.4-2.05-8.6-.95-16.95-7.55-6.6-15.05-10.45-7.35-3.75-12-3.55-12.05.5-19.3-8.35-4.3-5.2-7.65-12.55-3.3-7.35-3.8-12.85 3.35 2.35 6.3 2.1 3.9-.25 5.4-5.1.7-2.05.55-5.05-.1-2.65-.65-3.4-.9-1.3-4.55-1.95 10.15-8.2 24.75-9.9-1.05 2.4-1.8 5.35-.85 3.2-.9 5.55-.05 2.6 3 5.05 2.85 2.25 5.6 2.4 2.45.2 4.8-1.6 2.2-1.65 3.5-4.4 1.1-2.3-.7-5.55l-4.45-6.25Q122 50.95 137 66.4q12.75 13.15 22.8 30.9l3.95.15q.15-.95 3.2-1.45-4.2-6.1-6.55-8.55-1.25-1.4-.95-2.5.2-.85 1.45-1.75 2.25-1.65 3.7-3.4 1.75-2.1 1.6-3.55-.35-3.05-4.4-7.05l-8.15-6.8-.15-5.15q-.15-1.85 1.2-2.3.8-.25 2.75 0l9-.5q3.95-.95 5.5-2.45 1.2-1.2 1.25-4.3l-.3-5.35q-.25-2.15 1-2.75l2.95-.4q1.75-.05 2.8.5 1.1.65 1.9 2.25 3.85 7.65 8 13.45 3.8 5.3 6.65 7.45l3.7-4.15 3.5-3.75q-.25-9.15-3-26.25l-4.2-23.6q-.5-2.6.4-3.3.6-.5 2.7-.35 3.4.2 5.35.75 3.2.95 5.9 3.35 2.7 2.35 8.25 10.05l6.85 10q2 3 3.45 5.85l4.85 10.6 14.9-.85q6 .25 10.5 1.4l5.9-.35 5.25-.2 10.2-13.4q5.95-7.6 8.8-9.35 3.2-1.95 7.75-3.3 4.2-1.3 6.55-1.2 2.2.05 3 1.45.85 1.35-.15 3.4-1.45 3.05-3.4 10.65-1.85 7-3.05 13.5l14.65 1.15q2.85.45 3.35 1.3.6 1-1.35 2.75-1.3 1.2-12.2 4.65-11.55 3.7-14.6 5.55-.25 1.45 1.75 3.5l4.15 4.3 1.55 2.25 9.65-12.5q1-1.2 1.8-1.2.45 0 1.3.75.7.6 1 1.6.4 1.1.1 2.25L309.2 70.3 306 83.75q6.95 18.6 4.35 34.6-2.4 15.1-12.75 24.95.2 2.95-.65 7.15 6.35 2 10.1 10.75 20.3 2.35 40.75 12.25 24.55 11.9 30.3 27.35"/><path fill="#fff" d="M241.7 121.4q-2.95-1.55-9.15-4.4l-10.3-4.85q-3.4-1.7-4.6-4.2-1.15-2.4.1-4.25 3-4.5 8.45-8.9 5.75 3.95 10.75 11.95 4.2 6.7 6.15 13.15.4 1.25-.05 1.65l-1.35-.15"/><path fill="#e50044" d="M232.7 101.5q2.1 2.2 5 6.9.5 2.65-.65 4.9-1.1 2.15-3.25 3l-1.45-.6q-2.85-4.05-2.15-8.65.5-3.5 2.5-5.55"/><path fill="#ed8599" d="M213.65 138.3l3.95-4.15 3.3-4.2q9.95 6.65 30.9 14 24.2 8.45 34.2 6.2 1.1 2.6.45 7-.55 3.65-2.1 7.6-2.1 1.65-5.35 3.15-3.35 1.55-5.95 2.05-15.65 2.85-35.1-8.7-17.5-10.4-24.3-22.95"/><path fill="#dbd5ca" d="M316.35 87.75q2.9-.6 3.45.75.45 1.1-.8 3.25-3.65 6.1-11.85 18.2-8.5 12.5-12 16.85-3.95 4.85-10.8 4.4-7.5-.45-13.3-7.45-5.5-6.65-4.5-14.05.85-6.05 4.75-8.85 6.85-4.9 45.05-13.1M154.45 250q1.5-9.65 6.5-23.45 3.75-10.5 7.2-17.65 4.35 3.05 10.75 6.75 6.5 3.7 13 6.85 6.1 2.9 11.1 1.5 4.15-1.15 7.85-5.45 10-11.65 18.8-17.25 9.45-6.05 18.05-5.55 10.25.65 19.9 9.9 6.75 6.45 12.05 15.75 1.35 2.4 2.65 3.45 1.45 1.2 3.4 1.2.45 38.25-13.8 64.85-10.1 19-23 26-16.25 8.8-41.1 6.45-23.55-2.2-38.1-12.3 3.15-6.35 3.55-12.75.4-5.5-1.15-14.95-1.45-9.05-5.9-17.65-4.65-8.9-11.75-15.7"/><path fill="#c6dcdb" d="M110.7 50.35q4.35 5.15 5.85 8.55 1.4 3.05-1.45 6.15-2.5 2.75-5.85 3.45-3 .6-6.2-1.7-3.25-2.35-3.75-5.65-.4-3.15 2.15-9.6 2.45-6.2 3.55-6.3 1.3-.15 5.7 5.1m-29.15 11.4q2.2 2 1 7.05-1.3 5.45-5.75 6.7-4.35 1.25-10.95-6.45-2.5-2.95-4.1-5.8-1.6-2.85-1.15-3.65.8-1.5 9.95-.55 9.15.95 11 2.7"/><path fill="#fff" d="M208.35 121.9q2.55 1.95 6.45 4.45 3.95 2.55 6.1 3.6-7.4 9.95-9.2 9.35-1.25-.45-2.25-6.75-.85-5.2-1.1-10.65"/><path fill="#c6dcdb" d="M73.95 390.15q-3.45-3.7 3.45-15.45 2.8-4.7 5.75-7.85 3.15-3.35 4.75-3.1 3.55.55 6.65 7.45 3 6.7 1.6 9.5-1.25 2.55-11.2 6.65-9.85 4.05-11 2.8m43.5 0q-3.5-5.1-3.9-8.45-.5-4.35 3-10.3 3.45-5.8 6.05-5.6 1.95.1 5.1 5.05 3.2 5.05 3.25 8.75.1 3.8-3.15 9.85-3.2 6-5.05 5.8-1.85-.15-5.3-5.1m216.6-28.35q-7.2 1.2-17.3 1.5l-17.75-.65 2.2-.5q1.3-.7 2.1-2.45 1.95-4.25 4.8-8.2 2.35-3.3 5.3-2.55l2.05-2.85 2.6-2.9q3.5 1.4 9.25 4.95 6.45 4 10.45 7.6 1.25 1.15 1.05 1.8-.3 1.15-4.1 1.85 1.2.9 1.25 1.35.05.7-1.9 1.05m35.5-162.1q4.7-.15 11.2 1.9 6.15 1.95 6.35 3.15.25 1.35-15.15 8.3-2 .9-3.9-.7-2-1.7-2.85-5.55-.75-3.45 1.35-5.55 1.5-1.55 3-1.55"/><path fill="#759ab5" d="M205.35 7.75q2.6 3 7.25 9.85 5.9 8.7 7.85 13.6 2.8 7.05 4.25 14.1 1.45 7.15 1.05 12.1-.15 2.1-6.6 7.7 2.65-10.9-1.7-25.7-1.65-5.6-6.7-15.05-4.6-8.6-10.6-17.75 4.1 0 5.2 1.15m79.15 123.3q2.7.45 5.4-.7 1.9-.85 4.5-2.9 3.3-2.55 16.35-22.75 1.2 20.2-8.95 33.45-7.15 9.3-16.2 12.1-5.65 1.7-22.2-2.55-15.95-4.1-26.6-9.55 26.8 7.4 40.85.45 3.8-1.8 6.85-7.55m-.6-69.45l5-2.4q4.65 4.5 10.75 13.65 6.75 10.2 8.5 16.55l-15.75 3.95q.85-8.3-1.5-17-2.3-8.65-7-14.75"/><path fill="#759ab5" d="M226.3 158.1q-8.8-9.65-12.55-19.8 10.85 17.35 30.7 26.35 15.45 6.95 25.65 5.75 9.05-1.05 16.3-8.15 7.45-7.4 7.25-15.95l4.15-3.15q-.3 8.9-4.15 16.55-3.3 6.55-7.7 9.6-9.05 6.3-20.75 6.5-8.3.2-19.8-2.95-10.25-5.15-19.1-14.75m-17.75-35.75q-1.95 3.1-3.15 9.8-1.2 6.75-.75 12.2-2.3-10.9-5.9-19.1 1.55-1.45 6.6-5.6l3.2 2.7"/><path fill="#759ab5" d="M293.2 161.25q-.65 7.6 6.95 14.2 3 2.55 5.55 3.2 2.7.7 3.2-1.2-.7 10-4.95 18.9-4.25 8.9-9.15 10.8-.25-8.95-2.55-20.05-2.7-13.15-6.3-17.8l4-3.1q1.95-1.7 3.25-4.95M178.3 54.35q4.35 3.55 8.05 11.4 2.25 4.9 3.25 8.65.65 2.65-.95 4.75l-3.85-1.55q1.15-3.1-1.35-10.8-1.85-5.65-5.15-12.45M138.2 167.1q-.3-3.15-.3-10.5 3.6 2.9 13.6 8.65 9.15 5.3 15.2 8.2l-16.35-2.8q-9.1-1.8-12.15-3.55"/><path fill="#759ab5" d="M365.4 230.65q-13.45 2.15-19.8.9-10.15-1.95-17.4-12.35-3.15-4.45-5.05-6.35-2.45-2.35-6.55-4.6-3.1-1.65-7.2-3.3-4.6-1.85-8.55-2.9l2.25-3.8q7.6 1.25 14.9 4.3 7.35 3.05 12.85 7.35 4.9 3.8 10.4 3.3 5.85-.5 8.45-5.7 3 9.35 11.1 10.95 7.95 1.5 12.4-5.9l7.3-3.35q1.05 7.3-1.9 12.85-3.75 7.1-13.2 8.6m-93.45-33.85q12.25 10.3 15.25 28.6l-2.95.6q-2.1-.25-3.9-3.6-4.55-8.4-11.75-15.75-11.5-11.65-22.4-10.95-11.05.7-20.55 8.25-2.75 2.15-14.3 14.15-4.25 4.45-7.85 5.85-5.6 2.2-11.35-1.4 3.75.45 7.85-1.1 3.5-1.3 5.95-3.5l7.7-7.85 7.55-8.35q13.05-14.25 30.2-13.55 10.85.45 20.55 8.6M24.3 241.45q9.7 19.4 24.3 32.7 15.9 14.4 36.1 20.15-.05 5.65.65 15.5.6 8.9 1.4 15.2-21.85-7.5-40.15-23.05-18.7-15.85-30.15-37.05-12.1-22.5-14.1-47.6-2.15-27.25 7.95-54.7-2.25 19.3 1.3 39.7 3.6 21 12.7 39.15"/><path fill="#759ab5" d="M147 339.85q-.5 4.1-.65 9.15-.15 5.35.15 9.15.35 3.55-2.15 6.2-1.9 2.1-4.7 3 .2 5.6-8.55 11.8-1.25-4.45-3.75-8.7-2.85-4.8-4.85-4.65-2.5.15-6 6-3.75 6.35-2.9 11.45-3.75.25-9.5-.2L95.65 382q1.45-1.35.8-5.55 4.85-6.15 1.2-19.8-3.5-13.05-10.35-19.1.3-3.8-.55-13.3l-1.5-18.05q-1.55-24.25 3.55-34.7.1 16.45 4.85 32l3.45 10q1.65 4.65 1.85 6.5.1.55 2.3 6.1 2.4 6 3.15 9 3.85 15.55 13.3 16.65 4 .45 7.55-2.3 3.65-2.75 5.5-7.85 3.55-9.65 10.4-16.2 5.15-4.95 19.35-14.15 4.7-3.05 7.9-10.05 3.8-8.3 3.4-18.4 2 9.05 1.5 15.6-.75 9.6-6.6 16.85l-11.55 14.1q-5.55 6.8-8.15 10.5"/><path fill="#759ab5" d="M159.15 324.6q7.6-9.2 10.2-12.95-.1 11.85-4.1 19.8-5.6 10.95-19 15.4 0-4.3.45-6.6 3.95-5.3 12.45-15.65"/><path fill="#759ab5" d="M214.4 340.85q-14.1 4.1-28.7 4.4-15.85.4-28.75-3.9 5.55-5.4 8.15-10.55 4.15-8.15 4.5-20 15 10.15 38.55 12.65 25.3 2.65 40.5-6.55-1.85 7.1-11.4 13.65-9.2 6.3-22.85 10.3"/><path fill="#759ab5" d="M268.55 295.7l9.85-19q7.25 12.55 19.95 20.25 12.6 7.6 21.05 4.75 1.65 6.75-1.35 14.25-4.2 10.5-17.2 21.15-1.6 1.35-4.8 2.3l-7.2 1.65q-4.15.85-5.1 3.25-.85 2.25 1.4 5 5.35 6.6 18.9 8.3-1.15 2.85-2.15 3.7-1.6 1.35-5.5 1.6l-20.05-.7q-14.5-1.1-21.6-2.5-2.5-.5-3.55-3.25-1.15-2.85.7-5.05 4.65-5.55 4.45-10.7-3.2-.85-7.25-2.65-8.2-3.7-11.05-8.2 3.05-1.35 6.6-5.4 3.7-4.25 4.4-7.45l4.55-2.8q2.25-1.5 4.05-3.75.8 5.2 8.5 9.8 8.05 4.8 15.25 3.15-1.4-7.2-3.15-11.95-3.6-9.9-9.7-15.75M167 114.8q.75 11.45-10.3 16.2-6.75 2.85-12.5 1.95-5.25-.8-9.15-4.65-5.6-5.65-12.1-10.7-9.25-7.25-15.4-9-3.85-1.15-11.1-1.15-5.5 0-11.95-5.65-10.2-9-14.8-28.35l1.55.8q7.7 13.2 10.4 16.85 5.75 7.8 11.05 9.2l6.25.65 6.65-.05q8.4.2 14.05 4.6 11 8.6 15.25 11 8.75 4.85 14.8 2.55 14.65-5.5 6.55-26.95 5.65 8.15 8.25 13.75 2.25 5 2.5 8.95m139.8-99.15q1.35 1.9-.5 5.15-.9 1.7-2.55 8.8l-2.95 13.3-7.65-.3q2.95-8.65 6.4-15.65 3.9-8 7.25-11.3m-8.35 39.5q-2.3 10.3-2.5 12.35l-3.4-4.35-3.65-3.95q1.2-.7 4.7-2.05l4.85-2"/><path fill="#b3aea6" d="M285.1 242.1q-.7 21.1-9.8 41.8-10.45 23.8-27.05 33.1-16.7 9.35-40.9 6.5-21.45-2.55-37.75-12.7 2.95-4.5 3.7-10.65.6-4.9-.2-10.1 14.75 5.8 33 4.5 17.2-1.25 33.9-8.5 16.65-7.2 28.5-18.5 12.45-11.8 16.6-25.45"/><path fill="#b3aea6" d="M158.75 232.9q9.75 12.3 26.15 22.25 15.85 9.6 32.05 13.45 16.6 4 33.4 2.2 19.05-2.1 32.25-11.35l-.7 4.5q-13.35 7.75-31.15 9.8-17.6 2-34.3-2.15-16.9-4.2-31.9-12.9-15.35-9-27.1-21.8l1.3-4m89.05-.3q-21.75-2.1-37.3-13.6l2.6-2.85q7.4 6.35 17.35 9.7 7.9 2.6 18.55 3.65 18.1 1.75 31.35-7.1l1.9 2.7q-7.55 5.05-18.3 6.9l-16.15.6m60-123.4q-12.4 18.6-16.1 20.3-10.1 4.6-18.4-3.1-3.35-3.15-5.05-7.35-1.7-4.15-1-7.55 9.95 14.65 28.3 1.3 6.2-4.55 14-12.8l10.5-11.55q-.3 2.8-12.25 20.75"/><path fill="#b3aea6" d="M305.05 90.2q-1.3 2.7-1.45 5.15-.15 2.5.9 3.8 3.2 3.75 9 1.2l-2.05 3-4.95.15q-2.15-.5-4.1-2.7-2.4-2.75-.25-9.9l2.9-.7m-11.65 3q-2.15 3.5-2.55 7.3-.45 4.35 1.8 7.3 2.4 3.15 5.9 4 3.6.85 7.85-.8l-2 3.4q-9.85.8-14.15-5.15-2-2.8-1.85-7.8.15-4.35 1.65-7.55l3.35-.7"/><path fill="#b3aea6" d="M281.7 96.6q-6.6 11.65-.5 19.75 3.35 4.45 9.25 5.35 5.4.8 9.8-1.6l-2.6 3.85q-5.6.9-9.85-.2-5-1.3-8.7-5.55-3.6-4.1-3.65-10.15-.05-4.8 2.05-10.2l4.2-1.25"/><path fill="#a7bab9" d="M77.3 389.75l-3.1.1q-.45-.3-.7-1.4 8.9-1.75 13.4-9.35 4.35-7.5 1.4-15.1 4.15 1.3 6.8 8.1 2.5 6.3 1.05 8.7-1.25 2.1-8.5 5.3-6.35 2.75-10.35 3.65M122 365.8q1.8-.65 5.4 4.55 3.85 5.5 3.35 9.85-.65 5.6-3.95 10.65-2.9 4.5-4.65 4.4 1.5-4.1 1.9-8.2l.25-6.85q0-7.65-2.3-14.4m187.55-15.85q.6 4.8 8.4 8.1 7.05 3 16.9 3.7l-15.05 1.7q-10.85.65-19.3-1.1 1.2-.65 1.85-1.3.85-.85 1.5-2.4.9-2.15 2.25-4.35 1.7-2.75 3.45-4.35m7.95-6.15q1.95 5.8 11.15 11.85-12.15-6.2-15.5-6.7 1.85-3.1 4.35-5.15M74.55 87.1q2.4 5 4 7.65 2.1 3.45 4.55 5.7l-9.25-.45q-5.55-.5-5.9-1.35-.6-1.35 6.6-11.55M81 71.7q-1.7 3.85-4.9 4.05-3.85.2-9.55-5.5-5.9-5.95-5.9-10.8Q65.3 64.7 71.2 66.7q6.9 2.35 11.35-1.9-.3 4.1-1.55 6.9m31.5-18.85q4.45 5.9 4.3 7.6-.4 5.55-5.15 7.35-4.45 1.65-8.45-.9 5.55-1.15 5.45-7.9-.05-5.25-3.5-13.45 2.75 1.1 7.35 7.3m274.25 151q.65.9-.95 2.25-2.1 1.75-7.35 4.35-5.6 2.8-7.5 2.85-2.5.05-4.15-3.95-1.6-3.75-.85-6.25 2.45 3.95 9.65 3.55 5.85-.3 11.15-2.8m-42.9 27.65q4.5 1.5 12.65 1.15-1.45 2.95-2.95 4.9-1.55 2-2.35 1.95-1.5-.05-7.35-8m25.05-1.5q6.75-2.75 10.8-9.65 1 3.3 1.3 7.7.3 4.25-.35 5-.85 1.05-11.75-3.05"/><path fill="#922f00" d="M284.15 164.75q2.1-4 2.4-7.6.2-2.8-.6-7.05 4.35-1.35 7.7-3.8.15 10.4-9.5 18.45"/><path fill="#ce7486" d="M220.75 130.05q15.6 8.8 35.25 15.35 21.9 7.3 30 4.9.65 1.7.65 4.35 0 2.85-.75 5.45-7.5-5.45-25.15-6.1-16.4-.55-29.2 3.05-4.6-2.95-9-7.4-5.55-5.55-8.7-11.5 3.65-3.75 6.9-8.1"/><path fill="#dbdcdc" d="M213.45 125.55q-2 8.2-1.75 13.7-1.2-.75-2.15-6.65-.9-5.15-1.1-10.65l2.35 1.8 2.65 1.8"/><path fill="#759ab5" d="M267.55 67.7q-2 .75-4.85-.3-2.6-1-4.6-2.95-2.05-2.05-2.15-3.9-.1-2.15 2.55-3.25 5.9-2.45 33.6-6.75l26.5-3.85q.15 1.5-22.55 10.3l-28.5 10.7m-160.7 143.8q2.6 1.4 5.65.95 3.8-.5 6.75-3.85l-7.3 18.8-5.1-15.9m19.75-39.1l4.05.85q4.75.35 8.35-2.45l-8.9 14.95-3.5-13.35"/><path fill="#0d131a" d="M304.5 90.75l1.85-.55q-1.6 1.3-2.1 4.3-.45 2.8.45 4.25 1.15 1.85 3.45 2.05 2.4.2 5.3-1.4l-.55 1.55q-2.7 1.5-5.5.85-2.6-.55-3.75-2.4-.95-1.55-.65-4.35.3-2.8 1.5-4.3"/><path fill="#0d131a" d="M300.5 96.4q-.1-3.1 1.2-5.5l1.4-.25q-1.35 2.2-1.35 5.2 0 2.8 1.05 4.45.95 1.5 2.9 2.3 2.75 1.15 6.15-.1l-.55 1.45-6.05-.2q-2.3-.9-3.55-2.8-1.15-1.75-1.2-4.55m-65.35 12.7q0 1.55-.35 2.6-.35 1.1-.9 1.1-.5 0-.9-1.1-.35-1.05-.35-2.6t.35-2.65q.4-1.1.9-1.1t.9 1.1q.35 1.1.35 2.65"/><path fill="#fff" d="M235.65 106.35l1.2 1.85-.6.85q-.4.4-.9.4-.6 0-1-.4-.45-.45-.45-1 0-.8.5-1.3.55-.45 1.25-.4"/><path fill="#0d131a" d="M243.6 101.75q-.45-1.25 0-1.4.45-.15 1 1.05 2.35 4.75 3.35 9.6 1 5 .15 8.5-.45 1.85-1.45 1.65-1-.2-.55-2.05 1.5-6.2-2.5-17.35m49.1 37.65q.75-.7 1.1-.5.35.2-.15 1.05-1.1 1.9-2 4.55-.35 1.05-1.2.7-.85-.35-.5-1.4.85-2.45 2.75-4.4M115.45 59.25q-.75-2.15-5.1-7.6-4.35-5.5-5.25-5.35-.85.15-2.85 6.25-1.95 6-1.95 8.2 0 2.95 2.9 5.15 3 2.25 6.4 1.4 3.45-.85 5.1-3.85 1.4-2.5.75-4.2m-4.15-9.65q4.65 6.1 5.85 9.05 1.2 3-.9 6.25-2.2 3.35-6.25 4.2-4.35.9-8.1-1.9-3.65-2.75-3.55-6.45.1-3.7 2.5-10.4 2.45-6.8 4-7.05 1.5-.25 6.45 6.3M94.6 70.7q-.35-.95.15-1.15.5-.2.85.75 3.1 7.55 7.05 10.95 3.8 3.2 10.45 4.3 1.3.25 1.25.95-.05.75-1.4.6-7.05-.6-11.4-4.6-4.15-3.8-6.95-11.8M70.65 60.05q-8.55-1.15-9.2.15-.55 1.15 4.2 7.1 5 6.35 8.55 7.15 2.3.55 3.8-.35 1.35-.9 2.45-3.35.95-2.2 1.1-4.75.1-2.75-1-3.6-1.6-1.2-9.9-2.35m11.3.5q1.65 1 1.65 4.95 0 3.5-1.1 5.95-1.3 2.9-3.55 4.35-2.4 1.6-5 .85-5-1.45-10.55-8.3-5.5-6.7-4.1-9.25 1.1-2.05 10.7-1.15 9.15.9 11.95 2.6m160.55 129q-8.05 1.9-14.25 6.75-4 3.1-10 10.15l-6.05 6.8q-3.6 3.65-7.25 6.35-1.15.9-1.45.45-.3-.45.85-1.35 3.4-2.6 6.95-6.95l5.7-7.15q5.65-6.75 10-9.85 6.4-4.6 15.25-6.25 1.3-.2 1.4.25.1.5-1.15.8m6.4-1.85q14.7-.5 25.05 9.4 8.85 8.5 12.95 22.8.45 1.6 0 1.75-.5.2-1.05-1.4-4.9-14.4-13.8-22.3-9.5-8.55-23.1-9.15-1.25-.05-1.3-.55 0-.45 1.25-.55m99.75 15q-.1-2 .65-2.05.7 0 .9 2 .6 6.2 2.5 9.25 2.2 3.55 7.9 6.3.75.4.55.8-.15.45-.95.2-7-2.45-9-5.25-2.2-2.95-2.55-11.25M212.8 329.1q16.55.1 28.4-6.15 1.35-.7 1.65-.35.25.35-1.1 1.25-10.55 6.9-28.1 7.3-21.75.45-45-10.25l.25-2.5q23 10.65 43.9 10.7m-70.4 16.2q.7-1.15 1.1-1 .4.15-.1 1.4-1.65 4.1-3.25 11.3-.2 1-.7.9-.45-.1-.35-1.15.4-4 1.05-6.4.75-2.6 2.25-5.05m-8.05-10.7q-2.65 5.75-2.95 6.8-.55 2-1.3 1.75t-.2-2.25q.4-1.35 1.5-3.45 1.05-2.05 2-3.35.55-.8.95-.6.4.2 0 1.1M98.6 317.15q.5-.1.6 1.15.35 2.8 1.3 4.55 1.25 2.2 2.5 5.2 1.6 3.85 2.15 6.65.6 3-.2 3.05-.75.05-1.45-2.9-.6-2.6-2.25-6.45-1.4-3.25-2.35-4.75-.6-.95-.7-2.55l-.05-2.7q-.05-1.2.45-1.25M78.4 375.4q-6.35 10.75-4.05 13.75.75.95 9.95-2.9 9.15-3.85 10.65-5.7 1.5-1.9-1.45-8.8-3.05-7.1-6.25-6.95-2.65.15-8.85 10.6m-5.85 16.05q-1.65-1.5-.65-6.2.95-4.3 3.75-9.6 6.6-12.65 11.9-12.9 4.65-.15 8.15 8.2 3.4 8.05 1.2 10.75-2.2 2.8-12.45 6.95-10.3 4.15-11.9 2.8m42-9.95q.35 3.3 3.75 8.2 3.2 4.6 4.35 4.5 1.2 0 4.15-5.1 3.1-5.45 3.1-8.95 0-2.5-2.85-7.75-2.8-5.15-4.15-5.4-2.1-.3-5.4 5.35-3.3 5.7-2.95 9.15m2.15 10.1q-4-6.25-4.35-9.85-.45-4.25 3.45-10.8 4-6.7 7.3-6.4 2.4.2 5.55 5.75 3 5.35 3.3 9.25.3 3.55-3.2 10.65-3.5 7.2-5.9 7.5-2.05.25-6.15-6.1M318.35 91q2.2-3.4-2.05-2.5-15.9 3.6-24.45 5.85-17.15 4.6-20.15 7.45-3.75 3.55-4 9.05-.25 6.15 4.15 12.2 4.15 5.75 11.1 6.8 6.95 1.05 11.2-3.5 3.15-3.35 11.65-16.05L318.35 91m-27.85 1.7q12.7-3.65 25.75-6.55 3.8-.85 4.8.85.95 1.6-.8 4.4-18.85 30.35-24.65 36.5-4.8 5.15-13.35 3.5-8.15-1.6-12.3-7.35t-4.05-12.7q.1-6.9 4.35-10.95 2.85-2.7 20.25-7.7"/><path fill="#0d131a" d="M292.85 93.2l1.8-.4q-2.25 2.3-3.05 6.5-.8 4.4.85 7.2 2.3 3.85 6.25 4.75 4.1.9 8.85-1.7l-1.4 1.8q-4.15 2.35-8.65.85-4.3-1.4-6.15-5.1-1.65-3.3-1.05-7.5.55-3.85 2.55-6.4"/><path fill="#0d131a" d="M290.95 93.6q-1.6 3.1-1.9 6.75-.3 3.8.95 7 1.4 3.6 5.5 5.45 4.3 2 9.15.65l-.75 1.45q-4.1.95-8.2-.55-4.85-1.85-6.9-6.55-1.2-2.85-1.05-6.6.15-3.65 1.6-7.05l1.6-.55"/><path fill="#0d131a" d="M280.95 96.85l2.15-.7q-3.4 2.1-4 8.9-.65 6.75 2.1 10.45 3.6 4.85 9.8 5.55 5.7.65 10.1-2.25l-1.75 2.2q-5.75 2.45-11.2.85-4.9-1.5-8.05-5.7-2.8-3.9-2.4-9.9.35-5.8 3.25-9.4"/><path fill="#0d131a" d="M278.6 97.65q-2.65 5-2.45 10.55.2 5.55 3.25 9.2 3.35 4.05 7.7 5.45 4.75 1.55 10.95.05l-.95 1.65-9.65-.3q-5.5-1.45-9.15-6-3-3.7-3.35-9.05-.4-5.65 2.3-10.85l1.35-.7m-4.85 46.5q-.65-.5-.45-.8l1.05-.1 2.15 1.25q1.3.9 1.85 1.55.8.95.1 1.55-.65.65-1.45-.3l-3.25-3.15"/><path fill="#0d131a" d="M177.6 79.5q-.7-.95-.05-2.3.55-1.2 1.6-1.75.7-.35 1.65-.4l1.6.25 9 3.9q7.1 3 11.95 4.4 1.6.5 1.55.95l-1.75.1q-8.05-1.65-21.05-7.4l-1.95.1q-1.05.65-.35 1.6l7.5 9.1q1.05 1.25.7 2.55-.45 1.5-2.8 2.25L165.8 97q-.65.15-.75.55-.1.5.65 1 4.8 3.2 7.9 6.85 2.8 3.25 3.55 6.05 1.25 4.7-1.4 9.45-1.25 2.25-5.15 6.6-1.9 2.1-.2 3.6 7.2 6.55 10.4 8.9 1.25.95 2.35-.15 18.65-19.6 22.1-21.1l.55.05q18.05 14.3 46.05 24.1 11.8 4.15 21.1 5.8 9.4 1.65 13 .2 13.2-5.25 19.45-18.4 5.2-11 4.45-24.25l1.45-2.3q2.35 16.85-4.65 30.05-6.8 12.85-19.9 17.5-3.75 1.35-13.35-.35-9.6-1.65-21.45-5.7-28.6-9.8-45.9-24.15-3.4 1.7-22 20.3l-1.95 1.15q-1.15.25-2.1-.45-5.65-4.35-11.7-9.7-2.9-2.6-.1-5.75l5.2-6.05q3.1-4.8 2-9.05-1.25-4.7-11.45-11.5-1.75-1.2-1.55-3 .15-1.9 2.15-2.3l10.9-1.9 8.4-1.6q1.55-.5 1.8-1.5.2-.85-.45-1.6l-7.6-8.85M287 59.65l3.05-.45q5.3 4.35 10.95 13.3 5.8 9.15 8 17l-1.75.45q-2.25-7.85-8.4-17.1-6.2-9.3-11.85-13.2"/><path fill="#0d131a" d="M316.4 47.9q1.35-.7 1-1.45-.3-.65-1.5-.75l-31.4-1.9q-18.95-.6-35.9.65-2.35.15-2.4-.45-.05-.55 2.3-.9 27.65-3.8 67 .7 4 .45 4.2 2.6.15 2.05-2.75 3.5-5.3 2.65-18.95 7.65l-26.15 9.4q-3.75 1.35-4 .75-.25-.6 3.4-2.2 10.1-4.4 26.35-10.25 14.3-5.15 18.8-7.35"/><path fill="#0d131a" d="M274.3 64.95l2.45-1.2q-.85 2.15-1 3.7-.15 1.15.05 2.8.2 1.25-.1 1.4-.3.15-.85-.95-1.3-2.35-.55-5.75m36.15-5.2l.05-1.6q-.2-.8-1.15-1.6-.7-.5-1.15.15l-5.15 6.95-5 6.6-1.2-1.7 5.1-6.75 5.3-7.1q.65-.8 1.5-.9.8-.05 1.5.55 1.25 1.05 2 2.5.85 1.55.65 2.8l-2.7 11.25-3.5 14.45-1.4-1.85q4.35-18.9 5.15-23.75M297.2 55.6l2.4-1-1.45 6.95-1.35 6.25-1.6-1.9 2-10.3m8.5-37.1q.45-1.2.05-1.7-.5-.6-2.55-.7-2.1-.1-6.4 1.2-4.4 1.3-6.85 2.85-1.75 1.1-7.7 8.5L271.7 42l-2.8.35 11.1-14.7q6.4-8.5 8.15-9.6 2.4-1.45 7.75-3 4.45-1.25 7.3-1.65 2.95-.4 4.45.85 1.8 1.5.7 4.9l-3.2 10.2q-2.35 8-3.8 14.45l-2.2-.15q1.4-6.75 3.55-14.8 1.7-6.45 3-10.35m-56.05 21.55q5.8.55 15.6 2.5l-5.4.5q-14.2-2.1-25.6-.05l-.95-2.5q7.75-1.2 16.35-.45"/><path fill="#0d131a" d="M225.2 26.55q-12.6-19-18.15-22.5-1.1-.7-4.15-1.05l-4.35-.25q-2.2.1-1.65 2.5 7.35 31.8 7.8 52.35.05 2.75-.7 2.75-.7.05-.95-2.7-1.5-19.35-9.2-53-.45-1.95.9-3.3 1.2-1.2 2.85-1.3l5.1.3q4.4.45 5.8 1.35 4.8 3 18.85 24.05 3.3 4.95 11.2 26 .5 1.4-.1 1.6-.6.2-1.2-1.15-8.8-20.85-12.05-25.65"/><path fill="#0d131a" d="M207.6 9.05l8.4 12.3q4.8 7.1 5.75 9.25 1.7 3.9 3.5 12.3 2.1 9.8 1.35 14.1-.6 3.55-6.55 8.05-.95.7-1.25.35-.3-.35.5-1.15 5-5 5.5-7.75.65-4-1.65-13.4-1.95-7.75-3.7-11.7-1-2.25-5.5-9.35l-8.1-12.4q-.95-1.4-2.3-1.95l-2.95-.6q-.95-.1-.9-.6 0-.45 1-.5 2.4-.1 4 .55 1.7.75 2.9 2.5m-11.1 54.6l-1.3-1.3q6.95-7.95 8.05-9l.25 2.85q-2.8 2.75-7 7.45"/><path fill="#0d131a" d="M171.95 47.5l-.7-7.05q-.1-1.25 1.55-1.75l6.5-.6q2-.1 2.8 1.8 8.05 18.65 20.05 27 .95.65.75 1.05l-1.25-.1q-11.1-5.55-21.55-26.45-.45-.85-1.7-.95l-3.3.05q-1.35 0-1.25 1 .45 4.8.2 7.15-.35 3.1-2.05 4.45-1.85 1.5-5.65 2.4l-10.05.5-1.4.25q-.5.35-.5 1.05l.1 4.55q5.05 3.2 8.8 7.6 3.85 4.4 3.85 7.1 0 3.5-6.2 8.1-1.1.9-.2 1.65l4.05 4.55q2 2.55 3.25 4.6l-1.85.65q-2.1-3.4-7.6-8.65-.95-.95-.8-2.05.1-1.05 1.1-1.8l4.55-3.55q2.3-2.15 2.05-3.5-.9-4.6-6.65-8.8-5.7-3.45-6.15-4.15-.6-.95-.5-3.7l.25-4.25q.15-2.55 3.5-2.05 5 .65 9.2.1 3.95-.5 5.6-1.8 1.3-1.05 1.2-4.4M164 98.4l-3.05.1-1.5-2.7 4.6.55-.05 2.05m34.15 27.8l1.95-1.7q2.75 6.5 4.55 14.95 2.2 10.5 1.95 20.15-.05 2.2-.65 2.2t-.7-2.2q-.65-19-7.1-33.4"/><path fill="#0d131a" d="M211.55 159.8q.45 1.7-.1 1.8-.6.15-1.2-1.5-1.8-4.9-4.7-9l-.2-3.3q4.75 6.75 6.2 12m-4.6-38.35l2.55 1.7q1.35 14.75 2.35 15.25.6.2 2.85-2.3l5.35-6.8 1.7 1.1-5.05 6.05q-3.9 4.1-5.35 3.6-1.3-.45-2.25-3.9-1.2-4.45-2.15-14.7m78.65 36.95q.75-4.1-.3-8.25l1.65-.45q.9 3.65.45 7.35-.6 4.55-3.25 8.05l-3.05 2.1q3.6-3.75 4.5-8.8"/><path fill="#0d131a" d="M213.1 138.95l1.3-1.1q7.45 13.35 24.8 23.1 17.3 9.75 31 8.35 9.45-.95 15.6-7.05 6.25-6.2 7.2-15.7l1.6-.95q-.2 10.45-7.2 17.8-6.85 7.15-17 8.2-14.25 1.45-31.9-8.35-18.05-10.1-25.4-24.3"/><path fill="#0d131a" d="M230.3 167.55q-13.75-7.3-24.6-17.25l-.4-2.7q9.8 9.35 23.95 17.05 20.45 11.1 37.55 10.1 13.55-.8 21.15-8.7 7.5-7.85 9.35-22.85l1.55-1.2q-.15 15.9-9 25.3-8.55 8.95-23 9.8-16.75 1-36.55-9.55M178.05 54q.35-.4 1.25.4 4.7 4.35 8.35 12.55 2.65 5.95 2.95 8.4.1 1.35-.95 4l-1.6-.6q.9-2.25.85-3.45-.3-2.3-2.9-8.3-3.45-8.1-7.45-11.8-.85-.85-.5-1.2m58.9 53.4l1.15 1.95q.05 3.3-1.6 5.7-1.5 2.15-3 1.95-3.15-.5-3.75-6.3-.6-6 2.95-9.4l.5.75q-2.6 2.45-2.4 7.8.2 5.35 2.8 5.95 1.3.3 2.5-2.05 1.35-2.65.85-6.35"/><path fill="#0d131a" d="M223.4 93.4q-1.15-.8-.9-1.25.3-.45 1.5.35 7 4.3 12.15 11.4 5.25 7.3 8.1 16.95.4 1.35-.2 1.8l-2-.15-10-4.9-11.05-5.5q-1.8-.85-1.6-1.3.2-.45 2.05.3 4.1 1.65 21.05 9.7-6.15-18.5-19.1-27.4"/><path fill="#0d131a" d="M225.2 94l1.8 1.2q-4.9 3.45-8.35 8.1-1.9 2.6-2.25 2.2-.35-.4 1.4-3.15 3.25-5.05 7.4-8.35m55 127.6l.75 1.3q-13.65 10-36.6 6.85-9.8-1.35-18.5-4.95-8.6-3.6-13.6-8.35l.8-1.25q4.9 4.65 13.35 8.2 8.45 3.5 18 4.85 22.45 3.1 35.8-6.65"/><path fill="#0d131a" d="M281.75 224.8l1.05 1.05q-15.25 9.95-37.65 7.4-20.7-2.35-35.05-13.3-.2-.1.2-.8.4-.65.5-.55 13.2 10.1 32.8 12.9 22.5 3.25 38.15-6.7m-123.05 9.05l.4-1.8q13 16.3 34.7 27 19.2 9.5 37.2 11.2 13.6 1.25 27.75-1.7 15.85-3.35 24.2-10.7l-.4 2.25q-8.65 7.05-24.25 10.1-13.75 2.65-27.4 1.4-18.15-1.7-37.3-11-21.75-10.55-34.9-26.75"/><path fill="#0d131a" d="M157.5 238.7l.35-1.95q27.3 28 61.55 35 17.2 3.55 33.6 1.25 16.35-2.3 29-10.05l-.2 2.2q-12.7 7.55-29.1 9.65-16.25 2.1-33.5-1.45-34.65-7.1-61.7-34.65m15.6 53.4l-.1-1.95q7.1 5.7 18.4 10.05 11.55 4.45 24.35 6.35 30.05 4.4 50-6.6l-1.4 2.4q-19.75 9.9-48.3 5.95-26.75-3.7-42.95-16.2"/><path fill="#0d131a" d="M173.35 296.35l-.05-1.8q18.7 12.35 44.2 15.5 25.45 3.15 44.15-4.6l-1.35 2.1q-18.8 7.1-43.6 3.95-24.9-3.2-43.35-15.15M101.4 51.7q-4.1.25-10.6 2.55-7.65 2.6-12.1 6.1l-2.8-.75q6.3-5.25 15.25-8.2 6.25-2.1 11.15-2.4l-.9 2.7m64.5 65.75q.35-6.45-2.75-12.05-7.25-13-12.5-20.6Q140 69.55 127.8 59.5q-6.9-5.75-15.65-7.4l-2.1-2.9q11.1 1.35 19.3 8.15Q141.6 67.45 152.1 83q3.8 5.65 12.8 21.55 3.35 5.9 2.95 13.4-.4 8.3-5.65 11.8-8.15 5.4-16.35 4.6-7.5-.7-12.25-6.05-7.8-8.75-17.65-14.4-9.6-5.45-15.85-5.1-10.95.6-19.2-8.35-2.85-3.05-6.45-9.85-3.25-6.05-4.85-10.65-1.65-4.55-1.6-7.75l3 1.8q.2 1.8 1.4 5.35 1.7 4.8 4.35 9.95 3.15 6.2 5.85 9.1 3.25 3.45 6.45 5.3 5.15 2.95 11.25 2.6 6.5-.4 16.35 5.35 10 5.8 18.15 14.95 4.25 4.75 10.8 5.4 7.5.7 15.4-4.55 4.5-3 4.9-10"/><path fill="#0d131a" d="M67.6 95.5q1.65-2.85 6.35-9.35l.95 2.3q-6.5 9.1-6.05 9.8.3.5 4.3.9 4.15.4 8.5.2l2.15 2.05-10.8-.3q-6.35-.65-6.75-1.75-.35-.95 1.35-3.85m312.55 105.75l-3.4-.8q-6.4-14.25-26.8-24.85-18.55-9.6-43.1-13.65l-.45-2.15q28.6 4.5 48.4 15.75 19.55 11.1 25.35 25.7m-.8 8.5l2.8-1.05q1.95 11.85-5.5 18.3-6.15 5.3-19.05 7.05-12.1 1.65-20.55-3.95-5.3-3.55-12.45-13.35-2.7-3.75-10.4-8.15-7.55-4.35-14-6.05l1.15-1.7q6.9 1.85 14.2 5.8 7.9 4.25 10.6 8.05 6.65 9.3 11.65 12.65 7.95 5.3 19.65 3.75 12.05-1.6 17.3-6.2 5.95-5.2 4.6-15.15"/><path fill="#0d131a" d="M370.65 200.5q-1.9-.05-3.05 1.45-1.15 1.55-1 4.15.1 1.95 1.5 4.05 1.55 2.3 2.95 2.1 1.9-.2 8.4-3.55 6.45-3.25 6.4-3.85-.1-.7-5.7-2.4-5.9-1.75-9.5-1.95m-4.8.05q1.9-2.3 5.1-2.1 3.95.3 10.3 2.45 6.8 2.3 6.8 3.85 0 1.45-6.9 5.1-6.4 3.35-9.95 4.35-2.45.7-4.75-2.5-2.05-2.85-2.2-5.6-.2-3.35 1.6-5.55m13.3 20.65l1.35-3.1q2.5 13.9.85 15.75-.75.85-5.4-.4-4.35-1.15-8.4-3l2.4-1.15 6.35 2.35q3.4 1.05 3.8.75.8-.6-.95-11.2m-23.95 11.2h2.35q-1.85 4.35-4 6.6-1.45 1.55-2.2 1.55-1 0-3.8-2.85-2.8-2.8-5.55-6.6l3 .8 3.6 4.25q2.25 2.55 2.75 2.55t1.65-1.8l2.2-4.5m-58.55-81l.55-2.2q4.4 1.95 7.05 4.75 3.35 3.5 4.7 9.05 1.9 7.8.85 17.45-1.3 11.75-6.8 21.15-1.3 2.3-3.55 4.05-2.2 1.65-4.8 2.45l-.05-1.85q2.15-.9 3.65-2.55 1.05-1.1 2.35-3.5 5.4-9.25 6.7-20.1 1.05-8.95-.8-16.5-1.3-5.3-3.8-8.1-2-2.25-6.05-4.1"/><path fill="#0d131a" d="M292.4 192.75q-2.35-15.6-7.1-23.15l1.5-1.15q4.95 7.75 7.75 24 2.8 16.45.7 25.9-.75 3.35-3.8 6.4-2.85 2.85-5.45 3.25-1.7.25-3.4-.55-1.8-.8-2.55-2.2-4.5-8.15-7.75-12.45-6.4-8.5-14.05-12.85-9.45-5.35-20.35-1.5-10.65 3.75-21.75 16-7.55 8.35-11.75 10.3-5.4 2.6-12.6-.55-20.6-9.05-34.8-22.5-10.9-10.25-16.7-21.6-3.05-6-3.7-12.75-.55-5.75.65-11.25l1.55 1.55q.1 6.55.7 10.25 1 5.8 3.8 11.4 5.8 11.3 15.85 20.85 13.45 12.75 33.75 21.7 6.5 2.85 11.25.55 3.65-1.75 10.25-9.25 12.4-14.05 24.9-17.3 10.6-2.75 19.75 2.45 8 4.55 14.75 12.7 4.6 5.55 8.2 12.2.7 1.25 1.8 1.55h1.95q2.35-.3 4.2-2.1 1.95-1.95 2.65-5 2.1-9.45-.2-24.9"/><path fill="#0d131a" d="M167.7 173.15q1.55.7 1.35 1.25-.2.55-1.8 0-7.5-2.75-18.4-8.75-10-5.45-12.3-7.55-4-3.7-7.35-13.8-4.05-12.3-2.6-23.85l2.3 1.8q-1.2 11 3.25 22.25 3.25 8.2 6.5 11.25 2.15 2 11 7.45 10.05 6.2 18.05 9.95m-29.2-3.7l1 2.9q-8.45 12.35-16.95 31.35-9.5 21.3-12.6 37.45l-2.65 1.45q5.9-34.8 31.2-73.15"/><path fill="#0d131a" d="M132.3 165.95q-3.65 1.6-4.55 2.9-.65.9.5 6.3 1.15 5.2 2.7 9.15l-1.3 2.7q-1.65-3.95-3.3-9.85-2.15-7.9-1.1-9.45 1.1-1.55 5.45-3.5 3.45-1.55 7.4-2.75l.1 2.25-5.9 2.25m-9 33.5l-1.45 2.8q-12.8 4-13.5 6.05-.45 1.3 1.15 7.25 1.25 4.75 3.2 10.4l-1 3.45q-3.4-8.65-4.8-13.15-2.1-6.7-1.4-8.7.65-1.8 6.5-4.2l11.3-3.9m31.95 51.15l-2.4-1.25q3.1-14.05 6.95-24.9 2.95-8.25 6.8-15.95l2.3.8q-3.85 7.6-6.85 16.35-3.65 10.6-6.8 24.95m129.05-25l2.45-.05q.95 20.2-3.8 40-7.6 31.6-27.95 48.9-5.1 4.35-13.95 7.15-9.45 3.05-20.6 3.4-27 .95-51.2-13.15l.85-1.5q22.85 13.3 48.9 12.4 22.65-.75 34.05-10.45 20.05-17.05 27.45-48.15 4.45-18.55 3.8-38.55"/><path fill="#0d131a" d="M155 343.1l2.4-2.6q25.15 6.2 48.15 1.5 16.2-3.3 29.2-11.4 5.85-3.6 9.4-7.25 3.55-3.65 3.65-6.05l2.1-.95q.35 6.75-14.4 16.7-12.25 8.4-30.7 11.85-24.05 4.55-49.8-1.8M44.1 74.45q.4-4.2 2.75-4.7 2.4-.5 5.35 3.2 11.75 14.7 12.05 39.95.25 19.55-6.25 43.4-5 18.2-2.25 33.85 2.8 16.1 13.5 27.35 8.3 8.8 19.7 12.15 10.8 3.15 21.85.75l-.55 3.9q-10.95 2.25-22.55-1.75-11.65-4.05-20.3-13.15-11-11.65-14.3-28.3-3.25-16.6 1.75-34.9 6.65-24.15 6.75-42.95.15-25.1-11.35-39.45-1.55-1.95-2.6-1.55-1.05.35-1.3 3.05-1.2 13.2-10.9 36-5.6 13.15-17.45 36.55Q6.25 171 3.75 196.25q-3.9 39 16.35 72.85 11.45 19.2 29 33.7 17.55 14.55 37.65 21.4v3.35q-20.55-6.9-39.35-22.2-19-15.4-30.55-34.75-20.4-34.15-16.1-74.2 2.75-25.8 14.75-49.5 12.15-24.05 17.55-36.55 9.85-22.9 11.05-35.9"/><path fill="#0d131a" d="M95.8 233.45l5.6.95q-10 .45-19.7 5.15-10.15 4.9-17 13.05-9.3 11.05-11.85 26.4-2.45 14.8 2.05 29.8l-3-2.15q-4.05-14.8-1.05-30.05 3.05-15.5 12.4-26.6 6.25-7.4 14.85-11.5 7.5-3.6 17.7-5.05m-44.3-15.1q10.8-.7 20.45 3.65l5.25 4.75q-11.4-6.45-23.35-6.1-11.45.35-20.05 6.7-8.85 6.6-12.5 18.85-3.45 11.8-1.1 25.3l-2.6-4.3q-1.8-13 2.1-24.25 4-11.55 12.8-18.05 7.9-5.85 19-6.55M25.75 183.9q-8.5 2.35-14.6 9.8-6.15 7.45-8.8 18.65l-.4-5.15q2.85-10.35 8.95-17 5.9-6.45 14.2-8.8 7.15-2 15.35.5 7.6 2.3 13.6 7.65l.75 4.05q-6.1-6.15-13.75-8.9-8.15-2.85-15.3-.8m14.05-39.95l-11.75-.35q-6.95 1.55-11.9 6.7l1.1-3.15Q22 143 28.7 141.5q6.3-1.35 11.55.2 5.7 1.7 10.1 6.4 4 4.35 5.3 9.2l-.85 3.05q-1.05-5.45-5-9.9-4.15-4.75-10-6.5m22.75-26.8l-.55 3.6q-.9-4.6-3.9-8.1-3-3.55-7.2-4.8l-9.15.3q-5.1 1.55-8.1 5.1l1.45-3.65q3.25-2.65 7.75-3.85 4.75-1.2 8.45-.1 3.65 1.1 6.75 4.25t4.5 7.25m39.3 127.6q7.85-5.95 13.85-8.4 9.9-4.05 18.1-.85 17.65 6.9 28.35 20.25 11.15 13.85 13.05 32.65.75 7.3-.45 13.15-1.45 6.95-5.75 12.8l-10.95 13.15-12.4 14.9q-1.1 1.4-1.5.9-.35-.5.6-2.1 2.9-4.8 11.9-16l10.5-12.95q4.05-5.5 4.95-11.35.65-4.25-.25-11.8-2.2-18.7-12.05-31.6-9.75-12.8-26.8-19.45-7.85-3.05-16.6.7-4.55 2-12.6 8.05-6.95 5.25-12.15 18.4-4.7 12-5.85 24.5-.5 5.6.05 14.3l1.35 15.3q1.55 15.5.8 21.8-.4 3.45-3.25 14.4-2.95 11.25-3.3 13.8l-3.2 2.65q-.1-3.05 3.2-15.7l3.9-15.35q.9-5.75-.65-21.45l-1.95-15.4q-1.1-9.15-.6-14.5 1.2-12.75 6.6-25.6 5.8-13.7 13.1-19.2"/><path fill="#0d131a" d="M146.15 340.8l2.45-3q-1.45 2.35-1.2 11.05.1 4.55.5 10.75 0 2.4-1 3.85-1 1.5-3.45 3.2l-3.75 2.1.1-2.95q3.05-1.35 4.8-3.95.8-1.3.8-3l-.2-8.5q0-6.5.95-9.55"/><path fill="#0d131a" d="M140 362.85q.55 3.25.4 5.95-.15 3.05-1.15 4.4-1.85 2.4-8.2 7.95l-.25-2.75 7.05-6.95q.85-1.05 1.05-3.35v-5.15q0-1.3.45-1.35.45-.05.65 1.25m-26.5 19.4l.7 2-9.9.45q-4.95-.4-10.65-2.3l1.65-1.5q3.9 1.15 9.6 1.45 4.7.25 8.6-.1m32.65-34.05l-.1-2.1q11.3-4.35 17.15-13.85 5.15-8.45 5.35-19.7l2.2-2.75q-.2 16.65-6.35 25.75-5.7 8.45-18.25 12.65m137.8-96.15l.55-2.75q17.15 13.3 26.55 27.3 9.3 13.95 10.3 27.65.65 8.6-6.05 19.15-6.25 9.8-13.65 14l-1.25.15q-.25-.4.65-1.05 6.05-4.7 11.3-13.2 6.35-10.35 5.8-18.8-.9-13.3-9.9-27-8.85-13.5-24.3-25.45m-47.55 78.8l2.35-1.9q5.8 5.9 14 9.3 9.4 3.85 19.4 3.15 1.35-.1 1.4.35.05.45-1.3.7-9.95 1.9-20.6-2.05-9.25-3.4-15.25-9.55m42.5-20.95q4.2 11 3.9 19.3-.05 1.4-.55 1.4-.45 0-.55-1.4-.4-8.55-4.6-18.45-4-9.5-8.55-13.55l1.2-2.25q4.95 4 9.15 14.95"/><path fill="#0d131a" d="M255.3 340.75l2.25.15q.5 4.35-4.6 10.95-1.25 1.6-.85 3.9.45 2.45 2.65 2.85 26.25 4.65 44 3l2.1-.5q.9-.5 1.35-1.55.8-1.8 2.7-5.05 2.25-3.85 3.5-5.1 2.7-2.65 6.9-.85 23.75 10.05 23.2 12.7-.4 2-14.8 2.9-13.1.8-23.55-.4l-1.05.15q-8.6.8-20.9-.05-12.4-.8-25.15-3.05-2.7-.45-3.65-3.75-1-3.3.95-5.85 5.35-6.95 4.95-10.45m79.65 19.85q.05-.7-6.8-4.15-7-3.55-13.4-6-3.25-1.3-5.3.75-1.2 1.2-3.25 5-1.65 3.15-2.4 5l-.4.75q8.55 1.05 20.2.3 11.35-.75 11.35-1.65"/><path fill="#0d131a" d="M316 343.8q.6-.6.55-1.1-.1-.6-1.25-1.25-6.95-3.7-11.1-6.95l2-1.65 5.75 4.2 4.8 3.15q1.65.85 1.9 2.2.2 1.25-.85 2.35l-2.05 2.25q-1.2 1.55-1.5 2.5l-2.05-.6q.6-2.05 3.8-5.1"/><path fill="#0d131a" d="M335.5 359.85l-1.75-1.3 2.6-.3q1.4-.35 1.5-.65.3-1.2-6.5-5.85-7-4.8-14.2-8.05l.55-1.5q7.8 3.35 15.4 8.3 8.4 5.5 7.6 7.55-.3.65-2.05 1.25l-3.15.55"/></svg>