<svg xmlns="http://www.w3.org/2000/svg" width="261" height="288" viewBox="-0.65 0.0 261.15 287.6"><path fill="#0d131a" d="M91.5 251.85q4.85 3.55 5.35 7.15.65 5.1-6.75 11.2-3.95 3.25-12.4 6.7-8.65 3.55-17.85 5.6-22.95 5.1-28.75-2.55-5-6.55 5.2-14.65 8.05-6.4 21.15-11.1 7.85-2.8 18.65-3.8 11.85-1.15 15.4 1.45"/><path fill="#d08690" d="M91.15 255.85q4.4 5.3-2.05 11.1-5.35 4.8-15.4 8.05-11.65 3.8-19 5.05-11.65 2-17.65-.95h1.75q18.95 0 32.3-7.05 13.4-7.1 13.4-17.1l-.2-2.3q4.7.55 6.85 3.2"/><path fill="#f09ba5" d="M84.3 252.65l.2 2.3q0 10-13.4 17.1-13.35 7.05-32.3 7.05h-1.75l-1.35-.75q-5.8-3.75 3.4-11.3 7.85-6.5 15.1-8.5l14.45-4.1q9.95-2.45 15.65-1.8"/><path fill="#0d131a" d="M184.8 250.45q10.7 1.05 18.6 3.9 13.15 4.65 21.35 11.1 10.35 8.15 5.05 14.5-5.65 6.7-25.15 3.45-17.85-3-30.2-10.5-9.6-5.8-9.85-12.25-.2-5.1 4.9-8.8 3.55-2.6 15.3-1.4"/><path fill="#d08690" d="M169.5 255.85q2.2-2.65 6.9-3.2l-.2 2.3q0 10 13.4 17.1 13.35 7.05 32.3 7.05h1.75q-6 2.95-17.65.95-7.35-1.25-19-5.05-10.05-3.25-15.4-8.05-6.45-5.8-2.1-11.1"/><path fill="#f09ba5" d="M176.2 254.95l.2-2.3q5.7-.65 15.65 1.8l14.45 4.1q7.25 2 15.1 8.5 9.2 7.55 3.4 11.3l-1.35.75h-1.75q-18.95 0-32.3-7.05-13.4-7.1-13.4-17.1"/><path fill="#0d131a" d="M249.45 38.45q1.9 3.95-5.4 10.45-2.4 2.15-6.7 3.45-4.65 1.45-9.4 1.2 16.1 6.25 25.05 8.55 7.2 1.85 7.35 7.9.15 6.15-7.65 7.65l-8.15.55-9.05-1.05 6.8 4.65 5.55 4.4q2.6 2.5 3 6.3.35 3.7-1.55 5.9-2.25 2.55-5.3 3.2-3.1.65-6.5-.75l2.95 5.6q3.6 7.2 6.55 14.95 9.5 24.9 9.5 46.55 0 54.75-37 82.1-32.6 24.15-89.15 24.15-54.25 0-87.5-23.75Q4 222.65 4 167.9q0-21.6 10.1-46.7 3.15-7.85 6.95-15.1l3.15-5.65q-3.2 1.4-6.45 1.2-3.7-.25-6.15-2.55-2.25-2.15-2-5.75.25-3.75 3.1-6.75 2.25-2.35 6.2-5.15 3.7-2.65 6.2-3.85-10 1.9-17.6 0-8.15-2-7.45-7.9.7-5.8 8.7-7.85 7.35-1.9 23.5-7.65l-5.7-.85q-6.65-1.65-11.15-5.6-5-4.45-3.35-8.65 1.7-4.25 8.7-3.75 9.5.7 23.7-1.2 17.8-2.4 26.75-7.65 2.15-1.25 8.8-6.65 7-5.6 12.2-8.8Q110.1 0 131.8 0q21.35 0 38.15 10.6 5.05 3.15 11.7 8.7 6.7 5.65 8.85 7 8.65 5.6 26.15 7.95 13.55 1.85 23.4 1.1 7.7-.55 9.4 3.1"/><path fill="#f6c8d6" d="M217.25 36.6l3.65.45q1.85 2.9 1.85 6.2 0 2.3-2.5 6.55-5.85-2.4-16.65-9-1.95-1.2-2.4-1-.45.15 1.3 1.85 2.25 2.25 7.6 5.5 7.45 4.5 18.4 9.25.95 2.2.95 4.55 0 2.2-1.05 4.5-1 2.2-2.55 3.75-10-7.7-16.4-15.1-2-2.3-2.8-2.15-.8.1 1.55 3.4 2.2 3.1 6.65 7.55 4.75 4.75 10.2 9.15-.2 3.8-3.05 6.7-2.7 2.8-6.6 3.55l-6-4.9-3.7-3.15q-2.4-2.6-3.35-2.45-.95.15 1.95 3.65 2.7 3.2 10.7 10.2 10.75 9.45 18.9 14.1l6.2 12.4q6.9 15.75 10.2 32.45 2 27.35-7.05 50.6-8.55 21.9-26.05 38.1-16.85 15.65-39.8 24.05-22.9 8.4-48.5 8.4-36.2 0-64.35-12.15Q34.9 240.8 18 216 7.8 196.4 7.8 168.6q0-21.85 10.1-48 3.1-8.2 6.9-15.8l3.15-6q8.35-4.75 18.25-13.55 8-7.05 10-9.85 2.95-4.25 1.8-4-1.05.2-3.65 3-2.65 2.75-9.25 8.3-3.8-.7-6.5-3.65-2.75-3-2.95-6.85 5.2-4.2 10.15-9.35 4.15-4.4 6.55-7.75 2.4-3.3 1.2-3.35-1.2-.05-3.05 2.35-7.1 9.05-15.15 15.3-1.65-1.7-2.8-3.85-1.3-2.5-1.3-4.6 0-2.35.95-4.55 10.9-4.7 18.2-9.25 5.1-3.15 7.5-5.55 1.7-1.7.95-1.85-.75-.2-2.65 1.1-4.85 3.4-9.35 5.75-2.85 1.5-6.75 3.1-2.15-3.65-2.15-6.45 0-3.3 1.85-6.2l3.6-.45q10.9-1.45 18.1-3.65Q68 31 72.95 27.9l9.75-7.05q6.85-5.2 12-8.15 16.6-9.5 37.35-9.5 21.1 0 38.1 10.65 4.95 3.05 11.2 8.25 5.9 4.85 7.55 5.8 5.6 3.2 10.9 4.95 7.05 2.4 17.45 3.75"/><path fill="#d5adba" d="M243.25 195.2q9.05-23.25 7.05-50.6 2.6 12.85 2.6 24 0 53.65-37.5 79.75-31.6 21.95-85.05 21.95-37.8 0-66.65-12.95Q32.05 243.1 18 216q16.9 24.8 46.55 37.6 28.15 12.15 64.35 12.15 25.6 0 48.5-8.4 22.95-8.4 39.8-24.05 17.5-16.2 26.05-38.1"/><path fill="#f09ba5" d="M35.65 72.2q.2 3.85 2.95 6.85 2.7 2.95 6.5 3.65-4.3 3.6-14.1 10.4-6.55 4.5-11.1 5.1-3.35.4-5.4-1.4-1.95-1.75-1.65-4.3.25-2.6 2.65-5.15 1.8-1.9 5.25-4.35L31 75.75l4.65-3.55m-3.1-6.65q1.15 2.15 2.8 3.85Q30.5 73.2 27 75l-9.5 1.1q-6.1.2-9.5-1.1-4.3-1.7-4.3-5.2 0-3.6 4.75-4.95l7.7-2.3q5.6-1.8 11.95-4.45l4.1-1.7q-.95 2.2-.95 4.55 0 2.1 1.3 4.6m-12-27.6l6.6.25 12.65-1.15q-1.85 2.9-1.85 6.2 0 2.8 2.15 6.45-5.3 2.2-8.1 1.95l-7.35-1.2q-3.9-1.25-7-4.3-3.25-3.25-1.9-5.95 1.25-2.55 4.8-2.25m224.65 49.4q2.25 2.05 2.6 4.9.3 2.85-1.6 4.55-2.1 1.85-5.45 1.55-4.6-.4-11.15-4.9-5.2-3.55-14.2-11.15 3.9-.75 6.6-3.55 2.85-2.9 3.05-6.7l4.65 3.55q11.1 7.95 15.5 11.75m.2-48.25q1.8 1.65-.55 4.9-3.85 5.35-11.4 6.9-7.05 1.45-13.2-1.1 2.5-4.25 2.5-6.55 0-3.3-1.85-6.2l12.65 1.15 6.6-.25q3.7-.3 5.25 1.15m-.9 23.45l7.75 2.3q5.15 1.45 4.55 5.7-.6 4.2-5.55 4.7-10.6 1.15-18.35-.7l-7.05-5.35q1.55-1.55 2.55-3.75 1.05-2.3 1.05-4.5 0-2.35-.95-4.55l4.05 1.7q6.35 2.65 11.95 4.45"/><path fill="#0d131a" d="M110.35 48.35q-2 0-3.35-2.5-1.4-2.5-1.4-6.05t1.4-6.05q1.35-2.5 3.35-2.5 1.95 0 3.35 2.5 1.4 2.55 1.4 6.05 0 3.55-1.4 6.05t-3.35 2.5"/><path fill="#fff" d="M110.35 40.85q-.85 0-1.5-1.2-.6-1.2-.6-2.85 0-1.7.6-2.85.65-1.2 1.5-1.2t1.45 1.2q.6 1.15.6 2.85 0 1.65-.6 2.85-.6 1.2-1.45 1.2"/><path fill="#0d131a" d="M106.75 96.8q-5.7 3-7.25 4-3.55 2.2-4.05 1.5-.5-.7 3.05-2.95 6.95-4.4 15.9-9.4 3.9-2.2 7.7-2 3.55.15 5.95 2.3 5.25 4.9.2 15.75-2.55 5.45-7.5 11.8-4.2 5.4-6.8 7.45-2.2 1.85-3.15 1.55-1-.35 1.5-2.7 2.85-2.6 7.35-8.75 4.8-6.5 6.2-10.1 1.6-4 1.65-7.6 0-3.9-1.95-5.5-4.35-3.5-10.6.2l-8.2 4.45m58.35 57.25q14.3 18.8 14.3 42.65 0 22.7-14.5 36.8-13.9 13.55-34.85 13.55-20.85 0-34.65-13.65-14.3-14.15-14.3-36.9 0-23.75 14.5-42.55 14.9-19.3 34.85-19.3 19.9 0 34.65 19.4"/><path fill="#fffbda" d="M163 156.25q14 18.1 14 40.45 0 21.3-13.95 34.8-13.3 12.9-32.7 12.9-19.35 0-32.55-13-13.85-13.55-13.85-34.9 0-22.35 13.8-40.35 14.1-18.45 32.5-18.45 18.45 0 32.75 18.55"/><path fill="#0d131a" d="M150.35 48.35q-1.95 0-3.35-2.5-1.4-2.5-1.4-6.05 0-3.5 1.4-6.05 1.4-2.5 3.35-2.5 2 0 3.35 2.5 1.4 2.5 1.4 6.05t-1.4 6.05q-1.35 2.5-3.35 2.5"/><path fill="#fff" d="M150.35 40.85q-.85 0-1.45-1.2t-.6-2.85q0-1.7.6-2.85.6-1.2 1.45-1.2t1.5 1.2q.6 1.15.6 2.85 0 1.65-.6 2.85-.65 1.2-1.5 1.2"/><path fill="#0d131a" d="M162.15 99.7q3.6 2.25 2.75 3.1-.85.85-4.25-1.65-3.2-2.25-14.9-8.8-3.15-1.8-5.8-2-3.1-.2-5.1 1.65-2.05 1.85-1.9 5.65.1 3.4 1.95 7.75 1.45 3.45 6.45 9.9 4.5 5.75 7.5 8.55 2.55 2.35 1.45 2.6-1.05.2-3.25-1.6-3-2.5-6.95-7.1-5.2-6.1-7.7-11.4-2.7-5.8-2.5-10.2.15-3.95 2.55-6.2 2.3-2.05 6.35-2 4.05.1 7.75 2.2 6.1 3.45 15.6 9.55m-40.9-44.15q-1.9-.3-2.35-1.1-.45-.75.65-.75l4.45.35 6.35.3 10.35-.6q1.2 0 .85.75t-1.95.9q-.35 4.35-2.45 7.2-2.55 3.45-7 3.45T123.2 62q-1.95-3.1-1.95-6.45"/><path fill="#922f00" d="M136.35 60.7q-2.55-1.35-6.2-1.55-3.55-.2-6.35.8-1.3-2.45-1.3-4.2l7.7.3 7.95-.45q0 2.35-1.8 5.1"/><path fill="#ed8599" d="M123.8 59.95q2.8-1 6.35-.8 3.65.2 6.2 1.55-2.45 3.7-6.45 3.7-3.8 0-6.1-4.45"/><path fill="#0d131a" d="M180.25 187.75l.55 2.6q.55 3.15.55 6 0 23.65-15.4 38.95-14.75 14.6-35.75 14.6-21.9 0-36.5-15.65-14.65-15.65-14.65-39 0-2.85.6-5.65l.6-2.25q7.9 4.05 25.95 5.95l24 1.25 24.05-1.05q18.15-1.75 26-5.75"/><path fill="#d08690" d="M128.3 240.05q17.45 0 31.35-10.5 13.6-10.35 18.5-26.7-2.2 18.4-15.75 30.8-13.7 12.45-32.05 12.45-13.05 0-24.3-6.7-10.9-6.5-17.25-17.65 7.3 8.55 17.4 13.35 10.45 4.95 22.1 4.95"/><path fill="#f09ba5" d="M178.15 191.65q.35 2.65.35 5.2l-.35 6q-4.9 16.35-18.5 26.7-13.9 10.5-31.35 10.5-11.65 0-22.1-4.95-10.1-4.8-17.4-13.35-6.6-11.45-6.6-24.9 0-2.55.35-5.2 6.75 2.35 21.15 4.1l26.65 1.7 26.65-1.7q14.4-1.75 21.15-4.1"/><path fill="#0d131a" d="M122.85 59.55q3.75-1.6 6.95-1.5 3.9.15 7.5 2.4.5.3.05.85-.45.5-.9.25-2.75-1.65-6.7-1.75-3.85-.15-6.45 1.1-.6.25-.85-.4-.3-.6.4-.95"/></svg>