<svg xmlns="http://www.w3.org/2000/svg" width="292" height="285" viewBox="-0.9 -0.6 291.5 285.05"><path fill="#0d131a" d="M41.65 194q-.6-7.9 2.85-15.05 3.7-7.65 11.4-13.1 2.4-1.7 5.25-1.15 2.85.5 4.55 2.85 1.7 2.35 1.2 5.25-.55 2.85-2.9 4.55-2.2 1.5-4.55 6.15-2.8 5.55-2.55 10.35.3 5.4 7.1 9.85 6.65 4.35 10.75 2.5 3.85-1.65 7.4-5.85 2.95-3.45 3.65-5.7 0-2.1 1.1-3.85 1.15-1.7 3-2.55l1.65-.5q2.4-.45 4.5.7 2.15 1.15 3.15 3.35 2.4 5.4-3.45 13.85-2.9 4.25-6.4 7.45-7.15 6.6-15.6 8.2-8.55 1.65-15.9-2.4-7.1-3.95-11.45-10.65-4.2-6.6-4.75-14.25"/><path fill="#4573ab" d="M55.5 193.9q.45 8.15 9.5 13.2 3.65 2 7.3 1.35l3.05-.95q4.35-1.9 8.15-6.5 3.05-3.65 3.7-6.05v-.2q0-1.75.9-3.15.85-1.45 2.4-2.1l1.3-.4q1.9-.35 3.6.6 1.7.9 2.5 2.65 1.85 4.15-2.4 11.1-3.05 4.9-7.1 8.65-6.75 6.15-14.3 7.45-7.55 1.25-14.55-2.65-8.15-4.5-12-11.25-3-5.1-3.3-11.15-.45-8.45 3.95-16.95 3.75-7.2 8.5-10.55 1.9-1.35 4.2-.95 2.3.4 3.65 2.3t.95 4.2q-.4 2.3-2.3 3.65-2.45 1.7-4.95 6.6-3.05 5.9-2.75 11.1"/><path fill="#0d131a" d="M39.3 63.95q-1.2-3.95.5-5.9 1.8-2.15 6.95-1 5.65 1.25 9.6 5.85Q66 74 67 87.45q.8 11.2-8.4 21.7-3.1 3.6-4.35 6.9-1.25 3.3-.35 5.75 1.15 3.05 5.8 5.4 4.65 2.3 12 3.4 2.9.45 4.6 2.8 1.75 2.3 1.3 5.2-.45 2.9-2.8 4.6-2.3 1.75-5.2 1.3-13.25-2.05-20.9-7.65-5.8-4.25-8-10.25-2.3-6.2-.4-13.1 1.9-6.85 7.7-13.55 4.25-4.95 3.75-11.6-.35-4.7-2.55-10.2-2.15-5.3-4.05-6.6-4.5-3.1-5.85-7.6"/><path fill="#4573ab" d="M64.35 87.4q.9 12-6.8 20.85-3.4 3.9-4.7 7.55-1.3 3.7-.25 6.5 1.25 3.4 6.2 5.95 4.95 2.55 12.7 3.75 2.35.4 3.7 2.25 1.4 1.95 1 4.15-.3 2.3-2.25 3.7-1.85 1.4-4.15 1-12.8-1.95-20.1-7.25-5.55-4-7.65-9.7-2.15-5.85-.35-12.4 1.8-6.5 7.35-12.9 4.65-5.25 4.1-12.6-.35-5.1-2.6-10.95-2.15-5.55-4.15-7.2-5.05-4.25-5.35-7.5-.05-1.45.8-2.45.9-1 2.55-1 2.1 0 4.6 1.4 2.5 1.4 4.5 3.7 10 11.55 10.85 23.15"/><path fill="#5084c4" d="M41.85 60.15q.9-1 2.55-1 2.1 0 4.6 1.4 2.5 1.4 4.5 3.7l4.15 5.4q-.15 8.75-5 15.05-.9-4.65-2.75-9-1.85-4.25-3.5-5.6-5.05-4.25-5.35-7.5-.05-1.45.8-2.45"/><path fill="#0d131a" d="M92.1 68.5q8.3 1.15 15.7 7.4L110 78q2.55 2.55 4.5 5.1 6.15 8.25 3.95 13.75-.9 2.25-2.95 3.45-2.1 1.25-4.5.9l-1.7-.45q-1.85-.75-3.05-2.4-1.15-1.7-1.25-3.8-2.3-7.05-9.05-10.15-6.45-3-11.2-.1-8.2 4.9-8.3 12.35-.1 4.85 2.8 10.15 2.4 4.4 4.6 5.85 2.45 1.6 3.05 4.4.65 2.85-.95 5.3-1.55 2.45-4.45 3.05-2.85.65-5.3-.95-6.85-4.45-10.9-11.4-3.95-6.8-4.3-14.4-.7-17.15 15.55-26.95 7.2-4.35 15.55-3.2"/><path fill="#4573ab" d="M83.7 82.9q-8.85 5.35-9 13.5-.05 5.25 3.2 11.05 2.7 4.75 5.2 6.35 1.95 1.3 2.45 3.55.5 2.3-.8 4.25-1.3 1.95-3.55 2.45-2.25.45-4.2-.8-4.9-3.15-8.9-10.2-4.75-8.35-4.65-16.8.1-6.05 2.85-11.3 3.65-6.9 11.6-11.7 6.85-4.1 14.45-3.15 7.6.95 14.55 6.85 4.2 3.55 7.4 8.35 4.55 6.75 2.85 11-.7 1.8-2.35 2.8-1.7.95-3.6.7l-1.35-.35q-1.55-.6-2.45-2-.95-1.4-1-3.1v-.15l-.05-.1q-.8-2.35-3.95-5.85-3.95-4.45-8.4-6.2-1.75-.65-3.05-.8-3.65-.5-7.25 1.65"/><path fill="#0d131a" d="M19.1 139.45q-9.45-2.5-12.85-6.1-2.55-2.7-1.3-5.25 1.4-2.85 8.75-3.35 7.3-.5 12.4 1.85 18.95 8.55 25.45 20.05 3.65 6.5 4.25 18.8l.05.8q.25 5.5.85 7.7.9 3.35 3.6 6.05 4.2 4.2 9.3 1.1 4.95-2.95 7.05-9.85 2.3-7.6-.35-16.4-.8-2.9.55-5.35 1.4-2.55 4.2-3.4 2.8-.8 5.35.6 2.6 1.4 3.4 4.15 4.2 14.15-.3 26.4-4 10.75-12.65 15.9-6.8 4.05-14.15 3.35-7.45-.75-12.95-6.2-5.15-5.1-7.05-11.85-1.15-3.9-1.5-11.15-.4-8.15-3.8-14.4-5.6-10.1-18.3-13.45"/><path fill="#4573ab" d="M25.05 128.9q18.6 7.95 25.05 18.7 3.7 6.25 4.3 17.9l.05.8q.3 5.6.9 7.95 1 3.8 3.95 6.7 2.4 2.4 5.25 2.75 2.9.35 5.8-1.4 5.3-3.15 7.55-10.45 2.5-8.1-.25-17.4-.6-2.25.45-4.3 1.1-2 3.35-2.7 2.2-.65 4.25.5 2.1 1.1 2.75 3.3 4.05 13.65-.25 25.4-3.8 10.35-12.1 15.3-6.25 3.75-12.9 2.95-6.65-.8-11.85-5.95-4.9-4.9-6.7-11.35-1.05-3.75-1.45-10.75-.35-8-4.25-14.8Q33 141.5 20 137.05l-1.75-.55-6.3-2.2q-4-1.75-4.7-3.45-.35-.75.05-1.65 1-1.95 7.15-2.05 6.2-.1 10.6 1.75"/><path fill="#5084c4" d="M35.55 147.15Q29.7 140.4 20 137.05l-1.75-.55-6.3-2.2q-4-1.75-4.7-3.45-.35-.75.05-1.65 1-1.95 7.15-2.05 6.2-.1 10.6 1.75 12.3 5.25 19.2 11.65-3.15 4.3-8.7 6.6"/><path fill="#4573ab" d="M18.25 136.5l-6.3-2.2q-4-1.75-4.7-3.45 12.05 3.65 15.4 5.05 9.8 4 15.65 9.9l-2.75 1.35Q29.7 140.4 20 137.05l-1.75-.55"/><path fill="#0d131a" d="M55 117.15q3.35-1.1 7.2-.9 3.85.15 6.3 1.55 1.95 1.1 2.35 2.7.95 4.15-10.1 9.75l-5.45 3.15q-5.8 3.7-7.4 6.3-5 8.2-3.35 15 .95 3.75 4.5 5.1 4.05 1.5 10.3 0 7.5-1.85 15.5-7.55 2.35-1.7 5.25-1.2 2.85.45 4.55 2.8 1.7 2.35 1.25 5.25-.5 2.85-2.85 4.55-15.15 10.85-27.9 11.6-11.2.65-18.35-6.35-6.65-6.55-7.35-17-.75-10.65 5.1-20.2 6-9.9 20.45-14.55"/><path fill="#4573ab" d="M67.8 119q1.4.75 1.65 1.85.4 1.6-2.85 3.8-1.9 1.3-6.6 3.7-1.45.8-2.95 1.55-3.95 2.05-5.9 3.45-3.25 2.35-5.1 5.35-2.35 3.85-3.05 8.1-.75 4.25.2 8.2 1.1 4.55 5.35 6.1 4.3 1.6 10.9.1 7.9-1.85 16.25-7.85 1.85-1.35 4.15-.95 2.3.35 3.7 2.25 1.35 1.9.95 4.2-.35 2.3-2.25 3.65-9.95 7.15-19.95 9.6-9.95 2.4-17.65-.45-4.75-1.75-7.95-5.35-3.2-3.6-4.4-8.6-1.55-6.15-.45-12.65t4.6-12.25q3.55-5.7 9.25-9.6 4.4-3 9.7-4.7 3.1-1 6.65-.85 3.6.1 5.75 1.35"/><path fill="#0d131a" d="M77.2 145.55q1.05-2.4 3.5-3.3l4.85.15q2.4 1.1 3.3 3.55.95 2.45-.15 4.8l-.45 1q-6.35 14-7.6 22.55-1.75 12.05 5.65 16.5 4.85 2.9 8.9 2.1 2.65-.5 8.8-4.05 5.65-3.35 9.25-4.65 5.95-2.2 11.85-1.55 2.6.3 4.25 2.35 1.65 2.05 1.35 4.65-.3 2.6-2.35 4.25-1.95 1.6-4.6 1.35-3.25-.35-6.75 1.05-2.25.9-6.65 3.45-8.05 4.75-13.1 5.65-8.6 1.6-17.5-3.75-14.2-8.55-11.7-28.25 1.35-10.7 8.7-26.9l.45-.95"/><path fill="#4573ab" d="M78.45 146.1q.85-1.85 2.75-2.55l3.8.1q1.85.85 2.55 2.75.75 1.9-.1 3.75l-.45 1q-6.6 14.5-7.8 23.45-1.65 12.6 6.35 17.4 5.3 3.2 9.95 2.3 2.9-.6 9.2-4.25 5.65-3.25 8.95-4.5 5.7-2.1 11.3-1.5 1.95.25 3.3 1.8 1.3 1.7 1.05 3.65-.2 1.95-1.8 3.3-1.65 1.25-3.6 1.05-3.55-.35-7.25 1.1-2.35.9-7 3.6-7.75 4.5-12.55 5.4-8.15 1.55-16.6-3.5-13.55-8.1-11-27.2 1.35-10.35 8.5-26.15l.45-1"/><path fill="#0d131a" d="M78.15 116.9q-11.95-3.6-21-.65-8.45 2.8-7.95 8.45.55 6.55 7.15 12.45 6.65 6 13 5.4 3.55-.4 5.45 1.1 1.9 1.55 2.25 5.2.3 3-1.75 5.35-2 2.2-4.6 2.3-17.6.55-28.45-10.45-9.85-9.95-9.15-22.95.75-13.45 12.55-19.55 13.65-7.05 36.6-.1 2.75.85 4.15 3.4 1.35 2.45.55 5.35-.85 2.8-3.45 4.15-2.55 1.4-5.35.55"/><path fill="#5084c4" d="M59.9 102.15q10.2-.9 21.9 2.65 2.25.6 3.35 2.7 1.05 2.05.45 4.3-.7 2.25-2.75 3.3-2 1.15-4.25.45-9.8-2.95-17.9-2.15-6.75.7-10.3 3.6-3.55 2.85-3.1 7.5.35 4.05 2.45 7.85 2.05 3.8 5.5 6.65 3.25 2.7 7 4 3.7 1.3 7.25.95 2.3-.25 4.1 1.25 1.8 1.45 2.05 3.8.25 2.3-1.25 4.1-1.45 1.75-3.8 2-5.8.55-11.65-1.4-5.9-1.95-10.85-6.05-5.15-4.25-8.3-10.1-3.15-5.8-3.7-12.1-.45-5.1 1.4-9.55 1.85-4.4 5.8-7.65 6.4-5.2 16.6-6.1"/><path fill="#4573ab" d="M39.8 137.55q-3.15-5.8-3.7-12.1v-.2q2.8 9.4 12.85 17.3 12.25 9.6 26.65 7.7-.2 1.6-1.2 2.85-1.45 1.75-3.8 2-5.8.55-11.65-1.4-5.9-1.95-10.85-6.05-5.15-4.25-8.3-10.1"/><path fill="#0d131a" d="M174.75 70.4q13.35 5.35 23.7 15.05 10.35 9.7 16 22.3 5.9 13 5.9 27.25 0 14.2-5.9 27.25-5.65 12.55-16 22.25t-23.7 15.05q-13.85 5.5-29 5.5t-29-5.5Q103.35 194.2 93 184.5q-10.3-9.7-16-22.25-5.85-13.05-5.85-27.25 0-14.25 5.85-27.25 5.7-12.6 16-22.3 10.35-9.7 23.75-15.05 13.85-5.5 29-5.5t29 5.5"/><path fill="#0d131a" d="M217.35 135q0 13.6-5.65 26.05-5.4 12.05-15.35 21.35-21 19.65-50.6 19.65T95.1 182.4q-9.9-9.3-15.35-21.35Q74.1 148.6 74.1 135q0-13.65 5.65-26.1Q85.2 96.85 95.1 87.6q21-19.7 50.65-19.7 29.6 0 50.6 19.7 9.95 9.25 15.35 21.3 5.65 12.45 5.65 26.1"/><path fill="#0d131a" d="M83.1 135.6q0-9.85 6.15-16.8 6.15-6.95 14.9-6.95 8.7 0 14.9 6.95 6.15 7 6.15 16.8t-6.15 16.75q-6.2 6.95-14.9 6.95-8.75 0-14.9-6.95-6.15-6.9-6.15-16.75"/><path fill="#fff" d="M118.85 120.95q5.3 6.05 5.3 14.65 0 8.6-5.3 14.65-5.3 6.1-12.75 6.1-7.5 0-12.8-6.1Q88 144.2 88 135.6q0-8.6 5.3-14.65 5.3-6.1 12.8-6.1 7.45 0 12.75 6.1"/><path fill="#0d131a" d="M175.8 115.35q7.05 7.65 7.05 18.4 0 10.75-7.05 18.35-7.1 7.65-17.1 7.65-9.95 0-17.05-7.65-7.1-7.6-7.1-18.35 0-10.75 7.1-18.4 7.05-7.6 17.05-7.6t17.1 7.6"/><path fill="#fff" d="M177.3 133.75q0 9.55-6.2 16.25-6.2 6.75-15 6.75-8.75 0-14.95-6.75-6.2-6.75-6.2-16.25t6.2-16.3q6.2-6.75 14.95-6.75t15 6.75q6.2 6.75 6.2 16.3"/><path fill="#0d131a" d="M158.25 134.45q0 1.8-1.25 3.05-1.3 1.25-3.1 1.25t-3.05-1.25q-1.3-1.25-1.3-3.05 0-1.8 1.3-3.05 1.25-1.3 3.05-1.3 1.8 0 3.1 1.3 1.25 1.25 1.25 3.05m-47.5 2.8q0 1.8-1.2 3.05-1.2 1.25-2.9 1.25t-2.9-1.25q-1.2-1.25-1.2-3.05 0-1.8 1.2-3.05 1.2-1.3 2.9-1.3t2.9 1.3q1.2 1.25 1.2 3.05m-79.65 34.4q-3.35 4.45-6.25 5.75-2.6 1.15-4.1-.5-2.2-2.35-.5-9.5 1.7-7.3 5.65-11.55 5.3-5.7 12.8-8.4 7.35-2.65 15.05-1.8Q71.2 147.7 79 164.55q3.55 7.75 1.65 15.95-1.9 8.25-8.85 14.8-2.35 2.25-9.75-3-2.9-2.1-4.25-3.95-1.5-2.1-.1-2.75 5.65-2.7 7.55-6.2l1.05-2.6.25-2.2q0-2-1-4.25-4-8.75-11.35-9.65-6-.75-12.85 2.65-6.45 3.2-10.25 8.3"/><path fill="#5084c4" d="M22.1 175.3q-1.55-1.65-.05-6.95 1.55-5.7 5.35-9.75 5.35-5.75 12.55-8.45 6.95-2.6 14.15-1.85 16 1.7 22.95 16.75 3.35 7.25 1.55 14.7-1.85 7.45-8.5 13.7-2.3 2.15-7.85-1.75-2.25-1.55-3.15-3.05-.95-1.65.35-2.35 5.2-2.8 7.05-6.25l1.15-2.95q.9-3.6-.85-7.35-4.3-9.4-12.4-10.45-5.1-.65-11.75 1.65-5.25 1.85-8 3.95-1.7 1.3-5.2 5.85l-2.95 3.7q-1.6 1.7-2.7 1.75-.95 0-1.7-.9"/><path fill="#4573ab" d="M34.65 164.9q-1.8 1.3-4.8 5.35 3.65-6.1 9.05-10.1 6.4-4.75 13.25-4.75l10.95.9q6.9.95 12.25 2.3 2 2.5 3.65 5.95 3 6.5.75 14-2 6.85-7.95 13.2l-11.1-1.25q-1.45-1.35-1.85-2.45-.45-1.2.6-1.75 5.2-2.8 7.05-6.25l1.15-2.95q.9-3.6-.85-7.35-4.3-9.4-12.4-10.45-5.1-.65-11.75 1.65-5.25 1.85-8 3.95"/><path fill="#0d131a" d="M246.7 91.05q9.65 2.45 16.9.4 2.15-.7 5.95-1 5.05-.45 7.2.7 1.1.6 1.3 1.65.8 2.85-3.9 6.55-4.3 3.4-9.5 4.85-12.25 3.5-25.55-.8-15.75-5.1-26.55-19.8-6.8-9.25-20.35-10.9-9.35-1.15-20.8 1.35l-.65.15q-2.8.6-5.25-.95-2.45-1.6-3.05-4.4-.65-2.85.95-5.3 1.6-2.45 4.45-3.1l.5-.1q18.55-4.1 32.85-.25 14.35 3.9 22.65 15.2 9 12.25 22.85 15.75"/><path fill="#4573ab" d="M273.1 98.1q-4 2.75-8.85 4.15-12 3.45-24.75-.5-15.35-4.7-25.85-18.95-7.1-9.65-21.05-11.45-9.7-1.25-21.5 1.35l-.65.15q-2.25.5-4.2-.8-1.95-1.25-2.45-3.5-.45-2.35.8-4.25 1.3-2 3.55-2.45l.5-.15q18.1-3.95 32.05-.25 13.95 3.7 22 14.65 9.35 12.7 23.65 16.55 10.15 2.75 17.5.7 3.3-.95 6.55-1.35 4.1-.45 5.65.4.6.35.65.75.6 2-3.6 4.95"/><path fill="#0d131a" d="M187.45 183.3l-.25-1.05q-.55-2.55.85-4.75 1.45-2.2 4-2.75 2.55-.55 4.75.85 2.25 1.4 2.75 3.95l.25 1.05q3.25 14.95 7.4 22.5 5.8 10.55 14.4 9.65 5.65-.55 8.4-3.45 1.9-2 4.6-8.35 2.1-4.95 4.6-8.6 3.5-5.1 8.55-8.95 4.15-3.15 9.25-3.7 4.85-.5 6.95 1.55 1.45 1.45 1.3 3.05-.15 1.8-2.4 3.75l-4.65 3.4-3.85 2.7q-2.5 2.2-4.45 5.3-1.6 2.6-3.4 6.9-3.7 8.7-7.2 12.55-6.05 6.6-16.4 7.65-16.5 1.65-26.3-16.05-5.25-9.45-9.15-27.2"/><path fill="#4573ab" d="M198.45 180.9q3.4 15.55 7.8 23.45 6.2 11.1 15.5 10.15 6.1-.65 9.3-4.15 2-2.2 4.85-8.85 4.45-10.7 12.7-17 3.8-2.9 8.45-3.4 4.25-.45 5.9 1.15 1 1 .9 1.95-.15 1.3-2.2 3.05l-4.25 3q-3.05 2.05-3.95 2.85-2.8 2.4-4.8 5.25-1.95 2.85-3.7 6.95-3.5 8.25-6.8 11.85-5.6 6.1-15.4 7.1-15.7 1.6-25.1-15.2-5.1-9.1-8.85-26.05l-.2-1.05q-.45-2 .65-3.7 1.1-1.7 3.1-2.15 2-.45 3.7.65 1.7 1.1 2.15 3.1l.25 1.05"/><path fill="#0d131a" d="M207.3 139.2q.7-2.8 3.25-4.3 2.6-1.5 5.5-.8l1.6.35q19.25 4.4 29.3 14.05 10.2 9.75 14.35 28.1 2.05 9.15-3.6 17.1-2.3 3.25-4.85 4.45-2.65 1.25-4.25-.3-1.05-1-1.05-3.35 0-1.5.7-5.8t.7-6.25l-.25-2.15q-4.35-15.55-14.5-23.55-7.4-5.8-19.65-8.6l-2.3-.55q-2.3-.55-3.75-2.4-1.4-1.85-1.4-4.25l.2-1.75"/><path fill="#4573ab" d="M217.3 135.85q18.7 4.2 27.85 13.15 9.15 8.9 13.25 26.85.65 3.1-.25 8.5-1 5.95-3.3 9.5-1.75 2.75-3.85 3.2l-1.45-.2q-.7-.65-.55-3.1l.65-4.8.65-4.9q.2-2.6-.25-4.1-4.5-16.05-14.95-24.3-7.6-6-20.25-8.85l-2.3-.55q-2.2-.55-3.3-2.45-1.1-1.95-.55-4.25.55-2.2 2.6-3.45 2.1-1.2 4.4-.65l1.6.4"/><path fill="#0d131a" d="M15.4 193.35q1.8-3.6 5.55-6.65 9.6-7.7 26-7.65 11.45.05 21.1 6.25 8.95 5.75 18.4 18.25l1 1.3 4.4 4.05 6.55 6q2.55 2.75 2.55 4.2v.05q-.05.8-.65 1.3-2.25 1.75-12.15-1.3-9.6-2.95-11.45-5.25-10.15-14.9-25.8-19.25-15.6-4.3-28.2 4.15l-3.8 2.4q-1.85.85-2.95.4-1.2-.5-1.65-2.4-.55-2.55 1.1-5.85"/><path fill="#4573ab" d="M28.5 184.75q8.25-3.55 19.85-3.35 10.85.2 19.75 5.85 8.35 5.35 17.25 17.15l1 1.3 4.55 4.25q8.65 7.45 8.65 9.2l-.1.15q-1.7 1.3-11-1.55-9.15-2.8-10.65-4.75-9.05-15.6-23.7-20.55-16.25-5.5-32.15 5.2l-3.25 2.05q-1.6.85-2.25.6-.55-.25-.75-1.4-.5-2.05 1.3-4.85 3.9-6 11.5-9.3"/><path fill="#5084c4" d="M17 194.05q3.9-6 11.5-9.3 8.25-3.55 19.85-3.35 10.85.2 19.75 5.85 8.35 5.35 17.25 17.15l1 1.3 4.55 4.25q8.65 7.45 8.65 9.2l-.1.15q-1.65 1.3-10.7-1.45-3.65-7.9-9.25-14.5-9.15-10.75-20.85-14.25-14.95-4.45-25.75-.65-8.2 2.85-16.45 11.85-.55-.25-.75-1.4-.5-2.05 1.3-4.85"/><path fill="#0d131a" d="M79 163.1q-9.1 2-12.9 9.1-3.55 6.6-.1 11.55 1.5 2.15 5.8 2.65 3.1.35 10.75-.15 10.9-.65 16.4.25 9.55 1.55 15.35 7.7 1.8 1.95 4.95 7.15 4.7 8.05 8 10.4 4.7 3.3 12.4 1.35 5.65-1.45 7.2-5.45.65-1.8.65-4.25 0-3.45-1.25-7.6-1.05-3.5-2.1-5l.05-.1q-1.45-2-1.45-4.2 0-3.2 2.35-5.25 2.2-1.9 5-1.8 2.8.1 4.65 2.15 2.95 3.2 5.25 11.15 2.9 10.15.5 18.25-1.55 5.35-5.15 9.45-4.9 5.5-12.55 7.45-14.25 3.65-24.25-4.5-5.05-4.1-11.45-14.9-2.1-3.65-3-4.65-2.85-2.95-9.05-3.35l-12.1.45q-12.05.7-16.3.1-9.15-1.3-13.65-7.7-9.45-13.6-2-28 3.25-6.3 9.25-10.85 6.1-4.6 13.5-6.2L79 163.1"/><path fill="#4573ab" d="M166.6 194.55q-5.1 11.6-6.35 15.8-1.35 4.65-5.3 8.45-4.8 4.65-12.2 6.55-13.65 3.5-23.3-3.75-5.4-4.05-11.1-13.8-2.3-3.9-3.25-4.9-3.15-3.35-9.35-4.1-3.75-.45-12.4.05-10.95.65-15.5-.05-8.6-1.35-12.8-7.4-7.85-11.35-2.1-24.35 5.75-13 20.15-16.5.6 3.9 3.85 11.15-4.35 1.2-8 3.8-4.1 2.95-5.55 6.6-.95 2.4-.95 4.95 0 6.5 3.2 8.95 4.35 3.35 16.85 2.6 11.9-.7 15.95-.25 9.35 1.05 14.85 6.85 1.75 1.9 4.7 6.85 4.85 8.25 8.6 10.85 5.2 3.6 13.4 1.55 6.4-1.6 8.15-6.3 1.7-5.8 3.65-11.15 3.8-10.55 6.7-12.75 1.8-1.4 5.15-.9 3.2.5 4.8 2.2 1.4 1.55-1.85 9"/><path fill="#5084c4" d="M75.3 157.6q-7.45 4.15-12.6 9.85-7.7 8.5-9.9 19.9-4.95-11.05 1.15-22.3 6.15-11.35 19.15-14.5.45 2.7 2.2 7.05"/><path fill="#0d131a" d="M215.75 165.75q1.4 2.6.55 5.35-2.65 8.8-.35 16.4 2.1 6.9 7.05 9.85 5.1 3.1 9.35-1.1 2.7-2.7 3.55-6.05.6-2.15.85-7.7.6-11.7 4.45-18.1 6.55-10.9 25.8-20.55 5-2.5 11-2.85 6.15-.35 7.2 2.05 1.2 2.55-2.05 5.65-3.05 2.9-9 5.4-8.85 3.75-15.8 12.25-7.15 8.75-7.55 16.85-.35 7.2-1.5 11.1-1.9 6.75-7.05 11.9-5.55 5.5-12.8 6.35-7.25.85-14-3.15-8.65-5.15-12.45-15.9-4.35-12.2-.15-26.4.85-2.8 3.4-4.15 2.55-1.4 5.3-.6 2.8.85 4.2 3.4"/><path fill="#4573ab" d="M242.45 165.05q6.4-10.55 25.15-19.95 2.3-1.15 7.15-1.95 5.25-.85 7.55-.05.8.3 1 .75 1 2.25-3.05 5.2l-6.7 3.8q-10.35 5-16.7 12.5-7 8.25-7.45 17.75-.8 16.65-11.4 24.1-10.3 7.25-21.5.55-8.3-4.95-12.05-15.05-4.3-11.6-.3-25.2.7-2.2 2.75-3.3 2.05-1.15 4.25-.5 2.25.7 3.35 2.75 1.15 2.05.45 4.25-2.75 9.3-.25 17.4 2.25 7.3 7.55 10.45 2.95 1.75 5.8 1.4 2.85-.35 5.25-2.75 2.95-2.9 3.95-6.7.6-2.35.9-7.95.55-11.25 4.3-17.5"/><path fill="#0d131a" d="M233.95 180.4q-2.35-1.7-2.85-4.55-.45-2.9 1.25-5.25t4.55-2.85q2.9-.5 5.25 1.2 8.8 6.35 18.1 7.45 9.9 1.2 11.45-5.15 1.65-6.85-1.6-13.1-3.3-6.35-10.8-10.3l-2.9-1.5q-5.45-2.75-7.45-4.25-3.35-2.5-2.8-4.85.35-1.55 2.35-2.75 2.45-1.35 6.3-1.5 3.85-.2 7.2.9 15 4.85 21.75 15.85 6.85 11.15 3.35 25.4-3.7 15-18.9 16.8-15.55 1.85-34.25-11.55"/><path fill="#5084c4" d="M241.3 170.1q8.35 5.95 16.25 7.8 6.6 1.55 10.9-.05 4.25-1.55 5.35-6.1 1-3.95.25-8.25-.75-4.25-3.1-8.1-1.8-2.95-5.1-5.3-1.8-1.3-5.9-3.5l-2.95-1.5q-4.85-2.5-6.6-3.7-3.25-2.25-2.85-3.85.25-1.05 1.65-1.8 2.2-1.25 5.75-1.4 3.55-.15 6.65.85 12.7 4.15 18.95 14.35 3.5 5.75 4.6 12.25 1.1 6.5-.45 12.6-1.2 5-4.4 8.65-3.2 3.6-7.95 5.35-7.7 2.85-17.65.4-9.95-2.4-19.95-9.55-1.9-1.35-2.25-3.65-.4-2.35.95-4.2 1.35-1.9 3.65-2.25 2.35-.4 4.2.95"/><path fill="#4573ab" d="M234.75 179.25q-1.75-1.25-2.2-3.35-.4-2.1.6-3.95 20.65 14.7 36.15 11.7 11.65-2.25 16-12.15l-.6 2.9q-1.2 5-4.4 8.65-3.2 3.6-7.95 5.35-7.7 2.85-17.65.4-9.95-2.4-19.95-9.55"/><path fill="#0d131a" d="M251.85 73.75q2.3-2.7 6.25-4.6 3.8-1.8 6.7-1.8 2.2.1 3.15 1.25 2.5 2.9-4 10.85l-1.85 2.35q-2.05 2.85-3.9 7.45-2.15 5.4-2.45 9.85-.5 6.4 3.95 11.55 5.7 6.55 7.35 13.55 1.55 6.7-.8 13.1-2.25 6-8 10.2-7.65 5.6-20.9 7.65-2.9.45-5.2-1.3-2.35-1.7-2.8-4.55-.45-2.85 1.3-5.25 1.7-2.35 4.6-2.8 7.35-1.1 12-3.4 4.7-2.35 5.8-5.4.9-2.45-.35-5.75-1.2-3.3-4.35-6.9-4.05-4.65-6.05-10.2-2.1-5.85-1.65-11.9.85-12 11.2-23.95"/><path fill="#5084c4" d="M266.9 69.5l.3.95q0 1.35-1.65 3.85l-3.2 4.15-1.9 2.4q-2.15 3-4.05 7.75-2.25 5.65-2.6 10.3l-.05 1.45q0 6.4 4.15 11.15 8.2 9.4 8.2 18.75 0 3.4-1.2 6.55-2.1 5.7-7.65 9.7-7.3 5.3-20.1 7.25-2.3.4-4.15-1-1.85-1.35-2.25-3.7-.4-2.2 1-4.15 1.35-1.85 3.7-2.25 7.75-1.2 12.7-3.75 4.95-2.55 6.2-5.95 1.05-2.8-.25-6.5-1.3-3.65-4.7-7.55-7.7-8.85-6.8-20.85.85-11.6 10.85-23.15 2.2-2.55 5.55-4.35 3.3-1.8 5.8-1.75 1.5 0 2.1.7"/><path fill="#0d131a" d="M228.7 127.45q-2.8.85-5.35-.5-2.55-1.4-3.4-4.2-.85-2.75.55-5.35 1.3-2.55 4.15-3.4 16.4-4.95 28.95-2 11.4 2.65 16.75 10.9 5.15 8 2.7 17.95-2.6 10.5-12.95 19.1-5.2 4.3-11.15 6.35-6.05 2.05-12.05 1.45-1.35-.1-3-1.1-1.55-.95-2.5-2.1-1.85-2.25-1.55-5.15.25-2.85 2.5-4.75 2.35-1.85 5.15-1.55 3.25.3 6.7-.9t6.5-3.7q3.25-2.65 5.2-6.2 1.95-3.55 2.3-7.35.3-3.9-2.6-6.3-3.35-2.7-9.75-3.3-7.7-.75-17.15 2.1"/><path fill="#4573ab" d="M221.3 122.35q-.7-2.2.4-4.25 1.05-2.05 3.35-2.75 11.75-3.5 21.95-2.6 10.2.95 16.55 6.1 3.95 3.2 5.8 7.65 1.9 4.4 1.45 9.55-.55 6.3-3.7 12.1-3.15 5.8-8.3 10.1-4.95 4.1-10.85 6.05-5.9 1.95-11.65 1.4-2.35-.25-3.8-2.05-1.5-1.8-1.25-4.1.15-2.25 2-3.8 1.8-1.5 4.1-1.25 3.55.35 7.3-.95 3.7-1.3 6.95-3.95 3.45-2.9 5.55-6.7 2.1-3.8 2.45-7.85.4-4.7-3.1-7.5-3.6-2.9-10.35-3.55-8.05-.85-17.85 2.1-2.2.7-4.25-.4-2.1-1.1-2.75-3.35"/><path fill="#5084c4" d="M221.45 122.75l-.15-.4q-.7-2.2.4-4.25 1.05-2.05 3.35-2.75 11.75-3.5 21.95-2.6 10.2.95 16.55 6.1 3.95 3.2 5.8 7.65 1.9 4.4 1.45 9.55-.5 5.6-3.05 10.8-2.55 5.25-6.75 9.35 5.4-8.2 6.2-15.35.8-7.4-3.55-12.25-10-11.25-42.2-5.85"/><path fill="#0d131a" d="M234.05 103.65q2.9-.25 5.15 1.7 4.05 3.5 7.2 9.65 3.55 7 4.05 14.4.9 12.65-7.15 21.85-3.15 3.6-4.35 6.9-1.25 3.3-.35 5.75 1.05 2.95 6 4.95 4.4 1.8 12.25 3.05 3.1.45 8.1 3.35 5.85 3.45 5.4 6.3-.45 3-6.3 4.35l-10.65.5q-13.85-1.55-22.45-9.55-7.7-7.2-7.7-15.6 0-9.3 9.1-19.75 2.05-2.35 3-4.45 1.15-2.5 1.15-5.25l-.05-1.35q-.35-4.45-2.5-8.9-1.9-3.8-3.9-5.55-2.2-1.85-2.45-4.8v-.55q0-2.6 1.65-4.55 2-2.2 4.8-2.45"/><path fill="#4573ab" d="M238.25 106.4q3.9 3.3 6.9 9.25 3.35 6.75 3.9 13.85.9 11.9-6.8 20.85-3.4 3.85-4.7 7.55-1.3 3.65-.25 6.45 1.25 3.45 6.2 6t12.7 3.75q3.3.5 7.95 2.85 5.1 2.55 4.8 4.35-.25 1.9-4.85 2.8-4.6.9-10.65.2-21.75-2.55-26.75-16.05-2.15-5.9-.3-12.4 1.8-6.5 7.35-12.9 4.6-5.4 4.1-12.6-.35-4.75-2.7-9.5-2-4.05-4.2-5.9-1.8-1.55-1.95-3.85-.15-2.35 1.35-4.1 1.4-1.7 3.85-1.95 2.3-.15 4.05 1.35"/><path fill="#5084c4" d="M268.95 181.3q-.2 1.5-3.4 2.45-3.15.9-7.8.8-5.5-2.6-9.15-5.85-4.7-4.1-5.75-8.7 5 2.8 13.35 4.1 3.3.5 7.95 2.85 5.1 2.55 4.8 4.35"/><path fill="#0d131a" d="M212.35 14.8q1.25-.3 2.75.65 5.7 3.75 6.95 11.95 1.4 9.25-4.65 17.8-3.5 4.9-9.2 8.4-7.5 4.6-17.65 5.9-7.55.95-14.9 4.25-6.5 2.95-7.75 5.15l-.7 1.15-.55-1.15-3.25-6.65q-1.8-3.5-2.6-3.55-.15 0-.2.1l-.3.4-1.15-.75.05-.15q2.8-4.75 8-7.75 7.6-4.45 21.5-6.25 10.7-1.35 16.75-8.25 5.95-6.8 4.8-16.05-.3-2.35-.05-3.3.4-1.55 2.15-1.9"/><path fill="#4573ab" d="M211.65 19.8l-.2-2q0-.8.25-1.15.25-.35.9-.5.8-.15 1.7.5 1.75 1.15 3.6 4.35 1.65 2.9 2.1 5.15l.45 4.1q0 7.45-4.65 14.05-3.3 4.65-8.65 7.85-7 4.2-16.85 5.45-7 .9-13.65 3.55-6.2 2.45-8.6 5-4.1-7.7-6.6-8.65 2.75-3.75 8.1-6.2 7.05-3.3 19.3-4.85 12.75-1.6 17.8-8.7 3.8-5.35 5-11.85l.25-2.65-.25-3.45"/><path fill="#5084c4" d="M214.3 16.65q1.75 1.15 3.6 4.35 1.65 2.9 2.1 5.15l.45 4.1q0 4.1-1.6 8.3-5.3 6.3-11.15 8.75-7.25 3.05-10.55-2.8 6.35-2.35 9.5-6.75 3.8-5.35 5-11.85l.25-2.65-.25-3.45-.2-2q0-.8.25-1.15.25-.35.9-.5.8-.15 1.7.5"/><path fill="#0d131a" d="M211.75 110.65q7.6 3.85 17.05 14.4 8.2 9.1 16.25 9.2l5.55-.6q2.65-.65 3.6-1.6 2.45-2.6 5.85-4.1 4.15-1.85 6.15.05 2.05 1.95 1.35 5.55-.65 3.55-3.65 7.05-7.45 8.7-19.85 8.5-5.55-.1-11.45-3.1-7.2-3.75-14.25-11.55-5.15-5.75-11.45-9.7-5.75-3.6-8.2-3.4l-1.3.1.6-1.15q1.85-3.35 3-6.35 1.2-3.3.75-4.1l-.25-.1h-.45l-.05-1.4h.15q5.25-.45 10.6 2.3"/><path fill="#4573ab" d="M208.75 124.3q-5.6-3.7-9-4.2 3.5-6.7 3.5-9.65l-.15-.75q4.6.15 9.7 3.15 6.7 3.95 15 13.15 8.6 9.55 17.2 9.65l5.9-.6q3.1-.7 4.3-2 2.15-2.25 5.15-3.65 3.5-1.7 4.9-.4.7.7.7 2.05.05 2.05-1.2 4.85-1.15 2.7-2.55 4.2-3.15 3.25-7.75 5.05-4.6 1.85-9.6 1.75-5.7-.05-11.35-2.6-7.4-3.35-14.1-10.8-4.7-5.25-10.65-9.2"/><path fill="#0d131a" d="M245.45 74.55q7.7 3.15 13.35 10.15 5.9 7.35 5.55 16.15-.3 7.55-5.05 14.9-4.2 6.55-10.2 10.5-5.9 3.85-9.9 2.85-2.35-.6-3.85-2.5-1.45-1.9-1.45-4.3l.2-1.7q.2-.8 2.5-3.05l4.95-4.85q6.95-7.35 6.95-12.95 0-4.7-5.4-9-5.15-4.15-9.15-3.65-4.8.55-9.75 4.3-4.1 3.1-5.3 5.55-1.25 2.65-3.95 3.6l-5.4-.25q-2.6-1.25-3.6-4-1-2.7.25-5.35 3.7-7.85 10.3-12.7 6.3-4.65 13.95-5.65 7.75-1 15 1.95"/><path fill="#5084c4" d="M257.15 85.75q5 6.2 5.05 13.9.05 7.65-4.85 15.35-2.95 4.6-7.25 8.45-6.1 5.4-10.55 4.3-1.85-.5-3.05-2-1.2-1.55-1.2-3.45l.15-1.4q.4-1.6 1.65-2.7 1.3-1.15 3-1.4h.1l.05-.05q2.25-1.1 5.35-4.7 3.85-4.5 5-9.15.4-1.75.4-3.15 0-3.7-2.6-6.95-6.55-8.05-14.65-7.1-5.2.65-10.45 4.65-4.4 3.3-5.65 6-.95 2.1-3.2 2.9l-4.3-.25q-2.1-.95-2.9-3.15-.75-2.2.2-4.3 2.5-5.3 9-10.2 7.6-5.8 16-6.8 6-.75 11.55 1.3 7.3 2.7 13.15 9.9"/><path fill="#4573ab" d="M233.75 85.7q-5.2.65-10.45 4.65-4.4 3.3-5.65 6-.95 2.1-3.2 2.9l-4.3-.25q-2.1-.95-2.9-3.15-.75-2.2.2-4.3 1.65-3.45 5.4-7.15 4.25-4.15 9.45-6.75 17.45 3.05 23.95 9.35 4.6 4.4 4.75 12.3-.15-3.45-2.6-6.5-6.55-8.05-14.65-7.1m5.8 42.05q-1.85-.5-3.05-2-1.2-1.55-1.2-3.45l.15-1.4q.4-1.6 1.65-2.7 1.3-1.15 3-1.4h.1l.05-.05q2.35-1.1 5.65-5.1.95.9 3.15 1.05 2.45.15 4.9-.75 6.55-2.5 8.2-10.7-.45 6.85-4.8 13.75-2.95 4.6-7.25 8.45-6.1 5.4-10.55 4.3"/><path fill="#0d131a" d="M229 172.2l2.1 4.15q5.8 11.85 11.5 16.45 9.4 7.55 26.05 6.1 9.05-.8 13.2 0 3.75.7 4 2.85.4 3.65-3.75 7-4.75 3.9-12.9 4.35-18.7 1.05-30.9-6.8-11.8-7.6-20.8-25.75l-.75-1.5q-1.35-2.65-.45-5.5.85-2.85 3.4-4.15 2.65-1.35 5.3-.55 2.7.8 4 3.35"/><path fill="#5084c4" d="M229.85 176.95q5.95 12.25 11.65 17 9.8 8.15 27 6.65l1.1-.1 10.25-.55q4.4.15 4.6 1.95.15 1.75-1.45 3.65-1.45 1.7-3.95 2.95-3.85 1.9-9.35 2.2-18.5 1-30.4-6.15-11.95-7.2-20.55-24.65l-.75-1.45q-1.1-2.15-.4-4.45.7-2.35 2.75-3.35 2.1-1.1 4.25-.5 2.1.65 3.15 2.65l2.1 4.15"/><path fill="#4573ab" d="M227.75 172.8l2.1 4.15q2.8 5.75 4.75 8.9 2.95 10.3 14.3 17.2 9.25 5.6 16.3 5.6l9.7-.7q5-.85 8.5-2.95l-.4.55q-1.45 1.7-3.95 2.95-3.85 1.9-9.35 2.2-18.5 1-30.4-6.15-11.95-7.2-20.55-24.65l-.75-1.45q-1.1-2.15-.4-4.45.7-2.35 2.75-3.35 2.1-1.1 4.25-.5 2.1.65 3.15 2.65"/><path fill="#0d131a" d="M118.05 72.65q-2.8-.2-4.65-2.35l-1.55-1.8q-8.15-9.8-17.05-13.6-12.55-5.3-27.85.15-5 1.75-8.25 1.1-3.4-.65-4.55-3.85-1-2.85 2.3-6.8 3.25-3.95 8.2-5.95 16.3-6.5 30.75-1.6 14.25 4.8 27.75 21.1l1.05 1.25q1.9 2.2 1.5 5.5-.4 3.25-2.6 5.1-2.25 1.9-5.05 1.75"/><path fill="#4573ab" d="M95.2 52.95q-13.15-6.1-28.95-.45-3 1.1-5.8 1.1-3.25-.05-3.85-1.8-.75-2.15 1.45-4.9 2.4-3 6.95-4.8 15.95-6.35 29.75-1.9 13.8 4.5 26.85 20.25l1.05 1.25q1.4 1.6 1.4 3.9 0 2.6-1.85 4.2-1.85 1.55-4.05 1.45-2.25-.1-3.7-1.85l-1.55-1.8q-8.65-10.5-17.7-14.65"/><path fill="#5084c4" d="M84.85 38.4q9.5.45 18.35 5.65-.15 5.85-4.55 10.7-14.5-8.65-32.4-2.25-3 1.1-5.8 1.1-3.25-.05-3.85-1.8-.75-2.15 1.45-4.9 2.4-3 6.95-4.8 10.45-4.2 19.85-3.7"/><path fill="#4573ab" d="M100.4 52.55l-1.75 2.2q-14.5-8.65-32.4-2.25-2.7.95-5.25 1.05-3 .1-4.05-1.15 10.25-4.65 19.75-6.6 11.45-2.35 18.05.2 4.6 1.8 5.65 6.55"/><path fill="#0d131a" d="M69.55 184.1q-12.25 2.45-18.05 13.5-6.25 11.9-16 17.05-8.3 4.4-17.45 3.2Q9.8 216.8 4.45 212T.2 201.8q1.4-7.1 13.9-1.2 14.8 7.1 24.05-10.5 7.95-16.3 25.65-20.95 15.1-4 28.45 1.5 2.75.7 4.35 3.2 1 1.7 1 3.6l-.2 1.75q-.8 2.9-3.2 4.3-1.6.95-2.65 1.3l-2.8.25q-10.6-2.65-19.2-.95"/><path fill="#5084c4" d="M49.85 195.8Q44 206.9 35 211.85q-7.65 4.2-16.2 3.45-7.55-.7-12.65-4.7-5-3.95-4.1-8.35.35-1.75 1.55-2.35 1.55-.8 4.85.3 1.8.6 5.15 2.25l2.2 1.05q6.15 2.4 11.1.65 7.15-2.5 13-13.6 8.65-16.4 26.8-19.75 11.7-2.15 25.25 1.2 2.25.6 3.45 2.6 1.2 2.05.6 4.25-.55 2.2-2.55 3.45-2.05 1.2-4.25.65-11.2-2.8-20.25-1.15-13.05 2.45-19.1 14"/><path fill="#4573ab" d="M68.95 181.8q-13.05 2.45-19.1 14-8.75 16.6-23.8 19.2-6.05 1.05-11.85-.5-5.35-1.45-8.8-4.55 10.8 4.05 21.35 1.4 11-2.75 17.25-11.8 10.8-15.55 21-19.4 10.9-4.1 28.75 1.9l-.3.25q-2.05 1.2-4.25.65-11.2-2.8-20.25-1.15"/><path fill="#0d131a" d="M184.05 177.85q5.2-2.3 14.2-1.55 8.95.8 16.75 4.25 7 3.1 11.7 7.8 4.65 4.7 6.65 10.6 3.1 9.3 8.95 13.7 5.4 4.05 13.95 4.5l6.85.55q3.3.6 4.3 2.05 2.4 3.35-1.6 6.1-4.75 3.3-16.75 3.3-20.4 0-29.05-25.75-2.05-6.15-10.65-10-5.75-2.5-12.25-3.1l-7.35.4q-2.65 1.15-5.35.1-2.75-1.05-3.9-3.7-1.25-2.65-.15-5.35 1-2.7 3.7-3.9"/><path fill="#4573ab" d="M198.25 177.75q8.6.75 16.2 4.1 6.7 2.95 11.2 7.45 4.5 4.5 6.35 10.1 3.55 10.55 9.15 14.75 5.15 3.9 15.05 4.4l6.2.5q3.1.45 3.85 1.5 1.5 2.05-3.45 4.25-5.4 2.4-14.3 2.4-7 0-14.25-5.45-8.9-6.7-12.9-18.8-2.2-6.75-11.45-10.8-6-2.65-12.75-3.25-5.65-.5-7.95.5l-4.3.1q-2.15-.8-3.15-2.95-.45-1.1-.45-2.3 0-1.1.35-2 .85-2.15 2.95-3.1 5-2.2 13.65-1.4"/><path fill="#0d131a" d="M87.65 178.95q5.15-2.3 14.15-1.55 8.95.8 16.8 4.25 7 3.1 11.7 7.8 4.65 4.7 6.65 10.6 2.85 8.55 8.75 13.2 4 3.15 6.6 3.15 8.8.35 11.4 3.65 1.35 1.75.9 4.05-.6 2.7-5.4 4.7-4.05 1.65-7.2 1.65-7.25 0-14.95-6.05-9.25-7.25-13.45-19.9-2.05-6.15-10.7-10-6.2-2.75-12.8-3.3-6.25-.55-10.9.95-2.45.8-3.35-.2l-1.8-3.75q-1.15-2.65-.1-5.35 1.05-2.75 3.7-3.9"/><path fill="#4573ab" d="M89 190.4l-2.4.15-1.25-2.9q-.5-1.05-.5-2.3 0-1.65.9-3 .9-1.45 2.45-2.1 4.95-2.2 13.6-1.4 8.6.75 16.2 4.1 6.75 2.95 11.25 7.45 4.45 4.45 6.35 10.1 3 9.05 9.4 13.95 4.35 3.3 7.25 3.4l6 .75q3.15.8 4.35 2.3.95 1.2.6 2.9-.4 1.9-4.45 3.3-3.5 1.2-6.65 1.2-7 0-14.25-5.45-8.9-6.7-12.9-18.8-1.3-3.85-4.8-7.1-2.9-2.65-6.55-4.25-6.3-2.8-13.8-3.35-6.9-.5-10.8 1.05"/><path fill="#0d131a" d="M174.35 92.05q4.95-3.05 14.05-3.8 9.4-.75 17.45 1.5 7.15 2 12.45 6.35 4.95 4.1 7.85 9.9 4 8.1 10.5 11.85 4.35 2.5 7 2.2 7.45-.85 10.7 2.25 1.6 1.55 1.4 3.9-.15 2.7-4.1 4.85-3.1 1.7-6.35 2.15-7.3 1.05-15.6-3.5-10.25-5.6-16.15-17.4-2.9-5.85-11.95-8.4-6.05-1.65-12.6-1.35-5.4.3-7.2 1.4-2.45 1.55-5.3.9-2.85-.65-4.4-3.1-1.05-1.7-1.05-3.7l.2-1.6q.6-2.85 3.1-4.4"/><path fill="#4573ab" d="M188.35 89.95q8.65-.45 16.65 1.8 7.1 2 12.15 5.8 5.1 3.8 7.7 9.1 4.25 8.5 11.3 12.45 4.75 2.65 7.65 2.35 3.25-.4 6.05-.1 3.25.4 4.65 1.7 1.1 1 1 2.75-.15 1.95-3.95 3.9-3.3 1.65-6.45 2.1-6.95 1-14.85-3.35-9.75-5.4-15.45-16.8-3.15-6.35-12.85-9.1-6.3-1.75-13.05-1.4-5.7.3-7.85 1.6-1.95 1.25-4.25.7-2.25-.5-3.5-2.45-1.25-2-.7-4.25.55-2.3 2.5-3.5 4.6-2.9 13.25-3.3"/><path fill="#0d131a" d="M243 42.35q4.2 1.25 5.7 3.7 1.55 2.4-.55 4.4-2.25 2.15-8.1 2.65-5.2.4-7.45 1.45l-1.15.55q-5.05 2.4-7.25 4.75-3.55 3.7-6.4 12.2-4.9 14.65-22.4 21.1-7.45 2.75-14.75 2.75-7.4 0-12.2-2.85-2.65-1.2-3.65-3.9-1.05-2.75.15-5.4 1.15-2.65 3.9-3.7l5.35.15 7.35.4q6.5-.55 12.25-3.05 8.65-3.85 10.7-10 4.25-12.6 12.7-19.3 6.6-5.25 15.3-6.5 5.85-.85 10.5.6"/><path fill="#4573ab" d="M246 49.8q-1.6 1.55-6.05 1.9-5.45.4-7.95 1.6l-1.15.55q-5.25 2.45-7.6 4.95-3.8 4-6.75 12.8-1.9 5.65-6.4 10.1-4.5 4.5-11.25 7.4-7.55 3.35-16.2 4.1-8.65.75-13.6-1.45-1.55-.7-2.45-2.1-.9-1.4-.9-3.05 0-1.1.5-2.25 1-2.15 3.15-2.95l4.3.1q2.3 1 7.95.55 6.75-.6 12.75-3.25 9.15-3.95 11.5-10.8 3.95-11.85 13-18.35 6.65-4.85 14.2-5.8l8.35.4q3.35.85 4.7 2.55 1.35 1.65-.1 3"/><path fill="#5084c4" d="M243.7 45.1q4 1.85 2.8 4.1-8.6-.6-16.3 1.9-8.6 2.8-19.65 10.5l-2.8 1.7q4.45-9.4 12.55-14.65 6.1-4 12.75-4.8 6.4-.75 10.65 1.25"/><path fill="#0d131a" d="M206.85 1.65q3.1 1.6 3.95 4.4 1.1 3.8-7.25 5-8.1 1.15-12.95 6.4-4.75 5.2-7.05 15.2-1.4 6.15-5.7 11.4-4.3 5.25-11 9-7.3 4.1-16.6 5.5l-14.5-.45q-2.75-.9-4.05-3.5-1.3-2.6-.4-5.4.95-2.75 3.55-4.05 2.6-1.3 5.35-.35l7.35-.35q6.45-1.2 11.9-4.25 7.4-4.15 9-10.95Q171.5 15.8 179.35 8q6.9-6.9 15.6-7.8 7.65-.8 11.9 1.45"/><path fill="#5084c4" d="M202.9 9.25l-4.2.75q-2.25.5-3.5 1.25-4.65 2.7-7.15 5.75-4.35 5.35-6.6 15.1-1.35 5.8-5.35 10.65-4.05 4.9-10.5 8.5-7.25 4.05-15.75 5.65-8.5 1.6-13.65-.1-1.75-.6-2.8-2.1-1.05-1.45-1.05-3.25 0-.9.3-1.8.75-2.2 2.8-3.2 2.1-1.05 4.3-.35 2.4.8 8-.2 6.65-1.25 12.35-4.45 8.8-4.95 10.4-11.9 2.9-12.6 10.5-19.8 6.35-6.05 14.2-6.9l9.8.3q3.75.95 4.45 3.3.15.55-.05.9-.45.75-2.45 1.2l-4.05.7"/><path fill="#4573ab" d="M178.7 30.7q5.85-15 15.8-19.05-4.3 2.5-6.85 5.85-4.1 5.3-6.2 14.6-1.35 5.8-5.35 10.65-4.05 4.9-10.5 8.5Q159 55 150.85 56.7q-.7-4.2-.3-6.8.55-3.6 3.1-3.6 8.2 0 12.25-1.55 8.6-3.35 12.8-14.05"/><path fill="#0d131a" d="M126.9 19.15q12.2 8.15 17.1 26.4.75 2.8-.8 5.3-1.45 2.5-4.3 3.2-2.8.7-5.3-.8-2.55-1.5-3.25-4.3-1.35-5.45-5.2-10-3.5-4.2-7.95-6.3-4.4-2.15-7.8-1.25-3.7.95-4.8 5.15-.9 3.5.35 6.5.75 1.9 3.5 6.5 5.1 9.7 4.65 17.85-.75 12.5-12.5 30.8-1.45 2.2-4.75 5.05-3.85 3.35-6.45 3.9-1.5.3-2.45-.35-2.35-1.55-2.75-3.85-.35-2.1 1.15-4.8.9-1.55 3.05-4.2l1.4-1.85q8.65-13.4 8.35-21.85-.1-3.35-1.6-6.85l-3.15-6.2q-8.3-15.8-4-28.05 3.9-10.95 15.25-14.1 11.45-3.15 22.25 4.1"/><path fill="#5084c4" d="M123.15 33.55q-5.65-5.15-11.9-5.2-3.4 0-5.7 1.75-2.3 1.75-3.1 5.05-1.05 4 0 7.75.65 2.4 3.25 7.3 5.25 10 5.2 17.25-.1 12.3-11.5 30-1.35 2.1-4.55 4.8-3.55 3.05-5.75 3.55l-1.35-.15q-1.85-1.2-2.15-2.9-.25-1.7 1.15-4.1l2.75-3.8 1.5-2q9.05-14 9.2-23.2.1-5.7-4.45-14.2-3.25-6.15-4.25-9.95-1.7-6.5.05-13.2 1.85-7.05 7.15-11.15 5.3-4.1 12.6-4.05 9.7.05 18.2 7.05 9.7 7.95 13.15 21.75.55 2.25-.65 4.25-1.2 2-3.45 2.55-2.25.55-4.25-.65-2-1.2-2.55-3.45-2.4-9.4-8.6-15.05"/><path fill="#4573ab" d="M131.75 48.6q-2.4-9.4-8.6-15.05-5.65-5.15-11.9-5.2-3.4 0-5.7 1.75-2.3 1.75-3.1 5.05-.55 1.95-.55 3.95-1.55-5.75.05-9.35 2-4.55 8.75-4.55 8.5 0 16.9 8.5 6.15 6.25 12.95 18.05-.75.6-2 .95-2.25.55-4.25-.65-2-1.2-2.55-3.45m-36 6.85l-2.7-5.55q-1.45-3.35-2-6.5 1.95 3.3 9.35 13.25 7.05 10.2 9.5 18.35-2.4 9.85-10.5 22.45-1.35 2.1-4.55 4.8-3.55 3.05-5.75 3.55l-1.35-.15q-1.85-1.2-2.15-2.9-.25-1.7 1.15-4.1l2.75-3.8 1.5-2q9.05-14 9.2-23.2.1-5.7-4.45-14.2"/><path fill="#0d131a" d="M247.3 55.25q5.8 3.05 8.05 6.8 2.1 3.4.6 5.9-1.55 2.55-5.7 2.6-4.7.1-10.75-3.1-6.35-3.3-16.35-2.55-14 1.05-25.4 11.15-10.95 9.7-24.85 10.15-13.75.4-32.55-8.2l-.5-.2q-2.7-1.25-3.7-3.95t.15-5.35q1.25-2.7 3.95-3.7l5.3.15.6.3q10.35 4.75 20.05 5.4 13.5.9 22.15-6.75Q201.7 52 218.8 50.15q15.55-1.75 28.5 5.1"/><path fill="#5084c4" d="M248.8 68.1q-3.8-.2-8.2-2.5-6.75-3.55-17.25-2.95-14.8.8-26.55 11.25-10.15 9.05-24.6 9.75-14.4.75-31.3-6.9l-.45-.25q-2.1-.9-3-3.15-.8-2.3.15-4.3.9-2.05 3.15-2.95l4.25.15.6.25q10.95 5 20.75 5.8 14.05 1.2 23-6.8 13.55-12.05 31.5-13.25 14.6-.95 25.6 4.85 5.15 2.7 6.95 5.45 1.65 2.5.25 4.1-1.4 1.6-4.85 1.45"/><path fill="#4573ab" d="M170.3 72.45q5.8 3.25 13 2.05 5.25-.9 13.3-4.75l13.45-6.5Q217.8 60 223.55 60q11.95 0 27.6 7.95-4.35.9-10.55-2.35-6.75-3.55-17.25-2.95-14.8.8-26.55 11.25-10.15 9.05-24.6 9.75-14.4.75-31.3-6.9l-.45-.25q-2.1-.9-3-3.15-.8-2.3.15-4.3.9-2.05 3.15-2.95l4.25.15.6.25q13.35 6.15 24.7 5.95"/><path fill="#0d131a" d="M163.2 52.1q5.2 8.75 4.7 23.2-.35 10.7 4.25 17.2 3.95 5.5 10.65 7.05 5.95 1.4 11.45-.7 5.45-2.05 6.65-6.15 1.7-5.5 3.2-8.6 2.2-4.7 4.65-5.7l3.25.2q2.35 1.3 2.55 6.7.1 3.95-1 11.1-.7 4.45-3.55 8.3-2.9 3.85-7.5 6.35-6.4 3.55-14.45 3.65-8.05.15-16.25-3.25-12-4.95-15.85-16.4-2.2-6.6-2.1-19.9l-.15-7.95q-.3-4.15-1.55-5.55-3.75-4.5-6.75-3.9-1.65.3-3.25 2.05-1.6 1.75-2.4 4.1-.35.95-.15 3.25.25 2.7 1.3 5.4.85 2.1 4.7 7.3 2.9 3.95 3.7 5.45 1.5 2.65.95 4.2-.55 1.4-2.4 1.9-4.4 1.15-10.95-3.7-3.4-2.5-6.6-6-3.9-4.35-4.95-10.25-1-5.95 1.05-12.05 3-8.9 10.15-13.55 6.9-4.5 14.25-3 7.8 1.55 12.4 9.25"/><path fill="#5084c4" d="M171.25 94q4.2 6.1 11.2 7.75 6.35 1.45 12.2-1.05 5.9-2.55 7.6-7.6l2.6-7.25q2.25-5.25 4.45-6.15l2 .15q3.25 1.8.85 16.35-.6 4.1-3.3 7.7-2.7 3.55-7 5.95-6.15 3.35-13.85 3.45-7.75.1-15.65-3.15-11.4-4.7-15.1-15.75-2.1-6.4-2-19.25.1-5.75-.15-8.45-.4-4.25-1.85-5.95-4.25-5.15-8.15-4.4-2 .4-3.9 2.35-1.85 2-2.8 4.75-.45 1.25-.2 3.75.25 2.95 1.4 5.85.9 2.25 4.85 7.65l3.3 4.75q1.5 2.5 1.15 3.6-.2.65-1.45 1-3.3.85-8.65-2.75-4-2.7-7.45-6.55-3.65-4.05-4.6-9.6-.95-5.55 1-11.3 1.95-5.75 6.05-9.65 4.1-3.9 9.25-4.9 11.05-2.1 17.5 6.6 6.2 8.3 5.95 23.4-.15 11.65 4.75 18.7"/><path fill="#4573ab" d="M212.8 91.3l-.65 4.9q-.6 4.1-3.3 7.7-2.7 3.55-7 5.95-6.15 3.35-13.85 3.45-7.75.1-15.65-3.15-11.4-4.7-15.1-15.75-2.1-6.4-2-19.25.1-5.75-.15-8.45-.4-4.25-1.85-5.95-4.25-5.15-8.15-4.4-2 .4-3.9 2.35-1.85 2-2.8 4.75-.45 1.25-.2 3.75.25 2.95 1.4 5.85.9 2.25 4.85 7.65l3.3 4.75q1.5 2.5 1.15 3.6-.2.65-1.45 1-3.3.85-8.65-2.75-4-2.7-7.45-6.55-3.65-4.05-4.6-9.6-.95-5.55 1-11.3 2.4-7 7.8-11.15 3.65 3.8 11.55 3.8 7.7 0 10 8.8.85 3.2 1.35 9l.85 10.35q1.35 13.1 6.1 19.35 6.65 8.8 21.75 8.8 9.5 0 15.6-3.95 6.7-4.25 10.05-13.55"/><path fill="#0d131a" d="M169.75 23.55q14.65 1.4 21.4 12.25 3.5 5.65 5.85 17.8.85 4.45 1.25 5.35 1.7 3.8 7.5 6.35 2.65 1.2 11.65 3.8 10.1 2.95 14.7 5.75 7.5 4.5 9.55 12.2 1.7 6.3 0 12.85-1.65 6.45-6.05 11.5-4.75 5.4-11.95 7.75-7.05 2.25-14.95 1.2-2.9-.35-4.65-2.65-1.75-2.3-1.4-5.2.4-2.95 2.65-4.65 2.35-1.8 5.2-1.4 4.25.55 8.1-.7 3.75-1.3 6.25-4.1 2.05-2.35 2.7-5.15.65-2.85-.2-5.8-.65-2.4-4.55-4l-10.2-3.1q-7.5-2.2-11.35-3.75-6.4-2.6-10.85-6.2-3.85-3.05-5.9-9.55l-2.85-11.7q-1.6-6.85-4.05-9.9-3.35-4.2-9.7-4.2-8.5 0-12.35 9.45-3.5 8.55-.95 16.55l.3 14.4-1-.5q-3.05-1.5-6.3-5.85-3.65-4.8-4.6-9.65-1.15-5.85-1.15-10.9 0-15.2 8.25-22.65 7.5-6.7 19.65-5.6"/><path fill="#5084c4" d="M168.25 36.4q-9.05-.85-13.45 8.8-4.2 9.25-1.1 20.9l-.2 10.25q-2.75-1.95-5.25-5.4-3.05-4.25-3.85-8.5-1.15-5.75-1.15-10.6 0-10.4 5.4-17.8 2.95-4.05 7.25-6.2 5.7-2.85 13.2-2.15 14 1.35 20.65 11.4 3.75 5.65 5.85 16.75.8 4.4 1.35 5.65 1.85 4.25 7.5 7.05 3.35 1.65 11.7 4.1 9.95 2.9 14.2 5.4 7.3 4.2 9.2 11.35 1.65 6.05.3 11.95-1.35 5.9-5.5 10.6-4.6 5.2-11.3 7.6-6.8 2.45-14.2 1.45-2.3-.35-3.7-2.2-1.45-1.85-1.1-4.15.25-2.25 2.15-3.7 1.8-1.4 4.15-1.1 4.6.6 8.75-.8 4.1-1.4 6.8-4.5 2.25-2.6 3-5.75.7-3.15-.2-6.45-.8-3.05-4.9-5.1-3-1.55-10.8-3.8-10.15-2.95-14.9-5.55-8.15-4.5-11.4-11.85-1.1-2.45-2.15-8.1-1.85-9.7-4.3-13.35-3.65-5.4-12-6.2"/><path fill="#4573ab" d="M180.25 42.6q-3.65-5.4-12-6.2-4.9-.45-8.6 2.4 2.75-2.85 6.6-4.05l7.85-.2q9.3 2.7 11.4 17.3 1.25 8.6 5.8 14.7 6.05 8.15 17.3 10.65 5.5 1.25 10.5 3.9 5.85 3.1 8.4 6.9-1.6-1.95-5.4-3.55-2.85-1.2-9.1-3-10.15-2.95-14.9-5.55-8.15-4.5-11.4-11.85-1.1-2.45-2.15-8.1-1.85-9.7-4.3-13.35M153.5 76.35q-2.75-1.95-5.25-5.4-3.05-4.25-3.85-8.5l-.9-5.85q1.7 1.75 3.95.75 2.7-1.1 5.45-5.75-1.15 7 .8 14.5l-.2 10.25"/><path fill="#0d131a" d="M184.75 185.1q5.75 5.6 7.3 12.15 1.2 4.95-.05 10.15-2 8.2-9.6 15.55-5.95 5.75-10.1 7.05-3 .95-8.4 1.5-6.8.65-8.6-.8-.85-.6-.75-1.6.15-1.55 12.5-10.85 2.3-1.05 6.2-5.6 4.55-5.3 5.2-9.2.7-4.15-3.5-8.3-5.9-5.75-11.25-5.55-4.6.2-12.3 5.5-3.5 2.4-7.85 3.75-8.15 2.4-17.15-1-5.35-2.05-14.3-8-6.4-4.25-9.3-5.5-3.9-1.75-6.3-.65-2.8 1.3-4.5 3.65-1.75 2.35-2.2 5.4-.55 3.7.95 7.4 1.5 3.75 4.65 6.6 2.15 1.95 2.3 4.85.15 2.9-1.8 5.05t-4.85 2.3q-2.9.15-5.05-1.8-13.2-11.9-11.3-26.8.8-6.55 4.7-11.9 3.9-5.4 10.05-8.3 7.15-3.35 16-.05 5.05 1.9 14.4 8.05 6.85 4.55 10.2 6 5.45 2.4 9.5 1.2 1.05-.3 4.95-2.5 10.2-5.8 17.2-6.6 12.45-1.45 23.05 8.85"/><path fill="#5084c4" d="M163.45 187.8q-2.55.3-12.75 6.05-4.95 2.85-7.55 3.65-7.7 2.3-16.4-1.05-5-1.9-13.9-7.75-6.8-4.55-10.1-5.95-4.55-1.95-7.35-.65-3.1 1.45-5.05 4.1-1.9 2.6-2.45 6-.6 3.95 1.25 8.25 1.8 4.15 5.3 7.35 1.75 1.55 1.85 3.9.1 2.35-1.45 4.05-1.55 1.7-3.85 1.85-2.35.1-4.05-1.5-5.55-5-8.1-11.7-2.55-6.7-1.55-13.55.95-6.2 4.55-11.05 3.65-4.85 9.3-7.5 6.7-3.2 14.6-.35 4.6 1.65 13.3 7.35 7.25 4.75 10.7 6.25 5.75 2.5 10.2 1.15 1.3-.4 5.15-2.55 9.85-5.6 16.6-6.45 12-1.45 22.05 8.4 5.4 5.3 6.9 11.45 1.15 4.65-.05 9.5-1.85 7.85-9.1 14.85-5.65 5.5-9.6 6.75-3.15.95-8.45 1.45-6 .55-7.3-.5l-.2-.4q.3-.55 4-3.6 3.45-2.85 7.85-6.15 2.5-1.15 6.55-5.85 4.75-5.55 5.5-9.9.8-4.9-3.95-9.55-7.15-7-12.45-6.35"/><path fill="#4573ab" d="M183.75 186.1q5.4 5.3 6.9 11.45 1.15 4.65-.05 9.5-1.85 7.85-9.1 14.85-5.65 5.5-9.6 6.75-3.15.95-8.45 1.45-6 .55-7.3-.5l-.2-.4q.3-.55 4-3.6 3.45-2.85 7.85-6.15 2.5-1.15 6.55-5.85 4.75-5.55 5.5-9.9.8-4.9-3.95-9.55-7.15-7-12.45-6.35-2.55.3-12.75 6.05-4.95 2.85-7.55 3.65-7.7 2.3-16.4-1.05-5-1.9-13.9-7.75-6.8-4.55-10.1-5.95-4.55-1.95-7.35-.65l-1.3.7v-.05q3.25-2.15 9.8-2.55 6.65-.45 8.1-1.35 1.45-.95 3.75-1.7l3.3 2.15q7.25 4.75 10.7 6.25 5.75 2.5 10.2 1.15 1.3-.4 5.15-2.55 9.85-5.6 16.6-6.45 12-1.45 22.05 8.4M81.8 204.4q4.9 6.5 12.55 11.75-1.6 1.4-3.7 1.4-2.15 0-3.7-1.45-4.6-4.1-7.15-9.45-2.55-5.3-2.75-11.05 1.05 3.85 4.75 8.8"/><path fill="#0d131a" d="M169.1 163.2q7.45-1.95 15.35-.1 7.8 1.75 13.55 6.7 6.1 5.3 8.1 12.7 2.2 8.25-1.1 17.75-.95 2.75-3.55 4-2.6 1.3-5.35.35-2.75-.95-4.05-3.6-1.25-2.6-.3-5.35 2.45-7.15-4.95-13.95-7.25-6.65-14.15-4.9-4 1.05-7.65 4.75-1.1 1.1-6.35 7.55-4.9 6.05-9.05 9.35-5.9 4.7-13.3 6.7-8.65 2.35-16.4.7-8.05-1.75-12.3-7.15-3.35-4.25-4-10.05-.9-8.25 4.15-17.6.65-1.15 2.1-2.2 1.3-.9 2.75-1.35 2.8-.8 5.35.6 2.55 1.3 3.4 4.15 1 3.5 0 5.3-4.4 8.15-1.55 11.75 1.65 2.1 5.15 2.75l7.7-.45q4.3-1.15 8.15-4.95l6.55-7.85q4.85-5.95 8.85-9.15 5.8-4.6 12.9-6.45"/><path fill="#4573ab" d="M164.05 180.05q-2.35 2.1-6.7 7.45-5.25 6.5-8.65 9.5-5.8 4.95-12.75 6.8-8.05 2.2-15.35.4-7.25-1.8-11.3-7-3.15-3.95-3.7-9.2-.8-7.55 4.05-16.45 1.15-2 3.35-2.7 2.25-.6 4.3.45 2 1.15 2.7 3.35.6 2.25-.45 4.3-1.9 3.35-2.5 6.45-.9 4.3 1.05 6.8 1.9 2.45 6.15 3.2l8.8-.45q4.65-1.25 8.65-4.8 2.5-2.25 6.9-7.7 5.25-6.45 8.55-9.25 5.6-4.9 12.3-6.6 7.1-1.85 15.55.85 8.4 2.7 13.9 8.65 4.8 5.2 6.05 11.85 1.25 6.65-1.25 13.85-.8 2.2-2.85 3.2l-4.3.25q-2.2-.75-3.25-2.85-1-2.1-.25-4.3 3-8.5-2.45-14.4-3.45-3.75-9.15-5.55-5.35-1.7-9.15-.7-4.4 1.15-8.25 4.6"/><path fill="#5084c4" d="M109.3 197.2q-3.15-3.95-3.7-9.2-.8-7.55 4.05-16.45 1.15-2 3.35-2.7 2.25-.6 4.3.45 2 1.15 2.7 3.35.6 2.25-.45 4.3-1.9 3.35-2.5 6.45-.9 4.3 1.05 6.8 1.35 1.75 4.1 2.7 2.65.85 5.95.75 2 5.8 6.5 10.45-7.75 1.75-14.6-.1t-10.75-6.8"/><path fill="#4573ab" d="M120 197.9q.2-3.9-1.7-7.5 1.4 1.65 4.05 2.55l5.8.7q2 5.8 6.5 10.45-4.3 1-8.5.85-4.15-.2-7.75-1.45 1.4-2.45 1.6-5.6"/><path fill="#0d131a" d="M204.8 136.55l7.2 9.35q9.35 11.8 11.8 17.7 4.35 10.6-1 20.65-3.1 5.8-8.5 8.6-4.8 2.5-7.85 1.25-.85-.3-1.25-1.25-.6-1.55 1.25-8l2-6.15q2.5-6.2.35-11.8-1.75-4.6-9.1-13.95l-6.25-8.1q-4.6-6.35-4.05-14.8.5-8.6 6.1-14.35 6.2-6.3 15.9-6.45 11.75-.15 25.2 9.2 6.2 4.35 9.7 8.35 5.85 6.75 2.8 11.05-.95 1.35-5.9-.75-5.15-2.2-14.1-7.95-7.2-4.7-13.35-5.6-6.3-.9-9.65 2.5-2.1 2.15-2.45 5.25-.4 3.1 1.15 5.25"/><path fill="#4573ab" d="M210.9 146.75q8.7 11.05 11.1 17.05 3.95 10.05-1.1 19.6-2.8 5.25-7.35 8-4.05 2.4-6.6 1.4-.3-.15-.45-.5-.15-.45-.15-1.05 0-2.65 3.3-10.2l.8-1.8q1.45-3.65 1.45-6.65 0-4.2-2.9-9.2-2.05-3.5-8.2-11.3l-6.2-8.1q-3.65-5-3.65-11.6 0-4.2 1.55-8.1 1.6-4.05 4.55-7.1 4.85-4.95 12.1-6 12.05-1.75 26.65 8.4 7.3 5.05 10.5 9.45 3.5 4.7 1.45 7.65-.3.4-5.65-2.05-6.05-2.85-12.2-6.7Q222 123 215.5 122q-6.85-1.1-10.5 2.6-2.4 2.45-2.8 6.35-.4 3.9 1.5 6.45l7.2 9.35"/><path fill="#0d131a" d="M196.8 195.6q.55-1.6 2.5-2.6 2.25-1.1 5.1-1.45l4.75.3q3.6 1.2 6.85 1 3.25-.15 5.5-1.7 3.5-2.35 3.8-7.5.85-12.95-8.8-20.45-3.75-2.95-8.2-4.05-5.9-1.45-12.4.6-4.65 1.5-7.1 6.7-1.75 3.7-3.75 13.45-1.3 6.4-2.7 10.25-1.95 5.3-5 8.75-5.6 6.45-12.85 8.9-7.45 2.55-15.25.35-7.75-2.15-13.8-8.1-6-5.85-7.1-12.2-.6-3.35.1-6.7.85-4.35 3.65-4.8l1.25-.25 4 .2q1.85 1.15 3.5 5.8.85 2.5 4.1 6 3.9 4.35 7.7 5.4 8.15 2.25 13.85-4.35 1.35-1.55 2.5-5.45l1.75-7.7q2.45-11.9 5.55-17.95 5.3-10.15 15.3-13.3 8.55-2.7 17.5-1.3 9 1.45 16.2 6.6 16.55 11.95 15.05 35.05-.9 14.25-11.45 20.15-10 5.6-23.45 1.1-2-.65-4.55-2.9-2.65-2.3-3.7-4.4-.9-1.9-.4-3.45"/><path fill="#5084c4" d="M176.3 197.95q-5.25 6.05-12.25 8.2-7 2.15-14.55.05-7.4-2.05-13.1-7.4-5.65-5.3-6.7-11.15-.5-3 .05-6 .7-3.6 2.6-3.9l1.3-.3 3.1.1q1.3.9 2.75 5 .95 2.7 4.4 6.65 4.4 5 8.65 6.2 8.85 2.45 15.3-4.8 1.5-1.7 2.7-5.8l1.85-8q2.35-11.6 5.2-17.2 4.85-9.6 14.35-12.55 8.75-2.75 17-1.4t15.05 6.7q7.15 5.65 11 14.4 3.8 8.75 3.2 18.15-.35 5.5-2.8 9.95-2.4 4.45-6.55 7.25-4.75 3.2-10.9 3.75-6.1.55-12.55-1.6-1.8-.6-3.8-2.25-2.2-1.8-3.1-3.6-.7-1.3-.4-2.35.4-1.05 1.85-1.8 1.85-.9 4.65-1.05l4.35.4q3.95 1.3 7.5 1.1 3.55-.25 6.1-1.95 4.05-2.7 4.4-8.55.45-6.7-2.2-12.9-2.65-6.15-7.7-10.1-3.9-3.1-8.6-4.2-6.2-1.4-13.1.75-5.2 1.65-7.9 7.2-1.95 4-4.05 14.1-1.5 7.1-2.5 10.25-1.8 5.45-4.6 8.65"/><path fill="#4573ab" d="M237.95 186.8q-.65 4.9-2.95 8.8-2.35 3.95-6.15 6.5-4.75 3.2-10.9 3.75-6.1.55-12.55-1.6-1.8-.6-3.8-2.25-2.2-1.8-3.1-3.6-.25-.4-.35-.95 10.9 5.85 22.05 4 13-2.15 17.75-14.65m-66.8-4.25q5.05 6.9 5.05 15.35l-.05.2q-5.2 5.95-12.2 8.1-6.95 2.1-14.45 0-7.4-2.05-13.1-7.4-5.65-5.3-6.7-11.15-.45-2.95.05-5.85 1.9-2.4 4.5-4.45 1.75-.4 2.7.4 1.25 1.05 2.55 4.8.95 2.7 4.4 6.65 4.4 5 8.65 6.2 8.85 2.45 15.3-4.8 1.8-2.15 3.3-8.05"/><path fill="#0d131a" d="M93.45 93.8l-.25-.25q-2.65-2.3-4.6-6.4-2.25-4.8-.45-6.9 1.9-2.25 6.1-1.85 4.4.4 8.5 3.5 5.5 4.65 9.05 4.95 2.4.15 7.1-2.15 7.6-3.8 8-13.7-.05-4.85.15-6.8.3-3.25 2-4.15 2.65-1.4 5.2-1.15 2.65.3 4.25 2.4 5.25 6.8 2.25 17.65-3.25 11.7-14.1 18.2-6.65 4-14.05 4.15-10.3.25-19.15-7.5"/><path fill="#4573ab" d="M119.6 85.9q8.35-4.85 9.05-14.45v-6.5q.1-3 1.2-3.75 1.95-1.3 4.1-1 2.15.25 3.45 1.95 1.75 2.3 2.3 5.8.55 3.5-.25 7.6-1.15 6.2-4.85 11.45-3.65 5.2-9.2 8.55-6.4 3.85-13.1 4.15-9.55.35-17.9-6.95l-.3-.25q-2.25-2-4.1-5.75-2.05-4.15-.8-5.6 1.45-1.7 4.8-1 3.35.7 7 3.45l6.1 3q7.2 2.35 12.5-.7"/><path fill="#0d131a" d="M129.9 210.85q5.9 6.65 6.65 15.2.65 7.4-2.55 14.5-2.95 6.5-7.6 9.75-4.75 3.35-8.4 1.1-2.4-1.5-2.2-5.6.2-4.1 2.75-8.75l.6-.95q2.5-3.85 2.7-7.1.25-4.45-3.5-9.1-4-4.9-10.05-6.6-4.75-1.35-6.4-.4l-1.25.55-1.85 1.8-3.05 2.85q-1.65 1.25-2.9 1.2-1.05-.1-1.75-1.05-2.5-3.45-1.85-8.45.6-4.35 2.75-6.55 6.35-6.45 17.85-4.2 11.6 2.3 20.05 11.8"/><path fill="#5084c4" d="M129.55 243.3q-1.65 2.5-5.1 4.9-3.85 2.6-5.45 1.55-1.7-1.1-1.7-3.95 0-3.6 2.5-8.05l.55-.9q2.9-4.55 2.9-8.4 0-4.7-3.8-9.45-4.3-5.25-10.75-7.1l-7.4-.25-1.3.55-.15.05-2.05 2-2.55 2.45q-1.5 1.25-2.3 1.2l-.7-.45q-2.15-3-1.4-7.2.65-3.55 2.55-5.5 2-2.1 5.45-3.1 3.35-1.05 7.55-.85 6.3.3 12 3.2 5.7 2.95 9.75 7.95 4.75 5.75 5.95 12.35 1.7 9.4-4.35 18.7l-.2.3"/><path fill="#4573ab" d="M119.45 219q-4.3-5.25-10.75-7.1l-7.4-.25-1.3.55-.15.05-2.05 2q-2.45 2.6-3.7 3.25l-.3-.4q0-3.9 3.2-6.65 3.2-2.8 7.85-2.8 3.6 0 7.8 2.45 4.1 2.45 7.25 6.3 7.55 9.25 3.55 17.35-1.4 2.85-3.65 4l.55-.9q2.9-4.55 2.9-8.4 0-4.7-3.8-9.45"/><path fill="#0d131a" d="M85.55 40.05q8.65-5.15 21.25-2.8 14.05 2.65 30.4 14.35 4 2.85 8.05 9.15 4.25 6.6 3.75 9.9-1.05 6.65-16.95-6.45-7.7-5.5-16.65-9.55-17.8-8.1-23.75-.7-3.45 4.3-3.2 8.65.15 2.7 2.7 9.6 2.15 5.75 2.75 9.75.85 6.05-.8 11.8-.75 2.5-4.7 5.5-4.15 3.2-6.65 2.45-2.2-.6-3.6-1.95-2.1-2.1 0-4.8 2.8-3.55 2.1-8.8-.55-3.95-3.4-10.05-4.25-11.45-1.8-21.35 2.4-9.85 10.5-14.7"/><path fill="#5084c4" d="M111.5 41q11.7 3.55 24.15 12.1 3.9 2.7 8.1 8.6 4.25 6.1 3.85 8.75-.15.8-.85 1-1.9.55-13.15-8.7l-3.2-2.55q-7.6-5.2-16.35-8.65-17.45-6.9-24 1.25-3.9 4.9-3.8 9.6.05 2.95 2.45 9.55 2.25 5.95 2.9 9.55 1.05 6-.5 11.45-.65 2.15-3.85 5-3.35 2.95-5.1 2.4-1.65-.45-2.25-2-.2-.5.7-2.3 1.3-2.55 1.8-4.1 2.1-6.7-2-14.2l-.9-2.4Q76.4 67 76.3 62.1q-.1-8.35 6.35-15.8Q92.3 35.2 111.5 41"/><path fill="#4573ab" d="M90.85 47.95q7.75-4 20 .45 13.3 4.8 27.5 18.15l-4.75-3.8-3.2-2.55q-7.6-5.2-16.35-8.65-17.45-6.9-24 1.25-3.85 4.85-3.8 9.45 0 3.05 2.35 9.35-3.85-7.9-3.7-13.8.15-6.85 5.95-9.85"/><path fill="#0d131a" d="M219.2 90.5q1.45-1.65 3.15-2.5 1.7-.9 2.95-.6 2.8.65 3.4 3 .35 1.45-.1 5.1-.55 4.65-.05 7 .5 2.5 3.05 4.35 1.6 1.15 5.55 2.85l2.8 1.3q9.05 4.3 12.6 7.65 6.65 6.25 7 16.45.45 12.65-10.15 19.8-9.3 6.3-36.25 13.75l-15.3 4.25q-8.1 1.95-8.45.6-.9-3.7 3.55-8.6 5.95-6.7 18.8-9.7 14.3-3.4 20.3-5.9 13.4-5.6 13-13.5-.3-5.8-2.9-8.5-2.1-2.15-8.2-4.4-15.05-5.5-18.15-16.35-2.65-9.15 3.4-16.05"/><path fill="#5084c4" d="M226.9 98.9q-.1 2.15.25 3.9.65 2.95 3.5 5.1 1.75 1.25 5.95 3.1l2.75 1.25q8.15 3.95 11.5 7.35 5.8 5.9 6.15 15.6.45 12.4-11.6 19.9-7.55 4.75-23.9 8.95l-18.95 5.4q-10.4 3-11.05 2.7l-.1-.05q.3-5.2 6.7-9.35 5.55-3.55 14.25-5.6l.9-.25q13.85-3.25 20.75-6.35 13.65-6.15 13.2-14.8-.35-6.15-3.7-9.45-2.1-2.15-8.65-5.3l-1.9-.9q-5.55-2.55-8.15-4.5-4.5-3.3-6.2-7.95-2.2-5.9-1.05-10.8.75-3.2 2.7-5.4 1.3-1.5 2.75-2.25 1.25-.6 2-.45 1.95.45 2.35 2.05.3 1.15-.15 4.5l-.3 3.6"/><path fill="#4573ab" d="M227.35 94.15q-1.85-1.35-5.2-.5-3.4.85-4.6 3.15.7-3.1 2.7-5.35 1.3-1.5 2.75-2.25 1.25-.6 2-.45 1.8.4 2.25 1.75.4 1.05.1 3.65m5.6 25.95q-4.95-2.25-7.45-3.95-4.1-2.85-6.1-6.65 3.55 3.2 16.55 9.7 11.25 7.05 11.25 16.55-.35-6.15-3.7-9.45-2.1-2.15-8.65-5.3l-1.9-.9m-41.45 52.05l-.1-.05.05-.2q6.15-3.45 17.4-6.7l17-4.7q13.05-4.1 19.15-7.45 6.8-3.8 10.75-9.75-3.05 8.3-13.9 13.8-6.95 3.5-20.35 6.95l-18.95 5.4q-10.4 3-11.05 2.7"/><path fill="#0d131a" d="M86.6 64.9q7.65 4.5 14.35 4.45l6.8-1q6.2-.6 7.85 1.2 1.2 1.35 1.05 3.15-.2 3-4.2 6.15-4.25 3.35-9.35 3.7-6.3.45-12.35-1.1-4.3-1.05-9.15-3.4-6.95-3.35-9.05-3.7-4.2-.75-8.7 2.45-7.05 5-4.35 16.9 1.95 8.45 9.4 21.85l.55.95q1.25 2.3.5 4.8-.7 2.55-3 3.8-2.3 1.3-4.8.55-2.5-.7-3.8-3l-.5-.95Q46.65 105.25 45.2 91 44 78.4 50.4 69.95q5.95-7.85 16.05-9.35 10.3-1.5 20.15 4.3"/><path fill="#5084c4" d="M111 69.75q2.7-.05 3.65.85.7.7.6 2-.15 2.3-3.65 4.75-3.8 2.7-8.6 3.05-6.1.45-11.95-1.05-4.1-1.05-8.85-3.3-6.55-3.15-9.5-3.45-4.7-.55-9.7 3.05-7.6 5.45-4.95 17.85 1.9 8.8 9.65 22.75l.5.95q1 1.75.4 3.75-.55 1.95-2.3 2.95-1.8.95-3.75.4-1.95-.6-2.95-2.35l-.5-.95q-8.4-15.1-10.6-25.35-4.05-18.85 8.8-28 8-5.75 16.3-4.85 4.8.5 12.9 4.4 4 1.9 7.35 2.75l7.1.8 4.85-.5 5.2-.5"/><path fill="#4573ab" d="M89.85 76.25Q93.4 77.8 99.95 78l11.9-.8q-3.9 2.85-8.85 3.2-6.1.45-11.95-1.05-4.1-1.05-8.85-3.3-6.55-3.15-9.5-3.45-4.7-.55-9.7 3.05-3.9 2.8-5.1 7.5 1-5.05 6.15-9.7 4.8-4.35 8.25-4.35 2.8 0 8.55 2.7l9 4.45M68.2 117.2q1 1.75.4 3.75-.55 1.95-2.3 2.95-1.8.95-3.75.4-1.95-.6-2.95-2.35l-.5-.95q-6.65-11.75-9.35-20.65 2.7 4.6 7.1 5.05 4.25.45 4.15-2.75 2.65 6.4 6.7 13.6l.5.95"/><path fill="#0d131a" d="M117.9 64.55q0-3.8 1-7.4 1.5-5.15 4.3-5.15 2.9 0 5.15 5.05 1.95 4.3 1.95 7.6 0 17.25-7.85 27.2-7.7 9.7-23.25 12.8-14.75 2.95-20.85 7.45-5.2 3.85-5.75 10.4l-.05 5.6q.2 8.05-.4 12.05l-.1.6h-.6q-7.35-.4-11.35-7.6-4-7.05-2.25-16.05 1.9-9.95 10.15-17 9.65-8.2 25.8-10.2 13.2-1.65 19.7-11.75 4.4-6.8 4.4-13.6"/><path fill="#5084c4" d="M120.2 58.15q1.15-3.85 3-3.85 2.05 0 3.95 3.95 1.75 3.6 1.75 6.4 0 15.25-7.95 25.25-7.95 9.95-22.4 12.85-15.15 3-21.05 8.15-4.8 4.2-4.9 11.6l.25 3.05-.1 6.55-.35 7.45q-6.2-.5-9.35-7.35-3.15-6.8-1.15-15.2 2.2-9.35 10.05-15.9 9.25-7.65 24.4-9.4 13.85-1.6 19.55-12.5 3.4-6.5 3.4-14.65 0-3.3.9-6.4"/><path fill="#4573ab" d="M105.2 96.85q10.55-2.55 14.75-5.85-7.8 9-21.4 11.75-15.15 3-21.05 8.15-4.8 4.2-4.9 11.6l.25 3.05-.1 6.1q-.9-2.35-1.65-5.1-2.85-10.75 2.2-17.1 3.95-5.05 13.85-8.2l18.05-4.4"/><path fill="#0d131a" d="M176.9 182.45q.9 1.15 1.45 2.95.55 1.85.35 3.25-.2 1.4-1 2.8-.85 1.4-1.95 2.2-2.3 1.75-5.5 1.3-3.15-.4-4.9-2.75-5.65-7.4-12.55-10.1-6.35-2.5-11.55-.3-4.9 2.05-4.3 7.9.6 6.2 7.3 11.65 9.5 7.65 12.55 14.3 5.4 11.85 1.85 33-1 6-4.35 10.2-3.1 3.9-5.55 3.45-6.5-1.2-4.25-15.1 2.7-15.95-.5-23.95-1.95-5-9.05-10.7-15.1-12.25-14.05-25.9.45-6 4.2-10.8 3.7-4.75 9.8-7.35 9.4-4 20.4-1.1 12.7 3.35 21.6 15.05"/><path fill="#5084c4" d="M166.65 190.65q-5.9-7.7-13.85-10.45-7.25-2.5-12.95-.05-3.15 1.3-4.55 3.8-1.4 2.55-.9 5.9.6 4.1 3.1 7.15 1.55 1.95 5.9 5.4 8.75 7.15 11.55 13.8 4.8 11.4 1.3 32.1-.8 4.9-3.4 8.8-2.4 3.65-4.05 3.35-4-.7-1.9-14.2 2.5-15.75-1-24.05-2.2-5.1-9.6-11.05-5.4-4.35-7.85-7.45-4.1-5.3-5.15-12.15-1.1-7.2 2.15-13.05 3.25-5.85 10-8.7 8.9-3.8 19.45-.75 12.05 3.5 20.7 14.8 1.4 1.85 1.1 4.15-.3 2.3-2.2 3.7-1.85 1.4-4.15 1.1-2.3-.3-3.7-2.15"/><path fill="#4573ab" d="M173.25 192.4l-3.55.25q-1.85-.45-3.05-2-5.9-7.7-13.85-10.45-7.25-2.5-12.95-.05-3.15 1.3-4.55 3.8-1.4 2.55-.9 5.9.55 3.5 2.3 6.1-5.45-5.7-2.55-12.7 2.9-7.05 11.25-7.05 7 0 14.65 4.7 6.9 4.2 13.2 11.5"/><path fill="#0d131a" d="M165 196.6q9.35-12.55 22.15-12.55 12.75 0 22 12.85 9.3 12.8 9.3 30.5 0 17.55-9.3 29.75-9.15 12-22 12-12.8 0-22.15-12.3-9.4-12.5-9.4-30.05 0-17.6 9.4-30.2"/><path fill="#c94850" d="M214.85 227.2q0 16.45-8.1 28.1-8.15 11.65-19.6 11.65-11.45 0-19.55-11.65-8.15-11.7-8.15-28.1 0-16.4 8.15-28.1 8.1-11.65 19.55-11.65 11.45 0 19.6 11.65 8.1 11.65 8.1 28.1"/><path fill="#e9545d" d="M187.15 187.45q8.9 0 16.1 7.4 7.05 7.3 10 18.95-3.9-6.6-9-10.2-5.25-3.75-11.05-3.75-11.6 0-19.75 13.55-8.2 13.5-8.2 32.65l.2 5.8q-6-10.8-6-24.65 0-16.4 8.15-28.1 8.1-11.65 19.55-11.65"/><path fill="#0d131a" d="M123.55 227.15q1 3.6.15 6.2l-.25.4q-2.65 3.3-10.7 24.3l-4.1 11.75q-2.8 7.25-8.9 11-5.9 3.65-13.55 3.35-17.05-.7-30.9-17.6-9-10.95-12.4-22.35-3.5-11.5-.3-20.15 1.9-5.25 6.8-8.95 4.7-3.55 10.75-4.65 13.1-2.45 31.9 7.85l3.4-3.25q3.1-3 4.7-3.6 2.95-1.15 8.55.65 7.2 2.25 11.65 8.5 2.25 3.15 3.2 6.55"/><path fill="#e9545d" d="M110.75 215.4q5.05 2.45 8.15 6.55 1.75 2.35 2.15 6.3.35 2.85 0 4.1-1.45 2-4.3 9-1.85 4.4-6.75 17.25l-2.2 6.8q-3.1-12.05-11.2-23-7.4-10-17.15-16.85-9.5-6.6-17.95-8-8.9-1.5-13.7 3.35 2.1-2.9 5.45-4.85 3.25-1.9 7.05-2.65 7.5-1.4 16.95.95 8.55 2.15 14.9 6.25 4.5 2.95 4.7 1.7.2-1.2-1.75-2.8l2.95-3.35q1.85-2.1 3.45-2.6 4.1-.7 9.25 1.85"/><path fill="#c94850" d="M110.75 215.4q5.05 2.45 8.15 6.55 1.75 2.35 2.15 6.3.35 2.85 0 4.1-1.45 2-4.3 9-1.85 4.4-6.75 17.25l-2.2 6.8-1.25-4.15q.4-2.45.65-7.5.15-4.65.45-5.75.15-.55 3.55-5.7 3.3-5 4.25-9.6 1.1-5.15-4.35-11.2-5.25-5.85-11.25-7.05l1.65-.9q4.1-.7 9.25 1.85M92 281.25q-8.3 1.6-17.35-2.8-9-4.4-16.65-13.75-6.4-7.8-9.85-15.8-3.4-7.95-3.4-14.95 0-3.8 1.05-7.2 4-5.2 10.45-6.3 6.45-1.15 13.7 2.2 13.9 6.45 26.3 23.6 5.25 7.25 7.9 13.55 2.7 6.5 1.7 9.6-1.55 4.7-5.15 7.8-3.65 3.1-8.7 4.05"/><path fill="#e9545d" d="M70.75 227q-8.8-2.7-14.65-.1-6.15 2.7-7.05 10.5-1 8.55 4.65 21.6-8.95-13.25-8.95-25.05 0-3.8 1.05-7.2 4-5.2 10.45-6.3 6.45-1.15 13.7 2.2 9.3 4.25 18.95 14.6-9.15-7.45-18.15-10.25"/><path fill="#0d131a" d="M74.1 135q0 18.25 9.95 34.05l-3.6-.15q-9.3-15.7-9.3-33.9 0-10 2.9-19.4l4.65-4.25Q74.1 122.8 74.1 135"/></svg>