<svg xmlns="http://www.w3.org/2000/svg" width="415" height="430" viewBox="-0.4 -0.35 415.25 429.65"><path fill="#fffbda" d="M343.75 395.05q4.15 4.25 4.5 6.8.8 6.6-24 7.05l10.85-21.7 8.65 7.85m-78.7 17.1q-11.55 2.7-16.05 3.45-11.9 1.95-18.2.4-4.35-1.05.35-9.05 4.3-7.3 10-11.6l23.9 16.8m-230.2-49.2q-9.95-1.25-11.2-3.35-1.15-1.9 6.7-9.8 7.35-7.35 11.75-9.8l9 22.95q-6.25 1.25-16.25 0"/><path fill="#bf794e" d="M81.05 53.4q6.3 4.4 8.1 6.55 1.7 2.05 9.8 6.5 9.55 5.2 17.45 12.1 37.55 29.05 15.6 75.3-6.85 14.5-18.85 28.95-6 7.2-10.6 11.55-1.45-5.1-8.05-13.85-7.7-10.2-16.8-17.2-7.4-5.7-10.8-15.15l-2.75-8.05q-1.75-4.8-4.1-8.45-2.45-3.8-7.3-6.85-2.1-1.3-9.15-4.75-12.15-5.85-15.25-13.4-4.05-9.8-8.9-14.45-3.3-3.15-12.6-8.15-3.8-2.05-2-8.55 1.6-5.7 7.2-13.7 5.2-7.4 11.85-14 6.8-6.7 12.05-9.45 9.15-4.85 30.3 6.1 7.6 3.95 14.8 8.95"/><path fill="#965e3a" d="M89.15 59.95q1.7 2.05 9.8 6.5 9.55 5.2 17.45 12.1 17.9 13.85 22.2 32.05 3.55 15.2-2.45 32.95-19.95-5.3-37.9-27.8-4.45-5.55-10.65-14.85-4.3-6.45-5.1-6.5l-22.05-1.65q-2.85-.9-3.65-3-.75-2.05.05-6.3 1.15-6.2-1.2-11.4-2.2-4.9-7.75-9.35-1.5-1.5.95-2.95 1.4-.85 6.2-2.6 4.7-1.7 6.35-2.75 2.65-1.75 1.4-3.6l-4.4-6.6q-1.95-2.8-4-4.95 10.05 3.5 21.95 11.05 10.05 6.35 12.8 9.65m177.8 13.3l7.9 8.1q5.05 6.15 2.9 9.35l-1.4 1.8q-1.15 1.55-1.25 2.3-.35 2.5-.1 8.5.3 6.3.1 8.1-.7 6.95-8.9-6.15-9.3-14.85-5.2-24.9 1.25-3.15 3.75-5.45l2.2-1.65m68.15 170.7q0 6.35-.4 10-.75 6.6-2.95 8.75-2.55 2.55-5.55 6.5-3.1 4.15-4.4 6.8-11.45-11.6-15.25-29.3-3.15-14.5-.95-31.4 1.8-13.65 6.15-24.4 4.05-9.9 6-8.3 4.75 3.8 6.05 5.7 2.45 3.5 1.3 7.9-1.2 4.8-2.8 8.1-1.5 3-4.35 6.75-6.1 8.1 5.8 14.8 4.2 2.45 7.85 8.45 3.5 5.75 3.5 9.65"/><path fill="#bf794e" d="M32.05 295.75q1.6-5.95 4.3-8.15 2.1-1.7 8-3.05Q48 272.85 66.4 258.4q14.55-11.35 23.35-14.75L132.15 350q0 9.8-6.2 13.2-2.3 1.2-6.9 2.45-7.25 1.9-8.6 2.35-8.55 2.7-32.8.2-23.25-2.4-26.55-5.25-2.45-2.1-6-13.85l-3-11.35q-7.8-5.05-11.75-8.4-2.6-2.25-1.45-14.9.95-10.5 3.15-18.7"/><path fill="#965e3a" d="M82.7 286.35q13.5-10.15 18.3-14.4L132.15 350q0 9.8-6.2 13.2-2.3 1.2-6.9 2.45-7.25 1.9-8.6 2.35l-16.6 1.1q-12.2.2-19.6-.1-1.15-2.2-2.3-8.1-1.3-6.45-2.45-9.35-4.45-10.85-18.85-10l-4.15-2.65q1.05-.2.95-13.3-.15-12.8 1.4-12.35l6.2.25q4.15-.6 6.25-2.6 8.55-13.7 21.4-24.55"/><path fill="#fffbda" d="M102.95 367.8q.7-3.8 6.65-10.25 7.2-7.85 12.8-5.35 1.4.65 4.5 3.8 3.45 3.55 5.85 7.15 6.85 10.05 0 11.95-5.2 1.4-17.35-.8-13.2-2.35-12.45-6.5m-30.55 7.5q-8.75 4.55-19.45 7.5-10.3 2.85-11.7-7.55-.5-3.45.05-8.55l.8-6.55q.45-4.3 5.05-5.85 4.85-1.6 15.05-.35 14.2 1.75 20.45 7.3 2.25 1.95 2.9 3.9.55 1.75-.3 2.3L72.4 375.3"/><path fill="#dcd9bd" d="M119.15 374.9q-3.35-9.85-11.15-15.5 3.45-4.25 6.8-6.2 4.2-2.5 7.6-1 1.4.65 4.5 3.8 3.45 3.55 5.85 7.15 6.85 10.05 0 11.95l-5.5.4-8.1-.6m-42.9-1.7q-5.75 3.35-11.9 5.8 4.05-5.1 5.85-12.4 1.9-7.65-.4-11.3 9.8 2.4 13.95 7.05 1.55 1.65 1.9 3.25.3 1.35-.4 1.85l-9 5.75"/><path fill="#bf794e" d="M410.1 294.55q-3.1 28.05-21.25 48.8-8.4 9.6-14.3 13.55-8.05 5.4-24.95 11.1-25.05 1.05-35-13.4-7.9-11.5-5.9-32.4 1.45-14.9 7.75-32.95l6-15.1q4.55 8.1 13.5 13.95 13.65 8.8 26.55.9 13.65-8.35 26.75-22.95 11.45-12.75 12.45-17.9 1.2-5.9 3.45-3.95 2.25 1.95 3.3 10.1 3.2 25.9 1.65 40.25"/><path fill="#965e3a" d="M335.95 288.1q13.65 8.8 26.55.9 5.8-3.55 12.2-8.85 6.2 5.7 16.5 6.6 8.9.75 19.35-2.15-1.05 16.45-5.85 30.85-5.75 17.3-15.85 27.9-9.15 9.55-14.15 13-8.8 6.15-25.1 11.65-25.05 1.05-35-13.4-7.9-11.5-5.9-32.4 1.45-14.9 7.75-32.95l6-15.1q4.55 8.1 13.5 13.95m65.75-14.9q-1.25 1.65-6.1 3.7l-4.65 1.7q.75-4.3 1.85-9.2 2.2-9.7 4.15-12.5l4 3.05q2.5 2 2.75 3.35.35 1.9-.1 4.8-.55 3.35-1.9 5.1"/><path fill="#bf794e" d="M359.7 270.2q5.2-.8 7.3.9 2.35 1.9 5.2 8.35 3 6.85 2.25 9.95-.8 3.2-8.6 8.25-7.65 4.95-10.3 4.5-2.75-.45-5.8-2.55-3.25-2.25-3.1-4.05.1-1.25 3.15-10.85 2.9-9.4 3.85-11.65.85-2.1 6.05-2.85"/><path fill="#965e3a" d="M346.65 295.55q.1-1.15 2.5-8.85l4.15.3q2.4-.05 2.95-1.2.45-1.1.9-4.65.45-3.5 1.05-4.85.2-.45.9-.85l.95-.55q1.65-1.45 5.05-1.65 3.15-.2 4.15.7 2.35 3.6 4 8.05 1.8 5 1.2 7.4-.8 3.2-8.6 8.25-7.65 4.95-10.3 4.5-2.75-.45-5.8-2.55-3.25-2.25-3.1-4.05"/><path fill="#bf794e" d="M394.2 257.85q4.6 3.45 4.85 5.05.4 2-3.1 8.5-3.7 6.85-6 7-2.4.15-4.75-.7-2.15-.8-2.5-1.65-1-2.5-1.3-9.95-.35-7.4.45-9.15.85-1.75 2.7-2.7 1.9-.95 3.45-.3 2.05.8 6.2 3.9"/><path fill="#965e3a" d="M399.05 262.9q.4 2-3.1 8.5-3.7 6.85-6 7l-.55.3q-.35.2.05-.3.45-.55-1.4-9.85-1.7-8.8-2.45-11.05-.45-1.4.7-2.15l1.85-1.3q2.2.95 6.15 3.95 4.5 3.35 4.75 4.9"/><path fill="#f0e78e" d="M157.65 22.55l-19.4 23.95q-10.75-.95-17.05-12.55-5.95-14.1-10.5-19.6l-8.9-9.75q-2.6-3.35 2.3-3.5 11.95-.35 30 7.85 14.5 6.55 23.55 13.6"/><path fill="#c9c279" d="M140.2 11.9q10.85 5.55 17.45 10.65l-9.8 12.1q-5-9.8-13.6-18.35-8.1-8-18.15-13.7 10.95 2.6 24.1 9.3"/><path fill="#bf794e" d="M110.95 92.85q1.15-3.55 4.35-11.15 1.75-4.25 6.45-3.85 3.95.35 8.15 3.6 39.4 31.95 19.9 57.25-6.1 7.9-17.35 14.2-5.65 3.15-10.05 4.7-1 .35-4.05-3.95-2.15-3-4.45-7-1.35-2.45-.15-6.2 1-3.05 3.25-5.75 2.45-2.9 5.15-7.95 3.2-5.95 2.85-8.35-.3-2.25-3.15-4.15l-4.3-2.25q-1.5-.75-4.1-4-2.6-3.25-3.75-5.9-1-2.35 1.25-9.25"/><path fill="#bf794e" d="M339.3 47.8q10.3-7.25 17.1-7.5 5.65-.2 9.85 4.55 2.1 2.4 6.5 10.4 4 7.25 7.25 10.1 10.55 9.35 11.25 21.3.7 11.2-7.2 16.45-12.65 8.45-19.8 20.8-2.4 4.2-5.65 11.4l-5.65 12.2q-2.75 5.5-16.55 16.95-15.7 13-22.7 22.3 3.8 12.3 6.65 40.5 3.25 32.8 2.25 62.85-1.25 37.05-9 60.15-9.3 27.65-27.2 32.45-18.55 5-43.7 4.25-23.2-.7-46.95-6-23.25-5.25-40.1-13.35-17.6-8.45-23-17.65-24.7-13-37.2-33.35-10.15-16.55-11.6-36.6-1.1-15.55 3-29.4 1.6-5.4 3.5-8.75 1.8-3.2 3-3.1 4.2-48.6 26.4-77.7 10.6-13.85 27.2-23.75L288.2 95.45q16.6-14.95 20.9-28.55 3.15-9.75 11.85-15.45 8.95-5.9 18.35-3.65"/><path fill="#965e3a" d="M335.85 48.95q2.85-1.3 3.45-1.15 10.3-7.25 17.1-7.5 5.65-.2 9.85 4.55 2.1 2.4 6.5 10.4 4 7.25 7.25 10.1 10.55 9.35 11.25 21.3.7 11.2-7.2 16.45-12.65 8.45-19.8 20.8-2.4 4.2-5.65 11.4l-5.65 12.2q-2.75 5.5-16.55 16.95-15.7 13-22.7 22.3 3.8 12.3 6.65 40.5 3.25 32.8 2.25 62.85-1.25 37.05-9 60.15-9.3 27.65-27.2 32.45-19.95 5.35-47.3 4.1-25.25-1.15-50.2-7.5 16.7-7.65 26.45-15.1 9.6-7.25 15.45-16.55 5.1-8.15 9.45-21.4l8.6-29.55q6.15-22.6-8.3-60.1-12.55-32.5-30.7-54.5-7.9-9.35-13.2-19.45-4.7-10-6.85-13.8-3.55-6.15-9.05-9.4-6.5-3.85-19.7-6.35L274.7 99.45l16.3 2.2q8.7 1.6 14.05 4.95 5.55 3.4 14-6.25 3.2-3.6 5.4-7.65 2.15-3.85 1.9-5.4-.15-1.15-1.4-3.15l-2.45-4.1q-3.2-6.3-2.5-14.45.6-6.65 9.5-12.95 3.1-2.15 6.35-3.7"/><path fill="#fffbda" d="M18.8 71.45q-.2 3.65-.85 5.55-.9 2.85-4.8 7.8-4.4 5.55-7.5 6.6Q2.45 92.45 2 80.85q-.45-11.25 1.65-15.5 1.8-3.55 4.55-4.95 2.15-1.1 6.8-1.55l3.9 9.3-.1 3.3"/><path fill="#fffbda" d="M18.35 46.7q2.45-2.85 7.7-6.85 3.2-2.35 8.4-2.3 5.35.05 6.9 2.85Q44 45 34.75 56.15 27.15 65.2 22 68.45q-2.7 1.65-4.55-2.7-.8-2-2.6-9.55-1-4.3 3.5-9.5m15.9 29.4q-1.45-.75.7-3.4 2-2.45 6-5.35 9.95-7.2 14.7-6.05 5.8 1.4 6.15 12.35.1 4.35-1 7.3-1.2 3.15-3.25 2.8-4.05-.7-12.25-3.45-7.85-2.6-11.05-4.2"/><path fill="#dcd9bd" d="M18.9 68.15l-.1 3.3q-.2 3.65-.85 5.55-.85 2.75-5 8 1.85-12.8-2.35-25.7l3.75-.55 4.55 9.4m13.75-30.5l5.25.4q2.5.7 3.45 2.35 2.6 4.45-6 15.05-6.75 8.25-12.8 12.6 8.5-15.5 10.1-30.4m1.6 38.45q-.8-.4-.55-1.35l16.1.7q8.4-.85 11.4-6.4 1.15 5.25.1 10.15-1.15 5-3.75 4.55-4.05-.7-12.25-3.45-7.85-2.6-11.05-4.2"/><path fill="#bf794e" d="M287.75 120.65l-7.5 5.6 1.8 5.8q2.6 7.35 6.3 14.8 1.1 2.15-9.95 9-11.2 6.9-15.25 6.15-2.75-.5-5.05-3.1-2-2.2-2.05-3.6-.25-5.8-1.9-11.95l-1.65-5.05 15.25-37.25q15.05-11 17.9-8.65 2.5 2.1 6.35 9.25 4 7.5 3.65 10.35-.3 2.55-7.9 8.65"/><path fill="#965e3a" d="M292 101.65q4 7.5 3.65 10.35-.3 2.55-7.9 8.65l-7.5 5.6 1.8 5.8q2.6 7.35 6.3 14.8.6 1.1-3.4 4.4-3.8 3.05-9.15 6.1-2.65-4.1-5.05-5.7-2.1-1.45-4.45-1.25-1.55.15-5.1 1.45l-5.85 1.9-1.75-10.55-1.1-4.9 15.25-37.25q15.05-11 17.9-8.65 2.5 2.1 6.35 9.25"/><path fill="#fffbda" d="M390.2 80.15q6 1.3 6.75 8.8.8 7.65-5.15 12.5-6.45 5.2-11.5 7.4-5.4 2.3-5.4-.65 0-3.95 5.8-15.95 6.15-12.8 9.5-12.1m-32.65-36.4q4.95-5.55 14.65-2.1 7.5 2.65 11 9.05 3.1 5.7 1.3 10.35-2.55 6.6-7.55 12-5.7 6.2-7.25.9-1.2-4.2-13.25-20.6-1.4-1.9-1.15-4.65.3-2.8 2.25-4.95m-14.5 8.05q3.65 3.45 7.35 9.5 2.9 4.7 2.8 13.55-.1 8.85-2.8 6.5-3.05-2.65-12.75-7.2-10.5-5-15.8-5.7-5.35-.75 2.45-10.55 3.05-3.85 6.5-6.75 3.6-3 5.45-3 2.95 0 6.8 3.65"/><path fill="#dcd9bd" d="M390.2 80.15q6 1.3 6.75 8.8.8 7.65-5.15 12.5-6.45 5.2-11.5 7.4-5.4 2.3-5.4-.65 0-3.95 5.8-15.95 6.15-12.8 9.5-12.1M365 40.4q3.3-.15 7.2 1.25 7.5 2.65 11 9.05 3.1 5.7 1.3 10.35-2.55 6.6-7.55 12-5.7 6.2-7.25.9l-.55-1.65q1.75-7 .2-16.1-1.05-5.95-4.35-15.8m-29.9 8l1.15-.25q3 0 6.85 3.6 3.8 3.55 7.3 9.55 2.75 4.7 2.65 13.2-.1 8.5-2.8 6.2l-2.7-1.8q-.2-8.5-3.4-16.45-3.3-8.1-9.05-14.05"/><path fill="#bf794e" d="M266.25 81.15q.9 11.85 1.05 27.55-.55 3.45-4.6 9.7-3.85 5.9-5.35 6.4l-9.45-5.35q0 2.05-4.4 6.4l-9.35 8.35q-4.2 3.6-20.85 6.55l-28.1 4.2q-11.05 1.75-20.3-1.6-6.8-2.45-13.4-8.1-8.7-7.55-12.15-11.7-6.65-8-5.7-14.3-10.2-12.1-5.9-26.65 1.25-4.25 4.7-11.35t4.3-9.95q.9-3.05 1.55-7.3.6-3.55 1.25-5.3 2.05-5.25 12.8-15.7 6-5.8 22-7.1 14.45-1.2 32.75 1.55 17.9 2.7 31.7 7.95 14.75 5.65 18.8 12.1 6.95 11.1 8.65 33.65"/><path fill="#965e3a" d="M257.6 47.5q6.95 11.1 8.65 33.65.9 11.85 1.05 27.55-.85 5.2-6.25 12.15-7.05 9.05-17.8 13.95-11.5 5.25-28.5 8.05-15.25 2.5-31 2.5 4.85-2.3 7.8-6.1 3.1-4 .15-5.05-2.4-.8-8.45.65l-6.35 1.4q-2.1-1.55-.45-6 1-2.65 4.55-8.75 3.4-5.9 4.1-8.05 1.2-3.6-1.55-3.9l-13.95-1.35q-8.45-1.2-11.9-4.1-1.95-1.6-3.15-4.4l-2.05-5.45q-1.75-4.35-5.85-21.15-3.5-14.45-7.75-22.15.75-3.4 3.25-6.8 2.9-4.05 10.2-11.15 6-5.8 22-7.1 14.45-1.2 32.75 1.55 17.9 2.7 31.7 7.95 14.75 5.65 18.8 12.1"/><path fill="#dbdcdc" d="M217.45 124.9l11.6-4.95q.45 2.25-1.45 8.4-2 6.5-3.85 6.65-1.7.15-4.2-4.95l-2.1-5.15"/><path fill="#fff" d="M140.3 59.25l4.6 6.5q5.3 7.7 8.7 13.7 10.85 19.15-1.55 13.95-12.7-5.35-14.05-18.1-.8-7.55 2.3-16.05m54.35 32.3q4.3-5.65 12.1-12.65 7.9-7.15 13.5-10.4 6.35-3.65 6.25-.05l-.25 13q-.45 5.65-3.35 7.9-4.45 3.5-14.1 6.75-10.75 3.65-16.15 2.35-2.75-.65 2-6.9"/><path fill="#dbdcdc" d="M196.45 98.1l-2.1.35q-.9.2-1.7 0-2.75-.65 2-6.9 4.3-5.65 12.1-12.65 7.9-7.15 13.5-10.4 6.35-3.65 6.25-.05-.1 3.7-.05 7.6-8.35 3.05-16.55 8.8-9.05 6.4-13.45 13.25"/><path fill="#d83338" d="M152.2 80.4q.4 4-.75 7t-3.15 3.2q-2 .25-3.65-2.45-1.65-2.65-2.05-6.65-.4-3.95.75-6.95 1.1-2.95 3.1-3.2 2-.2 3.7 2.45 1.7 2.65 2.05 6.6"/><path fill="#b7272d" d="M152.2 80.4q.4 4.5-.95 7.4-1.3-2.65-3.95-6.25l-4.3-5.9q1.1-4.05 3.45-4.3 2-.2 3.7 2.45 1.7 2.65 2.05 6.6"/><path fill="#d83338" d="M202.3 77.95q2.6-2.85 5.75-2.45 3.15.4 5 3.75t1.3 7.75q-.5 4.45-3.1 7.3-2.6 2.85-5.75 2.45-3.15-.35-5-3.75t-1.35-7.8q.55-4.4 3.15-7.25"/><path fill="#b7272d" d="M200.45 93.05q-1.85-3.6-1.3-7.85.55-4.4 3.15-7.25 2.6-2.85 5.75-2.45 2.9.35 4.35 1.65 1.75 1.55 1.9 4.85-9.7 6.15-13.85 11.05"/><path fill="#595649" d="M253.65 33.95q6.25 10.65 4.55 18.5-2.25 10.1-17.95 12.2-16.1 2.2-31.4 15.2Q195.5 91.2 190.2 103.6q-6.75 3.65-22.05.5-5.3-1.1-10.1-2.7-4.25-1.45-4.6-1.95-.2-.3-.95-7.2-.8-7.5-2.4-11.7-1.15-3.15-7.85-12.9-5.95-8.8-6.4-12.2-.4-2.9 1.4-8.1 1.9-5.75 5.55-11.55 9.45-15 23.9-21.15 32.5-13.8 58.6-3.75 19.05 7.3 28.35 23.05"/><path fill="#3e392d" d="M246.4 24.65q4.45 4.55 7.25 9.3 6.25 10.65 4.55 18.5-2.25 10.1-17.95 12.2-16.1 2.2-31.4 15.2Q195.5 91.2 190.2 103.6q-6.75 3.65-22.05.5-5.3-1.1-10.1-2.7-4.25-1.45-4.6-1.95-.2-.3-.3-1.2l7.75.6 6.9.25q7.15-.45 11.4-5.65 8.9-10.65 24-23.2l25.1-20.95q6.9-6.9 8.35-16.25 1.35-8.5-2-17.55 6.5 3.9 11.75 9.15"/><path fill="#f0e78e" d="M310.2 27.9q4.8 1.15-1.5 10.6-3.65 5.45-12.15 14.95-4.3 4.75-8.4 5.95l-3.3.25-3.9 5.8q-4.5 6.25-7.8 8.45-3.7 2.45-15.25.3-10.6-1.95-17.7-5.55-5.45-2.7 3-13.55 1.95-2.5 12-13 5.45-5.55 27.65-10.75 21.05-4.95 27.35-3.45"/><path fill="#c9c279" d="M296.75 41q4-4.4 9.9-8.05 6.35-3.9 5.05 0-2.3 6.15-15.15 20.5-4.3 4.75-8.4 5.95l-3.3.25-3.9 5.8q-4.5 6.25-7.8 8.45-3.7 2.45-15.25.3-10.6-1.95-17.7-5.55-5.45-2.7 3-13.55 1.95-2.5 12-13 1-.9 2.25-1.75-4.15 8.95-4.4 13.5-.4 5.85 5.05 7.35 4.2 1.15 16.5-7.4 15-10.5 22.15-12.8"/><path fill="#f0e78e" d="M178.1 149.8q23.95.75 41.8 14.3 15.05 11.45 24.6 31 7.95 16.3 10.6 34.8 2.3 16.25-.3 25.65-25.25 21.2-55.95 24.8-24.9 2.95-51.7-5.75-20.45-6.65-38-18.45-6.6-4.45-10.95-8.4-3.9-3.6-3.95-4.85-.15-3.35.15-9.55.4-8.15 1.4-14.8.95-6.2 2.85-13.15l1.65-5.7q4.45-16.8 16.2-28.85 21.6-22.3 61.6-21.05"/><path fill="#c9c279" d="M152.55 276.8q-4.65-1.5-15.6-5.95l3.8-16.85q2.3-9.85 4.75-16.3 6.7-17.65 20.2-24.4 3.55-2.65 7.75-.9l4 1.9q2.65 1.25 4.9 1.7.7.45 4.8-1.3 4.05-1.75 4.8-1.05 1.2 1.1.4 3.05l-2.4 3.95q-3.85 5.65-1.9 8.45.85 1.2 5.35 3.25 4.15 1.9 4.95 3.85 2.25 5.25 3.3 10.8.6 3.1-1.05 7.85-1.45 4.2-4.35 8.75-1.55 2.05 1.3 4.5 3.3 2.85 3.15 4.3-21.65 8.15-34.65 7.25-6.15-.45-13.5-2.85m31.7-126.6q22.1 2.35 38.55 16.2 13.95 11.8 22.7 30.85 7.35 15.95 9.7 33.6 2.1 15.65-.4 24.7-2.9 2.45-7.5 8.7-3.75 5.1-7.6 7.1 6.95-37.55-4.15-67.8-13.45-36.7-51.3-53.35"/><path fill="#fffbda" d="M154.7 203.1l-11.2 10.55q-1.95-9.25-1.4-12.9.2-1.4 5.05-.1 2.65.75 7.55 2.45"/><path fill="#dcd9bd" d="M152.15 205.7q-2.7-3.05-6.95-5.5 1.85.35 5 1.4l4.5 1.5-2.55 2.6"/><path fill="#b6aed1" d="M125.35 225.9q3.8-3 6.25-2.8 1.9.2 3.65 3.2l2.55 4.7q1.1 1.45 3.25 1.45l4.55-.5 31.05 6.25 1.55.45q1.9.7 3.85 1.95 2.1 1.3 6-.65 3.35-1.65 4.75-3.6 1.25-1.7 3.35-1.8 2.45-.15 4.8 2.35 2.4 2.65 1.4 8.1-1 5.15-3.8 8.05-4.45 4.6-12.75 5.85l-7.4.3-.25 2.85q-.3 3.5-.3 7-18.85 2.3-36.55-3.55-5.55-1.8-10.3-4.25l-3.65-2.05 1.45-4.25q1.65-4.45 2.5-5.35-3.8-2.85-7.15-8.85-3.25-5.85-3-8.9.2-2.85 4.2-5.95"/><path fill="#9b94b3" d="M176.65 238.2l2.15.7q2.15 1.75 3.45 3.8l2.8 4.9q1.75 2.9 5.8-2.55 3.9-5.25 4.85-10.5 2.75-.35 5.25 2.35 2.4 2.65 1.4 8.1-1 5.15-3.8 8.05-4.45 4.6-10.55 6l-5.15.45.45 3.4.45 7.6-5.45-.2-5.6-.75q-.35-10-7.85-20.2-4.25-5.9-15.4-16.65l27.2 5.5m-42.3-2.55q-1.5-1-2.55-4.3-1.15-3.55-4.9-6.6 3-1.8 4.7-1.65 1.9.2 3.65 3.2l2.55 4.7-1.05 3.6q-.75 1.6-2.4 1.05"/><path fill="#fffbda" d="M155.7 241.75q7.7 1.65 13 8.7 5.75 7.6 6.5 18.9-7.95 4.9-17.6 6.3-19.35 2.75-27.85-14.9 3.85-11.05 11.35-16.05 6.85-4.6 14.6-2.95"/><path fill="#dcd9bd" d="M175.2 269.35q-2.7 1.65-6.8 3.35-1.4-13.5-3.45-18-4.2-9.2-16.6-13 9.7-1.9 17.55 5.6 8.35 7.95 9.3 22.05"/><path fill="#fffbda" d="M178.75 208.25l8.7.45q6.65.75 7 1.7.45 1.1-3.95 6.4-4.45 5.35-7.6 7.45l-4.15-16"/><path fill="#dcd9bd" d="M194.45 210.4q.45 1.1-3.95 6.4-4.45 5.35-7.6 7.45l-2.35-9.9 5.6-1.55q3.2-1.15 5.05-3.4 3.05.45 3.25 1"/><path fill="#b6aed1" d="M143.85 215.65l38.05 10.2-.7 6q-1.25 4.2-5.2 6l-9.5 4.4q-4.95 2.3-5.3 2.85-.5.8-5.3-.4-4.95-1.25-5.7-3l-2.1-5.2q-1.45-3.55-2.35-4.4-2.75-2.75-3.6-5.05-1.9-5.15 1.7-11.4"/><path fill="#9b94b3" d="M161.2 245.1q-.35.5-3.4 0 1.8-1.65 2.2-4.55.35-2.95-1.35-3.85-10.55-5.15-16.3-9.25-2.2-5.25 1.5-11.8l38.05 10.2-.7 6q-1.25 4.2-5.2 6l-9.5 4.4q-4.95 2.3-5.3 2.85"/><path fill="#4f5124" d="M144 215.5q-.85-.25.15-3.1 1.15-3.2 3.75-5.9 7.75-8 21.2-4.65 10 2.5 13.3 11.75 2.4 6.8.8 11-.6 1.45-5.5.85-5.55-.6-7.2.5-2.1 1.4-4.95 5.05l-2.4 3.35-5.05-.7q-5.1-.9-5.3-1.85l-.5-5.9q-.4-3.85-2.1-5.9-1.9-2.35-3.4-3.3-1.05-.7-2.8-1.2"/><path fill="#3c3e16" d="M157.9 235.55q-5-.65-5.2-1.65-.2-1-.3-4.2l-.2-4.6q4.45.9 8.3-.95 3.65-1.75 5.7-5.45 4.7-8.45-1.5-17.65l4.4.8q10 2.5 13.3 11.75 2.4 6.8.8 11-.6 1.45-5.5.85-5.55-.6-7.2.5-2.1 1.4-5.1 5.85l-2.6 4.2-4.9-.45"/><path fill="#fffbda" d="M129.3 225.7l-.35-4q.5-.9 3.35-2.55l2.75-1.45-.4 2.35q-.4 2.75-.4 4.55 0 1.8-2 1.75l-2.95-.65"/><path fill="#dcd9bd" d="M133.9 218.3l1.15-.6-.4 2.35q-.4 2.75-.4 4.55 0 1.8-2 1.75l-2.95-.65 2.25-3.7q1.2-2.4 2.35-3.7"/><path fill="#fffbda" d="M128.65 228.75q-.45 1.35-3 1.35-2.65 0-2.75-2.3-.1-2.1 3.15-5.6l3.25-3.05-.15 4.35q-.25 4.45-.5 5.25"/><path fill="#dcd9bd" d="M124 229.65q.15-1.75 2.75-6.3l2.55-4.2-.15 4.35q-.25 4.45-.5 5.25-.25.85-1.85 1.2-1.7.35-2.8-.3"/><path fill="#fffbda" d="M194.95 240.4q-.35-.5-1.15-3.15-.9-2.85-1.6-4.2-.6-1.05 3.45.3 3.9 1.25 4 3.25.1 2.35-1.65 3.95-1.85 1.6-3.05-.15"/><path fill="#dcd9bd" d="M194.25 232.95q2 .4 3.45 1.25 1.9 1.1 1.95 2.4.1 2-1.3 3.6-1.45 1.55-2.7.9.3-3 .2-4.2-.2-2.45-1.6-3.95"/><path fill="#fffbda" d="M194.55 247.4q-1.95 1.65-3.2-.1-.35-.5-1.2-3.15-.9-2.85-1.7-4.2-.6-1.1 3.65.25 4.1 1.25 4.2 3.25.1 2.35-1.75 3.95"/><path fill="#dcd9bd" d="M190.55 239.8q2.1.4 3.7 1.3 2 1.05 2.05 2.35.1 1.85-1.15 3.4-1.3 1.5-2.65 1.25l-.3-4.5q-.4-2.15-1.65-3.8"/><path fill="#f0e78e" d="M85.8 254.65q2.75-10.95 6.2-15.85 6.7 6.15 18.1 12.7 16.5 9.45 35.2 14.5 54.4 14.7 111.05-11.35 5.6 5.75 14.3 45.95 8.65 39.9 6.6 48.95-2.8 12.55-30.4 22.55-26.05 9.35-47.35 7.95-19.1-1.3-39.6-10.65t-27.2-19.7Q87.6 326 83.55 283.65q-1.4-14.45 2.25-29"/><path fill="#c9c279" d="M133.8 351.05q-3.8-2-8.15-5.35l-7.15-5.6q2.9 1.05 9.85 4.1 5.8 2.5 9.9 3.7 12.5 3.65 33.9 2.8 41.65-1.6 56.45-29.2 11-20.45 8.05-59 10.65-3.65 19.7-7.85 5.6 5.75 14.3 45.95 8.65 39.9 6.6 48.95-3.35 15.05-32.75 24-11.9 3.6-25.4 5.2l-22.55.9q-15.35-1.05-33.1-8-21.85-8.5-29.65-20.6"/><path fill="#bf794e" d="M344.9 322.55q3.4 24.25-5.05 52-6 19.75-13.45 30.55-3.7 5.4-24.5 7.2l-28.15 1.5q-7 .7-19.8-8-10.2-6.95-12.8-10.45-4.1-5.5-6.85-15.85-4.9-18.3-.75-40.65 7.8-42.2 25.6-61.6 15.4-16.8 35.25-13.85 18.05 2.65 32.7 19.8 14.7 17.15 17.8 39.35"/><path fill="#965e3a" d="M344.9 322.55q4 24.05-4.65 51.95-6.05 19.3-13.85 30.6-2.5 3.7-12.6 5.65-7.45 1.45-20.1 2.1 9-12.65 14.9-34.15 6.3-22.75 6.1-44.85-.3-25.1-9.15-42.15-10.2-19.6-30.6-25.8 11.5-4.6 23.4-1.85 11.15 2.55 21.1 11.15 9.6 8.25 16.3 20.65 6.75 12.5 9.15 26.7"/><path fill="#bf794e" d="M346.5 320.9l4.3 3q4.45 3.55 5.5 6.25 1.7 4.65-.5 20.35-2.45 17.7-8.2 22-8.6 6.45-20.65 5-9.7-1.2-14.65-5.5-3.45-3.05-3.05-18.75.35-14.75 3.05-22 6.4 2.15 19.75-2.9 11.4-4.35 14.45-7.45"/><path fill="#965e3a" d="M332.25 328.25q10.45-3.5 14.25-7.35l4.3 3q4.45 3.55 5.5 6.25 1.7 4.65-.5 20.35-2.45 17.7-8.2 22-5.9 4.4-13.7 5.1-6.4.6-12.95-1.35l3.95-17.4q1.85-10.7.35-17-4.35-1.7-7.6-4.65l-5.4-5.6q8.7.45 20-3.35"/><path fill="#bf794e" d="M231.9 351.35l9.65 5.3q7.4 3.2 15.35 2.85.15 2.3 4.15 14.6 3.15 9.75 1.25 12.55-2.75 4.15-11.8 5.3-9.75 1.25-14.25-3.7-4.4-4.8-8.05-15-3.3-9.15-2.8-12.15.35-2.05 3.45-6.1l3.05-3.65"/><path fill="#965e3a" d="M250.6 368.3q1.05-.55 2.3-3.5 1.4-3.35 3.65-5.3h.35q.15 2.3 4.15 14.6 3.15 9.75 1.25 12.55-1.25 1.9-2.7 2.8-1.85 1.15-5.25 1.7 2.3-1-1.2-11.65-3.55-10.75-2.55-11.2"/><path fill="#fffbda" d="M319.25 418.1q-7.15 9.6-11.3 8.75-13.15-2.65-23.55-5.85-18.75-5.75-14.9-9.75 14.3-14.65 34.75-14.6 7.75 0 13.8 2.25 5.65 2.15 6.65 4.85 1.7 4.7-5.45 14.35"/><path fill="#dcd9bd" d="M343.75 395.05q4.15 4.25 4.5 6.8.8 6.6-24 7.05l10.85-21.7 8.65 7.85m-90.05 9.15l11.35 7.95-10.05 2.3-12.9 2 5.8-5.95 5.8-6.3"/><path fill="#dcd9bd" d="M321 415.5q-4.85 7.6-9.8 10.45.75-8.75-2.85-16.4-1.65-3.65-8.1-12.75 9-.7 16.45 1.65 6.85 2.2 8 5.3 1.35 3.8-3.7 11.75"/><path fill="#dbdcdc" d="M138.4 68.45q.55-3.7 1.1-5.2l5.7 8.5q-.5.5-1.15 1.75l-1 2.45-3.05-5-1.6-2.5"/><path fill="#0d131a" d="M151.95 224.1l.6 4.55q.05 1.5-.4 1.8-2.75 2-6.35-2.3-3.7-4.35-1.9-8.75.95-2.35 2.6-2.35 1.7 0 3.45 2.55 1.6 2.3 2 4.5m26.4 6.35q-.9 3.75-6.1 4.6-5.15.9-7.8-2-.6-.65 1.6-3.15t4.85-4.05q3-1.7 5.55-.7 2.95 1.2 1.9 5.3"/><path fill="#fff" d="M151.55 223.45q0 2.4-1.35 2.4-.8 0-1.5-.6-.75-.65-.95-1.65-.2-.95.45-1.75t1.45-.8q.8 0 1.35.7t.55 1.7m21.9 5q-.2.9-1.25 1.4-.9.45-1.85.3-.8-.1-1.1-.85-.4-.75.05-1.65 1.05-2.25 2.55-2.05.8.1 1.35 1 .5.85.25 1.85"/><path fill="#c9c279" d="M100.7 245.5q-3.4-2.3-5.4-4.4l-1.3-1.65 18.4 9.3q3.8 2 9.6 3.9l6.3 2.05-2 5q-8.1-2.8-15.5-7.3l-10.1-6.9m92.95 21.45q5.8.35 21.9-2.15 17.55-2.75 29.5-6.4-9.05 4.4-14.5 6-11.25 3.25-33.35 5.7l-3.55-3.15"/><path fill="#fff" d="M133.65 109.25l7.8 7q-1.4 1.8-2.85 4.1l-1.35.15q-1.1-.3-1.4-.85-1.45-2.55-1.95-6.7l-.25-3.7"/><path fill="#dbdcdc" d="M134.5 109.6l6.35 5.8q.45.45-.75 2.5-4.3-3.55-5.9-6.5l.1-1.35.2-.45"/><path fill="#0d131a" d="M149.15 81.55q-.2 1.5-.8 2.5-.55 1-1.15.9-.6-.1-.95-1.25-.35-1.25-.15-2.7.2-1.45.9-2.45.65-.9 1.25-.8.6.1.85 1.2.3 1.1.05 2.6m59.25 5.15q.2 1.75-.35 3.1t-1.5 1.45q-.95.1-1.7-1.15-.8-1.2-1-3-.15-1.8.4-3.1.5-1.35 1.45-1.45.95-.05 1.75 1.15.75 1.2.95 3M334.35 388l1.05-2.4 8.2 7.85q7.95 8.35 6.95 11-1.05 2.85-7.8 4.2l-18.5 1.4-.05-2.25q21.2-.4 22.85-4.8.65-1.75-5.95-8.55l-6.75-6.45m-69.55 23.1l.5 2.15q-16.85 5-27.8 5.25-10.1.25-10.8-3.4-.75-3.6 4.55-10.85 4.65-6.4 9.2-9.8l1.35 1.8q-4.3 3.25-8.25 9-4.15 5.95-3.6 8.6.5 2.5 10.9 1.65 10.35-.8 23.95-4.4M41.3 337.95l1.35 3q-4.55 2.55-11.35 9.15-7.1 6.9-6.7 8.9.3 1.35 4.7 2.25l12.65 1.15q.7 1.45-.3 2.5-7.75.65-13.9-1.05-5.6-1.55-6.3-3.75-1-3.15 7.6-11.85 7.6-7.7 12.25-10.3M10.75 87.65q.85-.5 1.7-2.25 6.25 3.6 9.6 7.4 4.1 4.6 7.65 13.25 1.95 4.8 6.65 8.2 2.8 2.05 9.5 5.25 5.9 2.85 8.55 4.6 4.5 2.95 6.9 6.75 2 3.05 3.5 6.7l2.25 6.4q2.05 6.4 3.8 9.4 2.75 4.9 7.8 8.8 9.15 7 16.7 16.35 6.9 8.6 8.45 13.9l-2.75 3.15q-1.35-4.9-7.75-13.7-7.65-10.55-16.5-17.35-5.8-4.45-8.45-8.4-2.15-3.1-3.95-8.75l-2.4-7.9q-1.75-5.45-3.45-8.15-2.05-3.2-6.05-5.4l-7.95-3.7q-7.2-3.45-10.2-5.65-5.25-3.85-7.4-9.35-4.1-10.4-7.65-14.2-2.25-2.4-8.55-5.35m90.8-21.8l8.9 5.15q5.15 3.2 8.15 6.15l-3.25 2.45q-2.85-2.85-7.6-5.95-2.55-1.65-8.5-5.05-4.8-2.7-6.7-3.95Q89.4 62.6 88 60.9q-4.7-5.55-20.3-14.05-18.65-10.15-28.2-8.2l-2.35-1.4q10.5-4 29.7 5.8Q81.9 50.7 90.25 59q1.25 1.2 4.7 3.2l6.6 3.65M267.8 75.4l2.1-.9q5.3 5.1 7.4 8.2 3.5 5.25 1.25 8.55l-4.25 5.25-3.4 1.2 4.95-6.85q1.65-2.4-1.7-7.75-2.5-4.05-6.35-7.7m57.75 113.35q2.45 4.1 1.55 7.7-1.15 4.65-3.4 8.45-1.25 2.1-4.7 6.65l-.75-2.8q2.1-2.95 3.35-5.6 1.35-2.95 2.45-7.2.9-3.65-2.9-8.4l-4.05-4.05 1.7-2q4.55 3.55 6.75 7.25m8.4 55.2q0-3.65-3.35-9.15-3.45-5.7-7.4-7.95-1.9-1.05-3.7-2.5l.1-2.85q1.65 1.65 4.7 3.4 4.8 2.75 8.7 7.65 4.15 5.2 4.15 9.1 0 7.85-.35 11.35-.7 7.55-3.05 9.9-2 2-6.7 8l-4.35 5.7-1.85-1.25 3.9-5.6q4.1-5.75 6.2-7.85 3-3 3-17.95m-248.5 123.5q10.6.75 17.6.25v2.7q-8.15.5-20.15-.35 1.55-1.1 2.55-2.6m44.8-19.05l3.4 1.6q0 6.8-2.6 10.6l-2.7-2.75q1.9-3.4 1.9-9.45M43.7 284.55q1.6-5.5 2.25-4.9.65.55 0 4.1-.55 3.3 2.75 9.95 3.65 7.45 9.35 12.6 2.05 1.9.95 1.75l-1.45-.5q-4.25-1.6-9.55-9.15-5.9-8.4-4.3-13.85"/><path fill="#0d131a" d="M89.8 241.6l-.9 4.45q-2.4.7-8.35 4.35-6.75 4.15-13.25 9.25-18 14.05-21.5 25.35l-.25.8-.85.2q-5.6 1.3-7.4 2.8-2.35 1.9-3.8 7.3-2.2 8.2-2.75 18.8-.55 11.05 1.45 12.8 7.55 6.5 12.15 9.15 4 2.3 6.4 2 2.25-.3 6.3-11.1 3.5-9.35 4.1-13.3.35-2.45.95-2.4.6.05.6 2.2 0 3.65-3.6 14.45-4.15 12.45-7.7 12.9l-3.85-.15-3.4-1.55q2 7.8 4 13.75l-2.85.85q-2.6-7.55-4.5-15.85-2-1.25-10.55-8.7-1.4-1.2-2.25-3.4-.95-2.5-.95-5.7 0-6.2 1.5-15.35 1.1-6.5 2.05-10.15 1.65-6.15 4.45-8.6 2.4-2.1 8.2-3.5 4.25-11.95 23.5-27 7-5.5 14.2-9.95 6.35-3.95 8.85-4.7"/><path fill="#0d131a" d="M34.7 292.45q.3-3.7.8-4.2.5-.6.75 2.8.3 4.45 3.35 10.55 3.75 7.55 9.65 12.1 2.45 1.85 1.8 1.95-.5.05-2.6-.9-4.45-2.05-9.25-9.85-4.85-7.85-4.5-12.45m61.8 26.25l-3.25 1.65-3.6 1.6q-1.6.95-2.2 2.55-.45 1.25 0 11.5.5 10.15 1 11.3 1.15 2.45 5.05 3.75 3.55 1.2 6.15.6 3.5-.75 8.1-3l11.6-6.2 1 1.35-12.2 6.6q-5.2 2.5-8.75 3.3-4.35.95-8.35-.9-2.95-1.35-4.25-3.25-1.25-1.85-1.8-13-.55-10.85.15-12.75.7-2 2.4-3.2l3.3-1.9 2.55-1.15 2.1-1.05 1 2.2"/><path fill="#0d131a" d="M94.6 341.6q-1.3-9.5.2-13.05 1.15-2.7 5.4-3.8l.35 1.3q-4.85 1.2-4 14.95.3 4.4-.65 4-.9-.45-1.3-3.4m10.15 27.85q3 2.75 13.75 4.25 10.05 1.4 13.95.35 2.4-.7 2.5-2.6.3-3.8-5.45-10.85-5.15-6.3-7.6-7.35-2.65-1.2-6 .6-4.05 2.15-8.1 7.65-3.4 4.6-3.75 6.5-.2.6.7 1.45m9.6-17.7q2.95-1.6 4.85-1.75 1.75-.15 4.1.9 4.45 1.95 10.2 10.75 6.1 9.3 4.1 13.1-.7 1.4-5.25 2.25l-10.35.75q-14.9-.5-20.75-7.3-1.1-1.3 2.15-7.4 3.85-7.35 10.95-11.3m-70.65 3.1q2.5-1.95 7.45-2.65 5.25-.7 12.2.15 17.3 2.1 22.45 8.9 1.9 2.45 1.7 5.05-.15 2.2-1.6 3.3-7.4 4.95-13.75 8.15-9.45 4.7-20.1 7.65-6.35 1.8-9.85-1.25-3.75-3.25-2.85-15 .85-11.45 4.35-14.3m35.45 5.4q-6.65-3.9-17.1-5.2-13-1.55-16.95 1.55-2.05 1.65-2.5 11.6-.45 10.3 2.3 12.75 2.55 2.25 7.75.75 11.7-3.2 22.3-8.6 9.65-4.95 9.65-6.85 0-2.75-5.45-6M344.8 290.5l2.05.4q-1.2 1.75-1.2 2.8l-1.6-.35q-8-2.1-14.9-8-5.2-4.4-7.45-8.45l2.05-3.5q2.2 3.95 6.9 8.5 6.9 6.65 14.15 8.6m27.65-10.55q4.4-3.6 9-8.35 0 .7.35 1.55l.75 1.45q-4.65 4.65-8.55 7.9-.45-1.3-1.55-2.55m36.5-31.15q5.9 22.65 2.9 44.9-2.75 20.35-12.45 37.65-9.15 16.3-22.45 26.5-13.25 10.15-27.2 11.6l2.9-3.45q33.4-12.65 47.65-43.75 14.2-31.05 5.7-72.7-.65-3-1.25-3.1-.6-.05-2 2.55-2.5 4.45-7.25 10.7l-2.05-2q3-3.95 6.45-10 3.6-6.5 5.4-6.25 1.75.2 3.65 7.35"/><path fill="#0d131a" d="M363 270.65q-2.5-.1-5.05.55-3.2.9-3.7 2.1-1 2.55-3.9 11.75-2.95 9.45-3.05 10.55-.1 1.4 2.3 3.05 2.35 1.55 4.9 2 2.35.4 10.3-3.95 8.3-4.5 9-7.45.75-3-2.25-9.65-2.8-6.2-5-8-1-.8-3.55-.95m-6.15-1.6l5.95-.45q3.45.3 4.9 1.45 2.5 2 5.55 8.65 3.2 7.15 2.35 10.55-.85 3.4-9.25 9.05-8.3 5.55-11.25 5.05-3.4-.55-6.7-2.65-4.1-2.65-3.45-5.6.95-4.35 3.8-13.15l3.5-10.15q.75-1.8 4.6-2.75m30.9-14.45q-1.3-.5-2.95.3-1.65.8-2.35 2.3-.7 1.6-.4 8.8.3 7.3 1.3 9.8.25.6 2.15 1.25 2.15.8 4.4.65.95 0 2.65-2.2 2.15-2.75 4.15-7.15 1.9-4.2 1.7-5.35-.25-1.35-4.6-4.6-4.05-3.05-6.05-3.8m.05-2.25q2.2.9 6.8 4.2 5.4 3.85 5.75 5.7.25 1.55-1.8 6.35-2.15 4.8-4.4 7.7-2.45 3.15-3.95 3.2-2.6.2-5.55-.8-2.85-.9-3.3-2l-.15-.75q-1.1-2.65-1.35-9.8-.25-7.1.6-9.05 1-2.2 3.25-3.75 2.35-1.7 4.1-1"/><path fill="#0d131a" d="M357 276.15q.35-2.05 3.7-2.9l4.6-.35q1.3.05 1.2.35-.1.2-1.2.5l-3.75 1q-2.75.95-2.9 2l-.5 6.65q-.65 8.85-1.85 13.05-.5 1.75-.8 1.45-.25-.3-.1-1.7l1.05-13.1.55-6.95m29.15-15.55q-.6-1.9-.2-2.05.45-.1 1.1 1.8 1.15 3.15 2.1 7.4 1 4.5.8 5.9-.25 1.45-.85 1.8-.6.35-.5-.65.1-1-.7-6.05-.9-5.55-1.75-8.15m4.65 46.85q-1.15-1.9-2.25-3-.9-.9-1.3-.85-2.25 1.15-5.8 2.05l-5.85 1.2-3.95.8-.25.2q-.2.55 1.95 4.4 2.4 4.3 3.45 6.9 2.05 4.75 2.55 9.25.1.95.7 1.15 1.75.45 6.05-3.05 4.15-3.4 6.7-7.1 1.35-1.95.6-5.55-.65-3.15-2.6-6.4m-5.8-5q2.45-1.1 3.95-.4l2.2 2q2.8 3.1 3.9 7.2 1.5 5.25-1.1 9.15-2.45 3.75-7.05 7.6-5.15 4.35-7.55 3.75-1.45-.3-1.7-2.25-.9-7.95-5.85-16.75l-2.15-3.35q-.9-1.85.5-3 1.1-.9 6.25-1.75 5.9-1 8.6-2.2"/><path fill="#0d131a" d="M377.95 310.55q-.95-.8-.95-1.4 0-.65 1.6.25 8.5 5.05 5.15 14.6-.45 1.4-.9 1.45-.5 0-.35-1.9.65-6-1.55-9.7-.6-1-3-3.3M132.7 6.35q14.85 6.25 23.75 14.8l-1.35 1.75q-7.1-6.4-21.9-13.1-17.4-7.9-29.05-7.55-1 0-.3 1l2.05 2.35 3.05 3.45 3.3 4.05q1.85 2.25 3.65 6.4l2.9 6.95q4.1 9.1 7.1 12.55 4.85 5.75 12.45 6.4l-.2 2.2q-8.4-.7-13.85-6.95-3.2-3.75-7.55-13.25l-3.15-6.5q-1.85-3.5-3.75-5.8l-5.6-6.2-3.75-4.25q-1.25-1.7-.75-2.95.7-1.6 4.3-1.7 12.8-.35 28.65 6.35m-19.1 74.5l.3-.75q1.8-4.3 6.15-4.35 2.8 0 8.35 2.15l-.35 3.25q-5.3-2.1-7.5-2.15-3.05-.05-4.35 3.05l-.3.75q-2.75 6.65-4 10.35-2.15 6.55-1.3 8.55 1.1 2.5 3.65 5.7 2.45 3.1 3.75 3.75l.85.4q2.95 1.3 5.1 3.4-.7-5.6-2.65-8.65-1.15-1.8-2.8-2.75l-3.25-1.4q-2.1-.9-2.5-1.55-.5-.7 1.95-.45 6.45.8 8.25 4.7 4 9 2.8 15.7-1.2 6.6-8 14.8-2.2 2.6-3.15 5.5-1.05 3.25.15 5.3 1.9 3.3 4.3 6.3 2.1 2.55 3.4 3.5-.7 2.8-1.8 2.2-3.45-1.95-8.65-10.95-2.7-4.75 3.1-11.8 4.4-5.25 6.3-8.7 2.05-3.8 2.65-8.15-.25-1.7-2.35-3.2l-3.65-2.05-.9-.4q-1.9-.95-4.8-4-3.1-3.3-4.25-5.9-1.9-4.4 5.5-22.15"/><path fill="#0d131a" d="M124.75 142.35q4.1 3.45 6.35 4 2.15.55 1.05 1.25l-1.55.6q-1.75-.2-5-2.8-3.2-2.55-4.9-5-1.05-1.5-1.05-2.55 0-1.05.7.15.85 1.4 4.4 4.35M359.9 39.15q1.8.4 3.35 1.3-1.1.25-2.8 1.95l-1.2-.35q-6.85-1.6-19.1 6.95l-.55.4-.65-.15q-8.55-2.05-16.95 3.3-8.45 5.4-11.45 14.8-4.5 14.05-21.35 29.2l-2.75-2.6q11.15-8.75 15.75-15.3 2.95-4.3 5.5-12.2 3.35-10.45 12.45-16.3 9.1-5.9 18.8-3.9 13-9 20.95-7.1m15.5 68.7l1.5 2.5q-6 5.15-9.85 11.35-2.45 3.9-6.6 13.2l-4.9 12.25q-1.9 3.9-7.25 9l-10.65 9.15q-7.4 6.15-11.35 9.85-6.45 6.05-10.95 11.95 4.8 15.1 7 37.95 2.05 21.35 2.05 52.25v2.7q-1.6-2.05-3.1-3.05.05-27.3-2.85-53.65-2.55-23.05-5.75-33.55-4.65 5.75-6.85 7.95-1.55 1.55-1.4.15.15-1.35 1.65-4.15 2.1-3.9 11.55-13.7 9.6-9.95 18.1-17l9.6-8.3q4.5-4.35 6.3-7.9l4.6-9.95q4.65-10.3 7.55-15.1 4.75-7.85 11.6-13.9m6.75-41.25q7.1 6.8 9.5 14.1l-1.5.2-1.4.15q-2.15-6.95-7.9-12.8l1.3-1.65M2.65 64.85q2.05-3.95 4.7-5.45 2.3-1.35 6.9-1.75l.5 2.2q-4.3.4-6.2 1.45-2.25 1.25-3.9 4.55-1.65 3.2-1.6 12.6.05 9.5 1.9 11.7l.35.15q2.75-.9 6.95-6.2 3.75-4.75 4.65-7.45.6-1.8.8-5.25l.1-3.2 2.25-.05.2 3.15q.1 3.4-.6 5.4-1 3.1-5.35 8.55-4.9 6.1-8.3 7.2-1.5.55-2.75-.85Q.5 88.4.05 79.85q-.45-9.15 2.6-15"/><path fill="#0d131a" d="M40.4 40.95q-.8-1.4-3.5-2.05-2.55-.5-5.5.05-2.9.5-4.65 1.8-12.2 9.1-10.8 15.2l.3 1.3q.95 4.35 1.65 6.5 1.15 3.5 2.3 4l1.2-.25q4.55-2.85 11.4-10.8 8.05-9.2 8.05-13.95 0-1.05-.45-1.8M25.4 39q2.3-1.7 5.2-2.5l6.05-.25L40 37q1.75.6 3 2.4 5.55 7.75-17.1 28.25-5.55 4.95-7.75 2-1.2-1.65-2.2-4.75-.8-2.35-1.9-7.15l-.3-1.3q-1.1-4.8 3.7-10.4Q20.05 43 25.4 39m35.15 34.4q-.35-9.85-5.15-11-2.65-.65-11.6 4.85-9 5.5-9 7.85 0 1.2 9.45 4.1 8.25 2.5 13.5 3.45 1.3.25 2.15-2.65.75-2.8.65-6.6M32 75.2q-.15-.95 2.45-3.65 2.6-2.8 6.3-5.5 9.7-7.2 15.15-5.85 4.35 1.05 6.15 7.5 1.6 5.7.4 11.55-.8 3.75-2.2 5.25-1.05 1.1-2.15.9-11.4-2.05-18.65-4.9-7.1-2.8-7.45-5.3m253.05 17.95q-.75-.6-5.05 1.9-4.85 2.8-12.75 8.75l.05-3.6q15.45-11.65 18.95-8.55 2.55 2.1 6.7 9.45 4.4 7.85 4.4 11.35v.55q-.35 2.55-7.05 7.6l-9.2 6.25q1.45 4.55 2.95 8.25 2.1 5.15 5.6 12 .65 1.6-.05 2.4-2.75 3.45-12.6 8.75-9.1 4.9-12.7 5.6-2.8.55-6.15-2.9-2.8-2.9-3.8-5.65-.55-1.5-1.05-8.05l-.65-9.3q-.25-2.6.45-3 .65-.35 1.05 2.3l1.25 9.55q1 7.1 1.35 7.7l2.6 3.6q2.4 2.8 3.95 2.95 1.95.15 8.45-2.95 6.85-3.2 11.4-6.7 3.5-2.65 4.3-4.25-4.8-9.6-7-15.6-2.1-5.85-2.5-10.35-.25-3.15 1.95-5.45 1.8-1.8 6.95-4.7 2.2-1.2 2.45-.6.3.6-1.3 1.45-2.55 1.55-4.6 3.35-2.15 1.9-2.95 3.5-1.15 2.4.1 6.2 4.95-3.35 9.05-6.95 4.85-4.3 5.1-6.1v-.35q0-2.9-3.75-9.85-3.65-6.65-5.9-8.55"/><path fill="#0d131a" d="M269.6 147.15l10.05-5.3q.95-.6 1.2-.2.3.4-.45 1.25-1.4 1.7-7.5 4.95-7.65 4.05-12.35 3.65-1.15-.1-1.2-.5-.05-.35 1.05-.5 2.75-.4 9.2-3.35M387.3 80.1q1.65-1.35 3.15-1.05 3.8 1.3 5.9 4.15 2.1 2.85 2.15 6.65.2 6.6-3.3 10.6-4.5 5.25-11 8.3-5.95 2.75-9.95 2.2-1.1-.2-1.1-2 0-4.9 3.55-13.45 4.35-10.35 10.6-15.4m2.65 1.15q-.5 0-1.25.6-5.2 4.2-9.7 15.5-4.3 10.6-2.85 11.25 1.15.55 5.1-1.45 4.55-2.25 9.85-6.6 3.25-2.6 4.35-6.6.9-3.25.15-6.45-.6-2.5-2.1-4.15-1.5-1.65-3.55-2.1m-27.85-39.2q-2.65.9-4.15 3-1.4 1.9-1.6 4.1-.2 2.25.95 3.55 3.85 4.1 9.35 13.9 4.85 8.55 5.3 8.6 1.95.25 5.9-4.9 3.8-4.95 5.6-9.65.65-1.7.45-3.95t-1.2-4.45q-3.05-6.8-10.9-9.55-5.65-2-9.7-.65m10.45-1.45q7.3 2.6 10.9 8 3.15 4.7 3 10.5-.1 3.7-3.4 9.2-3.7 6.05-8.1 8.25-2.85 1.45-4.35 1.1-1.4-.35-1.95-2.35-2.75-9.55-9.9-17.6L355.2 53q-2.95-4 .95-9.3 2.45-3.35 6.8-4.15 4.35-.8 9.6 1.05M352.1 60.55q2.05 3.5 2.5 9 .5 5.45-.85 9.7-.95 3-2.25 3.2-1.35.2-5.15-2.3-4.8-3.15-12.55-6.55-8.35-3.65-12.75-4.25-1.4-.2-1.9-1.05-.45-.75-.35-2.25.3-4.3 7.05-11.75 6.8-7.45 10.4-7.25 8.25.6 15.85 13.5m.55 13.5q.15-6.85-3.75-13.65-2.8-4.8-6.05-7.8-3.6-3.3-6.6-3.3-2.6 0-8.75 6.65-6.25 6.75-6.45 10.25l-.05.15q0 .45.25.65l.75.3q9.4 2.3 20.15 8.1l8.95 4.8q1.4-.75 1.55-6.15m-87.4 16.5q-1.05-13.9-1.85-15.4-.8-1.45.25-1.6 1-.15 2.15 1.45 1.05 1.55 2.15 10.6.95 8.35 1.05 14.05.2 10.4-1.4 14.35-1.8 4.3-9.35 10.85-2.9 2.55-3.4 1.9-.55-.6 2-3.4 3-3.2 5.45-7.05 2.95-4.55 3.5-7.7.55-3.9-.55-18.05m-36.85 29.5l2.15-.2q-.2 7.1-2.35 11.6-2 4.1-4.65 4.4-1.3.15-3.8-3.25-2.45-3.35-4-7.45l2.65-.45q.45 2.6 2.5 5.85 2 3.1 2.95 3.1 1 0 2.75-4.75 1.8-5.05 1.8-8.85"/><path fill="#0d131a" d="M206.2 125.8q14.55-2.75 21.55-6.2 5.85-2.95 11.05-9.1 2.1-2.45 2.15-1.45 0 .9-1.6 3.65-3.55 5.85-10.85 9.25-7.3 3.45-22.1 6.05-3.6.65-9.15 2.6l-9.85 3.45q-12.4 4.1-20.95 2.75-3.9-.6-7.05-2.4-3.05-1.75-5.9-4.95l-8-8q-7.45-7.25-10.4-9.65-1.5-1.15-3.05-2.8-7.15-8.5-7.15-17.8 0-5.25 1.9-10.5 1.05-2.85 4.3-9.3 5.1-9.9 5.4-12.05l1.55 2.65q-.9 2.95-3.9 9.2-3.1 6.2-4.25 9.45-2 5.5-2 10.2 0 10.1 9.2 19.7l8.8 8.35q5.95 5.45 9.3 9.25 2.6 2.9 5.65 4.4 2.65 1.3 6.05 1.75 8.55 1.2 21.35-2.8l9.7-3.35q5.4-1.8 8.25-2.35"/><path fill="#0d131a" d="M207 140.95q19.95-3.95 26.2-7.85 9.7-6.15 13.1-11.7l2.7-4q.85-.85.4 2.05-.55 3.3-4.7 7.95-4.25 4.8-9.6 7.95-7.35 4.3-29.15 8.45-22.25 4.2-32.95 2.95-10.1-1.2-20.9-9.3-9.55-7.15-15.55-16.3l2.25-.5q5.45 8.15 15.15 14.9 10.45 7.25 19.6 8.25 12.05 1.35 33.45-2.85"/><path fill="#0d131a" d="M157.05 118.75q.3-.35 1.35 1.2 1.15 1.75 1.75 4.05.25 1-.8 1.2-1 .25-1.25-.75-1.3-5.4-1.05-5.7m18 6.9q1.3-1.55 3.85-2.65 2.25-1 2.45-.65.15.25-1.55 2l-3.1 2.9-1.7.05q-.7-.75.05-1.65m-23.3-31.55q-11.95-4.9-14.6-14-2.15-7.45 1.9-18.55l1.5 1.4q-2.9 8.05-1.45 15.2 2.1 10.25 13.2 14.6l-.55 1.35m70.7-5.35q1.9-1.45 2.7-7.35.55-4.4.6-13.1l2.25-.1q.8 18.7-3 21.65-4.15 3.25-14.3 6.25-10.45 3.1-18.05 3.1v-1.45q7.15 0 16.65-3 9.1-2.85 13.15-6"/><path fill="#0d131a" d="M144.25 70.8l.75 2.1q-2.2 3.15-1.65 9.15.55 6 3.25 7.6l2.45-.1q1.4-.8 2.15-3l.7 1.9q-1 1.9-3 2.5-1.85.55-3.1-.45-3.35-2.75-3.95-9.55-.65-6.85 2.4-10.15m54.05 20.85l1.6-1.5q1.55 3.65 4.4 4.85 2.75 1.1 5.1-.75 3.2-2.5 3.85-7.3.65-4.75-1.6-8.9l1.95-1.55q2.3 4.35 1.7 9.8-.7 5.95-4.65 9.05-2.6 2.05-6.25 1.45-4.25-.7-6.1-5.15"/><path fill="#0d131a" d="M258.5 40.75l-1.25.8-1.4.7q-4.65-14.3-19.4-24-15.3-10.05-34.1-10.05-26.5 0-46.3 15.1-8.8 6.7-13.75 14.9-5 8.25-5 16.25l.05.85q.3 2.8 2 5.05 8.05 10.4 10.8 16.6Q153 83.4 153.8 93.1l.15 3.35q.1 1.65.4 2.45.6 1.7 14.2 4.05 14.75 2.55 20.95-.45 5.55-12.45 17.6-23.1 14.6-12.95 31.65-15.65v2.55q-14.5 1.5-29.25 14.65-12.85 11.4-17.9 23.25l-.25.4q-.55.5-2.2.8-11.05 2.1-24.2-.55-11.2-2.25-12.75-4.6-.5-.8-.9-5.05-1-10.65-3.15-15.8-2.45-5.65-11.3-17.3-2.35-3.1-2.65-5.35-1.1-8.35 3.65-17.5 4.65-9.05 13.9-16.65 21.1-17.4 50.6-17.4 19.35 0 34.25 8.9 15.95 9.5 21.9 26.65"/><path fill="#0d131a" d="M297.5 38.65q5.8-5.85 10.3-7.1l1.95-.05q-.1.55-1.7 1-4.8 1.95-11.15 9.4-6.4 7.6-11 16.9 1.4.05 3.35-.85 3.1-1.55 6.45-5.25 16.7-18.65 15.35-22.85-.2-.65-1.15-.85-5.85-1.4-26.65 3.4Q261.3 37.5 256 42.9l-1.3 1.3q-15.5 15.3-15.5 21.05l.05.55q.15 1.15 1.45 1.85 6.65 3.3 18 4.85 11.7 1.55 15.1-.75 4.8-3.2 8.35-9.85l5.5-10.65q4.45-7.2 9.85-12.6m17.7-10.25q1 3.2-4.6 10.8-3.35 4.55-12.2 14.45-3.75 4.15-7.95 6-3 1.3-5.05 1.2-2.1 5.8-4.95 9.2-2.8 3.35-7 5.1-4.65 2-16.2-.1-10.7-1.95-17.55-5.4-2.35-1.15-2.65-3.5-.65-3.9 4.7-11 3.75-5 11.35-12.55l1.3-1.25q5.9-6 27.95-11.45 21.2-5.25 30.1-3.85 2.15.3 2.75 2.35M145.3 355q-8.9-2.65-11.85-4.75l-8.05-5.15q2.5 1.5 11.25 4.35 12.3 4 25.65 6.35 40.1 6.95 69.85-4.5l.35 1.6q-29 11.15-64 6.85-12.4-1.55-23.2-4.75m46.55 25l-5.1-2.25q6.55.75 19.2.35 14.15-.5 23.95-2.25l.6 1.75q-7 2.75-20.8 3.05l-17.85-.65"/><path fill="#0d131a" d="M231.85 177.2q-10-12.45-24.3-19.1-13.95-6.55-30.75-7-38.45-1.05-58.05 19.7-20.45 21.7-23.9 70.65l-1.65-1.2-3.75 8.55q-3.85 10.8-4.25 21.75-.8 20.15 7.45 37.65 11.8 25.2 40.7 40.4l.35.2.25.4q5.1 8.7 21.8 16.85 16.7 8.1 40.3 13.4 18.85 4.25 37.6 5.55l1.25 1.7 1.3 1.5q-34.55-2.05-65.3-12.85-31.05-10.95-39.25-24.25-27.9-14.8-40.2-37.95-9.2-17.3-9.2-38.25 0-7.8 1.3-15.95.85-5.35 1.8-8.65 1.1-3.7 2.4-6.6 2.15-4.8 4.2-6 3.5-38.6 17.2-63.7 13.1-23.9 36.15-36.7 3.85-2.15 3.5-1.05-.35 1.1-3.4 2.95-20.2 12.15-32.9 34.35 9.65-11.65 24.05-17.95 17.65-7.7 41.6-6.95 34.45 1.15 55.45 27.15 14.5 18 20.55 42.35 5.45 21.95 1.75 37.6l-2.2-.4q2.55-13.7-2.1-34.8-5.7-25.95-19.75-43.35"/><path fill="#0d131a" d="M141.6 199.55q.95-.55 7.25.9l6.1 1.6-2.85.85q-8.8-2.85-9.35-2.05-.5 3.4 1.45 11.5l-1.05 2.25q-1.45-3.15-2-8.85-.55-5.6.45-6.2m-1.5 33.8q-1.85 0-2.85-1.35l-1.55-3.35-1.45-2.65-.3-1q-.1-.65.3-1.15 1.05 1.1 2.6 4.2l1.45 2.55q.75.95 2 1.15l3.15-.2 1.3-.1.9 1.15-2 .25-3.55.5m36.65 4.2l1.7.5q1.95.7 3.95 2 1.75 1.1 5.4-.7 3.15-1.6 4.45-3.4l.65-.75.85 1.1-.45.45q-1.5 2.2-4.75 4.05-4 2.3-6.3.8-1.85-1.2-4.85-2.2l-2.65-.8 2-1.05m24.55 7.2q.8-5.5-1.45-7.95l-.3-.65-.15-1q3.9 1.3 4 7.4.05 3.2-1.1 6.55-1.1 3.35-2.85 5.1-4.2 4.3-9.45 5.55l-6.6.4 1 10.25-1.75-.3q-.15-6.45-1.2-14.45-.25-1.9.15-1.7.35.25.7 1.4l.85 3.45 4.95-.45q5.7-1.35 9.95-5.75 2.5-2.55 3.25-7.85m-78.85-17.85q0 1.8.5 2.4-1.05 1.4-1.15 2.6v.3q0 3.05 2.95 8.25 3.1 5.45 6.65 8.1l1.6-2.2q1.85-2.3 2.95-2.75 1.15-.45.4.5l-2.8 3.5q-1.55 2.15-3.15 5.6-1.4 3.05-2.25 5.7l-2.65.75 2-4.45 2.9-5.5q-6.7-5.75-9.45-12.1-3.05-7.2 1.5-10.7m16.25 19.45q5.1-4.4 11.15-5.3l.35 1.75q-6.15.75-11.3 5.45-5.3 4.75-8.5 12.75l-1.25-.5q3.7-9.05 9.55-14.15m23.65-1.75l1.4-.05q5 3.5 8.1 9.45 3.45 6.6 4 15.35l-1.3.05q-.65-9.2-4.5-15.8-3.45-5.85-8.85-8.75l1.15-.25m31-33.6q-.15-.75-5.55-1.55l-7.75-.5-.95-1.75 7.85.8q7.85 1.15 8.45 2.6.55 1.45-4.4 7.2-4.7 5.4-7.9 7.6l.3-2.5q2.9-1.95 6.6-6.55 3.45-4.35 3.35-5.35"/><path fill="#0d131a" d="M143.25 215.3l1.15.65q-5.1 8.95 1.6 15.45l.25.25q1.1 1.1 3.45 7.1l1.1 2.5q.6 1.35 5.1 2.35 4.2 1 5.3.55.5-.5 3.25-1.8 1.95-.9 9.25-4.15l2-.95q3.3-1.5 4.55-5.3.65-2.05.85-5.95l1.4-.15-.35 6.4q-.85 4.3-4.5 5.95l-2.85 1.35q-11.5 5.1-12 5.7l-1.2.5-2.3.2q-2.5-.2-5.25-1.15-3.75-1.2-4.45-2.8l-1.15-2.75q-2.2-5.7-3.15-6.65l-.9-.6q-2.6-2.6-3.35-5.35-1.4-5 2.2-11.35"/><path fill="#0d131a" d="M144.3 214.65l.05.25q5.05 1.5 6.95 5 1.5 2.65 1.8 8.3l.1 5.15q.1.8 4.4 1.65 4.35.8 4.95 0l3-4.55q2.9-4.1 5.4-5.2 2.2-.95 6.6-.45l3.25.25q1.55-.05 1.8-.7.6-1.6.35-5-.3-4.25-2.15-7.85-3.65-6.95-11.85-9.05-8.15-2-14.35.4-4.35 1.65-7.2 5.2-1.6 1.95-2.45 4.05-.65 1.6-.65 2.55m-.1-4.8q1.85-3.25 5.2-5.7 8.5-6.2 20.35-3.25 4.3 1.05 7.65 3.75 3.2 2.6 5.15 6.4 1.9 3.8 2 8.3.1 3.45-.75 5.5-.5 1.25-2.4 1.45l-4-.2-5.9.25q-1.95.8-4.3 3.95-2.15 2.85-3.5 5.9-.55 1.2-6.25.1-5.7-1.05-5.75-2.3-.1-5.85-.4-8.35-.4-3.8-1.6-5.2-1.9-2.3-3.25-3.2-1-.65-2.65-1.1h-.7q-.45-.05-.5-.75-.2-2.5 1.6-5.55m-11.35 8.2q1.75-.95 2.1-.7.35.3.3 2.6-.05 5.8-1.2 6.6l-2.3.2-2.4-.75.1-.95.55.15q2.5.85 3.25.3.7-.55 1-3.5.25-2.9-.1-3.1-.25-.15-2.3 1.2-2 1.4-2.3 1.95l-.5-1.05q.7-1.3 3.8-2.95"/><path fill="#0d131a" d="M128 228.55l.55-4.15q.3-3.6.05-3.75-.5-.2-2.75 2.65-2.3 2.95-2.3 4.35v.1q.1 1.45 1.6 1.6l1.9-.15q.85-.3.95-.65m-1.35-8.15q2-1.85 2.55-1.7.7.2.55 3.15l-.15 4.25-.3 2.85q-.3.95-1.7 1.45l-2.6.3q-3.1-.45-3.25-2.55-.05-1.8 1.65-4.15 1.3-1.85 3.25-3.6m69.55 13.55q-2.65-1.1-3.15-.5-.15.2.45 1.65l1 2.35.95 2.6q.5.7 1.3.5.85-.25 1.5-1.35.75-1.15.75-2.4 0-1.7-2.8-2.85m-1.85-1.6l1.65.4q4.15 1.35 4.25 3.8.1 1.65-.8 3.2-.95 1.55-2.3 2-1.65.65-2.75-.95-.45-.7-1.15-3l-1.15-2.95q-.9-1.9-.45-2.45l2.7-.05"/><path fill="#0d131a" d="M189.35 240.3q-.2.2 1.05 3.25 1.2 2.95 1.5 3.35.6.8 1.45.5.85-.3 1.55-1.4.75-1.1.75-2.3 0-1.75-3-2.85-2.85-1.05-3.3-.55m-.1 3.25q-1.2-3.7-.95-4 .6-.9 4.5.35 4.05 1.3 4.15 3.55.1 1.6-.8 3.15-.95 1.55-2.35 2.05-1.8.65-3-.95-.35-.55-1.55-4.15"/><path fill="#0d131a" d="M92.8 240.5l1.05-1.85q3.95 4.65 16.05 11.45 16.1 9.1 34.95 14.15 55.5 14.95 111.05-10.6l.6-.3.55.45q3 1.9 5.4 8.8 2.1 6 2.1 10l-2.8 1.95q0-3.4-1.8-9.7-1.95-6.8-3.9-8.85-57.8 24.2-109.05 12.15-18.7-4.4-34.55-13.3Q100.2 248 92.8 240.5m237 154.15q2.95-7.3 5.65-16.35 3.2-.75 4.45-1.3-2.85 9.4-7 18.1-3.55 7.45-6.35 11l-1.75 1.65.3-3.35.1-.15q1.85-2.65 4.6-9.6"/><path fill="#0d131a" d="M346.15 320.8q-1.35.35-2.8 1.45-3.35-24.05-19.05-41-15.55-16.75-34.5-17.3-19.45-.5-33.85 19.35-14.3 19.75-20.95 55.8-1.15 6.2-1.65 12.9-2.1.05-3.7.9.4-6.85 1.65-13.55 6.75-36.4 23.4-58.05 16.1-20.9 35.3-20.25 19.4.65 36 18.4 16.5 17.65 20.15 41.35M235.7 389l2.4 1.05 2.25 1.1 2 3.3q1.9 2.55 9.85 8.25 9.65 7.05 16.4 9 0 1.75.5 3.2-7.6-1.75-18.55-9.7-8.5-6.25-10.6-8.95-2.1-2.7-4.25-7.25"/><path fill="#0d131a" d="M351.45 325.9q-2.15-1.9-4.85-3.6-4.9 3.6-14.65 7.2-12.25 4.55-18.9 3.05-1.2 3.8-2 10.4-.75 6.45-.75 12.9 0 12.9 2.75 15.3 4.55 4 13.9 5.2 11.7 1.5 20-4.7 4.35-3.25 6.8-15.7 1.95-9.9 1.95-19.8 0-4.4-.45-5.6-.7-2-3.8-4.65m-6.8-5.35q.1-.55.5-.7 1.15-.45 6.45 3.3 5.45 3.9 6.35 6.3.65 1.7.6 7.55 0 6.4-.85 13.15-2.3 18.25-8.45 22.85-5.1 3.8-11 5.4-5.65 1.55-11.2.9-4.75-.55-9.45-2.75-3.85-1.75-6.05-3.75-3.6-3.2-3.4-17.9.15-10.9 1.85-21.15.4-2.25 1.45-3 .85-.55 2.8-.45 7.85.35 18.75-3.5 9.25-3.3 11.65-5.7v-.55"/><path fill="#0d131a" d="M348.55 336.15l5-3.3q1.8-1.1 1.15.2-.65 1.35-2.6 2.85l-3.05 2.1q-1.8 1.25-5.95 3.05-5.4 2.35-9.4 2.95-5.2.75-11.9-3.1-4.45-2.5-6.75-4.9-.95-.95-.65-1.5.3-.5 1.2.25 2.6 2.3 6.55 4.4 6.5 3.45 11.3 2.8 3.95-.55 8.6-2.5 3.55-1.5 6.5-3.3M226.5 361.3l-.05.45q0 3.55 3.05 11.8 3.5 9.5 7.55 13.95 1.8 1.95 4.95 2.85 3.2.95 7.1.6 3.95-.3 7.55-1.75 3.55-1.45 4.75-3.2.6-.9.6-2.5 0-2.1-1-5.8l-2.15-6.7q-2.4-6.8-2.9-10.4-6.85.15-13.3-2.35-3.6-1.35-9-4.6l-1.5-.9q-5.2 5.9-5.65 8.55m4.6-10.7l.4-.6q.75-.3 2.5 1.35 1.9 1.8 9.55 4.1 6.35 1.95 11.5 2.85 2.05.35 2.45.65.85.6 1.3 2.8.75 3.65 3.05 10.4 2.15 6.35 2.6 9.15.65 4.2-.9 6.55-1.45 2.2-5.5 3.8-3.95 1.6-8.65 2l-6.8-.6q-4.55-1.15-7.15-4-4.7-5.05-8.85-15.2-3.8-9.4-3.3-12.45.35-2.2 3.85-6.45 1.85-2.25 3.95-4.35"/><path fill="#0d131a" d="M226.7 362.4q-.8-.85-.5-1.2.3-.35 1.4.2l6.6 3.7q7.1 3.15 15.1 3.25 2.6 0 2.65.5.05.45-2.4.75-6.4.8-13-1.35-6.35-2.05-9.85-5.85m81.45 63.35q5.2 0 11.15-9.2 5.65-8.8 4.35-12.4-.5-1.4-3.1-2.85-2.9-1.65-7.35-2.6-10.2-2.2-20.9.55-12.7 3.25-22 12.8-.4.45-.3.8.85 2.7 15.85 7.8 15.05 5.1 22.3 5.1m12.8-6.2q-6.9 9.75-12.5 9.75-7.5 0-22.85-5.5-16.35-5.85-17.75-10.3-.5-1.65.85-3 9.9-10.15 21.9-13.75 10.4-3.1 20.75-.9 5.05 1.1 9.2 3.2 4.45 2.25 5.2 4.35 2.25 6.2-4.8 16.15M133 109.2l1.85 1.1q0 1.45.75 5.4.85 4.65 1.6 4.65.7 0 1.65-1.75l1.35-3.3q.3-.5 1.3.4.95.85.7 1.35-.95 2.1-2.4 3.6-1.4 1.35-2.55 1.45-2 .1-3.25-4.3-1.1-3.9-1-8.6"/><path fill="#fff" d="M146.75 78.05q0 .6-.4 1.05-.45.4-1.05.4-.6 0-1-.4-.4-.45-.4-1.05 0-.6.4-1t1-.4q.6 0 1.05.4.4.4.4 1m65.2 6.9q0 .7-.5 1.25-.5.5-1.2.5-.75 0-1.25-.5-.5-.55-.5-1.25t.5-1.25q.5-.5 1.25-.5.7 0 1.2.5.5.55.5 1.25"/></svg>