<svg xmlns="http://www.w3.org/2000/svg" width="145" height="162" viewBox="-0.7 0.0 145.0 161.7"><path fill="#0d131a" d="M123.25 38.75q4-2.05 7.4-1.9 6.9.3 10.5 5.55 2.6 3.9 2.85 10.1.3 6.5-2.2 12.85-7.45 19-39.2 17.5l-4.75-.45q-1.2-.45-1.25-2-.2-4.95 5.3-16.15 6-12.25 13.35-19.55 3.95-3.9 8-5.95"/><path fill="#fffac6" d="M140.1 43.45q2.4 3.55 2.45 9.2.1 5.65-2.2 12-2.75 7.75-11.5 12.5-10.35 5.6-26.25 4.85l-4.35-.45q-.75-.25-.8-1.2-.15-4.7 5.55-15.55 6.1-11.75 13.45-19 7.65-7.55 14-7.25 6.55.3 9.65 4.9"/><path fill="#dcd8ac" d="M107.15 57.6q5 4.05 5.75 11.15.7 6.45-2.25 13.15-3.3.25-8.05.1l-4.35-.45q-.75-.25-.8-1.2-.1-3 2.6-9.4 2.8-6.65 7.1-13.35"/><path fill="#0d131a" d="M141.95 46.35l.15.65q-6.55 2.2-19.3 10.35Q104.65 68.95 98.3 80l-.8-.45q6.75-11.65 21.25-21.2 9.5-6.3 23.2-12M100.2 82.5l-.5-.75q10.45-7.6 23.1-12.9 11.95-5 18-4.8l-.1 1.05q-4.05-.65-16.8 4.75-13.25 5.55-23.7 12.65"/><path fill="#fffac6" d="M94.2 88.7q7.85 4.95 13.7 16.15 6.85 13.05 3.55 23.45-2.05-2.95-5.8-4.3-3.7-1.35-7.8-.75-9.8 1.55-13.8 11.9-12.4-4.6-19.15-19.7Q59.3 103 59.3 88.8q0-9.15-.7-14.3l9.3-.7q5.45-.9 7.9-2.25 2.2 3.55 7.7 8.7 5.55 5.15 10.7 8.45"/><path fill="#00b8ee" d="M86.25 82.75Q79.1 76.8 75.8 71.55q1.5-.55 7.45-3.95 6.75 5.8 17.3 10.6 10.6 4.85 18.65 13.45 9.95 10.6 12.6 24.05 4.2 20.9-4.1 32.95-7.05 10.3-20.3 11.35-11.4.95-18.3-4.35-6.4-4.95-6.55-13.15-.1-6.9 4.65-12.7 5.05-6.15 12.4-6.6 3.95-.2 7.25 1.35 3.2 1.5 4.7 4.1 2.25-7.35-.65-17.2-3.45-11.6-12.6-19.2l-12.05-9.5"/><path fill="#00a0cf" d="M82.55 141.9q3.6 5.55 10.45 8.55 6.5 2.9 12.95 2.3 6.7-.55 13.3-4.5 7.35-4.35 13.35-12.35-2.5 11.25-9.6 17.6-6.45 5.75-15.6 6.5-11.4.95-18.3-4.35-6.4-4.95-6.55-13.15v-.6"/><path fill="#00a0cf" d="M110.25 127.85q3.2 2.8 3.85 6.4.45 2.7-.55 5.15-1.65 3.85-5.25 4.95l-6.15-.25q2.55 0 4.75-1.45 2.1-1.45 3.55-4.05 1.15-2 1.2-4.6.05-3.1-1.4-6.15M98.3 92.25l-12.05-9.5Q79.1 76.8 75.8 71.55q1.5-.55 7.45-3.95 6.75 5.8 17.3 10.6 7.85 3.6 14.45 9.35-1.1 3.7-4.95 5.75-3.6 1.9-8.6 1.9l-3.15-2.95"/><path fill="#dcd8ac" d="M83.5 80.25q5.55 5.15 10.7 8.45 3.45 2.2 7.15 6.5-7.15-.1-12.45-3.8-4.1-2.85-8.3-4.2-4.3-1.45-7.1-.8-8.6 1.95-14.25-1.8-.1-6.05-.65-10.1l9.3-.7q5.45-.9 7.9-2.25 2.2 3.55 7.7 8.7"/><path fill="#0d131a" d="M4.05 16.5q-.1-1.55 1.05-2.8 1.35-1.5 3.05-.5l4.45 2.35q12.9 6.85 17.35 6.85 3.5 0 6.2 5.75 3.55 7.45 4.4 20.4.8 12.65-1.7 15.8-.75 1-1.7.7-3.6-.85-12.5.1-8.3.85-11.1 1.95l-2.5-.1q-1.15-.55-1.65-1.65-.3-.6-.3-1.25 0-1.45 1.3-2.15 4-2.25 8.2-5.1 5.95-4 7.7-6.4-.85-.9-6.4-2.15l-9.1-1.85-8.4-1.8q-2.25-.3-2.35-3-.1-2.75 2.4-2.85l3-.35q14.7-1.35 18.1-3.25-1.6-2.5-18.4-16.55l-.7-.95q-.35-.7-.4-1.2"/><path fill="#00b8ee" d="M29.65 23.6q3.05 0 5.45 5.05 3.45 7.15 4.25 20.05.75 12.25-1.4 14.95-.2.3-.55.3-3.7-.85-12.85.05-8.5.9-11.4 2l-1.6-.05q-.75-.35-1.1-1.1-.6-1.25.55-1.9 3.95-2.3 8.2-5.2 6.5-4.55 8.25-7.15l.15-.25-.1-.25q-.4-1.3-4.55-2.5-3.6-1.05-12.85-2.8l-7.15-1.5q-.65-.15-1-.8-.3-.55-.25-1.25.1-1.15.9-1.3l2.95-.3 11.4-1.4q5.75-.95 7.65-2.35l.3-.25-.05-.35q-.25-1.55-9.5-9.8L6 17.45q-.3-.25-.25-.95.1-.7.45-1.3.65-1.2 1.7-.75l3.25 1.7q6 3.2 9.55 4.8 6.05 2.65 8.95 2.65"/><path fill="#00a0cf" d="M22.95 47.6q-3.6-1.05-12.85-2.8l-7.15-1.5q-1.15-.35-1.25-1.8.4.4 4.65 1l8.8 1.25q12.3 2.05 11.9 5.2 1.45 1.45-.7 2.95l1.1-1.3.15-.25-.1-.25q-.4-1.3-4.55-2.5M6.65 14.65q-.25.85 10.55 9.55 10.7 8.6 9.85 10.15.5.45-2.2 1v-.05q-.25-1.55-9.5-9.8L6 17.45q-.3-.25-.25-.95.1-.7.45-1.3.15-.35.45-.55"/><path fill="#0d131a" d="M87.5 11.1q11.7 11.2 11.7 26.65 0 16.15-10.8 26.75-11.05 10.85-28.25 10.8-16.7 0-27.55-10.4-10.9-10.45-10.9-26.85 0-15.55 11.5-26.8Q44.6 0 60.25 0q15.7 0 27.25 11.1"/><path fill="#00b8ee" d="M96.3 37.9q0 7.3-2.6 13.85t-7.45 11.5q-4.95 5-11.7 7.65-6.75 2.7-14.35 2.7-15.95 0-26.05-9.95-10.1-10-10.1-25.75 0-14.95 10.6-25.55 10.6-10.6 25.55-10.6 14.95 0 25.5 10.6 10.6 10.6 10.6 25.55"/><path fill="#00a0cf" d="M87.15 56.65q-.5.7-.35 3.35.15 2.55-.55 3.25-4.95 5-11.7 7.65-6.75 2.7-14.35 2.7-12.6 0-21.85-6.5 5.9-2.4 9-2.95 3.35-.65 7.35 0 11.4 1.95 22.75-2.5 5.7-2.2 9.7-5"/><path fill="#0d131a" d="M29.15 27.75q1.7-1.8 3.45-1.8 2.9 0 5.05 4.55Q39.8 35 39.8 41.05q0 6.15-1.8 9.75-1.75 3.55-4.65 3.55-2.9 0-5.25-4.05-2.3-4.1-2.45-9.5-.15-4.05.75-7.55.95-3.65 2.75-5.5"/><path fill="#fff" d="M26.55 40.75q-.1-3.75.85-7.05.9-3.3 2.6-5 1.3-1.3 2.65-1.3 2.45 0 4.25 3.95 1.8 4 1.8 9.4 0 5.65-1.45 9.1-1.5 3.45-3.9 3.45-2.45 0-4.55-3.85-2.1-3.85-2.25-8.7"/><path fill="#0d131a" d="M29.7 41.8q0-4.45 1.45-6.95 1.4-2.5 3.8-2.5 2.05 0 3.4 2.75 1.35 2.8 1.35 6.9 0 4-1.35 6.6-1.35 2.6-3.4 2.6-2.1 0-3.65-2.75-1.6-2.75-1.6-6.65"/><path fill="#e50020" d="M31 42q0-3.5 1.1-6 1.1-2.55 2.75-2.55 1.6 0 2.75 2.6 1.15 2.55 1.15 6.15 0 3.6-1.1 5.95-1.1 2.4-2.8 2.4-1.65 0-2.75-2.55-1.1-2.45-1.1-6"/><path fill="#0d131a" d="M36.95 43.1l-.1 2.3q-.25.95-.75 1-.45.05-.85-.9-.45-.95-.55-2.3-.15-1.35.1-2.3.25-1 .75-1 .45-.05.85.9.45.95.55 2.3m18 .2q0-9.25 3.2-14 2.7-4.05 7-3.95 4.3.15 7.3 4.75t3.2 11.5q.15 6.8-2.65 11.35-2.75 4.45-7.2 4.85-4.85.45-7.8-3.35-3.05-3.9-3.05-11.15"/><path fill="#fff" d="M74.2 41.6q.1 6.4-2.2 10.55-2.35 4.15-6.3 4.5-8.45.75-9.7-13.45-.4-4.35.6-8.2 1-3.85 3.15-6.1 2.3-2.45 5.35-2.35 3.8.1 6.4 4.4 2.55 4.25 2.7 10.65"/><path fill="#0d131a" d="M60.9 33.35q3-.2 5.35 3 2.3 3.2 2.75 8.25.3 3.3-.4 6.25-.75 2.95-2.2 4.65-1.5 1.7-3.5 1.75-2.75.1-5.05-3.4-2.35-3.45-2.75-8.3-.3-3.2.3-5.9.6-2.75 2-4.4 1.45-1.75 3.5-1.9"/><path fill="#e50020" d="M58 36.3q1.1-1.35 2.75-1.5 2.5-.2 4.45 2.65 1.95 2.85 2.3 7.25.25 2.95-.35 5.6-.6 2.65-1.9 4.15-1.2 1.3-2.7 1.35-2.25.1-4.2-3.05-1.95-3.1-2.35-7.3-.25-2.85.25-5.3.55-2.4 1.75-3.85"/><path fill="#0d131a" d="M58.9 45.6q-.05-1.55.25-2.7.3-1.1.85-1.15.55 0 .95 1.1.4 1.1.45 2.65.1 1.55-.25 2.7-.3 1.1-.85 1.15-.5 0-.9-1.1t-.5-2.65"/><path fill="#00b8ee" d="M31.75 68.15q-9.5 2.95-11.75 4.9-4.15 4-9.2 2.35-5.15-1.7-7.75-8.25-2.5-6.25-1.8-10.35.65-3.6 3.65-4.9 2.3-1 5.2-.4 2.65.5 5.15 2.15 10.55 0 17.35-3.85 4.15-2.3 7.55-6.75 1.1-1.4 3.95 2.45 2.6 3.5 5 8.95 2.5 5.75 2.75 9.15.3 4-2.8 2.95-5.75-1.95-17.3 1.6"/><path fill="#00a0cf" d="M25.05 66.65q2.6-.85 10.45-2.5 8.75-1.85 10.8-1.75 3.75.2 10.75 2.8 2.1.75-1.9 1.45-3.95.65-6.1-.1-5.75-1.95-17.3 1.6-9.5 2.95-11.75 4.9l-.2.15q1.95-5.45 5.25-6.55"/><path fill="#0d131a" d="M41 41.75q.55-.15-.35 1.6-1.65 3.1-7.3 6.45-7.65 4.5-16.9 4.65 1.3 1.65 1 1.65-.55 0-1.1-.4l-2.1-1.6Q12.2 52.8 10 52.3q-2.7-.55-4.95.4-2.85 1.15-3.35 4.95-.5 3.95 1.85 9.3 3.1 7 8.25 8.1 2 .45 4.5-.45 2.35-.9 4.1-2.6 2.15-1.85 11.4-4.45 11.15-3.2 17.3-1.6 1.8.45 1.3.8l-1.45.1q-5.15-1.45-16.4 1.75-10.45 3-11.6 4.9-1.95 1.9-4.25 2.75-2.45.9-4.75.4-3-.65-5.6-3-2.7-2.4-4.05-5.9-3-7.6-1.35-12.2 1.05-3 3.7-4.15 2.5-1.1 5.65-.45 2.6.5 5.1 2.1Q26.1 53 32.95 48.7q3.65-2.3 6.75-6l1.3-.95"/><path fill="#00b8ee" d="M127.85 48.6l-15.05.3-14.45.75q-1.75.65-1.45 1.7l1.05 1.6 10.1 9.8 10.5 9.8q1.1.7.25 2.5-.85 1.85-2.7 1l-14.7-8.6q-11.8-6.7-14.8-5.85-4 1.15-5.5-5.35-1.3-5.65-.35-14.65.95-8.8 3.35-14.75 2.65-6.55 5.6-5.5l1.95.65 3.8-1.65 14.3-7.8q11.05-6.15 11.7-6.25 1.2-.2 2.55 1.55 1.45 1.85-.05 3.2L110.3 22.5Q98.45 32.7 98.55 33.95q-1.25 3.4 2.7 4.15l13.65 2.95 13.35 2.8q1.6.15 1.8 2.3.2 2.2-2.2 2.45"/><path fill="#00a0cf" d="M124.25 8.2q1 1.65-.3 2.85L110.3 22.5Q98.45 32.7 98.55 33.95q-.35 1.1-.25 1.8-1.75-1.15-2.3-2.05-.75-1.3-.15-3 .55-1.65 12.8-11 10-7.7 15.6-11.5m5.85 38.35q-.2 1.8-2.25 2.05l-15.05.3-14.45.75q-.95.35-1.45 2.4-1.55-1.1-2-2-.55-1.1.2-2.55 1.1-1.95 16.55-1.55l18.45.6M83.3 59q4.2-1.95 19.45 7.3l10.3 6.4q4.8 2.9 5.65 2.55-.9 1.55-2.6.8l-14.7-8.6q-11.8-6.7-14.8-5.85-3.55 1.05-6.95 1.1-4.35.05 3.65-3.7"/><path fill="#0d131a" d="M125.4 7.25q1.1 2.1-1.05 4.25-5.75 4.75-11.85 10Q100.4 32 98.95 34.45q-.05 1 .65 1.75.6.65 1.55.8l27.65 6.2q1.2.25 1.6 1.2l.25 2q0 1.05-.6 1.75-.75.9-2.15 1.05l-14.6.35-14.75.65q-.6.2-.7.9-.1.6.15.9l20.95 19.85q1.7 1.55.5 3.85-.5.8-1.4 1.1l-2.2-.2L102.5 69q-12.9-7-15.8-6.85-1.25.1-1.35-.35-.1-.45 1.1-.75 2.55-.7 15.95 6.55l13.95 7.9q.75.4 1.65-.75.85-1.1.25-1.75l-21-20-.85-.95q-.4-.65-.25-1.25.3-1.3 1.7-1.9l15.1-.6 14.85-.3q1.1-.1 1.35-1.65.3-1.55-.95-1.9l-27-5.95q-2.3-.4-3.1-1.9-.45-.75-.7-2.15-.3-1.5.2-1.6.5-.1.65.65.6-1.85 13-12.55 6.2-5.35 12.3-10.35.95-.95.25-2.6-.75-1.7-2.25-1.1-.35.1-12.35 6.65l-13.5 7.3-3.95 1.5q-1.05.2-2.2-.4-1.1-.55-.9-1.25.15-.65 1.35-.2l1.85.55q.9-.05 3.35-1.25l26.15-14.05q2.5-1.4 4.05 1.5M15.7 61.65q1.65 3.6 1.4 6.95-.3 3.35-2.5 4.35-2.2 1-5.1-.9Q6.65 70.1 5 66.5q-1.7-3.65-1.5-7.2.25-3.7 2.4-4.7 2.2-1 5.2 1.2 2.9 2.2 4.6 5.85m67.95 5.45q3.55 3.1 9.2 6.35l9.3 4.85q15.95 7.7 24.4 20.9 9 14.05 7.65 31.8-.95 12.45-8.05 20.75-7.9 9.25-20.85 9.65-10.95.3-17.35-5.15-6-5.1-6.4-13.85-.3-7.75 5.35-13.8 5.1-5.5 11.3-6.2 7.45-.8 12.35 3.75 4.4 4.1 4.4 9.9 0 4.8-2.85 7.35-2.5 2.2-6.7 2.35-4.4.2-7.35-3.15-3-3.4-2-7.7.25-.95.7-.9.45 0 .3 1.05-.4 3.7 2.15 6.5 2.6 2.85 6.3 2.5 3.9-.4 5.85-2.6 1.8-2 1.8-5.25 0-5.55-4.35-9.25-4.5-3.7-10.5-2.8-5.85.85-10.35 6.15-4.8 5.6-4.35 12.05.55 8.65 7.15 13.2 5.95 4.1 14.5 3.55 11.9-.75 19.35-9.55 6.65-7.85 7.25-18.45 1-17.2-6.9-30.45-7.8-13.1-23.5-21.15l-9.4-4.9q-7.2-4.05-9.3-6.7l.9-.8"/><path fill="#0d131a" d="M59.3 74.45q.85 3.2 1 8.3l-.1 8.7q-.4 10.65 5.55 23.1 7 14.45 18.3 19.65l-.5 1.75q-11.35-4-18.45-17.7-6.6-12.6-6.6-26.9v-8.4q-.15-5.5-.8-8.6l1.6.1m24.8 7.45q-6.4-5.4-8.95-10.05l1.15-.45q3.7 6.1 18.3 16.7 10.3 7.4 15.25 18 5.4 11.65 2.35 23.5l-1.25-1.65q1.95-10.5-2.9-20.95-4.6-9.9-14.2-17.5-6.25-4.65-9.75-7.6"/><path fill="#0d131a" d="M59.5 78.1q3.05 2.3 9.65 1.1 6.7-1.15 8.6-4.65l.75.75q-2.25 3.75-8.9 4.95-6.4 1.2-10-1.05l-.1-1.1m26.7 4q-3.3 6.65-11.9 8.8-8.05 2-15-1.1v-1q6.5 2.85 14.35 1 8.5-1.95 11.6-8.45l.95.75m10.3 8.6q-5.45 9.1-17.5 12.05-10.7 2.6-18.55-.85l-.25-1.4q9 3.55 19.75.5 11-3.1 15.65-11.05l.9.75m-31.6 23.85q9.05 4.5 22.2-.85 12.6-5.1 17.6-14.05l.7 1.2q-5.75 9.85-18.55 14.65-12.55 4.7-21.3.75l-.65-1.7m8.5 12.95q6.75 2.45 15.7.1l-1.9 2q-6.65 1.3-12.1-.15l-1.7-1.95m38.15-13.15q-3.45 5.15-9.2 9l-2.75-.15q7.75-4.45 11.6-10.55l.35 1.7"/></svg>