<svg xmlns="http://www.w3.org/2000/svg" width="289" height="294" viewBox="-1.1 -0.55 288.5 294.0"><path fill="#00b8ee" d="M247 78.9l9.25-.7q2.8 0 2.9 1.2.1 1.1-5.65 5.1l-9.1 6.2q-1.25 5.75-3.7 14.4l-4.35 14.1q1.35.85.75 2.05-.55 1.05-1.8 1.3-.65 5.1 4.2 3.9 6.5-1.65 21.25-6.8 14.1-4.95 18.95-7.2 3.2-1.45 3.65.45.4 1.6-.95 3.7-10.35 16.3-23.8 28.2-9.3 8.2-26.7 19.5-1.95 1.3-2.2 2.8-.15 1.15.75 3.15l6.65 12.95q3.6 6.6 5.35 9.3 1.55 2.4.7 3.45-.85 1.05-3.65 0-11.7-4.4-21.85-10.15-12.05-6.85-24.85-17.1l1.4 7.45q.25 1.7-.1 2.65-.45 1.2-2.1 2.5.5 2 .75 6.25l.35 6.2q.35 4.7-1.8 6.65l-3.95 1.85q-1.6 4.15-5 6.7-1.4 1.05-6.75 3.7 9.05 7.25 12.9 16 4.35 9.7 3 22.65-1.75 16.75-13.1 27.6-12.9 12.25-34.6 12.9-22.8.75-39.75-13.3Q86.65 264.15 84 241q-2.85-24.75 10.6-46.05 8.9-14.15 19.85-21.15l-.5-1.85q-.1-.85.45-1.55.9-1.1 2.45-2.3l4.25-3q-23.25 5.7-51.45 7-27.3 1.25-39.8-2.35-2.5-.75-2.1-2.35.4-1.5 2.4-2.3 11.6-4.65 22.6-10.4 13.3-6.9 16.4-10.85-47.2-27.95-66.8-56.55-1.9-2.8-.95-4.25 1.05-1.55 4.8.05 12.15 5.15 31.35 11.65 22.7 7.75 33.6 9.7-7.95-12.7-13.85-34-4.1-14.8-5.9-27.9-.55-4 .85-5.5 1.55-1.7 3.85 3.5 8 18 20.8 39.35 16.7 27.95 31.4 43l4.25-.65q1.9-.65 3-1.55-1.25-1.1-4.15-2.85l-4.35-2.4q-1.6-.8-1.75-1.45-.1-.7 1.2-.95 3-.55 8.25 0-1-3.85-8.55-14.4-4.3-6-8.9-11.75-1.45-1.75-1.1-2.55.3-.65 1.85-.55 1.7.15 4.6 1.1 3.55 1.15 6.95 2.95-5.35-15.05-8.45-35.15-2.6-16.85-2-23.45.45-4.7 2.05-4.1 1.4.55 2.3 3.95 3.2 11.4 7.95 23.95 4.5 12.05 8.1 19.05 2.15-25.1 4.7-39.9.5-3.1 1.95-3.2 1.2-.05 2.55 1.8 1.55 2.2 9.95 17.6 3.15 5.4 5.3 5 5.9-11.05 16.75-27.3 9.85-14.8 15.65-22.05 2.1-2.65 3.15-1.6.85.9.6 3.9-2.2 25.7-2.15 34.8.05 13.35 3.9 13.35 15.15-12.6 25.05-17 4.05-1.8 3.1 2.8-1.15 5.85-2.75 15.9-1.9 11.85-2.85 19.8 5.7-9.65 14.45-20.85 7.55-9.7 12.65-14.65 2.9-2.85 4-1.75 1 .95-.1 3.6-4.35 10.85-7.8 20.7-5.3 15.1-6.85 23.25l7.4-2.45 7.55-2.3q2.1-2.25 6.1-9.8 3.45-6.65 4.3-6.8 1.25-.2 1.5 4.85.2 4.85-.65 9.1"/><path fill="#fffac6" d="M167 140q5.25-1.65 11.9-4.95 4.35 5.4 7.7 10.85 2.7 4.4 3.85 7.2 1.85 4.55-.15 5.75 2.15 6.55 3.9 17.3.3 2.15-.3 3.25l-1.9 1.9q.35 1.9.5 7.45l.2 7.7q.2 3.6-5.25 5.3-2.85 7.35-11.85 10.9-11.95 4.1-25.6 4.55-13.65.45-19.25 2.35-7.45-7.1-6.8-16.35.7-10.3 11.35-24.1 5.45-7.05 9.65-16.7 4.1-9.5 6.2-19.75 8.15-.25 15.85-2.65M51.4 40.55q-.1-2.7 1.15-3.45 1.35-.9 3.05 2.5l8.75 17.25q6.8 13.3 11.85 21.85 4.15 16.6 10.05 27-6.9-5.15-11.15-9.5 3.6 8.35 8.05 14.75l-10.1-.9-11.3-2.05q7.95 7.8 19.65 15.4l-3.55.45-4.9-.2 2.65 3.15 2.55 2.3Q63.1 127.4 53 124.2l15.1 13.15 13.85 11.15q-5.5 3.65-13.6 6.55l5.25.6 4.15-.2q-2.6 2-6.05 4.05l-5.65 2.95 3.6.1L66 164.7l-6.05 2.55q13.8.85 22.95-2.05-1.25 1.6-3.55 3.25-2.55 1.85-5.25 2.85l-21.2.9q-13.7-.15-21.6-2.2-2.6-.7-3.5-1.85-1.15-1.5 1.9-2.8l19.45-8.45q15-7.2 20-13.05-51.6-30.5-66.8-56.9-1.45-2.55-.6-3.8.9-1.45 4.45-.05Q21.15 88.95 39 95.05q24.3 8.35 32.15 9.4-7-11.75-13-30.95-6.25-19.8-6.75-32.95m188.1 85.9l20.65-6.9q14.45-4.95 19.1-6.8 2.65-1.05 3.9-.3 1.45.85-.75 4.15-8.25 12.35-20.35 24.35-14.3 14.15-29.55 23.1-1.7.95-2.35 2.25-.8 1.55 0 3.25l5.2 10.25q4.65 9 6.75 12.5 1.2 2.05.5 3.15l-3.9.15q-7.05-2.75-15.05-6.8-10.35-5.2-15.5-9.4 6.3 2.55 14.65 4.3l-9.45-10.25 5.3 1.35q3.05.75 6.5 2.05l-3.1-4.95 2.2-.1-2.15-2.45-1.8-2.6q3.45-1.55 10.3-5.25l-5-.35 7.65-4.05 9.85-5.9-5.15.75-4.55.2 8-5.9q6.95-5.35 12.05-8.9-8.6 4.15-22.9 4.45l8.4-7.8q-3.9 1.35-9.75 2.35l-11.45 1.45q7.15-9.75 10.7-15.15l6.6-.45q-.65 2.45.35 3.7 1.15 1.45 4.1.55m-12.85-3.9q-4.75 3.55-13.45 9 2.95-3.8 6.05-8.8h3.55l3.85-.2m14.25-18.35l-4.55 15q-1.65-1.05-5.8-2.8l-6.15-2.4q4.65-8.35 7.1-14.7l12.9-8.6q-.55 3.5-3.5 13.5m5.25-39.25q2.4.6.85 13.95-5 .9-11.25 2.65 1.8-1.7 5.95-9.7 3.7-7.05 4.45-6.9"/><path fill="#0d131a" d="M92.2 131.05q2.8.15 6.8 11.35 3.9 11.05 2.45 12.7-1.1 1.25-5.85-.4-4.7-1.6-5.55-3.35-.6-1.25.2-8.65.8-7.45 1.95-11.65"/><path fill="#fff" d="M177.6 115.5q-3.3 2.55-11.6 1.75-7-.6-13.1-2.9 2.4-1.3 10.2-4.3 7.5-2.85 8.4-3.4 1.25-.75 3.75-4.9l5-8.4q4.1 17-2.65 22.15"/><path fill="#fffac6" d="M228.05 122.2q.15-.25.65.25l.45.65-9.7 13.75q10.2-1.2 15.4-2.5 4.4-1.05 4.65-.8.35.35-3.3 3.8l-3.7 3.75 9.6-1.15q7.85-1.25 11-2.8-13.1 11.25-17.75 14.45l5.7-.65 3.35-.2q.35.35-3.45 2.6-7.6 4.45-13.55 7.45l2-.05q2.9-.15 2.6.5l-2.7 1.8-7.85 4.05 2.4 3.15q1.65 2.2 1.35 2.4l-2.4-.15 1.8 2.45q1.7 2.3 1.35 2.5l-3.3-.75-7.9-2.4 6.65 7.25 2.35 2.35-2.75.05q-8-1.75-13.1-3.8-.35-.1-.25-.7.05-.55.35-.45 2.6 1.05 13.45 4l-7.15-7.15q-2.3-2.5-2.05-2.95.25-.45 3.15.45l8.6 2.6-.55-.75-1.2-1.7q-1.1-1.7-.9-2l1.2-.05.95.25-2.9-3.4q-.9-1.3-.85-1.65.05-.5 1.55-1.2l7.65-3.45-2.25-.15q-2.3-.1-2.3-.5-.05-.45 2.65-1.75 4.75-2.35 13.55-7.6l-5.65.95q-2.45.2-2.55-.35-.1-.6 2.4-2.35l13.9-10.35-8.15 1.75-6.65.85-4.25-.25q-.5-.45 1.9-2.45l4.6-4.2q-6 1.65-16.15 2.75l-2.8-.2q-.15-.4 1.35-2.4 4.95-6.65 9.5-13.55m-1.9 0q.25-.2.75.3.45.5.2.7-5.35 4-10.2 6.7-3.5 1.9-3.95 1.65-.5-.25 1.8-3.3l4.1-5.95q.15-.15.65.3l.45.55-3.6 5.45 5.15-3.25 4.65-3.15m4.25-22.45q.15-.3 1.05-.35.9-.1.75.2-1.7 4.4-7.35 14.75l-.7-.05q-.6-.4-.45-.7 4.65-8.45 6.7-13.85m-79.75 42.75q.1-.35.7-.2.65.15.6.5-1.55 10.3-6.1 20.3-4 8.9-9.9 16.5-10 12.9-11.15 22.5-1.15 9.6 6.45 16.85.25.2-.3.8-.5.6-.75.35-15.9-16.45 3.95-40.65 5.95-7.25 10.25-17.05 4.1-9.35 6.25-19.9M75.4 78.9l.6-.4q.65-.25.7 0 3.15 12.75 8.35 23.25 2 4 1.45 4.4-.55.4-4.05-2.35l-5.9-5.2q2.1 4.2 5.5 9.3 2.1 3.15 1.8 3.6l-3.55.15q-6.75-.4-17.2-3 9.05 8.35 16.2 12.6 3.15 1.9 3.1 2.45-.05.55-3.2.75l-5.05-.25 2.9 3.2q1.85 1.6 1.55 2.05l-3.4.1q-10.6-1.35-19.05-3.6L68.55 137q6.85 5.8 12 9.7 1.75 1.35 1.8 1.8.05.45-1.55 1.35-5.8 3.35-10.65 5l5.35.3 3.3.15q.25.4-2.1 2l-8.15 4.7q3.75 0 .5 1.65l-3 1.65-3.65 1.55 9.6-.45 8.4-1.05 3.35-.35q.25.3-2.2 2.4-3.3 2.85-7.8 4.65-.3.15-.7-.45-.35-.55-.1-.65 3.75-1.35 7.3-4.25l-9 1.1-9.2.15-3.15-.3q-.55-.4 2.95-1.75 3.6-1.35 6.15-2.85l-2.65-.3q-.8-.2.85-.9 3.65-1.45 9.45-5.5l-5.7-.35q-2.9-.35-2.85-.8.1-.45 2.9-1.65 6.25-2.6 10.55-5.15-5.15-3.85-13.5-10.95l-14.3-12.65q-.15-.1.05-.65.2-.5.45-.45 7.85 2.5 22.55 4.35l-2.5-3.1q-1.15-1.4-.8-1.75l2.4-.05 2.5.05 2.45-.1q-7.4-4.1-17.1-13.15-2.2-2.05-1.8-2.45l3.5.25q9.8 2 17.2 2.35-3.1-4.6-6.65-12.05-1.05-2.3-.7-2.7.4-.45 2.15 1.3 3.05 3 8.05 6.95-5.4-10.15-9.1-24.7"/><path fill="#00a0cf" d="M130.1 138.55q7.35 5.1 20.55 4.15l-1.4 5.9q-5.9.35-9.7-.2-9.9-5.4-12.2-7.75l2.75-2.1"/><path fill="#dcd8ac" d="M178.85 135.05l2.6 3.25q-5.05 4.75-14.95 7.55-8.1 2.25-17.25 2.75l1.4-5.9q5.35.45 14.55-2.2 8.5-2.45 13.65-5.45"/><path fill="#00a0cf" d="M178.85 135.05q-10.5 5.5-23 7.4-16.35 2.45-25.75-3.9.55-.45 2.25-1.55l2.75-1.85q7.6 3.05 24.45.65 17.5-2.55 24.4-8.55l9.95-1.9-7.55 5.15q-4.25 2.9-7.5 4.55M110.7 273.9q11.75 1.3 17-2.65 12.35 5.85 25.65.8 14.2-5.4 17.25-19.7 2.05-9.85-1.55-18.35-4.6-10.7-17.65-16.85l12.4-1.65 11.2-2.65q20.4 14.15 16.6 38.35-1.55 9.75-6.9 18.55-5 8.3-11.5 12.75-9.55 6.5-21.85 8.25-11.5 1.65-23.35-1.1-11.6-2.65-20.9-8.9-9.6-6.45-14.5-15.2 5.35 7 18.1 8.35"/><path fill="#00a0cf" d="M123 268.6q-5.55-3.7-8.5-8.65 10.15 6.2 21.2 6.45 10.7.25 18.4-5.05 8-5.5 9.8-15.15 2-10.65-4.4-23.85 4.25 2.65 7.35 7.7 3.25 5.25 4.25 11.35 2.35 14.7-8.6 24.85-11.6 10.75-27.25 7.5-6.65-1.35-12.25-5.15"/><path fill="#00a0cf" d="M154.1 247q-1.15 5.7-6.8 8.3-6.25 2.85-13.45-1.15-7.35-4.05-9.3-11.95 2.15 3.45 6.85 5.95 4.75 2.55 9.45 2.8 5.2.3 8.2-2.45 3.45-3.15 3.15-9.7 2.9 3.05 1.9 8.2M90.2 143.35q-.85 7.25.1 8.45 1.15 1.4 4.4 2.65 3.1 1.25 5.55 1.4l4.8-.3q2.5-.5 3.85-1.55 5.6-4.8 9.6-8.05 7.6-6.15 13.2-8.65-5.1 3.45-11.6 10.05-4.95 4.95-9 9.9-1.85 2.35-6.05 2.95l-7.25-.5q-5.65-.9-8.3-2.55-3.8-2.35-2.75-10.3.75-5.3 3.4-12.15.9-1.2 1.65-.8-.9 3.5-1.6 9.45"/><path fill="#dbdcdc" d="M175.55 100.5l4.55-7.35q.95 3.6 1.3 6.05-2.2 4.6-5.35 8-3.35 3.6-6.5 4.5l-7.2 1.85q-4.6 1.1-6.7 1.85l-2.85-.95q2.8-1.6 9.9-4.05 6.6-2.25 7.8-3.15 1.55-1.1 5.05-6.75"/><path fill="#dcd8ac" d="M192.85 167.45q1.75 7.2 1.6 9.8-.1 2.85-2.45 4.05.45 1.55.9 7.05l.45 7.8q0 2.15-1.7 3.45l-3.9 2.15q-5.45 9.6-19.55 12.95-6.75 1.6-36.55 4.2 19-4.4 38.1-19.35 20.9-16.3 23.1-32.1"/><path fill="#0d131a" d="M171.95 106.4q1.2 3.25.25 6.85-1 3.7-3.3 3.7-2.05 0-3.25-2.25-1.15-2-1.05-4.5l4.9-1.75 2.45-2.05"/><path fill="#fff" d="M169.15 108.6q.35 1.5-.05 2.7-.4 1.05-1.05 1.05-.6 0-1.05-.9-.45-.95-.3-1.9l2.45-.95"/><path fill="#0d131a" d="M96.1 87.25q-2.35-3.15-1.5-4.15.7-.8 3.9-.35 6.2 1 11.45 5.15l.95 2.5q-2.5-2.15-6.15-3.75-3.65-1.6-6.8-1.9-.45-.05-.6.2-.15.3.25.8l10.2 13.6q5.2 7.4 7.4 12.6.45 1.05.3 1.5-.15.55-1.25.5l-4.15-.2-3.3-.05q-.35.05-.4.2l.3.35 4.7 2.6q3.1 1.95 4.75 3.55l-1.25.75q-4.1-3.25-8.3-5.05-2.85-1.3-2.65-2.6.2-1.3 3.25-1.4l6.85.5q-2.15-4.85-7.7-12.2L96.1 87.25m81.1-38.15q-.65-6.3-.05-20.1.6-13.55 1.95-24 .15-1.1-.25-1.3-.4-.2-1.2.75-9.3 11-22.7 32.5-15.2 24.5-18.8 36.8-1.3 4.6-1.95 10.4-.6 5.45-.8 13.7-.05 2.05-.6 2-.5-.05-.6-2.1-.25-8.3.25-14.05.5-5.6 1.85-10.35 3.6-12.5 18.6-37.15 13.35-22 22.5-32.8 3.3-3.95 4.95-3.3 1.6.65.95 5.5-1.4 10.85-2.15 23.6-.75 13.6-.1 19.7.25 2.25 1.5 3.8 1.1 1.35 2.1 1.4l-1.5 1.35q-3.45-1.55-3.95-6.35"/><path fill="#0d131a" d="M123.15 32.55q.85-5.45 2.55-5.75 1.75-.35 4.65 4.55l5.15 9.6q3.65 6.8 5.4 9.3 1.95 2.85 3.75 2.3l-.85 1.6q-2.35.15-4.2-2.4-1.4-1.85-5.75-9.5l-6-10.35q-1.85-2.95-2.35.15-2.6 16.3-4.45 33.9-2.2 21.1-1.4 28.5.3 2.35 2.3 12.25.25 1.25-.2 1.35-.45.1-.85-1.15-2.4-9.15-2.85-12.45-1.05-7.45.9-28.25 1.65-17.7 4.2-33.65"/><path fill="#0d131a" d="M102.05 28.15q-.35-1.35-.95-1.25-.6.05-.7 1.4-.7 10.25 3 30.4 4.15 22.5 10.95 39.55.6 1.55.15 1.7-.45.2-1.15-1.3-7.35-15.1-12-40.85-3.75-20.65-3.3-28.35.4-5.9 2.55-6.3 2.2-.45 3.8 5.6 2.8 10.25 7.3 22.9 4.5 12.65 7.85 19.75l-.25 3.05q-3.95-7.55-9.05-21.05-5.55-14.6-8.2-25.25m23.8 84.15q.9-.85 1.3-.55.4.35-.4 1.3-4.5 5.5-12.8 9.25-8.85 3.95-18.9 4.4-2.3.1-3.4.8-1.3.8-2.2 3.05-.9 2.25-1.75 10-.8 7-.8 10.4 0 1.45.6 2.5t2.15 2.25q1.75 1.35 5.95 2.4 4.6 1.15 9.4 1.15 2.85 0 4.75-2.05 6.2-7.2 10.1-11.1 6.95-7 14.05-10.8 1.75-.95 2.05-.5.3.45-1.35 1.5-6.65 4.25-13.15 11.1-3.65 3.9-10 11.35-1.35 1.5-2.7 2.1l-3.6.55q-5.3.1-10.55-1.6-3.8-1.25-6.5-3-2.95-1.9-2.95-5.5 0-4.25.55-11.3.65-8.6 1.55-10.9 2-5.1 6.95-5 10.15.15 19.05-3.6 7.35-3.1 12.6-8.2"/><path fill="#0d131a" d="M91.95 130.6q1.4 0 2.5 1.1 2.7 2.8 5.9 13.05 3.15 10.05 2.05 11.05-.9.85-3.45.6l-3.3-.65q-2.4-.75-4.25-1.95-2.15-1.45-2.35-2.75-.35-1.9.5-9.25.8-7.15 1.9-10.05l-.45.4q-.65.75-.9.55-.25-.25.15-1.15.4-.9 1.7-.95m1.65 2.15l-1-.85q-1.05 3.15-1.65 10.15-.65 6.75-.35 8.6.3 1.75 5.4 3.3l3.25.65 1.3-.25q.5-.75-2.05-9.6-2.65-9.4-4.9-12m25.95-14.35l-1.6 1.05q-1.6-5.15-.6-11 .85-4.6 2.8-7.85l.35 2.5q-1.25 3.55-1.6 6.5-.5 4.3.65 8.8m73.4 7.3l5.15-.7q-4.25.9-11.7 6.45-13 9.75-31.3 12.1-17.7 2.2-25.95-4l1.9-1.45q6.8 5.3 24 3.25 18.05-2.2 29.7-10.9 4.25-3.2 8.2-4.75m-17.4-61.55q1.15-1 1.65-.65.45.35-.65 1.45-6.8 6.8-16.2 17.05-10.45 11.3-11.5 13.25-3.4 6.15-4.3 15.65-.15 1.65-.7 1.6-.6-.05-.55-1.7.25-6.4 1.15-10.55.75-3.55 2.2-6.2 1.2-2.15 11.65-12.95 10.4-10.75 17.25-16.95M209 40.4q.4-1.7 0-2.1-.4-.35-1.85.25-5.75 2.7-13.05 7.8-3.85 2.7-13.45 10.05-1.5 1.2-1.95.8-.4-.4 1-1.7 6.55-5.9 13.1-10.6 5.3-3.8 11.9-7.7 4.65-2.75 6.2-1.65 1.5 1.05.5 5.7-3.6 16.5-6.45 35l-1.8 2.4q1.1-9.5 2.65-20.15 1.85-12.4 3.2-18.1"/><path fill="#0d131a" d="M234.3 41.55q.4-.85.1-1.05-.3-.2-1.1.45-9.4 8.05-21.4 26.1-12.4 18.65-22.55 40.5-.7 1.45-1.1 1.2-.45-.2.2-1.7 9.25-21.9 22-41.5 11.5-17.75 20.3-25.4 4.05-3.55 5.8-2.75 1.75.8-.25 5.75-4.75 11.75-8.45 22.25-4.65 13.05-6.25 20.35l-1.85.7q1.15-7.6 5.8-21.5 4.1-12.35 8.75-23.4"/><path fill="#0d131a" d="M245.05 88.75l6.75-4.7 5.15-3.7.25-.45q-.05-.2-.45-.2-6.4 0-18.05 2.5-11.15 2.35-18.45 5.1-2.15.8-2.4.2-.2-.55 1.9-1.55 6.9-3.2 17.65-5.7 9.95-2.35 17.2-2.75 10.7-.55 3.7 4.75l-5.15 3.5q-4.4 2.8-6.75 4.5l-15.8 10.95q-8.6 6.05-10.85 8.65-.55.65-.35 1.15l.7.55q12.45 4.25 15.2 5.85 4.5 2.55 4.1 4.1-.45 1.6-5.85 1.9l-22.75 1.15q-15.9 1.1-25.35 3.1-2.1.45-2.25-.25-.15-.7 1.9-1.25 10.4-2.55 26.15-3.85l23.15-1.2q1-.05 1.15-.6.1-.55-.95-1.1-2.8-1.45-7.6-3.25l-8.35-2.95q-1.25-.45-1.45-1.75-.15-1.25.8-2.3 2.35-2.75 11.1-9.1l15.95-11.3m-61.8-.7q.9-1.05 1.3-.75.35.35-.5 1.45-2.2 2.85-5.6 9.1L175 104.2q-1.75 2.65-3.6 3.95-1.7 1.2-4.65 2.05-8.65 2.5-15.65 5.75-1.5.7-1.8.25-.35-.45 1.1-1.25 7.85-4.3 15.5-6.5 2.55-.75 4.2-2.05 1.55-1.15 3.1-3.4l3.5-5.75q3.6-5.8 6.55-9.2"/><path fill="#0d131a" d="M179.6 94.4l1.1-2.05q1.7 6.05 1.95 11.1.4 8.4-3.4 11.45-3.75 3.1-11.75 2.95-7.75-.1-15.55-3.15l1.95-.6q6.8 1.9 12.7 2.2 7.95.4 11.45-2.45 2.7-2.2 2.85-8.4.15-4.95-1.3-11.05m26.6 29.35l2.8.2q-4.55 5.25-10.95 10.6-7.1 5.95-13 9.05l-1.05-1.5q5.05-2.65 11.25-7.8 6-5 10.95-10.55m36.95-32.35l2.7-1.9q-3.15 12.95-8.75 30.25l-1.6-.85q5.15-17.25 7.65-27.5m-8.85 31.55l1.85-.2q-.45 1.4-.05 2.35.45 1.15 1.75.8 8.4-2.2 22.55-7.4 9.85-3.6 17.9-6.95 5.8-2.35 7.25-1.45 1.85 1.1-2.05 7.35-8.65 13.9-22.8 26.95-13.25 12.15-27.9 20.55-1.65.95-2.05 1.9-.4 1 .3 2.5 4.25 9.2 12.35 22.3 2.4 3.85 1.4 5.35-1.25 1.85-7.45-.45-10.15-3.65-20.05-9.45-11.45-6.75-24.6-17.45l-.55-2.85q14.05 11.2 26.75 18.3 10.05 5.6 20.85 9.5l1.95.2q.4-.4-.35-1.6-2.8-4.5-6.3-11.3l-5.9-12.05q-1.8-3.9 2.05-6.1 14.2-8.1 27.7-20.9 13.95-13.2 22.65-27.25.95-1.45.4-2.05-.5-.55-1.8 0-6.8 2.8-18.55 6.95-14.65 5.2-23.25 7.45-2.15.55-3.45-1.05-1.3-1.65-.6-3.95m13.75-43.8l-2.35.35q1.45-7.95.85-11.9-.25-1.55-1.1-.05l-3.9 7.1-4.4 7.05-2.85.5 4.6-7.8 3.8-6.95q2-3.65 3.85-3.5 1.85.15 2.3 4.2.4 3.7-.8 11"/><path fill="#0d131a" d="M191.15 162.8l-.6-2.05q12.7.25 33.3-8.45 22-9.25 39.4-23.3 1.25-1 1.75-.6.45.4-.7 1.45-16.3 14.3-38.9 24-20.75 8.9-34.25 8.95M54.6 40q-.75-1.7-1.5-1.5-.75.15-.6 1.75 1.7 17.15 6.95 34.05 5.05 16.1 13.05 31 1.15 2.2.5 2.6-.6.35-1.9-1.8Q63 92.85 57.05 74.2q-5.9-18.4-6.75-32.95-.35-5.15 2.05-5.75 2.4-.6 4.75 4.55 10.95 23.8 23.15 43.8 14.3 23.35 29.15 39.4l-1.85.9q-14.9-16.2-29.4-39.7Q65.2 63.45 54.6 40m72.05 101.35l1.35-1.2 5.45 3.85 5.35 3.2q1.7 1 1.45 1.55-.3.55-2.05-.3-5.5-2.6-11.55-7.1"/><path fill="#0d131a" d="M5.3 83.95l-2.4-.1q-.6.6.45 2.35 7.7 13.35 26.95 29.4 19.15 16 45.45 31.05 1.75 1 1.5 1.6-.25.55-2.05-.4-26.15-13.9-45.95-29.85Q9.65 102.1 1.6 88.55q-2.7-4.5-1.1-6.45 1.65-2.05 6.85.1 13.4 5.5 35.3 12.95 23.2 7.95 28 8.4l.8 1.7q-4.35.3-29.45-8.05-22.55-7.5-36.7-13.25"/><path fill="#0d131a" d="M68.5 143.4l1.7.9q-3.85 4.85-16.75 11.45-4.95 2.55-23.75 11.05-.9.4-.8.9.15.5 1.3.85 15.9 4.4 48.55 1.85 30.8-2.45 52.95-8.85 1.5-.4 1.65.15.15.6-1.3 1.1-20.4 7.15-52.15 10-32.9 2.95-49.1-1.55-10.85-3-1.25-7.2 17.05-7.4 22-9.85 13.05-6.35 16.95-10.8M15.1 96.55q-1.05-1.1-.6-1.5.5-.45 1.65.55 14.75 12.95 32.95 24.9 19.35 12.7 37.55 20.9l-.35 2.65q-21.45-10.3-40.4-22.9-19.25-12.8-30.8-24.6m97.8 58.75l1.35-1.85 11.7 4.65q1.6.6 1.4 1.2l-1.85.15q-5.8-1.7-12.6-4.15m1.15 17.35l.9 1.55Q83.1 200.4 84.9 237.45q1.1 22 17.15 37.25 17.55 16.6 44.1 15.4 21.1-.95 33.55-15.35 11.9-13.75 10.95-33.55-.45-9.35-6.45-17.95-5.2-7.45-10.95-10.05l2.25-.9q7 4 12.05 11.65 5.65 8.45 6 17.4.8 20.95-11.65 35.05-13 14.75-35.5 15.75-28.85 1.3-47.15-16.35Q83 260.1 81.9 237.65q-1.9-38.3 32.15-65"/><path fill="#0d131a" d="M151.15 218.4l-6.4.45-6.8.4-5.7.75q-8.6 1.85-14.05 9.45-5.65 7.8-5.55 18.45.1 10.6 8.3 17.85 8.55 7.55 21.7 7.3 11.45-.25 19.55-8.25 8.45-8.4 8.05-20.75-.25-8.95-6.1-16.2-5.15-6.4-13-9.45m-19.75-.25q4.85-1.05 13-1.55 15.2-.85 21.5-2.15 14.95-3.15 20.3-11.45l3.9-1.5q-5.1 10.1-20.3 14.15-5.5 1.5-15.05 2.45 6.5 2.6 11.6 8.85 6.5 8 6.75 17.1.4 14.15-9.7 22.95-8.85 7.75-20.75 7.95-14.35.3-23.8-8.2-8.85-7.9-8.85-18.85 0-11.35 6-19.55 5.9-8.1 15.4-10.2"/><path fill="#0d131a" d="M130.1 219.45l4.25-.95q-6 3.6-8.5 11.95-2.6 8.7 1.15 15.05 3.95 6.8 10.6 9.15 6.55 2.3 11.05-1.3 4.3-3.4 4.8-7.85.45-4.05-2.1-7-2.35-2.75-6.55-2.2-3.9.45-5.15 2.7-.6 1.05-1.15.65-.55-.35-.1-1.5 1.2-3.2 6.05-4 5.35-.95 8.8 3.25 3.35 4 2.15 9.3-1.1 5.1-5.7 8.5-4.35 3.3-11.6 1.7-8.45-1.8-13-9.9-3.9-6.95-2.15-15.5 1.7-8.15 7.15-12.05m57.75-74.1q3.4 5.75 4.5 9.55 1 3.5-1.45 4.75-3.55 1.8-6.8 3-.55.2-.7-.3-.6-1.9-1.4-3l-.55 4.35-.3.4q-2.6 1.4-7.7 2.05-5.45.7-9.6-.1-.35 0-.45-.45l-.4-4.2-1.85 3.95q-.2.35-.55.3-4.7-.55-8.45-2-4.55-1.75-6.6-4.4l-.1-.35q.05-.8.7-2.35.55-1.45 1.2-2.5.75-1.2 1.1-.95.35.3-.2 1.5-.7 1.7-1.05 3.75 3.3 4 13.1 5.35l2.4-4.05q.45-.7.75-.6.35.05.5 1l.75 4.3q3.85.65 8.7 0 4.45-.6 7.05-1.8l.5-4.3q.05-1.55 1.1-.6l2.2 2.75 5.35-2.3q1.35-.7.55-3.2-1.15-3.55-4.45-8.9-3.6-5.85-7.75-10.3l1.9-1.25q4.25 4.55 8 10.9"/><path fill="#0d131a" d="M193.7 167.6q1.6 6.55 1.9 10.25.1 1-.45 1.85l-1.45 1.55q-.95.85-3.6 1.8-2.85 1.05-5.5 1.5-.4.1-.6-.35-1-3.65-1.85-5.3-.45 1.55-.85 4.75 0 .7-.4.9-3.55 2-9.2 2.35-6.45.4-12.3-1.75l-.35-.45-.45-4.9-1.9 4.35q-.2.45-.6.3-4.5-1.15-8.15-2.9-4-1.9-8.3-5.05l-.2-.4v-.05l.5-4.95-2.15 3.45q-.2.45-.65.25-3-1.65-5.55-6.45-.4-.75-.05-.95.35-.2.85.5 2.2 3.25 4.95 4.9l2.45-3.6q1.2-1.55 1.2.3l.15 5.7q5.55 4.6 14.85 7.2 1.35-3.2 2.25-4.85.45-.85.8-.85.35 0 .5 1.05l.7 5.45q4.9 2 11.05 1.75 5.7-.25 8.8-2.15.75-3.75 1.3-5.2.25-.75.65-.75.4.05.8.75l2.15 4.85q2.5-.45 4.6-1.25 1.95-.7 2.65-1.35 1.15-1 1.05-2.05-.35-3.75-1.7-9.75-1.3-5.75-2.45-8.95l1.8-1q1.25 3.45 2.75 9.5"/><path fill="#0d131a" d="M194.45 197.35q-.25 2.55-1.95 3.65-3.65 2.15-10.25 3.75-.7.2-.8-.5l-.8-4.3q-.65 3.05-1.45 5l-.35.35q-4.85 1.2-9.9 1.5-6.85.45-11.9-1-.4-.15-.4-.5l-.3-4.95-2.1 4.25-.55.3q-4.8-.75-11.05-3.45-7.4-3.1-10.25-6.45l-.6-.95q-.15-.45 0-1.15l.7-2 .6-1.6-3.55 2.7q-.85.5-1.5.4l-1.4-.85q-6.05-5.25-8.95-9.9-.2-.3.05-.7.45-.95 2.35-3.25l-3.3 1.6q-.65.25-.9-.2l-2.95-5.5q-.85-1.95-.8-2.5.05-.6 1.2-1.65l2.35-1.65q2.2-1.45 2.9-1.7l3.25-.65q-1.2.55-3.75 2.75l-2.95 2.65q-.4.35-.25 1l.45 1.2 1.65 4.05 3.95-1.05q1.5-.4.8.95l-1.95 4.25q1.3 2.45 3.95 5.1l4.55 4.05q2.65-1.1 5.25-2.85.9-.45 1.1-.25v.9l-1.05 5.65q3.35 3.3 9.5 5.9 5.1 2.15 9.85 3.05l1.6-2.2 1.45-2.05q.5-.8.9-.75.45.05.55.95l.8 5.55q9.95 1.6 19.9-.9 1.2-2.45 1.9-5.05.2-.65.6-.65.4 0 .6.65l1.35 4q5.7-1.5 8-2.9 1.2-.65 1.35-2.5l-.05-6.6q-.25-4.8-.8-8l1.7-1q1.95 11.95 1.65 16M178.85 84.6q2.55 0 2.55.5t-2.55.8q-3.85.45-6.85 2.35-2.35 1.5-5.7 5.05l-8 8.1q-6.8 7-8.05 9.55-.85 1.8-1.2 1.55t.3-2.25q1.1-3.2 8.05-10.7l8.75-8.85q3.5-3.5 5.9-4.75 2.8-1.4 6.8-1.35"/></svg>