<svg xmlns="http://www.w3.org/2000/svg" width="266" height="241" viewBox="-0.4 -0.75 265.95 240.55"><path fill="#0d131a" d="M247.1 50.9q2.4 3.75 2.45 8.2 0 4.2-2.1 8.25-2.8 5.5-1.1 9.3 1.1 2.4 6.45 7.15l4.35 3.65q2.95 2.5 4.4 4.3 4 4.9 3.9 12-.05 5.55-2.55 11.55-3.25 7.8-11.45 9l-5.85.85q-3 .75-4.3 3.05-1.2 2.05-1 5.3l1.05 6.4q2.15 11.4-3.05 18.5-4.15 5.65-10.15 6.15-4.45.35-8.5-2-4.1-2.4-6.15-6.55l-3.3-6.25q-1.65-2.5-3.75-3-2.3-.55-8.2 3.15l-7.1 4.2q-6.9 1.6-11.55-3-.9-.85-7.25-10.2-3.55-5.25-5.7-7.65-3.6-3.95-7.8-5.9-7.8-3.6-16-1.95-6.4 1.3-29.05 10l-5.7 2.2q-23.8 9.1-34.1 7.9-4.7-.55-8.25-3.15-2.55-1.9-6.2-6.35-1.85-2.2-3.25-3.1-1.75-1.1-3.85-.9-2.1.2-3.6 1.6-.9.8-2.6 3.4l-3.65 5.05q-2.75 2.95-6.55 4.2-4 1.25-8.8 0-5.05-1.35-8.65-4.9-4.9-4.8-6.3-12.55-1.35-7.55 1.1-15.6l1.2-3.7q1.8-5.25 1.05-7.2-1.05-2.65-7.85-6.45Q.6 91.8.05 85.6q-.45-5.5 2.2-11.8 2.55-6.25 6.35-9.25 3.5-2.85 7.9-3.6l6.05-.35 3.05-.35q1.35-.4 2.4-1.65.6-.7.8-3.6.55-6 2.45-8.45 3.75-4.8 14.35-5.2 6.25-.25 8.9 2.8 1.85 2.1 2.4 6.95l.35 4.7q.3 3 .9 4.05 1.75 2.9 13.3 5-4.3-1.8-6.2-4.4-2.95-4-2-11.25.8-5.9 6-9.8 2.25-1.65 9.65-5 5.8-2.65 7.2-4.15 3.05-3.3 2.15-10.5-1.55-12.4 9.7-18 5.1-2.5 11-1.4T119.1 5.8q4.35 4.5 7 4.95 1.6.3 4.2-1.35 2.65-1.7 3.7-2.1 2.6-.9 4.6.4 5.85 3.95 7.45 12.95.85 4.5 1.4 5.9 1.2 2.85 3.9 3.95 3.4 1.4 6.65.55 1.9-.45 5.05-2.3Q167 26.4 169.5 26q4.35-.65 9.3 2.55 2.65 1.75 3.75 5.05.8 2.55.8 6.5 0 4.4-2 10.85Q185.9 45.2 192.8 48l4.95 1.85q2.65.5 4.45-1.5 3.75-4.15 7.3-6.15 4.75-2.65 11.15-2.95 8.1-.35 15.35 2.8 7.5 3.2 11.1 8.85"/><path fill="#fff" d="M258.6 92.55q3.75 4.6 4.25 11.2.45 6-1.9 10.7-2.55 5.15-10.65 6.9-4.4.9-6 1.6-3.1 1.3-4.75 4-1.55 2.55-1.3 6.35.05 1.4 1.05 7.1 1.3 7.55-2.95 14.25-3.85 6.1-8.4 6.45-3.9.3-7.2-1.4-3.4-1.8-5.15-5.35-2.25-4.55-4.1-6.85-2.05-2.6-4.2-3.2-2.1-.6-4.75.55-1.3.6-4.45 2.6-4 2.45-6.05 2.95-6.25 1.4-10.6-1.9-2.75-2.05-7.35-8.8-3.7-5.4-5.95-7.9-3.9-4.25-8.45-6.35-8.25-3.85-17.1-2.1-6.65 1.3-29.55 10.1l-5.75 2.2Q85.5 144 73.85 142q-6.75-1.1-12.75-7.45-2.2-2.3-3.75-3.15-2.2-1.15-4.95-.9-2.85.3-4.8 1.75-1.5 1.15-3.1 3.6l-3.4 4.4q-2.35 2.25-5.8 3.35-3.25 1.05-7.45-.35t-7.55-4.65q-3.7-3.65-5.3-8.65-2.25-7.25.4-16.15l1.2-3.65q1.85-5.3.15-9-1.8-3.75-7.9-7.15-5.45-3-5.9-9-.4-4.7 2.3-10.2 2.5-5.05 6.05-7.9 3.3-2.6 6.4-3.5l4.9-.7 3.65-.45q1.95-.6 3.4-2.3.65-.75.95-2.1l.35-2.65q.45-5.05 2.4-7.15 3.4-3.7 12.95-4.05 4.85-.15 6.6 2.65 1.1 1.75 1.65 6.95.6 5.35 1.8 7.35 1.55 2.55 7 4.2 3.35 1.05 11.1 2.4l7.2 1.45 2.5.7-1.35-2.25q-.55-1-2.2-1.7l-3.7-1.25q-5.55-1.65-8.3-4.85Q65 55.5 66.45 49q1.15-5.25 5.1-8.3 1.95-1.5 8.2-4.4 6.1-2.75 8.2-4.85 3.45-3.4 2.6-9.1-.85-5.7 1.8-10.9 2.7-5.2 7.8-7.7 4.5-2.2 9.05-1.3 4.55.9 8.35 4.85 4.85 4.95 8.5 5.4 2.6.35 5.95-1.85 1.7-1.1 2.55-1.3 1.2-.25 2.55.55 2.9 1.75 4.55 5 1 2 2.1 6.15 1.25 4.55 2.35 6.45 1.85 3.25 5.2 4.5 4.1 1.55 7.55.75 2.05-.5 5.25-2.4 3.35-1.95 5.3-2.1 3.2-.3 7.5 2.5 4.25 2.8 4.3 8.85.1 6.1-3.95 16.45l-.6 4.25q2.7-3.9 5.3-6.75 3.65-3.95 5.75-4.3 2.5-.35 5.45 1.9 3.65 2.95 6.7 1.9 1.85-.65 5-3.9 3.5-3.6 6-5.1 4.3-2.65 9.9-2.9 7.4-.3 13.6 2.55 6.2 2.8 9.55 8.05 2.25 3.55 2.8 7.2.55 3.95-1.15 7.2-3.3 6.35-1.05 11.2 1.35 2.9 6.9 7.85 4.6 4 7.2 7.15"/><path fill="#f4af8f" d="M165.1 64.7q2.9 2.9 1.8 6.6-1.1 3.75-.15 5.15.5.85 2.75 1.5 2.35.65 3.25 1.8 1.5 1.9 1.2 6.25-.25 3.65 2.15 5.1 2.05 1.25 5.3.5 3.05-.65 5.35-2.55 2.4-2 2.2-4.15-.55-6.5 2.45-9.9 4.2-4.65 14.15-.7 5.1 2.05 6.45.8.95-.85.4-4.35-.75-4.45-.5-6.15.55-3.5 4-4.75 7.3-2.6 10.85 4.6 1.4 2.85 1.35 6-.05 3.25-1.6 4.95-1.35 1.5 2.85 4.9 5.6 4.5 6.7 6.5 1.55 2.8-.45 5.25-1.35 1.6-5.1 3.7-4 2.25-4.85 3.05-1.65 1.65.3 3.25 4.7 3.85 4.7 9.7.05 6.1-5.5 9.65-2.65 1.7-6.5.75-2.4-.6-7-2.9-4.55-2.3-6.4-2.75-3.15-.8-4.75 1.1-1.55 1.9-.75 4.5.35 1.1 2.4 4.65 1.65 2.9 1.6 4.55-.05 2.35-3.1 4-2.85 1.55-6.3 1l-5.4-1.35q-2.85-.6-4.6.8-2.25 1.8-3.85 7.45-2.8 9.85-10.85-2.2-8.2-14.75-9.95-15.55-8.25-3.85-17.1-2.1-6.65 1.3-29.55 10.1l-5.75 2.2q-2.75 1.05-4.2 2.6l-2.05 2.2q-2.7 2.05-15.75 1.45-14.65-.65-21.25-9.6-5.1-6.85-4.65-16.8.3-6.3-9.2-5.45l-8.15 1.1q-4.75.65-7.05.1-5.9-1.4-6.4-4.5-.6-3.5 5.25-9.6 4.85-5.1 1.55-8.7l-3.15-2.75q-1.85-1.6-2.1-2.95Q28.5 75 34.95 67.8q3.85-4.3 9.15-1.7 5.5 2.65 6.15 10 .65 7.4 4.05 10.05 3.25 2.55 6.15-1.4 4.3-5.85 10.35-6.6 4.35-.5 11 1.75l10.05 3.3q5.05 1 7.5-1.85 3.45-4 3.7-6.5.15-1.9-1.7-3.95l-3.65-3.95q-2.05-2.85-2.2-6.6-.3-6.85 7.65-7.55l6.15-.35q3.25-.3 4.2-1.65 1.3-1.8-.6-4.9l-4.3-6.15q-5.7-8.7 1.65-15Q117 19 122.4 24.1q5 4.7 5.8 15.35.45 5.8 5.25 7.55 5.15 1.9 9.75-4 2.45-3.2 6.55-3.4 3.7-.15 6.85 2 3.15 2.15 3.45 5.05.35 3.25-3.5 5.85-3.65 2.5-2.5 4.45.7 1.25 4.8 3.55 4.65 2.5 6.25 4.2"/><path fill="#ec6d45" d="M165 82.2q-.25 4.8 1.7 9.6 1.1 2.65-1.7 6.45-1.65 2.3 0 4.9 1.7 2.65 5.8 3.85 1.8.55 2.75-1.6l1.2-4.5q.55-2.85 1.35-3.35 1.1-.7 3.3 2.05 2.2 2.75 4 2.8 1 .05 3.45-1.35 5.8-3.3 13.25-.1 2.5 1.1 3.8-1.35.6-1.05 1.7-5.55.95-3.7 2.15-4.6 1.75-1.35 5.15 1.45 3.1 2.55 4.65 1.3 1.05-.85 1.8-4.1.85-3.55 1.45-4.3 1.15-1.4 3.55.85 3.1 2.95 2.8 6-.25 2-2.55 5.85-2.6 4.4-3.35 6.95-1.25 4.5.35 9.25 2.15 6.3-5.3 4.2-8.9-3.65-11-4.2-6.85-.7-9.8 3.05-1 1.35-2.25 4.2l-2.3 5.1q-2.1 4.05-12.6 3.15-13.05-1.1-16.35 0-1.5-2.4-2.3-2.75-8.25-3.85-17.1-2.1-6.65 1.3-29.55 10.1l-5.75 2.2q-4.65 1.8-17.8-2.95-13.95-5.05-17.35-11.3-1.6-2.95-.15-6.05.55-1.2 3.5-5 2.15-2.8 1.95-4.45-.3-2.35-4.75-4.4-6.3-2.85-11.2-1.15-2.5.85-3.35.9-1.85.1-4-1.35-5.05-3.4-5.8-9-.3-2.25.95-2.65 1.4-.45 4.3 1.85 4.75 3.75 9.2-.6l3.35-3.45q1.9-1.7 3.55-1.4l8.9 2.55q5.1 1.5 8.4.7l5.4-1.75q4.05-1.35 6.75-1.6 8.4-.75 10.85 7.7 1.3 4.5 2.35 3.9.55-.35 2.35-4.4 4.45-10.15 10.8-9.3 1.8.25 1.65-.5L125.8 80q-2.75-3.55-.3-4.85.75-.4 6.4-1.4 3.05-.55 3.7-4.1.55-3.1-4.2-5.4l-2.45-1.4q-.65-.8.9-1.9 2.8-2-.15-7.25-3.85-5.55-4.45-7.2-.65-1.75 6.15 2 7.9 4.35 9.6 3.2 2.8-1.85 5.1-.6 2.5 1.35 1.2 5.5-.6 1.95 1.65 3.4l4.9 2.2q3.15 1.35 3.9 2.7 1.05 1.9-1.5 4.75-.65 1 .55 1.75.75.45 3.25 1.55 5.25 2.8 4.95 9.25"/><path fill="#ec6d45" d="M117.9 68.9q-1.85-.6-2.8-4.7-.95-4.1.05-6.8 1-2.65 3.35-3.5 2.3-.85 3.7.8.85.95 1.1 4.3.25 3.55 1.7 5.7 1.8 2.65-1.6 3.9l-5.5.3"/><path fill="#f4af8f" d="M201.55 67.7q-1.35-.25-2.05-2.05-.75-1.85 0-3 .75-1.2 2.5-1.6 1.7-.35 2.75.35.65.45.8 1.95.15 1.55 1.25 2.5 1.35 1.15-1.2 1.7l-4.05.15"/><path fill="#ec6d45" d="M37.1 82.65q-1.35-.25-2.1-2.05-.7-1.8.05-3 .75-1.15 2.5-1.55 1.7-.35 2.75.35.65.4.8 1.9.15 1.55 1.25 2.5 1.35 1.2-1.2 1.75l-4.05.1"/><path fill="#0d131a" d="M111.5 36.65q-4.6-7.15-.8-19.55.95-3.05 1.5-2.3.5.75-.2 4.4-2.25 11.3 1.55 16.85 2.75 4.05 14.1 10.55 17.5 9.9 27.1 22.2 8.1 10.35 6.85 23.5-1 10.6-7.05 18.6l-1.05-.7q4.8-6.45 5.55-17.8.95-14.35-7.25-24.9-5.1-6.5-12.4-11.5-2.45-1.7-12.8-7.6-11.85-6.75-15.1-11.75m-18.9 35.3q6.05 4.8 8.45 9.65 2 4.1.95 4-.95-.05-2.8-2.95-3.75-5.8-9.15-9.7-5.7-4.1-12.55-5.65l2.35-1.5q6.05.75 12.75 6.15m81.5 1.1q-.25-6.45.3-9.65.95-5.3 4.45-9l3.15-1.15q-3.95 4.55-5.2 10.2-.8 3.6-.6 9.55.25 6.4-.05 8.65-.7 4.7-3.9 7.8-2.75 2.6-3.45 2.45-.75-.2 1.95-3.95 2.6-3.55 3.2-7.3.4-2.3.15-7.6m-124.7 94.9q15.25-12.15 22.25-10.85 5.5 1.05 7.85 7.35 1.35 3.7 2.25 13 .7 6.95-.2 14.85-1.25 10.5-4.9 14.9-1.05 1.25-3.3 1.85l-3.65.5q-1.65.15-3 1.25l-2.25 2.5-2.1 2.95q-1.45 1.65-3.2 2.1l-5.35-.3q-1.2-.45-4.65-2.25-3.25-1.75-5.15-2.05-3.15-.45-7.2 1.25-7.25 3.05-10.6-.45-3.25-3.45-2.1-10.1.95-5.25 4.9-13.55 5.2-10.9 20.4-22.95"/><path fill="#fff" d="M78.6 191.9q-1.8 9.2-5.1 13.15-1.85 2.25-4 2.4-2.25.2-4.05 1.65L62.8 212l-2 2.35q-1.15 1.1-2.55 1.45l-4.15-.1q-1.35-.4-3.95-1.8-3.7-1.9-5.75-2.35-3.6-.75-7.4.75-6.25 2.5-8.5.15-2-2.05-1.1-7.7.9-5.65 4.4-13.35 4.75-10.4 19.3-22 14.2-11.3 20.15-10.2 4.35.85 6.15 5.65 1.35 3.5 2.25 12.8.55 6.05-1.05 14.25"/><path fill="#f4af8f" d="M71.25 159.2q4.35.85 6.15 5.65 1.35 3.5 2.25 12.8.4 4.3-.45 10.45-.9 6.55-2.75 11.45-4.95 1.85-11.75-2.4-1.3-.8-2.25-2.55l-1.5-2.7q-1.85-2.6-6.85-.05-5.7 2.95-7.95-3.95-1.95-6.05-.25-14.05 7.3-6.7 14.5-10.9 7.45-4.35 10.85-3.75"/><path fill="#0d131a" d="M83.1 88.65l5.9-.85q11.4-1.45 18.75 3.8 5.4 3.85 9.6 12.35l-1.85.9q-5.05-10-9.45-12.85-5.55-3.65-16.8-2.1l-5.85.85q-13.65 2-20.35 1.85-11.6-.35-17.95-5.75-3.95-3.35-6.2-9.65-2.2-6.1-2.05-12.6.15-5.9.75-4.9.65.95.75 5.45.15 4.7 2.3 10.5 2.45 6.7 5.85 9.6 5.85 5 17 5.25 6.5.1 19.6-1.85m134.8-17.1q-2.25-6.8-2.85-11.3-.75-5.9.95-9.45 1.8-3.75 2.75-3.3.9.45-.8 3.6-2.8 5.25 2 19.75 4.2 12.8 3.65 19.15-1 10.85-12.9 18.8-4.3 2.85-10.6 3.55l-11 .35q-6.6.05-10.25 1.3-5.1 1.75-8.15 6.5l-1.4-.55q1.8-4.9 6.65-7.1 3.7-1.6 10.4-2l11.65-.5q6.65-.5 10.4-2.4 12.15-6.2 13.25-16.9.6-6.45-3.75-19.5"/><path fill="#0d131a" d="M177.15 122.35q7.1 9.3 10.5 23.95 3.2 13.9-.3 28.45-3.5 14.35-12.35 24.6-6.6 7.7-16.35 11.8-12.3 5.2-27.85 3.9-11.5 5.45-26.4 5.15-16.15-.35-27-7.65-7-4.8-11.2-13.5Q61.8 190 61.55 179q-.4-18.2 7.3-35 9.85-21.45 31.25-35.4 12.8-8.35 30.45-8.55 15.15-.15 25.25 5.05 13.95 7.45 21.35 17.25"/><path fill="#fff" d="M184.65 146.8q3.15 13.45.05 27-3.1 13.5-11.6 23.3-14.25 16.45-38.05 16.1 3.2-1.9 3.85-2.95 1-1.55-4.6.95-14.2 6.1-29.05 6.2-16.4.1-27.2-7.5-6.55-4.6-10.25-12.4-3.9-8.15-4.1-18.55-.4-16.9 7.95-34.3 10.05-20.85 29.65-34.3 12.05-8.25 29.2-8.35 14.45-.1 24.35 4.95 11.8 6.1 19.15 15.95 7.4 9.85 10.65 23.9"/><path fill="#dbdcdc" d="M184.55 174.3q-3.15 13.2-11.45 22.8-14.25 16.45-38.05 16.1 3.2-1.9 3.85-2.95 1-1.55-4.6.95-11.1 4.8-23.05 5.9-12.85 1.2-23.25-2.25 11.8 1.55 25.8-1.2 14.5-2.9 24.1-9.05 1.2-.75 5.5-1.05 4.5-.25 9.9-3.35 10.7-6.05 21.05-21.8 11.35-17.3 10.55-30.5 2.8 13.25-.35 26.4"/><path fill="#f4af8f" d="M77.35 153.95q-4.6-4 1.95-8.65l5.6-3.7q3-2.05 3.55-3.6.8-2.3-.1-7.5-.85-4.9.45-7.5 1.8-3.55 5.95-4.85 3.9-1.2 5.15-4.5l.65-2.6.75-.7q12.05-8.25 29.2-8.35 14.45-.1 24.35 4.95 3.35 1.75 4.9 3.2 2.05 1.9 2.65 4.65.35 1.5-1.75.6-3.2-1.6-5.2-2.35-8.15-2.95-9.55 6.25-.8 5.2-3.6 5.65-1.8.25-5.65-1.75-4-2.15-5.3-2.15-2.4 0-2.6 4.45-.15 3.6-4.4 5.2-9.2 3.45-10.4 4.15-3.35 1.95-2.05 3.75.75 1.1 4.5 3.1 3.55 1.9 4.1 3.05.95 1.85-3.05 3.75-3.2 1.55-3.95 4.05-.4 1.45.05 4.45.4 2.7-.2 3.7-.95 1.6-4.65 1.85-9.25.6-13.4 7.65-1.95 3.25-2.95 4l-5.65.2q-2.7-.85-3.75-3.3-.7-1.55-1.05-5.3-.75-8.55-4.55-11.85"/><path fill="#ec6d45" d="M126.3 102.15l15.35.75q2 5.25-2.4 8.25Q135.1 114 126.4 114q-4.75 0-5.9 1.95-.5.9-.3 4.45.2 3.25-1.2 4.95-2.15 2.55-8.55 3.45-2.85.4-4.05 2.85-.5.95-1.4 5.2-1.7 7.5-8.8 8.55-4.6.7-3.95-4.4l.7-4.4q.25-2.5-.6-3.7-1.85-2.5-.45-4.45.95-1.3 4.2-2.95l5.1-2.75q2.35-1.75 2.05-3.85-.65-4.3 1.45-7.45 1-1.55 5.5-5.75 7.4-2.9 16.1-3.55"/><path fill="#0d131a" d="M114.45 84.9q2.85-.95 5.2-.1 2.55.9 4.05 3.7 2.9 5.15 4.6 5.45 2.2.45 7.8-4.05 2.6-2.1 4.75-1.25 2.95 1.2 5.55 5.65 2.45 4.25 3.05 8.65l-.65.8q-4.05-1.75-9.5-1.45-5.1.3-9.85 2.25-9.8 4-20.2 18.15-6.3 8.5-9.3 14.85-.45 1.05-1.05.75-.45-.2-1.3-1.4-3.1-4.45-4.05-9.1-.95-4.35.15-8 .9-3 3.55-3.95l4.8-1.05q2.65-.8 3.5-3.25 1.1-3.2-.2-10.35-.85-4.6 2-9.75t7.1-6.55"/><path fill="#fff" d="M115.75 87.3q4.05-1.3 6.5 3.2 1.5 2.65 2.8 3.9 1.3 1.3 2.8 1.6 1.9.4 4.35-.85 2-1 5.25-3.6l2.4-.15q2.05.8 4.15 3.65 2.15 2.95 3 6.45-8.65-2.95-17.35.65-9.85 4.05-19.5 15.6-7.2 8.6-11.3 17.2-3.75-6-3.75-11.1 0-1.75.55-3.25.9-2.25 3.25-2.65l.85-.15q4-.6 5.75-2.35 2.4-2.5 2.4-8.5l-.45-6-.05-1.15q0-3.8 2.5-7.55 2.55-3.85 5.85-4.95m57.9 86.45q10.8-.35 23.65 4.55 19.25 7.3 28.4 23.3 2.65 4.6 2.15 8.25-.45 3.35-3.05 3.75 1.55 7.65-1.05 13.85-2.9 6.9-9.6 6.9-3.55.05-7.8-2.65-4.3-2.7-6.9-2.7-1.35 0-2.6 1.6l-2.4 3.45q-3.6 4.7-10.3 3.55-4.75-.8-6.1-4.35-.95-2.55-.7-9.45.35-9.65 0-14.2-.65-9.6-3.8-18.65-4.55-1.95-6.9-4.7l7-12.5"/><path fill="#f4af8f" d="M173.55 190.95l-4.1-1.55q-1.85-.75-3.05-1.9-1.5-1.45 1.7-7.75 3.2-6.35 5.55-6 9.75 1.2 15.9 2.85 15.25 4 24.75 11.85.25 5.6-1.25 7.85-1.65 2.5-5.9 1.9-4.3-.55-6.85 2.45-1.8 2.15-2.25 5.15-.1.6.4 3.6.55 3.25.45 5.2-.2 6.65-7.15 6.7-6.25.05-9.15-4.85l-2.05-3.35q-1.25-1.5-3.1-1.4-.45-10.8-3.9-20.75"/><path fill="#ec6d45" d="M173.55 190.95l-4.1-1.55q-1.85-.75-3.05-1.9-1.5-1.45 1.7-7.75 3.2-6.35 5.55-6l6.95.95q6.65 1.1 12.65 2.95-1.3.55-1.1 2.3.1 1.1.9 4.5.4 2.05-4.15 2.4-5.35.4-6.25 1.6-1.35 1.85-1.2 4.4.15 2.05 1 3.25 1.75 2.4-.6 4.2-1.9 1.45-5.4 1.95-1-5.85-2.9-11.3"/><path fill="#0d131a" d="M172.55 190.4q.35-.3 1.25.35l1.05 1.1q2.85 8.4 3.55 17.15.4 5.05.05 13.3-.25 7.4.85 10.1 1.3 3.1 5.7 3.85 4.35.75 6.7-.85 1.2-.8 3.15-3.8 1.25-1.85 1.95-2.55 1.2-1.1 2.65-1.1 1.95 0 3.9.85 1.1.45 3.25 1.8 2.4 1.55 6.4 1.8 5.1.35 7.95-2.6 2.8-2.85 3.3-9 .6-6.95-2.8-12.2-1.05-1.6-.7-2.1.35-.45 1.75 1.3 2 2.5 2.65 4.65.6-.1.85-.5l.4-.8q.7-1.4.4-3.55-.35-2.6-2-5.5-8.4-14.75-29.55-22.6-6.95-2.6-14.35-4.05-5.35-1.1-7.25-1.05-2.2.05-2.5-.75-.3-.85 2.45-.95 3.25-.2 9.4 1.15 7.35 1.55 14.65 4.55 19.95 8.2 29 22.65 1.3 2.1 2.1 4.3.8 2.4.7 4.05-.1 2.8-1 4.05-.75 1-2.25 1.2l.2 4.25q0 3.75-1 7.05t-2.8 5.5q-3.3 4-8.45 4-4.8 0-8.7-3.05-3.85-3-6.1-2.4-1.5.4-2.7 2.75-1.65 3.25-4 4.8-3.4 2.25-8.65 1.4-4.7-.8-6.45-3.9-1.4-2.5-1.4-7.75l.35-11.65q0-5.55-.85-11.7-1.05-7.4-3.1-13.55m-98-72.2q-.4-2.1.05-2.25.4-.2 1.8 1.35L89.2 132q11.7 13.7 13.2 16.4 2.45 4.4.7 8.35-1.55 3.4-5.6 5.5-3.85 2-7.55 1.75-3.95-.25-5.1-3.05l-10.3-42.75"/><path fill="#fad7b5" d="M87.25 160.95q-1.05-1.3-4.05-13.4-2.65-10.95-5.75-25.85 21.05 24 23.1 27.75.55 1 .65 3.4.1 4.6-5.1 7.35-5 2.65-8.85.75"/><path fill="#0d131a" d="M82.15 195.6q1.25-.2 4.25.75l2.55.7 3.95-.1q4.15-.5 8.05 3.25 1.95 1.9 3.1 3.85-.4 2-2.7 4.05-2.55 2.2-5.55 2.5-3.8.45-6.75.05-4.35-.5-8.3-2.8-1.7-1-3.1-2.8-1.35-1.8-1.95-3.75.6-1.25 1.7-2.6 2.2-2.65 4.75-3.1"/><path fill="#f9dbe1" d="M85.65 197.3l2.9.75q2.05.3 4.5-.05 2.3-.35 5.1 1.8 1.7 1.3 4.45 4.35-.5 1.55-2.65 3.15-2.4 1.75-5.05 2.05l-6.9-.25q-4.35-.75-6.8-2.5l-2.1-1.65q-1.45-1.5-2.15-3.5l.8-1.3q.9-1.3 1.6-1.85 1.2-1 3.1-1.4 1.2-.25 3.2.4"/><path fill="#0d131a" d="M94.2 203.65l.5.55-.6.35q-2.9 1.1-5.7.65-2.4-.35-4-1.65l-.35-.35.25-.3 1.05-.65q.95-.45 1.9-.55l3.1.2q2.4.45 3.85 1.75"/><path fill="#ed8599" d="M87.35 202.75q3.1-.2 5.3 1.15l-4.2.35q-1.55-.3-2.75-1.05l1.65-.45"/><path fill="#0d131a" d="M169.6 190.1q-4-1.45-3.8-2.7.15-1.25 4.35.65 6.6 3.1 8.45 4.3 5.15 3.4 9.8 9.65 2.55 3.4 1.4 3.45-1.1.05-3.2-2.4-5.2-6.1-9.85-9.35-3.2-2.2-7.15-3.6m-65.55-7.05q0-7.5 4.85-13.65 5.1-6.5 12.15-6.5 6.85 0 12 5.75 5.15 5.7 5.2 13.35.1 6.55-4 11.25-4.65 5.3-13 6.1-3.3.3-6.55-.85-3.15-1.15-5.55-3.35-5.1-4.65-5.1-12.1"/><path fill="#fff" d="M110.2 193.95q-4.55-4.1-4.55-10.9 0-6.9 4.4-12.55 4.65-6 11-6 6.2 0 10.8 5.35 4.6 5.35 4.6 12.4 0 5.05-3.7 9.35-4.35 5.05-11.8 5.75-6.35.6-10.75-3.4"/><path fill="#0d131a" d="M107.5 185.3q0-4.8 2.95-8.2 2.95-3.35 7.15-3.6 4.8-.25 7.7 3.45 2.75 3.45 2.75 8.6 0 4.9-2.95 8.35-2.95 3.5-7.1 3.5-4.2 0-7.35-3.6-3.15-3.65-3.15-8.5"/><path fill="#84cabf" d="M108.55 185.3q0-4.45 2.65-7.6 2.65-3.15 6.4-3.15 3.7 0 6.35 3.15 2.65 3.15 2.65 7.6 0 4.45-2.65 7.6-2.65 3.15-6.35 3.15-3.75 0-6.4-3.15-2.65-3.15-2.65-7.6"/><path fill="#0d131a" d="M119.95 184.65q0 2.2-1.1 3.75-1.15 1.55-2.75 1.55-1.55 0-2.7-1.55-1.1-1.55-1.1-3.75t1.1-3.75q1.1-1.55 2.7-1.55t2.75 1.55q1.1 1.55 1.1 3.75"/><path fill="#fff" d="M119.55 177.5q.9-1 2.2-1 1.3 0 2.2 1 .9 1.05.9 2.5t-.9 2.45q-.95 1.05-2.2 1.05-1.25 0-2.2-1.05-.9-1-.9-2.45 0-1.45.9-2.5"/><path fill="#0d131a" d="M104.05 183.05q0-7.7 4.4-14.1Q113.2 162 120.1 162q4.9 0 9.65 3.55 4.65 3.45 6.9 8.65l.45 1.15h-1.2q-9.5-.1-17.3 3.6-7.75 3.75-12.05 10.4l-.85 1.35-.55-1.5q-1.1-3.05-1.1-6.15"/><path fill="#f4af8f" d="M105.65 183.05q0-6.9 4.4-12.55 4.65-6 11-6 4.15 0 7.7 2.5t5.65 6.75q-8.95.2-16.3 3.7-7.35 3.5-11.85 9.7-.6-2.3-.6-4.1"/><path fill="#0d131a" d="M73.6 161.05q2.9 4.8 2.9 11 0 4.1-1.2 7.65-1.2 3.5-3.25 5.5-2.25 2.15-4.55 2.15-4.6-.1-7.3-3.85-2.9-4.15-3.1-12.1-.15-5.9 2.9-10.55 3.05-4.6 6.95-4.6 3.7 0 6.65 4.8"/><path fill="#fff" d="M74.9 172.05q0 3.75-1.05 7-1.1 3.3-2.9 5-1.55 1.5-3.2 1.4-4.6-.2-7-4.75-2.05-3.85-2.05-9.3 0-5.5 2.7-9.65 2.5-3.9 5.55-3.9 2.85 0 5.35 4.15 2.6 4.4 2.6 10.05"/><path fill="#0d131a" d="M62.95 174.5q0-4.65 2-8 1.95-3.35 4.65-3.35 2.65 0 4.5 3.25 1.85 3.2 1.85 7.9t-1.85 7.9q-1.85 3.25-4.5 3.25-2.75 0-4.65-3.15-2-3.15-2-7.8"/><path fill="#84cabf" d="M64.25 174.3q0-4.1 1.6-7.1t3.75-3q2.15 0 3.7 3 1.6 3 1.6 7.1t-1.6 7.05q-1.55 3-3.7 3-2.15 0-3.75-3-1.6-2.95-1.6-7.05"/><path fill="#0d131a" d="M74.1 175.5q0 2.15-.95 3.65t-2.25 1.5q-1.3 0-2.25-1.5t-.95-3.65q0-2.15.95-3.65.95-1.55 2.25-1.55t2.25 1.55q.95 1.5.95 3.65"/><path fill="#fff" d="M70 170.95q0 1.2-.8 2.05-.75.85-1.85.85T65.5 173q-.8-.85-.8-2.05 0-1.2.8-2.05.75-.85 1.85-.85t1.85.85q.8.85.8 2.05"/><path fill="#0d131a" d="M74.2 160.75q2.3 4.85 2.3 11.3 0 3.25-.85 6.4l-.6 2.2-.9-2.1q-5-11.55-14.1-15.9l-.8-.4.45-.75q1.45-2.45 4-4.15 2.45-1.7 4.4-1.7 3.6 0 6.1 5.1"/><path fill="#f4af8f" d="M66.95 157.85q2.85 0 5.35 4.15 2.6 4.4 2.6 10.05l-.35 3.65q-4.9-9.85-13-14.05 2.6-3.8 5.4-3.8"/></svg>