<svg xmlns="http://www.w3.org/2000/svg" width="379" height="323" viewBox="-0.55 -0.15 379.45 322.65"><path fill="#ec6d45" d="M343 99.55q3.4 6.65 6.25 16.05l-9.85 2.95-6.8 1q-5.25.75-6.05 1.25-3.85 2.35-6.95 7.7-3.2 5.45-4.2 11.65-.75 4.75 2.4 8.2 3.65 4 13.5 7.55 11.25.45 21.8-4.45-3.35 20.3-10.8 34.25-4.4 8.2-13.5 18.75-13.35 15.35-34.65 23.95-20.05 8.1-40.9 8-8.4-.05-17.35-1.8-8.8-1.65-15.75-4.45-11.6-4.6-28.15-14.45-18.65-11.15-20.05-15.85-2.75-9.15-3.5-21.8-.75-11.75.4-22.05.6-5.55 1.9-11.75 1.4-6.55 3.1-11.5 10.3-29.5 25.95-46.9Q217.65 66 247.5 55.6q2.95-.85 7.65-1.55l7.8-.85q11.7-.65 23.3 1.85 12.75 2.75 23.15 8.9l8.9 7q9.9 8.2 15 14.15 5.8 6.7 9.7 14.45"/><path fill="#fff" d="M178.7 174.6l23.05 11.25q21.2 10.55 25.9 14.55l7.6 7q6.2 5.6 12 9.6 17.8 12.3 38.1 14.5-14.9 5.05-30.2 5.05-15.05-.05-29.75-5-7.05 0-10.85.15-6.8.25-10.7 1.75-3.05 1.15-7.05 4.6l-6.65 5.4q-2.2 1.45-4.1 4-2 2.6-2.5 4.9-.7 3.15.25 7.7l2.05 7.5 3.75 15.75q1.65 9.65.05 16.45-1.55 6.5-5.95 11.6-4.4 5.15-10.3 7.15-5.65 1.95-12.2 1.1-6.6-.85-10.6-4.15-13.3-10.75-11.2-31.25 1.8-17.65 12.7-32.1l3.55-5.2q1.75-3.05 1.9-5.85.4-5.5-2.9-8.5-2 .85-3.9 4.05l-2.45 4.85-4.65 8.8q-2.6 5.05-4.3 8.95l-6.55 14.25q-3.8 7.35-7.05 10.75-4.85 5.05-12.35 6.4-7 1.25-13.75-1-5.95-2-9.85-7.2-3.8-5.05-4.65-11.65-1.2-10.35.65-30.85 1.65-13.75 2.1-19.7.85-10.1-.75-14.45-3.5-9.7-13.55-18.15-6.2-5.15-21-14.1-12.9-7.8-20.2-13.25-11.05-8.3-17.85-17.05-10.1-13-12.2-26.8-2.1-13.95 4.55-24.85 6.65-10.9 20.6-16.1 13.85-5.15 28.8-2.35 31.75 6.05 60.35 33.25 21.9 20.85 40.55 52.7 4.05 7 7.35 7.6 2.1.4 3.15-1.65 2.9.25 6.15 4.3 3.75 4.75 4.85 5.3"/><path fill="#fff" d="M175.2 181.25q10.65.45 15.7-2.7 5.3-3.25 10.05-4.5 5.05-1.35 11-.8 5.8.5 11.3 3.35 5.85 3.05 8.95 7.55 1.35 1.9.8 3.45l-2.05 3.4-4.1 6.4q-2.4 3.95-3.25 6.8-1.3 4.45-1.45 10.2-.15 5.2.7 10.3.3 1.95 2.5 9.65 2.2 7.6 2.9 12.1 2.3 15-7.2 17.55-5.5 1.5-13.6-2.35-3.1-1.5-12.25-7.3l-9.1-5.2q-5.6-3.45-7.6-6.95-1.1-1.9-1.75-5.8l-.8-6.9q-.5-6.15-1.5-8.6-1.45-3.5-4.65-5.2l-6.5-2.4q-2.95-1-5.95-2.6-3.45-1.85-5.5-3.75-5.35-5-6.85-12.45-1.35-6.6.8-11.35 1.45-3.3 5.5-4l7.15.2 16.75 1.9m-5.85-27.5l-.75 6.05-.5 6.1h-2.05q-1.4.55-3.2-.5-2.3-1.35-4.65-5.35-28.45-48.45-64.15-71.45-.45-1.95-2.2-4.7-1.65-2.5-3.85-4.7-7.5-7.4-10.4-14.45-2.9-7.05-1.95-12.35.75-4.15 3.95-7.6 2.75-2.85 8.05-3.95 5.25-1.1 11.05 0l3.05.65q7 1.9 13.95 8.05 3.25 2.9 10.55 11.15 4.65 5.2 6.5 6.8 3.15 2.75 5.45 2.6 2.75-.2 3.75-2.6L143 63q.6-2.95 1.9-4.4 1.7-1.95 5.45-2.7 5.9-1.2 11.5 4.85 4.75 5.1 8.2 14.05-12.45 36.4-.7 78.95"/><path fill="#dbdcdc" d="M169.35 153.75l-.75 6.05-.5 6.1h-2.05q-1.4.55-3.2-.5-2.3-1.35-4.65-5.35-11.05-18.9-23.9-34.6 4.85 1.65 10.75 1.3 6.7-.4 10.05-3.5 2.75-2.35 4.5-8.95 1.65-6.35 4.5-8.35-1.35 23.7 5.25 47.8"/><path fill="#fff" d="M346.05 180.1q4 3.65 15.2 8.6l8.05 3.55q4.5 2.05 4.6 3.05.15.95-.35 2.3l-1.15 2.2-1.2 2.1q-.4 1.25.15 2.3 3.4 5.9 4.65 10.75 1.75 6.85-.15 13.15-.8 2.7-3.75 5.35-2.7 2.35-5.95 3.65-2.75 1.1-5.5 1-2.75-.1-4.95-1.4-3.35-1.95-6.5-3.45-3.75-1.75-5.5-1.95-1.75-.15-4 1-1.5.7-3.9 2.5l-3.9 2.6q-2.25 1.15-4.35 1.05-4.8-.15-8.6-4.95-2.3-2.8-3.9-7.75-1.65-4.95-1.45-8.4 10.55-7.55 18.75-16.8 8.55-9.7 13.7-20.45m-93.05 73l.25 2.35-.05 2.75q.1 3.4.35 4.9.45 2.6 1.7 4.1 3.9 4.7 5.3 10.45 1.3 5.45-.2 9.4-1.4 3.65-5.9 6.4-4.5 2.7-10.05 3.25-14.8 1.55-26.85-13.2-8.55-10.5-11.7-22.05 9.7 4.45 14.95 3.05 2.4-.65 4.15-2.4 1.5-1.55 2.95-4.45 1.7-3.3.8-9.35-.35-2.7-2.8-12.7l-1.3-3.8 8.9 2.8q.4 1.75 2.5 3.5l4.85 3.35q5.65 3.5 7.3 4.85 3.85 3.2 4.85 6.8"/><path fill="#dbdcdc" d="M164.8 166.7q2.15.4 3.2-1.65l.35.05q-.2 3.75 0 9.45.15 5.75.5 6.7l-10.25-1.5q-6.25-.8-9.75.1-5 1.25-4.5 10.95.55 9.45 5.05 13.8 6.3 6.05 15.45 9.25 4.1 1.5 5.45 2.25 2.5 1.4 3.75 3.85 1.9 3.6 2.5 12.15.55 7.9 2.75 11l2.35 2.55 3.8 3.1q-1.2 1.8-1.6 3.65-.85 3.85.6 9.4l2.5 9.25-6.9-7.95q-4.2-5-7.4-7.55-4.6-3.55-9.1-4.1-2.55-.3-6.25.05-4.65.4-5.6 1.65l.7-1q4.1-5.45 5.05-10.95.45-2.95-.3-5.35-.8-2.65-2.75-3.3l-2.35 2.05q-1.3 1.15-1.05 1.95-1.15-3.35-2.6-5.55-1.7-2.65-4.25-4.45-1.7-1.15.95-6.6 2.6-5.55 1.05-6.8l-10.05-8.4q-3.2-3.6-3.45-9.7-.05-1.55 1.9-6.2 1.65-4 .8-5.9-3.8-8.25-4.55-12.35-1.2-6.8 1.5-15.05.9-2.65 5.65.85 5.4 3.9 7.2 2.65 1.9-1.3-.55-10.85-2.8-10.95-2.55-12.7 8.25 11.3 15.4 23.6 4.05 7 7.35 7.6"/><path fill="#3e3a39" d="M153.3 140.3q-.6-1.75-.6-6.1.05-4.95 1.25-6.15.85-.85 2.6.95 1.25 1.25 2.1 2.75 1.1 1.95.8 5.9-.35 3.7-1.45 4.95-.55.7-2.55-.45-1.9-1.15-2.15-1.85"/><path fill="#fff" d="M345.85 178.1q-4.9 12.85-12.8 21.95-2.55-2.95-5.45-3.6-3.55-.8-8.4 1.55l-10.15 5.85q-5.8 3.45-8.25 3.45-3.3 0-7.55-2.9-4.3-3-5.35-6.25-1.1-3.45-1.3-9.15-.2-5.7.65-8.3.35-1.15 3.6-4.3 4-3.85 6.75-8.1 5.15-8 8.15-18.7 2.1-9.05 2.75-9.8 1.1-1.25 4-1.05l3.4.45q-.95 2.2-.5 4.35.4 1.85 2 4.3 2.55 2.75 5.85 4.55 2.7 1.4 8.05 3.3 4.6.35 12.7-1.35 7.9-1.65 9.1-3.05-3.5 16.85-7.25 26.8"/><path fill="#dbdcdc" d="M208 192.65q5.3-3.15 2.45.7-8.2 11.1-15.95 27.85-8.45 18.25-8.65 27.5-8.9-4.2-9.15-13.75-.15-8.85-1.5-12.05-1.55-3.8 19.8-20.85 8.15-6.55 13-9.4"/><path fill="#fff" d="M254.1 9.1q.25 15.6 1.4 23.75 2.15 14.8 7.9 20.75-16.15.5-32.15 8.25-15.6 7.6-28.65 20.9-13.25 13.55-21.8 30.95-8.95 18.2-11.45 38.25-6.5-18.8-5.6-41.45.8-21.55 7.85-40 9.65-25.1 30.4-43.25 17.25-15.05 39.5-23.3 4.55-1.7 8.45-2.5l3.8-.45q.25 1.05.35 8.1"/><path fill="#dbdcdc" d="M376.85 221q.1 3.6-1 7.1-.8 2.7-3.75 5.35-2.7 2.35-5.95 3.65-2.75 1.1-5.5 1-2.75-.1-4.95-1.4-3.35-1.95-6.5-3.45-3.75-1.75-5.5-1.95-1.75-.15-4 1-1.5.7-3.9 2.5l-3.9 2.6q-2.25 1.15-4.35 1.05-4.8-.15-8.6-4.95-2.3-2.8-3.9-7.75-1.65-4.95-1.45-8.4 8.1-5.75 15-12.8 21 16.35 48.25 16.45M253 253.1l.25 3.1q-11.25-6.05-24.3-5.8-.2-2.7-1.15-6.85l-1.9-7.95-1.3-3.8 8.9 2.8q.4 1.75 2.5 3.5l4.85 3.35q5.65 3.5 7.3 4.85 3.85 3.2 4.85 6.8"/><path fill="#fff" d="M264.45 87.9q10.2 0 17.45 7.35 7.2 7.3 7.2 17.65 0 10.3-7.2 17.65-7.25 7.3-17.45 7.3-10.15 0-17.4-7.3-7.2-7.35-7.2-17.65 0-10.35 7.2-17.65 7.25-7.35 17.4-7.35"/><path fill="#595757" d="M238.65 142.85q-.25-1.8.35-1.7l1.95 1.35q6.45 5.1 12.5 6.65 6.25 1.6 18.2 1.1-2.1 3.4-11.75 5.5-9.3 2-13.85.5-3.9-1.3-5.85-6.45-1-2.6-1.55-6.95M271.3 156q-1.45 4-5.35 7.95-4.2 4.3-8.95 5.95-3.15 1.1-6.3-.85-2.55-1.6-3-3.25 2.15-.2 9.05-2.65 9.15-3.25 14.55-7.15m-65.2-21.55q1.55-.1 2.7 2.8 1 2.5.9 4.7-.15 2.55-.7 4.6-.7 2.75-1.75 2.8-1.6.15-2.65-1.95-1.1-2.05-.9-4.8.4-8.05 2.4-8.15m-16.55-.4q1.6-.2 2.3 3.45.65 3.6-.4 5.75-.5 1-1.7-.55l-1.5-2.65q-.65-1.6-.2-3.75.5-2.15 1.5-2.25m10.25 17.3q1.15 2.8 1.35 5.65.25 3.55-1.35 5.9-1.3 1.95-3.15 2.3-2 .35-3.15-2.3-1.05-2.4-1.05-6.15 0-3.5 1.45-6.05 1.4-2.5 3.15-2.5 1.45 0 2.75 3.15m-24.3 6.7q.95-.1 1.4 4.25.45 4.3-.65 3.8-2.05-1-2.55-4.4-.45-3.45 1.8-3.65m14.65 39.3q-2.25-2.55-1-7.15.65-2.5 7.55-4.95 6.8-2.45 7.75-.8.7 1.25-1.4 6.5-2.35 5.8-5.6 7.15-4.9 2-7.3-.75M212 200.4q.8-.65 2.45.8 1.7 1.5 2 3.5.6 4.6-1.6 7.4-1.75 2.2-4 2.3-.85.05-1.65-.9l-.8-1.4q-.15-.65 1.2-5.6 1.4-5.35 2.4-6.1m-12.4 28.95q-2.65.2-3-5.1-.35-5.25 2.25-5.6 1.9-.3 2.2 5.15.3 5.45-1.45 5.55m44.5 33.9q1.25 2.55-.5 4.25-1.7 1.6-3.55.6-1.85-1-4.05-6.6-2.2-5.85-.45-7.05 1.45-.95 4.6 2.75 2.55 3.05 3.95 6.05m-85.95 12.4q-1.05-3.9 1.1-11.05 2.2-7.45 5-7.2 2.9.25 4.15 4.4 1.05 3.5.35 6.2-.55 2.05-2.2 5.5-1.8 3.8-2.8 4.55l-3.35-.1q-1.9-1.05-2.25-2.3m15.7 6.65q.45-.15.65 3.1.25 3.25-.4 3.5-.65.3-1.6-.8-.95-1.1-1.35-2.5-.25-.95.55-2 .85-1 2.15-1.3m-43.15-42.9q1.3-.85 3.45 0 2.1.9 2.95 2.7.4.85-5.8 9.2-6.3 8.4-7.35 7.15-2.7-3.25.4-10.25 2.75-6.25 6.35-8.8m-.5-15.9q-.6-2.35 2.95-5.25 3.15-2.55 4.6-2.55 1 0 2.3.9 1.35.95 1.25 1.65-.1.8-5.45 3.4-5.45 2.6-5.65 1.85m-20.15-53.7q-3.85-5.65-1.55-10.35.9-1.85 2.4-2.45 1.55-.65 2.85.4l12.9 10.45q2.2 2 .9 5.9-1.35 3.95-4.85 2.4l-6.85-2.7q-4.65-2-5.8-3.65M79.1 113.95q1.45-1.75 5.45-1.3 3.35.35 8.75 4.7 6.1 4.9 6.45 9.45.1 1.75-2.7 3.6-2.55 1.6-4.45 1.75-3.05.15-8.3-5.3-4.65-4.85-5.5-7.45-1.15-3.7.3-5.45m52.3 30.95q-1.9-2.65-2.6-5.05-.8-2.5.25-3.25 1.7-1.15 7.25 5.6t3.5 7.7q-3.7 1.65-8.4-5m3.15-49.85l5.2 6.3q4.15 6.3 4.25 14.6 0 .65-1.95 1.45-2.1.85-3.55.35-2.25-.8-5.3-6.3-3.2-5.65-4.15-10.95-.5-2.75 1.4-5.65 2-3.05 4.1.2m214 100.6q1.65-2.45 4-1.85 2.3.55 4.4 3.8 4.65 7.25 4.5 11.8-.15 3.75-2.95 4.05-2.35.3-6.75-7.9-4.4-8.15-3.2-9.9"/><path fill="#3e3a39" d="M334.95 210.2q1.1 0 2.45 4 1.35 3.95.2 4.25-1 .25-2.75-1.45-1.55-1.5-1.8-2.4-.45-1.55.2-3 .65-1.4 1.7-1.4"/><path fill="#595757" d="M218.9 148.15q-5-16.35-6.3-31.9l-.6-8.3q-.25-2.9-.9-3.1-1.15-.35-3.65 2.7-2.85 3.45-4.8 8.65-1.5 3.95-2.8 10.75-.95 4.8-1.65 4.85-1.2.05-4.05-7.05-2.95-7.15-4.4-7.15-2.75 0-6.45 18.4-3.65 18.4-4.25 18.4-.8 0-1.65-9.7-.9-9.9-2.2-10.5-.9-.5-2.25 1.25 5.85-27.3 28.95-51.3 23-23.95 47.35-28.25-13.15 11.7-19.2 25.5-6.55 14.85-6.55 35.5 0 25.2 9.55 49 2.65 6.55 6.35 13.7 2.65 5.05 2.45 5.2-1.55 1.35-10.2-11.55-9.3-13.85-12.75-25.1"/><path fill="#cc5d3b" d="M332.75 199.75l-3.95 4.7q-8.5 9.75-20.6 17-11.45 6.85-24.8 10.65l1.95-.6q-17.15-1.85-32.55-10.95 5.25-.8 9.25-2 19.5-5.85 31.4-14.05 4.15 2.8 7.35 2.8 2.45 0 8.25-3.45L319.2 198q4.75-2.25 8.2-1.6 2.85.55 5.35 3.35"/><path fill="#dbdcdc" d="M324.75 183.3q7.15-2.3 11-.5 4.2 1.95 3.4 8.3-2.95 4.55-6.4 8.65-2.5-2.8-5.35-3.35-3.45-.65-8.2 1.6l-10.15 5.85q-5.8 3.45-8.25 3.45-3.2 0-7.35-2.8l4.25-3.25q8.3-7 15.25-11.65 7.3-4.85 11.8-6.3m-41.35 48.8q-15.15 4.4-30.15 4.3l-6.45-.3q-10.7-.95-21.4-4.55h-.6l-2-9.4q17.25.4 30-1.6 15.4 9.1 32.55 10.95l-1.95.6"/><path fill="#0d131a" d="M348.95 163.6q4.1-17.6 1.4-35.75-2.55-17.45-10.7-31.3-13.1-22.35-35.35-33.6-23.05-11.7-48.45-7.5-19.05 3.15-35.7 14.6-15.75 10.8-27.55 27.7-11.5 16.45-17.55 36.1-6.1 19.85-5.7 39.8.1 4.05-.95 3.65-1.05-.45-1.15-4.5-.45-20.7 5.7-40.85 6.05-19.9 17.65-36.4 11.9-16.85 27.85-27.75 16.85-11.45 36.35-14.85 26.7-4.7 50.95 7.35 23.4 11.65 36.15 34.55 9 14.2 11.75 32.5 2.8 18.7-1.65 37.15-4.75 19.7-17 35.3-13.4 17.1-34.2 27.05-18.8 9-38.75 10.6-20 1.6-37.05-4.55l-.45-2.5q16.55 6.2 36.45 4.4 19.35-1.75 38.35-10.8 20.55-9.75 33.45-26.35 11.75-15 16.15-34.05"/><path fill="#0d131a" d="M244.8 1.3q3.5-1.05 6.25-1.25 2.65-.2 3.35.4.6.55.7 2.2l.1 7.45q.2 16.05 1.55 24.75 2.4 15.15 8.7 18.25.55.25-1.25.45-1.7.15-2.2-.35-5.5-5.05-7.5-19.35-1.15-8.05-1.4-23.7V5q0-2.55-.4-2.7l-2.5.1-4.95 1.1Q227.1 9.35 209.2 23.3q-25.4 19.8-36.3 47.4-7.1 18-8 38.25-.85 19.95 4.4 40.75.2.9-.25 2.95-.4 2.05-.55 1.55-6.35-22.5-6.15-43.3.2-21.8 7.55-40.7 11.1-28.55 36.3-48.35Q224.85 7.2 244.8 1.3m100.25 178.8q-.15-.25.6-1.1.8-.85 1-.5 1.1 2.1 5.6 4.5 2.95 1.6 9.35 4.2 8.35 3.35 9.7 4.05 4.15 2.05 4.55 4 .25 1.35-.9 3.15l-1.95 2.55q-1.3 1.95-.95 2.65 3.65 6.3 4.9 10.5 1.95 6.8.05 13.25-2.25 7.55-9.5 10.6-6.95 2.95-12.5-.3-3.75-2.2-7-3.75-3.5-1.65-4.8-1.8-2.05-.2-6.6 3.2l-4.3 2.8q-2.7 1.35-5.25 1.25-5.75-.25-10.15-5.7-2.55-3.15-3.7-7.65-1.05-4.15-.6-8.3.05-.4 1.2-1.05 1.2-.6 1.1-.15-.65 3.7.5 8 1.2 4.25 3.8 7.5 3.8 4.7 8.6 4.95 2.1.05 4.35-1.1l3.9-2.6q2.45-1.8 3.65-2.4 2-1 3.75-.8 1.75.2 5.5 1.95l6.5 3.4q4.75 2.8 10.95.05 6.25-2.75 7.95-8.35 1.9-6.3.25-12.65-1.1-4.4-4.5-10.25-.6-1.05-.15-2.3.25-.75 1.2-2.1l1.1-1.85q.5-1.05.4-1.95-.1-1-4-3.05l-7.5-3.5q-6.75-3-9.55-4.5-4.8-2.6-6.55-4.85m-156.35.35q-1.75 1-6.6 1.4-4.65.4-10.65.15l-10.2-1.05-8.1-.85q-4.75-.1-6.55 4-2 4.55-.25 10.95 1.9 6.95 7.35 12.05 1.95 1.8 4.8 3.15 1.7.8 5.25 2 4.8 1.7 6.9 2.95 3.55 2.2 5 5.8 1.05 2.45 1.6 9.25.4 4.35.75 6.3.6 3.35 1.7 5.25 1.25 2.15 3.9 4.2 1.75 1.3 6.1 3.85l6.25 3.85q7.35 4.85 11.7 6.85 7.65 3.5 12.5 2.2 4.1-1.1 6.4-5.7 1.45-2.9.65-9-.45-3.65-2.55-12.25-1.8-7.4-2.5-11.2-1.1-6.2-1.05-10.85v-.05q.1-6.35 2.8-12.55 1.55-3.5 5.2-9.15l2.5-4.1q.85-1.85.2-2.55-16.6-19.25-43.1-4.9m-17.1-.35q5.25.25 10-.2 4.55-.4 6.1-1.25 15-8.15 25.9-6.75 10.55 1.4 19.8 12.1 1.3 1.5.4 3.9-.55 1.5-2.95 5.2-3.45 5.4-4.95 8.75-2.6 5.95-2.7 11.9-.1 7.75 3.5 21.55 2.35 9.2 2.9 13.2.85 6.2-.65 10.15-1 2.5-3.2 4.45-2.15 1.8-4.7 2.5-5.45 1.5-13.65-2.1-4.95-2.2-12.4-7.1l-6.3-3.75q-8.25-4.9-11.1-9.8-1.25-2.15-1.85-5.75l-.7-6.7q-.6-6.45-1.45-8.6-1.25-3-4.55-4.85-1.7-.95-6.65-2.6-3.55-1.25-5.55-2.25-3.05-1.5-5.25-3.5-5.95-5.55-7.95-13.4-1.9-7.2.4-12.3 1.2-2.75 3.65-3.9 2.15-1.05 5.65-1l7.15.9 11.1 1.2"/><path fill="#0d131a" d="M163.7 165.1l2.85-.25 2.35-.05-.9 1.7-.7.3q-2.2.85-3.85.35-2.9-.9-5.7-5.7-13.15-22.4-28.25-39.8Q110.8 100 90.45 87.7 69.1 74.8 46.95 74.15 23.1 73.45 11.2 88.1q-8.1 10-7.5 24.2.65 15.8 12.35 30.9 6.75 8.7 17.35 16.55 6.35 4.7 19.7 12.75 14.8 8.95 21 14.1 10.05 8.45 13.55 18.1 1.65 4.6 1.4 14.35-.15 5.75-1.45 19.55-1.1 11.45-1.4 17.1-.45 9.15.25 14.8.8 6.45 4.8 11.35 3.95 4.9 10.05 6.95 6.4 2.1 12.85.6 6.8-1.6 11.3-6.8 5.6-6.5 13.9-25.45 5.9-13.5 9.15-18.85 5.35-8.75 10.4-9.7 3.6-.65 4.25.35.65 1.05-3.15 1.4-4.65.45-9.65 8.9-3.1 5.3-8.8 18.75-8.1 19.1-14.05 26.5-4.6 5.75-12.2 7.85-7.35 2-14.9-.15-6.6-1.95-11.5-8.2-4.7-6.1-5.6-13.3-.7-5.6-.05-15.25l1.55-17.5L86.45 219q.45-9.35-1.05-13.6-3.25-9.1-12.75-16.6-4.35-3.5-20.65-13.35-14.15-8.6-20.25-13-11.2-8.1-18.25-16.8Q.75 129.8.05 112.45q-.6-15.75 8.35-26.3 13.05-15.4 38.2-14.9 23.45.5 44.85 13.9 21.15 13.25 39.05 33.6 16.15 18.3 29 41.65 2.15 3.9 4.2 4.7"/><path fill="#0d131a" d="M153.95 233.55q-.4-.2 0-1 .35-.75.75-.55 1.55.8 2.35 1.85t1.2 2.85q.75 3.15-.45 7.05-1.25 3.9-4.2 7.85-5.35 7.1-8.9 15.9-3.85 9.5-4.55 18.5-1.05 14.35 6.8 23.85 7.15 8.65 17.45 9 8.7.3 14.95-4.45 6.6-5.05 8.9-14.85 1.6-6.85.25-16.1-.75-4.85-3.45-15.45-2.35-9-2.6-12.45-.45-5.6 2.35-7.7.35-.25 1.05.55.7.85.35 1.1-2.4 1.85-1.7 7.25.35 2.6 2.6 10.9 3.4 12.8 4 16.25 1.55 9-.1 16.15-2.5 10.7-9.75 16.6-7.2 5.85-17.05 5.25-13.2-.8-20.85-11.75-7.3-10.4-6-24.15 1.7-18.25 14.4-35.1 2.8-3.7 4.1-7.25 1.35-3.7.75-6.35-.6-2.8-2.65-3.75m100.5 19.7q.35 1.25.1 6.8-.2 4.65 1.3 6.45 5.2 6.4 6.5 11.5 1.05 4.1-.25 8.25-1.5 4.65-5.65 7.85-4.15 3.2-9.8 4.1-17.1 2.8-29.95-13.4-7.55-9.45-12.85-24.5-.15-.4.95-.25 1.1.15 1.25.55 3.9 11.2 10.95 20.45 12.9 16.9 28.95 14.3 4.95-.8 8.7-3.4 3.65-2.6 5.05-6.3 3-7.8-5.2-17.65-2.05-2.55-2.15-7.1-.1-6-.35-6.8-1.9-6.9-12.2-12.2-8-4.15-7.7-8.1.05-.4.95-.3.9.1.85.55-.2 2.4 6.15 5.8 5.6 3.05 8.5 5.4 4.7 3.8 5.9 8M163.85 60.9q5.15 6.25 6.5 12.35.1.45-.65 1.3-.75.8-.85.4-1.2-5.35-6.3-11.45-6.2-7.45-12.15-6.4-5.4.95-6.8 7.7-.6 2.9-1.4 4.15-1.35 2-4.15 2.2-2.4.15-5.4-2.35-2.3-1.9-6.25-6.65Q116 49.8 108.3 45.5q-8-4.4-16.05-4.2-8.1.2-12.15 4.95-5.75 6.65-2.05 17 3.15 8.85 11.1 16.15 3.05 2.8 4.4 4.75 1.8 2.6 1.65 4.95-.05.4-1.25-.45-1.25-.85-1.4-1.3-.9-2.6-4.85-6.15-9.45-8.7-12.8-18.55-3.75-11.25 2.9-18.55 5-5.5 13.95-5.8 8.75-.3 17.55 4.5 5.1 2.8 10.25 8.05 2.75 2.75 8.25 9.4 3.5 4.25 5.6 6.25 2.85 2.7 4.5 2.55 1.8-.1 2.5-1.25.45-.7 1-3.4.8-3.7 2.5-6.25 2.4-3.55 6.1-4.1 7.3-1.1 13.85 6.85m4 112.55l.8.15q.4.25.45.65.1.45-.15.8-.25.4-.7.45-9.05.95-17.15-3.85-2.6-1.55-23-17.05l-8.35-6.35q-3.45-2.6-2.8-3.45.6-.8 4.05 1.8l8.4 6.35q17.6 13.4 23.5 16.8 8.55 4.9 14.95 3.7M251.5 54.7q.4.25-.75.8l-1.7.05q-5.55-4.45-10.5-14.95-4.3-9.2-5.05-15.5-.65-5.15.3-4.95.9.2 1.65 4.35 1.1 6.1 5.35 15.2 5.3 11.4 10.7 15m-46.15 11.45q-1.9-2.9-1.05-3.15.85-.25 2.95 2.4l4.35 4.15q3.05 2.55 4 2.75l-.05-.05q.5.05-.4.9-.9.8-1.4.45-2.35-1.4-4.75-3.5-2.45-2.15-3.65-3.95M173.4 86.1q.5-.75 4.6 1.55 4.15 2.25 9.2 4.25 4.35 1.65 5.7 1.8.35.05.4.85.05.85-.25 1.15l-.5.15q-1.4 0-7.1-2.35-5.75-2.35-8.6-4.15-4-2.5-3.45-3.25m107.75 9.6q-6.85-7.25-16.55-7.25-9.85 0-16.65 7.15-6.8 7.15-6.8 17.6 0 10.05 6.7 16.8 6.7 6.7 16.75 6.7 10.15 0 16.8-6.65 6.6-6.65 6.6-16.85 0-10.25-6.85-17.5m-34.7-1.25q7.5-7.95 18.15-7.95 10.5 0 17.95 7.8 7.45 7.85 7.45 18.9 0 11.05-7.2 18.35-7.2 7.25-18.2 7.25-10.75 0-18.2-7.25-7.5-7.25-7.5-17.95 0-11.25 7.55-19.15"/><path fill="#0d131a" d="M251.25 98.95q5.5-5.8 13.2-5.8 7.75 0 13.25 5.8 5.45 5.8 5.45 14t-5.45 14q-5.5 5.8-13.25 5.8-7.7 0-13.2-5.8-5.5-5.8-5.5-14 0-8.15 5.5-14"/><path fill="#fff" d="M262.5 105.95q-.1-3.1 1.9-5.15 1.9-2 4.65-2 2.85 0 4.75 1.95t1.9 4.7q0 2.75-1.85 4.7-1.9 1.95-4.55 1.95-2.8 0-4.65-1.6-2.05-1.7-2.15-4.55"/><path fill="#0d131a" d="M227.15 179.65q.25 0 .9 1.15t.3 1.2q-6.3.4-11 4.4-6.75 5.7-14.95 21.2-2.1 3.95-2.5 2.85-.4-1.05 1.7-5.15 7.05-13.65 13.35-19.65 5.65-5.4 12.2-6m-4.3 25.35q.3-.5.05 2.8-.3 3.5-.95 5.65l-2.15 6.95q-1.05 3.75-1.45 6.75-.55 3.95-1.25 2.6-.7-1.3-.2-5.25.65-4.8 2.6-11.1 1.85-5.9 3.35-8.4"/><path fill="#fff" d="M350.3 125.95q1.3.25 3.15 1.05 2.2.95 3.4 2.15l.1.05q-.3 2.35-1.1 4.1-1.1 2.7-3.1 4.05-.9-7.45-2.45-11.4"/><path fill="#ed8599" d="M335.8 131.5q2.25.1 5.55 1.7 3.25 1.6 5.35 3.65 1.3 1.25 2.45 3 1 1.6 1.2 2.45-2.5 1.85-8.4 2.75l-10.65.55q-.9-.05-3.2-1.6-2.3-1.6-3.4-2.85 1.45-3.75 2.65-5.6l2.8 2.45 3.85 3.5 1.45.15q1.3-.75.35-10.15"/><path fill="#fff" d="M335.25 141.85l-4.2-3.75-3.3-2.9q1.65-2.35 3.1-3.6 1.15-1 4.1-2.25.6 2.4.6 7.1l-.3 5.4"/><path fill="#ed8599" d="M349.65 115.65q4.6-1.05 6.55 2.7 1.2 2.3 1.2 6.45l-.05 3.7q-4.35-2-6.95-2.4l-7.25.45q-7.65 1.45-13.65 6.05-1.55 2.2-2.85 4.75-1.65 3.1-1.5 4.2l1.95 2q1.55 1.15 3.85 1.65l8.95.4q5.3-.45 8.7-2.1 2.85-1.3 3.8-5.55 1.4-.55 3.95-2.2 1.15 2.5 1.05 6.35-.05 3.85-1.3 6.25-2.1 4.1-11.65 6.3-8.8 2.05-13.75.7-5.8-1.55-9.65-4.05-4.2-2.7-4.85-5.85-.75-3-.75-3.65 0-3.85 2.45-9.15 1.85-4.05 4.8-8.25 2.45-3.55 8-4.25l4.7-.4 4.65-.75.3-.1 9.3-3.25"/><path fill="#922f00" d="M335.1 129.3q3.15-1.15 7.65-2.15l6.85-1.2q.65 1.15 1.5 6.45l.75 6.1-.35 1.6-.55 1.5q-1.1-2.55-3.35-4.9-2.55-2.7-5.8-4.05-3.05-1.3-6.05-1.2l-.65-2.15"/><path fill="#0d131a" d="M350.2 116.55l-1.65.6q-7.1 2.45-15.05 3.5-5.6.8-6.5 1.35-4.15 2.55-7.5 9.45-3.1 6.35-3.1 10.85 0 .8.15 1.4.7 3.35 4.6 6.35 3.85 3.05 9.35 4.5 3.85 1 13.1-1.2t10.55-4.45q2.15-3.65 2.15-8.05 0-2.45-.85-3.95-1.15 1.55-2.75 2.2-.35.2-.7-.75-.4-.95-.1-1.05 2.2-1 3.25-4.05 1.05-2.8 1.05-7.2 0-5.85-.8-7.2-.5-.85-1.6-1.6-1.15-.75-2.15-.85l-1.45.15m-2.25-1.25q2.75-.95 3.7-.85 1.85.3 3.5 1.3 1.6.95 2.15 2 1.2 2.05 1.2 8.35 0 3.35-.65 5.7l-1.3 3.25q.95 1.2 1.6 2.8.65 1.75.65 3.35 0 2.2-.85 5-.85 2.65-2.05 4.7-1.7 2.95-11.7 4.85-9.55 1.85-14.2.7-5.95-1.4-10.2-4.55-4.4-3.25-5.2-7.1-.95-4.5 2.4-12.75 3.6-8.9 8.75-12.05.8-.5 3-.8l4.45-.5 7.05-1.15 7.7-2.25"/><path fill="#0d131a" d="M331.3 132.35q-1.75 1.55-3.5 4.3-1.45 2.3-2.15 4.05 1.1 1.2 2.95 2.35 1.85 1.05 2.8 1.1 19.3.9 19.65-6.1l-.7-5.35q-.75-4.6-1.35-5.65-4.1.4-9.75 2-6.2 1.75-7.95 3.3m-1.35-1.45q2.45-2.2 10.4-4.4 7.65-2.1 10.8-1.75 1.15.15 3 1.15 2.05 1.15 3.25 2.6.25.3-.5.95-.75.65-1 .35-.9-1-2.45-1.85-1.35-.65-2.3-.85.7 2.05 1.35 6.4l.55 4.6v.05q-.25 5.05-4.85 6.85-4.8 1.9-16.8 1.35-1.5-.05-4-1.65-2.45-1.55-3.65-3.2-.3-.35-.2-.9.5-1.75 2.3-4.65 2.05-3.2 4.1-5.05"/><path fill="#0d131a" d="M334.45 129.9q-.05-.1.85-.55l1-.1q.55 1.55.7 5.6.15 4.2-.35 6.55-.5 2.5-2.45 1-6.5-5.45-6.85-5.6-.35-.2.1-1.1.45-.9.8-.7l6.6 5.75.3-5q0-3.9-.7-5.85"/><path fill="#0d131a" d="M336.25 131.05q4.75-.3 9.55 3.3 4.3 3.25 5.2 6.65.05.3-.95 1t-1 .3q-.15-2.6-4.3-6.15-4.5-3.85-8.6-3.65-.4.05-.35-.7.05-.75.45-.75"/><path fill="#fffbda" d="M342.9 65.95q-8.95 20.7-11.4 23-3.25 3.1-9.05 2.6-5.65-.5-9.95-4-4.5-3.7-5.65-9.5-1.2-6.2 2.6-10.4t21.8-16.6q15.05-10.45 24-15.9Q351 47.1 342.9 65.95"/><path fill="#0d131a" d="M330.25 88.1q2.5-2.35 11.05-21.4 8.1-17.9 12.05-29.15-8.9 5.45-22.45 14.9-16.5 11.5-20.3 15.7-3.6 3.95-2.95 9 .7 5.15 5.7 9.2 4.6 3.75 9.3 4.2 4.6.4 7.6-2.45m24.55-53.75q1.35-.65 1.6-.35.25.25-.2 1.6-2.75 9.5-11.5 29.85-9.2 21.4-12.2 24.3-3.7 3.5-9.65 2.95-5.95-.5-11.25-4.7-5.55-4.4-6.3-10.65-.7-6.05 3.45-10.65 4.5-5 24.25-18.4 18-12.25 21.8-13.95"/></svg>