<svg xmlns="http://www.w3.org/2000/svg" width="330" height="318" viewBox="-0.85 -4.1 329.55 317.85"><path fill="#eeeeef" d="M325.15 244q-4.3 14.7-12.05 19.1-8.05 4.6-23.85.45-15.6-4.1-41.1-19.6-24.85-15.1-28.8-22.2-.85-1.5.65-4.65 1.4-2.95 2-2.85 11.4-8.3 25.6-16.7 28.5-16.8 42.7-17.3 8.1-.3 15.85 6.9 6.95 6.45 12.25 17.45 4.95 10.35 6.85 21.2 2 11.05-.1 18.2m-185.8 15.45q-8.2-15.1-.1-22.45 5.75-5.15 28-7.05 21.7-1.85 25.3 1.45 2.5 2.3 8.7 11.25 7.2 10.45 12.95 21.05 16.35 30.25 9.95 40.8-2.25 3.75-8.75 4.25-6.25.45-15.2-2.25-19.8-6.05-39.25-22.05-14.55-12-21.6-25"/><path fill="#003f4d" d="M325.25 225.8q2 11.05-.1 18.2-4.3 14.7-12.05 19.1-8.05 4.6-23.85.45-3.45-.9-8.15-2.75 15.95-.05 25.5-7.3 8.85-6.75 8.9-16.95.15-29.05-19.5-44.1-6.15-4.7-13.5-7.4l-6.15-1.8q8.15-2.85 13.95-3 8.1-.3 15.85 6.9 6.95 6.45 12.25 17.45 4.95 10.35 6.85 21.2m-184.6 13.55q.3 4.45 2.4 9.65 6.8 16.6 29.55 34.2 20.65 16 35.55 18.45 13.45 2.2 17.7-6.95.15 2.7-.25 5.35-.5 2.85-1.45 4.45-2.25 3.75-8.75 4.25-6.25.45-15.2-2.25-19.8-6.05-39.25-22.05-14.55-12-21.6-25-8.2-15.1-.1-22.45l1.55-1.1-.15 3.45"/><path fill="#0d131a" d="M307.55 191.9q-5.25-5.5-11.2-8.15-5.25-2.35-9.3-1.8-9.45 1.25-26.85 10-19.6 9.85-35 22.6-3.75 3.1-3.8 5.6-.1 2.7 4.25 6.15 20.75 16.3 39.8 25.5 16.65 8 33.35 11.1 13.7 2.55 20.35-8.1 5.6-9 4.3-22.8-2.45-25.95-15.9-40.1m-22.2-12.95q11.35-2.7 22.05 7.1 9.8 8.9 15.55 24.5t4.5 29.9q-1.4 15.7-11.05 23.3-11.1 8.75-41.15-3.6-28.85-11.85-52.8-33.4-4.15-3.75-4.55-4.9-.4-1.3 1-7 1.2-4.85 28.3-19.2 26.4-13.95 38.15-16.7M161.6 231.4q-17.2 2-20.65 6.05-6.4 7.5.4 20.8 6.6 12.9 23.35 27.1 13.95 11.8 31.7 18.2 18.9 6.8 25.3.65 4.8-4.6-1.35-21.45-4.9-13.4-15.35-31.3-5.95-10.35-8.75-13.9-3.8-4.8-7.65-5.75-9.9-2.4-27-.4m-24.15 5.05q2.2-3.25 17.05-5.95 14.45-2.65 29-2.65 6.65 0 11.25 3.9 2.4 2 6 7.4 14.1 21.05 21.3 37.85 10.2 23.8 1.85 30.2-8.55 6.55-26.3.75-16.35-5.3-33.15-18.35-17.15-13.3-25.05-27.25-8.8-15.6-1.95-25.9"/><path fill="#0d131a" d="M274.15 184.35l2.9-1.45q16.5 2 28.95 18.35 12.85 16.9 11.05 36.55-1.05 11.25-10.35 17.95-10.3 7.4-25.35 4.45l-2-1.65q-1.4-1.2-2.2-1.45 15.35 3.9 25.9-2.6 11.55-7.1 10.6-23.5-1.2-20.3-16-34.65-5.9-5.75-12.6-9.05-6.25-3.05-10.9-2.95m-134.8 52.55l1.35-1.05 1.35-1.1q-2.05 9.05 8.15 23.8 8.7 12.6 20.1 21.5 16.7 13 33.4 18.45 19 6.2 20.7-4.8l.1 1.2q.1 1.75.4 2.3-4 11.55-26.65 2.45-8.15-3.25-17.3-8.65-7.5-4.45-11.75-7.85-12.55-10.05-21.4-23.45-9.3-14-8.45-22.8"/><path fill="#0d131a" d="M311.35 215.35l.8 1.35.75 1.35q-7.2-.65-40.95-.2l-43.6.5v-1.85q13.8.15 83-1.15M308.9 252l-1.25 1-1.3.85q-8-2.65-26.4-9.6-23.65-8.95-52.05-20.3v-.4l43 15.1 38 13.35m6-17.1l.25 1.25-.05 1.2-41.5-8.15-45.7-8.5v-2.05l87 16.25m-153.7 40.05q-1-.95-1.85-2.55l17.9-12.55q13.05-9.2 17-12.7l1.6 1.6q-3.8 3.05-18.95 13.9-11.9 8.5-15.7 12.3m21.75 15.5q-1.45-.6-2.7-1.85 3.5-5.9 10-19.55 7.2-15.15 9.35-19.1 1.3 1.3 3.25 1.35l-.55.85-9.8 19.1q-7.5 14.5-9.55 19.2m20.35-9.75l1.75-21.3.85 1.9q.45 1.35.85 2l-1.45 20.2-1.25 16.65q-1.65-1.45-2.4-1.85l1.65-17.6"/><path fill="#0d131a" d="M289.65 220.6q5.7 4.9 3.65 11.9-2 6.65-8.55 8.6-7.65 2.25-31-5.6-22.3-7.45-32.5-14.75-1.45-1.05 1.15-3.85 1.65-1.75 1.35-2l29.6.4q31.45 1.2 36.3 5.3"/><path fill="#eeeeef" d="M287.65 222.25q2.1 1.3 3.05 4 .95 2.65.35 5.45-1.45 6.9-9.6 7.6-6.2.55-31.5-7.85-21.4-7.1-26.75-9.7-1.65-.8-1.4-2.5.2-1.65 1.85-2 4.4-.9 28.35-.2 28.6.85 35.65 5.2"/><path fill="#0d131a" d="M198.3 277.35q-6.7 2.1-12.65-1.6-5.1-3.2-5.45-9.95-.3-6.55 4-11.1 3.05-3.2 7.05-6.05 3.8-2.75 7.25-4.35 2.7-1.3 5.5 1.1 2.6 2.2 2.6 4.95l.3 8.4q.2 6.4-.5 10-1.25 6.4-8.1 8.6"/><path fill="#eeeeef" d="M200.95 273.25q-4.85 3.8-11.25 1.7-6.75-2.2-7.05-9.25-.3-6.3 6.65-12.9 5.85-5.55 11.75-7.45 2.1-.65 3 1.4.6 1.3.75 4.2.5 8.15 0 12.8-.8 7.05-3.85 9.5m95.55-207.5q13.8 23.55 20.45 42.85 10.25 29.95 1.65 45.4-14.15 25.45-49.25 47.2-12.9 7.95-25.3 13.3-10.95 4.75-15.1 4.9-6.3.25-15.7-8.45-7.6-7.05-10.15-12-10.35-16.05-17.25-47.45-8.15-36.95-5.35-72.85 2.1-26.8 13.35-49.4 12.95-26.1 30.25-27 16.65-.9 41.15 23.65 19.15 19.2 31.25 39.85m-292 53.8q3.55-9.2 35.3.7 23.85 7.45 47.6 19.5 17.2 8.7 38.25 23.9 22.2 16 29.55 25.7l41.45 46.75q-11.55 5.2-41.95 10.9-35.25 6.6-49 2.85-17.65-4.8-33.5-15.5-19.45-13.15-37.55-35.9-18.65-23.5-26.9-46.5Q.2 130.7 4.5 119.55"/><path fill="#003f4d" d="M262.7 41.7q-6.05-6.3-13.25-2.25-2.25 1.25-4.3 3.4l-1.65 1.9q1.95-4.5 2.4-9.4.95-9.8-6.35-11.6-7.3-1.8-11.8 1.9-1.45 1.15-2.4 2.7l-.7 1.35q1.15-9.3-2.9-9.35-1.3-.05-2.9.9l-1.4.9Q219.5 11.5 214.8 8.7q-1.45-.85-3.4-.85l-1.65.2q6.85-5.45 14.35-5.8 16.65-.9 41.15 23.65 19.15 19.2 31.25 39.85 13.8 23.55 20.45 42.85 10.25 29.95 1.65 45.4l-6.05 9.9q2-4.2 3.15-9.7 2.4-10.9-1.5-17.05-3.95-6.15-7.75-4.75-1.1.35-2.1 1.4 1.6-2.35 2.55-6.1 2.45-9.75-2.6-21.75-5.05-12-10.7-12.75-1.8-.25-3.45.65l-1.15.9q1.55-1.25 1.85-4.65.6-6.95-6.25-18.25-6.85-11.35-13.35-11.4-2.05 0-3.8 1.15l-1.35 1.1q1.6-2.75 1.95-6.75.7-7.95-5.35-14.25M36.95 119.55l-10-.8q-10.35.2-12.05 5.5-1.7 5.25 2.95 9.5 2.3 2.15 4.95 3.2-2.15-.25-3.5 1.05t-1.15 3.15q.4 4.75 8.05 5.35-5.05.95-6.1 4.65-1.4 4.9 1.7 9.95 3.65 5.8 11.6 7.65-3.6 2-3.15 6 .4 3.6 3.85 7.8 3.3 4.1 8.1 7.05 5.05 3.1 9.65 3.55-4.15 2.95 1.9 10.35 6.2 7.65 16.6 11.15-2.15 1.35-1.25 4 .85 2.65 4.25 5.55 8.05 6.9 20.7 8.95-4.95.65-3.2 2.9 1.45 1.9 8.4 5.7 5.25 2.9 15.6 6.35l9.3 2.85q-12 .65-18.45-1.1-17.65-4.8-33.5-15.5-19.45-13.15-37.55-35.9-18.65-23.5-26.9-46.5Q.2 130.7 4.5 119.55q1.55-3.95 11.95-3.5 8.5.4 20.5 3.5"/><path fill="#0d131a" d="M315.15 144.05q-.55-5.4-3.85-8.5-3.4-3.2-5.65.05-3.85 5.35-39.15 42.7l-37.85 39.95 2.65.05q11.55-3.75 29.45-13.7 16.25-9.05 25.05-15.9 15-11.75 22.05-21.65 8.4-11.8 7.3-23m-97.5-116.8q-2.3 6-5.3 17.2-3.15 12-5.4 23.75-5.35 27.9-7.6 57.95-2.55 34.4.4 56.6.75 5.35 3.65 7.2 3 1.95 3.5-5.25 2.3-33.3 15.65-82.65 11.4-42.05 19.5-58.4 4.05-8.25 1.8-13.75-2-4.8-7.35-5.25-6.4-.55-9.85 5-2.15 3.45-4.7 13.25-3.95 16.35-7.25 27.35l-2.3-.75 5.9-22.75q2.95-11.4 4.85-18.1 1-5.75-1.05-6.6-2.1-.85-4.45 5.2m-1.2-11.7q-.4-5.6-3.85-5.65-13.35 8-21.3 28.5-7.05 18.3-9 43.95-1.8 23.55 1.05 47.65 2.8 23.55 9 39.65 1.6 4.1 2.35 3.4.75-.65.4-4.35-2.5-25.15 4.8-73.75 6.1-40.5 12.2-60.15l2.25-6.75q2.45-7.15 2.1-12.5m80.6 81.35q-3.6-4.35-6.65-.6-19 23.4-37.95 56.15-17.35 29.9-29.3 58.15-1.95 4.65-2.1 7.35-6.25-3.3-12.95-10.65-5.65-6.15-7.5-10.2l-5.65-11.9q-3.55-7.7-6.05-15-7-20.55-10.25-51.55-5-48.25 9.25-82.15 5.85-13.8 14.15-23.2 7.5-8.45 15.35-11.75Q231-4.1 250.9 9.8q18.1 12.7 36.15 37.4 17.65 24.3 27.8 49.8 10.85 27.3 8.55 45.55-3.5 27.75-43.75 53.9-14.05 9.15-30 16.35-13 5.9-19 7.1-3.1.7-7.1-.85l2.6-2.4q12.15-13.05 36.25-38.05 21.95-23.2 38.9-43.15 3.85-4.55 4.3-11.55.45-7.05-2.65-15.35-3.05-8.2-5.9-11.65M280.9 69.65q-4.3-5.15-7.8-6.6-3.45-1.4-4.95 1.3-17.85 32.55-31.4 67.1-16.5 42.15-18.65 68.75-.55 6.85-.15 9.45.65 3.9 3.4-2.4 16.55-37.9 32.85-64.5 6.1-10 15.2-23.3L286.1 95q3-4.5 2.15-10.6-1.05-7.15-7.35-14.75M246.8 29.9q1.6 4.45.7 9.55 3.25-3.8 7.6-3.35 3.9.35 7.6 3.9 3.6 3.4 5.55 8.25 2.05 5.1 1.3 9.65 2.4-.8 6.45 2.2 3.95 2.9 7.8 8.05 9.3 12.45 8.25 22.65 4 .55 7.8 4.8 3.6 4.1 6 10.3 5.45 14.3.65 25.05 7.05-.05 9.65 7.05 2.1 5.8 1.05 14.95 5.85-18.8-2.5-44.3-7.8-23.75-27.55-52.25-19.4-28.05-37.05-41.45-21-15.9-35.05-7.1 2.8.25 3.9 4.5.95 3.65.35 7.95 1.55-.85 3.45-.35 3.1.8 2.95 6.35 4.15-4.05 8.65-4.65 4.1-.6 7.55 1.75 3.3 2.3 4.9 6.5m18.15 19.3q-2.4-7.45-7.85-9.25l-5.45.25q-3.9 1.85-7.6 8.6-12.65 23.45-24.75 78.3-5.1 22.95-7.85 42.45-2.8 19.9-2.15 28.65.45 5.35 1.75 6.1 1.5.85 3-6.2 9.15-44.2 25.65-83.5 5.75-13.75 13.25-28.75l11-21.7q3.55-7.1 1-14.95M157.3 193.45l-.8-.35-1.8-2.35 2.6 2.7"/><path fill="#0d131a" d="M19.35 136.3q-6.7-3.95-6.5-10.45.25-6.7 8.15-7.05-8.7-2.9-12.9.6-3.9 3.2-3.5 11.5.8 16.8 16.25 43 16.45 27.9 39.25 47.95 26.6 23.35 52.7 27.1-8.4-2.65-17-7.55-10.25-5.85-6.35-8.1-8.55-1.75-16.5-8.2-8.15-6.55-5.5-10.1-8.1-2.15-15.05-11.05-2.8-3.6-3.75-6.5-.95-3.05.65-3.8-8.5-1.25-16.25-10.95-3.4-4.2-4.1-7.65-.75-3.85 2.1-5.45l-.05-.05q-4.75-1.45-8.05-5.05-3.25-3.6-4.45-8.8-.65-2.9.35-5.65.95-2.55 2.6-3.3-4.3-1.75-4.55-5.55-.3-3.55 2.45-4.9M1.7 118.8q3.4-5.85 15.3-4.75 30.35 2.75 73.9 26.3 39.2 21.2 61.4 42.95.65 1.6.1 2.9-.45.9 1.55 3.65-7.3-8.85-22.3-20.1-14.9-11.1-33.05-21.45-42.2-23.95-71.3-27.75-3.9-.45-7.1.75-3.65 1.45-4.15 4.55-.55 3.25 2.25 6.2 3.2 3.4 9.6 4.7 5.85 1.15 16.65 4.55 12.2 3.85 24.85 8.75l-4.85.55Q34.2 139.55 22.4 138.5q-1.15-.1-2.15.65t-1.05 1.8q-.25 2.7 5.2 3.65 17.3 2.95 52.1 15.2 36.25 12.7 61.7 25.25-24.25-10.15-59.9-21.95-33.9-11.2-49.85-14.65-6.55-1.45-7.25 4.15-.5 4.2 2.85 8.9 3.55 4.9 8.35 5.65 30.65 4.7 60.7 12.8 14.35 3.85 71.45 21.15l5.85 6.1q-30.9-11.7-72.6-22.75-37.6-9.95-61.35-13.6-4.55-.7-4.7 2.15-.1 2.55 3.1 6.85 3.15 4.2 7.45 7.45 4.75 3.6 8.4 4.1l49.55 4.85q35.8 4.05 75.95 14.15l2.5 2.65q-35.9-8.3-59.35-11.7-24.2-3.55-63.95-6.15-4.15-.25-3.2 3 .75 2.4 3.9 5.95 3.05 3.4 7.55 5.9 4.9 2.8 9.5 3.2l54.95 4.4 56.9 4.85 2.15 2.25-53.5-3.9-60.55-4.2q-.8-.05-1.6.45-1 .65-.8 1.8.55 3.3 10.95 9.1 4.4 2.45 15.1 3.9l17.6 1.3q32.3.8 50.45-.15 14.65-.75 27.25-3.2l3.1 3.3-.45.45q-.75-.7-2.8-.4l-42.7 2.35q-29.7.75-46.3-.5-9.25-.65-10 .25-1 1.25 8.85 6.7 6.6 3.7 15.15 5.55 6 1.3 11.1 1.4 13.05.25 32.3-3.4 13.75-2.6 27.05-6.45-14.35 8.3-39.75 12.25-23.85 3.65-39.65 1.15-15.5-2.4-33.8-14.75-17.3-11.6-33.4-29.35-16.05-17.75-26.6-36.85Q3 151.4.65 134.45-.85 123.2 1.7 118.8"/><path fill="#eeeeef" d="M229.7 88.1q2.5 12.9.6 26.1l-2.1 17.15q-2.1 16.3-4.1 28.5-6.4 38.6-12.65 38.6-2.55-1.35-5.85-5-6.65-7.35-10.55-19-4.2-12.6-6.05-32.35-1.45-15.6-1.2-31.95.25-16.65 5.5-27.7 6.75-14.1 20.05-13.75 12.7.35 16.35 19.4M80.65 150.95q7.65 1.2 13.45 3.9 28.75 13.3 53.75 33.9 8.75 7.2 14.8 13.5 5.25 5.35 4.95 6.15-.5 1.45-36.05-6.5-42.3-9.5-46.85-10.2-15.95-2.5-26.25-7.95Q44 176.1 45.95 164.5q2.05-12.05 19.55-14l15.15.45"/><path fill="#003f4d" d="M213.35 68.7q12.3.35 16.25 18.75 3.05 14.2.45 28.1-.45-6.6-3.1-13.25-5.25-13.25-16-13.4-10.8-.2-18.05 11.7-2.3 3.75-3.95 8.2-.85 2.25-1.2 3.75l.05-2.4q.25-16.65 5.5-27.7 6.75-14.1 20.05-13.75m-134.4 86.65q-15.25 2.6-15.8 13.2-.5 10.6 10.5 17.95 5.45 3.65 11.05 5.2-15.95-2.5-26.25-7.95Q44 176.1 45.95 164.5q2.05-12.05 19.55-14l15.15.45q7.65 1.2 13.45 3.9l-15.15.5"/><path fill="#0d131a" d="M208.65 196.2l-2.1-2.05-2.3-3.7q2.65 3.85 4.35 5.7l.05.05q2.75 1.95 5.2-.5 3.5-3.5 8.3-34.45 2.6-16.9 4.95-37.1 1.65-14.1-2.3-22.95-3.85-8.7-12-10.05-8.65-1.45-14.95 5.3-5.85 6.25-7.05 16.25-1.55 13 .75 36.3 2.45 24.45 6.75 32.3l-.8-1.1q-6.85-8.65-9.85-39-2.75-27.8-.4-47.3 1.2-10.2 8.55-18.85 8.45-9.95 18.75-8.25 9.95 1.65 14.9 15 4.85 13.05 2.75 31.15-1.85 15.6-6.05 39.45-5.75 32.75-10.25 44.1-2.05 5.2-7.25-.3m2.4-109.35q6.15.05 11 5 5.15 5.25 7.65 15 .5-18.4-5.65-28.3-5.45-8.75-13.85-8.1-8.2.65-14.25 9.7-6.6 9.85-6.9 25 4.15-8.8 10.15-13.7 5.75-4.65 11.85-4.6M44.1 167.4q.4-10.65 10.05-15.75 8.2-4.35 19.6-3.3Q92.7 150.1 121.4 168q23.35 14.6 38.65 29.65 8.65 8.55 10.3 11.75 1.8 3.35-3.5 1.95Q122.2 199.8 84.8 193.7q-18.9-3.1-30.25-10.7-10.75-7.25-10.45-15.6m17.3-.2q1.2-5.85 6.9-9.35 6.45-4 17.5-4.05-15.75-3.45-26.2-.15-9.3 2.95-11.35 9.85-2.05 6.75 4 13.3 6.55 7.15 19.9 10.3-5.85-3.3-8.85-8.9-3-5.6-1.9-11m10.8-7.8q-7 3.65-7.3 11.6-.3 7.5 10.2 13.75 9.7 5.85 24.3 8.2 14.65 2.45 27.6 5.4 8.2 1.9 29.65 7.45 6 1.55 6.75 1.25 1.6-.6-4.55-6.35-16.8-15.8-32.4-26.3-20.6-13.75-37-16.7-10.4-1.85-17.25 1.7"/><path fill="#7c70a2" d="M168.2 167.95q14.4-8.25 30.45-6.2 13.9 1.75 23.85 10.05 8.7 7.25 9.7 20.8.8 11.05-3.3 22.6 7.9 1.75 14.2 4.5 6.7 2.9 9.1 5.9 8.1 10.05 7.75 22.45-.35 12.4-8.9 19.25-9.1 7.35-19.3 8.35-10.7 1.05-21.65-5.1-6.3-3.55-9.75-12.1-3-7.4-3.4-17.25-14.05 2.6-23.9.45-11.25-2.45-18.85-11.35-12-14.05-7.4-33.55 4.55-19.2 21.4-28.8"/><path fill="#655b86" d="M251.05 267.3q-9.1 7.35-19.3 8.35-10.7 1.05-21.65-5.1-6.3-3.55-9.75-12.1-3-7.4-3.4-17.25l.75-.25 5.05-2.05q7.5-3.2 8.55-3.2 2.2.05-.3 5.85-3.25 7.5 2.35 13.4 5.25 5.55 14.75 6.65 10 1.2 18.25-3.55 9.55-5.4 13-17.05 1.5 7.7-.65 14.7-2.2 7.2-7.65 11.6"/><path fill="#0d131a" d="M198.5 162.65q-19.5-2.2-34.3 9.8-15.25 12.35-16.5 30.1-1.15 16.25 9.3 28 7.15 8.1 19.9 10.2 12 1.95 23.75-2 3.6-1.2 3.05.35-.55 1.55-4.45 2.7-12.3 4-24.55 1.85-13.3-2.3-20.9-11.2-11.45-13.35-9.05-31.85 2.4-18.7 17.55-30.3 9.75-7.5 21.15-9.9 10.5-2.25 20.8.15 9.9 2.3 17.35 8.25 7.55 6.05 10.75 14.35 2.5 6.55 2.4 14.1-.15 8.65-3.8 16.85-2.85 6.45-4.7 6.85-1.8.45 1.25-5.65 4.45-8.85 4.2-18.3-.25-9.45-5.15-17.7-8.65-14.5-28.05-16.65"/><path fill="#0d131a" d="M256.65 237.2q-3.5-10.2-12-15.15-5.1-3-16.5-5.55l.7-1.1.65-1.1q11.15 1.3 19.6 7.45 8.55 6.25 11.05 15.1 2.45 8.75.3 17.15-2.3 9-9.2 14.55-7.65 6.2-17.1 8.1-9.4 1.85-17.7-1.2-8.85-3.25-14.15-11.3-5.85-8.9-6.35-22.3.35-.6 1.3-.4.95.15 1.3-.4.5 11.9 5.6 20.2 4.75 7.7 12.6 11.15 7.55 3.3 16.15 1.8 8.85-1.5 16.55-7.7 5.35-4.3 7.65-11.65 2.65-8.55-.45-17.65m-98.05-40.75q5.55 5.45 7.95 13.55 2.9 9.9 1.55 17.25-1.3 6.95-5.7 8.85-5.3 2.3-11.75-2.85-6.55-5.25-8.9-14-2.8-10.5-.15-18.45 2.3-6.8 6.95-8.4 4.45-1.5 10.05 4.05"/><path fill="#ed85a7" d="M156.8 197.7q4.75 4.8 7.25 13.3 2.5 8.4 1.6 15.35-.85 6.75-4.25 8.25-3.45 1.5-8.5-2.55-6.25-5-8.8-15.75-1.9-8.1-.1-14.65 1.65-5.95 5-7.1 3.4-1.2 7.8 3.15"/><path fill="#f6c8d6" d="M153.35 197.3q2.8 4.3 3.2 12.45.25 5.2-1.2 9.1-1.35 3.55-3.55 4.75-2.25 1.25-4.3-.5-2.25-1.9-3.4-6.8-1.9-8.1-.1-14.65 1.65-5.95 5-7.1 2.1-.75 4.35 2.75"/><path fill="#0d131a" d="M193.2 197.05q-7.15-6.25-9.55-15.25-2.45-9.2 2.3-14.1 4.6-4.7 14.75-3.35 10.2 1.4 17.2 7.85 6.55 6.05 8.6 15.15 2.15 9.15-2.05 13.75-4.25 4.8-13.3 4-9.75-.85-17.95-8.05"/><path fill="#ed85a7" d="M193.7 193.9q-6.15-5.85-8.05-13.55-1.85-7.6 1.85-11.15 3.8-3.7 11.15-3.1 8.25.7 15.85 6.75 8.2 6.45 9.9 15.8 1.6 8.4-2.55 12-3.65 3.15-10.7 2.35-9.05-1-17.45-9.1"/><path fill="#f6c8d6" d="M197.5 192.4q-7.65-1.5-10.5-8.1-2-4.6-1.9-8.7.1-4.2 2.4-6.4 2.6-2.5 7.35-3.05 5.05-.55 10.6 1.5 5.65 2.1 7.25 9.05 1.65 7.2-2.9 12.15-4.65 5.05-12.3 3.55"/><path fill="#0d131a" d="M174.4 217.7q.3-.85 4.85-1.45 4.4-.55 5.2-.1.75.45-.45 5-1.2 4.6-2.55 4.7-1.5.15-4.5-3.55-2.85-3.65-2.55-4.6"/><path fill="#fff" d="M177.7 220.1q.2-.55 2.1-1.15l2.3-.4q.45.2.1 2.9-.35 2.7-.95 2.9-.55.15-2.15-1.9-1.5-2-1.4-2.35"/><path fill="#0d131a" d="M189.4 214.7q-.1-.9 2.7-4.2 2.8-3.3 3.55-3.25.8.05 2.35 4.25t.8 5.1l-5.05-.25q-4.25-1.05-4.35-1.65"/><path fill="#fff" d="M192.25 213.45q-.05-.55 1.4-1.9 1.45-1.4 1.95-1.35.45.05 1.4 2.5 1 2.45.65 2.8-.3.4-2.85-.65-2.5-1.05-2.55-1.4"/><path fill="#0d131a" d="M173.6 219.05q-1.5-2-.05-5.6 1.7-4.25 6.85-7.55 4.7-3.05 9.95-3 4.75.1 6.15 2.35 1.9 2.9-.3 6.9-2 3.55-6.3 6.6-4.05 2.85-8.8 3.15-5.15.25-7.5-2.85m28.65 27.7q.15 2.15.25 2.25l2.5-.15 2.4-.05q.35.45.15 2.9l-.15 2.55 2.45.8q2.2.5 2.4.95.35.65-.65 2.25t-2.4 2.85q-3.25 2.8-7.8 1.9-3.9-.8-5.9-3.4-2.6-3.5-1.95-7.45.6-3.6 3.35-5.6l2.6-1.65q1.65-.85 2.3-.45.3.15.45 2.3"/><path fill="#5dc1cf" d="M197.4 258.35q-1.7-2-1.85-4.8-.2-2.6 1-4.05 2-2.45 3.6-2.35.35 0 .6 1.8l.45 1.95 2.3-.15 2.3-.1q.15.15-.1 2.4t-.05 2.5l2.15.6q1.85.3 2 .55.2.5-.6 1.55-.9 1.25-2.6 2.25-1.9 1.1-4.6.6-2.9-.6-4.6-2.75"/><path fill="#0d131a" d="M236.6 224.35q3.5 2.55 4.35 7.15.85 4.55-1.25 8.25-1.75 3.15-4.45 4.2l-5 .2q-3.15-.5-3.45-1.35-.25-.6.55-2.25l.8-1.85q-.05-.2-2.25-.8-2.2-.6-2.4-1.15-.2-.55 1.15-2.4l1.3-2.05q-.05-.2-2.3-.85-2.25-.7-2.45-1.3-.4-1.25 2.55-4.35 3.2-3.4 6.15-3.5 3.65-.1 6.7 2.05"/><path fill="#5dc1cf" d="M234.3 225.3q3.15 1.6 4.15 5.65 1 4.05-.25 7.3-1.2 3.3-4 4l-3.15.15q-1.8-.15-2-.5-.25-.4.7-2.2 1-1.8.85-2-.15-.2-2.15-.65-1.95-.45-2.2-.85-.25-.35.85-2.25 1.1-2 1-2.3-.1-.35-2.15-1.15-2.05-.85-2.2-1.2-.2-.6 1.4-2.3 1.95-2.05 4.45-2.45 2.45-.4 4.7.75m-40.1-18.85q1.6 2.05-.2 5.5-1.75 3.45-5.4 5.65-3.85 2.35-7.95 2.45-3.75.1-4.9-1.55-1.4-2-.2-5 1.4-3.55 5.9-6.25 3.8-2.3 7.75-2.4 3.65-.1 5 1.6"/><path fill="#50a8b4" d="M194.9 208.5q.1 2.2-1.65 4.8-1.8 2.6-4.65 4.3-3.25 2-6.8 2.35-3.2.35-5.05-.65 5.05-.25 10.95-3.9 5.7-3.45 7.2-6.9"/><path fill="#0d131a" d="M187.75 282.75q-10.15-6.15-9.1-12.35.85-5.15 12-6.45 10.95-1.25 24.5 2 13.2 3.15 23.25 8.75 11.1 6.1 10.1 11.1-1.15 5.8-15.55 6.9-12.5.9-24.1-1.8-12.35-2.9-21.1-8.15m85.6-41.9q3.8 20.65 1.35 31.6-1.95 8.75-7.4 10.1-5 1.2-11.2-8.1-7.1-10.55-10.75-28.5-2.9-14.15-1.7-24.5 1.3-11.1 6.95-13.35 5.85-2.35 12.7 7 7.15 9.8 10.05 25.75"/><path fill="#5dc1cf" d="M251.45 210.7q4.6-1.3 10.8 8.75 6.05 9.85 8.2 21.6 3.25 17.7 2.15 28.1-1.05 9.7-5.55 10.75-4.25 1-10-9.65-5.95-10.9-8.7-25.55-2.3-12.05-1.8-21.65.6-11.15 4.9-12.35"/><path fill="#50a8b4" d="M262.35 227.95q2.4-.25 4.75 3.55 2.25 3.7 3.35 9.55 2.95 16 2.3 25.95-.2 4.25-1.2 7.55-.85 2.7-2.65 2.55-1.75-.1-3.75-2.95-4.8-6.8-6.65-21.75-1.3-10.5.05-17.65 1.2-6.55 3.8-6.8"/><path fill="#5dc1cf" d="M181.4 270.8q1.2-3.65 10.8-4.35 10.3-.75 23.35 2.7 15.35 4.05 23.4 8.75 7 4.1 6.8 7.45-.25 3.55-11 4.35-10.95.85-24.1-1.9-12.65-2.65-21.55-7.75-9-5.2-7.7-9.25"/><path fill="#50a8b4" d="M192.3 276.95q.2-2.8 7.9-3.15 7.75-.3 18.65 2.1 11.95 2.65 19.05 7.5 3.3 2.25 3.25 3.85-.05 1.75-4.3 2.25-5.15.6-11.9.2-7.1-.4-14.3-1.9-6.7-1.4-12.2-4.3-6.4-3.35-6.15-6.55"/><path fill="#003f4d" d="M98.75 116.2q-6.2 3.1-15.6 1.95-10.35-1.25-10.1-7.55.25-6.05 9.85-5.15 6.6.6 15.7 4.1 22.3 8.65 39.85 32 14.35 19.1 19.2 37.85 1.25 4.75.8 5.65-.5.85-2.35-3.4-23.65-55.45-57.35-65.45m77.3 52.45q.45 5.2-.6 4.8-1.05-.35-1.65-5-2.55-18.95-14.3-50.75-12.35-33.25-19.45-36.95-14.4-4.2-18.35-10.75-3-4.95.35-8.7 3.3-3.6 9.45.25 6.05 3.8 12.05 13.1 14.2 22.05 23.8 53.6 7.35 24.2 8.7 40.4"/><path fill="#0d131a" d="M175.2 172.4q.05-16.2-8.65-43.85-9.6-30.55-23.25-51.7-5.25-8.1-10.95-12.75-6.8-5.5-9.95-1.8-2.65 3.15 1.9 8.55 5.3 6.25 16.75 8.65 11.6 15.95 21.15 42.75 8.75 24.6 13 50.15m.95-7.9q1 7.8-.3 9.45-1.35 1.65-2.85-5.95-4.25-22-13.1-46.4-10.05-27.55-19.95-40.15-12.45-2.35-17.85-9.3-5-6.4-.8-11.2 3.45-3.95 10.35-.05 6.95 4 12.7 13.5 25.5 42.6 31.8 90.1m-102-55q-.7 1.95 1.3 3.9 1.95 1.95 5.6 3.05 8.9 2.65 17.35-1.45 22.7 6.7 41.25 33.7 11.15 16.25 18.2 35.25Q152.7 161 135.7 139.8q-17.55-21.9-37.65-28.85-10.1-3.5-15.45-4.15-7.2-.9-8.45 2.7m4.3 8.7q-3.65-1.35-5.4-3.8-1.75-2.45-1-5.2 1.35-5.05 10.05-4.5 7.55.5 19 5.05 17.85 7.05 33.8 26.15 16.6 19.9 23.4 43.85 1.45 5 .2 5.65-1.3.65-3.45-4.3-22.6-53.15-56.35-64.1-11.6 4.45-20.25 1.2"/></svg>