<svg xmlns="http://www.w3.org/2000/svg" width="220" height="245" viewBox="-0.05 -0.6 220.35 245.4"><path fill="#0d131a" d="M216.65 121q3.65 2 2.8 5.8-.8 3.7-4.45 5-3.45 1.25-28.2 7.75l-29.9 7.7-3.65 6.45 3.2 35.05q2.8 35.1 2.2 50.85-.05 1.05-1.05 2.75-1.05 1.65-1.9 2.15l-3.65.3q-1.7-.35-3.25-1.25-1.2-.75-20.8-28.1l-28.05-39.3-3.95.55q-43 39.55-59.25 51.75-2.45 1.85-4.1-.35l-1.15-2.6q2-17.2 7.7-55.6l5.95-39.6-23.55-17.55Q2.3 98.4 1.35 96.75.05 94.5 0 92.5q-.05-2.8 2.65-4.3 1.25-.7 29.1-9.15l39.55-12q11.85-14.5 23.65-28.35 23.15-27.25 32.55-36l1.65-1.65q1.4-1.65 4.65-.8 3.55.95 4.5 4.4.7 2.35 11.8 78 6.2 3.5 66.55 38.35"/><path fill="#955e0c" d="M212.5 128.8q-2.35 1.65-24.8 7.7l-33.25 8.5-.5.1-3.35 7.15.05.3 2.85 31.9q2.7 35.35 2.25 54.6 0 .95-.75 1.3-.9.55-2.55.35-1.45-.15-2.35-.7-2.6-2.25-49.15-66.85l-.4-.55-5.7 1.05-.2.2q-10.25 9.6-22.4 20.5-24.2 21.85-34.7 29.75l-1.2.1q-1.1-.35-1.35-.9 2.1-18.4 7.4-57.4l4.95-35.9.1-.65-.5-.35Q5.7 96.45 4.05 94.6q-.6-.65-.6-1.55 0-1.45 1.3-2.5Q6.1 89.7 29.5 82.3 49.15 76.05 72.2 69l.3-.1.25-.25q10.6-12.75 22.9-27 24.5-28.4 34.15-37.35l2.7-.15 1.85.95q.8.6.95 1.25.45 1.85 11.5 77.55l.05.5.5.25q64.85 36.85 67.25 38.75l.15 1q-.05 1.2-.75 2.5-.65 1.35-1.5 1.9"/><path fill="#bc771a" d="M214.6 123.4l.15 1-.45 1.75q-43.5-11.55-88.85-17.25l-26.85-2.8-9.85-.65L146.8 84l.05.4.5.25q64.85 36.85 67.25 38.75M129.8 4.3q.25-.25 1-.35Q108.4 37.1 91.6 70.3q-8.4 16.6-12.35 26.55-17.4-2.8-75.25-5.5l.75-.8Q6.1 89.7 29.5 82.3 49.15 76.05 72.2 69l.3-.1.25-.25q10.6-12.75 22.9-27 24.5-28.4 34.15-37.35"/><path fill="#764800" d="M132.05 3.95q1.1.3 2.1 1.05 1 .7 1.15 1.35.45 1.85 11.5 77.55l.05.2q-14.6 5.25-35.05 9.3l-35.85 6q15.2-33.75 56.1-95.45M214.5 125.6q-.75 2.4-2 3.2-2.35 1.65-24.8 7.7l-33.25 8.5-.5.1-3.35 7.15.05.3 2.85 31.9q2.7 35.35 2.25 54.6 0 .95-.75 1.3-.85.55-2.55.35l-21.15-42.2q-23.7-47.2-36.85-67.75 4.3-3 9.6-13.1 4.6-8.7 8.2-9.3 9.05-1.45 43.5 4.95 22.4 4.15 58.75 12.3m-151.2-.15q8.45 14.05 15.55 24.45 8.85 13.05 17.7 23.45l-1.7.3-.2.2q-10.25 9.6-22.4 20.5-24.2 21.85-34.7 29.75l-1.2.1-.85-.4q4.65-19.05 10-39.7 10.7-41.15 17.8-58.65M4.05 94.6q-.6-.65-.6-1.55l.05-.55q-.35-1.1 25.35.55 26.5 1.65 42.15 4-3.85 8.15-10.6 17.45-6.7 9.25-13 15.15l.05-.3-.5-.35Q5.7 96.45 4.05 94.6"/><path fill="#0d131a" d="M128.2 89.4l19.4-6.3.5 1.3-18.55 7.5-1.35-2.5m3.2-86.8l1.05.95q-2.05 2.3-15.65 24.4-14.95 24.25-20.25 35l-2.2-1.05q3.85-8 17.25-29.8 14.5-23.5 19.8-29.5m83.85 122.7l-.55 1.3q-3.35-1.35-40.7-8.95-38.8-7.9-50.3-9.2l-.2-2.4q11.3 1.25 50.65 9.7 37.55 8.1 41.1 9.55M2 91q6.45-.3 27 .3l34.55 1.95-1 2.8-34-2.6-26.45-1L2 91m103.55 57l2.2-1.35q6.95 15.3 24.65 52.1 19.3 40.15 21.1 42.3l-1.05.95q-2.05-2.45-22-42.65-18.9-38.15-24.9-51.35m-50.6-.9l2.35.75q-4.15 12.8-12.6 42.7-8.7 31.05-8.85 34.15l-1.4-.05q.15-3.35 8.4-34.5 8.25-31.25 12.1-43.05"/><path fill="#0d131a" d="M91.3 57.9q9.1.45 17.15 4.4 7.85 3.9 14.25 11 6.6 7.3 10.1 15.9 3.6 8.95 3.6 18.6l-.35 5.75q-.4 5.3-.8 7.1.6 1.15 3.45 4.5l6.7 7.15q12.65 12.3 13.9 15.2-.95 2.4-4.9 8.55-.4.6-2.55-.6-4.25-2.5-6.65-3.6-9.05-4.1-13.8-5.5-8.4-2.4-10.7.55-2.2 2.85-6.1 5.3-3 1.95-7.65 3.95-1.35.6-1.7 3.05-.25 1.55-.1 5.25.25 9.85-3 12.7-1.05.9-3.25.65l-4.5-.8q-1-.15-2.65-1.95l-5.85-6.55-5.55-6.15q-3.35-3.6-4-3.75-18.95-4.35-28.65-19-9.05-13.7-8.05-33Q40.7 85.65 56.1 71.25 71.45 56.9 91.3 57.9"/><path fill="#ffe100" d="M120.8 74.8q6.65 7.4 9.95 16.8 3.3 9.4 2.75 19.7-.15 4.15-1.1 8.6l-.05.25q0 .65 1.95 2.9l9.8 10.5q10.95 11.5 11.75 12.9-1.35 3.25-3.4 6.45-.9-.15-6.55-2.7-10.35-4.7-15.6-6.15-9.1-2.45-11.95 1.25-4.55 5.95-12.1 9.25-2.1.9-2.7 3.85-.35 1.8-.2 6.1l-.1 5.6q-.35 2.8-1.75 4.05-1.8 1.6-6 .9-1.15-.25-9.35-9.2l-5.95-6.35q-2.4-2.35-3.45-2.65-16.85-5.1-26.5-18.7-9.7-13.7-8.8-31.5 1-20.3 15.25-34 14.2-13.7 33.25-12.75 8.8.45 16.8 4.3 7.95 3.85 14.05 10.6"/><path fill="#f9be00" d="M103.3 162.4l.05 2.1-.1 5.6q-.35 2.8-1.75 4.05-1.8 1.6-6 .9-1.15-.25-9.35-9.2l-5.55-5.95q9.95 3.25 22.7 2.5M89.95 59.9l4.4.45q-10.55 2.6-18.85 8.1-9.05 6-13.85 14.5 2.35-10 8.4-19.3 9.55-4.25 19.9-3.75m-.7 32.8q7.7-5.3 17.85-7.75 8.55-2.1 19.5-2.25 4.1 6.85 5.85 14.95-19-11.05-43.2-4.95m54.85 40.85q10.95 11.5 11.75 12.9-1.35 3.25-3.4 6.45-.9-.15-6.55-2.7-10.35-4.7-15.6-6.15-9.1-2.45-11.95 1.25-2.75 3.5-6.4 6.05 3-9.95-.15-19.25-3.9-11.6-16.3-15.35l18.65 2.05 18.75 2.5q1.55 2.15 11.2 12.25m-83.7 4q-.3-7.25 3.05-15.45 0 19.4 6.25 32.05-3.2-1.45-6.5-3.55-2.6-7.85-2.8-13.05"/><path fill="#0d131a" d="M65.35 56.7l2.1.3q8.45 1.1 9.05 3.2.3.9-.6 1.6-2.9 2.45-4.8 5.45-1.15 1.7-2.3 4.5l-1 2.05q-.55.85-1.25 1l-3.65 1.8q-4.4 2.35-6.25 3.1-1.95.75-2.85.4-.55-.25-.7-.85-.55-2.25-.2-8.5.4-7.55 2.35-9.15 2.15-1.8 4.7-3.25 3.55-2 5.4-1.65"/><path fill="#ffe100" d="M65.75 59l2.2.35q5.4.7 6.6 1.25-3.05 2.55-5.05 5.8-1.1 1.75-2.35 4.7l-1.05 2q-.75.2-4 1.95-6.25 3.2-7.3 3.35l-.1-1.65q0-3.75.55-7.55.7-4.7 1.85-5.7 2.3-1.9 4.8-3.25 2.75-1.45 3.85-1.25"/><path fill="#0d131a" d="M44.75 100.75q.5-.15 1.05.3.65.6.7 2.8.1 1.95-.35 6.95l-.2 4.05q.15 1-1.3 4l-1.4 3.4q-.65 1.95-.35 3.1.35 1.35-.7 1.75-1.4.65-5.4-2-3.5-2.35-4.45-3.75-1.05-1.55-.75-5.6.25-3.1 1.05-5.8.75-2.45 5.7-5.85 4.45-3.05 6.4-3.35"/><path fill="#ffe100" d="M41.15 125.4q-1.25-.4-3.95-2.2-2.7-1.85-3.4-2.85-.5-.7-.5-2.85 0-3.35 1.05-7.05.55-1.75 4.6-4.6 3.6-2.45 5.65-3.2l.15 1.65-.35 6.35-.25 3.8v.7l.05.05q0 .6-1.15 2.9-2 4.45-2 6.45l.1.85"/><path fill="#0d131a" d="M122.6 108.2q25.1 6 26.1 9.4.75 2.45-.3 8.05-.95 5.2-2.05 6.8-.7.95-3.1.9-5.05-.15-18.3-3.5-18.3-4.65-27.2-8.8l-1.8-.95q-.7-.45-.6-1.1l.2-2.9q.3-5.95.7-8.45.45-2.9 1.25-3.6l1-.3 7.85 1.2q8.7 1.45 16.25 3.25"/><path fill="#ffe100" d="M145 131.25q-2.95.35-24-5.15-21-5.45-23.85-7.25l.15-2.65q.55-9.35 1.25-10.6 7.9 1.45 25.35 5.65 21.6 5.2 23.1 6.95l.2 1.95q0 2.6-.75 6.3-.75 3.5-1.45 4.8"/><path fill="#0d131a" d="M49.65 124.4q.4-.45 1-.45.95.05 2.45 1.6l4.35 5.4 2.6 3.15q.55.45.7 1.45l.1 2.3q-.05 3 .25 5.05.45 3.5 2 6.9.4.65-.3 1.45-1.2 1.5-6.4 3.45-5.2 2-6.9 1.6-1.35-.35-2.85-2.7l-2.85-5.75-.85-1.85q-1.25-2.55 1.3-10.35 2.45-7.65 5.4-11.25"/><path fill="#ffe100" d="M58.9 135.45l.15 1.6v1.85q0 6.05 2.3 11.3-.85 1.05-5.55 2.85t-5.9 1.5q-.85-.2-2.3-2.9l-2.2-4.5-.85-1.9-.2-1.3q0-3.1 2.05-8.95 2.1-6.05 4.4-9.1 1.1.7 5.25 6.1l2.85 3.5v-.05"/><path fill="#0d131a" d="M87.3 77.8q.75-2.4 6.3-6.15 5.4-3.7 12.65-6.85 18-7.8 24.85-4.05 1.95 1.05 5.1 4.45 3.4 3.7 4 5.95.55 1.9-1.55 6.65-1.85 4.35-4.15 7.4-2.15 2.85-3.7 2.85l-3-.05q-9.9-.15-15.25.1-10.5.4-15.65 2.05-4.6 1.45-7.25-1.6-1.35-1.6-2-4.4-.5-2.15-.5-4.4 0-1.35.15-1.95"/><path fill="#ffe100" d="M106.95 67.4q16.95-7.6 23.5-5 1.45.55 4.4 3.85 3.05 3.4 3.6 5.35.35 1.25-1.35 5.35-1.8 4.2-4.05 7.2l-1.7 1.85-.55.25h-3q-23.05-.45-31.4 2.2-3.15 1-4.95-.6-1.4-1.3-2.1-4.1-.45-1.95-.45-4.15l.05-1.1q.9-1.6 6.1-4.85 5.3-3.3 11.9-6.25"/><path fill="#0d131a" d="M73.1 135.95l.1-.8q.15-.65 2.05-1.6 1.55-.85 3.05-1.3 4.6-1.35 7 .75 17.6 15.4 25.55 19.6.45.3.7.95.35 1.2.5 4.25l-.2 6.6q-.55 6.4-2.35 7.55-2.2 1.45-4.7 2.25-3.2 1.05-5.05.4-7.05-2.6-17.1-17.95-9.55-14.65-9.55-20.7"/><path fill="#ffe100" d="M78.9 133.95q3.55-1.1 5.2.4 17.75 15.4 25.7 19.7.45 1 .45 5.2 0 3.9-.4 7.05-.45 3.65-1.3 4.15-2.15 1.35-4.45 2.1-2.55.85-3.75.4-6.75-2.5-16.45-17.75-9.05-14.2-9.05-19.1v-.3q1.6-1.1 4.05-1.85"/><path fill="#f9be00" d="M67.95 59.35q5.4.7 6.6 1.25-3.05 2.55-5.05 5.8-1.1 1.75-2.35 4.7l-1.05 2q-.6.15-3.95 1.9 0-7 2.5-15.9l1.1-.1 2.2.35m-23.65 52l-.15 3.8.05.05q0 .6-1.15 2.9-2 4.45-2 6.45l.1.85q-1.25-.4-3.95-2.2-2.7-1.85-3.4-2.85l-.25-.65q4.45-5.6 10.75-8.35m14.75 25.7v1.85q0 6.05 2.3 11.3-.85 1.05-5.55 2.85t-5.9 1.5l-.1-.05q.05-7.65 1.25-13.3 1.05-5.1 3.65-10.95l1.35 1.75 2.85 3.45.15 1.6m33.4-48.55q9.35-7.15 21.85-11.3 11.4-3.8 24.2-4.75-.25 1.95-1.8 5.45-1.7 3.7-3.65 6.25l-1.7 1.85-.55.25h-3q-23.05-.45-31.4 2.2-2.35.75-3.95.05m-7.5 45.9l12.65 10.85q7.9 6.45 12.2 8.8.45 1 .45 5.2 0 7-1 10-7.8-6.4-14.4-15.8-6.75-9.6-9.9-19.05"/><path fill="#0d131a" d="M94.35 85.95q8.55-6.35 22.5-10.75 12.6-3.95 21.6-4.05l.05.9q-5.95.35-19.25 4.45-16.4 5-24.25 10.85l-.65-1.4m-12.25 46.7l1.65-.45q1.65 5.7 8.75 17.15 9.05 14.45 17.3 20l-.5.75q-8.4-5.65-17.9-20.15-7.75-11.9-9.3-17.3m-32.6 9.05q1.25-8.55 4.55-13.95l1.35.6q-2.25 2.5-4.1 12.1-1.95 9.75-.95 14.9l-.8.2q-1.15-5.95-.05-13.85M61.4 75q-.6-3.1 1.05-9.15 1.1-4 2.65-7.75l.8.35Q64.7 61.4 63.65 66q-1.3 5.9-.7 8.95L61.4 75m-17.3 37.2l.25.8q-2.85 1-6 3.45-3.4 2.6-4.35 4.85l-1.25-.8q1.05-2.55 5.1-5.2 3.2-2.05 6.25-3.1"/><path fill="#0d131a" d="M50.85 80.4q9.6-9.35 22.05-8.5 13 .9 21.5 11.3 8.45 10.35 7.75 24.35-.7 13.85-10.45 23.4-9.7 9.5-22.2 8.9-5.4-.3-10.6-3.05-4.95-2.6-9-7.05-4.65-5.1-7.15-12-2.65-7.1-2.3-14.15.7-13.85 10.4-23.2"/><path fill="#ffe100" d="M72.8 73.35q11.85.6 19.75 10.5 7.95 9.85 7.25 23.2-.65 13.35-9.55 22.4-8.85 9-20.7 8.4-5.25-.25-10.05-2.6-4.8-2.35-8.5-6.45-4.4-4.8-6.6-11.3-2.2-6.45-1.85-13.35.7-13.35 9.55-22.35 8.9-9.05 20.7-8.45"/><path fill="#0d131a" d="M87.8 84.9q4.15 4.6 5.95 9.25 2.05 5.35 1.65 12.2-.4 6.9-2.9 11.95-2.25 4.45-6.75 8.5-3.9 3.55-8.85 5.35-5.05 1.85-10.25 1.6-11.35-.55-19.45-9.85-8.2-9.3-7.6-21.25.6-11.7 9.5-19.5 8.8-7.65 20.45-7.1 5.2.25 10 2.6Q84.3 81 87.8 84.9"/><path fill="#ba0031" d="M91.65 95.3q1.75 5.2 1.45 10.95-.25 5.7-2.55 10.65-2.25 5-6.25 8.55-3.6 3.3-8.15 4.9-4.5 1.6-9.4 1.35-10.55-.5-17.65-8.9-7.05-8.35-6.5-19.6.55-11.1 8.35-18.35 7.75-7.25 18.5-6.75 4.85.25 9.15 2.3 4.35 2.05 7.65 5.7 3.6 4 5.4 9.2"/><path fill="#d7063a" d="M76.15 130.35q-4.5 1.6-9.4 1.35l-2.45-.25q-1.75-3.2.8-8.95 2.3-5.2 7.4-10.85 4.95-5.55 10.35-9.15 5.8-3.8 9.7-3.75.75 3.7.55 7.5-.25 5.7-2.55 10.65-2.25 5-6.25 8.55-3.6 3.3-8.15 4.9"/><path fill="#990024" d="M50.95 84.85q7.75-7.25 18.5-6.75 3.1.15 5.95 1.05 3.85 14.5-4.85 27.95-8.7 13.4-22.5 14.4-2.85-3.85-4.25-8.45-1.45-4.75-1.2-9.85.55-11.1 8.35-18.35"/><path fill="#e9988e" d="M65.45 90.9q.85 4.55-1.5 9.25t-6.5 6.8q-4.1 2.1-7.65.35-3.55-1.75-4.35-6.3-.85-4.6 1.45-9.3 2.35-4.7 6.5-6.75 4.15-2.1 7.65-.35 3.55 1.75 4.4 6.3"/><path fill="#fff" d="M53.35 106.35q0 2.35-1.25 3.95-1.25 1.65-3 1.65-1.8 0-3.05-1.65-1.25-1.6-1.25-3.95 0-2.3 1.25-3.9 1.25-1.65 3.05-1.65 1.75 0 3 1.65 1.25 1.6 1.25 3.9"/></svg>