<svg xmlns="http://www.w3.org/2000/svg" width="277" height="287" viewBox="0.0 -0.25 277.45 286.6"><path fill="#8b92c7" d="M31.5 195.55q-23.5-3.8-29.7-6 0-1 1.25-4.65 1.35-4.05 2.55-5.9l23.15-20.1q23.65-20.6 27.95-25.75 24.7 16.05 27.6 19.1.35.35.65 2.05-7.15 17.65-18.35 46.5l-35.1-5.25m50.25-181.5q2.95 1.1 25.65 15.2 23.35 14.5 33.75 21.85-10.5 13.3-17.3 20.35-16.25 3.15-50.35 11.1L69 24.45q0-1.05.9-5.1 1-4.3 1.65-5.6h5.15l5.05.3m178.95 59.2q1.05 4.95-.95 10.2-2.75 7.3-9.55 20.45l-10.5 20.15q-13.2-13.35-19.5-18.7l.55-.7q-.1-.75-1.5-3.05-1.5-2.4-2.6-3.35l-.95.25q-2.4-11.2-6.15-26.55l21.15-1.1q13.25-.6 20.4-.2 2.95.25 5.65 1 2.65.75 3.95 1.6M129.75 219q15.1-4.95 17.65-4.1 1.45.45 21.6 22.6-9.3 11.15-47.4 42.4l-2.8 1.55q-3.1 1.35-7.55 1.85-.6-.2-3.8-3.75-3.2-3.55-3.3-4.05-.2-.85-2.1-20.85-1.85-19.2-3.55-24.55 23.6-8.55 31.25-11.1"/><path fill="#8b92c7" d="M199.85 35.4q5.35 19.1 9.7 36.55 4.25 17.4 7.85 30.55 6.3 5.35 13.45 12.5l8.85 9.05 20.35 21.05 11.35 12.05q1.3 1.4 2.3 5.3 1 3.85.5 5.55-.3.95-12.4 3.3l-23.9 4.5q-13.15 2.55-16.85 4l-1.5 56.4q-.85 24.05-1.8 27.95-.6 2.35-2.1 5.5-1.7 3.45-2.8 4.1-2.2-.1-7.25-1.5-4.95-1.4-5.95-2.1-1.95-1.45-11.55-11.8L169 237.5q-20.15-22.15-21.6-22.6-2.55-.85-17.65 4.1-7.65 2.55-31.25 11.1-18 6.5-26.7 9.25-12.65 4-15.85 3.55-.4-2.65-.65-7-.3-4.85 0-5.9l11.3-29.2q11.2-28.85 18.35-46.5-.3-1.7-.65-2.05-2.9-3.05-27.6-19.1-8.95-5.85-20.5-13.15l-10.15-6.45q-1.05-.7-3.9-4.15-2.8-3.45-3.65-5l4.6-5.15q4.35-4.5 5.6-5.25 1.3-.7 14.6-4.1l30.2-7.35q34.1-7.95 50.35-11.1 6.8-7.05 17.3-20.35 8.75-11.05 20.55-26.95L174 7.45q1.15-1.5 5.8-4.05 4.5-2.4 5.35-2.25.9.2 4.05 4.75 3.3 4.75 4.15 7.4 2.1 6.35 6.5 22.1"/><path fill="#ffe100" d="M170.05 78.2q1.55-.9 10.1-24.85 1.85-.1 5.8 1.25 3.8 1.3 3.95 1.9 1 3.25.15 13-.75 8.55-2.25 16.4 1.9 2.85 7.95 9.55l8.1 8.55q3.45-1.4 18.5-8.95 1.25 1.1 3 3.7 1.8 2.7 1.6 3.35-.15.55-7.25 5.75-8.1 5.9-9.1 6.8.05 2.5.75 8l1.15 7.75q5.85 2.05 13 6.7 6.1 3.95 8.5 6.5l-.15 5.3q-.3 3.3-.75 4.95l-12.05-2.45-9.45-1.6q-.25 2.25-1.5 7.65l-2.2 8.25q6.15 13.8 7.05 23.05l-2.35 2.65-5.3 5-5.9-8.1q-4.8-6.55-6.4-7.55-2.25.75-13.4 4.95l-16.05 5.8q-1.95 5.65-5.85 12.65l-4.85 8.15-11.35-4.35 1.1-8.9q1.1-9.2.95-14l-13.6-13.3q-7.1-7-10.65-10.05-1.8.1-10.4 2.8l-10.5 3.35-1.95-3.9q-1.35-2.75-2-5.3 2.55-3.35 8.85-8l9.7-6.6q.1-.75-.6-8.75-.8-8.4-.5-12.7-.25-.4-8.7-4.8l-11.45-5.9q.2-1.55 1.55-4.85l1.9-4.45q3.45-.4 10.05-.2l12.95.85q2.1-2 12.25-9.8-.55-2.85-3.75-12.25-3.15-9.25-3.95-10.55.9-1.15 4.05-2.9 3.05-1.65 3.65-1.5 1.35.4 6.7 5.5 5.8 5.65 10.3 11.35 3.75-.1 11.85-2.15 7.4-1.9 8.75-2.75"/><path fill="#8b92c7" d="M221.05 179.8q3.7-1.45 16.85-4 8.25 23.45 12.35 38.1 6.65 23.85 4.1 29.5-6.95-.55-19.8-3.55l-15-3.65 1.5-56.4"/><path fill="#ba0031" d="M169.3 92q1.95.4 11.45 4 11.35 4.35 14.7 6.85.7.8 4.8 9.25 4.15 8.55 4.6 10.25.55 1.8.9 14.85.35 13.1-.2 13.55L194 161.85q-11.1 10.65-11.7 10.5-3.8-.85-23.45-7.85-19.75-7.05-20.15-7.8-.45-.85-3.45-13.3-3.05-12.65-3.05-14.1 0-1.25 5.2-13.45 4.85-11.5 5.35-12.3.25-.55 13-6.15 12.8-5.6 13.55-5.4"/><path fill="#797fad" d="M237.9 175.8l4.2 11.15 4.5 12.05q-2.15-1.85-7.35-3.5-6.25-2.05-8.7-.1-2.1 1.65-5.85 14-3.5 11.65-4.95 20.65l1.3-50.25q3.7-1.45 16.85-4M31.5 195.55q-23.5-3.8-29.7-6l.15-.95q5.75-5.95 8.15-7.5 5.6-3.5 30.85-13.75 26.55-10.8 42.65-15.75l.75 1.1.6 1.6q-7.15 17.65-18.35 46.5l-35.1-5.25m105.85 40.35q1.35-4.25-2.85-5.15-3.8-.8-10.6 1.3-6.75 2.05-12.85 5.9-6.65 4.15-9.6 8.65l-1.45-8.85-1.5-7.65q23.6-8.55 31.25-11.1 15.1-4.95 17.65-4.1 1.45.45 21.6 22.6-9.3 11.15-47.4 42.4l-2.8 1.55q-3.1 1.35-7.55 1.85l-.9-.55-.7-.5q1.65.35 11.05-14.95 10.55-17.2 16.65-31.4m57.1-54.95l2.7 2.55 3.15 3.3q-9.25 2-19.25 6.2-10.95 4.55-20.1 10.65l2.35-6.15 2.25-6.3 28.9-10.25m23.8-29.7q-2.7 4.35-4.75 11.2-2.2 7.15-2.55 13.3l-3.35-9.4 2.35-8.6q1.4-5.8 1.65-7.95l6.65 1.45M104 166.6l9.5-2.75q6.95-2.1 7.8-2.15 2.8 2.05 9.2 8.35l15.05 15q.1 1.95-.65 8.1-.85 6.95-.95 8.6-5.3-9.5-17.1-20.2Q114.2 170 104 166.6m122.55-95.65q-.35 7.3.7 14.35 1.05 7.1 2.85 9.75 10.05 6.3 20.35 8.35-7.8 14.75-10.75 20.65-11.9-12.05-18.35-17.45l5.7-4.7q-.1-.75-1.7-3.25-1.65-2.65-2.8-3.6-.15 0-6.85 3.45-2.4-11.2-6.15-26.55l17-1M85.2 79.55l-12.3 2.7Q70 35 68.35 27.05q4.6 16.6 15.35 31.05 6.4 8.65 16.75 18.3L85.2 79.55"/><path fill="#797fad" d="M48.35 140.85l7.15-7.5 27.4 18.5q-26.5 9-32.95 11.35 7.35-3.45 5.8-12.75-.6-3.8-2.65-6.5-2.1-2.85-4.75-3.1"/><path fill="#dcc200" d="M164.7 192.3l2.1-9.15 1.7-8.8q1.5.35 8.15 2.45l7.1 1.9 5.55-4.8 4.85-4.5q1 .2 4.9 6 3.7 5.4 5 8.2 1.2 2.55 5.3-.95 4-3.35 3.25-6.2 3.1 10.65 2.5 11.75l-2.85 3.9q-2.75 3.15-4.8 4-1.8-2.55-6.35-7.95-5.05-6.05-6.65-7.2-7.15 2.3-19.15 7.05l-10.6 4.3m69.6-48.15l-.35 4.45q-.45 4-1.25 4.85l-9.95-1.7q-9.2-1.9-10.85-1.8-.75 3.8-4.3 16.4l-2.3-4.6-1.25-2.75 3.45-4.1q1.35-1.95 1.5-2.65l.3-4.5.15-4.65q6.8 1.45 15.25 5.15 2.5 1 3.45-4.15.8-4.35-1.2-6.25 7.35 5.55 7.35 6.3M113.25 158.8q5.5-3.3 8.65-4.7 3.45-1.6 6.3-2-.15.75-3.7 5.35-3.7 4.75-4.2 4.4l-9.9 2.6-10.6 3.05-4-8.95 3.2-2.95q3.5-3.15 4.8-3.9-.75.55-.25 2.2.45 1.65 1.8 3.15 3.6 4 7.9 1.75m36.8 35.25q-.55 1.7 1.15 3.25 1.6 1.4 4.2 2 6.5 1.55 7.9-2.5-1.4 4.5-8.25 15.35l-11.55-4.2q.85-6.4 1.3-14.05l.3-6.55q.5-3.3 4.4-8.15 3.6-4.45 4.85-4.6-.3 3.4-1.65 9.5-1.25 5.45-2.65 9.95m-37.75-79.9l15.1 5.8-13.65 2.25-20.2-10.3 3.3-9.55 6.95-.2-.6 1.35q-.55 1.65-.3 3.25.8 5.05 9.4 7.4"/><path fill="#797fad" d="M160.05 216.65l16.15 13.6q23.05 19.25 32.9 20.15 2.2.15 6-6.45 4.05-7.1 4.65-13.9-.5 32.45-.95 34.6-.35 1.95-2.45 5.75-2.35 4.25-3.8 4.55-1.5.3-6.3-1.15-4.7-1.4-6.05-2.4L175 243.85q-24.7-26.9-27.9-28.1-3-1.1-46.55 13.9-43.7 15.05-45.05 14.7-.4-.1-.8-6.2-.4-6.1-.05-7.8l12.8-34.1 2.45 10.2q2.9 10.35 5.1 11.2 5.15 1.9 36.35-3.8 31.85-5.85 37.65-4.4 3.1.8 11.05 7.2M17.4 104.5q2.3-1.85 13.25-2.65 21.9-1.7 65.15 3.35l-2.25 6.7 20.2 10.3 1.4 21.45-18.9 15.6-72-45.8-6.85-8.95m215.35 49.55l1.75-7.05 15.7 5.8q17.15 7.35 24.7 15.05l-61 13.3q-4.25-13.3-5.75-15.55l3.75-15.65 20.85 4.1"/><path fill="#990024" d="M158.2 140.3l.25-.25.15.3-.4-.05-.15.1 4.5 1.55 21.55-22.1 1.75 29.7L150 161.9q-11.1-4.1-11.45-4.7l-5-20.6 24.65 3.7m11.15-48.4q2.1.55 11.35 4.25 11.2 4.5 14.6 7l2.55 13.25-4.95-10-34.45 33.65-7.55-15.25q-12.7 3-18.25 5.05l4.4-13.25 5.7-13.15q.3-.5 13.05-6.1 12.8-5.6 13.55-5.45m35.7 31.5l.35 5-8.7 5.95 1.4-16.65 6.95 5.7m-9.1 16.75q1.9 1.75 4.75 5.95 2.25 3.35 3.55 5.8l-8.8 8.55-4.35-15.65 4.85-4.65"/><path fill="#990024" d="M186 118.55l2.9-.65 3.05 8.05-4.9 2.2-1.05-9.6"/><path fill="#db8f86" d="M175.85 94.35q7.8 2.6 11.55 4.8l-10.7 1.4-5.55-2.2q-6.5 3.25-13.05 6.45l-7.7 19.85-18.75 5.95 2.05-6.45 9-20.15 26.1-11.8 7.05 2.15m17.4 12.8l-18.7 17.2 4.35-7.65-21.75 19.75-4.2-7.4 29.7-26.45 10.6 4.55"/><path fill="#0d131a" d="M188.8 6.75q-2.85-4.1-3.85-4.75-1.15.15-5.1 2.3-4.2 2.3-5.25 3.65l-4.7 6.4-21.2 28.4Q133.9 62 125.2 71.2q-.55.55-2.15.65-1.6.1-1.3-.2 8.05-7.75 29.95-37L172 6.95q1.2-1.55 6.8-4.4 5.6-2.8 6.8-2.55 1.25.25 5.15 5.45 3.85 5.15 4.7 7.65 3.45 10.45 9.6 33.6 7.9 29.7 11.95 50.55.05.35-1 .9-1.05.6-1.15.25-4.25-20.65-12.45-50.85-6.35-23.4-9.8-34-.8-2.4-3.8-6.8"/><path fill="#0d131a" d="M251.15 68.5q2.8.3 6.95 1.7 3.85 1.3 4.45 2 .7.8.7 4.15 0 3.85-1.3 7.3-3.15 8.4-21.05 41.25-.2.4-1.7-1.6 16.7-31.85 19.8-40.1 1.2-3.15 1.2-6.7l-.25-2.75q-1.3-.75-3.75-1.4l-5.15-.9-40.65 1.25-.85-2.65 21.55-1.2q14.25-.65 20.05-.35M84 12.75q2.85 1.1 25.15 15.5 21.65 14 32.6 21.7l-1.15 1.7q-10.5-7.4-33.6-21.75-22.3-13.8-25.45-15.05l-4.55-.3h-4.9q-.65 1.6-1.5 5.4-.8 3.6-.8 4.5l4.5 57.95-2 .15-5.95-58.1q0-.95 1.65-5.8 1.55-4.7 2.35-6.35l.65-.45 7.45.3 5.55.6"/><path fill="#0d131a" d="M125.05 69.85q.35.75.2 2.1-19.45 3.75-56.75 12.6-36.95 8.8-39.4 10.15-1 .6-4.8 4.5l-4.85 5.25q1.15 1.8 3.6 4.8 2.6 3.05 3.45 3.6l27.6 17.7q28.1 18.3 30.75 21.15.4.4.65 1.45.35 1.25-.65 3.1-1.05 1.9-1.05 1 0-2.3-.5-3.45-.4-.9-1.4-1.6-10.2-7.35-27.4-18l-30-18.7q-1.1-.75-4.25-4.9-2.95-3.9-3.9-5.65-.2-.45.05-.85.65-1 5.45-5.85 5.1-5.2 6.5-6 2.85-1.6 41.6-10.55 38.3-8.85 55.1-11.85"/><path fill="#0d131a" d="M220.3 176.7q.15-5.85 1.3-5.9 1.1 0 1 5.9l-1.05 48.6q-.95 36.9-1.85 40.55-.45 1.95-2.9 5.75-2.5 3.9-3.7 4.3-1.2.35-7.15-1.15-5.9-1.5-7.05-2.35-1.35-1-26.3-28.25-24.65-26.9-25.4-27.25-3.85-1.25-43.65 13.05l-31 11.1q-15.1 5.15-17.55 4.8-1.1-.15-1.8-6.95-.65-6.8.1-9.35.75-2.45 13.3-34.3 12.8-32.55 17.85-44.65 2.6-6.25 3.8-5.65 1.15.6-1.6 7.25-7.7 18.7-30.55 78.05-.1.25.1 5.1.2 5.05.45 6.8 3.95.05 18.3-4.65 8.7-2.85 28-9.85 39.7-14.35 44.7-12.7 2.6.8 26.3 26.8 23.65 25.9 26.15 27.75.85.6 5.4 1.85 4.8 1.4 7.1 1.55.95-.8 2.4-3.8 1.45-3.05 1.95-5.15 1.25-5.15 3.35-87.25"/><path fill="#0d131a" d="M220.25 107.15q-.15-.1.9-.7t1.25-.45q8.05 6.65 28.55 27l21.85 22.25q1.55 1.7 3.1 7.2 1.55 5.4.9 6.4-.8 1.25-6.1 2.5L251.2 175l-19 3.3q-10.05 2.1-11.35 3.75-.15.2-.1-1.55 0-1.7.4-1.85 3.15-1.15 11.95-2.85l17.2-3.15 14.8-2.85q7.35-1.5 8.35-2.15.25-.95-.45-4.45-.85-4.05-2.2-5.55-6.15-6.75-21.95-22.9-20.65-21.1-28.6-27.6m-165 24.9q.15-.25 1.2.6 1 .8.75 1.1-5.55 6.55-40.6 36.65l-10.35 9.05q-1 1.55-2.2 4.95-.95 2.8-1.35 4.6 10.15 3.3 64.1 11l-1.3 2.45-34.1-4.95Q8.25 194.25.55 191.6q-.55-.25-.55-.8 0-1.3 1.25-6 1.45-5.25 2.6-7.05l2.4-2.1 8.5-7.25 23.35-19.65q13.8-11.85 17.15-16.7m43.9 112.5q-1.05-11-2.35-13.9l2.45-.75q1.2 3.8 2.4 13.3l2 19.9q.9 10.45 1.25 12.15l3.05 3.65 3.5 3.55q6.45-.8 9.7-3.25 3.4-2.25 21.2-17.7 20.3-17.55 26.15-24.6.15-.25.9.65.75.85.5 1.1-6.2 7.35-26 25.3-17.8 16.1-20.75 18.1-1.95 1.5-6.85 2.9-4.75 1.4-5.65.95-.75-.25-4.75-4.6t-4.15-5.05q-.2-.85-.45-4.8l-.6-8.2-1.55-18.7"/><path fill="#0d131a" d="M237.15 176.15q-.1-.35 1.05-.55l1.35.15q8.85 25.2 12.3 37.15 5.95 20.2 5.2 28.25-.3 3.3-1.3 4.15l-3.45.25q-6.55-1.1-20-4.6l-12.85-3.4v-2.2l14.35 3.4q14.65 3.3 20 3.8.45-1.4.45-3.65 0-14.35-17.1-62.75m-113.1-105.5Q125 69.4 128.3 67q3.55-2.55 4.55-2.3 2.1.6 8.25 7.3 6.35 6.85 11.5 14.25 1.6 2.3 1.15 2.8-.45.5-2.1-1.75-4.65-6.2-10.25-12.35-6.45-7-8.85-7.85-.75.15-3.2 1.7-2.6 1.6-3.7 2.7 1.1 1.9 4.05 10.3 3.05 8.5 3.6 11.3l-.35.85-12.2 9.75-1.55-.25-1.4-.4L131.6 93q-.7-3-3.75-11.6-3.05-8.55-3.85-9.85l-.15-.45.2-.45"/><path fill="#0d131a" d="M125 72.2q-.4-.3-.05-1.2.3-.9.55-.75 4.6 3 9.75 11.55 3.7 6.05 5.1 9.85.95 2.55.95 3.45 0 .95-1.15-1.35-2.15-4.45-6.05-10.5Q128.75 75 125 72.2m5.15 32.8q2.75.8 3.3 1.75.55.95-2.2.2-11.3-3.05-20.55-3.75-6.15-.45-13 .2l-1.6 3.7q-1.15 2.6-1.4 4l18.95 10.15q1.1.45 1 1.35l.7 9.4q.7 9.75.55 11.45-.05.55-2.35 1.3.2-1.55-.15-11.7l-.35-10.25-20.15-10.25-.4-.55q-.05-.5.35-1.85l1.4-3.8 1.4-3.5q.25-.75.95-1.05l2.4-.4q5.4-.6 13.4.2 8.95.95 17.75 3.4"/><path fill="#0d131a" d="M124.3 117.8q3.35 1.4 3.6 2.15t-2.85-.35q-19.35-7.05-30.35-7.35-.55 0-.9-.8-.3-.85-.05-.85 6.5.25 15.1 2.25 8.6 2.05 15.45 4.95m42.75 60.35q.9-3.2 1.4-2.2.45 1-.25 4.8-2.55 13.65-6.75 22.6l-5.6 9.55q-.3.55-1 .35l-11.5-4.25q-.75-.3-.75-.9 2.2-18.5 1.6-22.75l-13.2-13q-7.75-7.9-10.65-9.8-1.85.15-10 2.75l-10.1 3.25q-.7.2-1.1-.55-3.2-5.6-4.05-9.05-.15-.3.15-.7 2.95-4 11.95-10.25 7.65-5.35 12.95-7.95 2.8-1.35 3.95-1.25 1.2.1-1.1 1.35-6.55 3.55-12.8 7.8-9.55 6.5-12.85 11.1.8 3 3.15 7.8l9-3.05q7.45-2.55 10.05-3.15l1.6-.15q.35.1.95.6 5 4.3 11.45 10.85l10.85 10.9 1.55 1.75q.25.55.2 2.2-.1 6.55-1.6 20.65l9.55 3.55q3.2-2.5 6.75-11.05 4-9.55 6.2-21.8"/><path fill="#0d131a" d="M115.8 158.45q-10.8 5.85-13.45 8.85-.55.6-1.7.3-1.15-.35-.9-.6 3.55-3.4 10.3-7.3 6.15-3.55 13.9-6.95 2.35-1.05 4.05-1.1 1.65-.05-.75.95-3.65 1.55-11.45 5.85m38.05 15.9q.6-3.1 1.15-2.1.55 1-.1 4.5-2.35 12.5-4.9 20.15-2.65 7.95-5.85 11.7-.25.3-.4-.95-.2-1.25.1-1.65 2.15-2.7 5.45-13.65 3-9.85 4.55-18m47.1 14.7q-4.85-6.25-6.4-7.35l-13.3 4.85-16.05 6q-.3.1-.1-1.1.15-1.25.45-1.35l28.9-10.3.7.1q1.5.95 6.3 7.25l6.25 8.2q3.75-3.45 6.2-7.1-.4-5.35-2.95-12.75-2.5-7.4-5.8-12.9-.95-1.95-.2-2 .75 0 1.8 1.9 3.65 6.45 5.85 12.4 1.8 4.9 3.1 10.85.4 1.95.05 2.8l-1.35 1.8-6.05 6.85-.65.2q-.45-.05-.65-.35l-6.1-8"/><path fill="#0d131a" d="M196.05 172.2q-1.7-2.35-.9-2.25.75.05 2.9 2.55 5.65 6.75 8.2 13.7 1.75 4.7 2.2 10.05l-.95-.25q-.95-.45-1-1-.1-3.6-2.35-9.05-2.8-6.65-8.1-13.75m13.05-42.45q-.25-.1-.3-1.1-.1-1 .2-.9 8.65 3.3 16.05 7.9 7.25 4.5 9.75 8.05l.25.5q.15 1.9-.3 5.2l-.9 4.9q-.25.7-1 .55l-10.95-2.35-9.75-1.85-1.65 8.75q-1.3 6.2-2.1 8.35-.1.3-.75-.9-.6-1.25-.5-1.7l2.2-8.35 1.45-7.05q.1-.75.85-.75l8.8 1.45 12 2.4.75-4.6.25-3.9q-2.55-3.45-9.6-7.75-7.35-4.45-14.75-6.85"/><path fill="#0d131a" d="M209.95 115q0-.35.85-.75l.8-.1q0 2.25.65 8.05.75 6.4 1.4 8.45l-1.05-.15q-1.15-.55-1.2-1.1-1.45-12.5-1.45-14.4"/><path fill="#0d131a" d="M221.75 94.35q.7-.3 1.35.25l2.65 3.1q1.4 2.05 2 3.75l-.05.8-.45.65q-.9 1.15-7.95 6.35l-8.55 6.05q-1.9 1.2-2.45.9-.6-.25 1.1-1.65.45-.35 8.85-6.55 7.1-5.25 7.95-6.4l-1.45-2.8q-1.3-2.15-2.3-3.15-.7.25-8.05 3.95l-9.85 4.9-2.65.25q-.55-.6 1.7-1.65l18.15-8.75M186.3 53.5q4.5 1.25 4.9 2.2.8 1.95 0 12.3-.85 10.95-2.7 18.5-.7 2.75-1.6 4.1-.9 1.3-.4-1.05 1.65-8.05 2.6-19.2.95-11.35.1-13.4-.6-.5-3.5-1.5-3.15-1.05-4.9-1.15l-5 13.2q-4.35 11-5.45 11.7-2.3 1.3-20.5 4.8-.3.05-.75-.75-.5-.8-.2-.85l11.7-2.3q7.05-1.55 8.8-2.5 1.35-1 9.85-24.55.15-.6.75-.6 1.95-.1 6.3 1.05"/><path fill="#0d131a" d="M179.45 55.55q0-.65.8-1.65.8-1 .8-.6.3 5.15-1.2 13.55-1.35 8-3.9 16.55-.85 3-1.75 3.65-.85.65-.15-1.9 2.25-7.7 3.75-16 1.6-8.6 1.65-13.6m8.7 31.3q-.55-.8-.25-2.25l.45-1.3q2.4 4.45 8.55 11.95 5.4 6.55 7.1 7.9.25.2-.2.85l-.75.45q-10.85-11.85-14.9-17.6m45.95 61.3q-.3-.1-.3-1.2-.05-1.1.3-1.05 17.55 5.35 30.5 13.2 4.2 2.6 5.55 4.25 1.35 1.7-2.35-.7-5.85-3.85-15.25-7.85-8.85-3.75-18.45-6.65m-13.2 31.45q-.15-.25 1-.4 1.15-.15 1.25 0 3.35 5.9 11.5 22.8 7.95 16.6 10.3 22.5 1.2 3 1.2 4.2-.05 1.15-1.4-1.7l-11.85-24.1q-9.35-18.8-12-23.3m29.8 58.3q-1.05-3.05-.05-2.4.95.65 2 3.65l1.15 4.4-1 .05-1.05-.2q0-2.55-1.05-5.5m-57.3-56.7l1.2-.1 1.2.2 4.45 24.55q2.45 13.55 4.3 22.25l6.8 30.4q2.9 13.5 1.75 16.35-.05.2-1.1 0-1.1-.15-1-.45.9-2.45-1.85-16.1l-6.4-29.9q-5.7-26.9-9.35-47.2m-47.35 34.45l1.15.1q1.1.35.95.7-2.85 7.45-11.6 24.05-8 15.2-14.6 26.3-3.15 5.3-5.4 7.1-2.3 1.8.55-2.5 5.3-8.15 15.4-27.5 10.55-20.1 13.55-28.25m15.9 8.05l-4.55-5.4q-4.6-5.15-7.45-7.4.2-.15 2.05.5l1.85.3 3.85 4.45 3.05 4.05q2.3 3 2.9 4.7.6 1.7-1.7-1.2M60.8 233.25q1.85-2.05 2.05-1.3.25.65-.9 2.15l-2.5 3.6q-1.2 1.75-1.6 1.6-.45-.2.5-2.2 1.2-2.4 2.45-3.85m64.65-67.45q.25-.25 1.15.85.9 1.05.65 1.25-10.45 9.8-29.85 28.9-25.6 25.2-32.15 33.15-2 2.4-2.05 1.2-.05-1.2 2.1-3.75 7.25-8.55 27.85-29.5 17.95-18.3 32.3-32.1M5.5 183.45q1.9-2.05 2.75-1.9.85.2-1.05 2.25L5.25 186l-3 3.65q-.25.3-.3-.9-.05-1.25.55-2l3-3.3m9.6-3.9q-4.1 2.25-3.4.9.7-1.3 4.65-3.35 10.35-5.35 33.9-14.65 19.95-7.9 32.25-12.05l1.3 1.05q1 1.15.7 1.2-11.2 3.25-34.05 11.9-25.35 9.6-35.35 15m9.45-76.3q-4.45.75-3.05-.35 1.35-1.1 5.7-1.6 12.05-1.35 33.4-.15l35.6 2.95q.35.05-.1 1.35-.45 1.3-.8 1.25-25.2-3.2-44.95-4.05-18-.75-25.8.6M81.5 19.3q2.1 1.65 2.1 2.25-.05.65-2-.6l-3.9-2.05-3.8-1.8q-1.6-.65-1.25-1.25.3-.6 1.9-.2 3.2.75 6.95 3.65m4.8 5.65q-2.35-1.85-.9-1.6 1.5.2 4 2.3 6.7 5.45 20.7 20.15 12.4 13.05 18.05 19.95.25.25-.65 1.2-.85.95-1.1.7-6.9-8.35-19.65-22.15Q91.9 29.4 86.3 24.95M258.1 75.2q1.35-1.15 1.2-.2l-1.25 2.05q-1.15 1.3-3.6 2.95-1.5 1-2.25.9-.75-.1 1.15-1.7l4.75-4m-12.85 9.5q2.95-1.95 2.45-.75t-3.35 3.1l-18.65 12.5q-.25.2-.8-1.05-.5-1.2-.25-1.4l7.6-4.4 13-8m-35.8 58.9q-.35-.05-.1-.9.2-.8.55-.75 7.2 1.55 14.75 5.4 6.65 3.4 8.6 5.75.25.3-.55.45-.85.2-1.35-.3-3.4-3.1-10.5-6-5.65-2.3-11.4-3.65m-28.8-46.55q-8.55-3.25-11.5-4.05-1.4.25-12.95 5.25-11.5 5.05-12.95 6.05l-5.5 12.65q-4.85 11.5-4.9 12.65 0 1.35 2.95 13.5 2.85 11.8 3.45 13.35 1.7 1.1 20.15 7.7 18.5 6.65 22.75 7.7 1.8-1.1 17.8-16.65l4.85-4.65q.2-.75.2-5.05l-.3-13.55q-.3-7.9-.65-9.1-.5-1.7-4.55-10-3.95-8.15-4.7-9.2-3.3-2.45-14.15-6.6m-11.5-5.7q2.1.45 11.8 4.2 11.45 4.5 14.85 7.05l.15.15q.8.9 4.95 9.5 4.1 8.55 4.6 10.25.55 1.8.95 15.05l.1 7.8-.2 5.3-.45 1.05-4.95 4.95-13.1 13q-4.6 4.5-5.05 4.35-4.2-.95-24.45-8.2-20.05-7.15-20.55-8.15-.55-1-3.65-14.15-3.05-13.1-3.05-14.45 0-1.4 5.25-13.65l5.35-12.1q.4-.8 13.45-6.5 13.05-5.65 14-5.45m-42.25 42.8q-.55-3-.15-3.85.45-.85 1.05 1.75l5.35 21.4q1 4 .35 4-.7 0-1.9-4.2-3.6-12.6-4.7-19.1"/><path fill="#0d131a" d="M162.95 89.3q2.95-1.1 4-.9 1.1.2-.95 1.05-6.05 2.5-14.55 6.4-10.65 4.9-12.15 6.2-.45.5-4.75 10.4l-5.65 12.5q-1.35 2.5-1.45 1.6-.1-.9 1.25-4.2 8.35-20.9 9.25-21.75 1.45-1.3 11.65-5.75 8.05-3.5 13.35-5.55m7.45.15q-2.2-.6-1.2-1.05l3.2.2q5.45 1.65 11 3.8 6.25 2.4 9.6 4.3 2.2 1.25 2.65 2.25.4 1.05-1.75-.3-2.8-1.7-12.05-5.2-7.85-2.95-11.45-4m38.95 32.2q.3.65.65 10.6.45 10.95-.15 15.2-.35 2.55-.75 1.9-.35-.6-.35-3.15l-.1-11.65-.8-12.35q-.5-1.8-3.9-8.95l-4.4-8.8q-1.4-2.4-.45-2.15.9.25 2.35 2.75 2.8 4.75 7.9 16.6m-30.35 55q3.15 1.15 2.6 1.7-.6.55-3.85-.5-29.55-9.85-36.7-12.65-3.8-1.5-4.45-2.5l2.05-.1L179 176.65m18.1-9.5l-9.35 9q-1.7 1.45-2.2.85-.55-.6 1.1-2.05l10.2-9.8 8.9-8.85q1.55-1.8 1.7-1.05.1.75-1.35 2.6-1.4 1.85-9 9.3M169.85 98.4l1.9-.1q1 .45.15.95-10.5 4.8-13.2 6.55-6.3 15.45-7.3 18.55l2.45 5.1 2.9 6.15q1 2.4.75 3.1-.25.7-1.5-1.7l-6.1-12.25-.05-.55q.5-1.75 3.15-8.9l4.05-10.4.35-.55q2.5-1.6 12.45-5.95"/><path fill="#0d131a" d="M150.35 123.7q.3-.1.55.9.25 1-.05 1.1l-14 4.05-1.65-.1q.35-.6 2.25-1.35l12.9-4.6m-8.1-19.2q-.3-.05.85-.7l1.15-.65 14.45 1.25q.3.05-.2.75l-.75.65-11.4-.95-4.1-.35m26.95-9.3q-.3-.95.1-1.1.45-.25 1.1.8l1.35 3.05q3.05.8 9.25 3.2 5.8 2.2 8.35 3.45 1.95.9 2.35 1.75.4.85-1.55-.15-2.05-1.05-9.25-3.5-7.1-2.45-10.35-3.25l-1.35-4.25"/><path fill="#0d131a" d="M195.05 102.45q.15-.3.55.5t.2 1.1l-1.95 3.1q1.5 2.7 5.1 11.05l-.65.5-.9.05-2.4-5.55q-1.85-4.25-2.7-5.7-.25-.4.05-.85l2.7-4.2m-25.2 41.2l10.3 4q2.5 1.2 3 1.85l-1.95-.1-22.15-7.8-6.55 6.15-7.15 5.9q-1.7 1.3-2.6 1.25-.95-.05.7-1.35l8.05-7.15q5.65-5.25 6.35-6.45.3-.45.9-.3l11.1 4m23.05-1.05q1.6-1.4 2.1-1.15t-.9 1.7l-3.15 3.25-3.75 3.4-.9 6.8-1.15 7.85q-.35 3.4-.95 3.1-.6-.35-.25-3.75l1.25-14.4q0-.35.3-.6 2.1-1.5 7.4-6.2"/><path fill="#0d131a" d="M204.7 122.75q.3.2.3 1.05 0 .8-.25.6l-3.15-2.45-2.95-2q-.05 2.95-.85 10.4l-1 9.6 3.1 4.25 5.4 7.25-1.3.85-8.15-11.1q-.7-.95-.55-1.95 1.9-15.95 1.85-20.75.3-1.5 1.45-.8.7.45 6.1 5.05m-16.4-111.5q.45 3.65-.2 16.95-.7 13.75-1.95 24.35l-.25 1.95-1.95-.75q1.35-11.05 2.3-25.1.85-13.95.45-17.2-.7-4.8-1.75-7.25-.65-1.6.35-1.1.95.45 1.55 2.3 1.05 3.15 1.45 5.85"/></svg>