<svg xmlns="http://www.w3.org/2000/svg" width="371" height="417" viewBox="-0.45 -0.2 371.45 417.4"><path fill="#0d131a" d="M338.6 123.9q12.6 11.6 20.85 34.35 7.75 21.2 9.65 45.9 1.9 24.75-2.75 43.95-.45 2.05-.9 2.2-.5.1-1.4-1.85-17.1-39.5-34.8-58.55-17.3-18.6-34.05-16.5l-3.85-.15q-1.45-.75-2.2-4.2-3.6-16.4-11.2-24.6-5.65-6.1-10.65-5.8l-.3.05-.35 1.65-.95.95q-.1 2.85-.5 3.65-.7 1.35-3.55 2.6-2.6 3.55-5.4 6.35-5.5 5.5-9.95 3.35l-3.3-1.65q-1.95-1.2-3.2-3.1-2.65-4.05-1.45-13.55v-.05l-.15-.25.05-.25q1-7.5 3.85-14.6 2.8-7.1 5.55-9 5.55-3.85 8.3-4.45 1.9-.4 4.75.75l2.8 1.1q2.1.85 2.75.95 1 .1 3.1-.9l3.25-1.5q2.25-.95 4.15-.9 2.1.05 5.2 1.25 7.35 2.85 11.7 3.7 7.1 1.45 13.9-.05 16.95-3.75 31.05 9.15M.1 28.7q2.1-2.7 23.35 6.25 16.2 6.85 26.2 12.3 28.6 15.6 68.25 70.5 13.6 18.8 25.7 38.5 9.95 16.1 11.95 20.95l.65 1.6 2.05 5.55q.5 2.15-.3 3.3-.95 1.3-4 1.45l-9.15-.45q-7.05-.65-25.95-10.35-21-10.85-40.55-25.15L56.15 136.6q-11.4-9.05-18.65-16.95-17.8-19.4-22-45.3l-1.95-12.7-2.5-16.6Q9.55 38.6 5.8 34.6l-3.7-3.05Q-.45 29.4.1 28.7"/><path fill="#fff1ac" d="M16.9 34.2q12.85 5.25 32.2 15.85 28.45 15.5 67.8 69.3 13.55 18.5 25.55 37.75 9.9 15.85 11.85 20.6l.65 1.6 1.85 4.85q.6 2 .1 2.7-.65.9-3.7.95l-8.3-.45q-6.5-.6-24.35-9.65-21.2-10.75-41.45-25.65-23.2-17.1-38.2-34.85-19.75-23.35-23.4-45.8l-1.75-11.3q-1.8-12.3-3.05-16.25-1.7-5.7-5.9-10.2-1.8-1.9-1.8-2.6V31q.95-1.25 11.9 3.2"/><path fill="#dcd096" d="M12.7 43.85q-1.7-5.7-5.9-10.2-1.8-1.9-1.8-2.6V31q.95-1.25 11.9 3.2 12.85 5.25 32.2 15.85 28.45 15.5 67.8 69.3 13.55 18.5 25.55 37.75 9.9 15.85 11.85 20.6l.65 1.6 1.85 4.85q.6 2 .1 2.7-.6.75-2.65.9-12.2-11.75-31.6-35.05-23.7-28.45-31.6-37.1Q72.7 95.7 56.75 85 37.2 71.85 17.2 69.4l-1.45-9.3q-1.8-12.3-3.05-16.25"/><path fill="#0d131a" d="M4 29.9q2.5-2.3 20.7 6.05 11.15 5.15 25.15 12.8 29.45 16.1 66.2 65.2 13.75 18.4 25.45 37.4 10.25 16.65 14.15 25.8l.65 1.6 2.1 5.6q.55 2.2-.3 3.4-1 1.35-4.1 1.5l-9.25-.45q-.75-.05-1.35-1l-1.45-3.2q-5.65-13.35-15.2-28.05-17.9-27.6-50.6-63.85-13.8-15.35-34.2-32.9Q18.65 39.75 4.2 32.55l-.25-.1-.1-.25q-.75-1.4.15-2.3"/><path fill="#6cba5a" d="M17.45 34.6q12.65 5.25 31.6 15.6 28.45 15.5 67.75 69.25 13.5 18.5 25.5 37.7 9.9 15.85 11.85 20.6l.65 1.6 1.8 4.75q.65 2 .15 2.65-.6.85-3.65.9l-8.1-.45q-.3-.25-1.55-3.25-6-14.2-15.3-28.9-18.15-28.5-50.9-64.85Q63.65 75.1 43 57.85q-22.75-19-37.8-26.6v-.15q1.5-.95 12.25 3.5"/><path fill="#5da24d" d="M140.75 154.7q5.25 8.3 9.1 14.95 3.45 6 4.3 8.1l.65 1.6 1.8 4.75q.65 2 .15 2.65-.6.85-3.65.9l-8.1-.45q-.3-.25-1.55-3.25-3.05-7.3-6.2-13.3-6.1-11.55-15.45-25.1.95.5 8.75 3.4 5.3 1.95 10.2 5.75"/><path fill="#0d131a" d="M2.55 94.1q2.95-1.95 16.95 1.4 15.1 3.6 31.35 10.8Q66 113 95.65 141.6q22.95 22.1 37.7 39.75 1.2 1.4 1.45 3.9.25 2.9-1.05 5.25-2.1 3.7-5.45 5.3-5.25 2.5-14.7 1.05-34.8-5.35-60.4-25.5-27.4-21.65-36.85-54.95-1.5-5.25-3.95-8.65l-4.05-4.4-4.3-4.45q-3.1-3.7-1.5-4.8"/><path fill="#fff1ac" d="M20 97.95q13.35 3.5 30.6 11.1 15.1 6.65 44.4 34.3 23.35 22.05 37.35 38.85.85 1.05 1.1 3.1.3 2.45-.85 4.55-1.6 2.85-5.7 4.05-5.4 1.55-14.55.15Q79.4 189 55.15 168.7 30.9 148.35 18.4 115.4q-2.05-5.45-4.1-8.65-1.25-1.85-3.65-4.3L6.85 98q-.65-.9-.35-1.3Q8 94.85 20 97.95"/><path fill="#dcd096" d="M112.35 194.05q-13-2-25-6.55 16.85 2.65 10.75-14.25-6.35-17.65-38.55-59.2 16.2 10.55 41 34.65 20.25 19.65 31.8 33.5.85 1.05 1.1 3.1.3 2.45-.85 4.55-1.6 2.85-5.7 4.05-5.4 1.55-14.55.15"/><path fill="#0d131a" d="M163.75 52.3q6 12.5 7.55 20.75 3.3 17.3 6.3 57.4 3.65 48.25-1.55 51.6-1.1.7-2.35-.2-7.75-5.55-17.95-28.05-10.4-22.95-12.55-40.1-.95-7.9 2.3-26.85.9-5.3 5.85-29.55.65-2.95 1.35-10.75l.55-7.15q-.3-3.55 1.2-2.5l2.05 2.25q2.4 3 7.25 13.15"/><path fill="#fff1ac" d="M169.1 74.05q2.5 13.1 5.35 41.8 3.05 31.4 3.05 49.4 0 14.3-2.15 15.7-.35.2-.9-.2-7.25-5.2-16.8-27.7Q148.1 130.5 146 113.6q-.25-1.6-.25-4.45 0-9 2.9-26.35 1.65-9.9 5.1-26.7l1.8-9.45.2-4.55.1.1q2.2 2.75 6.5 12.2 5.2 11.5 6.75 19.65"/><path fill="#dcd096" d="M163.15 56.2q4.55 10.4 5.95 17.85 2.5 13.1 5.35 41.8 3.05 31.4 3.05 49.4 0 14.3-2.15 15.7-.35.2-.9-.2-3.6-2.6-8.35-10.6-4.45-7.55-8.85-18.05 4.45-26.2 5.95-47.75 1.85-25.55-.05-48.15"/><path fill="#0d131a" d="M170.55 46.15l4.6-9.1q3.25-6.5 6.15-14.15 3.7-9.8 4.3-15.45.45-4 1.1-5.7.6-1.65 1.7-1.75 2.15-.2 5.35 9.55 2.4 7.2 8.05 45.75 6.1 41.35 5.05 51.25l-1.45 5.25q3.5 31.2-5.95 54.9-7.15 17.75-17.35 24.3-3.35 2.2-5.75.95-2.85-1.5-2.95-7.3-.2-9.65-2.35-22.55-2.7-14.5-3.85-22.1-4.85-32.15-5.45-42.9-1.2-23.5 5-42.1 1.15-3.4 3.8-8.85"/><path fill="#fff1ac" d="M192.15 11.8q1.6 4.8 6.9 43.95 5.25 39.1 6 51.75l.3 9.85q0 27.25-8.65 49.25-7.1 18.05-15.3 23.3-2.8 1.75-4.45.9-2.1-1.2-2.2-6.15-.25-10.55-1.8-23.7l-3.25-23.15q-2.45-16.05-3.4-24.2-1.5-13.2-1.5-23.7 0-20.05 5.6-36.85 1.7-5.15 7.4-16.35l4.75-9.85q2.35-5.2 3.2-8.9l1.35-7.25q.95-6.15 1.6-6.7 1 .5 3.45 7.8"/><path fill="#dcd096" d="M180.65 30.9q4-8.2 5.1-12.95l1.35-7.25q.95-6.15 1.6-6.7 1 .5 3.45 7.8 1.6 4.8 6.9 43.95 5.25 39.1 6 51.75l.3 9.85q0 27.25-8.65 49.25-7.1 18.05-15.3 23.3-2.8 1.75-4.45.9-2.1-1.2-2.2-6.15-.3-15.05-3.85-38.85 9.15-32.45 12.05-58 3.7-32.75-2.3-56.9"/><path fill="#0d131a" d="M186.95 4.1q.6-1.65 1.75-1.65 1 .05 1.95 1.7 1.2 2 2.9 7.2 1.75 5.3 7.05 44.9 5.2 38.85 5.95 51.15 1.2 20.3-2.5 38.95-2.6 12.95-7.15 23.65l-.75 1.65-.75-1.6q-5.95-12.25-7.1-44.25-.7-18.85.45-60.75.75-27.3.6-38.1-.2-17.35-2.4-22.2l-.1-.3.1-.35"/><path fill="#6cba5a" d="M188.7 4.2q1.05.95 3.3 7.65 1.6 4.8 6.9 43.9 5.25 39.1 6 51.75l.3 9.75q0 15.85-3.1 30.5-2.3 10.75-6 19.85-3.45-8.35-4.5-25-.65-10.15-.65-34.5l.1-75.95q0-21.6-2.45-27.7l.1-.25"/><path fill="#e5e5e5" d="M359.9 192.35q-14.1-25.95-21.45-33.95-8.6-9.4-21.35-10.55-12.25-1.05-16-2.1-4.45-1.3-9.85-5.75-5.55-4.6-9.9-7-6.35-3.55-11.7-3.4l-.75.05q1.15-2.2 2.65-3.3 4.05-3 12-1.3 3.7.8 8.5 2.9 2.65 1.15 7.55 3.6l3.4 2.5q1.25 1.15 1.95 1l3.05-1.5q2.55-1.35 4.75-1.4 5.75-.05 11 2.05 6.25 2.45 10.05 7.45 17.4 22.85 26.1 50.7"/><path fill="#e5e5e5" d="M342 166.05q4.5 5.8 10.15 15.45l9.5 16.55q3.95 13.75 4.7 24.15.65 10.15-1.35 23.4-17.45-44.05-38.2-62.5-16.65-14.8-33.85-12.1-.25.05-1.85-5-2.15-6.7-4.3-11.3-7.75-16.65-19.6-17.4l-.15.05v-.1q.1-3.65 1.55-7l1.35.05q3.55-.3 9.65 3.15 5.55 3.15 11.3 8.2 5 4.4 9.2 5.7 3.85 1.2 14.25 1.8 15.15.95 27.65 16.9"/><path fill="#c8c9ca" d="M333.8 141.65q6.85 8.95 12.55 19.1-14.3-13.35-27.15-18.35-13.95-5.45-26.65-1.35l-1.3-1.05q-5.55-4.6-9.9-7-6.35-3.55-11.7-3.4l-.75.05q1.15-2.2 2.65-3.3 4.05-3 12-1.3 3.7.8 8.5 2.9 2.65 1.15 7.55 3.6l3.4 2.5q1.25 1.15 1.95 1l3.05-1.5q2.55-1.35 4.75-1.4 5.75-.05 11 2.05 6.25 2.45 10.05 7.45"/><path fill="#c8c9ca" d="M269.95 130.3q3.55-.3 9.6 3.15 5.55 3.1 11.3 8.2-4.55 1.65-8.95 4.65-6.35-8.45-14.7-9l-.15.05v-.1q.1-3.65 1.55-7l1.35.05"/><path fill="#0d131a" d="M241.1 130.35l.35-2.35 1.15 2.05q1 1.65 2.6 5.75 1.8 4.6 3 6.5 1.9 3.05 3.85 2.85l3-1.85q2.75-1.95 4.45-2.7 2.85-1.3 5.65-1.05l-1.2 3.4q-1.45 3.65-2.85 4.6-.7.5-2.3 2.05l-2.35 2.3q-2.9 3.15-4.9 4.35-2.45 1.45-5.4 1.2-3.65-.4-6.5-4.85-4.25-6.8-3.7-11.65.3-2.85 3-6.55 1.95-2.6 2.15-4.05"/><path fill="#5da24d" d="M237.5 142.1q0-1.85.7-3.4l.15.2q2.7 4.65 5 7 1.5 1.55 3.5 2.55 2 1 3.5.75 2.25-.4 5.15-3.5 1.15-1.25 3.9-2.2l4.35-1.35q-.5 1.35-1.5 2.35l-2.1 1.7q-2.25 1.6-3.35 2.8-3 3.3-5.15 4.85-3 2.15-5.35 1.95-2.85-.3-5.25-4.1-3.55-5.65-3.55-9.6"/><path fill="#6cba5a" d="M325.05 132.4q-6.2-2.7-12.3-2.3-2.4.15-4.7.95-2 .65-2.7 1.3-.25.25-7.05-3.3-8.3-4.35-14.35-5.95-7.95-2.05-13.4 1.9-2.55 1.95-3.7 4.3-1.25 2.5-1.3 6.35-.05 1.45-.7 2.7-.6 1.1-1.35 1.45l-3.85 1.65q-3.5 1.6-5.2 2.95l-3.35 2.35q-5.85.75-11.2-8.4 1-7 3.65-13.75 2.65-6.8 5.05-8.45 4.85-3.4 8.45-3.6 2.15-.15 5.4 1.15 2.3.9 3.65 1.05l3-.25 2.9-1.05q2.85-1.1 4.35-1.35 2.55-.4 5 .55 8.15 3.15 10.7 3.75l13.2.5q9.1-1.35 14.7-.3 11.65 2.2 20.45 13.15 15.15 18.9 22.45 47.65 5.05 19.9 5.05 36.65l-.05.85q-4.75-22.8-9.5-35.15-7.45-19.4-22.35-38.95-4.2-5.5-10.95-8.4"/><path fill="#5da24d" d="M239.9 138.35q.7-4.7 2.05-9.1l1.15.25 7.7 4.3q3.95 2.35 6.35 1.6 1.25-.4 4.45-2.95 3.65-2.9 5.75-4-1.75 2.8-1.8 7.2-.05 1.45-.7 2.7-.6 1.1-1.35 1.45l-3.85 1.65q-3.5 1.6-5.2 2.95l-3.35 2.35q-5.85.75-11.2-8.4"/><path fill="#0d131a" d="M220.05 345.4q.7-.6 1.45-.3l.3-.75q18.2 6.6 24.4 19.8l1.6 3.75-2.35.15-10.25-2.8q-8.15-2.15-11.45-2.7l-3.75-.7q-.8-.3-1.15-2.2-.6-3.05-.4-7.7.2-5.35 1.6-6.55"/><path fill="#eeeeef" d="M219.75 353.85q0-5.7 1.05-7.3.1-.2.25-.2 6.1 2.25 11.4 5.75 8.85 5.9 12.4 13.7-8.15-2.55-20.85-4.55l-3.45-.65q-.8-.95-.8-6.75"/><path fill="#c8c9ca" d="M230.65 350.95q3.6 5.65 10.1 13.7-5.9-1.55-16.75-3.4l-3.45-.65q-.8-.95-.8-6.75 0-5.7 1.05-7.3.1-.2.25-.2 4.75 1.65 9.6 4.6"/><path fill="#0d131a" d="M148.3 342.75q-2.7-1.35-2.5-2.9 1.05-3.05 1.7-6.6.7-3.75.9-14.9.2-8.25.45-11.3.45-5.15 1.55-6.7 1.15-1.65 4.5-2.8 2.95-1 6.45-1.3l5 .55q3.35.7 5.95 1.9 2.7 1.25 2.95 5.4.1 2.3-.45 4.55 5.1 2.05 8.7 5.85 3.9 4.15 7.35 11.55 1.75 3.75 8.2 6.85 5.25 2.55 11.75 3.95l.8.2q6.85 1.45 9.45 3.7 4.4 3.9 4.4 13.35l-.4 1-.4 1q-.25 8.2-12.95 14-10.25 4.7-18.5 4.75l-3.4.5-8.6-.45q-5.35-.95-7-3.95-11.7-20.65-17.15-24.1l-8.75-4.1"/><path fill="#6cba5a" d="M150.45 307.85q.4-5.3 1.25-6.55.85-1.2 3.65-2.15 2.75-1 6.15-1.25l5.9.25q2.55.5 3.7 1.7 1.7 1.7 2.15 4.2.5 2.8-1.05 4.9-3.9 5.4-2.4 5.15 1.2-.25 4.2-3.3 3.15.95 7.85 6.45 4.3 4.95 7.2 10.3 2.55 4.65 10.15 8.05 4.65 2.05 10 3.2l.8.15q6.85 1.45 9.3 3.75 4.05 3.8 3.7 13.35-.25 7.05-13.25 12.35-10.65 4.3-18.95 4.4h-1.6l-7.05-.3q-3.85-.7-5.2-3.2-2.55-4.8-5.95-10.05-6.7-10.5-11-13.2l-4.85-3q-3.95-2-5.05-3.4-1.75-2.15-1-6.1.45-2.35.7-6.8l.25-8.35q.15-7.25.4-10.55"/><path fill="#5da24d" d="M160 346.05l-4.85-3q-3.95-2-5.05-3.4-1.75-2.15-1-6.1.45-2.35.7-6.8l.25-8.35q.1-5.95.35-9.95 2.85 2.5 10.3 6.2 5.65 2.85 6.4 5.3 4.3 13.85 12.6 20.9 6.15 5.15 15.45 7.2l13.2 2.3q5.7 1.55 5.9 6.2.35 7.35-8.85 12.25-7.45 3.95-14.6 4h-1.6l-7.05-.3q-3.85-.7-5.2-3.2-2.55-4.8-5.95-10.05-6.7-10.5-11-13.2"/><path fill="#0d131a" d="M161.95 312.15q-3.55 0-6.15-3.65-2.4-3.4-2.4-7.4 0-3.75 2.6-6.4 2.65-2.7 6.35-2.7 3.7 0 6.35 2.7 2.65 2.65 2.65 6.4 0 3.9-2.85 7.4-2.95 3.65-6.55 3.65"/><path fill="#dcd096" d="M154.7 301.1q0-3.2 2.25-5.5 2.25-2.25 5.4-2.25 3.2 0 5.4 2.25 2.25 2.3 2.25 5.5t-2.25 5.45q-2.2 2.3-5.4 2.3-3.15 0-5.4-2.3-2.25-2.25-2.25-5.45"/><path fill="#0d131a" d="M212 349.7q.8-.65 2.4-.85l2.5.15q5.6 2.25 12.1 8.55 7.85 7.55 10.85 15.85 1 2.9.7 3.65-.3.65-1.95 0-2.1-.85-13.75-4.25l-15.3-4.5-1.25-2.45-.4-.85-.4-1q0-3.55 1.15-7.8 1.35-4.85 3.35-6.5"/><path fill="#eeeeef" d="M209.8 366.25q-.3-.35-.3-1.8 0-2.65.8-5.95.9-3.9 2.4-6 1.55-2.2 3.05-1.45 5.25 2.05 12.1 8.7 8.15 7.85 10.3 15.35-5.5-2.2-13.95-4.6l-11.15-3.2-3.25-1.05"/><path fill="#c8c9ca" d="M212.7 352.5l.35-.5q8.7 7 12.7 11.05 4.9 5 7.1 9.7l.45.55q-4.5-1.55-11.35-3.45l-8.9-2.55-3.25-1.05q-.3-.35-.3-1.8 0-2.65.8-5.95.9-3.9 2.4-6"/><path fill="#0d131a" d="M193.5 359.95q1.55-2.3 3.4-2.45 1.75-.15 4.6 1.5 4.55 2.7 9.7 7.45 6.1 5.6 10.1 11.6 1.9 2.8 1.65 3.7l-2.65-.05q-1.45-.55-15.2-3.75-13.3-3.15-14.55-3.35l-.65-.3-.65-.75q-.45-1.4.9-6 1.45-4.75 3.35-7.6"/><path fill="#eeeeef" d="M191.85 372.7q0-2.15 1.2-6.05 1.35-4.6 3.1-6.45 1-1.1 1.85-.75 3.7 1.45 11 7.8 8.35 7.25 10.6 12.5-7.6-2.85-17.5-4.9l-10.2-1.75-.05-.4"/><path fill="#c8c9ca" d="M198.4 374.15l-6.5-1.05-.05-.4q0-1.95 1.05-5.6 1.2-4.3 2.8-6.4 7 5.3 8.7 6.9 4.5 4.3 5.75 9.15-5.5-1.45-11.75-2.6"/><path fill="#0d131a" d="M146.6 295.45q-5.05-5.9-4.5-18.7.5-11.55 5.1-23.4 3.35-8.5 7.55-13.5 4.25-5.05 8.45-5.55 5-.6 9 5.2 1.95 2.75 8.3 8.2l4 3.05q2.55 1.85 3.6 3.05 3.85 4.25 6.5 13.45 3.25 11.2.6 19.4-2.4 7.6-10.8 13.1-8.95 5.9-19.35 5.55-10.35-.4-18.45-9.85"/><path fill="#6cba5a" d="M148.75 253.95q3.05-7.9 7.05-12.75 3.9-4.85 7.6-5.3 4.05-.45 7.45 4.5 2.05 2.9 8.6 8.55 4.55 3.85 6.55 6.1 3.45 3.85 5.85 12.55 2.9 10.3.7 17.8-2.15 7.3-11.8 13.15-8.85 5.3-15.65 5.1-9.65-.3-17.25-9.25-4.7-5.5-4.05-17.95.55-11.3 4.95-22.5"/><path fill="#5da24d" d="M147.85 294.4q-4.7-5.5-4.05-17.95.55-11.3 4.95-22.5 3.05-7.9 7.05-12.75 3.9-4.85 7.6-5.3 4.05-.45 7.45 4.5 2.05 2.9 8.6 8.55l1.1.95q-5.8 5.6-9.4 13.35-3.45 7.5-3.9 15-.45 7.65 2.45 13.15 3.1 5.9 9.6 7.95-3.75 2.1-7.6 3.25-3.8 1.15-6.6 1.05-9.65-.3-17.25-9.25"/><path fill="#0d131a" d="M134.3 221.9q15-5.25 24.15-4.35 6.95.65 10.05 4.75 2.8 3.75 2.75 9.6-.05 5.4-2.2 8.45v1.45q-2.8 4.1-3.45 5.6-1.85 4.1-1.7 9.8.05 1.1.8 4.8l1.4 7.9q2.45 15.8.9 29.25-1.9 16.05-9.65 29.95-9.9 17.8-24.7 27.35-14.65 9.5-33.4 10.5-2.95.15-4.9-1.5-5.5-4.9-7.45-25.25-1.45-15.55-.7-38.7-.05-10.7.35-17.6.7-12.5 4.1-22.2 9.75-28 43.65-39.8"/><path fill="#6cba5a" d="M157.85 219.05q6.55.5 9.35 4.25 2.3 3.05 1.4 8.6-.8 4.7-3 7.85-2.1 2.9-3.1 9.75-1.05 7.25.05 13.35l.4 2.1q2.7 14.15 2.25 24.85-.75 19.7-10.5 37.15-9.75 17.5-22.75 26.45-13 9-32.95 11.95-1.95.3-3.55-1.15-4.5-3.95-6.45-20.15-1.95-16.15-1.15-42.5.8-26.65 8.65-43.75 11.35-24.9 38.35-34.35 14.35-5.05 23-4.4"/><path fill="#5da24d" d="M134.85 223.45q14.35-5.05 23-4.4 6.55.5 9.35 4.25 2.3 3.05 1.4 8.6-.8 4.7-3 7.85-.65.95-1.3 2.55-17.8 4.5-32.8 23.35-13.2 16.65-20.6 39.3-7.05 21.6-5.45 37.5 1.75 16.9 12.75 18.1-8.65 3.25-19.2 4.8-1.95.3-3.55-1.15-4.5-3.95-6.45-20.15-1.95-16.15-1.15-42.5.8-26.65 8.65-43.75 11.35-24.9 38.35-34.35"/><path fill="#0d131a" d="M99.05 273.35l.95-.4q2.6 6.15 13.55 13.1 11.55 7.35 18.85 6.2 4.45-.75 11.7-3.6l7.55-2.95q4.3-1.4 7.65-.9 3.05.45 5.3 3.25 1.15 1.4 1.7 2.8l-.4 2.95q-.65-1.65-1.8-3.35-2.3-3.45-5-3.85-3.3-.5-7.3.5-2.3.6-7.3 2.5l-6.4 2.75q-4.2 1.75-6.9 2.2-7.55 1.2-18.85-6.95-10.45-7.55-13.3-14.25m53.15 59.75l-.75 1q-21.6 10.3-38.8 1.25-13.8-7.3-21.1-24.05l.95-.4q6.8 15.6 21.35 22.6 17.2 8.25 38.35-.4m18.85-162.35q8.85-4.45 12.05-3.8 3.9.85 9.85 6.8 5.95 6 9.9 13.1 7.25 12.85 4.1 21.85l-1.45 4.15q-4.75 14.4-7.9 19.9-6.05 10.75-14.65 11.5-9.1.8-15.85 3.3-4.9 1.85-9.35 4.95l-5 3.55q-2.7 1.55-4.95.65-9.65-3.85-15.15-16.9-5.45-12.8-4.2-28 .6-7.15 9.85-16.9 5.95-6.25 14.35-12.55 9.6-7.15 18.4-11.6"/><path fill="#fff1ac" d="M201.7 187.5q4.85 8.6 4.85 15.45 0 2.95-.9 5.35l-1.4 4.15q-4.35 13.1-7.8 18.9-5.95 10-14 10.7-9 .8-16.15 3.9-4.05 1.8-9.35 5.45-3.1 2.2-4.4 2.75-2.05.8-4 .05-9.35-3.75-14.65-15.7-5.3-11.95-4.1-26.6.45-5.5 6.65-12.95 6.2-7.5 17-15.55 9.6-7.15 18.4-11.55 8.25-4.15 10.95-3.6 3.45.75 9 6.25 5.9 5.85 9.9 13"/><path fill="#dcd096" d="M171.85 171.85q8.25-4.15 10.95-3.6 3.45.75 9 6.25 5.9 5.85 9.9 13 4.85 8.6 4.85 15.45 0 2.95-.9 5.35l-3.35 9.9q-4.15-1.65-10.9-.95-7.35.8-13.9 4.1-17.05 8.6-17.25 27.85l-3.3 2.2q-3.1 2.2-4.4 2.75-2.05.8-4 .05-9.35-3.75-14.65-15.7-5.3-11.95-4.1-26.6.45-5.5 6.65-12.95 6.2-7.5 17-15.55 9.6-7.15 18.4-11.55"/><path fill="#0d131a" d="M152.55 243.7l-.85-.65q-.45-.35-.45-.75 0-2.1 3.25-7.15 4-6.25 8.65-7.45l.35-.05.25.15q4.85 3.05 13.95 3.65 9.1.55 13.15-1.95l4.5-.1q1.15 1.9-1.6 5.5-3.1 4.05-9.55 8.1-8.2 5.15-18.3 4.8-8.85-.3-13.35-4.1"/><path fill="#6cba5a" d="M156.15 235.65q3.45-5.15 7.15-6.25 5.55 4.25 15 4.35 8.6.1 13.4-2.85l1.6-.7.65.05q.6 1-1.75 3.95-2.95 3.7-8.85 7.4-7.95 4.95-19.2 3.65-8.25-1-11.2-3.2.5-2.4 3.2-6.4"/><path fill="#0d131a" d="M204.3 193.25q.9-1.6 1.75-1.4 1.25.3 1.35 3.45.2 5.3-2.35 19.25-6.55 35.9-30.15 40.95-1.75.35-.2-3.5 1.65-4 5.3-8.3 1.55-1.8 10-17.8 8.9-16.75 10.1-20.95 2.55-8.85 4.2-11.7"/><path fill="#6cba5a" d="M201.65 205.4q2.15-7.35 3.7-10.65-.2 4.35-2.75 18.6-5.65 30.9-24.3 38.75-2.55 1.05-1.5-1.05.7-1.5 4.1-6 4.5-6 12.25-21.15 7.2-14.1 8.5-18.5"/><path fill="#0d131a" d="M206.95 113.85q5.3 2.55 8.8 15.2 3.1 11.05-12.55 33.1-5.2 7.3-11.65 14.7-4.95 5.65-6.85 7.25-4.75 4.05-6.1 8.5-1.3 4.35.95 7.7 1.65 2.5 1.4 5.95-.3 4.05-3.35 11.9-5 12.85-15.45 23.4-10.9 11.1-19.45 10.75-6.6-.25-13.3-14.25-5.05-10.55-6.5-18.55-.55-3.35 2.7-11.4 2.1-5.1 7.75-16.4 1.6-3.25 3.8-9.3l3.35-8.95q3.6-8.6 10.5-11.45 2.7-1.15 10.3-1.85l3.1-.4q3.05-.85 7.8-6.85 4.6-5.8 5.65-9.7 1.1-4.05-2.55-15.15l-6.65-18-2.75-7.45q-.75-2-.5-2.35l.2-.4.4-.05q2.15-.25 25.1 15.05 1.1.7 3 .7 1.85-.05 3.6-.75 2.9-1.25 4.45-1.5 2.6-.5 4.8.55"/><path fill="#6cba5a" d="M214.2 129.5q2.9 10.35-12.5 31.9-5.1 7.15-11.45 14.4-4.9 5.6-6.6 7.05-4.5 3.8-6.3 7.25-2.5 4.8-.6 9.95l.1.2q1.85 4.95 1.65 7.25-.2 2.85-3.4 10.7-3.85 9.4-13.4 19.6-10.8 11.45-18.35 11.15-5.55-.2-12.05-12.15-5.45-10.1-6.8-17.6l-.05-.95q0-3.3 3.25-10.9 1.95-4.55 7.1-14.95 5.95-11.95 8-16.95 3.45-8.15 9.3-11.3 3.35-1.8 9.35-2.35l3.35-.5q3.65-.95 8.6-5.8 5.05-4.95 6.15-8.95.35-1.1.35-2.95 0-5.6-3.1-16.2-2.35-8.15-5.9-17.2l-2.05-4.7q-.9-2.2.15-2.25 2.6-.1 22 13.75 1.4 1.05 3.5.65l3.8-1.35q2.7-1.1 4-1.4 2.2-.45 3.95.4 4.6 2.25 7.95 14.2"/><path fill="#5da24d" d="M206.25 115.3q4.6 2.25 7.95 14.2 2 7.25-5.1 20.3-5.35 9.75-14.9 21.4-4 .35-17.75-.3-10.7-.5-16.25 1.25-6.55 2.35-4.45 16.65l2.05 12q1.05 6.95.4 10.75-1.55 7.75-10.1 17.65-8.65 10.05-10.25 16.85-4.4-4.3-8.7-13.55-3.7-8.05-4.65-13.3l-.05-.95q0-3.3 3.25-10.9 1.95-4.55 7.1-14.95 5.95-11.95 8-16.95 3.45-8.15 9.3-11.3 3.35-1.8 9.35-2.35l3.35-.5q3.65-.95 8.6-5.8 5.05-4.95 6.15-8.95.35-1.1.35-2.95 0-5.45-2.95-15.8-2.3-7.9-5.75-16.95.05-.85 2.5.4l5.7 3.3q8.85 4.9 11.2 2.15l.4.3q1.4 1.05 3.5.65l3.8-1.35q2.7-1.1 4-1.4 2.2-.45 3.95.4"/><path fill="#0d131a" d="M170 161l5.35 1.8 4.4 1.15.95.7q12.7 1.5 27.05 11.2 14.2 9.6 15.2 17.1 1.85 13.6-2.9 27.4-.85 2.45-2 4.45-1.3 2.15-2.35 2.6-1 .45-4.25-1.1-3.85-1.9-5.3-2.05-7.1-.75-10.75-.25-2.45.35-3.75-3.85-.65-2.05-2.85-14.2-1.5-8.5-4.25-12.35-2.05-2.9-6.95-5.5l-2.2-1.05q-1.15-.6-1.2-1.15-.1-.65.7-1.45l1.45-1.2 2-1.5q.9-.8.5-1.7-2.05-4.7-7.8-8.5-3.15-2.1-10.3-5.4-4-1.85-6.3-3.85-1.6-1.45-2-2.5-.6-1.7 6.95-.9 7 .75 10.6 2.1"/><path fill="#6cba5a" d="M179.85 166.9q12.7 1.55 26.9 10.8 13.7 8.95 14.6 15.45.8 5.95-.05 13.05-.9 7.1-3.25 14.15-1.3 3.75-2.7 4.4l-2.25-.05-3.15-1.2-1-.4q-1.9-.8-5.95-1.25-4-.45-6.3-.1-1.7.25-3.3-5.15-1.1-3.65-2.6-12.05-1.6-8.85-4.6-12.7-1.95-2.5-7.3-5.35l-1.1-.75-.2-.25.95-1q2.2-1.8 2.2-3.55 0-.8-.4-1.55-2.3-5.2-7.5-9.2-3.85-2.95-10.1-5.8-4-1.85-5.4-2.9l3.45-.1h.5q2.75 0 10.65 3.05 6 2.25 7.9 2.45"/><path fill="#5da24d" d="M171.95 164.45q6 2.25 7.9 2.45 12.7 1.55 26.9 10.8 13.7 8.95 14.6 15.45.85 6.35-.15 13.7l-9.8 4.2q-5.85 2.55-10.25 2.05-1.1-1.25-2.85-2.35-3.5-2.15-6.6-1.3l-.9-4.9q-1.6-8.85-4.6-12.7-1.95-2.5-7.3-5.35l-1.1-.75-.2-.25.95-1q2.2-1.8 2.2-3.55 0-.8-.4-1.55-2.3-5.2-7.5-9.2-3.85-2.95-10.1-5.8-4-1.85-5.4-2.9l3.45-.1h.5q2.75 0 10.65 3.05"/><path fill="#0d131a" d="M187.55 175.9l1.75-.1q4.5 1.8 17.65 14.9 13.1 13.05 13.1 15.8 0 3-1.15 7.7-.9 3.7-1.8 5.9-1.1 2.5-1.85 2.75-.9.25-2.3-.7l-2.5-1.95q-1-.7-5.05-1l-5.6-.25q-1.7-.1-2-3.25l-.15-6.95-.35-5.25q-.8-5.65-3.95-12.25l-4.95-9.45-.5-3q-1-2.15-.35-2.9"/><path fill="#ed8599" d="M191.5 178.3q6.35 4.5 16.9 15.35Q219 204.5 219 206.5q0 2.7-1.2 7.35-.95 3.9-2 6.4l-.75.8q-1.15.35-4-1.65-1.7-1.25-10.3-1.75-1.1-.05-1.6-3.05-.3-1.6-.5-5.9l-.35-5.35q-.85-5.95-3.35-12.2-1.35-3.45-4.4-9.4l-1.7-3.35q-.55-1.15-.55-1.7v-.1q.85 0 3.2 1.7"/><path fill="#ce7486" d="M194.95 191.15q-1.35-3.45-4.4-9.4l-1.7-3.35q-.55-1.15-.55-1.7v-.1q.85 0 3.2 1.7 5.85 4.15 15.75 14.15 9.8 9.85 11.5 13.25-7-.9-11.45.25-6.1 1.65-8.35 7.15l-.3-4.4-.35-5.35q-.85-5.95-3.35-12.2"/><path fill="#0d131a" d="M214.1 205.9q1-.3 2.85.7 1.7 1 2.9 2.4 1.75 2.05.95 3.6-.95 1.8-2.65 2.75-1.05.6-4.5 1.85l-1.35.5q-.25.05-.15-.4.65-3.45.45-7.5l-.35-3.35q.05-.3.8-.4l1.05-.15"/><path fill="#eeeeef" d="M214.45 206.85q.55-.15 2 .65 1.55.9 2.65 2.15.9 1.15.9 1.95l-.1.5q-.65 1.25-3.05 2.55l-3.5 1.5q.55-2.05 1-9.15l.1-.15"/><path fill="#c8c9ca" d="M213.7 214.05l.65-7.05.1-.15q.55-.15 2 .65 1.55.9 2.65 2.15.9 1.15.9 1.95l-.1.5q-.65 1.2-2.9 2.45-1.55-1.15-3.3-.5"/><path fill="#0d131a" d="M187.45 83.85q1.1-1.25 9.45 2.1 4.4 1.7 11.6 8.15 7 6.35 8.85 10.05 2 4.1 4.35 7.3 3.95 5.4 7.85 6.85 6.9-3.45 10.85-6.55 2.1-1.6 8.5-5.1 6.15-3.35 7.3-3.65 2.95-.7-.1 9.7-2.5 8.5-5.65 15-1.65 3.3-2.8 8.2-1.15 4.95-1.15 8.75 0 1.95 1.2 4.95l.85 2.3q.4 1.35.4 2.65 0 2.05-.85 5.05l-1.9 5.9q1.2.9 1.7 2.9.6 2.35.45 3.8-.25 3.2-1.5 6.2l-2.45 4.55q-1.55 2.3-1.8 7.9-.15 3.1 0 8.6v2.4q0 3.95-5.8 10.65l-7.3 7.35q-1.75 1.65-3.6 2.4t-3.3.45q-.75-.15-1.25-1.5l-.65-2.25q-.9-2.55-4.85-5.95l-5.9-4.5-.8-.55q-2.55-1.85-3.35-2.85-1.5-1.85-1.6-4.65-.2-5.1-8.25-12.3-3.25-2.95-10.8-6.5-2.5-1.2-10-4.35-2.35-1-3.15-2-.7-1-.7-2.95 0-1 2.4-8.15 2.3-7 2.1-9.7l-.15-2.1-.35-1.55q-1.5-3.4-7.7-9.45L156 130.7q-3.8-3.8-6.25-5.65-5.35-4.1-6.95-6.7-2.3-3.9 4.7-3.4 6.9.5 14.7 2.35l11.3 3.1q5.9 1.65 13.25 1.65 6.85-.05 7.8-1.25 1-1.4-.55-14.05-1.65-13.05-3.75-16.8l-2.3-3.7q-1.05-1.8-.5-2.4"/><path fill="#6cba5a" d="M197.15 88.35q3.7 2.25 10.6 8.8 7.35 6.95 8.95 10.1 2.5 5.05 4.7 7.65 4.7 5.5 11.4 6.7l1.5-.15q.1-.35-1.15-.9l-1.55-.95-.4-.45 3.95-2.1 5-2.65 8.85-5.15q5.1-2.9 5.25-2.3.25.85-1.75 8.5-2.15 8.3-4.05 12.2-1.6 3.4-2.6 8.2-1 4.7-1 8.8 0 3.7.85 5.85.8 2.15.8 4.7 0 1.95-2.05 8.4l-2.55 7.45q-.5 1.3-.25 1.5l.85-.8 2.65-4.05.7.6.35 1.05.2 2q0 2.55-1.1 5.75-.95 2.9-2.3 4.95-3.1 4.8-3.1 16.25l.05 2.5q0 3.1-4 8.5-3.05 4.1-7.1 7.95-3.1 2.9-5.2 2.45-1-.2-1.4-1.35-.85-2.05-4.55-5.7-2.95-2.85-5.65-4.85l-.8-.6-3.15-2.75q-1.45-1.75-1.55-4-.1-3.1-3-6.85-2.1-2.75-6.5-6.7-5.65-5.1-19.7-11-3.2-1.35-3.2-4.85 0-2.4 1.7-6.75 1.15-2.95 1.5-7.4.35-4.65-.55-6.7-1.65-3.7-7.3-9.65-3.3-3.45-11.4-10.95l-4.85-4.5-5.7-5.7q-1.5-2.35 2.85-2l9.4 1.2q4.85.95 13.25 3.35 5.3 1.55 13.1 1.4 7.45-.1 9.65-1.5 1.8-1.1.65-13.7-1.05-11.2-2.3-15.2-.45-1.5-2.2-4.6-1.05-1.85-.2-1.85 1 0 2.85.7 1.55.55 2.55 1.15"/><path fill="#5da24d" d="M194.15 92.95l-1.85-4q-1.05-1.9-.95-2.25 7.6 8.45 11.95 18.55 4.95 11.45 1.95 17.75-.7 1.45-4.5 1.65l-6.8-.65-2.75-1q3.4-.4 4.6-1.15 1.8-1.1.65-13.7-1.05-11.2-2.3-15.2m2.9 93.95q-5.65-5.1-19.7-11-3.2-1.35-3.2-4.85 0-2.4 1.7-6.75 1.15-2.95 1.5-7.4.35-4.65-.55-6.7-1.65-3.7-7.3-9.65-3.3-3.45-11.4-10.95l-4.85-4.5-5.5-5.45q-1.7-2.3 1.6-2.3-.75.65.6 1.4 1.5.75 6.85 2.5 25.5 9.75 41.55 30.9 15.4 20.25 19.2 47 .7 5.1 3.65 6.6l2.05.95q1.05.6 1.35 1.8l1.25 6.35q.75 3.5 1.75 3.45-2.35 1.8-3.95 1.4-1-.2-1.4-1.35-.85-2.05-4.55-5.7-2.95-2.85-5.65-4.85l-.8-.6-3.15-2.75q-1.45-1.75-1.55-4-.1-3.1-3-6.85-2.1-2.75-6.5-6.7m8.55-40.8q-2.5-2.15.5-2 2.9.15 7.05 2.05 5.1 2.35 7.55 9.95 3 9.45-4.2 17.5-1.2 1.35-1-.25l.55-6.15q0-12.15-10.45-21.1m33.4-25.15q-2.55.85-5.25.7.7-.05.5-.35-.15-.35-1.1-.75l-1.55-.95-.4-.45 3.95-2.1 5-2.65 7.45-4.3q4.55-2.65 5.9-3.15-2.4 3.8-6.6 7.5l-7.9 6.5"/><path fill="#0d131a" d="M200.65 181.4q-8-7.25-9.95-10.35-1.5-2.35-1.05-9.7.35-6.1 1.5-10.7.25-1 .7-1.4l.8-.55.6-.35.45.5q9.3 9.8 14.7 26.2 1.8 5.35 2.75 10.35.85 4.2.55 4.1-2.65-.55-11.05-8.1"/><path fill="#fff" d="M193.15 171.35q-1.3-2-1.3-8.7 0-3.6.4-7.1.35-3.4.9-4.85 7.15 7.75 12.4 20 3.7 8.75 5.2 16.25-2.6-1.05-9.15-6.9-6.65-5.85-8.45-8.7"/><path fill="#dbdcdc" d="M200.65 166.9q-3.95-5.35-8.55-9.75.45-4.85 1.05-6.45 5.5 5.95 9.9 14.7 3.45 6.8 5.8 14.35-4.3-7.6-8.2-12.85"/><path fill="#0d131a" d="M204.2 165l.25.5q3.2 6.5 5.5 13.8 1.6 5.15 2.2 8.5l.05.25-.25.1q-1.45 1-8.8-5.1l-.05-.05-.05-.1q-3.1-5.15-2.55-10.3.5-4.45 3.35-7.2l.35-.4"/><path fill="#0d131a" d="M207.3 174.05v9.35q.85-.9 2.55-1.65 1 3.35 1.4 5.75-1.65-.15-7.5-5.05-1.9-3.5-1.9-8.3 0-5.05 2.2-7.7l3.25 7.6"/><path fill="#fff" d="M207.75 181.9q-.6-.9-.6-2.4l.5-3.6 2 5.45q-.8 2.05-1.9.55"/><path fill="#0d131a" d="M205.55 146.8q.25-.6 2.5.75 4.4 2.55 6.05 5.1 3.55 5.45 2.5 15.95-.95 9.4-1.35-1.6-.25-7.15-3.05-12.25-1.9-3.5-4.8-5.75-2.1-1.6-1.85-2.2m-22.75-6.7q-7.3-6.35-16.4-11.45L155.45 123q-3.35-1.85.3-.75 14.8 4.7 28.5 16.3 23.6 20.1 28.8 51.55.4 2.2-.15 2-.55-.25-.85-1.65-7.25-31.2-29.25-50.35m39.95 69.3q.2-1.3.85-.85l.85 2.15q.55 2.05.35 2.9-.15.85-.5.45-.3-.3-.45-1.05l-.6-1.8-.5-1.8M60.4 315.05q4.6-.5 12.2 3.55 6.65 3.55 10.65 7.6l3.4 3.75q1.75 2.4 2.55 5.35 1.3 4.8 7.65 15.4 7.25 12.1 12.4 15.7 2.05 1.45 5.9 2.65l7.05 1.9q2.75.8 5.9 2.1 3.25 1.3 4.35 2.05 2.6 1.9 2.9 7.8.3 5.55-1.5 10.6-1.55 4.4-6.6 7.15-3.05 1.6-10.65 3.9l-5.7 1.8q-6.95 2.45-19.9 4.05l-17.65.6q-2.95-.65-4.4-5.2-.75-2.25-2.2-11l-1.2-8.85q-.85-6.2-1.5-8.15-1.25-3.8-5.2-8.15-4.8-4.85-7.1-7.75l-4.95-5.65q-2-2.75-1.9-6.25.1-3.25 1.9-6.3 6.2-10.6 5.3-15.7-2.1-11.7 8.3-12.95"/><path fill="#6cba5a" d="M72.25 320.6q6.2 3.1 9.85 6.75 1.4 1.4 2.75 3.85 1.6 2.9 2.55 6.3 1.25 4.7 7.95 14.95 7.45 11.4 13 15.3 2.25 1.65 6.35 3.1l7.4 2.35q6.6 1.95 7.75 2.8 2.2 1.55 3.1 6.95.9 5.6-.65 10-1.35 3.9-6.15 6.4-2.85 1.5-10.05 3.65l-5.75 1.8q-6.6 2.3-18.5 3.7-11.9 1.4-16.3.4-2.25-.5-3.8-5.8-.9-3-2.2-10.8l-1.7-9.05-2.05-8.4q-1.3-3.95-5.5-8.3l-7.35-7.8-3.5-4.5q-1.55-2.1-1.15-4.75.3-1.75 2.15-6.25l3.25-8.95q.65-2.45.95-5.65.55-5.35.9-6.35 1.4-4.3 5.6-4.75 4.2-.45 11.1 3.05"/><path fill="#5da24d" d="M50.45 343.25l3.25-8.95q.65-2.45.95-5.65l.45-4.6q3.6 12.7 13.75 19.25l3.9 2.55q.3.6-3.65 1.35-8.2 1.45-3.65 12.05 4.15 9.55 14.15 18.2 8.45 7.25 11.85 12.35 2.3 3.4 9.15 17.4l-14.5 1.9q-7.55.55-10.55-.2-2.25-.5-3.8-5.8-.9-3-2.2-10.8l-1.7-9.05-2.05-8.4q-1.3-3.95-5.5-8.3l-7.35-7.8-3.5-4.5q-1.55-2.1-1.15-4.75.3-1.75 2.15-6.25"/><path fill="#0d131a" d="M133.9 378.75q2.9-.4 10.65 6.15 8 6.75 10.85 12.45 1.45 2.9 1.35 3.75-.15 1.15-2.85.15-3.35-1.3-8.4-2.4-5.85-1.25-10.25-1.35l-6.9-.45q-.85-.2-1.45-1.15-.8-1.25-.65-3.2.25-3.95 2.2-8.35 2.2-4.95 4.7-5.35l.75-.25"/><path fill="#eeeeef" d="M143.05 386.15q7.5 6.5 10.6 13.15-3.35-1.25-8.75-2.15l-9.65-1-6.55-.35q-.6-.2-.6-2v-.7q.25-3.7 2.2-7.9 2-4.35 3.8-4.6 2.2-.3 8.95 5.55"/><path fill="#c8c9ca" d="M132.45 381.7q5.3 2.35 9.9 6.95 3.5 3.55 7.6 9.5-3.3-.85-7.4-1.4l-7.3-.6-6.55-.35q-.6-.2-.6-2v-.7q.2-2.8 1.5-6.25 1.3-3.4 2.85-5.15"/><path fill="#0d131a" d="M110.15 392.55q3.25-5.95 5.2-5.95 10.05 0 18.65 8.95 6.85 7.2 9.15 15.2.95 3.2.55 3.85l-1.4-.15q-2.55-1.15-7.95-2.8-9.7-2.9-24.15-5.8-.75.1-1.5-.4-1.55-.95-1.65-3.75-.15-3.25 3.1-9.15"/><path fill="#eeeeef" d="M115.7 388.45q8.7 0 16.7 9.1 6.45 7.3 8.35 14.45-3.25-1.85-10.8-3.85-6.9-1.85-19.7-4.45l-.4-.05q-.85-.15-.85-1.7v-.55q.3-3.35 3.05-8.25 2.55-4.65 3.65-4.7"/><path fill="#c8c9ca" d="M111.8 393.5q2.35-4.35 3.65-4.95 7.35 3.4 13.35 9.3 5.85 5.7 9.55 13-6.8-2.85-28.1-7.15l-.4-.05q-.85-.15-.85-1.7v-.55q.3-3.2 2.8-7.9"/><path fill="#0d131a" d="M105.1 398.35q7.6 6.75 11.2 15.8.95 2.35.35 3l-1.7.05-17.45-4-8.7-1.65-5.15-1.05q-.7-.35-.9-1.1-.15-.8.15-2.55.45-2.85 4-8.45 3.6-5.75 5.25-5.95 5.4-.8 12.95 5.9"/><path fill="#eeeeef" d="M114.2 415.5q-3.5-1.15-16.6-4.15-11.1-2.55-12.35-3.15l-.2-.65.05-.35q.3-2.65 3.35-7.55 2.9-4.6 3.95-4.85 4.2-.6 12 6.85 7.7 7.4 9.8 13.85"/><path fill="#c8c9ca" d="M106.55 413.4l-8.95-2.05q-11.1-2.55-12.35-3.15l-.2-.65.05-.35q.25-2.15 2.4-5.95 1.95-3.35 3.75-5.45 8.5 6.45 15.3 17.6"/><path fill="#0d131a" d="M74.5 309.1l1.7-1.1q3.1-3.55 7.95-2.35 3.05.75 5.75 3.15 2.55 2.3 3.05 4.45.4 1.6-.65 2.55-.65.5-.95 1.95-.45 1.85-1.9 3.9-3.25 4.65-11.7 13.65l.15.7q.1.85-.25 1.35-1.15 1.6-6.5-.55-2.6-1.05-4.7-2.85-2.35-2-2.9-3.95-.6-2-.6-4.15.05-2.15.65-2.75l7.95-11q1.55-2.15 2.95-3"/><path fill="#fff1ac" d="M65.3 324.95q.1-.55 2.55-3.45l4.5-5.45 3-4.5 1.85-2.7q2.65-2.95 6.6-1.95 2.7.7 5.15 2.8 2.25 2.05 2.7 3.85l.05.5-.3.75q-1.55 1.3-6.55 8.45l-5.45 7.3q-3.3 4.3-3.85 5.75-11.6-2.55-10.25-11.35"/><path fill="#dcd096" d="M80.95 328.5q-3.75-6.6-9.7-10.95l1.1-1.5 3-4.5 1.85-2.7q2.65-2.95 6.6-1.95 2.7.7 5.15 2.8 2.25 2.05 2.7 3.85l.05.5-.3.75q-1.55 1.3-6.55 8.45l-3.9 5.25"/><path fill="#0d131a" d="M93.85 246.35l3.4-.15q1.45.45 3.15 2.35l4.2 4.75 3.9 3.85q2.25 2.15 3.45 2.9 9.9 5.95 13.8 18.7 3.6 11.85.1 21.95-4.05 11.65-13.6 17.45-9.2 5.5-22.2 4.85-12.15-.6-21.2-13.6-6.15-8.8-7.7-16.3-.6-2.9-1.95-6.85l-1.25-3.4q-2.05-5.4-10.9-15l-16.2-16.5-4.35-4.65q-5.45-5.65-4.15-7.8.6-1.05 4.7-.6 4.4.5 12.3 2.65 7.15 1.95 23.55 9.15l-1.55-2.15q-1.45-2.05-1.45-2.45l-.05-.55q-.05-.3.05-.45 1.7-2.05 13.45 2.65 8.8 3.55 12.6 3.9 4.35.4 6.7-2.65.7-1.55 1.2-2.05"/><path fill="#6cba5a" d="M111.15 261.45q9.35 5.65 12.7 17 3.1 10.5-.25 20.1-8 23.1-32.65 21.9-11.65-.6-19.8-12.65-4.55-6.8-9.3-20.35l-1.3-3.6q-2.25-5.8-11.25-16.35-5.45-6.35-16.45-17.7l-3.2-3.35q-3.6-3.75-2.95-5 .4-.6 2.25-.65 3.25-.1 9.95 1.75 6.4 1.75 14.5 5.3 8.3 3.6 11.15 5.95 3.1 2.5 4 2.65.95.2-.9-2.45l-4.9-7q-.35-.45-.35-.7l2.5-.05q3 .5 7.85 2.45Q82 252.4 86.1 253q7.15 1 9.25-3.85.2-.5.5-.5.95-.2 3.45 1.95l4.6 4.45q5 5.1 7.25 6.4"/><path fill="#5da24d" d="M81.75 267.75q9.4 8.25 12.4 23.35 3.05 15.5 9.1 19.6 4.55 3 13.3.35-9.15 10.2-25.6 9.4-11.65-.6-19.8-12.65-4.55-6.8-9.3-20.35l-1.3-3.6q-1.9-5.05-8.9-13.5-5-6.15-13.75-15.3-14.75-15.8-2.95-11.35 6.75 2.55 26.1 12.45 14.95 6.55 20.7 11.6"/><path fill="#0d131a" d="M104.1 196.65q.5-11.5 10.65-21.15 10.7-10.25 24.35-10.25 12.95 0 21.55 9.2 8.65 9.25 8.65 23.45 0 13.6-9.3 22.7-9.15 9-22.45 9-6.75 0-13.3-2.6-6.8-2.65-11.35-7.4-4.5-4.7-6.8-10.7-2.25-5.9-2-12.25"/><path fill="#6cba5a" d="M116.65 176.35q9.55-9.5 22.45-9.5 12.15 0 19.85 8.55 7.7 8.55 7.7 22.1 0 13.05-8.1 21.55-8.1 8.45-20.5 8.45-6.3 0-12.15-2.55-5.85-2.55-10.3-7.15-4.3-4.5-6.45-10.05-2.15-5.6-1.9-11.55.5-11 9.4-19.85"/><path fill="#5da24d" d="M107.25 196.2q.45-10 8.1-18.5 8.05-8.95 19.5-10.55l-4.4 8.1q-2.75 4.75-3.7 7.35-2.9 8 3.3 14.2-5.1 10.3-1.3 19.85 3.05 7.8 9.3 10.85-6.3 0-12.15-2.55-5.85-2.55-10.3-7.15-4.3-4.5-6.45-10.05-2.15-5.6-1.9-11.55"/><path fill="#0d131a" d="M124.4 183.8q4.2-3.45 7.3-3.45 2.8 0 4.5 2.55 1.6 2.4 1.6 5.95 0 3.05-2.4 6-2.5 3.05-5.4 3.05-3.2 0-6.45-2.35-3.5-2.45-3.5-5.35 0-2.9 4.35-6.4"/><path fill="#dcd096" d="M124.25 194q-2.85-1.65-2.85-3.8 0-2.3 3.95-5.45 3.8-3.05 6.35-3.05 2.4 0 3.4 3.5.55 2.05.55 4.55 0 2.35-1.75 4.05-1.8 1.7-4.25 1.7-2.75 0-5.4-1.5"/><path fill="#0d131a" d="M125.4 125.45q1.35.05 2.25.9 1.25 1.2 1.25 3.85l-.05.45 1.15 3-1.55 7.35q-1.15 5.35-1.15 9.25 0 13.1 3.95 18.2l2.45 3.05 3.1 3.3q1.25 1.6 1.25 3.8 0 2.9-1 6.8-.8 3.35-4.15 6.7-3.55 3.55-7.3 4.3-2.95.6-6.05-.65-3-1.2-4.7-3.5-5.2-7.05-8.3-20.55-3.15-13.9-1.9-25.6.7-6.45 8.4-13.75 7.4-7.05 12.35-6.9"/><path fill="#6cba5a" d="M126.85 133.65q-1.5 10.6-1.45 17.55.1 12.45 4.55 18.25l2.5 3.1q2.8 3.4 3.25 5.15.6 2.4-.65 7.7-.65 2.7-3.6 5.15-2.95 2.5-6.35 3.2-5.3 1-8-2.8-4.45-6.05-7.45-20.6-2.7-13.25-2.3-22.75.25-5.95 7.25-13.45 6.7-7.2 10.75-7.05 2 .2 1.9 3.5l-.4 3.05"/><path fill="#5da24d" d="M125.35 127.1q2 .2 1.9 3.5l-.4 3.05-1.05 8.4q-7.8 4.6-9.7 9.4-1.4 3.55-.15 10.35 2.35 12.7 8.55 22.25 3.1 4.85 5.95 7.3-2.6 1.8-5.35 2.4-5.3 1-8-2.8-4.45-6.05-7.45-20.6-2.7-13.25-2.3-22.75.25-5.95 7.25-13.45 6.7-7.2 10.75-7.05"/><path fill="#0d131a" d="M52.95 135.9q9.15-8.7 23.75-11.7 4.9-1.05 11.8-5 5.65-3.25 11.45-7.75l3.9-3.05 3.7-2.8q2.65-1.85 6.55-2.2 3.8-.35 7.85.75 4.2 1.15 8.1 3.95 3.9 2.8 5.2 5.5l.4.85q2.5 5.25 3.15 9.45 1 6.55-1.45 13.65-1.05 3-6.55 4.9-2.5.85-6.05.95l-5.5-.35q-16.75 14.5-24.15 37.75-3.95 12.4-6.95 15.75-3.15 3.55-9.45 2.3-7.45-1.55-17.3 23.95-2.15 5.5-8.9 30.95-6.15 23.1-7.2 28.1-.75 3.45-1.6 3.35-.7-.05-2.6-3.25-1.95-3.2-3.15-6.45-7.65-20.2-7.2-55.4.4-34.95 8.4-60.55 4.75-15.05 13.8-23.65"/><path fill="#e5e5e5" d="M58.85 161.65q2.35-4.3 4.35-5.7 1.05-.75 4.3-1.55l3.6-.65q2.35-.5 4.2-1.75 1.55-1.05 4.6-4.1l5.15-5q6.45-5.9 9.45-8.2 5.3-4 8.55-4.15 2.8-.15 5.2.6-4.35 4.1-13.7 12l-12.35 10.3q-4.45 3.8-8.8 14.2l-3.15 8.15q-2 4.9-3.9 6.95-11.75 12.85-19.15 34.6Q37.1 247 41.95 279q-5.9-18.35-2.85-49.95 3.7-38.1 19.75-67.4"/><path fill="#e5e5e5" d="M58.85 197.15q4.65-8.3 8.65-12.7 1.95-2.15 4.1-6.75l3.3-7.95q2.25-5.4 3.6-7.9 2.2-4.1 4.55-6.1l12.5-11.15 13.9-12.95q2.35 1.15 3.95 3.6.95 1.4 2.1 4.15 1.05 2.5 1.8 3l.4.2q-7 6.05-11.95 12.7-7.65 10.4-11.95 23.9-3.7 11.6-7.8 15.4-2.85 2.65-7.6 2.3-5-.4-10.3 7.6-4.25 6.45-8.4 17.8-4.95 13.45-10.25 33.8-4.9 18.9-5.9 26.95l-.15-.3q-5.15-31.7 5.75-63.65 4-11.8 9.7-21.95"/><path fill="#c8c9ca" d="M52.15 175.55q3.2-7.55 6.7-13.9 2.35-4.3 4.35-5.7 1.05-.75 4.3-1.55l3.6-.65q2.35-.5 4.2-1.75 1.55-1.05 4.6-4.1l5.15-5q6.45-5.9 9.45-8.2 5.3-4 8.55-4.15 2.8-.15 5.2.6-4.35 4.1-13.7 12l-12.35 10.3-.75.7q-12.5 6.75-29.3 21.4m57.3-43.9q2.35 1.15 3.95 3.6.95 1.4 2.1 4.15 1.05 2.5 1.8 3l.4.2q-6 5.15-10.25 10.55-2.25-3.5-6.7-4.2-4.95-.8-12.15 1.9 13.25-11.8 20.85-19.2"/><path fill="#6cba5a" d="M57 159.8q-20.95 38.15-20.95 85.35 0 8.75.8 18.1-3.6-21.15-3.6-42.1 0-32.9 8.5-60Q50.85 132 79.5 126.1q4.95-1.05 11.3-5 3.75-2.4 10.8-7.85l7.35-5.45q5.05-3.4 12.45-1.4 3.85 1.1 7.05 3.3 3.2 2.25 4.3 4.6l.4.85q2.5 5.2 3 8.55.95 5.6-1.35 12.25-.85 2.35-5.55 3.95-3.35 1.1-7 1.4l-4.05-.25q-.35-.2-1.2-2.3-2.05-4.95-3.7-6.8-3.6-4-9.9-3.65-3.65.2-9.3 4.5-3.05 2.3-10.15 8.9-6.45 5.95-8.85 7.55-1.75 1.25-3.7 1.95l-3.3.95-5.5 1.5q-3.1 1.6-5.6 6.15"/><path fill="#5da24d" d="M38.9 211.5q-2.85 16.15-2.85 33.65 0 8.75.8 18.1-3.6-21.15-3.6-42.1 0-24.9 4.95-46.75-.9 20.55.7 37.1m95.35-93.9q1.8 4.05 2.1 7.7.45 4.9-1.55 10.65-.85 2.35-5.55 3.95-3.35 1.1-7 1.4l-4.05-.25q-.35-.2-1.2-2.3l-1.9-4.15q-1.5-2.75-3.6-4.25 1.5-1.1 3.1-1.55l2.65-.05q6.55 2.45 11.4-.45 5-3.1 5.6-10.7"/></svg>