<svg xmlns="http://www.w3.org/2000/svg" width="324" height="324" viewBox="-1.7 -0.7 324.45 324.2"><path fill="#69308d" d="M5.1 97.65q3.85-1.85 8.35-2.3l7.4.6q3.75.85 5.3 1.8 4.65 3.05 9.9 4.85 2.9 1 4.45.75.75-.1.95-.45.5-.4.2-2.55-.3-2.55-2-4.05-4.2-3.65-3.65-9.75.5-5.85 3.8-6.1 2.75-.2 5.6 2.75 1.85 1.95 3.1 4.4.45.95 1.3 4.9.95 4.35 1.55 6.1 1.55 4.1 7.4 9.1 1.3 1.1 1.95 3.4l.35 2.05q.65 1.2 2.6 1.75l1.8.3q-1.55 2.55-3.85 13.8l-2 10.75q-.5.5-1.85.95l-2.1.6-2.15.3q-1.45.2-1.9.8-.45.65-.3 4.95l.25 5.5q0 5.35-1.2 8.05-1.15 2.6-3.15 2.45-3.2-.25-4.3-3.5-.6-1.6-1.15-7.45-.2-1.95.05-8.55.15-4.4-.8-4.55-1.1-.25-2.15 2.4l-1.95 6.2q-.7 2.35-1.75 8.4-1.15 5.05-3.25 5.8-2.65.95-4.5-.65-1.9-1.7-2.6-5.8-.9-5.1 3.35-15.8l1.9-4.75q.95-3.5-.85-4.4-2.95-1.4-8.85 5.35l-3.05 4.3q-2.55 3.8-5.1 6.8-3.25 3.95-6.55 2.5-3.35-1.5-3.15-6.8.1-2.6 2.95-7.6 3.15-5.45 7.1-8.8 1.85-1.55 5.55-3.35l5.2-2.75q2.35-1.6 2.9-3.95.55-2.7-1.6-5.5-3.15-4.1-12.9-3.9-9.2.4-10.5-4.15-.85-2.9 3.9-5.2"/><path fill="#5b267d" d="M49.55 96.1q.8.65-1.5 3.3-2.6 3-6.65 3.5.55-3.65-.75-5.5.7-2.25 4.4-2.3 3.3-.05 4.5 1M14.8 106.4l3.65-.5q4-.3 5.8.75 2.3 1.35 3.1 4.9.8 3.8-1.25 6l.25-1.7q.1-1.95-.8-3.25-1.7-2.55-2.55-3.2-2.4-1.85-8.2-3m46.35 7.05q.3.95 4.1 1.95-3.15 8.7-4.7 17.45-.75 4.4-.9 7-.65.8-4 1.4-3.4.6-3.85 1-.55.55-.55 7.15l-.2 9.7q-.3 2.8-2.4 3.8-1.1.55-2.1.5 1.55-1 1.7-5.4.15-3.25-.5-9.4-.55-5.25-.2-6.45.3-1.2 2.75-2.15 3.75-1.45 4.95-2.4 1.25-1 1.15-2.45 0-.4-2.5-3.55-2.35-3.05-2.1-4.75.3-1.65 1.6-3.1 1.25-1.4 4.3-3.55 2.45-1.7 3.2-4.4l.25-2.35m-30.5 20.8l.05-1.2q-.05-1.45-.95-1.9-1.6-.85-3-.45-2.35.65-5.35 4.55l-5.5 7.6q-2.85 3.8-6.85 6.85 1.6-6.35 8.15-14.4 7.15-8.8 11.3-7.15 3.25 1.4 2.15 6.1m10.1 4.75q-.55.5-.8.95-2.75 5.9-3.25 8.6l-1.35 7.7q-1.55 5.7-4.35 6.1l.9-7.1q1.15-7.65 2.35-10.45 1.6-3.8 3.5-5.7 2.15-2.25 3.45-.5l-.45.4"/><path fill="#0d131a" d="M37.25 84.05q-1 2.35-.3 5.55.85 3.7 3.8 6.95 1.1 1.25 1.45 3.6.3 2.2-.3 3.1-.95 1.6-5.6.2-3.75-1.1-7.4-3.15-6.35-3.65-12.9-4.15-7.55-.55-12.4 3.6-2.5 2.15-.8 4.15 2.15 2.55 10.75 2.3 5.45-.15 9.3 2.25 3.55 2.15 4.2 5.25.6 2.95-1.65 5.55-2.2 2.6-6.55 4.3-7.2 2.75-12.6 12.15-5.6 9.65-.6 12.75 1.9 1.2 4.15-.4 3.2-2.3 9.05-10.9 1.8-2.65 4.25-4.7 2.7-2.25 4.8-2.5 2.3-.3 2.9 2 .65 2.6-1.6 7.5-4.35 9.65-3.5 16.2.75 5.6 4.3 5.7 2.15.05 3.2-2.2.8-1.6 1.7-6.45 1.2-6.25 2.4-9.3 2.05-5.25 3.65-5.05 1.65.2 1.5 5.75-.3 10.4.85 14.45.95 3.5 3.35 3.5 4.45.05 3.9-12-.3-6.5.55-8.2.6-1.2 3.1-1.35 2.65-.2 4.3-1.5.6-.5.9.4.3.85-.3 1.35-.9.75-2.05 1.05l-2.75.3q-1.75.1-2.1 1.3-.4 1.35-.05 6.6.55 7.95-1.1 11.35-1.4 2.85-4.55 2.8-3.3-.05-4.6-4.8-1.35-4.75-1.05-15.25l-.05-4.05q-.3-.45-2 3.95-1.15 2.95-2.3 9-.95 5.3-1.9 7.2-1.55 3.1-4.65 3.05-5.3-.1-6.15-7-.85-7.15 3.8-17.45 1.95-4.25 2.05-6.05.1-1.8-1.7-1.6-1.65.2-4 2.45-2.05 1.95-3.75 4.5-6.15 9-9.8 11.55-3.1 2.2-5.9.45-6.2-3.9-.1-14.65 5.9-10.35 14.4-13.5 7.4-2.7 6.35-7.9-.55-2.75-2.9-4.35-3-2-8.65-1.85-10.05.25-12.8-3.2-2.35-3 1.45-6.25 5.15-4.4 13.6-3.9 7.45.4 12.9 4 3.65 2.35 7.75 3.5 3.7 1.05 4.25.3.4-.5.05-2-.3-1.55-1.15-2.45-5.25-5.9-4.5-12.25.65-6.05 5.35-6.15 2.5-.05 5.45 3.1 3.15 3.3 3.9 7.35 1.3 6.9 2.55 9.25 1.3 2.35 7.15 8.35 1.8 1.85 2.2 5.45.4 3.4-.7 4.75-1.9 2.25-2.4 2-.5-.2 1.1-2.55 1.1-1.65.3-4.8-.85-3.35-3.45-5.7-3.65-3.3-4.95-5.45-2.25-3.75-3.3-10.75-.5-2.85-2.95-5.75-2.55-3.1-4.85-3.05-2.25 0-3.3 2.4"/><path fill="#0d131a" d="M60.55 114.7q-.05-.35.35-1.45.45-1.1.55-.8.7 1.4 3.5 1.6.35 0 .2 1.05-.15 1.1-.5 1.05l-2.6-.55q-1.35-.45-1.5-.9m160.1 65.95q9.8 5.25 13 9.3 4.1 5.35 12.8 19.6 6.75 11.05 11.85 17.95 6.75 9.1 12.75 14 7.55 6.2 17.9 12.45 8.1 4.9 16.55 9.05 4.9 2.45 4.4 4.7t-5.5 1.55l-5.15-.85-5.4.15q-2.35.5-6.65 2.2-4.45 1.8-7.85 1.85-3.45.05-9.95-1.65 5.4 2.75 11.15 4.8l11.05 4.1q13.2 5.6 25.75 13.15 5.4 3.25 4.1 6.05-1.25 2.7-8.05 3.7-4.5.75-8.35 2.6-4.55 2.65-7 3.65-4.1 1.7-9.1 1.3-5.9-.55-10.6 1.05-2.85.9-6.7 3.4l-5.35 3.15q-3.65 1.8-7.45 1.95-4.7.15-7.75-.8l-5.05-2.2q-6.6-2.85-15.3-5.1-2.6-.65-5.35-.75-4.65-.1-9.2 2l-7.15 4.2q-5.7 3.7-7.45 4.4-4.75 1.9-12 1.6-6.75-.3-13.6-2.25-3.5-.95-10.15-3.5-6.4-2.45-10.25-3.05-5.95-1-12.2.7l-12.35 3.6q-5.75 1.6-9.75 1.6-11.25 0-24.3-4.55l-8.55-3.15q-4.1-1.4-6.15-1.4-5.55 0-14.8 1.85T54 314.9q-6.25 0-14.45-4.15-4.9-2.45-4.35-5.65.55-3.5 7.45-7.05 7.55-3.9 21.95-12.65 2.25-1.4 7.95-4.65l6.05-3.55q-3.7-1.1-9.15-.85l-9.15.8q-7.85.75-15.5-.4-5-.85-5.1-3.55-.1-2.75 5.05-5.7 20.9-12 36.65-30.2Q98.1 218 104 197.25q7.65-26.75 36.25-32.25 24.3-4.7 57.05 5.95 13 4.2 23.35 9.7"/><path fill="#e50020" d="M219.7 181.85q9.8 5.1 12.8 9 2.75 3.55 6.25 9l6.5 10.45Q253 223.05 257 228.7q6.8 9.6 12.75 14.45 18 14.75 34.55 22.55 2.05.95 1.95 1.45l-2.3.1-4.75-1.05-5.55-.2q-2.95.35-7 1.95-4.5 1.8-10 1.3-5.55-.55-15.45-3.65l-.7-.45q-6.1-4.1-15.8-14.5-11.75-12.6-14.25-20.5l-1.35.45q7.55 17.1 20.6 28.85 13.65 12.25 36.9 21.95 8.65 3.6 13.5 5.9 7.75 3.7 14 7.7 4.1 2.65 3.75 3.7-.3.9-4.8 1.65-3.65.6-8.5 2.95-6.25 3.05-7.7 3.55-4.85 1.75-9.65 1.35-6.25-.55-10.65.85-2.6.8-6.45 3.25-2.9 1.9-4.65 2.6-2.9 1.15-6.55 1.3l-7.25-.25q-1.6-.3-4.65-1.6-6.5-2.9-15.65-5.2-7.25-1.85-12.75-.3-3.35.95-8.7 4.4-5.15 3.3-8.45 4.5-5.5 2-12.55 1.7-6.7-.25-12.65-1.8-3.35-.9-9.2-3.1-6.35-2.45-9.85-3-5.7-.9-12.25.9-14.65 3.95-20.65 4.4-8.85.7-20.8-2.55l-9.55-2.85q-7.65-2.45-11.9-2.7-5.9-.35-16.55 1.8-8.05 1.65-11.85 1.6-6.35-.1-12.3-3.65-3.3-1.9-2.85-3.65.4-1.75 4.75-3.75 6.6-3 15.2-8.45l14.45-9.75 8.9-6.15.35-1.2q-4.2-1.5-10.4-1.3l-9.95.9-8.8.55q-4.85-.05-8.95-1.4-1.55-.55-1.35-1.9.2-1.35 1.8-2.15 19.85-9.8 35.9-27.9 18.05-20.3 25-44.7 7.4-25.9 35.15-31.25 23.5-4.55 56.05 5.95 12.9 4.15 23.1 9.5"/><path fill="#c60019" d="M65.5 310.55q-8.05 1.65-11.85 1.6-6.35-.1-12.3-3.65-3.3-1.9-2.85-3.65.4-1.75 4.75-3.75l1.4-.65q6.3 3.1 11.9 3.1 3.85 0 12-1.9Q76.7 299.7 82 299.7q4.3 0 17.5 4.55 13.15 4.55 21.8 4.55 5.15 0 12.8-2.15l14.85-4.8q21.35-6.95 37.05-6.95 15.05 0 25.95 5.05 5.85 2.7 8.35 3.45 5.25 1.6 12.2 1.6 11.7 0 24.75-3.1 13.05-3.15 17.9-3.15l14.5.95 10.9-.45q1.95-.55 5.45-2.1l6.7-3.05 1.4.9q4.1 2.65 3.75 3.7-.3.9-4.8 1.65-3.65.6-8.5 2.95-6.25 3.05-7.7 3.55-4.85 1.75-9.65 1.35-6.25-.55-10.65.85-2.6.8-6.45 3.25-2.9 1.9-4.65 2.6-2.9 1.15-6.55 1.3l-7.25-.25q-1.6-.3-4.65-1.6-6.5-2.9-15.65-5.2-7.25-1.85-12.75-.3-3.35.95-8.7 4.4-5.15 3.3-8.45 4.5-5.5 2-12.55 1.7-6.7-.25-12.65-1.8-3.35-.9-9.2-3.1-6.35-2.45-9.85-3-5.7-.9-12.25.9-14.65 3.95-20.65 4.4-8.85.7-20.8-2.55l-9.55-2.85q-7.65-2.45-11.9-2.7-5.9-.35-16.55 1.8m118.95-114.9q-5.5-6.2-12.35-4.55-6.25 1.45-13.9 9.4-12.65 9.2-27.2 8.15-13.3-.95-25.9-10.05l.3-.95q7.4-25.9 35.15-31.25 23.5-4.55 56.05 5.95 12.9 4.15 23.1 9.5 9.8 5.1 12.8 9 2.75 3.55 6.25 9l6.5 10.45 3.35 5.5q-16.15 3.3-33.7-1.65-19.2-5.4-30.45-18.5m90.75 73.45q-5.25-.7-14-3.5l-.7-.45q-2.65-1.75-7.5-6.25-5.35-4.95-10.2-10.35 8.85 5.55 20.55 10.95 5.5 2.55 21.15 9.15l-9.3.45M98.65 251.25q-.85 7.75-8.75 16.8-3.95 4.55-7.75 7.5-4.45-1.6-11-1.25 16.2-9.45 27.5-23.05"/><path fill="#0d131a" d="M148.1 181.25l2.85-1.05q5.3 10.7 7.4 19.6 3.65 15.8-.65 30.3-4.8 16.25-8.15 38.1-3.5 22.5-2.3 31.05 1.1 8.05 4.65 11.7 1.2 1.2-.3 1.15l-1.75-.3q-.8-.6-1.9-2.2-2.1-3.3-3.45-8.85-2.4-10.3 1.5-31.65 2.85-15.6 8.85-36 4.2-14.25.55-31.15-2.35-10.75-7.3-20.7m40.55-1l2.6.65q-5.55 13.85-6.6 17.8-3.35 12.45-1.95 26.75 1.35 13.65 6.7 29.45 5.1 14.9 10 21.3l9.95 11.15q8.55 9.7 9.5 12.6 1.55 4.7.6 8-.65 2.15-1.5 2.6l-2.3.95q-2.15.7-1.7-.5l1.8-3.1q1-2.4-.3-6.3-.9-2.75-9.1-12.5l-9.6-11.25q-5.1-6.65-10.35-23.1-5.55-17.3-6.55-31.4-.9-12.6 2.35-24.9 1.5-5.75 6.45-18.2m-85.6 56.6q.45-2 .85-3 .85-1.95.55 3.25-.4 8.7-5.55 19.3-6.8 14.05-18.4 21.35-7.65 4.8-9.5 5.1-1.8.3 4.35-3.9 14.85-10.1 22-24.4 3.6-7.2 5.7-17.7"/><path fill="#69308d" d="M164.85 19q12.75-.95 24.35 3.15 11.6 4.1 21.2 12.95 10.85 10.1 17.35 24.4 6.5 14.3 6.5 28.15 0 22.4-18 38.25-17.95 15.85-43.35 15.85-12.35 0-24.85-4.05-12.4-4-22.45-11.15-22.55-16.15-22.55-38.2 0-10.9 4.85-22.8 4.8-11.8 13.2-21.85 8.8-10.5 19.65-16.9 11.75-6.85 24.1-7.8"/><path fill="#69308d" d="M188.75 23.5q11.35 4 20.65 12.65 10.7 9.9 17.05 23.9 6.35 14 6.35 27.6 0 21.8-17.55 37.2-17.55 15.45-42.35 15.45-12.05 0-24.3-3.95-12.2-3.9-22-10.85-22.1-15.7-22.1-37.15 0-10.7 4.75-22.35 4.65-11.5 12.9-21.4 18.65-22.3 42.8-24.15 12.45-.95 23.8 3.05"/><path fill="#5b267d" d="M164.95 20.45q12.45-.95 23.8 3.05 11.35 4 20.65 12.65 10.7 9.9 17.05 23.9 6.35 14 6.35 27.6 0 14.35-8.25 26.7-5.6-25.8-37.2-46.05-5.15-3.65-16-.95-6.2 1.55-8.1 1.75-4.4.6-7.25-.8-15.65-7.6-23.25 15-5.9 17.65-4.95 43-10.75-7.3-16.8-16.7-6.5-10.15-6.5-21.25 0-10.7 4.75-22.35 4.65-11.5 12.9-21.4 18.65-22.3 42.8-24.15"/><path fill="#0d131a" d="M137.25 63.8q0-5.6 4.05-9.75 4.05-4.25 9.7-4.25 6.05 0 10.35 3.6 4.7 3.95 4.75 10.35.05 5.55-4.3 9.9-4.35 4.35-10 4.35-6.3 0-10.4-4-4.15-4-4.15-10.2"/><path fill="#fff" d="M139.05 63.75q0-5.15 3.75-8.8 3.75-3.65 9-3.65 5.3 0 9 3.65 3.75 3.65 3.75 8.8t-3.75 8.8q-3.7 3.65-9 3.65-5.25 0-9-3.65t-3.75-8.8"/><path fill="#0d131a" d="M156.15 63.25q0 .6-.4 1.05-.4.4-.95.4-.55 0-.95-.4-.4-.45-.4-1.05 0-.6.4-1 .4-.45.95-.45.55 0 .95.45.4.4.4 1m18.2-.85q0-6.05 4.3-10.15 4.15-3.95 9.95-3.95 6.4 0 10.45 4.05 4.05 4.05 4.05 10.25 0 5.6-4 9.6-4 4.05-9.65 4.05-6.6 0-10.85-3.8-4.25-3.85-4.25-10.05"/><path fill="#fff" d="M175.95 62.4q0-5.15 3.75-8.8 3.7-3.65 9-3.65t9 3.65q3.75 3.65 3.75 8.8t-3.75 8.8q-3.7 3.65-9 3.65t-9-3.65q-3.75-3.65-3.75-8.8"/><path fill="#0d131a" d="M184.75 61.55q0-.6.4-1 .4-.45.95-.45.55 0 .95.45.4.4.4 1t-.4 1.05q-.4.4-.95.4-.55 0-.95-.4-.4-.45-.4-1.05M180.7 76q4.1 0 11.5 5.4 7.8 5.7 8.2 9.9.6 5.95-7.95 11.45-8.5 5.45-19.05 6.05-13.85.75-22.3-4.25-7.3-4.3-7.3-10.15 0-3.55 6.35-9.9 6.55-6.5 11.15-7.05 2.15-.3 5.85.6l5 .85q1.15-.05 4.3-1.5 3.05-1.4 4.25-1.4"/><path fill="#f3b3cf" d="M172.25 79.85q1.4-.1 4.1-1.1 2.65-1 4.55-1.15 2.8-.2 9.1 4.2 6.55 4.5 8.4 8.4 1.4 2.9-2.25 7.05-3.1 3.5-7.8 6.05-7.1 3.95-18.2 3.85-9.9-.1-15.7-2.85-4.45-2.15-6.9-5-2.3-2.6-2.3-5.05 0-2.5 6.5-8.7 6.65-6.3 10.05-6.65l5.15.5 5.3.45"/><path fill="#d29bb4" d="M194.2 95.75l4.55-4q.05 2.8-3.4 6.3-2.95 3.05-7 5.25-7.1 3.95-18.2 3.85-9.9-.1-15.7-2.85-7.1-3.45-8.8-8 3.6 4.5 14.2 6.65 10.3 2.05 17.75.1 10.7-2.8 16.6-7.3m-28.5-11.3q3.2 1.65 6.3 1.4 2.25-.2 7.05-2 2.6-.95 6.65 1.95 3.95 2.85 2.75 4.15-1.2 1.35-14.45 2.65-13.5 1.3-16.35.05-2.9-1.3 1.45-5.35 4.3-4.05 6.6-2.85"/><path fill="#0d131a" d="M188.35 89.15q.55.4.1.95-4.15 4.65-13.45 5.65-9.6 1.05-17.55-2.75-.5-.2-.4-.7.35-1.25 1.65-2.8 1.4-1.7 3.1-2.6 1-.5 2.45-.6 1.6-.1 2.9.35 2.25.85 5.25.7 3-.15 4.75-1.2 4.05-2.55 11.2 3"/><path fill="#ed8599" d="M177.65 86.95l4.6.15q2.75.85 5.15 2.55-4.25 3.6-13.7 4.45-9.5.85-15.55-1.85.4-.9 1.5-1.95 1.15-1.05 2.6-1.85 3-1.55 4.55-.9 5.75 2.6 10.85-.6"/><path fill="#0d131a" d="M169.05 127.85l.9 1.25.05-.1q4.65-9.9 8.9-14.25 8.6-8.8 22.85-9.5 13.65-.65 26.5 8.05 13.5 9.2 16.25 22.7 2.65 12.75.1 23.75-3.65 15.9-17.65 23.6-18.55 10.2-35.25 3.4-8.85-3.65-14.7-10.5-3.25-3.8-6.1-3.95-1.8-.05-4 1.8l-4.55 4.3q-9.55 8.75-17.8 11.65-6.9 2.4-15 1.15-7.25-1.1-13.6-7.1-5.5-5.2-10.9-14.75-4.9-8.8-5-19.3-.1-10.45 4.6-21.85 2.5-5.95 8.1-11.3 5.95-5.7 12.85-8.15 12.9-4.6 23.7 1.15 11.7 6.2 19.75 17.95"/><path fill="#ffe100" d="M170.2 130.85q.55 0 .8-.6l.3-.65q4.15-8.75 8.8-13.1 8.3-7.8 22.1-8.5 13.05-.65 25.25 7.2 13.05 8.4 15.65 21.1 2.45 12-.05 22-3.6 14.35-17.15 21.8-17.9 9.85-33.9 3.65-8.6-3.3-14.15-9.7-3.5-4.15-6.75-4.3-2.3-.1-5 1.8-1.7 1.2-5.55 4.85l-1.3 1.25q-6.55 6.25-13.85 9-7.25 2.75-14.35 1.7-7.35-1.1-13.65-6.15-6.3-5-11.05-13.55-9.8-17.3-.35-39.9 2.3-5.45 7.75-10.15 5.45-4.75 12.3-7.2 6.35-2.25 12.4-2 6.1.2 11.1 2.9 7.2 3.85 12.45 9.1 2.8 2.85 5.9 7.25l1.3 1.7q.5.55 1 .5"/><path fill="#dcc200" d="M192 183.75q-8.6-3.3-14.15-9.7-3.5-4.15-6.75-4.3-2.3-.1-5 1.8-1.7 1.2-5.55 4.85l-1.3 1.25q-6.55 6.25-13.85 9-7.25 2.75-14.35 1.7-7.35-1.1-13.65-6.15-6.3-5-11.05-13.55-3.2-5.7-4.35-12.05 6.15 2.4 14.5 2.25l14.75-1.55q4.8-.6 11.35-2.85l11.3-4q13.8-4.6 23.35-1.8 15.35 5.15 33.8 3 13.25-1.55 33.1-7.85.8 10.7-2.6 19.15-4.4 11-15.65 17.15-17.9 9.85-33.9 3.65"/><path fill="#0d131a" d="M131.25 117.95q12.05-.1 20.8 9.3 8.55 9.2 8.55 21.45 0 11.9-9.15 21.1-9.05 9.1-20.6 9.1-11.3 0-19.4-9.25-7.95-9.05-7.95-21.25 0-12.15 8.15-21.2 8.2-9.15 19.6-9.25"/><path fill="#e50020" d="M157.6 148.4q0 11.4-7.7 19.5-7.75 8.1-18.65 8.1-10.85 0-18.6-8.1-7.7-8.1-7.7-19.5 0-11.45 7.7-19.55 7.75-8.1 18.6-8.1 10.9 0 18.65 8.1 7.7 8.1 7.7 19.55"/><path fill="#0d131a" d="M206.1 116.7q11.4 0 19.65 8.95 8.15 8.85 8.15 20.9 0 12.15-8.1 21.25-8.2 9.2-19.55 9.2-11.55 0-20.4-9-8.95-9.05-8.95-21 0-12 8.85-21.15 8.85-9.15 20.35-9.15"/><path fill="#e50020" d="M232.5 146.55q0 11.45-7.75 19.5-7.7 8.1-18.6 8.1-10.9 0-18.6-8.1-7.7-8.05-7.7-19.5 0-11.4 7.7-19.5 7.75-8.1 18.6-8.1 10.9 0 18.6 8.1 7.75 8.1 7.75 19.5"/><path fill="#c60019" d="M104.95 148.4q0-3 .6-5.8 8.25 11.65 23.55 13.55 13.7 1.65 28.35-4.75-1.1 10.4-8.55 17.5-7.55 7.1-17.65 7.1-10.85 0-18.6-8.1-7.7-8.1-7.7-19.5m126.8-8.3q.75 3.5.75 6.45 0 11.45-7.75 19.5-7.7 8.1-18.6 8.1-10.9 0-18.6-8.05-7.7-8.1-7.7-19.5 21.45 8.85 51.9-6.5"/><path fill="#0d131a" d="M167.75 44.6l.1 1-1.6-1.05q-6.95-4.5-16.5-4.05-9.95.45-16.65 6.1l-.15-4.15q-.05-4.4.45-5.8 1.9-5.6 6.35-10.85 4.95-5.85 9.15-6.1 6.05-.35 12.25 8.4 5.85 8.25 6.6 16.5"/><path fill="#ddd583" d="M133.55 40.55q0-1.4.75-3.6 1.8-5.25 6.05-10.35 4.7-5.7 8.6-5.95 5.4-.3 11.2 7.7 5.5 7.6 6.55 15.35-6.95-5-16.1-5.15-9.85-.1-17.35 5.8-.15-.2.05-1.75l.25-2.05"/><path fill="#0d131a" d="M167.7 44.4l-.85.5q-5.3-8.65-13.65-10.6-7.6-1.8-15.45 2.4l-.3-1.6q8.1-5.05 16.3-2.55 8.2 2.5 13.95 11.85m36.85-4.1q.9 2.7-.3 3.75l-.3.3-.35-.25q-8.15-6.75-20-4.4-7.55 1.55-14.7 6.1l-1.15-.25.1-.95q.85-9.05 4.7-16.5 4.5-8.75 10.35-8.4 4.85.3 12.55 7.95 7.25 7.25 9.1 12.65"/><path fill="#ddd583" d="M203.8 43.05q-8.65-7.7-20-5.5-6.2 1.15-14.85 6.2 1.05-8.6 4.55-15.35 4.15-8 9.35-7.75 4.55.3 12 7.75 7.05 7.1 8.8 12.2l.35 1.7-.2.75"/><path fill="#0d131a" d="M168.75 44.3l2.4-4.35q2.45-4.05 5.25-6.65 8.7-8.15 19.75-1.75l-.45.8q-9.8-5.2-18.35 2.15-3.55 3.05-7.75 9.95l-.85-.15"/><path fill="#0d131a" d="M243 45.05Q256.7 65.7 266 90q10 26.35 13 52.5 4 35-15.45 67.5-15.15 25.45-42.15 46.05l-6.5 4.65q-2.15 1.25-1-.15l2.75-4.55 3.25-6.1 3.25-5.35q2.45-4.1 5.9-11-5.6 6.2-14.45 14.3l-10.35 9.05q-3.15 2.55-4.1 2.85-1.4.5.95-3.2 7.3-11.5 10.75-19.7L196.9 248.2q-10.95 7.9-14.3 9.7-4.25 2.3-4.95 2.3-1.05.05 2.8-3.8 4.1-4.1 11.8-16.3 7.35-11.65 11.85-20.85-4.8 4.65-11.15 9.85l-5.35 4.4-6.25 4.95q-3.05 2.3-2.4.9l1.3-1.85q14.25-22.6 23.65-47.05 13.5-35.25 14.35-68.25l.05-4.95q0-34.9-11.8-62.65-10.1-23.65-22.5-30.4-5.5.3-8.65 5.4-2.45 3.9-5.15 14.15-.85 3.2-1.1 3.3-.5.25-2.2-3.3-1.75-3.75-6.55-8.45-6-5.85-11.85-7.3-3.85.55-8.15 8.85-4.2 8.05-7.8 21.35-8.1 30-8.1 62.5 0 9.15.7 18.85 2.45 32.3 18.5 72 5.45 13.5 11.65 25.75 4.75 9.45 6.9 12.45 2.7 3.75 2.15 3.75l-3.6-2.3q-3.5-2.35-13.35-12.35-11.05-11.2-15.65-17.95 1.05 6.4 3.6 16.4 2.6 10.15 4.45 14.8 1.75 4.35 1.45 4.25l-4.3-4.1q-4.3-4-10.6-12.3-7-9.2-11.45-17.25.85 5.85 3.4 13.95 2.35 7.65 5.05 13.65 2.3 5.2 1.35 4.8l-4.4-4.1q-8.2-8.1-15.05-20.95l-8-17.25-.1 4.3q-.05 3.15.3 5.3l.7 4.9q-1-2-2.75-4.25-5.95-7.6-11.2-25.3l-4.35-17.1q.1 9.05 4.05 26.45 3.85 16.75 7.2 24.2 5.5 12.1-3.05.9-11-14.5-20.1-35.2-10.9-24.65-11.25-42.3v-.9q0-20.05 10.4-50.35Q77.6 72.8 89.65 58.6q11.9-26.4 21.15-38 8.1-10.1 20.6-16.2 10.5-5.1 21.05-.85 8.95 3.6 12.85 11 1.65-5.55 7.65-9.95 7.1-5.2 15.75-4.5 12.1.95 26.7 13.1 14.35 12 27.6 31.85"/><path fill="#fff697" d="M236.7 42.7q25.25 34.2 34.3 76.45 4.35 20.4 4.1 38.55-.45 34.3-25.85 67-8.4 10.8-18.6 20.25-6.65 6.1-10.95 9.05 7.9-13.95 12.6-23.8l-1.15-.8q-16.3 16.6-25.55 24.1 2.9-5 7.75-16.5l1.1-2.6 6.9-7.75q5.45-6.45-1.6.1-9.05 8.4-16.45 14.25-8.4 6.7-18.75 13.4 5.35-6.95 12.8-19.75 7.1-12.15 10.05-19.05 9.65-15.8 3.7-7.8-8.45 11.3-20.3 20.9l-6.9 5.65q14.95-24.7 23.1-45.35 12.8-32.5 13.6-63.7v-6.9q0-35.6-11.85-63.9-10.2-24.3-22.8-31l2.8.3 3.5.55 2.9.2q.8-.45-3.65-1.85-7.95-2.45-13.2 1.45-4.9 3.6-8.25 13.5-.8 2.35-1.25 4.35l-.55 1.95q-3.75-9-10.75-14.45-7.35-5.8-15.85-5.5-3.55.1-4.9 1.45-1.4 1.45 1.6.7 2.15-.55 5.6.1L147 27q-6.1 2.15-10.9 12.4-4.4 9.4-8.45 27.4-5.95 26.85-5.95 54.75 0 7.7.85 19.2 2.3 30.35 16.3 65.3 8.9 22.3 20.15 41.3-6.7-5.45-15.7-15.15-9.75-10.5-12.55-15.8l-1.35.45q.75 5.45 2.55 14.45 2.2 11.1 4.2 17.75-4.75-5.9-11.75-15.75-6.2-8.7-10.65-15.55l-1.3.5q.7 6.05 2.3 13.15 1.95 8.4 4.6 15.45-8.3-10.05-16.15-25.1l-6.3-13.25-1.35.35.2 2.55.25 8.35q-3.55-6.05-7.6-17.35-2.35-6.45-5.85-17.85-.65-2.1-1.45-6.3l-1.45-7.1q-.75-3.25-1.2-2.1-.4 1-.25 4.05l.2 6.95q0 8 2.8 22.7 2.7 14.2 5.95 24.2-8.95-13.9-17.1-32.9-10.45-24.5-10.7-39.4v-.85q0-18.4 11.1-49.95 10.2-29.1 18.5-39.65l-1.45 6q-1.3 6.2-.6 7.05.7.75 1.9-3.7l2.65-9.7q4.8-14.45 14.45-29.9 12.85-20.55 25.95-26.7 10.35-4.85 20.6-.9 8.45 3.3 12.3 9.95l-.1 2.05q0 2 .35 1.75l.75-1.95.8-2.65q2.2-4.75 7.55-8.45 6.75-4.6 14.7-4 10.85.85 22.9 11.15 10.8 9.3 25 28.5"/><path fill="#fffac6" d="M210.35 13.1q10.3 8.45 23.35 25.6-12.75-14.15-26.45-22.3-12.1-7.2-20.3-7.2-7.6 0-14.9 4.85-4.15 2.7-6.9 5.9l.7-2.1.7-2.35q2.2-4.75 7.55-8.45 6.75-4.6 14.7-4 10.3.8 21.55 10.05m-45.6 3.2l-.05 1.45q-.05 1.55.05 2.1-10.6-11.1-25.3-8.6-17.05 2.8-34.15 23.65 13.15-21.4 26.55-27.65 10.35-4.85 20.6-.9 8.45 3.3 12.3 9.95m-75.8 60.75l-1.4 14.7q-.85 9.25-.4 9.9.4.65 6.25-14.8 7.4-19.65 9.1-23.55 0 7.5-1.2 18.95-.95 9.25-.7 9.7.6 1.05 4.55-7.7 4.3-9.45 5.9-17.35-1.2 11.35-1.95 21.8-.85 12.3-.3 13.35.7 1.2 3.3-6.85 2.7-8.35 4.05-16.6.25 13.8 1.1 29.05.9 15.4 1.55 15.8.4.3 1.55-8.65 1.45-11.15 2.3-14.85-.95 11.4-.95 21.6 0 7.7.85 19.2 1.4 18.45 7.15 38.75-.35 4.9 1.3 16.35 1.4 9.55.85 9.4-.7-.25-10.5-17.9L111 168.95q-.25-.25 3.6 13.7 3.95 14.2 2.65 13.55-1.45-.7-8.25-13.3-6.5-11.95-6.8-13.3l.4 7.55q.5 8.25-.05 7.7-.55-.55-4.4-9.75l-4.5-10.25q-.45-.65 2.05 15.3 2.5 16.35 1.55 15.8-1.2-.75-6.25-16.75-5-15.65-7.2-25.35-.35 2.55 2.05 17.25l2.95 19q.35 4.15-5.7-9.8-6.3-15.3-6.8-16.1-.8-1.3-1.75 13.4-.95 14.8.15 18.05.8 2.35-2.4-2.65-4.4-6.95-6.05-8.5-6.7-18.2-6.9-29.85v-.85q0-8.5 2.7-20.9 2.4-11.15 6.65-24.05l-.75 8.15q1.75-8.75 6.65-19.15 5.9-11.7 8.8-18.45l-2.6 13.1q-1 6.05-.4 7 .55.85 3-6.65 3.8-11.5 5.55-15.8"/><path fill="#ddd583" d="M246.3 228.25q0-.75.9-.95l-.05.1-.85.85"/><path fill="#fffac6" d="M249.9 83.4l1.6 4.5q.45 1.15.9.55.7-.95-2.45-12.6-2.9-10.75-1.6-9.8 1.55 1.05 8.1 15.9l7.1 15.9q.8 1.1.05-2.25l-1.15-5.5q8.55 22.6 11.4 46.25 1.25 10.25 1.25 21.35-.4 29.25-19.25 57.85 3.1-6.15 4.65-14.7 1.3-7.15.75-8.2-.2-.4-4.65 5.1-6 7.45-10.05 11.5 1-4.95 3.75-15 2.2-8.2 2.1-8.9-.1-.65-9.1 13.65-9.15 14.4-9.45 13.9-.25-.45 5.9-15.45 6.25-15.2 6.05-16.5-.25-1.4-7.5 12.9l-7.1 13.6 2.6-10.3q2.4-9.6 2.2-11.15-.15-1.25-9.1 12.45-8.85 13.5-8.75 12 .1-1.25 5.2-16.85 4.95-15.2 4.75-16.75-.2-1.55-4.95 6.85-5.1 8.95-5.6 9.05-.6.1.15-7.25.75-7.05.05-6.25-.65.75-6.5 11.55-5.65 10.4-6.2 10.6-.35.15 1.55-6.35 2.25-7.8 2.35-11.2 10.9-29.75 11.65-58.55v-6.9q0-11.4-1.35-22.85l3.05 12.85-.85-17.1q-.7-16.55-.1-15.8.55.7 4 11.7 3.35 10.6 3.4 10.4l-2.3-16.05q-2.1-15.45-.85-14.1 1.15 1.25 5.8 15.95 4.45 13.95 4.6 13.6 1.3-3.15-2.3-20.65-3.65-16.45-3.3-15.75 10 18.55 14.2 32.25l1.8 6.6q.4 1.8.75 1.45 1.7-1.7-3.25-20.35-5.1-17.85-4.6-17.15 7.1 10.4 10.6 20"/><path fill="#0d131a" d="M228.95 126.25q4.05-2.1 13.8-.75 6.35.9 14.1 3.1l.8-.45q2.55-1.5 4.95-2.1l10.05-.35q6.85.8 10.55 9.75 3 7.3 3.35 18 2.1 5.65 2.1 9.4 0 2.5-.65 5.05-.6 2.3-1.5 3.75-1.65 2.7-4.85 3.8-1.55.55-5.05.9-3.95.45-10.55-3-4.35-2.25-16.6-10.15l-8.55-5q-9.8-6.25-13.85-14-2.7-5.1-2.5-9.7.1-2.8 1.3-5 1.2-2.25 3.1-3.25"/><path fill="#fff" d="M228.3 143.4q-2.5-4.6-2.3-8.85.1-2.4 1.1-4.3t2.55-2.75q4.15-2.15 15.4-.25 11.45 1.9 18.8 6.15 14.35 8.35 20.1 18.7 5.55 9.85 1 17.2-1.6 2.55-4.15 4.1-2.2 1.3-4.35 1.55-3.6.4-10-3-4.2-2.2-16.25-9.95l-8.7-5.6q-9.4-5.95-13.2-13"/><path fill="#dbdcdc" d="M241.5 156.4q-11.6-7.35-14.65-16.3 20.8 21.45 39.25 27.65 8.1 2.7 13.6 1.45 5.5-1.25 7.15-6.2-.15 3.4-1.9 6.3-1.6 2.55-4.15 4.1-2.2 1.3-4.35 1.55-3.6.4-10-3-4.2-2.2-16.25-9.95l-8.7-5.6"/><path fill="#e50020" d="M274.5 138.4q-7.75-6.7-15.7-9.25 1.85-1.05 3.9-1.4 3.1-.5 8.45.15 6.4.75 10.2 8.85 2.95 6.2 3.6 14.5l-.35-.8q-2.95-5.9-10.1-12.05"/><path fill="#0d131a" d="M241.35 155.2q.05-1.1 1.4-1.8 1.55-.8 4.55-.75 7.2.15 17.85 6.4 11.45 6.8 11.45 12.85 0 5.8-3.75 8.15-4.05 2.5-11.7.3-6.2-1.75-13.35-11.4-6.6-8.9-6.45-13.1v-.65"/><path fill="#fff" d="M247.25 154.1q7.05.1 17.25 6.2 10.65 6.35 10.65 11.6 0 3.9-2.7 5.9-3.5 2.65-9.7.9-5.75-1.65-12.7-10.55-6.5-8.3-6.35-12.05 0-2.05 3.55-2"/><path fill="#dbdcdc" d="M244.1 158.25q5.55 7 14 10.55 8.75 3.65 16.95 2.05l.1 1.05q0 3.9-2.7 5.9-3.5 2.65-9.7.9-5.05-1.45-11.25-8.75-5.6-6.6-7.4-11.7"/><path fill="#0d131a" d="M203.25 96.9q2.9-3.95 7-3.65 4.75.35 6.35 10.55l.95 5.95q.65 3.4 1.85 5.35 2.05 3.4 7.1 6.4l6.05 3.4.15.3q4.45 3.65 4.85 11.35.2 4.7-.75 9.1-.95 4.25-2.4 5.7l-1.85 1.2-2 1.15q-2.95 2-3.95 2.95-2.05 1.9-2.5 4.25-1.75 8.7-3.95 13.6-2.45 5.3-6.1 7.8-1.85 1.25-3.8 1.25-1.55-.05-2.5-.75-2-1.45-2.1-4.7-.05-2.2.45-3.3l3.15-6.15q3.3-6.75 3.85-9.9-2.45 2.45-6 6.8-4.2 5.1-7.05 9.4-1.8 2.7-4.4 3.3-2.25.55-4.25-.55-2.8-1.6-3.5-4.85-.65-2.95.65-6 2.2-4.95 6.75-8.8 3.15-2.65 10-6.7 1.3-.8 1.45-2.15.15-1.4-.95-2-1.35-.55-7.6 1.6-7.15 2.45-17.15 7.3-2.95 1.4-5.85.75-2.75-.6-3.8-2.6-1.75-3.15-.5-6.55t5-5.65q7.55-4.35 24.05-6.55.9-.1 1.05-.65.1-.55-.5-1.3-.8-.95-7.6-1.3-6.75-.4-17.35-.1-4.1.1-6.55-1.75-2.15-1.7-2.4-4.4-.25-2.65 1.4-5.05 1.75-2.5 4.85-3.55 4.35-1.45 11.55-.45l17.3 3.2 4.15.3q.65-.4-.85-2.5-4.6-6.55-4.6-11.4 0-5.7 2.85-9.65"/><path fill="#69308d" d="M213.75 97.75q.6 1 1.45 6.3 1.25 8.25 2.9 11.65 1.25 2.65 3.5 4.5 1.3 1.1 4.35 2.85 3.45 1.9 5.4 3.45 4.1 3.4 4.45 10 .25 4.3-1.1 8.75-1.2 3.75-2.5 5.05l-2.95 2.25q-2.8 1.9-4 3.2-2 2.15-2.55 4.85-1.6 8.1-3.85 12.7t-5.8 7.05q-2.3 1.6-3.9.3-1-.75-1.45-2.3-.45-1.45-.1-2.45l1.4-2.8q1.4-2.75 3.6-8.45l2.45-7.3q.35-1.75-.05-1.9-.4-.2-1.75 1.05-1.45 1.3-6.65 7.55-5.4 6.4-8 9.95-1.7 2.3-3.8 2.55-1.9.25-3.35-1.3-3.55-3.65-.45-9.55 1.7-3.25 6.75-7.45 4.45-3.8 9.05-6.3 1.95-1.05 1.95-3.35-.05-2.2-1.65-3.1-1.2-.65-6.45.95-5.65 1.65-13.15 5-6.95 3.15-9.3 3.55-3.6.7-5.15-2.15-1.55-2.85.5-5.95 2-3.1 6.6-5 5.4-2.2 12.4-3.6l7.75-1.4q2.6-.6 2.95-1.7.2-.6-.2-1.3l-.95-1.35q-1.5-1.75-10.55-1.9l-15.25-.4q-7.65-.8-7.35-5.25.3-4.1 4.95-5.95 3.6-1.4 11-.5 4.7.55 16.65 3.05l5.5.45q2.95-.4.45-3.05-3.15-3.4-4.3-9.65-1.3-6.85 1.5-10.6 2.85-3.75 5.5-3.6 1.35.1 2.45 1.15l1.1 1.45"/><path fill="#5b267d" d="M229.25 152.55q-2.8 1.9-4 3.2-2 2.15-2.55 4.85-1.6 8.1-3.85 12.7t-5.8 7.05q-2.3 1.6-3.9.3l-.3-.25q7.7-7.1 7.7-13.55 0-8.25 6-13.7 3.55-3.15 12.35-8.65-1.2 4.3-2.7 5.8l-2.95 2.25"/><path fill="#0d131a" d="M95.2 176q-2.85-12.6-2.2-12.95.65-.4 3.3 10.05 2.9 11.4 8.05 24.55 6 15.3 11.5 23.45l12.3 18q5.15 7.85-1.25.45-8.9-10.4-17.4-26.3-10.25-19.3-14.3-37.25m15.05-2.8q-1.2-4.95-.65-5.45.55-.5 2.05 5.15 2.85 10.65 6.65 19.75 6.75 16.2 17.4 31.15 7 9.85 1.5 3.2l-6.95-8.6q-13.6-17.1-20-45.2m115.3 8.95q2.3-6.4 3.1-7.95 1.15-2.3.55 2.1-.8 5.8-7.8 18.65-8 14.7-16.9 24-1.4.85-2.2 1.1-1.65.6 1.2-2.1 3.4-3.2 11.8-16.9 8.35-13.6 10.25-18.9m19.15-1.5q2.75-11.55 2.15-4.5-1.1 14-9.45 29.75-9.65 18.15-25.3 30.45l-3.15 1.55q-2.4 1 1.15-1.8 13.8-10.95 23.85-29 7.7-13.75 10.75-26.45"/><path fill="#0d131a" d="M255.55 180.45q.7-3.9 1.1-2.7.4 1.1.2 4.4-.5 10.05-7.95 24.55-5.4 10.55-10.2 16.4-3 3.75-9.85 10.55-6.55 6.55-11.8 11.1-6.65 5.8-13.15 10.15.65-.9 11.2-10.95l15.8-15.35q7-7.15 13.75-19.1 8.4-15 10.9-29.05m-165.9-74.5q1.25-2.15 2.05-2.15.8 0-.7 2.65-9.75 17.1-5.75 51.7 2.2 19.25 8.15 40.55 1.25 4.3 5.15 13.65l5.45 12.7q1.5 3.7-.7.35l-3.6-6.1q-1.05-1.8-3.15-7.1l-1.95-4.95q-9.1-20.55-11.85-49.5-3.25-34.1 6.9-51.8"/><path fill="#fff" d="M161.45 98.75q-.2.6-1.25.75l-2.35-.35q-1.3-.4-2.1-1.1-.8-.75-.6-1.3.2-.6 1.25-.75l2.35.3q1.3.4 2.1 1.15.8.7.6 1.3"/></svg>