<svg xmlns="http://www.w3.org/2000/svg" width="235" height="291" viewBox="-0.6 0.0 234.95 290.5"><path fill="#0d131a" d="M94.8 228.15h2.55l4.5.45.55.45q.25.6-.3 1.7l-2.65 5.7-.85 1.35-.55-.95-.45-1.1-2.7-6.55-.1-1.05"/><path fill="#dbdcdc" d="M98.15 229.3q3.1-.25 3.35.05l-.05.15q-2.45 4.9-3.25 5.7l-2.4-5.8 2.35-.1"/><path fill="#0d131a" d="M145.95 233.35l7.05-.45-.1 1.05-2.7 6.55-1 2.05q-.25 0-.8-1.35l-2.65-5.7q-.55-1.1-.3-1.7l.5-.45"/><path fill="#dbdcdc" d="M152 234.15l-2.35 5.8q-.8-.8-3.3-5.7l-.05-.2q.2-.25 3.4 0l2.3.1"/><path fill="#0d131a" d="M206.95 110q8.6-.6 16.75 3.5 5.35 2.65 7.95 8 2.7 5.6.4 10.5-1.6 3.4-5.95 4.15-4.2.65-9.05-1.45-3.9-1.7-9.55.05-6 1.9-8.05 6.25-1 2.15-4.65 16.1l-5.35 21.85q-3.4 13.2-6.65 19.25-6.65 12.45-19.25 18.35-9.4 4.4-17.05 3.75-4.45-.4-4.75-2.4-.35-2.8 3.1-6.1t9.05-5.45q7.3-2.8 13.6-18.75 5.35-13.45 6.4-25.2 1-11.4 4.7-23.35 4.5-14.7 10.65-20.85 7.45-7.5 17.7-8.2"/><path fill="#ffe100" d="M207.05 133.2q-6.35 2.4-8.65 7.3-1.2 2.45-4.75 16.3-3.9 14.75-6 21.65-3.85 12.7-7.25 19-6.5 12.2-18.1 18.35-8.95 4.7-15.9 4.1-3.2-.35-3.45-2.2-.3-2.15 2.7-5.05 3.3-3.15 8.7-5.2 8.1-3.1 14.6-20.15 5.1-13.45 6.15-24.8.9-10.75 4.8-22.45 4.5-13.85 10.6-19.9 7.2-7.2 16.95-7.95 8.2-.6 16 3.3 4.45 2.2 6.15 6.9 1.55 4.35-.1 7.9-1.4 3-4.55 3.65-3.2.65-7.45-1.2-4.3-1.85-10.45.45"/><path fill="#dcc200" d="M203.05 128.25q4.75-1.4 12.4-.8l10.05.4q4.15-.7 4.2-5.1 1.4 4.1-.2 7.55-1.4 3-4.55 3.65-3.2.65-7.45-1.2-4.3-1.85-10.45.45-6.35 2.4-8.65 7.3-1.2 2.45-4.75 16.3-3.9 14.75-6 21.65-3.85 12.7-7.25 19-6.5 12.2-18.1 18.35-8.95 4.7-15.9 4.1-3.2-.35-3.45-2.2-.3-2.15 2.7-5.05 3.3-3.15 8.7-5.2l5.8-1.3q4.3-.85 7.25-2.5 9.25-5.25 14.25-22.6 2.25-5.15 4.4-22.25 2-15.65 5.85-21.8 4.15-6.65 11.15-8.75"/><path fill="#0d131a" d="M191.25 168.85l.15.15-.05.2q-3.25 11.75-6.1 19.55l-.95 1.55q-.1-2.55-.85-4.75-.8-2.45-2.25-3.75-3.6-3.1-10.15-2.45l-.25-.75.15-.5q2.5-8.75 3.15-15.45v-.25l.3-.05q9.3-1.85 16.85 6.5"/><path fill="#515457" d="M190.55 169.2q-2.9 10.75-5.45 17.8-.6-4-3.3-6.4-3.75-3.25-10-2.8 2.35-8.45 3-14.75 8.6-1.5 15.75 6.15"/><path fill="#383839" d="M185.95 165.3q2.4 1.55 4.6 3.9-2.9 10.75-5.45 17.8-.6-4-3.3-6.4l-.1-.1 4.25-15.2"/><path fill="#0d131a" d="M167 191.1l.1-.3.45-.45q5.6.55 8.4 3.45 2.75 2.85 2.9 8.35l-.5.5q-3.5 5.1-8 8.85l-.65.55-.4-.05q.2-5.45-2.5-8.65-2.35-2.8-5.7-2.95l-.15-.3.3-.55 2.3-3.1q2.7-3.55 3.45-5.35"/><path fill="#515457" d="M175.15 194.7q2.4 2.55 2.55 7.65-3.05 4.4-7.2 8.05-.05-5.1-2.7-8.05-2.2-2.45-5.55-2.9l1.85-2.55q2.6-3.3 3.45-5.25 5.2.55 7.6 3.05"/><path fill="#383839" d="M167.8 202.35q1.05.6 3.8-1.85 2.55-2.3 4.2-5 1.75 2.5 1.9 6.85-3.05 4.4-7.2 8.05-.05-5.1-2.7-8.05"/><path fill="#0d131a" d="M207.85 111.15q5.2-.25 10.6 1.35l.1.05.5.2q3.55 4.95 3.55 10.3.05 2.6-1.2 5.5-1.35 3.05-3.6 5.05l-.15.25-.55-.25q-2.3-1-5.7-.5-3.4.45-6.45 2.15l-.65.35-.5-.25q.95-7.6-1.9-12.6-2.2-3.75-7.15-6.7v-.6l.5-.35q5.8-3.6 12.6-3.95"/><path fill="#515457" d="M218.1 113.2q3.15 4.55 3.15 9.55 0 1.7-.35 3.1-1.4 4.25-3.5 7.1-2.35-1.05-5.7-.65-3.3.35-6.5 2l.15-3.1q0-5.9-2.75-9.95-2.1-3.1-6.4-5.8 5.5-3.25 11.9-3.5 4.9-.25 10 1.25"/><path fill="#383839" d="M205.1 127.8q6.95-1.75 15.3-.6-1.2 3.35-3 5.75-2.35-1.05-5.7-.65-3.3.35-6.5 2l.15-3.1-.25-3.4"/><path fill="#0d131a" d="M27.75 94.05l2.7-3.85q3.3-4.95 2.25-13.85-.15-1.5.45-.95l1.35 2q1.45 2.6 2.5 7.3 3.95-6.95 9.35-10.6 2.45-1.7 6.5-3.15 1.8-.65 2.3-.55.5.1-.5 1-2.05 1.9-3.55 4.3l3.15-1.9q1.8-.8 3.9-1.15L60 72.6l-1 1.2q-1.15 1.8-1.45 3.6 3.4.9 6.7 2.65 5.5 2.85 8.25 6.75l.15.2-2.5 17.3-11.35 1.05q-.85 1.55-10 20.85 4.8 6.15 4.3 11-.35 3.3-3.1 5.5-3.15 2.5-3.3 5.9-.35 6.8-3.15 8.55-1.35.85-3.8.35-2.2 3.15-6.1 3.6-3.2.35-5.9-1.1-1.1 1-3.3.95-2.05-.05-3.9-.95l-3.75.15q-2.45-.65-3.9-3.15l-3.4-.15q-2.95-1.7-6-7.3Q.8 144.6.1 140.9q-.7-4.1 3.5-11.05 2.8-4.65 6.3-8.55 2.2-2.4 14.05-21.45l3.8-5.8"/><path fill="#ffe100" d="M37.25 86.7q2.95-5.75 7.7-9.75 3.15-2.7 6.6-4.2l-3.1 4.9q-.8 1.1-.7 1.4.2.35 1.55-.6l3.8-2.55q2.55-1.65 4.1-2-.85 2.55-.85 3.4l-.85.2q-.8.25-.35.45l1.55.45 5.65 2.05q6.15 2.85 9.05 6.85l-2.3 15.9-11 1-.2.3-4.25 7.9q-4.3 8.35-5.8 12.95l-.6-.3q-.7-.25-1.3 0-.6.3.1.95l1.4 1.2q1.6 1.5 2.8 4.8 1.1 3.05 1.1 5.25l-.15 1.45q-.25 1.05-2.1 3.25l-2.2 2.85q-1.15 1.8-1.4 3.6-.8 5.75-2.8 7.05-1.2.8-3.1.3l-.45-.05-.2.35q-1.95 3-5.85 3.4-3.3.35-5.55-1.05l-.45-.3-.3.45q-.65.85-2.7.85-2.05 0-3.7-.85l-.25-.15-.25.1-2.75.05q-2-.6-3.55-2.55l-.3-.35-.4.15q-1.15.45-2.5-.3-2.55-1.45-5.05-6.45-2.3-4.5-3-8.4l-.1-1.15q0-3.65 3.25-9.3 2.55-4.4 5.55-7.7 2.15-2.4 14.45-22.2l5.95-9.45q2.6-3.9 3.1-9.9 1.15 2.6 1.6 5.6l-.05.55q-.05.55.2.55.45 0 .95-.95"/><path fill="#dcc200" d="M56.65 97.6q.35-.55 6.2-2.45 5.9-1.9 8.15-5l-1.9 13.05-11 1-.2.3-4.25 7.9q-4.3 8.35-5.8 12.95l-.6-.3q-.7-.25-1.3 0-.6.3.1.95l1.4 1.2q1.6 1.5 2.8 4.8 1.1 3.05 1.1 5.25l-.15 1.45q-.25 1.05-2.1 3.25l-2.2 2.85q-1.15 1.8-1.4 3.6-.8 5.75-2.8 7.05-1.2.8-3.1.3l-.45-.05-.2.35q-1.95 3-5.85 3.4-3.3.35-5.55-1.05l-.45-.3-.3.45q-.65.85-2.7.85-2.05 0-3.7-.85l-.25-.15-.25.1-2.75.05q-2-.6-3.55-2.55l-.3-.35-.4.15q-1.15.45-2.5-.3-2.6-1.45-5.25-6.75l2.7.45 2.25-.3q2.5 1.85 5.95.4.75 1.35 2.9 1.35 2.2 0 3.45-1.35 5 2 7.6-.3 1.65-1.5 1.65-3.25l2.75-3.4 2.15-3.3q-.6 2.9 0 4.4.6 1.55 2.2.45 2.75-2.05 4.35-9.1 1.7-7.5-.25-12.1-1.15-2.7 13.8-25.1"/><path fill="#0d131a" d="M35.55 109.25l-4.1.85q2.45.35 5.45 1.75 3.4 1.6 4.5 3.35.65 1.1-2.45.6l-7.55-.75q3 1.65 4.2 3.25l.5 1-1.2-.3q-2.1-.6-7.5-.85-7.65-.35-14.4 1l-.45-.35.5-.75 5.7-8.8.1-.1.35-.45q4.9-1.4 8.2-1.5 3.45-.15 8.2 1 1.65.45 1.35.7l-1.4.35"/><path fill="#515457" d="M28.75 110.7l4.25.5q4.65 1.05 7.05 3.95l-6.9-.8-3.15-.05-.55.1q-.4.15.4.6l2.05 1.15 2.15 1.9q-4.6-1.15-8.4-1.35-5-.2-11.5 1.05l5.35-8q4.85-1.4 7.1-1.6 3.15-.3 7.25.7l-5.2 1.1q-1.5.45-.85.65l.95.1"/><path fill="#0d131a" d="M59.7 91.25q.3-1.6.55-1.8.35-.2.9 1.3l2.15 4.15q.2-3.85.6-6.4.15-.85.4-.85.3 0 1 .9l3.65 4.7 1 1.6 1 1.75.05.1-1.05 7.4-7.05.65-.5-.2q-2.2-2.95-2.7-6.55-.35-2.45 0-6.75"/><path fill="#515457" d="M60.45 91.1q1.25 3.25 3.1 6 .65 1.2.7-.2v-1.45q0-4.75.25-6.65.9 2.05 3.55 5.3l2.2 2.8-.95 6.5-6.05.55q-1.7-2.35-2.3-5.1-.5-2.1-.5-5.3V91.1"/><path fill="#383839" d="M64.25 96.9v-1.55l4.4-.55 1.6 2.1-.95 6.5-6.05.55q-2.4-3.4-2.75-8.1l2.1-.3.95 1.55q.65 1.2.7-.2"/><path fill="#0d131a" d="M46.4 98.75l-.9-.55 1.05-.15q3.6.5 6.6 2.25 2.15 1.25 5.65 4.2l.7.55-.85.1q-2.5 4.5-5.7 10.9l-.25.5-.35-.4q-6.3-7.45-12.45-9.2-.95-.25-.9-.4l.8-.35 5-.7q-4.45-3.35-6.5-3.75l-1.15-.3 1.15-.4 6.15-.65 4.9.55q-1.5-1.65-2.95-2.2"/><path fill="#515457" d="M50.25 101.85q1.15.35.4-.55l-.9-1.05-1.35-1.15q4.1 1.1 9.6 5.7-2.5 4.5-5.45 10.4-3.15-3.7-5.2-5.4-2.85-2.35-5.85-3.2l2.25-.4 2.1.05q1.8.15.2-.65-3.45-2.9-6.3-4.1l6.9-.2 3.6.55"/><path fill="#383839" d="M53.7 101.7q2.2 1.3 4.3 3.1-2.5 4.5-5.45 10.4-2.9-3.4-4.95-5.15l3.15-4.15 2.95-4.2"/><path fill="#0d131a" d="M30.6 90.4q1.7-2.4 6.85-3.75 4.8-1.25 8.95-.75 1.6.2 0 .75-1.45.3-3.7 1.3l3.35.15 3.45.35q2.1.45.05.75-4.5.7-7.9 2.15 1.6.7 2.75 2.2l.5.8-1.4.1q-4.75.2-11.15 2.85-6.15 2.5-8.25 4.9l-.05-1.4 6.55-10.4"/><path fill="#515457" d="M36.2 88.2q3.8-1.35 7.7-1.55-1.9.7-2.8 1.25-.7.4 1.5.7l4.15.4-3.45.95q-2.05.65-2.8 1.05-1 .6.1.7 1.6.45 2.8 1.65-4.05.2-9.25 1.95-5.1 1.75-8.25 3.9l4.85-7.7q1.35-1.85 5.45-3.3"/><path fill="#0d131a" d="M7.95 146.1q-.45-.95-.15-1.4.35-.45 1.05.65l1.3 2.3 1.55 3.45 3 6.45-2.3-1.35-.8-2.05-1-2.55-2.65-5.5m5.25.3q-.55-1.35-.05-1.35.4 0 1.05.7.45.45.95 1.65l1.2 2.75 2.45 5.15q1.55 3 2.7 4.05l-2-.25q-1.3-1.15-2.4-3.75l-1.85-4.7-2.05-4.25m6.85-.75q-.5-1.05-.15-1.2.3-.1 1 .4.55.4 1.15 1.7l1.35 3.35q3.45 8.3 5.9 9.5l-2.05.1q-1.75-1.2-2.9-3.9l-2.05-5.2-2.25-4.75m13.55-.5q.6-3.35 1.75-4.95l.95.65q-.95 1.4-1.55 4.45-.75 3.85.3 6.5.6 1.55 2.15 2.7 1.6 1.2 3.8 1.6 1.85.3.3.75l-1.9.4q-3.8-.9-5.45-5-1.15-2.95-.35-7.1"/><path fill="#0d131a" d="M36.05 136.2q.15-.95.55-.85.4.1.6 1.05.3 1.35-.75 4.35-1.35 3.7-3.75 5.05l-1.3.05q-.4-.4.6-1 .9-.55 2.45-4.15 1.35-3.15 1.6-4.5M173 162.75q1.4 4.25 2.25 9.55.75 4.8.75 8.65 0 10.6-5.35 19.1-2.85 4.6-6.85 7.9l4.85 10.2q3.1 6.75 4.2 9.9 5.4 6.25 18.7 15.25 7.05 4.8 9.9 7.35 4.35 3.95 5.2 7.55 1.05 4.5-2.2 7.95-1.5 1.65-8.05 6.05-6.9 4.6-13.7 6.5-7.75 2.1-10.95-.75-2.35-2.05-4.35-4.9l-3.75-5.95-4.55-7.85q-3.5-5.7-7.9-11.4l-2.3-3.3q-1-1.8-1-3.3 0-2.6 1.2-5.9.75-2.1 1.6-3.55-.65-2.2-1.85-4.9-1.9-4.4-3.8-6.85-15.75 5.45-31.25 3.25-10.65-1.55-20.55-6.6-2.45 1.8-1.35 6.1.75 3 1.9 4.5 1.15.25 3.25 2 2.6 2.15 3.2 4.35 1.45 5.6-10.5 14-3.15 2.25-10.1 8.4-5.25 4-8.5 5.35-3.7 1.5-7.7 1.05-6.85-.9-14.4-4.55-10-4.9-11.95-11.5-.6-2-.6-3.05 0-5 8.65-9.7 4.7-2.55 15.75-6.55l7.1-2.35q-5.35-10.7 4.6-20.05l1.9-2.3q-4.85-7.45-7.05-13.6-2.3-6.4-2.3-12.75 0-7.3 2.2-15 1.95-6.75 6.4-16.3 2.9-6 2.9-9.65 0-6.05-3.2-12.2l-3.2-5-.75-.85 1.15-.15 30.9-2.2q30.35-1.7 36.65.3l.1.05.85.7q25.35 22.05 33.85 47"/><path fill="#ffe100" d="M173.15 179.5q0 11.2-5.3 19.85-2.65 4.35-5.4 6.5l-.9-1.65q-.7-1.35-1.3-.9-.6.45-.1 1.65l4.65 9.55q4.6 9.5 6.25 14.3l.1.2q3.25 3.75 8.55 7.85 3 2.35 9.4 6.7 7.05 4.8 9.8 7.15 4.4 3.75 5.55 6.95l.2 1.35q0 2.4-2.45 5.4-2.45 3-6.85 5.95-6.35 4.25-12.8 5.9-6.95 1.8-9.8-.75-2.2-1.95-4.05-4.5l-3.45-5.5-4.9-7.9q-3.65-5.5-8.3-11.45-3.05-3.9-1.95-8.8l1.7-4.1 1.5 1.2q1.3.9.4-.75l-3.55-8.1q-3.05-6.75-5.25-9.35-.65-.75-1.1-.65-.45.1-.3.65l.15 1.8q-15.85 5.6-33 2.35-11.9-2.25-20.8-7.6-1.6-.95-1.7-.3-.05.5.5 1.4.45.8 2.65 2.05-.9.75-1.3 2.35l-.35 2.8q-.25 2.65 1.2 5.1l1.6 2.05.95.2q1.6.4 3.1 1.85 1.65 1.55 2.05 3.35.8 3.3-2.95 7.2-2.3 2.35-9.25 7.4l-5.75 4.3q-6.05 4.65-8.75 6.15-4.35 2.4-7.75 1.95-6.2-.8-13.65-4.8-9.5-5.05-11.3-11.4l-.2-1.15q0-4.4 9.7-9.4 5.3-2.75 16.05-6.6l4.65-1.8.55-.25-.3-.55q-2.05-3.9-2.05-7.4 0-3.85 2.45-7.45 1.35-2 4.4-4.85l.8-.8.3-.5 2.15 2.15q4.65 2.65 1.1-1.25-5.5-6.05-8.5-15.15-2.5-7.7-2.5-14.95 0-8.35 2.85-17.25 1.6-5.05 5.1-12.55 2.15-4.6 2.15-9.6 0-5.3-2.35-10.7-1.5-3.4-3.65-6.4l32.4-2.25q27.6-1.45 33.5.35l.6.55q22.7 19.7 32.05 47.2 2.75 8.2 2.75 15.65"/><path fill="#dcc200" d="M170.4 163.85q2.75 8.2 2.75 15.65 0 10.7-4.95 19.2-2.6 4.45-5.75 7.15l-.9-1.65q-.7-1.35-1.3-.9-.6.45-.1 1.65l4.65 9.55q4.6 9.5 6.25 14.3l.1.2q3.25 3.75 8.55 7.85 3 2.35 9.4 6.7 7.05 4.8 9.8 7.15 4.4 3.75 5.55 6.95l.2 1.35q0 2.4-2.45 5.4-2.45 3-6.85 5.95-6.35 4.25-12.8 5.9-6.95 1.8-9.8-.75-1.4-1.25-.6-4.6.7-2.95 2.8-6.1 1.5-2.25 10.9-5.55 11.2-3.9 12.05-4.4 2.55-1.5-9.2-10.05l-15.45-10.35q-2.1-1.35-7.5-1.1-4.5.25-4.85-1.25-.7-3.4-4.65-8-4.85-5.7-9.15-4.6l-2.2-3.25q-.65-.75-1.1-.65-.45.1-.3.65l.15 1.8q-12.4 4.4-25.8 3.3 12.7-.9 21.55-8 13.45-10.85 12-33.15-1.75-25.95-25.8-38.85-10.5-5.6-23.25-7.25-12.5-1.6-24.5.9-.05-5.25-2.4-10.65-1.5-3.5-3.6-6.35l32.4-2.25q27.6-1.45 33.5.35l.6.55q22.7 19.7 32.05 47.2m-85.85 58.3q.1-6 4-8.4l.1.15q.45.8 2.65 2.05-.9.75-1.3 2.35l-.35 2.8q-.25 2.65 1.2 5.1l1.6 2.05.95.2q1.6.4 3.1 1.85 1.65 1.55 2.05 3.35.8 3.3-2.95 7.2-2.3 2.35-9.25 7.4l-5.75 4.3q-6.05 4.65-8.75 6.15-4.35 2.4-7.75 1.95-1.4-.15-1.5-2.7-.15-2.8 1.65-6.5 1.35-2.8 13.9-7.85 12.5-5.05 13.3-7.05 1.05-2.65-.95-4.15l-2.9-1.55q-3.15-2.9-3.05-8.7"/><path fill="#0d131a" d="M88.3 215.1l-.7.4-5.45.7 1.2.45 1.45.45.8.4-.7.35q-5.55 1.9-11.3-.05-5.65-1.95-5.75-5.6l.95-1.95q.85-1.65 1.95-2.95l2.05-2.1.4-.4.6-.05q.85 2 5.2 4.55 3.85 2.3 6.05 2.75l.5.35-.6.4-1.7.2-2 .1 3.05 1.05 3.2.6q.95.05.8.35"/><path fill="#515457" d="M83.15 217.45q-3.05.55-6.25-.1-3.3-.6-5.5-2.2-2.4-1.7-2.55-3.85 1.4-2.6 4.15-5.25 2 3.85 9.75 6.15l-2.75.35q-2.2-.05-1.4.3l1.25.4 1.6.75 3.9 1.2-2.15.3h-2.45q-1.6-.1-1.05.3l.85.4.85.5 1.75.75m-4.05 7.7l.3-.7.35.1-.2.75-.05-.05-.35-.1h-.05"/><path fill="#0d131a" d="M161.35 206.15l.6.4 4.5 9.05v.7q-2.85 1.8-5.75 2.85l-6.65 1.7-.8-.05q-.55-.2.55-.65 1.1-.5 2.15-1.55l1.45-1.8-7.55.85-.7-.15q-.45-.25.6-.6 2.2-.75 5.35-3.5l-3.7-.1-.8-.1q-.55-.2.65-.65l4.9-2.8 5.2-3.6"/><path fill="#383839" d="M158.75 215.5q-1.85.7-6.75 1.25l3.3-2.2 1.55-1.35q1.35-1.05-.05-.85l-1.75.2h-1.9q4.6-2.15 8.5-4.9l3.8 7.7q-4.2 2.6-9.4 4.15l2.15-2.2.95-1.2q.95-1.1-.4-.6"/><path fill="#515457" d="M78.65 154.85l.05-.05.5.55-1.1 1.3-.6-.45 1.15-1.35"/><path fill="#0d131a" d="M78.6 150.25l-.05.1 4.4-3.4q1.15-.85 1.4-.55.25.3-.65 1.55-4.2 5.85-4.8 7.05l3.5-2.7q.95-.65 1.3-.4.35.25-.35 1.4-4 6.9-7.45 14.35-5.65 12.2-6.95 20.35l-1.05-3.45q-1.7-6.75-.25-17.2 1.3-8.9 3.95-15.7l.7-1.55 4.55-3.95 4.35-3.55q.9-.65 1.4-.55.45.15-.15.9-.6.85-1.9 3.25-1.3 2.45-1.95 4.05"/><path fill="#515457" d="M79.05 147.35q-.85 1.7-1.15 2.65l-.6 1.5.65.05 3.3-2.4 1.05-.95q-1.55 2-2.95 4.45l-1.55 2.95q-.5.95-.45 1.25.1.3.75-.2l4.15-3.2q-10.8 15.8-13.95 29.35-.55-2.8-.55-6.6 0-6.05 1.45-13.15 1.25-6.3 3.1-11.05l3.45-3.35q3.4-3.4 5.15-4.7-.95 1.45-1.85 3.4"/><path fill="#0d131a" d="M165.15 149.3l.65.95.2.45q2.95 5.95 5.3 12.8 1.95 5.85 2.55 11.35l.05.25-.2 1.15q-6.2 3.95-12.15 9.85-5.35 5.3-8.1 9.65l-1.2 1.75.1-1.8q.5-4.35.9-6.3.25-1.2.85-2.85-4.35 3.7-10.35 12.75-3.45 5.2-6 9.85-1.4 2.5-1.95 2.2-.5-.2-.2-2.6.7-5.6 3.55-13.75 2.65-7.75 5.9-13.95l-4.8 3.55q-1.4 1.35-1.75 1.1-.5-.25.45-2.95 2.8-8.3 12.45-19.55 6.75-7.85 13.75-13.9"/><path fill="#515457" d="M162.1 183.1q-5 4.75-8.55 10.95.15-1.5 1.1-4.8.95-3.55 1.65-4.95l.55-1.5q-.1-.05-1.25.75-3.1 2.1-8.1 8.6-3.75 4.9-7.5 10.7l-2.95 4.4q1.3-6.2 5.4-16.65 3.8-9.75 5.35-11.65l.6-.9-1.15.45-3.5 1.95-3.05 1.9q3.85-8.7 12.4-18.45 5.7-6.5 12.45-12.4 3.05 6.4 5.05 12.25 1.9 5.7 2.5 11-6.8 4.35-11 8.35"/><path fill="#383839" d="M170.6 163.75q1.9 5.7 2.5 11-6.8 4.35-11 8.35-5 4.75-8.55 10.95.15-1.5 1.1-4.8.95-3.55 1.65-4.95l.55-1.5q-.1-.05-1.25.75-1.65 1.15-4.4 4.15.15-10.8-2.4-18.6 7.2-9.25 16.75-17.6 3.05 6.4 5.05 12.25"/><path fill="#0d131a" d="M80.55 187.25q-.25-.35.1-2.7 2.45-16.8 8.1-30.85l9.2-19.4 4.55-10.1q1.95-5.05 2.25-9.15v-.3l.35-.05q27.25-1.35 33.05.5l.05.05 4.45 3.95.35.55q-6.15 5.9-11.75 16.65-4.7 8.95-12.2 27.55 3.25-2.55 9.2-5.15 4.35-1.9 7.2-2.7l1.9-.2q.15.25-.9 1.3l-4.95 5q4.05-2.85 6.65-4.15 3.85-1.9 7.65-2.25l1.55.2q.3.3-.6.8l-3.3 2.4q-2.65 2.15-3.95 3.85 3.95-1.75 6.3-1.95 1.3-.1 1.4.25l-.75 1.05q-7.75 7.6-17.5 23.85-11.05 18.45-13.3 30.4-.75 3.85-2.15.3-3.7-8.85-3.5-18.9.2-11.55 5.7-22.55-3.95 1.6-14 8.85-10.35 7.4-14.05 11.5-1.15 1.3-1.7 1.2-.65-.15-.7-1.85-.1-2.75.45-6.6.8-5.5 2.7-9.8l-3 3.4-3.05 3.8q-1.45 1.75-1.8 1.25"/><path fill="#515457" d="M141.6 119.25q-7.9 7.7-14.05 20-3.75 7.5-9.45 22.95l-1.55 4.2-.45 1.1 1.05-.7q1.95-1.75 7.95-4.9 6.05-3.25 9.55-4.35-3.95 3.6-5.9 6.85-.9 1.55.55.5 2.6-1.85 6.15-3.9 5.65-3.2 9.3-3.95l-4.65 3.8q-1.55 1.5-3.35 3.95-.65 1.15.5.55l3.1-1.35 4.2-1.35q-9.7 9.65-18.35 24.2-9.35 15.7-12 28.4-2.1-6.45-2.1-13.35 0-6.7 2.75-16.6 2.05-7.5 3.75-11l1-2.4q-.15-.25-2.35.75-5.25 2.5-13.2 7.7-11.8 7.7-17.25 14.3l-.15-2.15q0-2.65.85-6.95.75-3.65 1.75-6.7.8-2.45.65-2.7-.2-.4-2.35 1.65-4 3.8-5.2 5.85 2.75-15.85 7.8-29.55 2.9-7.95 8.45-19.45 3.35-6.85 4.55-10.05 1.95-5.05 2.3-9.15 26.4-1.35 32.4.45l3.75 3.35"/><path fill="#383839" d="M137.85 115.9l3.75 3.35q-8.55 8.3-15.35 22.65-9.55-4.65-16.2-5.2l-12.8.75 1.35-2.8q3.35-6.85 4.55-10.05 1.95-5.05 2.3-9.15 26.4-1.35 32.4.45"/><path fill="#0d131a" d="M156.85 229.55l-.65-.1q-.45-.2.5-.6l6-3.05-3.7-.2-.65-.15q-.45-.2.6-.6 1.25-.45 4.1-2.2l4.75-3.25.6.45.2.4 3.05 7.4.25.95q-1.7 2.5-3.5 3.3l-5.65.85q-3.5-.05-1.15-1.2l2.8-1.95-7.55-.05"/><path fill="#383839" d="M158.35 228.85l5.9-2.75q1.2-.7.65-.85l-3.8-.3q3.4-1.35 7-3.95l2.8 6.75q-1.6 2.25-3.8 3.1l-4 .6 2.65-1.9q2.2-1-.2-.65l-3.7.1-3.5-.15"/><path fill="#0d131a" d="M83.15 222.1q1-.15 1 0l-.75.65q-1 .75-4.15 2l3.95.65 3.6.5q2.15.2-.05.75l-3.8.5 5.5 1q1.05.05.95.35-.1.25-1 .4-5.95 1.1-11.4.25-5.85-.95-8.3-3.85-1.9-4.95-2.05-6.8l.35-1.3q1.6 2.1 7.25 3.75 5.4 1.5 8.9 1.15"/><path fill="#515457" d="M83 226.45l-2.25.2q-2 .1-1.2.45l1.15.3 4.6.95q-12.05.6-16.4-4.5-.9-1.9-1.3-4.15 3.9 3.45 14.1 3.15l-2.4 1.05-1.75.6q-.7.25-.4.5.15.15.45.2l6.45 1.05-1.05.2"/><path fill="#0d131a" d="M184.05 67.4q-.1-1.4.35-1.9.5-.55 1.4.8 3 4.7 3.95 11.35.35 2.45.6 10.6.7-.85 1.6-3.45l1.55-4.5q.65-1.9 1.1-1 .35.65.8 3.45.55 4-1.3 13.6-.5 2.6 1.15 8.1l3.7 11.2 4.3 14.05q2.15 8.3 2.55 15.95l.65 11.85q-.1 7.1-2.95 10.75-1.9 2.45-4.2 4.35-3 2.55-5.15 2.65-.55.05-1.15-.4l-1.05-.9q-2.35 1.35-3.9 1.3-1.3-.1-2.75-1.25-4.8 2.65-8-.95l-3.3.4q-1.85-.3-3.35-1.35-2.05.75-4.45 0-2.25-.65-3.95-2.3-1.4-1.4-2-3.95-.4-1.75-.5-4.6-.1-1.75-1.25-5.45-1.1-3.65-1.1-4.25 0-2.75.5-4.25.7-2.1 2.75-4 3.85-3.5 5.2-6.65 1.9-4.35 1.4-12.05-.65-11.4-1.4-13.5-7.15 2.85-12.75 5.25-10.75 4.6-13.45 6.85l-3.4.15q-2.55-1.3-4.75-5.55-2.25-4.45-2.25-8.65l.05-1q.45-6.1 6.15-8.05l-.6-.6q6.5-2.15 15.7-7 10.35-5.4 12.25-8.35 4.3-6.65 10.85-8.9l1.2-3.55q1-3.05 1.15-5.2.1-1.55.3-1.85.35-.65 1.4.6 1.3 1.55 2.65 5.45 1.1 3.15 1.8 6.55.7-1.2 1.35-4.95.65-3.5.55-4.9"/><path fill="#ffe100" d="M179.45 72.15q1.55 4.2 1.75 6.55.1 1.8 1.15.45 1.6-2.15 2.2-4.25.4-1.6.65-5.4 1.95 3.8 3.25 11.1 1.2 6.75.75 8.85-.35 1.7-.05 1.7l1.3-1.05q1.15-1.1 3.3-6.2l.2 1.95q.15 1.65-.1 3.15l-.3 2.65-.6 4.45-.2 2.15q0 2.95 1.3 8l2.9 10.1 4.2 14.6q2.1 8.6 2.5 15.45l.4 5.5.4 6.65q0 2.7-.5 4.65-.6 2.25-2 4.05-4.75 6.15-7.85 6.3-1 .1-1.6-.65l-.3-.3-.4.15q-2.4 1-3.75 1.05-1.3 0-2.25-.95l-.35-.4-.45.35q-.7.55-2 .65l-2.5-.2q-1.8-.5-2.2-1.45l-.3-.65-.55.35q-1.3.75-2.9.55-1.65-.15-3.05-1.25l-1.25-.3q-1.6.7-3.55.05-1.8-.6-3.35-2.15-1.2-1.2-1.75-3.25-.35-1.25-.65-4-.4-3.5-1.1-5.35-1.35-3.45-.55-6.4.75-3 3.8-5.75 4.15-3.75 5.4-7.3 1.35-3.95 1-12.45-.3-7.85-1.1-11.85l-.95-3.25-.9-2.05q-.65-1.3-1.1-1.6-.85-.65.35 3.85-7.1 3.05-12.85 5.65-11.05 5.1-14.05 7.6l-2.1.05q-2.45-1.25-4.5-5.55-2.1-4.5-1.8-8.5.35-5.35 5.35-7 6.6-2.2 16.2-7.4 10.55-5.7 12.6-8.9 1.65-2.65 6.1-5.9 2.2-1.6 4.1-2.75 1.7-4.4 2.35-8.85.75.5 2.25 4.7"/><path fill="#dcc200" d="M136.8 122.3q-2.45-1.25-4.5-5.55-2.1-4.5-1.8-8.5.35-5.35 5.35-7 5.85-1.95 14.65-6.6 9.6-5.05 13.05-8.4-6 8.6-7.05 15.5-1.1 7 3.3 9.85-17.2 7.55-20.9 10.65l-2.1.05m53.5-23.5q.4-6.3 1.6-8.2.95-1.4 1.2-3.45.3-2.4.65-3.25l.2 1.95q.15 1.65-.1 3.15l-.3 2.65-.6 4.45-.2 2.15q0 2.95 1.3 8l2.9 10.1 4.2 14.6q2.1 8.6 2.5 15.45l.4 5.5.4 6.65q0 2.7-.5 4.65-.6 2.25-2 4.05-4.75 6.15-7.85 6.3-1 .1-1.6-.65l-.3-.3-.4.15q-2.4 1-3.75 1.05-1.3 0-2.25-.95l-.35-.4-.45.35q-.7.55-2 .65l-2.5-.2q-1.8-.5-2.2-1.45l-.3-.65-.55.35q-1.3.75-2.9.55-1.65-.15-3.05-1.25l-1.25-.3q-2.65 1.15-5.8-1.1 2.65-1.7 2.45-6.15-.3-5.8-.05-6.55.75-2 1.85-2.6l1.55-1.05q.45-.6 1.1 2.8 1.65 4 6.35 5.3l4.6-.25q3.35-1 4.95-1.05l7.8.3q4.4.05 5.6-1.55 2.95-3.85-2.5-23.15-6.6-20.7-7.4-25.4-.85-4.9-.45-11.25"/><path fill="#0d131a" d="M178.15 89.8l-.35-.4q-.2-.35.65-.2 8.6 1.45 15.2 7.95l.05.9q0 3.1 2.75 12.85l-.1 1.65q-3.55-3.25-9.3-6.3-5.1-2.7-7.35-3.05l-1.15-.3q-.2-.15.35-.65 1.95-1.6 3.05-2l-5.25-1.95q-3.95-1.25-4.9-1.25l-1.05-.15q0-.25.85-.8 1.95-1.3 5.2-2.1l4.35-.65q-1.4-2-3-3.55"/><path fill="#515457" d="M182.65 93.7l-2.95-3.4q7.4 2.05 13.3 7.9 0 3.05 2.4 11.75-3.45-2.95-7.2-4.7-3.35-1.6-8.05-2.8 2.05-1.55 3.3-1.75.9-.15.05-.65-5.5-3-10.45-3.6 2.65-1.4 5.85-1.9l3.45-.25q.95.05.3-.6"/><path fill="#383839" d="M190.3 95.85l2.7 2.35q0 3.05 2.4 11.75-2.55-2.15-5.1-3.6-.65-5.55 0-10.5"/><path fill="#0d131a" d="M186.05 108.15q1.15.2.1.7-.85.4-3.85 2.95-3.15 2.6-4.1 3.8l2.55-.35 1.35.15q.45.15-.3.65-1.25.85-5.75 5.5-5.15 5.3-6.8 8.05l-.65.6-.05-6.25q-.25-6.3-.8-10l-.05-.15.1-.55q5.05-5.15 10.3-5.5.7-.05.25.75l-.9 1.35q4.45-2.05 8.6-1.7"/><path fill="#515457" d="M175.45 111.35l.75.05 3-1.5q2.5-1 5.4-1.05-2.65 1.6-5.4 4.5l-2.3 2.75-.3.45.75.1 1.6-.5 1.7-.15q-7.25 5.5-11.15 11.4l-.8-13.5q4.45-4.55 8.75-5.3l-1.7 2.25-.3.5"/><path fill="#0d131a" d="M204.6 146.35v.25q.05 1.95-.35 1.6-4.1-3.8-9.8-7.4-5.45-3.4-8.6-4.3-1.05-.3.75-.85l4.4-.9-11-5-.55-.25q-.35-.3.7-.45l5.7-.25 5.8-.2-3.05-3.5-.45-.4q-.25-.35.75-.25l4.95.8q4.3.85 7.35 2.3l.4 1.35q2.55 10.05 3 17.45"/><path fill="#515457" d="M192.35 129.3q1.15.2.3-.55-1.25-1.8-2.65-3.25 5.75 1.3 10.95 3.75 2.35 9.3 2.85 16.25-6.45-5.75-15.9-9.45l4.55-.7q.95-.05.1-.7l-10.75-4.9 6.7-.3 3.85-.15"/><path fill="#383839" d="M200.8 143.1l-2.65-7.95q-1.8-5.15-2.5-8.05 2.6.9 5.3 2.15 2.35 9.3 2.85 16.25l-3-2.4"/><path fill="#0d131a" d="M163.1 110.7l.2.35-9.35 4.2-.2-.25q-2.15-3.1-3.45-7-1.3-4-1.1-7 .2-2.95 1.9-.65l1.35 1.95q.2-2.05.9-4.75.35-1.5.55-1.6.35-.25 1.35 1.3l1.9 3.6 1.05-1.8q.8-1.1 1.15-1 .35.1.5 1.35.3 2.25 1.1 5.35 1 3.75 2.15 5.95"/><path fill="#515457" d="M153.25 104.4q.4-4.5 1.15-6.9.95 2.55 2.5 5.5.3 1.45.7-.1.25-1.1.8-2.25.5-1.1.5-.85 0 2.7 1.05 5.7.75 2.1 2.35 5.2l-8.1 3.6q-4.05-6-4.05-12.9l1.2 1.45 1.2 1.75q.6.9.7-.2"/><path fill="#383839" d="M156 101.25q-1.7 6.95-1.65 13l-.15.05q-4.05-6-4.05-12.9l1.2 1.45 1.2 1.75q.6.9.7-.2.4-4.5 1.15-6.9l1.6 3.75"/><path fill="#0d131a" d="M168.85 159.7q-4.5-1.75-3.8-9.7.1-.9.55-.4.5.45.4 1.5-.5 4.7 3.5 6.55l-.65 2.05"/><path fill="#0d131a" d="M186.15 160.85q.35.45-.15 1.2l-6.05 8.5q-1.5 2.05-3.6 2.65-2.8.85-5.9-1.25l-1.55-1.45q-1.05-1.35-1.25-3.1-.2-1.55.65-8.15.8-6.05 1.1-7.1.2-.85.7-.85.5 0 .45 1.15-1.15 12.95-.95 14.7.3 2.85 3.65 4.05 3.4 1.25 5.4-1.3l4.65-6.15 1.8-2.5q.7-.9 1.05-.4m8.85 4l-4.65 4.45-4.65 4.45-.9-.1q-.7-.25.25-.9l2.2-1.9 2.25-2.35q2.25-2.35 4.35-4.15.6-.6 1.35-.4.7.25-.2.9m-3.3 8l4.5-4 3.55-3.6q.5-.75.95-.4.45.35-.05 1.15l-3.7 3.8-4.55 4-1.05.05q-.8-.1.35-1m-149.75 68.9l1.25.25 1.1.75q1.35 1.3 1.85 5.9.45 3.6.2 5.1-.1.5-1.6.85l-3.9.95q-2.2.7-5.55 2.75-2.95 1.85-5.55 3.95-1.05.9-1.5.6-.35-.2-.65-1.5-.35-1.55-.05-3.8.4-3 1.95-5.85 1.75-3.15 6.1-6.45 4-3.1 6.35-3.5"/><path fill="#fff" d="M29.2 261.1q0-5.75 1.9-9.2 1.6-2.95 5.75-6.15 4-3 5.3-2.7 1.9.5 2.85 4.55.8 3.45.4 4.55-.2.5-1.7 1l-2.5.7q-3.65 1.05-7.7 3.85-2.7 1.85-4.3 3.45v-.05"/><path fill="#dbdcdc" d="M45.4 250.05v2.1q-.2.5-1.7 1l-2.5.7q-3.95 1.15-8.7 4.55 5-8.65 12.2-11.85l.7 3.5"/><path fill="#0d131a" d="M63.4 250.05q.75.95 1.25 2.95.55 2.15.45 4.1-.1 2.4-1 3.45-.7.85-2.5 1.35l-3.35 1.7q-1.8.7-8.45 5.6-2.3 1.75-3.1 1.9-1.15.25-1.7-1.45-1.9-5.95.65-10.2 1.75-2.9 7.2-7.25 5-4 6.6-4.3 2.1-.4 3.95 2.15"/><path fill="#fff" d="M63.5 254.2q.3 1.4.25 3.15-.1 1.65-1.25 2.55l-2.7 1.3q-1.65.7-4.2 2.2l-4.1 2.8-2.95 2.25-1.9 1.15q-.4-.2-.65-2.45-.3-3.1 1-6.55.9-2.45 5.45-6.45 4.1-3.6 5.9-4.25 3.05-1.05 4.25 1.7l.9 2.6"/><path fill="#dbdcdc" d="M63.75 257.35q-.1 1.65-1.25 2.55l-2.7 1.3q-1.65.7-4.2 2.2l-4.1 2.8-2.95 2.25-1.9 1.15-.4-1.25q2.75-5.45 6.9-9.5 4.4-4.3 9.8-6.5.85 2.35.8 5"/><path fill="#0d131a" d="M200.2 257.75q.5-.3 1.25-.5l1.2-.05q2.25.8 5.7 4.55 3.7 4 4.85 7.4 1.05 3.05.95 6.1-.1 2.2-.7 3.75-.5 1.2-.9 1.35-.45.2-1.35-.85-2.1-2.45-4.8-4.85-2.9-2.6-5-3.7l-3.55-1.55q-1.4-.6-1.55-1.15-.4-1.4.85-5.25 1.35-4.1 3.05-5.25"/><path fill="#fff" d="M202.25 258.45q1.35-.1 4.75 3.6 3.55 3.85 4.65 7 1.3 3.9.25 9.4v.1q-1.25-1.8-3.65-4.15-3.5-3.45-6.9-5.15l-2.35-1.1q-1.4-.75-1.5-1.3-.2-1.15 1.2-4.4 1.6-3.8 3.55-4"/><path fill="#0d131a" d="M185.1 265q1.85.7 5.4 4.5 4.35 4.6 6.2 9.25 1.85 4.55-1.05 10.15-.85 1.6-1.9 1.2-.8-.35-2.8-2.45-5.6-6-7.3-7l-3.05-2.2q-1.7-.85-2.25-1.75-.7-1.2-.4-3.6.25-1.95 1.2-4 .85-1.85 1.75-2.7 2.25-2.15 4.2-1.4"/><path fill="#fff" d="M179.3 273.55q.35-2.8 2.1-5.45 1.6-2.5 4.5-.95 1.65.95 5.05 5.2 3.8 4.7 4.25 7.25.7 3.65-.15 6.65-.65 2.3-1.05 2.3l-1.65-1.5-2.55-2.7-3.5-3.4-3.8-2.9q-1.9-1.25-2.4-1.8-1-1.05-.8-2.7"/><path fill="#dbdcdc" d="M195.2 279.6q.8 4.25-.45 7.5-3-10.6-12.3-20.05l3.45.1q1.65.95 5.05 5.2 3.8 4.7 4.25 7.25"/><path fill="#0d131a" d="M123 1.85Q125.25 0 125.75 0q.7.05-.4 3.1-8.75 25.1-9.55 63.15 3.55.95 7.35 3.55 3.25 2.2 4.65 4.05l7.15-5.5 6.6-4.8q-1.7-4.9.5-7.95 2.4-3.3 6.15-3.45 3.6-.15 6.1 2.65 1.4 1.55 1.7 4.15.35 2.45-.45 4.15-1.6 3.6-5.25 4.35l-4.6-.15-10.35 17.3 2.35 4.65 3.05 6.75q.6 1.7 2.15 2.9.95.8 3.75 2.3l3.95 2.05q2.7 1.45 4.95 3.05 3.95 2.8 3.1 6.85-1.1 5.25-11.1 9.05-10.85 4.15-19.55 8.05l-11.55 5.35-9.6 4.3q-7.65 3.05-12.15 2.95-5.6-.1-12.7-4.55-4.15-2.6-12.15-6.7-17.4-8.9-20.45-10.65-4.6-2.65-4.75-6.65-.15-3.3 2.2-5.25l3.7-2.4 5.9-3.55 4.75-2.9 3.5-2.35q1.5-1.2 2.05-3.9 1.15-5.55 1.75-7.35l-5.2-7.5q-4.75-6.6-6.7-8.4-4.2 1.6-7.8-1.45-1.5-1.2-2.2-3.15-.7-1.75-.45-3.3.75-4.5 4.7-5.85 3.4-1.2 5.75.25 4.1 2.55 4.1 6.6 0 1.65-1 4.15l14.2 9.25q1.6-2.6 5.3-4.95 3.6-2.3 7.45-3.25-2.95-8.15-3.85-17.2-1.1-11.45 1.5-21.95 1.25-5 1.9-1.4.6 3.5 4.15 12.75 4.35 11.45 8.2 16.9.6-14.55 8.75-32.55Q115 8.45 123 1.85"/><path fill="#ffe100" d="M123.3 4.95q-5.5 10.95-7.95 36.95-1.2 13-1.4 24-1.55 0-1.55.45-.05.35.8.6 5.55 1.45 10.05 5l3.45 3.3q-.15-.1-.75.7-.4.65-.15.8.3.15.9-.35l16.2-12.3q-.75-1.95-.75-4.05-.05-2.25.85-3.45 2-2.6 5.35-2.3 2.8.25 4.1 1.9 1.15 1.45 1.5 3.35.4 1.9-.2 3.25-1.55 3.45-5.25 3.45l-3.6-.75-11.5 19.65q-.65 1.05-.25 1.35.4.25 1.3-.65 1.95 3.25 4.6 10.75.7 2.05 2.25 3.35l3.75 2.35q5.25 2.8 8.45 5.9 3.8 3.7.2 7.75-2.75 3.15-7.6 4.75-2.4.8-19.1 8.2l-20.4 8.9q-13.35 5.35-23.45-.65-2.05-1.25-12.85-6.85-15.85-8.15-19.3-10.65-2.3-1.7-3.15-4.3-1.05-3.15 1.3-5.25 2.1-1.85 9.4-6.4 6.2-3.9 7.3-4.9 2.1-2 2.65-5.25.85-4.9 1.85-7.3.75-1.85-.1-1.5l-1 .7q-2.45-3.7-7.75-10.2l-4.85-5.8q-1.75.75-3.7.55-1.95-.2-3.15-1.2-1.2-1.05-1.75-2.65-.5-1.55-.2-2.8.85-3.3 3.75-4.5 2.6-1.15 4.7 0 3.15 1.75 2.9 5.55-.1 1.95-.95 3.7l14.7 10.15-.2 1.3q.1.9 1.65-.9 2.8-3.1 5.5-5 3.3-2.3 7.4-3.55.45.9 1.1.9.7 0-.05-1.85-4.25-11.7-4.25-24.4 0-6.5 1.4-12.15 1.65 6.8 6.25 16.4 4.3 8.85 7.3 12.65.7.85.95.3.2-.6-.3-1.95 2.35-19.95 10.85-37.15Q117.35 9 123.05 5.1q.15-.05.25-.15"/><path fill="#dcc200" d="M60 73.45q7.8 6.6 10.7 10.9-.15.05-.6.4-.4.3-.85.7-2.65-4.05-9.25-12M144.4 65q6.2.4 7.85-3.1 1.05-2.2.2-5.7 1.15 1.45 1.5 3.35.4 1.9-.2 3.25-1.55 3.45-5.25 3.45l-3.6-.75-11.5 19.65q-.65 1.05-.25 1.35.4.25 1.3-.65 1.95 3.25 4.6 10.75.7 2.05 2.25 3.35l3.75 2.35q5.25 2.8 8.45 5.9 3.8 3.7.2 7.75-2.75 3.15-7.6 4.75-2.4.8-19.1 8.2l-14.8 6.55 17.1-10q10.25-6.05 13.95-10.2 2.05-2.35 1.4-4.55-.45-1.4-3.1-4.7-6.85-8.5-8-17.8-.6.65-1.95.65t-1.1-.8q.45-1.3 5.9-10.6 5.85-10.1 8-12.45M123.05 5.1q.15-.05.25-.15-5.5 10.95-7.95 36.95-1.2 13-1.4 24-1.55 0-1.55.45-.05.35.8.6 2.95.75 5.85 2.25-3.5-1.65-10.1.1-4.8 1.25-9.45 3.7-2.5 1.3-6.1-9.6-3.45-10.3-5.05-22.25 2.35 6 5.55 12.05 3.05 5.8 5.15 8.45l.6.5q.6 1.2.95 1.25.5.05.8-2 1.7-11.6 4-20.35 3.4-13.3 9.05-25.35 4.9-8.05 8.6-10.6"/><path fill="#0d131a" d="M84.35 88.35q4.65 10.1 5.7 10.6Q97.3 91 106.1 85q6.85-4.65 12.35-6.75l.9-.2-.5.85-2.5 3.1 4-.75 3.85-.45 1.25.05-1.05.65q-10.65 7.05-21.3 19.1-7.55 8.5-11.75 15.2-.85 1.4-1.4 1.35l-1.25-1q-5.25-5.6-9.15-19.05-2.75-9.4-3.7-17.3l.05-.6q.15-.4.6.3l1.85 2.6.4-4.95.2-.55q.25-.4.55.55.75 2.2 4.85 11.2"/><path fill="#515457" d="M117.8 82.65l4.95-.95q-10.4 6.9-18.85 16-7.05 7.6-14 18.2-4.45-4.7-8.55-17.05-3.2-9.6-4.5-17.6l.5.85q1.35 2.3 1.75 2.25l.05-.8.3-4q1.45 4.2 5 11.6 3.4 7.05 4.5 8.45.6.75.95.8l.9-.6q6.25-6.75 14.65-12.85 6.4-4.65 11.45-7.15l-2.65 3.1q-.6.75-.45.8l.85-.2q.75-.3 3.15-.85"/><path fill="#0d131a" d="M66.7 118.55l.45-.2 3.4 1.15q3.55 1.55 5.5 3.8l.1.6q-1.95 1.2-4.85 4.55l-3.8 4.65q-1.05 1.4-1.65 1.3-.5-.1-.85-1.35-.9-3.25-.25-7.75.55-4.15 1.95-6.75"/><path fill="#fff" d="M65.8 130.45q0-2.55.45-6.05.45-3.65 1.05-5.25 1.65.45 3.4 1.25 2.85 1.35 4.5 3.1-3.15 2.1-6.8 6.75-2 2.5-2.3 2.45-.3-.25-.3-2.25"/><path fill="#dbdcdc" d="M75.2 123.5q-3.15 2.1-6.8 6.75l1.55-5.5q.25-3.2-3.15-3.85l.5-1.75q1.65.45 3.4 1.25 2.85 1.35 4.5 3.1"/><path fill="#0d131a" d="M126.9 119.45l.6.35q.8 6.15-.2 11.15-.9 4.25-2.2 4.55-.2.05-.5-.25l-.4-.7q-.6-1.35-3.7-5.85-3.35-4.8-5.3-6.85l.65-.6 3.9-1.4q4.25-1.2 7.15-.4"/><path fill="#fff" d="M121.6 128.4q-2.95-4.4-5-6.65 1.95-.85 4.1-1.4l5.75-.2.35 5.1q0 3.7-.75 6.3-.6 2.1-1.15 2.35v-.05q-.6-1.4-3.3-5.45"/><path fill="#dbdcdc" d="M126.45 120.15l.35 5.1q0 2.8-.4 4.9-.8-4.25-1.65-6.15-1.4-3.3-4.7-3.45 3.75-1.05 6.4-.4"/><path fill="#0d131a" d="M64.3 117.7q3.55.05 6.5 1.55 3.35 1.65 7.3 5.75 4.6 4.65 7.6 5.95 3.9 1.7 8.75-.05 2.05-.75 6.75-3.5l9.5-4.6q5.8-2.55 11.4-3.7 5.35-1.05 7.85.55.55.3.4.6l-.6.1-2.45-.35-5.25.5q-5.65 1.15-11.35 3.5-3.3 1.4-9.4 4.45-4.65 2.75-6.7 3.65-4.3 1.8-7.8.65-3.4-1.1-7.6-5.6-3.7-3.9-8.35-6.35-3.95-2.05-6.4-2.15-.75 0-.95-.5-.25-.5.8-.45"/><path fill="#0d131a" d="M84.35 125.65q-.4-.35.05-.7.5-.35.8 0l.8 1.3.5 1.3q.05.4-.25.3l-.6-.5q-.55-1.05-1.3-1.7m7.7 2q.2-.7.9-1.4.65-.65 1.35-.85.6-.2.55.35l-.45.7q-1.25.65-1.75 1.65-.2.4-.45.15t-.15-.6m22.7-25.75l.7 3.45q.45 3.65-.1 6.15l2.8-.2-5.45 2.35q-5.9 2.2-9.45 3-5 1.15-7.2.15-.85.65-.15-.55 2-3.45 6.5-7.65 5.5-5.1 11.4-7.8l1.95-.75q1.15-.3.9.1l-1.9 1.75"/><path fill="#fff" d="M113.7 102.3q.6 2.4.65 5.75.05 2.9-.25 3.65-3.85 2.1-9.1 3.55-5.65 1.6-8.05.9 2.3-2.95 8.1-7.8 6-5.1 8.65-6.05"/><path fill="#dbdcdc" d="M113.7 102.3l.55 3.85q-9.85 3.85-16.7 10.1l-.6-.1q2.3-2.95 8.1-7.8 6-5.1 8.65-6.05"/><path fill="#0d131a" d="M100.25 112.15l.6-.8q.65-.75.9-.5t-.05 2.1q-.35 1.8-.7 1.8-.3 0-.45-.9l-.3-1.7m-27-8.8q-.9-1.1-1.15-2.25-.3-1.15.4-.55l3.95 4.1q7.7 8.95 8.8 11 .6 1.1-.15.55l-5.45-.3q-4.55-1.15-8.15-3.85-1.1-.85-.85-1.05.25-.25 1.6.4-.35-2.7 0-5.05.3-2.1 1-3"/><path fill="#fff" d="M74.25 104.05l4.7 5.35 5.35 6.2q-2.1.2-5.2-.7-3.8-1.05-6-3.1l-.1-3.2q.15-3.3 1.25-4.55"/><path fill="#dbdcdc" d="M73.35 106.05q.25-1.25.9-2l4.7 5.35 5.35 6.2h-.75q-5.2-6.15-10.2-9.55"/><path fill="#0d131a" d="M82.4 112.35q-.25 2.45-.65 2.35-.3-.05-.65-1.55-.4-1.45-.25-2.1l1.55 1.3"/></svg>