<svg xmlns="http://www.w3.org/2000/svg" width="348" height="320" viewBox="-0.05 -0.15 348.4 320.35"><path fill="#e50012" d="M242.5 136.55q6.75 13.85 7.8 32.5 1.45 25.6-10.95 44.05-11.25 17.3-32.3 21.45-16.65 3.3-32.35-1.95-16.6-5.5-26.6-14.5-14.55-13.1-18.4-35.3-3.6-20.8 8.65-37.15 6.1-8.2 12.95-12.25l91.2 3.15"/><path fill="#f2e100" d="M22.25 94.4q-2.35 5.75-1.7 7.55 1 2.75 3.35 2.9 2.7.2 4.1-4.5l2 3.65q1.9 3.95 1.55 5.4-.1.55-4.2 5.1-3.4 3.8-1.95 5.4.75.8 3.55 2l5.25 2.2q6.85 3.25 6.4 7.55-.4 3.65-1.25 6.75-.2 1.8 1.75 3.9l3.35 3.85q.8 1.55-.7 3.85-4.85 7.3-4.1 12.6l4.85 5.15q6.4 6.25 14.25 11.8 25.1 17.75 55.3 21.9l-1 4.2q-.95 5.25-.75 10.3.65 16.2 12.5 24.8l-2.05 5.35Q82.3 234.55 55.2 202.35q-8.45-10.05-14.55-20.95l-4.45-8.9q-.5-.6-4.95-2l-4.4-1.3q0-.45 1.25-1.3l1.25-.7q-1.3-1.25-11.45-3.5l-12.15-2.9q-2.05-.9-.55-6.25l2.4-6.65q.4-1.15-3.1-4.55l-3.6-3.2q2.35-.85 5.4-.1 1.5.35 2.55.9.8-1.3-.8-4.4l-3.1-5.1q-1.25-2 .9-5.2 1.75-2.65 4.85-4.9 2.2-1.6-.55-6.75-1.75-3.2-4.9-6.95-1.5-1.85.9-5.3 1.3-1.85 5.2-5.75 2.15-2.1.8-7.7l-1.75-5.2 3.45 1.8q3.7 2.65 5 6.9l1.95-1.65q2.3-1.7 3.95-1.75l-2.5 5.4"/><path fill="#e50012" d="M245.9 1.85Q249.4.4 252.1.7l-4.85 7.45 6.25-.5q-7.35 8.15-6.25 12.25.9 3.15 9.05 7.35 7.35 3.8 7.15 7.95-.15 3.9-7 8.85-5.55 4-3.4 8.4 1.1 2.15 3.25 3.55 11.4 2.15 17.3 6.95 6.95 5.65 6.95 15.45 0 8.65-8.75 14.1-2.75 1.75-6 2.9l-2.75.85-30.5 31.55-5.85.55q-7.75-.4-17.4-5.05-10.7-6.5-16.05-19.35-1.65-4-2.6-8.2l-.6-3.35-7.1-3.95q3.1-3.3 3.1-3.85l-3.7-6.25q-3.45-5.95-2.2-6.05 1.3-.1 5.9 2.45l4.35 2.6q-.2-.95.1-3.1l.4-1.95q.7.2-2.4-2.4-1.9-1.55-.95-3.75Q189 63.9 189 63.1q0-1.25-1.15-4.35-1.25-3.25-2.5-5-.95-1.35-7.7-4.6-7.6-3.6-8.9-4.6-2.05-1.5.2-5.8l3.6-5.95q1.25-2.7 1-3.65-.6-2.15-5.8-5.6-4.85-3.25-5.55-10.65-.35-3.75.3-6.8 3.7 6.3 7.4 8.5 1.9 1.15 3 1-.75-1.4-1.05-3.75l-.15-2.1q2.55 3.3 4.9 4.6 3.25 1.8 7.4.75 4.1-1 4.7 2.65.2 1.25-.4 9.5-.35 5 4.6 5.6l12.25-.75q8-.75 9.55.65 2.15 1.95-.05 10.95-1.95 8.05 3.45 11.75 2.7 1.85 5.75 2.1 2.7-2.05 1.9-6.6l-1.4-4.15q2.1-.15 5.75 2.3-.1-1.4-1.9-4.95l-1.8-3.25q1.4-.2 7.35 1.75V38.5q0-1.5-4-3.25-5.2-2.3-6.75-3.7-2.3-2.05-.6-5.7.95-2 3.55-5.45 1.2-1.85-1.45-4.9l-2.9-2.65q4.15-2.35 9.1-1.05 2.45.65 4.1 1.75 4.1-8.8 11.1-11.7"/><path fill="#f2e100" d="M245.9 1.85Q249.4.4 252.1.7l-4.85 7.45 6.25-.5q-6.85 7.6-5.95 11.8.8 3.7 8.75 7.8 7.35 3.8 7.15 7.95-.15 3.9-7 8.85-5.55 4-3.4 8.4 1.1 2.15 3.25 3.55 9.9 1.85 15.8 5.85-3.25-1.25-7.75-1.75l-4.55-.1q1.55 1.2 3.9 4.5-2.85-1.3-8.05-1.65l-4.65-.1q.9.55 4.2 3.95-2.6-1.55-8.15-2.1l-5-.25q-5.55-3.25-17.95-7 2.45-2.1 1.9-6.25l-1.1-3.75q2.1-.2 5.2 1.75-.1-1.4-1.6-4.75L227 41.3q1.35-.2 6.75 1.35V38.5q0-1.5-4-3.25-5.2-2.3-6.75-3.7-2.35-2.1-.6-5.9l3.55-5.7q1.2-1.85-1.45-4.65l-2.9-2.45q4.15-2.35 9.1-1.05 2.45.65 4.1 1.75 4.1-8.8 11.1-11.7"/><path fill="#f2e100" d="M205.15 32.1q8-.75 9.55.65 2.15 1.95-.05 10.95-1.6 6.7 1.9 10.45 2.25 2.4 6.05 3.2 3 2 5.6 5.55-2.05-1.15-7.55-1.4l-5.05-.05q2.05.65 5.05 3.55l2.55 2.75q-1.25-1.1-3-1.55l-5.25-1.45q-3.2-1.05-5.45-2.95l-1.65-1.65q0 1.95 1.25 4.8l1.25 2.4q-1.6-1.85-4.15-3L200.25 62q-3.05-1.25-5.55-2.95l-1.9-1.5.85 1.5 1.65 3.85q2.05 6.15 5.6 8.9-1.15.3-3.15-.45-4-1.4-8.15-6.35.1-.25-.6-1.9 0-1.25-1.15-4.35-1.25-3.25-2.5-5-.95-1.35-7.4-4.45-7.35-3.6-8.6-4.5-2.05-1.55-.1-5.95l3.3-6.05q1.4-3.05.9-4.4-.8-1.95-5.95-5.4-4.85-3.25-5.4-10.4-.3-3.55.4-6.5 3.7 6.3 7.4 8.5 1.9 1.15 3 1-.75-1.4-1.05-3.75l-.15-2.1q2.55 3.3 4.5 4.4 3 1.7 8.2 1.2 4.15-.4 4.55 2.85l-.65 9.05q-.35 5 4.6 5.6l12.25-.75"/><path fill="#fff" d="M229.05 100.65l7.6-.45q-.2 2.25-1.7 4.5-3 4.55-9.3 4.7-6.3.2-8.95-5.45-.8-1.75-1.15-3.9l-.2-1.8q5.1 2.35 13.7 2.4m22.2-5.1q4.85 1.55 11.25.65l5.4-1.2q-.5 3.3-2.15 5.9-2.7 4.35-7.55 4.05-4.7-.3-6.3-4.85l-.65-4.55"/><path fill="#f9bf3d" d="M215.85 117.35v-1q.65-1.1 3.6-1.65 14.55-2.6 19.85-7.9 4.65-4.65 7.65-6 4.3-2 7.55 1.15 2.45 2.35 4.9 5.25 1.95 1.9 5.05 2.65 4.75 1.15 5.75 1.7 1.95 1 1.5 3.15-.6 2.6-2.4 5-2 2.6-3.6 2.1-.8-.25-2.75-1.65-1.4-1-2.55-.6l-3.05.95-.85 10.05q-.35 1.85-2.15 3.2-2.9 2.25-8.3 1.25-4-.7-7.95-3.85-5.4-4.3-9.05-6.1l-10.1-4.4q-3.4-1.55-3.1-3.3"/><path fill="#ed8599" d="M241.85 127.2l-2.1-4.25 8.9.3 4.4-.95q.65 6.25.15 7.3-.4.8-3.15 1.55l-4.4.5q-1.4-.15-3.8-4.45"/><path fill="#e50012" d="M41.1 142.3l3.35 3.85q.8 1.55-.7 3.85-4.85 7.3-4.1 12.6l3.2 3.45q4.2 4.3 9.35 8.5l8.2 11.2q-4.85-1.05-11.75-4.8l-5.9-3.5q.5 2.75 3.55 13.1-4.45-6.55-7.7-12.95l-2.4-5.1q-.5-.6-4.95-2l-4.4-1.3q0-.45 1.25-1.3l1.25-.7q-1.3-1.25-11.45-3.5l-12.15-2.9q-2.05-.9-.55-6.25l2.4-6.65q.4-1.15-3.1-4.55l-3.6-3.2 6.55.2q3.4 3.1 4.05 5.7.85 3.5 1.1 3.8.95 1.1 5.75 1.85l-1.6-1.45q-1.45-1.55-1-2.05.65-.65 4.2 1.05 3.65 1.7 4.75 3.4.25-1.95-2.4-5.2-1.8-2.3-5.55-5.75-1.8-1.6-1.55-7.6l.55-5.7q2.8 5.3 5.85 7.4 1.5 1.05 2.45 1.05-.7-1.2-.95-2.8l-.15-1.35q.8 1.45 4.45 3.05-.5-2.15-1.45-3.65l-2.35-2.75-2.85-3.05q-1.35-2.05-1.15-5.4.2-2.75 3.5-5.15 2.35-1.75 6-3.1-2.6 2.7-3.35 3.9-1.45 2.15-.35 3.35.75.8 3.55 2l5.25 2.2q6.85 3.25 6.4 7.55-.4 3.65-1.25 6.75-.2 1.8 1.75 3.9"/><path fill="#f2e100" d="M139.3 179.3q6.65-1.1 11.85.05 17.65 5.8 23.9 19.5 4.7 10.2 2.45 22.05-.9 4.75-4.3 9.9-3.65 5.5-8.95 9.45-13.2 9.8-29 5.4-16.75-4.7-21.4-22.1-2.05-7.65-.8-15.8 1.25-8.2 5.6-14.95 7.35-11.3 20.65-13.5m121.2 11.05q9.3 11.6 3.9 28.05-5.8 17.7-23.5 19.55-6.95.7-13.7-1.35-6.35-1.95-9.7-5.35 7.6-3 15.45-10.7 15.75-15.3 17.2-38.5l3.45 1.95q4 2.7 6.9 6.35"/><path fill="#f2e100" d="M155.4 248.35l-4.8.25.25-2.35q8.55-1.55 16.15-8.35l4.35-4.5 1.55-1.95q5.3 3.65 16.25 4.7l9.9.3q-12.3 7.35-31.6 10.5l-12.05 1.4m-15-81.5l-2.4 3.1q-2.45 3.35-2.6 4.4l2.6 1.45q2.65 1.85 2.75 3.75l-4.05.55q-4.6 1-7.25 3.3l-.7-2.55q-.55-2.8-.1-4.35 1.4-4.5 6.7-7.5 2.7-1.55 5.05-2.15m35.35 24.8l3.85 1.55.4 1.75-3.65 7.5-3.3-6.95q1.7-.6 2.35-2.3l.35-1.55"/><path fill="#f2e100" d="M224.05 195.25q-7.4 5.2-9.65 8.05-.45.55-1.1 2.55-.2.55 2.15.6l3.35.25q.8.35-.4 2.25l-1.85 2.3q-.4.25 2.35 1.8 3.1 1.7 3.4 2.1.7.95-.75 4.75l8.05-4.8-.95-4.4q-.4-1.95.75-3 .6-.55 3.65-2 2.3-1.1 1.75-2.6-.45-1.15-3.65-4.3-2.6-2.6-1.25-5.85 1.1-2.65 3.55-3.95l3.3-1.75q1.35-1.05 1.1-2.9-.1-.7-2.6-5.05-2.05-3.4-.85-5.5 1.55-2.65 6.5-5.2 2.5-1.25 4.7-2-3.15 8.25-.8 10.25 1.35 1.15 4.8 7.7-1.85 14.15-6.6 23.25-7.5 14.3-23.8 22.7-15.35 7.95-32.35 5.25-5.35-.85-10.15-2.65l-3.8-1.65q4.55-4.2 5.05-14.8l-.45-9.8 7.7-4.4q14.55.2 26-6.5 5.75-3.4 8.6-6.8 4.9 5.15 4.25 6.1M206.3 133.2l-46.1 16q-6.05-7.8-7.15-10.15-3.85-8.15-1.95-18.85 1.85-10.45 12.35-16.8 5.25-3.15 10.15-4.2l2.9-.3 7.2.35Q195.15 101 202 109.6q5.45 8.7 5.45 17.05-.05 4.15-1.15 6.55"/><path fill="#e50012" d="M204.6 130.6q4.95 7.85 4.95 8.4 0 .55-4.5 2.9l.85.7 1.1 1.2q.35.65-1.1 2.75l3 1.75q3.05 1.9 3.45 2.35.65.8-2.55 4.65 7.65 5.35 7.55 6.2-.15.9-2.7 3.65 4.25 3 4.1 3.8-.1.75-2.2 4.4 2 1.6 3.55 4.95 2.2 4.55.65 8.15-1.9 4.55-9.45 9.3-8.3 5.25-17.9 6.75-8.55 1.35-12.25-3.8-1.2-1.6-1.75-3.65l-.3-1.75-3.75-2.5q-3.8-2.6-3.8-3 0-.45 1.75-2.2l1.7-1.7q-10.55 0-10.75-1.65-.25-1.9 1.35-6.85 1.5-4.75 2.1-5 .65-.35 4.2.65l2.2-4.35-4.55-.75-4.85-.9q-.3-.1.7-4l1.05-3.85-5.55-1.45q-.55-.2.3-1.85l.95-1.6-2.2-3.1q-2.25-3.2-2.25-3.85 0-.6 2.6-1.35l2.6-.65-3.4-1.1q-3.35-1.3-3.25-2.25.2-1.3 2.15-5.8 2-4.65 2.5-4.7.5-.1 3.2 1.8l2.6 1.95 2.2-2.35-4.1-5.05q1.95-2.05 6.05-4 2.05-.95 3.7-1.55.9-.6 2.35 2.75.75 1.65 1.3 3.45l6.35-.8-.45-3.05q-.25-3.05.45-3.05 1.8 0 7.25 1.4 5.55 1.35 5.8 1.95.35.75-1.2 5 3.3 1.65 5.75 4.75l2.45-2.1"/><path fill="#eeeeef" d="M181 197.9q1.55 2.55 3.4 3.6v1.15l-9.65 5.75q.55-2.3 1.45-5.1 1.8-5.55 3.65-7.75l1.15 2.35m7.85-3.15l2.1.35q2.1.6 2.2 1.75.3 2.9-1.9 11.75l-2.2 8.3q-2.9-4.25-3.95-11.95-.85-5.85-.35-8.4.2-1.2 2.2-1.6l1.9-.2m7.2.7q-.35-2.2 1.75-3.7 1.05-.7 2.15-1l2.7-.45q2.75 0 2.8 2.15 1.05 3.4 1.25 11.95v7.85q-2-1.35-6.1-7.75-4.15-6.45-4.55-9.05m24.2.8q1.5 8.05 1.4 9.7-.05 1.4-5.45-5.2l-5.4-6.9q-.95-1-1.65-2.3-1.3-2.55.3-4.1 2.05-1.95 4.85-2.45 3-.55 3.7 1.25.75 1.9 2.25 10m-3.6-23.75l8.35 3.25q8.3 3.45 7.95 4.25-.55 1.35-11.4 2.9-.2-1.55-.95-3.6-1.45-4.15-3.95-6.8"/><path fill="#3e4e57" d="M207.1 122.05l8.15 3.75q9.7 3.5 17.55 2.2l11.2 6.95q-4.1 3.75-10.65 5.7-13.15 3.9-25.35-5.2l-1.5-2.3q1.3-8.5.6-11.1"/><path fill="#f2e100" d="M269.25 119.95l1.3 6.2q.65 7.4-2.55 13.1-3.45 6.05-10.8 8.8-5.25 1.95-10.8 1.85l-1.15-5.7q-1.4-6.05-2.75-7.65l1.3-1.4 5.65-.1q5.8-.7 6.65-3.7.85-2.95 1.1-6.9l.05-3.35 4.1-1.95 1.95 1.65q2.15 1.6 3.25 1.4 1.75-.3 2.7-2.25"/><path fill="#e50012" d="M326.8 120.4q-5.2 1.1-13.5-2.6-2.75 8.25-3.35 9-.6.8-5.5-1.5-2.45 5.35-3.35 6.1-.9.75-4.25-2.45.3 3.2-.15 3.8-.45.6-6.25.75l-1.7-4.85-3.5 6.25-5.65-2.45q-5.45 6.25-6.4 6.7-.55.3-2-1.6l-1.35-1.9.7-5.9q.35-6.4-1.3-9.2 1.25-2 2.05-4.2 1.5-4.3-1-5.1l-7.3-1.9q-4.6-1.5-5.65-4l1.75-.35q2.1-.55 3.8-1.45 5.45-2.95 5-8.55l3.35-1.65q3.5-1.9 4.55-3.1l3.35 2.45 2.3-3.45q2.55-3.25 3.95-2.2l3.65 2.9 1.4-1.2q1.5-1.1 2.3-.35l2.1 2 1.4-2.1q1.55-2 2.4-1.4 1.4.9 7.05 7.3l1-.95q1.3-1.05 2.9-1.7 5.1-2.1 11 .95 7.6 3.95 11.7 9.7 4.45 6.3 2.05 11.5-2.55 5.6-7.55 6.7"/><path fill="#eeeeef" d="M310.9 90.95l2.2-3.15q2.35-3.15 3.05-2.85 1.15.45-.15 6.1l-5.1-.1m13.8 3.65l-5.8-3.25 4.4-3.15q4.3-3.05 4.65-2.45.6.9-3.25 8.85m13.9-3.25q.3.85-6.85 9.75l-5.8-6.1q12.35-4.5 12.65-3.65m-6.05 10.75l7.55.35q7.55.55 7.5 1.5-.05.95-6.5 4.15l-6.45 2.95-.05-3.6q-.4-3.9-2.05-5.35m-7.15 18.05l2.55-3.5q2.95-3.5 4.8-3.3 1.05.1 4.6 5.7 3.5 5.55 3.15 5.9-.35.35-15.1-4.8"/><path fill="#e50012" d="M99.3 292.45q.3-4.1 4.3-13 .95-2.15 5.25-9.65l6.15-10.15q1.5-2.3 3.35-3.25l1.5-.5q24.75 4.85 27 4.85 1.55 0 3.55 8.5 1.85 7.75 3.2 18.9 1.05 8.7-1.15 13-1.1 2.1-2.4 2.5-6.55 4.55-23 4.45l-15.15-1q-13.35-3.3-12.6-14.65m149.3-48.2q1.1 1.15 4.6 2.85 4.15 2.1 9.05 3.45l10.5 3.15q5.4 2.05 7.8 4.5 2.75 2.8 4.3 8.55 1.55 5.7.15 7.7-1.2 1.65-9 6l-7.6 4.05q-8.6 2.95-17.6-.35-5-1.85-11.6-6.6-3.25-2.35-7.55-3.45l-8.4-1.85q-5.8-1.45-8.5-3.9-3.8-3.55-4.3-11.05-.5-6.9 5.6-11.4 3.05-2.25 6.2-3.1l26.35 1.45"/><path fill="#eeeeef" d="M259.2 278.35q-.2-1.75.15-3.55.65-3.65 3.2-4 4.05-1.15 11.05 5.5 7.05 6.6 7.3 11.75-.25 1-4.55-.3l-5.2-1.4-6.85-2.15q-3.1-1.2-4.4-3.65l-.7-2.2m19.5-17.5q2.35.1 5.75 2.55 4.1 2.9 8.35 8.65 4.3 5.8 3.35 7.25-.8 1.3-9.75-2.1-8.6-3.25-9.5-4.3-.9-1.7-1.35-4.05-.85-4.6 1.5-7.65l1.65-.35M113.95 293.4q1.3 2.85.8 5.8-.55 3.05-2.95 5.3l-5.6 5.6-3.9 4-1.45 1.15-1.15.05q-.55-3.05-.55-7 .05-7.95 2.75-12.65 3.05-5.2 7-5.35 3.55-.1 5.05 3.1m27.7-1.85q2.9 0 4.7 3.05 2.1 3.45 1.1 8.95-.9 4.95-5.75 10.55-2.45 2.8-4.7 4.6-1.15-2.7-2.15-6.45-1.95-7.55-1.15-12.9.85-5.35 4.5-7.1l3.45-.7"/><path fill="#3e4e57" d="M124.6 241.1q7.7 5.35 17.8 6.1l8.55-.35-1.75 5.65-2.95 8.6q-4.5 11-16.5 9.55-7.05-.85-9.25-6.35-1.35-3.45-.65-6.45l4.75-16.75m118.8-3.15q4.1-.75 5.6-2.25l-1.45 15.15q-.3 1.55-2.05 2.9-3.25 2.4-10.05 2.1-6.7-.3-10.65-3.15l-2.65-2.8.4-14.4q12.7 3.9 20.85 2.45"/><path fill="#e50012" d="M168.1 100.5l-2.2.95-9.5-44.7q-.6-2.6.25-3.2l1-.05q1.15.1 2.45 1.75l1.1 1.65 28.35 40 2.05 4.55q-8-4.3-17.65-2.55-3 .5-5.85 1.6m-46.7-23.8l.7-.5q1.2-.15 3.75 1.7l34.95 27.25q-3.3 2.6-6.25 7.4-5.8 9.65-3.7 20.85l-1.4.6L122 81.35l-.8-2q-.65-2.1.2-2.65m-26.5 41.05q.7-1.05 3.8.05 1.6.5 3 1.25l45.2 17.9q-4.45 2.4-10.25 11.65-2.9 4.6-4.9 8.75L96.7 121.7q-1.8-1.9-1.95-3.1l.15-.85m-8.95 42.15q-.3-.4 0-.8.55-.75 3.35-.65l41.25 2.35-1.15 7.05q-.95 8.3.1 14.6l-5.45 4.45-35.8-23.85-1.35-1.1q-1.25-1.25-.95-2.05"/><path fill="#cbbd00" d="M150.65 248.15v-1.55q9.95-1.8 16.8-8.45 2.15-2.1 3.75-4.4l1.15-1.9q12.05 4.55 27.3 4.55-4.9 2.75-13.45 5.6-17.15 5.65-35.55 6.15M48.3 190.85q5.95 5.8 13.25 11.1Q85 218.75 113.6 223.6l2.45 6.6q3.5 7.3 9.05 10.9l-2.3 4.7q-33.55-7.35-59.6-34.25-8.15-8.4-14.55-17.75l-4.8-7.7 4.45 4.75"/><path fill="#cbbd00" d="M113.15 206.45l1.1 3.35q1.6 4.05 4.1 7.7 8 11.65 22.15 14.75 14.15 3.1 25.7-.5 5.75-1.8 8.7-4.2-2.75 5.85-9 11.1-12.6 10.5-30.35 7.4-18.55-5.55-22.35-23.1-1.15-5.5-.75-11.55l.7-4.95"/><path fill="#c6000b" d="M228.2 208.6l1.2 6.7q-.1.7-7.9 4.65.25-1.5.85-3.7.4-1.35-1.5-2.55l-2-.95q4.95-1.65 9.35-4.15"/><path fill="#cbbd00" d="M248.7 192.6q-1.15 4.85-3.3 9.65-6.8 15.4-20.8 24.85-15.15 10.45-34.85 8.85-6.2-.5-12.05-2.15l-4.65-1.55q3.1-3.75 4.2-13.2l.5-8.7q4.3 1.75 9.6 3.15.95 3.6 1.7 3.5.75-.15 1.2-2.85 14.95 3.1 28.6-1.4l2.05.9q2 1.1 1.7 2.15l-1.1 4.2 7.6-4.45q.45-.6 0-2.2l-.8-3.25q-.35-2.15.75-2.55 4.35-1.9 5.6-3.15 6.15-4.6 11.05-10.6 2.45-2.95 3.7-5.05l-.7 3.85"/><path fill="#cbbd00" d="M260.15 225.15q-8.4 12.25-21.8 13.3-9.7.15-16.15-3.7-2.05-1.2-3.5-2.65l-1.05-1.2q3.2-1.6 6.9-3.8 7.4-4.5 10.05-7.7l3.25.95 8.05 1.05q12.75.3 19.95-8.35-1.5 5.95-5.7 12.1"/><path fill="#c6000b" d="M122.65 299.35l11-.45.45 8.55-13.45.8q-6.45-.15-10.5-1.75 2.3-1.6 3.7-4.8l.95-2.85 7.85.5m24.75 5.6v-7.75q4.9-1.55 6.55-5.6.75 5.75-.85 8.85-1.55 2.95-5.7 4.5m-48.15-13.3l1.3-4.05.55 1.75q.85 2.05 2.45 3.85l-3.15 6.6q-2.05-3.45-1.15-8.15"/><path fill="#c8c9ca" d="M113.25 293.45l1.05 3.3q.6 3.9-1.75 6.95-2.1 2.45-12.45 11.65.2-2.4 3-7.15 2.8-4.7 5.45-7.2 2.2-2.05 3.7-5l1-2.55m30.6-.8l1.95 1.75q1.95 2.5 2.15 6.5.25 3.1-3.55 9.3-3.1 5.1-5.25 7.05-1.2 1.1-1.8 1.1l-.4-.2q5.65-8.75 6.85-18l.25-5.5-.2-2"/><path fill="#c6000b" d="M267.6 284.65q-3.35 1.1-6.1 1.3l-5.75-.45q-7.45-1.55-11.7-4.9-5.25-4.05-8.9-5.4-3.9-1.4-11.45-3.1-5.35-1.15-7.9-2.95-3.65-2.55-5.25-7.15-1.75-4.95.45-8.55l.4 1.45q.7 1.8 1.95 3.45 4.15 5.2 12.95 7 9 1.8 14.25 4.15l5.5 3.1 4.45 2.75q4.2 2.2 8.9 2.6l1.1 3.3q2.15 3.3 7.1 3.4m9.35-4.3l-3.85-4.8q3.05-1.3 5.2-2.55l4.65 3-6 4.35"/><path fill="#c8c9ca" d="M260.3 273.45l.4 1.85q1.2 2.15 5.05 3.75 13.1 5.55 15.1 9.25-9.7-1.55-15.3-3.8-4.2-1.7-5.7-4.9-1.45-3.15.45-6.15m15.3-7.7l7.9 4.3q8.65 5.15 12.45 9.3L290 278.1q-7.2-1.95-13.45-5.5-1.35-2.1-1.3-4.7l.35-2.15"/><path fill="#27333a" d="M149.85 250.85q-1.2 5.3-3.2 10.3-2.05 4.95-7.05 7.75-2.5 1.35-4.6 1.75l6.9-23.3q2.6.65 8.75-.8l-.8 4.3m80.4-12.75l-1.1 16.6-3.15-1.5q-3.25-1.85-3.95-3.9-.65-2.05-.3-8.1l.5-5.7 2.8 1.3q3.15 1.3 5.2 1.3"/><path fill="#94a1a8" d="M245.35 237l3.85-1.3q-1.3 14-1.7 15.55-.45 1.5-3.45 3.2l1.3-17.45m-118.1 6.25l-6.45 20.7q-.7-.1-1.05-1.35-.7-2.5 1.05-8.15l3-9.95.85-3.2 2.6 1.95m88.1-117l4.35 1.5-3.05 12.75q-.65-.15-2.7-1.35l-1.9-1.2 3.3-11.7"/><path fill="#27333a" d="M229.9 128.8l3.45-.65 10.75 6.5-3.5 3.05q-4.45-3.05-8.05-6.3l-2.65-2.6"/><path fill="#c6000b" d="M166.05 101.9l-9.25-44.3L170 99.75l-3.95 2.15m-31.1 5.1Q120.7 79.5 121.4 78.7l28.5 47.6.35 3.2q.45 3.4.95 4.2l-1.8.65L134.95 107M94.9 119.05l38.85 33.75-1.65 5.1-18.75-18.8q-18.65-19-18.45-20.05m-8.75 41.15l40.7 24.2-2.8 2.15-19.5-12.3q-19.35-12.6-18.4-14.05m98.4 37q-.55 2.05.15 4.4l-.7-.55q-3.2-2.8-4-6.5l-.15-3.2 1.3 1.55q1.75 1.75 4.1 2.75l-.7 1.55m27.55-1.7l-.3.1-5.7 2.6-.55-4.85 4-1.7 2.55 3.85m6.55-5.15l-.85-3.95q2.5-2.15 3.55-4.3l-.15 2.55q-.55 3.1-2.55 5.7m-25.4 6.3l3.15-.5 1.95 5-5.7 1.4.6-5.9m131.6-76l-4.3-.3q-4.8-.65-7.35-2.55l1.45-5.4 3.5 1.75q4.65 1.6 10.65 1.1l-3.95 5.4"/><path fill="#c8c9ca" d="M328.55 116.5l11.6 8.4-14.65-4.75.85-1.45q1.1-1.6 2.2-2.2m6.35-9.1l12.45-3.5-12.6 7.15.15-3.65m3.8-15.7l-6.95 9.05-1.45-2 8.4-7.05m-118.2 87l5.05.4 7.3 1.1-2.95.95q-3.85 1-8.3 1.25l-1.1-3.7m-39 20.75l2.85 2.45-.1 1.05-9.35 5.65q.95-2 3.85-5.75l2.75-3.4"/><path fill="#cbbd00" d="M267.5 139.55q-5.8 10-20.9 10.55l-2.55-10 2.55.4 6.4-.3q10.4-1.8 17.35-11.25.1 5.5-2.85 10.6m-109.55-31.2l-.7 2.2q-.75 2.75-.95 5.4-.5 8.6 5.05 13.3l-2.65 4.8q-2.55 5-2.1 6.1.5 1.1 3.65 2.25l3 .95-2.85.55q-2.75.85-1.95 2.3-2.35-1.7-4.55-5.35-4.4-7.35-3.55-17.25.95-6.8 4.4-11.7 1.7-2.45 3.2-3.55"/><path fill="#c6000b" d="M251.85 81.85l.1 2.1q-.1 2.6-1 5-2.85 7.75-12.9 10.85-11.05 2.4-20.25-1.05-2.9-1.05-5.25-2.6l-1.75-1.3q11.6 3.75 24.95 0 14-3.95 16.1-13"/><path fill="#c6000b" d="M251.3 89.95l3 .85 7.35.75q11.75-.45 18.65-10.5-1.75 5.5-6.7 9.85-9.85 8.75-25.8 3.25l3.5-4.2"/><path fill="#c6000b" d="M246.15 98.6q-2.05.7-10.25 5.15.8-2.35.85-3.9 3.9-.25 8.05-3.05l3.35-2.8 3.05 1.75q-.1.35.35 2.8-3.15-.75-5.4.05m-33.5-.95l-.9-1.55 3.65 1.65.25 3.4-3-3.5"/><path fill="#d6a535" d="M232.5 117.45l5.75 1.75q6.95 1.45 12.9.15l8.95-2.35q2.15-.55 3.35.5l2.45 2.3q1.15 1.05 2.05 1.25-.35.4-1 .65-1.2.5-2.4-.4l-1.95-1.55q-.7-.55-1.25-.45l-5.8 2.25q-6.1 2.05-10.05 1.5-5.45.2-9.8-2.7l-3.2-2.9m-16.05-.95l1.25.85q1.8 1.05 4.5 2.15 2.2.9 5.35 1.7 2.85.95 5.95 3.2 1.3.9 6.45 6.4 3.5 3.7 6.6 3.8l-1.75-.05q-2.15-.3-4.45-1.75l-5.7-4.1q-3.9-2.7-7.55-4.3-6.65-2.9-8.05-3.75-3.4-2.1-2.6-4.15"/><path fill="#d6a535" d="M253.45 126.1l-.7-3.95 4.5-1.2-.35 4.25-2.45.7-1 .2"/><path fill="#c6000b" d="M301.95 117.75l4.45 3.7-1.1 1.95q-1.15-1.05-2.35-3.45l-1-2.2m-8.95-13.9q-8.65.35-9.5 0-.5-.25-.45-1.4l.1-1.1 9.85 2.5m-2 14.3q-1.05.8-1.85.15-.55-.4-1.3-5.15l-.65-4.7 3.8 9.7m7-17.45l3.3 10.5-1.65-.15q-.55-.7-1.15-5.6l-.5-4.75"/><path fill="#c6000b" d="M302.25 116.75l1.85 1.4q2 1.35 2.85.8 1.35-.8 3.95-4.6-1.85 7.1-2.85 7.55-1 .5-5.8-5.15m-2.6-16.85l1.15 3.85q1.2 3.95 1.55 4.5.55.95 4.8-.9-4.8 3.3-5.55 3.4-.55.05-2-5.1-1.4-5.15-1.15-5.95.2-.6.75-.25l.45.45m-11.35 6.45l1.5 4.6q1.65 4.6 2.1 4.8.75.25 4.9-2.3-4.45 4.8-5.35 4.8-.65 0-2.55-5.75-1.9-5.7-1.6-6.25.2-.4.65-.2l.35.3m-15 13.15l1.3 3.2q1.45 3.2 1.9 3.2.75 0 6.45-2.6-6.05 5.65-6.8 5.15-.65-.4-2.55-4.25-1.95-3.9-1.45-4.3.75-.55 1.15-.4m-6.5-18.35l4.9 10.25 1.35.7q2.15.4 5.95-1.25l-6.9 4.5-.25-2.1q-.65-2.2-2.55-2.6l-3.85-8.95 1.35-.55m21.75 1.25l-5.9-1.6q-.3-.2.05-.75l.35-.55 11.05 4.25-5.55-1.35m-124 77.35l13.25 4.1q-13-.65-13.65-1.45-.45-.5-.05-1.6l.45-1.05m7.8 7.15l2.4 1.3q2.8 1.35 4.75 1.75l.15 3.05q-7.7-3.7-8.1-4.8-.25-.65.25-1.05l.55-.25m44.95-19.5l.9.45q.9.5.8 1-.1.8-2.1 4.4l-2.4-1.75q1.5-.9 2.8-4.1m-51.95-4.5l2.75.9 6.8 1.35-.95 1.6q-8.2-.65-9.15-1.6-.6-.55-.1-1.45l.65-.8m5.7-5.45q-8.9-.9-10.1-1.7-.75-.5.1-1.5l.95-.9 2.8 1.5q3.4 1.7 6.25 2.6m-8.9-5.4l-2.05-2.8q-2-3-1.65-3.85l1.6 1.65q2 1.7 3.8 2.2l-1.7 2.8M157.4 138l2.55 2q3.1 2.35 5.9 3.95-8.2-2.55-9.25-4.1-.7-1 0-1.5.35-.3.8-.35m51.15-.15l1.05 1.3-4.5 2.95-1.2-1.05 4.65-3.2m2.8 12.2l.65.2q.65.3.65.7 0 .7-2.5 4.4l-1.75-1.05 2.95-4.25m4.75 10.6l.8.4q.8.5.8.9 0 .7-5.7 5.6l4.1-6.9m-11.05-45.1q-2.2-5.2-4.3-7.65l3.25 3.15q5.8 4.4 12.25 5.05l.5 2.45q1.45 2.7 6.25 4.2 4.8 1.45 8.05 3.6 1.65 1.05 2.3 1.8l-8.75-.55q-10.2-1.4-17.35-5.8l-2.2-6.25m-21.7-27.45l6.9.95-.25 3.3-6.35-3.3-.3-.95"/><path fill="#c6000b" d="M165.6 160.95q-1.1 3.8-.8 4.2.3.4 4.75 1.05l4.4.55-2 4.8q-1.3-.75-3.1-1.1l-1.55-.25q-2.25-.7-3.3-1.75-.65-.6.4-4.15l1.15-3.4q-3.95-.35-5.15-1.05-.75-.45.05-2.25l.95-1.7 5.35 1.35-1.15 3.7m-.3 23.35l.25-1.35 9.65 1.05-3.65 4.2q-.35.5 1.9 1.9l2.3 1.3q.2 1.2-1.15 2.6l-1.45 1.2-7.6-8.8q-.45-.65-.25-2.1"/><path fill="#cbbd00" d="M175.75 191.4l3.95 2.45.35 1.85-3.6 6.95-3.3-7.45q1.4-.45 2.15-2.15l.45-1.65"/><path fill="#c6000b" d="M314.45 110.3q.4 2.6-1.7 9.7-1.95 6.55-2.65 7.1-.7.5-5.45-1.7-2.8 5.9-3.55 6-.45.05-2.4-1l-1.8-1.1q0 3.1-.45 3.6l-3.1.3q-2.7-.05-3.1-.45l-1-2.4-.6-2.05q-3 5.95-3.65 6.15-.7.25-5.6-2.45-4.95 7.4-6.2 7.15-.75-.15-2.05-2l-1.15-1.8.6-9.25 2.6-2.5 2.95 4.85 6.55-5.2q1.1-.9 4.85-1.6l5.2-1q2.35-.6 8.85-3.95 5.4 5.4 6.15 5.2.45-.1 1.95-4.25l1.75-4.45 3-2.9"/><path fill="#c8c9ca" d="M324.95 94.45l-2.15-1.4 4.8-5.45-2.65 6.85m-10.7-3.75l2.15-4.05-.15 3.75-2 .3"/><path fill="#0d131a" d="M253.35 6.85l1 .25q.2.25-.45 1l-3.55 4.05q-2.5 3.45-2.65 6.65-.05 2.05 3.2 4.4 1.7 1.25 4.95 2.9 3.8 1.95 5.65 3.85 2.9 2.9 2.4 6.4-.25 2-1.95 3.8l-3.6 3.05-3.5 3q-1.65 1.7-1.7 3.25-.1 1.45 1.45 3.45 1.65 2.25 3.95 3.3l-1.15.35-1.7.05q-2.05-1.75-3-3.15-1.35-1.95-1.2-4 .1-2 1.9-3.95 1-1.1 3.8-3.2l3.35-3.2q1.5-1.8 1.6-3.1.3-2.9-2.3-5.25-1.35-1.2-5.5-3.5-3.85-2.15-5.3-3.4-2.7-2.35-2.75-5-.05-3.3 2.15-6.35.7-1 4.15-4.5l-3.45.8-1.9.55q-.7.2-.9-.3V8.5q.35-1.6 2.15-3.95l2.75-3.35q-2.45-.1-5.7 1.5-6.45 3.2-10.2 11.9l-.5.7q-.2.05-.7-.35-2.7-2.3-6.4-2.55-2.6-.2-4.95.55 1.55.85 2.9 2.4 1.6 1.9 1.5 3.5-.05.95-2.2 4.2-2.1 3.2-2.2 5.25-.05 1.9 1 3.1 1 1.1 3.35 2.15l1.7.75q3.95 1.7 4.6 2.25 1.15.95 1.15 3.3l-.05 1.85q-.05 1.6-.45 1.8l-1.65-.15-5.1-1.8q3.15 4.25 3.75 8.05.2 1.1-.3 1.1l-.85-.4q-2.5-1.8-4.55-2.75 1.25 2.8.85 6.15-.35 2.85-1.4 3.9l-.9-.15q-.7-.3-.55-.55 2.2-3 1.6-6.55l-1.15-3.1q-.65-.95-.3-1.15h1.15l4.45 1.8q-.6-2.1-1.85-4.2l-1.3-2.05q-.4-.9-.25-1.15l1.05-.2 3.8.8 2.45.7.1-1.85q0-1.85-1.2-2.8-.75-.6-4.1-2.05l-2.15-.7q-4.9-2.2-4.9-6 0-2.1 2.45-5.25 2.4-3.15 2.4-4.3 0-2.05-4.25-5.45-.95-.7.15-1.25l4.3-1.15q4.85-.55 8.5 2.1 1.5-4.1 5.55-7.95Q245.45-.15 252 0q.85.05.75.55l-1.1 1.95-1.6 2.3q-.95 1.4-1.45 2.55l4.75-.5M188.7 62.4q.15-.25.6.15.4.35.25.6-1 1.65-1.4 3-.45 1.3-.1 1.65l.7.8 2.15 2.15q.65.6.65 1.1l-.65 1q-.6.65-.65.35l-1.05-1.65-1.5-1.95-.75-.8q-.9-1 .05-3.35l1.7-3.05"/><path fill="#0d131a" d="M191.15 71.1q.85-1.2 1.25-.9l-.05.75-.45.9q-.8 1.8-.9 5.45-.05 1.25-1.15.6-9.2-5.4-9.45-5.2-.2.2 1.75 3.6l2.95 5.05 1.8 3.3.15.35-1.5 1.8-1.45 1.5 2.7 1.3 3.35 1.35.3 2.35q-1.4-.55-4.55-2.3l-3-1.7q-.6-.35-.65-.65l.4-.7 2.7-3.1-1.5-2.75-3.65-6.7q-1-2.05-1-2.85 0-.5.35-.75l1.85-.1q2.5.7 8.2 4.05.25-1.95.9-3.45l.65-1.2m72.4-14.35q6.4 1.75 10.85 5.55 3.45 2.9 5.3 6.65 1.8 3.65 1.9 7.65.15 5.05-2.25 9.5-2.45 4.45-6.8 7.3-5.5 3.55-12.85 3.8-7.15.25-13.25-2.7-.25-.1.05-.8.3-.65.6-.5 5.6 2.65 12.4 2.25 6.8-.45 12-3.8 4-2.6 6.1-6.5 2.05-3.9 1.9-8.55-.1-3.65-1.9-7.05-1.8-3.45-5.05-6.2-4.15-3.5-9.85-5.15-5.4-1.6-11.2-1.25-1.6.1-1.75-.4-.1-.5 1.55-.75 6-.8 12.25.95M214.7 98.1q0-.3.65-.2.7.05.65.35l.15 1.75q.3 1.85 1.1 3.45 2.55 4.85 9.15 5.15 4.1.15 7.2-3.3 2.55-2.8 2.85-5.55.05-.3.6-.15.6.1.55.4-.55 4.1-3.05 6.9-3.15 3.45-8.2 3.3-7.5-.2-10.3-6.1-.9-1.85-1.2-4.1l-.15-1.9"/><path fill="#0d131a" d="M250.75 95.45q.05-.3.55-.15.55.1.5.4l.1 1.35q.15 1.65.6 3 .1.25-.6.5l-.75-.05q-.55-1.6-.55-3.4 0-1.35.15-1.65m16.7-.8q0-.3.6-.2l.55.4q-.15 4.65-3 7.7-3.05 3.2-7.95 3.05-.35-.05-.3-.75 0-.75.3-.75 3.8.1 6.7-2.7 2.95-2.85 3.1-6.75m-45.8 4.7l.15 1.1q0 1.8-.75 1.8-.7 0-.7-1.8l.2-1.3 1.1.2m35.7-3.3l.05.85q0 1.75-.55 1.75t-.55-1.75l.1-1 .95.15"/><path fill="#0d131a" d="M232.6 118.3q-1.05-1.25-.7-1.4.4-.15 1.3.75 4.95 4.35 11.3 4.65 6.6.25 16.3-3.75l1.55.15 1.45 1.05q1.95 1.75 3.1 1.45.95-.25 2.1-2.15 1.25-1.95 1.65-4 .4-2.25-.55-3-.95-.75-3.8-1.2l-4.1-.65q-2.55-.65-4-2.55l-3.9-4.75q-1.95-1.9-4.1-2.05-1.4-.05-3.2 1l-3.4 2.55q-6 5.35-8.35 6.7-3.5 1.95-7.6 2.95l-6.1 1.25-3.8.75q-1.1.3-1.1 1.15.05 1.15 2.55 2.45 1.45.8 5 2.1 4.15 1.55 5.45 2.4l8.05 5.65q5.85 4.3 7.55 4.45 4.2.3 7.15-.9t3.25-3.3l.95-8.35q-7.35 3.2-13.55 2.35-6.2-.9-10.45-5.75m-5.4-6.1q4-1 7.4-2.9 2.25-1.25 8.15-6.95 3.95-3.35 7.55-2.95 4.5.45 9.25 6.6 1.6 2 2.75 2.5l4.25.9 2.8.5q1.7.35 2.45.95 1.5 1.15.85 4.5-.4 2.25-2.1 4.55-1.75 2.3-3.3 2.7-1.2.35-2.5-.3l-1.95-1.4-1.45-1-3 1.15-.95 9q-.35 3.2-4.1 4.8-3.65 1.6-8.2.9-2.95-.45-8.1-4.2-4.95-3.7-8.1-5.7-.65-.45-4.6-2.2l-4.75-2.2q-2.4-1.4-3.1-2-1.25-1.05-1.25-2.25-.05-1.75 1.7-2.6 1.1-.55 4.35-1.2l5.95-1.2"/><path fill="#0d131a" d="M240.95 127.7q-2.05-3.1-3.25-5.65-.1-.25.95-.3l1.25.25q1.55 3.25 3.15 5.9 1.7 2.85 2.35 3l4.45-.3q2.25-.7 2.5-1.3.55-1.7-.4-7.25-.05-.3.85-.45l.95.15.25 3.35q.15 3.15-.35 4.5t-3.35 2.2l-5.2.35q-1.4-.3-4.15-4.45m-51.4-38.3v-.9q.1-.65.4-.65.4-.05.55 1.15.85 8.05 3.5 14.5l-2.55-1.3q-1.75-5.85-1.9-12.8m17.3 33.5l-.7-3.25q5.8 4.5 12.7 6.4 6.95 1.9 14.25 1l.75.75q.45.8.15.85l-13.8-.45q-7.45-1.55-13.35-5.3m-1.85 9.45q-.2-.2.2-.75.4-.5.6-.3 3.4 4.2 8.45 6.7 5 2.5 10.75 2.9 5.05.35 10-1.4 4.85-1.65 8.05-4.7.25-.2 1 .15t.5.55q-3.55 3.4-8.75 5.45-5.65 2.2-10.9 1.9-5.9-.4-11.15-3.25-5.05-2.7-8.75-7.25m-54.1.15q.25-.15.65.45.45.55.2.75-12.3 9.35-17.7 21.6-5.5 12.4-3.75 27.3l-1.05.85q-1.05.55-1.05.2-1.9-16.15 4.05-29.3 5.8-12.8 18.65-21.85"/><path fill="#0d131a" d="M241.8 136.9q-.1-.25.5-.85t.7-.35q6.1 13.25 7.65 32.1 1.65 20.05-3.3 32.55-9.25 23.2-30.9 32.4-21.5 9.1-44.6.1-.3-.1.35-1.1.65-1 .95-.9 22.35 8.75 42.5 0t29.65-31.35q4.3-10.15 3.15-30.05-1.1-19.85-6.65-32.55"/><path fill="#0d131a" d="M268.85 121.45q-.05-.3.6-1t.7-.45q1.45 6 1.35 9.9-.3 8.1-5.7 14.05-4.25 4.7-11.75 6.1l-7 .45q-.3-.05-.25-.75.05-.75.35-.75l6.15-.5q6.85-1.35 10.8-5.7 5.1-5.6 5.7-12.5.3-3.8-.95-8.85m-19.6 61q-.3-.15-.4-1.15-.05-1 .2-.9 6.7 2.9 11.25 8.3 6.1 7.2 6.65 17.25.7 12.3-6.25 21.6-5.4 7.2-12.75 10-6.8 2.6-16.05 1.3-9.95-1.4-15.05-6.6-.2-.2.75-.7.95-.55 1.15-.3 4.6 4.6 13.05 5.85 8.05 1.2 14.3-1.2 7.1-2.7 12.25-9.5 6.7-8.8 6.05-20.5-.85-16.1-15.15-23.45m-123.3 1.4q5.35-3.9 12-5.35 6.35-1.4 12.6-.3 5.6.95 11.4 4.4 7.05 4.2 11.35 10.7 2.4 3.7 3.8 8.3l-1.45 2.75q-1.35-5.4-4.45-10.05-3.95-6-10.3-10.05-5.6-3.6-10.9-4.5-5.8-.95-11.7.55-5.9 1.55-11.15 5.35-5.35 3.9-8.8 9.4-3.5 5.5-4.35 11.3-2.35 16.25 5.6 27.1 7.05 9.6 19.2 11.85 12 2.25 23-4.6 11.05-6.8 13.7-18.15 1.8-7.75.8-14.85l2-1.2q.65 4 .65 7.4 0 3.2-1.6 10-2.75 11.75-14.85 18.75-11.95 6.9-24.65 4.5-12.85-2.35-20.3-12.2-8.55-11.2-6.15-28.1.9-6.15 4.95-12.5 4.05-6.4 9.6-10.5M186 90.5l6.2 8.65-1.1 2.65L160 56.2q-1.8-2.65-2.65-2.3-.25.15-.3.85-.05.95.3 2.4l9.8 44.15-2.25 1.5-8.85-44.75q-.5-2.5-.15-4.05.2-1.25.85-1.5 1.65-.75 4.75 3.7l22.4 31.35-.8.95 2.9 2m-64.65-9.3q-1.85-4.15-.35-5.45 1.45-1.15 4.9 1.35 2.95 2.1 36.1 27.2.25.2-.65.9-.85.75-1.1.55l-16.9-13.2L124.6 78l-1.8-1-.9-.05q-.65.55.7 3.5l14.4 27.6 13.6 25.6-.85.85q-1 .55-1.15.3l-13.45-26.35-13.8-27.25m26.7 54.9q.3.1-.8.95-1.15.8-1.4.7l-47.8-19.4q-2.35-.85-2.75-.35-.35.5 1.6 2.85l18.5 18.55 17.6 17.45q.25.25-.55 1.1-.8.9-1.05.65l-17.7-18.1-18.15-18.85q-2.45-2.95-1.45-4.45 1-1.4 4.8-.2 4.55 1.55 49.15 19.1"/><path fill="#0d131a" d="M85.15 159.05q.6-1.6 3.75-1.5l21.95 1.1 20.55 1.1v2.1L88.7 159l-1.5.15q-.6.15-.7.45-.4.95 2 2.55l36.65 24q.25.15-.75.9-1.05.75-1.3.6L87.65 163.5q-1.75-1.35-2.35-2.7-.45-1-.15-1.75M334.45 115l-1.45-1.2q1.9-3.7.5-7.9-1.45-4.05-5.05-7.55-3.65-3.55-8.3-5.4-5.9-2.4-10.25-.85-1.4.5-2.45 1.35l-.85.85q-.2.25-.75-.2-.6-.45-.45-.7l1-1q1.25-1.05 2.8-1.7 4.9-1.95 11.5.7 4.95 2 8.8 5.75 3.85 3.75 5.35 8.05.9 2.5.8 5.15-.15 2.6-1.2 4.65m-7.7 5.85q-3.15.85-7.05.05-3.7-.75-6.7-2.65-.25-.15 0-.65.3-.55.55-.35 2.35 1.4 5.45 2 3.5.65 6.65 0l.15.95.95.65m-128.95 79.5l.95 1.95-6.35 1.15.4-1.85 5-1.25m8.25-3.2q3.1-1.3 5.35-2.6l1.05 1.7q-3.1 1.85-6.2 3.2l-.2-2.3M194.6 171.8q-6.5 2.85-10.45 8.5-3.95 5.65-3.6 11.5.4 6.45 3.95 8.75l.5 2.1q-.95-.35-1.8-.9-2.1-1.3-3.25-4.15-1.15-2.75-1.25-6.45-.2-5.85 3.65-11.4 4.1-6 11.35-9.2 7.9-3.5 15.8-1.5 6.85 1.7 9.65 5.9 4.25 6.35 2.75 11.35-.8 2.5-2.95 4.8l-.4-2.1q1.15-1.4 1.65-3 1.25-4.35-2.35-9.8-3.15-4.7-9.95-6-6.8-1.3-13.3 1.6"/><path fill="#0d131a" d="M216.65 172.6q.2-.7.5-.6 17.25 5.9 16.35 8.25-.25.7-3.4 1.55l-8.8 1.6q-.3.05-.35-.7-.05-.7.2-.75l8.4-1.15q2.7-.45 2.7-.85 0-.4-5.3-2.65t-10.25-3.95q-.25-.1-.05-.75m-19.9 22.1l.1 1q1.15 3.9 4.45 9.1 2.65 4.1 4.75 6.35l.05-1.4q0-3.7-.65-10.5-.6-6.65-1-7.65-.2-.4-1.4-.55l-3 .35q-3.3 1.15-3.3 3.3m-1.65.75q-.2-1.9.55-3.05.95-1.4 3.75-2.45 1.95-.75 3.9-.4t2.65 1.5q.9 1.6 1.4 10.9.45 9.25-.3 10.5-.25.35-.7.3-1.45-.45-6.05-7.1-4.8-7-5.2-10.2m14.3-5.75q0 .5.3.95 2 3.5 5.95 8.5 3.6 4.5 5.55 6.25-.25-2.65-2.1-10.85l-2.05-8.3q-.35-.7-1-.7-1.3-.15-3.25.65-2.1.95-3 2.3-.4.65-.4 1.2m6.75-5.7q1.7.2 2.3 1.2.55.9 2.4 10.25 2 9.8 1.45 10.95-.15.3-.5.35-1.35.25-7.1-6.75-5.45-6.6-6.45-8.95-.55-1.2-.45-1.95.05-.65.7-1.6 1.1-1.7 3.55-2.7 2.25-1 4.1-.8m-29.2 11.7q-1.75.55-1.85 2.2v.15q.1 3.85 1.5 9.6 1.15 4.85 2.4 7.95l2.25-10.7q1.4-7.4 1.15-8-.35-.7-2-1.15-1.8-.5-3.45-.05m1.7-1.75q1.65 0 3.25.8 1.75.85 2 2 .4 1.85-1.55 11.05-1.9 9-2.65 9.8-.3.3-.7.2-1.2-.25-3.45-7.9-2.25-7.7-2.1-11.35.05-1.95.85-2.95 1.2-1.6 4.35-1.65"/><path fill="#0d131a" d="M179.3 194.3q.15-.25.75.7l.55 1.05-2.2 4.1q-2.35 4.65-2.95 7.25l4.85-3.35 3.35-2.4q.25-.15.8.6t.3.9l-9.5 5.75q-1.2.75-1.1-.65.1-2.7 2.55-8.45 1.65-3.8 2.6-5.5M316.4 84.35q.45.2.55 1.1.2 1.45-.15 5.55-.05.3-.75.25-.7-.05-.7-.35v-.05l.45-3.15q.25-2.1 0-2.2-.3-.05-1.7 1.95l-2.45 3.75-1.25.25q-1.15 0-.95-.25 5.4-7.7 6.95-6.85m11.95.8q.55.4.25 1.65-.45 2.2-3.1 8.25-.15.35-1.35-.6l2.3-5.05q1.35-3 1.1-3.15-.3-.2-8.15 5.8-.25.2-1.05-.3t-.55-.65q9.2-6.9 10.55-5.95"/><path fill="#0d131a" d="M325.3 94.65q3.95-1.75 7.4-2.9 5.35-1.8 6.2-.8.55.6-.2 2.15-1.3 2.65-6.45 8.5-.3.35-1.3-1.35l4.7-5.3q2.6-3.05 2.4-3.3-.25-.25-4.35 1.35-3.55 1.4-7.25 3.1-.3.1-.85-.6-.6-.7-.3-.85"/><path fill="#0d131a" d="M348.05 103.6q.3.8-1.5 2.1-2.85 2.05-11.55 6.3-.3.1-.35-.9-.05-1 .15-1.1l7.9-3.8q4.25-2.1 4.2-2.3-.05-.4-4.6-.8-5.2-.4-9.7.05-.3.05-.6-.85-.35-.85-.05-.85 5.2-.25 9.3.1 6.1.45 6.8 2.05m-18.75 12.75q-2.05 2.05-2.85 3.3 12.95 4.95 13.2 4.65.25-.25-2.45-4-2.7-3.8-4.95-6.35-.8.25-2.95 2.4m4.2-3.65q.65.4 4.15 5.85 3.65 5.7 3.25 6.6l-.45.35q-1.45.2-15.35-4.8-.4-.25-.4-.65 0-1.2 2-3.65 2.3-2.7 4.85-3.8l1.95.1M124.3 239.2q.15-.25 1.2.55 1 .8.85 1.05-.7 1.3-2.6 7.05-2 6-2.95 9.85-1 4.35 1.45 7.45 2.1 2.6 5.95 3.7 5.1 1.5 9.9-.35 5.2-1.95 6.9-6.85l3-9.55 1.75-5.65q.15-.3 1.7-.7l1.35-.15-2 6.2-3.4 10.05q-2.15 6-8.3 8.6-5.7 2.4-11.35.75-4.85-1.4-7.4-5.3-2.55-3.9-1.5-8.35l2.8-10.4q1.9-6.6 2.65-7.95m123.4-3.6q.05-.3 1.25-.65l1.2-.05-1.75 15.4q-.4 3.2-4.75 5.1-3.8 1.65-8.35 1.5-5.35-.25-9.6-2.5-4.5-2.4-4.65-5.65-.1-2.2.2-8.25l.3-5.9q.05-.3 1.1.6 1.1.85 1.05 1.15l-.45 5q-.4 5.3-.3 7.4.1 2.55 4.05 4.25 3.6 1.55 8.4 1.75 4.3.2 7.35-.85 3.45-1.2 3.75-3.6l.8-8.7.4-6"/><path fill="#0d131a" d="M253.15 285.85q-4.65-1.4-12.4-6.45l-4.15-2.55q-3.6-1.85-7.45-2.45-5.55-.85-9.2-2.25-4.9-1.8-7.55-4.85-2.05-2.35-2.9-6-1.05-4.4.35-8.65 1.25-3.85 4.55-6.85 3.4-3.1 7.5-3.85v1.55q-3.5 1.2-6 3.6-2.45 2.4-3.55 5.65-1.2 3.6-.5 7.25t3.1 6.4q2.35 2.7 6.25 4.1 2.3.8 7.3 1.65 5.6.95 7.95 2.1 1.5.75 4.3 2.65 6.9 4.5 11.4 6.15 7.8 2.9 15.1 1.15.3-.05.5.65.15.75-.15.8-7.65 2.3-14.45.2m23.8-7.1q3.35-1.7 5.15-3.3l1.35-.05q.75.45.45.95l-3.6 2.9-2.25 1.6q-.25.1-.8-.9-.55-1.05-.3-1.2m-29.35-34.4q-.2-.2.05-1.05.2-.85.4-.65 2 2.35 7.7 4.65 3.1 1.25 10.45 3.55 9.45 2.9 11.45 3.95 5.25 2.65 7.1 7.8l-.55.55-.8.05q-1.85-3.95-7.8-6.85-3.45-1.7-11.9-4.35-7-2.2-9.4-3.2-4.45-1.9-6.7-4.45"/><path fill="#0d131a" d="M260.15 275.15q-.4 1.7.15 3.65 1.05 3.3 5.15 4.65l5.5 1.55 5.65 1.8 3.55.85q-5.15-11.75-13.3-15.35-3.3-1.4-5.15.25-1.15 1.05-1.55 2.6m.95 8.1q-1.7-1.6-2.4-4.05-.75-2.4-.2-4.75.5-2.3 1.95-3.6 2.65-2.2 7-.35 5.7 2.5 10.25 8.75 3.9 5.35 3.95 8.35 0 1.05-.7 1.35l-3.3-.2-7.5-2.15-5.25-1.5q-2.15-.3-3.8-1.85m18.9-21.6q-2-.85-2.9.5-1.25 1.8-1 5.35.2 3.25 1.1 4.2 1.65 1.75 10 4.75 8.15 3 8.6 2.35.7-.85-4.55-7.45-5.8-7.25-11.25-9.7m-4.6-.8q.55-.8 1.7-1.15l3.35.25q5.75 2 11.35 9.2 4.7 5.95 5.2 9.15l.05.45-.35.95q-.4.4-1.35.35-3-.1-10.15-2.55-7.5-2.6-9.2-4.4-1.35-1.45-1.8-5.2-.5-4.35 1.2-7.05M113.45 295.6q-.85-3.5-3.55-4.4-1.7-.55-3.75 1.05t-3.7 4.8q-2.65 5.3-2.65 12.2 0 5.15.5 5.3l1.95-1.65 3.3-3.35 5.05-4.95q3.05-2.9 3.05-7l-.2-2m-12.5-.05q1.85-3.6 4.55-5.2 2.45-1.45 4.85-.8 1.8.45 3.15 1.9 1.35 1.45 1.85 3.5.65 2.9-.05 5.55-.7 2.75-2.8 4.8l-5.35 5.2-3 3.15-2.05 2.05q-1.95 1.7-2.6 1.55-.3-.05-.7-1.15-.8-2.45-.6-8.1.25-7.55 2.75-12.45m43.65-1.6q-1.45-1.7-3.45-1.75-2.15 0-3.95 1.85-1.8 1.85-2.45 4.7-.25 1-.25 2.9 0 3.9 1.1 10.1 1 5.95 1.55 6.1 1 .2 5.15-5.8 4.6-6.7 4.6-11.35l-.2-1.95q-.65-3.1-2.1-4.8m-8.55-1.45q2.35-2 5.1-2 2.55.05 4.6 2.1 2.1 2.15 2.85 5.7 1.1 5.05-2.9 11.95-3.2 5.5-7 8.65-1.5 1.3-2.15.95-.45-.25-1.2-2.25-1-2.8-1.85-7.95-.85-5.15-.85-8.7 0-1.8.25-3.15.75-3.25 3.15-5.3"/><path fill="#0d131a" d="M119.5 256.6q-1.15 0-4.5 4.95-3.95 5.8-7.7 14.2l-3.2 6.1q-3.2 5.65-3.9 8.5-1.2 4.7.95 9.55l-.55.55-.8.05q-3-5.15-2-10.45.65-3.5 3.85-9.15 5.3-10.65 8.6-16.45 6.1-10.6 9.8-9.8.3.1.05 1-.3.95-.6.95m26.5 3.75q1.1-.25 1.9.35 1.6 1.15 3.1 5.9 1.4 4.5 2.2 10.4l.9 6.35q1.85 12 .2 17-1.5 4.65-7.2 6-.3.1-.3-1 0-1.05.3-1.15 4-1.1 4.95-5.2 1.15-4.85-.75-17.1l-.9-6.35-1.35-8.8q-.9-4.1-2-4.85l-.7-.1q-.3.05-.45-.65-.2-.7.1-.8m-23.25 46.5l11.4-.7q.3-.05.55.9.25 1-.05 1.05-4.1 1.05-10.35 1.25-8.8.3-15.15-1.75-.3-.1.45-.85l1-.7 12.15.8m16.9-140.45l1.55.1q.3.4-.65 1.4-4.05 4.3-4.2 6.15l.15.3q2.65 1.35 3.75 2.5.6.65.85 1.5l-.35.35q-.5.05-.6-.25-.35-.85-4.3-2.8-1.2-.55-1.1-1.45.05-.8 1.45-2.9 1.55-2.25 3.05-3.55-3.85 1.5-7.1 4.65-1.6 1.6-2.45 2.9-.1.25-.65-.2t-.4-.7q.55-1.55 2.15-3.25 3.2-3.35 8.85-4.75m32.45 28.9q-.35-.65-.05-.75 1.5-.25 2.25-1.35.6-.8.35-2.1-.05-.3.7-.4.7-.15.75.15.45 2.15-.35 3.35-.7.95-1.9 1.4l-1.15.3q-.3.05-.6-.6m47.25-5.65q-.15-.1.2-.45.4-.35.6-.2 1.4 1.05 3 2.85 1.85 2.05 1.9 2.9 0 .75-.6 1.1l-3.7 2.7-.25-1.45q1.15-1.15 3.1-2.3-.05-.55-1.3-2.1l-2.95-3.05"/><path fill="#0d131a" d="M238.5 185.15l-.2 1.1q-.4 1.1-2.1 1.9-2.55 1.25-4.2 3.1-1.8 1.95-1.8 3.7l.1.8q.35 1.2 2.65 4 2.5 3.1 2.5 4.35l-.45 1.1q-.7.7-2.8 1.65-1.5.65-2.15 1-1.2.6-1.25 1.05l.55 2.35.75 3.15-.1 1.15-.85.8-7.05 4q-1.4.8-1.1-.8l.85-3.7q0-.5-.55-.95l-2.05-1.2-1.1-.6q-1.95-1.05-2.15-1.8-.1-.45.7-1.55l.65-.75.8-1.15q.35-.55.15-.75l-1.55-.1q-3.55.1-4-1-.4-.95.5-2.5.85-1.4 2.55-2.9l1 1.1q-1.75 1.2-2.55 2.5-.7 1-.5 1.3.4.7 2.95.5 2.05-.2 2.5.45l.25.7-.3 1.15L218 210l-.8 1.05.85.65 2.05.95q1.6.8 2.2 1.25 1.05.85 1.05 1.9l-.35 1.45-.8 2 6.3-4.2.15-.55-.5-2.95-.5-2.5q0-1.15 1-1.9l2.9-1.65 1.75-.75 1-.7q0-.4-.95-1.55l-1.55-1.8q-2.5-3.1-2.9-4.55l-.15-1.2q0-2.35 1.75-4.4 1.85-2.15 5.15-3.45 1.35-.5 1.6-1.25l.1-.6q0-.7-.7-2.05l-1.35-2.45q-1.45-2.75-1.9-4.35l-.15-.85q0-4.35 11.25-9.3l1.25-.05q.3.3.05.95-1.75 4.85-1.35 7.15.15 1.2 1.9 3.6l1.95 2.95q1.05 2 1.35 4.5.05.3-.7 1-.7.7-.7.4-.4-4.3-3.1-8l-1.6-2.4q-.75-1.5-.6-3.2.05-1 .65-2.9l1.15-3.05q-3.6 1.7-6.55 3.95-3.45 2.65-3.45 4.35l.05.5 1.8 4.05 1.3 2.7q.6 1.4.6 2.4m-205.3-31.1q-.85-1.45-.5-1.65.4-.2 1.3 1.2 11.3 17.85 33.3 30.5 22.35 12.85 47.8 15.8l-1 2.4q-26-3.1-47.8-16.1-21.9-13-33.1-32.15m116.6 95.2l.9-2.25q23.5-.6 47.95-11.35l3.35-.2 2.75.05q-27.6 12.9-54.95 13.75"/><path fill="#0d131a" d="M28.95 152.9q11.1 29.75 28.9 50.85 18.55 21.9 42.95 32.8 11.7 5.15 23.15 7.75l-.65 2.55q-11.75-2.55-23.25-7.65-25.05-11.15-43.9-33.8-18.7-22.4-28.1-52.15-.5-1.45-.05-1.6.45-.2.95 1.25m224-73.75q.65 4.05-.5 8-1.1 3.95-3.75 6.9-3.4 3.85-8.9 5.85-4.3 1.5-9.1 1.75-5.7.3-11.35-1.45-5.3-1.7-8.35-4.5-1.05-1.05-.8-1.3l.7.1.75.45q3.25 2.4 8.25 3.7 5.2 1.4 10.65 1.15 10.45-.4 16.2-6.85 2.45-2.75 3.55-6.35 1.15-3.7.55-7.35-1.45-8.85-10.75-14.4-3.7-2.15-7.8-3.65l-6.45-2.1-6.45-2.05q-3.15-1.35-4.85-3.75-1.45-2.1-1.25-6.15.1-2 1.05-6.9.9-4.7-.5-6.1-1.5-1.45-6.95-1.1l-8.1.7q-7.45.35-9.3-1.25-2.6-2.3-2.15-8.6l.5-4.15q.15-2.1-.7-2.95-.7-.7-2.35-.6l-4.35.1q-4.8-.25-8-4.9.35 2.3 1.3 4.8.35.8-.1 1.05l-.9-.05q-4.1-1.85-6.5-4.4-1.95-2.05-3.25-5.05-.45 4.35.65 8.1 1.35 4.6 4.75 7.05l5.25 3.7q1.5 1.2 1.35 2.4-.2 1.7-2.7 5.65-3.45 5.65-2.95 7.85.6 2.75 7.05 5.4 5.25 2.15 7.7 3.85 3.45 2.4 4.35 5.6l1.15 4.4q.75 3.15 1.8 4.55 1.6 2.05 5.85 4 1.1.5.95.9-.1.35-1.3 0-5.2-1.65-7.15-4.1-1.15-1.4-1.95-4.8-1.55-6.75-3.35-8.55-1.35-1.35-8.8-4.5L171 47.1q-2.35-1.4-3.15-3.05-1.25-2.55.95-6.65l3.85-6.55q.85-1.8-.2-3.05-.65-.75-3.95-2.85-5.7-3.7-6.9-9.25-.75-3.4.2-9.05.25-1.4.85-1.4t1.55 1.7q2.75 5.35 7.55 8.05-.85-2.75-.85-4.95 0-1.6.55-1.6l.85.65 2.4 2.9q2.9 2.85 5.6 2.85l5.1-.45q2.1-.25 3.1.7 1.2 1.2 1.05 4.15l-.45 4.5q-.2 3.55 0 4.9.3 1.65 1.5 2.7 1.6 1.35 7.85.85l9.2-.9q6.45-.35 8.1 1.45 1.6 1.7.55 7.25l-1.25 6.5q-.45 3.8.75 5.55 1.5 2.1 4.6 3.35l6.35 1.95 6.8 2.25q4.35 1.7 8.15 3.9 9.6 5.65 11.25 15.65"/><path fill="#0d131a" d="M10.75 82.65q1.75.7 3.65 2.2 3.5 2.7 4.65 6.35 2.25-2.45 5.45-3.05l1.05.1q.2.25-.3 1-1.9 3.15-3.1 6.5-1.65 4.45-.85 6.3.55 1.2 1.4 1.85.75.55 1.45.5 1.7-.1 3.3-4.45.6-1.65 1.35-.05l2.75 6.3q1.25 3.35.6 4.25l-1.25 1.3-3.55 3.75q-2.1 2.6-1.25 3.7 1.1 1.6 5.65 3 7.75 2.4 9.35 5.95.65 1.4 0 4.95-.7 3.95-.6 4.9.1 2.1 1.9 4 3 3.1 3.3 4.6.4 1.95-2 5.35-2.15 3.1-2.95 5.45-.95 2.7-.4 5.2l-.75-.5q-.8-.85-.8-1.4 0-4.75 3.25-9.65 1.95-3.05 1.95-4 0-.75-1-1.8l-2.45-2.4q-1.4-1.45-1.95-2.7-.6-1.3-.4-2.85l.85-4.6q.8-3.9-2.2-6.1-.8-.6-5.7-2.65l-4-1.8q-1.7-.9-2.3-1.75-.6-.75-.5-1.85.2-2.8 5.15-7.75l1.05-1.1.05-.3-.7-3.35-1.65-4.9q-1.55 4.35-3.9 4.5-2.75.2-4.4-2.95-.45-.9-.45-2.2 0-2.35 1.2-5.35 1.15-2.85 3.1-5.6-1.65.95-4.5 3.8-.95.95-1.3-.35-1.4-4.75-6.8-8.8l1.35 3.35q.9 2.4.9 4 0 3.1-1.35 5.2l-1.95 2.45-2 2.05-2.05 2.45q-.75 1.15-.75 2.05 0 1 .85 2.15 3.4 4.35 4.8 6.55 1.8 2.85 1.8 4.45 0 1.25-.75 1.9-2.65 2.4-4.55 4.75-2.4 2.95-2.4 4.55l.6 1.4 2.2 3.3q1.9 3.25 1.9 5.35 0 1.75-1.2 1.35l-2.3-.75-4.5-.65q6.85 5.3 6.85 7.85l-.15.65q-3 6.5-3 9.25 0 1.85.85 2.4 1.35.85 5.2 1.4l7.1 1.1q7 1.45 11 3.7l.9.9q.25.5-.5.85l-2.2.75q5.55 1.1 8.6 2.75l.1.85q-.1.75-.35.6-1.65-.9-5.7-2.15-3.55-1.15-3.85-1.15-1.2-.35-.3-1.25l2.1-1.2q-1.3-.65-4.85-1.55l-5.4-1.2q-9.95-1.4-12.65-3.2-1.5-.95-1.5-3.6-.05-2.75 1.3-6.15l1.4-3.6q.05-.85-1.85-3.1-1.8-2.1-4.55-4.5-.4-.35-.35-.7 0-.4.65-.55 3.9-1.1 8 .75-.15-1.35-2-4.25l-2.2-3.35q-.9-1.35-.9-2.25 0-2.85 2.75-6.25l4.1-4.15q.3-.2.3-.8 0-2.85-5.65-10.15-1.2-1.55-1.2-3.05 0-1.35 1-2.8l2.25-2.7 3.35-4.1q1.1-1.8 1.1-4.4 0-2.65-.9-5.6l-.9-2.5q-.45-.85 0-1.1l1 .1m263.8 8q-.2-.2.25-1.05.5-.85.7-.65l8.5 7q.3.2-.2.65-.5.5-.8.3l-8.45-6.25"/><path fill="#0d131a" d="M280.75 91.9l-.9 1.25-1-.15-.75-.65q1.45-2.1 3.25-4.05 2.15-2.3 3.1-2.4 2.1-.2 9.3 8.1.95 1.1.7 1.45-.3.3-1.45-.65l-5.55-5.05q-2.55-2.4-2.9-2.35-.6.05-3.8 4.5"/><path fill="#0d131a" d="M288.85 89.65q2.25-2.2 3.05-2.2.75 0 3.2 2.5.2.25-.35.75-.5.55-.7.3l-2.1-2.45-.9.85-1.2 1.35q-.25.2-.7-.35-.5-.55-.3-.75"/><path fill="#0d131a" d="M298 85.8q1.6-.45 8.5 7.85l6.65 8.5.1.2q1.3 1.9 1.75 3.8.8 3.3-.25 7.9-3.05 13.05-4.2 13.65-.6.3-2.9-.4-2.1-.7-3.35-1.5-.3-.2-.05-.85.3-.7.55-.55 1.75.95 4.4 1.8l1.75-4.65 2.35-7.85q.55-2.45.55-4.55 0-3.35-1.8-6l-.1-.2q-1.55-2.35-6.9-8.45-6-6.95-7-6.7-.5.1-4.3 6.6-.15.25-.75-.35-.65-.6-.5-.9l2.45-4.1q1.95-2.95 3.05-3.25m-16.7 43.05q1.1-1.2 1.45-1.1.4.1-.6 1.8-1.35 2.3-4.35 6.05-3.45 4.2-4.55 4.35-.8.1-4-4.05-.2-.2.35-1.05.55-.8.75-.6l1.6 2.5q.95 1.55 1.25 1.55.35 0 3.75-4.2l4.35-5.25"/><path fill="#0d131a" d="M291.3 122.85q.95-1.55 1.3-1.3.3.25-.55 2.25-1.15 2.75-6.15 10.9-.55.8-1.25.5l-5.15-2q-.25-.1.05-1.05.35-.9.65-.8l4.45 2.3q.5-.05 6.65-10.8"/><path fill="#0d131a" d="M296.2 123.15q.05-1.35.4-1.35.4.05.5 1.35l.4 5.5q.1 4.25-.5 4.75l-3.45.55-3.55-.1-.6-.55q-.5-1-1.35-4-.1-.3.7-.7l.9-.1.65 2.55.6 1.5h2.5l2.55-.35q.25-.2.25-4v-5.05"/><path fill="#0d131a" d="M305.95 120.85q.15-.25.7.3.5.55.4.8-4.45 9.9-6.05 10.25-.85 0-4.1-2.05-.25-.2-.25-1.3t.25-.95l2.1 1.65q1.35 1.1 1.65 1.05l2.1-3.4 3.2-6.35M266.2 99.9l6.8.25q2.3.5 5.3 1.85 1.1.45 1 .9l-1.4.15-5.75-1.25-6.25-.25q-.3.05-.15-.8.15-.8.45-.85"/><path fill="#0d131a" d="M264.85 102.5q-.1-.3.45-.9.55-.6.7-.35l4.15 8.95q.1.3-.7.6l-.9.05-3.7-8.35m13.95 8.15q1.55-.85 1.9-.45.35.4-.9 1.3l-4.25 2.75-3.35 2q-.25.15-.45-.7-.15-.85.1-1l6.95-3.9m-7.3 8.75q.35-.6 3.45-1.75l4.5-1.4 1.6.1q.15.45-1.2 1l-4.1 1.4q-2.75.95-2.8 1.35-.05.5 1.55 3.9 1.65 3.35 2 3.4.45.05 5.85-4.2 1.3-.95 1.75-.75.45.2-.95 1.55-5.5 5.25-6.95 5.05-.5-.05-.95-.55-.9-.95-2.3-3.85-2.1-4.3-1.45-5.25M282 98.65q.35-1.9 1.1-2.7.65-.65 1.3-.5l3.7 1.25 4.1 1.55q1.35.5 1.15.85-.2.35-1.55 0-7.2-2.3-7.55-2.15-.25.1-.65 1.55-.4 1.4-.3 1.65.2.4 10 3.15 1.25.45 1.2.8l-1.4.15-5.4-1.3q-5.4-1.4-5.75-1.95-.35-.55.05-2.35m13.3 6.3q1.5.05 1.5.4-.05.4-1.3.55l-4.25.3-3.25.45q-.2.35 1.65 5.45 1.85 5.1 2.15 5.2l1.8-1.35 2.8-2.5q1.55-1.2 1.95-.9.45.3-1.05 1.75l-4.8 4.4q-.8.6-1.25.4-1.1-.35-3.15-6.5-2.05-6.05-1.6-6.85.5-.8 3.9-.9l4.9.1m11.25-4.3q1.25.4 1.1.85-.2.45-1.3.25l-4.6-1.05-2.7-.5q-.2.25 1.2 4.9 1.35 4.65 1.65 4.8.25.15 1.95-.85l3.25-2q1-.6 1.35-.3.35.3-.75 1.1l-5.1 3.4-1.4.2q-1.1-.35-3.15-8.25-.9-3.55-.25-4.2.45-.45 1.4-.3 1.75.2 7.35 1.95m-.1 10.6q1.1-.75 1.3-.4.2.35-.7 1.25-4.6 4-4.6 4.4l2.45 2.45 2.7 2.1 1.25-2.75 2.1-5.3q.45-1 .85-.7.45.3.05 1.55-1.75 5.7-2.75 7.65-.65 1.4-1.25 1.4-.55 0-3.6-2.5-3.25-2.65-3.5-3.9-.15-1.15 5.7-5.25m-141.35 20l4.3 3.7q1 1 .7 1.25l-1.15-.3-4.1-3.05-3.6-2.6q-.3.1-2.25 4.5-1.95 4.45-1.8 5 .2.45 3.7 1.9l5 2.05q.8.4.6.75l-1.05.1-4.75-1.6q-4.75-1.8-5-2.9-.35-1.65 1.85-6.55 2.15-4.9 3.25-4.9 1 .05 4.3 2.65"/><path fill="#0d131a" d="M163.1 142.6l.7.5q.35.55.1.6-4.8.95-5 1.65-.15.55 4 6.55l-.3.7-.6.4q-5.2-6.3-4.6-8.1.35-1.25 5.7-2.3"/><path fill="#0d131a" d="M165.2 146.6q.5-.5 1.3-.35 1.15.2 3.65 1.6l3.5 2.2q1.15.8 1.2 1.3.1.55-1.35-.2l-3.8-2q-2.85-1.45-3.2-1.35-.5.15-2.6 3.25-2.2 3.2-2.05 4 .05.3 4.05 1.1l4.8.85q1 .25 1 .65 0 .45-1.75.4l-5.75-.65q-3.8-.7-4-1.45-.4-1.55 2-5.3l3-4.05"/><path fill="#0d131a" d="M165.9 157.15l.75.05.65.35q-1.85 6.7-1.75 7l3.3.8 4.9.6q.3 0 .3.75-.05.75-.35.7-9-.6-9.55-2.25-.25-1.05 1.75-8m30.45-28.35q-.25-.15.1-.9t.6-.6q3.05 1.45 5.7 5 .2.25-.35.6-.5.4-.65.15-2.1-2.7-5.4-4.25m-11.8-3.65q.3-.05.35.7 0 .75-.3.75l-6.55.65q-.3.1-.45-.6-.1-.7.15-.85 2.1-1.05 6.8-.65m-16.25 5.35q.25-.2.75.35t.25.75l-1.2 1.25-.4.5-.65.1-.65-.25q-.5-.95 1.9-2.7"/><path fill="#0d131a" d="M169.35 121.6q5.15-2.55 6.45-2.1.65.25 2 4.5l1.65 6.35q.2 1.3-.15 1.35-.35.05-.8-1.05l-1.7-5.35q-1.3-4.25-1.65-4.35-.65-.25-5.05 2.15-4.4 2.4-4.45 3 0 .6 6.75 7.35.7.7.5 1.1-.2.4-1.15-.25-1.25-.75-4.4-4-3.35-3.5-3.35-4.35 0-1.7 5.35-4.35m14.4-2.3q.85-1.05 7.4.35 6.65 1.45 7.4 3.2.2.45-1.2 4.35l-2.3 5.5q-.7 1.2-1 .9-.25-.25.05-1.45 3.05-8.35 2.85-8.75-.4-.8-6-2.1-5.55-1.25-5.95-.9-.3.25.05 4.05l.6 6.55q.1.8-.2 1-.35.2-.7-.85t-.9-5.8q-.65-5.35-.1-6.05M204 129.95q.3-.25.6-.2.35.05.55.4l2.3 3.3q2.4 3.6 2.75 5.2.15.7-.2.95l-4.2 2.8q-.25.2-.6-.2t-.2-.55l3.6-2.8q.1-.45-1.95-3.85l-2.25-3.3-1.95 1.6-2.35 2.05q-.95.7-1.3.55-.35-.2.6-1.2l4.6-4.75m-20.05 10.7q.3-.65 2.05-.75 2.8-.25 8.2 1.15.25.1.2.65-.1.55-.4.5l-6-.85-2.75.1q-.2.25.3 1.65l1.45 4.4q.25.95-.15 1.05-.4.1-.9-.9-1.7-3.5-2.1-5.15-.25-1.2.1-1.85"/><path fill="#0d131a" d="M202.55 139.3q4.85 3.3 5.25 4.25.3.75-1.3 3.3l-1.95 2.8q-.8 1.05-1.15.7-.35-.3.15-1.25l1.8-2.95 1-2.1q-.1-.4-4.9-3.5-4.9-3.15-5.45-3-.45.15-1.15 4.35l-1 6.1q-.25 1.15-.75.9-.5-.25-.4-1.3.95-11.3 2.75-11.6 1.85-.35 7.1 3.3"/><path fill="#0d131a" d="M205.75 147.3q-.2-.1.05-.6t.5-.4q3.05 1.15 4.95 2.55 1.6 1.15 1.8 1.9.2.7-.85 2.35l-1.85 2.45-.7-.15-.4-.55q2.5-3.15 2.35-3.75-.05-.5-5.85-3.8"/><path fill="#0d131a" d="M212.25 158.1q-4.3-3.4-4.85-3.3-.5.1-1.85 3.7l-1.85 4.95q-.65 1.4-1.1 1.15-.45-.25-.05-1.75 2.3-9.45 4.55-9.6 1.7-.15 6.25 3.55 4.4 3.6 4.75 4.95.1.55-1.8 2.6l-3.25 3.05q-1.25 1-1.6.7-.35-.3.65-1.35l2.7-2.65 1.75-2.1q-.05-.5-4.3-3.9"/><path fill="#0d131a" d="M214.3 165.75q-.2-.1.15-.55.35-.45.7-.4.5.05 2.45 1.7 2.1 1.7 2.15 2.3.05.65-.55 1.6l-1.9 2.45q-.25.3-1.15-.65 1.9-2.7 1.85-3.15l-1.3-1.4-2.4-1.9m-38.8-30.15q3.15-1 3.85-.8.65.3 1.2 1.5 1.15 2.6 2.4 9.7.2 1.1-.1 1.45-.3.4-.75-.8l-1.9-6.7q-.95-3.55-1.4-3.65-.6-.2-5.2 1.75-4.6 1.95-4.6 2.6.05.65 2.55 3.2l5.1 5.05q.85.9.6 1.3-.25.35-1.3-.4-5.65-4.35-7.6-7.1-1.1-1.6-.8-2.35.25-1.35 3.05-2.8 1.8-1 4.9-1.95m26.3 17.05l-5.75-.4q-5.25.1-5.6.75-.15.3 1 4.65l1.5 6q.25 1.4-.2 1.45-.5 0-1.1-1.55l-1.75-5.65q-1.35-5.2-.65-6.05.8-.95 6.55-1.2 6-.3 7.15 1.15.8.95.3 4.95l-.95 5.05q-.3 1.15-.65 1.1-.35 0-.3-1 .8-8.95.45-9.25m-17.55-.05q.85.3 3.4 5.95 2.25 5.05 2.9 7.15.4 1.4-.05 1.4l-.95-.9-2.9-6.4q-2.55-5.65-2.95-5.7-.6-.1-5.15 3.35-4.65 3.55-4.5 4.45.15.7 8.15 7.75 1.1 1.15.75 1.55-.35.45-1.9-.75L175.9 166q-3.5-3.35-3.5-3.85 0-2.55 5.5-6.4 5.2-3.65 6.35-3.15"/><path fill="#0d131a" d="M174.35 164.55l.8.1q.65.4.5.65l-3.1 6.1q-.15.3-.8 0-.7-.3-.55-.6l2.05-4.15 1.1-2.1"/><path fill="#0d131a" d="M167.25 169.75q.85-.45 4.95 1.1 3.5 1.3 5.3 2.35 1 .6.85 1-.15.4-1.25 0l-5.45-2.05q-3.3-1.2-3.75-1-.55.2-1.95 5.15-1.45 4.85-1.2 5.35.2.35 3.55.75l8.95.95q1.4.2 1.35.65-.05.5-1.45.5l-12.1-.85q-1.55-.45-1.7-1.25-.4-3.25 1.45-8.05 1.6-4.2 2.45-4.6"/><path fill="#0d131a" d="M174.4 183.4l.75.1.5.45-.25.55q-2.9 2.7-2.75 3.4l2.5 2 4.9 3.1q.2.1-.15.8-.35.65-.6.5-5.85-3.3-7.75-4.9-1.1-.9-1-1.45.1-1.05 3.85-4.55m33.65-56.2q-.05 3-.75 6.2-.05.3-.8.2-.7-.15-.65-.45.55-2.55.55-5.65 0-11.5-8.05-19.7-8.1-8.15-19.45-8.15-11.4 0-19.45 8.15-8.1 8.2-8.1 19.7 0 5.45 2 10.45 2 4.95 5.65 8.85l1.15 3.15q-4.95-4.2-7.75-10.35-2.8-6.1-2.8-12.7 0-12.1 8.5-20.7 8.45-8.55 20.45-8.55 12.3 0 20.9 8.25 8.85 8.55 8.6 21.3"/></svg>