<svg xmlns="http://www.w3.org/2000/svg" width="451" height="337" viewBox="-0.35 -1.75 450.5 337.3"><path fill="#0d131a" d="M127.3 299.5l.9-.25q3.15 1.5 3.95 6.75.55 3.35.05 8.95-.35 4.5-2.15 5.1-6.05 1.4-12.2 2.2-12.15 1.6-13.1-1.2-1.15-3.45.9-7.55 1.95-3.85 6.45-7.85 3.6-3.2 8.35-5.15 4.8-1.95 6.85-1"/><path fill="#c9c9c4" d="M129.2 317.85q-3.7 1.05-11.45 2-8.65 1.05-9.95.15-.35-1.3-.35-2.15 0-5.05 6.15-10.45 3.65-3.25 7.8-5.15 3.5-1.65 4.4-1.2 2.65 1.25 3.75 6.85l.45 4.9q0 4.15-.8 5.05"/><path fill="#0d131a" d="M157.05 288.95q-9.75-5.8-13.55-11-1.15-1.55-.7-4.55.35-2.55 1.45-4.25 6.1-9.8 32-13.4l.65-.05q7.85-1.05 16.05 6.1 6.7 5.85 10.7 13.95 1.65 3.3 2.3 6.05 1 4.25-.75 5.95l-3.3 2.65-3.6 2.3q-2.8 1.95-9.65 8.65l-2.95 3.45q-1.6 1.5-4.3.95-1.8-.35-3.95-2.1l-3.35-3.15-3.9-3.35q-1.35-1.15-13.15-8.2"/><path fill="#b1826f" d="M155.15 263.3q7.3-3.35 21.4-5.25l.65-.05q7.05-.95 14.55 5.75 6.05 5.45 9.85 13.05 1.7 3.55 2.2 6.2.45 2.45-.25 3.15-1.85 1.9-6.85 5.3-5.85 4-8.65 6.8-3 3-6.55 3-3.4 0-5.8-2.4l-3.95-3.5q-1.15-.95-13.45-8.45-10-6.1-13.75-11.2-.75-1.05.85-3.9 1.25-2.15 2.5-3.4 3.35-3.35 7.25-5.1"/><path fill="#956e5d" d="M160.65 288.3q-3.7-4.4-2.4-7.5 1.05-2.4 6.15-5.3 6.85-3.55 10.8-5.95 7.05-4.3 11.5-9.45 4.55 2.55 8.85 7.6 3.65 4.3 6.05 9.1 1.7 3.55 2.2 6.2.45 2.45-.25 3.15-1.85 1.9-6.85 5.3-5.85 4-8.65 6.8-3 3-6.55 3-3.4 0-5.8-2.4l-3.95-3.5Q170.1 294 166.9 292l-6.25-3.7"/><path fill="#0d131a" d="M189.8 259.95q3.3-1.45 10.1 8.55t4.5 13.45q-2.95 4.45-7.2 6.1-5.4 2.15-10.2-2.05-6.85-5.95-5.55-14.65 1.25-8.4 8.35-11.4m-51.65 18.65q6.65-7.15 13.75-7.8 5.6-.55 12.2 3.05 9.75 5.3 16.75 20.7 2.65 5.85 4.05 11.4 1.25 5.15.85 7.3-.1.6-1.05 1.1l-1.25.6q-.85.45-2.2.3l-2.8-.75q-4.65-1.5-7.05-1.15-4.05.55-6.5 5.5-1.8 3.6-3.25 4.7-1.9 1.45-5.65 1.15-4.25-.4-6.45-2.5-1.8-1.7-3.55-6.25-2.5-6.8-6.7-8.6-2.55-1.15-6.05-.45-1.95.35-5.6 1.8l-.3.15-3.15.1q-1.1-.4-1.6-1.1-2-3 1.6-10.35 4.1-8.35 13.95-18.9"/><path fill="#b1826f" d="M152.75 272.55q3.85-.15 10.25 3.3 8.75 4.75 14.65 18.5 4.7 10.9 4.7 17.55l-.05.9-.05.15-3.15-.65q-5.05-1.65-8.05-1.2-5.2.7-8.2 6.7-2.75 5.4-6.75 5.15-2.35-.1-4.45-2.2-2.15-2.1-3.45-5.65-2.95-7.65-7.95-9.9-3.15-1.35-7.25-.6-2.25.4-6.2 1.95l-.3.15-1.3.05q-1.25-1.8 2.25-8.7 4.4-8.7 14-19 5.85-6.3 11.3-6.5"/><path fill="#956e5d" d="M163 275.85q8.75 4.75 14.65 18.5 4.7 10.9 4.7 17.55l-.05.9-.05.15-3.15-.65q-5.05-1.65-8.05-1.2-5.2.7-8.2 6.7-2.75 5.4-6.75 5.15 4.6-2.45 7-18.4 2.45-16.1-.1-28.7"/><path fill="#0d131a" d="M148.65 319l-1.6 1.95-1.25 2.45q-.85 1.3-3.1 1.65l-10.7 1.1-12.5.75q-2.8-.05-4-.85-.95-.65-1.25-2-.6-3 3.45-8.05 2.5-3.15 7.5-7.75 2.9-2.7 5.25-4.3 2.7-1.9 3.8-1.7 6.25 1.15 10.95 6.9 3.5 4.35 4.15 7.85l.05.5q0 1.05-.75 1.5"/><path fill="#c9c9c4" d="M147.55 317q.05.5-.55 1.15l-1.15 1.2-1.3 2.1q-.95 1.2-2.4 1.35l-13.8 1.35q-11.55.85-11.45-.6.05-1.6 2.15-4.75 2.15-3.2 5.45-6.65 2.95-3.05 5.95-5.6 2.9-2.5 3.5-2.5 5.6 1 10.05 6.75 3.2 4.1 3.55 6.2"/><path fill="#9e9e9a" d="M142.3 308.85q2.15 2.25 3.85 5.2 1.25 2.2 1.4 2.95.05.5-.55 1.15l-1.15 1.2-1.3 2.1q-.95 1.2-2.4 1.35l-2.75.25q2.9-6.15 2.9-14.2"/><path fill="#0d131a" d="M172.4 307q3.5-1.45 7.3.6 3.75 2.05 6.85 6.9 3.15 4.9 4.05 10.3.3 1.7-.65 2.65-2.1 2-10.3 1.45-5.75-.4-9.8-1.35-2.5-.65-3.1-2.2-.25-1.85-.7-2.75-.55-1.25-2.2-2.4-.7-.4-.65-1.55.25-2.15 2.9-5.9 3.05-4.35 6.3-5.75"/><path fill="#c9c9c4" d="M178.85 309.15q3.2 1.75 5.75 6.35 2.4 4.4 3.3 9.55l-.1.15q-1.25 1.2-7.25 1.1l-10.25-1.05q-.7-.15-1.3-.95l-1.1-2.05q-1.05-2.35-2.35-3.5.2-1.55 2.45-4.7 2.65-3.75 5.35-4.9 3.05-1.35 5.5 0"/><path fill="#9e9e9a" d="M185.9 325.95q-1.5-5.55-3.2-9.15-2.25-4.75-5.6-8.2.9.05 1.75.55 3.2 1.75 5.75 6.35 2.4 4.4 3.3 9.55l-.1.15q-.5.45-1.9.75"/><path fill="#0d131a" d="M135.55 181.85q6.05-15.05 14.05-14.35 4.45.35 8 5.5 3.35 4.9 5.25 13.2 2.15 9.5 1.5 18.85-.65 10.05-4.35 12.2-5.35 3.15-12.8.55-5.65-1.95-9.05-5.35-.95-.95-1.85-1.2l-1.4-.25-2 .3q-1.8.25-3.45-.45-2.5-1.1-3.95-5.5-1.35-3.95-1.15-7.8.3-5 .5-5.8.65-2.75 2.95-3.45l3.35-.5q2.5-1.05 4.4-5.95"/><path fill="#b1826f" d="M160.6 186.7q2.05 9.1 1.25 17.9-.75 8.4-3.4 9.95-4.5 2.65-11 .4-4.85-1.7-7.9-4.6-1.95-1.85-4.5-1.25-3.05.75-5.15-.35-1.85-1.05-2.75-4.95-.65-3.05-.5-6.1.2-3.45.6-4.8.7-2.45 2.5-2.5 3.1-.15 4.9-2.25.9-1.05 3-5.3 3-5.9 4.9-8.2 3.15-3.9 6.8-3.6 3.7.3 6.65 4.4 2.95 4.1 4.6 11.25"/><path fill="#956e5d" d="M133 199.35q1.95 2.55 11.25 1.65 8.35-.75 17.75-3.65.25 6.45-.75 11.3-1 4.85-2.8 5.9-4.5 2.65-11 .4-4.85-1.7-7.9-4.6-1.95-1.85-4.5-1.25-3.05.75-5.15-.35-1.5-.85-.15-6.4 1.35-5.5 3.25-3"/><path fill="#0d131a" d="M106.9 192.65q1.45-1.3 4-1.5 2.25-.15 4.7.7 3.7 1.2 6.2.6 1.3-.35 1.85-.95l2.75-1.15q3.1-.75 5.1 1.15 2.6 2.5 3.65 6.15 1.2 4.35-.25 9-.8 2.65-3.2 2.75l-2.3-.55q-1.75-.4-3.2.05-1.8.55-3.15 1.65l-1.75 1.55-1.7 1.4q-1.2.9-2.4 1.2l-3.1.05q-2.6-.4-4.85-1.8-3.6-2.25-4.65-7.35-1.95-9.2 2.3-12.95"/><path fill="#b1826f" d="M114.4 193.5q4.35 1.45 8 .9 1.9-.3 3-.95.7-.3 1.35-.65 1.75-.4 3.65 1.1 2.1 1.7 3.05 5.7 1.05 4.15-.4 6.3l-.4.7q-.4.5-1.3.5l-2.35-.2-3.45.35q-3.35 1-5.75 3.1-1.35 1.2-2.7 1.5l-2.65.3q-2.25-.1-4-1.2-2.8-1.75-3.6-5.8-.75-3.6-.25-6.45.5-2.9 2.15-4.35 2.2-2 5.65-.85"/><path fill="#956e5d" d="M124.45 198.3l8.55-.25q.8 2.25.85 4.3.1 2.25-.8 3.55l-.4.7q-.4.5-1.3.5l-2.35-.2-3.45.35q-3.35 1-5.75 3.1-1.35 1.2-2.7 1.5l-2.65.3q-2.25-.1-4-1.2-2.8-1.75-3.6-5.8-.1-.45 4.65-1.35 5.4-.95 7.05-2.85 1.9-2.2 5.9-2.65"/><path fill="#0d131a" d="M102.45 196.3q2.6-2.75 6.25-2.75 3.7 0 6.3 2.75 2.6 2.75 2.6 6.65 0 3.85-2.6 6.6-2.6 2.75-6.3 2.75-3.65 0-6.25-2.75t-2.6-6.6q0-3.9 2.6-6.65"/><path fill="#956e5d" d="M113.75 197.85q2 2.55 2 5.55 0 2.9-2.1 5t-4.85 2.1q-2.65 0-4.65-2.35-2-2.25-2-5.2t2.05-5.35q2.1-2.4 4.8-2.4 2.65 0 4.75 2.65"/><path fill="#0d131a" d="M69.5 137.25q5.55-1.5 8.6.35 2 1.2 3.35 4.15 1.05 2.35 2.1 7 1.85 7.75 10.85 22.75 8.75 14.6 15.6 21.8 1.75 1.85 3 4.7 1.5 3.45 1.3 6.3-.25 2.75-2.15 5-2 2.3-4.75 2.95-2.7.65-5.5-.6-3.15-1.5-5.1-5-7.8-14.15-17.05-26.9Q71.85 168.8 67 164.3q-.95-.9-4-2.5l-4.25-2.35q-4.1-2.45-5.1-4.45-1.35-2.6.5-7 2.1-5 6.55-7.6 2.5-1.5 7.55-2.8l1.25-.35"/><path fill="#b1826f" d="M76.2 139.95q3.45 2.1 5.1 9.3 1.7 7.2 12.9 25.2 9.8 15.65 14.1 20.4 1.45 1.6 2.55 4 1.3 2.95 1.15 5.25-.15 1.95-1.5 3.45-1.4 1.45-3.5 1.95-2.4.55-4.55-.5-2.2-1.1-3.65-3.55-7.9-13.3-16.9-26.05-8.95-12.7-13.3-16.8-2.1-1.85-6.1-4.25l-4.9-3.45q-1.85-1.75-1.85-3.65 0-1 .55-2.35 1.8-4.35 5.7-6.55 2.25-1.35 6.85-2.5l1.25-.35q3.75-1 6.1.45"/><path fill="#956e5d" d="M56.85 147.7q1.9-3.65 5.55-5.6 2.1-1.15 6.45-2.25l1.25-.35q3.75-1 6.1.45 3.45 2.1 5.1 9.3 1.7 7.2 12.9 25.2 9.8 15.65 14.1 20.4 1.45 1.6 2.55 4 1.3 2.95 1.15 5.25-.15 1.85-1.4 3.25-2.35-10.3-15.5-24.55L84 171.15q-6.5-6.85-10-11.6-.75-1.55-.55-3.85.2-2.3-.3-3.35-.7-1.35-6.6-2.55l-9.7-2.1"/><path fill="#0d131a" d="M63.6 134.25q6-1.25 9.7 1.75 2.55 2.1 2.55 5.45 0 3.9-3.45 7.3t-8.4 4.4l-5.4.15q-2.55-.45-4.3-1.9-2.55-2.1-2.55-5.45.05-3.9 3.45-7.3 3.45-3.4 8.4-4.4"/><path fill="#b1826f" d="M71.05 147.75q-2.9 2.8-7.05 3.65-4.95.95-7.75-1.3-1.7-1.45-1.7-3.65.05-3 3-5.8 2.95-2.85 7-3.65 5-1.05 7.75 1.25 1.75 1.45 1.75 3.65-.05 3.1-3 5.85"/><path fill="#956e5d" d="M74.05 141.9q-.05 2.4-1.95 4.75-1.85 2.3-4.85 3.65 2.2-2.9-4.45-12.85l1.75-.45q5-1.05 7.75 1.25 1.75 1.45 1.75 3.65"/><path fill="#0d131a" d="M45.65 95.4q3.8-.7 6.4-.15 2.6.6 3.55 2.35 3 5.35 4.8 6.4 2.35 1.3 11.3 1.95 4.45.3 7.75 4.55 2.85 3.7 3.6 8.55.6 3.6-.35 7.3-1 3.85-3 5-2.2 1.3-3.6 3.6-.85 1.45-1.9 4.35l-1.05 2.65-1.4 2.3q-1.15 1.4-3.7 1.95l-4.45.7q-1.15.25-2.8 1.1l-3.9 1.8q-6.3 2.6-10 1.3-3.05-1-5.25-5.15-1.3-2.45-4.95-1.95l-3.55.65q-2.25.25-4.4-.65-2.4-.95-4.05-2.9-1.85-2.15-2.5-5.15-.85-3.95.25-8.25 1.1-4.15 3.45-6.7 2.2-2.3 2.65-3.9.4-1.25.1-4-.6-5.35-.3-7.1.55-3.3 6.4-6.6 5.3-2.95 10.9-4"/><path fill="#b1826f" d="M53.6 98.8q2.8 4.85 5.8 6.5 3.25 1.75 11.85 2.9 3.55.5 6 4.3 1.95 3.15 2.65 7.6.55 3.4.1 6.15-.45 2.55-1.45 3.1-2.65 1.55-4.35 4.3-.9 1.5-2.2 4.85-1.2 3.3-2.05 4.3-.9 1.1-2.15 1.6l-3.15.8q-4.65.85-8.65 2.5-5.6 2.3-8.5 1.2-2.05-.75-3.8-4.05-1.15-2.15-3.1-2.55l-3.7.1-3.35.25q-2.05-.05-3.95-.8-1.7-.65-2.9-2.45-1.25-1.75-1.8-4.3-.75-3.5 0-7t2.7-5.5q2.55-2.7 3.1-5.75.35-1.85 0-5.3-.4-3.2-.05-5.2.35-2.15 5.25-4.9 4.9-2.75 10.2-3.75l4.9-.25q2 .25 2.6 1.35"/><path fill="#956e5d" d="M46.1 97.7l4.9-.25q2 .25 2.6 1.35 1.75 3 3.25 4.5 1.7 1.75 4.2 2.75-4.2.4-9.2-1.6-4.8-1.95-7.9-1.4.4-.1 1.1-2.7.7-2.6 1.05-2.65m26 25.55q2.7-4.1 7.2-5.95l.6 2.8q.55 3.4.1 6.15-.45 2.55-1.45 3.1-2.65 1.55-4.35 4.3-.9 1.5-2.2 4.85-1.2 3.3-2.05 4.3-.9 1.1-2.15 1.6l-3.15.8q-4.65.85-8.65 2.5-5.6 2.3-8.5 1.2-2.05-.75-3.8-4.05l-.55-.85q3.15-.75 5.65-4 2.65-3.4 2.65-7.35 4.9 3.7 9.2 3.9 5.05.25 7.05-4.8 3.85-7.7 4.4-8.5"/><path fill="#0d131a" d="M78.95 122.05q-1.65-.25-3.95-1.55-2.45-1.4-4-3.4-1.55-2.1-1.45-4l.2-1.5q.25-.65.95-1 3.8-1.65 7.1-4.1 4.15-3 6.05-6.25 1.95-3.3 3.05-3.4 1.2-.2 1.9 3.5 1.35 7.35-.35 12.75-1.65 5.25-5.9 8.1-1.7 1.15-3.6.85"/><path fill="#c9c9c4" d="M79.15 108.2q5.15-3.9 7.2-8 .6 3.45.6 5.8 0 4.5-1.45 7.95-1.45 3.5-4.25 5.35-2.5 1.65-5.55-.1-1.85-1.05-3.2-2.85-1.25-1.75-1.25-2.95l.05-.1q0-.45.35-.55 3.7-1.65 7.5-4.55"/><path fill="#9e9e9a" d="M75.7 119.2l-.65-.45q8.15-5.85 11.85-11.85-.15 4.25-1.55 7.4-1.5 3.25-4.1 5-2.5 1.65-5.55-.1"/><path fill="#0d131a" d="M23.45 84.65q-1.75-2.45-.85-3.7t3.8-.45q7.45 2.15 13.7 6.95 6.75 5.15 7.7 10.25.3 1.65-.7 3.2-.8 1.25-2.65 2.7-2.6 1.95-5.9 2.75l-5.6-.25q-1.85-.9-1.85-2.7-.05-3-2.4-8.85-2.4-5.85-5.25-9.9"/><path fill="#c9c9c4" d="M38.35 88.95q6.35 4.7 7.15 9.15l.1.75q0 1.95-1.95 3.35-2 1.5-5.15 2.05l-4.55-.25q-.55-.25-.55-.6-.05-3.65-2.6-10.05-2.65-6.6-5.95-10.8 7.25 1.75 13.5 6.4"/><path fill="#9e9e9a" d="M45.5 98.1l.1.75q0 1.95-1.95 3.35l-.4.25Q42.1 94.65 38 88.7q6.7 4.85 7.5 9.4"/><path fill="#0d131a" d="M29 117.5q1.9.95 2.7 2.4.8 1.4.8 3.85 0 2.9-1 5.65-1.1 3-2.75 3.85-1.75.8-3.1-.25-2.9-2.15-9.5-4.6-7.45-2.7-12.85-3.1-2.75-.2-3.2-1.7-.45-1.55 1.9-3.2 5.6-3.9 13.95-4.65 8.1-.8 13.05 1.75"/><path fill="#c9c9c4" d="M28 119.55q2.65 1.35 2.65 4.9 0 2.15-.95 4.2-.95 2-2 2.5-.4.25-.65 0-3-2.2-10.9-4.85Q8 123.6 2.5 123.1q5.3-4 13.15-5 7.55-.95 12.35 1.45"/><path fill="#9e9e9a" d="M13.7 125.5l8.5-.5q5.3-.3 8.35-1.5l.1.95q0 2.15-.95 4.2-.95 2-2 2.5-.4.25-.65 0-1.7-1.25-5.4-2.8-3.7-1.55-7.95-2.85"/><path fill="#0d131a" d="M53.95 140.15q-4.4-5.2-2.6-12.35 1.35-5.3 4.6-8.65 1.95-2.1 2.05-1.15.05.85-1.35 3.15-2.9 5-3.35 6.9-1.45 5.8 2.55 12 .95 1.55.05 1.4-.95-.1-1.95-1.3m50.5-24.75l.7-.85 9.95 17.6-1.3-.05-11.1-.8q-5.85-.8-6.45-1.95-.45-.9 1.7-4.6 2.2-3.75 6.5-9.35"/><path fill="#c9c9c4" d="M105.15 117.7l7 12.35-8.95-.65q-4.3-.45-5-1 .1-.85 2.25-4.15l4.7-6.55"/><path fill="#0d131a" d="M104.5 43.3l.95.5-3.75 13.15-4.3-4.9q-4.25-5.1-4.15-5.95.05-.4 5.65-1.65l5.6-1.15"/><path fill="#c9c9c4" d="M103.45 45.6l-2.35 8.25-3.25-3.8q-2.35-2.85-2.35-3.2.05-.55 7.95-1.25"/><path fill="#0d131a" d="M134.65 74q3.35-.25 2.4 1.55l-4.95 10.2-6.05-11.05 8.6-.7"/><path fill="#c9c9c4" d="M135.45 75.45L132 82.6l-3.4-6.3 6.85-.85"/><path fill="#0d131a" d="M175.6 117.55q2.85.55 4 4.4 2.2 7.25-1.7 21.2-4.05 14.35-10.9 21.35-5.45 5.55-11.1 3.95-17.05-4.7-33-19.1-20.05-18.1-25.6-42.45-8.2-36.05 5.8-66.2 7.1-15.25 16.7-24.1 4.9-4.35 7.9-5.9 2.55-1.3 3.3-.35.4.5-.25 2.95l-2.25 6.25q-3.65 8.1-3.65 22.4.05 14.8 4.1 29.25 4.15 14.65 18.65 29.05 14.5 14.4 28 17.3"/><path fill="#c9c9c4" d="M174.45 146.4q-3.8 11.05-9.1 16.45-4.5 4.6-8.8 3.4-16.2-4.5-31.75-19.1-19.15-17.95-24.6-41.75-2.95-13.25-2.95-25.45 0-24.9 11.6-45.25 5.9-10.35 12.5-16.35 5.65-5.55 6.4-4.8.5.45-1.3 4.9-4.1 10.15-4.1 22.6 0 15.45 4.4 30.8Q131 87 146.1 101.9q15 14.9 29.05 17.9 1.5.3 2.25 2.8.6 2.1.6 5.2 0 8.25-3.55 18.6"/><path fill="#9e9e9a" d="M171.6 153.3q-2.9 6.15-6.25 9.55-4.5 4.6-8.8 3.4-10.25-2.9-21.4-10.7-13-9.15-22-21.7-2.7-5.85.3-7.35l5.45-.15q2.6.5 22.55 7.85 21.6 7.05 34.6 6.85-1.75 6.65-4.45 12.25"/><path fill="#c9c9c4" d="M134.35 95.65q2.95-.6 16.9-6.5-3.6 11.7-6.1 17-1.75 3.7-7.8-2.95-2.35-2.55-3.3-4.8-1.1-2.45.3-2.75"/><path fill="#9e9e9a" d="M151.05 89.2l.2-.05q-2.8 10.8-5.25 16.1-.8 1.65-3.05 1.4-2.2-.2-4.2-2.05l12.3-15.4"/><path fill="#0d131a" d="M149.45 88.85l2.55-.05q.75.65 0 2.65l-5.35 13.05q-.8 1.95-1.35 1.4t.1-2l2.7-7.1 2-6.05q-.05-.2-5.8 1.85l-7.85 2.75-2.4-.1q-.25-.6 1.75-1.4 3.35-1.35 13.65-5m-15.35 8.5q.35-.6 1.2 1.4 2.1 5.05 6.65 6.8 2.25.85 2 1.05l-2.05.1q-2.55.05-4.95-2.45-2.1-2.1-2.7-4.3-.5-2-.15-2.6m-33.3-9q-3.1-2.05-3.1-2.55 0-.55 4.9-2.45 4.85-1.9 5.1-1.5l.5 2.65q.25 2.55-.25 4.55-.4 1.65-.7 1.35-.3-.3 0-1.55.4-1.35.2-3.1-.15-1.5-.5-2.05-.3-.45-3.6.75-3.25 1.15-3.3 1.45l1.85 1.75 2.9 2.35q.95.7.65.85l-1-.2-3.65-2.3m69.55 27.5q10.35-7.9 23.2-12.45 11.35-4 20.85-4.25 33.5-.8 56.35 16 16.6 12.25 27.35 33.75 3.75 7.45 5.8 20.4 1.7 11 1.7 22.05 0 8-4 16.3 2.1 2.75 3.7 8.95 1.55 5.8 1.55 9.95 0 4.65-1 9-.95 4.4-2.5 6.5 2.35 12.15-3.4 24.95-5 11.3-14.85 20.35-10.8 10-21.95 14.35-11.4 4.4-24.05 3.25-26.5-2.45-39.3-18.55-3.05.4-8.3-3.15-4.55-3.05-7.85-6.85-11.9-13.8-11.9-21.2l.05-.2q-3.35-2-7-7.05-4-5.5-5.7-11.15-.85-2.85-1-6.3-.25-4.9 1.3-7.5-4.05-1.8-7.1-8.5-2.7-5.9-3.1-11.75-.25-3.5.3-6.45.45-2.25 1.2-3.6-2.4-2.7-3.55-6.5-1.9-6.05-2.3-17.9-1.05-32.25 25.5-52.45"/><path fill="#b1826f" d="M194.75 105.95q10.7-4 19.7-4.2 32.3-.75 53.75 16.15 14.8 11.65 25.65 33.35 3.7 7.4 5.6 19.2 1.65 10.05 1.65 20.6 0 5.9-.55 10.2-.55 4.3-1.5 5.6l-.45.65 2.95 5.8q1.7 3.5 1.7 12.65 0 4.75-.55 8.75-.65 4.35-1.8 6.55l-.15.3.05 2.3q0 12.5-4.45 23.1-4.45 10.6-13.05 18.5-9.55 8.85-22.4 13.1-11.2 3.75-20.45 2.8-28.6-3.1-39.05-17.1h-.5l-1.15-.15q-3.7 1-11.4-6.45-6-5.75-10-12.7-3.8-6.55-3.15-9.3l-.4-1.3-1.2-1.25q-2.1-.75-5.6-6.5-3.65-6-5.6-12.4-1.15-3.8-1.25-6.65-.1-2.8.9-4.1l.8-1.15-1.15-.75q-3.5-2.2-6.25-8.9-2.55-6.15-3.1-12.4-.25-2.8.1-4.65.25-1.6.8-2.05l.95-.85-1.3-1.45q-2.05-2.25-2.9-5.55-1.45-5.65-1.45-18.05 0-30.15 24.6-49.55 9.75-7.7 21.6-12.15"/><path fill="#956e5d" d="M262.5 128.7q-5.7-13.25-12.4-21.2 16 6.3 27.9 19.6 8.6 9.65 15.85 24.15 3.7 7.4 5.6 19.2 1.65 10.05 1.65 20.6 0 5.9-.55 10.2-.55 4.3-1.5 5.6l-.45.65 2.95 5.8q1.7 3.5 1.7 12.65 0 4.75-.55 8.75-.65 4.35-1.8 6.55l-.15.3.05 2.3q0 12.5-4.45 23.1-4.45 10.6-13.05 18.5-9.55 8.85-22.4 13.1-11.2 3.75-20.45 2.8-6.7-.7-12.85-2.2 7.9 1.05 17.85-1.35 12.45-3 15-9.9 4.15-2.75 6.8-8.65 3.4-7.6 2.2-17 2.75-1.6 3-12.5.3-11.5-3.9-15.85 2.8-4.2 3.85-11.65 1.3-9.6-1.6-19.9 3.75-7.1 3.7-20.05 0-12.1-3.3-26.6-3.25-14.3-8.7-27"/><path fill="#0d131a" d="M187.75 192.85q-17.4 4.85-25.5 4.35-4.95-.3-10.4-3.8l1-1.6q4.4 2.85 11.2 2.9 8.2.1 23.25-3.65 17.8-4.4 34.05-1.8 9.5 1.5 24.35 7.15 15.9 6.1 28.05 3.35 11.15-2.5 17.15-8.45 3.15-3.1 5.6-8.55l.2-.45 1.75.75-.25.5q-2.6 5.95-6.4 9.8-6.9 7.1-18.65 9.75-6.45 1.45-13.95-.2-4.7-1.1-14.2-4.75-15.45-5.9-23.95-7.35-16.1-2.7-33.3 2.05M160.3 223.3l-.8-3.25q2.85 2.35 7.05 4.05 6.5 2.65 12.45 1.5 13.3-2.6 34.25-1.65 23.95 1.15 41.75 6.75 17.1 5.45 30.8-1.8 5.6-2.95 9.45-7.5 3.2-3.75 4.3-7.35l1.8.55q-1.15 3.9-4.6 7.95-4.1 4.9-10.1 8.05-7.45 3.95-11.8 4.8-8.4 1.7-18.85-1.95-18.1-6.25-42.35-7.7-22.9-1.35-35.35 2.2l-10.05-.3q-5.3-1.5-7.95-4.35m140.95 18.05l1.6.95q-6.85 11.8-16.1 17.25-9.65 5.7-22.55 4.95-4-.25-8.95-1.4l-7.95-2.05q-7.75-2.05-13.3-2.95-9.1-1.4-21.2-1.55-8.3-.1-18.6 1.45l-10.4.75q-5.25-.4-11.1-3.6l-1.1-2.2q-.75-1.95.85-.55 2.2 1.8 8.9 3.1 7.2 1.4 12.6.6l8.05-1 10.8-.45q12.2.15 21.45 1.6 5.55.85 13.5 2.95l7.3 1.75 8.05 1.05q12.7.8 22.15-4.3 9.5-5.15 16-16.35m-26.6 48.05q-4.45 1.95-13.1.45l-15.9-3.6-8.5-2.05-5.15-.9q-6.25-.15-13.8 1.05l-10.7 1.75-6.1-.15q-1.8-.25-5.3-1.9-4-1.85-.95-.75 2.9 1.05 7.95.65l4.5-.6 24.1-1.5q3.4.1 14.4 2.55 10.25 2.4 15.5 3.05 8.7 1.1 12.9-.75 6.5-2.8 14.35-11.05 4-4.15 6.7-7.8l1.5 1.1q-3.1 4.25-7.3 8.65-8.3 8.8-15.1 11.8M168 133.4q2-.3 10.15 6.35l7.9 6.8q1.3 1.2.8 4.35 2.55 1.35.6 1.3l-8.9-.5q-8.5-.3-13.9.25l-1.95-.15-.6-.25-.2-.75q.2-.5 1.85-.9 0-3.3 1.05-8.55 1.05-5.45 2.15-7.25.4-.55 1.05-.7"/><path fill="#fff" d="M179.95 142l7.05 6.55q.4 1.2-.15 2.35l-10.4-.8q-8.4-.5-10.35-.2v-.55q0-2.5.85-7.25.85-5.05 1.75-7 4.8 1.4 11.25 6.9"/><path fill="#0d131a" d="M178.7 143.15l-.15 4.05q-.25 2.15-1.1 2.1-.85-.05-1.45-2.4-.5-1.95-.6-4.2-.1-2.9.15-3.6.3-.9 1.35-.35 1.1.55 1.45 1.55.35.85.35 2.85"/><path fill="#fff" d="M177.5 141.85q0 2.2-.5 2.2-.25.05-.55-.8-.25-.8-.25-1.6l.1-1.35q.2-.5.7-.2.5.2.5 1.75"/><path fill="#0d131a" d="M165.7 134.2q-1.8-.55-1.85-1.65-.05-1.1 1.7-.45 8.85 3.2 13.5 6.5 4.35 3.05 8.7 8.75 1.4 1.8 1.4 3 .05 1.2-1.95-.9-5.25-5.5-8.1-7.85-6.35-5.15-13.4-7.4m50.05 12l9.45-7.05q9.7-6.9 12-6.6.8.1 1.2.7 1.25 1.8 2.45 7.35 1.15 5.3 1.15 8.65 1.95.4 2.2.9l-.2.7-2.95.4q-6.15-.55-15.95-.25l-10.2.5q-1.35.05-.85-.6.25-.3.8-.65-1-2.55.9-4.05"/><path fill="#fff" d="M238.45 141.3q.95 4.8.95 7.35v.55q-2.25-.3-12.25.25l-12.3.8q-.45-.95-.3-1.85l.2-.65 8.45-6.6q7.65-5.5 13.2-6.9 1.05 2 2.05 7.05"/><path fill="#0d131a" d="M224.95 142.4q0-2 .4-2.9.4-1 1.65-1.6 1.2-.55 1.55.35.25.75.15 3.65-.05 2.25-.6 4.3-.7 2.35-1.7 2.4-1 .05-1.3-2.1-.15-1.15-.15-4.1"/><path fill="#fff" d="M226.35 141.05q0-1.5.5-1.8 1-.5 1 1.6l-.3 1.65q-.3.8-.65.8-.65-.1-.55-2.25"/><path fill="#0d131a" d="M239.85 133.3q-7.95 2.25-15.55 7.55-3.15 2.2-8.7 7.05-2.3 2-1.85.55.4-1.4 1.7-2.7 5.8-5.95 9.8-8.4 4.75-3 14.35-6.2 2.05-.65 2.15.45.15 1.15-1.9 1.7m-61.15 42.05q.3-7.25 6.45-13.2 6-5.8 12.8-6.05 5.75-.2 12.15 3.3 6.5 3.5 10.05 8.85 5.4 8.25 6.6 29.2 1 18.45-.85 22.4-.75 1.55-17.5 1.7-16.8.15-19.15-1.55-3.75-2.7-7.5-20.75-3.35-16.4-3.05-23.9m148.55 96.35q4.8 7.2-.15 17.65-3.9 8.3-12.25 15.45-8.3 7.2-14.85 7.85-7.35.75-11.35-3.6-2.8-3.1-6.6-12.9l-2.45-5.6q-2.2-4.55-1-12.15 1.05-6.7 4.1-12.95 2.5-5.05 5.65-8.05 3.05-2.9 6.4-3.6 7.65-1.6 19.15 5.95 9.5 6.2 13.35 11.95"/><path fill="#b1826f" d="M325.05 288.35q-3.85 8.15-12 14.95-7.7 6.45-13.3 7.05-6 .6-9.9-4.1-2.35-2.9-5.7-10.95l-2.5-5.75q-1.75-3.7-.9-10.2.9-6.55 4.05-12.9 2.3-4.65 5.1-7.5 2.75-2.9 5.55-3.45 6.45-1.35 17.05 5.75 9 6.1 12.8 11.75 1.95 2.95 1.95 6.6 0 4.05-2.2 8.75"/><path fill="#956e5d" d="M325.3 273q1.95 2.95 1.95 6.6 0 4.05-2.2 8.75l-.05.1q-8.25-11.7-20.1-18.75-13.4-8-20.55-2.35l.45-.9q2.3-4.65 5.1-7.5 2.75-2.9 5.55-3.45 6.45-1.35 17.05 5.75 9 6.1 12.8 11.75"/><path fill="#0d131a" d="M327 269.05q3.15 1.85 9.65 8.2 8.5 8.35 11.05 15.2 2.4 6.45-.3 12.05l-1.4.9-1.1-.7-1.55.05q-3.65 1.4-8.9 8.4-5.1 6.7-6.45 11.4-.9 3.25-6.9 3.9-3.3.35-6-.6-3.1-1.1-4.45-3.7-6.2-12.2-10.95-13.65l-2.35.05q-.65.2-1.95.9-1.8 1.05-2.85.85-1.05-.15-1.5-1.3-1.55-3.8 2.35-16.5 4.15-13.6 10.45-22.3 1.85-2.55 4.5-4.3 2.8-1.8 5.3-1.9 7.7-.35 13.35 3.05"/><path fill="#b1826f" d="M336.65 281.25q9 8.7 9 16.8 0 2-.85 4.3l-2.3.25q-4.15 1.6-9.8 8.95-5.45 7.1-6.9 12.35-.7 2.45-4.3 2.85-2.75.25-5.3-.8-2.55-1.1-3.5-2.9-6.7-13.1-12.35-14.75-1.8-.55-3.55 0-1.1.3-2.55 1.15l-1.1.5-.2-1.25q0-5.2 3.85-16.4 4.35-12.85 9.9-20.5 3.15-4.45 7.15-4.5 6.75-.05 15.45 6.95 4.35 3.5 7.35 7"/><path fill="#956e5d" d="M329.3 274.25q4.35 3.5 7.35 7 9 8.7 9 16.8 0 2-.85 4.3l-2.3.25q-3 1.15-7.15 5.75-3.85 4.3-6.75 9.35 3.85-21.2-4.05-33.05-5.65-8.5-17.95-12.7l.1-.15q3.15-4.45 7.15-4.5 6.75-.05 15.45 6.95"/><path fill="#0d131a" d="M331 311.65q6.25-11.05 12.65-10.35 5.05.6 12.05 14 6.95 13.35 4.4 16.95-2.3 3.3-14.8 1.25-10.75-1.8-14.6-3.9-1.25-.7-1.7-1.5l-.35-1.45q-.1-.5-2.9-2.6.7-4.3 5.25-12.4"/><path fill="#c9c9c4" d="M351.6 312.65q3.25 5.85 5.05 11.5 1.7 5.35.95 6.6-1.2 1.9-12.1.25-10.25-1.6-13.7-3.45l-1.05-.8-.3-.7q-.3-1.15-1.4-2.1l-.8-1q1.6-5.3 5.45-11.25 5.25-8.05 9.95-8.05 1.2 0 3.1 2 2.3 2.4 4.85 7"/><path fill="#9e9e9a" d="M357.6 330.75q-.4.65-2.4.9-1.9-6.3-5.85-14.25l-7.15-13.55 1.45-.2q1.2 0 3.1 2 2.3 2.4 4.85 7 3.25 5.85 5.05 11.5 1.7 5.35.95 6.6"/><path fill="#0d131a" d="M294.2 304.6q1.25-.9 2.5-.35 4.55 1.4 10.5 8.5 5.5 6.6 5.85 9.85l.05.3q0 1.25-.7 1.6-1.4.7-2.5 3.05-1.15 2.4-1.85 2.8-1.8 1.1-11.3 1l-12.5-.65q-3.25-.4-2.7-4.1.5-3.3 5-11.45 4.7-8.5 7.65-10.55"/><path fill="#c9c9c4" d="M295.75 306.4q2.2-1.4 8.75 6.6 6.3 7.7 6.3 9.85v.05q-.85.75-2.1 2.75-1.5 2.45-2.6 3.2-1.65 1-10.75.75-9.15-.3-10.75-1.4-1.9-1.15 3.6-11.25 5.45-9.9 7.55-10.55"/><path fill="#9e9e9a" d="M303.1 311.35q2.85 3.25 5.3 6.9 2.4 3.6 2.4 4.6v.05q-.85.75-2.1 2.75-1.5 2.45-2.6 3.2l-3.2.6q1.3-7.1.2-18.1"/><path fill="#0d131a" d="M331.45 204.7q-.4 2.9-1.3 5.35-1.3 3.6-3.35 4.7l-5.85.3q-3.6-.55-6.1 1.8-4.3 4.05-6.5 4.8-4.75 1.55-11.6-2.65-8.25-5.05-11.85-15.7-3.2-9.55-1.4-18.4 1.5-7.1 4.8-11.5 3.55-4.7 8.25-5.1 4.75-.4 9 3.6 3.05 2.8 6.45 8.65l2.7 5.7q1.5 3.25 2.7 3.8 1.05.45 5.75.05 3.3-.3 5.55 3.2 3.45 5.45 2.75 11.4"/><path fill="#b1826f" d="M325.5 212.85l-6.05-.25q-3.3-.3-5.15 1.55-2.8 2.85-5.85 3.7-4.7 1.25-10.55-1.9-7.75-4.2-11-13.8-2.85-8.45-1.1-16.75 1.25-5.95 4.35-9.75 3.15-3.75 7.2-4.1 3.7-.3 7.3 3.65 2.1 2.35 5.65 8.45l3.45 5.45q1.85 2.45 3.55 3l5.05.05q3.35-.05 4.3 1.9l2 4.65q.75 2.65.4 6.45-.1 1.75-1.05 4.3-1.15 3.15-2.5 3.4"/><path fill="#956e5d" d="M329.05 205.15q-.1 1.75-1.05 4.3-1.15 3.15-2.5 3.4l-6.05-.25q-3.3-.3-5.15 1.55-2.8 2.85-5.85 3.7-4.7 1.25-10.55-1.9-7.6-4.1-10.9-13.5 8.95 5.2 15.65 5.95 5.25.55 8.2-1.6 2.2-1.6 10.35-2.05l7.85.4"/><path fill="#0d131a" d="M325.3 194.95q2.9 0 4.95 2.5 2.1 2.5 2.1 6t-2.1 6q-2.05 2.5-4.95 2.5-2.9 0-4.95-2.5-2.1-2.5-2.1-6t2.1-6q2.05-2.5 4.95-2.5"/><path fill="#956e5d" d="M324.85 210q-1.95 0-3.45-2.05-1.45-2-1.45-4.6 0-2.65 1.5-4.75 1.5-2.15 3.45-2.15 1.95 0 3.55 2.2 1.6 2.2 1.6 4.8 0 2.55-1.6 4.55t-3.6 2"/><path fill="#0d131a" d="M326.7 193.3l.4-.05q1 .15 2 .8l1.45 1.15q1.7 1.25 3.5 1.7 3.05.7 8.85.2 6.05-.45 8.9 3 3.2 3.85 1.15 11.15-1.35 4.7-3.75 6.2-1.55 1-4.15.8-1.4-.15-3.1-1.1l-3-1.95q-3.8-2.55-6.5-3.35l-3.8-.2-3 .6-2.4-.35q-1.3-.6-1.7-1.95-1.25-4.15-.65-8.45.55-4.05 2.45-6.3 1.9-2.1 3.35-1.9"/><path fill="#b1826f" d="M329.35 196.65q2.4 1.75 4 2.2l9.75.55q4.85-.35 6.95 2.15 2.4 2.95.65 9.1-1 3.5-2.5 4.5-1 .6-3.2.4-1-.05-2.25-.7l-2.55-1.6q-3-2-6.9-3.15l-4.55-.15-3.5.55q-2.2-.15-2.2-5.8 0-5.15 1.7-8.35.7-1.3 2.4-.8 1.1.3 2.2 1.1"/><path fill="#956e5d" d="M348.2 215.15q-1 .6-3.2.4-1-.05-2.25-.7l-2.55-1.6q-3-2-6.9-3.15l-4.55-.15-3.5.55q-2.2-.15-2.2-5.8 0-.55 2.5-.25 2.75.3 5.5 1.45 3.95 1.7 9.6.4l10.75-.4q0 2.25-.7 4.75-1 3.5-2.5 4.5"/><path fill="#0d131a" d="M339.65 205.15q0-3.85 2.8-6.7 2.75-2.8 6.45-2.8t6.3 2.75q2.6 2.75 2.6 6.6 0 3.85-2.6 6.55-2.6 2.65-6.3 2.8-4.5.2-7-2.55-2.25-2.55-2.25-6.65"/><path fill="#956e5d" d="M341.1 204.65q0-2.8 2.55-4.8 2.4-1.9 5.25-1.9 2.75 0 4.65 2.05 1.95 2.1 1.95 5t-2.25 5.35q-2.25 2.5-4.95 2.5-3.5 0-5.45-2.65-1.75-2.3-1.75-5.55"/><path fill="#0d131a" d="M374.1 145.45q-.05-6.1 1.4-8.25 1.6-2.25 6-1.9 6.4.5 11.4 3.5 4.15 2.55 6.2 5.9l1.75 2.9q.9 1.65.9 2.5 0 1.75-1.85 3.2l-3.25 2.3q-2.65 2.15-3.45 3.8-4.75 9.85-12.05 20.6-6.05 8.9-12.6 16.7l-4 4.8q-1.7 2.05-2.3 3.1-2.5 4.2-2.7 5.2-.55 2.4-1.4 3.5-1.05 1.45-3.35 2.05-3.6.85-8.4-3.05-4.65-3.8-6.15-8.3-.9-2.8-.05-4.85.85-2.1 3.3-3.1 12.85-5.4 27.1-35.75 1.75-3.7 2.65-7.8.9-3.85.85-7.05"/><path fill="#b1826f" d="M397.1 145.85q1.75 2.9 1.05 4.7-.45 1.2-3 3.25-3.05 2.55-4.05 4.6-7.85 16.35-25.45 37.4-5.55 6.55-6.55 8.35-1.15 1.85-1.6 3.85-1 4.5-3.3 5.1-2.55.6-6.5-2.7-4-3.35-5.25-7.15-1.3-3.85 1.95-5.05 6.45-2.7 13.65-12.3 7.15-9.55 14.6-25.35 1.7-3.6 2.65-7.9l1.1-6.9q.7-5.15 1.45-6.6.95-1.75 3.45-1.55 5.8.45 10.3 3.1 3.7 2.2 5.5 5.15"/><path fill="#956e5d" d="M398.15 150.55q-.45 1.2-3 3.25-3.05 2.55-4.05 4.6-7.85 16.35-25.45 37.4-5.55 6.55-6.55 8.35-1.15 1.85-1.6 3.85-1 4.5-3.3 5.1-1.3.35-3.25-.6-1.85-.85-3.75-2.55 1.65-.15 2.95-1.95l2.95-5.3q5.7-11 14.45-21.15 3.2-3.7 10.55-16.7 6.2-10.9 7.25-10.6 1.05.3 6.25-4.65 4.95-4.65 5.5-3.75 1.75 2.9 1.05 4.7"/><path fill="#0d131a" d="M380.85 133.25q2.7-2.55 7.25-2.35 4.55.2 8.45 3.1 2.2 1.6 3.5 3.7 1.3 2.1 1.45 4.3.15 3.25-2.15 5.4-2.7 2.6-7.25 2.35-4.55-.2-8.4-3.05-2.2-1.6-3.5-3.7-1.3-2.1-1.45-4.3-.25-3.2 2.1-5.45"/><path fill="#b1826f" d="M380.8 139.3q-.1-2.2 1.4-3.6 2.1-2 5.85-1.7 3.7.25 6.85 2.6 1.8 1.3 2.85 3 1.1 1.65 1.15 3.3l.05.3q0 1.9-1.4 3.3-2.05 1.9-5.85 1.65-3.75-.25-6.9-2.55-1.75-1.3-2.8-3-1.1-1.65-1.2-3.3"/><path fill="#956e5d" d="M387.7 147.15q2.15.8 1.8-4.4-.35-4.6-1.85-8.75 4 .15 7.25 2.6 1.8 1.3 2.85 3 1.1 1.65 1.15 3.3l.05.3q0 1.9-1.4 3.3-1.6 1.5-4.45 1.65-2.65.15-5.4-1"/><path fill="#0d131a" d="M410.8 93.15q3.6 1.55 5.4 3.45 1.8 2 1.45 4.1-.95 5.4.8 8.1 1.3 2 7.35 8.05 3.4 3.7 3.95 8.05.45 3.65-1.05 6.65-1.05 2.1-2.7 3.2-1.65 1.1-3.45.9-2.1-.2-4.3 1.45-1.35 1-4.2 4.1l-4.05 4.5q-2.6 2.6-4.7 3.25-5.15 1.6-9.35-.55l-5.95-4.1q-1.35-.8-2.85-.9l-2.95-.1q-6.75-.6-8.5-7.05-.5-1.8-.75-10.45-.05-2.2-.9-3.05-.6-.55-2.05-.8l-2.85-.8q-1.8-.95-3.15-3.1-2.05-3.3-2.45-7.4-.45-4.05.95-7.25 1.85-4.3 6.3-5.15l7.3-.25 6.75.6q3.65-.45 7.75-5.55 2.05-2.5 8.15-2.2 5.3.3 10.05 2.3"/><path fill="#b1826f" d="M414.05 97.8q1.4 1.35 1.3 2.65-.55 5.15 1.4 8.75 1.5 2.8 7.35 9.2 2.85 3.1 3.35 6.7.4 3.05-.8 5.45-.7 1.4-1.75 2.15t-2.1.65q-2.9-.25-5.85 1.85-1.8 1.3-5 4.75l-3.6 3.65q-2.1 1.85-3.95 2.5l-6.15.3q-1.8-.55-5.25-2.55l-3.55-1.9q-2.1-.95-3.95-1.1-4.95-.4-7-4.6-1.7-3.45-1.9-10.8-.1-3.25-1.3-4.55-.9-.95-2.95-1.25l-2.2-.6q-1.2-.65-2.2-2.25-1.75-2.8-2.1-6.3-.4-3.55.75-6.15 1.4-3.15 4.65-3.85l6.75-.2 8.15-.45q4.7-1.15 8.2-5.3 1.35-1.6 6.25-1.35t9.3 2.1q2.7 1.1 4.15 2.5"/><path fill="#956e5d" d="M409.65 96.2q-.55-1.1.25-.9 2.65.75 4.2 2.35 1.35 1.4 1.25 2.8-.55 5.15 1.4 8.75 1.5 2.8 7.35 9.2 2.85 3.1 3.35 6.7.4 3.05-.8 5.45-.7 1.4-1.75 2.15t-2.1.65q-2.9-.25-5.85 1.85-1.8 1.3-5 4.75l-3.6 3.65q-2.1 1.85-3.95 2.5l-6.15.3q-1.8-.55-5.25-2.55l-3.55-1.9q-2.1-.95-3.95-1.1-3.55-.3-5.6-2.5-1.8-2-2.6-5.8 3.5 2.8 12.8-6.5.2 6.65 4.8 9.4 4.15 2.4 9.25.65 5.2-1.75 7.1-6.5 2.2-5.4-1.55-12.15l-1.35-8.7q-.6-4.45.45-4.65 4.15-.7 2.25-5.1l-1.4-2.8"/><path fill="#0d131a" d="M448.9 100.6q1.25.65.05 5.65-2.05 8.55-7.6 14.8-5.6 6.4-12.7 7.9-2.95.6-5.05-.1-2.1-.65-3.85-2.8-1.9-2.35-2.75-5.25-.85-3.1.1-5.3 1.25-2.9 4.15-3.05 5.85-.4 12.1-2.65 7.25-2.6 11.25-6.65 3.1-3.1 4.3-2.55"/><path fill="#c9c9c4" d="M420.7 124.35q-1.9-2.4-1.9-5.55 0-1.4.45-2.4.7-1.55 2.15-1.65 6.2-.4 13.4-3.35 7.95-3.35 12.3-8.05-1.6 8.85-6.8 15.3-5.25 6.55-12.1 8-4.75 1-7.5-2.3"/><path fill="#9e9e9a" d="M419.75 122.85q11.3.1 21.9-6.05-2.65 3.9-6.05 6.45-3.5 2.6-7.4 3.4-4.75 1-7.5-2.3l-.95-1.5"/><path fill="#0d131a" d="M406.8 69.6q.35-4.65 1.8-4.6 1.3 0 3.55 3.85 3.9 6.75 4.5 15.65.55 8.75-2.45 13.2-2.2 3.45-8.2 2.8-3.1-.3-5.4-1.2-2.55-1.05-3.25-2.6-.6-1.55.4-2.85 3.3-4.1 6.05-11.55 2.55-7.1 3-12.7"/><path fill="#c9c9c4" d="M405.9 98.85q-2.2-.2-4.15-1.2-1.85-.9-2.25-1.85l-.05-.2.1-.3q3.6-4.45 6.55-12.5 3.05-8.25 3.1-14.2 2.45 3.55 3.8 8.8 1.25 4.85 1.25 9.75 0 6.4-1.95 9.3-1.9 2.8-6.4 2.4"/><path fill="#9e9e9a" d="M413 77.45q1.25 4.8 1.25 9.7 0 6.4-1.95 9.3-.85 1.2-2.2 1.8 3.45-8.25 2.9-20.8"/><path fill="#0d131a" d="M359.85 90.85q.5-3.35 1.75-3.45 1.2-.15 2.75 2.8 2.55 4.9 7.55 8.9 3.2 2.55 6.35 4.05.75.35 1 1l.2 1.65q.05 2.35-1.4 4.95-1.55 2.8-3.85 4-3.7 1.95-6.95-.4-3.6-2.6-5.8-7.75-2.9-6.9-1.6-15.75"/><path fill="#c9c9c4" d="M362.05 90.4q3 5.85 8.35 10.35 3.5 2.9 6.85 4.45.4.4.4.95v.05q0 1.5-1.3 3.45-1.35 2.1-3.2 3.05-2.5 1.2-4.55-.25-2.9-2.05-4.8-5.1-2.8-4.45-2.8-10.1 0-2.8 1.05-6.85"/><path fill="#0d131a" d="M386.95 134.55q-.7-5.55 5.1-10.75 5.1-4.65 10.65-5.6 4.2-.7 2.55.2l-4.5 1.9q-4.25 1.75-7.45 4.6-5.15 4.65-4.8 10.5.1 2.25-.6 1.7-.65-.55-.95-2.55m-89.6-65q-.7-1.05-.05-1.6.7-.6 2.75-.5l8.25.85-4.4 10.7-6.55-9.45"/><path fill="#c9c9c4" d="M298.95 69.3l6.95.7-2.35 5.9-4.6-6.6"/><path fill="#0d131a" d="M299.8 23.75l.7-.8 5.45 11.5-6.75-.75q-6.85-.9-7.05-1.45-.2-.6 3.7-4.6l3.95-3.9"/><path fill="#c9c9c4" d="M300.15 25.5l3.3 7.05-4.75-.5q-3.5-.45-3.7-.85-.2-.35 2.05-2.65l3.1-3.05"/><path fill="#0d131a" d="M329.55 36.7q17 28.1 11.3 59.65-4.7 26-21.85 45.65-14.25 16.35-28.45 20.3-6.7 1.85-14.7-3-7.4-4.5-11.75-11.8-4.5-7.6-4.95-15.4-.55-9.25 5.2-15.2l8.2-7.25q10.55-8.9 15.75-15.25 8.95-10.85 13.15-24.45 4.5-14.55-2.45-38.2-3.5-12-8.35-22-4.05-7.7-2.3-9.2 2.75-2.3 12.65 5 17.5 12.9 28.55 31.15"/><path fill="#c9c9c4" d="M337.25 94.8q-4.6 25.5-20.55 44.85-13.55 16.4-26.95 20.15-5.75 1.6-12.35-3-5.85-4.1-9.95-11.05-5.45-9.1-5.45-16.35 0-3.75.55-5.65.7-2.7 2.9-4.95l3.95-3.5 4.65-3.85q11-9.4 16.45-15.95 9.55-11.55 13.85-25.55 1.75-5.65 1.75-12.9 0-13.9-6.45-32-2.05-5.8-4.6-11.4L292.7 8.7q-1.95-3.75-1.25-4.8 1.1-1.65 9.15 4.65 16.7 12.3 26.75 29.25 15.45 26.25 9.9 57"/><path fill="#9e9e9a" d="M328.55 103.15q3.75-3.9 5.5-2.95 1.4.8.95 4.35-6.25 21.8-20.85 38-12.55 13.95-24.4 17.25-5 1.4-10.75-1.95-5-2.95-9.25-8.65 15.95-4.7 36.8-23.7 6.75-6.1 14.05-13.8l7.95-8.55"/><path fill="#c9c9c4" d="M314.35 22.35q.4-.65 4.4-1.95 2-.65 3.95-1.15l-2.05 8.95-3.6-2.15q-3.45-2.4-2.7-3.7M274.5 95.5l7.35 3.05q7.7 3.1 9.5 3.45 1.4.3.35 2.7-1 2.25-3.35 4.8-6.05 6.7-7.8 2.95-1.55-3.3-3.95-10.45l-2.1-6.5"/><path fill="#9e9e9a" d="M288.35 109.55q-2.45 2.65-4.5 3.65-2.45 1.1-3.3-.75-1.95-4.15-4.9-13.35 3 3.8 6.45 6.85 4.05 3.55 6.25 3.6"/><path fill="#0d131a" d="M275.55 94.65q6.95 2.45 14.1 5.35 1.95.8 1.85 1.5l-2.2.15-7.9-2.7q-5.75-2.1-5.8-1.85-.05.3 2 6.05l2.7 7.1q.7 1.4-.05 1.9-.8.45-1.6-1.45l-2.65-6.9-2.55-6.95q-.75-2-.25-2.45.45-.4 2.35.25m15.9 11.6q-.8 2.45-2.9 4.35-2.1 1.95-4.7 2.45l-2.65.15q0-.35 2.55-1.3 4.55-1.7 6.7-6.8.85-2.05 1.25-1.4.4.65-.25 2.55"/><path fill="#9e9e9a" d="M327.05 123.25q.6 2.9 6.55 16.85-11.7-3.6-17-6.05-3.7-1.75 2.95-7.8 2.55-2.35 4.75-3.35 2.45-1.05 2.75.35"/><path fill="#0d131a" d="M330.15 133.15q-2.45-6.6-2.75-7.85-.55-2.1.05-2.55.6-.45 1.4 1.5 3.05 7.55 5.35 14.05.7 1.95.25 2.7l-2.45.15-6.95-2.5-6.95-2.65q-1.9-.8-1.3-1.6l2.05-.1 7.1 2.7q5.75 2.05 6.05 1.95.25-.05-1.85-5.8m-6.2-9q-5.1 2.15-6.8 6.7-.8 2.3-1.1 1.95-.25-.3 0-2.05.35-2.65 2.3-4.8 1.85-2.1 4.45-2.85l2.55-.15q.6.35-1.4 1.2m-9.7-100.65q.4-.1 1.2.9.95 1.05 2.45 1.85 1.35.75 2.05.8.5 0 1.4-3.4l.65-3.55-2.5.5-3.6 1.1-1.45-.05q-.1-.5.85-.95.9-.45 4.1-1.55 3.6-1.2 4-.9.55.4-.3 5.6-.9 5.25-1.95 5.5-.5.15-2.55-1.3-2.15-1.5-3.65-3.2-1.15-1.25-.7-1.35"/><path fill="#c9c9c4" d="M334.4 67.25q4 .7 9.7 2.3-4.9 6.65-8.25 9.45-1.2.95-2.2-.75-.9-1.55-1.3-4.35-.9-7.15 2.05-6.65"/><path fill="#9e9e9a" d="M331.95 75.35q1.85-.1 6-2.25 3.2-1.65 6.3-3.75l-3.75 4.7q-2.9 3.5-4.65 4.95-1 .85-2.25-.4-1.2-1.15-1.65-3.25"/><path fill="#0d131a" d="M334.45 67.6q-.5-.15-.3-.75.15-.6.95-.45l5.8 1.2q5 1.1 5.3 1.35.25.25-4.3 5.1l-5 5.25-1.25.15q-.85-.3-.3-.9 7.85-8.35 7.55-8.65-.2-.15-4.15-1.15l-4.3-1.15m-2.6 10.2q-1.45-2.1-1.65-5-.15-2.95 1.15-4.75.7-1.05 1.1-.95.35.05-.25 1.35-.7 1.4-.55 3.9.2 2.7 1.25 4.65 1.05 1.85.4 1.95-.6.1-1.45-1.15"/><path fill="#fff" d="M195.55 166.2l.45 4.25q-13.2 1.35-17.7 2.55.95-4.7 4.55-8.95 5.4.25 12.7 2.15m4.4 4.45l-.4-5.05 5.05-1.65 9.2-2.8q4.55 3.1 7 6.85l1.65 3.1-13.9-.55-8.6.1m-1.35 27.45l.8 4.25q-9.95 5.4-14.75 8.85-1.5-4.45-2.95-10.55 4.85-1.6 16.9-2.55m5.5-.55l8.3.1 14.7 1v9.85q-5.2-1.85-14.15-4.45l-7.9-2.2-.95-4.3m-7.35-11.1l.4 4.7q-2.65.8-6 2.1-6.65 2.6-9.95 5.05l-1.95-10.2q5.15-1.1 17.5-1.65m14.15-1.1q9.65-.4 15.15.05.7 5.05.95 10.8-5.8-2.05-15.45-3.7l-8.55-1.25-.65-5.35 8.55-.55m-9.2 27.15q-7 4.6-10.3 8.2l-2.15-.7q-1.8-1.25-4.05-7.1 2.2-1.7 9-3.65 3.45-.95 6.4-1.55l1.1 4.8m4.65-.9l-.5-4.15 7.9.75 13.3 2.05q-.4 7.95-1.15 9.6-.25.55-3.4.95-4.1-2.7-10.55-6.25l-5.6-2.95m-10.7-36.25l.4 4.55q-11.65 3.05-17.25 5.25-.85-6.35-.8-9.4 5.3-.5 17.65-.4m5.35 4.55l-.5-4.55 8.7-1.5q9.5-1.5 13.8-1.4 1.85 4.75 2.9 11.8l-15.75-3-9.15-1.35"/><path fill="#0d131a" d="M197.9 156.75q-6.3.25-12.35 5.95-6.35 5.95-6.65 12.9-.3 7.6 3.45 23.95 3.95 17.4 7.45 19.9 2.1 1.5 17.95 1.3 15.55-.15 17.45-1.25.5-1.25.85-5.45.35-4.35.35-9.95 0-10.75-1.35-19.55-1.6-10.9-4.95-15.95-3.3-5-9.9-8.55-6.55-3.5-12.3-3.3m-21.1 18.85q.35-7.7 7.35-14.15 6.65-6.15 13.7-6.4 6.2-.2 13.6 3.8 7.4 4 11 9.45 5.6 8.5 5.95 29.6.15 7.65-.45 14.7-.55 6.3-1.25 7.8-.3.65-1.6 1-4.6 1.2-19 1.15-14.95-.05-17.3-1.7-4.1-2.9-8.4-21-3.9-16.65-3.6-24.25"/></svg>