<svg xmlns="http://www.w3.org/2000/svg" width="394" height="382" viewBox="-0.25 0.0 394.35 381.9"><path fill="#005e96" d="M244 22.3l6.45 7.55Q258 40 252.4 48.9q-1.3 2-5.2 3.6-5.15 2.1-10.05.3-7-2.5-11.15-8.2-3.55-4.8-4.75-11.25-.85-4.8-.4-9.75l.65-4q0-2.8.45-6.3.9-7.05 3.1-10.7 1.45 10.7 7.3 19.4 2.95 4.3 5.6 6.5l-1.3-8.75 2 3.75q2.4 3.95 4.5 5.25-2.3-3.15-3.4-6.7-1.35-4.05-.15-6.25.75 2.35 4.4 6.5"/><path fill="#004c7e" d="M243.85 21.65l6.5 7.85Q258 40 252.4 48.9l-2.25 2q-2 1.35-4.35 2.05.15-1.25-3.7-8.4-4.25-7.85-7.15-9.3 2.25 0 4.15 1.5 1.9 1.45 4.1 1.45-16.5-12.05-18.75-34.55l.6-1.05q1.45 10.7 7.3 19.4 2.95 4.3 5.6 6.5l-1.2-8.45 1.95 3.6q2.35 3.8 4.45 5.1-5.15-7.05-3.75-13.7.75 2.35 4.45 6.6"/><path fill="#005e96" d="M288.95 307.75l3.45 3.5q1.5 2.15 1.95 5.55.7 6.05-4.35 12.1-4.85 5.85-9.45 5.5-3.3-.25-6.25-5.5-2.7-4.65-3.4-9.75l18.05-11.4"/><path fill="#004c7e" d="M288.95 307.75l3.45 3.5q1.5 2.15 1.95 5.55.35 2.9-.85 6.2-5.5-7.25-12.15-10.4l7.6-4.85"/><path fill="#005e96" d="M16.3 358l20.35-9.55 2.2 2.35q3 2.95 7.3 5.9 2.15 10.2-9.25 17.9-4.35 2.9-8.65 4-4.25 1.05-5.45-.4-2.25-2.7-4.2-9-1.8-5.8-2.3-11.2"/><path fill="#004c7e" d="M23.75 354.5l12.9-6.05 2.2 2.35q3 2.95 7.3 5.9.6 2.85.05 5.55-10.3-6.6-22.45-7.75"/><path fill="#cf7100" d="M23 237.85l37.2 39.2q-15.1 7.4-16.55 23.9-.1 1-2.1 3.2l-4.3 4.6q-6.1 6.85-5.7 12.5.35 4.95 3.85 13.05 3.05 7.15 2.6 10.9-.45 3.65-3.95 7-3.15 3-7.75 4.8-4.55 1.75-8.3 1.5-4.05-.35-5.5-3.05-1.1-2.05-3.15-12.3-2.15-10.4-3.8-13.75-1.1-2.15-.6-4.75.3-1.7 1.95-5.7 4.45-10.8 5.8-20.5 1-6.9 1.15-21.35.1-8.5 3.55-15.8 3.55-7.45 4.95-16.2l.65-7.25"/><path fill="#a95b00" d="M22.75 242.2l.25-4.35 21.25 18.4q20.25 18.9 15.45 21.1-5.95 2.75-10.6 9.5-4.8 6.95-5.45 14.1-.1 1-2.1 3.2l-4.3 4.6q-6.1 6.85-5.7 12.5.35 4.95 3.85 13.05 3.05 7.15 2.6 10.9-.45 3.9-4.35 7.35-3.5 3.15-8.4 4.85 4.5-4 5.2-8.65.55-3.55-1.1-8.65-2.2-5.8-3.05-8.8-1.45-5.2-.6-9.2 1.3-6.05 8.05-21.95 6.25-14.7 6.8-19.85.85-7.8-2.5-12.7-3.85-5.7-17.4-14.8 1.5-5.25 2.1-10.6"/><path fill="#005e96" d="M125.55 321.8l19.3 2.55q5.5 13.3-7.15 17.75-4.5 1.55-9.75 1.5-4.8-.1-6-1.2-2.9-2.65-.85-9.65.55-1.8 4.45-10.95"/><path fill="#004c7e" d="M144.85 324.35q4.45 10.6-3.2 15.75-2.95-4.4-7.8-8.65-3.7-3.25-9.4-7.15l1.1-2.5 19.3 2.55"/><path fill="#cf7100" d="M131.15 302.1l3.15.9q3.7 1.35 6.45 3.4 8.9 6.45 5.35 17.5l-9.3 1.5q-6.5.25-10.85-2.75-4.55-3.1-.1-12.15 1.35-2.8 3.45-5.9l1.85-2.5"/><path fill="#a95b00" d="M131.15 302.1l3.15.9q3.7 1.35 6.45 3.4 8.9 6.45 5.35 17.5l-5.8 1.15-7.15.2q4.15-3.5 1.55-9.4-1.3-3-6.45-9.6l2.9-4.15"/><path fill="#cf7100" d="M129.85 276.9q.15-12.45 20.8-12.55 10.35 0 20.65 2.45-6.4 4.7-10.6 16.45-3.6 10.05-2.95 15.05-7.05-.35-14.05-3.2-14-5.75-13.85-18.2"/><path fill="#a95b00" d="M129.85 276.9q.15-12.45 20.8-12.55 10.35 0 20.65 2.45-6.4 4.7-10.6 16.45-3.6 10.05-2.95 15.05-7.05-.35-14.05-3.2-14-5.75-13.85-18.2"/><path fill="#49312a" d="M245.3 47.3q2.2-2.8 7.25 2.05 20.9 20 23.3 42.25 2.15 19.7-9.95 31.45-11.1 10.8-15.15 22.4-3.3 9.6-1.05 16.35-2.45 1.9-4.65 1.15-4.35-1.55-2.8-14.95 2.75-12.15 11.15-20.95 2.25-2.35 6.1-5.55l3.85-3.55q12.15-16.75.2-41.2-4-8.1-10.15-16-4.45-5.7-6.95-7.8-1.4-1.15-1.7-2.9-.3-1.65.55-2.75"/><path fill="#49312a" d="M341.25 93.9q2.25 1.85.85 5.35-3.05 7.55-11.65 12.3-10.45 5.7-28.65 6.85l-16.65 1.1q-12.9 1.35-21.6 4.75-25.8 10.1-15.5 37.55 6.65-7.9 19.75-9.85 13.35-2 22.7 4 8.95 5.75 17.1 14.95 7.15 8.1 14.95 20.35 5.1 7.95 14.7 10.1l6.75.5q2.9-.3 3.8-1.2.8-.85 2.05-.35 1.2.4 1.85 1.65 1.85 3.15-2.25 5.15-8.45 4.1-17.5.8-8.1-2.9-12.65-9.85-24.05-36.8-39.85-39.5-11.15-1.9-19.65 1.8-8.2 3.6-10.45 10.8l-4.55-2.9q-5.3-7.55-6.15-18.35-1.3-15.6 11.05-24.4 10.1-7.2 26.25-10.3l26.85-3.3q14.15-1.55 21.3-4.75 8.4-3.7 13-11.75 1.9-3.35 4.15-1.5"/><path fill="#005e96" d="M363.5 185.4l1.55-1.4-1.05 5.3 1.75-1.8q2.35-2.2 5.25-4 9.3-5.75 20.85-5.55-4.25 1.05-7.7 3.35l-2.65 2.15 3.95-1.15 6.4-1.4q-2.7 1-6.9 4.65-5.2 4.55-7.35 9.25-3.8 8.35-6.05 11.05-4.8 5.6-12.4 5.15-5.2-.3-8.5-3.5-2.45-2.3-2.85-4.6-.85-5.15-.3-8.05 1.15-5.85 7.05-11.1l-.65 3.45v2.4l2.55-4.4q3.4-4.75 7.85-6.6l-2.2 4.85q-1.65 3.6-2.15 6.75 1.65-2.8 3.55-4.8"/><path fill="#004c7e" d="M384.15 181.3l-2.65 2.15 3.95-1.15 6.4-1.4q-2.7 1-6.9 4.65-5.2 4.55-7.35 9.25-3.8 8.35-6.05 11.05-4.8 5.6-12.4 5.15-4.95-.25-8.2-3.15-2.4-2.15-3.05-4.55h5.65q2.8-.05 4.65-.75 4.55-1.65 9.25-9.55l-.55 3.7q-.35 1.7.3 3.65 1.25-3.8 4.45-7.25l6.05-5.6q1.15-.6-1.2.3-1.9.7-2.65 1.45 1.6-4.3 6-7.25 3.35-2.2 8.9-3.95l3.1-.1q-4.25 1.05-7.7 3.35"/><path fill="#005e96" d="M346.15 68.35q3.85-3.2 5.3-8.2.6-2 1-6.5 1.6 3.1 1.8 5.3l-.15 4.5 1.3-4.65q1.3-5.55 1.15-9.9 2.55 3.4 3.8 5.8 1.5 3.05 1.9 6.3 3.35 9.35-.45 18.35-2.25 5.3-6.35 9.4 2.7-1.35 5.45-1.45 2.55-.05 2.85.9-2.1.65-8.45 6.2-5.45 4.75-10.6 4.85-3.05.05-5.55-1.45-3.7-2.2-4.95-7.25Q332.6 84 337 77.6q2.65-3.85 9.15-9.25"/><path fill="#004c7e" d="M360.45 54.9q1.45 2.95 1.8 6.1 3.35 9.35-.45 18.35-2.25 5.3-6.35 9.4 2.7-1.35 5.45-1.45 2.55-.05 2.85.9-2.1.65-8.45 6.2-5.45 4.75-10.6 4.85-2.55.05-4.85-1.05-3.25-1.65-4.85-5.3 5.7 2.2 12.3-1.65 5.45-3.2 9.9-9.4-1.65-.55-3.85 1.1-2.2 1.65-3.9 1.1Q356.5 77 358.4 67.5q1.9-9.25-1.55-18.25 2.45 3.3 3.6 5.65"/><path fill="#cf7100" d="M189.8 97.8q8.9 10.4 20.1 30.8 10.4 18.9 17.6 26.25 3.4 3.45 8.55 6.9l8.35 5.35q9.25 6.3 11.35 15.65 3.5 15.65 1.4 39.85l-1.75 18.1q-.8 9.75-.35 15.75.4 4.9 6.6 9.5l4 3q1.7 1.5 1.4 2.7-.9 3.4 3.45 11 5.25 9.25 15.4 18.4 2.95 2.65 3.45 6.7.55 4.35-2.1 8-3.6 5-10.4 5.7-8.05.8-11.1-7.9-3.55-10.2-10.05-18-6.45-7.7-14.4-11.5-2.75-1.3-6.05-2.3-2.8-.8-4-1.55-3.65-2.2-12.5-14.55-7.65-10.75-12-14.25-4.3-3.5-8.55-2.45-2.65 2.3-15.3 7.05l-24.2-15.55-.65-162.85q4.3-1 6.9-.85 3.1.2 6.2 2.15 5.3 3.3 18.65 18.9"/><path fill="#a95b00" d="M212.15 228.45q1.1-1.7 1.6 1.25l1.35 9.85q3.35 18.95 14.75 32.1 3.85 4.4 11.4 8.85 5.45 3.2 6.65 7.6-3-2.3-6.6-4.05-2.75-1.3-6.05-2.3-2.8-.8-4-1.55-3.65-2.2-12.5-14.55-7.45-10.45-12.55-14.2-4.7-3.45-9.05-2.35-2.65 2.3-14.25 6.9l-17.05-10.95q11.2 2.75 28.05-4.7 6.5-2.85 11.85-6.4 4.95-3.3 6.4-5.5m-41-149.4q5.6 3.5 18.65 18.75 8.9 10.4 20.1 30.8 10.4 18.9 17.6 26.25 3.4 3.45 8.55 6.9l8.35 5.35q9.25 6.3 11.35 15.65 2.5 11.25 2.25 25.4-.2 8.15-1.8 24 .05-18.95-1.6-30.95-2.5-17.85-8.95-23.5-15.15-11.6-24.35-19-17.15-13.8-17.65-19.1-1.05-11.65-23.45-38-7-8.25-15.25-16.95l-6.9-7.05q7.8-1.85 13.1 1.45m99.2 211.3q-8.95-11.35-3.3-18.7-.9 3.4 3.45 11 5.25 9.25 15.4 18.4 2.85 2.6 3.4 6.6.65 4.25-1.85 7.85-.5-1.2-1.15-4.95-.5-2.95-1.6-4.45-1.35-1.85-6.45-7.05-5.4-5.5-7.9-8.7"/><path fill="#49312a" d="M166.4 84.6l8.85 8.95q5.8 5.85 9.7 10.5 11.3 13.6 16 28 6 18.65 2.05 40.95l-86.45 118.65q-7.55 1.6-22.5 7.95l-1.7.1q-.25-.55.8-1.8 2.6-3.15 4.5-4.35-5.05 1.1-11.8 6.6-5.9 4.8-9.95 10.2-.65.9-1.2.75-.5-.2-.4-1.15l1.45-12.9-1.95 2.05-4.1 4.05q-2.55 2.35-2.2-.95.85-7.6-2.45-18.25l-3.45-9.15-.8.05q-.85.5-1.05 2.85-.25 2.4-.75 2.55-.55.2-1.7-2.05-3.6-6.95-14.8-17.55-9.6-9-15.9-17.35-6.35-8.5-10.05-17.25-2.45-5.8-4.35-17.4-1.25-7.8-2.05-16.65-.2-1.8.2-1.85l1.25 1.4q2.15 3.2 4.35 3.65-2.2-8.2-7.95-21.75-5.45-12.75-7.5-15.3 5.05 1.15 10.05-2.1l4-3.45-4.15-.25q-1.25-.15-1.2-.85 0-.75 1.35-1.35 3.35-1.5 6.75-4.55l2.7-2.8-9.6-.05q3.2-1.55 7.5-6.7l8.65-11.6q13.8-19.25 24.05-28.7 17.75-16.4 36.6-22 9.4-2.8 15.25-2.3-1.65-1.45-4.9-2.15-1.2-.25-1.35-.9-.1-.7 1.5-.95l14.9-.45 8.25.55q0-.4-.8-.95-1.55-1.2-5.5-2.15-2.2-.5-2.35-1.15-.1-.75 2.45-1.05 8.65-1.1 17.45 2.15 7.7 2.8 12.65 7.7.4-4.05-.5-8.15-.2-.9.45-1.15l1.2.1q3.5 2.1 5.45 6.7.95 2.3 1.2 4.2l4.15-4.5q.6 5.85 9.7 15.3"/><path fill="#005e96" d="M172.05 311.45l5.5 1.35q5.75 1.7 6.95 3.25 1.9 2.55 1.95 8.1.05 5.4-1.7 10.9-4.3 13.7-13.15 12.5-3.65-.5-8.75-6.05l-6.8-8.65 16-21.4"/><path fill="#004c7e" d="M157.2 334.35l-1.15-1.5 16-21.4 5.5 1.35q5.75 1.7 6.95 3.25 1.85 2.45 1.95 7.6.15 5.05-1.4 10.35-6.75-2.35-13.95-2.25-7.25.1-13.9 2.6"/><path fill="#cf7100" d="M128.9 245.85q4.4-3.15 10.75-7.35 12.65-8.35 22.5-13.5 31.4-16.4 22.35 5.75-1.8 4.45-1.95 8.65-.1 3.4.9 12.3.8 7.25-4.6 11.6-3.05 2.45-9.7 4.6-11.4 3.6-17.25 8.3-3.5 2.8-5.8 7.05l3.6 6.85q4.7 7.35 10.05 10.05 4.35 2.15 8.95 3.1 2.6 1.4 3.4 9.25.85 8.3-6.25 15.45-6.85 6.9-12.25 4.9-3.9-1.4-6.55-7.05-4.25-9.05-6.4-12.05-8.45-11.65-29.15-25.55-6.25-4.15-5.55-13.15.6-7.35 4.65-13.2 2.05-2.9 8.65-7.4 6.7-4.6 9.65-8.6"/><path fill="#a95b00" d="M152.25 275.4q-3.15 2.4-6.15 7.85l3.6 6.85q4.7 7.35 10.05 10.05 4.35 2.15 8.95 3.1 2.6 1.4 3.4 9.25.85 8.3-6.25 15.45-6.85 6.9-12.25 4.9-2.5-.9-4.2-3-1.2-1.55-2.7-4.85.95-1.3 2.6-2.55l2.45-1.85q2.4-2.25 1.2-7.25-.9-3.9-10.35-15.85-8.85-11.25-8.85-14.95 0-8.4.65-12 1.25-6.85 5.2-7.65l7.95-.35q7.05-.25 12.35-1.7 16.85-4.65 22.7-22.55-.25 3.8.85 13.4.8 7.25-4.6 11.6-3.05 2.45-9.7 4.6-12.05 3.8-16.9 7.5"/><path fill="#bad4ee" d="M242.95 176.05q1.3-.15 2.5 3.15 2 5.45-.05 12.85-2.2 8.1-8.25 14-15.7 15.5-44.65 6.25l16.25-25.4q7.45 4.15 17.45 2.5 11.35-1.95 14.8-10.9.9-2.35 1.95-2.45"/><path fill="#a1b8ce" d="M192.5 212.3l8.75-9.85q14.2 5.5 26.15 2.9 11.95-2.55 17.75-12.45-3.9 12.8-15.95 18.9-14.85 7.5-36.7.5"/><path fill="#bad4ee" d="M208.15 197.45q-5 14.8-22.75 16.35l19.55-32.25q3.05.7 4.05 5.45 1.05 4.9-.85 10.45"/><path fill="#a1b8ce" d="M200.45 209.2q-5.35 3.75-15.05 4.6l13.65-19.8q2.45 4.35 3.15 5.1 2.3 2.45 5.6 1.2-3.4 6.15-7.35 8.9"/><path fill="#cf7100" d="M188.65 145.2q11.1 8.6 15.35 23.1 4.25 14.5-1.15 25.1-4.75 9.35-11.65 15.55-3.8 3.45-10.5 8.7-2.6 2.45-7.8 15.95-5.05 12.95-10.25 16.85-7.2 5.4-18.75 4.55-11.7-.9-15.85-7.5-3.5-5.5-2.35-11.65 2.05-6.05 2.35-8.15.15-1.15-2.7-7.75-4.15-9.7-5.8-14.15-7.65-21.05-2.45-30.75l23.05-35.2q6.65-3.45 22.15-2.6 17.45 1 26.35 7.95"/><path fill="#a95b00" d="M136.2 175.05q-8.45 3.8-12.8 9.65-3.7 4.95-6.1 14.2-4.55-15.75-.2-23.85L127.6 159q1.5 1.75 4.25 8.2 2.65 6.15 4.35 7.85m68.35-4.7q3.25 13.3-1.7 23.05-4.75 9.35-11.65 15.55-3.8 3.45-10.5 8.7-2.6 2.45-7.8 15.95-5.05 12.95-10.25 16.85-5.2 3.9-13.5 4.55-8.05.6-14.4-2.2l12.45-1.4q7.95-1.6 11.1-4.75 1.5-1.5 4.9-12.45 3.4-10.9 6.75-14.25 2.3-2.3 8.85-6.8T192 202q8.05-8.75 7.8-25.95-.2-16.85-7.9-28.05 9.4 9.15 12.65 22.35"/><path fill="#49312a" d="M131.3 236.55q2.15-4.95 5.8-5.5 4-.65 7.8 4.65 3.45 4.8 12.2 7.6 6.9 2.25 9.95 1.85-.6 8.9-12.25 11.75-4.8 1.2-9.7.65-4.9-.55-7.9-2.65-10.6-7.45-5.9-18.35"/><path fill="#49312a" d="M130.65 247.25q3.95-5.2 9.65-2.3 1.85 1.8 4.45 3.6 2.85 2 4.55 2.45 4.35 1.2 7.55-1 3-2.1 3.3-5.85 4.8 1.25 6.9 1-.6 8.9-12.25 11.75-4.8 1.2-9.7.65-4.9-.55-7.9-2.65-4.85-3.4-6.55-7.65"/><path fill="#fff" d="M143.4 186.6q1.6 5.15 1.85 10.7.3 8.7-3.3 14.4-4.3-4.3-6.25-9.9-1.6-4.55-.85-6.35 1.45-3.5 5.15-6.5l3.4-2.35"/><path fill="#dbdcdc" d="M143.4 186.6q1.6 5.15 1.85 10.7.3 8.7-3.3 14.4l-.45-.45q1.5-5.2.6-11.5-.9-6.15-3.45-9.65l3.3-2.6 1.45-.9"/><path fill="#bad4ee" d="M194.6 162.2q0 2.05-.9 3.45-.95 1.4-2.25 1.4t-2.2-1.4q-.9-1.45-.9-3.45t.9-3.45q.95-1.45 2.2-1.45 1.3 0 2.25 1.45.9 1.4.9 3.45"/><path fill="#a1b8ce" d="M189 165.15q1.25.2 2.85-1.1l2.7-2.65.05.8q0 2.05-.9 3.45-.95 1.4-2.25 1.4-1.45 0-2.45-1.9"/><path fill="#bad4ee" d="M191.85 181.8q-.9 2.25-3 3.35-1.85 1-3.3.4-1.3-.55-1.5-2.6-.25-2.1.7-4.45.95-2.4 2.6-3.7 1.6-1.3 2.9-.75 1.4.55 1.95 2.95.6 2.55-.35 4.8"/><path fill="#a1b8ce" d="M184.05 183q1.45 1.05 4.25-.45 2.65-1.45 4.1-3.75 0 1.7-.55 3-.9 2.25-3 3.35-1.85 1-3.3.4-1.25-.5-1.5-2.55"/><path fill="#bad4ee" d="M186 197.25q.6 3.8-1.3 7.5-1.85 3.55-5.25 5.25-3.2 1.55-5.9.7-2.6-.85-3.05-4.1-.45-3.2 1.45-6.95 1.9-3.7 5.1-5.75 3.15-2.05 5.75-1.25 2.55.85 3.2 4.6"/><path fill="#a1b8ce" d="M170.7 207.5q2.2 1.2 7.6-1.25 5.45-2.45 7.7-5.9-.2 2.15-1.3 4.4-1.85 3.55-5.25 5.25-3.2 1.55-5.9.7-2.15-.75-2.85-3.2"/><path fill="#bad4ee" d="M147.85 146.05q1.6 3.85.65 9.25-.9 5.45-4 10.4-7.45 11.9-20 11.7-6.3-.1-9.8-4.35-2.05-2.4-2.95-6l17.75-27.8q2.6-2.25 8.5-1.15 7.1 1.35 9.85 7.95"/><path fill="#a1b8ce" d="M114.7 173.05q-2.05-2.4-2.95-6l18.4-8.5q-.35 17.4 3.75 16.85-4.6 2.15-9.4 2-6.3-.1-9.8-4.35"/><path fill="#bad4ee" d="M107.5 86.05q4.45-1.9 8.65-2.25 4.05-.3 3 1.05-2.8 3.7-5.35 8.35-3.3 6.1-4.7 11.45-2.15 8.2 4.6 18.95 6.85 10.95 19.35 18.6 3.7 2.25 4.65 7.35.85 4.85-1 10-1.9 5.4-5.95 8.5-4.55 3.5-10.4 2.85-12.15-1.3-24.4-17.15-12-15.5-13.45-30.45-1.45-14.35 6.7-24.4 6.35-7.85 18.3-12.85"/><path fill="#a1b8ce" d="M108.35 92.9q4.6-5.6 10.8-8.05-2.8 3.7-5.35 8.35-3.3 6.1-4.7 11.45-1.65 6.35 2.3 14.7l-2.3-2.05q-10.05-13.05-.75-24.4m-25.5 20.4q-.45 12.55 10.75 26.15 12.4 15.05 37 28.55-2.15 2.4-4.3 2.9-1.8.5-5.95 0-12.15-1.3-24.4-17.15-12-15.5-13.45-30.45-.5-5.25.35-10"/><path fill="#0d131a" d="M142.85 200.5q.7-.55 1.5-.6.75-.05 1.1.4.35.5.05 1.2l-1.05 1.25q-.75.55-1.5.6-.8.05-1.1-.45-.35-.45-.05-1.15t1.05-1.25M289.05 309l.9-.85 3.5 2.75q1.8 1.8 2.2 5 .45 3.65-1.55 8.3-1.75 4-4.35 6.75-2.25 2.4-5 3.85-2.75 1.45-4.8 1.3-3.75-.3-6.65-5.7-2.65-4.95-3.2-11.1l1.5.9q.65 4.65 3.25 8.75 2.8 4.45 5.8 4.65 1.65.1 3.75-1 2.1-1.15 4.05-3.2 2.4-2.5 3.8-5.6 1.65-3.65 1.25-6.9-.35-3-1.6-4.85-.75-1.2-2.85-3.05m-252.9 40.15l.3-.5.85-.7q1.15 2.15 5.6 4.75 4.2 2.5 4.55 3.55 1.95 6.4-3.3 13.45-4.5 6-11.15 9.2-3.75 1.8-6.55 2.35-3.45.65-4.65-.75-2.25-2.7-4.15-10.1-1.55-6.15-2.2-12.3l1.7-.15q.5 5.25 2.25 11 1.9 6.15 4.05 8.7.65.8 3.15.4 2.75-.4 6.05-2 5.35-2.55 8.85-6.55 4.15-4.75 4.15-9.95l-.25-2.35q-4.2-2.95-7.1-5.75l-2.15-2.3"/><path fill="#0d131a" d="M21.05 245.3l.85-7.45 2 1.55-.6 6.85q-1.3 7.95-4.9 15.5-2.35 5-3 9.45-.45 2.85-.45 8.9 0 10.2-1.15 18.5-.95 6.5-2.7 12.25-1.15 3.6-3.1 8.25-2.65 6.55-.3 11.3 1.1 2.1 1.7 5.95l1.2 7.6q1.85 9.05 2.9 11 .85 1.6 3.1 2.2 2.25.55 5.35-.05 5.3-1 9.75-4.35 4.75-3.6 5.2-7.65.25-2.35-.55-5.2l-2.1-5.45-2.5-5.65q-1.4-3.5-1.6-6.75-.35-4.55 1.7-8.4 1.4-2.7 4.95-6.4l3.4-3.5q2.3-2.45 2.35-2.9.6-7 4.25-12.9 3.85-6.2 10.4-10.25.25.85.95 1.8-5.55 3.65-8.5 8.6-3 5.15-3.5 12.1-.05 1-1.9 2.9l-3.5 3.45q-4.05 4.3-5.8 6.85-3.05 4.55-2.8 8.3.2 3 1.7 6.45l2.6 5.7 2.35 5.65q1.05 3.1.7 5.75-.6 4.95-5.5 9.15-4.7 4-10.5 5.1l-7.35.7q-3.55-.3-4.7-2.4-.7-1.3-1.6-6.75l-1.5-8.9q-1.65-7.9-3.8-12.25-1.35-2.65-1.15-4.95.15-1.95 1.7-5.75l3.4-8.5q2.25-6.3 3.1-12.4 1.15-8.15 1.15-18.2-.55-6-.55-8.8.05-4.7 2.75-9.45 4.4-7.7 6.1-16.55M130 342.7q7.05-.35 11.4-3.4 6.8-4.75 2.7-14.65l1.5-.65q4.85 11.7-2 16.6-4.7 3.3-13.55 4.1-8.15.75-10-.9-2.85-2.6-.9-9.1.7-2.2 4.6-10.85l1.05-2.4 1.5.65-1.05 2.45q-2.8 6.25-3.65 9.5-1.45 5.65.9 7.75 1.4 1.2 7.5.9"/><path fill="#0d131a" d="M122 319.2q-.6-4.25 3.75-11.2l4.75-6.4 1.3 1.05-3.95 5.9q-3.8 6.6-3.25 10.4.3 1.95 1.85 3.05 4 2.7 12.05 2.2l7.4-1.1.4 1.6q-3.9 1-8.4 1.35-8.8.6-13.2-2.4-2.3-1.65-2.7-4.45m36.6-20l-1.7-.8q-.65-5.35 2.45-14.7 3.75-11.4 10.4-16.25l3.35-.7q-6.25 4.6-10.95 17-4.15 10.8-3.55 15.45m88-252.05q-.95.35-1.2 1.5-.15.9.15 1.9.4 1.15 1.3 1.9l5.65 5.95q6.35 7.35 10.55 15.15 13.45 24.8.85 44.75l-1.7-.3q12.2-19.35-.65-43.75-4-7.65-10.1-14.9l-5.45-5.9q-1.1-.95-1.65-2.3-.5-1.4-.25-2.75.4-1.95 2.1-2.5l2.5-.2q1.85.4 4.05 2.5 11.6 11.1 18 23.4 6.55 12.6 6.6 24.5.1 11.05-5.45 20.35l-1.55-.2q5.2-8.55 5.1-19.75-.05-11.8-6.05-23.85-6.05-12.05-17.3-22.8-3.5-3.3-5.5-2.7m3.35 98.1q3.75-10.6 13.55-20.75l3.25-.85q-11.3 11.1-15.2 22-2.85 8-1.35 14.25l-1.35 1.75q-2.3-6.85 1.1-16.4"/><path fill="#0d131a" d="M336.25 95.5l1 .95q-4.75 7.8-13.3 11.5-7.2 3.05-21.1 4.6l-6.6.7q-15.85 1.55-23.8 3.35-13.45 3.1-22.4 9.45-12.05 8.6-10.7 24 .95 10.6 6 17.8h-1.45q-5.4-7.75-6.5-18.4-1.6-15.9 11.05-24.9 9-6.45 23.15-9.4 7.05-1.5 24.5-3.25l6.6-.65q13.65-1.5 20.7-4.5 8.3-3.6 12.85-11.25"/><path fill="#0d131a" d="M328.1 111.95q10.15-4.75 13.4-12.95l.1-.35 1.3.35-.15.5q-3.05 7.6-10.45 12.2-10.3 6.4-29.1 7.55l-3.35.2q-16.9.8-26.15 2.8-17.55 3.85-23.95 13.1-3.05 4.45-3 13.35 0 7.3 1.6 11.85 7.35-7.85 19.85-9.8 12.75-1.9 21.8 3.85 8.6 5.5 16.65 14.3 8.1 8.85 16.45 22 3.4 5.3 9.1 8 3.75 1.8 7.75 2.2 5.05.55 7.1-.75l.05 1.45-3.9.8q-2.45.25-4.7 0-3.85-.45-7.5-2.4-5.4-2.95-9-8.6-8.35-13.05-15.9-21.35-7.55-8.35-15.95-13.75-8.9-5.7-21.65-3.95-12.8 1.7-19.95 9.65-1.25 1.4-1.3.75l.2-.95q-6.25-16.7.65-27.2 6.45-9.75 24-13.85 9.7-2.3 26.35-3.05l3.35-.2q16.2-.95 26.3-5.75"/><path fill="#0d131a" d="M349.15 206.5l.1-.05.95 1.15-.55.3q-8.55 4.15-17.35 1.4-8.25-2.6-12.95-9.75-12-18.4-22.1-28.6-10.25-10.45-17.9-11.75-10.6-1.8-18.7 1.8-7.9 3.5-10.2 10.8l-1.75-.85q2.4-7.7 11.05-11.3 8.6-3.65 19.85-1.75 16.05 2.7 40.25 39.8 4.5 6.9 12.6 9.65 8.75 3.05 16.7-.85"/><path fill="#0d131a" d="M361.15 184.35l1.8-3.6.9-1.7q-.35-.2-2.9 2-3.3 2.85-5.8 7.05l-1.5 2.5q-.2.25-.2-.8-.1-3.25.55-5.05-3.15 3.15-4.8 6.95-1.4 3.3-1.3 6 .1 4.55 2.75 8.1 3.15 4.2 8.55 4.5 6.95.35 11.3-4.35 2.6-2.8 5.85-10.1l.6-1.35q1.6-3.5 4.95-7 2.7-2.8 5.9-5.05-3.7.35-6.8 1.75l-1.3.15 1.25-1.35 1.85-1.7 4-2.3q-12.2 1.5-21.25 9.6-1.8 1.4-2 1.25-.2-.1.3-2.3l.8-2.95-5 6.2q-.25-.1.2-2.15.45-2.2 1.3-4.3m-6.3-1.65q1.1-.75.8.2l-.8 2.3q-.5 1.65-.7 3.3 1.35-3.3 4.6-6.55 2.8-2.8 5.3-4l1.6-.5q.25.2-.65 1.4-1.5 2.1-2.9 5.3-1.2 2.8-1.6 4.6l3.25-4.2q1.15-1.35 1.45-1.15.3.15-.05 1.85l-.75 3.15q4.55-4.45 9.9-7.25 8.4-4.35 17.55-3.9l1.95.35q.3.3-1.8 1.05-5.85 2.25-7.15 3.05l3.2-.9 3.75-.65h1.65l-1.1.85q-2.85 1.6-6.55 4.8-5.5 4.75-7.55 9.3l-.6 1.35q-3.35 7.6-6.05 10.6-4.75 5.2-12.3 5.05-3.6-.1-6.9-2.05-3.5-2.15-5.2-5.6-4.2-8.65 5.1-19.4 1.5-1.65 2.55-2.35M360.1 57q-.65-2.8-2.85-5.95-.5 10.1-3.45 14.6-.8 1.15-.7-.45l.45-5.2q0-1.5-.65-3.45-.9 7.9-6.3 12.35-5.55 4.65-7.9 7.6-4.2 5.25-4.2 10.5 0 1.5.4 3.35 1.2 4.9 4.7 6.9 2.3 1.3 5.1 1.25 3.4-.05 6.55-1.95 1.8-1.1 5.2-4.15 3.65-3.3 5.7-4.3l-3.1.2q-2.35.5-4.55 1.55-2 .95-.95-.2l1.4-1.4q2.8-2.8 4.9-6.55 3.2-5.9 3.2-12.15l-.1-3.25q-.15-1.55-.85-3.55l-.7 4.7q-.95 4.9-2.25 5.8-.4.25.05-1.5l.8-3.55q1.1-6.95.1-11.2m-4.5-8.75q-.05-1.55.3-1.7.35-.2 1.45 1.35 1.65 2.3 3 5.15 1.85 3.95 2.1 7.15 1.25 1.7 1.75 4.1.5 2.3.5 6.1 0 5.3-2.35 10.1-1.5 2.95-4.5 6.6l3.35-.35 2.5.4q1.8.65 1.55 1l-1.8.95q-2.6 1.25-6 4.35-3.4 3.05-5.95 4.55-3.8 2.2-6.9 1.85-4.25-.5-6.4-1.7-3.75-2.1-5.05-7.3-1.7-6.95 2.5-13.35 2.5-3.85 8.55-8.9 4.05-3.4 5.85-6.7 1.85-3.45 1.65-7.6-.1-2.1.2-2.2l1.2 1.2q1.15 1.5 1.7 4.8.4-1.65.65-5.1l.15-4.75M246.1 23.6q6.35 7.05 8.2 11.25 3.1 7.2-1.1 14.05l-1.25-.7q1.05-1.7 1.45-3.7l.25-3.55q0-4.2-2.65-8.7-1.9-3.15-5.95-7.7-3.45-3.8-5.35-7.8-.45 2.35.75 5.65 1.15 3.2 3.3 5.9 1.7 2.2.6 1.7l-1.5-.9q-3.3-2.85-5.55-7.2 1.15 5.9 2.6 9.4.75 1.7 0 1.55-.7-.15-2.4-3.8-3.05-1.25-6.45-6.65-4.4-7.05-6.35-17.5-1.85 4.4-1.95 9.3-.15 4.85 1.35 11.6.75 3.4 3.45 7.35l1.1 1.75-.7-.05q-2.9-1.5-4.75-6.7l-1.3-4.9-.25.35q-.25.8-.25 3.5 0 3.05.55 6.15 1 5.55 3.9 9.9 4.15 6.3 11.55 9 3.9 1.4 8.05.2.1.45 1.2 1.1-6.25 1.9-9.95.5-7.9-2.85-12.2-9.1-3.05-4.4-4.05-10.1-1.5-8.35.35-15.25l.2-5.85q.65-6.15 3-11.45l1.1-2.15q.25-.05.65 2.45 1.35 7.85 5.35 15.4 3.05 5.75 6 8.75-.35-1.7-.75-5.1-.35-3.35-.2-3.4l1.65 2.55 2.05 3.4-.95-2.75q-.4-1.5-.4-3 0-1.95.55-3.85.3-1.05.45-.95l.8 2.05q.5 1.8 2.25 3.95l3.55 4.05m-82.95 54.45q3.95 5.6 9.75 11.35 17.6 17.55 25.7 33.65 12.25 24.35 5.55 48.45L203 168q.7-3.95.8-6.4l-.05-5.85q0-21.55-11.1-39.7-6.4-10.4-21.75-25.75-6.95-6.9-9.55-10.1-4.15-5.05-5.15-9.15-.75.8-1.5 2.2l-1.25 2.2q-.9 1.5-1.25.65l-.5-2.15q-.3-1.95-1.25-4.2-1.95-4.45-5.45-6.3.7 2.7.7 5.95l-.15 2.8.15 1.55q-.1 1.1-1.55-1.05-2.3-3.45-11.3-6.85-10.65-4.05-19.55-2.5 5 1.1 7.3 2.45 1.45.85 2.65 2.55.65 1 .05.95-.75 0-3.15-1.6l-9.85-.35L97 68.4q2.55.75 3.7 1.2l3.65 1.9q3.45 1.95 1.1 1.55l-3.1-.8q-5.95-.4-15.25 2.45-18.6 5.6-35.95 21.65-6.35 5.85-12.65 14-3.8 4.9-10.15 14.2-4 5.9-8.45 10.75-4.4 4.85-7.85 7.1 4.1.35 7.55 0 2.5-1.6 3.55-2 1.8-.65-1.65 2.85l-4.75 4.35q-3.2 2.4-7.25 3.8l2.45.25q4.55.45 4.7 1.3.15.9-3.85 3.4-2.4 1.5-4.35 2.2-2.2.8-5.65 1.25 3.25 5.65 8.1 17.3 5.5 13.2 5.85 17.9.4 5.05-.35 4.5-.7-.5-1.4-4.1-1.5-.7-2.3-1.35l-1.75-2q2.3 24 6.4 33.7 3.6 8.55 9.85 16.95 6.3 8.35 15.85 17.35 12.3 11.45 15.7 19.35l.75-2.95q.9-4.05 1.85-3.65.9.35 2.6 5.2 4.55 12.7 4.55 21.4l-.35 4 7-6.9 1.55-1.65-.15 2.3-.55 5.05-.9 7.9q4.75-6.5 8.9-10.3 6-5.45 12.3-7.05l3.65-.55q1.1.15-.45 1.1-1.5.95-3.4 2.75-1.65 1.55-2.75 2.95 15.45-6.55 23-8.2l1.65 2.15q-2.35.5-10.35 2.9-8.3 2.55-13.15 4.3-2.7 1-3.2.5t1.15-2.95l1.3-1.75q-4.3 1.7-9.15 6.05-4.05 3.6-7.35 7.95-2.6 3.4-3.2 3.15-.65-.25-.25-4.25l.9-9.45-4.15 3.85q-2.75 2.55-3.35 2.4-.65-.15-.45-3.55.3-5.05-1.05-10.6-1.15-4.9-4.2-12.75-.1 1.1-.95 2.75-.85 1.7-1.35 1.65-.95 0-3-4.75-1.9-4.3-6.3-9.25l-8-7.9q-10.25-9.65-16.75-17.85-7.25-9.1-10.75-17.45-2.75-6.55-4.05-17.4-.95-7.85-.95-15.6 0-3.85.2-4.1.35-.4 2.55 2.15.9 1 2.2 1.7-2-6.85-6.2-16.55-3.65-8.45-6.75-14.2-1.65-3.15-1.3-3.8.25-.55 3.15-.85 2.4-.3 5.6-1.55 3.05-1.2 4.6-2.4l-3.45-.1q-4.15-.15-3.7-1.25.35-.75 3.8-2.6 5.05-2.75 8.25-5.35l-4.95.1q-3.85-.05-4.1-.85-.2-.75 2.55-2.95 3-2.4 6.75-6.7 4-4.5 7.35-9.45Q38.7 105.6 50 95.15 64.65 81.6 80.15 75.3q10.1-4.1 18.95-4.65l-1.9-.9Q94.45 68.7 94.7 68q.2-.65 3.45-1.2 6.9-1.25 19.95-.35-1.55-.6-4.15-1.25-4.05-1.05-3.75-2.05.35-1 4.9-1.55 7.65-.95 15.95 1.7 7.8 2.5 12.95 7 .5-2.75-.1-5.65-.55-2.75-.1-3 .3-.2 2.8.9 1.85.8 3.55 3.2 1.95 2.7 2.85 6.3 1.05-1.8 2.65-3.8l1.65-1.85.8 2.2q1.15 3.95 5.05 9.45m-6.8 256.55l-.95-1.25 1.1.05 1.2.25q3.9 5.3 6.4 7.95 4.45 4.75 7.65 5.15 5.6.75 9.75-6.25 3.25-5.55 3.95-13.15.75-7.6-1.65-10.8-.8-1.1-4.9-2.45l-7.05-1.8.35-1.65 6.45 1.25q5.9 1.4 7.15 3.1 2.75 3.7 2.15 11.9-.65 8.35-4.2 14.4-2.3 4-5.7 6.5-3.6 2.6-6.75 2.2-3.55-.5-8.2-6.15l-6.75-9.25"/><path fill="#0d131a" d="M128 245.15l1.8 1.35q-2.05 2.8-5.05 5.3l-5.35 3.85-4.35 3.15q-2.25 1.85-3.55 3.7-2.35 3.4-3.6 8.05-1.4 5.1-.65 9.2 1 4.95 4.85 7.55 20.85 13.9 29.45 25.8 2.7 3.75 5.6 10.2 1.8 4 2.8 5.4 1.6 2.2 4.05 3.1l4.1-.1q2.45-.75 4.9-2.65 3.6-2.85 5.8-6.85 2.7-4.8 2.2-9.6-.55-5.65-1.65-7.25-.8-1.2-3.7-1.95-3.6-.85-6.35-2.25-5.65-2.8-10.2-9.7-3.1-4.65-3.7-7.1l2.05-5.35q1.2-1.9 3.65-3.65 5.6-4.05 16.85-7.6 15.6-5 14.4-15.95-.85-7.8-.7-11.95.15-3.15 1.05-5.8 1.95-6.1 1.6-1.45l-.1 5.5.05 8.2q0 2.4.3 5.25l.2 2.85q0 6.8-5.75 10.65-2.6 1.7-9.55 3.9-7.7 2.45-13.75 6-4.95 2.9-7.5 5.7-.55.65-.95 1.55l-.45 1.05q5.45 12.25 12.75 15.9 1.5.75 3.65 1.35l3 .75q3.6.95 4.8 2.55 1.55 2.2 2.2 8.6l.1 1.6q0 5-2.9 9.85-2.4 4.05-6.05 6.9-3.05 2.4-6.4 3.5-3.5 1.15-5.7.35-2.85-1.05-4.5-4.15l-2.65-6.25q-3.7-8.2-6.6-12.2-3.9-5.4-10.8-10.95-5.4-4.35-16.8-11.9-5.6-3.75-6.5-8.6-.85-4.6 1-10.5 1.6-4.95 4.3-8.8 1.45-2.1 3.85-4.05l4.6-3.35 5.15-3.75q2.8-2.35 4.7-4.95"/><path fill="#0d131a" d="M188.95 98.55q-12-14.05-17.55-17.9-5.25-3.65-11-2.3l-1.15-2.1q7.45-1.75 12.7 1.15 5.8 3.25 16.9 16.25 5.75 6.75 12.8 18.65l10.2 18.35q4.4 7.95 7.55 12.6 3.9 5.7 8.85 10.8 2.65 2.7 6.05 5.15l6.2 4.05q7.3 4.6 10.4 7.65 5.25 5.2 6.8 12.15 2.45 10.95 1.85 24.9l-2.15 23.5-1.25 13.35q-.55 7.2-.2 11.85.25 3.05 2.2 5.2.9 1 4.3 3.45l4.15 2.85q2.15 1.7 1.75 3.15-.85 3.5 2.65 10.6 4.65 9.25 14.65 17.5 4.1 3.4 4.55 7.9.5 4.45-2.7 8.85-2.15 2.95-5.7 4.8-4.05 2.1-7.9 1.55-6.6-1-9.2-8.55-7.1-20.8-23.9-28.9-1.7-.8-4-1.5l-3.1-.85q-3.6-1.05-5.8-3.25-2.4-2.5-10.05-13.15-7.7-10.8-11.8-14.2-3.7-3.15-7.2-2.35-3.5 2.35-9.4 4.85l-6.15 2.4.45-3.15q9.2-1.9 15.15-6.75 6.95-5.65 12.1-17.15.85-2 1.25-1.2.35.75 0 2.9-.4 2.2-2.6 6.3-2.8 5.3-6.5 8.7 3 .8 7.15 5.75l9.35 12.6q6.95 9.7 10 12.6 2.15 2 5.65 3 3.75 1.15 6.45 2.45 8.3 4 14.85 11.85 6.55 7.9 10.2 18.3 2.2 6.35 7.4 7.1 3.45.5 7.2-1.3 3.35-1.65 4.95-3.9 2.4-3.25 1.85-7.2-.5-3.65-3.05-6-10.25-9.2-15.6-18.7-4.55-8-3.6-11.85.2-.8-3.5-3.45-3.7-2.6-5.35-4.45-2.85-3.2-3.15-6.9-.35-4.95.05-11.95l1.2-13.35q1.55-15.25 1.7-23.5.2-13.8-2.25-24.75-1.45-6.5-5.8-10.9-2.7-2.7-9.55-6.95l-6.35-4.2q-3.5-2.55-6.25-5.35-4.85-4.95-9.6-12.35-2.8-4.4-8.15-14.1L200.2 114q-5.4-8.6-11.25-15.45m-44.1 171.15q-.55-1.55-.45-2.35.1-1.05 1.9 1.55 2.35 3.4 1.95 9.2-.4 6.35-4.3 9.75l-1.9 1.15q-.9.25.3-1.05 6.65-7.1 2.5-18.25"/><path fill="#0d131a" d="M219.45 190.85q-6.35-.05-10.4-2.35l.3-1.9q3.7 2.1 9.6 2.3 6.25.15 11.65-2 2.55-1 4.95-2.95 2.85-2.3 4.55-5.35 2.35-4.15 3.25-4.15.95.05 2.55 4.35 2.05 5.55.45 12.9-1.8 8.3-7.75 14.5-6.2 6.5-15.35 8.95-13.1 3.45-30.6-2.1l1.9-1.85q14 5.25 27 1.9 9.85-2.55 15.45-8.45 4.15-4.3 6.35-9.8 1.95-4.9 1.95-9.7 0-2.3-.9-5.55-.8-2.9-1.3-3.1-.2-.1-.45.65-1.25 4.1-3.85 6.85t-6.9 4.45q-6.05 2.4-12.45 2.4"/><path fill="#0d131a" d="M204.75 182.35l.35-1.6q2.55.55 4.25 4 1.7 3.45 1.4 7.7-.55 8.65-6.5 14.45-6.9 6.75-19.15 7.25l.25-1.2q10.6-.9 17-7.5 5.6-5.85 6.1-13.75.25-3.6-.8-6.3-1.05-2.65-2.9-3.05m-89.35 14.6q-3.65-14.1.7-22.4l2.7 1.9q-3.9 7.2-.65 20.5 1.9 7.9 7.55 21.05l2.3 5.3.75 2.4q.5 2.35-.65 5.75-1.5 4.3-1.6 6.9-.2 4.4 2.45 8.55.55.85 1.6 1.9.65 2.4 2.4 4.5-4.7-2.35-6.6-5.4-2.95-4.65-2.4-9.8.2-1.9 2.05-7.4l.95-3.15q.1-.95-3.25-8.65-6.45-14.9-8.3-21.95"/><path fill="#0d131a" d="M188 146.05q-8.7-6.75-24.5-7.75-13.75-.85-20 2.4l-3.85-1.8q7.35-3.85 21.35-3.45 17.1.5 28.35 8.85 11.55 8.65 16.1 23.4 4.55 14.8-1 25.75-3.85 7.55-9.15 13.1-3.1 3.3-8.8 7.65l-5.05 4.25q-1.65 1.6-3.4 5.35-1.05 2.2-3.15 7.6l-3.1 7.7q-1.9 4.3-3.85 7.2-.25-.75-1.95-1.05 1.9-2.75 3.8-7l3.05-7.65q3.8-9.95 7.25-13.25 3.2-3.45 5.05-4.9 5.35-4.15 8.2-7.15 4.8-5.15 8.5-12.4 5.25-10.3 1.1-24.35T188 146.05"/><path fill="#0d131a" d="M153.35 243.7q-5.5-2.4-9.15-7.55-3.35-4.65-6.8-4.35-3.3.4-5.35 5.1-4.4 10.3 5.65 17.35 3.6 2.5 9.9 2.6 6.25.1 11.3-2.25 2.85-1.35 4.5-2.9 2.35-2.25 2.8-5.35-7.75-.4-12.85-2.65m-16.15-13.55q4.45-.45 8.35 5.05 3.3 4.55 11.8 7.3 6.75 2.2 9.6 1.8l.85.3q.8.5.65 1.5-.6 3.95-3.2 6.7-2.15 2.25-6.3 4.25-5.4 2.55-11.6 2.2-6.05-.35-11.6-3.4-5.7-3.15-7.1-8.75-1.3-5.2 1.25-11.2 1.1-2.55 3.2-4.1 1.9-1.4 4.1-1.65m5.8-42.45q-1.95 1.15-3.75 2.85-2.6 2.45-3.75 5.2l-.1.95q0 2.4 1.3 5.75 1.75 4.45 5.05 8 2.15-3.8 2.5-10.35.35-6.6-1.25-12.4m-.35-1.5q-.55-1.9-.15-2.25.4-.3 1.2 1.3 2.85 5.8 2.6 13.85-.25 8.7-4.15 12.8-1.05 1.1-1.35 1-.3-.15.3-1.25-4.5-4.5-6.45-9.95-1.65-4.5-.8-6.45 1.5-3.65 5.2-6.65l3.6-2.4m48.45-28.35q-.95 0-1.7 1.25-.7 1.2-.7 2.9t.7 2.9q.75 1.25 1.7 1.25 1 0 1.7-1.25.7-1.2.7-2.9t-.7-2.9q-.7-1.25-1.7-1.25m-2.25.6q1.05-1.5 2.6-1.5 1.6 0 2.65 1.5 1.1 1.55 1.1 3.75t-1.1 3.75q-1.05 1.5-2.65 1.5-1.55 0-2.6-1.5-1.1-1.55-1.1-3.75t1.1-3.75m.8 16.15q-.95-.35-2.25.75-1.45 1.2-2.3 3.35-1.3 3.05-.45 5.15.35.75.85.95 1.15.45 2.75-.4 1.75-.95 2.55-2.95.55-1.25.55-2.7 0-1.45-.55-2.65-.45-1.15-1.15-1.5m2.85 1q1.35 3.2 0 6.5-1 2.45-3.3 3.65-2.15 1.15-3.9.45-1.05-.45-1.6-1.7-1.1-2.6.4-6.25 1.15-2.7 3-4.1 1.85-1.45 3.45-.8 1.25.55 1.95 2.25m-8.05 20q-.75-1.85-2.25-2.35-2.3-.75-5.25 1.25-2.95 1.95-4.7 5.4-1.1 2.15-1.4 4.25-.25 2.1.4 3.65.65 1.65 2.15 2.1 2.45.8 5.35-.65 3.2-1.55 4.9-4.95 1.1-2.15 1.35-4.5.2-2.35-.55-4.2m-7.65-2.4q3.35-2.15 6.2-1.2 2.1.7 3.15 3.15.65 1.6.65 3.8 0 3.25-1.5 6.1-1.95 3.85-5.65 5.65-3.45 1.6-6.35.65-2.15-.7-3.05-2.9-.75-1.85-.45-4.25t1.55-4.85q2.05-4.05 5.45-6.15m-47.85-54.55q1.25-1.1 4.25-1.6 3.25-.55 6.2.1 6.3 1.45 9.2 8.6 1.8 4.35.9 10.3-.9 6.15-4.35 11.25-3.1 4.5-7.75 7.75-6.55 4.6-13.65 4.45-6.15-.1-9.55-4.65-2.05-2.75-3.25-7.6l1.6.45q2.2 8.7 11.95 8.9 6.6.1 12.1-3.65 3.8-2.6 6.55-6.7 3.35-4.9 4.45-10.45 1.1-5.55-.5-9.4-2.4-5.8-8.6-7.35l-5.25-.25q-2.3.35-3.2 1.1l-1.1-1.25"/><path fill="#0d131a" d="M116.65 86.45q.85-1.25.55-1.45l-2.2.05q-11.8 1.3-21.45 10.9-11.5 11.4-9.95 27.25 1.4 14.35 12.9 29.55 12 15.8 23.95 17.05 5.7.65 10-2.9 3.65-3 5.35-8 1.05-3.25 1.05-6.25 0-3.1-1.05-5.5-1.1-2.65-3.3-4-11.2-6.85-18.15-16.5-6.85-9.55-6.85-18.05 0-2.1.55-4.2 2.2-8.65 8.6-17.95m2.05-4.1q3.55-.55.35 3.65-6.05 8.4-8.65 18.4-2.1 8 4.65 18.75 6.75 10.85 18.6 18.15 3.85 2.35 5 7.45 1.2 5.1-.75 10.85-1.85 5.4-6.25 8.75-5.15 3.95-11.8 3.2-12.65-1.35-25.35-17.65-12.25-15.75-13.75-30.7-1.5-15.25 9.6-26.9 10.85-11.35 28.35-13.95m17.4 163.15q-.5-.4-.1-.65l.9-.15q.65.15 1.4.85.95.9 1.2 2 .3 1.15-.05 1.5-.35.3-.8-.4-1.3-2.1-2.55-3.15M166 92.25q-2.25-1.1-8.75-12.3-.3-.55-1 1.5l-1.15 3.15-.9.75q-.3-.15-.1-1l1.1-5.35q.9-4.05 1.5-4.1.45-.05 2.15 3.3l3.45 6.7q.9 1.65 3.9 6.3 1.1 1.7-.2 1.05"/></svg>