<svg xmlns="http://www.w3.org/2000/svg" width="262" height="285" viewBox="-0.45 -0.45 262.15 285.15"><path fill="#e95532" d="M233.2 131.35q-12.3 3.1-22.95 8.55-27.35 13.95-33.6 37.5-4.9 18.35 0 38.8 4.25 17.75 14.2 31.85 2.15 3.15.8 4.55-1.45 1.5-5.3-2.05-9.6-8.9-16.3-26.75-6.85-18.2-6.2-33.9-21.5 14.35-49.55 16.2-22.65 1.5-44.15-5.1l-2.9.2-1.3-.1q-22.7-4-40.4-23.1-19-20.5-21.25-47.85 10.05 4.35 16.5 2.75 5.7-1.5 6.65-6.9.6-3.55-1.05-6.4-1.35-2.35-3.4-3.15-6.35-2.5-11.05-4.75-1.4-.75-1.5-2-.15-1.1.7-2.25Q18.5 90.4 37.85 79.4q19.8-11.25 43.4-10.9 1-3.25 3.7-5.65 2.7-2.35 5.05-2.2 3.9.25 7.3 4.65 1.75 2.15 2.65 4.3 27.3 4.65 48.95 25.15 24 22.65 30.1 55.85 15.5-13.6 38.15-20.9 19.3-6.2 34.95-5.6 8.25.35 8.05 2.2-.15 1.8-7.4 2.05-8.85.3-19.55 3"/><path fill="#f8f397" d="M162.25 71.45q-12.55 12.7-20.5 17.75-4-3.65-11.2-7.9-14.45-8.55-30.6-11.7-.25-1.05-1.25-2.65-2-3.1-5.8-5.55-1.4-31.85-1.15-36.3.25-4.1 1.1-5 1.3-1.2 4.4 2.5 2.85 3.45 7.95 12.75l4.55 8.65q8.75-11.4 20.2-24Q141.65 7.2 147 3.15q2.9-2.2 3.2-2.25 1.7-.25 1.85 4.6.3 7.55-3.9 48.7l16.2-1.35 7.95-.1q3.2 0 3.9.95.8 1.15-1.3 3.9-3.1 4.1-12.65 13.85M96.1 205.85l13.25.55q6 5.85 15.45 20.35 8.95 13.75 13.25 23.05 1.1 2.4.05 2.8-.85.35-3.2-.55-2.6-.95-12.35-5.45-10.5-4.85-13.1-6.45l-4.45 7-4.25 7q-2.85 4.55-5.45.95l-13.75-22-10.35 11-6.85-11.8q-7.3 3.6-11.4 5.2-4.8 1.8-3.15-3.05 1.8-5.4 7.45-16.35 5.45-10.55 9.45-16.6l3.7-.55q10.35 3.65 25.7 4.9"/><path fill="#fff" d="M77.5 98.55q5.55 6.05 5.25 15.15-.25 7.8-6.25 13.35-6 5.6-13.35 4.95-8.55-.7-13.8-6.5-5.35-5.8-4.75-14.15.6-8.1 7-13.75 6-5.3 12.85-5.05 7.8.25 13.05 6"/><path fill="#f8f397" d="M13.4 160.2q-5.1 4.25-1.35 26.8 2.05 12.15 6.9 32.2 3.25 15.65.2 27.05-2.7 10-10 16-3.3 2.75-3.9 1.25-.6-1.5 2.05-4.85 6.25-7.85 7.5-17.45 1.15-8.85-1.8-21.6-5.15-20.75-7-29.7-3-14.85-1.9-23.6.6-4.8 2.25-8.45 1.25-2.75 3.45-5.6l3.6 7.95"/><path fill="#ee848c" d="M26.1 119.45q2.3 3.6 1.25 7.25-1.15 3.7-4.15 5.4-2.45 1.35-5.75 1.3-7.2-.15-11.65-2.65-4.6-2.55-4.75-6.85-.1-2.2 1.4-4.05l1.5-1.4q-3.2-5-.55-8.75 2.6-3.65 7.75-2.25l-.4.95q-.35 1.05 0 1.65.85 1.5 3.75 2.85 2.15 1.05 7.45 2.85 2.2.75 4.15 3.7"/><path fill="#fff" d="M217.9 188.25q-3.55 5.4-4.3 16.15-.9 12.5-2.25 16.15-1.9 5.2-9.5 12.75l-8.95 8.95q-1.55 2.25-2.15 4.25-.3.95-.3 1.5-11.5-16.35-15.3-38.1-3.9-22.7 3.15-38.35 9.7-21.55 36.3-33.5 20.75-9.3 41.5-9.65l-2.5 1.7q-2.75 2.25-3.95 4.85-2.45 5.2-4.3 13.85-1.75 7.95-4.25 12.55-4.25 7.75-10.7 13.1-7.4 6.1-12.5 13.8"/><path fill="#dbdcdc" d="M174.8 184.55q4.65-28.95 34.75-44.15 20.85-10.5 46.7-12.15-3.7 1.55-7 8.85-1.65 3.65-2.55 6.95-21.9.55-40.5 9.2-23.4 10.9-31.4 31.3"/><path fill="#d5d283" d="M96.95 205.8l12.9.6 8.5 10.95q-3 3.65-10.95 5.5-7.8 1.8-16.9 1.15-9.7-.7-17.15-4.05-8.4-3.75-11.8-10l5.15-8.6 3.85-.25q11.25 3.4 26.4 4.7"/><path fill="#ca4829" d="M171.65 167.45q7.05-2.75 7.7-2.4 1.25.7-1.7 8.8-6.15 16.7-2.7 35.9 3.35 18.55 15.25 37.55 3.35 5.25 1.1 5.6-2.15.3-6-3.75-7.1-7.6-11.95-17.3-9.25-18.6-9.5-42.25-22.95 17.95-60.45 16.55-18.7-.75-32.85-5.05l-2.2.35q-6.85.05-16.8-4.75-10.85-5.2-20.45-13.95-24.65-22.4-26.8-52.95 5.4 3.25 10.65 3.25 10.1 16.8 29 27.85 17.5 10.25 40.45 14.45 21.85 4 44.9 1.9 22.9-2.1 42.35-9.8"/><path fill="#0d131a" d="M91.1 22.75q.2-2.85 2.05-3.4 1.95-.6 3.85 1.8 2.25 2.8 6.7 10 5.4 8.65 9.1 16 1.65 3.25.7 3.75t-2.5-2.65q-3.8-7.55-8.95-16.15-4.5-7.55-6.55-10.15-2.55-3.15-2.8.85-.25 3.8.15 16.2.4 13.8 1.3 22.8L93 61.65q-1.15-.45-1.15-.65-.85-8.75-.95-22.5-.1-11.4.2-15.75"/><path fill="#0d131a" d="M147.9 1.2q2-1.65 3.3-1 1.25.55 1.35 2.6.4 5.45-1 26.1-1.45 21.35-2.95 30.15-.6 3.35-1.6 3.5-1 .15-.55-3.05 1.35-8.95 3.05-29.2 1.8-21.65 1.4-27.3-.2-2.1-1.7-.85-7.45 6.1-19 19.05-11.55 12.9-19.5 23.95-.2.2-.8-.8-.6-1-.45-1.25 7.85-10.9 19.45-23.45 11.05-11.95 19-18.45"/><path fill="#0d131a" d="M173.85 52q2.7.2 3.25 1.7.6 1.65-1.5 4.35-6.6 8.65-16.35 18-9.4 9-16.7 13.9l-.95-.7q-.8-.75-.6-.9 7.25-5 16.55-13.65 10.35-9.65 16.75-18 1.45-1.9 1.3-2.35-.1-.4-1.85-.55-4.55-.35-10.65.05l-14.95 1.4q-.3 0-.4-1.05-.05-1.05.2-1.1 15.75-1.8 25.9-1.1"/><path fill="#0d131a" d="M180.5 155.7q.35 2.85-.6 3.3-.9.45-1.2-2.25-4.35-36.2-31.05-61.2-10.95-10.25-24.1-17-12-6.1-23.2-8.1-.25-.05-.6-1.15-.35-1.05-.1-1 11.75 1.85 24.15 7.95 13.6 6.7 24.85 17Q176 118.4 180.5 155.7M25.1 119.5q-1.5-2.15-4-3-8.85-3.1-10.85-5.55-.9-1.15-.1-2.85-4.85-.4-6.4 3.25-1.35 3.25.65 5.75 1.8 2.3 5.55 3.85 3.6 1.55 8.05 2.05 2.9.3 2.6.85l-3.45.2q-9.15-1-13.2-4.85-2.15 1.85-2 4.9.2 3.45 3.45 5.45 3.25 2.05 8.25 2.7 4.4.6 6.9-.1 2.75-.8 4.3-2.75 1.6-1.95 1.7-4.8.15-2.9-1.45-5.1m57.7-52.05q2.9-.05 2.65.85-.2.9-3.2.95-26.5.45-46.2 12.35-17.35 10.55-24.1 26.25-.65 1.55-.6 1.9 0 .35.9 1.1 1.05.85 3.55 1.9l5.95 2.15q3.6 1.25 5.4 4.2 1.45 2.45 1.45 5.4 0 3.1-2.05 5.7-2.2 2.7-5.55 3.45-3.15.65-7.75.05-5.4-.7-8.65-2.75Q.55 128.4.05 124.3q-.5-4 2.9-6.15-3.15-3.95-.6-8.3 1.15-1.9 3.35-2.85 2.2-.9 4.8-.55Q20.35 85.8 42.2 75.7q18.15-8.4 40.6-8.25"/><path fill="#0d131a" d="M90 59.8q4.2-.2 8.15 5.2 4.2 5.65 6.9 15.85 6.45 24.55 1.15 60.35-4.5 30.3-18.65 47.8-5.7 7.1-11.9 10.5-5.7 3.15-10.1 2.35-22.3-4.05-39.95-22.5-19.95-20.85-22-49.6l.9-.05q.95.25.95.55 1.95 27.1 22.4 48 8.6 8.75 19 14.6 9.85 5.6 18.95 7.25 4.05.75 9.4-2.45 5.8-3.45 11.2-10.4 13.45-17.3 17.75-46.35 5.2-34.7-.8-58.9-2.4-9.8-6.2-15.35-3.55-5.2-7.1-5.05-3.3.15-6 3.65Q82.7 67 82 68.75l-1.3.05q-1.15-.2-1.1-.45 1.1-2.55 3.4-4.95 3.3-3.45 7-3.6"/><path fill="#0d131a" d="M167.75 185.05q2-1.8 2.25-.9t-1.85 2.85q-18 16.8-48.6 19.75-26.1 2.55-50.5-5.15-.25-.1.7-.75.9-.6 1.25-.5 25.6 7.05 51.3 3.75 28.4-3.6 45.45-19.05"/><path fill="#0d131a" d="M162.8 190.55q0-.25 1-.95t1-.4q-.7 16.35 6.7 35.3 7.1 18.05 16.25 25.85 2.65 2.25 3.4 1.6.75-.65-1-3.2-11.25-16.55-15.3-36.25-4.9-23.75 3.3-43.3 6.6-15.7 27.5-27.6 22.15-12.6 49.15-14.1 4.5-.25 4.6-1.15.15-.9-4.2-1.15-20.35-1.1-41.15 6.3-20.55 7.3-34.75 20.45-.2.2-.35-1.05-.15-1.25 0-1.35 14.3-12.95 35.05-20 20.7-7 41.3-5.95 6.4.35 5.75 2.9-.65 2.5-6.15 2.8-27.35 1.55-49 14.2-19.6 11.45-25.8 26.2-8.1 19.3-3.45 42.65 3.85 19.5 14.85 35.65 2.55 3.75.55 5.1-1.95 1.4-5.65-1.75-9.25-7.9-16.45-25.6-7.6-18.75-7.15-35.2"/><path fill="#0d131a" d="M240.3 165.35q-2.6 4.05-10.85 11.1-7.4 6.3-10.85 12.7-3.8 7-4.3 16.55-.65 12.75-3.1 17.75-2.2 4.5-11.45 13.2-4.1 3.85-5.9 6.2-2.6 3.4-2.45 6.05 0 .3-.8-.8-.8-1.05-.75-1.35.25-3.2 2.7-5.9l6.05-5.45q8.1-7.35 10.85-13.2 2.75-5.8 3.3-16.55.55-10.5 3.55-16.55 3.15-6.3 11.8-13.7 7.4-6.3 11.35-13.15 3.45-6.05 5.6-15.2 2-8.7 3.55-11.8 2.3-4.75 7.1-7.15l2.15-.15 1.4.2q-5.2 1.7-8.45 7.6-2.45 4.35-4.2 12.05-2.8 12.1-6.3 17.55"/><path fill="#0d131a" d="M181.45 165.25q-.25.15.05-.95.3-1.15.65-1.35 9.9-5.9 29.7-6.95 16.15-.9 30.85 1.4.3.05.2.7-.1.7-.4.65-13-2.05-31.2-.8-21.7 1.45-29.85 7.3m-6.1 15.05q-.05-.35.55-1.2.6-.8.65-.5 2.4 11.45 13.9 27.4 9.8 13.65 17.9 20.15.25.15-.2.7l-.65.35q-9.3-7.5-17.95-19-10.9-14.55-14.2-27.9M9.05 151.15q.2-.2.5.9l.2 1.35q-4 5.3-4.95 12.95-1.1 8.4 1.85 23.05l7.2 30.3q3.25 13.95 1.7 23.05-1.45 8.5-7.75 16.35-2.3 2.9-1.9 3.8.35.9 2.85-1.15 6.6-5.45 9.35-14.25 3.6-11.6.2-28.15-5.45-22.2-6.55-28.7-4.6-26.15 1.2-31 .25-.15.9.6.6.7.4.9-5.05 4.25-.6 29.5.75 4.4 6.4 28.65 3.7 17.7-.4 29.5-2.9 8.35-10.05 14.2-3.75 3.1-4.9 1.1-1.2-2.05 1.85-5.85 6.1-7.6 7.3-17.25 1.15-8.9-1.75-21.25L5.9 195.4q-4.5-20.3-3.35-29.2.65-4.95 2.65-9.1 1.45-2.9 3.85-5.95m56.7 49.95l1.2-.1q1.05.15.9.35-2.65 3.7-8.15 13.9-6.95 12.8-9.4 20.35-.6 1.95 1.65 1.25 2.05-.65 7.6-3.4.25-.1.55.95.25 1.1 0 1.2l-7.75 2.75q-1.95.6-3.1 0-1.5-.75-.7-3.2 3.25-9.95 9.2-20.95 4.4-8.2 8-13.1m42.3 5.4q-.1-.1 1.05-.25l1.35.05q7.5 7.65 16.75 22.15 8.2 12.8 11.55 20.7 1.1 2.5.45 3.65-.65 1.2-3.1.35-4.6-1.55-10.65-4.05-9.9-4.1-15.7-7.8L101 254.85q-3.1 4.6-6.2.75-1.95-2.5-6.05-8.9-4.95-7.65-7.2-12.25l-9.7 10.45q-.2.2-.7-.5-.5-.7-.3-.9L80.3 233q.9-1.05 1.65-.95.7.1 1.45 1.45l6.9 11.95q4.45 7.4 5.8 9.1 1.15 1.4 1.75 1.35.7-.05 1.75-1.95l8.6-13.95q.6-1 1.05-1.05.45-.05 1.65.75 5.05 3.3 14.9 7.6 7.55 3.35 10.75 4.35l1.25.1-.7-2.1q-2.6-6.05-11.95-20.5-10.65-16.4-17.1-22.65M13.1 133.15q-.05-.3.95-.25.95.1 1 .35 3.05 21.2 21.8 38.7 18.3 17.05 43.25 23.2.25.1-.35.65-.6.6-.9.5-26.45-6.5-44.45-23.75-18.1-17.35-21.3-39.4"/><path fill="#0d131a" d="M37.85 188.85q-.3 0-.4-.6-.1-.6.2-.65 2.75-.4 6.15-1.85 3.15-1.35 5.2-2.85.2-.15.85.4.6.55.4.75-2.4 1.85-5.7 3.15-3.5 1.4-6.7 1.65m40.05 8.6q-.25-.05.5-.85.75-.8.95-.75 10.3 2.8 11.75 2.5 1.3-.35 6.45-3.15 5.25-2.9 5.5-3.55l-.2-6.7-.25-5.65.9.3.9.8.2 6q.05 5.35-.2 6-.4.85-6.1 4.2-5.55 3.25-6.5 3.4-1.7.4-13.9-2.55M116.7 75l2.8.5q1.85 1.6 4.25 4.9 2.45 3.35 2.3 4.15-.15.7-2.75 3.2l-4.75 4.05q9.6 15.3 9.6 16.75 0 .95-2.75 5.45-2.8 4.6-5.6 8.1l4.6 5.45-1.9-.4-4.5-4.45-.1-.45v-.45l5.55-8q2.9-4.4 3.1-5.25-.45-1.4-10.35-16.95l.8-.65q7.35-5.8 7.4-6.55.05-.5-3.2-4.6-3.35-4.25-4.5-4.8"/><path fill="#0d131a" d="M94.1 177.4l.75-1.5 7.05 2.7.5.85q.25.75 0 .65l-8.3-2.7m12.7-55.3q-.3-.05-.25-1 0-.95.3-.9l11.65 1.35q.3 0 .45.75.2.8 0 .75l-12.15-.95m-.8-31.25q-.35 0-.6-.95-.3-.95 0-.95l5.45.65 6.8 1q.55.15.5 1-.05.85-.6.7L106 90.85m-41.55 2.4q-7.2-.25-12.95 5.5-5.65 5.6-5.75 12.65-.15 7.8 4.45 13.35 4.9 5.85 13 6.6 6.6.55 12.2-4.4 5.95-5.3 6.2-13.3.3-8.45-4.45-14.25-4.9-5.9-12.7-6.15m-14.7 4.45q6.2-6.35 14.75-6.05 8.55.3 14.1 6.65 5.55 6.35 5.25 15.4-.25 8.3-6.85 14.2-6.4 5.65-13.9 5-9.25-.8-14.6-7.3-4.9-5.9-4.8-14.05.15-7.8 6.05-13.85"/><path fill="#0d131a" d="M62.75 108.65q-.05-.35.15-.75.2-.45.65-.5l.9.3.4.9q.05 1.35-1 1.35-.5.05-.8-.35-.3-.35-.3-.95m95.3-3q-.15-.3 1 .55l1.3 1.3q9.3 27.4-.35 58.55-3.95 12.8-10.3 22.9-6.1 9.65-12.35 13.75l-4.05.65q7.35-3.95 14.05-14.65 6.7-10.55 10.75-24.6 4.3-14.8 4.55-29.4.2-16.1-4.6-29.05"/><path fill="#f8f397" d="M42.75 134.5q2.9.95 8.2 6.85 5.9 6.55 8.25 12.6 3.95 10.4 2.8 31.7-.65 12.25-.65 16.95.05 9.75 1.8 17.4 6.6 29 24.05 45.7 10.4 10 23.7 14.65 3.1 1.1 3.55 2.25.5 1.2-2.45 1.2-6.5 0-14.3-3.8-8.5-4.05-16.2-11.55-18.85-18.2-25.5-47.75-2.5-11.15-1.5-29.9 1.1-19.65-.2-26.9-1.4-7.85-6.85-14.6-3.45-4.2-7.75-7.25-2.6-1.85-1.2-5.2 1.45-3.3 4.25-2.35"/><path fill="#e95532" d="M163.35 135.1l-25.85-.9-29.75-2.2q-1.45.1-4.2 1.15-5.5 2.1-11.95 6.8-8.5 6.25-10.95 8.8-3.25 3.4-3.45 7.2l-6.65-.8.05-4.2q.2-4.4 1-5.45 1.35-1.7 13.55-10.2 12.8-9 15.45-9.25l65.9 4.1 4.1.4q1.85.4 1.85 1.45 0 1.05-3.8 2.05l-5.3 1.05"/><path fill="#fff" d="M77.3 152.9q1.75-3.65 12.4-11.6 11.6-8.65 17.5-9.15l16.65 1.25 36.45 1.8q-3.2 1.2-8.6 4.3-8.05 4.65-14.35 10.4-19.25 17.45-16.25 38.6.6 4.35 0 4.65-.35.15-2.9-1.7-40.15-29.95-40.9-31.8-.5-1.2-.3-4.1l.3-2.65"/><path fill="#dbdcdc" d="M77.3 159.8q-.65-1-.55-3.6.1-2.8 1.2-4 8.35-9.4 18.2-15.45 8.1-5 11.4-4.8l23.25 2.15 28.15 1.2-7.8 3.7q-24.1-.8-42.95 3.15-8.55 1.75-16.9 7.4-11.15 7.5-7.2 15.3-6-3.85-6.8-5.05"/><path fill="#0d131a" d="M50.35 141.7q-5.15-5.7-7.8-6.55-2.3-.75-3.45 2.05-1.15 2.8 1 4.3 4.55 3.2 8.05 7.55 5.4 6.8 6.8 14.75.9 5.05.9 11.75l-.5 12.5q-.6 10.45-.5 15.95.15 9.1 1.8 16.55 6.6 29.3 25.05 47.3 7.6 7.45 16 11.5 7.75 3.8 14.3 3.8 1.65 0 1.25-.7-.35-.65-2.55-1.45-14.9-5.25-26.3-16.8-16.65-16.85-22.15-44.05-2.05-10.05-1.55-24.5 1-15.1 1-21 0-12.1-3.15-20.45-2.3-6.05-8.2-12.5m-7.6-8.3q3.35 1.1 8.95 6.95 6.5 6.75 8.8 13.4 3.1 9.05 3.2 17.3l-.95 16.85q-.55 10.6-.45 15.85.1 8.95 1.75 16.1 6.1 26.9 22.5 43.55 10.7 10.9 24.6 16.35 3.3 1.3 3.6 3.1.35 1.85-2.75 1.85-6.65 0-14.45-3.5-8.7-3.9-16.55-11.15-19.35-17.95-26.35-49Q53 213.65 53 204.2l.75-16.25q.45-7.6.4-12.35-.1-6.5-1-11.6-1.2-6.65-5.35-12.5-3.55-5-8.45-8.45-3.1-2.15-1.45-6.45 1.65-4.25 4.85-3.2M79 151.8q-1.25 1.8-1.25 4.9 0 2.6.75 3.2l6.2 4.7q24.95 18.75 34.1 26.35 1.7 1.4 1.9 1l-.4-2.65q-3.65-18.25 11.25-35.15 11.3-12.75 25.35-18.4l-28.45-1.1-19.9-1.7q-5.45-.7-17.5 8.35-9.9 7.4-12.05 10.5m87.25-22.5q7.2.35 7.45 2.4.2 2-6.4 3.35l-6.45.85q-16.45 6.4-28.05 20.35-13.85 16.65-10.45 34.4.55 2.75-.35 3.3-1 .6-4.05-1.7l-40.25-30.8q-1.35-1.05-1.55-4.6-.2-3.7 1.3-5.85 3.25-4.6 14.1-12.35 12.25-8.65 17.25-7.7 5.9 1.1 27.5 2.4 24.4 1.5 30.75.15 4.8-1 4.6-1.8-.2-.85-5.45-.85l-37.65-2.4-28.4-1.5q-3.35 1-15.3 9.5-11.35 8.05-12.3 9.4-.6.9-.8 2.9l-.4 4.25q-.35 2.85-1 2.3-.6-.5-.4-3.6l.3-4.2q.15-2.4.55-2.9.85-1.2 12.7-9.55 12.7-9.05 16.25-10.1l21.5.95 45 3.4"/><path fill="#0d131a" d="M77.1 158.6q-.25-.05-.2-.7.1-.65.35-.65 9.15.9 16.35 2.95 8.05 2.25 16.05 6.5 3.25 1.7 3.25 2.35 0 .65-3.2-.8-8.55-4-16.7-6.25-6.3-1.8-15.9-3.4m.05-2.9q-.25.15-.25-.6-.05-.75.2-.9 10.55-6.7 27.25-9.7 18-3.2 41.2-1.75.3 0-.55.6l-1.15.55q-22.75-.6-39.8 2.45-16.85 3-26.9 9.35"/></svg>