<svg xmlns="http://www.w3.org/2000/svg" width="95" height="136" viewBox="-1.85 -0.05 94.95 136.45"><path fill="#0d131a" d="M85.2 82.95q-3.45-.3-6.05-2.85-1.55-1.5-1.7-4.5l-.35-4.55q-.3-1.05-1.45-2.35l-2.25-2.2q-1.15-1.1-1-1.6.1-.5 1.75-.55 10.6-.4 15.45 4.3 3.1 3 3.15 7.15.05 3.8-2.25 5.7-2.1 1.7-5.3 1.45"/><path fill="#cad3cc" d="M89.65 80.1q-1.85 1.7-4.5 1.55-2.7-.25-4.95-2.4-1.25-1.2-1.5-4.05l-.35-4.45q-.4-1.65-2.85-3.8l-1.2-1.25q-.05-.35 1.7-.25 8.65.6 12.5 4.35 2.45 2.35 2.7 5.6.2 3.1-1.55 4.7"/><path fill="#a6ada8" d="M89.65 80.1q-1.85 1.7-4.5 1.55-2.7-.25-4.95-2.4-.8-.7-1.1-1.9 3.75 1.9 7.25.75 3.7-1.15 4.3-5 .8 2 .5 3.95-.3 1.95-1.5 3.05"/><path fill="#0d131a" d="M81 98.55q-4.5-.5-6.65-3.5-2.5-3.5-2.35-7.3.1-4.15 3.3-6.4 3.05-2.2 6.95-1.45 4.15.75 6.8 4.45 2.35 3.3 1.8 7.25-.55 4-3.75 6-2.2 1.4-6.1.95"/><path fill="#e3c582" d="M82.2 81.3q3.3.8 5.4 3.7 2.1 2.95 1.75 6.35-.35 3.35-2.95 5.2t-5.9 1.1q-3.3-.75-5.4-3.7-2.1-2.9-1.75-6.3.35-3.4 2.95-5.25t5.9-1.1"/><path fill="#bfa56f" d="M87.95 85.6q1.8 2.85 1.35 6-.45 3.2-2.9 4.95-2.6 1.85-5.9 1.1-3.3-.75-5.4-3.7-1.6-2.3-1.75-4.75l.35.55q2.1 2.95 5.4 3.7 3.3.75 5.9-1.1 1.6-1.1 2.35-2.95.75-1.75.6-3.8"/><path fill="#0d131a" d="M68.15 91.6q3.1-2.75 7.65-2.15 4.55.55 7.85 4.1 3.3 3.6 3.15 8.5-.15 4.6-3.05 7-3.05 2.6-7.65 2.2-4.9-.4-8.15-4.15-3.3-3.85-3.1-8.45.2-4.4 3.3-7.05"/><path fill="#e3c582" d="M69.1 92.7q2.8-2.45 6.75-1.95 4 .55 6.75 3.75 2.8 3.2 2.75 7.2 0 4-2.85 6.45-2.8 2.45-6.75 1.9-3.95-.5-6.75-3.7t-2.8-7.2q.05-4 2.9-6.45"/><path fill="#bfa56f" d="M75.75 110.05q-3.95-.5-6.75-3.7-2.2-2.5-2.65-5.55l.55.65q2.8 3.2 6.75 3.7 3.95.55 6.75-1.9 1.7-1.45 2.4-3.65.7-2.1.35-4.45 2.4 3.15 2.2 6.9-.15 3.8-2.85 6.1-2.8 2.45-6.75 1.9"/><path fill="#0d131a" d="M54.55 101.55q3.5-3.8 8.9-4.25 5.6-.5 10.2 3.75 4.55 4.15 4.8 9.6.3 5.4-3.95 8.85-3.4 2.8-6.95 2.85-6.6.1-11.1-3.4-4.7-3.7-5-9.6-.2-4.3 3.1-7.8"/><path fill="#e3c582" d="M58.2 117.7q-3.7-3.35-4.25-8-.5-4.7 2.45-7.95 2.9-3.25 7.65-3.2 4.7.05 8.4 3.4t4.2 8q.55 4.7-2.4 7.95t-7.65 3.2q-4.7-.05-8.4-3.4"/><path fill="#bfa56f" d="M76.75 111.3q-.05 3.85-2.5 6.6-2.95 3.25-7.65 3.2-4.7-.05-8.4-3.4-3.3-2.9-4.1-7.15l2 2.25q3.7 3.35 8.4 3.4 4.7.05 7.65-3.2 3.3-3.65 2.3-8.8 2.3 3.3 2.3 7.1"/><path fill="#0d131a" d="M41.35 129.9q-4.95-2.4-7.9-9.25-2.1-4.9-.15-10.4 2.1-6 8.1-8.6 6.6-2.85 13.95-.1 7.35 2.7 10.15 9.2 2.35 5.45-.2 11.3-2.9 6.7-10.85 8.45-8.05 1.8-13.1-.6"/><path fill="#e3c582" d="M42.9 102.25q5.75-2.05 11.8.4 6 2.4 8.75 7.9 2.8 5.5.65 10.8-2.15 5.35-7.9 7.4-5.8 2.05-11.85-.4-6.05-2.45-8.8-7.9-2.75-5.45-.6-10.8 2.15-5.35 7.95-7.4"/><path fill="#bfa56f" d="M63.95 111.6q2 5 .15 9.75-2.15 5.35-7.9 7.4-5.8 2.05-11.85-.4-4.65-1.85-7.45-5.75-2.75-3.8-2.85-8.15 1.2 2.95 3.55 5.25 2.45 2.4 5.7 3.7 6.05 2.45 11.85.4 5.75-2.05 7.9-7.4.9-2.15.9-4.8"/><path fill="#0d131a" d="M41.4 134.55q-8.95.15-14.15-5-4.45-4.35-4.45-10.2 0-6.85 4.65-11.15 4.85-4.55 13.1-4.55 7.8 0 13 4.55 4.95 4.35 4.95 10.4 0 6.35-4.65 10.95-4.85 4.85-12.45 5"/><path fill="#e3c582" d="M40.55 104.75q6.7 0 11.45 4.2 4.75 4.2 4.75 10.1 0 5.9-4.75 10.1-4.75 4.15-11.45 4.15-6.7 0-11.4-4.15-4.75-4.2-4.75-10.1 0-5.9 4.75-10.1 4.7-4.2 11.4-4.2"/><path fill="#bfa56f" d="M53.6 110.6q3.15 3.8 3.15 8.45 0 5.9-4.75 10.1-4.75 4.15-11.45 4.15-5.8 0-10.3-3.25-4.4-3.25-5.55-8.2 2.25 2.7 5.65 4.25 3.45 1.6 7.4 1.6 6.7 0 11.45-4.15 4.75-4.2 4.75-10.1 0-1.5-.35-2.85"/><path fill="#0d131a" d="M54.55 94.8q5.05 4.55 5.05 11 0 6.75-5 11-4.9 4.2-12.5 4.25-8.25.05-13.4-4.5-4.9-4.35-4.9-10.8 0-6.85 5.25-11.3 5.1-4.3 12.55-4.3 7.75 0 12.95 4.65"/><path fill="#e3c582" d="M41.6 91.3q6.7 0 11.4 4.2 4.75 4.15 4.75 10.05T53 115.65q-4.7 4.2-11.4 4.2t-11.45-4.2q-4.75-4.15-4.75-10.1 0-5.9 4.75-10.05 4.75-4.2 11.45-4.2"/><path fill="#bfa56f" d="M57.75 105.55q0 5.9-4.75 10.1-4.7 4.2-11.4 4.2-5.5 0-9.9-2.95-4.25-2.95-5.7-7.5 2.25 2.55 5.55 4.05 3.45 1.5 7.25 1.5 6.7 0 11.4-4.2 4.75-4.2 4.75-10.1 0-1.95-.6-3.85 3.4 3.9 3.4 8.75"/><path fill="#0d131a" d="M38.55 70.85q9.15 0 15.6 6 5.75 5.35 5.75 11.3 0 8-6.2 13.5-6.15 5.55-15.05 5.55-8.2 0-14.35-4.9-6.6-5.3-6.6-13.2 0-7.05 5.45-12.35 6-5.9 15.4-5.9"/><path fill="#e3c582" d="M19.65 89.1q0-6.95 5.55-11.85 5.6-4.9 13.45-4.9t13.4 4.9q5.55 4.9 5.55 11.85 0 6.95-5.55 11.85-5.55 4.9-13.4 4.9-7.85 0-13.45-4.9-5.55-4.9-5.55-11.85"/><path fill="#bfa56f" d="M36.85 89.25l-10-.5q-4.7-.95-6.9-2.8 1.3-5.85 6.5-9.7 5.3-3.9 12.2-3.9 4.95 0 9.25 2.1 4.15 2.05 6.75 5.6-4.7 8.05-17.8 9.2"/><path fill="#bfa56f" d="M56.9 84.5q.7 2.25.7 4.6 0 6.95-5.55 11.85-5.55 4.9-13.4 4.9-6.05 0-11-3.05-4.8-3.05-6.85-7.9 2.7 2.75 6.35 4.3 3.85 1.6 8.1 1.6 8.45 0 13.8-3.55 6.25-4.1 7.85-12.75"/><path fill="#0d131a" d="M49.45 87.45q0-2.55 1.85-4.5Q53.15 81 55.55 81q2.55 0 4.45 1.85 1.9 1.9 1.9 4.4 0 2.55-1.85 4.45-1.85 1.9-4.2 1.9-3.25 0-5-2.15-1.4-1.7-1.4-4"/><path fill="#e8528d" d="M55.55 92.6q-2.05 0-3.45-1.55-1.45-1.55-1.45-3.75 0-2.15 1.45-3.7 1.45-1.55 3.45-1.55 2.05 0 3.45 1.55 1.45 1.55 1.45 3.7 0 2.2-1.45 3.75-1.4 1.55-3.45 1.55"/><path fill="#f3b3c9" d="M54.4 85.6l-.95.55q-.5.05-.85-.25-.3-.3-.2-.8.1-.55.5-1 .45-.4 1-.5l.8.2q.3.35.2.85l-.5.95"/><path fill="#c9467c" d="M59.05 85.2q0-1.05-.35-1.9 1.75 1.5 1.75 4 0 2.2-1.45 3.75-1.4 1.55-3.45 1.55-1.5 0-2.75-.95-1.25-.9-1.8-2.4 1.35 1.25 3.15 1.25 2.05 0 3.45-1.55 1.45-1.55 1.45-3.75"/><path fill="#0d131a" d="M49.9 110.05q.5-2.5 2.7-3.8 2-1.25 4.2-.8 2.3.45 3.6 2.5 1.3 2.1.8 4.6-.45 2.05-2.35 3.35-2.05 1.35-4.5.85-2.5-.55-3.75-2.6-1.15-1.9-.7-4.1"/><path fill="#e8528d" d="M54.55 115.8q-1.8-.35-2.8-2-.95-1.65-.55-3.55.35-1.95 1.9-3.05 1.55-1.1 3.35-.75 1.8.4 2.8 2 .95 1.65.55 3.55-.35 1.95-1.9 3.05-1.55 1.1-3.35.75"/><path fill="#f3b3c9" d="M54.8 109.4l-1.65-.05q-.25-.35-.05-.8.15-.45.65-.75.45-.3.9-.25.5 0 .7.35.25.3.05.75l-.6.75"/><path fill="#c9467c" d="M58.95 109.9l.05-1.75q1.25 1.75.8 3.85-.35 1.95-1.9 3.05-1.55 1.1-3.35.75-1.35-.3-2.3-1.35-.9-1.05-1.1-2.45.95 1.3 2.55 1.7 1.75.35 3.3-.75 1.6-1.15 1.95-3.05"/><path fill="#0d131a" d="M50.15 127.85q1.4-1.45 3.5-1.5 2.1-.05 3.75 1.45 1.55 1.35 1.75 3.45.2 2.1-1.1 3.45-1.4 1.5-3.75 1.4-2.25-.05-3.6-1.4-1.55-1.5-1.75-3.4-.2-1.95 1.2-3.45"/><path fill="#e8528d" d="M51.45 133.95q-1.25-1.1-1.35-2.65-.1-1.55 1-2.7 1.1-1.15 2.75-1.2 1.6-.1 2.85 1t1.35 2.65q.1 1.6-1 2.7-1.1 1.15-2.7 1.2-1.65.05-2.9-1"/><path fill="#f3b3c9" d="M54.25 129.65l-.85-.25q-.35-.2-.4-.55-.05-.35.3-.55.3-.25.75-.2l.85.25.4.5-.3.55-.75.25"/><path fill="#c9467c" d="M58 130.7q.3 1.7-.95 3.05-1.1 1.15-2.7 1.2-1.65.05-2.9-1-.95-.8-1.2-1.95-.3-1.15.1-2.2.15 1.3 1.3 2.3 1.25 1.05 2.9 1 1.6-.05 2.7-1.2.55-.5.75-1.2"/><path fill="#0d131a" d="M61.6 119.95q1.5-.95 3.4-.65 1.95.3 3.2 1.85 1.1 1.35.95 3.15-.15 1.9-1.75 2.95-1.35.85-3.4.5-2-.35-3-1.55-1.1-1.35-1.1-3.1 0-2.05 1.7-3.15"/><path fill="#c9467c" d="M66.2 120.65l1.1.9q.9 1.15.7 2.45-.2 1.35-1.35 2.1-1.15.75-2.65.5-1.45-.25-2.35-1.4l-.3-.5q.9.55 1.95.55 1.1 0 1.95-.55 1.05-.65 1.3-1.85.25-1.15-.35-2.2"/><path fill="#e8528d" d="M65.25 124.7q-.85.55-1.95.55-1.05 0-1.95-.55-.6-1.05-.35-2.2.25-1.2 1.3-1.85.85-.55 1.95-.55 1.05 0 1.95.55.6 1.05.35 2.2-.25 1.2-1.3 1.85"/><path fill="#f3b3c9" d="M64.1 121.9l-.7.25-.6-.25q-.15-.2 0-.5.1-.35.45-.55.4-.25.75-.25l.55.2q.4.5-.45 1.1"/><path fill="#0d131a" d="M77.2 110.75q1.7.4 2.75 1.75 1.1 1.4.85 3-.2 1.45-1.6 2.3-1.55.95-3.6.6-1.65-.3-2.6-1.7-.8-1.3-.65-2.65.15-1.55 1.55-2.6 1.45-1.1 3.3-.7"/><path fill="#c9467c" d="M77.15 115.7q.95-.6 1.2-1.65.2-1-.35-1.95.65.35 1 .8.8 1 .65 2.2-.2 1.2-1.2 1.85-1.05.7-2.4.45-1.3-.25-2.1-1.25l-.3-.4q1.9 1.05 3.5-.05"/><path fill="#e8528d" d="M77.15 115.7q-1.6 1.1-3.5.05-.55-1-.3-2 .25-1.05 1.2-1.65.75-.5 1.7-.5t1.75.5q.55.95.35 1.95-.25 1.05-1.2 1.65"/><path fill="#f3b3c9" d="M76.15 113.2q-.85.45-1.15 0-.35-.45.4-.95l.65-.25.5.2q.4.5-.4 1"/><path fill="#0d131a" d="M85.65 97.7q1.75.25 2.75 1.45.95 1.1.9 2.45-.05 1.4-1.55 2.3-1.4.85-3.05.5-1.6-.35-2.45-1.45-.75-.95-.7-2.1.05-1.6 1.55-2.5 1.3-.8 2.55-.65"/><path fill="#c9467c" d="M87.5 99.45q.8.85.7 1.95-.1 1.05-1 1.75-.9.65-2.1.5-1.15-.15-1.95-1l-.3-.35q1.8.8 3.15-.25.8-.6.95-1.55.15-.9-.4-1.75.55.25.95.7"/><path fill="#e8528d" d="M83.45 98.95q.65-.5 1.5-.55l1.6.35q.55.85.4 1.75-.15.95-.95 1.55-1.35 1.05-3.15.25-.55-.85-.35-1.8.15-.95.95-1.55"/><path fill="#f3b3c9" d="M84.95 99.85l-1.05.1q-.35-.35.3-.9l1.05-.1q.35.45-.3.9"/><path fill="#0d131a" d="M12.6 92.15q0-2.8 2.05-4.7 1.9-1.8 4.3-1.8 2.5 0 4.3 1.9 1.8 1.9 1.8 4.45.05 2.65-1.7 4.5-1.8 1.9-4.5 1.9-1.95 0-3.75-1.25-2.5-1.75-2.5-5"/><path fill="#e8528d" d="M18.85 97.25q-2.05 0-3.45-1.55-1.45-1.55-1.45-3.75 0-2.15 1.45-3.7 1.45-1.55 3.45-1.55 2.05 0 3.45 1.55 1.45 1.55 1.45 3.7 0 2.2-1.45 3.75-1.4 1.55-3.45 1.55"/><path fill="#f3b3c9" d="M17.65 90.25l-.95.5q-.5.1-.8-.2-.3-.35-.2-.85.05-.55.5-.95.4-.45.95-.5l.8.2q.35.3.25.85l-.55.95"/><path fill="#c9467c" d="M18.85 97.25q-1.55 0-2.8-.95-1.2-.9-1.75-2.4 1.4 1.25 3.15 1.25 2.05 0 3.45-1.55 1.45-1.55 1.45-3.75L22 87.9q1.75 1.65 1.75 4.05 0 2.2-1.45 3.75-1.4 1.55-3.45 1.55"/><path fill="#0d131a" d="M20.6 115.05q-.45-2.35 1-4.45 1.45-2.15 3.8-2.6 2.1-.4 4.1 1.1 2 1.45 2.45 3.7.45 2.2-.75 4.1-1.25 2.05-3.6 2.5-2.6.55-4.65-.85-1.9-1.3-2.35-3.5"/><path fill="#e8528d" d="M27.25 118.45q-1.8.35-3.3-.8-1.5-1.1-1.9-3.05-.35-1.9.6-3.5 1-1.6 2.8-2 1.8-.35 3.35.8 1.55 1.1 1.9 3.05.4 1.9-.65 3.55-1 1.6-2.8 1.95"/><path fill="#f3b3c9" d="M25.05 112.45q-.75 1.05-1.55.6-.35-.2-.35-.7 0-.5.3-.95.3-.45.75-.6l.8.05.35.7-.3.9"/><path fill="#c9467c" d="M29.1 111.35q-.25-1.1-.65-1.65 1.8 1.05 2.25 3.25.4 1.9-.65 3.55-1 1.6-2.8 1.95l-2.6-.35q-1.25-.6-2-1.8 1.5.85 3 .55 1.8-.35 2.8-2 1.05-1.6.65-3.5"/><path fill="#0d131a" d="M21.6 132.4q-.4-1.8.65-3.45 1.2-1.8 3.45-2.2 2.15-.35 3.95.75 1.7 1.1 2.1 2.9.5 2.1-.8 3.75-1.25 1.5-3.3 1.85-2.35.4-4.05-.7-1.6-1-2-2.9"/><path fill="#e8528d" d="M27.4 135.05q-1.6.25-3-.6-1.35-.9-1.7-2.45-.35-1.55.6-2.85.9-1.3 2.5-1.55 1.6-.3 3 .6 1.35.9 1.7 2.45.35 1.55-.55 2.8-.95 1.3-2.55 1.6"/><path fill="#f3b3c9" d="M25.4 130.25l-.65.5-.7-.05q-.3-.2-.3-.55-.05-.4.25-.75l.65-.5.7.05.35.55-.3.75"/><path fill="#c9467c" d="M29.95 133.45q-.95 1.3-2.55 1.6l-2.35-.3q-1.1-.45-1.75-1.45 1.2.7 2.7.45 1.6-.25 2.5-1.55.9-1.3.55-2.85L28.5 128q1.6.9 2 2.65.35 1.55-.55 2.8"/><path fill="#0d131a" d="M65.55 48.1q2.4 12.55-4.75 22.7Q53.65 80.95 40.15 84q-14.4 3.2-25.85-3.75Q3.35 73.6.6 61.35q-2.45-11.2 4.1-21.5 7.4-11.5 22.55-14.7 13.9-2.9 25.25 4.35 10.8 6.9 13.05 18.6"/><path fill="#e3c582" d="M50.9 30.55q10.55 6.5 12.8 18.2 2.2 11.65-5.15 21.65-7.4 9.95-20.05 12.4-12.65 2.45-23.25-4.1Q4.7 72.15 2.45 60.5.2 48.85 7.6 38.85q7.35-9.95 20.05-12.4 12.7-2.45 23.25 4.1"/><path fill="#bfa56f" d="M48.45 29.2q5.95 2.95 9.9 7.95 4.1 5.15 5.35 11.6 2.2 11.65-5.15 21.65-7.4 9.95-20.05 12.4-7.65 1.45-15-.5-7.1-1.95-12.4-6.7 9.8 4.9 20.85 2.75Q44.6 75.9 52 65.95q7.35-10 5.1-21.65-1.7-8.95-8.65-15.1"/><path fill="#0d131a" d="M18 61.8q-.85-4.45 2.6-9.05 3.9-5.05 10.7-6.35 6.6-1.3 12.1 1.65 5.3 2.9 6.2 7.8.95 5.05-2.75 9.6-3.9 4.65-10.6 5.95-5.6 1.05-10.9-1.15-6.25-2.6-7.35-8.45"/><path fill="#e8528d" d="M35.95 70.05q-5.85 1.15-10.6-1.35t-5.65-7.1q-.9-4.65 2.6-8.7 3.5-4.05 9.35-5.2 5.85-1.1 10.6 1.35 4.75 2.5 5.65 7.1.85 4.65-2.6 8.7-3.5 4.1-9.35 5.2"/><path fill="#f3b3c9" d="M28.35 55.45q-1.55.75-2.9.6-1.2-.15-1.55-.75-.4-.85.4-1.95t2.2-1.8q1.5-.75 2.9-.6 1.25.15 1.6.85.4.9-.25 1.85-.75 1.05-2.4 1.8"/><path fill="#c9467c" d="M35.95 70.05l-7.8-.25q-3.6-1-5.9-3.4 4.45 1.85 9.6.9 5.85-1.1 9.35-5.2 3.45-4.05 2.6-8.7-.5-2.7-2.55-4.8 2.65 1.1 4.4 3.05 1.75 2 2.25 4.5.85 4.65-2.6 8.7-3.5 4.1-9.35 5.2"/><path fill="#0d131a" d="M46.55 45.75q-1.45.25-2.7-.55-1.25-.85-1.5-2.3-.3-1.45.55-2.7.85-1.25 2.3-1.5 1.45-.3 2.7.55 1.25.85 1.5 2.3.3 1.45-.55 2.7-.85 1.2-2.3 1.5"/><path fill="#fff" d="M45.05 42.45L44 42.2q-.5-.3-.6-.85-.05-.55.25-1.05l.85-.6q.6-.05 1.05.25.5.3.6.85l-.25 1.05-.85.6"/><path fill="#0d131a" d="M12.55 48.6q-.25-1.45.55-2.7.85-1.25 2.3-1.5 1.45-.3 2.7.55 1.25.85 1.55 2.3.25 1.45-.6 2.7-.8 1.2-2.25 1.5-1.45.3-2.7-.55-1.25-.85-1.55-2.3"/><path fill="#fff" d="M15.25 48.25l-1-.2q-.5-.35-.6-.9-.1-.55.2-1.05.35-.5.9-.6.55-.05 1.05.25.45.3.55.85.1.55-.2 1.05-.35.5-.9.6"/><path fill="#0d131a" d="M33.2 12l7.25 12.5q.8 1.55.8 2.5 0 1.05-.95 1.9-3.55 3.05-10.55 4.05-6.95 1-11.2-.85-1.4-.6-1.7-1.55-.3-.9 0-3.45.55-4.8 2.65-12.85 1.95-7.5 3.5-11.4 1.05-2.7 1.6-2.8.6-.1 2.3 2.15l6.3 9.8"/><path fill="#cad3cc" d="M24.15 3.6l.6-1.4q.3-.1 1.2 1.25 4.5 6.65 12.55 21.25.9 1.65.7 2.5-.2.85-1.75 1.8-3.15 2-8.05 2.7l-8.1-.25q-1.95-.5-2.45-1.05-.45-.55-.3-2 .4-3.8 1.95-10.75Q22.2 10 24.15 3.6"/><path fill="#a6ada8" d="M38.5 24.7q.9 1.65.7 2.5-.2.85-1.75 1.8-3.15 2-8.05 2.7l-8.1-.25q-1.95-.5-2.45-1.05-.45-.55-.3-2l.2-1.7q1.05 1.2 4.5 1.55 3.5.3 6.65-.65 8.45-2.65 4-11.1l4.6 8.2"/><path fill="#0d131a" d="M89.8 87.2q1.55.25 2.45 1.35.85.95.8 2.15-.05 1.3-1.4 2.1-1.25.75-2.75.45-1.4-.3-2.2-1.3-.65-.9-.6-1.9.05-1.4 1.35-2.25 1.2-.75 2.35-.6"/><path fill="#c9467c" d="M89.3 92.55q-1.1-.1-1.8-.9l-.25-.3q1.55.8 2.85-.2.7-.5.85-1.4.15-.85-.35-1.6l.85.65q.7.75.6 1.75-.1.95-.9 1.55-.8.6-1.85.45"/><path fill="#e8528d" d="M90.1 91.15q-1.3 1-2.85.2-.5-.75-.35-1.6.15-.9.85-1.4 1.35-.95 2.85-.2.5.75.35 1.6-.15.9-.85 1.4"/><path fill="#f3b3c9" d="M89.15 89.15l-.95.1q-.35-.35.3-.8l.5-.2.4.1q.35.35-.25.8"/></svg>