<svg xmlns="http://www.w3.org/2000/svg" width="476" height="470" viewBox="-1.0 -0.15 475.6 469.95"><path fill="#eeeeef" d="M176.45 110.45q.35.8-8.2 8.3-8.65 7.55-9.75 6.6l-23.05-15.8q-.65-.45-.15-1.9.55-1.4 1-1.45l5.05.2q3.1.25 3.35 0 .35-.35-13.65-16.25-13.7-15.55-15.1-16.8-.95-.9.45-1.5 1.25-.55 2.5-.35 5.2.7 19.5 9.95 7.15 4.6 13.45 9 .15-.1-.5-3.7l-1.1-5.2q-.45-1.9.3-3l3-.1q1.65 1 9.95 11.9 9.6 12.55 12.95 20.1"/><path fill="#0d131a" d="M144.95 107.6L141 107l-4-.2q-.45 0-.85.7-.45.75-.05 1.1 1.95 1.7 8.65 5.75 8.05 5.55 14.85 10.8 1.2.9 1.1 2-.1 1.05-1.4.15l-7.9-5.8-7.3-5.4-5-3.3-4.1-3.05q-.95-.85-.3-2.5.7-1.65 2.05-1.75l4.85.25 2.95.55q.75.35 1 .95.25.55-.6.35"/><path fill="#0d131a" d="M119.2 72.4q-.9-.25-1.65.3-.65.45-.45.85.85 1.35 5 5.75l6.2 6.65 10.25 11.4q6.35 7.05 7.2 9.25.65 1.6-.05 2.45-.5.6-1.5.65l-1.75-.05q-.55-.1-.5-.55l1.35-.35q1.15-.3.75-1.35-.4-1.2-7.6-9.6l-9.3-10.55-12.1-13.5q-.8-.95.6-2.1 1.35-1.2 2.95-1 8.6.95 33.05 18.35.8.9.85 2.4.05 1.5-.3 1.1-3.9-3.85-15.6-11.15-12.25-7.65-17.4-8.95"/><path fill="#0d131a" d="M174.95 110.9q-1.85-6.35-10.3-18-7.75-10.65-12-14.05-.35-.3-1.1.3-.8.6-.7 1.15l.7 3q1.15 5.25 1.4 8.3.15 1.55-.05 2.2-.25.8-1.25 1.05l-1.05-.05q-.75-.2-.8-.7 0-.25.95-.25.9-.4.5-2.75l-2.1-11.05q-.25-1.1 1.6-2.4 1.85-1.35 2.85-.6 6.95 5.35 14.4 16.65 6.7 10.2 8.85 17.15.6 1.95-.35 2.15-.9.2-1.55-2.1"/><path fill="#f0e78e" d="M257.05 212.5q.9 4.8-10.55 16.1l-11.4 10.85q.2.5 2.4-.35 3.15-.05 7.35 4 9.55 9.25 7.75 21.75-.1.8 2.15 3.25l3.25 3.65q4.45 6.45 6.15 18.7 1.85 13.55-1.5 24.15-.35 1.05.85 4.45.95 2.85 1.8 4.3 1.75 3.2 2.95 9.6 1.25 7 1.15 14.4-.35 19.15-9.3 28.35-2.45 2.55-2.65 4.4-.15 1.2.4 3.8.9 10.45-7.25 23.45-9.05 14.3-22.6 19.55-1.35.55-3.4 4.7-2.5 5.15-4.05 6.95-13.95 16.3-31.85 23-17.6 6.65-33.8 2.1-4.8-1.35-5.25-.8-1.4 1.85-3.4 2.5-11.55 3.75-26.1 2.5-15.3-1.3-23.6-7.5-2.5-1.85-3.65-2.2l-2.1-.1q-9.15.15-21.8-6.5-12.8-6.7-14.3-12.6-1.35-5.35 6.65-3.85 6.9 1.3 12.45 5l6.9 4.65q2.75 2.25 3.7 5.25 3.8-3.9 6.5-5.35 4.95-2.75 12.9-3l14.1.7q8.2 1.15 10.55 3.5 2.7-6.3 8.1-10.65 4.05-3.3 10.45-6 8.35-3.5 19.55-4 10.2-.4 14.45 1.7-2.75-7.6-2.45-14 .3-6.15 3.4-11.6 3.35-5.85 10.2-10.4 6.55-4.4 11.75-4.7-3-1.95-5.25-9.5-2.1-6.85-1.8-11.15l1.15-12.7q1.65-9.55 6.15-12.7-5.75-4-9.7-8.3-6.5-7.05-6.75-13.5-.25-6.85 1.85-14 1.8-6.05 4.45-9.85-4.85-3.85-8.4-7.9-6.45-7.4-6.7-13.5-.3-6.9 4.15-12.9 4.2-5.6 9.6-6.8-2.9-4.95-3.65-11.4-.8-6.65.8-13.45 3.5-14.65 18.5-17.45l11.75-.65 8.9.5 16.8-1.5q10.6-.7 11.3 3.05"/><path fill="#c9c279" d="M251.75 251.75q1.2 4.05 1.2 13.9 10.65 12.95 11.55 32.05.55 12.55-2.25 20.6 8.75 18.2 6.1 35.9-2.2 14.65-10.6 23.45.85 11.95-4.6 25.35-8.05 19.7-26.3 23.9l-4.2 6.9q-4.8 10.05-20.05 19.6-13.9 8.65-25.15 10.6-15.45 2.65-27.25-1.55-9.75-3.5-15.1-10.75 6.9 3.05 17.5 2.2 9.75-.8 19.3-4.5 9.5-3.7 14.5-8.65 5.45-5.35 3.35-10.3 6.55-.15 15-3.6 8.8-3.65 15.3-9.15 7.25-6.2 9.15-12.95 2.2-7.75-3.3-15 14-.3 20.35-15.2 6-14.1 1.85-31.9-7.5 2.75-20.35 2.75-15.6.05-23.6-5.25l12.3 1q9.15.9 12.15-.95 16.35-7.75 19.15-25.45 1.1-6.95-.25-13.95-1.25-6.35-4-10.35l-.8-1-3.05.05q-9.55 5.3-22.25 7.45-13.15 2.15-19.6-.85l18.25-3.7q12.3-2.75 15.35-5.2 3.3-1.2 4.45-5.4 1.1-4.1-.2-9.3-3.15-12.55-15.2-18.4-11.25 2.85-17.45 3.25-7.25.45-14.15-1.75-.8-2 9.65-4.15 10.85-2.25 11-2.95.3-.15 12.9-6 13.35-5.35 18.15-3.2 8.7 3.95 11.2 12.45"/><path fill="#c9c279" d="M95.3 459.65L92.7 457q-.6-.7.4 0 7.6 4.9 23.35 4.6 15.4-.35 22.15-5.05 1.55-1.05 4.15 1.05 4.45 3.65 8.15 5.3-3.5 2.55-11.35 3.85l-16.4.95q-20.95-.75-27.85-8.05m-3.25-1.6q-8.15 0-21.55-6.7-13.35-6.7-12.25-10.05 3.2 2.95 13 6.65 9.1 3.4 14.6 4.2 1.6.25 4.7 3.05 3.05 2.85 1.5 2.85"/><path fill="#eeeeef" d="M65.55 184.55q1.55 1.85 2 1.1l1.35-2.75q1.2-2.4 1.45-2.35l2.2 2.9q1.95 2.75 2.15 2.6l3.7-4.7q3.1 6.15 3.75 6.45l2.3-2.1q1.95-2 2.1-.7 1.55 12.85-6.5 30.2Q73 230.3 64.3 238.5q-1.45 1.35-2.35-.3-.85-1.6-.1-3.4 4.45-11 4.6-26.55.15-11.9-2.05-22.35-.25-1.25.2-1.6.45-.35.95.25"/><path fill="#0d131a" d="M84.45 177.3q-.2-3.05 1.85-3.05 2 0 2.3 3.2 1.3 14.25-4.6 33.7-6.3 20.75-16.35 30.7-2 4.2-4.15 5.85-2.25 1.75-4.2.35-1.45-1.05-1.9-2.7-.55-1.85-.15-5.25.65-5.25 1.2-5.65.45-.3 1.95-.8 1.45-.4 2.8-1.55 9.5-7.85 16.05-26.3 5.85-16.7 5.2-28.5"/><path fill="#0d131a" d="M60.25 187.05l-1.35 2-1.7.1q-.8-.5-1.25-2.55-.45-2.1.25-1.4.4.4 1.1.55l.8-.05 1.15-2.2.95-2.45q.25-1.05 1.15-.65.7.35 2.6 1.85l2.7 2q3.15-4.85 3.65-5 .25-.1 2.35 2.65l2.2 2.7 1.55-2.4q1.45-2.35 1.8-2.25.35.1 2 3.3l1.8 3.45q.25.15 3.8-3.45.55-.45.35.85-.15 1.25-.6 1.65l-1.65 1.9q-1.45 1.6-2 1.45-.45-.15-2.15-3.5-1.65-3.1-1.75-2.75l-1.35 2.25-1.7 2.35q-.25.2-2.15-2.4-1.95-2.7-2.35-2.6-.4.1-1.9 2.45-1.4 2.2-1.6 2.05L64.6 185l-2.35-1.85q-.15-.1-.45.7l-.5 1.3-1.05 1.9"/><path fill="#00b8ee" d="M85.65 178q.05-1.95.6-2.05.55-.1.8 1.9 1.6 12.85-4.9 33.3-6.55 20.8-14.95 28.05l-1.45 2.5q-1.25 2.5-2.1 3.45-1.4 1.45-2.9.35-2.25-1.7-.5-7.2.55-1.8 1-2.35.1-.15 1.4-1l2.65-2.1q8.3-8.05 14.1-22.95 6.15-15.9 6.25-31.9"/><path fill="#00b8ee" d="M227.5 140q4.2 15.15 5.05 29.7.85 14.85-2.2 22.2-5.9 14.4-20.25 36.55-13.95 21.45-18.95 24.65-14.1 8.9-11.9 21.85 2 11.7 14.95 19.4.3.15-.1.6l-.95 1.05q-2.7 3.25-4.25 8.8-1.75 6.1-1.25 12.2 1.3 15.7 15.9 22l1 .45q.5.4-.4.7-3.35 1.2-5.4 6.8-1.9 5.2-2.15 12.55-.5 16.9 6.25 26.05.25.3-.25.85-.45.6-1.1.7-12.8 2.4-19.4 14.25-6.3 11.3-2.3 21.6.55 1.4-1.2 2.3-1.45.75-2.55.6-13.7-1.9-27 2.95-13.75 5.05-19.35 14.65l-.85 1.05q-.7.45-2.05.55-1.7-1.6-6.95-2.6l-11.7-.8q-16.1.5-23.1 7.5l-1.8-2-1.25-1.4q-6.85-7.1-15.85-9.85-9.15-2.85-12.3 1.4-1.95-2.45-3.35-6.15-11-2.35-20.25-13.95-8.6-10.8-8.6-19.55Q15.9 394.6 10 379q-5.85-15.5-4.2-22.5-5.4-5.75-4.1-22.95.55-7.05 2.15-12.8 1.6-5.9 3.6-7.7Q2.5 288.5 19.5 271.4q.3-12.5 5.65-21.1 3.3-5.3 9.5-9.95 5.2-1.05 8.35-.7 4.65-8.9 5.3-21.3l.55-10.25q.3-8.45-.3-15.25-.65-8.15-2.6-15.55-.85-3.05-2.3-6.95-.9-2.45-.65-2.3-.15-1.2 2.05.75 2.45 2.15 2.6 1.85.15-.25-1.4-6.05-1.45-5.55-.7-5.6 3.7-.2 8.95 10.85.5-4.05.9-4.25.3-.15 2.3 3 2.2 3.5 3.85 7.2 2.95 6.45 4.1 17 1.35 11.75.05 25.7-1.3 15.15-7.2 27.45.9.9 2.9 4.4 2 3.85-1.1 15.7-3.55 13.3-10.6 18.7.3 6.7-1.35 13.7-1.8 7.4-4.85 10.85 3.3 2.6 4.85 13.1 1.5 10.1.05 16.05 3.7 1.4 7.8 7.8 4.65 7.35 4.4 14.35 4.05 0 12 6.35 8.85 7.05 10.8 14.1 3.4-.85 10.8 1.7 8.05 2.75 11.65 6.95 6.4-1.9 12.35-1.8l10.6 1.2q4.4-4.8 14.05-9.1 6.8-3.05 12.25-4.45-.35-3.45 4.9-11.5 5.3-8.1 9.2-10.05-1.85-4.75-2-16.9-.15-13.4 3.05-16.25-6.4-10.15-9.45-16.45-7.5-15.65-7.5-27.5-1.55-1.8-2.7-8.5-1.3-7.6-2.15-9.45-7-10.25-10.35-24.8-3.05-13.2-2.55-27.25.45-13.45 4-23.55 3.65-10.45 9.35-13.75l.25-10.95q.25-6.4 1.15-11.4 3.75-20.3 21.85-34.95 7.45-6.05 15.25-9.2 7.6-3.05 12.9-2.4 8.6 1.1 16.1 12.75 6.65 10.3 11.1 26.55"/><path fill="#f0e78e" d="M161.2 276.2q-4.2-1.1-7-4.8-3.2-4.1-5-13.25-2.3-12.1 3.2-18.85 1.05-1.25 9.8 4.15 8.8 5.35 6.9 7.35-3.2 3.35-4 10.45-.65 5.3.05 13.25.25 2.75-3.95 1.7m3.8 11.15q.95-2.7 7.8.35 6.95 3.05 5.25 4.55-1.75 1.5-1.5 9.4.3 8.75 3.25 16.55.3.8-1.85 1.2l-3.4-.2q-4.55-2-8.4-11.4-4.45-10.95-1.15-20.45m11.05 39.75q1.65-.05 4.9 2.55l7.05 5.75q-1.85 2.15-2.6 10.75l-1.15 13.95q-.25 2-2.45 1.1-2.3-.9-4.4-4.15-2.5-3.8-3.3-13.9-.85-10.9 1.95-16.05m-2.8 34.05q1.3-.7 4.8 4.75 4.75 7.45 8.45 10.7-3.15 1.15-9.8 8.35-7 7.7-8.75 8.65-2.3 1.3-3.85-.55-1.45-1.65-2.15-5.7-.8-4.6 2.45-13.55 3.65-9.95 8.85-12.65m-14.25 42q2.75 6.85 2.45 7-3 1.5-12.25 2.7-11.5 1.45-17.95-.65-1.55-.5-2.2-1.85-.8-1.65-.1-4.15 1.1-3.65 8.25-9.4 8.6-6.85 17.2-7.9 1.2 5.6 4.6 14.25M120.5 402q-1 5.85-1.3 9.55-.55 6.75.25 13-25.4-2.55-27.55-4.6-1.85-1.75-2.15-3.25-.35-1.95 1.5-4.75 2.7-4.1 12.85-7.45 9.9-3.3 16.4-2.5m-40.25 11.4q-2.7 5.8-3.05 11.5-4.1-1.25-9.95-6.2-5.85-5-7-8.15-.7-1.95-.7-2.65.05-1.75 1.85-3l10.5.35q8.25 1.65 10.3 3.4.2.2-1.95 4.75m-46.45-30q2.6.25 9.8 5.75 6.75 5.05 8.3 7.25l-2.7 7.25q-2 5.5-2.65 9.2-7.7-4.9-12.75-14.35-4-7.5-3.7-10.65.2-2.25 1.4-3.5 1.05-1.05 2.3-.95m-12.05 4.65q-3.4-1.4-7.6-14.3-4.25-13.05-1.9-15.85 2-2.35 7.6 4.8 5.3 6.8 6.55 12.05-2.35 4.55-3 6.2-1.3 3.3-1.65 7.1M12.8 343.9Q8.75 348.3 7 351q-2.05-4.45-1.3-16.1.7-11 2.25-12.65l2.15-2.2q1.05-.75 1.8.4t2.4 9.75l1.6 9.55q.05.75-3.1 4.15m2.45-67.3q.3-.3.9 1.55 1.35 4.3.9 15.4-.45 10.2-1.15 11.2l-4.5 4.6q-3.9 3.75-4.05 3.15-1.65-6.1.2-17.4 2.15-13.15 7.7-18.5m11.65-30.15q.9-.65 1.35.5 1.8 4.5-1.1 13.45-2.1 6.5-3.65 8.75-.45.6-2.2 1.2l-1.9.1q-.8-3.35 1.9-12.3 2.45-8.25 4.1-10.1l1.5-1.6m131.95-9.25q-3.85-1.3-6.5-5.2-3.2-4.75-3.55-20.95-.4-17.3 4.25-22.3 1.8 3.05 8.95 12.75 6 8.6 4.9 10.1-1.5 2.05-1.6 13.15-.05 10.9-.85 11.7-1.85 2-5.6.75"/><path fill="#eeeeef" d="M30.65 176q.45.05 1.95 2.8 1.5 2.65 1.7 2.6l2.45-3.6q2.2-3.4 2.45-3 3.6 7.9 3.9 7.5l1.4-3.15q1.35-2.6 2.1-1.1.8 1.55 1.55 10.4l1.05 14.85q.4 5.7-1.25 16.15-1.55 9.85-2.65 11.2-.9 1.1-2.95-.25-1.95-1.35-2.1-2.7-.15-1.05-2.15-2.6l-4.3-3.05q-3.7-2.7-9.5-19.35-5.65-16.15-5.35-21.65.05-1.35 1.4-2.6 1.15-1.1 1.85-1.15.4 0 1.95 2.8l1.9 3.1q.3.15 2.25-3.5 1.95-3.75 2.35-3.7"/><path fill="#0d131a" d="M57.6 244q3.7 2.8 4.45 5.8 2.4 9.35-1.7 20.65-3.9 10.7-9.9 14.15-1.55.9-.3-2.25 5.6-4.85 8.5-14.65 3-10.1.6-17.25-2.1-6.25-11.4-8.75-8.8-2.3-13.75.7-5.15 3.15-8.7 9.65-4.45 8-4.85 18.9-.05.75-.9 1.65-.9.95-.95-.45-.3-7.55 1.75-14.6 2.95-10.15 10.3-16 6.8-5.4 18.45-1.8 4.85 1.55 8.4 4.25"/><path fill="#0d131a" d="M33.85 267.35Q44.4 268.6 48.8 278.2q3.15 6.9 1.3 17.1-1.7 9.45-6.2 15-.55.75-1-.45-.4-1.2-.1-1.7 4.15-7.35 5.25-15.25 1.2-8.6-1.75-15.05-2.95-6.45-12.4-7.85-9.85-1.5-15.7 4.9-6.5 7.05-9.15 17.25-2.7 10.25-.4 19.65.3 1.25-.75 1.65-1.05.4-1.25-.25-2.45-7.6-.75-18.35 2.05-13 9.55-20.65 7.85-8.1 18.4-6.85m15.75-106.7q3.75 3.6 4.7 7.35-.15-3.7 1.3-3.25 1 .35 2.25 2.3 8.55 12.9 9.3 34.6.8 22.9-7.75 44.75-.5 1.25-1.5.1-1-1.2-.6-2.35 8.3-21.7 7.45-44.9-.85-21.75-8.85-32.15-.6-.8-.7 4.45 0 .65-.3.65t-.55-.65q-1.25-3.45-2.6-5.65-1.55-2.55-3.95-4.75l-1.15-.8-.7-.05 1.15 4.75q1.3 5 1.25 6.7 0 1.25-.45.7l-3.35-3.2q-1.05-.6-.1 1.35 4.3 9.45 5.25 28.5 1.05 22.35-4.8 37.5-.5 1.3-2 1.2-1.45-.1-.8-1.4 5.55-10.6 6.1-31.4.55-21.75-5.3-34.35-1.7-3.65-.5-4.05 1.2-.45 3.95 2.4.4 0-.9-4.75-1.35-4.9-.95-5.45 1.35-1.75 5.1 1.85"/><path fill="#0d131a" d="M18.95 179.7q1.2-2.75 2.45-4.1l.45-.35q.3.05.85.95l3.05 5.4 1.45-2.7 2.2-4.45q.6-1.05.95-1.05.4.05 1.1 1.35l1.7 3.25 1.25 2.1 1.95-3.1q1.85-3.2 2.35-3.5.5-.35 2.2 3.55l1.9 4.2 1.65-3q1.45-2.95 1.7-1.95l.4 1.8-.85 1.75-1.8 2.8q-.95 1.4-1.65 1.05-.3-.15-1.85-3.35l-1.6-3.25q-.2-.1-1.65 2.15L35 182.5l-.65.6-.65-.75q-3.05-5.5-3.35-5.3l-2 3.2-2.25 3.95q-.4.75-.8.15-3.4-5.7-3.75-5.8-.45-.15-2.45 3.4-.45.7-.45-.4-.05-1.1.3-1.85"/><path fill="#0d131a" d="M14.3 177q-.45-5.55 1.8-5.05 2.2.55 3 6.2 1.55 10.95 6.5 22.2 4.8 11 13.8 24.6 5.7 2.55 7.3 7.65 1.6 5-2.25 7.55-1.9 1.2-4.2-.05-2.85-1.65-4.55-6.7-8.65-12-14.05-25.65-6.05-15.2-7.35-30.75"/><path fill="#00b8ee" d="M15.6 177.2q-.45-3.85.45-3.35t1.4 3.55q4.2 25.65 21.6 49.35 2.35 1 4.2 3.5 1.7 2.2 2.1 4.2.4 1.6-.65 2.9-1.05 1.35-2.7 1-.8-.15-2.25-1.6-1.9-1.95-2.3-4.4-9.85-13.85-14.8-26.15-5.15-12.75-7.05-29"/><path fill="#0d131a" d="M208.45 99.7q3.3.1 0 .7l-7.65 1.3q-19.1 3.85-31.6 15.3-12.7 11.65-17.05 29.85-3.75 15.7-.1 31.8 4.7 20.7 20.8 32.95 2.55 1.95 3.05 3.8.5 1.9-5.05-2.2-14.15-10.4-20.1-29.55-5.6-18-1.9-36.3 3.9-19.65 19.75-33.4Q185.85 99 208.45 99.7"/><path fill="#0d131a" d="M138.85 182.65q3.75-10.1 9.65-15.15 1.6-1.35 1.5.75-.1 2.05-1.15 3.25-4.5 5.05-7.45 14.45-2.75 8.75-3.55 19.5-.95 13.15 1.15 24.45 2.25 12.05 7.2 17.55 9.7 10.7 30.05 8.65 14.2-1.45 37.65-10.1 3-1.1 5.15-1.15 2.45-.1-1.35 2.05-18.45 10.55-40.85 11.95-23.55 1.5-32.8-8.95-5.55-6.3-8.15-19.05-2.4-11.9-1.6-25.55.8-12.6 4.55-22.65"/><path fill="#0d131a" d="M140.35 243.3q1.6.05 2.4 4.1 1.4 7.05 3.45 12.8 2.1 6 4.45 9.15 7.45 10.05 21.65 17.2 16.8 8.4 33.3 6.65 20.6-2.2 34.05-11.9 13.35-9.65 11.45-20.85-.65-3.7.6-5.65 1.2-1.85 1.9 6.75 1.35 16.75-20.1 26.4-12.45 5.6-26.75 7.2-22.1 2.35-40.65-8.1-12.7-7.15-17.75-15.2-2.65-4.15-4.9-10.25-2.2-6.05-3.6-12.95-1.15-5.4.5-5.35"/><path fill="#0d131a" d="M152.1 274.5q-.05-.75 1.35.75 1.35 1.5 1.5 2.6 1.45 11.7 6.1 22.75 4.25 10.15 10.7 18.65 6.2 8.25 19.55 14.4 16.65 7.7 33.85 5.65 16.5-2 26.4-10.95 8.7-7.9 11.3-20.05 2.3-10.95-.8-22.45-2.95-11.1-9.65-18.2-.55-.55-.25-2.2.35-1.65.65-1.4 7.35 6.5 11.15 18.7 3.95 12.7 1.85 25.05-2.35 13.9-12 22.65-11.15 10.15-30.45 11.6-15.45 1.15-29.4-4-14.85-5.45-23.6-16.55-6.95-8.7-11.9-20.7-5.7-13.7-6.35-26.3"/><path fill="#0d131a" d="M165.85 332.95q.65-8.25 4.15-14 .4-.7 1.1.7.7 1.35.5 1.85-2.2 4.85-2.85 11.35-.9 8.55 1.6 16.3 5.25 16.15 17.35 26.15 10.7 8.8 25.1 11.55 13.15 2.5 25.7-.65 12.35-3.1 19.25-10.5 9.25-9.95 10.1-26.35.8-15.4-5.85-29.45-.4-.9.1-2.35.5-1.5.85-.9 9.1 16.2 7.4 34.35-1.5 16.2-10.25 26.25-7.3 8.5-20.85 11.75-13.35 3.2-27.7.15-15.3-3.3-26.6-12.85-12.6-10.7-17.45-27.2-2.35-7.95-1.65-16.15"/><path fill="#0d131a" d="M153.8 377.4q.7-7.25 5.05-14.4t10.6-11.2q.9-.6 1.2.4.3 1.05-.35 1.6-5.55 4.55-9.4 11.15-4 6.8-4.35 12.8-1 16.3 5.65 28.8 7.35 13.9 22.75 20.2 9.65 3.95 21.7 3.45 12.7-.55 23.5-5.85 12-5.9 18.8-16.5 7.65-12 7.55-28.55 0-.95 1.3-1.95 1.25-.95 1.25-.15.15 17.65-7.25 30.65-6.75 11.8-18.85 18.4-11.25 6.15-24.95 6.65-13.35.55-25.55-4.45-13.65-5.6-21.6-18.55-8.7-14.25-7.05-32.5"/><path fill="#0d131a" d="M154.6 377.35q-7.1.3-16.05 6.05-10.75 7-15.1 17.45-5.8 13.9-.55 30.1 5.8 17.95 22.8 27.95 7.15 4.2 18.3 4.35 11.05.15 22.65-3.65 12.25-4 21.7-11.35 10.4-8 15.45-18.6.5-1.2 2.35-2.8 1.9-1.6.5 2.3-3.7 10.4-12.85 18.9-8.75 8.1-20.6 12.95-11.85 4.8-24.15 5.2-12.85.4-23.5-4.25-6.5-2.85-12.55-8.95-6.25-6.4-10.25-14.65-9.45-19.6-1.8-38.95 7.75-19.6 34.45-25.2.7-.15.15 1.5-.55 1.65-.95 1.65"/><path fill="#0d131a" d="M129.3 388.45q1.5.45-.05 1.25t-3 .4q-9.25-2.35-18.75.55-9 2.75-16.1 9.5-7.1 6.8-10.25 15.75-3.3 9.55-1.25 19.35 4.65 22.05 29.05 28.95 10.1 2.85 21.25 2.1 10.75-.65 19.2-4.35l2.35.2q1.7.4 1.1.75-7.9 4.3-19.05 5.55-11.7 1.35-22.75-1.25-12.25-2.85-20.7-9.9-9.6-8-13-20.5-2.5-9.2.35-19.4 2.8-10.05 9.9-17.8 7.55-8.15 17.8-11.25 11.35-3.45 23.9.1"/><path fill="#0d131a" d="M103.8 388.8q-7.05-5.35-17-6.4-9.8-1-17.85 2.6-14.35 6.3-18.6 21.05-3.85 13.3 1.9 26.55 4.1 9.4 16.85 16.6 11.5 6.5 22.8 7.6 1.35.2 2.75 1.2 1.45 1.05-.4 1-12.5-.45-24.45-6.35-13.3-6.65-19.3-17.2-3.45-6.1-4.35-13.95-.9-7.85 1.05-15.45 4.5-17.55 20.3-23.55 10.6-4 21.05-2.5 10.7 1.55 18.05 8.4.6.55-.75.75-1.35.2-2.05-.35"/><path fill="#0d131a" d="M39.7 361.95q11.4-5.6 22.4-2.35 8.85 2.6 15.3 9.9 4.65 5.2 6.9 11.1.4 1-.65 1.2-1.05.25-1.6-1.1-3.2-7.35-10.1-13.05-6.1-5-11.65-6.2-9.8-2.15-19.35 2.8-9 4.7-13.9 13.5-7.55 13.65-1.05 28.9 6.5 15.3 23.8 23.9l1.75 1.7q.9 1.3-.2.9-17-6-25.7-21.05-9.55-16.55-1.95-33.95 4.7-10.7 16-16.2"/><path fill="#0d131a" d="M26.8 334.3q15.2-4 26 5.8 4.55 4.15 7 9.8 2.4 5.5 2.1 10.9-.05.7-1.2.25-1.15-.5-1.15-1.05.4-10.7-9.35-18.7-10.25-8.45-22.4-5-6.65 1.9-11.85 6.35Q7.8 349.7 7.1 360.7q-.5 7.25 4 18.15 4.45 10.75 10.3 16.95.55.6.85 1.95.25 1.4-.4.95-7.7-5.6-12.95-17.85-4.8-11.25-4.7-20.3.15-8.1 5.55-15.2 6.3-8.25 17.05-11.05"/><path fill="#0d131a" d="M47.25 337.5q1.6-7.95 0-15.8-1.55-7.65-5.4-12.05-6.35-7.35-15.65-6.85-10.05.55-17.45 10.55-4.7 6.4-5.85 17.4-1.3 12.35 2.9 24 .4 1.05 0 2.9-.4 1.8-.7 1.25Q-1 346.5.15 331.8q1.1-13.8 7.5-20.85 10.4-11.6 21.95-10.4 9.25.95 15.3 8.65 3.65 4.6 5.1 13.6 1.55 9.65-1 16.5-.25.6-1-.45-.8-1-.75-1.35m105.3-149.6q.8-.75 1.25-.2.4.55-.1 1.35-3.9 5.95-4.2 20.5-.35 14.35 3.05 21 3 5.85 7.7 6.25 1.9.2 3.15-.85t1.15-2.85q-.35-6.7.2-13.45.65-8.15 2.4-10.05 1-1.1 1.65-.5.6.6-.25 1.5-1.65 1.85-2.3 9.2-.55 6.3-.15 13.4.15 2.75-1.5 4.3-1.55 1.45-4 1.25-5.9-.4-9.35-7.4-3.55-7.1-3.45-22.8.15-16.4 4.75-20.65m18.25-40.65q2.05-12.55 8.95-23.6 7.1-11.5 18.05-19.15 12.8-8.95 26.75-10.05 11.3-.9 22.65 3.4l9.9 3.05q7.2 1.9 13.2 2.75 6.55.95 12.5-.9l5.6-1.75q3.85 1.1 6.55 9.2 2.85 8.45 1.3 16.1-.95 4.9 0 9.95 1.2 6.55.6 15.9-.75 12.2-4.55 22.85-10.65 29.9-40.8 37.3-20.7 5.1-43.85-1.95-6.75-2.05-15.55-5.85-8.1-3.45-9.75-3.85-5.5-1.4-9.05-1.7l-4.55-.3q-4-.5-8.65-6.5t-3.45-8.8l4.2-4.4q4.3-4.8 6.55-10.05 1.55-3.6 2.25-10.4l1.15-11.25"/><path fill="#00b8ee" d="M173.85 148.45q1.9-11.7 7.75-21.8 6-10.3 14.9-16.75 8.3-6.05 14.8-9.1 8.95-4.2 17.15-4.2 6.6 0 17.6 3.5 14.15 4.55 17.2 5.15 7.8 1.5 13.1 1.35 5.4-.2 9.9-2.25 3.2-1.45 6.35 6.85 3.2 8.45.65 14.1-4.05 8.9-2 14 1.65 4.05 1.15 12.05-.6 9.4-4.15 18.65-9.6 25.2-34.8 35.45-25 10.1-64.25-5-6.45-2.8-9.5-3.8-5.1-1.6-9.95-.65-2.15.4-7.05-5.2-5-5.7-2.75-7.3 8.25-6 11.3-18.05 1-3.9 1.7-9.45l.9-7.55"/><path fill="#0d131a" d="M194.2 252.05q3.1-.55 2.2.2l-2.6 1.25q-6.3 2.3-10 7.25-3.6 4.75-3.8 10.6-.25 6.1 3.15 11.65 3.7 6.05 10.95 10.25 1.7.95 1.35 1.4l-1.25-.05q-9.65-4.85-13.7-12.05-3.55-6.3-2.35-13.3 1.1-6.45 5.65-11.3 4.55-4.85 10.4-5.9"/><path fill="#0d131a" d="M192.95 294.5q.65-.7 1.3-.25.7.4.25 1.15-8.3 14.1-5.1 25.95 3.25 12.2 17.6 18.15 2.2.9 1.4 1.65l-2.45.05q-19.65-8.05-19.4-26.7.1-6.4 2.55-12.9 2-5.2 3.85-7.1"/><path fill="#0d131a" d="M203.85 340l.3 1q-5.85 5.8-6.4 19.5-.55 13.7 4.7 22.8 1.55 2.6 1.25 3.05-.35.5-3.15-2.55-5.2-5.75-5-21.45.2-16.4 6.9-22.4l1.4.05"/><path fill="#0d131a" d="M203.55 387.1q-6.2.6-11.65 4.7-5.1 3.85-8.4 9.9-3.3 6-3.85 12.35-.55 6.75 2.15 12.2.45.8-.65.4t-2-2.2q-2.1-4.3-1.7-10.45.45-6.15 3.25-12 6.75-14 20.65-15.9 4-.55 5.1.05 1.1.55-2.9.95m-24.85 38.5q3.25 1.4 2.9 1.85l-2.1-.25q-3.8-1.6-11.45-1.15-7.9.4-15.8 2.8-20.05 6.05-22 17.9-.2 1-.65.15-.5-.8-.5-1.85 0-5.1 5.8-9.9 5.25-4.35 13.85-7.4 8.25-2.9 16.4-3.55 8.55-.7 13.55 1.4"/><path fill="#0d131a" d="M90.95 443.9q5.35-2.25 12.7-3.25 18.05-2.45 25.1 4.6 1.95 1.95 1 2.1-.85.1-2.8-1.05-8.15-4.9-23.25-3.3-14.75 1.55-17.3 6.8-.35.7-1.15.45-.8-.25-.5-1.35.65-2.6 6.2-5"/><path fill="#0d131a" d="M85.55 449.75q1.25 1.95.55 1.85-.7-.1-1.7-1.6-5.05-7.55-16.2-12-11.25-4.5-13.75.3-.5.95-1.05.35-.6-.6-.45-1.4.5-2.8 4.45-3.3 3.75-.5 9.05 1.3 12.75 4.3 19.1 14.5m91.65-158.3q.45-1.45 1.15-1.05.7.45.2 1.65-2.45 5.9-.9 15.2.85 4.9 2.75 11.3.25 1-1.65 1.55-2 .55-4.05-.5-6.4-3.25-9.7-13.3-3.4-10.3-.6-19.35.3-.95.85-.75.55.25.2 1.2-3.55 9.25 1.7 21.25 2.25 5.1 5.25 7.9 3.15 2.95 6 2.15.7-.2.2-2.5l-1.5-5.9q-2.3-10.35.1-18.85m10.45 42.35q.5-1.1 1.2-.45.7.6.2 1.45-2.8 4.4-3.5 14.2l-1 11.8q-.5 1.5-3 .95-2.65-.6-4.1-3.25-4.3-7.9-4.35-18.3-.1-8.35 2.2-14.05.15-.45 1.05.15t.75.85q-4 6.1-2 19.85 2.05 13.95 7.55 13.75.9-.05 1.2-2.6l.3-6.45q.5-11.3 3.5-17.9M174 360.3q.25.8-.6 1.55-8.05 7.2-10.1 18.9-.8 4.55-.3 8.1.5 3.45 1.9 4.1 2.5 1.2 8.15-5.35 7.5-8.7 12.1-11.35 1.45-.8 2.5-.3 1 .5-1.2 1.45-3.05 1.35-9.25 7.75l-8 8.45q-2.3 2.25-4.7.9-2.45-1.35-3.05-5.6-1.5-11.2 4.4-20.65 2.65-4.2 7.05-8.05.85-.75 1.1.1m-35.65 34.85q7.7-5.4 15.85-7.05 1.5-.3 1.45.9-.05 1.2-1.2 1.3-9.7.85-18.45 8.6-3.55 3.1-5.3 6.1-1.8 3-1 4.5 2.2 4 15.2 2.8 10.7-1 16.55-3.3 1.8-.7 2.3.2.5.9-1.6 1.5-8.05 2.2-13.3 2.95-11.3 1.65-17.85-1.05-2.4-1-2.95-2.5-.5-1.45.4-3.9 2.1-5.6 9.9-11.05M119.9 403q-6.5-2-18.1 2.85-11.85 4.9-11.55 10.15.2 3.8 8.5 5.6l19.9 2.4q2.4.2 2.1.85-.3.65-2.2.75l-12.4-1.3q-11.15-1.6-14.4-3.45-3.4-1.9-2.75-5.45.55-3.15 3.65-5.6 6.25-4.95 15.15-7.25 7.85-2.05 12.9-1.1 1.8.35 1.1 1.15-.75.8-1.9.4m-38.25 6.1q-4.3-2.5-11.6-3.85-8.65-1.6-9.85 1.7-1.1 3.1 4.45 8.65 5.35 5.25 12.2 8.4.65.3.9 1.2.25.9-.95.4-5.75-2.55-10.9-7.3-5.3-4.8-6.6-8.95-.75-2.4.8-4 1.35-1.35 3.7-1.6l6.95.45q6.75 1.05 11.55 3.65.75.4.55 1.15-.2.7-1.2.1M34.7 383.2q2.05.2 7.5 4 5.85 4.1 10.05 8.6.7.75.45 1.2-.2.4-1.3-.5-8.65-7.6-11.35-9.45-5.8-4.05-8.35-2.2-3.15 2.25 1.8 12.1 5.15 10.3 13.35 15.1.7.4.65 1.35-.05 1-1.05.25-7.6-5.4-12.4-13.2-4.4-7.05-4.5-12.35-.05-2.75 1.4-4 1.3-1.15 3.75-.9m-21.55-13.8q3.05 11.8 8.6 17.8.45.45 0 1.1-.45.7-.85.2-4.15-4.9-7.25-14-3.2-9.45-2.4-15.45.2-1.65 1.2-2.2l2 .1q3.75 2.05 8.25 9.25 2.5 3.95 4.45 8.1.3.75.05 1.5-.2.75-.65-.1-8.7-17.75-13.3-17.75-3.05 0-.1 11.45m2.25-29.25l-2.15-12.8q-1.35-6.95-2.9-6.6-3.1.7-4.1 10.7-1.05 10.15 1.3 19 .2.8-.15 1.5-.35.65-.85-.65-2.7-6.7-1.5-18.95 1.2-12.7 5.55-12.9 2.4-.1 3.95 8.1l2 11.7q.45 1.7-.15 2.45-.55.7-1-1.55m12.3-94.7q2.7 1.4 2.05 7.65-.7 7-5.5 15.9-.45.85-1.1.65-.6-.2-.25-.8 2.6-4.2 4.5-11.55 2.15-8.25-.05-9.55-.55-.3-.4-1.45.15-1.2.75-.85"/><path fill="#eeeeef" d="M210.3 42.6q6.8 8.7 10.4 43.5 1.35 13.35 1.6 25.15.3 11.45-.6 14.5-.85 2.9-2.45 4.95-1.6 2.1-2.3.95-3.95-6.05-14.5-13-10.65-7-14.2-5.7-5.15-13.8-15.3-31.9Q165 66.8 159.9 59.8q-.9-1.25.35-2.2 1.15-.9 2.1-.7 3.85.7 8.9 4.45 4.35 3.3 4.5 3.15.85-.75-1.55-18.1-2.35-17.25-4.35-25.1-2.4-9.35-5.85-18.65-.4-1.25 3.1-1.6 3.6-.35 5.2 1.25 12.7 12.8 23.6 39.1l6.35 16.75q2.45 7.05 2.85 7.2 1.85.85 1.25-11.45-.65-12.45-.2-12.4l2.15.1q1.3.15 2 1"/><path fill="#0d131a" d="M211 41.2q3.85 6.1 6.9 20.1 2.9 13.3 4.05 28.65 1.2 15.9-.1 27.45-1.35 12.8-5.45 16.45-.65.55-.6.1.05-1.05-.35-1.65-4.7-7.3-14.2-13.1-9.05-5.55-13.65-4.7-.45.1-2.65-5.65l-4.2-10.5q-5-10.75-13.55-25.05-5.9-9.95-8.3-13.35-.95-1.4 1.05-2.95 2.05-1.7 4.75-.45l5.55 3.05 5.2 3.3q1.05 1.05.75 2.6-.25 1.55-1.35.45-2.45-2.5-6.3-5-3.8-2.45-6.1-3.05-.5-.15-1.05.35-.6.5-.35 1.05l7.9 12.65q7.95 12.4 13.15 23.3l2.4 5.45q1.8 4.2 5.05 10.55 9.2 1.85 19.45 10.55 5.15 4.35 8.45 8.3 3.85-12.85 1.1-44.4-2.7-31.4-8.5-42.5-.65-1.25-2.1-1.35-1.4-.05-1.35.75l.55 14.45q.3 10.05-.15 12.55-.55 3.25-2.1 3.8-1.2.45-1.9-1.55-.85-2.3.1-1.35.7.7 1.1.25.4-.45.65-2.35.7-5.6.3-15.5l-.6-11.05q-.05-1.75 2.7-1.95 2.8-.2 3.75 1.3"/><path fill="#0d131a" d="M171.85 3.15q-.55-.5-3.5-.7-3-.2-3.2.35-.2.45.35 1.65l1.1 2.25q4.1 9.85 8.3 33 4.2 23.5 2.5 28.35-.35 1-1.35 1.3l-2.2-.15-1.15-.4q-.7-.4-.6-.95.05-.25 1.5-.8 1.35-.45 1.3-1.85-.65-14.3-4.1-33.4-3.35-18.85-6.35-25.55l-1.4-3.35q-.3-1.2.4-2 1-1.05 4.6-.9 3.5.2 4.75 1.2 8.95 7.15 21.7 35 10.25 22.3 11.75 29.1.55 2.35-.3 4.3-.85 1.95-1.25.7-5-16.4-11.9-32.3-10.7-24.7-20.95-34.85"/><path fill="#00b8ee" d="M426.6 87.3q-21.3 9.05-55.1 40-14.2 13.05-24.85 24.9-10.85 12.15-13.85 18.55-1.1 2.3-3.95 2.6-2.65.25-5.4-1.25-2.85-1.5-4.05-3.95-1.35-2.75.15-5.55 9.65-18.1 52.5-51.2 16.15-12.5 31.2-22.5Q417.5 79.4 421.8 78q3.3-1.1 4.95-.4 1.25.5 1.7 2.1.65 2.2.55 3.95-.2 2.75-2.4 3.65"/><path fill="#eeeeef" d="M330.25 172.95q8.65-16.8 47.3-50.35 14.65-12.7 27.45-22.35 12.35-9.35 14.75-9.65-3 4.8-4.4 11.55-1.05 5.25-1.4 13.45-.25 6.7 2.2 15.1 2.35 8.1 5.45 12.05 2.1 2.7 1.75 6-.4 3.55-3.65 5.45-2.05 1.2-7.05 3.15-5.9 2.3-8.4 3.5-10.4 5.05-13.1 12.75-2.45 6.95-2.55 11.15-.2 6.2 4.15 8.8 3.25 1.95 4.65 5.15 1.25 2.95.55 5.85-.7 2.9-3.05 4.4-2.6 1.65-6.35.9-10.25-1.95-26.2-.4-21.85 2.15-28.25 11.25-6.55 9.3-10.15-.15-2.95-7.7-2.1-17.05.6-6.45 3.1-15.8 2.6-9.55 5.3-14.75"/><path fill="#c8c9ca" d="M373.05 126.9q15.35-13.85 28.45-24.05 13.8-10.75 18.75-12.4-3.5 5.1-5.3 15.25-1.35 7.4-1.35 13.55-15.05.25-48.9 27.6-13.6 11-24.25 21.8-10.7 10.85-13.05 16.15-.85 1.9 1.35-4.25l3.2-8.95q3.85-11.1 41.1-44.7m15.1 56.95q-14.6.3-33.25 12.25-7.3 4.65-12.75 9.65-5.25 4.75-6.35 7.5-.45 1.05-1.05.8-.55-.2-.95-1.45-1-3.05.45-6.4 7.05-16.2 27.3-28.7 17-10.6 39.4-16.4 2.3-.6 1.95.15l-1.35 1.35q-7.1 5.05-10.35 10.65-2.5 4.25-2.3 7.7l.15 2.1q-.05.75-.9.8"/><path fill="#0d131a" d="M427.6 87.95q-14.75 4.5-51.2 37.65-15.45 14.05-27.4 26.9-12.6 13.55-16.4 20.6-.8 1.5-1.6.6-.85-.85.4-3.3 8-15.75 44.1-47.5 15.5-13.65 29.3-23.75 14.55-10.65 22.05-13.55.9-.35 1.1-1.9.2-1.5-.35-3-1.55-4-5.25-2.15-5.9 3-20.8 13.4-15.45 10.85-31.35 23.2-41.2 32.2-45.3 43.2-.85 2.3-2.85 1.5-1.95-.75-.9-2.6 6.3-10.85 41.6-39.3 35.45-28.5 57.5-40.4 3.35-1.8 6.05-1 2.3.7 3.3 2.95 1.15 2.6.75 5.05-.5 2.75-2.75 3.4"/><path fill="#0d131a" d="M423.15 89.45q-8.95 10.8-8.6 27.35.25 15.1 7.25 23.65 1.8 2.2 2.3 4.25.5 1.8.2 4.55-.25 2-1.35 3.6l-2.7 2.7q-1.1 1-11.5 5.3-9.95 4.15-12.75 7.3-6.75 7.7-6.25 16 .4 6.85 4.35 9.2 3.75 2.25 5.1 5.75 1.2 3.2.1 6.4-1.1 3.15-4 4.8-3.1 1.8-7.15 1.05-16.65-3.1-32.7.1-14.45 2.85-18.5 8.15-2.15 2.85-4.6 3.05-2.35.15 2.35-5.1 6.7-7.4 27.8-9.3 16.8-1.55 26.9.4 5.3 1.05 7.05-4.5 1.8-5.6-3.2-8.8Q386.5 191 387 182.2q.45-7.9 5.9-14.05 5.25-5.85 14.35-9.4 9.65-3.7 11.6-5.55 2-1.95 2.5-4.95.55-3.25-1.1-5.25-8.35-10.25-7.85-29.25.25-8.3 2.45-14.75 2.35-6.75 6.2-9.4 1.6-1.05 2.3-1.3.95-.3-.2 1.15"/><path fill="#00b8ee" d="M82.1 268.35q.85-1.15 17.5-8.65 18.75-8.35 38.6-16 57.55-22.05 74.35-18.65 17.5 3.55 14.4 10.9-1.2 2.8-4.95 4.75-3.7 1.9-7.15 1.65-34.55-2.6-74.8 11.75-24.05 8.55-49.55 23.2-2.85 1.6-6.85-1.9-4.1-3.65-1.55-7.05"/><path fill="#eeeeef" d="M103.25 274.6q-4.7.2-5.9-.8-1.1-.95 1.2-2.4 7.65-4.8 23.3-10.95 15.8-6.2 33.3-11.25 42.8-12.3 59.45-8.1 10.65 2.7 29.7 10.5 21.6 8.9 12.85 9.4-9.45.55-23.7 17.55-13.45 16.05-15.95 27-.45 1.95-3.35 3.05-2.7 1.05-5.8.8-3.3-.25-5.7-3.75-1.5-2.15-3.15-6.6-1.15-3.15-5.45-5.6-4.35-2.45-10.95-3.55-6.15-1.1-14.4 3.65-7.45 4.25-11.3 9.7-2.45 3.55-7.15 3.3-5.4-.3-8.8-6.35-5.05-9-14.2-16.4-12.05-9.7-24-9.2"/><path fill="#c8c9ca" d="M120.75 280.5l-2.75-1.7q-3.6-2.55-9.15-3.95-4.4-1.15-7.65-1.15-2.35 0-2.3-1.45.1-1.45 2.05-2.35 25.4-12.15 57.3-21.45Q196.3 237.3 211 241.1q6.8 1.75 13.5 3.85 9.95 3.1 5.85 3.05-24.35-.3-60.6 11.4-35.05 11.3-45.35 21.7-.85.85-3.65-.6"/><path fill="#0d131a" d="M367.5 175.65q-18.8 9.95-28.05 22.35-1.7 2.15-2.6 2.15-1 0 .65-2.95 7.3-13.05 29.85-24.45 20.05-10.15 40.7-13.8 3.95-.7 1.35.65-2.4 1.25-4.8 1.9-20.75 5.45-37.1 14.15"/><path fill="#c8c9ca" d="M146.3 304.8q2.05-12.35 15.25-23.25 11.35-9.4 29.6-16.75 15.8-6.4 32.75-9.75 15.75-3.15 24.75-2.25-17.15 2.5-44.7 16.95-26.9 14.1-32.5 22.8-2.4.35-5.35 2.4l-3.8 2.95-7.8 7.05q-5.5 4-8.2-.15"/><path fill="#0d131a" d="M87.2 276q1.55.65 2.3 0 6.25-5.3 22.45-12.55 15.8-7.05 34.85-13.1 45.75-14.65 63.45-10.5 6.45 1.5 7.85 2.95 1.6 1.6-2.55.1-18.95-6.8-69.25 10.3-19.4 6.6-35.8 14.3-15.9 7.45-19.75 11.55-1.35 1.4-4.6 0-3.35-1.4-5.1-4.3-1.65-2.75-.65-5.35.95-2.35 4.15-4.75 2.4-1.8 17.3-8.15 16.65-7.1 34.9-13.7 51.25-18.55 71.85-17.85 3.55.1 3.45 1.85-.1 1.7-3.35 1.05-14.7-2.9-64.8 14.95-19.3 6.9-36.75 14.4-16.8 7.25-22.25 10.9-3.45 2.3-.4 5.9 1.2 1.35 2.7 2"/><path fill="#0d131a" d="M120.1 280.6q-13.75-7.35-28.6-4.35-.95.2.5-1.15l2.05-1.65q4.35-1.8 11.5-.5 6.95 1.2 14.4 4.95 17.4 8.7 23.05 21.95 1.4 3.25 4.9 4.05l4.6-.15q2.25-.75 5.05-2.95l5.05-4.3q7.1-5.8 15.2-7 8.15-1.15 15.5 2.55 7.25 3.6 8.8 9.45 1 3.75 6.25 5.65 5.35 1.9 6.95-1.2 7.05-13.8 14.5-24.2 13.2-18.4 23.8-20.2 4.8-.8 4.95.7.05.55-.7 1l-1.8.3q-8.35-1.3-22.05 17.25-8.1 10.95-15.5 24.8-3.65 6.85-11.25 4.3-2.95-1-5.2-3.15t-2.55-4.1q-.75-4.85-6-8-6.55-3.95-17.15-2.5-6.55.95-11 5.25-7.5 7.3-10.4 9.2-3.15 2-7.4.65-4.7-1.5-7.4-6.55-7.05-13.15-20.05-20.1"/><path fill="#0d131a" d="M152.9 292.5q-2.25 3.15-3.05 2.35-.85-.8.8-3.3 12.75-18.7 42.8-29.8 24.3-8.95 47.5-9.5 9.05-.2 6.3 1.05-2.9 1.3-7.2 1.05-4.2-.25-14.4 1.55-12.5 2.25-24.65 6.2-34.6 11.3-48.1 30.4m108.05-25.9q4.15-.4 6.6 3.45 2.4 3.85-1.1 4.7-3.8.9-6.65 5.35-3 4.6-3.45 10.65-1.2 15.25 13.15 25.4 19.8 13.95 30.8 32.1 9.9 16.25 11.5 33.7 1.45 16.2-4.35 29.75-5.75 13.3-16.7 20-16.9 10.4-28.65 5.05-9.15-4.2-11.85-15-1.55-6.35.6-7.35 2.1-1 3.75 3.8 2.95 8.65 10.4 11.25 8.45 2.95 18.85-4 9.35-6.25 13.85-18.3 4.55-12.2 2.65-26.5-2.1-15.4-11.2-29.3-10.15-15.45-27.55-26.7-9.4-6.05-13.85-16.05-3.9-8.85-3.15-18.75.7-9.35 5.15-15.85 4.6-6.75 11.2-7.4"/><path fill="#00b8ee" d="M262.25 267.1q3.2-.85 4.55 1.5 1.35 2.35-1.3 3.35-5.4 2-8.65 7.6-3.05 5.3-3.25 12.15-.25 7 2.5 13.2 2.95 6.7 8.7 10.6 38.1 26.05 43.65 61.65 2.2 14.25-1.55 27.25-3.45 11.9-10.65 19.1-14.55 14.55-28.6 12.4-6.2-1-10.4-5.3-4.2-4.4-5.35-11.15-.4-2.5.15-2.35.65.1 1.75 3.9 3.8 12.55 16.95 11.55 12.75-.95 22.65-13.1 5.1-6.3 7.9-16.05 3.35-11.8 1.65-24.2-4.5-33.15-42.25-58.9-7.1-4.85-10.65-13.4-3.2-7.8-2.7-16.55.5-8.6 4.35-14.9 4.1-6.65 10.55-8.35"/><path fill="#0d131a" d="M438.95 240.15q13.5 5.05 21.75 14.55 13.9 16.05 8.9 32.1-2.05 6.45-6.9 11.7-4.4 4.75-9.85 7.15-7.55 3.3-17.35 3.45-11.8.15-22.6-4.65-28.6-12.65-40.85-54.45-4.7-15.9-15.25-19.9-10.4-3.95-21.1 5.55-2.7 2.35-5.9-1.65-3.25-4.1-.45-7.1 5.6-6 13.55-8.4 8.05-2.4 16-.4 8.55 2.15 14.85 8.9 7 7.45 10.05 19.45 9.9 38.6 33.4 48.3 13.15 5.4 26.45 1.25 11.95-3.75 15.65-12.9 4.4-11.15-7.05-25.1-7.25-8.85-19.75-13.1-12.25-4.15-20.5-.95-5.15 2-6-.8-.85-2.8 4.35-4.45 13.25-4.25 28.6 1.45"/><path fill="#00b8ee" d="M442.55 243.25q10.9 5.35 16.3 12.05 13.65 16.9 7.8 31.85-4.2 10.7-14.85 15.95-7.75 3.8-17.75 3.7-11.35-.1-21.9-5.3-26.8-13.35-37.6-53.4-4.2-15.7-16.65-20.4-12.1-4.6-22.45 4.35-2.15 1.9-4-.6-1.85-2.45.7-4.6 6.25-5.15 14.05-6.35 7.4-1.15 14.65 1.55t12.5 8.6q5.55 6.25 7.6 14.75 9.75 40.65 34.35 51.25 13.8 5.95 28.65 1.8 16.1-4.55 18.3-17.75 1.95-11.95-7.7-23.85-6.45-7.95-18-12.55-12.5-5-22.95-2.55l-4.75.2q-.45-.85 3.85-2.1 14.35-4.15 29.85 3.4"/><path fill="#0d131a" d="M352.85 126.45q-13.35 18.2-16.05 22.8-7.9 13.4-4.95 20.25 4.1 9.45 5 10.3 1 1 4.4.8l5.55.35q1.85.7 3.35 5.95 1.35 4.85.9 5.9-1.4 3.25-5.4 10.05-3.75 6.35-5.35 10.5-5.2 13.55-.2 33.05l-62.35 40.5q-4.05-7.85-10.85-14.15-10-9.25-24.2-13.25-6.15-1.75-15.75.45-9.15 2.65-11.4 2.65-2 .05-6.2-4.55-3.8-4.15-4.3-5.7-.25-.7 4.2-3.75 4.5-3.1 4.25-4.1-.9-3.35-2.75-6.3-5.35-8.3-12.7-9.4-6.95-1.05-26.7 3.1-1.1.25-3.5-1.55-2.4-1.75-4.4-4.25-5.2-6.65-1.15-9.25 9.9-6.25 18.7-14.35 8.65-7.85 11.15-12.75 1.75-3.3 1.9-13.05.15-5.55-.35-15.55-.9-16.85 6.35-28.1 6.1-9.55 21.2-19.05 13.1-8.25 29.95-8.65 19.25-.45 33.3 10.5l10 8.2q5.65 4.3 9.3 4.7 6.25.6 21.8-6.4 8.15-3.7 19.1-9.05l3.5-.25q2.8 1.35 4.65 5.85 1.95 4.85 0 7.55"/><path fill="#00b8ee" d="M350.65 123.9l-12.2 18.2q-10.05 15.5-10.25 21.05-.1 3.7 1.65 9.9 1.65 5.8 3.3 8.45.85 1.4 4 1.7 2.3.25 8.15.05.95-.05 2.45 3.95 1.45 4 .6 5.1-10.35 13.95-13.15 25.85-2.95 12.6.4 31.1l-61.7 29.95q-5.25-6.9-11.15-11.9-5.4-4.55-12-8.15-4.6-2.55-12.75-3.95-3.9-.7-13.15 2l-8.65 2.85q-1.2 0-4.45-3.65-3.05-3.4-3.3-4.4-.1-.45 3.65-3 3.8-2.65 3.85-3.8.1-2.05-.7-4.2-1.05-2.95-2.8-5.7-1.75-2.75-3.75-4.45-5.65-4.95-14.6-4.9-5.7.05-22.35 3.2-.85.15-2.15-.75-2.85-1.9-4.65-5.4-1.95-3.85.2-4.85 6.35-2.95 16.35-12.35 7-6.55 12.45-12.85 1.3-1.5 1.9-5.45.65-3.95.25-7.7-.35-3.1 0-14.65l.4-10.95q.35-13.05 9.7-23.55 6.95-7.8 20.6-15.7 11-6.35 26.5-6.55 15.9-.25 24.7 6.3 4.8 3.55 13.1 11 7.3 5.7 13.95 5.85 6.25.15 22.85-7.5 17.4-8 17.9-8.05 1.3-.2 2.8 1.45 1.35 1.55 2 3.55.6 1.9.05 2.9"/><path fill="#00a0cf" d="M273.9 279.2q-5.25-6.9-11.15-11.9-5.4-4.55-12-8.15-4.6-2.55-12.75-3.95-5.6-1-21.2 4.65 11.6-10.7 28.75-8.25 19.05 2.7 41 21.45l-12.65 6.15m61.15-60.45q-2.75 12.4.55 30.5l-12.35 6q-.25-19.55 7.15-36.95 6.6-15.6 17-24.7-9.75 13.4-12.35 25.15"/><path fill="#0d131a" d="M279.65 150.85q3.6-6.5 6.05-4.3 8.45 7.65 9.05 19.05.55 10.45-5.2 15.1-4.05 3.3-9.3 3.25-3.7-.05-9.65-2-2.85-.95-.95-6.95l5.3-13.4q3.15-7.9 4.7-10.75m-71.6 36.55q-.15-1.25 7.95.1 7.3 1.25 11.05 2.5l10.1 3.6q6.55 2.75 6.15 4.7-.95 5.1-4 9.85-4.45 6.9-10.2 5.2-7.7-2.25-14.6-12.2-5.7-8.25-6.45-13.75m163.7 108.35q1.8 4.35.35 9.7-1.4 5.2-5.3 9.4-4.55 4.9-25.25 15.2-19.95 9.9-27.75 11.7-6.45 1.5-10.9-1.6-3-2.05-6.3-7.5-1.35-2.2-11.5-23.3-9.95-20.6-14.2-27.3-8.85-13.85-15.25-22.4-9.5-12.7-17.65-19.7-4.7-4.05-5.6-9.95-.8-5.05 1.3-8.65 2.1-3.5 5.3-5.15 3.9-1.95 10.95-2.15 5.8-.1 12.2-3.6l8.95-4.95q5.3-3.05 9.85-6.05 4.3-2.8 7.25-7.65 3.3-5.45 4.55-6.5 4.85-4.2 10.35-3.35 5.55.85 8.8 6.6 15.05 26.5 24.8 46.3 3.5 7.15 18.05 30.45 13.25 21.15 17 30.45"/><path fill="#f0e78e" d="M368.3 294.5q2 4.25.9 9.45-1.2 5.7-5.7 9.65-4.8 4.25-23.45 13.8-18.75 9.55-25.25 11.05-6.05 1.35-9.8-.4-3.1-1.45-5.7-5.75-1.25-2-12.15-24.45-10.75-22.1-14.6-28.1-6.5-10.2-16.4-23.25-10.55-13.95-14.35-16.85-5.05-3.85-6.4-9.55-1.15-4.95.85-8.05 1.95-3 6.45-4.3 3.6-1.05 8.25-.85 2.95.15 8.75-2.45l8.85-4.45q4.45-2.3 7.85-4.5 3.45-2.25 8-5.8 3.3-2.55 6.05-6.9 2.9-4.5 4.25-5.7 4.25-3.7 9.25-1.65 4.95 1.95 8.35 8.5l10.9 20q8.2 14.9 12 22.65 3.6 7.3 16.9 29.4 12.85 21.35 16.2 28.5"/><path fill="#0d131a" d="M349.9 270.65q10.95 20.7 13.65 29.3.55 1.7.15 3.85-.35 1.85-1.2 3.15-2.6 4-23.8 15.55-21.05 11.5-27.45 12.6l-3.9-.4q-1.8-.75-3-2.35-4.75-6.35-13.7-25.15-8.9-19.45-11.35-23.95-2.65-4.95-19-26.05-15.95-20.55-17.2-23.3-1.65-3.7 1.3-7.15 2.85-3.3 7.05-3.2 4.05.05 10.05-1.9 4.7-1.6 8.05-3.45 5.85-3.2 10.85-6.7 5.05-3.5 7.1-5.8 4.45-5.05 5.8-6.2 3.7-3.25 7.15-3.2 3.7.05 6.45 3.35 1.55 1.8 3.35 5.1 5.95 8.95 16 25.4l10.6 17.35q3.95 6.05 13.05 23.15"/><path fill="#fff" d="M212.2 190.05q-.15-.95 6.15.1 5.6 1 8.6 2 6.25 2.1 8.05 2.9 5.25 2.2 4.95 3.75-.8 4.55-2.75 8.1-3.15 5.8-7.75 4.45-5.8-1.65-11.65-9.95-5-7.1-5.6-11.35"/><path fill="#0d131a" d="M234.4 195.15q6.2 2.45 6.5 3 .4.7-1 5.85-1.4 5.25-2.35 4.7-4.55-2.55-7.05-6.5-2.6-4.15-2.35-9 .05-.55 6.25 1.95"/><path fill="#fff" d="M280.25 154.25q2.95-5.5 4.85-3.75 6.75 6.1 7.35 15.95.55 9.15-4 12.8-3.2 2.55-7.6 2.2-2.6-.25-7.9-2.05-2.3-.75-.8-5.55l4.3-10.7q2.55-6.55 3.8-8.9"/><path fill="#0d131a" d="M271.7 179.45q-1.2-.45 0-4.8.4-1.65 2.7-5.8 2.55-4.65 3.3-3.85 3.25 3.55 5.6 8.05 2.55 4.9 2.5 8.2-.05 2.25-14.1-1.8"/><path fill="#e4006e" d="M236.25 195.7q5.55 2.2 5.85 2.7.35.55-1.65 4.65-1.95 4.1-2.85 3.6-3.45-1.95-5.15-4.6-2.1-3.3-1.8-8.1 0-.5 5.6 1.75m43.15-13.45q-5-.05-7.4-2.05-.9-.7-.1-3.7.4-1.55 2.45-5.25 2.3-4.15 2.95-3.45 3 3.3 4.8 6.65 2.05 3.85 2 6.8 0 1-4.7 1"/><path fill="#0d131a" d="M236.65 196.7q.7.6 1.3 1.7l.8 1.95q.2.85-.1 1.05-.35.2-1-.45-.7-.6-1.3-1.65l-.8-1.95q-.2-.85.1-1.05.35-.2 1 .4m40.8-20.9l.9 2.3q.2 1.1-.25 1.4-.5.25-1.3-.45-.85-.7-1.6-1.95-.7-1.3-.9-2.35-.2-1.1.25-1.35.5-.25 1.35.45.85.7 1.55 1.95"/><path fill="#922f00" d="M316.65 221.3Q324 234.75 327.8 241q-8.3-3.95-16.9-.65-7.7 2.95-11.85 9.75-9.05.9-15.45 5.85-8.25 6.4-6.3 16.7-16.4-21.45-29.65-37.45-4.05-4.95-.6-7.25 2.5-1.65 8.7-1.85 7.05-.25 19-7.1 12.15-7 15.55-13 3.1-5.5 8.2-6.65 5.15-1.15 7.7 3.25l10.45 18.7"/><path fill="#ed8599" d="M346.15 272.05q12.45 22.15 12.9 29 .2 3.1-5.05 7.4-5.55 4.6-18 11.2-10.35 5.85-14.65 7.9Q314.2 331 310.8 330q-7.4-2.15-18.8-26.65-4.3-9.3-7.45-17.55-3.2-8.5-3.65-11.85-1-7.95 2.35-12.4 2.5-3.3 7.6-5.8 5.45-2.7 10.05-2.45 2.4-4.75 7.7-7.85 4.35-2.55 9.7-3.5 4.35-.75 8.75 2 3.5 2.2 5.65 5.5l13.45 22.6"/><path fill="#0d131a" d="M317.7 325.4q.95 5.35-3.95 7.2-4.9 1.75-8.65-2-3.15-3.1-5.55-9.45-2.65-6.9-.15-8.5 2.9-1.85 10.35 3.6 7.3 5.35 7.95 9.15m30.1-38q2.6-1.15 7.9 3.35 5.75 4.9 6.85 10.9.95 5.15-5.2 8.5-2.4 1.3-4.8 1.6-2.45.3-3.45-.7-2.15-2.15-2.85-12.3-.75-10.3 1.55-11.35"/><path fill="#fff" d="M314.35 325.25q-.1 3.95-3.3 5.15-3.2 1.15-5.9-1.55-2.25-2.2-3.8-7.35-1.7-5.5.25-6.5 1.55-.8 7.2 3.7 5.6 4.5 5.55 6.55m35.2-35.3q1.65-.15 5.55 3.85 4.15 4.25 3.95 7.25-.3 3.85-3.8 5.6-3.3 1.65-4.95 0-1.5-1.45-1.8-9-.3-7.55 1.05-7.7"/><path fill="#0d131a" d="M15.25 277.45l.3-1.75q.35.1.5.55l.35 1.5q1.6 5.2 1.5 15.5-.1 10-1.45 11.75l-1.3.1q.65-1.6 1-11.45.45-11.1-.85-15.2l-.5-1.15.45.15"/><path fill="#eeeeef" d="M48.55 281.1q-.3 4.2-3.95 12.95l1.2-.65 2.1-.15q.85.5.6 3.15-.2 2.4-1.1 5.35-1.1 3.65-7.15 13.6l1.4-.4q1.6-.35 2.3 0 1 .45.1 3.6-.9 3.05-2.95 6.55-5.25 9.1-9.4 7.85-3.15-.95-3.55-10-.35-8.4 1.7-17.35 1.45-6.5 6.75-15.25 4.9-8.1 8.55-11.05.7-.55 2.1.2 1.35.75 1.3 1.6"/><path fill="#0d131a" d="M45.5 292.55q1.45-1.1 3 .95 1.6 2.15.55 5-1.85 5-6.7 15.2-1.3 2.8-2.15 2.45h-.6q-.3.1-.35-.15 0-.5.15-.75 5.9-10.4 8.65-17.55.4-1-.35-2.5-.75-1.55-1.4-.95-3.4 3.2-6.2 7.2-3.45 4.75-4.2 4.25-.75-.55 2.65-5.3 4.05-5.65 6.95-7.85"/><path fill="#0d131a" d="M36.25 289.5l2.9-4.6q3.4-4.95 6.05-7.05 1.1-.9 2.8.6 1.75 1.55 1.4 3.4-.95 5.05-3.55 11.8l-1.15 1.85q-.95 1.3-1.45 1.1-.3-.1.15-1l.5-1.25q2.75-8.4 3.65-12.65.15-.6-.65-1.3-.75-.7-1.05-.4-1.6 1.5-3.8 4.45-2.25 2.95-3.8 5.65-3.65 6.4-5.65 10.9-2.65 6.05-3.25 10.7-.85 7 .2 13.25 1 5.55 2.55 6.55 2.6.8 6.25-3.05 3.35-3.45 5-7.75.55-1.5.5-3.05-.05-1.35-.5-2.1-.3-.4-1.7.3l-1.9 1.05q-4.8 2.9-5.5 2.25-.75-.6 4.25-3.75 4.7-2.95 6.4-1.75.55.45.75 2.55.2 2.45-.6 4.75-1.9 5.3-5.3 9.15-3.9 4.45-7.85 4.3-.6-.05-1.6-1.25-1.9-2.25-2.65-8.55-.7-6.35.15-13.25 1.15-9.2 8.45-21.85"/><path fill="#eeeeef" d="M77.4 306.4q2 1.1 2.05 1.65.15 7.35-3.65 25.9L72 351l2.35-4.45q2.5-4.45 3.35-4.5.7-.05 1.75 1.2 1.1 1.25 1.05 2.3-.1 6.85-4.45 18.7-5.1 13.95-11.65 20-.35.35-2.7-3.75-3.5-6.2-5.55-9.15-2.6-3.8-6.75-8-3.05-3.1-2.85-3.4 1.95-3.45 4.15-12.5 2.2-9.4 2.95-17.85.05-.9 1.2-1.45 1.2-.6 1.8 1.3 1.8 5.8 1.95 8.55.35-.8.85-9.9.6-10 .55-18.3 0-1.15 1.6-1.9t1.8.25q.7 2.95 2.7 8.45 1.95 5.45 2.15 5.05l6.7-15.45q.35-.9 2.45.2"/><path fill="#0d131a" d="M61.05 307.05q2.15-1.35 2.7.15l2.5 6.25 2.85 5.35q.5.75-.45 1.75t-1.2.5q-3.05-7.15-4.95-12.5l-1.05.05q-.85.65-.8 1.4.5 7.75-.1 17.05-.65 9.95-2.1 13-.6 1.2-1.35 1.3-.75.1-.15-1.9.95-3.05 1.65-12 .7-9.55.35-17.5-.1-1.55 2.1-2.9"/><path fill="#0d131a" d="M78.35 308.95Q78.4 307.7 77 307q-1.25-.65-1.5-.25l-4.2 9.2q-2.85 6.15-3.7 7.3-1.35 1.7-1.45.7-.15-.95.65-2.3l3.65-7.5L74 305.6q.65-1.75 3.55-.65t2.8 3.1q-.6 9.65-2 18.8l-3.4 18.7-2.2 4.15-1.95 2.85q3.15-12.3 4.8-21.05 2.3-12.25 2.75-22.55"/><path fill="#0d131a" d="M56.05 329.85q-.15-.45-.75-.35-.7.1-.8 1l-1.45 13.2q-1.2 8.2-4.35 16.8 4.1 3 9.2 10.45 4.75 6.85 6.25 11.3 6.15-5 10.8-19.55 3.15-9.9 4.05-17.5.1-.8-.55-1.6t-1.05-.15q-2.8 4.25-5.55 9.5-1.2 2.3-1.7 1.75-.55-.55.7-2.9l4.05-7.6q1.55-2.8 2.2-3.15.8-.35 2.2.9 1.45 1.35 1.6 2.9.55 6.35-4.15 20.2-5.15 15.05-11 20.3-.9.8-1.7.6-.7-.2-.95-1.1l-3.25-5.9q-3.1-5.25-4.7-7.3l-5.15-5.7-3.75-4q-.65-1.25-.05-2.6 3-7.6 4.8-16.7 1.15-5.75 2.1-13.9.15-1.15 1.75-1.6 1.55-.5 1.75.25l2.35 8.45q.3 1.3-.1 2.45-.4 1.2-.6.3-1-4.95-2.2-8.75m231.65-99.5q1.65-1.1 2.95-3.4 3.05-5.3 9.25-6.9 5.95-1.55 10.5 1.3 3.9 2.45 6.65 7.45 2.65 4.8 3.25 10.15-6.5-.5-12.55 2.9-5.55 3.1-8.7 8.25-6.15.6-11.55 3.35-6.65 3.45-9.15 8.9-3.5-3-6.05-7.25-2.75-4.6-3.45-9.25-.95-6.45 4.1-10.5 4.25-3.4 9.85-3.6 3-.1 4.9-1.4"/><path fill="#6a1a00" d="M309.7 224.15q3.35 2.1 5.8 6.25 2.3 3.95 3.1 8.5-6.05.05-11.55 3.35-5.1 3.05-8 7.85-5.55.55-10.65 2.9-6.15 2.9-9.1 7.55-2.8-2.75-4.8-6.3-2.1-3.9-2.7-7.7-.85-5.9 3.75-9.6 3.9-3.1 9-3.25 2.7-.1 4.45-1.3 1.55-1 2.7-3.1 2.75-4.85 8.45-6.3 5.45-1.4 9.55 1.15"/><path fill="#0d131a" d="M244.95 233.45q-1.15-4.85 3.95-7.55 4.7-2.5 8-.95 3.65 1.75 6.55 10.45 2.85 8.5 1.1 10.3-3.45 3.7-11.05-1.7-7.2-5.15-8.55-10.55"/><path fill="#fff" d="M246.85 232.6q-.8-3.2 2.75-5.2 3.35-1.95 6-.7 1.9.85 5.2 8.6 3.35 7.85 2.1 9.15-2.45 2.6-9-3-6.2-5.3-7.05-8.85"/><path fill="#0d131a" d="M291.05 204.25q.55-4.6 6.3-6.35 5.4-1.6 7.6.65 3.55 3.55 4.35 12.9.8 9.6-2.9 11-2.65 1-9.15-5.75-6.9-7.1-6.2-12.45"/><path fill="#fff" d="M293.15 204.75q.6-4.55 5-5.3 4-.75 6.3 1.55 2.1 2.15 2.85 9.95.75 8.1-1.7 9.05-1.75.7-7.25-5.9-5.55-6.65-5.2-9.35"/><path fill="#00b8ee" d="M177 189.45q11.65-10.35 17.1-16.75.1 13.15-1.95 17.05-2.05 4-8.45 10.25-6.45 6.3-14.5 12.15l-3.45-3.75q-1.95-2.3-2.95-4-.8-1.35-.8-1.8 0-1.1 1.95-2.3 2.75-1.65 13.05-10.85m156.65-81.6q1.3.15 3.35 9.05-11.45 5.65-17.5 8.05-10.7 4.3-15.7 3.8-2.55-.25-5.85-2.25-2.45-1.5-6.3-4.7 5.8-1.45 24.4-8 17.05-6 17.6-5.95"/><path fill="#0d131a" d="M194.65 171.4q.65 2.9.5 3.1-4.95 6.4-19 17.9l-13 10.2q-.25.7 2.7 3.8 3.15 3.4 5.95 4.75.4.2-.25 1.05l-.9.75q-3-1.5-6.3-4.95-3.35-3.55-3.45-5.4.05-.8 13.75-12.15 15.25-12.6 20-19.05m139.85-65.1q1.45.2 2.2 2.95.65 2.4 1.1 8.45.05.3-1.1 1.3-1.15.95-1.2.55l-1.25-7.7q-.5-2.75-1.1-3-6.85 2.85-15.65 6.1-17.65 6.45-27.6 8.4l-.4-1.05q-.35-1.1.05-1.15 9.05-1.75 27.5-8.7 16.55-6.25 17.45-6.15"/><path fill="#00568a" d="M312.15 75.5q3.25-2.9 6.45.1 3.15 3.05 1.45 7.7-1.25 3.45-9.6 18.55-11.1 19.85-17.1 30.95-23.55 43.35-23.45 52.7-4.1 11.95-7.95 15.2-2.65 2.25-7.3 1.1-23.8-6.45-47.85-12.1l-38.4-8.25q-19.95-4.3-22.95-6.6-2.15-1.65-2.25-5.3-.1-3.75 2.85-3.5l36.85-1.55q34.75-2.3 41.7-5.15 1.35-.55 1-2.25l-1.2-4.8q-.45-2.5-20.75-45.45l-20.75-44q-.55-1.75 2.65-3.75 3.25-2.05 4.45-.45l28.55 36.85q25.9 33 31.15 38.1l4.95 5.05q2.15 2.1 3.75 2.4 1.65.4 3.75-1.2 1.7-1.3 4-4.2l22.7-30.2q20.95-27.85 23.3-29.95"/><path fill="#00426f" d="M319.1 85.45q-6.3 13.45-26.45 50.35-18.85 34.55-19.2 35.5l-2.4 10.05q-2.45 9.55-5.25 15.15-2.2 4.4-7.15 5.55l-6.35-.2q-10.15-3.95-53.45-13.55-43.75-9.75-51.05-12.45-2.05-.75-3.4-2.7l-.9-1.85 45.15 7.75q44.1 7.8 46.55 7.8 1.25 0 10.35 3.3 7.7 2.75 10.3 1 4.6-3.05 5.8-11.15l.65-6q.35-3.1.95-4.25 12.45-23.35 34.1-58.35 20.5-33.15 22.2-33.65.75-.2 1 1.65.3 2.35-1.45 6.05"/><path fill="#00426f" d="M194.75 66.9q1-.7 1.6-.45.55.2.9 1.4.9 3 26.95 34.7 27.05 32.85 34.6 38.65.95.75-.15 1.15l-3.25.2q-5.7-.55-8.65-4-2.85-3.35-27.35-36.75-25.25-34.45-24.65-34.9"/><path fill="#0d131a" d="M307.5 79.4q2.3-3.25 5-4.95 3.15-1.95 5.5-.75 2.85 1.5 3.65 4.95.8 3.35-.75 6.6l-22.05 41.85-23.25 43.55q-.45.8-5.2 16.55-4.05 13.3-7.6 15.15-4.95 2.6-19.25-1.7-13.9-4.9-15.35-5.15l-38.25-8.1q-35.2-7.65-40.65-8.55-3.9-.6-5.9-4.05-1.75-3-1.45-6.65.25-2.75 4.65-3.55 3.4-.6 11.4-.25 16.55.7 39.45-1.7 16.9-1.85 28.4-4.15 1-.2.95 1.25-.1 1.4-1.3 1.65-11.5 2.65-30.3 4.25l-37.95 1.25h-8.5q-3.7.3-3.85 2.1-.2 2.5.9 3.95 1.6 2.15 6.7 3.5 6.2 1.65 31.75 6.9 28.4 5.85 45.4 9.95 4.95 1.2 17.1 5.15 10.5 2.9 14.35.9 3.85-1.95 6.9-13 4.1-14.8 4.95-16.6 8.9-18.05 27.25-51.9l18.75-34.35q.75-1.4.25-3.9-.55-2.75-2.3-3.6-1.65-.8-4 1-2.05 1.55-4.35 4.8l-13.8 19.2q-13.25 18.25-23.9 31.75-5 6.35-9.4 9-5.8 3.4-10.1.1-.9-.7-1.4-2.1-.55-1.4 1-.25 4.7 3.5 11.75-2.4 2.35-2 7.55-8.3l37.25-49.4"/><path fill="#0d131a" d="M189.05 60q-1.2-1.6-3.25.1-2 1.7-1.35 2.95l21.7 44.65q21.2 44.5 21.5 49.4l.7 12.1q.5 5 1.75 8.9.8 2.4 9.6 9.3 7.9 6.2 10.3 7.35 1.6.75 1.3 1.35-.3.6-2.35.25-2.25-.4-10.55-6.25-9-6.4-10.85-10-1.55-3-1.9-10.3l-.85-12.15q-1.15-7.3-19.3-45.55-19.5-40.25-22.8-47.8-1.85-4.3 1.95-6.5 3.7-2.15 5.85.55l34 43.25q25.25 31.25 35.15 39.2-.2 1.05-.6 1.35-.45.4-1.5-.3-9.45-6-39.25-43.65L189.05 60"/><path fill="#00b8ee" d="M278.7 184.95q4.65.35 9.9 1.45 1.45.3 1.35 1.1-.1.8-1.35.55-2.85-.65-6.7 4l-5.2 6.15-5 3.15q-3.7 2.2-7.85 4.05-1.45.65-14 3.7-9.6 2.3-10.05 4.7-.25 1.55-1.05 1.35-.8-.2-.55-1.7.65-4.05 2.65-8.05 1.9-3.85 3.4-4.55l9.25.35q6.6 1.35 8.65 0 2.9-1.9 5.5-8.1 2.6-6.4 3.95-7.4 1.5-1.15 7.1-.75"/><path fill="#0d131a" d="M268.55 193.35q-2.7 6.25-6.4 7.95-3.3 1.5-9.85.2l-7.8-.3q-2.75 1.8-4.5 8.15-1.5 5.3-1.25 7.9.1 1.15-.3 1.45-.4.35-.8-1.05-1.15-4.1 1.35-10.75 2.4-6.25 4.65-7.25l9.25.3q6.6 1.35 8.65 0 2.9-1.9 5.5-8.1 2.6-6.35 3.95-7.35 1.95-1.5 10.55-.4 7.4.95 11 2.25 1.7.65.9 1.15l-2.2.1q-3.7-1.05-8.9-1.8-7.9-1.1-10.25.45-.75.5-3.55 7.1"/><path fill="#0d131a" d="M253.2 205.2l-3 1.2q-1.35.55-2.1 1.15l-.75.75q-.4.25-.75-1.05-.4-1.3.1-1.9 1.25-1.6 3.35-1.75 1.7-.1 3.3.8.4.2.3.5l-.45.3m19.85-11.6q-.3.35-1.25 2-.55 1-.95.7-.85-.7 0-3.25.9-2.8 3.05-3.4.95-.25 1.85.5.8.7.55 1l-1.4 1q-1.3.8-1.85 1.45m-46.1 22.4q1.75.25 1.65.8-.15.55-1.7.4-4.05-.35-7.35-2.7-2.55-1.8-4.25-4.5-.8-1.05-.45-1.3.35-.25 1.25.9 2.1 2.55 5.15 4.3 2.85 1.65 5.7 2.1m71.6-51.4q1.75 5.5-1.25 12-.4 1.2-.95 1.1-.5-.15-.05-1.5 1-3.1 1.3-6.3.25-3-.2-5-.3-1.25.2-1.4.55-.15.95 1.1"/></svg>