<svg xmlns="http://www.w3.org/2000/svg" width="490" height="453" viewBox="-0.8 0.0 490.1 453.45"><path fill="#bcb2ba" d="M355.85 334.25l-68.1 32.95-68.1-107.15 17.35-37.3q19.8 0 42.2 10.95 20 9.8 31.1 22.35 16.55 18.65 25.4 31.9 15.9 24 20.15 46.3"/><path fill="#a39aa1" d="M351.25 319.4l4.6 14.85-7.95.4q-8.75.6-12.9 1.65-10.5 2.6-21 7.05-4.3 1.8-9.8 4.85l-4.6 2.65q-4.2-2.8-9.75-8.35-4.9-4.9-5.85-6.65-.65-1.15-2.35-5.25l-1.6-3.9q1.85.6 9-1.15l7.85-1.75q6.1.7 14.7-.15 14.55-1.4 20.6-7.5 2.15-2.15 4.85-3.4l3.55-1.65 8.7-5.1q7.4-4.45 7.75-5.75.3 1.6-.3 3.9-.65 2.55-1.95 4.05l-3.3 3.25-1.9 1.7.5 2.2 1.15 4.05"/><path fill="#0d131a" d="M355.35 333.95q-13.5-45.1-44.25-76-33.75-33.9-73.45-33.9l.25-2.65q43.75 0 77.85 35.6 14.9 15.55 25.85 36.05 10.4 19.5 15.85 40.65.1.4-.9.55-1.05.15-1.2-.3"/><path fill="#bcb2ba" d="M276.85 194.3q4.15 1 6.3 4.05 2.75 3.9 1.6 10.55l-2.05 8.55-1.7 5.9q-.55 2.5-.95 6.55-.45 4.55-.3 7.1.35 5.6 1.85 8.9l2.4 4.5-5.8 2.7-30.6-18.2-4.55-8.15q1.95-1.45 6.6-3.6 4.5-3.1 8.55-11 1.05-1.95 6.25-9.8 2.6-3.95 6.4-6.3 3.6-2.25 6-1.75M347 261.5q.55 3.45-.45 5.5l-3.45 5.5q-2.75 4-3.5 5.55l-3.15 5.85q-2.05 3.8-2.05 5 0 1.95-.65 4.1l-11.5-2.15-15.4-10.4-2.8-14.75q4.05.15 9.4-1.05 5.05-1.1 7.95-2.65l6.8-3.8 6-3.35 6.2-.25q4.25.75 5.05 2.2 1.05 1.85 1.55 4.7m-4.1 34.2q6.3 0 10.55 1.8 4.45 1.9 3.95 4.7l-.95 3.95q-.9 2.15-2.5 3.45l-4.5 3.2q-2.8 1.95-3.3 2.85l-2.5 3.7q-2 2.9-2.5 3.9-.55 1.1-4.45-1.5l-3.8-2.85-5.65-22.55 15.65-.65"/><path fill="#a39aa1" d="M284.85 202.35q.5 1.35.1 4.8-.4 3.75-1.65 8-1.25 4.1-2.4 10.8-1 5.9-1.25 9.7-.2 2.95 1.6 8.25 1.45 4.25 2.75 6.5.45.85-.55.5-1.05-.3-2.7-1.5-4.4-3.2-6.2-7.6-2.05-5.05-1.6-14.4.5-9.8 3.45-15.05 1.9-3.35 3.65-9.2 1.45-4.75 1.45-5.7l1.45 1.8 1.9 3.1m60.05 56.3l1.6 2.95q1.15 3.75-1.4 7.85-7.45 11.95-8.55 14.6-.4 1-1.25 4.95-.7 3.2-1.25 3.55-1.35.9-2.3-1.55-.85-2.25-1-6.25-.4-9.75 2.8-12.8 3.1-2.9 6.95-7.4 4.2-4.8 4.4-5.9m12.05 41q-.4 5.5-1.25 7.6-.5 1.25-3.4 3.2-3.35 2-4.4 2.7-1.9 1.4-6.85 10.45-1.7 3.05-6.6-.8-1.95-1.55-2.8-3.25-.95-1.85.05-2.85 1.85-1.85 8.5-5.4 4.95-2.65 8.15-4.05 1.6-.7 4.4-3.3l4.2-4.3"/><path fill="#0d131a" d="M352.75 365q5.85.15 19.15-8.15l25.55-17.4q16.15-11.1 24.85-15 12.1-5.45 16.8-.95 3.5 3.35-5.4 18.45-9.3 15.75-25.4 32.25-18.8 19.2-39 30.8-24.1 13.8-46.15 14.15-25.35.4-48.05-4.85-22.05-5.05-36.75-14.25-15-9.45-18.75-21.1-3.95-12.45 5.95-25.2 5.75-7.4 20.2-7.45 11.05-.05 31.7 4.6l37.6 8.85q22.65 4.9 37.7 5.25"/><path fill="#59bdec" d="M350 366.85q6.4.15 20.6-7.95 6.45-3.65 26.95-17 17.15-11.15 25.2-14.9 11.85-5.6 15.15-1.65 2.2 2.6-7.1 16.75-10 15.25-25.25 30.7-18.4 18.6-37.4 29.65-22.9 13.35-43.5 13.7-24.1.35-46.1-4.45-21.45-4.65-36.15-13.2-15.05-8.75-19.4-19.5-4.65-11.55 4-23.4 5.25-7.15 19.25-7.15 10.8-.05 30.95 4.55l36.55 8.7q21.95 4.8 36.25 5.15"/><path fill="#4ca4cd" d="M340.4 391.85q22.75 0 49.95-21.25 15.65-12.2 47.3-45.45l.25.2q2.2 2.6-7.1 16.75-10 15.25-25.25 30.7-18.4 18.6-37.4 29.65-22.9 13.35-43.5 13.7-38.85.6-68.8-11.2-30.15-11.9-33.95-29.6 58.1 16.5 118.5 16.5"/><path fill="#59bdec" d="M370.15 337.55q11.85 3.5 22.3 7.95 9.2 3.95 23.8 7.15 12.25 2.65 18.5 2.95 4.5.25 18.6-1.65 13.3-1.8 17.2-2.9 3.85-1.1 6.6-1 3.4.05 5.85 1.85 3.25 2.35 2.6 7.55-.3 2.6-1.3 4.7-12.95 8.7-15.45 10-1.6.85-11.2 8.95l-20.85 17.7q-18 15.3-41.3 24.4-26.5 10.35-54.65 10.35-63.4 0-96.15-33.8-36.25-37.4-36.25-117.1 0-12.2 1.35-33.4 1.4-22.35 2.8-28.85 1.55-7.25 2.1-20.1.6-13.65-.65-20.65-.3-1.6-.5-10.85-.1-3.65-3.45-5.2-3.2 2-8.75 4-11.15 4-22.9 4-11.75 0-19.25-3.65-2.35-1.15-4-2.55l-1.15-1.15q-1.05 1.6-9.6 1.6-13.35 0-19.75-16.95-4.85-12.95-4.85-32.3 0-14.9 7.1-32.65 2.2-5.55 4.9-10.7l2.2-4.05-3.35-3.7q-3.45-4.15-3.85-6.6-.45-2.65 1.55-6.05 1.65-2.75 4-4.8 1.65-1.45 6.85-.7l4.9 1.05q-2.15-1.1-4.3-4.2-4.35-6.15-4.35-15.9 0-13.3 8.9-21.35Q152.5 1.6 164 1.6q4.55 0 8.55 1 5.1 1.25 10.7 4.4 5.1 2.85 9.9 11.4 2.4 4.25 3.75 7.95 14.45-3.45 30.45 1.6 8.05 2.55 13.15 5.8l1.35-1.7q1.85-2.1 4.2-3.8 7.55-5.5 17.5-5.5 14.15 0 26.35 9.35 14.35 11.05 14.35 28.7 0 16.55-13.1 27.35-4.6 3.8-9.95 6.2-4.4 1.9-6.55 1.9l-6.75-.65-3.35-.65-.5 6.6q-.65 7.5-1.45 11.95-.85 4.8-5.9 18.65-4 11-8.1 21.05-3.15 7.75-6.4 21.5-3.15 13.55-4.65 25.35-1.2 9.75.05 29.65.65 9.9 1.5 17.9l4.1 4.75q4.8 5.45 8.4 8.85 9.35 8.8 14.9 19.9 2.85 5.75 5.95 18.3l5.75 22.7q2.85 9.75 12.55 20.2 4.85 5.25 9.1 8.5 16.1-9.7 31.6-13.55 9.15-2.3 22.5-3.05 4.1-.25 16.2 3.35"/><path fill="#4ca4cd" d="M181.35 173.55q10.2-.85 20.1-4.8 11.95-4.75 21.95-13.5-.75 12.3-9.85 21.35.2-5.35-.05-7.05-.4-2.6-3.4-3.95-2.9 1.8-7.9 3.7-10.1 3.8-20.85 4.25"/><path fill="#fffac6" d="M219.6 144.6q2.9-1.95 4.95-7l1.1-3.7q.7-1.9 2.6-1.9 1.7 0 2.75 1.6 1.15 1.75 1 4.7-.45 7.4-8.4 17.3-6.7 8.35-20 13.35-12.3 4.65-25.15 4.65-10.1 0-18.25-3.65l-6.15-3.7 11.35-4.8q3.95-2.1 19.95-6.3l22.5-5.95q9.1-2.8 11.75-4.6M77.3 374.45q5-3.4 8.35-5.1l8.05-.4q6.5.1 7.6-1.35l7.8-11.05-.1 9.65q-.9 11.3-4.75 19.65-6.3 13.55-11.05 20.85-7.65 11.65-16.9 17.95-11.1 7.45-27.7 13.55-17.6 6.5-26.95 5.8l-14.4-1.4q-4.75-.8-5.45-2.8-.95-2.95 0-5.9 1.3-4 5.95-6.6 3.6 1.4 7.2 1.1 2.7-.25 12.55-7.9 9.9-7.75 14.3-13.05 3-3.7 13.85-13.2Q66.1 385 68 382.5q2.55-3.4 9.3-8.05"/><path fill="#dcd8ac" d="M101.2 367.75l7.9-11.2-.1 9.65q-.9 11.3-4.75 19.65-7.3 15.7-10.6 21.1-7.3 12.1-16.45 18.25-11 7.45-28 13.7-17.95 6.55-27.3 5.85L6.8 443.2q-5.4-1-6.05-3-.15-.45.3-2.75l.55-2.9q1 2.1 4.25 3.05 2.55.8 6.05.8 32.25 0 57.35-20.15 24.7-19.8 31.95-50.5"/><path fill="#59bdec" d="M61.6 338q5.95-4.55 10.1-6.75 6.65-3.55 12.05-3.35 5.9.25 12.15 3.15 5.95 2.75 9 6.3 2.45 2.85 3.4 11.8.5 4.45.5 8.35l-14 15.65q-.35.35-7.7 3.9-7.7 3.7-11.2 6.5-4.3 3.5-10.75 11.15L53.8 408.6q-5.95 7.25-17 14.1-10.85 6.7-20.1 9l-6.85-.25q-2.75-.9-4.2-2.65l16.25-15q2.65-2.4 7.1-11.45 3.8-7.8 5.6-13.15.9-2.7 5.65-14 4.55-10.85 5.45-13.8 1.25-4.3 6.5-12.15 5.45-8.2 9.4-11.25"/><path fill="#0d131a" d="M44.45 360.2q8.05-17.3 20-25.75 12.2-8.6 26.5-6.6 15.55 2.2 18.2 17.95 4.55 13.15 0 30.65-4.6 17.9-17.25 34.45-19.35 25.25-55.1 32.5-13.3 2.65-24.15 1.75-10.1-.8-11.5-3.95-1.95-4.45-.55-7.75 1.05-2.6 5.05-5.85l8.45-6.75q5.6-4.75 9.5-10.15 3.95-5.45 10.65-23.75 8.3-22.65 10.2-26.75m-8.35 30.9q-5.55 14.15-9.1 19.4-3.65 5.35-9.05 10.2l-8.7 6.95q-4.45 3.5-5.8 5.55-1.85 2.85-.5 5.9 1 2.35 10.5 2.85 10.45.55 22.75-1.95 34.25-6.85 52.3-30.15 9.35-12.05 14.55-25.95 4.9-13.2 5-25.05.05-11.95-4.9-19.35-5.2-7.9-15-8.85-13.45-1.3-25.35 10-10.25 9.7-17.45 26.65l-9.25 23.8"/><path fill="#ed8599" d="M166.5 161.35l17.55-6.75q4.1-1.5 26.7-6.7-1.5 4.7-6.25 8.05-5.2 3.6-15.9 6.9-9.2 2.85-16.6.95-2.3-.6-4.1-1.6l-1.4-.85"/><path fill="#fffac6" d="M447.4 386.75q10.55-9.3 24.75-16.9 7.15-3.75 12.15-5.7-7.3 15.25-20.75 30.6-13.9 15.85-31.35 28.45-40.45 29.05-81.1 29.05-29.3 0-59.5-12.4-9.45-3.85-17.9-8.5l-6.5-3.9q-6.9 2.2-16.5 4.4-19.25 4.35-32.8 4.35-64.25 0-97.9-25.75-30.55-23.4-30.55-63.2 0-31.8 17.05-61.9 5.75-10.15 13.75-20.55l10.45-13q8.35-10.65 17.35-24 10.7-15.8 16.05-26.55 4.9-9.8 6.4-19.85l.55-8.15q19.9.05 32.5-5 6.35-2.5 8.65-5.05 5.3.25 8.65 7.7 2.75 6.25 2.75 13.25 0 11.6-1.55 23.8l-3.45 21.65q-5.05 29.45-5.05 55.15 0 53.1 23.85 89.9 14.6 22.6 43 43.35 15.95 11.65 40.55 14.5 24.8 2.9 54.95-3.5 31.65-6.75 71.5-42.25"/><path fill="#dcd8ac" d="M198.9 185.2q-14.6 5.2-29.2.5 1.05-4.7 1.3-9.05l.05-3.4q19.9.05 32.5-5 6.35-2.5 8.65-5.05 4.35.2 7.5 5.45-6.6 11.5-20.8 16.55m284 179.3l1.35-.15q-7.3 15.15-20.7 30.4-13.9 15.85-31.35 28.45-40.45 29.05-81.1 29.05-23.5 0-47.4-8.05-15.75-5.25-29.3-13.1 31.5 13.25 66.9 13.25 47 0 85.85-22.2 38.2-21.85 55.75-57.65m-385-61.05l.8-.55Q86.4 372.5 136.9 403q43.4 26.2 123.05 19.25l2.65.05 4.6 5.15-19.45 4.85q-17.8 3.9-29.85 3.9-64.25 0-97.9-25.75-30.55-23.4-30.55-63.2 0-22.35 8.45-43.8"/><path fill="#fff" d="M211.15 95.75l2.8 26.2-14.8 6.3-5.05.7q.05-3.55.75-8.05 1.4-8.95 4.75-13.75 3.4-4.8 7.8-8.55 2.2-1.9 3.75-2.85"/><path fill="#4ca4cd" d="M135.9 35.35q-1.75-7.5 0-13.65-1.3 5.55 4.25 13.3 5.65 7.8 13.4 10.9l-6.9 6.8q-8.4-7.25-10.75-17.35"/><path fill="#0d131a" d="M215.3 147.2q-5.15 2.3-9.1 3.25l-21.3 5.5q-3.65.9-10.6 3.55-7.4 2.85-11.35 4.9-3.95 2.1-8.95 3.25-4.5 1.05-8.55 1.05-11.95 0-19.05-10.65-8.3-12.5-8.3-37.7 0-21.2 12.05-44.95 11.85-23.45 27.5-33.85 2.05-1.3 2.55-.7.55.65-1.3 1.9-12.2 8.35-23.85 30.2-13.25 24.95-13.25 47.4 0 21.5 6.2 33.6 6.25 12.15 17.45 12.15l6.8-.95q4.2-1 7.1-2.3 12.95-5.8 25.15-9.1 33.7-9.2 35.8-11.3 1.7-1.65 2.75-3.45.85-1.55 1.5-3.8.5-1.8.95-1.75.5.1.35 2-.2 2.55-1.65 5.25-1.4 2.7-2.9 3.5-2.5 1.4-6 3"/><path fill="#0d131a" d="M154.25 146.9q.35.25-.1 1.7l-.9 2.1-1.2 1.25-1.6.15q-.65-.45-.6-1.25.05-.7.6-1.35l2.15-1.9q1.35-.9 1.65-.7m-24.35 2.6q.05-1.1.55-1.25.4-.15.7.35l.55 1 1 1.65.7 1.3.2.95q.05.5-.4.8-.55.35-1.4-.25-.9-.6-1.4-1.95-.55-1.4-.5-2.6M194 95.4q-3.15 5.9-4.55 13.25-.5 2.75-1.3 2.9-.8.15-.4-3.5 1-9.05 4.55-15.25 3.2-5.55 9-9.55 1.65-1.15 2.05-.8.4.35-1 1.75-5.3 5.5-8.35 11.2m-27.05 65.7q4.25 1.95 9.1 1.95 9.35 0 18.95-3.9 10.1-4.1 14.45-10.2l4.05-1.7Q201.4 162.3 185.25 165q-12.2 2.05-20.85-2.8l2.55-1.1M242.4 32.2l-2.05 2.2q-13.05-7.25-27.15-8.1-14.65-.85-29.55 5.3-2.35.95-2.45.4-.05-.55 1.85-1.7 12.35-7.4 29.5-6.75 16.7.7 29.85 8.65"/><path fill="#4ca4cd" d="M250.95 75.95q1 2.4 5.8 5.55 6.95 4.55 14.65 4.55 9.9 0 20.55-7.05 10.8-7.1 11.15-14.65-.15 9.35-6.8 18.65-8.55 11.95-22.4 11.95-12.95 0-19.4-10.15-2-3.15-3.15-7l-.4-1.85"/><path fill="#0d131a" d="M197.55 26.55l-2.05-1.1q-2.75-8.25-9.9-14.5-9.2-8-21.65-8-11.8 0-19.7 8.25-7.7 8.05-7.7 19.45 0 5.3 2.2 10.35 2.55 6 8 11l-3.65-1q-2.5-1.85-5.5-7.15-3.95-7-3.95-13.35 0-13.7 8.2-22.05Q150.2 0 164.1 0q13 0 22.2 7.8 8.5 7.25 11.25 18.75m45.95 2.8q8.25-7.45 19.6-7.45 17.95 0 30.35 12.65 11.9 12.1 11.9 28.25 0 13.35-8.9 23.2-9.3 10.3-22.75 10.3-10.1 0-17.85-7.25-7.55-7.1-7.55-15.95 0-9.75 6.15-16.05 5.8-5.95 13.85-5.95 5.95 0 9.7 3.8 3.7 3.75 3.7 9.65 0 2.75-.7 2.75-.75-.05-.85-2.65-.1-3.8-3.45-6.9-3.55-3.35-8.45-3.35-6.25 0-11 4.95-5.25 5.4-5.25 13.7 0 7.25 5.95 13.4 6.5 6.75 15.75 6.75 9.8 0 18.35-8.45 9.4-9.3 9.4-22.35 0-15.85-11.5-27-11.35-10.95-27.1-10.95-9.75 0-17.45 6.4-8.2 6.8-9.45 17.45-.3 2.45-1.3 2.25-.95-.2-.7-2.55 1.35-11.25 9.55-18.65"/><path fill="#0d131a" d="M267.15 94.95q-2.35 27.8-11.8 45.7-8.25 15.6-12.7 34.95-4.5 19.25-4.5 38.9 0 9.25 1.05 23 .85 11.4 1.5 15.8.5 3.2-.5 3.4-1 .25-1.65-2.75-.75-3.2-1.6-15.9-.95-13.55-.95-23.4 0-23.4 4.1-40.85 3.65-15.4 12.6-34.1 4.15-8.65 7.8-23.1 3.95-15.5 3.4-23.1l3.25 1.45m-47.8-3.15q2.85 2.25 4.6 7.05 1.75 4.85 1.75 10.8 0 3.65-.7 7l-.35.1-5.65 2.95q-2.9 1.4-10.9 4.25-3.4-5.75-3.4-14.3 0-6.25 2-11.35 1.7-1.6 2.7-2.2 3.7-2.45 9.95-4.3"/><path fill="#0d131a" d="M216.9 92.6q2.55 1.35 4.2 6.1 1.65 4.8 1.65 10.95 0 4.45-1 8.6L219 119.7q-3 1.4-8.6 3.4-2.7-5.25-2.7-13.45 0-4.45.9-8.35.85-3.75 2.4-6.15 2.5-1.35 5.9-2.55"/><path fill="#fff" d="M213.5 96.9q1.1-1.95 2.35-1.95 1.2 0 2.2 1.9 1.1 2.05 1.1 5.05 0 3.25-1.25 5.35-1.05 1.75-2.15 1.75-3.45 0-3.45-7 0-2.95 1.2-5.1"/><path fill="#0d131a" d="M220.2 90.6q1.95-.15 1.9.45-.05.6-1.7 1.05-11.75 3.35-18.5 13.1-6.75 9.8-6.85 23.75-.05 1.9-.75 1.8-.75-.1-.95-1.6-1.85-14.7 6.8-26.4Q208.4 91.5 220.2 90.6"/><path fill="#0d131a" d="M203.1 124.85l8.85-3q5.1-2.05 11.7-5.3l1.55-.05q.2.55-.9 1.25-6.75 4.15-15.2 7.45-8.1 3.2-14.65 4.45-.6.15-.75-1.05-.15-1.25.8-1.4l8.6-2.35"/><path fill="#59bdec" d="M168.5 58.45l7.85.35 4.9 4.25-23.75 29.6-10.1 4.55q-.35-3.25-1.3-5.2l-8.45-17.25-6.1-6.7q-5.05-5.25-5.65-7.9-.6-3 .35-5.1l2.25-3.4q1.05-1.4 3.65-2.15l4.5-1.1q1.4-.4 9.7 3.4l11.15 5.05q2.65 1.05 11 1.6"/><path fill="#4ca4cd" d="M127.4 56.55q.3 1.75 6.35 6.05 7.75 5.4 9.95 7.65 3.7 3.8 7 12.75 3.1 8.4 2.4 10.8-.75 2.5-3.05 3.35-2.45.95-3.1-2.3-.7-3.5-2.6-8.5-1.85-4.8-3.25-6.9l-3.9-5.2q-2.65-3.2-3.9-4.2l-3-2.85-2.6-3.05q-1.35-2.15-.95-5.1l.65-2.5"/><path fill="#0d131a" d="M173.9 58.6q2.15-.05 2.35.55.2.6-2.15.85l-11-.45q-6.5-.9-10.05-2.35l-7-3.35q-3.95-2.05-5.15-2.95-1.2-.9-3.55-1-2.45-.15-4.05.8-1.65 1-3.45 3.5-1.8 2.55-1.95 4.3-.2 1.7.6 3.75.75 1.9 1.8 2.95l5.9 6.55q5.2 6 6.65 8.65 1.75 3.3 3.4 8.3 1.45 4.45 1.6 6.45.15 1.9-.25 2.05-.45.2-1.05-1.85l-2.2-6.55q-1.8-4.9-3.45-7.4-2-3-6.05-7.85-4.1-4.9-6.2-6.8-1.85-1.65-2.8-4.15-.9-2.3-.75-4.5.15-2.05 2.55-5.35 2.25-3.15 4.2-4.25 2.6-1.4 5.9-1.05 2.65.25 4.2 1.3 1.65 1.1 5.65 3.25 4.3 2.35 6.1 3.05 3.55 1.4 9.35 2.45 6.2 1.15 10.85 1.1"/><path fill="#36a0da" d="M252.2 355.1q-1.95-2.85-2.05-5.15-.1-2.55 2.3-3.35 2.75-.95 5.05.25 2.4 1.25 3.4 4.35.7 2.35 0 4.75-.8 2.55-2.6 2.9-2.2.45-3.55-.65-.7-.5-2.55-3.1m-9.8-49.8q-1.95-3.4-1.9-5.7.05-2.25 2.05-3.7 2.3-1.6 6.9.85 5.45 2.9 7.55 9.5 2 6.35 1.25 11.4-.7 4.9-3.4 5.5-2.4.55-4.5-.9-3-2-4.2-7.5-1.05-4.6-3.75-9.45"/><path fill="#36a0da" d="M254.35 320.65q-1.55.55-3.25-1.5-1.9-2.25-2.95-6.65-1.05-4.35-4.55-10.05-1.05-1.7-1.1-2.55 0-1.1 1.45-2.2 1.55-1.2 5.55 2.25 4.15 3.55 5.15 7.35 3.25 12-.3 13.35m2.95 35.65l-1.35-.15-1.6-2.35-1.9-3.05q-.6-1.5.95-1.9 1.5-.4 2.95.3 1.65.8 2.25 2.8.7 2.2.45 3.05-.25.9-1.75 1.3"/><path fill="#0d131a" d="M246.8 257.8q-5.65-6.2-8.25-10.2l-.25-3.75q2.75 5.15 8.55 11.1l10.35 10.5q12.9 14.35 16.25 35.55 2.35 15.1 9.2 27.7 7.7 14.25 19.05 21l-3.1 2.5q-12.65-9.4-19.4-22.65-5.9-11.5-8.75-29.1-2.85-17.6-14.2-31.9l-9.45-10.75m22.65 3.4q-4.05-7.05-14.45-15.55-9.6-7.85-16.75-10.75l-.25-2.6q8.65 2.95 18.6 11.7 9.6 8.5 13.9 16.55 1 1.9.6 2.35-.4.5-1.65-1.7M288 301.5q-.45-2.7.45-2.95.9-.3 1.45 2.55 2.75 13.5 10.05 24.2 7.1 10.35 17.5 16.6l-2.55.8q-9.8-5.25-16.45-14.6-7.75-10.95-10.45-26.6"/><path fill="#0d131a" d="M373.3 336.35q5.05 1.65 19.35 7.5 26.8 10.85 41.1 10.85 7.65 0 21.75-2l17-2.85q7.45-1.5 11.85 2.15 4.95 4.1.75 11.95-19.9 37.05-55 62.1-38.45 27.4-78.55 27.4-28.95 0-55.85-9.9-23.05-8.5-34.6-19.85-1.85-1.85-1-2.25.8-.35 2.5.85 38.35 27.35 89.05 27.35 36.1 0 70.55-21.9 36.5-23.2 61.25-65.1 2.8-4.65-.4-8.1-3.25-3.5-10.2-2.5l-15.85 2.6q-14.3 2.15-23.2 2.15-16.85 0-43.45-10.35-16.05-6.3-18.65-7.15-9.5-3.25-15.35-3.25-19.95 0-37 6.55-14.95 5.75-31.6 18.25-1.95 1.45-2.2 1.1-.25-.35 1.5-2.1 11.8-11.8 28.7-18.9 19.05-8 40.55-8 6.8 0 17 3.4m-104.7-140.4q5.25-4.05 8.95-2.55 6.05 2.4 8.15 6.9 1.85 4.05.4 9.1-1 3.35-2.5 9.5-1.6 6.6-2 9.15-.75 5.4-.2 11.2.6 6.05 2.4 9.4 1.2 2.25.4 2.5-.8.3-1.95-2-2.55-5.15-3.2-10.85-.5-4.85.3-10.8.15-1.3 1.95-8.7l2.2-9.9q.85-5-.65-8.05-1.65-3.4-6.35-4.8-3.65-1.1-8 3.2-4.3 4.25-8.9 13.65-2.25 4.65-6.3 8.5-4.05 3.8-9 6l-2.3.1q-.35-.75 1.3-1.65 5.4-2.85 8.2-5.65 2.85-2.9 5.45-8.3 5.4-11.1 11.65-15.95m80.25 65.65q.35 3.05-1.65 6.8l-3.4 5.7q-3 4.75-3.9 6.45-1.3 2.25-2.65 5.65-1.3 3.4-1.8 5.7-.3 1.35-1.1 1.15-.8-.15-.7-1.75.45-6.9 3.95-12.35l6.75-11.55q2.65-5.25-.9-9.35-1.7-1.9-4.7-1.95-2.35 0-4.5 1.05l-6.5 2.95q-5.5 2.4-7.65 3.45-2 .9-6.3 1.65l-7.2.4q-2.3-.3-2-1.05.25-.75 2.15-.75l6.75-.5q2.5-.5 4.95-1.9t8.15-4l6.1-2.8q3.75-1.7 7.05-1.35 3.35.35 5.95 2.8 2.75 2.55 3.15 5.55m-22.7 34.75q.35-1.1 3.35-1.1l13.6-.05q13.8.45 15.1 2.9 1.45 2.6-.25 6.95-2.05 5.15-7.65 8.95-5.25 3.65-8 8.55-1.25 2.15-1.8 1.95-.6-.2 0-2.75.4-1.8 2.9-5.05 2.75-3.6 5.7-5.75 4.05-2.95 5.9-6.05 1.85-3.1.85-5.15-.85-1.75-12.55-2.05l-14.2-.05q-3.3-.2-2.95-1.3M176.2 172.5q12.5 0 22.15-3.4 11.05-3.85 24.05-13.9 1.5-1.15 1.9-.95.4.2-.75 1.65-6.8 8.8-20.5 14-12.85 4.9-26.8 4.9-6.1 0-13.9-2.55-7.2-2.35-10.8-5.05l2.5-.95 6.5 3.15q8.05 3.1 15.65 3.1"/><path fill="#0d131a" d="M171.05 173.25l2.3.1q0 18.5-12.6 39.5-4.9 8.1-12.95 18.8l-14.85 19.15q-19.25 24.9-27.75 42.4-12.65 25.9-12.65 52.75 0 32.8 19.55 54 16.9 18.3 47.1 26.85 25.7 7.25 57.25 6.55 27.5-.6 50-6.75l1.55 1.45q-8.95 4.1-26.45 6.8-15.95 2.4-29.75 2.4-55.8 0-88.2-21.75-35.45-23.85-35.45-69.55 0-27.2 12.95-53.8 8.95-18.4 28.5-43.55l15.2-19.4q8.4-10.85 13.3-18.65 12.95-20.45 12.95-37.3"/><path fill="#36a0da" d="M241.45 143.65q-1 0-.35-6.65.3-3.35.95-7.7.25-1.55 3.15-1.6 2.85 0 3.1 1.25l.35 2.05q.1 1.1-.35 2.95-.45 2.15-3.05 5.9-2.65 3.8-3.8 3.8m-5.3 9.05q.95 0 1.65 2.75.7 2.8.2 4.4-.5 1.8-1.8 3.65-1.45 2-2.55 2-1.2 0-1.65-1.85-.5-1.95.1-5.35.35-2.15 1.75-3.95 1.3-1.65 2.3-1.65"/></svg>