<svg xmlns="http://www.w3.org/2000/svg" width="178" height="127" viewBox="-1.25 0.0 178.4 126.9"><path fill="#0d131a" d="M173.75 69.65q-1.6 5.65-6.1 8-3.35 1.65-9.2 1.85-6.45-.1-9.1.15-4.45.45-5.8 2.95-2.45 4.55 1.6 8.4 1.95 1.85 10 6.4 7.3 4.1 9.75 7.35 3.7 4.9.65 11.25-2.6 5.5-9.25 5.05-7.35-1.55-10.05-1.05-3.05.55-6.95 3.9-3.5 3-6.75 3-2.95 0-5.8-1.7l-5-3.75q-6.85-5.35-14.85-5.05-3.95.15-7.15 1.7l-5.25 3.25q-6.75 4.55-15 4.55-8.35 0-15.1-6.45l-5.3-5.1q-3.2-2.65-6.5-3.6-5.05-1.45-11.4 0-3.5.8-10.75 3.6-6.3 2.4-9.15 2.7-4.35.45-6.7-2.55-4.15-5.4 2.7-13.7l4.75-5.7q2-2.9.85-4.45-1.25-1.75-4.55-2.35l-6.4-.8Q3.2 86.25.75 79q-2-5.95 1.6-12.4 2.75-4.85 10.7-12.75l15.25-15.3q9.45-10.1 15.5-20l4.45-7.65q2.25-3.9 4-5.85Q56.65 0 64.55 0q4.25 0 10 3.6 5.75 3.55 10.2 3.55 5.15 0 13.55-3.25 7.85-3.05 12.85-2.6 6.1.55 10.05 4.6 2.9 3 5.75 9.4L132 26.45q3.4 6.35 7.95 9.85 2.9 2.25 10.6 6.05 8.95 4.35 12.4 6.55 14.2 8.9 10.8 20.75"/><path fill="#e097bf" d="M171.7 69.8q-1.3 4.45-5.6 6.1-3 1.15-8.95 1.25l-9 .4q-4.45.75-5.85 3.65-2.7 5.7 1.1 10.15 2.3 2.7 9.7 6.85 7.55 4.25 9.8 6.75 3.85 4.3 1.25 9.75-2.4 5-8.8 4.5-7.1-1.5-9.65-1.05-2.7.5-6.5 3.6-3.4 2.75-7.1 2.75-1.9 0-4.55-1.6l-5.3-3.55q-7.75-5.05-15.7-4.75-3.75.15-6.8 1.6-1.35.6-5 3-6.5 4.3-14.8 4.3-7.45 0-14.75-6.65l-5.7-5q-3.3-2.5-6.7-3.15-6.9-1.35-21.75 3.45-6.55 2.15-9.2 2.5-4.2.65-5.9-1.3-3.5-4 3.25-12.2l4.7-5.95q2.1-3.05 1.2-4.7-1.4-2.7-4.7-3.7l-6.5-1.05q-4.25-.5-6.5-1.75-3.25-1.8-4.7-5.9-1.65-4.65 2.2-10.95Q7.8 62.5 15.7 54.3l14.8-15.45q8.95-9.85 14.25-18.6Q51.55 9.15 53.5 7q4.7-5.2 11.55-5.2 4 0 9.2 3.5Q79.4 8.75 85.8 8.7q5.4-.05 13.35-3.25 7.35-2.95 12-2.5 5.2.5 8.7 4.55 2.55 2.9 5.35 9.35l5.05 11q3.3 6.15 7.65 9.5 2.8 2.15 10.4 5.7 8.95 4.2 12.45 6.3Q175.1 58 171.7 69.8"/><path fill="#0d131a" d="M100.65 30.85q-.05-.45.25-.8.3-.3.75-.35.45-.05.8.25.35.25.4.75.05.45-.25.8l-.75.35q-1.1.1-1.2-1m-29.7-1.3q-.05-.45.2-.8.3-.3.75-.35 1.1-.1 1.2 1l-.25.8-.75.35q-.45.05-.8-.25l-.35-.75"/><path fill="#c283a6" d="M7.35 81.15Q9.6 82 13.2 82.5q10.25 1.4 12.7 4.45 2.3 2.85-1.8 8 1.85-2.85 1-4.45-1.4-2.7-4.7-3.7l-6.5-1.05q-4.25-.5-6.5-1.75-3.25-1.8-4.7-5.9 2 2 4.65 3.05m157.6-7.3q5-1.45 7-5l-.25.95q-1.3 4.45-5.6 6.1-3 1.15-8.95 1.25l-9 .4q-4.45.75-5.85 3.65-1.85 3.95-.65 7.3-3.65-4.75-1.55-8.95 2.15-4.15 8.05-4.15 11.4 0 16.8-1.55M48.5 104.1q5.05 0 9.15 2.55 2.4 1.5 6.45 5.55 4.05 4.05 6.6 5.55 4.2 2.55 9.45 2.55 8.2 0 15.15-5 3.7-2.65 5.3-3.45 3.25-1.55 7.15-1.55 8.25 0 15.05 5.7l4.75 3.9q2.6 1.75 5.15 1.75 3.15 0 6.55-3.5t7.85-3.5q3 0 9.2 2.05 4.05 1.3 7.2-.85-2.55 3.95-8.65 3.3l-4.9-.8-4.25-.2q-2.7.5-6.5 3.6-3.4 2.75-7.1 2.75-1.9 0-4.55-1.6l-5.3-3.55q-7.75-5.05-15.7-4.75-3.75.15-6.8 1.6-1.35.6-5 3-6.5 4.3-14.8 4.3-7.45 0-14.75-6.65l-5.7-5q-3.3-2.5-6.7-3.15-6.9-1.35-21.75 3.45-6.55 2.15-9.2 2.5-4.2.65-5.9-1.3-.65-.7-.95-1.55 5.55 3.45 16.1-1.55l8.65-4.1q5-2.05 8.75-2.05"/><path fill="#0d131a" d="M85.2 44.2q16.4.85 23.4.5 1.7-.1 3.3-1.4.55-.45.8-.25t-.15.75l-1.75 1.6q-.9.4-2.35.5-9.15.45-22.45-.25L62.15 43.6l-2-.75-1.65-1.45q-.9-1.15-.6-1.35.25-.15 1.3.75 1.5 1.25 3.15 1.5l22.85 1.9"/></svg>