<svg xmlns="http://www.w3.org/2000/svg" width="120" height="149" viewBox="-0.7 -0.15 120.45 149.0"><path fill="#ba5400" d="M107.15 36.45q5.65 7.2 7.3 14.7 4.25 19.85-2.5 35.65-3.05 7.15-8.25 11.35-4 3.25-10.05 5.2-3.5 1.15-9.55.85-5.6-.25-9.6-1.4-3.2-.9-5.8-4.15-2.5-3.2-3.7-7.55-1.05-3.95-1-8.9.05-4.1.7-6.8.7-2.95 2.6-5.85 1.75-2.6 4.95-5.8l5.25-5.55 4.35-4.65 5.45-5.75q3.4-4.05 4.2-6.8 1-3.45 1.15-5.7.15-2.6-.65-4.9l-1.25-3.35-1.15-1.9q5.1.6 9.8 3.7 3.65 2.4 7.75 7.6m-85.5.9q-.8 7.65-2.8 12.45-1.75 3.3-4 6.1-2.7 3.3-3.45 2.15-2.05-3-3.8-8.9-1.9-6.65-1.75-12.1.2-6.15 1.45-12.6 1.35-6.9 3.4-11.4Q14.4 4.85 18.4 1q-.1 4.85.45 8.1l2.4 13q1.2 7 .4 15.25"/><path fill="#0d131a" d="M16.65 48.55q-.25 1.9-2.3 3.7-2 1.8-2.45.55-1.1-3.05-1.85-8.45-.7-5.4-.5-8.9 1-17.3 6.15-24.5l.6 3.4q.3 1.95.55 2.75l.85 6.2q.5 5.45.35 8.75l-.6 9.1-.8 7.4"/><path fill="#ba5400" d="M89.5 47.45l1.05-.3q.25.1 0 1-.7 2.95-2.1 5.4 3.25-1.1 6.4-3.15 1.2-.75 1.35.4.65 5.15.5 8.2 2.05-1.75 3.7-4.3l.55-.6q.25-.05.4.8l.75 4.45q.55 2.85 1 4.15 1.25-2.05 2.6-6.55l.5-.8.6.7 2.3 4.2q.65-1.45 1.05-5.4.1-.85.3-.95l.75.55 2.55 3.6q.35-.7.5-2.4l.05-2.85q-.05-.7.6.9.55 1.45.4 2.35-.15 1.55-.7 2.5l-.7.95-.9-.95-1.8-2.3q-.4 3-1.1 4.55l-.7 1.05q-.2.05-.8-.6-.75-.85-2.15-3.3-1.2 3.85-2.45 5.95-.8 1.4-1.2 1.2-.4-.2-.8-1.85l-1.55-7.25q-1.15 1.55-3.4 3.15-.85.6-1.1.45-.25-.15-.25-1.15 0-3.05-.55-7.75l-4.25 2.3-3.1 1.25q-.85.2-1 0-.15-.25.2-1.05l2.35-5.25q-3.1 2-4.7 2.3l.6-1q.75-1.05 1-1.15l3.25-1.45"/><path fill="#fff1ac" d="M87.15 49.1l-1.25.3q2.15-2.2 3.8-4.95 1.75-2.85 2.3-5.2 1.2-5.2-.35-9.5Q90.3 26 89.5 24.9q2.05 0 5.25 1.35 3.45 1.45 6.4 3.85 5.85 4.65 9.5 11.75 2.8 5.55 4.7 13.5-.45 2.7-1.4 4.4l-3.1-3.95q-.4 3.85-1.65 6.15-1.05-1.2-2.95-4.75-1.3 4.45-3.25 7.5-1.2-3.6-2.2-9.7l-2.15 2.75-2.35 2.1-.2-5-.55-4.15L91.3 53l-3.85 1.65 1.45-3.1q.95-2.2 1.1-3.55l-2.85 1.1"/><path fill="#933f00" d="M115.2 56.1q1.9 12.6-.55 22.6-2.55 10.55-7.55 16.4-6.5 7.6-17.95 8.95l-10.3-.3q-4.8-.75-7.05-1.95-.9-.45-2.35-3.25l-1.25-2.7q19.5 1.5 31.3-8.4Q111.05 77.8 113.35 59l.6.75q.75-1.35 1.25-3.65"/><path fill="#dcd096" d="M115.2 56.1q-.5 2.3-1.25 3.65l-.6-.75.1-.5.2-4.5-.05-4.9.85 2.75.75 4.2v.05"/><path fill="#0d131a" d="M89.15 25.25l-.2-.8.8-.1q12.35 1.9 20.5 14.95 9.5 15.15 5.9 36.75-2.95 18.1-15.55 25.05-11.75 6.55-28.5 1.8-1.55-.45-1.45-.95l1.6-.1q16.2 4.2 27.25-2.05 11.9-6.75 14.75-23.95 3.4-20.65-5.3-35.45-7.4-12.6-18.4-14.75 4.15 7.75 2 14.35-1.75 5.45-8 12l-7.6 7.8q-6.6 6.9-8.9 10.15-2.75 3.9-3.3 8.9-.55 5.05 1.3 10.25.6 1.7.15 1.8-.45.15-1.2-1.8-2.15-5.65-1.65-10.9.5-5.1 3.4-9.2 2.3-3.25 8.55-9.8l7.8-8 4.55-5.15q2.2-2.85 3.45-5.9 2.55-6.4-1.95-14.9M17.75.85q.85-1 1.15-.8.3.15.2 1.4-.15 3.65.35 7.65.35 2.75 1.35 7.35Q22.85 25.9 22.65 33q-.2 7.75-3.05 15.8-.45 1.3-.9 1.2-.4-.15 0-1.5 2.5-7.95 2.55-16.5 0-6.9-1.6-15.35-1.7-8.4-1.7-13.25L18 2.15q-8.3 10.4-10.55 26.1-2.35 16.6 3.9 28.6.55 1.05.05 1.35-.45.25-1-.8Q3 43.25 6.2 25.9 9 10.85 17.75.85"/><path fill="#0d131a" d="M14.95 10.75q.7-1.1 1-1.05.3.05.5 1.5l.9 5.6q1.3 6.8 1.3 14.9 0 8.8-1.6 17.05l-.75.2-.35-.25q1.6-7.95 1.6-16.7.05-8.2-1.3-15l-.8-5q-4.35 6.8-5.05 20.7-.65 12.75 1.85 19.05.2.5-.25.85t-.7-.25q-2.65-6.9-2.05-19.45.7-14.3 5.7-22.15"/><path fill="#fff1ac" d="M16.35 91.4q6.05-4 17.25-8.55l17.85-6.7Q57 73.2 62.8 74.85l-1.2 1.4q-.95 1.25-1.35 2.25 2.15-.25 5.2.7 2.55.8 3.7 1.6-2.45.25-5.1 2l1.3 1.2 1.5 1.9q-.8-.15-2.45 0l-2.65.5q.6.95.85 4.15l1.1 2.2 1.4 3.15-1.65-.75q-1-.45-1.75-.55.6.85 1.7 4.05 1.2 3.45 1.6 5.7.35 2.3 0 4.8-.3 2.25-.95 2.95.2 4.6-1.9 7.8l-1.8-3.15-1 3.55q-.95 3-1.5 3.8l-1.9-2-2.4-2.75q-.4 1.55-.05 4-2.55-.45-5.6-2.95-2.25-1.8-4.15-4.15l-.45 1.35-.5 1.95-1.85-1.65-.25 1.3-.85 2.75q-.25-1-1.7-3.45-.55 3.75-3.2 7.3 0-1.2-1.3-3.5-1 2.7-4.8 10.1-.6-1.55-3.9-5.05l-3.15-3.2.1 2.4q-3.4-1.9-6.5-6.1-3.35-4.55-3.75-8.6l-.75.95q-.85 1.2-1.25 2.3-.9-2.25-.25-7.1.45-3.55 1.25-6.05l-.95.4q-.85.3-1.35.8.15-2.9 3.25-6.9 2.45-3.2 4.75-4.85"/><path fill="#ba5400" d="M17.75 129.65l1.25-5.1 2.85 1.9.1-2.15q.95.6 3.3 3.35 2.4 2.75 2.9 3.85t1.25.4q-.4 1.75-2.5 6.1-.65 1.4-1.5 2.15-.85.8-2.4 1.35-3.15 1.2-5.15 0l-2.4.05q-.8-.3-.95-.95l-1.6-.2q-.4-.25-.65-.95-.5-1.2.85-2.3l3.25-2.75q.3-.4 1.4-4.75m23.2-11.75l1.95 1.55q.2-1.6.95-3.1l2.55 2.6 2.6 2.25-1.85 7.6-2.5 10.15q-1.85 6.65-4.15 8.1-1 .7-2.1.8l-1.95-.15q-1.35.65-2.6.35-1.05-.25-1.6-1-3.4 0-3.1-2.7.05-.35 1-1.75l1.15-1.75.5-4.45.55-10.45q.6-1.95 1.3-3.65l1.35 3.4q1.05-1.1 2.2-4.2l1-2.9.7 1.15.95 2.2 1.1-4.05"/><path fill="#ba5400" d="M61.75 94.6L65 95.9q-.55-2.5-2.4-5.4.1-2-.95-4.2.6-.3 2.55-.45l3.1-.1q2.75 1.45 4.4 3.25 1.75 1.9 3.5 5.3 1 1.95 1.7 4.6l1.25 5.3.6 5.15q.3 3.8.65 5.5.7 3.35 3.85 11.05l.4 2.15.05 4.15q-.05 5.65-1.4 9.05-.45 1.15-1.9 1.95l-2.45 1.05-3.35.2-4.2-.2q-.95-.15-1.55-.75l-.6-1.1q-.1-.75 1.8-3 .5-.65.5-3.3l-.15-1.95q-.3-1.3-1.1-2.05l-6.6-7.35-1.25 3.8-2.45 6q-1.2 2.5-2.7 4.5-1.3 1.7-2 2.1l-3.35.1q-1.85.6-3.4-.05l-1.85-.35q-.75-.4-.9-.9-.1-.45.35-1.5.45-1.05 1.2-2 1.15-1.4 1.85-4.5.2-.75-.1-2.4l-.75-2.8.65-2.2.9-3.3q3.45 2.1 4.6 2.45v-4.6q.65 1.25 4.6 4.75 1.2-1.65 2.25-7.1l1.9 3.2q.6-.9 1.2-3.5t.65-4.7q.95-1.25 1-4.45.05-2.7-.45-5.05-.7-3.2-2.9-7.65m-19.45-46q1.55 2.55 2 2.75l.3-1.65 2.3 2.6q2.6 3.3 3.9 6.9 3.5 9.6 1.65 17.8-2.45 11.2-9.1 15.6-4.35 2.9-9.65 4.2l-12.35.4q-6.1-1.05-11.55-5.45-4.6-3.65-7-8Q-.7 77.3 1.7 73.7L4 69.65q1.05-2.35 2.25-7.1.6-2.5 2.15-5.25 1.45-2.7 3.45-4.85.35-4.5 1-5.05l1.6 2.55.7-2.7 2 1.5-.55-2.3q2.05 1.15 4 1.15l-.85-1.55 3.35.75.65-3 1.85 1.35 1.45 1.35-.35-4.2 4.6 3.7.45-3.6 1.8 2.15 2.55 2.5 1-2.55 1.15 1.95 1.85 2.25.45-1.8.3-.75 1.45 2.45"/><path fill="#933f00" d="M65.45 107.7q1.05 6.6.75 12.05-.25 3.8-1.2 7.7l-3.25-3.85q-1.75-2.25-2.15-3.2l.9-3.5q1.45 2.25 1.7 3 2.15-3.4 1.85-7.9l1.4-4.3"/><path fill="#933f00" d="M48.85 120.9q3 1.95 4.6 2.55-.25-1.4-.1-4.75.4 1.05 2.2 2.85l2.6 2.2q.75-.4 1.35-3.45l1.2 1.6 2 2.95q-1.25 4.35-4.95 12-2.5-2.5-5.6-3.35-2.75-.8-4.4 0 .4-.75.35-2.85 0-2.15-.4-4.1l.5-2.2.65-3.45"/><path fill="#933f00" d="M40.6 119.4l.1-1.7 2.35 1.95q0-.95.75-3.85.3.85 5.15 5.35l-1.9 7.75-1.9 8.8q-3.35-3.3-7.45-4.1-3.4-.65-5.7.5l.25-7.8q.35-.4 1.3-4.45L35 125.5q1.35-1.1 2.4-4.3l.75-2.95.65 1.3 1.3 2.25q.35-.6.5-2.4m-23.25 11.85q.85-2.05 1.65-7l2.9 2.1q-.2-.9-.1-2.5l2.2 2.45 2.5 2.65 1.2 1.85 1.35 2.05q-.65 2.15-1.5 3.75-2.3-3.5-5.5-4.75-2.3-.9-4.7-.6"/><path fill="#dcd096" d="M40.75 107.1q-.4-.45-.55-1.35l-.45-1.9 1.8 1.3.15-1.2q0-1.2.15-1.25.65 1.8.75 3.6.1 1.45-.2 2-.1.2-.65-.2l-1-1m.45 7.7q-.05 4.5-1.1 6.9l-2.05-3.5-1.1 4.2q-.8 2.5-2.15 3.55l-1.15-3.45-1.05 2.55-1.45 2.95q-1.95 2.9-2.35 3.85l-3.9-4.4-3.05-3.4v2.45q-1.5-1-3.65-3-2.25-2.05-3.1-3.25-1.15-1.55-2.25-4.6-.95-2.55-1.2-4.05l-1.05 1.7q-.65 1.05-.75 1.6-.2-.6-.1-2.65.1-1.1.8-2.65.65-1.6 1.35-2.25 1.1 3.4 3.1 5.8l4.15 4.35q.6-2.95 1.2-4.6 1.55 3.15 3.2 4.65 2.15 2 3.75 4.2l2.4-4.2q1.85-3.4 1.9-5.8l2.15 3.3q1.65 2.45 1.95 3.4l1.25-2.85q.65-2.2.7-4.2.55.65 1.55 4 1.3-2.2 1.45-7.4.6 3.05.55 6.8m15.25-30.7l2.7-.3 3.8-.1q-.85-.85-3.55-1.65 1.05-.75 4.8-2-1.45-.8-4-1.35l5 .4q2.7.75 3.6 1.7-.95.15-3 1.05l-1.8.85 1.25 1.25q1.35 1.35 1.7 2l-2.1-.1-3.2.35q.6.4 1.1 4.6-2.3-4.5-6.3-6.7"/><path fill="#dcd096" d="M61.35 110.85q.55-3.9-.05-9.2 1.1 1.15 1.95 2.65.15-.95-.25-3.8-.45-3-1.05-4.9 1.4 2.15 2.2 4.65l.95 4.45q.35 2 .05 3.9-.25 1.9-1.05 3.15.2 2.2-.4 4.55-.6 2.1-1.5 3.25L61 117.9l-.7-.8q-.75 5.5-2.15 6.7-3.05-2.1-4.7-4.55-.15 3.9 0 4.5-2.05-.9-5.15-3.2-3.5-2.55-4.6-4.3-.65 1.45-.65 3.15l-1.1-.5-1.1-.8q.45-3.95.2-7.9l.6 2.05q.45 1.35 1 2.1l.35-2.1.45-2.55 3.5 3.55q2.3 1.9 4.5 3.05.5-3.75 1.15-5.3 2.1 3.3 4.7 4.85l1.4-3.05q.75-1.85 1.1-4.35l1.55 2.4m-.5-16.95l1.25-.1 2.25.5q.8 1.35.55 1.6l-2.1-.85q-2.05-.85-1.95-1.15"/><path fill="#933f00" d="M33.7 96.8l-12.35.4q-4.7-.85-9.2-3.7 8 2.75 15.7 1.95 6.95-.7 12.2-4.1 4.7-3 7.65-7.45 2.75-4.15 3.25-8.4v-1.25l1.95.05-.45 2.7Q50 88.2 43.35 92.6 39 95.5 33.7 96.8"/><path fill="#dcd096" d="M16.15 95.6q4.7 2.45 12.05 1.9 6.6-.45 11.8-2.9 3.2-1.5 5.4-3.6 2.2-2.05 3.9-5.1-.4 4.35-4.3 8.2-3.45 3.4-8.35 5.2-7.5 2.7-14.4.85-6.25-1.6-6.1-4.55"/><path fill="#0d131a" d="M12.7 93.95l1.05-.15q.65.25.25.6-3.45 3.45-4.5 7.5l1.1-.8q.8-.55.95-.4.25.15-.25 1.25-1.25 2.85-1.5 6.45-.15 2.75.3 4.75l.9-1.6q.55-.85.85-.85.3-.05.45 1.05.5 3.7 2.95 7.35 2.4 3.65 6.1 6.25l.05-1.5.15-.65.75.7 2.95 3.1q2.2 2 3.35 4l1.65-2.7q2.25-3.45 2.8-5.8.25-1.1.45-1.15.2-.05.65.85l.8 2.3q1.95-1.9 2.65-6.4.15-1.05.35-1.05l.6.85 1.1 2.5q.9-2.65.9-7.45-.05-5.3-1.35-8.95-.4-1.2-.2-1.3.15-.1 1 .6l1.15.95q-.1-1.55-.95-3.9l-2.15-4.7q-.3-.5.2-.7.45-.15.75.35 1.7 2.75 2.65 5.55 1.05 2.85.85 4.55-.15 1.4-.5 1.3-.3-.05-1.45-1.5 1 3.95 1.1 8.9.1 5.4-1.05 7.8l-.75.95q-.2 0-.65-1l-.95-2.2q-.8 3.6-2.65 6.25l-.9.8q-.2 0-.35-.8l-.65-2.55q-.95 3.1-2.45 5.45l-1 1.9-.9 1.9q-.4.9-.7.8-.2-.05-.65-.9-1.65-3.1-3.3-4.7l-2.45-2.55.05 1.45q0 .55-.3.5l-1-.6q-3.8-2.5-6.35-6.15-2.5-3.6-3.3-7.45l-.8 1.95q-.45 1-.75.95-.3-.1-.7-1.15-.65-1.95-.45-5.3.2-3.3 1.05-6.35l-.9 1.15q-.7 1-1.05.7-.35-.3-.05-2 .95-4.95 5-9m38.45-11.7q-.35-.15-.2-.7.15-.5.5-.4 6 2.15 10.1 6.8 3.05 3.45 3.8 6.45.5 1.9.25 2.1-.25.25-1.7-.5l-1.25-.6q2.75 5.25 3.1 10.25.3 4.7-1.6 8.1-.15.25 0-3.4.9-2.45.25-6.6-.75-4.75-3.2-8.9-.45-.75-.3-.95l.95.05 2.1.9q-.85-2.8-3.55-6.05-3.85-4.55-9.25-6.55"/><path fill="#0d131a" d="M63.4 104.8q.35-.05.6 1.35.75 4.1.5 7.8t-1.5 5.9l-.85 1q-.25 0-.75-1.1l-1.05-2.4q-.1-.15.15-.75.2-.6.3-.3.15.65 1.2 2.2 1.35-2.3 1.55-5.8l-.25-6.4q-.2-1.4.1-1.5"/><path fill="#0d131a" d="M60.8 114.3q.25.1.15 1.75L60.2 120l-1.1 3.3q-.65 1.3-1.05 1.4-.3.05-1.25-.8l-1.8-2-1.1-1.5.15 2.5q.3 1.6-1.05 1.1-2.2-.75-4.85-2.75-2.85-2.1-4.25-4.15l-.4 2.1-.3 1.1-.8-.45q-1.05-.85-1.75-1.9-.1-.15.1-.55.2-.35.35-.2l1.5 1.45.7-3.05.35-.6.65.8q1.35 2.05 3.95 4.1 2.45 1.95 4.7 2.9-.2-1.85 0-3.4.1-1.15.25-1.2l.95.85q2.55 3.3 3.85 3.75 1.3-2.45 2.15-6.8.35-1.8.65-1.7m-8.3-38.8l.2-.55q2.6-.95 5.3-1.2l4.2.2q1.4.35 1.5.75.1.45-1.1 1.4l-1.65 1.75q5 .2 8 2.05.95.6.95.95-.05.35-1 .6-3.3.8-4.15 1.4 2 1.55 2.6 2.5.45.75.2.95l-1.45.15-3.75.25q.6 1.1.85 2.55.3 1.5.05 2.35-.05.3-1.2-1.7.25-1.75-.8-3.2l-.35-.7q.05-.15.6-.3l4.4-.4q-.5-1-1.9-1.95l-.65-.6q-.05-.25.55-.6 1.8-1.1 3.6-1.55-3.55-1.7-7.3-1.7-.65 0-.75-.2-.1-.2.25-.9.7-1.2 1.95-2.4-1.1-.45-3.4-.45-2.95-.05-5.5.9-.25.1-.25-.35m-34.1 48.55q.05-.2.7.3l.65.65q-1.35 5.85-2.95 9.75l-1.65 1.6Q12.7 138 12.7 139q-.05.6.5 1 .55.45 1.35.35.25 0 .25.45.05.4-.2.4-1.3 0-2.15-.6-.9-.65-.9-1.6.05-1 1-1.95l1.9-1.45 1.35-1.35 1.55-5.3 1.05-4.9"/><path fill="#0d131a" d="M15.4 138q.85-.45.95-.3.15.1-.45.6-1.55 1.3-.9 2.2.25.4 1.2.6l1.45-.15q.2-.1.4.35.15.4-.05.45-2.6.75-3.8-.65-.55-.65-.25-1.55.35-.95 1.45-1.55"/><path fill="#0d131a" d="M19.45 138.95q-1.6 1.25-1.3 2 .25.7 2.15.45l2.8-.6q1.55-.6 2.15-1.35 1.9-2.45 3.6-8.1l2.85-4.25q-.7 3.1-2.4 7.1-1.7 4-3.15 5.95-.9 1.2-3.05 1.85l-3.45.5q-2 0-2.4-.9-.65-1.65 1.9-3.1.75-.45.85-.3l-.55.75"/><path fill="#0d131a" d="M31.55 127.15q-.05-.15.6-1.25t.7-.9q.15 2.2-.25 7.85-.35 5.75-.85 8.15l-.8 1.45q-1.15 1.5-1.2 2.35 0 .85.65 1.4.7.5 1.55.35.25-.05.3.35.1.4-.15.45-1.25.2-2.25-.4-1.2-.7-1.25-2.1-.05-1.15 1.45-2.85l.65-1.25q.4-2.05.65-6.65l.2-6.95"/><path fill="#0d131a" d="M32.55 144.3q.65-.65.85-.55l-.25.9q-.9 1.35-.65 2.05.25.45 1.5.75l1.8-.2q.85-.7 1.2-1.8.3-.95.6-.95.25 0 .05.95-.45 2.15-1.2 2.65-1.05.75-2.7.4-1.6-.35-2.05-1.35-.6-1.3.85-2.85"/><path fill="#0d131a" d="M48.25 120.9l.7.2.6.55Q46.85 132 46.2 135.2q-1.8 8.5-3.7 10.7-1.35 1.5-3.05 2.1l-3.35.1q-.35-.1-.1-.45.25-.4.55-.35 2.75.5 4.8-2 1.95-2.35 3.65-10.25l1.55-7.1 1.7-7.05"/><path fill="#0d131a" d="M47.3 128.4q-.1-.3.3-1.45.35-1.1.45-.7.6 1.9.75 4.5.1 2.25-1.8 5.75l-.7 1.1-.65 1.1q-.25.8.05 1.35.35.6 1.45.6.65.8.35.8-2.25.15-2.9-.9-.5-.8 0-1.9l1.55-2.55q1.75-3.35 1.5-5.4l-.35-2.3"/><path fill="#0d131a" d="M47.7 138.45q.7-.65.9-.5l-.4.8q-.6.75-.6 1.4-.05.55.85.75l2.5-.1.3.3-.1.45-3.15.25q-1.4-.25-1.35-1.4.1-1.05 1.05-1.95"/><path fill="#0d131a" d="M51.3 139q.7-.7.9-.6.25.1-.3.85-.9 1.2-.45 1.55l1.15.2 1.45-.35q1.6-.8 3.95-5.5 2.5-4.95 4-10.85.1-.45.65.25.55.65.45 1.05-1.4 4.8-3.95 9.75-2.75 5.35-4.7 6.25-.95.5-2.2.45-1.2-.1-1.65-.6-.85-.85.7-2.45"/><path fill="#0d131a" d="M59.35 121.35q-.2-.25.15-1.15.35-.85.55-.5 2.75 4.8 7.4 9.45 2.5 2.45 3.05 3.6.35.65.45 2.9l-.1 3.2-1 1.65q-.95 1.3-1 1.85-.05 1.2 1.3 1.45.5.7.2.7-1.1 0-1.85-.65-.75-.6-.7-1.55.05-.8.95-2.05l1.15-1.75q.25-.8.1-2.7l-.4-2.3-3.1-3.6-2.8-2.9q-2.3-2.55-4.35-5.65"/><path fill="#0d131a" d="M70.6 142.85q-.15.7.1.95.3.35 1.4.4l2.05-.25.4.35.05.45-2.55.4q-1.55-.05-2.1-.65-.6-.65-.3-1.6.25-.9 1.2-1.7.8-.7.95-.5.2.2-.45.85-.55.6-.75 1.3"/><path fill="#0d131a" d="M66.35 85.95q-.2-.1-.25-.9 0-.8.2-.75 6.05 2.5 9.4 9.55 3.4 7.1 3.85 18.25.1 3 2.65 9.4 1.7 4.2 1.85 5.45.6 4.4 0 9.25-.65 5.35-2.25 6.6-1.8 1.4-4.45 2.1-2.65.65-3.45 0-.55-.45-.2-1.45.35-1.05 1.5-1.85.8-.55.95-.35.2.2-.5.8l-.8 1.05q-.3.6-.05.8l2.55-.1q2.15-.6 3.75-1.85 1.15-.95 1.7-5.6.55-4.65.05-9.35-.05-.65-1.5-4.55-2.8-7.3-2.95-10.3-.55-10.35-3.7-17.2-3.15-6.85-8.35-9M17.25 47.3l.4 1.4.1.6-.5-.05-1.9-1.2-.55 1.8-.35.65q-.2 0-.55-.5l-.85-1.3q-.6 1.45-.8 4.25l-.25.95q-.25.25-.4-.2-2.1 2.5-3.6 5.7-.65 1.4-1.55 4.3L5.05 68l-.9 2.35-.9 1.95Q1.5 75 1.6 77.05q.15 5.5 5 10.95 4.9 5.55 11.9 7.8 6.75 2.15 14.7.4 8.3-1.8 12.8-6.9 4-4.55 5.55-11.85 1.35-6.35.4-12.1-1.35-8-6.95-14.6l-.45 1.05-.95-.7q-1.6-1.6-2.8-3.6l-.4 1.25-.25.45q-.15.1-.55-.3-1.4-1.3-2.45-3.3l-.5 1.6-.3.45-.45-.2q-1.75-1.15-3.95-3.95l-.15 2.45-.2.8-.7-.45-3.85-3.2.3 3-.15.8-.75-.45-2.5-2-.25 2.15-.2.45-.4.05-2.5-.5.45.85.15.45-.6.1q-1.55 0-3.35-.7m26.95 1.9l.15-.55.65.45q6.55 7.7 8.05 15.9 1.15 6.05-.25 12.95-1.5 7.55-5.45 12.15-4.7 5.45-13.5 7.35-8.35 1.8-15.5-.5-7.6-2.4-12.95-8.15Q.05 83 0 77.05q-.05-2.3 1.8-5.3l2-4.25 1.55-4.25 1.6-4.3q1.8-4 4.5-6.8.05-2.85 1-5.1.4-1 .85-.05l1 2.1q.15-1.55.4-2.45.2-.6.7 0l1.25 1.5-.5-1.65q-.15-.65 0-.75l.65.15q2.35 1.2 3.25 1.4-.6-.5-1.05-1.55-.25-.8.65-.4 2.15.8 3.25 1l.3-2.75q0-.7.2-.8.2-.05.7.35l2.5 2.5-.5-3.55q-.1-.8.15-.85.2 0 .8.5l3.9 3.5q-.15-2.1.1-3.4.15-1.2.95-.15 2.7 3.75 3.95 4.75l.6-2.2.4-.65.55.6 2.3 3.75.4-2.2q.3-1.05.85 0 1.85 3.4 3.1 4.75l.05-1.3"/><path fill="#ba5400" d="M89.05 59.9q-8.3 8-15.65 10.6-4.15 1.5-13.05 2.85l-9.25 1q-1-.1-2.25-5.3-1.3-5.25-.35-6.4 1.85-2.35 4.55-4.4 3.1-2.4 6.55-3.85 8.4-3.45 18-3.8 6.5-.25 19.45.55-4.5 5.4-8 8.75"/><path fill="#0d131a" d="M82.8 60.85q-8.35 5.75-15 7.45l-8.9 1.65-5.5.4q-1.25-.05-1.6-2.05-.35-2 .5-3.15 1.5-2.1 4.9-4.4 4.3-3 9.25-4.4 5.8-1.65 13.15-2l9.8.35q-3.4 3.9-6.6 6.15"/><path fill="#ba5400" d="M50.85 65.45l5.05-.1-2.8 2.85 2.8-.15-2 1.5-1.4.9q-1.1.7-1.8-2.1-.7-2.9.15-2.9"/><path fill="#ed8599" d="M11.65 84.6q.1-1.05.85-2.25.85-1.4 2.1-2.05l1.45.7 1.7 1.15q1.8 1.5 4.2 2.8-.95 2.2-3.2 3.8-2.25 1.65-3.95 1.4-1.3-.2-2.15-1.75-.9-1.5-1-3.8"/><path fill="#922f00" d="M11.55 79.8l1.65-.1 1.65.55q-1.15.35-2.15 1.8-.75 1.1-1.2 2.45-.15-.55-.15-2l.2-2.7"/><path fill="#0d131a" d="M96.85 50.45l.9.3q.15.3-.45 1-11.2 13.3-20.55 18.05-9.2 4.65-24.45 4.95-1.4.05-1.35-.5 0-.55 1.4-.6 13.8-.3 23.75-5.35t19.95-16.8q-19.45-.95-29.25 1.3-9.6 2.2-17.05 9.25-.8.8-1 .35-.25-.45.5-1.3 6.6-7.3 16.8-9.65 10.45-2.35 30.8-1"/><path fill="#0d131a" d="M55.75 64.75q1.8.05.45 1.15-1.35 1.25-2.5 1.95l2.35-.25q.75 0 .7.3l-.65.8q-.85.65-3.05 1.7l-.65-.05q-.55-.1-.4-.2l1.2-.6L55 68.4l-1.9.2-.8-.1q-.05-.2.55-.85l1.95-1.85h-3.1q-.9-.05-.9-.3.05-.2.9-.4l4.05-.35"/><path fill="#0d131a" d="M88.85 54.05q1.05.1 1.15.45.05.35-.7 1.05Q81 63.8 73 67.1q-8 3.3-20.2 3.55-.95.05-.95-.3-.05-.3.9-.4 12-.85 19.9-4.1 8.05-3.35 15.7-10.75-13.15-1.3-23.75 2.55-8.3 3-11.9 7.55l-1.1.05q10.55-13.2 37.25-11.2M7.85 66Q9 63.3 10.6 61.85q1.6-1.55 2.9-1.05 1.15.45 1.15 2.95 0 2.25-.95 4.85-1.1 3.15-2.65 4.5-1.35 1.2-2.65.75-1.35-.45-1.55-2.65-.25-2.25 1-5.2m27.3 1.05q1.95.3 2.8 3 .9 2.85-.35 6.5-1.15 3.45-3.1 4.95-1.85 1.45-3.9.7-1.85-.7-2.55-2.95-.75-2.35.15-5.3 1.1-3.7 3.4-5.6 1.9-1.55 3.55-1.3"/><path fill="#fff" d="M12.8 61.9q.4.15.55.8.15.8-.25 1.9-.65 2.15-2.15 1.65-.45-.15-.6-.85-.15-.75.15-1.6.5-1.15 1.2-1.65.6-.4 1.1-.25"/><path fill="#0d131a" d="M14.45 59.1q-.55-.65-.3-1 .3-.35.9.2 1.1 1 1 3.2-.05 1.1-.25 1.1-.25.05-.4-1-.2-1.75-.95-2.5"/><path fill="#fff" d="M34.8 68.35q.7.15.95.95.3.85-.15 2.2-.4 1.2-1.15 1.75-.7.55-1.45.3-.8-.25-1-1.05-.25-.9.2-2.05.45-1.2 1.25-1.75.65-.5 1.35-.35"/><path fill="#0d131a" d="M33.7 64q1.15-.25 1.25.2.1.45-1.1.75-1.9.55-3 1.85-.8.9-1 .7-.25-.15.45-1.1 1.45-2.05 3.4-2.4M13.8 74.85q.2-.25 1.6.4 1.45.65 1.35.95-.05.3-.9.5t-1.15 0l-.75-.9q-.35-.75-.15-.95m4.6 8.4q-4-3.1-5.3-3.1l-1.4.05-1.35.1q-.8 0-1.25-.5-.55-.6-.35-1.55.15-.65.45-.6.25 0 .3.65 0 1.2.95 1.15l2.7-.2q.95.05 2.75 1.15l3.1 2.1q3 2.25 3.55 2.3l.85-.35q.45-.55.7-.4.25.1 0 .75-.4 1.15-1.7.9l-4-2.45"/><path fill="#0d131a" d="M11.05 79.85q0-.2.55-.2.5.05.5.25-.25 4.45.4 6.8.6 2.35 2.15 2.9 1.25.5 3.1-.7 2.05-1.35 3.65-4.15l.6.1q.45.25.35.45-1.8 3-4.35 4.45-2.15 1.2-3.6.7-1.65-.55-2.55-2.9-1.05-2.8-.8-7.7"/><path fill="#0d131a" d="M14.35 80.1q.3-.1.65.25.35.35-.05.4-1.05.2-2 1.65-.9 1.35-.85 2.45.05.65-.25.1-.25-.55-.2-1.2.2-1.2.9-2.2.8-1.1 1.8-1.45"/></svg>