<svg xmlns="http://www.w3.org/2000/svg" width="239" height="287" viewBox="-0.15 -0.05 239.0 286.7"><path fill="#5dc1cf" d="M19.9 189.65q-11.35-7.7-18.9-7.9 11.7-11.15 28.8-12.8 18.5-1.8 34.5 9.1-6.85-15.95-2.5-29.1 2.75-8.2 8.6-13.2 7.2-6.25 11.85-18 10.75 18 7.3 38.2-3.55 20.5-19.3 27.55l-2.85 3.15q-10.35 10.3-25.15 10-12.35-.3-22.35-7"/><path fill="#50a8b4" d="M1.3 181.85q9.55-3.3 24.9 4.7 6.65 3.45 18.55 3.25 12.25-.2 20.95-4.2l1.65.95q-4.55 5.05-12.05 7.8-7.9 2.85-16.9 2.25-7.05-.45-19.35-7.5-12.1-7.05-17.75-7.25m68.85 1.55l-1.05-.65q12.15-10.45 15.55-29.65 3.25-18.15-2.6-34.95 4.7 8 6.7 17.7 2.05 9.8.85 19.05-2.7 21.3-19.45 28.5"/><path fill="#0d131a" d="M77.25 129.15q-2.4 3.35-6.75 7.65-8.25 8.25-9.35 19.3-1.05 10.65 4.6 23.25l-2.2-1.6q-6.5-14.5-3.65-26.15 2.1-8.6 9.5-16 4.25-4.3 6.85-8 3.45-5 5-10.3.35-1.15.75-1.15.35.05.85 1.05 6.1 11.35 7.85 23.85 1.75 12.65-1.5 22.5-4.45 13.3-18.05 20.2l-1.55-.85q12.85-6.4 17.4-20.05 2.75-8.4 1.6-20.4-1.2-12.65-6.4-23.25-1.5 5.15-4.95 9.95"/><path fill="#0d131a" d="M21.55 191.85q-7.1-4.45-10.05-5.95-5.9-2.95-10.5-3.25-.85-.05-1-.45-.15-.4.45-.95 6.4-5.85 14.45-9.35 8.25-3.65 16.85-4.15 9.8-.6 18.65 2.25 9.35 3 16.05 9.45.65.65.4 1-.3.35-1-.2-8.05-5.95-16.45-8.4-8.1-2.35-17.55-1.8-17.55 1.1-29.2 11.3 4.7.45 10.35 3.25l9.55 5.5q9.9 5.95 21.6 5.55 13.25-.5 22.8-9.5l1.25.8q-10.1 10.3-23.75 11-12.05.65-22.9-6.1"/><path fill="#5dc1cf" d="M93.05 93.55Q94.9 89 99.15 83.5q3.45 4.65 9.4 9.2 5.15 3.95 9.5 5.85 2.3-5.9 7.15-13 4.35-6.4 7.3-9 7.2 1.85 14.95 10.15 7.35 7.8 8.75 14 .55 2.6.15 12.45-.45 10.5-1.65 13.2-1.45 3.45-9.85 11.05-8.95 8.1-13.5 9.05-4.7.95-15.7-2.5-10.5-3.3-14.05-6.4-3-2.6-6.75-12.55-2.9-7.7-4.6-14.8.05-9.8 2.8-16.65"/><path fill="#0d131a" d="M134.6 113.75q-1.6-7.35 1.95-12.7 3.6-5.4 10.7-6.25 3 4.6 3.15 9.35.15 4.35-1.95 6.6-1.75 1.95-5.5 2.9-4.2 1.05-8.35.1m-34 7.9q-2.55-1-4.05-4.35-1.55-3.6-1.25-8.55 5.1-1.85 10.1 1.1 5.15 3.05 6.5 9.25-1.55 1.9-4.85 2.75l-6.45-.2"/><path fill="#5dc1cf" d="M165.5 152.55q4.45 8.6 14.5 17 8.3 6.85 17.8 11.7 13.15 6.75 19.35 16.4 5.25 8.1 4.5 16.05-4.2 3.75-16.1 5.6-12.2 1.95-16.6-.85-5.25 4.1-10.9 7.05-5.45 2.85-9 3.55l-10.65.6q-4.95 15.8-13.85 33.5-1.7 3.35-4.25 5.25-2.6 1.95-4.45.95l-5.2.15q-4.65.3-5.35-3.9-.65-4.05 2.65-7 5.55-5.1 12-32.85-5.95-2.1-13-5.55-.1-1.5-.7-2.5-.5-.8-1.15-.95l-6.05-21.7q-4.3-16.2-4.35-26.65l50.8-15.85"/><path fill="#922f00" d="M124.7 139.75q-3.35-2.7-6.35-7.75 1.35-.75 2.7-2.45 1.55-1.9 1.95-3.8 3.05 1.25 6.1 1.8l4.9.25q.7 3.6.7 7.35l-5.65.5q-3.4 1.1-4.35 4.1"/><path fill="#ed8599" d="M124.6 139.9q.7-2.65 3.6-3.95 2.9-1.35 6.55-.55 0 2.15-.7 3.9-.85 2.15-2.45 2.65-1.7.55-3.4 0l-3.6-2.05"/><path fill="#00568a" d="M93.55 85.25Q92 87.9 90.9 91.05q-1.05 3.05-1.3 5.45-13.3-11.45-33.65-18.2Q36.8 71.9 12.5 70q15.6-2.7 40.7 2.25 23.85 4.75 40.35 13"/><path fill="#00568a" d="M172.55 63.3q-16.4 16.1-16.35 37.4-3.25-8.3-9.5-14.8-6.5-6.7-14.2-9.35-3.25 2.95-7.2 9-3.9 5.9-7.1 12.7-4.4-.75-10.2-5.6-4.4-3.75-8.85-9.15-3.75 3.95-6.2 10.55-2.85 7.8-2.6 16.55-3.75-12.95 3.5-25.4 7.1-12.2 19.85-15.95 9.45-2.75 19.95-.1 7.9 2 14.65 6.45 15-15.2 32.65-25.55 20.45-12 41.95-15.85-34.35 13.4-50.35 29.1"/><path fill="#fff8b0" d="M36.4 92q-1.4-9-8.35-14.7-5.75-4.75-14.55-6.7 20.1-.2 42.8 7.95Q77.25 86 89.45 96.25q-.65 5.9.9 14.35 1.45 7.8 3.75 12.95-8.2 1.15-14.9 3.9-7.4 3.15-11.15 7.65.5-14.3-7.2-26.5Q51.95 94.55 36.4 92m177.85-47.5q-2.9 6.55-1.25 14.4-13.5 10.25-18.65 23.7Q188.4 98 193.1 118q-5.8-5-17.15-7.7-9.4-2.25-19.5-2.35l-.1-5.9-.05-6.7q1-19 20.75-36 17.45-15.05 43.8-24.15-4.7 4.9-6.6 9.3"/><path fill="#fff" d="M85.9 73.05q1.65-3.7.75-7.3 5.55 1.15 10-2.45 4.1-3.3 4.2-7.7 4.75 1.9 12.65 0 8.05-1.95 11.95-6.2 4.7 5.3 11.1 5 5.3-.25 9.85-4.05 1.5 4.5 5.55 7.4 3.95 2.85 8.35 2.85.45 2.45 1.1 3.4-7.8 6.4-13.1 11.6-17.15-10.95-33.55-6.45-14 3.8-21.2 16.1-2.45-1.2-6.7-2.9Q82.6 80.7 80 79.9q4.15-2.9 5.9-6.85m84.7 36.1q6.7 1.2 11.1 2.9-.55 2.4.1 5.6.7 3.65 2.6 6.55-7.4 4.25-9.95 11.45-2.25 6.55.1 13.35-7 1.1-13.1 6.75-6.45 5.95-8.3 13.8-7.95-3.2-16.95-1.25-8.5 1.9-14.4 7.45-4.75-6.8-12.45-10.25-7.3-3.25-13.65-2-1.85-7.75-7-12.45-4.8-4.4-10.7-4.6.05-8.95-6.2-14.7 7.75-6.1 22.3-8.2 1.55 4.25 3.25 7.75 2.45 5.05 4.2 6.45 3.8 2.85 14.35 6.4 11.85 4 15.65 2.3 6.3-2.75 14.15-9.95 7.3-6.65 8.85-10.35 1.7-3.9 1.9-18.2 6.5-.15 14.15 1.2"/><path fill="#50a8b4" d="M142.75 265.95q-3.55 4.35-7.05 3.45-1.15.6-2.55.55-1.35 0-2.3-.55-2.7 1.15-4.65-1.55-1.9-2.65-.6-5.65.3.95 1.25 1.4l2 .05q.65 1.65 2.25 2 1.55.35 3.05-.7 2.05 2.2 6.05-.05 4.5-2.55 8-9.4-2.4 6.7-5.45 10.45m25.4-61.35q-1.3 5.35-.35 12.4.9 7.1 3.5 11.25-2.75 1.15-6.95 1.45-3.35.25-6.1-.1 5.9-16.45 9.9-25"/><path fill="#50a8b4" d="M167.65 209.4q1.7 6.75 8 9.35 6.2 2.55 13.2-.2-9.85 7.35-17.55 9.7-1.8-3-2.75-7.6-1.05-5.1-.9-11.25m-42.25-29.25q2.15 6.05 8 12.6 6.1 6.85 11.45 8.65l-1.65 8.65q-6.2-4.95-10.85-12.75-4.75-7.9-6.95-17.15"/><path fill="#00426f" d="M89.5 96.2Q77.25 85.75 56.95 78.75q-20.75-7.2-44.3-8.85 20.8-.6 42.3 5.35 20.8 5.8 35.7 15.85l-1.15 5.1m87.2-36.35Q156 77.25 156 99.9l-2.5-5.25q-1.6-3.15-2.6-4.5 4.2-17.95 25.6-34 19.8-14.85 45.2-21.7-30.5 13.15-45 25.4"/><path fill="#ddd698" d="M15.95 71.1q15.55-.95 38.25 6.7 22.95 7.75 35.3 18.4l-.35 3.75-.05 3.95q-1.75-1.3-7.55-4.15Q72.9 89.7 51.4 81q-18.85-7.65-35.45-9.9"/><path fill="#ddd698" d="M37.4 92.05q9.8-3.5 27.7 1.4 16 4.35 24.15 10.6.05 1.35.55 4.15l.85 3.9-7.05-.35q-3.65-7.95-19.85-14.45-15.4-6.15-26.35-5.25"/><path fill="#ddd698" d="M64.65 116q3.95-2.3 12.05-3.6 8.45-1.4 13.95-.3 1.2 5.85 3.3 11.6l-4 .6q-3.35-5.5-8.15-7.75-6.75-3.1-17.15-.55M165.7 84.4q-3.2 3.1-9.75 13.2.85-20.8 20.6-38.05 16.8-14.65 43.95-24.3-20.45 10.8-33.7 21.6-17.75 14.4-21.1 27.55"/><path fill="#ddd698" d="M167.2 95.65q-7 2.55-11 6l-.1-4.6q18.35-30.45 56.1-37.75-14.6 5.7-28.25 15.95-15.6 11.7-16.75 20.4"/><path fill="#ddd698" d="M191.75 93q-9.2.1-17 4.6-7.85 4.55-9.5 10.8l-8.95-.3-.1-6.45q6.75-5.15 16-7.5 9.75-2.5 19.55-1.15"/><path fill="#dbdcdc" d="M85.65 81.8q2.75-.2 4.55-2.1 1.75-1.85 1.6-4.25 4.85-.25 8.1-3.4 2.9-2.9 3.65-7.2 4.7 2.3 11.4.35 6.85-2 8.95-6.7 1.9 4.5 8.4 5.5 6.3 1 10.7-2.2.2 3.85 3.8 6.4 3.5 2.55 7.55 1.9l-5.8 5.45q-15.55-10.1-31.85-6.8Q101 72 93.55 85.5q-6.95-3.3-7.9-3.7m96.05 30.3q-7.45-1.35-11.1.9-3.25 2-2.5 6.05-4.75.85-6.6 6.85-1.85 5.95 1 10.8-6.05-.4-11.3 4.75-5.1 5-5.6 11.3-4.35-3.4-11.8-1.65-7.5 1.7-9.7 6.65-2.2-5.05-8.25-6.9-5.4-1.65-10.4-.1-.35-4.8-4.7-8.55-4.4-3.8-9.35-3.45-2.5-5.2-6.95-7.15-5.3-2.3-12.7.6 2.95-3.2 10.4-5.85 6.7-2.35 11.8-2.65 1.3 3.75 3.45 7.85 2.4 4.55 4 6 3.1 2.85 13.5 6.45 11.5 3.95 16.3 2.55 5.4-1.55 13.95-9.3 8.35-7.55 9.65-11.65.65-2 1.15-7.85.45-5.8.35-9.65 12.95-.4 25.4 4"/><path fill="#ce7486" d="M126.2 137.3q1.5-1.45 4.3-2l4.2.25-.5 3.95q-1.05-1.95-3.2-2.6-2.3-.7-4.8.4"/><path fill="#0d131a" d="M173.6 61.15q15.55-14.25 42.55-24.9Q200 39.75 181.9 50.7q-17.8 10.65-33.15 25.8l-.65.05q-8.35-5.9-18.55-7.25-10.3-1.4-19.2 2.25-8.8 3.6-14.8 12.35-6.55 9.6-5.5 19.85 1 9.35 5.25 20.55 4.1 10.85 7.1 12.9 4.9 3.4 14.45 6.4 10.15 3.2 14.45 2.1 4.2-1.1 12.75-8.65 8.7-7.7 9.85-11.6 1.05-3.55 1.5-11.7.4-7.4 0-11.25-2.15-22.7 18.2-41.35m48.8-27.8q1.8-.2 2 .4.2.65-1.5 1.3-23.8 9.1-38.5 19.7-29.25 21.05-27.1 47.65.5 6.45-.1 14.15-.55 6.45-1.4 9.5-1.2 4.15-10.55 12.15-9.1 7.8-13.55 8.95-4.8 1.25-15.65-2.1-9.95-3.05-14.75-6.4-3.2-2.2-7.5-13.45-4.5-11.6-5.5-21.3-1.2-11.35 6.35-21.75 6.45-8.85 15-12.35 9.05-3.65 19.6-2.35 10.55 1.35 19.05 7.25 15.15-16.65 35.7-27.9 19.8-10.85 38.4-13.45"/><path fill="#0d131a" d="M124.95 48.9l1.05.05q3.1 4.15 9.25 4.6Q141.7 54 146 49.7q.7-.7 1.05.25 1.4 4.15 5.35 7.05 3.85 2.8 7.95 2.85.6 0 .65.7.1 1.65 1.1 3.1l-1.2 1q-.45-.6-.8-1.6l-.4-1.8q-4.5-.15-8.2-2.75-3.9-2.7-5.35-7.1-4.45 4.15-10.5 3.95-6.25-.2-10.3-5.1-4.05 4.3-11.3 6.1-7 1.75-12.55.15-.8 5.2-5 8.15-4.05 2.8-9.05 2 .4 3.85-1 7.15-1.75 3.95-6 6.35l-1.65-.7q4.25-2.15 6.15-6.45 1.55-3.55 1-7.2-.1-.45.15-.65l.65-.1q4.1 1.35 8.4-1.5 4.4-3 5-8.05.05-.9.85-.65 5.05 1.75 12.55-.2 7.2-1.9 11.4-5.75"/><path fill="#0d131a" d="M96.75 80.8l-.8 1.1q-4-4.55-6.65-9.45-.6-1.1-.2-1.3.4-.25 1.05.85 3.25 4.95 6.6 8.8m10.7-9l-1.15.7q-1.15-1.8-2.35-4.9-1.2-3.2-1.65-5.65-.15-1.05.3-1.1.5-.1.7.95.4 2.05 1.75 5.2 1.25 3.05 2.4 4.8M123.9 68h-1.25q.45-10.3 1.3-14.4.3-1.35.75-1.25.45.1.25 1.5-.45 3-1.05 14.15m15.8 2.95l-1.2-.5q1.3-3.3 3.2-7.25 2-4.05 3.45-6.45.6-.95 1-.7.4.2-.15 1.2-3.15 5.65-6.3 13.7m-47.8 23.5q2.1-6.1 6.7-11.5.55-.6 1 0 3 3.9 8.35 8.45 5.95 4.95 9.65 6.15 7.7-15.55 14.35-21.7.25-.2.45-.15 6.2 1.6 13.3 8 8.3 7.45 10.5 16l.05 5.25q-1.5-9.55-9.7-18.15-7.15-7.5-13.9-9.35-5.8 5.45-14.1 21.5-.15.4-.6.25-4.05-1.05-9.95-5.8-5.55-4.4-8.8-8.7-5.25 6.35-7.05 14.6-1.35 6.05-.9 13.8l-1.4-4.55q-.05-7.95 2.05-14.1"/><path fill="#0d131a" d="M106.8 109.75q4.65 3.4 5.7 9.35.25 1.15-.2 1.25-.45.05-.75-1.05-1.35-5.25-5.5-8.3-2.5-1.85-5.5-2.2-3.05-.45-6.15.75l-1.15-.05q-.15-.45.8-.9 3.35-1.5 6.75-1.15 3.25.35 6 2.3"/><path fill="#0d131a" d="M112.25 119.7q-2.65 2.45-6.5 3-3.35.5-5.9-.65-2.7-1.2-4.1-5-1.45-3.85-.8-8.35l.95-.3q-.4 4.1.95 7.7 1.35 3.55 3.6 4.55 2.3 1.05 5.4.65 3.45-.4 6-2.5l.4.9m35.7-25.5q1.15-.05 1.2.4.05.45-1.15.6-6.7.8-10.4 5.85-3.75 4.9-2.8 12.45.15 1.1-.35 1.1-.45.05-.65-1.05-.6-4.1-.05-7.15.6-3.2 2.65-6.1 3.75-5.55 11.55-6.1"/><path fill="#0d131a" d="M146.7 94.85l1.1-.1q2.95 3.95 3.3 9.05.3 4.65-1.6 6.9-2.1 2.55-6.35 3.55-4.4 1.05-8.8-.2l.1-.95q4.4.8 8.2-.1 3.75-.9 5.65-3.2 1.7-2 1.35-6.5-.4-4.75-2.95-8.45m-25.2 26.35q-.6-.2-.65-.55-.1-.35 1.45-.7t1.65 0q.1.35-.35.8-.4.45-1 .55l-1.1-.1m18.35 3.1q.55-.55.85-.35.3.2-.15.85-2.4 3.4-7.5 3.7-4.6.2-9.6-2.05-1.9 5.05-5.3 6.3-3.05 1.1-5.25-1.35-.6-.65-.4-.9.25-.25.95.25 2.55 1.75 4.8.6 2.5-1.25 4.4-5.9.2-.5.65-.3 4.85 2.05 8.95 2.05 4.95.05 7.6-2.9"/><path fill="#0d131a" d="M133.25 127.8l1.35-.15q.95 5.9.65 9.1-.45 4.45-3.3 5.7-3.2 1.4-7.45-1.9-4-3.1-6.6-8.3l1.2-.65q2.45 4.85 5.9 7.8 3.75 3.25 6.5 2.05 2.25-1 2.55-4.6.2-2.9-.8-9.05"/><path fill="#0d131a" d="M125.05 140.1l-.85-.55q.7-2.75 3.95-4.15 3.15-1.4 6.65-.65l-.1 1.25q-3-.75-5.95.4-3.15 1.2-3.7 3.7M89.8 95.6l-.35 1.8Q75.6 85.9 55.6 79.1q-19.55-6.65-42.75-8.05-1.65-.05-1.75-.7-.05-.65 1.55-.95 16.5-3.2 41.75 1.75 23.85 4.7 39.95 13.3l-.95 1.7q-15.25-7.3-35.95-12Q34.55 68.9 18 70.1q21.45 1.45 40.35 8.25 18.4 6.6 31.45 17.25"/><path fill="#0d131a" d="M180.85 116.95q-.35-2.7.1-5.2l1.5.5q-.6 2.85.25 6.2.75 3 2.55 5.7.3.45-.15.7-6.95 3.6-9.7 10.35-2.7 6.75-.1 13.8.2.6-.4.65-6.75 1.1-13.45 7.55-6.7 6.5-7.55 12.75-.1.65-.7.35-6.2-3-15.95-1-9.7 2-15.2 7.35-.4.4-.75-.1-3.9-5.8-10.7-9.35-7.6-3.95-14.95-2.9-.45.1-.55-.35-1.25-6.25-6.3-11.4-5.35-5.5-10.95-5.35-.55.1-.5-.5.3-3.45-1.75-8t-4.7-6.25l1-1q3.05 1.7 5.1 6.2 2 4.35 1.75 8.25 6 .1 11.25 5.4 4.95 5.05 6.4 11.55 8.05-1.1 15.2 2.65 6.2 3.25 10.25 9.25 5.65-5.35 14.95-7.2 9.25-1.85 15.9 1.05 1.3-6.8 7.5-12.85 6.25-6 13.35-7.35-2.45-7.05-.15-13.45 2.55-6.9 10-10.95-2.05-3.3-2.55-7.05"/><path fill="#0d131a" d="M36.05 92.85q-.35-.05-.45-.45-.4-7.25-7-13.4-6.65-6.2-16.2-8.05l1.85-.85q9.65 1.95 15.85 7.75 6.2 5.8 6.85 13.45 13.75 2.25 22.9 14.45Q69 117.9 68.8 133.7q4.1-4.55 11.5-7.45 6.3-2.5 13.5-3.3l.65 1.3q-7.4.85-13.95 3.55-7.5 3.1-11.85 7.8-.6.65-.9.5-.25-.15-.25-1.05.2-15.5-8.95-27.7-9.1-12.1-22.5-14.5M167 117.95q5.95 1.05 10.15 2.45 1.15.4 1 .85l-1.3.1-10.15-2.2-10.55-1.3.15-1.3 10.7 1.4m1 22.45q.95.8.65 1.15-.3.4-1.3-.4-8.35-6.45-16.2-9.7l.85-1.1q4.3 1.8 8 4.15 3.65 2.3 8 5.9m-28.05 1.1l1.15-.9q1.2 3.4 4.35 9.95 3.25 6.65 5.7 10.7.5.95.15 1.2-.4.2-1-.65-2.7-4.05-6-10.6-3.1-6.15-4.35-9.7m-16.35 4.65l1.35.2q-.4 4.7-.2 21.9.05 1.5-.45 1.5-.45 0-.55-1.5-.7-15.1-.15-22.1m-13.05-3.9l1.3.45-10.35 15q-.6 1.05-1 .85-.4-.2.15-1.3 2.4-4.5 9.9-15m-11.55-8l.7 1.1q-9.55 4.75-13.7 7.45-1.15.75-1.4.35-.25-.35.85-1.15 4.45-3.2 13.55-7.75"/><path fill="#0d131a" d="M37.1 92.35l-.95-1.05q10.7-3.1 26.6.8 14.55 3.55 26.4 10.95l.2 1.75q-11.6-7.2-26.1-11-15.95-4.2-26.15-1.45m27.7 24.05l-.5-1.25q5.6-2.6 13.65-3.65 7.15-.9 12.75-.25l.25 1.6q-5.55-.6-12.6.2-8 .95-13.55 3.35m148.35-71.6q2.6-6.65 7.65-10.1l2.6-.2q-5.3 2.5-8.3 10.3-3 7.75-1.25 14.3.1.35-.15.5-14.25 11.2-18.9 24.95-4.7 13.8-.9 33.6.2.85-.25 1.1-.5.25-1.3-.45-5.65-5.05-17.1-7.75-9.3-2.25-18.6-2.25l.05-1.55q8.55 0 17.4 1.9 11.7 2.55 18 7.5-3.75-17.5-.05-30.4 4.45-15.4 20.05-27.45-1.75-6.9 1.05-14"/><path fill="#0d131a" d="M212.8 58.5l-.5 1.2q-18.95 3.8-34.15 14.65-14.9 10.6-21.95 24.95l-.25-2.5q6.95-14.15 22.65-24.75 15.7-10.55 34.2-13.55m-21 33.85l-.15 1.15q-9.7-1.35-20.95 2.05-9.7 2.9-14.45 7l-.1-1.75q5.1-4.25 14.8-6.9 11.05-3.05 20.85-1.55m-20.5 87.7q-.1-1.45.35-1.5.45 0 .65 1.45 1.65 11.05-4.1 26.7l-4.8 11.8q-2.8 6.65-3.65 9.7-4.6 16.1-14.65 35.55-1.65 3.2-4.3 4.85-2.65 1.65-6.95 2.1-3.6.4-6.1-.75-2.35-1.1-3.1-3.25-.65-1.85-.1-3.85.55-2.25 2.4-4.2 2.35-2.45 4-6 1-2.1 2.6-6.75 2.75-7.9 6.8-26 5.65-25.05 6.2-40.95.05-1.3.5-1.25.45 0 .5 1.3.15 16.1-5.4 41.45-3.85 17.35-6.9 26.15-1.6 4.45-2.8 6.9-1.75 3.55-4.2 6.15-2.45 2.6-1.95 5.75.5 3.05 3.05 3.55-1.15-1.4-1.3-3.3-.1-1.9.9-3.35.35-.55.7-.3.4.25.1.8-1.05 2.05.15 4.4 1.35 2.65 4.5 2.05-1.95-2.15-.35-6.25.25-.7.7-.55.45.1.25.8-1.05 4.65 1.05 5.45 1.55.6 3.75-.9 2.35-1.6 3.95-4.75 9-17.65 14.35-35.35l8.5-22.2q5.45-15.1 4.7-25.45"/><path fill="#0d131a" d="M133.55 194.35q-5.7-6.15-8.2-13.4-.35-1.15.05-1.3.4-.2.9.9 3 6.85 8.25 12.5 5.1 5.5 10.25 7.55l-.4 1.65q-5.55-2.2-10.85-7.9M113.7 168l1.85 1.15q.4 9.45 2.7 19.4 1.25 5.4 4.4 15.65 2.55 8.4 3.3 12.7l-1.8-.15q-.4-2.1-1.6-5.65l-2.15-6.45q-6-19.35-6.7-36.65m63.75 21.15q.85-.6 1.1-.25.3.35-.45 1-7.35 6.35-9.2 17.5-1.85 11.3 3.2 20.6l-1.8.75q-5.3-10.25-3.05-22.05 2.2-11.65 10.2-17.55m16.55 15.3q.6-.9.95-.7.4.2-.1 1.2-1.45 3.05-3.1 8.55-.35 1.25-.75 1.15-.4-.15-.2-1.45.4-2.3 1.25-4.65.9-2.6 1.95-4.1"/><path fill="#fff" d="M138.95 99.9q1.2-.45 2.5.75 1.2 1.15 1.7 3.05.4 1.55.1 3.05-.35 1.65-1.4 2-1.15.4-2.4-.65t-1.8-2.8q-.55-1.65-.25-3.25.35-1.7 1.55-2.15m-35.4 9.9q1.1-.2 2 .8.85.95 1.35 2.85.4 1.6-.05 2.95-.5 1.35-1.6 1.55-.95.2-1.9-.7-.95-.9-1.45-2.7-.45-1.65.1-3.1.5-1.4 1.55-1.65"/><path fill="#5dc1cf" d="M66.05 185.7q-2.1-1.15-.35-2.6 1.8-1.4 3.55-.25l3.5 1.9 39 25.9q30 22.05 57.3 18.4 2.8-.4 8.65-3.55 5.2-2.9 11.25-7.05 8.75-6.05 20.85-9.75 12.95-4 17.55-1.1 7.3 14.1 5.45 26.6-1.65 11.35-10.65 20.15-8.4 8.25-21.6 12.8-12.9 4.5-27.35 4.5-25 0-44.5-15.5-11.65-9.3-25.55-29.2-11.85-17.05-18.45-24.8-9.9-11.7-18.65-16.45"/><path fill="#00568a" d="M199.95 176.25l3.85-.4q1 .5 2.4 4.25 1.5 4.1 3 5.4 1.9 1.6 5.95 2 3.95.45 4.45.95.8.8 1.15 4.45.4 3.95.7 4.55.65 1.3 4.1 2.5 3.45 1.25 3.65 1.6.3.5-1.6 4.7-2.25 4.9-2.55 7.35-1.85 13.9-16.4 25-15.15 11.55-35.2 12.7-16.9.95-32.65-7.8-10.85-6.05-22.5-17.85-30.6-31-46.55-41.3l4.25-.25 3.45-.65q1.45.25 4.15 4.1 2.9 4.1 4.85 4.85l3.6-.25q2.15-.7 3.4.05 1.35.8 2.35 4.95.95 4.2 3.05 5.6l4.5.1q2.85-1.05 4.6 0 1.6 1.05 1.8 5.9.2 5.15 2.55 7.3 1.95 1.8 6.15 1t5.2.05q1.05.9 1.55 6.1.5 5 3.7 7.15 2.95 2 5.65.95 3.05-1.15 3.7-.95 1.7.65 3.45 5.05 1.85 4.55 4.4 5.9 2.6 1.35 5.75-.7 3.55-2.25 4.35-2.2 1.5.15 4.85 4.2 3.25 3.95 6 3.95 2.65 0 5.45-3.55 2.9-3.8 3.9-4 1.2-.25 5.6 1.9 4.2 2.1 7.25 1.1 2.9-1 4.1-4.85 1.25-4.05 3.05-4.85l5.85.25q3.75.95 6.3-.85 2.6-1.9 3-7.55.45-6.05 1.15-6.9.5-.55 3.1-1.3 2.8-.85 3.9-1.65.15-10.75-6.55-19.25-6.25-7.8-19.2-14.65-3-1.6-9.1-5.75-6.9-4.7-9.5-7.25l5.25-.3 4.25.2q1.2.5 3.55 3.9 2.4 3.5 3.9 4.3 2.4 1.35 5.65.75M108.05 41.2q3.75 23.8 8.5 40.05.95 3.25-2 4.8-3 1.5-4.1-2.55-4.35-16-6.9-42.8-2.55-26.95-.85-39.4 3.15 26.25 5.35 39.9"/><path fill="#fff8b0" d="M104.05 9.75q1.95 11.4 4.8 20.35 3.55 11.1 7.15 13.35-.8 7.2.45 13.6 1.2 6.3 4.1 10.75-3.6 4.4-4.45 11.4-3.7-9.8-7.65-35-3.25-20.4-4.4-34.45"/><path fill="#ddd698" d="M105.05 15.1q1.6 11.75 3.6 21.1 2.75 12.95 5.05 14.5-.1 6.2 1.05 11.65 1.2 6.15 3.55 8.85-2.2 4.75-2 9.25-3.75-11.7-7.7-33.8-4.15-23.25-3.55-31.55"/><path fill="#50a8b4" d="M68.1 184.3q9.9 5.6 24.75 21.25 12.05 12.75 21.4 25.45 10.75 14.6 27.7 21.6 15.65 6.45 34.2 5.6 16.35-.8 28.6-9.5 11.4-8.15 11.5-16.9 6.1-6.4 8.2-15.05l1.2-5.7q.65-2.65 1.7-3.75 9.25 15.6 4.3 31.8-5.6 18.3-27.55 26.7-33.5 12.9-61.8-1.2-20.6-10.3-36.65-33.7-13.05-19-19.75-27.2-11.35-13.9-19.7-17.8-1.55-.7-.65-1.6.85-.95 2.55 0"/><path fill="#0d131a" d="M127.05 221.45v-2q11 5.7 22.75 8.05 9.25 1.85 15.9 1.2 5.35-.55 12.05-4.1l10.5-6.4q.95-.65 1.2-.3.2.35-.65 1.15-4.4 3.85-10.2 7-7.2 3.95-12.7 4.45-6.75.65-16-1.15-11.8-2.25-22.85-7.9m-7.4-4.2q-3.95-2.5-7.8-5.6l-.25-2.35q5.3 4.3 10.6 7.45l-2.55.5"/><path fill="#0d131a" d="M66.15 186.45q-1-.55-.75-1l1.25.05q9.3 4.7 20.85 18.75 6.8 8.2 19 26.1 17.7 25.9 39.95 35.25 23.7 9.9 52.3.85 23.5-7.4 30.75-24.3 6.8-15.9-2.8-34.1l.8-1.9q11.35 19.95 4.25 37.3-7.4 18.05-32.05 25.6-57.3 17.6-94.8-37.45-13.15-19.25-17.75-25.1-11.1-14.05-21-20.05"/><path fill="#0d131a" d="M187.25 166.5q1.1.45 3.4 4.1 2.3 3.7 4.2 4.55l5.4.2 4.05-.25q1.4.75 2.4 4.5 1.05 4 3.25 5.65 2.05 1.55 5.9 1.6 3.65.05 4.4.8 1.05 1.05 1.1 4.75 0 3.85.75 4.9.85 1.15 4.4 2.15 3.3.95 3.5 1.75.3 1.1-1.7 5.45-2.3 5-2.65 7.9-1.4 11.4-12.55 21.8-10.25 9.55-23.2 13.45-20.3 6.15-39.9-1.05-16.45-6.1-30.95-21-33.2-33.9-49.65-44.15-.85-.55-.6-.95l1.2.05q8.85 4.65 24.1 18.55 10.5 9.5 26.15 25.45 14.85 15 31.35 20.55 18.3 6.2 37.6.45 12.15-3.65 21.95-12.1 11.35-9.8 12.9-21.15.45-3.25 2.5-8.05 1.85-4.25 1.75-4.6-.05-.2-3.1-1.25-3.2-1.1-4.15-2.45-.6-.9-1.05-4.9-.4-3.7-.95-4.15-.4-.3-4.05-.8-3.75-.5-5.85-1.95-1.95-1.3-3.4-5.3-1.45-3.8-2.25-4.2l-3.55.3q-3.2.45-5.75-.8-2.2-1.05-4.4-4.3t-3.35-3.8l-4.3-.2-5.05-.45-1.9-2.05q2.2 1.4 6.5 1.05 4.65-.4 5.55-.05"/><path fill="#0d131a" d="M79.85 182.6q1.75.4 4.5 4.65 2.8 4.2 4.2 4.6 1.4.4 3.45-.4l3.45-.15q1.75.65 2.85 5.4 1.1 4.85 3 5.7l4.1-.25 4.6-.2q2 .75 2.25 6.25.3 5.8 2.6 7.45 2 1.4 5.65.75l5.35-.15q1.65.75 2.05 6.1.4 5.6 3.4 7.65 2.25 1.55 5.2.5 3.3-1.2 4.2-.85 1.6.6 3.6 5.65 1.9 4.9 4.45 5.6 2.5.7 5.35-1.35 3.05-2.15 4.45-1.95 1.4.15 4.8 4.45 3.25 4.1 5.65 3.95 2.6-.15 5.2-3.7 2.7-3.75 4-4.05 1.5-.35 5.8 2 4.15 2.25 6.95 1.25 2.6-.9 3.9-5 1.4-4.3 3.2-5.2 1.55-.75 5.45.4 3.75 1.1 6-.1 3.05-1.65 3.2-7.5.15-6.35 1.3-7.45.65-.6 4.75-1.8 3.3-.95 4.55-4.1.35-.95.8-.85.45.1.2 1.05-.9 3.85-4.45 5.25-3.7.85-4.5 1.7-.75.8-1.25 7.3-.5 5.85-4 7.6-2.65 1.3-6.4.5l-4.9-.3q-1.25.55-3.05 4.8-1.8 4.05-4.45 4.95-3.2 1.05-7.35-.9-4.25-2.05-5.15-1.85-.9.2-3.95 3.75-2.9 3.4-5.8 3.55-2.9.15-6.15-3.7-3.45-4.05-4.5-4.2-1-.15-3.9 1.7-2.8 1.75-5.9 1.05-3.15-.7-5.2-5.5-2.05-4.8-3.3-5.2-.65-.2-3.85.7-2.8.75-5.85-1.05-3.2-1.9-3.85-7.35-.6-5.4-1.45-5.85-.95-.5-4.65-.05-3.65.45-6.25-1.05-2.5-1.4-3.05-7-.55-5.55-2.05-6.3l-3.8.2-4.5-.1q-2.5-1.25-3.55-5.75-1-4.4-2.45-4.9l-3.05.1q-2 .5-3.55.05-2-.6-4.7-4.55-2.7-3.9-4.05-4.25l-3.3.55-3.95.2-1.55-1.85q2.3 1.25 5.25.3 3.3-1.05 3.95-.9M103.3 1.05q2.2 20.5 6 43.5 4.25 25.8 7.6 36.3.4 1.25-.05 1.35-.45.15-.9-1.05-3.95-10.65-7.8-33-3.7-21.3-5.25-40.85-.15 16.85 2.05 38.8 2.3 23 5.8 36.65.3 1.1-.1 1.3-.45.15-.85-1.05-5.2-16.4-7.5-43.35-2.2-25.65-.15-38.6.2-1.1.6-1.1.45 0 .55 1.1"/><path fill="#0d131a" d="M102.8 5.35l.5-4.35q1.55 11.95 4.65 23.65 4.15 15.5 8.5 18.45.3.2.2.5-1.1 4.1.35 12.45 1.5 8.6 4.1 11.45.3.3 0 .65-1.95 2.6-3.15 5.8-1.4 3.8-1 7l-1.3-1.8q0-5.95 3.95-11.3-2.8-3.4-4.2-12.05-1.25-7.9-.3-12.05-3.9-2.9-7.2-14.15-2.55-8.85-5.1-24.25"/><path fill="#0d131a" d="M115.35 42.8l.05 3.1q-1.95 7-1.55 16.45.3 6.75 2 16.1l-2.3-8.05q-1.15-7.5-.95-13.35.25-7.45 2.75-14.25m84.1 140.9q-11.95-6.65-18.55-11.85-10.4-8.25-16-18.45l1.4-.85q5.5 9.95 15.85 17.9 5.85 4.5 18.35 11.45 10.05 5.6 16.2 13.85 6.95 9.3 5.6 18.05l-1.55 1.15q1.55-8.8-5.25-17.8-5.95-7.85-16.05-13.45"/></svg>