<svg xmlns="http://www.w3.org/2000/svg" width="241" height="240" viewBox="-0.3 -0.45 240.65 240.1"><path fill="#fccf00" d="M198.35 61.05q-1.8 2.6-4.2 7.35-2.4 4.75-3.55 7.95 1.75-1.4 4.65-3.15-2.65 4.5-5.45 13-2.4 7.25-2.9 10.7 8.8-8.85 21.2-18.15 11.15-8.35 18.65-12.35l-25.05 41.3q6.25-2.2 17.75-5.35-3.5 2.35-8 6.5-4.1 3.75-7.7 7.75l6.35-.25 5.9.95q-1.6.5-4.15 1.85-2.25 1.2-3.85 2.25 1.35.5 3.3 1.7 1.95 1.2 3.2 2.2l-4.2 1.45q7.15 2.65 15.65 7.25 7.95 4.3 12.65 7.8-5.2-1.4-17.35-2.4l-17.1-.75q3.85 3.15 8.75 8.2 4.15 4.35 7.35 8.25-4-1.95-11.7-3.95l-11.45-2.5q6.1 8.1 10.85 15.4-1.35-.85-3.5-1.35l-3.15-.5 2.3 3.15q1.45 1.95 2 3.2-1.35-1.05-5.35-3 1.05 1.45 4.6 8.65-2.55-2.05-8.55-6l-8.9-5.6q-.4 4.05 2.3 10.85 2.5 6.2 4.6 8.15 1.6 1.5 2.1 3.6l.25 3.5q0 4.2 1.45 33 .3 5.5-3.65 8.7-3.4 2.7-8.35 2.8-3.95.05-6.4-1.55-2-1.3-2.25-3.1-.65-4.35 3.5-8 2.8-2.45.45-12.8-2.05-8.95-4.65-13-8.6-2.3-15.75-11.05-5.8-7.15-8.5-15.45-.7.4-1.45.75-.5 2.85.35 7.35.75 3.95 1.8 6 .9 1.65.85 3-.05 1.05-.75 2.35-1.45 2.75-6.85 15-5.25 12.1-7 16.6-.9 2.35-1.7 3.4-.85 1.15-2.2 1.65.05 8.25-3.55 11.55-2.7 2.5-8.15 2.5-3.75 0-6.05-1.4-1.8-1.1-2.3-2.7-.5-1.75.55-4.4.65-1.6 2.65-5.15 1.25-2.15.65-12.25-.5-7.45-1.35-13.2-.5-3.1-2.5-8.65l-3.9-10.05q-5.85-.05-10.85-2.5-3.6-1.75-7.3-5.1-.95 3.55-2.15 11.75-1.15 7.65-1.15 9.4 0 3.65-1.45 7.8-1.2 3.6-9.95 24.45-1.8 4.3-4.7 6-3.25 1.9-8.25.8-2.7-.6-4.45-2.05-2.05-1.6-2.1-3.7-.05-2 1.85-4.65 1.45-2 3.5-3.7 2.8-2.4 5.1-12 1.7-7.2 2.4-14.3.3-3.25 0-11l-.75-14.55 79.8-78.9 4.7.6 3.65.8.85-5.35 3.4-1.5 1.45 8.5q1.8-4.4 4.4-8.75 2.15-3.7 4.15-6.15-.7 2.6-1 7.35-.25 4.2-.1 7.3 6.8-10.25 13.45-18.1 6.95-8.2 12.25-12"/><path fill="#fff" d="M179.6 104.3q-4.8.45-12.3 2-7.15 1.45-13.05 3.1 4.1 1.55 10.7 5.4 5.75 3.4 9.5 6.2-7.75-2.15-23.4-2.95 3 1.9 6.55 6.3-1.4-.55-4.4-1.15l-5.45-1q5.25 2.95 14.25 11.25 7.15 6.55 12.1 12l-16.35-4.7-18.55-5.6q1.75 2.35 4.15 6.6l4.05 7.3q-4.45-2.3-9.6-6.3 1.2 2.1 3.45 8.3L145.2 162l-8.15-7.45-7.55-6.6q1.55 5.25 3.55 16.4 1.85 10.45 2.5 16.8l-9.4-14.65-9.65-15.05q-.05 2.35-1.2 8.65-2.45-2.7-4.8-8.6-1.25 4.4-1.95 17.6-.6 11.6-.45 20.7-4.5-8.15-8.5-21-3.15-10.2-5-19.8-3.7 4.7-13.4 22.25 0-3.2.5-8.65l1-8.2q-4.05 4.05-11.5 13.1-5.9 7.15-10.65 13.4.9-8.35 4-19 2.75-9.45 5.95-16.8-5.35 2-14.45 7.95-8.4 5.5-13.6 10.05 2.05-6.65 7.4-15.5 4.3-7.15 8.75-12.65-4.8 1.3-11.6 6.45 2.4-6.85 5.35-12-5.05.7-10.7 2.2-5.7 1.6-9.7 3.4 2.75-3.95 8.85-9.5 6.05-5.55 10.75-8.4-6.9-.5-15.55.25-8.7.75-14.4 2.4 6.7-5.25 15.2-9.1 7.65-3.45 14.1-4.6-2.9-2.5-8.7-5.7-5.15-2.9-9.75-4.85l9.65-.9q5.15-.2 9.45-.05-3.25-2-9.95-7.25l12.35-1.05q-5.65-3.4-10.8-7.95-4.35-3.85-7.35-7.55 3.9.4 10 .2l7.7-.65 15.15-13.25-.9-9.8L73 52.8q3 2.8 4.9 4-.25-5.2.3-10.9.5-5.5 1.4-7.95.65 2.1 2.3 5.65 1.65 3.55 3.55 6.85l.65-1.1 1.1 2.7q3.85-7 8.15-12l.05 5.2q.1 3.45.35 5.4l7.95-1.55q2.4-3.6 7.45-9.1l6.45-6.85q-.55 2.35-.75 8.8-.15 6.2.1 11.45l1.7-1.1-.5 1.35q2.65-2.1 6.9-4.9l6.25-3.85q-1.75 3.65-3.1 11.8l19.95 13.8q4.05-.4 12.05-.25-3.25 1.65-8.2 4.85-4.25 2.75-6.25 4.3 6.25-.45 13 0 6.35.4 10.1 1.4-4.65 1.55-9 3.75-4.3 2.1-6.75 4.1 5.5.95 9.5 2.2L150 94.3q7.1 1 17.05 4.5 9.05 3.2 12.55 5.5"/><path fill="#fccf00" d="M211.95 1.55q-2.1 5.75-9.3 18.3-8 13.95-15.4 23.85l4.85-.4q2.75-.1 4.35.05-7.9 7.45-26.55 17-16.15 8.3-31.9 14.15l6.8 1.1q-2.55 1.75-7.7 4.2-5.55 2.7-8.95 3.65l.15 6.6q5.9-1.8 10.4-2.4-1.95 2.75-7.8 8.7 2.45.55 6.35 1.9l6.05 2.25q-2.65 1.35-13.65 5.35l4.4 4.95 4.1 4.85-10.8-2.45.4 6.5q-2.7-1.8-5-4.2-6.9 4.8-16.45 8.45-9.75 3.7-15.4 3.6-4.8-.05-14.45-5.55-9.45-5.35-9.3-7.4l-4.65 3.15 1.7-6.55-11.9 1q3.2-3.15 8.8-6.4-7.25-3.8-9.85-6.45 3-.85 10.85-1.3-1.85-3.15-4-7.8l6.1 2.4q-.35-4.7.7-12.25-5.05-1.35-9.35-3.3-4.05-1.85-5.65-3.45l9.45-.6q-9.3-3.85-23.05-12-15.2-9-20.6-14.55 4.15 1.45 8.7 1.2Q17.2 37.3 10 22.85 2.9 8.5 1.15 1 9 3.05 28.5 14.35q18.8 10.9 23.3 15.45 4.95 5 21.8 36.4l1.2-6.75q1.9 2.15 3.3 5 1-3.25 3.45-7.75 2.15-4 4.35-7.05 2.1 3.35 4 10 2.75-5.2 7.45-11.05 2.2-2.75 7.3-8.35L103.1 59.5q1.8-2.15 4.5-4.4l-.2 5.3q4.2-4.35 11.25-8.1-1.1 2.7-1.8 6.65-.55 3.15-.7 5.7 1.95-1.55 5.3-3.2 2.9-1.4 4.75-1.95 13.3-21.25 17.75-25.9 9.6-9.8 32.45-20.2 21.3-9.6 35.55-11.85"/><path fill="#0d131a" d="M69.35 85.15q5.85 1.65 9.55 6.35 4.1 5.2 3.85 12.35-3 .65-6.85-.75-3.8-1.3-5-3.3-1.3-2.1-1.9-6.35-.6-4.7.35-8.3m34.9 9.25q5.15-7.4 17.25-8.8.3 3.95-.8 8.95-1.15 5.2-2.9 6.9-2.15 2.1-6.6 2.85l-9.35-.3q.2-3.4.65-5.3.55-2.6 1.75-4.3M22.7 34.55q-6.75-12.25-10.1-20.7 7.55 3.05 18 9.2 11.7 6.85 16.15 11.5 4.5 4.65 11.6 15.5 6.4 9.7 10.1 16.9-1.75-1.55-4.4-3.35-2.45-1.6-4.3-2.5.5 1.7 2.05 4.25l2.9 4.1Q55.9 66.3 45.85 60q-8.95-5.6-13.1-9.8-3.2-3.3-10.05-15.65m165.4-2.9q-8.85 14-14.25 18.6-6.15 5.25-22.25 13.15Q138 70.15 127.55 74l3.2-4.3 3.15-3.85q-5.7 1.9-9.35 4.2 18.3-28 23.75-33.35 6.05-6 23.5-14.55 17.35-8.5 27.55-10.5-3.75 8.1-11.25 20"/><path fill="#fff" d="M77.1 90.35q.8.05 1.5.85.75.9 1.2 2.4.6 1.9.1 3.35-.4 1.25-1.35 1.45-.95.25-1.85-.85-.95-1.1-1.3-2.9-.3-1.65.2-2.95.55-1.4 1.5-1.35m31.4.3q1-.6 2.05.8 1.15 1.5.95 3.9-.15 1.65-.9 2.7-.85 1.15-2.1 1.1-1-.05-1.75-1.3-.7-1.2-.75-2.65 0-1.85.6-2.85.45-.85 1.9-1.7"/><path fill="#dab300" d="M1.25 1.05q1.3 2.55 4.95 6.6 3.45 3.75 6.15 5.8 3.2 8.2 9.45 19.65 6.05 11 9.85 15.9 3.45 4.45 14.25 10.9 9.7 5.75 18.7 9.4-1.45-1.85-2.85-4.45-1.35-2.6-.7-1.8l3.45 3.8 4.9 4.8q1.15 1.1-.9 2.85t-3.2 1.3q-9.75-4.1-23.5-11.65-17.85-9.75-24.75-16.3 4.15 2.1 9.3 2.55-7.45-10.55-15-25.25-8.1-15.6-10.1-24.1m84.45 48.8q1.65 1.9 4.2 10l-1.95 3.3q-.35-4.35-2.25-13.3m-10.9 10.2l1.9 2 1.75 2.6q-.35 1.05-1.05 1.05-.7 0-.95-.9l-1.65-4.75m-24.7 13.7Q58.9 77 65.55 77.7l-.45 2.55q-4.2-.55-9.15-2.95-3.95-1.9-5.85-3.55m53.45-22.5q-.25 5.55-.2 8.5-.5.9-1.55.8-1-.1-.95-1.05.2-3.7 1.1-9.1 1.1-6.4 2.4-9.75-.5 4.3-.8 10.6m3.95 4.05q-.15 2.8-.15 5.7-.55.55-1.15.25-.65-.35-.45-1.15.75-2.75 1.75-4.8m10.8-2.6q-1.55 4.25-2.15 12.4-.75.6-1.6.25-.95-.4-.75-1.45.25-2.2 1.5-5.45 1.4-3.75 3-5.75m9.5 27.5q3.05-.2 8.6-1.85l8.3-2.95-8.5 4.75q-5.25 2.65-8.15 3.3l-.25-3.25m78.65-73.45q3.6-2.8 5-4.75-4.3 12.5-24.25 41.6l-2.55-.05q-1.05.1-2.35 1.6-1.3 1.55-.7 2.15.45.4 6.45-1.15l8.2-2.45q-9.4 8.85-32.1 19.7-19.8 9.5-36.95 14.85-1.95.65-3.9-.5-1.9-1.05-1.5-2.05.3-.75 4.6-3.85 4.8-3.4 5.8-4.55l-2.75 3.8-2.55 3.2q11.6-4.55 24.9-11.05 14.9-7.3 20.4-11.65 5.3-4.2 14.65-18.2 8.8-13.15 12.7-21.95 3.65-2.15 6.9-4.7M58.55 90.4q2.15 3.5 4.95 6.2.65.65.3 1.3-.35.7-1.5.65-2.85-4.8-3.75-8.15m-7.05 8.8q6.85 3.5 10.3 4.5.95.25.95 1.15-.05.8-.9 1.25-6.55-3.2-10.35-6.9m1.85 12.45q5.8-2 12.45-2.6.45 3.15 1.3 5.7-1.65 1.3-4.5 2.9l1.85-6.4-6.3.55-4.8-.15m85.05-24q-2.95 4.05-7.95 9.15-1-.35-1.2-1.25-.2-.85.5-1.35l8.65-6.55m3.75 12.75q-7.15 3.75-12.95 5.75-.9-1-.65-1.9.2-.9 1.4-1.1l12.2-2.75M138 115.45q-4.6-1.2-11.2-2.35-.05-.85.4-1.3.65-.65 1.9-.25 1.8.55 4.25 1.6 3 1.25 4.65 2.3m-13.55-1.5q1.05 2.85 3.25 5.6-3.6-2.3-5.1-4.1l1.85-1.5m26.2 47.75l.8 3.05 1.1 3.5q-2.9 2.15-8.7 5.1-5.35 2.7-8.55 3.85l-1.45-10.2q8.95-1.15 16.8-5.3M103 178.85q-5.15-2.2-10.15-6.5-5-4.35-7.4-8.65 4.25-7.95 9.1-15.05 1.05 5.6 3.7 14.9 2.45 8.7 4.75 15.3m7.8-.7l-2.55-4.85q1.2-14.7 2.35-21.35 1 2.55 5 8.3l.95-8.85 7.65 12.15 9.4 14.25q-.25 2.8.1 6.5-11.7-17.25-15.2-23.55 0 3.15-1.05 8.95-2.95-3.9-5.1-8.4-.55 3.55-1.05 8.9-.5 5.35-.5 7.95"/><path fill="#dab300" d="M144.1 160.95l1.6 5.45-7.9-7.35-7.2-6.5-1.2-4.85 14.7 13.25M138 143l7 4.85 2.9 5.85-7.65-4.95L138 143m31.55 1.15q1.75 1.6 5.15 5.75l-15.05-4.65-17.3-5.25-3-4.9q3.15 1.25 13.15 4.15l17.05 4.9m-16.8-20.9q3.45 2.7 5.75 5.45l-2.7-.45-7.65-5.85 4.6.85m13.05-3.75q5.2 2.9 9.25 5.95-5.65-1.35-18.8-2.75l-5-4.75 14.55 1.55m7.3-14.2l3.85 1.65 3.2 1.55q-13.1 2.25-19.45 4l-6.4-3q3.3-1.15 8.95-2.4l9.85-1.8m-18.85-12.25q4.4.7 8.95 2.05l-4.1 1.35-9.15-2.15 4.3-1.25m-46 79.85q.8 1.35 3.45 7.7l-3.8-.5.35-7.2m80.1-3.85q-2.15-1.5-6-3.65-3.75-2.1-6.6-3.35l1.55 2.8 1.45 2.95q-2.1-1.55-6-2.85 1.95 2.65 3 5.35-3.1-3.65-9.4-8.7-6.9-5.45-13.35-9.1 2.7.3 9.8 3.95 6.3 3.2 10.35 5.95l-3.2-5.25q1.9.9 5.95 2.4-.8-1.9-2.55-4.75 2.25.9 7.5 3.9l6.75 4.1q-.2 1.55.75 6.25"/><path fill="#dab300" d="M172.05 161.7Q168 159 162 156.15q-5.95-2.8-8.85-3.45-1.5-.3-.7-1.35.85-1.05 2.4-.55 4.1 1.35 9.2 4.4 5.85 3.55 8 6.5m-5.3-8.6q6.25 3.4 8.5 6.25l-5.55-2.3q-1.6-2.55-2.95-3.95m22.4 10.5q-11.25-6.75-16.8-9-1.35-1.35-.55-2.1l2.8.1q5.5 2.45 15.2 9.05 10.45 7.15 14.85 11.95-5-3.75-15.5-10m8.55 1.3q-.9-.5-.25-1.2.6-.7 1.7-.25 2.3.9 4.95 3.75l-6.4-2.3m2.75-2.75q-.55-.6-.4-1.3.25-.75 1.55-.5 2.95.6 5.6 3.2-2.2-1.05-6.75-1.4m18.75-7.85q-3.35-1.5-10.45-3.3-6.75-1.75-11.65-2.4l-2.1-2.75q5.5.75 12.65 3.05 8.15 2.65 11.55 5.4m-15-15.65l-3.4-2.95q7.6-.05 19.1 1.45 13.55 1.8 18.05 4.25l-16.85-2.05-16.9-.7m9.95-13.3q-1.4.9-3.6 1.35l-7.25-2.35 10.85 1m1.2-8.15q-6.4 3.25-7.75 4.6-1-.45-1.1-1.1-.2-.8 1.1-1.4 3.3-1.45 7.75-2.1m2.35-14.1q-2.8 2.2-7.35 6.75-4.3 4.3-6.9 7.35-1.05.25-1.55-.5t.2-1.75q1.95-2.6 6.45-6.1 4.8-3.7 9.15-5.75m-5.85-17.4Q222.1 70.5 226.9 66q-16.95 27.55-25.4 41.85l-4.6 1.75q5.8-10.35 14.95-23.9M195.2 73.1q-2.25 3.5-4.9 11.4-2.3 6.75-3.6 12.4-1.95 1.6-3 2.85 2.65-9.75 4.75-15.2 3.2-8.25 6.75-11.45m2.6-11.55q-1.45 2.15-3.75 7.05-2.25 4.75-3.6 8.45-1 .75-1.55 0t-.1-1.85q1.15-2.65 3.75-6.6 2.65-4.05 5.25-7.05m-24.05 15q-.55 2.1-.9 6.75-.3 4.25-.3 7.9l-1.95 2.95q.4-12.25 3.15-17.6m-11.4 7.05l1.7-.75 1.75 10.45q.25 1.6-1 1.45-1.2-.2-1.3-1.45l-1.15-9.7m-90.2 92.8q0-3.5-.75-9.2 3.4-4.8 11.5-12.9-1 4.3-1.55 16.75.45-1.1 4.1-7.35 1.1 2 3.7 5 2.3 2.7 4.25 4.45-1.25 4.3-2.3 12.4-.9 6.85-.9 9.45 0 1.9-.35 3.6l-1.4 4.3-4.35 10.55q-3.8 9.05-4.95 12.2-2.15 5.95-7.05 7.55-3.9 1.2-7.8-.45-3.2-1.35-4.45-3.2-1.35-1.9-.15-3.8.85 3 6.4 3.5 5.75.55 8.6-2.8 1.1-1.25 3.45-7.65l3.55-9.9q3-8.25 3.15-13 .25-8.5-3.55-14-3.6-5.2-9.15-5.5m60.2-.1l1.25 1.5q-.65 1.6.45 9.9 1 7.8 1.85 9.85.6 1.45.25 11.75l-.8 17.8q-.45 12.2-13 11.25-3.85-.3-5.75-2.45-1.85-2-1-4.25 1 3.85 7.5 3.1 6.6-.8 7.95-6.05 1.25-4.95 2.05-16.45.75-11.15.2-13.9-.6-2.9-.9-8.75-.35-6.75-.05-13.3"/><path fill="#dab300" d="M135.05 192.45q-.75-3.15-1.15-7.65-.35-3.95-.3-7l1.9 2.5-.2-3.1q5.3-1.95 15.8-8-.4 3.2.3 7.2.65 3.9 1.9 6.2 1.05 1.95.55 3.75l-1.4 2.95q-2.55 5.1-6.95 15.7-3.8 9.05-5.65 13.9-1.55 4.35-4.35 5.35l.4-6.05 2.75-6.55 2.3-7.7q.9-3.2-1.1-7.4-2.05-4.4-4.8-4.1m54.1-19.95l2.15 4.55q1.7 3.15 3.2 4.9 1.5 1.7 1.9 3.25l.25 2.8.6 14.9.85 18.8q.25 6.3-4.4 9.5-4.4 3.05-10.4 1.75-3.45-.75-5.05-2.9-1.55-2.05-.5-4.25 0 2.3 2.55 3.25l5.65.25q3.35-.7 5.55-2.75 2.5-2.3 2.45-5.65l-.25-29.2q0-4.95-1.45-7.7-1.8-3.45-3.1-11.5"/><path fill="#dbdcdc" d="M68.55 56.7q-.1-6.8-.4-9.25 2.35 6 3.55 15l-3.15-5.75M79.8 38.35q.1 13.1.6 17.35.1 1.25-.85 1.95l-1.95-.05q.05-5.45.5-10.4.6-6.3 1.7-8.85M95.5 50.9l-2.65 3.7q1.1-10.8 2.4-14.45l.25 10.75m22.05-18.25q-.45 3.65-.7 10.1-.25 6.8.05 10.6-2 1-3 1.8.15-6.35 1-12 .95-6.5 2.65-10.5m10.8 23.3l-2.3 3.65q-1.75.5-3.85 1.35 4.6-10.6 8.65-15.6-1.1 3.1-2.5 10.6m31.8 14.35q-5.65 3.05-14.8 9.3l-5.05.9q-1.15.05-.9-1.05.25-1.05 1-1.4l4.95-2.8 7.1-2.6q5.05-1.7 7.7-2.35m.35 14l-7.5 4.3-2.2.15q-1-.2-1.05-1 0-.8.75-1.15 3.15-1.55 8.8-3.45 6.2-2.05 9.1-2.3-3.85 1.35-7.9 3.45m-13.85 9.3q11.2-3.15 15.85-2.85-6.15 1.4-11.95 3.65l-3.9-.8m20.8 12.7q-8.1 1.6-13.15 3.2-2.55-1-5.9-2.05 8.05-2.05 15.2-3 10.35-1.45 16.1-.15l-12.25 2m-4.5 11.1q7.3 1.65 10.15 3.1l-12.9-1.6-9.85-.7q-1.2-.75-.6-1.7.55-.95 1.95-.85 4.15.15 11.25 1.75m-21.1.75q2.9.55 7.6 2.25 5.55 2.05 7.85 3.75-6.05-1.55-9.35-1.8l-6.1-4.2m-4.65 13.6q8.65 1.8 19.05 5.45 11.8 4.1 17.05 7.7l-17.15-4.65q-12.65-3.55-17-5.35l-1.95-3.15m-1.7 5.4l12 11.8q-6.05-3.4-9.55-6.15l-2.45-5.65m-7.8 4.35l8.75 9.4q6.35 7.1 8.25 10.4l-15.3-13.6-1.7-6.2m-11.65 9.6q.1-1.5 1.45-1.55 1.4-.1 2.3 1.4l7.95 13.4q5.55 9.85 7.55 15.6-3.6-4.85-10.35-15.3l-8.9-13.55m-.5 8.65q-1.3-1.25-2.95-3.95-1.55-2.5-2.5-4.65.1-1.1 1.15-.95 1.1.1 1.45 1.4l2.85 8.15M93.3 143.9q-.2-2.25 1.7-1.85 1.85.35 2.15 2.95.65 5.7 4.5 20.8 3.3 12.9 6.3 22.85Q102.5 178.2 98.6 165q-1.75-5.9-5.3-21.1"/><path fill="#dbdcdc" d="M81 171.1q2-6.95 5.6-14.35 3.55-7.45 7.1-12.05l.9 4.35q-2.2 2.85-6.55 10-3.9 6.35-7.05 12.05m-8.85-4.8q-6.25 7.55-11.5 14.65 2.95-7.85 11.15-18.5 7.25-9.4 12.45-13.45l-1.35 5.3q-3.85 3.7-10.75 12m1.1-26.85l-2.7 5.45q-6.2 2.55-15.05 8.5-7.3 4.85-13.05 9.65 4.3-6.75 15.15-14.35 8.05-5.65 15.65-9.25m-26.1 2q2.6-3.9 6.2-6.5 3.8-2.75 9.3-4.5-1.5 1.4-3.7 4.15-5.4 1.7-11.8 6.85m-3.8-10.25q-6.9 1.55-10.65 3 4.65-3.15 10.05-5.1 4.9-1.8 9.4-2.3 1.4-.15 1.7.8.2.9-.6 1.95-2.9.05-9.9 1.65m9.05-13.8l-12.55-.4q-9.8.35-16.6 1.85 7.2-2.9 15.4-4.05 7.6-1.1 12.7-.25 1.55.25 1.95 1.25.4.95-.9 1.6m-8.7-18.5q6.4 2.95 10 6.75l-2.7.4q-4.15-3.3-9.55-6.25-4.75-2.6-9-4.2 5.1.45 11.25 3.3m-1.25-11.6q2.95 1.95 7.05 4.05l6.7 3.35-4.45-.15-5.65-3.6q-2.25-1.75-3.65-3.65m2.7-7.15q-7-5.9-8.4-9.3 4 3.55 9.7 7.6 5.95 4.2 9.95 6.3 1.45.75.9 2.3-.5 1.5-2 .6-4.55-2.75-10.15-7.5M65.2 116.2l1.9-1.45q.65 1.2 3.25 3.4 2.85 2.4 9.8 5.65 7.4 3.45 11.25 3.8 4.3.4 14.6-3.5 10.75-4.05 16.6-8.65l2.35 2.4q-4.65 5.95-16.35 11.05-11.3 4.95-17.85 4.4-6.25-.5-14.65-6.15-8.35-5.6-10.9-10.95"/><path fill="#0d131a" d="M88.6 110.95q-.05-.6 1.7-.6 1.8.05 1.75.6l-.75.75-1.05.3-1-.35-.65-.7m-31.35-20.5q-.85-1.7.9-.9l5.35 2.2q-.45-6.5 1.15-12.95.35-1.3.8-1.25.5.1.25 1.4-1.25 7.65-.85 14l-.1.65h-.55q-2.25-.75-4.95-2.1l3.4 6.4.05.5q-.05.2-.4.2l-10 1.05 4.5 3.05 4.9 2.7q.85.4-.05.9-3.6 2.1-7.35 5.1l10.15-.85q.75-.1.5.6-.7 2.95-1.6 5.4l3.5-2.4.45 1.05q-1.95 1.7-4.75 3.05l-.65.1q-.2-.15 0-.65l1.65-5.85-11.25 1q-1.7 0-.4-1.25 1.8-1.85 8.35-5.7-6.6-3.15-10-6.25-.95-.9.3-1.1l10.6-.95-3.9-7.15"/><path fill="#0d131a" d="M66.35 109.8q.9 4.5 2.25 5.9 3.15 3.25 11.55 7.2 7.95 3.8 11.1 3.9 5.05.2 14.95-3.5 10.7-3.95 17.2-9.1.8-.65 1.05-.3.3.3-.45 1-6 5.6-17.2 9.9-10.15 3.9-15.6 3.65-3.3-.1-11.65-4.1-8.7-4.2-12.05-7.65-1.45-1.5-2.1-6.7-.1-1 .3-1.1.45-.1.65.9m2.25-24.2q-1-.25-.65-.6l1.45-.1q3.5.7 6.85 3.15 3.45 2.55 5.15 5.85 2.1 4.15 1.7 9.6-.05 1.05-.4 1.2-.35.15-.4-.8-.4-5.9-2.15-9.45-1.6-3.15-5.1-5.7-3.15-2.3-6.45-3.15"/><path fill="#0d131a" d="M69.15 85.15l1.05.35q-1.25 3.2-.5 7.95.65 4.05 2 6.1 1.05 1.55 4.35 2.9 3.7 1.45 6.65.95l.05.9q-3.65.65-7.35-.7-3.45-1.2-4.85-3.2-1.55-2.2-2.15-6.65-.7-5.1.75-8.6m43.25 3.25q-4.25 1.85-6.65 5-2.95 3.75-3.4 10.75-.05 1.05-.45.8-.35-.25-.4-1.45-.1-2.45.6-5.3.85-3.45 2.5-5.65 2.55-3.3 7.3-5.25 4.8-2.05 10.25-2 1 .05 1.05.5 0 .4-1 .45-5.5.25-9.8 2.15"/><path fill="#0d131a" d="M120.1 94.25q1-4.65.8-8.45h1q.45 4-.6 9-1.1 5.1-2.85 6.95-2.45 2.7-8.05 3.4-5.1.6-8.55-.6v-.95l8 .35q5.35-.7 7.6-3.2 1.55-1.7 2.65-6.5m-40.55 20.6q-.5-.85-.15-1.05.3-.25.85.55 2.05 2.9 5.95 1.85l4.75-.85q2.45.05 6.95 1.35 1.75.55 3.55.05 2.1-.55 3.25-2.5.45-.8.8-.6.35.2-.05 1-.85 1.95-2.65 2.9-2.05 1.15-4.75.5-4.95-1.2-6.6-1.25l-5 .65-4.05-.15q-1.85-.65-2.85-2.45m49-23.45q-.2 1.8-.6 1.8-.45 0-.4-1.8.05-4.4-.4-10.6-.05-1.25.4-1.25t.65 1.2q.85 5.85.35 10.65m-97.4-42q-3.8-4.55-10.75-17.45-6.6-12.3-8.55-18.05-.45-1.4.95-.85 7.6 3.1 18.3 9.6 11.3 6.85 16.05 11.6 4.6 4.6 12.2 16.3Q66.4 61.4 69 67.1q.25.6 0 .8-.25.15-.7-.3-3.35-2.95-7.45-5.2 1.8 3.95 4.4 6.85.6.6.45.85-.15.25-.8 0-7.6-2.65-18-8.75-11.45-6.8-15.75-11.95m26.05.05q-7-10.25-10.95-14.3Q42.4 31.2 31.6 24.5q-10.5-6.5-18-9.7Q16 21 22.3 32.55q6.5 11.95 9.85 16 3.8 4.65 14 10.95 9.4 5.85 17.05 8.85-2.85-3.4-4.05-7.05-.25-.75-.05-.9l.8.1q3.65 1.75 7.2 4.95-3.2-6.2-9.9-16"/><path fill="#0d131a" d="M52.8 29.4q3.45 3.7 10.95 17.1 6.7 11.9 11.05 21.4.6 1.25.2 1.45-.4.2-1.05-1.05-5.1-10.05-11.4-20.9-7.65-13.25-11-16.75-4.8-5.1-22.5-15.25Q11.65 5.4 2.2 2.2 4.9 11 12.35 25.45 19.2 38.6 26.1 49.15q.75 1.1.4 1.4-.3.25-1.15-.85-7.6-9.8-15.2-24.35Q2.6 10.9.1 1.25-.3-.45 1.35.1 10.9 3.4 28.2 12.9q18.9 10.4 24.6 16.5"/><path fill="#0d131a" d="M24.4 47.3l.6 1.3-7-.85q7.05 6.05 22.6 14.85 13.8 7.85 24.1 12.25 1.15.5 1 .9-.15.45-1.35 0-10.55-4.05-26.1-12.9-16.8-9.55-23.2-15.8-.7-.7-.5-1.1.2-.4 1.15-.15l4.2.95 4.5.55M211.6.7l1.35.15q.25.3-.1 1.15-4 8.95-11.05 20.9-7.85 13.35-14 20.7l-1.7.15q5.5-6.6 13.45-20.35 6.65-11.5 11-20.7-13.8 2.2-34.4 11.85-21.4 10.05-31.5 19.7-2.25 2.1-10.65 14.55-8.55 12.7-14.4 22.7-.5.85-.95.65-.4-.25.1-1.1 6.15-11.25 14.55-24.1 7.8-11.9 10.2-14.2 10.3-9.8 32.8-20.15Q197.85 2.65 211.6.7"/><path fill="#0d131a" d="M184.75 43.5l6.3-.9q3.4-.25 5.75-.1.75.05.85.5.1.4-.45.9-10.1 9.2-34.7 20.95-22.9 10.95-34.55 13.35l-1.45-.05q-.05-.35 1.35-.75 14.3-4 33.45-13.25 21.4-10.35 33.8-20.3l-10.25.55q-1 .1-1.05-.3-.05-.35.95-.6"/><path fill="#0d131a" d="M186 33.55q8.6-12.75 12.45-21.05-11.5 3.05-27.7 11.15-15.7 7.85-21.45 13.1-4.5 4.05-22.95 31.7 3.6-1.9 7.8-3.15l.75.05q.15.25-.3.7-2.4 2.65-5.4 6.6 12.95-5.1 24.95-11.15 11.85-6 17.4-10.2 5.05-3.75 14.45-17.75m-15.05-11.6Q187.7 13.6 199.5 10.7q1.5-.35.9 1-3.45 8.1-12.45 21.65-9.8 14.75-15.45 19.1-6.05 4.65-18.9 10.9-12.3 5.95-26.15 11.15-.55.2-.75 0-.2-.2.2-.75 3.35-4.45 5.35-6.65-3.8 1.4-7.6 3.55l-.8.15q-.2-.2.15-.8 18.8-29.15 24.4-34.25 6.45-5.8 22.55-13.8M85.3 49.15q.45-.6.75-.6t.6.55q1.85 3.65 3.6 10.05l-.8 1.35q-1.35-4.9-3.55-9.6-2 2.85-4.05 6.75-2 3.8-3.25 7.05l-.5.45-.55-.35q-1.05-2.3-2.35-4-.65 2.65-1.05 6.85l-.95-1.9q.45-4.4.95-6.8.3-1.3 1.15-.2 1.35 1.7 2.65 4.1 3-7.4 7.35-13.7"/><path fill="#0d131a" d="M103.85 39.9q.85-.85 1.2-.75.35.1.25 1.35-1.1 9.5-1.55 17.45l3.3-3.35q1.45-1.1 1.3.65l-.4 3.85q4.6-4.45 10.35-7.45 1.55-.8.95.75-1.65 4.4-2.45 11.05 5.3-3.55 9.9-4.95l-.85 1.6q-4 1.45-9.55 5.1l-.75.2q-.2-.15-.15-.75.6-6.55 2-10.85-5.25 2.95-9.9 7.25-.85.8-.8-.35l.3-4.35-3.6 3.55-.55.3q-.25-.1-.25-.6v-.05q.45-10.15 1.1-17.15-4.05 4.15-8.1 9.7-4.2 5.7-6.8 10.75-.45.9-.85.7-.4-.15 0-1.1 2.3-5.5 7.15-12.2 4.4-6.15 8.75-10.35m-18.15 10l-.8 1.35q-3.1-5.45-5.05-11-1.35 7-1.35 17l-.3.65q-.3.15-.7-.2-2.9-2.3-4.55-3.85L68.8 49.5l.7 8.85-1.55-2.55-.95-8.15q-.2-3 1.65-.7l4.2 4.75q2.05 2.2 4.35 4.05-.25-11 1.5-17.9.7-2.9 1.65-.15 2.25 6.4 5.35 12.2"/><path fill="#0d131a" d="M103.8 48.25q4.8-7.35 13.1-15.65 1-.95 1.3-.85.3.15.1 1.5-.6 4.55-.85 10.25-.25 5.65 0 9.4l-1.25.7q-.3-3.35-.2-9 .1-5.65.55-9.3-7.4 7.1-12.8 15l.05-2.05m27.1-4.15q1-.6 1.25-.4.3.2-.15 1.3-1.9 4.9-3.2 10.65l-1.75 2.6 1.25-6 1.5-5.6q-7.3 4.4-12 8.25l.45-2q6.4-5.15 12.65-8.8m4.75 31.3l2.7-.85 7.15.3q.95 0 1 .35.05.35-.8.9-7.8 4.9-17.8 7.85v-1.1q8.3-2.75 15.6-6.95l-7.85-.5"/><path fill="#0d131a" d="M143.55 79.8q9.2-6.2 14.1-8.85l-12.3.65 3.2-1.45 11.5-.65q1.4.05 1.5.45.05.4-.95 1-6.5 3.65-14.25 8.55l-2.8.3"/><path fill="#0d131a" d="M168.6 79.75q1.25.25 1.35.85.05.55-1.25 1-6.45 2.25-14.85 7.1l-2.4-.15q6.85-4.5 14.9-7.55l-13.4-1.1-12.3.65q-.95.1-1-.3-.1-.4.85-.6 5.75-1.3 14-1.25 7.85.1 14.1 1.35"/><path fill="#0d131a" d="M163.05 90.1q.75.25.8.65.05.45-.9.75-7.8 1.9-11.8 3.1l-2.6-.55 11.5-3.3q-4.65-1.3-8.65-1.85-1.15-.15-1.15-.55.05-.4 1.2-.35 5.35.1 11.6 2.1"/><path fill="#0d131a" d="M164.75 106l12.3-2.2q-5.3-2.7-15.15-5.7-9-2.8-14.55-3.75-1.05-.2-1-.6.05-.4 1.15-.3 5.65.4 16.4 3.65 11 3.3 15.95 6.15 1.2.7 1.2 1.25t-1.25.65l-12.3 1.9q-8.05 1.45-12.75 2.85l-1.8-.75q4.4-1.55 11.8-3.15"/><path fill="#0d131a" d="M163.1 113q8.05 4.1 12 7.5.85.75.75 1.1-.1.4-1.25.2-11.65-2.4-21.8-3.1 3.85 2.95 5.6 5.35 1.15 1.55-.65 1.1-7.15-1.95-9.05-2.25l-1.85-1.45q5 .7 8.95 1.75-3.1-3.35-5.45-4.9-.5-.3-.4-.55.05-.3.7-.3l10.05.7 10.8 1.6q-4.8-3.35-11-6.6-6.75-3.55-11.35-4.85-1.15-.3-1-.75.1-.4 1.25-.15 5.55 1.4 13.7 5.6m-24.95 30.65l-.75-2.1q3.5 2.75 8.15 5.65-4.1-7.6-8.2-14.15-.7-1.1-.35-1.35.4-.3 1.15.85 5.7 8.15 10 16.15.7 1.3.35 1.65-.3.3-1.35-.3-4.5-2.7-9-6.4"/><path fill="#0d131a" d="M135.2 138.05q-.55-.95-.15-1.2.35-.25.95.8 1.85 3.25 4.95 10.9 3.1 7.55 4.85 13.25.4 1.15.05 1.4-.4.2-1.2-.6l-14.9-13.9-.5-2.1 14.15 12.85q-5.95-17-8.2-21.4"/><path fill="#0d131a" d="M127.45 142.6q-.3-1.1.1-1.3.35-.15.8 1.05 2.35 6.8 5 19.4 2.65 12.65 3 19.1.1 1.45-.3 1.6-.4.15-1.2-1-4.1-5.95-9.6-14.7l-8.4-13.8q-.25 5.15-.65 7.65-.15.9-.55.95-.4.05-.85-.7-2.35-3.5-4.05-7.45-1.05 7.75-1.7 18.95-.7 12.1-.2 17.25.1 1.45-.35 1.65-.5.2-1.25-1.1-4.45-7.7-8.7-22.25-4.1-13.7-5.3-24-.15-1.1.3-1.2.4-.05.6 1.05 1.7 9.3 5.1 20.95 4 13.55 7.9 21.35-.35-4.55.55-16.25.95-12.05 2.3-18.65.1-.5.4-.55l.5.45q1.75 3.75 4.15 7.45l.9-7.55q.05-.45.3-.55l.55.35 17.65 27q-.75-7-2.9-17.85-2.1-10.5-4.1-17.3"/><path fill="#0d131a" d="M80.8 172.6q-.4-.05-.35-1.55.15-13.25 3.15-21.45.35-.9.75-.8.4.15.15 1.1-2.05 7.7-2.5 18.3 4.7-8.95 12.55-20.5l.35 1.7q-2.85 4.35-7.1 11.6-3.65 6.1-5.95 10.4-.65 1.25-1.05 1.2"/><path fill="#0d131a" d="M72.55 140q.55-.9.9-.65.35.2-.1 1.1-4.25 8.1-7.45 19.6Q63.35 169 62 177.7q5-6.65 10.9-13.55 5.85-6.85 10.35-11.35l-.35 2.1q-6.4 6.65-21.1 25.95-2.5 3.25-1.85-.95 4.3-26.45 12.6-39.9"/><path fill="#0d131a" d="M70.95 143.9l-.7 1.65q-5.55 2.75-13.55 8.1-7.6 5.05-13.65 10-1.2 1-1.55.5-.3-.45.25-1.8 3.5-8.9 9.1-17.75 6.4-10.1 13.15-16.05.75-.65 1-.3.3.35-.35 1-5.8 5.85-11.5 14.8-5.4 8.35-8.8 16.35 5.35-4.6 13.55-9.55 6.9-4.15 13.05-6.95"/><path fill="#0d131a" d="M52.65 105.45q1.1-.1 1.15.3.05.45-1 .6-13.7 2.35-27.4 11.7 6.05-1.4 14.35-1.7 7.1-.3 12.5.2.45.05.55.3.1.3-.35.55-8 4.65-17.7 15.55 3.8-1.45 9.4-2.7l8.8-1.6.6.15-.15.6q-1.9 2.65-4.85 10.15 3.2-2.45 6.3-4 1.8-.9 5.3-2.25l-1.4 1.85Q53 137.85 47.8 142q-1.35 1.05-1.7.85-.35-.25.25-1.9 2.3-6.45 5.05-10.75-4.4.7-9.5 2.1-5.45 1.5-9.35 3.15l-1.55.15q-.3-.4.55-1.45 9.4-11.3 18.25-16.6l-13.6.45q-8.4.75-14.05 2.3l-1.5-.15q-.2-.5.85-1.35 4.85-3.9 13.05-7.75 10.05-4.75 18.1-5.6"/><path fill="#0d131a" d="M31.9 96.3q-1.3-.45-1.2-.9.05-.45 1.4-.6l12.35-.9 11 .45q1 .15.95.6-.05.45-1.05.35L35 96q8.25 3.35 16.9 10.05l-1.65.2q-3.55-2.6-8.6-5.4-5.35-2.95-9.75-4.55"/><path fill="#0d131a" d="M52.8 94.55l-2.1.05q-5.75-3.25-9.65-6.6l-.8-1q.05-.3 1.05-.3l12.2-.7 1.4.9-11.5 1.15q4.55 3.65 9.4 6.5"/><path fill="#0d131a" d="M35.25 71.35q-.75-1-.6-1.25l1.35-.15q8.45.75 17.05-.05l1.7 1-17.2.75q5 6.3 18.1 15.15.8.55.6.95l-1.1-.15q-6.85-4-12.2-8.4-5-4.15-7.7-7.85"/><path fill="#0d131a" d="M58.9 73l1.85.7-9.45.55q5.15 3 13.85 5.5l-.1 1.25q-10.95-2.95-16.1-6.7-.95-.65-.8-1 .1-.35 1.15-.3 5.7.35 9.6 0m100.7 11.95l1.7-1.1-1.15 6.4-1.3-.5.75-4.8m6.25 8.15q.1 1.1-.3 1.2-.4.05-.6-1.05l-1.8-10.2 1.3-.55q.9 4.9 1.4 10.6"/><path fill="#0d131a" d="M173.2 75.85q.75-.9 1.1-.85.45.05.2 1.4-1.1 6-1.35 14.2l-1.25 1.65V86l.7-6.65q-1.95 2.75-3.7 6.05l-3.55 7.45-.4-2.15q3.45-8.95 8.25-14.85"/><path fill="#0d131a" d="M191.95 71q1.35-3.05 3.8-7.05-6.25 5.65-13 14.25-4.2 5.35-11 15.25-.8 1.15-1.15.9-.35-.25.35-1.45 14.1-23.2 26.8-32.55 1.35-1 1.65-.6.3.4-.6 1.75-4 6.05-6.95 13.1 1.8-1.45 2.9-1.95 1.15-.6 1.4-.35.3.25-.4 1.45-2.4 4.15-5.1 11.75-1.9 5.5-3.3 10.7l-1.7 1.8q3.4-14.6 8-23.1-2 1.2-3.05 2.15-.55.5-.75.4-.25-.15 0-.9 1.1-3.35 2.1-5.55"/><path fill="#0d131a" d="M227 67l-12.45 20.95-12.15 19.6-2.35.9q8.95-14.05 24.3-39.8-8.2 4.55-21.2 14.95-12.55 10-19.45 17.25-.85.9-1.25.6-.45-.35.35-1.3 6.65-7.85 20.9-19.15 13.8-10.95 22.15-15.2 1.35-.7 1.65-.5.35.2-.5 1.7"/><path fill="#0d131a" d="M218.75 101.75l1.95.05q.1.45-1.25 1.45-7.95 5.95-14.25 12.65l5.35-.25 5.65.8q1.05.25 1.1.6.05.4-.9.85-5.7 2.5-7.4 3.45 3.4 1.35 6.15 3.15 1.25.9-.15 1.45l-4.2 1.05-1.65-.8 3.9-1.1q-2.6-1.95-5.55-3.25l-.3-.4.3-.45q2.75-1.9 6.2-3.45l-5.25-.65-4.95.35-.65-.15q-.15-.25.2-.6 3.8-4.35 6.15-6.65 3-2.95 6.55-5.7-11.5 3.05-21.75 7.1-1 .4-1.15 0-.2-.4.8-.85 11.7-5.35 25.1-8.65"/><path fill="#0d131a" d="M204.85 139.1l-1.15-1.15 15.5.6q10.45.8 16.8 2.1-7.15-4.7-15.65-8.85-9.3-4.55-16.75-6.75-.85-.2-.7-.65.1-.45.95-.25 8.25 1.85 18.7 7.05 9.25 4.6 16.4 9.75 1.4 1 1.2 1.35-.2.3-1.7 0l-17.2-2.2-16.4-1"/><path fill="#0d131a" d="M201.15 136.55q-.75-.65-.5-1 .2-.3 1.1.3 4.7 3.4 10.35 8.8 5.7 5.5 8.85 9.75 1.75 2.35-1.2 1.2-9.55-3.85-22.35-6.45l-1.05-1.45q14.6 2.95 21.8 5.55-5.15-6.1-17-16.7"/><path fill="#0d131a" d="M192.65 143.55q-.65-.95-.4-1.2.25-.3 1.15.75l7.8 9.8q5.15 6.8 7.3 10.65.6 1.05.4 1.3l-1.2-.15q-3.25-1.5-5.5-2.05 2.7 3.4 3.75 5.45.9 1.9-.95.8-5.05-2.95-6.95-3.7l-1.25-.85q-.3-.45.65-.25 3.4.85 6.85 3.1l-1.8-2.35-2.4-2.85q-.7-1 .6-.85 1.75.2 6 1.8l-7.05-9.85-7-9.55"/><path fill="#0d131a" d="M199.1 165.1l2.1 1.1q2.25 3.15 4.15 7.25 1.45 2.95-1.15 1.05-6.25-4.5-15.2-10.1-8.75-5.45-14.8-8.65l2.65 4.15q.4.8.2.95l-1-.25-6.15-3.15-1.3-1.75 6.45 3.15-2.7-3.95q-.65-.8-.45-1.1.2-.3 1.1.15 6.45 3.2 15.25 8.5 9.05 5.5 15.4 10.1-1.25-2.55-4.55-7.45"/><path fill="#0d131a" d="M165.45 152.4q-.7-.85-.45-1.1.3-.3 1.05.55 5.7 6.05 8.25 10.75 1.4 2.6-1.15 1.05l-9.6-5.7q-6-3.4-10.2-5.05-1-.4-.9-.75l1.15-.05q6.65 1.8 18.95 9.9-1.65-2.75-7.1-9.6m-13.2 15.05l.6 1.55q-8.85 5.7-17.5 9.15l-.15-1.9q9.65-3.95 17.05-8.8"/><path fill="#0d131a" d="M186.6 162.45l1.7.6q.35 5.75 2 9.95 1.7 4.5 5.6 9.1 1.1 1.3 1.45 2.95.3 1.25.2 3.15-.25 5.3.45 17.35l.85 16.7q.1 3.65-2.05 6.7-2.3 3.3-6 4.3l-7.45.35q-4.45-.7-5.95-3.25-1.3-2.15-.6-4.8.75-2.85 3.75-5.75 2.1-2.05.2-11.1-1.65-7.8-3.85-12.05l-.75-1-.9-.35q-9.35-3.15-15.85-11.95-6.6-8.85-9.55-22.6-.3-1.4.2-1.5.5-.15.85 1.25 3.8 13.65 9.8 21.8 6.15 8.35 15 11.4l1.25.5 1 1.3q2.6 4.75 4.3 13.2 1.9 9.7-.55 12.1-2.6 2.5-3.35 4.8-.8 2.3.3 4.05 1.2 2.05 5.2 2.6l6.5-.35q2.7-.75 4.85-3.85 2.1-3 2-5.8l-.8-17.35q-.75-14.85-.65-16.95.1-1.6-.15-2.5-.25-1.1-1.25-2.3-3.55-4.2-5.7-10.35-1.85-5.35-2.05-10.35"/><path fill="#0d131a" d="M182.55 232l-2.65-.3q-.65-1.35-.25-3.15.4-1.9 1.75-3 .65-.55.95-.25.25.3-.3.95-1.2 1.25-1.15 3.25 0 2.1 1.65 2.5m7.3.1l-3 .9q-1.45-.85-1.65-2.95-.25-2.3 1.4-4.05.4-.45.75-.15.35.25-.05.75-1.35 1.9-.6 3.85.8 2.05 3.15 1.65m-81.9-50.95v-1.7l3.05.35.85 1.7-3.9-.35m-5.25-3.05l.85 2q-5.65-2.05-10.7-6.3-5.15-4.3-7.9-9.4l.8-1.35q2.85 4.6 7.3 8.65 4.7 4.25 9.65 6.4"/><path fill="#0d131a" d="M115.15 192.15q-2.1-6.6-6.75-17.2v-4.75q9.95 22.65 10.85 33.15 1.8 19.1-.05 22.1-3.3 5.4-3 8.15.35 3.15 5.55 3.95 5.95.9 9.25-1.7 3.15-2.45 3.4-7.65 1.3-27.6.75-30.3-3.15-14.55-2.55-21.35l1.55 1.85q-.15 4.75.8 10.6l1.95 9.15q.45 1.85-.1 12.9l-.9 17.4q-.25 6.1-4.35 8.75-3.75 2.45-10 1.7-5.5-.65-6.6-4-1.25-3.7 3-10.2 1.05-1.6.65-9.15l-1-12.2q-.45-4.95-2.45-11.2"/><path fill="#0d131a" d="M119.2 237.65q-1-1.05-.95-3.2.1-2.4 1.6-3.85.55-.55.9-.3.35.25-.2.85-1.4 1.8-.8 4.05.55 2.15 2.15 2.4l-2.7.05m8.9-.3l-2.7 1q-1.6-.85-1.8-3.55-.2-2.8 1.6-4.2.6-.5.85-.2t-.25.9q-1.4 1.6-.55 4 .85 2.5 2.85 2.05m22.2-67.7l1.7-1.05q-1.1 6.95 2.35 14 1.25 2.65.05 4.95-6.15 11.2-14.9 34.1-.45 1.2-1.6 2.25-1.15 1.05-2.5 1.6l-.2-2q2-.9 2.75-2.7 10.95-26.8 14.8-33.9.55-.95.5-1.8l-.55-1.8q-1.5-3.1-2.15-6.75-.65-3.6-.25-6.9M70.75 232.8l-2.5.65q-1.4-1.15-1.5-3.55-.15-2.8 2.05-4.45l.75-.1q.25.3-.15.8-1.7 1.9-1.05 4.45.65 2.5 2.4 2.2"/><path fill="#0d131a" d="M71.35 193.2q.7-9.85-.8-25.15l1.65-1.95q.55 4.3.8 13.8.25 9.6-.1 13.35-.2 3.15-1.15 8l-1.65 8.1q-.85 3.8-2.7 7.15-1.6 2.8-3.45 4.45-3.7 3.35-3.9 6.1-.25 2.65 2.95 4.4 4.2 2.25 8.05 1.25 5.05-1.25 7.75-8.1l9.05-22.7q1.4-3.2 1.4-6.2 0-2.9 1.1-10.2 1.05-7.25 2.4-13.55l1.5 1.45Q91 188.05 91 195.85q0 3.8-1.55 6.9-2.7 5.35-9.15 22.6-2.6 7.15-8.55 8.6-4.75 1.15-9.45-1.4-3.55-1.9-3.75-4.85-.3-3.6 4.45-7.9 4-3.7 5.55-10.85l1.65-7.1q.75-3.55 1.15-8.65"/><path fill="#0d131a" d="M64.8 232.25l-2.55-.45q-.85-1.4-.7-3.25.2-2.15 1.8-3.65.65-.55.95-.25.3.25-.25.9-1.4 1.6-1.1 3.85.3 2.2 1.85 2.85m67.05-136.2q7.85 2.3 11.75 3.9 1.55.65-.05 1.35-4.6 1.9-12.85 4.8l8.05 9.05q.65.7.45 1.05l-1 .1q-3.75-1.15-10.25-2.4l.35 6.15q.1.55-.15.7l-.65-.25q-3.15-2.4-5.35-4.85l.75-.7q2.25 2.35 4.2 3.65l-.35-5.45q0-.75.7-.6l8.85 1.85-7.1-8.1q-.6-.65.15-1 7.3-2.75 11.7-4.7-5.15-2.1-10.45-3.7-.85-.3-.3-.85l7.05-7.6q-5.15 1-9.05 2.3l-.05-1.3q5.4-1.7 10.8-2.7l1.1.1q.15.25-.5 1.05-3.3 3.85-7.8 8.15M96.05 40q-.1 5.8.1 10.05l-1.2 1.6q-.3-4.4-.3-9.65-4.05 5.05-7.05 11l-.8-1.4Q91 44 94.65 39.65q.65-.8 1.05-.65.35.15.35 1m78.65 104.8q.8 1.05.65 1.4-.2.35-1.5 0-19.4-5.2-34.05-10.35l-1.05-1.6q6.05 2 32.95 9.65-5.95-6.55-15.1-14.15-8.85-7.4-14.35-10.6-.95-.55-.75-.95.2-.4 1.2.15 6.6 3.5 16.7 11.75 10.35 8.5 15.3 14.7"/></svg>