<svg xmlns="http://www.w3.org/2000/svg" width="298" height="253" viewBox="-0.1 -0.1 297.5 252.5"><path fill="#e95520" d="M206.7 3.85l.1 2.8-.1 2.9 8.5-4.6q-2.7 3.4-7.7 11.75l-9.1 15.45-12.4 22.1q-8.55 15.55-11.65 19.7-3.65 5-15.65 11.15-10.4 5.3-21.1 8.7 1.75 23.3-8.35 35.8-6.15 7.65-21.3 12.6-13.7 4.5-21.35 3.3-10.85-1.75-18.5-7.65-8.4-6.5-8.95-15.35-.4-5.65-1.55-12.3-1-5.9-.25-15.3-8.95-4.4-20.05-12.05Q23.7 73.4 19.5 67q-4.45-6.8-10.55-28.95-5.7-20.5-8.2-36.8.75 1.6 2.7 3.75l3.1 2.9-.1-6.05q2.8 4.9 9.4 11.55 5.15 5.25 9.8 8.8 11.75 9.25 18.1 16.1l-.25-4 6.15 6.15q.15-4.15.4-6.15 3.95 6.5 8.5 17.9 3.75 9.3 6.05 16.9l56.65-.5q5.05-10.9 11.3-19.5Q137 43 141.5 38.75q2.55-2.4 5.55-6.55 3.15-4.4 4.7-7.9l.3 6.9q1.5-1.8 4.05-3.65l-.8 5.55q6.8-6.95 20.1-12.5 8.1-3.4 16.95-5.7 3.85-1 8.4-4.85 3.55-2.95 5.95-6.2M170.35 126.6q8.95 2.4 16 14.2 7.65 12.8 7.65 28.7 0 6.8 2.9 13.4 2.6 5.95 6.25 9.25 3.15 2.8 4.2 6.95.85 3.5.15 7.25-1.1 5.8-3.9 14.35l-5.7 16.2q-2.05 5.65-6.95 7.65-4.45 1.8-11.6.75-6.9-1-7.2-7.15-.35-5.95 5.55-12.05 1.7-1.75 2.5-6.35.7-4 .55-8.75-.1-3.7-1-5.1-.75-1.15-3.15-2.05-6.9-2.65-13.75-8.4-6.7-5.6-8.85-10.4 2.95-.9 5.45-1.05-2.45-1.2-6.4-1.45l.6-36.25 16.7-19.7m-40.25 51.1l18.1 13.6q3.15 2.5 1.3 8.9-1.45 4.75-4.7 11.95-4.15 9.05-7.85 13.85-3.75 4.9-8.9 6.25-3.85 1-8.85.05-5.45-1.1-6.15-5.7-.7-4.35 3.15-8.55 3.55-3.8 5.7-13.25-4.85 2.1-11.4 6.35-4.6 3-8.7 6.1-5.45 4.1-10.55 5.45-.65 5.95-1.85 11.3-1.25 5.35-2.8 8.7-2.35 5.3-7.3 7.3-4.35 1.75-9.75.75-7-1.3-7.65-6.55-.55-4.55 3.65-10.4 2.85-4 3.8-15.15.9-10.9-.75-18.1l14.6-18.6 46.9-4.25"/><path fill="#0d131a" d="M100.1 122.85q-.35-2.95.25-6.5.65-4.15 2.3-6.3 2.85-4.15 8.9-5.6l8.9-.35q1.75 4.65.5 10.25-1.35 6-5.4 8.55-3.65 2.3-8.1 2.25-4.35-.1-7.35-2.3m-38.85-17.5q2.2-.6 5.1.35 3.25 1.15 5.75 3.9 3.95 4.45 3.85 12.95-1.6 1.6-4.85 2-3.75.45-6.55-1.55-2.45-1.75-3.65-6.5-1.35-5.45.35-11.15"/><path fill="#faed00" d="M255.95 13.1q.8 7.9 2.35 11.05 1.5 3 6 6.15 9.7 6.8 13.5 17 3.3 8.9 1.75 19.15l2.95-4.55 2.3-4.3q2.15 8.5-1.85 22.65 1.25-1.1 3.05-1.8 1.45-.55 2.65-.6-1.1 1.25-2.45 4.25l4.25-.95q3.15-.45 5.35 0-7.75 3.7-9.6 10.75l-1.1 6.15q-.65 3.8-1.85 6.25 3.2-2.3 4.45-4.75 1.15 4.7 0 12.1-1.1 6.7.3 10.05 1.3 3.3.55 7.85-.9 5.55-4.6 10.65 3.85.1 5.7.85-1.55 2.3-6.65 5.15 4.6 1.85 6.5 3.55-2.9.3-5.85 1.3-3.75 1.3-5.9 3.35l5.25.5q2.8.9 3.9 3.45 1.6.75 3 2.2 1.7 1.7 2.1 3.4-4.05-1.25-8.6-1.05-5.05.2-10 2.25-11.75 16.25-20.95 20.05 1.55.1 3.95 1.15 2.45 1.1 4.1 2.45-3-.9-7.15-.7-4.45.15-7.35 1.5-2.7 1.3-6.9 2-4.85.8-7.95.05 3.65 3.65 5.2 6.4-6.05-3.45-10.55-3.05-3.1.25-6.45-.1-3.75-.4-5.65-1.35 2.85 2.45 6.25 4.1l-7.15-.9q-5.05-1-8.25-2.9-10.35-10.8-10.5-25.4-.15-15.75-7.85-27.95-6.8-10.75-15.85-13.9 2.15-3.25 5.85-6-4.35-.65-9.7 1.85 2.75-4.4 5.3-6.15-4.85.1-9.15 4.5-.1-2.65.55-9.45.7-6.85 1.35-9.9-1 .7-4 5.2-2.65 4.1-3.6 6 0-3.5-1.55-6.4-1.3-2.45-2.4-2.7-.4-3.5-2.85-5.85-2.25-2.15-4.55-1.95l-2.5-3.9q10.55-3.6 19.65-9.1 6.4-3.85 10.45-7.5 2.25-2.05 4.75-6.5l4.65-8.45q6.05-.3 9.55-4.25 2.95-3.35 4.65-10 .5 1.65.95 7.4 2-1 3.35-3.8.75 4.15-.5 9.45l3.7-2.85q3.25-2.15 6.65-2.9-1.15.85-2.05 2.65-1.15 2.35-1.1 4.95 5-3.55 8.2-3.75 1.85-.1 5.85 1.45 4.9 1.9 11.1-1.25-1.05 2.65-3.3 5.2 4.6 4.8 9.25 2.05 4.7-2.8 4.35-10.25l2.65 5.05q1.4 3.15 1.75 6.8 2.75-3.2 3.95-9.2 1.5 2.8 1.2 6.35 7.6-8.35 5.6-18-1.9-9.25-10.25-11.15 1.1-1 2.75-1.2l3.25.35q-2.75-3.9-3.65-10.1l3.7 2.45q-.75-3.95-.05-7.7.55-3 1.8-4.95"/><path fill="#faed00" d="M167.25 117.5q2.6-1.25 4.55-1.2-3.8 3.15-5.35 6.3 5.6-2.7 9.75-2-3.55 2.4-5.85 6.1-2.4 3.8-2.55 7.7-.15 3.6-1.2 7.2-1.6 5.6-4.95 8.2l4.85-.65q2.35-.75 6.2-3.25-1.85 5.45-4.5 8.15-2.15 2.25-7.4 5l3.4.75 3.9.5q-4.7 3.7-8.1 4.95l4.7.7q3.2.6 4.5 1.15-5.95 1.45-8.55 5.2-5.3 7.7-8.3 10.3 3.85.25 7.1 1.4-5.1.75-8.2 3.15-2.7 2.1-6.4 7.65-2.1 3.15-5.55 4.55l-6.6.2q1.55 2.05 5.55 4-2.2.85-6.4.7-4.65-.15-6.95-1.6 2.85-3.5 5.75-8.55-3.2-3.3-4.25-4.95-.45 2.8-1.2 4.4l-5.75-7.95q-1.8 2.35-3.05 3.05-1.3-1.95-1.55-4.15-5.4 2.55-7.7 4.15 1.35-3.7 2.55-4.95-1.2.3-5.45 1.85l-7.1 6.65-6.5 5.25-4.75 3.3q-3.05 1.9-4.6 2.4.5-2.4.85-3.3-1.4.4-3 1.25-1.75.95-2.65 1.95.2-1.95 1.05-4-4.3 1.6-6.8 1.4-1.45-.1-3.6.7-2.3.9-4.5 2.6.65-3.9 3.85-6.7-3.05-.25-5.6 1.1 1.25-2.3 2.8-3.65-3.05-.1-6.15-1.05-3.25-.95-5.15-2.45l4.3-.85q-2.35-1.8-5.95-3.3-4.4-1.8-8.2-1.95 2.95-1.55 6.75-2.7.15-.5-2.35-2.4-2.35-1.75-3.65-2.3 2.9-.4 7.55-.15-4.05-2.3-6.45-5.2-2.8-3.35-3.75-7.9-.9-4.1-1.55-5.45-1.2-2.5-4.55-5.35l2.5.3q1.75.5 2.9 1.6-.15-1.5-1.4-3.95-1.25-2.35-2.7-4.15 3.95 1.15 6.4 3.15-.95-3.25-1.45-8.6-.5-4.65-.4-7.65.1-2.55-1-5.5-1.05-2.95-2.8-5.1 1.35-.05 4.15 1.65 2.95 1.8 4.4 3.8l-.3-4.3q1.75.65 2.7 1.7-.35-5.45 1.2-8.7.85-1.9 3.15-4.1 1.45-1.4 2.2-3.9.65-2.1.7-4.25l2.6 2.7.85 6.75.75 7.2q0 9.15 9.7 16.25 8.15 5.95 16.75 7 9.15 1.05 21.55-2.75 14.05-4.3 22-12.35 5.45-5.5 7.65-17.6 1.8-9.75.95-18.85L143 92l3.05 3.75q2.4-.15 4.5 2.55 1.75 2.25 2.45 5.25 3.45 1.5 4 9.1 1.55-3.55 4.65-7.75l2.8-3.5-.95 8.7q-.9 9-.85 10.7 2-2 4.6-3.3"/><path fill="#faed00" d="M94.95 26.6q9.25.6 17.25 11.85 7.45 10.6 8.95 22.95 1.35 11.2-3.1 20.85-4.45 9.65-11.7 11.2-2.95 6.15-9.35 9.05-5.5 2.55-12.95 2.45-7.4-.1-14.2-5.75-7.5-6.2-8.05-14.75-.55-8.55 2.65-14.7 2.8-5.3 8.6-9.3l11-6.7q6.75-4.45 9-8.75 2.6-5.05.85-11.15-1.7-5.85-6.45-9.7 4.05-.3 7.5 2.45"/><path fill="#3e4e57" d="M15.45 42.35q-4.7-15.4-5.55-25.25 7.55 5.35 18.75 15.3 11.05 9.85 16.55 16 4.45 5 9.6 14.45 3.9 7.15 7.05 14.6l-.2 2.25q-4.7-1.5-8.4-3.45 2.9 7.15 4.55 9.7-6.6-2.7-16.45-9-10.95-7-15.85-12.2-4.85-5.1-10.05-22.4m167.6 4q-10 16.7-15.65 22.45-5.75 5.95-18.25 12.1-10.4 5.2-20.7 8.35 4.65-6.75 7.35-12.7-7.15 2.95-11.5 5.85 7.4-22.95 10.5-27.05 6.1-8.15 26.95-19.75 20.35-11.25 35.8-15.55-6.7 13.2-14.5 26.3"/><path fill="#fff" d="M111.05 112.15q0 1.5-.7 2.65-.8 1.25-1.95 1.3-1.2.05-2-1.15-.75-1.1-.85-2.7-.1-1.5.6-2.8.8-1.5 2.1-1.5 1.2-.05 2 1.15.85 1.25.8 3.05m-45.3-4.65q.85-.1 1.65.8.8.9 1 2.45.2 1.65-.2 2.75-.45 1.25-1.5 1.35-1.15.15-1.9-1.1-.6-1-.75-2.6-.15-1.15.25-2.25.5-1.3 1.45-1.4"/><path fill="#d7cd00" d="M166.85 141.15q-1.5 5.3-5.35 8.6l4.05-.4q3.4-.9 6.95-3.4-1.75 5.4-4.7 8.5-2.5 2.6-7 4.6l3.5.75 3.9.5-3.95 2.55-4.25 2.4 4.7.7q3.2.6 4.5 1.15-5.95 1.45-8.55 5.2-5.3 7.7-8.3 10.3 3.85.25 7.1 1.4-4.95.75-7.9 2.95-2.9 2.15-6.7 7.85-4.35 6.5-12.4 4.85.65.8 2.6 2.05l3.2 1.85-6.05.85q-4.45.1-7.3-1.75 2.85-3.5 5.75-8.55-3.2-3.3-4.25-4.95-.45 2.8-1.2 4.4l-5.75-7.95q-1.8 2.35-3.05 3.05-1.3-1.95-1.55-4.15-5.4 2.55-7.7 4.15 1.35-3.7 2.55-4.95-1.2.3-5.45 1.85l-7.1 6.65-6.5 5.25-4.75 3.3q-3.05 1.9-4.6 2.4.5-2.4.85-3.3-1.4.4-3 1.25-1.75.95-2.65 1.95.2-1.95 1.05-4-4.3 1.6-6.8 1.4-1.45-.1-3.6.7-2.3.9-4.5 2.6.65-3.9 3.85-6.7-3.05-.25-5.6 1.1 1.25-2.3 2.8-3.65-3.05-.1-6.15-1.05-3.25-.95-5.15-2.45l4.3-.85q-2.35-1.8-5.95-3.3-4.4-1.8-8.2-1.95 2.6-1.4 7.3-2.85-5-3.75-6.55-4.45l7.55-.25q-4.05-2.3-6.45-5.2-2.8-3.35-3.75-7.9-.9-4.1-1.55-5.45-1.2-2.5-4.55-5.35l2.5.3q1.75.5 2.9 1.6-.15-1.5-1.4-3.95-1.25-2.35-2.7-4.15 3.95 1.15 6.4 3.15-.95-3.25-1.45-8.6-.5-4.65-.4-7.65.1-2.55-1-5.5-1.05-2.95-2.8-5.1 2.45 1.85 4.7 5.15 2.35 3.45 2.95 6.35.6 3.1 2.15 7.05 1.6 4.05 2.8 5.5.65-3.85-.1-6.85 2.25 2.55 3.95 9.1 1.75 6.85.65 9.95 2.7-1.3 3.4-4.4.95-4.55 1.75-5.8 1.65 5.55 1.9 8.3.55 5.1-1.85 7.1 3 0 5.15-1.65 2.4-1.85 2.8-5.1 1.1 2.9 1.2 6.1.05 3.35-1.1 5.55 2.4-.75 5.45-5.5 3.35-5.3 4.95-6.35-1.75 5.95-.25 9.7 1.8 4.55 1.1 10.4 2.35-2.85 3.05-4.55 1.35-3.25.15-6.9 1.75.7 3.6 4.8 2 4.35 1.25 6.9 2.35-2.5 3.35-5.6 1.3-3.8.8-8.95 3.15 4.25 2.95 6.6 1.2-1.25 1.85-3 .6-1.65.4-2.8l1.7 2.75q1.5 1.4 3.15-1.8 1.85 1.55 6.55.25.7 1.9 3.45 1.1 2.75-.8 3.15-2.75.85 1.5.6 3.95-.3 3.25-2.5 5.85 2.7-.3 5.9-3.65 3.35-3.6 3.25-6.95 2.25 1.65 2.95 5.6.85 4.9 1.8 6.45 1.6-3.3 3.75-4.75 2.35-1.5 3.1-4.35.7-2.85-.7-5.6 1.95.75 3.35 4.05 1.45 3.45.4 5.65 2.05-.75 3.75-3.25 1.7-2.6 1.15-4.45-.95-3.1-1-5.8-.05-2.9 1-4.6.75 3.15 2.35 5.5 1.85 2.7 4 3.05 1.15-2.35.75-4.5-.4-2-2.3-4.65 2.2.85 6.4-.75 4.5-1.7 7.6-4.95-4.5 1.6-7.8.75 4.6-2.05 7.75-4.85 3.45-3 4.3-6.05-1.1 1.45-3.85 2.15l-3.95.75q3.15-2.85 5.1-7.65 1.85-4.55 1.75-8.4l.15-1.95q2-2 4.6-3.3 2.6-1.25 4.55-1.2-3.8 3.15-5.35 6.3 5.6-2.7 9.75-2-3.55 2.4-5.85 6.1-2.4 3.8-2.55 7.7-.15 4-.95 6.75M282.8 87q4.85-4 11.95-4.9-6.65 3.2-8.35 8.5-.45 1.4-1.25 5.9-.85 4.5-1.9 7.8 3.2-2.3 4.45-4.75 1.6 5.5.05 10.7-1.55 5.25.25 11.45 1.05 3.7.4 7.9-.8 5.6-4.45 10.6 3.85.1 5.7.85-1.55 2.3-6.65 5.15 4.6 1.85 6.5 3.55-2.9.3-5.85 1.3-3.75 1.3-5.9 3.35l5.25.5q2.8.9 3.9 3.45 1.6.75 3 2.2 1.7 1.7 2.1 3.4-4.05-1.25-8.6-1.05-5.05.2-10 2.25-11.75 16.25-20.95 20.05 1.55.1 3.95 1.15 2.45 1.1 4.1 2.45-3-.9-7.15-.7-4.45.15-7.35 1.5-2.7 1.3-6.9 2-4.85.8-7.95.05 3.65 3.65 5.2 6.4-6.05-3.45-10.55-3.05-3.1.25-6.45-.1-3.75-.4-5.65-1.35 2.85 2.45 6.25 4.1l-7.15-.9q-5.05-1-8.25-2.9-10.9-11.35-10.5-25.4.25-8.75-3.25-18.35-3.85-10.7-10.85-17.65 7.75 2.25 11.9 9.25 2.15 3.55 3.15 4.6 2.05 2.1 5.4 2.6-1.55-2.3-1.95-5.8-.35-2.95-4.05-7.25l3.75.25q2.7.35 3.9 1.9 1 1.3 2.5 4.5 1.7 2.55 4.6 2.85-2.35-2.1-1.05-6.95.9-3.45 4-9.05l.8 7.85q1.2 5.1 4.95 6.8 2.15-.5 2.85-2.35.45-1.05.65-4.05.45-6.3 4.25-8.55-.85 5.05 2.05 10.9 2.4 4.8.15 9.05 4.6-1.25 7.3-7.9 2.65-6.45.65-10.3 3.1 1 5.15 3.7 2.35 3.05 1.1 6.05 2-1.2 2.75-3.5.45-1.25.85-4.65.8-6.7 4.7-9.65-1.1 2.2-.45 5.5.75 3.55 3.05 5.45 3.65-1.75 5.05-8.1 1.6-7.5 2.9-9 .75 4.05 4.2 5.1 4.35 1.3 10.6-3.7-4.35.4-7.5-2.85-3.15-3.2.45-4.35 3.65-1.2 6.55-5.95l-5.75.5q-3.6-.3-5.2-1.25 3.55-1.5 6.1-5.5 2.65-4.25 4.95-5.45 1.8-.95 3.9-2.85l3.65-3.3m-176.5 6.6q-3.25 7.3-12.75 10.25-9.2 2.85-17.25-.4-7.8-3.2-12.05-12.15-4.2-8.9-1.85-17.1-.85 7.05 4.25 13.25 5.1 6.25 13 7.65 11.1 1.95 18.7-4.05 8.7-6.9 4.45-20.15 3.1 4.7 3.95 7.05.75 2.15.9 6.45 6-3.15 9-12.55 3.85-12.2-1.4-27.95 3.45 5.4 4.9 13.1 1.45 7.65.55 15.15-2.25 17.6-14.4 21.45"/><path fill="#ca4819" d="M1.25 2.45l2.8 6.85q1.45 3.45 2.75 5.35l2.95 2.15q.8 10.55 6.2 27.1 5.7 17.55 10.45 21.85Q31.95 70.8 41.35 77q10.35 6.85 16.45 8.95l-4.45-9.5 2.8 3.55q2.85 3.75 2.95 4.7.15 1-.3 2.75l-.6 2.65-.7 4.7q-10.35-4.5-22.45-13.55Q23.3 72.5 18.9 66.3q-4.05-5.65-10.4-29.6Q2.65 14.45 1.25 2.45m181.2 44.65q8.55-14.35 15.1-27.15l4.5-1.3q5.35-7.6 12.7-13.5-4.7 6.75-20.35 33.85l-19.45 33.65q-4.4 7.25-22.9 15.35-13.9 6.1-24 8.45-1.2.3-2.65-1.45-1.55-1.9-1.1-4.1.4-2.2 3.75-6.25 3.4-4.1 7.65-7.5l-4.3 7.3-2.55 4.5Q141.8 85 152.7 79.1q9.7-5.25 14.65-10.25 4.6-4.2 15.1-21.75M163.1 169.9l3.5.25 3.6-.1-2.7 1.85-3.2 1.75 5.45.4q2.15.4 4.2 1.35-2.45.55-4.8 1.9-2.65 1.5-3.9 3.4l-2.95 4.55q-2.1 3-4.55 5.3-2.3-2.8-3.65-5.45 2.5-.9 5.35-1.1-3.55-1.6-7.1-1.4 1.55-.75 5.2-6 3.9-5.55 5.55-6.7m3.8-28.8q.95-3.45.85-7-.05-3.4 2.8-7.7l1.7.75q-1.55 4.2-.6 9l1.25 4.4q.55 2.75-.65 5.7-4.05 2.5-7.2 3.25l-3.5.15q3.8-3.35 5.35-8.55m-3.15 22.25q3.2-1.8 3.95-3l-3.55-.6-3.15-.85q3-1.35 6.05-3.75l3-.1 3 .4q-3.85 2.6-4.95 5.8 1.85-.85 4.4-1.1l4.35.1q-6.55 4.35-8.3 6.95-3.05-1.5-9-1.8l4.2-2.05M144 195.85l1.9-2.25q1.25-1.45 2.2-2 1.75.4 2 2.95.2 2.25-.7 6.6-.85 3.8-5.45 12.45-4.3 8.15-7.9 13.2-2.85 3.95-7.55 5.25-4.05 1.15-8.8.1-3.95-.85-5.8-3.75-1.9-2.85-.45-5.85 0 4.05 6.1 5.35 5.95 1.25 9.95-1.6 5.5-4 7.8-9.5 2.25-5.35-1.3-4.45-3.3.8-6.35-1.6-2.05 2.15-5.35 3.3-3.15 1.05-5.85.75 1.35-2.25 2.4-5.65l1.15-4.7q1.9-.4 2.9-1.8 4.8 2.85 13.1.75l-2.85-1.6q-1.75-1.15-2.45-2.1 3.6 1.1 7.3-.8 2.4-1.25 4-3.05"/><path fill="#ca4819" d="M101.7 188.15l2.4-2.45q2.7-1.25 5.85-2.05-1.95 2.35-2.75 4.9 3.55-2.35 7.65-4.05.35 2.4 1.55 4.15 1.2-.55 3.05-3.05 3.15 3.8 5.75 7.95l1.25-4.25 1.95 2.45 2.25 2.35-4.4 6.9q-1.95 2.95-7.9 5.5-2.45 1.05-8.85 5.25-6.4 4.2-11.1 7.85-4.35 3.35-10.1 3.4-4.7.05-8.45-1.9-3.35-1.65-4.9-4.55-1.7-3.15-.55-6.65-.1 1.6 1.9 3.5 2.05 1.9 5.1 3.05 7.75 3 13.7-1 15.75-9.8 19.65-12.8 5.55-4.3 4.4-9.7-5.65 2.5-7.1 3.6.5-1.85 2.35-4.65-2.15.3-6.15 2.2-3.6 1.7-6 3.35.55-3.25 2.55-6.75-3.6-.7-5.95.1l2.85-2.65m92.1-14.85q.5 4.5 3.55 10.5 2.8 5.45 5.45 8.1 4.2 4.2 4.95 8.2.5 2.7-.6 8.15-.75 4.05-4.4 14.65l-4.85 13.3q-2.4 5.85-7.05 8-4.55 2.15-11.65.85-4-.75-6.05-3.5-2.1-2.85-.7-6.1 1.05 4.85 8.95 4.4 7.7-.5 11-5.05 2.6-3.55 5.9-12.9 3.1-8.75 3.75-13.4.7-4.65.5-6.75-.3-3.7-2.85-6.75-3.8-4.65-5.15-10.2-1.15-4.75-.75-11.5M82.15 199.85q-.6 1.7-.85 3.3-1.9.85-3.75 2.5-1.8 1.7-2.75 3.4-2.65 0-5.3 1.7.2-4.2-.8-10.1 5.3 0 9.1-1.8l-.8 1.95q-.4 1.3-.5 2.25.95-.95 2.75-1.95 1.65-.95 2.9-1.25"/><path fill="#ca4819" d="M86.2 222.9l5.1-.35q-.95 10.8-4.9 20.65-3.6 8.85-16.45 7.5-4.7-.5-6.9-3.55-1.95-2.7-1-5.75.45 3.95 8.4 4.6 8.1.7 10.65-3.65 1.7-2.9 3.25-8.6 1.7-6.15 1.85-10.85m20.1-129.3q6.3-1.7 10.4-8.75 3.45-5.9 4.3-13.3.75 9.45-2.85 16.65-3.5 6.95-10.2 10.05-4.75 7.1-13.8 9.75-7.6 2.2-15 .65-9.3-1.9-14.6-11.15-5.25-9.05-3.15-18.7-.25 9.9 4.55 16.45 4.75 6.5 13.8 8.9 8.5 2.25 16.7-1.4 7.55-3.4 9.85-9.15"/><path fill="#d7cd00" d="M70.15 139.15q8.5 5.9 16 6.25 13.25.55 24.65-3.65 11.55-4.3 19.85-13.1-4.15 10.85-17.8 17.1-12.6 5.75-26.25 4.85-9.4-.6-17.1-6.9-7.9-6.4-9.8-15.45 2.6 5.45 10.45 10.9"/><path fill="#27333a" d="M10.4 21.4l-.65-4.6q5.5 3.85 17.75 14.55Q40.1 42.4 43.6 46.6q12.9 15.75 18.35 30.8l-.3 2.45-2.5-.95q-7.55-12.25-23.2-30.7Q20.5 30.05 10.4 21.4m185.25 2.85q-22.8 10-38.55 22-19.75 15.1-30 34.45l-2.7 1.65 5.55-15.9q3.25-8.95 5.2-11.45 6.7-8.5 28.1-20.2 20.35-11.15 34.3-14.85l-1.9 4.3"/><path fill="#0d131a" d="M82.4 131.15q0-.6 2.85-.6t2.9.55q.05.7-1.1 1.45l-1.85.7q-.6 0-1.7-.75-1.1-.8-1.1-1.35M86.45 24.1q-.05-.45.75-.6 3.05-.45 6.9 1.65 4.2 2.35 5.65 6.1.4.95 0 1.15-.4.2-.95-.65-1.7-2.55-4.25-4.45-2.65-1.9-5.1-2.25Q95.05 29.5 95.2 39q.05 5.45-4.7 10.4-4.05 4.15-13.3 9.55-7.9 4.65-11.25 9.9-3.3 5.2-3.3 12.85 0 9.05 6.65 15.75 6.7 6.75 15.65 6.6 10.6-.15 16.55-5.55 6.45-5.8 5.35-16.05-.1-1.3.35-1.4.5-.1.7 1.2 2.05 11.05-5.15 17.55-6.5 5.9-17.75 6.05-9.45.15-16.65-6.6-7.65-7.1-7.65-17.55 0-8.15 3.6-13.75 3.6-5.55 12-10.5 9.35-5.5 12.85-8.85 4.65-4.5 4.65-9.65 0-8.7-6.75-14.05l-.6-.8"/><path fill="#0d131a" d="M109.9 36.95q-7-8.7-14.55-9.75l-2.05-1.8q9.4.8 17.35 9.95 7.65 8.8 10.3 20.85 2.75 12.5-.9 23.55-4 12.2-13.95 14.9l.45-1.85q7.9-2.75 11.6-13.45 3.65-10.65 1-22.95-2.4-10.9-9.25-19.45"/><path fill="#0d131a" d="M136.8 93.7l1.7-.4q.8 11.75-1.2 21-1.95 9.05-6.4 15-6.4 8.55-21.2 13.5-12.55 4.2-23 3.7-6.7-.3-14.95-5.15-9.05-5.3-11.9-12-1.15-2.7-1.5-6.55l-.9-7.95q-1.1-6.05-1.1-11.65-.05-6 1.1-13 .25-1.4.75-1.3.5.1.3 1.5-.8 6.85-.65 12.6.15 5.35 1.25 11.5l.85 8q.35 3.9 1.4 6.1 2.85 6.05 11.05 10.9 7.75 4.6 14.45 4.85 5.05.25 11.4-.85 6.75-1.15 12.95-3.5 12.7-4.7 18.15-12.05Q138 116.4 136.8 93.7M27.05 32.05Q17 23.3 6.9 15.4q-1-.75-.7-1.15.35-.4 1.35.3 9.7 7 20.55 16.3 10.8 9.25 16.5 15.5 4.95 5.45 9.6 13.5 4.7 8.15 7.9 16.9l-.25 2.4q-3.3-8.9-8.35-17.5-5-8.5-10.2-14.2-5.4-5.9-16.25-15.4"/><path fill="#0d131a" d="M8.95 16.2l1.45 1.25q1.85 13.2 6.55 27.1 4.6 13.75 9 19.4 2.9 3.7 12.45 10.15 9.15 6.25 18 10.7-2.6-4.3-3.9-8.3-.5-1.7 1.05-.9 4.25 2.35 8.2 3.55l-.1 1.3q-4-1.2-7.15-2.75 1.25 3.45 3.8 7.95.55.95.25 1.2-.25.2-1.1-.2-9.45-4.3-19.3-10.75-10.1-6.65-13.45-10.95Q19.95 58.9 15.35 45q-4.9-14.7-6.4-28.8m193.2 3.1q-13.05 3.35-33.5 13.75-23.3 11.8-31.85 21.5-3.2 3.7-7.45 15.65-4.85 13.65-6.15 15.9-.6 1.1-1.05.9-.4-.2.1-1.35l5.6-16.15q4-12 7.6-16.15 8.65-9.95 32.35-21.8 21.4-10.7 34.1-13.25 1.1-.25 1.25.25.1.5-1 .75"/><path fill="#0d131a" d="M197.05 20.05l1.75-.5q-21.9 42.35-32.95 52-10.4 9.15-37.1 18.3-.95.35-1.15 0-.25-.35.3-1.1 2.95-4.25 6.55-10.85-6.75 3.2-11 6.25l.95-2.5q3.95-2.6 11.25-5.95 2.05-.95 1.05 1.05-3.8 7.4-6.6 11.15 24.2-8.6 34.6-17.7 9.35-8.2 32.35-50.15M47 42.2q.85 1.25.45 1.5-.4.3-1.3-.9-3.95-5.05-8.3-9.2-4.1-3.85-9.8-8.1-6-4.4-11.8-10.2Q9.6 8.6 6.9 3.7q0 2.25.4 4.45.1.5-.15.7-.35.2-.8-.2-2.4-1.8-4.2-4.3Q5.5 22.3 10.3 39.6q5.4 19.7 9.35 25.8 4.5 7 16.3 15.55 9.75 7.1 21.5 13.25l-.15 1.35q-11.5-5.35-22.9-13.5-12.45-8.85-16.7-15.5-4.2-6.5-9.8-28.15Q2.8 18.85.05 1.15-.1.2.4.05q.45-.15.9.65 2.3 4.05 4.65 6.05-.35-2.3-.25-4.9.1-.75.45-.85.35-.1.7.55 3.05 5.05 10 11.8 6.05 5.9 12.35 10.55 11 8.2 17.8 18.3m105.75-11.55l-1.5 1.7q.2-2.2 0-5-3.45 6.25-11.2 14.25-5.15 5.3-9.6 12-5.95 8.85-9.75 18.7l.4-5.5q4.95-10.25 9.8-17.3 3.55-5.1 7.9-9.65 9.1-9.35 12.25-15.6.5-1.05 1-1 .5.05.55 1.2l.15 6.2"/><path fill="#0d131a" d="M207.15 9.4l-1.35.8q.45-2.35.25-4.5-1.8 3-5.25 5.7-3.65 2.8-7.4 3.85-13.35 3.75-23.65 8.8-10.15 5-13.9 9.55-.75.9-1.1.7-.35-.2-.1-1.25l.6-4q-2.9 2.45-4.9 5.35-.7 1-1.1.8-.4-.25.2-1.35 1.05-1.9 2.75-3.85 1.7-1.95 3.4-3.2 1.35-1 1.2.6l-.55 3.75q10.1-9.95 36.1-17.3 7.75-2.25 13.8-10.35 1.05-1.4 1.2.35.25 2.75-.2 5.55"/><path fill="#0d131a" d="M205.7 11.05q-1.25.8-1.5.35-.25-.4.9-1.3 3.55-2.7 6.3-4.25 4.75-2.75 5.15-2.45.4.35-2.65 4.75-4.85 7.1-21 36.2-15.4 27.7-17.2 29.9-5.35 6.65-17.9 12.8-13.3 6.5-29.35 9.7l-1.45-.2q-.1-.45 1.2-.85 16.9-4.8 28.6-10.5 12.1-5.9 17.05-12.1 1.05-1.3 17.95-30.85 17.15-30.05 21.4-35.8-5.2 3.05-7.5 4.6m-152.5 98.9q.7-1.85.8-4.6.05-1.9 1.35-.45 1.6 1.9 2.4 3.55l.25 2.8q-.9-2.35-2.9-4.5 0 5.1-3.85 8.6-2.3 2.1-2.8 6.2-.25 2 0 6.9l-1.55-2.2q-.15-5.6.8-8.35.65-2.05 2.5-3.75 2.15-1.9 3-4.2"/><path fill="#0d131a" d="M44.75 129.65q-3.15-3.65-6.7-4.95 2.95 4.1 3.1 8.3l.25 9.4q.55 6.85 2.5 9.75l-2-1.5q-2.45-5.05-2.3-17.6.05-4.05-3.6-8.85-.8-1.05-.5-1.45l1.6.05q2.15.65 4.15 2 2 1.3 3.3 3-.1-2-.5-2.9-.2-.65.1-.85.3-.25.95 0 3.2 1.25 4.55 5.95.3 1-.15 1.15-.45.2-.85-.8-1.35-3.4-3.15-4.45l.25 3.4-.35.6q-.3.1-.65-.25"/><path fill="#0d131a" d="M35.5 147.95q-.6-.8-.3-1.15.25-.35 1.1-.2 2.95.6 6.15 3.25 3.1 2.6 4.5 5.55.4.9-.05 1.1-.4.2-.95-.65-1.45-2.45-3.7-4.35-2.25-1.95-4.75-2.85 2.4 3.45 3.2 6.85.15.65-.15.75l-.75-.25q-2.05-1.7-3.6-1.9 2.5 2.05 3.75 4.8.9 1.9 1.5 5.1.55 3.3 2.45 6.25 2.6 4.15 7.4 6.65l.75.7-1.05.2q-4.4-.25-6.2 0l4.4 3.05q3.1 2.3 3.9 2.55 1.25.45 1.15.8-.1.35-1.4 0-1.4-.35-4.3-2.5l-4.95-3.25-1.2-.7q-.3-.4 1-.7l2.8-.4q1.8-.15 2.55 0-4.15-2.7-6.6-6.55-1.9-2.95-2.4-5.9-.65-3.55-1.45-5.2-1.25-2.65-4.1-4.85-.75-.55-.55-.95.15-.35 1.05-.4 2.35-.15 4.35 1.2-1.05-2.65-3.55-6.05"/><path fill="#0d131a" d="M41.55 185.2q-.2-.5.8-.95 2.55-1.3 6.75-2.45l1.15.9q-3.1.7-5.3 1.8 3.25.5 7.55 2.45 3.6 1.6 5.3 2.9l-1.8.4q-6.9-4.2-13.3-4.6-1-.05-1.15-.45"/><path fill="#0d131a" d="M51.5 190.95q.05-.4.85-.5l8.95-2.15 1.3.1q.15.5-.95.9-3.95 1.55-7.1 2.15 5.15 2.6 10 2.4l-1.2 1.15q-2.95.05-6.15-.95-2.85-.85-5-2.2-.75-.5-.7-.9"/><path fill="#0d131a" d="M60.5 197.5q2.4-5.3 10.55-7.4l1.45.1q.15.5-1.15.9-6.25 2.1-8.75 5.8l3.9-.45q1.3.1.4.9-2.6 2.7-3.15 4.85 3.45-2.35 6.95-2.5 5.3-.1 7.7-1.85l-.8 1.55q-1.1.8-3 1.3l-3.8.55-2.9.4q-2.35.65-4.9 2.7-1.8 1.45-1.25-.75.85-3.55 3.45-5.95-1.45.05-3.75.9-1.8.75-.95-1.05"/><path fill="#0d131a" d="M82.6 193l1.1-.1q.25.4-.55 1-4.5 3.5-5.45 7.45 2.1-1.55 4.2-2.25 1.25-.35.75.8-.55 1.35-.55 2.8l-1.55.7.7-2.75q-2.1.95-4.05 2.75-.6.6-1 .45-.35-.15-.3-.95.25-3 1.95-5.55 1.75-2.55 4.75-4.35m18.5-26.55q-1.1-.5-.95-.95l1.3-.05 4.45.15q1.15-.2 1.25.25.1.5-1.05.8l-5-.2m5 3.2q1.3 0 1.35.45 0 .5-1.25.6-5.05.45-7.85 2.9-.9.75-1.2.4-.3-.4.5-1.25 2.9-3.1 8.45-3.1M95.45 181.1q.9-2.25 2.9-4.15 2.05-1.95 4.75-3.1 1-.45 1.2 0 .2.45-.7.95-4.35 2.35-6.15 5.65l5.65-.75-1.4 1.4q-2.7.3-5.25 1.05-1.55.45-1-1.05"/><path fill="#0d131a" d="M96.8 189.2q.3-3.1 2.3-6.05 1.85-2.7 4.4-4.25 1.1-.65 1.35-.25t-.75 1.15q-4.55 3.5-5.6 8.05 2.7-1.9 5.9-3.15 2.4-.95 6.25-1.95l-1.2 1.45q-5.05 1.5-11.55 5.7-1.25.85-1.1-.7"/><path fill="#0d131a" d="M111.8 181.25q.9-.65 1.15-.2.25.4-.55 1.05-2.75 2.4-3.75 4.8 2.8-1.6 5.9-2.95.7-.35.75.45.3 2 1.25 3.35 1.3-1 2.4-2.55l.85-.05 5.3 7.1.8-3.1q.1-.55.35-.65l.6.45q2.1 3.15 5.6 5.8-.85-5.7.65-8.95.4-.95.85-.75.45.2.15 1.15-1.25 3.85 0 9.55.2.9-.15 1.15l-1.1-.2q-3.15-1.85-6.15-6.05-.25 2.15-.85 3.25-.65 1.1-1.25.15-2.65-4.4-5.2-7.55-1.05 1.45-2.5 2.65l-1.1.05q-1.1-1.5-1.45-3.9l-6.85 3.85-1.05.2q-.25-.25 0-1.1 1.3-4.3 5.35-7m29.85-89.15l1.75-.6q4.9 4.6 4.9 11.45 0 1.2-.45 1.25-.5 0-.6-1.2-.65-6.6-5.6-10.9"/><path fill="#0d131a" d="M146.1 96.55l-.9-1.7q5.1-.1 7.55 5.65 2.25 5.35.85 11.35-.25 1.15-.75 1.1-.45-.1-.3-1.3.85-6.5-1.2-10.8-1.9-4-5.25-4.3"/><path fill="#0d131a" d="M153.15 104.5l-.25-2.4q2.75 1.55 3.95 5.15 1.25 3.75.45 8.7-.2 1.25-.65 1.2-.45-.05-.4-1.3.15-4.55-.5-7.1-.7-2.7-2.6-4.25"/><path fill="#0d131a" d="M162.3 112q.5-5.35 1.5-8.9-1.7 1.85-3.8 5.35-2.15 3.55-3.2 6.35l.1-2.65q1.4-4.1 4.6-8.3 2.85-3.8 3.5-3.5.2.1-.7 6.25-1.05 7.45-.75 11.9.6 7.8-6.1 12.4-1 .65-1.25.25t.6-1.15q3.3-2.75 4.4-5.8.75-2.05.75-5.7 0-2.85.35-6.5"/><path fill="#0d131a" d="M162.65 121.95l.1-1.65q3.35-4.2 8.85-4.75 1.2-.1 1.35.3.2.45-.75 1.15-2.7 1.9-4.35 4.35 4.3-1.8 8.5-1.4 1 .1 1.05.55 0 .4-.8.9-3.6 2.25-5.75 5.85-1.95 3.3-2.15 6.8-.45 6.4-1.75 9.7-2.15 5.6-7.6 7.7l-1.3-.05q-.2-.4.9-.95 4.8-2.4 6.6-7.65.95-2.7 1.4-8.9.25-3.45 2.1-6.8 2-3.55 5.25-5.85-4 .1-7.8 2-.6.25-.8 0-.2-.2.05-.75 1.6-3.3 4.15-5.3-2.3.65-3.95 1.7-1.65 1.1-3.3 3.05m6.8 44.55q.85.4.9.8 0 .4-1.1.6-3.3.65-5.55 2.35-1.85 1.35-3.6 3.95-4.6 6.75-6.95 8.75l-2.3-.25q2.7-1.95 8.1-9.35 1.7-2.4 3.1-3.6 1.9-1.6 4.85-2.6-3.85-1.2-8.45-1l1.8-1.15q5.75 0 9.2 1.5"/><path fill="#0d131a" d="M159.4 183.1q1.6.65 1.45 1.15-.1.45-1.7.55-3.85.25-6.2 2-2.4 1.7-6.7 7.35-2.6 3.45-4.75 4.85-3.15 2-7.35 1.45 1 1.1 4.15 2.15 1.05.4.85.85-.2.5-1.6.85l-6.35.5q-4.15-.2-6.9-1.5l1-1.15q1.05.85 4.95 1.35l6.75-.25q-1.45-.4-2.9-1.4l-2-1.7q-.7-.75-.55-1.05l1.1-.05q4.05 1.2 7.95-1.25 2.5-1.55 4.65-4.45 4.35-5.7 6-7.05 2.6-2.1 7.05-2.4-3.55-1.3-7.75-.65-3.05.45-5.85 1.8l-1.05.1q-.25-.3.55-.8 3.35-2.1 7.05-2.5 4.05-.45 8.15 1.25m36.3-136.35q.3-1.8.9-1.8.55-.05.85 1.65l.75 6.05q1.1-1.05 2.2-3.35.6-1.15.9-1 .3.15.45 1.4.75 4.9-.55 10.15-1.35 5.35-4.1 7.7-3.8 3.35-5.2 5.25-1.1 1.6-1.45 3.5-.2 1.1-.5 1.1-.25 0-.35-1.1-.25-4.1 6.25-9.85 2.55-2.2 3.95-6.7 1.35-4.25 1.05-8.35l-1.6 1.9-1.65 1.25q-.8.25-.7-.55.1-2.95-.2-5.85-.45 5.5-5.3 9.6-4.65 4-9.6 3.75l1.05-2.05q4.85.05 8.2-3 3.7-3.35 4.65-9.7"/><path fill="#0d131a" d="M200.1 61.05l.35-2.3q1.35-1.7 3.8-3.35 2.75-1.85 5.25-2.5 3.75-1 2.2.5-1.55 1.45-2.5 3.65-.85 1.95-.95 3.7-2 1.6-1.95 1.25 1.05-5.45 3.4-7.9-2.35.7-5.6 3.2-2.85 2.15-4 3.75"/><path fill="#0d131a" d="M232.2 56.7q1.2-.9 1.6-.45.4.45-.3 1.9-3.55 7.4-11.05 8.1-1.25.1-1.35-.35-.05-.45 1.2-.7 5.8-1.3 8.95-6.1-2.4 1.1-5.6.9-2.85-.15-5.15-1.25-4.35-2.1-9.3.8-4.05 2.4-7.5 7.4-.7 1.1-1.1.85-.35-.25.2-1.4 2.6-5.65 7.95-8.35 5.6-2.9 10.65-.5 2.4 1.15 5.35 1 3.1-.15 5.45-1.85"/><path fill="#0d131a" d="M250.6 57.2q.1-1.25.6-1.35.55-.1 1.2 1.05 1.1 1.9 1.2 5.3.1 3.75-1.25 6.15-.55 1.05-.9.8-.4-.25-.05-1.3 1.3-3.75.35-8.25-1.1 4.6-3.9 7.15-.4.35-.65.2-.25-.15-.25-.65l-.95-4.35q-.95-3.1-2-4.6-.25 2.75-1.75 5.15-1.5 2.35-3.4 3.2l-5.25.3q-3.1-.85-4.7-3.35l.85-.7q1.7 1.9 4.15 2.5l4.35-.25q2-.85 3.15-3.5 1.1-2.5 1.05-5.85-.1-3.25 1.75-.35 3.6 5.6 3.75 10.25 2.4-3.3 2.65-7.55"/><path fill="#0d131a" d="M249.95 22q.4-.2 1 .5l3.3 2.85.25 2-2.95-2.45q.7 4.8 3.15 8.3.85 1.25-.6.8l-4.35.15q7.3 2.6 9.3 9.7 1.4 5.2-.3 11.05-1.7 6-6 9.9l-.1-1.5q3.45-4.45 4.7-9.45 1.3-5.05.05-9.6-1-3.55-3.2-5.75-2.25-2.2-6.1-3.4-1.5-.45-.55-1.35.8-.8 2.35-1.15l3.05-.1q-2.35-3.4-3.25-9.2-.2-1.1.25-1.3"/><path fill="#0d131a" d="M255.65 15.55q-1.4 4.2-.9 8.75.5 5 3.25 8.85.7 1 .35 1.35-.4.35-1.2-.65-3.75-4.75-4.1-10.65-.35-5.2 2-10.05.5-1.1 1-1.05.5.1.65 1.2.85 6.6 1.7 9 1.5 4.3 5.3 6.95 10.1 7 14.4 16.2 4.4 9.5 2.05 20.1l-1.45 1.95q1.6-11.75-2.1-20.7-3.95-9.4-14-16.4-3.7-2.55-5.4-7.1-1.2-3.15-1.55-7.75"/><path fill="#0d131a" d="M278.15 69.45q-.95 1-1.35.6-.4-.35.55-1.35 1.65-1.75 3.6-5.15 1.95-3.4 3.05-6.4.5-1.4 1.05-1.3.55.05.75 1.5.55 3.9.1 10.65-.55 7.7-2.2 11.75l-2.3 2.8q1.8-4.8 2.7-12.7.75-6.85.4-9.8-2.45 5.5-6.35 9.4"/><path fill="#0d131a" d="M283.35 81.15q-1.6 1.55-2.7 3.7-.5.95-.95.8-.4-.2-.05-1.2 1-2.8 3.25-4.85 2.55-2.35 5.45-2.5 1.05-.05 1.35.3.3.4-.4 1.1-.85.85-1.8 2.5l3.85-.7q1.8-.2 4.1 0 1.85.15 1.9.7.05.55-1.6 1.3-6.6 3-9 10.55-1.25 3.9-1.5 8.5-.95 3.85-3.05 6.6-2.2 2.9-6.2 5.1-1.05.6-1.25.2-.2-.4.7-1.1 4-3 5.8-5.7 1.4-2.05 2.2-5.35.8-6.5 1.9-9.95 1.9-6.15 7.95-9.35-2.9-.3-7.15 1-1.05.25-.65-.85.45-1.5 1.75-3.15-2.05.55-3.9 2.35"/><path fill="#0d131a" d="M288.55 120.85q1.8 5.5-.1 11.95-1.95 6.7-6.85 10.65-.95.8-1.25.45-.3-.35.55-1.2 4.45-4.55 6.05-10.6 1.4-5.45.2-10.2-1.4-5.4-.35-10.2 1.15-5.4.4-10.05-1.3 2-4.1 4l.9-2.4q1.75-2 2.8-4 .55-1 1-.95.5.05.75 1.25 1.15 5.25-.15 11.35-1.25 5.65.15 9.95"/><path fill="#0d131a" d="M284.05 139.85q3.4-.4 6.25.55 1.2.45.2 1.35-2.3 2.15-4.7 3.6-3.1 1.95-5.2 2.05-1.2.1-1.2-.4 0-.45 1.2-.65 2.6-.45 7.8-4.85-2.4-.5-5.5 0l1.15-1.65"/><path fill="#0d131a" d="M282.05 146.75l1.4-.85q2.9.7 6.1 2.85 2.3 1.5-.35 1.75-2.9.35-5.65 1.3-2.6.9-4.35 2.1 3.25-.4 5.8 1.05 2.55 1.5 3.4 4.2l-2.2-.7q-1.1-2.05-3.35-2.8-2.1-.75-5.45-.5-.5.05-.65-.25-.15-.3.15-.65 1.25-1.4 4.25-2.85 3.15-1.5 6.35-2.15-3.1-1.85-5.45-2.5"/><path fill="#0d131a" d="M277.15 164.6q-6.9 1.7-11.1 5.35-.85.7-1.25.45-.35-.3.4-1.15 3.5-3.9 11.15-6.05 8-2.2 14.1-.55-1.4-2.55-4.1-3.45l-5.9-.15-1.35-.15q-.1-.45 1.05-.85 3.9-1.4 7.45 0 3.55 1.4 4.95 4.95.55 1.35.25 1.7l-1.55-.05q-6.45-1.9-14.1-.05"/><path fill="#0d131a" d="M265.7 173.15l7.05-8.15 2.45-.9-7.4 9.2-6.15 6.75q-5.35 4.55-8.6 5.35l-2.8-.6q2.55-.3 5.4-2.25l4.55-3.7 5.5-5.7"/><path fill="#0d131a" d="M239.65 182.1q-1-.7-.8-1.1l1.3.1q3.5 1.7 6.05 2.4l4.2.65q6.2.45 10.1 3.6 1.15.95 1 1.45-.15.5-1.7.2-7.55-1.45-13.15.75-6.35 2.55-12.2 2.6-7.5.1-11.85-4.15-.8-.8-.45-1.15.35-.35 1.2.4 4.45 3.65 11.4 3.45 5.35-.2 11.35-2.55 4.7-1.85 11.25-1.2-3.65-1.7-7.1-1.9-5.75-.3-10.6-3.55"/><path fill="#0d131a" d="M220.3 195.7q-3.2-.3-5.95-1.35l-1.7-1.8q2.8 1.35 6.7 1.65h6.95q3.6-.15 7.75 1.95l-4.55-4.5 2.55.3q2.55 2.1 4.95 5.4.95 1.35.6 1.75-.4.45-1.8-.4-5-3.05-9.6-2.9-3.5.15-5.9-.1"/><path fill="#0d131a" d="M205.5 195.15l-1.8-2.2q6.6 3.25 12.95 3.75-4.85-2.95-7.4-7.45-.45-.85-.05-1.1.4-.25 1 .65 1.5 2.15 4.1 4.25 2.65 2.15 5.7 3.65 1.6.8 1.45 1.35-.1.6-1.85.55-7.05-.25-14.1-3.45M90.25 222.8l2.15-.25q-1.05 8.35-2.45 13.65-1.55 5.7-3.85 9.25-2.5 3.9-6.8 5.4-4.3 1.55-9.9.6-6.2-1.05-7.95-5.25-.9-2.3-.35-5.15.55-2.9 2.55-6l1.35-2.1 1.1-2.6q2.25-7.1 2.55-16.15.25-7-.7-13.35l1.75-.3q1.35 9.2.55 17.95-.65 7.5-2.75 13.05-.6 1.55-2.2 4.05-3.75 5.9-2.15 9.95 1.45 3.4 6.6 4.25 5.25.95 8.85-.45 3.55-1.3 5.8-4.95 3.85-6.2 5.85-21.6"/><path fill="#0d131a" d="M65.1 245.5q.4-2.65 2.25-4.2.65-.55 1-.25.3.3-.2 1-1.45 1.95-1.45 4.45 0 2.7 1.95 3.1l-3.1-.4q-.85-1.4-.45-3.7m7.25 1.45q-.05-2.9 1.45-4.95.5-.7.9-.5.4.2.05 1-1 2.3-.7 4.8.4 3 3 2.55l-3 1q-1.7-.85-1.7-3.9m6.65-27.4l-2.9-1.5q-.65-2.05.3-4.4 1-2.4 3-3.5l1.1-.1q.3.3-.4.95-2 1.75-2.4 4.5-.4 2.8 1.3 4.05"/><path fill="#0d131a" d="M103.25 185.8l3.85-1.35q-6.15 5.95-12.45 10.95-7.55 6.05-12.45 8.25-6.35 2.85-7.3 7.7-.85 4.5 3.2 7.55 4.65 3.5 10.2 3.25 5.4-.25 10.6-4.05 14.4-10.6 22.25-14.2 2.45-1.05 3.6-2.65 2.1-2.85 5.2-7.85l1.4 1.3-5.05 7.55q-1.4 1.95-4.35 3.3-8 3.6-22.05 14.05-5.45 4-11.55 4.3-6.25.3-11.2-3.4-4.6-3.45-3.9-8.85.8-6.05 8.4-9.45 7.85-3.55 21.6-16.4"/><path fill="#0d131a" d="M87.35 222.15l-3.35.5q-1.75-1.55-1.45-4.85.25-3.45 2.55-5.15.75-.55 1.05-.2.25.35-.4 1.05-1.9 2-1.65 5.15.3 3.35 3.25 3.5m30.9 8.9l-2.75-.65q-.7-1.9.05-4.2.85-2.4 3-3.6l1.1-.05q.3.4-.45.95-1.9 1.25-2.3 4-.4 2.8 1.35 3.55"/><path fill="#0d131a" d="M147.15 191.9l1.65-1.2q1.95.85 2.35 3.8.45 3.15-1.25 7.5l-4.4 10.25q-3.05 6.4-5.95 11.25-4.1 7-9.35 9.05-4.65 1.85-11.35.2-4.8-1.15-6.35-4.95-1.65-3.95 1.4-8.15l1.2-1.5 1.55-2.35q2.6-4.1 4.6-10.9l2-1.05q-1.85 7.35-5 12.45l-2.6 3.65q-2.55 3.65-1.55 7 1 3.4 5.1 4.4 6.2 1.5 10.5-.55 4.3-2 8.1-8.1 5.65-8.95 10.3-21.05 1.5-3.9 1.15-6.7-.35-2.6-2.1-3.05"/><path fill="#0d131a" d="M126.95 231.75l-3.05 1q-1.7-1.25-1.55-4.3.1-3.3 2.55-5.1.7-.55 1.05-.2.3.35-.3 1-2 2.25-1.65 5.1.3 2.95 2.95 2.5M169.8 127.4l1.1-1.7q10.65 3.85 17.6 16.45 6.85 12.4 6.6 26.7-.25 13.7 9.4 23.8 2.75 2.85 3.65 6.15.85 3.1.25 7.5-1.15 8.25-8.4 27.85-3.2 8.7-9 11.3-4.05 1.8-10.8.85-9.4-1.3-9.1-9.5.25-4.75 4.65-9.65l1.25-1.4.9-1.75q2.35-5.65 1.85-13.95-.3-4.15-2.6-5-8.05-2.8-14.6-8.4-6.05-5.2-9.35-11.35l1.7-.5q2.95 5.45 9.05 10.5 6.05 5.1 12.75 7.7 2.55.95 3.75 2.65 1.25 1.8 1.35 4.85.25 8-2.35 14.25-.7 1.65-1.85 2.95-4.45 5.25-4.6 9.1-.15 3.25 1.8 5.3 1.9 2.05 5.7 2.55 5.95.8 9.4-.8 5.2-2.35 8.2-10.45 7.45-20 8.45-27.4.6-4.2-.15-6.9-.75-2.75-3.2-5.35-5.05-5.25-7.6-11.55-2.65-6.45-2.55-13.35.25-13.95-6.75-26.3-6.9-12.35-16.5-15.15"/><path fill="#0d131a" d="M178.4 244.2l-3.35-.6q-.9-1.45-.5-3.8.45-2.7 2.35-4.15.7-.55.95-.25.3.35-.25 1.05-1.65 2.15-1.7 4.35 0 2.55 2.5 3.4m8.55.55l-3.15 1q-1.9-1.45-1.9-4.55 0-2.95 1.65-4.95.6-.7.95-.45.35.2-.05 1.05-1.25 2.4-.9 5.05.4 3.2 3.4 2.85M44.15 33.9q2.45 2.3 5 5.45-.15-3.8 0-5.35.1-1 .45-1.05.4-.1.9.8 3.75 5.95 8.4 17.15 4.55 10.9 6.3 17.75l-1.3 2q-2.3-8.6-6.7-19.4-3.8-9.4-6.7-14.6l-.2 4.2-.35.7q-.3.1-.6-.3l-5.1-5.55.3 4.2-1.25-1.5-.35-3.9q-.1-.9.2-1.1.35-.15 1 .5m127.3 111.85q1.2-.75 1.55-.7.45.15-.15 1.85-1.95 5.5-4 7.75-1.95 2.1-6.6 4.1l5.35.95 1.5.35q.2.3-1.1 1.25-2.05 1.5-5.25 3.3-3.4 1.85-5.65 2.7-1.25.5-1.15 0 .05-.45 1.2-1.05 6.85-3.7 9.2-5.55-2.95-.1-5.55-.95-1.8-.6.5-1.75 4.15-2.15 6.6-4.75 2.35-2.5 3.75-6.2-5.25 3.6-10.9 3.5l.8-1.3 3.8-.4q2.6-.8 6.1-3.1"/></svg>