<svg xmlns="http://www.w3.org/2000/svg" width="265" height="236" viewBox="0.0 0.05 264.75 235.95"><path fill="#0d131a" d="M1.6 46.95l3.4-.3q3.05-.1 3.3.05l38.9 41.5 38.65 41.4-5.9 41.35-25.45-5L0 51.9q1.25-4.65 1.6-4.95"/><path fill="#60c0bd" d="M2.35 48.15l4.9-.3 76.35 83.3-7.15 35.65-24-10.75-51-104.5.9-3.4"/><path fill="#a0d7e5" d="M7.25 47.85l16.8 18.4 6.5 27.4q-1.4-2-4.95-4-3.95-2.2-6.5-1.9L1.45 51.55l.9-3.4 4.9-.3"/><path fill="#82cbd1" d="M7.25 47.85l76.35 83.3-7.15 35.65-2.7-1.2L5.1 51.55q-.7-.85-.55-1.95.1-1 .9-1.65l1.8-.1"/><path fill="#d2ecfa" d="M7.25 47.85l46.7 50.95Q47.8 94 37.4 88.2q-11.3-6.25-12.85-5.1l-.35.15-19.1-31.7q-.7-.85-.55-1.95.1-1 .9-1.65l1.8-.1"/><path fill="#0d131a" d="M6.25 52.6L70.9 156.1q.35.55.2 1.15-.15.6-.7.95l-1.15.2q-.6-.15-.95-.7L5.6 53.15q-.7-1.2-.4-1.5.3-.3 1.05.95M193.9 153.65q42.8 32.6 43.6 33.7.5.65 6.6 18.15 6.15 17.65 6 18.4-.05.6-4.5 6.05-4.4 5.4-5.05 5.7-.65.35-30.6-5.65l-27.55-7.35q-26.7-7.3-28-8.3-1.2-1-4.05-15.7l15.6-36.6 27.95-8.4"/><path fill="#a0d7e5" d="M198.15 160.75l36.75 27.95 11.75 31.9.4 2q0 1.25-.85.85l-24.8-10.15-32-47.15 8.75-5.4"/><path fill="#60c0bd" d="M220.85 215.45q.25-.05 12.65 5l12.3 5.05-6.25 7.75-13.6-2.85-13.6-3.1 4.1-5.9q4.15-5.85 4.4-5.95"/><path fill="#52a7a5" d="M155.95 212.55q-.5-.5-2.95-13.65l34.7-31q31.45 46.2 31.4 46.55l-9.4 12.3q-.8.15-26.65-6.55-26.15-6.75-27.1-7.65"/><path fill="#0d131a" d="M177.6 196.15q-1.55 1.9-3.95 2.55l-55.8 12.7q-.75.2-4.15-1-3.3-1.1-3.95-1.6l-31.45-28-5-21.4q-4.95-21.65-4.65-22.95.35-1.75 30.25-27.65l30.45-26.15 1.35-1.4q.9-.8 1.85-.85 36.3-.6 37.7.15 1.45.85 26.4 27.7 25.5 27.4 25.5 29.2 0 1.3-22.05 29.85l-22.5 28.85"/><path fill="#d2ecfa" d="M168.05 82.35q1.2 0 1.7.55l48.75 53.6q.65.9.2 1.55l-.05.05v.05L175.8 194.2q-.6.9-1.65.9l-14.6-.15-14.2-.2q-.2-.15-.5-69.1l-6.3-9.4-6.35-9.55q-.05-.3 6.5-12.4 6.5-12.15 6.75-12.3.25-.15 11.25.05l11.35.3"/><path fill="#82cbd1" d="M174 105.2q18.35 10.55 36.9 29.8l-66.25-9.65q-12.4-18.25-12.45-18.65 0-.5 7.45-14.15Q157.3 95.6 174 105.2"/><path fill="#d2ecfa" d="M168.05 82.35q1.2 0 1.7.55l48.75 53.6.35.75-7.95-2.25q-18.55-19.25-36.9-29.8-16.7-9.6-34.35-12.65 5.45-10.3 5.8-10.55.25-.15 11.25.05l11.35.3"/><path fill="#60c0bd" d="M175.8 194.2q-.6.9-1.65.9l-14.6-.15-14.2-.2q-.2-.15-.5-69.1l-.2-.3 36.05 5.25q14.45 10 22.15 28.25L175.8 194.2"/><path fill="#bbe2f1" d="M218.85 137.25q.1.5-.15.8l-.05.05v.05l-15.8 20.7q-7.7-18.25-22.15-28.25l30.2 4.4 7.95 2.25"/><path fill="#eb6d80" d="M141 82.55q1.15 0 .7.85l-11.8 21.2q-.8 1.55-.8 2.3.05.85 1.1 1.95l5.7 8.3 5.35 8.1q.75 1.5.75 2.4l.55 65.9q.05.95-.25 1.4l-.95.7-15.2 5.85-15.15 5.55q-.4 0-29.45-26.8-1.05-1.2-1.3-2.45l-8.1-39.4q-.45-1.9.85-3.15l57.45-50.75q.3-.35 1.3-.5l1.45-.2 3.55-.65 4.25-.6"/><path fill="#f6c7ce" d="M142 127.65l.2 30.55q-4.95-12.1-17.8-19.65-13.2-7.75-26.05-5.1V133l43.25-6.85.4 1.5"/><path fill="#f3b1b9" d="M133.1 98.85l-3.2 5.75q-.75 1.45-.7 2.2.05.75 1 2.05l5.5 8 5.55 8.4.35.9-69.55 11 .05-.4.05-.05.1-.4.05-.1.3-.5.4-.45 49.9-44q3.2.4 6 2.2 3.45 2.2 4.2 5.4"/><path fill="#f09ba5" d="M141 82.55l1.05-.1-.35.95-8.6 15.45q-.75-3.2-4.2-5.4-2.8-1.8-6-2.2l6.2-5.55.15-.1 1.2-1.1q.3-.35 1.3-.5l1.45-.2 7.8-1.25"/><path fill="#0d131a" d="M213.3 134.9q2.2.3 2.1 1.25-.1.9-2.3.6-56.15-7.9-62.2-9.55-2.95-.8-2.8-1.75.15-.9 3.2-.35l62 9.8m-137.95 2.2q-1.4.15-1.75-.35-.35-.55 1.55-.85l60.15-9.95q2.35-.25 2.65.6.35.85-2.2 1.4l-60.4 9.15"/><path fill="#cb5e71" d="M117.25 209.3l-2.45-.75q29.05-11.4 29.65-11.4l24.5.6-51.7 11.55"/><path fill="#0d131a" d="M29.45 175.8l14.3-16.4q13.6-15.45 14-15.5.5-.1 35.4 13.3 34.95 13.45 35.4 14.05.7.85-.85 13.1-1.6 12.1-2.25 12.75-1.15 1.1-48.45 18.05l-27 3.6-26.8 3.35q-.5-.1-6.25-4.2-5.95-4.2-5.95-4.8 0-.7 8.9-18.55l9.55-18.75"/><path fill="#a0d7e5" d="M78.4 192.15l-45-16.25 25.05-29.1 67.15 25.55-47.2 19.8"/><path fill="#d2ecfa" d="M46.95 160.15l11.5-13.35 67.15 25.55-18.4 7.75q-6.6-9.25-23.35-14.8-16.85-5.65-36.9-5.15"/><path fill="#60c0bd" d="M123.05 195.4L78.4 212.25l1.05-18.05 46.3-19.35-2.7 20.55"/><path fill="#82cbd1" d="M116.4 197.9q1.65-4.35-2.55-8.05-3.9-3.5-11.4-5.25l23.3-9.75-2.7 20.55-6.65 2.5"/><path fill="#60c0bd" d="M77.05 194.3l-1 18.5-52.25 6.55-9.85-6.6 17.9-34.55 45.2 16.1"/><path fill="#0d131a" d="M143.95 81.25q0-.4 1.25-.45 1.2-.1 1.2.3l-1.6 38.9q-.05 1.95-.65 1.95-.65 0-.6-1.95l.4-38.75"/><path fill="#eb6d80" d="M185.2 52.2L178.1 63l-3.55 21.35 46.5.85-64.5 2.55-62.15-12.8-12.3-40.1 18.85-30L152.85 1l45.65 19.7 42.75 33.7-56.05-2.2"/><path fill="#eeeeef" d="M127.25 20.15l.45 1.05 30.25 15.7-5.25 16-1.1-.9-35.85-14.1 11.5-17.75"/><path fill="#fff" d="M127.25 20.15l22 1.7 8.7 15.05-30.25-15.7-.45-1.05"/><path fill="#dbdcdc" d="M151.6 52l1.1.9-22.85 4.5-14.1-19.5L151.6 52"/><path fill="#60c0bd" d="M263.75 72.4l-.3 6.1-25.9 6.65-63-.8L178.1 63l7.1-10.8 55.7 1.75 22.85 18.45"/><path fill="#82cbd1" d="M178.1 63l6.75-11.05 31.4 17.6-.5 8.2L178.1 63"/><path fill="#a0d7e5" d="M216.25 69.55L185.2 52.2l55.7 1.75 22.85 18.45-47.5-2.85"/><path fill="#f3b1b9" d="M198.5 20.7l42.75 33.7-56.05-2.2-27.1-14.8-8.8-15.55-21.8-1.95-26.55-15.05L152.85 1l45.65 19.7"/><path fill="#f6c7ce" d="M240.6 54.05L236 54l-39.9-26.4-43.45-19.95-51.7-2.8L152.85 1l45.65 19.7 42.1 33.35"/><path fill="#d2ecfa" d="M236 54l4.6.05 23.15 18.35L236 54"/><path fill="#f09ba5" d="M185.2 52.2L178.1 63l-25.4-10.1 5.4-15.5 27.1 14.8M116 37.55L81.8 35.3l18.9-30.55 26.8 15.15L116 37.55"/><path fill="#52a7a5" d="M175.65 84.15l40.75-6.3 47.05.65-25.9 6.65-61.9-1"/><path fill="#cb5e71" d="M175.2 84.3l37.2 1.45-53.25 1.7 16.05-3.15"/><path fill="#0d131a" d="M262.5 78.1l.15-5.45-64.8-51.05-45.2-19.2-51.2 3.1-18.3 30 12.4 38.6 61.3 12.5 80.6-2.6 25.05-5.9m1.6-6.9q.65.5.6 1.65l-.2 5.9q-.05.8-.85 1l-25.85 6.4-80.5 2.65-1.45-.05-61.45-12.2q-.85-.2-1.25-1.35L81 36.15q-.3-1.2.1-1.85L99.55 4.7l.7-.75 1.25-.25L151.7.05l2.5.3 44.8 19.4 65.1 51.45"/><path fill="#0d131a" d="M116.85 36.5l-.95 2.15-33.8-2.05.05-2.15 34.7 2.05m146.7 35.25l.25 1.75-47.7-3-.2-.05-57.8-32.25.25-2.35 58.1 32.65 47.1 3.25M131.3 20.9l-5-.25-26.35-14.8 2-1.6L131.3 20.9"/><path fill="#0d131a" d="M137.25 22.1l-9.55-.9-5.45 8.5-5.5 8.55 6.65 8.9 6.65 8.85 21.55-4 1.8-4.8 3.35-9.8q-5.3-9.6-8.1-14.05l-11.4-1.25m12.85-.85l.65.8 8.4 15.35-5.65 15.5q-.1.8-.9 1l-22.8 4.65q-1 .15-1.3-.5L114.6 38.5q-.3-.6.25-1.1l11.65-18.15q.5-.4 1.35-.2l21.45 2 .8.2m25.55 62.9l-2.25.45 3.7-22.2.05-.15 5.95-10.75q.35-.6 1.05-.6l56 2.5 2.15 1.9-56.7-2.15-6.25 10.05-3.7 20.95"/><path fill="#0d131a" d="M214.7 77.25l.35-8.25 1.95.55-.2 8.15q-.1 1.2-1 1.3l-56.05 8.65-6.55-.65 61.5-9.75"/><path fill="#0d131a" d="M169.65 85.2L180 83.6l57.45.4-8.55 1.4-59.25-.2m94.15-7.45l-1.15 1.65-46.65-.35-.2-.05-64.7-25.5 1.8-1.85 63 25.35 47.9.75M138.7 33.8q1.45-.1 2.75 1.15 1.4 1.3 1.35 3-.05 2.05-1.25 3.2-1.15 1.05-3 1.05-1.5 0-2.65-1.25-1.1-1.25-1.05-2.85.05-2 1.2-3.15 1-1.05 2.65-1.15"/></svg>