<svg xmlns="http://www.w3.org/2000/svg" width="141" height="160" viewBox="-0.6 -0.1 140.55 160.35"><path fill="#00a0b6" d="M5.55 91.35q5.3-7.7 14.3-8.95 5.55-.75 5.35.9-.05.6-3.2 4.75-3.5 4.55-3.15 12.05.4 9.35 7.9 15.65l2.6-3.1-.05-.1 1.05-.8q-1.45-5.1.6-8.75 2.2-3.95 8.8-6.65 5.9.45 9.35 3.05 2.45 1.8 5.1 6.3 1.75 2.95 4.85 3.6 3.8.75 6.95-3.1 3.85-4.65 6.85-6.35 3.55-2 8.7-1.6 5.5.45 10.55 3.6 4.7 2.95 8.25 7.65.35 3.4 2 7.75 1.6 4 3.95 7.85l2.9 4.05 2.1 2.65q3.65 3.75 11.3 8.15 6.25 3.65 6.4 4.7.25 1.75-3.75 2.35-4 .65-10.05-.25l1.95 1.45q1.3 1.1 1 1.95-.4 1.2-3.75 1.65-4.65.65-8.45 0-4.25-.7-8.6-3.1l3.95 4.45q1.5 1.8.75 2.8-.55.75-2.15.9-6.55.65-12.7-2.25l-2.25.95q1.1 2.1.6 3.05-.35.7-4.35.5-4.2-.2-6.55-1.3-7.5.4-13.1-2.4-2.9-1.45-3.15-2.9-.2-1.3 1.6-1.85l3.45-1.05q-1.45-1.3-3.4-4.3-2-3.15-3-5.85Q54 144.9 48 149.4q-7.2 5.35-13.6 4.8-2.45-.15-2.65-1.5-.2-1.15 1-2.2l3.35-3.4q-3.2 2.05-8.05 2.9-4.6.8-7.6.05-2.5-.65-2.25-2 .2-1.2 2.15-2.05 2.8-1.15 6.85-5.45-3.7 2.4-9.75 3.25-6.2.85-9.1-.75-1.45-.8-1.25-1.45.15-.75 2.25-1.75 3.15-1.45 6.75-4.5l-6.05.7-5.5-.55q-2.15-.7-2.25-1.7-.1-1.1 2.2-1.85 4.9-1.6 9-4.4-5.15-3.15-8.4-8.6-3.35-5.5-3.8-11.75-.65-8.7 4.25-15.85"/><path fill="#0d131a" d="M31.1 98.9q4.15-2.85 8.55-2.55h.1q-5.3 2.15-8 7.05-2.5 4.5-1.4 8.35l-1.05.8q-2.2-1.8-2.8-3.2-.95-2.1.05-5.2.9-2.75 4.55-5.25m69.25 10.6q2.7 3.6 4.25 7.65 1.6 4.1 1.7 7.95-2.35-3.85-3.95-7.85-1.65-4.35-2-7.75"/><path fill="#e3c582" d="M123.9 11.3q9.4 8.35 11.85 23.1 2.45 14.35-1.2 37.85-2.75 17.7-9.2 31.2-5.5 11.4-10.1 13.55l.35 2.05q.25 3.75-.9 7.2-1.15 3.55-3.4 5.55l-.85-.9q-2.2-2.55-4.15-5.8-.1-3.85-1.7-7.95-1.55-4.05-4.25-7.65-3.55-4.7-8.25-7.65-5.05-3.15-10.55-3.6Q73.1 97.6 66 106.2q-3.15 3.85-6.95 3.1-3.1-.65-4.85-3.6-2.65-4.5-5.1-6.35-3.45-2.55-9.45-3-4.4-.3-8.55 2.55-3.65 2.5-4.55 5.25-1.05 3.15-.05 5.25.6 1.35 2.85 3.25-1.9-.25-3.9-1.15-4.05-1.85-4.75-5-1.15-5.45 2.7-10.7 4.65-6.35 5.15-10.15 3.5-26.65 13.5-47.1 9.75-20 22.95-28.4 14.15-9.05 30.3-9.1Q112.25 1 123.9 11.3"/><path fill="#fff" d="M76.7 98.55l2.3-.2q5.25 0 8.7 3.6 3.45 3.55 3.45 8.75 0 5.8-3.65 9.45-3.5 3.5-8.7 3.5-5.3 0-8.9-3.75-3.55-3.7-3.55-9.05 0-4.85 3.25-8.45 3.3-3 7.1-3.85m-27.4 1.4q3.7 3.55 3.7 8.95 0 4.95-3.35 8.4-3.4 3.45-8.3 3.25-4.4-.2-7.35-2.85-2.8-2.45-3.6-6.35-.3-1.35-.3-2.85 0-4.55 3.1-8.05 3.35-3.75 8.2-3.75 4.55 0 7.9 3.25"/><path fill="#0d131a" d="M100.35 109.5q2.7 3.6 4.25 7.65 1.6 4.1 1.7 7.95-2.35-3.85-3.95-7.85-1.65-4.35-2-7.75"/><path fill="#dbdcdc" d="M43.45 115.4q5.9-1.35 9.75-5.7-.25 4.9-3.6 8.2-3.45 3.35-8.25 3.1-3.6-.15-6.15-1.65-2.95-1.65-3.75-4.7 6.1 2.05 12 .75m35.35 8.25q-3.1 0-5.6-1.35-2.6-1.4-3.9-4 5.05 1.4 12-.9 7.1-2.35 9.85-6.7.1 5.8-3.6 9.45-3.5 3.5-8.75 3.5"/><path fill="#bfa56f" d="M123 29.9q5.35-1.75 9.25.8 3.95 2.6 4.7 8.55.9 6.5.15 14.7-.5 5-2.55 18.3-2.75 17.7-9.2 31.2-5.5 11.4-10.1 13.55l.35 2.05q.25 3.75-.9 7.2-1.15 3.55-3.4 5.55l-.85-.9q-2.2-2.55-4.15-5.8-.1-3.85-1.7-7.95-1.55-4.05-4.25-7.65-3.55-4.7-8.25-7.65-5.05-3.15-10.55-3.6Q73.1 97.6 66 106.2q-3.15 3.85-6.95 3.1-3.1-.65-4.85-3.6-2.65-4.5-5.1-6.35-3.45-2.55-9.45-3-4.4-.3-8.55 2.55-3.65 2.5-4.55 5.25-1.05 3.15-.05 5.25.6 1.35 2.85 3.25-1.9-.25-3.9-1.15-4.05-1.85-4.75-5-.85-4.25.8-7.7l3.9-5.7q8.25-6.9 20.85-9.05 7.3-1.25 21.85-2.1 12.65-1.3 19.75-5.85Q97.4 70 102.4 55.8q3.85-11 9.7-17.95 5.2-6.15 10.9-7.95"/><path fill="#008c9f" d="M64.8 107.5l2.35-2.4q-.55 2.5-.65 3.85-.15 1.7.1 3.6-1.8 3.9-7.1 3.4-5.35-.5-6.85-4.6.9-1.95-.1-7.55 1.25 2.4 3.7 4.1 2.15 1.45 3.95 1.55 2.25.1 4.6-1.95m26.15 5.05q-.15-3.7-.95-6.3-1.25-3.9-4.3-7.05 2.25-.5 7.05 2.9 4.45 3.1 7.7 6.95l2.4 8.1 2.15 7.2q-3.7-1.95-7.1-4.5-4.9-3.7-6.95-7.3m31.5 34.8l-6.65-.4q-4.6-2.8-9.45-7.4l-3.95-4 10.75 5.5q10.35 4.85 15.6 4-.55 2.15-6.3 2.3m-21.15-6.75q-.85 4.1 4.95 7.1 5.2 2.65 12.15 3-2.95.95-8.5 1.2-6.4.3-9-1.05-3.25-1.6-4-2.85l4.4-7.4"/><path fill="#008c9f" d="M75.8 158.1l-6.9-.45q-4.5-.9-9.15-2.7 13.25-.35 21.7-3.7 9.4-3.7 20-13.6-.35 3.05-2.7 6.9-1.95 3.15-4.2 5.4 0 .85 1.5 2.35 2.1 2.2 6.1 3.9-1.1 1.15-6.45.65-5.5-.45-7.8-2.2l-1.25.6q-.85.3-1.15.55l.45 3-3.85.3q-3.75-.3-6.3-1m-19.05-19.75q-.1-1.4.9-.35l2.7 3.3q4.85 6.25 7.65 6.4-1.9 1.3-4.9 2-3.35-4.05-5.2-8.1l-1.15-3.25m-22.45 10.3q-1.95.95-6.65 1.6-6.25.85-9.15-.95 4.3-.25 10.4-3.1 6.3-2.95 11.6-7.3-.15 1.3-1.7 4.25-2.05 3.9-4.5 5.5m22.3-11.25l.1.95-.05 1.95q-3.4 6.45-11.1 10.9-8.05 4.55-13.1 2.3 5.05.1 15.45-10l6.15-5.8q2.5-2.05 2.55-.3M32.15 133q-.35 1.35-2.5 4.25l-3.8 4.5q-2.65 1.5-7.6 2.15-6 .75-10.45-.75 3.05-.45 10.1-2.95 9.6-3.45 14.25-7.2M1.6 102.25q.75 6.65 10.65 17.95l6.25 6.95q2.55 2.9 1.95 3.25-.15.75-1.6 2.3-1.55 1.65-3.3 2.7-2.1 1.3-7.3.8-5.15-.5-6.2-2.1-.5-.6 3.5-2.55l7.85-3.75q-6.4-3.9-9.8-11.2-3.45-7.4-2-14.35m76.35 38.05q-1.05 1.6-2.7 2.3-.7-.45-2.4-3.15-1.7-2.7-.85-2.1 3 1.9 5.95 2.95"/><path fill="#0d131a" d="M124.1 9.9q10.1 8.4 12.95 22.6 2.9 14.7-1 39.85-2.75 17.65-9.7 31.45-6.1 12.05-11.15 13.95l-.2-1.35q4.25-2.05 9.6-12.95 6.55-13.45 9.3-31.3 3.65-23.55 1.2-37.9-2.5-14.3-11.65-22.45Q112.4 2 96.15 1.7q-16.2-.35-30.8 9-13.3 8.5-23 28.65Q32.6 59.5 29.2 85.75q-.35 2.8-1.7 5.3l-2.8 4.1q-2.65 3.5-3.35 6.05-.6 2.25 0 5.15.9 4 6.05 5.4-3.4-3.55-1.9-8.1 1.05-3.2 5-5.7 4.35-2.75 9.25-2.4 6.15.45 9.7 3.2 2.5 1.9 5.35 6.6.75 1.25 1.95 2.15 1.5 1.1 3.1 1.2 3.05.25 5.65-2.95 3.95-4.8 7.55-6.75 3.75-2 8.35-1.65 11.65.9 19.3 10.5 6.9 8.6 6.85 18.55l-1-1.1q-1-1.45-1.05-2.05-1.05-8.55-7.8-15.85-7.2-7.8-16.2-8.5-4.4-.35-7.85 1.45-3.45 1.75-7.1 6.25-1.75 2.15-3.75 3.1-1.65.8-3.1.7-1.95-.15-3.75-1.65-1.35-1.1-2.3-2.7-2.7-4.45-5-6.2-3.3-2.45-9.05-2.85-4.15-.3-8.1 2.45-3.45 2.35-4.3 4.9-1 2.95-.05 4.8.55 1.2 2.9 3.15.55.5.25 1-.35.45-1.05.4-1.7 0-4.5-1.35-4.4-2.05-5.2-6-.85-3.95.2-6.95.65-1.9 2.9-4.9l3.1-4.3q1.1-2 1.55-5.35Q30.95 57.3 40 38.5q9.4-19.45 24.4-29.05Q79.4-.1 95.9 0q16.5.15 28.2 9.9"/><path fill="#0d131a" d="M19.75 81.75q5.4-.75 6.1.55.6 1.15-2.3 4.8-5.35 6.9-3.75 15.7 1.6 8.95 10.15 14.45 2.25 1.45 1.6 1.65-.65.25-2.85-1.2-5.05-3.25-7.65-7.5-1.85-3.1-2.55-7.15-.95-5.45.55-10.15 1-3.15 3.5-6.65 1.65-2.3 1.55-2.8-.2-.95-4.15-.4-8.75 1.2-13.85 8.75-4.75 6.95-4.15 15.35.5 6.55 4.15 12.25 3.65 5.65 9.2 8.45 3.4 1.7 2.7 2.05-.75.35-4.35-1.45-5.6-2.85-9.35-8.55-3.75-5.75-4.25-12.35-.65-8.85 4.7-16.4 5.7-8.15 15-9.4"/><path fill="#0d131a" d="M29.85 110.85q.2-.2.4.6l.05 1-3 3.7-.75-.5-.45-.75 3.75-4.05M12 127.1l1.15.35.85.6q-3.5 2.4-9.3 4.55-1.7.65-1.8 1.1-.1.55 1.85 1.15l5.95.55 6.2-.95q-1.75 2-2.8 2.15-5.1.8-9.45-.2-3.1-.7-3.6-1.85-.5-1.25 1.8-2.5l4.8-2.3q2.65-1.3 4.35-2.65"/><path fill="#0d131a" d="M9.65 140.45q-1.65.8-1.75 1.15-.15.35.8.85 3 1.7 9.55.55 6.55-1.1 9.65-3.8-1.7 3.2-3.15 3.7-4.65 1.75-9.3 2.05-4.9.25-8.15-1.25-1.7-.8-1.6-1.7.2-1.05 2.9-2.65 8.1-4.55 11.1-8.5 1.35-1.8 1.55-.8.2.95-1.45 2.75-2.2 2.45-5.65 4.9-2.65 1.9-4.5 2.75"/><path fill="#0d131a" d="M32.2 131.4q.75-1.9 1.1-1.25.35.65-.35 2.6-1.5 4.3-5.35 8.35-3.2 3.4-7 5.55-2.35 1.35-2.2 1.85.1.35 2.2.9 3.2.8 8.1-.2 5.2-1.05 8.05-3.4-1.55 3-2.6 3.5-3.25 1.6-7.35 2l-6.65-.35q-3.85-.95-3.95-2.15-.15-1.25 3.8-3.6 3.9-2.25 6.25-4.6 3.7-3.65 5.95-9.2m91.65 8.5q4.65 2.7 5.65 3.85 1.25 1.4-.35 2.9-1.25 1.2-4.75 1.45l-8.05-.35q-.5-.05-1.6-1t-.75-.9l9.35.7q3.65-.2 4.75-1.25.7-.65-.7-1.65l-4.25-2.6-6.65-4.05q-4-2.8-6.55-5.65-3.7-4.2-6.7-10.5-3.3-6.8-3.6-11.9l.7.5.8 1.25q.8 4.7 3.8 10.55 2.8 5.55 6 9.2 2.45 2.8 6.4 5.5l6.5 3.95"/><path fill="#0d131a" d="M41.75 135.35q.7-1.75.9-1 .25.8-.3 2.7-1.15 4-3.9 8-2.35 3.3-5.3 5.95-1 .9-.75 1.6.25.8 2.05.95 6.4.55 13.55-5 5.85-4.5 8.55-9.6l.6.7.35 1.1q-3.25 5.45-8.9 9.55-6.95 5.05-14 4.85-3.6-.1-3.95-1.85-.3-1.5 1.65-3.3 3.3-2.95 5-5.55 1.95-3 4.45-9.1M60.2 151.3q-1.75.5-1.2 1.45.5.9 2.85 2.05 5.6 2.8 13.1 2.3t13.75-4.05q5.1-2.9 8.3-7.35 4.25-5.85 4.8-13.9.1-2.05.75-1.6.65.45.5 2.5-.5 7.25-3.9 12.85-3.45 5.6-9.6 9.1-6.5 3.7-14.6 4.1-8.05.45-13.95-2.55-3.35-1.65-3.8-3.45-.45-1.85 2.65-2.75 10.55-3.05 15.15-8 3.6-3.9 6.45-13 .5-1.55.8-.6.3.9-.15 2.8-1.75 7.65-5.9 11.8-5 5.1-16 8.3"/><path fill="#0d131a" d="M56.6 139.95q-.6-2.15-.25-3.05.35-.9.95 1.25.7 2.55 2.9 6.15 2.15 3.5 3.7 4.85.2.15-.6.5l-.95.25q-4.45-5-5.75-9.95m14.45-2.55q-.65-1.55-.35-2.3.25-.8 1 .65 3.4 6.4 4.1 6.75.25.15-.35.55l-.85.15q-2.2-2.55-3.55-5.8M75 158.55q-.25-.15.45-.6.7-.45.95-.3 1.4.7 4.7.85l3.9-.25q.3-.85-.4-2.15-.1-.1.45-.45.55-.4.7-.2 1.2 2.4.5 3.7-.6 1.1-5.15.8-4.45-.3-6.1-1.4m20.85-10.95q-.05-.25.55-.5l.7.05q.3.7 3.05 3.7l1.7 1.9q1.9 2.3 1.6 3.4-.35 1.15-3 1.45-7.75.9-14.35-2.35l.7-.6q.9-.55 1.1-.45 5.75 2.6 11.95 2 1.75-.15 1.95-.7.15-.55-1-1.9-4.6-4.85-4.95-6"/><path fill="#0d131a" d="M101.95 135.95q-.2-.2.3-.65.5-.4.7-.2 4.1 4.95 12.15 10.75l2.45 1.85q4.6 3.8-2.75 4.95l-8.25.25q-3.7-.45-7.9-2.15-.35-.15-.95-1.55-.6-1.45-.35-1.25 4.15 2.35 8.15 3.1 3.95.75 8.8.1 2.6-.4 3.1-1 .35-.55-.7-1.4l-2.4-1.8q-8.15-5.9-12.35-11m-5.9-56q6.2 2.45 11.1 9.1l-.15 2.3-1.2-1.45q-5.3-6.5-10.8-8.75-8.4-3.35-29.75-4.85-17.7-1.25-24.9-.5-8.5.9-10.8 4.95-.2.4-.45-.95-.25-1.25.35-1.85 3.15-3.15 11.75-3.7l24.15.75q21.95 1.5 30.7 4.95m-.2-23q11.7 3.45 15.35 10.6.15.3-.1 1.45l-.3.85q-3.05-7.35-15-11.2-8.55-2.7-27.9-5-13.8-1.65-21.85-.4-8.1 1.2-11.25 5.45-.25.3-.3-1-.1-1.25.3-1.6 7.55-6.8 33.25-3.8 20.05 2.35 27.8 4.65m23.55-6.85q.1.3-.4 1.25t-.6.65q-4.15-10.1-17.3-14.95Q92 33.7 74.15 31.8q-14.25-1.5-21.75.25-6.35 1.45-9.45 5.65-.3.4-.05-1.3.25-1.6 1.1-2.3 7.65-6 30.3-3.6 18.15 1.9 27.1 5.05 13.4 4.65 18 14.55"/><path fill="#0d131a" d="M125.05 34.05q1.75 5.5 1.4 11.1-.05.3-.8.4-.8.1-.75-.2.35-5.3-1.45-10.75-1.75-5.5-5-9.1-5.7-6.35-18-9.65-10.25-2.8-21.6-2.75-7.3.05-13.15 1.2-5.85 1.15-8.95 3.2-.75.5.05-.8.75-1.2 2.15-1.8 7.45-3.1 19.85-3.1 12-.05 22.65 2.9Q114 18.15 119.9 24.75q3.4 3.75 5.15 9.3m8.6-6.8q-.05-.55.85 1.2.85 1.7.9 2.75.1 6.3-2.15 11.15-1.05 2.25-4.55 7-.15.2-.45-.55-.25-.75-.15-.9 3.2-4.35 4.4-7.9 1.9-5.45 1.15-12.75M136 57.3q.2-.2.3.75v1.05q-1.9 1.6-7.4 1.75-.2.05-.15-.65.05-.65.25-.65l3.85-.65q2.45-.7 3.15-1.6m-9 17.35q-.15-.05 0-.7.15-.65.25-.6l6.45 1.3.15 1.5-6.85-1.5m-3.45 10.3q-.3-.05.25-.65l.7-.6q1.7.4 3.5 1.55 1.8 1.1 2.95 2.55l-.05 1.05q-.3.85-.45.55-.75-1.45-3-2.85-2.1-1.3-3.9-1.6m-3.8 8.15q.75-1.1.85-1 1.7 1.45 3.3 4.3 1.85 3.35 1.8 5.85-.05.9-1.3 2.4.4-2.7-1.35-6.6-1.6-3.55-3.3-4.95m-2.5 2q-.05-.15.6-.4l.65-.1q1.35 5.1.65 11.55-.8 6.95-3.65 10.9l-.35-.8-.5-.85q2.35-3.85 3.05-10 .7-5.9-.45-10.3m-2.4-2.3q0-.35.6.5.55.8.5 1.2-.65 2.95-2.1 5.85-1.6 3.35-3.25 4.5-.3.2-.7-.45-.4-.65-.15-.85 1.6-1.25 3.3-4.9 1.7-3.6 1.8-5.85M41.5 120.3q4.4.3 7.55-2.9 1.7-1.5 2.6-3.6.95-2.2.85-4.65.05-5.3-3.5-8.7-3.2-3.05-7.6-3.15-4.6.1-7.8 3.75-3 3.45-2.95 7.75-.05 4.55 2.55 7.7 2.95 3.6 8.3 3.8m8.4-20.85q3.95 3.8 4 9.65.05 2.6-1.05 5.15-1.1 2.5-2.95 4.25-3.5 3.3-8.6 3.3-5.4-.35-8.75-4-3.3-3.6-3.35-9.15 0-4.85 3.35-8.6 3.55-4 8.95-4.15 4.8.1 8.4 3.55"/><path fill="#0d131a" d="M42.25 101.35q3.3 0 5.5 2.3 2.15 2.25 2.15 5.6 0 3.2-2.2 5.45-2.1 2.15-4.9 2.25-3.7.1-6-2.45-2.1-2.3-2.1-5.5 0-2.9 1.9-5.1 2.15-2.55 5.65-2.55m24.7 9.6Q67 116 70.4 119.5q3.45 3.45 8.4 3.55 5.05-.1 8.35-3.55 3.25-3.4 3.3-8.7.1-5.05-3.2-8.45Q84 99 79.05 98.9q-5.1.1-8.5 3.55-3.45 3.4-3.6 8.5m-1.25 0q0-5.55 3.9-9.4 3.85-3.85 9.45-3.8 5.5-.15 9.3 3.65 3.75 3.75 3.7 9.4.05 5.9-3.75 9.85-3.75 3.9-9.5 4.05-5.5 0-9.3-4.1-3.7-4-3.8-9.65"/><path fill="#0d131a" d="M70.5 111q0-3.05 2.05-5.4 2.3-2.75 6.1-2.75 3.5 0 5.85 2.45 2.35 2.4 2.35 6 0 3.65-2.65 6.05-2.3 2.05-5 2.1-3.3.1-5.85-2.1-2.85-2.4-2.85-6.35m56.25-64.4q-1.15-1.65-3.45.15-4.75 3.75-9.75 17.8Q108.7 78 108 88.15q-.45 6.35 1.35 12.6 1.2 4.05 3.95 9.55 3.2 6.45 3.2 11.15.05 5.75-4.3 11l-1.15-1.3q1.95-1.85 3-5.1 1.1-3.3.9-6.95-.1-1.65-.95-3.95l-2-4.5q-3.35-7.05-4.15-9.55-2.1-6.3-1.65-12.7.85-12 5.8-25.45 5.05-13.7 10.4-17.9 1.45-1.15 2.9-1.15 1.55.05 2.55 1.5 2.35 3.45 2.1 12.3-.25 7.55-2.15 16.5-1.85 8.65-4.95 15.1-3.5 7.45-6.5 6.8-1.45-.35-2.05-2.9-.6-2.6-.2-7.05.6-6.65 2.9-14.8 2.7-9.45 4.95-9.5 3-.15 1.1 10.7-1.1 6.15-2.4 9.35-1.2 2.75-2.15 2.55-.9-.25-.85-1.8 0-1.4.75-3.35.45-1.3.65-1.05l-.2 1.8q-.6 2.45 0 2.6.5.15 1.55-3.55 1.05-3.85 1.65-8.2l.55-5.3q-.05-1.95-.8-1.8-1.2.2-3.65 9.6-2.6 9.9-2.6 16.2 0 4.45 1.2 4.7 1.95.45 5.1-6.3 3.05-6.5 4.65-14.05 1.5-7.3 1.8-15.45.25-9.25-1.55-11.9"/></svg>