<svg xmlns="http://www.w3.org/2000/svg" width="313" height="269" viewBox="-0.45 -0.8 313.4 268.6"><path fill="#00a0b6" d="M164.7 88.3q3.3-.7 3.7.6.35 1.1-1.35 3.35-5 6.6-5.9 15-.95 9.05 3.2 18 2.85 6.2 7.9 11.15 2.5 2.4 9.55 7.8 6.2 4.7 9.4 8.4 4.8 5.5 7.5 12.9 2.85 7.65 1.1 16.9-1.55 8-6.2 15.05-2.3 3.6-5.3 6.75-1.75 4.2.6 9.45 1.9 4.4 7.8 11.1l7.4 7.85 7.35 8q2.6 3.05 3.05 6.7.5 4.05-2.15 6.7-6.85 7-29.8.65-17.75-4.9-36.7-6.55-19.25-1.65-31.2.8-6.7 1.35-12.9 4.7-5.15 2.7-12.4 8.15-8.1 6.05-13.35 3.2-5.2-2.8-1.95-10.4l2.45-5.65q1.45-3.65 1.95-6.65.65-4.1-.2-7.65-4.6.5-8.85-.15l-.2-.05q-3.95-.65-7.85-2.45-3.05-1.45-6.65-3.95-7-5.4-10.55-7.75-6.1-3.95-11.7-4.5-6.05-.6-12.15 2.5-5.8 2.95-9.15 7.95-1.85 2.75-3.05 2.4-1.25-.4-1.5-3.95Q5.4 209.9 17.45 201q11-8.05 25.35-6.8l1.6.15 12.9.75q6.65-.7 10.65-5.35l2.65-3.95q.15 1.55.6 3.2 1.55 6.15 5.6 9.65 4.35 3.7 9.35 2.2 4-1.2 5.95-5.9 2.1-5.1.4-11.65-.95-3.8-3.6-7l6.55 7.8q4.55 4.1 10.85 3.15 5.85-.9 9.2-8.2l2.45-6.2q1.5-3.65 2.9-5.45-1.95 3.05-2.55 6.65-.65 3.65.15 7.25 1.55 6.95 8.35 10.8 6.45 3.65 12.4 1.85 6.7-2.05 9.8-8.75 2.8-6.05 1.25-11.85-1.1-4.4-4.3-7.85 2.55-.95 3.85-4.65 1.3-3.55.85-7.9-.4-4.65-2.8-7.95-13.7-18.35-6.7-36.45 3-7.8 9.35-13.25 6.3-5.4 14.2-7"/><path fill="#00a0b6" d="M78.25 234.6q.85 3.55.2 7.65-3.5 1.9-6.5 5.95-3.25 4.45-4 9-.9 5.45-3.25 4.85-2.25-.5-3.3-4.95-1.4-6.1 1.1-12.6 2.2-5.7 6.65-10.05h.25q4.25.65 8.85.15M54.7 228q3.6 2.5 6.65 3.95 3.9 1.8 7.85 2.45l-.05.05Q63.1 235.3 58 239q-4.75 3.4-9.4 9.85-5.1 7.05-13.35 9.6-7.6 2.4-15.4.4-7.85-2-12.7-7.6-5.2-6-5-14.25.05-3.1 2.65-3.2 2.55-.1 3.4 2.5 3.7 11.4 13.4 13.75 9.8 2.3 17.85-6.7 4.7-5.75 7.35-8.7 4.7-5.3 7.9-6.65"/><path fill="#e3c582" d="M77.05 171.3q-3.45 1.15-5.25 4.85-1.95 4-1.2 9.65l-2.65 3.95q-4-2.25-6.4-5.7-3.1-4.45-2.95-10.1.2-6.2 6.8-10.8 6.4-4.45 13-3.7 14.4 5.65 19.95 7.1 4 .95 7.35-2.35 2.95-2.9 3.8-7.1 9.25-9.15 20.45-10.7 11.45-1.6 20.7 5.4.45 4.45-.85 8.45-1.35 4.3-3.85 5.25-3.1-3.3-7.25-4.65l-8.45-.3q-5.95 1.55-9.4 6.85-1.4 1.8-2.9 5.45l-2.45 6.2q-3.35 7.3-9.2 8.2-6.3.95-10.85-3.15l-6.55-7.8q-2.55-3.1-5.75-4.5-3.3-1.45-6.1-.5"/><path fill="#00a0b6" d="M4.05 146.75q12.25-7.25 22.3-.8 10.7 6.85 14.5 26.7 1.8 9.25 7.75 12 5.3 2.45 12.95-.6 2.4 3.45 6.4 5.7-4 4.65-10.65 5.35l-12.9-.75-1.6-.15q-8.75-2.35-11.8-12.1-.95-2.9-2.1-9.2-1.2-6.6-2.15-9.8-2.05-6.95-7.4-9.8-5.6-3-13.95-1.1-3.7.85-3.95-1.45-.3-2.3 2.6-4"/><path fill="#e3c582" d="M213.25 204.6q6.55-.25 13.05 1.35-4.9 2.2-10.25 3.6-6.8-3.7-14.4-3.05 5.55-1.7 11.6-1.9"/><path fill="#00a0b6" d="M193.6 197.45q2.9-1.65 6.05-3 11.15-4.8 22.1-3.8 9.35.9 19.4 6.1 6.55 3.4 15 9.5l14.15 10.7q8.9 6.55 18 4.4 8.5-2 15.05-10.85 2.8-3.8 5.55-3.3 2.85.5 1.2 5.15-3.55 10.3-11.15 16.05-7.6 5.7-17.4 5.55-11.35-.2-20.9-6.8-10.7-8.9-17.6-13.65-7.75-5.35-16.75-7.55-6.5-1.6-13.05-1.35-6.05.2-11.6 1.9-8.25 2.6-12.75 7.15-2.35-5.25-.6-9.45 3-3.15 5.3-6.75"/><path fill="#e3c582" d="M167.05 92.25q1.7-2.25 1.35-3.35-.4-1.3-3.7-.6-8.4 1.75-14.65 7.6-6.05 5.65-8.75 13.85-2.75 8.4-1.25 17.35 1.6 9.55 7.8 17.9l1.9 3.05q.75 1.55.9 3.55-9.2-7-20.7-5.3-11.15 1.65-20.45 10.8l.2-1.6q.2-5.7-2.9-9.7-3.2-4.1-7.9-3.5-9.15 1.25-18.45 3.55-8.8 2.2-15.95 4.85-1.35-25.25 9.95-52.85Q86 69.6 104.95 53.6q18.85-15.85 45.35-21.1 27-5.3 51.95 2.55 9.7 3.1 18.25 8.05 18.85 10.85 30.7 29.8 9.3 14.9 13.8 31.3l2.05 8.9q4.65 24.95-2.35 47.45-6.95 22.55-23.55 36.2-10.05-5.2-19.4-6.1-10.95-1-22.1 3.8-3.15 1.35-6.05 3 4.65-7.05 6.2-15.05 1.75-9.25-1.1-16.9-2.7-7.4-7.5-12.9-3.2-3.7-9.4-8.4-7.05-5.4-9.55-7.8-5.05-4.95-7.9-11.15-4.15-8.95-3.2-18 .9-8.4 5.9-15"/><path fill="#00a0b6" d="M240.7 146.95q-.5-12.6-.35-13.85 1.2-9.4 7.95-17.25 6.65-7.7 16.7-11.65 4.6-1.85 9.4-2.6 4.45-.75 5.15 1.4.7 2.2-3.8 4.6-4.8 2.45-8.7 5.5-8 6.2-11.1 14.35-2.3 6.1-2.25 14.95.05 4.95.45 14.4-.15 7.85-3.05 12.7-6.45 10.8-26 15.95-10.1 2.35-14.55 3.65-7.5 2.25-10.9 5.35-3.15 1.35-6.05 3 4.65-7.05 6.2-15.05 5.4-4.7 11.65-7.35 3.15-1.35 10.25-3.3 5.95-1.6 8.9-3.35 4.4-2.5 7.4-7.45 3.1-5.1 2.7-14M254.35 236q2.8-1.35 3.45.05.65 1.4-1.8 3.95-5.05 5.15-12.5 5.65-7.05.45-12.65-3.3-4.55-3.05-8.7-8.1-4.85-5.95-7.9-8.5-4.05-3.35-9.4-3.65-5.45-.35-8.15 2.65-5.9-6.7-7.8-11.1 4.5-4.55 12.75-7.15 7.6-.65 14.4 3.05 4.35 2.3 7.95 6.1 3.3 3.5 5.5 7.65 5.35 10.1 12.8 13.05 6.2 2.5 12.05-.35"/><path fill="#e3c582" d="M217.25 24.85l3.25 18.25q-8.55-4.95-18.25-8.05 1.2-1.75 5.4-5.85 3.8-3.7 6.2-5.55 1.4-1.15 2.2-.9.85.25 1.2 2.1M79.3 159.45l-16.15-6.35q-1.2-.55-1.2-.95 0-.45 1.2-.95 7.4-2.75 16.45-5.05 9.95-2.55 19.3-3.85 4.7-.6 7.9 3.5 3.1 4 2.9 9.7-.15 3.9-2.75 7.55-3.4 4.8-8.6 3.5-2.65-.7-19.05-7.1"/><path fill="#fffac6" d="M71.2 189q-.45-1.65-.6-3.2-.75-5.65 1.2-9.65 1.8-3.7 5.25-4.85 2.8-.95 6.1.5 3.2 1.4 5.75 4.5 2.65 3.2 3.6 7 1.7 6.55-.4 11.65-1.95 4.7-5.95 5.9-5 1.5-9.35-2.2-4.05-3.5-5.6-9.65m47.25-7.7q-.8-3.6-.15-7.25.6-3.6 2.55-6.65 3.45-5.3 9.4-6.85l8.45.3q4.15 1.35 7.25 4.65 3.2 3.45 4.3 7.85 1.55 5.8-1.25 11.85-3.1 6.7-9.8 8.75-5.95 1.8-12.4-1.85-6.8-3.85-8.35-10.8"/><path fill="#f0e78e" d="M144.95 221.05q-1.2 7-7.8 12.1-7.2 5.55-18.95 7.3-3.55-1.3-6.45-4.3-2.9-2.95-4.35-6.7-.45-1.15.05-1.6.45-.4 1.8-.4 23.3.45 35.7-6.4m-11.9-19.5q7.05 3.7 10.25 9.45-5.7 5.25-20.25 7.65-13.6 2.25-16.05 0-2.2-2 .15-9.35 2.5-7.8 7.8-11.75 10.1-.15 18.1 4"/><path fill="#0d131a" d="M123.05 218.65q14.55-2.4 20.25-7.65 1.3 2.25 1.7 4.65.4 2.8-.05 5.4-12.4 6.85-35.7 6.4-1.35 0-1.8.4-.5.45-.05 1.6 1.45 3.75 4.35 6.7 2.9 3 6.45 4.3l-7.3.65-8.3-.65q-1.2-1.8-2.15-4.6-.9-2.75-1.3-5.7-.2-1.4-.7-1.7l-1.7.15q-2.9 1.05-6.35 1.2-4.2.25-5.75-1.2-1.25-2.4-1.6-4.95-.25-2.3.1-4.4 1.15 2.35 8.2 2.05 7.05-.3 6.35-2.2-1.05-2.7-1.7-6.75-.85-5.15-.6-10.15 2.9-1.65 6.55-2.7 6.7-1.85 13-1.95-5.3 3.95-7.8 11.75-2.35 7.35-.15 9.35 2.45 2.25 16.05 0"/><path fill="#f0e78e" d="M96.75 228.6l1.7-.15q.5.3.7 1.7.4 2.95 1.3 5.7.95 2.8 2.15 4.6-6.1-1.25-10.85-4.35-4.85-3.15-7.1-7.5 1.55 1.45 5.75 1.2 3.45-.15 6.35-1.2m.95-9.5q.7 1.9-6.35 2.2-7.05.3-8.2-2.05.65-4.9 3.7-9.3 3.3-4.75 8.55-7.75-.25 5 .6 10.15.65 4.05 1.7 6.75"/><path fill="#e3c582" d="M97.15 85.15q5-.1 8.25 3.4 4.1 4.4 2.6 12.55-.9 5.1-5.35 8.55-4.75 3.7-9.7 1.75-5.2-2.1-20.5-10.45L54.65 90.9q-1.2-.8-1.15-1.55 0-.95 2.2-1.2 26.05-2.75 41.45-3M87 36.4l14.7 5.8q8.15 3.45 15.65 7.55 2.75 1.55 3.05 5.15.4 4.65-4.65 9.9-3.95 4.1-9.55 4.2-4.85.15-6.3-1.95-3.1-4.5-8.5-15.1-3.85-7.5-6.55-13.4-.65-1.4-.15-2.05l2.3-.1m75.6-.4l-8.9-.35q-4-.9-3.95-2.45.15-4.45 1.4-14 1.15-8.95 2.3-15.2.9-4.8 3.8-.65 2.65 3.7 7 11.15 5.45 9.3 8.3 15.75.65 1.45-2.4 3.3-3.2 2-7.55 2.45M64.5 153.9l5.3 2.2q5.55 2.35 6.6 3.05-.95-.35-5.45 1.1-4.25 1.35-5.45 2.15l-.6-3.75q-.45-3.45-.4-4.75"/><path fill="#008c9f" d="M78.25 234.6q.85 3.55.2 7.65-2.95 1.55-5.65 4.9-2.9 3.5-4.2 7.4-1.2-7.35-4.5-13.4 2.1-3.85 5.05-6.7h.25q4.25.65 8.85.15M54.7 228q3.6 2.5 6.65 3.95 3.9 1.8 7.85 2.45l-.05.05q-5.25.75-9 2.95-4.4 2.55-9.15 8.35 1.1-6.75-2.1-13.4 3.4-3.4 5.8-4.35"/><path fill="#bfa56f" d="M90.15 177.8q8.25 4.5 14.4 3.45 5.55-.95 12.55-7.1-2.25 5.85-3.8 8.2-2.85 4.3-7 4.9-5.75.9-10.05-2.45-1.8-1.45-6.1-7m-31.25-.2q2.95 2.15 6.3 2.1 3-.05 5.95-1.85-1.1 3.55-.55 7.95l-2.65 3.95q-4-2.25-6.4-5.7-2.1-2.95-2.65-6.45"/><path fill="#008c9f" d="M31.85 184.45q-1.05-2.5-3.75-15.8 3.1 3.95 6.45 6.05 3.8 2.4 7.4 1.95 2.45 6.75 7.95 8.5 4.95 1.6 11.65-1.1 2.4 3.45 6.4 5.7-4 4.65-10.65 5.35l-12.9-.75-1.6-.15q-7.75-2.1-10.95-9.75"/><path fill="#bfa56f" d="M213.25 204.6q6.55-.25 13.05 1.35-4.9 2.2-10.25 3.6-6.8-3.7-14.4-3.05 5.55-1.7 11.6-1.9"/><path fill="#008c9f" d="M193.6 197.45q2.9-1.65 6.05-3 3.4-1.45 7.4-2.55 2.45 8.85 11.65 12.85-8.85-.7-17.05 1.75-8.25 2.6-12.75 7.15-2.35-5.25-.6-9.45 3-3.15 5.3-6.75"/><path fill="#008c9f" d="M199.65 194.45q-3.15 1.35-6.05 3 4.65-7.05 6.2-15.05 7.25-6.35 16.9-9.25 21 5 37.25-12.75-.6 5.35-2.85 9.1-6.45 10.8-26 15.95-10.1 2.35-14.55 3.65-7.5 2.25-10.9 5.35"/><path fill="#bfa56f" d="M166.8 93.65q3.15-5.15 2.75-5.35 7.8-13.8 22.8-20.8 14.25-6.65 29.85-4.95 16.15 1.8 27.4 11.9 12.45 11.2 15.4 29.75-10.05 3.95-16.7 11.65-6.75 7.85-7.95 17.25-.15 1.25.35 13.85.4 8.9-2.7 14-3 4.9-7.35 7.4-2.95 1.75-8.75 3.35-7.1 1.95-10.15 3.2-6.15 2.6-11.45 7.1.8-4.3.55-8.75-.3-4.9-1.8-9-2.3-6.3-7.3-11.65-3.9-4.2-11.3-9.6-14.15-10.35-17.8-22.7-2.35-8-.15-17.9.6-2.7 4.3-8.75"/><path fill="#bfa56f" d="M241.15 196.75q-12.35-6.4-23.5-6.45-8.75-.05-17.75 3.95 3.4-3 10.95-5.2 4.45-1.3 14.5-3.65 19.35-5.1 25.75-15.9 2.9-4.85 3.05-12.7-.4-9.4-.45-14.35-.1-8.85 2.2-14.95 3.1-8.15 11.05-14.35 4.15 23-.8 43.25-6.05 24.75-25 40.35"/><path fill="#008c9f" d="M219.7 224.7q5.15 4.55 7.4 14.8-2.35-2.05-6.1-6.65-3.55-4.45-6.75-7.1-4.05-3.35-9.4-3.65-5.45-.35-8.15 2.65-5.9-6.7-7.8-11.1 4.15-4.15 11.2-6.6 2.55 4.9 8.95 9.7l10.65 7.95"/><path fill="#bfa56f" d="M218.15 29.85l2.35 13.25q-5.75-3.4-12.45-5.95 5.9-2.5 10.1-7.3m-109.2 120.1q.85 2.65.75 5.55-.15 3.9-2.75 7.55-3.4 4.8-8.6 3.5l-8.7-3.1q6.8.15 11.45-4.2 5.25-4.95 5.4-13.85 1.6 1.9 2.45 4.55"/><path fill="#dcd8ac" d="M84.9 194.45q6.4-2.95 7.85-10.05 1.25 6.2-.85 10.9-1.95 4.4-5.75 5.55-3.7 1.1-7.1-.7-3.2-1.65-5.5-5.4 5.35 2.5 11.35-.3m37.05-6.3q6.7 3.15 16.25-1.55 9.85-4.85 12.05-13.25 1.55 5.8-1.25 11.85-3.1 6.7-9.8 8.75-4.15 1.25-9.05-.35-4.9-1.65-8.2-5.45"/><path fill="#c9c279" d="M136.65 224.45q4.85-1.5 8.3-3.4-1.2 7-7.8 12.1-7.2 5.55-18.95 7.3-3.95-1.45-7.2-5.1 16.2-2.35 25.65-10.9m-45.1 11.5l9 .25q1 2.75 2.05 4.25-6.25-1.3-11.05-4.5"/><path fill="#bfa56f" d="M108 101.1q-.9 5.1-5.35 8.55-4.75 3.7-9.7 1.75-5.2-2.15-18.6-9.45 12.6.05 19.35-2.3 9.4-3.3 10.95-11.85 4.95 4.4 3.35 13.3m9.35-51.35q2.75 1.55 3.05 5.15.4 4.65-4.65 9.9-3.95 4.1-9.55 4.2-4.85.15-6.3-1.95-2.35-3.4-5.8-9.9 13.6-.6 20.9-8.65l2.35 1.25m55.2-19.5q.65 1.45-2.4 3.3-3.2 2-7.55 2.45l-8.9-.35q-4-.9-3.95-2.45l.15-2.45q11.55-2.7 17.25-11.25 3.55 6.5 5.4 10.75"/><path fill="#008c9f" d="M200.85 177.95q-.75 9.55-7.25 19.5-2.3 3.6-5.3 6.75-1.75 4.2.6 9.45.95 2.25 10.15 12.8l12.4 14.15q2.25 2.6 2.9 5.85.75 3.45-.85 6.1-2.4 4-9.3 4.85-8.15 1-21.65-2.75-17.75-4.9-36.7-6.55-19.25-1.65-31.2.8-6.7 1.35-12.9 4.7-5.15 2.7-12.4 8.15-3.85 2.85-7.8 3.7-3.95.8-6.4-.75-5.95-3.75 1.3-16.05 2.9-4.85 1.8-13.55-6.3 1-13.75-1.6-8.55-2.9-16.5-9.9-10-8.75-19.95-7.8-7.95.8-15.2 7.6 5.55-9.35 13.05-12.7 8.95-4.05 21 .3 4 1.7 7.6 4.3l6.05 4.55q8 5.45 23.5 8.35 4.4 6.15 9.4 9 8.1 4.6 20.75 3.55 14.75-1.2 22.65-7.3 5.2-4 8.2-11.35 17-5.55 32.65-18.2 14.8-12 23.15-25.95"/><path fill="#bfa56f" d="M136.85 160.5q5.55-.45 8.4-1.7 4.6-1.95 5.4-6.4l.05 4.75q-.75 5.3-4.9 8.35l-2.8-2.3q-3.4-2.35-6.15-2.7"/><path fill="#0d131a" d="M64.7 163.5q-.95-4.55-1.45-10.45l2.2 1.25q.5 4.65 1.25 8.25.05.3-.95.8l-1.05.15M95.6 60.15l1.25 2.3q-9.1 10.1-16 23.3h-2.9q7.2-14.8 17.65-25.6m34.25-23.1q10-4.05 20.35-5.95v2.15q-20.25 4.05-36.4 14.6l-2.25-1.1q8.6-5.7 18.3-9.7m84.8 171.85q5.4-1.35 10.35-3.45 1.6.2 3.05.9-4.9 2.2-10.9 3.7l-1.55-.5-.95-.65m-26.9-176.55l-14.9-1.2v-2.1l15.1 1.3q20.3 3.2 37.25 14.2 16.85 11 27.45 27.9 8.9 14.25 13.6 31.15l-2.25.6q-4.4-16.65-13.35-30.9-10.4-16.65-26.65-27.2-16.25-10.6-36.25-13.75m54.75 165.3l-2.3-1.35q13.6-11 20.7-28.65 5-12.35 6.25-26.25 1.3-13.7-1.1-27.7l1-.75.95-.75q2.9 14.7 1.7 29.15-1.25 14.6-6.6 27.9-7.05 17.5-20.6 28.4M71.75 100.9l1.1.9 1.2.75-.8 2.2q-9.05 25.7-8.05 45.9-1.2.7-2.05.75-.65-10.8 1.25-22.8 1.85-12.1 6.05-24.05l1.3-3.65"/><path fill="#0d131a" d="M77 158.95q.65.05 2.35 1.05 1.75 1.05 1.3.95Q73 158.85 66 163.7q-6.55 4.5-6.7 10.3-.15 5.55 2.95 9.85 2.3 3.15 6.05 5.35.3.1-.25.8-.55.7-.85.5-10.45-6.15-10.25-16.5.15-5.9 6-10.55 6.15-4.9 14.05-4.5"/><path fill="#0d131a" d="M63.4 151.85q-.45.2-.4.3l.45.3q5.55 2.5 16.4 6.8 13.5 5.3 18.7 6.6 3 .75 5.65-1.3 4.55-3.4 4.8-9.65.2-6.25-3.9-9.95-2.65-2.4-6.1-1.95-9.4 1.3-18.8 3.6-9.45 2.35-16.8 5.25m-.5 2.1q-2.15-1-2.25-1.65-.1-.8 2.25-1.7v-.25q8.05-3.15 17.05-5.65 10.15-2.8 19.05-4 3.65-.55 7.2 2.75 4.8 4.35 4.3 12-.5 7.55-5.4 11.25-3.25 2.4-6.85 1.5-8.75-2.2-35.35-14.25m42.3-64.65q-1.45-1.65-3.6-2.6-2.15-.95-4.45-.9-15.85.3-41.4 3.05-1.55.15-1.6.55-.05.35.9.9 4.2 2.65 17.85 10.1 15.2 8.25 20.3 10.35 3.75 1.5 7.5-.65 2.5-1.35 4.35-3.85 1.8-2.55 2.3-5.25 1.3-7.65-2.15-11.7m-7.25-5.55q5.7-.1 9.15 4.4 3.9 5.05 2.05 13.2-1.65 7.45-6.8 10.75-4.8 3-9.75.95-5.1-2.05-20.4-10.75-13.3-7.55-17.85-10.55-5.25-3.45 1.25-4.3 28.35-3.5 42.35-3.7m3.8-40.8q-5.3-2.25-14.95-5.9-2.3-.85-1.3 1.25 2.6 5.8 6.6 13.6 5.3 10.3 8.4 14.75 1.4 2.05 6.1 1.7 5.2-.4 8.65-4 3.9-4.1 4.45-8.2.5-4.1-2.65-5.8-7.4-4-15.3-7.4m-14.7-7.25l.2.05 15.1 5.55q8.85 3.4 15.8 7.15 3.15 1.7 3.3 6.45.1 5.55-5 10.85-3.3 3.45-9.45 4.25-6.25.85-8.25-2.05Q94.2 61.4 83.8 38.7q-2.25-4.9 3.05-3.1l.2.1"/><path fill="#0d131a" d="M109.85 157.8q-.2.2-.3-.65-.1-.85.05-1.05 7.6-8.85 19.35-10.8 12.6-2.05 22.15 5.75.2.2-.15 1t-.6.65q-8.65-7.1-20.3-5.5-11.4 1.55-20.2 10.6m11.5 9.7l-2.05 4.5-1.3 3.3q-2.25 5.8-4 8.3-3.1 4.35-7.6 5.05-5.55.85-9.85-2.5-2.15-1.6-6-6.7-.95-1.2-1.5-3.05-.55-1.85.1-.95 4.45 5.85 6.6 7.7 4.95 4.25 10.45 3.4 4.05-.6 6.65-4.2 1.55-2.15 3.6-7.55 1.5-3.85 2.5-5.8 1.75-3.3 3.5-4.3l-1.1 2.8"/><path fill="#0d131a" d="M165.05 87.35q4.25-.9 5.15.5.9 1.4-1.7 4.8-5.15 6.85-5.9 15.35-.8 8.65 3.05 16.95 2.7 5.85 7.05 10.35 3.05 3.2 8.7 7.35 7.35 5.4 10.65 8.85 5.65 5.9 8.5 13.8 3.7 10.2-.2 21.45-3.85 11.2-14 19.95-2.55 2.2-3.4 2-.9-.2 1.65-2.4 9.55-8.25 13.3-19.45 3.75-11.25.2-21.15-2.8-7.65-8-13.35-3.15-3.4-10-8.6-6.1-4.65-8.9-7.5-4.75-4.75-7.5-10.7-4.05-8.75-3.3-17.7.75-8.9 6.1-16.05 1.6-2.1 1.5-2.7l-3.2-.15q-7.6 1.6-13.5 6.75-5.95 5.2-8.85 12.75-3.65 9.55-2.15 17.85 1.5 8.45 8.75 18.5 4.55 6.2 2.55 13.85-1.7 6.8-5.1 7.4-.2.05-1.15-.85-.9-.9-.65-.9 1 .05 2.3-1.45 1.45-1.6 2.2-4 2-6.55-2.65-13.55-6.6-9.9-8.15-18.85-1.7-9.35 1.85-18.65 2.95-7.8 9.95-13.4 6.7-5.4 14.85-7.05"/><path fill="#0d131a" d="M163.05 119.85q-.55-.05-.7-1.1-.2-1.1.3-1 7.4 1 15 6.2 8.85 6.1 12.85 15 .25.6.15 1.6-.15 1-.3.6-3.35-8.1-11.75-14.45-8.05-6.05-15.55-6.85m-98.4 21.05q-1.4-2.9-.7-4.2 7.1-12.2 35.1-17.85 22.6-4.5 40.2-2.7.35.05.3 1.05-.05 1-.4.95-8.5-.8-20 0-12.6.9-23.6 3.45-28.05 6.4-30.9 19.3M162.5 35.35q3.25-.35 6-1.65 2.55-1.25 3.3-2.55.25-.35.1-.65-2.8-6.4-8.25-15.65l-6.95-11.1q-1.1-1.55-1.55-1.6-.65-.1-1.05 2-1.15 6.25-2.3 15.15-1.2 9.4-1.35 13.9l.25.5q1.1 1 4.4 1.5 3.6.6 7.4.15m2.7-21.1q5.6 9.2 8.45 15.75.3.8-.8 2.5-2.4 3.6-11.25 4.6-9.05 1.05-12.55-2.2-.95-.95-.95-1.55.15-4 1.9-14.1l2.75-15.35q.7-3.55 1.55-3.85 1.05-.4 3.55 2.9 2.8 3.75 7.35 11.3m48.2 8.85q2.55-2 3.45-1.5.65.35 1.25 3.1l3.8 19.15q.05.3-1.05-.35-1.1-.7-1.2-1.15L216.6 25q-.3-1.5-.65-1.7-.4-.2-1.7.85-2.4 1.95-6.15 5.6-4.05 4.05-5.1 5.7l-1.05-.2q-.95-.5-.8-.75 1.1-1.75 5.75-5.9l6.5-5.5"/><path fill="#0d131a" d="M242.25 124.2q-1.75-11-8.4-17.85-6.45-6.65-14.9-6.8-9.45-.2-17.75 9.85-8.8 10.65-9.75 25.8-.55 8.25 1.35 17.85l-2.35-2.35q-1.1-7.35-.85-15.3.6-15.5 9.6-26.8Q208 97.55 219 97.65q8.15.1 14.85 6.15 7.35 6.6 9.75 18l-1.35 2.4"/><path fill="#0d131a" d="M210.4 117.9q3.8-5.05 9-5.5 6.25-.55 10.7 5.2 4.6 5.95 4.4 14.85-.15 7.2-2.6 11.4-2.35 4-5.6 3.7-3.75-.3-5.55-6.05-1.85-6.1.8-12.1.85-1.95 2.25-1.8.5.1.6.35.1.3-.45.4-.8.15-1.4 1.55-1.95 4.75-.75 10 1.2 5.35 4.7 5.8 2.8.35 4.7-4.2 1.7-4.1 1.6-8.95-.25-9.45-4.4-14.45-3.75-4.5-8.9-3.85-5.45.65-8.95 6.4-3.45 5.7-3.6 14-.25 12.8 5.45 20.7 4.9 6.7 11.1 6.85 5.8.1 10.25-3.75 4.65-4.1 6.95-11.9l.35 4.2q-2.9 6.6-7.4 10.2-4.7 3.75-10.15 3.25-9.2-.8-14.2-10.6-4.3-8.4-3.9-18.95.4-10.65 5-16.75"/><path fill="#0d131a" d="M241 133.2q-.35 2.8.15 9.35.45 6.5.2 9.6-.45 5.35-2.8 9.15-3.2 5.3-8.05 7.95-2.9 1.6-9.55 3.4-6.45 1.75-9.95 3.3-6 2.7-11.2 7.35-.2.2-.2-1-.05-1.25.2-1.45 5.1-4.35 10.95-6.9 3.5-1.5 9.7-3.2 6.95-1.9 9.35-3.1 4.6-2.35 7.6-7.25 2.15-3.55 2.3-8.8l-.55-9.3q-.55-6.25-.15-9.65 1.5-11.75 11.45-20.65 9.85-8.75 23.85-11.1 5.3-.85 6.05 2.1.8 3-4.3 5.65-15.15 8-19.35 19.4-2.45 6.6-1.8 20.95.4 8.1.2 11.4-.45 6.2-2.85 10.25-4.4 7.35-13.55 11.55-5.55 2.55-17.45 5.4l-9.4 2.25q-4.7 1.35-7.45 3.3l-3.15.85-2.5.35q2.9-2.85 8.65-4.95 3.5-1.25 11.5-3.15 12.15-2.9 17.7-5.4 9.55-4.3 13.9-11.7 2.3-3.85 2.8-9.45.3-3.35-.05-10.75-.65-14.35 2-21.5 4.5-12.25 20.15-20.5 3.65-1.9 3.15-3.6-.45-1.7-4.05-1.1-13.35 2.2-22.7 10.85-9.35 8.65-10.8 20.1m-75-56.45q13.05 4.45 21 15.75 8.35 11.8 7.5 26.15l-1.05 2.9q.4-13.6-6.55-25.4-7.9-13.3-22-17.6-19.8-6.05-45.3-4.6-26.7 1.5-39 10.5l-1.15-.25q-.3-.3 1.25-1.45 11.45-8.7 38.4-10.7 27.2-2 46.9 4.7"/><path fill="#0d131a" d="M187.9 50.6q12.5 7.35 17.75 21.8 4.9 13.55 2.3 29.8l-1.55 1.4q2.2-18.5-3.5-32.35-5.35-12.9-16.3-19.1-14.85-8.35-35.4-10.75-20.85-2.45-32.6 3.1l.35-1.1q.05-.65.45-.95 14.3-4.75 34.25-2.45 20.2 2.35 34.25 10.6m16.05-14.55l2.55.25q3.15.6 4.95 1.8 14.85 9.9 17.8 30.25 1.25 8.55-.05 16.9-1.3 8.05-4.55 13.75l-.95.15q-.8-.1-.7-.35 3.25-6.15 4.3-15.05 1.05-9.4-.75-18.45Q222 43 203.95 36.05M250.6 72.5l.9.85q1 1.2 1.2 1.75 2.4 6.75-1.55 15-4.45 9.35-15.6 16.8l-.65-.55q-.55-.65-.4-.75 11.1-7.65 15.35-17.4 3.8-8.85.75-15.7m3.85 60.35l7.5.55q4.35.8 5.85 2.35l.35 1.35v.95q-1.55-1.9-6.3-3.05-4.15-.95-7.6-.8-.3.05-.25-.65.05-.65.45-.7M254.2 161q-.25 0-.25-.7t.3-.7q1.9.1 4.4 1.85 2.65 1.9 3.85 4.35l-.45.95-.65.5q-.85-2.3-3.35-4.35-2.3-1.85-3.85-1.9m-60.55 36.6q.25-1.25.5-1.35 19.2-11.5 39.85-3.9 7.8 2.85 16.8 8.8l14.6 10.75 5.35 4.05q8.35 6.2 16.45 4.8 8.2-1.4 14.95-10.45 3.4-4.6 7.05-3.95 3.75.65 1.8 6.2-3.8 11.05-11.8 17.05t-18.3 5.7q-11.5-.3-22.85-8.3-3.35-2.3-8.45-6.65-5.05-4.3-6.95-5.6-14.3-9.8-30.85-8.75-14.45.95-22.2 8.7-.15.15-.6-.75-.4-.95-.2-1.2 8.25-7.85 23.05-8.75 17.05-1.05 31.55 8.95l7.85 6.2 8.35 6.55q10.55 7.35 21.95 7.55 9.6.15 17-5.45 7.4-5.6 10.9-15.7 1.3-3.7-.75-4.25-2.1-.55-4.8 3.05-7.05 9.5-16.15 11.25-9.15 1.8-17.85-4.65l-5.3-4.05q-19.8-15.2-31.9-19.3-20.1-6.85-39.1 4.5-.25.15.05-1.05"/><path fill="#0d131a" d="M254.05 235.4q3.45-1.5 4.55 0 1.15 1.6-1.9 5.05-5.05 5.8-12.35 6.6-7.25.85-14.15-3.65-4.3-2.75-9.05-8.7-5.2-6.5-7.6-8.35-4-3.1-8.75-3.2-4.75-.15-7.15 2.75-.2.25-1-.5-.8-.7-.6-.95 2.8-3.35 8.5-3.05 5.7.25 10.15 3.85 2.75 2.25 7.75 8.15 4.5 5.35 8.8 8.4 5.1 3.6 11.85 3.25 7.35-.4 12.4-5.55 1.9-1.95 1.55-2.9-.4-.95-2.4 0-6.05 2.9-12.5.35-7.8-3.05-13.25-13.3-4.05-7.7-11-12.25-8.4-5.5-18.05-4-.55.1 2.1-.9 2.6-1 3.6-.95 8.4.3 15.25 5.6 5.65 4.4 9.35 11.4 5.15 9.75 12.15 12.8 5.9 2.55 11.75.05"/><path fill="#0d131a" d="M114.8 249.8q-6.25 1.3-12.85 5.2-4.1 2.45-12.55 8.8-4.75 3.55-9.05 3.75-3.45.15-5.9-1.75-2.6-2.05-2.75-5.6-.15-3.25 1.8-7.35 2.35-4.95 3.15-7.85 1.6-5.55.45-10.3l1.85-.25q1.1 4.6-.4 10.65-1.15 4.45-3 7.8-1.75 3.15-1.85 6.15-.1 3.3 1.9 4.85 2.2 1.7 5.8.95 3.65-.75 7.55-3.65 7.4-5.55 12.6-8.3 6.25-3.3 12.95-4.7 11.95-2.45 31-.8 19.05 1.6 37.2 6.6 14.25 3.95 22.35 2.6 5.65-.95 7.75-4.25 2.85-4.45-1.1-10.25-1.4-2.1-8.95-9.9-9-9.35-12.05-13.9-5-7.4-3.5-13 .15-.55 1.75-2.25 1.65-1.75 1.45-1.4-3.5 6.5 1.4 14.55 2.75 4.55 12.6 14.8 7.45 7.7 9.1 10.15 4.95 7.35 1.55 12.7-2.35 3.7-8.6 4.95-8.95 1.85-23.7-2.25-18.65-5.1-37.1-7.05-19.4-2.05-30.85.3"/><path fill="#0d131a" d="M68.05 234.4l1.1.15q.9.25.75.45-4.35 4-6.55 9.4-2.65 6.35-1.25 12.55 1 4.55 2.8 4.3 1.7-.2 2.35-4.15.8-4.9 4.4-9.55 3.25-4.35 6.9-6.1.25-.1.05.75l-.45 1q-3.05 1.85-5.7 6.2-2.65 4.4-3.35 8.8-1.05 6.55-4.55 5.65-3.45-.9-4.6-7.55-1-6 1.55-12.2 2.25-5.6 6.55-9.7"/><path fill="#0d131a" d="M70.25 184.15q.15-.25.5 1l.15 1.55q-4.15 7.35-11.7 8.85l-14.7-.5q-7.75-1.05-15.9 1.35-8.25 2.45-13.55 7.5-8.7 8.25-7.8 20.7.25 2.75 1 3.1.8.35 2.3-1.85 3.65-5.35 9.75-8.4 6.15-3 12.2-2.4 4.75.45 9.55 3.15 2.85 1.6 8.4 5.8 7.55 5.75 12.15 7.7 7.6 3.3 16.45 2.1 2.15-.3 2.2.35.1.65-1.85 1-9.8 1.65-17.45-1.45-4.35-1.75-12.15-7.7l-8.2-6.05q-4.85-3.1-9.25-3.55-5.6-.55-11.05 2.35-5.3 2.75-8.9 7.85-2.65 3.7-4.35 3.2-1.75-.5-2.15-5.1-.6-6.45 1.4-12.1 2-5.8 6.5-10.05 12.3-11.75 31.25-8.95 9.6 1.3 14.5.1 7.25-1.85 10.7-9.55"/><path fill="#0d131a" d="M53.6 227.3q.2-.05 1.05.75.85.75.6.85-4.1 1.15-11.9 10.85-4.95 6.2-9.2 8.85-5.8 3.55-12.25 2.2-4.9-1.05-8.7-4.8-3.8-3.8-5.65-9.5-.8-2.5-2.75-2.3-1.9.25-2 2.8-.15 7.1 3.95 12.65 4.1 5.5 11.3 7.95 7.7 2.6 15.6.6 8.9-2.2 14.35-9.75 4.6-6.3 9.3-9.8 4.7-3.5 10.1-4.6l3.4.25 2.35.35q-13.75 1.25-23.6 14.85-5.8 8-15.45 10.6-8.7 2.4-16.65-.35Q9.8 257.2 5.5 251.2q-4.25-5.95-4.05-13.55.1-4.6 3.1-5.15 2.95-.6 4.3 3.6 1.7 5.3 5.25 8.75 3.45 3.4 8 4.4 6.1 1.25 11.65-2.55 3.7-2.6 8.35-8.65 2.55-3.3 5.3-6.05 3.7-3.75 6.2-4.7M3.7 146.15q5.4-3.2 10.7-3.85 5.35-.65 10 1.45 6.6 3 10.8 9.6 4.5 7.2 6.55 19.2 1.4 8.2 6.4 10.85 2.55 1.4 6 1.2 3.55-.2 6.45-2 1.75 1.85 1.4 2-8.5 3.5-14.35.35-5.7-3.1-7.45-12.15-2.05-10.65-6.35-17.75-4.25-7.1-10.25-9.8-4.35-2-9.25-1.45-4.85.55-9.95 3.5-2.8 1.65-2.4 3.25.35 1.65 3.25 1 8.4-1.95 14.2 1.05 5.75 2.95 7.95 10.3l2.15 9.7q1.85 9.85 3.85 13.55 3.35 6.15 10.9 7.7l-4.7.25q-6.05-2.1-8.7-8-1.35-3-3.1-12.4l-.95-5.25-1.15-5.3q-2.05-6.95-7.45-9.45-5.1-2.35-12.7-.6Q.5 154.25 0 151.4q-.45-2.8 3.7-5.25m73.55 25.8q-4.45 1.5-5.7 7.2-1 4.6.3 9.7 1.5 5.9 5.5 9.2 4.1 3.45 8.6 2.15 3.7-1.1 5.5-5.5 2.05-4.85.4-11.25-1.45-5.8-6.25-9.35-4.6-3.4-8.35-2.15M70.2 189.3q-1.8-7.3.45-12.6 2-4.65 6.15-6.05 4.3-1.45 9.4 1.95 5.5 3.7 7.2 10.55 1.9 7.45-.4 12.7-2.1 4.65-6.55 5.95-4.9 1.45-9.6-1.95-4.9-3.55-6.65-10.55m50.1-19.25q-2.2 5.35-1.2 11.1 1.5 6.55 8.1 10.3 6.25 3.5 11.8 1.85 6.6-2 9.5-8.55 2.5-5.75 1.1-11.25-1.7-6.55-7.3-10.2-5.65-3.7-11.85-2.1-7.3 1.85-10.15 8.85m-2.7 11.55q-1.55-7.6 1.9-13.75 3.5-6.3 10.75-8.2 7.25-1.65 13.6 2.65 6 4.05 7.7 10.85 1.45 5.7-1.3 12.05-3.3 7.5-10.75 9.7-5.7 2.1-12.75-1.6-7.65-4.05-9.15-11.7m122-1.05q-.2-.2.5-.5l.95-.15 4.25 4.5q1.9 2.65 2.05 6l-.75.95q-.8.7-.8.4.15-3.4-1.8-6.3-1.15-1.8-4.4-4.9m-28-25.15q.5-.15.6.5l-.2 1.05q-2.65 1.9-6.5 2.8-1.95.45-2.05 0-.15-.4 1.7-1.05 3.65-1.25 6.45-3.3m-5.45-18.6l-.15 1.4-7.35.8q-2.8.1-2.7-.35.1-.45 2.9-.75l7.3-1.1m3.6-16.1q-.65 1.2-1.25 1.35-5.4-1.1-8.6-2.25-2.35-.85-1.8-1.1l2.45.2 9.2 1.8m-72.6 111.7q8.05-6.5 7.25-15.25-.4-4.3-3.65-8.35-3.4-4.15-8.9-6.9-13.05-6.4-29.7-1.75-9.95 2.8-14.95 10.3-4.3 6.4-3.45 13.15.95 7.35 8.9 12.3 7.95 4.9 18.2 4.5 17.15-.65 26.3-8M133 200.7q5.85 2.9 9.5 7.35 3.55 4.3 4.1 8.9 1 8.55-7.4 15.8-9.95 8.6-28.3 9.3-11 .45-19.65-5.15-8.35-5.45-9.55-13.15-1.1-7.25 4.05-14.3 5.65-7.7 16-10.6 17.45-4.9 31.25 1.85"/><path fill="#0d131a" d="M113.35 197.7l1.45-.15q1.2.1.9.25-3.9 2.75-6.5 8.15-2.2 4.65-2.45 8.6-.15 2.8.7 3.6.9.8 5.45.75l10.4-1q14.75-2.5 19.95-7.8.2-.2.4.6l.05.9q-5.95 5.35-20.65 7.85-13.9 2.4-16.6-.1-1.3-1.15-1.05-4.9.3-4.3 2.25-8.75 2.2-5 5.7-8m-18.6 4.65q0-.1.75-.4l.75-.1q-.6 5.45.45 11 .65 3.5 1.65 6 .3.8-.35 1.45-1.85 1.95-8.1 1.9-6.15-.05-6.95-1.65-.15-.35.25-1.25.4-.95.45-.6.3 2.05 6.55 1.95 6.1-.05 6.85-1.35-2.85-8.3-2.3-16.95m3.7 27.85l-.3-1.05-1.15.05q-2.6.95-5.75 1.25-3.85.35-5.95-.6-.6-.25-.95-2.3 1.15 1.4 5.35 1.4 3.85 0 6.85-1 1.85-.7 2.35-.45.65.3.95 2.55.4 3.35 1.55 6.3 1.1 2.8 2.5 4.2.2.2-.9 0l-1.25-.35q-2.4-3.3-3.3-10m46.8-10.45q.25-.15.1.9l-.45 1.2q-12.55 6.75-35.65 6.3l-1.35.2q-.15.2.15.85 1.65 4.25 4.6 7 2.9 2.65 6.75 3.5.35.05-.85.55l-1.65.35q-3.65-1.3-6.1-4-2.35-2.6-4.05-6.9-.7-1.75-.25-2.35.5-.6 2.75-.55 23.3.45 36-7.05M127.6 170.5q-.2-4.3 2.4-5 2.55-.65 3.45 3.45.9 4.2 2.1 8.4l2.55 8.65q1.1 3.7-1.55 4.7-2.65.95-4.7-2.35-1.9-3.05-3.05-8.4-1-4.6-1.2-9.45m-51.7 8.95q-.1-3.5 1.95-4.1 2-.65 2.85 2.9 1.85 8.05 4.15 14.65 1.3 3.75-1.3 4-2.55.3-4.45-3.25-1-1.85-1.95-5.65-1.15-4.55-1.25-8.55"/><path fill="#fff" d="M78.5 178.45q.25 1-.2 1.9-.5.85-1.45 1.05-.9.25-1.7-.35-.8-.6-1.05-1.6-.25-1.05.25-1.95.45-.85 1.4-1.05.9-.2 1.7.35.85.6 1.05 1.65m51.9-9q.3 1.25-.3 2.3-.6 1.05-1.75 1.3-1.1.25-2.1-.4-1-.7-1.3-1.95-.25-1.25.35-2.3.6-1.1 1.7-1.35 1.15-.25 2.15.45t1.25 1.95"/></svg>