<svg xmlns="http://www.w3.org/2000/svg" width="111" height="196" viewBox="0.0 -1.35 111.15 196.3"><path fill="#f0e800" d="M84.3 15.75q5.5 5 8.7 11.35 2.5 5.05 2.85 9.3.4 4.15-1 8.75-.95 3.15-3.55 8.6 9.75 6.65 10.75 7.45 4 3.1 4.65 5.6.45 1.85-.8 4.95l-3.25 7q5.55 3.15 6.05 5.6.4 2.1-2.75 7.8 5.2 30.65-3.55 53.05-3.45 8.85-8.35 14.1-4.55 4.9-8.6 4.9-8 11.8-19.9 20.6-11.65 8.7-17 7.15-5-1.4-10.05-17.55-4.85-15.4-4.3-24.85-6.45-11.05-6.4-21.3 0-3.2.7-5.95l.65-2.1-2.6-2.3q-1.2-1.1-3.05-3.4-1.1-1.35-.9-7.65.25-6.6 1.9-10.4-4.1-2.75-4.45-7.5-.3-3.9 1.8-7.5-2.75-1.5-6.3-4.4Q8.4 71.3 4.45 64.4 1 58.45 1.3 49.05q.3-9.55 4.3-19 4.4-10.3 12-17.5 8.55-8.1 19.9-10.9 9.45-2.35 21.3.5 14.35 3.45 25.5 13.6"/><path fill="#f8f397" d="M1.3 49.05q.3-9.55 4.3-19 4.4-10.3 12-17.5 8.55-8.1 19.9-10.9-6.9 1.9-12.95 9.1Q12.5 25.15 17.3 51.4l1.05 6.6q.6 3.75 2 9.15 1.6 6.15 4.55 9.55 2.15 2.45 7.9 6.05-2.6-.2-9-2.7-6.75-2.85-8.7-3.5Q11.85 74.2 9.85 72q-2.65-2.85-5.4-7.6Q1 58.45 1.3 49.05m26.2 43.2q-.5 1.3-2.35 1.2L21 92.6q-1.2-2.4-.95-5.35.2-2.6 1.35-5 3 .7 3.85 2.9l2.25 7.1m4.95-7.35l2.75.25 4.65.25q.75 5.7 3.75 8.55l1.9 1.55q.8.7.7 1.4-.15 1.55-4.55-2-4.8-3.9-9.2-10M24.4 96.6l3.9-.45q1.45-.5 3.65-1.8Q30 99.2 28.8 104.3q-1.3 5.45-1.3 9.45 0 .8 1.3 3.25 1 1.95.25 3.05l-2.55-2.2-3-3.35q-1-1.2-.75-7.45.3-6.4 1.65-10.45"/><path fill="#f8f397" d="M40.6 94.6q1.75 1.8 3.55 2.05l-1.35 7.85q-1.25 8.9-.95 14.3.1 1.5 3.75 10.25 3.2 7.8 6.45 14.7-6.35-5.8-15.3-25.75-.6-1.35.9-10.25 1.45-8.9 2.95-13.15"/><path fill="#f8f397" d="M42.5 130.6q.45.85 2.25 3.3 1.3 1.8 1.3 2.8-6.45 13.3-2.05 36 1.15 5.85 3.4 13.9 1.55 5.5 1.15 5.35-5-1.4-10.05-17.55-4.85-15.4-4.3-24.85-6.45-11.05-6.4-21.3 0-3.2.7-5.95l.65-2.1-.05-.1 1.6-1.85q-1.1 5.25.3 11.85 1.5 7.4 5.35 11.25.45-1.75 2.55-5.35 2-3.45 3.6-5.4"/><path fill="#cec900" d="M90.6 47.65q2.55-4.7 4.05-6.3 1.25-1.35 1.05.1-.4 2.85-1.65 6.1l-2.75 6.2 3.85 2.9q-6.65 2.8-15.8 12.2Q69.4 79.1 72 83.15l9.9-.7L88.05 80q3.9-1.65 8.85-4.95 5.95-3.9 9.2-7.55.85 2.35-.35 5.15l-2.95 5.75q-3.15 2.7-10.7 6.3-7.6 3.55-11.85 4.35l-8.7.55q-4 .05-3.75 1.35.45 2.6 2.75 6.95 2.8 5.35 5.45 6.35l6.25-.15q2.15-.7 8.95-4.05 5.25-2.65 10.65-8.95 4.85-5.75 5.6-9 1.65 1.75 1.2 4-.35 1.75-2.7 6.05l1.3 6.6q-2.1-.3-5.9 2.9-3.85 3.25-6.55 7.65-.1.1.1 3.5l.05 7.7q-.75 11.95-7 17.4L93.3 154q.75 1.6 1.55 1.9l2.1-.25q-2.85 4.1-5.9 6.4-3 2.15-5.6 2.15-3.7 5.45-9.3 11.15-7.7 7.85-17 13.9 10.3-11.1 13.25-30.25 1.3-8.45.2-14.95-1.1-6.9-4.6-9.65-1-.8-7.7 4.85-6.85 5.7-8 5.15 3.45-3.55 9-12.8 7.55-12.5 7.15-19.15 0-3.7-3.45-9.1-2.85-4.4-8.4-10.5-1.5-.6-4.4 1.55-3.1 2.4-4.3 2.3 2.55-7.4-1.7-9.95-1.3-.8-3.15-1l-1.6-.05.05-.6q.1-.65.45-.75 12.5-3.95 21.25-9.75 5.4-3.55 16.4-13.35 6.75-6.05 11-13.6"/><path fill="#0d131a" d="M26.65 37.15q.4-20.4 6.35-31.5.8-1.45 1.75-2.2.95-.8-.35 1.85-6.9 13.95-5.75 36.35 1.05 19.8 6.75 31.2 1.05 2.1.35 2-.65-.15-1.45-1.5-8.05-13.5-7.65-36.2m1.1 89l.5-3.65q.5 5.95 2.65 11.15 2.4 5.75 5.8 8.15-.65 1.25-.85 1.1-7.15-5.6-8.1-16.75m62.95-18.5l1.2-.3.4 2.9q.3 3.6-.15 7.3-1.45 11.85-10.1 20.75l-.35-1.45q7.8-9.8 9.2-20.4.4-3.35.15-6.35l-.35-2.45"/><path fill="#0d131a" d="M69.65 123.75l.5-1.1q7 3.25 13.9 17.55 6.2 12.9 5.5 17-.65 4.15-3.9 7.95l-2.45.9q4.5-5.8 5.15-9.6.65-3.8-5.45-16.1-6.7-13.55-13.25-16.6M35.5 112.7l1.3-1 .8.95-1.35 1.05q-6.05 4.45-7.35 7.7-1.3 3.3-.25-1.55 1.6-2.55 3.6-4.45l3.25-2.7m71.1-22.95l1.1-.5q.7.1-1.2 3.15-2.85 4.75-10.35 12.2-8.5 8.45-11.75 8.05-3.15-.35-6.65-2.2l-4.9-2.95-1.85-1.1-.9-2 3.45 2.05q5.8 3.85 10.6 4.4 2.65.3 11.55-8.35 8.5-8.3 10.9-12.75M82 87.25q2.3-.4 9.45-3.7 7.95-3.65 11-6.2.4-.35.45.5.05.8-.8 1.5-2.95 2.5-7.4 4.8-5.65 2.9-12.35 4.65l-11.05-.35L61.6 85l-.5-1.15 2.3.8q6.05 2.1 8.5 2.6 4.8.95 10.1 0M20.8 90.6q2.65 3.75 12.75-.55l.95-.1L33.15 91q-2.8 1.7-5.8 2.45-4.95 1.2-6.9-1.6l.35-1.25"/><path fill="#0d131a" d="M82.7 81.55q5.7-2 13.1-6.7 7.5-4.7 10.55-8.25l.35 1.6q-3.15 3.7-9.8 7.8-6.6 4-13.75 6.7-5 1.9-10.55 1.6l-8.55-1.45q-1.75-.4-2.05-.75-.3-.4 1.25-.35l7.1 1.1q6.7.7 12.35-1.3m-22.5.15l.95-1q1.2 8.2 5.15 16.25 2.3 4.7 6.55 10.95 2.9 4.3 3 5.55v.1q-.2 4.5-9.3 16.85-8.7 11.85-12.7 14.3l-2.1.15q-1.75-1-7.75-11.15-5.3-8.9-7.2-13.1-1.45-3.05.7-15.25l2.45-11.7 1.15.3q-1 4.05-2 9.75-1.5 8.35-1.5 12.75 0 2.45.5 3.45 2 4.4 7.25 13.4 5.65 9.75 7.1 10.65.85-.05 4-3.35 3.55-3.7 7.95-9.5 4.3-5.65 7.1-11 2.6-4.9 2.75-7.15-.05-.6-.7-1.65l-1.75-2.7q-4.45-6.55-6.5-10.7-3.85-7.8-5.1-16.2"/><path fill="#0d131a" d="M37.95 92.45l-6.4-7.55 2.15.55q2.6 3.6 6.65 7.45 4.65 4.5 5.85 3.7 2.45-1.55 7.25-6.85 5.65-6.35 7.9-11.25l1.85-.9q-2.35 5.2-8.3 12.45-5.4 6.6-7.9 8.15-2.25 1.4-9.05-5.75"/><path fill="#0d131a" d="M45.25 96.8l1.25.05q-.25 5.7 1.85 20.35 1.95 13.25 4.4 24.95.25 1.3-.2 1-.5-.3-1-1.9-3.15-9.75-5-24.5-1.6-12.8-1.3-19.95m-9.4 66.9l-.6-.9q1.2-7.45 6.65-11.65 5.4-4.2 13.05-3.55 4.7.4 9.65 3.15 5.05 2.8 8.4 6.9 2.95 3.55 3.9 7.75.85 3.6.35 8.25l-.75 1.15q.45-4.15-.85-8.55-1.35-4.6-4.25-8.1-3.15-3.8-7.65-6.15-4.35-2.25-8.9-2.65-7.1-.65-12.5 3.35-5.4 4.05-6.5 11"/><path fill="#0d131a" d="M39.4 176.9q-.15.5-.4-.25-.25-.7-.15-1.15 1.1-3.55 4.3-6 4.2-3.25 10-2.4 5 .75 8.6 4.65 4.5 4.8 4.1 12.55l-1.15.95q.45-6.6-3.45-11.75-3.45-4.6-7.75-5.25-5.95-.9-9.95 2.45-2.95 2.4-4.15 6.2"/><path fill="#0d131a" d="M106.3 68.35q-.05-1.85-2.2-3.9-2.85-2.65-12.35-9.15Q82.1 67 68.45 75.6 52.2 85.8 38.1 85.95q-8.45.1-15.95-3.45-1.2 2.45-1.25 5.3-.05 3.7 1.55 6.15 1.5 2.3 3.35 2.25 1.6 0 4.65-1.9 2.8-1.7 5.65-4.3l.85.9q-2.6 2.35-5.15 4.05-4.5 2.95-6.8 2.4-1.05 4.15-1.5 8.05-.7 6.1.6 8.6 1.25 2.45 3.55 4.4 1.1 1 2 1.5l-.6 2.05q-.55 2.65-.6 5.7-.05 9.65 5.4 19.75.95-5.1 3.8-10.55 2.5-4.8 5.1-7.4l.25.65q.25.7.1.9-2.85 3.95-4.95 8.2-3.35 6.7-3.35 11.45-.1 9 4.3 23.4 4.75 15.8 9.65 17.2 4.95 1.4 16.25-6.95 11.75-8.7 19.85-20.55l.2-.3h.4q4.2-.1 9-5.8 7.5-8.9 10.75-24.5 3.8-18.5 0-40.9l-.05-.25.15-.25q3-5.45 2.65-7.2-.45-2.2-6.05-5.35l-1.2.2q-1 .1-.15-.7 1.25-1.1 3.4-4.7 2.4-4 2.35-5.65m-11.2-31.9q-.4-4.35-2.95-9.35-3.1-6.05-8.35-10.8Q73.2 6.75 59.45 3.15 47.4.05 37.7 2.4 25.2 5.5 16.3 14.9q-6.2 6.55-9.95 15.35Q2.4 39.5 2.1 48.8q-.35 9.35 3.05 15.25 3.45 6.05 9.7 11.5 3.75 3.3 7.3 5.5 7.6 3.4 15.95 3.25 8.55-.1 18.95-4.5 10.1-4.25 19-11.25 9.2-7.3 14.25-15.4 5.55-8.8 4.8-16.7M85.9 15.7q5.45 4.95 8.7 11.3 2.65 5.25 3.1 9.85l.1 1.95q0 8.55-4.95 15.05 8.95 6.2 11.75 8.85 3.2 3.05 3.2 5.9 0 1.4-1.8 5.05-1.6 3.2-2.6 4.5 6.25 3.65 6.25 7.1 0 1.25-.8 3l-2.1 4q2.15 12.65 2.15 22.75 0 15.05-4 27.2-3.35 10.35-9.1 17.2-4.35 5.05-9.65 5.4-8.2 11.85-20.25 20.95-12.2 9.2-17.8 7.6-4.55-1.3-9.9-17.15-5.3-15.85-4.8-26.45-3.7-6.4-5.15-10.7-1.35-4-1.35-8.05 0-2.85.55-6.45.45-3.1.8-4.15-3.4-2.5-5.55-5.2-1.8-2.3-1.4-8.1.4-5.35 2.3-10.35-2.45-1.8-3.45-3.4-1.1-1.7-1.1-3.95 0-1.7.55-4.05.55-2.25 1.2-3.6Q8.8 74.4 3.25 64.8 0 59.2 0 50.35q0-9.2 4.95-20.7Q8.8 20.6 15.2 13.8 24.4 4.1 37.35.9q8.95-2.25 21.05.5 15.55 3.5 27.5 14.3"/><path fill="#0d131a" d="M95.65 37.7l.25 2.45Q86.1 60.7 64.4 74.5q-7.55 4.8-15.1 7.85-6.2 2.5-8.5 2.5-4.45 0-14.7-3.45-9.35-3.15-11.5-4.7l-.2-1.4q2.15 1.55 11.85 4.9 10.5 3.65 14.6 3.65 1.9 0 7.8-2.4 7.35-2.95 14.6-7.5 8.65-5.45 16.8-14.05Q90 49.45 95.65 37.7"/><path fill="#0d131a" d="M24.5 73.45l-5.8.6q-3.75-.1-6.55-.95Q4.8 67 2.3 58.2q-.75-2.75-.95-5.4l-.05-2.15q.95 0 3.45 2.2l6.4 6.2 10 9.15q4.95 4.65 3.35 5.25m39.05-32.4q2.75-1.45 5.35-1.3 2.55.15 6.35 1.95 4.2 2 5.45 5.1 1.5 3.65-1.75 7.6-3.5 4.25-14.15 9.85-10.6 5.6-13.6 4.85-1.45-.35-1.05-4.1.35-3.6 2.2-8.4Q57 44.55 63.55 41.05"/><path fill="#fff" d="M61.55 61.9q-.85 2.6-4 4.1-2.9 1.35-5.05.75-1.2-.3-1.2-1.75-.05-1.55 1.2-5.35.9-2.85 2.7-4.4 1.85-1.6 3.8-1.1 2 .55 2.7 2.75.75 2.25-.15 5M18.4 66.95q2.5 2.5 2.95 3.5.4.8-.25 1.4-1.05 1.05-2.9.7-1.9-.4-3.45-2-1.65-1.65-2.1-3.35-.5-1.8.55-2.8.6-.6 1.65-.2 1.3.5 3.55 2.75"/></svg>