<svg xmlns="http://www.w3.org/2000/svg" width="250" height="181" viewBox="-0.9 -0.45 249.75 180.75"><path fill="#ffe45f" d="M205.4 132.45q.6 2.1.95 7.55.35 5.9.15 12.4-.15 6.5-.7 7.95-1.7 4.9-6.75 9.3-5.35 4.65-9.95 4.65-4.85 0-9.8-2.7-4.25-2.35-7.2-5.8l5.55-.3q3.5-.7 4.45-1.8.65-.75.85-5.15.15-4.15-.25-6-.25-1.35-3.15-3.1 3.2-9.75 2.3-14.05-1.1-5.5-13.5-17.3 2.4-2.75 6.55-3.1 4.05-.3 8.6 1.8 7.45 3.5 14.05 8.1 7.1 4.95 7.85 7.55M45.85 112.9q9.75 12.85 22.65 21.2-2.3 1.25-5.4 3.45-2.7 1.9-3.85 3-1.15 1-.3 8.55.75 7.35 1.75 8.55 1.2 1.5 7.1 2.65l5.65.85-4.95 3.95q-5.6 3.95-8.65 3.9-5.4-.05-11.6-3.15-5.8-2.9-9.15-6.75-3.25-3.65-4.9-14.65Q32.6 134 33.95 129q1.05-3.85 5.3-8.95l6.6-7.15"/><path fill="#f9dbe8" d="M40.95 92.9q4.95.5 10.35 0 4.05 4.45 6.55 12.05 2.65 7.95-.25 9.45-4 2-10.2-5.6-6.25-7.8-6.45-15.9"/><path fill="#f3b3cf" d="M43.25 93.45q2.35.2 4.5 0 2.75 1.35 6.15 9.35 3.4 8 1.5 8.95-1.95.95-6.6-5-5.05-6.55-5.55-13.3"/><path fill="#0d131a" d="M20.55 44.5q-2.3 2.9-4.55 3.25-2.05.3-2.2-1.55 3.15-4.6 7.05-9.05 2.05-.3 2.3 1.5.3 2.1-2.6 5.85"/><path fill="#dcc552" d="M74.65 145.45q.25-3.75.95-7.2 12.25 6.45 26.35 9.2l-2.65 3.3q-1.7 2.4-1.5 3.2 1.1 4.9 2.3 5.4l3.4.25 6.1.35q-1 3.05-7.15 5.85-6.6 3-11.4 1.75-4.25-1.1-9.6-5.6-5.65-4.7-6.55-8.5-.65-2.9-.25-8"/><path fill="#d18200" d="M204.4 47.05q17.85 19.55 29.15 45.1 10.7 24.1 13.75 49.25l-.05.3q-.9 3.4-3.8 5.85-4.6 3.8-11.2.4-13.4-21.8-40.6-35.2-19.4-9.5-37.95-12-1.9-.25-4.25-3.55l-5.05-7.55q-8.35-11.55-21.3-15.3-12-3.5-36.2 6.05L68.65 88q-9.8 3.9-14.9 4.6l-2.45.3q-5.4.5-10.35 0-4-.35-7.5-1.25 4.9 10.95 11.4 19.9-9.35-5.1-17.3-7.35-5.1-1.45-11.4-2.05-8-.8-11.85-12.75-3.7-11.5-.7-23.75 3.9-10.4 10.2-19.45.15 1.85 2.2 1.55 2.25-.35 4.55-3.25 2.9-3.75 2.6-5.85-.25-1.8-2.3-1.5Q35.05 21.1 55.35 12 76.5 2.55 100.9 2.2q31.8-.45 59.15 12.15 24.85 11.4 44.35 32.7"/><path fill="#0d131a" d="M118.65 94.7q0-6.75-4.7-11.4-4.75-4.7-11.65-4.7-6.85 0-11.75 4.75-4.9 4.7-4.9 11.35 0 6.8 4.85 11.65 4.8 4.8 11.65 4.8 7.55 0 12-4.45 4.5-4.5 4.5-12m88.4 27.4q9.45 6.65 16.45 14.1 6.15 6.5 8.2 11.05l-11.85-4.05q-7.5-2.6-13.5-3.2-.35-5.45-.95-7.55-.75-2.6-7.85-7.55-6.6-4.6-14.05-8.1-4.55-2.1-8.6-1.8-4.15.35-6.55 3.1-3.3-3.2-6.7-6.1l-4.05-3.3q-3.45-2.35-7.5-1.65-4.75.8-8.1 5.8-3.15 4.75-3.55 11.8-.45 7 2.25 9.35 2.9 2.45 6.8 6.65l4.05 4.7q.3.35.2 1.75-26.75 4.9-49.8.35-14.1-2.75-26.35-9.2l-7.1-4.15q-12.9-8.35-22.65-21.2l-1-1.35q-6.5-8.95-11.4-19.9 3.5.9 7.5 1.25.2 8.1 6.45 15.9 6.2 7.6 10.2 5.6 2.9-1.5.25-9.45-2.5-7.6-6.55-12.05l2.45-.3q5.1-.7 14.9-4.6l18.25-7.6q24.2-9.55 36.2-6.05 12.95 3.75 21.3 15.3l5.05 7.55q2.35 3.3 4.25 3.55 28.6 3.8 53.35 21.35"/><path fill="#f9dbe8" d="M102.3 78.6q6.9 0 11.65 4.7 4.7 4.65 4.7 11.4 0 7.5-4.5 12-4.45 4.45-12 4.45-6.85 0-11.65-4.8-4.85-4.85-4.85-11.65 0-6.65 4.9-11.35 4.9-4.75 11.75-4.75"/><path fill="#f3b3cf" d="M102.3 82.35q5.3 0 8.9 3.6 3.65 3.6 3.65 8.8 0 5.8-3.45 9.2-3.45 3.45-9.25 3.45-5.25 0-8.95-3.7-3.75-3.7-3.75-8.95 0-5.15 3.75-8.75 3.8-3.65 9.1-3.65"/><path fill="#ffe45f" d="M168.35 118.1q12.4 11.8 13.5 17.3.9 4.3-2.3 14.05-1.65 5-3.85 9.65-2.05 4.35-3 5.3-15.25 15.9-28.4 11.25-3.95-1.35-8.8-6.2-4.6-4.55-3.85-5.35l5.35.3q5.3.8 7.3 0 2.1-.8 4.7-7.35 2.4-6.05 2.75-9.95.1-1.4-.2-1.75l-4.05-4.7q-3.9-4.2-6.8-6.65-2.7-2.35-2.25-9.35.4-7.05 3.55-11.8 3.35-5 8.1-5.8 4.05-.7 7.5 1.65l4.05 3.3q3.4 2.9 6.7 6.1"/><path fill="#0d131a" d="M108.1 23.15q2.7.65 4.55 2.65 1.9 2.1 1.45 4.3-.5 2.2-2.65 3-2.25.85-5.7.05-3-.7-4.7-2.85-1.5-1.95-1.1-3.85.55-2.15 2.85-3.05l5.3-.25"/><path fill="#dcc552" d="M205.4 132.45q.6 2.1.95 7.55l.2 9.25Q194.85 139 182 137.85q.1-1.4-.15-2.45-1.1-5.5-13.5-17.3 2.4-2.75 6.55-3.1 4.05-.3 8.6 1.8 7.45 3.5 14.05 8.1 7.1 4.95 7.85 7.55m-146.15 8.1q-.65.6-.65 3.55-12.35-8.75-25.2-8.8-.05-3.95.55-6.3 1.05-3.85 5.3-8.95l6.6-7.15q9.75 12.85 22.65 21.2-2.3 1.25-5.4 3.45-2.7 1.9-3.85 3"/><path fill="#dcc552" d="M168.35 118.1q5.3 5.05 8.7 9.25-8.9-.9-17.35 1.8-8.75 2.8-14.8 8.8l-4.2-3.95q-2.7-2.35-2.25-9.35.4-7.05 3.55-11.8 3.35-5 8.1-5.8 4.05-.7 7.5 1.65l4.05 3.3q3.4 2.9 6.7 6.1"/><path fill="#ab6a00" d="M203.05 96.2q5.2-2.25 5.35-5.5 11.5 8.15 25.45 25.65 13.45 16.85 13.9 22.75.15 1.8-1.2 4.25-1.45 2.65-3.75 4.3-6.05 4.35-12.3-1.45-10.7-20.15-38.25-33.35-19.85-9.6-38.55-12.1-1.9-.25-4.25-3.55l-5.05-7.55q-8.35-11.55-21.3-15.3-12-3.5-36.2 6.05L68.65 88q-9.8 3.9-14.9 4.6l-2.45.3q-5.4.5-10.35 0-4-.35-7.5-1.25 4.9 10.95 11.4 19.9-9.35-5.1-17.3-7.35-5.1-1.45-11.4-2.05-5.05-.5-8.45-4.65-3.4-4.15-4.65-11.3Q7.5 76.55 18.5 77l8.65 1.3 6.95 1.1q16.8-.15 36.65-6.75L88 67.05q10.85-3.2 21.8-4.9 21.8-3.4 33.95 12.2 2.3 2.95 7.55 11.95 3.65 6.3 6.2 7.45 14.5 6.6 32.75 5.2 7.85-.6 12.8-2.75"/><path fill="#ab6a00" d="M169.15 25.05q3.1.4 9.55 9 4.65 6.2 14.85 22.2 26.6 41.7 42.1 62.4-8.7-10.9-30.35-30.65-22.5-20.45-25.15-26-2.35-5.05-6.2-17.8-3.9-12.95-4.8-19.15"/><path fill="#8a969d" d="M106.8 26.5q-.05.7-.85 1.05l-1.75.3q-1-.1-1.65-.65-.65-.55-.6-1.25.1-.65.85-1.05t1.75-.3q1 .1 1.65.65.7.6.6 1.25M21.3 40.6l-.9.7-.8-.05q-.25-.25-.15-.8.1-.5.5-1t.95-.7l.75.05q.3.25.2.75l-.55 1.05"/><path fill="#fff2b8" d="M137.05 167.75q-5.45-2.6-5.35-3.5l6.45.35q6.15 1.3 10.4.6 4-.65 8.7-3.55 1.9-1.2 2.15-.7.2.55-1.5 2.6-4.05 5-9.65 6-5.35 1-11.2-1.8m-66.8-6q-11.5 2.15-17.15-.15-5.75-2.3-7.9-10.25-.7-2.55-.15-2.65.5-.1 1.8 1.8 2.15 2.95 5.25 5.15 3.95 2.75 8.3 3.3l11.1 1.3q3.6.6-1.25 1.5"/><path fill="#0d131a" d="M31.7 91.05l1.2.05q1.35.35 1.6.9 15.2 33.55 45.8 47.75 30.55 14.15 71.4 6.55.25-.1.25 1 .05 1.1-.25 1.15-39.85 8.4-70.8-5.05-33.65-14.6-49.2-52.35"/><path fill="#0d131a" d="M228.75 85.8q-11.95-23.95-29.65-42Q158.4 2.25 100.95 3q-33.4.5-59.7 17.6Q15 37.7 4.4 65.85 2.45 73.8 3.6 82.4 4.75 91 8.45 96.2q3.4 4.7 7.8 5.15 6.3.6 11.45 2.1 7.55 2.1 16.35 6.75.6.3 1.25 1.75.7 1.5.35 1.25-9.2-5.1-17.8-6.9l-12-1.5q-2.85-.3-5.35-2.45-1.95-1.7-4.65-5.45-3.9-5.45-5.3-15.85-1.45-10.2.65-16.35 3.25-9.35 10.15-19.25 8.2-11.8 19.5-21.05Q60 .55 100.8 0q32.7-.45 60.95 13.4 25.05 12.3 44.75 34.8 17.55 20.05 28.4 45.25 10 23.25 11.95 44.8-.6-.6-1.2-2.5-.65-2.1-1.05-2.7-4.55-24.55-15.85-47.25m3.05 61.25q.1.55 1.8 1.3 1.65.75 1.6 1.45-6.25-2.7-13-4.8-8.8-2.7-15.3-3.2-.35-.05-.55-1.35-.25-1.3.1-1.25 6.45.65 14.2 3.1 7.35 2.35 11.15 4.75"/><path fill="#0d131a" d="M168.15 27.75q-.65-3.7.2-4.75.85-1.05 1.5 2.5 2.2 12 7.6 25.45 5.2 12.8 9.55 17.75 3.7 4.2 27.95 26.15 24.2 23.45 32.3 39.35 1.6 3.15.95 6.8-.8 4.6-5.3 7.65-3.55 2.45-7.2 1.65-3.25-.75-5.75-3.75l-8.45-10.8q-5.8-6.65-13.6-11.8-13.65-9-29.95-15.45-14.35-5.6-24.35-6.95-1.7-.2-3.4-2.1-1.05-1.2-3.35-4.75-4.5-6.95-8.25-10.6-6.6-6.35-15.75-9-8.45-2.45-21.9 1.3-7.85 2.2-24 9-8.65 3.65-12.55 5.1-6.5 2.35-10.55 2.9-10.35 1.4-20.35-1.05-6.15-1.45-11.05-4.05-.95-.5-4.15 1.35-2.75 1.6-4.2 2.95-1.4 1.35-1.65.75-.3-.65 1.65-2.75 2.2-2.4 4.75-4 2.7-1.7 3.9-1.2 8.7 3.7 11.4 4.45 9.65 2.75 19.5 1.45 3.85-.5 10.6-3.1l12.65-5.25q17.15-7.2 24.5-9.35 13.85-4 22.6-1.45 9.45 2.75 16.2 9.6 3.2 3.25 8.35 11.15l2.75 3.95q1.3 1.55 2.5 1.7 10.3 1.35 25.05 7.3 16.7 6.75 30.6 16.25 11.95 8.15 21.05 21.35 2.7 3.85 5.45 4.85 3.05 1.05 6.4-1.35 2.95-2.15 3.8-5.05.95-3.15-.75-6.35-9.65-18.1-33.4-40.05-23.55-20.15-27.55-24.6-4.4-4.9-9.05-17.1-4.85-12.65-7.25-26.05"/><path fill="#0d131a" d="M32.6 80.5q-.9-2.9-.55-3.65t1.65 1.8q1.5 2.9 3.65 5.8 2.2 3.05 3.5 3.95 1.45 1.05.35 1.4-1.05.35-2.65-.7-1.65-1.05-3.45-3.7-1.8-2.6-2.5-4.9m85.25 14.2q0-6.4-4.5-10.85-4.5-4.45-11.05-4.45-6.55 0-11.2 4.5-4.65 4.45-4.65 10.8 0 6.5 4.6 11.05 4.6 4.6 11.1 4.6 7.15 0 11.45-4.25 4.25-4.25 4.25-11.4M102.3 77.55q7.3 0 12.65 5 5.45 5.05 5.45 12.1 0 8.6-5.45 13.6-5.05 4.6-12.85 4.6-7.1 0-12.4-5.5-5.25-5.4-5.25-12.6 0-7.45 5.25-12.4 5.15-4.8 12.6-4.8M50.55 93.2q-.2-.2.9-.4 1.15-.15 1.25 0 2.8 3.25 5.3 9.05 2.95 6.7 2.25 10.5-.45 2.5-2.75 3.3-2.5.85-5.45-.95-5-3.05-8.5-9.15Q40 99.35 39.9 93q0-.35.9-.45.9-.1.9.25.1 5.5 3.35 11.3 3.25 5.9 7.95 8.75 4.55 2.75 5.15-.75.6-3.35-2-9.6-2.5-6-5.6-9.3m-6.25 19l1.75 1.8q-4.5 4.7-6.45 7.1-4 4.85-4.9 8.1-1.3 4.75.25 15 1.65 10.85 4.75 14.4 3.3 3.7 8.85 6.5 6 3.05 11.3 3.1 2.15.05 5.95-2.25 2.85-1.75 5.75-4.25-9.55-1.15-11.45-3.55-.65-.85-1.45-5.4-.85-4.75-.85-8.4 0-3.55.9-4.4l3.7-2.9 5.35-3.45q.55-.3 1.35.6.8.9.4 1.1-2.45 1.3-5.45 3.15-2.9 1.85-3.8 2.7-.8 1 0 7.75.8 6.6 1.6 7.7.95 1.1 4.8 2.3 3.65 1.15 6.85 1.45 1.8.2.5 1.35l-5.15 4.6q-5.5 4.35-8.75 4.3-5.6-.05-12.3-3.45-6.15-3.15-9.65-7.1-3.5-3.95-5.45-15.45-1.9-11.1-.5-16.2.95-3.45 5.25-8.7 2.05-2.5 6.85-7.5"/><path fill="#0d131a" d="M74 137.8l1.25-.05q1.15.4 1.05 1-.65 3.35-.9 7-.35 4.8.3 7.5.8 3.45 6.2 8.05 5.2 4.4 9.35 5.5 4.1 1.1 9.85-1.3 5.15-2.15 7.2-4.85l-4.75-.25-3.75-.3q-.65-.3-1.7-2.35-1.2-2.3-1.1-3.9.05-1.15 1.55-3.35 1.1-1.7 2.5-3.25l1.45.15q1.2.4.9.65l-2.5 2.8q-1.9 2.45-1.85 3.1.4 2.25 1.35 4.4l9.3.8q.7.1.75.45l-.15.85q-1.15 3.4-7.6 6.6-6.85 3.45-11.85 2.1-4.25-1.1-10.05-6.25-6.15-5.4-7.15-9.55-.7-3.15-.5-8.3.2-4.3.85-7.25m107.1-2.25q-.95-4.6-11.3-14.95-8.3-8.25-12.65-11.25-3.3-2.2-7.1-1.5-4.25.85-7.4 5.45-3.75 5.65-3.45 12.75.3 5.8 2.05 7.3l7.1 6.75 4.4 4.8q1.3 1.8-1.7 10.25-3.1 8.7-6.45 10l-4.15.45-4.7-.55-3.15-.35q.9 1.85 4.5 5.2 4.2 3.85 7.5 5 12.65 4.45 27.55-11.05 1.95-2 5.7-12.05 4.25-11.4 3.25-16.25m-9.75-16.65q11.3 11.1 12.35 16.3 1.1 5.35-3.65 17.55-4.2 10.7-6.55 13.15-6.9 7.2-14.5 10.1-7.65 2.95-14.25.95-4.35-1.3-8.4-5.15-2.85-2.65-4.9-5.85-1.2-1.95-.55-2.6l3.8-.2 5.05.4 4.35-.5q1.2-.5 3.3-4.9 2.75-5.75 3.25-12.35l-4.35-4.7q-4-4.05-6.35-6.05-1.4-1.15-2.15-3.75-.65-2.35-.65-5.35 0-11.75 6.65-17.75 6.75-6.15 14.45-.85 4.25 2.85 13.1 11.55"/><path fill="#0d131a" d="M206.95 131.7q1.15 3.95 1.05 14.9-.1 10.2-.9 13.2-1.5 5.6-6.95 10.65-5.7 5.35-11.15 5.35-5.05 0-10.25-3.25-4.05-2.5-7.25-6.25-.2-.25.15-.95.35-.8 1-.7 2.15.35 5.05-.1 3.05-.5 3.8-1.4.5-.65.7-4.4.2-3.7-.15-5.45-.25-1.1-2.9-2.65-.3-.15-.05-1.15.25-1.05.5-.9l3.15 1.95q1.4 1 1.55 1.85.25 1.25-.2 5.8-.45 5.15-1.4 6.25-.9 1.05-3.65 1.7l-5 .55q2.95 2.9 6.75 4.75 4.25 2.05 8.3 2.05 4.3 0 9.45-4.5 4.9-4.3 6.5-8.9.75-2.15.7-12.75-.1-11-1.15-14.7-.65-2.3-7.25-6.95-6.6-4.6-14.2-8.15-4.4-2.05-8.2-1.75-3.8.3-6 2.85-.2.2-.95-.5-.8-.7-.65-.95 2.55-3.15 6.9-3.75 4.45-.6 9.45 1.75 7.45 3.5 14.35 8.15 8.05 5.4 8.9 8.35M102.3 22.75q2.75-1.15 5.85-.4 3.8.85 5.95 3.5 2 2.4 1.35 4.65-.7 2.4-3.6 3.35-2.9 1-6.45 0-3.65-1-5.4-3.4-1.6-2.2-.95-4.2.4-2.35 3.25-3.5m5.6 1.2l-4.7.15q-2 .75-2.45 2.55-.35 1.55 1 3.25 1.5 1.85 4.15 2.45l5.4-.2q1.7-.75 2-2.2.4-1.85-1.35-3.7-1.7-1.75-4.05-2.3m-90.8 24.9l-3.2-.1q-.65-.45-.9-1.1.3-.05.8-.65l.75-1q0 .6.4.85l1.95-.2q1.55-.75 3-2.65 1.9-2.4 2.35-4.1.35-1.25-.15-1.75l-1.1-.2q-.8.1-1.55.65.6-1.5 1.85-2.25 1.2 0 1.9.65.95.9.85 2.7-.2 2.55-2.75 5.85-1.9 2.45-4.2 3.3"/></svg>