<svg xmlns="http://www.w3.org/2000/svg" width="365" height="318" viewBox="-0.7 -0.5 365.0 317.75"><path fill="#d3d9db" d="M240.4 100.8q-2.7 1-3.95 3.9-1.05 2.55-.9 6l-.9 4q-.95 5.4-5.9 15.2l-3.7.65q-3 .15-5.45-.9-3.3-1.4-6.4-5.35-2.75-3.5-6.35-10.3 18.2-4.25 33.15-15.55.4 1.1.4 2.35"/><path fill="#0d131a" d="M252 108.25l5.25 13.7q4.15 9.25 10.35 15.8-4.25 1.55-7.65 4.25 1.9-2.8 1.6-5.1-.65-4.3-3.35-8.9-2.85-4.9-5.5-5.4.4-1.5.1-3.05-.25-1.3-.9-2.15 1-2.65.7-5.9l-.6-3.25"/><path fill="#d3d9db" d="M225.05 130.55l3.7-.65-1.65 3.2q-1.5-1.1-2.05-2.55M206.85 114q3.6 6.8 6.35 10.3 3.1 3.95 6.4 5.35-4.3 1.5-7.55 1.95-7.75 1.05-12.45-3.4-3.45-3.3-7.15-12.15 7.3-.4 14.4-2.05"/><path fill="#fff" d="M215.1 91.35q-1.95 2.7-7.7 5.5-5 2.5-10.45 3.95 4.55-7 18.7-25.8.35 1.7.1 8.7-.2 7-.65 7.65M155.9 75.9q.25 11.6 2 20.7-3.85-6.1-4-8.25-.5-7.5 2-12.45"/><path fill="#955e0c" d="M245.85 93.6q7.6-.05 20.7 3.75 11.3 3.25 24.95 8.9 7.45 3.05 16.95 8.3 4.7 2.6 4.75 4.45.1 2.1-5.95 3-11.9 1.75-26.65-.35 5.8 2.3 13.2 6.85 7 4.25 9.55 6.75 2.05 2.05 1.95 2.85-.2 1.3-5.15 1.25l-13.85-1q6.1 3.05 12.75 7.8 6.9 5 11.9 10.05 3.85 3.9 3.4 5.4-.5 1.55-5.5 1.05-7.75-.85-15.15-4.7l-4.95-4.6-1.15-3.6q-1.9-5.45-9.05-9.5-6.95-3.95-10.95-2.5-6.2-6.55-10.35-15.8l-5.25-13.7q-.6-2.15-1.65-3.55-2.5-4.25-6.25-4.45-2.15-.05-3.7.55 0-1.25-.4-2.35l5.85-4.85m-74.1-74.4q-6.1 2.05-9.55 11.5-3.25 8.9-4.95 21.2-1.6 11.8-1.35 24-2.5 4.95-2 12.45.15 2.15 4 8.25.9 4.45 1.9 7.55 1.25 3.75 3.25 6.95-18.15-13.45-23.3-36.55-1.95-8.75-1.95-19.15.05-13.45 3.5-28.2 2.75-11.7 7.05-21.95 1.55-3.8 2.7-3.75.75 0 2.1 2.2 7.35 12.4 18.6 15.5"/><path fill="#955e0c" d="M291.6 13.6q4.2-2.6 5.35-1.95 1.15.65-.35 5.05-3.55 10.3-12.2 25.25-7.95 13.8-17.65 27.15-13.85 19.2-24.45 28-14.7 12.1-35.45 16.9l-10.05 1.5-7 .6q.2-4.55 7.15-15.3 5.45-1.45 10.45-3.95 5.75-2.8 7.7-5.5.45-.65.65-7.65.25-7-.1-8.7l4.3-5.7 21.35-28q10.65-12.65 17.15-14.05l11.3-3.6q13.15-4.7 21.85-10.05"/><path fill="#0d131a" d="M238.3 105.3q-1.7 1.85-2.75 5.4-.15-3.45.9-6 1.25-2.9 3.95-3.9 1.55-.6 3.7-.55 3.75.2 6.25 4.45-2.55-3.2-7.1-2.1-3.15.75-4.95 2.7"/><path fill="#955e0c" d="M266.75 69.1q4.5 2.75 9.35 7.8 5.1 5.25 5.8 8.25-5.4-1.6-13.35-2.4-8.45-.8-12.5.15 4.7-5.55 10.7-13.8M131.8 48.6l1.55.2q.85.45 1.15 1.25 1.35 3.25 3.3 5.35 0 10.4 1.95 19.15-4.05-6.85-7.5-9.65-.8-.65-5.95-3.4-3.2-1.7-4.05-3.85-.8-1.9.05-4.75 1.25 1.35 3 1.75l3.65-.35q1.35-.45 2.15-2.05.85-1.6.7-3.65"/><path fill="#0d131a" d="M231.05 169.6q-.5-1.65.95-6.25 2-6.5 7.2-9.75 3.5 4.85 6.55 10.85 3.2 6.3 4.3 10.85-7.7 1.2-13.8-1.65-4.55-2.1-5.2-4.05"/><path fill="#d3d9db" d="M129.55 43.65q2.1 2.25 2.25 4.95.15 2.05-.7 3.65-.8 1.6-2.15 2.05l-3.65.35q-1.75-.4-3-1.75-1.45-1.6-1.95-4.35-1.05-5.65-4.05-12.85-3.95-9.25-8.4-13.05-3.25 3.85-6.65 10.5-2.4 4.75-3.5 4.6Q84 36.15 72.9 37.6q-12 1.6-22.8 7-13.9 7-27.4 22.05Q12.15 78.4 6 89.85 2.55 96.4 1.55 96.2q-1.05-.2.1-8.1 4.4-30.95 25-53.15 15.95-17.25 35-23.75 11.85-4.05 25.2-4.6l18.55-1.15q6.3-1.3 8.15-1.1 4.05.45 4.4 5.15.8 11.6 3.15 19.1 2.8 8.9 8.45 15.05M117 273.6q1.55-4.3 3.65-6.75l2 5q-3.65.55-5.65 1.75m124.05-128q-2.75-1.4-5.55-4.2l3.4-6.8q1.85-3.7 3.2-5.75 3.85-.2 7.2-2.15 3.4-1.95 3.4-4.1 2.65.5 5.5 5.4 2.7 4.6 3.35 8.9.3 2.3-1.6 5.1-1.75 1.4-3.3 3.35-2.15 1.5-4.4 1.85-1.6.25-5.25-.75-3.8-1.05-5.95-.85"/><path fill="#d3d9db" d="M235.5 141.4q2.8 2.8 5.55 4.2l-4.05 1.2-4.5.3 3-5.7m-91.7 121.2q.65 1.95 0 4.6-.6 2.25-1.75 3.95-2.75 1-5.9 2.35-2.9-1.4-6.8-1.8l-.6-9.15 7.2.45 7.85-.4m108.1-145.2q.65.85.9 2.15.3 1.55-.1 3.05-.6 2.1-2.9 3.8-3.05 2.2-7.7 2.45 1.4-2.2 2.7-3.25l4.45-4q1.85-2.05 2.65-4.2"/><path fill="#955e0c" d="M232.5 147.1q1.9.65 4.6-.4-1.15 2.75 1.3 5.85l.8 1.05q-5.2 3.25-7.2 9.75-1.45 4.6-.95 6.25.65 1.95 5.2 4.05 6.1 2.85 13.8 1.65l.7 3.65q-2.3 1.1-4.25.75l-4.65-.5q-4.75.3-18.15 6.65-14.9 7.1-26.2 9.35l-9.4-.35q-5.65-1.5-8-5.45-1.5-2.5-1.45-5.85.25-7.1 9.2-16.5 9.05-9.55 19.35-13.25l8.8 2.35q3.9 1.05 5.45.55 2.95-.85 3.45-3.3 1.45.05 2.9-.7 1.6-.85 2.7-2.45l2-3.15m-52.65 48.1l1.05 1.35q1.5 1.3 4.95 1.25 3.35-.05 6.3-1.4 2.15 2.65 3 6.7l-2.5 4.85q-3.3 6.05-5.55 11-7.9 17.7-6.7 30.75.75 8.65-3.15 10.85-1 .6-2.15.65-1.25.05-5.1-1.55-5-2.1-7.6-2.8-1.1-.35-1.7-.9-1.35-1.25-.4-3.65.6-1.7 2.1-3.45 4.35-5.15 9.55-19.9 5.6-15.85 5.45-25.15-.1-3.6.1-4.75.45-2.4 2.35-3.85"/><path fill="#d3d9db" d="M237.1 146.7l1.7-.55 2.25-.55q2.15-.2 5.95.85 3.65 1 5.25.75 2.25-.35 4.4-1.85-2.35 3.15-2.55 6.5-.35 5.35 1.35 11.25 2.95 10.35 3.55 13.3-1.75 2.3-3.35 3.4-3.2 2.15-4.35.25l-1.25-4.75q-1.05-4.45-5.15-12.2-3.8-7.2-6.5-10.55-2.45-3-1.3-5.85"/><path fill="#955e0c" d="M334.75 286.65l.75 1.75.35 2.15q-2.8-2.45-4.35-3.15-1.9-.9-3.9-.35-2.65.75-3.35 5.2-.7 4.4 1.25 6.05-6.3-.1-12.7.2l1.05-.85q1.55-3.6-.15-7.05-1.5-3.1-3.65-3.2-1.7-.05-3.2 1.1l-3.7 3.6q-.8-3.55-.05-10.2.75-6.65 2.4-10.7 2.95 2.65 7.25 2.45 4.45-.2 6.8-3.5 1.35 4.15 7.75 10l7.45 6.5m-79.1-106.85q1.6-1.1 3.35-3.4.75 3.65 1.1 6.8-2.55-.1-3.45-.7-1.05-.75-1-2.7M148.2 280.7q3-1.8 2.45-6.65-.55-4.75-2.85-4.65-1.5.05-5.75 1.75 1.15-1.7 1.75-3.95.65-2.65 0-4.6 6.25-1.2 16.9-6.65.6.55 1.7.9 2.6.7 7.6 2.8 3.85 1.6 5.1 1.55 1.15-.05 2.15-.65.55 1.75 2.65 5.55 1.5 3.5.15 5.8-1.7 2.8-11.7 4.35-13.85 2.1-20.15 4.45"/><path fill="#955e0c" d="M258.75 142.8q3.5-3.15 8.85-5.05 4-1.45 10.95 2.5 7.15 4.05 9.05 9.5l1.15 3.6q2.05 6.75 3.45 15.25l2.25 15.15q1.1 7.3 1.1 11.55 0 3.45-.8 6.15-.9 2.95-2.5 3.95-.5-3.05-2.7-5.5-3.3-3.65-8.3-1.85-6.9 2.5-3.3 12.6-7.65-.75-12.35-6.55-4.15-5.05-4.6-11.85-.35-5.05-.9-9.05-.35-3.15-1.1-6.8-.6-2.95-3.55-13.3-1.7-5.9-1.35-11.25.3-5.1 4.65-9.05m-16.65-13.95q-1.2 1.85-6.35 11.55l-5.25 9.85q-1.1 1.6-2.7 2.45-1.45.75-2.9.7.5-2.3-1.2-4.45-1.7-2.15-4.05-2.05-.1-1.4.45-2.95.65-1.75 1.9-3 2.4-2.4 6.8-11.15 4.85-9.55 5.85-15.1l.9-4q1.05-3.55 2.75-5.4 1.8-1.95 4.95-2.7 4.55-1.1 7.1 2.1 1.55 2.75 2.1 5.85.6 3.75-.55 6.85-.8 2.15-2.65 4.2l-4.45 4q-1.3 1.05-2.7 3.25"/><path fill="#d3d9db" d="M225.05 130.55q.55 1.45 2.05 2.55-2.9 5.4-4.7 7.4-2.95-.85-5.8-3.35-2.7-2.35-4.55-5.55 3.25-.45 7.55-1.95 2.45 1.05 5.45.9"/><path fill="#955e0c" d="M309.9 232.5q7.1 8.35 9.4 14.2 3.15 7.8 1.9 18.95-.3 2.6-1.65 4.5-2.35 3.3-6.8 3.5-4.3.2-7.25-2.45-1.3-1.2-1.85-2.65-.5-1.15-.65-3.8l-.45-5.65q-.95-8.7-5.3-17.2-4.75-9.15-8.05-13.75-4.45-6.25-10.2-10.4-1-.7-1.5-3.8-.55-3.1.1-4.6 1.4 2.3 4.15 3.45 3.15 1.25 6.05-.05 2.25-1 3.3-3.3.95-2.1.65-4.75 1 .35 2.6 1.7 1.55 1.3 1.6 1.8.5 4.1 4.05 10.35 3.75 6.7 9.9 13.95m50.55 10.5q2.45 4.9 1.25 5.55-1.2.65-5.7-3.45-36.45-32.75-60.45-49.8 0-4.25-1.1-11.55l-2.25-15.15q-1.4-8.5-3.45-15.25l4.95 4.6q46.2 43.4 66.75 85.05M243.7 21.9q13.25.1 14.75 5.35-6.8 1.5-17.3 14.15-1.45 1.7-21.2 27.9-18.15 24-23 31.5-6.95 10.75-7.15 15.3l-.05.1q-4.85 6.45-13.15 4.8-8.2-1.6-13.55-9.9-3.35-5.2-5.2-14.65-1.75-9-1.95-20.55-.25-12.2 1.35-24 1.7-12.3 4.95-21.2 3.45-9.45 9.55-11.5 3.95-1.35 10.6.2L200.3 23q12.6 1.8 23.55.55l19.85-1.65"/><path fill="#955e0c" d="M291.45 203.05q.8 2.95.25 5.25-.75 3.05-3.9 4.45-3.9 1.75-7.4-.6-2.5-1.65-3.3-3.75-1.1-2.85-.1-5.85 1.05-3.3 4.25-4.5 3.85-1.4 6.9.6 2.5 1.6 3.3 4.4"/><path fill="#d3d9db" d="M310.05 287.4q2.15.1 3.65 3.2 1.7 3.45.15 7.05l-1.05.85q-5 3.65-7.4 5.95-5.3 5.1-6.75 9.95-2.15-3.75-2.15-9.45-.05-6.35 2.95-9.2l4.95-4.75q4.1-3.65 5.65-3.6m14.2 4.9q.75-4.35 3.35-5.25 2.75-.95 7.6 2.75 2.55 1.95 5.9 5.15 3.6 2.95 3.9 9.9.25 6.6-2.3 8.6-.6-2.2-2.7-5.15-2.05-2.9-4.15-4.6-1.6-1.35-6.1-3.45l-4.25-1.95q-1.95-1.65-1.25-6M129.8 278.75q2.6-3.7 5.2-4.8l6.1-2.3q6.05-2.2 6.7-2.25 2.3-.1 2.85 4.65.55 4.85-2.45 6.65l-.05.05q-4.5 1-8.55 2.4-7.9 2.75-12.45 8.7-1.6-5.45 1.55-11.35 1 .45 1.1-1.75"/><path fill="#d3d9db" d="M213.35 147.7l6.3-.8q2.35-.1 4.05 2.05 1.7 2.15 1.2 4.45-.5 2.45-3.45 3.3-1.55.5-5.45-.55l-8.8-2.35q-7.85-1.75-15.8-1.35l-4.15.5q-2.2.05-3.9-1.75l-4.55-5.05q-2.75-2.7-3.75-1.65-4.4 4.75-4.9 10.15-.2 2.15.2 5.6l.75 5.5q.4 3.95-.35 4.75l-4.6 2.95q-5.85 3.95-14.3 13.5Q141.8 198.3 138 207.3q-10.25 24.45-9.25 55.25l.6 8.7.45 7.5q-.1 2.2-1.1 1.75-1.65-.7-4.5-5.9-2.4-4.4-3.55-7.75-3.55-10.35-5.2-24.6-1.9-16.2-.55-31.35 1.15-12.7 7.85-29.05 5.9-14.35 11.35-21.1 7.55-9.4 18-14.95l7.6-3.95q4-2.35 6.65-5.1 4.9-5.15 7.75-6.1 3.15-1.05 5.8 2.2 3.65 4.55 9 8.25 5.9 4.2 11.2 5.35 7.2 1.65 13.25 1.25"/><path fill="#955e0c" d="M179.6 190.15q2.75 3.15 12.35 6-1.7 1.25-5.15 1.65-3.9.45-5.9-1-1.5-1.05-1.7-2.9-.2-1.45.4-3.75"/><path fill="#adb2b4" d="M240.4 100.8q-3.85 1.45-4.65 6.55-9.6 10.1-25.15 13.2-1.95-3.1-3.75-6.55 18.2-4.25 33.15-15.55.4 1.1.4 2.35"/><path fill="#adb2b4" d="M206.85 114q1.8 3.45 3.75 6.55-7.55 1.55-15.5 1.25-1.1-2.05-2.65-5.75 7.3-.4 14.4-2.05"/><path fill="#fff" d="M155.9 75.9q.25 11.6 2 20.7-3.85-6.1-4-8.25-.5-7.5 2-12.45"/><path fill="#764800" d="M245.85 93.6q3.35 0 8.85 1.4 4.95 1.25 6.85.95 2.9 10.9 14.1 18.35 8.2 5.5 19.7 8.45l-14.9-.9q.9 6.45 7.6 11.35l11 6.35-12.75-1.2q.8 4.4 6.6 12 4.85 6.35 10.2 11.25-4.7-1.25-9.4-3.65l-4.95-4.6q-.5-6.1-7.95-11.5-7.35-5.35-13.2-4.1-6.2-6.55-10.35-15.8l-5.25-13.7q-.9-3.3-2.25-5.05-2.1-2.8-5.65-2.95-2.15-.05-3.7.55 0-1.25-.4-2.35l5.85-4.85m28.95-18q-3.05 2.8-7.6 3.8l-8.8.65 8.35-10.95q3.8 2.3 8.05 6.5"/><path fill="#adb2b4" d="M117 273.6q1.4-3.9 1.95-4.95l.95-.35.95-.35 1.8 3.9q-3.65.55-5.65 1.75M259.95 142l-2.55 2.45q-1.75-10.2-6-19.35 1.3-1.3 1.3-2.5 2.65.5 5.5 5.4 2.7 4.6 3.35 8.9.3 2.3-1.6 5.1M129.1 268.05l7.05.35 7.1.45-1.2 2.3q-2.75 1-5.9 2.35-2.9-1.4-6.8-1.8l-.25-3.65"/><path fill="#adb2b4" d="M252.7 122.6l-1.35 2.4-1.85-3.7q1.65-1.95 2.4-3.9.65.85.9 2.15.3 1.55-.1 3.05"/><path fill="#764800" d="M232.5 147.1q1.9.65 4.6-.4-1.15 2.75 1.3 5.85l.8 1.05q-5.2 3.25-7.2 9.75-1.45 4.6-.95 6.25.65 1.95 5.2 4.05 6.1 2.85 13.8 1.65l.7 3.65q-2.3 1.1-4.25.75l-4.65-.5q-4.75.3-18.15 6.65-14.9 7.1-26.2 9.35-3.55.75-7.6.05-4.6-.8-7.5-3.2 22.2-5.55 31.45-13.1 10.65-8.65 12.85-25.85 2.3-.65 3.8-2.85l2-3.15"/><path fill="#adb2b4" d="M255.2 162.15l1.8 6.1q1.2 4.25 2 8.15-1.75 2.3-3.35 3.4-3.2 2.15-4.35.25l-1.25-4.75q-.45-1.85-1.45-4.4 4.25-3.3 6.6-8.75"/><path fill="#764800" d="M314.05 277.75q-6.3.5-10.85 3.6.75-6.4 2.3-10.15 2.95 2.65 7.25 2.45 4.45-.2 6.8-3.5 1.25 3.75 6.55 8.85-6.35-1.7-12.05-1.25m-58.4-97.95q1.6-1.1 3.35-3.4.75 3.65 1.1 6.8-2.55-.1-3.45-.7-1.05-.75-1-2.7M150.7 275.1q3-.95 7.7-1.55l7.9-.95q9.35-1.4 13.65-6.4 1.45 3.45.1 5.7-1.7 2.8-11.7 4.35-13.85 2.1-20.15 4.45 2.6-1.55 2.5-5.6m111.35-77.55q11.05-2.1 19.35-10.35 8.3-8.3 10.6-19.65l2.45 16.2q1.1 7.3 1.1 11.55 0 3.45-.8 6.15-.9 2.95-2.5 3.95-.5-3.05-2.7-5.5-3.3-3.65-8.3-1.85-6.9 2.5-3.3 12.6-6.1-.6-10.4-4.45-3.8-3.45-5.5-8.65m-19.95-68.7l-1.45 2.45q1.55-7.55.7-12.15-1.1-5.9-6.1-6.5.15-4 2.8-6.9 2.25-2.45 5.2-3.15 4.55-1.1 7.1 2.1 1.55 2.75 2.1 5.85.6 3.75-.55 6.85-.8 2.15-2.65 4.2l-4.45 4q-1.3 1.05-2.7 3.25"/><path fill="#764800" d="M290 154.25q6.75 4.25 26.65 35.05 19.3 29.85 24.85 43.6-16.45-14.75-26.05-22.2-3.65-2.85-19.35-14 0-2.1-2.8-20.85l-3.3-21.6"/><path fill="#adb2b4" d="M296.7 301.8q5.85-.15 10.3-2.6 4.85-2.65 7.15-7.55 1 3.1-.3 6l-1.05.85q-5 3.65-7.4 5.95-5.3 5.1-6.75 9.95-1.3-2.25-1.85-5.7-.6-3.65-.1-6.9m27.9-4.8q10.2 4.1 18.9 1.15 1.8 3.85 1.5 8.9-.35 4.9-2.3 6.4-.6-2.2-2.7-5.15-2.05-2.9-4.15-4.6-1.6-1.35-6.1-3.45l-4.25-1.95-.9-1.3M127 285.1q8.65-6.55 23.65-10.85.2 2-.35 3.7-.6 1.85-2.1 2.75l-.05.05q-4.5 1-8.55 2.4-7.9 2.75-12.45 8.7-.9-3.2-.15-6.75"/><path fill="#dbdcdc" d="M215.85 79.4q-3.05 2.75-8.65 10-5.25 6.8-7.45 10.55l-2.8.85q4.55-7 18.7-25.8.2.85.2 4.4"/><path fill="#adb2b4" d="M167 149.5q.35 3.1.1 4.35-8.4 1.15-17.4 6.85-8.6 5.45-15.05 13.25 1.45-3.3 4.75-7.95 3.4-4.8 6.3-7.35 4.05-3.55 10.45-7.2 3.6-2.05 10.45-5.6l.4 3.65M105.05 18.85q-8.45-2.35-20.25-2.9-13.15-.6-23 1.55l6.55-2.35q5.55-1.9 8.15-2.5L93.45 12l14 .65-.35 2.75q-.6 2.4-2.05 3.45"/><path fill="#764800" d="M291.75 204.45q1.05.35 2.6 1.7 1.55 1.3 1.6 1.8.7 5.75 7 15.15-11.25-5.6-18.75-1.15-2.35-2.35-5.2-4.45-1-.7-1.5-3.8-.55-3.1.1-4.6 1.4 2.3 4.15 3.45 3.15 1.25 6.05-.05 2.25-.95 3.3-3.25.95-2.15.65-4.8m-112-9.15q.45.85 1.05 1.35 1.55 1.25 4.95 1.2 3.4-.05 6.35-1.35 2.3 2.9 2.95 6.65l-1.6 3.25-3.9 7.4q-4.15-9.5-12.3-12-.05-2.25.35-3.55.6-1.8 2.15-2.95"/><path fill="#764800" d="M291.75 203.8q.65 2.75 0 4.85-.9 2.75-3.8 4.05-3.9 1.75-7.4-.55-2.45-1.65-3.3-3.75v-.1q3.65 2 7.55.85 4.05-1.2 6.95-5.35m-99.65-7.7q-1.35 1.05-4.3 1.55l-5.45-.2q-.5-1.55-.5-2.55-.05-1.3.7-2.6 3.25 1.9 9.55 3.8m60.4-173.15q4.55 1.3 5.4 4.3-6.75 1.5-17.25 14.15l-21.2 27.9q-18.15 24-23 31.5-6.95 10.6-7.2 15.3v.1q-5.5 7.3-13.85 5.3-10.1-2.45-16.45-18.9 6.2 8.85 15.55 8.5 8.8-.35 14.25-8.2 8.7-12.45 27.2-36.05 7.8-9.9 20.45-28.4 10.15-13.95 16.1-15.5"/><path fill="#adb2b4" d="M185.25 147.05q2.35 1.6 4.95 1.8l13 1.15q6.25.75 10.15 1.95 4.15 1.3 7.6 1.25 3.15-.1 3.45-1.55l.25 2q-.45 3.3-4.65 3.5-2.55.1-9.3-2.4-6.8-2.5-11.25-2.35l-9.65.75q-3.9.45-4.9.05-.95-.35-4-4.4-3.1-4.05-4.15-4.45-.5-.2-2.05.9-1.3.9-2.1 1.8l1.7-3.95q2.5-3.75 5.95-.4l5 4.35M117.2 38.2l1.1 2.3q1.35 2.75 2.95 4.75 5.15 6.5 10.35 3.6l-.45 2.9q-1.15 2.9-4.95 3-2.85.05-4.3-2.1-.5-.8-1.45-3.65l-3.25-10.8"/><path fill="#764800" d="M121.9 53.3l3.1 1.2q3.65.75 6.25-1.65l.6 3.9q1.45 4.5 5.65 7.6l.75 8.55-2.25-3.25q-2.65-3.5-4.7-4.65-4.25-1.9-6.3-3.65-3.75-3.1-3.1-8.05m70.2 57.45q8.2.1 19.6-2.45 16.1-3.65 31.75-11.6-4.7 4.9-13.85 9.8-18.3 9.8-40.35 9.7l1-2.5q1.15-2.6 1.85-2.95M149.6 97.9l-4.85-8.9q4.55 7.05 9.8 11.2 2.65 2.1 4.35 2.8l3 6.9q-6.2-2.6-12.3-12"/><path fill="#0d131a" d="M204.7 89.1l4.6-6.25q1.25 1.5 1.15 5.15-.1 2.05-.75 3.45-.75 1.5-1.95 1.65-1.15.1-2.05-1.05-.95-1.2-1-2.95"/><path fill="#0d131a" d="M256.9 26.25q-2.15-3.65-13.35-3.6l-17.8 1.45-1.8.2q-10.2 1.2-21.85-.25-6.5-.85-17.15-3.25l-2.75-.65q-6.9-1.5-10.65-.05-5.4 2.15-8.6 10.85-5.5 15.05-6.2 36.95-.75 21.9 3.8 36.05 2.15 6.55 6.7 11 4.55 4.45 10 5.4 3.55.6 6.6-.55 3-1.15 5.15-3.95.45-5.25 8.45-17.45 5.4-8.3 17.8-24.7l10.25-13.65q12.85-17.35 16.75-21.85 8.05-9.3 14.65-11.95m38.95-9.8q1.3-3.85.4-4.1-.7-.25-4.2 1.95-6.85 4.2-19.2 8.85-9.85 3.75-14.1 4.65-5.3 1.2-14.1 11.15-5.55 6.3-17.6 22.55l-10.3 13.7q-12.1 16-17.1 23.45-7.75 11.5-8.6 16.65 16.4-.5 32.2-7.75 15.8-7.35 27.6-19.95 11.5-12.25 25.35-33.8 14.55-22.7 19.65-37.35m-4.7-3.75q5.1-3.15 6.7-2.15 1.6 1-.25 6.4-5.3 15.3-19.5 38.05-13.75 22.1-25.35 34.45-12.35 13.25-28.7 20.5-16.3 7.3-34.1 7.5-2.3 2.7-5.3 4.2-3.8 1.85-7.65 1.2-5.8-.95-11.1-6.45-5.15-5.35-7.45-12.45-4.6-14.2-3.75-36.85.85-22.45 6.45-37.8 3.5-9.5 9.45-11.9 4.2-1.7 11.45-.05l17.35 4.1q13.35 2.35 26.15.8L246 20.3q9.9.1 13.1 5.05 19.95-5.25 32.05-12.65"/><path fill="#0d131a" d="M162.6 13.4q5.25 4.15 11 4.9.4.05-1.05.8-1.4.8-1.85.65-11.3-3.5-18.25-15.65-1.05-1.8-1.6-1.65-.6.2-1.8 3.1-8.5 20.55-10.1 42.65-2.95 40.95 23.3 61.3.6.45 1.35 2.2l.45 1.5Q137.4 95.45 136 60.05q-1-26.15 11.05-55.1Q148.85.7 150.4.1q1.6-.6 3.35 2.6 3.65 6.6 8.85 10.7m103.75 57q-.2-.1.25-.8.4-.7.7-.55 4.9 2.8 10.1 7.7 5.55 5.35 6.35 8.45.15.7-.05.95-.2.2-.95 0-5.5-1.65-14.5-2.5-8.75-.9-11.4-.15-.3.05.1-.75l.6-.9q3.15-.6 10.4.1 7.15.65 12.6 2-1.55-3-6-7.2-4.35-4.15-8.2-6.35m-60.4 44.25q-.15-.3.8-.55l1.1.1q4.1 9.1 9.05 12.75 5.4 4.05 12.45 2 .35-.15.05.8-.3.9-.85 1.05-8.05 1.9-13.15-2.15-4.45-3.5-9.45-14"/><path fill="#0d131a" d="M218.55 129q.35-.1 1.05.6.75.75.45.85-12.4 4.5-19.05.3-4.95-3.15-9.45-14-.1-.3.85-.45.95-.1 1.15.3 3.9 9.2 8.45 12.2 6.15 4 16.55.2m19.65-22.35q-1.75 2.5-2.75 8.15-.95 5.2-5.6 14.7-4.55 9.25-7.3 12-1.05 1.1-1.65 2.6-.5 1.3-.5 2.5 0 .3-1.1.4-1.15.1-1.15-.25-.05-2 .55-3.5.65-1.55 2.2-3.1 3.4-3.25 7.65-11.95 4.1-8.45 5.05-13.65 1.15-6.25 2.8-8.75 2-3.05 6.55-4.1 4.25-1 7.15 1.8 2.9 2.75 3.4 8.35.5 5.05-1.65 8.2-1.4 2.15-6.6 6.2-1.5 1.2-3.7 5l-3.95 7.6-3.05 6.6q-1.8 3.9-3.15 5.85-2.05 3.05-6.5 3.05-.3.05-.2-.85.15-.85.4-.85 2.85-.1 4.75-2.85 2.25-3.25 6.35-11.65l4.15-7.95q2.25-3.85 3.95-5.2 4.35-3.45 6-6.1 1.9-3.15 1.5-7.35-.45-4.85-2.65-6.95-2.15-2.1-5.7-1.25-3.5.85-5.25 3.3"/><path fill="#0d131a" d="M234.95 112.6q-.9-6.1 1.45-9.65 2.45-3.7 7.7-3.5 4 .15 6.6 3.8 1.9 2.65 4.1 9.1 2.5 7.35 5.15 12.35 3.95 7.6 9.3 12.55.25.25-1.1.55l-1.6.1q-5.4-5.7-9.05-13.05-2.1-4.2-4.75-12-2.2-6.4-3.45-8.45-2.05-3.2-5.25-3.35-3.5-.15-5.55 2.05-1.9 2.05-2.15 5.7-.05.8-.7 2.5-.65 1.65-.7 1.3m-11.1 18.15l.95-.35 1-.1q.5 1.25 1.8 2.15l-.2.95-.45.7q-2.5-1.6-3.1-3.35m-12.55 1.4l1.15-.2q1.25.1 1.4.4 2.2 4.35 9.1 7.5.25.15-.35.7-.65.6-.8.5-7.65-3.2-10.5-8.9m23.85 10.15q-.25-.25.2-1t.6-.6l2.55 2.25 3.15 2.05q.3.15-.65.55l-1.3.2q-3-1.95-4.55-3.45"/><path fill="#0d131a" d="M252.3 122.5q.6-.95.85-.9 3.05.7 6.25 5.95 2.9 4.85 3.5 8.95.3 1.65-.75 3.8l-2.55.75q1.4-2.25 1.15-4.05-.6-4.35-3.5-9-2.95-4.85-5.2-4.65-.3.05.25-.85m-20.45 25.75q-.15-.05.4-1 .5-.9.7-.85 1.8.5 4.65-.75 2.4-1.05 5.15-.85l4.6.9q3.15.95 4.75.7 2.15-.25 4.15-1.7l-.6 2.45q-1.5.8-3.3 1.1l-2.65-.2-2.8-.8q-5.15-1.4-8.95.3-3.65 1.55-6.1.7"/><path fill="#0d131a" d="M241.2 129.65q-.35 0 .35-.8t1.05-.85q3.3-.3 5.85-1.7 2.45-1.35 3.15-3 1.35-3-.45-4.95-.2-.25.55-1.1.8-.8 1-.55.75.8 1.15 2.55.6 2.45-.4 4.75-1.05 2.45-4.65 4.05-3.5 1.6-7.6 1.6m-1.85-30.75q-.1-.25.7-.45.75-.25.8 0l.3 1.9-.8.65-.75.05-.25-2.15m23.8 20.4q-.6-2-.1-3 .45-1 1.05 1 1.5 5.05 4.15 10.15 2.65 5.1 5.45 8.3.25.25-.15 1.05-.4.85-.65.6-3-3.5-5.55-8.15-2.65-4.9-4.2-9.95M244.9 94.1q-.35-.1.65-.6 1.05-.5 1.4-.35 6.25 2.2 9.65 6.35 3.4 4.2 4.45 11.1.35 2.05-.1 3.15-.45 1.05-.7-1.05-.95-6.9-4.9-11.7-3.95-4.8-10.45-6.9"/><path fill="#0d131a" d="M244.75 94.4q-.4.05.8-.8 1.15-.8 1.75-.8 13.65.5 34.05 8 16 5.9 27.35 12.35 6.55 3.7 6.45 6.45-.1 2.85-7.55 3.95-9.2 1.35-20.3.25-10.35-1.05-23.35-4.35-.25-.1-.6-1.2-.35-1.1-.05-1 11.7 3.25 23.15 4.3 11.5 1.05 20.7-.35 5-.7 5.35-1.8.45-1.3-4.4-4.15-10.65-6.3-30.15-13.3-22.6-8.1-33.2-7.55"/><path fill="#0d131a" d="M301.2 140.7l-15.45-1.3-12.65-2.1q-.35-.1-.25-1 .1-.85.45-.8l12 1.95 14.85 1.1q3.9.05 4.2-.55.2-.4-1.55-2.2-2.7-2.65-10.15-7.1-8.1-4.85-13.85-6.9l1.85-.05q2.25.1 3.1.5 6 2.7 12.45 6.5 6.35 3.8 8.55 6 3 3.05 2.6 4.4-.55 1.6-6.15 1.55m-65.6 6.55q.15-.85 1.15-.5 1 .35.85.95-.3 2.1 1.4 4.35 4.3 5.6 8 13.1 3.95 8.05 4.25 12.7.25 2.65 2.5 1.95 2.3-.7 5.1-4.5.3-.45.55.75.2 1.2-.25 1.85-3.05 4.2-6.05 5.1-3.35 1-3.65-3.45-.4-4.65-4.05-13.05-3.7-8.4-7.65-13.5-2.6-3.35-2.15-5.75"/><path fill="#0d131a" d="M238.75 152.95l.55.6.3.75q-5.05 3.15-6.9 9.4-.95 3.1-.9 5.65.5 1.55 4.65 3.55 5.85 2.75 13.3 1.65.2-.05.4 1l.1 1q-8.05 1.3-14.45-2-4.7-2.4-5.5-4.7-.6-1.85.95-6.75 2.1-6.8 7.5-10.15m28.8-16.4q3.8-1.4 11.2 2.25 8.25 4.05 10.45 10.55 2.05 5.9 3.85 16.85 2.5 15.1 3.25 18.5 1.8 8.1 1.05 13.4-.75 5.15-3.95 8-.2.25-1-.35t-.55-.8q4.95-4.45 1.85-21.05l-2.8-16.8q-1.9-10.85-4.05-17.05-1.9-5.55-9.1-9.35-6.55-3.45-9.85-2.25-5.15 1.85-8.7 5.25-4.05 3.85-4.3 8.2-.25 3.75.4 7.1.4 2.2 1.7 6.5 1.85 6 2.7 10.15 1.45 7.25 2.1 16.55.35 5.2 2.95 9.4 4.25 6.95 13.4 8.35.35.1-.2 1l-.85.85q-8.6-1.3-13.2-6.55-4-4.55-4.3-11.2-.4-9.45-1.9-17.35-.95-4.9-2.75-10.75l-1.95-6.8q-.85-3.9-.6-7.75.3-4.75 5.2-9.1 4.2-3.7 9.95-5.75"/><path fill="#0d131a" d="M255.65 179.25l.8-.2q-.15 1.95.4 2.55.65.75 3.15.8l.15.8-.15.75-2.7-.05q-1.3-.1-1.9-.7-.55-.65-.55-3.35 0-.25.8-.6m29.25-40.7l1.6-.15 2.65.4q6.25 3.4 12.3 7.75 6.5 4.65 10.85 9.1 5.25 5.35 3.35 7.25-1.3 1.25-6.05.95-7.8-.6-13.8-3.35-.65-.3-1.85-2.15-1.25-1.85-.85-1.6 7.95 4.3 15.85 5.1 4.45.45 4.75-.5.25-.95-3.3-4.6-4.95-5.05-12.05-10.1-7.15-5.1-13.45-8.1"/><path fill="#0d131a" d="M356.5 244.5q3.7 3.35 4.4 2.95.7-.35-1.15-4.1-21.45-43.45-70.5-88.5-.4-.35-.7-2.15-.3-1.85-.05-1.6 25.65 23.3 43.05 45 17.65 22 29.1 45.1 3.65 7.4 2.1 8.65-1.55 1.25-7.55-4.15-37.95-34.1-59.35-48.35-.35-.25-.4-1.65 0-1.45.2-1.35Q320 211.7 356.5 244.5m-69-32.5q2.4-1.05 3.2-3.75.7-2.35-.05-4.95-.3-1.15-1.15-2.3-1-1.3-2.4-2.05l-5.55-.15q-2.5.95-3.55 3.25-.65 1.45-.65 3.25 0 1.55.5 2.85.4 1.05 1.45 2.05 1.15 1.15 2.7 1.8 2.85 1.2 5.5 0m-6.5-14.7l7 .2q3.6 1.55 4.7 5.35 1 3.35-.4 6.4-1.3 2.95-4.15 4.2-2.55 1.15-6.15.35-4.3-1-6.15-4.55-1.55-3.1 0-6.8 1.55-3.8 5.15-5.15"/><path fill="#0d131a" d="M292.1 205.75q-.15-.1.7-1 .9-.95 1.3-.75 3.6 1.8 3.8 3.1 2.25 12.4 12.9 24.9 7.2 8.5 9.6 14.25 3.35 8.15 2.1 19.5-.4 3.5-2.8 5.85-2.35 2.25-5.85 2.75-3.65.55-7.25-.85-3.75-1.5-4.95-4.3-.35-.85-.45-2.5l-.15-3.2-.75-8.8q-1.1-6.25-4.3-12.4-4.55-8.9-7.85-13.4-4.45-6.1-10.25-10.15-1.15-.8-1.6-3.45-.4-2.25-.2-4.8.05-.6 1.1-.6 1.1 0 1.05.25-.2 2.05.1 4.15.35 2.25 1.1 2.8 5.95 4.3 10.5 10.7 3.25 4.6 8 13.75 3.3 6.5 4.7 12.8.8 3.75 1.05 9.05.2 3.7.65 4.85 1 2.35 3.7 3.65 2.65 1.3 5.6.9 2.85-.4 4.65-2.35 1.75-1.9 2.1-4.9 1.25-11.05-1.85-18.8-2.35-5.8-9.25-13.75-7.15-8.25-11.25-17l-2.85-7.7q-.35-1.05-3.1-2.55"/><path fill="#0d131a" d="M304.9 270.55l.75.35.55.7q-1.55 3.75-2.25 9.9-.75 6.1-.15 9.75l-.95 1.25-1.1.65q-1.05-3.35.1-10.9 1.1-7.15 3.05-11.7m20.35 6.2l7.25 6.35q2.5 2.1 3.55 3.6 1.55 2.35 1.1 4.7-.05.3-1.05-.6l-1.05-1.15q-.2-1.45-1.2-2.65-.65-.8-2.9-2.7l-6.8-6.15q-3.9-4-5.15-7.25-.2-.45.45-1.15t.7-.45q.8 3.15 5.1 7.45"/><path fill="#0d131a" d="M328.05 280.8l1.4 1.15.85.85q-2.2-1.9-13.05-1.1l-9.1.3q-1.4.05-2.85 1.45-1.2 1.15-2.1 2.9-.2.35-.4-.85t.15-1.75q2.5-3.25 5.25-3.05l8.3-.3 6.55-.3q3.25 0 5 .7m-20.6 8.2q-.8.6-3.05 2.95l-4.4 4.4q-2.75 2.6-2.75 8.55 0 4.15 1.35 7.5 1.85-4.25 6.45-8.6 2.5-2.4 6.7-5.5l1.45-1.1q.55-1.5.55-2.9 0-2.2-1.15-4.05-1.3-2.05-2.6-2.05-1.35-.05-2.55.8m-9.9 7.35l5.3-5.3q2.4-2.45 3.65-3.35 1.7-1.15 3.55-1.1 3.3.1 4.6 4.4 1.15 3.9-.15 6.85-.4.85-2.2 2.2l-4 2.95q-5.95 4.9-8.95 12.65-.6 1.6-1.45.2-1.9-3.35-2.5-9.45-.75-7.3 2.15-10.05m34.1-8q-1.95-1.05-3.85-.55-1.05.3-1.85 1.75t-1 3.45l-.1 1.1q0 3 1.4 3.75l3.55 1.7q4.65 2 6.55 3.5 1.8 1.5 3.7 3.95 1.95 2.6 2.95 4.85 1.15-2.05 1.25-5.95v-.15q0-3-.8-5.6-.95-3.05-2.85-4.55l-4.25-3.55q-3.35-2.95-4.7-3.7m-4.25-2.05q2.45-.65 4.8.55 1.6.85 5.2 4l1.9 1.3 3.9 3.4q2.95 3.05 2.8 10.45-.1 7.2-2.65 9.15l-.7.35q-.35-.05-.55-.75-.55-2.2-2.65-5.5-2.1-3.4-3.95-4.9-.95-.8-5.75-3.15l-4.55-2.15q-2.45-1.35-1.9-6.5.55-5.3 4.1-6.25"/><path fill="#0d131a" d="M324.8 297.5q.65 0 1.65.95 1.05.95.65.9-12.5-.3-15.15.2-.35.1.4-.9.7-.95 1.15-.95l11.3-.2M189 167.2q-9.3 9.35-9.55 16.35-.15 4.85 3.3 7.75 2.7 2.25 7.1 3.1 3.95.75 7.5.05 7.45-1.5 15.35-4.55 4.35-1.75 12.3-5.5 6.15-2.95 8.95-4.05 4.55-1.75 7.85-1.95l4.2.35 1.9.25 2.45-.7q.2-.1.6 1l.25 1.2-3.05 1.05-2.4-.3q-2.1-.7-3.8-.6-5.95.4-16.2 5.35-8 4.05-12.75 6.1-8.5 3.7-15.35 4.7l-8.3-.55q-4.85-1.15-7.85-3.7-4.8-4.05-4.6-9 .25-7.4 9.35-16.75 9.05-9.25 19.45-13.05l1.55.4 1 .6q-9.9 3.15-19.25 12.45"/><path fill="#0d131a" d="M179.7 188.65q.2-.2.6.55l.35.8q-.85 1.1-.65 3 .2 1.95 1.4 2.95 1.25 1.05 4.35.9 3.1-.1 5.95-1.3l2.2.15q1.9.25 1.6.4-3.3 1.75-8.3 2.3-5.3.6-7.1-.95-1.65-1.4-1.85-4.2-.2-2.9 1.45-4.6"/><path fill="#0d131a" d="M179.2 193.8q.25-.2.85.8.55.95.3 1.15-1.75 1.35-2.15 4.15-.15 1.05-.05 3.9.2 9.3-5.4 25.3-5.3 15-9.75 20.25-1.15 1.35-1.8 2.7-.75 1.65-.45 2.6.3 1.05 1.85 1.4l6.85 2.5q5 1.9 5.6 1.85 1.7-.05 2.85-1.4 1.85-2.05 1.85-6.75l-.3-6q0-10.3 5.05-23.15 2.85-7.2 8.15-16.75l1.65-3.25q-.75-4.25-3.5-7.05-.15-.15 1.05-.4l1.35-.05 2.1 2.95q.95 1.75 1.35 4.2.15.8-.5 2l-1.95 3.35q-5.75 10.4-8.4 17.55-5.05 13.35-4.1 24 .8 8.5-1.5 11.1-1.15 1.35-5.45 1.55-1.1 0-5.15-1.95-4.4-2.2-7.7-2.65-1.25-.15-2.25-.8-1.05-.7-1.3-1.6-.5-1.65.7-4.15.85-1.9 2-3.15 4.95-5.4 9.9-19.65 5.1-14.8 4.9-24.75-.25-3.15.05-4.75.6-3.25 3.3-5.05"/><path fill="#0d131a" d="M157.5 279.15q-6.3 1.1-10.45 2.7-.3.1.7-1.05l1.45-1.3q6-2.1 17.35-3.8l8.2-1.5q3.6-1 4.6-2.7.9-1.5.35-3.6-.35-1.25-1.7-3.75l-1.6-3.65q-.05-.2.7-.45.75-.2.8 0 .15.65 1.65 3.4 1.6 3.05 2.1 4.9.85 3.1-.35 5.05-1.25 2.05-5.3 2.95l-8.95 1.3-9.55 1.5m-40.8-3.75l-1.2.25q-.35-.25.05-1.2l2.1-4.9q1.2-2.5 2.35-3.9l.85 2.2q-1.35 1.9-2.4 4.25 1.5-.6 3.45-.9l.55 1.75q-2.2.4-5.75 2.45m20.4-2.3q.25.15-.8.5l-1.4.2q-1.7-.7-5.85-1.1l-.1-1.85q4.6.35 8.15 2.25m24.25-16.6q-9.85 5.1-15.6 6.55l-13.35.5-3.45-.2.15-2.55 1.75.25 1.75.4q8.1 1.05 13.4-.25 4.85-1.2 13.7-6.2l.95.7.7.8"/><path fill="#0d131a" d="M148.7 261.25l.4-.4.55-.2q1.15 1.6 6.5 2.9l5.9 1.1q3.6.6 5.15 3.45 2.25 3.9.95 8.05-.1.25-1.2.5l-1.05-.05q1.7-4.4-.25-7.7-1.35-2.55-3.85-2.95l-6.1-1.15q-5.8-1.4-7-3.55m-5.75 1.35q-.05-.15.6-.25l.75.1q.65 2 .4 4.25-.2 2.2-1.1 3.9-.25.5-1.65.75-1.4.3-1.1 0 1.25-1.35 2.05-3.85.85-2.9.05-4.9"/><path fill="#0d131a" d="M148.7 270.75q-.5-.6-.85-.55-1.95.05-11.3 4l-1.25.5q-1.25.5-2.65 1.9-1.6 1.55-2.8 3.55v-3.9q1.45-1.75 7.6-4.45 6.35-2.8 10.3-3.2 1.05-.05 1.95.9.85.95 1.35 2.65.8 2.6.1 5.2-.75 2.8-2.85 4l-3.8 1.25q-6.1 1.45-9 3.1-4 2.3-8.1 7.65-.45.6-.75.35l-.45-1.1q-.9-3.05-.35-6.95.5-3.55 1.85-6.15l.8.9.85.7q-1.9 3.45-1.9 7.15l.15 1.9q3.7-4.3 9.3-6.75 3.2-1.4 8.1-2.55l2.75-.8q2.15-1.25 2.15-4.8 0-1.55-.35-2.65l-.85-1.85"/><path fill="#0d131a" d="M219.7 147.65l-1.65.25-6.65.65q-5.3.1-11.5-1.3-5.45-1.25-11.6-5.55-5.35-3.8-9.05-8.35-1.7-2.1-3.45-2.2-3.05-.05-8.9 6.15-2.25 2.4-5.45 4.4l-5.95 3.25q-6.25 3.2-9.75 5.7-5.85 4.15-11.05 10.6-5.5 6.85-11.35 21.25-6.6 16.15-7.7 28.45-.55 6.75-.55 12.75 0 15.65 3 30.4 2.7 13.2 6.3 19.35 3.45 5.9 4.2 6 .85.15.1-5.95-.8-7.05-.8-16.6 0-27.7 9.35-49.9 3.9-9.25 14.2-20.75 8.55-9.55 14.3-13.45l2.8-1.7 1.55-1.1q.4-.5.4-1.5l-.2-2.7-.4-3.1q-.6-4.3-.6-6.45l.05-1.7q.6-5.75 5.15-10.6.55-.6 1.3-.55 1.15 0 2.75 1.4l3.55 3.8 1.8 2.05q1.2 1.25 2.55 1.45l2.65-.15 2.25-.3q6.75-.3 13.2.85 3.9.65 9.55 2.3l4.25 1.1 2.85.05q1.65-.5 2.45-1.55.75-1.1.5-2.6-.25-1.65-1.55-2.9-1.3-1.3-2.9-1.25m-8.3-.65l6.4-.65 1.95-.45q1.6-.3 3.45 1.3 2.05 1.7 2.5 4.3.3 2-.45 3.6-1 2.05-3.4 2.75-1.3.4-3.55-.05l-4.75-1.35q-4.25-1.35-10.3-2.15-6.95-.9-11.8-.3l-4.95.9q-2.05.1-3.8-2.15-6.3-8.3-7-7.5-2.2 2.4-3.3 4.55-1.2 2.35-1.45 4.9-.15 1.5.85 6.6l1.4 6.7q.25 1.65-.15 2.7-.45 1.1-1.75 1.8-6.9 3.6-17 14.2-11.15 11.65-15.1 21.05-6 14.3-8.3 31.85-2.35 17.6-.35 33.75.85 7.25-.6 8.4-1.8 1.45-7.2-7.5-4.6-7.8-7.55-24.8-3.45-19.6-1.75-38.45 1.1-12.7 7.25-28.8 5.85-15.3 11.7-22.55 5.25-6.5 11.45-10.7 2.95-2 10.05-5.55l6.35-3.15q3.4-1.85 5.5-4.05l5.35-5.3q2.75-2.3 4.75-2.2 2.45.1 4.8 3 3.8 4.65 8.6 8.35 5.9 4.5 11 5.65 6 1.35 11.15 1.3"/><path fill="#0d131a" d="M166.6 144.35q.5-.25.95 0 .4.3.45 3.1l-.05 4.1q-.05 2.15-.75 3.5-.75 1.35-.65-.85.25-4.15-.15-7.3l-3 1.6q-6.9 3.6-10.25 5.65-5.35 3.25-7.45 5.6-25.25 28.85-25.25 68.25 0 8.55 1.2 17.7v.1q0 5.15-.6 3.3-.5-1.6-1.3-7.75-3-24 3.6-45.55 6.3-20.75 20.95-37.4 2.05-2.35 12.4-8.45l9.9-5.6m54.2 2.35q1.25-1.9 4.1-1.5 2.5.45 2.9 2.85.25 1.25-.4 2.15-.6.85-.6-.75 0-2.4-2.05-2.75-2.05-.35-2.85 1.25-.15.3-.7-.4-.55-.7-.4-.85m-99.95-88.4q-.25-1.1.5-5.65.05-.25.9.35l.85.85q-.4 2.5.15 3.85.7 1.7 3.45 3.15l1.65.8q3.05 1.5 4.75 2.95 2.75 2.35 5.8 7.1.75 1.1.95 5.1-4.05-7.05-6.65-9.5-1.55-1.5-6.05-3.7l-1.75-.85q-3.95-2.1-4.55-4.45m11.35-10.55q.8-.3 1.65.2.9.5 1.35 1.55 1.4 3.2 2.5 4.6.45.6.4 1.6-.1 1.05-.5.65-2.25-2.25-3.8-6l-.85-.7-.55-.1q-.5.1-.6-.85-.1-.95.4-.95"/><path fill="#0d131a" d="M130.75 47.3q-.45-1.7-1.75-3.15-6.05-6.55-8.9-16.3-2.15-7.15-2.95-18.3-.15-2.6-1.55-3.7-1.25-.95-3.8-.75l-4.9.8-1.35.3-6.4.8-6.75.2-13.55.8q-8.5 1.05-16.95 3.95-18.6 6.3-34.4 23.15Q6.85 57.15 2.4 88.2q-.8 6-.45 6.3.45.4 3.35-5 6-11.2 16.3-22.85 13.75-15.5 28.15-22.75 10.55-5.3 22.1-6.95 11.55-1.65 26 .05.5.05 2.65-4.1 1.45-2.85 3.6-6.05 2.7-4.05 5-6.1 1.4-1.25 2.15-1.2.7.05-.6 1.3l-1.6 1.8q4.45 4.15 8.25 13.4 2.8 6.9 3.85 12.35.6 3.55 2.9 4.9l4.65.25q1.55-.5 2.15-2.85.4-1.65-.1-3.4m-.05-4.45q1.65 1.8 2 3.65.4 1.85-.3 4.6-.35 1.45-1.25 2.5-.85 1.05-1.95 1.45l-3.55.45q-1.85-.15-3.15-.9-2.95-1.75-3.7-5.9-1.25-6.45-3.75-12.8-3.45-8.7-7.45-11.45-1.75 2.6-3.4 5.85l-2.35 4.8-2.1 3.65q-1 1.25-2.1 1.1-14.55-1.7-25.3-.4-11.4 1.4-21.45 6.45Q36.7 53 23.05 68.2 13 79.4 6.7 90.5q-4.65 8.3-6 7.75-1.4-.6.05-10.8 4.6-32.3 25.35-54.5Q41.7 16.2 61 9.6q8.45-2.9 17.45-3.7l13.95-.55 12.85-1.25L110.4 3q4.4-.55 6.5 1 2.1 1.6 2.25 5.15.45 10.6 2.3 17.15 2.7 9.45 9.25 16.55"/><path fill="#0d131a" d="M92.5 11l15.85.45q.9.95.25 2.7l-1.7 3.45q-1.1 1.95-2.05 2.2-.9.3.15-1.7l1.45-2.85q.55-1.3.25-1.75l-12.55-.35-16.6.35q-3.05.1-10.4 2.75-9.05 3.3-17.8 8.4-25 14.5-34.2 35.85-1.85 4.35-2.1 3.2-.3-1.15 1.65-5.4 9.55-21.2 34.55-35.6 8.75-5.05 17.8-8.3 7.35-2.65 10.45-2.75l15-.65m38.2 41.2q-.05-.3.6-1.05.7-.8.75-.5.8 3.25-.9 5.6-1 1.4-3.05 1.95-1.85.5-2.85-.25-.95-.75 1.8-1 1.75-.15 2.8-1.6.95-1.3.85-3.15m24.25 23.45q.1-.3.45.7l.15 1.45q-1.5 5.1-1.1 10.5.1 1.85 2.95 6.7.35.55.4 2 0 1.45-.25 1.15-4.55-6.35-4.75-9.4-.45-5.7 2.15-13.1m60.05.3q-.05-.3.8-1.35.85-1.05.95-.75.5 1.15.1 9.05-.35 8-1.05 8.9-2.2 3.05-8.45 6.2-5.35 2.7-10.4 4.05-.3.05.05-1.05.4-1.1.65-1.2 5.3-1.55 9.9-3.9 5.1-2.6 6.85-4.95.35-.85.6-6.7.2-5.75 0-8.3"/><path fill="#fff" d="M206.5 88.65q0-1.1.65-1.1t.65 1.1q0 1.1-.65 1.1l-.45-.3-.2-.8"/></svg>