<svg xmlns="http://www.w3.org/2000/svg" width="571" height="453" viewBox="-0.4 -0.5 571.0 453.1"><path fill="#a586bc" d="M110.25 272.95q9.15 2.75 20.75 10.45 3.05 2.05 19.7 14.4 11.5 8.5 18.4 11.75 46.05-15.85 69.6 3.25 7.35 6 11.55 14.75 2.1 4.35 2.75 7.55-25.85-.9-55.05 13.6-16.65 8.25-28.35 17.8-3.3 2.7-5.75 1.45-2.9-2.4-5-3.8-20.6-13.85-48.15-23.55-54.85-19.3-94.05-1.4 10.75-14.15 25.1-29.55 28.75-30.75 46.95-36.8 10.05-3.35 21.55.1"/><path fill="#8f75a3" d="M88.7 272.85q10.05-3.35 21.55.1 9.15 2.75 20.75 10.45 3.05 2.05 19.7 14.4 11.5 8.5 18.4 11.75 46.05-15.85 69.6 3.25 7.35 6 11.55 14.75 2.1 4.35 2.75 7.55-14.35-.5-30.3 3.95-19.95-8.1-33.4-6.1-16.75 2.5-22.8 20.7.55-5.5-.85-10.8-1.5-5.75-4.8-9.05-10.25-12.3-25.35-18.45-14.1-5.8-30.7-5.6-16.05.25-31.6 6-15.7 5.8-28.05 16.15-8.7 1.05-15.2 2.55-8.2 1.95-15.05 5.1 11.2-14.25 26-29.7 29.6-30.95 47.8-37"/><path fill="#b6aed1" d="M89.25 276l2.6 5.25q-22.5 8.65-53.35 35.6-10.65 9.3-20.4 19.1-7.75 7.8-10.15 10.9-3.65 4.7-5.25 4-1.65-.7 1.05-6.85 1.6-3.6 9.15-13.05 8.55-10.75 18.95-21.5 28.65-29.5 50.6-38.05l6.8 4.6"/><path fill="#9b94b3" d="M83.95 272.95l5.3 2.55 2.6 5.75q-19.1 7.35-44.8 28.35-17.85 14.55-33.4 30.85-.2-7.1 25.05-30.3 21.3-19.55 45.25-37.2"/><path fill="#b6aed1" d="M84.5 258.55l5 3.95-11.75 7.1q-11.55 6.75-17.65 6.1-2.75-.3-5.75-3.4-2.45-2.45.8-4.65 1.4-1 7.15-3.3 1.1-.45 7.05-4.65 4.55-3.3 8.4-3.3 3.95 0 6.75 2.15"/><path fill="#9b94b3" d="M81.1 256.8q2.1.6 4.35 2.55l4.05 3.15-12.25 7.35q-8.2 4.8-11.6 4.65-2.3-.1-2.45-2.55-.05-.75 6.75-4.9 7.9-4.85 11.15-10.25"/><path fill="#b6aed1" d="M105.9 269.5q3.05 3.35-4.95 3.9l-8.65-.15q-1.95-.25-5.05 4.1-4 5.6-7.15 7.6-4.45 2.9-9 .7-1.75-.8-2.2-1.85-.45-1.15.9-1.65 2.05-.75 5.45-7.65 4.05-8.15 5.8-10.15 2.7-3 6.95-3.1l8.05.75q3.55.3 5.2 1.95l4.65 5.55"/><path fill="#9b94b3" d="M91.95 264.4q3.3-2.7 7.6-.35 2.6 1.4 6.35 5.45 3.05 3.35-4.95 3.9l-8.65-.15q-1.95-.25-5.05 4.1-4 5.6-7.15 7.6-1.35.9-3.3-.75-1.9-1.6-.15-2.85 1.1-.8 6.75-7.6 5.85-7.1 8.55-9.35"/><path fill="#b6aed1" d="M117.55 282.05l-11.75 2.35q-7.1.9-12.1-1.75-5.4-2.9-3.5-6.25 1.5-2.8 6.5-4.45 6.9-2.2 11.4-2.6 7.2-.55 13.25 2.5 5.15 2.55 21.8 13 16.8 10.5 26.9 17.45 12.45-4.65 19.8-6.7 13.05-3.65 24.6-4.3 11.05-.55-.5 11.95-5.75 6.3-13.7 12.65-8-1.4-18.95 3.75-2.45 3.65-7.95 4.45-6 .85-7.95-4-1.6-4.05-23.25-19.7-23.3-16.95-24.6-18.35"/><path fill="#9b94b3" d="M121.1 279q-16.65 6.75-20 3.4-1.2-1.25.15-3.25 1.4-1.95 4-2.85l8.9-4.3q3.8-1.85 7.2-.15l12 6.95q-4.2-2.45-7.4-1.55-3.15 1.5-4.85 1.75m79.15 36.9l-2.25-.25q2.65-6.1-4.6-10.7-4-2.55-14.4-5.9 19.8-6.95 35.45-7.75 11.05-.55-.5 11.95-5.75 6.3-13.7 12.65"/><path fill="#b6aed1" d="M559.9 79.3q-30.9 40.05-35.6 67-2.35-2.35-5.85-13.6l-3.05-10.8-3 4.5q-3.6 5.85-6.4 12.95-9 22.65-7 48.65 2.4 31.2 2.4 46.55 0 26.1-4.95 44.4-12.75 46.85-63.05 58.95-6.8-1.2-15.25-3.85-16.95-5.3-25.2-12.7-8.2-7.35 5-20.75 6.6-6.7 14.85-11.9l16.1-3.3q10.35-2.55 18.1-6.55 21.5-11.2 30-37 3.1-9.45 4.45-28.45 1.15-23 2.2-35.05 1.8-21.15 6-35.1 5.45-18.05 15.9-28.85-4.7 1.45-11.95 2.3l-6.3.55 4.15-5q5.55-6.15 12.6-12.05 22.5-18.9 51.2-27.95 10.5-3.35 10.6-1.55.05.85-5.95 8.6"/><path fill="#9b94b3" d="M392.95 321.35q-6.65-5.95.85-15.95 4.85-6.55 14.75-13.75 12.4 8.6 20.1 12.3 10.85 5.2 20.4 5.15 22.7-.15 47.65-31.2-5.95 22.7-20 37.05-16 16.4-43.3 22.95-6.8-1.2-15.25-3.85-16.95-5.3-25.2-12.7M533.55 97.7q3-1.55 4.8-2.05 1.7-.45.95.35-18.3 19.45-22.65 30.65l-1.25-4.75q-2.4 3.05-5.4 8.75-6 11.45-8.9 24.9-6.4-26.1 16.7-46.95 7.45-6.65 15.75-10.9"/><path fill="#b6aed1" d="M410.35 281.6l4.3.1q2.65.9.4 10.6-1.1 4.85-2.75 9.55l2.2 9.3q2.7 10 5.3 13.2 6.1 7.4 15.95 16.4-.45-2.45-.65-5.35-.35-5.75 1.1-7.8 1.95-2.7 6.75-2.6 5.05.1 6.4 4 1.55 4.8 4.9 13.45 3.6 9.35 4.9 11.65.95 1.65 12.15 16.15 11.65 16.3 16 28.1 5.85 16 6.95 22.15 1.4 7.55-3.2 4.55-4.1-2.65-12.05-13.85l-8.6-12.85q-1.2-1.85-3.65-1.1-1.85.55-3.35 2.05-.95.95 1.5 7.75l6.45 16.15q4 9.75 4 10.9 0 1.2-4-.6-7.2-3.25-15.2-12.1-8.25-9.15-9.6-16-.85-4.3-5.45-16.2l-4.4-11q-2.5.9-5.65 1.35-6.25.9-9.35-1.35-10.1-7.25-20.3-11-10.05-3.65-12.5-1.15-2.85 2.85-5.8 9.25-3.4 7.35-4.05 14.15 4.05-.6 4.8 2.9.35 1.65-.1 8.85-.4 5.65 3.9 15.55 4.7 10.8 12 19.1 6.8 7.7 3.65 8-2.15.25-8.3-2.85-3.55-1.75-13.35-11.6l-9.15-9.5 1.45 5.1q2.7 7.15 8.85 17.4 6.1 10.2-3.35 4.45-12.6-8.9-16.35-11-4.35-2.45-5.15-10.05l-.65-7.75q-.5-5.15-1.7-9.4-5.35 1-12.6-10.7-6.25-9.95-8.45-18.8-11.95-4.1-18.85-17.7-4.75-9.3-8.35-26.8-2.45-12.05-8.2-18.4-4.05-4.5-8.2-5.05l-11.65-29.35 14.9-16.25 6.05 2.25 4-5q4.5-5.5 6.85-7.85 2.55-2.55 4-7.15 1.05-3.5 1.65-8.8.5-4.65 4.45-7.15 3.95-2.45 9.6-1.75 4.6.6 5.7 5.85l.7 5.35q.45 3.75 1.1 6.15 1.3 4.65 16.65 11.7 20.75 9.55 27.85 14.55 10.6 7.45 20.85 8l6.7-.15"/><path fill="#9b94b3" d="M309.25 277.75q2.1 2.75 4.6 8.5 3.2 7.45 4.25 14.2 3.05 19.65-13.45 24.95-2.9-7.1-7.35-10.95-3.3-2.85-6.35-3.25l-11.65-29.35 14.9-16.25 6.05 2.25 9.85-12.05q-1.9 4.55-1.2 9.2.65 4.35 2.85 5.35.85.4.2.95l-1.9 1.25q-3.05 2.2-.8 5.2m50.9 113.7l-10.3-3.85q-5.9-2.5-8.8-5.35 14.85 0 24.35-2.8 12.65-3.7 21.2-13.3 1.25-1.85 4.05-1.9 2.5-.05 4.95 1.25-5.2-1.05-6.7.55-2.85 2.85-5.8 9.25-3.4 7.35-4.05 14.15 4.05-.6 4.8 2.9.35 1.65-.1 8.85-.4 5.65 3.9 15.55 4.7 10.8 12 19.1 6.8 7.7 3.65 8-2.15.25-8.3-2.85-3.55-1.75-13.35-11.6l-9.15-9.5 1.45 5.1q2.7 7.15 8.85 17.4 3.2 5.3 1.55 6-1.65.65-3.3-2.4l-4.8-4.7q-4.8-4.55-7.7-9.65-1.8-3.2-2.85-8.55-2.05-10.25-3.2-14.6 2.85.25 5.15-1.6 1.95-1.55 2.45-3.6 1.1-4.35-1.95-7.35-2.3-2.25-8-4.5m76.55-13.25l6-1.05 6.75-.55q.5.35-3.25 3.3-3.7 4.5-2.65 12.1.9 6.6-2.9-2.95l-3.95-10.85m-26.35-96.6l4.3.1q2.65.9.4 10.6-1.1 4.85-2.75 9.55l2.2 9.3q2.7 10 5.3 13.2 6.1 7.4 15.95 16.4-.45-2.45-.65-5.35-.35-5.75 1.1-7.8 1.95-2.7 6.75-2.6 5.05.1 6.4 4l4.6 13.05q3.3 9.05 4.55 11.25.8 1.35 9.75 12.7 9.75 12.85 14.7 22.55-20.35-25.95-31.85-24.5-1.7.2-3.75 1.05l-2.95 1.15q-3.05.85-5.55-2.85-10.05-14.7-26.25-19.8l-10.5-3.1q-4.8-1.8-6.45-5.05-5.75-11.35-23.1-28.1-23.7-21.8-39.05-37.15-3.05-3.05-2.4-17.1.8-16.7-1.05-23l.75.05q4.6.6 5.7 5.85l.7 5.35q.45 3.75 1.1 6.15 1.3 4.65 16.65 11.7 20.75 9.55 27.85 14.55 10.6 7.45 20.85 8l6.7-.15"/><path fill="#a586bc" d="M510.95 7.55q20.6-2.95 37.7-2.3-37.75 13.6-59.85 44.95-18.05 25.6-24.8 61.85-5.15 27.5-3.35 57.9 1.3 21.95 4.6 33.05-44.1 13.1-64.75 46.9-11.55 18.9-13.5 38.8-2.8-1.05-8.9-1.05-6.1 0-11.7 1.1-3.6-.85-7.75-3.9-8.3-6-10.85-16.8-8.2-34.45 43.8-103.35 12-40.8 23.4-68.85 18.3-45.15 36.9-64.2 17.75-18.2 59.05-24.1"/><path fill="#8f75a3" d="M510.95 7.55q20.6-2.95 37.7-2.3-31.9 11.55-52.6 35.7-16.45 5-29.35 12.75-27.3 19.2-31.35 60.95-2.85 29.35 6.1 71.2l-10.8-6.45q-7.15-4-10.85-3.1-30.65 11.15-41.4 45.95-8.6 27.85-3.45 65.5l-8.55 1q-3.6-.85-7.75-3.9-8.3-6-10.85-16.8-8.2-34.45 43.8-103.35 12-40.8 23.4-68.85 18.3-45.15 36.9-64.2 17.75-18.2 59.05-24.1"/><path fill="#b6aed1" d="M532.05 2.05q13.3 0 20.4 2.55-14.25 1.5-32.9 6.55-37.25 10.2-59.05 28.3-18.95 15.7-35.15 54.2-6.6 15.6-10.6 30.35-3.9 14.25-3.9 22.2 4.05 16.05-.1 21.85-2.9 4.1-11.75 4.1-7.55 7.55-24.55 38.8Q356 244.85 356 255.9q0 10.35 6.75 22 3.65 6.35 10.3 15.1 1 1.5-3.2 1.4-4-.1-10.9-1.65Q342 288.9 330.3 282.2q-8.1-4.6-11.25-11.85-1.15-2.75-1.15-4.85 0-1.95 1-2.15 5.5-1 6.95-2.05 2.8-2.1 7.15-10.55 13.7-26.65 21.05-39.25 12.95-22 34.55-52.7 4.35-17.5 19.7-58.05Q425.8 54.4 435.2 41q5.85-8.3 16.2-14.75 8.05-5 23.2-11.3 30.9-12.85 57.45-12.9"/><path fill="#9b94b3" d="M535.05 2.1q11.35.35 17.4 2.5-14.25 1.5-32.9 6.55-37.25 10.2-59.05 28.3-18.95 15.7-35.15 54.2-6.6 15.6-10.6 30.35-3.9 14.25-3.9 22.2 2.45 9.8 1.9 15.65-.45 5.2-3.35 7.7-.45-5.75-1.1-7.7-1.25-3.55-4.9-5-1.85-.75-1.6-1.8.2-.7 1.8-2.4 4.15-4.35 3.8-7.8-1.6-15.2 4.2-34.3 5.45-18.2 16.75-37.2 11.15-18.8 25.9-35 15.15-16.65 31.45-27.6 26.6-9.3 49.35-8.65M356 255.9q0 10.7 6 21.5 3.2 5.85 11.05 15.6 1.9 2.35 2.1 4.75.25 2.35-1.1 3.55-3.35 3.05-10.5-3.15-19.65-16.95-23.2-16.1-2.45.6-2.6-1.05-.2-2.2 2.8-9.55 11-27.25 14.8-35.15 13.85-28.8 26.05-37.65-10.35 17.7-17.25 32.6-8.15 17.7-8.15 24.65"/><path fill="#b6aed1" d="M496.05 16.25q-.75 6.3-14.45 7.85-4.75.55-6.4 1.9-.85.7-1.2 2.35l-14.9-2.25q.7-.8 3.85-6.95 2.7-5.2 4.3-5.7l12.55-1.5 12.5-1.35q1.15-.25 2.5 1.55 1.45 1.9 1.25 4.1"/><path fill="#9b94b3" d="M492.3 10.6q1.15-.25 2.5 1.55 1.45 1.9 1.25 4.1-.75 6.3-14.45 7.85-4.75.55-6.4 1.9-.85.7-1.2 2.35L465.05 27q1.25-6.1 5.2-8.25 2.45-1.3 12.75-3.8 2.35-.6 2-1.2-.4-.65-4.7-1.9l12-1.25"/><path fill="#b6aed1" d="M457.95 44.45q-6.5 5.2-7.55 14 6.95-2 11.5-.85 4.25 1.1 4.25 4.2 0 5.6-.6 6.55-1 1.65-6.9 3.15-6.65 1.75-18.35 7.75-1.4.7-4.8-1.7-3.55-2.5-3.95-5.05-.35-2.3.35-8.25l.8-5.55L445.35 39q1.35-1.05 4.45-6.35 3.25-5.55 4.25-6.55 1.65-1.65 10.25-2.05 8.5-.4 10 .9 1.05.9 3.6 9.8 2.7 9.2 3.45 10.2 1.55 2.1-1.75 5.05-3.45 3.1-7.85.85-4.05-2.1-6.2-6.2L464.2 41q-3 .85-6.25 3.45"/><path fill="#9b94b3" d="M444.25 63.95q-2.2-.25-.25-4.2 2.05-6.05 2.85-7.35 3.15-5.35 9.85-7.85l-3.4 6.65q-2.7 5.4-2.9 7.25 7.15-1.95 11.6-.8 4.15 1.05 4.15 4.15 0 6-.45 6.75-1 1.65-7.15 2.55-2.7.35-5.45 1.45 2.95-3 2.75-6.85-.2-4.35-5.8-2.95l-5.8 1.2m37.1-19q1 1.35-.55 3.7-1.7 2.5-4.5 3-2.55-4.65-4.95-10.3l-3.1-7.65q-.9-2.3 2.4-5.8 3.15-3.3 3.65-2.95 1.05.9 3.6 9.8 2.7 9.2 3.45 10.2"/><path fill="#b6aed1" d="M266.65 178.9q14.45-18.4 13.55-14.05-1 5.2-3.9 32.65-3.2 30-3.3 39.6 2.1 5.8 6.25 12.1 4.5 6.8 7.75 8.4 7.3 3.7 7.9 10.55.4 4.95-2.95 12.6-3.8 8.65-2.3 24.85 1.55 17.3 8.35 28.25 7.15 11.45 9.4 19.35 2.35 8.3.45 16.3-1.65 6.95-16.9 15.4-12.05 6.6-18.45 8-4.05.9-11.75-4.05-8.2-5.3-7.6-10.35 1.95-15.85.75-32.7-1.45-19.75-6.75-20.85-4.7 5.35-5.65 16.05-.45 5.35 0 9.6l-7.05.25q-8.25-.2-14.2-2.6-6-2.4-6.9-9.8-.3-2.35 0-4.85l.3-2.1q-8.55-3.35-11.2-5.25-6.6-4.7-.2-14.35 8.9-10.9 10.6-15.65 1.35-3.8-2.6-8.95-3.8-4.9-8.2-6.15-4.95-1.4-6.75-5.95-1.65-4.15-.6-10.75-12.3-4.85-22.85-9.8-12.85-6.05-12.15-7.45.55-1.2 21.15-3.55l24.25-3.1q5.5-6.95 15.7-12.7 9.35-5.3 16.1-6.25 14.35-22.95 29.75-42.7"/><path fill="#9b94b3" d="M231.3 304.65q.25.85-1.15 6.4-1.05 7.1 1.05 15.4.4 1.55-.95.95-1.25-.5-3.2-2.45-4.9-4.95-5.05-8.75-.1-3.6 4.4-8.45 4.45-4.7 4.9-3.1m36.8-59.95l-3 .6q-1.35.1-1.55-1.4-1.25-10.4 2.25-30.95 4.25-25.45 13-38.35-2.15 16.45-3.85 33.5-2.15 21.5-1.95 29 2.1 5.8 6.25 12.1 4.5 6.8 7.75 8.4 7.3 3.7 7.9 10.55.4 4.95-2.95 12.6-3.35 7.7-2.3 23.45 1.2 18.15 8.35 29.65 7.15 11.45 9.4 19.35 2.35 8.3.45 16.3-1 4.35-7.7 9.5 5.05-5.35 1.25-10.8-5.3-5.25-6.05-7.2l-11.9-27.1q-6.45-16.15-7.3-26.7 1.45 1.95 2.15.25.5-1.25.9-6.05 1.25-14.15 3.35-20.4 2.45-7.25 2.25-11-.15-2.9-2.25-5.3-2.85-2.8-4.4-5-2.8-3.95-4.15-10.05-1.3-5.8-5.9-4.95"/><path fill="#922f00" d="M280.9 315.4q4.4 5.3 9.25 22.9 5.05 18.55 2.9 25.5-2.05 6.7-13.75 13.15-10.55 5.75-15.8 5.45-4.6-.3-6.55-1.5-2.3-1.35-2.55-4.6 1.3-9.45 1-20.6-.55-22.35-8.45-31 3.25-3.55 10.2-7.6l9-5.25q5.5-3.85 6.05-17.05.55 5.2 3.2 11.3 2.5 5.7 5.5 9.3"/><path fill="#6a1a00" d="M253.55 337.25q-1.55-8.15-6.6-12.55 3.9-4 10.6-7.9l8.6-4.95q5.5-3.85 6.05-17.05.55 5.2 3.2 11.3 2.5 5.7 5.5 9.3 4.4 5.3 9.25 22.9 5.05 18.55 2.9 25.5-1.45 4.75-8.4 9.75-5.3-7.95-15.4-15.45-10.15-7.5-14.45-6.45l-1.25-14.4"/><path fill="#ed8599" d="M260.05 333.55q-1.6-1.95-2.35-8-.7-5.85.2-8.1l8.25-5.6q5.5-3.85 6.05-17.05.55 5.2 3.2 11.3 2.5 5.7 5.5 9.3 4.4 5.3 9.25 22.9 5.05 18.55 2.9 25.5-.9 3.1-4.35 6.65-3.2 3.35-5.4 4l-7.25.25q-3.75-1.15-7.2-5.35-1.35-1.65-2-6.4l-.95-9.85q-1.35-14.2-5.85-19.55"/><path fill="#ce7486" d="M284.7 322.35q2.05 4.75 4 11-21.3-12.1-28.55.3l-.1-.1q-1.6-1.95-2.35-8-.7-5.85.2-8.1l8.25-5.6q5.5-3.85 6.05-17.05.55 5.2 3.2 11.3 2.5 5.7 5.5 9.3 1.65 2 3.8 6.95"/><path fill="#fff" d="M250.45 339.55q-.8-.35-.75-.8 0-.45.8-.75 3-1.25 4.75-1.25 1.6 0 1.95 2.5.3 2.5-1.3 2.25-1.7-.25-5.45-1.95m-1.3-6.95q-.8-.35-.8-.85.05-.5.9-.85 2.65-.95 3.95-.95 1.45 0 1.75 2.2.25 2.25-1.2 2l-4.6-1.55m8.1 12.2q1.7.25 1.65 3-.1 2.75-1.8 2.2-1.7-.5-6.2-3.4-.5-.35-.35-.65.15-.35.85-.55 3.85-.9 5.85-.6m-5.55 10.9q-.3-.2-.05-.75.2-.55.8-.75 2.9-.9 5.05-.4 1.7.35 1.5 3.05-.2 2.75-1.9 2.15-1.65-.6-5.4-3.3m0 7.9q-.4-.45-.25-.75.15-.3.75-.3 4.5-.15 6.55.8 1.7.8.9 3.85-.8 3-2.4 2-1.8-1.15-5.55-5.6m-1.8 7.85l3.4.15q3.75.3 5.4 1.15 1.85.95.8 4.3-1.05 3.35-2.8 2.1-1.45-1.05-4.3-4.45l-2.5-3.25m36.1-42.3q-1.85.05-6.3-1.25-.55-.15-.55-.5 0-.3.55-.65 3.2-1.9 5-2.2 1.6-.2 2.25 2.2.7 2.4-.95 2.4m-9.1-9.3l1.65-1.1q1.85-1.2 3.15-1.4 1.4-.2 2 1.9.6 2.15-.85 2.15-1.2.05-3.7-.75l-2.25-.8m7.1 16.1l-2.5-1.35 2.15-1.1q2.45-1.15 4-1.15 1.75 0 2.1 2.7.3 2.7-1.45 2.45-1.45-.2-4.3-1.55m.15 7.8q-.65-.35-.6-.7.05-.35.7-.6 3.8-1.35 5.75-1.25 1.75.1 1.95 2.8.2 2.75-1.55 2.4-1.55-.3-6.25-2.65m2.2 9.05q-.9-.75-.75-1.4.2-.7 1.3-.85 3.65-.4 5.35 0 1.8.5 1.45 3.65-.35 3.15-2.1 2.35-1.45-.65-5.25-3.75m-2.3 8.85q-.6-.55-.35-.95.2-.45 1.15-.55l6.8.2q2 .65 1.45 4.1-.55 3.5-2.45 2.55-1.9-.95-6.6-5.35m-33.25-112.9l4.35 2.25q4.85 2.8 7.35 5.65-4.55 7.9-13.7 16.2-7.85 7.1-10.7 7.85 1.55-10.6 6.1-20.55 3.1-6.7 6.6-11.4"/><path fill="#dbdcdc" d="M253.35 250.55q-4.8 6.25-8.7 14.65-3.8 8.1-5.15 14.65-.85.7-1.4.85.85-8.4 5.7-19.2 3.75-8.4 7-12.75l.85.45q1 .6 1.7 1.35"/><path fill="#0d131a" d="M252.95 268.3q-5.6 6.25-9.6 8.7-3.15-1.4-4-4.45 1.1-3.7 2.65-7.35 1.6-3.85 2.4-4.5 3.2-.25 5.8 1.9 2.7 2.3 2.75 5.7M13.2 341.25l1.3-2q39.3-17.95 90.55-1.95 29.4 9.15 54.4 25.9l2.65 2.05q2.1 1.8 3.1 2 1.45.2 3.7-1.6 4.25-3.65 13.2-9.3 15.4-9.7 31.1-15.4.5.85.6 2-15.3 5.5-30.3 14.8-8.15 5.05-12.9 8.9-3.5 2.9-5.1 3.2-1.55.35-3.45-1.3-2.35-3-4.1-4.05-84.4-50.8-144.75-23.25m229.9-7.05q5.2-.4 9.95-.25l-.1 2.3-11.1.35 1.25-2.4"/><path fill="#0d131a" d="M91.55 280.5l1.75 2.05q-21.7 8.4-52.15 34.5-9.95 8.5-21.25 19.3l-13.2 12.8q-4.7 4.45-6 4.1-1.1-.35-.55-3.35.55-2.7 2.1-6.2 1.65-3.7 8.6-12.7 7.9-10.25 17.6-20.5 26.45-28 47.8-37.3l-1.35 3.15q-19.65 9.2-45 36-9.45 9.95-17 19.65-6.85 8.75-8.45 12.3-1.5 3.3-1.5 4.5.05 1.7 3.6-2.25Q18.4 333.3 38.3 316.1q31.25-27.05 53.25-35.6m-8.1-23.3l3.65 3.15q.75.65-.1.8-.8.15-1.6-.55-1.9-1.65-3.05-2.25-1.9-.95-4.6-.95-2.55 0-5.2 1.4-1.65.85-4.55 3.1-3.55 2.7-5.35 3.35l-1.05.45-3.65 1.35q-1.75.6-2.5 1.3 2.9 12.5 22.85-.2l-.35 1.45q-7.8 5.85-12.85 6.9l-6.6-.45q-2.55-.7-4.35-2.7-1.6-1.8-1.8-3.7-.2-1.75 2.75-3.35.85-.45 5.75-2.45l1.1-.4q2.85-1.15 5.85-3.45l4.45-3.15q2.6-1.45 5.5-1.45 3.1 0 5.7 1.8"/><path fill="#0d131a" d="M103.8 265.45l2.5 3.95-1.6 1.15-2.95-3.55q-1.15-2.3-2.05-2.95-1.1-.85-3.75-1.05l-3.1-.35-6-.3q-3 .35-5.05 2.65-3.2 3.55-5.05 8.65-1.35 3.8-4.6 7.7-2.1 2.5-1.15 3.15 1.55 1.1 3.85 1.1 2.55-.05 4.75-1.45 2-1.3 3.8-3.4l2.85-3.7q1.45-2.05 3.3-3 1.85-.95 3.75-.7l-1.15.9q-.9-.15-2.05 1.05l-2.25 2.9q-3.7 5.3-7.2 7.6-2.65 1.75-5.8 1.7-2.8-.05-4.9-1.35-1.8-1.05-2.1-3.05-.2-1.3 2.3-3.9 3.4-3.55 4.85-6.4l2.55-5q1.45-2.65 2.75-4.1 2.55-2.8 6.15-3.3l6.65.3 3.05.35q3.1.25 4.75 1.3 1.05.7 2.9 3.1"/><path fill="#0d131a" d="M104.9 269.1l8.1-1.1q7.3.35 16.05 6.4l18.25 11.45q15.95 9.9 23.75 15.25 19.1-7.95 41.55-10.1.4-.05.7.8.25.9-.1.95-9.75 1-22.35 4.25-11.9 3.05-20.3 6.5-1.9.8-2 0l.25-.95q-10-6.9-26.65-17.35-16.8-10.5-21.85-13.05-3.8-1.95-8.1-2l-6.5.65-5.65 1.4-4.8 1.25q-1.8.4-2.9 1.75-.9 1.15-1.15 2.65-.25 1.75 3.1 3.65 2.95 1.55 5.9 1.75l6.2-.45q8.95-1.15 13.3-3.35 2.25-1.15 1.85.1-.4 1.2-2.45 2.05 1.8 2.2 6.5 5.8l10.05 7.25q14.95 10.45 21 15.15 8.75 6.85 9.95 9.85 1.15 2.85 4.4 3.25 2.65.25 5.25-.7 2.55-1 4.5-2.95 1.2-1.2 8.25-2.9 7.65-1.85 11.5-1.15l-.65 2.7q-4.15-.75-8.1-.2-4.55.65-9.7 3.05-1.75 2.25-5 3.6-3.3 1.4-6.3 1.1-2.2-.25-3.9-1.95-1.55-1.5-2.45-3.8-1-2.5-11.2-9.8l-19-13.15q-5.35-3.7-10.7-8l-6.55-5.65q-6.4 1.95-11.15 2.6l-6.4.35q-3.05-.3-6.5-2.15-3.05-1.6-4.05-4.3-1-2.55.35-4.8 1.3-2.15 4.05-3.1 2.55-.9 11.65-2.6m61.15 72.85q1.3-11.1 2.5-13.55.9-1.8 1.8-2.3.85-.45.15 1-.95 2.15-2.5 14.45-1.75 14-1 20.8.25 1.95-.45 1.4t-1-2.65q-1-6.6.5-19.15M570.5 67.85q.1.55-2.5 3.6-3.95 4.6-5.95 7.35-15.25 20.9-25 39.9-7.75 15.1-11.4 27.6-.85 2.95-1.3 3.4-.6.55-1.75-1.25-1.05-1.7-3.85-10.75l-3.85-13.15q-5.6 7.3-9.45 19.9-4.9 16.15-4.9 35.9 0 3.55.35 8.9l.05.45q2 25.6 2 47.15 0 36.45-9.55 57.8-12.25 27.4-42.8 39-.7-1.25-.9-2.15 38.05-15.8 47.2-59.35 3.6-17.15 3.35-40.95-.15-14.15-2.35-42.7l-.05-.45q-2.05-26.7 5.95-47.85 4.25-11.2 12.45-22.1 3.7-4.8 9.05-10.85 5.95-6.7 5.45-4.95-.4 1.25-5.55 7.65-6.15 7.75-8.7 11.7.85 1.95 4.25 13.35 2.8 9.45 3.05 8.45 3-12.65 11.65-28.9Q544.8 97 559 78.6l5.6-7.5q-2.05 0-9 2.25Q531.35 81 507.9 99.1q-7.75 6-13.7 11.8-5 4.9-4.4 5l4.55-.7 9.4-1.4q4.1-4.75 12.65-11.35 7.95-6.2 10.4-7 2.35-.8-2.55 3.3L510.4 110.3q-14 12.3-20.75 40.25-4.6 19.15-6.25 49.1-.9 16-1.7 23.7-1.35 12.45-3.75 19.75-8.2 24.95-27.35 36-11.9 6.85-34.05 10.05l.15-2.35q21.2-4 32.15-10.35 19.2-11.05 27.05-34.95 2.35-7.1 3.6-18.95.75-7.15 1.65-23 1.65-30.1 4.55-44.7 4.85-24.55 16.55-38.4l-14.9 1.9-2.75.45q-.6-.25 1.35-2.45l5.6-6.4q5.85-6.3 12.85-12 21.7-17.65 50.5-26.8 6.6-2.1 10.85-3l4.75-.3M331 229.2q4 .5 5.65 3.45 1.1 1.95 1.6 6.6l-1.85 5.55q-.4-2-.65-4.55-.5-4.75-1.25-6.3-1.05-2.15-3.85-2.5-4.6-.6-8.5 1.75-3.6 2.2-4.1 5.05l-.85 7.1q-1.6 7.65-5.2 10.55-2.75 2.25-5.75 6.25-2.6 3.45-3.75 5.95 1.5.95 6.7 3.15 1.1.45.75.55l-2.95-.15q-2.4-.2-7.35-1.85l-4.5-1.6-.5-3.8 5 2.5 2.2-3.95q3.65-5.25 10.8-11.55 1.7-1.55 2.15-6.7.25-5.8.65-7.85.65-3.25 5.15-5.7 4.9-2.65 10.4-1.95"/><path fill="#0d131a" d="M415.65 280q1.65.6 1.75 1.6.4 7.35-1.3 13.55-.9 3.35-2.45 6.8.95 4.95 2.4 9.95 2.45 8.75 4.75 11.6 4.7 5.75 13.15 13.8l-.2-3.8q0-4.6 1.4-6.65 1.25-1.7 3.9-2.55 2.65-.9 5.35-.5 2.3.35 3.9 1.6t2.25 3.2l3.9 11.95q2.75 8.15 4.1 10.5 2.15 3.7 7.05 9.6l10.85 14q7.15 10.05 10.7 19.6 5.35 14.7 7.2 24.1 1.4 7.2.4 8.35-2.2 2.55-11.2-8.1-6.75-8.05-13.2-18-1.65-2.2-2.15-2.25-.85-.1-2 .5-1 .5-1.8 1.25v.3q0 1.45 4.1 12.05l4.05 10.25q2.2 5.35 4.1 8.7 2.5 4.4-1.3 3.95-2.4-.3-7.8-2.75-7.15-3.2-13.95-11.35-6.85-8.25-8.35-15.6-1.25-6.3-9.3-25.85-3.55 1.05-6.9 1.25-5.2.25-8.1-1.8-12.25-8.6-21.4-11.75-7.7-2.6-9.75-.55-2.45 2.45-5.15 8.15-3.2 6.7-4.1 13 1.95.1 3.1 1.15.85.8.9 3.95l-.2 8.55q-.05 5.7 4.6 15.35 4.8 10.05 11.7 17.9 4.4 4.95 4.95 7.95.35 1.9-2.9 1.7-3.3-.2-8.3-2.5-2.35-1.1-10.35-9.1-8-7.95-8.85-8.35 3.65 9.45 8.45 17.5l2.15 3.6q.8 1.4.8 2.35 0 1-.7 1.6-1.4 1.3-5-.6-2.95-1.5-10.8-7.1l-7.6-5.1q-3.55-1.95-4.85-5.9-.75-2.4-1.25-8.6-.5-7.45-1.8-12.45-5.9-.3-13-11.9-5.75-9.4-8.15-18-12.1-4.45-19-18.15-4.7-9.35-8.35-27.05-2.25-11.1-7.4-17.25-3.9-4.65-7.9-5.15l-.2-2.05q5.65.7 10.5 6.7 5.35 6.6 7.5 17.25 4.05 19.6 10.1 28.85 10.25 15.65 31.35 17.55 8.75.75 19.55-3.3l5-1.95q1.25-.4-.15 1.1-2.7 3.05-13.05 5.5-13.35 3.1-24.5-.8 2.95 11.05 8.55 18.4 7.2 9.4 15.9 7.8l4.85-.25q.6.4-1.9 1.25l-4.75 1.15-2.5.4q.9 3.2 1.3 6l.6 6.15q.4 5.6 1.05 7.7 1 3.25 3.75 4.8 1.9 1.1 7.8 5.2 3.95 2.8 7.4 5 4.5 2.9 5 2.7.25-.3-.35-1.45l-1.9-3.15q-6.3-10.5-8.85-17-1-2.65-1.65-6.05-.15-.95-2.8-1.15-2.25-.2-1.75-.7 1-1 3-.85 2.2.15 3.8 1.75l10.3 10.45q9.1 9 11.8 10.35 6.7 3.35 7.4 2.75.3-.4-.75-1.8l-3.5-4.1q-7.15-8.15-11.7-18.2-4.2-9.3-4.6-16.5l-.1-7.35q0-3.15-.4-3.5-.35-.35-.7-.4l-1.3.05q-1.8 5.15-3 5.1-.45-.1-.5-.8l.2-2.2q.5-4.25 4.6-14.55 4.25-10.7 6.8-13.25 3.05-3.05 14.05 1 10.35 3.8 20.4 11.05 2.4 1.75 8.8 1.15l11.65-2.2q4.8-1.15 6.85.05.7.4.6.85-.15.4-.95.25-1.35-.25-6.25.95l-4.6 1.2 4.25 10.55q4.1 10.85 5 15.2 1.3 6.6 9.45 15.5 7.8 8.65 14.7 11.7 1.3.6 2 .5 1-.2 0-1.95l-1.65-2.85q-1.15-1.9-2.15-4.35l-4-9.9q-4.05-10.25-4.05-11.9-2.15-.65-2.2-1-.05-.4 2-1.95 2.15-1.6 3.65-2.2 1.65-.7 3.4-.55 1 .1 1.45.35l1.1 1.1 1 1.55q13.8 21.3 19.25 24.8l1.1.2q.5-.2.5-.7 0-4.75-7.25-24.7-3.55-9.6-11.35-21.85-4.2-6.55-11.55-16.5l-3.35-3.9-2.45-2.75q-1.25-2.2-4.65-11.25-2.7-7.3-4.65-13.15-.85-2.5-4.1-3.05l-3.95.3q-2 .6-2.8 1.7-1 1.4-.9 5.5.05 3.25.65 6.65l4.15 4.7q4.4 5.35 5.5 8.4 2.95 8.25-1.55 0-1.9-3.4-12.1-13.7-11.95-12-14.2-14.75-2.7-3.35-5-11.75l-2.75-11.3q-.65-2.3-2.45-6-1.35-2.9-1.25-3.9.05-.85 2.35 2.9l2.3 3.95q1.7-4.85 2.45-9.1.9-4.95 0-6.8l-.2-.25q-.9-.25-4.1 0-5.2.35-8.5-.05-6.05-.65-12.15-3.65v-2.6q8.15 4.9 18.15 4.1l4.3-.55 3.7-.15"/><path fill="#0d131a" d="M544.1 5.85l4.95.45q-38.5 13.9-60.7 46.8-16.9 25-23.25 59.15-5.15 27.5-2.45 57.25 1.4 15.65 4.65 32.05.45 3.55.1 4.05-.25.3-3.65 1.15-37.85 9.35-57.85 37.45-14.15 19.8-16.95 44.05-.25 2.1-.95 2.25l-3.95-.85q-2.8-.8-6.4-.7l-8.05.5-2.65-2.8 19.1.6q.85-7.35 3.95-16.55 4.4-13.15 11.9-24.65 21.45-33.05 62-43.85-1.7-6.35-3-17.25-1.85-14.75-1.85-30.35 0-22.25 3.8-42.8 6.75-35.95 21.55-59.25 20.8-32.7 59.7-46.7"/><path fill="#0d131a" d="M410.05 168.05l.75-1.35 2.4.85q5.65 2.95 18.65 9.5 11.65 6.85 19.9 16.75 2.4 2.85 2.85 4.7.5 1.85-1.25.15-11.35-11.15-21.4-18.1-6.55-4.5-17.15-10l-4.75-2.5"/><path fill="#0d131a" d="M432.8 74.75l1.95 2.05q-9.75 18.75-16.3 39.15-6.25 19.55-6.3 30.15 2 7.95 2 13.5l-.25 5.55q-.35 2.6-1.5 4.1-1.9 2.45-5.75 3.4l-7.05.75q-7.7 8.15-24.25 38.6-18.1 33.2-18.1 43.9 0 10.1 6.95 22 3.7 6.35 9.75 14.2 2.45 3.65.35 2.2-1.75-1.15-3.85-3.4-5.6-5.85-9.55-12.95-6.2-11.15-6.2-22.05 0-10.6 19.3-46.15 6.7-12.3 13.8-24.05 6.2-10.35 7.25-11.35-1.65-.4-.7-1.25l2.45-1.5 6.15-1.3q5.2-1.05 6.55-2.75 2.1-2.6 2.1-7.9 0-5-2-13.15l-.05-.15v-.15q0-11.1 6.4-31.2 6.75-21.1 16.85-40.25m118.1-72.8q6.9 1.35 6.65 2.45-.2.9-4.95 1.45-13.65 1.75-27.5 5.3-27.8 7.1-48.35 19.15l-.3-3.3 2.4-1.4 2.4-1.35q1.15-.6 4.4-1.15l4.4-1 2.35-1.95q1.5-1.55 2.3-1.9 13.4-5.5 29-9.45 10.9-2.8 21.5-4.5-9.9-1.5-21.75-.55-16.9 1.35-35.4 7.55h-8.15Q504 1.35 525.75.2q12.5-.7 25.15 1.75"/><path fill="#0d131a" d="M462.75 18.85q-1.1 2.1-.95 3.25-9.1 4.45-14.95 8.8-6.35 4.8-10.6 10.85-8.9 12.65-26.15 58.95-12.8 34.3-17.65 50.65l-2.05 7.3q-.85 2.5-2.5 4.35-3.8 4.25-23.4 35.2-22.75 35.85-30.35 53.05-3.65 8.35-6.9 10.95-2.5 2-7.05 1.9-1.75-.1-2.1-.65-.4-.6 1.3-.85 3.4-.55 5.4-2.7 2.35-2.55 7.35-11.7 19.95-36.1 22.9-41.05 13.8-23.4 32.4-48.95 4.75-18.75 19.95-59.45 17.45-46.85 26.85-60.15 4.5-6.35 11.85-11.15 5.4-3.5 16.65-8.6"/><path fill="#0d131a" d="M492.6 9q1.45-.25 3.15 1.75 1 1.25 1.3 3.2.4 2.2-.35 4.05-2.35 5.85-14.6 7.25-3.85.45-5.35 2l-.7 1.5L475 26.3q.15-.95 1.85-1.85 1.9-1 4.65-1.3 5.2-.6 8.7-2.55 3.2-1.8 4.15-4.2.6-1.4.3-2.45l-.65-1.3-.95-.85-.55-.2-11.85 1.7-8.05.8q-3.75.45-4.65.95-1.85 1.05-4.2 5.35l-2.65 4.8-2.7.25 2.35-5.8q2.4-5.55 5.05-7.15 2.4-1.45 8.05-1.55 9.05-.2 18.75-1.95"/><path fill="#0d131a" d="M452.9 24.45q2-1.95 11.3-2.15 9.2-.2 11 1.35.75.65 1.75 4l2.25 8q.75 2.55 1.85 5.2l1.6 3.15q.75 1 .4 2.9t-1.6 3.35q-1.7 2-4.35 2.75-3.1.9-6-.6-5.35-2.8-7.6-10.1-3.4 1.3-6.25 4.05-4.45 4.35-5.6 10.95 8.05-3.2 12.6-.2 3.25 2.2 3.65 7.7.45 5.65-3.25 6.4-5.75 1.15-13 4.1-5.2 2.15-8.75 4.1-2.05 1.15-4.3.9-1.55-.15-2.9-.9-5.15-2.65-5.7-5.85-.35-2.3.55-6.55l1.35-6.55q.5-2.95 1.25-3.85.85-1 .5 2.25l-.9 7.15q-.55 4.25-.2 6.35.15 1.15 1.4 2.5 1.2 1.4 3 2.45 1 .65 2.8.45l1.6-.3q2.85-1.75 9.65-4.5 7.35-3 10.9-3.55 3.45-.5 3.35-4.25-.05-3.35-2.2-5.5-1.55-1.55-6.9-.9-3.95.45-7.95 1.7-2.3.7-1-.4l1.75-1.25q1.1-9.1 7.55-14.7 3.25-2.8 6.35-3.8-.2-1.55 0-2.3.4-1.45 2.3 2.8l2.1 5.15q1.15 2 4.95 4 2.6 1.35 4.9.45 1.35-.5 2.45-1.75.8-.95 1.05-1.9.2-.85-.05-1.25-.9-1.2-3.25-9.3-2.75-9.7-3.65-10.5-1.25-1.05-9.3-.65-8.2.35-9.6 1.75-.75.7-3.65 5.55l-2.5 4.05q-1.3 1.75-3.25 3.3-2.15 1.7-2.35 1.15-.2-.5 1.75-2.6l2.4-3.3 1.65-3.25 2.2-4.15q1.25-2.45 1.9-3.1M254.75 340.8l.35 4-1.9.45-.65-5.3 2.2.85m-1.05 21.75l.1-5.9 1.8 1.45-.05 4.45h-1.85m1.7 5.65l-.15 3.45h-2.35l.5-5.05q.2.6.85 1l1.15.6m0-18.55l.1 3.5q-.55.1-1.75 1.3l-.25-5.7 1.9.9m-1.75-15.95l.6 3.2-2.05 1q-.5-2.75-1.2-4.95 1.25.75 2.65.75"/><path fill="#0d131a" d="M278.6 166.9q-.75-.3-17.1 21.65-17.25 23.1-22.65 32.85-3.15 5.75-4.6 5.95-.75.05.3-2.15l1.2-2.2q-7 .95-16.3 6.55-11.3 6.75-16.35 15.6-1.8 3.25-2 2.7-.1-.35.45-2l1.5-3.75-22.25 2.3q-19.85 2.3-19.1 3.3 1.9 2.7 16.4 8.5l16.15 6.25q2.45-6 3.15-6.1.6-.1-.2 3.05-1.65 6.75-1.65 9.8 0 8.75 6.85 10.7 3.1.9 6.35 4.2 2.85 2.9 4.65 6.35 1.2 2.4.8 4.6-.75 3.7-5.65 10.15-3.95 5.25-5.5 7.85-2.65 4.4-2.65 7.25l.1.9q.3 2.35 2.7 4 1.5 1.1 5.2 2.65l5.75 2.45q2.25 1.1 3.45 2.25 1.05 1.05.6 1.4-.55.4-3.65-1.35l-.05 3.45q0 8.5 6.25 11 7.6 3.05 18.55 2.45l.65-.2.1-.85q-.85-15.75 5.55-23.85 2.8-3.45 11.85-9.25 4.5-2.85 8.45-5.05 4.85-3.45 7.3-26.2.2-2.1.75-1.9.5.2.45 2.2-.05 4.05-1.1 11.05.55 5.1 3.05 10.8 2.25 5.2 5.15 8.7 4.5 5.4 9.7 23.05 5.6 19.05 3.35 26.35-2.15 6.9-14.8 13.6-11.45 6.05-17.1 5.7-5.95-.4-7.8-3.25.7 2.35 3.5 4.9 3.2 2.9 7.7 4.9 4.25 1.9 6.15 1.45 6.3-1.35 18.1-7.85 14.75-8.1 16.3-14.6.85-3.55.85-6.85 0-5.8-2.55-12.4-2.45-6.5-8-15.45-4.2-6.7-6.4-17.8-1.95-9.65-1.95-19.95 0-11.55 2.2-16.5 2.9-6.75 2.9-10.85 0-7-7.25-10.65-3.85-1.9-9.05-9.8-5.1-7.8-5.65-12.3-.4-3.25 3.45-36.95 3.8-32.65 3.45-32.8M264 180.3q9.8-12.7 14.35-16.45 3.85-3.15 3.5.4l-4.6 35.8Q273.1 233.3 273.6 236q.65 3.55 5.25 11.05 4.8 7.9 7.7 9.35 9.85 4.85 9.85 12.15 0 3.05-1.6 7.4l-2.45 5.7q-.95 2.2-1.5 6.65-.5 4.3-.5 9.55 0 21.65 7.45 33.65 6.1 9.85 9.1 16.95 3.45 8.15 3.45 14 0 1.65-.4 3.65l-.85 3.7q-1.8 7.6-17.65 16.05-11.85 6.4-18.4 7.8-2.75.6-7.7-1.25-5.2-1.95-8.75-5.2-4.55-4.1-4.55-8.1l.4-3.7 1.2 1.2v-.2l1.3.65q.2 2.6 2.85 3.8 2.4 1.1 5.75.75 4.9-.45 14.85-5.65 12.05-6.25 13.95-12.35.55-1.95.55-4.65 0-9.1-4.45-24.05-4.35-14.55-8.1-19-2.3-2.75-4.4-6.95-2.25-4.5-3.5-9-1.2 8.75-5.85 12.5-3.35 2.75-9.3 6.2-5.1 2.95-8.5 6.2 2.1.55 3.65 4.6l-2.25 1.05q-1.3-3.05-2.7-3.9-2.95 3.9-4.25 9.55-1.15 5.15-.65 9.7.55 4.75.3 5.45-.2.8-2.4 1-10.85 1.1-20.7-2.85-7.85-3.15-7.85-12.7 0-2.2.45-4.55-9.85-4-12.05-5.55-1.6-1.15-2.15-2.05-.55-.85-.8-2.6l-.1-1.3q0-3.4 3-8.35 1.45-2.4 6.2-8.7l4.3-5.95q2-3.6.9-6.25-1.15-2.75-4.1-5.5-3.05-2.8-5.9-3.6-10.25-2.85-8.45-16.7-26.8-12.35-30.35-14.25-4.35-2.35-3.95-4.15.35-1.85 5.75-2.75l21.45-2.7 11.3-1.35 6.95-1.05q7.4-8.65 17.2-13.8 7.45-3.9 15.1-5.2 16.05-25.6 27.3-40.1"/><path fill="#0d131a" d="M261.05 336.25q-3.9-5.5-4.25-11.7-.2-2.55.55-6.7l1.45-.6q-.5 2.85.15 7.5.9 6.25 3.75 10.35 2.55 3.65 3.7 10.85.65 4.05 1 11.3l.2 3.5q.3 3.3 1.35 6.05 1.45 3.85 4.1 5.55 2.05 1.35 6.15 1.15 4.6-.25 7.9-2.4 2.1-1.35-.6.95l-3.15 2.6q-6.9 2.25-11.4-.65-5.35-3.5-6.3-13.1l-.2-3.55q-.35-7.1-.95-10.85-1.05-6.9-3.45-10.25m5.4-24.75l1.4-1.3q1.3-1.1.75.1-1.1 2.15-1.45 3.45-.7 2.35-.1 4.5.7 2.55.05 2.65-.65.15-1.5-2.15-.6-1.6-.3-3.75.3-2.05 1.15-3.5M252.5 338q-1.9.5-1.95.75-.05.25 2.25 1.1l3.2.9.25-.1.2-1.05q0-.75-.35-1.4-.4-.7-.8-.7l-2.8.5m-2 2.05q-1.4-.95-1.35-1.4 0-.5 1.7-1.4 2.35-1.25 4.4-1.25 1.4 0 2.2 1.5.5.95.55 2.1.05 1.2-.5 1.95-.65.85-1.7.7-2.55-.35-5.3-2.2m3.35-6.55l.25-.1.15-.9-.3-1.2q-.25-.65-.75-.65l-2.55.45q-1.7.45-1.7.65l2 .95 2.9.8m-.65-4.2q1.25 0 1.95 1.35.45.8.5 1.8.05 1.05-.45 1.7-.5.8-1.55.7-2.75-.45-4.65-1.75-1.2-.9-1.15-1.3 0-.5 1.5-1.3 2.2-1.2 3.85-1.2m3.9 16.3l-3.1.1q-2.1.2-2.2.5-.05.2 2.25 1.45t3.3 1.55l.3-.05.4-1.1q.1-.85-.15-1.55-.3-.85-.8-.9m-4.65-1.05q2.55-1 4.9-.6 1.45.25 2.1 2 .35 1.1.25 2.3-.15 1.35-.85 2.05-.9.8-2 .5-1.8-.55-5.35-2.9-2.15-1.4-2-1.85.15-.45 2.95-1.5m4.9 10.05q-1.45-.3-3.5-.05l-1.85.35q-.05.3 2.2 1.65 2.2 1.3 3.2 1.65l.3-.05.45-1.05q.15-.8-.05-1.55-.25-.85-.75-.95m.35-1.6q1.45.25 1.95 2.1.3 1.1.15 2.3-.25 1.3-.95 1.95-.9.9-2 .4-2.45-.85-5-3.35-1.1-1.05-.95-1.55.2-.6 2.05-1.3 2.5-1.05 4.75-.55m-2.95 12.75l3 2.7h.2l.7-1.05.3-1.7v-.25q-.1-1-.55-1.25l-3.25-.65-2.35-.1 1.95 2.3m-3-.6q-1.65-2-1.4-2.55.25-.5 2.9-.75 3.5-.35 5.9.7 1.5.65 1.6 2.8.1 1.35-.4 2.7-.55 1.45-1.5 2l-2.1-.1q-1.85-1.15-5-4.8m5.5 13.15q1.1.8 1.85-1.55.75-2.3-.85-3.1-1.1-.55-3.6-1l-2.65-.1 2.1 2.65 3.15 3.1m-6.6-7.4l4.4-.15q2.5.25 4.1 1.05 1.6.85 1.7 3.25 0 1.5-.65 3-.7 1.55-1.75 2.1l-2.35-.15q-2.55-1.75-6.2-7.55-.4-.7-.25-1.05.15-.3 1-.5M286 328.4q.9 0 .35-1.6-.55-1.65-1.55-1.5-.9.15-2.7.95-1.8.85-1.75 1.05.1.3 2.4.7l3.25.4m-1.45-4.6q.7-.1 2.1 2.1 1.4 2.2.95 3.05-.45.95-1.55.95-2.8.05-6.7-1.65-.9-.4-1-.7-.05-.3.6-.9 2.75-2.4 5.6-2.85m-1.9-5.25q-.45-.6-.85-.5-.9.1-2.5.8-1.6.7-1.55.95l2.15.6 2.95.35.25-.15.05-.9q-.15-.65-.5-1.15m1.4 1.1q.45 1.05.3 1.75-.2.85-1.15.85-1.55 0-5.15-1.3-1.75-.65-1.75-1.25-.05-.55 1.65-1.6 1.75-1.15 3.65-1.4l1.2.9 1.25 2.05m3.6 13.5l-3.1.65q-2.1.55-2.05.75 0 .2 2.45 1.1 2.5.9 3.5 1.05l.3-.1.2-1.15-.4-1.5q-.4-.8-.9-.8m0-1.65q.75 0 1.85 2.6 1.15 2.65.55 3.45-.65.95-1.85.8-1.95-.3-5.8-2.6-1.7-.95-1.7-1.45.05-.5 1.8-1.35 2.85-1.35 5.15-1.45m2.4 8.85q.75.05 1.75 2.7 1 2.7.35 3.45-.7.95-1.9.7-1.6-.3-5.55-2.6-2.05-1.2-2-1.85 0-.55 1.6-1.3 3.1-1.25 5.75-1.1m-5.3 2.8l2.4 1.25q2.4 1 3.45 1.2l.3-.1.25-1.15-.3-1.5q-.4-.8-.9-.85l-3.05.4q-2.1.45-2.15.75m-.65 7.6q.2-.55 2.8-1.05 3.45-.6 5.55 0 .85.2 1.25 3.45.45 3.3-.4 4-.95.7-2.1.25-1.85-.85-5.35-4.1-2-1.9-1.75-2.55m8.6 1.85q-.15-.95-.7-1.15l-3.35-.25q-2.25.1-2.35.35l2.3 2 3.35 2.15q.6.3.85-.5.3-.9-.1-2.6"/><path fill="#0d131a" d="M292.9 366.25q-1.55 2.5-2.7 1.65-2.65-1.9-5.7-5.1-2-2.05-1.65-2.65.3-.65 3.4-1.05l5.75.3q1.7.55 2.1 2.95.3 1.55-1.2 3.9m-.1-2.3q.75-1.95-1-2.7l-3.9-.35-2.9.25q-.1.3 2.45 2.35l3.65 2.6h.25q.9-.65 1.45-2.15m-67.25-41.85q-4.2-7.1.05-12.6.75-1 1.3-.65.6.35.2 1.85l-1 3.75q-.4 2.85.45 6.65.3 1.25 0 1.65-.3.4-1-.65m7.7-40.2q-4.7-2.45-4-8.75.15-1.25.7-1.8.6-.55.25 1.95-.25 2 .8 4.25.95 2.1 2.65 3.6 1.05.9.95 1.15-.15.25-1.35-.4m22.9-29.35q-1.95-1.3-5.15-2.8-4.4 6.2-8.2 15.6-3.65 9-4.15 14.3 2.95-1.3 9.8-7.85 7.5-7.2 12.6-14.15.4-.6-.15-1.15-2.15-2.25-4.75-3.95m8 3.8l-.55 1.35q-3.55 5.35-10.4 11.9-7.65 7.3-14.65 11.35l-.6 1.1q-.6.75-.5-1 .4-8.2 4.85-18.9 3.8-9.05 7.7-13.95 3.4-4.2 4.1-4.1.65.1-2.25 4.2 3.8 1.55 6 2.8 3 1.75 5.5 4.2l.8 1.05"/><path fill="#fff" d="M247.15 265.4q0 .7-.45 1.15-.5.45-1.2.45t-1.2-.45q-.5-.45-.5-1.15 0-.75.5-1.25t1.25-.5q.7 0 1.15.5.45.5.45 1.25"/></svg>