<svg xmlns="http://www.w3.org/2000/svg" width="527" height="424" viewBox="-1.65 -1.9 527.2 424.15"><path fill="#006a6b" d="M206.45 19q8.4 4 1.7 17.25-6.2 12.25-18.1 20.55l-11.3 8.3q-6.85 5.05-11 7.1-11.85 5.85-14.3-5.9-3.3-15.9-3.85-37.6-.6-24 3.85-25.5 3.95-1.3 24.15 5.05 18.45 5.8 28.85 10.75M378 2.6q3.55 3.1 2.65 29.25-.8 24.65-3.95 38.2-1.3 5.75-12.55-.45-9.75-5.3-23.3-17.25-12.9-11.4-20.8-21.2-8.55-10.6-5.15-12.15 8.45-4 33.8-11Q375.65.55 378 2.6"/><path fill="#005454" d="M150.75 8.9q1.15 6.75 3.45 15.05 4.6 16.65 10.3 24.55l-11.05 17.8q-1.65-10.35-2.85-22.7-2.35-24.65.15-34.7m229.35-.55q2.15 15.05-.4 39.9-1.3 12.4-3 21.8-.65-2.3-5.55-11l-4.8-8.3q3.55-3.2 9-23.15 2.75-9.95 4.75-19.25"/><path fill="#0d131a" d="M212.95 20.5q3 2.05 2.35 2.85-.65.75-3.9-.9-11.5-5.75-31.85-11.65-21.8-6.3-25-3.85-3.1 2.4-1.85 29.95 1.2 26.15 3.8 35.9 1.1 3.95-.15 4.25-1.25.25-2.65-3.6-1.35-3.8-3.05-14.25-1.8-11.2-2.7-22.45-2.3-30.1 3.85-33.7 5.8-3.4 29.7 4.1 22.25 7 31.45 13.35M378.85.4q5.1 2.95 4.45 32.2-.65 28.85-5.55 40.2-2.6 6.15-3.6 5.55-.95-.6 1.05-6.5 2.6-7.75 3.05-36.8.5-28.9-1.75-30.45-2.35-1.6-30 6.05-26.6 7.4-35.95 11.6-3.55 1.6-4.2.6-.65-1 2.7-3 8.25-5 36.5-13.25 29.25-8.5 33.3-6.2"/><path fill="#006a6b" d="M344.55 164.05Q311.4 184.2 261.3 184.2q-53.05 0-84.45-23.8-14.5-11-22.15-25.9-7.55-14.7-7.55-31.65 0-47.5 36.5-72.35 30.9-21 78.3-21 22.95 0 43.6 5.2 22 5.55 38.45 16.3 37.75 24.7 37.75 69.95 0 40.45-37.2 63.1"/><path fill="#fdeabe" d="M365.8 103.05q0 12.8-8.4 26.15-8.25 13.15-22.8 24-15.05 11.2-33.6 17.5-19.95 6.8-40.75 6.8-42.45 0-71.05-23.5-12.65-10.35-19.6-23.5-6.9-13-6.9-26.15 0-34.15 25.05-56.1 9.6-8.45 21.45-13.6 10.25-4.45 18.7-5.15 1.05-.1 17.85 8.15l16.6 8.25 17.85-7.35q18.4-7.35 21.25-7.35 8.55 0 19.3 5 11.4 5.25 21.1 14.25 23.95 22.25 23.95 52.6"/><path fill="#fff" d="M225.35 90.85q.55-2.85 1.5-5.75 1.9-5.8 3.85-6.2 2.05-.45 4.85 3.9 2.4 3.7 2.75 5.8.2 1.2-6.35 1.85l-6.6.4m61.5-1.85l2.2-4.65q2.7-4.6 5.05-4.2 2.4.4 3.65 5.9l.75 5.45-11.65-2.5"/><path fill="#0d131a" d="M372.2 132.6q7-13.4 7-27.85 0-43.6-31.1-68.25t-86.15-24.65q-52.7 0-82.5 24.85-29.75 24.9-29.75 68.9 0 14.75 6.65 28.1 6.95 14.05 20.4 24.55 30.65 24.05 85.2 24.05 56.45 0 88.85-24.75 14.05-10.75 21.4-24.95m11.75-27.85q0 15.25-7.3 29.4-7.75 14.95-22.4 26.3-33.75 26.1-92.3 26.1-56.65 0-88.5-25.35-13.95-11.1-21.25-25.95-6.9-14.1-6.9-29.65 0-45.2 31.35-71 31.2-25.7 85.3-25.7 57.3 0 89.55 25.1 32.45 25.3 32.45 70.75"/><path fill="#0d131a" d="M367.55 103.05q0 13.5-7.75 27.05t-21.7 24.4q-14.6 11.35-33.4 17.7-20.25 6.8-42.75 6.8-49.6 0-77.7-26.95-11.35-10.9-17.35-24.75-5.4-12.4-5.4-24.25 0-31.65 23.9-54.6 9.9-9.5 21.75-15 11.3-5.25 20.95-5.25l.9.2q10.15 5.7 21.15 10.85 9.7 4.55 11.8 4.95 2-.15 13.35-4.65Q287.05 34.85 300 29l.85-.15q8.6 0 19.7 5.2 11.8 5.5 21.9 14.85 25.1 23.15 25.1 54.15m-12 25.5q7.65-12.85 7.65-25.5 0-29.7-24.15-51.9-9.5-8.7-20.5-13.95-10.1-4.8-17.35-4.9l-21.4 8.8q-15.4 6.1-17.85 6.1-1.65 0-12.75-5.15-6.65-3.1-21.55-10.4-10.55.1-21.65 5.8-10.95 5.6-19.95 15.35-9.4 10.15-14.65 22.65-5.7 13.45-5.7 27.6 0 11.15 5.15 22.9 5.8 13.05 16.65 23.3 26.95 25.45 74.45 25.45 21 0 40.25-6.45 17.95-5.95 32.1-16.7 13.6-10.3 21.25-23"/><path fill="#0d131a" d="M192.9 67.55q-3.25.8-3.55-.3Q189 66.2 192.1 65q9.4-3.6 23.45-4.4 14.1-.8 22.25 1.9 3 1 2.8 2.1-.2 1.1-3.25.4-8.9-1.95-20.7-1.2-11.25.7-23.75 3.75m139.05-3.15q2.35 1.6 1.6 2.75t-3.1-.45q-5.5-3.7-21-4.65-15.55-1-25.65 1.7-2.05.55-2.35-.65-.35-1.2 1.7-1.85 11.1-3.55 26.55-2.5 15.35 1.05 22.25 5.65M297.4 90.1q2.65.85 2.5 2-.15 1.1-2.8.45-11.3-2.65-32.85-2.75-21.5-.15-37.65 2.35-2.45.4-2.8-.65-.35-1 2.05-1.55 14.8-3.7 37.15-3.7 22.6 0 34.4 3.85"/><path fill="#0d131a" d="M231.25 80.9q-1.2.25-2.6 3.6-1.45 3.4-1.25 5.9-2.75 1.4-2.8.2-.2-3.05 1.1-7.35 1.6-5.2 4.2-6.15 2.45-.9 6.05 4.05 3.15 4.35 3.7 7.25.15.85-1.3 1.25-1.5.35-1.65-.5-.5-2.8-2.35-5.65-1.85-2.8-3.1-2.6m63.8-3.05q2.5.65 3.7 5.45.85 3.55.85 8.35l-1.35.05q-1.35-.75-1.3-1.45.25-2.05-.75-4.95-1-3-2.3-3.15-1.25-.3-3.2 2-1.95 2.3-2.8 5.1-.25.85-1.4.85-1.1 0-.95-.9.8-5.05 4.2-8.65 3.1-3.25 5.3-2.7"/><path fill="#006a6b" d="M118.65 154.85L137.6 269.2q-6.8 5.85-26.25 17.45-21.35 12.7-35.7 18.7-19.8 8.25-33.7 9.9-18.8 2.2-24.2-8.2-10.7-20.6-2.85-43.6 6.9-20.4 30.35-47.55 14.7-17 37.8-35.45 17.75-14.2 35.6-25.6m319.6 23.5q25.2 19.85 40.1 37.55 23.3 27.7 30.7 45.3 10.75 25.6-2.8 44.5-9.75 13.65-33.6 8-8-1.9-18.05-6.1l-12.95-5.7q-8.55-3.55-26.25-14-16.7-9.85-29.95-18.85l16.45-116.2q16.65 9.95 36.35 25.5"/><path fill="#005454" d="M137.2 238.05q2.55 3.55 3.65 10.55 1.2 7.3 0 13.5-1.35 7.2-5.55 10-62.15 41.25-88.05 42.7-16.3.9-22.5-3.35-1.95-1.3-2.7-3l-.3-1.4q20.85-10.25 45-24.15 48.35-27.75 65.1-45.8 2.65-2.85 5.35.95m243.6 3.45q2.55-1.95 8.5 3.85 12.9 12.65 63.35 40.25 25.2 13.85 47.85 25.1-5.2 3.35-13.65 3.7-11.65.5-28-4.85-15.75-5.2-42-20.45-19.15-11.15-28.35-17.8-3-2.15-5.75-8.9-2.65-6.45-3.35-12.55-.75-6.65 1.4-8.35"/><path fill="#0d131a" d="M401.5 154.55q-7.85-4.4-7.1-5.35.75-.95 9 2.8 31.85 14.55 66.3 49.9 15.95 16.3 27.15 32.35 11.75 16.9 15.9 30.1 3.6 11.4-.55 27.8-4.2 16.65-12.4 21.75-11.05 6.8-31.65 2.1-33.3-7.6-82.65-44.6-5.85-4.4-4.8-5.85 1-1.5 7 2.65 50.5 34.75 82.2 42.8 19.25 4.85 27.85-.45 6.6-4.05 9.9-16.6 3.65-13.75.15-28.3-5.9-24.35-42.4-60.8-15.55-15.55-32.85-29.1-17.05-13.4-31.05-21.2"/><path fill="#0d131a" d="M481.25 312.35q2-1 4.7-.8 2.6.2 4.35 1.45l1.35 1.1q.55.65.45 1.35-.5 3.55-3.55 7.15-2.55 3.1-3.55 3.1-2.4 0-4.45-4.5-1.6-3.6-1.6-5.45 0-2.2 2.3-3.4"/><path fill="#fff" d="M484.7 314.8q3 .1 3.65 1.25.6 1.05-1.35 3.75-1.85 2.5-2.7 2.65-.6 0-1.95-2.85-1.45-2.95-1.05-3.85.4-1.05 3.4-.95"/><path fill="#0d131a" d="M500.65 305.75l3.2.2q1.15.6 1.55 1.85 1.4 3.6 1.5 7.95.05 4.45-1.35 5.4-2.15 1.4-6.75-1.55-4.65-3-5.15-6.25-.45-2.5 2-4.85 2.1-1.95 5-2.75"/><path fill="#fff" d="M502.35 309q1.05.15 1.55 4.85.45 4.6-.3 5.15-.7.45-3.6-2-3-2.55-3.05-3.85-.05-1.3 2.1-2.85 2.05-1.5 3.3-1.3"/><path fill="#0d131a" d="M507.75 295.75q2.45-.95 4.5.75 2.7 2.1 4.6 7.35 1.9 5.3.5 6.7-1.2 1.2-5.85.4-4.9-.8-8-3.15l-1-.9q-.4-.55-.4-1.4l.05-.95q.35-2.5 1.75-4.95 1.65-2.95 3.85-3.85"/><path fill="#fff" d="M509.8 299.55q1.1.1 3.5 4.25 2.45 4.1 1.9 4.95-.45.8-4.65-.9-4.1-1.65-4.55-2.5-.5-1 .85-3.45 1.45-2.55 2.95-2.35"/><path fill="#0d131a" d="M508.8 286.15q1.8-1.4 4.15-.4 3.55 1.55 6.75 6.25 3.25 4.7 2.1 6.5-.85 1.3-3.85 1.55-3.8.35-8.95-1.6-2-.8-2.5-4.05l-.1-1.8q0-4.65 2.4-6.45"/><path fill="#fff" d="M510.8 288.8q1.3-.55 5 3.05 3.6 3.55 3.6 5.05 0 1.25-4.5.45-4.45-.8-5-2.05-.55-1.3-.3-3.65.25-2.45 1.2-2.85"/><path fill="#0d131a" d="M507.55 281.4l.2-2.4q.45-2 1.65-3.1 1.2-1.05 2.8-.9 3.2.25 8.25 5.45 5.1 5.25 3.35 7.15-1.25 1.35-6.6 1.3l-6.65-.8q-1.5-.55-2.3-2.6-.7-1.8-.7-4.1"/><path fill="#fff" d="M511.95 278.1q1.15-.55 4.9 3 3.65 3.45 3.5 4.45-.15.8-4.05.4-3.7-.4-4.8-1.1-1-.65-.85-3.4.15-2.75 1.3-3.35"/><path fill="#0d131a" d="M126.2 151.5q.85.5-3.75 3.05-14 7.8-31 21.2-17.3 13.55-32.85 29.1-36.5 36.45-42.4 60.8-3.8 15.85-1.15 27.75t11.15 17.15q8.65 5.3 27.9.45 31.65-8.05 82.2-42.8 5.65-3.85 6.65-2.4 1 1.5-4.45 5.6-41.3 31.15-73.75 41.6-27.6 8.85-40.55.9-10-6.15-13.1-22.6-2.8-14.9 1.25-27.65 9-28.35 42-61.6 32.2-32.45 66.2-48.75 4.8-2.3 5.65-1.8"/><path fill="#0d131a" d="M45.25 311.35q2.5 1.3 2.5 3.7 0 1.55-2.4 5.95-2.6 4.7-4.2 4.7-1.75 0-4.65-3.6-3-3.7-3.45-6.85-.25-1.8 1.45-3.05 2.1-1.45 5.2-1.75 3.25-.3 5.55.9"/><path fill="#fff" d="M40.9 322.75q-.9 0-3-3.35-2.05-3.4-1.65-4.45.4-.95 2.2-1l3.7.3q2.05.3 2.4.85 0 2.2-1.4 5-1.35 2.65-2.25 2.65"/><path fill="#0d131a" d="M23.8 306.2q2.7.7 5.15 2.85 2.9 2.5 2.5 4.8l-.5-.35q-.5 2.95-5.4 6.05-4.85 3-6.6 1.8-1.15-.8-1.1-5.4.05-4.6 1.2-7.75.45-1.25 1.55-1.8l3.2-.2"/><path fill="#fff" d="M22.15 309.2q1.15-.3 3.55 1.3 2.35 1.55 2.65 2.65-.2 1.1-3.3 3.25-3.1 2.1-3.9 1.7-.85-.4-.5-4.45.35-4.1 1.5-4.45"/><path fill="#0d131a" d="M17.3 297.3q2.95 1.15 4.15 5.5 1.15 4.15-.55 5.4-2.5 1.85-7.25 2.9l-6.1-.2q-1.4-1.4.75-6.5 2.05-4.95 4.5-6.95l4.5-.15"/><path fill="#fff" d="M15.1 299.9q1.15-.15 2.65 2.3 1.45 2.4 1.15 3.5-.25 1-4.05 2.05l-4.45.25q-.65-.85 1.4-4.4 2.05-3.55 3.3-3.7"/><path fill="#0d131a" d="M10.7 286.7l1.95-.2q.65.2 1.7 1 3 2.25 2.75 6.05-.2 3.55-2.65 4.5-3.25 1.25-7.35 1.6-4.65.45-5.5-.95-1-1.55 1.8-5.65 3-4.45 7.3-6.35"/><path fill="#fff" d="M12.25 289.45q1.6.55 2 2.25.45 1.7-.65 3.55-.5.85-4.3 1.4l-4.3-.1q-.6-.75 2.35-4.15 3-3.55 4.9-2.95"/><path fill="#0d131a" d="M2.35 280.45q4-5.5 8.3-5.85 3.6-.25 4.05 5.7.45 5.95-3 7.25-2.65 1-5.2 1.35-4 .6-5.65-.8-2.5-2.1 1.5-7.65"/><path fill="#fff" d="M10.65 277.75q.85.85.8 3.3-.05 2.35-.8 3.35-.65.9-4 1.4l-3.75-.15q-.8-1.25 2.05-4.4 2.95-3.2 5.7-3.5"/><path fill="#006a6b" d="M454.05 283.55q0 64-60.7 93.35-48.85 23.6-134.2 23.6-86.95 0-137.35-29.8-51.9-30.65-51.9-85.45 0-39.8 12.1-72.55 12.25-33.15 36-56.75 24.35-24.25 59.35-36.95 36.4-13.2 82.35-13.2 94.9 0 145.5 47.95 48.85 46.35 48.85 129.8"/><path fill="#fdeabe" d="M360.25 125.75q25.7 11.45 39.9 27.45 16.25 18.35 16.25 41.4 0 26.85-17.85 41.55Q384.1 248 365.2 248q-8.7 0-46.65-6.3-38-6.3-56.55-6.3-11.25 0-26.25 2.95-8.3 1.65-27.7 6.5-18.4 4.6-28.7 6.5-16.1 2.95-29.15 2.95-25.8 0-39.25-17.35-10.05-12.9-10.05-28.5 0-23.8 13.15-43.6 12.4-18.65 35.35-32.2 22.05-13.05 51.4-20 28.95-6.85 61.2-6.85 22.9 0 47.8 4.7 28.15 5.3 50.45 15.25"/><path fill="#005454" d="M436 348.8q-15.5 17.9-42.85 30.55-52.45 24.2-131.15 24.2-37.6 0-71.75-6.5-34.85-6.6-61.2-19.05-27.65-13.1-42.55-31.15-16-19.3-16-42.65l2.55 2.55q3.45 3.2 7.9 6.65 14.3 11.05 33.4 20.25 61.15 29.4 147.65 29.4 74.55 0 141.05-28.65 20.8-9 38.25-19.75 8.75-5.35 13.35-8.95-2.05 23.95-18.65 43.1"/><path fill="#0d131a" d="M402.95 370.1q49.75-28.45 49.75-80.25 0-88.05-49.1-135.05-49.1-47.05-141.05-47.05-91.95 0-141 47.05-49.1 47-49.1 135.05 0 51.8 49.75 80.25 49.75 28.45 140.35 28.45 90.65 0 140.4-28.45m55-80.25q0 53.6-51.45 83.3-51.4 29.65-143.95 29.65-92.55 0-143.85-29.65-51.35-29.7-51.35-83.3 0-89.15 51.15-137.15 50.7-47.55 144.05-47.55 89.3 0 140 43.7 55.4 47.75 55.4 141"/><path fill="#0d131a" d="M403.25 160.55q-11.2-15.8-32-27.75-20.75-11.95-48.25-18.4-28.4-6.65-60.45-6.65-29.4 0-57.1 6.25-29.1 6.55-51.35 18.9-24 13.35-37 31.8-14.25 20.15-14.25 44.9 0 16.9 11.75 28.7 13.4 13.5 36.75 13.5 10.4 0 55.05-9.15 44.6-9.2 55-9.2 13.35 0 53.5 6.3t47.45 6.3q24.15 0 39.05-16.15 13.45-14.6 13.45-34.65 0-18.4-11.6-34.7m-78.7-48.25q28.35 6.5 49.6 18.6 21.4 12.15 32.95 28.35 11.9 16.8 11.9 36 0 21.65-14.6 37.85-16.2 17.9-42.05 17.9-10.9 0-48.6-7.05-37.65-7.05-52.35-7.05-11.45 0-54.8 9.7-43.4 9.7-55.25 9.7-25.2 0-39.9-15-12.95-13.25-12.95-31.7 0-23 12.1-42.5 11.75-18.95 33.8-32.85 21.95-13.8 51.85-21.15 30.55-7.5 66.3-7.5 32.95 0 62 6.7"/><path fill="#fdeabe" d="M43.7 378.95q-4.75-10.85-4.75-21.45 0-34 23.15-53.8 22.2-19 58.3-19 28 0 46.35 20.95 8 9.1 12.4 20.65 4.3 11.25 4.3 22.6 0 11.7-4.5 23.6-4.8 12.8-13.7 22.85-21.35 24.1-56.9 24.1-30.5 0-50.9-20.55-8.85-8.85-13.75-19.95m370.25-98.85q31.6 0 51 16.2 20.65 17.3 20.65 48.05 0 13.1-5.45 26.45-5.5 13.55-15.4 24.4-22.7 24.8-55.4 24.8-28.75 0-47.2-20.85-7.9-9-12.25-20.35-4.2-10.95-4.2-21.85 0-36.65 20.95-57.75 18.9-19.1 47.3-19.1"/><path fill="#dacaa5" d="M43.7 365.65q6.9 3.55 14.85 6.5 25.35 9.45 51.5 9.45t52.55-13.2q13.2-6.6 21.15-13.2 0 7.95-4.45 18.25-5 11.55-13.7 21.2-22.45 24.8-57.25 24.8-33.65 0-54.55-24.75-7.4-8.7-11.8-19.05-3.6-8.35-3.6-12.95l5.3 2.95m301.85-18.45l2.6 4.4q3.7 5.25 9.15 9.65 17.45 14.05 45.75 14.05t57.7-7.45q14.7-3.7 23.7-7.45 0 8.1-5.6 18.25-5.8 10.5-15.6 19.5-23.8 21.85-53.9 21.85-34.75 0-51.15-24.65-12.65-18.9-12.65-48.15"/><path fill="#0d131a" d="M446.5 287.65q-11.55-4.2-25.05-5-13.25-.8-25.3 1.9-12.4 2.75-20.65 8.6-11.4 8.1-18.8 23.45-7.35 15.3-8.35 32.9-.9 16.25 4.15 30.15 5.05 13.9 15.15 22.85 7.7 6.85 18.3 10.9 11.75 4.5 24.35 4.45 30.8-.2 56.1-26.7 7.85-8.25 12.45-20 4.6-11.65 5.05-24.35.95-28.55-17.45-46.95-7.65-7.65-19.95-12.2m4.7-3.2q11.6 4.75 18.3 11.45 9.8 9.8 14.65 23.45 4.5 12.7 4.2 27-.3 13.75-4.95 26.4-4.7 12.7-12.85 21.6-10.9 11.9-25.15 18.8-13.7 6.65-28.65 7.85-14.8 1.25-28.5-3.05-14.1-4.4-24.9-14-9.6-8.5-14.8-23.65-5.15-14.95-4.55-31.8.65-17.7 7.55-32.65 7.65-16.4 21.55-26.25 21.25-15.05 52.85-11.5 13.5 1.5 25.25 6.35m-413.55 84.4q-3.15-14.1 0-28.95Q40.7 325.6 48.8 314q8.25-11.85 19.7-17.95 29.7-15.85 57.85-13.45 28.15 2.35 44.5 22.2 10.05 12.2 13.35 27.8 3.05 14.5-.15 29.75-3.1 14.75-11.4 27.15-8.45 12.6-20.4 20-9.75 6.05-22.6 9-13.35 3.05-27 2.05Q70.7 418.2 51.35 396q-10.3-11.8-13.7-27.15M71.2 299.8q-10.95 5.85-18.6 17.1-7.65 11.25-10.25 25.35-2.65 14.6.85 28.3 3.45 13.7 12.5 24.1 17.65 20.25 47.05 22.4 13.05.95 25.75-2.2 12.65-3.2 22.5-9.85 12.35-8.3 20-20.45 7.7-12.15 9.8-26.55 2-13.8-1.5-26.95-3.55-13.15-11.9-23.3-15.4-18.75-41.6-20.9-26.2-2.2-54.6 12.95"/><path fill="#fff" d="M89.2 258.35q3.25-.55 13.55 6.8 11.3 8.1 14 15.35 1.75 4.75-3.45 11.3-4.25 5.35-8 7.05-3.5 1.6-9.3.9-7-.8-9.05-5.1-2.15-4.5-.8-20.45 1.35-15.6 3.05-15.85"/><path fill="#dbdcdc" d="M86.1 275.35q3.55 6.9 10.15 13.3 7.25 7.1 12.45 7.5l.35.05q-2.25 1.95-3.75 2.65-3.5 1.6-9.3.9-7-.8-9.05-5.1-1.05-2.2-1.25-7.85-.15-5 .4-11.45"/><path fill="#fff" d="M35.7 293.85q5.2-1.9 19.1 2.45 13.55 4.25 15.7 7.9 1.8 3.1-.05 10.55-1.6 6.4-3.8 9.7-1.8 2.75-9.85 4.05-8.3 1.35-10.75-1.35-2.75-3.1-7.5-17.7-4.85-14.85-2.85-15.6"/><path fill="#dbdcdc" d="M52.2 315.1q10.3 8.3 15.35 7.85l-.9 1.5q-1.8 2.75-9.85 4.05-8.3 1.35-10.75-1.35-2-2.25-5.7-12.5-3.7-10.15-4.85-16.45 7.35 9.35 16.7 16.9"/><path fill="#fff" d="M16.2 360.4q0-.7 2-2.9 2.3-2.55 5.35-4.75 8.65-6.35 16.75-5.35 8.25 1 12.35 8.15 3 5.35 2.55 10.2-.45 4.8-2.9 8.35-3.6 5.15-10.1 4.65-6.9-.55-16.75-8.05-9.25-7.05-9.25-10.3"/><path fill="#dbdcdc" d="M26.15 371.2q-8.8-6.5-9.8-10.25 8.05 3.55 18.7 6.1 10.8 2.6 19.25 2.95-1.3 3.95-3.85 6.2-3.3 2.95-8.25 2.55-6.6-.5-16.05-7.55"/><path fill="#76491b" d="M99.25 392.5q-2.75-5.5-3.3-11.5-1.4-14.9 10.65-24.65 11.7-9.4 28.8-9.4 6.4.05 11.65 1.4 4.8 1.3 6 2.85 8.75 11.6 5.9 24.2-2.45 10.75-12.15 19-8.75 7.45-21.5 9.5-13.1 2.1-19.85-3.4-3.6-2.9-6.2-8"/><path fill="#5c370c" d="M99.25 392.45q-2.75-5.5-3.35-11.55l14.15.7q24.45 0 49.7-11.65-.3 6.4-4.05 13.55-3.65 6.95-8.9 11.4-8.7 7.4-21.5 9.25-13.05 1.85-19.85-3.65-3.6-2.95-6.2-8.05"/><path fill="#76491b" d="M401.15 395.7q-16.6 1.3-24.5-8.2-7.7-9.25-6.35-22.6 1.15-11.15 6.35-16.35 8-8 24.75-7.05 7.15.4 12.8 2.6 5.85 2.25 7.95 5.6 5.45 8.65 7.05 19.35 1.95 13.05-4.75 18.45-8.75 7.05-23.3 8.2"/><path fill="#fff" d="M418.15 265.75q13.15-11.5 15.45-10.5 2.3 1.05 1.95 17.95-.35 16.05-1.55 18.75-.9 2.15-7.05 2.55-6.4.45-10.55-1.75-5.2-2.8-9-6.55-4.6-4.45-3.2-6.85 1.55-2.75 13.95-13.6"/><path fill="#dbdcdc" d="M434 291.95q-.9 2.15-7.05 2.55-6.4.45-10.55-1.75l-2.9-1.75q7.4 2.5 14.35-8.65 5.95-9.6 7.3-20.2l.2-.15q.5 7-.05 18-.6 10.3-1.3 11.95"/><path fill="#fff" d="M455.8 292.35q2.5-2.85 16.45-6.15 13.85-3.3 15.25-1.5 1.05 1.3-5.9 15.95-6.8 14.35-8.25 15.4-1.1.85-7.2-1.45-5.95-2.3-9.2-4.65-3.1-2.3-3.45-8.55-.35-6.15 2.3-9.05"/><path fill="#dbdcdc" d="M481.6 300.65q-6.8 14.35-8.25 15.4-1.1.85-7.2-1.45-5.95-2.3-9.2-4.65-1.6-1.15-2.45-3.6l2.05 1.3q7.3 5.35 17.9-5.6 4.1-4.2 13.05-17.35 1.05 1.3-5.9 15.95"/><path fill="#fff" d="M478.45 341.8q2.4-5.1 4.85-5.1 2.45 0 13.45 4.9 11.4 5.1 11.4 6.95 0 1.85-9.6 7.55-9.35 5.5-12.2 5.8-2.5.3-6.1-4.2-3.55-4.35-3.85-7.65-.3-3.4 2.05-8.25"/><path fill="#dbdcdc" d="M481.65 359.3q-2.6-2.65-4.2-5.95l15.5-2.15 15-3.1.2.45q0 1.85-9.6 7.55-9.35 5.5-12.2 5.8-1.9.2-4.7-2.6"/><path fill="#5c370c" d="M401.15 395.7q-16.6 1.3-24.5-8.2-6.35-7.55-6.5-18.3 14.6 6.1 32.9 6.1l26.5-1.65q.25 9.55-5.1 13.85-8.75 7.05-23.3 8.2"/><path fill="#0d131a" d="M378.6 385.95q8.4 8.35 21.75 8.15 13.3-.15 23.2-8.8 4.55-4 4.4-13.3-.1-6.55-2.65-12.8-2.5-6.3-6.3-9.35-7.25-5.9-17.9-6.7-11.55-.85-20.5 5.1-3.8 2.55-6.1 6.65-2.3 4.15-2.85 9.35-.6 6.1 1.3 12t5.65 9.7m-.8-42q9.95-6.6 23.3-5.15 12.05 1.3 20.35 8.05 9.35 7.6 11.2 21.6 1.9 14.15-5.9 21-10.65 9.3-25.85 9.15-15.3-.15-25.05-9.9-9.45-9.45-8.5-24.1.9-14.3 10.45-20.65m56.35-73.2q0-10.45-.8-13.65-3.75 1.5-14.15 9.85-10.5 8.45-12.8 11.95-.55.75-.55 1.7l.2 1.25q.75 2.4 3.85 5 3.05 2.55 7 4.05 5.65 2.2 10.45 1.85 4.5-.3 5.45-2.5.6-1.45 1-7.4.35-5.5.35-12.1m-4.8-16.05q4.65-2.6 6-2.05 1.3.55 2.15 5.25 1.15 6.65.4 19.8-.65 11.95-1.6 14.15-1.75 4-7.7 4.95-6.1.95-13.25-1.8-7.2-2.75-10.9-8.35-3.75-5.75-.85-10.1 2.25-3.3 10.65-10.6 9.05-7.9 15.1-11.25m56.5 30.85q-4.2.1-15.2 3-11.05 2.95-12.8 4.5-2.5 2.15-2.6 5.8v.15q0 2.85 1.5 5.95 1.55 3.05 4.2 5.45 2.4 2.25 6.85 3.5 4 1.15 5.2.55 1.7-1.8 6.85-13.25 5.25-11.65 6-15.65M454.8 290q1.85-1.6 10.65-4.25 8.85-2.65 15.65-3.6 6.8-.95 8.2.15 1.3 1.1-.1 6.1-1.95 6.85-6.65 17.45-4.95 11-6.85 12.25-2.45 1.65-8.6-.05-5.95-1.65-9.15-4.55-6-5.5-6.55-13.1-.55-6.95 3.4-10.4m28.3 48.65q-1.75.15-3.35 3.85-1.65 3.85-1.4 7.85.25 3.7 2.75 6.55 2.4 2.7 4.9 2.7 2.2 0 10.2-4.5 7.95-4.45 10.3-6.9-3.05-2.2-11.9-5.95-9.25-3.85-11.5-3.6m-6.8 1.6q2.65-5.15 6.45-5.5 3.4-.35 14.9 4.55 11.7 4.95 13 7.6.7 1.25-.25 2.7-1.85 3.05-11.45 8.45-9.55 5.45-12.95 5.45-4.25 0-7.9-3.95-3.75-4-4.05-9-.35-5.35 2.25-10.3m-369.05 18.2q-9.1 7.3-9.95 18.2-.8 9.85 5.15 18.15 4.85 6.75 17.15 6.9 12.55.2 22-6.75 12.75-9.4 15.9-18.7 3.2-9.3-2.7-19.9-2.1-3.8-7.45-5.9-5.25-2-12.15-1.9-15.8.2-27.95 9.9M92.5 376.1q1-13.35 11.65-21.85 12.1-9.7 30.05-9.9 8.3-.1 14.5 2.4 6.7 2.65 9.5 7.7 6.7 12 3.2 22.65-3.5 10.7-17.5 21-10.2 7.45-23.3 7.4-13.55-.1-21.3-8.45t-6.8-20.95m-2.65-115.6q-.75 2-1.45 8-.7 6.45-.7 12.5 0 9.5 1.8 12.75 1 1.65 6.65 2.7l9.95-.35q3.5-1.35 6.65-5.8 2.85-4.1 2.85-6.55l-.05-.55q-2.45-8.55-12.8-16.1-8.4-6.15-12.9-6.6m-2.1-3.55q1.7-.95 6.25.75 4.65 1.8 9.75 5.4 13 9.1 16.05 19.8 1.05 3.7-3.2 9.7-4.2 5.95-9.05 7.8-5 1.95-12.45.4-7.4-1.55-9.25-4.8-2.85-5-2.05-21.15.85-16.15 3.95-17.9m-53.7 35.9q3.5-3.55 17.4-.35 14.2 3.25 20.55 9.6 2.95 2.95 1.3 12.65-1.7 9.95-6.25 12.95-5.1 3.4-12.6 3.45-7.4.05-10.25-3.2-2.35-2.7-7.3-16.95-5.45-15.55-2.85-18.15m6.25 2.05q-2.15 0-3.25.55l-.05.3q0 3.55 3.8 15.2 3.85 11.75 5.75 13.95 1.7 1.95 7.4 1.8 6.1-.2 10.25-2.95 1.9-1.25 3.35-4.4 1.5-3.2 2.1-7.15.35-2.65.2-4.75-.15-1.7-.5-2.15-3.5-3.5-13.15-6.95t-15.9-3.45m-8.55 56.9q-8.35 3.25-12 6.75-1.8 1.7-1.7 2.85.25 3.75 9.1 9.2 8.5 5.25 13.6 5.6 5.5.4 9-3 3.15-3 3.75-7.75l.05-1.55q0-2.55-.9-5.1-.95-2.65-2.6-4.75-3.45-4.4-8.25-4.95-2.5-.25-10.05 2.7m-6.45 22.15q-10.75-6.5-11.15-12.3-.35-5.1 11.3-11.25 11.05-5.85 17.05-5.2 5.8.65 11.05 6.35 5.8 6.4 4.9 13.7-.85 6.8-5.75 11.1-5 4.35-11.55 3.85-6.25-.45-15.85-6.25"/></svg>