<svg xmlns="http://www.w3.org/2000/svg" width="526" height="519" viewBox="-0.35 -1.4 525.85 518.95"><path fill="#0d131a" d="M420.55 445.7q.35 2.5-.3 5-.65 2.5-2.05 4.05-1.7 1.95-3.9 1.85-2.35-.05-6.4-1.2l-7.65-2.6q-7.05-2.5-9.55-2.95l-10.15-.75-10.6.4-2.4.15-9.15-9.8 3.85-1.55q6-1.7 16.75-2.2l9.25-1.25 9.4-.8q4.85.3 12.6 3.45 9.65 3.85 10.3 8.2"/><path fill="#b6aed1" d="M408.35 452.85l-7.25-2.45q-7.85-2.7-9.95-3.05l-10.5-.75-10.8.35-1.25.1-7.75-8.3q4.5.55 10.05.25l9.8-1 7.7-1.35 7.8-.6q4.4.3 12.4 3.55 9 3.6 9.4 6.5.3 1.9-.15 3.85-.5 1.95-1.55 3.1-.9 1.05-1.95 1.05-2.1-.05-6-1.25"/><path fill="#9b94b3" d="M417.85 449.7q-.4 2.1-1.55 3.35-.9 1.05-1.95 1.05-2.1-.05-6-1.25l-7.25-2.45q-7.85-2.7-9.95-3.05-6.5-1.2-18.8-.5 2.2-2.3 8.85-3.25 10.45-1.6 21.3.85 6.75 1.5 15.35 5.25"/><path fill="#0d131a" d="M332.8 372.75l1.25 1.4-.55 3.65q-.45 1.95-.35 2.85.15 1.3 1.25 3.15l4.6 8.35q12.25 22.75 15.45 28.2 10.5 17.8 15.2 19.8 3.65 1.6 7.15 2.3l7.5.85 10.35 1q7.15.45 13.3 3.1 6.85 3 11.15 8.2 4.45 5.35-1.25 12.2-1.9 2.3-4.5 3.1l-4.55-.2q-2.7-1.55-7.1-5.05-3.15-2.5-4.7-3.55-2.7-1.8-5.15-2.65-3.65-1.3-7.85-1.95l-7.9-.8.8.6q6.15 4.95 8.7 7.65 4.45 4.75 4.45 8.4l-.2 1.4q-1.25 5.2-12.35 7.45-5.65 1.15-9.45-3.65-2.25-2.8-5.3-10.55-2.65-6.8-4.5-9.25-3.95-5.05-6.1-5.55-2.95-.7-11.7 2.45-5.85 2.05-10.6 1.2-4.6-.8-7.8-4.2-3.85-4.05-1.15-10.2 1.5-3.45 4.6-4.4l6.2-.45 2.4.65h1.65l11.2-1q-4.7-13.55-21.2-38.6-1.35-2-4.1-5.1l-3.3-3.35q-1.7-1.7-1.95-2.95-.05-.45.25-1.4l.3-1.3q0-1.75.85-4.95l1.15-2.15q.8-1.25.8-2.35l-.55-.5-.55-.5 1.25-1.35h12.9"/><path fill="#b6aed1" d="M331.3 375.3l-.3 2-.4 2.9q0 2.15 1.6 4.9l4.6 8.25q11.25 20.85 17.75 31.1 9.5 15.05 14.55 17.2 3.75 1.6 8.7 2.3l8.85.8 2.4.15q6.95.45 15.15 3.7 9.1 3.55 12.95 8.2.95 1.1 1.05 2.75v2.5q0 1.25-.9 2.5l-1.4 1.6q-1.25 1.55-3 2.25l-2.85.1q-2.1-1.15-6.75-4.8-4.2-3.35-10.4-5.55-10-3.5-18.2-4.1l-3.3-1.95-1.95-.2 6.45 6.85q5.05 4 8.1 7.65 4.1 4.85 3.4 7.75-.85 3.65-10.4 5.55-4.3.85-7.1-1.9-2.55-2.4-5.15-9.1l-2-6.1q-1.3-3.85-2.5-5.4-4.1-5.2-9.35-5.9-4.35-.55-11.3 1.95-4.3 1.55-8.7 1.35-4.75-.2-6.9-2.5-1.3-1.4-1.55-3.9-.2-2.45.75-4.7 1.1-2.5 2.7-3.25 1.45-.7 5-.6l3.3.55h.45l10-.65q6.5-.7 6.55-1.6.05-.8-1.3-1.05l-1.4-.05q-2.9-9-9.7-21.4-4.95-9.1-10.95-18.2l-4.3-5.35-2.55-3.1q-1.2-1.55-1.35-2.5l-.15-1.75q0-1.6.75-4.3.8-2.75.85-4.95 1.7-2.1 5.35-1.3l4.85 1.3"/><path fill="#9b94b3" d="M350.2 436.95l-1.15-.1h-.55q-2.85-9-9.65-21.35-4.95-9.1-10.95-18.15 6.3 5.9 13.3 18.95 6.1 11.35 9 20.65m64.55 30.35q-1.2.95-2.5 1.3l-2.2-.1q-2.1-1.15-6.75-4.8-4.2-3.35-10.4-5.55-10-3.5-18.2-4.1l-3.3-1.95q8.95-.6 20.05 2.55 14.3 4.05 23.3 12.65m-52-4.7q-1.3-3.85-2.5-5.4-4.1-5.2-9.35-5.9-4.35-.55-11.3 1.95-4.3 1.55-8.7 1.35-4.75-.2-6.9-2.5-.95-1-1.35-2.8l5.05.15 3.2.15 5.5.5 6.5-.2 6.55-.7q4.4-.15 6.1.7 2.1 1 4.95 4.15 3.1 3.4 4.25 6.3 1.85 4.9 4.8 10.05 4 6.95 6.25 6.7l10.35-1.05q-2.45 2.3-9.15 3.65-4.3.85-7.1-1.9-2.55-2.4-5.15-9.1l-2-6.1"/><path fill="#0d131a" d="M315.55 454.55q-2.25.85-2.5.25-.3-.65 1.4-3.95 1.55-2.95 5-5.45 3.7-2.7 6.75-2.55 2.85.15 4.35 2.55 1 1.65 1 3.45l-.3 1.7q-.4.6-1.35.55-4.35-.25-14.35 3.45"/><path fill="#fff" d="M319.8 447.2q3.35-2.65 6.3-2.5 1.85.15 2.85 1.75.7 1.1.85 2.65-7.15.75-15.1 4.85 1.65-4.05 5.1-6.75"/><path fill="#0d131a" d="M374.9 475.8q1.05-2 2.75-3.3 2.85-2.25 6.2-.95 1.95.75 3.65 3.6 1.15 2 1.85 4.2 2.6 8.3.2 12.9-.65 1.2-1.1 1.15-.6-.05-1.3-1.7-2.1-4.25-4.45-7.1-2.75-3.3-7.05-6.2-.6-.4-.85-1.05-.3-.8.1-1.55"/><path fill="#fff" d="M383.15 473.35q1.1.4 2.35 2.25 1.2 1.8 2.1 4.4 1.4 4.05 1.4 8.1 0 1.8-.4 3.4-2.1-4.35-5.25-8.35-3.55-4.5-6.9-6.35 1.3-1.75 2.7-2.7 2.15-1.45 4-.75"/><path fill="#0d131a" d="M409.15 464q1.7-3.85 6.45-3.3 3.3.35 5.05 5.15 2 5.1-1.25 10.95-1.35 2.45-1.85 2.5-.55 0-1.2-2.5-.8-2.95-2.55-5.65-1.85-2.9-4.2-4.4-1.25-.85-.45-2.75"/><path fill="#fff" d="M414.85 462.2q1.05.25 2.15 1.3 1.2 1.2 1.9 3 .65 1.95.65 3.75 0 3.1-1.75 6.4-.85-3.3-2.85-6.4-2.15-3.5-4.65-4.95 1.95-3.75 4.55-3.1"/><path fill="#0d131a" d="M414.5 449.6q.3-2.5 1.2-3.75 1.85-2.6 6.25-1.3 3.6 1.05 5.7 3.95 2.65 3.6 2.15 9.1-.15 1.65-1.3 1.1l-4.15-2.5q-4.35-2.5-7.2-3.15l-2.2-.5-.4-1.1-.05-1.85"/><path fill="#fff" d="M422.9 446.8q2.3 1.3 3.95 3.95 1.95 3.2 1.25 6.2-5.7-4.25-11.95-6 .15-3.55 1.2-5l2-.15q2 .2 3.55 1"/><path fill="#dbdcdc" d="M314.7 453.95l.45-1 6.05-4.8q3.45-2.35 6.95-2.6 1.4 1.15 1.65 3.55-7.15.75-15.1 4.85m61.75 22.85q1.7-2.3 3.55-3.2 6.5 7.45 8.2 17.05-2.2-4.25-5.15-7.9-3.4-4.2-6.6-5.95m36.6-14.5q3.05 2.35 4.1 6.4.75 2.8.7 7.85l-.05.1q-.85-3.3-2.85-6.4-2.15-3.5-4.65-4.95 1.25-2.35 2.75-3m3.75-15.3q7.55 1.4 11.3 9.65v.3q-5.7-4.25-11.95-6 .1-2.45.65-3.95"/><path fill="#0d131a" d="M250.8 379.15q6.05-.55 10.1-.25 5.85.45 6.55 2.7.5 1.55-1.5 4.7-1.55 2.45-6.6 8.8-5.05 6.35-6.4 8.65-1.7 2.9-3.5 9.25-1.05 3.65-2.85 11.4l-1.7 7.1q-2.65 9.45-1.05 12.4 1.4 2.55 3.9 3.7 2.5 1.15 5.6.6 4.75-.8 12.8.35 8.3 1.2 11.15 3.3 1.25.9 1.4 2 .45 3.1-1.05 7.1-1.1 2.95-2.9 5.55-1.1 1.65-2.35 2.1l-1.05.15-.4.15-3.95.2-5.65-.55-8-1.6q-4.75-.95-5.45.05-1.85 2.5-3.4 7.5-1.75 5.55-1.4 9.35l.1 1.5q.6 6.15.4 9.65-.25 5.05-2.15 7.05-1.3 1.35-4.45 2.35-3.55 1.15-7.2.95-6.95-.45-11-5.85-1.5-2.05-1.5-5.05 0-3.35 2.1-9 1.15-3.15 1.95-6.95.6-2.9 1.25-4.8-9.7 6.15-13.8 9.9-1.1 1-3.7 4.6-2.4 3.4-4.4 4.9-2.6 2-6.25 1.8-3.5-.15-7.1-2.25-2.7-1.6-4.45-3.8-1.95-2.45-1.95-4.85 0-1.05.35-1.95 1.4-3.6 7.25-8.65 5.4-4.75 12.75-9.1-2.05.8-12.5 6.4-7.5 3.9-12.2 5.35-2.6.85-5.35 1-4.35.3-7.15-1.5-2.8-1.8-3.25-5.25-.7-4.85 2.3-8.45 4.35-5.35 16.55-7.95 6.95-1.45 19.25-2.3l4-.3q8.7-.7 11.75-2 4.35-1.8 8.25-7.75 8-12.15 11.55-22.15 2-5.65 3.05-12.85l.05-3.05q-.05-1.8.25-2.55.7-1.6 2.6-3.7l3-3.45q2.95-4.1 4.1-6.35 1.95-3.65 2.15-7.1l.05-1.1 1.05-.1"/><path fill="#b6aed1" d="M245.55 395.25q2.8-3.9 4.05-6.35 1.95-3.75 2.4-7.3 4.75-.35 8.6-.15 3.85.25 4.45.95 0 1.5-7.65 11.15-5.2 6.45-6.65 8.95-1.8 3.1-3.65 9.65-1.1 3.75-2.95 11.7l-1.7 6.95q-1.75 6.55-1.75 9.8 0 2.8.95 4.5 1.75 3.25 5.05 4.75 3.25 1.55 7.1.85 5.15-.85 13.6.65 8.05 1.45 8.8 2.9l.05.65q0 3-1.35 6.7-1.45 4.15-3.3 5l-4.7.3-5.25-.85-10-1.55q-3.95-.55-5.15 1.05-2.15 2.85-4.05 8-2.25 6.15-1.9 10.5l.15 1.55q1.25 12.25-1.1 14.7-.95.95-3.5 1.75-3.1.95-6.15.75-5.8-.4-9.1-4.8-1.35-1.85-.85-5.25.3-2.5 1.8-6.45 1.3-3.6 2-7.25l.9-5.1q.75-3.9 1.75-6.15l-1.25.65q-1.35 1.1-2 3.2-1.6 0-6.4 3.35-4.35 3.05-8.1 6.45l-4.4 4.5-5 4.75q-2.05 1.6-5.05 1.45-2.85-.1-5.65-1.7-2.3-1.35-3.8-3.25-1.85-2.4-1.1-4.25 1.5-3.95 8.8-10.05 6.2-5.25 11.95-8.45 1.9-1 1.7-1.75-.2-.7-1.65-.45-4.6.6-9.05 2.4-2.8 1.15-7.8 3.8l-5.55 2.75-6.25 2.45q-2.8.85-5.4.9-3.1.1-4.95-1.1-1.85-1.2-2.15-3.5l-.1-1.4q0-2.9 1.85-5.1 3.9-4.8 15.6-7.15 6.7-1.35 18.45-2.15l4.05-.3q9.1-.8 12.5-2.2 5.05-2.15 9.35-8.7 8.2-12.45 11.9-22.95 2.1-5.9 3.1-13.1.45-3.25.9-4.2 1.15-2.8 4.6-7.45"/><path fill="#9b94b3" d="M175.85 473.65q-3.9 1.25-7.4.8l2-3.35q3.9-.7 11.45-3.25 7.3-2.5 10.05-4 2.6-1.4 5.25-1.75 2.6-.35 6.45.15l.35.05q-4.4.65-8.75 2.45-2.75 1.15-7.6 3.7l-5.55 2.75-6.25 2.45m72.45-11.7l12.45.4 11.95 1.1 1.45-.05q-1.2 2.55-2.55 3.2l-4.7.3-5.25-.85-10-1.55q-3.95-.55-5.15 1.05-2.15 2.85-4.05 8-2.25 6.15-1.9 10.5l.15 1.55q1.25 12.25-1.1 14.7-.95.95-3.5 1.75-3.1.95-6.15.75-5.8-.4-9.1-4.8-1.5-2-.7-6.25 1 2.8 2.75 4.55 2.25 2.2 5.45 2.35 4.5.2 7.25-2.1 2.55-2.15 2.55-5.2l-.25-6.9q-.15-4.4.25-5.75 1.2-4 3.4-8.5 3.5-7.05 6.75-8.25m-59.7 28.5q-2.25-1.35-3.65-3.1 5.45-3.05 9.2-3.25 3.65-.25 8.2-2.45 4.2-2 7-4.55 6.1-5.5 16.1-8.8-1.55.95-2.25 3.35-1.6 0-6.4 3.35-4.35 3.05-8.1 6.45l-4.4 4.5-5 4.75q-2.05 1.6-5.05 1.45-2.85-.1-5.65-1.7"/><path fill="#0d131a" d="M164.75 467.1l3.75-.15q2.95 1.35 4.35 6.6l.2.65-.55.35q-8.7 6.5-12.25 12.15-.95 1.55-1.45 1.05-.5-.4-1.05-2.85-1.7-7.2 1.45-12.45 2.1-3.55 5.55-5.35"/><path fill="#fff" d="M164.75 478.4q-3.25 3.25-5 6.9-.8-2.25-.8-4.05 0-2 .65-4.25.85-2.7 2.5-5 1.65-2.25 3.5-3.2l2.1-.15q1.95.9 3.15 4.8-4 2.9-6.1 4.95"/><path fill="#0d131a" d="M187.15 480.1q3.1-1.55 5.85.4 1.6 1.1 2.7 2.95.45.75.35 1.6-.15.85-.85 1.4-7.4 5.35-11.2 12.4-.7 1.35-1.25 1.15-.55-.25-1.85-2.45-1.9-3.2-.95-8.1 1.15-6.3 7.2-9.35"/><path fill="#fff" d="M185.25 494.55q-1.65 2.35-2.25 3.65-1.8-2.25-1.8-5.2 0-.95.15-1.7.45-3.05 2.35-5.8 1.9-2.75 4.1-3.6 2.45-.9 4.45.45 1.3.9 2.15 2.5-5.7 4.8-9.15 9.7"/><path fill="#0d131a" d="M226.6 491.45l5.75-.15q.75.25 3.75 2 2.7 1.6 1.55 3.1-1.25 1.6-2.75 5.8-1.4 4.05-2.15 7.8l-1.2 5.35q-.7 2.2-1.35 2-.7-.2-3-3.4-2.95-4.1-4.05-7.1-1.8-4.9-.8-10.4.3-1.8 1.6-3.15 1.1-1.2 2.65-1.85"/><path fill="#fff" d="M224.55 500.6q0-2.1.4-3.9.55-2.75 2.35-3.5 3-1.2 8.9 2.15-2 2.65-3.4 7.25-.8 2.65-1.85 7.85l-1.05 4.7q-5.35-7.35-5.35-14.55"/><path fill="#0d131a" d="M274.45 454.5q2.25-.9 5.8.1 3.5.95 6.55 3.3 3.6 2.8 4.7 6.45.85 2.8.4 7.1-.25 2.7-.7 2.45-1.55-1.45-3.8-3.35-5.25-4.25-11-5.1l-4.8-.15q-.85-1.05-.7-3.45.25-2.7.75-4.1.85-2.45 2.8-3.25"/><path fill="#fff" d="M275.15 456.3l4.6.1q3.1.85 5.9 3.05 5.15 3.95 5.15 10.9l-.15 1.8q-3.75-4.7-8.85-6.8-3.7-1.55-9.1-1.9.25-2.5.85-4.45.75-2.35 1.6-2.7"/><path fill="#dbdcdc" d="M167.7 468.65l1.15.95-5.55 7.1q-3.05 4.2-3.6 8.45-.75-2.25-.75-3.9 0-2 .65-4.25.85-2.7 2.5-5 1.65-2.25 3.5-3.2l2.1-.15m20.1 13.25l.6-.2q-4.75 6.6-5.8 15.95-1.4-2-1.4-4.65 0-.95.15-1.7.45-3.05 2.35-5.8 1.9-2.75 4.1-3.6m39.5 11.3l2.6-.25q-1.55 5.9-1.8 10.65-.3 5.6 1.1 10.6-4.65-6.95-4.65-13.6 0-2.1.4-3.9.55-2.75 2.35-3.5m54.5-27.85q-3.7-1.55-9.1-1.9.4-3.9 1.5-6.1 5-.25 9.35 2.1 4.15 2.25 6.6 6.25.65 2.15.65 4.65l-.15 1.8q-3.75-4.7-8.85-6.8"/><path fill="#0d131a" d="M497.9 465.85q1.8 4.3-1.8 10.9-.6 1.15-1.1 1.25-.55.1-.3-1.5.95-5.65-1.7-7.7-1.8-1.35-4.75-1.4-4.8-.05-10.9 3.9-6.35 4.1-11.2 6.4-8.2 3.85-17.7 5.7-13.05 2.65-16.85-5.4-2.3-4.9.75-12.1 3.1-7.2 9.9-12.7 6.25-5.1 17.85-9.05 11.5-3.95 27.55-6.5-7.55 4.85-14.75 10.7-14.45 11.75-12.65 16.85.9 2.5 3.35 2.8 3.8.45 12.2-3.65 17.8-8.6 22.1 1.5"/><path fill="#00aeeb" d="M486.05 464.6q-2.3.1-4.85 1.4l-5.2 3.15q-6.3 3.9-10.6 5.9-7.65 3.5-16.8 5.3l-9.6.3q-3.8-.9-5.1-3.7-.7-1.4-.7-3.45 0-4.2 2.9-9.3 3-5.15 7.75-9 10.2-8.3 35.45-13.45-10.75 5.85-16.45 12.15-5.2 5.7-5.2 10.45l.1 1.35q.3 4.45 7.1 3.85 5.15-.45 10.1-2.9 5.3-2.55 11.4-3.35 8.25-1.1 9.2 3.5l.4 2.15v.25l-.85-1.85q-2.15-3.1-9.05-2.75"/><path fill="#0098cd" d="M441.65 471.3q-4.45 3.95-8.4 3.3l-.05-1.1q0-4.2 2.9-9.3 3-5.15 7.75-9 10.2-8.3 35.45-13.45-10.75 5.85-16.45 12.15-5.2 5.7-5.2 10.45l.1 1.35q.2 1.05.9 2.2l-.35.35q-1.9 1.3-5.05-1.9-3.2-3.15-5.1-1.9l-6.5 6.85"/><path fill="#0d131a" d="M478.65 442.35q.25-.1.35.2.2.3-.2.4-26.75 7.85-33.95 19.2-2.45 3.85-2.25 7.5.1 2.75 1.2 3.8 2.55 2.5 9.3 2.15 8.9-.5 24.35-6l-1.35.8q-13.95 4.95-22 5.9-8.1.9-11.3-2.2-1.25-1.25-1.65-3.85-.5-3.75 1.8-7.65 6.8-11.6 35.7-20.25"/><path fill="#0d131a" d="M475.7 444.8l1.3-.2q-8.35 2.2-16.35 8.55-6.7 5.25-8.15 8.7-2.45 5.8-.05 8.2 4.5 4.75 30.4-4.6l1.8-.2-1 .4q-1.85.6-2.8.95-13.65 4.95-20.3 5.8-6.5.85-9.1-1.9-1.3-1.3-1.3-3.35t1.3-5.2q1.6-3.8 8.3-9 7.8-6.05 15.95-8.15"/><path fill="#0d131a" d="M346.35 377.65q26.35-18.45 55.05-27.35 23.9-7.4 45.25-7.05 34.9.55 57 14.35 21.2 13.2 21.6 32.5.25 12.7-8.25 24.9-7.15 10.35-18.3 17.7-5.45 3.6-20.4 10.85L466 452.3q10.7-10.7 10.9-22.3.25-10.75-8.35-19.7-8.45-8.85-22.7-12.95-15.1-4.4-32.2-2.1-18.5 2.45-43.95 12.35-16.7 6.45-49.85 21.9-51.15 23.9-78.15 33.35-45.4 15.85-80.45 15.5Q123.1 478 98 455.25 87.9 446.1 82.1 435q-5.35-10.2-5.6-18.95-.75-26.85 23.5-43.65 29.1-20.15 91.55-23.35l1.05-.1q16.65-.95 37.65.2l17.9 1.4.4 2.4q-6.7 2.85-15.4 6.8-17.4 7.85-28.4 13.8-27.15 14.75-28.85 37.1-.65 8.7 2.85 16.95 3.15 7.4 8.45 11.85 12.2 10.35 26.8 11.45 13.35 1 29.95-5.65 14.3-5.75 33.6-18.35 12.85-8.45 37.65-26.65 20-14.8 31.15-22.6"/><path fill="#00aeeb" d="M481.2 352.1q15.5 4.8 26.4 12.7 15.8 13.1 13.8 30.35-1 8.7-7.8 20.35-4.3 7.4-15.65 14.65-6.6 4.25-20.75 11.15 1.95-6 1.95-10.3 0-12.5-8.3-22.55-15.85-19.25-56-16.5-17.05 1.15-44.45 12.1-13.35 5.3-51.65 23.15-53.8 25.15-82.1 34.7-47.7 16.05-83.95 13.6-18.6-1.25-36-11.05-17.35-9.8-27-24.4-7.15-10.75-8.85-21.55-1.85-11.7 2.85-22 12-26.45 50.35-37.25 20.65-5.8 57.6-7.7l1.05-.05q22.5-1.35 50.6 1.15-25.3 11.95-40.7 20.2-29 15.5-30.8 38.5-.7 8.9 2.95 17.3 3.2 7.35 8.4 11.75 24.05 20.35 60.55 6.5 15.35-5.8 35.15-18.3 14.7-9.3 37.85-26.35 20-14.7 31.1-22.5 47-33 96.05-33.05 19.7-.05 37.35 5.4"/><path fill="#0098cd" d="M158.1 392.15q-5.5 4.4-9.95 1.45l-6.3-6.35q-3.8-1.9-11.75 5.9-3.4 3.4-4.65 3.95-2.05.95-2.6-2.25Q119 372.6 85.2 393.5q13.05-24.6 50.45-34.65 20.05-5.4 56-7.3l1.05-.05q22.5-1.35 50.6 1.15-25.3 11.95-40.7 20.2Q185 382.2 177.2 395l-2.45-.15q-2.65 0-4.25-4.9-1.55-4.55-3.35-3.95-2 .4-4.6 2.45l-4.45 3.7"/><path fill="#9ed8f5" d="M162.2 430.35l13.05-.6q3.2 6.65 7.9 10.65 13.3 11.2 29.75 12.15-12.25 3.45-16.7 8.45-1.85 2.1-.6 3.15 1.35 1.1 5.9.5 6.9-.9 8.2.75 1.8 2.35 6.1 2.8-34.8 9.25-63.1 7.3-14.5-1-28.7-7.4-14.05-6.3-24.5-16.35 5.75-.5 21.4 1.85 12.7 1.95 12.1.75-1.15-2.3-1.15-4 .05-2.15 2-2.85 1.35-.45 11.6 1.5 10.5 1.35 14.1-2.25.4-.8-1.2-1.95l-3.55-2.15q-5-3.15-2.85-6.05 3.35-5 10.25-6.25m201.15-48.3L354.5 386l6.15-5.85q3.65-3.65 5.25-6.8-3.8 0-3.8-1.3l.1-1.55q34.85-20.5 70.8-23.4 29.7-2.35 54.95 7.3 1.25 1.35.2 3.95-1.3 3.1-1.05 4.1.85 3.05.1 3.95-.6.65-2.6.55-5.55-.3-7.3 2.6-.6 1.75 2.35 5.7 2.75 3.65 1.45 5.65-.75.95-4.4.45l-7.75-1.35q-11.1-2.05-13.2.75-1.25 2.1.7 5.15 1.15 1.8 4.85 5.5 3.6 3.65 4.6 5.3 1.7 2.75 0 4.45-.6 1.25-1.05 1.5-11.65-8.55-30.75-10.55-25.95-2.7-56.15 9.1l8-9.75q4.8-5.8 1.45-5.45-3.3.35-11 2.2l-11.8 2.85q-3.6.75.85-3.1 6.2-5.45 6.75-7.05-3.95-.8-8.85 1.15"/><path fill="#0098cd" d="M496.25 423.95q4.45 1.9 9.2-1.55l8-6.65q-4.4 7.35-15.65 14.5-6.6 4.2-20.6 11.05 1.95-6 1.95-10.3 0-4.6-.8-8.35 4-2.25 7.8-3.75.7-.3-.05 2.9-.8 3.4.05 3.4.95.05 5-3.4 4.5-3.85 5.1-4.15 1.1-.55.7 2.35l-.7 3.95"/><path fill="#0d131a" d="M428.25 377q23-2.25 39.9 2.4 26.1 7.2 29.65 29.65 1.9 12.05-6 22.4-3.95 5.2-8.4 8-.25.2-.45-.1-.2-.3.1-.4 4.1-2.8 7.65-7.9 7.05-10.1 5.05-21.9-3.55-21-28.65-28.1-16.95-4.85-38.8-2.7-24.6 2.35-51.9 13.85-17.95 7.5-49.7 25.2-35.75 19.95-55.65 28.75-33.1 14.65-65.8 20.75-28.5 5.35-52.55-3.2-20.6-7.3-31.8-21.95-8.2-10.7-9.7-23.3-1.5-12.45 3.9-23.65 8.85-18.35 34.65-28.95 25.65-10.5 62.85-11.2l.35.3q0 .3-.35.3-36.7.7-61.6 11.3-24.7 10.5-33.5 28.85-5.35 11.1-4.05 23 1.35 12.1 9.4 22.65 11.15 14.6 30.8 21.7 23.25 8.45 51.5 3.15 32.7-6.1 65.65-20.5 20.4-8.95 55.6-28.55 33.1-18.45 49.75-25.6 27.6-11.9 52.1-14.25"/><path fill="#0d131a" d="M411.35 363.9q29.15-7.6 57.85-1.5 28.7 6.05 38.9 22 5.5 8.6 4.35 19.05Q510.95 417.2 498 433l-.45.05q-.25-.25-.05-.45 10.9-13.25 13.05-25.9 2-11.95-4.1-21.25-10.3-15.7-38.1-21.7-28-6-56.85 1.5-20.85 5.4-46.25 18.6-17 8.8-45.35 26.4-22.3 13.9-33.7 20.4-18.95 10.75-34.25 17.1-38.4 15.9-69.5 9.9-17.55-3.4-27.95-14.2-10.4-10.8-10.25-25.5.15-18.7 16.75-34.35 19.95-18.75 57.6-25.35.35 0 .35.25.1.3-.25.4-37.2 6.5-56.25 25.1-15.6 15.2-15.8 33.95-.1 14.65 9.25 24.9 9.55 10.5 26.7 13.8 30.95 5.95 69.2-9.7 23.3-9.6 67.8-37.2 30.2-18.75 45.45-26.85 25.65-13.6 46.3-19"/><path fill="#0d131a" d="M113.95 366.05l-9.4 3.6q25.5-17.85 64.45-23.5 36.75-5.4 70.8 1.8l.9.2 1.3 10.8-.9.35q-9.5 3.75-19.7 3.9-6.2.15-18.15-1.5l-17.9-1.7q-27.3-.75-35.1-.4-19.1.9-36.3 6.45"/><path fill="#00aeeb" d="M142.3 354.5q10.2-2.8 22.9-4.75 43.9-6.65 73.3-.65l1.7 10.15q-8.4 3.2-18.7 2.45l-17.9-2.5-18.2-1.75q-19.4-.5-31.9.2-17.5 1.05-32.65 4.7 10.2-4.7 21.45-7.85"/><path fill="#0098cd" d="M238.5 349.1l1.7 10.15q-4.8 1.85-10.2 2.35-2.8-1.45-12.65-4.05-7.95-2.1-12.2-5.75-2.6-3.35-8.9-5.25 23.85-1.2 42.25 2.55"/><path fill="#0d131a" d="M213 340.4l-1.5-2q5.6.4 11.95 0l11-1.45q5.9-1.35 9.85-3.45 4.7-2.5 5-5.25l2.5.05 2.15 34.4-1.55 1.3q-6.85-1.55-15.1.3-7.15 1.6-12.9 5.1l-3 1.3q.75-2.8 3.55-6.75 2.45-3.35 5.1-5.85l-9.4.5-3.45.35h-1.8q7.7-6.05 12.7-8-10.85-5-15.1-10.55"/><path fill="#7fccec" d="M235.05 339.4q10.45-2.35 14.5-6.55l1.75 28.4q-6-.95-13.1.65-6.1 1.35-11.85 4.25 2.25-3.55 3.05-4.6 1.95-2.65 3.65-3.45 1.65-.8 1-1.5l-1-.55-5.4-.2-5.6.6q.65-.3 2.8-1.25l4.6-2.15q2.8-1.45 2.9-2.45l-.45-.7q-12.15-5.35-16.4-9.5 13.3.4 19.55-1"/><path fill="#6db2cd" d="M227.1 344.35q-4.6-2.55-7.9-3.85 10.45.1 15.85-1.1 10.45-2.35 14.5-6.55l1.3 20.55q-7.05.1-16.2-4.75l-7.55-4.3"/><path fill="#0d131a" d="M348.05 311.45l1.1-.6.6 1.1q4.4 4.65 1.55 18.9-1.55 7.5-4.95 17.95l-1.05 4.3-1.85 7.1q-1.2 3.9-2.8 6.75l-2.8 4.65-3 4.6-2.35 1.6q-1.5.7-1.85 1.55l-3.05-2.75-1.2-1.7q-.25-.15-.5.55-.9 2.6-2.55 3.35l-3.3-2.2-2.25 3q-3.75-6.15-9.65-12.1-5.25-5.3-10.7-8.9l.95-2.75q48-43.55 49.65-44.4"/><path fill="#7fccec" d="M344.85 345.95l-2.55 7.2-1.5 6.5q-.95 3.55-2.35 6.05l-6.05 9.8q-.5.65-2.65-1.35-2.35-2.15-3.15-1.7l-1.65.6q-1.25.65-1.8 2.35-.65.4-2.45-.5-1.8-.9-3.2-.3-7.35-11.6-16.25-17.9 38.95-35.3 46.75-42 .5 1.65.5 3.85 0 2.8-.65 7.55l.75 1.5q-.65 5.5-1.65 10l-2.1 8.35"/><path fill="#6db2cd" d="M338.35 323.25q.05 4.95-1.5 10.1-1.25 4.35-3.9 9.6-5.05 10.15-7.25 15.65-3.65 9.25-4.4 16.6l-1.7-.75-2.1.15q-7.35-11.6-16.25-17.9l37.1-33.45"/><path fill="#0d131a" d="M498.5 5.15q4.45 6.35 4.75 10.9-.5 3.95-14.55 23.75Q474 60.6 462.9 72q12.6-9.7 26.9-19.65 16.15-11.25 18.9-11.85 1.8-.35 5.7 8.2 3.7 8.1 3.7 10.5 0 2.35-1.5 3.8-12.2 11.25-25.55 24.25-26.6 25.9-32 34.45 18.1-8.7 40.7-21.4 16.9-9.55 17.55-9.35 1.15.35 3.7 8.15 2.5 7.5 2.5 9.55 0 6.05-4.8 10.75-4.4 4.3-21.75 15.6 2.05-.65 8.1-3.55 4.7-2.25 5.05-1.8 2.5 3.5 2.85 9.95.4 6.55-1.9 10-4.8 7.15-15.35 13.45-2.2 1.35-35.6 19 5.3-.45 25.9-4.2 18.7-3.4 19.35-3.15 1.75.65-.95 9.6-2.6 8.8-4.75 10.65-5.5 4.6-27.75 11.55l-23.95 6.85q9.75 1.75 27.55 7 17.3 5.15 17.4 6.05.15 1.15-12.5 11.45-.85.65-3.4 1.05l-5.05.4-33.1-2.95q3.75 1.7 14.8 4.65l10.35 2.9q.75.8-2.5 4.75-2.45 2.95-4.9 5.2-.95.9-3.95.65l-4.9-.55q-9.25-.8-27.4-5.25l18.1 15.9q9.6 8.6 9.5 9.7-.1 1.3-6.7 6.75-6.7 5.5-9.25 6.15-.9.2-2.55-.55l-2.6-1.75q-3.5 3.4-9.15 6.1-5.1 2.4-6.15 1.95-.8-.35-4.2-10.35-3.4-9.9-5.1-16.85-.5 3.8-1 19.45-.45 13.5-1.05 14.1-.8.75-7.55 1.2-6.25.45-8.55.2-1.65-.2-1.65-3.3l1.05-19-6.9 22.3-1.8-.35q-5.6-.9-9.75-6.25-2.45-3.2-6.25-11.2-4.3-9.2-7.3-12.45-4.95-5.4-12.25-4.75l-1.15-2q4.35-6 10.3-12.8l10.9-11.9 11.6-12.7q6.35-7.3 10.8-13.75 11.4-16.5 17.6-41.15 3.7-14.65 7.85-45.35l2.25-16q2.35-15.55 4.2-21.5 3-9.55 9.05-14.2Q442 59.5 468 28.85 480.95 13.6 491.5.3q2.45-1.7 7 4.85"/><path fill="#7fccec" d="M499.25 18.55q-2.35 4.55-15.65 23.5-17.05 24.2-28.2 35.35-2.35 2.35-1.9 2.8.4.5 4.2-2.4 6.65-5.05 26.75-18.9 22.85-15.65 24.05-15.2.85.3 4.1 7.35 3.15 6.9 3.15 8.1 0 1.1-.95 2-12.6 11.7-26.45 25.4-27.6 27.35-33.55 37.35-1.2 2.05-.45 2.1l2.85-1.05q16.25-7.1 39.2-19.75l19.75-10.95q.55 0 2.55 7.05 1.95 6.95 1.95 8.5 0 2.25-1.75 4.85-5.2 7.8-33.75 25.55-28.05 16.6-29.3 17.35-1.75 1.1-1.8 1.85l1.3.05q6.45-3.2 19.55-10.65 13.1-7.4 17.6-10.35 3.1-.55 9.9-3.75 6.1-2.85 6.3-2.75.4.25 1.1 4.45l.65 4.8q.55 5.5-6 12.05-6.4 6.5-26.75 17.55-10.7 5.85-22.4 11.4-3.4 1.55-3.85 2.1-.5.65 2.15.45 6.55-.5 28.8-4.2 20.3-3.35 20.95-3.15 1.1.35-1.35 7.4-2.4 7.05-3.9 8.35-4.65 3.6-29.2 11.6-16.75 5.45-25.35 7.75-1.8.5-2.1 1.1-.3.6 1.45.85 7.15.95 26.95 6.45 18.95 5.3 19.2 5.95.2.6-5.45 5.35-5.8 4.9-7.3 5.05-5.65.6-25.7-1.6l-21.05-2.5-2.65.2q-.45.35.75.95 4.1 2 19.15 6.1 14 3.8 14.35 4.25.4.45-2.95 4.15-3.4 3.75-4.45 4-1.25.3-17.15-2.7-16.6-3.15-21.15-4.95-2.65-1 .5 1.85l17.6 15.8q11.35 10.25 11.55 10.9.2.8-6.1 6-6.35 5.15-7.6 5.2-2.9.1-11.5-9.1-8.5-9.15-13.05-17.15-.95-1.7-.95-.7 0 1.05.8 2.75 1.4 2.9 7 10.35 7 9.35 11.8 12.95-3.55 2.9-7.85 4.85-4.45 2-5 .85-5.8-12.35-8.8-24.9-1.8-9.4-2.25-9.35-.9.1-2 20.45-1.05 20.65-1.4 21-.65.65-6.45 1l-6.4-.25q-.5-.45-.2-17.7l.35-18.3q.05-1.4-.75-.3-.8 1.1-1 3.4-2.05 20.1-9.35 32.85-4.4-1.05-7.8-5.7-2.15-2.9-5.5-10.1-4.15-8.75-7.2-12.3-5.05-5.95-12.2-6.3 6.2-8.2 19.45-22.45l11.7-12.85q6.4-7.4 10.95-13.9 11.65-16.85 17.95-41.8 3.75-14.95 7.9-45.8l2.25-16q2.2-14.75 4.05-20.65 2.8-9.05 8.25-13.4 20.85-16.6 46.55-47.25l15.4-19.1q6.1-7.7 6.4-7.65 1.15.1 3.45 3.05 2.6 3.35 4.25 7.65.6 1.5.2 2.95l-1.2 2.55"/><path fill="#6db2cd" d="M415.9 89.7q2.8-9.1 8.3-13.35 10.15-7.8 22.15-19.95 1.6 6.8 1.45 13.15-.15 6.6-2.15 11.35-14.15 29.15-21.55 63.2-5.65 25.95-8.95 64.4-18.55 54.15-62.8 59.35-4.55-4.4-10.65-4.65 6.2-8.2 19.45-22.45l11.7-12.85q6.4-7.4 10.95-13.9 11.65-16.85 17.95-41.8 3.75-14.95 7.9-45.8l2.25-16q2.25-14.95 4-20.7"/><path fill="#0d131a" d="M433.7 70q-10.5 11.8-12.3 14.65-1.5 2.45-5 22.65-2.95 17-6.25 40.05l-4.35 26.55q-3.2 18.15-4.5 23-1.25 4.8-8.9 13.95l-14.4 16.5q-7.4 8.85-8.95 11-3.5 4.95-5.6 10.75-1.2 3.4-2.6 9.65l-1.45 5.65q-.9 3.05-2.05 5.2l-.5.9-1-.3q-5.3-1.65-11.3-5.6-6.35-4.2-9.25-8.3l-.5-.7.5-.7q7.35-10.9 14.85-19.6l24-28.05q13.65-17.05 16.65-26.15 6.8-20.4 10.6-40.7 2.15-11.45 4.3-30 2.35-20.7 4.5-25.95 2.45-6 12.75-14.3L448.3 50.6l.85.8q.35 1.4-2.45 4.3l-13 14.3"/><path fill="#7fccec" d="M438.9 60.7l-4.45 5-4.7 4.8-6.1 6.3q-3.65 3.9-5.4 6.75-1.9 3.05-5.7 28.4-2.05 13.55-4.9 35.05-1.2 8.5-4.7 25.9-3.2 16.2-4.55 21.35-1.2 4.7-8.6 14.55-4.15 5.55-13.7 16.9-6.95 8.2-9.1 11.2-3.7 5.2-5.9 11.25-1.25 3.45-2.75 10.05-1.5 6.55-2.8 9.2-4.65-1.65-9.6-4.95-5.35-3.5-8-6.9 2.95-4.2 15.95-19.3 16.15-18.65 23.6-28.35 12.5-16.35 15.7-26 6.85-20.55 10.7-41 2.15-11.55 4.3-30.2 1.55-13.4 2.2-17 1.25-6.75 3.75-11.05 2.65-4.55 8.45-9.55 4.7-4.05 16.3-12.4"/><path fill="#0d131a" d="M338.05 229.05l.1 2.7.5 5.55q8.2 4.35 15.05 15.2 6.45 10.15 7.8 19.45.65 4.4.65 9.25 0 23.75-10.55 43.9-11.4 21.75-31.9 32.7-3 1.6-9.9 3.8l-9.95 2.9q-6.95 1.75-10.05 3.05-3.6 1.45-6.95 4.35-2 1.75-5.65 5.8l-3.7 4q-3.4 3.5-6.9 4.8l-8.5 1.85-1.05-3.45q-1.1.1-2.1.95l-3 2.6-.8-2.85-2.45 1.3q-6.35-6.7-6.45-18.95-.05-6 2.35-19.65l.75-11.5q1.7-13.1 3.25-18.85 3.05-11.5 14.7-38.5 14.25-33.05 21.35-36.9 1.55-.8 1.75-1.45l-.1-.65q-.3-.9-1.95-2.2l-3.8-2.85-4.8-4q-2.45-2.3-3.3-4.25-4.05-9.35-.4-20.85 3.45-10.9 11.25-16.55 10.5-7.6 22.1-8.25 10.9-.6 21.8 4.9 3.65 1.85 7.4 20.4 2.6 12.95 3.45 22.25"/><path fill="#7fccec" d="M336.8 239.1q7.9 3.85 14.6 14.35 6.3 9.85 7.6 18.9.65 4.2.65 8.95 0 24.3-8.65 41.85-10.8 21.9-35.2 34.2-2.7 1.35-8.15 2.7l-8.45 2q-6.85 1.7-10.35 3.15-1.5.6 3-4.7-1.2-.5-6.55 5.35-7.25 7.95-9.95 10.15l-3.65 3.95q-3.15 3.2-6.4 4.7-2.75 1.25-5.1 1.1-2.35-3.35-3.35-3.65-1.15-.3-3.4 2.05l-1.45-1.4q-.75-.35-3 1.15-2.8-2.1-3.6-6.5-.5-2.55-.5-9.2 0-6.75 2.2-19.45l1.75-11.65q1.7-12.9 3.2-18.55 2.35-8.9 14.75-37.05 14-31.85 19.85-36.9l1.45-1.35.65-1.4 2.4 2.1q.3.3.5.15l.05-.5q-.8-2.9-9.8-10.85-5.25-4.5-6.35-7.1-.9-2.05-1.45-5.15-.45-2.75-.45-5.35 0-6.95 3.7-13.55 3.45-6.2 8.9-10.15 9.65-7.05 20.45-7.7 10.2-.6 19.9 4.55 2.65 1.4 5.85 19.45 2.2 12.4 3.1 21.55v.05q1 1.9.3 5.15l-.9 2.85 1.85 1.75"/><path fill="#6db2cd" d="M306.7 183.75q10.2-.6 19.9 4.55-29.8 4.35-40.4 17.15-9.1 10.95-1.5 23.2l5.2 7.5q2.9 4 3.7 6.15.9 2.5-15.05 38.15-15.4 34.6-17.45 37.1-9.95 12.05-11.6 39.15-.65 10.65.5 18.65.75 5.25 2 7.4-.75-.35-3 1.15-2.8-2.1-3.6-6.5-.5-2.55-.5-9.2 0-6.75 2.2-19.45l1.75-11.65q1.7-12.9 3.2-18.55 2.35-8.9 14.75-37.05 14-31.85 19.85-36.9l1.45-1.35.65-1.4 2.4 2.1q.3.3.5.15l.05-.5q-.8-2.9-9.8-10.85-5.25-4.5-6.35-7.1-.9-2.05-1.45-5.15-.45-2.75-.45-5.35 0-6.95 3.7-13.55 3.45-6.2 8.9-10.15 9.65-7.05 20.45-7.7m-5.6 171.05q2.1-1.05 5.45.3 4.8 2 9.25 2.25-2.7 1.35-8.15 2.7l-8.45 2q-6.85 1.7-10.35 3.15-1.5.6 3-4.7-.35-.15 2.9-2.15 3.3-2 6.35-3.55"/><path fill="#0d131a" d="M247.05 154.5q0-1 25.8-.5 26.55.5 30.8 3.7 3.45 2.5 14.15 14.65 11.75 13.4 10.85 15.75-.2.5-18.25-5.75-18.9-6.55-29.4-11-33.8-14.35-33.95-16.85"/><path fill="#00aeeb" d="M280.75 156.8q19.5 1.15 22.3 2.5 2.45 1.15 11 11.5 8 9.75 11.25 15-14.8-4.75-39.9-15.3-24.15-10.2-31.4-14.45 8.15-.35 26.75.75"/><path fill="#0d131a" d="M226.95 167.15q-4.85-1.65-4.9-2.45-.05-.35 1.65-1l2.8-1.1q4.2-1.75 31.95-6.4 29.1-4.85 32.95-3.55 6.15 2 21.55 16.5 15.95 15 16.55 20.6-44.1-5.7-49.75-7l-11.7-3.1-18.2-5.35-22.9-7.15"/><path fill="#00aeeb" d="M253.45 173q-20.5-6.05-25.4-8.5 8.95-2.65 32.05-6.6 25.2-4.25 29.9-3.15 5.65 1.35 21 15.6 14.95 13.85 15.7 17.6l-21.7-3.2-24.7-4.45q-9.05-2.1-26.85-7.3"/><path fill="#0098cd" d="M325.6 185.8q.95 1.45 1.1 2.15l-21.7-3.2-24.7-4.45q-7.35-1.7-22.15-5.95-17.15-4.9-25.45-7.95l31.1-4.7q18.55-2.6 23.6-.9 4.85 2.1 17.25 10.65l20.95 14.35"/><path fill="#0d131a" d="M325.5 187.8q4.7 3.5 3.3 3.4-3.6-.15-12.6 1.3l-16.5 2.65q-22.6 2.9-25.55 2.2-15.25-3.95-32.8-9.25-17.9-5.4-18-6.15-.1-.55 3.55-2.2 7.9-3.7 22.3-8.7 22.15-7.75 30.3-6.75 2.4.3 12.4 4.75 8.8 3.85 12.5 5.9 14.65 8.05 21.1 12.85"/><path fill="#00aeeb" d="M279.55 166.4q8.15 2.4 24.25 10.8 13.65 7.1 22.1 12.55l-26.55 2.9q-22.55 2.9-24.3 2.3-13.85-3.15-26.05-6.8-13.95-4.25-18.9-7.2 9.9-4.45 23.75-9.1 18.95-6.3 25.7-5.45"/><path fill="#0098cd" d="M255.3 175.75q14.05-4.5 18.2-3.7 11 2.15 24.65 7.4 6.65 2.55 24.7 10.5l-23.5 2.7q-22.55 2.9-24.3 2.3-12.6-2.85-24.05-6.2-12.95-3.85-18.95-6.75 6.45-.85 23.25-6.25"/><path fill="#0d131a" d="M337.9 208.8q.9-.15 3 2.25l7.25 9 4.1 5.75 3.4 4.45-10.25-3-15.2-9.95q1.6-2.5 7.7-8.5"/><path fill="#922f00" d="M332.3 217.45l5.05-6.7q1.45.75 9.35 10.75l5.6 6.9-20-10.95"/><path fill="#0d131a" d="M330.45 216.3l1.15-.4q2.75 2.6 12 7.95 8.2 4.75 11.95 6.35l.2.7q-5.35 1-13.15.15-6.25-.7-8.25-1.55-2.65-1.1-3.5-6.85l-.4-6.35"/><path fill="#6c9bd2" d="M335.4 227.9q-1.65-.7-2.65-4.15-.7-2.5-.95-5.95 2.7 2.7 9.9 6.85 7.05 4.05 11.2 5.4l-10.5-.95-7-1.2"/><path fill="#6c9bd2" d="M335.4 227.9q-1.65-.7-2.65-4.15-.7-2.5-.95-5.95 2.7 2.7 9.9 6.85 7.05 4.05 11.2 5.4l-10.5-.95-7-1.2"/><path fill="#5d86b6" d="M335.4 227.9q-1.8-.75-2.8-4.75 8.85 4.7 19.15 6.9l-10-1-6.35-1.15"/><path fill="#0d131a" d="M340.2 187.3l14.2-.4q7.15 1.5 11.75 8.6l-.65.4q-4.05 1.2-10.25 4.45-12.45 6.5-23.85 17l-.95-.15q-2.65-4.9-3.6-14.85-.9-9.95 1.2-11.3 2.75-1.75 12.15-3.75"/><path fill="#6c9bd2" d="M364.25 195q-9 3.05-13.35 5.25-12.05 6.05-19.7 15.6-1.5-3.15-2.3-13.25-.8-9.65-.25-10 2.55-1.6 9.75-3.05 9.75-1.4 14.2-.85 7.25.85 11.65 6.3"/><path fill="#0d131a" d="M305.8 196.35l11.65-1.15 7.2.25-1.05.75q1.05 2.9 1.15 4.85.1 2.25-.9 4.35-1.1 2.2-3.3 4-2.25 1.75-5.05 2.7-2.95.95-6.1 1-3.25 0-5.35-1.1-2.9-1.5-4.9-4.85-2.15-3.6-2.5-8.15l-2.2-.2q-1.8-.25.3-.8l11.05-1.65"/><path fill="#fff" d="M322.2 196.25q.75 2.2.75 4.2 0 2.45-.95 4.4-2 4-7.2 5.75l-9.1-.25q-4.5-2.3-7.45-10.7l.1-.45q.2-.35.35-.35 4.4-1 12.95-1.9l10.55-.7"/><path fill="#dbdcdc" d="M322.2 196.25q.75 2.2.75 4.2-3.55-.75-8.6-.05-7.2.95-13.65 4.7-1.3-2.25-2.45-5.45l.15-.5.4-.35q4.5-.95 12.95-1.85l10.45-.7"/><path fill="#0d131a" d="M330.15 235.15q5.7-1.75 6-2.75.55 1 1.25 1.2 1.1 1.1 17.35 8.85 15.95 8.8 17.15 15.9.05 1.1-.45 1.95-1 1.7-3.55.6 5.3 7.5 7.95 15.6 2.5 7.5 2.5 14.75 0 15.2-8.75 28.4-3.25 4.85-6.5 7.6-3 2.5-3.85 1.5-.65-.85.55-4.85l1.75-6.3q-1.3 4.65-5.2 9.85-3.9 5.15-5.1 3.95-.4-.4-.15-1.85l.3-2.3v-.05q-5.1 5-14.85 10.75-11.5 6.8-15.65 5.35-.75-.3 1.35-2.4l2.4-2.2-9.45 6.1q-7.45 4.75-12.45 4.65-1.65-.1-.35-2.2 2.9-4.75 1.6-12.35-1.15-6.95-4.85-11.85-.65.8-1.5 4.15-.75 2.95-1.25 2.9-3.3-.2-5.7-9.7-2.75-11.15.05-24.55-.9 1.15-1.6 2.75l-1.25 3.2q-.7 1.7-1.15 1.4-.35-.25-.85-1.85-3.1-10.55-1.6-19.05 1.25-7.25 6.05-13.7 2.75-3.7 10.5-10.05 6.45-5.2 7.05-7.65l-4.15 1.35q-3.7.95-3.65-.35.1-7.2 17.75-13.05l12.3-3.7"/><path fill="#fff" d="M352.9 243.75q15.05 9.05 16.5 14.6.15.75-.8.95l-2.25-.35q-1.15-.45-1.55-.2-.4.25.25 1.1 5.45 7.3 8.15 16.15 2.3 7.4 2.55 15.3.35 10.7-5.8 22.95-5.1 10.2-8.65 12.15 1.4-3 2.15-9.5.1-4.35-.8-3.4l-3.25 6.05q-3.3 5.85-6 8.05-.3.25-.55-1.75-.25-1.9-.75-1.25-2.05 2.65-13.35 9.7-11.95 7.45-15.45 7.4l2.1-1.55q3-2.1 3.3-2.95l.55-.65q.2-.6-1.35-.15-1.9.5-5.2 2.05-3.45 1.55-6.2 3.25l-6.05 3.75q-3.45 1.9-5.75 2.05.95-1.7 1.5-6.75l.35-4.7q-.05-3.45-2.05-7.7-1.7-3.55-4.3-6.75l-.05-.8.15-.65q-.1-.35-1.55 1-1.35 1.3-2.05 4.15l-.6 2.3q-1.8-1-3.05-7.95-1.25-6.7-1.25-14.4 0-6.9 1.35-12.6l.55-1.1q.2-.85-1.55.5-1.85 1.4-3.05 3.65l-1.7 4.1q-.85-4.05-.85-8.65 0-12.65 6.3-21.05.95-1.25 6.9-7.35l7.75-8.1q2.95-3.4 3.1-4.85.2-.95-.8-.7l-2.35.45-4.35 1q4.65-5.9 13.3-9.3 5.3-2.1 16.5-4.5l1.5-.45q1.6-.6 2.3-1.15 8 3.7 16.2 8.6"/><path fill="#dbdcdc" d="M332.55 236.8q1.25.65-3.3 3.75-9.3 6.35-11.6 8.1-18.45 14.35-19.8 30.9-.15 2 2.8 7.5 2.75 5.2 2.1 7.2 0 2.55-2.3 6.15-1.45 4.25 2.3 12.15 2.85 6 5.8 9.35 1.85 2.1 1.75 3.1-.55 5.05 1.85 5.85 1.1.35 1.3.7.4.75-.25 2.9-1.15 3.95-2.5 6.1-1.7 2.65-5.45 5.65.7-2.2 1.05-6.4l.25-3.75q-.05-3.45-2.05-7.7-1.7-3.55-4.3-6.75l-.05-.8.15-.65q-.1-.35-1.55 1-1.35 1.3-2.05 4.15l-.6 2.3q-1.8-1-3.05-7.95-1.25-6.7-1.25-14.4 0-6.9 1.35-12.6l.55-1.1q.2-.85-1.55.5-1.85 1.4-3.05 3.65l-1.7 4.1q-.85-4.05-.85-8.65 0-12.65 6.3-21.05.95-1.25 6.9-7.35l7.75-8.1q2.95-3.4 3.1-4.85.2-.95-.8-.7l-2.35.45-4.35 1q4.65-5.85 13.15-9.25 5.25-2.1 16.3-4.5"/><path fill="#0d131a" d="M8.6 44.25q1.9-3.05 3.55-3.65 1.65-.6 4.35.95 3.65 2.05 14.75 9.8 12.8 8.9 19 14.2 12.2 10.35 38.1 21.65 9.3 4.05 26.3 12.75 18.2 9.35 25.7 14.15l.15.1 85 104.75 50.95 38.7 1.15 1.3-5.65 33.55q-.85 5-2.7 10.55-2.2 6.6-3.75 6.85-1.5.25-14.3-2.1l-13.3-2.75q-1.15-.6.7-6.1l-4.7 6.65q-2.3 2.95-3.25 3.15-1.1.2-9.7-4.2-8.7-4.4-9-5.4-.25-.9 1.2-4.35l3.1-7.1-5.55 6.75q-2.9 3-4.55 3.25-2.35.35-14.7-4.2-12.35-4.5-12.5-5.6-.15-1.15 5.3-6.85l8.75-9.3-11.55 7.85q-6.2 4.15-7.95 4.1-2.7-.05-12.35-5.95-10.05-6.1-8.65-8.05 1.25-1.75 12.65-9.25 10.6-7 19.05-11.85-13.45 2.65-25.35 4.35-23.2 3.3-31.15.65-2.5-.8-6.45-4.4-3.6-3.3-3.85-4.35-.2-.95 12.5-2.7 17.15-2.4 25.9-4.6l-22 2.9q-20.95 2.45-25.05 1.65-1.65-.35-5.6-6-3.95-5.65-3.1-6.65.55-.65 23.75-3.4 25.3-3 30.5-4.3l-40.6 1.4q-23.25-.15-31.15-5.2-3.15-2.05-9.85-9.5-6.75-7.45-6.45-8.55.2-.9 21-1.7l25.35-.95-39.7-3.85q-24.95-2.75-27.45-4.8-1.9-1.55-9.25-15.15-7.55-13.95-6.8-15.4.7-1.35 25.65-.2l29.85 1.85q-8.25-2.15-37.05-5.4-25.35-2.9-26.4-4.15-1.8-2.15-5.2-14.45-3.45-12.65-2.2-14.1 1.8-2.15 22.05-3.55 23.3-1.65 43.9.95-8.6-3.25-40-20.5L6.35 80.05Q2.2 78.1.8 75.35q-1.15-2.3-.55-5.75.75-4.25 3.6-13.1 3-9.35 4.75-12.25"/><path fill="#7fccec" d="M6.5 59.1q4.2-13.05 7.2-16.1 8.25 3.75 34 24.65 8.2 6.65 19.4 12.45 6.7 3.5 20.25 9.4 8.95 3.9 25.95 12.65 18.1 9.3 25.5 14l84.95 104.65 62.3 41.7-.05 12.1q0 1.55-1.55 6.3-1.75 5.2-3.85 9.45-6 11.9-9.5 5.15-1.35-.7-3.55 5.2-2.4 6.55-3.15 6.95-1.1.3-12.75-2.1-11.75-2.45-11.95-3.25-.1-.65 3.4-8.3l3.85-8.65q.6-2.15.5-3.05-.15-1.4-2.15 1.7l-.1.2.05-.1q-13.85 21.65-15.35 22.1-1.05.3-7.75-3.35-6.5-3.5-7.4-4.55-.65-.75 4.25-10.8l5.6-11.55q.7-1.75.35-2.45-.4-.8-1.5 1-1.65 2.5-8.65 11-7.65 9.2-8.85 9.55-1.3.4-11.75-3.3-10.5-3.7-11.05-4.8-.5-.95 8.2-10.65 6.4-7.15 10.1-10.85 1.85-1.85 1.7-2.6-.15-.85-4.1 1.9l-14.3 9.85q-10.1 6.75-11.45 6.55-1.65-.25-9.75-5.2-8.15-4.9-8.1-5.65.05-.65 17.3-11.85 15.45-10 18.75-11.95 1.6-.95.7-1.3l-3.85.3q-11.65 2.55-26.95 4.7-25.3 3.55-32.9 1-1.8-.6-4.75-3-2.95-2.35-2.4-2.7l18.45-3.1q19.95-3.45 28.15-6.2 2.95-.95 2.1-1.55l-6.6.2q-11.8 1.95-30.3 3.8-22 2.3-23.9.95-1.5-1.05-3.85-4.85-2.45-3.9-1.5-4.2l25.8-3.1q26.6-3.4 34.65-6.15 2.35-.8 2.5-1.95.15-1.25-3.65-.6-19.65 2.2-45.65 1.6-27.45-.65-33.05-4.1l-7.05-6.75q-7-6.9-6.8-7.75.2-.8 25.6-2.4l27.55-1.6q2.5-.2.2-1.1-2.35-.95-6.75-.95l-35.55-4.05Q49.3 187.4 47.85 186q-1.6-1.55-7.7-13.2-6.1-11.7-5.55-12.2.5-.45 25.15-.1 24.4.4 27.2.8l6.25 1.1 9.1 1.9q4.1 1.1 5.85 1 2.2-.1-3.6-2.75-16.15-5.7-50.35-10.65L32.7 149q-9-1.25-9.4-1.8-1.2-1.55-4.05-11.9-2.95-10.7-2.05-12.05 1.2-1.7 24.6-2.85 25.1-1.25 40.6.6l7.75.35q2.25-.35-3.2-1.95-5.2-1.45-43.05-21.85Q8.55 78.45 3.7 75.3q-1.5-2.85 2.8-16.2"/><path fill="#6db2cd" d="M74.75 90.7q-3.4-4.75-4.5-8.95 5.8 2.85 17.1 7.75 8.95 3.9 25.95 12.65 18.1 9.3 25.5 14l84.95 104.65 62.3 41.7-.45 2.95q-.7 3.45-1.8 6.15-3.55 8.6-10.1 6.2-21.7-7.95-46.95-32.85-26-25.6-49.9-63.5-7.8-12.35-18.2-21.5-6.9-6-21.1-15.35-16.85-11.05-25.4-17.65-15.95-12.3-31.05-28.3-4.35-5.2-6.35-7.95"/><path fill="#0d131a" d="M194.55 195.4q-3.85-4.6-30.75-38.8-25.95-33.05-28.95-36.4l-18.3-10.25Q98.2 99.65 84.8 88.55 79.55 84.2 81 84.1q.7-.05 2.45.75 15.7 4.45 34.9 12.75 9.65 4.1 16.1 7.35 4.1 1.95 10.1 7.35 6.65 5.95 11.05 12.25 9.25 13.25 30.95 40.2 28 34.7 41.55 46.65 5.2 3.6 32.05 19.8 25.2 15.2 26.3 16.2 4.05 3.6 5.3 8.4 1.15 4.25-.15 8.25-1.05 3.3-2.05 2.35-1.05-1 .2-5.45l-5.15 7.55q-3.45 4.8-2.9 7.2.6 2.5-.95 1.25l-1.7-1.75q-14.85-18.55-30.7-30.45-9.05-6.85-24.75-15.35-4.45-2.4-14.2-14.85l-14.85-19.15"/><path fill="#7fccec" d="M88.05 88.4q16.8 6.25 31.55 12.7 12.95 5.6 16.2 7.7 4.85 3 7.25 5.1 5.15 4.45 10.45 12.1 9.2 13.1 32.9 42.9 29.2 36.7 38.5 44.05l18.85 12.45q11.85 7.55 20.1 12.15l15.35 8.75q7.05 4.2 8.1 5.75 1.55 2.2 2.2 4.85.55 2.5.25 4.7-.8 5.25-2.35 9.65-2.25 6.55-4.6 5.35-.5-.25-1.2-1.45l-1.55-2.65q-15-18.55-30.05-30.55-10.35-8.2-24.25-15.7-6.15-3.25-46.95-54.75-40.05-51.4-41.75-52.8-2.25-1.9-7.3-4.5l-10.6-5.1q-7.05-3.25-17.35-10.6L88.05 88.4"/><path fill="#ad181f" d="M319.5 197.4q2.1 1.85 2.6 4.9.5 3.1-.95 5.55-1.45 2.45-3.95 2.8-2.5.4-4.65-1.45-2.1-1.9-2.6-4.95-.5-3.05.95-5.5 1.4-2.45 3.95-2.85 2.5-.4 4.65 1.5"/><path fill="#920e14" d="M318.35 196.6q1.65.9 2.7 2.75-2.1-1.2-6.45 1.35-4.5 2.65-4.05 5.75l-.6-2.2q-.5-3.05.95-5.5 1.4-2.45 3.95-2.85 1.8-.3 3.5.7"/><path fill="#0d131a" d="M319.2 197.75q-1.95-1.75-4.3-1.4-2.05.4-3.25 2.15-1.8 2.35-1.25 5.7.45 2.85 2.45 4.6 1.95 1.8 4.3 1.4 1.95-.3 3.25-2.1 1.7-2.4 1.25-5.7-.5-2.9-2.45-4.65m-4.45-2.3q2.7-.45 5.1 1.55 2.4 2 2.9 5.25.35 2.2-.35 4.25-.5 1.5-3.4 3.25-2.6 1.5-3.25 1.45-2.4-.25-4.3-2.15-1.95-1.95-2.4-4.7-.6-3.55 1.05-6 1.6-2.4 4.65-2.9"/><path fill="#0d131a" d="M319.1 202.8q.1.8-.25 1.4-.4.65-1.05.75-.7.1-1.25-.4-.55-.45-.7-1.25-.1-.75.3-1.4.4-.6 1.05-.7.65-.1 1.2.35.55.45.7 1.25"/><path fill="#fff" d="M314.7 200.35l-.15.9q-.25.4-.7.45-.4.1-.75-.2l-.45-.8q-.1-.5.15-.9t.7-.45l.75.2q.4.3.45.8"/><path fill="#0d131a" d="M317.45 195.2l7.2.25-1.05.75q1.05 2.9 1.15 4.85.1 2.25-.9 4.35-1.1 2.2-3.3 4-2.25 1.75-5.05 2.7-2.95.95-6.1 1-3.25 0-5.35-1.1-2.9-1.5-4.9-4.85-2.15-3.6-2.5-8.15l-2.2-.2q-1.8-.25.3-.8l11.05-1.65 11.65-1.15m-5.8 1.75q-8.55.9-12.95 1.9-.15 0-.35.35l-.1.45q2.95 8.4 7.45 10.7l9.1.25q5.2-1.75 7.2-5.75.95-1.95.95-4.4 0-2-.75-4.2l-10.55.7"/></svg>