<svg xmlns="http://www.w3.org/2000/svg" width="621" height="495" viewBox="-0.2 -0.3 621.2 495.0"><path fill="#ffe100" d="M509.95 54.8q76.3-23.75 107.7-31.65-17.75 12.35-86.3 63.4-69.2 51.5-90.2 68.05 14.5 1.65 70.9 11.5 55.1 9.6 70.6 13.05-26.15 2.9-92.75 12.35-77.65 11.05-117.65 18.35 9.1 11.65 33.85 47.5 22.85 33.15 34.2 50.75-15.65-12.05-116.35-80.8l-1.55 13.55-18.2 66.8q-1.3 3.3-4.35 9.35-3 5.95-4.7 8.55 12.7 7.5 25.6 25 12.4 16.8 22.3 39.1 10 22.55 14.95 45.25 5.3 24.1 3.65 43.45-33.05-54.95-52.5-86.6-.5 14.35-8.55 51.8-7.45 34.9-12.15 48.5-2.3-8.45-8.95-44.35-6.6-35.45-8.5-49.25-6 8.15-26.05 38.45-18.85 28.4-28.45 43.65.75-9.1 10.4-43.55 9.85-35.25 15.75-48.85-10.95 5.65-31.6 19.55-17.35 11.6-30.7 21.6 3.85-7.3 21.35-32.2 12.65-17.95 23.2-32.3-8.65 1.1-24.2 4.1l-20.2 4.3q12.7-11.25 39.7-25.75 26.65-14.25 41.95-18.2-.45-7.6-4.55-17.1-3.9-9.05-10.65-18.85-7.35-10.7-8.45-31.1-.65-12 1.2-38.25-12.7 6.6-57.75 25.35-39.35 16.35-59.15 23.9 8.2-10.5 32.7-36.15 22.25-23.3 33.75-34.05-13.35-3.55-71.2-23.15-55.8-18.95-77.05-26.9 19-2.35 55.6-3.95 27.8-1.25 48-1.45-14.3-10-70.7-57.9Q20.65 44.4 2.55 27.5q16.8 4 86.35 30.55 58.6 22.4 90.2 35.6-4.7-11.45-15.6-35.3l-16.75-36q7.2 5.9 35.15 30.75l36.85 32.65q-4.15-13.9-5.5-17.65l12.3 11.55 12.4 11.95q-.55-11.5-.75-40.75-.15-24.5 0-40.05l11.95 35.75L263.3 90.4q9.65-17.5 34.45-47.65 22.9-27.9 35.7-39.25L315 49.45q-12.35 30.95-15.2 39.4 7.7-5.15 25.35-14.1 14.9-7.55 24.35-11.6L335.8 81.9q-10.3 14.3-14.8 21.25 21.2-7.05 26.9-8.55 20.05-14.85 44.9-32.15 30.9-21.5 44.4-29.3l-19.6 29.3q-16 23.65-21.3 30.7Q426.05 80.9 509.95 54.8"/><path fill="#fff" d="M242.65 140.1q-4.1-2.95-4.55-3.9-.45-.95.1-7.35.55-6.05 1.3-10.15 1.5 4.2 5.4 12.25 3.8 7.9 5.8 11.05l-1.9 2.05q-2.25-1.1-6.15-3.95m41.3-26.4l.35 11.15q-.05 7.75-1.5 9.45-1.7 2.05-9.85 6.25-6.9 3.5-12.55 5.75l-2.15-2.25q4.85-7 13.1-16.6 6.95-8.05 12.6-13.75"/><path fill="#0d131a" d="M284.2 125.3q-.25 8.05-1.4 9-3.2 2.7-10.4 6.45-7.9 4.05-12.8 5.05 3.9-1.2 9.05-4.8 4.65-3.25 5.55-4.9.8-1.3.7-5.45-.05-3.9-.65-6.25l9.7-10.7q.4 5.05.25 11.6m-44.7-6.6l4 9.25q-.4 2.55-.45 6.05-.1 4.25.55 6.75-4.65-3.05-5.5-4.55-.45-.8.1-7.7.55-6.95 1.3-9.8"/><path fill="#e07f00" d="M250.8 141.4q1.6-1.8 3.3-1.45 1.45.3 2.55 2.1 1.25 2.05 5.4 5.75 4.35 3.85 7.55 5.55l1.65 1q.75.55.75 1.1-21.55 8.75-48.05 39.45-19.3 22.35-37.9 52.1l-2.75 3.6q-1.4 1.5-1.85 1.4-.4-.1-.3-1.2.05-1.25.7-2.95 7.55-19.25 31.85-55.95 22.3-33.75 37.1-50.5"/><path fill="#922f00" d="M248.35 170.35q6.4-5.5 16.9-11.5-1.1 4.2-5.4 12.6-3.75 7.3-6.35 11.2-1.1 1.7-1.95 1.45-.85-.2-1.35-2.2l-1.1-5.45q-.6-3.75-.75-6.1"/><path fill="#0d131a" d="M171.15 75.25q2.6 5.25 7.95 18.4l-16.3-6.6-19.65-7.8q-6.1-6.9-20.35-27.9 4.9 1.95 23.5 11.25 13.6 6.85 24.85 12.65M36.9 96l25.55 1.75 24.25 2.5L115.35 124l29.25 23.55-11.25.35-49.05-26.25L36.9 96m377.15-28.65q6.55-2.45 20.1-8.1 16.2-6.7 19.4-8.65-4.3 5.8-12.9 16.05Q431.25 77.8 426 83.1l-15.5 5.05-14.2 5 9.2-13.2 8.55-12.6M522.6 122.2q-58.85 26.4-77 33.15l-3.9-.95 39-29.8q27.55-20.85 38.85-29.2 70.35-6.6 81-8.9-26.05 12.45-77.95 35.7M202.3 384.4l-12.35 3.4q12.4-14.85 17.25-20.35l18.9-3.4q-3.1 3.55-12.65 16.9l-11.15 3.45m30.65 31.65q-2.95 3.25-11.1 9.65l-11.95 8.95q1.3-3.4 5.2-15.75l5.3-17.3q11-7.1 22.25-13.45-3.1 6.85-9.7 27.9m21.6 5.9l16.45-23.5q2.1 11.95 4.1 26.1-1.85 4.9-7.95 15.15-4.75 8.1-9.15 14.65-.7-4.5-1.85-15.25l-1.6-17.15m48.3 9.25q1.5-7.55 3.6-20.45l2.7-19 21.2 34.45-4.65 37.1q-3.5-4.35-11.9-16.45l-10.95-15.65"/><path fill="#854c3b" d="M305.45 246.3q1.25-6.4 2.5-9.45 1.6 1.45 3.75 4.3 2.45 3.25 3.7 5.85.4-3.15 3.55-9.1l1.55 1.75 1.4 1.7q-2.75 4.75-3.55 8.15-4.3 1.05-3.55 11.95.7 10.05-.55 16.6-1.25 6.35-3.75 6.6-3.25.4-6.45-5.9-2.7-5.3-4.7-13.8l-.8-3.9q-.55-2.45-1.1-3.65.15-2.95 1-6.2 3.7 3.35 5.7 5.65 0-3.9 1.3-10.55m-14.6 31.95q4.35 6.1 8.25 15.25 2.95 7 5.15 14.55l-1.3 2.1q-5.65-.7-10.75-4.5-3.9-2.9-6.7-6.9l5.05-.75-5.35-7.25 4.3-.15q-2-3.25-4.4-11.65l5.75-.7"/><path fill="#0d131a" d="M266.15 137.55q.6 0 1 .95.45.9.4 2.05 0 1.15-.5 2.2-.6 1.15-1.35 1.1-.55-.05-.85-1.1-.35-1-.3-2.2.05-1.2.6-2.1.45-.9 1-.9"/><path fill="#fff" d="M266.05 138.2q.6 0 .6.65 0 .6-.55.7-.65 0-.65-.7l.2-.45.4-.2"/><path fill="#0d131a" d="M248.25 143l-2.05-1.2-.2-.95q-.1-1.15.2-2 .25-1 .9-1.05.55-.05.95.9.4.85.5 2.05.1 1.35-.3 2.25"/><path fill="#fff" d="M247.2 139.6q-.6.1-.6-.6-.05-.25.15-.45l.35-.2q.5-.1.6.6.15.65-.5.65"/><path fill="#dcc200" d="M257.05 185l4.75-8 4.3-7.55q3.55 3.9 15.3 15.2l15.3 14.6q1.85 18.45 2.2 29.1l-20.85-20.75q-14.25-14.55-21-22.6m75.3-3.55q14.9 26.15 19.2 34.75L299 192.15q-1.65-19.3-3.25-28 29.35 13.7 36.6 17.3m3.1-56.7q12.2-3.3 27.35-6.9 14.6-3.55 22.05-5-10 7.45-24.7 19.05-17.8 14.05-28.3 23.1l-5.35-9.15-5.25-8.75q7.5-6.9 14.2-12.35m-100.25 57.7q6.8-7.05 9.05-8.55 1.45 5.25 1.9 10.3-1.8 5.6-3.95 19.55-2 13.05-2.35 19.65l-16.75 8.25 5.6-21.8q3.8-14.4 6.25-19.95l-8.95 2.65q2.9-3.55 9.2-10.1m-10.9-17.65l4.5-1.35q-.7 4.7-2.2 9.35-3.75 5-17.35 25.25-7.15 2.5-10.25 3.7 2.8-3.4 11.1-15.55l14.2-21.4m-6.6-18.5l-15.3-18.2-13.15-15.85 15.5 5.7 16.1 5.65 6.5 7.45-9.65 15.25m37 145.9q6.95 7.6 14.45 10.1 8.9 2.95 16.85-1.95 4.75 5.4 10.6 8 2.65 1.15 6.2 1.8l-3.55 7.4-4.1 8.15q7.45 4.75 13 10.95-3.3 5.3-11.65 8.85-7.4 3.1-16.3 3.9-8.55.8-13.95-.95-5.8-1.9-4.75-5.9 2.8-10.5-1.75-24.65-3.75-11.55-9.85-19.6-5.2-6.8-8.75-18.8-3.7-12.65-2.85-22.35 1.55 9.6 5.95 19 4.4 9.55 10.45 16.05"/><path fill="#c26e00" d="M272.05 155.25q-20.25 9-44.4 35.75-21.35 23.7-42 56.85l-2.2 2.7-2.15 1.75q12.5-26 38.1-58.05 27.6-34.55 45.75-43.75 1.15 1.05 4.25 2.55 2.4 1.1 2.65 2.2"/><path fill="#c26e00" d="M265.15 158.85l7.35-3.5q-.6 3.35-8.7 17.95-7.25 13-11.85 19.95-1.3 1.95-3.2 1.7-1.95-.25-1.95-2.65 0-2.45-.85-8.5t-1.7-9.9l4.25-3.55q.15 3.3 1.7 11.75.75 3.8 3.5.2 1.65-2.2 5.6-10.25 4.1-8.3 5.85-13.2"/><path fill="#69392b" d="M285.45 279q2.1 3.1 5.9 6.6 3.4 3.1 6.25 4.85 3.4 7.15 6.55 16.9l-1.05 2.75q-4.8-.5-10.15-3.85-5.7-3.55-7.7-7.75 1.95.45 5.2-.65-2.75-3-5.3-7.15l4.25-.25q-3.15-6.3-3.95-11.45"/><path fill="#0d131a" d="M263.55 147.8q4 3.55 6.8 4.7 4.45 1.75 1.75 7.15-4.2 8.4-9.75 18.2-6.25 11.05-9.75 15.9-2.1 2.85-4.2 2.45-2.05-.4-2.3-3.6-.6-7.65-2.3-16.5-26.65 24.3-58.35 73.15l-1.55 1.8-1.9 1.6q-1.05.65-1.4-.4-.25-.8.05-2.6l.45-2.2q10.15-24.85 34.7-61.45 22.25-33.25 35.05-45.75 1.5-1.45 3.2-1.35 1.8.05 3 1.75 2.6 3.6 6.5 7.15m-11.5-5.95q-10.45 10.3-33.55 44.45-25.9 38.3-35.95 61.8-.35.8-.55 2.7l2.15-2.45q45.5-74.55 86.35-93.5-.4-.35-.95-.55-3.25-1.3-7.55-5.05-4.1-3.55-6.6-7.05-1.55-2.15-3.35-.35m19 15.2q-12.1 5.6-25.5 17.5l1.2 8.1q.75 5.95.9 9.65.1 2 1 2.15.55.1 1.3-.45l1.45-1.45q2.75-3.85 9.3-15.65 5.7-10.2 9.6-17.95l.75-1.9"/><path fill="#0d131a" d="M241.45 166.1q1.05-2.5 2.65-5.7 1.75-3.4 2.75-4.8 1.15-1.6 3.6-3.65 2.4-2.1 4.5-3.35 1.3-.8 1.7-.25.35.55-.9 1.45l-4 3.35q-2.2 2.05-3.25 3.5-2.65 3.6-6.2 9.95-.7 1.25-1.05 1.05-.4-.2.2-1.55m25.8-8.2q-2.25 5.35-6.25 13-3.95 7.7-6.9 12.35-1.35 2.1-2.75 2-1.35-.15-1.9-2.35-1.1-4.45-1.85-11.4l1.8-2.1q1.05 10.2 1.75 13.1.4 1.4 1.55-.3 2.5-3.75 6.05-10.9 3.35-6.8 5.55-12.3l2.95-1.1m20.6-46.8q-6.45 5.75-16.15 17.3-8.25 9.8-12.85 16.4l-1.35-1.55q5.1-7.1 13.35-16.65 9.8-11.35 16.2-16.8 2.25-1.9 2.65-1.3.4.6-1.85 2.6"/><path fill="#0d131a" d="M285.05 125.75q-.3 8.35-1.7 9.6-2.65 2.35-9.55 5.85-6.9 3.45-12.9 5.5l-1.2-1.1q5.25-1.8 12.55-5.65 7.1-3.8 9.75-6.15.8-.8 1.25-7.6.45-6.7.05-11.65l1.35-1.2q.65 4.9.4 12.4m-46.1-11.2q1.35 4.9 5.45 13.6 3.75 8 6.85 13l-1.35 1.4q-3.25-5.1-7.15-13.85-3.95-8.85-5.2-13.8-.4-1.8.25-1.95.65-.15 1.15 1.6"/><path fill="#0d131a" d="M239.85 119.55q-.6 3.4-.9 9.5-.25 6 .15 6.85.7 1.15 4.05 3.6 3.15 2.35 6.15 4l-1 1.15q-3.25-1.75-6.35-3.85-3.8-2.6-4.65-3.95-.7-1.15-.05-8.7.6-7.3 1.55-10.9l1.05 2.3m111.85 72.3Q306.1 170.15 297 166q1.2 8.35 2.25 18.5 1.15 11.15 1.5 18.35.05 1.4-.4 1.45-.4.05-1.3-.8L281 185.95q-11.75-11.55-15.4-15.5l.9-2.2 31.7 30.9q-.35-7.1-1.45-18.55-1.1-11.35-1.95-16.2-.3-2 1.6-1.05 39.95 18.6 52.45 24.6l-14.6-25.8-13.85-24 1.65-1.55 14.45 24.7q12.1 20.9 16.5 29.15 1.5 2.8-1.3 1.4"/><path fill="#0d131a" d="M384.85 86.25Q380.6 89.3 353 111.9q-27.65 22.6-37.45 31.05-1.45 1.2-1.85.75-.45-.45.95-1.85 8.1-8 32.15-28.2 22.75-19.15 31.8-25.95-12.15 2.6-30.5 7.85-18.5 5.3-28 8.9l1.55-3.1q12.9-4.5 30.65-9.4 19.5-5.45 31.9-7.75 1.95-.35 2.15.25.2.55-1.5 1.8"/><path fill="#0d131a" d="M333.5 86.8l-18 24.85q-1 1.45-1.6 1.1-.55-.35.45-1.9 18.45-28.35 32.3-45.35-11.6 5.3-24.65 12.15-12.6 6.65-22.95 12.85l.7-2.55q29.1-17.7 50.8-26.75l1.75-.2q.3.4-.7 1.65-6.45 8.1-18.1 24.15"/><path fill="#0d131a" d="M335.3 2.25q-13.7 33.05-37 92-.7 1.65-1.3 1.4-.6-.25 0-1.95 7.4-20.7 16.75-44.85 10.6-27.5 16.6-40.7Q311.1 27.55 289.7 55q-19 24.45-29.15 41.35-.7 1.25-1.35.95-.6-.35.15-1.65 12.55-22 31.55-46.55 20.95-27.1 42.75-48 1.5-1.4 1.95-1.05.45.4-.3 2.2"/><path fill="#0d131a" d="M262.45 91.75Q258.55 78.3 250.2 53l-12-35.75q-.25 17.9.1 44.25.35 25.05 1 42.55.1 1.7-.6 1.75-.65.05-.8-1.65-1.35-16.7-1.9-45.9-.6-29.05.05-47.45.1-2.3.8-2.3.6.05 1.35 2.05 4.5 12.1 12.75 37.4 7.9 24.4 13 41.6l-1.5 2.2"/><path fill="#0d131a" d="M237.95 92.95l-22.95-22 4.85 14.7 5.1 15.55q.55 1.65-.1 1.85-.65.25-1.25-1.35-6.2-16.85-11.7-34.2-.35-1.25 0-1.55.4-.3 1.45.7 17.95 16.6 24.55 23.8l.05 2.5"/><path fill="#0d131a" d="M188.15 83.35q20.2 6.9 34.4 12.95l.4 2.3q-13.4-5.7-31.75-12.1l18.3 21.8 18.75 22.15q.5.65.15 1.25-4.8 7.95-13.25 20.35-8.95 13.15-14.25 19.85l28.1-9.95-.45 2.25-15.05 5.45-15.8 5.55-1.55.05q-.3-.45.55-1.5 4.65-5.55 14.6-20 9.6-13.9 14.85-22.5l-19.45-23Q191.1 89.8 187.15 84.8q-.85-1.1-.5-1.45.3-.4 1.5 0"/><path fill="#0d131a" d="M223.25 177q3.85-7.7 5.3-16.65.3-1.7.95-1.6.65.15.45 1.85-.6 6.8-3.1 12.4l-3.6 4m22.95 9.7q-3.8 16.6-5.4 39-.95 13.15-1.25 31.9-.15 9.35 2.05 18.9 2.65 11.55 7.9 19.25 8 11.75 11.6 23.5 4.15 13.6 1.05 23.45-.4 1.35-1.05 1.2-.6-.15-.3-1.55 2.25-10.45-2.05-23.5-3.65-11.2-11.2-21.85-5.55-7.9-8.45-19.85-2.5-10.15-2.35-19.55.2-16.15 1.95-34.35 2.35-24.15 6.65-41.5l.85 4.95m73.95 57.95q1.65-9.55 2.4-18.25l2.6 1.7-1.35 11.05-3.65 5.5M304.7 309q-5.5 12.5-11.45 20.55-.95 1.3-1.5.95-.6-.35.35-1.75 5.95-9.25 11.45-23.1l1.15 3.35"/><path fill="#0d131a" d="M209.35 388.2q-15.25 21.55-25.55 37.25 10.05-7.65 27.35-19 16.15-10.6 31.3-19.65 1.2-.75 1.6-.4.4.35-.2 1.7-5.4 12.6-13.25 38.95-8.4 28.4-12.1 48.25l22.85-35.2q17.1-26.05 28.55-42.65.7-1.05 1.25-.95.55.05.75 1.3 2.75 18 7.65 44.7 5.35 28.9 9.1 45.4 5.05-16.3 11.45-47.85 6.55-32.05 8.1-48.5.1-1.15.6-1.25.45-.05 1.1.95l25.4 41.15q17.6 28.8 25.3 42.05.4-39.3-17.5-81.3-9.95-23.4-22.6-40.7-12.7-17.45-26.1-26l1.1-1.9q28.85 18.4 49.85 67.75Q355 414.9 359.6 438q4.55 23 3.05 40.9-.1 1.35-.6 1.6-.5.2-1.3-1.15-17.15-28.95-51-84.6-2 18.45-8.75 51.35-6.8 33.05-11.5 47.15-.45 1.45-1.05 1.4-.55 0-.9-1.5-3.6-15.15-9.2-45.35-5-26.95-8.15-46.85-12.45 18.2-30.5 45.7-15.25 23.15-22.25 34.25-.95 1.5-1.6 1.45-.7 0-.35-2 3.1-18.8 11.55-48.25 7.85-27.3 13.75-41.9-14.95 9.05-32.1 20.5-16 10.65-28.2 19.6-1.35 1-1.8.6-.4-.4.45-1.85 9.9-16.35 26.7-39.7 15.1-20.95 24.8-32.5 1.1-1.4 1.65-.95.55.4-.55 1.8-7.1 8.95-22.4 30.5"/><path fill="#0d131a" d="M179.65 372.65q14.9-12.35 40.9-26.45 26.05-14.2 41.3-18.2l.3 2.35q-14.65 3.9-38.35 16.35-23.8 12.55-39.15 24.5 7.85-1.85 20.6-4.25l21.15-3.7-1.35 2.1q-9.55 1.45-23.7 4.3-14.3 2.8-21 4.55l-1.7-.1q-.2-.45 1-1.45"/><path fill="#0d131a" d="M188.7 387.5q10.7-12.9 16.7-19.7l3.3-.55q-5.4 6.05-16.1 18.9 15.2-4 21.75-6.5l-1.8 2.7q-8.8 3.15-22.8 6.75l-1.6-.1q-.3-.45.55-1.5m43.95 30.1q-10.4 9.95-22.45 18.3-1.45 1.05-1.8.7-.35-.3.25-1.9l5.45-16.35 5.05-15.75 2.6-1.9q-7.3 24.25-9.85 31.35 13.15-9.55 21.45-17.75l-.7 3.3m34.6 24.15q-4.4 7.55-8.85 14.15-.6.9-1.1.8-.55-.05-.7-1.3-2.35-21.9-2.75-32.5l1.8-2.1q.5 10.3 2.75 31.05l8.75-14.35q5.2-9.15 7.7-14.9l.6 3.65q-3.05 6.75-8.2 15.5m35.9-12.15q9.6 14.2 21.8 31.4l4.45-36.05 1.6 2.55-4.3 36.55q-.1 1.1-.65 1.2-.55.05-1.15-.75-9.9-13.75-22.35-32.25l.6-2.65M239.7 224.75q-18.95 9.95-56.2 25.7l3.1-4.45q34.3-14.45 53.25-24.2l-.15 2.95m-60.7-130Q131 76.1 93.85 61.9q-71.5-27.2-87-31.5 30.4 26.85 73.8 63.2 42.05 35.25 64.75 53 1.2.95 1.1 1.55-.1.65-1.75.7l-47.6 1.85-49.35 3.1q24.15 9.05 74.45 25.85Q159.9 192.3 190.2 202q.8.25.9.9.1.6-.5 1.15-15.15 14.05-33.5 33.25-17.5 18.25-29.2 32.1 26.1-9.8 53.8-21.35l-.5 3.4q-31.3 13.15-58.55 23.35l-2.2.1q-.4-.55.65-1.85 13.3-16.15 30.75-34.7 19.3-20.5 35-34.6-31.5-9.85-72.35-23.4-51.75-17.2-74.45-26-1.9-.75-1.8-1.5.05-.8 2.1-1.1 15.6-2.15 47.05-3.9 32.65-1.8 53.5-1.5Q111 123 74.75 92.7 30.65 55.85 1.1 28.4-.2 27.15.05 26.5q.3-.65 2.1-.25 21.3 5.1 92.85 32.6 53.05 20.4 81.9 32.5L162.25 59.2q-10.15-22.05-17.3-36.85-1.2-2.45-.45-3 .75-.55 2.85 1.25 20.9 18.3 71.75 64.4l.9 4.5-35.4-31.65-34.15-30.45q14.05 27.45 29.85 65.95.55 1.3.2 1.6l-1.5-.2"/><path fill="#0d131a" d="M171.95 77.3q-7.05-3.9-22.45-11.5l-23.35-11.45q6 8.75 19.05 25.7L140.75 79 130.3 64.9q-6.35-8.8-9.8-14-2.35-3.6 1.55-1.85 10.4 4.65 25.85 12.4l22.55 11.8 1.5 4.05M36 94.4q26.15.85 49.55 4.6l2.25 2.45Q65.15 98.7 42.6 97.7q35.8 18.95 93.3 49.95l-4.85.25q-15.95-8-47.35-24.7-29.8-15.9-48.45-26.25-1.65-.9-1.4-1.75t2.15-.8m582.9-70.15q-33.55 24.3-89.65 65.85-62.9 46.6-84.6 63.6 36.25 5.45 74.75 12 45.45 7.8 64.6 12.25 1.8.4 1.75 1.3-.05.85-1.9 1.1l-109.5 14.9q-83 11.5-99.8 15.6 12.85 16.95 32.65 45.45 21.3 30.7 34.45 51.55 1.05 1.65.55 2.2-.55.55-2.05-.5L374.7 263.5q-43.8-30.55-57.2-39.4-2.1-1.4-1.75-2.05.4-.65 2.55.6 14.1 8 56.2 37.3 35.15 24.45 61.8 44.05-18.7-28.25-65.2-93.2-1.15-1.6.8-2.15 22.85-5.2 94.35-15.5 67.6-9.75 109.3-14.25l-62.2-10.75-72.4-12q-1.65-.3-1.8-1.05-.15-.7 1.15-1.75 24.65-19.45 81.75-62 57.9-43.1 88.85-65.05-36.45 9.55-110.85 33.45-59.35 19.1-103.65 34.4-1.75.65-2.05 0-.3-.55.55-1.75l17.55-25.05 20.4-29.8q-14.95 9.4-40.15 26.7-23 15.8-41.9 29.5l-6.25 1.4Q364.4 80.1 391.3 61.6q28.35-19.55 46.55-30.45 1.45-.85 1.95-.5.55.4-.5 2.05-22 34.25-40.1 57.95 46.35-16.6 108.2-36.5 74.75-24 110.35-32.4 2.4-.55 2.85.2.4.75-1.7 2.3"/><path fill="#0d131a" d="M456.7 48.45q.35.65-1 2.2-12.75 17-27.6 31.85l-4.6 1.05q10.15-10.2 26.05-29.7-12.1 6.05-36.2 15.35l1.4-3.45 18.05-7.55 21.45-9.45q2.1-.95 2.45-.3M602.8 87.4q-28.45 13.85-78.7 35.95-50.55 22.2-76.9 32.4l-4-.9q22.8-9.1 71.2-30.45 46.7-20.55 77.95-35.15l-37.3 4.25-37 3.2 3.05-2.6 41.2-4.2 39.8-4.85q2.15-.35 2.4.55.25.85-1.7 1.8M308.6 236.15q3.3 3.25 6.4 9 1.6-5.3 2.95-7.95.65-1.2 1.5-.35.95.9 2.8 3.75l-.65 2.15-2.55-3.45q-2.2 4.5-3.05 8-.2.85-.65.9-.4.05-.8-.65-.95-1.95-2.85-4.65l-3.3-4.3q-3.45 10.35-3.5 19.9-.05 1.55-.7 1.6-.6 0-.7-1.55-.25-4.7.8-10.85 1.05-6 2.9-11.15.3-.7.65-.8.25-.05.75.4"/><path fill="#0d131a" d="M296.65 256.75q.35-3.35.95-5.75.25-1.3 1.45-.35l5.15 5.15-.15 2.25q-2.55-2.95-5.2-5.3-.6 2.15-.75 6.05l-1.45-2.05M286.2 279.7q1.95 6.3 4.1 10.65.5.95-.7 1.15l-2.6.25q1.75 2.9 4.1 5.7.85.9-.4 1.25l-3.75.65q2.3 3.55 7.1 6.3 4.75 2.7 9.45 3.25l-1 2.15q-5.4-.8-10.65-4.3-5.45-3.6-7.2-7.75-.6-1.35.7-1.2l3.65-.35q-2.45-2.7-4.65-6.3-1-1.7.8-1.35l3.1.1q-2.15-4.35-4.15-10.85-.2-.6.05-.9.15-.2.75-.3l5.4-.5.8 1.75-4.9.6"/><path fill="#e07f00" d="M359.95 262.4q2.4 2.6.35 5.85-1.45 2.25-5.55 5.35-7.3 5.55-19.2 22.65-10.35 14.9-14.85 24.4-.95 2.05-1.75 9.5-.5 5.05-.75 10.4-.1 2.5-1.4 3.6-1.35 1.1-4.2.9-1.7-.15-3.7-1.55-2-1.4-2.65-2.85-.5-1.15.15-5.9l1.3-8.2q.8-5.1-2.9-17.45-3.1-10.5-6.65-17.95-1.85-3.9-5.9-10.5-4.05-6.7-7.4-11.3-2.35-3.3-2.25-6.5.05-2.95 1.85-3.9l9.55-2.9q1.6-.6 2.85 1.05 1.2 1.5 1.6 4.15 1.4 8.85 4.7 15.85 3.8 8.15 7.7 7.3 3.1-.7 3.9-10.8.6-7.7-.2-15.6-.3-3.35.7-5.7 1.1-2.5 3.05-2.5l10.5 2.5q1.8.15 2.2 1.95.4 1.6-.45 3.9-.8 2.15-2.35 7.8l-2.5 10.25q-.9 4.05.05 7.05.65 2.1 2.75 4.7 4.95-2.95 10.5-12.35 4.3-7.3 5.9-12.4 1-3.15 2.9-4.45 1.6-1.1 3-.3l9.15 3.95"/><path fill="#fff" d="M293.35 254.75q1.05 2.2.4 4.3-.6 1.9-2.25 2.9-1.7 1.05-3.45.55-2-.5-3.2-2.75-1.55-2.9 0-9.15 1.3-5.25 3.25-8.25 1.45 4.4 5.25 12.4m34.95-19.6q-.35 2.8-.05 8.35l.5 8.25q.2 3-1.45 4.65-1.5 1.5-3.7 1.3-2.25-.2-3.75-2.05-1.7-2.05-1.65-5.3.05-3.55 3.7-8.55 3.2-4.5 6.4-6.65m33.2 20.5q-1.2 3.5-1.65 6.15-.4 2.25-2.25 3.25-1.65.85-3.6.35-2-.5-3-2.15-1.1-1.85-.3-4.4 1.25-3.85 6-6.85 4.3-2.7 7.95-2.85-1.65 2.1-3.15 6.5m-54.5 86.3q1.7 2.15 4.75 2.8l4.55-.25q-.1 3.15-2.25 8.75-1.9 4.85-3.6 7.5-2.45-2.85-3.25-9.2-.6-4.75-.2-9.6"/><path fill="#e07f00" d="M132.55 268.4l11.95-13.6q-.55-1.2.1-3.1l6-7.8q6.8-2.75 14.55 5.5 6.7 7.15 15.2 19.75 8.35 12.4 11.8 20.15 1.1 2.4 2.85 3.05l4.85-.15q3.05-.7 8.9-3.55 5.65-2.75 9.15-5.2 3.2-2.15 6.6-1.45 3.4.7 4.85 3.8 1.4 3 .4 5.05-.9 1.9-4.2 3.5-3.25 1.55-12.35 6.4l-12.1 6.5q-4.35 2.35-5.85 7.8-1.5 5.4-1.35 18.05.05 3.2-2.35 4.5-2.1 1.2-5.1.55-2.95-.6-4.7-2.5-1.9-2.15-1.1-4.75 1.25-4.15.65-11.2-.65-7-2.85-13.5-2.8-8.2-13.7-17.35-12.7-10.65-28.65-14.95-2.5-.65-3.55-2.2-1.15-1.6 0-3.3"/><path fill="#fff" d="M133.75 244.8q3.65-1.95 8.95-2.05 4.5-.1 7.05.9 2.1.8 2.55 2.85.4 1.8-.6 3.65-1.05 1.9-2.8 2.5-2 .7-4-.75-5.05-3.7-11.15-7.1m9.75 9.65q2.35 3.3-.1 5.95-2.4 2.55-4.95.65-5.2-4-13.65-8.15 4.85-2.55 10.55-2.15 5.85.4 8.15 3.7m-5.65 7.75q2.95 2.7.45 5.9-2.55 3.25-5.2.8-1.7-1.6-4.95-3.25-3.15-1.6-6.25-2.45 3.4-2.8 8.8-2.9 4.95-.05 7.15 1.9m43.6 73.05q1.25 2.2 4.4 2.8l6-.4q-1.75 4.75-7.45 8.45-5.55 3.6-11.35 4.15 2.5-2.55 4.8-7 1.6-3.05 3.6-8"/><path fill="#854c3b" d="M244.5 237.95q.25 2.05.3 6.35l-.25 7.1q2.1-1.25 6.4-2.35-.25 3.1-.9 5.85l2.25.2q-.4 3.45-2.45 6.65l5.6-.5q-.25 2.25-2.2 7.85l-3.2 8.8q1.6.9 4.4 1.35 0 2.85-1.85 7.45 2.1 2.4 6.45 4.8-1.95 1.25-5.6 5 .35 2.1 2.85 6.75-7.35 2.5-18.7-1-9.85-3.05-13.6-7 4.2-1.75 5.5-3.95 1.2-2 .2-4.8-.65-1.85-2.75-3.4-2.3-1.65-4.5-1.5-.3-11.95 7.35-26 7.05-12.95 14.7-17.65"/><path fill="#c26e00" d="M152.3 247.85q6.45.55 18.7 16.45 9.55 12.4 15.75 24.05 2.85 5.4 6.35 7.25 3.6 1.9 8.2.2 5.15-1.85 12.6-5.4 8.3-3.9 13.3-7.05 3.65 2.7 3.2 5.95-.55 3.65-6.1 6.05-5.95 2.6-13.15 6.3-7.25 3.7-9.6 5.4-3.35 2.35-5.4 6.25-1.95 3.65-2.1 7.45-.15 4.3.2 11.5.1 3.9-3.55 5.5l-7.35-.2q2.5-4.6 1.1-15-1.45-10.55-5.8-18-6.15-10.55-18.05-19.1-11.5-8.25-23.35-11.15-3.25-.75-4.5-2.45-1.1-1.5-.35-3.3 2.85 2.55 5.5.15 2.7-2.45.35-6.2l.45-1q2.4 1.5 4.4-.8 2-2.3 1-5.2l.85-.4q-.6-1.8-.15-3.05 2.1 1.85 4.6.55 2.55-1.35 2.9-4.75"/><path fill="#dbdcdc" d="M142.9 246.5q5.95 1.7 8.5 3.55-.95 2-2.7 2.65-2 .7-4.25-.9-7.25-5.2-10.65-7 3.3 0 9.1 1.7m-18.5 6.5q4.3-.3 9.5 1.5 5.7 2 9.7 5.65-1.05 1.25-2.5 1.6-1.75.45-3.4-.9-2.15-1.75-6.1-4.2-4.6-2.8-7.2-3.65m-2.3 10.1q3.65-.55 8.85.85 5.2 1.45 7.3 3.7-.4 1.5-2.15 2-1.85.6-3.15-.7-1.65-1.65-5-3.4-3-1.55-5.85-2.45m63.1 74.95l6.2-.2q-1.55 4.5-7.45 8.35-5.85 3.8-10.55 3.5 3.05-1.15 6.95-5.3 3.3-3.5 4.85-6.35"/><path fill="#69392b" d="M253.55 296.3q.8 3.55 2.9 6.85-5.95 2.1-16.95-.3-11.3-2.5-15.6-7.4 3.2-1.3 4.9-3.45 2.05-2.65 1.1-5.85 5.8-1.7 11.25-3.9 6.35-2.55 8.85-4.5 1.9 1.15 4.2 1.5l-.55 3.65-1.1 3.5q1.05 1.3 3.1 2.85l3.45 2.3q-3.4 2.35-5.55 4.75"/><path fill="#c26e00" d="M360.9 266.35q-.85 2.85-4.3 5.65-7.75 6.25-20.8 24.1-12.95 17.7-15 24.65-1.55 5.2-1.85 8.7-.7-3.5-5.1-4.25-4.35-.75-6.25 2.1.85-5.8-3.15-18.95-3.2-10.5-6.6-17.6-3.4-7.15-9.75-16.75-4.9-7.35-5.1-9.5 2.2 3.05 6.3 2.25 3.8-.75 5-3.35.25-.55.7-.5.5.05.6.85.9 6.1 4.3 12.6 4.3 8.3 9.35 8.5 4.6.15 7-8.9 2-7.7 1.35-15.9-.05-.65.35-.8l.8.05 5 .15q2.95-1.05 4.05-3.45.85-1.7.85-3.5 1.75.35 2.35 1.6.65 1.45-.35 3.85-1.7 4.1-3.25 10.35-1.6 6.3-1.8 9.7-.25 4.3 1.2 7.15 1.55 3.1 4.85 3.9 3.85-2.45 9.6-11 4.8-7.2 6.4-11.3.5-1.4 1.6-.3 1.05 1 3.6.95 3-.05 4.6-1.9l1.55-1.35q.75-1.05.95-1.9 1.7 1.45.95 4.1"/><path fill="#dbdcdc" d="M307.3 342q1.45 2.05 4.4 2.7l4.55-.3q-.35 2.8-1.45 6.5-1.15 3.75-2.2 5.45-.45-2.2-2.15-2.5-1.75-.3-2.45 2-.9-3.45-1.1-7.8-.15-4.2.4-6.05m-23.15-88.15q.85 3.65 4.9 3.8 4.05.1 4.25-2.95 1.55 2.4.25 5.05-1.25 2.55-3.8 2.85-2.8.3-4.55-2.25-1.8-2.65-1.05-6.5m43.6 1.2q-1.4 2.4-4.45 2.35-3.15-.05-4.55-3.5-1.4-3.3.05-6.45.5 3.2 4.3 4.15 3.8.95 5.4-1.35.5 2.7-.75 4.8m23.45 2.15q.25 2.3 3.75 2.95 3.45.6 5.4-1.2.1 2.95-1.35 4.75-1.55 2.05-4.35 1.9-2.9-.15-3.95-2.85-1-2.65.5-5.55"/><path fill="#0d131a" d="M245.55 237.75q.55 5.9-.1 12.2 3.4-1.55 5.35-1.95 1.1-.2 1.05.9-.15 2.5-.9 5.3l1.15-.1 1.05.1q.3.25.2 1l-.75 3-1.4 2.8 4.1-.75 1.25.05q.25.35 0 1.25-1.45 5.9-5.7 15.8 1.45.75 3.8.75 1.05 0 .9 1.15-.5 3.6-2.15 7.1 2.3 2.15 6.15 4.35 1.05.65 0 1.45-3.45 2.5-5.35 4.55 1 3.1 2.95 6.05l.3.9-.7.55q-5.45 1.85-15.55.15-11.8-2-18.6-7.95l2-1.6q4.9 4.35 14.3 6.75 9.3 2.35 16.05 1.05-1.7-3.1-2.55-5.8-.1-.55.25-1 2.05-2.25 4.75-4.25-3.45-2.1-5.65-4.45-.35-.35-.1-.9 1.4-3.25 1.75-6.2-2.6-.3-4.2-1.5-.55-.35-.3-1.05 2.85-6.3 5.4-14.95l-4.85.15q-.55-.05-.7-.4-.2-.4.15-.85 1.55-2.15 2.35-5.7l-1.5-.15q-.75-.2-.55-1l.5-2.15.25-2.3q-2.8.85-5.3 2l-.9.15q-.2-.2-.15-1 .5-6.05.1-11.55-7.7 5.45-14.2 19.65-6.2 13.65-5.75 22.6l-2.45.15q-.25-11.45 6.4-24.95 6.85-13.85 16.3-20.05.65-.45 1.1-.25l.45.9M135.2 245q6.25 3.3 10.75 6.7 1.15.85 2.7.2 1.85-.8 2.55-3.5.25-1.1-.05-2.05-.35-1-1.25-1.5-2.65-1.4-6.95-1.35-4.3.05-7.75 1.5m17.7.6q.55 1.55.15 3.25-.95 3.7-3.75 4.8-2.45.95-4.35-.45-5.25-3.95-11.6-7.65-1.05-.6 0-1.2 3.7-2.15 9.1-2.45 5.35-.3 8.45 1.4 1.4.75 2 2.3"/><path fill="#0d131a" d="M141.95 254.15q-2.5-2.3-7.8-2.45-4.65-.15-8 1.25 5.8 2.4 13.05 7.7 1 .7 2.2.2 1.3-.6 1.95-2.25.9-2.35-1.4-4.45m3.3 1.8q.5 1.75-.1 3.3-1 2.6-3.3 3.4-2.05.7-3.5-.45-7.8-5.85-14.1-8.55-.6-.25-.6-.6t.5-.65q3.9-2.4 9.75-2.45 6.2-.05 9.3 2.85 1.5 1.45 2.05 3.15"/><path fill="#0d131a" d="M123.55 263q6.25 1.7 10.45 5.5.95.8 2.25.2 1.3-.6 1.85-2.1.7-2.15-.8-3.45-2.3-1.9-6.5-1.95-4.15-.05-7.25 1.8m-1.75.95q-1.35-.3-.3-1.25 3.5-2.95 8.85-3.15 5.2-.25 8.1 2.2 2.6 2.2 1.4 5.3-.95 2.6-3.25 3.4-2.2.8-3.6-.5-1.9-1.7-4.85-3.35-3.45-1.95-6.35-2.65"/><path fill="#0d131a" d="M155.85 242.15q4.05.65 7.35 3.6 6.6 5.85 15.85 19 9.6 13.65 14.15 24.35 1 2.25 2.65 2.6 1.3.3 4.3-.55 2.85-.8 8.75-3.8l9.3-5.25q3.45-2.2 6.95-1.25 3.1.85 4.9 3.7 1.85 2.8 1.2 5.75-.75 3.2-4.35 4.9-15.55 7.2-25.1 12.9-2 1.1-3.3 2.85-1.3 1.75-2.35 4.65-1.45 3.9-1 16.55.15 4.4-3.7 6.35-1.9 1-4.8.7-3.15-.3-5.1-2-1.35-1.15-1.9-2.85-.5-1.75 0-3.4 1.05-3.45.35-11.45-.7-8.2-2.55-12.55-4.45-10.55-15.7-19.3-11.3-8.8-25.15-12.45-4.2-1.1-5.35-3.75-1.05-2.3.6-3.8l1.4 1.2q-.65 1.1.05 2.15.95 1.25 3.95 2.05 14.2 3.7 26.15 13 11.9 9.3 16.45 20.1 1.85 4.3 2.4 12.85.6 8.45-.6 12.4-.8 2.55 1.1 4.15 1.6 1.35 3.8 1.75 2.2.35 4-.5 2.35-1.2 2.2-4.65-.45-12.3 1.4-17.3 2.3-6.2 6.6-8.7 5.05-2.9 12.35-6.7 7.55-4 12.75-6.4 2.6-1.2 3.05-3.45.45-2-.95-3.9t-3.65-2.4q-2.55-.55-5.05 1-3.75 2.35-9.65 5.15-5.95 2.85-9 3.7-3.4 1-5.35.6-2.7-.55-4.05-3.7-4.5-10.4-14.05-23.8-9-12.55-15.65-18.5-2.8-2.45-5.7-3.2-2.65-.65-4.25.4l-2-1.45q2.25-2.05 6.3-1.35"/><path fill="#0d131a" d="M145.55 252.55q-.35 1.4.5 2.3.8.85 2.55 1.05 6.35.65 13.5 7.05 7.6 6.85 9.75 15 .4 1.5-.2 1.65-.65.2-1.15-1.25-2.65-7.95-9.65-14.05-6.5-5.75-12.5-6.4-2.75-.25-4.05-2-1.35-1.8-.6-4.45l1.85 1.1m-6.2 9.15q.2 1 1.55 1.9 1.25.9 2.7 1.15 4.8.95 10.55 4.9 5.95 4.05 8.9 8.65.95 1.45.35 1.8-.55.35-1.5-1-3.1-4.2-8.8-7.85-5.45-3.55-10-4.5-2.4-.55-3.95-2-1.75-1.7-1.55-4.1l1.75 1.05m53.85 74.9q-1.25 5.4-8 9.9-6.4 4.25-12.25 4.45-.7.05-.9-.4-.2-.45.3-1 2.45-2.65 4.85-7.05 2.4-4.25 3.45-7.85l1.45 1.7q-.95 2.95-3.05 6.65-2 3.5-4.1 6.05 4.6-.8 9.3-4.2 4.65-3.4 6.55-7.2l2.4-1.05m135.75-93.45q.1 4.55.5 8.4.35 3.4-1.55 5.4-1.65 1.7-4.1 1.7-3.05 0-4.9-2.35-1.95-2.5-1.6-6.45.35-3.45 3.5-8.15 3.35-5.05 7.3-7.3 1.2-.7 1.05.75-.3 3.05-.2 8m-1.3 8.45q-.75-9.7-.1-15.1-3.15 2.45-5.7 6.85-2.35 4-2.65 6.65-.3 3.05 1.25 5 1.4 1.65 3.35 1.65 1.75 0 2.85-1.3 1.2-1.4 1-3.75m-38.85-9.55q2 6.2 5.45 12.55 1.65 3.05.05 6-1.65 2.95-5.15 2.95-3.6 0-5.3-3.95-1.6-3.75.35-10.1 1.3-4.4 3.3-7.6.4-.6.75-.55.35.05.55.7m.35 19.6q2.25 0 3.45-2.05 1.2-2.05.05-4.25-2.85-5.55-4.65-11.25-2 4.05-2.75 7.85-.85 4.25.25 6.9 1.25 2.8 3.65 2.8m66.9-8.05q-3.75 2.9-4.5 5.5-.7 2.3.55 4 1.2 1.65 3.3 1.65 2.95 0 3.65-3.6.5-2.6 1.5-5.5 1.25-3.5 2.7-5.6-3.45.7-7.2 3.55m-.65 13.1q-2.95 0-4.75-2.05-2-2.35-.95-5.95 1.05-3.45 5.75-6.8 4.85-3.45 9.15-3.45.6 0 .85.35.2.35-.2.8-1.4 1.8-2.8 5.75-1.1 3.15-1.7 6.2-.9 5.1-5.35 5.15"/><path fill="#0d131a" d="M328.45 251.35q2.65 0 3.6 2.15 1 2.15-.5 5.15-1.9 3.9-3.6 11.55-1.4 6.45-1.5 9.4-.05 3 1.15 5.5 1.25 2.5 3.2 3.1 1.4.4 1.25 1-.15.6-1.4.4-3-.5-4.7-3.6-1.55-2.8-1.45-6.45.1-3.95 1.55-10.3 1.55-6.9 3.55-11.4 2-4.45-1.3-4.75l.15-1.75m-12.15 2.05q-.6 2.45-.4 5.85.5 8.7-.3 15.85-1.05 9.5-4.1 10.35-4.15 1.2-7.9-4.95-1.95-3.25-3.85-9.45-1.85-5.85-2.35-10-.55-4.55-3.55-4.1l-.25-2q2.2-.45 3.8 1.1 1.65 1.6 2 4.65.5 3.8 2.3 9.45 1.8 5.75 3.6 9.05 2.85 5.25 5.5 4.3 2-.7 2.7-9.35.6-7.35.05-14.85-.3-4.2.95-7.3 1.35-3.4 4-4l-.35 2.1q-1.25.9-1.85 3.3"/><path fill="#0d131a" d="M360.05 261.15q2.2 1.05 1.9 4.45-.35 3.7-4 6.7-8.2 6.7-18.2 19.95-10.2 13.45-17.9 28-1.8 3.4-2.8 20.9-.15 2.95-2.95 4.4-3.35 1.65-7.55-.9-4.2-2.55-3.85-5.85l1.55-9.95q.45-2.95.4-5.45-.1-2.45-.7-5.65-.65-3.35-2.85-10.25-2.4-7.45-4.85-13.3-2.75-6.65-14.2-24.1-2.5-3.9-2.3-7.65.15-3.55 2.45-4.65l.75 1.8q-1.4.85-1.2 3.25.25 2.65 2.4 5.95 10.7 16.3 14.2 24.65 2.4 5.85 4.8 13.55 2.2 6.95 2.85 10.45.75 3.75.9 5.9.25 2.95-.2 5.85l-1.7 9.75q-.2 2.5 2.9 4.3 3.05 1.75 5.45.6 1.5-.75 1.65-2.95 1.1-17.7 3.2-21.7 7.85-14.85 18-28.45 10.2-13.65 18.4-20.3 2.35-1.85 3.15-4.45.7-2.3-.3-3.05l.6-1.8"/><path fill="#0d131a" d="M347.8 260.1q-.9.95-1.7 3.3-1.8 5.5-7.05 13.85-5.9 9.4-9.75 11.4l-1.45-1.35q3.3-1.15 9.05-10.45 5.25-8.4 7.2-14.25 2-5.95 6.95-5.35l-.5 1.75q-1.8.05-2.75 1.1m-30.35 83.5q-2.5 11.6-6.35 17.6-.45.75-1.1.1-2.75-3.05-3.7-9.8-.9-6.05.05-10.15l1.5 1.75q-.65 3.5 0 8.4.75 5.35 2.6 8.05 3.2-5.6 4.95-14.6l2.05-1.35"/></svg>