<svg xmlns="http://www.w3.org/2000/svg" width="606" height="465" viewBox="-0.45 0.1 605.7 465.15"><path fill="#fccf00" d="M25.45 38.85q-3.15 6.95-3.3 14.25-.15 6.8 2.3 10.45 3.25 4.9 4.05 13.95.75 8.1-.7 14.25-.85 3.75.3 7 1.2 3.3 4.1 4.8 3.05 1.6 4.2 4.15 1.2 2.85.45 7.55-.8 5.25 1.05 9.65 1.95 4.7 5.7 5.1 3.9.4 6.45 4.85 2.55 4.5-2.25 4.8 5.65 2.15 8.85 5.75 3.3 3.75 2.4 7.4-.55 2.35-.15 3.75.4 1.55 2.05 2.25t1.85 2.7q.2 1.75-.65 3.75-.85 1.85 1 3.6 1.9 1.8 4.7 1.05 2.6-.65 4.7 1.35 1.3 1.25 2.9 4.2 1.2 2.3 3.65 4.75 2.7 2.7 5.25 3.75l-.45-3.3-.3-3.45q3.15 2.75 7.15 5.6 1.4 1 2.1 3.4.55 2.05.4 4.3-.15 2.9 1.45 4.7 1.85 2.1 4.4 0 1.05-.9 2.4-1 1.4-.1 1.85.9.75 1.85 2.6 1.05.8-.3 1.5.25.7.6.85 1.8.15 1.2 1.35 2.15 1.1.9 2.25.9l48.6 18.6q1.65 1.55 3.65 1.25 2.05-.3 2.8-2.4.85-2.4 2.3-2.1 1.45.3 1.25 3.1-.15 2.75 1.7 3.6 1.85.8 1.85-1.95 1.05.75 1.45 2.1.4 1.35-.2 2.55-.6 1.3-.15 2.55.55 1.45 2.05 1.5 2.5.15 4.15 1.65 1.7 1.5 2.05 4.1.25 2.4 2.8 4.25 2.6 1.95 5.75 1.8.1 4.9-1.5 16.75-1.65 12.35-1.65 15.2-12.3-18.1-29.25-29.1-17.95-11.65-38.4-13.55-3.2-.3-5.85-1.75-2.65-1.45-4.2-3.7-6.25-8.9-23.95-20.75-17.2-11.55-24.45-12.4-2.85-.35-4.45-1.4-1.8-1.2-2.55-3.4-5.95-17.85-14.55-33.65-9.5-17.5-18.75-25.7-2.3-2.05-4.05-6.1-1.55-3.7-1.8-6.9-.85-11.55-4.4-21.55-4-11.25-11.1-19.35l2.35-.3 3.2.4q.85-8.3.7-12.6-.05-2.45 1.55-7.65 1.55-5.15 2.9-6.95-.5 3.6-.15 7.3.3 3.65 1.25 5.55 0-1.65.65-3.5l1.2-2.8q.6 3.5 2.25 5.25.05-5.15 2.3-10.7 2.35-5.8 6.2-9.65"/><path fill="#fccf00" d="M160.45 220.2q-2 2.65-7 5.35-5.2 2.75-11.25 4.25-15.15 3.75-23.35-3.05-5.1-4.25-6.85-13.25-1.65-8.6.8-14.8l44-33.2 15.4 8.05q14.1 6.7 36.4 24.55 20.2 16.15 42.1 37.25-6.05 2.3-10.3 6.55 4.45-.6 8 .2 3.8.8 6 3-3.75 1.75-3.55 5.15.9-1.1 3-1.6-.75 1-.6 2.7.1 1.45.6 2.3.7-5.3 6.2-5.3l4.1.4q12.85 13.15 22.45 24.5 9.9 11.75 14.6 19.55 17.9 29.65 13.7 53.75l-1.8 10.65q-1 6.5-.8 10.2-2.4-1.4-5.05-2.4 0 2.4-.75 4.8-2.2-1.8-4.6-4.55-.85 5.75-.8 8.7-2.6-1-5.85-1.75-.3 3.15-1.85 6.05-2.25-2.25-7.6-5.45-6.1-3.65-12.1-5.85-9.5-3.55-16.45-9.85-8.45 2.55-17 1.4l-.1.1q-2.1 2.95-5.45 5.1-3.85 2.5-8.2 3.15l-1.85 2.3-1.5 2.4-2.15-2.9-2.35-2.6q-1.6 2.9-3.9 4.6-1.95-2.4-2.7-5.2-1.95 4.1-6.25 3.3.2-3.55-8.5-14.9-4.65-6.05-6.95-16.5-2.65-12.3.65-21.9h.15q-2.95-11.4-2.9-27.8.1-14.2 2.35-29.65 1.5-10.25 1.3-19.7-.25-12.45-3.45-21.05l.15-.05q-6.15-6.85-13.85-6.15-7.95.65-14.3 9.15"/><path fill="#fff" d="M150.1 198.65q1.1 3.35.65 7.6-.45 4.15-2 6.05-1.8 2.15-7.55 3.95-5.9 1.85-9.85 1.4 2.8-5.15 8.9-10.95 4.8-4.6 9.85-8.05"/><path fill="#dbdcdc" d="M150.1 198.65l.6 2.8q-8.25 6.1-18.85 16.3l-.5-.1q2.8-5.15 8.9-10.95 4.8-4.6 9.85-8.05"/><path fill="#0d131a" d="M143.05 203.8q2.25 1.7 2.95 4.95.7 3.25-.7 5.6-1.2.8-3.65 1.7l-3.95 1.05q-1.55-2.2-1.8-5.6l7.15-7.7"/><path fill="#fccf00" d="M577.25 14.05q.55 1.45 1.35 2.3.8.85 1.55.85 1.55 0 3.35-2.8.7-1.15 2.15-1.75.2 1.3-.65 2.75-.75 1.4-2.1 2.4-2.5 1.95-2.6 3.55-.15 1.6 2.3 1.1-1.85 1.65-3.7 3.95l-2.5 3.1q-3.05 3.25-9.15 6.9-5.1 3.05-11.3 5.35-4.85 1.85-10.1 6.8-5.25 4.95-8.25 10.55-3.55 6.55-8.9 12-5.55 5.6-11.65 8.65-2.4 1.2-2.85 3.6-.55 2.9 2.55 5.55l-4 .4q-2.25-.2-3.4-1.15.95 2.6.7 4.4-.25 1.8-1.75 3.35-.45-2.25-2.05-3.5-2.15 8-10.05 11 1.25-1.7 1.85-4.35.6-2.6.3-4.8-.8 2.5-2.15 4.15-1.45 1.7-3.1 2-1.7.3-3.45 2.05-1.8 1.7-2.8 4-2 4.4-7.2 5.75-5.7 1.4-7 5.65-3.15 10-11.75 14.6-7.7 4.1-14.65 1.75-2.6-.85-5.7.4-3.25 1.35-3.25 3.7-.8-.2-1.45-1.4-.6-1.15-.6-2.3-.6.65-1 1.75-.35 1.1-.3 2.25-1.2-.9-1.8-3.3-.7-2.55.25-3.75-3 0-5.05 1.4-2.3 1.5-3.15 4.55-1.6 5.95-7.25 8.2-5.35 2.2-10.35-.2-3.8-1.8-8.2.15-4.55 2-6.15 6.5-.95 2.7-2.8 4.8-1.65 1.85-3.4 2.6-.25-2-1.2-4.3-.9 2.7-2.65 4.7-1.9 2.2-4.25 3 1.05-2.3.85-4.95-.25-2.8-1.65-3.15-2.05-.55-4.3 1.95-2.4 2.65-.15 4.8-2.6 1.4-3.9.45.6 2.05 1.6 3.85 1.05 1.85 2.1 2.6-4.95.2-7-3.1 0 3.05-1.55 5.7-1.8 3.15-5.2 4.2-2.15.7-3.65 2.4-1.35 1.55-1.9 3.55-.5 1.9-3.05 4-2.55 2.05-5.5 3l.85-4.65-3 2.2q-1.65.95-3.3 1-3.1.1-3.85 2.85t2 4.25q-1.05 2.05-2.85 2.4-1.65.35-3.15-.9-3.75-3-1.5-9.05-1.85.25-3.05 1.7-1.2 1.45-1.3 3.75-.1 2.4-3.15 3.85-3.15 1.5-5.6-.1-3.9-2.55-6.9-1-2.8 1.45-3.1 5.3-.25 3.15-1.85 5.55-2 2.9-5.35 3.6-3.4.75-5.65 3-1.9 1.95-2.35 4.3-.75 3.85-3.45 5.45-.5-1.95-1.75-3.6 0 3.5-1.55 5.6-.35-1.55-1.9-3.3-1.6-1.75-3-2.15 1.2 2.4 1.65 5.4.4 2.85 0 5.1-1.1-2.65-2.95-2.5-1.75.15-3.1 2.65-1.7 3.2-4.95 4.65-3.7 1.6-8.6.55-5.05-1.05-11.2 1.25-5.85 2.2-10.35 6.5-3.25 3.1-12.35.55-9.25-2.6-9.25-7.4-.05-5.85 5-13.6 3-4.65 8.85-11.2l14.75-16.8q1.45-2.05 2.7-2.9 1.25-.95 3.55-1.6 37.95-10.4 60.4-22.8 29.3-16.3 52.6-45.4 1.9-2.35 5.35-2.9 51.65-8.3 97.1-27.65 50.65-21.6 52.45-41.55 2.05.85 3.15 3.05l1.9-3.6q1-2.25 1.2-3.65.35 2.35.75 3.3.5 1.35 1.35 1.3 1.05-.05 2.65-1.9 1.65-1.9 2.15-3.85.45-1.8 2.9-3.85l4.05-2.65q-.45 1.45.6 1.8 1 .35 2.2-.65l7.1-5.15q1.6-.85 2.2-.2l1.25.2q.9-.2 1.5-.7 3.35-2.6 7.9-4.45 4.8-1.95 8.6-6.2 3.45-3.9 4.25-7.4"/><path fill="#cc5d00" d="M208.05 368.85q2.05-.4 4.1-3.15.7 2.4 2.6 4.95l4.05-4.2q2.6 2.1 4.05 4.75l-1.45 11.3q-.2 2.6-1.5 4.25-1.35 1.6-4.2 2.7-4.4 1.7-9.85 7.45-5.25 5.6-8.05 11.25.65 4.2 3.65 7.45 2.8 3.05 7.1 4.75 2.9 1.15 2.4 4.1-1.45-.25-3.2 1.25-1.75 1.5-1.75 2.85-1 .45-2.5-.3-1.4-.8-1.95-1.95-.55-1.1-2.3-2.9l-2.75-2.4q-.55-.35-2.55-1.2-1.8-.8-2.65-1.4-1.55.35-4.55 3.35l-4.7 5.2-2.15 2.3q-1.35 1.6-1.9 3.3-.7 2.15-1.8 3.65-1.3 1.65-2.6 1.85-.3-1.75-3.2-2.9-3.05-1.25-5.4-.1-1.2-1.5.3-3.65 1.05-1.55 3.85-3.75-.95.7-4.5 2.25l-5.25 2.35q0-2.2-2.25-3.65-1.9-1.25-3.9-1.15l1.3-3.15q-.35-.95-1.1-1.8-.75-.8-1.6-1.2 1.3-1.9 3.7-3.5 2.7-1.8 4.8-1.7 2.55.15 5.1-1.2 1.15-.65 2.75-.85l2.85.15 6.2-3.35 8.65-5.3q2.85-4.55 8.95-12 6.1-7.35 8.8-9.6 2.35-1.9 3.45-6.85.7-3.05.95-8.25"/><path fill="#fff" d="M159.2 432.45q-.1 1.05-5.75 3.4-5.7 2.4-8.4 2.45 1.35-2.65 3.35-5.6 2.65-3.9 4.45-5 1.3-.85 3.85.6 2.75 1.55 2.5 4.15m-4.85-7.2l-.95 1.8-5.05 1.85q-3.2.95-5 1.15.95-1.65 3.5-4.55 2.6-2.95 4-3.85 1.2-.75 2.35.4 1.2 1.15 1.15 3.2m19.05 13q.05.95-4.3 5.1-4.1 3.9-6.05 5.05.05-2.75.55-6.75.7-5.4 1.55-6.4 1.25-1.4 4.7-.2 3.5 1.2 3.55 3.2m37.5-13.75q1 .35 2.95 4.35 2 4.25 2.3 7.25-1.3-.25-5.6-3.55-4.35-3.35-4.4-4.25-.1-.95 1.8-2.55 1.9-1.55 2.95-1.25"/><path fill="#cc5d00" d="M326.5 390.65q.7 1.65.75 4.35.1 4.65 2.6 12.4 2.4 7.65 5.4 12.9 1.95-.15 4.3 2.4 1 1.05 2.7 1.8l2.4.75q.85.1 2.25.75 1.45.65 2.45 1.45 1.35 1.1 7.8 1.1 1.55 0 2.4.7.75.6.8 1.5-2.25-.45-3.6 1.6-1.35 2.15.6 3.95-.65 1.7-2.55 1.7-1.7-.05-2.85-1.35-1.7-1.95-4.9-3.35-2.7-1.15-5.3-1.45 1.2 2.45 1.95 3.55 1.3 2 3 3 1.85 1.15 3.35 3.95 1.4 2.7 1.35 4.7-2.35-1.85-5.05-.75-2.65 1.1-1.9 3-3 .15-4.55-4.55-.55-1.7-1.75-3.2-1.1-1.45-2.2-2.05-.85-.45-3.95-2.85-1.55-1.25-3.5.95-.6.7-1 3.65-.45 2.95 0 4.1.45 1.2-.1 2.2-.6 1.05-1.75.95-.3-1.75-3.95-1.2-3.65.55-4.2 2.3-1.75-.9-1.7-3.3 0-2 .9-3.2 1.25-1.8 1.05-6.5l-2.7.7-2.45.9q-2.1.9-3.35 0 .4-1.5-.6-3.45-.95-1.9-2.4-2.4-.05-1.15 1.1-1.9 1-.6 2.3-.6l3.2-.55 3.1-.9q.95-.35 2.8-3.95 1.55-3.15 2.3-5.5-1.55-5.9-4.95-13.5-3-6.8-5.55-10.9-1.8-2.85-6.75-8.3-5.15-5.65-9.55-9.5.85-1.7 1.1-4.35 1.65 0 5.7 1.05-.15-2.7 1-8 3.1 3.55 4.7 4.55.5-1.8.5-5 1.8.25 3.6 1.4.95 4 5.6 11.3 4.35 6.8 6.95 9.05 2.25 1.95 3.1 3.9"/><path fill="#fff" d="M309.25 437.9q-.45 1.3-3.9 2.4-3.45 1.15-5.75.75.5-2.7 2.95-5.75 2.2-2.75 3.4-2.9 1.05-.1 2.35 2.15 1.3 2.2.95 3.35m11.8 26.25q-.95-1.2-2.4-7.1-1.35-5.75-1.2-7.35.15-1.75 4.15-2.35 3.95-.55 4.15.85.3 2-1.3 7.75-1.65 6-3.4 8.2m23.5-14.7q-.6-.7-.05-1.7.85-1.5 3-1.8 2.15-.3 3.7.8 1.75 1.25 1.55 7.05-.2 6-2.45 8.05-.55-2.65-2.5-6.8-1.85-3.9-3.25-5.6M360 430.7q2 .5 3.7 4.6 1.75 4 1.45 7.3l-4-3.75-3.85-3.05q-1.6-1.05-.35-3.3t3.05-1.8"/><path fill="#f1d8e8" d="M243.65 48.85q2.1-1.25 5.35-.65l2.35-.25 1.75-1 1.75-2.4q1.2-1.9 1.5-3.15.45-1.9-1.9-3.65 1.8-.4 3.35 1.5.6.8 1.7.4.95-.35 1.5-1.2 1.6-2.25 5.05-4.2 3.85-2.15 6.55-1.7 1 .2 1 .8-.05.6-1 1.05-3.65 1.85-5.5 5.15-1.95 3.5-.7 6.75 2.1 5.7-7.35 8.3-2.3.65-2.8 2.55-.45 1.9 1.55 2.45 1.1.3 1.35 1.3.3 1.05-.5 1.85-.7.75-.9 2.15-.15 1.35.25 2.45.65 1.7-1.6 4.4-2.4 2.9-6.45 4.8-2.5 1.15-6.05-.45-1.4-.65-2.9.25-1.45.9-2.05 2.65-.9 2.5-.25 4.25.8 2-.8 3.45-.95.85-1.3 2.5-.4 1.55 0 2.8.9 2.75-1.75 4.25l-4.7.15-2.6-.25q-1.6.35-2.35 1.5-.3.45.2 2.2.45 1.65 1.1 2.6 1.3 2-3.35 5-1.05.7-2.9.95-1.75.3-2.85 0-3.05-.75-5.65 1.25-1.3 1-1.2 2.1.1 1.15 1.8 2.25.85.55.85 1.7.05 1.45-1.6 2.65-1.75 1.25-1.5 4.15.05 1.4-.7 3-.55 1.2-3.25 4.6-.5.6-.05 1.25.4.65 1.15.5.75-.2.9.4.2.55-.4 1.55-.55 1-2.65 2.05-1.9.95-3.35 1.2-2.2.3-6.95-2.5-1.8-1.1-3.95.05-2.35 1.2-1.95 3.9.45 3.05-2.05 4-1.3.5-1.7 2-.4 1.55.25 3.7.6 2.1 2.45 2.2 1.8.05 2.2-1.55.4-1.5 2.2-1.95 1.8-.5 2.7.8.7.95 2.25.35 1.6-.55 2.6-2.2.65-1.1 1.15-1.15.5-.05.45 1.1-.15 1.95-2.3 5.35-.7 1.15.7 1.95.55.3.25.95l-1.15 1.1q-2.1 1.2-3.25 2.9-1.05 1.55-1.05 3.15l-.5 2.05-1.05 2.3q-.8 2.35-4.6 4.35-4.25 2.2-7.35.45-1.7-.95-3.95-.25-2.3.65-3.75 2.5-1.5 1.85-4.25 1.9-1.95 0-4.85-.95-5.6-1.8-10.15.5-4.75 2.4-6.3 8.35-1.9 7.6-5.1 10.25-3.9 3.15-12.45 2.35-3-.3-5.9 1.45-3.15 1.9-4.85 5.5-.8 1.7-2.15 2-1.5.35-2.65-1.25-2.05-2.75-2.1-5.95-.05-2.85 1.5-7.25 1-2.8-1.4-3.45-2.35-.6-5.4 1.3-3.85 2.4-5.4-.15-1.35-2.25-.65-5.8.75-3.65 3.2-5.15 2.6-1.55 3.4-4 .8-2.45-.3-5.35-1.5-3.75.7-6.45 2.25-2.75 7-2.65 3.7.05 4.6-3.25.95-3.3-1.6-7.35-1.85-2.95-.35-4.85 1.4-1.75 4.3-1.4 1.9.25 2.7-1.8.65-1.6.6-4.15-.25-7.65 6.2-7.1 3.15.25 4.6-1.95 1.45-2.25.3-5.6-.85-2.35-.45-3.9.4-1.65 2-1.85 1.5-.2 2.4-2.95 1-2.85-.2-4.65 1.45 1.45 4.3 3 1.55.85 1.9 2.9.3 2-.6 4.1l2.5-1.3q1.4-.55 1.75-.15.6.7-2.2 4.8-1.45 2.15.9 3.15 1 .45.9 1.55-.1 1.1-1.15 2.05-1.3 1.3-1.2 2.55.2 1.45 2.25 2.2 3.2 1.15 2.2 6.05-.6 2.65 2.25 3.65 2.8 1 4.75-.85-1.35-.8-1.6-3.6-.25-2.75.8-4.15-.2 1.85 1.45 3.1l3.15.1q2.25-1.95 2.4-5 .15-3.15-1.95-5.9-1.2-1.55-1.2-3.7 0-2.1 1.1-3.9 1.3-2 3.6-.85 1.35.65 2.6-.95 1.2-1.55.9-3-.35-1.7.7-2.85.95-1 2.6-1.25 1.85-.25 2.25-1.75.4-1.35-.45-2.9-2.3-4-6.55-1.75-3.1 1.6-5.35-.7-2.3-2.3-.15-4.8 1.65-2 .85-4.15-.85-2.15-4.05-3.65 2.35-1.15 5.1-.3 2.85.9 3.45 3.25.35 1.55 1.9 2.85 1.6 1.4 3.25 1.4 1.7 0 2.95-1.8 1.05-1.45 1.55-3.8.4-2 1.35-3.2.9-1.15 2-1.2.95-.05 1.4 1.3l.55 3q.2 1.55 2.15 1.4 1.9-.1 2.45-1.3.55-1.1 1.7-.9 1.1.15 2.05 1.4.8 1 2 .6 1.45-.55 2.65-3.1.7-1.5.3-3.2-.4-1.5-1.8-3.85-1.4-2.3-.85-4.2.45-1.55 2.45-3.4 2.15-2.05 4.95-1.4 1.6.35 3.1-1.25t.5-3.45q-1-1.8.8-4.15 1.6-2.05 3.7-2.85 2.15-.75 3.65.4 1.6 1.2 2.15 4.15.3 1.65 1.8 2.05 1.4.45 3-.4 2.35-1.15.75-4-.55-.9-.1-1.45.45-.55 1.55-.45 1.8.05 1.6-3.15-.15-3.2 2.55-4.85 2.65-1.6 3.3 1 .25 1 1.2 1.35l1.8.1q.8-.2 1.05.55.2.7-.3 1.5-.9 1.35-.15 2.8.7 1.4 2.05 1.4 2.25 0 4-2.45 1.95-2.65 1.9-6.5-.05-2.8 2.15-4.1"/><path fill="#e73820" d="M203.45 106.6q1-.75 1.35-1.9.25-.7.5-.7t.55.6q.55 1 .3 2.2-.15.85-1.05 1.8l-1.55 1.2q-.85.35-.15 2.15.4.95.1 1.85-.2.6-1 1.3-.85.7-1.65.85.3.85 1.8.95.75.05.9.25l-.15.85q-.55 1.25-1.45 1.9-1 .75-2.25.5-1.7-.3-2.05 1.95-.3 1.7-1.9 2.1-1.75.45-3.75-1.05-1.05-.85-2.35-.4-1.1.35-1.45 1.25-.5 1.3-1.7 1.95-.95.5-.6-.45.6-1.45-1.4-3.9-1.75-2.1.6-4.2 1.5-1.3 1.85-3 .3-1.35-.2-2.7l-.05-.45.7-.1q1.95.1 3-1.05.3-.4 1-.35.6.05 1.25.4.6.3 1.7-.55l1.45-1.6q.75-1.45 2.1-.55.65.5 1.3.2l.85-.8 1.9-.1q.6.3 1.5-.4m-78.85 39.1q1.9-.7 3.5-3.3.35-.6.55-.55.2 0 .3.75.2 1.75 1 2.7.85 1 2.2.9 1.8-.15 2.35 1 .5 1.15-1 2.45 1.4.4 1.85 1.5.45 1.2-1.15 2.25-2.65 1.6-2.7 4.4-.1 2.7 2.25 3.65 5.1 2.1 7 6 .3 1.35-1.45 4.55-2.4 4.15-2.6 8.3-.05 1.2.4 1.35.35.1.8-.4l2.45-2.15q2.85-2.15 2.15 1.55-.3 1.6.8 1.75 1.05.15 1.85-.95.95-1.3 1.8-.8.95.55.4 3.45l.05-.05q-1.9 6.6-5.15 9-3.85 2.75-11.95 1.95-3-.3-5.9 1.45-3.15 1.9-4.85 5.5-.8 1.7-2.15 2-1.5.35-2.65-1.25-2.05-2.75-2.1-5.95-.05-2.85 1.5-7.25 1-2.8-1.4-3.45-2.35-.6-5.4 1.3-3.85 2.4-5.4-.15-1.35-2.25-.65-5.8.75-3.65 3.2-5.15 2.6-1.55 3.4-4 .8-2.45-.3-5.35-1.5-3.75.7-6.45 2.25-2.75 7-2.65 3.15.05 4.35-2.45 1.15-2.45-.2-5.9 1.65-2.5 5.15-3.75"/><path fill="#e73820" d="M192.25 146.9q1.8-.5 2.7.8.7.95 2.25.35 1.6-.55 2.6-2.2.65-1.1 1.15-1.15.5-.05.45 1.1-.15 1.95-2.3 5.35-.7 1.15.7 1.95.55.3.25.95l-1.15 1.1q-2.1 1.2-3.25 2.9-1.05 1.55-1.05 3.15l-.5 2.05-1.05 2.3q-.8 2.35-4.6 4.35-4.25 2.2-7.35.45-1.7-.95-3.95-.25-2.3.65-3.75 2.5-1.5 1.85-4.25 1.9-1.95 0-4.85-.95-4.55-1.5-8.55-.2-4.05 1.35-6.3 5.15.95-3.15.5-6.45-.1-1-1.5-.8-2.1.4-4.65 2.2-1.15.9-1.35-.5-.3-2.3-1.95-5.25-.85-4.15.4-7.1 1.15-2.7 3.65-3.5 2.05-.65 4.05-2.6 1.75-1.85 2.5-3.7.35-.8.75-.75.35.05.4.95.1 3.05.75 5.7.3 1.2 1.4 1.35.95.15 1.65-.65.65-.8 1.3-.4.7.35.4 1.55-.45 2 .75 3.35 1.35 1.55 3.4-.55 4.15-4.4 6.75-5.85.85-.5 1.35 0 .45.5-.15 1.55-1.1 1.8-.6 3.35.55 1.55 2.35 1.55 1.55 0 3.1-1.1 1.65-1.2 2.1-2.9.75-2.65 2.25-4.7 1.6-2.1 3.4-2.6 2-.5 3.3-1.5h.05q.9 1.4 2.4 1.2 1.5-.15 1.85-1.5.4-1.5 2.2-1.95m-41.65-12q.2-1.9-.85-3.05 3.1 1.2 2.25 5.65-.6 3.45 3.5 4.5 2.05 1.65 1.05 3.3-1 1.6-4.1 1.9-.7.05-1.05.5-.35.5-.05 1.3l.1.55-.55.15-1.75.25-2.9-.05q-1.4-.8-1.75-2.05-.4-1.3.5-2.35 1.75-1.95.95-4.3-.35-.95.5-2.05.85-1.15 2.35-1.7 1.55-.55 1.8-2.55M43.05 31.25q3.35-2.95 4.45-6.75.8 3.6 1.85 5.75.9 1.7 2.85 4.1 1.35 1.6-.1 6.05-1.6 4.95-5.45 7.7-1.6 1.15-1.8 3.15-.2 2.1 1.5 1.8 2.85-.5 2.85 2.25 0 1.05 1 1.3 1 .2 2.2-.45 3.15-1.8 2.6-6 5.8 3.05 7.5 8.75 1.8 5.95-2.6 9.65-3.1 2.6-2.35 7.2.25 1.75 1.1 2.3.95.55 2-.85 1.6-2 3.3-2.45-2.05 4.45-.5 7.8 1.4 2.95 5.5 4.8 3.2 1.45 4.8 4.15 1.55 2.6 1.25 5.7-.25 2.2.45 3.15.75 1.05 2.7.8 4.8-.6 5.4 4.15.25 1.75 1.7 2.7 1.5.95 2.95.3 3.45-1.45 5.05 1.35 2.75 4.9 1.9 8.9-.8 3.6-3.55 3.85-3.75.4-5.25 4.55-1.5 4.2 2.25 4 1.25-.05 2.1.7.95.85.75 2.25-.5 2.85 2.4 3.3 2.9.45 3.5-1.8 1.8 1.3 1.7 4.2-.1 2.9-2 4l2.75-.3q1.55-.7 2.25-1.8.55 1.9 1.6 2.8 1.1.95 2.4.35 2.15-1 4.4.5 2.2 1.45 2.1 3.8-.25 3.9 2.5 4.5 2.75.7 3 3.75l-6.15 44.05q-1.15 0-2.25-.9-1.2-.95-1.35-2.15-.15-1.2-.85-1.8-.7-.55-1.5-.25-1.85.8-2.6-1.05-.45-1-1.85-.9-1.35.1-2.4 1-2.55 2.1-4.4 0-1.6-1.8-1.45-4.7.15-2.25-.4-4.3-.7-2.4-2.1-3.4-4-2.85-7.15-5.6l.3 3.45.45 3.3q-2.55-1.05-5.25-3.75-2.45-2.45-3.65-4.75-1.6-2.95-2.9-4.2-2.1-2-4.7-1.35-2.8.75-4.7-1.05-1.85-1.75-1-3.6.85-2 .65-3.75-.2-2-1.85-2.7-1.65-.7-2.05-2.25-.4-1.4.15-3.75.9-3.65-2.4-7.4-3.2-3.6-8.85-5.75 4.8-.3 2.25-4.8-2.55-4.45-6.45-4.85-3.75-.4-5.7-5.1-1.85-4.4-1.05-9.65.75-4.7-.45-7.55-1.15-2.55-4.2-4.15-2.9-1.5-4.1-4.8-1.15-3.25-.3-7 1.45-6.15.7-14.25-.8-9.05-4.05-13.95Q22 59.9 22.15 53.1q.15-7.3 3.3-14.25 4.25-3.7 9.3-4 4.6-.35 8.3-3.6"/><path fill="#f1d8e8" d="M40.1 93.65q-.75-1.8-1.05-3.6-.25-1.7.6-.25 1.15 1.85 3.2 2.85 1.3.6 1.6.3.25-.25.15-1.6-.6-6.2-2.85-9.45-1.25-1.85-1.95-5.25-.7-3.3-.65-6.8 0-1.2.25-1.3.25-.1 1 .9 1.4 1.8 3.85 3.75 1.95 1.65 3.8 2.75 1.25.8 3.25 1.7 1.8 1 3.85 2.9-.4-.8-.7-3.35l.1-.9q.2-.15 1.05.35l2.6 1.1.05-.1q1 1.35 2.4-.45 1.6-2 3.3-2.45Q60.3 82.85 68 86.9v.05q.15 1.8-.45 3.2-.6 1.6-1.7 1.3-2.05-.55-2.45 1.25-.15.85-.7 1.15-.65.4-1.45-.15-1.25-.9-1.85-.6-.7.3-.2 2.05 1.55 5.1 4.2 9l.35.9q-.1.4-.9.6-2.35.65-6.45-.55-3.3-1-5.45-2.35-1-.6-1.2-.25-.25.3.5 1.25 1.15 1.45 2.9 2.4 1.9.95.9 1.35-.6.25-.6.8t.7 1q1.7 1.1 2.75 3.2t.3 2.85l-2.5.05q-1.6-.65-2.85-2.05-1.15-1.25-2.05-.65-.85.6-.15 2.15.9 1.9 2.85 1.95 2.75.1 3.5 2.45.75 2.3 4.7 8.6l1.2 2.2-1.8-1.45-5.45-5q-.75-.6-1.3-.25-.6.4 0 1.6 1.45 2.85 1.9 4.7.3 1.15-.2 1.45-.6.35-1.6-.55l-3.6-2.85q-.75-.5-1.15-.2-.45.3-.05 1 .45.95.1 2-.4 1.05-1.4 1.3-2-1.6-3.75-1.8-3.75-.4-5.7-5.1-1.85-4.4-1.05-9.65.9-5.7-1.1-8.7-.05-1.4.85-1.5.95-.15 1.75 1l2.85-.05q1.3-2.05-.7-4.25-1.05-1.15-.55-2.05.5-.85 1.8-.3 1.05.45 1.1-.7 0-1.2-1.3-2.55-.75-.8-1.45-2.5m19.7 49.85q-.75-1.6 0-2.35t2.75-.3q2.5.5 6.45 5.9l4.65 6.95q1.1 1.75 2.45 1.15 1.3-.6.75-2.85-.6-2.3.35-4.15.85-1.85 2.4-1.95 3.8-.25 2.15-4.15-.45-1.15-1.8-2.8l-2.3-2.5q-2.05-1.95.4-2.15 1.3-.1 2.75.5 1.35.6 2.4 1.55 1.35 1.3 2.15.1.8-1.2.05-2.9-.55-1.3-.45-2.6.15-1.5 1.1-1.95.25 2.1 2.55 1.95 1.25-.05 2.1.7.95.85.75 2.25-.5 2.85 2.4 3.3 2.9.45 3.5-1.8 1.8 1.3 1.7 4.2-.1 2.9-2 4l2.75-.3q1.55-.7 2.25-1.8.55 1.9 1.6 2.8 1.1.95 2.4.35l.55-.2v.1q.05 3.9-2.75 5.35-2.75 1.4-5.85-.6-3.9-2.45-6.7-3.4l-.8-.05q-.15.15.15.55 1.85 2.55 2.4 5.35.4 2.25-.05 3.95-.35 1.45-3.45 3.9-3 2.4-4.5 2.65l-2.85.15-1.05.05q-.2.15.05.85.55 1.7 1.5 3 1.05 1.5 2.2 1.75 2.4.55 3.3 2.6.9 2.05-.9 1.8-1.05-.15-1.3.6-.3.8 1.1 1.45 1.95.9 3.55 2.15 1.7 1.35 1.95 2.4.55 2.7-.15 5.5l-.15.2q-.65-1.35-1.55-1.95-4-2.85-7.15-5.6l.3 3.45.45 3.3q-2.55-1.05-5.25-3.75-2.45-2.45-3.65-4.75-1.6-2.95-2.9-4.2-2.1-2-4.7-1.35-2.8.75-4.7-1.05-1.85-1.75-1-3.6.85-2 .65-3.75-.2-2-1.85-2.7-2.05-.9-2.2-3.05 3.3 1.85 5.15.05 1.75-1.75.2-4.35-2.25-3.65-4.3-7.95"/><path fill="#e73820" d="M164.15 221.1q-2 .3-3.65-1.25 7.2-8.2 15.35-8.75 7.8-.55 12.75 6.1 1.75 4 2.65 11.8.75 6.35.7 12.85-3.15.15-5.75-1.8-2.55-1.85-2.8-4.25-.35-2.6-2.05-4.1-1.65-1.5-4.15-1.65-1.5-.05-2.05-1.5-.45-1.25.15-2.55.6-1.2.2-2.55-.4-1.35-1.45-2.1 0 2.75-1.85 1.95-1.85-.85-1.7-3.6.2-2.8-1.25-3.1-1.45-.3-2.3 2.1-.75 2.1-2.8 2.4"/><path fill="#f1d8e8" d="M330.85 66.9q-.15-4.35 4.3-6.2-.95 3.55.5 6.65.4-1.95 2.15-3.55-.4 2.8.65 5 1.15 2.3 3.6 3.15 3.9 1.35 5.75 4.95 2.05 4.1-.6 8.05-1.7 2.55-1.6 4.4.1 1.6 1.7 3.55 2.65 3.15-.1 8.55-2.85 5.7-8.6 5.7-3.25 0-4.15 2.45-.85 2.4 1.2 3.75 1.15.8.7 1.75-.4 1-2.2 1.75-2.55 1.1-2.4 2.45.15 1.5 4.35 1.35-.65.85-1.95 1.5-1.4.65-2.85.7-4.25.1-6.05 4.85-1.85 4.85 1.45 8.4 1-3.85 3.55-5.7-.8 2.55.4 5 1.25 2.65 3.7 2.35 4.1-.55 4.6-7.75.4-5.3 4.85-6.95 4.15-1.55 5.3.75 1.45 2.95 5.1 2.1 3.8-.8 5.2-5.1 2.05-6 .7-7.95-1.4-1.9-4.35-3.65-1.25-.75-.9-2.05.4-1.35 2.1-2 1.7-.65 2.15-1.45.45-.8-.1-2.3-1.25-3.3.85-6.1 1.8-2.5 4.15-2.7 2.25-.15 3.45-1.8 1.1-1.55.6-3.6-.9-3.5-2.65-5.1-1.8-1.6-4.75-1.35 1.6-1.15 4.05-1.55l4.15.25q-.45-3.95 2-7.05 2.35-2.95 5.95-3.55-3.05 6.75-1.25 11.45.75 2 2.15 2.25 1.5.25 3.15-1.65-1.3 4.4 2.75 7.85 2.95 2.5 3.35 5.4.4 3.25-2.85 5.25-4.05 2.45-3.95 4.55.15 1.9 3.4 2.4 2.6.4 2.8 3.1.25 2.9-2.6 6.25v.05l-11.75 2.1q-3.45.55-5.35 2.9-23.3 29.1-52.6 45.4-22.45 12.4-60.4 22.8-2.3.65-3.55 1.6-1.25.85-2.7 2.9l-14.75 16.8q-2.9-1.6-2.9-5.25 0-2.9 1.6-5.65 3.35-5.65-.7-7.55-4.2-2-11.65 3.45 2.55-3.55 3.5-6-3.5.05-5.05-1.7-1.55-1.8-.55-4.8 1.55 2.75 3.7 2.95 2.05.2 3.75-1.9 2.45-3.15 4.65-3.15 1.05 0 2.15.7 1.3.8 2 2.2 1.7 3.4 5.3 3.95 3.45.5 5.15-1.8-1.65-1.05-1.5-2.55.1-1.2-.55-2.4-.7-1.3-1.6-1.15l-1.75-.1-1.15-.7q-.35-.45-1.35-.75l-1.95-.05q-1.7.5-2.95-.65-1.35-1.25-.5-3.15 1.6-3.5 5.05-6.85 1.3-1.25.9-3.15-.45-2.05-2.8-3.55-4.8-3.1-6.05-8.75-1.2-5.4 1.55-8.9 2.6-3.3 6.55-3.4 4.35-.15 7.95 3.95 3.25 3.6 7 4.45 4.2.9 6.25-2.65 1.45-2.5.3-5.9-1.25-3.65-4.25-3.8 2.85-.85 3.05-2.2.05-.55-.55-1.2-.65-.7-1.2-.7.55-.55 1.3-.8l1.2-.2q1.05.15 1.6-.6.6-.8 0-1.9-.9-1.65-5.15-2.1-3.4-.4-6.45.05 3.15-5.45 9.2-6.3 6.1-.85 7.4 4 .7 2.5 1.6 4.15 1.05 2.05 1.95 1.9.9-.1 1.1-1.55.2-1.35-.25-2.5 3.7 3.85 5 9.1 1.25 5.25-.65 8.85-1.45 2.75.3 4.25 1.8 1.45 2.6-1.3.4-1.25 1.55-2.4t2.35-1.4q-1.75 3.9.05 7.15 1.7 3.1 5.1 3.3-.1-2.9 1.1-4.9 1.35-2.25 3.8-2.55 2.85-.35 4.55-2.35 1.3-1.6 1.45-3.5.3-4.1-4.1-5.25-3.25-.85-5.85-3.7-2.7-2.9-2.7-5.65 0-3.15 2.3-7.4.95-1.75.15-3.7-.9-2.1-3.3-3.45l-3.6-2.25q-1.1-.9-1.45-1.9-.4-1.25.15-2.9.65-1.9 2.4-2.75 8.3-4.05 7.55-7.75-.85-3.9.35-7.55 1.5-4.25 5.4-5.65 3.2-1.1 6.35-.35 3.65.85 4.55 3.8.9 2.9 2.95 3.2 1.8.2 3.35-1.45 1.25-1.45 3.4-.35 2.05 1 2.65 2.9.5 1.65 2.1 1.8 1.5.15 3.2-1 4.15-2.9 2.95-7.4-.35-1.25 1-2.05 1.45-.85 2.5.8.4.65 1.05.35.7-.25.9-1.15.7-2.45-2.7-4.75 2.1-.15 4.05 2 2.15 2.3 1.65 5.1 1.7-1.45 2.6-3.15 1.1-2.1 0-3.4-3.55-4.25-3.75-8.05"/><path fill="#e73820" d="M241.4 166.25q-.6 3.3.4 4.2.85.75 1.9-.6 1.1-1.3 1.85-.95.8.35.8 2.15 0 1.25.95 1.7.9.4 1.85-.4l.6-.3q.2-.05.45.3.9 1.1 3 .3 2.05-.8 2.9-2.5 1-2.1.65-4.95-.3-2.6-1.55-4.25-.6-.8-.45-1.2.2-.4 1.05-.25 1.9.45 3.45 3 1.6 2.7 1.3 5.4-.15 1.6.75 2.3.9.7 2.1-.35 1.75-1.5 3.3-.5.65.35.5.6l-.85.55q-1.9.9-2.55 2.95-.65 2 .55 2.85 1.7 1.05 1.3 3.1-.25 1.05.05 1.7.35.8 1.3.65.95-.15 1.6.65.6.7.75 1.9l-.15.15-15.55 4.5q-2.3.65-3.55 1.6-1.25.85-2.7 2.9l-14.75 16.8q-2.9-1.6-2.9-5.25 0-2.9 1.6-5.65 3.35-5.65-.7-7.55-4.2-2-11.65 3.45 2.55-3.55 3.5-6-3.5.05-5.05-1.7-1.55-1.8-.55-4.8 1.55 2.75 3.7 2.95 2.05.2 3.75-1.9 2.45-3.15 4.65-3.15 1.05 0 2.15.7 1.3.8 2 2.2 1.7 3.4 5.3 3.95 3.45.5 5.15-1.8-1.65-1.05-1.5-2.55.1-1.2-.55-2.4-.7-1.3-1.6-1.15l-1.75-.1-1.15-.7q-.35-.45-1.35-.75l-1.95-.05q-1.7.5-2.95-.65-1.35-1.25-.5-3.15 1.6-3.5 5.05-6.85 1.55-1.45.75-3.7 1.2-1 1.65-2.45.45-1.45-.1-2.65l-.2-.8q.05-.15.7.25 2 1.3 2.85 3.75.75 2.2.4 4.5m86.3-24.7q2.2-1.1.6.65-2.15 2.4-2.85 5.65-.3 1.25.5 1.85l2.15.1q1.2-.5 1.7.45.45.8.15 2-.3.95.2 1.9.45.85 1.15 1-16.15 11.75-36 20l-.35-.15q-1.1-.95-2.9-.75-.7.1-1.4-.65-.75-.75-.75-1.8 0-3.4 1.75-3.4 2.95 0 4.45-1.35 1.85-1.7 2.1-3 .25-1.15-.8-1.5-3.35-1.15-4.7-3.05-1.3-1.8-.9-4.6.15-1 .5-1 .3-.05 1.1.75 1.75 1.65 3.5 1.35 1.7-.35 1.35-2.3-.15-.85.65-1.55.9-.7 2-.4 1.2.3 2.3-1.15 1.1-1.5.1-2.8-.45-.5.1-1.1 1.25-1.5 3.1-.75 1.9.75 2.2 3.25.55 4.6 3.05 4.7 2.2.05 3-2.35.65-2.15 2.8-1.35 1.35.5 2.55-.9 1.2-1.35.95-3.15-.15-1.1.1-1.2l1.1.45.95.9q1.4-3.2 4.5-4.75M298.4 79.7q3.65.85 4.55 3.8.9 2.9 2.95 3.2 1.8.2 3.35-1.45 1.25-1.45 3.4-.35 2.05 1 2.65 2.9.85 2.85 4.15 1.45 3.25-1.4 4.1-4.85l.05.05q2.1 1.25 1.95 4.3-.15 3.1-2.35 4.85 2.3 3 1.25 5.85-1.1 3-5.25 4.05 2.2 4.05-.7 5.3-2.8 1.2-7.2-1-4.7-2.4-6.9.95-.85 1.3-.4 2.5.45 1.3 2.15 1.6 1.55.25 3.25 1.75l3.3 3.25q1.4 1.4 3.15 1.7 1.6.3 3.15-.45 1-.5 1.2-.3l-.05 1q-.5 1.8-2.15 3.05-1.6 1.3-4.05 1.8 1.25 1.75 3.8 2.1 1.5.2 1.65.45.15.3-1.1 1.25-1.15.85-3 1.05l-3.6-.35q1.25 3.25 4 3.1 1.75-.1 2.05 1.7.4 2.05-3.3 4.05-1.45.8-2.45.85-1 .05-2.25-.65-5.45-3.4-7-4-1.85-.7-6.7 0l-.65-1.3q-.25-.85.65-1.4.95-.65.5-1.65-.4-.9-1.8-1.7-1.3-.7-1.1-1.85.15-1.1 1.4-1.35 1.2-.2 1.65-1 .45-.8-.2-1.35-1.25-1.1-1.25-2.5 0-1.5-4-2.85-3.25-1.05-2.25-4.85 1.7-6.15 7.5-6.05-1.05-3.15-6-3-3.75.1-7.9 1.75-1.3.5-2.5-.95-1.15-1.5-.95-3.35 7.9-3.95 7.15-7.55-.85-3.9.35-7.55 1.5-4.25 5.4-5.65 3.2-1.1 6.35-.35m133.1-32.95q-.4-2-2.25-2.65 3.3.05 5.65 2.65 2.3 2.6 1.3 5-.85 2.1-.25 3.35.7 1.4 2.9.4-1.1 1.85-1.15 3.5 0 1.65 1 3.65 1.1 2.25.8 4.6-.4 2.8-2.7 4.85-1.45 1.25-2.4 3.5l-1.15 2.6-1.8 2.55q-1.1 1.3-.25 2.95.85 1.65 2.9 1.55 3.3-.2 4.4 3.4 1.15 3.7-2.9 5.2-2.85 1.1-1.8 3.45.35.85 1.25.85 1-.05 2.1-1.4 1.6 2.8-.65 5.45l-.05.05q-17.5 5.6-34.35 9.55 5.05-1.55 6.65-5.85 1.4-3.75-.3-6.25-2.4-3.5-1.4-6.6.95-3 4.1-3.4 2.95-.4 4-1.95 1.1-1.7-1.05-3.7-3.9-3.6-3-6.6.85-2.85 5.05-2.55 2.25.15 4.55-.75 2.65-1 3.45-2.9 1.8-4.25-.9-7.55-1.1-1.4-.25-2.6.85-1.2 3-1.3 3.5-.1 3.7-5.2.1-2.65 1.45-5.05.65-1.2.35-2.8M598.55 24.7q-2 2.25-2.5 3.75-.7 2-.75 3-.05 1.3.75 2.25.95 1.15 1.05 2.2.05.9-.55 2.4-.8 2.25-2.2 4.1-1.45 2-2.8 2.45-2.05.65-3.45 2.7-1.45 2.15-1.4 4.95.1 4.85-1.7 9.05-2.25 5.1-6.85 7.9-5.3 3.2-7 7.8-1.7 4.65 3.35 3.6-1.5 1.65-3.85 3.05-2.7 1.6-4.7 1.6 2.35 1.05 5.05.8-2.35 1-4.1 2.65-1.9 1.85-2.2 3.65-.25 1.95-2.5 3.75-2.25 1.85-4.35 1.75-2.8-.15-3.85 1.35-1.05 1.5-.25 4.35 1.1 3.85-.5 7.25-1.8 3.7-6.05 4.85-3.5.95-4.45 3.4-.95 2.5 2 3.65-4.25.05-7.2 1-3.05.95-4.15 2.8-1.15 1.8-1.3 3.2-.2 1.95 1.55 2.75 3.3 1.55 3.55 3.1.2 1.5-2.6 3.2-2.3 1.4-3.9 2.9-1.95 1.85-1.7 2.95.3 1.4 2.1 2.45 2.05 1.15 4.2.4-.2 2.05-2 3.4-1.9 1.4-4.15 1-4.5-.8-8.2.85-3.35 1.55-4.75 4.55-3.1 6.75-4.75 8.95-3.2 4.35-6.65 2.85.1 1.75 1.45 3.15 1.55 1.6 3.65 1.35-2.95 1.85-4.55 2.15-2.25.4-3.95-1.3-1.95-1.9-4.25-2.05-2.25-.1-3.8 1.6-1.5 1.75-3.1 1.85-1.55.1-2.4-1.4-.9-1.55-3.15-.95-2.4.6-3.1 3.05-.9 3-2.3 4.2-1.4 1.25-4 1.15-3.95-.15-5.8 2.1-1.8 2.15.15 3.15.95.5 1.15 1.5.2 1.05-.75 1.6-1.8 1.1-.6 2.2 1.2 1.15 3.6-.4.05 2.6-2.7 4.45l-4.65.1q-2.2-2.2-5.9-2.55-4.15-.4-6.3 2.4 3.65.45 4.6 2.8.9 2.3-1.3 3.35-1.1.55-1.4 1.25-.15.4-.15 1.5 0 1.45-1.3 2.05-1.4.6-2.5-.6-3.15-3.3-6-1.75-2.9 1.6-2 6.45l.75 3.95q.3 2.3-.1 3.2-.8 1.7-2.7 3.2-1.9 1.5-3.75 1.85-2.05.35-4.95-1-2.1-1.05-4.25-2.8-1.6-1.3-4.05-.75-2.65.6-4.5 3.15-3.15 4.45-4.9 6.35-3 3.25-6.1 4.35l-3.95-.15q-1.95-.75-2.8-2.45-1.3-2.7-4.4-4.55-3.4-2-6.2-1.2-2.85.85-4.5 2.85-1.55 1.9-1.4 4.1.15 2.15 2.6 3.15 2.55 1.1 4.9-.3-1.2 2.1-4.8 3.05-1.6.45-1.2 2.2.45 1.9 3.15 2.5 3.95.8 5.1 2.85 1.3 2.2-1.95 4.3-3.25 2.1-4.45 4.2-1.15 1.95.1 2.9 1.7 1.3 1.95 2.5.3 1.35-1.25 2.3-2.05 1.3-4.3 3.5-2.6 2.55-2.05 3.3 1.2 1.6 3.95-.05 2.75-1.6 3.45-4.25 1.45 3.15-2.2 7.6-3.45 4.2-6.8 4.65-1.6.2-3.05 1.7-1.4 1.4-1.5 2.75-.05 1.35 1.2 1.85 1.3.55 2.9-.35 2.6-1.5 4.2-1.2 1.8.3 1.5 2.95-.55 5.45 4.35 5.05 4.55-.3 7.55-3.95-.2 2.55-1.95 4.4-1.7 1.8-3.65 1.8t-2.85 1.65q-.9 1.65.8 2.7 3.8 2.45 1.9 4.5-1.6 1.6-3.4 2.35l-2.9.1q-1.3-1-3.55-.8-2.35.2-2.35 1.45 0 2.9-2.25 2.6-1.25-.2-1.8.8-.6 1 .3 2 2.4 2.7 2.3 4.85-.05 2.2-2.85 3.6-1.65.8-2.65 2.3-1.25 1.8-1.25 4.1l.2 5.05q.05 2.8-.55 3.95-1.45 2.8-4.4 4.8-3.05 2-6 1.9-2.1-.05-4.15-.85-2.3-.9-3.95-2.5-2.55-2.6-5.5-3.1-3.1-.5-6.1 1.4-5.1 3.3-9.05 2.1-4.3-1.25-4.55-7.5-.35-10-4.9-13.25-3.85-2.7-6.5.25-2.3 2.6-4.5 3.25-3.65-12.7-11.7-26.1-4.75-7.85-14.55-19.55-9.6-11.4-22.35-24.5l-4.25-.4q-5.5 0-6.2 5.3-.5-.85-.6-2.3-.15-1.7.6-2.7-2.1.5-3 1.6-.2-3.4 3.55-5.15-2.2-2.2-6-3-3.55-.8-8-.2 4.35-4.35 10.35-6.55 6.15-2.25 11.2-1.2 4.9 1.05 8.6-.55 3.25-1.45 4.95-4.65 1.35-2.5 3.1-2.65 1.85-.15 2.95 2.5.4-2.25 0-5.1-.45-3-1.65-5.4 1.4.4 3 2.15 1.55 1.75 1.9 3.3 1.55-2.1 1.55-5.6 1.25 1.65 1.75 3.6 2.7-1.6 3.45-5.45.45-2.35 2.35-4.3 2.25-2.25 5.65-3 3.35-.7 5.35-3.6 1.6-2.4 1.85-5.55.3-3.85 3.1-5.3 3-1.55 6.9 1 2.45 1.6 5.6.1 3.05-1.45 3.15-3.85.1-2.3 1.3-3.75 1.2-1.45 3.05-1.7-2.25 6.05 1.5 9.05 1.5 1.25 3.15.9 1.8-.35 2.85-2.4-2.75-1.5-2-4.25t3.85-2.85q1.65-.05 3.3-1l3-2.2-.85 4.65q2.95-.95 5.5-3 2.55-2.1 3.05-4 .55-2 1.9-3.55 1.5-1.7 3.65-2.4 3.4-1.05 5.2-4.2 1.55-2.65 1.55-5.7 2.05 3.3 7 3.1-1.05-.75-2.1-2.6-1-1.8-1.6-3.85 1.3.95 3.9-.45-2.25-2.15.15-4.8 2.25-2.5 4.3-1.95 1.4.35 1.65 3.15.2 2.65-.85 4.95 2.35-.8 4.25-3 1.75-2 2.65-4.7.95 2.3 1.2 4.3 1.75-.75 3.4-2.6 1.85-2.1 2.8-4.8 1.6-4.5 6.15-6.5 4.4-1.95 8.2-.15 5 2.4 10.35.2 5.65-2.25 7.25-8.2.85-3.05 3.15-4.55 2.05-1.4 5.05-1.4-.95 1.2-.25 3.75.6 2.4 1.8 3.3-.05-1.15.3-2.25.4-1.1 1-1.75 0 1.15.6 2.3.65 1.2 1.45 1.4 0-2.35 3.25-3.7 3.1-1.25 5.7-.4 6.95 2.35 14.65-1.75 8.6-4.6 11.75-14.6 1.3-4.25 7-5.65 5.2-1.35 7.2-5.75 1-2.3 2.8-4 1.75-1.75 3.45-2.05 1.65-.3 3.1-2 1.35-1.65 2.15-4.15.3 2.2-.3 4.8-.6 2.65-1.85 4.35 7.9-3 10.05-11 1.6 1.25 2.05 3.5 1.5-1.55 1.75-3.35t-.7-4.4q1.15.95 3.4 1.15l4-.4q-3.1-2.65-2.55-5.55.45-2.4 2.85-3.6 6.1-3.05 11.65-8.65 5.35-5.45 8.9-12 3-5.6 8.25-10.55 5.25-4.95 10.1-6.8 6.2-2.3 11.3-5.35 6.1-3.65 9.15-6.9l2.5-3.1q1.85-2.3 3.7-3.95-2.45.5-2.3-1.1.1-1.6 2.6-3.55 1.4-1.1 2.2-2.5.85-1.55.55-2.85l3.45-.5q4.7-.4 8.3-4.2 3.65-3.8 1.75-6.75 5.5 1.9 4.65 8.6-.75 6.3-5.3 9.15-.85.55-.95 1.35-.1.75.55 1.15 1.8 1 5.45-1.9l-5 5.35"/><path fill="#f1d8e8" d="M345.9 260.15q.95.3.9.55l-.85.9q-1.95 1.75-2.7 3.9-.4 1.4.6 2.25 1.05.85 2.35.2 1.2-.6 2.2.15.95.7.7 1.6-.3 1.25.8 2.65l.35.55-.6.05q-1.25-.15-2.4.35-1.1.45-1.35 1.2-.3.85-1.15 1.3l-1.75.25q-.95-.2-1.1.55-.15.8.6 1.7.65.8-.25 1.85-1 1.15-3.25 1.65-1.3.25-1.35 1.2-.05.95 1.15 1.3l5.15.2q1.45-.3 2 .35.4.55.15 1.5t0 1.5q.35.65 1.35.45l7.1-.55q1.45-.05 1.55.75.05.85-1.05 1.35-1.9.95-5.9 1.95-5.05 1.3-6.95.5l-4.35-.2q-1.65.9-3.15 4.4-1.45 3.5-4.15 4.35-2.7.85-4.25-1.55-.9-1.4-2.35-1.55-1.35-.15-2.6.8-1.3.95-2.15.45-1.05-.6.1-3.5 1.3-3.25-2.9-3.95-1-.3-3.85 1.55-1.65 1.05-1.85.9-.2-.15.7-1.65.55-1 1.6-1.9 1.35-1.2.85-2.25-.6-1.15-3.1-.65-1.4.25-1.9-.85-.45-1.05.6-1.7 3.3-1.85 4.3-3 .7-.75 0-1.85-.6-.95-1.55-1.4-1 1.3-3.25 2.05-2.45.8-4.05-.05l-.7-.6q0-.3.85-.65 3.45-1.45 3.8-3.35.35-1.75-1.6-1.75-2.25 0-7.25 1.15-1.75.4-2.2-.85-.45-1.25.65-2.25 1.2-1.1 2.95-1.85 2.05-.9 4.15-.9 2.9 0 4.8-2.05.8-.85.95-1.85.1-.95-.45-1.35-.65-.4-.6-1.05 0-.75.8-1.1.7-.35 1-1.15l.45-2.05q.2-1.2 1.05-2.1.8-.9 2.65-2 3.35-2 5.85.6 1.05 1.05.7 3.35-.35 1.95-1.3 3.35-.8 1.15-.5 2.2.3 1.05 1.4.9 1.7-.15 3.65-.9l.85-.15-.2.8q-.7 1.3-.85 3.15-.1 1.5.15 2.5.4 1.95-1.2 3.2-.7.55-.05 1.3.6.8 1.8.85 2.3.1 3.9-1.2 1.65-1.4 1.65-3.7 0-2.8 1.95-5l.65-.4.95.15q1.45.45 3.15-1 1.6-1.35 2.4-3.5.3-.9 1.7-1.35 1.45-.45 3.05 0"/><path fill="#f1d8e8" d="M339.5 201.2q.8.1.65 1.45l-1.05 9.85q-.1 1.15.2 1.65.25.45.7.1l.8-.05q.4.35.05 1.2-1.65 4.6-2.75 8.3-1.2 3.85-3 6.35-.9 1.2-.55 2.4.4 1.25 1.85.85 2.85-.7 4.25-3.4.6-1.25 1.85-2.55 1.2-1.25 1.95-1.5l1.2.15q.5.35.35 1.05-.2.85.05 1.35.3.65 1.1.3 1.3-.55 1.8.4.55 1.05 0 3.4-1.25 1.4-2.15 3.3-.85 1.7-1.1 3.1-.25 1.8-3 3.7-1 .7-2.25-.2-.85-.65-2.4-2.5-1.45.8-3.2 3.2l-2.9 4.35q-4.25 6.4-12.3 2.35-2.15-1.05-4.2-.45-2.05.6-2.5 2.3-1 3.35-3.95 3.35-2.95-.05-4.7-3.55-1.85.5-4 1.6-.35-1.15 1.1-2.9.55-.65.45-1.25-.05-.5-.5-.8-.4-.3-.2-.9.2-.6.75-1.1 2-1.55 1-3.2l-2.6.05q-1.2 1.3-3.25 2.25-1.9.8-3.8 1-1.75.15-2.3-.9-.55-.95.45-2.1 1.7-2.05 6.2-5.05 1.45-.95 1.5-2.25 0-1.2-1.2-1.65-1.1-.35-.5-1.85.6-1.45 2.05-2.45 1.95-1.3 1.55-2.85-.45-1.5-2.8-1.6-2.1-.05-4.4 2.4-2.45 2.65-3.2 6.3-.45 2.1-2.9 4.05-2.15 1.7-3.15 1.65-.7-.05-1.25-1.65-.6-1.55-.5-2.75.05-1.05 1.55-3.1 1.5-1.95 3.2-3.4 1.45-1.2 1.4-3.55-.05-1.7-.85-3.7 2.7-1.6 3.45-5.45.45-2.35 2.35-4.3 2.25-2.25 5.65-3 3.35-.7 5.35-3.6 1.6-2.4 1.85-5.55.3-3.85 3.1-5.3 3-1.55 6.9 1 .7.4 1.55.65l.15.15q-3.1 4.5-4.25 6.85-1.8 3.8-1.55 6.8.1 1.15.75 1.45l1.45-.2q.9-.55 1.55.2t0 2.2q-.65 1.4-.4 2.9.2 1.3.8 1.7.75.5 1.65-.3.8-.75 1.5-2.25 1.5-3.05 2.6-2.85 1 .2.9 3-.15 5.9 2.5 5.55 2.4-.25 5.1-3.1 2.7-2.8 3.4-5.85.7-3.05 1.8-6.25 1.1-3.15 1.75-4.05.75-1 1.5-.95m17.5 95.55q.6-1.5-.35-3.2-1.1-2 0-3.55 1.05-1.5 3.2-1.3 1.9.15 2.5-.75.55-.8-.05-1.95-.55-1 .35-1.6.9-.6 1.85.15 1.3 1 3.7.6 2.5-.5 4.1-2.3 1 .15 1.2.95.15.85-.6 1.85-1.4 1.9-.25 3.4 1.2 1.45 4.1 1.7l1.5.3-1.35.75q-1.9.85-3.25-.05-.95-.6-2.25-.6-1.2-.05-1.8.45l.9.8q.8.65.8.9l-.75.75q-1.3.85-2.75 1.15-.95.2-.95.35l.65.5q1.5.8 2.95.8l1 .2-.45.8q-2.15 2.7-5.7 2.85-3.5.1-4 2.65-.5 2.5 4 2.2 2.4-.15 3.35 1.4.95 1.65-1.1 3.4-4.4 3.6-10.35 2.8-2.65-.4-5 1.15-2.4 1.6-1.9 3.55l.7 2.55q.3 1.55.05 2.1-.25.65-1.75 1.5-1.35.8-2.4 1.05-1.85.45-3.05-2.45-.6-1.55-1.95-2-1.5-.5-2.6.75-1.3 1.45-2.65.95-1.45-.5-1.45-3 0-4.3-2.85-3.95-2.9.4-4.85 4.9l-.2.05q-1.8-4.7-5.15-5.75-2.95-.9-4.75 1.1-2.3 2.6-4.5 3.25-2.75-9.4-7.75-19v-.1q3.55 4.7 7.1 6.6 4.25 2.2 7.1-.5 3.9-3.7 10.25 2.3 4.5 4.35 11.15 3 6.25-1.25 7.25-5.3.75-3.1 1.65-4.35 1.25-1.75 3.95-2.35 2.7-.6 3.4-2.45m9.35-50.3q.35-1.25-.15-2.75-.9-2.85.75-5.35 1.6-2.4 4.1-2.3 1.25.05 1.8 2.05.55 2.1-.45 3.6-.6.95-.85 2.6-.25 1.55 0 2.6.25 1.1.65 1.4l1.55.15q1.85-.45 2.85.45 1.2 1 .35 3.35-1.05 3 .3 6.3 1.3 3.2 3.05 2.9 2.3-.4 4.4-6.35.45-1.25 1.3-1.05.95.2 2.55 2.15h.15l.4.45q1.7 1.3 1.95 2.5.3 1.35-1.25 2.3-2.05 1.3-4.3 3.5-2.6 2.55-2.05 3.3 1.2 1.6 3.95-.05 2.75-1.6 3.45-4.25 1.45 3.15-2.2 7.6-3.45 4.2-6.8 4.65-1.3.2-2.6 1.25-1.2 1.05-1.7 2.25-.75 1.45-2 2.15-1.1.6-3.25 1l.85-1.35.1-.5-.75-.2q-1.15 0-2.2-.65-.8-.5.2-.95 2.55-1.1 4.25-3.7 1.65-2.5 1.7-4.85 0-1.05-.2-1l-.65.85q-1.8 2.85-4.65 1.4-2.85-1.5-2.3-5.2.35-2.45-1-3.15-1.35-.65-3.4.7-3.15 2.2-3.6-1.15-.45-3.35 2.85-4.95 2.3-1.1 2.25-3.6-.1-2.3-1.85-3.9l1.2-1.75 1.25-2.45"/><path fill="#f1d8e8" d="M354.8 231.85q1.1.3 2.9-.6l2.4.1q1 .85.3 2.7-.4 1.05-.2 2.85.25 2 1.1 3.2.85 1.2.95 2.7.05 1.25-.45 2.15-.85 1.45-.1 3.05.65 1.35 2.2 2.6-2.3 2.9-5.5 4.9-3.8 2.3-7.45 2.35-1.6.05-1.55-1.05 0-1.1 1.75-2.15 1.1-.65 1.1-1.7 0-1.05-1.15-1.15-1.15-.05-1.1-1.35.1-1.25 1.3-1.35 1.15-.05 2.85-1.1l2.65-2.25q.9-1.05.85-4-.05-2.45-.55-4.35-.45-1.5-1.95-1.5-1.45-.05-2.3 1.2-.75 1.05-1.55.85-.85-.25-.85-1.4l.05-2.55-.35-2.6q1.95-1.6 3.3-1.7 1.25-.05.75 1.05-.4.85.6 1.1m40.25-84q1.85-1.75 4.2-2.55.8.4.95 1.9.15 1.6-.55 3.35 1.7-1.4 3.1-1.4 1.5 0 2 1.7.75 2.7-.65 5.4-1.2 2.25-3.75 4.15-.95.7-1.1 1.85-.15 1.1.5 1.55.7.45.85 1.1.1.7-.55 1.25-.65.6-2.25 1.15l-2.4.4-4.5.4q-3.3.8-2.9 2.5.4 1.75 3.7 1.3 1.95-.25 2 .85.05 1-1.15 1.7-1.05.6-2.75 1l-3.3.45q-3.9 0-5.95 2.65-2 2.55-2 7.4 0 1 .6 1.15.65.15 1.45-.8 2.4-2.85 6.2-4.25 4.35-1.6 5.85 1.15 1.05 1.85 3.4 1.35 1.15-.2 2.2-.75l2.8-1.95q-2.35 2.95-.75 3.9 1.75 1.05 7.05-1.95 1.75-1 3.6-.35 1.75.65 2.95 2.5-2.05 1.35-5.9 2.45-3.75 1.1-5.1.85-1.05-.2-1.55.35-.45.5-.2 1.2.75 1.85 3.8 1.15 1.6-.35 2.2.65.55 1-.45 1.9-.95.9-2.85 1.4l-4.25.65q-1.5.15-1.15 1.45.3 1.35 1.5 1.45 2.15.3 4.7-.65 1.25-.5 1.8.5.55.9.05 1.95-.7 1.5 2.25 2.8 3.8 1.65 2.7 4.05-1.1 2.35-4.65 1.3l-3.05-.25q-1.55.5-2.2 2.7-.7 2.35-2.6 2.95-1.75.55-2.9-.7-.95-1.15-2.25-.45-1.2.6-1.8 2.1-1.1 2.6-4.25 4.6-2.9 1.9-3.95 1.25-.9-.6-.3-3.05.55-2.35 1.85-3.8 1.1-1.25.55-2.25-.5-.85-1.5-.75-1 .1-1.3-1.2-.3-1.45 1.2-2.7 1.5-1.25 1.35-2.1-.15-.75-1.05-.75-2.5 0-5.1 1.6-3.1 1.9-4 5.05-.15-2.05.25-4.05.45-2.05 1.3-3.35.6-.9.15-1.35l-1.7-.1-2.3 1.25q-1.6 1.15-2.35 2.15-.8 1.1-2.35 1.15-1.5.1-2.8-.85-1.25-.9-.1-3.8 1.15-2.75 2.9-4.1 1.45-1.15.45-1.7l-2.6-.25q-1.35.2-3.05 1.1l-3.55 2.2q-2.6 1.75-6.45 1.2-3.8-.55-4.5-2.65-.9-2.85 2.15-5.95 2.75-2.75 5.4-3.2 2-.35 2.4-1.45.3-.9-.5-1.75-.65-.75-.35-1.55.35-.8 1.55-1.3 1.15-.5 1.1-1.25-.05-.65-1-1.3-1.05-.65-1.2-2.15-.15-1.65.95-3.5 3.1-1.2 4.75-4.25 1.45-2.55 1.45-5.45 2.05 3.3 7 3.1-1.05-.75-2.1-2.6-1-1.8-1.6-3.85 1.3.95 3.9-.45-2.25-2.15.15-4.8 2.25-2.5 4.3-1.95 1.4.35 1.65 3.15.2 2.65-.85 4.95 2.35-.8 4.25-3 1.75-2 2.65-4.7.95 2.3 1.2 4.3 1.75-.75 3.4-2.6 1.85-2.1 2.8-4.8.85-2.45 2.8-4.3M438 171.9q1.75-3.25 5.3-4.2 1.85-.45 2.55 1.05.8 1.65-.9 4.3-.85 1.35-.05 2 .55.45 1.75.45 2.35 0 5.05-1.65 1.75-1 3.05-.7 1.3.35 1.8 1.95-2.3-.2-3.7 1.2-1.45 1.45.1 3 1.5 1.5 0 2.35l-2.8.2-2.9-.15q-1.7.6-1.7 2.4 0 1.8 2.35 1.8 2.05 0 3.8-1.05-.8 2.55-2.25 3.4-1.95 1.3-.3 2.55 1.8 1.4.05 3.6-1.65 2.1-4.4 2.85-2.65.65-4.35-1.2-1.7-1.9-.65-4.75.45-1.2-.15-1.45-.6-.3-2.3.65-2 1.2-2.6-.5-.6-1.7.95-2.5 1.05-.55 1.05-1.05l-.65-.9q-.6-.55-.4-1.1.15-.6 1.1-.55.9.05 1-.7.1-.75-.5-1.65-.55-.8.05-1.15l1.8-.4q1.45-.1 1.35-1.5-.1-1.4-1.95-2.3-2.35-1.15-.55-4.3m48.85-65.45q.5-1.1 1.05-1.85h.25q4.55 1.65 1.8 5.7-2.6 3.85-7.3 4.7l-3.15.65q-1.55.5-3.25 1.7-.95.7-1 1.7-.05.9.6 1.05.65.1 1 .8.4.75.05 1.5-.35.9.1 1.35l1.7.15q1.25-.35 2.45-2.1 1.2-1.7 1.4-3.3.8.3 1.25 1.15.4.9.25 1.9-.15 1 .25 1.3l1.3-.15q1.1-.6 4.2-1.25 1.45-.3 2.2.4.7.7-.85 1.25-1.3.5-4.85 2.9l-6.75 4.6q-2.3 1.55-1.1 2.7 1.2 1.15 3.35-.45 2.1-1.6 3.2-.3 1.05 1.3-1.05 2.9-2.35 1.8-9.85 4.3-2 .7-1.65 2.45.35 1.85 3.4 2.6-2.95 0-5.7 1.55-2.95 1.65-3.85 4.2-.8 2.3-1.75 2.25-1-.05-1.05-2.6-.05-1.9-1.05-1.5-.75.3-2.4 2.35-1.65 2.1-2.7 1.85-.95-.3-.8-2.25.15-1.65-.65-1.65-.65 0-1.65 1.1-.8.8-2 2.7l-2 3.2q-1.4 2.15-2.75 1.55-1.2-.6-.95-2.1.3-1.9.55-2.7.5-1.7 1.65-3.25 1.35-1.75.8-2.55-.55-.75-3-.85-2.3-.05-2.85-2.2-.5-2 .7-4.15 1.3-2.4-.1-3.7l-6.15.15q1.3-1.45 3.8-2.05 2.45-.55 4.3.05 6.95 2.35 14.65-1.75 8.6-4.6 11.75-14.6 1.3-4.25 7-5.65 5.2-1.35 7.2-5.75m40 14.25l.2 1.8q.05 4.55-2.5 7.5-2.05 2.4-6.3 4.1-1.25.5-.8 1.55.4 1 1.45.9 2.25-.15 4.1-1.75 1-.85 1.4-.4.4.4.15 1.85-.3 2-2.15 4.1-2.05 2.3-4.15 2.15l-2.3.35q-1.3.4-1.7.9-1.15 1.35-.4 2.2.7.8 1.95.25 1.2-.55 1.7-.25.6.3.65 1.6.1 2.15 2.6.95l2.9-1.95q.85-.7 1.1-.6.25.05.35 1.15.2 2.55-.15 4.75v.05q-3.1.3-5.45 1.9-2.25 1.45-3.3 3.7-2.8 6.05-4.2 8.2l-.1-.05q-4.6 2.95-8.7.4-3.7-2.25-3.2-5.35 2.1 1.5 3.85.9 1.55-.55 1.8-2.05.2-1.15-2.55-2.2-2.35-.9-5.05-1.15-2.15-.2-2.7-2.1-.6-1.8.75-2.75 3.15-2.2 5.2-5.45-3.15 1.05-6.55.55-3.75-.55-5.2-2.8-.65-1.1.85-.55 2.3.8 5.15.1 2.5-.65 3.7-1.8-4.15-.25-6.7-2.15-2.65-2.05-1.5-4.45 1-2.2 4.2-1.45 2.45.55 5.65 2.7 3.8 2.55 5.95.2 2.15-2.3-.2-5.95-2.9-4.4.35-6.1 3.2-1.7 9.3 1.05 6.15 2.8 9.45-3 .9-1.65 1.1-1.55m45.65-77.15q-2.75 1.9-3 3.65-.25 1.8 2.35 1.7-2.95 1.2-5.9 3.6-2.9 2.35-3.7 4.15-.85 1.85-3.3 3.3-2.55 1.5-4.55 1.15-2-.35-3.3.55-1.3.85-1.2 2.3.1 1.45 2.1 1.8 2.1.35 3.9-.95 6.8-4.7 12.45-3.15 2.1.6 2.95 1.5.95 1-.35 1.45-1.25.45-1.4.95-.15.45.55.8.7.35.35 1.1-.4.8-1.65 1.1-3.4.8-4.4 3.05-.6 1.45-2.65 2.35-2.25.95-4.95.6-3.55-.5-5.55 1.05-1.9 1.5-.9 3.3 1.45 2.55-1.05 4.7-2.45 2.1-5.85 1.6-3.05-.4-4.3 1.75-1.2 2.1 2 2.3 2.1.15 2.65 1.7.6 1.6-2.2 2-3.05.55-1.85 2.75.75 1.3-.75 3.95-1.7 2.95-4.8 4.35.95-1.9.35-3.2-.6-1.35-2.45-.5-7.25 3.45-9.45.65-1.45-1.85-1.15-4.6.35-2.6 1.55-3.05 2-.8 3.8-2.45 2-1.85 1-2.7-1.15-.95-2.65-.7-1.65.25-2.35 1.9-1.5 3.45-3.3 3.3-1.05-.1-.3-2.7.8-2.8 3.4-4.05l5.65-3.05q2.65-1.75 1.85-2.85l-1.75-.05-2.95 1q-1.2.35-2-.7-.5-.6-1.7-3.2v-.1q4.75-3.3 8.9-8 4.1-4.65 6.95-9.85 3-5.6 8.25-10.55 5.25-4.95 10.1-6.8l.8-.3q1.75.65 2.25 2.45.5 1.9-.8 3.35-1.55 1.7-.7 3.3.85 1.65 3.3-.35 8.15-6.65 11.7-6.65"/><path fill="#e73820" d="M243.65 48.85q2.1-1.25 5.35-.65l2.35-.25 1.75-1 1.75-2.4q1.2-1.9 1.5-3.15.45-1.9-1.9-3.65 1.8-.4 3.35 1.5.6.8 1.7.4.95-.35 1.5-1.2 1.6-2.25 5.05-4.2 3.85-2.15 6.55-1.7 1 .2 1 .8-.05.6-1 1.05-3.65 1.85-5.5 5.15-1.95 3.5-.7 6.75 2.1 5.7-7.35 8.3-2.3.65-2.8 2.55-.45 1.9 1.55 2.45 1.1.3 1.35 1.3.3 1.05-.5 1.85-.7.75-.9 2.15-.15 1.35.25 2.45.65 1.7-1.6 4.4-2.4 2.9-6.45 4.8-2.5 1.15-6.05-.45-1.4-.65-2.9.25-1.45.9-2.05 2.65-.9 2.5-.25 4.25.8 2-.8 3.45-.95.85-1.3 2.5-.4 1.55 0 2.8.9 2.75-1.75 4.25l-4.7.15-2.6-.25q-1.6.35-2.35 1.5-.3.45.2 2.2.45 1.65 1.1 2.6 1.3 2-3.35 5-1.05.7-2.9.95-1.75.3-2.85 0-3.05-.75-5.65 1.25-1.1.8-1.2 1.85 0-2.75 1-5.85 1.05-3.25 2.5-4.5 1.65-1.45 1.85-3.85.25-2.45-1.3-2.9-2-.55-1.85-2.05.2-1.45 2.15-1.6 2.35-.15 4.4-.9 2.65-.95 2.65-2.3 0-1.45-2.2-2.6-2-1.05-4.4-1.2-1.5-.1-1.4-1.05.05-.95 1.4-1.6 2.2-1 5.8-1.45l5.45.3q1.55.7 2.8-.4 1.25-1.05 1-2.8-.25-1.9.7-3.4 1.05-1.65 3.1-1.75 2.2-.05 2.2-2 0-1.9-2.2-2.65-5.45-1.95-8.5 1.6-2.05 2.5-4.15 3.9-2.55 1.75-4.45 1.2-3.5-1.05-6.5.7-2.8 1.65-2.7 4 .1 1.75-1.2 2.25-1.25.45-2.3-.35l-2.95.05q-1.15 1.55 0 4.45 1.05 2.7-1.85 5.1-2.75 2.2-6 2.1l-.05-.1q1.65-.25 3-3.2.7-1.5.3-3.2-.4-1.5-1.8-3.85-1.4-2.3-.85-4.2.45-1.55 2.45-3.4 2.15-2.05 4.95-1.4 1.6.35 3.1-1.25t.5-3.45q-1-1.8.8-4.15 1.6-2.05 3.7-2.85 2.15-.75 3.65.4 1.6 1.2 2.15 4.15.3 1.65 1.8 2.05 1.4.45 3-.4 2.35-1.15.75-4-.55-.9-.1-1.45.45-.55 1.55-.45 1.8.05 1.6-3.15-.15-3.2 2.55-4.85 2.65-1.6 3.3 1 .25 1 1.2 1.35l1.8.1q.8-.2 1.05.55.2.7-.3 1.5-.9 1.35-.15 2.8.7 1.4 2.05 1.4 2.25 0 4-2.45 1.95-2.65 1.9-6.5-.05-2.8 2.15-4.1m132.9 33.05q1.85 1.8 4.3-1-1.3 4.4 2.75 7.85 2.95 2.5 3.35 5.4.4 3.25-2.85 5.25-4.05 2.45-3.95 4.55.15 1.9 3.4 2.4 2.6.4 2.8 3.1.25 2.9-2.6 6.25v.05l-11.75 2.1q-.95.15-1.85.45h-.05q.1-2.9.9-4.7.95-2.15 3.05-3.6 1.45-1 1.45-3.25.05-2.05-1.1-4.25-.9-1.7.35-4 1.1-2.1 3.6-4 2.25-1.65 1.2-3.3-1-1.6-2.95-.65l-2.15-.05q-.85-.65-.85-2.2 0-6.05 1.4-12.5-.25 4.35 1.55 6.1"/><path fill="#fff" d="M142.2 206.7q.7-.05 1.3.55.55.6.55 1.45 0 .9-.4 1.5-.5.7-1.4.7-.8 0-1.3-.6-.55-.65-.55-1.55 0-.75.45-1.3.55-.7 1.35-.75"/><path fill="#dab300" d="M246.85 312.1q-1.9 14.45 5.95 28.15 7.9 13.9 21.05 18.45 6.5 2.25 12.45 5.5 7.05 3.95 10.75 8.05l-1.8-.15q0 1.7-1.75 6.4-2.95-3.05-9.8-6.8-5.7-3.1-11.75-5.45-20.15-7.95-25.9-25.55-4.6-14.1.8-28.6"/><path fill="#a74a00" d="M299 373q2.35 2.55 8.45 10.8 7.1 9.65 8.35 12.9 2.35 6.1 4.05 12.15 2.6 9.35 2.65 15.45-2.1-7.65-6.1-17.7-4.5-11.25-7.05-14l-7.7-8.5q-5.4-5.85-7.3-7.45l.9-4.55 3.75.9"/><path fill="#a74a00" d="M322.5 424.3q-.65 1.05-3.4 2.95-2.95 2.05-4.55 2.2 1.7-1.2 3.95-4.9 2.25-3.6 2.55-5.4l1.45 5.15m-14.2 10.25l4.85-1.35 5.1-1.1q-.45 2.8-.45 4.3l-3.05.9q-1.8.6-2.3.95-.75.4-1.65.4-1.15.05-1.7-.65v-1.7q-.25-1.15-.8-1.75m15.2 6.8q.75-4.05 1.85-5.6.95-1.3 2.9-2.15 1.95-.9 3.2-.55 1.95.6 4.1 1.9l4.8 3.45q1.9 1.55 3.45 3.55 1.6 2.1 2.2 4.05l-1.25 1.4q-.55.9-.4 1.55-1.3.5-2.45-.3-1.05-.8-1.4-2.3-.35-1.4-1.8-3.55-1.4-2.1-2.6-3l-4.25-3.45-1.85.05q-1.5.45-1.8 1.35l-.75 3.3q-.45 2.5-.25 3.55.65 3.35-1.25 4.1-.05-.7-1-1.25t-2.05-.55q-.1-2.05.6-5.55m14.9-10.25q3.45-1.35 9.1-.85 5.2.5 9 2.1-.35.75-.2 1.7.15 1.2 1.05 1.8-.2 1.45-1.55 2.15-1.6.75-3.1-.9-1.85-2.05-6.05-3.9-4.6-2.05-8.25-2.1"/><path fill="#dab300" d="M212.15 344.35q7.1 2.55 18.3 1.85 10.8-.7 16.6-3.7 1.05 3.5 4.35 8.15 2.9 4 5.55 6.45-7.5 2.45-17.25 1.55-1.5 3.45-6.45 6-3.75 1.95-6.9 2.4l-3.4 4.05-2.6-3.25q-1.7-1.75-2.05-1.3-.1-2-.8-4.65-.75-2.8-1.85-4.9-1.3-2.55-2.3-6.15-1-3.6-1.2-6.5"/><path fill="#a74a00" d="M215.55 370.1l1.7-1.9 1.55-1.95q2.85 2.6 4.15 4.85-.55 1.85-1.15 6.55l-.7 6.25q-.15 1.7-1.65 3.25-1.35 1.4-3.3 2.2-5.4 2.25-11.3 8.85-5.7 6.4-9.6 14.25.2-5.85 5.5-15.2 4.7-8.35 7.8-10.65l3-2.35 2.25-2.75q.85-1.4 1.25-5.2l.5-6.2m-11.65 58.5q-.95-.4-1.9-1.85-.95-1.55-2.65-3.25-1.8-1.8-3-2.25-1.35-.55-2.65-1.4-1.5-1-1.9-1.75 3.15-.55 5.75-.05 1.55.65 4.65 3.05l5.45 4.65q-.7.35-1.15 1.2-.4.8-.3 1.5l-2.3.15"/><path fill="#a74a00" d="M188.5 420.55q-2.7 1.95-3.65 3.4-1.65 2.35-4.45 4.8-.85.7-2 2.9-1.1 2-1.3 3.05-.3 1.2-1.55 2.4-1.15 1.1-2.1 1.2-.05-.8-.8-1.75-.9-1.05-2.2-1.6.45-1.15 2.25-4.05 1.95-3.05 2.85-3.95 2.6-2.5 7.9-5.9 7.5-4.75 10.75-3.9-2.9 1.35-5.7 3.4m-24.35 9.55q-3.8 2-5.1 2.3.05-1.2-.65-2.5-.7-1.25-1.7-1.9 2.35-1.75 9.3-4.9 5.95-2.7 9.4-3.85-3.7 5.55-5.6 7.65l-5.65 3.2"/><path fill="#dab300" d="M266.8 197.8q-.3 3.4.6 4.8.65 1 2.65.8 2.1-.25 4.25-1.75 5.65-4.05 6-12.6 1.45 5.2-.6 11.05-2.25 6.55-7.6 9.1-5.7 2.75-12.25 6.8t-9.5 6.65q-3.9 3.45-10.4 8.65-7.7 6.1-9.6 6.95-3.7 1.65-5.7.7-1.8-.9-1.5-3.35.75-6.35 5.3-13.35 4.25-6.6 8.65-9.05-3.3 5.15-1.55 6.35 1.85 1.3 9.25-1.35 7.7-2.75 11.7-6.65 5.2-5.1 7.1-12.1.55-1.95 1.95-4.15 1.25-2 2.3-2.85-.8 2.6-1.05 5.35m-95.95 13.9q6.35-5.05 17.15-2.35 11.3 2.85 12.65 11.7 1.7 11.05-3.55 23.2l-4.1 8.9q-2.1 4.7-2.5 7.9 1.4-13.5 1.15-24.85-.35-14.25-3.4-19.55-3.45-3.6-6.8-4.85-4.55-1.7-10.6-.1"/><path fill="#dbdcdc" d="M143.6 429.95q5.8-4.15 10.25-6.9l.6 1.35-1.05 2.9q-1.5.7-5.05 1.6l-4.75 1.05m1.7 8.35q2.5-2.25 12.3-9.55 1.15 1 1.45 2.3.35 1.6-1.05 2.7-1.55 1.2-5.6 2.65t-7.1 1.9m24.85-3.3q1.9.45 2.75 1.75.7 1.1.3 2.1-.65 1.6-4.3 4.9-3.4 3.05-5.55 4.25 1.15-3.5 6.8-13m37.7-9.25q1.6 1.4 4.25 4.7 2.55 3.25 3.95 5.55-2.25-1-5.5-3.35-3.75-2.65-4.2-3.95-.55-1.65 1.5-2.95m100.45 8.8q.7 1 .85 2.1.15 1.1-.25 1.75-.7 1.15-3.85 2l-5.3.55q5.9-5.05 8.55-6.4m12.75 29.35l.95-8.3.6-8.25q2.05-.25 2.8.5.5.45.55 1.65.1 2.4-1.5 7.3-1.65 5.05-3.4 7.1m25.7-17.65q1.8 1.85 3.15 6.75 1.5 5.4.45 8.75-.7-2.4-2.35-6.15-1.8-4-2.95-5.5-.9-1.1-.55-2.1.35-1.15 2.25-1.75m10.5-14.2q2.05 1 4.45 4.2 2.35 3.1 3.35 5.95-5.1-4.65-7.1-5.8-1.2-.7-1.55-2-.45-1.5.85-2.35"/><path fill="#0d131a" d="M256.4 37.05q1.15.4 1.9 1.3.3.4.85.25l.9-.65q2.1-3 6.05-4.85 3.8-1.75 6.65-1.2 1.9.35 1.9 1.25 0 .85-1.75 1.8-3.2 1.85-4.8 4.8-1.75 3.25-.6 6.3 2.35 6.45-8.25 9.35-1.75.5-2.2 1.8-.45 1.3 1 1.65 1.6.45 2.05 1.65.5 1.3-.8 2.7-1.35 1.4-.5 3.9.8 2.1-1.75 5.35-2.6 3.25-6.65 5.15-1.4.65-3.05.5-1.55-.15-3.7-1.1l-2.25.15q-1.1.65-1.65 2.1-.8 2.1-.2 3.75.65 1.5.45 2.45-.2.9-1.45 2-.85.75-1.2 2.1-.3 1.35 0 2.4 1.2 3.75-1.9 5.4-2.9 1.5-5.6 0-1.15-.65-2.45-.4-1.3.2-1.65 1.05-.1.35.45 1.75l1.2 2.3q1.05 1.65-.6 3.8-1.05 1.35-2.9 2.6-1.45.9-3.7 1.2l-3.05-.1-2.5-.3q-1.2.1-2.4 1-2.05 1.6.45 3.2 1.3.85 1.3 2.45.05 1.75-1.75 3.05-1.3.9-1.2 3.6.15 1.5-.75 3.3l-1.65 2.3-2 2.35q-.55.7.35.7 1.9-.5 2.45.3.55.85-.7 2.85-.7 1.1-3.25 2.3-2.2 1.05-3.7 1.3-2.4.35-7.3-2.6-1.5-.9-3.25 0-1.85.95-1.55 3.15.5 3.4-2.6 4.65-2.1.75-.85 4.75.45 1.45 1.6 1.4 1.1-.05 1.4-1 .65-1.85 2.7-2.4 2.2-.65 3.65 1.15l1.6.1q1.25-.5 2.05-1.85 1.2-2 2.15-1.75.9.25.8 2.25-.05 1.25-1.15 3.4l-1.35 2.3q-.45.7.4 1 1.25.5 1.15 1.25-.1.9-2 1.95-1.6.9-2.7 2.65-1 1.55-1.05 2.85 0 1.25-.55 2.7l-1 2.25Q192.9 169 188.7 171q-4.6 2.2-7.95.35-1.4-.8-3.2-.45-2 .45-3.35 2.1-3.15 4-10.2 1.75-5.2-1.7-9.2.2-4.35 2.05-5.8 7.75-1.95 7.75-5.65 10.7-4.25 3.4-13.05 2.55-2.95-.3-5.85 1.75-2.65 1.9-4.05 4.85-1.05 2.25-3 2.6-2.05.35-3.65-1.8-2.2-2.95-2.15-6.65 0-3 1.65-7.45.7-2.05-1-2.45-1.7-.4-4.45 1.3-2.15 1.35-3.9 1.2-1.7-.1-2.65-1.7-1.6-2.7-.95-6.4.65-3.95 3.5-5.7 4.95-3.15 2.9-8.35-1.75-4.4.6-7.3 2.45-2.9 8.05-2.9 3.05 0 3.75-2.8.65-2.8-1.7-6.5-2.05-3.25-.2-5.65 1.75-2.3 5.15-1.85 2.45.35 2.3-5.2-.2-8.55 7.2-7.9 2.75.25 3.8-1.65.95-1.8-.05-4.75-2.05-5.8 2.4-7 1.3-.35 1.95-2.3.7-2.1-.1-4-.4-.85 0-1.1.4-.25 1.15.4 1.55 1.4 4 2.75 1.6.85 2.25 2.3.75 1.6.15 3.6 2.3-1.25 3.35-.2.5.5.05 1.85-.5 1.55-2.2 3.8-1 1.3.65 2.05 1.45.6 1.45 1.95t-1.55 2.8q-1.1 1.1-.95 2.05.2 1.05 1.75 1.6 4.05 1.5 2.9 6.85-.35 1.75 1.35 2.6 1.7.8 3.4-.2-1.05-1.3-1.15-3.7-.1-2.6 1.15-4.2.35-.45.7-.35.4.1.5.8.25 1.6 1.3 2.45l2.2.05q2.05-1.75 2-4.55 0-2.75-1.95-5.25-1.3-1.65-1.3-4.1 0-2.4 1.3-4.4 1.65-2.65 4.65-1.15.95.45 1.8-.65.85-1.15.6-2.45-.4-1.9.75-3.25 1.15-1.3 3.25-1.6 1.45-.2 1.7-1.45.25-1.15-.6-2.45-2.15-3.35-5.45-1.3-3.5 2.2-6.3-.6-2.85-2.8-.2-5.95 1.4-1.6.75-3.4-.7-1.95-3.55-3.3-.5-.25-.5-.6t.5-.6q2.7-1.3 5.6-.45 3.15.9 3.9 3.85.4 1.6 1.6 2.55 1.2.9 2.8.8 1.15-.05 2.3-1.7 1.05-1.5 1.4-3.15.45-2.1 1.75-3.6 1.25-1.35 2.45-1.45 1.35-.05 2.1 1.55.55 1.15.8 3.6.1 1 1.15 1.05 1.15.05 1.85-1.3.75-1.5 2.25-1.4 1.45.1 2.7 1.7.6.75 1.5.4 1.15-.5 2.05-2.5.6-1.25 0-2.85l-1.85-3.5q-2.7-4.45 1.75-8.8 1.15-1.1 2.75-1.5 1.6-.4 3.15 0l1.15-.2 1.15-.8.65-1.15q.05-.55-.4-1.4-1.2-2.2.4-4.75 1.5-2.5 4.55-3.65 2.2-.8 4.1.35 2.3 1.4 2.9 5 .4 2.3 3.05 1.45 2.6-.85.95-3.35-.75-1.15-.1-2 .65-.85 2.35-.85 1 0 .9-2.55-.1-2.3 1.55-4.2 1.55-1.85 3.3-1.85 1.85 0 2.35 2.05.15.55.85.85l1.4.15q1.55-.3 2.1.6.65.95-.45 2.55-.65 1-.25 1.95.4.85 1.4.85 1.9 0 3.35-2.15 1.5-2.35 1.45-5.8-.05-3.2 2.6-4.75 2.45-1.45 6.05-.8l2-.1q1.05-.25 1.55-.75l1.55-2.25q1-1.8 1.3-3 .25-.9-.2-1.9-.45-.95-1.25-1.35-.6-.3-.55-.6.05-.35.65-.45l2.25.15m-7.5 12.05q-3.05-.55-4.8.65-1.65 1.05-1.6 3.2.1 4.15-2 7.15-2.05 2.95-4.9 2.95-1.9 0-2.8-1.95-.9-1.95.3-3.75.45-.65.3-.9-.1-.25-.6-.15-2.95.6-3.5-1.75-.25-1.1-1.05-1.1-1.1 0-2.25 1.35-1.25 1.55-1.15 3.4.1 1.75-.3 2.6-.5 1.05-1.85 1.05-.75 0-.95.35-.2.3 0 .6 1.3 1.85.6 3.5-.65 1.5-2.4 2.15-1.75.65-3.25 0-1.7-.75-2.05-2.85-.85-4.9-4.7-3.55-2.4.9-3.5 2.55-1.15 1.6-.4 3 1.2 2.25-.7 4.4-1.8 1.95-3.85 1.45-2.25-.5-4.2 1.3-1.8 1.75-2.1 3.2-.35 1.45.7 3.15 3.05 5.05 1.65 8.05-1.45 3.1-3.45 3.55-1.7.4-2.75-.95-.85-1.1-1.6-1.25-.65-.15-1 .45-1.35 2.35-3.55 2.3-2.15-.1-2.4-2.35l-.4-2.5q-.25-1.3-.75-1.3-.8.05-1.55.9-.85 1-1.25 2.8-.6 2.9-2.05 4.6-1.4 1.7-3.1 1.75-2.05.05-3.7-1.4-1.65-1.4-2.2-3.5-.45-1.95-2.6-2.8l-3.5-.25q2.6 1.6 3.25 3.6.7 2.2-1.2 4.45-1.65 2 .2 3.85 1.9 1.85 4.4.45 2.6-1.45 4.95-.65 2.1.7 3.15 2.7 1.05 1.95.4 3.65-.7 1.9-3.2 2.25-1.45.25-2.2 1.15-.75.95-.5 2.15.5 2.5-1.2 4.05-1.6 1.5-3.35.65-.95-.5-1.55-.3-.55.15-1.15 1.05-1 1.6-.9 3.4.1 1.75 1.15 3.1 2.25 2.95 2.15 6.75-.1 3.8-2.55 5.9-1.4 1.2-3.3.2-1.75-.9-2.25-2.7-.2 1.3.35 2.95.55 1.65 1.3 2.35l.2.55-.25.55q-2.35 2.25-5.8 1.15-3.55-1.1-2.8-4.7.6-2.75-.2-4.05-.4-.65-1.4-1.05-2.55-.95-2.8-2.75-.2-1.65 1.5-3.3 1.9-1.8.4-2.45-1.45-.6-1.65-1.8-.2-1.1.65-2.35l1.5-2.5q.4-.95.2-1.05l-1.05.1q-.9.35-1.8 1-.55.45-.85.1-.35-.3-.1-.9.75-1.95.5-3.65-.3-1.75-1.5-2.4l-2.65-1.55q.3 2.2-.65 3.95-.95 1.9-2.8 2.3-2.15.5-.65 4.75 1.45 4.15-.65 6.65-1.9 2.25-5.35 1.9-2.7-.25-3.95 1.2-1.35 1.55-1.25 5.05.1 3.2-.95 5.1-1.1 2.05-3.35 1.75-2.2-.3-3.25 1.1-1.2 1.5.3 3.85 2.95 4.7 1.6 8.4-1.3 3.55-5.35 3.55-4.4 0-6.4 2.45-1.9 2.35-.65 5.5 1.25 3.1.35 5.95-.9 2.9-3.7 4.6-2.15 1.3-2.9 4.55-.75 3.1.4 5 1.15 1.8 4.4-.15 3.85-2.4 6.55-1.3 2.75 1.05 1.55 4.4-1.6 4.45-1.5 7.1.1 2.65 2 5.15.8 1.05 1.7.9.9-.2 1.55-1.65 1.75-3.8 4.9-5.65 3.05-1.85 6.8-1.45 8.15.8 11.6-2.1 2.8-2.35 4.75-9.9 1.5-6.05 6.45-8.75 5.05-2.8 11.3-.75 6.15 1.9 8.2-.6 1.75-2.2 4.3-2.9 2.45-.65 4.35.4 2.7 1.55 6.55-.4 3.5-1.75 4.15-3.85l.95-2.05q.65-1.3.65-2.15.05-1.85 1.35-3.6t3.5-2.9q.7-.35.8-.75.05-.35-.4-.45-.9-.25-1.1-1-.15-.75.4-1.55 1.95-2.65 2.4-4.45l-.1-.35q-.1-.1-.25.2-1 1.95-3 2.7-2.05.75-3.1-.75-.7-.9-1.95-.4t-1.55 1.55q-.55 2.2-2.9 2.1-2.4-.05-3.25-2.8-.7-2.4-.15-4.25.55-1.85 2.15-2.45 1.05-.4 1.35-1.25.35-.75.15-2.15-.5-3.4 2.25-4.85 2.55-1.35 4.85.1 4.35 2.6 6.5 2.25l3.15-1q1.85-.75 2.4-1.45l.55-.85q0-.3-.4-.2-2.05.5-2.65-.4-.6-.9.55-2.25 2.35-2.7 3.3-4.65.7-1.45.55-2.7-.2-3.25 1.9-4.8 1.15-.85 1.4-1.8.2-.9-.45-1.35-2-1.3-2.2-2.9-.2-1.55 1.4-2.8 3.25-2.45 6.35-1.6l2.55.2q1.55-.15 2.6-.85 4-2.55 3.15-3.85-.8-1.15-1.35-2.85-.6-1.95-.15-2.8.8-1.5 2.6-1.85 1.7-.3 3.5.55 1.9.85 3.9-.25 2.1-1.2 1.45-3.4-1.2-3.9 1.45-6.2l.85-1.15q.1-.45-.3-1.35-.8-2.1.2-4.8.8-2.3 2.8-3.25l3.4-.15q1.75.8 3 .85l2.35-.45q3.9-1.8 6.2-4.4 2.05-2.35 1.55-3.7-1.2-3.2.75-5.3.55-.6.45-1.15-.15-.6-.9-.8-2.5-.65-2.2-3.05.25-2.45 3.35-3.3 4.6-1.25 6.15-3.5 1.25-1.75.45-3.9-1.35-3.6 1.05-7.45 2.1-3.4 5.95-5.3l.35-.4q-.05-.15-.3-.2-2.55-.4-6.15 1.7-3.25 1.85-4.7 3.95-.95 1.3-2.15 1.5-1.2.25-1.95-.75l-1-.7q.85 1.35.5 2.65-.3 1.4-1.5 3.5l-1.8 2.6q-.8.7-2.1 1.15l-2.65.3"/><path fill="#0d131a" d="M141.05 231.55q-15.05 2.95-22.9-3.85-5.8-5.1-7.35-14.45-1.5-8.85 1.45-16.15l1.1 3.4q-1.6 6.3 0 13.5 1.7 8 6.45 11.85 7.4 6.05 21.4 3 12.95-2.8 18.5-9.45 8.35-10.05 17.85-9.35 9.45.7 15.2 11.85.75 1.5.25 1.8-.55.3-1.4-1.15-6.1-10.2-14.85-10.5-8.55-.25-15.5 8.95-5.9 7.8-20.2 10.55"/><path fill="#0d131a" d="M190 218.75q3 9.2 3.1 22.2.05 8.8-1.15 17.2-3 20.35-2 38.05 1.15 20.45 7.45 32.3.65 1.25.2 1.55-.45.3-1.3-.8-7.95-10.45-8.85-37.25-.6-18.5 1.75-34.15 1.4-9.6 1.45-18.8.05-14.5-3.5-23.15l2.85 2.85"/><path fill="#0d131a" d="M191.45 337.4q2.2 9.7 6.85 15.75 7.9 10.35 8.4 14.7 3.1.25 4.7-2.75.35-.6.75-.55.35 0 .55.6.85 2.45 2.2 4.2 1.25-1 3.05-3.75.6-.85 1.15-.25 2.8 2.7 4.05 4.55 1.55-2.55 2.75-3.75l.4-.2q4.2-.6 7.6-2.8 2.95-1.9 4.9-4.7l2.55.3q-1.7 2.9-5.55 5.45-4.3 2.8-8.9 3.5-1.3 1.35-3.15 4.45l-.55.4-.55-.35q-1.4-2.25-3.85-4.8-1.4 2.25-3.6 3.9l-1-.1q-1.45-1.75-2.35-3.9-1.05 1.55-2.7 2.2l-3.55.2q-.8-.2-.85-1.15-.1-1.95-1.85-4.8-1.85-3.15-6.6-9-5.1-6.25-7.25-17.6-2.45-13.05 1.4-23.6l1.3 3.45q-2.85 9.2-.3 20.4"/><path fill="#0d131a" d="M213.6 344.5q21.1 18 42.6 11.65l1.7 1.95q-9.75 3-20.3 1.1-14.2-2.5-24.9-13.75-1-1-.6-1.45.4-.45 1.5.5m-4.45 24.25q-.1 6.45-1.05 9.9-1.05 3.85-3.7 6.3-5.05 4.7-11.3 12.4-6.25 7.6-8.95 12.35-.7 1.2-1.25.9-.6-.3.05-1.55 2.6-5.05 8.7-12.9 6.2-8.1 11.25-12.75 2.1-1.95 3.05-5.85.8-3.25.9-8.85l2.3.05"/><path fill="#0d131a" d="M165 418.55q-4.4 1.4-7.3 3.95-2.75 2.4-3.55 5.2l-1.8-.15q.4-2.9 3.65-5.8t8.3-4.85q3.2-1.25 11-5.85 8.65-5.1 11.95-8.1l-2.15 4.2q-3.85 2.7-11 6.75-7.05 4-9.1 4.65"/><path fill="#0d131a" d="M153.2 428.5q-1.45.95-3.7 3.9-1.85 2.5-3.3 5.1 2.95-.55 7.45-2.55 4.25-1.9 4.7-2.75.2-2.2-2.2-3.25-2.05-1-2.95-.45m6.85 4.1q-.3 1.6-6.1 3.95-5.55 2.25-8.9 2.4l-.75-.25q-.1-.2.15-.7 1.3-2.95 3.45-6.1 2.5-3.65 4.5-4.95 1.95-1.25 4.95.6 3.2 1.9 2.7 5.05m3.45-16l-3.15.45q-2.45-.05-4.75 1.85l-3.05 2.6-2.1.05q2.3-2.5 4.1-3.95 1.55-1.15 2.5-1.6 1.5-.65 3.3-.6l2.85-.4 2.8-1.15q1.05-.45 3.2-.65 2-.15 3.55 0l-2.8 1.75q-2.2-.1-3.55.5l-2.9 1.15"/><path fill="#0d131a" d="M153.1 428.1q-1.9.95-4.9 1.75l-4.8.95q-.85.1-1-.2-.15-.25.25-.95 1.25-2.2 3.45-4.8 2.5-2.95 4.2-4l2.95.1q1.6 1 1.95 3l-1.7 1.6q.05-1.8-.75-2.75-.75-.9-1.7-.3-1.05.65-3.05 2.8l-3.3 3.85 4.65-1.3q2.65-.85 4.3-1.65l-.55 1.9m15.65.3q-4.05 2.95-10.45 5.35l1.05-2.55q8.8-3.7 11.9-6.55l-2.5 3.75"/><path fill="#0d131a" d="M176.55 415.8q.6.15.25 1.35-.95 3.75-4.6 8.35-2.75 3.5-5.75 6-1.15 1-1.2 1.95-.05.85.65 1.15l-1.2 1.4q-1.55-.9-1.35-2.65.2-1.65 1.85-3.1 2.9-2.45 5.6-5.7 3.6-4.35 4.7-7.7.4-1.25 1.05-1.05"/><path fill="#0d131a" d="M165.85 435.85q-.65.7-1.3 4.6-.6 3.5-.75 6.65l5.45-4.9q3.15-3.2 3.3-4-.05-1.55-2.85-2.55-2.75-1-3.85.2m4.1 7.95q-4.1 3.85-6.55 5.2-.55.3-.75.2-.25-.1-.25-.8-.1-3.15.35-7.25.6-5.15 1.75-6.45 1.7-1.95 5.7-.6 4.1 1.35 4.15 4.15.05 1.35-4.4 5.55"/><path fill="#0d131a" d="M190.9 419.55q-2.25 1.3-5.5 5.45l-5.2 5.3q-1 1.05-2.4 5.15-.45 1.3-1.7 2.4-1.35 1.2-2.8 1.35l-.05-1.8q.6-.1 1.45-.95l1.2-1.85q1.55-4.55 2.85-5.9 3.2-2.95 5.1-5.4 3.4-4.25 6.35-5.55 2.75-1.25 6.65-.5 1.15.25 1.05.8-.1.6-1.25.5-3.5-.25-5.75 1"/><path fill="#0d131a" d="M206.4 429.35l-2.35.2q-1.6-.35-2.35-1.5-3.55-5.35-6.6-6.3-2.6-.85-4.55-2.95l2-.95q1.4 1.2 3.3 1.95 3.8 1.6 7.2 6.9.5.75 1.4.95l1.45-.2.5 1.9"/><path fill="#0d131a" d="M210.2 431.5l5.1 3.55q-.5-2.85-2.25-6.35-1.6-3.25-2.35-3.55-.65-.3-2.3 1-1.7 1.35-1.6 2.1.15.75 3.4 3.25m.8-7.85q1.55.45 3.6 4.95 1.95 4.3 2.2 7.45.1.95-.95.7-1.5-.2-5.9-3.55-4.65-3.45-4.75-4.95-.1-1.55 2-3.3 2.15-1.8 3.8-1.3"/><path fill="#0d131a" d="M204.15 418.9q-2.8-1.85-4.2-3.6-2.2-2.6-3-5.95l1.4-2.7q.15 1.5 1.1 3.85 1 2.35 1.95 3.55 1.25 1.6 3.75 3.3 2.35 1.6 4.35 2.4 1.55.55 2.15 2.2.55 1.5 0 2.95l-1.55-.6q.2-.85 0-1.65-.3-.9-1.15-1.2-2.25-.85-4.8-2.55"/><path fill="#0d131a" d="M223.75 371.35q-.9 6.4-1.25 11.05-.3 3.35-1.35 4.7-1.2 1.6-5.2 3.35-5.1 2.2-10.25 7.75-5.1 5.55-9.2 13.3-.7 1.35-1.3 1.05-.55-.25.1-1.65 3.7-8 9.2-14.1 5.3-5.95 10.65-8.3 3.3-1.45 4.15-2.55.75-.95 1-3.7.8-9.15 1.35-12.6l2.1 1.7m-24.95-182.2q14.15 10.5 30.6 24.85l-1.45 2q-16.65-14.7-30.85-25.25-15.4-11.45-25.85-16.4l1.85-1.5q10.4 5.05 25.7 16.3m67.4 60q28 29.05 36.2 42.75 9.1 15 12.65 28.85 3.6 14.05 1.25 26l-2.2 10.95q-1 5.85-.85 10.25.05.75-.3.9-.3.15-.85-.3-2.05-1.75-4.2-2.6-.1 2.8-.65 4.6l-.45.5-.6-.15q-1.75-1.3-3.75-3.9-.6 4.8-.55 7.05.05.5-.25.65l-.95-.05q-2.45-.9-4.7-1.45-.45 3.55-1.7 5.9l-1.4.05q-2.05-2.05-7.6-5.25-6-3.45-12-5.75-16.65-6.35-24.7-19.4-9.7-15.9-2.4-36.65.5-1.35 1.1-1.15.55.15.15 1.55-5.85 20.15 3.15 34.85 7.55 12.4 23.55 18.35 5.6 2.05 11.4 5.55 4.75 2.85 7.65 5.4 1.05-2.25 1.25-4.7.05-.7.8-.6l4.95 1.1q.1-3.7 1.05-7.3.1-.45.45-.55.4-.15.7.25 2.7 3 3.75 3.75.4-1.65.4-3.8-.05-1.05 1.05-.7 1.75.55 3.85 1.85-.05-5.85 2.4-19.5 2.1-11.4-1.35-24.9-3.5-13.65-12.3-28.25-9.7-16.15-37.8-44.65l3.8.5M153.15 197.7q-11.1 6.05-22 21.15-.75 1.05-1.25.75-.55-.35.2-1.5 4.8-7.95 10.5-13.3 5.2-4.95 11.9-8.25 1.15-.55 1.45 0 .35.55-.8 1.15"/><path fill="#0d131a" d="M150.7 198.6q1 3.35.75 7.6-.3 4.3-1.7 6.25-1.5 2.1-6.95 4.05-6.1 2.25-11.85 1.95l.65-1.45q4.75.1 10.35-2.05 5.1-1.95 6.3-3.7 1.1-1.55 1.5-4.95.35-3.5-.3-6.9l1.25-.8"/><path fill="#0d131a" d="M136.8 217.3q-.7-.8-1.1-2.25-.4-1.45-.3-2.8l1.45-1.45q-.3 1.15.35 3.4.6 2.2 1.35 2.8l-1.75.3m157.85 158q12.7 12.35 16.85 18.7 3.05 4.7 6.7 14.1 3.6 9.25 4.7 15.1.25 1.55-.35 1.65-.55.1-.95-1.4-1.4-5.65-5.1-14.5-3.8-9.2-6.8-13.7-3.9-6-15.85-17.65l.8-2.3"/><path fill="#0d131a" d="M321.4 420.65q-.8 2.4-2.4 5.05-1.7 2.85-2.8 3.4-1 .55-3.45 1.1l-3.6.6q-2.1.15-2.25 1.7l-1.85-.1q.1-1.35 1.1-2.25 1.05-.95 2.9-1.1l3.25-.55 3.1-1q.9-.5 2.7-4.05 2-3.85 2.35-6.45l.95 3.65"/><path fill="#0d131a" d="M300.4 440.45q1.55.15 4.55-.85 3.15-1 3.45-1.95.3-.9-.7-2.6-1-1.75-1.7-1.7-.85.05-2.75 2.25-2.15 2.45-2.85 4.85m-1.65.55q.6-2.95 3.1-6.2 2.45-3.1 4.05-3.3 1.7-.2 3.25 2.45 1.5 2.55.95 4.25-.55 1.65-4.7 2.85-3.85 1.1-6.1.75-.65-.15-.55-.8"/><path fill="#0d131a" d="M309.5 437.25q.95.95 2.3.4 3.8-1.6 6-2.1l-.1 1.8q-2.75.6-5.4 1.8l-2.1.35q-1.1-.1-1.6-.75l.9-1.5"/><path fill="#0d131a" d="M317.05 444.45q-.7 1.15-.35 2.65.35 1.4 1.25 1.85l-.8 1.6q-1.6-.7-2.15-2.9-.55-2.2.5-3.95 1.35-2 1.4-5.3.1-5.35 1.3-8.35 1-2.25 1.6-2 .6.25-.35 2.5-.6 1.4-.8 4l-.15 4q-.05 3.65-1.45 5.9"/><path fill="#0d131a" d="M318.35 449.75q-.1 1.35.85 6.1 1 4.9 1.9 7.05 1.55-2.75 3-8.15 1.4-5.35.85-6.25-.5-.9-3.5-.35t-3.1 1.6m2.15 14.85q-1.2-1.5-2.65-7.25-1.45-5.65-1.3-7.75.25-2.55 4.95-3.3 4.75-.7 5.1 1.75.35 2.65-1.3 8.25-1.7 5.8-3.75 8.3-.55.65-1.05 0m33.1-10.9q-.2 6.25-2.85 8.65l-.75.45q-.25-.05-.4-.7-.55-2.55-2.55-6.7-1.85-3.9-3.15-5.45-1-1.2-.15-2.7 1-1.75 3.6-2.15 2.65-.45 4.4 1 2 1.6 1.85 7.6m-8.4-5.6q-.25.55.05.95 1.3 1.6 2.95 5 1.75 3.6 2.45 6.3 1.45-2.6 1.4-7.35-.05-4.6-1.35-5.5-1.2-.85-3.05-.65-1.8.15-2.45 1.25"/><path fill="#0d131a" d="M328.3 445.25q.6 1.45-.3 2.75-.85 1.25-2.3 1.25l-.05-1.7q1.4 0 .65-1.85-.5-1.25.1-4.55.55-3 1.15-4 .65-1.15 2.45-1.75l2.6.1q2.7 2.6 3.9 3.2 1.25.65 2.8 3 1.45 2.2 1.95 3.9.8 3.35 2.9 2.6l.6 1.75q-1.4.45-2.9-.4-1.85-1-2.45-3.4-.45-1.7-1.6-3.35-1.2-1.65-2.5-2.35-1.35-.7-3.75-3.1l-1.25-.1q-.8.35-1.15.95-.45.8-.85 3.4-.4 2.75 0 3.65m22.8-2.9q1.4 2.8 1.2 5.65l-1.75-1.7q-.65-4.3-4.7-7.45-1.35-1.05-2.95-3.1-1.55-2.05-2.45-4l2.25.2q2.1 3.9 4.3 5.6 2.65 2.05 4.1 4.8m13.55.7l-4.05-3.75-3.75-2.85q-2.55-1.7-.85-4.45 1.65-2.75 4.2-2.05 2.3.6 4.15 4.95 1.85 4.3 1.45 7.8-.05.75-.4.8-.3.05-.75-.45m-6.95-7.85q2.55 1.7 6.8 5.75-.2-3.05-1.75-6.1-1.5-3.05-2.9-3.45-1.3-.3-2.4 1.3-1.15 1.6.25 2.5"/><path fill="#0d131a" d="M337.35 419.7q1.2.6 2.15 1.6l2.45 1.85q1.75 1.1 2.7 1.2 2.1.25 4.65 1.95.9.6 3.6 1.05l4 .35q2.05 0 3.35 1.1 1.15.95 1.1 2.15l-1.65-.05q0-.5-.75-1-.9-.65-2.15-.6l-4.4-.25q-2.9-.45-4-1.2-2.25-1.5-3.95-1.7-3.25-.4-6.3-3.65-1.7-1.8-2.9-1.3l-.75-1.9q1.2-.5 2.85.4m.7 11.7q.05-.6 1.45-.6 4.05.05 8.15 1.85 3.65 1.65 5.65 3.8.95 1.05 2.05.75 1.15-.3 1.2-2l1.55 1.3q-.3 1.9-2.2 2.5-2.05.7-3.75-1-2-1.95-5.25-3.55-3.75-1.85-7.5-2.3-1.4-.2-1.35-.75"/><path fill="#0d131a" d="M325.6 391.25q-.65-1.65-2.3-2.85-2.4-1.7-7.7-10.1-5.6-8.75-5.95-12.2l2.45.95q.8 3.3 5.85 10.95 4.8 7.3 6.8 8.8 2 1.5 2.8 3.6.75 1.8.85 4.75.2 4.95 3.15 14.1 3.25 10.2 6.85 14.5.9 1.1.45 1.5-.45.4-1.35-.55-4.1-4.15-7.65-14.6-3.05-8.9-3.55-14.8-.2-2.75-.7-4.05M48.25 24.15q1.3 5.4 4.85 9.4 1.2 1.3.8 4.5-.3 2.55-2.05 5.4-1.95 3.15-4.8 5.2-1.45 1-1.65 2.45-.15 1.35.85 1.2 1.75-.3 2.8.55 1 .8 1 2.3 0 .75.6.85.6.15 1.75-.65 2.25-1.6 1.8-5.05-.2-1.9 1.65-1.15 3.45 1.5 5.9 5 2.25 3.25 2.6 6.8.25 2.3-.9 4.65-1.05 2.1-2.95 3.75-1.45 1.2-2 3.2-.5 1.8-.05 3.55.5 2 1.6.55 1.5-2.05 3.7-2.55 1.15-.3.8.9-2.6 7.85 4.95 11.25 7.15 3.2 6.3 10.95-.2 1.9.3 2.6.45.75 1.9.55 2.85-.4 4.6 1.1 1.55 1.3 1.85 3.75.15 1.3 1.15 1.9l2.35.1q2.25-1 4.2-.3 1.6.55 2.35 1.95 1.8 3.1 2.25 6.4.5 3.4-.6 5.5-.7 1.4-1.8 2.05-.95.6-2.65.75-3.05.2-4.4 3.45-1.3 3.25 1.3 3.1 1.85-.1 2.85 1t.7 2.8q-.3 2.05 1.85 2.5 2.2.4 2.6-1.25.3-1.05 1.2-.45 1.75 1.25 2.05 3.7.3 2.45-1.05 4.4 1.8-.4 2.65-1.85.3-.5.7-.45.4.1.55.7.35 1.55 1.35 2.25.9.6 1.75.2 2.65-1.2 5.25.5 2.65 1.75 2.45 4.75-.1 2 .5 2.85.4.5 1.35.7 1.35.35 2.35 1.45 1.05 1.1 1.3 2.5l-2.1 1.4q-.25-2.65-2.25-3.15-1.25-.3-2.1-1.5-1.1-1.6-.95-4.2.15-2-1.65-3.2-1.8-1.2-3.65-.35-1.4.6-2.65 0-1.35-.7-1.9-2.4-.8 1-2.3 1.35l-2.6-.1q-.45-.15-.5-.5 0-.4.4-.7 1.35-1.2 1.5-3.05.15-1.7-.75-2.95-1.75 2.35-4.6 1.15-2.85-1.2-2.35-4.4.35-2-1.95-1.9-2.15.1-3.1-1.4-.8-1.35-.35-3.45 1.2-5.05 6.25-5.6 1.45-.15 2.3-1.9 1.95-3.65-1.25-9.45-1.25-2.15-3.95-.95-1.85.85-3.6-.05-1.95-1-2.3-3.65-.25-2-1.3-2.8-1.05-.8-3.1-.55-2.1.3-3.25-1.1-1.1-1.35-.85-3.85.7-6.05-5.55-8.85-4-1.8-5.55-5.1-1.55-3.3-.3-7.1l-1.45 1.7Q60.1 79.3 58.8 79q-1.4-.3-1.95-2.5-.55-2.1.05-4.45.65-2.6 2.4-4.05 3.15-2.6 2.7-7.05-.6-5.65-5.95-9Q56 55.1 53.1 57q-1.85 1.3-3.4.6-1.35-.6-1.35-2.1 0-1.95-2-1.6-2.5.4-2.7-2.05-.25-2.55 2.4-4.45 2.5-1.8 4.05-4.65 1.3-2.4 1.6-4.85l.15-2.05q-.05-.7-.5-1.15-1.7-1.95-2.4-3.1-.9-1.55-1.6-4.15-1.75 3.5-4.75 5.8-3.55 2.7-7.75 2.7-6.6 0-12.1 8.2-5.15 7.6-5.15 15.05 0 1.35-1.15.45-1.3-1.05-1.95-3.4-.75 1.8-1 4-.1.8-.55.85-.4.1-.7-.55-2-3.95-1.55-9.15-1.1 2.65-1.8 5.75-.65 3.1-.6 4.85.1 3.05-.9 12.8-.05.7-.85.55l-4.05-.4q6.45 7.65 10.3 17.9 3.95 10.35 4.75 22.2.3 3.65 1.7 7 1.5 3.55 3.85 5.6 9.9 8.8 19.75 27.1 8.35 15.45 13.9 32.2.65 2 2.05 3 1.4.95 4.1 1.45 9.15 1.75 25.9 13.05 17.05 11.45 23.35 20.4 3.05 4.45 9.2 5 19.95 1.9 37.4 12.8T189 272.1l-.3 3.65q-12.75-19.2-29.95-30.35-17.55-11.3-37.7-12.95-3.9-.3-6.45-1.65-2.55-1.35-4.55-4.25-6.65-9.6-23-20.75-16-10.95-24.45-12.1-3.8-.55-5.5-1.55-1.85-1.15-2.7-3.75-13.3-41.6-32.8-59-2.75-2.45-4.45-6.45-1.55-3.7-1.85-7.6-.9-12.65-4.15-21.9Q7.55 83.4.4 75.15q-.85-.95.2-1.45l2.2-.3 3.1.2q.65-6.15.5-11.6-.1-2.8 1.3-7.75 1.55-5.35 3.35-7.35.7-.75 1.1-.5.4.2.3 1.1-.7 4.7.2 9.25.55-1.85 1.45-3.6.35-.65.8-.5.35.1.45.8.3 2.45 1 3.85.45-8.5 5.85-15.85 5.7-7.8 12.6-7.8 4.4 0 7.75-3.1 2.85-2.6 4.15-6.4.35-1.05.85-.95.5.05.7.95"/><path fill="#0d131a" d="M26.55 38.85q-3.15 6.9-3.4 14.1-.3 6.75 2 10.15 3.45 5.2 4.5 14.45.9 8.3-.5 14.35-.9 3.65.05 6.5.95 3 3.55 4.35 3.45 1.75 4.65 4.75 1.2 3 .45 7.8-.8 5.35 1.15 9.4 1.85 3.8 4.8 4.3 4.95.9 7.35 5.25 2.35 4.25-.8 5.55 5.1 2.1 7.8 5.9 2.6 3.7 1.7 7.25-.55 2.2-.2 3.35.35 1.15 1.7 1.75 1.95.85 2.4 2.95.35 2-.75 4.55-.7 1.6.6 2.65 1.35 1.1 4.05.4 3-.8 5.55 1.75 1.45 1.45 3.05 4.5 1.1 2.1 2.85 4.1 2 2.2 4.1 3.4l-.4-5.4q0-.9.3-1l.8.45q1.75 1.55 7.4 5.65 1.6 1.1 2.35 3.8.65 2.2.5 4.65-.2 3.25 1.2 4.35 1.35 1.05 3.3-.5 1.6-1.3 3.25-1.15 1.55.15 2.05 1.4.6 1.25 1.85.75 1.15-.5 2.2.35 1 .8 1.2 2.4.15 1.1 1.15 1.65l1.9.45-.35 2.1q-1.4 0-2.75-1.05-1.4-1.1-1.6-2.7l-.5-1.3q-.4-.45-.9-.25-2.5.95-3.5-1.35-.25-.55-1-.5-.9.1-2.05 1-2.95 2.3-5.25.55-2.3-1.8-2.1-6.1.3-5.5-1.9-7.05l-5.6-4.25q.15 2.4.6 4.95.25 1.15-.9.7-2.9-1.05-5.7-3.65-2.65-2.45-4.1-5.2-1.45-2.75-2.65-3.85-1.75-1.55-4-1-3.85 1-5.95-1.35-2-2.2-.8-5 .8-1.75.7-3.1-.1-1.6-1.4-2.15-2.25-1-2.65-2.9-.3-1.35.35-4 .85-3.3-2.25-6.9-3.15-3.6-8.5-5.45-1.05-.4-1-.95.05-.55 1.3-.6 3.55-.1 1.6-3.7-1.95-3.55-5.95-4.15-4.3-.65-6.5-5.05-2.25-4.45-1.3-10.75.75-4.75-.35-7.25-.95-2.05-3.7-3.5-3.25-1.7-4.55-4.8-1.5-3.4-.4-8.05 1.45-5.95.9-13.75-.6-9-3.8-13.8-2.3-3.45-2.6-9.45-.3-6.65 2.15-13.35l3.25-2.4m134.55 180.2q1.4 1.35 2.95 1.1 1.55-.25 2.1-1.8 1.15-3.15 3.3-2.7 2.1.5 1.9 4-.1 1.8.85 2.65 1 .85 1-1.05.05-.65.4-.8l1 .15q1.45.85 1.95 2.45.55 1.7-.25 3.3-.55 1.15-.3 1.95.25.8 1.3.85 2.85.15 4.8 1.9 2 1.8 2.35 4.55.3 2.6 2.4 3.9 2.05 1.25 5.1 1.05v2.65q-3.9.25-6.55-1.7-2.7-2-3.05-5.45-.25-2.3-1.55-3.6-1.35-1.35-3.65-1.45-2-.1-2.9-1.6-.95-1.55.15-3.6 1-1.65.1-3-.75 2.65-2.9 1.35-2.15-1.35-1.95-4.55.1-1.7-.7-1.85-.8-.1-1.25 1.4-.8 2.7-3.35 3.2-2.5.55-4.6-1.45l1.35-1.85m54.95 18.55q-1.8-1.25-1.9-3.75-.15-2.55 1.55-3.9.8-.65 1.2-.25.35.35-.2 1.2-.8 1.3-.7 2.9.1 1.55 1.05 2.9.5.85.1 1.15-.35.3-1.1-.25M604.75 9.2q-.45 7-5.55 10.2-1.4.9.15.85 1.5-.05 3.7-1.7 1.15-.9 1.6-.3.45.6-.4 1.8l-4.05 4.45q-2.8 2.9-3.25 4.2-.65 1.75-.65 2.75.05 1 .7 1.8 1.05 1.25 1.1 2.7.05 1.1-.6 2.8-.9 2.35-2.35 4.25-1.65 2.2-3.2 2.7-1.8.6-3 2.2-1.45 1.85-1.4 4.5.1 4.25-1.15 8.05-2.1 6.5-7.5 9.8-5.3 3.25-6.75 7.05-1.45 3.7 2.45 2.65.85-.25 1.1.2.3.45-.45 1.25-.95 1.1-2.7 2.25-1.75 1.2-3.6 1.9l2.15.05q1.25-.15 1.4.4.15.55-1 1-2.3.9-3.9 2.55t-1.85 3.35q-.35 2.7-2.85 4.45-2.35 1.65-4.95 1.55-4.7-.25-3.35 4.65 1.2 4.45-.6 8.15-1.95 4-6.6 5.25-2.75.75-3.55 2.5-.85 1.8 1.55 2.7 1.35.55 1.25 1.15-.15.65-1.65.7-8.6.1-10.45 3.15-2.35 3.8-.2 4.8 3.75 1.7 3.95 3.7.2 2-3.05 3.95-2.35 1.4-3.95 2.85-1.6 1.5-1.45 2.2.25 1.05 1.9 1.8 1.8.85 3.35.3 1.3-.4 1.15 1-.25 2.5-2.25 4.05-2.1 1.55-4.9 1.05-4.4-.8-7.95.8-3.1 1.45-4.35 4.1-3.15 6.85-4.4 8.75-3.05 4.65-6.25 4 .4 1.15 1.35 1.8 1.05.75 2.35.6 1.1-.15 1.35.4.25.6-.7 1.3-2.9 1.95-4.95 2.3-2.7.45-4.7-1.55-1.65-1.65-3.65-1.8-2.05-.2-3.35 1.3-1.8 2.05-3.65 2.2-1.85.15-2.9-1.75-.65-1.15-2.45-.7-1.9.5-2.5 2.55-.95 3.2-2.65 4.5-1.6 1.2-4.45 1.1-3.2-.1-4.85 1.65-1.6 1.65-.2 2.3 1.55.8 1.6 2.25.05 1.35-1.15 2.1-1.15.7-.3 1.1.8.4 2.35-.6 1.2-.75 1.2.55.1 3.35-3.1 5.45-3.25 2.15-5.45-.05-1.85-1.75-4.8-2.25-3.15-.5-5.1.9 3.5.9 3.95 3.55.45 2.5-1.95 3.65-.85.45-1.15.95-.3.5-.2 1.4.1 2.05-1.65 2.9-1.8.85-3.35-.75-2.4-2.5-4.95-1.55-2.65 1-1.85 5.2l1 4.65q.45 2.4.05 3.3-.85 1.85-3.2 3.6t-4.3 2.1q-3.75.65-9.85-4.35-1.4-1.2-3.5-.75-2.35.5-4 2.85l-5 6.7q-3.2 3.7-6.35 4.75l-4.55-.15q-2.1-.9-3.15-3.05-1.3-2.75-4.15-4.45-3-1.75-5.55-1-2.3.7-3.7 2.45-1.25 1.7-1.15 3.45.15 1.65 2 2.4l4-.15 1.3-.15q.35.3-.2 1.3-.7 1.15-2.2 2.15-1.45.9-3 1.35-1 .3-.7 1.4.35 1.25 2.45 1.7 5.05 1.05 6.1 3.75 1 2.65-2.65 5-4.55 2.95-4.65 4.9 0 .55.35.75 2.05 1.55 2.2 3.15.15 1.65-1.75 2.85-1.9 1.2-3.8 3.15-1.95 1.9-1.85 2.5.15 1.1 2.4-.2 2.35-1.35 3.3-3.7l.55-.6q.4-.1.7.5 1.9 4-1.9 8.55-3.5 4.25-7.6 4.75-1.35.2-2.55 1.4-1.15 1.15-1.2 2.2-.05 1 .75 1.2.8.25 1.95-.45 3.5-1.95 5.5-1.1 1.85.8 1.6 3.7-.45 4.35 3.45 4.05 3.6-.25 7-3.75.7-.7 1.2-.5.5.2.4 1.25-.15 3.1-2.25 5.2-1.9 1.85-4.1 1.85-1.4 0-2.15 1.1-.75 1.15.35 1.85 2.3 1.45 2.8 3.05.45 1.5-.75 2.7-1.7 1.75-3.9 2.55l-3.5-.1q-1-.75-2.9-.65-1.85.1-1.85.8 0 1.65-.8 2.5-.8.85-2.2.8-.85-.05-1.05.4-.25.5.35 1.15 2.65 2.95 2.5 5.35-.15 2.6-3.45 4.15-3.35 1.75-3.4 5.7 0 1 .35 4.65.2 3.45-.5 4.85-1.65 3.2-4.85 5.3-3.25 2.15-6.65 2.1-2.3-.05-4.7-1.1-2.2-1-3.9-2.65-2.55-2.55-5.3-2.95-2.8-.45-5.5 1.35-5.85 3.8-10.25 2.1-4.55-1.75-4.8-8.3-.35-9.2-4.15-12.35-3.2-2.65-5.55-.05l-2.5 2.2q-1.4 1-2.45 1.3l-.3-1.85q1.9-.5 4.15-3.05 1.3-1.45 3.4-1.6 2.2-.15 4.2 1.3 5.1 3.6 5.45 13.9.2 5.35 3.65 6.7 3.5 1.3 8.55-1.95 3.1-2 6.4-1.45 3.25.45 6.1 3.3 2.7 2.7 7.55 2.8 2.65.1 5.25-1.6 2.6-1.65 4-4.35.6-1.2.65-4.1l-.05-4.5q-.05-2.9 1.35-4.65 1-1.25 3.1-2.3 4.65-2.35.25-7.3-1.4-1.55-.75-2.95.6-1.5 2.7-1.2 1.6.25 1.6-1.9 0-1.9 2.9-2.1 2.75-.25 4.25.95.6.5 2.1-.3l2.85-2.2q1.3-1.4-1.5-3.1-2.2-1.4-1.2-3.6 1-2.2 3.75-2.2 1.2 0 2.45-.95 1.3-1 2-2.55-4.05 3.15-7.85 2.7-4.3-.45-3.75-5.85.15-1.75-.7-2.05-1.05-.4-3.85 1.15-2.15 1.2-3.85.35-1.7-.8-1.65-2.8.1-1.85 1.55-3.25 1.5-1.4 4-1.9 2.55-.45 5.35-3.3 2.9-2.9 3.15-5.4-1.7 2.45-4.1 3.15-2.45.65-3.6-.95-.95-1.3 1.25-3.9 2.05-2.4 5.2-4.2 2.35-1.3-.65-3.65-.95-.7-.85-1.85.05-1.4 1.5-3.1 1.45-1.75 3.9-3.35 2.55-1.65 1.5-3.35-.95-1.6-4.25-2.3-3.65-.75-3.95-3.2-.25-2.25 2-2.9l2.15-.95q-2.35.25-3.9-.95-1.55-1.2-1.75-3.3-.2-2.6 1.45-4.8 1.8-2.35 5.05-3.2 3.5-.9 7.15 1.35 3.2 1.95 4.7 5.05.7 1.5 2.4 1.95l3.2-.15q2.95-1 5.9-4 2.05-2.1 4.8-6 2.35-3.3 5.1-3.85 2.4-.5 4.45 1.2 1.55 1.3 3.55 2.25 2.95 1.45 5.05 1.1 1.65-.3 3.3-1.6 1.6-1.3 2.35-2.9.45-.95-.6-6.55-1.15-6.1 2.55-7.55 3.5-1.4 6.95 2.2.75.8 1.65.4.9-.35.85-1.45l.2-1.65q.35-.95 1.6-1.6 1.4-.65.9-2.3-.55-1.9-3.9-2.25-1.35-.2-.5-1.4 2.15-2.85 6.4-2.65 4.1.15 6.95 2.85 1.2 1.2 3.1.2 1.8-.9 2.4-2.7-2.3 1.05-3.35-.85-1.05-1.85 1.05-3.1.5-.35.45-.9-.1-.6-.8-.95-2.6-1.3-.65-3.95 2-2.8 6.9-2.6 2.25.05 3.55-1.15 1.15-1.15 2-4.05.95-3.15 3.75-3.75 2.8-.55 4.05 1.8.5.85 1.8.55 1.35-.25 2.35-1.4 1.8-2 4.15-2 2.5.05 5 2.55 2.1 2.05 5.45.2-1.35-.45-2.35-1.55-1.2-1.4-1.25-3.35 0-.65.2-.8l.95.05q2.85 1.05 6-3 2.05-2.7 4.65-8.35 1.45-3.1 4.85-4.9 4-2.1 8.85-1.25 3.65.65 4.75-2.25-1.75.25-3.5-.75-2-1.15-2.4-3.25-.3-1.6 2.4-3.9 1.5-1.35 3.55-2.55 2.3-1.4 2.05-2.5-.25-1.05-3-2.35-1.85-.8-2.25-2.5-.45-2 1.2-4.65 1.05-1.7 3.75-2.8 2.65-1.15 6.4-1.45-1.5-1.7-.45-3.8 1.15-2.35 5.1-3.45 3.7-1 5.35-4.25 1.6-3.1.65-6.65-.95-3.6.55-5.4 1.35-1.65 4.4-1.5 2.2.1 3.95-1.4 1.65-1.4 1.9-3.15.55-3.55 4.45-5.55l-2.6-.8q-.75-.35-.6-.8.1-.45.85-.55 3.45-.45 6.5-3.05-1.6.25-2.3-1-.7-1.2-.2-3.25 1.35-5.1 7.7-9 5.05-3.1 7.15-8.85 1.3-3.65 1.25-7.25-.05-2.9 1.35-5.25 1.45-2.4 3.85-3.2 1.1-.35 2.3-2l2.05-3.85q1-2.4-.15-3.75-.95-1.1-.85-2.8.1-1.2.85-3.35.45-1.3 1.5-2.7l2.95-3.3q-2.65.85-3.35-.8-.75-1.65 1.6-3.15 3.55-2.25 4.75-7.4 1.3-5.5-2.15-8 .5 3.25-3.1 6.3t-8.35 3.45l-3.3.7q-1.15.5-1.8 1.45l-1.35 1.7q-1.35 1.3-2.55 1.4-1.55.15-2.7-1.95-1.4 3.6-4.8 6.95-3.65 3.65-8 5.4-4.2 1.7-7.8 4.5-.85.6-1.85.85-1.15.25-1.75-.35-.35-.35-1.45.25-1.15.6-3.4 2.4l-3.75 3q-1.35 1.1-2.5 1-1.15-.1-1.35-1.6-4.7 2.8-5.35 5.35-.55 2.15-2.4 4.3-1.8 2.15-3.15 2.2-1.85.1-2.25-2.55-.65 1.75-2.4 4.45l-.55.35-.6-.4q-.5-.95-1.9-1.95-3.1 20.5-54.55 42.1-21.7 9.1-47.8 16.4-24.95 7-47.7 10.65-3.25.5-4.95 2.65-23.95 29.95-55.1 46.75-21.65 11.65-58.2 21.65-2.15.6-3.25 1.4-.9.7-2.35 2.65-1.6 2.2-7.4 8.6l-7.45 8.1q-5.8 6.45-8.5 10.5-5.05 7.45-5.5 13.55-.1 1.45-.7 1.45t-.65-1.5q-.15-6.45 5.35-14.9 2.9-4.5 8.3-10.55l6.7-7.4q6.15-6.9 7.9-9.35 1.55-2.15 3-3.25 1.6-1.25 4-1.95 40.3-11 62.85-23.8 26.8-15.3 49.5-43.65 1.65-2.05 2.95-2.75.95-.45 3.2-.8 50.95-8.15 96.3-27.1 51-21.3 52.75-40.9.05-.85.9-.55 1.35.55 2.8 2 1.8-3 2.55-5.7.35-1.15.8-.95.4.15.5.95.4 4.05 1.45 4.05.75-.05 2.05-1.75 1.45-1.8 1.9-3.6.5-1.95 3.05-4.15 2-1.75 4.25-2.9l1.15-.2q.4.2.15 1.05-.2.7.25.8.45.15 1.25-.5 4.2-3.35 7.25-5.05l3-.1q.6.45 1.9-.55 3.25-2.5 8.05-4.4 4.5-1.8 8.1-6.2 3.2-3.85 4.1-7.45.2-.95.8-.95.6 0 .85.9.4 1.2 1.05 1.95l1.15.7q.6 0 1.4-.65l1.35-1.55q.8-1.25 2.2-1.9 1.4-.65 3.85-.9 4.45-.35 7.75-3.8 3.3-3.45 1.7-5.9-.5-.8-.2-1.15L599.4.1q5.85 1.85 5.35 9.1"/><path fill="#0d131a" d="M235.5 138.7q4.85 0 8.6 4.25 3.2 3.6 6.6 4.1 3.35.45 5-2.4 1.3-2.3.45-5.2-.95-3-3.45-3.15-.75-.05-.8-.55-.1-.55.65-.75 2.5-.7 2.6-1.6.05-.35-.3-.75-.35-.35-.8-.45-.5-.05-.65-.4-.1-.4.25-.8.5-.65 1.4-1l1.55-.25q.6.1.9-.3.3-.4-.05-1.05-.7-1.3-4.4-1.7-3.25-.35-6.4.15-.75.1-1-.2-.25-.35.1-.95 2.05-3.6 5.9-5.5 3.5-1.75 6.7-1.35 2.4.3 3.65 1.4 1.25 1.05 1.85 3.25.75 2.7 1.5 4.1.7 1.3 1.2 1.2.4-.05.55-1.05l-.25-2q-.3-.95.1-1.2.4-.3 1.15.45 4.1 4 5.35 9.65 1.25 5.45-.8 9.3-1 1.95-.25 2.95.35.55.9.4.6-.15.85-.9.5-1.55 1.7-2.7 1.2-1.15 2.7-1.55 1.25-.35.75.9-1.5 3.4.05 6.45 1.55 3 4.7 3.1l-.1 1.55q-3.4-.05-5.45-2.85-2.1-2.95-1.1-6.95-1.3.75-1.9 2.6-.5 1.75-1.95 2.15-1.35.4-2.4-.85-.6-.7-.7-2.05-.05-1.5.65-2.9 1.65-3.05.95-7.25-.7-4.3-3.45-7.9-.05 2.25-1.75 2.5-2.3.3-4.45-6.8-.85-2.95-4.25-3.4-2.5-.3-5.1.75-2.85 1.2-4.8 3.8l6.15.35q3.55.65 4.55 2.4.85 1.4.1 2.55-.7 1.1-2.35.9l-1.35.25 1.05.9q.55.65.5 1.2-.05 1.2-1.85 2 2.2 1.2 3.1 4.5.95 3.4-.5 5.85-2.05 3.65-6.45 3.25-4.55-.4-8.45-5-3.05-3.6-6.7-3.75-3.65-.15-6.3 3.25-2.6 3.25-1.45 8.15 1.2 5.15 5.8 8.15 2.7 1.75 3.3 3.8.65 2.2-1.4 4.25-3.5 3.4-4.9 6.6-.65 1.4.3 2.2.85.75 2.2.35 2.6-.7 4 1.2.65.8 2.25.5 1.3-.25 2.25 1.1 1 1.3.8 3.3-.05.7.4 1.2l1.05.7q.55.35.15.95-2.05 2.8-6 2.3-4.15-.5-6.05-4.35-.65-1.3-1.7-1.95-.9-.5-1.75-.5-.9 0-1.55.4-1.1.6-2.5 2.35-1.85 2.35-4 2.25-2-.1-3.75-2.2-.15 1.9 1.15 3 1.4 1.2 4.15 1.15.9.15.6.9l-1.45 3.25q6.8-3.95 10.45-1.25 3.6 2.65.05 8.25-1.55 2.45-1.4 5.2.2 3.1 2.6 4.45L232 211.2q-2.9-1.6-3.2-5.25-.3-3.45 1.8-6.95 3.05-5.15-.75-6.45-3.85-1.25-10.45 3.25-.8.55-1.2.15-.35-.35.15-1.15 1.75-2.6 2.8-4.8-3.35-.05-4.85-2.35-1.5-2.25-.25-5.2.3-.7.75-.75.4-.05.75.6 1.3 2.3 3.05 2.45 1.7.2 3.15-1.6 2.8-3.55 5.3-3.55 1.2 0 2.55.95 1.4 1.05 2.2 2.65 1.35 2.65 4.2 3.4 2.75.7 4.45-.85-1.3-1-1.15-2.6.1-1.15-.2-1.95-.35-.85-1-.75l-2.1-.15q-1-.3-1.5-.95-.75-1.05-2.55-.5-2.25.65-3.85-1-1.65-1.7-.6-4 .8-1.75 2.45-3.85 1.45-1.9 2.85-3.25 1.2-1.15.8-2.5-.4-1.45-2.7-2.9-5.2-3.3-6.55-9.45-1.3-5.8 1.65-9.55 2.9-3.65 7.5-3.65"/><path fill="#0d131a" d="M335.8 60.85q-.55 2.05-.1 4.3.55-.95 1.75-2 .55-.45.85-.25.35.15.25.9-.35 2.4.5 4.3.95 2.25 3.3 3.05 4.85 1.7 6.55 5.8 1.75 4.2-1 8.35-1.6 2.45-1.55 4.05.05 1.4 1.45 3.15 3.25 3.9.3 9.6-3.1 5.9-9.45 5.85-2.8-.05-3.5 1.95-.65 1.9.9 2.9 1.45.95 1.05 2.4-.45 1.5-2.7 2.5-2.2.95-1.6 1.6.6.65 3.35.55 1.6 0 .6 1.3-.8.95-2.2 1.65-1.6.75-3.2.8-3.5.1-5.1 3.85-1.6 3.7.15 6.95 1.05-2.9 3.45-4.55l.9-.2q.35.2.15.9-.65 2.25.35 4.35 1.05 2.2 3.05 1.95 3.4-.4 3.85-6.95.5-6.15 5.4-7.85l3.75-.25q1.8.4 2.5 1.6 1.35 2.3 4.25 1.55 3.15-.75 4.4-4.65 1.85-5.5.75-7.05-1.15-1.6-3.9-3.3-1.75-1.05-1.5-2.75.3-1.85 2.85-2.8l1.5-1q.25-.6-.15-1.75-1.35-3.55.9-6.9 2.1-3.1 5.05-3.3 1.85-.15 2.75-1.2.95-1.15.5-2.9-.8-3.3-2.35-4.65-1.5-1.3-4.15-1.25-.65 0-.8-.35-.2-.4.4-.85 1.4-1.15 3.6-1.7l4.1-.15q-.2-4.1 2.35-6.95 2.45-2.7 6.35-3.25 1.15-.15.7.95-2.6 7.15-1.15 10.8 1.4 3.5 4.05.55.55-.55.95-.3.35.25.2.9-.85 4.05 2.75 7.1 4 3.35 4.1 6.7.1 3.2-3.35 5.3-3.4 2.05-3.75 3.4-.4 1.4 2.5 1.85 3 .5 3.7 3.45.75 3.3-2.35 6.9l-3.2.3q3-3.15 3.25-6 .2-2.6-1.8-2.95-4.2-.65-4.15-3.2.05-2.6 4.45-5.3 2.8-1.7 2.5-4.3-.25-2.5-3.15-4.95-3.35-2.85-3.1-6.75-3.55 2.75-5.15-1.55-1.6-4.4.85-11.15-2.85.9-4.55 3.35-1.85 2.65-1.5 6.1.15 1.1-.9.65l-5.1.2q3.85.9 5.25 6.75.6 2.5-.75 4.55-1.4 2.1-3.95 2.3-1.95.15-3.45 2.05-1.7 2.2-.6 5.15 1.25 3.45-2.6 4.9-1.6.6-1.75 1.5-.1.7.6 1.15 3.55 2.1 4.6 3.7.8 1.1.7 3.5-.05 2.55-1.05 5.45-1.65 5-5.95 5.8-4.1.7-6.1-2.8-1.05-1.9-4.6-.35-3.8 1.7-4.15 6.25-.35 4.15-1.65 6.2-1.25 2-3.6 2.3-2.5.3-3.95-1.75-1.3-1.8-1.25-4.55-1.35 1.65-1.9 3.9-.15.5-.5.6-.3.15-.65-.2-3.95-3.75-2-9.05 1.95-5.3 7.05-5.4 1.65-.05 3.05-.9-3.65-.3-3.85-2-.2-1.65 3.3-3.2 1.65-.7 1.95-1.25.3-.45-.4-.95-2.55-1.7-1.5-4.55 1-2.95 4.8-3 5.05-.05 7.75-5.25 2.65-4.95.25-7.8-1.7-2.05-1.85-3.8-.1-2.05 1.75-4.9 2.25-3.4.65-7.05-1.6-3.55-5.5-4.9-4.35-1.5-4.6-6.75-.55.75-.75 1.55l-.45.65q-.35.15-.75-.45-1.45-2.3-1.05-5.5-2.6 1.6-2.55 4.6.05 3.45 3.65 7.7 1.2 1.4.7 3.3-.6 2.15-3.4 4.25-1.3 1.05-1.1-.6.3-1.75-.55-3.35-.7-1.2-1.9-2.05 1.8 2.3.25 4.35t-2.65.15q-.6-1.1-1.5-.65-.9.4-.7 1.4 1.2 5.45-3.6 8.35-1.95 1.2-3.65.9-1.85-.25-2.45-2.15-.55-1.7-2.25-2.55-1.75-.85-2.7.2-1.85 2.05-4 1.6-2.35-.45-3.4-3.8-.7-2.25-3.6-3.1l-6.3.3q-3.9 1.4-5.1 5.6-.9 3.15-.2 6.6.95 4.4-7.9 8.6-1.45.7-2 2.25-.45 1.25-.1 2.3.2.8 1.2 1.6l3.45 2.15q2.65 1.45 3.7 3.75 1 2.35-.1 4.4-2.5 4.6-2.5 7.1 0 2.45 2.5 5.1 2.45 2.6 5.5 3.4 2.45.65 3.8 2.3 1.4 1.65 1.25 3.9-.15 2.05-1.55 3.75-1.9 2.35-5.45 2.8-2.55.3-3.7 3-1.15 2.65-.25 6.05.4 1.55-.25 1.7-.65.15-1.05-1.4-1.1-4.3.3-7.45 1.4-3.2 4.85-3.6 4.55-.5 4.95-5 .1-1.85-.55-2.85-.75-1.05-2.7-1.55-3.45-.9-6.2-4.05-2.8-3.15-2.8-6.1 0-1.85.6-4.1.6-2.1 1.5-3.7.85-1.55.15-3.2-.7-1.65-2.8-2.75-2.8-1.45-4-2.45-1.3-1-1.65-2.2-.5-1.55.35-3.55.95-2.25 2.9-3.2 7.65-3.7 6.95-6.85-.9-4.45.5-8.4 1.65-4.5 5.75-5.95 3.7-1.3 7.3-.1 3.7 1.2 4.65 4.25.7 2.25 2.2 2.65 1.45.4 2.85-1.2 1.65-1.85 4.05-.95 2.4.95 3.25 3.85.4 1.3 1.7 1.35 1.25.05 2.65-1 3.45-2.65 2.45-6.7-.55-2.3 1.4-3.1 2-.8 3.4 1.4.2.3.55 0l.45-.85q.15-1.75-2.65-3.65-.6-.4-.5-.75.15-.35.8-.45 2.25-.25 4.2 1.4 2.05 1.75 2.35 4.4 2.35-2.7 1.2-4.1-4.3-5.1-3.95-9.35.3-4.2 4.85-6.05l.8.05q.25.2.1.75m99.85-14.55q2.45 2.85 1.25 5.7-.8 1.95-.2 2.75l1.85.15q1.6-.6.85.95-.85 1.75-.9 3.15-.1 1.6.8 3.35 3.05 6.3-1.75 10.45-1.65 1.45-2.35 3.2-1.3 3.15-3.1 5.2-.65.85-.1 2 .55 1.3 2.1 1.25 4.35-.2 5.5 4.05 1.15 4.25-3.55 5.95-1.25.45-1.6 1.55-.35 1.05.35 1.3l.85-.15 1-.8q.25-.35.65-.35l.55.35q1.55 2.6.05 5.2l-2.15.7q1.75-2 1.1-4-1.3 1.1-2.7.7-1.7-.65-1.5-2.6.15-2.1 2.75-3.1 2.85-1.1 2.3-4.15-.55-3.1-3.6-3.1t-3.85-2.05q-.75-1.9.7-3.6l1.55-2.5.95-2.5q1.05-2.5 2.7-4 2.15-1.9 2.55-4.4.35-2.1-.6-4-1.8-3.5-.65-6.3-1.5.15-2.1-1.3-.7-1.55.25-3.85.7-1.65-.55-3.5-1.15-1.7-3.15-2.5.4.65.5 1.8.1 1.4-.55 2.65l-.95 2q-.5 1.2-.55 2.7-.1 2.75-1.25 4.25-1.1 1.5-3.1 1.55-1.85.05-2.4 1.1-.45.9.15 1.7 3.1 3.9 1.15 8.3-.9 2.15-3.85 3.3-2.6 1-5 .8-3.45-.25-4.05 2.2-.6 2.55 2.7 5.65 2.35 2.2 1.5 4.3-.85 2.25-4.95 2.8-2.55.35-3.35 2.8-.8 2.65 1.4 5.9 1.65 2.45.85 5.8-.8 3.45-3.7 5.45l-5.55.95q4.5-1.35 6.55-5.2 1.9-3.65.2-6.15-2.7-3.9-1.4-7.5 1.2-3.4 4.75-3.9 3.1-.35 3.5-1.7.3-1.1-1.1-2.5-4.4-4.1-3.45-7.55.95-3.5 6.15-3.1l4.2-.55q2.4-.8 3.1-2.4 1.7-3.9-.65-6.85-1.55-1.95-.75-3.4.85-1.5 3.95-1.6 2.95-.05 3.05-4.5.15-3.2 1.3-5.35.6-1.05.25-2.45-.35-1.4-1.5-2.1-.9-.5-.75-.9.1-.35.95-.35h.05q3.85-.05 6.35 2.85m149.4-33.45l1.65-.65q.3 1.6-.65 3.5-.9 1.7-2.35 2.8-2.15 1.65-2.4 2.55-.2.85 1.4.55 1-.2 1.2.25.2.5-.65 1.25-1.25 1.1-3.35 3.55l-3 3.5q-6.65 7.45-20.65 12.75-4.6 1.75-9.95 6.85-5.2 4.95-7.85 9.85-3.65 6.75-9.3 12.4-5.6 5.55-11.75 8.65-2.3 1.15-2.35 3.35 0 2.3 2.5 4.4.95.85-.4 1.3l-3.2.45-3.25-.5q.5 2.05 0 3.7-.5 1.5-1.95 3.05l-.6.2-.5-.55q-.45-1.45-1.1-2.25-2.55 7.65-10.05 10.5-.95.4-1.25 0-.25-.35.3-1.1 1.25-1.8 1.95-5.4-1.7 2.8-4.3 3.25-1.45.25-3 1.95-1.55 1.65-2.55 3.85-1 2.25-3.1 3.95-2.1 1.65-4.7 2.3-2.7.65-4.1 1.9-1.35 1.15-2 3.2-3.35 10.65-12.65 15.25-8.05 4-15.1 1.65l-5.15.25q-2.8 1.1-2.9 2.95l-.2.65-.65.05q-1.4-.35-2.15-2.55-.4.95-.3 2.2.1 1.45-1.2.5-1.4-1-2.05-3.3-.6-2.05-.2-3.4-4.5.35-5.9 5.35-1.75 6.35-7.7 8.8-5.75 2.4-11.35-.25-3.5-1.7-7.55 0-4.3 1.75-5.8 6-1.05 2.9-3.05 5.25-1.8 2.1-3.65 2.85l-.7.05-.25-.6-.4-2.8q-1.1 2.5-2.85 4.2-1.75 1.7-3.85 2.35l-.85-.05q-.35-.3-.05-.9 1.05-2.25.9-4.55-.15-2.15-1.05-2.35-1.5-.4-3.5 1.55-2.15 2.05-.35 3.75.55.55-.2 1.05-1.85 1-3.2.95 1.2 3.3 3 4.85l.45.75q-.05.4-.8.45-3.85.4-6.5-2.05-.25 3.1-1.95 5.55-1.9 2.6-5 3.6-3.9 1.25-4.95 5.3-.55 2-3.35 4.25-2.75 2.2-5.9 3.2l-.85-.05q-.35-.25-.15-.7.55-1.15.7-2.9-2.5 2.05-5.35 2.1-2.45.1-3 2.35-.6 2.25 1.45 3.55.55.4.25.85-1.15 2.3-3.15 2.85-1.8.5-3.5-.6-4.2-2.75-2.45-9.05-2.35.95-2.45 4.55-.05 3.05-3.6 4.6-3.55 1.6-6.35-.2-3.35-2.2-5.95-1.05-2.6 1.1-2.85 4.6-.25 3.35-2.1 6.05-2.15 3.1-5.75 3.9-3.35.75-5.4 2.8-1.75 1.7-2.15 3.8-.85 4.45-3.75 6.2-.85.45-1-.45l-.55-1.75q-.35 2.25-1.5 3.8l-.65.35q-.45-.05-.55-.6-.45-1.95-2.85-3.9 1.95 4.55.95 8.9-.2.85-.65.9-.4.05-.75-.7-.85-2-2.25-1.85-1.4.1-2.45 2.1-1.95 3.65-5.75 5.2-3.9 1.55-8.65.55-4.5-.95-9.55.55-5.15 1.5-9.45 5.15 7.95-.5 12.2 3.65l.25.6-.45.5q-2.5 1.2-3 3 1-.5 1.95-.75l.85.1q.25.3-.15.9-.5.75-.5 1.9 1.6-3.4 6.25-3.4 9.75 0 15.7 6.9 4.2 4.9 9.5 5.3 5.2.35 9.45-3.75 1.9-1.85 4.65-3.4 2.8-1.6 4.7-1.85.55-.1.75.35 1.45 2.9 3.8 3.15 2.4.25 3.25-2.75.65-2.2 3.15-2.9 2.45-.7 4.9.5 7.4 3.65 11.15-2.05 4.5-6.65 6.6-7.8.5-.25.85.15 1.4 1.75 2.15 2.3.9.65 1.5.2 2.4-1.6 2.65-3 1.15-5.55 5.5-8.35 1.15-.75 1.5-.2.35.55-.8 1.3-3.5 2.3-4.6 7.55-.45 2.3-3.55 4.3l-2.75-.05q-1.05-.6-2.35-2.3-1 .75-2.7 3.2l-2.5 3.85q-1.9 2.9-4.8 3.85-3.75 1.2-8.55-1.2-1.85-.9-3.6-.45-1.65.45-2 1.7-1.15 3.9-4.45 4.1-3.35.15-5.35-3.75-4.25 1.3-7.75 4.95-4.55 4.75-10.8 4.45-6.4-.3-11-5.65-5.9-6.85-14.3-6.85-2.15 0-3.65 1.2-1.55 1.3-1.85 3.5-.1.65-.55.75-.45.05-.8-.5l-.6-1.85q-.25-1.35 0-2.45-1 .5-1.4 1-.45.6-.85.5-.35-.1-.4-.95-.05-3.5 3.25-5.45-4.2-3.35-12.8-2.25-.9.1-1.15-.3-.25-.4.55-1.2 4.6-4.7 10.9-6.9 6.15-2.2 11.35-1.1l7.65-.3q3.2-1.25 4.95-4.5 1.45-2.65 3.25-3.05 1.65-.4 3.1 1.2.1-4.1-1.9-8.05-.3-.6 0-.85l.85-.1q1.3.35 2.75 1.7 1.4 1.35 2.15 2.85.75-1.55.75-4.2 0-.8.45-.85.45 0 .9.65.9 1.2 1.45 3 1.85-1.4 2.45-4.5.5-2.5 2.45-4.6 2.35-2.5 6.05-3.35 3.1-.7 4.85-3.35 1.45-2.2 1.7-5.2.35-4.75 3.75-6.2 3.35-1.45 7.45 1.25 2.05 1.3 4.75.05 2.65-1.2 2.75-3.2.1-2.45 1.55-4.15 1.45-1.65 3.65-1.9 1.2-.15.8 1-1.9 5.1.85 8 1.1 1.15 2.45 1.1 1.45-.05 2.4-1.5-2.9-1.85-2.05-4.7.9-2.9 4.85-3.3 1.4-.15 3.1-1.05 1.6-.85 2.85-2 .5-.5.8-.3.3.15.25.85 0 2-.4 3.35 2.5-1.05 4.35-2.75 1.85-1.7 2.25-3.25.6-2.25 2.3-4.05 1.65-1.8 3.85-2.5 3.3-1.05 5-4.1 1.3-2.35 1.3-4.95 0-.65.45-.8.45-.15.8.45 1.45 2.3 4.65 2.65-1.55-2.05-2.55-5.45-.2-.7.15-.95l.9.1 2.35-.05q-1.85-2.7.9-5.4 2.65-2.55 4.95-2 1.55.4 2.1 2.45.55 2.15-.25 5.1 3.35-1.85 4.95-6.55.2-.55.6-.55.45-.05.75.5.7 1.35 1.05 3.5 3.5-2.05 5.05-6.5 1.85-5.3 6.75-7.25 4.5-1.85 8.55.05 4.75 2.3 9.75.05 5.05-2.25 6.5-7.55.8-3.1 3.3-4.8 2.45-1.7 5.9-1.6.7.05.85.35.2.3-.2.8-.55.7-.4 2.25.15 1.35.75 2.4.3-1.5 1.35-2.65.4-.45.75-.4.4.1.4.9l.25 1.4.65 1.1q.7-1.95 3.65-3.25 3.15-1.35 6.1-.4 6.95 2.35 14.2-1.95 7.65-4.55 10.6-13.9.85-2.75 3.2-4.25 1.65-1.05 4.95-1.9 4.65-1.2 6.6-5.35 1.05-2.45 3.05-4.25 1.95-1.8 3.8-2.15 1.4-.2 2.7-1.8 1.3-1.6 2.1-3.95.35-.9.75-1 .5-.1.65 1.1.5 4.3-.95 7.55 2.95-1.75 4.7-4.05 1.65-2.25 2.55-5.6.3-1 1.05-.4 1.5 1.2 2.05 2.75.8-1.2.8-2.5.05-1.2-.6-3.3-.25-.7 0-.95.3-.25 1.05.2 2.1 1.3 5.35.75-2.4-2.5-2.05-5.15.4-2.75 3.5-4.3 5.85-2.9 11.25-8.4 5.35-5.45 8.85-12 7.4-13.6 18.75-17.85 14.1-5.4 20.3-11.75l2.55-2.85 2.55-2.9q-1.8-.25-1.45-1.8.35-1.75 3.2-3.9l1.8-2.1q.75-1.4.65-2.5m-440.9 201.9q1.55-3.05.95-6.1-.5-2.6-2.2-4.05l.95-.95q1.8 1.4 2.6 4.05.95 3.1-.25 6.3l-2.05.75"/><path fill="#cc5d00" d="M123.35 215.65q.1 1.85 1.55 3.15.9.8 3 1.8 3.15 1.6 3.35 4.25.15 2.9-3.5 6-7.1 6-23.05 17.55-16.85 12.15-28.4 19.4 8.3-11.95 36.25-54.95 2.4-3.65 6.45-2.85 4.1.8 4.35 5.65"/><path fill="#a74a00" d="M123.95 218.15q1.4 1.5 5 2.95 2 .8 2.25 3.3.25 2.45-1.25 4.45-2.35 3.15-23.6 18.25Q87 260.8 77.2 266.85q7-8.2 45.2-42.2 3.05-2.75 1.55-6.5"/><path fill="#0d131a" d="M122.35 215.65q-.2-3.95-3.6-4.55-3.3-.6-5.45 2.6-23.3 35-33.45 50.55 11.45-7.4 26.2-18.1 14.15-10.25 20.95-16 3.2-2.7 3.15-5.05-.05-2.2-2.85-3.6-2.35-1.1-3.35-2.15-1.45-1.5-1.6-3.7m6 15.95l-21.55 16.15Q91.2 258.95 80 266.2q-3.7 2.4-4.05 1.9-.3-.45 1.75-3.65l34-52.3q2.65-4 7.2-3.35 4.8.65 5.4 6.75.25 2.75 4.1 4.25 3.75 1.5 3.95 4.85.15 3.6-4 6.95"/><path fill="#0d131a" d="M130.9 223.5q-37.7 31.05-48.3 40.4l-5.4 2.95q7.85-7.1 25.85-22.6l26.5-22.6 1.35 1.85"/></svg>