<svg xmlns="http://www.w3.org/2000/svg" width="273" height="254" viewBox="-0.25 -0.6 272.6 253.9"><path fill="#0d131a" d="M12.05 36.65q1.25-.2 3.25 3.45l4 8.1q2.95 5.65 5.2 9.4 3.5 5.65 7.7 10.85 3.6 4.45 4.35 5.85 2.35 6.15-1.15 18.85-3.2 11.65-6.3 14.2l-1.3 1.2-2.1 1.8q-1.25.7-2.3.35-1.1-.35-1.65-2.95l-.9-6.4Q20.1 96 13.65 90.1l-9.9-7.7-3-2.7q-1-1.2-.6-2.1.35-.8 4.1-1.4 4.1-.65 4.75-1.15.85-.6.9-2.3 0-1.45-.6-5.45Q8 59.05 7.7 54.8q-.5-6 .3-10.2.65-3.4 1.7-5.5 1.1-2.25 2.35-2.45"/><path fill="#dbdcdc" d="M17.4 48.4l2.65 5.45q1.45 2.8 6.85 10.4 6.35 9 7.25 11.35 2.15 5.75-1.05 17.6-2.9 10.65-5.3 12.6l-1.4 1.3q-1.85 1.85-2.35 1.7-.35-.1-.75-1.1-.7-1.65-1.2-5.3-.85-6.3-4.65-10.85-2.3-2.7-8.2-6.95Q1.45 79 2 78.15q.4-.55 1.65-.8l2-.25 3.15-.5q2.4-.75 2.4-4.35l-.7-6.15q-.85-5.25-1.15-9.3L9.2 53q0-5.6 1.25-10.4 1.1-4.35 1.95-3.95.65.3 2.3 3.75l2.7 6"/><path fill="#b4b4b5" d="M34.15 75.6q1.25 3.2.65 8.9-9.75-2.45-14.25-15.6-1.65-4.8-3-12.25l-2.1-12.6 4.6 9.8q1.45 2.8 6.85 10.4 6.35 9 7.25 11.35"/><path fill="#0d131a" d="M3.4 78.5q-3.15-.15-2.7-.7.4-.55 2.8-.8l5.05.5q2.95.65 5.05 1.8 2.35 1.4 3.15 2.4.75 1-1.8-.35Q10.4 78.9 3.4 78.5"/><path fill="#88a3d4" d="M209.25 84.95q15.35-1.35 29.85 6.65 14.15 7.8 22.05 21.35 8.35 14.4 6.5 30.2-3.4 28.85-30.6 40.3-20.85 8.8-46.65 5.45-6.3-.85-11.5 2.9-4.25 3.05-8.3 9.65-4.5 7.4-9.25 13.15-7.9 9.6-19.35 19.25-13.9 11.75-34.6 15.4-23.1 4.05-40.95-5.4-21.9-11.65-27.85-32.8-5.8-20.7 1.8-57.25l2.6-12.4q1.1-5.85.7-9.05-7.8 1.1-16.3-3-9-4.3-12.25-11.55-2.05-4.45-1.45-10.2.7-7.25 5.8-12.15-2.7-12.85 1.9-23.65 3.65-8.45 12.8-17.5 8.65-8.55 24.65-9.85 16.05-1.3 28.7 5.6l20.75 46.6q-.1 4.25-3.1 12.25-2.8 7.4-5.4 11.35-4.15 6.3-5.8 15.35-.95 5.25-1.3 13.95-.35 9.45 4.8 15.35 4.25 4.8 8.95 4.8 3.3 0 7.45-3.55l8.75-9q6.2-6.65 16.75-14.55 12.45-9.35 20.9-12.25 6.5-2.2 17.7-1.4 9.5.7 20.55 3.4 8 1.9 14.6.95 6.2-.9 9.3-4 3.55-3.55 3.1-12.2-.5-9.7-6.9-14.25-7.3-5.2-18.8-5-10.45.2-18.1 4.4l-3.4-.1q-.6-1.6 1.1-3.25 13-12.5 29.8-13.95"/><path fill="#dbdcdc" d="M175.9 194.5q-1.95 2.1-11.75 16.3-11 14.85-20.65 22.1-14.2 10.7-28.55 14.75-16.85 4.75-35.25.8-16.3-3.45-28.1-15.4Q40.8 222.1 37.2 208q-2.3-9.1-.4-30.5 1.85-20.8 5.85-34.45 11.25-7.6 18.6-5.6 8.2 2.25 10.45 16.25.85 5.35 2.6 21.8 2 15.35 5.3 22.65Q84.85 209.7 95 216.2q9.15 5.8 20.9 6.75 10.9.9 21.35-2.55 10.4-3.4 17-9.9l14-14.1q7.45-7.4 12.65-11.3 13.5-10.25 29.75-9.85 20.6.55 30.95-2.3 13.5-3.65 22.3-15.2-7.05 17.75-28.5 25.95-18.85 7.2-43.05 5.35-6.75-.5-9.25.2-3.25.95-7.2 5.25"/><path fill="#b4b4b5" d="M192.35 189.05q-6.75-.5-9.25.2-3.25.95-7.2 5.25-1.95 2.1-11.75 16.3-11 14.85-20.65 22.1-14.2 10.7-28.55 14.75-16.85 4.75-35.25.8-12.85-2.75-23.1-10.95-9.4-7.5-15-18.15 23.05 11.35 51.5 11.1 26.9-.25 45.15-10.35 9.75-3.45 16-9.6l14-14.1q7.45-7.4 12.65-11.3 13.5-10.25 29.75-9.85 20.6.55 30.95-2.3 13.5-3.65 22.3-15.2-7.05 17.75-28.5 25.95-18.85 7.2-43.05 5.35"/><path fill="#778db8" d="M214.25 84.8q10.85.2 21.25 5 10.1 4.65 17.85 12.8 7.85 8.25 11.6 18.45 4.05 10.85 2.7 22.1-.95 7.85-3.75 14.65v-.05q-6.95 9.1-16.45 13.2-8.35 3.55-21.15 4.25 13.35-8.1 21.15-18.7 9.1-12.25 9.9-26.7-1.15-18.25-13.5-30.85-12.25-12.45-29.7-13.65l.1-.5"/><path fill="#0d131a" d="M202.75 87.8q-9.05 1.85-17.3 7.6-7.15 5-6.4 6.25.3.5 2.2-.5 4.5-2.6 10.6-3.75 8.45-1.65 17.65.05 8.05 1.5 12.75 7.45 3.05 3.85 4.25 8.8 1.25 5.2.2 10t-3.85 7q-8.75 6.65-25.75 2.6-8.1-2-13.25-2.65-8.65-1.1-17.5-.2-6.55.7-14.45 5.2-14.7 8.45-35.8 29.85-4.2 4.25-8.5 5-4.5.75-8.7-2.35-8.75-6.45-7.55-24.5.45-6.9 2.35-13.55 1.7-6.15 3.7-9 4.6-6.55 6.9-14.8 3.1-11 1.95-24.15-.35-3.9-1.45-7.6Q99.85 58.3 85.4 50.6q-13.95-7.45-31.9-4.45-13.7 2.3-22.9 13.2-8.85 10.55-9.75 24.45-.7 10.1 3.15 19.5 3.55 8.75 10.8 16.4l4.8 4.5q4.75 4.2 5.65 6.9 1.3 4.15-1.6 12.45-2.25 6.3-4.55 25.2-2.75 22.2-1 33.75 2.75 18.45 16.4 31 16.4 15.05 43.3 15.05 24.35 0 44.6-16.75 11.4-9.35 25.1-28.6 4.75-6.55 6.15-8.1 4.95-5.6 9.4-6.9l9.25-.25 11.75.35q18.8-1 32.25-6.45 17.75-7.15 24.6-21.4 8.45-17.5 3.85-34.1-4.6-16.55-21.65-30.1-8.7-6.95-20.15-8.95-9.8-1.65-20.2.5m9.1-4.2q19.05-1.05 33.75 10.65 17.3 13.75 22.05 31.8 4.7 17.85-3.95 35.9-12.75 26.4-56.75 28.7l-14.8-.7-8.6.35q-3.55 1.2-8.15 6.4l-2.8 4-3.2 5.2q-14.45 22.25-33.65 33.95-19.1 11.65-40.95 11.65-25.35 0-42.4-15.35-14.9-13.45-17.2-31.3-2.15-17.2 2.6-43.85 5.25-23.75 5.15-25.65-.25-5.7-4.7-9.6l-4.95-4.65q-7.5-7.95-11.35-17.55-4.05-10.15-3.35-20.8.85-12.7 9.85-23.55 9.75-11.7 24.1-14.8 19.05-4.05 35.1 4.25 16.1 8.35 20.95 25 1.2 4.3 1.55 8.1 1.15 13.4-2.55 25.15-2.65 8.55-7.65 15.7-1.95 2.75-3.6 8.55-1.8 6.2-2.25 12.7-1.2 16.7 6.65 22.45 4.4 3.2 7.4 2.2 2.55-.9 8.1-6.7 10.2-10.8 20.25-18.85 17.65-14.1 29.5-15.3 9.1-.95 17.55.2 4.7.6 13.75 2.85 7.75 1.95 12.85 1.8 5.85-.25 10.45-3.2 2.45-1.6 3.35-6.3.8-4.6-.3-9.3-1.1-4.55-3.25-7.3-3.65-4.8-10.95-6.15-8.55-1.6-14.55-.95-5.75.65-12.8 3.7-3.45 1.45-4.75.35-1.1-1 .65-3.85 1.85-3 5.6-5.85 11.85-9.15 28.25-10.05"/><path fill="#778db8" d="M43.65 143.55q2.9-8.3 1.6-12.45-.9-2.7-5.65-6.9l-3.5-3.2q44.45-11.55 70.25-36.95.8 12.45-2.2 22.85-2.35 7.95-6.75 14.2-1.25 1.75-2.45 5.05-10.7 8.7-26.2 15.3-12.9 5.45-26.7 8.55.95-4.85 1.6-6.45"/><path fill="#b4b4b5" d="M44.1 142.1q7.6-4.8 13.4-5 6.25-.25 9.95 4.85-12.65 5.2-25.4 8.05.95-4.85 1.6-6.45l.45-1.45"/><path fill="#0d131a" d="M107.25 168.9l6.95-.4q2.3-.4 5-1.65 1.5-.65 1.85-.3.35.35-1.2 1.35-1.75 1.15-5.3 1.9l-8.95.85q-2.1 0-.45-.85l2.1-.9m67.85 24.8q1.9-2.5 6.4-5.8 4.3-3.15 7.05-4.2 3.2-1.25 2.95-.75l-2.75 1.9q-2.7 1.65-5.3 3.75l-4.65 3.95q-2.7 2.35-4 2.95-1.5.65.3-1.8M36.8 63.75q-2.6 0-3.3-4-.7-4.1 2.15-5.7 2.25-1.2 5.05-.25 2.65.95 2.9 2.75.3 2.15-2.2 4.7-2.45 2.5-4.6 2.5"/><path fill="#dbdcdc" d="M34.95 60.05q-.35-1.45 0-2.75.45-1.5 1.75-2.2l3.6.1q1.3.7 1.4 1.55l-.4 1.55-1.45 2.25q-1.55 1.8-3.05 1.8-.55 0-1.1-.65t-.75-1.65"/><path fill="#b4b4b5" d="M39.85 60.55l-1.6 1.35q1.7-4.2-.45-7.15 1.2-.2 2.5.45 1.3.7 1.4 1.55l-.4 1.55-1.45 2.25"/><path fill="#0d131a" d="M27.3 79.55q-1 8.25-3.1 12.6-1.7 3.4-3.4 3.4-1.9 0-2.8-3.25-1.05-3.85-.2-11.25.7-5.95 2.85-9.85 2.15-3.85 4.5-3.55 1.75.25 2.3 2.85.55 2.9-.15 9.05M59.25 57.4q5.15-.6 9.45 4.25 4.6 5.1 5.55 13.75.45 4.2-2 8.15-2.8 4.5-7.5 4.8-4.25.25-7.5-3.65-2.95-3.55-3.9-9.05-1.6-8.7.2-13.5 1.65-4.25 5.7-4.75"/><path fill="#fff" d="M26.05 74.1q-.3 2.85-1.4 5.2-1.1 2.25-2 2.15-.9-.1-1.3-1.6-.4-1.6-.1-4.4.3-2.8 1.45-4.95 1.1-2.05 2.05-1.95 1.8.15 1.3 5.55m38.3-7.95q.5 3.25-.25 5.55-.75 2.25-2.45 2.65-1.75.4-3.3-1.15-1.6-1.6-2.35-4.75-.8-3.2-.05-6.05.7-2.85 2.4-3.25 1.8-.45 3.6 1.55 1.9 2.1 2.4 5.45"/><path fill="#0d131a" d="M124.45 0q4.5.65 4.5 14.5 0 8.25-2.95 33.95l6.75.2q2.4.65 3.15 1.95.65 1.05-.6 3.4l-2.3 3.7-3.3 5.5q-3.4 5.9-3.8 8.1-.25 1.8.55 5.5l2.35 8.5q2.25 7.5 2.7 12.9.6 6.9-2.05 7.8-1.9.65-9.55-2.8-8.75-4.2-11.85-5.5L95.4 92.6q-8.25-3.5-9.35-5.25-.85-1.3-.95-4.9l-.05-3.8-2.4-2.7q-2.45-2.3-2.75-2.9-1.5-2.85-1-5.55.3-1.65 2.45-6.65 7.75-17.9 23.6-39.95Q120.4-.6 124.45 0"/><path fill="#dbdcdc" d="M123.8 46.1l-.8 4.7 6.3-.45q2.85.3 3.55 1.4.3.55-1.65 3.55l-1.05 1.55q-6 8.8-6.65 12.85-.3 2.05.65 7.2l2.3 10.25 1.95 9.1q.45 3.05.2 5.15-.25 1.9-.95 2.2-.75.25-6.25-2.25l-12.25-5.4-13.9-5.65q-6.7-2.85-7.5-4.05-.55-.9-.6-3.45L87 78.2q-.3-2.35-1.8-3.6-2.15-1.75-2.9-3.05-.85-1.55-.75-3.2.55-8.6 19.4-37.35 7.65-11.75 14-19.8 6.75-8.55 8.55-8.55 2.15 0 2.7 5 .3 2.6.2 6.45.15 3.75-.8 14.7-.85 10.1-1.8 17.3"/><path fill="#b4b4b5" d="M92.7 79.85q6.6-7.75 22.45-17.95 15.2-9.75 14.3-7.85l-1.65 2.8-5.5 7.9q-3.7 5.55-4.2 7.95-.25 1.1-1.15 8.6-.6 5.4-1.6 5.7-3.7 1.1-10.8-1.45-5.5-2-11.85-5.7m33.65-61.8L125.3 32.2l-1.5 13.9-.45 3.5q-2.15.9-18.3 8.9-11.1 5.45-10.45 4 3.95-11.15 13.6-23.7 5.55-7.2 18.15-20.75"/><path fill="#0d131a" d="M124.5 48.7q3.45-.65 4.4.5.35.4-.05.75-.4.35-1.3.3-4.25-.3-18 6.05-11.4 5.25-23.7 12.35-2.35 1.35-2.55.7-.2-.7 1.35-1.9Q89.7 63.6 102.5 57.3q14.35-7.05 22-8.6M94.05 79.25q-2 1.75-2.55 1.5-.5-.25 1.15-2.4 4-5.15 36.95-25.2 1.85-.9 1.55-.2-.3.7-1.8 1.55-31.7 21.55-35.3 24.75m-75 14.9Q26.7 86 37.25 84.3q18.2-3 29.15 4.4 10.25 6.9 10.25 19.9 0 8.2-7.4 14.7-8.1 7.1-22.55 9.55-11.9 2-22-3.25-10.95-5.65-12.45-16.5-1.45-10.25 6.8-18.95"/><path fill="#dbdcdc" d="M37.9 86.2q13.75-2.55 24.55 3.75 11.15 6.5 11.15 18.3 0 7.7-7.7 14.25-7.95 6.75-19.65 8.3-12 1.6-20.95-3.7-8.7-5.15-10.1-14.15-1.45-9.55 5.8-17.45 6.75-7.4 16.9-9.3"/><path fill="#b4b4b5" d="M73.2 104.15q.4 1.75.4 4.1 0 7.7-7.7 14.25-7.95 6.75-19.65 8.3-9.6 1.3-17.5-2-7.6-3.1-11.25-9.4 4.35 4.25 13.2 5.05 8.25.8 17.6-1.55 9.45-2.45 16.1-7.15 7.3-5.2 8.8-11.6"/></svg>