<svg xmlns="http://www.w3.org/2000/svg" width="254" height="409" viewBox="-1.9 -0.25 254.1 408.85"><path fill="#00a4e3" d="M216.15 191.95q-4.5-.8-6.7-.1.8-6.4-3.1-12.9-.35-.6 0-.8.4-.2 1.05.25 6.15 4.45 8.75 13.55"/><path fill="#1d2087" d="M220.8 194.55q3.35 3.4 3.35 8.15t-3.35 8.1q-3.4 3.35-8.15 3.35-4.7 0-8.1-3.35-3.35-3.35-3.35-8.1t3.35-8.15q3.35-3.35 8.1-3.35t8.15 3.35"/><path fill="#181878" d="M215.7 191.6q3.7 1.05 6.05 4.05 2.4 3.15 2.4 7.05 0 4.75-3.35 8.1-3.4 3.35-8.15 3.35-4.85 0-8.3-3.6 6.35-3.3 8.85-6.65 3.4-4.65 2.5-12.3"/><path fill="#1d2087" d="M222.95 219.55q0 5.95-4.2 10.1-4.15 4.2-10.1 4.2-5.9 0-10.1-4.2-4.2-4.15-4.2-10.1 0-5.9 4.2-10.1 4.2-4.2 10.1-4.2 5.95 0 10.1 4.2 4.2 4.2 4.2 10.1"/><path fill="#181878" d="M215.65 207.1q3.35 1.85 5.3 5.15 2 3.35 2 7.3 0 5.95-4.2 10.1-4.15 4.2-10.1 4.2-3.95 0-7.35-2-3.3-2-5.15-5.3 8.7-1.6 13.95-6.1 6.1-5.3 5.55-13.35"/><path fill="#fff" d="M73.25 38.95q3.6 7.8 5.9 16.55 2.65 10.2 1.95 16.55l-12.4 25.7q-4.4-1.3-7.75-14-1.35-4.95-1.3-7.9 0-3.25 1.7-1.95-.3-5.75.15-12.35.55-7.6 1.65-4.3-1.6-5.7-1.6-10.45l.3-3.6q-2.05-4.95-3.8-10.25-3.55-10.5-2.1-11.95 1.75-1.7 7.9 4.7 6.2 6.45 9.4 13.25"/><path fill="#dbdcdc" d="M63.65 29.65q-.95-3.9 3.45.7 4.25 4.5 6.15 8.6 3.6 7.8 5.9 16.55 2.65 10.2 1.95 16.55l-12.4 25.7q-2.45-.75-4.95-6.1Q61.6 87 60.35 81.3 74.6 99.75 71 68.55q-1.95-16.65-7.35-38.9"/><path fill="#0d131a" d="M68.05 106.9l4.9 23.2q-5.7-5.9-6.75-13.3-.95-6.55 1.85-9.9"/><path fill="#00a4e3" d="M94.55 63.75q17-6.65 31.95.7 24.55 12.1 23.6 44.7-.7 23.2-14.1 54.6-4.1 9.6-16.65 29.75L95.8 230.95Q65.7 280.1 66.1 300.6q.45 22.75 13.65 30.1 8.7 4.8 22.25 2.6-12.55-9.25-15.3-21.5-2.5-10.9 2.95-22.8 4.9-10.85 15.1-20 9.9-8.9 21.2-13.15 12.8-4.8 26.8-8.5l19.6-5.05q9.3-2.65 15.4-6.2 7.3-4.3 14.05-12 .4-1.45 2.1-2.2 1.7-.7 3.65-.4 5 .7 5 5.5-3.35 10.75-13.95 18.85-10.1 7.75-30 15.4-17.8 6.8-26.8 16.4-7.9 8.45-6.3 15.5 4.2 1.2 10.9 1l13.65-.95q20.7-1.7 35.05.55 22.45 3.55 38.05 20.15 17.7 18.9 14.9 44.9-1.3 12.35-8.1 21.95-6.7 9.45-17.65 14.75-23.75 11.55-55.55.65-22.55-7.75-43.35-3.35l-18.2 4.9q-11.8 3.25-20.85 4.5-32.5 4.45-56.25-15.75-9.8-8.35-16.35-19.65-6-10.45-7.85-20.9-5.8-33 12.3-69.6 13.55-27.4 36.55-50.45 24.35-24.35 42-48.3 6.45-8.75 9.6-14.3 2.95-5.1 1.25-4.05-3.85 2.35-12.2 2.2-9.9-.2-18.5-4.5-6.85-3.45-6.7-9.75.05-3.3 3.1-10.2 2.05-4.6 1.25-10.35-.6-4.15-3.65-12.85-2.1-5.9-1.5-15.5.6-10.1 3.9-15.5 7.9-13 23.25-19"/><path fill="#008fc5" d="M82.65 83.35q6.75-.2 6.25 11.35-.2 5.05-4.1 6.15-3.55 1.05-6.45-1.55-5.05-4.55-3-12 .3-1.05 2.5-2.4 2.45-1.5 4.8-1.55m52.15 10.2q-2.35-11.8-4.4-16.5-4-6.7-6.9-9.7-4-4.1-10.35-6.55 7.1.55 13.35 3.65 24.55 12.1 23.6 44.7-.7 23.2-14.1 54.6l-.65 1.4q-7.2-3.2-15.4-3.05-10.15.15-18.4 5.75l4.15-7q1.05-2.4-.1-1.65-3.85 2.35-12.2 2.2-9.9-.2-18.5-4.5l-.25-.15 5.45-.65 16.25.8q5.6.65 12.9-4.05 6.7-4.25 13.3-11.95 6.4-7.4 10.55-15.45 4.3-8.45 4.6-14.65-1.05-7.95-2.9-17.25M108 190.9q-5.35 3.75-11.6 1.55-5.3-1.85-8.25-6.35l7.55-9.3q3.3-3.45 7.65-4.6 2.4-.65 4.7 1.25 2.2 1.8 3.3 4.95 2.75 7.8-3.35 12.5m-1.75 142.35q-2.05 1.2-7.05 2.25-6.35 1.35-12.4 1-17.55-1-24.15-15.25-10.55-22.75 6.2-55.3 11.05-21.45 39.05-54.4-20 31.5-28.55 48.2-13.55 26.4-13.25 40.85.45 22.65 15.8 30.05 10.1 4.9 24.35 2.6m35.55-55.6q-7.9 8.45-6.3 15.5-5.05-1.6-6.85-3.9-1.85-2.4-.9-6.3 2.85-12.15 19.65-19.65 3.55-1.6 16.05-6.25 10.75-4.05 17.2-7.3 15.45-7.8 23.45-17.15 6.8-8 4.25-10.95 1.85.5 2.95 1.75 1.25 1.4 1.25 3.6-3.35 10.75-13.95 18.85-10.1 7.75-30 15.4-17.8 6.8-26.8 16.4m91.35 39.65q2-2.75 7.5 6.75 5.5 9.65 7 18.9.65 8.9-1.8 13.95-2.6 5.4-9.95 9.15-7.6 4-14.8 5.25-10.7 1.9-.75-10.05 9.55-11.45 11.35-27.65.35-3.15.55-10.55.15-4.7.9-5.75"/><path fill="#fff" d="M86.05 302.5q3.55 9.15 11.75 16.1 7.6 6.45 17.5 9.75l-6.8 3.4q-3.55 1.7-6.65 1.4-8.85-6.55-12.8-14.7-3.65-7.5-3-15.95"/><path fill="#fff" d="M96.2 175.6q.85 1.8 2.55 3.35 1.15 2.15.3 9.1-.55 4.4-5.75 13.7-3.15 5.65-11.9 19.65-19.55 31.05-25.9 46.5-12.5 30.45-4.65 54.55 3.6 11 11.1 18.55 7.55 7.6 17.9 10.65 14.65 4.3 29.65-.4 4.2-1.3 10.5-4.05 5.7-2.55 7.6-3 12.25-3 15.75-3.3 11.5-1.05 22.7 3.75 14.8 6.3 28.8 7.95 13.65 1.6 24.2-1.4 10.7-3.05 16.2-10.3 5.8-7.65 4.9-18.8 5.5 7.65 7.35 16.45 1.8 8.55.55 20.25-1.3 12.35-8.1 21.95-6.7 9.45-17.65 14.75-23.75 11.55-55.55.65-22.55-7.75-43.35-3.35l-18.2 4.9q-11.8 3.25-20.85 4.5-32.5 4.45-56.25-15.75-9.8-8.35-16.35-19.65-6-10.45-7.85-20.9-5.8-33 12.3-69.6 13.55-27.4 36.55-50.45Q78.2 200.4 96.2 175.6"/><path fill="#dbdcdc" d="M29.55 386.2q-3.4-4.15-1.1-5.45 5.2-2.85 13-2.25l17.25 2.15q28.45 3.1 62.55-8.35 11.15-3.75 28.2-4.4 3.8-.15 29.65.05 17.25.1 26.3-1.7 12.5-2.45 18.1-9.55 3.5-4.4 5.1-9.75 5.15-3.95 7.35-7.35 3.8-5.75 4.4-14.9 6.9 8.95 8.15 20.3.5 5.15-.45 13.8-1.3 12.35-8.1 21.95-6.7 9.45-17.65 14.75-23.75 11.55-55.55.65-22.55-7.75-43.35-3.35-3.45.75-18.2 4.85-11.8 3.3-20.85 4.55-24 3.3-43.85-7.6-7.35-4.05-10.95-8.4"/><path fill="#fff" d="M96.45 176.05q-1.4 1.3-3.7 4.2l3.45-4.65.25.45"/><path fill="#dbdcdc" d="M97.7 192.85q-2.95-.7-5.6-2.65-2.4-1.8-3.9-4.05l4.55-5.9q2.3-2.9 3.7-4.2.85 1.5 2.45 3.1 1 2.15.15 8.9-.2 1.85-1.35 4.8"/><path fill="#fff" d="M172.7 40.95q2.15 7.6-1.45 27.1.85.7.45 5.4-.45 5.2-2.2 10.65-5.05 15.45-16.2 19.2-1.1 4.25-3.8 6.9-2.75 2.7-6.05 2.65-8.1-.2-12.7-15.4-3.6-11.85.2-22.65 1.4-4.05 4.8-10.65l6.45-12.75q4.9-10.15 7.7-23.6 1.3-6.4 2.9-18.8.95-7.45 1.9-6.9 1.2.7 4.7 12.35 1.1-3.05 2.9-2.35 1.7.7 3.3 4.45 3.85 9.1 2.7 22.75.95-1.75 2.2-1.5 1.4.3 2.2 3.15"/><path fill="#dbdcdc" d="M167.15 50.35q-.5 3.35.3 2.2l2.2-3.8q3.55-5.55 3.25 8.35-.1 4.05-.6 6.4l-1.05 4.55q.85.7.45 5.4-.45 5.2-2.2 10.65-5.05 15.45-16.2 19.2-1.25 4.95-4.6 7.6-3.4 2.8-7.25 1.6.55-.9-1.3-4.3-2.8-5.2-3.85-8.1-4.85-13.35 2.9-27.75 4.3-8 10.85-24.65l6.75-17.1q1.75-3.25 1.5 6.75-.25 9.75.25 8.6 6.25-14.05 8.4-9.7 1.75 3.5.2 14.1"/><path fill="#fff" d="M82.75 79.9q3.25 1.6 3.95 5.05.6 3.1-.95 6.35-1.55 3.2-4.25 4.4-3 1.4-5.95-.55l-8.3-7.25-8.1-7.55q-1-1.1-.9-1.9.05-.75.9-.75l10.9.45q10.55.7 12.7 1.75"/><path fill="#dbdcdc" d="M86.15 89.45q-.65 4.25-3.65 6.15-3.2 2-6.95-.45-2.15-1.4-13.3-11.8.1-.6 9.15 2.3 10.7 3.4 14.75 3.8"/><path fill="#0d131a" d="M126.6 115.65q0 6.85-5.9 11.75-5.3 4.4-10.85 4.4-4.2-3.4-5.55-10.65-1.1-6.05.05-11.1 1.35-6.05 4.8-10.5 3.45-4.45 7.15-5 4.75 1.1 7.65 7.45 2.65 5.9 2.65 13.65"/><path fill="#1d2087" d="M107.7 176.05q0 4.9-3.45 8.4-3.5 3.45-8.4 3.45t-8.35-3.45q-3.45-3.5-3.45-8.4 0-4.85 3.45-8.35 3.5-3.45 8.35-3.45 4.9 0 8.4 3.45 3.45 3.45 3.45 8.35"/><path fill="#181878" d="M102.2 166.1q2.55 1.6 4 4.2 1.5 2.65 1.5 5.75 0 4.9-3.45 8.4-3.5 3.45-8.4 3.45-3.65 0-6.65-2.05-2.9-2-4.3-5.3 7 2.6 12.55-2.2 5.5-4.7 4.75-12.25"/><path fill="#fff" d="M114.7 111.05q0 2.65-1.15 4.55-1.15 1.85-2.75 1.85t-2.7-1.85q-1.15-1.9-1.15-4.55 0-2.6 1.15-4.5 1.1-1.85 2.7-1.85t2.75 1.85q1.15 1.9 1.15 4.5"/><path fill="#8d80bb" d="M211.3 196.95q.2 1.05-.35 2.05-.6 1-1.65 1.35l-2-.25q-.95-.5-1.15-1.6-.25-1.1.3-2.1.6-1 1.7-1.35 1.05-.3 1.95.25.95.5 1.2 1.65m-5.35 17.7q-.7 1.2-2 1.55-1.25.4-2.35-.25t-1.35-1.9q-.3-1.3.4-2.5.65-1.2 1.95-1.55 1.25-.4 2.35.25t1.4 1.9q.3 1.3-.4 2.5M94.9 174.15q-.95 1.45-2.45 1.85-1.55.45-2.75-.4-1.2-.8-1.35-2.4-.2-1.55.75-3 1-1.4 2.5-1.8 1.5-.45 2.7.35 1.2.85 1.4 2.4.15 1.6-.8 3"/><path fill="#0d131a" d="M210.7 182.2q-3.5-4.1-4.05-3.65l1.6 3.6q1.75 4.25 1.85 7.6l-.1 1.45q2.05-.4 5.4.1-.75-4.5-4.7-9.1m-4.7-2.7q-1.05-1.9-.5-2.3.5-.45 2.4.8 3.95 2.5 6.15 5.4 2.7 3.5 4.05 8.95-2.6-1.05-6.65-.9l-3.55.4q1.1-7.2-1.9-12.35"/><path fill="#0d131a" d="M212.65 190.2q5.2 0 8.85 3.65 3.65 3.7 3.65 8.85 0 2.8-1.2 5.35-1.2 2.45-3.25 4.15-.65-.65-1.35-2.15 3.45-3.1 3.45-7.7 0-4.35-3.05-7.4-3.1-3.05-7.45-3.05-4.3 0-7.4 3.05-3.05 3.05-3.05 7.4 0 1.9.7 3.6l-1.7.75q-.65-2.05-.65-4 0-5.15 3.65-8.85 3.65-3.65 8.8-3.65"/><path fill="#0d131a" d="M208.65 204.2q6.35 0 10.8 4.5 4.5 4.5 4.5 10.85 0 6-4.1 10.4-4.05 4.35-9.95 4.85.95-1.6.85-2.75 4.65-.85 7.75-4.5 3.1-3.7 3.1-8.55 0-5.45-3.9-9.4-3.9-3.9-9.4-3.9t-9.4 3.9q-3.9 3.9-3.9 9.4 0 4.9 3.25 8.7l-1.6 1.35q-3.35-4.15-3.35-9.5 0-6.35 4.5-10.85t10.85-4.5M60.5 23.3q-2.65-2.35-3.5-.75-.7 1.45.25 4.65.55 1.9 6.35 16.8 5.6 15.5 6.1 22.05.35 5.1-.1 4.9-.5-.25-.85-4.25-.3-3.5-3.25-12.65-2.95-9.05-2.95-7.25-.5.75 1.65 11.85 2.3 11.9 2.2 13.8-.1 4.1-3.85-14.3-.6 1.75-.7 5.65-.15 5.85 1.15 13.95l-.95-.35-.55-.85q-.65-.85-.85-.75-.25.1-.2.75.05.65.4 1.55l-2.15-.4q-.15-2.85.7-3.95.7-.9 1.65-.3-.9-8.55-.5-12.8.3-3 1.45-4.55-1.05-5.75-1.25-9.55-.15-2.45.05-3.25l-3.95-10.95q-2.7-7.2-2.7-9.95 0-1.35.5-2.25.85-1.4 2.75-1.2 3.1.35 8.95 6.9 5.75 6.45 8.55 12.6 3.7 7.85 5.7 17.45 2.15 10.55.75 16.4l-1.25-.35q.65-6-1.85-15.8-2.25-8.9-5.9-16.75-3-6.4-6.15-10.35-1.9-2.4-5.7-5.75M68 98.1q-2.85-.85-5.4-6.4-2.1-4.5-3.3-10.4l2.45 1.5q.7 2.75 1.3 4.35l2.4 6.6q1.15 2.6 2.35 2.95l.2 1.4m4.55 32.35q-6.2-5.15-7.55-12.9-1.25-7.35 2.65-10.95l.5 2.1q-2.55 3.05-1.2 9.25 1.35 6.4 5.85 10.45l-.25 2.05"/><path fill="#0d131a" d="M127.55 63.55q4.2 2.15 7.05 4.2l-1.4 1.7q-3.35-2.4-7.15-4.1-13.1-5.75-28.35-1.2-14.15 4.2-22.4 14.45l-2.45-.35q8.9-12.1 24.45-16.7 16.4-4.8 30.25 2M68 88q.85.55 1.75 2.1-1.45 6.05-1.5 12.9-.05 6.95 1.4 11.1 2.6 7.45 3.35 12.35 1.1 6.8-.75 10.95l-.2.45q-2.85 6.35-2.85 9.55-.05 5.5 6.15 8.6 8.35 4.15 15.85 4.3 4.9.1 13.85-2 4.7-1.1 4.3-.4l-1.25 1q.25.3-.45 1.35l-3.6 5.55-.8 1.3q-1.25-1.15-2.1-1.5l2-2.75 1.4-2.1q-5.2 2.05-13.1 1.75-9.85-.35-17.7-4.7-7.05-3.85-6.45-10.95.3-3.25 3.65-10.75l.2-.5q1.6-3.6.15-9.75l-3.55-11.1q-1.65-4.75-1.6-12.55Q66.2 94.35 68 88"/><path fill="#0d131a" d="M149 110.5l1.35-1.65q.8-.95 1.65-1.15-.45 11.4-4.45 26.25-3.9 14.4-10.65 30.2-3.15 7.35-10.6 19.85l-15.2 24.4q-18.4 29-28.5 49.5-13 26.3-14 41.5-1.25 20.2 11.15 28.6 8.7 5.9 19.75 4.55-7.6-4.4-12-13.35-4.6-9.35-3.2-18.8 2.25-14.95 13.65-27.45 10.7-11.7 26.1-17.7 9.65-3.8 20.85-6.9l16.7-4.25q14.65-3.65 23.45-7.8 11.05-5.25 15.45-12.25 2.9-4.55 7.4-3.95 2.55.35 4.1 2.3 1.95 2.5.75 6.3-3.2 10.35-12.5 17.65-9.9 7.8-31.6 16.1-15.25 5.85-24.25 15.6-7.9 8.55-6.75 14.55l8.9.7 10.95-.9 17.45-1.25q11.25-.4 20.75 1.1 10.95 1.75 21.4 7.2 10.55 5.5 18.05 13.45 7.6 8.15 11.7 18.2 5.35 13.2 3.75 28-1.15 11.05-6.5 19.95-5.45 9.05-14.5 14.8-12.05 7.65-29 8.8-17.2 1.15-34.35-4.75-17.1-5.85-31.35-5.3-9.65.4-25.1 4.8l-12.9 3.7q-8.25 2.2-14.45 3.05-32.5 4.45-56.5-15.95-11.15-9.5-17.6-21.8Q.3 350.95 0 331.6q-.45-32.6 17.65-63.75Q28.6 249 49.9 226.5l19.55-20.55q9.9-10.7 18.1-21.35.75 1.2 1.85 1.65-15.8 20.2-35.9 40.35-19.9 19.85-33.15 43.85-21.75 39.4-15.45 75.3Q6.7 356 12.7 366.3q6.5 11.1 16.2 19.35 23.55 19.9 55.35 15.55 5.85-.8 13.45-3.1l12.05-3.7q15.6-4.45 25.45-4.75 14.35-.5 31.9 5.55 16.85 5.8 32.45 4.9 15.55-.85 27.15-8.2 8.75-5.55 14-14.1 5.25-8.6 6.35-19.1 1.55-14.3-3.5-26.8-3.85-9.5-11.15-17.3-7.3-7.8-17.1-13-9.8-5.15-20.35-6.85-9.45-1.45-22.65-1.15l-19.5 1.25q-17.4 1.5-22.2-3.75-.75-.8-.55-1.05l.9.15 3.25 1.7q0-7.45 8.1-15.7 9.3-9.5 25.95-15.9 20.1-7.75 30.65-15.9 10.6-8.15 12.65-17.55.25-3.95-3.65-4.8-3.9-.85-5.5 2.35-5.55 8.5-16.65 13.85-8.2 3.95-23.65 7.8-9.7 2.4-15.8 4.15-10.15 2.9-20 6.6-13.7 5.1-24.8 16.7-12.25 12.85-14.25 26.9-1.25 9.25 2.65 17.4 3.9 8.15 12.7 14.65l.6 2q-8.45 1.4-15.65 0-7.2-1.45-11.95-5.4-10.15-8.5-10.55-28.4-.25-15.15 14.15-42.85 8.55-16.45 30.2-50.5l15.15-24.25q7.4-12.4 10.5-19.7 12.9-30.15 13.95-52.85"/><path fill="#0d131a" d="M128.45 140.4q1.55-2 1.75-1.25.2.7-.95 2.5-1.95 2.95-8.55 8.9-8.5 7.55-14.55 9.45-6.75 2.15-6.4 1.05.4-1.1 5.9-3 4.9-1.7 12.3-7.55 6.9-5.5 10.5-10.1m43.95-94.6q-.75-7.7-2.85-6.85-.15-.05-1.35 10.5-1.95 12.45-6 20.8-.8 1.65-1.75 2.3-.95.65-.05-1.5 7.3-16.7 6.7-37.2-.2-7.6-1.45-13.5-1.15-5.35-2.4-6.2l-1.9-.2q-.75.35-1 .85.85 4.95.85 12.4-.05 15-4.35 27.8-.65 1.95-1.8 2.55-1.1.6-.05-1.5 2.1-4.15 3.6-20.65 1.85-20.1-2.6-29.2-1.35-2.8-1.85-.45-.3 1.35-.55 4.95-1.45 11.55-3 18.65-2.8 12.7-7.5 22.5l-4.75 9.4q-4.6 8.9-6.05 12.75-2.4 6.3-2.4 12 0 5.2 1.8 11.15 2.2 7.1 5.3 10.95 3.15 3.85 6.8 3.75 7.2-.15 8.65-11.25 1.3-9.85-1.95-16.3-1.1-2.25-2.8-3.5-1.8-1.3-3.55-1.1-3.45.45-4.45 5.45-.9 4.15.8 9.4 1.6 5 3.7 6 1.3.6 1.1.95-.15.3-1.45 0-3.2-.85-5.15-6.75-1.85-5.75-.85-10.4.6-2.85 1.95-4.7 1.45-2.05 3.35-2.25 2.1-.25 4.65 1.3 2.5 1.55 3.85 3.95 1.9 3.3 2.55 9.75.55 5.45 0 9.5 9.1-3.8 13.75-16.45 2.85-7.7 2.85-14.35l-1.6 3.15q-2.35 5.05-5.1 8.4-1.3 1.6-2.25 1.8-.9.15.7-1.8 2-2.35 4.65-8.35 3-6.95 4.45-13.6 1.55-7.2.75-14.9m-6.2-30.55q3.25 7.55 3.5 21.55 2.15-.55 3.6 2.3 1.45 2.85 1.45 7.7l-.3 9.7q-.6 6.6-2.15 11.35 2.1 10.85-3.2 21.65-5.45 11.05-15.1 14.6-1.3 4.45-3.9 7.3-2.8 2.95-6.15 3.05-4.35.1-8.2-4.4-3.9-4.55-5.95-12.3-3.1-11.9-.95-20.4 1.1-4.25 7.7-17.05l4.75-9.35q4.55-9.5 7.2-23.25 1.15-5.9 2.85-19.5.65-5.15 1.2-6.65.55-1.45 1.8-1.55 2.25-.25 5.35 11.95 3.35-3.9 6.5 3.3m-84.7 79.3q1.9-1.05 3.1-3.3 1.25-2.25 1.25-4.6v-.2q-.1-3.95-3.55-5.65-1.5-.7-7.2-1.3l-13.4-.8-2.05.25q-.15.25.95 1.3l8.05 7.5 7.45 6.55q2.75 1.8 5.4.25M81.8 79q1.75.35 2.85 1.4.8.7 1.65 2.25 1.95 3.5.45 7.8-1.4 4-4.6 5.65-1.95 1-3.6 1-1.8 0-3.55-1.1-1.35-.85-14.7-13.25-4.15-3.8-3.35-5.05.65-1.1 5.6-.75 13.65.9 19.25 2.05m44.25 36.65q0-7.35-2.45-13.1-2.75-6.4-7.3-7.45-3.25.5-6.3 4.6-3.1 4.15-4.65 10.05-1 4-1 7.8 0 9.35 5.7 13.7 5.45-.1 10.4-4.35 5.6-4.75 5.6-11.25M109 98.7q3.65-4.65 7.45-4.65 4.65.05 8.1 7.35 3.15 6.7 3.15 14.25 0 7.2-7.7 13.2-3.05 2.4-6 3.4-3 1-4.3.05-3.9-2.75-5.65-10.25-1.7-7.1-.3-12.45 1.7-6.45 5.25-10.9m-13.55 66.35q-4.5 0-7.65 3.15-3.2 3.2-3.2 7.65 0 4.5 3.2 7.7 3.15 3.15 7.65 3.15 4.45 0 7.65-3.15 3.15-3.2 3.15-7.7 0-4.45-3.15-7.65-3.2-3.15-7.65-3.15M86.8 167q3.75-3.8 9.05-3.8 5.3 0 9.1 3.8 3.75 3.75 3.75 9.05 0 5.35-3.75 9.1-3.8 3.8-9.1 3.8t-9.05-3.8q-3.8-3.8-3.8-9.1t3.8-9.05m42.9 153.3q11.3-3.4 23.9-2.05 9.45 1.05 16.65 3.9 4.3 1.75 10.1 5.35 4.2 2.55 9.2 3.7 5.1 1.15 7.95 0l3-.1q.1 1.05-2.55 2.05l-8.65.4q-5.2-.9-9.25-3.4-5.75-3.55-9.95-5.25-7.15-2.9-16.25-3.9-12.4-1.35-23.1 1.55-7.1 1.9-16.05 6.75l-6.25 3.55q-3.85 1.8-9.2 2.1-4.3.3-2-1.05l3.2-1.4q3.9-.5 7.1-1.9l5.9-3.1q9.65-5.2 16.25-7.2"/></svg>