<svg xmlns="http://www.w3.org/2000/svg" width="359" height="600" viewBox="-2.15 -0.35 358.9 600.1"><path fill="#5dc1cf" d="M63.35 115.95q1.4.1 10.2 11.5 12.3 16 20 24.55 31.5 35 55.45 31.9 24.55-3.15 8.1 28.45-8.2 15.8-21.35 32.2-16.55-26.85-40.9-24.2-9.5 1-18.65 6.5-8.05 4.85-13.35 11.5-15.95-9.5-32.85 7.6-10.85 11-18.25 27.5-2.5-8.45-4.1-20.5-3.2-24.1 1.3-42.05 6.8-27.3 21.05-55.2 17.45-34.35 33.35-39.75"/><path fill="#50a8b4" d="M63.35 115.95q1.4.1 10.2 11.5 12.3 16 20 24.55 31.5 35 55.45 31.9 24.55-3.15 8.1 28.45-8.2 15.8-21.35 32.2-4.9-7.9-10.65-13.35-4.3-25.6-29.8-56.75-9.15-11.15-17.9-19.15-8-7.3-9.3-6.45-10.55 6.85-15.95 44.55-1.25 8.85-2.65 21.6-1 7.3-1.9 2.4-3.7-20.2 1.7-48l3.25-15.3q1.1-5.3-.35-4.2-8.55 6.6-22.3 33.55-13.45 26.3-17.85 44-1.05 2.3-2.1 1.8-1.05-.45-1.65-3.15-1.55-6.55.65-15.2 6.8-27.3 21.05-55.2 17.45-34.35 33.35-39.75"/><path fill="#f9be00" d="M241.95 523.95q9.25 23.25 24.25 43 12.9 17.1 27.65 28.55 2.4 1.85-1.95 2.5l-12.05-.75q-44.55-8.1-78.85-35.65-28.8-23.15-48.65-58.4-16.15-28.6-24.1-60.5-6.6-26.5-5.05-42.05l113.2.6q-17.7 64.45 5.55 122.7"/><path fill="#d7a400" d="M236.4 401.25q-5.25 19.15-6.8 37.8-38 31.25-44.7 72.8-2.05 12.95-.8 25.65.6 6.3 1.6 10.3-33.55-33.9-51.05-83.8-6.75-19.3-9.75-37.55-2.65-16-1.7-25.8l113.2.6"/><path fill="#fff3c2" d="M241.95 523.95q9.25 23.25 24.25 43 12.9 17.1 27.65 28.55 2.55 1.95-2 2.75-4.75.9-12-1Q243.7 588 215.4 560.9q-24.5-23.55-40.2-57.45-13.95-30.05-17.6-60.25-3.5-28.75 3.55-44.7l75.25 2.75q-17.7 64.45 5.55 122.7"/><path fill="#dbd2a9" d="M236.4 401.25q-4.95 17.95-6.65 35.75-39.2 29.95-45.6 82.25-20.3-36.15-26.4-66.45-6.5-31.9 3.4-54.3l75.25 2.75"/><path fill="#dbdcdc" d="M140.7 450.55q1.1-2 6.65 3.65 2.75 2.8 5.3 6l-1.6 7.5q-2.1 7.8-4.8 9.4-3.5-2.5-5.4-12.95-1.8-10-.15-13.6"/><path fill="#f9be00" d="M193.2 414.65q4.65 7.9 4.35 18.9-.2 9.3-3.75 17.9-1.55 3.75-6.25 7.1-4.65 3.25-10.8 5.05-14.45 4.25-24.4-1.95-12.15-7.6-16.3-25.45-3.05-13-1.2-23.55l58.35 2"/><path fill="#d7a400" d="M197.45 429.1q-15.35.95-28.9 8.15-13.4 7.1-22.6 19.05-8.1-8.8-10.65-23.85-1.95-11.3-.45-19.8l58.35 2q3.7 6.25 4.25 14.45"/><path fill="#fff" d="M152.95 460.75q3-4.4 10.4-3.7 7.2.7 9.75 5.05-.55 5.75-4.4 14.4-3.95 8.7-6.1 8.5-2.25-.25-5.85-9.2-3.7-9.05-3.8-15.05"/><path fill="#dbdcdc" d="M161.4 457q-2.7 2-2.35 11.55.25 6.3 1.75 15.15-2.55-4.5-5-11.3-2.8-7.7-2.85-11.65 1.2-1.85 3.55-2.8 2.15-.9 4.9-.95"/><path fill="#fff" d="M174.95 461.9q1.6-3.9 6.55-7.65 6-4.5 9.65-1.05.9 9.25-1.05 18.65-1.95 9.5-4.75 9.05-2.85-.45-7.15-8.4-4.35-7.95-3.25-10.6"/><path fill="#dbdcdc" d="M174.95 461.9q1.05-2.45 4.15-5.55.8 14.75 5.9 24.45-2.95-1-7.05-8.7-4.05-7.7-3-10.2"/><path fill="#f9be00" d="M76.2 135.45q-7.25-11.2-9.6-13.15-6.95-5.8-21.9 18Q33 159 20.2 188.85 10.7 211 10 244.65q-.65 29.8 4.95 43.7.9 2.2.6 3.2-.3.9-1.4.2-2.9-1.7-6.05-9.15-9.55-22.85-4.85-62.85 4.4-36.9 29.4-76.1Q41.7 129.4 51.4 118.3q8.4-9.65 12.25-11.45 6.55-3.1 9.4-2.2 2.7.85 2.45 5.45-.25 5.05 1.4 9.05 2.3 5.5 11 18.65 10.6 16.05 28.5 29.35 20.1 15 31 10.9l4.45 4.95q3.35 4.85-2.1 4.4-33.9-2.9-58.3-31.1-6.75-7.75-15.25-20.85"/><path fill="#d7a400" d="M63.65 106.85q3.45-1.6 5.9-2.15-5.4 3.05-6.7 5.8-2.05 4.35-6.65 8.75-24.8 23.85-39.3 63-11.7 31.55-12.05 56.5-.2 15.8 1.65 26.75 2.45 15 9 24.6.3 1.55-.35 1.85-.65.3-1.85-.8-3.1-2.85-5.95-10.45-8.6-22.85-4.1-60.95 4.4-36.9 29.4-76.1Q41.7 129.4 51.4 118.3q8.4-9.65 12.25-11.45m12.55 28.6q-7.25-11.2-9.6-13.15l-1.3-.75q1.6-.85 3.55-.6 3 .5 5 4.05Q80 136.2 92.3 151.1q17.3 21.05 23.85 15.9 9.2 6.9 16.95 9.85 8.65 3.3 14.3 1.2l4.45 4.95q3.35 4.85-2.1 4.4-33.9-2.9-58.3-31.1-6.75-7.75-15.25-20.85"/><path fill="#5dc1cf" d="M241.45 59q20.4 4.15 41.6 28.05 12 13.55 29.25 40.75 9.25 14.5 12.1 38.95 1.45 12.2 1 21.5-20.6-22.35-30.3-21.5-4.4.4-8.15 5.3-2.65 3.45-6.8 12.15-16.3-10.65-31.25.15-5.7 4.15-9.4 10.25-3.45 5.7-3.4 10l-24-18.7 18.8-50.1q2.55-10.95 5.1-26.05 5.15-30.2 5.45-50.75"/><path fill="#50a8b4" d="M241.45 59q20.4 4.15 41.6 28.05 12 13.55 29.25 40.75 6.45 10.1 9.85 25.55-14.5-23.25-36.75-47.8-24.6-27.2-28.5-20.3-.8 1.45 7.05 18.1 8.9 18.9 10.25 27.65-5.2-13.65-12.7-26-8.25-13.65-10.6-10.2-7.6 11.05-5.55 92.5-4.25 4.05-6.85 9.05-2.45 4.75-2.4 8.25l-24-18.7 18.8-50.1q2.55-10.95 5.1-26.05 5.15-30.2 5.45-50.75"/><path fill="#f9be00" d="M239 54.05q5-.35 17.35 6.75 14.8 8.5 29.05 22.45 17.85 17.4 30.05 43.3 14.2 30.2 13.7 59.1-.15 8.45-.75 10-.55 1.45-1.8-2.55l-7.35-28.45q-10.3-37.95-30.8-64.4-18.25-23.55-38.95-31.6-3.8-1.5-4.85 4.65l-1.1 16.8q-1.65 30.6-13.85 46.8-2.95 3.9-5.4 5.85l-1.9 1.15q7.55-11.55 11.15-38.5 3.2-23.9 1.1-35.9-1.7-9.65-.7-12.6.85-2.55 5.05-2.85"/><path fill="#d7a400" d="M249.5 68.65l-2-.45-1.85-.05q-.15-1.1 0-1.6.3-.95 2.5-1.5 1.6-.35 6.7 1.9 6.1 2.75 12.85 7.6 19.1 13.7 32.35 36.1 13.9 23.45 19.7 40.75 6.1 18.2 4.7 33.8l-5.2-20.55q-10.3-37.95-30.8-64.4-18.25-23.55-38.95-31.6m-9.15 45.05q-3.4 13.55-10.65 23.2-2.95 3.9-5.4 5.85l-1.9 1.15q4.55-6.9 7.8-20.3 2.85-11.55 4.2-25.55 1.2 7.25 4.35 3.1Q241 98.2 243.5 90.9q-.75 13.3-3.15 22.8"/><path fill="#f9be00" d="M270.3 382.95q20.45-9.75 30.3-4.75 17.75 9 29 19 15.45 13.75 3.35 18.95-20.75 8.9-27.25 9.9l-6.95-.35q-2.6-.85-6.05-3.45l-22.55-15.15q-16.6-11.05-18.3-13.45l5.4-3.55q6.7-4.15 13.05-7.15"/><path fill="#d7a400" d="M251.85 393.65l5.4-3.55q6.7-4.15 13.05-7.15 20.45-9.75 30.3-4.75 5.35 2.7 10.75 6-9.1 1.85-15.3 8.7-8 8.75-10.1 24.65l-20.65-13.7q-11.95-8.1-13.45-10.2"/><path fill="#f9be00" d="M261.15 338.05q5.25-18.35 13.1-40.55l6.8-18.5q18.25 9.15 28.8 21.9 14.55 17.6 12.6 40.25-2.3 26.7-23.3 41.1-16 10.95-39.55 13.15-15.3 1.45 1.55-57.35"/><path fill="#d7a400" d="M260.6 338.75q5.45-18.55 13.5-41.05l6.95-18.7q4.6 2.3 9.2 5.15-18.45 52.4-8.8 76.9 3.75 9.5 11.3 13.35 6.5 3.3 13.9 1.7-9.15 8.95-23.2 14.55-12.3 4.9-24.9 6.1-15.3 1.45 2.05-58"/><path fill="#fff" d="M328.9 413.2q2.4-2.65 3.1-3.15 2.7-1.8 6.3-.75 2.4 1.3 5.2 6.9 2.75 5.5 2 7.25-1.15.35-5.15-1.1-3.8-1.45-6.2-3l-5.25-6.15"/><path fill="#dbdcdc" d="M328.9 413.2l1.9-2.15q3.2 2.05 9.15 7.15 5.7 4.9 5.55 5.25-1.15.35-5.15-1.1-3.8-1.45-6.2-3l-5.25-6.15"/><path fill="#fff" d="M328.15 429.25q-4.55-2.25-8.3-4.95l-5.25-7.6q2.35-4.2 6-5.4 4.55-1.5 9.75 2.45 2.8 2.2 5.65 10.1 2.8 7.8 1.35 8.35-3.1.15-9.2-2.95"/><path fill="#dbdcdc" d="M337.7 431.55l-.35.65q-3.1.15-9.2-2.95-4.55-2.25-8.3-4.95l-5.25-7.6q1.45-2.6 3.55-4.1 9.2 12.4 19.55 18.95"/><path fill="#fff" d="M299.4 425.2q2.25-5.25 3.9-6.85 3.1-2.95 9.3-2.5 4 .3 8.15 9.55 3.9 8.55 3.15 10.3-3.25 0-12.95-4.05-9.95-4.1-11.55-6.45"/><path fill="#dbdcdc" d="M323.95 435.35l-.05.35q-3.25 0-12.95-4.05-9.95-4.1-11.55-6.45l1.55-3.5q.95-1.85 2-3 3.7 4.6 9.9 9.15l11.1 7.5"/><path fill="#fff" d="M329.75 124.05q2.45-.25 9.8 1.7 7.55 1.95 7.15 3-.6 1.45-8.9 6.05l-8.05-10.75"/><path fill="#dbdcdc" d="M346.35 129.25l-5.15 3.5-3.4 2.05-3.95-5.3 6.25-.05 6.25-.2"/><path fill="#fff" d="M355.7 147.7q-.55 1.15-14.85 2.9l-1.15-14q5.75 1.8 11.4 6.1 5.15 3.95 4.6 5"/><path fill="#dbdcdc" d="M340.3 144.2q5.65 2.4 11.15 3.15l4.25.35q-.55 1.15-14.85 2.9l-.55-6.4"/><path fill="#fff" d="M340.25 151.5q7.95 10.75 7.9 12.25l-8.8-.3-8.7-1.45 9.6-10.5"/><path fill="#dbdcdc" d="M336.8 155.25q4.05 4.6 8.15 6.95 2 1.2 3.2 1.55l-8.8-.3-8.7-1.45 6.15-6.75"/><path fill="#f9be00" d="M276.45 119.25q15.75-6.45 28.2-4.8 35.6 4.75 37.35 28.3 1.2 15.7-11.95 20.55-10.55 3.85-23.65-.15-5.95-1.8-16.75-.65-11.25 1.15-22.55 5-28.3 9.65-34.5 27.2-2.9-.95-6.35-3-6.85-4.15-9.5-9.8-8.5-18.05 28.1-44.3 17.7-12.65 31.6-18.35"/><path fill="#d7a400" d="M232.6 194.7q-2.9-.95-6.3-3-6.85-4.15-9.55-9.8-8.55-18 27.9-44.15 1.85 12.1 7.8 15.5 6.75 3.8 22.1-.9 9.3-2.85 21.85-2.15l20.25 2.25q10.85 1.25 16.05-.2 7-2 9.3-9.5 1.9 15.4-11.55 20.35-10.95 4.05-24.05.05-5.95-1.8-16.75-.65-11.25 1.15-22.55 5-28.3 9.65-34.5 27.2"/><path fill="#dbdcdc" d="M45 249.55l7.6 18.95-4.7 2.35Q43 273 42.05 272.3q-1-.85.25-9.65 1.2-8.2 2.7-13.1"/><path fill="#fff" d="M53.45 270.25l14 8.45q-8.75 10.2-10.5 10.2-1.4 0-2.9-7.1-1.5-7.35-.6-11.55"/><path fill="#dbdcdc" d="M61.95 273.9q-2.4 4.85-3.2 7.1-1.4 4.15-.95 7.55l-.85.35q-1.4 0-2.9-7.1-1.5-7.35-.6-11.55l8.5 3.65"/><path fill="#fff" d="M78.35 292q-1.8 1-5.45-5.15-3.35-5.65-3.7-8.45l15.2-5.8-2.05 9.15q-2.35 9.35-4 10.25"/><path fill="#dbdcdc" d="M78.6 274.8q-1.8 3.75-1.55 8.45.25 3.6 1.75 8.35l-.45.4q-1.8 1-5.45-5.15-3.35-5.65-3.7-8.45l9.4-3.6"/><path fill="#f9be00" d="M223.1 99.6l.95 1.2q1.2 1.75 2.3 4.3 3.5 8.2 4.8 21.6 6.55 3.1 11.15 9.1 4.6 6.05 5.45 12.8 3.3 17.05-6.35 28-3 3.45-6.9 5.85l-3.35 1.75q1.9 14.8 8.85 30.65 6.05 13.7 12.45 21.25l10.5 12.55q8.7 11.4 14.35 23.15 17 35.6 5.2 71.1-12.45 37.2-32.8 53.45-19.35 15.45-54.45 18.3-3.45 3.35-10.95 6.15-9.55 3.65-19.7 3.45-28.95-.55-50.15-31.15-10-14.45-12.15-36.45-2.45-25.75 8.8-46.2 2.5-17.1 8.7-41.45l11.1-41.7q6.3-24 8.75-39.05 3.25-19.9 1.65-33.55l-2.9-24.05q-1.25-12.55-.45-20.7 1.95-20.5 19.55-32.3 11.4-7.6 23.25-8.45 11.25-.8 21.3 4.6 6.6 3.55 13.15 10.95 7.45 8.4 7.9 14.85"/><path fill="#d7a400" d="M211.45 183.25q9.9-.9 19.2-4.9 9.5-4.1 15.7-10.3-1.55 5.3-8.5 11.25l-6.7 4.9q2.15 16.65 10.4 33.95-5.7 6.1-18.85 4.85-12.55-.9-24.6-5.95Q186 212 177.05 203.9q-9.4-8.5-13.4-18.7-4.35-11.05-1.7-22.65 2.05 4.45 5.5 7.55 5.3 4.8 12.1 4.25.7.55-.8-2.75 4.95 6.85 14 9.8 8.35 2.75 18.7 1.85m4.5 193.45q4.2 1.2 25.7-5.65 20.2-6.45 35.2-13.2-12.2 28.7-31.7 41.85-18.4 12.4-49.9 14.95-3.85 3.7-11.1 6.7-9.4 3.9-19.4 3.8-28.3-.3-50.3-32.05-10-14.45-12.15-36.45-2.45-25.75 8.8-46.2 3.1-21.15 13.8-60.9 11.4-42.3 14.25-58.5-.15 4.65 3.05 12.2 3 7.1 2.2 15-9.4 17.2-15.35 39.2-5.85 21.45-5.85 37.65 0 2.05 1.85 1.3l3.7-2.2q2.15-1.35 2.6-.7.65.95-1.25 5.85-12.4 32.2-4.85 55.6 6.4 20 25.7 30 17.25 8.95 36.75 6.5 19.5-2.45 28.25-14.75m-63.9-285.25q-1.5 2.9-1 6 .4 2.7 2.05 4.4-9.15 1.15-9.8 25.05-.2 7.65 2.1 44.5.2 2.7-1.8 4.3-1.95 1.65-2.1-.95l.3-7.7q.3-6.65-.55-12.65l-2.95-13.6q-2.45-12-2.5-21.6-.25-29.95 21.7-41.55 11.65-6.2 21.4-7.7 10.45-1.6 19.35 2.05-11.4-1.55-17.45 0-7.8 1.95-9.9 9.4-14.95 2.4-18.85 10.05"/><path fill="#fff3c2" d="M214.95 189.75q9.3-1.65 16.2-5.55 1.9 14.8 8.85 30.65 6.05 13.7 12.45 21.25l10.5 12.55q8.7 11.4 14.35 23.15 17 35.6 5.2 71.1-12.45 37.35-33.25 54-19.95 16-54 17.75 31.75-25.85 15.5-66.3-5.6-14-16.2-27.6-8.2-10.5-14.3-15.1-12.9-14.1-14.2-55.65-1.15-37.3 6.8-71.45l6.3 3.2q3.25 1.25 5.4-.3 11.8 11.5 30.4 8.3"/><path fill="#dbd2a9" d="M214.95 189.75q9.3-1.65 16.2-5.55 1.5 11.7 6.35 24.45 4.15 11 9.65 20-6.65 4.25-16.4 4.55-9.9.25-20.55-3.65-24.7-9-40.25-33.7l1.3-8.95q.6-4.1 1.6-8.35l6.3 3.2q3.25 1.25 5.4-.3 11.8 11.5 30.4 8.3m.55 175.9q1.4 5.2 9.85 6.5 8.05 1.25 19.05-1.5 11.55-2.9 21.25-9.05 10.9-6.9 16.35-16.05-12.3 36.95-32.95 52.65-19.25 14.65-53.8 16.45 24.45-19.85 20.25-49"/><path fill="#f9be00" d="M143.3 175.45q2.85-3.85 6.95 2.15 4 5.75 5.8 15.15 1.95 10.4-.55 17.4-3 8.35-11.9 8.75-16.5.75-32.95 18.75-8.2 9-18.55 25.85l-5.15 8.15q-3.2 4.6-6.45 6.75-8.75 5.75-22.65-2.6-12.5-7.5-13.35-22.65-.65-11.35 4.85-23.45 7.65-16.85 31.6-28.8 16-8 32.9-11.45 13.6-2.8 16.9-4.1 7.35-2.85 12.55-9.9"/><path fill="#d7a400" d="M145.95 218.6l-2.35.3q-16.5.75-32.95 18.75-8.2 9-18.55 25.85l-5.15 8.15q-3.2 4.6-6.45 6.75-8.75 5.75-22.65-2.6-9.1-5.45-12.05-15.05-2.4-7.9-.55-17.9 3.3 16.05 13.15 21.6 9.95 5.6 18.3-4.6 43.6-53.5 69.25-41.25"/><path fill="#fff3c2" d="M131.9 90.8q11-.45 23.2 4.8 1.35.55 1.9 1.95.5 1.35-.05 2.65-.55 1.35-1.9 1.9l-2.7-.05Q141.6 97.45 132 97.9q-5.95.25-17.6 3.45l-8.75 2.85q-5.6 1.6-13.3 1.75-17.05.4-32.8-15.4-12.35-12.5-18.7-28.2-.55-1.35.05-2.7.55-1.35 1.9-1.85l2.7.05q1.35.55 1.85 1.9Q53.3 74.45 65.5 86.5 79.45 100.25 91.6 99q5.45-.55 11.15-1.85l9.8-2.55q12.6-3.5 19.35-3.8"/><path fill="#dbd2a9" d="M43.6 61.4q13.95 25.35 26.6 34.95 9.7 7.35 25.7 9.45l-3.55.15q-17.05.4-32.8-15.4-12.35-12.5-18.7-28.2-.55-1.35.05-2.7.55-1.35 1.9-1.85l.05.95q.05 1.35.75 2.65m100.5 34.3q4.65.9 8.15 1.95 5.15 1.5 4.7 2.55-.55 1.35-1.9 1.9l-2.7-.05q-9.5-4.05-17.9-4.25-6.3-.1-15.15 2.2 2.2-3.45 12.2-4.4 7.95-.8 12.6.1"/><path fill="#fff" d="M179.95 147q-3.15.45-7.05.1-7.85-.65-11.7-4.45-4-10.15-3.15-17 .85-6.8 6.15-7.85 5.25-1 11.25 10.4 5.9 11.3 4.5 18.8m47.8-17.55q-4.8-5.8-7.55-17.4-2.85-12 .95-13.1 2.2-.65 5.55 7.7 3.55 8.95 4.55 19.85-.6 1.65-3.5 2.95"/><path fill="#f9be00" d="M159.95 80q-.25-3.2 1.15-10.15 1.55-7.6 3.25-8.25 1.8-.7 7.05 2.9 5 3.45 7.95 7.1.75 2.35-.55 4.85-1.25 2.45-4 4-6.65 3.8-14.85-.45"/><path fill="#d7a400" d="M159.95 80q-.25-3.2 1.15-10.15 1.55-7.6 3.25-8.25l1.2-.05q.1 5.85 2.05 11.8 2.5 7.5 6.4 7.55-2.9 1.35-6.35 1.25-3.8-.15-7.7-2.15"/><path fill="#0d131a" d="M22.6 256.7q-6.35 9.15-10.85 19.35l-.4-2.7q5.25-11.8 10.3-19.35 10.65-16 22.65-19.8l3.35-.7-.9 3.15-1.5.4q-11.5 3.65-22.65 19.65m99.9-29.2q3.75 3.05 6.45 6.1l-.85 2.3q-1.45-1.7-3.9-3.75l-4.05-3.25 1.25-.65 1.1-.75m111.05 179.75l4.35-2.75q-16.45 63.65 6.7 120.95 9.15 22.65 23.65 41.85 12.5 16.45 26.35 27.25 3.75 2.9 2.9 4.1-.7 1-5.15 1.1l-8.25-.3-4.85-.5q-46.85-8.55-82.8-38.6-27.55-23.05-46.3-56.35-15.15-26.9-22.85-58-6.35-25.65-5.5-43.05l2.4 2.15q-.25 17.2 6.5 42.05 8.05 29.45 22.7 55.45 18.6 33 45.35 55.5 35.15 29.5 81.35 37.95 7.75 1.4 11.9.7l.85-.2-.55-.7q-25.1-19.9-42.6-52.45-22.05-41.15-22.05-87.9 0-23.85 5.9-48.25"/><path fill="#0d131a" d="M280.65 596.4l-.4 1.7q-27.05-6.15-51.4-25.05-18.8-14.55-34-34.95-11.4-15.25-19.65-32.2-6.05-12.45-9.35-23.35l1.15-2.45q2.75 10.65 10.6 26 9.6 18.7 22.6 35.2 35.35 44.8 80.45 55.1m-49.8-174.85l.1-.05v1.8q-5.55 4.65-11.2 6.8-9 3.4-22.2 2.85v-1.4q21.65-.15 33.3-10m-18.6 35.65q10.1-3.5 16.75-9.15l.1 1.75q-14.35 12.15-37.3 13.15l-.1-1.4q11.35-1.15 20.55-4.35"/><path fill="#0d131a" d="M208.7 489q16.2-4.3 21.2-9.05l.95 1q-6.2 5.75-21.75 10.05-19.55 5.4-37.9 2.25l-.8-1.3q18.25 2.4 38.3-2.95m10.85 27.5q12.2-4.2 15.9-9.95l.35 1.75q-4.05 6.4-16.4 10.3-15.25 4.8-35.05 2.1l.2-1.4q19.25 2.6 35-2.8m26.15 17.25l.7 1.1q-2.25 5.6-14.75 9.5-13.75 4.35-29.1 2.45l-.2-1.25q14.3 1.8 28.5-2.9 12.45-4.1 14.85-8.9m-22.5 33.8l-.75-1.25q13.35 1.2 23.75-3.05 9-3.75 11.1-9.1l1.1.95q-2.25 5.75-9.85 9.45-10.1 4.95-25.35 3m20.25 14.2q9.15.7 17.05-2.35 7.65-2.95 9.25-7.5l.95 1q-2.3 5.75-8.95 8.45-6.8 2.7-17.05 1.7l-1.25-1.3m-91.95-120.1l1.65.85-1.35 7.65q-1.25 5-4.1 8.3-1.5 1.75-3.35-.55-3.1-3.8-4.65-14.05-1.5-10 .2-13.65v-.05q.2-.3.85 0l.8.75.35 10.3q1 11 4.45 14.6.95 1.05 2.85-4.9 1.55-4.85 2.3-9.25m42.75-47.6q4.95 8.35 4.8 20.35-.1 10.35-3.6 18.8-1.3 3.3-4 5.9l-.1-5.9 1.3-2.25q3.4-8.2 3.7-17.15.35-10.8-4.2-18.5l2.1-1.25m-19.2 48.75q.05 1.15.9 2.3l-4.05.85.75-2.65 2.4-.5"/><path fill="#0d131a" d="M134.95 438.4q-2.85-11.9-1.55-24.05.35.5 1.15.6.9.15 1.25.35-.9 11.85 2.5 23.55 4.45 15.35 14.7 21.75h.05l.2 2.95-1.55-.85q-12.5-6.55-16.75-24.3"/><path fill="#0d131a" d="M157.2 458.65q-2.2.85-3.35 2.45.2 5.9 3.8 14.6 3.4 8.25 5 8.4 1.55-.05 5.15-7.95 3.75-8.2 4.35-13.8-1.2-1.9-3.95-3.15-2.8-1.25-6.05-1.35-2.8-.05-4.95.8m-5 1.65q1.5-2.2 3.95-3.4 2.65-1.25 5.9-1.15 3.75.1 7.1 1.85 3.3 1.65 4.7 4.05l.15.25-.05.3q-.45 5.25-3.7 13.65-3.3 8.55-5.85 10.65-1 .75-1.8.7-2.8-.3-6.65-10.4-3.8-9.85-3.9-16v-.3l.15-.2"/><path fill="#0d131a" d="M190.3 453.65q-1.65-1.4-3.85-.9-3.1.65-6.7 4.2-3.05 3-4 5.25-.4.95.5 3.8 1 3.05 3 6.65 1.85 3.25 3.65 5.35 1.65 1.9 2.55 2.05.35 0 .7-.35 1.75-1.65 3.05-7.8 1.35-6.3 1.35-13.3l-.25-4.95m-4.1-3.2q2.7-.65 5.55 2.1l.25.25.4 1.4q.8 8.2-.7 17.1-1.45 8.95-4 11.35-.95.9-2.15.8-2.75-.45-7.95-9.3-2-3.55-3.1-6.85-1.35-4-.65-5.65 1.05-2.55 4.55-6.1 4.2-4.35 7.8-5.1M65.9 123.15q-1.35-1.2-3.35-.75-7.25 1.7-19.95 23.4-10.5 18-21.45 43.45Q11.8 211.1 11.1 244.6q-.65 29.7 4.8 43.35.85 2.1 1.15 3.8.4 2.1-.25 2.6-1.2.9-4.6-2.5-6.05-6-9.4-20.2-4.95-21-1.2-52.6 2.45-20.6 12.15-42.75 6.9-15.75 18-33.2Q41 128.65 50.7 117.5q8.55-9.7 12.5-11.6 8.15-3.8 11.3-1.75 2.3 1.55 2.05 6.05t1.9 9.3q2.7 6 11 17.75 10 14.05 24.3 25.9 15.9 13.15 26.85 14.5l-1.6 1.9q-12.2-2.1-28.8-16.05-14.7-12.35-23.2-25.15-9.2-13.9-11.3-18.3-2-4.25-1.75-9.15.15-3.55-1.05-4.35-2-1.4-8.8 1.75-3.4 1.6-11.65 10.95-9.6 10.95-18.6 24.9Q8.65 183.1 4.3 219.9q-1.5 12.8-1.5 23.95 0 20.6 4.25 33.8 2.25 6.9 6.05 12.05 1.55 2.05 1.5 1.1-.05-.7-.65-2.05-2.25-5.7-3.65-16.2-1.45-11.1-1.45-23.85 0-16.1 2.35-30.9 2.65-16.8 8-29.35 9.6-22.4 18.55-38.65 15.15-27.7 24.2-29.85 2.65-.65 5.3 1.55 1.7 1.4 4.05 4.75l4.9 7.3q11.75 18.1 21 27.45 16.15 16.45 36.35 22.35-2 .95-4.1 1.6-19.9-6.05-35.2-22.75-6.75-7.35-19.8-27.5l-4.75-7.1q-2.3-3.2-3.8-4.45"/><path fill="#0d131a" d="M60.65 128.95q1-1.9 1.85-1.5.85.4.1 2.25-5.3 13.15-10.4 37.05-7.15 33.05-3.85 51.1.55 3-.15 2.7-.65-.25-1.05-2.1-3.95-17.8 1.15-47.55 4.7-27.1 12.35-41.95M281.4 184.8l-.8 1.15-1.15-.55q-8.9-6.05-16.2-5.8-4.65.1-10.7 3.45-6.95 3.8-11.6 11.25-4 6.45-3.95 11.05l-1.65-2.45q-.05-5.2 4.45-11.55 4.75-6.75 11.85-10.6 5.5-3 12-2.95 7.95.15 16.15 5.15 3.7-7.7 7.1-11.65 4-4.75 8.45-5.4 5.3-.8 12.05 4.05 6.5 4.6 17.95 17.05l.75 3.75q-11.15-12.1-18.65-17.75-8.05-6.05-12.75-5.3-3.7.55-8.2 7.5-3 4.6-5.1 9.6M250.35 79.15q-1.5-1.95-1.2-2.45.35-.55 2.45 1.25 4.75 4.05 10.95 16.85 5.25 11 9.1 22.8 1.15 3.6.2 3.55-.9-.05-1.85-2.85-4.75-14.25-11.9-27-4.3-7.75-7.75-12.15"/><path fill="#0d131a" d="M249.3 67.2q12.45 4.85 25 16.25 13.95 12.7 24.9 30.8l-2.35-.15q-10.7-17.3-24-29.05-11.6-10.2-23.35-14.8-1.45-.55-2 0-1.35.85-2 4.8-.55 3.1-.8 9.4-.55 13.4-1.85 21.45-2.25 13.65-7.6 23.8l-1.4-1.1q5.15-9.9 7.3-23.25 1.25-7.85 1.8-21 .15-8.2.4-11.15.4-4.7 2.15-5.85l3.8-.15m73.35 114.3l-4.05-15.85 1.85.1 3.9 15.35 2.2 9q1.2 4.85 1.3 4.05.3-1.95.45-8.55v-1.7q0-9.55-1.6-19.15l2.15-.75q1.8 10.95 1.65 21.2-.15 7.25-.8 10.25-.5 2.3-1.45 2.4-1.1.15-2.15-3.05-.8-2.4-3.45-13.3"/><path fill="#0d131a" d="M234.15 70.7q-1.15-6.6-1.2-10.25 0-3.7 1.2-5.2 1.5-1.95 5.75-1.75 4.7.25 11.2 3 16.25 7 35.6 25.85 13.9 13.55 24.7 32.9l-2.95-.35Q297.9 96.65 284.8 83.85q-13.85-13.55-27.9-21.6-11.65-6.7-16.6-6.35-3 .2-3.8 1.3-.85 1-.85 3.75 0 3.2 1.1 9.35.25 1.5.15 5.05l-.15 6.5q0 9-1.6 20.4-1.55 11.2-4.3 22.3-.7-1.45-1.05-3.05 3.2-13.95 4.4-29.4 1.15-14.45-.05-21.4m17.4 324.2l1.3-1.95q1.05 1.45 19.2 14.1l20.35 14.05q3.35 2.5 7.15 3.5.65 1.6 1.7 2.8-6.2-.55-10.45-3.25-5.8-3.75-21.5-15.3-16.45-12.2-17.75-13.95m52.35-15.45q1.15.1 6.3 2.95 6 3.3 11.6 7.3 16.2 11.45 17.15 19.75l-2.5-.2q-1.2-6.05-14.6-16.05-10.85-8.1-20.9-13l.55-.5 2.4-.25"/><path fill="#0d131a" d="M280.5 280.1l-.5-3.4q20.55 10.1 31.85 23.95 14.65 17.85 12.65 40.7-2.25 26.35-23.55 41.2-14.85 10.3-30.8 11.65l-4.5-.4q-1.4-.7 2.45-1.35 15.15-2.65 28.85-11.8 22.15-14.75 24.3-39.6 1.85-21.8-11.8-38.75-10.4-12.9-28.95-22.2m53.75 140.6l-.45-2.5q2.1 1.45 5.9 2.9 3.1 1.25 4.6 1.45l.5.05q1.1.15-1.85-5.55-2.95-5.8-5-6.9l-4.65.2q-1.35.65-2.75 2.25-.85-.5-1.7-.7 1.95-2.3 3.2-3.1 2.5-1.6 5.9-1 3.4.6 7.35 9.35 3.9 8.7 1.65 8.35-3.1-.5-6.9-1.95-3.65-1.4-5.8-2.85"/><path fill="#0d131a" d="M330.7 412.5q2.2 2.05 5.1 7.85 3.45 6.9 3.65 12 .05 1.65-.4 1.95-.6.35-3-.45-2.5-.8-7.15-3.2-4.45-2.25-7.7-4.35v-2.1q3.05 2 8.85 4.7 6 2.75 6.8 2.4.8-.35-2.25-7.75-3.1-7.35-4.8-9.1-1.4-1.4-3.35-2.25-2.2-.9-3.95-.5-2 .4-4.05 2.45-1.4 1.45-2.5 3.3l-.95-.8-.95-.75q1.25-2 3.05-3.7 2.5-2.3 5-2.85 2.1-.4 4.6.6 2.2.9 4 2.55"/><path fill="#0d131a" d="M316.1 419.25q-2.15-2.75-5.5-2.9-2.4-.1-6 3.65-3.7 3.85-2.9 6.2.45 1.3 10.4 5 9.4 3.45 10.9 3.5 1.05.1-1.55-6-2.7-6.3-5.35-9.45m10.1 15.25q.5 2.65.1 3.1l-2.85-.05q-5.95-1.5-13.05-4.3-8.3-3.25-11-5.7-1-.9-1-1.65-.05-.55.5-1.7 1.3-3.15 3.4-5.75 3.75-4.7 8.05-4.3 3.8.4 6.4 2.35 2.1 1.6 3.7 4.6 4.9 9.3 5.75 13.4M340.9 127l-6.85-1.6-2-2.05q4.05.5 9 1.9 5.4 1.5 6.25 2.65.45.55.2 1.15-.6 1.5-7.05 5.25l-.85-1.55q4.6-2.7 6-4-1-.7-4.7-1.75m15.6 19.9q.25.75 0 1.2-.8 1.55-14.45 3.25l.15-1.8q10-1.3 12.5-2.25-.95-1.55-4.6-4.25-4.5-3.3-9.1-5.05v-1.85q5.15 1.85 10.15 5.55 4.5 3.25 5.35 5.2m-14.65 5.3q7.25 10 7.15 11.6l-.4.8q-1.65 1.3-17.3-1.6l1.9-1.4q10.9 1.9 13.85 1.65-.9-2.05-6.35-9.7l1.15-1.35"/><path fill="#0d131a" d="M244.3 136.95q9.4-9.75 28.3-17.3 19.5-7.75 32.2-6.05 18.1 2.4 28 9.9 9.95 7.55 10.85 19.6.9 12.05-6.65 18.1-5.4 4.35-14.75 5.1-8.35.65-16.1-1.7-6-1.8-16.7-.75-11.1 1.05-22.2 4.75-27.8 9.3-33.8 26.35l-1.15-2.5q7.7-18.2 35.4-26.95 11.05-3.45 22.15-4.3 10.55-.75 16.8 1.15 7.45 2.25 14.95 1.7 8.5-.55 13.55-4.6 6.85-5.4 6-16.65-.85-11.45-9.7-17.95-8.75-6.4-26.45-8.75-12.2-1.6-30.4 5.45-17.15 6.7-29.2 16.75l-1.1-1.35M42.75 266.05q-.6 5-.1 5.55.5.5 2.55-.4l4.5-2.2.9 1.65-5.75 3.2q-3 1.45-3.85.8-1.9-1.5 2.05-20.55l.95 3.4q-.85 4.7-1.25 8.55m12.3 16.8q1 4.8 2 5.15.85.25 3.4-2.5l5-5.8 2.45.7q-9.4 11.15-11.4 11.15-.65 0-1.25-.7-1.4-1.75-2.4-8.6-1-6.95-.4-11.25 1.55 2.15 1.55 2.75 0 4.25 1.05 9.1m23.9 12.1l-2.05-.05q-1.85-.95-4.5-6.15-2.15-4.2-3.5-8.2l1.9.15q1.7 4.2 3.9 7.6 2.95 4.5 3.95 2.1 2.2-5.2 4.2-14.6l2.1-1.55-2.45 11.95q-1.95 7.85-3.55 8.75m60.1-197.25l2.6.5q-3.25 8.55-2.95 22.65.2 10.65 2.4 23.7 1.7 10.35 1.8 19.25 0 5.9-.8 13.85l-2.5 2.65q.75-5.4.6-13.7-.2-10.8-2.05-20.45-2.65-13.75-2.6-26.4 0-14.2 3.5-22.05"/><path fill="#0d131a" d="M229.95 184.5q.85-.4 1.2-.3l1-.2q2.1 14.6 9.1 30.55 6.05 13.9 12 20.9l1.7 1.95q7.2 8.15 11.6 14.3 8.35 11.5 13.55 23.3 4.35 9.9 6.75 20.15 2.45 10.6 2.45 20.2 0 13.2-4.95 29.1-11.15 36.1-33.05 53-21.4 16.5-58 18.55l1.9-1.3q1.65-.9 1.9-1.25 34.05-3.4 53.1-19.15 19.45-16.15 31.3-51.75 4.75-14.3 4.75-28.7 0-19.1-8.35-38.15-5.1-11.7-13.2-22.9-4.4-6.1-11.35-14l-1.7-2q-6-7.1-12.25-21.25-7.2-16.25-9.45-31.05M141.7 90.85q2.75-4.7 8.25-9.8 5.2-4.9 9.95-7.45l-.35 3.8q-9 4.95-15.05 14.35l-2.8-.9m80.35 84.8q-.55-.35-.4-1.2.15-.85 1.15-.5 3.55 1.3 4.75 2 .7.4.6.8l-.6.35-2.7-.55q-2.3-.55-2.8-.9m16.45-5.45q-.3-1.6.3-3.6.2-.85.65-.75.45.1.75.85.15.45-.5 3.65-.15 1.05-.65.85-.4-.2-.55-1m-107.25 11.7q9.1-4.25 11.1-6.9 1.1-1.5 2.1-1.75 1.15-.35-.15 2.6-2 4.3-10.8 8.5-8.2 3.9-18.55 6-18.6 3.85-35.4 12.65-22.25 11.65-29.2 27.15-4.5 9.7-4.9 19.65-.7 17.15 12.9 25.1 11.75 6.85 21.2.6 5.75-3.75 13.35-15.6 11.1-17.35 18.35-24.95Q127 218.35 144 217.4q2.1-.15 1.95.75-.1.9-2.1 1-15.75 1.15-31.5 18.3-9 9.75-18.7 26.05-6.8 11.55-13.9 15.45-9.95 5.5-22.75-1.65-14.9-8.35-15-26.35-.1-12.1 5.15-22.2 8.95-17.15 29.9-28.2 15.1-8 34.2-11.9 9.75-1.95 20-6.75"/><path fill="#0d131a" d="M156.15 97.85q-.4-1-1.4-1.45-12.05-5.15-22.9-4.7-6.65.3-19.1 3.75l-9.8 2.55-11.25 1.85Q79.25 101.15 65 87.2 52.6 75 46.55 60.05q-.4-1-1.4-1.4l-2-.05q-1.65.7-1.65 2.45l.2 1Q47.85 77.35 61 90.5q16.1 16.2 31.25 14.6 5.75-.6 11.85-2l10.1-2.6q11.75-3.25 17.8-3.5 9.75-.45 20.7 4.25 1 .4 2.05 0 1-.4 1.4-1.4.4-1 0-2m-24.25-8.3q11.35-.65 23.55 5.25 1.7.8 2.6 2.65.9 1.9.2 3.5-.7 1.65-2.65 2.15l-3.6-.25q-10.6-4.5-20-4.1-5.9.25-17.35 3.45l-10.35 2.75q-6.5 1.55-12.2 2.15-15.95 1.65-32.1-14.4-13.4-13.25-19.95-30-.7-1.75-.15-3.7.6-2.05 2.2-2.7l3.6.15q1.85.85 2.5 2.55 6.15 15.5 18.3 27.15Q79.9 99 91.95 97.75q9.75-1.05 20.35-4 13.8-3.85 19.6-4.2m33.2 26.65q3.2.8 6.1 3.65 4.3 4.25 7.35 12.55 2.95 8.1 2.7 14.3-.1 2.3-5.5 2.25-6.35 0-13.8-4.25-1-.55-1.4-1.3l-.9-2.3q-1.7-4.3-2.5-8.55-1.45-7.8.8-12.5 2.4-5.05 7.15-3.85m4.45 4.85q-2.9-2.8-6-2.25-2.75.45-3.6 2.95-1.35 3.85-.4 10.3.75 5.35 2.6 10.15 3.3 3.15 9.65 4.05 3.65.5 7.5.15l.15-1.9q0-5.5-3.1-12.7-3.05-7.05-6.8-10.75"/><path fill="#0d131a" d="M179.9 147.2l-9.85-.45-2.95-1.35q-4.05-8.5-3.4-15.35.55-6.2 4.1-7.15 4.8-1.3 8.65 6.75 3.8 7.9 3.45 17.55m42.2-47.05q-2.3-1.6-2.3 3.9 0 5.15 2.5 12.7 2.5 7.7 5.65 11.8 2-1 2.55-2.2-.75-8.75-3.4-16.45-2.65-8.1-5-9.75m-1.8-2.05q1.15-.45 2.5.45 2.65 1.85 5.4 9.9 2.9 8.5 3.75 18l-.05.5q-.75 2.05-3.65 3.15h-.75l-.3-.2q-3.9-4.75-6.95-14.65-3.15-10.25-1.75-14.85.6-1.85 1.8-2.3"/><path fill="#0d131a" d="M228 129.45q-3.55-3.4-6.3-11.85l-2.1-7.8q-.65-3.9.7-5.15 1.3-1.15 3.2.6 1.9 1.7 4.1 7.15 2.6 6.5 3.85 14.3-1.2 1.25-3.45 2.75M161.55 70.4q-1.95 7.6-.75 8.7 1.6 1.5 4.95 1.85 3.3.35 6.5-.55 3.35-1 5.2-3.5 1.75-2.45 1.1-4.9-.45-1.65-6.5-5.85-6.1-4.25-7.4-3.75-1.25.5-3.1 8m-3.05 8.8q-.55-2.05.95-9.85 1.7-8.5 3.9-9.35 2.3-.85 9.35 4.25 6.75 4.85 7.35 6.8 1.1 3.75-.8 6.65-1.9 2.9-6.45 4.45-5.1 1.75-9.85.15-3.9-1.35-4.45-3.1m97.75 231.75q11-4.7 18.3-11.6 6.6-6.15 8.15-12.05l.75.95q-1.8 6.7-8.45 13.15-7.35 7.05-18.45 11.75Q229 324.65 190.7 317l.25-1.4q37.4 7.2 65.3-4.65m-48 32.95l.25-1.4q25.55 3.4 48.85-4.65 22.05-7.6 29.75-20.75l.25 1.8q-7.95 13.55-30.25 21.2-23.7 8.15-48.85 3.8m6.35 20.4l.35-1.35q18.65 3.3 39.05-2.1 18.8-5 26.5-13.45l.45 1.85q-8.15 8.9-27.3 14-21.2 5.65-39.05 1.05m-.75 25.1l.15-1.4q16.55.95 30.3-2.5 14.45-3.65 24.05-11.65l.45 1.75q-9.95 8.3-24.5 11.9-14.25 3.5-30.45 1.9m-7.1 13.2q10.05 1.6 25.05-1.55 14.6-3.1 22.3-8.1l-3.1 3.45q-7.55 4.95-20.8 7.15-13.05 2.15-23.7.45l.25-1.4M130.7 222.25l3.2-1.7-7.15 27.1q-5.7 21.25-8.3 32.05-4.3 17.8-6.4 31.6l-1.45.6q-1.1.5-1.8 1.4l-.65 1.65q2.15-14.5 6.5-33.05 3.1-13.25 8.6-33.5l7.45-26.15m41.55-43.95l1.7.3q-7.7 41.2-7.55 68.4.2 38.3 14.95 58.6l-2.65-.65q-15.15-20.85-15.15-57.8 0-27 8.7-68.85"/><path fill="#0d131a" d="M231.35 188.75l1.15.85q-6.7 9.25-20.15 11.35-11.6 1.75-26.3-1.25-12.5-2.55-16.6-5.6l.85-1.15q3.6 2.7 15.4 5.1 14.35 2.95 26.15 1.15 13.55-2.1 19.5-10.45m-8.65 29.7q5.5-1.95 9.2-4.75 3.7-2.75 5-5.85l1.3.5q-1.45 3.5-5.15 6.55-3.9 3.2-9.5 5.15-11.3 4-25.3 3.1-16.4-1.1-30.9-9.05l.7-1.2q13.8 7.25 29.8 8.35 14.05 1 24.85-2.8m24.4 11l1.3.5q-1.45 3.65-5.55 7.2-4.2 3.7-10 6.15-12.5 5.3-29.05 5.25-19.25-.05-38.25-7.75l.5-1.3q18.6 7.5 37.9 7.25 16.3-.15 28.8-5.5 5.65-2.45 9.35-5.45 3.7-3.05 5-6.35m12 15.5l1.35.2q-.7 4.7-4.4 9.5-3.85 5.05-9.95 8.75-13.25 8-32.65 9.45-22.6 1.7-46.45-6.6l-.45-1.75q23.45 8.15 46.15 6.4 19.4-1.5 32.45-9.4 6-3.65 9.65-7.95 3.65-4.35 4.3-8.6m-.1 36.4q5.8-4.2 9.1-9.1 3.3-4.9 3.5-9.6l1.4.05q-.25 5.25-3.45 10.45-3.4 5.45-9.4 9.8-13.4 9.7-34.6 12.55-25 3.35-52.95-4.45l-.45-1.7q27.6 7.7 52.5 4.35 21.2-2.8 34.35-12.35M163.5 170.9q-1.4-2.9-1.85-5.95-.3-2.4.15-2.6.5-.2 1.35 2.5 2 6.05 6.5 10 3.65 3.2 7.9 5.05 4.2 1.9 7.15 1.65l.95 1.6q-4.5.3-8.95-1.2-4.6-1.6-8.5-4.95-2.95-2.5-4.7-6.1m39.75 161q14.7 24.6 14.05 45.95-.4 12.5-8.4 24.1-8.15 11.8-21.05 17.75-2.8 1.3-3.15.65-.3-.65 2.15-2 11.5-6.15 18.5-16.25 7.55-10.75 8.4-23.9 1.35-19.75-13-44.7-5.35-9.35-11.9-17.55-5.6-7.05-9.55-10.25-6.35-5.15-5-5 1.3.2 6 3.55 4.5 3.2 10.5 10.25 6.8 7.95 12.45 17.4m-90.55-20.75q-10.2 17.25-8.4 43.55 1.65 23.9 10.9 37.2 13.85 20 32.45 27.8 3.25 1.35 3.2 2.25 0 .9-3.4-.2-10.2-3.35-18.75-10.15-8.7-6.9-16.2-17.75-5.65-8.2-9.1-18.95-3.95-12.4-3.95-25.55 0-10.95 2.95-21.65 3.55-13.05 10.3-20.1 3.15-3.25 3.3-2.95.25.45-3.3 6.5"/><path fill="#0d131a" d="M241.75 137.9q-4.7-7.05-10.55-10-.6-.7-.4-1.45.2-.8 1.35-.4 6.9 3.4 11.55 9.2 4.95 6.2 6 13.6 3.2 22.4-12.25 33.5-8.15 5.85-20.6 7.8-10.25 1.5-17.95 0-6.25-1.25-11.45-4.65-5.45-3.6-8-7.75-2-3.35-2.95-8.55-.3-1.65.3-2.35.6-.75 1.1 1.1.85 3.05 3.35 7.15 3.45 5.6 7.85 8.45 5.05 3.35 12.35 4.35 9 1.25 19.6-1.45 17.75-4.5 23.75-17.85 4-8.85 2.25-18.55-1-5.8-5.3-12.15m-17-35.4q-.45-.9-1.35-1.7l-1.35-1.6q-1.1-7.2-9.05-15.6-9.2-9.7-20.85-12.45-6.85-1.65-13.95-.65l-1.85-2.2q8.3-1.05 16.3.8 12.9 3.05 22.2 13.05 9 9.65 9.9 20.35"/><path fill="#fff" d="M172.65 127.7q.35 1.7-.3 2.95-.65 1.15-2 1.4-1.3.3-2.4-.45-1.2-.85-1.55-2.55-.35-1.7.35-2.95.7-1.2 2-1.45 1.3-.3 2.4.5 1.15.85 1.5 2.55M224 109.15q.45 1.5.3 2.7-.15 1.2-.85 1.4-.7.2-1.45-.75-.8-.9-1.2-2.4-.45-1.45-.3-2.65.2-1.2.85-1.4.65-.25 1.45.7.8.9 1.2 2.4"/><path fill="#fff3c2" d="M233.35 2l2.7-.1q1.35.55 1.9 1.85 6.95 15.65 4.9 28.95-2.1 13.25-12.55 20.4-9.25 6.35-12.6 13.1-3.3 6.6-2.55 17.05.1 1.5-.7 2.55-.8 1.1-2.25 1.35-1.55.3-2.7-1.5-1.15-1.75-1.25-4.45-.4-11.35 3.35-18.7 4.05-7.9 14.75-15.2 8.2-5.6 9.6-16.55 1.4-10.95-4.4-24.15-.6-1.3-.05-2.65.5-1.4 1.85-1.95"/><path fill="#dbd2a9" d="M214.6 65.6q1.95-4.25 6.3-7.45 3.55-2.6 6.6-3.2-2.45 1.5-5.5 4.95-3.55 4-5.15 7.75-1.7 4.1-1.9 9.15l.2 6.45q.1 1.55-.3 2.25-.45.75-1.8 1-1.2.2-1.15-6.95 0-7.9 2.7-13.95"/><path fill="#0d131a" d="M238.75 3.4q7.35 16.85 5.45 29.9-1.85 13.05-12.6 20.35-5.75 3.95-8.8 6.95-3.9 3.85-5.55 8.2-.8 2.05-1.2 6.05-.35 3.85-.15 8.1.1 2.15-1.05 3.6-1.1 1.3-2.7 1.3-3.5.1-4.15-4.6-.45-3.95-.3-8.4.15-5.85 1.4-9.45 1.8-5.2 5.7-9.7 3.8-4.35 10.2-8.75 8-5.5 9.5-15.5 1.55-10.2-3.75-24.5-.9-2.4-.3-4.2.55-1.6 2.25-2.4 1.8-.7 3.35-.05l1.6 1.3 1.1 1.8m-3.05-.65l-2 .05q-1.55.6-1.55 2.4l.2 1.05Q237.1 17 237.1 26.6q0 6.95-2.55 12.45-2.65 5.55-7.7 9-8 5.45-12 10.95-4.15 5.65-5.05 10.2-.8 4.15-.05 13.8.35 3.2 2.45 3.15.95 0 1.6-.95.6-.9.5-1.95-.8-11.75 3-18.7 3.25-5.85 12.5-12.2 10.2-6.95 12.15-19.9 2-12.95-4.8-28.35-.4-.95-1.45-1.35"/></svg>