<svg xmlns="http://www.w3.org/2000/svg" width="274" height="313" viewBox="-0.05 -1.0 274.35 312.75"><path fill="#e9eff8" d="M126.95 129.25l6.45 9.85-29.15 63.6q-16.05-2.65-20.8-27.4-1.75-9.15-1.4-18.75.3-8.7 2-12.55l42.9-14.75"/><path fill="#c9cfd7" d="M126.95 129.25l6.45 9.85-19.4 42.25q-.4-6.6-1.65-10.9-1.55-5.3-4.8-8.55-2.7-3.6-10.3-5.75-5.1-1.4-15.05-2.65.55-6.55 1.85-9.5l42.9-14.75"/><path fill="#e9eff8" d="M92.1 49.65q6.5 8.35 8.8 13l22.7 71.15-1.8.35q-25.8 16.6-45.45 7.8-6.6-3-11.75-8.55-3.4-3.6-5-6.8L33.45 64.4q-1.9-7.1-2.25-15.75-.7-17.3 6.9-24.95 13.6-13.6 37.65 8 8.3 7.5 16.35 17.95"/><path fill="#c9cfd7" d="M95.75 54.5q3.95 5.7 5.15 8.15l22.7 71.15-1.8.35q-18.1 11.65-33.45 10.7 11.5-16.1 11.9-42.85.15-14.65-4.5-47.5"/><path fill="#e9eff8" d="M180.3 179.35l-23.15-49.3 4.15-12.1 79.7-4.15q3.5 5.1 6.6 13.95 3.85 10.95 4.7 21.55 2.2 29.4-19.45 43.55-16.7 10.9-36.3-.2-6.1-3.45-11.8-8.75l-4.45-4.55"/><path fill="#c9cfd7" d="M190.15 188.45q-3.8-2.85-7.2-6.25l-2.65-2.85-23.15-49.3 4.15-12.1 79.7-4.15 2.9 5.1q-8.95 10.25-21.45 16.7-12.2 6.35-25.85 8.15 1.15 26.85-6.45 44.7"/><path fill="#e9eff8" d="M261.2 7.95q9.25 8.2 10.6 33.2 1.4 25.8-11.6 48.7-11.05 19.5-24.45 25.7-12.45 5.75-30.45 8.4-20 2.95-33.5-.3l-16.85-23.8q1.3-10.85 8.55-24.9 6.95-13.45 17.85-26.9 24-29.7 48.6-40.05 21.2-8.95 31.25-.05"/><path fill="#c9cfd7" d="M179.4 102.65q8.8 10.1 14.9 22.5-13 .8-22.5-1.5l-8.2-9.45-8.65-14.35q.8-6.6 3.9-14.75 11.4 7.1 20.55 17.55"/><path fill="#6791b9" d="M70.6 186.95q.8-1.8 4.7-4 4.05-2.25 4.7-3.3.85-2.55 1.7-3.9 1.55-2.5 6.45-4.25 6.65-2.35 17.7-11.2 13.65-10.9 19.9-22l10.65 1.15-26.45 29.5q-6.55 6.75-14.35 11-5.45 2.95-9.85 3.95-5.25 1.2-4.25 7.3.4 2.3-.15 4.95l-1.05 3.8q-.3 1.1.05 6.4.4 6.4.25 9.4-.45 8.6-5.3 16.9-5.45 9.25-6.5 15.2-1.5 8.45 1.5 13.65 1.6 2.7 4.25 5.45l1.6 3.95q.6 1.9-.4 2.1-1.9.4-7.25 2.35-7.05 2.6-12.75 5.55-4.8 2.5-13.5 11.7-5.2 5.5-10.85 12.4-.45.55-1 .15-.45-.35-.55-.9L29 299.9q-.25-2.2-.25-7.5 0-3.95 10.95-11.45l10.9-6.7q7.25-9.4 9.1-13.35 1.2-2.6-.1-6.95-.75-2.65-3.25-7.9-1.9-4.05-.4-12.1 1.55-8.55 6.15-16.4 3.8-6.55 6.05-18.15l2.45-12.45"/><path fill="#567c9d" d="M79.2 191.35q.6-.9 1.3-1.3l.85-.4.15 1.55q.4 2.3-.15 4.95l-1.05 3.8q-.3 1.1.05 6.4.4 6.4.25 9.4-.45 8.6-5.3 16.9-5.45 9.25-6.5 15.2-1.5 8.45 1.5 13.65 1.6 2.7 4.25 5.45l1.6 3.95q.6 1.9-.4 2.1-1.9.4-7.25 2.35-7.05 2.6-12.75 5.55-4.6 2.35-22.4 21.7-.75-.65-1.1-1.65-.7-1.9 1.95-7.05 2.5-4.85 13.9-13.75 13.55-10.55 15.35-12.5 3.35-3.65 2-11.75l-.9-6.1q-.2-3.3 1.05-5.45 2.75-4.7 6.35-19.15 3.45-13.8 4.5-23.35.85-7.7 2.75-10.5m46.55-53.05l10.65 1.15-26.45 29.5q-4.75 4.9-10.2 8.5 2.7-5.05 2.5-8.7-.1-3.35-2.45-3.95 7.7-5.35 14.05-11.6 7.75-7.55 11.9-14.9"/><path fill="#6791b9" d="M80.65 138.85q-7.35-8.4-10.95-14.35-2.65-4.35.2-5.8l3.4-.55 4.45 5.9q5.4 6.2 10.1 7.75 5.05 1.6 6.75 5.15.85 1.75 1.75 8.15 1.75-5.95 10.45-17.2 6.05-7.75 9.55-11.25l1.85 7.8q-.6 5.7-6.4 14.25-3.7 5.45-8.45 10.65-1.3 3.15-3.85 3.05-1.85-.1-6.8-2.45-4-1.85-12.05-11.1"/><path fill="#567c9d" d="M116.35 116.65l1.85 7.8q-.5 5.3-5.6 13.1-3.45 5.3-8.2 10.65 1.3-5.45 1.15-7.9-.2-4.05-3.65-5.7 3.65-5.35 8.95-11.7 4.05-4.9 5.5-6.25m-43.05 1.5l2.1 3q2.6 3.45 5.3 6-5.2-1.9-6.6 3.7-3-4-4.4-6.35-2.65-4.35.2-5.8l3.4-.55"/><path fill="#dbdcdc" d="M6.55 43L72.4 89.65l8.2 20.6q-1.5 4.55-5.8 8.85-6.6 6.5-17.25 9.05-4.2 1.15-8.15.85-4.15-.3-5.45-2.05-1.45-1.9-21.45-40.45-20.1-38.75-21-41.4-.95-2.9.4-3.6 1.45-.8 4.65 1.5"/><path fill="#b4b4b5" d="M14.9 48.95l57.5 40.7 8.2 20.6q-1.5 4.55-5.8 8.85-6.5 6.4-16.9 9 1.25-.4 3.7-2.1 5.9-3.95 10.3-11.2-2.05-2.95-57-65.85"/><path fill="#f9be00" d="M176.35 159.65q7.15 17.2 4 34.55-2.85 15.75-13.1 27.45-9.95 11.4-22.8 14.4-13.55 3.2-25.05-4.55-10.85-7.3-14.25-20.45-3.05-11.65.05-26.25 2.85-13.3 9.9-25.65 6.9-12 15.2-18.6l29.85-4.5 16.2 23.6"/><path fill="#d7a400" d="M176.35 159.65q5.9 14.2 4.75 28.75-1.05 13.25-7.65 24.6-6.3 10.85-16 17.25-9.8 6.55-20.2 6.65 2-2.25 1.9-8.5-.15-6.75 1.6-9.85 8.2-1.55 14.7-14.25 6.2-12.25 7.15-27.15.95-16.15-5.2-26.15-7.2-11.6-22.35-11.15l25.1-3.8 16.2 23.6"/><path fill="#152139" d="M181.55 183.25q.45 8.65-2.05 18.6.4-8.95-4.65-18.45-5.15-9.65-13.35-15.1-11.3-7.6-27.55-6.85-16.8.75-24.7 10.1 1.7-4.45 4.3-9.35l2.2-4.05q4.1-5.35 12.75-8.25 9-2.95 18.65-1.7 10.85 1.4 19.2 7.85 9.55 7.45 14.25 20.6l.95 6.6"/><path fill="#152139" d="M120.85 176.6q10.65-3.15 22.15-.1 12.15 3.2 20.05 12.15 8.9 10.05 10 24.95l-5.2 7q-6.15 7.65-10.8 10.85 5.75-12.4-1-22.45-5.95-8.8-18.35-12.3-12.2-3.45-21.55.65-10.45 4.6-10.75 16.6-2.8-4.75-2.1-15.6l1.25-9.9q5.25-8.55 16.3-11.85"/><path fill="#0b132a" d="M180.6 176.65l.85 6.6q.35 8.65-2.15 18.6.4-9.05-4.25-18.05-4.7-9.3-12.85-14.75l-.5-4.8q-.9-6.2-3.4-12.95 7.35 3.25 12.8 9.2 6.1 6.6 9.5 16.15m-23.25 54.15q6.1-13.05-3.25-24.05 5.8-8.7 7.15-20 10.6 10.45 11.8 26.85l-5.2 7.2q-6.1 7.65-10.5 10"/><path fill="#f9be00" d="M145 229.2q-1.6 4.7-15.75 24.55-14.35 20.2-15.85 18.9-1.5-1.25.5-24.95 1.95-23.15 3.55-27.85 1.45-4.3 6.5-5.95 5.05-1.65 10.75.3 5.75 1.95 8.75 6.35 3 4.35 1.55 8.65"/><path fill="#d7a400" d="M140.35 217.7q3.25 2.05 4.5 5.1t.15 6.4q-1.6 4.6-11.8 19.65-11.4 16.75-18.5 22.85 6.65-10.4 13.45-24.05 8.8-17.55 12.2-29.95"/><path fill="#f9be00" d="M136.65 92.7l2.75.1q3.45.4 6.7 1.55 10.4 3.8 15.1 14.4 5.95 13.25.45 23.85-5.8 11.1-20.75 11.3-13.8.15-20.65-13.4-2.65-5.3-3.1-10.8-.45-5.3 1.35-7.9l18.15-19.1"/><path fill="#d7a400" d="M136.65 92.7l2.75.1q3.45.4 6.7 1.55 10.4 3.8 15.1 14.4 5 11.1 1.7 20.8-3.35 10-13.85 13.15 4.4-5.35 4.7-12.65.3-6.95-3.2-13.15-3.65-6.4-10.1-9.55-7.15-3.45-15.95-1.85l12.15-12.8"/><path fill="#6791b9" d="M199.9 175.5l-15.65-9.15q-9.1-5.15-18.1-16.8-7.45-9.55-11.3-18.35-.55-1.4.6-2.25 1.2-.85 2.15.4 6.65 9 15.45 16.35 6.25 5.25 20.4 12.15l16.25 7.9q2.45 1.55 2.35 3.2-.2 2.45 1.9 5.25 1.65 2.25 4.2 4.95 2.35 2.5 6.4 8.1 4.85 6.65 8.45 24.85 2.7 13.65 3.7 27.55.65 9.55-.95 14.65-1.55 4.8-1.2 7.8 1.5 13.05 16.6 21.85 4.5 2.6 11.1 5.25 6.3 2.55 6.85 2.9 2.65 1.7 3.45 10.2.4 4.25.25 8.15-1.45-1.95-3.6-4-4.2-4.1-7.35-4.5-2.5-.3-10.85-7.25-8.9-7.45-15.55-9.25-4-1.15-9-1.05l-5.85-.5q-2-.8-.6-3.9.7-1.55 3.95-6.4 2.4-3.6 2.8-7.25.4-4-1.6-8.8l-5.75-12.95q-3.75-8.75-3.95-12.5-.1-1.85 1.05-11.65.9-8.2-.15-11.7-1.55-5.3-1.95-8.65-.5-4.4.75-7.1 1.2-2.6-.3-7.15-1.05-3.15-3.05-6.5-1.1-1.85-2.65-1.55l-2.5.95q-.9.2-6.75-3.25"/><path fill="#567c9d" d="M175.35 147.55q-5.6-2.6-10.15.75-6.75-8.9-10.35-17.1-.55-1.4.6-2.25 1.2-.85 2.15.4 6.65 9 15.45 16.35l2.3 1.85m35.15 25.05q.75-1.15-4.9-6.3-5.2-4.8-8.5-6.7l7.7 3.6q3.65 1.7 4.9 2.55 2.45 1.55 2.35 3.2-.2 2.45 1.9 5.25 1.65 2.25 4.2 4.95 2.35 2.5 6.4 8.1 4.85 6.65 8.45 24.85 2.7 13.65 3.7 27.55.65 9.55-.95 14.65-1.55 4.8-1.2 7.8 1.5 13.05 16.6 21.85 4.5 2.6 11.1 5.25 6.3 2.55 6.85 2.9 2.65 1.7 3.5 10.2.4 4.25.3 8.15-1.5-1.95-3.65-4-4.25-4.1-7.4-4.5-1.25-.15-1.75-1.1l-.75-2.3q-1.15-3.95-5.5-6.55-3.6-2.1-9.8-7.1-4.75-3.8-6.75-4.25-3-.65-5.05-5.4-2.2-5.1-1.45-11.1.7-5.4.1-13.75l-1.15-11.2q-.85-7.05-2.5-16.25-1.7-9.2-2.65-17.05-.45-4.7-2.2-11.6-2.05-7.85-4.3-11.95-1.5-2.75-5.8-5.95-2.9-2.2-1.8-3.8"/><path fill="#6791b9" d="M203.95 112.1q-.6 1.25-1.4 8.75-.7 6.95-.75 10.65 0 2.05-2.6 5.1l-3.75 3.65-1.3 2.9q-.65 1.45-2.65-.75-4.4-4.85-15.75-8.5l-7.7-2.05q-3-.95-4.7-3.4-3.15-4.5-7.15-9.35-5.55-6.75-8.95-9.15-1.25-.9-1.15-1.8.1-.9 1.45-1.1 3.65-.65 10.35 3.8 7.7 5.15 30.6 23.35-.15-1.35-.05-3.05.25-3.4 1.55-5.1 1.2-1.55 4.35-8.8 3.25-7.55 3.85-8.5l3.8.1q2.65 1.75 1.95 3.25"/><path fill="#567c9d" d="M170.15 119.9q-4.85-1.55-7.2-.5-2.45 1.15-2.25 5.45-8.35-11.35-13.45-14.9-1.25-.9-1.15-1.8.1-.9 1.45-1.1 3.65-.65 10.35 3.8l12.25 9.05m33.8-7.8q-.6 1.25-1.4 8.75-.7 6.95-.75 10.65 0 1.45-1.4 3.55.85-4.7-1.35-9.15-2.2-4.35-6-5.7l2.95-6.8 2.2-4.65 3.8.1q2.65 1.75 1.95 3.25"/><path fill="#dbdcdc" d="M239.8 7.95q-.15 15.45-5.25 53.95-4.75 35.4-6.35 40.2-1.75 5.2-11.25 8.5-9.1 3.2-14.8 1.5-9.2-2.7-13.6-9.3-4.4-6.5-2.8-14.95 1.3-6.75 22-41.25 19.85-33.1 25.6-39.7 5.15-5.9 5.8-5.85.7.05.65 6.9"/><path fill="#b4b4b5" d="M239.05.55q.55-.45.75 3.8.15 3.95-.1 7.5-2.6 32.2-4 45.35-3.55 33.05-7.5 44.9-1.8 5.3-11.35 8.75-9.3 3.35-14.7 1.25l-3.35-1.5q3.6.9 6 0 2.35-.85 3.95-3.5l14.95-49.55q13.3-44.7 15.35-57"/><path fill="#f9be00" d="M97.8 62.7l13.2-.65q5.95.45 8.9 1.85l12.75 5.75-4.75 34.25q-4.65 5.6-12.05 12-9.1 7.9-12.5 7.7-2.15-.1-7.25-4.05-5.65-4.35-10.45-10.2-13.25-16.1-9.3-29.7Q80.3 66 97.8 62.7"/><path fill="#d7a400" d="M118.25 82.15q-2.45-12.9-11.45-20.3l7.85.6q3.45.6 5.25 1.45l12.75 5.75-4.75 34.25q-4.65 5.6-12.05 12-9.1 7.9-12.5 7.7l-.6-.1 7.25-8.6q4.15-5.1 6.2-9.2 4.4-11.35 2.05-23.55"/><path fill="#e85377" d="M76.05 80.85q2 .35 6.45 13.75 4.15 12.55 4.45 16.55.25 3.25-4.75.45t-7.65-7.7q-4.45-8.15-3.5-16.1.9-7.6 5-6.95m49.7-6.65h6.65q6.5 5.9 5.3 15.2-1 7.85-5.3 11.45-6.8 5.85-11.3 6.7-5.3 1-6.55-5.15-1.85-8.85 1.7-17.75 3.55-8.85 9.5-10.45"/><path fill="#6791b9" d="M89.7 72.4q1.35 3.65-.15 4.7-1.5 1.05-2.9-2.6-1.3-3.45-9.2-13.7-7.7-10-9.9-11.45-1.75-1.15-10.35 8.4-6.25 6.95-11.75 14.35-2.25 3.05-5.25 7.85-2.45 3.5-5.05 4.25-3.1.9-5.4-3.65-2.3-4.5-.65-7.55 1.6-2.95 13.8-16.35 12.25-13.35 15.9-16.1 3.55-2.7 6.15-2.35 2.5.35 5.05 3.55 3.55 4.55 10.25 14.65 7.95 12.05 9.45 16"/><path fill="#567c9d" d="M89.7 72.4q1.35 3.65-.15 4.7-1.5 1.05-2.9-2.6-1.3-3.45-9.2-13.7-7.7-10-9.9-11.45-1.75-1.15-10.35 8.4-6.25 6.95-11.75 14.35-2.25 3.05-5.25 7.85-2.45 3.5-5.05 4.25.6-.65 1.25-2.2 1.3-3.2.75-7.2-.5-4.2 11.5-18.3Q59 44.35 63.15 41.25q2.1-1.6 4.45-.95 1.65.5 2.4 1.45 3.55 4.55 10.25 14.65 7.95 12.05 9.45 16"/><path fill="#6791b9" d="M110.3 30.85q.8-4.65 2.8-4 1.55.5 3.25 3.7 12.2 22.55 17.6 31.25 3 4.8.25 10.15-2.2 4.25-5.4 5.6-1.9.75-8.25-12.45l-6-13.35-2.25 9.3-3.55 13.3q-.75 2.25-2.25 1.8-1.5-.5-1.05-2.55l2.35-20.7q2.05-19.45 2.5-22.05"/><path fill="#567c9d" d="M133.95 61.8q3 4.8.25 10.15-2.2 4.25-5.4 5.6-.45.15-3.45-3.85-3.15-4.25-3.7-6.45 6.55 6.15 7.9-1.5 1.25-7.05-2.25-15.3l6.65 11.35"/><path fill="#ed8599" d="M125.4 97.55l6.75-.25q2.75.6 1.45 2.45-2.15 3.1-6.7 5.55-4.25 2.25-7.25 2.25-3.65 0-4.35-3.45-.4-2.25 2.9-4.1 2.85-1.65 7.2-2.45M77.85 108.4q-.9-1.2-.1-2.3.75-.95 2.5-1.4 4.35-1.05 5.45 1.85 1.1 2.85 1.15 4.3.05 1.3-.8 1.9-.85.6-3.5-.6-2.9-1.35-4.7-3.75"/><path fill="#0d131a" d="M64.6 135.15q-2.25-2.45-4-5.15l-1.3-2.25 1.35-.8 1.25 2q1.6 2.35 3.7 4.5 6.75 6.9 15.9 9.4l4.2.85 2.8 3q-3.7-.15-7.1-1.1-9.6-2.65-16.8-10.45m46.6 6q1.25-1.8 1.45-2.8 4.3-2.1 8.7-4.95l.95 1.45q-5.7 3.7-11.1 6.3"/><path fill="#0d131a" d="M83.25 143.65l1.6.7q-1.5 3.45-1.9 11.3-.4 8.75.95 17.3l-2.1 1.4q-1.35-9.05-.7-18.6.55-8.45 2.15-12.1M87 191.3q-1.65-3-2.9-6.85 1.35-.6 2.45-.8 1.15 3.4 2.75 6.3 5.55 10.3 15.1 11.9l-.3 1.7Q92.6 201.6 87 191.3m-2-78.85l.85-.1q.35 2.15 2.55 9.1 2.7 8.4 5.1 13.25l-2.05-1.35q-2.3-4.6-4.4-12.25-1.6-5.65-2.05-8.65m16.65-50.2l-1.55.75q-4.65-9.2-17.2-22.9-16.85-18.3-29.8-20.45-8.35-1.35-14.35 4.65-6.55 6.5-6.6 20.55 0 8.2 2.1 17.25.15.6-.95.15-1.15-.5-1.3-1.05-2.2-9.25-2.2-17.6 0-14.6 7.1-21.7 6-6 15.9-4.4 13.6 2.2 31 21.05 13.05 14.05 17.85 23.7"/><path fill="#0d131a" d="M59.1 40.3l-.85.7-20.4-17 .55-.65L59.1 40.3M30.6 43l.7-.5 14.2 11.95-.75.75L30.6 43m23.35 18.4l.7-.85L77.3 77.4l-.5.7-22.85-16.7M86.6 43.55l.4.6-14.6.9-.15-1 14.35-.5"/><path fill="#0d131a" d="M56.7 62.85l1.2.9 2.9 17.45-1-.45-3.1-17.9m58.35 80.9l2.25-7.5.85.25-2.35 7.8-.1.05q-29.1 22.35-33.15 24.1l.15-1.6q3.9-1.65 32.35-23.1"/><path fill="#0d131a" d="M98.55 156.85l.65-.7 2.85 7.05-.8 1.1-2.7-7.45m-6.5 37.8q1.95-4.15 5.2-10.1 4.85-8.8 6.35-9.55l1.55-1.1q-1.3 1.15-5.35 8.6-3.3 6.1-7.05 13.65l-.7-1.5M190.3 190q-3.75-2.9-7.05-6.3l-2.65-2.95.35-1.95 2.7 2.85q3.35 3.3 7.1 6.1 11.9 8.85 23.35 9.45l-.15 1.25.1 1.25q-11.9-.5-23.75-9.7m49.95-75.7l1.45-1q5.5 8 9.45 21.4 5.2 17.7 2.45 31.7-1.7 8.6-6.9 15.55-4.7 6.2-12.65 11.65-2.8 1.85-5.15 2.95l-.85-2.05q2.25-1 4.3-2.4 14.75-9.5 18.25-26.95 2.75-13.8-1.75-30.5-3.5-12.95-8.6-20.35"/><path fill="#0d131a" d="M196.05 139.2l.55-.75q8.65 3.7 28.75 7.75 19.05 3.8 26.7 3.8v.85q-8.7 0-26.1-3.25-19.95-3.75-29.9-8.4"/><path fill="#0d131a" d="M226.7 146.85h.9q.25 4.5-2.05 12.75-2.5 8.9-5.8 13.5l-.7-.5q3-4.15 5.55-14.3 2.1-8.35 2.1-11.45"/><path fill="#0d131a" d="M211.75 169.05q3.3 1.1 7.35 3.2l5.1 2.7q1.65.75 1.85 1.15l.75 2.55 4.55 15.15-.85.25-5.55-17.2q-8.55-5.3-13.5-7l.3-.8m-37.3-45.7q7.15 1.4 16.85 1.05l-1.25 1.9-13.5-.85-2.1-2.1M235 4.8q.45-.2-.6 1.3l-1.5 1.65-2.6 1.05q-11.7 4.9-24.65 15.7-12.3 10.25-23.25 23.65-11 13.45-17.95 26.8-7.35 14.05-8.65 25l-1.7-.2q1.25-10.9 8.4-25.55 7.35-15.1 18.35-28.7 11.15-13.75 24.2-23.95 12.2-9.5 24.45-14.65l5.5-2.1m35.95 36.4q-1.5-27.35-12.5-34.25Q251.4 2.6 239.9 5.5q-.2.05-.3-1-.05-1.1.15-1.15 12.9-3.3 20.2 1.25 6.05 3.8 9.35 12.3 3.3 8.65 4.1 22.95.8 14.5-3.5 29.35-3.25 11.1-8.95 21.1-5.55 9.75-11.5 16.65-6.65 7.7-12.7 10.5-5.95 2.75-14.95 4.9-9.25 2.25-19.15 3.25v-2.15q9.3-1.25 18.35-3.65 8.5-2.35 14.4-5.05 13.5-6.25 24.4-26.05 12.5-22.65 11.15-47.5"/><path fill="#0d131a" d="M213.05 39.55l.05.85-26.85 1.2 1.2-.9 25.6-1.15M259.9 13.4l4.1-2.3.45.75-4.15 2.3q-16.25 8.95-21.4 12.35-.6.4-.55-.4.1-.75.5-1.05 3.2-2.25 10.4-6.05l10.65-5.6m-5.2 35.9q10.15-6.15 16.95-8.6l.3.85q-6.25 2.2-17.2 9.1Q242.8 58.1 235.2 65.1q-.6.5-.65-.1-.1-.6.55-1.2 7.6-7.25 19.6-14.5m-4.65 30.9q11.55-5.95 17-6.95l.2.85q-4.35 1-16.25 6.9-13.45 6.75-19.95 12.15l-.55-.05q0-.5.5-.9 6.6-5.7 19.05-12"/><path fill="#0d131a" d="M246.35 55.1l.9-.05 2.5 26-1.5.75-1.9-26.7M190.7 75.45q.45-.25.55.25.05.5-.5.8-7.5 4.45-17.15 11.6-9.7 7.1-16.6 13.2l-.6-.6q19-17 34.3-25.25m-16.3 47.95l15.05-18.65 1.3 1.05-15.7 18.15-.65-.55m45.55-2.2l3.2-12.75 1.8-2.05-4.2 15-.8-.2M80.7 180.15q-.75 1.25-4.35 3.2-4.25 2.35-4.95 3.95-.45 1-1.3 6.25-1.35 7.85-2.4 11.9-1.95 7.6-4.85 12.55-3.2 5.5-5 11.7-1.65 5.75-1.65 10.45 0 3.45.95 5.6l2.7 6.2q1.3 3.5 1.3 6 0 1.9-.7 3.3-1.4 3.1-4.45 7.65-3.15 4.65-4.7 5.85l-10.2 6.7q-8.9 6.3-10.6 10.2-1.3 2.95-.45 8.4.85 5.45 1.9 3.6 2.5-4.3 9.85-12.05 8.35-8.8 13.55-11.5 4.35-2.25 9.85-4.2l6.95-2.25 2.95-.85q.7-.25.6-1-.15-.8-1.5-3.3-1.35-2.45-1.85-2.95-2.2-2.4-3.2-4.35-1.75-3.4-1.75-8.05 0-2.65.55-5.45.75-4.15 2.45-7.95 1.05-2.35 3.35-6.2 2.8-4.75 3.9-7.55 1.8-4.6 2.1-10.3l.05-2.1-.3-7-.25-4.65.2-2.2.3-.95q1.05-3.35 1.05-5.6l-.15-1.85-.2-2.05q0-5.05 5.1-6.25 2.7-.55 8.95-3.95 9.3-5.1 16.45-12.45l-.35 2.9q-8.5 8.7-16.6 12.55-2.95 1.45-8.05 2.65-2.2.5-3 2.6-.75 1.9-.25 4.8.35 2.1-.2 4.05l-1.1 3.1-.3.9q-.2.8.1 6.25.4 6.1.2 10.35-.35 6.55-1.15 9.8-.8 3-3 6.65l-4.3 6.65q-2.65 4.4-3.3 8.1-1.2 6.65.45 11.05.95 2.55 3.5 5.3 3.75 4.05 4.3 7.05.5 2.75-1.7 3.2-11.15 2.45-20.05 7.05-4.8 2.45-14.7 14.2-9.25 10.85-10.2 10.85-2 0-3.25-5.3-1.15-4.95-.6-9.4.8-6.4 22.6-18.45 7.05-9 8.9-13 .5-1.15.5-2.6 0-2.15-1.5-5.4L55 246.8q-1.05-2.3-1.05-6.3 0-4.75 1.95-11 2-6.45 5.45-12.4 2.75-4.65 4.25-12.2l1.85-11.65q.95-5.65 1.45-6.65.6-1.35 2.85-2.75l3.8-2q3.15-1.7 3.7-2.65l.7-1.65q.95-2.75 1.5-3.45 1.6-2.1 5.7-3.6 6.5-2.3 17.45-10.65 14.1-10.8 20.4-21.95l1.5.85q-6.25 11.05-19.8 22-11.25 9.1-18.25 11.55-3.7 1.35-5.25 2.95-.95.95-1.6 2.85l-.9 2.05m-1.05-52.85q-2.9-2.75-5.55-6.5l1.35-1.05q6.8 9.35 12.7 11.2 4.6 1.5 6.55 4.4 1.45 2.1 2.05 6.4 2.85-6.9 10.6-16.4 4.4-5.35 8.4-9.35l1.2 1.25q-3.9 4.05-9.2 10.8-8.35 10.6-10.05 16.35-.7 2.4-1.45 1.85l-.75-.8-.2-1.65q0-2.5-1.45-5.45-2.1-4.4-6.25-5.75-3.8-1.2-7.95-5.3"/><path fill="#0d131a" d="M79.95 139.75q-7.2-8.55-11-14.8l-.65-1.2 1.55-.7.6 1q3.5 5.7 10.75 14.1 8.05 9.2 11.9 11.05l4.55 1.95 3 .2q1.15-.45 1.85-2.3l.2-.3q3.85-4.1 7.5-9.25 6.55-9.25 7.15-15.15l1 1.55q-1 9.6-14.3 23.95l-.95 2.1q-.5.9-1.25 1.2-3.2 1.25-9.7-1.8-4.05-1.9-12.2-11.6m-9.3-50.3L46.2 72.15l1-1.5L70.85 87.5l-.2 1.95"/><path fill="#0d131a" d="M0 42.6q.05-1.45.85-2.05 2-1.55 5.75 1.15l30.3 21.6-1.4 1.25L6.05 43.7Q4.5 42.6 3.4 42.3q-.8-.25-1.15 0-.6.4.05 2.55.85 2.55 20.85 41Q43.1 124.4 44.6 126.4q1.1 1.5 4.9 1.75 3.8.3 7.85-.85 11.1-2.7 17.65-9.75 3.5-3.8 4.8-7.55l1.6.55q-1.85 5.65-4.35 8.7-6.15 7.4-18.8 9.95-4.3 1.2-8.75.8-4.7-.45-6.25-2.55-2.05-2.75-42.5-81.5-.8-1.8-.75-3.35"/><path fill="#0d131a" d="M44 126.4q6.15.6 14.9-3.5 11.8-5.5 17.8-16.55l.6 1.25q-5.75 11.65-17.95 16.85-8.7 3.75-15.5 3.05l.15-1.1m84.85 14.25l1.1.2.9.4q-10.7 8.45-18.5 25.05-8.45 18-7.8 34.6.7 17.35 11.8 27.15l-.75 3.05q-5.95-5.35-9.4-13.05-3.5-7.8-3.85-16.8-.65-16.55 7.9-34.8 7.8-16.75 18.6-25.8m46.7 19.35l2 .75q8.45 20.4 3 39.75-4.75 17.05-18.3 28.05-10.65 8.75-22.45 10.05l1.1-1.35.9-1.6q9.95-1.55 18.85-8.8 13.05-10.65 17.8-27.7 5.35-19.35-2.9-39.15"/><path fill="#0d131a" d="M165.15 154.5q10.85 7.55 16 21.95l-1.05.4q-5.05-14.05-15.6-21.4-7.3-5.15-16.4-6.55-9.4-1.45-18.55 1.3-9.1 2.7-13.35 8.3l-.9-.7q4.45-5.9 13.8-8.7 9.35-2.85 19.2-1.3 9.3 1.4 16.85 6.7"/><path fill="#0d131a" d="M168.5 173.65q9 9.35 11.45 23.8l-1.1.2q-2.4-14.05-11.15-23.2-8.8-9.15-22.35-11.8-11.05-2.1-21.65 1-10.55 3-14.35 9.25l-.45-1.1q4-6.5 14.6-9.45 10.65-2.95 22.1-.8 13.9 2.7 22.9 12.1"/><path fill="#0d131a" d="M104.05 188.15q5.1-8.35 15.8-11.8 10.7-3.5 22.45-.6 13.65 3.3 21.95 13.35 8.3 10 9.35 24.45l-1.15.1q-1-14.05-9.05-23.85-8.1-9.75-21.35-12.95-11.4-2.8-21.8.55-10.35 3.3-15.25 11.35l-.95-.6"/><path fill="#0d131a" d="M116.9 196.45q8.45-3.25 19.15-.8t17.4 9.2q5.1 5.1 6.4 11.55 1.3 6.5-1.45 13.5l-1.05-.45q2.6-6.65 1.4-12.8-1.25-6.15-6.1-11.05-6.5-6.5-16.85-8.85-10.35-2.4-18.45.75-4.55 1.75-7.35 5-3.7 4.3-4 10.85l-1.1-.05q.25-6 3.4-10.35 3.1-4.35 8.6-6.5"/><path fill="#0d131a" d="M128.15 212.3q3.4-.15 6.85 1.05 6.8 2.4 9.9 7.5 3.05 4.9.85 9.4-8.4 17.2-19.9 31.25-10.1 12.25-12.8 11.6-2.5-.6-.45-25.2 1.9-23.15 3.5-27.8.65-1.85 2.25-3.6 1.6-1.7 3.55-2.7 2.85-1.4 6.25-1.5m.1 1.75q-3.1.1-5.6 1.3-3.3 1.65-4.4 4.75-1.35 4.05-3.45 27.2-2.05 23.4-.9 23.75 2.3.45 15.65-18.65 12.95-18.55 14.6-23.45.4-1.05.4-2.45 0-3.5-2.8-6.7-2.8-3.3-7.3-4.8-3.05-1.05-6.2-.95m35.4-105.65q.5 1.25.8 3.4l.45 3.4q-1.1-1.1-2.95-1.95l-1.55-4.15q-4.5-10.15-14.3-13.85-3.1-1.2-6.4-1.55l-3-.15.75-1.85h3.1q3.75.25 7.25 1.45 11.15 3.7 15.85 15.25m-1.05 19.1l1.55 1.5q-.95 2.75-2.2 4.8l-1.35-1.15q1.3-2.3 2-5.15m-21.7 15.55q10.65-.15 16.75-6.4l1 1.6q-6.15 6.45-16.5 6.6-8.2.05-14.6-4.1-5.05-3.25-7.55-7.9-3.1-5.7-3.85-10.45-.85-5.05 1.15-8l2.55-1.95q-1.7 2.55-1.45 7.6.25 5.65 3 10.75 2.6 4.85 6.5 7.9 5.6 4.4 13 4.35"/><path fill="#0d131a" d="M167.05 149.3q8.9 11.3 17.6 16.3l11.9 6.95q9.1 5.35 9.95 5.35l.95-.35q1.45-.7 2.35-.65 1.6.05 2.75 2 2.05 3.45 3.1 6.6 1.65 4.9.3 7.85-1.2 2.55-.65 7 .4 3.2 1.9 8.15.75 2.6.6 6.85l-.8 8q-.8 6.55-.7 8.7.25 4.5 6.9 18.9l2.75 6.3q2 4.8 1.7 8.85-.35 4.05-3 8l-.6.95q-4.15 6.1-3.7 7.5l.6.55 4.55.45q5.9-.1 10.2 1.05 4.6 1.25 9.55 4.6l7.8 6.1 4.9 3.9q2.4 1.7 4 1.9 4.45.6 10.3 7.75-.15-5.5-.95-9.75-.95-5.2-2.65-6.25-.5-.35-4.4-1.95-11.7-4.55-18-9.15-11.25-8.2-12.55-19.55l-.15-2.15q0-2.1.95-4.85l1.05-3.65q.5-2.65.5-6.3l-.25-5.5q-1-14.35-3.85-28.45-3.55-17.25-8.1-23.55-4.15-5.65-6.9-8.55l-3.7-4.45q-2.1-2.9-2.1-5.1l.05-1.1q0-.5-.35-.85l-1.6-1.25q-1.3-.8-8.35-4.1-9.8-4.6-14.65-7.2-9.05-4.8-13.75-8.75-8.55-7.15-15.6-16.5-.4-.5-.9-.3-.75.4-.35 1.25 3.85 8.8 11.4 18.45m19.2 4.1q5.3 2.95 13.6 6.8l6.05 2.6q3.45 1.45 4.3 2 1.85 1.15 2.4 2.25.4.7.3 2-.05 1.05.15 1.75.35 1.2 1.6 2.9l3.55 4.3 2.85 2.75q2.4 2.45 5 6.05 5 6.8 8.55 25.05 2.65 13.6 3.7 27.75.45 6.45-.45 10.85l-1.7 5.3-.75 2.65q-.25 1.5 0 3.6 1.25 10.65 12.15 18.05 5.1 3.45 17.4 8.25 2.65 1 5.1 2.5 1.7 1.1 2.95 6.2 1.3 5.3 1.15 11.3-.05 3.05-.7 3.25-.6.2-2.8-2-2.15-2.15-4.9-3.95-3.1-2.05-5.05-2.3-1.8-.2-4.05-2.3l-4.7-4.4-7.55-5.9q-4.8-3.2-9.15-4.45l-7.1-.8-5.95.05q-1.75.05-3-.55-1.1-.5-1.3-1.1-.4-1.4 1.2-4.3l3.5-5.5.65-.9q2.4-3.6 2.65-7.25.25-3.6-1.55-8l-2.75-6.25-4.75-10.2q-2.5-5.85-2.65-8.75-.05-1.5.35-4.45l.75-5.1q1.15-9.45-.35-14.5-3.15-10.4-.6-16 1-2.1-.15-6-.95-3.25-3.1-6.85-.7-1.1-1.35-1.15-.45-.05-1.55.45l-1.35.5q-2.25.45-11.15-4.85l-12.95-8.15q-9.25-5.25-17.95-16.85-6.7-9-10.75-18.25-.45-1-.05-2 .35-.9 1.15-1.35.75-.45 1.55-.3.9.1 1.55 1 6.9 9.1 15.35 16.2 4.7 3.95 12.65 8.35m16.6-40.65l1.7.25q-.55 2.1-1.2 8.75-.6 6.3-.65 9.75-.05 2.55-3.25 6.2l-3.45 3.25q-.2.2-.7 1.5-.55 1.95-1.5 2.15-1.15.25-2.9-1.6-4.45-4.8-15.4-8.25l-4.85-1.35-4.5-.9q-2.05-.6-3.4-2.55-10.95-15.75-16-19.3-1.15-.8-1.45-1.8-.25-.9.25-1.65 1.1-1.55 5.15-.8 4.55.85 9.45 4.1 3.95 2.65 14.2 11.05l13.2 10.8q0-4.55 1.75-6.85 1.3-1.6 5.05-10.45l2.45-5.5 1.45.95q-.7 1.45-2.3 5.25l-2.55 6.3q-1.35 3.4-2.15 4.4-1.2 1.5-1.5 3.6l-.4 4.05q-.25 1.9-.85 1.55l-.55-.75Q165 116.65 157.4 111.6q-4.35-2.9-7.5-3.6-2.45-.55-2.9.2-.1.1.1.4l.65.65q3.5 2.45 9.15 9.3 4 4.85 7.15 9.4 1.2 1.75 2.9 2.55 1.1.55 4.1 1.25l4.95 1.35q11.55 3.65 16.15 8.7l1.2 1.05.3-.9q.5-1.8 1.25-2.35 2.15-1.7 3.9-3.85 2.15-2.65 2.15-4.3.05-3.25.6-9.3.65-6.8 1.3-9.4"/><path fill="#0d131a" d="M238.9 1.55q-1.5-.9-26.2 39.5Q187.8 81.7 186.6 88q-.35 1.75-.35 3.75 0 6 3.25 10.8 3.5 5.15 10 7.45 8.05 2.8 17.1.1 8.9-2.7 10.75-8.3 3.4-10.2 8.5-55.05 5-44.6 3.05-45.2m.7-1.55q2.35.7-.7 37.45-3.2 38.75-8.75 63.6-1.4 6.45-11.65 10.15-9.65 3.45-17.35 1.55-9.8-2.45-14.2-10.3-3.95-7-2.2-15.2Q187 77.1 211.6 38q24.55-39 28-38"/><path fill="#0d131a" d="M184.6 89.15l1.1-.2q.65 3.4 4.05 7.45 3.95 4.75 9.6 7.45 5.5 2.65 11.65 2.65 8.1 0 16.6-4.6l.55 1q-8.9 4.75-16.95 5-6.35.2-11.8-2.4-5.85-2.8-10.3-8.15-3.8-4.6-4.5-8.2M88.55 64.3q7.65-3.5 18.2-3.5l-.3 2q-9.85.2-16.65 3.25-1.6.7-2.5 1.25l-1.15-1.8 2.4-1.2m31-1.4v1.8q-2.2-1.1-7.45-1.7l.3-1.8q4.8.55 7.15 1.7m5.6 42.7l3.4-1.15q-6.05 7.15-11.15 12.05-9.3 8.85-13.75 8.45-2.1-.2-6.95-3.7-5.25-3.75-9.7-8.55V111l-.3-1.75q4.65 5.55 10.15 9.75 4.75 3.6 6.55 3.75 3.05.15 10.7-6.25 6.6-5.55 11.05-10.9M82.9 67.75l1.25 1.7Q79 73.55 77.2 79.9l-.3 1.2-1.7-.4.3-1.3q2.15-7.3 7.4-11.65"/><path fill="#0d131a" d="M75.15 81.5q-3.25 1.4-3.35 8.15-.15 7.1 3.5 13.85 2.25 4.1 5.6 6.6 3.15 2.3 4.95 1.75.3 0 .25-.6-.3-4.2-5-17.2Q76.35 81 75.15 81.5m-1.05-1.35l2.55.1q1.95 1.7 6.6 15.15 3.4 9.75 4 14.1.5 3.6-.9 4-2.55.75-6.6-1.8-4.2-2.65-6.5-6.85-3.7-6.75-3.25-14.4.4-7.35 4.1-10.3m51.45-6.8l.45 1.7q-5.6 1.5-9 10.15-3.35 8.6-1.6 17 .75 3.65 2.95 4.4 2.25.8 5.85-.8 3.65-1.6 7.65-5.2 2.4-2.1 3.8-6 1.3-3.6 1.35-7.55.1-7.4-5.15-12.2l1.15-1.3q3 2.7 4.6 6.1 1.7 3.6 1.65 7.5-.1 4.85-1.35 8.25-1.35 3.65-4.4 6.75-4.25 4.25-8.85 5.8l-6.85.3q-3.1-1.1-4.1-5.7-1.9-9.15 1.8-18.35 3.75-9.15 10.05-10.85"/><path fill="#0d131a" d="M86.7 73.6q.65 1.3 1.4 2.15l.9.65q1.15-.4-.1-3.7-1.5-3.9-9.45-15.9Q72.6 46.5 69.3 42.3q-2.35-3-4.55-3.25-2.25-.25-5.45 2.2-3.55 2.65-15.7 15.95-12.2 13.25-13.75 16.2-.8 1.5-.3 4t1.95 4.35q1.7 2.1 3.4 1.6 1.75-.45 3.3-2.25l3-4.25q2.25-3.6 3.55-5.3 5.5-7.35 11.8-14.35 5.45-6.1 8.3-7.95 2.05-1.35 3.2-.6 2.2 1.45 9.55 11.45 7.1 9.55 9.1 13.5m3.8-1.5q.85 2.3.6 3.75-.25 1.3-1.35 1.7-2.05.75-3.9-3.1-1.8-3.7-9.4-13.45Q69 51.4 67.1 50.1q-1.5-.2-8.25 7.15-6.4 6.95-12.7 15.35l-3.5 5.15-3.3 4.75q-1.9 2.2-4.05 2.8-2.9.85-5.2-2.05-1.75-2.15-2.5-5.15-.8-3.35.3-5.4 1.65-3.05 14-16.7 12.4-13.75 16-16.45 3.85-2.9 6.65-2.75 2.9.2 5.65 3.7 3.5 4.45 10.55 15.05Q89 68 90.5 72.1m25.1-41.15q-.95-1.75-1.85-2.65-.75-.75-1.15-.65-.25 0-.55.5-.55.9-.9 2.85-.35 2-2.65 23.1-1.8 17.6-2.2 19.65-.15.65.05 1.1l.45.45q.65.15 1.1-1.2l3.5-13.15 2.3-9.4q.4-1.5.7-1.55.35 0 .95 1.45 2.05 5 6.55 13.75 5.4 10.6 6.75 10.85 1.45.25 3.1-1.7 1.5-1.8 2.4-4.5.45-1.4.45-2.9 0-2.5-1.4-4.7-3.3-5.3-10.7-18.7l-6.9-12.6m-3.3-5q2.65-.4 4.7 3.35 12.25 22.75 18 32 2.55 4.05.95 9.05-1 3.1-3.1 5.7-2.05 2.6-3.45 2.6-1.7 0-3.2-1.75-2.25-2.75-6.45-11.4-2.85-5.9-5-11-2 8.35-5.35 19.1-.5 1.55-1.3 2.3-.8.75-1.65.5-.85-.2-1.25-1.2-.35-1-.15-2.45l2.15-20.85 2.25-21.2q.75-4.45 2.85-4.75"/><path fill="#fff" d="M80.15 92.9q.75 2.45.45 4.45-.35 2-1.55 2.35-1.25.35-2.6-1.1-1.35-1.5-2.1-4-.7-2.5-.4-4.45.35-2 1.55-2.35 1.2-.35 2.55 1.15 1.4 1.5 2.1 3.95m38.5-6.3q1.3-2.85 3.65-4.25 2.3-1.35 4.2-.5 1.95.9 2.4 3.55.4 2.65-.9 5.5t-3.6 4.25q-2.3 1.35-4.25.45-1.95-.85-2.4-3.5-.4-2.65.9-5.5"/></svg>