<svg xmlns="http://www.w3.org/2000/svg" width="299" height="417" viewBox="-0.55 -0.1 298.8 417.35"><path fill="#e6d4e7" d="M174.8 81.45q1.25-.9 3.2-.6 1.9.25 3.35 1.45 3.7 3.05.3 7.35-3.4 4.3-3.45 8-.05 2.75 2.15 8.05 2.05 4.75-1.4 4.9-3.5.15-7.1-4.9-3.6-5.05-2.45-13.25 1.1-7.95 5.4-11m49.6 105.75q10.5 6.85 17.8 20.6 7.75 14.75 9.65 33.65 1.8 18.4-3.05 33.75-3.55 11.35-10.2 19.6-4.45 5.6-5.2 16-.5 6.45.45 14 .65 4.75 5.35 9 2.1 1.9 9.8 7.05l15.55 9.65 13 7.5q5.4-3 10.6 0 5 2.9 4.8 7.95-.2 5.55-5.2 7.55-3.65 1.5-8.45.85-.5 3.35-4.4 5.25-4.45 2.2-12.2 1.8-7.1-.35-12.3-2.4-4.95-1.95-7.15-5.05-3.7-5.2-9.2-11.15-7.6-8.25-10.85-8.65-5.45 2.15-9.3 1.1-3.4-.95-6-4.65-1.35-1.85-1.15-5.2.2-3.7 2.45-5.75 0-2.3 1.95-6.55l3.45-8q2.6-7.8 1.25-16.55-1.55-9.75-7.45-14.55-4.5-3.7-5.15-22.55-.6-17.4 2.2-38.8 2.9-22 7.7-34.8 5.45-14.45 11.25-10.65"/><path fill="#e6d4e7" d="M226.2 346.1q.55 4.05-3 8.05l-14-14.5q2.4-2.5 6.4-2.25 3.8.2 6.9 2.65 3.25 2.55 3.7 6.05m4.75-209.85q1.3 6.95 4.2 14.65 3.25 8.65 7 13.7 4.2 5.65 14 17.15 10.2 11.95 14 15.55 6.75 3.05 14 7.4 9.05 5.45 10.3 8.15 1.75 3.85 2.6 9.05 1.05 6.5-.45 10.25-1.8 4.65-4.8 9-3.35 4.9-6.1 5.95-4.7 1.75-7.8.95-3.9-.95-4.95-5.65-3.05.55-5.45-.75-2.65-1.4-3.3-4.5-.6-2.75.85-5.55l2.3-3.2q-2.1-2.95-3.6-6.4-1.9-4.45-1.7-7.6-2-2.65-15.05-17.35-11.35-12.8-12.95-15.95l-5.7-10.85q-4.15-8-6.45-14.35-2.35-6.45 3.1-13.7 2.75-3.6 5.95-5.95"/><path fill="#e6d4e7" d="M285.1 229.95l-6.85-10.55 4.95 4.15q3.2 2.9 2.8 3.9l-.9 2.5"/><path fill="#e6d4e7" d="M286 239.15q-1.25 2.6-4.35 3.55-3.1 1-5.9-.35-3.3-1.6-3.75-5.85-3.25-2.75-4.45-8-.95-6.3-2.05-9.75l12.45-2.8q-.3 2.65.1 6.6.4 4.45 1.35 5.85 1.9.1 4.05 1.3 2.8 1.6 3.15 4 .55 3.15-.6 5.45"/><path fill="#cea6cc" d="M183 86.9q-6.7.15-9.35 5.85-1.8 3.95-2.15 12.4-3.25-5.15-2.05-13.05 1.15-7.7 5.35-10.65 1.3-.9 4.2 1.35 2.15 1.7 4 4.1m30.15 110.95q5.45-14.45 11.25-10.65l4.7 3.6q-3 16.3.2 40.55 1.1 8.35 3.35 20.7l3.6 19.8q-3.1 6.05-9.6 16.65-4.95 8.8-5.15 13.85-.65 18.55-2.85 24.05l-1.7 3.8q-.95 2.55-1.45 7.1-2.45 1.65-2.85 4.45-.3 2.5 1.1 4.7 2.5 3.8 6.15 4.3 3.25.45 6.45-1.8l9.9 9.75 11.1 10.65q4.9 4.95 14.75 5.65 10.9.75 17.2-5.6l7.45.25q1-.3 6.1-2.6-.7 4.8-5.55 6.6-3.55 1.25-8 .7-.5 3.35-4.4 5.25-4.45 2.2-12.2 1.8-7.1-.35-12.3-2.4-4.95-1.95-7.15-5.05-3.7-5.2-9.2-11.15-7.6-8.25-10.85-8.65-5.45 2.15-9.3 1.1-3.4-.95-6-4.65-1.35-1.85-1.15-5.2.2-3.7 2.45-5.75 0-2.3 1.95-6.55l3.45-8q2.6-7.8 1.25-16.55-1.55-9.75-7.45-14.55-4.5-3.7-5.15-22.55-.6-17.4 2.2-38.8 2.9-22 7.7-34.8m20.9-16.75l-5.7-10.85q-4.15-8-6.45-14.35-2.2-6.1 2.55-12.85 3.7 17.5 16.2 36.8 9.8 15.1 17.55 21.65 4.75 4 7.05 7.9l2.5 5.5 2.25 8.25q1.8 6.7 3.75 9.45 0 5.5 4.9 7.3 4.6 1.75 6.75-1.1 2.05-3.2-.25-6.5-2.1-3-4.95-3.2-2.3-.15-2.7-5.75-.35-5.3.95-7.85 3.9 0 8.3 5.4t4.1 9.8q-.25 3.15-6.2 10.95-5.05 6.55-3.75 6.6-6.5.55-7.95-5.85-3.05.55-5.45-.75-2.65-1.4-3.3-4.5-.6-2.75.85-5.55l2.3-3.2q-2.1-2.95-3.6-6.4-1.9-4.45-1.7-7.6-2-2.65-15.05-17.35-11.35-12.8-12.95-15.95"/><path fill="#cea6cc" d="M286 227.45l-.9 2.5-6.85-10.55 4.95 4.15q3.2 2.9 2.8 3.9"/><path fill="#0d131a" d="M181.35 83.3q-1.25-1.3-3.1-1.65-1.9-.4-3.05.4-2.4 1.65-4.15 6.15-1.65 4.2-1.65 7.6 0 5.25 3.05 9.45 2.05 2.8 4.25 4 1.9 1 2.9.45 1.3-.75.1-3.75-2.5-5.95-1.9-10.15.55-3.9 4.35-8.7 1.45-1.8.8-2.65l-1.6-1.15m-6.95-2.45q1.55-1.1 4-.7 2.4.45 4 2.15 1.65 1.75 1.85 3.8.2 2.25-1.6 3.9-5.85 5.3-1.65 15.4 1.05 2.5.5 4.1-.35.95-1.2 1.45-1.55.85-4-.3-2.7-1.3-5.05-4.55-1.9-2.7-2.8-6.95-.9-4.4-.25-8.5 1.1-6.2 6.2-9.8m49.55 107q-3-1.9-6.05 2.35-4.4 6.05-8.05 22.05Q206.55 227 205 245q-1.55 18.05-.65 31.15.95 14.25 4.6 17.2 6 4.9 7.65 14.7 1.5 9-1.25 17.3-.4 1.2-2.85 5-2.1 4-1.5 7.5 2.1-.05.75.7-3.95 2.2-4.3 6.45-.25 3.15 1.2 5.4 2.3 3.45 6 4.45 4.2 1.1 8.45-1.85 2.35-1.65 1.95-.7l-.9 1.3q3.9.45 12.2 10.15 4.15 4.85 7.55 9.75 2.15 3 7.15 4.9 4.95 1.85 11.65 2.2 7.55.35 11.8-1.7 3.6-1.75 4-4.65l.15-.8.75.1q2.8.35 5.4-.1 3.1-.5 4.9-2.05 2.3-1.9 2.45-5.45.1-2.05-1.05-3.95-1.1-1.9-3.15-3.15-3.6-2.25-10-.15-.4.1-1.5.65l-1.25.3q-.45-.05.05-.85l.6-.8q-2.7-1.3-12.3-7.1-9.9-6-15.05-9.4l-1.7-1.15q-6.35-4.2-8.9-6.65-4.25-4.15-4.85-8.8-1.1-8.15-.45-15.15.95-9.95 5.35-15.45 6.35-7.9 9.85-18.65 5.05-15.4 3.2-34.1-1.75-18.05-8.95-32.3-7.15-14.25-18.1-21.4m-7.4 1.35q4.05-5.45 8.3-2.7 11.35 7.4 18.95 22 7.7 14.8 9.5 33.1.5 4.95.5 9.85 0 15.5-4.2 26.45-2.8 7.45-9.45 16.35-6.05 8.15-6.05 20.2 0 6.2.55 10.25.5 4.1 5 7.95 1.85 1.6 9.1 6.35l6.1 3.85 12.45 8.05 10.3 6.2q2.75-1.4 6.05-1.35 3.4.05 5.95 1.6 2.4 1.45 3.75 3.75 1.4 2.35 1.3 4.8-.15 4-3.25 6.7-3.65 3.1-10.75 2.5-.25 2.8-4.5 4.9-5.35 2.6-14.45 2.2-7.45-.35-11.85-1.8-4.75-1.55-7.05-4.8-4.6-6.4-9.6-12.1-7.05-8.05-9.95-8.5-4.7 2.45-8.9 1.6-4.25-.85-7.15-4.85-1.2-1.65-1.45-4.65-.3-4.4 2.7-7.8l-.05-3.3q.1-1.75 1-3.65l2.1-3.35q1.55-2.3 1.95-3.55 2-6.1 2-11.2 0-5.7-2.4-11.25t-6.3-8.7q-2.8-2.25-3.75-10.35-.65-5.6-.65-18 0-10.05.95-21.05 1.5-17.05 4.6-31.6 3.8-17.4 8.65-24.1"/><path fill="#0d131a" d="M208.75 339.15q2.75-2.9 7.35-2.4 4.3.45 7.55 3.4 3.05 2.8 3.25 7.85.15 5.15-3.05 6.6-2.45 1.2-3.25.7-.8-.5.65-1.15 4-1.85 3.95-6.5 0-4.05-2.45-6.5-2.65-2.65-6.55-3.1-4.1-.45-6.5 2.05l-.95-.95m61 24.4q5.5.5 8.35 3.1 1.8 1.6 2.45 3.9.75 2.65-.4 5.25-1.15 2.55-1.65 1.55-.5-.95 0-3.15.9-3.6-1.9-6.2-2.45-2.2-7.5-2.7l-7.55.35q-1.2.3-1.35-.2-.1-.45 2-1.25 2.85-1.1 7.55-.65m-39.35-225.8q-3 2.55-5.05 5.45-3.3 4.6-3.3 8.85 0 1.75.6 3.55 2.8 7.65 9.55 20.2l2.55 4.95q1.05 2.1 6.1 8.05l9.95 11.3 10.7 12.45 1 1.55.55 2.9q.3 2.3 1.45 4.65 1.2 2.35 2.2 2.55l1.3 5.65q-.8.3-1.65 1.15-1.6 1.75-1.5 4.6 0 .9.15 1.4.55 2.8 2.95 4 2.15 1.05 4.85.6l.85-.75.1 1.4q.75 3.35 3 4.55 3.8 2 8.7-.5 2.4-1.2 5.55-5.6 3.1-4.35 4.85-8.85.8-2.1.8-5.1 0-3.7-.85-7.65-.9-3.9-2.1-5.9-1.9-3.1-11.5-8.5-10.25-5.4-12.4-6.7-2.9-1.7-13.75-14.65-9.25-11.05-14.55-18.25-3.6-4.85-6.75-13-2.9-7.3-4.35-14.35m.05-2.15l1.05-.75.25 1.3q1.25 6.85 4.2 14.55 3.25 8.5 6.85 13.4 4.9 6.7 14.3 17.85 10.65 12.65 13.65 14.7 2.25 1.55 11.45 5.8 9.05 4.75 12.95 10.05 1.3 1.75 2.2 5.95.9 4.15.9 8.3 0 3.35-.9 5.7-1.85 4.8-4.9 9.3-3.6 5.35-6.6 6.45-6.25 2.4-9.95.4-2.35-1.25-3.55-5.35-3.1.35-5.55-1.05-2.85-1.6-3.6-4.85-.7-2.85.75-5.65l2.35-3.3-.25-1.85q-2.4-2.45-3.25-4.4-.9-2.1-1.4-6.45l-.55-1.4-.7-1.1-3.8-4-7.15-7.55q-5.75-6.5-10.75-12.7-5.5-6.8-7.3-9.95-1.9-3.25-4.9-10.2-2.95-6.7-5.1-12.65-.75-1.9-.75-4.2 0-5.55 4.85-11.35 2.45-2.95 5.2-5"/><path fill="#0d131a" d="M286.3 225.95q.4-.4.8-.1.45.35-.45 1.45-.85 1.05-1 2.4v1.15q-1.35-.25-1.35-1.1 0-.55.45-1.55l.5-1q-.05-.9-6.1-6.05l-1.05-.5.4-2.25 2.7 2.3q3.15 2.8 5.1 5.25"/><path fill="#0d131a" d="M286.85 232.1q.95 1.55.95 3.3 0 2.95-1.55 5.1-1.55 2.15-4.35 3l-3.5.4q-2.2-.2-3.85-1.25-3-1.95-3.45-5.65-2.45-2.15-3.6-5.5-.6-1.75-1.4-6.3l-1.1-7.05q-.25-1.25.25-1.15.55.1 1 1.5.75 2.25 1.45 6.45.75 4.15 1.4 6 1.15 3 3.45 4.95l.25.5q.2 3.15 3.1 4.75 2.5 1.35 5.05.8 3.2-.75 4.35-3.3.8-1.9.4-4.35-.3-2-2.2-3.4-1.45-1.1-3.4-1.5l-.8-.25-.75-.9q-1.85-3.8-1.25-11.2.1-1.7.75-2.75.65-1.15.7 1.75l.1 6.5q.05 2.35 1.6 5.5 4.6 1 6.4 4.05"/><path fill="#e6d4e7" d="M205.55 126.6q12.5 11.55 13.8 16.75 1.45 5.7.95 11.15-.25 3.1-1.25 8.55-1.35 10.05 6.3 22.45 14.95 24.15 17.8 44.3 2.9 20.3-5.95 40.7-3.25 7.55-12.95 14.5-10.2 7.35-23.8 11.35-33.65 9.75-65.95-5.65-30.9-14.75-39.6-56.3-5.05-24.2-2.4-66.4 2-31.95-1.45-47.95Q86.3 97.95 69.3 85.6q-8.95-6.5-17.5-5.75-7.95.75-14.4 7.5-6.25 6.45-9.75 17.05-3.6 10.7-3.55 23 .15 29.5 13.2 50.7 3.55 5.7 13 18.2 9.3 12.2 14.4 20.6 6.8 11.2 7.35 20.1.5 7.9-4 12.25-4.25 4.15-11.25 3.6-7.3-.6-14.65-6.1-13.95-10.4-25.95-37.95-13.35-30.45-14.6-62.25-1.2-29.6 14.1-51.95 15.9-23.25 42.2-26.9 22.75-3.15 40.95 10.8 14.95 11.45 21 28.6 1.7 4.75 3.9 16.15L128 145.4q5.9 30.1 12.05 41.1 2.3 4.1 5.9 7.4 4.25 3.85 8.55 4.85 11.3 2.55 18.05-15.4 2.9-7.65-1.7-24.15l-7.8-22.65q-8.85-24.95-2.45-31.2 5.25-5.2 19.75 2.6 12.2 6.55 25.2 18.65"/><path fill="#cea6cc" d="M205.55 126.6q12.5 11.55 13.8 16.75 1.55 6.2.85 12.25l-1.4 9.5q-5.55-3.15-16.7-.7-10.35 2.3-15.05 6.45-3.45 3.05-5.9 8.1-1.05 2.15-3.75 9.25-4.35 11.55-10.9 14.55-6.05 2.4-9-3.7 9.25-.35 15.05-15.7 2.9-7.65-1.7-24.15l-7.8-22.65q-8.85-24.95-2.45-31.2 5.25-5.2 19.75 2.6 12.2 6.55 25.2 18.65"/><path fill="#9b7fa6" d="M69.3 85.6q-8.95-6.5-17.5-5.75-7.95.75-14.4 7.5-6.25 6.45-9.75 17.05-3.6 10.7-3.55 23 .15 29.5 13.2 50.7 3.55 5.7 13 18.2 9.3 12.2 14.4 20.6 6.8 11.2 7.35 20.1.5 7.9-4 12.25-4.25 4.15-11.25 3.6-7.3-.6-14.65-6.1-13.95-10.4-25.95-37.95-13.35-30.45-14.6-62.25-1.2-29.6 14.1-51.95 15.9-23.25 42.2-26.9 22.75-3.15 40.95 10.8 14.95 11.45 21 28.6 1.7 4.75 3.9 16.15L128 145.4q5.9 30.1 12.05 41.1 3.55 6.4 9.35 10.05 7.1 4.5 13.2 1l2.35 17.7q1.4 9.5 4.2 17.45 0 .85 2.8 5.5 3.4 5.65 6.75 8.3 10.35 8.3 14.7-16.25 6.45-36.45 22.2-36.95 8.2-.3 19.6 10.4 8.5 18.65 9.2 34.4.8 16.95-7.2 32.4-4.4 8.5-14.2 15.6-10.3 7.45-23.7 11.2-32.15 9-64.8-6.6-30.9-14.75-39.6-56.3-5.05-24.2-2.4-66.4 2-31.95-1.45-47.95Q86.3 97.95 69.3 85.6"/><path fill="#836b8d" d="M140.25 186.85q3.7 6.35 9.35 9.8 7 4.3 13 .9.7 4.7-.75 6.9-1.35 2.05-.5 5.95-13.4-4.2-17.9-9.5-4.25-5-3.2-14.05"/><path fill="#836b8d" d="M69.3 85.6q-8.95-6.5-17.5-5.75-7.95.75-14.4 7.5-6.25 6.45-9.75 17.05-3.6 10.7-3.55 23 .15 29.5 13.2 50.7 3.55 5.7 13 18.2 9.3 12.2 14.4 20.6 4.65 7.7 5.45 9.55 2.1 4.95 2.1 11.75-4.55 7.8-16.95-2.25-9.75-7.9-16.95-19.1-10.7-16.65-17.7-42-9.1-33-4.8-61.25Q18.15 98.25 26 89.65q8.75-9.6 25-11.55 25.3-3 41.25 26.1 7.95 14.5 9.55 48.4.9 18.45.7 48.35.65 19.55 11.9 42.1 12.85 25.75 31.35 35.55 21 11.15 45.7 9.55 26.45-1.65 45.75-17.65-4.4 8.5-14.2 15.6-10.3 7.45-23.7 11.2-32.15 9-64.8-6.6-30.9-14.75-39.6-56.3-5.05-24.2-2.4-66.4 2-31.95-1.45-47.95Q86.3 97.95 69.3 85.6"/><path fill="#e6d4e7" d="M181.6 86.5l19.2 8.6 2 5.7q2.2 5.2 5.7 6.05l5.95-2.1q4.55-1.55 7.8-2 5.05-.65 8.5 5.3 2.35 4.1 3.7 10.75 1.5 7.2-4.05 23.05-5.4 15.55-10 18.55-1.05.7-2.35-.3l-2.65-2.45q-4.15-3.55-9.4-.9l-6.25 4.05q-4.65 2.8-7.3 2.5-4.05-.45-9.95-6.6-6.8-7.2-7.7-15.3 2.45-7.5.65-16.8-1.75-8.85-5.85-12.55-3.55-3.25-7.6-.25-3.25 2.35-5.95 7.7-3.25-9.05-.45-14.9 1.55-3.3 6.8-7.25 3.15-2.4 9.75-.6 4.3 1.2 11.25 4.65 1.25-3.05.35-8.3-.75-4.6-2.15-6.6"/><path fill="#cea6cc" d="M162.4 97.35q3.15-2.4 9.75-.6 4.3 1.2 11.25 4.65 1.25-3.05.35-8.3-.75-4.6-2.15-6.6l20.25 4.95.25 3.45q.1 2.7-.25 4.45-1.7 8.6-11.7 5.3l-7.1-2.7q-5.3-2-8.45-2.6-5.6-1.05-7.1.4-1.95 1.9 4 7.5 2.6 2.45 4.9 8.5 2.9 7.6 3.05 16.4.15 6.4 4.9 15.55 4.7 9.15 8.35 10.1 3.8.95 7.35-.5 2.5-1.05 4.5-3.05 1.8-1.8 5.45-2.2 4.2-.5 6.6 2 1.7 1.85 3.2 2.5 1.9.85 3.9 0-1.8 2.85-3.3 3.85-1.05.7-2.35-.3l-2.65-2.45q-4.15-3.55-9.4-.9l-6.25 4.05q-4.65 2.8-7.3 2.5-4.05-.45-9.95-6.6-6.8-7.2-7.7-15.3 2.45-7.5.65-16.8-1.75-8.85-5.85-12.55-3.55-3.25-7.6-.25-3.25 2.35-5.95 7.7-3.25-9.05-.45-14.9 1.55-3.3 6.8-7.25"/><path fill="#0d131a" d="M163.15 141.6l-.8-4.8q-4.55-12.9-5.05-20.9l1.4-.8q.35 8.05 5.05 21.25l1.55 4.3 7.55 22.1q3.5 12.9.4 20.85-6.05 15.4-15.3 16.15-5.4.4-11.1-4.15-4.6-3.7-7.45-8.75-4.4-7.9-8.3-23.7-2.4-9.65-6-29.15l-3-15.4q-1.6-7.45-2.95-11.25-5.85-16.6-20.55-28Q80.5 65.3 58 68.4 45.25 70.2 34.6 77 24 83.75 16.3 95.05q-7.35 10.7-10.95 24-3.6 13.25-3.05 27.45 1.3 32.45 14.95 63 11.95 26.65 25.3 36.7 6.85 5.15 13.7 5.9 6.8.8 11.05-3.05 4.85-4.45 4-12.85-.9-8.4-7.25-18.9-3.4-5.65-7.7-11.65l-7.65-10.3Q35.65 178.2 31.05 167.8q-7.55-17-7.65-40.4-.05-16 5.2-28.15 5.3-12.3 14.55-17.05-10.25 2.6-6 .3 4.45-2.35 9.6-3.45 5.75-1.25 11 0 5.85 1.35 12 5.95 17.2 12.95 22 35.2 3.45 16.1 1.45 47.85-2.55 40.95 2.15 64.55 8.4 42.7 39.45 57.45 16.35 7.8 31.95 8.8 14 .85 33.75-3.55 11.75-2.65 21.85-9.95 10.2-7.35 14.4-16.35 9.15-19.65 6.1-39.45-2.9-19.15-18.1-43.65-5.4-8.75-6.4-15.4-.65-4.2.45-10.65l2.9-.25q-2.2 6.5-1.15 12.05 1.05 5.85 6.3 14.3 16 25.85 18.9 44.8 3.25 21.2-8.15 42.1-4.15 7.6-13.4 14.65-10.1 7.6-21.15 10.4-19.6 4.9-35.85 3.55-16.55-1.4-33.65-9.55-31.65-15.1-40.5-57.75-5-24.05-2.5-64.8 2.05-32.1-1.1-47.8-4.5-22.6-21.35-34.85-6.2-4.45-10.55-5.55-4.15-1.05-9.65.15-22.25 11.85-22.1 48.25.05 22.75 8.25 39.5 3.2 6.55 8.4 13.9l9.75 12.95 8.2 10.6q5.05 6.65 8.25 11.95 6.45 10.6 6.45 19.8-.05 8.6-5.55 13.6-4.65 4.2-12.7 3.35-8-.8-15.3-6.25-15.35-11.55-26.7-36.7Q1.7 183.2.1 147.6q-.65-14.75 2.7-28.35 3.5-14.15 10.75-24.8 7.85-11.5 18.8-18.65 11.1-7.25 23.85-9.05 23.7-3.3 42 9.25 15.75 10.8 22.45 29.15 3.1 8.55 6.9 28.5 4.05 21.95 5.55 28.45 3.7 16 8 23.6 2.5 4.45 6.95 7.7 5.15 3.8 10.2 3.4 4.2-.3 6.95-3.15 2.7-2.8 5.8-10 3.2-7.35-.55-21.15-1.1-4.2-7.3-20.9"/><path fill="#0d131a" d="M212.2 192.6q7.15-2.05 13.6 1.5 3.8 2.1 7.15 6.1 2.15 2.6 3.15 5.25 1 2.7-1.5-1.05-3-4.6-7.55-7.5-6.65-4.2-13.9-2.45-6.35 1.55-11.3 10.85-4.9 9.3-7.7 25.05-3.45 19.55-11.2 18.85-4.45-.4-9.65-7.6-4.1-5.7-4.85-8.7v.05q-2.2-6.25-3.4-12.9-.8-4.05-1.8-12.3l-1.55-9.4 1.7-1 1.25 10.2q1 8.15 1.75 12.15 1.25 6.6 3.4 12.75l.05.15q.6 2.6 4.7 8.25 5.1 7.1 9.05 6.95 6.05-.25 9.1-17.7 2.9-16.3 7.8-25.85 5-9.7 11.7-11.65m-9.4-70.85q1.4 3.4 2 5.55.85 3.35.5 6.2-.4 3.25-2.15 7-1.95 4.25-2.6 7.25-.6 2.75-1 2.95-.45.2-.25-2.8.3-3.9 2.3-8.7 1.85-4.45 1.8-6.45-.05-5.7-1.85-10.3-.85-2.05-.2-2.3.65-.3 1.45 1.6m9.1.25q.7-3.4 1.15.65.4 3.95.05 7.25-.25 2.4 1.25 5.65l2 3.9 1.1 3.15q.7 2.55.95 6.45.05 1.3-.5.75-.6-.55-.75-1.8l-1.2-5.05q-1.25-4.05-2.45-5.5-1.4-1.75-1.95-6.35-.55-4.85.35-9.1"/><path fill="#e6d4e7" d="M245.2 11.1q4.95 4.5 3.75 6.35-1.85 2.9-4.2 8.3-2.85 6.75-3 10.35 1.95 4.75 2.4 7.35.55 3.3-.65 5.9-1.05 2.2-3.45 5.05l-3.35 3.9q1.25 3.9 1.15 11-.05 7.5-1.7 10.4-1.45 2.5-5.9 5.85l-5.2 3.65q-1.65 5.45-3.1 7.45-1.55 2-4.9 2.9l-8.45 1.75q-5.25.8-6.7.15-1.35-.6-2.75-1.6l-1.15-.9-1.2.75q-1.4.55-2.5-.55l-3.9-5q-2.85-3.8-3.5-4.15l-2.7-3.25q-6.6-2.9-11.25-5.3-8.8-4.5-11.1-7.8-2.9-4.1-3.3-10.4-.45-6.65 2.1-13.15 6.5-16.6 3.9-25.85-1.2-4.3-4.5-9.95L156 7.7q-1-1.85-.2-3.5.75-1.65 3.1-2.5 2.75-1.05 8.9-1 6.6.05 7.25 1.75 1.05 2.65 3.25 6.65 2.75 4.9 4.55 6.6 6.1-2.85 18.1-3.25 15.6-.55 24.5 5.75 2.4-.4 5.2-2.5 2.75-2 3.35-3.7.7-2.65 1.3-3.85 1.05-2.2 2.8-1.8 2.5.55 7.1 4.75"/><path fill="#cea6cc" d="M162 6.05q.65 2.05 3.2 6.8 5.65 10.5 5 15.5l-2.65 18.8q-1.55 12.4-.55 18.3 1.05 6.25 8.45 12.75 4.65 4.15 13.75 9.75 6.25 3.85 9.9 8.5 3.45 4.4 5.9 5.7-2.9.3-5.25-1.45L198 98.95l-1.2.75q-1.4.55-2.5-.55l-3.9-5q-2.85-3.8-3.5-4.15l-3.25.45q-.2-.1-.65-2.25-.45-2.2-.9-2.4-7.75-3.55-11-5.3-7.2-3.9-9.25-6.85-2.9-4.1-3.3-10.4-.45-6.65 2.1-13.15 6.5-16.6 3.9-25.85-1.2-4.3-4.5-9.95L156 7.7q-1-1.85-.2-3.5.75-1.65 3.1-2.5 1.15-.45 3.5-.7-1.4 1.75-.4 5.05M234 12q.7-2.65 1.3-3.85 1.05-2.2 2.8-1.8 1.6.35 4.6 2.7-1.85-.6-3 .55-.65.65-1.9 3.25-3 6.15-7.7 8.15-1.2.55-3.8-1.6-4.2-3.5-.85-1.2 2.4-.4 5.2-2.5 2.75-2 3.35-3.7"/><path fill="#fff" d="M235 60.4q1.25-1.25.25 5-1.05 6.1-1.95 7.65l-2.45 3.55q-2.05 2.3-4.85 3.05-.85-9.4 9-19.25"/><path fill="#dbdcdc" d="M235.2 64.3q-2.35 2.65-7.6 6.3 1.3-2.3 3.25-5.05 2.35-3.35 4.15-5.15.75-.75.2 3.9"/><path fill="#fff" d="M182.8 51.5q3.15.1 8.35 8.7 5.35 8.8 6.15 15.75-2.2 2.2-9.3-1.25-6.8-3.35-8.45-6.6-1.35-2.8.35-9.85 1.65-6.85 2.9-6.75"/><path fill="#dbdcdc" d="M182.8 51.5q2.9.1 7.65 8.05 4.8 8 6.05 15.05-1.6-5.8-6.95-10.95l-8.75-8.6q1.2-3.65 2-3.55"/><path fill="#a586bc" d="M185.4 53.4l2.6 3.5q2.85 4.1 4.1 7.3-.15 4.65-1.75 7.45-1.85 3.25-4.35 1.15-2.75-2.25-2.85-7.55-.1-5.15 2.25-11.85"/><path fill="#8f75a3" d="M192.1 64.2l-.2 2.3q-1.85-2.4-4.45-5L184 58.05q.55-2.45 1.4-4.65l2.6 3.5q2.85 4.1 4.1 7.3"/><path fill="#a586bc" d="M232.25 63.55q0 4.4-1.65 9.15-1.95 5.75-4.4 3.3.65-3.9 3.4-8.55 1.4-2.35 2.65-3.9"/><path fill="#8f75a3" d="M231.9 67.3l-3.65 2.6q1.15-2.3 2.7-4.55l1.3-1.8-.35 3.75"/><path fill="#0d131a" d="M204.85 59.75q-.25-1.5.4-1.6.6-.05.8 1.25.65 3.75.45 6.7-.35 3.85-2.15 8.2-.35.9-.75.7-.45-.25 0-1.25 1.3-3.05 1.5-8 .15-3.75-.25-6m-26.05 4.9q-.1-3.9 1-8.85 1-4.45 2.05-6.25l1.45 1.4q-.85 1.45-2.2 6.6-1.3 5.1-1.35 7.05-.05 1.8-.5 1.7-.4-.15-.45-1.65m2.1 5.8q-.85-1-.6-1.3.2-.3 1.3.9 2.05 2.25 4.05 3.4 2.15 1.2 6.15 2.4l2.05.8-2.05-.1q-3.65-.7-6.2-2.1-2.65-1.45-4.7-4m25.55 26.65q-.45-.35-.3-.75.15-.4.9-.15.75.3 1.1.7l.5.9q.25.5 0 .55-.25.1-.65-.2l-1.55-1.05m27.7-27.45q.7-3.15.7-9.15 0-.75.5-1.25l.65.05-.05 4.2q-.35 3.85-.95 6.1-.4 1.3-.75 1.35-.4.05-.1-1.3m-8.3 9.85q1.1-.3 2.75-1.35 1.85-1.2 2.8-2.45 1-1.35 1.15-1.2l-.6 1.35q-.95 1.7-3 3.15-1.6 1.1-3 1.5l-.1-1"/><path fill="#0d131a" d="M230.45 71.8q1-3.4 1.25-6.8-4.15 6.05-5 10.8.65.55 1.25.35 1.3-.55 2.5-4.35m1.45-8.55l.8-1v1.3q0 4-.75 7.4-1.15 5-3.65 6.05-1.3.45-2.4-.7l-.15-.15v-.25q.65-3.9 3.4-8.55 1.35-2.35 2.75-4.1M179.35 47.7q-.25-.95 2.2.6 3.5 2.2 8.5 9.8 5.95 9.05 7.3 17 .45 2.5-1.2-1.6-3.55-8.9-8.65-16.1-3.55-5-6.85-7.9-1.1-1-1.3-1.8"/><path fill="#0d131a" d="M189.45 64.55q0 2-.6 3.4-.65 1.45-1.55 1.45t-1.5-1.45q-.65-1.4-.65-3.4t.65-3.45q.6-1.4 1.5-1.4t1.55 1.4q.6 1.45.6 3.45M229.7 71l-.85 2.75q-.5 1.15-.9 1.05-.4-.05-.45-1.3-.05-1.25.3-2.9.4-1.65.9-2.75.55-1.1.9-1.05.4.1.45 1.3l-.35 2.9"/><path fill="#fff" d="M187.45 61.9q0 1-.45 1.65-.5.7-1.15.7-.65 0-1.1-.7-.5-.7-.5-1.65t.5-1.65q.45-.7 1.1-.7.65 0 1.15.7.45.65.45 1.65"/><path fill="#0d131a" d="M246.85 19.4q2-2.5.4-5.15-.95-1.6-4.15-4.15-3.25-2.55-4.75-2.85-2-.5-3.25 3.65l-.45 1.35q-.75 2.2-2.6 3.95-2.35 2.2-5.2 2.2 3.75 3.4 3.85 4.15.1.75-1.3-.35l-2.4-2.1q-1.6-1.35-3.8-2.45-9.7-4.8-23-4.4-10.55.25-16.25 2.9l.55.8 2.45 2.1q.9.65.75 1-.1.3-1 0-2.5-.85-5.15-4.3-3.55-4.6-4.8-8.4-1.1-3.3-2.35-4.65-.95-1-6.8-1.15-5.85-.15-8.45.8-2.25.85-2.85 2.4-.45 1.25.35 2.65l1.5 2.45 3.8 6.4q2.3 4.3 3.3 7.8 1.45 5.1-.35 13.25L161 50.7q-2.65 8.75-2.3 14 .3 4.7 3.3 9 3.3 4.7 19.75 11.35 1.35.5 2.05 3.15.95 3.75 1.1 12.7l2.85 1.55q2.9 1.7 3.1 2.4.2.75-1.95-.15l-5.8-2.75q-14.8-7.4-23.35-1.8-3.75 2.5-4.95 7-1.2 4.65.55 10.2 1.4-2.5 3.9-4.65 2.85-2.55 5.5-3.05 2.9-.55 5.35 1.75 2.9 2.65 4.85 8.45 1.95 5.85 1.95 12.2 0 1.4-.75 4.45-.75 2.8-.6 4.85.5 6.3 7.3 13.55 6.1 6.5 9.5 6.8 1.9.2 4.9-.95 2.55-.95 5-2.6 2.55-1.7 3.45-2.15 3.9-1.8 6.4-1.2 1.3.35 3.75 2.35 1.95 1.55 3.4 1.8 1.55.3 2.35-1.05 4.8-7.85 8.2-17.5 2.95-8.4 3.8-15.1.85-6.1-2.75-14.05-3.8-8.5-8.45-7.9-2.7.35-5.25 1.15l-4.5 1.55q-3.6 1.5-5.6 1.8l-2.4.1q-.6-.3 1.95-1.3-1.9-.45-3.6-3.9-2.5-.65-5.1-2.75l-2.85-.3q-1.6-.65-2.6-1.85L190 94.4q-1.8-2.65-2.6-3.4-1.15-1.1-1.3-1.75-.1-.65 1.15.1 1 .65 3.6 4l2.85 3.7q1.85 1.85 3.3 1.6l-.85-1.45q-2.65-4.1-4-4.6-.95-.35-1-.8-.05-.45.8-.2 1.55.55 2.85 1.75l1.95 2.35q3.45 4.8 7.95 5.5 4.4.65 12.2-2.35 2.9-1.15 4.8-3.75 1.6-2.3 2.65-6.1 1.55-5.55 1.7-4 .1.9-.35 3 7.2-3.1 9.8-8.65 1.5-3.2 1.45-10.75-.1-8.5.2-9.9-9.9 10.25-10.8 21.25-.1 1.4-.55 1.75-.55.35-.6-2.05-.25-8.05 6.5-16.95.95-1.25 6.15-6.95 3.85-4.2 5-6.7 1.05-2.25.15-6.75-.7-3.7-1.9-5.9l-2.1-3.35q-1.1-1.7-.55-1.6 1.5.2 2.7 2.65.85-4.8 2.95-9.65 1.65-3.8 2.75-5.05m2.75-4.05q.55 1.25 0 2.7L248 20.7q-1.35 1.95-3.1 6.3-2.25 5.5-2.4 9 2.75 5.15 3 9.15.15 2.55-.65 4.25-.9 1.85-2.8 4.25-1.8 2.25-3.3 3.5-.65 3.25-.25 11.95.4 7.5-1.2 11.1-1.55 3.55-4.35 5.8-2.75 2.2-7.3 3.65-1.5 5.1-3.2 7.2-1.6 2-5.2 3.4-8.05 3.05-12.4 2.75 1.65 2.4 3.65 2.95l1.9-.65 5.85-2.15q4.05-1.3 6.75-1.5 5.75-.45 10 8.85 4.2 9.25 2.25 17.4-3.05 12.55-6.3 20.25-2.05 4.8-5.5 10.25-2.25 3.45-4.4 2.7l-3-1.7-2.75-1.95q-1.35-1.05-2.25-1.3-1.5-.35-4.75 1.15-1.05.5-3.25 2.05-3.5 2.35-5.35 3.25-3.15 1.6-5.3 1.35-3.85-.4-10.15-6.55-6.7-6.6-8.4-12.7-.7-2.35-.3-4.15l1.05-3.7q1.05-5-.55-12.7-1.7-8-4.9-11.7-.35-.35-2.3-.8l-3.1-.3q-1.7.3-5.95 4.9l-3.85 4.5q-2.6-7.2-1.8-13.05.75-5.75 4.55-8.95 8.65-7.15 26.25 1.5.5-1.75 0-6.7-.5-4.9-1.4-7.1-6.2-1.85-12.75-5.3-7.15-3.75-9.5-6.95-3.4-4.55-3.45-9.3-.1-4.35 2.7-13.45l4.5-15.35q1.9-7.8.8-11.65-.95-3.35-3.25-7.4L156.85 11l-2.25-3.1q-.95-1.65-.3-3.65.5-1.45 1.45-2.2.7-.5 2.35-1.15 2.7-1 9.1-.85 6.95.15 8.65 1.8 1.55 1.5 2.9 5.6 1.4 4.25 4.3 7.4 7.4-3.05 17-3.5 14.5-.75 25.8 5.9 2.15-.45 4.3-2 1.95-1.4 2.4-2.55l1.25-3.95q1.15-3.8 4.45-3.1 2.45.55 5.7 2.95 3.95 2.95 5.65 6.75"/><path fill="#e6d4e7" d="M165.55 192.6q7.3-4.45 13.2.3 5.45 4.35 8.65 15.4 3.1 10.75 3.25 24.6.1 14.4-3.05 27.8-2.05 8.7-8.35 17.5l-5.75 7.7q-3.65 4.9-6.05 8.85-18.05 29.65-19.95 60.35-.95 15.1 2.7 32.25 8.7 4.55 5.7 13.35-2.15 6.25-9.7 7.8-7.45 1.5-11.85-2.9l-5.05.55-6.1 1.35q-2.45 5.35-9.8 6.45-8.15 1.2-13.85-5.35-4.35-5-2-11.7 2.35-6.75 8.95-8.1 5.45-9.75 9.95-20.5 4.95-11.75 6.95-15.55 4.2-8 8.15-28.5 3.95-20.7 2.65-28.3-.5-2.95-3.8-10.05-3.35-7.3-4.9-15.7-3.6-19.1 10-43.8 12.75-23.25 30.05-33.8"/><path fill="#cea6cc" d="M150.7 205.15q-7.65 20.85-9.55 38.8-1.8 17.4.8 41.15 1.8 16.25-.05 26.3-1.95 10.3-11.65 35.3-3.25 8.4-9.1 29.3-4.2 15-6.1 15.55-5.7 1.7-9.2 6.35-5.35 7.05 1.95 15.8-4.7-1.05-8.25-5.1-4.7-5.4-3.3-10.2 1.55-5.6 11.5-11.95 1.1-.7 6.5-13.4 6.65-15.6 9.15-20.3 4.2-8 8.15-28.5 3.95-20.7 2.65-28.3-.5-2.95-3.8-10.05-3.35-7.3-4.9-15.7-2.8-14.7 5.1-33.7 7.2-17.4 20.1-31.35m1.8 200.4q-3.85 3.2-9.35 3.25-5.55.05-8.8-3.2l-5.05.55-6.1 1.35-.3-2.6q-.4-3.1-1.1-4.4 1.15-1.1 6.25-1.95 5.55-1 6.3.85 1.65 3.95 6.7 5.6 4.85 1.6 11.45.55"/><path fill="#e6d4e7" d="M147.35 360.6q1.8.3 3.65 2.3 2 2.15 2.85 5 2.15 7.4-4.9 13.1l-1.6-20.4"/><path fill="#cea6cc" d="M148.95 381l-.3-3.8q2.95-1 5.15-2.85-1.1 3.55-4.85 6.65"/><path fill="#0d131a" d="M177.8 193.15q-5.3-3.8-11.85.15-17.35 10.55-29.95 33.6-13.25 24.35-9.7 43.15 1.05 5.65 2.75 10.35.95 2.65 2.85 6.75l1.85 4.2q.9 2.25 1.25 4.45 1.3 7.8-2.6 28.4-3.9 20.65-8.3 28.9-2.25 4.35-5.65 12.55l-5.15 11.7q-3.35 7.25-4.85 9.2l-5.2 4.45q-3.85 3.1-4.95 6.25-1.1 3-.8 6.05.35 3.2 2.15 5.3 5 5.75 13.5 4.55 3-.45 5.4-2.15 2.15-1.5 3.45-3.8.95-1.6.1-4.55-.7-2.25-.25-2.15 1.45.4 2.1 3.1l.3 2.6q4.5-1.3 8.7-1.3-2.05-2.6-1.6-3.25.3-.4 1.1.5l2.45 2.85q1.75 1.9 5 2.65t6.55-.05q7.45-1.75 8.8-6.6 1.15-4-.15-7.5-1.4-3.8-5.3-5.45-2.1-.9-5.45-.6-2.3.25-2-.3.75-1.3 3.55-1.4l2.65.15q-4.35-24.2 0-46.85 4.45-23.1 18.1-45.5 1.65-2.75 5.15-7.1l5.1-6.4q4.55-6 6.05-8.8 2.35-4.25 3.85-10.75 4.85-20.35 2.1-40.85-2.75-20.45-11.1-26.5m-12.7-1.25q7.45-4.55 13.65-.05 6.3 4.55 9.65 14.65 3.55 10.75 3.35 26.6-.2 17-.8 21.35-2.25 16.3-10.9 25.55-3.15 3.35-6.15 7.1-4.15 5.05-5.75 8.1-8.9 16.85-13.8 33-5.5 18.15-5.5 34.15 0 7.25.3 11.95.45 6.45 1.65 12l.1.55q7.45 4 7.7 10.1.2 5.95-3.65 9.2-3.05 2.6-8.3 3.3-8.15 1.05-12.55-3.05l-4.8.55-5.55 1.25q-1.3 2.55-3.85 4.4-2.65 1.9-6.05 2.55-10.1 2.1-16.35-4.35-1.95-2-2.65-5.25-.85-4.2 1.15-8.6 1.65-3.55 4.55-6.2l5.9-4.55q1.7-1.3 3.95-7.2l3.8-10.2 8.35-19.35q4.45-11.4 7.5-26.8 3.05-15.45 3.05-26.55 0-1.3-1.9-5.2l-4.05-8.25q-5.8-12.35-5.05-20.25 1.95-20.55 14.9-41.15 12.4-19.75 28.1-29.35"/><path fill="#0d131a" d="M147.25 361.35l.25-1.45q2.15.4 4.2 2.1 2.4 2.05 3.55 5.1t.2 7q-1.25 5.2-6.05 7.45l-.9-1.15q3.75-3 4.75-6.75.7-2.6 0-5.2-.7-2.75-2.6-4.85-1.75-1.95-3.4-2.25"/><path fill="#e6d4e7" d="M168.6 137.45l-.4.25q-6.25 3.95-16.5 17.65-9.25 12.35-12.15 19.1-2.55 5.9-7 26-4.45 20.15-4.15 24.65.25 3.7 4.85 7.3l6.6 5.15q1.6 2 2.25 7.8.7 6.35.9 6.75 1.5 3.1 1.85 4.55.45 2 0 4.6-.5 2.65-4.1 4.1-3.4 1.35-6.6.55 1 3.35.8 5.45-.3 3.05-2.9 5.3-3.15 2.75-7.15 2-3.5-.65-5.25-3.2-3.85-2-8.45-8.55-4.35 8.25-13.85 4.4-3.3-1.3-5.7-6-1.1-2.25-3.15-8.35-1.35-4-1.3-6.7 0-3.05 1.7-5.45l6.45-8q5.1-6.65 6.75-12.05 1.85-6.05 10.65-28.2 8.05-20.2 11.95-29.15 2.75-6.45 11.35-18.95l13.6-19.2q2.75-6.05 7.65-11.75t7.65-6.15q3.1-.5 4.45 1.9 1.35 2.35 2.7 10.45 1.15 6.7-1.05 10.9-1.1 2.1-2.45 2.85m-64.9 108.8q-3.25 2.7-3 3.85l1.25 3.7 2.85.4q3.15.75 4.7 2.55l-.65-8.35-.55-4.45q-1.3-.45-4.6 2.3m20.5 7.7q-.95 5.8 1.15 7.8l2.95-.05q2 .3 2.75.95-1.2-3.05-1.3-4.15-.2-3.3 2.9-5.7-2.45-3.55-4.35-4.4l-2.15-.1q-1 .25-1.95 5.65"/><path fill="#cea6cc" d="M172.55 129.15q-.65-5.2-4.35-7.7-3.7-2.4-7.15-.2-3.75 2.35-16.1 19.65-12.85 18-15.5 25.7-4.1 11.9-8.2 31.35-5.05 24-2.7 29.85 2.3 5.65 3.65 6.95 1.1 1.1 6 4.7 4.85 4.1 7.3 10 2.35 5.6.35 6.7-2.2 1.15-3.1 2.9-1.15 2.3-.3 5.95-2.65-1.85-2.7-5.75-.05-3.9 2.55-6.25-.3-1-.75-1.45l-1.65-1.9q-1.3-1.65-3.65-2.75-2.3-1-4.3-.95-2.2.15-4.1 3.45-2.15 3.8-2.25 9.4-.05 5.8.6 7.45.55 1.3 3.7 4.1 3.85 3.4 5.4 4.3 2.85 1.7 7.15 2.2-6.7 2.55-11.75-.25-1.3-.7-5.6-4.9-1.95-1.95-3.6-4.65-1.9-3.2-1.9-5.15l.1-9.65q.1-1.5-.85-5.05-.9-3.4-1.9-5.5-.8-1.7-4.7 1.95-3.45 3.25-4.3 5.1-.55 1.2.7 5.65 1.25 4.35 2.4 5.5.45.45 2.85 0 2.45-.45 5.05 1.75.4 2.3 1.8 5.65l-.8 1.6q-1.4 1.8-4.2 2.85-3.3 1.25-7.65-.8-4.2-1.9-5.55-4.85-1.4-3.05-2.95-7.6-1.65-4.95-2.1-7.5-.7-4.65 5.65-10.65 2.15-2.05 4.95-7.15l3.85-7.55q.65-1.25 5.1-14.8 4.4-13.35 6.75-17.75 1.7-3.2 6.2-15.15 3.95-10.65 6.45-14.2l8.95-13.65q6.4-9.9 9.1-13.25 2.45-3.05 7.25-11.95 4.6-8.55 6.1-10.25 2.45-2.75 5.85-3.45 3.5-.7 5.55 1.35 1.25 1.25 2.75 5.75 2 6.15.55 10.85"/><path fill="#0d131a" d="M167.85 137.1q1.8-1.15 1.75-.3-.1.85-1 1.5-6.9 5.05-16.6 17.95-8.85 11.75-11.8 18.5-2.55 5.8-6.95 25.85-4.4 20-4.15 24.45.15 2.45 2.7 4.85l4.95 3.7q3.05 2.15 4.55 4.05 1.2 1.45 1.45 4.55l.3 5.55q.2 2.25 1.15 4.55 1.5 3.05 1.75 4.4.35 1.7-.15 4.5-.2 1.1-1.15 2.35l-2.1 2q-3.15 2.05-7.4 1.55 1.15 2.7.6 5.5-.6 2.7-2.45 4.35-2.05 1.8-6.3 2.05-5.05.35-7.8-2.65l-3.1-2.5-4.9-5.7q-2.3 3.7-5.85 4.7-3.6.95-8.25-.9-3.5-1.4-5.8-5.7-1.7-3.2-3.65-10.3-1.35-4.95-1.3-6.7 0-2.5 1.95-4.9l7.05-9.25q5.1-7.2 6.05-10.55 1.7-6.15 10.35-28.3 7.95-20.4 11.85-29.25 2.15-5 13.2-20.7l12.25-17.85q4.75-9.45 6.35-11.8 4.75-7.05 9.5-7l1.2.1q.6.15 1.65.85.75.5-.15.35l-2.8.15q-4.4 1.55-8.8 8.4-2.35 3.7-5.7 10.05l-12.2 17.7q-10.55 15.3-12.75 20.4-3.65 8.4-11.75 29.15-8.55 21.95-10.45 28.1-2.25 7.35-12.4 19.75-1.8 2.2-2.1 4-.45 2.25.75 5.95 2.65 8.1 3.85 10.6 1.8 3.75 4.3 4.85 3.8 1.7 7.25 1 3.85-.85 5.75-4.45l1.25-.1q3.85 4.7 8.45 8.55 2.45 1.75 5.9 2.05 3.5.3 5.15-1.2 2.45-2.1 2.8-4.75.25-2-.65-5.05l.85-.9q3.85.95 6.9-1 1.55-1 2.4-3.3 1.4-3.7-.85-8.4-.9-1.9-1.15-4.65l-.65-5.4q-.6-3.15-1.65-4.45-1.3-1.6-4.35-3.7-3.85-2.75-5.2-4.1-2.65-2.7-2.85-5.65-.25-4.35 4.55-24.45 4.8-19.85 7.4-25.9 3.35-7.65 11.7-19.05 9.9-13.5 17.3-18.05"/><path fill="#0d131a" d="M102.05 249.7l.55 3.25 2.65.55q1.9.6 3.4 1.6-.7-7.45-1.35-10.1-2.15 1.25-3.75 2.75-1.6 1.4-1.5 1.95m4.9-6.95q.25-2.65.65-2.3.25.2.9 2.2l.85 2.8.7 4.55.35 8.9q.1 3.2-.65 1.1l-.8-2.75q-2.15-2.55-6.35-2.55-.2 1.9-.7 2.35-.5.4-.45-1.2.05-1.35-.7-3.75L100 250q-.2-1 2.25-3.3l4.7-3.95m19.7 6.1q-1.5 2.35-1.95 6-.45 4 1 5.9 1.45-.2 3.6.5-1.55-5.35 2.55-8.55-1.15-1.4-3.05-2.7-1.65-1.1-2.15-1.15m7.05 4.3q.75 1.4.1 1.95-.6.55-1.3-1.05-1.85 2.2-1.75 4.65.05 1.25.85 3.5l-1.05 1q-.6-.55-2.15-.85l-2.45-.05q1.55 1.8.85 1.9-.85.15-2.8-3-1-1.65-1.25-3.25-.3-1.95.4-4.35 1-3.6 1.8-4.95.65-1.1 1.55-1.3 1.25-.35 3.05.85 2.3 1.5 4.15 4.95"/><path fill="#0d131a" d="M130.05 260.05q.35-.75.85.45.95 2 1.75 3 1.8 2.25 4.1 2.2 1.45-.05 1.75.3.3.3-.4.7-1.9 1-4.3.05-1.5-.6-2.65-2.2-1.05-1.4-1.2-2.6-.15-1.15.1-1.9m-19.8-3.6l.2 4.8q.1 2.25.75 3.6 1.05 2.25 2.75 4.25 1.35 2.3.05 1.8-1.3-.45-2.9-2.75-1.45-2-1.95-3.6-.35-1.05-.4-2.35l-.1-7.1q.1-2.85.5-3.5.55-.9 1.1 4.85"/></svg>