<svg xmlns="http://www.w3.org/2000/svg" width="190" height="174" viewBox="-1.6 -0.45 189.95 174.15"><path fill="#0d131a" d="M84.2 71.1l14.7-10.95v3.9q.05 6.05.4 11.45.4 6.45 1.05 7.8l1.25 1.6 1.75 2.4q.55 1.15.2 2.15-.7 2.1-3.75 1.35h-.05v.2L99 93q-.65 1.15-1.8 1.4-2.05.4-3.6-2.45l-.15.1q-1.7 1.25-2.9.95-1.35-.35-1.55-1.85-.15-.9.25-3.2l.3-2.45q-.45-4.15-1.35-6.3l-1.85-3.95-1.35-2.7-.8-1.45"/><path fill="#fceded" d="M95.85 73.55l1.35-.15q.4 8.65 1.4 10.75l1.85 2.5q1.4 1.75 1.25 2.15l-1.35.1-1.8-.1q-.35.2-.8 1.9-.4 1.65-.95 1.75-.6.15-1.4-1.4-.85-1.55-1.4-1.5-.55.1-1.65.9-1 .75-1.3.65-.3-.1.1-2.45l.4-3.35q-.9-6.45-1.5-7.95l-.5-1.25q4.2-2.3 6.3-2.55"/><path fill="#f6c7ce" d="M97.2 73.4l-1.35.15q-2.1.25-6.3 2.55l-2-5.2 9.4-6.85.25 9.35"/><path fill="#0d131a" d="M186.15 94.2q2.2 14.15-3.05 28.35-5.8 15.6-19.3 27.1-8.3 7.4-23.25 16.4-9.15 5.45-18.35 6.55-9.25 1.1-11.6-3-1.55-2.75 3.15-8.6 4.7-5.8 15.2-14.1l5.95-4.5q4.1-2.95 7.25-4.2 4.15-1.6 7.7-.95 2 .35 5.6 1.45l1.7.3 1.3-.05q11.25-9.65 16.15-22.9 4.3-11.5 2.65-21.8-.95-6.2-4.25-10.75-3.1-4.3-7.35-6-9.2-3.7-22.95 8.7-8.25 7.4-22.95 26.2l-2.2 2.85-4.45 6.25-3.1 4.5q-12.6 18.2-20.65 23.3-11.65 7.3-30.2 2.55-20.5-5.3-25.25-32.95-1.5-8.7-1.25-18.55l.6-8.4 1.15-1.9 11.05 1.25-.35 2.05q-.5 3.15-.8 7.7-.6 8.4.25 15.6 2.55 22.65 17.5 26.3l14.6.45q8.35-1.65 13.85-7.55 5.95-6.4 10.2-11.85 4.3-5.5 10.9-15.1 15.85-23.2 30.55-33.25Q157.2 65.3 168.6 70.4q6.85 3.05 10.95 8 5.1 6.15 6.6 15.8"/><path fill="#f6c7ce" d="M42.6 93l-.45 3.6q-.4 4.3-.45 8.8l-2.3-.3q-1 .2-3.9 2.7-.4-8.75.55-15.55l6.55.75"/><path fill="#fceded" d="M179.65 94.45q-1.1-6.9-4.85-12.35-3.8-5.4-8.5-6.85-10.3-3.25-23.7 8.2-9.45 8.05-26.8 30.15l-3.85 5.4-3.7 5.4-9.5 12.6q-5.1 6.1-9.8 9.3-11.2 7.6-28.5 3.1Q47.2 146 40.8 132.35q-4.65-10-5.3-24.55 2.9-2.5 3.9-2.7l2.3.3q-.15 14.15 3.1 23.5 4.65 13.45 16.1 16.4 15.05 3.9 25.85-3.25 7.15-4.75 17.95-19.8 4.4-6.2 7.5-10.1 13.85-18.7 23.8-27.75 18.4-16.75 31.85-11.9 5.95 2.15 9.95 8 4 5.85 5.3 14.2 1.95 12.35-2.25 25.1-5 15.3-17.75 26.15l-2.3 1.95q-6.4 5.15-20.8 13.7-12.15 7.25-19.05 8.1-5.05.65-6.6-2.1-.85-1.55 10.35-11.75 10.2-9.25 15.3-12.7 4.1-2.75 9.7-2.35l6.85 1.2 1.7-.05.75-.15q12-10.1 17.5-24.2 4.85-12.4 3.15-23.15"/><path fill="#fceded" d="M62.4 106.1q.15 4.85.45 5.5 1.55 3.95 14.9 15.4l17.3 15q4.05 4.25 4.85 7.2.55 2.2-.7 4.4 0 1.4-.85 2.45-.9 1.15-2.3 1.4-2.45 4.45-8.8-1.15-4.05-3.5-9.3-10.75-1.6-2.2-11-8.9l-14.2-10.05q-4.25-3.25-4-7.25.3-3.85 4.8-9l-.8-9.6q2.95-.45 9.55-3.15l.1 8.5"/><path fill="#f6c7ce" d="M116.55 163.9q3.25-3.35 8.45-6.8 3.1-2.1 8.35-5.05 3.45-1.95 6.6-3.2 3.95-1.55 6.25-1.5 4.55.15 6.95 1.2 1.65.8 1.4 2.4-.2 1.65-2.5 3.15L140 161.6q-12.15 7.25-19.05 8.1-5.05.65-6.6-2.1-.2-.35.45-1.45t1.75-2.25M52.7 101.15q6.3-1.9 9.6-3.55l.15 8.65q-1.85-.75-4.8-.4-2.7.35-4 1.2l-.95-5.9m18.3 38q8.05 3.55 17.25 11.55 2.85 2.5 6.45 1.35 3.85-1.25 3.5-5.95 1.35 1.65 1.7 3.85.35 2.15-.4 3.4-.9 3.55-3 4.05-3.25 3.7-9.1-1.05-4.25-3.4-9.45-10.8l-3-3.1-3.95-3.3"/><path fill="#0d131a" d="M63.35 93.3V96l.05 6.2q.1 6.55.4 8.85.2 1.6 5.75 7.15 6.3 6.4 17 15.25l1.25 1.05q7.7 6.3 10.75 10.45 4.2 5.65 1.7 9.4l-.1 1.1q-.3 1.3-1.35 2.25-.45.45-1.85.75-.45 1.15-1.75 1.8-1.15.6-2.2.55-3.65-.1-7.85-4.4-2.45-2.5-5.95-7.6l-.55-.75q-1.45-2.1-3.65-3.95l-4.85-3.5-5.4-3.8q-2.7-2.05-6.25-4.35-3.7-2.5-5.3-3.75-2.65-2.05-4.35-4.25-2.6-3.25-.75-7.8.95-2.4 3.6-5.7l.45-.5q.3-1.9-1.35-11.5l-.25-1.7 12.8-3.95M54 98.25l1.2 12.6-3.65 4.65q-2.65 4.35-.45 7.2 2.2 2.8 5.85 5.45l8.2 5.85 6.55 4.8 5.25 4.35q1.9 1.75 3.3 3.75 3.1 4.5 6.8 7.6 5.05 4.2 8.1 2.7l-.1-1q-.7-2.55-4.25-6.8l-3.45-3.8 4.25 3.45q4.2 3.85 5 6.7 0 .45.9-.4.8-.85.35-2.4-.45-1.55-3-4.95l-2.45-3.1q.9.45 2.45 1.75 2.6 2.1 3.9 4.5.25-3.5-3.7-7.7l-9.75-8.5-4.1-3.4-13.1-11.6q-6.45-6.1-6.7-8.3v-3.15l.1-4.05-.1-8.45-7.4 2.25"/><path fill="#fceded" d="M90.05 28.55q-.85 5.1-.3 9.15.6 4.5 2.95 8.75 2.2 3.95 9.15 7.15 5.85 2.7 9.75 2.95l.8 1.45q-7.6 3.9-21.95 13.7-12.8 8.7-19.35 18.65-4.7 7.2-16.15 10.1-12.35 3.1-20.5-2.85-2.35 1.15-3.45 2.35-.55.65-2.05 4.8l-2.55 7.7q-2.7 9.8-2.2 18.15.75 12.2-1 22.1-2 11.45-6.4 11.8-1.1 2.1-3.6 2.4-2.5.35-3.75-1.5-3.8.9-6.1-4.25-1.9-4.25-1.8-9.15.15-4.75 4-15.05 3.45-9.4 6.65-14.9 1.1-1.9 3.25-8.45l3.6-11.3q1.5-4.5 1.4-9.3l-.85-8.85q-1-7.4.6-13.75 1.65-6.5 6.2-13.05 4.15-5.85 15.6-9.8 8.2-2.8 19.4-4.4 7.35-1 16.35-6.2 5.25-3.05 12.3-8.4"/><path fill="#f6c7ce" d="M2.05 156.7q-.95-8.65 3-17.8-.65 7.9 1.75 12.25 2.15 3.75 5.95 3.9 3.6.15 6.85-2.85 3.4-3.15 4.45-8.1-.25 7.1-1.75 12.4-1.95 6.7-5.5 8-1.7 1.8-3.55 2.2-2.05.4-3.6-1-6.6.4-7.6-9"/><path fill="#0d131a" d="M96.2 24.95l23.6 27 1.15 1.95L119 55l-15.75 9.55q-16.7 10.5-22.2 15.6-4.35 4-7.5 8.95-2.25 3.5-4.9 5.75-3.8 3.25-9.75 5.4-7.9 2.8-15.5 2-6.65-.7-9.2-3.35l-2.05 1.45q-1.15 1.05-3.5 7.95-2.25 6.7-2.9 10.75l-.45 3.85v4.4l.05 6.9q.15 11.55-.4 16.3-1.25 10.4-5.85 14.35-.5.45-1.95.7-2.3 3.2-6.05 2.35-.6-.15-1.3-.75l-.6-.55q-2.6.55-4.75-.85-2.05-1.35-3.2-4.15-2.85-6.85.6-18.8Q4.1 135.05 8 127.75q3.55-6.65 6.25-14l3.85-11.95q1.25-4.25 1.35-7.6.1-2.7-.65-7.45-1.4-8.7-.15-15.65 1.35-7.55 6-13.95 4.75-6.6 13.7-9.9 5.2-1.95 17.1-4.05l7.85-1.5q8.5-1.8 19.75-9.6 5.65-3.9 9.6-7.5l2-2.25 1.55 2.6M84.5 33.8q-11.6 8.1-20.75 10.05l-20.55 4.5q-10.55 3.3-15.8 10.6-5.4 7.45-6.65 15.7-.8 5.45.2 11.75.8 4.95.7 7.85-.05 3.65-1.4 8.2l-5.8 18.3-2.95 5.4q-2.1 3.9-3.2 6.8-4.25 11.45-4.8 19.4-.7 10.2 5.15 12.35.7 0 .95-.4 2.15-3.15 2.15-6.7l-.2-4.05-.2-1.75 1 1.7q1 2.15.95 4.1 0 4.25-2.4 7.6l1.05.5q1.35.3 3.05-.75l.9-1.05.35-1.2q.5-2.05.2-6.2l-.45-3.85.65 1.1q.7 1.4 1.05 2.95.6 2.9.1 5.95 3.35-3.65 4.6-12.25.8-5.55.75-14.1l-.05-4.2-.05-8.15q.05-2.3.55-5.25.65-4.1 2.95-11.05 2.55-7.75 4.2-9.05L33.9 96q3.95-3.25 5.85-5.5 4.5-5.4 7.15-13.2 1.95-5.6 2.5-9.2.45-2.85.1-5.1-.3-1.9.6-2.1.85-.2 1.15 1.7.4 2.55.1 5.35-.4 4.15-2.25 9.95-3.6 11.35-13.05 19.5 3.85 2.05 8.55 2.5 6.85.65 14.3-2.3 6.65-2.6 11.15-8.05 7.8-9.5 9.5-11.05 5.7-5.2 22.6-15.85 8.45-5.3 15.75-9.55L94.3 26.05q-4 3.7-9.8 7.75"/><path fill="#fceded" d="M80.25 51.8l-1.55 8.05q-.3 1.45-.3 4.15 0 2.1.15 3.65.1.8 1.3 3.05 1.05 1.9.75 2.05l-1.9-.4-2.15-.2q-.45.2-.95 2.45-.5 2.05-1.25 2.05-.65 0-1.45-1.85l-1.3-2.35q-.5-.4-2.2.55-1.65.9-1.85.6-.2-.4 1.2-2.6l1.85-3.05q1.45-4.05.1-10.5L69 51.8h11.25"/><path fill="#0d131a" d="M81.45 74.5l-1.45.2-1.55-.35-.75-.2-.1.55-.9 2.5q-.85 1.4-2.35 1.4-1.3 0-2.2-1.15L70.9 75.1l-.25-.5-.4.2q-3.2 1.85-4.35-.2-.6-1-.1-2.3l1.6-2.75 1.95-2.85q.4-1.6-.05-5.75-.45-3.9-1.15-6.1l-.8-2.7q-.25-1 .6-.95.9.1 1.5 1.75 1.15 3.35 1.65 6.6.7 5.05-.5 8.4L68.75 71q-1.4 2.2-1.2 2.6.2.3 1.85-.6 1.7-.95 2.2-.55l1.3 2.35q.8 1.85 1.45 1.85.75 0 1.25-2.05.5-2.25.95-2.45l2.15.2 1.9.4q.3-.15-.75-2.05-1.2-2.25-1.3-3.05-.15-1.55-.15-3.65 0-2.7.3-4.15l1.45-7.55q.65-.8 1.35-.8 1 0 1.1 1 .05.45-.7 2.5l-1.25 5.25q-.55 2.55-.1 7.25.05.5 1 2.25l.95 1.9q.3.85.05 1.6-.35.9-1.1 1.25m79.45-49.45q1.4 4.3 1.4 9.45 0 7.15-3.15 12.15-2.95 4.7-8.35 7.1-1.6 4.75-4.65 8.45-4.85 5.85-11.85 6.8-10.5 1.4-17.3-3.6-4.2-3.05-6.15-7.65-7.3-.5-15.55-6.7-5-3.75-6.35-11.65-.8-4.8-.2-9.6-3.25-6.55-3.9-9.9-.85-4.85-.8-9.8.05-5.45 1.3-6.95 1.4-1.6 7.7-1 5.7.55 12 2.5Q112.3.5 122.85.05q13.1-.5 20 4.3 2.25-.9 6.55-1.5 4.8-.7 8-.2 2.35.35 3.1 1.15.6.65.85 3.6.25 3.1-.2 5.95-.5 3.35-2.8 6.4 1.5 2.05 2.55 5.3"/><path fill="#fceded" d="M159.4 7.85q.05 2.2-.45 5.15-.5 3.05-2.1 5.05-1.15-2-1.85-1.6-.4.25.15 1.35l.8 1.6 2.15 3.85q2 4.7 2 11.45 0 5-2.65 10-2.75 5.15-6.45 6.5l.05-2.1q0-.7-.5-.6-.5.05-.7.7l-.8 2.7q-.8 3.2-3.05 6.6-4.45 6.75-11.75 7.75-9.65 1.3-16.7-4.5-2.25-1.8-3.9-4.1l-1.25-1.95-1.1-1.7q-1.25-1.6-1.75-1.1l.25 1.35.35 1.15q-6.5-1.55-12.9-5.9-5.05-3.4-6.2-11.25-.6-3.95-.1-8.65l.4-3.45q.15-2.1-.6-2.2-.25-.05-.6 1.45l-.35 1.45q-2.2-4.5-2.75-7.3-.65-3.5-.8-8.2-.2-5.7.75-7.1 1.15-1.6 9.9.45 4.35 1.05 8.5 2.4l3.8-2.2q5.45-2.3 13.7-2.6 10-.4 15.45 1.6 1.6.55 4.3 2.6l2.35 2q1.6 1.3 1.95.9.4-.45-2.4-3.4l5.15-1q8.25-1.2 9.25.05.45.6.45 2.8"/><path fill="#f6c7ce" d="M95.05 19.9q-.8 1.25-2.15 1.15-1.65-.1-2.6-2.75-.85-2.4-.9-6.25l.1-3.35 2.55 2.45q2.7 2.7 3.25 4 1.1 2.55-.25 4.75"/><path fill="#fff" d="M111.4 27.45q1.05-.1 3 1.7 2.1 1.95 4 4.95 1.8 2.85 2.05 6.95.2 3.65-.65 4.5-.65.65-2.8.65l-4.95-.45q-3.75-.5-6.35-1.5-3.5-1.35-3.9-3.35 1.05-6.45 4.2-10.2 2.65-3.1 5.4-3.25"/><path fill="#00aeeb" d="M112.35 27.45q2.35 1.2 3.7 3.7 1.3 2.45 1.3 5.65 0 2.85-1.05 5.3-1.05 2.45-2.9 3.85l-6.2-1q-4.3-1.1-5.25-3.2-.9-2.05 1.6-7.55 1.7-3.8 4.4-5.75 2.6-1.95 4.4-1"/><path fill="#fff" d="M106.3 41.45q-1.1 0-1.85-1.25-.8-1.3-.8-3.05 0-1.75.8-3.05.75-1.25 1.85-1.25 1.05 0 1.85 1.25.75 1.3.75 3.05 0 1.75-.75 3.05-.8 1.25-1.85 1.25"/><path fill="#0d131a" d="M119.9 30.75q-.55-1.3-1.5-2.5-1.15-1.45-2.3-2.05l-.6-.25-.2-.25.4-.25.9.15q1.45.7 2.7 2.45.95 1.35 1.3 2.5l.2.9v.6q-.3.1-.9-1.3"/><path fill="#fff" d="M143.35 46.1q-2.1-2.1.15-9.45 2.3-7.45 5.9-8.7 3.05-1.05 3.95 3.85.8 4.3-.3 7.45-.85 2.45-4.15 4.95-3.5 2.7-5.55 1.9"/><path fill="#00aeeb" d="M145.25 31.9q1.25-2.1 2.1-1.95 2.05.75 3.1 3.45 1.1 2.9.4 6.4l-.95 3.6q-.7 1.1-3.05 2.05-2.3 1-3.3.6-1.2-.45-1.3-2.85-.1-2.35.85-5.95.85-3.15 2.15-5.35"/><path fill="#fff" d="M144.95 41.9q-.95 0-1.65-1.1-.65-1.05-.65-2.65 0-1.6.65-2.7.7-1.1 1.65-1.1t1.6 1.1q.7 1.15.7 2.7 0 1.55-.7 2.65-.65 1.1-1.6 1.1"/><path fill="#0d131a" d="M142.3 30.6q-.45-.15-.05-1.35.35-1.1 1.1-2.2.5-.8 1.6-1.4 1.05-.65 1.15-.25.2.4-.25.65-1.25.55-1.9 1.6-1 1.7-1.2 2.55-.1.5-.45.4m-27.55-2.35q3.1 3.4 3.1 8.65 0 2.75-1 5.25-1 2.35-2.7 4l-1.65-.3q1.85-1.35 2.95-3.7 1.15-2.45 1.15-5.25 0-3.15-1.7-5.75-1.55-2.5-4.1-3.7l3.95.8"/><path fill="#0d131a" d="M117.9 34.3q-1.75-2.8-3.7-4.6-1.85-1.7-2.8-1.65-2.35.15-4.65 2.65-2.8 3-3.95 8.15-.3 1.25-.15 2.05.2.9 1.1 1.6 2.45 1.95 8.2 2.6l4.7.45q1.95.05 2.55-.55.8-.85.6-4.2-.25-3.85-1.9-6.5m-2.45-5.95q2.4 2 3.8 5.1 1.65 3.65 2 7.5.3 3.9-.95 5.15-.9.9-3.55.9l-5.45-.4q-5.2-.6-8.3-2.85-1.5-1.05-1.85-2.4-.3-1.1.1-2.9 1.3-5.6 4.35-8.9 2.7-2.95 5.7-3.05 1.85-.1 4.15 1.85m33.85.45q-3 1-5.1 7.1-2.05 5.9-.85 8.7.35.8 1.1.8 2 .1 4.8-2.2 2.7-2.15 3.35-4.15 1-2.9.3-6.75-.8-4.45-3.6-3.5m3.4-.65q1.7 1.65 1.7 5.6 0 3.2-.85 5.75-.65 1.8-2.25 3.55-1.7 1.8-3.8 2.75l-2.95 1.05q-1.65.2-2.4-1.15-1.25-2.25-.2-7 .95-3.9 2.45-6.8 2-3.8 4.35-4.6 2.35-.75 3.95.85"/><path fill="#0d131a" d="M147.55 29.1q2.35.85 3.4 4.3 1.1 3.45.25 7.6l-.55 2.15-1.5.9 1-3.3q.7-3.5-.3-6.5-1-2.85-3-3.6l-.9-.2q.55-.95 1.25-1.45l.35.1"/></svg>