<svg xmlns="http://www.w3.org/2000/svg" width="145" height="157" viewBox="-0.4 -0.3 145.45 156.75"><path fill="#eeeeef" d="M82.25 142.6l-.65-3.6 1.1-1 1.5 1.2 1.1 1.2.65 1.9.25 1.65-1.9-.45q-1.75-.55-2.05-.9"/><path fill="#f09ba5" d="M47.85 147.9q.15-1.05.4-1.6-1.2-.15-4.95.8-.9.2-1.5 0l-1-.55-2.15-6.8q.4-1.65 1.65-2.05l7.6-.3q3.7-.25 6.3-1.15l3.55-1.8 2.5-1.65q.6-1.75.85-4.1l.1-3.1 4.2-2.6 3.8 1.35q-.2.8-.3 3.3-.1 2.9.15 5.1l3.2 1.7q2.3 1.05 3.45 1.25l3.35.45 2.5.45.9 1.2q.5 1.05.45 2.1-.15 2.3-1.35 3.15-.65.45-2.15.5l-2.9-.4q-4-1.1-4.5-.8-.9.45-2.85 1.75-2.6 1.75-3.9 3.05l-2.1 2.3-1.45 1.05q-.75.25-2.9 1.25-1.95.9-2.65 1.3l-1.9.55-2.25-.3-4.15-5.4"/><path fill="#f09ba5" d="M58.75 133.8l-3.5 3.15-3.75-.25q-1.05-1-2.9-.6-1.25.3-2.4 1l-3.6 2.4-4 .05-4.25.3-3.6 1-2.05.2-1.45-.7-3.45-4.3-2.1-.1-1.55-.6-4-4.05q.05-.55.65-1.5.75-1.2 1.65-1.45 1-.25 2.8 0l3.65.35 5.15-.2 1.4-.1 1.5.35q4.7 1.8 5.65 1.7l2.2-.75 1.9-.9.85-2.6.2-2 3.8-1 3.15 2.45q-.2 2.15.05 3.8 1.25 1.25 4.2 1.6l2.45.55q1.2.6 1.35 2.2"/><path fill="#91301d" d="M97.15 95.3l3.2-7.8q2.1-.9 5-1.65l5.1-.8 8.6-6q4.2-2.75 4.9-2.7 1.4.2 10.9 7.3 9.65 7.2 9.7 8.5 0 .6-6.4 2.6 6.25 6.55 5.95 7.65-.25 1-16.45 1.9-15.45.85-23.65.55l-6.85-9.55"/><path fill="#f0e78e" d="M25.85 25.3l15.3 5.25 42.1 61.75-.4 27.7q-3.35 1.95-10.9 3.8-11.2 2.8-21.15 1.65-13.6-1.55-24.15-9.75-7.15-5.55-9.75-10.7l-.15.85q-1.05.15-3.75-1l-2.95-1.65q-.25-.4-.6-5.1-.3-4.45-.3-6.75L6.4 96.8l-2.5 4.45q-.4 0-.35-5.65.05-6.5 1.1-12 .95-4.9 3.9-11.9l3.85-9.6 2-6.6q.9-3.4 1.1-8.4l-.1-15.85 10.45-5.95"/><path fill="#f0e78e" d="M96.35 79.7q8.7 13.6 7 32.45.4 4.4.1 6.4-.05.45-.8 1l-1.05.55q1 5.55.85 5.9-.05.4-.95.8l-1.25.35q-.4 0-5.35-5.15-10.5-.5-20.85-6.1-7.1-3.85-10.1-7.25l-3.7-9.2 10.7-19.2 20.8-4.1 4.6 3.55"/><path fill="#91301d" d="M87.05 65.6q4.25 3 7.65 6.05 2.8 2.5 2.65 2.7-.25.35-4.05-.75 5.8 6.35 5.5 6.75-.35.45-5.05-1.75 2.25 5.2 1.9 5.45-.3.2-3.05-1.1l.9 3.2q.35 1.95.15 2l-.8-.2-.55-.35q.6 2.9.15 3l-3.9-1.75q.05 1.75-.3 3.9l-.6 2.2q-.35.25-1.9-.9 1 2.6.65 2.9-.3.35-6.45-5.1.9 3.35.45 3.45-.45.1-6.45-5.15 5.3 13.05 5 13.25-.3.25-1.55-.55 1.1 2.8.9 3.15-.25.3-1.9 0 .65 1 .1 1.3-.55.35-6.2-1.2 1.3 3.1.85 3.2l-3.25-1.75-4.45-3 .35 7.45q-1.3.55-5.75-4.9Q53 100.9 51 94.05q-2.65-9.15-2.65-17-9-6.45-10.85-11.55-1.1-3.15 1.8-12.3 3.1-8.7 3.05-9.3-.05-.7-6.35-4.8L27.65 34q-1.8-1.05-2.1-1.65-.15-.25.05-1.25 2.35-.9 7.1-1.6 9.6-1.4 21.9-.4.55 1.1.95 3.65l.9 5.95 1.5 8.15q.95 4.6 1.75 5.95 14.2 3.6 27.35 12.8"/><path fill="#152139" d="M42.75 29q2.05 1.95 5.35 7.45 3.35 5.45 3.25 6.6-.1 1.45-5.25 6.95-5 5.25-7.75 7.1l4-13.25q-.75-.95-8.6-6l-8-5.2q-.35-.3-.25-1.1l.15-.7q4.4-1.6 11.2-1.9 3.4-.15 5.9.05"/><path fill="#fff" d="M30.85 29.85q6-1 9.85-1.05-.8 2.45-2.3 5.3-1.55 2.9-2.15 3-.75.15-4.5-1.35t-5.15-2.5l-.7-.55q-.6-.75-.25-1.85l5.2-1"/><path fill="#0d131a" d="M31.55 35.5q-1.1-.3-3.25-1.35-2.1-1.05-2.55-1.5-.35-.35-.25-1.1l.15-.7q4.55-1.35 9.85-1.7 0 .8-1.15 2.95-1.35 2.45-2.8 3.4"/><path fill="#f0e78e" d="M57.3 19.75l-2.35 2.05-2.8 2q3.9-.35 10.6 2.1l-2.55.8 3.15 2.15 1.3 1.3-16.35-1.4q-18.4-.55-28.65 4.2l-.6-1Q29.8 23.4 44.55 20.6l9.15-1 3.6.15"/><path fill="#91301d" d="M50.2 19.65q-4.6.5-10.85 2.25-12.4 3.6-20.3 10.05l-4.6-2.5q6-14.55 16.95-23.25 5.5-4.35 10-5.75.3.15-4.35 10 9.1-3.6 9.25-3.4l-4.15 7.05L44 12.85q1.9-1.25 2.05-1.15.3.25-2.85 5.05l2.1.45q2.55.8 4.9 2.45"/><path fill="#f0e78e" d="M24.4 7.35l-.2 3.2-.35 3.1-3.3 4.5q-3.8 5.65-6.15 11.6l-1.8-.55q1.65-8.95 3.85-14.8 1.65-4.5 2.1-4.3.25.15 0 5.05 5.65-7.85 5.85-7.8"/><path fill="#eeeeef" d="M12.3 137.25q.25-1.25 1.15-2.9.75-1.35 1.4-2l1.9-1.5q1.2-.8 1.75-.8.95.05 1.55.4l1.05 1.35q.6 1.05.45 2-.2 1.05-1.4 1.55l-3.35.75q-2.75.5-4.5 1.15m16.55-2.05l.9 1.1q1.25 2.5-.4 3.35l-3.25.7q-2.8.45-5.6 2 .15-1.3.65-2.75.65-1.65 1.55-2.5l2.3-1.9q1.25-.75 2.45-.65.65.05 1.4.65m13.1 9.7q-.35 1.2-1.45 1.65l-3.15.45-4.15.45-1.55.3q-.15-.1.7-1.75l1.45-2.4q.7-.95 2.35-2.2 1.95-1.45 3.1-1.55 1.1-.05 1.95.75.6.6.9 1.55.3 1.05-.15 2.75m9.35 1.5q1.5-.1 2.55.7 1.25.9 1.45 2.6.15 1.55-1 2.6l-1.5.8-2.7.4q-.55.1-2.85 1.35-2.05 1.1-2.1.95-.4-1.5.45-4 .55-1.6 1.2-2.65.3-.55 1.8-1.55 1.7-1.15 2.7-1.2"/><path fill="#fff" d="M29.4 30.25l-.3 1.55q-.35.85-.85.75-.9-.1-.35-2.05l1.5-.25"/><path fill="#f09ba5" d="M12.6 29.2q.65-.05 3.45 1.25l3 1.5q.4.3 1 4.3.65 4.35.1 6.1-.55 1.55-1.75 2.95-1.05 1.25-2.05 1.65-.95.45-6.25-2-4.05-1.85-6.45-3.25l-3.15.4q-.3-.4.65-3.75 1.1-3.7 2.45-5.15 1.2-1.3 4.45-2.65 3.05-1.25 4.55-1.35"/><path fill="#c9c279" d="M45.9 93.85l.5-5.3.05-1.55q.85 4.7.65 9.35-.2 3.7-.85 5.55-.4 1.15-.75 1.25-.5.1-1.1-1.35l-1.2-2.9-.7 5.85-.9 4.1q-.4 1.35-.95.8l-.55.05-.4.65-.45.55-.8-.65q-.3-.4-1.45.75l-.7.35q-1.25.4-1.25 1 0 .55 1.4 1.1 6.7 2.55 14.3 3.35 10.8 1.2 21.75-1.35l3.7 1.95q4.2 2.1 6.55 2.55-4.1 2.25-10.75 3.95-13.35 3.5-26.15.95Q33 122.3 23.7 113.35q-2.9-2.85-5.1-5.95l-1.6-2.55q-.05-.35.55-2.15l.55-1.75.45 2.7q.5 2.75 1 3.1.8.5 1.4 0l.2-6.45q3.2 7.4 3.6 7.35.4-.05.6-7.15l1.05 3.25q1.15 3.4 1.95 4 1.25.95 3.1 1.35 2.4.55 4.15-.35.35-.15.15-3.3 2.05 3.05 2.35 2.95.25-.05.6-3.25.9 2.2 1.15 2.2.25 0 .9-3.7.75-4.3 1-8.7l2.55 5.7q1.1-1.75 1.6-6.8"/><path fill="#c9c279" d="M72.7 115.25q-3.45-2.05-6.45-4.55l-2.3-2.1-.25-3.45q3.2 3.1 10.25 7 9.4 5.15 17.7 6.6l2.95 3.3q-11-.1-21.9-6.8m30.85-.45l.15 1.5q.1 1.6-.3 2.2-.6.95-1.7 1.2l-2.05-9.65q.25.9 1.25 2.35 1.45 2.1 2.65 2.4m-1.35 8.6l.35 2.8q-.35.6-2.3.95-2.2-1.55-6.8-6.7l-4.1-4.9q1.35 1.45 5.2 3.95 4.55 3 7.65 3.9"/><path fill="#d08690" d="M21.5 132.3l1.7.5 2.25.3-.55.7q-.55.9-.55 1.8-1.65.75-3.85-.3 1.1-1.2 1-3m19.45 5.35q-1 .2-1.45.65-.35.35-.6 1.25-2.65-.5-6 .55l-3.55.85q-1 0-1.9-.7 1.9-.3 2.45-1.3.4-.6.1-1.7l-.35-.95 4.75.3 4.1-.1 4.3-.5 3.55-1.05q2.95-1.3 5.9-.55l5.15.25Q54 136.9 52 136.9q-1.2-1.05-2.75-1.05-.95 0-2.25.8l-1.05.75-5 .25m1.45 5.85q1.25.95 2.8.55 3.45-.9 5.85-.9l4.45-.4q3.3-.5 4.35-1.25-1.65 1.5-2.85 1.8l-2.7.35-2.9.45q-2.75.9-3.1 2.4l-3.6.25-2 .5q-1 .05-1.9-.65 1.55-2.2 1.6-3.1m35.85.1l-3.05-.95q-1.95-.65-2.7-.4-2.7.9-6.4 4.6l-3.65 3.6-6.25 2.6-2.6.45-.9-.2q1.95-.4 2.55-2.35l.2-1.85 2.55-.25 2.3-.9 7.2-6q2.05-1.6 2.55-1.8l3.45.3q2.7.85 5.45 1.2l3.65-.2-.8 1.25q-1.25 1.2-3.55.9M43 128.1l.75-3.8 7 1.4q-.25 3.2.6 5.75-2-2-4.9-2.8L43 128.1m18.2 1.35v-3.6l8.1-1.1q-.9 3.1-.3 9.15-2-2.6-5.1-3.8l-2.7-.65"/><path fill="#c8c9ca" d="M21.5 132.8l.05.35-.2 1q-.5 1.15-3.25 1.65l-5.75 1.35q1.5-1.5 4.1-2.85 3.05-1.6 5.05-1.5m8.45 4.35l.2.5q.15.65-.05 1.1-.6 1.2-3.85 1.55-1.4.2-3.75 1.2-1 .5-2.05.95 1.45-2 3.65-3.4 2.75-1.8 5.85-1.9m12.1 7l-.15.65q-.25.8-.7 1.25-.85.95-4.05.95l-3.45.45-2 .4q.95-1.3 3.4-2.45 3.3-1.55 6.95-1.25m13.05 5.8l.25.65q.15.7-.4 1.25-1.2 1.2-3.95 1.5-1.35.2-3.75 1.45l-2.1 1.2q.75-2 2.5-3.55 2.85-2.5 7.45-2.5M86.2 144l-2.4-.8-1.7-.8.7-1.7q1.45.6 3.4 3.3"/><path fill="#d08690" d="M6.8 40.9l5.35 2q4.75 1.5 7.45.95-2.15 2.95-3.7 3.1-1.6.2-12.05-5.2l2.95-.85"/><path fill="#782310" d="M55.6 31.35l-11.45-.8-1.35-1.8 11.7.4 1.1 2.2"/><path fill="#dbdcdc" d="M40.2 30.55l-5.2.1.5-1.45-1.5.1.05-.3 6.7-.25-.55 1.8"/><path fill="#c9c279" d="M67.35 109.5l-1.95-3.4q5.35 3.5 5.85 3.3.45-.2-.65-3.15l6 1.35-3.15.4-1.15-.2q1.1 2.15.35 2.65-1.1.65-5.3-.95"/><path fill="#782310" d="M103.8 100.95q4.95 2.4 15.45 3.85l-15.35.2-.1-4.05"/><path fill="#0d131a" d="M42.85 43.85l-1.15 3.8q-2.15 6.05-3 9.35-1.55 6-.75 8.3 1.75 4.85 10.55 11.3l-.05.5-.45.3-4.9-3.8q-5.15-4.45-6.3-7.9-.95-2.75.8-9.05.7-2.65 3.1-9.25l1.1-3.4q-.5-.8-6-4.4-4.95-3.2-8.4-5.15-2.75-1.6-2.35-3.1l1-.4q-.15.9.05 1.25.35.55 1.8 1.4 14.8 8.6 14.95 10.25"/><path fill="#0d131a" d="M40.75 28.95l.3.25q-.6 2.7-2.2 5.6-1.6 2.8-2.5 2.95-.8.2-4.7-1.5-3.75-1.65-5.3-2.7-.1-.1-.05-.5l.25-.3q1.4 1 5.25 2.6 3.75 1.5 4.4 1.4.5-.2 1.9-2.75 1.5-2.75 2.25-5.05.1-.15.4 0"/><path fill="#0d131a" d="M59.7 26.85q-.1-.1.3-.3.45-.25.6-.15 1.8.95 3.5 2.45 1.05.95.9 1.4-.15.45-1.5.25Q49 28.65 38 29.3q-11.15.65-18.15 3.9l-.4-.25q-.2-.35 0-.45 7.4-3.4 18.7-4.15 11.95-.8 26.05 1.55l-2.05-1.5-2.45-1.55"/><path fill="#0d131a" d="M56.55 19.15q1.95.15.6 1.5l-2.8 2.2L52.6 24q-.25.15-1.15-.4L54 22l3-2.15q-5.95-.35-14.75 1.7Q28.9 24.7 19.35 32.3q-.2.15-.5-.2-.3-.4-.1-.55 9.8-7.8 23.05-10.85 8.6-2 14.75-1.55"/><path fill="#0d131a" d="M50.95 23.7q2.15-.7 6.1 0 3 .5 4.85 1.35.95.4 1.1.85.15.5-.95.8l-3.1.3-.8-.15q0-.15.8-.35l3.45-.55-5.35-1.3-5.95-.45-1-.05q-.05-.2.85-.45m-9-23.45l-.4 1.35L38 9.55q6.25-2.45 7.5-2.8 1.3-.35 1.4 0l-.4 1.05-2.7 4.6 1.75-.9.95-.2-.2 1q-.75 1.75-2.3 4.1 3.35.55 6.5 3.05l-.55.6q-2.25-1.6-4.75-2.35l-2.05-.45q-.85-.05-.35-.75l2.9-4.35-3.35 2.25q-.7.5-.8.25-.1-.25.2-.8L46.1 7.3l-8.9 3.6-.75-.1.15-.6 2-4.05 2.45-5.3q-5.35 2.1-11.15 7.2-9.6 8.5-15 21.6-.05.2-.4 0-.3-.2-.25-.4Q19.1 15.5 29.55 6.8 35.1 2.2 40.4.25q1.4-.55 1.55 0"/><path fill="#0d131a" d="M23.85 7.3q.95-.9 1 .3.1 1.3-.5 6.1l-.5.15q-.5 0-.5-.2l.8-5.65q-4.45 5.8-5.8 7.95-.5.8-.75.7-.25-.15.25-1l2.65-4.05q2.25-3.2 3.35-4.3"/><path fill="#0d131a" d="M17.9 10l.6-.55q.3 0 .45.85.25 1.4.05 4.55l-.75.25.1-2.75-.05-1.75q-.7 1.5-1.75 4.55-2.05 6.15-3.5 14.15l-.4.1-.4-.3q1-7.25 3-13.1 1.45-4.3 2.65-6"/><path fill="#0d131a" d="M12.55 28.7q.95-.05 3.65 1.2 2.3 1.05 3.1 1.65.7.5 1.4 4.75.7 4.45.15 6.2-.55 1.65-1.9 3.15-1.25 1.35-2.4 1.75-1.6.6-7.4-2.3l-5.5-3.05-2.75.5-.75-.15Q-.4 41.7.7 38q1.05-3.9 2.45-5.35 1.3-1.35 4.7-2.7 3.05-1.15 4.7-1.25m6.85 6.65l-.7-3.05-3.05-1.5q-2.55-1.15-3-1.1-1.4.05-4.35 1.25-3.2 1.35-4.35 2.6Q2.25 35.3.8 41.8l1.3-.25 2-.6 4.7-.9 3.3-.1 1.9.2q1.35.45 3.75 1.65.6.4.5.6l-.75-.05q-2.9-1.05-3.55-1.2-1.85-.55-5.05-.1l-4.1.75 6.65 3.25q4.05 1.75 4.75 1.5L18.05 45q1.15-1.3 1.65-2.8l.2-2q0-2-.5-4.85m34.8-5.8l.35-.4.55-.05.9 2.35.6 2.45 1.4 8.35 1 5.05q.95 4.35 1.55 5.3.1.2-.55.35-.65.2-.75 0-1.15-1.85-2.6-10.6-.6-3-1.3-8.2-.5-3.3-1.15-4.6m-12.05-.65q-.1-.1.3-.2l.55.05q2.1 2.05 5.65 7.5 3.6 5.55 3.5 6.8-.1 1.55-5.7 7.3-5.3 5.5-8.15 7.4l-.2-.4q-.05-.45.05-.55 2.75-1.8 7.7-7.1Q50.9 44.35 51 43q.1-.95-3.3-6.45-3.5-5.7-5.55-7.65"/><path fill="#0d131a" d="M14.75 46.9l.6-.1q.6.1.6.3-.35 6.6-2.55 13.6l-3.25 8.4q-2 4.6-2.85 7-1.55 4.1-2.2 7.6Q3.9 90 3.9 96.1l.05 4.65 1.4-3.05q1.7-3.85 3.5-7l.3 1.6-4.55 8.8q-.95 1.45-1.35-.15-.6-2.15-.6-6.95-.05-5.65.85-10.6 1.2-6.1 4.85-14.55 1.95-3.85 3.3-7.6 2.65-7.1 3.1-14.35"/><path fill="#0d131a" d="M8.75 90.4q.05-1.2.35-1.05.25.15.35 1.15l.45 6.45q.4 5.55.55 5.95.35.4 2.5 1.4 2.3 1 3.4 1.05.65-3.85 1.45-5.15l.5-.45q.25.05.2.65l.25 2.35q.4 2.5 1.15 3.7l.3.1.4.05.1-1.95-.05-3.55q0-7.05.35-8.95.2-1.05.45-.95.3.05.25 1.15l-.1 8.75q0 5.6-.2 5.85-.3.5-1.2.4-.85-.1-1.2-.65-.8-1.35-1.2-3.6l-.55 2.8-.4.4q-1.25.2-3.85-.85-2.65-1.05-3.35-2-.4-.55-.75-6.2-.3-5.35-.15-6.85"/><path fill="#0d131a" d="M24.95 96q.05-1.2.35-1.25.35-.1.45 1.15l.05 4.8-.3 6q-.2 1.35-.65 1.45-.45.15-1.15-1-.85-1.4-2-4.35l-1-2.7.35-.5q.4-.3.45-.1l1.45 3.9 1.7 3.85q.3-2.15.3-11.25"/><path fill="#0d131a" d="M34.65 98.1q-.1-1 .15-1.1.3-.1.5.85l.85 5.7q.55 4.85-.2 5.6-.85.85-3.7.6-3-.3-4.35-1.65-1.3-1.3-2.2-4.7l-.7-3.2q-.05-.2.4-.4.4-.2.45 0 .25 1.7.85 3.8.9 2.8 1.9 3.8 1.1 1.1 3.7 1.35l2.95-.25q.35-.6 0-5.05l-.6-5.35"/><path fill="#0d131a" d="M41.35 94.3q.05-1.4.35-1.35.35.05.45 1.4.2 2.45-.45 7-.6 4.1-1.15 5.65-.5 1.7-1.3.3l-.25-.5-.25 1.3-.45 1-.9-.65-1.8-2.55q-.1-.2.15-.75.25-.6.35-.4l1.85 3.25.35-3q.15-.9.4-.75l.4.6.8 1.9q.35-1.25.9-6.2l.55-6.25"/><path fill="#0d131a" d="M45.95 87.25q.05-.9.35-.9t.35.9q.35 7.65-1.4 12.85-.85 2.45-1.9-.1l-1.95-4.7q-.1-.2.2-.75.3-.55.4-.35l1.2 2.65 1.15 3.3q1.35-4.05 1.6-12.9M48.1 70.3q.15-1.1.55-1.05.4 0 .4 1.1v.05l-.25 6.15q0 8.2 2.7 17.4 1.8 6.15 6.25 12.05 3.65 4.85 5.7 5.7l-.4-7.15.45-.05q.45.1.45.3l.35 6.3q0 1.25-.2 1.45-.3.3-1.7-.55-2.85-1.75-6.3-6.1-4.4-5.55-6.1-11.4-2.1-7.15-2.45-13.4-.25-4.9.55-10.8m43.95 12.5q-.25-.95 0-.95.3-.05.7.8 1.1 2.05 1.4 4.7.15 1.25-.3 1.4l-.9-.25.15 1.4q0 1.15-.4 1.25l-1.25-.45-3-1.3q-.2-.1-.15-.7.05-.55.2-.45l3.8 1.95-.35-1.95q-.25-.95.05-1.15l.6.1.6.35-1.15-4.75"/><path fill="#0d131a" d="M88.05 88.5q0-.85.3-.85.35-.05.4.9.25 1.95-.05 4.2t-.8 2.6l-1.25-.15.25.9q.2 1.15-.15 1.35-.35.15-1.3-.45-1.5-1-4.65-3.8l.2 1.65q0 1-.3 1.05-.25.1-1.35-.65l-4.2-3.4q1 1.8 2.45 5.8l1.65 4.85q.3 1.05.05 1.25l-1-.1.45 1.65q.15.65-.15.9l-1.5.2.05 1.15q-.25.3-1.05.3l-5-1.05.5 1.55q.3 1.15.05 1.4l-1.35-.25-4.1-2.4q-2.6-1.75-3.45-2.8-.5-.6-.35-.8.15-.2.7.3l3.8 2.6 4 2.45-1.05-2.55q-.5-1.05.55-.65l6.05 1.45-.45-.85q-.6-.9.5-.75l1.5.25-.85-2.3q-.4-.85-.1-1.1l.6.1 1.05.6L76.3 97l-2.8-6.65q-.35-.8-.05-.95.25-.1.8.4 2.3 1.85 5.9 5l-.5-2.3q-.55-2.15 1.05-.65l5.35 4.6-.45-1.5q-.5-1.25.05-1.25.3 0 .7.3l1.15.6.4-2.7.15-3.4M84.1 62.35q7.95 5.1 12.75 10.6 1.2 1.35 1.05 1.75l-2 .05-1.1-.25 3.95 4.8q.7 1.05.55 1.4l-1.25.15-3.35-1.3 1.25 3.3q.45 1.5.1 1.75l-1.45-.25-2.05-.85q-.2-.1-.25-.7-.05-.6.1-.5l3 1.45-1.8-4.3q-.45-1.05-.2-1.25.2-.25 1.05.2l3.8 1.6-4.7-5.5q-1.65-1.75.55-1.2l2.45.75Q92.1 69.3 83.9 64q-12.6-8.05-25.85-11.1-1.2-.25-1.1-.6l1.3-.1Q71.9 54.45 84.1 62.35M50.85 125q9.9 1.1 20.9-1.6 7.45-1.85 10.85-3.8.2-.1.6.3.45.45.3.55-2.55 2.2-11.35 4.45-11.2 2.9-21.45 1.7-13.5-1.55-24.35-10.2-7.4-5.9-9.75-10.85-.05-.2.3-.7.35-.5.4-.3 2.55 5.05 9.75 10.7 10.5 8.25 23.8 9.75"/><path fill="#0d131a" d="M63.55 108.95q-.1-.1.1-.6.25-.5.35-.35 3.15 3.5 10.2 7.4 10.25 5.65 20.5 6.15l.3.5-.1.5q-11.45 0-21.55-5.85-5.95-3.45-9.8-7.75m32.4-29q-.1-.15.4-.25l.7.05q3.4 4.1 5.4 10.8 2.9 9.8 1.35 21.55-.05.25-.45 0t-.35-.5q1.65-18.1-7.05-31.65"/><path fill="#0d131a" d="M95.55 98.35q-.35-.8-.1-.85.3-.05.7.75 4.45 9.25 6.8 27.85-.15.65-1.2 1.1l-1.5.4q-.9 0-6-5.35-5.2-5.4-7-8.35-.55-.9-.35-1.1.15-.15.8.65l7 7.6q4.95 5.25 5.75 5.75l.9-.35.6-.55q0-1.65-1.9-10.75-2.25-10.85-4.5-16.8"/><path fill="#0d131a" d="M98.75 91.75q-.35-1.05-.1-1.05.25 0 .7 1 1.8 3.95 3.5 13.05 1.75 9.6 1.1 13.9-.1.6-.9 1.1l-1.15.5q-.2.05-.3-.3-.15-.35.05-.4l.8-.45.55-.6q.55-3.9-1.3-13.95-1.5-8.25-2.95-12.8m3.05-.15q4.15-4.65 12.55-10.45 8-5.5 9.65-5.25.85.1 4.6 2.5 3.6 2.25 6.65 4.5 7.6 5.7 9.45 8.45l.35.95-.85.75-3.15 1.3-2.45.7q-.2 0-.2-.45.05-.45.25-.45l2.65-.8 2.85-1.2q-.8-1.45-9.75-8.25t-10.5-7.05q-1.2.05-9.45 5.95-8.45 6-12 9.5-.15.15-.45-.2-.35-.35-.2-.5"/><path fill="#0d131a" d="M100.15 87.05q2.55-1.1 5.35-1.95 3.45-1.1 5.3-1.1.25 0 .1.7l-.4.65-5 1q-3.15.8-4.95 1.6-.2.1-.4-.35-.2-.45 0-.55m3.35 11.8q4.4-1.8 15.85-5.7 13.1-4.5 14-4.1 1.75.75 6.55 6.35 5 5.75 4.65 7.15-.35 1.55-17 2.55-10.4.65-23.55.25l-.2-.45q.05-.5.25-.5 8 .25 22.8-.5 15.05-.8 16.75-1.7-.35-1.2-5-6.25-4.55-4.95-5.65-5.55-1.3.05-13.25 3.9-11.75 3.8-15.85 5.45-.2.1-.35-.35-.2-.45 0-.55m-62.75 30.3l1.9-.8.25.25-.05.5-1.9 1-2.3.85q-.85.1-5.85-1.75l-2.65-.25q-4.35.45-8.6-.05l-2.95-.05q-.75.2-1.4 1.25-.55.8-.6 1.25-.05.2-.25 0l-.2-.35q.05-.75.5-1.6.65-1.2 1.65-1.5 1.2-.3 3.4.05 4.1.6 8.25-.1l1.5-.15q.65.05 1.65.4 4.5 1.7 5.55 1.7l2.1-.65m9.9.4q.15-.35.3-.2.75.75 4.05 1.25l2.65.65q1.4.75 1.55 2.5l-.3.2q-.35 0-.4-.2-.1-1.15-1.4-1.7l-2.2-.5q-3.3-.6-4.25-1.55-.15-.15 0-.45m-5.2 7.5q1.3-1.1 3.1-1.45 2.05-.35 3.25.75l-.05.4-.4.1q-.85-.8-2.55-.35-1.2.3-2.35 1l-.65-.1q-.5-.2-.35-.35"/><path fill="#0d131a" d="M60.15 132.55q.2-.1.3.25l-.05.5q-3 2.25-6.05 3.4-3.95 1.45-9.2 1.35l-4.7.15q-.6.15-.95.75l-.35.9-.35.15q-.25-.05-.3-.25-.1-.7.25-1.4.45-.8 1.4-1.1l4.75-.25 4.8-.3 4.35-.95 3.55-1.7 2.55-1.5m12.3 1.35q2.3 1.15 3.35 1.35l2.6.35q2.7.25 3.25.7 1.65 1.5 1.55 3.6l-.3 2.15q-.3.75-1 1.25-.8.5-2.45.6l-3.1-.3q-3.7-1.1-4.15-.85-1.1.6-3.1 2.15-2.7 2.15-4.9 4.45l-1.15 1.15-1.1.65-5.6 2.35-2.4.55q-1 0-2.1-.6-.2-.05 0-.35t.4-.2l1.95.25 1.7-.5q.7-.4 2.7-1.3l2.95-1.3 1.85-1.6q2.5-2.65 5.3-4.7l3.05-1.85q.9-.4 4.85.8l2.8.35 1.9-.4q1-.75 1.1-2.8.05-.9-.4-1.8l-.75-1.05-2.95-.45-2.7-.35q-1.2-.3-3.4-1.2-2.3-1-3.25-1.7-.2-.15-.05-.75.15-.55.3-.45.95.7 3.25 1.8M47.6 148.15q-.15-3.2 2.65-4.15 1.9-.65 4.85-.85l1.95-.25q.8-.2 2.45-1.35l2.05-1.65q.5-.55.6-.35.15.15-.3.8l-2 1.95q-1.6 1.25-2.6 1.5l-2.05.3q-2.85.2-4.65.8-1.9.65-2.2 2.85l-.75.4"/><path fill="#0d131a" d="M42.05 146.65l1.15-.05q3.4-.85 4.95-.55l.15.45q0 .4-.2.35-1.05-.2-4.7.7l-1.65-.1-1.1-.7.55-.5.85.4m-15.2-6.15l.15-.35q.15-.3.3-.2 1.9 1 3.3.45l3.6-1 4.45-.3.15.4-.25.35q-2.75-.35-7.6 1.45-2 .8-4.1-.8m5.5-9.05l5.2.25.8.1-.55.35-5.6.25-2.45-.2-2.05.15q-1.35.25-2.3 1.45-.8 1-1 2.15-.05.2-.35.1l-.3-.35q.25-1.55 1.15-2.65 1.05-1.35 2.65-1.65 1.65-.3 4.8.05m10.9-7.2q0-.2.5-.25l.45.15q.1 1.15-.35 2.8-.55 2.15-1.7 3.2-.55.55-.85.3-.25-.25.3-.8.8-.85 1.3-2.75l.35-2.65m6.95 1.35q.05-.2.5-.15.5.05.45.25-.2 4.25.7 5.7.35.55.15.7-.2.1-.6-.35-1.05-1.15-1.25-3.25l.05-2.9m10.5.05q0-.2.5-.25.45-.05.45.15.2 2.2-.25 4.9-.65 3.85-2.45 5.25-.55.45-.7.25-.15-.25.35-.75 1.25-1.25 1.8-4.75.45-2.75.3-4.8m8-1.4q.05-.2.5-.1.5.1.45.3-.3 1.3-.4 4.6-.1 4.15.5 6.05.25.65 0 .75l-.5-.6q-.95-2.25-.9-6.45.05-2.85.35-4.55m13.75 14.15l-.35-.8q-.2-.75-.05-.7l2 1.6 1.65 1.6q.4.5.9 2.7v1.35l-1.35.15q-2.85-.75-3.35-1.4-.1-.1.15-.45l.45-.2 1.8.85 1.7.55-.4-1.4-.7-1.6-1.05-1.1-1.4-1.15M13 134.15q.85-1.5 1.5-2.15 2.35-2.35 4.05-2.4 1.9-.05 3 1.95.8 1.5.3 2.75-.3 1.05-1.55 1.5l-2.95.7-4.9 1.2-.7.05.05-.55q.3-1.35 1.2-3.05m2.2-1.45l-1.25 1.65q-.9 1.35-1.25 2.45l4.5-1.25 2.75-.65q.8-.3 1-1.1.25-.85-.25-1.8-.85-1.6-2.2-1.45-1.4.15-3.3 2.15"/><path fill="#0d131a" d="M27.45 134.05q1.55.1 2.7 2 .65 1.15.55 2.25-.1 1.3-1.1 1.8l-2.55.55q-3.2.45-6.3 2.15-.75.4-.75-.5.2-1.4.75-2.85.65-1.8 1.6-2.7 1.5-1.4 2.45-1.95 1.35-.8 2.65-.75m1.05 1.5q-.6-.5-1.1-.55-1.05-.05-2.2.65l-2.2 1.8q-.65.65-1.3 2.1l-.9 2.45q1.85-1.1 3.45-1.65l2.95-.65 1.95-.5q.7-.35.6-1.2l-.45-1.45-.8-1"/><path fill="#0d131a" d="M20.05 135.5q-.15-.1.05-.4.15-.25.35-.15l1.35.55 1.9.05q.2-.05.3.45l-.1.5-2.2-.2q-1-.3-1.65-.8m21.4 4.65q.8.7 1.1 1.85.35 1.25-.15 3-.7 2.5-5.05 2.5l-4.85.6-1.35-.15q-.1-.25.25-1.15.35-.9 1.2-2.25l.8-1.25q.75-1.05 2.5-2.3 2.05-1.55 3.3-1.6 1.3-.1 2.25.75m.15 4.5q.45-1.35.15-2.4-.65-2.1-2.45-2-1 .05-2.85 1.5l-2.3 2.15q-1.45 2-2.2 3.65l2.1-.6 3.3-.4q3.6 0 4.25-1.9m9.65 1.25q1.7-.1 2.9.8 1.4 1 1.6 2.95.3 3.15-3 3.95l-2.55.4q-.35.05-1.9.85l-2.1 1.1-1.15.5q-.35-.1-.3-1.65 0-1.45.4-3.05.5-1.85 1.25-2.85.5-.65 1.95-1.7 1.8-1.25 2.9-1.3m2.3 1.65q-1.1-.8-2.25-.7-.95.05-2.5 1.1l-1.6 1.35q-.45.6-1 2.15-.8 2.2-.8 4.1 2.7-1.95 4.65-2.5l2.7-.45q2.35-.25 2.05-3.2-.05-1.1-1.25-1.85m22.95-11.5q-.1-.1.15-.25l.4-.05q.85.85 1.1 2.2l-.05.7-.5-.6-.45-1-.65-1m1 5.5q.35-.6.5-.5.15.05-.1.7-.5 1.4-1.45 1.6-.15.05-.2-.3-.1-.35.05-.4l.7-.4.5-.7"/></svg>