<svg xmlns="http://www.w3.org/2000/svg" width="319" height="374" viewBox="-0.3 -2.1 318.95 373.95"><path fill="#e85377" d="M181.6 286.85l16.2 65.05-2.05 13.3-10.4-6.65-4.55 9q-3.15-4.45-6.25-12.1-6.15-15.3-5.75-31.4l1.5-33.65 11.3-3.55"/><path fill="#c94768" d="M170.3 290.4l11.3-3.55 13.25 56.35q-5.55-1.35-13.5-7l-12.55-9.35 1.5-36.45"/><path fill="#e85377" d="M236.7 266.85q25.6 8.5 44.65 32.65l-9.8 1.2-5.15.9 5 9.95-8.3.45-57.75-41.45-5.15-7.6q18.9-2 36.5 3.9"/><path fill="#c94768" d="M222.7 263.85q6.3 3.8 12.95 15 5.9 10.05 7.85 18.1l-38.15-26.4-4.6-7.45q8.45-1.7 21.95.75"/><path fill="#f6aa00" d="M235.85 283.5q25.4 18.5 37.6 48l-8.7-1.9-3.75-1 2.1 12.5-14.45-3.95-58.55-65.9 13.1-3.35q5.6.95 13.45 4.45 9.9 4.4 19.2 11.15"/><path fill="#d49300" d="M203.2 267.9q4.45.8 10.5 3.2 7.5 3 14.9 7.55 6.55 11.2 9.45 24.65 3.1 14.5 0 23.45l-47.95-55.5 13.1-3.35"/><path fill="#f6aa00" d="M187 282.45q4.3 3.65 10.65 12.75 6.85 9.85 12.75 21.4 15.15 29.8 14 50.65l-9.95-6.65-2.5 9.15q-5.5-2.3-12.1-13.4-13.2-22.25-18.65-66.4l5.8-7.5"/><path fill="#d49300" d="M181.2 289.95l5.8-7.5q6.4 5.4 15.6 20.3 10.4 16.85 16.3 33.6-13.6.95-29.4-4.7-5.35-17.9-8.3-41.7"/><path fill="#f0e78e" d="M20.2 50.2q1.95-4.15 6.1-1.9 1.75.95 6.15 6.6l9.9 13q16.05 20.3 32.2 31.45l52.9 54.7-24.5 45.75q-3.55-.15-6.35-1.65-2.95-1.55-2.9-3.65-3.85-.7-9.05-3.1-5.5-2.6-7.25-4.8-2.35-2.95 1.65-3.75l4.5-.2q-5.6-1.2-11.95-3.55-12.65-4.6-16.2-10.15-2.5-3.85.2-5.65 2.2-1.45 5.35-.85-4.5-2-9.95-5.15-10.85-6.25-15.4-11.75-4.3-5.2-4.25-9.55 0-3.9 2.6-3.6 3.3.45 7.4 2.25 2.05.95 3.45 1.75-4.55-3.8-10.05-10.3-11.05-13-15.95-26.3-2.5-6.9-.7-10.7 1.85-3.8 6.45-1.15 3.85 2.2 7.6 5.5l2.1 1.95q-2.75-3-5.8-8.05-7.05-11.75-9.1-25.85-1.05-7.4.85-11.3"/><path fill="#f0e78e" d="M24.25 48.6q-.3-.45-.25-.85.15-.75 2.15-.3.95.2 5.45 6L42.3 67.2Q59.9 88.95 75 98.8q-4.25 2.5-7.15 3.7-12.4-8.15-28.25-31.1-13.8-21.6-15.35-22.8"/><path fill="#e85377" d="M194.9 273.75q7.75 4.7 17.4 14 10.25 9.8 19.05 21.5 21.7 28.6 23.4 51.35-3.1 0-9.35-2.7l-5.6-2.7-.4 12.95-14.15-9.6q-1-5.95-3.6-14.75-5.15-17.55-13.05-31.7-7.85-14.15-16.25-24.3l-6.85-7.35 9.4-6.7"/><path fill="#c94768" d="M193.5 289.35l-8-8.9 9.4-6.7q8.5 5.15 19.1 15.65 11.35 11.15 20.55 24.15-.9 9.6-3.55 16.85-3.45 9.4-9.4 13.4-.9-3.3-2.95-8.95-4.15-11.25-10.05-22.75-5.9-11.55-15.1-22.75"/><path fill="#f0e78e" d="M177 280.1l20.8-25.05q.8 0 6.1 1.9l5.15 1.85-8.35 4.55 5.35 9.25-10.75-.95.55 11.15-7.6-2-2.8 10.85-6.65-3.1-1.8-8.45"/><path fill="#965e3a" d="M196.8 246.85l-7.1 1.6q-4.15.6-6.3-1.25-5-4.3-2.35-19.95l6.15-25.7 14.6 8.8.4 10.8q0 13.1-2.2 24.65l-3.2 1.05"/><path fill="#f0e78e" d="M139.45 172.8l47.75 28.75-3.15 11.85q-2.05 7.75-2.95 12.75-2.7 14.8 1.6 20.7 1.65 2.3 6.35 1.7 2.65-.35 7.75-1.7l3.2-1.05q-2.2 11.4-6.35 20.15-7.1 14.85-24 16.95-5.3.65-10.9-.05l-4.6-.8-9.85-1.45q-6.8-1.4-14.4-4.8-10.25 8.55-20.85 9.85-7.6.95-17.25-1.95-.65 5.9-1.6 6.15-1 .25-4.85-5.95-4.2-6.7-4.75-11.4 2.2-12.3 8.25-20.45 6.2-8.3 13.75-8.65-5.6-19.35-.3-41.2 3.65-14.95 9.05-22.75l28.1-6.65"/><path fill="#c9c279" d="M109.75 285.6q-7.85 1.15-17.95-1.9-.5 5.2-1.45 5.85-.75.45-3-2.75-2.15-3.05-4.45-7.65 24.25-2.55 30.8-20.65 1.25.4 5 3 3.4 2.35 4.35 2.35 6.85 2.25 14.75 2.4 9.05.1 13.4-3 17.4-13.35 14.9-38.05-2.2-21.95-19.25-47.95l40.35 24.3-3.15 11.85q-2.05 7.75-2.95 12.75-2.7 14.8 1.6 20.7 1.65 2.3 6.35 1.7 2.65-.35 7.75-1.7l3.2-1.05q-2.2 11.4-6.35 20.15-7.1 14.85-24 16.95-5.3.65-10.9-.05l-4.6-.8-9.85-1.45q-6.8-1.4-14.4-4.8-10.05 8.35-20.15 9.8"/><path fill="#f0e78e" d="M152.35 238.45q5.7-5.55 8.05 4.15 2.15 8.95-2.45 23.85-2.3 7.45-5.05 13.1-12.1-10.95-7.9-27.4 2.3-8.85 7.35-13.7M286.2 15.3q5.8-5.85 9.65-8.8 11.25-8.6 14.6.5 4.6 12.55-9.25 32.1-4.45 6.3-10.85 13.3L283.2 60q4.55-2.15 12.35-7 8.5-5.3 11.05-6.6 5.35-2.8 7.5-1.95 2.6.95 1.6 7.05-1.6 9.9-13.25 23.3-9.1 10.4-18.95 17.65 5.4-2.3 16.05-7.55 8.3-4.1 11.4-5 4.5-1.35 5.45 1 1.1 2.55-1.55 10.4-4.5 13.2-21.1 24.9l-9.8 6.05q-2.85 1.55-1.9 1.25 5.2-1.7 13.95-2.75 10.05-1.15 10.2 1 .25 2.6-4.9 10.05-5.45 7.85-10.2 10.75-4.2 2.55-17.45 6.95l-12.4 3.85 7-.3q7.85-.3 12.05-.25 5.7 0 7.45 2.4 1.4 1.9.15 5.2-1.25 3.35-5.1 7.15-4.6 4.5-10.4 6.9-5.3 2.2-21.2 1.45l-14.85-1.15 7.3 3.2q8 3.7 11.45 6.45 3.5 2.8 1.1 5.85l-4.6 4.1q-1.8 1.8-6.45 1.95-5.35.2-10.85-2.25 6.65 4.55 3.75 8.2-1.9 2.45-7.55 4.1-3.1.95-7.55-1.05l-3.85-2.15 1.8 2.15q1.8 2.4 2 3.7.2 1.4-4.4 3.4-4.25 1.85-6.15 1.85-1.3 0-4.85-3.05l-3.35-3.1 1.75 2.7q1.7 3 1.5 4.65-.2 1.75-4.9 2.5-4.15.65-7.1.1-2.05-.35-4.6-4.6l-2.15-4.15 1.7 4.15q1.55 4.45.65 6.1-1.05 1.85-5.3 2.05-4.15.2-5.55-1.2-1.8-1.8-7.6-14.05-4.8.3-7.5-12.4-2.1-9.7-1.85-16.85 1.15-16.05 9.7-26.8 3.4-4.3 9.9-10.35l13.15-12.05q10-9.4 15.75-26.5 1.9-5.7 4.2-14.95l3.7-14.6q1.8-6.4 7.6-11.75 4.15-3.9 13.5-9.5l17.4-10.8q10.8-7.3 19.25-15.55l8.85-8.95"/><path fill="#f19963" d="M152.9 238q-.25-8.15 2.35-11 1.05-1.1 5.15-2.3 2.1-.6 5.45 1.75 3.2 2.25 4.5 4.9 1 1.9-.7 8.3-2.35 9-2.6 10.8-.65 4.9.7 14.15 1.35 9.15 2.6 9.15 1.05 0 4.35-7.95 4.2-10.55 6.5-15.75 3.75-9.05 5.1-11.95 2.05-4.5 4.45-6.35 2.55-2 6.8.4 3.8 2.1 5.25 5 1.15 2.3-1.2 6.4-1.95 3.4-5.85 7.35-2.8 2.75-7.75 12.4l-6.8 13.35q-1.8 3.15-2.35 8.45-.5 4.8-1.4 5.7-1.55 1.5-2.7 4.85-1.15 3.25-1.45 6.8-.15 1.75 1.45 7.1 1.35 4.6.2 7.4-2.35 5.6-9.55 4.6-2.3-.3-3.85-4.75-1.65-4.6-.75-9.4.8-4.25.35-8.6l-1.15-8q-7.8-12.2-6.8-17.55.35-1.65 1.5-2.4l1.1-.45-.05-2.75q-.3-3.6-1.6-8.05-1.2-4.2-1.2-8.75L152.9 238"/><path fill="#c9c279" d="M286.2 15.3q5.8-5.85 9.65-8.8 11.25-8.6 14.6.5-1.45-1.25-3-.35-1.5.85-5.85 5.35-8.4 8.65-24.4 32.65-9.55 1-22 13.7-11.8 12.05-17.35 25.1-11.95 28-29.1 53.25l-13.25 18.55q-7.65 10.55-11.2 16.1Q176 184.3 168.8 182q-2.3-.7-4.15-2.9l-1.45-2q1.15-16.05 9.7-26.8 3.4-4.3 9.9-10.35l13.15-12.05q10-9.4 15.75-26.5 1.9-5.7 4.2-14.95l3.7-14.6q1.8-6.4 7.6-11.75 4.15-3.9 13.5-9.5l17.4-10.8q10.8-7.3 19.25-15.55l8.85-8.95"/><path fill="#d18456" d="M158.4 250.55q-2.25-19.2 1.85-17.25 4.15 2 7.1.9 2.1-.85 3-2.85 1 1.9-.7 8.3-2.35 9-2.6 10.8-.65 4.9.7 14.15 1.35 9.15 2.6 9.15 1 0 4.35-8 3.1.9 10.5-12.35l5.1-8.9q2.5-3.9 3.55-3.3 2.75 1.55 5.15.8 2.75-.9 3.8-4.85 1.15 2.3-1.2 6.4-1.95 3.4-5.85 7.35-2.8 2.75-7.75 12.4l-6.8 13.35q-1.8 3.15-2.35 8.45-.5 4.8-1.4 5.7-1.55 1.5-2.7 4.85-1.15 3.25-1.45 6.8-.15 1.75 1.45 7.1 1.35 4.6.2 7.4-1.2 2.85-3.7 4.05-6.7-6.2-8.25-15.05-.95-3.85.1-10.75 1.2-7.6.8-10.75-4.25-23.45-5.5-33.9"/><path fill="#f0e78e" d="M284.9 15.35q11.7-11.9 16.75-13.55 5.3-1.8 6.85.2.8 1 .5 2.35-2.45-.55-7.25 2.8-6.05 4.3-13.55 13.6-5.8 7.2-15.95 16.65-9.35 8.7-19.5 16.7l-4.85-1.25q-1.35.9-3.2 1.35l-2.75.3 2.7-3.15q-1.45-.45-3.35-1.45l14.65-9.1q8-5.1 11.7-8.2l17.25-17.25"/><path fill="#eeeeef" d="M163.35 230.45q-4.25-1.95-3.35-4.1 1.9-4.65 5.4-8.65 3.45-3.9 4.1-2.35.5 1.35-.15 7.2-.55 4.75-1.05 6.7-.75 3.15-4.95 1.2m40.8 2.35l-3.45 6q-1.95 2.6-5.1-.9-3.2-3.55-1.4-5.05 2.35-2.05 7.2-4.9 5.6-3.4 5.55-1.95-.05 1.5-2.8 6.8m-38.7 85q-.75-2.2 3.8-3.55 4.55-1.4 4.85 1.85l1.15 6 .9 4.85q-3.4-.15-6.95-3.7-2.9-2.9-3.75-5.45"/><path fill="#c8c9ca" d="M165.5 231.1q-2-.2-3.95-1.75 2.6-9.05 7.95-13.85.5 1.45-.2 7.2l-1 6.55q-.5 2.05-2.8 1.85m38.65 1.7l-3.45 6q-.8 1.05-1.95.95-1-.05-2.1-.9 3.45-8.05 10.3-12.9v.05q-.05 1.5-2.8 6.8m-36.75 82.25q2.1-1.25 4.15-1.15 2.35.15 2.55 2.2l1.15 6 .9 4.85-1.75-.3q-5.7-4.4-7-11.6"/><path fill="#eeeeef" d="M74.6 314.3l8.45-2.65q3.6 6.8-1.95 13.7-.95-2.4-3.8-6.95l-2.7-4.1"/><path fill="#c8c9ca" d="M79.15 312.85q1.9 2.2 2.6 5.05.5 2.2.45 5.5l-.8.8-.8.55q-1.3-3.1-3.8-7.1l-2.2-3.35 4.55-1.45"/><path fill="#f19963" d="M86.65 284.7q-.65.85-6.2 4.25-4.5 2.7-5.35 6.35.85 2.7 4.5 6.45l3.9 4.1q1 1.95.65 4-.6 3.1-4.5 4.2-4.3 1.2-6.15.5-1.55-.65-3.45-3.85-4.1-7-6.95-10-7.2-7.45-18.75-10.7-10.25-2.85-23.9-4.9-8.7-1.35-9.3-2.8-3.2-7.55 3.85-12 4.15-2.6 9.55-1.4 3.15.7 9.2 3.1 6 1.9 15.85 7.65l-7.5-8.75q-8.1-9.15-11.25-11.45-4.05-2.9-4.5-3.55-.75-1-.75-4.35 0-4.2 3-6.8 2.85-2.5 6.6-2.1 6.2.6 9.85 4.6 2.35 2.65 5.3 9.35 3.05 7.05 7.25 13.65 5.55 8.6 10.55 11.8 2.95.15 8.15-4.85 5.05-4.85 5.3-4.75 3.3 1.35 5.15 5.55 1.85 4.25-.1 6.7"/><path fill="#d18456" d="M26.35 255.9q-.75-1-.75-4.35 0-1.25.3-2.4 1.5.65 8.2.95 5.25.25 6.65 2.6 2.9 4.05 11.2 17.8 8.35 13.85 12.6 19.85 5.2 7.35 10.6 12.85 3.3 3.35 5.3 4.75 1.5 1.15 1.2 3.4-.35 2.25-2 2.7-4.3 1.2-6.15.5-1.55-.65-3.45-3.85-4.1-7-6.95-10-7.2-7.45-18.75-10.7-10.25-2.85-23.9-4.9-8.7-1.35-9.3-2.8-.95-2.35.1-3.7.6-.8 2.6-2.25l3.3-2.6q8.9-1.05 20.75 4.35 6.1 2.8 11.75 6.4 1.05.5.6-2.1l-.65-2.75-7.5-8.75q-8.1-9.15-11.25-11.45-4.05-2.9-4.5-3.55m60.45 22.25q.8 1.85.8 3.55 0 1.8-.95 3-.75.95-6.2 3.85-4.45 2.35-5.3 5.95 1.05 3.3-.75 1.35-1.85-1.9-2.6-4.5 0-2.75 5.4-5.8 6.95-3.9 9.6-7.4"/><path fill="#eeeeef" d="M32.55 253.2l-16.35-2.8q.75-1.25 2.15-2.7 2.8-2.85 6.25-3.6 3.6-.8 6.15 3.4 2.1 3.45 1.8 5.7"/><path fill="#c8c9ca" d="M31.8 249.6q.9 2.55.75 3.6l-15.7-2.65q3.5-1.45 7.5-1.65l7.45.7"/><path fill="#eeeeef" d="M16.2 278.35l-6.45-.6L.8 277q2.8-4.85 8.05-6.3 4.6-1.35 7.1.55 1.95 1.45 1.65 4.3-.3 2.7-1.4 2.8"/><path fill="#c8c9ca" d="M17.6 275.05q-.05 1.25-.5 2.25t-.9 1.05l-6.4-.55-8.95-.75q3.55-2.7 8.25-3.25 4.65-.5 8.5 1.25"/><path fill="#bf794e" d="M180.45 142.85q-5.6 8.95-13.9 17.55-16.65 17.2-30.35 15.35 5.15-6.65 9.4-23.55 4.4-17.5 1.05-21.35-2.95-3.35-12.4-7l-8.85-3-1.15-6.7L147.2 106q6.9 1.2 16.2 9.2 12.85 11.15 17.05 27.65"/><path fill="#965e3a" d="M163.05 115.05q13.25 11.3 17.4 27.8-2.75 4.4-7.25 10-5.05-6.7-12.35-10.95-4.9-2.85-15.25-6.7-3.45-3.15-12.95-8.85l-8.8-5.1-.2-6.8 22.85-8.8q6.95 1.2 16.55 9.4"/><path fill="#152139" d="M123.55 136.05l-6.25 4.9-.05-22.15 2.1-2.6 4.9-2.05 1.15 6.7 12.1 3.85q9.65 3.9 10.3 8.7.85 5.85-1.75 17.2t-6.4 18.1q2.15-4 2-14.25-.1-10.3-2.5-17.55-4.5-4.25-13.4-8.2-.1 4.9-2.2 7.35"/><path fill="#f0e78e" d="M139.45 137.25q1.3 3.2 2 12.4.8 11-1.1 17.2l-4.5 8.2-25.05 4.15 1.4-6.25-12.9-26.45 5.35-8.05 4.6 3.9q2.35 1.7 4.15.75 2.85-1.4 6.5-4.05 4.35-3.2 4.95-5 .55-1.65.75-3.75l.1-1.8 6.45 3.3q6.6 3.65 7.3 5.45"/><path fill="#c9c279" d="M125.7 128.5l4.4 2.2q4.9 2.55 7.3 4.4l-16.3 3q3.2-2.5 3.75-4.05.55-1.65.75-3.75l.1-1.8m-21.05 9.95l4.1 3.5q-5.15 2.15-9.2 5.05l-.25-.5 5.35-8.05"/><path fill="#fff" d="M110.95 143.55q-2.15-.2-5.1-2l-2.5-1.7q2.55-4.7 5.65-9.7 6.2-10 9-11.5 1.55 4.55 1.65 10.85.05 6.85-1.85 11-4.6 3.25-6.85 3.05"/><path fill="#dbdcdc" d="M119.5 131.9q-4.3-.75-7.45.9-3.3 1.75-7.9 7.35l-.65-.25q2.5-4.7 5.55-9.7 6.15-10.05 8.95-11.55l1.25 6.6q.5 3.5.25 6.65"/><path fill="#d18456" d="M104.35 168.1l-1.75 6.35q-1.3-1.45-2.4-6.3l-.85-4.55 5 4.5"/><path fill="#ed8599" d="M104.75 158.75l-.85 11.35q-1.85-1.2-3.1-3.95-1.1-2.55-.85-4l2.55-2.3 2.25-1.1"/><path fill="#f19963" d="M115.15 154.55q.95 3.45.85 6.4-.15 3.1-1.4 5-6.15 9.05-12.3 9.65 1.45-2.2 2.1-8.55l.5-8.1 10.25-4.4"/><path fill="#d18456" d="M115.15 154.55q.95 3.45.85 6.4-.15 3.1-1.4 5l-1.7 2.35q-.9-4.55-1.5-6-1.25-3.2-3.75-4.55l7.5-3.2"/><path fill="#e85377" d="M92.85 86.8l15.45-4.3-9.9 61.65-2.25 1.65-2.05 2.6-15.3-4.35q-10.2-3.3-11.35-5.05-1.05-1.6-.5-16.6l.8-17.9q0-2.2 6.65-4.85 8.05-3.2 10.9-6.6l7.55-6.25"/><path fill="#c94768" d="M85.3 93.05l7.4-6.4 15.6-4.15-9.9 61.2-3 2.5q-2.4-2.2-5.9-3.3l-5.95-1.3q-7.1-1.45-9.35-7.1-1.7-5.1.45-18.55Q76.6 104 79.15 97.6q4.1-2.05 6.15-4.55"/><path fill="#e85377" d="M145.3 76.65L97 144.15q-4.85-3.05-8.35-8.85-6.95-11.6-.15-25.25 18.65-37.25 28.7-39.25 4.8-.95 15.4 1.75 8.35 2.1 12.7 4.1"/><path fill="#c94768" d="M127.55 71.4q4.9.95 10.7 2.75l7.05 2.5-48.3 67.5q-4.85-3.05-8.35-8.85-6.95-11.6-.15-25.25l4.1-7.9q4.1-3.2 16.95-16.3 10.15-10.35 18-14.45"/><path fill="#e85377" d="M190.7 92.2l-43.45 14.05-12.7 3.55q-13.1 4.05-15.25 6.35-3.45 3.7-18.05 27.3l-3.55.7-5.1-6.9-.65-9.35q-.35-5.8 2.15-9.35l8.05-14.45q5.8-10.35 8.9-11.65 19.9-8.05 36.6-17.85 5.4-3.1 19.75 3.5 12.2 5.55 23.3 14.1"/><path fill="#c94768" d="M176.15 82.65q8 4.5 14.55 9.55l-43.45 14.05-12.7 3.55q-13.1 4.05-15.25 6.35-3.45 3.7-18.05 27.3l-3.55.7-1.45-1.95 2.2-6.1q1.25-3.65 1.8-6.6 4.05-21.25 22.35-35.1 11.85-9 37.8-19.1 6.95 2.3 15.75 7.35"/><path fill="#e85377" d="M201.85 95.1q2.3 2.35 7.9 12.3L199.3 125l-19.1 17q-3.25-13.9-15.6-25.5-9.5-9-15.9-10.6-7.45 1.9-16.9 5.3-10.5 3.7-12.65 5.55-1.9 1.55-7.2 9.55-5.75 8.7-10.05 16.9-.35 1.2-2.55.2l.65-7.2q.5-5.95 2.6-9.45l7.4-12.35q5.3-8.35 8.1-10.8 2.25-1.95 10.3-4.3 8.65-2.5 11.65-4.5l9.05-6.15q5.2-2.85 9.7-1.75l23.25 3.9q18.45 2.95 19.8 4.3"/><path fill="#c94768" d="M205.7 100.55l4.05 6.85L199.3 125l-19.1 17q-2.4-10.3-12.15-21.6-10.3-11.9-20.15-14.3-9.35 2.8-16.7 5.35-10 3.55-12.05 5.3-1.25 1.05-4.55 5.65-3.35 4.8-7 10.75 2.15-19.2 11.5-23.35 7.3-4.7 16.25-8.5 8.75-3.8 16.9-5.85 12.95-2.9 27.15-1.25 12.15 1.45 26.3 6.35"/><path fill="#e85377" d="M92.35 81.95q-1.25 6.45-3.3 23.5-2.45 20.45-1.4 22.75 1.8 4.05 6.15 10.25l3.95 5.45-2 2.2q-7.7-4.1-12.75-8-6.2-4.75-6.2-7.55 0-4.65 4.15-22.2 4.8-20.45 9.6-29.65 3.2-6.1 3.1-3.7-.05 1.4-1.3 6.95"/><path fill="#f19963" d="M95.55 146.5q2.15-2.75 4.7-2.8 5.95-.1 13.25 4.2 6.85 4.05 5.45 5.2-.45.35-7.4 2.9-7.2 2.65-8.95 3.8-2.05 1.3-5.05 5.6l-2.6 4.05q-4.4-8.15-5.25-10.5-.75-1.95-.4-3.15.55-1.7 3.6-5.35l2.65-3.95"/><path fill="#d18456" d="M106.25 148.35l.3-3.6q5 1.6 9.3 4.7 4.05 2.9 3.1 3.65-.45.35-7.4 2.9-7.2 2.65-8.95 3.8-2.05 1.3-5.05 5.6l-2.6 4.05-.2-4.45q0-4.9 1-7.1 1.05-2.25 4.8-4.8 3.15-2.15 4.5-2.35.75-.15 1.2-2.4"/><path fill="#0d131a" d="M25.25 45.85q3.6 1.9 10.05 10.55 12.4 16.5 19.2 23.9 11.35 12.4 22.25 18.45l-3.5.95q-11.85-8.2-22.9-20.65-5.45-6.15-15.6-19.6l-5.25-6.8q-2.4-2.95-3.6-3.6-2.25-1.15-3.6-.2-2.4 1.7-2.4 7.9 0 2.3.35 4.6 1.85 12.75 7.95 23.7 3.45 6.2 7.2 10.25L52 113.7l1 3q-9.75-9-16.4-16.55l-4.9-5.95q-3.7-3.75-7.55-5.35-3.4-1.4-4.45-.45-1.3 1.1-1.4 3.85-.15 3.15 1.35 7.25 2.9 7.85 9.6 17.6 6.45 9.35 13.3 16.05 5.2 5.05 10.95 8.55 2.85 1.75 4.7 2.55l2.25 2.95q-1.55-.65-5.4-2.9-8-4.7-12.3-8.5-1-.9-4.45-1.7l-4.45-.8q-1.3-.05-1.4 2.15-.1 2.6 2.1 6.1 6.2 10 26.2 19.8 5.15 2.55 8.4 3.2l1.2 1.75q-1.5-.35-9.45-3.3-2.65-.25-4.45 1.05-2.3 1.6-.3 4.45 3.7 5.3 16.95 9.85 8.9 3.1 17.25 4.5l1.1 1.3-5.6-.95-4.5-.55q-2.95.1-3.85 1.9-.9 1.75 4.95 4.9 6.8 3.65 15.9 4.25 2.7.2 3.25.55.5.35-1.75.45H96.1l-1.5-.15q-.05 1.55 2.55 2.9 2.55 1.35 5.85 1.45l-.1 1.8q-3.45-.15-6.7-2.1-3.3-1.95-3.8-4.2-9.5-2.05-14-5.75-3.55-2.9-2.5-4.95.55-1.05 2.25-1.55-13.5-3.85-20-8.75-5.2-3.95-5.2-7.85 0-1.65 1.35-2.65 1.45-1.1 4.05-.8-17.85-8.3-24.6-18.05-5.1-7.35-2.55-11.6.85-1.4 3.85-1 2.6.35 5 1.7Q24.3 117.3 18.4 102.3q-2.35-6-2.45-10.5-.15-4.15 1.6-5.6 1.55-1.3 4.5-.6 3.45.8 6.75 4-5.6-8.55-8.7-18.6-2.7-8.8-2.7-15.7 0-6.05 2.85-8.6 2.4-2.2 5-.85"/><path fill="#0d131a" d="M24.7 48.05q.9.65 6.05 8.7 9.65 15 16.2 23.6 11.7 15.25 21.3 21.55l-.8 1.2q-13.3-9.6-23.75-23.75L29.55 57.5l-4-6.15q-2.15-3.1-3.1-3.2l2.25-.1m41.9 65.85l-6-4.75q-6.3-4.6-8-4-.8.2-1.05 1.6-.95 4.65 4.2 14.2 5.25 9.8 11.2 13.7l-.8 1.2Q60 131.8 53.9 121.05 47.8 110.2 48.85 105q.45-2.1 2.15-2.65 2.1-.7 7.1 2.85l9.05 7.5-.55 1.2m.1 22.85l-.8 1.15q-7.55-5.35-9.5-4.4-.45.25-.45 1.25 0 5.65 4.95 11 7.25 7.7 25.25 15.65 4.5 2 3.25 2.1-1.2.1-4.25-.95l-6.6-1.7q-9.9-2.3-11.05-1v.45q2.05 6.1 12.5 11.35 9.3 4.7 22 7.25 4.6.95 3.85 1.25l-3.95.2-10.95.4q-.65 1.05 2.75 4.85 3.85 4.25 9.05 6.8 2.45 1.2 1.8 1.7-.65.55-3.55-1.05-5.1-2.7-8.75-7.2-3.55-4.3-2.5-5.9.8-1.2 4.2-1.3-23.8-5.85-27.8-17.9L66 160q0-.7.4-1.1.9-1 4-.75l7.85 1.45q-13.65-6.3-19.85-14-4.6-5.6-4.6-10.95 0-2.4 1.6-3.15 2.3-1.2 11.3 5.25M202.8 261.9q22.6-1.5 42.65 7.05 22.15 9.5 35.9 29.45 1.05 1.5.85 1.85l-1.85.25-6.35.65-6.55 1 3.15 5.6q2.45 4.55 1.9 4.5l-5 .2-4.4.25-.05-1.45 7.2-.35-5-8.9-.35-.4q-.05-.5 1.35-.7l13.7-2q-16.75-20.65-40-29.5-17.7-6.7-37.95-6.15l.8-1.35"/><path fill="#0d131a" d="M238 283.9q26.8 19.25 36.3 46.65.45 1.3.25 1.6l-1.2.1-5.45-1.2-6-1.45 1.45 6.75q1.1 5.4.6 5.7-.8.55-15.65-4.55l.55-1.05 13.35 3.65-2.25-11.25q-.25-1.3.5-1.25l.75.3 3.3.9 7.75 1.75q-12.25-28.7-37.1-46.65-9.1-6.6-18.8-10.9-7.75-3.4-13.25-4.35l.25-1.45q5.6.95 14.25 4.9 10.65 4.8 20.4 11.8"/><path fill="#0d131a" d="M195.25 273.15q18.15 10.95 36.1 33.5 22.05 27.8 24.65 53.1.15 1.3-.4 1.85-.55.5-1.5.2-7.8-2.45-13.5-5.35l.15 7.4q-.05 5.8-.6 6.15-.85.55-16.85-12.4l1.2-1.05 14.6 10.7-.1-7.25q.05-5.4.2-5.5l5.65 2.4q6.15 2.65 9.1 2.95-2.05-22.35-23.55-50.55-8.8-11.55-18.8-21.2-9.5-9.2-17.05-13.75l.7-1.2"/><path fill="#0d131a" d="M198.65 295q7.2 10.05 13.1 21.7 15.35 30.05 13.45 51.85l-.2.25q-.5.05-1.95-1-6.8-5.1-8.2-6.05l-2 8.45-.45 1.45q-.3.2-.9-.35l-6.8-5.95q-4.6-4.7-8.25-11.75-10.3-19.9-16-63.55l1.45-.2q4.9 39.65 16.25 61.8 6.5 12.8 13.35 17.05 2.25-9.05 2.5-9.2.3-.2 9.75 6.45v-1.35q0-19.95-13.8-47.4-11.8-23.4-22.5-33.4-.2-.15-.15-1.05l.15-.85q4.7 4 11.2 13.1"/><path fill="#0d131a" d="M169.5 324.1v1.9q0 13.4 4.7 26.4 2.75 7.6 6.5 13.7 3.85-8.95 4.35-9.55.35-.4 4.7 3.1l5.45 4.35 1.9-12.2 1.2 1.4q-1.1 12.6-2.05 13.2-.55.35-5.2-2.9l-5.45-3.9-3.75 8.45q-.55 1-1.05.7-.55-.3-1.7-2.3-6.55-11.45-8.2-16.8-3.15-10.1-2.7-27.25l1.3 1.7m28.3-69.8q.95 0 5.9 1.5 4.85 1.45 6.45 2.2 1.6.75 1.55 1.05-.05.35-1.9 1-1.75.6-4.55 1.9l-3.55 1.65 3.3 5.15q2.75 4.35 2.4 4.7l-5.35-.25-6-.75.65 6q.5 5-.05 5.3l-3.85-.75-4.05-1.3-1.3 6.1q-1.15 5.25-1.6 5.55-.65.5-7.35-4.15l.6-1.3 5.85 2.75 1.25-5.8q1.1-4.8 1.55-4.9.7-.25 7.35 1.9l-.55-5.85q-.45-4.75 0-5.1l4.6.15 5.6.7-5-8.65 3-1.75 4.55-2.45q-8.65-3.15-9.5-3.15v-1.45m5.8-28.4l-2.35 1.55q.15-6.4-.4-9.3l2.5.1.25 7.65"/><path fill="#0d131a" d="M198.8 247.55q1.65-1.45 3.25-4.15-1.8 12.05-6.45 21.15-5.8 11.3-15.75 17.4l-.35-2.2q14.15-9.75 19.3-32.2m-15.65-26.05l-1.15 9.9q-.75 10.65 1.45 14.1l-1.2.75q-2.05-.9-2.55-7.8-.55-7.95 2-17.2l1.45.25M96.7 283.8l8.45.75q13.5-.05 22.4-8.2-5.7-3.35-6.6-5.15l1.75-.05 7.6 3.85q4.55 2.35 11.25 4 5 1.2 10 1.8l2.75.35 1.2 1.6-5.15.35q-7.65-.7-20.3-5.9-9.85 9.4-22.95 9.75-5.15.15-14.6-2.15l-.4 1.8-.4 2.55q-.15 1.75-1 1.75-.65 0-2.1-1.3-1.05-.85-2.75-3.25l1.3-1.8 2.9 4.1.55-3.6q.4-2.45 1.1-4.55.7-2.05 1.2 0l.35 2.45 3.45.85m48.2-33.45q1.4-3.05 2.75-3.9 1.3-.85-.95 3.7-2.3 4.7-1.75 11.5.65 8.4 5.9 14.65l2.05 2.55q1.55 2.2-1 .6-6.8-4.15-8.8-12.2-2.1-8.25 1.8-16.9"/><path fill="#0d131a" d="M169.05 228.4l1.65 1.6q1.6 1.8 1.6 2.4 0 2.55-1.85 9.25l-1.7 6.65q-1.15 4.65-1.15 5.45 0 5 1 11.4.95 6.2 1.85 7.7 1.1-1.15 5.75-12.65l7.25-19.45q1.85-4.55 3.15-6.4 1.2-1.7 3.55-3.4 2.2-1.55 4.3-1.1 1.1.25 2.05.95-1.05.2-1.4 1.05l-.4-.1q-2.15-.5-3.5.55-1.85 1.45-3.35 4.25-.95 1.75-3.15 7.05l-7.2 17.15q-4.3 10.7-6.55 13.75-.45.65-1.1.2l-.6-.6q-1.4-1.65-2.45-10.35-1.05-8.65-.45-13.4.3-2.45 1.95-8.4l1.5-6.05q.55-3.05-.05-4.25l-1.4-1.95.7-1.3m-13.65-.35q-2 2.75-1.75 9.9V248l.1 5.7q.2 2.65 1.1 5.7l3.1 11.75q1.5 6.35 1.6 7.65.05 1.2-.4.95-.5-.3-.9-1.8l-1.35-4.15-1-2.65-.65.25q-.65.35-1.05 1.1-.95 2-.5 4.15.8 3.95 5.65 11.55l.35-2q.35-1.8.65-.5.5 2.05.85 8.15.7 4.35.8 6.45.2 3.6-.5 7.25-.6 3.3.1 6.75.65 3.15 2 5.05.95 1.3 1.75 1.45l.5.2h.4q.7.65 3.5 2.05l-3.1.2q-2.55-.4-4.8-2.95-2.3-2.65-2.3-8.6 0-1.25.55-4.4.3-1.45.15-6.35l-.45-6.85-.5-3.05q-4.65-6.7-6.25-10.2-1.35-3.05-1.4-6.05-.05-2.15 1.9-4.05l1.95-1.5-3.15-11.15q-.65-2.25-.75-12.65l.05-10.3q0-6.95 2.55-9.3 1.25-1.15 6.3-2.4l-.3.55.4-.1-.9 1.7h-.05q-3.1.8-4.25 2.45m47.25 16.75q-1.9 2.75-5.75 6.6-2.2 2.15-5.55 7.75-2.9 4.8-5.75 10.5l-3.8 7.35q-1.1 1.95-1.5 4.9l-.4 4.6q-.35 3.1-1.95 4.8-1.4 1.4-2.5 4.55-1.15 3.2-1.45 6.65-.15 1.9 1.05 5.6 1.15 3.7 1.2 6.65.05 3.4-1.45 4.4l-.35-1-.35-1.05.2-.4q.75-1.75.45-4l-1.05-4.15q-1.3-4.1-1.15-6.2.4-3.8 1.6-7.1 1.2-3.4 2.8-4.95l.75-1.8.35-2.75q.35-3.1.65-4.5.6-2.8 1.85-4.95l3.75-7.3 5.5-10.65q3.25-5.8 5.4-8 4.15-4.1 6.05-7.55 1.85-3.45.9-5.3l-.2-.35q.8-.9 1-1.9l1.6 1.75q1.45 2.9-1.9 7.8"/><path fill="#0d131a" d="M160.5 226.6q-.25.6.6 1.5.95 1.15 2.55 1.85 1.65.8 2.8.5 1-.2 1.3-1.35l.8-5q.6-4.35.6-6.7 0-1.35-.2-1.8l-.05-.05q-.9-.1-3.65 3.2-3.05 3.75-4.75 7.85m.4 3.35q-2.55-2.25-1.75-4.2 1.7-4.05 5.25-8.15 3.5-4.05 5.15-4.05.75 0 1.1.75.95 2.4-1.4 15.45-.35 1.35-2.5 1.85-3.2.75-5.85-1.65m42.6 2.8q2.7-5.05 2.85-6.55-1.2.05-5.6 2.8-4.15 2.55-6.2 4.3-.25.2-.25.7l.1.65q.35 1.4 1.6 2.8 1.25 1.45 2.5 1.7 1 .2 1.7-.7l3.3-5.7m4.75-8.9q.55.3.55.9-.05 1.65-3.35 7.9-2.9 5.55-3.95 6.9-.8 1.15-3.25.75-2.05-.45-4.15-2.95-2.4-2.85-1.15-5.2 1.6-1.35 7.15-4.75 6.8-4.2 8.15-3.55m-38.9 90.95q-1.7.55-2.75 1.55-.65.5-.65 1.05l.05.2q1.05 3.15 4.95 6.3 3.6 2.85 4.5 2.35.5-.25-1.95-10.1-.05-1.1-1.1-1.5l-3.05.15m-3.55.7q1.6-1.15 3.4-1.75l3.6-.2q1.7.6 1.85 2.5.55 3.55 1.05 5.3 1.3 4.6 1.2 6.15 0 .75-.3.6-3.65-.15-7.9-3.75-3.7-3.2-4.55-5.7-.2-1.85 1.65-3.15m-86.1 5l1.6 3.4q1.25 0 1.95-4.45.75-4.7-.75-7.55l1.45-.6q1.4 2.65 1.05 6.4-.3 3.2-1.65 6-1.15 2.45-2.2 2.25-.9-.15-1.65-2.05-1.1-2.8-3.25-6.25l-2-2.9h1.55q2.05 1.85 3.9 5.75M29 259l-3.8-2.95q-.95-1.25-.95-4.35v-.15l2.05.75.95 3.25q.4.8 2.55 2.3l1.5 1.05q3.95 2.8 9.6 8.8 5.9 6.35 9.25 11.5 2.9 4.5 1.3 3.25l-2.2-2.15q-25.4-15-34.15-9.2l-1-.6q-.65-.35-.55-.45 3.1-4.15 12.9-1.8 8.9 2.2 20.1 8.85-12.2-14.25-16.1-17.05L29 259"/><path fill="#0d131a" d="M86.6 282v-2.3q-.6-2.15-2-3.95-1.45-1.8-3.1-2.55-.4.2-2.65 2.45l-5.5 5.4q-3.5 2.9-5.25 1.75l-1.15-.7.1.1q-5.55-3.9-11.5-13.9-3.65-6.2-5.85-11.45-2.9-6.65-5.35-9.3-3.4-3.6-9.25-4.2-3.5-.3-6.2 2.05l-.05.1-1.05-1 .15-.15q1.7-1.5 3.75-2.45 2.35-1.1 4.2-.95 6.55.65 10.3 5.2 1.95 2.35 5 9.35 3.25 7.55 7 13.8 5.4 8.9 10.15 12.05 1.9-.05 5.15-2.75l4.95-4.7 2.35-2.2q.65-.5 1.3-.25 1.95.75 3.6 3.05 1.55 2.2 2.25 4.85.25.75.15 3.2-.1 2.7-.6 3.35-.5.7-5.65 3.1-5.05 2.85-6 6.25.7 1.95 3 4.4 1.8 1.9 3.9 3.45 1.9 1.4 2.45 4 .55 2.4-.3 4.35-.55 1.25-2 2.35-1.4 1.1-3.1 1.65-6.7 2.3-9.55-.8-.85-.95-1.25-2.35l-.2-1.2q-3.7-6.65-7.15-10.25-6.9-7.2-17.5-10.15-6.4-1.8-13.05-2.75l-9.6-1.3-7.45-1.25q-2.9-.75-3.45-2-1.65-3.9-1.55-6.1h1.85q-.1 1.1.5 2.6l1.05 2.25q.3.7 2.45 1.25l5.75 1q13.3 2 23.85 4.9 11.1 3.1 18.15 9.9 3.95 3.8 7.4 10.05l1.7 3q2.7 2.7 7.75 1.1 2.8-.85 3.65-2.7.4-.9.2-2.2-.35-2.15-2.45-4.35l-3.4-3.45q-2.05-2.15-2.95-3.9l-1.75-3.15q-.6-1.15-.4-1.45.2-.3 1.2.65l.95 1q.6-2.6 5.8-5.95 5.3-3 5.75-3.55.35-.5.5-2.3"/><path fill="#0d131a" d="M28.7 245.85q-1.8-1.65-3.95-1.2-2.35.55-4.3 2-3.6 2.7-3.25 3.35.2.45 2.6.6l3.9.25 8.25 1.7q-.15-1.45-.95-3.25-.95-2.2-2.3-3.45m-3.95-2.5q3.4-.75 5.1.85 1.7 1.55 3.1 5.25 1.25 3.2 1.05 3.9l-.35.65H32.2l-13.15-1.9q-3.85-.45-4.15-1.75-.3-1.2 2.3-3.25 3.95-3 7.55-3.75m-11.6 27.5l-3.3.15q-2.25.5-5.25 2.7-2.8 2.1-2.7 2.8l3.5.4 5.3.2 3.15.5 2.25.2.45-.7.45-1.65v-.55q0-2.1-1.4-3.2-.9-.65-2.45-.85M8.2 269.5q4.8-1.2 8.1 1.3 1.85 1.35 2.4 5.25.55 4.1-2.3 4.1l-6.65-1.05-7.85-1.05q-1.25 0-1.7-.6-.5-.7.3-2.1 2.65-4.6 7.7-5.85m172.95-126.85l-1.4.35q-4.05-16.05-16.95-27.2-9.5-8.25-16.45-9.45l1.85-.95q7.1 1.05 16.65 9.85 12.25 11.35 16.3 27.4"/><path fill="#bf794e" d="M244.7 54.2q1.85-.45 3.2-1.35l4.85 1.25q-7.75 6.05-13.15 9.7-8.75 5.8-12.2 14.4-.85 2.15-2.75 8.4-1.8 5.9-3.5 9.95l-8.5 20.7q-4.95 10.7-11.1 16.5-7.75 7.3-10.85 11.7-3.65 5.15-4.7 11.45-1.45 8.9-2.75 12.6-2.4 6.85-8.05 13.45l-8.85 11q-3.25 3.4-7.55 2.45-1.65-.35-7.95-3.55-7.65-3.9-12.4-5.75-17.9-7-30-1.25 1.85-5.1 3.4-7.35 4.55-2.55 10.45-3.6 6.9-1.15 13.55.3 13.05-6.45 28.3-18.6 11.15-8.9 16.4-14.6 4.1-4.4 14.2-12.45 9.3-8.6 14.5-21.2 3.2-7.7 8.8-29.75 3.95-15.55 8.55-19.1 3.65-2.85 14.7-9.6 1.9 1 3.35 1.45l-2.7 3.15 2.75-.3"/><path fill="#0d131a" d="M146.85 132.65q-.7-4.95-21.55-11.35l-.3-.1-1.2-7 .9-.15 1.1 6.5 11.9 3.8q10.15 3.95 10.7 7.8 1.2 8.35-1.65 19.85-3.05 12.45-9.45 22.1l-.7 1.35h-1.05q-6.9-1-13.5.15-7.2 1.25-10.2 4.55-4.6 7-7.65 21.4-3 14.25-2.3 25.1.75 11.5 3.5 19.9 1.75 5.3 5.35 11.65 1.4 2.45-.2.9-1.6-1.55-3.15-3.85-1.65-2.5-3.55-6.6l-1.55-3.6q-7.1.35-12.75 7.7-5.7 7.4-7.95 19.3-.45.05-1.25.55l-.75.45q1.35-13.3 7.35-21.4 5.85-7.95 14.55-9-2.6-9.7-2.6-19.6 0-13.5 4.3-27.25 3.1-9.85 6.85-16 1.4-4.65 1.5-5.9.15-1.05-.55-1.85l-.75-.6 1.5-1.05.5.35q.55.55.75 1.55.55 2.25-.45 5.2 2.55-2.5 8.75-3.45l14.15.5q5.75-8.3 9.25-21.8 3.2-12.65 2.15-20.1"/><path fill="#0d131a" d="M125.9 128.1l7.05 3.6q6.2 3.5 6.95 5.4 1.3 3.2 2 12.45.8 11.15-1.15 17.4l-1.45 2.2q.75-2.4 1.35-6.4.6-4.2.6-7.1 0-5.3-1.1-11.35-.9-4.6-1.7-6.7-.55-1.45-5.05-4.35-3.65-2.35-7.25-4.05-.15 2.7-.9 5-.65 1.95-5.25 5.3-3.7 2.7-6.4 4-3.45 1.75-10.25-3.15l.6-.75q6.25 4.6 9.25 3.1l6.45-4.05q4.2-3.1 4.75-4.75l.8-2.4.05-3q-.1-2.05.25-1.4l.4 1"/><path fill="#0d131a" d="M118 140.25l-1.15 1q1.8-3.95 1.85-11.7.05-7.1-1.15-10.2l.8-1.4q1.6 4.15 1.95 9.85.4 7.55-2.3 12.45m-7.05 3.3q-1.4-.4-2.2-1.9-1.2-2.2-1.3-4.4-.1-2 .7-2.6 1.65-1.3 4.05.85 2.4 2.2 3.4 6.25-.45.85-1.8 1.45-1.5.65-2.85.35"/><path fill="#fff" d="M110.45 140.7q-1.25-2.25-.5-2.7.3-.15.85.3l1.2 1.45q.55.95.7 1.8.15.8-.1.9-.35.2-1-.35l-1.15-1.4"/><path fill="#0d131a" d="M100.4 162.25q-.25 1.35.6 3.5 1 2.5 2.7 3.65l-.05.9q-2.05-1.35-3.3-3.5-1.25-2.1-1-3.6l1.05-.95"/><path fill="#0d131a" d="M115.4 160.3q0-2.7-.8-5.6l1.15-.3q1 3.85.95 7-.05 3.35-1.35 5.25-2.1 3.2-4.85 5.6-3.2 2.8-6.5 3.65l-1.55.15-.7-.75q-1.15-2.05-2.2-6.7l-.9-4.9 1.4-.2.95 4.85q.8 3.45 1.7 5 1.1-3.55 1.45-11.9l.2-2.55 1.15.1-.15 2.5q-.5 9.85-2 13.35 5.45-1.4 10.75-9.2 1.3-2 1.3-5.35M84.55 94.65q-1.9 1.8-4.9 3.35l-5.1 2.2q-3.25 1.3-4.4 2-1.85 1.1-1.85 2.3l-.3 7.1q-1.25 25.3-.05 27.1.95 1.45 9.9 4.4 7.5 2.5 16.4 4.75l-.3 1.1-13.05-3.1q-13.15-3.45-14.55-5.6-.85-1.3-.65-9.95l.8-18.6-.15-8.25q0-1.7 2.25-2.85l5.15-2.1 5.95-2.25q3.4-1.5 5.15-3.55.15 1.6-.3 1.95m20.05-10.3q-1.65.75-13.2 4.1l1.1-2.9 4.9-.85 6.65-1.65.55 1.3"/><path fill="#0d131a" d="M116.7 69.25q4.85-1 15.9 2.25 7.85 2.3 12.95 4.65l-1.45.7q-4.35-1.95-11.95-3.9-10.05-2.55-14.8-1.55-4.45.9-15.1 16.6-8.8 13.05-13.2 22.3l-1.05-.5q4.7-9.8 12.85-22.5 10.95-17.1 15.85-18.05"/><path fill="#0d131a" d="M191.05 91.7l-1.85.5q-11.2-8.6-22.8-13.9-13.4-6.1-18.45-3.2l-.35.2q-7.2 4.15-13.05 7.15-10.8 5.5-23.25 10.55-2.2.9-5.7 6.45-2.1 3.25-6.05 10.65-3.6 6.75-5 8.75-1.8 2.6-2.05 6.2-.15 2.15.35 6.45.45 3.75.35 5.8l-1.45-1.85-.05-3.8-.7-6.9q0-3.9 1.9-6.6l2.65-3.7q1.85-2.65 3-4.9 3.85-7.8 5.65-11.1 3.1-5.6 5.4-6.55 11.95-4.85 26.25-12.25l11.85-6.4q5.45-3.15 19.9 3.8 11.7 5.65 23.45 14.65"/><path fill="#0d131a" d="M174.3 90.15l-15.65-2.65q-3.65-.95-7.65.85-2.5 1.15-7.25 4.6l-3.4 2.35-4.55 2.75q-2.5 1.25-5.4 2.1-9.35 2.65-12.05 4.95-2.55 2.15-6.8 8.35-3.3 4.8-6.8 10.75l-1.65 2.85q-1.55 2.5-2.2 6.2l-.55 6.05-.45 4.3-1.1-.35q.3-1.15.4-4.05.05-3.9.25-6 .35-3.75 1.9-6.3l2.45-4.15q3.8-6.4 8.35-12.7 4-5.5 5.55-6.9 1.6-1.35 4.65-2.5 1.95-.75 6.2-1.95l6-1.9q3.25-1.15 5.2-2.45l3.3-2.35q6-4.35 7.2-4.95 4.2-2.2 8.1-1.25l19.05 3.25 17.9 2.8q6.5 1.15 7.5 2.15 1.45 1.45 4.2 6.85l2.6 5.4-.4 1.45q-5.55-9.9-7.8-12.2-.9-.9-9.95-2.55l-17.15-2.8"/><path fill="#0d131a" d="M164.9 99.5q-5.8.75-9.1 3.25-1.85 1.4-3 1.85l-10.1 3.5-13.4 4.6q-7.2 2.65-9.2 4.15-3.75 2.8-16.35 23.5l-1.6 3.35-1.3-.15 2.1-3.65 8-13.45q5.35-8.75 7.85-10.65 2-1.5 9.75-4.05l13.9-4.5 6-2.3 4.05-1.85 1.9-1.25 1.75-1.4q6.85-5.2 34-1.4 3.65.5 2.6.8l-2.7.1q-16.9-1.55-25.15-.45"/><path fill="#0d131a" d="M199 123.6l-.15.8q-6.55-6.65-23.35-14-14.35-6.3-20.55-7.15l.7-.7q12.65 2.5 25.95 8.65 14.65 6.7 17.4 12.4m4.15-4.8q-1.2-3.45-3.35-6.05-2.6-3.1-6.95-5.55-1.8-1-1.7-1.2.15-.2 2.1.45 4.3 1.35 7 4.5 2.05 2.4 3.45 6.25l-.55 1.6M93.85 73.05q1.2-.35-2.4 25.4-3.75 26.75-3.05 28.3 1.65 3.6 6.25 11.15l3.65 6.3-.95.7-4.7-7.05-5.7-8.5q-.6-1.3-.7-2.05l.05-1.75q0-6.75 2.2-22.3 1.45-10.05 3.1-19.3L93 75.6q-3.5 5.4-9.4 25.35-6.2 20.95-6.2 29.6 0 2.5 6.05 7.2 5.3 4.05 12.9 8.15l-.55 1-11.6-6.35q-9.1-5.75-9.1-9.3 0-11.5 7.9-34.8 7.6-22.5 10.85-23.4"/><path fill="#0d131a" d="M112.25 147.85q-6.65-3.65-12-3.55-1.9.05-3.5 1.7-.95.95-2.3 3.15l-1.1 1.65-2.85 3.8q-.75 1.3-.75 2.25 0 .65.5 1.9.95 2.45 4.75 9.55 4.3-7.05 7.25-9 1.7-1.05 10.55-4.35l5.7-2.25q-.5-1.7-6.25-4.85m-12.05-4.7q5.5.05 12.4 3.7 6.2 3.3 7 5.5.25.7-.25 1.2-.45.35-6.15 2.5-8.7 3.2-10.3 4.25-3.5 2.25-6.35 8.35l-.85 1.95q-.2.2-1.25-.85-1.05-1.1-3.25-5.3-1.95-3.75-2.75-5.9-.7-1.9 0-3.25.45-.95 4-5.25l1.05-1.5 2.15-3.55q1.65-1.9 4.55-1.85M281.3 45.1q.85 1.4 1.05 4.55.25 3.3-.45 5.9-1.65 6.35-3.55 9.45-3.15 5.15-11.7 12.7 8.3-4.25 11.55-5.5 5.1-2.05 7.05-1.05 1.9.95 2.3 3.95l.05 4.75q0 5.95-2.35 9.9-3.9 6.55-15.5 12.95l2.2-.65 6.9-2.3q2.95-.9 4.55-.45 1.75.5 2.05 3.5.25 2.35-.4 6.8-.85 5.65-3.2 9.8-3.75 6.65-11.75 10.9-8.3 4.4-20.9 8.6l11-1.6 7.2.2q2.45.7 2.55 2.25.1 1.05-1.2 3.45-2.9 5.35-6.2 8.35-3.95 3.5-9.9 5.15-4.85 1.35-14.35 2.3 10.4 1.05 11.5 3.3l-.2 1.2-.7 1.5q-3.55 4.55-8.35 8.3-5.65 4.4-8.7 3.9l-8.5-1.85q6.55 3.25 7.05 5.6l-.15.75-.6 1.05q-3.05 3-7.05 4.65-4.5 1.85-7.8.9l-4.95-1.75q4.85 3.65 4.85 4.7l-.6.9q-1.5 1-5.7 2.6-5 1.95-6.5 1.45-.95-.3-3.5-2 2.15 2.75 2.15 4.05-.2 1.25-.75 1.5-2.25 1.15-5.9 1.65l-6.35-.15q0 1.9-1.9 2.9l-1.9.65q-4.65 1.9-7 2.4-4.15.85-6.4-.85-2.45-1.9-3.6-4.25l-.7-2.05-.05-1.8q.1-1.3.8.9.65 1.95 1.55 3.2 1 1.4 2.9 2.85 1.75 1.4 5.6.5 2.1-.5 6.35-2.2 1.1-.3 1.7-1.05 1.15-1.5-1.3-3.7-3.9-3-5.15-5.4-2.15-3.95 3.7 2.55l2.85 2.3 2.3 1.4q1.5 1 5.25.4 3.4-.55 6.05-1.9l.15-.2q.15-.95-2.65-4.2-2.5-2.85-3.8-3.8-4.1-3.25-3.45-3.65.7-.4 4.3 2.55 6.3 5.1 9.2 6.05.85.3 4.5-1.3 3.3-1.5 5.45-2.85-.4-.85-4-3.5-3.5-2.6-5.65-3.65-4.55-2.1-5.75-3.75-1.2-1.55 6.4 2.5 4.9 2.65 11.9 4.65 2.65.75 6.2-.65 3.55-1.45 6.55-4.45.4-.35.3-.85-.35-1.65-5.85-4.45-4.55-2.4-7.95-3.45-7.15-1.55-8.6-2.75-1.45-1.2 3.05-.15l12.1 3.05 11.1 2.55q2.25.35 6.95-3.45 4.4-3.5 8.2-8.3.45-.6.25-1-.75-1.6-9.3-2.6l-12.05-.5-13-.8q-3.65-.9 6.65-.9l18.35-.6q8.15-.7 14.15-2.35 5.2-1.4 9.5-6.15 3.2-3.55 4.45-7 .75-2.15-.35-2.45l-3.4-.1-25.7 3.05-8.4.55q.3-.6 7.65-2.4 9.2-2.25 14.75-4.1 8.95-3.05 17.95-7.85 7.35-3.9 10.85-12.05 1.15-2.75 2.9-10.75.65-3.15-.5-4-1.05-.8-3.7.05l-11.2 3.3q-.6.2-11.65 4.75-10.5 4.35-12.5 4.8l-3.55.45q.7-.85 12.2-5.8 16.45-7.1 22.05-11.05 2.65-1.85 7.5-7.65 3.5-4.05 3.85-10.95.35-6.5-1.7-6.6-1.4-.05-11.35 4.25l-11.55 5.1q-10.05 6.65-13.45 7.55-3.3.95 11.75-8.65 14.05-8.9 19.3-20.95 1.95-4.4 2.25-8.35.3-3.4-.6-4.85-1.2-2.1-7.95-.2-3.8 1.05-11.55 4.25l-9.75 4.65 3.9-3.9 5.3-2.05 13.05-5.45q7.05-2.4 8.65.35"/><path fill="#0d131a" d="M313.4 13.75q0 10.4-9.8 24.2-5.3 7.5-16.05 18.75l10.55-6.65 10.9-7.3q5.05-3.1 7.1-1.75 1.05.7 1.4 3.8.4 3.55-.6 8.1-1.8 8.45-10.6 19.15-7 8.5-17 16.95l8.95-4.2q4.6-2.25 11.6-6.75 5.15-2.85 6.95-.4 1.85 2.6 1 7.6-.4 2.5-2 7.25-2.7 8.1-9.4 15-6.6 6.75-18.25 13.6l10.55-1.7 7.65.25q1 .55 1.15 1.8.2 1.65-.95 5-1.05 3.1-4.95 8.25-4.6 6.1-9.1 8.8-2.9 1.75-11 4.5l-13.2 4.15q8.05-.3 12-.25 8.1 0 9.8 2.5 1.45 2.05-.2 6.55-1.2 3.1-5.7 7.15-5.2 4.6-11.45 7.2-7.2 2.95-30.7.9 3.7 1.65 7.85 3.95 4.7 2.6 7.05 4.45 2.3 1.8 1.65 3.95-.55 1.85-4.9 5.25l-1.45 1.2q-1.6 1.55-5.25 2.05-4.1.5-8.75-.7l1.6 2q.85 1.15.85 1.9l-.05.65q-.35 2.35-3.95 4.15-2.05 1.05-5.95 2.15-3.4 1.05-8.2-1.1 1.05 1.65 1.25 2.75v.25q0 .7-.6 1.45-1.3 1.5-5.4 3.1-3.75 1.5-5.45 1.5-1.4 0-4.65-2.6.6 1.55.6 2.6v.4q-.15 1.05-1.15 1.75-1.7 1.3-5.9 1.75-3.65.35-6.05-.1-1.45-.25-3.05-2.15l.05 1.1q0 1.3-.4 2.05-1.05 1.9-4.75 2.45-2.1.3-4.2-.05-2.35-.35-3.3-1.3-2.15-2.1-6.95-14.1l1.25.15q1.05 2.7 3.35 7 2.45 4.55 3.6 5.7.55.55 2.25.8 1.85.3 3.75 0 2.7-.3 3.4-1.5l.25-1.15q0-2.75-2.25-7.45l-1.3-2.3q-1.05-2.1-.7-2.75.4-.65 2.1 1.85 1.4 2.05 1.85 3.15 1.3 2.55 2.6 4.35 1.65 2.2 2.8 2.4 2.2.4 5.55 0 3.65-.35 5-1.35.4-.25.4-.5.15-1.2-1.25-4.1-1.35-2.85-2.5-4-3.9-3.95-3.75-4.7.2-.7 2.85 1.85 9.4 8.95 10.5 8.95 1.65 0 5.5-1.65 3.95-1.7 4.15-2.6-.1-.8-2.35-3.55l-3.45-4q-5.65-3.7-5.2-4.65.5-1 4.75 2.55 4.55 3.8 7.6 5.2 3.75 1.8 6.9.85 3.45-1 5.45-2.35 2.1-1.4 2.3-2.85.35-2.25-4.6-5.6-5-2.45-7.65-6-.95-1.3-.1-1.05.95.3 3.7 2.55 5.8 4.8 13.5 5.15 6.25.25 8.1-1.6l1.65-1.4 2.45-2.1q1.25-1.35 1.25-2.45 0-1.25-1.75-2.7-3.35-2.65-11.25-6.3l-7.25-3.2.6-.85q.75-.8 1.3-.75l16.55 1.15q13 .35 17.55-1.55 5.75-2.35 10.2-6.8 3.6-3.6 4.8-6.7 1.1-2.85.05-4.3-1.5-2.1-6.8-2.1-4.15-.05-14 .2l-9.15.25 3.85-1.65 12.45-3.9q13.1-4.35 17.2-6.85 4.25-2.55 8.8-9.2 3.2-4.6 4.55-7.75.7-1.65.2-2.25-.6-.7-3.2-.7l-8.35.5q-6.25.65-10.3 2l-10.5 4.5q-7.4 2.2.2-1.7 3.9-2.05 10.25-5.05 10.9-5.9 18.5-12.7 10-8.85 13.2-18.4 1.5-4.55 1.4-7.55-.1-2.2-.95-2.95-1.2-1.05-5.55.95L299 86.4q-16.75 8.2-23.4 10.85l7.4-5.5q9.5-7 18.55-17.35 11.7-13.35 13.3-23.05.75-4.9-.75-5.9-1.55-1.05-6.45 1.4l-9.85 5.8q-11.55 7.15-20.65 12.4l.4-2.25 7.25-5.8q11.7-12.25 17.65-21.4 11.25-17.2 7.15-28.3-1.25-3.5-3.7-4.05-3.7-.8-10.9 5.05-4.15 3.45-12.1 11.65L278 24.9q-7.7 7.5-17.15 14.1-5.4 3.75-16 10.1-11.4 6.8-15.65 10.4-6.85 5.8-8.75 12.6l-2.85 11.05q-4.05 16.5-7.2 24.3-5.25 13.05-13.8 21.1l-8.15 7.45q-14.5 13.15-19.05 20.3-5.4 8.55-5.6 20.85-.1 2.8-.5 2.95-.5.15-.55-3.05-.25-11.7 3.6-18.9 4.7-8.8 20.9-23.5l8.1-7.4q8.3-7.8 13.15-20.25 2.6-6.7 6.75-23.5 2.45-10.5 3.45-14.05 2-7 10.1-13 1.7-1.25 17.1-10.45 9.2-5.5 14.45-9.3 7.8-5.65 15.55-13.25l8.2-8.85q7.45-7.7 11.3-10.6 5.45-4 10.1-4 7.9 0 7.9 13.75"/><path fill="#0d131a" d="M309.15 3.65l-.3 1.4q-2.2-.5-6.7 2.7-5.95 4.2-13.4 13.45-7.9 9.8-23.2 23.15Q251.3 56.85 240 64.4q-6.7 4.45-9.9 9.9-2 3.4-4.4 11.35-2.1 6.95-3.9 11.2l-3.45 8.55q-4.4 11.2-6.9 16-4.15 7.95-9.45 12.9-7.65 7.15-10.7 11.55-3.55 5.05-4.6 11.15l-.15 1.2q-1.35 8.05-2.85 12.1-2.45 6.65-7.95 13.1l-5.2 6.5q-3.75 4.9-5.5 6.15-2.65 1.9-6.4 1.05-1.15-.25-3.3-1.2l-4.5-2.25q-14.35-7.3-23.8-9-10.5-1.9-19.1 2.2l.15-1.65q9.95-4.75 23.45-1.15 7.5 2 19.95 8.3 5.75 2.95 7.45 3.35 3.2.7 5.4-.9 1.5-1.1 5.05-5.75l5.25-6.55q5.2-6.1 7.4-13.4.75-2.6 2.4-12.45l.2-1.2q1.05-6.25 3.75-9.85 1.7-2.3 10.05-10.1 5.35-5.05 10.45-13.75 4.45-7.55 8.15-16.9l3.45-8.55q1-2.45 2.05-6.45l1.5-5.8q2.6-8.65 3.65-10.6 2.65-4.85 9.5-9.45 11.7-7.8 26.4-20.3 16.35-13.9 24.05-23.4 7.5-9.3 13.55-13.65 5.15-3.65 7.95-3"/><path fill="#0d131a" d="M251.6 54.35q-1.7-.05-3.55-.8-1.1.7-3 1.2l-3.7.55q-.55 0-.65-.3-.15-.3.3-.65 1.85-1.35 2.8-2.7-1.45-.3-3.1-1.25l1.35-.95 3 1.25.5.35-.05.5q-.5 1-2.3 2.4l2.65-.75 1.7-1.05.55-.1q2.6 1.15 5.4 1.05l-1.9 1.25"/></svg>