<svg xmlns="http://www.w3.org/2000/svg" width="393" height="440" viewBox="-1.45 -0.9 393.35 440.45"><path fill="#0d131a" d="M64.4 313q3.45-3.15 8.3-3.15 5.1 0 8.8 2.25 4.05 2.45 7.9 8.35 3.25 5 10.45 20.05 8.3 17.35 10 24.75l1.85-1.35q5.5-3.9 7.9-6.8 4.1-5.05 5.6-12.65l.15-.9 24.3 2.55-.7 2.95q-2.95 12.05-2.3 15.75l.15.6-4.65 5.2-12.25 8.4q-7.35 5.45-12.45 10.85-.8.8.25 4.4l1.9 6 1.3 5.05q.4 4.45-2.9 8.6-3.65 4.6-9.2 5.15-2.35.25-5.35-.95-3.05-1.2-4.95-3.05-2.45-2.35-2.45-3.95v-.3l.6-3.75q1-4.95.35-6.3-3.85-.6-7-2.65-3.4-2.25-5.2-5.7-8.35-16.05-15.35-24-9-10.15-24.35-18.3l-3.7-.75q-11.55-3.55-11.55-12.3l.1-1.6q.35-2.95 1.8-5.35 1.45-2.45 3.75-3.95 3.4-2.25 7.35-1.7v-.35q0-4.15 1.9-7.3 1.9-3.25 5.4-4.95 3.55-1.7 7.5-1.4 3.9.35 6.75 2.55"/><path fill="#f19963" d="M63.3 314.6q-1.6 1.9-2.35 4.6-.85 2.9-.3 5.35.65 2.85 2.55 5.05 1.8 2.15 4.3 3.2 3.75 1.55 13.15 13.85 8.85 11.55 10.55 15.9 1.45 3.65 1.95 3.3.5-.35-.7-3.85-2.1-6-10.5-17.35-8.85-11.95-13.2-13.8-2.2-.9-3.8-2.9-1.6-2-2.2-4.6-.55-2.2-.15-4.3.4-2.05 1.7-3.6l.2.15.65-.7q3.2-3.25 7.5-3.05 3.95.15 7.85 2.45 4.45 2.6 7.35 7.35 11.25 18.2 17.45 36.8l3.2 10.75q1.1 4 1.4 4.2 1.3.75 0-5.9l2.95-2q5.45-3.85 8-6.9 4.35-5.25 6.05-12.9l20.3 2.15-.15.7q-2.5 10-2.5 14.35l.1 1.55-4.25 2.9q-6.65 4.4-12.55 9.5-7.25 6.25-11.8 12.25-2.05-3.3-2.5-3.05-.5.25 1.5 4.8l.85 4.15q.55 3.25 1.2 5.3l1.2 4.65v.8q0 3.85-2.5 7.15-2.8 3.75-7.2 4.2-1.8.15-4.3-.8-2.7-1-4.4-2.65-1.6-1.5-1.5-3l.55-3.5q.45-2.15-.25-7.85-.7-5.65-1.65-7.4-.9-1.6-1.2-.65-.3.9.15 2.45l.75 4.4q-2.9-.25-6-3-2.55-2.2-3.7-4.4-8.25-15.8-16.15-24.35-9.35-10.1-25.35-18.55 1.5-.6 1.85-1.1.75-.95-4.9-.3-3.25.35-6.95-2.65-4.25-3.4-3.65-8.05.6-5.2 4.65-7.9 3-2.05 6.4-1.4.9 2.9 2.85 5.55 2.55 3.45 5.8 4.7 3.25 1.3 13.4 10.85 10.2 9.6 13.05 14.05 2.75 4.35 3.25 3.55.5-.8-2.05-4.5-3.25-4.75-11.9-13.7-10-10.35-14.6-12.35-7.15-3.15-7.1-10.9 0-7.4 5.35-10 3.05-1.5 6.5-1.2 3.4.25 5.8 2.15"/><path fill="#d18456" d="M113.5 386.7q.25 1.05 1.55 4.15l.85 4.15q.55 3.25 1.2 5.3l1.2 4.65v.8q0 3.85-2.5 7.15-2.8 3.75-7.2 4.2-1.45.15-3.75-.6l1.95-1.95q1.6-1.4 4.15-2.1 2-.55 1.3-10.4-.85-11.45 1.25-15.35m2.55 2.4q-1.55-2.55-2.25-2.95 4.25-7.8 13.95-19.1 12.45-14.65 16-19.55l3.45.35-.15.7q-2.5 10-2.5 14.35l.1 1.55-4.25 2.9q-6.65 4.4-12.55 9.5-7.25 6.25-11.8 12.25m-6.15-21.6l1.55-1.05q-.25 3.35-.9 6.2.1-1.4-.65-5.15m-25.95-40.55q-1.6-2.4-2.6-7.35-.9-4.5-2.55-6.2 5.6 2.7 9.05 8.25 11.25 18.2 17.45 36.8l3.2 10.75q1.1 4 1.4 4.2l.5-.05-.15.45q-1.05 3.9-1.85 1.95-1.8-4.5-8.95-19.3-9.2-18.95-15.5-29.5"/><path fill="#0d131a" d="M123.3 320.25l-.9-1.7 62.5 17.85-.6.95-3.1 2.85q-7.05 5.9-10.7 9.65-7.25 7.55-9.95 14.3l-.1.35-3.3-.55q-4.2 1.25-6.15 2.15-3.3 1.45-5.35 3.6l-1.95 2.05.55-2.75q.3-1.8 1.7-5.75l1.25-4q-1.7 1.35-4.15 2.9-4.45 2.9-6.25 4.6l-1.8 1.7.4-2.45q.2-1.3 1.3-4.45l1-3.2q-2.1 1.05-3.9 2.5-2 1.6-2.8 3l-1.55-.5q.3-2.55 2.3-7.05 1.5-3.3 1.85-5.6l-3.4.65-5.1 1.05 1.3-3.1 1.15-3.05-2.3 1.65-5.2 3.85 2.6-8.9q2.4-7.65 2.8-11.35.6-6.2-2.15-11.25"/><path fill="#c9c279" d="M128.3 343.5l-4 3.05-1.3 1 1.2-4.2 2-7.05q.95-3.95.95-7.15 0-4.15-1.65-8.05l55.3 15.1-1.9 1.65q-6.45 5.4-10.4 9.6-6.95 7.4-9.8 14.35l-2 .6-5.3 1.8q-2.9 1.15-4.9 2.65l1-3.05q1.5-4.05 1.85-6.5l.3-2.2-1.65 1.5-5.8 4.15q-2.75 1.8-4.55 3.2l.6-1.85q1.25-3.45 1.4-5.1l.1-1.35-1.2.5q-3.4 1.2-6.65 4.2l1.35-3.35 1.45-3.55.8-3.65.05-.95-.9.05q-1.75.05-4.85.85l-1.95.4.05-.2q1.65-3.8 1.8-5.8l.2-2.15-1.6 1.5"/><path fill="#0d131a" d="M330.25 384.4l-.9.7q-3.35 2.65-13.7 6.15-11.55 3.9-14.35 1.85-2.6-1.95-28.3-37.55l-26.65-37.35-.4-.5 4.95-8.85 79.35 75.55"/><path fill="#e85377" d="M251.4 312.05l75.75 72.1q-3.65 2.15-11 4.3-8.1 2.4-12.3 2.05-3.95-3.65-28.45-36.4l-27.1-36.55 3.1-5.5"/><path fill="#c94768" d="M251.4 312.05l26 24.8q-8.8-.1-16.05-1.6l-13.05-17.7 3.1-5.5"/><path fill="#0d131a" d="M374.55 348.55q-5.65 8.35-8.4 11.45l-.5.55-117.2-61.65 6.9-7.45.6.25 63.95 22.35q60.5 21.4 60.85 23.05.4 1.75-6.2 11.45"/><path fill="#e85377" d="M363.85 356.9l-112.2-58.55 4.25-4.6 60.2 21.9q54.9 20.1 60.8 23.2-.35 3.7-13.05 18.05"/><path fill="#c94768" d="M310.8 313.65q-1.95 1.4-5.05 5.45-2.8 3.65-5.25 5.05l-32.95-17.35-15.9-8.45 4.25-4.6 54.9 19.9"/><path fill="#0d131a" d="M356.65 376.05l.05 1.75q-6.95 4.3-13.85 8-13.65 7.4-15.5 5.9-3-2.4-80.05-80.25l-.5-.5 4.5-9 105.35 74.1"/><path fill="#e85377" d="M328.95 388.55q-4.85-4-40.4-39.05l-39.35-38.95 2.85-5.65 101.1 71.05q-15.65 10.05-24.2 12.6"/><path fill="#c94768" d="M276.7 337.85l-27.5-27.3 2.85-5.65 42.15 29.65q-9.05 2.45-17.5 3.3"/><path fill="#0d131a" d="M381.65 361.75q.2 2.05-12.45 11.75-12.55 9.55-14 9.05-1.8-.6-103.95-78.05l6.85-7.35.65.35 63.1 31.9q59.6 30.5 59.8 32.35"/><path fill="#e85377" d="M369.75 369.05l-14.25 10.5-101.3-75.3 4.3-4.65 58.7 30.55q53.4 27.9 60.5 31.95-1.2 1.7-7.95 6.95"/><path fill="#c94768" d="M308.25 325.45q-7.6 4.25-15.55 7.4l-38.5-28.6 4.3-4.65 49.75 25.85"/><path fill="#0d131a" d="M85 92.4q.9-12.35 4.75-9.75 3.35 2.35 6.75 6.6 4.75 6 5.95 12.05 3.65 18 1.7 36.4-1.35 13.15-4.3 20.25-1.05 2.45-9.85 3.75l-28.05 1.05q-17.85-1-21.85-5.95-7.5-9.35-10.8-15.5-4.15-7.8-4.2-14.9.35-17.3 1.3-35.55.7-13 .75-33l-.1-29.35q-.8-10.95-.95-17.4-.35-12 2.9-11 2.2-.6 5.65 4.5 3.5 5.2 5.45 12.15 6.1-1.55 11.75 8.85 4.6 8.45 5.7 16.8 9.4-3.3 17.85 24.1 5.1 16.45 9.15 41.35-.05-9.05.45-15.45"/><path fill="#f0e78e" d="M95.45 91.3q4.2 5.6 5.4 11.7 3.55 17.8 1.85 35.2-1.2 12.45-4.1 19.25-.3.75-2.3 1.45l-6.5 1.45q-12.9 1.85-28.2.5-16.75-1.55-20.4-6.05-13.15-16.15-13.3-31.1-.05-5.85.65-33.75l.85-47.55q.25-24.35-.15-28.75-.8-8.6.95-9.05 1.3-.35 3.5 2.5 2.7 3.5 5.3 10.4l.15.35.35.05q5.75.95 10.9 10.55 2.8 5.2 6 14.7l.15.45h.5q8.75-.15 17.9 29.15 7.15 22.9 8.95 40l.45 1.9q.5 1.3.85-1.85l1.75-14.65q.9-9.5 1.7-11.7.15-.5.7-.45 2.3.15 6.1 5.3"/><path fill="#c9c279" d="M86.95 98.15q.9-9.5 1.7-11.7.15-.5.7-.45 2.3.15 6.1 5.3 4.2 5.6 5.4 11.7 3.55 17.8 1.85 35.2-1.2 12.45-4.1 19.25-.3.75-2.3 1.45l-6.5 1.45-16.45 1Q65.4 140.8 64 117.7l-3.65-38.4q-2.2-21.25-4.55-37.95l.75 2.25h.5q8.75-.15 17.9 29.15 7.15 22.9 8.95 40l.45 1.9q.5 1.3.85-1.85l1.75-14.65"/><path fill="#0d131a" d="M53.9 111.05q2.05 2.4 5.35 7.75t3.4 6.35q.2 2.4-1.2 5.1l-2.85 4.45q-3.6 5.5-.7 10.05 4.75 7.55 8.2 16.75l.4.95-1.05-.05q-8.05-.45-14.05-1.75-8.6-1.8-11.2-5-7.1-8.75-10.35-15.35-3.65-7.45-3.7-14.75l.45-8.85 1.2-2.25 2.2-5.2q1.35-3.15 1.7-1.5 1 4.25 2.15 8.05 1.65 5.55 1.95 4 1.4-6.8 4.55-10.85 5.7-7.3 13.55 2.1"/><path fill="#bf794e" d="M65.7 135.95q.95 4.85-.75 14.1-1.55 8.4-.5 10.95-9.05-.6-15.2-2.25-6.2-1.65-8.05-3.95-13.15-16.15-13.3-31.1l.15-5.35 1.5-4.75q1.45-4.25 1.3-2.55-.15 2 2.6 8.9 2.75 6.85 2.85 5 .25-6.3 4.45-12.45 4.2-6.1 7-4.2 4.05 2.8 10.1 11.55 6.65 9.65 7.85 16.1"/><path fill="#965e3a" d="M42.45 110.4q3.25-3.5 5.3-2.1 4.05 2.8 10.1 11.55 6.65 9.65 7.85 16.1.95 4.85-.75 14.1-1.55 8.4-.5 10.95-11.25-.75-17.55-2.95l-6.3-18.35q-3-10.6-3.05-20.75 1.8-5.15 4.9-8.55"/><path fill="#0d131a" d="M56.4 43.05l1.25-.25q2.6 11.5 5.45 36.75 2.55 22.45 2.8 30.85.2 6.85-.7 6.45-.9-.4-.95-6.9-.05-7.5-2.55-30.45-2.8-25.15-5.3-36.45m-18.2-27.8q-1.55-4.75.25-1.55l2.15 4.1q2.6 11.6 5.7 48.2 2.75 32.45 2.75 41.35 0 1.55-1.5.6L46 106.7q.3-9.6-2.5-45.65-2.95-38.6-5.3-45.8m-16.45 181.8l1.8-8.3q1.35-6.35 2.5-9.15 6.45-15.65 22.8-28.4 17.45-13.6 34.35-13.8 18-.2 31.15 12.15 8 7.5 20.55 28 8.85 14.35 13.75 20.9 8.5 11.35 17.9 18.7 24.2 19.05 93 76.9l13.95 14.2-18.75 3.95q.6 1.75 1.35 7.95.8 6.45.3 6.9-.6.5-4.3-1.9l-4.15-2.95q-2-1.6-6.35 1.2-2.35 1.5-18.8 13.95-18.8 14.25-37.65 15.6-21.05 1.5-57.05-11.2-27.15-9.55-40.15-32.35-8.4-14.75-10.8-35.85l-.65-5.6-.7-4.15q-1.9-1.75-8.1-5.55-7.15-4.4-9.7-6.3l-9.4-6.45q-5.5-3.9-7.3-6.6l-.5-1.65q-6.8-10.4-11.2-19.75-4.7-9.9-6.15-17.5-.1-.7-.9-1.5-.7-.75-.8-1.45"/><path fill="#f0e78e" d="M27.85 180.35q5.85-14.2 21.3-26.75 17.3-14 34.05-14.2 17.3-.2 29.85 11.55 7.65 7.15 20.2 27.6 8.75 14.3 13.9 21.15 8.6 11.45 18.2 19 24.15 19 92.85 76.8l11.45 11.65-8 1.7-9.95 2.25q-3.6 1-2.6 1.55l3 .05 1.5 6.55q1 4.9.8 5.1l-2.4-1.55-2.8-2.1q-1.75-1.45-2.85-1.7-1.6-.35-3.9.65-4.3 1.85-18.75 12.8-19.25 14.6-37.1 16.45-21.05 2.2-56.15-10.2-26-9.2-39.25-33.15-7.3-13.15-11.5-34.45-.75-3.65-1.55-5.65 6.85 2.9-.2-2.9l-14.65-11q-15.5-11.3-19.05-16.7-8.85-13.5-13.45-25.05t-4.6-20.25q0-5.15 1.65-9.2"/><path fill="#c9c279" d="M130.45 338.7q-21.4-7.6-34.15-25.15 34.4 20.65 67.15 20.8 27 .15 61.8-14.45 5.55-2.15 17.65-8.4 10.55-4.6 16.55-2.15-4.05.8-7.75 1.75-3.6 1-2.6 1.55l3 .05 1.5 6.55q1 4.9.8 5.1l-2.4-1.55-2.8-2.1q-1.75-1.45-2.85-1.7-1.6-.35-3.9.65-4.3 1.85-18.75 12.8-19.25 14.6-37.1 16.45-21.05 2.2-56.15-10.2"/><path fill="#0d131a" d="M76.55 187.55q-7.1.8-15.55 4.7-5.1 2.35-15.25 8.3-11.15 6.45-16.2 8.75l-.6.3-.25-.65q-6.9-18.1-2.35-29.2Q32.8 164.1 49 151.45q17.35-13.5 34.2-13.7 18.5-.2 32.2 11.9 9.1 8.05 21.75 28.45 8.7 14 13.8 20.9 8.65 11.8 16.95 18.6 16.15 13.3 113.65 72.35 4.1 2.3 2.25 2.3l-6.2-1.05-6.5-1.35-5.55-1.15 3.7 2.8q2.3 1.75 5.8 4.1 3.8 2.55 3.15 2.6l-4.6-.85-7.05-1.4-5.85-1.15q3.5 3.85 10.9 10.7 3.65 3.4 3.3 4.25-.4.85-5.3-1.35-7-4.1-15.35-8.9-16.85-9.6-33.8-17.75-55-26.3-109.15-36.4-1.7-.35-.75-1.75l2.35-4.4-6.35 1.45.35-1.4q3.25-10.3 4.7-23.2 1.45-12.6-.3-14.05-17.2-16.5-34.75-14.45"/><path fill="#bf794e" d="M27.55 180.25q6.3-15.3 22.2-27.75 17-13.25 33.45-13.45 17.85-.2 31.3 12.55 8.1 7.7 21.25 28.9 8.55 13.75 13.25 20.1 8.1 10.9 16.55 17.85 9.3 7.65 54.6 36.1l55.8 34.55-6.25-.85-6.7-1.3q-3-.75-2 .15l1.55 1.05 9.55 6.95-14.85-2.1q-1.05-.2 3.25 4.15l7.25 7.35q-24.8-15.45-55.95-29.4-51.55-23-99.75-31.4l2.65-5.15.85-1.4q.5-1.25-1.4-.4-3.95 1.75-5.65 2.1 2.05-6.8 3.5-15.75 1.55-9.3 1.55-15.4 0-5.5-1.35-6.65-17.6-16.9-35.95-14.7-7.35.85-15.95 4.8-5.15 2.35-15.25 8.25-9.85 5.8-15.4 8.35-3.8-10.35-3.8-18.1 0-5.15 1.7-9.4"/><path fill="#965e3a" d="M25.85 189.65q0-5.15 1.7-9.4 6.3-15.3 22.2-27.75 17-13.25 33.45-13.45 17.35-.2 30.55 11.85 8.45 7.7 20.75 27.55-26.85-10.25-55.8-4-29.15 6.3-51 27.3-1.85-6.85-1.85-12.1m143.7 51q9.35 2.25 27.5 8.3 19.05 6.4 27.9 8.65l36.9 22.85q-23.25-3.7-39.9-.65-52.7-24.95-102.6-34.75 18.95-11.85 50.2-4.4"/><path fill="#0d131a" d="M24.6 191.3v-.4l11-7.15q12.65-8.55 17.45-11.15 10.45-5.8 19.65-7.3 12.05-.15 27.2 8 8.25 4.45 22.55 14.9l1.75 1.3q3.75 2.7-2.35 20.65-5.75 17.05-13.75 29.55l-1.2-.45q2.1-11.85 2.25-21.25.2-14.1-4.35-17.95-17.8-12.9-29.2-12.3-5.9 2.25-13.5 5.8l-14 6.8-19.15 9.25-.25-.65q-3.7-9.65-4.1-17.65"/><path fill="#152139" d="M36.3 184.85q11.1-7.45 16.95-10.55 9.9-5.2 19-6.65 11.7-.15 26.25 7.6 8.25 4.35 21.85 14.3l1.75 1.3q1 .7 1 3.6 0 6.35-4.1 18.6-4.35 12.8-10.25 22.95l1.65-10.1q.85-6.2.85-10.65 0-13.6-4.7-17.65-7.75-5.65-16.25-8.65-8.3-2.9-14.85-2.5h-.1l-.1.05q-9.4 3.55-27.7 12.7l-17.9 8.6q-3.35-9.25-3.7-16.2l10.35-6.75"/><path fill="#0d131a" d="M72.65 167.8l.55-.3 1.15-.2q1.3 1.85 2.1 6.7.7 4.4.7 9.1 0 2.35-.35 4.1l-.1.55.4.05q-.05.25-2.35 1.3l-11.15 4.5q-9.9 4-15.55 6.8L38 205.35l.3-1.35q2.6-11.4 16.8-23.7 8.1-7 17.55-12.5"/><path fill="#fff" d="M72.75 169.25q1.2 2.2 2.1 6 1 4.15 1 7.9l-.3 3.3h-.25l-.05.05q-8.85 3.4-27.8 12.7L40 202.85q3-10.35 15.95-21.55 7.7-6.65 16.8-12.05"/><path fill="#dbdcdc" d="M75.55 178.95q-13.8-.55-26.7 9.3 5.5-6.15 13.6-12.15 5.2-3.85 10.3-6.85 1.95 3.55 2.8 9.7"/><path fill="#0d131a" d="M51.85 182.3q1.75-.9 3.85.3 2.1 1.15 3.4 3.75 1.3 2.65.95 5-.35 2.4-2.15 3.3-1.75.85-3.85-.3-2.1-1.2-3.4-3.8-1.6-3.25-.7-6 .55-1.65 1.9-2.25"/><path fill="#fff" d="M53 186.65q.5-.5 1.9 2.2 2.2 4.05 1.15 3.5-1.05-.6-2.3-2.9-1.25-2.3-.75-2.8"/><path fill="#0d131a" d="M21.95 178.95l.25-1.35.9 1.05 5.4 7.2q4.9 6.75 5.2 7.8l.05.35-.3.7-10.05-.3-.4-.05-.1-.4q-1.15-3.6-1.5-6.2-.6-4.55.55-8.8"/><path fill="#fff" d="M22.85 183.7l.25-2.9q8.5 11.4 9.25 13.05-1.55 1.05-3 1.4-2.8.65-5.25-1.7-1.25-4.15-1.25-9.85"/><path fill="#0d131a" d="M28.85 194.7q1.1-1.7.8-4.95l2.7 4.1-3.5.85m-.55-6.55q.05 4.75-.65 5.95-.45.75-1.6.2-2.45-5.65-.95-11.4l1.6 2.55 1.6 2.7"/><path fill="#fff" d="M26.95 189l.15 3.1-.3.25q-.45-1.2-.55-2.3l-.05-2.7.4.8.35.85"/><path fill="#0d131a" d="M343.3 273.35l3.2.4q2.15.6-3.3 1.55-6.2 1.1-21.75-2.45-14.55-3.3-27.05-8.15 26.1 13.3 40.6 18.8l2.7 1.5q1.75 1.3-3.1.4-18.05-3.35-40.2-11.4-12.4-4.5-34.35-13.8 6.65 4.3 19.5 11.45l19.35 10.5 6.25 3.35-.55 1.85q-13.6-1.55-33.05-9.65-20.1-8.4-41.25-21.6-49.85-31.2-79.7-71.45-8-10.75-21.75-15.85-13.8-5.15-30.25-3.5-19.75 2.05-35.65 12.7Q47 188.65 39.4 205q-.15.3-1.8-2.15-1.75-2.6-2.05-2.65-1.75-.25-7.8-8.85-6-8.45-6.9-11.55l-.7-2.05q-.55-1.55-.55-2.45 0-6.6 3.45-14.8 3.9-9.35 9.85-13.9 7-9.8 14.55-15.1 9.2-6.4 23.35-9.55 9.9-2.2 18.75-1.8 5.1.2 13.15 1.7l5.75.95q14.8-.95 38.35 10.5 17.5 8.5 33.5 20.3 11.9 8.8 26.65 22.05l26.15 24.3q35.1 33.3 53.4 46.75 30.55 22.5 56.8 26.65"/><path fill="#efe908" d="M205.65 177.15l26.05 24.2q32.45 30.75 49.4 43.75 28.25 21.55 52.4 28.1-17.4-1.65-40.45-11.05-7.4-3.05-16-7.15-7.95-3.85-10.05-4.8-5.3-2.35-3.65-.55l2.7 2.3 20.8 11.05q23.65 12.3 39.5 19.1-13.85-3.2-40.7-13.6-18.9-7.35-32.7-13.5l-1.1 1.55q5.2 5.5 46.1 27.3l1.05.55q-14.25-2.8-32.95-11.25-19.45-8.75-39.3-21.65-46.45-30.1-74.55-68-8.35-11.2-22.55-16.5-14.3-5.35-31.25-3.65-20.1 2.05-36.35 12.9-16.25 10.8-24.2 27.45-2.15-1.4-8.15-11.6-5.9-10-7.05-13.85-.3-1.1-.3-3.05 0-6.4 2.9-14 3.45-9.05 9-13.15l.2-.2q6.75-9.55 14.1-14.7 8.9-6.2 22.65-9.25 9.7-2.1 18.3-1.75 5.1.2 12.85 1.65l7.1.7q12.6.6 35.15 10.95 20.55 9.45 34.5 19.75 11.85 8.75 26.55 21.95"/><path fill="#e85377" d="M34.25 148.05l.3-.3q-7.9 15.35-8.3 19.75-.3 4.1.7 10 1.25 7.5 4.2 14.55l2.55 6.45q-3.3-4.95-6.75-11.25-3.55-6.45-4.3-9-.3-1.1-.3-3.05 0-6.4 2.9-14 3.45-9.05 9-13.15"/><path fill="#cec90c" d="M44.95 171.65Q52.55 157 64 152.25q27.2-11.6 55.05-6.15 23.8 4.6 50 22.2 19.35 12.95 45.95 37.6l43.05 40.1q18.8 16.45 43.9 28.55-13.05-4.65-29.2-11.2l-19.8-8.35-1.1 1.55q5.2 5.5 46.1 27.3l1.05.55q-14.25-2.8-32.95-11.25-19.45-8.75-39.3-21.65-46.45-30.1-74.55-68-8.35-11.2-22.55-16.5-14.3-5.35-31.25-3.65-20.1 2.05-36.35 12.9-16.25 10.8-24.2 27.45-.95-.65-2.85-3.35 4.5-18.25 9.95-28.7"/><path fill="#0d131a" d="M45.7 177.35q7.05-13.1 13.3-18.05 19.45-13.85 44.5-11.7 28.35 2.5 49.7 25.75 31.7 34.6 85.65 71.25 29.75 20.15 54.35 33.55l18.8 9.95q1.65.8-.35.65l-7.25-.85q-13.7-1.45-32.95-9.2-20.3-8.15-41.2-21.05-50.2-31.1-79.4-73.15-7.6-10.95-21.7-16.15Q115.3 163.3 98.6 165q-19.85 2-35.85 12.7T39.1 204.85q-.25.6-.85.65-.9.15-2.5-1.8l-.2-.25.05-.35q3-12.5 10.1-25.75"/><path fill="#e85377" d="M60.9 160.9q19.15-13.65 43.1-11.7 27.3 2.2 48.2 25.05 31.35 34.2 83.95 70.25 32.3 22.15 67 41.4-14-2.4-33.3-10.8-19.95-8.75-40.65-21.9-48.65-30.9-77.3-69.5-8.15-11-23.35-16.45-15.05-5.4-32.05-3.65-19.85 2-35.4 12.95Q45.95 187.2 38 204.1l-1.05-1q2.9-11.7 10.55-24.85 7.2-12.45 13.4-17.35"/><path fill="#c94768" d="M151.9 183.7q-6.6-8.9-18.1-14.3-11.25-5.25-24.8-6.05 16-2.75 30.8-.35 6.65 4.95 12.4 11.25 32.4 35.25 86.85 72.25 23.55 21.9 53.3 36.9-32.45-9.35-70.8-35.2-43.55-29.3-69.65-64.5"/><path fill="#0d131a" d="M53.1 145.25q3.3-2.4 5.15-3.35 2-1.1-.35 1.05l-4.9 4.4-4.7 4.65q-3.6 3.9-7.2 9.65-4.95 7.95-5.5 13.4-.45 4.6-.05 13.6.3 8.95 0 12.9l-1.35-.1q.4-4.7 0-12.75-.4-8.75.1-13.8.55-5.6 5.7-14.15 3.5-5.75 6.35-9.05l2.55-2.9q1.65-1.75 4.2-3.55"/><path fill="#0d131a" d="M36.45 143.3l3.7-3.4q-2.6 3.35-6.1 10.05-3.75 7.25-5.95 13.55-1.9 5.45-.15 15.1 1.45 7.95 4.55 15.05l-1.3-.8q-3.7-8.55-5.1-14.05-2.2-8.7-.3-14.15 2.3-6.55 5.25-12.45 2.85-5.55 5.4-8.9m34.2-8.4q-2.7 1.9-3.65 2.05-1.1.2 2.9-3.1 7.7-6.35 20.85-9.05 10.3-2.1 22.1-1.7l2.2.05 4.75 2-8.4-.85q-6.1-.5-16.3 1.35-14.85 2.7-24.45 9.25m-8.75 80.3l.1 1.05q.35 6.9-2.3 17.45-2.9 11.3-6.55 14.5-1.65 1.5-11.9 5.05-9.45 3.3-11.65 3.6-1.05.2-1.35-.25-.3-.4.4-1.15 2.85-3.2 1.8-13.8-1.2-12.05-7.4-20.35l-1.7-2.3 40.55-3.8"/><path fill="#922f00" d="M51.85 246.75q-1.35 1.2-8.75 4.05-7.5 2.85-11.9 3.8 2.45-5.6 2.45-11.25 0-10.9-8.7-22.7l35.1-3.3v.5q0 7.15-2.55 16.5-2.65 9.75-5.65 12.4"/><path fill="#0d131a" d="M48.6 216.8l13-1.25.05.7q.4 6.85-2.25 17.35-2.85 11.2-6.45 14.4-1.65 1.45-9.5 4.4l-.4.15-.3-.3q-4.7-5-5.7-11.4-1.05-6.7 2.2-13.55 1.15-2.45 3.05-4.85 2.05-2.65 4-4l2.3-1.65"/><path fill="#ed8599" d="M60.35 217v.7q0 7-2.45 16.4-2.65 10.1-5.8 12.9-1.35 1.2-8.7 4-4.9-5.5-4.9-13.15 0-4.3 2.35-9.65.85-2.05 2.4-4.45 2-3 3.8-4.25l2.05-1.45L60.35 217"/><path fill="#0d131a" d="M43.55 216.95l18.35-1.75.1 1.05q.4 7.25-1.8 17.5-2.5 11.45-6.05 14.55-1.8 1.6-11.1 4.8-9.15 3.2-13.05 3.7l-.55-1.85q9.65-4.15 13.8-14.7 4.1-10.55.6-22.15l-.3-1.15"/><path fill="#f19963" d="M60.05 217.35v.5q0 7.15-2.55 16.5-2.65 9.75-5.65 12.4-1.05.9-6.05 2.95l-9.85 3.55q5.45-4.2 8.45-10.75 3-6.55 3-14.1 0-4.65-1.4-9.7l14.05-1.35"/><path fill="#0d131a" d="M28.85 191.1q2.95-1.3 8.55.05 4.1.95 5.7 1.95 4.7 2.6 19.45 22.25.7 1.2.65 1.5-.1.4-1.25.6l-17.45 3.6q-16.4 3.45-17.35 3.85-1.1.45-8.85 10-7.7 9.5-10.05 13.2-1.05 1.6-1.7 0-2.2-4.9-4.6-14.5-3.4-13.55-.95-17.55 3.9-6.35 14.6-15.4 9.3-7.85 13.25-9.55"/><path fill="#f19963" d="M36.55 193.35q4.3.65 5.7 1.35 2.7 1.55 10.8 11.25 7.9 9.5 7.4 9.7L43.9 218.6q-16.5 3-18.2 4.05-2.5 1.6-8.2 8.45-6.55 7.85-10 14.4-1.5-4-2.9-10.6-1.55-7.6-1.55-12.6 0-3.85 1-5.5 3.85-6.35 13.35-14.65 8.2-7.2 11.45-8.6l7.7-.2"/><path fill="#0d131a" d="M127.8 328.95q2.1-1.95 4.7-3.2 2.85-1.35 5.25-1.4 5.7-.15 10.25 4.15 3.35 3.25 10.75 20.4 7.2 16.7 9.15 25.15l1.85-1.35q5.5-3.9 7.9-6.8 4.1-5.05 5.6-12.65l.15-.9 24.3 2.55-.7 2.9q-.45 1.9-1.05 9.15-.5 6.3-1.25 7.65-.9 1.6-3.15 3.05l-2.05 1.15-12.5 8.35q-7.55 5.45-11.6 10.85-.9 1.2-.45 7.1l1 8.8.4 3q.45 4.8-2.55 10-3.5 6-9 6.55-2.2.2-5.55-1.45-3.05-1.55-5.25-3.7-3.1-2.95-2.9-5.6.1-1.45 2.15-5.35l1.85-3.5q.75-1.75.35-2.85-.35-.95-1.6-1.45-2-.85-5.5-5.3-3.45-4.3-4.15-6.6-1.6-5.2-4.25-9.95-3.2-5.7-7-8.95-6.45-5.5-14.4-10.1-3.55-2.05-15.4-8.1l-2.05-.8q-5.05-.25-8.25-4Q89.2 351.5 90.6 345q.45-2.05 2.1-3.95 1.5-1.75 3.65-3 1.95-1.15 4.35-1.6l4.45-.2-.15-1.45q0-3.25 1.55-5.7 1.5-2.5 4.4-3.75 4.05-1.85 8.95-.75 4.8 1.05 7.9 4.35"/><path fill="#f19963" d="M126.7 330.6q-1.55 3.95-.65 7.9 1.1 4.7 5.45 6.5 3.8 1.6 10.95 13.1 6.15 9.8 8.1 15 1.4 3.7 2.25 3.75.85.05-.25-3.65-1.6-5.25-7.55-15.55-7-12.1-11.15-13.8-3.65-1.5-5.1-5.75-1.25-3.8-.15-7.25 3.75-3.8 8.55-3.9 2.65-.1 4.85.75 2.5.9 3.95 2.85 8.7 11.55 16.05 32.5 3.65 10.45 6.05 19.1.55.65.65-1.3.15-1.95-.25-4.65l2.45-1.9q5.45-3.85 8-6.9 4.35-5.25 6.05-12.9l20.3 2.15-.15.7q-.75 2.95-1.55 8.4-.8 5.15-.8 6.6 0 1.15-2.15 2.6l-2.15 1.2q-8.3 5.5-12.7 9-7.6 5.95-11.9 11.65-.9-4-1.4-3.6-.55.5.4 8.8l.55 6.1.6 6.05.45 3.75q0 4.15-2.6 8.35-3 4.8-7.25 5.2-1.65.2-4.4-1.2-2.8-1.35-4.85-3.4-2.4-2.3-2.3-4 .1-1.05 1.95-4.55 2.55-4.75 2.45-8.8-.15-5.9-.75-6.1-.65-.2-.75 4.2-1.75-.75-5.5-4.7-3.85-4.05-4.35-5.85-1.7-5.45-4.5-10.4-3.35-6-7.35-9.4-7-5.95-14.3-10.6-6.1-3.9-15.25-8.55l2.35-1.1-4.6.2q-3.25.65-6.65-2.8-3.8-3.85-2.7-9.1.8-3.5 4.25-5.55 4-2.35 7.2-1.5.9 4.45 4.6 7.6 3.55 3.15 7.95 3.55 2.1.25 11.35 10.6 6.15 6.9 11.7 13.85 2.65 3.3 3.15 2.9.4-.35-1.1-3.15-1.9-3.6-11.15-14.25-10.1-11.65-12.9-11.9-3.95-.4-7.05-3.2-2.65-2.45-3.7-5.5l.1.05-.3-1.6q-.65-3.6.55-6.2 1.15-2.55 4-3.85 3.6-1.6 8-.6 4.4 1.05 6.95 4.05"/><path fill="#d18456" d="M137.65 326.95q5.65.1 8.3 3.6 8.05 10.6 14.9 29.25 1.65 4.45 6.75 21.15l-.05 2.25q-.15.5-1.15-.3-4.65-11.95-10-24.45-10.75-24.95-18.75-31.5m48.45 41.85q-3.35.85-3.7.55-.45-.4-.65-2.1-.2-1.85-.85-2.6 2.7-4.2 4.05-10.15l20.3 2.15-.15.7q-.75 2.95-1.55 8.4-.8 5.15-.8 6.6 0 1.15-2.15 2.6l-2.15 1.2q-8.3 5.5-12.7 9-7.6 5.95-11.9 11.65l-.7-2.5q1.7-3 5.3-6.9l6.05-6.45q6.75-7.45 5.15-11.85-.4-1.05-3.55-.3M174 414.15l.45 3.75q0 4.15-2.6 8.35-3 4.8-7.25 5.2-1.95.2-5.65-1.85l7.1-3.7q3.35-1.9 3.55-5.95.35-9.75.75-15.15.65-9.95 1.9-8.95l.6 6.15.55 6.1.6 6.05"/><path fill="#0d131a" d="M371.7 63.85q6.35 1.5 9.5 5.95 2.55 3.55 1.9 6.65-.6 2.65-47.1 11.4l-54.7 9.75 60.65-3.45q32.25-1 39.05.2 5.6 1 8.55 5.5 2.35 3.6 2.35 7.75 0 4.45-2.65 7.2-2 2.1-5 2.8l-30.5 3.8-50.35 6.2 46.4-2.85 29.3-2q6.15-.25 5.35 2.25l-2.95 10.35q-3.35 9.55-7 10.8-2.35.85-34.85 5.35l-51.2 7.3q22.45-.3 36.65.3 18.55.8 19.55 3.1.8 1.8.8 5.1 0 2.7-1.15 6.1-.95 2.85-2.3 5.15-1.3 2.25-3.3 2.5l-60.95 7.55q30.8.45 34.1 2.3 1.95 1.05 1.95 3.3v.2q-.1 2.8-3.65 6.45-3.1 3.25-6 4.5-2.2.95-18.15 1.85l-25.9 1.05q27.45 6.75 29.25 8.25.7.6.7 1.65 0 2.05-3 6.1l-5.25 6.3-.3.4-28.05-.55q12.35 2.5 14.5 4.25l1.05.8q.8.65.8 1.4l-.1 1.05q-.8 3.15-5.8 7.05-4.85 3.85-8.8 4.6-5.2 1.05-26.3.3 20.95 7.6 21.3 11.35l.05.4q0 3.35-5.3 5.75-4.6 2.05-10.85 2.6-3.95.3-12.3-1.2 5.1 2.8 5.1 5.05v.25q-.15 1.05-1.35 1.95-3.3 2.5-13.05 3.55-10.25 1.1-19.15-.4l-1.05-.15 57.7-210.4.7-.05L279 67.2l61.75-2.95q27.95-1.1 30.95-.4"/><path fill="#f0e78e" d="M379.75 74.85q-2.8 2.05-42.55 10.05-32.15 6.5-72.7 13.8l.25 1.95 54.4-3.05q54.95-2.55 61.7-.1 4.6 1.7 6.3 5.7 1.05 2.4.9 5.15-.15 2.35-1.1 4.1-.95 1.75-2.2 2.05-4.8 1.15-104.75 14.15l.15 1.95 100.7-4.6q-1.75 5.5-3.9 9.85-3 6.05-5.5 6.9-5.4 1.85-97.4 16.3l.2 2q25.15-.6 44.5-.15 21.4.5 23.15 2.15.6 1.5.6 4.3 0 2.75-.55 5.45-.6 3-1.65 4.7-.85 1.5-1.75 1.55l-76.1 9.5.1 2q15.95-.1 29.05.35 16.25.55 18.4 1.75.9.5.9 1.55v.15q-.1 2.1-2.7 5.2-2.5 3-4.85 4-1.95.85-19.35 1.75l-31.3 1.2-.2 1.95 21.4 5.4q12.15 3.25 13.25 4.15l.05.3q0 1.1-1.9 4.2l-4.7 6.45-39.45-.8-.2 2 15.4 2.85q8.9 1.95 10.3 3.15.4.4.2 1.25-.65 2.6-4.6 6-4.1 3.55-7.55 4.25-3.8.75-18.4.45l-14.1-.45-.35 1.9q9.65 3.15 17.1 6.55 8.1 3.7 8.25 5.3.2 2.4-4 4.3-3.9 1.75-9.35 2.25-4.3.4-13.9-1.6l-8.9-2.05-.55 1.9q5.85 1.95 10.15 4.25 4.3 2.25 4.15 3.35l-.5.65q-2.65 2-14.3 3.3-11.95 1.3-15.3-.4Q178 264.8 212.85 166.9q17.5-49 38.55-96.4l27.7-1.35 55.65-2.7q31.95-1.35 34.85-.65 4.2.95 7.25 3.85 2.9 2.75 2.9 5.15v.05"/><path fill="#c9c279" d="M324.85 97.35l.65.6q2.85 8.65-4.6 16-2.65 2.6-7.5 5.95-5.5 3.65-8 5.45l-25.4 3.3 9.8.55q12.05.45 23.45-.1 4.25 6.95-17 19.15-6.65 3.8-15.05 7.7l-7.15 3.1.2 2 17.15-.3q6.05 4.65-10.7 16.65-5.3 3.85-12.15 7.85l-6.1 3.3.1 2h13.05q.5 5.7-10.85 12.5-11.35 5.6-11.2 5.65l7.25 1.8q2.65 7.05-8.35 14.05-5.5 3.5-11.5 5.6l7.2 1.25q-1.85 6.95-10 10.35-4.45 1.6-6.5 2.5-3.6 1.55-5.4 3.55l-4.05-.15-.35 1.9 6.55 2.3q-.15 1.7-4.95 4.3-4.65 2.55-8.15 3-1.5 3-3.45 5.4l-.8-.25-.5 1.65q-6.35 6.95-17.65 9.6-13.05-17.1 21.3-112.3 17.2-47.65 37.2-92.75l27.7-1.35L322.25 67q6.1 3.55 4.25 10.4-1.6 6-7.85 11.15L264.5 98.7l.25 1.95 19.2-1.2 40.9-2.1"/><path fill="#f0e78e" d="M313.9 79.9q-3.1 7.35-35.2 18.85-10.05 3.6-21.8 7.2l-9.7 2.85 11.15-1.5 24.4-2.15q35.4-1.8 34.8 7.7-.6 9.5-33.15 20.3-10.15 3.4-22.3 6.5l-10.1 2.4 10.2-.8q12.1-.8 21.55-.55 30.35.75 23.2 11.3-7.1 10.55-36.35 15.9-9.1 1.7-19.35 2.65l-8.45.65 9.15-.5q10.8-.35 19.05.05 26.35 1.4 16.95 10.5-9.35 9.1-32.7 13.7l-15.1 2.25-6.35.55 6.6.3 13.95 1.3q19.75 2.6 15.45 7.7-4.3 5.15-26.1 8.75l-20.95 2.6 16.25 1.85q15.2 2.85 9.9 7.55-5.25 4.7-18.3 6.8l-12 1.15 10.15 5.4q9.35 6.1 5.15 9.55-4.2 3.45-17.25 2.2L204.4 251l7.8 5.85q7.15 6.4 4.1 9-3.1 2.65-13.5.55l-9.75-2.65 6.05 7.6q5.4 7.85 2.2 9.05-3.2 1.2-10.1-1.95l-6.25-3.4v7.65q-.5 7.45-2.9 6.6l-5.65-2.05q-1.9-.9-2.65-2.2-.55-.95-3.15-13.7-.15-.85-2.85-5.05-3.2-4.95-4.8-8.45-5.7-12.6.65-22 11.55-17.15 11.05-52.35-.45-28.4-8.55-65.95-1.9-8.65 4.05-17.15 5.4-7.75 16.5-14.15 10.55-6.1 23.75-9.65 13.3-3.55 25.75-3.55 13.05.05 33.7-.55 19.05-.5 25.6-.4 11.1.2 15.35 1.75 4.9 1.85 3.1 6.05"/><path fill="#f0e78e" d="M313.9 79.9q-3.1 7.35-35.2 18.85-10.05 3.6-21.8 7.2l-9.7 2.85 11.15-1.5 24.4-2.15q35.4-1.8 34.8 7.7-.6 9.5-33.15 20.3-10.15 3.4-22.3 6.5l-10.1 2.4 10.2-.8q12.1-.8 21.55-.55 30.35.75 23.2 11.3-7.1 10.55-36.35 15.9-9.1 1.7-19.35 2.65l-8.45.65 9.15-.5q10.8-.35 19.05.05 26.35 1.4 16.95 10.5-9.35 9.1-32.7 13.7l-15.1 2.25-6.35.55 6.6.3 13.95 1.3q19.75 2.6 15.45 7.7-4.3 5.15-26.1 8.75l-20.95 2.6 16.25 1.85q15.2 2.85 9.9 7.55-5.25 4.7-18.3 6.8l-12 1.15 10.15 5.4q9.35 6.1 5.15 9.55-4.2 3.45-17.25 2.2L204.4 251l7.8 5.85q7.15 6.4 4.1 9-3.1 2.65-13.5.55l-9.75-2.65 6.05 7.6q5.4 7.85 2.2 9.05-3.2 1.2-10.1-1.95l-6.25-3.4v7.65q-.5 7.45-2.9 6.6l-5.65-2.05q-1.9-.9-2.65-2.2-.55-.95-3.15-13.7-.15-.85-2.85-5.05-3.2-4.95-4.8-8.45-5.7-12.6.65-22 11.55-17.15 11.05-52.35-.45-28.4-8.55-65.95-1.9-8.65 4.05-17.15 5.4-7.75 16.5-14.15 10.55-6.1 23.75-9.65 13.3-3.55 25.75-3.55 13.05.05 33.7-.55 19.05-.5 25.6-.4 11.1.2 15.35 1.75 4.9 1.85 3.1 6.05"/><path fill="#c9c279" d="M278.25 84.85q-20.95 7.3-31.1 11.9Q230.7 104.2 221 113q-11.65 10.5-15.55 24.45-3.25 11.5-6.75 32.7-4.4 26.9-6 34.55-4.05 19.25-9.75 32.05-7.05 15.8-17.85 25.25-3.8-6.65-4.65-12.2-1.1-7.65 3.15-13.95 11.55-17.15 11.05-52.35-.45-28.4-8.55-65.95-1.9-8.65 4.05-17.15 5.4-7.75 16.5-14.15 10.55-6.1 23.75-9.65 13.3-3.55 25.75-3.55l45.2-.85q20.95-.45 27.45 1.1-9.15 4.1-30.55 11.55"/><path fill="#0d131a" d="M295.55 69.85q10.2 1.15 16.05 3.5 5.6 2.2 5.6 4.75 0 3.55-1.85 5.85-2.2 2.75-8.2 5.6Q296.4 94.7 256 106.9q37.15-4.75 52-2.75 12.2 1.6 12.2 8.6 0 7.95-13.75 14.1-12.1 5.45-45.7 13.8 28.9-2 41.15.7 9.4 2.1 9.4 7.15 0 6.8-8.3 11.25-11.2 6-40 10.1 18.25.15 25.05 2.45 4.8 1.6 4.8 4.95 0 6.4-9.35 11-12.15 5.95-40.35 9.3 17.65 1.25 24.55 3.45 5.25 1.7 5.25 4.45 0 4.15-7.65 6.75-9.6 3.3-35.2 6.1l13.9 2q8.05 1.7 8.95 4.15 1.25 3.55-5.75 6.85-8.6 3.95-25.85 5 11.4 5.45 14.55 9.9 2.45 3.45-.4 5.75-3.5 2.9-13.55 2.3-5.5-.3-14.45-1.95 7.55 5.35 10.1 9.4 2.3 3.6.15 5.45-4.3 3.65-22.65-2.1 6.65 7.8 8.2 12.45 1.2 3.65-.85 4.45-3.4 1.3-8.4-.4-5-1.7-8.4-5.3.4 10.25-.6 13.65-.9 3.05-3.55 2.05-6.55-2.35-9.65-11.45-1-2.9-1.55-6.15l-.35-2.95q.05-1.1.25-1.7.4-1.15 1.1 1.6l2.25 9.05q2.55 6.1 8.7 8.3l.5-.05q1.1-.8 1.5-6.05.3-4.45-.05-8.2-.25-2.7.6-2.15.6.4 1.45 2.15.85 1.7 5.95 4 5.7 2.65 8.85 1.45.65-.25.7-.75.5-2-3.25-7.45-2.65-3.8-5.95-7.45l-.95-.8q-.55-.7 1.65-.25l11.2 2.6q9 1.7 11.4-.35.75-.7.7-1.55-.2-2.45-5.1-6.7-3.45-3.05-7.4-5.55l-1.35-.95q-.85-.85 1.85-.25 22.6 5 28.9-.15 1.2-1 1-2.2-.35-2.7-6.65-6.65-4.5-2.85-9.5-5l-1-.45q-.65-.5 1.25-.8l13.05-1.35q11.8-1.9 16.85-6.45 1.35-1.2 1.05-2.1-.8-2.35-10.2-4.2-7.7-1.5-16.6-1.95l-2-.45q-1.35-.5 2-.9l22.8-2.8q19.65-3.3 23.8-8.25.85-1 .45-1.75-1.2-2.8-13.6-4.65-10.15-1.55-22.4-1.85l-2.45-.5q-1.6-.55 2.45-.8 14.1-1 23.8-3 20.65-4.3 29.95-13.3 2.85-2.7 2.05-4.55-1.7-3.7-17-4.7-11.1-.75-25.55.05l-4.15.3-2.2-.35q-1.85-.45 0-.65l5.7-.55q17.05-1.3 30.95-4.5 23.05-5.25 29.1-14.25 1.2-1.7 1.2-3.15 0-.9-.45-1.65-3-4.95-24.1-5.45l-31 1.35-2.8-.1q-1.65-.35 4.05-1.8l13.65-3.3q12.1-3.05 21.25-6.1 28.15-9.4 28.7-18.6.05-1.75-1.4-3.15-6.3-5.7-38.05-3.55l-21.35 2.05-9.6 1.3-2.6.05q-1.75-.2 2.35-1.35 17.35-4.65 34.15-10.65 29.85-10.65 32.9-17.85.5-1.15-.25-2.1Q309 72.3 276.25 72q-27.2-.25-40 1.7l-.25-1.3q34.65-5.35 59.55-2.55"/><path fill="#0d131a" d="M338.1 60.05q5 1.15 5.4 1.55.75.7-4.95 1.45-31.5 4.15-67.3 14.4-34.15 9.75-61.6 21.9l-.85.35-.25-.7q-2.05-6-3.55-13.55-.85-4.15-2.25-13.25l-.1-.7 3.6-1.75q29.7-10.1 61.05-13.3 37.85-3.8 70.8 3.6"/><path fill="#f0e78e" d="M204.45 72.65q29.4-10 61.4-13.6 39.1-4.45 67.8 2.9-16.7 2.3-40.9 7.8-48.7 11.1-82.9 27.85-2.95-9.05-5.4-24.95"/><path fill="#bf794e" d="M171.75 85.15q9.25-4.8 23.85-10.25 20.75-7.7 42-12.4 4.15.95 6.9 3.3-3.45 2.45-11.65 5.25l-7.55 2.25 7.85.9q8.55 1.3 12.35 3.15-5.65 1.95-15.05 5.7l-8.3 3.35h6.6q7.45.05 11.85.25-18.75 6.5-32.15 12.5-14.45 6.45-20.5 11.4-7.35 6.05-8.35 14.5-.4 3.45.95 13.4l5 35.3q3.45 31.2-.25 40.35-2.95 7.25-11.15 29.05-8.1 18.8-15.25 22.3-8.95 4.35-17.95-6.5-8.45-10.2-11.55-26.35-2.45-12.75 7.4-8.2 4.9 2.25 10.3 7.05 8.55-10.25 12.8-16.95 7.85-12.35 7.35-20.4-.45-8.45-7.4-40.7-6.45-29.9-8.9-37.7-2.1-6.7 3.45-15.35 5.9-9.3 17.35-15.2"/><path fill="#965e3a" d="M222.15 86.4h6.6q7.45.05 11.85.25-18.75 6.5-32.15 12.5-14.45 6.45-20.5 11.4-7.35 6.05-8.35 14.5-.4 3.45.95 13.4l5 35.3q3.45 31.2-.25 40.35-2.95 7.25-11.15 29.05-8.1 18.8-15.25 22.3-4.85 2.4-10.1-.05-4.85-2.25-9.25-8.25 2.4 1.15 4.45 1.55l3.45-.15q15.55-8.05 22.15-24 5.6-13.35 5.25-33.5-.2-13.7-3.65-37.25-4.05-27.35-4.65-35.1-1.6-21.8 17.85-31.55 7.1-3.55 19.65-6.8l21.95-5.5-3.85 1.55"/><path fill="#0d131a" d="M245.9 76.65l.8.55q.5.6-.9.95-2.15.5-19.45 7.4l8.15-.05 8.4.1-2.05 1.6q-19.3 6.65-33.1 13-13.4 6.2-19.25 11-8.35 6.85-8.25 16.95.1 5.15 3.95 33.1 3.8 27.5 3.8 37.4l-.2 9.05q-.3 4.35-1.3 6.7l-4.1 10.95q-6.6 18.15-9.45 24.25-6.05 13.05-12 16.2-8.35 4.35-13.45 1.75-6.4-3.2-13.05-15.7-5.9-11.15-6.55-17.75-.45-5.4.15-5.5.6-.15 1.9 4.5 3.65 13.25 8.6 21.05 4.45 7 10.25 9.95 5 2.5 10.6-.45 5.65-2.95 11.75-15.65 3.55-7.4 9.25-23.2l4.1-11q1.9-4.7 1.9-15.1 0-9.05-4.15-34.55-4.35-26.5-4.65-36.35-.2-6.6 1.65-10.3 1.7-3.45 7.15-7.95 10.55-8.7 48.95-22.25l-6.75-.25-6.45.15q-3.8.25-2.45-.6.7-.45 2.15-.95l7.4-2.95q8.4-3.35 13.95-5.35-4.1-1.45-11.35-2.45l-6.6-.8-1.95-.2q-1.35-.4 1.8-1.4 17.3-5.45 17.85-6.75.3-.75-1.9-1.65-1.7-.75-3.8-1.2-19.9 4.4-40.05 12-14.4 5.45-25.1 10.95-10.65 5.5-15.6 11.5-5.3 6.4-5.25 14.75.05 3.55 2.55 12.35 3.05 10.75 3.75 14.6.85 4.75 5.65 26.3 4.45 21.05 4.9 28.7v.95q0 8.35-8.5 21.85-7.1 11.25-11.9 15.1-3.1 2.5-3.15 1.8-.1-.65 1.9-2.85 5.15-5.55 11.15-14.8 9.3-14.25 8.85-21.95-.4-7.35-9.05-40.75-9-33.75-9.9-38-1.9-8.8 2.35-16.3 4.65-8.25 16.5-14.35 10.3-5.3 26.85-11.45 21.75-8 41.95-12.45l4.6 1q4.85 1.35 6.05 2.95 2 2.7-16.15 8.1 11.7 1.5 16.25 3.75"/><path fill="#f0e78e" d="M223.75 310.95q9.55 1.95 4.4 10.9-5.6 9.75-7.5 14.9-3.35 8.9-3 18.8l-5.95 5.25q-3.2 3.25-4.4 6.55-.45-1.9-.75-6.15-.25-4.05-.85-6.15-1 2.15-3.9 6.5-2.75 4.2-3.8 6.6-.35-1.35-.55-4.8-.25-3.15-.75-4.7-1.8 1.75-3.3 4.4-1.7 2.9-1.9 5.05-.7-2.3-.7-7.25 0-4.85-.8-7.1-1.3.6-3.05 3.4-1.8 2.9-2.95 3.55-.2-5.25-1.35-8.5l-1.5 3.15-1.65 3.15q-.1-8.65-2.3-14.45-2.5-6.7-8.95-13.4-3.2-3.35 7.65-9 10.1-5.25 24.5-8.65 15.3-3.65 23.35-2.05"/><path fill="#0d131a" d="M225 325.6q2.7-5.25 4.1-7.4.9-1.3 1.45-.5.55.8-.3 2.3l-3 5.8q-3.6 7.45-5.65 17.9-1.1 5.35-1.95 11.05-.4 1.4-4.5 5.05-4.8 4.3-6.15 6.15-2.35 3.35-2.75-.05l-.95-8.45-2.25 3.5-3.2 5.35q-1.35 2.55-1.85 2.6-.6.05-.95-3l-.8-5.45-2 2.6q-.95 1.4-1.45 3.1-.95 3-1.6 2.7-.6-.25-.85-2.6l-.5-6.3-.4-4.7-2.5 2.95-2.5 3.25-.95 1.3q-.4.2-.3-2 .1-2.15-.15-3.6l-.6-2.6-1 2.15q-1.15 2.6-1.85 2.2-.65-.35-1.25-3.55-1.15-6-3.8-12.7-3.3-8.25-6.8-11.35-4.4-3.9-3.1-3.8 1.25.1 4.1 2.5 4.95 4.1 8.15 11.5 2.95 6.85 3.3 13.85l2.1-4q1.2-2.55 1.45-1.45l.95 9.05q3.9-5.1 4.95-5.95.95-.8 1.1-.6l.05 1.05.9 11.15q1.75-3.9 4.4-6.55l.55-.9q.6-.55.8 1.25l1 7.2 3.2-5.3 3.3-5.6q.2-.75.5-1.1.6-.7 1.05 1.2.65 3.05 1.2 9.9 2.05-3.45 7.55-8.2l1.6-2.05q0-12.25 8.15-28.85M20.3 339.95q2.55-4.3 8.5-6.95 5.45-2.5 7.7-1.3 2.6 1.4 2.95 5.6.3 4.1-1.85 4.85-4.5 1.55-6.4 2.45-5.05 2.5-9.55 6.65l-2.85 2.6q-.7.3-1.15-2.05-.65-3 .15-6.1.65-2.55 2.5-5.75"/><path fill="#eeeeef" d="M26 345.7q-4.2 2.85-6.95 6.3v-.05q-.65-4.6 1.85-9.4 3.85-7.35 13.85-9.35 1.65.4 2.75 2.9 1.25 2.85-1 4.75-5.45 1.35-10.5 4.85"/><path fill="#c8c9ca" d="M37.75 336.75q.7 2.4-1.25 4.1-6.9 1.7-12.8 6.55 5.85-8.75 14.05-10.65"/><path fill="#0d131a" d="M44.45 312.2q6 .6 7.35 2.75 1.55 2.5-.25 6.3-1.85 3.75-4.05 3.3l-6.75-1.05q-5.65-.4-11.6.95l-3.75.85q-.75-.1 0-2.35.95-2.95 3.15-5.2 1.85-1.95 5.05-3.75 4.4-2.45 10.85-1.8"/><path fill="#eeeeef" d="M47.2 322.9q-5.35-1.6-11.5-1.1-5.05.4-9.15 2 1.75-4.35 6.3-7.25 7-4.45 16.65-1.15 1.2 1.15.95 3.85-.35 3.1-3.25 3.65"/><path fill="#c8c9ca" d="M50.35 319.85q-.55 2.5-3.15 3.05-4.8-1.4-10.3-1.15-4.5.2-8.65 1.45 5.25-2.95 10.7-3.85 5.8-1 11.4.5"/><path fill="#0d131a" d="M72.15 315.3q1.8 2.4.35 6.35-1.5 3.85-3.75 3.6l-6.8-.4q-5.65.1-11.45 2L46.8 328q-.75 0-.2-2.35.65-3 2.65-5.45 1.65-2.05 4.7-4.15 4.15-2.85 10.65-2.8 6.05.05 7.55 2.05"/><path fill="#eeeeef" d="M47.8 326.4q1.4-4.5 5.65-7.75Q60 313.6 69.95 316q1.3 1.05 1.25 3.75-.05 3.1-2.9 3.9-5.5-1.05-11.55 0-5 .85-8.95 2.8v-.05"/><path fill="#c8c9ca" d="M53.15 324.45q6.9-2.55 17.6-2.8-.7 1.5-2.45 2-7.2-1.4-15.15.8"/><path fill="#0d131a" d="M102.95 408.25q3.5-.35 6.1.9 3.85 1.8 3.2 6.55-.45 3.1-4.85 6.05-4.05 2.7-8.65 3.65-3.1.6-6.3.1-2.45-.4-4.4-1.25-1.55-.7-1.6-.95l1.5-1.05L96 417.4q4.45-3.45 4.95-7.1.1-.7.65-1.3.6-.7 1.35-.75"/><path fill="#eeeeef" d="M108.9 411.65q1.5 1.4 1.7 3.8-4.2 6.75-12.2 8.35-5.1 1-8.95-.55 4.75-1.85 8.65-5.5 4.25-4.05 4.5-7.85 4.25-.15 6.3 1.75"/><path fill="#c8c9ca" d="M110.6 415.45q-3.9 6.2-11.2 8.1 6.35-5.25 8.45-12.65l1.05.75q1.5 1.4 1.7 3.8"/><path fill="#0d131a" d="M80.45 364.75q-.65-3.05.15-6.05.65-2.6 2.5-5.75 2.55-4.3 8.5-7 5.45-2.5 7.7-1.3 2.65 1.4 2.95 5.6.3 4.1-1.85 4.85-4.35 1.5-6.35 2.5-5.1 2.45-9.6 6.6l-2.85 2.6q-.65.3-1.15-2.05"/><path fill="#eeeeef" d="M81.85 364.95q-.65-4.6 1.85-9.4 3.85-7.35 13.85-9.35 1.65.4 2.75 2.85 1.25 2.85-1 4.8-5.45 1.35-10.5 4.8-4.2 2.9-6.95 6.3"/><path fill="#c8c9ca" d="M99.8 348.2q.9 1.4.9 2.75 0 1.65-1.4 2.9-5.45 1.35-10.5 4.8-4.2 2.9-6.95 6.3l-.05-2.45q3.15-3.6 8.55-7.6l9.45-6.7"/><path fill="#0d131a" d="M91.9 332.8q1.9-1.95 5.05-3.7 4.35-2.5 10.8-1.85 6 .6 7.35 2.75 1.6 2.5-.25 6.3-1.8 3.75-4 3.3l-6.75-1.05q-5.65-.4-11.6.95l-3.75.85q-.75-.1 0-2.35.95-2.95 3.15-5.2"/><path fill="#eeeeef" d="M89.85 338.85q1.8-4.35 6.35-7.25 6.95-4.45 16.65-1.15 1.2 1.15.95 3.85-.35 3.1-3.25 3.65-5.4-1.6-11.55-1.1-5 .4-9.15 2"/><path fill="#c8c9ca" d="M90.1 338.3q5.35-3.75 11.3-5.15 6.2-1.5 12.35-.25.2 1.75-.45 3.05-.8 1.6-2.75 2-5.4-1.6-11.55-1.1-5 .4-9.15 2l.25-.55"/><path fill="#0d131a" d="M131.55 327.8q6.05.05 7.55 2.05 1.8 2.35.35 6.3-1.5 3.9-3.75 3.65l-6.8-.4q-5.6.1-11.45 1.95l-3.65 1.2q-.75-.05-.25-2.35.7-3.05 2.7-5.45 1.7-2.1 4.7-4.15 4.1-2.85 10.6-2.8"/><path fill="#eeeeef" d="M123.7 338.15q-4.95.85-8.95 2.8 1.4-4.5 5.65-7.75 6.55-5.1 16.5-2.7 1.3 1.05 1.3 3.75-.05 3.1-2.9 3.95-5.5-1.1-11.6-.05"/><path fill="#c8c9ca" d="M126.85 334.55q5.55-1.9 11.2-1.55.3 1.7-.25 3.05-.65 1.6-2.5 2.15l-9.95-.3q-4.4.55-8.35 2.1 4.45-3.65 9.85-5.45"/><path fill="#0d131a" d="M162.9 422.1q5.25 1.35 4.35 7.6-.4 3.1-4.85 6.05-4 2.7-8.65 3.65l-6.3.15q-2.45-.4-4.35-1.3l-1.6-.95q0-.25 1.5-1.05 5.9-3.1 8.55-5.25 4.55-3.75 4.5-7.8.8-.8 2.75-1.2l4.1.1"/><path fill="#eeeeef" d="M165.6 429.45q-4.2 6.75-12.15 8.35-5.1 1.05-8.95-.5 4.75-1.9 8.6-5.55 4.3-4.1 4.55-7.85 4.25-.15 6.25 1.75 1.7 1.65 1.7 3.8"/><path fill="#c8c9ca" d="M163.9 425.65q1.7 1.65 1.7 3.8-4.2 6.75-12.15 8.35l-.9.15q6-4.95 10.8-12.7l.55.4"/></svg>