<svg xmlns="http://www.w3.org/2000/svg" width="114" height="148" viewBox="-1.25 -0.8 114.4 148.0"><path fill="#fffbda" d="M74.1 121.9l1.9 1.3q3.65 2.35 4.3 3.55l.4 1.35-.05.4-1.15 1.05-.45.2.25.45.1.45-.45 2.55q-3.7-1.75-7.2-1.7l-5.4-.1q-2.55-.25-2.9-.8-1.95-3.15 1.9-6.3 3.9-3.2 8.75-2.4"/><path fill="#dcd9bd" d="M74.1 121.9l1.2.8q-1.8.85-2.5 1.55-1.5 2.15-1.05 4.15.35 1.65 2.05 3.4l-2.6-.05-4.1-.5-2.15-.55q-1.35-.45-1.5-.75-1-1.7-.35-3 .7-1.25 3.1-2.5l4.35-.85 3.55-1.7"/><path fill="#914897" d="M63.5 115.4q3.6.15 5.7 1.95.95.8 4 2.75 1.35.8.7 1.95L71.95 124q-1.55 1.15-4.85 1.2-2.3.1-3.25 1.55-1.1 1.6.2 3.9l-2.1-.7q-3.65-1.55-5.3-2.65-2.7-1.8-3.05-3.8-.45-2.5 2.4-5.3 3.1-3.05 7.5-2.8"/><path fill="#7f3c83" d="M63.5 115.4q3.6.15 5.7 1.95.95.8 4 2.75 1.4.8.75 2.5-.6 1.4-2 2.45-1.6 1.2-5.25 1.3-1.8.05-2.3 1.45-.55 1.4.55 3.4l-3-1.25q-3.65-1.55-5.3-2.65-2.7-1.8-3.05-3.8-.45-2.5 2.4-5.3 3.1-3.05 7.5-2.8m-29 19.05q-3.45.4-5 .05-1.55-.4-2.3-1.3-.85-1.05-.1-.65l4.25-1.8q4.25-1.8 5.45-1l1.65 1.5 1.6 1.55.75.75-6.3.9"/><path fill="#fffbda" d="M58.6 139.15q1.35-.7 2.15-2.65.6-1.4 1.55-2 1.05-.6 2.85-.4l2.05.05 3.8 1.65 3.4 1.6q3.4 1.85 3.25 3.85l-1.35-.35-1.5-.15q1.7 1.6 1.35 3.85-1.3-.6-3.8-1.1.4 1.3.15 2-7.8-2.5-11.35-2.75-2-.15-3.25-.9-1.2-.75-2.05-2.35l2.75-.35"/><path fill="#dcd9bd" d="M70.2 137.5q1.85.4 4.15 1.55 2.4 1.2 3 2.05l-2.45-.25q-2.05-2.25-4.7-3.35m-4.35 1.55q5.45.35 8.85 4.8l-2.4-.5q-1.1-1.45-2.85-2.65-1.9-1.35-3.6-1.65"/><path fill="#0d131a" d="M71.8 127.15l4.2.8q2.05.25 3.3 4.5.35 1.15-.3 1.2l-2-.65q-2.25-1.2-7.05-1.1l-5.05-.15q-1.35-.3-2.1-2.1l.1-.45q.2-.25.25-.05.6 1.45 3.05 1.8l4 .1 3.85.15q2.5.3 4.25 1.3-.4-2-1.05-2.9-.85-1.1-2.3-1.15-1.55-.05-3.5-.95-.9-.4-.7-.5l1.05.15"/><path fill="#0d131a" d="M73.35 125.8q-.5-.2-.35-.4.2-.2.9 0l4.3.7q1.65.05 2.8 1.05 1 .9 2 2.95.9 1.75.8 2.05l-1.65-.15-2.4-.8-.45-.5q-.3-.45-.1-.4 2.55.45 3.4.95l-1.4-2.9q-1.1-1.6-2.9-1.65-3.15-.15-4.95-.9"/><path fill="#0d131a" d="M66.95 118.65l.65-.65 1.95 2.75q1.45 2 2.2 2.35 2.4 1.1 6.6 1.25 1.95.05 4.95 2.6 2.95 2.15.2 1.9l-1.45.1-.35-.45q-.2-.45 0-.45l2.05.15-2.5-2.05q-1.75-1.1-2.95-1.15l-4.4-.45q-2.3-.5-3.05-1.25-2.45-2.2-3.9-4.65"/><path fill="#fffbda" d="M77.9 133.45l2.55-.55q.85-.55 1.25-2.1.2-.9 1.2-1.75 1-.95 2.05-1l1.25.05 1.2-.1 2.8 1.1 2.15.8q3.1.85 3.9 3.65l-2.1-.1q1.3 2.05 1.15 3.85-1.8-.85-3.7-1 1 2.4.2 2l-2.85-1.1-3.35-.95-4.25-.65q-3.25-.75-3.45-2.15"/><path fill="#dcd9bd" d="M90.4 131.05q3.5.6 5.4 2.5l-1.85-.2q-1.95-1.75-3.55-2.3m-10.75 4q-1.15-.55-1.6-1.3 1.5.15 2.6-.45 1.2-.7 1.4-2 2.4 2 5.35 3.15 1.05.4 2.25 1.55t1.45 2.1q-1.45-.85-4.55-1.6l-4.45-.8q-1.35-.05-2.45-.65m5.55-3q2.35-.15 5.4 1.35 3.05 1.55 4.4 3.65-1.8-.85-3.45-.8-1.8-2.65-6.35-4.2"/><path fill="#914897" d="M62.5 89q.95-2.1 3.1-4.15 2.5-2.3 4.9-2.75 3.65-.6 5.2.95.75.75.95 7.1l.15 5.65q.15 3.5.8 6.15 1.2 4.9 6.3 22.1.6 2.05 2.5 3.2 1.05.65.8 1l-.95.15q-1.5-.2-2.65.55-1.3.8-1.5 2.3-.2 1.35-1.45 2-1.15.65-2.75.5l-.8-2.15-1.25-2.1q-5.45-6.6-8.8-11.35-1.3-1.85-2.1-3.85-.75-1.8-.75-2.85.05-1.55-1.4-11.8Q61.6 91 62.5 89"/><path fill="#7f3c83" d="M64.35 97.7q1.2-4.3 5-8.7 3.65-4.2 6.6-5.05.5 2 .65 6.85l.15 6.1q-3.6 1.3-5.75 4.95-2.4 4.1-1.15 8.65 1.1 3.95 4.55 10.15 3.1 5.6 5.7 8.75l1.95 1.9q-.2 1.3-1.4 2-1.1.6-2.6.45l-.25-.55q-.2-.85-4.75-6.85-4.45-5.9-6.25-7.75-1.8-1.8-2.7-9.1-.95-7.45.25-11.8"/><path fill="#914897" d="M35.25 128.95q2.7 1.5 3.2 2.2 1.05 1.35 2.75 2.5l-.95.2q-.5.3-.55.75-.15 1.6-1.4 2.3-1.25.7-4.2.95-2.65.15-3.35.55-.9.55-1.8 2.75-3.35-.85-7-4.25-1.5-1.35-1.45-3.6.05-2.25 1.7-4.05 1.35-1.35 3.6-1.75l4.35-.25q1.95 0 5.1 1.7"/><path fill="#0d131a" d="M75.8 86.1q-.2-1.9-.75-2.45-1.95-1.95-4.55-1.5-2.4.45-4.9 2.75-2.15 2.05-3.1 4.15-1.6 3.45 1.7 22.45.7 4.05 7.25 11.6l4.3 5.75v.05q1.95 2.6 2.25 3.5.5 1.55 1.45 2.1t3.55.95l4.65.85q1.55.45 3.8 1.45-.55-2.15-2.25-3.5-1.45-1.2-4.2-1.95-.75-.25-.5-.35l1.05.05q5.2 1.4 6.4 4.8.5 1.4.05 1.6-.4.2-2.25-.6-2.55-1.15-6.85-1.6-2.6-.25-3.9-1.05-1.35-.8-1.9-2.5-.2-.75-2.55-3.9l-4.65-5.85-5.05-5.5q-2.3-2.75-2.7-4.75-.65-5-1.05-10.4-.8-10.85.5-13.6 1.05-2.25 3.35-4.4 2.7-2.55 5.4-3.05 3.4-.6 5.35 1.35l.4.4q.7.7.9 2.95l.15 4.85q.25 7.65 1.45 12.55 3 12.15 6.05 21.35.5 1.6 2.25 2.65 1.45.9 4.45 1.8 3.5 1.05 4.55 3.05l.65 1.55-1.15.15-1.3-.05q-.25.05-.4-.3-.15-.3.05-.35l1.95.15q-.7-2.3-4.55-3.5-4.05-1.2-6.25-2.95-.75-.5-1.15-1.8l-3.3-11-3.2-11.85q-1-4.05-1.25-11.85l-.2-4.25"/><path fill="#0d131a" d="M92.6 131.95q2.2 1.4 2.85 3.55.45 1.5.2 1.8l-1.4-.15-2.55-.5q-.2 0-.4-.35-.2-.4 0-.4 1.9-.05 3.75.85-.05-2.4-2.55-4.15-1.6-1.15-4.7-2.2-.75-.25-.45-.35l1 .1q2.7.85 4.25 1.8M42.65 9.4q1.75 5.7-.8 11.7-2.1 5-5.65 8.25-3.45 3.1-7.4 3.85l-3.9.35q-1.85-.15-3.15-1.2-8.55 12.85-8.55 30 0 12.45 3.95 26 2 6.8 4.1 11.25 2.35 4.7 2.35 7.55 0 1.25-.65 1.6-1.4.95-5.1-4.05Q7.75 90.9 3.3 76.45-1.25 61.5.45 46.5q1.4-12.1 6-23.4 4.05-10 9.2-16.1 4.7-5.5 11.2-6.7 5.8-1.1 10.1 1.55 4.1 2.5 5.7 7.55"/><path fill="#914897" d="M41.35 9.9q1.55 4.95-.85 10.6-2.05 4.9-5.2 8-3.1 3.05-6.7 3.75-2.05.4-3.9-.05t-3.05-1.6l-.4-.45-.35.5Q8.35 49 13.05 76.2q2.35 13.65 7.35 23.85 1.45 2.95 2 5.5.45 2.15.05 2.4l-.75-.4q-1.15-.9-3.05-3.45Q8.8 90.7 4.55 75.95q-4.2-14.8-2.5-29.85 1.3-11.8 6.05-22.7 4-9.15 9.25-15.4 4.6-5.45 10.25-6.4 4.7-.8 8.55 1.6 3.8 2.35 5.2 6.7"/><path fill="#7f3c83" d="M40.6 8.1q2.85 5.6-.1 12.4-2.05 4.9-5.2 8-3.1 3.05-6.7 3.75-2.05.4-3.9-.05t-3.05-1.6l-.4-.45-.35.5Q8.35 49 13.05 76.2q2.35 13.65 7.35 23.85l.95 2.1q-11.3-13.55-12.65-37Q7.25 41 17.9 24.45q.1-.25.8.4 1 .95 2.15 1.3 4.25 1.35 11.9-4 3.4 0 6.2-5.25 2.75-5.15 1.65-8.8"/><path fill="#0d131a" d="M23 9.2q2.8-1.9 5.7-1.95Q31.65 7.2 33.2 9q1.75 2.05 2 4.95.2 2.65-1 5.5-.5 1.3-.9 1.1-.45-.2.15-1.65.7-1.85.55-4.25-.2-2.9-1.65-4.65-1.1-1.3-3.6-1.1-2.55.15-4.95 1.85-6.25 4.35-5.35 13.2.35 3.7 3 6.5l-.2 1.4q-1.65-1-2.75-2.85-1.25-2.05-1.5-4.65Q15.95 14 23 9.2"/><path fill="#fffbda" d="M43.65 135q3.15 1.25 4.3 2.25 1.15 1.05 1.55 3.25l-3.35-.75q.7 1.15.95 2.5l.3 2.6q-4.15-2-5.45-2.05l.25 2.4q.1 1.35-.2 1.45-.25.1-1.35-.65l-2.1-1.35q-2.6-1.45-9.85-3.3.55-2.2 1.4-3 .95-.95 3.1-.85 3.1.2 4.75-.65 1.5-.75 1.65-2.25.15-1.15 1.25-1.1.05.4 2.8 1.5"/><path fill="#7f3c83" d="M23.85 135.7q1.3 1.5 5.6 3.5l-.65 1.95q-4-1.5-5.4-2.65-2.95-2.3-3.1-4.65-.15-2.15 1.9-4.6l1.65 1.1-.8 1.75q-.55 2.05.8 3.6"/><path fill="#dcd9bd" d="M38.35 144.5q-2.35-1.25-4.5-1.8l-5.05-1.55.65-1.95 4.1 1.6q6.7 2.05 8.4 5.7l-3.6-2"/><path fill="#0d131a" d="M39.65 77.3q-1.2 1.85-2.55 2.55-8.7 4.55-12.05 8.2-2.95 3.25-6.25 13.05-3.7 10.9-2.5 16.3 1.15 5.25 3.6 8.5 2.4 3.2 6.35 4.7l3.15.45 2.4-.65q2.2-.8 3.6-.6l.3.05q12.9 2 17.15-1.05 1-.75 3.25-2.05 4.85-2.85 7.1-5 3.85-3.7 5.45-8.95 1.05-3.6 1.4-7.65l.2-6.8q0-3.75.15-5.15.2-2.6 1.05-4.15.9-1.8 3.25-4.1-17.25-1.75-33.3-12.6l-.25 1.5q-.45 1.75-1.5 3.45m-16.1 10.3q3.1-3.4 12.85-8.7 1.7-.9 2.75-3 1.1-2.2 1-4.95Q57.3 83.1 75.1 84.7q-2.25 2.1-3.15 5.6-.85 3.3-.85 9 .05 11.45-2.45 16.8-2.85 6.15-11.7 11.4l-3.2 2.1q-4.5 3.25-18.2 1.2l-.3-.05q-1.2-.15-3.15.55l-2.6.7q-1.7.2-3.55-.5-4.4-1.7-7.1-4.7-2.9-3.3-4.1-8.6-1.25-5.75 2.4-17 3.35-10.25 6.4-13.6"/><path fill="#914897" d="M25.05 88.05q3.35-3.65 12.05-8.2 1.35-.7 2.55-2.55 1.05-1.7 1.5-3.45l.25-1.5q16.05 10.85 33.3 12.6-2.35 2.3-3.25 4.1-.85 1.55-1.05 4.15-.15 1.4-.15 5.15l-.2 6.8q-.35 4.05-1.4 7.65-1.6 5.25-5.45 8.95-2.25 2.15-7.1 5-2.25 1.3-3.25 2.05-4.25 3.05-17.15 1.05l-.3-.05q-1.4-.2-3.6.6l-2.4.65-3.15-.45q-3.95-1.5-6.35-4.7-2.45-3.25-3.6-8.5-1.2-5.4 2.5-16.3 3.3-9.8 6.25-13.05"/><path fill="#7f3c83" d="M36.8 84.2Q26.15 88.4 21 95.4q2.35-5.4 4.05-7.35 3.35-3.65 12.05-8.2 1.35-.7 2.55-2.55 1.05-1.7 1.5-3.45l.25-1.5 3.6 2.7 3.7 2.45q-1.3 2.15-4.7 3.8l-7.2 2.9"/><path fill="#fffbda" d="M55.8 80.9l6.7 1.75 11.75 1.75q-2.05 1.9-2.95 4.95-.95 3.15-1.05 9l-.25 6.8q-.3 4.15-1.35 7.65-1.6 5.25-5.45 8.95-2.25 2.15-7.1 5-2.25 1.3-3.25 2.05-4.25 3.05-17.1 1.05v-4.5q.25-5.35 3.4-11.05 1.9-3.4 6.95-10.05 5.15-6.75 8.4-13.9l1.25-4.8q.65-3.5.05-4.65"/><path fill="#dcd9bd" d="M55.75 118.6q9.6-2.25 13.85-9.85l-.95 4.05q-1.6 5.25-5.45 8.95-2.25 2.15-7.1 5-2.25 1.3-3.25 2.05-4.25 3.05-17.1 1.05v-4.5q.2-3.8 1.85-7.9 9.2 3.25 18.15 1.15"/><path fill="#914897" d="M55.45 96.6l2.5 18.3q1.1 7.3 4.05 13 2.75 5.35 5.4 6.15.4.35-.25.6l-1.15.1q-1.65-.5-2.85 0-1.3.6-1.8 2.25-.95 3.15-5.3 3.2l-2-2.75-4.4-6.25-6.35-8.45q-3.2-4.45-3.45-6-3.55-19.55-2.35-24l15.55-6.7q1.15 1.3 2.4 10.55"/><path fill="#fffbda" d="M83.45 79.5q-5.9 2.9-7.9 4.35-3.2 2.3-4.15 6.95l-15.5-4.05q.95-1.45 1-3.25.1-1.95-1.05-2.65-3.35-1.35-6.7-3.05-6.65-3.45-8.85-6.7l-1.4-8.55 6.9-7.25 42.55-7.55 6.3 2.55 2.2 5.25q1.95 5.9.65 9.25-1.55 4.05-5.2 7.85-3.7 3.95-8.85 6.85"/><path fill="#914897" d="M92.6 43.8q2.05 7.55 2.45 8.35-1.05-1.1-2-.8L85.9 52.8q.15.7 1.05 2.8 1.05 2.15-2.05 6.05-3.05 3.85-5.75 3.9-2.95.1-7.15-2.05-4.5-2.35-4.7-4.65-.05-.65-.5-1.6L48.95 58.5q-5.65 1.1-7.4 4.9-1.8 4 1.2 9.8l-2.9-3.2q-2.9-3.85-2.75-7.4.2-3.45 1.5-6.25l1.8-3.55 1.75-5.3q1.5-3.95 2.95-5l3.65-9.45 4.7-3.7Q59.8 25.6 68.1 25.6q4.65 0 10 1.95 6.4 2.35 9.75 6.3 3.05 3.6 4.75 9.95"/><path fill="#914897" d="M84.8 61.5q2.95-3.85 1.35-6.95l.7-.05q1.55 3.15-1.6 7.35-3.05 4-6.1 4.1-3.4.05-7.45-1.85-5.05-2.4-5.2-6 .5.6.8.15.05 2.55 4.45 4.95 4.2 2.3 7.45 2.1 2.8-.2 5.6-3.8"/><path fill="#fdeabe" d="M93.1 18.05q5.1 6.8 5.1 14.2-.05 7.9-6.6 8.25l-1.65-3.4q-2.3-3.9-5.65-6.15 1.95-7.6 2.75-9.6 2.05-4.9 4.8-4.1l1.25.8M41.85 47.6q-5.3 2.15-9.55 1.5-3.95-.6-4.45-3.05-1.1-5.6.25-10.55 1-3.8 4.5-10.25l1.2.55 3.05 2.25q4.95 4.7 8.3 14.05l-3.3 5.5"/><path fill="#ba0031" d="M91.7 53q-1.3.75-3.6.95h-2q-1.55-6.1.2-12.15 4.6 3.85 5.4 11.2"/><path fill="#fff" d="M87.5 38.5q2.55 1.7 4.4 7 1.6 4.6 1.2 5.85-.3 1.05-1.4 1.65-.8-7.35-5.4-11.2l.8-2.4.4-.9m-36.25 5.95q1.95.55 4.15 1.6-2.2 2.95-2.35 7.1-.1 3.75 1.45 7.55-4.15.15-5.15-.85-1.2-1.1-.8-6.8.4-6.2 2.7-8.6"/><path fill="#ba0031" d="M66.9 57.35q-.05.95-4.3 2.05-4.1 1.1-8.1 1.3-1.55-3.8-1.45-7.55.15-4.15 2.35-7.1 4.2 2.15 7.65 5.75 3.2 3.25 3.85 5.55"/><path fill="#fff" d="M68.65 67.3q3.85 1.9 7.9 1.95 4.15.05 7.65-1.85-.9 4.35-4 10.95-.95 1.25-3.85 1.85-1.55.3-2.9 0l-1.05-.4q-.65-.6-3.75-12.5"/><path fill="#dbdcdc" d="M72.05 68.7q-.1 5.2 1.15 7.8 1.75 3.6 6.15 2.55L76.7 80.1q-2.95.75-4.3-.45-3.05-7.75-3.65-12.25l3.3 1.3"/><path fill="#dacaa5" d="M86.55 32.85l-2.1-1.8q1.05-7 2.65-10.25.85-1.8 2.55-3.2 1.45-1.15 3.3-.25l2.9 5.35q-3.35-2.25-5.6.15-2.3 2.45-3.7 10M43.4 44.45q-2-6.15-6.4-10.75-4.6-4.75-7.35-3l2.6-5.5 1.4.55q1.75.85 3.4 2.35 5.4 4.8 8.1 14.3l-1.75 2.05"/><path fill="#7f3c83" d="M50.1 36.55l-1.45-3.4q3.2-3.35 8.15-5.35l4.35-1.3q-4.8 1.6-8.05 5.1-2.6 2.75-3 4.95M87 58.6q-.9 2.75-3.35 5.05-2.45 2.25-4.5 2.3-2.9.05-6.7-1.55-4.65-1.95-5.7-4.9l.1-.35q-.9-5-6.8-9.75-5.4-4.35-10.05-4.95-1.8-.2-1.85-.75-.1-.65 3.7-.8 4.85-.2 8.75 1.8 3.65 1.85 6 5.5 1.85 2.8 2.65 5.3.65 2.15 1.95 3.75 2.75 3.4 7.6 3.15 4.8-.25 8.2-3.8"/><path fill="#dcd9bd" d="M42.85 73.55l-.1-.35q-2.15-4.15-1.8-7.4.3-3.15 2.8-5.1l1.85.55-.4 2.35q-.15 2.55 1.15 3.65.6.55 1.75 5.65 2 5.3 7.15 7.45-2.05-.4-5.35-2.1-3.9-2-7.05-4.7"/><path fill="#7f3c83" d="M39.85 70q-2.9-3.85-2.75-7.4.2-3.75 2.05-7.3.55 3.75 4.6 5.4-2.5 1.95-2.8 5.1-.35 3.25 1.8 7.4l-2.9-3.2"/><path fill="#990024" d="M85.5 45.25l.75-3.2q2.6 1.2 4.1 5.25l1 3.8q-.25-.55-.9-.55-.7.05-1.55 1-.95 1.15-2.2 1l-1-.35q-.8-3.1-.2-6.95M59.7 48.8q4.6 3.4 6.55 7.4l-.75-.3q-.9-.2-1.75.5-1.35 1.15-2.3 1.4-1.55.4-3.5-.65-1.35-.7-2.65-.25-1.35.4-1.7 1.8-1.55-8.95 1.85-12.5l4.25 2.6"/><path fill="#914897" d="M81 19.9q1.3-2.6 3.75-5.55 2-2.4 4.45-1.85 2.5.55 5.1 4.05 2.85 3.75 4.5 8.5 1.7 4.95 1.5 9.2-.2 4.1-2 6.7-1.9 2.7-5.35 3.6L91.5 40.7q2.75-.1 4.55-2 2-2.15 2.45-6.25.25-2.45-1.9-7.7-1.75-4.2-3.9-7.75-5.9-1.4-8.4 13.9-1.45-1.1-5.7-3.1.45-4.2 2.4-7.9"/><path fill="#fff" d="M85.45 47.9l.15-1.3q1.35-.2 1.9 2.1.55 2.5-.9 2.75-.4.05-.75-.3l-.4-.9V47.9m-22.4 4.3l.25 1q.15 1.3-.5 2.2-.65.9-1.6.85-.7 0-1.25-.9-.65-1-.65-2.3 0-2.6 1.55-2.85l2.2 2"/><path fill="#0d131a" d="M86.6 32.05q4.5 4.2 5.95 10.2 2 7.9 4.65 13.6Q103.75 70.2 77.7 83q-3.15 1.55-4.9 4.95-.85 1.7-1.1 3.1 0 .2-.4.2-.45 0-.4-.2.35-2.55 1.75-4.7 1.7-2.7 4.65-4.15Q87.8 77 92.9 71.3q6.75-7.6 3.15-15.45-1.45-3.35-2.65-7.35l-1.6-5.8q-1.6-5.75-5.9-9.8-4.35-4.05-10.75-5.7-7.3-1.8-14.6 0-7.35 1.85-11.6 6.55-.1.15-.45-.25-.35-.45-.2-.6 3.95-4.35 11.05-6.4 7.95-2.35 16-.35 6.75 1.7 11.25 5.9"/><path fill="#0d131a" d="M87.35 38.9l.05-.5q.15-.4.3-.3 2.6 2 4.45 7.25 1.6 4.5 1.3 6.35-.45 2.5-7.1 2.55l-.15-.55.15-.25 3.4-.2q2.6-.75 2.75-1.75.35-1.65-1.1-5.85-1.65-4.75-4.05-6.75"/><path fill="#0d131a" d="M86.1 42.05q-.2-.1.05-.4.2-.35.35-.25 2.35 1.7 3.95 5.15t1.45 6.55l-.4.15-.35-.3q.25-2.15-1.3-5.75-1.7-3.85-3.75-5.15m-35.15 2.3l.5.1q.35.2.2.35-2.4 3.15-2.65 8.8-.2 5.1.95 6 1.6 1.25 8.75.1 7.1-1.15 7.7-2.55.05-.2.3.1l.15.45q-.75 1.75-8.2 2.95l-9.4-.25q-1.5-1.2-1.25-6.6.25-5.9 2.95-9.45"/><path fill="#0d131a" d="M55.05 45.75l.45.1.15.4q-2 2.6-2.05 7.35-.1 4.25 1.2 7l-.25.3q-.4.2-.45 0-1.6-3.3-1.5-7.5.15-4.65 2.45-7.65m29 15.85L83 62.7q-.25-.05.3-1 1.05-1.85 1.25-3.75.05-.35.3-.05.3.35.25 1.2l-.4 1.4-.65 1.1m-6.4 1.1q.9.75.7 1-.15.2-1.05-.4-1.2-.8-1.7-1.65-.6-.85-.35-.9l.85.55 1.55 1.4m8.85 2.5q-2.65 4.25-8.6 4.5-4.2.15-8.4-1.65-1.1-.5-1.95 0-.9.6-2.3 2.8-.75 1.2-1 1.05-.3-.2.3-1.35 1.25-2.6 2.15-3.25l3-.05q4 1.7 8.15 1.5 2.75-.1 4.45-.85 1.85-.85 3.5-3 .85-1.05 1.1-.9.25.15-.4 1.2"/><path fill="#0d131a" d="M83.75 67.45l.5-.3.4.05-2.25 6.95-1.8 4.25q-.8 1.3-3.7 2.05l-4.7-.25q-.75-.6-2.4-6.65l-1.6-6.2.45-.1q.5.05.55.25l1.25 4.9 2 6.5.3.65q.15.15.65.3 1.45.4 3.35 0 1.95-.45 3-1.55 1.3-2.05 4-10.85"/><path fill="#0d131a" d="M77.7 75.1l-1.05 5.1q-.05.2-.5.2t-.4-.2l1.2-5.2q.4-1.8.7-1.8.35 0 .05 1.9m8.6-6.1l.25 1.35q-.25.05-.85-1.15l-1.35-2.05q-.15-.15.2-.45.4-.3.5-.15.8.9 1.25 2.45M49.85 43.8q6.1.85 11.75 5.75 5.15 4.5 5.6 8.15.25 1.6-.05 2.1t-.75-1.55q-.85-4.15-6.2-8.45-5.35-4.35-10.55-5.15-2.1-.3-2.1-.75l2.3-.1m34.95 3.9q.1-5.15 2.5-9.55.85-1.45 1.2-1.4.4.05-.45 1.65-2.2 4.1-2.35 9.1-.1 4.1 1.05 6.65.55 1.2.3 1.35-.25.2-.9-.95-1.45-2.4-1.35-6.85"/><path fill="#fffbda" d="M112.3 45.95l-9.5 6.6-9.25 8.05q-.75.7-1.45-1.05-.75-1.8.4-3.05 3.8-4.15 7.5-6.35 2.9-1.65 6.05-2.85 3.85-1.45 6.25-1.35"/><path fill="#0d131a" d="M111.25 46.45q-3.1.1-8.2 2.75-5.15 2.7-8.7 6.1-1.55 1.55-1.85 1.25-.3-.3 1.25-1.85 3.25-3.25 7.55-5.65 4.75-2.65 9-3.25l2.65-.05q.2.35-2.05 1.85-10.8 7.1-15.65 11.9-1.5 1.45-1.7 1.1-.2-.35 1.15-1.8 3.2-3.4 8.9-7.45l7.65-4.9"/><path fill="#dcd9bd" d="M67.55 142.5q2 .85 2.8 1.35l1.85 1.6-4.85-1.5-4.75-1.05-4-.8q-1.5-.6-2.4-1.9 3.2-.05 4.55-1.95 3 2.65 6.8 4.25"/><path fill="#7f3c83" d="M60.75 138.25q-1.35 1.9-4.55 1.95l-.15-.2-5.55-7.45-7.3-9.55q-2.3-2.65-3.5-6.95-1.3-4.6-1.6-12-.15-3.15 3.45 2.6 3.35 5.3 4.65 8.9 1.35 3.75 5.8 10.95 4.3 6.95 7.05 10.05l1.7 1.7"/><path fill="#914897" d="M50.25 37.35q.55 2.1-1.75 4.3-2.3 2.15-3.4.85-1.25-5.45-4.95-10.7-3.9-5.45-7.55-6.55-.75.2-2.7 4.95-2.2 5.35-3.05 10.35Q26.5 44.2 28 46.6q1.65 2.65 5.2 2.85l4.2-.5 4.55-1.1-1.1 3.7q-2.95 1-6.95 1.25-7.05.35-9.7-5.95-2.35-5.75.55-16.15 3.15-11.2 9.35-11.45 5.6-.2 11.45 8.9 2.9 4.6 4.7 9.2"/><path fill="#0d131a" d="M49.8 34.9q1 2.35.55 2.45-.4.05-1.3-1.95-2.75-6-6.65-10.4-4.6-5.2-8.5-5.05-2.9.1-5.15 3.35-2.3 3.25-3.75 9.35-3.15 13.25 1.5 17.55 2.2 2 6.05 2.2 3.8.2 8.35-1.4l.15.4q0 .45-.2.5-4.8 1.65-8.65 1.45-3.9-.25-6.3-2.4-2.65-2.45-3.2-7.3-.5-4.8 1.1-11.4 1.65-6.75 4.5-10.3 2.55-3.15 5.55-3.25 4.4-.15 9.4 5.5 4.15 4.75 6.55 10.7m32.15-17.75q3.45-5.4 6.25-5.35 3.25.05 6.5 4.3 3.05 3.9 4.85 9.55 1.45 4.45 1.35 8.45-.15 3.9-1.7 6.55-2.15 3.55-6.5 4.3-.2.05-.3-.4-.05-.45.15-.5 4-.75 5.85-3.9 3-5 .15-14-1.5-4.75-3.95-8.35-3.15-4.7-6.45-4.75-2.2-.05-5.4 5-3.3 5.15-3.75 9.85l-.45-.05-.5-.4q.5-5 3.9-10.3"/><path fill="#0d131a" d="M41.55 47.55q.5-1.8 1.6-3.4l1.45-1.75q-1.95-6.2-5-10.5-3.1-4.3-6.65-5.85-2.6-1.1-2.4-1.65.2-.55 2.75.5 3.65 1.5 6.85 6 3.1 4.35 5.25 10.8l.15.85-.45.75q-1.9 2.45-2.65 5-1.35 4.7-2.85 7.15-4.65 7.75 1.45 15.2 4.6 5.65 12.75 8.85 2.3.95 2.1 1.35-.2.4-2.45-.45-8.6-3.4-13.6-9.25-6.65-7.9-1.2-15.9 1.05-1.45 2.9-7.7"/><path fill="#dcd9bd" d="M41.2 140.1q2.85 1.35 4.6 2.75 1.2.9 1.6 2.25-1.95-1.7-5.65-2.5-.4-.75-1.8-1.65l-2.9-1.8q.85-.55 4.15.95m.35-3.1l3.45.75q1.4.25 2.15.7l2.2 2-3.25-.5q-.25-.35-1.9-1.35l-2.65-1.6"/><path fill="#0d131a" d="M36.95 92.6q.15-1.45.65-1.3.45.15.35 2.25-.1 1.45.75 10.2.85 9.05 1.45 12.35l.1.55q.25 1.5 6.9 10.5l7.9 10.8q2.5 4 5.1 4.25l5.85.9q2.65.6 5.95 1.8 0-2.05-2.15-3.65-1.85-1.4-4.75-2.15-.8-.2-.5-.3l1.15.1q2.9.6 4.75 2 2.05 1.6 2.3 3.9.1.9-.4.95-.5.05-2.4-.7-4.45-1.7-9.2-2-2.4-.2-3.75-1.25-1.25-1-3.25-4.15l-7.55-9.9q-6.5-8.7-6.9-10.9l-.1-.55q-3.1-17.2-2.25-23.7"/><path fill="#0d131a" d="M52.6 86.35q-.65-1.1-.6-1.55.1-.5 1.35.95 2.2 2.55 3.85 16.1l1.15 13Q58.8 118.3 61 124q2.35 6.05 4.35 8.2l2.7 1.95 3.15 1.35q2.55 1.05 3.7 1.7 1.8 1.1 2.45 2.45l.55 1.65-1.2-.05-1.75-.1-.3-.3q-.15-.35.05-.35l2.35.25q-.65-2.7-6.1-4.5-3.35-1.15-6.25-3.55-2.05-1.7-4.6-8.5-2.3-6-2.7-9.25l-1.25-12.35Q54.5 89.45 52.6 86.35"/><path fill="#0d131a" d="M68.25 137.25q-.9-.2-.65-.35l1.05.05q3 .65 4.9 2.15 2.25 1.75 2.65 4.5.1.95-.15 1.15l-1.05-.2-2.65-.75-.35-.35q-.15-.35.05-.35 2.1.1 3.45 1-.05-2.65-2.35-4.55-1.95-1.6-4.9-2.3m-27.15-3.8q1.05.7 2.85 1.3 2.3.75 3.55 1.65 1.3 1 1.85 2.45.6 1.45.4 1.8l-1-.05q-1.4-.5-2.4-.5l-.55-.35q-.35-.4-.15-.4 1.65-.05 3.45.75-.5-1.8-1.7-2.85t-3.7-1.95l-3.5-1.4q-1.2-.7-2.55-2.2-.15-.15.15-.45.35-.35.45-.2l2.85 2.4"/><path fill="#0d131a" d="M41.55 137.4q-.55-.45-.3-.5.2-.1.85.35.95.65 2.45 1.35 2.7 1.25 3.25 4.95.25 1.6-.05 1.75-.35.2-1.9-.75-1.65-.95-3.95-1.6l-.3-.4q-.15-.35.05-.3 3 .65 5.4 2.1-.35-4.05-2.7-5.25l-2.8-1.7"/><path fill="#0d131a" d="M41.75 146.15l-.3-3.25q-.35-1.05-1.65-1.7l-2.6-1.65-.45-.7q.25-.05 1.05.5l2.65 1.5q1.15.6 1.55 1.45.3.65.4 2.1.2 2.45-.15 2.6-.35.2-2.45-1.2-1.95-1.3-4.15-2.15l-5.95-1.85q-7-2-9.25-5.65-2.35-3.7 1.65-7.05l.5.1.2.35q-3.5 2.85-.9 6.5 2.35 3.35 7.75 4.9 4.95 1.4 6.85 2.2 2.3.95 5.25 3"/><path fill="#914897" d="M39.15 98.35q5.15 7.3 6.35 11.05 1.6 4.8-.65 9.65l-3.35 7.6q-1.25 2.7-2.65 3.95l-2.55 1.9q-1.45.7-3.45.55l-3.7-.55-3.55-1q1.1.2.9-.2l-1.45-1.1q-6.95-3.85-7.35-14.15-.4-10.4 6.4-17.25 3.4-3.4 6-4.3 5.1-1.8 9.05 3.85"/><path fill="#7f3c83" d="M42.5 103.35q2.95 4.65 3.5 8 .7 3.8-1.15 7.7l-3.35 7.6q-1.25 2.7-2.65 3.95l-2.55 1.7-3.45.75q-2.9.25-4.75 0t-.9-.7q7.15-2.3 12.4-11.05 5.8-9.55 2.9-17.95"/><path fill="#0d131a" d="M24.35 97.9q3.1-2.35 3.5-2.6 3.05-1.85 5.5-1.55 3.55.45 6.2 4.3 5.4 7.65 6.65 11.35 1.7 4.95-.6 9.85l-2.65 5.25-1.75 3.9q-.9 1.55-2.05 2.55-2.3 2-5.7 2.3l-1.3-.15q-.45-.25.6-.55l2.8-.75q1.85-.65 3-1.6 1-.9 1.8-2.35l1.7-3.7 2.35-5.3q2.2-4.65.65-9.3-1.2-3.65-6.3-10.95-2.15-3.05-5.4-3.4-2.15-.25-5.1 1.4-1.5.85-3.25 2.05l-1.15.15q-.35-.2.5-.9"/><path fill="#fffbda" d="M28.1 63.1q-5.9-.35-10.35-.05 5.8-3.15 15.05-3.25 7.95-.1 14.55 2.15 2.4.8 1.6 3.35-.85 2.6-1.9 2.05-7.15-3.5-18.95-4.25"/><path fill="#0d131a" d="M31.15 62.9q8.3.8 14.2 3.25 1.8.75 1.7 1.15-.05.4-2.1-.4Q39 64.6 31.1 63.8L20 63.5l-3.05-.25q-.15-.35 2.6-1.45 10.75-4.55 26-.85 1.95.5 1.8.85l-2.1-.05q-6.6-1.55-12.75-1.55-7.55.05-13.05 2.5 5.55-.4 11.7.2M93.9 17.55q.1.45-.55.2l-2.35-.2q-4.3 1.55-6.1 13.6l-.45.05q-.45-.2-.4-.4.9-6.15 2.6-9.8 1.7-3.6 3.95-4.4l2.6.25q.65.25.7.7M42.2 47.1q.2-.05.1.55l-.3.65q-5.4 1.7-8.85 1.35-5.85-.45-6.55-5.95-.45-3.6 1.4-9.9 1.65-5.75 3.6-8.65l1.1.35q-2 3.15-3.45 7.75-1.5 4.6-1.7 8.6-.2 3.15 1.45 5 1.45 1.6 4 1.9l4.7-.35 4.5-1.3"/><path fill="#0d131a" d="M92.9 17.1q2.05 2.75 3.6 6.2 1.6 3.55 2.05 6.65.65 4.4-1.2 7.75-1.9 3.45-5.3 3.45l-.4-.4q-.2-.45 0-.45 3.35 0 5.1-3.3 1.55-3.05 1-6.9-.5-3.2-2.2-7-1.7-3.7-3.7-6.05l1.05.05"/></svg>