<svg xmlns="http://www.w3.org/2000/svg" width="271" height="276" viewBox="-0.2 -0.05 271.15 276.2"><path fill="#0d131a" d="M204.5 170.6q2.1-.7 2.95.6l1.05-2.6q3.65 5.25 3 23.65-.75 20.95-7.75 37.4-9.1 21.2-16.3 21.55l-2.3.25-9.95-.6q-7.7-.95-9.6-2.15l-12.05-18.35q-.1-2.45 6.75-12.1 6.05-8.6 14.65-18.85 9-10.75 16.65-18.4 9-9.05 12.9-10.4"/><path fill="#5dc1cf" d="M163.15 240.7q7.3-9.1 19.65-15.3 13-6.5 21.25-4.25-1.45 5.55-3.45 10.55-4.45 11.3-8.55 15.2-2.4 2.25-5.75 2.4l-1.1.1-9.8-.75q-7.5-1.15-9.15-2.15-.75-.45-2.75-5l-.35-.8h-.05v-.05l.05.05"/><path fill="#50a8b4" d="M206.3 172q2.45 3.55 2.2 17.9-.3 16.1-4.45 31.25-8.25-2.25-21.25 4.25-12.35 6.2-19.7 15.3v-.05q-2.05-4.4-3.5-6.5-2.25-3.25-4.65-3.9v-.1q0-1.75 5.2-9.25 5.65-8.25 14.45-18.9 9.65-11.65 17.7-19.75 8-8.05 11.85-9.95 1.75-.95 2.15-.3"/><path fill="#0d131a" d="M205.2 186.65q2 2.35 2 3.8l-.05.4q-1.9 8.2-5.9 14.75-3.4 5.55-10.3 12.75-4.35 4.55-13.8 9.05-10.5 5-21.5 7l1.75 13.1q1.05 9.7 1.05 14.45 0 1.35-.8 2.9-.5 1.75-1.9 2.5-3.75 2.05-13.85 3.2-10 1.1-12.15-.15-8.7-5.15-19.1-20.7-10.6-15.8-13.95-29.1-5.05-2-10.7-5.5-5.5-3.4-8.6-6.35-1.35 5.75-4.95 10.55-1.75 2.35-3.3 3.6-2.05 2.5-14.6 2.3l-12.15-.75q-3.5-.6-5.25-2.25-1.9-1.85-2.25-5.45-.6-5.8.35-11.45l.85-6.15.55-4.45q.3-1.6-.05-4.7l-.4-2.8q-1.85-14.25-.75-21.1 1.35-8.3 8.6-21.2 8.25-14.65 24.35-21.3 9.6-3.95 19.95-4.5 7.85-.4 30.55 11 13.7 6.85 29.7 16.35 20.15 11.95 35.95 23.2 15.8 11.25 20.65 17"/><path fill="#5dc1cf" d="M69.75 125.1q9.3-4.1 18.65-4.6 11.45-.6 65.1 34.7 26.85 17.7 51.35 35.6-2.2 7.3-5.6 13.1-4.1 6.95-10.6 13.1-7.3 6.85-20.5 11.45-9.5 3.35-12.65 3.35-.7 0-1.05-2.4l-.5-4.35q-.15-2.05-1.25-1.35-1.05.7-.65 3.25 1.25 6.7 2.9 19.7 1.95 15.65 1.35 17.85 0 .35-1.15 1-3.55 1.9-12.95 3.15l-11.05.45q-1.55-.45-6.05-4.95-5.5-5.4-10.5-12.4-14.55-20.25-16.65-41.35-.45-4.6-1.2-6.2-.8-1.5-1.1 1.1-.45 3.4.65 12.5-10.6-4.05-22.15-15.6-17.1-17.05-19.15-38.3-.25-2.65-.75-3.7-.5-1-.85.1-.9 2.95.8 12.6 1.25 6.8 4.1 12.55 5.35 10.6 17.15 21.9-.5 2.95-2.1 6.35-1.75 3.75-4.2 6.65-.95 1.25-4.3 2.2-6.65 1.95-18.7.65l-2.1-.4q-3.5-.6-5.25-2.4-1.6-1.65-1.9-4.6-.3-3.65.5-8.65l1.15-7.65q.5-4.35.25-7.05-1.5-15.5-1.15-20.35.95-13.1 8.75-26.2 8.35-14.15 23.35-20.8"/><path fill="#50a8b4" d="M81.55 200.8q7.85 3.6 14.1 4.5-.45 3.4.65 12.5-8.05-3.1-18-11.75Q63.95 193.6 58.2 178q7.65 15.55 23.35 22.8"/><path fill="#50a8b4" d="M75.45 207.35q-.5 2.95-2.1 6.35-1.75 3.75-4.2 6.65l-2.2 1.45q-3.35 1.5-9.15 1.8 7.45-2.95 6.6-15.6-.75-10.5-6.5-23.4 5.3 11.1 17.55 22.75M64.4 127.6q6.55-3.75 14.25-5.65 5.1-1.2 9.75-1.45 11.45-.6 65.1 34.7 26.85 17.7 51.35 35.6-2.2 7.3-5.6 13.1-4.1 6.95-10.6 13.1-7.3 6.85-20.5 11.45-9.5 3.35-12.65 3.35-.7 0-1.05-2.4l-.5-4.35q-.15-2.05-1.25-1.35-1.05.7-.65 3.25 1.25 6.7 2.9 19.7 1.95 15.65 1.35 17.85 0 .35-1.15 1l-2.1.85q.25-14.25-3.3-23.95-5.8-15.9-21.6-22.2-3.3-32.2-12.1-51-15.9-33.8-51.65-41.6"/><path fill="#0d131a" d="M47 218.05q.95.1 2.6 2.05 1.75 2.05 1.65 3.65-.1 1.7-1.45 3.7-1.35 2-2.25 2-.9 0-2.95-2.6-2.05-2.55-2.05-3.5-.05-.9 1.8-3.1 1.85-2.25 2.65-2.2"/><path fill="#fff" d="M49.35 221.5q.9 1.4.85 2.1 0 .75-1.05 2.55-1.1 1.75-1.5 1.75-.5 0-2.15-1.7-1.7-1.75-1.6-2.55.05-.75 2.05-3.55.55-.8.95-.9.35-.05.95.45l1.5 1.85"/><path fill="#0d131a" d="M55.05 224.85q-.1-.8 1.6-3.45 1.75-2.75 2.65-2.85.95-.05 2.75 2.3 1.8 2.4 1.55 3.45l-.9 2.95q-.85 1.95-1.85 2.5t-3.4-1.8q-2.25-2.2-2.4-3.1"/><path fill="#fff" d="M59.3 220q.45-.15 1.8 1.65 1.35 1.85 1.5 2.9l-.8 2.2q-.85 1.75-1.3 1.9-.5.15-2.4-1.5-1.85-1.65-1.95-2.3-.05-.65 1.35-2.7 1.35-1.95 1.8-2.15"/><path fill="#0d131a" d="M65.8 223.35q0-1.15.95-3.2 1.2-2.5 2.7-3.2 1.6-.8 3.3 3.2 1.65 3.9 1.05 6.15-.3 1.25-4.2-.4-3.85-1.7-3.8-2.55"/><path fill="#fff" d="M69.35 218.1q.7-.25 2.05 3.2 1.35 3.35 1.2 3.8-.1.3-2.6-.65-2.6-.95-2.8-1.55-.2-.7.6-2.6.85-1.9 1.55-2.2"/><path fill="#0d131a" d="M130.3 269.5q.2-1.45 1.55-3.05 1.35-1.55 2.3-1.65 1.2-.05 2.65 1.45 1.3 1.4 1.65 2.75.2.8-1.05 3.95-1.3 3.2-1.95 3.05-.85-.2-3-2.9-2.25-2.75-2.15-3.6"/><path fill="#fff" d="M131.8 269.8q.1-1 .75-2.1.7-1.25 1.45-1.45.8-.25 2.1 1.2 1.2 1.3 1.25 2.05l-.75 2.5q-.75 1.8-1.15 2-.45.2-2.05-1.55-1.65-1.85-1.6-2.65"/><path fill="#0d131a" d="M145.2 263.35q1.05-.1 3.3 1.4 2.45 1.6 2.4 2.9l-.65 4.15q-.65 2.75-1.3 2.9-1.15.3-4.15-1.8-3.05-2.1-3.25-3.4-.1-.95 1.35-3.5 1.5-2.6 2.3-2.65"/><path fill="#fff" d="M145.75 264.9q.45-.1 2 .95 1.6 1.05 1.7 1.6l-.25 2.95q-.4 2.4-.75 2.6-.45.25-2.9-1.55-2.45-1.85-2.45-2.55 0-.7 1.1-2.35 1.1-1.55 1.55-1.65"/><path fill="#0d131a" d="M155.3 259.8q1.8-.7 4.4 3.95 2.6 4.65 1.5 6.25-.3.45-3.65-.45l-4.35-1.45-1.2-.85q-.25-.45 0-1.65.25-1.35 1.35-3.35 1.15-2.15 1.95-2.45"/><path fill="#fff" d="M155.9 261.25q1.75 1 3.1 3.9 1.15 2.55.95 3.3-.15.45-3.1-.55-2.9-1-3.25-1.4-.35-.45.6-3.05.95-2.65 1.7-2.2"/><path fill="#0d131a" d="M163.3 244.75q.1-.45 1.75-1.25 1.8-.9 2.65-.5 1 .45 2 2.55 1.05 2.1.6 2.75l-2.35 2.25q-2 1.55-2.9 1.4-.9-.2-1.45-3.25-.55-2.8-.3-3.95"/><path fill="#fff" d="M167.1 243.9q.5.1 1.25 1.6.7 1.5.45 1.95l-1.65 1.85q-1.45 1.4-1.85 1.4-.35 0-.65-2.4l-.2-2.8q.05-.4 1.1-1.05 1.1-.65 1.55-.55"/><path fill="#0d131a" d="M175.95 246.95q1.65-1.45 2.7-1.6 1.1-.2 2.8 1.8 1.6 1.9 1.6 2.7 0 .7-1.95 3.2-2.1 2.7-3.25 2.6-1.2-.1-2.7-3.1-1.45-2.9-.95-3.7.4-.65 1.75-1.9"/><path fill="#fff" d="M178.8 246.4q.6.2 1.65 1.3 1.25 1.25 1.1 1.9l-1.75 2.9q-1.65 2.15-2.05 2.1-.5 0-1.5-2.35-1.05-2.35-.75-3.1.3-.8 1.6-1.85 1.3-1.1 1.7-.9"/><path fill="#0d131a" d="M188.85 247.15q1.85-2.2 3.15-2.1 1.65.15 1.95 3.7.35 3.6-1.5 5.65-1.15 1.25-3.25-1.2-1.95-2.3-1.95-3.7 0-.4 1.6-2.35"/><path fill="#fff" d="M190.2 247.5q1.3-1.3 1.7-.95.4.35.8 1.5l.35 1.9-.45 1.6q-.45 1.45-.9 1.85-.45.4-1.75-1.5-1.15-1.7-1.3-2.45.45-.8 1.55-1.95"/><path fill="#0d131a" d="M82.85 57.6l11.55 6.55 27.55 30.1-39.6 6.65-15.7-6Q51 88.8 51.2 88.35q.2-.35 6.1-3.45l9.8-5.4q-3.85 1.3-10.65 4.4l-6 2.65q-.55-.05-5.7-4.25-5.2-4.25-4.85-4.55l5.45-2.95q5.6-3.1 7.95-5.3-4.35 1.2-10.7 3.95l-5.65 2.4q-.6-.05-4.8-3.65-4.2-3.65-3.9-4 .25-.3 4.3-2.15l7.25-3.4-9.15 1.7-6.3 1q-.85-.05-2.65-1.2-1.75-1.2-1.8-1.65-.05-.35 3.4-2.05l5.6-2.75-6.65-.05q-4.2-.2-3.8-.95.4-.7 3.95-3.25l3.65-2.5 2.6.55-1.8-.6q-1.45-.55-1.05-.75l4.05-1.35q3.55-1.1 3.9-1.05l7.45 4.2-2.45-2.85-1.85-2.4q-.35-.8 5.95-1.25l6.8.25 3.85 6.6-.7-3.75q-.35-2.05-.15-2.25l2.5.2q2.2.45 2.65.75.35.3 2.9 4.75l-1.4-3.6q-.8-2-.6-2.3.2-.35 7.35 2.65 7.05 3 7.35 3.5l1.9 5-.5-2.3-.25-1.5q.15-.2 8.3 4.15"/><path fill="#00a63c" d="M119.5 93.4l-37 6.2-28.35-11.4q14.4-7.8 17-9.85l2.05-1.6-2.55.5q-2.55.65-10.6 3.85-7.3 2.95-9.4 4l-8.5-7.1 6.7-3.75q5.1-3.15 7.4-5.55l1.7-1.65q.05-.25-2.95.7l-9.9 3.5-7.95 3.1-6.65-5.8 6.75-3.25 6.85-3.45 1.9-.95q1.25-.8-2.3-.2l-19.1 3.35-2.25-1.45 9.5-5 1.55-.6q1-.65-1.9-.6l-6.05.15-5.25-.05q2.05-2.1 6.2-4.3l8.95 2.35 2.55 1q1.95.55-1.25-1.4-3.15-1.95-4.8-2.7L29.3 50.4l4.3-1.3 10.1 5.65q.4.1-.2-.95-2.15-3.8-4.4-6.55l10.15-.35q2.9 5.75 4.9 8.85 1.1 1.65 1.3 1.1V56q-1.2-6.4-1.45-8.4l3.15.75L64 60.05q.95 1.1 0-2.3l-1.9-5.95-1.35-3.45L72.4 53.2l4.9 12.85.5-2.1-1.6-8.7q2.55 1.1 8.45 4.45 5.65 3.25 9 5.45L119.5 93.4"/><path fill="#0d131a" d="M89.95 91.8l-4.35-9.5 19.15 8.7 45.3 16.9-.6.75q-5.35 6.6-11.25 13-11.65 12.65-16.9 14.8l-.25.1-.25-.1q-5.3-1.95-23.25-1.8H80.6q-.45-.7-1.65-4l-2.35-6.9.9 11-.1 1.45q-.15.45-.75.6-19.75 2.6-20.05 1.9-.2-.45-.15-5l.15-6.95q-1.15 2.8-1.5 8.2l-.3 5.25q-.3.5-10.4 3.35-10.1 2.8-10.3 2.5-.15-.3-.2-4.15l.1-5.1-2.5 7.1q-1.25 3.65-1.6 3.85l-8.15 1.7L14 150.5l2.7-5.25 4.15-7.85q-1.65 1.1-10.7 9.4-8.35 7.65-8.7 7.55-.5-.15-.1-5.2.35-4.95.7-5.45.5-.7 10.7-7.5-1.8.55-7.7 2.9-4.9 1.95-5.05 1.75-.2-.35 3.35-6.75 3.5-6.45 4.15-6.9.45-.35 4.85-1.8l8.05-2.7-6.65.6-3.7.1q-.2-.5 3.45-5.7 3.85-5.55 5.55-6.15 2.1-.85 17.15-2-1.25-.5-6.45-1.85-4.2-1.05-4.2-1.4 0-.45 6.3-5.35Q38.1 96.1 38.8 96l3.9.5 6.75 1.3-4.75-1.9q-2.55-1-2.2-1.1l6.8-3.6q6.5-3.5 7-3.65.5-.2 4.85 1.35l8.35 2.95-4.55-2.3q-2.55-1.25-1.9-1.6.8-.45 8.45-1.85l8.3-1.3q.95.15 10.15 7"/><path fill="#00a63c" d="M88.4 85.1l15.8 7.2 43.55 16.2q-6.15 7.45-11.9 13.6-10.25 10.9-14.9 12.95-5.7-1.95-21.7-2.1-9.2-.1-18.2.3L76 117.5q-.7-2.15-1.1-2.1-.45 0-.25 2.35 1.1 10.35 1.25 17.7l-17.95 1.7q.75-11.35 0-14.9-.45-2.35-2.6 6.15-2.1 8.2-2.15 10.5l-18 5.1-.05-1.95q0-2.15.35-5.05.4-3 .4-5.4.05-3.45-.2-3.4-.15.05-1.15 3.05L28.9 146.5l-12.3 2.15 6.4-12.6 1.45-1.65q.85-1.25-2.3.7-3.5 2.2-7.1 5.25l-8.45 7.6-3.75 3.45q.1-2.45.55-7.25l13.8-9.3 1.5-1q.9-.9-2.05-.25-5.8 1.25-14.1 4.5 2.1-4.1 5.85-9.7 13.65-4.95 17.25-6.05 2.8-.85 2.85-1.15l-3.15-.2-12.75.85q1.9-3.2 3.7-5.65 2.2-2.95 3.2-3.35l9.7-1.25 10.05-.85 2.25-.3q.2-.15-2.05-1.05-7.55-3.15-11.1-4.05l6.1-4.65 4.9-3.4 6.85 1.35 9.1 1.65 2.95.2q.15-.2-2.55-1.5l-10-4.35 10.7-5.6 21.35 6.8q2 .35-2.35-2.05l-6.05-3.5-2.5-1.65 12.65-2.4 13.75 9.55-4.85-10.7"/><path fill="#009233" d="M93.25 95.8L88.4 85.1l15.8 7.2 43.55 16.2q-6.15 7.45-11.9 13.6-10.25 10.9-14.9 12.95-3.6-1.25-11.35-1.75.55-9.8-2.5-15.9-3.8-7.75-13.6-10.75 0-4.25-2.65-8.8-1.95-3.25-6.25-8.05l8.65 6"/><path fill="#0d131a" d="M265 67.25q5.75 2.95 5.85 3.35.1.3-5.7 2.45L256 76.4l8.8-.05 4.4.4q.15.25-4.1 4.45l-4.75 4.4-6.15-.8-9.9-1.6 8.7 3.6q5 2.05 5.05 2.25l-6.5 5.4q-6.6 5.1-7.05 5L237.45 95q-7.35-4.55-10.95-5.8 13.2 8.9 12.95 9.55-.15.45-7.15 3.5-6.85 2.95-7.45 3l-7.65-4.95q-8.25-5.35-12.3-6.65 2.9 2.45 8.8 8.75 5.85 6.25 5.6 6.6-.3.35-3 1.3l-3.2.85-3.5-3.25q-3.55-3.35-5.35-4.15l4.25 4.9q3.05 3.45 2.95 3.65-.2.4-4.5 3.2-4.45 2.9-4.85 2.7l-4.05-3.9q-4.2-3.95-6.9-5.1l4.6 5.95q3.8 4.55 3.6 4.7l-19.2 6.15-35.45-11.9 13.8-33.5.1-.1q2.75-2.75 13.95-9 10.9-6.05 11.4-5.55.35.35-1.2 4.8l-2.3 6.7 3.55-8q1.6-3.8 2-4.1.75-.5 8.3-2.65 7.6-2.15 7.65-1.7L200 65.2q-2.35 4.5-3 6.3l4.45-6.8q2.45-3.7 2.85-3.95.55-.35 5.55-1.05l5.1-.5-3.9 8.95 4.85-5.55 3.2-3.45 6.05-.35q5.6-.2 5.8.05.2.25-.7 3.05l-1.75 4.55q8.3-6.9 10.85-8.15l.1-.05h.15q2.15 0 8.8 1.7 6.4 1.6 6.4 1.95l-2.45 3.1-4.1 4.7 6.15-3.35q3.7-2 4.2-2.05.65-.05 6.4 2.95"/><path fill="#00a63c" d="M249.2 66.9q-2.9 3.6-3.95 4.45-1.4 1.15-1.4 1.4.05.35 2.2-.45 3-1.2 12.55-6.6l9.2 4.75-7.3 2.9q-6.05 2.35-7.9 2.8l-3.45.75q-.85.25 1.4.4l15.85.5-6.45 6.1-8.15-1-12.1-1.65q-3.6-.45-2.35.3l2 .85q15.85 6.5 16.15 6.95.2.3-5.25 4.3l-5.7 3.85Q225.8 87.3 223.1 87.05l-2.35-.15q-.15.15 2 1.3l8.2 5.4q5.85 4.1 5.9 4.6.05.35-5.2 2.7l-6.7 2.9q-15.3-11.1-22.1-12-4.4-.55-3.55 0l2.9 1.3q1.35.85 6.35 5.75 5.6 5.5 8.5 9.25-1.65.45-3.65 1.45-1.05-1.15-4.85-3.85-3.85-2.75-5.65-3.65-1.65-.8-1.6-.55l.95 1.4 3.35 4.35 3.95 4.8-7.2 4.55-5.15-4.45q-4.3-3.4-6.75-4.55-1.7-.8-1.75-.5l.75 1.65q.6 1.25 3.25 4.9l4.45 5.6-17 5.45-33.8-11.35 13.2-32.05q3.55-3.45 22.35-12.95l-2 7.3-1.9 6.5q-.8 2.25-.65 2.65.2.45 1.8-2.35l4.6-9.05 3.3-7.3 12.35-3.55q-2.1 3.8-5.1 13-1.05 3.05-.95 3.25l2.05-2.75q2.6-4.15 9.65-14.15l8.45-1.2q-2.45 3.45-4.8 10.2-.75 2.2-.55 2.25l1.6-1.6 9.95-11.15 10.05-.3-1.6 3.75-2.25 4.8-.9 2.25 1.85-1.45 6.2-5.05q4.8-3.9 6.7-4.9 2.65.1 12.85 3.05l-3.4 4.35"/><path fill="#009233" d="M167.9 75.75q5.75 8.9 8.15 14.95 15.9.5 24.75 6.1 2.9 1.8 7.15 5.55l7.55 6.3-2.1.9q-1.05-1.15-4.85-3.85-3.85-2.75-5.65-3.65-1.65-.8-1.6-.55l.95 1.4 3.35 4.35 3.95 4.8-7.2 4.55-5.15-4.45q-4.3-3.4-6.75-4.55-1.7-.8-1.75-.5l.75 1.65q.6 1.25 3.25 4.9l4.45 5.6-17 5.45-33.8-11.35 13.2-32.05q1.7-1.6 8.35-5.55"/><path fill="#0d131a" d="M114.15 114.6l-10-.2q-8.5-.2-7.85-.75l9.6-7.35-15.4-4.85-2.1-.85 2.3-.4 23.45 1.25 21.35 12.8-14.1 4.2q-14 4.05-13.55 3.35l3.15-3.55 3.15-3.65"/><path fill="#00a63c" d="M107.6 106.55l1.25-.75-1.25-.8q-1.05-.5-6.7-1.85l-5.35-1.4 9 .3 9.25.65 18.5 11.1q-18.35 5.55-19.2 5.05-.4-.25 1.45-2.6 1.9-2.45 1.7-2.8l-8.25-.6-8.25-.3q-.25-.15 3.25-2.75l4.6-3.25"/><path fill="#0d131a" d="M144.6 4.15q2.8-1.1 3.2-.05.15.5-.45 2.2-1.05 3.4-1.1 5.6l3.1-3q1.9-1.8 2.9-2.15l1.95-.1q.6.4 0 1.7-1.3 2.8-1.45 7.5-.2 6.9 3.45 11.3l.5.65-.7.4q-6.5 3.6-13.3 6.35l-5.55 2-.55.15-10.85-19.85 3.1-6.15q3.4-6.5 4.75-8.45 1.65-2.3 2.65-2.25 1 .1.75 2.35-.4 4.7-.15 6.35l3.3-2.2q2.4-1.55 4.45-2.35"/><path fill="#c94772" d="M151.1 15.7q0 6.9 3.5 11.7-9.3 5.15-17.3 7.65l-9.95-18.15q7.35-13.75 7.4-12.45l-.05 3q0 2.2.3 2.9l.45 1 1.25-.95q1.2-1.05 4.9-3 3.8-2 3.7-1.4l-.55 3.2-.4 3.8q0 2.9 1.65 1 .95-1.1 3.6-3.3 2.65-2.2 2.35-1.65-.3.6-.55 2.6-.3 2.15-.3 4.05"/><path fill="#0d131a" d="M127.25 16.1q1.15-.4 1.65.35l2.7 3.7q2.5 4.45 2.5 9.3 0 4.1-1.7 7.95-1.2 2.75-2.8 9.9l-3.05 14.75q-3.75 19.3-5.9 27.1-3.55 12.9-7.1 14.75l-2.65.05-2.4-1.1q-8.75-3.95-12.35-7.8-5.95-6.55-7.1-19.25-1.15-12.85 16.1-36.35 6.5-8.9 13.2-15.9 6.4-6.65 8.9-7.45"/><path fill="#0d131a" d="M128.3 46.7l-3.1 15.1q-3.55 18.1-5.6 25.95-3.55 13.3-6.7 14.9-.7.35-1.4 0l-2.45-1.1q-8.4-3.7-11.8-7.45-5.7-6.25-6.8-18.45l-.05-1.4q0-10.25 11.3-27.55 9.25-14.1 19.65-24.25 2.7-2.65 4.6-4l1.9-1.1.05.05 2.5 3.4q2.35 4.05 2.35 8.55 0 3.7-1.65 7.5-1.25 2.8-2.8 9.85"/><path fill="#0d131a" d="M169.25 40.8q22.25 31.55-3.3 58.85-6.75 7.25-16.95 10.3-8.4 2.55-17.15 1.85-7.8-.65-16.05-3.9-6.95-2.7-8.7-4.65-13.6-5.7-21.8-16.35-7-9.1-8.05-18.65-1.7-15.05 13.1-30.8 8.2-8.85 18.3-15.1 4.95-3.05 7.65-6.7 2.35-3.25 2.35-6.05l-.1-2.75q-.2-.95-.9-1.9-.8-1.1-.3-1.45.55-.35 2.25.45 2.5 1.15 4.05 3.4l2.1 3.8.8-3.05q.7-2 1.6-1.05 1.6 1.7 3.5 13l.75-3.35q.25-.7 1.95 1.95 3.05 4.85 4.1 7.25 1.35-4 4.3-8.7 1.2-1.9 1.95-2 .7-.05.6 1.65-.1 2.55 1 6.2.8-2.15 2.7-4.8 1.8-2.5 3.55-4.05 1.75-1.55 3.3-1.7 1.55-.2.9 1.2l-1.2 2.9q-.55 1.85-.7 4.45 1.7-2.35 2.9-3.45.85-.8 2.85-2.15 4.55-3.1 3.2.15-3.1 7.1-2.45 10.8.85 4.45 7.9 14.4"/><path fill="#e85382" d="M122.05 32.55Q112 41.85 108.4 45.4 93.55 59.95 93.85 76.8q.15 8.8 3.6 15.35 1.55 2.8 4.9 6.55Q80 84.05 79.85 66.25v-.2q0-13.2 12.25-27.15 8.7-9.9 18.7-15.8 8.8-5.2 9.9-11.9l.1-3.45q0-1.25.4-.8 1.95 2.2 3.2 4.35.5.8 1.1 2.9.35 1.25.6.55l.6-3.1q.4-2 .8-1.6 1.15 1.15 2.65 7.9l.15 1.55q0 4.65-8.25 13.05"/><path fill="#c94772" d="M122.7 39q-11.8 12.5-14.65 16.55-8.4 11.9-8.4 23.9 0 7.25 5.4 19.75-3.5-2.55-7-10.85-2-4.75-1.8-10.3.35-8.5 3.7-16.25 3.1-7.2 8.45-13.1 3.45-3.75 12.9-12.6 8.1-8.3 9.85-14.45.45 1.95-.4 4.85-1.7 5.75-8.05 12.5"/><path fill="#e85382" d="M164.35 98.55q-6.4 6.8-16.3 9.25-7.5 1.9-16.5 1.15-8.4-.7-16.25-3.3-6.35-2.15-7.2-3.35l.15.05-.95-1.75q-5.45-10.05-5.45-19.95 0-11.9 7.85-24 4.4-6.8 14-16.7 2.6-2.75 6.35-8.9 4.45-7.45 3.55-9.8.85.85 2.1 3.05 1.4 2.45 2.5 3.7 1.45 1.65 1.75 1.15l.15-2.15q.05-1.35 1.35-3.8 1.1-2.25 2.65-4.4.45 4.4 1.75 6.75l.85 1.05.45-1.4q.75-1.95 2.25-4.6 2.2-3.75 4.05-5.35l1.3-.9q-.6 1.4-.95 3.9-.4 2.35-.4 4.45.05 1.85.4 1.75l.8-1.25q.5-1 3.05-3.2t2.3-1.35q-.95 3.8-.95 5.7 0 3.05 1.8 6.8 1.85 3.75 6.55 10.35 4.1 5.75 6.4 12.7 2.4 7.3 2.4 14.8 0 7.9-2.75 15.15-3 7.9-9.05 14.4"/><path fill="#c94772" d="M102.35 98.7q-8.9-5.9-14.25-12.2 2.55.9 7.75 2 1.35 3.7 3.55 6.75l2.95 3.45m72.7-39.55q1.1 5.05 1.1 9.85 0 7.9-2.75 15.15-3 7.9-9.05 14.4-6.4 6.8-16.3 9.25-7.5 1.9-16.5 1.15-8.4-.7-16.25-3.3-6.35-2.15-7.2-3.35l.15.05-.95-1.75q-2.85-5.3-4.15-10.25 22.75 6.3 43.9-1.95 22.55-8.85 28-29.25"/><path fill="#5dc1cf" d="M213.6 129.25q1.15.8-.1 11.05-1.35 10.95-4.45 22.85 1.1 5.5-.2 15.25-1.35 9.9-4.2 16.65-2.7 6.45-8.1 11.55-4.45 4.25-14.2 10.6-9.95 6.45-27.55 6.95-19.75.55-35.15-7.75-20.25-10.9-24.4-28.6-2.35-3.2-1.7-6.65.5-2.5 2.5-4.75-.75-3.75 1.25-11.35l2.1-6.85-1.25-2.25q-1.25-2.6-1-4.3-1.1-2.75-2.25-11.5-1.25-9.45-.3-11.55 2.2-1.65 12.55-1.5l12.5.9q1.4-1.2 7.65-3.8 7.4-3.1 12-3.65 10.95-1.3 19.85 1.05 8.3 2.25 15.35 7.85 11.85-4.5 26-3.15 10.45 1 13.1 2.95"/><path fill="#50a8b4" d="M127.3 124.2q7.4-3.1 12-3.65 17.55-2.05 30 5.35-7 4.4-13.5 10.65-4.25 4.05-11.65 12.45-15.5-19.5-32.85-13.2-.2-3.3-2.3-5.85-2.1-2.55-4.8-2.8l9.35.25 6.1.6q1.4-1.2 7.65-3.8"/><path fill="#0d131a" d="M97.85 190.55q0-.4 3.8 0 3.9.4 5.25 1.35l-.6 3.3-1 3.1q-.65 1.75-1.4 1.85-1.25.15-3.55-3.35-2.3-3.65-2.5-6.25"/><path fill="#fff" d="M105.8 192.45l-.9 2.35q-1 2.95-1.45 3-.35 0-1.15-.95l-1.9-2.65q-1.5-2.5-1.5-3.6v-.15l2.85.3q2.35.7 4.05 1.7"/><path fill="#50a8b4" d="M213.6 129.25q1.15.8-.1 11.05-1.35 10.95-4.45 22.85 1.1 5.5-.2 15.25-1.35 9.9-4.2 16.65-2.85 6.75-10.05 13.85-7.1 7-12.25 8.3 5.95-3.1 10.5-9.55 4.85-6.8 6.9-15.6 4.9-20.95-7.35-43.3-3.35-6.2-3.35-7.15 0-.55 2.8-2.5 7.3-5.15 14.95-8.05 6.1-2.35 6.8-1.8"/><path fill="#0d131a" d="M184.5 203l-1.7 1.9q-.95 1.05-1.65.8-.55-.2-1.4-1.5l-3.1-5.15.6-.8 11.05-.9-3.8 5.65"/><path fill="#fff" d="M178.2 199.1q5.35-1.4 8-1.15-4.15 6.3-4.65 6.1l-1.5-2.05-1.85-2.9"/><path fill="#0d131a" d="M215.1 127.55q1.35 1 .25 12.2-1.35 13-5.6 24.45 2.7 11.1-.7 23.3-3.4 12.25-11.15 19 5.3-9.95 7.65-16.55 2.7-7.65 2.95-14.7.1-3.7-.65-8.45-.65-3.95-1.2-5.25-.4-1-.15-1.3.25-.3.9.25l1.35 1.4q3.25-12.5 4.35-22.4.95-8.3.05-9.75-2.95-1.8-12.75-2.75-13.95-1.35-25.65 3.1l-.4.1-.3-.2q-7.05-5.6-15.6-7.35-8.1-1.65-18.9-.1-6.7 1-14.4 4.75-5.25 2.55-9.15 5.4-2.3 1.65-2.7 1.35-.4-.2.75-1.5l2.6-2.5 1.6-1.4-11.8-.9q-9.4-.2-11.55 1.2-.9.85-.35 6.15.65 6.2 3.05 14.3l.5-.45Q95.75 135 95.95 131.7q.05-.85.8-1.05 1.45-.05 4.75 5.65 3.2 5.55 3.6 8.45l.55-.3 2-.3q1.45 0 1.4.65-.1.65-1.55 1-1.55.4-4.7 2.2-3.6 2.05-5.1 3.8-.95 1.15-.15 4.85l1 3.45q-1.75 3.75-2.2 10.65-.25 3.4-.15 6.1-2.9 3.6-1.75 7.7t5.15 4.7q3.15.45 9.85 3.1 8.5 3.3 13.5 7.1l.15.1.05.1q1.65 2.95 5.15 5.6 3.65 2.75 5.95 2.5 2.7-.25 11.65-4.3h.05q13.85-3.65 33.9-6l7.9-1q1.7-.15 3.35-1.25l2.15-1.7q.9-.7 1.25-.35.4.35-.25 1.35l-1.6 1.85q-1.25 1-3.8 1.7l-2.5.35-4.6.5q-23 2.7-34.4 5.7-9.95 5.1-12.85 5.4-2.75.3-6.9-3.2-3.7-3.05-5.55-6.3-4.8-3.55-12.65-6.4-5.75-2.1-9.1-2.6-2.3-.4-3.65-1.25 4.8 15.6 23.3 25.55 13.95 7.5 29.65 7.35 14.7-.15 32.8-7.05 2.9-1.1 3.45-.8.55.3-3.05 2-16.8 7.9-33 8-16.2.1-30.45-7.55-20.25-10.9-24.5-28.8-3-1.6-3-5.75-.05-4 2.7-7.05-.15-9.3 2.5-15.9-1.35-2.15-1.55-4.95-.25-2.75.8-4.25-3.2-8.65-3.75-16.45-.45-6.75 1.05-7.75 2.95-1.85 13.3-1.1l12.6 1.5q2.25-1.55 8.2-3.95 7.1-2.9 11.55-3.45 10.85-1.3 19.4.7 8.75 2.05 16.05 7.75 11.9-4.4 26.4-3.45 11.2.75 14 2.7"/><path fill="#431e37" d="M97 132.15v-.25q1.2 1.2 3.6 6.05 2.55 5.1 3.1 7.9-2.15.65-4.55 2.65l-1.3-8.05q-.85-6.1-.85-8.3"/><path fill="#0d131a" d="M102.6 156.75q1.35.5 2 1 3.85 3 9.1 12.95 4.65 9 6.55 15.5l.65 2.6q.05.95-.45.9l-.8-.55-.25-.5q-3.55.9-10.85-2.9-5.9-3-9.8-6.35-.9-.3-1.1-1.05-.1-.45.25-.8l.4-.25q-1-5.7.35-11.55 1.3-5.35 3.35-6.85l-1.3-1.35q-.35-.7 0-1l1.9.2"/><path fill="#fff" d="M99.4 173.9q0-4.9 1.55-9.65 1.35-4.1 2.4-4.65 2.4.75 7.65 10.65 5.15 9.65 7.35 17.15-3.2.25-9.45-3-5.3-2.8-9.1-5.9-.4-2.5-.4-4.6"/><path fill="#0d131a" d="M108.05 164.2l.9-.05q3.1 4.9 6.3 11.9 3.2 7.05 4.5 11.8l.15.5-4.6-.5q-5.2-.9-8.1-3l-.15-.05-.1-.2q-2.3-6.3-2.35-10.5-.1-5.6 3.45-9.9"/><path fill="#91308c" d="M106.3 175.2q0-5.25 2.25-9.65 2.9 4.7 5.8 11.05 2.9 6.4 4.2 10.95-3.55.4-10.65-3.5-1.6-4.3-1.6-8.85"/><path fill="#0d131a" d="M190.65 157.55q1.45-.2 1.4.6-.05.75-.8 1.15l-2 .85q3.1 2.3 3.65 10.45.45 7.4-1.2 11.35 2.1.1 1.9.8l-.85.75-2.65.65-30.4 6.35-1.15.45q-1.05.1-.7-1.5 1.3-6.3 4.8-11.75 3.35-5.35 9.55-11.05 8.4-7.65 18.45-9.1"/><path fill="#fff" d="M172.95 169.5q4.1-3.75 8.25-6.3 3.8-2.3 6.4-2.85 1.5 1.8 2.35 6.65.8 4.35.8 9.15 0 4.3-.65 6.25-5.3.75-26.3 5.7l-3.6.85q.5-4.05 3.85-9.15 3.35-5.15 8.9-10.3"/><path fill="#0d131a" d="M179.35 162.85l.6-.4.2.7q4.7 10.2 1.8 21.75l-.1.35-.3.05-17.45 4-5.25 1.2v-.65q.25-6.35 7.25-14.85 5.95-7.2 13.25-12.15"/><path fill="#91308c" d="M179.35 164.15q2.25 8.5 2.25 14.4 0 3.15-.65 5.8l-17.1 3.95-3.85.9q.55-5.95 7-13.7 5.5-6.6 12.35-11.35"/><path fill="#0d131a" d="M211.45 132.3l-.75.75-.4.25q1.3 1.9-.45 11.65-1.5 8.25-2.6 11.15l-.8 1.75-.55-.85q-.5-1.25-4.35-5.45-4.4-4.7-7.95-7.1l-1.1.75q-.65.45-.85 0-.2-.5.7-1.55 1.35-1.6 7.4-6.2 6.7-5.15 8.9-5.6l2.85-.3q.35.15-.05.75"/><path fill="#431e37" d="M208.05 145.15q-.9 6.15-1.9 10.2-1.65-2.75-4.35-5.85-3.25-3.8-6.45-6.05 3.2-3.15 6.6-5.7 4.25-3.25 6.95-4.05l.15 1.4q0 3.35-1 10.05"/><path fill="#0d131a" d="M119.55 162.75q-.8-1.7-.4-2.1.4-.4 1.45 1.45 1.5 2.5 2.65 5.45 1.5 3.95 1.7 7.2.2 3.25-.25 2.25l-1.05-3.4-1.8-5.35-2.3-5.5m44.85-3.65q1.05-.75 1.3-.4.25.4-.55 1.1-2.15 1.95-4.05 6.2-2.05 4.6-3.2 10.6-.35 2-.8 2.3-.45.35-.35-2.05.6-12.9 7.65-17.75m-39.35 38.15l1.1.05q.9.6 1.45 1.55l.8 1.9q.3.9 0 .9l-.9-.6-2.05-2.45q-.6-.8-.4-1.35m12.3 5q.45-1.55 3.55-2.95.9-.45 1.2.15.35.6-.45 1.15l-3.4 2.2-1.2.5.3-1.05m-25.55-31.4l1.8 3.6 1.7 3.7q-.2 2.3-.8 3.8-.65 1.55-1.45 1.55-.95 0-1.65-2-.65-2.05-.65-4.9 0-3.75 1.05-5.75m58.25 9.9q-.4 2.6-1.5 4.35-1.05 1.7-2.15 1.5-1.05-.15-1.55-2.1-.45-2-.05-4.6.4-2.6 1.5-4.3 1.05-1.75 2.15-1.55 1.1.2 1.55 2.15.45 1.95.05 4.55M168.7 94.8q7.35-3.55 21.15-8.6 14.2-5.25 21.25-6.8l1.35.1q.1.4-1.15.7-6.35 1.6-21.65 7.55-14.5 5.65-22.55 9.45l1.6-2.4m63-17q-11.3 2.65-32.35 10.15-23.9 8.5-36.85 15.25l.55-1.75q12.55-6.6 35.35-14.65 21.7-7.6 33.1-9.8 1.25-.2 1.35.15.1.4-1.15.65"/><path fill="#0d131a" d="M197.2 84.1q.75-4.95 2.45-9.25.25-.75.55-.65.35.1.1.85-1.15 3.55-2 8.8l-1.1.25m-14.05 5.35q1.05-5.4 2.2-9.25.25-.75.55-.6.3.15.1.9-.9 3.35-1.55 8.3l-1.3.65m17.5-6.75q.35-2.65.95-4.7.15-.6.5-.5.3.1.2.7l-.7 4.25-.95.25m8.95 1.25l3.6 3.15q.45.4.2.65l-.7-.15-4.35-3.4 1.25-.25m-26.1 9.3l1.05-.55q1.75 1.15 4.45 3.55l4.05 4.1q.45.55.2.8-.3.25-.75-.3l-4.45-4-4.55-3.6m7.75-3.05l1.15-.5q4.05 3.05 7.15 6.8.5.55.2.75-.3.2-.8-.35-3.6-3.7-7.7-6.7M97.65 97l2.1 1.3q-9.1 1.95-22.75 5.45-16.15 4.2-21.9 6.45l-1.35.05q-.15-.35 1.05-.85 6.35-2.6 21.2-6.85Q89.3 98.8 97.65 97m-60.6 23l-1.3.1q-.15-.35 1-.85 9.8-4.35 27.25-9.45 17.3-5.1 30.95-7.65l2.8.95q-13.35 2.6-32.5 7.95-18.8 5.25-28.2 8.95"/><path fill="#0d131a" d="M65.25 98.45q-.65-.45-.45-.7l.85.15q3.7 2.45 7.3 6.15l-1.05.45q-3.55-3.7-6.65-6.05m11.4 4.3l-.95.35-3-3.05q-.6-.55-.4-.8.2-.25.85.25l3.5 3.25m-31.1 13.6l.95-.35q-.4 2.25-.5 4.55-.05.75-.4.8-.3 0-.35-.75-.05-1.65.3-4.25m22.4-6.9q-.15 2.6-.15 5.9.05 4 .3 5.7.1.7-.25.75-.35.1-.5-.6-.4-2.15-.6-5.75-.15-3.7.1-5.75l1.1-.25m-4.5 1.25q-.7 5.25-.5 10.1.05.75-.3.85-.3.05-.4-.65-.55-4.7.05-9.9l1.15-.4"/><path fill="#008982" d="M138.4 134.55q3-2.9 17.85.45 14.95 3.35 15.25 7.45.25 3.65-9.8 12.9-10.1 9.3-14.1 8.75-3.85-.55-7.85-13.8-3.95-13.2-1.35-15.75"/><path fill="#00736d" d="M137.9 142.25q-.95-6.25.5-7.7 1.45-1.4 7.15-1.1 5.3.25 11.65 1.8-4.6 4.25-13.05 13.75-3.5-4.25-6.25-6.75"/><path fill="#008982" d="M137.35 162.9q1.15 2.05-.3 8-1.4 5.75-2.75 5.85-1 .1-3.55-4.55-2.6-4.8-2.1-6.5.5-1.7 4.4-2.65l4.3-.15m-57.8 17.15l-4.5-.15q-.85-.5-2.6-3.2-1.85-2.95-1.7-4.05.15-1.35 1.85-4.9 1.75-3.8 3.05-5.2 1.4-1.45 5.95-2.05 4.45-.6 4.85.4.7 1.7 0 8.95-.65 7.5-1.85 8.65-1.15 1.15-5.05 1.55M71.2 155.6q-.15 1.05-2.3 2.4-2.05 1.25-2.85 1.15-.85-.15-2.4-3-1.6-3-.8-3.7.95-.85 4.7.5 3.85 1.4 3.65 2.65m-32.45 41.85l.05-5-.8-7.25q-.45-4.45-.5-7.8 4.05-1.15 5.25-1 .8.1 3.65 5.15 2.85 5.1 2.85 6.7 0 1.65-2.15 5.7-2.15 4-3.15 4.4-1.2.55-5.2-.9m90.7 30.05q1-.2 7.1 4.8 6.1 4.95 6.45 6.25.35 1.3-1.05 5.15-1.35 3.85-2.15 4.25-.75.3-3.75 0l-3.65-.7q-.75-.4-2.6-3-1.85-2.65-2.2-3.85-.4-1.3.35-6.95.7-5.8 1.5-5.95m-2.7 23.05q.85-.3 3.95 1.1 3.15 1.4 3.35 2.4.2 1-1.6 3.25-1.7 2.2-2.5 2.4l-2.35-.3q-1.6-.5-1.9-1.25-.45-1.2 0-4.3.45-3.1 1.05-3.3m65-16q-.45.9-4.4 1.4-3.95.5-4.2-.45-.25-1 1.75-4t2.95-2.95q.95.1 2.65 2.65 1.65 2.6 1.25 3.35m8.85-2.85l-.15.4-4-.15q-.9-.9-1.15-5.1-.25-3.9.2-5.45l.1-.4q4.9-.8 8.45.15-1.45 5.55-3.45 10.55"/><path fill="#00736d" d="M205.75 214.15l-1.7 7q-3.55-.95-8.45-.15.6-1.7 1.9-3.9 1.45-2.45 2.2-2.75l2.6-.3 3.45.1"/><path fill="#0d131a" d="M155.9 136.1q-14.8-3.2-16.7-.65-1.8 2.5 1.65 14.5 3.45 12.15 6.75 13.1 3.4 1.05 13.1-8.6 9.2-9.1 9.6-11.75.5-3.4-14.4-6.6m16.7 6.8q-.45 3.6-10.45 13.3-10.55 10.25-15 8.9-4.85-1.4-8.6-15.05-3.65-13.3-1.15-16.4 1.35-1.65 7.2-1.5 5.45.15 12.15 1.7 16.55 3.9 15.85 9.05m-43.2 22.85q-.25 1.2 1.9 5.6 2.15 4.4 2.9 4.2.95-.25 2.05-5.7 1.1-5.45.25-6.3-.7-.7-3.85.3-3.1 1.05-3.25 1.9m8.4-3.7q1.7 1.55.35 8.2-1.35 6.6-3.5 7.35-1.9.7-4.9-4.9-2.9-5.4-2.5-7.35.35-1.65 4.75-3.1l5.8-.2m-69.05-4.7q1.9-1.15 1.65-1.7-.35-.9-3.25-2-2.9-1.05-3.65-.65-.6.3.65 2.7 1.25 2.35 2 2.6.75.2 2.6-.95m-2.95 2.6q-1.3-.4-2.95-3.7-1.65-3.45-.65-4.5 1.05-1.15 5.35.45 4.3 1.6 4.45 3.25.15 1.3-2.4 3.1t-3.8 1.4M72 167q2.5-5.05 3.2-5.5 1.65-1.05 5.9-1.8 4.55-.85 5.7.1 1.3 1.05.6 9.3-.65 8-1.85 9.75-.95 1.4-5.15 1.95-3.6.45-5.3.05-1.15-.25-3.2-3.4-2.05-3.1-2.25-4.7-.1-.75 2.35-5.75m1.55.7q-2 4.3-1.95 4.9.05 1.2 1.55 3.7 1.55 2.55 2.5 2.9 1 .35 4.35-.05 3.55-.45 4.15-1.35.95-1.4 1.55-8.6.55-7.2-.15-7.75l-4-.15q-3.4.5-5.5 1.75-.5.35-2.5 4.65m-33.5 9.95q-1.8.4-3.05 1l-.1-2q1.35-.55 3.35-1l2.9-.35q1.35.3 4.35 6.2 2.95 5.7 2.8 7-.2 1.85-2.3 6-2.4 4.65-4 4.85l-3.25-.35q-2.05-.5-3.05-1.1v-2.15q.9.75 2.7 1.3l2.95.4q1-.15 2.9-3.95 1.8-3.7 1.8-4.95 0-1.35-2.35-6.1-2.4-4.75-3.25-5.05l-2.4.25m89.7 50.9q-.75.3-1.1 4.8-.3 3.65-.2 7 .05.6 1.85 3.1 1.8 2.4 2.35 2.75l3.45.8q2.95.4 3.45.05.75-.55 1.85-3.9 1.1-3.5.6-4.5-.8-1.6-6.1-6-5.35-4.45-6.15-4.1m-2.7 4.4q.6-5.75 1.85-6.25 1.55-.6 7.75 4.4 5.9 4.8 6.95 6.85.75 1.55-.6 5.6-1.2 3.65-2.3 4.75-.75.8-4.3.5-3.2-.25-4.55-.85-.7-.25-2.9-3.5t-2.25-4.1q-.15-2.95.35-7.4m5.1 23.35q1-1.75.8-2.15-.35-.65-2.7-1.75-2.4-1.1-3.15-1.05-.4 0-.7 2.4-.35 2.5.05 3.85.15.5 1.6 1l1.95.25q1.05-.65 2.15-2.55m2.7-2.55q-.05 1.45-1.6 3.75-1.45 2.15-2.5 2.8l-3.2-.2q-2.4-.75-2.6-1.65-.5-1.7-.05-5.1.4-3.6 1.4-3.9 1.2-.4 4.9 1.4 3.7 1.8 3.65 2.9m53-24.4q-.5 0-2.3 2.65-1.8 2.7-1.5 3.1l3.45-.1q3.15-.55 3.35-1.15.2-.45-1.15-2.45-1.35-2-1.85-2.05m.15-1.65q1.2.2 3.2 3.2 1.95 3 1.55 3.9-.55 1.25-5.05 1.95-4.55.7-5.5-.35-.8-.9 1.85-4.9 2.65-4 3.95-3.8m15.5-14.6l3.95.45-.6 2.05-3.3-.5q-2.35-.15-3.5 0-.65.05-2.15 2.9-1.4 2.75-1.7 4.15-.4 1.9-.15 5.25.3 3.45.9 3.8l1.6.25 3.7-.7-.95 2.15q-4.05 1-5.55 0-1.15-.75-1.45-5.6-.3-4 0-5.5.2-1.25 1.9-4.55 1.95-3.95 3.25-4.1 1.3-.15 4.05-.05"/><path fill="#0d131a" d="M188.65 108.75l1.15 1.85 1.35 2.3q.85 1.6.55 1.8l-1.55.05-2.1-.25 2.05.75q.95.35 1.25.75.55.7.55 4.65.05 4-.95 3.5l-6.25-2.35-6.4-2.2q5.35 3.6 8.75 6.45l1.55 1.35q.7.75.35 1.35-7.05 12.95-7.75 13-.4 0-3.05-3.05l-4.1-4.9 3.05 10.65q.5 2.25-.6 3.9-.65 1-5.55 5.1-4.9 4.1-5.1 3.85l-.45-4.9-.4-6.85-1.95 3.95q-1.15 2.35-1.65 2.45-.65.15-7.1-3-6.45-3.15-6.35-3.8.1-.55 3.4-5.15l3.9-5.35q-.85.9-3.8 4.65l-2.7 3.15-4.35-2.5-4.1-2.8q0-.45 3.5-4.25 3.7-4.05 6.55-6.55-2.05.95-6.35 5l-4.25 3.75q-.6.05-5.8-4.35-5.15-4.35-5.2-5-.05-.6 3.45-4.7 3.35-4 6.4-7-2.05 1.15-8.5 7.4-6 5.85-6.4 5.85-.7 0-2.8-3.65-2.05-3.6-1.95-4.4.1-.8 2.55-3.95 3.15-4.1 7.1-7 12.2-9.05 25.8-2.9l.9-.35q18.25-8.15 33.2 3.6l.15.1"/><path fill="#00a63c" d="M183.75 120.55l-9.05-3.15q-3.15-.85-3.15-.55 0 .25 2.8 1.7 2.65 1.4 7.05 4.7l6.25 5.25L184 135q-2.6 4.6-3 4.65-.55 0-7.75-8.6l-1.4-1.4.35 2 2.15 8q1.9 6.6 1.75 6.95l-3.9 3.6-5.3 4.5-.1-7q-.05-5.6-.35-6.1-.5-.8-5.5 8.65-8.15-4.85-10.7-5.9l4.45-6.2 4.4-6.15 1.4-1.8q.25-.7-2.1.55-3.8 2-9.95 10.05l-6.25-3.95 5.45-5.95q4.35-4.5 5.85-5.3l2-1.1-2.2-.05q-5.5.35-13.65 8.95l-9.2-7.8q1.75-2.35 5.25-6.4 4.3-5 5.6-5.9l1.65-1.2-1.85.1q-4.75.75-10.25 5.7-2.95 2.7-7 7.35l-3.65-5.7q4.35-7.5 11.35-11.8 10.9-6.75 23.55-1.3l.65-.25q6.8-2.7 12.5-3 10.6-.5 19.4 6.35l1.85 3.8-1.4-.15-3.3-.1-2.55.3q.15.25 2.25.9 2.4.75 5.9 2.65l.2 2.75q.1 2.55-.15 3.2l-6.7-2.35"/><path fill="#0d131a" d="M78.85 69.05l.1 1.25q-10.55-4.35-16.9-6.1-1.25-.35-1.1-.75l1.35-.1q6.8 1.9 16.55 5.7m.65 3.75l.25 1.4q-16.8-8.2-30-12.05-1.2-.35-1.05-.75l1.3-.05Q63.25 65.1 79.5 72.8"/><path fill="#0d131a" d="M73.25 67.4l-1.1-.3q-.5-5.2-1.5-8.85-.2-.75.1-.85.3-.1.55.65 1.4 4.35 1.95 9.35m-3.15-1.15l-1-.3q0-2.6-.55-4.95-.1-.6.2-.7l.5.5q.85 2.2.85 5.45m-.35 2.8l1.05.45-4 3.5-4.45 3q-.65.3-.8 0-.2-.3.45-.65 2.3-1.35 7.75-6.3m94.35 50.3q-2.6-9.2-9-12.9l1.2-.85q6.7 4.05 9.2 13.85 2.3 8.95.35 19.2-.3 1.45-.7 1.35-.4-.1-.2-1.55 1.6-10.5-.85-19.1"/><path fill="#0d131a" d="M167.65 130.55q1.3-17.65-9.8-25.95l1.4-.45q11.45 8.5 9.25 26.55-.2 1.5-.55 1.45-.4-.1-.3-1.6"/><path fill="#0d131a" d="M161.75 112.55l1.15 1.5q-3.8-.2-7.25 1.1-3.35 1.3-6.95 4.25-.95.75-1.2.5-.3-.2.55-1.05 6.15-6.2 13.7-6.3"/></svg>