<svg xmlns="http://www.w3.org/2000/svg" width="290" height="235" viewBox="-0.45 -0.2 289.65 234.5"><path fill="#fff1ac" d="M42.05 100.4l.35 7.35q-6.7-.9-21.15 1.75-8 1.45-17.5 3.8-2.3.6-.3-1.05 2.05-1.65 6.8-3.8 13.8-6.25 31.8-8.05m3.25 16.7l3.25 6.65Q42 125.2 29.1 132.7q-7.35 4.3-15.3 9.65-1.95 1.35-.65-.85 1.35-2.3 5.05-5.95 10.8-10.6 27.1-18.45m-1.8-7l.95 5.05q-4.5.05-11.45 3.75-3.65 1.95-8.7 4.85-1.45.6-.65-1.05.85-1.7 3.35-4 6.95-6.5 16.5-8.6"/><path fill="#dcd096" d="M42.15 102.35l.25 5.4q-8.2-1.1-27.2 2.9 4.8-2.85 11.85-4.9 5.5-1.6 15.1-3.4m4.1 16.75l2.3 4.65q-8 1.8-24.5 12 4.35-4.9 9.8-8.95 4.95-3.65 12.4-7.7m-2.4-7.25l.6 3.3q-4.05.05-9.9 2.95-3.25 1.6-8.4 4.7 7.2-8.15 17.7-10.95"/><path fill="#c18963" d="M71.25 169.65q2.1-4.4 4.05-5.9 2.55-1.9 6.4-.7 3.75 1.2 5.85 1.5l3.1.1 6.95 11.3 4.05 10.7q-5.2 2.85-10.85.15-1.75-.85-3.35-2.15l-1.25-1.1-5.9 9.75q-1.75 3-3.55.05-1.8-2.85-.95-5.95.65-2.45 2.75-5.6l2.8-3.8q.65-.85-.5-3.1l-1.25-2.1-2.7 3.05q-3.2 3.1-5.6 3.55-2.65.5-2.35-2.65.2-2.65 2.3-7.1"/><path fill="#986c4c" d="M76.9 175.85q-3.2 3.1-5.6 3.55h-1.1q2.5-.9 5-5 2.45-3.95 4.45-4.55 2.45-.8 6.65-.65 5.05.15 6.65-.1l4.8 6.5 3.8 11.35q-5.2 2.8-10.8 0-1.75-.9-3.35-2.25l-1.2-1.15-5.9 9.75q-.95 1.65-2.1 1.35-1-.25-1.8-1.85 3.15-2.65 4.25-6.05 1.2-3.8-.9-6.65l1.6-2.1q.65-.85-.5-3.1l-1.25-2.1-2.7 3.05"/><path fill="#c18963" d="M92.85 168.25l6.6 11.15q-3.05-1.85-5.3-2.3-2.95-.65-5.85.55-1.45.6-1.7-.7-.15-1.15.7-3.2 2.25-5.25 5.55-5.5"/><path fill="#986c4c" d="M99.45 179.4q-4.75-2.85-8.3-2.5 2.05-1.55 2.35-3.4.3-1.95.9-2.55l5.05 8.45"/><path fill="#c18963" d="M150.6 210.35q-.5 1.9-7.8 4.55l-7.95 2.5q-.65.2-2.45 3.05l-2.2 3.6q-.55.8-3.55 2.25-3.1 1.45-4.6 1.45-1.3 0 .8-6.95l2.35-6.95-2.25.6q-2.8.85-5.4 2.15-1.95.95-4.7 4.55-2.5 3.25-4.7 3.8-2.7.65-2.75-2.15l.65-5.85q-2.7.5-2.3-4.6.4-4.95 2.4-6.4 2.15-1.5 6.7-3.65 5.15-2.4 7.75-2.85l30 10.9"/><path fill="#986c4c" d="M150.6 210.35q-.5 1.9-7.8 4.55l-7.95 2.5q-.65.2-2.45 3.05l-2.2 3.6-1.85 1.5-2.45 1.65q0-2.3 3.85-8.55 3.4-5.5 2.55-6.15-1.9-1.45-7.35 1.95l-2.1.15q-2.5.65-5.3 2-1.8.9-3.65 3.2l-2.95 3.55q-.55-7.1 7.2-11.95 7.5-3.5 6.8-4.25-.85-.85-3.05-.6l-2.05.4-2.7.3q-3.45.7-7.1 2.65-1.6-1.5 3-4.95 4.7-3.55 4.1-4.45 1.15-1.05 2.05-1.1l1.4.05 30 10.9"/><path fill="#c18963" d="M266.1 40.6q12.85 17.8 16.8 40.1 4.2 23.75-3.6 43.4-6.5 16.35-20.75 27.65-10.3 8.2-23.1 12.7l1.7-29.95q4.7-1.2 10.25-5.8 6.15-5.1 10.65-12.4 11.65-18.75 7-41.6-5.4-26.4-26.1-47.45-7.45-7.6-15.8-13.3-6.75-4.6-11-6.05-13.3-5.75-12.6-6.7.4-.55 8.8.75 11.5 1.85 24.05 8.6 19.7 10.65 33.7 30.05"/><path fill="#986c4c" d="M237.15 134.5q2.15-.55 4.45-1.85 5.6 1.45 7.95 4.65l1.25 2q.55.8 1.35.8 17.3-2.45 24.6-19.65 5-11.65 6.7-36.15 3 21.8-4.15 39.8-6.5 16.35-20.75 27.65-10.3 8.2-23.1 12.7l1.7-29.95"/><path fill="#d18200" d="M66.05 65.65l-16 11.85q-3.85-4.55-4.55-6.3-.45-1.1 3.05-2.75l3.55-1.4-4.15-6.9q-4.15-7.3-4.15-9.5 0-2.4 9-.35 8.55 1.95 13.45 4.85l-.2 10.5"/><path fill="#c18963" d="M65.6 64l.45 1.65L59.3 70q-4.3-2.35-6.75-6.7-2.4-4.3-1.8-8.55 4.15 1.65 8.1 4.1 3.9 2.45 6.75 5.15"/><path fill="#986c4c" d="M65.6 64l.45 1.65-3.3 2.1q-2.25-2.85-5.65-5.8-3.25-2.8-6.4-4.7-.15-1.1.05-2.5 4.15 1.65 8.1 4.1 3.9 2.45 6.75 5.15"/><path fill="#c18963" d="M227.25 199.65q.9 2.05-1.05 5.35-1.6 2.65-8.4 7l-10.15 6q-1.45 3.65-4.15 7.2-2.85 3.7-5.35 4.95-2.45 1.25-2.55-3.6-.15-4.7 1.6-7.5-3.3 2.05-8.55 7.05l-6.75 6.15q-2.2 1.55-2.55-3.95l.1-5.75-2.15 1.2q-2.85 1.9-6.1 5.5-1.55 1.75-1.9-2.6-.35-4.45 1.4-7.7 1.7-3.15 4.85-5.6 2.45-1.95 6.7-4.05l36.15-19.8q7.65 7.5 8.85 10.15"/><path fill="#986c4c" d="M184.45 230.15q2.15-8.6 7.05-12.6 1.75-1.4 4.45-2.75l4.55-2.2q-.45 1.15-3.25 4.25-2.6 2.85-2.8 4.15-2.25 1.75-5.3 4.65l-4.7 4.5"/><path fill="#986c4c" d="M226.75 199.75q.55 1.65-1.05 5.75-1.05 2.85-7.85 6.9l-10.2 5.6-4.3 6.05q-3.05 4.35-5.1 5.55.7-4.75 3.3-9.85 2.35-4.65 5.35-7.9 1-1.1 5.2-3.8 1.95-1.3.8-3.25-1.85-2.65-6.4-3.85-3.8-1-7.75-.7l19.65-10.75q7.3 7.15 8.35 10.25"/><path fill="#d18200" d="M165.9 81.65q2.8-2.4 10.55-4.25l7.2-1.35q-2.45 2.1-7.35 7.65 6.5-3.2 15.1-4.1 9-.95 14.85 1.35-3.45.5-8.55 3.4-5.1 2.85-5.05 4.25l9.7-.5 5.8.5-5.4 3.15 9.2.9q-2.25.8-5.7 2.9 4.75 1.1 10.65 6 6.3 5.25 11.3 12.85 12.55 19 9.7 39.95-3.15 23.35-25.2 40.4-22.25 17.15-49.25 16.65-22.6-.45-38.9-10-5.1-2.95-8.95-6.5l-2.85-2.95q.5 3.45-.65 3.4-1.15-.05-6.75-11.45l-1.1 2.45q-1.3 2.45-2.4 2.45-2.6-14.55-10.25-23-2.35-2.65-4.95-4.35l-2.15-1.2-14.3-1.05q-3.55 0-6.75-2.35-3.4-2.6-5.4-7.35-.9-2.1-2.4-11.3-1.2-7.4-4.2-11-7.35-8.75-9.75-23.65-.85-5.45 1.75-10.9l2.75-4.4-1.05-2.3q-.95-2.55-.35-3.6.85-1.45 9.55-8.5 8.9-7.2 11.35-8.2 0-4.6.6-9.55 1.2-9.95 4.25-11.7-.35 3.85.35 6.25l1.25-2.75q1.5-2.65 2.6-2.45-.85 2.85-.5 7.65l.5 4.2 2.75-6.65.6 1.35 1.15 4.25q3.9-6.75 15.2-12.4 5.7-2.8 10.55-4.3-2.15 1.75-4.15 3.85-4 4.3-3.15 6.25 1.55-2.2 6.65-4.45l4.85-1.85-2.7 2.85q-2.8 3.4-3.25 6.2 6.8-8.25 22.3-10.45-1.75 1.1-4.85 5.55l-2.8 4.2 3.5-1.5q3.75-1.45 4.85-1.25-1.3 1.3-2.2 4.75l-.6 3.25 42.45 24.7"/><path fill="#ab6a00" d="M104.35 45.2l4.85-1.85-1.8 1.8q-2.05 2.25-3.1 4.35l-2.95 2.7-3.05 2.4q-.25-.55-.05-2.5.15-1.5-.6-1.5-3.95 0-9.35 5.3 2.35-5.75 7.2-12.55 5.2-2.5 9.5-3.8-2.15 1.75-4.15 3.85-4 4.3-3.15 6.25 1.55-2.2 6.65-4.45m18.05-2.7l3.15-.55q-1.75 1.1-4.85 5.55l-2.8 4.2 3.5-1.5q3.75-1.45 4.85-1.25-1.3 1.3-2.2 4.75l-.6 3.25 3 1.75q-6.9.6-14.8 3.2 1.3-2.65 5.3-6.65h-8q2.45-3.55 6.2-6.9 2.8-2.6 7.25-5.85m-50.6 6.15q1.65-3.45 2.95-3.2-1.15 3.6-.25 10.5-1.25 3.15-1.5 5.3-1.75-5.2-1.2-12.6m4.4 25.7q-2.15 3.35-5.1 10.35-3.15 5.5-9.5 6.15-6.6.7-6.25-4.85.25-4.15 2.55-7 1.3-1.55 10.5-4.15 9.25-2.6 7.8-.5M191.8 95.8q-6.8-4.1-16.8-5.95-8.85-1.6-23.4-1.95 3.4-6.75 2.9-12.9l11.4 6.65q2.8-2.4 10.55-4.25l7.2-1.35q-2.45 2.1-7.35 7.65 6.5-3.2 15.1-4.1 9-.95 14.85 1.35-3.45.5-8.55 3.4-5.1 2.85-5.05 4.25l9.8-.5 5.9.5-5.6 3.15 8.55.9q-1.6.8-5.05 2.9 4.75 1.1 10.65 6 6.3 5.25 11.3 12.85 12.55 19 9.7 39.95-3.15 23.35-25.2 40.4-22.25 17.15-49.25 16.65l-4.65-.2q17.85-5.65 29.65-19.2 10.55-12.1 14.6-28.4.95-3.85 1.5-14.85.45-9.2 1.3-9.6 1.05-.45 2.95 2.3 2 2.95 2.8 2.95.15-7.1-1-12.9l-1.45-6.2q-.3-1.7.7-1.2.65.3 4.6 3.4-9.6-23.9-22.65-31.7"/><path fill="#d18200" d="M165.4 83.45q-3.75 12.8-20.05 12.1-9.55-.4-17.6-3.7-7.75-3.15-12.1-8.1-4.45-5.1-4.1-10.65.4-6 6.35-11.3 13.6-12.1 26.05-18.3 14.45-7.2 24.7-5-.35 3.8-4.15 13.2l4.55 3.55q4.5 3.75 4.5 4.8 0 1.75-7.65 10.45l.45 4.1q.2 4.85-.95 8.85"/><path fill="#c18963" d="M122.7 72.95q1.1-3.9 9.15-11.05 7.9-7.05 16.2-11.75 5.25-2.95 10.35 3.05 4.8 5.6 4.8 12.3 0 9.65-4.75 16.1-5.2 7.1-13.9 6.7-11.2-.5-14.65-5.05-2.95-6.4-7.2-10.3"/><path fill="#986c4c" d="M156.85 51.6q-10 7.3-17.05 14.4-8.25 8.3-11 15.05-2.25-4.45-6.1-7.95 1.1-3.9 9.15-11.15 7.95-7.15 16.2-11.8 4.3-2.4 8.8 1.45"/><path fill="#fff1ac" d="M168.65 118.15q6.45 2.4 6.55 3.7l-4.45.15q-7.3-1.85-22.85-3.75-20.6-2.55-31.4-1.15 2.15 1.45 6.2 5.3 5.35 5.1 4.9 6.9l-2.05 6.6-8 4.15 3.9.25 4 .15h2.5l-4.85 2.05 5.45.25 5.5.25 4.35.55 5.1 2.95q5.5 3.6 7.45 6.7.7 1.15 2.75 10.6 1.55 7.25 5.15 7.75 10.55 1.5 15.9 3.2 6.45 2.05 10.1 5.7l-6.65-1.1q-2.6-.45-2.35.2l4.55 3.3q3.6 2.55 4.15 4.8.25 1-.2 1.05-.7.1-.85 1.25l1.25 4.3q.75 3.25.3 5.3-1.5 6.45-6.9 10.8-6.9 1.2-14.7 1.05-22.6-.45-38.85-10.1-5.1-3.05-8.95-6.6l-2.8-3q.25 3.55-.5 3.85-.7.3-7-11.65l-1.1 2.45q-1.3 2.45-2.4 2.45-2.6-14.55-10.25-23-2.35-2.65-4.95-4.35l-2.15-1.2-14.3-1.05q-3.55 0-6.75-2.35-3.4-2.6-5.4-7.35-.9-2.1-2.4-11.3-1.2-7.4-4.2-11-7.35-8.75-9.75-23.65-.6-3.4.4-7.6 1.2-4.95 4.1-7.7l-2.15-3.95q-.45-1.15.25-1.75l1.35-1.3.55-.65q1.55.8 4.95.5 3.35-.3 6-1.35 2.4-.95 4.5.95 1.75 1.55 2.25 3.8.45 2.3 2.3 4.3l1.75 1.5 11.15-.4q12.05.35 16.85 4.25 4.75-3.55 11.25-6.4 5.35-2.3 9.65-3.3 8.15-1.85 17.9-2.35 8.25-.45 20.1 0 5.65.2 6.65 1 .9.75-2.9 1.3-13.15 1.4-24.8 3.55Q111.15 92.1 103.25 98q8.15-1.65 15.25-2.05 13.85-.85 28.6 1.7 3.8.65 4.15 1.7.3 1.05-3.1 1.05-13.15 0-18.15.3-16.15.85-23.6 4.15 2.4 1.4 5.55 3.55l19.2 1.5q22.2 2.65 37.5 8.25"/><path fill="#dcd096" d="M98.7 98.8q2.4-2.3 6.3-5.05 10.65-7.5 22.35-11.1 10.7-1.2 27.5-.55 5.65.2 6.65 1 .9.75-2.9 1.3-12.3 1.35-23.45 3.3-21.6 3.85-30.3 9.2-6.7 5-7.85 4.35-.5-.3 1.7-2.45m33.3-2.9q7.35.4 15.1 1.75 3.8.65 4.15 1.7.3 1.05-3.1 1.05-12.25 0-18.1.35-16.1.95-23.6 4.25 2.45 1.4 5.5 3.4.2.15 0 .3l-2.5.2-8.25-.85q-3.7-.65-3.55-1.5.3-1.5 12.85-5.65 13.2-4.35 21.5-5m36.65 22.25q6.55 2.15 6.6 3.6.05 1.4-4.5.25-7.3-1.85-22.85-3.75-20.6-2.55-31.4-1.15 2.15 1.45 6.2 5.3 5.35 5.1 4.9 6.9l-1.35 4.5q-5.85-11.55-13.15-14.3-2-.75-4.75-1-2.25-.2-2.7-.6-1.5-1.45 13.05-3.95 14.95-2.6 24.25-2.05 13.6 2.25 25.7 6.25m-60.3 70.7q1.5-.15 2.05-5.9.45-4.75 1.25-3.25l2.8 7.65q2.15 6.25 4.85 10.25l-5.15-4.25-1.45-1.45-.35 3.8-4-6.85m-53.4-102.3l2.45-6.9q2.25-.75 4.25 1.15 1.6 1.5 2.25 3.7.7 2.45 3.8 5.8l-.2.1.2.1-7.95.85-4.1-.25q-1.7-.85-.7-4.55m59.6 70.75q3.1 2.2 3.15 3.25 0 .8-1.85 1.25l-3.25.8q-1.55.65-.95 2 .95 2.3-5.9-2.25l-3.65-2.3q-1-.5 1.05 1.55 3.9 3.9-2.75 1.5l-7.4-3.15-2.9-.9q-2.45-.95-.25-1.1 1.8-.1 10.25-2.85 8.8-1.8 14.45 2.2m70.5 42.25q-1.85 8-7.65 10.75-7.1 1.25-13.95 1.1l-10.95-.85q7.95-.35 16.1-3.65 9-3.7 16.55-10.4.15 1.85-.1 3.05"/><path fill="#c18963" d="M166.25 167.2q-3.7 4.2-8.3 6.3-5.1 2.35-8.55.6-1.95-.95-5.45-4.2-2.4-2.25-4.15-1.65-1.9 1.75-3.5 4.7-1.1 2.05-2.05 1.9-2.2-.25-2.2-5.7 0-5.5 2.55-7.15 2.4-1.55 7.5-1.6l4.65.2q.25-1.65-.05-3.65-.6-4-3.45-5.75-1.6.35-4.75 2.4-2.5 1.65-3.25 1.1-2.2-1.7.1-6 2.25-4.35 6.2-6.2 3.8-1.75 7.05-.55 3.1 1.15 4.4 4.4 1.1 2.6 3.05 5.2l2.55 3.15q1 1.4 6.25 2.1l1.5-2.4q1.7-2.35 3-2.15 1.8.3 3.45 1.7 1.9 1.6 2.15 3.55.3 2.2-1.25 7.2-1.6 5.1-2.95 5.65-2.8 1.1-3.95-.9l-.55-2.25"/><path fill="#986c4c" d="M145.55 141.5q2.55-.1 4.55 1.25 1.95 1.25 2.9 3.6 1.1 2.6 3.05 5.2l2.55 3.15q.4.55 2.6 1.35l3.35 1q-2.7 2.65-5.7 2.85-3.35.3-5.25-2.7-.7-1.25-1.3-3.85l-1-4.6q-1.6-5.65-5.75-7.25m29.4 16q.3 2.2-1.25 7.2-1.6 5.1-2.95 5.65l-1.95.35q2.15-5 2.3-10.1.15-6-3.05-7.95.7-.45 1.3-.4 1.8.3 3.45 1.7 1.9 1.6 2.15 3.55m-9.35 4.1q0 2.25.7 5.55-3.8 4.15-8.35 6.25-5.2 2.4-8.55.7-1.95-.95-5.45-4.2-2.4-2.25-4.15-1.65-1.9 1.75-3.5 4.7-1.1 2.05-2.05 1.9l.75-.95q.95-1.3 1.05-2.65.15-1.45.75-2.55l1.7-2.55q2.75-3.95 12.5 3.2 2.35 1.75 8.25-1.6 5.7-3.3 6.35-6.15"/><path fill="#fff" d="M95.7 68.8q1.65.8 3.1 4.25 1.55 3.8.4 6.3-.55.45-11.4 2.6-10.8 2.15-12.35 3.5 4.1-8.2 11.8-13.35 6.4-4.35 8.45-3.3"/><path fill="#dbdcdc" d="M87.25 72.1q6.4-4.35 8.45-3.3.95.45 2.15 2.4Q85.3 75.55 78.9 84q-2.8.85-3.45 1.45 4.1-8.2 11.8-13.35"/><path fill="#fff" d="M62.4 145.35q-2.5-4.95-3.6-13.6-.4-3.05-.1-4.65l.4-.95-1.4-.35q-1.1-.25-4.65-6.35-3.6-6.25-4.5-9.65-1.4-5.15-1.05-6.55.55-2.05 4.65-3.5 4.2-1.45 10.05-1.05 5.5.4 6.75 1.75 5.25 5.8 12.5 15.65 8.5 11.6 9 14.9.4 2.4-1.35 10t-3.05 9.4q-1.2 1.65-7.7 1.95l-10.05-.45q-3.65-2.1-5.9-6.55"/><path fill="#dbdcdc" d="M75.55 137.35l-6.1-9.4q-.6-.9-2.7-2.05-1.2-.6.25-.85 1.5-.25 1.45-9.15-.05-12.55.3-15.65l.2.2q5.25 5.8 12.5 15.65 8.5 11.6 9 14.9.35 2.15-1.1 8.85-1.4 6.6-2.8 9.6-4.95-3.55-11-12.1"/><path fill="#922f00" d="M77 133.5l-6.55-9.05q-.05-3.3.35-7.25.75-7.9 2.95-11.1 6 7.45 10.6 14.1 5.7 8.2 6.1 10.8.2 1.4-.45 5.35-.6 3.55-1.6 7.5-4.05-1.1-11.4-10.35"/><path fill="#0d131a" d="M41.95 99.75l.15 1.35q-13.45 1.3-25.3 5.45-8.9 3.1-12.65 5.95 27.7-6.85 38.3-5.45l-.15 1.35q-6.05-.85-18.7 1.35-8.85 1.5-19.65 4.2-3.45 1.25-3.9.5-.5-.75 2.85-2.9 7.15-4.5 13.5-6.75 9.95-3.5 25.55-5.05M45 116.5l.55 1.2q-12.15 5.9-21.85 13.85-7.3 6-9.85 9.95 8-5.35 15.25-9.55 12.75-7.4 19.3-8.85l.3 1.3q-6.6 1.45-19.65 9.1-7.75 4.5-14.9 9.4l-2.2 1.5q-1.6.7-.45-1.75 2.4-5.15 9.8-11.4 9.3-7.8 23.7-14.75m-1.6-7.05l.25 1.3q-7.4 1.6-13.55 6.25-4.6 3.45-5.9 6.05l4.1-2.25 7.7-4.15q4.85-2.15 8.45-2.15v1.3q-3.3.05-8 2.15-2.6 1.15-7.5 4l-4.4 2.4q-2.5 1.3-2.85 1.25-.5-.1.6-2.35 2.05-4.3 7.05-7.85 5.85-4.15 14.05-5.95m27.05 60.1q2.05-4.35 4.1-6.05 3-2.45 7.35-1.1 3.8 1.2 5.8 1.5l2.9.1.05 1.35-3.25-.15-5.9-1.5q-3.5-1.1-5.75.5-1.9 1.4-3.9 5.75-1.6 3.45-1.6 6.4 0 2.6.95 2.4 2.1-.4 5.05-3.6 2.85-3.4 3.55-3.95l4.4-.15q.9.45.6.75l-1.4-.05-1.8.15q-1 .3-1.25.85 2.85 3.9 1.55 5.65l-2.4 3.35q-2.55 3.75-3.1 5.8-.55 2 .75 4.4 1.3 2.45 2.75.75.75-.9 2.95-5.55 1.95-4.1 3.3-4.95 1.8-1.1 2.15-.6.3.55-1.05 1.5 1.15.35 5.1 3.15 4.4 2.15 9.2-.5l.65 1.2q-3.75 3.55-9.4 1.5-3.15-1.15-6.45-3.85l-4.65 8.8q-.45.8-1.6 1.4-1.25.6-2.35.4-1.8-.3-2.85-2.65-1.1-2.5-.3-5.45.65-2.2 2.75-5.1l3-3.8.55-1q0-1.2-1.35-3.3-2.7 3.3-5.75 5.3-2.7 1.8-3.6 1.35-1.8-.95-1.75-3.75 0-2.95 2-7.25"/><path fill="#0d131a" d="M89 169.85q1.9-2.1 3.8-2.25l.1 1.35q-1.45.1-3.05 1.95-1.45 1.65-2.2 3.8-.45 1.4-.15 1.8l1.95.05q2.65-.7 5.5.05 2.05.6 4.85 2.2l-.7 1.15q-3.3-1.95-5.65-2.3-2.1-.35-4.3.55-1.8.75-2.65-.4-.9-1.2-.1-3.55.85-2.5 2.6-4.4m62.3 40.7q-.45 1.7-3.55 3.4-3.5 1.85-10.8 3.95l-.75.2q-.35.2-1.45 2.3l-2.35 3.9q-2.7 3.6-7.95 4.6-2.35.45-3.4-.3-.85-.6-1.2-2.45-.25-1.45 1.05-5l2.35-6.2q-1.7.5-5.4 2.35-1.05.55-2 1.9l-1.6 2.35-2.35 3q-1.5 1.65-3.1 2.05-2.45.6-3.75-1.5-1.2-1.9-.55-7.2l-1.45-.1q-.65-.8-.95-2.9-.3-2.3.6-5.6.9-3.35 2.1-4.2 1.95-1.4 7.3-3.6 5.45-2.3 8.35-2.85l1 1.25q-2.6.5-7.95 3-4.85 2.25-6.9 3.7-1.15.8-1.8 3.95-.7 3.25 0 4.95.15.3 1.15-1.55 1.35-2.5 2.85-3.7 2.2-1.7 6.7-3.2 4.75-1.6 5.4-.4-.5.5-4.95 2.1-4.65 1.6-6.75 3.45-2.4 2.1-2.95 6.95-.5 4.3.3 5l1.4.05q1.3-.3 2.5-1.4l2.05-2.45q3.5-4.65 5.65-5.7 6.15-3.05 14.8-5.25l2.4.05-.9.8-4 1.25q-4.1 1.5-4.55 2.6-1.3 3-2.45 6.55-1.8 5.35-1.15 6.05.7.75 3.85-.85l3.4-2.25.7-1.15q3.35-5.45 4.35-5.8l.85-.25q13.75-3.95 14.4-6.25l1.45.4m114.5-136q1.3 6.45 1.3 12.55 0 16.15-8.4 29.6-4.7 7.55-10.95 12.75-5.6 4.55-10.4 5.75l-.75-3q4.95-1.25 9.6-4.5 6-4.25 10.35-11.25 4.8-7.8 6.85-17.1 2.7-12.15.15-24.8-4.8-23.65-21.2-42.35-13.25-15.05-30.5-23.6Q208.6 7 199.8 3.35 196.25 1.9 197.3.9q1.2-1.1 5.55-.85l6.75.85q10 1.6 22.3 8.15 20.6 11.05 35.25 31.4 12.5 17.3 16.95 38.95 5.1 24.75-3.05 45.3-6.75 16.9-22.1 29-11 8.7-23.6 13.1l.65-3.6q12.4-4.35 22.05-11.9 13.95-10.95 20.55-27.5 8-20.2 3.25-44.5-4.25-21.4-16.4-38.25-14.4-20.05-35-30.6-11.9-6.15-22.25-7.7L203.45 2q-2.85-.3-1.1.6l10.1 4.6q17.5 7.9 31.55 23.9 16.85 19.2 21.8 43.45M42.85 48.7q2.5-1.45 10.9.7 8.15 2.05 12.85 5.05l-.75 1.35q-4.2-2.5-11.8-4.4-7.65-1.9-9.35-.9l-.15.15q0 1.65 3.25 7.75 2.95 5.55 4.95 8.2 1.45 1.95.7 1.75l-1.1-.6q-2.25.75-4.15 1.75-1.85.95-1.95 1.45.5 1.25 4.35 6.05l-1.15 1-2.8-2.65q-2.6-2.55-3.15-4.15-.5-1.5 7.45-4.6l-5.25-8.1q-3.75-6.25-3.75-8.3 0-.95.9-1.5"/><path fill="#0d131a" d="M48.3 54.8q-2.05-.5-1.1-.75l2.65.3q4.25 1.25 8.65 3.6 5.1 2.75 6.9 5.25l-.5 1.1q-1.55-2.2-8.15-5.7-5.7-3.05-8.45-3.8m217.15-6.2q2.05-.45 4.25.6 2.05.95 3.9 3.05v1.3q-1.65-1.85-3.75-2.85-2.15-1-3.9-.6-2.4.5-4.6 2.65-1.7 1.75-2.1 2.95l-.55-.8q.5-1.6 2.05-3.35 2.1-2.4 4.7-2.95m4.95 16.2q-2.2.7-3.75 2.2-1.6 1.5-1.85 3.1l-1-.15q.3-1.95 2.15-3.9 1.95-2.1 4.3-2.85l5.1.15q2.3.85 4.3 3l-.7.65q-1.7-1.75-3.95-2.35l-4.6.15m5.2 11.2q2.35 0 4.35 1.35 1.95 1.3 3.15 3.5l-.4.7q-1.05-1.9-2.95-3-1.9-1.1-4-1.1-2.65-.05-5.5 1.55-2.9 1.65-4.2 3.9l.2-1.8q1.35-2.45 3.95-3.8 2.45-1.3 5.4-1.3m-.9 45.7q-2.2-3.65-5.85-5.45-2.8-1.4-6.05-1.3-3.1.05-5.05 1.35l.05-1.35q2.1-1.4 5.8-1.35 3.7.1 6.8 1.65 7.25 3.7 7.5 13.35l-.9.65q-.1-4.05-2.3-7.55m-22.8 2.95q1.85-1 4.9-.7 3.2.3 6.05 2.05 2.85 1.75 4.5 4.9 2.35 4.4 1.65 10.6l-1.1.85q.1-6-2.05-10.35-1.75-3.55-4.5-5.25-2.5-1.55-5.85-1.7-2.95-.1-4.65.8l1.05-1.2m-7.35 6.6l1.05-1.05q2.4.35 4.95 1.8 3 1.7 4.9 4.35 2.35 3.2 2.85 7.05.55 4-.75 10l-1-.2q2.1-10.4-2.25-16.4-1.75-2.45-4.9-4-2.45-1.2-4.85-1.55m-7.1 4.65l.35-.95q7.5 2.6 9.95 8.3 1.5 3.55 1.15 8.15-.35 4.3-2.2 8.35l-1.4.45q1.7-3.75 2-8.25.3-4.75-1.1-8.1-2.55-5.8-8.75-7.95m-19.55 54.15l1.7-1.55q7.75 7.6 9.05 11.8 1 3.3-1.9 6.45-1.45 1.65-6.3 4.75-4.4 2.85-9.05 5.35l-2.15 1.15q-3.6 6.35-6.7 9.75-3.5 3.9-5.8 3.3-1.3-.35-1.8-3.6-.55-3.15.15-6.35-1.6 1.2-3.3 3.2l-3.15 3.45-3.3 3.25-2.85 2.5q-1.15.8-2.1.25-1.1-.65-1.85-3.3-.85-2.85-.65-6.35-.9.55-2.35 2.25l-3.05 3.25q-1.05.95-2 .95-1.25 0-2-1.9-.75-1.95-.2-5.3.5-3 1.75-5.3 1.7-3.15 4.95-5.3 1.05-.7 6.6-3.5l2.6.2q-7.5 3.75-10.6 7.5-1.6 1.95-2.25 3.55-.65 1.55-1 4-.35 2.65.25 3.15.65.6 2.5-1.6l3.35-3.5 1.6-1.4q.9-2.15 1.7-3.1 1.3-1.6 4.3-3.4 1.5-.9 3.4-1.2 1.9-.35.15.6-2.8 1.5-4.15 2.7-2.45 2.15-3 5.2-.6 3.35-.25 6.5.4 3.05 1.25 3.2.55.1 6.2-5.9 6.15-6.55 8-7.65.55-1.45 1.85-3.15 2.6-3.4 6.5-4.7 2.75-.9 2.8-.7l-1.85 1.5q-5.55 4.1-6.9 7.3-1.4 3.25-1.6 6.6-.15 3.4 1.1 4.2 1.1.7 4.75-4.25 2.85-3.9 4.55-7.15 1.3-2.5 2.55-4.1 1.05-1.35 1.3-1.2.35.15.25 1.05-.05 1-.65 2.35 3.85-2.05 8.85-5.9 4.95-3.85 6.3-5.8 1.5-2.2.45-4.5-1.4-3.15-8-9.6"/><path fill="#0d131a" d="M176.7 84.45l-1.4.75q-1.15.3.4-2.05 1.5-2.25 3.15-3.85l2.25-2q-3.85.65-8.4 2.15-5.65 1.85-7.7 3.65l.35-2.1q4.95-4.2 18.15-5.75 3.25-.35 2.3.5l-1.65.95-4.7 4.8q7.5-2.8 12.35-3.3 7.15-.75 14.75 1.95 2.45.9 1.35 1.35l-1.55.25q-2.6.4-6.4 2.3-3.3 1.7-5.35 3.35 5.6-.7 12.3.3 2.65.4 2.7.7l-2.25 1.85-1.35.85 4.65.45q2.4.25 2.4.8 0 .5-2.3 1.65l-2.45 1.35q5.05 1.85 11.2 7.3 6.35 5.6 10.75 12.25 5.05 7.6 7.75 16.4 2.65 8.7 2.65 17.35l-.2 3-.45 2.95q-1.5 11.1-8.45 21.75-6.75 10.3-17.6 18.65-11.15 8.6-23.95 13.35-13.4 4.9-26.3 4.7-19.4-.4-34.7-8-9.35-4.7-15.65-11.2 0 2.35-.75 2.5-.85.2-3.35-3.7-2.35-3.65-3.75-6.9-1.2 2.7-2.7 4.3-.8.75-1 .7-.35-.15-.75-1.8-3.3-12.75-10-21.35-4.1-5.3-6.8-6.55l-14.05-1q-4.2 0-7.45-2.1-3.55-2.3-5.45-6.8-.75-1.7-1.3-4.95l-.8-5.35q-.7-4.75-1.35-6.95-1.05-3.75-3.05-6.15-3.7-4.45-6.5-10.9-2.9-6.65-4.05-13.8l-.2-2.8q0-4.1 2.15-7.9.75-1.35 3-4.2-2.3-2.7-2.3-4.5 0-2.5 8.9-9.55 7.9-6.25 13.05-9 .1-6.6.6-9.9 1.15-8 4.7-11.5.85-.9 1.55-.5l-.4 3.3.05 1.2q1.3-2.4 3.6-3.85 1.1-.7 1.1-.2l-.5 2.05q-.6 2.2-.6 4.8l.2 3.65 2.25-5.3.5-.8q.5-.55.7 1l1.05 5.1q4.65-6.3 13.6-10.85 4.7-2.4 11.5-4.55 2.8-.85 2.05.2l-1.25 1.25q-1.95 1.55-3.8 3.45-2 2.1-2.85 3.65 2.55-1.9 5.05-2.9 2.1-.8 5.15-1.35l2.45-.05-1.65 1.45-2.25 1.8q-1 .95-2.15 2.8 8.55-7.2 19.9-7.9l2.05.1-1.5 1.45q-1.45 1.05-3.1 3.2l-2.75 3.9q2.05-.85 2.95-1.1l3.35-.6 1.7.1-1.3 1.3q-1.3 1.5-1.9 6l-2.3 1.35.45-2.5q.6-2.65 1.45-4.35-2.7.75-6.25 2.45l-1.05.95q-.85.45-.05-2.1.85-2.6 2.35-4.45l3.4-3.55q-13.15 2.45-19 9.65l-.85.65q-.8.35-.6-1.3.3-2.9 3.65-6.95-5.4 2.25-7.7 4.75-1.1 1.2-1.6.85t-.1-2.05q.6-2.45 1.8-4.15l2.75-3Q94.9 44.25 90 47.3q-7.15 4.45-10 9.35l-.55.7q-.6.45-1-.95l-.9-3.6Q76 56.2 75.4 58.15q-.6 1.7-1.1.7l-.4-1.4q-.6-3.4-.6-6.9l.2-3.15q-.8.8-1.25 1.7-.85 1.65-1.15 4.9-.25 2.6-1-3.1-.45-1.7-.45-4.3-1.7 2.8-2.45 9.05-.65 5-.45 9.1l2.05-.1q-.35.6-2.8 1.75-2.25 1.1-11.05 8.2-8.75 7-9.4 8.15-.6.95-.3 2 .3 1.15 1.7 3.1 2.7 3.65 1.35 2.95l-1.85-1.4-2.1 3.15q-2.05 4-2.05 8.35l.2 2.5q1.1 7.1 3.6 13.1 2.45 6 5.95 10.2 2.25 2.65 3.4 6.6.7 2.4 1.4 7.3.85 5.95 1.95 8.55 1.8 4.25 4.9 6.75 3.05 2.5 6.5 2.5l14.35 1.05h.15l.1.05q3.45.4 6 1.6 2.55 1.25-1.85.95 10.45 9.9 13.5 25.5 1.6-1.75 2.1-3.9.35-1.65.6-1.8.35-.2 1.15 1.9 1 2.4 3.15 6.35 2.2 4.05 2.5 4 .35-.1-.1-4.7-.45-5.35-.15-7.2.4-2.2 1 3.3l.55 5.95 2.35 2.25q4 3.5 9.05 6.45 16.95 10 38.8 10.4 12.95.25 25.5-4 12.6-4.25 23.2-12.45 10.4-8 16.95-18.45 6.5-10.45 7.95-21.4.5-3.5.5-7.15 0-18.55-11.75-34.65-4.75-6.5-10.35-10.95-5.25-4.2-9.4-5.15l-1.75.45q-1.2 0 1.5-1.95 1.1-.8 2-1.2l1.35-.65-5.4-.25-4.2-.4q-.8-.25 2.2-1.45 1.6-.65 4.55-1.75-9.15-.85-13.4.25l-2.25 2.3q-.9.6-.35-1.1.6-1.65 2.05-3.5 2.45-3.2 10.85-6.2-5.9-1.4-13.75-.25-7.3 1.1-12.75 3.8"/><path fill="#0d131a" d="M167.55 36.5q2.35.2 2.95 1.15.5.7 0 2.45l-2.45 5.7-2.6 5.65 6.05 4.5q3.4 2.8 3.4 3.9 0 1.15-3.2 5.05l-5 5.85.3 4.25q0 4.55-.5 7.05-.9 4.25-3.55 7.35-3 3.45-7.25 5.25-4.75 2-9.65 1.2-2.15-.35-2.45-.75-.35-.4 1.8-.3 4.6.25 8.75-1.2 4.35-1.55 6.8-4.4 4.5-5.2 4.5-14.25l-.15-3.1-.15-1.2q7.5-9.55 7.6-10.55-.1-.55-4.45-4.1l-4.75-4q-.3-.45 1.65-5.3 2.3-5.55 2.6-7.55-9.65-1.55-24.6 6.25-11.75 6.2-24.75 16.9-1.35 1.15-1.35.65 0-.55 1.7-2.35 8.8-9.45 23.05-16.9 15.4-8.1 25.7-7.2"/><path fill="#0d131a" d="M158.8 44.3q3.2-1.3 2.8-.5-.4.8-2.65 1.7-9.5 4.05-19.65 11.35-12.65 9.1-15.7 16.55 2.45 1.55 4.15 4.1 1.5 2.4 1.55 4.3l-1.3.35q-.65-3.2-2.8-5.85l-2.05-2.05q-.8.65-1.4.75-1.1.3.1-2.25 3.9-8.15 15.8-16.65 9.85-7.05 21.15-11.8"/><path fill="#0d131a" d="M168.9 117.55q3.85 1.2 6.95 3.2 2.85 1.9 2.5 2.65-.45.9-7.75-.75-6.95-1.75-21.7-3.6-19.6-2.5-30.7-1.4 10.75 8.45 10.45 11.15-.3 2.6-2.5 7.35l-.1.2-6 3.4h7.9q2.1-.05 1.4.6l-1.1.7q-1 .45-2.05.85l12.3 1q2.45.45 1.35.95l-1.55.35-9.85-.85-5.35-.15-2.7.6q-1.85.2 2.45-1.9l1.7-.8-5.6.15-3.95-.15q-.45-.3 4.6-2.9l5.4-2.75 1.95-6.3.1.75-.05-.95q-.05-1.5-4.65-5.95-4-3.85-6.25-5.35l-2.7-.35q-1.75-.4 3-.85 15.8-1.45 34.55 1.1 10.85 1.45 19.95 3.8l3.6.3q-1.1-1.25-6.05-2.85-14.95-4.9-33.6-7.7-16.6-2.5-22.85-1.7l-6.15.3q-1.2-.3.65-.75l3.85-.85-4.35-2.4-2.75.8q-1.95.35 2.2-1.8 9.55-5.05 41.9-4.95l3.1-.3q-.8-.7-3.45-1.15-14.4-2.5-27.9-1.75-7.05.4-15.35 2l-.35.1-2.1.9q-1.5.45 1.55-2.1 6.55-5.5 26.45-9.45 10.15-2 26.45-3.9l4.65-.75-5.55-.6q-23.7-.85-39 2.65-4.2.95-10.25 4.2-6.25 3.35-10.65 7.15-2.5 2.2-2.6 1.5-.1-.65 1.05-1.95l1.7-1.85q-4.65-3.8-15.5-4.1L68.55 91q-1.05.25-2.9-2.05-1.8-2.2-2.4-4.25-.4-1.3-1.15-2.4-.95-1.35-2.05-1.85l-2.65-.1q-2.7 1.1-6.15 1.4-3.6.3-5.35-.55l.6-1.2q1.4.7 4.6.4 3.25-.25 5.8-1.3l2.4-.35q1.5.05 2.4.5 1.25.6 1.95 2.2l.9 2.9q.5 1.85 1.5 3.5 1.35 2.15 2.65 1.8l11.5-.45q10.9.55 15.75 4.15 4.6-3.35 10.75-6.1 5.5-2.4 10-3.45 8.5-1.95 19.1-2.45 7.75-.35 19.1.05 8.3.35 8.2 1.85-.05.85-3.6 1.6l-3.6.55q-36.3 4.25-49.2 11.25 19.1-3.4 40.5.35 6.35 1.05 6.2 2.7-.05 1-6.05 1.4-28.1-.1-39.5 4.15l4.3 2.5q14.45-.05 27.95 2.4 12.1 2.15 28.8 7.4m-49.25 65.6q.35-2.15 1.1-3.35.95-1.5 1.3-1.35.4.1-.1 1.95-.4 1.45-.55 3.3l-.45 3.85q-.35 2.3-.65 2.4l-1.15-1.3-3.1-3.75-2.65-3.35q-1.75-3.05.95-.75 1.35 1.2 2.8 3.15l2.05 2.65.45-3.45m42.85-11.3q4.25.05 9.35 1.25 7.2 1.7 11.75 5 2.65 1.9 2.15 2.6l-3.1.15-5.35-.95q4.6 3.05 6.55 5.05 3.6 3.7.25 5.05 3.45 9-.5 15.35-2.8 4.5-6.8 5.45l-.3-1q3.95-.95 6.05-6.15 1.35-3.25 1.2-7.55-.1-3.7-1.1-5.9-.3-.75.1-.9.9-.5.9-1.2-.05-1.55-4.4-4.95-2.75-2.15-5.75-4l-1.65-1.2 2.1-.05q2.95.35 8.75 1.65-5.85-3.6-12.35-5.3l-8-1.3q-2.6-.25-2.75-.65-.2-.45 2.9-.45"/><path fill="#0d131a" d="M174.25 157.55q-.2-1.65-1.9-3.1-1.5-1.25-3.1-1.55-.7-.1-1.8 1.35l-2 2.85-1.8 1.85-1 .3q-.2-.1.45-1l.7-.85q-2.05.1-4.4-1l-2-1.15-2.5-3.65q-1.5-2.6-2.5-5-1.2-2.9-3.95-4-3.1-1.15-6.65.5-2.6 1.25-4.7 4.05-1.9 2.55-2.15 4.75-.1 1.15.6 1.7.95.75 2.8-.7l2.45-2.05q1.8-1.3 3.4-1.6 1.55-.3 1.65.3l-.15.65-1.2.9q2.65 2.2 3.15 4.6.35 1.65-.25 5-.35 2.4-1.05 1.7l-.65-1.15-4.05-.2q-4.5.1-6.7 1.5-1.45.95-2 3.95-.55 2.85.05 5.4.35 1.5.95 2 .85.75 1.75-1.3l1.8-3 2.05-2.8q2.8-3.25 2.75-1.7-.05 1.55-1.05 1.85.95.25 4.1 2.65l4.2 3.05q3.3 1.65 8.15-.25 4.65-1.75 8.05-5.65-.65-3.05-.65-5.05 0-1.6.55-2.5.5-.95.8.4l.55 5.55q.35 4.2.95 4.6.9.6 2.55 0 1.05-.4 2.55-5.25 1.45-4.85 1.2-6.95m-.65-4.05q2.4 1.8 2.65 3.95.3 2.25-1.6 7.6-2 5.55-3.7 6.2l-2 .5q-.85 0-1.55-.5-1.1-.75-1.6-2.6-4 4-8.35 5.8-4.9 2-8.35.25-2-.95-4.95-3.7l-2.2-1.8q-.95-.6-1.8-.35-1.05 1-1.95 2.85l-1.1 2.5q-1.25 2.35-2.9 2.15-1.6-.2-2.5-4.15-.7-2.95-.3-6.1.45-3.75 2.3-5 3.3-2.1 12.45-1.2l.05-.9q0-4.95-3.05-7.05-.85.2-1.8 1.1l-1.65 1.45-2.75 1.65q-1.6.75-2.3.2-.8-.6-1.3-1.65-.5-1.1-.4-2.2.3-2.5 2.75-5.75 2.55-3.45 5.55-4.85 2.1-.95 4.4-1.2l4.05.4q1.55.6 2.55 1.65.9.95 1.65 2.65 2.05 5.05 4.35 7.8l.85 1.1q.8 1.05 5.35 1.75 2.75-4.8 5-4.45 2.1.35 4.15 1.9m-87-81.6q6.85-4.75 15.15-6.9 1.6-.4 1.5.15-.15.55-1.25 1.15-6.55 2.65-11.4 5.4-9.25 5.25-13.45 12.1 4.4-1.85 12.85-3.6 8.45-1.7 12.55-1.65 1.95 0 1.8.55-.15.5-1.8.75-24.15 3.9-26.7 6.1l-.95.6q-.85.25-.05-1.4 3.7-7.7 11.75-13.25"/><path fill="#0d131a" d="M94.35 68.9l1.05-.75q2.2 1.1 3.45 3.95 1.35 3.1 1.05 7.2l-1.35-.1q.25-3.6-1.1-6.6-1.25-2.7-3.1-3.7M85 74.45q2.15.05 3.75 2.7 1.4 2.25 1.2 3.75L76 84.6l3.55-5.5L85 74.45M55.65 89.1q-.15-.8.45-2.85.7-2.3 1.75-3 1.1-.75 1.45-.5.35.25-.3 1.1l-1.25 2.45-1.15 2.45-.6.85q-.2.1-.35-.5m14.25 34.3q0-2.05.95-8.4 1.15-7.7 2.35-9.65l1.25 2.5q-1.05 1.65-2.2 8.2-1 5.65-1 7.35 0 1.15-1.5 1.75l-5.7.95q-2.3-1-4.35-6.8-1.65-4.55-1.95-7.6-.25-2.15.15-2.4.4-.3 1.15 2.1l2.45 7.7q1.9 5.25 3.05 5.75l3.15-.25q2.2-.7 2.2-1.2"/><path fill="#0d131a" d="M60.25 126.85q-.9-.05-.95.6-.15 1.75.15 4.25 1.05 8 3.25 12.7 2.15 4.7 5.8 6.85l10.2.4q5.85-.3 6.8-1.6.85-1.2 1.95-5.75-3.65-1.15-7.5-5.95l-5.85-8.4-2.25-2.85-1.6-1.65-2.85.4-2.3.65q-.3.2-.3.45-.45 3.8 4.25 15.2 1.5 3.7.8 3.3-.65-.3-1.95-2.55-1.2-2.25-2.75-7-1.85-5.7-1.8-8.6 0-.55-.5-.5l-2.6.05m-8.9-7.45q-4.7-7.8-4.6-15.15.05-1.8 1.15-2.9 1.15-1.25 4.05-2.25 4.2-1.45 10.2-1.1 5.85.4 7.3 2 5.15 5.75 12.35 15.55 8.75 11.9 9.3 15.35.4 2.5-1.35 10.25-1.75 7.7-3.15 9.65-1.45 2.05-9.45 2.4-7.55.35-9.45-.7-4.1-2.25-6.2-6.5-2.35-4.8-3.35-14.15l-.25-3.1q0-1.3.25-2.15l-.6-.15q-2.2-.5-6.2-7.05m29.55-2.8q-7-9.7-12.45-15.7-1-1.1-6.2-1.5-5.8-.45-9.85 1-2.45.85-3.35 1.65-.95.85-.95 2.25 0 4.65 3.7 12.25 3.6 7.4 6.1 8.65l2.75.35 2.6-.45 1.4-.15q.5.15.65.55l3.5-.9 1.9-.4q.65-.05 1.65 1.05l2.85 3.9q3.7 5.3 6 7.9 3.9 4.4 6.75 5.1 1.85-8.8 1.45-11.35-.5-3.15-8.5-14.2m19.8 39.1l-1.3-.4 1.85-.35q1.7-.2 6.15 1.5 4.6 1.75 5.4 3 .75 1.25.3 1.45-.45.2-1.3-.55-.7-.7-5.15-2.55-4.5-1.85-5.95-2.1m-2.7 3.4q-4.25-1.1 0-.95 2.5.05 4.25 1.3 1.2.85 2.25 2.5.75 1.2.05 1.3-.7.15-1.1-.5l-2.25-1.9q-2.05-1.45-3.2-1.75"/><path fill="#fff" d="M82.3 80.55q.15.55-.2 1.15l-.95.7-1.1-.15q-.5-.35-.65-.9-.15-.55.1-1.1.3-.5.85-.65l1.15.1q.6.3.8.85"/></svg>