<svg xmlns="http://www.w3.org/2000/svg" width="127" height="137" viewBox="-0.05 -0.2 127.3 136.55"><path fill="#f7c5ab" d="M108.5 121.1l5.65-.4q4.85.05 5.8.85 1.05.9 1.45 2.65.35 1.75-.65 1.95l-5.05.75-11.05 3.1q-2.3.7-4.85-.05l-3.95-1.25-4.6.4q-2.2.5-4.05 1.25-2.55 1-4.2.7-1.7-.3-2.1-1.9-1.05-3.95 1.6-4.95 1.75-.7 4.45-.75l2.35.1q-.1-1.05-.6-2.25-1-2.45-3.1-3.35-.3-1.85-.45-5.25l-.1-3 2.55-.05q2.8.5 4.05 3.2l2.45 5.2q1.4 2.1 4.75 3.2 3.3 1.05 6.3.7l3.35-.85"/><path fill="#d5aa95" d="M97.05 127.9q6.4.95 15.35-1.3 8.2-2.1 8.55-3.7.55 1.15.5 2.1 0 1.05-.7 1.15l-5.05.75-11.05 3.1q-2.3.7-4.85-.05l-3.95-1.25-4.6.4q-2.2.5-4.05 1.25-2.55 1-4.2.7-1.7-.3-2.1-1.9 1.1.4 5.7-.75 5.1-1.3 10.45-.5m-8.25-6.4q-1.05-2.65-3.2-3.55-.3-1.85-.45-5.25l-.1-3 2.55-.05q2.8.5 4.05 3.2l1.7 3.85q-2.2-.25-3.15 1.6l-1.4 3.2"/><path fill="#dacaa5" d="M76.4 105.95l17.55-6.35q.15.85-.85 4.7l-1.35 4.5q-.35 1.05 1.35 4.4l-4.15-1.9-.1 1.1q0 1.25.35 1.95-.7-.2-2.15-1.4l-1.3-1.15-1.35 3.85q-1.25-3-2.75-3.75-1.15-.55-3-2.65-1.9-2.15-2.25-3.3"/><path fill="#df7e90" d="M101.3 66l8.6-9.1 2.25 3.7q1.3 1.75 1.75 6.2.5 4.9-.5 9.95-2.8 13.6-14.2 17.85l2.1-28.6"/><path fill="#bd6600" d="M27.3 92.55q-2.95.15-6.25-2.55l-4-3.95q-1.1-1.1 4.65-1.5 5.25-.35 8.85.1l8.55 2.95 1.5 2.4q-8.65 2.35-13.3 2.55"/><path fill="#e07a00" d="M35.5 80.15l3.3 7.7q-9.05-3.05-17.3-6.55-10.45-4.4-13.1-6.9-4.95-4.65-6.7-9.5-1.5-4-.3-4.75.85-.5 7.4 2 6.2 2.4 9.65 4.3l17.05 13.7"/><path fill="#bd6600" d="M35.5 80.15l3.3 7.7q-13.85-4.7-23-9.1-2.05-2.95-2.85-7.2-.6-3.15-.65-8l6.15 2.9 17.05 13.7"/><path fill="#fdeabe" d="M102.85 87.95q-2.7 9.85-12.75 14.95-11.8 6-26.6 1.85-17.1-4.75-27.1-21.3l49.8-32.8 16.5 24q2.15 6.1.15 13.3"/><path fill="#dacaa5" d="M86.2 50.65l16.5 24q.9 2.4 1.05 5.9-2.6-11.65-27.4-1.95-9.05 3.5-18.5 8.95-8.5 4.9-11.7 7.95-2.45-2.25-5.1-5.5-2.75-3.4-4.65-6.55l49.8-32.8"/><path fill="#bc697b" d="M63.6 19.05q4.2.65 7.65 2.1L78.3 31.8l-19.55 7.9-13.3-17.35q0-1.05 2.25-1.35 2.35-.25 5.35.6 0-.65 1.35-1.65 1.45-1 2.85-1.2l6.35.3"/><path fill="#3e4e57" d="M82.7 34.15l-.35 26.9q-1.5 4.7-7.45 10.3l-6.75 6.15L53.6 34.3l29.1-.15"/><path fill="#fff" d="M121.7 124.5l-1.6-2.8q3.2-.7 5.1 1.2 1.65 1.6 1.1 2.4-.4.55-4.6-.8"/><path fill="#dbdcdc" d="M121.7 124.5l-.75-1.3q2.8-.5 4.95.55l.45.8-.05.75q-.35.4-4.6-.8"/><path fill="#fff" d="M78 131.2q.05-1.85 1.4-4 1.2-2 2.25-2.35l2 .75q1.95 1.15 1.65 3.45l-3.7.8q-2.4.7-3.6 1.35"/><path fill="#dbdcdc" d="M82.35 129.65q-1.85.5-3.35 1.1 2.8-2.95 5.8-4.1.7 1.05.5 2.4l-2.95.6"/><path fill="#f7c5ab" d="M111.75 120.05q1.9.45 3.95 1.95 2.4 1.85 2.35 3.7-.05 1.2-1.75 3.05-1.7 1.85-2.85 2.1-.6.1-2.45-.75-2.05-.95-4.1-1.05-8.95 1.15-9.5-2.3-.2-1.2.8-2.25t2-.8l4 .55q2-.05 2.6-.65 3.85-3.85 4.95-3.55"/><path fill="#d5aa95" d="M108.1 125.65q2.2-1.9 4.75-.65 1.55.75 3.85 3.3-1.95 2.3-3.25 2.55-.6.1-2.45-.75-2.05-.95-4.1-1.05-6.65.85-8.8-1 1.65.35 4.25-.05 3.6-.5 5.75-2.35"/><path fill="#fff" d="M116.65 124q2.55.95 2.9 5.25.2 2.15-.1 4.1l-6.35-5.25q-.65-1.3.9-2.95 1.55-1.55 2.65-1.15"/><path fill="#dbdcdc" d="M119.55 132.75l-.1.6-6.35-5.25q-.4-.75 0-1.55 1.4-.7 3.4 1.75l3.05 4.45"/><path fill="#f7c5ab" d="M46.6 123.7q-1.2-.6-.35-2.35l1.05-1.6 3.2.15q1.7.65.95 3.8l-1.7.4q-1.95.25-3.15-.4"/><path fill="#d5aa95" d="M51.45 123.7l-1.7.4q-1.95.25-3.15-.4l-.1-.05q2.9-.15 5.15-2.1.15.7-.2 2.15"/><path fill="#f7c5ab" d="M51.7 113.2q-3.95 4-4.65 7.15-.45 2.15.4 2.75 1.05.8 4.4.85 3.35.05 4.8.95 2 1.3 2.75 3.25.65 1.8-.15 2.6t-2.25 1.2q-1.55.45-2.55 0-2.45-1.35-4.5-2.2-4-1.7-6.5-1.2-11.4 2.25-13.15 4-1.15 1.15-3.4 1.7-2.15.5-3.1 0-1.3-.65-2.4-4.3-.5-1.7.3-3.2.95-1.75 3.3-2.45l7.7-.3q5.8-.25 8.3-2.9 2.65-2.75 4.25-6.5l1.05-3.25 5-1.4q4.25-.65.4 3.25"/><path fill="#d5aa95" d="M43.45 128.55q-11.4 2.25-13.15 4-1.15 1.15-3.4 1.7-2.15.5-3.1 0-1.3-.65-2.4-4.3-.35-1.2 0-2.4.35-1.3 1.5-2.2l.25 1q2.1 4.95 8.9 3.75 3.85-.7 11.75-3.3l8.7 1.2q5.45.9 5.55-1.95 1.2 1.25 1.5 2.7.35 1.35-.3 2-.8.8-2.25 1.2-1.55.45-2.55 0-2.45-1.35-4.5-2.2-4-1.7-6.5-1.2m2.85-17.2l5-1.4q4.25-.65.4 3.25-1.9 1.9-3.05 3.7-2.65-1.2-6.35 2.75 1.95-2.55 3.2-5.65l.8-2.65"/><path fill="#fdeabe" d="M48.25 94.05q5.85-.6 12.05 4.05 6.05 4.55 3.95 7-2.1 2.5-6.15 4.8l-3.65 1.8-.55 1.05q-.6 1.4-.85 3.15l-2-4.2-2.2 2.8q-.4-1.6-.2-3.2-1.4.6-5.2 0l3-3.2q-.75-4.8-.6-7.45.25-4.05 2.4-6.6"/><path fill="#fff" d="M54.85 129.65q-.85-1.45-.55-2.45.25-.95 1.35-1.3 1.9-.55 3.55 1.15 1.85 1.95 1.45 5.5-.25-.25-3.05-1.6l-2.75-1.3"/><path fill="#dbdcdc" d="M60.7 132.1l-.05.45q-.2-.2-2.95-1.55l-2.85-1.35q-.85-1.4-.6-2.45 4.15 1.75 6.45 4.9"/><path fill="#fff" d="M18.8 135.85h-.25l-.15-.2q.25-2.8 1.95-5.15 1.3-1.85 3.05-2.9 1.6-.95 2.35 1.05.75 2.05-.6 4.5l-3.4 1.45-2.95 1.25"/><path fill="#dbdcdc" d="M25.95 129.65q.2 1.75-.8 3.5-.3.45-5.75 2.3l-.7.15q-.25-.2-.15-.75 2.3-2.65 7.4-5.2"/><path fill="#df7e90" d="M64.1 43.45q8.1 12.75 7.2 21.5-1.1 11.05-4.75 15.8-4.5 5.85-14.8 5.55Q41.4 86 36.2 83.6q-3.9-1.75-10.8-8.1-6.45-5.9-11.2-15.35-4.9-9.75-3.3-14.1-.7-1.7-3.4-6.3-2.15-3.6-3.1-7.55-1-4.4 0-5.95 1.3-2 5.8.7Q5.8 21.8 6.4 17q.45-3.75 1-4.9.95-1.95 3-.65 2 1.3 8.5 6.8l8.05 6.95q-6.8-9.5-6.25-10.6l3.95-.2q3.5.35 4.5.95l4.15 2.8q3-.25 6.4 1 5.1 1.9 10.3 6.95 8.05 7.8 14.1 17.35"/><path fill="#bc697b" d="M35.7 75.15q8.1 4.7 15.6 6.25 8.8 1.85 15.45-.9-4.5 6.1-15 5.8Q41.4 86 36.2 83.6q-3.9-1.75-10.8-8.1-6.1-5.6-10.55-14.55Q10.4 51.9 11.5 47.1 19.15 59.25 24 64.95q5.4 6.4 11.7 10.2"/><path fill="#fceef4" d="M50 26.1q4.35 4.15 8.55 9.55-3.7-2.15-5.75-3.05-3.6-1.6-5.2-.5-5.55-3.85-8.2-4.7-5.05-1.55-8.3 2.65-5.35-2.9-8.25 2.45-2.6 4.8-1.35 11-4 1.15-4.05 7.3-.05 4.7 1.65 8.45l.1 2.6.35 3.75q.5 2.45 1.3 4.05.7 1.5 2.4 3.75-5.9-6.4-9.75-14.7-4.1-8.7-2.6-12.65L7.15 39.9Q5.5 36.7 4.4 32.2q-1-4.4 0-5.95 1.3-2 5.8.7Q5.8 21.8 6.4 17q.45-3.75 1-4.9.95-1.95 3-.65 2 1.3 8.5 6.8l8.05 6.95q-6.8-9.5-6.25-10.6l3.95-.2q3.5.35 4.5.95l4.15 2.8q3-.25 6.4 1 5.1 1.9 10.3 6.95"/><path fill="#d9ced4" d="M19.55 59.65l.05 2.45q.05 2.75.3 3.65.5 2.3 1.2 3.9l2.15 3.75q-5.6-6.1-9.35-14.1-3.9-8.25-2.85-12.45 1.75 1.9 5.1 7.15l3.4 5.65"/><path fill="#e07a00" d="M114.1 10.75q-1.55 3.7-2.65 6.95l3-.6q3.75-.3 7.2 1.15-2.6.65-5.3 3.05l-2.2 2.3 2.15 2.75q2.1 2.9 1.65 3.7l-2.1 3.85q-1.7 2.85-2.25 2.65l-3.4 15.4 4.5 10.45-5.3-3.35 3.85 14.3L111 71.1q-2.3-2.25-2.75-2.25-.65 0 .05 12.8.1 1.5-.7.25-4-6.65-5.45-8.4-.7 3.25-5.35 8.9l-4.55 4.95-.95-9.6q-1.25-9.65-2.45-10-1.7 3.4-6.2 7.7l-4.2 3.65L80.7 70q2.2-9.55 1.85-11.55-1.95 2.7-8.45 7.7l1.7-6.3q1.75-7.15 1.9-11.45-1.6-.1-7.55 2.35l-6.25 2.5q-.55 0 3.85-4.65l4.55-4.7-12.9-.9q-.35 0 4.25-2.15l4.7-2.15Q56.7 34.9 53.1 33.85q2.6-2.15 11.7-4.7L73.4 27q-7.9-3.6-10.95-3.75l8.55-2.5q5.4-1.45 8.5-1.45l-4.55-5.35-2.15-2.15 5.15.7q6.45 1.4 13.05 5-2.9-5.95-9.5-16.9l7.35 3.7Q97.2 9.15 102.3 15q1.15-3.95 6.6-9.65 2.75-2.85 5.25-4.9l-2.35 5 3.05-1.85q3.35-1.9 4.9-2.05-2.45 1.9-5.65 9.2"/><path fill="#bd6600" d="M102.35 14.8q1.1-3.45 5.3-8.1l-2.35 6.4q-1.2 3.9-.15 5.65-1.3-1.5-2.8-3.95m-5.8 5.8q-2.35-2.05-6-3.95-2.45-4.95-7.85-14 4.9 3.4 7.6 6.9 3.1 3.85 6.25 11.05m7.5 22.95q1.15 22.8-6.4 32.35-.1-1.05.15-4.85.15-3-.5-4.9-1.55 10.7-5.2 19.45-1.5-17.35-3.25-17.85-1.7 3.4-6.2 7.7l-4.2 3.65L80.7 70q2.2-9.55 1.85-11.55-1.95 2.7-8.45 7.7l1.7-6.3q1.75-7.15 1.9-11.45-1.6-.1-7.55 2.35l-6.25 2.5q-.55 0 3.85-4.65l4.55-4.7-12.9-.9q-.35 0 4.25-2.15l4.7-2.15-5.75-1.85 7.4.3 7.35 1.15q-2.7-2.95-7-5.1-3.25-1.65-8.35-3.25 5.55-1.7 11.4-2.95-7.9-3.6-10.95-3.75l9.95.65q11.75 1.55 23.2 5.8 5.7 2.1 6.9 3 .95.7 1.35 2.7l.25 3.65-.05 4.5"/><path fill="#922f00" d="M103 46.95q2.9 1.45 4.15 4.1-1.15.65-1.85 2-.7 1.4-1.9 2l-2.85-4.55q-2.1-3.2-2.5-4.7 2.55 0 4.95 1.15"/><path fill="#fff" d="M108.75 38.35l-1.25-2.1 3-1.85q2.4-1.4 3.05-1.4.35.75.1 2.8-.3 2.15-.8 2.5l-4.1.05m-10.75-3q.35.35-.8 3.45l-6.6-.2q-1.05-1.05-1.7-4.1-.55-2.75-.4-4.6 2.25.4 5.3 2.25 2.6 1.6 4.2 3.2"/><path fill="#dbdcdc" d="M89.1 35.4q-.85-3.3-.6-5.5 2.25.4 5.3 2.25 2.6 1.6 4.2 3.2.25.2-.45 2.4-1.75-1.45-3.95-2.05l-4.5-.3"/><path fill="#ed8599" d="M102.35 59.9l-5.45-9.2 3.55-2.4q1.3.7 2.8 2.7 2.2 2.8 2.35 5.8l-3.25 3.1"/><path fill="#ce7486" d="M96.9 50.7l3.55-2.4 1.9 1.6q1.5 1.6 2.35 3.4-1.65-.45-2.65 1l-1.4 2.75-3.75-6.35"/><path fill="#f7c5ab" d="M107.15 56.2l1-.25q.4.25-.3 2-.5 1.3-2.1 2.95-1.8 1.8-2.85 1.55-1.45-.35-3.75-3.4-2.75-3.6-3.9-8.05l2.55-.45q.7 1.8 2.55 4.3 2.15 2.9 3.25 2.75 1.6-.25 3.55-1.4"/><path fill="#d5aa95" d="M97.8 50.55q.4 1.1 1.7 3.1 1.4 2.1 2.55 3.2-1.35 1.1-1.95 3.4-3.4-3.8-4.85-9.25l2.55-.45"/><path fill="#f7c5ab" d="M99.95 38l.95.2 1.6-2.3q1.75-2.35 2.45-2.65.7-.3 1.95 1.65l1.9 3.35 1.15-.2 2.3-.05q1.75.25 2.8 7.65.2 1.55-2.2 3.85l-3.5 3.1-1.35 1.2q-.35.1-.85-1.05-.9-2.1-2.3-3.5-2.15-2.05-4.4-.95l-2.65 1.9q-2 1.35-2.55.8-.75-.75-1.35-3.7-.6-3 .05-3.55l3.95-3.9q1.5-1.7 2.05-1.85"/><path fill="#d5aa95" d="M104.25 39.45q-.7-.2-1.7-.75-.95-.6-1.5-.7 1.7-2.6 2.75-3.75.75 1.35 1.05 3.3.35 2.15-.6 1.9m-10.3 4.3l2.2-2.1v.05l5.5.15q3.4-.15 4.7 1.35 1.7 1.9 2.1 4.85.4 2.9-.6 5.75-.25-.05-.7-1.05-.9-2.1-2.3-3.5-2.15-2.05-4.4-.95l-2.65 1.9q-2 1.35-2.55.8-.75-.75-1.35-3.7-.6-3 .05-3.55"/><path fill="#0d131a" d="M97.25 38.85l-2.6-.05q-2.05-3.4-.1-6l3.4 2.5-.7 3.55m11.5-.35l-1.3-2.35L111 34.4q.5.3.5 1.6 0 1.35-.65 2.1l-2.1.4m16.75 84.3q1.75 1.8 1.3 2.55-.25.45-1.7.35l-3.5-.5-.15-1.15 3.1.8 1.6.1q.3-.7-1.4-1.95-2-1.5-4.6-.95l-.6-1q3.8-.45 5.95 1.75M17.4 87.75q-1.1-1.4-.85-2.3.35-1.15 6.2-1.4l7.85.2-.1.75q-3.3-.35-8.1.15-5 .6-4.3 1.5 1.4 1.7 3.55 3.3 3.15 2.4 5.6 2.25 4.6-.25 13.25-2.55l.5.7-5.45 1.4Q29.8 93.2 26.9 93.3q-2.65.15-6.1-2.4l-3.4-3.15"/><path fill="#0d131a" d="M1.9 59.6q1.95-.1 7.7 2.2 5 2 8.05 3.7l.6 1.3Q15.2 65.1 10 63.25q-3.5-1.3-6.35-2.05-2.55-.75-1.95 2.2.9 5 6.95 10.7 2.25 2.05 15.1 7.3l14.4 5.7q1.75.75 1.3.9l-1.55-.2q-4.35-1.25-13.65-4.85-13.35-5.1-16.35-7.9-4.25-4-6.4-8.4Q-.05 63.4.05 61.5q.05-1.25.45-1.55l1.4-.35m106.45 61.15l2.45-.7q-.25.3-1.7 1.2-5.1 2-10.35.35-3.6-1.15-5.85-4.55-1.65-2.55-1.65-4.2H92q0 1.5 1.9 4 2.3 3.1 5.55 4.1 3.2 1.05 5.9.65l3-.85m-7.45 10.1l-2.85-1.1-2.3-.7q-2.6-.45-8.7 1.95-3.4 1.35-5.25.45-.6-.25-.95-1.15l.95-.25.5.4q1.6.75 4.75-.45l3.5-1.15q3.4-.9 5.35-.5 1.05.2 2.4.7l2.9.85 3.3-.25 2.15-.65 2.15.4-4.4 1.35-3.5.1M79.95 126v-.1l1.7-.9q-1.4.75-1.7 1"/><path fill="#0d131a" d="M85.5 113.1l.05 1.25.4 3.4q2.1.95 3.2 3.3.55 1.15.7 2.2l1.1.4q.65.35-1.7.3h-3.9l-2.7.6q-.55.15-.85.4l-.15.05-1.7.9q.15-1.4 1.7-2 1.5-.6 4.05-.75h3.15l-.55-2.05q-.65-1.35-2.25-2.05-.55.25-.8-.8-.55-2.4-.55-3.35l.8-1.8m36.35 11.85l-.05.65q-.25.8-.95.9l-1.7.25-.4-.7 1.95-.25.35-.4q.2-.65-.2-1.8-.45-1.15-1.15-1.75-.8-.65-5.3-.75l-1.5-.95q5.35-.2 7.25 1.1.75.55 1.25 1.7l.45 2"/><path fill="#0d131a" d="M79.25 128.15q-1.1 2.2-.8 2.45l2.25-.7 3.65-1.1q.7-.1.6-.8-.25-1.4-1.6-2.25-1.2-.75-1.65-.5-1.3.55-2.45 2.9m.35 3.15l-2.15.25q-.4-.35.1-2.05.6-1.9 1.8-3.35 1.1-1.3 2.15-1.65l.1-.05h.1q1.7.25 2.85 1.25 1.2 1.05 1.15 2.5 0 1.15-1.1 1.5l-5 1.6m35.2-1.65l.8.7q-1.1 1.05-1.9 1.2l-1.35-.3-1.55-.8-1.5-.6-2.4-.4q-3.2-.4.15-.9 1.3-.2 2.35.3l1.7.9q1.65.8 2.3.7.5-.05 1.4-.8m-8.8-6.3l2.75-2q2.15-1.65 3.15-1.65 1.05 0 3.75 1.8 3.15 2.15 3.1 4.1l-.05.25q-.7-1.05-1.35-1.45-.6-1.25-2.4-2.35-1.55-.95-2.9-1.25-.95-.2-2.35.65-1.15.7-2 1.7l-.65.75q-.6.6-2.45.6l-3.35-.3q-1.5-.3-1.4-.55l1.45-.2 4.7-.1"/><path fill="#0d131a" d="M113.55 125.1l1.6-1.25 1.6-.2q2.75 1 3.45 4.95.4 2.2.1 4.75l-.25 1.15q-.2.1-1-.6l-6.25-5.5q-1.1-1.25.75-3.3m5.4 3.7q-.8-3.85-2.45-4.45-.35-.15-1 .2-.75.35-1.35 1.05-.65.65-.8 1.4-.2.6.05.9l3.2 2.85 2.55 1.9q.55-.2-.2-3.85M78.1 109.65q-2.2-2-2.55-3.15l1.45-.2q.3 1 2.05 2.9 1.65 1.8 2.75 2.35 1.35.7 2.6 3.4l.7-3.25q.15-.75.55-.5l.4.35 2.75 2.4q-.4-1.55-.3-3.05.05-1.1.45-.65l.4.7 2.9 1.55-.7-2.1-.3-1.45q2.15-6 2.15-7.45l1.55-1.5q.3 1.5-2.75 8.65-.15.5.05 1.7.25 1.35.8 2.3.55.9.15 1.05l-.9-.2q-1.25-.5-2.95-1.55l.15 1.85q.15 1.2-.55.75-2.35-1.4-3-2.05l-1 3-.5.85-.4-.55q-1.15-2.85-2.55-3.6-1.35-.65-3.4-2.55M63.7 18.6q4.25.65 7.75 2.1l-1.7.55q-5.1-2.1-10.6-2-5.45.15-5 2.25 2.4.7 6.25 2.8 3.9 2.1 3.85 2.7-.05.25-1.8-.8-3.3-1.95-8.3-3.6-2.85-.95-5.2-1.05-2.1-.1-2.8.45l-.25.35-.85-.55q-.8-.65-.5-.85.85-.7 3.4-.6l4.8.7q-.05-2.2 4.45-2.75l6.5.3m48.05 42.3l1.1.2q1.6 2.15 1.75 7.95.2 6.45-1.85 12.6-1.35 4.2-4.95 8.15-3.95 4.3-8.45 5.8l.95-1.9q8.95-5.4 11.3-12.6 2-6.05 1.75-12.65-.2-5.7-1.6-7.55"/><path fill="#0d131a" d="M106.35 80.45l.4.3.35.5q-.2 3.2-1.65 5.9-1.35 2.45-3.1 3.5l.3-1.5q3.7-3.65 3.7-8.7m-66.05 9.7l-4.1-6.45.95.1q3.9 6.5 9.95 11.65l-.65.8q-3.6-2.6-6.15-6.1"/><path fill="#0d131a" d="M103.15 74.5q.9 2.45 1.05 5.85.2 4-.85 7.75-3.1 10.8-12.6 15.65-5.55 2.85-12.55 3.3-6.9.4-14-1.55l.5-.9q6.7 1.8 13.3 1.2 6.5-.6 11.9-3.35 9.35-4.7 12.2-14.95 1-3.65.9-7.55-.05-3.4-.9-5.7l1.05.25"/><path fill="#0d131a" d="M53.6 86.55l.75-.2q2.35 8.8 9.65 13.75 7.2 4.8 18.35 5.35l-1.75.5q-11.2-.55-17.9-5.4-6.6-4.8-9.1-14M90.5 92q6.3-.4 12-4.05l-.25.9q-10.4 6.55-21.9 2.9-4.45-1.4-8.3-4.3-3.75-2.85-6.1-6.4l.7-.6q1.95 3 5.4 5.65 4.05 3.15 8.9 4.7 4.8 1.5 9.55 1.2m-42.4 27.35h2.05q1.3.15 1.8.75.8.95.05 3.8l-.95-.25q.6-2.15-.1-3-.35-.45-1.2-.55h-1.6l-.85.05v-.75l.8-.05"/><path fill="#0d131a" d="M47.65 122.8q1.05.75 4 .75 4 .1 5.55 1.15 1.4.9 2.1 2.15-.8-.5-1.75-.75l-1.1-.85q-1.25-.85-4.8-.95-3.2 0-4.45-.9-.65-.45-.7-1.35-.15-1.75 1.9-5.1 1.6-2.6 3-4l.55 1q-1.5 1.5-2.95 3.75-1.85 2.85-1.75 4.3.1.6.4.8m10.15 8.3l1.25.65q-1 .55-2.4.75l-2.35-.2-1.15-.6q-6.15-3.2-9.7-2.55-11.5 2.3-12.85 3.65-1.25 1.2-3.65 1.85l-3.45.1-.9-.65.95-.45.45.3 2.85-.1q2.15-.5 3.2-1.6 1.8-1.8 13.3-4.1 3.45-.65 10.15 2.9l1.1.55q1.35.6 3.2-.5m-16.95-10.7q2.55-2.65 4.05-6.1l1.05-3 .75.15-1.1 3.4q-1.65 3.75-4.3 6.55-1.95 2-5.5 2.65l-6.2.35h-2.55l-1.95.3q-2.15.6-3.05 2.2-.5.9-.45 1.85l-1.2.9q-.2-1.45.6-2.95 1.2-2.15 3.1-2.75l5.5-.3q8.05.1 11.25-3.25"/><path fill="#0d131a" d="M48.05 93.75l.8.05-.4.6q-.75.55-1.4 2.75-.7 2.4-.7 5 0 2.15.55 5.65l.95-.4q.9-.25.5.2l-4.1 3.45 4.25-.1.3-.25q.25-.05.2.65-.1 1.2.05 2.25l1.85-2.1q.4-.35 1.05 1.05l.9 2.2q.6-2.55 1.05-3l-.55-.2q-.3-.3 1.2-.65 1.65-.4 5-2.5l4.35-3.3q.95-1.05 1.15-.7v.5q-.5 1.9-4.35 4.15-2 1.2-6 2.95l-1.2 3.95-.35.9-.4-.75q-1.1-1.95-1.8-3.7l-1.7 2.6-.45.4-.35-.8q-.25-1.2-.25-2.35l.05-.45-2.85.1-2.05-.25q-.95 0-.4-.5l2.9-2.8-.45-2.9q-.3-1.9-.3-3.15 0-7.65 2.95-8.55m6.5 1.9l-1.85-.6 1.45-.05q2.5.2 5.8 2.75 3.25 2.5 4.45 5 .55 1.05.15 1.05l-.85-.75q-1.25-1.95-4-4.2-2.85-2.35-5.15-3.2m4.1 31.4q-1.45-1.2-2.9-.75-1.2.35-1.15 1.65 0 1.25.5 1.4l2.7 1.4q2.25 1.2 2.5 1.05 0-3.35-1.65-4.75m.45-.6q.95.8 1.6 2.1l.65 2.2q.15 1.7-.35 1.95-.4.25-1.7-.45-1.15-.65-3.95-1.95l-.85-.5-.35-.7q-.55-1.2-.2-2.2.35-.95 1.6-1.35 1.85-.5 3.55.9m-34.15 1.6q-.6-.6-1.35-.15-4.45 2.65-4.75 7.45.25.15 5.95-2.45.8-1.35.8-2.8 0-1.4-.65-2.05m-7.15 6.05q.5-2.25 2.15-4.2 1.35-1.6 3.05-2.65 1.55-.9 2.7.25.8.8.8 2.4-.05 1.65-1.05 3.4-.25.5-1.25.85-1.65.4-3.6 1.4-1.7.8-2.4.45-.75-.4-.4-1.9m41.6-98.4l3.75 5.25-.9.5-4.65-6.25 1.8.5m8.25 12.7l-.8.8-3.3-5.75 1.4.25 2.7 4.7"/><path fill="#0d131a" d="M49.95 24.95q2.7 2.45 6.5 7.1l-1.2.35-5.6-6q-8.55-8.35-15.25-7.75l7.4 7.45 9.6 9.95 1.65 2.1-2.55-2.1L40.2 26q-8.95-8.8-11.25-10.25l-3.25-.8-3.15-.1-1 .2q-.3.2.05.9 1.6 3.25 5.3 8.4l5 5.5q5.25 5.7 6.7 7.55 1.75 2.2.95 1.85-.8-.4-2.65-2.5-7.1-8-16.25-16.25-7.35-6.6-10.5-8.65-1-.65-1.65-.4-.7.35-1.1 2.15l-.55 3.45q-.45 4.2 3.9 9.45L27 49.4q1.5 1.95 1.2 2.1-.25.15-1.6-1.15-1.65-1.55-17.1-23.3-3.2-1.75-4.35-.9-1.45 1-.3 5.95 1.15 4.85 4 9.5l7.2 11.4q6.65 10.6 7.3 11.95.65 1.35.05.75L22 64.1q-.85-.9-10.3-16.05-.15 4.05 3.65 12.2 4.4 9.4 10.35 14.9 6.85 6.3 10.8 8.1 5.1 2.25 15.25 2.55 10 .3 14.35-5.2 3.65-4.55 4.75-15.7.55-5.5-2.7-13l1.05-.25q3.45 7.85 2.9 13.65-1.1 11.45-4.75 16.25-4.5 5.85-14.85 5.55-10.45-.3-16.1-2.75-4.65-2-11.55-8.35-7.9-7.25-12.1-17.2-3.65-8.7-2.35-12.7-3.45-5.05-5.1-8.7-1.25-2.8-1.8-5.85-1.1-5.65.75-7 1.4-1 4.3 1-1.4-1.9-2.25-4.05-.8-2.2-.75-3.95.05-2.15.5-4.3Q6.6 10.3 7.6 9.8q1-.45 2.65.7 3.4 2.35 7.4 5.9l6.6 5.85q-4.4-6.4-4.4-7.5l.1-.45q.25-.45.8-.6 1.2-.35 4.35.05 2.95.45 3.9.95 1.45.75 4.45 3l6 .35q4.6 1.4 10.5 6.9"/><path fill="#0d131a" d="M121.85 17.8q.8.35.8.45l-.9.45q-1.75.65-4.15 2.45l-2.85 2.45 2 2.3q1.05 1.3 1.3 2.1.55 1.95 0 3.25l-2.15 3.4q-1.9 2.55-2.45 2.3l.35-.85h-.15q.5-.15 1.75-2.3l1.55-2.9q.55-1.5-.35-3.1l-5.25-6.7q-.5-.65-.45-1.15 0-.5.85.3l2.25 2.7 1.8-1.85q2.15-1.95 4.4-2.85-2.95-.95-6.05-.65l-2.5.5-.55.55q-.45.25-.1-1.1.9-3.05 2.5-6.75 2.4-5.55 4.7-8.35-1.6.6-4 2.05l-2.1 1.35-1.45 1 2.15-4.6q-8.45 7.6-9.9 12.6l2.05 3.15q.75 1.1.3.9l-1.35-1.2Q95.4 7.4 82.65 1.65q5.05 7.05 8.7 15.2 1.1 2.45.8 2.95-.3.55-1.6-2.05-2-1.55-8.45-3.5-5.65-1.7-8.05-1.95 2.9 2.9 5.65 6.5l1.05.1 1.9.55q.6.3-.35.3l-4.6.3q-5.95.85-12.8 2.95l3.3 1.15q3.75 1.3 5.85 2.35 2.7 1.3 1.55 1.2l-1.7-.35-7.75 2.1q-8.4 2.4-12 4.2l9.15 2.8q6.4 1.95 8.1 2.6 2.9 1.05-2.85.05L61 42.6l6 .35 5.35.45q1.55.3 1.05.55l-.75.25-7.75 8.2 4.85-2.05q4.8-1.95 7.15-2.4l2.05-.05-.75.5q-.3 6.25-3.2 16.45 5.4-4.3 7.2-6.7l.5-1.1q.45-.55.35 2-.15 4.6-3.8 18.75l5.05-5.1q3.45-3.8 4.1-5.15l1.25-1.9q.5-.35.1 1.5l.85 3.2 1.15 7.35.9 8.6q2-2.05 4.65-5.7 3.25-4.4 4.35-7.2.65-1.55.9-.9l.1.95 5.2 7.9q-.35-5.55-.35-9.15 0-3.45.35-3.65.95-.45 4.5 3.2l-2.05-7.4q-1.55-5.4-1.35-5.6.25-.25 4.8 2.6l-4-9.2.9-.35q5.15 10.8 5 11.65-.1.45-2.45-1.25l-3.25-2.3 2.05 6.5 2 7.05q.25 1.7 0 1.55l-1.1-1.35-2.25-2.3q-1.5-1.4-2.15-1.85-.2 1.5-.15 4.8 0 3.5.25 6.6.2 1.7-.35 1.85-.55.15-1.65-1.6l-4.3-6.6q-1.05 3.15-3.8 6.85l-4.45 5.3q-1.55 1.7-2 1.65-.45-.1-.6-2.05-.25-4.15-1.05-10.05-.85-6.65-1.45-7.7-3.25 5.85-10 11.05-1.15.9-1.6.8-.45-.1.1-1.4L80 70.15q1.95-7.75 2.1-10.45-1.7 2.1-4.25 4.3l-3.55 2.6q-1.05.6-1.2.45-.2-.1.1-1.05l2-6.45q1.75-6.4 2-10.65-1.2.1-6.4 2.25l-6.55 2.65-1.75.4q-.15-.15.7-1.35l1.8-2.2 6.25-6.35-6.15-.35-4.6-.2q-1.95-.1-2.2-.4-.15-.25.65-.75l1.65-.9 6.45-2.95q-8.5-2.7-13.95-4.1l-1.5-.45q-.25-.25 1.3-1.05 5.05-2.6 10.95-4.3l8.05-2q-1.4-.6-5.05-1.75l-4.45-1.4q-1.05-.35-.6-.75.4-.35 2.1-.9 8-2.45 14.7-3.2-2.85-3.65-6.55-6.65l-.75-.8 1.5-.1q8.65.45 17.1 5.1Q86.1 8.95 81.1.85q-.5-.7-.3-.8l.85.15q2.9.75 7.45 3.3 7.25 4.15 13 10.6 1.55-4 4.75-7.65l5.35-5.1L114.1.1q.85-.3.5.55l-1.65 3.5q1.45-.9 3.4-1.75 2.05-1 3.35-1.3l.95-.1-.6.95q-3.95 4.3-7.85 15 4.95-1.2 9.65.85"/><path fill="#0d131a" d="M113.3 32.25l1.4-.1-.7 1.1q.4 1 .15 2.8-.25 2-1.1 2.55l-.4-.65q.5-.35.7-1.85.2-1.5-.1-2.65-.9.25-5.1 2.85l-.6-.4 2.2-1.6q2.45-1.65 3.55-2.05M97.7 35.6v-.05q-3.15-3.15-8.5-4.85-.25-.05-.25.25 0 1.95.5 4.05.5 2.3 1.35 3.25l6.15.2q.75-2.15.75-2.85M94.6 32q1.7 1.1 3.5 2.9l.2.2q1.2 1.4 1.05 1.6l-1-.2-.1 1.05q-.1.65-.6.95.95 0 .6.3t-1.6.4l-2.55.1-3.55-.35q-1.9-.2-1.55-.55l.7-.3q-1.1-1.1-1.55-3.6-.35-1.95-.15-3.95l-.8-.85q-.5-.8 1.05-.4 3.65.95 6.35 2.7m10 21.45q.3-1.05 1.15-1.75l.8-.6.3.7q-.25.15-.6.45-.65.6-.9 1.4l-.75-.2"/><path fill="#0d131a" d="M100.3 48.65l.5-.45q1.65.85 2.95 2.45 2.15 2.6 2.2 6.15h-.75q-.15-2.8-2.15-5.5-1.5-2-2.75-2.65"/><path fill="#0d131a" d="M107 55.9l.1-.1.65-.25q.65-.2.85.15.35.5-.4 2.4-.5 1.45-2.25 3.3-2 2.15-3.2 1.9-1.55-.35-4-3.8-2.7-3.85-3.9-8.4l.75-.2q1.15 4.4 3.9 8 2.2 2.9 3.45 3.2.8.15 2.1-1.05l1.8-2.25q1.9-3 .35-2.2-2.2 1.25-3.95 1.55-1.35.15-3.45-3.05-1.6-2.45-2.35-4.45l.7-.25q.65 1.75 2.5 4.25 2 2.7 2.85 2.55 1.55-.2 3.5-1.3"/><path fill="#0d131a" d="M100.9 38.8l-1.35-.15-1.35 1.45q-.9 1.05-4 3.95-.2 0-.2.8-.05 1.4.5 3.4.5 2 1 2.45.45.45 3.35-1.75 1-.75 1.45-.95l2.95-.2q1.6.55 3.05 2.6l1.2 2.2.45.8 2.5-2.25q4.25-3.5 4.25-5.2v-.25q-1.05-7.15-2.5-7.3l-2.35.2-1.9.15q-.55-.2-.2-.45l.4-.2q-2.45-4.7-3.05-4.5-.55.25-1.55 1.6-1.05 1.35-1.7 2.8 2.5 1.2 1.45 1.25l-2.4-.45m-3.3.8l1.7-1.8q.85-.6 1.85-.35l1.7-2.7q1.4-2.1 2.1-2.4.75-.3 1.65 1.1l1.6 3.05.8 1.3 3.3-.15q1.45.05 2.25 2.15.65 1.7 1.25 6.1.2 1.35-1.5 3.2l-3.2 2.85q-2.55 2.55-3 2.45-.7-.15-1.3-1.5l-1.1-2.05Q104.45 49 103 48.5l-2.4.15-1.3.9-2.45 2q-1.35.95-1.9.4-.6-.6-1.3-2.95-.7-2.35-.7-3.85v-.25q0-.8.75-1.45 2.35-1.95 3.9-3.85m-3.25-.6q-2.5-4.05-.1-6.45l.6.45q-1.8 2.4.1 5.6l-.6.4"/><path fill="#0d131a" d="M110.8 34.75l.35-.65q.55.25.65 1.1v1.65q-.2.95-.7 1.5l-.55-.5q.75-.85.55-2.5l-.3-.6"/><path fill="#fff" d="M95.7 36.05q0-1.45.6-1.45t.6 1.45q0 1.4-.6 1.4-.2 0-.35-.3-.25-.4-.25-1.1m13.55.35q0-.95.45-.95.5 0 .5.95 0 .9-.5.9-.45 0-.45-.9"/><path fill="#0d131a" d="M82.25 59.6l.45 1.6q-1.2 3.65-4.85 7.7l-6.35 5.9-3.05 2.9.35-1.45.7-.75 1.55-1.25q3.45-2.95 6.35-6.5 3.7-4.55 4.85-8.15"/></svg>