<svg xmlns="http://www.w3.org/2000/svg" width="693" height="311" viewBox="-0.25 -0.65 693.4 310.85"><path fill="#0d131a" d="M328.5 94.1q5.05-1.05 8.1-3.1 4.1-2.8 6.15-9.5 1.05-3.55 2.3-3.6 1.3-.05 1.65 3.45.3 3.15 1.5 4.6 1.2 1.5 3.85 1.85 2.5.4 7.5-5.05 4.5-4.8 6.4-8.75 1.65-3.45 2.6-3.7 1.05-.25 2 3.05.8 2.75 4.35 10.05l3.35 6.9q0 2.7-4.15 8.2-3.1 4.15-11.15 13.1-8.85 9.95-9.8 12l2.35 2.4-3.15.05q-1.15 0-17.6-16.15-16.4-16.05-13.95-15.4l7.7-.4"/><path fill="#e3c582" d="M361.55 84.15q5.95-6.55 6.25-8.95.2-1.45 4 6.6l3.75 8.35.1.35q0 1.9-5.35 8.6l-9.3 10.75q-8.2 9.15-9.8 11.8-23.7-23-24.15-24.15-.15-.35 3.45-1.1 4.75-1 7.8-3.4t5-7.35l.9-2.35q.3-.55.45.45.4 2.6 2 4.45 1.85 2.15 4.85 2.6 3.55.5 10.05-6.65"/><path fill="#0d131a" d="M363 131.5q2.9 16.05-10 28.25-12.4 11.7-25.45 9.55-12.85-2.2-21-16.75-12.5-22.4-23.8-39-10.5-15.5-13.5-16.65-4.6-1.7-17.15 3-12.85 4.85-20.85 11.6l-5.6 5.65-6.95 7.4q-12.55 13.85-18.95 19.85-11.05 10.3-20.95 11.55-21 2.6-39.3-.05l-10.9-1.65-7.8.25-4.2-7.2 36.7-45.65.2-.15q2.5-1.8 16.05-7.05 9.35-3.6 34.45-12.8 6.8-2.45 19.4-6.4 11.25-3.45 15.2-5.05 7.55-3 13.9-7.1l7.95-5.6q3.15-2 4.65-2.85 2.5-1.35 5.1-2.1 7.9-2.35 14.05.2 7 2.95 12.85 12.55 3.15 5.25 18.25 18.05 15.2 12.9 31.4 24 13.6 9.35 16.25 24.15"/><path fill="#d18344" d="M360.2 137.5q1.25 8.15-.4 14.95-1.75 7.25-6.3 10.85-9.6 7.7-21.7 3.75-12.15-3.9-20.55-17.6-14.4-23.55-25.3-38.65-11.4-15.7-15.45-17.2-5.7-2.15-19.7 3.55-13.45 5.5-22.25 12.95-2.9 2.45-12.4 11.95Q203 135.2 196.3 141q-11.8 10.15-18.2 11.45-13.25 2.75-31.35 1.35-15.55-1.25-22.45-4 2.8-3.5 31.4-45.5 4.15-2.75 49.55-19.3l34.5-12.85q8.1-3.25 14.35-6.65 3.3-1.8 8.3-5l4.3-2.65q2.2-1.25 4.5-1.9 6.2-1.85 12.8 1.15 6.55 2.95 9.9 9.1 3.15 5.75 18.65 19.2Q328.1 98.85 345 110.45q6.05 4.2 10.15 11.75 3.85 7 5.05 15.3"/><path fill="#ab6b35" d="M345 110.45q8.55 5.9 12.9 17.8 4.05 11.2 2.4 21.7-9.5-15.65-24.85-35.85l-21.3-27.4Q328.8 99.3 345 110.45m-116.45-.35q-2.9 2.45-12.4 11.95Q203 135.2 196.3 141q-11.8 10.15-18.2 11.45l-3 .55q6.1-5.35 14.55-15l12.15-14.5q7.6-9.25 27.4-18.75 18.6-8.9 32.55-11.05-7.65 1.55-17.3 6.35-9.6 4.75-15.9 10.05"/><path fill="#0d131a" d="M166.75 102.55q.8.1 1.25.85.4 1.05.4 4.9 0 5.35-.75 10.25-.95 5.95-2.55 7.55-1.5 1.5-9.55 3-9 1.7-11.5 2.95-1.7.95-6.35 4.6l-4.25 3.5-.65-10.4.7-.6q5.95-4.6 7.65-6.65 5.55-5.2 11.5-10.25 11.8-10 14.1-9.7"/><path fill="#fff" d="M163.2 124.2q-1.15 1.15-7.5 2.5l-11.4 1.85-.45.05-.8-1.6q-.65-1.85.15-2.8 1.2-1.45 10-8.9 9.4-7.85 12.5-9.7l.1 2.05q0 4.65-.65 9.65-.8 5.75-1.95 6.9"/><path fill="#dbdcdc" d="M165.8 107.65q0 4.1-.5 8.25-5.8-2.7-22.45 10.3-.25-1.25.35-2 1.2-1.45 10-8.9 9.4-7.85 12.5-9.7l.1 2.05"/><path fill="#0d131a" d="M152.3 120.4l.35 3.2q-.1 1.4-.6 1.6-.5.2-1.2-.9-.65-1.15-1.05-2.9t-.35-3.15q.1-1.4.6-1.6.5-.2 1.2.9l1.05 2.85"/><path fill="#fff" d="M151.65 120q0 1.05-.75 1.05-.3 0-.5-.3l-.25-.75q0-.45.25-.75.2-.35.5-.35.75 0 .75 1.1"/><path fill="#0d131a" d="M203.9 21.15q2.3-3 4.5-1.65 1.85 1.15 2.15 3.6L210 39.25q-.75 16.2-.75 20.15l7.7-10.85q5.2-7.35 8.15-10.05 2-1.75 3.3-.6 1.2 1.05 1.2 3.5 0 1.75-5.8 15.6l-6.45 15.3q.7.45 3.65 1.6l4.4 1.9q.35.2-.7.85l-2.45 1.3q-6.7 2.3-16 6.35-18.45 8.05-36.6 20-12.5 8.2-20.7 15.2l-9.85 8.85-4.1 3.15q-2.45 1.8-3.4 2.8-5 5.4-6.65 3.6-.35-.4.1-3.25.5-3.55 2.05-7.1.15-.35-5.9-20.1-7.45-24.35-11.25-43.5-.65-3.35 1.65-4.1 2.2-.7 3.8 1.4l10.3 12.65 12.9 15.35-4.05-29.05q-3.45-24.5-3.4-33.2.05-4.35 3.75-6.25 3.65-1.85 4.65.6 1 2.5 9.95 20.15 9.3 18.4 12.35 23.55l1.7-28.1q1.5-23.4 3.7-32.05 1.05-3.9 4.1-4.75 2.9-.8 4.3 1.7 1 1.8 5.5 26.2 4.95 27.15 5.6 29.75l7.05-17.1q5.6-13.55 10.1-19.55"/><path fill="#f09cb4" d="M206.15 49.3q-1.45 19.95-.45 20.3 1.05.4 9.55-12.3 8.1-12.1 8.3-10.4.25 1.95-5.2 14.15Q212.9 73.2 213 73.8q.15.85 2.6 1.55 2.35.7 2.15 1.4l-15.2 6.85q-18.45 8.15-31.9 17-22.3 14.65-33.85 25.05l-5.15 4.3q-1.95 1.2-.9-1.8.9-2.5-7.3-29.65-8.25-27.45-8.05-28.6.15-.65.65-1.15.65-.7 1.3-.1 2.9 2.7 14.55 17.55 10.55 13.5 11.15 13.35.55-.15-4.35-35.85-4.9-35.85-3.05-36.8.7-.35 1.05-.4.9-.15 1.45.6 3.85 4.8 15.15 27.4 10.7 21.35 10.95 21.45 1.15.25.6-5.3L167.3 40q2.75-30.9 3.95-32l1.05-.9q.9-.5 1.25.55 2.25 6.7 7.15 34.2 4.6 25.8 4.85 25.95.3.2 8.25-17.75 8.55-19.25 11.1-22.4l.9-.1.65.5q1.2 1.05-.3 21.25"/><path fill="#f8d1dc" d="M120.4 88.35q-5.2-17.2-5-18.45.15-.65.65-1.15.65-.7 1.3-.1 2.1 1.95 8.3 9.65-4.75-3.3-1.55 12.3l3.05 14.15q1.65 8.3 1.7 12.55-1.8-7-8.45-28.95m21.9-54.85q-3.3-1.6-2.45 15.7 1.15 24.75.8 28.6-3.45-24.95-4.35-32.95-2-17.25-.65-17.95.7-.35 1.05-.4.9-.15 1.45.6 1.65 2.05 4.15 6.4m31.25-25.85q1.05 3.1 2.6 10.35-2.15-4.5-3.45-1.2-.95 2.4-1.9 11.15l-1.8 16.2q-1.35 9.55-3.2 14.05 3.8-48.75 5.45-50.2l1.05-.9q.9-.5 1.25.55"/><path fill="#0d131a" d="M133.2 144.05l1.25.25q1.25.45 1.3 1.55L136 151q-.1 3.9-2 4.2-4.75.8-19.2 7-10 4.25-28.25 12.75l-5.45 2.4 3.2-5q6.9-10.8 21.9-19.05 13.85-7.6 27-9.25"/><path fill="#d5a985" d="M110.5 155.2q10.9-5.5 21.15-7.25.85.9.6 2.9-.25 2.15-1.6 2.8-2.8.55-15.3 5.4-11.65 4.55-23.75 9.75 7.2-7.7 18.9-13.6"/><path fill="#0d131a" d="M80.2 181q-1.4 1.4-2.7 1.75-12.95 3.55-35.25 17-12.4 7.5-30.45 19.9l-8.55 6q-2.4 1.55-3.15.65-.35-.45.65-2.35 1-1.85 2.05-2.9l6.6-7.2q8.45-7.55 27.95-29.65 15.05-17.05 27.35-24.85 3.3-2.05 11.7-5.75 10.35-4.55 16.7-7.85 10.95-5.65 21.4-11.65 10.25-5.85 13.55-8.3l1-.4 1 .3q2.5 1.2 4.3 9.35 1.55 6.85 1.5 11.65-.05.95-.45 1.15l-2.05.25q-16.4 1.35-32.25 12.55-10.75 7.6-17.95 16.85L80.2 181"/><path fill="#f7c498" d="M76.55 179.35q-20.05 5.5-61.95 34.05 37.3-41.25 48-47.9 6.7-4.2 32.7-17.7 28.3-14.65 34-18.55.9 1.8 1.75 6.25.95 4.9 1.15 9.8-22.1 4.8-36.5 15-8 5.65-15.35 15-3.05 3.8-3.8 4.05"/><path fill="#d5a985" d="M80.35 175.3q-3.05 3.8-3.8 4.05-13.6 3.75-36.85 17.8 9.75-12.55 22-21.65 8.95-6.7 22.75-13.85l23.1-12q13.25-7.45 23.1-16.1 1.25 5.7 1.55 11.75-22.1 4.8-36.5 15-8 5.65-15.35 15"/><path fill="#0d131a" d="M389.6 295.4l.1-1.05 11.2 3-.75 1q-2.85 3.85-6.95 5.9-3.95 2.05-8.4 2.1-2.2.05-1.6-.7.3-.4 1.05-.8 5.05-3.9 5.35-9.45"/><path fill="#fff3c2" d="M387.35 304.25q1.75-1.95 2.55-3.45.95-1.95 1.25-4.3l6.7 1.8q-4.1 4.6-10.5 5.95"/><path fill="#dbd2a9" d="M397.85 298.3q-3.75 4.2-9.65 5.75l3.65-2.55q1.6-1.75.5-4.65l5.5 1.45"/><path fill="#0d131a" d="M294.85 288.85l-.2-1.25L306 290l-.4.95q-2.25 5.15.5 10.9l.6 1.15-1.8-.05q-3.95-2.1-6.55-5.7-2.7-3.7-3.5-8.4"/><path fill="#fff3c2" d="M302.9 295.65q0 1.8.7 4.25-5.05-4-6.65-10.05l6.75 1.4q-.8 2.3-.8 4.4"/><path fill="#dbd2a9" d="M301.65 296.65q-1.55-3.4-1.45-6.15l3.5.75q-.8 2.3-.8 4.4 0 1.8.7 4.25-.75-.6-1.95-3.25"/><path fill="#0d131a" d="M329.55 267.7l7.95 4.05-16.9 7.4-.55-.35q-1.6-1-4.1-.65-1.8.3-4.6 1.4-1.8.75-2.05 1.3-.2.45.3 2.15l.6 2.4q.55 3.25-1.3 5.2-1.4 1.5-3.95 1.55l-3.85-.4q-4.4-.5-8-2.55-4.05-2.3-5.25-5.65-1.5-4.3 2.1-6.55l1.95-1.1 1.45-1.15q2.3-3.2 4.95-6.1 5.1-5.65 9.1-6.85 3.25-.95 10.3 1.4l11.85 4.5"/><path fill="#f7c498" d="M331.55 271.55l-10.85 4.8q-3.8-1.8-10.3.85-2.95 1.15-3.55 2.85-.4 1.2.3 3.65l.5 2.15q.35 1.95-.6 3-1.65 1.75-6.1 1.25-3.3-.35-5.8-2.25-2.5-1.85-3.5-4.7-.55-1.5 0-2.9.4-1.1 1.15-1.65l1.8-1 2.15-2q2-3.05 4.9-5.8 3.75-3.6 7.5-5.1 3.6-1.45 8.4.55 2.9 1.2 10.8 4.7l3.2 1.6"/><path fill="#d5a985" d="M328.35 269.95l3.2 1.6-10.85 4.8q-3.8-1.8-10.3.85-2.95 1.15-3.55 2.85-.4 1.2.3 3.65l.5 2.15q.35 1.95-.6 3-1.65 1.75-6.1 1.25-3-.3-5.35-1.95 5 .8 7.85-4.15 1.55-2.8 3.9-8.4 1.9-3.85 6.65-5.8 4.3-1.7 9.9-1.6 2.4 1.05 4.45 1.75"/><path fill="#0d131a" d="M304.25 287.55l-.2-1.25 11.35 2.4-.4.95q-2.25 5.1.5 10.85l.6 1.2-1.8-.05q-3.95-2.1-6.55-5.7-2.7-3.7-3.5-8.4"/><path fill="#fff3c2" d="M312.3 294.35q0 2 .7 4.25-5.1-4.1-6.65-10.1l6.75 1.45q-.8 2.3-.8 4.4"/><path fill="#dbd2a9" d="M310.75 289.45l2.35.5q-.8 2.3-.8 4.4 0 2 .7 4.2-2.2-5.45-2.25-9.1"/><path fill="#0d131a" d="M327.9 261.6l11.05 4.8 7.95 4-16.9 7.45-.55-.35q-1.6-1-4.1-.65l-4.6 1.4q-1.8.7-2.05 1.25-.2.5.3 2.2l.55 2.4q.6 3.3-1.25 5.15-1.4 1.5-3.95 1.6l-3.85-.4q-4.05-.45-7.2-2.85-3.15-2.4-4.4-5.95-1.55-4.3 2.05-6.55l2-1.1 1.4-1.15 4.95-6.1q5.15-5.65 9.15-6.85 3.1-.9 9.45 1.7"/><path fill="#f7c498" d="M324.4 274.45q-1.8.3-4.6 1.4-2.95 1.2-3.55 2.9-.4 1.2.3 3.65l.5 2.15q.4 1.95-.6 2.95-1.7 1.75-6.1 1.3-3.3-.35-5.8-2.25-2.5-1.85-3.5-4.75-.55-1.5 0-2.9.4-1.05 1.15-1.6l1.8-1 2.15-2q2-3.05 4.85-5.8 3.75-3.6 7.55-5.1 3.6-1.45 8.4.55l10.8 4.7 3.15 1.6-10.8 4.75q-2.35-1.15-5.7-.55"/><path fill="#d5a985" d="M337.75 268.65l3.15 1.6-10.8 4.75q-2.35-1.15-5.7-.55-1.8.3-4.6 1.4-2.95 1.2-3.55 2.9-.4 1.2.3 3.65l.5 2.15q.4 1.95-.6 2.95-1.7 1.75-6.1 1.3l-2.45-.55q1.9-.7 2.95-3.7 1.05-4.05 2.05-6.4 3.9-9.25 17.45-12.65 4.55 2.15 7.4 3.15"/><path fill="#0d131a" d="M324.45 291.1l-.45.95q-2.15 5.15.55 10.9l.6 1.15-1.8-.05q-3.95-2.1-6.55-5.7-2.7-3.7-3.5-8.4l-.2-1.25 11.35 2.4"/><path fill="#fff3c2" d="M321.35 296.8q0 2 .7 4.2-5.05-4-6.65-10.05l6.75 1.4q-.8 2.3-.8 4.45"/><path fill="#dbd2a9" d="M319.3 291.75l2.85.6q-.8 2.3-.8 4.45l.15 1.75q-1.9-3.45-2.2-6.8"/><path fill="#0d131a" d="M405 277.45l3.75.9q2.05.8 2.45 2.3 1 3.35-.4 7.95-1.4 4.45-3.9 6.9-3.8 3.7-8.05 4.5-4.3.75-8-1.65-2.85-1.9-2.85-5.15l.45-1.75q.35-1.25.05-1.6.45-1.5-1.85-2.55-4.5-2.1-20.25-1.75l-3.65-.25q-6.55-.8-21.95-3.95l-6.4-1.25-2.9.15q-2.3.45-3.35 1.75-1.25 1.6-.1 5.2.9 2.95-.7 5-1.3 1.55-3.95 2.15l-4.8.2q-2.75-.25-5.95-3.25-3.35-3.1-4.3-6.65-.7-2.55-.25-4.3.45-2 2.4-3.45l3.25-1.8q2.15-1.1 3.1-2.35 1.8-2.15 4.25-4.35 3.3-2.95 5.9-4.1 4.15-1.75 8.3.1l6.55 3.1q3.8.95 13.55 1.8 10.35.85 13.9.25 2.85-.45 5.5-1.85 1.6-.8 4.7-2.95l4.15-2.65q3-1.8 10.1-1.85 7.25-.05 9.15 1.95l.6.65-.4.8q-4.35 2.85-6.75 5.7-2.15 2.6-1.65 3.8.6 1.6.95 1.8 1.55.9 9.35 2.5"/><path fill="#f7c498" d="M407.4 289.5q-1.2 2.9-2.9 4.55-6.3 6.15-12.25 2.15-1.3-.85-1.6-2-.2-.8.05-2.85l.2-2.65q-.05-2.5-5.45-3.75-5.3-1.25-18.95-1.95l-3.45-.2q-13-1.6-21-3.25l-4.9-1.3-2.55-.7q-1.55-.15-3.8.65-2.7 1-4.2 2.85-2.3 2.8-1 6.9.55 1.75-.25 2.6-.7.9-2.5 1.3l-4 .2q-1.95-.25-4.5-2.65-2.75-2.6-3.55-5.4-.85-3.3 1.95-5.3l5.45-4.85 4.2-3.85q2.4-1.9 4.75-2.85 5.3-2.1 13.25 1.75 3.3 1.55 14.45 2.75l14.85.45q3.2-.55 6.2-2.05l5.05-3.2 4-2.55q2.15-1.3 7.55-1.45l7.5.6-2.95 2.85-3.5 3.4q-1.15 1.25-1.3 2.05l-.15 1.35q0 2 2.65 3.25 2.75 1.25 10.95 2.95 2.1.4 2.7 2.55l.25 2q0 2.6-1.25 5.65"/><path fill="#d5a985" d="M325.6 287.95q.55 1.75-.25 2.6-.7.9-2.5 1.3l-4 .2q-2-.25-4.7-2.85l2.2.15 2.9-.15q1.65-.3 2.9-2.8l2.1-5.15q2.75-7 7.35-6.1l19.45 3.9q15.15 2.55 25.25 1.8 3.35-.25 6.85 1.2 3.6 1.45 3.95 3.35-4.95-1.6-20.6-2.4l-3.45-.2q-13-1.6-21-3.25l-4.9-1.3-2.55-.7q-1.55-.15-3.8.65-2.7 1-4.2 2.85-2.3 2.8-1 6.9m82.8-6.1l.25 2q0 2.6-1.25 5.65-1.2 2.9-2.9 4.55-6.3 6.15-12.25 2.15l-.6-.45q3.75.75 7.15-2.5 3.2-3.15 3.8-7.45.35-2.75-6.95-6.35-7.65-3.8-7.9-7-.2-2.6-2.6-4.4-2.6-1.45-3.05-1.9 1.45-.9 2.85-1.85 2.15-1.3 7.55-1.45l7.5.6-2.95 2.85-3.5 3.4q-1.15 1.25-1.3 2.05l-.15 1.35q0 2 2.65 3.25 2.75 1.25 10.95 2.95 2.1.4 2.7 2.55"/><path fill="#0d131a" d="M414.55 226.55l.6.7q2.55 3 4.95 7.05l4 7.45q4.2 8.05 6.4 11.1l1.1 1.6-1.9.5q-8 1.9-19.15 9.2-9.5 6.2-11.4 9-1.2 1.8-1.7 1.15l-.7-2.45q-.3-1.1-.35-2.8l-.35-1.8q-.3-.5-5.9 2.6-5.8 3.15-6.2 3-.5-.15.4-4.35.9-4.45.7-4.95-.25-.65-3.05-.8l-5-.3q-2.45-.35-2.05-1.5.4-1.35 4.45-3.1 6.85-2.9 8.15-7.55 1.35-4.75-3.45-10.2l-1.25-1.45 31.7-12.1"/><path fill="#d18344" d="M421.75 242.95q3.2 6.3 5.65 9.95-6.15 1.95-14.85 7-8.65 5.05-13.55 9.5-1.25-4-1.7-4.65-.45-.65-4.95 1.45l-5.45 2.65q-.8.35-.2-2.75l.55-3.8q-.15-.35-4.3-1.1-3.55-.7-2.05-1.15 2.5-.75 5.65-4 3.6-3.65 4-7l.1-1.1q0-3.8-3.4-8.1l26.45-10.15q2.2 2.7 4.4 6.45l3.65 6.8"/><path fill="#ab6b35" d="M413.7 229.7q2.2 2.7 4.4 6.45l3.65 6.8q3.2 6.3 5.65 9.95-4.75 1.5-11.35 5.05-6.4 3.45-11.8 7.3-2.1-5.55-5.45-9.45-3.7-4.25-8.4-5.85l.25-2q0-3.8-3.4-8.1l26.45-10.15"/><path fill="#0d131a" d="M427.25 300.75l-.75 1.05q-3 4-7.25 6.2-4.1 2.05-8.75 2.15-2.3.05-1.7-.75.35-.4 1.1-.85 5.25-4 5.65-9.8l.05-1.1 11.65 3.1"/><path fill="#fff3c2" d="M413.15 307.95q1.8-1.85 2.65-3.6.9-1.75 1.35-4.45l6.95 1.85q-4.3 4.8-10.95 6.2"/><path fill="#dbd2a9" d="M424.1 301.75q-4 4.45-10.05 6l3.8-2.7q1.7-1.85.5-4.85l5.75 1.55"/><path fill="#0d131a" d="M328.4 293.1l-.4 1q-2.3 5.4.55 11.35l.6 1.2-1.85-.05q-4.1-2.2-6.8-5.9-2.8-3.85-3.7-8.8l-.2-1.3 11.8 2.5"/><path fill="#fff3c2" d="M325.95 303.4q-5.3-4.15-6.95-10.45l7.05 1.5q-.85 2.3-.85 4.55 0 2 .75 4.4"/><path fill="#dbd2a9" d="M325.2 299q0 2 .75 4.4-.75-.55-2.05-3.35-1.65-3.5-1.5-6.4l3.65.8q-.85 2.3-.85 4.55"/><path fill="#0d131a" d="M331.35 264.2q3.35-1 9.95 1.25 3.8 1.25 11.65 4.45l8.25 4.2-17.55 7.7-.6-.35q-1.65-1.05-4.3-.65-1.85.3-4.75 1.45-1.85.75-2.1 1.3-.25.5.25 2.25l.6 2.55q.6 3.35-1.3 5.35-1.45 1.55-4.1 1.65l-4.05-.4q-4.5-.5-7.6-2.45-3.5-2.1-4.75-5.65-.95-2.7 0-4.55.6-1.25 2.2-2.25l2.05-1.15 1.45-1.2 5.15-6.35q5.4-5.95 9.55-7.15"/><path fill="#f7c498" d="M340.45 267.35l11.25 4.9 3.3 1.65-11.25 4.95q-2.45-1.15-5.95-.55-1.95.35-4.8 1.45-3.05 1.25-3.65 3-.45 1.25.25 3.8l.55 2.25q.4 2.05-.65 3.1-.8.85-2.5 1.2l-3.85.1q-3.4-.35-6-2.3-2.6-1.95-3.7-4.95-.55-1.55.05-3 .4-1.15 1.2-1.7l1.85-1.05q1.45-.85 2.25-2.1 2-3.15 5.05-6.05 3.9-3.7 7.9-5.3 3.75-1.5 8.7.6"/><path fill="#d5a985" d="M343.75 278.85q-2.45-1.15-5.95-.55-1.95.35-4.8 1.45-3.05 1.25-3.65 3-.45 1.25.25 3.8l.55 2.25q.4 2.05-.65 3.1-.8.85-2.5 1.2l-3.85.1q-3.05-.3-5.6-2.05 5.25.85 8.15-4.35 1.65-2.85 4.1-8.7 2-4 6.95-6 4.5-1.8 10.35-1.7l4.6 1.85 3.3 1.65-11.25 4.95"/><path fill="#0d131a" d="M326.6 290.55l-.2-1.3 11.8 2.5-.45 1q-2.25 5.35.6 11.3l.6 1.25q.2 1-1.85-.1-4.1-2.15-6.8-5.9-2.85-3.85-3.7-8.75"/><path fill="#fff3c2" d="M335.8 293.05q-.85 2.55-.85 4.6 0 1.9.75 4.4-5.25-4.2-6.9-10.5l7 1.5"/><path fill="#dbd2a9" d="M333.35 292.55l2.45.5q-.85 2.55-.85 4.6 0 1.95.75 4.35-2.2-5.45-2.35-9.45"/><path fill="#0d131a" d="M350.95 263.55q3.9 1.5 11.8 4.95l8.25 4.2-17.55 7.75-.6-.4q-2.8-1.7-9.1.8-1.85.75-2.1 1.35-.2.5.3 2.25l.6 2.5q.6 3.3-1.3 5.4-1.45 1.55-4.1 1.6l-4.05-.4q-4.45-.5-7.6-2.4-3.5-2.15-4.75-5.65-1.6-4.5 2.15-6.8l2.1-1.2 1.45-1.15 5-6.9q5.25-6.45 9.4-7.65 3.25-.95 10.1 1.75"/><path fill="#f7c498" d="M361.5 270.85l3.3 1.7-11.3 4.95q-3.95-1.9-10.7.9-3.05 1.2-3.65 3-.45 1.25.25 3.8l.55 2.25q.35 1.95-.65 3.1-1.7 1.8-6.35 1.3-3.4-.35-6.05-2.35-2.6-1.95-3.65-4.9-.55-1.55 0-3.05.45-1.1 1.25-1.7l1.85-1q1.45-.85 2.25-2.1 2-3.15 5.05-6.05 3.9-3.7 7.85-5.3 3.75-1.5 8.75.55l11.25 4.9"/><path fill="#d5a985" d="M353.8 267.6q4.5 2.15 7.7 3.25l3.3 1.7-11.3 4.95q-3.95-1.9-10.7.9-3.05 1.2-3.65 3-.45 1.25.25 3.8l.55 2.25q.35 1.95-.65 3.1-1.7 1.8-6.35 1.3l-2.55-.55q2-.75 3.05-3.9 1.15-4.2 2.15-6.65 4.1-9.65 18.2-13.15"/><path fill="#0d131a" d="M336.05 293.05l-.25-1.3 11.8 2.5-.4 1q-2.3 5.4.55 11.35l.6 1.2-1.85-.05q-4.1-2.2-6.8-5.9-2.8-3.85-3.65-8.8"/><path fill="#fff3c2" d="M345.25 295.6q-.85 2.3-.85 4.55 0 2 .75 4.4-5.3-4.25-6.95-10.45l7.05 1.5"/><path fill="#dbd2a9" d="M342.3 294.95l2.95.65q-.85 2.3-.85 4.55l.15 1.85q-2.05-3.6-2.25-7.05"/><path fill="#0d131a" d="M429.35 264.15l.6.7-.4.8q-4.55 3-7 5.95-2.25 2.7-1.75 3.95.65 1.7 1 1.9 1.65.95 9.75 2.6 3.05.6 3.9.95 2.1.8 2.6 2.4 1 3.45-.45 8.25-1.4 4.65-4.05 7.2-3.95 3.85-8.4 4.65-4.5.85-8.35-1.7-3-1.95-3-5.35l.5-1.8q.4-1.35.05-1.65.5-1.55-1.9-2.7-4.7-2.2-21.15-1.85l-3.8-.2q-6.3-.8-22.85-4.15l-6.65-1.3-3 .15q-2.45.5-3.5 1.8-1.35 1.7-.1 5.45 1 3.15-.75 5.2-1.35 1.65-4.1 2.25l-5 .2q-2.9-.3-6.25-3.4-3.45-3.2-4.45-6.9-.7-2.7-.25-4.5.45-2.1 2.5-3.6l3-1.9 2.85-2.45q1.8-2.2 4.4-4.55 3.5-3.1 6.2-4.25 4.35-1.85 9.05.1l7.2 3.3q4 1 14.05 1.8 10.8.95 14.5.3 2.95-.45 5.7-1.9l4.95-3.1 4.3-2.75q3.15-1.9 10.55-1.95 7.55-.05 9.5 2.05"/><path fill="#f7c498" d="M410.65 266.3q2.3-1.35 7.85-1.5 5.15-.2 7.85.65l-3.1 2.95-3.65 3.55q-1.15 1.3-1.3 2.15l-.2 1.45q0 2.05 2.75 3.35 2.9 1.3 11.45 3.05 2.15.45 2.8 2.65l.25 2.1q0 2.7-1.3 5.85-1.25 3.05-3 4.75-6.55 6.4-12.8 2.3-1.4-.95-1.65-2.1-.2-.85.05-3l.2-2.75q-.05-2.6-5.65-3.9-5.6-1.3-19.75-2.05l-3.6-.2-21.85-3.4-5.1-1.3-2.7-.75q-1.6-.15-3.95.7-2.85 1.05-4.35 2.95-2.4 2.95-1.05 7.2.55 1.75-.25 2.7-.8.95-2.65 1.35l-4.15.2q-2-.25-4.7-2.75-2.85-2.7-3.65-5.65-.9-3.4 2-5.5l5.7-5.05 4.35-4q2.5-2 4.95-2.95 5.45-2.2 13.85 1.8 3.4 1.65 15 2.85l15.5.45q3.35-.55 6.45-2.15 1.95-1 5.25-3.3l4.15-2.7"/><path fill="#d5a985" d="M408.8 284.85q3.75 1.5 4.1 3.45-5-1.6-21.45-2.5l-3.6-.2-21.85-3.4-5.1-1.3-2.7-.75q-1.6-.15-3.95.7-2.85 1.05-4.35 2.95-2.4 2.95-1.05 7.2.55 1.75-.25 2.7-.8.95-2.65 1.35l-4.15.2q-2.1-.25-4.9-2.95l2.3.15 3-.15q1.7-.3 3.05-2.9l2.15-5.4q2.9-7.25 7.7-6.35l20.25 4.05q15.8 2.65 26.35 1.9 3.45-.25 7.1 1.25m2.05-14.6q-2.7-1.55-3.15-2l2.95-1.95q2.3-1.35 7.85-1.5 5.15-.2 7.85.65l-3.1 2.95-3.65 3.55q-1.15 1.3-1.3 2.15l-.2 1.45q0 2.05 2.75 3.35 2.9 1.3 11.45 3.05 2.15.45 2.8 2.65l.25 2.1q0 2.7-1.3 5.85-1.25 3.05-3 4.75-6.55 6.4-12.8 2.3l-.6-.5q3.9.75 7.4-2.65 3.4-3.2 4-7.7.4-2.9-7.25-6.65-8-3.95-8.25-7.25-.2-2.7-2.7-4.6"/><path fill="#0d131a" d="M656.55 144l4.1.65q4.25.75 4.85 1.35 1.7 1.8 7.9 10.05 7.2 9.7 7.65 11.85.45 2.25-1.2 2.45l-7.1-.55q-18.05-2.2-36.6-3.55-36.1-2.6-60.9-.05 27.75 3.45 73.15 14.85 41.7 10.5 42.45 12.4.65 1.5 1.45 7.1.85 5.8.85 9.1 0 12.7-.6 16.05-.5 2.75-4.5.8-9.45-4.6-25.15-11.45-27.9-12.1-50.15-19.55 22.65 9.2 37.8 16.1 19.15 8.75 20.3 11.2 1.15 2.35.85 11.6-.25 7.85-.8 10.2-.65 2.6-6.2-.8-6.05-3.85-15.55-10.6-.5 1.6-3.25 11.75-2.75 9.25-3.85 8.8-22.05-14.95-49.8-29.9-55.4-29.85-89.7-32.2-30.8-2.1-31.85-12.95-.7-6.85 10.1-14.5 9.1-6.45 19.15-9.25 23.65-6.6 65.7-10.75 53.25-5.3 90.9-.2"/><path fill="#d18344" d="M687.05 195.8q2.1 1.7 2.65 14.5.55 12.65-.8 12.85-19.6-8.4-42.25-17.6-45.6-18.55-65.55-21.5l-3.65-.05q-2.55.25 2.9 1.65 7.7 2 35.05 13.9 30.55 13.25 52.9 25.1 1 .55.1 8.95-.9 8.4-1.9 7.55l-9.3-6.5q-8.75-5.8-11.4-6.7.3 3-2.4 10.95-2.8 8.05-4.1 7.3-22.2-14-49.65-27.85-54.7-27.5-86.9-29.7-16.25-1.1-23.6-4.6-5.15-2.4-5.5-5.65v-.5q0-5.1 9.35-11.6 8.6-5.9 17.75-8.45 20.95-5.85 68.35-9.7 55.2-4.45 93.05-.3 1.9.25 8.45 9.4 6.3 8.85 6.15 9.55l-44.5-3.3q-48.85-2.8-69.35 1.4l-2.7 2.05q28.4 2.55 78.55 14.95 18.45 4.6 33.3 8.9 13.75 4 15 5"/><path fill="#ab6b35" d="M669.9 156.3l4.8 7 2.05 3.5-43.2-3.2q-47.7-2.8-68.8.95 11.7-5.05 46.75-6.3l30-.75 28.4-1.2m19.5 49q.55 5.95.4 11.85-.15 5.9-.9 6-19.6-8.4-42.25-17.6-45.6-18.55-65.55-21.5l-3.65-.05q-2.55.25 2.9 1.65 7.7 2 35.05 13.9 30.55 13.25 52.9 25.1 1 .55.1 8.95-.9 8.4-1.9 7.55l-9.3-6.5q-8.75-5.8-11.4-6.7.3 3-2.4 10.95-2.8 8.05-4.1 7.3-18-11.35-41.3-23.55-46.45-24.3-78.3-31.45-2-7.8 26.3-5.65l19.1 2.1 7.65.65q-11.1-6.55-31.25-11.65-6.85-1.75-7.9-2.45-1.55-1 3-2.3 7.25-2.05 61.95 11.95 69.1 17.7 90.85 21.45"/><path fill="#0d131a" d="M648.85 229.55q2.85 2.7 1.5 3.1-1.25.35-3.35-.85-18.3-10.55-53.7-25.9-31.1-13.45-39-15.55-6.15-1.7-6.3-2.85-.2-1.2 7.15.4 7.55 1.65 49.05 20.15 41.4 18.45 44.65 21.5m-106.5-54q-6.35-.65-6.95-1.3-.7-.65 7.15-.6 7.05.05 25.45 5.45l23.4 7.35q6.15 1.9 5.35 3.1-.8 1.15-6.5-.3l-23.8-7.3q-19.45-5.95-24.1-6.4M534 171.2l-7 .4q-1.6-.4 2.75-1.6 6.6-1.85 40-6.4l6.75-.5-4.65 3.2-1.65.25-36.2 4.65"/><path fill="#d18344" d="M513.5 188.05q-9.7 31.65-50.55 45.6-50.45 17.25-84.6 6.85-33.9-10.35-48.7-47-6.85-17-17.4-36.9-2.9-5.5-.25-14.85 2.55-8.75 8.75-17.15 6.45-8.7 13.7-12.65 8.2-4.45 14.75-1.35 1.9.9 6.2 3.5l5.85 3.35q14.6 6.8 80.55 22.55l44.2 10.5q20 4.9 22.2 6.25 1.25.8 2.55 3.15l1.1 2.25q1.25 2.85 2 6.05 2.55 10.25-.35 19.85"/><path fill="#ab6b35" d="M496.3 194.65q12.05-9.2 14.75-13.9 2.7-4.7 3.05.1.3 4.2-.6 7.2-9.7 31.65-50.55 45.6-50.45 17.25-84.6 6.85-33.9-10.35-48.7-47-3.25-8.1-7.4-17 6.2 4.9 22.8 23.5 14.55 16.3 23.8 21.6 30.2 16.65 68.25 5.85 21.45-6.15 38.5-18 15.95-11.2 20.7-14.8"/><path fill="#0d131a" d="M494.85 150.9q12.35 3.1 14.3 4.35.85.55 1.75 1.6l1.45 2.2q.65 1.5-.4 2.85-1.1 1.35-2.75-1.1-1.3-2.1-1.95-2.55-1.65-1.05-15.85-4.6l-31.15-7.45q-39.4-9.3-58.15-14.15-31.35-8.2-41.6-12.95-7.3-3.45-15.5-8.65l1.75-3.1q8.65 5.45 15.25 8.5 10 4.7 41.2 12.8 17.5 4.55 57.85 14.1 25.5 6 33.8 8.15m16.9 36.7q.95-3.85 2.4-3.4 1.4.5 1.05 4.25-.95 10.25-9.7 21.35-12.65 16.1-36.55 24.25-25.75 8.8-49.6 11.05-24.5 2.3-41.5-2.9-17.9-5.5-30.1-16.15-13.1-11.45-20.4-29.55-8.8-21.6-20.8-43.95l4.7-3.1q11.9 21.75 20.05 43.4 13.75 36.35 47.6 46.3 33.55 9.85 83.45-7.2 23-7.85 37-23.25 9.8-10.8 12.4-21.1"/><path fill="#d18344" d="M347.1 171.05l5.05 21.95q3.35 13.45 7.7 20.8l-18.3-12.2-5.8 19.15-10.5-14.05q-5.35 6.4-11.7 15.25 1.55-19.25 1-33.8-1-27.1-10.7-48.15l43.25 31.05"/><path fill="#0d131a" d="M350.15 189.65q-3-11.5-4.3-18.25-.85-4.15 0-4.1.85 0 1.85 3.6l5.9 19.95q5.2 16.85 7.4 22.3.95 2.35.75 2.65-.3.4-2.65-.9l-9.2-6.1-7.6-5.1q-.4-.2-2.55 10.35-2.1 10.5-3.45 9.6-1.5-.95-6.15-7.55l-4.95-7.25q-.45-.65-4.3 5.1l-6.8 9.8q-3 3.85-3.85 1.45-.8-2.4.3-11.7 2-17.15.4-35.7-1.9-22.45-8.7-36.15-2.45-5.05-1.85-6.15.7-1.25 5.1 3.75 4.3 4.9 7.6 24.35 2.9 17.25 2.9 30.95l-.75 14.6q-.6 8.95-.15 8.45l4.95-7q4.55-6.25 5.25-6.05.65.2 4.55 5.6l5.4 7.7 2.7-10.6q2.05-7.75 2.8-7.75.8-.05 6.55 4l9.25 6.5q-2.55-5.5-6.4-20.35"/><path fill="#d18344" d="M464.9 246.2l7.45 7.7-11.9-1.5 1.4 2.65q1.75 3 3.35 4.8-17.35.4-30.1 7.75-3.95 2.3-7 5.05l-2.25 2.25-1.4-7.45-10.65 2.6 1.15-7.5-13.45 3.75 7.05-6.25q7.45-7.1 9.55-11.25-5.9-5.3-12.2-10.4-9.1-7.35-13.9-9.85-2.65-1.4 4.5-6.45 6.8-4.75 17.35-9.3 11.45-4.95 19.65-6.1 9.6-1.3 11.3 3.35 3.05 8.4 17.25 22.95 7.1 7.25 13.6 12.85l-10.75.35"/><path fill="#ab6b35" d="M448.2 245.35q6.6-.1 6.35-1.25-2.3-6-4.35-12.15-4-12.1-3.9-18.75 4.5 8.45 17.4 21.4 6.4 6.45 11.95 11.25l-10.75.35 7.45 7.7-11.9-1.5 1.4 2.65q1.75 3 3.35 4.8-17.35.4-30.1 7.75-3.95 2.3-7 5.05l-2.25 2.25-1.4-7.45-10.65 2.6.8-5.2q5.55-3.9 20.6-8.35 13-3.8 12.7-4.4-.3-.65-5.25-3.45-4.15-2.35-2.85-2.9l8.4-.4"/><path fill="#0d131a" d="M446.05 209.5q3.3 7.95 16.25 21.7 10.55 11.2 14.15 13.6 1.65 1.05 1.75 1.85.05.7-1.15.85h-3.95l-5.15-.05 4.9 4.6q3.3 3.05 3.1 3.65l-5.5-.3-7.6-1.35q1.45 2.55 3.35 4.95.75.95.6 1.5-.2.65-1.55.7-17.3.35-29.15 7-7.4 4.1-9.2 7.55l-.85 1.6q-.45.65-.95.6-.5 0-1.1-4l-.6-4.9q-.1-.7-4.65.7l-6.55 2.05q-1.55.3-.35-3.1l1.5-4.3q-.1-.65-4.8.85l-6.7 2.35-2.4.15q-.3-.55 1.2-2.5 1.05-1.3 8.9-8.9l7.3-7.3q-20.95-18.55-25.35-19.3-3.3-.55-3.1-1.25.2-.75 3.6.05 4.15.95 12.25 6.85 7.35 5.35 14.75 12.4l.75.65q.45.9-1.1 2-1.25.9-5.3 5.7-4.5 5.4-6.6 7.3l9.85-2.7-1.15 7.5 10.05-2.45 1.2 6.35q5.7-5.4 12.4-8.8 11.35-5.75 23.5-4.7 1.65.15-1.3-3.5-3.3-4.1-3.15-4.4.3-.45 5.45.55l5.2.8-3.55-3.35q-3.55-3.2-3.4-3.75l5.2-.35q4.95.2 5 0-5.75-4.35-12.2-10.6-13.05-12.5-16.25-23.5-1.55-5.25-.95-6.4.7-1.25 3.4 5.35"/><path fill="#fff3c2" d="M510.35 148.95v1.6l-1.65-1.35 1.65-.25"/><path fill="#d18344" d="M667.5 46.75q-14.2-4.1-37.3-5.75-46.25-3.35-90.75 8.8 45.35-5.05 86.25-.3 20.45 2.35 31.85 5.7l-5.4 9.95-29.1-1.55 21.45 6.9q-11.3-1.95-30.95-1.2-39.3 1.55-81 15 12.95-2.35 52.6-3.7 19.85-.7 37.1-.9l-6.1 15.35-14.6-2.3 10 5.4q-14.75-.75-35.85.85-42.15 3.25-73.8 15.25 15.8-2.85 44-2.5l25 .95-10.75 14.55-75.9 6.15 56 11.5-13.05 11.5-75.9-1.55 42.15 11.5-16.1.8 16.1 6.9-13.05 3.05q-8.05-3.05-19.15-5.65-22.25-5.15-37.55-2.8 10.7 3.1 48.3 15.35l-17.65 12.25q-4.2-3.8-10.7-7.85-13.05-8.05-24.55-9l-66.7-19.15q-10.55-5.95-14.85-9-8.75-6.15-12.4-12.3-9.95-16.75 16.5-36.2 42.2-31.1 75.8-50.7 50.7-29.6 91.35-39.8 1.45.95 2.8 4.05l1.05 2.85-32.25 13.8 27.6-6.9-20.7 12.25 19.5-5.65q24.35-6.55 48.45-10.9 77.3-14 123.75-1.05l6.2 6.9-40.7 3.05 28.25 4.6-5.25 11.5"/><path fill="#ab6b35" d="M457.5 46.2q16.8-6.85 22.5-7.25 4.4-.3-2.4 4.25-3.1 2.1-19.45 11.75-35.25 20.75-43.8 31.2-9.55 11.65 5 12.8l10.75.05q5.05 0 4.35 1.15-.75 1.25-6.6 2.85l-12.6 3.3q-18.2 5.25-21.2 12.8-1.35 3.3 13.05 11.5l8.95 5.3q3.5 2.5 1.6 3.25-1.6.65-8.45 1.35l-11.4 1.4q-12.8 2.2-.95 7.8 12.8 6-4.2 2.7-16.65-3.25-23.85-6.25-9.3-3.85-13.2-7.45-7.4-6.9-2.8-16.05 13.9-28.8 66.6-58.1 19.05-10.6 38.1-18.35"/><path fill="#fff3c2" d="M466.4 172.75q-.6-1.05-3.8-3.55-2.4-1.9-1.45-2.2l7.2-1.75q6.65-1.6 9.85-3.05l15.25 4.15-16.1.8 16.1 6.9-13.05 3.05q-5.6-2.15-14-4.35m-15.1 13.95l-4.15-3.55q-3.35-2.75-2.45-3.05l3.6-1.05 4.3-1.35L472 184l-17.65 12.25-3.65-3q-4.7-3.55-9.7-6.4l6.75.3q3.95.25 3.55-.45m53.9-38.8q-1-1 2.45-.4l4.8.75q.7-.05-2.15-2.55-2.9-2.5-2.25-2.7l10.15-2.65 22.05 4.55-13.05 11.5-49-1q-.65-.75-.65-1.55l15.2-1.95 9.15-1.2q2.6-.45 3.4-.95 1.1-.65-.1-1.85M672.75 35.25l-5.25 11.5q-8.1-2.3-22-4.2-27.85-3.7-56.9-1.35l3.8-3.85q2.8-1.85-2.55-5.8L586.3 29q-1.45-1.2-.45-1.5l8.15-1.6q6-1.05 6.65-1.7 1.1-1.1-8.95-7.7 52.9-5.4 87.3 4.2l6.2 6.9-40.7 3.05 28.25 4.6m-15.2 19.95l-5.4 9.95-29.1-1.55 21.45 6.9-20.1-1.35q-25.8-.2-54.25 5.4-1.9-.9-6.25-1.75l-4.3-1q-.45-.35 10.65-4.65 11.65-4.55 12.3-5.2.45-.45-5.6-3.35-6.1-2.95-4.2-4.85 2.3-3.05 7.25-6.45 30.35-.4 57 3.7 13.3 2.05 20.55 4.2m-35.3 24.5l-6.1 15.35-14.6-2.3 10 5.4q-10.45-.55-26.35.25-31.75 1.6-58.9 8.3l-2.45-1.95q-1.5-1.2-.35-1.75.9-.45 17.15-3.35 15.7-2.8 15.65-3.25 0-.4-4.15-2.45-4.15-2-4.05-2.45.05-.3 9.95-3.9 11.3-4.05 15.65-6.6 24.15-1 48.55-1.3m-82.35 41.35q.7-.45-3.2-3.65-5.15-4.2-6.3-5.6 12.9-.3 28 .25l12.5.65-10.75 14.55-41.85 3.4q-2.3-.95-3.05-1.5-1.25-.95 1.7-1.55 3.7-.75 12.75-3.3 9.3-2.65 10.2-3.25"/><path fill="#0d131a" d="M676.6 18.45l1.95.45q2.05.55 2.5.85 8.05 8.35 7.1 9.05l-16.2 1.15-16.1 1.1 9.05 1.55q9.95 1.35 10.7 1.85.45.3-6.45 12.1-.65 1.1-2.85 1.15-2.65.1-9.45-1.15-20.15-3.6-34.95-4.05-30.95-.9-72.4 6.3 45.15-5.55 82.3-1.05 18.7 2.3 28.7 6 .35.45-3.25 6.5T653 66.6l-10.8-1-12.65-.95q-1.6.25 4.65 1.6 8.3 1.8 10.75 2.9 3.3 1.5 2.25 2.35-.95.75-3.05.4l-27.6-.95q-33.45 1.1-72 10.45l43.35-3.7q24.7-1.5 36.1.45 3.45.6-1.4 9.6l-5.55 8.9q-6.45-1.85-9.55-2.3 1.05.55 5.2 3.65l-1.25 1.55-37.75 1.6q-40.8 3.05-58.35 10.05l31.6-1.05 22.35.65q3.2.35 3.5 1.1.3.65-1.45 2.9l-10.45 13.8-29 1.95-40.15 3.05 30.8 5.8q20.8 3.95 20.75 4.7-.1.9-7.15 7.1-7.05 6.25-8.45 6.65l-70.6-2.45 11.8 2.2q14 3.05 24.95 7.4 2.45 1 2.65 1.7.2.8-3 1.1l-4.95.3-4.95.15q1.45.6 10.05 3.25 6 1.85 4.25 2.2l-9.9 2.7-7.7 2.2-.4-.2q-6.65-2.5-16-4.85-18.6-4.65-32.75-4.1L450.4 175q10.65 3.1 22.05 7.65 1.85.75 2 1.1.2.6-1.7 1.85-2.5 1.6-8.65 5.95l-7.5 5.5q-.85.85-1.85.6-.8-.15-3.1-1.45-6.55-4.8-12.95-8.7-12.4-7.55-20.15-7.7-3.95-.05-4.6-1-.65-.95 5.25-.8 9.5.25 23.05 8.5 6.7 4.1 12.2 7.95l7.3-4.65q6.5-4.5 7.1-5.35.5-.75-20.35-7.45-19.25-6.15-24.05-7.3l-4.7-1.15q-.95-.55 3.7-1.3 14.6-2.35 36.85 2.8 11.1 2.6 20.2 5.55l5-1.05 4.7-1.35q.8-.35-3.95-2.2-4.4-1.7-9.4-3.1-4.5-1.25-4.25-1.65l4.7-.55 10.15-.35q-2.7-1.8-11.35-4.1-10.2-2.65-25.2-5-4.45-.7-3.8-1.55.55-.75 4.2-1.25 8.45-1.15 42.35.4l33 1.1q1.7-.7 6-4.55 4.15-3.7 4.5-4.7.5-1.2-49.65-10.9-4.25-.7-4.65-1.15-.6-.8 5.95-1.85l38.65-3.25 31.95-2.65q.75-.6 4.7-6 4.05-5.45 4.1-5.95l-24.9-1.2q-27.2-.3-41 2.2l-2.1-.4q-1.5-.6 1.2-1.65Q544.35 96 605.65 96.55L600.9 94l-4.4-1.15q-2.75-1.25 5.3-1.5 3.45-.1 8.1.9l5.35 1.25 3.75-6.55q2.95-5.45 1.15-5.8-10.8-2.15-44.05-.05-30.75 1.95-43.3 4.6-4.2.9-4.35-.25-.15-1.15 3.6-2.45 32.05-10.95 70.65-14l22.65-1.05 7.9-.3q-.95-.65-4.25-1.5l-6.4-1.2q-14.65-1.9.5-2.75l19.45.95 9.2 1q.75-.55 2.25-3.75 1.5-3.25 1.2-3.9-.3-.65-6.85-2.35-8.7-2.25-20.75-3.7-36.9-4.35-88.2.8-3.95.4-4.1-.65-.15-1 3.8-2.15 41.55-12.2 88.55-8.9 23.5 1.65 39.05 5.55.65-.35 4-8.75.15-.6-11.25-2.3l-15.2-2-4.85-.45q-.4-.25 5.9-1.35l21.95-2.35 14.95-1.5q.1-.3-1.45-2.1-1.6-1.8-2.5-2.35-45.85-12.6-121.3.85-23.9 4.3-48.15 10.75-12.6 3.35-21.05 6.1-2.85.95-3.25.3-.4-.7 2.3-2.45l7.55-4.5q4.75-2.8 4.6-3.2-.15-.5-8.05 1.6l-10.15 2.95q-4.85 1.55-6.4 1.75-3.6.5 5.5-4.45 4.8-2.65 12.65-6.2 11.2-5.1 18.35-7.1.9-.25-.25-2.45-1.1-2.2-2.2-2.05-28 3.55-81.5 33.9-46.75 26.5-84.4 56.1-18.85 14.8-18.1 26.6.4 6.5 11.7 16.4 7.95 6.95 15.6 11.4 4 2.3 2.9 2.95-1 .65-4.3-.5-6.9-2.45-17.2-9.95-14.45-10.55-15-19.5-.45-6.55 6.5-15.25 6.25-7.85 17.15-15.9 46.35-34.1 76.95-52 50.05-29.3 89.75-37.2 2.55-.5 4.7 4.15 2.1 4.65 1.2 4.9-6.7 1.75-15.45 5.35l-10.1 4.35q-1.8.75 7.55-1.9 10.55-3.05 11.35-3.05 1.1-.05 1.35 1 .3.95-.3 1.6l-3.65 2.25-7.15 4.1q42.4-12.05 78.15-17.25 61.3-8.85 100.5 2.05"/><path fill="#0d131a" d="M418.4 64q13.5-7.7 20.85-10.8 10.75-4.5 9.05-2.7-1.3 1.35-7.95 5.15-24.15 13.5-45.9 28.7-41.15 28.85-41.7 43.6-.15 3.7 3 7.75 2.65 3.4 6.2 5.45 3.95 2.3 4.55 3.05.85 1.05-5.05-1.2-13.1-5.05-12.7-14.9.6-17.25 39.55-44.9 13.95-9.9 30.1-19.2m96.3 2.8l-1.65-.5q-1.1-.6 1.75-1.25l8.4-1.3 5.65-.9q.7-.35 4.75-10.2 4.1-9.85 3.7-10.2-.55-.5-24.1 4.1-24.9 4.85-34.45 7.9-9.8 3.15-8.15 1.75 1.6-1.4 7.55-3.4 16.45-5.45 40.6-9.95 21.65-4.05 22.65-3.1.7.7-4.6 12.25-5.25 11.55-6.7 12.4-1.15.7-4.65 1.1l-6.3.65 4.45 1.2 1.1.6q.7.65-1.15 1.15l-5.65 1.3-6.6 1.45 14.1-2.05 9.6-1.15q1.25.1-2.65 6.7-3.8 6.55-5.35 7.45l-13.15 3.65-15.9 3.95 6.95 1.35 6.3 1.15q4 .85-1.3 2.6l-10.35 1.8L483 99.8l14.7-.05 8.65.4q.7.55-3 8.55-3.6 7.9-4.7 8.7l-12 .65H470.2l11.8 3.55 8.5 2.6q1.7.75-9.6 13.1-.6.75-14.6 1.35l-19 .75 7.7 2.3q4.45 1.3 4.85 2.1.5.9-4.75 5.7-5.1 4.65-6.15 4.9l-10.7-1.35-14-2.15 7.9 5q4.9 3.15 4.7 3.65-.4.95-5.25 4.15-5.25 3.45-7 2.85-5.3-1.75-12.7-3.05-12.1-2.1-20.4-.8-4.05.65-5.4 0-1.3-.7 5.25-1.75 6.1-1 19.25 1.05 8.3 1.3 13.7 2.65 1.55.4 5.65-2.2 4.05-2.5 3.55-3.05l-5.5-4-7.9-5.15q-2.3-1.35-1.05-1.65h1.7l27.2 3.8 8.55-7.9-13.95-4.9-2.2-.55q-1.4-.6 2.45-1.15l37.15-2.3 6.75-10.15-21.9-7.3-3.05-.85q-2-.9 3.3-.9 8.5.05 32.4-.75l5.45-13.6-29.4-.75-3.55-.15q-2.4-.4 3.45-1.6 9.3-1.9 33.05-5.4l-12.4-2.85-2.3-.15q-1.55-.4 2.25-1.55l31.85-8.35 5.85-10.35-33.65 4.35q-5.05.6-1.05-.95 4.95-1.9 22.65-6.15l-4.95-1.35"/></svg>