<svg xmlns="http://www.w3.org/2000/svg" width="209" height="255" viewBox="-5.35 -3.8 209.05 254.7"><path fill="#efe908" d="M197.15 48.6q.6 2.3-.35 4.75-.9 2.5-2.8 3.8-1.95 1.25-3.7.55-1.75-.75-2.35-3.05-.6-2.25.35-4.75.9-2.5 2.8-3.8 1.9-1.25 3.7-.5 1.75.7 2.35 3"/><path fill="#cec90c" d="M194.8 45.6q1.75.7 2.35 3 .6 2.3-.35 4.75-.9 2.5-2.8 3.8-1.95 1.25-3.7.55v-.05q3.65-2.75 4.3-7.8-.05-4.35.2-4.25"/><path fill="#efe908" d="M195.95 64.35q-.5 3.2-2.5 5.15-1.95 1.9-4.2 1.5-2.25-.4-3.45-2.95-1.2-2.55-.65-5.7.55-3.2 2.5-5.15 1.95-1.95 4.2-1.5 2.25.4 3.45 2.95 1.2 2.55.65 5.7"/><path fill="#cec90c" d="M192.2 55.75q2.1.6 3.2 3.1 1.1 2.45.55 5.5-.5 3.2-2.5 5.15-1.95 1.9-4.2 1.5-1.15-.25-2.05-1.05 3.5-2.1 5.05-5.65 1.85-4.2-.05-8.55"/><path fill="#efe908" d="M196.3 75.2q-.3 3.5-2.45 5.8-2.1 2.3-4.85 2.1-2.7-.2-4.4-2.85-1.75-2.6-1.45-6.05.3-3.5 2.45-5.8 2.1-2.35 4.85-2.15 2.7.25 4.45 2.85 1.7 2.6 1.4 6.1"/><path fill="#cec90c" d="M191.15 66.4q2.45.55 3.95 3.05 1.45 2.5 1.2 5.75-.3 3.5-2.45 5.8-2.1 2.3-4.85 2.1-1.2-.05-2.2-.7 3.4-1.25 5-5.85 1.8-5.1-.65-10.15"/><path fill="#efe908" d="M195.95 86.7q-.2 3.8-2.55 6.35-2.35 2.6-5.4 2.45-3.05-.1-5.05-2.85t-1.8-6.55q.25-3.8 2.55-6.35 2.35-2.6 5.4-2.5 3.05.15 5.05 2.9 2.05 2.8 1.8 6.55"/><path fill="#cec90c" d="M190.8 77.6q2.45.85 3.85 3.35 1.5 2.55 1.3 5.75-.2 3.8-2.55 6.35-2.35 2.6-5.4 2.45l-1.9-.35q3.8-1.65 5.35-6.95 1.55-5.5-.65-10.6"/><path fill="#efe908" d="M195.2 94.35q2.4 3.05 2.35 7.45-.05 4.4-2.5 7.55-2.4 3.1-5.8 3.15-3.4.05-5.8-3.05-2.4-3.1-2.35-7.5.1-4.4 2.5-7.5 2.45-3.15 5.85-3.15 3.4-.05 5.75 3.05"/><path fill="#cec90c" d="M191.1 91.5q2.8.7 4.65 3.6 1.85 2.9 1.8 6.7-.05 4.4-2.5 7.55-2.4 3.1-5.8 3.15-2.2 0-4.2-1.45 5.3-1.7 7.15-8.3 1.7-6.35-1.1-11.25"/><path fill="#796bae" d="M200.2 117.75q2.1 21.2-.85 36.35-2.35 12.25-9.75 27.1l-25.1-10.85-1.3-14.3q5.5-5.2 10.95-20.6 2.95-8.35 6.5-21.95.95-3.55 3.9-5.65 2.85-2.05 6.25-1.8 3.6.25 6.05 3 2.8 3.1 3.35 8.7"/><path fill="#695c97" d="M192.85 135.55q2-15.25 2.1-28.1 4.55 2.9 5.25 10.3 2.1 21.2-.85 36.35-2.35 12.25-9.75 27.1l-25.1-10.85-1.25-13.75q10.6-4.7 18.85-3.75l4.5.75q1.75.25 2.5-.7 1.8-2.3 3.75-17.35"/><path fill="#cec90c" d="M196 108.25q3.65 3.7 4.2 9.5 2.1 21.2-.85 36.35-2.35 12.25-9.75 27.1l-7.1-3.1q2.5.15 5.75-7.1 3.25-7.1 5.75-17.95 6.1-26.7 2-44.8"/><path fill="#796bae" d="M164.9 164.15q15-.65 21.9 11.45 6.85 12.1 2.8 31.95-6.95 33.9-53.2 38.75-6.45.65-23.15.3-16.55-.35-24.55.55-20.65 2.3-40.05-2.2Q18.3 237.9 7 215.65q-11.3-22.25.5-39.15 4.15-6 10.7-10.4 5.15-3.45 9.25-4.5l137.45 2.55"/><path fill="#695c97" d="M164.9 164.15q15-.65 21.9 11.45 6.85 12.1 2.8 31.95-6.95 33.9-53.2 38.75-6.45.65-23.15.3-16.55-.35-24.55.55-20.65 2.3-40.05-2.2Q18.3 237.9 7 215.65-2.45 197 4.4 181.9.9 202 14 215.3q12.95 13.15 38 15.7 23.6 2.4 49.15.25 23.4-1.95 35.3-6.3 10.3-3.75 8.7-13.55-.65-4-3.35-7.5t-6.35-4.95q1.8-3.1 4.95-18.4 3.1-15.05 2.55-16.8l21.95.4"/><path fill="#cec90c" d="M129.65 241.2q15.55.05 21.5-.5 14.15-1.35 21.3-6.35-9.15 6.65-19.65 9.4-5.3 1.4-16.4 2.55-6.45.65-23.15.3-16.55-.35-24.55.55l-17.35.6q-12.95-.4-24.1-3.15 10.6 1.25 21.7.55l20.3-2.35q22.6-3.05 40.4-1.6"/><path fill="#796bae" d="M10.05 183.65q6.85-6.9 17-7.7l4 8.45q5.4 9.25 12.5 13.2-7.5.2-13.75 5.5-5.45 4.6-7.35 10.45-2 6.25-.3 13.8 1.05 4.45 2.95 8.1l-2.3-1.75-2.85-1.75q-4.25-2.75-7.5-7.1-4.7-6.3-8.85-17.3-2.3-15.1 6.45-23.9"/><path fill="#695c97" d="M21.4 221.65q.15 4.3 1.65 8.8.9 2.85 2.05 5l-2.3-1.75-2.85-1.75q-4.25-2.75-7.5-7.1-4.7-6.3-8.85-17.3-.65-4.45.4-13.5 1.4 16.85 17.4 27.6m157.65-30.95q11.4 10.9 6.25 29.2-1.8 4.6-6.9 9.5-10.25 9.75-26.9 11.1 3.6-4.05 5.7-9.15 2.45-5.85 2-11.15-.75-9.35-7.5-16.55-6.7-7.2-13.45-6.05 12.2-5.15 17.5-10.15 2.7-2.5 2.9-3.95 4.4-.85 9.95.95 5.95 1.95 10.45 6.25"/><path fill="#796bae" d="M88.35 6.15q15.8 7.3 21.65 19.7 9.2 4.05 16.1 13.95 6.55 9.4 9.8 22.3 3.2 12.85 2.35 26.3-.9 14.1-6.15 25.95-2.55 6.15-8.55 14.1l-5.45 6.75q13.25-1.05 25.75 3.25 18.05 6.2 19.75 21.45 1.8 15.8-6.1 24.85-6.25 7.1-24.95 15.6-15.2 6.85-41.9 8.15-28.7 1.4-41.2-6.1-16.15-9.8-20.8-24-4.7-14.55 3.6-31.2 3.45-6.85 10.8-13.5l13.3-10.6Q64 117 67.2 112.2q4.35-6.6 3.65-14.45-5.45 1.75-12.2 1.3-13.5-.95-20.15-11.9-1.8-2.95 1.9-9.65l4.05-6.1q-2.3.7-6 .9-7.4.4-14.3-2-12.3-4.25-10.4-16.55Q15.2 44 22.35 36.9q-.1-7.05 6.75-16.35Q37.8 8.75 52.2 3.9q18.1-6.15 36.15 2.25"/><path fill="#695c97" d="M94.6 89.1q8.1-5.5 12.45-16.1-.95 25.35-19.3 36.7-6.4 3.95-14.2 5.7-5.7 1.3-9.8 1.05 3.6-3.85 5.35-7.75 2-4.45 1.8-9.55Q87.8 93.7 94.6 89.1"/><path fill="#695c97" d="M163.6 159.9q.75 6.05.05 10.95-1.35 10.15-9.35 17.05-6.3 5.45-21.75 12.45-9.8 4.45-24.45 7-15.5 2.7-29.7 2.1 15.85-1.9 24.1-14.35 2.95-4.45 3.6-8.4.65-3.75-1.1-3.75-7.6.3-12.15.1-8.1-.3-14.85-2.75-9.45-3.4-10.45-11.35-.9-7.05 4.7-13.6 2.05-2.35 7.95-5.2l12.2-5.95q17.95-9.7 29.5-27.45 5.55-8.5 7.2-20.2 1.65-11.2-.65-22.4-2.3-11.35-8-19.45-6.1-8.65-14.75-11.45-6.2-2-7-5-.25-5.4-1.7-10.95-3.15-12.2-15-18.95Q69.9 1.5 53.85 3.4 71.6-1.9 89 6.45q15.35 7.35 21 19.4 9.2 4.05 16.1 13.95 6.55 9.4 9.8 22.3 3.2 12.85 2.35 26.3-.9 14.1-6.15 25.95-2.55 6.15-8.55 14.1l-5.45 6.75q13.25-1.05 25.75 3.25 18.05 6.2 19.75 21.45"/><path fill="#922f00" d="M85.3 72.25q-.75 4.7-6.35 9-5.25 4.15-12.9 6.5-7.85 2.4-15.1 2-8-.45-12.9-4.3-1.85-2.2 2.25-8.45l4.5-5.8q14.5-1.95 31.55-16 2.95-2.4 6.45 4.6 3.45 6.85 2.5 12.45"/><path fill="#6a1a00" d="M82.8 59.8q3.45 6.85 2.5 12.45-.9 5.5-8.2 10.35l-9.05-2.1q-4.95-1.1-8.5-1.05-9.35 0-18.25 7.95-1.8-.85-3.25-1.95-1.85-2.2 2.25-8.45l4.5-5.8q14.5-1.95 31.55-16 2.95-2.4 6.45 4.6"/><path fill="#ed8599" d="M84.45 63.7l.9 4.2q.45 5-1.85 8.85-2.9 4.85-13.35 9.55-10.8 4.8-15.9 2.95-3.75-12.5 7.7-20.8Q66.8 64.9 72.9 63.6q6.2-1.3 11.55.1"/><path fill="#ce7486" d="M84.45 63.7l.9 4.2q.45 5-1.85 8.85-1.55 2.65-6.25 5.65-.9-6.45-7.3-9.5-5.5-2.65-11.35-1.55 4.75-5 12.1-7.2Q78 62 84.45 63.7"/><path fill="#efe908" d="M130 95.05q2.75-2.5 5.6-6.85 2.6-4.1 3.95-7.65.15 20.25-9.6 38.2-4.85 9-9.75 13.9-21.4 11.7-39.75 3.45-7.2-3.25-11.9-8.85-4.4-5.2-4.9-10.1 2.1-1.45 4.1-4.4 3.95-5.95 3.5-13.65 3.95-1.7 5.05-1.45 11.4 10.3 27.9 8.7 15.05-1.5 25.8-11.3"/><path fill="#cec90c" d="M77.05 115q-6.5 1.85-11.75.7 2.5-2.5 4.05-5.9 2.25-4.9 1.9-10.7 3.95-1.7 5.05-1.45 4.1 3.7 8.05 5.7 4.1 2.05 8.9 2.7-8 6.65-16.2 8.95m52.35-19.85q3.2-2.4 6.1-6.8l4-7.05q.15 20.3-9.55 37.85-4.85 8.8-9.75 13.5-6.25 3.45-10.65 4.95-4.9 1.75-9.7 1.95 12.95-9.75 17.95-16.3 8.05-10.5 11.6-28.1"/><path fill="#695c97" d="M122.1 160.15q1.8-1.75 2.85-4.8 8.9-2.15 16.35.8 6.7 2.65 10.75 8.8 3.85 5.8 3.9 12.6.05 7.05-4.1 12.3-11.45 6.5-17.45 8.95l-8.25 3.55q-4.65 1.9-9.75 3.1.8-.3 2.55-3.95 2.25-4.7 2.9-9.8 1.95-15.45-11.9-25.3 8.55-2.8 12.15-6.25"/><path fill="#efe908" d="M82.25 41.2q-3.9 1.3-7.9.95-3.75-.35-4.6-1.7-2.35-3.85 1.6-11.2 4.2-7.9 11-8.5 4.55-.4 6.9 1.4.75.55 3 3.65.8 11.85-10 15.4"/><path fill="#cec90c" d="M92.25 25.8q.8 11.85-10 15.4-3.9 1.3-7.9.95-3.75-.35-4.6-1.7l2.7-.3q3.5-.4 6.5-1.5 9.9-3.7 12.3-14.3l1 1.45"/><path fill="#0d131a" d="M194.95 44.5q1.95.8 2.65 3.7.7 2.9-.3 5.65-1.05 2.95-2.8 3.7l-.65-1.35q1.4-1.15 2.1-3.1.5-1.35.5-2.75t-.55-2.5q-.55-1.1-1.5-1.5l-2.2.1q-2.1.95-3.1 3.7-.6 1.65-.45 3.3.15 1.55.9 2.55l-1.35.7q-.95-1.3-1.15-3.2-.2-1.95.5-3.85.55-1.55 1.8-2.95 1.2-1.3 2.45-1.9 1.8-.9 3.15-.3"/><path fill="#0d131a" d="M191.7 56.4q-1.35-.25-2.75.7-2.4 1.65-3.05 5.35-.5 2.8.5 5.15-.7.8-.95 1.55-1.9-3-1.25-6.85.35-2 1.45-3.8 1.05-1.75 2.45-2.7 2.4-1.65 3.95-1.35 2.9.5 4.3 3.6 1.35 3 .65 7-.4 2.15-1.8 3.85l-1.25-1.25q.95-1.6 1.25-3.4l.15-1.75q0-2.35-1-4.05-1-1.7-2.65-2.05"/><path fill="#0d131a" d="M194.95 67.6q1.2 1.4 1.85 3.6.7 2.25.5 4.35-.2 2.8-2.45 5.4-.75-.75-.95-1.25 1.45-2 1.65-4.6l.05-.85q0-3.3-1.85-5.4-1.45-1.7-3.35-1.85-2.45-.2-4.35 1.95-1.9 2.1-2.15 5.3-.2 2.3.65 4.35l-1.1.85q-1.5-2.65-1.3-5.4.3-3.8 2.85-6.5 2.5-2.7 5.55-2.5 2.4.2 4.4 2.55"/><path fill="#0d131a" d="M180.85 90.5q-.9-2.2-.8-4.3.2-4.4 3-7.3 2.65-2.8 6.15-2.7 2.95.15 5.25 2.7 1.35 1.5 2.15 3.7.8 2.25.65 4.45-.1 1.85-.9 3.65-.8 1.75-1.85 2.55l-1.15-1.35q1.65-2.15 1.85-5.25.25-4-2.15-6.65-1.6-1.85-4-2-2.75-.1-4.85 2.3-2.1 2.35-2.3 5.85-.3 4 2.1 6.65l-.4.4q-.45.5-.55.85-1.4-1.55-2.2-3.55"/><path fill="#0d131a" d="M195.15 92.35q1.65 1.65 2.7 4.3 1.05 2.7 1 5.3-.1 4.85-2.2 6.95l-1.45-1.15q1.55-2.65 1.6-5.95 0-4.85-2.9-7.85-2.05-1.95-4.45-1.9-3.1 0-5.3 2.9-2.2 2.9-2.3 7 0 3.5 1.7 6.4l-1 1.25q-2.55-3.95-2.75-7.15-.2-4.8 2.75-8.7 3.05-4 7.2-3.95 3 .05 5.4 2.55"/><path fill="#0d131a" d="M180.05 113.3q2.5-8.6 10.9-8.1 3.65.15 6.3 3.05 3.05 3.35 3.8 9.45 2.65 21.15-.55 38.4-2.95 15.65-10.55 27.25l-1.15-2.55q7.4-14.75 9.8-27.25 2.8-14.9.75-35.7-.5-4.85-2.75-7.7-2.25-2.85-5.8-3.25-3.75-.4-6.5 2-2.35 2.1-2.85 4.85-9.5 36.75-18.1 44.95l-.3-4.7q5.05-5.95 10.8-21.45 3.15-8.65 6.2-19.25"/><path fill="#0d131a" d="M195.9 108.1l.7.1q2.05 6.95 1.1 23.25-1.45 24.05-10.95 44.45l-.6-1.6q9.3-19.85 10.75-43.5.95-16.2-1-22.7"/><path fill="#0d131a" d="M189.6 187.45q-1.3-8.75-6.1-14.4-3.4-3.95-8.05-6-4.85-2.1-10.5-1.9l-.1-2q6.35-.25 11.9 1.8 5.7 2.15 9.25 6.3 5.05 5.95 6.3 15.7 1.25 9.5-1.2 21.35-3.65 17.6-18.9 27.8-13.6 9.15-34.65 11.3l-11.1.45-12.2-.2-27.05 1.05q-19.2 2.2-37.8-1.8-32-6.9-44-30.6-10.75-21.15-.65-38.75 4-6.95 10.5-11.65 6.05-4.35 11.95-5.25l-.1 2.1q-4.95 1.25-10.65 5.7Q9 174.2 5.35 182.2q-6.7 14.7 2.55 33 11.6 22.9 43.3 29.4 18.2 3.7 37.4 1.55l12.6-.65 13.1.15 11.6.15 10.4-.5q21.8-2.55 35.15-12 13.85-9.75 17.15-25.95 2.3-11.2 1-19.9"/><path fill="#0d131a" d="M129.85 240.35q14.85.45 22-.35 11.5-1.3 21.2-6.35l-1.1 1.15q-9.85 5.15-21.55 6.45-7.1.8-22.2.35-14.25-.5-23.3.1-9.8.6-22.65 2.5l-15.55 1.75-15.5-.85-5.95-1.6 18.4 1.15 18.45-1.45 11.05-1.55 12.95-1.3q8.2-.55 23.75 0m-120.5-57.7q6.95-6.9 18.15-7.2l.4.85q-11 .65-18.05 8.45-8.15 8.95-5.6 22.75l-1.1-1.05q-2.3-15.35 6.2-23.8m15.45 24.2q3.55-5 9.35-7.6 5.05-2.2 9.55-1.8l.5.9q-4.2-.35-8.75 1.75-5.3 2.4-8.6 7.15-3.65 5.1-4.3 11.4-.9 8.55 4.2 17.6l-1.2-.35q-5.75-9.2-5.05-17.6.5-6.05 4.3-11.45"/><path fill="#0d131a" d="M138.5 197.6l1.15-.85q5.6.1 10.55 4.3 4.85 4.15 7.65 11 3.15 7.7 1.65 15.1-1.6 7.65-7.85 13.4l-1.55.15q5.9-6.05 7.7-13.45 1.8-7.55-1.15-14.7-2.6-6.3-7.8-10.6-5.2-4.25-10.35-4.35m31.05-13.55q6.25 2.3 11 7.45 10.5 11.4 4.95 27.55l-1.3 1.55q2.65-9.4.85-17.45-1.5-6.45-5.45-10.75-4.55-4.9-11-7.25-5.85-2.1-10.4-1.2l.9-1.05q4.8-.9 10.45 1.15m-61.6-17.4l1.4-.9q10 4.05 12.85 17.05 1.45 6.5.2 12.1-1.25 5.65-5.15 9.85l-1.95.45q3.65-3.95 5.1-9.9 1.5-6.1.15-12.1-1.3-5.9-4.65-10.3-3.35-4.35-7.95-6.25m17.05-12.2q7.25-2 14.1-.1 7 1.95 11.7 7.45 4.75 5.5 5.5 12.55.8 7.05-2.55 14.4l-1.55-.7q3.1-6.9 2.4-13.45-.7-6.6-5.1-11.7-4.4-5.15-11.25-7.1-6.8-1.95-13.5-.1l.25-1.25M84.1 63.3l.15 1.25q-6.1-1.6-13.3.55-7.2 2.2-11.75 7.05-3.4 3.6-4.55 8.65-1.1 4.9.4 9.5l-1.5-.2q-1.65-5.05-.45-10.2 1.15-5.2 4.9-9.15 4.95-5.2 12.25-7.25 7.1-2 13.85-.2"/><path fill="#0d131a" d="M84.55 72.1q.75-4.05-1.35-9.55-2-5.3-4.5-6.8l-1.85.05q-7.6 6.2-13.5 9.55-8.45 4.75-18.2 6.8-3.1 3.85-4.55 6.35-2.3 4.05-1.7 6.65 3.85 3.35 12.6 3.65 8.15.25 15.6-2.2 7.55-2.45 12.1-6.2 4.55-3.8 5.35-8.3m26.9-44.3q1.15 4 .65 4.3-.55.35-3-5.85-1.95-4.9-7.15-9.9-5.5-5.3-12.85-8.8-18-8.7-36.55-2.7-14.6 4.7-23.05 16.75-6.5 9.2-6.15 15.3.35 7.05 10 8.85 9 1.7 21.5-2.25 11.5-3.65 14.05-7.6l.3 1q-2.85 4.45-14.8 8.25-12.75 4.15-21.95 2.4-4.65-.9-7.15-2.75-2.85-2.15-3.6-6-3.35 4.05-5.3 9.4-2.25 6.3-1.1 11.2.8 3.5 3.25 6 2.55 2.6 6.65 3.75 14.65 4.1 30.7-2.4 10.25-4.15 20-12.1 1.9-1.55 3.7-.5 3 1.75 5.1 7.8 2.15 6.05 1.35 10.4-.95 5.45-6.95 10.05-5.05 3.9-12.15 6.2-6.8 2.25-13.55 2.35-7.95.15-13.05-2.9 3.55 6.45 12.7 8.9 8.45 2.25 18 .35 11.15-2.25 19.9-7.2Q99.6 85.15 103 79.15q2.35-4.1 2.35-8.5 0-2.25-.8-5.7-.45-1.85.05-1.95.45-.05 1.35 1.45 1.3 2.15 1.5 5.9.25 5.15-2.3 9.65Q97.4 93.7 72.1 99.5q-.1 10.05-5.9 16.65-1.95 2.15-13.4 10.95-7.75 6-11 9.15-5.8 5.55-8.65 11.4-7.45 15.15-3.05 29.6 4.45 14.55 19.35 23.45 12.8 7.6 40.7 6.35 26.1-1.2 41.9-8.35 18.9-8.55 24.7-14.95 7.6-8.4 5.85-23.75-1.65-14.5-18.85-20.55-12.2-4.3-25.6-3.25-5.8 5.55-13.55 10.35-4.55 2.8-12.95 7.05-6.45 3.25-8.9 4.85-3.85 2.5-4.85 4.85 1.95 3.8 9.95 4.45 9.55.85 20.75-2.5 11.2-3.4 14.05-8 .65-1 .65-2.2 0-1.1-.55-1.85-.65-.9-.4-1.25t1.7.75q3 2.35.95 5.55-3.3 5.3-15.75 8.9-11.9 3.45-21.6 2.6-4.85-.4-7.65-1.7-2.9-1.35-4.05-3.85-.75-1.65-.75-3.65 0-1.95.75-2.35.7-.4.8.7l.35 2.45q1.1-2 4.65-4.35 2.2-1.45 9-5.2 14.6-8 20.75-12.85 13.3-10.5 19.7-25 5.05-11.45 6.05-24.95.95-13.5-2.35-26.65-3.05-12.3-10.7-22.9-6.95-9.65-12.75-11.65M89.5 4.85q7.75 3.6 13.5 9.2 5.55 5.35 7.75 11.05 14.35 7.15 22.5 25.2 7.5 16.65 6.8 35.15-.75 19.25-8.55 33.65-4 7.4-11.3 15 14.55-.5 26.55 4.25 16.7 6.65 18.4 21.45 1.9 16.6-6.8 26.15-6.35 7-25.05 15.4-14 6.4-39.25 8.3-29.85 2.25-45.45-6.15-12.6-6.75-19-20.3-8-16.85.15-34.9 2.4-5.35 9.05-12.15 5.55-5.6 12.3-10.65 11.25-8.35 14.45-12.25 4.4-5.4 4.4-13.3-10.9 2.15-20.7-2.1-9.95-4.25-12.4-12.45-.6-1.9.7-5.55 1.45-4.25 4.5-7.15-24.55 2-28.6-11.4-1.65-5.5.7-12.35 2.25-6.45 7.2-12 .2-8.35 6.45-17.3Q36.05 7.8 51.15 2.75q19.7-6.55 38.35 2.1"/><path fill="#0d131a" d="M127.9 95.45q8.4-6.85 10.4-14.45l.5 1.1q-2.2 8.25-9.6 14.75-7.65 6.7-18.45 9.35-8.25 2.05-16.4.85-11.5-1.65-18.9-9.7l1.2-.3q5.7 6.2 16.5 8.05 8.8 1.5 15.9-.25 10.45-2.6 18.85-9.4M63.4 117.4l.55-.9q.45 4.15 4.35 9.2 4.35 5.65 10.75 9 7.15 3.75 15.7 4.05 12.25.4 25.15-6.65l-.85 1.45q-13.25 7.25-25.15 6.65-7.85-.4-15.45-4.35-6.15-3.2-10.35-8.4-4.2-5.15-4.7-10.05M20.1 63q-.2-.5.05-1.25.3-.75.65-.5l.8.9.5 1.25-.05 1.1q-.25.45-.55 0l-.75-.75-.65-.75M35 65.4l1.25-1.35q1-.85 1.45-.8.5.05.8.65.3.6-.05.85l-1.35.8-1.6.6-.65-.05q-.15-.25.15-.7m55.05-31.85q2.75-4.9 1.3-8.05-2.1-4.7-8.95-4.1-3.15.25-6 2.55-2.8 2.25-4.7 6-2 3.9-2 7.4 0 1.8.6 2.75.7 1.15 3.95 1.5 3.8.4 7.6-.95 5.3-1.85 8.2-7.1m-.6-11.85q1.9 1.25 2.7 2.85l.5 1.15.25 1.55Q92.55 34.1 89 37.9q-2.45 2.6-6.75 4-3.95 1.25-8 .9t-5.05-2.05q-1.1-1.75-.7-4.9.35-3.15 2.05-6.5 2-4.05 5.15-6.5 3.1-2.45 6.6-2.75 4.2-.35 7.15 1.6"/><path fill="#0d131a" d="M85.25 27.8q2.3 5.8.2 11.4l-.75.7q1.45-7-1.8-12.35-2.2-3.7-5.35-5.3L80 21.2q3.25 1.6 5.25 6.6"/></svg>