<svg xmlns="http://www.w3.org/2000/svg" width="243" height="312" viewBox="-1.2 -0.2 243.1 312.2"><path fill="#0d131a" d="M42.5 170.55q4.05-6.2 7.05-5.65 4.55.85 2.2 10.3-2.8 11.3-14.95 27-9.2 11.8-10.1 20.45-.9 8.4 6.45 9.2 3.5.4 16.45-3.25l29.4-8.35q46.35-12.55 79.15-12.65 37.35-.15 55.1 19.15 6.6 7.15 9.75 16.35 2.45 7.2 2.35 13.8-.25 17.9-8.7 25.7-10.85 10.05-35.35 3.65-3.4-.85-5.2-5.6-.7-1.9-2.45-9.75-1.4-6.45-3.2-9.3-2.65-4.1-7.6-4.1-12.15 0-43.8 7.85-33.6 8.35-42.5 9-33.2 2.5-51.9-5.1-18.6-7.6-23.2-25.45-2.65-10.4-.25-18.95 1.95-7.1 7.95-14.25 2.85-3.45 12.05-12.4 8.15-7.9 12.15-13.4l9.15-14.25"/><path fill="#827aa0" d="M43.6 172.55q3.5-5.85 5.4-5.4 3.1.65 0 9.7-3.75 11.05-15.5 25.7-7.3 9.1-8.9 18.2-1.95 10.75 6.95 13.15 2.9.75 16.3-2.7l30.65-8.35q48.7-12.9 78.4-12.9 35.9 0 52.85 17.3 11.9 12.15 12.9 30.25-6.2 4.25-10.1 10.85-2.15 3.7-5.15 10.1-2.85 4.8-7.3 6.15-5.6 1.7-16.55-.8-3.25-.75-5.15-5.6-.8-2-2.8-10.2-1.65-6.75-3.5-9.75-2.75-4.35-7.45-4.35-11.75 0-45.95 8.25-36.8 8.85-44.8 9.6-28.7 2.65-47-4.6Q8.1 259.65 3.8 243q-4.45-17.4 7.85-32 2.8-3.35 11.8-12.15 7.9-7.6 11.7-12.85l8.45-13.45"/><path fill="#675f80" d="M134.4 240.55q3.65-3.65 11.25-4.2 15.5-1.05 19 3.55 3.55 4.65-7.4 12.2-21.95 4.8-20.8 4.25 5.85-2.85 1.55-5.8-8-5.55-3.6-10M96.55 253.8l3.3 9.35q-11.2 6.9-25.15 8.7l-18.45.55q-17.6-.2-29.9-5.3-11.95-4.95-18.25-14.3 5.25 5.95 16.25 9.5 10.55 3.4 23.7 3.75 13.45.35 25.85-2.6 13.4-3.2 22.65-9.65"/><path fill="#0d131a" d="M49.05 247.3q1.15-7.4 5.5-13.2 4.55-6.1 11.3-8.55l1.3-.4q-15.95 8.9-16.8 25.15-.35 6.85 2.4 13.1 2.65 6.2 7.5 9.95l-.85.4q-6.35-4.7-9.05-12.05-2.5-6.85-1.3-14.4M34.7 233.55l1.45-.15q-8.95 5.3-10.75 14.85-1.25 6.45.05 12.1 1.25 5.5 4.5 8.6l-1.3-.3q-3.1-2.8-4.5-8.25-1.6-6-.2-12.55 1.15-5.35 4.35-9.25 2.75-3.3 6.4-5.05m-9.4-7.2l-.15.8q-10.35-.7-16.1 5.8-5 5.7-4.45 13.8l-.8-1.65q-.25-8.55 4.8-13.7 5.75-5.95 16.7-5.05M11.35 210.4l.55-.6q4.9-1.6 8.95.2 4.05 1.75 5.4 6.15l-.5.75q-1.15-4.5-5.95-6.15-4-1.4-8.45-.35m15.25-15.5l.45-.65q8.05-1.8 9.25 5.3l-.45.5q-.9-3.65-3.75-4.8l-5.5-.35m9.35-11.05l.35-.55q3.2-1.2 5.5 0 2.4 1.2 2.7 4.4l-.45.45q-.6-2.95-3-4l-5.1-.3m5.2-8.2l.2-.45q2.8-1.75 5.3-.65 2.35 1.05 2.7 3.55l-.25.4q-1.25-2.85-3.55-3.45-2-.55-4.4.6m117.6 76.6l-.9-.75q-1.2-18.9 9.5-29.55 9.85-9.75 23.55-7.7l1.65.7q-16.2-1.2-25.6 10.1-8.65 10.55-8.2 27.2"/><path fill="#0d131a" d="M158.5 252.65l-.65-1.15q7.8-9.45 19.15-13.3 10.15-3.45 20.9-1.75 10.2 1.55 17.4 7.05 7.4 5.6 8.55 13.1l1 3.9q-2.9-10.3-11.35-16.35-7.9-5.6-18.85-6.35-10.5-.75-20.25 3.15-10.15 4.05-15.9 11.7"/><path fill="#0d131a" d="M210.05 52.65q14.9 11.15 23.15 25.5 8.2 14.35 8.4 29.35.3 24.2-19.2 43.5-15.65 15.5-38.65 23.65-13.25 4.7-21.6 17.5-7.25 11.1-9.4 25.75-1.95 13.5 1.1 24 3.1 10.75 9.85 12.25 10.65-5.8 37.1-2.95 13.25 1.4 24.35 3.95 2.35 27.6-20.75 42.9-21.15 13.95-56.8 13.8-21.1-.1-37.9-7.3-16.3-7-24.95-19-7.2-10-8.5-21.35-1.05-9.25 1.8-21.05 1.3-5.35 6.5-21 4.4-13.25 5.7-21.3 1.15-7.2-2.35-14.55-4.6-9.5-16.3-16.65-27.9-17.05-41.1-31.75-13.6-15.2-13.6-30.05 0-37.9 35.25-60.2 15.4-9.75 35.5-14.9 19.25-4.95 39.8-4.95 24.9 0 46.7 6.8 20.4 6.4 35.9 18.05"/><path fill="#827aa0" d="M205.7 52.6q15.4 10.75 23.8 24.9 8.75 14.7 8.75 31.25 0 21.3-16.6 38.5-14.65 15.15-40.6 25.7-13.05 5.35-21.35 18-7.3 11.2-9.45 25.55-2.05 13.4 1.05 24.3 3.15 11.1 10.2 14.2l-.6-2.2.1.1q10.2-7.05 36.85-3.5 13.3 1.8 24.6 5 2.3 24.95-17.8 39.65-20.55 14.95-58.45 14.7-18.9-.1-34.4-6.65-16.5-6.9-25.85-19.85-11.75-16.45-3.75-44.8l7.05-21.3q3.9-11.55 3.9-17.1 0-8.25-4-15.65-4.8-8.8-14.55-14.95-25.95-16.3-38.1-28.5Q20.4 123.8 20 107.8q-.4-16.6 7.65-31.15 7.75-14 22.45-24.55Q64.75 41.65 84.3 36q20.05-5.8 42.8-5.8 22.7 0 43.25 5.95 20.05 5.8 35.35 16.45"/><path fill="#675f80" d="M99.1 295.3q-11.75-8.15-16.4-18.6 21.25 22.4 54.55 27.9 11.2 1.85 23.95 1.75l15.75-.65q-10.75 2.65-24.25 3.05-14.3.45-25.8-1.9-15.75-3.2-27.8-11.55"/><path fill="#0d131a" d="M158.05 252.8l1.2-1.1q.45 1.25 11.5 5.85 11.8 6.05 15.65 14.35 3.65 7.85 1.9 18.45-1.7 10.65-7.55 15.5l-1.3-.2q5.5-4.65 7.05-15.45 1.45-10.25-1.6-16.95-4.1-8.9-14.75-14.3l-7.5-3.4q-3.65-1.6-4.6-2.75"/><path fill="#0d131a" d="M156.7 250.65l1.85 1q.8 7.8-1.55 16.7-2.8 10.6-9 17.1-8.1 8.45-22.25 12.6-11.3 3.35-19.95 2.65l-1.25-.95q12.05-.6 20.85-3.35 12.05-3.75 21-12.15 6.05-5.65 9.15-16.85 2.8-10.3 1.15-16.75"/><path fill="#0d131a" d="M94.05 241.9q11.8-3.35 20.9-3.15 12.3.3 24.55 3.8 11.75 3.3 17.05 7.65l1.45 1.95q-19-10.8-40.65-11.35-21.65-.6-38.85 9.2l.3-1.35q3.85-3.5 15.25-6.75"/><path fill="#675f80" d="M163.3 178.6q4.7-5.05 13.7-9.15 5.3-2.45 17.4-7.1 11.2-4.65 18.85-9.95 10.4-7.25 18.05-17.9-6.9 12.1-20.5 22.2-12.45 9.25-29.75 16.25-13.55 5.55-21.95 19-7.4 11.85-9.15 26.8-.55-9.8 2.1-19.45 3.35-12.3 11.25-20.7m-88.4-129l1.4 5.55q-8.85 1.7-19.05 6.75-4.8 2.4-11.25 6.85-7.95 5.45-12 9.85 2.55-3.9 9.8-10.7 6.85-6.5 11.25-9.45 5.05-3.35 11.6-6 4.4-1.8 8.25-2.85"/><path fill="#0d131a" d="M74.15 50.75q-3.55.9-9 3.35-5.9 2.65-10.3 5.55-3.7 2.45-10.15 8.25-6.8 6.25-10.9 11.1 2.4-4 9.35-11.15 6.65-6.9 10.9-10 4.9-3.55 11.3-6.5 4.3-2 8.15-3.2l.65 2.6M189.3 135q1.15-1.2 1.4-1.1.3.15-.25 1.95-4.55 15.8-16.55 25.3-11.6 9.15-28.55 11.35-10.6 1.35-17.05 4.3-5.9 2.65-9.7 7.3l-1.4 1.3q-.25.05-.8-.85-3.15-5.4-7.05-8.7-5.15-4.3-14.4-7.8-29.4-11.15-36.8-26.2-.6-1.2-.4-1.6.2-.45 1.55.7 12.1 10.5 28.05 9.95 17-.65 27.3-14.25 1.05-1.45 1.4-1.45.4 0 1.55 1.4 5.8 7.25 14.8 11.25 8.8 3.9 18.9 3.95 22.4 0 38-16.8"/><path fill="#152139" d="M172.55 149.4q9.45-4.15 15.35-11.2-4 12.8-14.9 21.35-12 9.4-30.2 11.7-9.6 1.25-15.4 3.9-5.3 2.35-8.7 6.55l-1.25 1.3q-.3.15-.75-.65-2.95-5.05-6.35-8.05-4.75-4.15-13-7.3-13-4.95-20.4-9.25-10.1-5.9-15.8-13.65 12.55 9.5 27.85 8.6 16.25-.95 25.85-13.6 1-1.3 1.3-1.3.35 0 1.4 1.3 6.15 7.7 15.9 11.55 9.1 3.55 19.65 3.15 10.3-.35 19.45-4.4"/><path fill="#0d131a" d="M195.65 75.75q.3 22.4-6.5 38.65-6.05 14.3-16.65 21.85-9.7 6.9-20.5 6.6-10.5-.35-17.95-7.35-10.7-10.1-7.3-23.9 3.15-12.9 15.15-19.05 13.45-6.9 27.95-13.2l19.05-8.2q4.3-1.95 5.5-1.15 1.2.8 1.25 5.75M52 82.9q.6-6.75 2.3-7.3 1.5-.5 7.4 3.4l12 7.1q10.15 5.85 17.75 10.95 11.4 7.65 14.15 19.15 2.75 11.55-5 19.9-4.9 5.3-13.6 5.75-9.15.5-17.25-4.95-9.3-6.3-14-18.7-5.5-14.45-3.75-35.3"/><path fill="#152139" d="M53.5 85.3q.55-7.15 1.75-7.6 1.1-.35 7.55 3.95l11.1 6.6q9.4 5.45 16.45 10.2 10.65 7.15 13.3 17.8 2.65 10.8-4.55 18.55-4.55 4.9-12.65 5.1-8.45.25-16.05-5.05-8.65-6.05-13.1-17.5-5.2-13.3-3.8-32.05m140.25-9.9q.7 21.1-5.55 37-5.6 14.2-15.75 21.9-9.45 7.2-20.1 6.8-10.65-.45-18.55-8.45-8.1-8.25-5-20.55 3.05-12.2 14.15-17.8 18.2-9.2 46.85-21.5 2.85-1.35 3.4-.85.45.35.55 3.45"/><path fill="#0d131a" d="M188.65 82.7q-.45 15.05-6.05 27.7-5.15 11.6-13.4 18.55-8.05 6.85-16.4 7-8.8.2-15.15-7.1-6.3-7.25-1.9-17.1 4.1-9.3 14.6-14.9Q160.5 91.4 171.9 86.6l13.25-5.65q2.15-1.05 2.85-.65.7.35.65 2.4m-130.6 6.8q-.05-2.35.65-2.7.75-.35 3 1l11.8 6.85 13.4 8.1q10.3 6.75 11.95 15.8 1.45 7.75-3.4 13.1-3.6 4.05-9.7 3.9-6.3-.15-12.2-4.85-15-12-15.5-41.2"/><path fill="#da4e70" d="M186.55 85.65q-.7 12.95-5.65 24.15-4.65 10.45-11.9 17.05-7.15 6.5-14.7 7.3-7.95.85-14.15-5.05-5.55-5.3-3.6-13.75 2.45-10.45 16.9-17.9 10.6-5.5 20.25-9.6l10.85-4.55q1.2-.6 1.65-.2.5.5.35 2.55M59.65 90.4q-.05-1.4.35-1.55.35-.15 1.7.6l12.75 7.6q9.6 5.55 13.3 8.45 8.4 6.55 9.5 14.4.85 6.3-2.8 10.35-3.7 4.15-9.55 3.6-5.9-.55-11.45-5.6-13.55-12.3-13.8-37.85"/><path fill="#0d131a" d="M178.1 96.4q-2.35 12.75-10.65 21.2-3.45 3.5-6.75 4.8-3.3 1.35-5.15 0-3.3-2.1-1.35-6.3l-4.3-.25q-1.9-.85-2.4-2.45-.75-2.3 1-4.45 1.9-2.3 6.8-4.65l19.7-9.85q2.5-1.25 3.05-.9.5.35.05 2.85"/><path fill="#efe908" d="M176.25 97.25q-1.75 10.1-9.15 18.15-7.05 7.65-10.5 5.15-1.4-.9-1.3-2.9.1-1.55 1.05-3.5l-4.2.35q-1.95-.4-2.45-1.65-.85-2.1 1.25-4.05 1.7-1.55 6.45-3.85l17.2-8.65q1.15-.6 1.45-.4.4.15.2 1.35"/><path fill="#0d131a" d="M75.05 121.5q-2.95-3.3-5.15-8.8-2-5.05-3.05-11-.35-1.85 0-2.05.35-.2 1.65.8l16.75 10.1q5.05 2.9 3.4 6.35-.65 1.35-2.15 1.9-1.6.6-3.2 0 1.55 3.4-1.7 4.85-3.35 1.45-6.55-2.15"/><path fill="#efe908" d="M74.8 118.75q-3.9-5.15-5.95-15.1-.2-1 .05-1.1l1.35.75 5.8 3.75 7.65 4.35q2.3 1.15 3.1 2.5.8 1.3.15 2.65-.5.9-2.1 1.1l-3.15-.45q.65 1.5.45 2.95-.25 1.4-1.15 1.85-2.8 1.3-6.2-3.25"/><path fill="#675f80" d="M193.85 50.05l7.9 4.95q5 3.2 9.1 5.25-13.1-5-17.6-6.4-9.75-3-22.3-4.95-11.8-1.85-26.75 5.5-4.7 2.3-9.1 5.25l-3.5 2.5q0-3.75 2.85-7.8 2.95-4.15 8-7.3 12-7.45 27.15-4.9 14.6 2.5 24.25 7.9"/><path fill="#675f80" d="M156.55 36.05q-3.6 7.65-2.95 15.4l.8 6.05q.4 3.45.15 6-.35 3.15-1.8 4.45l-4.5 2.95q-3.4 2.35-7.35 11.7-5.4 12.95-6.8 15.3-5.25 8.85-11.15 12.2-4.9 2.75-11.8 2.4-5.25-.3-10.4-5.6-5.55-5.7-3.3-10.8 1.5-3.4 10.2-8.7 9.3-5.7 11.8-9.5 16.2-25 19-28.6 10.35-13.45 18.1-13.25"/><path fill="#0d131a" d="M167.95 66.15l3.8.25q.9.45-2 1.85-19.85 7.5-33.15 17.15-15.45 11.25-19.55 23.85-1.15 2.85-2.05 2.75-.6-.1-1.65-2.1-6.05-11.8-17.65-21.3-10.05-8.3-25.5-15.8-3.35-1.65-2.8-2.15l3.3-.35q6.65.05 17.9 5.15 12.5 5.65 25.9 15.5 11.55-10.4 29.25-17.9 15.25-6.5 24.2-6.9"/><path fill="#152139" d="M114.5 93.35q13.6-12.2 32.7-20 15.15-6.2 21.85-6-17.8 5.95-32.2 15.8-18.65 12.7-21.7 26.3-4.55-10.75-15.35-20.3Q87.7 78.4 70.25 71.6q18.35 2.65 44.25 21.75"/><path fill="#0b132a" d="M101.95 91.1q1.65-1.25 4.8-3.2l7.75 5.45q12.8-11.5 30.7-19.2-1.35 2-3 5.6-10.65 6.35-17.4 13.35-7.8 8.1-9.65 16.35-4-9.45-13.2-18.35"/><path fill="#0d131a" d="M121.4 83.15q-.9.05-1.5-3.1l-.95-7.85 5.4-.15q.35 5.45-.8 8.55-.85 2.5-2.15 2.55"/><path fill="#0d131a" d="M172.1 34.6l38.75 25.65q-27.2-13.9-37.85-16.5-12.35-3-21.55 3.35l1.2 9.4q.9 6.9-.1 8.1-6.8 1.8-11.95 9.45-2.65 3.9-7.9 15.4-4.65 10.25-8.25 14.45-5.45 6.4-13.05 6.45-16.15.1-21.55-13.75-1.35-3.4-3.5-12.65-1.95-8.25-3.9-12.25-1.6-3.3-3.75-6.6l-3.05-4.65q-2.9-4.85-3.3-12.35.75-25.45 13.85-37.95Q97.05-.2 113.75 0q10.15.1 18.8 4.5 6.45 3.25 13.9 10.1l12.2 11.5q7.05 6.15 13.45 8.5"/><path fill="#827aa0" d="M168.5 35.05l13.6 5.05 20 14.05Q181.85 42.4 168.75 40.4q-12.55-1.9-19.25 5l.35 9.5q.1 7.1-.9 8.3-6.1 2-10.75 9.4-2.2 3.45-7.15 14.75-4.2 9.6-7.65 13.65-5.1 6-12.35 6.1-14.4.2-19.3-13.1-1.1-3.05-3.2-12.05-1.75-7.85-3.65-11.7l-6.5-10.7q-2.7-4.65-3.1-11.8.65-23.15 11.35-34.65 9.65-10.4 26.4-10.2 16.3.15 31.55 13.7l11.6 10.7q6.6 5.65 12.3 7.75"/><path fill="#0d131a" d="M135.25 26.25q1.25-1.3 1.6-1.05.75.5-.25 2.05 1.5 4.75 2.05 9.15.5 3.95 0 5.2-.45 1.15-4.4 4.95-4.1 3.85-7.1 5.9-1.25.85-1.7.65-.4-.2-.5-1.35-.45-7 3.55-15.3 3-6.2 6.75-10.2"/><path fill="#fff" d="M137.45 40.55q-.25 1.1-4.8 5.25-4.7 4.25-5.65 3.7-1.85-1 1.8-10.25 3.6-9.3 6.45-10.7 1.65 3.35 2.15 7.45.4 3.2.05 4.55"/><path fill="#0d131a" d="M134.35 44.4l-4.95 5.65q-1.35 1.2-4.3 2.75-.4-2.7 1.85-10.1 2.3-7.55 4.3-9.85 1.55 1.55 2.4 5.25.8 3.2.7 6.3"/><path fill="#0d131a" d="M133 45.95l-5.1 4.8-1.55-.05q-.9-.6.55-6.45 1.5-5.95 3.35-8.25 1.45 1.9 2.2 5.25.6 2.65.55 4.7"/><path fill="#0d131a" d="M129.6 49.4q-1.45 2.45-4.05 3-.35-1.35.2-4.75.5-3.35 1.2-4.6 1.35 1.45 1.95 3.1l.7 3.25"/><path fill="#fff" d="M128.25 47.7l.5 2-2.6 2.1q0-4.05.7-6.65.95 1.15 1.4 2.55"/><path fill="#0d131a" d="M111.7 60.8h.3l-.15.3-2.15 2.15-1.15 1.25q-.95.85-1.25.5-.3-.3.5-1.3 1.45-1.8 3.9-2.9m-18.05.4q1.25 1.7 2.85 3 .8.7.4 1-.4.35-1.35-.3l-1.3-1.4-1-2.05-.05-.55q.1-.25.45.3m-8.5-35.35q.35.05.45 1.5-.1 6.5.6 13.1.75 6.95 2.2 12 .35 1.15-1.35.6-2.05-.75-4.1-3.35t-2.6-5.15Q79.4 40.3 80.1 36q.9-5.35 4.15-7.5l.4-1.95q.2-.75.5-.7"/><path fill="#fff" d="M84.4 29.55q-.1 5.85 1 12.35 1 5.9 2.7 10.85-.75.45-3.45-2.9-2.75-3.4-3.3-5.8-1.8-8.3 3.05-14.5"/><path fill="#0d131a" d="M82.4 47.75q-1.15-2.05-.9-6.1.4-5.2 3.6-8.3.25 6.1 1 10.7.6 3.6 2 8.7-.75.45-2.6-1.15-1.95-1.65-3.1-3.85"/><path fill="#0d131a" d="M83.4 47.65q-.9-1.55-.8-4.45.15-3.75 2.15-6.55-.1 4.5.7 8.5.6 2.8 2.15 7.3-.55.3-1.9-1.3-1.25-1.5-2.3-3.5"/><path fill="#0d131a" d="M84.3 47.75q.3-1.75 1.95-3.35.3 2.6 1 4.9l.85 3.75-1.55-.6q-.95-.6-1.9-2.3-.55-1.05-.35-2.4"/><path fill="#fff" d="M87.6 52.45q-1.1-.65-1.85-1.85-1.15-1.7.35-4.1.5 2.95 1.5 5.95"/><path fill="#675f80" d="M145.3 59q-4.8 2.5-8.85 7.6l-6.35 8.15q3.35-8.05 2.85-8.95l3.4-2.9q2.9-2.1 8.95-3.9"/><path fill="#0d131a" d="M91.8 91.25L88.2 79.3q-2.35-7.5-5.35-12 4.55 4.05 10.2 2.7l5-1.45q3.1-.9 5.55-.9 3.95 0 10.85 1.85 6.25 1.65 8.25 1.35 3.05-.5 9.35-5.25 6.7-5.05 13.25-6.6-2.65 1-5.95 2.75l-2.8 1.5q-3.5 4.8-6.35 12.75l-4.35 12.95q-2.6 6.85-6.1 10.15-4.35 4.15-11.5 4.4-6.9.25-10.95-3.25-3.25-2.85-5.5-9"/><path fill="#922f00" d="M93.5 91.55l-3.05-10.2q-2-6.5-4.7-10.55 4.2 2.9 9.3 1.2l4.35-1.6q2.75-.9 5-.9 3.6 0 9.75 2.1 5.6 1.95 7.35 1.65 3.9-.6 7.95-3.45 2.05-1.4 3.3-2.7-3.2 4.3-5.55 11.2l-3.5 11.15q-2.15 5.85-5.2 8.6-3.9 3.55-10.6 3.75-6.2.25-9.7-2.7-2.85-2.35-4.7-7.55"/><path fill="#0d131a" d="M108.8 96.7q1.1-.4 2.25 1.45 1 1.7 1.35 3.7l-4.9 1q-.85-3.1-.5-4.4.3-1.15 1.8-1.75"/><path fill="#fff" d="M108.8 97.2q.6-.05 1.4 1.35.75 1.25 1.15 2.85h-.05l-3.1.35h-.25q-.25-4.4.85-4.55"/><path fill="#0d131a" d="M100.4 91.5q-.15-11.1 3.3-22.7l4.85.65 4.75 1.25q-3.45 13.15-3.45 24-.05 7.4 1.85 17 2.2 11.25 2.5 15.2.75 9.05-1.45 18.85-1.1 12.95 4.85 22.5 2.95 4.75 6.15 6.95-3.8-.55-7.95-3.7-8.2-6.2-9.6-19-9.7 12.5-20.55 16.05-3.4 1.1-6.5 1.2l-2.4-.15q4.05-1.45 9.3-5.2 10.45-7.45 16.35-18.85 2.9-9.25 2.45-18.9-.25-5.15-2.4-16.95-1.95-11.05-2.05-18.2"/><path fill="#ed8599" d="M101.7 91.5q-.25-10.95 3-22 3.85.15 7.45 1.45-3.6 12.55-3.8 23.3-.15 7.55 1.55 17 2.25 12.35 2.5 14.9.85 8.6-1 17.05-1.5 13.3 3.65 23.15 2.6 4.95 5.45 7.2-2.85-1.35-6-4.95-6.25-7.25-7.5-18.65-10.1 12-19.7 16.8-4.8 2.4-7.6 2.4 3.55-.65 8.4-4.05 9.65-6.75 16.2-20.25 2.75-8.8 2.2-18.35-.3-5.1-2.55-16.9-2.1-11.1-2.25-18.1"/><path fill="#ce7486" d="M107.65 75.05q-1.55.7-3.85 5.65-1.2 2.5-2.05 4.8-.1-2.45.65-6.75.8-4.45 2.3-9.35 3.55.15 7.4 1.45l-2.3 9.95q-.2-.3-.45-3.8-.25-2.6-1.7-1.95"/><path fill="#0d131a" d="M117.95 93.55q.75-.25 1.95.7 1.25 1 1.65 2.45l-4.35 3.7q-.65-2.2-.45-4.3.2-2.2 1.2-2.55m-21.65-.9q1 .1 1.8 2.1.75 2 1.15 5.4L95.2 97q-.45-1-.1-2.7.4-1.7 1.2-1.65m26.7-8.5q.5-.35 1.65.4l1.75 1.9-2.7 5.95q-1.5-2.9-1.45-5.55 0-2.15.75-2.7M89.6 81.7q.05-.65.55-1.65.55-1 .8-.95.7 0 .9 1.6.3 2.05-.5 5.8-1.8-3.95-1.75-4.8m1.6 5.65l.85-1.35q.55-.95.9-.9 1 .2 1.3 2.7.25 2.4-.25 6.2l-1.6-3.05q-1.55-3.15-1.2-3.6m34.85-11.7q.6-.45 1.6.15.95.6 1.55 1.9l-2.75 6.45q-1.15-2.25-1.25-5.1-.1-2.8.85-3.4m-31.7.85q-.85.15-1.75-1.45-.95-1.6-1.05-3.3 0-.35 2.5-.7l2.5-.25q.1 1.85-.65 3.7-.7 1.9-1.55 2m25 .9q-.65 0-1.65-1.65-1.05-1.8-1.3-3.85 5.05.45 5 .8-.05 1.8-.75 3.25-.65 1.4-1.3 1.45"/><path fill="#fff" d="M118.1 94.5q.35-.3 1.05.15.8.55 1.2 1.65-1.2 1.55-2.65 2.55-.3-3.7.4-4.35m5.25-9.35q.8-.3 1.75.95l-1.45 4.2q-.55-1.85-.6-3.45-.1-1.5.3-1.7M91 79.9q.7 0 .25 3.8l-.75-2.3q0-.55.15-1.05l.35-.45m1.9 6q.35.05.55 1.95l.1 4.05q-.3-.2-1.4-4.75.45-1.3.75-1.25m33.5-9.45q.6-.5 1.55.6l-1.4 4.15q-1.1-3.95-.15-4.75m-30.05 17q.5 0 1.05 1.85l.8 3.45q-1.35-1.15-2.5-3.1l.1-1.5q.2-.7.55-.7m-2.2-17.75q-.4 0-.85-.95-.45-.95-.65-2.2l2.85-.8q.05 1.3-.4 2.6-.45 1.35-.95 1.35m25.05.6q-.4 0-.95-1.2-.5-1.2-.6-2.4l2.7.5-.4 2.15q-.35.95-.75.95"/><path fill="#0d131a" d="M138.6 204.1q9.05 3.35 13.75 7.4l-.45 1.25q-4.45-3.7-13.6-6.95-10.35-3.7-19.75-4.05-7.4-.25-15.15 1.5-8.6 1.95-14.3 5.7l.35-1.55q6.15-4.15 14.15-6.05 7.3-1.75 15.15-1.45 9.7.4 19.85 4.2"/></svg>