<svg xmlns="http://www.w3.org/2000/svg" width="135" height="169" viewBox="-0.75 -0.25 134.7 169.1"><path fill="#763a00" d="M78.85 140.5q-8.1 5.25-11.8 7.15-2.85 1.5-4.75-1-1.85-2.5-.25-3.45 3.95-2.4 9.7-6.95 5.6-4.45 7.7-6.7-3.65-4.45-5.45-5.95l4-3 5.75-1.65-1.1 3.45q.7-.4 4.5-1.75l-.45 4.5-.9.9 4.35 6.3q-2.5 2.4-11.3 8.15"/><path fill="#ffe100" d="M132.75 45q-.1 15 .25 22.05-8.6 1.9-20.9 5.95-14.65 4.85-22.45 9.15l4.65 6.75 6.05 8.1q-8.65 5.75-12.55 9.05l9.2 10.3-10.3 8.8.45-4.5q-3.8 1.35-4.5 1.75l1.1-3.45L78 120.6l4.95-4.2q-4.7-2.9-11.6-8.2L82.05 96 69.5 81.4 53.75 63.75q46.9-30.25 79.25-38.9-.2 8.55-.25 20.15"/><path fill="#763a00" d="M78 120.45l5.65-2.2.6.05.1.45-1.05 2.8 3.55-1.6q.85-.3.85.45-.05 2-.7 4.75l-1 .75.5-4.45q-1.25.3-3.7 1.35-.95.35-.7-.55l.85-2.55q-4.05 1.25-6.15 2l1.2-1.25"/><path fill="#542400" d="M79.2 140.3l-12.25 6.95q4-2.55 11.3-8.45L88.5 130l1.75 2.35q-3.75 3.45-11.05 7.95"/><path fill="#f9be00" d="M111.7 73.2q-12.3 4.15-22.85 8.5 5.95-4.05 20.2-10.7 15.65-7.3 23.65-9.1l.2 5.15q-7.95 1.7-21.2 6.15M97.6 93.55l2.85 3.5-13.55 8.75q7.9-9.75 10.7-12.25m-.8 22.9l-4.3 3.45-5.3 4.35.3-2q4.65-7 6.6-9l2.7 3.2"/><path fill="#542400" d="M87.2 124.25l-2 1.5 2.3-3.5-.3 2"/><path fill="#0d131a" d="M133.85 24.35q-.35 4.8-.25 21.05l.2 22.15-.35.45q-10.75 2.3-23.25 6.55-11.75 4.05-19.4 7.9 3.2 4.85 10.5 14.5.3.35-.1.6-7.9 5.2-12.25 8.6l8.9 10.15q.3.3-.05.6l-6.6 5.45q-3.45 2.85-4.4 3.85l4.15 6.15-.05.55q-1.95 1.95-8.7 6.3-7.15 4.55-14.7 8.55l-.9.1q-.15-.3.55-.7 18.05-11.2 22-14.85l-4.05-5.95q-.2-.3.05-.55l4.2-4.05 6.25-5.4q-5.6-6.75-8.8-9.95-.35-.35.05-.6 6.05-4.85 12.2-8.9-6.35-8.5-10.4-14.6-.3-.4.15-.6 7.9-4 19.6-8.2 12.95-4.7 23.6-7-.45-6.8-.4-20.85.05-13.75.45-19.55-16.45 4.5-39.9 16.35-21.9 11.05-36.7 21.7 6.8 7.3 27.55 31.7.25.3 0 .55l-5.45 6.05-5 5.7q8.9 6.7 11.05 8.05.45.3.05.7l-8.2 6.8q2.35 2.35 4.9 5.8.25.3 0 .55-1.8 2.15-7.7 6.55-5.8 4.3-10.15 6.75l-.8.1q-.2-.25.35-.65l9.3-6.95q5.4-4.25 7.1-6.2-2.85-3.7-5.1-5.65-.35-.35.05-.65l8.25-6.75q-4.85-3.2-11.2-7.9-.35-.3-.05-.6l10.5-12.05L66.75 79.6l-13.8-15.4q-.3-.35.05-.65 15-11.1 38.85-22.95 24.5-12.2 41.5-16.7.6-.15.5.45M12.5 12.55q-3.05 1.7-5.35 7.85Q5.2 25.6 4.9 30.5q-2.3-6.9-3.55-17.95Q.05 1.25 1.7.8 3.3.35 6.6 4.2q2.65 3.1 5.9 8.35"/><path fill="#ffe100" d="M91.25 7.85q1.65 2.65 1.35 9.8-.3 6.3-1.7 10.95-3.7 3.95-8.8 7.8-5.75 4.4-9.8 5.85 4.65 3.75 7.45 8.65 1.85 3.2 3.25 7.85 2.4 7.55.3 16.1-1.85 7.5-5.85 11.55-9.2 8.6-23.8 10.55-12.5 1.7-24.05-1.75-4.95-1.65-9.1-5.95-4.65-4.75-6.5-11.1-1.8-6.1-.75-12.55.8-5.1 3.25-9.75-3.1-3.5-6.95-12.15Q6.35 36.35 5 31.3q.25-7.35 2.9-12.8 2-4.1 4.4-5.8 3.95 5.65 7.85 15.65 4.1 10.45 4.65 17 7.15-6.55 18.05-8.9 9.95-2.15 17.45.1 5.1-8.1 15.65-17.55 9.55-8.5 15.3-11.15"/><path fill="#ffe100" d="M33.95 92.7q9.65-4.65 17.1-6.3 6-1.3 15.95-1.25 9.8 0 10.45 1.25 2.8 5.35 5.6 15.1 3 10.6 4.4 20.95 3.55 26.8-5.8 33.8-6.85 5.2-23.95-1.15-7.5-2.7-11.05-3.55-4.55-1.05-9.35-.85-4.85.2-8.6-1.1-3.4-1.15-4.9-3.05-3.4-4.4-2.55-14.85.65-7.85 3.2-15.95l2.85-8.1 2.8-7.55q.55-1.35 2.25-4.5l1.6-2.9"/><path fill="#ffe100" d="M33.95 92.7q1.6-.55 2.5 3 .95 3.75-.35 7.8-1.4 4.3-5.35 8.4-3.9 4.1-6.3 3.85-2.65.05-5.2-.8-2.25-.8-2.35-1.5 0-1.05 1.1-1.85l-1.8-3.3q-.9-1.8-.8-2.1.25-.4 1.95-.25-.05-2.95 2.2-1.75.1-2.35 1.95-.65 1.5-2.4 4-4.85 2.15-2.15 4.1-3.5 1.6-1.55 4.35-2.5"/><path fill="#0d131a" d="M91.25 7.85q5.2-2.7 10.65-4.45 6.75-2.15 7.85-.5 1.4 2.1-6.3 12.1-7.1 9.15-12.9 14.1 1.8-5.55 2.05-11.2.25-5.95-1.35-10.05"/><path fill="#ffe100" d="M15.95 146.25q2.65-2.2 5.7-3.15 2.8 6.65 12.05 7.55-4.4 2.2-10.45 3.15-6.1.9-7.15-.5-2.05.5-2.4-.55-.3-.85.4-1.9-1.45-1.9 1.85-4.6m56.85 12.3q4.05.15 7.4-1.4 3.15-1.45 4.45-3.75 2.6 4.3 3.2 8.15.6 3.95-1.2 5Q86.6 168 85.3 168q-1.15-.05-1.9-.95-.6 1.65-4.8-1.45-4.3-3.2-5.8-7.05"/><path fill="#b50005" d="M40.95 77.95l3.4-2.2q1-.75 3-1.35l2.8-.5 4.25-.45q-.15 1.45-1.1 2.9l-5.5.3q-2.85 1.05-3.55 3.15l-3.3-1.85"/><path fill="#e50012" d="M44.2 79.75q1-1.95 3.65-3.05 2.9-1.2 5.55-.3-4.1 5.4-9.2 3.35"/><path fill="#f9be00" d="M17 112.75q.8.6 3.6.65l4.6-.5-.7 2.75q-2.75.1-5.45-.85-2.85-1-2.05-2.05m30.25-14.7q-.05-.7 3.45-1.25l3.6.2q.05.6-1.35 1.25l-2.2.65-2.15-.1q-1.35-.25-1.35-.75m-26 36.55q1.8 13.35 14.7 12.3 6.5-.55 12.55.9 5.2 1.25 12.55 4.65 8.3 3.9 16.4.9 10.35-3.8 11.3-18.3-.1 11.35-3 16.65-4.65 8.65-17.25 6.35-4.2-.75-15.8-4.6-9.5-3.15-12.45-2.8-9.3 1.1-14.4-2.65-5.65-4.15-4.6-13.4"/><path fill="#f9be00" d="M17.65 145.2q.25-.35 2.1-1.05l2.25-.8q1 2.9 4.95 5.15 3.6 2.05 6.7 2.05-3.15 1.7-7.05 2.55-4.65-6.95-8.95-7.9m58.95 18.7l-2.05-2.5q-1-1.5-1.4-2.85 7.3.75 11.4-5.1 1.65 2.55 2 3.7-3.35.2-6.15 2.05-2.85 1.85-3.8 4.7"/><path fill="#0d131a" d="M25.15 62.8q2.35-.65 4.5.8 2.1 1.45 2.85 4.2.8 2.65-.45 4.8-1.15 2-3.55 2.75-2.4.7-4.75-.5-2.3-1.2-2.95-3.55-.8-2.75.4-5.2 1.2-2.55 3.95-3.3"/><path fill="#fff" d="M24.85 63.5l2.25.1q1.05.5 1.45 1.55.4 1.15 0 2.2-.45 1.1-1.65 1.55l-2.25-.1q-1.05-.5-1.4-1.65-.35-1.2.15-2.25.45-1.05 1.45-1.4"/><path fill="#0d131a" d="M60.95 51.5q2.8-.9 5.45.6 2.75 1.5 3.35 4.55.55 2.55-.75 4.9-1.25 2.35-3.6 3.15-2.75.95-5.25-.35-2.4-1.25-3.25-3.75-1-3.1.3-5.75 1.2-2.55 3.75-3.35"/><path fill="#fff" d="M60.6 52.25q1.1-.5 2.25 0 1.15.45 1.6 1.6.4 1.05 0 2.2-.4 1.25-1.55 1.65-1.2.45-2.25 0-1.1-.45-1.55-1.55-.45-1.1-.05-2.25t1.55-1.65"/><path fill="#0d131a" d="M43.9 70.65q-.05-.2 1.05-.5l1.1-.2-.3.65-.65.45-.7-.05-.5-.35"/><path fill="#e50012" d="M78.1 63.9q1.9.75 2.5 3.95.65 3.2-.5 6.25-1.25 3.45-3.9 5.15-2.65 1.7-4.9.6-2.25-1.05-2.95-4.05-.75-3.15.75-6.4 1.6-3.45 4.25-5 2.5-1.4 4.75-.5m-53 19q2.2 2.8 2.95 5.55.75 2.9-.65 3.9-1.35.95-3.85-.55-2.15-1.25-4.6-3.95-2.15-2.45-3-5.05-.85-2.65.25-3.75 1.35-1.25 4.1-.05 2.65 1.15 4.8 3.9"/><path fill="#0d131a" d="M5.15 1.95q6 5.7 11.65 16.75 6.7 13.15 8.5 26.25l-1 .9Q22.25 32.7 15.2 19.1 9.85 8.7 4.45 2.75 2.9 1.15 2.2 1.2q-.9.1-.95 2.65-.25 8.7 3.55 23.4 4.6 17.8 11.9 28.05l-.5 1.25Q8.25 46.3 3.45 28.6-.75 13.05.1 3.7.35.4 1.65.05q1.2-.3 3.5 1.9"/><path fill="#0d131a" d="M5.6 32.25L4.55 29.7q.45-6.05 2.4-10.65 1.9-4.55 5-6.95l.75 1.05Q9.45 15.7 7.6 20.9q-1.8 5-2 11.35m87.95-7.05q10.3-10.75 14.85-18.7 1.45-2.5.9-3.25l-3.75-.1q-8.75 1.7-19.65 8.9Q71.4 21.6 60.85 36.7l-1.15-.35Q70.8 20 85.05 10.65q10.65-7 20.2-8.6 4.3-.75 5.15.55.75 1.2-.95 4.45-4.75 8.9-15.2 19.6-11.8 12.05-21.4 16.05l-1.05-.75q9.45-4 21.75-16.75"/><path fill="#0d131a" d="M91.6 28l-1.85 1.55q2.25-7.05 2.3-13.6 0-5.45-1.2-7.5l1-.7q1.3 2.25 1.5 7.25.2 6.2-1.75 13M79.55 92.4q-.35-1.15 0-1.3.4-.15.8 1 8.75 24.25 8.65 43.4-.15 19.35-9.4 22.95-5.05 1.95-14.45-.15-5.7-1.25-14.95-4.65-3.85-1.4-5.9-1.85l-6.2-.45-7.85-.5q-4.5-1-7.4-4.25-3.7-4.05-1.85-17.45 1.85-13.7 8.45-28.4.45-1 .85-.85.35.15-.1 1.15-6.05 14.8-7.8 27.85-1.65 12.8 1.75 16.6 2.75 3.1 6.65 4l7.3.55 6.8.45q2.05.4 5.75 1.85 20.05 7.6 28.3 4.45 8.45-3.2 8.3-22.15-.1-18-7.7-42.25M28.8 94.95l1.45.45q-5.2 3.6-9.15 9.4-.55.85-.85.7-.3-.2.25-1.05 3.6-6.15 8.3-9.5M37 78.5q-.45-.3-.25-.55l.7-.05q1.85.7 5.55-1.95 2.15-1.55 3.75-2.05 1.6-.55 4.55-.65l3.35-.5q1.35-.5 1.7-1.7.25-.6.55-.5.3.05.2.7-.6 3.05-5.8 3.25l-4.2.6q-1.5.5-3.45 1.9-4.3 3.1-6.65 1.5"/><path fill="#0d131a" d="M41.5 77.55q4 3.1 7.4 1.9 1.8-.65 3.15-2.3 1.35-1.65 1.85-3.7l1.35-.25q-.35 2.35-2.1 4.35-1.65 1.9-3.9 2.75l-4.3.25q-2.35-.5-4.55-2.25l1.1-.75M14.1 147.4q2.3-3 7.45-4.9l.45 1.2q-4.4 1.75-6.55 3.95-1.85 1.95-1.1 2.9l-.75 1.05q-1.6-1.45.5-4.2"/><path fill="#0d131a" d="M18.05 147.25q.7-.35.85 0 .2.3-.5.7-1.7 1-2.95 2.4-1.35 1.45-1.05 2.2l1.7.15.45 1.1-2.05.2q-1.2-.15-1.45-.85-.5-1.35 1.35-3.3 1.65-1.75 3.65-2.6"/><path fill="#0d131a" d="M32.95 150.5l2.05.3q-5.55 2.75-12.45 3.7-6.8.9-7.35-.95-.3-.95 1.25-2.4 1.65-1.6 3.85-2.15.7-.15.8.15.1.35-.55.6-1.65.65-2.85 1.65-1.15 1-1 1.6.2.85 5 .4 5.6-.55 11.25-2.9m39.15 8l1.45-.1q1.35 3.65 5 6.5 3.25 2.55 4.2 2 .45-.3-.15-1.95-.55-1.65-1.75-3.6-.35-.5-.05-.7.25-.15.65.3 1.55 1.85 2.2 4.2.65 2.45-.3 2.95-1.45.75-5.35-2.15-4.35-3.25-5.9-7.45"/><path fill="#0d131a" d="M84.55 160.3q-.3-.7.05-.85.3-.15.65.5 1.75 3.3 1.85 5.85.05 2.2-1.05 2.65l-1.35.05q-.9-.2-1.6-.95l.5-1.1q1.25 1.25 2 .9.6-.3.4-2.1-.25-2-1.45-4.95"/><path fill="#0d131a" d="M84.15 153.9l.9-1.1q2.75 4.55 3.35 8.9.6 4.75-1.95 5.85l.15-1.4q1.25-1.2.5-4.9-.75-3.6-2.95-7.35M53.5 75.85l-.45.9q-2.2-.7-4.85.3-2.65 1-3.5 2.85l-1-.3q1.05-2.25 3.95-3.4 2.9-1.15 5.85-.35m-35.9-22.7q.55-.8.9-.6.35.25-.15 1.05-3.4 5.8-4.3 12-.9 6.25.8 12.4 1.85 6.7 6.65 11.3 4.75 4.5 11.75 6.45 1.35.4 1.25.75l-1.45.15q-7.2-1.4-12.65-6.35-5.45-4.95-7.35-11.85-1.75-6.3-.55-13 1.2-6.75 5.1-12.3M50.35 35q6.75-.2 12.1 1.8.9.35.8.7l-1.05.1q-11.6-3.2-24.6 1.3-8.25 2.8-13.9 8.1-.7.65-.95.4-.3-.3.35-1 5.3-6 14-9 6.65-2.25 13.25-2.4M83.2 56.3q2.45 6.95 1.4 15.2-1.2 9.35-6.6 15-.65.7-.9.45-.3-.25.25-1 4.7-6.15 5.7-14.8.9-7.8-1.45-14.35-3.45-9.85-11.4-15.45-.85-.6-.6-.9.2-.3 1.1.2 4.2 2.45 7.5 6.55 3.25 4.1 5 9.1m-61.55 46.8l-.6.75q-.6-.45-.85-.35l-.2.6-.3.65-.75-.2-.75-.15q-.35.15-.4 1l-.2.95h-.9l-.75.15q-.2.3 1.15 2.65l1.4 2.45-.55.7q-.6.6-.55 1 .1.6 2.85 1.25l4.3.45-.25 1.2q-2.15.2-5.05-.8-2.9-.95-3.1-1.9-.15-.9 1.2-1.95-2.85-4.75-2.5-5.6.15-.35.9-.45l1.25.1q-.1-.65.1-1.3.15-.65.5-.85l.75-.1q.5.1.85.35.1-1.15.7-1.3l.85.15.9.55"/><path fill="#ffe100" d="M94.05 98.6q-5.25 6.65-12.85 9.3-5.25 1.8-11.75-4.35-6.55-6.2-3.4-10.6 3.2-4.45 8.7-8.8 6.4-5.1 12.05-6.65 2.05-3.25 2.65-3.4l1.45.3q1.05.5 1.85 1.75 2.65.35 4.45 2.45 1.9 2.15 2.05 5.3.3 7.7-5.2 14.7"/><path fill="#f9be00" d="M98.7 81.3q2.8 7.55-3.9 16.55-6.3 8.55-13.65 9.55 6.8-3.15 12.4-11.55Q99.1 87.5 98.7 81.3"/><path fill="#0d131a" d="M91.25 74.1q1.1.5 1.85 1.7 6.3.75 6.9 8.75.5 6.7-4.45 13.55-5.4 7.35-13.95 10.05l-1.05-.1q-.15-.4.75-.75 7.75-2.95 12.85-9.8 4.95-6.65 4.55-12.8-.5-6.7-5.6-7.9-.65-.05-.85-.5-.35-.65-1.25-1.05L89.45 75q-.45.15-1.2 1.4-.75 1.35-1.2 1.5-5.85 2.3-10.3 5.45-5.2 3.7-10 9.45-.6.7-.95.45-.3-.25.25-1.05 5.25-6.8 11.05-10.7 4.15-2.8 9.25-4.45l1.25-1.6q.9-1.45 1.65-1.6.95-.25 2 .25"/><path fill="#0d131a" d="M90.1 77.05l.9-.15q.25.15-.25.7-.55.65-.55.85 0 .35.3.8l.3.6-.4.55q-.4.45-.4 1 0 .65.4 1.25l.4.75-.25.6q-.3.5-.25.9.05.4.6 1l.6.75-.25.75q-.2.6-.1 1.1l.8.7 1.35.45q.65.05.65.4l-.55.4-1.85-.3q-1.1-.45-1.35-1.2-.15-.4-.05-1.05.1-.7.45-1.1l-.85-.7q-.4-.5-.45-1-.2-.9.7-1.7-.95-.8-1.1-1.85-.1-1.1 1-1.85-.65-.5-.65-1.35-.05-.35.25-.75l.6-.55m-72.5-23.9q.55-.8.9-.6.35.25-.15 1.05-3.4 5.8-4.3 12-.9 6.25.8 12.4 1.85 6.7 6.65 11.3 4.75 4.5 11.75 6.45 1.35.4 1.25.75l-1.45.15q-7.2-1.4-12.65-6.35-5.45-4.95-7.35-11.85-1.75-6.3-.55-13 1.2-6.75 5.1-12.3"/></svg>