<svg xmlns="http://www.w3.org/2000/svg" width="286" height="248" viewBox="-0.6 -2.4 286.35 247.9"><path fill="#0d131a" d="M279.1 82.5q-4.15 20.85-8.75 35.45-5.1 16.35-8.5 17.15-1.1.3-12.8-9.9l-11.5-10.2q-11.35 10.75-16.4 15.1-9.4 8.1-26.9 21.25-12.15 9.15-28.35 6.9-12.8-1.75-30.05-11.2l-28.7-17.5q-16-9.85-24.3-11.9-13.55-3.3-24.25-.35-12.15 3.35-17.2 14.1-2.85 6.05-2.95 12.95-.1 8 3.55 15 9.35 17.85 39.7 24.1 21 4.3 47.75-9.5 13.35-6.9 22.5-14.65.65 7.45-6 14.6-6.45 6.95-17.95 11.65-11.95 4.9-26.05 5.9-15.35 1.1-30.1-2.7-30.1-7.8-39.65-26.55-8.5-16.6 1.1-35.7 5.35-10.5 18.75-15.95 13.2-5.4 25.45-2.45 13.4 3.25 29.15 11.9l25.95 15.7q14.65 8.85 24.15 11.85 12.9 4.05 24 .55 11.25-3.5 22.95-22.15 11.95-19.2 22.75-51.85 3.7-11.15 5.2-11.3 1.25-.15 3.25 8.55 2.35 10.4 6.25 21.9 4.95-5.15 23.15-35 16.55-27.15 18.45-27.05 3 .2 1.65 16.1-1.2 14.45-5.3 35.2"/><path fill="#543823" d="M173.35 156.45q-11.65.4-29.5-7.9-14.3-6.65-29.5-17.25-13.85-9.65-24.65-13.8-7.8-3-17.85-4.3-9.05-1.2-18.9 3.4-13.4 6.25-16.7 20.55-3.7 15.9 6.35 28.5 11.3 14.2 36.6 18.7 21.05 3.75 42-4.3 11.05-4.3 24.05-13.3 1.5-1.05 2.5-.95.45.1.65.35.75 2.95-5.6 7.8-6.65 5-17.05 8.95-26.9 10.3-51 4.35-25-6.15-36.35-21.15-10.55-13.95-5.75-30.3 4.15-14.05 16.85-21.25 11-6.25 22.1-4.75 20.3 2.8 43.65 18.6 17.25 11.7 29 17.25 17.05 8.05 28.9 6.8 3.75-.45 6.35-1.3 1.9-.65 3.85.8 1.9 1.45.2 2.25-1.65.8-4.5 1.45l-5.7.8"/><path fill="#f2e100" d="M247.7 89.85l9.55-14.4 13.7-22.6q9.4-15.55 10.25-15.2 1.65.65-.95 20.9-2.45 19.15-5.2 30.45-2.4 9.85-6.9 24.6-5.6 18.15-7.2 18.5-.85.2-12.4-10.5-11.35-10.55-11.65-10.2-4.6 5.35-22.25 20.3-19.8 16.8-28.6 21.35l-3.2 1.5-1.45.25q-.3-.15.05-.65.4-.45-.85-.7l-.3-.25q-.15-.25.15-.45l.4-.25q.3-.2.2-.4-.05-.25-.6-.4l-.7-.35q-.25-.25.25-.4l3.65-1.35q8.4-3.95 17.7-16.4 8.1-10.9 14.75-25.15 5.6-12.05 10.75-27.2 3.85-11.2 4.35-11.3.8-.15 4.2 13.75 3.4 13.95 5.1 13.9 2-.1 7.2-7.35"/><path fill="#0d131a" d="M83.9 42.6q-5.35 1.55-9.25 3.65-10.4 5.65-18.45 12.5-5.5 4.65-12.25 12.1l-2.3 2.5q-1.95 2.5-1.85 4.55.1 2.3 1.45 4.1 1.75 2.4 4.9 1.85 1.2-.2 2.25-1.2 1.05-1.05 1.35-2.3.35-1.45-.4-2.9-.7-1.5-1.95-1.75-2.1-.45-2.65 1.1-.55 1.5.5 2.25 1.6 1.2.95 2.35-.65 1.1-2.5-.5-2.1-1.8-1.4-4.65.75-3 4.35-3.05 2.5 0 4.3 2.5 1.8 2.5 1.15 5.3-.3 1.4-1.55 2.8-1.3 1.45-2.85 2.05-1.85.65-3.3.55-1.3-.15-2.75-.95-3.2-1.7-3.75-6.4-.15-1.8-.15-4.2v-3l-.85-10.8q-1.05-5.6-4.35-7.15-7.05-3.3-16.2-.45Q8.8 55.8 3.7 60.6q-1.5 1.45-2.9.3-1.4-1.2-.6-2.2 20.5-25.95 40.75-36.8 15.9-8.55 30.6-7.25 7.2.65 13.35 4.75 7.75 5.15 12.45 14.9 1.2 2.55-.35 4-1.2 1.15-5.05 2.2l-8.05 2.1"/><path fill="#776b59" d="M86.25 39.85Q62.5 26.7 37.1 35.75q-18 6.4-31.2 20.6-3.35 3.55-3.7 2.75-.3-.8 2.6-3.9Q17.15 42.1 26.3 35q9.8-7.65 23.3-14.3 8.75-4.3 19.9-3.5 16.2 1.15 23.95 15.2 2.55 4.65.55 7.5-2.15 3.05-7.75-.05"/><path fill="#0d131a" d="M251.45 20.7q1.1.7.2 2.25-.9 1.6-2.85.75-6.6-2.85-14.05-2.6-9.35.25-14.85 5.75-2.6 2.6-1.8 8.5.4 3.05 2.7 10.7l1 2.8 1.3 4q1.1 4.4-1.25 7.3-1.1 1.25-2.3 1.85-1.3.6-3.25.6-1.7 0-3.4-.9-1.65-.9-2.45-2.1-1.55-2.35-.7-5.35.8-2.9 3.1-3.85 2.35-.95 4.5.6 2.1 1.6 1.2 3.85-.3.8-1.05.5-.75-.3-.4-1.25.4-1.15-.85-1.7-1.35-.55-3.2.55-1.1.65-1.25 2.3-.2 1.65.65 2.9.7 1.1 2.05 1.7l2.55.35q3.15-.6 4-3.45.6-2.15-.1-4.3-.65-2-3.3-3.65-.8-.5-3.05-1.55-8.35-4.35-15.6-6.85-9.6-3.35-21.55-5.05L167.5 35l-8.35.65q-4 .25-5.6-.5-2-.9-1.7-3.7 1.05-10.7 7.85-19.15 4.8-5.95 9.5-8.2 13.7-6.5 34.35-2.8 22.65 4 47.9 19.4"/><path fill="#776b59" d="M245.9 19q3.8 1.9 3.75 2.6 0 .75-4.35-1.45-8.9-4.5-23.9-7.4-19.85-3.85-34.4-.45-3.15.75-6.8 2.65-5.05 2.65-6.1 5.6-1.1 3.2.15 7.45 1 3.6 2.05 4.15l-11.1.45q-10.95-.35-10.35-4.3 2.45-15.85 17.2-22.55 10.2-4.6 19.9-3.6 14.95 1.6 26.8 5.35Q229.85 11 245.9 19"/><path fill="#f2e100" d="M47.05 43.15q6.25-1.05 13.7-.25l12.35 1.8.4.05q-2.35 1-5.15 2.65-7.15 4.1-16.6 12.45-8.2 7.25-11.7 11.7-.3.35-.45-5.15-.15-6.6-.9-8.95-1.8-5.6-9.15-7.15l-5.5-.55q15.35-5.3 23-6.6"/><path fill="#cbbd00" d="M44.95 35.9q7.8-1.45 13.8-1.35 9 .2 17.55 3.55 2.15.8 2.65 1.75.35.65-.05 1.8-.55 1.65-1.2 1.85-3.1.8-4.2 1.25l-.4-.05-12.35-1.8q-7.45-.8-13.7.25-7.65 1.3-23 6.6-5.45.1-10.75 2.75l-4.15 2.05q-.3-1 13.05-8.7 14.5-8.45 22.75-9.95"/><path fill="#0d131a" d="M164.05 23.2q8.25 6.45 13.4 17.15 5.9 12.3 5.85 26.85l-.2 12.55q0 5.95.5 9.65 1.3 8.8 8.7 19.7 11.3 16.5 15.45 32.2 5 18.85-.8 34.85-1.65 4.45-6.1 10.95-4.55 6.55-8.45 9.95-.1.1 5.4 4.1 7.9 5.8 15.9 12.9 12.3 10.85 10.05 21.7-.95 4.55-4.5 7.15-3.6 2.6-8.65 2.15-2.7-.25-21.2-15.35-17.8-14.55-19.8-17.3-1.6-2.2-2.55-6.75l-.9-4q-8.55 3.15-19.95 3.35-12.15.25-22.9-3.05.5 2.3-.4 5.25-.85 2.9-2.15 3.55-4.5 2.25-55.35 18.65-7.3 2.3-10.05-1.55-2.55-3.6-1-12.05 1.7-9.35 18.85-15.15 4.25-1.45 11.3-3.1 4.8-1.15 4.45-1.5-9.15-9-15.05-26.3-5-14.7-4.5-23.75.3-5.65 2.6-13.8l4.25-14q5-17.05 1.4-25.9Q72.4 79.35 72 67.45q-.4-12.55 4.5-24.9 4.25-10.7 14.45-19.05 10.55-8.7 23.45-11.4 13.55-2.85 27.85.75Q155 16.1 164.05 23.2"/><path fill="#d7a400" d="M183.45 179.7l7.65-7.5q-8.75 15.4-17.25 21.95-12.1 9.3-30.95 8.75-21.85-.65-39.2-15.3-8.9-7.5-15.65-18.05h.05q2 3 7.15 8.05 4.35 4.3 8.05 7.3l5.3 3.7q2.9 1.8 5.15 2.8 5.05 2.2 8.25 3.2 4.3 1.3 10.75 2.4 7.8 1.3 15 .2 6.6-1.05 16.05-4.65 6.95-2.65 19.65-12.85"/><path fill="#f9be00" d="M90.85 202.55q1.95 2.8 2.55 8.05l.25 6.95-1.8.6q-6.8-.9-11.2-5.5-3.35-3.5-3.8-6.65-.35-2.25.75-4.05 5.35-1.75 10-2.9 1.15.45 3.25 3.5"/><path fill="#d7a400" d="M83.3 179.8q2.4-.25 4.15-1.9l1.75-2.4q3.4 6.2 9.55 11.8 8.4 7.65 20.05 12.2 2.25.85 2.15 4.95-.1 3.85-1.65 4.75 0-.15-25.65 8.35l-.25-6.95q-.6-5.25-2.55-8.05-2.1-3.05-3.25-3.5l3.85-.8 5.95 3.1q5.9 2.85 6.35 1.4.15-.45-2.4-1.8-5.1-2.7-8.4-4.75-6.9-4.25-12.75-17.15 1.55.95 3.1.75"/><path fill="#f9be00" d="M180.85 79.8q.05 14.35 4.8 22.7l8.25 13.8q5.5 9.5 8.55 17.3 8.8 22.65 1.35 41.95-2.6 2.5-4.7 2.85-2 .35-4.4-.75l-3.05-1.8 2.05-4.05q1.45-4.1.7-3.85-.65.2-2.55 3l-.75 1.25-7.65 7.5q-12.7 10.2-19.65 12.85-9.45 3.6-16.05 4.65-7.2 1.1-15-.2-6.45-1.1-10.75-2.4-3.2-1-8.25-3.2-2.25-1-5.15-2.8l-5.3-3.7q-3.7-3-8.05-7.3-5.15-5.05-7.15-8.05h-.05l-.65-.95q-.5-.85-.75-.6-.35.4 1.2 4.6l1.35 2.9-1.75 2.4q-1.75 1.65-4.15 1.9-1.55.2-3.1-.75-3.7-8.25-5.9-17.95-1.95-8.9-1.85-14.8.05-4.7 2.15-12.6l4.05-14.4q4.95-18.55 1.05-28.2-9-22.25-1.55-45 3.9-11.85 15.1-21.15 11.05-9.1 23.35-11 24.3-3.7 42.05 8.45 16.9 11.6 21 32.25 1.1 5.65 1.25 12.9l-.05 12.25m11.8 120.7l5.5 4.05 1.5 2.75q1.85 3.85-5.95 8.15-1.75.95-6.4 1.5l-8.7.25-3.35-2.85 3.65-5.9q3.45-4.8 7.65-6.9 3.7-1.85 6.1-1.05"/><path fill="#d7a400" d="M183.4 187.95q4.05-4.8 8.25-12.1l3.05 1.8q2.4 1.1 4.4.75 2.1-.35 4.7-2.85l-2.4 5.35q-2.65 5.25-6.55 9.55-4.5 5-10.1 8-2.3 1.2-2.35 1.8l2.7-.05 3.45-1 1.9-.4 2.2 1.7q-2.4-.8-6.1 1.05-4.2 2.1-7.65 6.9l-3.65 5.9-3-2.65q-1.5-1.5-2.9-6.05-1.4-4.6-.4-5.25 8.3-5.1 14.45-12.45"/><path fill="#0d131a" d="M103.4 37.3q0 2.75-1.9 4.65-1.95 1.9-4.65 1.9t-4.6-1.9q-1.95-1.9-1.95-4.65 0-2.7 1.95-4.6 1.9-1.9 4.6-1.9 2.7 0 4.65 1.9 1.9 1.9 1.9 4.6m49.55-5.65q0 2.7-1.9 4.6-1.95 1.9-4.65 1.9t-4.6-1.9q-1.9-1.9-1.9-4.6 0-2.7 1.9-4.6 1.9-1.95 4.6-1.95 2.7 0 4.65 1.95 1.9 1.9 1.9 4.6"/><path fill="#fff" d="M99.6 33.95q0 .85-.6 1.45t-1.45.6q-.8 0-1.45-.6-.6-.6-.6-1.45t.6-1.45q.6-.6 1.45-.6t1.45.6q.6.6.6 1.45m50.4-5.2q0 .85-.6 1.45t-1.45.6q-.85 0-1.45-.6t-.6-1.45q0-.85.6-1.45t1.45-.6q.85 0 1.45.6t.6 1.45"/><path fill="#0d131a" d="M97.2 64.3q-1.4 4.9-5.7 7.35-4.1 2.3-8.15 1.1-3.95-1.15-5.75-5.55-1.85-4.5-.35-9.5t5.55-7.75q4-2.75 7.9-1.6 4.05 1.2 6 5.65 2.1 4.7.5 10.3m78.1-16q1.55 5.4-1 10.3-2.55 4.8-7.3 6.15-4.7 1.35-9.45-1.55-4.8-3-6.3-8.4-1.55-5.4.95-10.3 2.45-4.8 7.2-6.2 4.75-1.35 9.5 1.6 4.85 3 6.4 8.4"/><path fill="#f2e100" d="M95.65 63.25q-1.35 4.55-4.8 7-3.45 2.5-6.95 1.45-3.55-1.1-5.05-5.05-1.5-4-.1-8.55 1.35-4.55 4.8-7 3.45-2.5 6.95-1.45 3.55 1.1 5.05 5.05 1.5 4 .1 8.55m77.9-14.55q1.4 4.95-.55 9.3-2 4.35-6.2 5.55-4.2 1.2-8.2-1.45-3.95-2.65-5.4-7.55-1.4-4.95.55-9.3 2-4.35 6.2-5.55 4.2-1.2 8.2 1.45 4 2.6 5.4 7.55"/><path fill="#fff" d="M175.65 172.75q-9.55 15.75-32.75 18.4-20.35 2.35-36.4-14.1-6.75-6.9-11.25-15.95-4.3-8.65-5.45-17.05-3.6-26.35 5.8-44.3 10.35-19.7 32.65-20.75 21-1.05 34.9 15.05Q176.6 109.6 180.8 138q3.15 21.05-5.15 34.75"/><path fill="#776b59" d="M77.6 201.95q-1.1 1.8-.75 4.05.45 3.15 3.8 6.65 4.4 4.6 11.2 5.5L66.6 226.5q-5.5 1.8-7.65.9-1.8-.7-1.95-3.65-.1-.45 1.7-2.05 2.35-2.1 5.9-3.55 2.05-.85 5.25-1.2 1.95-.2 1.8-1.05-.3-1.6-3-1.4-2.2.2-5.3 1.4-2.6 1.05-5.05 3.05l-1.85 1.65.7-3.95 1.55-1.2q1.9-1.4 3.9-2.3 1.3-.6 5.4-1.4 3-.65 2.85-1.3-.25-1.35-3.2-.95-2.55.3-5.05 1.5-4.6 2.15-4.4 1.8 1.25-2.75 7.15-5.85 4.95-2.55 12.25-5m141.6 22.3q1.15 1.85 1.65 3.5.65 2.15-.15 3l-.55-1.1q-.85-1.95-2.85-3.95-2.95-3-3.75-2.2-.15.2 1.95 2.7 2.6 3.1 3.45 4.5 1.95 3.15 1.45 5.15-.7 4.5-4.6 5.9l-.25-3q-.55-3.35-2.1-5.25-2.3-2.75-3.55-3.6l-2.85.1 1.6 1.7q2.15 1.95 3.1 3.55 1.25 2.15 1.6 4.85.3 2.45-.2 2.45-3.15.25-5.25-1.25l-12-9.7-17.3-14.4 8.7-.25q4.65-.55 6.4-1.5 7.8-4.3 5.95-8.15l-1.5-2.75q16.1 11.95 21.05 19.7"/><path fill="#f2e100" d="M206.95 22.15q6.35 1.55 11.1 3.1-3.35 3.3-3.15 7.6.1 2.45 2.25 8.75 1.75 5.2 1.35 4.95-5.15-3.1-14.95-7-11.9-4.7-20-5.9l-1.45-.25q-3.6-4.4-.8-8.05 2.25-2.95 6.8-3.8 9.25-1.65 18.85.6"/><path fill="#cbbd00" d="M241.6 19.9l-6.3-.65q-7.8-.35-14.3 3.7l-2.95 2.3q-4.75-1.55-11.1-3.1-9.6-2.25-18.85-.6-4.55.85-6.8 3.8-2.8 3.65.8 8.05-4-1-5.5-3.95-.95-1.85-1.05-5.5-.05-2.25 1.2-3.9 1.4-1.9 4.75-3.4 7.6-3.35 20.75-3.75 8.65-.3 24.65 3.05 14.65 3.1 14.7 3.95"/><path fill="#0d131a" d="M79.85 127q.7-.3 2.3 2.45.2.3 4.35-3.15 5.55-4.6 11.5-6.75 2.7-1 1.2-6.85-1.05-3.95-3.55-8.9-1.6-3.25-1-4.55.55-1.2 1.9.4 3.5 4.05 6.5 10.6l6.7 14.65 5.55 10.5q2.85 5.25 3.7 8.1 2.35 7.3-4.25 11.9-4.45 3.15-12.9-1.3-9.3-4.9-17.55-16.4-3.55-4.95-4.25-7.3-.95-3.1-.2-3.4"/><path fill="#f9be00" d="M102.15 112.8l4.4 10.35 2.55 5.35-2.15.15q-1.15.35-1.45 1-.45 1.1.7 4.15 1.05 2.85.9 3-1 .85-2.45-.3-1.55-1.2-2.05-.95-.9.45-1 1.5-.15 1.25-.8 1.8-.7.55-1.6.45-.65-.1-2.1-.75-.85-.4-1.85.5-.95.8-.9 1.65l-.1 2.1-1.6-1.35q-5.5-5.6-9.05-10.15l-1.05-1.45L81 128q-2.35-5.95-.8-15.1.7-7.7 1.45-10.75 1.2-5.15 5.1-4.95 7.2.35 11.5 7.5 1.65 2.75 3.9 8.1"/><path fill="#d7a400" d="M83.6 131.3q3.55 4.55 9.05 10.15l1.6 1.35q-.4 1.6-1.55 1.4-3.55-3.65-7-8.35-3.4-4.7-4.7-7.85l1.55 1.85 1.05 1.45"/><path fill="#776b59" d="M98.8 146.3l-4.5-3.35-.1.05.15-2.3q-.05-.85.9-1.65 1-.9 1.85-.5 1.45.65 2.1.75.9.1 1.6-.45.65-.55.8-1.8.1-1.05 1-1.5.5-.25 2.05.95 1.45 1.15 2.45.3.15-.15-.9-3-1.15-3.05-.7-4.15.3-.65 1.45-1l2.15-.15 7.4 13.55q2.5 6-.2 9.55-2 .9-3.4.9t-5.3-1.4q-3.9-1.4-8.8-4.8"/><path fill="#594f41" d="M92.7 144.2q1.1.2 1.5-1.2l.1-.05 4.5 3.35q4.9 3.4 8.8 4.8 3.9 1.4 5.3 1.4t3.4-.9q-1 1.25-2.55 2.3-2.95 2.05-8.75-.55-5.95-2.7-12.3-9.15"/><path fill="#0d131a" d="M165.4 96.15q.45-1.75 1.35-1.1.95.6.3 2.9-.45 1.6-.7 9.1-.25 7.85.5 7.9 1.25.1 11.35 4.85 9.4 3.45 9.1-2.25-.2-4.8.9-6.6 1.1-1.75 1.8 1.35.7 2.9.05 8.6l-1.15 6.9q-2.9 13.55-10.75 21.35-6.95 6.9-12.45 5.25-4.2-1.25-5.85-3.7-1.45-2.15-1.35-6.1.05-2.3 1.1-8.9 1.05-7.1 1.35-11.95.6-9.95 1.9-16.8l2.55-10.8"/><path fill="#f9be00" d="M170.4 92.35q2.95-.15 8.5 6 5.55 6.3 6.35 6.3 2.75.05 3.25 6-.2.1-.25.65-.9 5.25-4.35 13.35-1.15 2.8-3.25 6.4l-2.8 4.75-1.55.55q-.7.05-1.4-.5l-.65-.95-1.05-2.45q-1-1.9-2.9-2.65l-3.1-.3-5.2.85.8-6.35q1.35-13.7 3.1-21.8 2.1-9.65 4.5-9.85"/><path fill="#d7a400" d="M188.5 110.65q.35 3.7-.25 8.7-.55 4.65-1.6 8.35-1.75 5.65-3.8 9.8.25-1.45-.6-2.5-.95-1.2-2.55-.3l-1.85 1.1 2.8-4.75q2.1-3.6 3.25-6.4 3.45-8.1 4.35-13.35.05-.55.25-.65"/><path fill="#776b59" d="M162 130.35l5.2-.85 3.1.3q1.9.75 2.9 2.65l1.05 2.45.65.95q.7.55 1.35.55l1.5-.55-7.35 11.85q-1.75 2.45-4.4 3.35-1.3.45-.6 1.05-5.1-1.9-5.3-7.45-.05-1.65 1.9-14.3"/><path fill="#594f41" d="M170.4 147.7l7.35-11.85 1.95-1.15q1.6-.9 2.55.3.85 1.05.6 2.5-3.85 7.8-8.75 12-4.7 3.9-8.05 2.85l-.65-.25q-.7-.6.6-1.05 2.65-.9 4.4-3.35"/><path fill="#0d131a" d="M79.85 127q.7-.3 2.3 2.45.2.3 4.35-3.15 5.55-4.6 11.5-6.75 2.75-1 1.2-6.85-1-3.9-3.55-8.9-1.95-3.95-1.4-5.1.5-1.1 2.3.95 3.25 3.75 6.45 11.1 4.5 10.25 7.15 14.9 8.1 14.3 9.3 19.6 1.4 6.35-3.95 10.15-4.5 3.15-13.3-1.3-9.7-4.95-17.9-16.4-3.55-4.95-4.25-7.3-.95-3.1-.2-3.4"/><path fill="#f9be00" d="M102.15 112.8l4.4 10.35 2.55 5.35-2.15.15q-1.15.35-1.45 1-.45 1.1.7 4.15 1.05 2.85.9 3-1 .85-2.45-.3-1.55-1.2-2.05-.95-.9.45-1 1.5-.15 1.25-.8 1.8-.7.55-1.6.45-.65-.1-2.1-.75-.85-.4-1.85.5-.95.8-.9 1.65l-.1 2.1-1.6-1.35q-5.5-5.6-9.05-10.15l-1.05-1.45L81 128q-2.35-5.95-.8-15.1.7-7.7 1.45-10.75 1.2-5.15 5.1-4.95 7.2.35 11.5 7.5 1.65 2.75 3.9 8.1"/><path fill="#d7a400" d="M83.6 131.3q3.55 4.55 9.05 10.15l1.6 1.35q-.4 1.6-1.55 1.4-3.55-3.65-7-8.35-3.4-4.7-4.7-7.85l1.55 1.85 1.05 1.45"/><path fill="#776b59" d="M98.8 146.3l-4.5-3.35-.1.05q.25-.8.15-2.3-.05-.85.9-1.65 1-.9 1.85-.5 1.45.65 2.1.75.9.1 1.6-.45.65-.55.8-1.8.1-1.05 1-1.5.5-.25 2.05.95 1.45 1.15 2.45.3.15-.15-.9-3-1.15-3.05-.7-4.15.3-.65 1.45-1l2.15-.15 7.4 13.55q2.5 6-.2 9.55-2 .9-3.4.9t-5.3-1.4q-3.9-1.4-8.8-4.8"/><path fill="#594f41" d="M92.7 144.2q1.1.2 1.5-1.2l.1-.05 4.5 3.35q4.9 3.4 8.8 4.8 3.9 1.4 5.3 1.4t3.4-.9q-1 1.25-2.55 2.3-2.95 2.05-8.75-.55-5.95-2.7-12.3-9.15"/><path fill="#0d131a" d="M165.4 96.15q.75-3.05 1.7-2.45.9.65-.05 4.25-.45 1.6-.7 9.1-.25 7.85.5 7.9 1.25.1 11.35 4.85 9.4 3.45 9.1-2.25-.2-4.8.9-6.6 1.1-1.75 1.8 1.35.65 2.85-.25 8.6l-1.4 6.9q-2.95 13.6-10.5 21.35-6.7 6.85-12.15 5.25-7.65-2.25-7.7-9.7 0-2.75.95-8.85l1.75-12.1q1.15-10.35 2.3-16.8.8-4.3 2.4-10.8"/><path fill="#f9be00" d="M170.4 92.35q2.95-.15 8.5 6 5.55 6.3 6.35 6.3 2.75.05 3.25 6-.2.1-.25.65-.9 5.25-4.35 13.35-1.15 2.8-3.25 6.4l-2.8 4.75-1.55.55q-.7.05-1.4-.5l-.65-.95-1.05-2.45q-1-1.9-2.9-2.65l-3.1-.3-5.2.85.8-6.35q1.35-13.7 3.1-21.8 2.1-9.65 4.5-9.85"/><path fill="#d7a400" d="M188.5 110.65q.35 3.7-.25 8.7-.55 4.65-1.6 8.35-1.75 5.65-3.8 9.8.25-1.45-.6-2.5-.95-1.2-2.55-.3l-1.85 1.1 2.8-4.75q2.1-3.6 3.25-6.4 3.45-8.1 4.35-13.35.05-.55.25-.65"/><path fill="#776b59" d="M162 130.35l5.2-.85 3.1.3q1.9.75 2.9 2.65l1.05 2.45.65.95q.7.55 1.35.55l1.5-.55-7.35 11.85q-1.75 2.45-4.4 3.35-1.3.45-.6 1.05-5.1-1.9-5.3-7.45-.05-1.65 1.9-14.3"/><path fill="#594f41" d="M170.4 147.7l7.35-11.85 1.95-1.15q1.6-.9 2.55.3.85 1.05.6 2.5-3.85 7.8-8.75 12-4.7 3.9-8.05 2.85l-.65-.25q-.7-.6.6-1.05 2.65-.9 4.4-3.35"/><path fill="#0d131a" d="M123.9 41.65q.1.7-.5 1.3-.8.75-2.35.95-2.9.45-3.35-1.15-.25-.9.45-1.7.8-.75 2.25-.95 1.45-.2 2.5.4.95.5 1 1.15m5.7 6.85l4.15 1.2q1.05 5.5-1.15 12.8-2.25 7.5-5.7 8.45-4.7 1.35-9.55-6.1-3.7-5.6-5.9-13l3.85-2q4.5-2 7.45-2.3 2.3-.2 6.85.95"/><path fill="#b50005" d="M117.7 61.5q-2.85-4.85-4.45-10.2l3.15-1.6q3.6-1.65 6.05-1.85 2.9-.25 9.45 1.75.7 3.95-.45 9.75-3.65-1.65-7.35-1.2-4 .5-6.4 3.35"/><path fill="#e50012" d="M124.1 58.15q3.7-.45 7.35 1.2-.75 3.65-1.95 6.05-1.3 2.7-2.85 3.1-4.15 1.2-8.95-7 2.4-2.85 6.4-3.35"/><path fill="#0d131a" d="M128.3 49.25l-5.85-.95q-2.55-.05-6.25 2.15-3.8 2.2-5 2.25-2.6.1-4.05-1.2-.95-.9-1.5-2.6l-.15-1.15q.1-.55.4-.65l.7.2.7.95q1.25 2.7 4.25 2.45 1.25-.1 4.85-2.35 3.45-2.2 5.45-2.2l6.3 1.2 5.95 1.2q2.75 0 3.7-1.05.75-.8.35-2.45-.3-1.5.2-1.65.8-.3 1.3 1.2.85 2.6-.6 4.1-1.55 1.6-5.3 1.5l-5.45-.95m-10.55 13.4q-.2.3-.75-.2-.5-.5-.3-.8 2.8-3.65 7.05-4.3 4.4-.7 9.15 2 .3.2-.1.75-.4.6-.7.45-3.45-2-7.85-1.35-4.35.65-6.5 3.45"/></svg>