<svg xmlns="http://www.w3.org/2000/svg" width="175" height="199" viewBox="-1.0 -0.8 174.9 199.45"><path fill="#dcc200" d="M164.25 138.65q-3.6 6.15-6.15 9.2-2.45 2.95-5.3 4.6-3.95 2.3-11.2-.1-8.8-2.9-12.05-11.4-3.75-9.9-.85-19.45 3-9.9 11.25-12.3 2.25-.65 5.2-3.4 3.8-3.55 6.15-8.6 5-10.6 4.55-16.45l-.6-4.55q-.2-2.2.45-2.55.9-.5 4.65 3.3 3.95 4 5.75 7.7 6.1 12.55 6.1 20.5 0 6.4-2.15 16.4-2.45 11.4-5.8 17.1m-20.05 24.6q2.9.4 4.8 1.3 2.2 1.35 6.1 7.35 1.25 1.9 2.35 5.7.95 3.4.95 4.9 0 2-2.45 4.65-.9 1.05-4.1 3.3l-5.2 3.2q-3.35 1.55-8.05-.75-2.4-1.2-6.3-4.95-4.2-4.1-6.05-7.4-2-3.6-.3-8.2 1.95-5.1 7.5-7.7 4.95-2.3 10.75-1.4m-42.75-118.6q.75 15.1-1.2 19.4Q98.3 68.3 95.8 72l-2.1 2.8q1.65-5.3 1.4-7.25-.4-3.1-2.4-5.3-3.35-3.6-9.95-2.3-3.05.6-5.1 2.8-.85.9-3.25 4.65-4.45 6.95-12.3 9.3-6.85 2.05-13.85-3.6l-4.95-4q-2.7-1.75-5-1.35-4.45.85-3.7 7.6.35 3.4 1.6 6.6l-4.6-3.35q-5.1-4.05-7.5-7.4-2.85-4.1-4.6-11.15Q17.75 52.8 18 46q-6.6-8.15-9.05-13.15-1.8-3.75-3.05-7.7-1.25-3.95-.85-4.65.5-1 9.5-1.9 9.85-1 15.3.3l5.25-4.3q6.95-4.7 15.4-6.45t17.55-.2q4.55.8 7.4 1.9l3.45-2q4.1-2.2 7.05-3.25 3.9-1.4 7.85-2.4 4.3-1.1 5.1-.8 1.4.65 2.3 7.7 1.15 9.25-.85 21.3l1.1 14.25M19.9 91.4q4.4-3.05 11.6-6.15l6.35-2.5 13.75 7-1.95 2.5q-2.35 3.15-4.3 6.7-1.6 3-3.6 9.8-1 3.4-1.65 6.2-6.35.95-10.6 2.05-4.3 1.1-14.9 2.2l.85-3.3q0-1.2-1.85-3.05-.7-.7-2.05-1.15l-1.25-.3-.85-2.8-.65-1.2-.55-.75q1.15-2.6 3.2-5.8 4.1-6.4 8.45-9.45"/><path fill="#dcc200" d="M95 42.2l4.9-11.55q2.55 4.1 4.8 11 3.25 10.15 4.15 12.3 1.55 3.8 9.25 11.85 8.7 9.15 14.4 19.25 6.5 11.6 7.6 24.65.5 6.5-.25 10.7-6.55-5.5-18.35-7.05l-7.45-.5-3.05.05q.7-12.2-8.55-25.9-2.9-4.3-6.45-8.2l-2.95-3.05 3.3-7.15 1.1-8.3L95 42.2"/><path fill="#dcc200" d="M120.75 86.1q2.95 7.15 1.2 12.75-1.9 6.3-9.6 9.6-7.15 3.1-17.35 5.25-8.85 1.85-13.7 1.85-2.3 0-3.8-.75t-3.15-2.65q-1.9-2.25-2.55-3.8-.9-2.1-.65-5.15.6-6.7 6.75-14.65 5.3-6.8 10-9.3 11.45-6 20.7-3.7 8.75 2.1 12.15 10.55M38.4 126.3l.8 7.15q1.15 8.05 3 12.4 2.25 5.3 6.5 9.6 4.35 4.5 12.3 9.35 6.7 4.15 15.7 6.6 4.5 1.2 7.65 1.6L83 175.45q-1.95 2.9-5 5.35-3.25 2.6-7.6 4.9-3.55 1.8-5.35 2.3l-5.4-.3q-4.2-.8-6.2-2.4-1.85-1.45-1.75-4.8l.5-3.1q-9.2-2.4-15.45-8.35-8-7.6-8-18.55 0-10.1 4.85-18.15 1.5-2.55 3.3-4.55l1.5-1.5m55.45-2.45q10.25-10.8 21.55-10.8 16.25 0 26.7 9.45 10.95 9.9 10.95 26.55 0 7.35-3.2 13.8-3.25 6.45-9.35 11.3-4.2 3.3-12.1 5.3-6 1.55-9.6 1.55-13.05 0-23.1-9.3-10.2-9.35-11.45-22.8-1.25-13.6 9.6-25.05"/><path fill="#f2d4b4" d="M18.15 40.05q-4.4-4.55-6.25-8.1-1.15-2.2-2.2-4.9l-.85-2.3q3.55-.25 7.2.15 3.65.35 6.95 2.05l-2.45 5.75-2.4 7.35M83.4 15l2.05-1.45q2.5-1.65 4.65-2.7 3.4-1.75 7.2-2.35 1.1 4.9.6 8.95-.45 4-2.05 10-3.55-4.9-5.85-7.35-1.45-1.5-4.2-3.45L83.4 15m2.4 44.7q8.25 0 9.3 7.85.2 1.25-.7 4l-1.75 4.05q-.65 1.1-3.6 3.05-3.4 2.15-4.7 3.05-1.6 1.15-4.75 4l-4.9 4.55q-2.1 1.95-4.6 3.3-2.5 1.4-4.2 1.6-1.45.15-3.8-.6l-3.3-1.25q-1.55-.6-9.5-4.75l-5.55-2.75-6.3-3.35q-1.8-1.1-2.3-4.95L35 73.9q1.25-3.75 4.8-4.55 3.7-.85 6.9 2.35 2.9 2.9 7.3 4.35 3.2 1 6.05 1 3.85 0 7.8-2.9 4-2.95 7.45-8.45 1.85-2.95 5.1-4.6 2.75-1.4 5.4-1.4"/><path fill="#f2d4b4" d="M51.2 89.6l5.9 3.2q1.65.95 4.45 1.8 3.05 1 4.6.9 2.2-.1 10.15-5.85l-3.2 6.95q-3.6.5-6.25 2.4-2.35 1.65-2.05 2.75.35 1.2 3.55 1.7-1.65 1.35-3.1 5-1.5 3.9-.3 4.9 1.05.9 4.8-.6l3.5-1.7 2.3 2.65-.1 3.1q.1 3.2.95 3.4 1.35.35 7.45-5l2.9-.35 7.85-1.4q6.6-1.3 16.55-3.95l.35 3.9q-2.75 0-7.05 2.2-4.9 2.5-9.1 6.6-11.25 10.9-11.25 26.05 0 8.9 7 18.45 3.5 4.8 7 7.8-25.5 0-42.95-13.85-16.65-13.15-16.65-30.8 0-15.7 6.35-29.55 2-4.3 4.35-7.95l2-2.75"/><path fill="#eeeeef" d="M67.8 98.2q1.1-.65 3.25-1.2l1.9-.45-1.2 4.95-3.65 2q-2.95-1.45-3.05-2.1-.1-.55.65-1.45.8-1 2.1-1.75"/><path fill="#d1b89d" d="M51.2 89.6l4.15 2.25q4.35 2.3 5.65 2.7 4.45 1.25 6.35.6 1.5-.5 6.25-4.05l2.2-1.6-1 4.55-1.85 2.5-2.05.5q-2.2.6-3.1 1.15-1.4.85-2.85 2.3-2.15-.15-4.9-1.55-5.6-2.9-8.85-9.35m-.35 57.95q16.15 14.9 37.5 14.9l2.75 4.4q3.45 4.9 7 7.65-6 .05-14.3-1.6-16.6-3.25-27.9-11.6-11.3-8.35-15.2-19.35-1.25-3.45-1.6-6.75l-.1-2.6 2.9 4.65q3.9 5.6 8.95 10.3"/><path fill="#b49f00" d="M166.25 89.5l-.7-6.1q5.5 9.7 6.4 20.1.95 11.25-3.45 24.7-3.8 11.65-10.1 19.1-3.2 3.75-5.6 5.15.65-2.35-.25-9.3l-1-6.45q12.85-9.85 14.7-32.55.6-7.1 0-14.65m-43.85 5.3l-.05 1.7q-.25 2.1-1.15 4.05-2.75 6.3-10.7 8.95-7.95 2.65-17.8 4.35L84.45 115q.9-2.1.6-2.5l-.95-1.4 5.1-1q6.2-1.35 11.65-3.05 17.6-5.4 21.55-12.25M15.35 115.35q10.2-2.65 19.65-6l7.4-2.8-2.3 8.4q-6.8 1.7-25.5 4.25l.75-3.85"/><path fill="#b49f00" d="M90.8 166l3.6 1.3q4.55 1.5 9.2 2.3 15.05 2.6 26.15-2.3 11.1-4.85 17.55-17.4 3.25-6.3 4.25-11.6 2.95 9.8-.3 20.7-3.95 13.3-15.8 18.25-19.2 8.1-33.85-.75-4.55-2.8-8.15-6.9L90.8 166"/><path fill="#b49f00" d="M155.1 171.9q-4.65.75-9.95 3-10.6 4.55-13.65 12.3-4.15-4-5.25-6.65-.8-1.95 10.7-9.3 11.45-7.35 13-6.2 1.3.95 3.25 3.75 1.7 2.4 1.9 3.1m-122.3-8.15l2.75 1.95q3.55 2.25 7.45 3.65 12.4 4.5 23.5-1.2l6.6 2.2q7.35 2.3 11.25 2.65l-2.55 3.75q-3.4 4.3-7.8 7l-2.8-2.6q-3.3-2.55-5.85-2.45-4.9.25-7.7-.05-5.55-.55-11.2-3-5.35-2.35-10.05-7.35l-3.6-4.55"/><path fill="#c8c9ca" d="M65.05 101.4q4.25.6 5.85 0l-2.8 2.1-1.3-.4q-1.35-.65-1.75-1.7"/><path fill="#0d131a" d="M85.5 79.95q5.35-3.2 9.15-7.7 3.85-4.5 5.3-9.3.65-2.15 1.1-2 .5.15-.1 2.3-3.1 11.7-14.15 18.2-3.5 2.1-7.25 5.65l-6.5 5.75q-3.6 2.75-6.25 3.1-4.5.65-10.1-2.2-5.55-3.35-7.25-4.1Q30.4 80.9 24.1 72.95q-7.45-9.5-6.45-27.65.05-1.2.5-1.2t.45 1.2q0 16.3 6.75 25.45 6.8 9.2 24.85 17.35 3.05 1.4 8.4 4.35 4.6 2.2 7.95 1.85 2.3-.25 5.75-2.95l6.1-5.45q4.85-4.65 7.1-5.95"/><path fill="#0d131a" d="M99.6.25q2.6 1.35 2.95 12.05.3 10.7-2 19.25-.7 2.7-1.25 2.6-.5-.1.1-2.8 1.85-8.05 1.25-18.45-.6-9.65-2.25-10.55-1.05-.55-8.3 2.05-6.7 2.4-14.45 5.95l-.55.05Q61.5 6.8 49.85 9.35q-11 2.4-19.45 10-.3.3-.75.2L15.5 19q-8.4.75-9.4 1.75-1.05 1.1 2.1 8.25 3.7 8.25 10.05 16.25-.1 1.45-.35 1.2-5.95-5.65-10.65-14.9T4.2 19.45Q5 18.1 14 17.4q9.7-.75 15.6.95Q39 9.7 50 7.2q11.85-2.65 25.25 2.05 5.8-3.6 13.75-6.7Q97.6-.8 99.6.25m-68.75 56.3q4-1.2 7.8 2.05 3.25 2.85 5.65 8.3 1.35 3.25 1.7 5.65.4 2.95-.85 3.8Q41.9 78.5 36 75.3q-6-3.25-8.1-8.5-1.3-3.3-.35-6.45.95-3.1 3.3-3.8M91.1 47.7q3.5 1.6 4.75 5.8 1.45 4.9-.25 8.95-1.8 4.3-6.7 6.8-7.2 3.55-9.7 2.55-1.55-.65-2.3-6.65-.8-6.25.5-9.7 1.1-2.95 3.05-5.15 1.8-2 3.55-2.7 3.75-1.45 7.1.1"/><path fill="#0d131a" d="M34.2 73.8q.1-.3.8.25.75.55.65.9-.85 3.4 1.7 6.45.25.25-.2.55l-.7.05q-1.8-1.7-2.35-4-.5-2.1.1-4.2m42.1-10.2q1.15-1.55 1.4-1.3.3.25-.6 1.8-3.5 6.3-6.8 9.3-3.4 3.15-7.9 4-5 .95-9.65-.95-4.1-1.65-7.4-5.25-1.4-1.55-1-1.9.35-.35 1.85 1.05 3.95 3.7 7.7 4.95 3.8 1.3 8.2.45 3.85-.7 6.4-2.9 2.55-2.2 7.8-9.25m17.4 1.5q-.2-.25.35-1t.75-.5q1.35 1.7 1.15 4.65-.25 3.35-2.5 6.7l-.7.15q-.5-.1-.3-.4 1.55-2.7 1.8-5.85.2-2.7-.55-3.75M9.55 25.4q3.15 7.85 8.35 13.45 1.3-5.45 4-11.45-4.8-2.15-12.35-2m-1.4-.85l.9-.25q5.9-.3 10.6.75 2.75.6 3.75 1.2.7.35.35 1.05-1.9 4.1-3.35 8.1-1.5 4.25-1.7 6.3-.2 1.3-.55 1.55-.4.25-.45-1v-1.3q-2.35-2.45-5-6.65-3.05-4.85-4.4-8.95-.25-.65-.15-.8M96.75 9.3q-2.9.7-6.4 2.35-3.6 1.6-5.75 3.2 5.3 3.1 11.1 11.5Q98.45 15.5 96.75 9.3m.4-1.8q.65-.15.9.45.8 1.8.9 5.05.3 6.45-2.4 14.85-.55 1.7-1.5.2Q92.3 23.6 89 20.5q-3.25-3.1-6.05-4.5l-.75-.6q-.05-.3.55-.8 2.3-2 6.55-4.15 4.55-2.3 7.85-2.95m-46.2 82.1l.65.05q.45.25.2.5-5.45 5.65-8.85 17.2-3.3 11.05-3.3 22.35 0 7.2 3.85 14.8 4 7.9 11.3 14.25 17.25 15.05 43.95 15.05.35 0 .6.55t-.1.55q-25.35 0-43.1-12.15-18.8-12.85-18.8-33.05 0-11.5 3.75-22.75 3.8-11.55 9.85-17.35m48.8-57.7q-.1-.25.45-1.4.5-1.15.7-.85 1.7 2.95 4.6 12.35 3.1 9.85 3.55 10.8 2 4.1 4.45 7.05l5.25 5.55q11.65 11.65 17.4 25.25 5.6 13.2 4.55 25.65-.2 2.15-.7 2.05-.5-.1-.4-2.05.5-11.6-5.2-24.9-6-14-16.85-24.85-3.35-3.35-5.2-5.85-2.15-2.95-4.4-7.55-.65-1.3-3.8-10.15-3.15-8.65-4.4-11.1"/><path fill="#0d131a" d="M143.35 122.05q10.55 10.1 10.55 25.9 0 7.2-1.95 12.3-1.7 4.55-5.95 9.7-1.5 1.85-1.95 1.5-.5-.35 1-2.2 3.8-4.7 5.3-9.35 1.5-4.65 1.5-11.95 0-16.45-11.35-25.9-9.95-8.3-24.15-8.3-11.05 0-20.7 9.15-10.2 9.65-10.2 22.1 0 13.85 8.95 24.05 9.65 11.1 24.75 11.1 4.45 0 8.6-.95l6.3-2q2.5-.95 2.7-.5.25.45-2.15 1.55-2.5 1.1-5.6 2.05-5.4 1.55-9.85 1.55-15.9 0-26.4-11.65Q83 159.4 83 145q0-13.1 11.15-23.3 10.5-9.65 22.2-9.65 16.45 0 27 10"/><path fill="#0d131a" d="M148.95 165.45q-.35-.1-.15-.7.15-.55.5-.45 2.9 1.1 5.75 5.95 2.95 5.05 4.4 11.6.4 1.8-1.7 4.55-1.85 2.45-4.8 4.7-3.85 2.9-7.4 3.8-3.55.9-6-.4-4.7-2.5-8.4-6.3-3.5-3.55-5.65-7.7-.15-.3.35-.6l.65.05q2 3.75 5.6 7.15 3.65 3.4 8.25 5.9 2.2 1.2 5.65.05 2.95-1 5.95-3.3 2.75-2.1 4.5-4.35 1.6-2.15 1.4-3.2-1.45-6.5-4.15-11.4-2.5-4.5-4.75-5.35M38.55 125.1q.25-.2.65.15.35.4.05.6-3.75 2.85-6.5 9.1-3.05 6.9-3.05 14.35 0 16.5 15.8 24.8 6.65 3.45 14.15 4.15 7.55.65 13.5-1.75l1.65-.15q.15.45-1.3 1-6.25 2.5-14 2.05-8-.4-14.85-3.8-16.6-8.1-16.6-26.3 0-7.8 3.4-14.85 2.95-6.3 7.1-9.35"/><path fill="#0d131a" d="M52.55 182.2q.6 2.35 2.1 3.1 2.55 1.25 6.4 1.7l5.6-.3q6.55-2.85 11.5-7 4.15-3.5 5.95-6.75l.6-.1q.45.2.25.5-2.2 3.85-6 7.35-4.95 4.6-11.6 7.5-2.2 1-6.55.45-4.15-.5-6.9-1.85-2.3-1.15-2.75-4-.45-2.7.95-5.2l.6-.1q.45.2.3.5-1 1.8-.45 4.2M36.6 82.2q.25-.1 1.05.55.75.65.45.7-10.5 3.45-17.7 9.2-7.2 5.7-11.8 14.3L8 107q-.45-.2-.3-.55 5-9.9 11.8-15.45 6.3-5.1 17.1-8.8m3.7 31.5q.3-.05.1.8l-.35.95-10.1 2.05-15.4 2.4q-.35.1-.3-.45 0-.5.35-.6 16.7-2.85 25.7-5.15m79.2-28.25q-2.2-3.85-6.05-6.35-4.5-2.95-10-3.25-5.55-.35-10.8 1.95-8.75 3.85-14.75 11.95-6.05 8.05-6.05 15.9 0 3.1 2.9 6.25 2.8 3.05 5.2 3.05l7.85-1.05 14.1-2.85q12.4-2.9 16.7-7.7 3.05-3.4 3.05-9.8 0-4.3-2.15-8.1M91.95 76.3q5.7-2.55 11.85-2.25 6.2.3 11 3.4 4.2 2.75 6.6 6.95 2.35 4.2 2.35 8.9 0 7.35-4.15 11.5-4.9 4.95-17.35 7.9l-13.95 2.55-8.35.9q-3.05 0-6.15-3.35-3.15-3.45-3.15-7.25 0-8.5 6-16.8 6.05-8.35 15.3-12.45"/><path fill="#0d131a" d="M66.9 98.3q3.1-1.75 5.75-2.05.75-.05.8.35 0 .4-.7.5-3.05.55-5.25 2.05-1.8 1.25-1.8 2.05 0 .55.85 1l2.1.65q.55.1.45.45-.05.4-.65.4l-3.45-.55q-1.15-.6-1.15-1.9 0-1.2 3.05-2.95m106.4 9.2q-.75 16.15-7.35 29.5-5.8 11.8-13.3 16.45-.3.15-.5-.4-.25-.6-.05-.7 7-4.35 12.3-16.05 5.9-12.95 6.6-28.85l.05-1.3q0-8.05-3.95-16.85-3.6-8.05-8.7-13.1-1.9-1.95-2.25-1.8-.35.25.15 2.5l.45 4.8q0 7.55-5.55 17.6-5.85 10.6-11.25 10.6-.35 0-.35-.8 0-.85.35-.85 5.35 0 10.8-11.55 5.45-11.5 3.9-19.5-.65-3.6.7-4.3.95-.5 3.9 2.05 3.25 2.75 6.3 7.15 8.35 12.15 7.75 25.4M88.9 27.4q7.3 6.4 10.25 15.95 3.1 10.1.85 22.35l-.7.5q-.6.2-.55-.15 4.65-25.2-11.85-38.1-7.15-5.65-17.05-7.5-9.65-1.8-19.8.4-12.6 2.7-21.9 13.25-9.25 10.4-9.05 21.2l-.6-1.8q-.2-11.35 8.85-21.35Q36.5 22.1 49.7 19.2q11.6-2.5 21.95-.25 10.1 2.15 17.25 8.45"/><path fill="#0d131a" d="M93.05 49.3q.25.4-2.4-1.2-4.95-4.3-14.85-5.65-9.85-1.3-20.1.95-6.8 1.5-12.95 5.25-6 3.6-9.95 8.35-.2.3-1.05.3-.85 0-.65-.3 3.95-5.5 10.45-9.7 6.55-4.2 13.7-5.8Q66.5 39 77.1 40.95q11.15 2.1 15.95 8.35M44.3 66.9q5.05-4.9 15.6-6.45 9.95-1.45 17 .95.35.1.45.7.15.65-.2.55-7.45-2-17.7-.4-10.3 1.6-14.8 5.5-.25.25-.45-.15-.15-.45.1-.7M50.65 8q.1-.3.55-.3.4 0 .3.3-.55 1.6-.3 5.45.2 3 .75 6.05.05.35-.75.5-.8.15-.9-.2-.95-8.25.35-11.8"/><path fill="#0d131a" d="M31 29.55q-.05-.25.75-.75.75-.5.8-.2.55 4.6 2.3 10.3 2 6.35 4.5 10.6.2.3-.35.6l-.7-.05q-2.75-4.3-4.8-10.35-1.85-5.4-2.5-10.15m23.7 13.2q-.05-.35.75-.5.85-.15.9.2l3.3 18.6q.1.35-.55.5-.65.15-.75-.2l-3.65-18.6m18.7-22.3l.85-.05q.85.25.85.45.45 4.4.4 10.35-.05 6.9-.8 10.05-.05.35-.65.3-.6 0-.55-.35.7-2.95.55-10.1-.15-5.8-.65-10.65M29.3 86.6q-.35 0-.2-.4.15-.4.5-.4 5.75 0 10.35 5 4.6 5.05 4.6 11.5 0 .35-.7.45-.7.15-.7-.2 0-5.85-4.4-10.9-4.4-5.05-9.45-5.05m-13.55 9.5l5.7.3q2.9.8 5.05 2.8 6.65 6.15 5.65 16.3-.05.25-1.1.65l-1.05.05q.8-4.7-.4-8.8-1.2-4.15-4.2-7-2.25-2.1-4.95-2.9l-5.25-.25q-.3.1-.05-.5t.6-.65"/><path fill="#0d131a" d="M35.3 87.8q.35-.1.75.3.45.35.15.55l-5.95 3.5q-5.05 3.15-7.9 5.5-.3.2-1.05-.35t-.5-.75q3.3-2.6 8.05-5.35 4.2-2.5 6.45-3.4m51.35.95q4.55 1.55 7.6 6 3.05 4.4 3.15 9.45.15 5.45-3.35 9.35-.25.3-.75.2-.55-.1-.3-.35 3.2-3.95 2.9-9.3-.25-4.95-3.25-9.05-3.05-4.15-7.25-5.25-4.7-1.2-9.1 2.1-.3.25-.1-.9.2-1.15.55-1.35 4.95-2.65 9.9-.9m4.4-10.95q6.15.35 10.9 3.9 4.4 3.25 6.65 8.5 2.25 5.1 1.75 10.45-.5 5.55-3.85 9.65-.25.3-1 .3t-.5-.25q3.65-3.75 3.85-9.55.2-5.35-2.5-10.6-2.75-5.3-7.2-8.25-4.85-3.2-10.2-2.45-.45.1.55-.85 1-.9 1.55-.85"/><path fill="#0d131a" d="M100.95 82.55q.3-.1.8.3t.2.5Q100 84 96.1 86.3q-3.95 2.35-6.85 4.55-.25.2-1-.35-.75-.6-.5-.8 2.55-1.9 6.85-4.15 3.6-1.9 6.35-3m8.4 15.6Q113 96.9 116.6 95q3.25-1.7 5.25-3.2.25-.2.4.35.15.6-.1.8-5.8 4.45-12.45 7.25-.3.1-.45-.9-.2-1.05.1-1.15m2.15-38.95q-.1-.35.55-.15l.75.75q2.25 10.1-2.4 16.9-.2.25-1.1-.25-.9-.55-.7-.85 2.5-3.6 3.1-7.4.65-3.65-.2-9"/><path fill="#0d131a" d="M125.85 74.55q.85-.2 1 .6 1 4.45-.3 9.65-1.15 4.55-3.5 7.8-.55.65-1.2.15l-.3-.55q-.05-.35.15-.6 2.2-3 3.25-7.3 1.15-4.8.25-8.75l.1-.65q.2-.25.55-.35"/><path fill="#0d131a" d="M112.6 68q-.15-.15.05-1 .2-.9.45-.7 2.9 2.45 6.4 6.2 4.7 5.1 6.65 8.8.2.35.05 1.3-.15 1-.3.7-2.15-5.25-13.3-15.3m-2.3 41.2q-.05-.35.55-.4.65-.05.75.25.7 2.3.25 4.2l-.65.35q-.55.1-.55-.25l-.35-4.15m25.15-16.5q-.05-.35.45-.15l.5.5q.2 6.3-1.8 11.9-2.05 5.85-6.15 10.1-.25.25-.8-.35-.6-.6-.4-.85 3.95-4.05 6.4-10.35t1.8-10.8"/><path fill="#0d131a" d="M123.15 90.55q-.05-.15.2-.65t.45-.25q4.8 5.5 8.35 18.55l-.45.75-.6.1q-.95-3.3-3.45-8.95-2.2-5.15-4.5-9.55m10.25 26l.9-.1q.8.2.7.55-1.4 4.95-7.45 9.95-5.65 4.6-13.7 8-7.95 3.35-15.4 4.3-7.95 1.05-12.75-1.1-.4-.15-.05-.85.35-.7.8-.5 4.3 1.95 11.9.75 7.05-1.05 14.8-4.4 7.75-3.35 13.2-7.7 5.85-4.65 7.05-8.9m13.3 12.35q-.05-.35.6.1l.6.85q-.3 7.8-5.95 15.3-5.45 7.2-14.25 12.2-9.05 5.05-19 6.25-10.8 1.3-20.2-2.35-.25-.1-.35-.75-.1-.65.2-.5 8.8 3.7 19.6 2.15 9.9-1.4 19.15-6.7 9-5.15 14.35-12.2 5.65-7.4 5.25-14.35m5.6 19.05q.05-.35.3.1l.2.75q-1.85 14.05-17.8 23.1-15.15 8.6-30 6.25l-1.8-.95q-1.3-.9-.9-.8 14.9 3.65 31.65-6.05 7.55-4.3 12.4-10.1 5.15-6.1 5.95-12.3"/><path fill="#0d131a" d="M103.35 137.1q-.05-.35.75-.5.8-.15.85.2 1 5.4 2.8 11.55 2.15 7.3 4.85 13.3.1.25-.85.7l-1.1.1q-4.75-10.5-7.3-25.35m22.6-10.2q-.25-.2.15-.7.4-.45.65-.25 4.1 3.25 8 8.4 3.95 5.25 6.3 10.65.15.3-.65.9-.85.6-.95.3-2.15-5.05-6.35-10.9-3.85-5.3-7.15-8.4m31.25-4.35q-3.05-4.15-7.4-6.4-4.35-2.2-9.5-2.2-.35 0-.35-.6t.35-.6q5.65 0 10.25 2.1 4.9 2.25 8 6.55 3.45 4.7 4.2 10.65.65 5.75-1.25 11.65-.1.35-.65.3-.5 0-.45-.35 1.75-5.4.9-11t-4.1-10.1m5.45-17.15q6.8 5.3 7.45 17.05l-.55 1.45-.55.5q-.8-12.1-7.85-17.55-6.7-5.15-14.45-1.2-.35.15-.05-.6t.75-.95q8.55-3.9 15.25 1.3m5.2-7.3q-2.45-2.6-5.85-3.4l-5.65.3q-2.95.95-4.7 3.25-.3.35.2-1.1.45-1.45.95-1.85 2.15-1.7 4.6-2.4l5.15-.2q6.05 1.35 9.05 9.25.4.95-.25 3.15-.9-4.25-3.5-7m-2.7-13.95q.65.65.6 1.95-1.4-2.5-5.4-2-3.95.45-4.5 3-.1.45-.35-.55-.2-.95.05-1.35 1.8-2.6 4.6-2.95 2.85-.4 5 1.9"/><path fill="#0d131a" d="M168.2 97.6l.45.1.6.8q.4 3.4-.15 7.85-.6 4.3-1.65 6.3l-.9-.1q-.75-.4-.55-.7 1.45-2.7 2.05-7.2.5-3.95.15-7.05M42.4 143.25q.35 0 .35.85t-.35.85q-3.7 0-7.05-1.95-3.3-1.95-4.5-4.7-.1-.3.15-.75.2-.5.4-.2 1.35 2.3 4.4 4.05 3.25 1.85 6.6 1.85m-10.9 17.3q-.25-.2-.15-.8.1-.6.35-.4 6.9 5.7 16.15 5.8 7.35.1 11.2-2.5.25-.2.8.65.5.8.25 1-4.4 3-12.05 2.7-9.45-.3-16.55-6.45"/><path fill="#0d131a" d="M35.05 142.3l.85.05q.8.35.8.55.1 6.55 1.2 11.7 1.15 5.2 3.6 10.05.15.3-.45.2-.65-.05-.75-.3-2.9-4.85-4.1-10.3-1.15-5.05-1.15-11.95m39.4 28.25q.2-.3.5-.1.3.15.1.45-2.15 3.65-6.9 5.95-5.7 2.65-13.25 2.3-.35 0-.9-.7t-.2-.7q6.95.3 13.1-2 5.7-2.15 7.55-5.2"/><path fill="#fff" d="M36.3 59.95q1.35-.6 2.8.4 1.6 1 2.45 3.25.85 2.2.45 3.95-.35 1.5-1.45 1.95-1.25.5-2.95-.6-1.5-.95-2.3-2.35-1.15-2.1-.8-4.1.35-1.9 1.8-2.5m45.35 3.3q-1.2 0-2.25-1.6-1.05-1.65-1.05-3.7 0-2.25 1.1-4 1.15-1.8 2.7-1.8 2.05 0 3.2 1.7 1.05 1.55 1.05 4 0 2.3-1.35 3.85-1.4 1.55-3.4 1.55"/><path fill="#eeeeef" d="M8 106.95q.4-.1 1.1 1.25l.9 2.05q.3.9.9 1.15 1.05-.25 2.9 1.65 1.65 1.75 1.9 2.7.2.75-.5 2.4-.7 1.75-1.6 2.55-1 .95-4.2 2.3-3.3 1.45-4.05 1.05-.65-.35-.05-2.95l.75-2.5q-4.2 1.15-5.1.35-.6-.5.25-3.15.7-2.2 1.85-4.4.85-1.65 2.5-3.05 1.5-1.2 2.45-1.4m13.2 8.35q0-1.15 1.4-1.95 1.2-.65 2.45-.65 3.4 0 3.4 2.6 0 1.75-1.7 4.35-1.7 2.55-2.8 2.55-1 0-1.95-3.05-.8-2.55-.8-3.85m49.7-13.55q2.1 0 3.6 1.4t1.85 3.75q.2 1.05-.95 2.5-1.05 1.4-2.45 2.2-1.45.8-4.25 1.55l-3.55.3q-.6-.35-.4-2.75.2-2.15.7-3.25.7-1.55 2.1-3.3 1.9-2.4 3.35-2.4m7.95 17.75q-2.45 1.6-3.05 1.45-.65-.2-.8-3.5-.15-3.4.45-5.55.55-1.95 2.15-3.15 1.35-1 2.55-1 1.1 0 3 2 1.65 1.8 1.9 2.75.4 1.5-2.35 4.05l-3.85 2.95M60 180.9q1.45 0 2.7 1 1.05.9 1.6 2.2.55 1.3.55 2.8-.05 1.65-.85 2.05l-3.8 1.45-4.75 1.45-6.25 1.1-.55-.6-.2-.55q-.8-.1-.9-1.2-.05-1.35.25-3.55.45-2.9 1.25-4.25 1.55-2.65 2.6-3.2l1.5-.4q.95-.05 1.5.35.85.55 1.45 2.3l1.15-.45 2.75-.5m80 13.1q-1.65-2.5-.45-5.55 1-2.5 2.65-3.35 1.9-1.1 4.4-.7l2.1.6q.1-1.9.95-3.15.6-.9 2.5-1.55l3.5-.65q2.4-.15 3.1 7.85.25 2.3-.05 4.9l-.6 3.05q-.35 1.05-1.6 1l-.25.6-.6.9-7.05-.4q-7-1.1-8.6-3.55"/><path fill="#c8c9ca" d="M.95 118.95q4.6-2.3 6.2-3.75l-1.1 3.4q-2.6 1.1-5.1.35m4.1 4.55q8.9-5.75 10-7.2-.35 4.15-1.8 4.85-1.5.75-8.2 2.35m22-10.05l.55.4q.6.4.65.7.45 1.45-.7 3.95-1 2.05-3.8 3.4 1.3-1.7 2.4-5.25l.9-3.2m48.65-7.9l.4 2.05q.15 2.2-.9 2.8-4.75 2.7-7.75 3.1l-2.05-.15q5.05-2.3 8.2-5.25l2.1-2.55m3 13.9l-2.65 1.1q4.6-4.3 6.35-7.8l.85-2.7 1.1 1.3q.75 1.8-1.1 4.3-1.6 2.25-4.55 3.8M64.55 184.7l-.05 2.4q-.95 2.65-5.45 3.95-3.8 1.15-7.5 1.5l-2.9.1q4.55-1.55 10.65-4.9l5.25-3.05m75.5 4.55l3.05 2.75q4.65 3.2 12.6 5.65l-3.1.35q-4.05-.05-8.6-1.9-3.35-1.35-4.25-3.05-.9-1.6.3-3.8"/><path fill="#0d131a" d="M140.15 191.05q0 1.4.5 2.25.7 1.15 7.1 2.85 6.4 1.65 7.55 1l.25-.45q0-.55-1.1-2.1l-1.65-2.35-4.3-6.1q-1-1.1-2.95-1.1-1.9 0-3.15.95-1.1.85-1.7 2.35-.55 1.3-.55 2.7m-.9 3.15q-1.15-1.75-.75-4.8.45-3.3 2.65-4.95 1.65-1.3 4.35-1.15 2.75.1 4.25 1.7l6.05 8.65q1.3 1.75 1.4 2.85.15 1.1-.85 1.9l-4.75.25q-3.35-.5-7.15-1.75-4.4-1.45-5.2-2.7"/><path fill="#0d131a" d="M154.9 178.3q1.9 0 3.35 2.25 1.45 2.2 1.45 4.9 0 5.8-.4 8.3-.4 2.55-1.4 3.3l-1.8.2q-.35-.05-.3-.65 0-.55.3-.45 1 .35 1.5-2.2.65-2.85.45-8.5-.1-1.95-.9-3.35-.85-1.45-2.05-1.45-2.35 0-4.35 1.8-1.95 1.8-1.15 2.85.2.3-.25.65-.45.3-.65 0-1.6-2.25.4-4.95 2.1-2.7 5.8-2.7M60 181.7q-3.7 0-6.95 3.7-1.35 1.5-2.55 3.7-1.15 2.1-1.25 3 1.5.45 7.55-1.55 5.95-1.9 6.95-2.95.9-1-.4-3.4-1.4-2.5-3.35-2.5m-11.95 11.75q-.55-.5.2-2.65.8-2.25 2.4-4.55Q54.95 180 60 180q4.05 0 5.55 4.2 1.35 3.95-.35 5.25-2 1.5-9 3.2-7.15 1.7-8.15.8"/><path fill="#0d131a" d="M53.4 178.2q1.2 0 2.05.9.8.85 1.05 2.3-1.15.8-1.15.35 0-1-.75-1.5-.5-.35-1.2-.35-1.95 0-2.75 1.9-1.45 3.55-2.2 6.6-.65 2.75-.25 2.75.3 0 .5.6.2.65-.1.7-.6.15-1.2-.3-.55-.4-.45-2.7.1-3.35 2.2-8.3 1.2-2.95 4.25-2.95m-25.75-62.75q0-1-.9-1.55-.8-.5-1.95-.5-.9 0-1.8.65-.95.7-.95 1.6 0 2 .65 3.95.6 1.7 1.1 2 .8-.1 2.3-2.35 1.55-2.35 1.55-3.8m.4-2.75q1.25 1.15 1.25 2.75 0 1.9-1.85 4.6-1.95 2.8-3.6 2.8-1.1 0-2.25-2.2-1.2-2.35-1.2-5 0-1.6 1.45-2.85 1.35-1.2 2.95-1.2 1.95 0 3.25 1.1m-13.5-.05q1.9 2 1.9 3.45 0 .85-.65 2.5-.75 2-1.8 2.85-.95.8-4.4 2.1-3.9 1.5-4.9.9-1.2-.85 1-7.25 2.3-6.6 5.4-6.6 1.55 0 3.45 2.05m-6 2.65q-1.3 2.15-2.2 4.55-.8 2.15-.8 3.15l.05.2q1.05-.1 3.75-1.25 2.8-1.15 3.6-1.8.7-.55 1.3-2.15l.5-1.9q0-.8-1.45-2.35-1.4-1.5-2.2-1.5l-.8.6q-.8.85-1.75 2.45"/><path fill="#0d131a" d="M8.85 109.35l-1-1.75q-2.2 1-4.5 4.8-2.35 3.9-2.05 6.25l1.95-.25 2.35-.65q.35-.1.25.8-.1.9-.45 1l-2.9.5q-1.8.05-2.2-.5-1.3-1.95 1.8-7.75 3.2-5.9 5.85-5.9 1.1 0 2.2 2.25 1 2.05 1 3.55 0 .35-.85.35t-.85-.35q0-.95-.6-2.35m65.6.3q.95-.75 1.05-2.25.15-2.1-1.65-3.85-.95-.95-2.25-.8-.85.1-1.7.65-2.25 1.45-3.7 5.2-1.4 3.65-.35 4.4.6.4 4.2-1.1 3.35-1.45 4.4-2.25m-2.3-8.7q1.7.2 2.9 1.45 2.25 2.25 2.1 5.05-.1 2.25-1.7 3.5-2.1 1.7-6.15 2.9l-4.8.2q-1.2-1.75-.2-5.65 1.1-4.45 4.45-6.6 1.6-1.05 3.4-.85"/><path fill="#0d131a" d="M80.6 108.6q-.75-.3-2 .45-1.35.8-1.9 2.05-.9 1.9-1.1 5.2-.2 3.35.6 3.6.85.25 4-2.45 3.1-2.65 3.75-4.1.4-.85-.55-2.4-1.05-1.65-2.8-2.35m-5.6 1.6q.9-1.8 2.85-2.75 1.95-.95 3.4-.35 2.5 1 3.75 3.2 1.25 2.15.45 3.8-1.55 3.3-5.5 5.8-3.6 2.25-4.6 1.6-1.25-.8-1.45-4.75-.15-4 1.1-6.55"/></svg>