<svg xmlns="http://www.w3.org/2000/svg" width="309" height="271" viewBox="-1.8 -0.15 309.15 270.65"><path fill="#dcc200" d="M153.55 235.45q-19.95 7.85-29.5 7.55-4.35-.15-8.55-1.85-2.45-.95-8.25-4.1-7.65-4.1-2.4-10 1.75-1.95 5.25-4.4l4.65-3.2 45.35-6.2q7.1 4.35 6.1 10.6-1.05 7.05-12.65 11.6"/><path fill="#b49f00" d="M153.55 235.45q-12.35 4.85-20 6.5-7.2 1.55-12.45.75l-.85-2q-.9-1.6-.65-1.95 3.85-6.1 2.75-10.05-1.35-4.7-9.7-7.8l2.1-1.45 45.35-6.2q7.1 4.35 6.1 10.6-1.05 7.05-12.65 11.6"/><path fill="#eeeeef" d="M110.7 233.7l-11.05 11.05-13.35 3.05q.65-2.9 7.3-10.1 6.2-6.75 9.05-8.45 2.05-1.25 4.5.75l3.55 3.7"/><path fill="#c8c9ca" d="M95.25 241.9q9.7-6.1 15-8.65l.45.45-11.05 11.05-13.35 3.05q.05-.3 8.95-5.9"/><path fill="#eeeeef" d="M123.65 236.3q3 4.95.55 6.3-1.75.95-13.1 5l-16.8 5.95q3.35-7.8 11.45-15.45 7.3-6.9 10.3-6.9 4.55 0 7.6 5.1"/><path fill="#c8c9ca" d="M121.7 233.8q2.3 2.25 3.15 5.15.8 2.85-.65 3.65-1.65.95-11.7 4.5l-16.2 5.7q8.55-10.25 25.4-19"/><path fill="#a35615" d="M39.25 93.25Q29.35 91 20.1 80.9q-8.15-8.95-9.6-16.05l11.05-.4q8.65.5 13.75 2.7L52.15 87.5l-12.9 5.75"/><path fill="#dcc200" d="M25.95 97.7q5.55-1.45 10.1-3.35 5.15-2.25 11.45-6.1 5.5-3.35 6.75 13.5.6 8.4.1 17.5-2.9 4.65-5.1 6.8-2.15 2.2-5.35 3.65-3.5 1.6-13.1-2.1-10.2-3.95-14.3-9.65-4.25-5.85-.8-12.3 3.25-6.1 10.25-7.95"/><path fill="#b49f00" d="M54.25 101.95q.6 8.4.1 17.3-2.9 4.65-5.1 6.8-2.15 2.2-5.35 3.65l-7.2-.25q-5.2-1.2-10.4-3.85l9.1-4.6q4.85-2.5 7.35-5.35 6.7-7.5 5-27.55 5.3-2.85 6.5 13.85"/><path fill="#eeeeef" d="M24.9 115.5q3.4 1.95-4.95 19.85-4.15 8.95-9 17.5L8.1 158q-3.25 6.05-5.3 10.55-3.75-19.15 2.25-37.65 3.1-9.65 8.85-18.5l4.6.15q2.45.7 6.4 2.95"/><path fill="#c8c9ca" d="M24.9 115.5q3.4 1.95-4.95 19.85-4.15 8.95-9 17.5L8.1 158q-3.25 6.05-5.3 10.55-.45-2.15 4.1-18.3 5.85-20.7 14.45-36.6l3.55 1.85"/><path fill="#eeeeef" d="M26.3 108.8q4.95-1.85 10.2 4.1 5 5.7 5.8 12.9-7.3 6.45-17.9 23.45-3.5 5.6-13.45 23.2-3.2-20.25 4.4-42.9 2.75-8.3 6.25-14.55 3.1-5.6 4.7-6.2"/><path fill="#c8c9ca" d="M23.9 139.15q5.05-9.6 14.85-23.2 2.95 4.8 3.55 9.85-10 8.85-27.05 39 1.5-12.05 8.65-25.65"/><path fill="#dcc200" d="M137.4 222.6q-19.9 2.35-31.5-9.05l19.15-8.25 35.05 7.95q-2.2 2.95-8.4 5.6-6.6 2.85-14.3 3.75"/><path fill="#b49f00" d="M137.4 222.6q-19.9 2.35-31.5-9.05l19.15-8.25 35.05 7.95q-2.2 2.95-8.4 5.6-6.6 2.85-14.3 3.75"/><path fill="#dcc200" d="M284.5 226.95q-19.6 7.6-46.4 4.55l-11-14.7 8.05-27.7q3.75 5.45 13.7 11.95 12.7 8.3 25.45 10.25l17.75 1.05 9.7-.75q2.2-.25 2.6 1.25.45 1.6-2.3 3.65-9.75 7.35-17.55 10.45"/><path fill="#b49f00" d="M235.15 189.1q1.85 2.7 6.55 6.65l7.85 16.85q3.85 8.4 7.25 8.95 11.15 1.85 22.35 1 11.75-.95 20.75-4.7l.8-.25q-23.15 18.4-62.6 13.9l-11-14.7 8.05-27.7"/><path fill="#dcc200" d="M229.3 218.15l4.4 4q4.75 4.9 6.35 9.35 1.1 3.05-5.15 10.75-6.95 8.55-15.4 11.45-9.15 3.15-18.5 1.95-9.15-1.1-15.1-5.85-5.15-4.05-.6-12.4 3.45-6.3 8.75-10.45l35.25-8.8"/><path fill="#b49f00" d="M240.05 231.5q1.1 3.05-5.15 10.75-6.95 8.55-15.4 11.45l-.35.15q-.7-1.3-1.7-6.1-.95-4.45-2.65-7-5.45-8.25-25.05-9.6 2.45-2.75 4.3-4.2l35.25-8.8 4.4 4q4.75 4.9 6.35 9.35"/><path fill="#eeeeef" d="M186.55 241q6.05.2 9.9 6.25 1.55 2.45 1.6 4.55 0 2.2-1.75 2.9-5 2-15.85 5.6-12.75 4.2-17.1 4.85 2.95-5.9 11.25-14.85 8.75-9.45 11.95-9.3"/><path fill="#c8c9ca" d="M198 251.1q.35 2.75-1.7 3.6l-11 3.95-15.05 4.8q7.9-4.45 13.2-8.05 6.9-4.7 11.9-9.7 2.25 2.75 2.65 5.4"/><path fill="#eeeeef" d="M209.4 241.3q4.1-1.55 9.05 2.65 4.65 3.95 4.65 7.5-3.5 3.7-15.35 9.4-12 5.75-21.55 8.2 1.3-6.35 10.9-16.85 8.6-9.45 12.3-10.9"/><path fill="#c8c9ca" d="M214.75 241.65q3.25 1.3 5.85 4.45 2.5 3 2.5 5.35-3.5 3.7-15.3 9.35-11.95 5.75-21.5 8.25 4.8-5.9 14.1-14.15 10.95-9.65 14.35-13.25"/><path fill="#a35615" d="M268.8 147.85q14.55 12.7 19.9 31.15-4.75.75-14.75-2.95l-9.1-3.9-31.2-31.3 15.85-4.95q10.2 4 19.3 11.95"/><path fill="#854507" d="M249.5 135.9q6.15 2.4 12.6 6.75 4.9 12.65 2.4 29.1l-30.85-30.9 15.85-4.95"/><path fill="#a35615" d="M236.8 140.15q10.1 5.65 19.2 17.1 13.35 16.9 15.4 37.7-10.05-1.05-21.15-6.55-11.85-5.9-17.7-13.65l-24.6-35.8 28.85 1.2"/><path fill="#854507" d="M207.95 138.95l28.85 1.2q6.35 3.55 13.15 10.35.25 20.15-7.65 33.2-6-4.1-9.75-8.95l-24.6-35.8"/><path fill="#a35615" d="M247.45 79.85q-9.4 4.9-17.5 8.05l-46.2 10.75-24.15-6.55 43.25-24.4q13.6-1.95 23.1-1.9 18.95.1 35.1 6.2-5.7 3.7-13.6 7.85"/><path fill="#854507" d="M218.55 66l-3.95 5.05q-2.25 3-2.75 5.5 12.05.8 26.85 7.6-5 2.35-8.75 3.75l-46.2 10.75-24.15-6.55 43.25-24.4 15.7-1.7"/><path fill="#a35615" d="M192.2 92.05q6.7-3 13.55-4.1 19.05-3.1 44.4 7.5-1.5 2.25-10.85 8.35-9.8 6.4-13.95 7.3l-41.6 14.8-12.65-6.9 11.5-21.95q7.6-4.1 9.6-5"/><path fill="#854507" d="M182.6 97.05l7.2-3.85q4.8-2.4 9.35-3.75 10.3 1.3 19.35 5.55 9.4 4.45 16.35 11.55-6.7 3.95-9.5 4.55l-41.6 14.8-12.65-6.9 11.5-21.95"/><path fill="#a35615" d="M183.25 124.5q17.45-17 47.85-12.8 12.1 1.65 23 6.45 10.2 4.5 15.35 9.9-8.8 6.75-23 10.15-17.15 4.1-35.1.95l-28.1-14.65"/><path fill="#854507" d="M219.85 124.8q8.65 6.65 15.45 15.2-11.5 1.3-23.95-.85l-28.1-14.65q7.7-7.5 17.85-10.9 9.95 4.35 18.75 11.2"/><path fill="#dcc200" d="M170.25 118.25q6.15 4.65 16.65 8.55 11.55 4.3 18.9 9.1 8.45 5.55 16.75 17.75 10.75 15.85 11.65 31.85 1 18.65-4.1 29.25-5.95 12.45-20.4 14.5-13.35 1.9-25.8-5.25-7.25-4.2-15-12.4-42.3 8.65-64.8-25.75-11.2-17.15-15.15-40.5l35.35-27.9 45.95.8"/><path fill="#b49f00" d="M170.25 118.25q6.15 4.65 16.65 8.55 11.55 4.3 18.9 9.1 8.45 5.55 16.75 17.75 10.75 15.85 11.65 31.85 1 18.35-3.9 28.9-5.75 12.35-19.7 14.7 10.6-6.95 13-19 2.3-11.5-3.4-24.55-5.8-13.3-18.15-24.15-13.3-11.65-31.25-17.7-16-5.4-38.4-20.55-1.3-.9-5.55 1.15l-3.95 2.2 1.4-9.05 45.95.8"/><path fill="#f2d4b4" d="M164.6 169.25q0 5.2-.9 20 .05 13.95 5.1 22.6-44.4 8.45-66.05-26.05-9.7-15.5-13.8-40.45l22.65-17.9q4.3 2.95 13.4 8.3 9.55 5.6 14.15 8.7 16.85 11.2 25.45 24.8"/><path fill="#f2d4b4" d="M165.5 169.45q.2.3-.4.95-.6.65-.8.35-6.8-10.8-18.4-20.05-7.7-6.15-21.05-14l-13.75-8.55q-.25-.2.2-.9.5-.7.8-.5 4.55 3.1 13.65 8.45 13.65 8 21.15 14 11.6 9.2 18.6 20.25"/><path fill="#d1b89d" d="M123.7 129.15q1.4 3 1.45 6.7-16.7-2.2-23.85 14.3-2.8 6.5-3.5 14.6-.6 7.3.65 13.25-4.65-9.65-7.35-21.1-.9-3.9-2.15-11.55l12.65-10.1q13.3-10.1 16.65-10.15 3.55-.05 5.45 4.05m-21.6 55.55q4.3 5.1 12.7 9.6 8.5 4.55 17.7 6.55 22.65 5 31.3-7.55.7 11.1 5 18.55-24.8 4.7-42.8-4.25-14.4-7.2-23.9-22.9"/><path fill="#dcc200" d="M142 146.6q-.5 6.05-1.4 11.3l-20.95-16.15 1.6-8.8q1.25-6 4.25-7.8 3.85-2.3 8.6-.95 4.95 1.45 7.05 6.15 1.85 4.1.85 16.25"/><path fill="#b49f00" d="M141.15 130.35q1.85 4.1.85 16.25-.5 6.05-1.4 11.3l-8.75-6.75q5.4-10.75 3.6-26.45 4 1.75 5.7 5.65"/><path fill="#dcc200" d="M109.2 151q7.2-9.3 13.05-8.55 9.45 1.15 13.9 6.3 5.7 6.65 4.35 20.75-1.75 18.4-10.65 31.3-10.85 15.85-28.5 15.4l-26.1-35.9q.95-4.95 7.15-9.7 5.8-4.45 14.05-7.3 3.4-1.15 6.9-4.95l5.85-7.35"/><path fill="#b49f00" d="M135.05 147.6q6.95 6.55 5.45 21.9-1.75 18.4-10.65 31.3-10.85 15.85-28.5 15.4l-8.6-11.85q7 4.65 14.65.95 6.85-3.35 13.2-12.85 5.9-9 9.85-21.1 3.95-12.2 4.6-23.75"/><path fill="#eeeeef" d="M96.15 217.15q-11.15 1.95-32.05.7-27.1-1.6-42.05-8.85l23.8-2.3 55.5-6.85q3.45.35 6.05 1.25 3.3 1.15 3.1 2.7-.45 2.9-3.75 6.9-4.45 5.4-10.6 6.45"/><path fill="#c8c9ca" d="M101.35 199.85q3.35.3 6.4 1.5 3.7 1.4 3.45 2.95-.35 2.65-4.1 6.65-4.8 5.15-10.95 6.2l-25.8 1q-21.8-.7-37.2-5.05 16.65.4 27.8-1.5Q76 209 86 201.75l15.35-1.9"/><path fill="#eeeeef" d="M76.55 180.3q3.65-.3 14.95 3.7 12.45 4.35 13.75 8.05 1 2.75-3.05 7.65-4.5 5.4-11.3 7.65-8.5 2.85-33.75.55-27.35-2.5-37.7-9 14-4.2 37.2-12.25 17.85-6.2 19.9-6.35"/><path fill="#c8c9ca" d="M101.25 200.75q-4.35 4.65-10.35 6.6-7.85 2.65-31.3.75-25.3-2-37.35-7.7 25.65 3.7 44.9 2.9 25.4-1.1 38.25-9.9-.4 3.35-4.15 7.35"/><path fill="#a35615" d="M69.05 38.95L57.9 65.25l-4.2-5.4q-1.95-8.1.4-18.15 2.35-10.05 7.45-15.15 2.85 2.9 5.45 7.95l2.05 4.45m110.65 23.2L155 66l-10-8.4 12.8-15.35q10.7-5.5 20.65-7.95 14.35-3.5 29.3-1.55-3.95 6.9-12.7 16.05-8.75 9.2-15.35 13.35"/><path fill="#854507" d="M184 48.7q5.1-.65 11.4-.25-8.9 9.4-15.7 13.7L155 66l-10-8.4 12.8-15.35q8.2-4.2 15.3-6.45-.45 2.25-.4 6.8l-.15 8.75q6.4-2 11.45-2.65"/><path fill="#a35615" d="M167.6 89.9l-37.95 14.9.8-16.15L150.65 68q7.2-3.95 24.9-6.65 20.6-3.2 35.15-.5-4.5 6.1-17.4 15.25-14.45 10.2-25.7 13.8"/><path fill="#854507" d="M170.55 62.2q-.6 4.8-2.5 9.85-1.45 3.95-4.35 9.6 7.55.75 16.2 2.8-6.65 3.65-12.3 5.45l-37.95 14.9.8-16.15L150.65 68q2.5-1.35 7.8-2.9 5.4-1.6 12.1-2.9"/><path fill="#a35615" d="M169.75 119.95q-23 10.75-45.55 1.6l3.6-18.95q2.75-3.25 8.1-6.2 6.55-3.55 14.45-4.95 21.3-3.85 44.65 8.9-9 12.05-25.25 19.6"/><path fill="#854507" d="M138.4 95.05q9.55-4.7 21.25-4.55.1 11.5-.4 17.1-.85 9.65-3.85 17.05-15.9 3.1-31.2-3.1l3.6-18.95q4.6-4.6 10.6-7.55"/><path fill="#dcc200" d="M50.55 85.8Q41 81.6 36.85 70.6q-4.6-12.25-2-31.7 6.25 3 12.1 8.8 8.5 8.5 11.45 19.3l.45 3.7q.4 4.35.1 7.65-.95 10.75-8.4 7.45"/><path fill="#b49f00" d="M58.4 67l.45 3.7q.4 4.35.1 7.65-.95 10.75-8.4 7.45l-.95-.45q2.35-11.4 2.5-18.45.2-10.2-3.55-17.5Q55.8 57.25 58.4 67"/><path fill="#dcc200" d="M129.2 39.95q1.8 23.2 1.4 34.05-.9 23.15-1.55 29.95-1.9 18.8-6.6 23.15-4 3.65-14.95 7.95-10.9 4.25-12.85 6.05l-7.15 6.45q-4.65 3.3-10.3 3.3-4.75 0-7-1-3.3-1.5-7.55-6.75-2.05-2.5-3.15-9.05-1.4-8.1-2.5-10.9-4.2-3.55-6.25-9.25-2.2-6.15-.75-11.8-2.6-1.6-1.9-7.1.6-4.8 3.35-10.85l1.65-3.05q.95-1.75 1.4-3.65 4.15-15.85 11.15-30.6 10.55-22.05 22.8-29.3.6 5.05 2.55 15.8 1.85 10.4 2.5 12.85 5.25-7.75 14.1-17.2 11.05-11.8 18.75-15.9 1.2 5.3 2.85 26.85"/><path fill="#b49f00" d="M130.1 53.25q.75 13.6.5 20.75-.9 23.15-1.55 29.95-1.9 18.8-6.6 23.15-4 3.65-14.95 7.95-10.9 4.25-12.85 6.05-1.05 1-2.6 0-1.5-.95-2.35-2.95-2.2-5.35 2.85-8.1 5.85-3.05 9-5.6 7.15-5.7 12.4-14.85 15.6-26.85 14.35-80.35 1.15 12.1 1.8 24"/><path fill="#f2d4b4" d="M55.5 121.7l3.75 1.65q2.2 1 2.2 1.4 1 7.95 1.6 10.65 1.05 4.7 2.8 6.05 2.25 1.85 6.15 2.15 4.55.3 8.25-2.15.9-.6 4.15-6.75 3.8-7.35 8.15-12.5 13.1-15.4 16.7-18.8 10.95-10.3 20.6-10.85-1.5 29.1-7.4 34.55-4 3.65-14.95 7.95-10.9 4.25-12.85 6.05-10.4 9.75-17.45 9.75-4.75 0-7-1-3.3-1.5-7.55-6.75-2.05-2.5-3.15-9.05-1.4-8.1-2.5-10.9l-1.5-1.45"/><path fill="#a35615" d="M93.2 48l-5.55-17.5q1.6-6.6 10.1-15.45 9.15-9.5 18.6-12.95.95 6.75.5 13.35-.4 6.1-1.45 6.9L93.2 48"/><path fill="#854507" d="M87.65 30.5q.8-3.3 3.75-7.7 3-4.45 7.35-8.75 6.3 10.7 8.65 17.5L93.2 48l-5.55-17.5"/><path fill="#a35615" d="M142.7 20.75q12.5-8.95 22.95-11.8 1.1 8.55-4.05 22.45-5.2 13.95-12.05 20.5l-18.75 8.35-2.05-25.5q1.8-5.35 13.95-14"/><path fill="#854507" d="M128.75 34.75q.9-2.7 5.2-6.85 4.2-4.05 10.15-8.15 6.3 12.8 9.85 26.85-2.1 3.1-4.4 5.3l-18.75 8.35-2.05-25.5"/><path fill="#a35615" d="M126.65 12.5q1.15 5.2 2.7 27.15Q131 63 130.6 73.95q-18.45-5.15-39.7 11.4-10.65 8.25-17.6 17.55-2.4-9.2-5.75-17.65Q60.8 68.3 56 72.1q4.1-14.5 12.25-30 10.55-20.15 20.2-24.55.6 5.05 2.5 15.55 1.8 10.15 2.45 12.6 8.95-10.9 14.3-16.65 11.6-12.6 18.95-16.55"/><path fill="#a35615" d="M130.8 73.15q.35.1.1.9-.2.85-.55.75-15.7-4.4-34 7.75-11.05 7.35-20.6 18.7-2.25 2.65-2.7 2.55-.45-.1-1.25-3-3.85-14.1-8.05-22-4.5-8.35-7.6-5.95-.7-1.1.55-1.8 1.2-.65 2.25-.3 4.2 1.45 9.15 13.5 3.05 7.4 5.6 16.75 9.35-11.45 20.7-19.2 19.5-13.4 36.4-8.65"/><path fill="#854507" d="M126.65 12.5q1.15 5.2 2.7 27.15Q131 63 130.6 73.95q-5.5-1.55-11.7-1.05 2.5-11.4 5.2-37.3 2.4-23 2.55-23.1"/><path fill="#f2d4b4" d="M130.6 91.75l-.1 1.45q-10.75.15-26.3 16.6-13 13.7-19.95 27.35-2.05 4.05-3.55 5.05-3.85 2.6-8.85 2-4.15-.45-6.7-2.5-1.85-1.45-2.75-5.15-.75-3.15-1.95-12.85l2.05 1 1 10.55q.5 4.2 2.05 5.4 2.05 1.65 5.95 2.15 4.75.55 8.25-1.75l1.75-1.9 2.05-3.25q6.65-13 18.95-26.3 15.85-17.1 28.1-17.85"/><path fill="#0d131a" d="M50 102.1q2.6-1.2 7.5 6.55 5.15 8.15 4.55 15.35-1 .15-3.05-.75-2.6-1.15-4.7-3.25-6-6.25-4.3-17.9m40.7 19.65q-1.3-6.05 3.05-14 5.85-10.8 19.4-14.65.9 11.4-2.05 18.75-5.05 12.6-20.4 9.9"/><path fill="#dcc200" d="M86.7 95.15q-2.15 3.8-7 8.25-6.25 5.85-7.3 5.8-1.3-.05-4.45-6.85-5.6-12.15-3.25-24.9 2.8-14.95 16.2-27 2.95 3.9 5.8 13.9 3.25 11.55 2.75 20.75-.3 5.65-2.75 10.05"/><path fill="#b49f00" d="M86.9 67.35q2.6 8.1 2.95 13.5.85 12.35-10.15 22.55l-1.55.85q-.85.2-.85-.25 2.9-3.45 4.75-11.65 3.75-16.4-1.2-41.9h.05q4.9 13.35 6 16.9"/><path fill="#dcc200" d="M114.3 80.2q4.1-11.7 15.5-19.65 15.2-10.6 38.1-9.3-8.4 14.85-19.65 25.55-13.5 12.85-24.7 12.65l-6.2-.2q-5.65-1.65-3.05-9.05"/><path fill="#b49f00" d="M148.25 76.8q-13.5 12.85-24.7 12.65l-1.75.2q11.9-5.95 22.25-16.6 11-11.35 13.7-21.7 4.95-.4 10.15-.1-8.4 14.85-19.65 25.55"/><path fill="#fff" d="M98.85 101.55q2.4 2.05 2.65 5.75.25 3.35-1.2 6.35-1.55 3.05-3.9 3.65-2.65.65-5.2-2.4.3-2.4 1.45-5.3 2.2-5.75 6.2-8.05m-44.1 5.05q1.9 1.2 3.95 6.75l1.7 5.3q-2.3 2.25-4.85-2.45-2.6-4.8-.8-9.6"/><path fill="#d1b89d" d="M120 96.65l.6-1.85q5.15-2.65 9.55-3l-.1 1.45q-1.7 28.4-7.6 33.85-4 3.65-14.95 7.95-10.9 4.25-12.85 6.05l-6.8 6.2q-4.45 3.25-9.6 3.5 1.15-3.8 1.75-5.1 1.65-3.65 4.2-5.65 8.35-5.3 15.6-12.2 13.9-13.3 20.2-31.2"/><path fill="#0d131a" d="M115.25 220.15l-4 2.95q-4.35 3.4-6.3 5.75l-2.85.25q1.05-2.45 5.4-5.6l6.5-4.25 1.25.9m39.15 16.4q-20.45 8.05-31.35 7.7 1.4-.75 1.65-2.15 4.8.1 11.4-1.65 6.8-1.75 17.15-5.85 5.6-2.15 8.7-5.1 3.15-2.95 3.45-6.25.25-2.55-1.3-5-1.5-2.45-4.45-4.25l1.2-1.3q3.4 2.05 5.4 5.4 2.05 3.3 1.75 6.35-.3 3.7-3.95 6.75-3.3 2.85-9.65 5.35"/><path fill="#0d131a" d="M84.6 247.2q3.4-6.05 8.8-11.55 4.8-4.85 8.85-7.05 2.2-1.2 4.65.35 1.35.95 4.45 4.25l-1.15 1q-2.85-3.05-4.1-3.9-1.6-1.1-3.05-.4-3.4 1.7-8.65 7.55-4.8 5.4-6.85 9.3l12.3-2.8-1.45 2.35q-6.85 1.3-10.35 2.35-3.75 1.1-4.2.85-.4-.25.75-2.3"/><path fill="#0d131a" d="M123.8 241.95q.55-.3.55-1.3l-.2-1.3q-.7-2.65-2.85-4.85-2.45-2.55-5.25-2.55-2.4 0-9.05 6.05-7.55 6.9-11.2 14.2l9.9-3.55q16.05-5.55 18.1-6.7m-1.1-8.4q2.7 2.65 3.45 5.6.4 1.5-.05 2.95-.4 1.35-1.35 1.85-1.4.8-13.45 5l-15.75 5.25-3.2.6q-.4-.2.7-2.25 4.55-8.45 11.65-15.3 7.15-6.85 11.35-6.8 3.5.05 6.65 3.1M22.2 63.45q8.1.65 13.45 3l.05 1.65q-4.6-2-12.55-2.7-6.6-.6-10.6-.1l-.75.15q-.2.2.1 1.05 2.55 7.6 9.8 15.15 8.4 8.75 17.7 10.85l-1.7 1.05q-10-2.45-17.75-10.4-7.1-7.2-10.6-17.05-.5-1.5-.3-1.95.25-.4 1.7-.6 4.85-.65 11.45-.1"/><path fill="#0d131a" d="M25.75 96.85q5.85-1.8 13.35-5.1 8.65-3.8 10.65-5.9 1.9-1.9 1.05.35l-1.25 2.6q-2.65 1.85-10.35 5.1-7.95 3.35-13 4.65-3.6.95-6.4 3.4-2.85 2.45-4 5.7-.7 1.85-.4 4.1l-2 1.6q-.55-1.55-.6-2.75-.05-1.25.4-3 .95-3.6 3.6-6.05 3.05-2.85 8.95-4.7M53.6 118.8l.85 1.95q-3.2 5-5 6.9-2.2 2.2-5.5 3.4l-6.4-.2 1.65-1.8 4.35-.15q3.05-1.45 5.1-3.5 2.1-2.1 4.95-6.6"/><path fill="#0d131a" d="M14.1 110.85l2.85.35q3.3.65 5.4 2.05l-.6 1.4q-1.85-.8-3.4-1.25-2.9-.9-4-.3Q2.1 132.3 2.1 153.85q0 5.3 1.1 12.05 2-4.15 4.7-9.15l2.4-4.25.05 3.2-2.85 5.7-4 7.45q-.75 1.15-1.1.8-.3-.3-.7-2.2-3.5-15.6.1-31.4 3.5-15.45 12.3-25.2"/><path fill="#0d131a" d="M32.85 111q-3.85-2.4-6.3-1.45-1.3.5-3.8 4.85-2.75 4.75-5.25 11.4-6.65 17.7-6.65 34.95 0 4.6.6 9.25l.7-1.25Q20.3 154.2 25.4 146.2q9.3-14.6 16.05-20.7-.55-4.5-2.9-8.45-2.4-4.05-5.7-6.05m10.2 14.7q.1 1.1-.75 1.35-6.45 5.75-18.2 24.95-5.95 9.65-12.5 21.6-1.55 2.9-2.15-.5-3.2-19.85 4.45-43.6 2.9-8.95 6.45-15.45 3.3-6.05 5.15-6.5l3.55.1q2.55.45 4.25 1.5 3.95 2.4 6.45 6.35 2.85 4.5 3.3 10.2m116.35 87.05l2.4.05q-3.15 4.2-9.5 7.3-7.05 3.45-15.55 4.1-8.5.7-15.95-1.1-8.15-2-13.25-6.55l2.4-.75q10.05 7.35 25.35 6.1 8.1-.65 15.3-3.5 6.6-2.7 8.8-5.65m75.05-23.15l.1-3.5q3.95 5.8 14.25 13.05 13.3 9.4 25.65 11.25l15.9 1.25 11.3-.9q5.15-1 5.45.6.25 1.55-3.95 5.95-8.95 9.25-26.25 13.7-18.1 4.65-36.65 1.5l-.3-1.05-.4-1.1q17.35 2.45 35.05-1.75 16.75-4 25.8-11.9 2.35-2.05 2.7-3.3.3-1.2-1.4-.75l-10.4.75-17.75-.95q-12.7-1.95-25.4-10.5-9.8-6.65-13.7-12.35"/><path fill="#0d131a" d="M229.8 217.45l3.75 2.85q4 3.5 6.7 7.9 2.25 3.65 0 8.25-2.45 5.15-7.25 10.2-6.1 6.3-12.8 8.6l-1.5.45 3.5-4.1q5.4-2.65 10.05-7.7 3.75-4.15 5.7-8.15.8-1.7.75-3-.1-1.75-1.5-4.35-1.2-2.35-4.9-6.15l-3.55-3.4 1.05-1.4m-45.45 24.8q-1.6.3-2.95 1.9-.85-4.1 3.8-9.9 3.1-3.85 7.25-7.1l2.15.5q-2.95 2.35-5.9 6.2-3.55 4.65-4.35 8.4"/><path fill="#0d131a" d="M186.55 240.2q3.95.2 7.65 2.9 3.35 2.45 4.8 5.6l-1.85 2q-.7-3.05-3.6-5.75-3.25-3.05-7.05-3.2-2.5-.1-12.7 10.9-10.2 10.95-9 11.45.95.35 12.95-3.6 10-3.35 16.7-5.9l-1.35 1.75-1.4 1.75q-5.45 2.25-15 4.95L165.05 266l-3.6.1q-.25-.4 1.2-3.2 3.35-6.55 11.65-14.6 8.5-8.25 12.25-8.1"/><path fill="#0d131a" d="M220.55 247.3q-1.65-2.2-3.9-3.75-3.95-2.7-7-1.5-4.2 1.9-13 12-8.95 10.25-9.3 13.9-.1.85 15.65-6.3 16.15-7.35 19.3-10.5-.15-1.7-1.75-3.85m-12.3-6.4q1.9-.8 4.45-.45 2.65.35 4.85 1.8 2.75 1.9 4.7 4.55 2.05 2.7 2.05 4.7l-.25 1.1q-3.3 3.55-16.35 9.55-11.85 5.45-19.9 7.8l-3.35.55q-.55-.25.3-2.35 3.9-9.55 12.45-18.45 6.95-7.2 11.05-8.8m41-104.3l2.55-.65q12.9 5.05 23.35 16.55 10.1 11.1 14.85 24.8.85 2.6.2 3.25l-3.95.25q-3.2-.5-10.8-3.25-7.55-2.8-10.15-4.45l-1.3-2.3q22.4 8.1 23.4 7.2.5-.45-1.85-5.25-2.75-5.65-7.05-11.55-12.65-17.4-29.25-24.6"/><path fill="#0d131a" d="M235 139.9l2.15-.45q10 5.6 20.25 18.2 14.3 17.5 15.2 35.55.15 2.9-.5 3.4l-2.35-.05q-9.65-1.6-19.5-6.45-11.7-5.75-17.55-13.5l-.3-2.65q5.2 6.85 21.5 14.4 6.05 2.85 11.15 4.55 4.85 1.65 5.35 1.15.6-.65-.9-6.25-1.85-6.65-5.4-13.95-10.5-21.45-29.1-33.95m25.45-69.35q1.95.8 2 1.2.15.55-1.8 2.05-2.35 1.85-11.4 6.35-10.05 5-19.05 8.5l-3.3-.6q8.45-3.3 18.9-8.5 9.75-4.8 12.15-6.7 1.05-.75-.35-1.2-6.95-2.45-21.25-4-19.35-2.15-33.4.8l2.4-2.35q8.8-2.25 22.7-1.85 18.35.5 32.4 6.3"/><path fill="#0d131a" d="M249.55 93.4q1.95.8 2.2 1.7.35.9-1.1 2.15-5.05 4.4-12.1 8.6-7.4 4.45-11.85 5.45l-3.3-.25q3.3-.7 13.3-7 8.45-5.35 10.7-7.3l.8-.85-.8-.75q-2.85-1.5-9-3.1-7.65-2-15.55-2.7-22.3-2.05-36.1 6.9l-2.65-.9q13.05-7.25 23.5-8.85 18.85-2.85 41.95 6.9"/><path fill="#0d131a" d="M211.2 139.9l-1.9-1.45q18.35 3.15 37.75-1.8 12.05-3.1 18-6.75l2.45-1.95q.45-.75-.45-1.3-18-11.3-39.2-14-27.7-3.55-44.05 12.4l-2.7-.5q19.8-17.7 48.1-14.6 23.05 2.55 40.3 15.9 1.45 1.15 1.5 1.8.1.7-1.3 1.75-8.8 6.6-23.6 10.2-18.55 4.5-34.9.3m-122.7 6.7l1.5-1.25q1.3 8.55 4.55 18.1-.6.05-2.8 1.1-1.4-4.55-2.25-10.05l-1-7.9"/><path fill="#0d131a" d="M195.45 131.35q-3.15-1.45-8.5-3.4l-8.1-3.15q-4.55-2-8.65-5.1l2.8-1.25q4 3 7.55 4.6l7.15 2.65q6.95 2.65 9.25 3.65 5.8 2.6 10.55 5.85 10.2 6.95 18.1 19.2 9.8 15.2 10.8 31.85 1.15 19.35-5.3 30.65-6.75 11.7-21.25 13.8-18.25 2.6-34.1-10.8l-3.25-2.95-4.1-4.2q-25.65 5-44.15-5.2l1.6-2.1q17.6 9.9 41.25 5.45-3-4.65-4.25-11.1-.95-4.95-.95-11.65 0-4.6.95-11.85.85-6.2 1.7-9.8.7-2.85 1.6-4.5.9-1.55 1-.3.1.95-.4 3.95l-1.1 7.15q-3.7 29.5 6.75 40.65 7.05 7.5 15.75 11.45 10.55 4.85 21.4 3.35 13-1.85 18.85-12.45 5.85-10.55 4.75-30.25-.85-15.75-11.35-31.3-8.15-12-16.55-17.5-4.85-3.15-9.8-5.4m-70.4-6.95q4.65-2.65 10.9-.15 5.5 2.2 6.65 5.15 2.4 6.05.85 20.8-.8 7.45-2.15 14.2l-1.55-6.65q.85-5.3 1.35-11.25 1-11.95-.75-15.8-1.85-4.2-6.3-5.6l-4.25-.45q-2.1.2-3.85 1.25-1.95 1.2-3.8 8.3-.9 3.65-1.7 7.85l-3.1 1.1q.75-4.45 1.95-8.6 2.35-8.2 5.75-10.15"/><path fill="#0d131a" d="M76.25 180.5l-2-.4q-.75-10.15 20.5-17.45 3.05-1.05 6.65-4.25 3-2.7 5.8-6.4 4.7-6.15 6.7-8 4.15-3.7 8.4-3.2 9.15 1.15 13.9 6.25 6.8 7.25 5.35 22.55-2.05 21.3-11.75 34.5-11.85 16.1-31.4 13l3-1.95q17.75.45 28.4-16.1 8.1-12.65 9.7-29.65 1.35-14.05-4.5-20.4-4.2-4.5-12.9-5.55-3.6-.45-7.1 2.65-2.15 1.85-6.15 7.1-3.55 4.65-5.5 6.6-3.25 3.35-6.55 4.5-8.4 2.85-14.05 7.35-5.65 4.45-6.5 8.85"/><path fill="#0d131a" d="M109.75 203.65q-.8-1-3.4-1.9-2.55-.85-5.05-1.1l1.25-1.5 4 .6q3.7.85 5.3 2.5 2.2 2.25-2.4 8.2-4.9 6.35-11.8 7.55-13.1 2.25-28.75 1.8-25.8-.75-46.95-9.35-3.5-1.4-2.85-2.3.55-.8 4.05-1l22.65-1.2 1.5.6q1.55.6 1.75.85l-14.75 1.25-9.1.8q12.2 5.85 36.05 7.45 21.6 1.45 35.35-1.2 5.95-1.15 10.35-6.15 3.9-4.45 2.8-5.9"/><path fill="#0d131a" d="M19.55 197.2q22-6.1 56.25-18 5.3.35 12.85 2.6 9.45 2.85 16.7 7.35 3.55 2.25 1.2 7.15-1.7 3.45-5 6.65-4.1 3.95-9.15 5.6-9.3 3.15-27.9 1.95-22.1-1.45-43.95-9-4.65-1.6-4.65-2.5-.05-.75 3.65-1.8m57.05-16.15l-21.7 7.5q-23.05 8.05-31.35 10.2-1.55.35-1.5.65 0 .2 1.35.65 17.6 5.55 38.65 7.3 19.5 1.6 27.05-.9 4.85-1.6 9.1-4.7 4.2-3.05 5.6-5.9 1.15-2.3.75-3.55-1.2-3.4-13.35-7.65-11.15-3.85-14.6-3.6M60.45 25.8q.95-1.2 1.35-1.2.45 0 1.3 1.25 5.1 7.2 6.65 12.85-.75 3.95-.9 2.15-.1-1.5-3.3-7.45-3.25-6.1-3.9-5.55Q58.8 30.2 56.2 38.2q-2.8 8.55-2.4 15.4.1 2.5.8 5.4l-1.75-3.3q-1.85-7.6.4-15.85 2.1-7.65 7.2-14.05m58.2-24.05q.2 2.4-.25 9.35-.5 7.9-1.35 8.55l-2.15 2.05q.4-.4.85-7.6.4-7.3.15-10.05-.05-.7-.3-.8-18.15 8.55-25.25 22.5-.6-1.5-.65-2.25 3.75-6.65 9.95-12.5Q106.8 4.3 115.2.75q2.25-.9 2.8-.75.55.2.65 1.75m88.45 29.2q2.4.2 2.65.75.3.65-1.05 3-5 8.85-13.05 16.5-6.85 6.55-13.3 9.9l-3.1.4q8.15-5.5 18.45-16.95 9.25-10.35 8.7-11.15l-4.5-.3-11.45.85Q171.8 36.4 155.6 44.3l1.85-2.75q24.15-12.45 49.65-10.6"/><path fill="#0d131a" d="M163.4 8.25q2.8-.8 3.5-.05.8.85.65 5.15-.25 8.3-5.35 20.15-5.4 12.5-12.1 18.95l-2.6.35q6.1-5.85 11.45-17.85 5.25-11.95 5.8-20.85.2-2.9-.35-3.25-.35-.25-2.6.5-8.5 2.9-19.5 10.85-11.25 8.1-12.8 12.75l-.25-2.35q1.8-5.4 12.4-13.15 10.95-7.95 21.75-11.2m27.55 71.25q-11.25 7.75-23.25 11.55l-4.45-.3q10.7-3.4 26-13.4Q203.2 68.2 208.8 61.9l.15-.4-.3-.15q-11.45-1.8-26.95.2-12.65 1.6-23.45 4.95l1.55-2.7q10.5-3.7 23-4.85 13.5-1.3 26.9.7 2.25.35 2.6.85.3.5-.9 1.65-10.8 10.75-20.45 17.35"/><path fill="#0d131a" d="M186.65 97.1q-8.45-3-17.6-4.25-27.4-3.8-40.2 10.55l-.2-2.3q8.45-8.35 21.75-10.75 19.8-3.55 44.4 8.25 1.9.95 1.95 1.6 0 .8-2.1 3.25-6.45 7.75-17.75 14.35-19.6 11.5-39.6 8.05-2-1.35-4.25-1.75l-3.9-.1-4.2.15.8-3.6q23.85 9.15 48-3.85 7.9-4.25 14.5-10.2 5.2-4.65 5.5-5.9.25-.9-7.1-3.5M33.3 39.3q.3-1.6 1-1.8.45-.1 1.85.6 6.3 3.2 10.3 6.8 8.8 8 12.15 20.2l-1.05 2.1q-2.75-10.15-10.35-18-3.75-3.8-10.35-8.25-.95-.6-1.2-.55-.2.1-.3.9-.15.95-.35 4.25l-.2 6.15q0 12.95 4.1 21.5 4.15 8.65 12 11.8l-.7 1.6q-10.1-4.05-15.05-18.4-4.9-14.05-1.85-28.9"/><path fill="#0d131a" d="M46.9 96.4q-.15-2.35 1.9-7.6l2.65-6.2q.6-1.45.9-1.05.3.45-.25 2.25l-1.6 5.55q-1.45 4.55-1.55 6.45-.15 3.1 1.85 5.65-1.65 3.55-1.45 2.6-1-1.4-1.75-3.85-.6-2.15-.7-3.8m81.85-81.95l1.25 16.8q1.1 16.4 1.45 27.55l-2.05 1.5q-.7-18.1-3.4-44.7-.1-1.45-1.05-.85-6.1 4.2-16.65 15.25Q98.35 40.45 94 46.7q-1.15 1.7-1.7 1.7t.2-1.9q-4.2-25.2-4.8-26.8-.2-.55-.75-.3-4.9 2.85-13 15.1-11.05 16.75-16.9 37.8-.7 2.35-1.4 2.3-.75-.05-.2-2.55 2.5-11.45 9.7-26.3 10-20.65 21.8-29.2 1.6-1.15 2.25-.9.6.2.85 1.9l1.9 12.05L94 43.75q5.85-8.05 12.85-15.55 8.85-9.45 17.95-16.2 2.35-1.75 3-1.4.65.4.95 3.85M129 88.6l1.15-.05 1-.2q-.5 15.45-1.7 23.75-1.75 12.25-5.6 15.75-2.75 2.55-8.25 5.05l-9.6 3.8-6.6 2.65q-3.4 1.45-4.6 2.55l-5.6 4.95q-6.6 5-11.55 5.1-5.5.15-8.8-1.75-3.05-1.75-7.1-7.1-1.45-1.95-2.3-4.65-.55-1.9-1.2-5.7l-1.5-6.55-1.95-6.45q-1.15-.95.8.55l2.6 2.2q1 3.15 2.05 9.9l1.1 5.65q.8 2.85 2.05 4.4 4.15 5.1 7.25 6.5 2.05.9 6.55.9 4.45 0 11.05-4.75l5.7-4.75q1.4-1.35 4.6-2.8 2-.95 6.7-2.75l8.8-3.45q4.8-2.15 7.35-4.5 6-5.55 7.6-38.25"/><path fill="#0d131a" d="M52.25 101.85q2.85 1.5 6.05 7.2 4.1 7.15 4.7 15.4.05 1.15-.3 1.3-.45.2-1.2-1.25-4.75-.1-8.8-5.3-5.15-6.65-3.6-17.25l.5-.65q.85-.4 2.65.55m-1 1.45q-.2-.15-.4.35-.3.75-.3 2.6 0 9.2 5.1 13.9 1.7 1.6 3.6 2.3l1.9.15q-.35-4.1-2.15-8.45-2.65-6.35-7.75-10.85m61.25-5.25l-.15-3.75q-11.1 3.5-16.75 12.05-4.25 6.45-4.25 13l.15 1.6q9.35 1.5 14.65-3.2 6.35-5.8 6.35-19.7m.45-5.8q3.3-.95 3.6-.45.25.55-2.45 2.1 1.3 17.8-6.8 25.15-3.05 2.75-6.85 3.65-3.9.9-9.15 0-.5 1.3-.9 1.15-.45-.15-.6-2.35-.65-9.65 3.95-16.75 5.8-8.95 19.2-12.5m-30-41.2Q86.7 58.9 89 68.6q2.45 10.55 1.9 18.35-.25 3.5-3.3 8.1-2.7 4.05-6.85 7.9-1.7 1.6-1.85 1.05-.15-.6 1.1-1.9 8.75-9.95 8.5-16.9-.5-14.65-6.65-31.25-.75-2-1.2-2.05-.45-.05-1.9 1.65-6.2 7.15-10.15 16.4-3.75 8.85-3.75 15.65 0 3.9 1.55 9.55 1.15 4.1 2.35 6.85.75 1.7-.05 1.2-.85-.55-2-2.35-1.45-2.35-2.85-6.8-1.35-4.3-1.55-7.15-.45-8.05 3.6-17.15 4.35-9.75 13.2-19.3 1.65-1.75 2.25-1.65.6.15 1.6 2.25m84.65-.85q1.6.15 1.7.65.1.4-.8 2.45-5.9 13.1-17.35 23.4-13.05 11.7-27.1 13.4-2.5.3-2.7-.35-.2-.6 2.2-.95 11.6-1.55 22.95-11.85 9-8.2 18.6-22.75 1.3-2.05 0-2.15-21.4-.5-34.95 9.75-8.05 6.15-15 18.55-.8 1.4-1 .9-.25-.5.2-1.9 4.3-12.35 15.25-20.3 15-10.95 38-8.85"/></svg>