<svg xmlns="http://www.w3.org/2000/svg" width="165" height="162" viewBox="-0.05 0.15 164.5 162.0"><path fill="#fff" d="M47.45 119.65l7.45-4.95 3.1 3.1q3.2 3.25 3.65 4.1.7 1.35-6.25 1.65l-3.95-1.85-4-2.05"/><path fill="#dbdcdc" d="M54.9 114.7l2.85 2.8q-5.2 1-8.75 2.9l-1.55-.75 7.45-4.95"/><path fill="#d2ddf0" d="M62.6 35.8q4.5 13.7-16.5 32.45-10.55 9.4-21.95 16.05-6.9-8.45-11.25-19.75-7.55-19.5-3.25-39.2.9-.55 2.25-.8 1.8-.3 1.9.8.3 4.25 2.7 13.5.55-5.8 2.45-13.25 3.8-15 10.55-23.45Q30.5.9 32.85.8q2.3-.15 2.25.8 0 1.1-.95 5.4-1 4.55-1.15 6.5 10.2-2 16.65 2.05 7.9 4.95 12.95 20.25"/><path fill="#b5bfd0" d="M49.25 15.3q8.15 4.85 13.35 20.5 3.65 11.1-9.75 25.8-8.65 9.5-22.95 19.05-5.1-7.05-7.2-16.7-2-9.25-.7-18.6 1.3-9.55 5.65-16.6 4.75-7.6 12.05-10.7.95-.55 9.55-2.75"/><path fill="#d2ddf0" d="M24.55 93.55l1.2 4.2Q21.35 92.65 11.3 84 1.9 75.85.95 74.55q5.2 2 23.6 19m9.05 14.55l.6 1.85-14.8-.7L3.7 109q4.95-1.15 16.45-1.25 8.7-.05 13.45.35m89.9-41.4l9.3-8.45q3.25-3.15 3.9-3.55 1.2-.7 2.9.4 1.8 1.15 2 2.95.3 2.45-.3 21.35-6.6-1.3-12.15-3.5-11.05-4.5-5.65-9.2"/><path fill="#b5bfd0" d="M141.6 58.05q.3 2.45-.3 21.35-6.3-1.2-11.7-3.35-10.9-4.25-6.65-8.75 4.25 1.95 10.4-3.95 4.35-4.2 5.75-7.15.4-.8 1.45.2.95.9 1.05 1.65"/><path fill="#d2ddf0" d="M146.8 84.3l4-2.2q3.45-1.9 3.9-2.35.7-.7 1.7 1.05 1.05 1.8.6 3.45l-2 10.1-8.2-10.05"/><path fill="#b5bfd0" d="M147.4 83.95q2.55 1.75 5.45.2 1.6-.85 3.05-2.55.6-.65 1 .6.35 1.15.1 2.05l-2 10.1-8.2-10.05.6-.35m9.75 40q4.25 3.05 4.9 8.7.6 5.35-2.15 9.6-2.35 3.7-6.3 6.95-3.65 2.95-5.9 3.45-5.1 1.1-9.3.8-6.1-.4-8.7-3.85 5.4-7.45 11.5-14.4 12.25-13.9 15.95-11.25"/><path fill="#eeeeef" d="M131.1 148.5l1.35 1.1q1.2 1.4.6 2.75-.9.85-4.95 2.35-4.2 1.5-4.6.85-.35-.55.65-3.45l1.05-2.8 5.9-.8"/><path fill="#c8c9ca" d="M131.1 148.5l1.35 1.1q1.2 1.4.6 2.75-.55.55-3 1.55-2.4 1.05-4.35 1.55.5-2.3-1.2-4.4l.7-1.75 5.9-.8m14.85.2q3.1 1.3 3.55 2.7.45 1.3-3.75 3.9-4.1 2.55-5.85 2.35-.8-.1.1-4.1.85-4 1.9-5.2.85-1 4.05.35"/><path fill="#d2ddf0" d="M62.85 111.05q-1.7-10.5 11.05 8.7 6.4 9.6 13.1 21.3-2.5 6-4.95 8.25-1.75 1.55-4.5 1.8l-6.2.25q-3.95-.15-4.6-1.15-3.45-5.5-3.3-17.6.2-16.55-.6-21.55"/><path fill="#b5bfd0" d="M63.05 111.9q-1.1-10.6 11.3 8.2 6.25 9.4 12.65 20.95-2.1 4.95-4.05 7.3-7.15-11.75-9.15-14.1-6.4-7.5-10.5-1.75l.2-8.85q.15-5.95-.45-11.75"/><path fill="#eeeeef" d="M80.4 148.55q3-2.35 3.55-1.4.55.95.95 2.7.5 1.95-.1 2.2l-7.25-.95 2.85-2.55"/><path fill="#c8c9ca" d="M82.3 147.25l1.65-.1.8 2.1q.5 1.6.35 2.3-1.1-2.9-2.8-4.3"/><path fill="#eeeeef" d="M64.5 145.05q1.6-.7 5.5 2.1t3.25 4.25q-.25.7-5.85.85l-6.75-.55q-.8-.4.6-3.1 1.45-2.8 3.25-3.55"/><path fill="#c8c9ca" d="M73.25 151.4q-.2.45-3.25.7l-5.75.1 4.1-1.55q2.35-1.1 2.95-2.45 2.45 2.15 1.95 3.2"/><path fill="#d2ddf0" d="M81.85 40.05q7.7 3.65 14.8 8.5 19.45 13.3 19.3 25.2 3.75-2.35 5.55-4.9 12.25 5.6 18.35 9.7 13.85 9.4 17 20.7 3.7 13.3 1.05 23.5-2.65 10.2-12.05 18.9-6.8 6.3-19.95 7.6-11.1 1.1-23.35-1.5-9.6-2.05-20.8-11.1-9.7-7.85-10.95-11.75l-2.95-7.4q-2.2-5.05-2.55-6.95l.2-.6q-2.1 1.55-5.4 2.7l-4.55 1.55q-1.9.8-4.3 2.8-2.3 1.95-3.6 2.4-2.35.75-6.35-.65-4.4-1.6-5.9-4.55l-1.65-6.3q-1-3.75-4.65-6.5-3.95-3-4.65-7.9l-.3-12.25q-.25-7.85 4.9-19.1Q34.2 50.7 40.95 44.5q10.25-9.6 31.25-7.9 2.8.25 9.65 3.45"/><path fill="#b5bfd0" d="M70.1 102.35q.55-1.3 1.3.3l1.05 3.65q.8 3.8-.85 8.85-1.65 5.1-.8 9.75l-2.95-7.5Q65.5 111.95 65 110q2.1-1.2 3.5-3.75l1.6-3.9M82.15 40.2q7.6 3.6 14.55 8.4 19.15 13.15 19 25.05 3.75-2.35 5.8-4.8 12.25 5.6 18.35 9.7 13.85 9.4 17 20.7 3.7 13.3 1.05 23.5-2.65 10.2-12.05 18.9-6.8 6.3-19.95 7.65-11.2 1.1-23.35-1.55-6.75-1.45-12-4.75l-4.9-3.45q6.6 3.1 17.55 1.4 13.05-2 16.2-11 5.3-15.3-3.35-29.35Q106.5 85.15 85 82q-2.3-17.5-10.15-28Q66.2 42.5 50.2 38.45q4.7-1.75 10.95-2l11.45.35q2.8.25 9.55 3.4"/><path fill="#d2ddf0" d="M25.4 48.45q2-4.9 3.6-3.5 1.05.9 6.15 3.7l8.2 4.85q3.2 2.2-2.5 10.25-2.2 3.15-4.25 4.65l-2.7.05q-1.55-4.85-8.95-13.25-1.6-1.8.45-6.75"/><path fill="#b5bfd0" d="M30.55 46.9q.35-1.15 6.2 2 5.4 2.85 7.1 4.4 1.1 1-1.45 7.9t-3.65 5L33 59.4q-4.5-5.05-4.1-5.9.45-.9.95-3.2l.7-3.4"/><path fill="#fff" d="M55.5 82.8q2.15-2.9 4.35-4.1 2.85 1.05 4.95 4.35 1.6 2.55 2.4 5.75 0 1.9-1.8 3.8-1.45 1.5-4.5 3.5-2.2 1.45-5.45 2.2l-2.8.45q-.25-1.25-.35-3.25-.15-4 .7-7.8.5-2.2 2.5-4.9"/><path fill="#dbdcdc" d="M62.5 80.35Q59.1 83 56.15 87.8q-3.7 5.95-3.5 10.75-.3-1.45-.35-3.75-.05-3.65.7-7.1.5-2.2 2.5-4.9 2.15-2.9 4.35-4.1 1.5.55 2.65 1.65"/><path fill="#ca0336" d="M52.85 98.8q-.55-.2-.6-3.3-.1-3.15.4-5.4l.85-3.95q.6-1.95 1.85-3.1 3.05.9 4.6 5.6 1.5 4.5.15 7.7-.7.7-3.7 1.7-2.95.95-3.55.75"/><path fill="#aa002b" d="M58.55 85.7q-2.65 1.7-4.15 5.65-1.25 3.35-1.45 7.5l-.1-.05q-.55-.2-.65-3.45-.1-3.2.35-5.5l.9-3.85q.6-1.75 1.9-2.95 1.8.5 3.2 2.65"/><path fill="#fff" d="M55.75 92.25l.45 1.7q-.05.75-.5 1t-1.1-.2l-1.1-1.35q-.45-.9-.45-1.7 0-.8.5-1 .45-.25 1.1.2.65.45 1.1 1.35"/><path fill="#d2ddf0" d="M129.55 46.9q-3.45 18.4-9.1 23.25-7.5 6.45-16.8 9.1-6.6 1.9-17.7 2.5-4.7-1.25-9.4-3.9-9.4-5.2-9.3-11.9.15-9.4.45-13.15.45-5.45 1.8-8.75 2-4.95 6.9-13.4 5.95-10.25 9.85-13.95 3.75-3.6 8.4-6.2 3.6-2 4.5-2 .55 0 1.55 1.5 1.05 1.55.4 2.4l-5.35 6.9q-4.8 6.4-5.6 8.6 4.85-4.6 13.25-9.1 8.9-4.75 13.5-4.75 4.05 0 15.4 3.5 8 2.45 11.3 3.75 1.15.45 1.55 2.6.45 2.25-1.45 2.4l-5.65.75-5.35.85q-1.4 9.7-3.15 19"/><path fill="#915e82" d="M119.65 36.6q2 10.5.15 16.45-1.95 6.35-5.05 10.95-2.5 3.6-4.95 5.2-4.05 2.65-15 5.3l-10.15 2.1q-.15-1.8-1.25-3.85-2.1-4.05-6.5-5.2-.7-3.45 1.8-12.9 2.35-9.1 4.65-13.2Q85.3 38 93.6 32.65q7.25-4.75 10.4-5.7 2.5-.75 7.45-1 5.05-.25 5.5.45 1.2 2.1 2.7 10.2"/><path fill="#65a9dc" d="M105.65 41.75q2.6 3.95 2.4 12.85-.2 7.95-1.8 10.7l-3.05 4.85-2.4 2.25q-2.1 1.8-16.35 4.3.05-1.8-.9-3.9-1.9-4.1-6.8-5.4-.55-5.05 2.2-14.25l2.8-8.15q3.85-2.55 11.6-4.55 9.8-2.45 12.3 1.3"/><path fill="#d2ddf0" d="M123.5 122.85q5.05 4.7 3.1 10.5-3.9 11.6-6.7 17.3-3.05 6.4-5.4 6.95-3.1.8-8.65.15-5.55-.6-6.05-1.8-.5-1.4-2.2-10.4-1.95-10.1-3.6-20.9-.85-5.5 4.9-7.55 5.15-1.8 12.6-.15 7.6 1.75 12 5.9"/><path fill="#b5bfd0" d="M127.95 122q1.4 3.85-1.35 11.35-4.75 12.85-7.55 18.45-2.7 5.35-4.55 5.8-3.35.8-8.85.15 5.4-2.85 10.05-12.15 5.65-11.3 5.5-24.75 5.3-2.9 6.75 1.15"/><path fill="#eeeeef" d="M99.55 153.75q1-.45 2.95 1.25 1.7 1.45 2.3 2.7.45.9-2.8 1.15l-4.7-.35q-.9-.3.2-2.35 1.05-2 2.05-2.4"/><path fill="#c8c9ca" d="M104.8 157.7q.45.9-2.8 1.15l-4.7-.35-.2-.1q3.45-.4 6-2.85 1.35 1.35 1.7 2.15"/><path fill="#eeeeef" d="M105.3 158q-.5-1.25 2.7-3.1 3.15-1.8 4.9-1.55 1.6.2 2.95 1.65 1.25 1.3 1.4 2.5.15 1.05-.45 2.35-.75 1.6-2 1.35l-5.25-1.1q-3.85-1.05-4.25-2.1"/><path fill="#c8c9ca" d="M117.25 157.5q.15 1.05-.45 2.35-.75 1.6-2 1.35l-3.55-.7q4.8-2.1 3.3-6.55l1.85 1.7q.75 1.05.85 1.85"/><path fill="#7f5072" d="M126.7 78.45q2.3.9 5.05 4.95.95 1.4-1.1 2.9-2 1.45-3.75.95-1.3-.4-2.25-2.75-.8-2.1-.75-3.85 0-1.3.7-1.95.75-.75 2.1-.25m17.65 23.95q2.35-.45 3.85 3.95 1.05 2.95 1.6 7.65.4 3.25-2.45 6.05-2.4 2.35-4.3 2.35-1.3 0-3.05-1.95-1.55-1.7-1.8-2.9-.35-1.45 1.8-7.85 2.3-6.9 4.35-7.3"/><path fill="#915e82" d="M123.7 113.7q.85 1.7.1 3.8-.7 1.85-2.05 2.65-1.2.75-4.45-2.6-3.3-3.3-3.3-5.45 0-1.3 1.4-2.75 1.15-1.15 2.5-1.8 1.15-.55 3.05 1.85 1.45 1.8 2.75 4.3"/><path fill="#7f5072" d="M123.7 113.7q.85 1.7.1 3.8-.7 1.85-2.05 2.65l-.55.05q.15-6.1-1.7-12.25 2 1.5 4.2 5.75"/><path fill="#915e82" d="M108.85 136.9q.55-1.1 2.25-2.25.8-.5 1.95 1 1.2 1.5.95 2.9-.25 1.7-1.2 2.9-1.1 1.35-2 .3-1-1.15-1.6-2.65-.65-1.6-.35-2.2m34.1-1.65l-.9 1.7-2 1.9q-1 .7-1.5-.75-.4-1.3-.2-2.85.2-1.25 1.55-2.15 1.25-.9 1.85-.4l.9 1.2q.35.8.3 1.35"/><path fill="#d2ddf0" d="M85.95 92.35Q69.7 99.3 67 100.65q-2.45 1.25-2.5-.3-.1-1.6 2.25-2.45l18.7-7.9q16.45-6.6 22.5-6.85-5.2 1.95-22 9.2m-28.2 16.45l17.45.85 20.55 1.7L74.4 111l-17.25-.35q-1.2.05-1.55-.95-.35-.95 2.15-.9"/><path fill="#0d131a" d="M62.1 121.65q.25.55-.1.95-.65.9-3.5 1.35l-3.6.1q-.65-.15-4.2-2.05l-3.8-2 1.15-.7 3.45 1.85 3.7 1.85 3.25-.2q2.55-.35 2.75-.75.15-.35-2.3-2.85l-4.3-4.15.65-.7 3.4 3.35q3 3.05 3.45 3.95M52.3 16.2q7.45 5.7 11.1 19.85L61.85 36q-7.65-25.65-28.7-21.75-.7.1-.85-.25-.15-.35.05-1.5l1.8-10.55-1.8-.1q-1.9.3-2.25.75-6 7.25-9.8 20.75-2.6 9.25-3.05 15.55-.2 2.85-.9 1.9-.45-.65-.95-2.55l-1.3-6.75-1.05-6.1q-.05-.4-1.15-.3-1.2.1-1.6.75-.45.65-.95 5.6-.5 4.85-.5 8.2 0 14.6 6.35 28.65 3.95 8.7 9.5 15.55l-.4 1.1q-8.45-7.4-13.75-23.1-6.45-19.1-1.6-36.65.25-.85 2.7-1.45l2.8.15.8 5.3 1.1 7.1q.7-7.55 3.25-16.1 3.5-11.6 9-18.45.9-1.15 4.15-1.6L36 .3q.1.75-.9 6l-1.25 6.35q11.3-1.95 18.45 3.55M.05 73.85q.1-.25 1.05.3 5.8 3.4 13.1 9.55l10 9 .35 1.3-10.4-9.25q-7.5-6.45-11.35-8.8l6.55 5.8L17.6 89q4.6 4.2 7.65 7.7l.2 1.3q-4.5-5.2-16.6-15.6Q4.1 78.3.6 74.8q-.65-.75-.55-.95m20.85 33.4l12.75.45-.1.8-9.95-.3-14.65.45 25.3.85-.1.85-16.05-.7-14.4-.25-1.5-.25q.1-.25 1.4-.55 6.15-1.3 17.3-1.35m115.45-53.5l3.1.15q1.15.55 2.1 1.9.95 1.35 1.1 2.5.25 1.8-.8 21.4l-1.25-.3.25-10 .05-11.25q-.1-.85-.75-1.65-.6-.7-1.35-1.05l-1.75-.15-6.95 6.35q-6.7 6.25-7.4 6.75l.4-2.25 6.8-6.4 6.45-6M155.85 79q.95.35 1.6 2.3.7 2 .3 3.5-.6 2.3-2.25 10.65l-1.1-1.2 2-10.15.1-.75q0-1.75-.75-2.5-.45-.45-4.6 1.7l-4.05 2.25-.95-1.1 4.35-2.5q4.5-2.5 5.35-2.2m-22.4 72.65q2.6 1.2 6.5 1.2v1.3q-4.85 0-7.6-1.25 1.05-.75 1.1-1.25m28-9.6q-2 3.1-5.75 6.35-3.45 2.95-6.25 4.25.2-.6 0-1.55 2.45-1.3 5.05-3.6 2.95-2.65 4.85-5.6 1.45-2.15 1.85-5.35.4-3.15-.35-6.1-1.1-4.3-3.7-5.75l.3-1.65q1.7.9 3.15 2.95 1.45 2.1 2.05 4.45 1.8 7.05-1.2 11.6"/><path fill="#0d131a" d="M133 149.4q1.4 1.6.7 3.15l-2.6 1.6q-3.4 1.75-7.55 2.45-1.05.15-1.05-.95 0-1.5.8-3.4l1.45-3.15.9.4q-1.75 4.2-1.75 5.55v.2q.8.2 4.35-1.15 3.45-1.3 4.4-2.05l.1-.6q0-.9-1.1-1.9l-1.1-.9.8-.6 1.65 1.35m16.05 2.15q-.4-1.1-5.1-3-1.15-.4-1.7.15-.7.8-1.4 3.5-.7 2.55-.7 3.95l.25.65 1 .1q5.6-2.5 7.3-4.6l.35-.75m-7.9-3.15l.8-.9 1.35-.15q1.95.4 4.25 1.55 2.55 1.25 2.9 2.3.2.6-.35 1.35-1.15 1.65-5.3 4.05-4.25 2.45-5.2 1.75-1.05-.7-.4-4.45.65-3.6 1.95-5.5M63.3 111.3q1.25 1.9 1.2 10.85l-.2 11.65q0 7.15 1.05 11.3l-1.35.1q-1.25-4.65-1.4-10.6-.1-3.6.35-11.85.2-3.3-.25-6.7-.45-3.1-1-3.9l1.6-.85m10 39.5l4.65-.4q.1.95.35 1.3l-.7.05-4.65.25.35-1.2m13.05-11.05l1.55 1.05q-1.6 3.85-3.55 6.8-.35-.25-1.15-.55 1-1.55 3.15-7.3"/><path fill="#0d131a" d="M80.55 148.95q-2.3 1.7-2 1.85l2.55.45 2.8.3q.8-.05.05-2.55l-.3-1.1-.45-.5q-.35-.2-2.65 1.55m.1 3.4l-3.2-.75-.25-.85q.65-1.3 2.9-2.85 2.3-1.65 3.5-1.5.65.1.95.55.65 1.1 1 3.8l.05 1.65q-.25.55-1.6.5l-3.35-.55M64.8 145.8q-.95.2-2.4 2.65-1.4 2.45-1.05 2.85l5.55.3 5.6-.35q.65-.55-.95-2.15-1.6-1.6-3.7-2.6-2-.95-3.05-.7m-.5-1.2q1.25-.55 3.9.8 2.45 1.2 4.15 2.9 1.95 1.9 1.35 3.3-.1.35-.7.55l-6.75.85-6.3-.35q-.5-.3-.5-1.25.1-1.4 1.6-3.65 1.6-2.45 3.25-3.15m7.5-20.8q1.5 3.6 8.6 10.1 8.4 7.7 16.65 11.05l.55 2q-8.65-3.25-16.8-10.15-7.6-6.45-10.9-12.65-1.55-2.9-3.3-7.5-1.6-4.3-1.9-6l1.35.1q.3 1.6 2.8 6.9l2.95 6.15m68.85-43.85q-6.8-4.85-18.1-9.9l-1.35-.6.95-.95.9.35q13.4 5.75 20.15 10.6 11.9 8.4 15 19.55 3.95 14.4.7 25.4-2.85 9.45-11.5 17.5-4.55 4.2-12.35 6.3-6.95 1.9-15.4 1.95.9-.8.9-1.5 17.1-.25 24.85-7.45 9.25-8.55 11.85-18.6 2.6-10.1-1.05-23.2-2.9-10.55-15.55-19.45M70.3 103.3q-.8 3.4-3.35 5.95l-2.35-.1q3.6-2.75 5-6.65.4-1 .7-.6.25.4 0 1.4"/><path fill="#0d131a" d="M24.15 96.75q-1.1-3.05-1.1-9.85l.2-5.6q-.25-7.95 5.7-20.25l.65.9.75.9q-5.7 12.1-5.5 18.4l.05 5.35q0 6.15.6 8.4.85 3.4 4.05 5.8 2.85 2.15 4.05 4.65.75 1.5 1.3 4.4.5 2.7 1.2 4 1.3 2.7 5.45 4.2 3.75 1.35 5.85.65l3.3-2.15q2.45-2.15 4.6-3.05l2.35-.8q2.1-.65 4.15-1.75l1.95-.05h1.75l-3.8 2.05-3.6 1.15-2.25.8q-1.7.65-4.2 2.75-2.35 1.95-3.8 2.45-2.6.85-6.8-.5-4.7-1.5-6.3-4.7-.55-1.1-1.3-4.8l-.9-4.05q-1-2.25-3.9-4.05-3.35-2.1-4.5-5.25m48.35-59.2q-10.4-1.75-20.35 1.6-10.3 3.5-14.4 10.8l-1.75-1q4.85-8.65 17.9-12.05 11.4-2.95 19.15-.45l-.55 1.1"/><path fill="#0d131a" d="M26.6 44.5l3.85.1q1 .75 6.3 3.9 5.6 3.3 6.7 3.7 1.2.45 1 1.2-.15.7-1.05.2-12.4-6.5-13.2-7.2-1.75-1.6-3.15.35-1.05 1.45-1.7 4.05-.8 2.95.1 3.95 2.7 3.1 5.45 7 3.25 4.65 3.6 6.4.35 1.75-.3 1.65-.6-.15-.9-1.1-.25-.85-3.65-5.9Q26 57.45 24 55.2q-1.35-1.55-.2-5.35 1-3.5 2.8-5.35m18.55 71.65q.3-1.45 1.1-2.5l.6-.05q.25.45 0 1l-1.1 1.75-.45.5q-.3 0-.15-.7M53.1 85.7q1.7-4.4 6.55-7.6 1.9-1.2 2.05-.75.15.4-1.05 1.3 2.85 1.1 5 4.5 1.85 3.1 2 5.7.15 2.5-3.25 5.5-4.05 3.6-10.4 4.6l-1.55.05q-.25-.15-.35-1.5-.65-7.45 1-11.8m6.9-6.55q-8.15 5.7-7 19.15 5.45-.45 9.9-4.25 3.65-3.1 3.7-5 .05-1.95-1.85-5.2-2.2-3.65-4.75-4.7"/><path fill="#0d131a" d="M55.25 83.35l.25-.6q3.35 1.4 4.65 4.6.95 2.3.95 4.75t-.9 4.3l-.55.2q.8-1.65.7-4-.1-2.3-1-4.55-1.6-3.75-4.1-4.7m89.1-62.6q1.5.85 1.8 3.45.3 2.65-1.3 2.95l-6.65.55-4.85.4q-.2.35-.55 3.35l-.6 5.15q-4.15 28.85-10.5 34.2-6.05 5.1-15.95 8.3-9.6 3.05-19.75 3.4-2.05.1-2.25-.55-.2-.65 1.95-.6 4.2.1 13.75-2.3Q113 75.65 120 69.6q4.2-3.6 7.7-18.25 2-8.35 3.1-16.8l.55-5.35q.4-2.5 1.15-2.6l11-1q.85-.1.65-1.65-.15-1.5-.9-2-20.3-7.2-26.35-7.2-4 0-14.4 5.75-9.05 5-11.25 7.15-1.4 1.3-1.85 1.25-.45-.05.05-1.25 1.15-2.8 6.2-9.25l4.85-6.4q.15-.65-.5-1.65l-.95-1.05q-1.4.3-4.55 2.15-4.25 2.45-7.75 5.75-3.9 3.7-9.8 14Q72 39.7 70.2 44.3q-1.6 4.05-2.3 19.75-.15 3.8-.75 3.6-.6-.15-.65-1.6-.15-5.25.1-10.55.4-8.2 1.65-11.35 2.6-6.55 7.5-14.65Q81.5 20 86.6 15.15q3.05-2.9 7.85-5.4 4.05-2.1 5.2-2.1.65 0 1.65 1.6 1.05 1.75.75 2.9L98.2 17.5l-5.45 7.25q5.8-4.4 12.45-7.8 7.6-3.9 11.7-3.9 4.4 0 15.5 3.45 9.6 2.95 11.95 4.25"/><path fill="#0d131a" d="M82.15 41.5q2.2-3.9 10.35-9.25 7.25-4.8 11.35-6 2.4-.75 7.7-.95 5.7-.25 6.3.75 6 17.35 3.05 26.75-1.9 6.2-5.3 11.05-2.8 4-5.5 5.75-4.2 2.75-13.25 5.05-6.25 1.6-12.1 2.45-.9.15-.9-.45l.2-.6q-.35-1.7-1.4-3.5-2-3.6-5.2-4.4-.9.5-1-.5-.65-5.75 1.4-14.2 1.85-7.55 4.3-11.95m11.7-8.45Q85.7 38.4 83.8 41.7q-2 3.6-4.25 11.5-2.3 8.3-2.3 12.65 0 .8.15 1.4 4.15.65 6.05 4.2 1.05 1.85 1.55 4.6 18.7-3.45 24.55-7.25 2.45-1.6 4.95-5.35 3-4.5 4.85-10.55.85-2.85.85-6.7 0-8.8-3.65-19.5l-5.3-.25q-4.7.25-7.1.95-3.1.9-10.3 5.65"/><path fill="#0d131a" d="M81.55 44.45q3.8-3.15 12.3-5.1 9.9-2.3 12.6 1.75 2.65 3.95 2.65 12.95 0 8.25-1.65 11.15-1.85 3.2-4.25 5.65l-2.15 1.9-2.65.8 2.7-2.35q3.05-2.95 4.8-6.1 1.5-2.6 1.7-10.4.25-8.85-2.3-12.7-2.4-3.55-12.45-.9Q84.8 43.2 81 45.7l.55-1.25M94.7 125.2l2.15 12.35q2.15 12.35 3.3 16.05-.7.1-1.6.85-1.4-4.9-2.85-13.35-1.5-8.95-2.1-16.7-.1-1.45.4-.85.45.5.7 1.65m31.25 8q.5-1.85.8-1 .3.85-.45 3.6-1.65 6-4.65 12.15-2.6 5.4-4.85 8.25l-.9-.95q2.1-2.85 6-11.85 3.4-7.85 4.05-10.2"/><path fill="#0d131a" d="M104.3 157.8q-.65-1.15-2.15-2.45-1.65-1.45-2.4-1.15-.5.2-1.3 1.3t-1 2l-.05.4.05.15 3.85.35q2.55-.15 3-.6m-1.4-3.5q1.55 1.6 2.35 3.15.25.55-.15 1-.65.8-4.45.95l-4.65-.35q-.65-.3.4-2.45 1.15-2.4 3.25-3.7 1.15-.75 3.25 1.4"/><path fill="#0d131a" d="M114.85 160.75q.6.05 1-.35l.75-1.45.15-1.4q-.15-1.05-1.3-2.2-1.25-1.3-2.65-1.5-1.2-.2-3.5.9t-3.25 2.25q-.4.55-.3.8.25.65 2.85 1.5l6.25 1.45m-2-8.2q1.75.25 3.3 2 1.4 1.55 1.55 2.85.45 2.5-.5 3.85-.75.9-2.05.75l-5.9-1.35q-3.9-1.25-4.4-2.5-.35-.7.45-1.75 1.1-1.4 3.6-2.7 2.5-1.35 3.95-1.15M85.8 89.5q14.55-5.7 22.1-6.8l1.15.1-.95.7-15.7 6.35L67.2 101l-1 .05q-.1-.4.6-.7 2.8-1.4 15.25-6.95 15.85-7.1 22.55-9.45-4.05.85-17.55 6.1-12 4.6-20.15 8.2-.9.4-1.1 0-.2-.35.8-.75l19.2-8m-28.1 18.9l18.3.95 19.8 1.6q1.05.25.95.5l-1 .3-11.65-.3-16.9-.3-10-.1q-.7-.05-.35-.35.4-.35.85-.3l9.95.1 17.3.4 5.65.1-5.65-.4-27.15-1.4q-.6 0-.8-.35-.25-.4.7-.45"/></svg>