<svg xmlns="http://www.w3.org/2000/svg" width="456" height="415" viewBox="0.0 -0.7 455.8 415.45"><path fill="#0d131a" d="M409.4 199.05q22.7 18.2 34.65 40.4 9.6 17.8 9.6 31.7 0 18.15-13.95 37-13.45 18.2-34 29.45 4.65 4.95 6.65 7.9 2.7 4 2.7 7 0 1-.9 2.5l-1.45 2.3q-5.2 10.35-35.25 12.8-23.75 1.95-45.3-1.15-15.75-2.3-26.95-7.45-2.5-1.1-14.35-8.2-5.2-3.15-7.5-3.95-3.55-1.3-7.25-.5-51.25 10.95-78.2 7.4-13.9-1.85-26.05-7.6-11.05-5.25-23.4-15.15-37.85-26.15-53.4-56.3-15.6-30.2-6.15-58.95 5.25-16 17.95-29.7 12.7-13.75 31.25-23.45 19.35-10.15 42.75-15 23.5-4.9 49.3-4.15 62.95 1.8 110.9 17.45 40.5 13.25 68.35 35.65"/><path fill="#5dc1cf" d="M403.3 339.6q2.8 1.7 5.45 7.3 2.9 6 1.35 9.1-4.45 8.9-31.65 10.9-22.2 1.6-43.3-1.45-15.8-2.25-27.4-6.85-6.75-2.65-15.35-7.85-5.65-3.35-8.2-4.25-4.25-1.45-8.7-.55-45.4 9.35-72.5 6.15-27.15-3.25-52.9-21.05-36.95-25.55-52.2-54.8-15.3-29.3-6.2-57.1 10.65-32.5 49.3-52.1t89.1-18.15q89.35 2.6 140.3 27.4 50.95 24.85 74.55 77.35 10.85 24.05-9.5 52.35-7.45 10.35-17.75 19.3-8.65 7.5-15 10.6-8.9 4.4-6.4 4.75 1.65.25 7-1.05"/><path fill="#50a8b4" d="M150.1 331.05l-6.4-4.6q27.7.05 63.7-6.95l63.15-14.15q5.2 20.75 13.4 41.1-4.15-1.4-8.45-.5-45.4 9.35-72.5 6.15-27.15-3.25-52.9-21.05m258.35-39.65q1.7-7.75-3.45-16.55-4.65-7.95-13.05-13.9-8.3-5.95-15.8-6.8-8.15-.95-11.85 4.75 1.05-1.75-.9-5.7-2.05-4.15-6.7-9-11.65-12.05-29.7-19.15-22.75-9-48.45-6.45-31.45 3.15-63.9 23.5-12.95 8.1-27.25 4.45-11.5-3-26.15-14.55-4.15-3.3-25.65-22.6-15.6-14.05-25.75-19.8 19.05-19.9 50.65-30.75 32.15-11 69.6-9.95 89.35 2.6 140.3 27.4 50.95 24.85 74.55 77.35 10.85 24.05-9.5 52.35-7.45 10.35-17.75 19.3-8.65 7.5-15 10.6-8.9 4.4-6.4 4.75 1.65.25 7-1.05 2.8 1.7 5.45 7.3 2.9 6 1.35 9.1-2.25 4.55-10.9 7.35-7.6 2.5-19.5 3.45-.25-8.4-3.8-14.95-2.95-5.35-6.65-7.45 34.4-31.2 39.2-53"/><path fill="#0d131a" d="M393.85 357.9q4.95 5.8 4.45 8.3-.75 3.45-2.45 7.35-2.25 5-4.1 4.95-4.95-.1-10.8-2.6-5.25-2.2-10.05-5.8-.75-.5-.9-1.15-.3-1.2 1.45-3.55 11.75-15.3 14.95-14.1 2.75 1.05 7.45 6.6"/><path fill="#fff" d="M392.8 360.05q3.9 4.85 3.55 6.7-.45 2.3-2.25 5.15-1.9 2.85-3.05 2.85-2.35 0-9.1-2.05-7.35-2.3-8.8-4 .25-1.45 3.85-6.05 4-5.05 7.3-7.25 1.7-1.15 2.3-1 2.35.9 6.2 5.65"/><path fill="#dbdcdc" d="M386.65 354.45q2.35.95 6.2 5.65 3.85 4.85 3.5 6.65-.45 2.05-1.95 4.55-2.2-8.55-7.75-16.85"/><path fill="#0d131a" d="M418.8 348.95q7.05 7 6.05 9.5-1.95 4.8-12.05 6.3-3.95.6-6.8.15-2.95-.45-2.75-1.75.5-3.35 2.7-11.7 2.15-8.3 2.55-8.45 3.2-1.2 10.3 5.95"/><path fill="#dbdcdc" d="M406.35 361.1l-.1-.9q0-2.45 1.75-8.1 1.55-5.1 2.55-6.85 1.85 1.1 6 6 4.35 5.15 4.35 6.75v.05q-.1 1-3.1 2.4-3.25 1.55-6.7 1.95-4.2.5-4.75-1.3"/><path fill="#0d131a" d="M365.25 342.3l20.4-1.7q2.95-.4 2.85.6-.1.9-2.25 1.85-2.75 1.25-19.7 1.75-18.65.6-24.65-1.8l.45-1.35q4.85 1.6 22.9.65m1.6-106.55q.55-3.35 1.4-3.35.9 0 .8 3.35-.95 23.75-10.65 39.1-10.35 16.35-32.15 25.45l-.85-2.05q19.55-8.15 30.2-27.35 7.8-14.05 11.25-35.15M207.75 132.6l1.05.95-46.85 32.85q-1.2.75-24.4 8.2-23.45 7.45-24.5 7.25-.9-.2-4.6-13.25l-5.05-18.05-5.95 35.75q-21 6.35-21.9 5.65-.5-.4-.5-9.3l-.1-16.05-6.45 29.6-7 2.25q-7.15 2.15-7.95 1.5-.8-.65-2.15-8.2l-2.1-11.65-6.45 22.75q-9.1 4.55-10.25 3.65-.65-.5-1-5.6l-.65-8.6-4.6 16.35Q13.6 211.6 13.1 210.7q-.35-.6 3.35-10.1l5.5-14.2L2.35 206q-1.85 1.75-2.05.5l.2-1.65L9.75 178l18.15-9.65-15.15 4.1L25.6 155.6l21.85-9.7-11.95 2.4q-6.85 1.4-7.2.9-.4-.55 11.55-10.6 11.9-9.95 13.25-10.4l9.25-.7 13.45-.65q-5.75-2-9.6-4.05l-1.8-.75q-.1-.15 1.9-1.2 39.35-20.45 76.3-18 38.65 2.55 65.15 29.75"/><path fill="#00a63c" d="M69.3 121.95q39.95-18.2 74.5-15.3 34.6 2.85 61.4 26.65l-46.5 31.3q-43.15 14.9-44.2 14.45-.75-.35-5.4-15.25-4.65-14.95-5-18.35-.4-3.5-1.1-2.55-.8.95-2.2 7.15-1.95 8.45-5.3 34.45l-17.8 4.65-.75-31.85q-.15-4-.5-4.2-.4-.3-1.7 4-1.85 6.05-8.1 37.3l-11.45 2.85q-3.75-15.15-4.7-22-.65-4.55-1.15-4l-1 3.95-7.25 25.75-6.45 1.3-1.05-6.45q-.9-5.7-1.25-8.9-.4-3.85-.7-3.85-.3.05-1.45 3.7-1.45 4.8-5.6 19.95l-8.15 1.25 9.25-25.5q1.3-3.35-.1-2.6l-1.7 1.45-19.75 19.75 7.4-21.5q20.65-11.4 26-13.8 8.55-3.9-.8-2.05-4.05.8-9.9 2.5l-8.4 2.45L27 157.4l13-5.75 16.45-7.35q4.1-1.85 4.15-2.15.05-.45-4.75.05l-10.4 1.65-9.55 1.8 18.1-15.3 12.75-.7 14.9-.9q2.65-.25 2.7-.6 0-.35-2.4-1.55-1.5-.75-5.75-2.1-4.45-1.4-6.9-2.55"/><path fill="#009233" d="M107.2 133.65q-1.35 0-4-2.95l-5.7-6.25q-8.7-8.75-17.5-7.05 36.65-14.3 68.4-10.25 31.8 4 56.8 26.15l-45 30.3q-8.45-11.9-23.2-20.4-15.25-8.85-29.8-9.55"/><path fill="#0d131a" d="M182.8 122.8l9.35 8.2-3.65.95q-4.2-1.4-11.4-2.6-14.25-2.3-30.1-1.3Q96.65 131.2 49.55 166L47 167.85q-1.85 1.05 1.65-2.95 21.7-24.95 56.1-36.7 37.25-12.7 78.05-5.4"/><path fill="#00a63c" d="M187.2 129.65q-28.75-6-51.65-3Q99.7 131.35 60.1 157q21.7-20.3 53.4-28.9 32.85-8.95 69.3-3.3l.85 1.6q1.2 1.8 3.55 3.25"/><path fill="#009233" d="M182.8 124.8l.85 1.6q1.2 1.8 3.55 3.25-19.2-4.05-33.95-4.1-22-.15-44.6 7.35l-3.15-2.4q17.4-5.85 36.75-7.35 19.9-1.55 40.55 1.65"/><path fill="#00a63c" d="M293.5 94.95l.35.15.2.35q3.8 5.6 4 11.85.25 6.3-3.15 12.15-6.8 11.7-25.15 18.3-21.85 7.8-53.75 5.4-4.25-.35-5.35-3.65-1.45-4.35 3.5-12.4 4.95-8 14.05-16.05 11.75-10.4 25.1-15.85 21.95-9 40.2-.25"/><path fill="#009233" d="M291.85 97.45q3.3 5.05 3.3 10.6 0 5.1-2.8 9.9-6.4 11.05-24.1 17.25-21.05 7.3-52.05 5-2.3-.15-2.75-1.65-1.1-3.1 3.35-10.15 4.8-7.55 13.35-15.15 11.15-9.85 23.8-15.15 20.8-8.65 37.9-.65"/><path fill="#0d131a" d="M250.65 56.3q6.75 3.5 8.9 8.9 7.75 19.7 8.5 35.5.85 17.15-5.95 38-1.6 4.95-7.65 9.2-6.3 4.5-15.5 6.75-12.85 3.15-24.9 1.3-14.6-2.25-22.2-11.7Q177.2 125.9 181.8 96.4q1.6-10.3 5.4-20.45 2.85-7.8 5.4-11.8 4.4-7.05 17.2-10.45 11.5-3.05 23.9-1.9 10.2 1 16.95 4.5"/><path fill="#c28600" d="M256.8 66.3q7.45 18.85 8.1 35.55.75 17.45-5.7 36.2-1.4 4.05-6.9 7.8-5.8 3.9-14.1 5.95-12.45 3.1-23.65 1.5-14-1.95-20.45-10.95-12.6-17.6-8.6-45.85 1.45-9.95 4.75-19.6 2.6-7.65 4.8-11.2 4-6.35 15.9-9.35 10.8-2.7 22.5-1.6 9.2.85 15.35 3.9 6.2 3.1 8 7.65"/><path fill="#986a00" d="M256.8 66.3q6.3 16.05 7.75 30.35 1.45 14.95-2.1 30.25-19.7-14.95-40.05-25.95-26.6-14.3-35.85-10.5 1.65-8.15 4.45-15.7 2.25-6.1 4.05-9.05 4-6.35 15.9-9.35 10.8-2.7 22.5-1.6 9.2.85 15.35 3.9 6.2 3.1 8 7.65"/><path fill="#0d131a" d="M244.7 81.5q.6-.2 4.8 4.95l4.8 5.95q4.75-6.55 8.1-10.25l1-1.1.25 1.5q1.4 7.75 2.95 13.55.6 3.5-.6 11.3l.25 4.75-1.3 1.95-2.65 6.3-4.05 9.25-.8 1.55-6.15-18.15-8.7 17.35-7.45-13.4-8.7 13.1-8.75-11.65-7.5 15-7.55-16.5-8.05 9.4-1.4 1.35-1.35-1.65-8.7-12.75v-.25q-.25-15.35 4.15-32.2l.4-1.45 6.5 8.65 3.9-4.25q3.35-3.6 4.15-3.4.8.2 2.85 8.7l2.4 10.15 5.65-9.35q4.7-7.9 5.3-7.95.6-.05 3.6 5.95l3.55 7.1 3.85-6.85q3.2-5.8 3.8-5.9.65-.1 3.45 6.75l3.55 8.7 2.15-9q1.65-7 2.3-7.2"/><path fill="#c28600" d="M262.45 84.35q2.1 11.85 2.1 18.8l-.15 4.05-.75 4.75q-.3.45-2.5 6.7l-3.4 8.75-3.2-10.95q-2.6-8.9-2.9-8.85-.35 0-4.35 9l-4.75 10.65-3.95-8.45q-3.15-6.95-3.5-6.75-.3.2-4.2 7.3l-4.55 8.2-4.95-7.75q-4.3-6.6-4.65-6.35-.35.25-3.05 7.65l-3.45 8.95-3.7-9.65q-3.05-8-3.45-8.25-.4-.25-4.4 5.7l-4.65 6.85-9.4-11.9-.05-1.3q0-13.5 3.75-28.75l2.35 3.75 2 3.3 1 1.3q.3.2 1.15-.65 4.5-4.5 6.25-5.85l2.7 9.35q2.45 8.15 3.25 8.5.75.35 5.8-7.15l5.75-8.75 3.45 6.2q2.9 5 3.5 4.95.6-.05 3.65-4.7l3.7-5.9 4.25 7.8 3.45 6.6 4.8-15.85 9.05 9 .5-.7 2.6-3.45 4.9-6.15"/><path fill="#986a00" d="M196 89.35q3.9-3.85 5.1-4.75l1.9 6.75-7-2m-7.65-6.6q1.1 1.5 3.45 5.75l-4.6-.65 1.15-5.1m57.05 2.9l9.05 9 .5-.7 2.6-3.45 4.9-6.15q2.1 11.85 2.1 18.8l-.15 4.05-.75 4.75-1.95 5.1-2.9 7.95-2.25-1.55q-4.55-15.9-4.9-15.85-.35 0-4.45 9.15-10.8-7.8-16.65-11.6-9.45-6.1-17.65-9.9l5.7-8.7 3.45 6.2q2.9 5 3.5 4.95.6-.05 3.65-4.7l3.7-5.9 4.25 7.8 3.45 6.6 4.8-15.85"/><path fill="#c28600" d="M257.75 127.4l-1.2-3.95 2.25 1.55-1.05 2.4"/><path fill="#0d131a" d="M339.4 35.95l1.5 2-110.85 16.9L122.6 28.1l8.4-9.3q8.9-8.75 12.9-8.15 1.2.2 4.45 1.6l5.7 2.4-3.45-3.8q-1.75-2.05-.7-2.5 5.25-2.5 14.75-4.95Q180.2-.7 191.55.75 206.5 2.7 231.25 31q6.5-11 9.4-15.15 7.9-11.2 13.7-13.35Q261.3-.1 273.7 0q11.2.1 11.95 1.3.4.7-1.95 4.75l-3.35 5.8q13.35-7.55 16.35-7.4 9.2.7 26.5 15.75 12.05 10.45 16.2 15.75"/><path fill="#e85382" d="M316.45 18.8q13.7 10.65 19 17L230.2 51.85 127.05 26.9q3.15-4.05 6.6-7.15 5.15-4.7 9.4-5.85 3.9 1.1 14.75 5.35l4.9 1.95-9-11.85q7.8-2.7 15.5-4.25 12.75-2.65 21.95-1.45 10 1.3 25.25 15.3 7.65 7 13.4 13.9l1.4 1.65 1.05-1.85 8-12.45q9.1-12.7 15.15-14.95 6-2.3 14.75-2.65 7.4-.3 12.2.75-2.65 3.2-4.85 7.6l-1.75 3.95-1.3 3.8 3.45-2 7.75-4.75q8-4.7 9.8-4.9 5.25-.5 21 11.75"/><path fill="#c94772" d="M325.85 26.55q7 6.15 9.6 9.25L230.2 51.85 133.6 28.5q22.65-.45 35.35.4 19.55 1.2 35.4 5.75-4.5-12.6-12.15-21.3-6.65-7.6-13.25-9.75 6.7-.65 12.2.05 10 1.3 25.25 15.3 7.65 7 13.4 13.9l1.4 1.65.05-.1q2.7 3.75 5.45 4.65 7.85 2.2 15.65-.5 4.85-1.65 14.85-7.75 11.05-6.7 18.2-9.7 12.05-5.05 25.65-6.35 7.1 5.05 14.8 11.8"/><path fill="#0d131a" d="M249.15 16.8q2.55 1.4 4.5 3.7 1.35 1.5 2.15 3.05.85 1.7.55 2.5-.4 1-4.6 2.35-4.75 1.45-9.35 1.4-5.45-.1-8.8-2.35l-.45-.3.3-.45q3.4-5.5 7.45-10.75l.15-.15.15-.05q4.05-1 7.95 1.05"/><path fill="#fceef4" d="M251.95 20.25q1.55 1.55 2.55 3.25.8 1.45.8 2.05v.05q-.25.4-2 1.1l-4.6 1.3-6.3.65q-4.7-.1-7.7-1.85 3.7-5.75 6.95-10 3.15-.75 6.25.65 2.2.95 4.05 2.8"/><path fill="#0d131a" d="M290.9 18q.85-.5 3.65.85 5.45 2.6 11.05 7.85 7.15 6.85 8.9 13.75l.15.55-18.95 2.9-.2-.05q-5.95-2.85-9.2-7.4-2.45-3.2-1.15-8.7.85-3.25 2.75-6.35 1.75-2.8 3-3.4"/><path fill="#d9ced4" d="M291.35 19q.6-.3 3.5 1.2 5.5 2.85 10.55 7.8 6.1 6.05 7.85 12.1l-17.4 2.7q-5.65-2.8-8.7-7-1.35-1.8-1.35-4.55 0-1.5.45-3.2.8-3.15 2.6-6.1 1.55-2.55 2.5-2.95"/><path fill="#0d131a" d="M285.05 10.5l-.15 1.15q-.55 3.2-2.25 6.15-2 3.45-4.65 4.7l-7.75.2q-3.95-.95-6.3-2.65-1.25-.95-1.2-1.8.3-2.25 1-4.45 1.3-4.4 3.1-4.5l2.9-.25 9.9-.6h.95l-.5.85q-1.75 2.85-2.9 5.7l7.85-4.5"/><path fill="#fceef4" d="M266.9 10.4l2.95-.25 8.35-.55q-.95 1.75-1.75 3.65l-.7 1.65-1.3 3.8 8.8-5.35q-.75 2.55-2.2 4.55-1.55 2.25-3.55 3.15-2.45 1.15-6.5.45-3.7-.6-6.05-2.15l-1.1-1q.25-2.3 1.15-4.95 1.05-2.95 1.9-3"/><path fill="#0d131a" d="M206.25 9.2l.65.45-.6.5q-3.9 2.95-11.1 6.95-8.55 4.8-10.25 4.1-1.75-.7-3-4.25-1.4-4 .3-6.75 1.45-2.3 4.2-4.3 3.2-2.3 6.85-3.05l.1-.05.15.05q5.6 1.55 12.7 6.35"/><path fill="#fceef4" d="M185.55 19.4q-1.1-.4-2-2.95-.55-1.85-.55-3.25t.55-2.4q1.25-2.05 3.85-3.85 2.85-2 6-2.7 4.95 1.35 11.2 5.5-3.95 2.85-10.85 6.4-7.15 3.7-8.2 3.25"/><path fill="#d9ced4" d="M198.2 13.75q-5.6-3.85-11.2-6.5 3.1-2.3 6.4-3 4.95 1.35 11.2 5.5-2.6 1.9-6.4 4"/><path fill="#0d131a" d="M163.2 9.7q6.05-.4 7.65 1 1.3 1.15.85 4.3-.45 3.05-2.3 6.15-4.65 7.9-10.95 5.8-5.9-1.5-8.75-11.65l.35-1.15 6.7 2.55-3.2-4.2.45-.35q2.85-2.1 9.2-2.45"/><path fill="#fceef4" d="M164.35 10.8q4.8-.1 5.8.75.5.55-.3 3.6-.9 3.45-2.75 6.25-3.6 5.45-8.2 3.9h-.05q-4.45-1.1-6.75-8.25l10.6 4.15-6.7-8.85q3.1-1.4 8.35-1.55"/><path fill="#0d131a" d="M222.55 45.45l.8.4V65.9l-1.75-.35q-24.6-2.2-57.15 1.2Q99.55 73.6 57 101.25l-4.75 3.1q-1.45.6-1-2.5 1.85-12.3 7.25-28.75 4.8-14.6 6.25-15.85.85-.7 6.5-3.4l11.55-5.6-12.1 3.1q-6.5 1.65-6.2.9.7-1.7 6.7-10.05 6.65-9.25 8.75-10.3 31-16 81.15-6.6 18.35 3.45 36.85 9.9 14.75 5.15 24.6 10.25"/><path fill="#e85382" d="M220.4 47.65v14.7q-26.55-4.4-59.65-.9Q101.85 67.75 54.7 99q1.65-8.3 6.65-23.3 3.15-9.6 5.75-16.3l11.3-6.15 13.95-7.85 3.9-2.55q.35-.45-2.6 0l-11 2.3-11.85 2.7q6.45-9.7 10.85-13.5 40.65-13.1 84.65-5.05 28.65 5.3 54.1 18.35"/><path fill="#c94772" d="M191.9 35.9q15.1 4.9 28.5 11.75v14.7q-18.5-3-42.15-2.15-3.5-10.55-11.4-19.35Q159.3 32.4 149.1 27q21.5 1.95 42.8 8.9"/><path fill="#0d131a" d="M150.6 25.3l.25.05.15.15 6.35 8.05q2.3 3.25 2.1 4.35l-.35.65Q124.85 50.1 121.9 49q-2.35-.8-10.5-6.8-9.15-6.65-8.6-8.75.3-1.05 2.85-2.3l5.35-2.3q5.65-2.25 8.05-3.9l.1-.1h.15q15.45-1.15 31.3.45"/><path fill="#fceef4" d="M149.9 27.05q7.55 9.15 7.55 10.55-1.85 1.05-17.4 5.4-15.85 4.5-17.25 4.1-2.5-.95-9.8-6.35-7.55-5.6-7.55-6.95v-.05q.15-.7 2.2-1.75l4.3-1.9q4.6-1.95 6.75-3.2 15.15-1.3 31.2.15"/><path fill="#0d131a" d="M107.4 55.05q5.05 1.15 7.75 2 2.5.75 3.35 3.4.35 1.1.35 2.6 0 2.2-.8 4.55-.75 2.25-2 3.8l-.1.15-.2.05q-11.3 3.4-21.85 7.75l-1 .55-7-7.85Q79 64 79.45 63.15q.9-1.55 8.65-5.65 8.2-4.35 11-4.05l8.3 1.6"/><path fill="#fceef4" d="M114.9 70.75q-11.05 3.4-20.75 7.35l-5.25-5.85q-6.85-7.35-6.85-8.5v-.05q.7-1.25 7.55-4.9 7.2-3.85 9.55-3.6l7.9 1.5q4.85 1.15 7.45 1.95 1.9.6 2.5 2.6.35 1 .35 2.2 0 1.9-.7 3.95-.7 1.95-1.75 3.35"/><path fill="#0d131a" d="M380.7 60.15q2.3 12.95 1.25 15.35-.45 1.05-5.4-1.55l-9.05-4.75 10.85 10.65q6.4 6.3 6.9 7.75.6 1.7-1.35 9-1.85 7.15-2.85 7.95-1.3 1.1-10.45-4.95l5.5 7.35q2.8 3.75 2.85 4.35 0 .95-7.95 5.8-18-18.4-44.1-33.9-52.05-30.9-94.7-18.5l-1.25.35-.5-1.2q-1.65-3.8-1.5-10l.55-5.7.1-.5.4-.35q6.95-6.2 20.5-12.6 16.75-7.9 34.75-11.4Q335 13.55 373.1 40.55q4.95 4.8 7.6 19.6"/><path fill="#e85382" d="M363.6 94.9l11.5 16.05-3.05 3.05Q350.7 93 323.4 77.85 273.95 50.3 232.8 61.5q-.9-3.05-.9-6.45 0-3.2.4-5.85 7.05-6.05 20.6-12.15 16.55-7.5 34.2-10.65 48.5-8.7 83.9 18.15 3.2 4.05 5.4 13.35 1.4 5.9 2.2 12.9l-16.7-7.25q-4.15-1.75-4.3-1.05-.1.55 2.65 3.45l21.7 22.5-3.35 12.9q-1.6-1.05-5.8-3.15l-6.35-3.2q-3.2-2-3.85-2.3-.95-.45 1 2.2"/><path fill="#c94772" d="M309.8 24.35Q299.55 30.3 291.85 40q-7.6 9.6-11.2 21-25.4-5.6-47.85.5-.9-3.05-.9-6.45 0-3.2.4-5.85 9.75-8.4 29.05-15.65 24.5-9.25 48.45-9.2m52.1 39.2q-4.15-1.75-4.3-1.05-.1.55 2.65 3.45l5.3 5.5q-15.4-11.7-30.3-20.6 20.75-1.7 40.4 4.15 1.9 6.85 2.95 15.8l-16.7-7.25"/><path fill="#0d131a" d="M347.3 29.65l.3.1.05.3q.7 2.75-.75 8.7l-1.7 5.65q-.6 1.7-9.15 3.75-9.6 2.3-15.6.15-2.25-.8-6.9-5.25-4.7-4.5-5.1-6.3-.15-.75-.15-1.5 0-5.45 8.4-11.9l.15-.1h.25q15.9 1.05 30.2 6.4"/><path fill="#fceef4" d="M335.45 46.4q-8.75 1.85-14.3-.1-2.1-.75-6.45-4.65-4.3-3.85-4.6-5.15l-.1-1.2q0-4.75 7.5-10.55 15.05 1.05 28.55 6l.15 1.55q0 2.35-.9 6.05l-1.65 5.4q-1.4 1.2-8.2 2.65"/><path fill="#0d131a" d="M349.9 72.6q5.45-.6 6.85.5 1.6 1.3 3.7 8.1 2.2 7.25 2.2 12.55v.7l-.7-.15q-6.2-1.2-13.05 2.5l-.3.15-8.3-6 .05-.35q.4-1.8-.15-6.4-.4-3.15-.35-4.5.1-2.25 1.2-3.45 2.65-2.95 8.85-3.65"/><path fill="#fceef4" d="M342 88.35l-.4-4.25-.3-3.7q0-2.15.85-3.15 2.3-2.55 7.7-2.95 4.55-.35 5.7.5 1.35 1.05 3.3 6.8 2.15 6.35 2.3 11.3-5.95-.95-12.35 2.45l-7-5.05.2-1.95"/><path fill="#0d131a" d="M294.9 38.75q1.4 1.2 4.4 5.6 3.5 5.05 3.15 6.7-.4 2.05-6.9 3.3-6.25 1.25-12.85.8h-.25l-6.1-6.5q-6.05-6.7-5.8-7.85.1-.7.8-.95l11.6-1.2q10.9-.75 11.95.1"/><path fill="#fceef4" d="M298.05 45.1q3.05 4.55 2.85 5.65-.2 1.1-5.5 2.1l-12.3.75-3.1-3.05-5.1-5.15q-2.85-3.1-2.85-4.1l.05-.1.1-.15 10.95-1.1q9.85-.6 10.85-.1 1.25 1.1 4.05 5.25"/><path fill="#d9ced4" d="M292.95 39.7l-4.65 6.95q-3.1 4.4-4.5 6.95h-.7l-3.1-3.05-5.1-5.15q-2.85-3.1-2.85-4.1l.05-.1.1-.15 9.25-1 11.5-.35"/><path fill="#0d131a" d="M271.6 19.65l-1.05 4.45q-5.25 19.25-9.9 34.05-1.65 5.3-13.6 8.05-8.25 1.85-22.75 2.65l-24-.75q-12.9-1.9-15.25-7.35-4.3-9.85-7.8-22.85-3.45-13.05-1.7-12.7l9.25 1.2 9.5 1.3q.7-4.15 1.9-9.75 1.65-8 2.35-9.25.7-1.2 7.1 5.35l7.8 8.25q1.35-1.8 6.4-7.7l5.8-6.55q.55-.4 3.4 4.65l3.85 6.95 6.45-6.8q5-5.2 5.4-5.1.45.1 2.3 5.85l2.65 8.1 5.35-6.5q3.85-4.55 4.6-4.3.75.3 2 5.1l1.6 6.5 3.5-1.45q2.55-1 3.6-1.6 1.25-.7 1.25.2"/><path fill="#d7a400" d="M265.85 24.6l-9.05 30.8q-1.25 3.85-10.45 6.85-9.2 2.95-22.2 3.65-13.4.75-23.2-1.35-9.8-2.05-11.55-6-5.3-12-10.8-31.25l18.05 3.9 1.35-8.35q1.4-8.55 1.75-9.45.35-.95 5 3.85l6.4 7.05 1.95 2.45 1.7-1.35q2-2.15 10.2-13.15.4-.6 3.95 5.25l3.45 5.95 11.15-10.3q.35-.35 2.7 6.85l2.3 7.3 4.55-5.2q4.65-5.25 5.25-5.45.6-.2 1.9 4.8l1.15 5.05 4.45-1.9"/><path fill="#0d131a" d="M266.95 23.7l1.95-1.85-.75 2.6-9.25 31.6q-1.6 5.05-12.3 8.4-9.45 2.95-22.3 3.65-13.25.75-23.3-1.3-11.4-2.3-13.65-7.35-5.05-11.55-10.9-31.65l2.15-1.3q2.75 3.05 7.9 7.5l6.5 5.25 5.6-6.7q5.1-6.15 5.6-6.3.5-.1 7.85 7.85l8.2 9.05 3.6-9q3.2-7.75 4-7.9.8-.1 3.6 5.4l3.9 7.65 5.6-7.5q4.95-6.45 5.75-6.2.8.25 3.3 6.4l3 7.25q9.6-11.35 13.95-15.55"/><path fill="#f9be00" d="M253.45 41q2.9-2.5 13-13l-4.15 13.05-4.8 14.6q-1.5 4.7-10.35 9.3-10.05 5.25-22.45 5.9-12.9.7-24-3.5-9.95-3.8-12-8.5-4.7-10.75-10-28.7 5.25 4.9 13.15 10.85 1.1.95 1.8.8.6-.1 1.45-1.45.7-1.1 4.85-5.65l4.75-5.05 7.85 8.4q7.35 7.65 8.15 7.6.8-.05 3.75-7l3.55-8.5 3.55 6.5q2.85 5.1 3.6 5.15.7.05 5.35-5.65l5.35-6.75 2.8 5.3 2.6 5.45q.55 1.45.8 1.55.35.2 1.4-.7"/><path fill="#0d131a" d="M325.2 125.55q23.9 6.85 30.3 9.65 3.75 1.6 3.1 2.25l-3.6 1.15-15.6 4.75 15.5-2.55 9.2-1.15q1.8.2 9.85 6.8 7.85 6.4 7.75 7.1-.05.5-7.2 2.95l-11.9 4.1 14.95.2 10.25.5q.95.45 4.4 6 3.4 5.5 3.25 6.25-.15.55-5.3 1.4l-10.25 1.65 11.25.05 6.05.2q.9.3 5.65 5.85 4.85 5.6 4.55 6.45-.2.7-4.4 1.1l-8 .85 9.55.75 5.2.7q.7.55 1.65 9.7 12.25 21.9 11.8 22.75-.25.5-10.2-3.45l-13.05-5.25 8.9 16.15q7.1 13 6.65 13.35l-8.35-.6q-7.95-1.15-8.85-2.15-.75-.8-3.55-8.7l-4.25-11.95 1.45 10.8q.75 5.95.35 6.5-.45.7-9.7-2-9.15-2.65-9.75-3.55l-2.2-5.65-3.55-9.9 1.25 9q.7 4.7.2 5-.8.55-20.85-10.15l-.1-.5-4.95-19.45.45 12.8q.25 7.25-.45 7.5-.8.2-5.9-2.85l-5.35-3.3-6.65.05q-6.4-.2-7.25-1.35-.75-1.1-2.5-10.7l-3.15-17 .05 16.25q0 8.9-.7 9-.4.05-11.25-3.65l-20.9-7.05-.1-1.3-8.35-3.15-7.5-2.6q-1.8-.4-2.15-1.55-.45-1.4-.1-6.35.3-4.25.15-8.9l-.35-8.6-4.3 12.9q-2.55 7.25-3.6 7.2-1.7-.05-22.6-11.25l4.25-20.8q-9.5 8.8-16.35 13.9-10.05 7.35-12.75 5.45-10.55-7-13.8-14.25-2.45-5.5-.5-10.75 4-10.75 23.05-17.65 17.55-6.35 32.35-4.7l4.6-2.75q4.55-2.65 9.05-4.6 14.25-6.2 27.3-5.4 10.35.65 37.85 8.5"/><path fill="#00a63c" d="M363.5 142l13.75 10.85q-15.55 5.45-20.75 7.65-3.9 1.65-3.85 1.85l4.2.3q5.6.05 29.7.85l5.3 8.5-11.1 1.95q-9.5 1.65-11.55 2.5l-3.25 1.45q-.4.5 3.45.75 5.7.4 26.75.4l7.1 8.5-17.15 2.75q-3.5.75-3.7 1.2-.25.5 3.8 1l21.65 2.05 1.45 8.45-8.7-1.25q-8.65-1.1-8.1-.05.5 1 9.2 2.25l8.75 1.2 8.15 15.8-23.3-8.7 16.2 30.7-11.55-1.85q-7-19-9.15-23.7-1.5-3.35-2.55-3.1-.35.1.4 9.6l1.15 12.8-15.25-4.35q-6.45-17.95-8.4-22.75-1.6-3.9-2.05-4-.6-.15-.1 4.5l1.95 18.8-16.35-8q-8.1-32.65-8.2-26.85l-.5 12.3-.5 12.6-9.15-5.3q-1-19.4-2.35-19.7-.8-.15-.5 9.7l.2 9.9-9.25-.35-2.65-14.9q-2.75-14.9-4.6-20.55-2.05-6.25-2.75-5.4-.45.6-.65 6.45-.15 3.95.15 16.9l.25 14-28.85-11.15-.55-11.75q-.5-12.1-1.15-13.55-.65-1.45-.45 11.35l.05 13.15-14.75-5.7q-.85-20.85-.8-29.7v-.3h-.05q-.25-2.05-.65-2.7-.65-1.15-1.5 2.75v.2q0 1.85-3 10-2.4 6.5-5.8 14.55l-18.95-9.5 5.3-25.95-15 12.5q-15.2 12.3-16.4 11.45-17.45-11.55-13.45-22.4 3.25-8.85 28.85-15.75 12.75-3.45 24.9-5.15l14.6-6.75q16.45-6.6 25.8-6.05 10.3.65 31.75 6.85 19.85 5.75 32.5 11.2-19.55 5.65-25.25 8.05-3.9 1.6-3.55 2.15.3.5 4.05 0l36.75-5.5"/><path fill="#009233" d="M351.5 137.3q-19.55 5.65-25.25 8.05-3.9 1.6-3.55 2.15.3.5 4.05 0l36.75-5.5 5.6 4.4q-14 .95-21.05 2.2-12.45 2.15-19.35 9.4-53.85-21.05-90 22.4l-6.05-3.05 5.3-25.95-15 12.5q-15.2 12.3-16.4 11.45-17.45-11.55-13.45-22.4 3.25-8.85 28.85-15.75 12.75-3.45 24.9-5.15l14.6-6.75q16.45-6.6 25.8-6.05 10.3.65 31.75 6.85 19.85 5.75 32.5 11.2"/><path fill="#0d131a" d="M376.1 194.4q4.2 5.05 3.05 5.35-1.05.3-4.65-3.1-43.5-41.25-95.1-54.35-16.25-4.1-31.35-4.9l-12.15.05-.35-1.4 2.4-2.6q3.45-2.7 8.55-2.95l5.3-.4-.2-.05q33.75.9 64.7 16.2 33.55 16.55 59.8 48.15"/><path fill="#00a63c" d="M235.75 134.05q3.7-2.35 12.2-2.1 34.05 1.1 64.3 15.05 29.7 13.7 52.45 38.15-33.55-30.35-77.05-42.85-15.15-4.35-29.7-5.95l-16.9-.65-5.5-.2q-1.2-.5.2-1.45"/><path fill="#009233" d="M328.05 155.35l-2.2.3q-1.3.15-1.8 1.2-25.35-13.15-52.9-18.45-18.95-3.65-30.1-2.7l-5.5-.2q-1.2-.5.2-1.45 3.7-2.35 12.2-2.1 21.7.7 42.15 6.75 20.05 5.9 37.95 16.65"/><path fill="#0d131a" d="M7.85 291.75q5.6-7.45 11.05-11.05 8.2-5.5 25.25 1 20.2 7.7 41.95 26.45 21.75 18.7 25 31.15l2.25 2.8 2.95 12.1q.95 4.85.15 7.55-.8 2.85-4.05 5.05-2.85 1.95-9.7 4.8-5.8 2.4-18.9 3.05-12.85.6-27.05-.7-34.7-3.25-41.3-13.15-1.2-1.85-1.2-3.8 1.05-3.05 1.5-5.75.9-5.2-2.05-10-6.9-10.25-9.45-14.8-4.25-7.6-4.25-15 0-9.4 7.85-19.7"/><path fill="#5dc1cf" d="M20.55 283.15q6.95-4.65 22.55 1.3 19.35 7.4 40.75 25.65 21.35 18.25 24.4 29.95l.55 2.3q3.9 14.95 2.9 18.3-.7 2.25-3.35 4.1-1.8 1.25-7.6 4.15-4.4 2.2-16.9 2.65l-26.1-.85q-34.3-3.2-39.85-11.55-2.25-3.25 2.8-7.6 1.45-1.25.2-4.15-.85-1.9-4.75-7.8-7.4-11.1-10.75-18.65-4.1-9.2 3.65-23.15 2.75-5.05 6.5-9.55 3.15-3.85 5-5.1"/><path fill="#50a8b4" d="M28.05 281.2q6.15-.05 15.05 3.25 19.35 7.4 40.75 25.65 21.35 18.25 24.4 29.95l.55 2.3q3.9 14.95 2.9 18.3-.7 2.25-3.35 4.1-1.8 1.25-7.6 4.15-3.7 1.85-13.55 2.5-9.35.6-21.25-.05-8.45-.6-13.5-5-7.3-6.4 4.55-16.45 11.75-9.95-2.5-33.65-4.85-8.05-13.6-19.15l-12.85-15.9"/><path fill="#0d131a" d="M41.3 346.35q-.5-.9 1.6-.3 4.9 1.4 17.25 3.35 16 2.5 23.4 1.8 2.9-.25 1.95.6l-1.55.85q-6.85 1.8-22.85-.75-14.05-2.25-18.85-4.5l-.95-1.05M27.9 360.8q.3 3.7-.9 6.2l-7.95 2.3q-7.2 1.95-10.35 2.1-3.9.15-4.8-.85-.95-1.05-.3-5.15.7-4.2 4.55-9.7 3.85-5.6 7.55-7.65 1.3-.7 2.7-.8l1.8.35q7.2 5.8 7.7 13.2"/><path fill="#fff" d="M6.4 367.85q-1.55-1.5 2.55-8.7 4.05-7.25 7.4-9.05 1.5-.75 2.4-.25 3.65 3.2 5.45 8.8 1.55 4.9.6 6.3-.85 1.25-8.8 2.75-8.15 1.55-9.6.15"/><path fill="#dbdcdc" d="M20.55 351.75q2.75 3.35 3.95 7.95 1.1 4.1.3 5.25-.55.8-5.35 2-4.95 1.25-8.8 1.45 1.9-4.7 4.45-9.1 2.9-4.95 5.45-7.55"/><path fill="#0d131a" d="M40.05 383.15q-4.25-2.6-2-11.3 2.1-8 6.9-13.1 3.45-3.65 5.9-4.25 2.5-.6 4.85 1.7 6.8 6.65 9 13.1 1.15 3.2.9 5.1-1.75 1.95-12.4 5.9-11.1 4.15-13.15 2.85"/><path fill="#fff" d="M52.45 357.05q2.05.4 6.1 6.1 4.25 5.95 4.45 9.45-1.7 1.6-10.55 5.15-9.2 3.65-10.9 3.05-.95-.35-.75-4 .2-3.75 1.5-7.95 3.5-11.3 10.15-11.8"/><path fill="#dbdcdc" d="M52.65 357.1q2.2.75 6.1 6.3 4.05 5.8 4.25 9.2-1.2 1.1-7.1 3.65-6.05 2.65-10.3 3.9.3-6.75 1.65-11.75 1.7-6.05 5.4-11.3"/><path fill="#0d131a" d="M87.5 358.5q1.15-1.05 2.6-1.4 1.2-.3 2.25 0 3.2.95 8.4 5.35 5.4 4.5 5.9 7.1.5 2.55-3.1 8.85-3.15 5.65-5.8 8.25-1.35 1.35-2.7 1.45-1.25.05-3.4-.9-6.35-2.8-10.4-8.35l-2.75-4.95q-.35-2 2.85-7.4 3.15-5.3 6.15-8"/><path fill="#fff" d="M88.6 360.8q1.85-1.7 2.95-1.4 2.9.85 7.25 4.9 4.4 4 4.8 6.15.35 1.85-3.45 7.7-3.6 5.45-5.2 6.5-.8.2-3.9-1.6-3.4-2-6.3-4.65-3.15-2.85-3.45-4.45-.3-1.5 2.05-5.95 2.5-4.65 5.25-7.2"/><path fill="#dbdcdc" d="M103.6 370.45q.35 1.75-3.05 7.05-3.05 4.8-5.15 6.8-.2-7.1-1-12.45-.95-6.7-2.95-12.45h.1q2.9.85 7.25 4.9 4.4 4 4.8 6.15"/><path fill="#0d131a" d="M26.2 318.7q0 .4-1.3 1.7-2.4 2.45-2.7 4-.65 3.15 4.65 5.6 1.55.7.9 1.15-.3.25-.95.3-6.15-.25-6.95-4.35-.4-2.3 1-4.75 1.4-2.4 3.45-3.3 1.9-.8 1.9-.35m306.75 32.7q.45-.55.9-.4 4.05.8 7.9 4.4 4.8 4.5 7.6 12.2-4.2 3-8.9 5.4-9.4 4.85-11.85 2.05-1.45-1.65.9-12.15 2.2-9.8 3.45-11.5"/><path fill="#dbdcdc" d="M330.25 373.95q-.15-.3 1.75-9.65 2-9.6 2.75-11.3l5.7 4.5q4.35 4.25 5.15 9 .3 1.45-7.4 4.7-7.65 3.2-7.95 2.75"/><path fill="#5dc1cf" d="M341.5 275.05q4.35 12.55 5.4 24.4 2.85 33-18.6 71.6-.55 1-1.55 7.45-.9 5.7-3.85 9.3-9.45 11.45-46.55 12.95-22.1.9-36.35-7.15-13.35-7.55-14-19.25-.25-4.3-2.85-12.7-3.7-12.05-4.45-15.2-4.8-19.85 3.2-33.15 4.85-8.1 21.85-21.2 16.6-12.75 35.95-23.6 20.85-11.75 35.05-15.5 16.3-4.3 19.35 3.35l7.4 18.7"/><path fill="#50a8b4" d="M334.1 256.35l7.4 18.7q4.35 12.55 5.4 24.4 2.85 33-18.6 71.6-.7 1.3-1.4 6.5-.7 5.1-2.6 8.25-6.25 10.45-31.4 13.65l-5.45-.15q-4.55 1.2-4.9-.05 1.05-7.7.65-14.15-.45-6.85-2.6-13.15 33.1-3.7 40.3-40.6 5.5-28.3-4.5-68.2-4.35-17.5 5.5-15.6 3.55.7 7.55 3.7 3.75 2.85 4.65 5.1"/><path fill="#0d131a" d="M332.8 257.05q-2.35-5-1-5.4 1.25-.35 3.6 4 13.25 24.7 12.8 54.25-.55 33-18.6 61.85-1.1 1.8-1.1 4.85-.05 5.35-1.3 8.6-1.75 4.65-6.4 7.85-11.5 7.85-44.4 9.2-24.55.95-38.75-6.75-14-7.6-13.1-21.05.15-2.6-1.95-7.85l-3.35-8.5q-4.35-13.95-4.25-23.75.1-10.8 5.5-21.55l2.75 1q-4.85 13-3.75 25.6.65 7.4 4.55 20l2.2 7.6q1.05 4.1 1.2 7.25.6 10.85 13.05 18 13.75 7.95 35.8 7.05 30.55-1.25 41.7-9.1 4.2-2.95 6-7.1 1-2.4 1.6-6.9.5-4.15 1.45-5.85 20-36.05 15.95-75.4-2.15-20.4-10.2-37.9"/><path fill="#0d131a" d="M252.05 365.35q-2.65-1.55-2.7-2.05 0-.6 3.4.75 5.2 2.05 15.9 4.25 13.7 2.8 24 2.65 9.3-.15 6.95 1-2.35 1.15-8.35 1.05-13.95-.15-26.4-3.2-8.95-2.2-12.8-4.45M225 369.8l1.3-.15q6 3.8 8.8 12.8 1.75 5.55 1.75 9.5 0 1.75-4.45 2.5l-11.6 1.2q-11.75.65-13-1.8-1.2-2.4 5.05-11.65 6-8.8 9.85-11.55.85-.6 2.3-.85"/><path fill="#fff" d="M211.3 392.3q0-2.45 4.55-9.4 4.65-7.2 8.15-9.65 1.1-.8 1.35-.55 3.35 2.6 6.35 9.75 2.35 5.55 2.65 8.35-1.85.9-11.6 1.6-9.8.7-11.45.05v-.15"/><path fill="#dbdcdc" d="M229.55 378q1.9 3.35 3.4 7.7 1.25 3.55 1.4 5.1-1.85.9-11.6 1.6-9.8.7-11.45.05v-.15q0-.7.35-1.6 6.05-7.4 17.9-12.7"/><path fill="#0d131a" d="M271.45 392.05q6.3-7.45 8.1-7.45 1.8 0 8.3 6.05 6.6 6.1 6.75 8.2.15 2.15-4.4 8.8-4.6 6.75-6.65 6.95-1.5.15-7.3-3.2-5.6-3.2-8.3-5.65-2.65-2.4-2.65-4.7 0-1.65 6.15-9"/><path fill="#fff" d="M279.8 388.4q1.35.1 6.3 4.65 5 4.6 5.1 6.1.15 1.8-3.5 7-3.55 5.1-4.8 5.2-.95.1-4.95-2.4-4.25-2.6-7.05-5.15l-1.9-2.05-.3-.65q.15-1.35 5-6.9 4.85-5.55 6.1-5.8"/><path fill="#0d131a" d="M328.85 384q5.15 7.85 3.9 11.25-.4 1.05-1.8 1.9-1.65.95-4 1.15-5 .4-10.75-.15-7.5-.75-8.3-2.9l-.85-2.2q0-3.3 5.7-10.25 4.35-5.35 6.75-7.2.85-.7 1.55-.55l.9.55q2.55 1.8 6.9 8.4"/><path fill="#fff" d="M330.2 395.15l-10.45.35q-8.4-.75-9.65-2.2-1.15-1.35 3.95-8.05 4.95-6.6 6.6-6.85 1.6-.25 6.5 7.7 4.95 8 3.05 9.05"/><path fill="#dbdcdc" d="M324 387.3q1.35 1.75 4.85 8.2-3.6.6-10.55-.15-7.15-.75-8.2-2.05-.75-.85 1.45-4.5 1.95-3.2 4.9-6.55 4.35 1 7.55 5.05"/><path fill="#0d131a" d="M318.1 321.2q2.35-.05 4.35 1.85 2.05 1.95 2.25 4.55.15 2.15-1.7 4.25-2.4 2.75-6.8 2.4l-1.05-.7q-.75-.7.9-.75 2.75-.1 4.6-3.85 2-4.05-2.5-6.25-1.7-.85-1.05-1.25l1-.25m63.35-40.85q.3-.25.9-.3 2.15-.1 3.95 2.1 1.85 2.25 2.05 5.3.1 2.55-1.55 4.95-2.2 3.15-6.15 2.8l-.95-.8q-.7-.85.8-.9 2.45-.1 4.15-4.45 1.85-4.75-2.25-7.3-1.55-.95-.95-1.4m39.65-35.05q2.1-.1 3.9 1.85 1.8 1.95 2 4.6.15 2.2-1.5 4.35-2.15 2.75-6.1 2.45l-.95-.7q-.65-.75.8-.8 2.45-.1 4.1-3.95 1.8-4.1-2.2-6.35-1.5-.8-.9-1.2.25-.2.85-.25m-1.8 42q2.35-.1 4.35 2.45 2.05 2.55 2.25 6 .15 2.85-1.7 5.6-2.4 3.65-6.8 3.2l-1.05-.9q-.75-.95.9-1.05 1.05-.05 2.4-1.5 1.4-1.55 2.2-3.6 2-5.35-2.5-8.25-1.7-1.1-1.05-1.65l1-.3m-133.5 33.35q1.8 1.65 1.3 5.45-.3 2.45-2.6 4.1-2.3 1.65-5.35 1.65l-.95-.45q-.65-.55.95-1 3.95-1.05 4.8-4.3.95-3.6-4.35-5.65l-1.75-1q0-.4 2.1-.4 4.15-.05 5.85 1.6m32-41.45q1.35 1.3 1.6 3.45.2 1.9-1.6 3.7-1.9 1.9-4.35 1.95-1.25.05-1.45-.4-.2-.45 1.2-1.05 4.85-2 3.65-4.7-1-2.2-4.1-3.05-1.8-.45-1.1-1l1.05-.45q3.35-.15 5.1 1.55m-95.05-87.1q26.7-3.1 35.35 1.35 2.65 1.4 3.35 5.1l.25 5.4q0 13.05-9.3 38.1 13.85 12.6 19.85 20.85 7.05 9.7 7.05 18 0 2.65-.55 6.3-.65 4.15-1.5 6.1-5.7 13.1-11.3 18.75-6.3 6.4-17.7 9.25-9.7 2.45-41.45 17.6l-20.1 9.8q-10.9 5.25-17.2 7.8-13.65 5.55-42.25 2.55-29.55-3.15-39.8-12.45-3.4-3.15-30.35-17.75-21.25-11.55-30.7-16.3-6-3-10.75-17.95-4.8-15.05-1.4-20.55 4.5-7.25 13.6-18.15 9.55-11.45 15.4-16.25-3.5-5-7.1-16.6-3.8-12.25-3.8-20 0-1.55.15-2.75.65-4.5 3-5.45 9-3.85 32.5 0 12.2 2 26.7 5.55 13.5-5.1 41.5-4.2 23.85.75 45.15 5 16.1-6.2 41.4-9.1"/><path fill="#5dc1cf" d="M255.5 196.55q1.75.75 2.15 1.7 3.75 10.4-8 41.6-1.05-.85-4.05-1.3-1.85-.25.55 2.3l2.8 2.55q17.95 16.15 23.3 29.4 4.05 10.1.65 17.95-5.2 11.9-10.7 17.45-5.5 5.5-15.2 8.55-4.8 1.5-16.3 6.75l-23.4 11q-28.05 13.5-38.8 17.85-14.9 6.1-43.05 2.25-11.55-1.6-21.2-4.45-9.6-2.85-13.5-5.85-3.9-3-29.9-16.95-28.1-15.1-31.2-17.05-5.1-3.15-9-15.4-3.7-11.5-2.45-17.1 1-4.55 12.2-19.15 10.85-14.15 14.75-16.8 5.15-3.45 5-5.35-.1-1.9-4.45 1.3-4.95-8.2-8-18.65-3.3-11.25-2.3-18.45.45-2.65 1.55-3.3 3.45-1.95 23.05.45 15.9 1.9 34.55 5.5l.4.05.4-.15q13.05-5.1 40.95-4.15 23.7.8 44.85 5.05l.45.1.4-.15q15.55-6.1 40.45-8.65 24.9-2.55 33.05 1.1"/><path fill="#50a8b4" d="M52.8 314.2q-6.75-.85-10.7-7.65l-3.45-6.05q-1.85-2.9-3.95-4.95 3.85 3 12.5 4.55l5.6.85q2.95 0 16.25 10.7l12.7 10.7-10.65-3.55q-11.85-3.7-18.3-4.6m41.75-110.85l.4.05.4-.15q13.05-5.1 40.95-4.15 23.7.8 44.85 5.05l.45.1.4-.15q8.8-3.45 22.15-6 12.7-2.45 25.2-3.25-21.95 3.5-38.3 14.95-11.05 7.8-16.15 16.1-19.8 6.65-43.6 19.35-31.6 16.85-40.25 30.7-.8 0-6.45-3.3-7.25-4.3-9.75-5.55 2.85-3.8 4.85-9.9l2.9-10.85q3.45-13.45 9.9-17.5-8.5-10.2-21-18.65-10.15-6.85-24.6-13.55 8.7.4 23 2.5 12.5 1.85 24.65 4.2m31.3 118.1q11.65-3.1 24.55-10.7 13.95-8.2 18.7-9.8l20.25-3.7q14.7-2.85 24.2-3.35 6.25 0 13.3-5.7 7.15-5.9 6.55-11.15-2.35-6.1-12.95-13.45-7.5-5.25-15.1-15.3-7.45-9.85-16.6-15.95 5.55-1.8 15.15-8.2 12.55-8.3 14.25-9.25l19.8-10.9q10.7-5.25 19.35-6.25l.35.5q3.75 10.4-8 41.6-1.05-.85-4.05-1.3-1.85-.25.55 2.3l2.8 2.55q17.95 16.15 23.3 29.4 4.05 10.1.65 17.95-5.2 11.9-10.7 17.45-5.5 5.5-15.2 8.55-4.8 1.5-16.3 6.75l-23.4 11q-28.05 13.5-38.8 17.85-14.9 6.1-43.05 2.25-11.55-1.6-21.2-4.45-9.6-2.85-13.5-5.85 7.4.05 20.85-10.3 7.4-5.7 14.25-12.55"/><path fill="#0d131a" d="M251.85 202.45q1.3.45 1.3 1.9 0 3.65-3.75 14.5l-4.55 12.35q-.75 2.3-2.15 2.5-1.45.25-4.7-1.45-16.7-8.95-20.75-10.75-1.95-.85-2.25-1.45-.4-.65.7-1.8 4.25-4.5 16.45-10.7 14.05-7.2 19.7-5.1"/><path fill="#c6000b" d="M251.65 204.35q0 5.15-9.5 27.05l-10.2-5.6q-8.55-4.5-12.8-6.05 6.3-5.95 17.9-11.6 11.35-5.55 14.25-4.35.35.15.35.55"/><path fill="#a30000" d="M251.3 203.8q.35.15.35.55 0 3.4-4.4 14.7-5.6-1.55-9.85-1.2-5.5.5-12.95 4.2-2.95-1.45-5.3-2.3 6.3-5.95 17.9-11.6 11.35-5.55 14.25-4.35"/><path fill="#0d131a" d="M72.45 220.95q.15.4-1.6 1.55l-15.3 11q-3 2.15-3.8 1.25l-2.5-4.8q-2.8-4.8-4.65-10.9-2.3-7.65-.35-10.25.8-1 7.55 1 8.75 2.6 18.2 9.25l2.45 1.9"/><path fill="#c6000b" d="M59.25 215.7q7.2 3.55 10.1 5.95-4.15 1.95-8.7 5.15-2.7 1.9-6.9 5.3l-.85.65q-1.8-2.5-4.3-8.9-2.8-7.1-2.8-10.35 0-1.15.4-1.6.3-.35 1.3-.3 3.6.1 11.75 4.1"/><path fill="#a30000" d="M47.5 211.6q3.35.05 11.4 3.95-3.85 2.25-5.15 7.5-.7 3-1.2 9.15-1.95-3.2-4.2-9.05-2.55-6.6-2.55-9.65 0-1.15.4-1.6.3-.35 1.3-.3"/><path fill="#0d131a" d="M47.7 299.8q11.05-.65 28.45 3.15l29.1 7.35q8.65 2.2 16.35 3.5 7.9 1.35 10.1.9l3.55-.75q68.35-14.15 93.25-14.15h1.8l-.85 1.6q-5.6 11.1-34.05 28-11.75 6.95-22.5 11.8-11 4.95-16.25 5.55-10.5 1.25-30.2-.55-19.65-1.85-24.25-4.5l-11.25-7.45-18.85-12.6q-18.2-11.85-24.15-16.4-4.05-3.1-3.8-4.15.1-.25 1.35-.75l2.2-.55"/><path fill="#922f00" d="M78.2 305q7.8 1.55 28.85 6.95L123 315.9q6.8 1.4 9.15.95l3.55-.75 56.75-11.75q25.9-5.05 36.75-5.3-7.3 10.8-36.85 27.85-28.05 16.15-38.5 17.4-10.25 1.2-28.55-1.05-17.45-2.1-21.7-4.5-8.85-5.05-28.2-18.05-22.25-14.9-25.4-18.8 10.95-.45 28.2 3.1"/><path fill="#0d131a" d="M72.3 311.55q-1.4-2.55-1-5.45.25-2 1.25-3.65 56.15 12.85 55.6 13.25l76.65-13.25q2.5 2.2.8 6-1.4 3.15-5.6 7.15-10.1 9.6-29.5 16.35-21.05 7.3-40.25 6.3l-1.45-.1q-18.9-1-36.2-9.85-15.6-7.95-20.3-16.75"/><path fill="#ed8599" d="M74.25 304.3q10.45 2 30.35 7.15l17.7 4.3q7.45 1.6 9.85 1.1l5.25-1.1q42.2-8.95 65.45-12.3-.75 5-6.75 10.75-9.95 9.45-27.6 15.8-19.55 7-38.15 6.05-18-1-35.3-10.1-15.5-8.2-19.95-16.55-1.15-2.1-1.15-3.8l.3-1.3"/><path fill="#0d131a" d="M89.45 272.4q3.8 4.45 2.2 4.1l-2.4-1.2q-1.2 4.7-6.95 8.15-5.8 3.5-11.3 2.75-6.1-.85-10.7-6.15-7-8.15-7.5-24.5-4.5-.9-5.25-2.15-.8-1.35 6.7-.4 10.1 1.35 17.45 5 9.4 4.7 17.75 14.4"/><path fill="#fff" d="M81.4 280.2q-4.95 3.05-10.2 2.45-6.95-.7-11.05-7.6-4.2-6.95-4.9-19.1 19.75 4.5 32.1 17.45-1.35 4-5.95 6.8"/><path fill="#0d131a" d="M83.2 267.05l.4.35.1 1.15q-1.55 4-4.8 6.15-3.25 2.15-6.5 1.35-3.6-.8-6-5.35-2.8-5.35-2.15-13.3l.75-.85.9.35q9.4 3.8 17.3 10.15"/><path fill="#c6000b" d="M73 273.8q-3.35-.75-5.2-5.6-1.6-4.1-1.5-8.8 8.35 3.35 15.3 8.8-1.45 3.1-3.75 4.65-2.35 1.55-4.85.95"/><path fill="#fff" d="M77.9 265.5q-1.2 3.15-3.3 3.1-2.6-.05-3.45-7.05 3.45 1.7 6.75 3.95"/><path fill="#0d131a" d="M58.85 246.45q2.15-2.15 7.85-5.35 6.2-3.45 9.25-3.8 6.7-.7.45 1.45-2.65.85-7.8 4.3l-7.5 5.05q-2.8 1.8-3.5 1.05-.75-.75 1.25-2.7m30.15.25q-.35-4.6.45-3.75.8.8 1.6 4.8.8 3.65 1.25 8.6.45 4.95.25 7.8-.2 2.75-1.5 2.8-1.3.05-1.35-2.4l-.2-7.65-.5-10.2m97.9-14.8q2.2-1.35 5.5-.95 1.55.2 1.65.95.15.75-1.4 1.1l-2.7.45q-1.45.15-2.1.55-3.3 1.95-6.85 13.75L177.15 263q-.9 3.45-1.25 2.9-.2-.35-.25-3.1 0-4.45 2.95-14.95 3.7-13.25 8.3-15.95m18.45.6q3.7 1.55 7.15 3.9 3.6 2.45 6.1 5.2 2.5 2.75 2.25 2.85l-3.45-2.05q-9.95-6.6-13.1-7.95-2.2-.9-2.25-2.15-.05-1.2 3.3.2m14.5 13.75q2.95-.15 4.1 1 1.1 1.2-2.85 1.45.85 17.25-5 27.1-4.15 6.95-10.5 8.9-6.2 1.85-13.4-1.4-6.95-3.1-10.7-9-3.35 3.8-3.6 2.9-.25-.9 2.85-6 5.6-9.1 16.7-16.5 11.85-7.9 22.4-8.45"/><path fill="#fff" d="M183.3 272.25q7.7-9.5 20.3-17.1 11.4-6.8 14.95-5.9v1.3q0 13-3.65 21.15-3.65 8.2-10.35 10.2-5.5 1.6-11.35-1-5.95-2.7-9.9-8.65"/><path fill="#0d131a" d="M195.05 269.5q-4.05-2.25-5-6.65l1.15-1.95q6.9-5.55 14.95-9.35l.7-.35.9-.1q2.65 6.35 1.15 11.95-1.5 5.4-5.9 7.15-3.95 1.55-7.95-.7"/><path fill="#c6000b" d="M197.75 268.05q-1.45-.4-2.85-1.85-1.35-1.4-2.2-3.3 6.65-5.5 13.8-9.4.7 2.8.7 5.4 0 3.95-2.3 6.6-1.4 1.6-3.35 2.3l-3.8.25"/><path fill="#fff" d="M201.35 256.55q.5 5.95-1.95 6.7-2.3.7-3.8-2.65l5.75-4.05"/><path fill="#0d131a" d="M52.25 313.3q-1.35-.45-5.6-7.05l-4-6.5 9.15.05q9.1.2 8.7 1.05l-3.65 7.25q-3.2 5.7-4.6 5.2"/><path fill="#fff" d="M45.8 301.2l6.75.2q5.25.15 5.05.55-.9 2.05-2.95 5.35-2.2 3.55-2.7 3.35-.95-.3-6.15-9.45"/><path fill="#0d131a" d="M234.55 299q.2 1.95-2.95 7.85-3.3 6.05-5.1 6-1.6-.05-5.15-6.6l-3.25-6.5 8.15-1.25q8.2-.95 8.3.5"/><path fill="#fff" d="M232.95 299.05q-.9 3.2-3.35 7.1-2.45 3.95-3.4 3.65-.95-.3-2.85-3.3-1.9-2.9-3.15-6l12.75-1.45"/><path fill="#0d131a" d="M92.7 316.85q.65.05 1.25 5.7.6 5.5.25 6.15-.35.85-2.15 1.25-2 .4-3.55-.45-.9-.55-1.55-2.3-.65-1.7-.35-2.35.7-1.4 3.05-4.6 2.5-3.45 3.05-3.4"/><path fill="#fff" d="M92.25 318.75q.3.35.65 4.5.35 4.25-.1 4.45-.65.35-1.7.5l-2-.25q-1.05-.55-1.15-2.95l2.15-3.35q1.95-3.1 2.15-2.9"/><path fill="#0d131a" d="M105.25 322.8q.6.2 1.4 6.6.75 6.25.45 6.7-.3.6-2.7.8-2.65.2-4.1-.85-1.25-.9-1.85-2.45-.6-1.5-.15-2.5.45-.9 3.25-4.5 3.1-4 3.7-3.8"/><path fill="#fff" d="M104.45 325.05q.2.25.6 5.05.35 4.85.05 5.1l-1.65.25q-1.5-.05-2.3-.6-1.25-.95-1.35-3.55l2.3-3.4q2.15-3.05 2.35-2.85"/><path fill="#0d131a" d="M178.15 329.1q-.3-.85.65-6.05.9-5.3 1.55-5.35.8-.1 3.25 3.5l2.65 4.2q.65.9-.1 2.45-.75 1.55-2.3 2.3-1.6.8-3.6.3-1.75-.5-2.1-1.35"/><path fill="#fff" d="M184.7 325.9q-.2 2.15-1.35 2.75l-2 .15-1.6-.5q-.45-.25.15-4.45.55-4.15.85-4.45.2-.2 2.05 3l1.9 3.5"/><path fill="#0d131a" d="M165.9 336.15q-1.2-.7-.45-6.9t2.05-6.75q.65-.2 3.1 3.1 2.4 3.35 3.35 5.65.35.85-.2 2.25-.65 1.6-2.05 2.55-1.5.95-3.55.7-1.5-.15-2.25-.6"/><path fill="#fff" d="M172.45 331.35q-.2 2.35-1.7 3.3l-2.2.55-1.65-.3q-.3-.25.4-5.05.65-4.75.9-5 .15-.2 2.15 3l2.1 3.5"/><path fill="#0d131a" d="M32.8 294.9q-.6-1.55-.55-3.15.1-2.6.9-2.45.7.15 1.15 2 .35 1.2 1 2.45l.95 1.4q2.75 2.75 6.6 3.55l13.35.65q12.25-.15 24.9 2.6 7.65 1.65 20.5 5.85l13.35 4.1q7.45 2 12.55 2.15 2.45.05 12.8-2.05l24.05-5q38.5-7.75 66.05-9.8 9.15-.65 15.4-3.3 5.65-2.4 7.65-5.75 1.75-2.95 2.95-1.95 1.2 1-.25 3.1-4.1 5.8-9.5 8-4.7 1.85-15.95 2.85-16.25 1.4-59.65 9.55-40 7.45-43.1 7.3-8.95-.55-27.25-6.4-12.85-4.15-20.1-5.75-12.4-2.7-24.35-2.55-11.35.15-15.8-1.1-3.1-.85-6.25-3.95-.9-.9-1.4-2.35"/><path fill="#0d131a" d="M108.85 302.65q-1.3-.7-1-1.9.35-1.2 2.1-.85t2.75 1.1l2.65 2.7q1.45 1.65.3 2.1l-1.5.1q-2.45-1.9-5.3-3.25m25.25 2.3q1.6-1.95 3-2.75 1.25-.65 3.7-1.1 2.3-.4 2.45 1.05.1 1.45-2.05 1.85-1.8.4-3.7 1.35-1.6.8-1.6.95l-1.7.35q-1.45 0-.1-1.7m84.45-177q15.95-.35 24.2 4.05l.8.45-5 14.15q-9.4-1.6-17.8-1.8 5.9 2.25 9.15 5 1 .9 2.25 1.45.75.6.4 2.7l-.8 9.4q-.65 7.3-1.4 9.2-.9 2.15-1.3 2.1-.2-.05-.7-1.65-.65-2.15-4.95-5.95-5.45-4.85-11.85-6.7 7.95 6.85 16.85 15.75l-11.3 9.75q-11.55 9.65-12.9 9.4-1.25-.25-5.75-4.55l-8-7.65 6.25 10.6q3.6 6.15 3.5 7.15-.2 1.65-9.7 5.5l-7.6 6.1q-7.8 5.9-9 5.2-1.2-.7-5.4-6.1l-7.05-9.05 4.1 12.35q2.55 7.6 2.4 8.7-.15 1.15-4.45 4.25l-6.45 4.35q-2.3 1.5-3.25 1.65-1 .1-1.65-1.1l-5.85-11.4q1.1 4.5 3.55 12.4-11.15 8.85-11.6 8.3-.25-.3-2.15-5.75l-3.55-10.15.95 18q0 .35-6.2 2.95-6.35 2.65-7.05 2.15-.6-.45-1.2-4.45l-1.2-7.95.65 9.85q.3 4.7-.15 4.95-16.6 4.8-17.7 3.75-.65-.65 2.1-11.65l3.9-15.1q-2 2-10.1 10.9-7.35 7.8-8.4 7.45-1.05-.3-3.55-9.7l-2.25-9.35 6.85-7-5.9 4.55q-5.85 4.35-6.4 3.75-.55-.6.65-7.2l1.3-6.5 16.45-11.9-11.75 5.3q-6.45 2.95-7.05 2.25-.6-.7 3.45-10l4.15-9.15 14.45-12.6-7.9 4.15q-4.7 2.45-4.95 2-.45-.8 15.3-21.45l18.5-4.85-6.4-.9-4.8-1.05q-1.05-.3-.85-1.1l.45-.75q6.05-5.55 12.3-10.05l.25-.2 7.35-.65 12.25-1.25-10.75-1.85-.75-.5q-.3-.75 1.65-2l12.1-8.75q10.1-7.35 11.5-7.8 6.95-1.15 18.1 1.85 11.15 3 21.5 8.85 9.25-4.75 25.15-5.1"/><path fill="#00a63c" d="M218 145.9q6.25 1.95 12.35 7.1l-.65 7.05-1.1 9.7q-2.95-3.6-8.35-7.1-6.6-4.35-12.55-5.25l-3-.2q-.3.35 2.25 2.15 2.35 1.7 9.25 8.25l8.4 8.1-7.6 6.25q-.25.2-7-4.65-6.8-4.85-7.65-4.45-.85.45 5.5 5.85l6.4 5.5-10 8.15-17.1-15.2q-3.25-2.85-3.7-2.7-.55.1 2 4.05 3.55 5.5 11.7 21.3l-7.4 3.6-3.7-5.55q-3.85-5.45-4.5-5.15-.55.25 2.9 6.15l3.35 5.95-13.55 9.8q-12.35-15.8-14.65-17.85l-2.5-2.1q-.65-.1.6 3.1 1.8 4.85 7.65 24.85l-11.65 8-4-8.8-5.15-10.85q-1.8-3.45-2.1-3.45-.35.05-.1 3.45.2 3.15 2 10.9 1.65 7.1 2.9 10.95l-7.9 5.65-3.25-9.5q-2.9-8.2-4-10.7-1.6-3.5-1.95-3.7-.6-.3-.2 4.15l1.25 23.85-9.25 3.55q-3.5-19.55-4.55-23.35-.75-2.9-1.5-2.95-.75 0-.65 3.2l.85 26.75-12.55 2.7q7.4-29.25 6.9-30.75-.3-.9-9.95 9.15L89.2 242.8l-4.35-14.25 6.95-6.85 7.4-7.75q2.05-2.35 1.7-2.85-.3-.45-2.7.9-1.75 1-9.55 6.75l-8.95 6.5 1.2-8.55q19.9-13.85 23-16.6 2.25-2 1.95-2.4-.3-.4-3 .5-2.15.7-11.05 4.35l-11.35 4.6 5.5-13.9q16-14.15 20.15-17.5l3.85-3.3q.25-.5-5.05 1.45-4.7 1.75-7.5 3.25l-4.95 2.65 9.9-13.8 11-2.75 13.2-3.65q2.75-1 2.65-1.7-.05-.65-2.9-.45l-6.95-.25-8.45-1.5q5.7-5 10.35-8.35L135.7 146l11.4-1.4q2.65-.35 2.65-1.05 0-.7-2.6-1.1l-8.05-1.7-5.55-1.35q2.4-1.5 11.6-8.4 8.2-6.2 9.15-6.5 10.85-1.2 26.3 4.65 7.7 2.95 13.25 6.1 8.5-4.6 23.6-5.1 15.05-.5 23.4 3.45l-3 9.45-11.7-.65q-11.55-.5-16.35-.15-5.2.4-4.4 1.2.65.65 4.35 1 5.45.55 8.25 1.45"/><path fill="#009233" d="M209.8 142.25q-5.2.4-4.4 1.2.65.65 4.35 1 5.45.55 8.25 1.45 6.25 1.95 12.35 7.1l-.65 7.05-1.1 9.7q-2.95-3.6-8.35-7.1-6.6-4.35-12.55-5.25l-3-.2q-.3.35 2.25 2.15 2.35 1.7 9.25 8.25l8.4 8.1-7.6 6.25q-.25.2-7-4.65-6.8-4.85-7.65-4.45-.85.45 5.5 5.85l6.4 5.5-7.5 6.15q-11.3-18.3-29.95-25.1-20.3-7.35-39.05 3.7-6.95-17.5-20.75-18.4l4.25-3.2L135.7 146l11.4-1.4q2.65-.35 2.65-1.05 0-.7-2.6-1.1l-8.05-1.7-5.55-1.35q2.4-1.5 11.6-8.4 8.2-6.2 9.15-6.5 10.85-1.2 26.3 4.65 7.7 2.95 13.25 6.1 8.5-4.6 23.6-5.1 15.05-.5 23.4 3.45l-3 9.45-11.7-.65q-11.55-.5-16.35-.15"/><path fill="#0d131a" d="M189.3 132.75h.15l6.25.95 1.85-.5q1 0-3.35 2.5-15.45 6.3-30.35 16.65Q135 172.3 115.8 204.8l-1.05 1.9q-.2.15-.35-2.2-.4-6.35 4.75-17 5.5-11.4 14.9-22.25 24.05-27.75 55.25-32.5"/><path fill="#00a63c" d="M191.75 135.05q-16.5 4.65-34.85 18.3-25.3 18.8-40.15 46.6 1.75-7.5 7.45-17.25 6.3-10.75 15.2-20.25 22.6-23.95 49.95-28.2l2.1.2q1.65.2.3.6"/><path fill="#009233" d="M189.35 134.25l2.1.2q1.65.2.3.6-8.65 2.45-19.25 8.25-13.4 7.4-25.25 17.95-2-1.4-4.45-2.25 9.85-9.6 20.9-15.75 12.5-7 25.65-9"/><path fill="#0d131a" d="M372.35 110.2q.25 2-6.6 8.1-6.8 6.05-7.95 4.9l-7.25-8.6 1.85 5.6q1.25 4.2.8 5.6-.55 1.7-7.85 4.4-7.25 2.7-7.75 1.5-.35-.9-2.85-4.05l-4.4-5.4-.1 7.6q-.05 4.45-.5 4.85-1.05.95-14.85.9-16-.05-26.5-2.75-2.7-.65-3.2-1.05-1.2-.95-2.35-4.7-2.75-8.8-10.1-19.05-6.9-9.55-15.95-17.8-9-8.25-17.15-12.45-8.65-4.45-13.75-2.85l-1.7-.25q-17.35-8.4-46.15 26.25-14.4 17.3-25.35 36.3h-20.25l-1.5-9.8-2.55 3-1.65 3.05-1.45 2.65q-1.05.5-5.5-1.25l-12.6-4.4-9.95-3.15q-2.5-.75-3-1.9-.6-1.4.7-4.9l1.95-5.85 1.9-6.25q-1.95 1.65-7 8.5-4.65 6.3-5.75 6.85-1.65.75-11.25-4.9-9.6-5.6-10.4-7.6-.45-1.1 5.75-7.4 6.85-7 16.6-14.7 27.05-21.45 52.2-30 26.95-9.2 47.55-6.75 19.65 2.3 38.2 15.8 18.7-13.15 44.75-12.15 24.9.95 51.85 14.45 18.8 9.5 36.15 24.2 14.5 12.35 14.9 15.45"/><path fill="#e85382" d="M357.65 120.05l-3-4.4q-2.85-3.95-6.35-7.2-3.85-3.65-4.15-2.7-.2.7 1.65 4.15 1.3 2.45 2.4 6l2.35 8.15q-3.8 2.6-11.7 4.45l-5.65-8.25q-5-7.1-5.4-6.15-.45.95-.65 8.75l-.25 9.25-16.5.75q-14.05-.15-22.15-3.1-2.6-9.5-9.75-20.25-6.9-10.45-16.25-19.3-9.65-9.1-19.25-14-10.35-5.3-18.5-4.5-19.95-7.8-46.9 23.6-14.75 17.1-26.7 39.05h-15.95q-1.25-5.45-1.55-9l-.15-3.5q-.25-.55-2.3 1.4l-4.2 4.35q-2 2.4-2.7 4.65-6.6-1.2-27.05-8.5 4-13.25 5.85-18.65 1.3-3.8.95-3.95l-2.95 1.9q-3.2 2.2-7.55 6.55-5.3 5.35-8.2 10.15-5.05-1.3-10-4.25-3.6-2.1-6.1-4.35 11.1-11.2 25.1-21.9Q118.7 70.5 140.65 63q27.25-9.25 46.1-7.85Q206 56.6 223.55 69.6l1.55.7Q242 60.45 262 59.65q26.35-1.1 55.8 13.7 17.5 8.8 34 21.95 11.15 8.9 17.65 16-1.4 2.35-5.45 5.1l-6.35 3.65"/><path fill="#c94772" d="M275.95 60.15q-18.15 4.85-30 17.65-12.1-7.05-21.45-6.1-6.6-2.55-14.2-.75-4.9-8.45-12.6-14 13.05 3.2 25.85 12.65l1.55.7q22.85-13.3 50.85-10.15m49.9 17.5q14.85 8.45 28.6 19.8 9.5 7.8 15 13.85-1.4 2.4-5.5 5.15-14.95-19.75-38.1-38.8m-167.1 43.45q-4.5 7.15-7.85 13.25h-14.05q15.15-21.7 37.3-34.9-7.8 9.65-15.4 21.65"/><path fill="#0d131a" d="M266.3 70.1q-6.3-4.25-6.3-5.65-.2-1.85.4-3.6.6-1.9 2-2.75l.1-.1h.15q16.55-.3 34.65 5.45l.6.2-.7 1.65q-2.45 5.55-4.05 8-3.55 5.35-7.85 6.6-3.3.95-19-9.8"/><path fill="#fceef4" d="M263.35 59.4q15.4-.2 32.5 5.1l-.2.45q-2.05 4.65-3.8 7.15-3.2 4.6-7.1 5.75-.85.25-3.65-.9-3.25-1.35-7.85-4.05-4.85-2.85-8.35-5.45-3.1-2.35-3.25-3l-.05-.75q0-3.05 1.75-4.3"/><path fill="#d9ced4" d="M263.35 59.4l14.3.95-7.5 1.5q-4.4 1-8.2 3.1l-.3-.5-.05-.75q0-3.05 1.75-4.3"/><path fill="#0d131a" d="M289.8 95.05q9.2-3.8 13.3-2.8 4.65 1.1 7.35 11.3 2.45 9.3 1 13.25-1.25 3.5-9.45 5.55l-8 1.3q-3.95.85-14.2-7.45l-.1-.1-5.15-10.15q4.8-6.6 15.25-10.9"/><path fill="#fceef4" d="M291.2 96.2q8.4-3.4 11.8-2.6.9.25 2.9 3.9 1.8 3.3 2.85 6.9 1.2 3.95 1.2 7.2 0 2.4-.65 4.2-1.75 4.8-14 6l-1.1.15q-3.1.7-11.9-6.3l-4.25-6.85-1.4-2.55q4.65-6.15 14.55-10.05"/><path fill="#0d131a" d="M331.45 87.3q11.2 5.9 12.35 7.75.3.55 0 1.1-1 1.8-9.4 5.35-8.05 3.4-10 3.4-2 0-7.3-5.45-5.2-5.35-5.85-7.8-.65-2.7 1.2-5.75.8-1.3 2.55-2.6 1.7-1.25 2.85-1.5 2.2-.5 13.6 5.5"/><path fill="#fceef4" d="M341.45 95.65q-.4 1.15-7.7 4.3-7.2 3.05-9.1 3.05-1.35 0-6.2-4.85-4.9-4.9-5.5-7.15-.6-2.15 1.05-4.75 1.45-2.3 3.25-2.7 1.85-.4 12.55 5.15 10.45 5.35 11.65 6.95"/><path fill="#0d131a" d="M174.9 54.15l.9-.05-.3.8-2.25 8.6q-1.85 6.9-2.75 7.4-1.6.75-11.45.3-10.05-.5-11.9-1.7l-.75-.6-.45-.55q0-.85 4.35-6.05l4.35-5.05 1.45-.95 9.75-1.5 9.05-.65"/><path fill="#fceef4" d="M173.85 55.3l-1.6 6.6-1.1 4.6q-.65 2.2-1.3 2.55-1.4.7-10.45.15-9.05-.55-10.3-1.4.25-1.3 5-7.05l1.85-2.3q9.55-2.4 17.9-3.15"/><path fill="#0d131a" d="M130.3 84.05q14.05-7.25 15.65-7 1.7.3 6.55 12.25 4.8 11.8 4.75 14.9-.05 3.55-14.8 6.3-14.6 2.7-15.85.75l-6.15-8q-5.75-7.75-5.4-9.2.65-2.55 15.25-10"/><path fill="#fceef4" d="M117.25 94.55q.45-1.7 13.3-8.45 12.6-6.6 14.8-6.75 1.35.9 5.6 11.15 4.3 10.4 4.3 13.25v.05l-.75.95q-1.35 1-4.45 2-6.1 2-13.8 2.8-7.25.8-7.95-.15l-3.3-3.9q-7.75-8.55-7.75-10.7v-.25"/><path fill="#0d131a" d="M170.7 78.75q2-2.9 2.85-3.35 3.45-1.7 11.4-2.15 10.4-.55 13.3 4.3l.3.5-.45.3q-7.45 4.85-15.25 13l-.2.2-.3-.05-7.9-1.05-7.25-.95q-1.95-.4-2.2-1.05-.2-.35.05-.75l1.55-2.45 4.1-6.5"/><path fill="#fceef4" d="M175 76.35q2.55-1.3 9.7-1.85 9.1-.65 12.15 2.8-6.7 4.6-14.35 12.5l-7.05-.9-8.15-1.25 1.35-2.15q5.2-8.6 6.35-9.15"/><path fill="#dbdcdc" d="M281 389q2.6 1.6 6.25 5.15 3.9 3.75 3.95 5 .15 1.45-2.45 5.45-2.4 3.75-4.5 5.8.3-6.8-.2-11.05-.7-5.95-3.05-10.35"/></svg>