<svg xmlns="http://www.w3.org/2000/svg" width="227" height="240" viewBox="-0.65 -0.8 226.5 240.15"><path fill="#eeeeef" d="M135.95 218.4l10.35 9.55q-13.5 3.3-17.9 2-1.6-.45 2.15-5.55 3.45-4.7 5.4-6"/><path fill="#c8c9ca" d="M138.95 221.2l7.35 6.75q-13.5 3.3-17.9 2-.65-.2-.35-1.25 6.95-2.75 10.9-7.5m41.25 1.3q1.8 2.55 2.9 5.5 1.15 3.1.2 3.5l-6.5-.2q-5.85-.85-8.15-2.5l11.55-6.3"/><path fill="#a1d6d3" d="M191.05 153.9q5.75 2.7 16.9-.65 9.85-2.95 13.4-6.5 2.7-2.7 2.25 4.7-.4 6.85-2.65 14.2-3.45 11.4-5.3 14.9-5.2 9.6-17.2 18.6-11.6 8.65-10.65-17.45.3-8.15 1.8-18.8l1.45-9"/><path fill="#8bbab7" d="M186.05 187.4q-1.3-7.8.2-15.45 1.65-8.5 6.3-13.3 9.3 7.2 21.2-.1 2.85-1.7 7.15-5.3 2.75-2.3 2.8-1.6.15 1.8-1.05 7.3l-1.7 6.7q-3.45 11.4-5.3 14.9-5.2 9.6-17.2 18.6-4.3 3.25-7.85-.6-3.25-3.5-4.55-11.15"/><path fill="#a1d6d3" d="M177 134.8l-17.75-15.05 8.9-3.75 6.75-2.7q2.2-.65 3.35.85 1 1.3.7 3.3-.4 2.3-1.95 17.35"/><path fill="#8bbab7" d="M177 134.8q-5.75-6.1-9.55-9.25 4.8-3.95 7.75-9.05 1.2-2.1 2.65-1.2 1.3.85 1.1 2.15-.4 2.3-1.95 17.35"/><path fill="#a1d6d3" d="M95.2 32.6q.65 5.1-6.75 17.55-3.65 6.25-7.5 11.45-11.3 6.1-23.25 10.25-23.95 8.25-27.3-1.45-4.2-12.25-6.2-27.05-2.05-15.55.25-20.9.45-1 3.05-2.5 2.65-1.55 3.5-1.05 1.2.7 6.75 10.6 1.9-5.3 4.65-11.15Q47.85 6.7 52 4.05l3.2-.25q2.2.35 2.15 1.35L56.65 16q4.25-3.55 15.25-8.35Q84.25 2.3 93.3.95q4.55 2.25 4.1 3.35-.2.6-4.2 5-3.45 3.75-3 5.55l2.4 6.95q2 5.85 2.6 10.8"/><path fill="#8bbab7" d="M94.05 39q-2.2 5.95-7.85 14.85l-5.25 7.75q-7.4 4-16.6 7.75Q46 76.8 37.2 75.4l4.55-13.65q2.8-8 5.55-12.8 7.6-13.2 21.85-13.75 11.9-1.1 24.9 3.8"/><path fill="#eeeeef" d="M37.8 172.25l-.05 7.7q-1.6 1.9-2.5.65-1.1-1.35-1.35-6.7l-.05-6.9 3.95 5.25"/><path fill="#c8c9ca" d="M45.7 174.15l6.3.4q-3.65 8.8-5.85 8.3-.8-.15-1.3-1.9-.45-1.45-.6-3.7l1.45-3.1"/><path fill="#a1d6d3" d="M49.4 145.15q14.4-1.4 16.85-.35 2.45 1.1 4.75 6.45 1.2 2.7 1.85 5.15l-3.6 1.5Q65 160.45 61.6 166q-4.1 6.75-7.95 8.25-4.05 1.55-12.9-.45-7.55-1.7-7.45-13.35.1-5.7 2.15-13.7l13.95-1.6"/><path fill="#8bbab7" d="M43.3 145.8q19.95-2.3 22.95-1 2.45 1.1 4.75 6.45 1.2 2.7 1.85 5.15l-3.35 1.15q-4.05 2.25-7.45 7.8-3.5 5.8-6.6 7.7-3.5 2.2-9.15 1.4 2.75-5 3.55-13.55.25-3.15-2.05-7.55l-4.5-7.55"/><path fill="#eeeeef" d="M38.9 183.8q-1.15-1.15-1.55-4.8-.4-3.2-.1-7.45 1.75 2.8 5.5 2.75l3.35-.65-2 4.2q-2.5 4.45-5.2 5.95"/><path fill="#c8c9ca" d="M40.45 176.4q-.65-.95-3.3-3.05l.1-1.8q1.75 2.8 5.5 2.75l3.35-.65-1.2 2.7q-1.6 3.1-3.3 5.15.05-3.35-1.15-5.1"/><path fill="#a1d6d3" d="M67.55 176.95q.4-5.05 2.7-9.1 2.05-3.6 4.9-5.25 4.4-2.55 21.55 23.35 8.55 12.95 16.25 26.4-3.85 2.75-10.45 2.95-5.95.2-12.25-1.65-6.15-1.8-9.55-4.6-3.7-3.05-2.45-5.95-11.6-13.2-10.7-26.15"/><path fill="#8bbab7" d="M67.5 179.25q8.8-6.05 11.55-15.5 6.7 5.05 21 27.35 7.1 11.15 12.9 21.25-3.85 2.75-10.45 2.95-5.95.2-12.25-1.65-6.15-1.8-9.55-4.6-3.7-3.05-2.45-5.95-10.5-11.9-10.75-23.85"/><path fill="#c8c9ca" d="M109.9 210.4l6.55 2.35-.15 1.85q-.3 2.05-1 2.75-.85.8-5.25-.45-4.35-1.2-4.5-1.9-.1-.65 1.25-2.15 1.45-1.65 3.1-2.45"/><path fill="#eeeeef" d="M84.8 210.2l2.7 3.7q-10.8 2.7-16.2 2.7-3.2 0 1.2-5.4 4.35-5.4 7.3-5.05 1.9.25 5 4.05"/><path fill="#c8c9ca" d="M81.95 207.25q2.7 2.15 5.55 6.65-10.8 2.7-16.2 2.7l-.25-.05q7.5-5.1 10.9-9.3"/><path fill="#eeeeef" d="M87.1 210.05q4.35-2.35 8.35.25 3.25 2.05 4 5.15.5 2-5.7 3.45-4.9 1.15-8.55 1.15-2.2 0-1.1-4.55 1.05-4.45 3-5.45"/><path fill="#c8c9ca" d="M99.45 215.45q.45 1.8-4.5 3.15-3.75 1.05-8.3 1.4 5.95-5.1 6.1-10.85 2.5.5 4.55 2.65 1.7 1.8 2.15 3.65"/><path fill="#eeeeef" d="M76.95 141.25L85 136.3l16.8 13q19.05 14.2 30 20.3 10.95 6.15 7.4 25.65-1.8 9.75-5.8 18.25-8.15 2.05-21.1-1.2-16.4-4.1-24.4-15-6-8.1-7.95-15.3-1.3-7.25-2.45-10.95l-5.55-17q-2.7-7-5.3-8.05l10.3-4.75"/><path fill="#c8c9ca" d="M72.7 156.15q-3.15-9-6.05-10.15l18.5-9.15 16.75 12.7q18.95 13.95 29.9 20.05 10.95 6.15 7.4 25.65-1.8 9.75-5.8 18.25-3.2.8-12.15-.2-10.25-1.15-17.4-3.9 15.45 2.15 28.7-8.9 1.55-8.05-.55-16.45-2.35-9.5-8.75-16.35-16.1-17.3-50.55-11.55"/><path fill="#a1d6d3" d="M162.85 76.35q3.2-1.1 4.9-1.35 1.8-.25 3 1.9.85 1.55 1.25 3.9.5 2.85-6.8 14.5-6.5 10.45-11.35 16l2.35 4q4.55 5.65 15.4 14.1 17.5 12.05 25.45 35.55 3.55 10.4 3.7 19.85.15 9.7-3.3 15.95h-.1q-2.55 7.95-9 14.6-3.5 3.6-9.4 8.55-3.55 3.55-10.35 4.65-5.6.85-16.7.4-6.3-.3-11-3.9-4.3-3.3-4.8-7.3-11.35-10.7-13.35-23.9-1.6-10.4 2.7-21.9-33.4-17.35-42.95-34.1-9.35 6.2-17.95 8.4-5.95 1.5-18.4 2.35-9.9.7-17.6-3.8-4.2-2.5-8.15-7-2.85 2.1-4.75 5.5-3.15-1.65-6.45-4.15-6.65-4.95-7.35-9.1-1.45-8.2 3.1-13.7 6.2-5.5 8.8-9.2l-.25-5.45q-.05-3.85.6-6.7.9-3.9 4-7.95 3.5-4.65 7.85-6.35Q32.8 65.75 41.8 61.35q5.2-2.55 14.45-1.9 9.4.7 24.7.7L93.2 68.4q13.9 10 22.25 19 13.45-5.2 30.35-8.15l14.2-1.9 2.85-1"/><path fill="#a1d6d3" d="M81.75 138.25q-.15-.3.55-.7l.9-.15q4.7 8.2 15.55 16.75 10.85 8.6 27.1 17.05.3.15-.1.9-.35.75-.7.6-15.85-8.25-25.1-15.1-12.35-9.2-18.2-19.35"/><path fill="#8bbab7" d="M162.85 76.35q3.2-1.1 4.9-1.35 1.8-.25 3 1.9.85 1.55 1.25 3.9.5 2.85-6.8 14.5-6.5 10.45-11.35 16l2.35 4q4.55 5.65 15.4 14.1 8.05 6.3 12.85 11.95 5.4 6.4 9 14.7 5.15 10.65 6.7 22.55 1.85 13.95-2.7 22.15h-.1q-2.55 7.95-9 14.6-3.5 3.6-9.4 8.55-3.55 3.55-10.35 4.65-5.6.85-16.7.4-6.3-.3-11-3.9-4.3-3.3-4.8-7.3l.65.2 2.6.1q5-.8 11.65-7.45 2.85-2.85 5.95-10.7 3.65-9.15 4.7-18.75 2.95-26.75-15.3-40.45-9-6.75-19.75-25.25-5.05-8.65-7.5-11.85-4.1-5.5-8.25-7.15-.35-1.55 24.35-10.5 12.35-4.45 24.8-8.6l2.85-1m-129.2 19.2l3.85-7.75q1.6-1.55 5.55-2 4-.45 1.95 1.65-1.8 2.1-9.3 13-5.05 7.3-5.4 5.35-.4-2.1 3.35-10.25M68.25 127q3.05-.9 5.05-.95l2.55.35 13.9 2.75q11.8 2.1 12.6 3.95.85 1.95-8.15 6l-9.15 3.6q-.5.35-1.85-2-1.35-2.3-1.8-2-8.35 5.6-15.4 7.5-4.4 1.2-14.8 2.05l2.45-5q1.05-2.95-1.05-4.35-.9-.6-3.5.05l-6.15 1.6q-10.25 2.35-20.6-.55l-1.2-1.45q-.7-.95-.55-1.15l5.75-.45 11.85-.15q5.45-.2 16.65-4.5l13.4-5.3M82.4 64.35q1.35 4.5.8 6Q75.6 63.6 66.75 60l14.2.15 1.45 4.2"/><path fill="#fff" d="M62.4 86.45q3.7 2.4 5.55 6.9 1 2.45 1.75 7-4.95 4.05-16.05 7.1-7.9 2.15-13.2 2.65.15-1 2.6-5.55Q46 99 48.95 95.5q2.45-2.9 6.35-5.65 4.3-3 7.1-3.4"/><path fill="#dbdcdc" d="M48.95 95.5q2.45-2.9 6.35-5.65 4.3-3 7.1-3.4 2.55 1.65 4.35 4.55-11.55 1.6-19.85 10.5-4.15 4.45-6.45 8.6.15-1 2.6-5.55Q46 99 48.95 95.5"/><path fill="#fff" d="M72.3 125.85q0 1.65-1.3 6.55-1.35 5.15-2.05 5.3-.75.2-4.8-3.35-4-3.45-4.5-4.55l12.65-3.95"/><path fill="#dbdcdc" d="M59.65 129.8l13.15-4.25-2.05 7.75q-1.7-1.95-3.45-2.35l-6.35.45-1.3-1.6"/><path fill="#ca0336" d="M56.15 95.6q3.05 3.65 1.85 10.35-.65.65-5.4 1.9-4.9 1.25-6.05.95-.95-.2-1.85-2.4l-1-2.65q-.35-.65 3.4-5.9 3.8-5.35 4.75-5.05 2.7.9 4.3 2.8"/><path fill="#aa002b" d="M47.1 97.85q3.8-5.35 4.75-5.05 2.9 1.05 4.45 3.05-5.2.7-8.4 3.8-2.5 2.4-3.5 5.9l-.7-1.8q-.35-.65 3.4-5.9"/><path fill="#a1d6d3" d="M167 42.7q.8 2.85 1.2 8.05.35 5.45-.2 7.65l8.5.5q4.3.65 4.4 1.35l.7 3.65q.25 2.35-1.2 2.5-10.65 1.15-12.9 3.1-.9.8-7.2 9.25t-8.75 10.6q-4.6 4-8.85 5.35-4.25 1.35-13.1 1.6l-12.35.4q-7.1.5-11.35 2.2-2.45 1-7.25-.85-4.75-1.85-9.4-5.55Q77.6 83.2 78.6 73.35l1.65-15.4q.7-5 1.95-7.5 3.7-7.25 16.9-20.75 12.2-12.5 16.1-14.3 3-1.45 6.45-.1 3.25 1.3 2.55 2.65l-3.1 6.7 9.4-4.2q11.15-4.1 20-3.8l15.75.2q5.3 0 5.9.6 1.1 1.05 2 4.3 1 3.55-.7 3.7l-6.25 1q-4.35.9-4.35 1.55t1.7 6.4l2.45 8.3"/><path fill="#915e82" d="M148.45 45.3q2.5 4.55 2.7 11.9.2 7.25-1.95 11.55-2.4 5.65-4 8-2.7 3.95-7.85 5.15l-35.05 7.95q-3.25-4.95-7.6-8.65l-3.75-2.65q0-5.45 1.6-15.05 1.85-11.25 4.1-13.85 2.7-3.05 16.85-9.65 14.65-6.8 20.75-7.35 5.55-.5 9.05 3.7.95 1.2 5.15 8.95"/><path fill="#7f5072" d="M134.25 32.65q3.45-.3 5.95 1.1 2.1 1.15 3.95 3.75-13.4 2.3-25.65 18.55-11.85 15.75-14.55 33.45l-1.65.35q-4.05-4.8-8.1-8.55l-3.25-2.75q0-5.45 1.6-15.05 1.85-11.25 4.1-13.85 2.7-3.05 16.85-9.65 14.65-6.8 20.75-7.35"/><path fill="#65a9dc" d="M102.5 89.9q-2.55-4.45-6.85-8.1-3.3-2.9-4.65-3.2-.7-.15.2-7.2l1.05-7.05q2.95-4.05 9.85-9.15 6.6-4.9 9.5-5.55 2.55-.55 6.8 1.2 3.9 1.55 5.8 3.45 2.45 2.4 5.35 7.35 3.45 6 2.9 8.9-.75 4.1-2.3 7.35-2.25 4.65-5.65 6.7l-10.85 2.85q-10.95 2.8-11.15 2.45"/><path fill="#5892bf" d="M121.45 52.3q-8 9.7-12.05 17.95-4.45 9.15-5.65 19.55l-1.25.1q-2.95-4.15-7-7.9-3.45-3.15-4.5-3.4-.7-.15.2-7.2l1.05-7.05q2.95-4.05 9.85-9.15 6.6-4.9 9.5-5.55 1.85-.4 4.75.45 2.6.75 5.1 2.2"/><path fill="#c8c9ca" d="M76.25 207.3l-4.1.35.8-2.1 3.85-1.15 5.65.4q-3.45 2.05-6.2 2.5"/><path fill="#eeeeef" d="M64.25 187.25l2.45 7.45-4.25.1q-3.8-.1-5.55-1l3.25-3.2q2.7-2.45 4.1-3.35"/><path fill="#c8c9ca" d="M69.55 198.1l7.1 6.4-6.15 1.95q-3.85 1-6.35.95.3-1.1 2.6-4.9l2.8-4.4"/><path fill="#a1d6d3" d="M68 195.3q-5.1-3.95-4.1-7.25.55-1.9 4.4-4.9 2.75-2.15 7.15-6.6 4.5-4.55 5.45-6.25.95-1.65 2.95-8.25 2-6.35 2.2-8l6.2-1.65q7-1.3 11 .4 6.4 2.7 19.4 10.8l-1.75 5.85q-2.25 6.95-4.7 12.45-2.4 5.45-9.15 10.2-3.8 2.65-11.45 7.3-5 3.55-7.65 4.5-3.2 1.1-8.6.9-4.9-.15-8.2-3.75-2.3-2.55-3.15-5.75"/><path fill="#8bbab7" d="M120.9 169.45q-2.25 6.95-4.7 12.45-2.4 5.45-9.15 10.2-3.8 2.65-11.45 7.3-5 3.55-7.65 4.5-3.2 1.1-8.6.9-4.75-.15-7.95-3.5-2.3-2.45-3.25-5.65 6.3 2.5 13.5.8 7.3-1.75 12.9-7.25 13.55-13.3 8.35-36.55l.35.15q6.4 2.7 19.4 10.8l-1.75 5.85"/><path fill="#fff" d="M50.1 101.15q.35 1-.05 1.9-.35.9-1.15 1.15-.85.25-1.65-.35-.8-.55-1.1-1.55-.3-1 .05-1.9.4-.9 1.2-1.15.85-.25 1.6.3.8.55 1.1 1.6"/><path fill="#a1d6d3" d="M88.65 138.85q6.75-6.05 18.6-4.75 12.15 1.4 16.2 9.65 3.8 7.8 4.45 13.25.5 4.3-1.05 6.6-.85 1.2-3.5.6l-2.5-.9-6.85-4.5q-8.25-5.25-10.95-6.05-3-.9-8.3 0-4.4.75-8.95 2.35-4.65-1.8-3-7.35 1.4-4.8 5.85-8.9"/><path fill="#8bbab7" d="M120.85 163.3q-13.4-9.25-17.8-10.55-3-.9-8.3 0-4.4.75-8.95 2.35-2.45-.9-.85-3 1.6-2.05 5.1-2.9 9.05-2.2 20.05 1.15l5.45 1.35q1.95.1 2.05-2.2.25-5.9 1.5-7.75 1.55-2.3 4.35 2 4.05 8.3 4.65 12.6.6 4.05-1.6 7.25-.9 1.35-2.7 1.1-1.45-.25-2.95-1.4"/><path fill="#eeeeef" d="M146.75 227.65q-.25-1.9 3.5-3.45 3.65-1.5 7.15-1.15 4.5.4 6.75 1.2 3.45 1.25 4 3.95.6 2.8-2 5.95-2.35 2.8-4.55 3.3-2.15.5-8.15-3.15-6.3-3.8-6.7-6.65"/><path fill="#c8c9ca" d="M158.75 228.05q-3.9-3.35-8.9-3.65 3.85-1.75 7.55-1.35 4.5.4 6.75 1.2 3.45 1.25 4 3.95.45 2.1-1 4.55-1.25 2.1-3.3 3.55-1.25-4.9-5.1-8.25"/><path fill="#915e82" d="M163.4 190.1l3.75.3q3.4.4 3.7.7.35.3 1.75 6.4 1.4 6.15 1.3 7.2l-2.05 1.95-2.55 1.55q-.6 0-5.1-1.95-4.55-2-5.1-2.6-.45-.55-.9-4.9-.45-4.15-.25-4.7.15-.4 2.65-2.1l2.8-1.85"/><path fill="#7f5072" d="M163.4 190.1l3.75.3q3.4.4 3.7.7.35.3 1.75 6.4 1.4 6.15 1.3 7.2l-2.05 1.95-2.55 1.55q-.6 0-5.1-1.95-4.55-2-5.1-2.6-.6-.75-1.05-6.6l1.3-4.3q3-2.1 4.05-2.65m21.45-34q1.5.9 3.75 3.1 2.45 2.3 2.7 3.2.3 1.1-.25 11.95-.55 11.05-1.15 11.45l-3.95.95-4 .45q-.7-.1-5.25-5.95-4.45-5.75-4.85-6.8-.35-.95-1.1-6.25-.75-5.3-.6-5.95.15-.7 2.75-4.1 2.65-3.45 3.25-3.6l4 .25q3.45.5 4.7 1.3m-32.5-22.15l3.9-.15q3.25.15 3.8.55.6.45 1.85 5.85 1.25 5.4.95 6.35-.25.85-3.6.85l-4.55-.55q-1.15-.4-3.65-4.05-2.4-3.55-2.35-4.25.05-.7 1.35-2.45 1.4-1.9 2.3-2.15"/><path fill="#0d131a" d="M135.8 217.4l.45 1.5q-1.55 1-4.7 5.4-3.15 4.45-2.5 4.8l5.5.15q5.6-.4 11.65-1.85l.4 1.35q-6 1.85-12.55 2.4-6.7.5-7.5-.95-.75-1.25 3.6-6.75 4-5 5.65-6.05m33.2 10.95q2.2 1.55 8.1 2.25 5.55.7 6.05 0 .35-.55-.75-3.1l-2.65-4.7.95-.65 2.65 3.8q1.35 2.1 1.9 3.7.45 1.45.2 2.15-.3.8-1.5 1l-7.3-.4q-5.95-.85-8.35-2.5l.7-1.55m52.05-83.15q3.05-2.65 4-1.95.8.7.55 5.05-.85 14.55-6.4 27.65-7.5 17.6-21.1 24.5l-.1-2q12.55-8.2 19.3-24.35 5.1-12.25 5.55-24.5.05-2.3-.45-2.25l-2.6 1.65q-5.5 3.7-13.3 5.7-9.3 2.35-14.6-.1l-.85-2.3q6.1 2.85 15.85.1 8.75-2.45 14.15-7.2m-43.4-30.25q-.45-1.15-1.4-.9-1.15.3-8.35 3.35l-7 3-2-1.85q5.5-2.45 11.35-4.35 3-1 5.65-1.75 1.9-.6 3.05 1.35 1 1.7.8 3.8l-1.95 17.3-1.85-1.8 1.85-15.95q.2-1.25-.15-2.2M93.95.1q5.65 2.25 4.55 4.95l-4 4.2q-3.65 3.7-3.4 4.6l1.05 2.5 1.85 5q.8 2.35 1.45 6.2l.65 5.05-1.75 1.65-1.05-5.9-1.85-6.9-2.15-6.35q-.5-1.5-.25-2.5.25-1.25 3.45-4.45l3.4-3.55q.3-.75-.95-1.75-1.3-1-2.65-1.05-3.9-.15-18 6-13.55 5.9-17.1 8.85-2.7 2.25-2.35 1.05l.9-1.7.7-10.8q-.35-.45-1.85-.6l-2.15.2q-3.9 2.5-10.3 16.45-3.25 7.05-6.35 14.8-.75 1.45-.85.85l.5-2.8 1.1-4.4q-4.8-8.7-6.1-9.7-.6-.15-2.45 1-1.9 1.15-2.2 1.85-2.25 5.1-.55 19.6 1.65 14.35 6 28.1v1.65q-.25.7-.8.25-3.85-7.05-6.6-25.3-2.8-18.9-.3-24.7.45-1.1 3.6-3.45 3.3-2.5 4.3-1.95.9.5 2.9 4.2l3.25 6.2q7.7-20.7 13.75-24.6 1.05-.7 3.95-.4 2.95.25 3.05 1.35.15 1.3-.1 5.4l-.35 5.05q7.45-5.65 21.2-10.6Q91.6-.8 93.95.1m-56.6 179.55l.75.6q-1.7 2.05-2.5 2-.85-.1-1.85-5-1.15-5.7-.45-11.55l1.1 2.55q-.4 4.85.4 8.95.7 3.4 1.25 3.4.45 0 1.3-.95m14.2-5.3l1.5-.05q-1.95 4.55-4.2 7.55-2 2.65-2.8 2.45-.5-.15-1.2-1.85-.8-2-.95-4.2l1-1.3q.15 2.35.7 4.05.45 1.35.7 1.4.45.05 1.9-1.85 1.8-2.45 3.35-6.2"/><path fill="#0d131a" d="M34.6 146.95l1.9.5q-4.1 15.75-.45 21.65.4.75 1.15 1.5.75 2.35 3.3 3.2l5.15-.15q5.3.8 8.9-1.25 3.4-1.95 6.65-7.25 3.45-5.65 7.7-8.1l3.8-1.4.3 1.5q-2.05.5-4.15 2-3.8 2.65-6.9 7.75-3.7 6.1-7.75 7.6-4.5 1.7-13.55-.35-3.95-.9-5.95-4.25-1.9-3.1-2.15-9-.35-6.9 2.05-13.95"/><path fill="#0d131a" d="M36.8 171.55l1 .5.4 6.4q.4 4.6.85 4.65.8.1 3.3-3.45 2.5-3.65 3-5.8l1.7-.35q-.95 2.6-3.75 6.65-3.15 4.5-4.55 4.35-1.95-.25-1.95-12.95"/><path fill="#0d131a" d="M35.6 166.85q.15-.85.45-.95.3-.1.55 1.1.55 2.75 1 3.65 1.35 2.7 4.4 2.9 3.45.25 6.2-2l2.7-3.1q.55-.7.85-.3.25.4 0 .9-3.8 6.55-10.1 6.1-4-.25-5.4-3.95-.9-2.25-.65-4.35M68.95 176q-.55 3.8-.2 6.6l-1.45 1.35q-1.05-4.4 0-10 1.5-8.25 7.45-12l.8 1.25q-2.2 1.35-4 4.7-1.95 3.65-2.6 8.1m29.95 38.5l7.15-.25v1.45l-6.95.25q.2-1-.2-1.45"/><path fill="#0d131a" d="M104.75 215.15q.6-1.5 1.05-2.05.95-1.2 3.3-2.4l1.05.25q-1.2.6-2.65 2.2-1.4 1.55-1 1.85l4.15 1.3 4.2.65q1-.95 1-4.2H117l.05 2.4q-.1 2.3-.9 3.1l-4.85-.25q-3.25-.9-6.4-2.3l-.15-.55M84.35 214l-.45 1.35q-3.5 1.15-9.15 1.8l-6.2-.2q-.45-.85 1.9-4.3 2.4-3.5 4.65-5.15l5.15-1.85q1.5.4 3.35 2.05 1.85 1.6 2.55 3.2l-.65 1.1q-3.8-5-5.8-5.25-1.35-.2-3.75 1.75-2.2 1.8-3.85 4.15-1.7 2.5-1.3 3.2l.5.15q4.05 0 13.05-2"/><path fill="#0d131a" d="M84.45 218.75q.2.75.75.75 2.75 0 7.3-1 5.05-1.15 6.25-2.35.25-.25.15-.6-.35-1.45-1.65-2.9-1.4-1.7-3.2-2.5-3.25-1.4-6.65.4-1.25.65-2.3 3.6-1.05 2.95-.65 4.6m2.4-9.25q1.9-1 4.05-1.1 2.15-.1 4 .7 2 .9 3.45 2.8 1.25 1.65 1.7 3.4.15.9-.4 1.6-1.4 1.75-7.45 3.3-5.65 1.4-8.2 1.15-1.95-.25-.9-5.3 1.1-5.15 3.75-6.55m-21-63.75l1.15-.55q2.7 1.05 7.25 12.4 4.4 10.8 4.7 15.65l-1.55 1.1q-.65-3.35-4.1-13.25-4.55-12.9-7.45-15.35M132 212.8l1.6 1.55q-8.7 1.25-20.55-1.5-14.2-3.25-21.85-10.5l1.6-1.1q7.8 6.6 21 9.75 10.7 2.55 18.2 1.8"/><path fill="#0d131a" d="M127.4 166.05q5.05-10.35 7.9-12.85 1.3-1.2 1.85-1.1.5.05-.15.95l-2.4 3.6q-2.55 4-4.55 8.2-6.4 13.1-6.25 24.1.1 7.95 2.9 14.55 2.9 6.8 8.85 12.7l1.05 1.05.75 1.3q.8 3.1 3.35 5.45 2.6 2.5 6.45 3.5l-.25 1.35q-4.9-1.45-7.9-4.3-3-2.85-3.55-6.45-6.7-5.6-10.05-11.95-3.85-7.4-4.15-17.3-.3-9.55 6.15-22.8"/><path fill="#0d131a" d="M145.7 227.5q.1-2.75 4.55-4.45 4-1.55 8-1.2 3.9.35 7.15 1.9 3.65 1.8 4.15 4.2.6 3.05-2.4 6.7-2.7 3.35-5.25 3.9-3.6.8-9.95-3.65-6.3-4.4-6.25-7.4m12.4-4q-2.5-.25-5.7.65-3.3.9-4.55 2.2-.6.7-.55 1.25.3 2.05 4.65 5.05 2.65 1.8 5.85 2.9 2.8.95 3.85.7 2.15-.5 4.2-2.8 2.25-2.6 1.75-5.1-.5-2.45-3.25-3.6-2-.85-6.25-1.25M67.65 94.6q-2.05-5.25-5.4-7.55-2.65.5-6.65 3.35-3.85 2.65-6.25 5.45-2.5 3-5.1 7.65-1.9 3.4-2.95 5.95 5.95-.35 17-4.2 10.35-3.65 10.65-4.75.4-1.55-1.3-5.9m-5.3-9.2l2.65-.2q.2.45-1.6 1.15 5.35 3.55 6.65 11.8l.15 2.9q-.15.55-1.1 1.1-7.95 4.45-17.6 6.75-5.35 1.25-10.45 1.7-.85 1.25-1.25 1.15-.4-.05.1-1.7 2.7-9.1 7.85-15.25 5.95-7.15 14.6-9.4m-28.9 8.85q2.1-4.55 3.1-5.75.95-1.2 1.25-.95.3.2-.45 1.45t-2.65 5.45l-2.5 5.65q-.55 1.45-.85 1.3-.25-.15-.1-1.45.1-1.2 2.2-5.7M14.6 130.6q-.15-1 .1-2.25.2-1.5.8-2.2.6-.8 1.15-.55.6.3.1 1.05-.9 1.2-1.4 4.55-.1.7-.4.3-.3-.35-.35-.9m44.05-.3l1.4-.7q.5 1 4.05 3.9 3.5 2.85 4.35 3 .6-.6 2-4.9 1.35-4.3 1.35-5.75l1.5-.15q0 1.6-1.35 6.9-1.45 5.85-2.55 6.1-1.05.25-5.7-3.6-4.45-3.65-5.05-4.8"/><path fill="#0d131a" d="M51.3 93.3l.7-.95q3.15 1.2 4.95 3.55 2.95 3.85 1.55 10.15l-.95.2q.75-5.9-1.9-9.55-1.7-2.4-4.35-3.4m111.6-77.45l9.85.8q1.1.55 2.4 3.15 1.15 2.45 1.25 3.85.1 1.25-.6 1.85-.65.55-2.4.8-7.7 1.15-9.5 2.05 3.55 9.35 4.5 14.4.55 3.15.6 7.7.05 4.15-.3 7.05l7.7.6q5.2.8 5.6 1.8l.75 3q.3 1.95 0 2.85L182 67l-2 .45q-9.75.95-11.85 2.8-.65.55-5.6 7.05L157 85.05q-3.2 4.4-4.8 5.8-3.65 3.2-9 4.7-5.2 1.5-13.55 1.75l-9.15.3q-9.9.5-13.7 1.6l-2.65.3q-.8-.25 1.35-1.5 3.15-1.8 24.1-2.65 9.15-.45 13.6-1.95 3.7-1.25 7.7-4.8 1.55-1.35 4.4-5.15l5.15-7q4.4-5.9 6.4-7.65 1.35-1.15 7.25-2.3l6.45-1.15q.65-.2.25-2.3-.35-1.95-.85-2.55-.35-.5-4.95-.95-4.7-.5-6.7-.15-1.4 2.4-1.6 1.95-.15-.35.4-3.15.3-1.55 0-6.45-.35-5.1-1.05-8.8-.55-2.9-2.45-9.05l-1.7-5.9q0-1.25 5.6-2.5 5.8-1.35 6-1.65.4-.7-.5-3.1-.9-2.35-1.5-2.6l-8.55-.3-12.5-.2q-8.85-.3-18 2.9-4.95 1.7-10.85 4.95-2.6 1.45-2.5.35l3.95-7.15q.4-.6-.05-1.35-.45-.7-1.25-1.05-1.25-.65-2.85-.7-1.75-.05-3.3.65Q111.95 18 99.85 30.3 86.7 43.7 83.05 50.9q-.95 1.8-1.8 8.7L80 70.65q-.7 5.5-1.4 5.4-.65-.1-.5-5.55.1-5.1.75-10.9.85-7.35 2.05-9.7 3.7-7.25 17.3-20.95 12.7-12.8 16.85-14.75 2.6-1.25 5.6-.8 2.65.4 4.05 1.8.8.85.8 1.7 0 .8-1 2.8l-1.7 3.3q7-3.4 11.25-4.85 8.65-3.05 15.75-2.8l13.1.5"/><path fill="#5892bf" d="M91.2 78.2q3.15 1.35 6.85 5.1 3.55 3.6 4.75 6.45l-.65.15-.55.2q-3.2-6.05-10.35-10.35l-.05-1.55"/><path fill="#0d131a" d="M147.9 45.6l-1.3-2.5q-2.7-5.3-4.55-7.15-3.1-3.1-7.75-2.65-6.05.55-20.7 7.35-14 6.55-16.5 9.4-2.1 2.5-3.9 13.35-1.55 9.25-1.6 14.8-.05 2.7-.6 2.95-.6.3-.65-2.6-.15-5 1.35-15 1.7-11.7 4-14.35 2.8-3.3 17.55-10 15-6.85 21.1-7.4 5.2-.5 8.8 2.95 2.25 2.2 5.05 7.65l1.25 2.5q2.55 4.65 2.9 11.95.3 7.35-1.9 11.8l-1.35 2.85q-1.95 4.4-4 6.65-2.95 3.3-7.6 4.35l-13.15 3-21.9 5q-3.5.55-2.75-.2.75-.8 2.85-1.15l21.5-4.85 13.15-3.05q4.2-.95 6.65-3.75 1.45-1.7 3.45-6.1l1.35-2.95q1.9-3.85 1.9-10.1 0-7.9-2.65-12.75"/><path fill="#0d131a" d="M118.2 51.3q-4.1-1.7-6.5-1.15-2.8.55-9.3 5.4-6.85 5.05-9.75 9.1l-.1-1.9q2.9-3.95 9.5-8.55 6.25-4.3 9.45-5 2.65-.55 7 1.15 4.05 1.6 6.05 3.6 2.4 2.4 5.3 7.3 3.7 6.25 3.1 9.4-2.15 10.75-8.2 14.4l-1.8-.1q3.4-2.05 6.1-6.95 2.25-4 2.95-7.55.5-2.7-2.95-8.6-2.85-4.85-5.2-7.2-1.85-1.85-5.65-3.35m52.95 24.95q1.6 2.25 1.8 4.85.3 3.55-6.9 15.25-6.3 10.1-10.7 15.1.9 2.05 3.7 5.2 4.75 5.35 13.6 12.25 10.45 8.1 15.1 14.6 5 6.9 10.45 21.4 1.5 4.05 2.45 9.65.85 4.9 1.05 9.7.55 12.1-5.6 22.85-5.4 9.45-13.8 14.65l-3.1 3.25q-1.95 1.9-4.75 2.95-2.35.85-6.35 1.4-.2-1.1-.1-1.5 3.95-.4 6.35-1.5 2.05-.95 4.05-2.95l2.9-2.75q14.05-10.5 17.2-26.6 2.5-12.8-2.1-26.35-4.95-14.5-10.2-22.25-5.15-7.45-15.2-15.25-14.45-11.3-17.55-17.3l-2 1.65-2.1.75q-3.05.1-7.9-3.3-4.75-3.25-9.05-8.3-1.3-1.5-.75-1.8.55-.35 2.1 1.1 4.5 4.15 7.5 6.25 5.45 3.75 8.6 3.15 3.3-.65 12.55-14.85 9.05-13.95 8.6-16.6-.15-1.5-.8-2.9-.9-2.25-2.3-2.05-1.65.2-4.75 1.25l-2.8 1 1.75-2.65 1.8-.65 3.7-.9q1.85-.25 3.55 2.2M81.65 204.7l1.65.4q-1.95 1.15-5.35 2.4L73 208.95l-1.8-.2q-.25-.2-.15-.95l.7-1.45.6-1.05 1.2.45-.25.4-.15.7q.05.65 3.6-.3 3.35-.9 4.9-1.85m-25.5-10.45q-.2-.95 2.35-3.45 2.6-2.5 5.4-4.05l.2 1.4-3.65 2.9q-2.35 2.2-1.95 2.45l3.25.45 4.15.15 1.85 1.6-6.45-.2q-5-.4-5.15-1.25"/><path fill="#0d131a" d="M63.45 207.95q-.55-.8 2.2-5.2 1.65-2.7 3.4-5l.85 1q-.7.95-2.45 4.05-1.9 3.35-1.65 3.5l4.45-.75 6.2-1.65 1.2.95q-4.95 1.8-9.2 2.75l-5 .35"/><path fill="#0d131a" d="M65.8 186.3q-1.35 1.5-1.35 2.9 0 1.15 1.35 2.95 1.3 1.65 2.65 2.55l.55.45.05.8q.15 1.55 2.7 4.3 3.4 3.7 7.65 3.85 5.15.2 8.2-.9 2.7-.95 7.6-4.4l5.5-3.5q6-3.65 8.55-5.8 4.4-3.65 6.3-7.9 2.35-5.35 4.5-12.05l1.65-5.7 1.75 1.2-1.85 5.95q-2.3 6.9-4.7 12.4-2 4.45-6.3 7.7l-8.55 5.35-6.25 4q-5 3.5-7.55 4.4-3.05 1.1-8.6.9-4.95-.2-8.5-3.75-2.8-2.8-3.75-6.3-2.55-1.6-3.6-3.3-.8-1.4-.8-3.2 0-1.9 1.15-3.5.9-1.2 2.9-2.8 2.85-2.2 7.1-6.4 4.45-4.35 5.35-5.95.9-1.65 3.1-8.35 2.1-6.5 2.3-8.05h1.9q-.25 1.75-2.25 8.1-2.05 6.7-3 8.4-1 1.8-5.65 6.5l-7.25 6.65-2.85 2.5m-19.45-76.95q-1.6-1.2-2.5-3.05-.8-1.7-.55-2.7l.95-.45q-.15.7.85 2.75 1.15 2.25 2.5 3.25l-1.25.2"/><path fill="#0d131a" d="M122.85 144.15q-1.5-2.65-.45-1.75 1 .85 2.3 2.85 1.85 2.95 3.25 8.35 1.85 7-.15 9.9-1.25 1.85-3.25 2.1-1.8.25-5.4-2.2-12.65-8.9-16.3-9.95l-8.85.5-6.9 1.65q-4.55 1.1-5.5-4.25-.55-3.25 2.25-7.75 2.15-3.5 3.8-4.6 1.85-1.25 2.4-1.15.55.1-.95 1.55-6.15 6.05-5.4 10.9.25 1.85 1.45 2.8 1.1.95 2.25.6 2.85-.9 7.05-1.55 6-.95 8.85-.1 2.8.85 9.4 5l6.9 4.5q1.75 1.1 3.95 1.7.8.25 1.4 0 .65-.25 1.25-1.1 1.75-2.55.1-9-1.3-5.2-3.45-9M12.7 95.35q.7-4.4 4.2-8.9 3.85-5 8.7-6.45 5.65-13.65 14.95-18.95 6.05-3.45 12.85-3l26.9 1.7-.4 1.85-14.3-.6-11.6-.6q-20.95-1.35-30.55 32.8-.8 2.8-1.2 2.3-.45-.5-.05-3 .3-2.05 1.1-4.75l1.8-5.9q-3.65 1.3-6.8 5.95-2.8 4.05-3.25 7.4l-.3 5.35-.1 4.85 1.9-2.5q1.9-2.3 1.9-1.6 0 .85-1.15 2.85l-2.85 4-5.1 5.2q-4.6 4.25-6.15 8.2-1.5 3.85-.4 8.3 1.6 6.55 12.45 11.8.55.25 1.95-1.65 1.85-2.5 3.85-3.5 2.45-1.25 8.25-.8 7.3.6 9.85.25 4.65-.65 11.7-3.25l14.3-5.65q5-2 7.15-2.1 2.3-.15 3.95 1.6.6.7.4 1.15-.2.45-1.3-.25-2.1-1.25-4.15-.75l-6.9 2.4-11.5 4.8q-8.35 3.45-13.7 4.25l-9.45-.55q-6.7-.65-7.7.45 3.85 4.2 8 6.45 7.05 3.75 16.1 3.15 12.15-.85 20.45-3.25 9.65-2.85 17.7-8.7 1.8-1.3 2.3-.75.5.6-.95 1.65-9.15 6.9-19.7 10.05-8.95 2.65-20.8 3.05-14.75.55-24.8-10.55-1.35 1-2.6 4.25-.4 1-.9 1l-2.9-1.25Q8.5 140.3 5.75 138q-4.15-3.5-5.2-7.55-1.2-4.75.3-8.85Q2.5 117 8 111.9l4.95-4.95-.35-4.2q-.35-4.45.1-7.4"/></svg>