<svg xmlns="http://www.w3.org/2000/svg" width="323" height="335" viewBox="-0.45 -0.2 323.25 334.65"><path fill="#3396cd" d="M246.45 279.1l5.35 2.7q6 3.25 9.35 6.1 4.05 3.5.9 9.45-3.2 6-9.7 6.6-4.85.4-15.95 3.9-12.3 3.85-15.7 4.45-5.55 1-20.25-3.85-11.6-3.85-19.05-7.6-4.7-2.3-5.25-6.6-.5-3.45 1.6-7.25l12.9-5.9 55.8-2"/><path fill="#2880ae" d="M246.45 279.1l2.75 1.3 6.1 3.4q-10-1.65-21.35-1.35-12.45.3-21 3.05-9.85 3.1-12 8.8-2.5 6.6 5.6 16-6.7-1.85-14.6-4.9-6.8-2.65-10.55-4.55-4.7-2.3-5.25-6.6-.5-3.45 1.6-7.25l12.9-5.9 55.8-2"/><path fill="#3396cd" d="M252.45 239.4q10.95 12.4 8.3 18.35-5.05 11.45-9.5 16.95-8.15 10-19.85 11.3-13.6 1.5-23.75-.8l-8.1-1.8-10.5-.95L241 228.2l3.7 3.3 7.75 7.9"/><path fill="#2880ae" d="M244.7 231.5l7.75 7.9q10.95 12.4 8.3 18.35l-2.4 5.3q-14.7-1.55-30.4 4.65-16.45 6.5-21.75 17.2l-7.45-1.65-9.7-.8L241 228.2l3.7 3.3"/><path fill="#eeeeef" d="M268.7 294.95q4.15 4.15 7.65 9.9l-13.25-.45q-6.15-.8-9.95-2.4 1.15-4.7 4.1-8.25 2.7-3.3 4.65-3.2 2.55.15 6.8 4.4m-48.4 15.85q1.15-3.5 6.15-8 5.05-4.5 7.6-4.2 2.6.25 9.35 7.05 6.7 6.8 7.2 9.6-5.65.25-15.8-1.2-10.4-1.5-14.5-3.25"/><path fill="#3396cd" d="M75.1 193.85q.85-5.5 1.35-17.95.4-9.5.4-16.25 0-4.65 4.5-7.8 4.45-3.15 6.65-.05 2.55 3.45 6.8 6.7 6.25 4.75 12.05 4.9 5.55.15 4.3 4.35-.6 2.15-2.35 4.2l-33.7 21.9"/><path fill="#2880ae" d="M111.15 167.75q-.6 2.15-2.35 4.2l-5.6 3.65q-5.65-4.3-11.25-11.7-4.7-6.3-5.75-9.5-.7-2.25.25-2.9.9-.65 1.55.3 2.55 3.45 6.8 6.7 6.25 4.75 12.05 4.9 5.55.15 4.3 4.35"/><path fill="#3396cd" d="M125.45 109.9q3.4 2.25 11.15 6.4 8.55 4.55 13.15 6.4l3.55 4.75-27.7 29.8q-3.55 2.85-6.9 4.2-6.6 2.75-5.3-4.6 1.35-7.6 1.3-21.55-.05-9.4-.65-17.35-.35-4.5 4.05-7.35 4.25-2.75 7.35-.7"/><path fill="#2880ae" d="M146.9 134.35q-6.45-4.4-14-11.7-6.95-6.75-7.85-8.85-.7-1.6-.3-2.95.35-1.2.7-.95 3.4 2.25 11.15 6.4 8.55 4.55 13.15 6.4l3.55 4.75-6.4 6.9"/><path fill="#fff" d="M151.7 127.35l-10.6 166.4q-18.65.15-34-6.35-14.55-6.2-19.85-22.4-4.4-13.45-2.1-32.65 1.85-15.5 7.4-31.35 4.85-13.7 8.8-18.55 3.05-3.75 25.95-27.55 20.55-21.25 24.4-27.55"/><path fill="#3396cd" d="M206.35 108.05q53.15-15.25 53.95-2.7 2.05 31.25-.7 57.4-4.95 47.7-24.45 79-14.9 23.9-36.95 36.15-22.3 12.4-57.1 15.85-16.4 1.6-28.45-11.05-10.55-11-15.85-30.4-4.9-17.8-3.65-35.5 1.2-17.9 8.1-26.35l52.05-64.65 16.55-6q19.8-6.95 36.5-11.75"/><path fill="#2880ae" d="M204.35 142.2q4.85-7.25 14.4-15.8 8.7-7.8 18.45-14.2 9.65-6.35 16-8.45 6.85-2.2 7.1 1.6 2.05 31.25-.7 57.4-4.95 47.7-24.45 79Q220.8 264.7 200 276.9q-21.05 12.3-53.3 16.2 4.4-1.45 9.5-7 7.85-8.5 10.6-10.85 25.05-5.05 46.15-25.55 19.6-19.1 27.8-43.15 8.4-24.75.2-42.1-9.1-19.35-36.6-22.25"/><path fill="#fff1ac" d="M145.75 266l12.25-1.2q26.55 6.85 46.7.35 6.6-2.1 13.15-5.95l8.05-4.95q-4.05 5.15-10.15 10.65-9.85 8.85-21.75 15.35-12.75 7-27.2 10.45-11.45 2.75-26.95 3.85-11.6.8-9.65-2.6.65-1.15 3.15-3.15l4-3.1q4.95-4.2 7.2-12.35l1.2-7.35"/><path fill="#dcd096" d="M139.85 294.55q-11.6.8-9.65-2.6.65-1.15 3.15-3.15l4-3.1q3.8-3.2 6-8.75 25.7.75 43.3-8.7 13.9-.55 25.75-6.2 6.3-3 13.5-7.8-4.05 5.15-10.15 10.65-9.85 8.85-21.75 15.35-12.75 7-27.2 10.45-11.45 2.75-26.95 3.85"/><path fill="#3396cd" d="M2.4 187.95q.9-1.55 2.15-1.95 1.2-.4 2.05.35 9.5 8.25 16.8 13.15 6.45 4.35 12.8 7.15l38.2 12.75-5.95 61.5Q30.1 264.65 13.1 234.65q-5.65-9.95-8.7-21.1L1.75 200.9q-1.75-8.8.65-12.95"/><path fill="#2880ae" d="M45.85 263.75q10.05 4.35 23.5 8l-.9 9.15Q43.2 270.15 27 253.3q8.45 5.95 18.85 10.45"/><path fill="#3396cd" d="M44.55 193.6l2.7-11.7q.65-2.85 4.7-1.45 3.95 1.35 5 4.15l4.3 11.3q3.5 9.2 4.55 11.65l-5.3 10.6q-9.5-1.25-17.4-4.85-7.45-3.45-6.9-5.75 5.3-4.45 8.35-13.95"/><path fill="#2880ae" d="M56.95 184.6l4.3 11.3q3.5 9.2 4.55 11.65l-4.15 8.35q-3.6-7-5.7-16.6-1.8-8-1.6-12.5.1-3.1 1.25-3.25.9-.1 1.35 1.05"/><path fill="#3396cd" d="M277.95 180.35l.15 11.1q.55 11.85 2.35 15.75 1.05 2.25-1.65 3.5-2.4 1.15-6.7 1.15-4.3 0-7.75-1.2-3.9-1.3-4.85-3.45-2.45-5.4-1.7-15.4.65-8.65 2.1-10.6 1.5-2 8.95-1.55l9.1.7"/><path fill="#2880ae" d="M277.95 180.35l.05 8.4q-6.4-5.35-10.2 5-2.95 8.1-2.75 17.15-4.5-1.35-5.55-3.7-2.45-5.4-1.7-15.4.65-8.65 2.1-10.6 1.5-2 8.95-1.55l9.1.7"/><path fill="#3396cd" d="M281.7 160.4q1.45 5.2.9 10.85-.4 4.8-1.65 6.25-1.7 1.95-9.05 2.5l-9.05.15-3.8-12.4 1.15-23.8q17.3 1.4 21.5 16.45"/><path fill="#2880ae" d="M277.35 151.9q1.25 3.9-4 13.05-4.35 7.55-10.6 14.85l-3.7-12.05 1.15-23.8q11.3.9 17.15 7.95"/><path fill="#3396cd" d="M285.35 225.65q-.95 8.3-3.55 15.2-7 18.55-21.6 16.6-14.05-1.85-18.2-11.05-1.6-3.55-2.25-9.35l-.95-10.75 21.85-22.75q4.45-2.25 13.35.15 10.2 2.7 11.4 10.05.75 4.65-.05 11.9"/><path fill="#2880ae" d="M272.7 203.4q-10.4 4.2-10.75 22.55-.35 17.15 7.35 30.35-4.25 1.85-9.1 1.15-14.05-1.85-18.2-11.05-1.6-3.55-2.25-9.35l-.95-10.75 21.85-22.75q1.6-.8 4.9-.85l7.15.7"/><path fill="#eeeeef" d="M268.85 244.45q.6 3.2-1.25 6.4-1.8 3-3.85 3.1-2.6.1-4.9-3.8-2.2-3.95-.85-5.95 1.5-2.25 5.75-2.5 4.5-.3 5.1 2.75"/><path fill="#c8c9ca" d="M258 244.2q.65-1 2.45-1.75 1.75-.7 3.6-.75-3.85 3.05.45 12.05l-.75.2q-2.6.1-4.9-3.8-2.2-3.95-.85-5.95m-12.8 5.3q1.95 0 5.35 2.05 3.3 2 4.35 3.7.8 1.4-4.8 3.05l-5.8 1.4-.2-5.1q0-5.1 1.1-5.1"/><path fill="#eeeeef" d="M261.5 255.95q1.2-1.55 5.6-3 4.2-1.35 6.15-1.05 1.55.25-2.55 4.85l-4.35 4.5-2.85-2.1q-2.7-2.3-2-3.2"/><path fill="#c8c9ca" d="M265.35 253.6q-.9 1.7-.25 3.65.45 1.3 1.95 3.3l-.7.7-2.85-2.1q-2.7-2.3-2-3.2.95-1.15 3.85-2.35"/><path fill="#3396cd" d="M170.6 4.6q4.2-3.85 6.85-3.75Q179 .9 181.1 3q1.35 1.35.6 4.2l-2.15 5.8q10.1 4.25 18.35 13.05 8.1 8.6 10.5 17.35l-48 29.1-9.2-1.8q-8.7-22.8 2.2-44.3 5.85-11.45 17.2-21.8"/><path fill="#2880ae" d="M202.6 31.8q4.25 5.95 5.8 11.6l-48 29.1-2.85-.6q1.2-22.15 9.2-38.15 10.2-20.35 25.85-12.65 5.85 4.85 10 10.7"/><path fill="#3396cd" d="M238.35 38q.45 9.9 1 15.9l2.9 4.55q3.4 5.7 6.05 11.35 8.45 18.15 6 29.25-.95 4.2-5.75 8.55-6.55 5.3-10.45 8.95-5.6 5.15-14.85 6.65l-17.8.75-18.55 1.1q-10.15 1.9-17.1 7.75l-4.1 2.95q-7.1-.65-12-8.1-4.65-7-5.9-17.65-1.3-10.85 1.35-21.45 2.95-11.55 9.9-19.45 8.6-9.75 25.65-16.8 4.5-1.85 11.95-4.45L204.2 45q3.65-2 12.7-9.85l11.95-10.6q3.3-2.95 6.05-1.85 2.45 1 2.85 4.45l.6 10.85"/><path fill="#2880ae" d="M234.4 37.7q1.2-10.9.7-14.9 2.25 1.15 2.65 4.35l.6 10.85q.45 9.9 1 15.9l1.5 2-1.95 4-1.85 4.05-4-7.2q-1.55-3.25-1.05-4.8 1.2-3.55 2.4-14.25"/><path fill="#3396cd" d="M162.2 71.75q3.15-.1 2.25 4.6-.75 4.1-4.05 9.7-3.25 5.6-6.4 8.25-3.6 2.95-4.9 0-5.45-12.05-8.95-17.3-1.5-2.25-.45-3.95.95-1.6 3.1-1.55l7.95.25q6.05.2 11.45 0"/><path fill="#2880ae" d="M162.2 74.55q3.9-.15.25 10.6-1.4 4.05-3.05 6.8-1.7 2.9-2.4 1.95-3.8-5.3-7-10.5-5.3-8.6-3.7-9 1.4-.35 6.4-.05 6.4.3 9.5.2"/><path fill="#fff" d="M221.5 78.05l3.95 4.65q4.2 6.45 5.5 15.3-7.2 4.85-17.05 6.65-7.35 1.4-17.6 1.2 1.8-10.05 10.45-18.45 7.2-7 14.75-9.35"/><path fill="#dbdcdc" d="M226.05 83.7q-6-.45-15.75 6.15-10.75 7.3-13.35 16h-.65q1.8-10.05 10.45-18.45 7.2-7 14.75-9.35l1.4 1.35q1.7 1.85 3.15 4.3"/><path fill="#0d131a" d="M206.4 87.75q5.85 1.05 7.6 7.5 1.7 6.2-1.95 9.55-4.3 1-7.95 1.15l-7.8-.1q.9-5.1 4.15-10.6 2.95-5.05 5.95-7.5"/><path fill="#fff1ac" d="M239.6 116.2q.3 4.5-2.35 9.85-5.35 10.8-20.15 15.25-14.3 4.35-32.35-1.45-5.65-1.85-11-4.45l-4.2-2.25q5.4-7.45 27.3-9.45 2.8-.25 9.95-.2 7.45.05 11.35-.25 13.9-1.1 20.15-7.95l1.3.9"/><path fill="#dcd096" d="M239.6 116.2q.3 4.5-2.35 9.85-5.35 10.8-20.15 15.25-9.75 2.95-21.35 1.15 5 .5 9.95-.8 5.9-1.55 9.65-5.25 4.15-4.1 2.05-6.9-2-2.65-8.35-2.65-10.75 0-22.85-1.65l10.65-1.5q2.8-.25 9.95-.2 7.45.05 11.35-.25 13.9-1.1 20.15-7.95l1.3.9"/><path fill="#3396cd" d="M306.55 48.45q-.45 9.35-1.7 16.65-4.25 24.35-18.3 32.9-12.65 7.65-19.65 8.9-5.5 1-14.45-1.55-3.95-1.1-8.15-6.9-3.85-5.35-6.7-12.9-2.85-7.65-3.5-14.45-.7-7.4 1.55-11.4l4.9-9.55q3.3-6.45 5.85-10.45 7.75-12.15 17.05-15.15 9.2-3 29.2-3.35 10.3-.2 21.7.2 4.25 0 5.55 1.9 1.55 2.35-2.4 7-2.95 3.5-7 5.9-3 1.75-3.5 3.55-.1.3-.45 8.7"/><path fill="#d8ba9d" d="M276.05 32.9q10.9 0 15.15 7.6 4.75 8.4.6 24.95-4.25 17.15-14.85 26.35-10.45 9.1-22.4 6.7.65-12.45-5.4-21.4-1.85-2.75-4.2-4.85L243 70.7q.4-3.25 3.7-9.45 3.4-6.45 8.1-12.6 12.05-15.75 21.25-15.75"/><path fill="#b19981" d="M286.25 35.4q4.3 2.6 6.15 7.8-14.35 8.1-22.65 24.15-8.25 15.95-6.05 31.2-4.6.85-9.15-.05.65-12.45-5.4-21.4-1.85-2.75-4.2-4.85L243 70.7q.4-3.25 3.7-9.45 3.4-6.45 8.1-12.6 12.05-15.75 21.25-15.75 6.1 0 10.2 2.5"/><path fill="#746544" d="M268.65 46.75q4.8 2 7.4 7.15 4.35 8.75 3.1 20.35-1.85 16.8-17.8 24.25l-6.9.45q.95-4.3-.05-10.1-2-11.55-11.7-18.9 4.2-8.9 9.25-16.75 2.5-3.95 4.2-6.1 7-2.6 12.5-.35"/><path fill="#5a4e33" d="M256.15 47.1q7-2.6 12.5-.35 4.8 2 7.4 7.15l.8 1.85Q265.8 71.3 262.7 86.45q-1.55 7.5-1.35 12.05l-6.9.45q.95-4.3-.05-10.1-2-11.55-11.7-18.9 4.2-8.9 9.25-16.75 2.5-3.95 4.2-6.1"/><path fill="#fff1ac" d="M226.25 190.95q3.5-4.55 11-10.15l12.3-9.1q6.45-5.2 8.7-9.7l2.85 10.65q2.6 12.85 1.3 23.95-1.75 15-12.35 23.55-3.85 3.1-8.15 4.75-3.6 1.35-5.7 1.1-5-.55-9.15-5.1-5.55-6.15-5.55-16.95 0-6.8 4.75-13"/><path fill="#dcd096" d="M258.25 162l2.85 10.65q2.6 12.85 1.3 23.95-1.75 15-12.35 23.55-3.85 3.1-8.15 4.75-3.6 1.35-5.7 1.1-3.5-.4-6.9-3.05 7.95-.55 12.9-7.1 4.25-5.6 5.75-14.6 1.3-7.85.2-15.35-1.1-7.25-3.7-9.45 6.35-4.9 10.3-9.45 2.4-2.8 3.5-5"/><path fill="#fff1ac" d="M197.65 195.8q2.8 3.4 3.4 8.15.7 5.55-1.6 10.85-2.3 5.4-7.05 8.75-11.3 8.05-28.1.35-2.65-2.05-4.75-6.55-4.25-9-1.65-21.05 2.65-12.05 8.45-21.3 2.9-4.65 5.25-6.85 6.85 11.9 19.2 21.5 5.1 4 6.85 6.15"/><path fill="#dcd096" d="M160.1 218.45q-4-7.45-2.95-17.4 7.3 9.9 17.6 13.35 13.75 4.6 26.35-6.25-.95 11.2-10.6 16.6-11 6.1-26.2-.85-2.2-1.75-4.2-5.45"/><path fill="#c8c9ca" d="M181.15 244.6q-.55 1.6-7.75 4.1l4.35-10.45q1.45 1.45 2.5 3.2 1.25 2.1.9 3.15m-7.9 4.5l2.15 10.9-4.25.9-8.15.5 10.25-12.3m-14.35 14.1l-2.05 4.7q-6.5-1.3-10.2-2.9l12.25-1.8"/><path fill="#3396cd" d="M140.75 296.05q3.2 5.25 1.5 9.2-3.25 7.6-8.5 12-7.6 6.35-18.75 5.3l-25.15-1.8-17.35-.85q-9.7-.35-8.35-9 1.35-8.5 12.55-20.9l59.8-4.7q.2 4.2 4.25 10.75"/><path fill="#2880ae" d="M136.5 285.3q.2 4.2 4.25 10.75 3.2 5.25 1.5 9.2-1.55 3.7-5.45 8.25-4.35 5.1-8.7 7.7-1.5-11.15-19.55-19.5-14.15-6.5-33.7-9.6l1.85-2.1 59.8-4.7"/><path fill="#eeeeef" d="M80.9 315.2q-.9 2.05-7.35 5.8-5.25 3-10.5 5.2-1.1-4.4-.9-9.35.2-6.75 3-10.55 2.25-3.1 5.6-3.35 3-.25 5.9 1.65 2.8 1.9 4.05 4.75 1.4 3.1.2 5.85m41.45-5.7q2.55 1.15 4.35 3.45 1.6 2.1 1.6 3.6 0 2.8-3.4 8.05-3.45 5.35-6.95 7.65-4.55-3.8-7.6-10.3-2.95-6.25-1.4-8.05 6.5-7.55 13.4-4.4"/><path fill="#c8c9ca" d="M80.9 315.2q-.9 1.95-6.8 5.5-4.85 2.8-10.15 5.15 8.65-7.05 14.85-19.35 1.75 1.9 2.35 4.15.65 2.4-.25 4.55m47.4 1.35q0 2.5-2.8 7.1-2.85 4.65-6.1 7.5 1.75-4.45 2.2-10.65.3-3.55.25-11.2 2.7 1.05 4.65 3.45 1.8 2.2 1.8 3.8"/><path fill="#3396cd" d="M104.75 172.45l39.6 87.65q1.45 14-4.7 21.85-8.2 10.4-31.5 14.35-21.9 3.75-36.85-12.15-8.5-9.1-14.05-24.05-2.7-7.35-2.35-12 .35-4.4 3.95-11.6-6.3-19.25 16.65-41.85 11.3-11.1 29.25-22.2"/><path fill="#2880ae" d="M101.05 174.75l4.3-2.55q10.55 2.3 25.85 45.3 7.65 21.55 13.15 42.6 1.35 12.9-3.7 20.4-6.55 9.9-25.45 14.4 1-3.05-1.5-8.6-2.35-5.25-7.05-11-10.95-13.4-21.45-16 5.65.3 10.9-8.85 4.95-8.65 7.85-22.4 2.9-14.15 2.4-27.95-.6-15.15-5.3-25.35"/><path fill="#3396cd" d="M112.35 180.9l50.85-1.15q-3.4 4.35-5.3 14.35-2.2 11.65.65 19.85 1.5 4.3-5.55 8-6.5 3.4-16.55 4.6-10.4 1.3-17.85-.65-8.5-2.25-9.4-7.95-1.65-10.15.6-24.6l2.55-12.45"/><path fill="#2880ae" d="M111.55 185.9l.8-5 50.85-1.15q-3.4 4.35-5.3 14.35-2.2 11.65.65 19.85 1.05 3.05-2.4 5.9-3.15 2.65-9.35 4.55 7.55-17.05-.7-27-8.8-10.65-34.55-11.5"/><path fill="#3396cd" d="M145.9 205.45q10.8 3.4 15.8 10.6 1.4 2.05 4 8.05 1.7 4.05 5.95 7.7l4.3 3.85q1.5 1.7 1.6 3.45.15 3.05-5.9 13.65-5.35 9.35-16.65 11.65l-8.9.85-7 .1q-4.5.35-14.5-11.9-10.65-14.05-13.8-17.5-4.55-4.9-3.6-16.3.95-11.15 5.15-12.55 18.75-6.25 33.55-1.65"/><path fill="#2880ae" d="M145.45 205.35q5.85 1.75 10.4 5 3.8 2.7 5.85 5.7 1.4 2.05 4 8.05 1.7 4.05 5.95 7.7l4.3 3.85q1.5 1.7 1.6 3.45.15 3.05-5.9 13.65-3.7 6.45-10.15 9.5-4.9 2.3-11.85 2.8 16.3-8.85 13.45-25.65-2.3-13.6-17.65-34.05"/><path fill="#3396cd" d="M164.85 148.9q5.65 4.6 6.65 12.85.85 6.8-1.4 11.25-3.75 7.5-19.35 9.6l-26.85.9q-12.3 0-16-2.75-4.15-3.1-3.4-13 .7-9.1 14.9-19.85 11.75-8.95 20.75-11.6 5.75-1.7 12.55 2.75l12.15 9.85"/><path fill="#2880ae" d="M164.85 148.9q5.65 4.6 6.65 12.85.85 6.8-1.4 11.25-3.75 7.5-19.35 9.6l-26.85.9 14.55-4.25q8-2.7 12.95-5.95 12.8-8.55 11.6-25.95l1.85 1.55"/><path fill="#fff" d="M201.75 95.25q1.8 0 3.05 1.45 1.25 1.4 1.25 3.45 0 2.05-1.25 3.45-1.25 1.4-3.05 1.4-1.75 0-3.05-1.4-1.25-1.45-1.25-3.45t1.25-3.45q1.3-1.45 3.05-1.45"/><path fill="#0d131a" d="M174.45 295.6q-.75-2.45.25-5.3l1.95-3.9h2.75q-1 1.85-1.55 3.9-.85 2.95-.25 4.9.9 2.85 4.35 4.55 7.9 3.95 19.4 7.7 14 4.6 19.1 3.65l1.15-.25 3.4 2.1-3.65.95q-5.95 1.05-21.6-4.3-11.55-3.95-18.95-7.6-2.3-1.15-3.95-2.75-1.8-1.8-2.4-3.65m84.7 7.95q-2.05 1.15-6.65 1.65-3 .2-7.55 1.45l-.9-1.05-1-1.05q5.45-1.55 9.2-1.9l1.55-.25q1.1 1 5.35 1.15M247.1 279l5.55 2.3q5.9 2.75 9.3 5.65 1.95 1.65 2.4 4.2-.9-.6-2.65-.3-.45-1.15-1.35-2-3.25-2.75-9.1-5.95-4.85-2.65-5.3-2.65l1.15-1.25"/><path fill="#0d131a" d="M251.45 272q6.9-8.65 8.1-14.5l2.15.5q-1.4 6.95-8.1 15.75-9.65 12.65-22.7 14.1-9.3 1.05-16.25.15l-10.1-2.2-7.95-1.75q-5.35-.95-9.9-.95l2.1-1.4q9.5 0 16.35 1.65 6.2 1.5 10.15 1.85l15.95-.45q10.95-1.2 20.2-12.75m-7.4-21.15l.15 1.05.1.9-8.65-.4q-3.4-.6-5.8-1.65l.75-1.7q1.75.75 4.9 1.3l8.55.5m17.75 40.7q-1.8-.15-5.05 4.4-3.15 4.45-2.4 5.4.7.85 10.1 2l10.1.6q.7-.65-5.05-6.4-5.85-5.8-7.7-6m-6.05 2.05q3.55-4.25 7-3.85 2.8.3 7.8 5 4.75 4.5 7.15 8.75.8 1.35.55 1.95-.2.5-1.4.6-6.45.55-13.3-.2-6.65-.75-10.3-2.3-1.2-.25-1.1-1.8.25-4.15 3.6-8.15m-21.8 6q-2.15-.25-7.3 4.65-5.15 4.85-4.2 6.25.8 1.25 13.55 2.8l13.15.95q.6-.7-5.65-7.2-6.45-6.8-9.55-7.45m-14.6 10.9q2.2-5.2 6.95-9.3 4.7-4 7.85-3.6 3.2.35 8.8 5.35 6.15 5.5 9.2 11.8.6 1.25.35 1.65-.35.45-1.95.4l-16.85-1.4q-9.6-1.3-13.8-3.7-1-.1-.55-1.2M79.95 154.75q-1.95 2.4-1.95 4.9 0 6.7-.4 16.2-.5 12.6-1.4 18.2l-2.8 2.05q.8-5.05 1.25-18.2l.5-16.35q.25-4.7 2.85-8.05 2.2-2.85 5.25-3.85 3.15-1.05 5.7 1.5 2.05 2.1 8.05 6.05 6.4 4.2 9.6 5.3l-1.3 2.4q-4.95-1.25-11.1-5.85-5.15-3.85-7.1-6.6-1-1.4-3.15-.65-2.2.7-4 2.95M122.3 108q2.2-.1 3.8.95 2.8 1.9 10.95 6 8.1 4.05 13.2 6.1l2.55 4.95q-4.65-1.85-15.15-7.65-9.25-5.1-12.85-7.5-1-.7-2.55-.55-1.6.1-3.15 1.05-1.7.95-2.8 2.55-1.25 1.85-1.1 3.95l1.1 15.05q.5 11.6-.6 18.6l-3.3 1.95q1.15-7.05 1.1-19.45-.05-8.4-.55-15.95-.2-2.85 1.4-5.3 1.35-2.05 3.6-3.4 2.2-1.25 4.35-1.35"/><path fill="#0d131a" d="M152.8 128.05q-3 4.75-6.15 8.45l-3.45-.25q6.35-6.75 8.45-10.05l1.15 1.85M76 289.45l1.6 1.4q-6.25 6.9-9.5 13.05-3.5 1-5.3 5.9-.65-2.85 3.7-9.2 3.85-5.6 9.5-11.15m-1 31.85q1.85-1.05 3.05-2.4l31.3 1.9q1.7 1.1 2.2 2.7L75 321.3m64.2-25.4q-1.65-2.6-2.35-4.25-1.05-2.55-1.2-5.7l1.7-.75q.15 2.5 1.45 4.8l2.55 3.8q2.4 3.9 2.9 5.3 1.15 3.25-.15 6.25-2.45 5.85-6.45 10.15-4.9 5.2-11.4 7.25 1.15-1.65 1.6-3.35 8.65-3.85 13.25-14.65 1-2.3.35-4.5-.45-1.45-2.25-4.35"/><path fill="#0d131a" d="M64.35 305.7q2.2-3 5.5-3.65 3.3-.65 6.65 1.3 3.45 1.95 5.25 5.45 2.05 3.8.6 7.05-1.1 2.55-9 7.4-6.8 4.15-9.5 5l-2.2.2q-.4-.25-.75-1.6-1.3-5.75-.55-11.05.85-5.8 4-10.1M79 308.3q-1.4-2-3.5-3.2-1.9-1.15-4-1.2-3.3-.1-5.55 2.95-2.85 4-2.85 11.25 0 2.05.3 4.35.3 2.5.65 2.7.45.25 7.75-4.25 7.5-4.6 8.15-6.1.5-1.05.5-2.25 0-2.15-1.45-4.25m44.2 16.4q4.1-6 4.1-8.15 0-1.3-1.65-3.25-1.85-2.2-4.35-3.15-5.9-2.15-11.6 4.4-.25.5-.25 1.2v.55q.2 2.6 3.95 8.45 3.6 5.7 4.7 5.75 1.1.1 5.1-5.8m-1.2-16.4q2.95 1.1 5.4 3.9 2.3 2.7 2.3 4.7 0 2.9-3.85 8.9-3.55 5.55-6.25 7.75-1.15.9-2 .85-.7-.05-1.65-.9-2.6-2.45-5.6-7.9-3.1-5.65-3.35-8.85-.25-2.1.7-3.2 3.85-4.4 8.3-5.5l6 .25m19.15-13.3l-2.1-1.75q27.6-.35 54.2-14.9 26.65-14.6 40.8-37.25 4.9-7.85 8.75-16.9l1.75-.25 1.65-.4q-2.8 7-5.1 11.6-2.85 5.75-6.3 10.7-15.6 22.55-40.55 35.7-25 13.1-53.1 13.45M261.5 106.95q.65 14.95.65 24.05.05 18.9-1.65 35.7-.6-2.65-2.7-3.65 2.15-19.5 1.9-39.9l-.7-16.9 2.5.7"/><path fill="#0d131a" d="M157.8 265.6l.4-1.6q28.8 7.5 51.7-2.4 16.3-7.05 23.15-18.3l1.4.85q-2.75 4.55-8.25 9.2-6.8 5.85-15.5 9.65-23.5 10.3-52.9 2.6m-19.6 18.3l.8-1.4q8.5 4.9 21.85 5.15 10.1.15 19.95-2.15l-3.7 2.15q-9.65 2.3-18.45 1.9-11.55-.5-20.45-5.65M2.25 184.5q.85-.85 2-.9 1.2-.1 2 .65 9.8 8.5 16.85 13.65 8.3 6.05 14.55 8.85l-1.95 1.05q-6.8-3-13.8-7.8-6.95-4.75-16.1-12.7-.45-.4-1.15 0-1.25.75-1.7 4.55-.55 4.45.4 10.8 3.85 25.6 20.5 45.3 16.65 19.75 44.6 31.6l2.7 5.05Q39.7 271.45 22.3 251.3 4.95 231.25.7 203.4q-1.15-7.55-.4-13.15.6-4.4 1.95-5.75"/><path fill="#0d131a" d="M20.05 222.95q3.05-5.8 8.1-9.4 4.2-2.95 9.3-4.1l1.5.7q-4.15.35-9.15 4.05-5.35 3.95-8.3 9.5-2.45 4.7-2.7 10.45-.3 7.4 3.4 13.95l-1.3-.8q-3.95-7-3.65-14.05.2-5.3 2.8-10.3"/><path fill="#0d131a" d="M54.35 179.95q2.5 1.45 3.7 4.25L67 204.8l-2.25 3.2q-2.3-5.25-8.85-23.05-.5-1.35-2.45-2.55-1.9-1.1-3.8-1.2-.7-.05-1.25 1.4L48 184q-1.4 7.3-2.95 11.65-2.9 8.05-7.65 12.3.4 1.75 6.95 4.6 7.5 3.3 16.3 4.5l-.4 1.85q-5.3.2-14.15-3.3-8.6-3.4-10.45-6.1-.8-1.1-.55-2.2l.1-.35.25-.25q4.6-3.85 7.4-11.7 1.55-4.25 2.9-11.4.05-1 .55-2.1 1-2.2 3.2-2.55 2.45-.4 4.85 1m221.55 9.8q-.05-5.05.7-9.8l2.5-.9q-.55 3.25-.1 10.95.6 10.25 3.1 16.15l-3.45-1.3q-2.65-6.2-2.75-15.1"/><path fill="#0d131a" d="M260.1 145.2l.2-2.55q9.15.75 15.45 5.55 5.05 3.85 7.25 9.2 2.45 6 1.5 13.05-.75 5.75-2.6 7.9-1.65 1.9-7.55 2.6l-11.1.35-.55-2.35 12.7-.7q3.8-.6 4.6-1.55 1.15-1.4 1.45-6.7.35-6.6-1.9-12-4.8-11.6-19.45-12.8m-14.65 104.35q-1.7.3-1.7 2.1-2.45-3.15-3.55-6.25-1.4-3.85-1.05-8.35l.75-1.85.7-1.9q.5 5.8 1.3 9.05 1.15 4.4 3.55 7.2m14.9 6.7l1.25.05q0 1.75.8 2.6l-2.35-.2-6.55-1.25q1.8-1.95 1.65-2.25l5.2 1.05m26.3-42.7q1.3 8-1.2 19.35-2.9 13.4-9.55 20.25-2.75 2.75-5.95 4.25 2.1-2.35 2.7-4.65l1.45-1.35q6.15-6.3 8.9-19.15 2.35-10.9 1.15-18.3-.8-5.05-5.7-7.55-4.2-2.15-10.1-2.5-5.05-.25-7.15.8l.45-2.4q2.65-1.3 7.7-1 5.8.3 10.5 2.75 5.7 2.9 6.8 9.5"/><path fill="#0d131a" d="M267.9 244.65q-.3-1.5-2.25-1.9l-4.1.3q-2.1.65-2.75 1.7-.45.65-.2 2 .25 1.4 1.05 2.8.9 1.6 2.25 2.8 1.45 1.2 2.35 1.1 1.15-.15 2.6-3.5 1.45-3.4 1.05-5.3m-10.8-.55q1-1.55 3.75-2.5t5.1-.5q3.3.65 3.8 3.2.45 2.25-.65 5.35-1.05 2.85-2.6 4.45-1.2 1.3-1.95 1.45-1.1.25-2.7-1.15-4.7-4.1-5.25-8.5-.1-.9.5-1.8m-11.65 6.4q-.55.1-.65 2.8l-.05 4.25q0 .8.35 1h1.2l4.1-1.2q3.3-1.15 3.6-1.75.3-.6-3.8-2.95-4.05-2.3-4.75-2.15m10.25 4.3q.45.65.1 1.5-.65 1.4-5.35 3.05-3.55 1.25-5.55 1.55l-1.2-.1q-.25-.25-.35-1.05-.65-9.15.75-10.7l1.1-.45q2.2 0 5.85 2.2 3.5 2.15 4.65 4"/><path fill="#0d131a" d="M273.4 250.95q.85.15 1.15.95.35 1.1-2.9 5.5-3.25 4.45-4.85 4.85-.95.2-3.65-2.2-2.75-2.4-2.7-3.4 0-1.5 2.3-2.85 1 1.15 2.2 1.15l-2.6 1.5 1.85 2.05q1.75 1.55 2.05 1.55.3-.05 3.2-3.3l3.15-3.85-2.05.2-4.5 1.4 1.2-2.55q4.1-1.25 6.15-1m-63.95-209.4l-2.3 2.2q-2.3-8.5-10.6-17.2-8.2-8.65-17.5-12.4-.9-.4-.9-.9 0-.6 1.05-2.85l1.45-4q.3-1.75-.45-2.5-1.8-1.8-3.1-1.8-2 .05-5.65 3.4-15.8 14.5-20.6 31.75-4.7 16.95 1.9 34.25l-2.75-.35q-7.35-17.35-2.3-34.4 5-16.8 21.8-32.2 4.65-4.2 7.7-4.5 2.45-.25 4.8 2.05 1.25 1.3 1.25 3.15 0 1.85-2.5 7.35 11.8 4.7 19.2 12.4 7 7.25 9.5 16.55M103.7 171.6l.4-.25 1.3 2.15-.4.25Q87.8 184.3 75.6 196.7q-17.05 17.25-16.45 31.35.15 3.6 1.2 6.4 1.2 3.2 4.15 7.2 3.95 5.45 11.35 10.85 9 6.65 15.55 6.65 7.5 0 17.2-4.5 8.9-4.15 10.45-7.3l1.7.85q-1.95 3.85-10.95 8.55-9.85 5.05-17.8 5.05-7.55 0-17.85-7.3-10-7-15.15-15.4-2.8 5.95-2.9 10.05-.05 3.95 2.35 10.55 6.4 17.35 16.75 26.5 13.55 12.1 32.75 8.85 21.4-3.6 29.65-12.55 6.15-6.65 5.8-17.9h2.5q.3 12.45-6.65 19.95-8.9 9.65-30.9 13.35-17.9 3.05-31.7-6.35-14.25-9.65-21-30.5-2.4-7.35-2.4-12.1 0-3.2 1.15-6.65 1.15-3.65 3.1-5.95-2.1-5.3-2.1-8.35 0-16.1 18.45-33.95 11.7-11.3 29.85-22.45"/><path fill="#0d131a" d="M162.2 70.5q2.85.05 2.65.9-.15.85-2.3 1.15-1.6.2-10.85.2h-8.9q-1.45 0-2.05 1-.4.75.45 2.55l4.7 9 4.35 8.5q1.3 2.9.4 4.3-.9 1.45-2.9-2.85l-4.8-9.4-4.05-7.9q-1.7-3.85-.6-5.9 1.2-2.2 4.1-2.2l19.8.65m42.6 16.7q7.05-7.35 16.4-10.05 3.1-.85 2.7.25l-1 1.25 4.05 4.95q3.9 6.15 4.2 13.25.65-.6 1.3 0 .65.55-1 1.9-5.25 4.45-16.2 6.55-9.4 1.8-18.15 1.15-.45.4-.85.4-.85.05-.55-1.65 1.45-10.1 9.1-18m16.5-8.05q-7.15 2.4-13.85 8.95-7.85 7.7-9.9 16.8 9.5.1 16.35-1.2 9.2-1.75 16-6.2-1.2-7.25-4.45-12.9-2-3.45-4.15-5.45M188.05 93.9q1.35-5.35 2.7-6.35 1.4-1.05 2.05-.75.6.3-.4 1.65-1.05 1.55-2.35 5.3-1.4 4.1-1.7 7.1-.35 3.15-.7 3.25-.4.1-.7-2.45-.25-2.55 1.1-7.75m-25.3 29.55q.95-1.55 2.05-2.1l1.65.05q.5.65-.55 1.45-.7.6-2 2.7l-1.65 2.2-.7-.05.2-1.6q.2-1.3 1-2.65"/><path fill="#0d131a" d="M238.85 116.5q-5.15 5.05-15 6.95-6.85 1.35-17.45 1.3-6.25-.1-9.45.2-9.95.9-15.65 2.65-6.25 1.95-9.7 5.55 3.55 3.25 14.95 5.95 13.5 3.2 25.4 1.65 10.05-1.3 16.65-6.1 8.55-6.35 10.25-18.15m3.35-5.25q.3.3-.05 1.15l-1.15 1.85q-1.35 14.1-9.7 21.5-6.65 5.95-17.45 7.35-25.45 3.3-43.6-8.25-2.95 3.5-5.8 3-2.55-.5-6.9-4.35-5.55-4.95-8.25-11.4-5.8-13.75-1.85-30.5l.65 2.35q.2 1.1.95 2-.45 3.55-.45 6.95 0 10.15 3.25 18.4 2.15 5.4 6.95 9.65 4.4 3.9 6.6 3.45.9-.15 3.85-2.85 4.25-4.05 10.6-6.1 6.2-2.05 16.9-3 3.3-.3 9.7-.2 11.85.1 19.85-1.9 7.95-1.95 11.5-5.8 3.75-4.05 4.4-3.3m-15.85-87.3q1.65-1.85 4.25-2.55 2.55-.7 4.6.05 2.5.95 3.8 3.2 1.05 1.9 1.05 4.2l-.15 11.3q-.05 7.75.3 11.55l-2.1 2.35q-.35-3.5-.95-15.1l-.65-11.65q-.3-2.75-2.2-3.5-1.2-.45-3.05.35-2.45 1.05-4.95 3.95-2.95 3.4-10.25 9.6-7.6 6.4-11.25 8.4-2.45 1.3-7.5 2.9-25.9 8-37.3 20.95l-1.6 1.95h-3.7l1.75-2.15q7.2-8.15 20.15-14.95 9.45-4.95 19.85-8.2 5.05-1.6 7.15-2.7 3.35-1.85 11.75-9.35 7.8-7 11-10.6"/><path fill="#0d131a" d="M313.4 19.5q7.5.65 8.65 3.1.75 1.65.4 3.25-.4 1.8-2.35 4.15-3.6 4.2-9.1 7.35-1.5.95-1.9 1.3-.65.55-.85 1.45.1 12.85-1.85 25.1-3.8 24-16.75 33.2-12.75 9.05-22.8 10.3-6.5.85-12.75-1.8-3.4-1.4-2.6-2.3l3.05.1q4 1.65 9.35 1.05 9.45-1.05 22-8.85 12.45-7.75 17.35-33.1 2.45-12.75 2.55-24.4.45-1.5 1.55-2.55.65-.65 2.35-1.65l3.05-2q1.95-1.5 3.8-3.7 3.1-3.65 2.4-5.35-.7-1.5-4.6-1.5-9.5-.25-20.55.05-22.1.5-29.95 3.05-7.55 2.4-15.2 13.25-4.15 5.95-9.65 16.95-1.55 3.1-2.7 4.65-.8 1.1-1.7 1.15-.9.05-.35-1l2.5-5.9q5.9-11.75 10.2-17.85 7.9-11 16.15-13.65 8.3-2.7 28.55-3.6 15.55-.7 21.75-.25"/><path fill="#0d131a" d="M276.05 33.85q-8.65 0-20.25 15.1-4.45 5.85-7.9 12.15-3.2 5.95-3.85 9.2 5.5 2.8 8.45 8.45 3.85 7.35 3 18.9 11.6 1.9 21.45-7.05 9.85-9.05 13.95-25.4 4.55-18.05-1.65-25.9-4.25-5.45-13.2-5.45m9.2-.85q4 1.4 6.35 4.45 3.3 4.15 3.6 11.8.3 7.3-2.15 17Q288.7 83.7 278.3 92.6q-10.4 8.9-23.95 6.85-2.8-.45-2.65-1.25.15-.8 2-.65.45-10.6-4-18.55-2.95-5.25-6-6.95-1.05 1.2-1.5.65-.4-.45-.15-2.1.5-3.2 3.25-9.05 3.15-6.65 7.4-12.6Q264.15 32.9 276.05 32q5.2-.4 9.2 1"/><path fill="#0d131a" d="M257.05 46.55q7.55-2.75 13.05-.4 4.6 2 7.25 7.25 2 3.9 2.8 10.9 1.05 9.45-1.7 17.35-2.05 5.9-5.8 10-3.85 4.15-10.05 7.05l-2.65-.3q5.95-2.8 10.35-7.3 4.5-4.6 6.4-10.1 2.6-7.45 1.35-16.4-.85-6.35-2.85-10.25-2.6-5.25-7.9-6.9-5.2-1.65-11.4.65l1.15-1.55M242.65 178q-10 7.25-13.8 11.4-6.4 6.95-6.4 14.55 0 10.5 5.5 16.4 3.9 4.25 8.35 4.7 1.8.2 5.15-1.05 4.15-1.55 7.85-4.45 10.45-8.25 12.2-23.05.4-3.25.4-7.35 0-12.4-3.9-24.9-2.2 3.4-6.6 7.1l-8.75 6.65m-16.45 10.95q4.6-5.35 14.6-12.5l10.45-8.1q5.6-4.95 7.45-8.6l.4 1.9 3.35 11.2q3.05 13.3 1.75 24.5-1.75 15-12.95 23.6-4.15 3.2-8.75 4.85-3.95 1.4-6.4 1.15-5.55-.65-10-4.55-6.75-5.95-6.75-17.25 0-8.3 6.85-16.2m-55.4-20.3l1.65-.95q4.4 7.65 10.25 13.35 2.8 2.8 9.3 7.8 5.05 3.95 7.1 6.45 3.1 3.9 3.75 8.85.7 5.7-2.1 11.7-2.7 5.85-7.5 9.4-4.55 3.3-10.5 3.9-8.4.85-17.15-4.3l-.9-1.8q8 3.65 15.05 3.55 7.1-.15 12.35-4 4.3-3.15 6.5-8.2 2.2-5.05 1.5-10.3-.6-4.5-3.2-7.7-1.7-2.1-6.6-5.9-6-4.7-9.25-8.05-5.65-5.85-10.25-13.8m6.9 70.5l.7-1.55 2.7 2.8q2.4 3.05 1.8 4.75-.35 1.1-3.7 2.5l-5.45 1.95.1-1.6q2.4-.85 4.4-2.05 1.7-1.05 2-1.65.2-.7-.45-2.2-.75-1.6-2.1-2.95"/><path fill="#0d131a" d="M172.55 250l1.5-1.85 1.4 5.15q1.35 5.3 1.35 6.25l-.25 1.5q-.25.35-1.4.65l-4.7.65q-4.05.35-7.55 0l.8-1.75 6.3-.15q3.3-.4 3.75-1.05.35-.45.15-1.5l-1.35-7.9m-26.25 15.9l1.85-1.3q2.35 1 4.6 1.6l3.3.3q1.15-.5 1.75-3.3l2.15-.5-.3 1.7q-.4 1.9-.95 3-.55 1.3-1.1 1.55h-1.65q-3.5-.4-9.65-3.05m-32.95-83.55q-.75 2.05-1.95 9.1-1.8 10.35-1.6 18.85-2 3.3-2.65 6.45-2.3-9.5.5-23.35l3.25-11.75 2.45.7m48.85-3.4l2.8.05q-3.15 4.1-5.35 14.25-2.6 11.9-.1 19.75-1.7-1.55-3.15-2.15-1.65-8.2.6-18.6 2-9.15 5.2-13.3"/><path fill="#0d131a" d="M106.9 213.75q1.75-6.7 5.05-7.85 18.9-6.3 34.15-1.6 11.45 3.5 16.6 11 1.95 2.8 3.55 6.85 1.05 2.65 1.95 4.05 1.4 2.2 4.25 4.6l.85.75q5.6 4.75 5.55 8.05-.1 3.25-6.1 13.8-4.85 8.55-14.5 11.45-5.45 1.65-15.1 1.65H138q-6.7 0-21.5-21.35-1.55-2.2-3.95-4.7l-3.4-3.4q-3.15-3.4-3.55-10.65-.35-6.25 1.3-12.65m53.75 3q-4.85-6.95-15.6-10.15-14.3-4.3-32.3 1.7-.85.3-1.7 1.7-1 1.65-1.7 4.4-1.4 5.45-.85 11.4.55 6.45 3.2 9.3 1.7 1.85 6.8 8.55 7.4 9.6 10.9 13.45 6.6 7.25 9.65 7l4.1-.1q9.3-.05 14.3-1.55 8.7-2.6 13.1-10.3 5.6-9.8 5.7-12.3.1-2.35-4.6-6.4l-.8-.7q-3.15-2.7-4.8-5.3-1-1.55-2.15-4.4-1.55-3.8-3.25-6.3m8.3-44.3q2.1-4.2 1.25-10.7-1-7.7-6.15-11.9l-4.15-3.5q-6.45-5.6-9.65-7.35-5.15-2.85-9.7-1.5-9.05 2.65-20.65 11.6-13.5 10.4-14.15 18.75-.65 8.15 2 11.1 1.8 1.95 6 2.7l10.15.6h3.65l24.6-1.1q13.5-2.1 16.8-8.7m3.75-11.05q.95 7.3-1.5 12.15-3.75 7.5-17.95 9.9l-25.7 1.35-3.65-.05-11.3-.55q-4.75-.8-6.95-3.15-2-2.15-3-5.3-1.2-3.7-.6-7.65 1.55-9.65 16.4-20.95 12.35-9.45 21.35-12.05 5.4-1.6 11.25 1.5 3.55 1.85 10.5 7.85l4.1 3.45q5.9 4.85 7.05 13.5"/></svg>