<svg xmlns="http://www.w3.org/2000/svg" width="143" height="181" viewBox="-0.5 -0.25 142.65 181.25"><path fill="#cd91be" d="M63.95 155.05l21.25-4.45-3.15 12.1q-1.9 7.35-1.5 9.55.4 2.65-4.2 3.35-4.45.7-7.25-.85l-5.15-19.7"/><path fill="#b17fa5" d="M75.25 165.6q-3.15 4.55-4.2 9.85-1.4-.35-1.95-.7l-5.15-19.7 21.25-4.45-1.95 7.7q-4.7 2.55-8 7.3"/><path fill="#eeeeef" d="M78 173.35l1.6-1 1.4-.05 1.85 1.6q1.1 1.05.55 1.15l-2.35.35-1.9.1-1.15-2.15"/><path fill="#c8c9ca" d="M79.65 172.3q-.55.55.35 1.55l1.85 1.45-2.7.2-1.15-2.15 1.65-1.05"/><path fill="#eeeeef" d="M69.8 174.6q.8-.8 3.1-1.75 2.45-.95 3.15-.55 5.15 3.2 3.05 3.85l-4.6.35-4.1-.6-.6-1.3"/><path fill="#c8c9ca" d="M69.8 174.6l2.3-1.4q-.45 1.7 6.65 3.05l-4.5.3-3.85-.65-.6-1.3"/><path fill="#cd91be" d="M95.55 1.55l.9 4.2.95 4.5q5.55 4.55 9.3 13.25 1.85 4.35 2.6 7.75l.8-2.7q.85-2.8 1.15-3.1 1.9-1.9 2.5.5 1 3.9 1.95 11 1.05 7.75.9 11.6 4.6-2.65 5.1-1.3.4 1.2-3.6 7.65 1.3-.9 3-1.75 2.8-1.45 2.75-.6-.05 2.1-4.65 12.1-4.55 10.05-7.55 14.65l-26.2-3.8-11-33.6q1.15-6 4.65-13.3 1.75-3.65 3.25-6.1l-.2-3.45q-.15-3.5.4-3.8.8-.55 4.9-.1l3.4-3.8.2-3.4q.35-3.7.95-5.25.4-.9 1.9-1.4 1.45-.45 1.65.25"/><path fill="#b17fa5" d="M95.2 75.4l-9.75.1-11-33.6q.4-2.2 2.15-5.4 2-3.6 4.35-5.8 6.45-6.05 11 2.2Q99 45.6 95.2 75.4"/><path fill="#cd91be" d="M43 101.45q4.7.3 10.2-2.2 5-2.35 8.8-6.15l2.55 8.8-49.35 30.3q.4-1.45-.3-4.3l-1.1-3.6-.5-1.75q-.1-.9.5-1.65.55-.7 3.15-.65l4.35.2q.1-1.5-1.15-4.6-1.25-3-1.15-3.55l4.6-.15 6.85 1.5q.25-2.15-.65-8.1-.8-5.15-.35-5.7l4.65.2 8.9 1.4"/><path fill="#cd91be" d="M21.7 58.2l2.95.05q5.4 5.8 13.4 17l6.9 10.1.8-7.45L71.6 93.85l20.05 41.55q-1 1.3-2.45 5.15-1.45 3.7-2.05 6.4-.75 3.3-6.85 8-4.4 3.45-10.6 6.9-4.05 2.25-13.8 3.35-9.2 1.05-11.65 2.9-.8 1.65-2.15 5.05l-1.45 3.15-7.35.25q-6.7-.65-11.1-2-3.85-1.2-6-3.55-1-1.1-2.6-4.2-6.3-8.45-5.6-17.1.6-7.85 3.4-12.6.15-4.55-4.1-12.75-2.8-5.35-4.8-7.95-1.2-1.65-1.35-2.35-.25-.85.7-1.4l4.25.55 3.8.95 1.65-.2 1.1-1.6q.45-.85-4.8-13.5l-6-14.15q-.65-1.55.85-2.6 1.45-.95 2.6-.4 1.6.85 8.6 5.4 7.9 5.2 10.25 7.3.3-1.9-1.5-16.4L20.5 61.8q-.35-2.15 1.2-3.6"/><path fill="#b17fa5" d="M11.25 137.45q2.15-3.2 4.35-5.9 2.75-3.4 3.3-3.05.4.3-2.4 5.2-2.85 6.55-2.35 13.95.75 10.45 6.35 17 4.95 5.75 13.9 8.7.8.25.8 1.6-.05 1.4.75 1.75l-7.05-.75q-4.05-.6-6.7-1.4-3.85-1.15-5.95-3.5l-2.65-4.15q-2.8-3.7-4.3-7.9-1.7-4.8-1.3-9.6.6-7.55 3.25-11.95M24.2 97.9q-.15.6-9.6-6.8-10.4-8.25-11.9-9 1.4-.9 2.6-.4 1.6.85 8.6 5.4 7.9 5.2 10.25 7.3.3 2.65.05 3.5m-13.55 17.75q-1.35.4-4.65-.8-3.25-1.15-4.1-2.2 1-.5 4.15.35l3.85 1.15q1.65.3 2.7-1.7.35.85-.15 1.75-.5 1.05-1.8 1.45m6.75 6.85l-2.55-.95q-1.3-.6-.6-.95l7.25-.2q.45 0 .45 1.65t-.35 1.85q-.25.2-1.65-.35l-2.55-1.05m13.1-5.9q-1.6-.8-7.75-2.85-4-1.35-2.85-1.8 1.25-.5 5.45.5l5.3 1.25.15 1.2-.3 1.7m22.25-15.8q-4.8 3.85-7.2 4.2-2.9.4-9.65-1.95-6.5-2.35-6.4-3.3l2.45-.15 5.95 1.2q9.75 1.6 15.15-1.4 4.8-2.65-.3 1.4"/><path fill="#b17fa5" d="M29.7 69.9q-7.65-12.9-9.15-9.4.3-1.8 1.55-2.65 1.4-.9 2.55.4 5.4 5.8 13.4 17l6.9 10.1.8-7.45L70 93.55q-1.6.95-4.2 1.9-5.2 2-10.25 2.3-4.55-1.2-6.9-2.6l-5.5-4.4Q40 87.4 29.7 69.9m49.15 55.45l-1.1-2.85 13.9 12.9q-1.35 1.8-3.15 7.05-2.7-6.05-7.2-12.9-1.7-2.55-2.45-4.2m-30.6 34.55q6.45-.6 13.7-2.6 9.2-2.55 11.35-5.6 2.7-1.05 7.3-1.7 4.55-.6 5-.05-1.55 3.1-6.75 6.55-2.45 1.65-9.15 5.35-4 2.25-13.4 3.3-9.1 1.05-11.6 2.65 2.3-5.7 3.55-7.9"/><path fill="#c8c9ca" d="M40.5 172.05q.7-.5 2-.25 1.2.25 2.1.95l2.25 1.75q1.25 1.1.25 1.4l-2.2.4-1 .05-3.4-4.3"/><path fill="#eeeeef" d="M33.5 173.65q.9-.65 2.65-1.3 1.85-.75 2.8-.75 1 0 3.45 1.6 2.45 1.55 2.65 2.25.15.7-.85 1.25-1.05.6-3 .8l-5.55-.2-4.2-.7q0-1.6 2.05-2.95"/><path fill="#c8c9ca" d="M35.55 172.6q-1.4 1.35.9 2.8 1.3.8 4.2 2.1l-5.35-.25-3.85-.65q0-1.6 2.05-2.95.8-.55 2.05-1.05"/><path fill="#cd91be" d="M119.7 88.55q3.85 7.2 6.25 16.9 2.3 9.35 1.25 12.5-.75 2.35-5.85 8.15-4.8 5.5-4.8 5.9l.6 3.95q.4 3.25-.6 3.95-6.9 4.95-8.15 4.55l-4.1-1-4.25-.35q-1.3.35-2.7-.35-1.55-.8-2.5-2.6-1.2-2.15-7.95-9.15-7.15-7.4-9.5-8.5-4.6-1.7-7.05-3.05-4.5-2.5-4.5-5.8 0-3.25 1.05-7.8l1-3.95q1.4-6.35 4.2-12.95Q77.75 75.8 85 74.6q7.3-1.15 15.15.75 3.95.95 6.45 2.1 2.65.55 5.1 2.1 4.85 3.05 8 9"/><path fill="#b17fa5" d="M77.4 122.5q-4.6-1.7-7.05-3.05-4.5-2.5-4.5-5.8 0-2.65.4-4.55l.8-2.75q.7 6.65 7.7 10.25 3.45 1.8 10.55 3.35 5.6 1.15 9.45 12.9.95 2.75 3.45 4.8 3 2.4 6.35 1.8 3.75-.65 7.65-.05 3.9.6 2.9 1.65-1.2 1.2-3.35 2.4-2.4 1.3-3.35 1l-4.1-1-4.25-.35q-1.3.35-2.7-.35-1.55-.8-2.5-2.6-1.2-2.15-7.95-9.15-7.15-7.4-9.5-8.5m25.4-9.4q-.2 3.3-2.05 7.55-1.9 4.3-1.95 1.2-.25-10.2-4.85-19.65-4.25-7.15-3.8-7.3 2.35-.65 7.6 6.75 5.35 7.45 5.05 11.45"/><path fill="#91308c" d="M115.35 107.25q2.2-.55 4.8-2.65.6 2.15-.2 6.65-.8 4.9-2.5 5.7-1.9 1-4.85-3.75-2.85-4.55-2.5-6.8l2.2.75 3.05.1"/><path fill="#b17fa5" d="M79.85 93.9l2.05 3.05q.7 1.55-2.5 1.9-2.95.35-4.3-.45-.95-.5.5-3.8 1.45-3.15 2-3.35.3-.1 2.25 2.65"/><path fill="#cd91be" d="M110.25 89.4l27.35-2.45q2.25 0 2.75.5.55.65-1.15 2.25-3.6 3.25-10.2 8.3-9.2 6.95-14.25 9.35-2.75 1.3-4.85-1.15-1.85-2.15-2.6-6.2-.7-3.9 0-7 .8-3.35 2.95-3.6"/><path fill="#b17fa5" d="M139.7 89.15l-.5.55q-3.75 3.4-10.25 8.4-9.25 7.05-14.3 9.45-2 .9-4.85-.95-2.65-1.75-2.55-2.95.1-1.05 6.8-4.1 7.25-3.25 25.65-10.4"/><path fill="#fff" d="M108.4 144.45q-1.5 1.65-5.45 3.5-3.9 1.8-4.95 1.45-.85-.3.5-3.3l1.55-3 2.35-.8q2.65-.85 4.2-1 1.65-.15 2.1 1.2.35 1.25-.3 1.95"/><path fill="#dbdcdc" d="M108.35 144.5q-3.6-1.05-6.15-.4-1.6.35-3.6 1.8l1.45-2.8 2.35-.8q2.65-.85 4.2-1 1.65-.15 2.1 1.2.35 1.25-.3 1.95l-.05.05"/><path fill="#91308c" d="M26.25 140l4.4.95q4.4 1.2 5.1 1.9.65.65.75 3.75.1 3.4-1.2 3.95-2.2.95-4.9 3-2.8 2.05-4.2 2.7-1.35.65-3.6-.65-1.95-1.15-2.45-2.1l-1.25-2q-.8-1.55-.1-2.55l3.1-4.35q2.65-3.5 4.35-4.6m18.8-24.05q1.3-2.6 7-3 4.9-.35 6.55.5.85.4.65 4.6l-.4 5.45q-.05 1.35-1.85 2.85-1.55 1.35-3.5 2.1-1.4.55-3.95-.95l-3.8-2.5q-1.4-.8-1.45-4.25-.1-3.15.75-4.8"/><path fill="#fff" d="M86.95 101.1q2.25-2.8 4.7-3.95 2.9 4.65 4.85 10.85 2.35 7.2 2.15 13.1-4.75-1.5-9.55-4.8-4.65-3.25-4.65-4.85-1.3-5.65 2.5-10.35"/><path fill="#ca0336" d="M95.65 104.25l1.45 5.1q-1.75 5.4-5.1 6.55-3.1 1.1-4.15-1.9-1.2-3.6.25-8.15 1.45-4.7 4.7-6.45l2.85 4.85"/><path fill="#cd91be" d="M88.05 85.85q-.1 2.5-6.75 5.7l-6.6 2.65q-6.25-.75-14.45-5-6.3-3.25-11.35-7.2-3.25-2.55-7.4-11.75L38 61.6l-4.9-3.95q-.75-.55.1-2.6l1.45-2.95q-.85-2.95-1.75-8.25l-.75-4.65-4.55-1.35q-.3 0-.45-.65-.15-.6 0-1.15.15-.4 1.55-.85l3.2-1.2q.25-2.6 1.45-5.35l1.1-2.25-7.05-6.2q-.65-.4-.1-1.2.65-.9 2.15-.75 2.7.25 11.9 4.15 9.65 4.1 11.7 6.3l-.55-6.15q-.15-2.8 1.35-1.9 3.3 1.9 12.4 11.9 9.3 10.15 11.6 14.6.65-1.35 2.25-2.5 1.55-1.2 1.7-.5.75 2.65.6 6.85 2.1-3.2 3.3-2.95.95.2 1 2.1l.75 17.05q.7 16.15.6 18.65"/><path fill="#b17fa5" d="M32.7 42.7q.7-1 1.65 1.4l1.95 6.05q3 9.7 5.7 9.8 9.65 13.9 18.2 21.1 11.25 9.4 24.45 11.15-2.1 2-6.25 2.2l-3.7-.2q-6.25-.75-14.45-5-6.3-3.25-11.35-7.2-3.25-2.55-7.4-11.75L38 61.6l-4.5-3.85q-.9-.7-.7-1.55.15-.75 1.85-4.1-1-3.35-1.95-9.4"/><path fill="#008a92" d="M81.25 71.65q2.8 10.2 2.25 16.25l-6.3 3.8q-9.25-1.3-15.6-5.6-1.2-.8-9.65-8.3Q47 73.4 41.3 55.65 35.5 37.55 37.8 32q.75-1.9 5.95-.8 4.7 1 8.3 3.25Q55 36.35 62.2 43.4l11.6 12.1q4.4 4.95 7.45 16.15"/><path fill="#00747a" d="M43.75 31.2q4.7 1 8.3 3.25Q55 36.35 62.2 43.4l11.6 12.1q3.7 4.05 6.5 12.85 2.5 7.8 3.1 14.95-1.85-6.45-8.5-15.7-6.15-8.55-14.15-16.4-8.1-7.9-14.35-11.45-6.85-3.85-8.95-.85-.55-4.7.35-6.9.75-1.9 5.95-.8"/><path fill="#cd91be" d="M86.7 91.5q1.95 2.5-2.65 4.75-4.65 2.2-5.5-.25L76 88.65q-1.85-5.3-2-6.45-.2-1.75.4-2.55.6-.7 1.55 0l4.8 4.95 5.95 6.9"/><path fill="#b17fa5" d="M80.5 97.35q-1.7 0-2.05-1.1Q74.25 84.1 74 82.2v-.5q2.85 5.15 7.9 15.25.3.45-1.4.4"/><path fill="#cd91be" d="M50.25 141.05q.55-2.35 4.95-2.8 3.9-.35 9.3.75 5.25 1.1 8.55 2.9 3.65 2 2.75 3.7-1.7 3.35-4.1 10.5-2.3 6.65-2.65 8.95-.25 1.65.3 6.8l.6 5.65q0 .7-4.45 1.25l-6.1.6q-2 .2-4.05-1.85-2.5-2.45-4.65-7.95-2.15-5.35-1.95-14.7.1-7.6 1.5-13.8"/><path fill="#b17fa5" d="M49.35 155.2q2 8.25 7 15.9 5.05 7.8 8.6 7.7l-5.55.55q-2 .2-4.05-1.85-2.5-2.45-4.65-7.95-1.5-3.75-1.7-6.65-.15-2.05.35-7.7"/><path fill="#eeeeef" d="M65.8 177.1L67 175q.65-1.05 1.35-.7 1.35.7 2.75 2.3 1.45 1.7.65 2l-2.55.35-2.45-.1-.95-1.75"/><path fill="#c8c9ca" d="M67.2 174.75q-.55 1.25.85 2.45.6.5 2.75 1.65-2.35.35-4.05 0l-.95-1.75q.95-1.8 1.4-2.35"/><path fill="#eeeeef" d="M57.5 177.95q.55-.85 2.2-1.9 1.7-1.05 2.55-1.05 1.1 0 3.65 1.95 2.7 2.05 1.8 2.8l-6.15.3q-5-.7-4.05-2.1"/><path fill="#c8c9ca" d="M60.35 175.7q-.8 1 1.6 2.5 1.65 1 4.25 1.95l-5.95-.35q-3.5-.7-2.75-1.85.85-1.2 2.85-2.25"/><path fill="#91308c" d="M64.6 138.4q1.15-.2 1.7 1.6.45 1.5.25 2.85-.25 1.45-3.15 2.95-.9.45-1.9-.35l-1.5-1.7q-.65-.8 1.15-2.95 1.8-2.1 3.45-2.4"/><path fill="#b17fa5" d="M112.1 101.9l4.7-1.2q.55 2-.05 6.05l-1.4.5-3.05-.1-2.2-.75q-.3 1.95 2.15 6.25-2.05-.95-3.8-4.05-1.75-3.1-1.2-4.95.15-.45 4.85-1.75"/><path fill="#7f257b" d="M114.55 112.6l-2.3.05q-2.45-4.3-2.15-6.25l2.2.75 3.05.1 1.4-.5q-.65 4.7-2.2 5.85"/><path fill="#0d131a" d="M83.6 158.55q-2.85 10.7-2.4 13.95-.45-.25-1.05-.35-.45-3.2 2.35-13.35l.95-3.75 1.2-3.95 1.4-1.05-2.45 8.5"/><path fill="#0d131a" d="M77.8 173l1.3-.9q1.4-.8 1.95-.3l1.3.95 1.65 1.8.15.7-.35.35-2.35.2-1.85-.05-.05-.6 3.55-.45-.8-1-1.55-1.1q-.55-.3-1.6.4l-.95.7-.4-.7"/><path fill="#0d131a" d="M72.7 172.4q2.55-1.1 3.45-.55 4.5 2.7 4.4 3.7-.1.5-.85.75l-5 .5-4.45-.55.3-.7q1.05.5 3.95.6l4.5-.35q.2-.1.35-.25 0-.8-3.5-2.9-.5-.3-2.8.6-2.2.85-2.95 1.6l-.55-.55q.9-.9 3.15-1.9M92.45 1q1-.7 2-.95 1.6-.3 2 1.05l.65 4.4.45 4.4q5.1 3.95 8.45 10.8 1.3 2.65 3.3 8.75.9-3.8 2.65-5.4 1.9-1.8 2.75 1.9.85 3.8 1.6 10.8.75 6.95.75 11.1 1.7-1.1 2.85-1.55 3.55-1.3 1.75 3.05l-2 4.05q3.4-2.3 4.6-1.85 1.2.45-.1 3.8-1.5 4.05-5.35 12-4.15 8.55-6.55 12.25l-1-.55q2.3-3.5 6.15-11.8 3.6-7.65 5.25-12.15.8-2.1.55-2.3-.2-.2-2 .9-3.15 1.9-6.75 4.9-1.2 1-.95.4l1.15-1.5 3.15-2.9 2.8-5.2q1.4-2.65-.7-1.85-1.3.55-4.25 2.15-1.35.75-1.5.5-.2-.25 1.9-1.65.2-2.35-.8-10.65-1.05-8.15-2-11.85-.3-1.05-.8-1-.6.1-1.25 1.7-1.1 2.6-1.6 5.25-.5 2.6-.8 2.25-.3-.4 0-2.9-1.55-5-3.3-9-3.35-7.55-7.75-11.1.1 1.5-.2 1.9-.35.4-.8-2.25L95.8 5l-.7-3.25q-.25-.3-1.45.25t-1.35.9q-.55 1.4-.75 5.05l-.3 4.75-.4 1.7q-.2.05-.4-1.85-.8.7-1.95 2.35 1.35.3 1.15.45l-1.1.15-2.8-.1-2.5.2q-.35.25-.4 3.45v4.6q-.05 1.5-.25 1.55l-.5-1.55q-1.1 1.4-3.2 6.25-2.85 6.55-4.05 12.55l-1-1.3Q75.1 34.2 78.3 28.1q1.65-3.15 3.5-5.7-.15-1.7-.15-4.2-.05-3.05.25-3.35l5.35-.25.9-1.2q.95-1.2 2.2-2.25l.2-3.95q.2-3.5.5-4.4.3-.95 1.4-1.8M21.8 56.95q1.8-.9 3.05.45 4.8 5.1 11.7 14.3 5.2 6.9 8.25 11.55l.4-5.4 1.35 1.65-.25 3.1q-.35 3.45-.9 5-.7 2.1-1 1.8-.3-.35.15-3.75l-7.3-10.5q-7.75-10.95-13-16.55-.8-.85-1.7-.4-.75.35-1.2 1.35-.55 1.05-.35 2.15.7 3.9 2.2 16.15 1.85 15.2 1.55 18.2-.3 3-.6 2.45l-.3-1.65-.1-2.1q-2.4-2.1-10.25-7.25l-8.45-5.3q-1.05-.55-2.1.45-1 .95-.65 1.85l1.4 3.25q10 23.4 9.2 25.05-.95 1.8-1.95 1.8l-2.55-.5-4.2-.9-2.4.2q-.45.6 1.1 2.7l4.85 7.5q4.6 8.35 3.85 13.05l-1.1 2.15q.75-4.85-2.55-11.85-2.35-4.9-6.35-10.25-2.1-2.8-1.45-4.1.65-1.4 4.2-.65l4.05 1 1.4.4.85.2.8-.6.55-1q.15-.3-3.75-10L2.55 88.2l-1.7-3.75q-.7-1.75.95-3.2 1.65-1.45 3.45-.5 1.3.6 8 5.1 7.25 4.85 10.35 7.3-.05-3.55-1.9-16.95l-2.15-14.75-.05-.7q0-1.2.7-2.25.65-1.1 1.6-1.55m22.7 110.3q1.55-1.1 5.15-1.75l.3 1.25q-3.95.75-5.95 2.1l.5-1.6m36.1-11.1l-9.05 5.45q-.9.55-1.95.9l.5-1.45q5.5-3.15 9.45-6.15 6.35-4.8 7.1-8.1.7-3.05 1.7-6.1 1.2-3.6 2.25-5.4l1.15 1.05q-1.9 2.4-2.75 6.15l-1.05 4.95q-1.65 4.5-7.35 8.7"/><path fill="#0d131a" d="M29.3 98.9l2.8-.2 5.1 1.05 6.95 1.1q4.5.3 8.55-1.95l7.65-5.3q2.05-1.4 2.3-1 .25.45-1.75 2-6 4.7-9.4 6.15-3.65 1.55-8.5 1.2l-8.15-1.2-4.75-.2q-.5.6.15 4.9l.75 4.7q.3 2.95 0 4.95-.35 2.05-.65 1.8-.25-.25-.25-1.1l.05-1.7q-3.65-1.05-7.8-1.65l-2.4.2q-.3.45.45 2.45l1.2 3.25q.75 2.3.6 4-.15 1.85-.45 1.7-.25-.1-.35-1.2l-.2-1.9-5-.15q-2 .1-2.35.6-.3.5.3 2.35l.9 3.2q.85 3.45.4 4.8l-.75.35q.35-1.2-.7-4.85l-1.15-3.35q-.9-2.7-.35-3.45t3.65-.8L21 120l-.8-2.4-.95-2.15q-1.2-2.95-.8-3.8.55-1 3.95-.5l4.4.95 3.3.9-.35-3.3-.65-4.1q-.55-3.3-.55-5 0-1.3.75-1.7m21.65 41.9q-.35 1.55-.8 6.35l-.9-1.85.55-3.55q.3-2.05.95-2.65.6-.6.2 1.7m6.5 37.6q.1.85.5 1.25-1.95-.6-3.9-2.7-2.55-2.75-4.45-7.6-.8-2-1.1-4.85-.2-1.9-.25-5.5l1.35-2.2q0 8.65 1.6 12.55 2.95 7.45 6.25 9.05m17.95-33.1q.65-1.25 1.2-1.3.5-.1-.25 1.25-2 3.5-4.1 10.2-1.9 5.95-2.5 9.65-.45 2.5.4 9.7l.1.85-1.15-1.15-.55-4.1q-.3-2.5-.3-3.9l.1-1.55q.5-3.05 2.1-7.85 2.15-6.65 4.95-11.8"/><path fill="#0d131a" d="M15.7 130.85q2.7-3 2.9-2.45.25.5-2.8 3.85-2.95 3.25-4.85 7.6-1.95 4.55-2.3 9.3-.4 5.05 1.35 10.05 1.45 4.25 3.75 6.8l2.25 2.05q.8.55.45.6-.35.1-1.65-.6l2.2 3.05q1.85 1.9 4.85 2.85 3.8 1.15 9.85 1.85l-.05 1.1q-6.4-.75-9.15-1.6-3.65-1.15-5-2.05-1.25-.8-2.6-2.85l-1.8-3.6q-2.95-3-4.7-8.05-1.7-5.1-1.35-9.75.75-9.5 8.65-18.15m33.15 15.6q-2.15-5.9-5.1-9.15-3.05-3.35-7.65-4.8-1.15-.35-.8-.55l1.6.15q4.85 1.15 8.15 4.8 3.05 3.35 5.35 9.6 1.6 4.35-.6 11.25-1.4 4.45-3.85 8.6-2.15 3.75-2.75 5.15l-.85-.35 3.95-8.45q3.4-8.05 3.2-12.3-.1-2.5-.65-3.95"/><path fill="#0d131a" d="M43.85 172.7q-1.9-1.2-3.1-.35l-.45-.6q1.35-1.05 2.8-.6 1.9.65 3.8 2.4 1.8 1.6 1.65 2.2-.1.45-.75.6l-2.5.35-1.4.05.9-.6q2-.25 2.35-.7.35-.55-3.3-2.75"/><path fill="#0d131a" d="M38.95 172q-.85 0-2.65.7-1.65.65-2.6 1.25-.95.65-1.4 1.4-.55.8 0 1l3.8.55 5.05.2q2.75-.2 3.4-1.15l.1-.4q-.1-.55-2.4-2-2.4-1.55-3.3-1.55m-3.15-.15q2-.95 2.95-.95 1.1 0 3.35 1.5 2.15 1.4 3.5 2.85 1.3 1.35-.65 2.1l-4.2.7-6.7-.45-2.5-.55-.55-.15-.3-.45q-.1-.4.4-1.3.55-.85 2-1.8 1.1-.75 2.7-1.5m35.4 4.1q1.7 1.55 1.65 2.35 0 .5-.5.65l-2.6.4-1.95-.25-.35-.7 1.8.2 2.35-.35v-.05q0-.45-1.15-1.7-1.2-1.3-2.3-1.85-.2-.1-1.15 1.25l-.9 1.4-.65-.45 1.1-1.7q1.25-1.65 2-1.2l2.65 2"/><path fill="#0d131a" d="M57.8 178.15q-.1.2.1.4 1.05.9 4.95 1.2l4.6-.3v-.3q-.3-.9-2.45-2.35-2.05-1.4-2.75-1.4-.7 0-2.3 1-1.6 1-2.15 1.75m-.65-.45q.6-.9 2.5-2 1.95-1.1 2.9-1.1t3.3 1.65q2.45 1.7 2.85 2.85.25.65-.25 1.05-1.05.85-5.6.5-4.6-.4-5.8-1.45-.5-.45.1-1.5m30.4-103.6l4.2-.4 3.35.3q.85.2.75.4l-.85.2q-4.6 0-7.2.75l-.25-1.25M65.9 107.45q.4-1.6 1.35-4.35.6-1.6.95-1.85t.2.8l-1 4.5q-.8 4.1-.8 7.25 0 2.5 3.75 4.6 2.1 1.2 6.7 3 3.5 1.65 10.6 9.3 6.25 6.7 7.65 9.2 1 1.9 2.45 2.55l2.15.15 1.4-.1q-.6.45-1.05 1.05l-.05.05-3.05-.1q-1.85-.65-2.9-2.55-1.35-2.5-7.05-8.75-6.45-7.1-10.35-9.55-4.8-2-7.25-3.2-4.5-2.15-4.45-5.55.05-3.4.75-6.45m59.5-7.4q1.4 4.55 2.15 9.1.75 4.25.75 7.1 0 1.85-1.9 4.6l-5.85 7.15-2.35 2.45-1.3 1.4.4 2 .6 2.45.4 2.2-.25 1.4-.9 1.05-4.55 2.6q-3.7 1.75-4.6 1.65l.7-1.2 3.65-1.85 3.9-2.65q.6-.65.4-2.4l-.55-2.9q-.45-2.3-.1-2.85l3.55-3.95q6.3-7.1 7.15-9.6.6-1.85-.1-6.55-.7-4.7-2.4-10.15l1.2-1.05m-4.8-12l-1.65.15q-4.75-8.4-12.75-10.65-1.45-.4-1.25-.65l1.75.05q2.9.5 5.9 2.4 5 3.05 8 8.7"/><path fill="#0d131a" d="M110.5 88.95l10.6-1.2L136 86.3q4.2-.25 5.15.75 1 1.05-1.45 3.35l-8.4 6.55-12.8 9.05q-2.55 1.65-4.35 2-2 .35-3.75-.75-1.85-1.25-1.6-1.5.2-.2 2.25.55l3.1.35q1.55-.3 4.1-1.9 4.4-2.85 11.6-8.3l9-7.15q1.95-1.8-1.25-1.8l-13.95 1.2-13.3 1.2-2.45-.25q.15-.35 2.6-.7M106.65 137q-.25-.4.05-.6l.7.1q.8.6.65 2.05l-.15.4-.25-.35-.45-.8-.55-.8m1.65 6.2l-.2-.8q-.35-.75-1.45-.65-1.65.15-6.3 1.7-2.2 3.95-2.2 5.35l.05.15q.9.25 4.6-1.5 3.9-1.8 5.25-3.35l.25-.9m-8.6-.5l.15-.05 2.65-1q2.85-.95 4.45-1.1 1.75-.15 2.45 1.2.3.65.05 1.65l-.7 1.35-.15.15q-1.5 1.75-5.75 3.8t-5.5 1.65l-.55-.55q-.45-1.2 2.8-6.95l.1-.15m-15.05-31.75q0 1.65 4.4 4.75 4.45 3.1 9.35 4.85-.65-11.85-6.95-22.85-3.4 1.6-5.3 5.2-1.95 3.75-1.5 8.05M91 97.05q-1.5-2.1-.95-2.1t1.95 2.1q7.2 10.6 7.15 24.05 0 1.4-.3 1.4-.3-.05-.45-1.05-5.9-2.1-10.3-5.4-4.05-3.05-4.25-4.95-.55-4.85 1.3-8.45 1.85-3.7 5.85-5.6"/><path fill="#0d131a" d="M92.75 99.25l.25.7q-3.85 2.05-4.95 8.35-1.1 6.15 1.7 7.15 1.95.7 4.1-1.3 2-1.9 2.95-4.85l.45.45q-.9 3.7-3.5 5.6-2.35 1.7-4.25.85-3.6-1.6-2.35-8.2 1.25-6.65 5.6-8.75"/><path fill="#0d131a" d="M94.05 101.9l1.45 3.6q-.3 3.1-1.95 5.4-1.6 2.2-2.65 1.4-1.35-.6-.4-4.35 1.05-3.9 3.55-6.05M85.6 49.1q-.3-.5-1 0l-1.55 1.85-1.9 2.45q-.7.8-.55.25l.45-1.15.85-1.45q0-3.9-.2-5.1-.05-.9-.45-1.15-.4-.25-.95.35l-3.75 4.35-1 .65q-.2-.15.25-.9l1.45-2.05Q75 42.85 65.75 32.65q-9.05-10-11.85-11.45-.65-.35-.75.2v2.2l.5 7.3q-.05.65-.3.65t-.45-1.15l-.25-1.35q-2-2.2-11.55-6.2Q32 19 29.4 18.8l-1.35.15q-.5.25-.45.7.05.35 3.9 3.75l4.9 4.15q.95.75.45.7l-1.25-.45-1.2-.7-.8 1.95q-.85 2.35-1.2 4.7l1.2.05-1.45.55q-3.85 1.05-4.5 1.7-.2.2-.15.65l.25.5 4.55 1.85 1 .6q.15.25-.5.1l.8 5.35q.85 4.85 1.2 5.85.6-1.05.65-.5.05.55-.5 1.8l-1.35 3q-.3.85-.25 1.35.1.5.75 1l3.95 3.2q1.6 1.25 1.85 1.8t-1.3-.5q.5 1.95 3.55 8.4Q46 78.75 48.5 80.95 53.05 84.9 59 88.2q7.35 4.1 13.8 5.25 3.15.5 2.95.9l-3.25-.15q-12.95-2.05-24.8-12-3.35-2.85-6.9-11.4l-3.3-9.1-4.85-3.5q-1.6-1.15-.6-3l.95-1.4 1.1-1.75q-1.4-4.85-2.4-12.45l-4.85-1.55q-.75-.3-.75-1.3-.05-.85.25-1.25.2-.3 1.8-.8l3.25-.8q.25-2.25 1.05-4.55.6-1.7 1.15-2.7l-3.5-3.05-3-2.95q-1.4-1.4-.2-2.45 1.05-.9 2.6-.8 2.4.25 10.8 3.85Q49.05 25 52.4 27.5l-.35-4.3q-.25-2.9.1-3.65l1.75-.05q3.15 1.85 12.15 11.8 9.05 10 11.95 15 2.45-3.95 3.7-3.15 1.25.8 1.15 6.4 2.05-2.65 3.2-2.3 1.1.35 1.45 3.8.5 4.55.85 18.75l.2 16.05q-.15 2.3-.5 1.85-.3-.4-.45-2.1L87.15 70q-.45-14.1-1-18.35l-.55-2.55"/><path fill="#0d131a" d="M82.45 72.7q2.2 9 1.45 15.55l-.95-.75q.65-5.7-2.15-15.95-3.05-11.05-7.3-15.8-5.5-6.1-11.55-12.05-7.15-7.05-10.1-8.9-2.8-1.75-6.7-2.85Q41 30.8 39.1 31.4q-.7.2-.95.75-2.25 5.5 3.5 23.4Q47.3 73.1 52.2 77.5l2.6 2.4q5.2 4.9 8.6 6.9 5.6 3.3 13.5 4.25l.2 1.25q-8-.95-14.15-4.55-3.9-2.25-9.05-7.05l-2.6-2.45q-5-4.45-10.8-22.7-5.9-18.65-3.6-24.25.4-.85 1.45-1.2 2-.65 6.9.8 4.55 1.35 7.55 3.25 3.15 2 10.15 8.9 6.65 6.6 11.3 12.2 5.6 6.7 8.2 17.45"/><path fill="#0d131a" d="M86.85 90.5q.6.7.3.85l-1.25-.7-4.3-4.4-4.9-5.15q-1.2-1.2-1.9-.95-.75.25-.35 2l4.5 13.25q.3 1.15.05 1.5-.3.3-.9-.75l-2.55-6.95-2.3-7.25q-.55-2.25.5-3.05 1.1-.85 3.35 1.15 2.7 2.3 9.75 10.45m33.05 13.8l.75-.25q.45 4.95-.55 9.15-1.05 4.4-3 4.7-1.85.3-4-2.8-2.3-3.4-3.5-9l.9.55q1.15 4.55 3.1 7.5 1.85 2.75 3.35 2.5 1.55-.25 2.45-4.3.85-3.9.5-8.05"/><path fill="#fff" d="M93.55 104.75q0 .7-.5 1.2l-1.05.45q-.65 0-1.15-.5-.5-.45-.5-1.15t.5-1.2q.5-.45 1.15-.45.65 0 1.1.5.45.5.45 1.15"/></svg>