<svg xmlns="http://www.w3.org/2000/svg" width="278" height="255" viewBox="-0.9 -1.95 277.75 255.4"><path fill="#cd91be" d="M5.85 153.4q.75-3.1 22.6 11.75 10.9 7.45 21.65 15.5-1.95 1.55-4.4 5.45-1.6 2.5-6.05 9.9-3.25 5.25-5.75 6-3.15.15-5.75 1-4.25 1.4-7.1 1.35-3.4-.05-8.6-2.05-6.2-2.35-8.1-4.3-2.55-2.55-2.05-7.7L3.9 171q1.2-14.55 1.95-17.6"/><path fill="#b17fa5" d="M32.2 182.6q-.8-9.85-6.15-18.65 12.8 8.2 24.05 16.7-1.95 1.55-4.4 5.45-1.6 2.5-6.05 9.9-2.8 4.5-4.85 5.6-.7.4-4.1.8 2.15-12.15 1.5-19.8"/><path fill="#eeeeef" d="M8.2 195.15q3.5-1 6.05 1.3 2.35 2.15 2.35 5.5 0 1.65-6.45 3.85-6.1 2-8.05 1.7-1.8-.3.45-5.8 2.3-5.6 5.65-6.55m23.75 1.2q1.9-.7 4.2.3 2.05.9 2.4 1.85.75 2-.4 6.15-1.15 4-2.25 4.3-.95.25-4.9-2.45-3.7-2.55-4.35-3.5-.55-.85 1.35-3.3 1.95-2.6 3.95-3.35"/><path fill="#c8c9ca" d="M16.6 201.95q0 1.15-3.6 2.7-3 1.35-6.85 2.25 5.6-4.85 6.95-11.3 1.6.95 2.55 2.65.95 1.75.95 3.7m15.85-5.75q1.85-.45 3.95.55 1.85.85 2.15 1.75.7 1.8-.25 5.6-.9 3.6-2.05 4.6.15-2.7-1.3-6.45l-2.5-6.05"/><path fill="#cd91be" d="M201.55 155.55q.95 4.9 2.05 14.9l1.45 13.7q.6 5.6-.4 12.25-1.15 7.7-3.8 9.4-2.7 1.7-11.65 2.2l-11.35-.35q-1.85-.55-3.65-4.35-2.75-5.85-5.45-9.4-2.05-2.7 2.45-10.35 3.9-6.7 11.2-14.7 6.95-7.65 12.55-11.75 6.05-4.35 6.6-1.55"/><path fill="#b17fa5" d="M171.45 183.1q6.35-10.55 17.7-21.1 11.55-10.75 12.4-6.45.95 4.9 2.05 14.9l1.45 13.7q.6 5.6-.4 12.25-1.15 7.7-3.8 9.4-1.85 1.15-7.2 1.8l-9.75.55q.85-8.35-12.45-25.05"/><path fill="#eeeeef" d="M174.35 202.3q1.75 0 4.25 2.3 2.6 2.3 1.35 3.3-1.25 1.05-7 2.4-5.65 1.35-7.25 1.1-1.7-.3 2.25-4.7t6.4-4.4m20.6-1.75q2.75-.95 6.7 4.7 3.75 5.4 3.05 6.8-.45.95-7.45-1.2-6.5-1.95-8.25-3-1.35-.8.7-3.5 2.1-2.75 5.25-3.8"/><path fill="#c8c9ca" d="M203.15 202.1l2.15-7.05 4.95 4.3q3.9 3.55 2.8 4-1.75.7-9.9-1.25m1.55 9.95l-1.85.2-5.2-5.35q-3.05-2.9-6-4.55 1.7-1.25 3.3-1.8 2.75-.95 6.7 4.7 3.75 5.4 3.05 6.8"/><path fill="#cd91be" d="M60.35 189.6l2.5-1.55q3.15-1.8 6.65-2.95 11.1-3.7 20.95.45 9.9 4.15 13.5 14 1.8 4.9 1.65 9l-4.75 10.15q-3.6 7.4-5 12.2-2.85 9.8-5.95 12.9-.95.95-6.8 1.6l-9.95.5q-3.75 0-8.6-3.45-4.05-2.95-5.7-5.6-1.3-2.1-1.55-7.1-.3-5 .5-11.05l1.65-15.6q.9-9.75.9-13.5"/><path fill="#b17fa5" d="M104.2 203.6q2.65 3.05 1.4 4.95l-4.75 10.15q-3.6 7.4-5 12.2-2.85 9.8-5.95 12.9-.85.95-6.4 1.55l3.05-15.9q1.8-9.35 2.05-15.05.85-16.2-9.15-22.4 19.45 5.55 24.75 11.6"/><path fill="#eeeeef" d="M58.5 235.8q1-.55 4.35 3.3 3.3 3.85 2.25 4.35-1.55.8-8.25 2.35-7.15 1.6-6.65.4.8-2 4.15-6.1 3.15-3.75 4.15-4.3m16.4.7q1.3-.25 4.6 2.9t3.3 4.5q0 1.2-3.3 4.35-3.1 3-4.6 3.6-1.15.45-4.3-3.1-2.45-2.8-3.75-4.95-.75-1.25 2.4-4.05 3.15-2.75 5.65-3.25"/><path fill="#c8c9ca" d="M94.1 238.6l2.65 5.55q2.5 5.7 1.85 6.55-.75 1-5.85-1.8-5.05-2.75-6-4.4-.85-1.4 2.8-4.55t4.55-1.35m-32.8-1.15q1.85 1.75 3.1 3.65 1.35 2.05.7 2.35L60 245l-7.35 1.6q6.35-3.55 8.65-9.15m20.15 4.1q1.35 1.65 1.35 2.35 0 .95-2.1 3.15l-3.95 3.6q2.5-5.95 1.8-12.1l2.9 3"/><path fill="#cd91be" d="M204 150.65q.9 2.45-1.25 4.55l-5.75 4.5q-33.15 9.2-67.15 16.85-68.1 15.35-72.55 7.9l-1.65-2.4-1.4-1.05-6.95-.7q-1.5-.2-7.7-5.5-7-5.95-9-7.05l-9.3-4.25q-7.25-3.15-10.95-5.2-4.85-2.6-6.4-7.9-1.1-3.85-.25-6.75.35-1.25 5.05-9.25 4.9-8.3 5.5-9.85 1.15-2.95-.05-8.15l-2.8-10.05q-1.3-5.4-.2-7.75 1-2.2 4.7-2.75 2.4-.35 8.85.1 6.6.45 9.6.1-.35-9.2-3.1-26.1-2.3-14.2-3.8-20.15-1-3.3.85-5.25 1.8-1.85 3.65 0l14 16.95q13.4 16.05 18.45 20.05 1.95-5.2 2.45-9.85l.1-3.6 56.6-4.35 32.85 16.2q22.35 15.75 36.65 43.3 7.25 14.1 10.95 27.4"/><path fill="#b17fa5" d="M40.35 175.6l-8.9-7.2q2.65-2 3.45-5.15.6-3.9 1.3-6.4 6.1 7.5 11.3 10.2 7.1 3.7 15.8.95 4.1 4.75 0 12.05-1.55 2.7-3.4 4.1-1.9 1.45-2.6.3l-1.65-2.4-1.4-1.05-6.95-.7q-1.4-.2-6.95-4.7m62.15-21.35q1.15 1.45 2.75 10.5 1.6 9.35 1.1 12.95-1.75-1.35-7-6.3l-6.65-5.95q4.35-.35 6.8-3.95 1.55-2.2 3-7.25M28.05 44.8q.8-.95 1.85-1.1 1.1-.1 2.05.85l13.5 16.3Q58.4 76.45 63.75 81q-.45 1.5-.7 3.95-.4 2.05-1.95 3.15-11.15-13.55-23.25-31-8.2-11.85-9.8-12.3m5.25 50.9l.3 2.25q.05 2.8-1.15 5.6-5.8-3.2-10.45-4.7l-8.95-2.15q1.1-.55 2.85-.85 2.4-.35 8.3-.05 6.1.25 9.1-.1m163.7 64l-11.2 3.05q-1.35-4.8-3.7-8.7-18.8-31.85-34-50.15-21-25.3-45.15-38.6l20.6-1.55 32.85 16.2q22.35 15.75 36.65 43.3 7.25 14.1 10.95 27.4.9 2.45-1.25 4.55l-5.75 4.5"/><path fill="#cd91be" d="M123.05 35.65Q124 26.8 124.1 17q.3-2.5 1.05-3.75.9-1.4 3.15-2.55 2.35-1.15 4.15 5.25l4.75 23.3q4.7 23.45 6.8 31.15.85-1.05 3.5-7.6l3.8-9.15q1.35-2.95 2.55-3.65 1.25-.7 2.25 1.05.8 1.4.6 8.2-.25 9.65-.15 11.8l.15 18.25q.2 15.2 1.5 25.55.5 4.1-4.4 2.35-4.55-1.65-12.5-7.7-17.75-13.65-31.8-31.7-5.8-7.45-9.55-19.65l-2.6-10.7q-.1-6.7.05-12.25.15-3.55 1.6-4.15 1.3-.5 2.25 1.1l5.95 11.05q5.75 10.75 8.5 15 5.45-5.25 7.35-22.55"/><path fill="#b17fa5" d="M131.45 41.85l-1.7-25.3q-.4-4.95-1.45-5.85 2.35-1.15 4.15 5.25l4.75 23.3q4.7 23.45 6.8 31.15.75-.95-.65 1.75l-3.05 5.95q-6.2-12.5-8.85-36.25m24.65 9.2q.8 1.4.5 8.15-.35 9.35-.25 11.8l.5 19.15q.55 16 1.7 26.3-7.7-.35-6.55-32.7l1.25-22.45q.6-10.3-.2-10.6 1.75-2 3.05.35M101.35 39.9l-2.4-5.45q-.8-1.5-1.3-.9 0-2.2 1.4-2.5 1.35-.35 2.2 1.1l5.85 11.25q5.75 11.05 8.65 15.7-1.1 1.45-2.5 1.45-1.75.05-3.35-2.2-2.75-3.95-8.55-18.45"/><path fill="#cd91be" d="M100.5 51.95q2.45 4.65 5.3 12.5 1.6 4.4 4.55 8.35l5.15 6.15q5.9 6.85 5.35 14.45-.8 11.35-.5 16.95.5 9.65 3.75 11.7 3.1 1.9-10.75 5.95l-14.5 3.7q-3.65-5.1-18.05-13.5-3.1-1.85-5.25-4.65-2.15-2.85-2.4-5.45L71.9 96.3q-1.45-11.25-3.65-22.75-2.35-12.15-8-21.9-4.35-7.55-8.75-10.9-3.1-2.4-2.8-5.35.35-2.85 2.45-1.65 2.75 1.55 6.8 2.85 5.4 1.75 8.85 1.3-.4-5.25-5.75-14.55l-6.5-11.4Q53.3 8.65 54.3 7l2.85-.05L70.7 20.8q13.8 14 22.35 21.35 4.15 3.55 7.45 9.8"/><path fill="#b17fa5" d="M51.15 33.75q2.7 1.5 6.6 2.8 5.25 1.7 8.7 1.35.25 3.05-1.15 3.5-6 1.85-14-3.95-2.05-1.5-1.85-3.05.15-1.5 1.7-.65m49.45 18.6q2.4 4.65 5.35 12.8 1.45 4.05 4.35 7.9l5.15 6.1q5.9 7 5.4 14.25-.65 9.2-.6 14.15.1 8.3 1.85 12 1.1 3.15-.95 1.75-2.1-1.4-2.5-3.35-1.35-6.3-1.95-19.8-.4-9.25-3.1-12.15-1.1-1.15-12.2-21.35-10.2-18.5-15.85-22-5.25-3.25-15.05-15.9Q59.15 12.2 54.35 7.85q0-1.75.75-1.95.65-.15 2.05 1.05L70.7 20.8q13.8 14 22.35 21.35 4.1 3.5 7.55 10.2"/><path fill="#008a92" d="M101.75 73.45q8.05 9.45 11.45 27.35 2.7 14 1.55 22.7l-8.5-12.7 1.1 7.4-4.05-4.05q-4.05-3.9-4.05-3.05 0 1.4 2.1 8.15l-7.1-5.2 2.05 7.1q-9.65-4.6-14.2-8.1-3-2.3-4.5-8.1-1-3.65-1.65-10.5-.8-8.45-.15-23.7l.85-13.6 2.2.55q2.8.8 5.75 2.25 9.5 4.55 17.15 13.5"/><path fill="#00747a" d="M84.6 59.95q9.5 4.55 17.15 13.5 8.05 9.45 11.45 27.35 2.7 14 1.55 22.7l-5.75-9q-2.5-14.25-12.7-29.05Q84.9 69 75.75 72.35l.55-10.75.35-4.45 2.2.55q2.8.8 5.75 2.25"/><path fill="#cd91be" d="M168.25 197.85q-4.5 4.05-7.3 5.85-3.6 2.3-8.4 4.7-5.7 2.9-7.6 3-6 .25-10.55-1.25l-3.35-1.6q-2.6-2.3-4.9-5.55-4.6-6.45-2.95-11.1 1.65-4.6 32.3-13.55 15.35-4.5 30.35-8.05l-5.55 10.6q-4.5 8.8-5.85 10.55-1.9 2.45-6.2 6.4"/><path fill="#b17fa5" d="M185.85 170.3l-5.55 10.6q-4.5 8.8-5.85 10.55-2.05 2.55-5.85 6.05-4.85-3.55-19.65 2.55-6.1 2.5-9.9 5.35-4.15 3.05-3.5 5.05-1.9-.5-3.4-1.25l-1.1-.65q-2.6-2.3-4.9-5.55-4.6-6.45-2.95-11.1 1.65-4.6 32.3-13.55 15.35-4.5 30.35-8.05"/><path fill="#91308c" d="M26.85 134.45q2.6-.65 3.45 4.3l.65 8.75q.25 3.9-.75 5.95-1.1 2.4-4.35 4.15-3.05 1.65-4.5-3.05-1.1-3.55-1.1-9.85 0-3.5 1.75-6.4 1.9-3.15 4.85-3.85m18.4-13.8l1.15-7.05q1.2-3.85 4.6-4.9 2.65-.8 4.75 3.5 1.3 2.55 3.8 9.5 1.2 2.8.45 10.95-.65 7.5-1.9 10.75-.95 2.45-5.5.45-4.05-1.8-7-5.05-2.25-2.45-1.8-8.55l1.45-9.6M75.4 131.1l3.6-.15q1.65.7 3.55 2.25 1.2.95 1.45 8.35.25 7.1-.4 8.05l-3.45.25-3.75-.85q-.65-.2-2.25-4.15l-2-4.9q-.6-1.2.25-3.8.9-2.95 3-5.05m-22.75 27.3q1.2 1.5 1.55 4.7.4 3.4-1.05 3.65l-3.45-.2q-1.95-.6-3.05-2.3-.85-1.25-1.25-4.15-.4-2.95.2-3.85.7-1.15 2.95-.6 2.35.6 4.1 2.75m21.4 41.6q2.75 3.15 3.65 6.15.9 2.95.45 5.9L77 215.9q-.8 1.95-7 3.5-1.65.4-2.8-2.15l-1.75-3.45q-.9-.65-.65-4.1l.65-6.7q.2-2.85 2.75-4.45l2.85-1.15q.55-.2 3 2.6m15.85 17.65q.9.25 1.7 2.3.75 2 .75 3.65 0 2.1-.8 4.3-1.05 3-3.4 5.1l-2.75.05q-.55-3.2-1.45-4.95-1.1-2.15.45-5.5l2.05-3.85q.25-.9 1.4-1.15l2.05.05"/><path fill="#7f257b" d="M88.4 217.4l1.5.25q.9.25 1.7 2.3.75 2 .75 3.65 0 2.1-.8 4.3-1.05 3-3.4 5.1l-1.65 1.4q-.4.25-.7-.5.75-3.05 1.5-8.4l1.1-8.1m101.9-34.7l1.35 1.15q1.45 1.45 1.9 2.75.4 1.2-.3 3.25-.85 2.35-.85 2.9 0 1.15-2.25 3.8-1.9 2.3-3 3-.8.5-1.5-3t-.15-5.1q.75-2.7 1.5-4.35 1.3-3.05 3.3-4.4m11.25 3.2q-.55 0-2-2.9-1.8-3.55-2.55-4.45-1.15-1.35-.5-4.1.2-1 1.55-4.6 1.2-3.25 4.9-1.05l2.1 14.3q-2.45 2.8-3.5 2.8"/><path fill="#fff" d="M161.6 161.2q.65.95.65 2.25t-.65 2.25q-.65.95-1.6.95-.95 0-1.6-.95-.65-.95-.65-2.25t.65-2.25q.65-.95 1.6-.95.95 0 1.6.95"/><path fill="#cd91be" d="M80.8 194.25l-12.5-2.3q-7.25-1.45-8.75-2.9-1.85-1.85-2-5.8-.15-4.05 1.65-7.15 2.9-6.25 5.35-10.4 4.5-7.8 9.65-10.15 3.7-1.75 12.95 5.15 7.45 5.5 14.6 13.35 5 5.4 9.9 16.35 3.95 8.75 4.4 11.9.2 1.55-3.45 3.55-2 1.15-6.3 3.05-1.15-2.45-4.95-5.55-7.5-6.15-20.55-9.1"/><path fill="#b17fa5" d="M101.75 174.05q5 5.4 9.9 16.35 3.95 8.75 4.4 11.9.2 1.55-3.45 3.55-2 1.15-6.3 3.05-.6-1.3-2.45-3.25-3.6-3.8-9.5-6.75 4.7-.45 3.6-12.15-2.2-14.15-2.55-19.15 3.45 3.25 6.35 6.45"/><path fill="#cd91be" d="M274.1 2.95q.75 1.7-1.3 4.95L261.5 21q-9.55 11.05-11.1 16.6 4.35-1.25 12.25-4.25l8.95-3.4q2.25-.75 2.1.9-.15 1.65-2.55 3.5-5.2 4.1-11.6 12.45-8.65 11.2-13.7 23.6-4.65 11.45-7.6 25.35l-2.75 14.1q-.8 2.75-4.75 6.2-3.9 3.4-7.7 4.7-7.9 2.65-15.7 6.7-12.45 6.45-15.65 12.5-6.8-2.25-12.9-5.25-12.2-6-8.65-9.85 5.75-6.25 7.3-11.55 1.2-4.1 1.75-16.4.2-4.65 5.7-10.35l11.45-11.65q2.8-3.3 5.2-8.35l3.9-8.9q4.75-10.8 11.65-14.85 9-5.25 32.1-23.1l21.85-17.1q2.4-1.3 3.05.35"/><path fill="#b17fa5" d="M272.15 1.2q2.3-1.3 2.55 1.05.2 2.3-1.9 5.65L261.5 21q-9.55 11.05-11.1 16.6 3.95-1.1 9.25-3.15-4.1 2.45-8.05 5.7-2.35 1.95-2.95 1.65-3.75-1.95 3.65-13.75Q259.15 17 267.35 9.6q4.45-3.95 5-6.55.25-1.25-.2-1.85m-.55 28.75q2.2-.75 1.85 1.5-.4 2.25-2.7 3.6-4.85 2.85-11.6 11.85-8.1 10.7-13.3 23.5-4.65 11.45-7.6 25.35l-2.75 14.1q-.8 2.75-4.75 6.2-3.9 3.4-7.7 4.7-2.95 1-7.75 3 .2-1.35 3.55-3.3l8.95-5.1q5.3-3.3 7.9-17.2 1.4-8.25 2.35-12.65 1.65-7.75 4-13.4 5.35-12.8 8.4-18.65 4.35-8.35 9.1-13.35 2.7-2.8 8.05-6.65 4.1-3 4-3.5"/><path fill="#008a92" d="M211.65 66.1q9.3-8.85 18.7-11.9 4.7-1.5 7.5-1.25 1.95 4.25 1.05 13.65-.6 6.75-3.6 22.4l-2.55 13.45q-2.1 8.4-5.7 10.2l-26.7 13.6-7.65 4.9 5.2-10-4.85 3.2q2.5-6.55 2.75-8.05.3-1.5-8.3 6.55l3.5-7.45-9 8.75q.65-9.9 7.05-24.75 8.6-19.95 22.6-33.3"/><path fill="#00747a" d="M237.65 75.8q-4.85-3.75-13.35-.2-7.6 3.2-16.6 11.55-8.5 7.9-15.55 17.8-7.15 10.1-10.1 18.6 1-10.4 7.3-24.8 8.55-19.55 22.3-32.65 9.3-8.85 18.7-11.9 4.7-1.5 7.5-1.25 1.45 3.25 1.35 9.1-.15 5.15-1.55 13.75"/><path fill="#ed8599" d="M166.3 179.75q3.3.55 2 5.85-.65 2.65-2 5.2l-9.05 8.55q-8.1 7-12.8 8.5-2.1.65-5.95-.5-3.8-1.2-4.35-2.5 6.7-6.5 14.1-12.9 14.75-12.75 18.05-12.2"/><path fill="#ce7486" d="M166.3 179.75q3.3.55 2 5.85-.65 2.65-2 5.2l-9.35 8.8q-5.35-.9-12.4 1.8-7.25 2.8-6.05 5.95-3.8-1.2-4.35-2.5 6.7-6.5 14.1-12.9 14.75-12.75 18.05-12.2"/><path fill="#fff" d="M164.9 185.75q-.2-.85 4.8-5.5l5-4.5q-2.15 7.85-4.15 13.2-2.1 5.55-2.85 5.3-1.1-.35-2.8-8.5"/><path fill="#dbdcdc" d="M164.9 185.75q-.2-.85 4.8-5.5l5-4.5q-2.3 8.25-4.4 13.85-2.05-2.95-4.95-1.85l-.45-2"/><path fill="#cd91be" d="M194.6 136.7l2.55 19q.65 6.4-.5 8.9-1 2.25-5 3.75-7.25 2.65-8.8 3.45-7.05 3.6-11.05 6.9-4.9 4-10.65 11.5-1.3 1.7-3.1 2.15-2.75.45-5.35 1.2-7.3 2.1-14.5 7.5-7.65 5.7-8.9 10.75-1.85-.2-4.8-1.15-4.25-1.4-6.85-3.95-3.15-3.2-3.1-7.6-1.55-3.3-4.5-6.1-3.2-3.1-4.2-4.75-1.6-2.8-1.7-7.7-.05-2.9.55-8.95.3-3.4-1.3-8.75l-2.7-7.65q-.9-2.5-.85-5.45l.5-5.75.4-3.9q.25-3.45 0-5.8l4.25-1.5q5.7-2.4 12.95-6.65 3.75-5.8 14.95-8.55 10.7-2.55 23.6-1.35 13.45 1.25 23.45 6.2Q191.1 128 194.6 136.7"/><path fill="#b17fa5" d="M128.35 140.75q3.5-3 6-4.05 3.6-1.5 6.75 0 5 2.35 3.35 8.8-1.45 5.85-6.85 10.75-.6 1.2-2.7-.55-1.9-1.65-3.95-4.75-5.3-7.95-2.6-10.2m-13.4 32.55q-1 2.2-1.8-3.95-1.1-8.8-2.55-11.9l-3.05-5.25q-.75-1.3.9-1.05 1.15.2 3.65 2.9 2.8 2.95 3.25 5.3 1.8 9.1-.4 13.95m54.8-28.6q3.35-1.1 2.3.75-.95 1.8-4.8 4.65-2.5 1.85-9.15 12.2-6.85 10.6-8.3 15.25-.95 3-1.75 2.5-.75-.5-.75-3.65 0-8.5 4.8-18.2 4.55-9.1 17.65-13.5"/><path fill="#b17fa5" d="M191.2 140l1.55-2.85q.85-1.25 1.85-.45l2.55 19q.65 6.4-.5 8.9-1 2.25-5 3.75-7.25 2.65-8.8 3.45-7.05 3.6-11.05 6.9-4.9 4-10.65 11.5-1.3 1.7-3.1 2.15-2.75.45-5.35 1.2-7.25 2.1-14.35 7.45-7.5 5.65-8.75 10.7-1.4-.1-.9-4.45.5-4.55 2.7-8.6 4.1-7.4 13.3-7.95l6.75-.3q3.5-.4 5.3-2.2 5.2-5.8 8.2-8.65 5.3-4.9 12.15-7.6 7.15-2.8 10.6-12.9 2.1-6.2 3.5-19.05"/><path fill="#fff" d="M101.9 157.45q1.9 2.15 3.95 6.4 2.95 6 2.7 10.4-.7-.15-2.25-1.55-1.85-1.7-2.55-3.35-.85-2.05-1.45-7.2l-.4-4.7m67.65-2.2q.2 7.5-1.2 9.95-1 1.75-7.35 5.7-6.55 4.1-11.1 5.55 1.85-8.35 8.4-17 4.85-6.35 10.8-11.25l.45 7.05"/><path fill="#dbdcdc" d="M169.1 148.2l.4 5.7q-5.95 3.65-10.65 9.45-4.45 5.55-7.05 12.15-.95.65-1.9.95 1.85-8.35 8.4-17 4.85-6.35 10.8-11.25"/><path fill="#cd91be" d="M105.05 140.3L92.9 122.35q-1.8-2.8-1.4-4.3.5-2 5.85 1.2l19.85 11.35q16.5 9.45 20.2 12.3 2.7 4.3 1.45 9.15-1.15 4.35-4.9 7.45-3.8 3.05-8 3.05-4.65.05-7.8-3.9-2.9-3.65-13.1-18.35"/><path fill="#b17fa5" d="M95.75 118.35l1.6.9 19.85 11.35q16.5 9.45 20.2 12.3 3.15 5 1 10.45-20.95-20.25-42.65-35"/><path fill="#91308c" d="M163 122.95q-2.1 3.45-3.65 6.4-2.65 5.05-3.45 5.9-1.2 1.3-3.15.35l-4.05-2.15q-2.1-1.4-3-3.25-.85-1.7 1.65-4.85 2.2-2.8 4.65-4 3.2-1.6 6.7-2.55 4.65-1.25 5.1.35.45 1.5-.8 3.8m-31 16.75l-11.75-6.5q2.85-1.25 6.5-1.6 4.2-.4 4.65 1.25.7 2.45.6 6.85"/><path fill="#0d131a" d="M104.15 160.6q.3-.7 2.5 4.95 2.25 5.75 1.7 8.35-3.15-1.4-4.65-4.9-1.7-4.05.45-8.4M3 190.4q-.45 4.8 1.85 7.1l-1 1.4q-1.45-1.15-2.05-2.75-.65-1.65-.6-4.25l.9-10.35 1.5-17.2q.75-10.05 1.15-11.9l1.9 2.4q-1.1 5.25-2.85 26.4L3 190.4m13.75 12.15q5.3 1.25 9.75 0l.7 1.25q-3.1.95-5.65.95-2.95-.05-6.9-1.35l1.1-.35q.7-.2 1-.5M47.7 181.1l3.3-.25q-1.75 1.7-3.25 4l-3.4 5.55-3.65 6.2-1.55 2.4q-1.2-.9-1.4-1.4l4.9-7.9 2.9-5.3q1.1-2.05 2.15-3.3"/><path fill="#0d131a" d="M13.5 196.3q-2.05-1.55-5.15-.65-2.5.75-4.85 5.6-2.25 4.65-1.3 5.7.75.9 7.15-1.45 6.35-2.35 6.75-3.55.35-1.15-.55-2.95-.8-1.8-2.05-2.7M8 194.35l3.25-.35q1.7.2 2.95 1.15 1.5 1.1 2.45 3.35 1 2.3.65 4.1-.45 1.9-8.1 4.4-7.65 2.55-9 1.4-1.1-.9 1.5-6.75 2.8-6.15 6.3-7.3m27.95 2.8q-2.1-.95-3.8-.3-1.35.5-2.85 2.1-1.4 1.5-2 2.9l-.2.8v.05q.55.85 3.25 2.8l3.95 2.5 1.6.2.8-1.15q.95-1.95 1.35-4.45.45-2.65 0-3.9-.25-.75-2.1-1.55m-4.25-1.5l4.4.15q2.4.75 3 1.8 1.05 1.85-.05 7.3-1.1 5.4-2.5 5.6-1.3.15-5.65-2.75-4.25-2.8-5.15-4.2-.5-.75.9-3.4 1.75-3.25 5.05-4.5m172.9-.65l.8-.75 2.5 1.95 4.85 4.6q2 2.35 1.65 3.15-.35.75-2.85.5-4.45-.35-8.55-1.55l.25-1.3 5.7 1.3q3.55.65 3.75-.05.4-1-8.1-7.85m-34.8 1.3l1.45-1.35 1.05 2.4 1.05 2.7.85 1.7-1.5.2-.6-1.3-2.3-4.35m18.2 11.05l1.75 1.3q-6.15.4-10.1 0l.35-1.4q3.3.35 8 .1"/><path fill="#0d131a" d="M206 184.05q.6 5.55-.35 12.05-1.1 7.1-3.4 9.75-.1-.6-.95-1.45 1.85-3.05 2.75-8.95.9-5.9.3-11.25l-.6-6.2q-1.9-19.1-2.65-21.65l1.65-1.1q.55 1.85 1.3 9.4l1.2 13.2.75 6.2m-33 26q6.4-1.6 6.65-2.55.2-.9-2.05-2.8-2.2-1.85-3.25-1.85-2.5 0-5.85 3.8-3.15 3.6-2.65 4.2.7.85 7.15-.8m1.1-8.95q1.9 0 4.6 2.75 2.65 2.7 2.35 4-.3 1.3-5.3 2.75-4.6 1.35-8.5 1.6l-2.65-.25q-.5-.45.25-2.15 1.1-2.45 4.15-5.5 3.25-3.2 5.1-3.2"/><path fill="#0d131a" d="M201.3 205.55q-3.55-5.4-5.7-4.8-2.4.7-4.55 2.9-1.85 1.9-2 3.15-.05.35.2.6 1.7 1.05 8.1 3 6.55 2 6.85 1.35.5-1.05-2.9-6.2m3.15 3.1q1.6 3.15 1 3.95-.4.5-2.15.3-4.55-.6-10.1-2.35-5.85-1.9-5.8-3 .05-2.75 3.65-5.55 3.45-2.75 5.75-2.3 1.55.35 3.7 2.9 2.2 2.55 3.95 6.05m-3.85-65.8l-3.3-8.7.65-1q.4-.7.75-.95 4 9.65 6.15 16.9 1 3.5-.05 5.15l-4.35 3.75-2.95 2.3-.5-1.75 2.55-1.75q3.2-2.4 3.65-3.7.35-.9-.4-3.8l-2.2-6.45m-21.6-42.7q-.1.55-.05 1.75l.05 1.8q-11.95-15.5-22.6-23l.25-2.05q5.65 4 10.5 8.55 5.9 5.5 11.85 12.95m-164.3-5.4q1.25-.15 9.1.15 7.9.3 9.4.1l.3 2q-1.6.2-9-.2l-8.5-.25q-3.35.5-4.2 2.65-.9 2.15.25 6.95l1.65 5.6q1.65 6.05 1.85 8.2 1.35-5.2 1.9-3.3.55 1.7-2.15 7.7l-5.75 9.95q-4.25 7-4.75 9.3-.7 3.25.4 6.95 1.45 4.8 5.5 7.15 4.1 2.4 12.65 6 5.75 2.45 7.55 3.4 2.4 1.35 8.3 6.45l4.9 4.2q2.6 2.2 3.6 2.5l5.6-.25 1 1.75-7.35.4q-1.3-.5-3.45-2.4l-5.2-4.65q-5.55-4.7-8.15-6.15-4.45-2.75-7.35-3.95l-6.85-2.65q-4.35-1.65-6.65-3-7.85-4.6-7-15.2.2-2.15 4.85-9.2 5.35-8.15 6.6-11.2.7-1.8-1.25-9.65l-2.1-7.55q-1.45-6.2-.15-9 1.1-2.3 4.45-2.8"/><path fill="#0d131a" d="M32.6 124.5q.65-2.95 1.25-3.15.65-.2.05 3-2 11.05.4 23.65 2.95 15.35 11.5 23.75l11.7 11.55-.35 2.6q-.25-1.3-12.4-12.4-9.05-8-12.05-24.55-2.55-13.7-.1-24.45m26.75 64.6l2.3 1.35q0 3.5-1.2 13.35l-1.95 15q-.7 5.45-.55 10 .15 4.5 1.1 6.8l-2.1.8q-1.75-5.15-.1-17.8L58.5 203q.85-10.05.85-13.9m27.05 54.7l1.25 1.2-5.55.75.85-1.5 3.45-.45m20.55-35.55L102 218.7q-4.3 9-4.95 11l-2.85 8.75-1.05.1-.95.2q1.4-2.8 2.95-8.05.95-3.25 5.2-12.35l4.9-10.3 1.7.2m-40.1 34.8q-.35.75.1 1.85-2.3-.7-2.85-1 1.6-1.15 1.25-1.8l1.5.95"/><path fill="#0d131a" d="M93.3 238.85q-1.3-.4-3.9 1.95-2.55 2.35-2.25 3.35.4 1.35 5.4 3.85 4.85 2.45 5.35 1.9.55-.6-1.65-5.75-2.15-5.05-2.95-5.3m-7.85 5.1q.1-1.85 3.55-4.55 3.75-2.95 5.7-1 1.25 1.2 3.05 5.4 1.7 4 1.9 5.9.2 1.55-.35 1.9l-1.9-.1q-2.6-.6-7.2-3.4-4.8-2.9-4.75-4.15m-31.1-5.3q2.8-3.2 3.75-3.7 1.45-.8 4.85 2.95 3.35 3.7 3.25 5.55-.05.9-5.65 2.55-5.5 1.65-9.1 1.9-1.8.15-2.2-.4-.5-.7.75-3 1.3-2.4 4.35-5.85m-.3 2.2q-3.75 4.55-3.2 5.25.5.7 7.1-.85 6.55-1.5 6.8-2.2.3-.75-2.15-3.75-2.55-3.1-3.85-3-.95.05-4.7 4.55"/><path fill="#0d131a" d="M79.3 239.7q-3.05-2.95-4.3-2.7-1.9.2-4.85 2.85-2.9 2.6-2.8 3.7.05 1.05 3.3 4.55 3.3 3.55 4.05 3.25 1.45-.6 4.45-3.5 3.1-3 3.1-3.95 0-1.25-2.95-4.2m-4.45-3.9q2.4.05 5.8 3.4 3.15 3.2 3.15 4.7t-4.15 5.55q-4 3.9-5.15 3.95-1.4.05-5.15-4.25-3.8-4.35-3.6-6 .15-1.3 3.4-4.2 3.5-3.2 5.7-3.15m-.35-79.3q-6.35 3-12.9 16.4-3.4 6.95-3.6 10.4-.2 3 2.05 5.25 1.6 1.6 11.05 3.4l12.5 2.3q9.15 2.65 14.5 5.85 3.2 1.9 6.1 4.9l2.3 2.2 2.3-.15q4.65-2.15 6.05-3.55l1.4 1.05q-6.6 4.5-8.55 4.8-1.65.2-4.1-2.65-2.6-3.05-7.3-5.65-6.4-3.55-15.65-5.65l-12.2-2.2q-8.4-1.6-9.9-3.1-2.4-2.4-2.35-6.15.05-4.85 3.85-12.65 3.15-6.35 5.4-9.5 3.8-5.4 8.25-7.5 4.15-1.9 14 5.65 7.2 5.5 14.6 13.6l1.85 2.25-.3 1.95-2.6-3.25q-7.05-7.7-14.65-13.2-8.8-6.3-12.1-4.8M28.35 43q1-.6 2.15-.45 1.15.2 2 1.05l6.7 8.4 12.85 15.5Q60 76.75 64.1 80.3l1.5-7.7q.9-4.85 1.3-4.7l1.15 2.9q-.35 0-1.35 6.65-1.5 7.3-4.35 9.85-2.4 2.2-.8-.55l1.25-2.9.65-1.9q-3.95-3.1-12.5-13.2l-13.7-16.7-5.8-6.95q-1-1-2.2-.4-.9.5-1.2 1.8-.4 1.45.1 3.1Q30.4 57 32.9 73q3.3 21.2 1 28.3-1.1 3.4-1.8 4.2-.85.85.35-4.5 1.7-7.9-1.2-26.65-2.35-15.2-5.1-24.2-.7-2.2.15-4.45.75-1.95 2.05-2.7m97.2-32.05q2.4-2.9 4.3-2.05 2.15.95 5.2 17.45 4.45 24.35 9.65 41.4l5.95-15.05q2.65-5.8 4.75-4.75 1.9.95 2 6.15.15 5.95-.1 27.65 0 20.9 1.35 30.2.6 4.25-.2 3.7-.8-.5-1.4-3.75-1-5.3-1.45-16.8-.35-8.9-.25-15.35l.15-24.4q-.05-3.65-1-4.45-1.05-.85-2.5 3.05l-3.05 8.5q-3.6 9.4-6.5 13.7-1.45 2.2-2.35 2.55-.95.4.5-2.3l2.65-5.8q-4-12-8.95-38.05-4-21.2-5.05-21.2-1.65.05-2.85 1.95-1.25 1.95-1.55 5.05 0 10.25-1 19-1.95 17-8.2 22.55l-2.05 1.4-1.15.2q-.15-.2.55-1.05l1.65-1.8q-1.75-2.4-5.7-10l-6-11.7-2.35-4.4q-.9-1.5-1.6-.95-.75.6-.85 3.65-.15 5.45-.05 12.2l-1.95-2.6.45-10.5q.15-4.8 1.85-5.65 1.5-.8 2.9 1.5l2.85 5.35 5.7 11.2q3.85 7.6 5.85 10.75 4.15-5.2 5.85-18.75.85-6.95 1.15-18.85l.15-3.1q.3-3.05 2.65-5.85"/><path fill="#0d131a" d="M101.35 50.55q2 4.2 5.35 13.6.9 2.4 3.05 5.8 2.1 3.25 4.35 5.8 5 5.75 6.35 8.2 2.35 4.2 1.9 9.3l-1.35 13q-.4 12.35 3.45 15.5 2.05 1.7.75 1.75-1.3.05-3.2-1.65-2.8-2.4-2.75-13.65l.85-14.85q.35-4.7-1.45-7.95-.7-1.35-6.7-9.25L108 70.7q-1.9-2.95-2.75-5.3-2.95-8.05-5.2-12.5-3.45-6.75-7.5-10.2-10.1-8.65-29.95-29.15l-4.55-4.7q-2.3-2.2-2.9-1.75Q53 8.55 58.75 18l6.1 10.25Q68.2 35 67.8 39.85q-.5 5.25-1 4.4-.45-.75-.8-5.55-4.35.25-10.9-2.5-5.2-2.25-5.35-1.6-.8 3.25 2.2 5.55 4.4 3.35 8.8 10.85Q66.6 60.95 69 73.4q3.15 16.5 4.9 34.6.25 2.55 1.5 4.5 1.75 2.65 5.8 5.05 14.5 8.4 18.25 13.7l1.4 3.4q-1.85-2.55-8-7.3-6.35-4.9-13.25-8.95-4.9-2.85-6.2-4.55-1.1-1.4-1.4-4.7-1.65-19.05-4.8-35.5-2.3-11.95-8-21.7-4.35-7.45-8.65-10.75-2.35-1.8-3.3-4.7-.8-2.45-.2-4Q47.6 31 54.5 34q8.2 3.55 11.4 3.2-.65-4.7-3.05-9l-5.9-9.85Q49.95 5.8 53.4 3.5q1.25-.85 4.3 1.8l5.2 5.25 14.4 14.8Q87.4 35.4 95.05 41.5q3.25 2.6 6.3 9.05"/><path fill="#0d131a" d="M111.65 96.3q-3.55-14.6-10.35-22.5-6.75-7.9-15.05-12.4-5.05-2.75-9.15-3.6-1.05 14.2-1.05 25.4 0 6.85.4 11.2.65 6.45 1.8 10.5 1.5 5.35 4.2 7.75l4.1 2.85 4.65 2.5q-.15.15.1.7l.2.65q-6.65-3.05-9.7-5.4-3.1-2.4-4.7-7.7-1.2-3.9-1.85-10.55-.8-8.4-.25-24.05l.75-14.2q-4.3-.9-4.25-1.6 0-.7 3.7 0 6.35 1.25 11.25 3.8 8.35 4.4 16.35 13.75 7.8 9.15 11.3 26.65 3.1 15.45.95 23.45l-.7 1.7q-.4.3-.15-1.6l-3.6-5.6-3.45-4.95q-.25-.3.05 1.85l.6 3.95q.4 2.4-.85-.3-6.4-6.65-6.7-6.2-.3.5 1.1 6.6.6 2.45-.65.1L97.95 117q-2.8-1.95-2.75-1.6l.9 3.05q-.55-.3-.85-.35l-1.05-2.8q-.55-1.45-.35-1.75.25-.45 2.75 1.45l3.75 2.9q-1-3.55-1.3-5.65-.35-2.45.95-1.4l3 2.65 3.9 3.9q-1.15-5.45-1.15-6 0-1.25 1.2.05.7.65 7.4 10.45l.1-3.35q0-10.85-2.8-22.25M275.45 1q1.4 2.7-1.65 7.15L263.1 20.7q-8.8 10.25-10.75 15l17.85-6.5q3.3-1.45 4.3.85 1.05 2.3-2.3 4.75-6.25 4.55-12.4 12.9-7.25 9.95-13 23.5-4.3 10.05-7.2 24.8-1.45 7.45-2.75 15-.8 2.5-4.85 6.1-3.95 3.5-6.7 4.4-13.4 4.25-22.25 9.3-8.15 4.65-10.75 8.95-.75 1.3-1.2 1.35-.5.1-.05-1.5 1.55-5.8 15.8-12.85 8.25-4.15 15.95-6.7 3.6-1.25 7.4-4.55 3.8-3.3 4.6-5.85l1-4.95q1.5-8.6 3-14.65 2.6-10.7 6.4-19.95 4.95-12.2 12.4-22.45 6.45-8.9 12.35-13.3 2.2-1.6 2.45-2.85.3-1.3-2.1-.55l-8.5 3.4q-7.6 3.1-10.55 3.95l-1.05 2.2q-1.3 2.35-.8-1.2.8-5.5 9.45-16.15 4.7-5.8 13.3-15.65 2.8-3.55 1.15-4.35-1.65-.8-5.95 2.8-10.3 8.7-24.85 19.8-17.2 13.15-25 17.7-4.7 2.7-7.9 7.75-1.95 3.05-4.85 9.95l-2.85 6.95q-1.7 3.75-4.05 6.5-2.5 2.95-8.75 8.8-4.75 4.6-6.4 6.75-2.65 3.5-2.8 6.8-.45 10.75-1.95 16.9-2.3 9.05-7.35 11.6-1.5.75-1.75.5-.3-.3 1.1-1.6 4.95-4.45 6.45-11.35.85-3.9 1.4-16.55.15-2.95 2.35-6.15 1.95-2.85 6.3-7.05l4.6-4.15 4.7-4.65q2.25-2.6 4.5-7.7l3.3-8.2q3.5-8.35 4.8-10.4 2.1-3.35 6.3-5.75 17.6-10.25 52.8-39.1 6.45-5.25 8-2.3"/><path fill="#0d131a" d="M238.65 61.1q0-4.8-1.2-7.65-3.7 0-8.4 1.75-8.6 3.25-17.05 11.3-13.05 12.4-21.5 30.95-6.5 14.3-7.8 25.25 5.65-5.45 7.95-7.2 1.2-.85 1.35-.7l-.5 1.35-2.35 4.45 5.1-4.35q1.65-1.25 1.8-.55.1.6-.6 3.2l-1.3 4.05q3.75-2.4 4.5-2.4.45 0-1.55 3.65l-3 5.4q4.8-3.55 8.95-5.7l22.8-11.6q3-1.5 5.35-7.85 1.75-4.85 2.9-11.6l.65-3.95 2.8-15.85q1.1-7.4 1.1-11.95m-.85-8.75q2.6.05 3.15.65.5.55-1.85.45 1 3 1 7.25 0 4.65-1.05 11.75l-2.75 15.5-.65 3.95q-1.35 8-2.8 12.5-2.3 7.1-5.55 8.7l-14.3 7.05q-10.95 5.45-15.2 8.05l-4.65 3.4q-1.4 1.15-1.2.15.2-.95 2.75-5.45l2-3.8-3.7 2.6-1 .55q-.15-.15.55-1.5l1.65-4.1.85-2.95q0-.3-3.05 2.45l-4.15 3.7q-1.05.85-1.25.7-.2-.15.4-1.35l2.25-4.75q-.05-.15-2.75 2.45l-3.8 3.65q-.25 2.8-.7 2.95-.45.15-.5-2.8-.15-10.6 6.6-25.65 7.85-17.5 21.5-31.85 8.4-8.75 17.7-12.25 5.55-2.05 10.5-2M174.05 190.7q1.7-2.2 5.15-9.15 3.5-7.15 4.5-10.5l2.85-1.15q-1.25 3.6-5.5 12.1-4.05 8.2-5.2 9.7-4.9 6.25-15.85 13.55-10.65 7.05-14.9 7.2-5.05.2-10.2-1.5l-4.25-1.8.85-1.15 3.95 1.7q4.8 1.6 9.55 1.2 4.05-.3 13.8-6.85 10.25-6.95 15.25-13.35"/><path fill="#0d131a" d="M173.05 177.65l1.75-.85q-.05 1-1.45 6.1-1.65 6.05-3.15 9.5-1.45 3.3-2.3 3.45-.9.2-1.9-2.95-1.05-3.5-1.6-6.95l1.15-1.45.85 4.7q.75 4.3 1.4 4.4.7.15 2.15-4.45l3.1-11.5m-73.2-34.85q.6-5.15-.35-10.5l1.65 1.45.5 2.4.05.9-.65 7.4-.7 6.55q0 1.75 1.4 4.2 2.9 5 5.15 10l-.55.1-.75-1-5.3-8.65Q99 153.55 99 151l.85-8.2m33.6 52.05l.65-.05-.15.85-1.4 2.3q-1.2 2.15-1.25 3.8l-.25.3q-.2 0-.3-.4-.4-1.8.3-3.6.7-1.85 2.4-3.2m-25.6-41.7q-1.05-1.9-.6-1.7.45.15 1.35 1.25 2.5 3.2 3.9 8.35 1.05 3.9 1.15 7.4l-.1 3.3q-.2.35-.7-2.9-.45-3.25-1.5-7-1.45-5.25-3.5-8.7m36.75 20.25q-1.4-5.8.1-11.65 1.55-6.15 5.75-9.85 1.2-1 1.35-.75.2.25-.65 1.3-6.4 7.65-5.85 20.8.05.65-.25.7-.3 0-.45-.55M168 165q1.15-2.1 1.15-8.2 0-4-.4-7.75-5.4 4.65-10.7 12.1-5.85 8.25-7.55 14.65 4.65-1.7 10.8-5.6 5.8-3.7 6.7-5.2m.35-17.15q3.4-2.75 3.8-2.6.4.15-2.4 3.3.75 2.95.9 7.95.2 6.25-1.3 8.85-1.05 1.85-7.7 5.85-6.85 4.2-11.3 5.4-.6 1.55-1 1.7-.4.15.05-1.9 1.6-7.35 6.55-14.9 5.15-7.9 12.4-13.65"/><path fill="#0d131a" d="M160.95 156.2l.75-.35q1.95 4.15 1.65 8.05-.35 3.95-2.9 6.85-1.65 1.95-4.05 1.75-1.3-.05-2.5-.75t-1.9-1.7q.75-1.85 2.25-4.55 2.95-5.35 6.7-9.3m-25.9-15.6q4.25 2.6 4 3.2-.2.55-4.45-1.85l-37.65-22.1q-4.4-2.6-5.05-1.85-.55.6 1.6 4 2.45 3.9 23.45 33.55 2.85 4.25 2.4 4.65-.5.4-3.55-3.8-22.5-31-24.6-34.35-3.15-5-1.25-6.3 1.85-1.25 7.3 2l37.8 22.85m3.75 5.9q-.05-1.7.2-2.05.25-.35.55 2 .7 5.3-1.5 9.3-2.25 4.15-7 5.8l-1.85.3q-.25-.3 1.55-1.1 4.2-1.9 6.3-5.85 1.85-3.6 1.75-8.4m-24.75 46.05q-.1-1.05.3-.65t.6 1.25l.3 3.95q.2 3.6.45 4.7-1.05-.2-1.5-2.1l-.3-1.85q.45-3.15.15-5.3"/><path fill="#fff" d="M161.55 163.35q0 .7-.5 1.2t-1.15.5q-.55 0-1.05-.4-.6-.45-.6-1.3 0-.7.5-1.2.45-.5 1.15-.5t1.2.55q.45.5.45 1.15m-55.4 5.05q-.85.15-1.25-1.3t.25-1.75q.55-.25 1.05 1.35.45 1.6-.05 1.7"/><path fill="#0d131a" d="M102.2 158.25l.8 5.65q.7 4.05 1.3 5.5.45 1.2 2 2.8l1.9 1.55q-1.7-8.8-6-15.5m.95 11.6q-.8-2.25-1.5-6.8-.75-4.8-.95-9.2 4.1 6.05 5.8 10.1 1.9 4.5 2.65 10.75.25 2.05-.05 1.95-.3-.05-.85-1.7l-3.1-2.55q-1.65-1.55-2-2.55"/><path fill="#fff" d="M156.9 192.95q1.95-.15 3.35-1.8 1.05 1.25 1.75 3.4l-5 4.3q-.15-.9-.15-3.05-.05-1.95.05-2.85"/><path fill="#dbdcdc" d="M156.85 194.55l.1-1.75 1.7-.55 1.5-1.15 1.55 2.75q-.8.6-2.55.8l-2.3-.1"/><path fill="#0d131a" d="M156.2 193.2l1.35-.3q-.15 2.75.1 5.55l-1.35 1q-.45-2.55-.1-6.25m3.6-1.6l.9-.85q1.2 1.5 1.8 3.45l-1.15.95q-.5-1.95-1.55-3.55"/><path fill="#0d131a" d="M195.3 147.25l-1.55-10.4 1.05-1.25q1.45 6.3 2.7 16 1.5 11.35.6 13.35-.8 1.8-3.2 3l-4.9 1.85q-1.9.65-6.3 3-8.8 4.5-11.15 6.3-4.25 3.25-10.75 11.6-1.1 1.45-2.3 2.05l-2.75.75-4.25.85q-7.3 2.1-13.5 6.85-5.6 4.25-7.7 8.4-1 2-1.7 2.5l-2.85.15q-4.65-1.05-8.1-3.9-4.4-3.65-4.95-9.05-1.8-3.75-4.35-6.15l-2.15-2q-1.35-1.3-2.05-2.5-1.8-3.1-1.9-7.4-.1-2.45.6-9.75l.05-1.9.6 1.35.65 1.35q-.6 6-.5 8.35.2 4.2 1.95 7.15 1 1.8 3.4 4l2.65 2.75q1.55 1.85 2.65 4.15l.05.6q0 4.5 3.75 7.55 2.8 2.3 7.2 3.45 1.8.45 2.4 0l1.9-2.55q3-4.6 9.55-9 6.3-4.25 12.35-6l3.95-.9 2.35-.6q.85-.4 1.7-1.55 5.8-7.5 10.7-11.55 4.2-3.45 11.25-7.1 2.6-1.3 7-2.8l4.05-1.6q1.75-1 2.4-2.4.45-.9.45-3.9 0-4.65-1.05-13.1"/><path fill="#0d131a" d="M165.85 189.95l.6 1.45q-14.4 14.4-22.2 16.85-2.25.7-6.15-.4-3.95-1.1-4.6-2.7l1.3-.55q.4 1 3.55 2 3.35 1.1 5.3.45 4.8-1.5 13.4-8.9 5.1-4.35 8.8-8.2"/></svg>