<svg xmlns="http://www.w3.org/2000/svg" width="390" height="337" viewBox="-1.3 -0.75 389.5 337.35"><path fill="#a586bc" d="M23.7 67.1q-1 23.1 7.45 43.9 7.9 19.4 23.1 34.75Q68.8 160.4 87.9 169.3q18.95 8.8 39.15 10.4L94.3 255.1q-36.25-14.55-59.05-41.9-19.7-23.55-28-54.7-7.1-26.7-4.8-54.2Q4.5 79.7 12.9 64q4.7-8.8 7.25-10.25 4.2-2.4 3.55 13.35"/><path fill="#8f75a3" d="M2.05 111.25q2.5 26.4 13.55 48.65 10.85 21.8 27.4 34.7 17.05 13.3 36.45 14.1 20.8.85 40.7-13.15L94.3 255.1q-50.55-20.25-74.45-64.65-19.45-36.1-17.8-79.2"/><path fill="#a586bc" d="M331.6 295.9l-9.45-.85q-15.3-.95-24.1 4.25-3.05 1.8-9.5 2.05-6.15.2-12.9-1.05-16.15-2.95-17.65-9.25-1.3-5.5.25-12.85.45-2.15 2.2-7.5l26.3-56.2q15.8 3.8 27.3 13.2 17.75 14.45 18.45 38.2 5.75 7.85 5.6 18.35-.1 7.1-2 10.95-.5.95-4.5.7"/><path fill="#8f75a3" d="M330 250.25q2.3 7.1 2.5 15.2l1.3 1.95q-2.2 5.45-9.85 10.6-3.1 2.1-3.9 3.1-1.3 1.65-.25 3.55-4.3 4.35-5.4 9.85-9.75.45-16.35 4.35-3.05 1.8-9.5 2.05-6.15.2-12.9-1.05-16.15-2.95-17.65-9.25-1.3-5.5.25-12.85.45-2.15 2.2-7.5l22.25-47.55q6 .9 12.35 5.25 3.45 2.35 10.95 9 6.95 6.2 11.1 8.8 6.5 4.05 12.9 4.5"/><path fill="#dbdcdc" d="M353.3 297.05q10 8-3.55 10.05-9 1.4-23.6.1-8.9-.8-13.9-2.2-5.6-1.55-9.3-4.5-3.55-2.85 4.35-8.7 7.1-5.3 15.4-7.85 5.6-1.7 11 .35 6.85 2.55 19.6 12.75"/><path fill="#b4b4b5" d="M328.8 301.3q8.4 4.5 20.55 5.9-8.9 1.3-23.2 0-8.9-.8-13.9-2.2-5.6-1.55-9.3-4.5-2.7-2.2 1.6-6.4 3.75-3.65 10.7-7.1 3.7 9 13.55 14.3"/><path fill="#a586bc" d="M324.2 223.1q7.5 7.2 10.85 13.05 2.8 4.9.9 17.75-1.7 11.55-4.5 16.15-2 3.35-12 6.35-7.55 2.3-13.15 2.9-2.7.3-6.55-6.95-4.85-9.05-5.8-10-9.05-9.05-6.7-14.9 1-2.55 5.1-11.45l4.7-10.65q3.05-8.05 15.85-9.45 3.3-.4 11.3 7.2"/><path fill="#8f75a3" d="M325.05 267.7q5.5-.75 8.2-2-.95 3-1.8 4.35-2 3.35-12 6.35-7.55 2.3-13.15 2.9-2.7.3-6.55-6.95-4.85-9.05-5.8-10-9.05-9.05-6.7-14.9.95-2.4 4.85-10.9l4.7-10.65q-1.2 11.5 6.75 28.1 3.25 6.8 6.7 11.05 3.5 4.35 5.65 3.95l9.15-1.3"/><path fill="#b4b4b5" d="M341.2 223.3l12.85 4.25q-1.05 2.1-3.1 4.7-2.6 3.2-4.35 3.55-1.6.3-3.45-5.3l-1.95-7.2"/><path fill="#dbdcdc" d="M377.7 215.1l.15 7.55q-.1 4.95-1.4 5.3l-2.75.05q-1-.2-3.95-1.4-2.2-.95 2.65-6.3l5.3-5.2"/><path fill="#a586bc" d="M353.05 150.85q1.4 2.15 4.7 5.8l6.5 7.05q9 10.3 13.95 21.35 5.7 12.9 3.5 21.95-1.8 7.15-10 15.4-12.05 12-33.05-.65-6.15-3.7-8.5-11.2l-1.6-6.35q-1-3.75-2.25-6.05-4.55-8.55-6.45-13.95-3.2-8.75-1.55-13.3l3.9-30.85q7.4-4.5 16.65-.95 8.75 3.35 14.2 11.75"/><path fill="#8f75a3" d="M332.5 162.35q-1.2 2.55 1.25 13.75 2.7 12.6 7.8 23.1 6.4 13.2 14.45 18.1 9.85 6 21.15-1.15-1.85 2.55-5.45 6.25-12.05 12-33.05-.65-6.15-3.7-8.5-11.2l-1.6-6.35q-1-3.75-2.25-6.05-4.55-8.55-6.45-13.95-3.2-8.75-1.55-13.3l14.2-8.55"/><path fill="#dbdcdc" d="M370 218.15q1.2 1.55-.75 8.35t-3.9 7.6q-2 .8-6-3.65-4.15-4.5-4.5-8.25-.4-3.75 6.35-5.3 6.65-1.6 8.8 1.25"/><path fill="#b4b4b5" d="M354.85 222.2q-.2-1.55 1.25-2.9 1.25-1.2 3.55-1.95 1.15 10.3 5.65 16.75-2 .7-6-3.7-4.1-4.5-4.45-8.2"/><path fill="#a586bc" d="M328.35 171.4q-3.3 2-7.8.7-3.05-.85-5.55-2.75l4.4-31q10.7 4.45 13.1 14.55 3.3 14.1-4.15 18.5"/><path fill="#8f75a3" d="M325.7 163.75q4.65 2.45 7.55-1-.05 3.5-1.15 5.4-1.05 1.65-3.75 3.25-3.3 2-7.8.7-3.05-.85-5.55-2.75l3.6-12.4q3.2 4.75 7.1 6.8"/><path fill="#a586bc" d="M317.15 135.5q6.15 7.05 5.05 17.95-1.3 13.3-8.2 17.9-4.2 2.85-9.8 2.1l-5.5-28.55 9.1-13.05q1.6-1.2 4.25-.2 2.7 1.05 5.1 3.85"/><path fill="#8f75a3" d="M298.7 144.9l2.15-3.1q10.6 22.95 20.7 16-2.05 10.45-8.45 14.05-3.95 2.25-8.9 1.6l-5.5-28.55"/><path fill="#a586bc" d="M365.9 25.5q-5.1 5.85-10.85 21.35l-45.35 27.4-15.4-11.5q4.7-2.55 9.85-10.9 4.75-7.75 6-13.65 1-4.6 6.85-7.95 3.35-1.9 10.65-4.85 4.8-2.2 15.15-8.7 9.95-6.2 12.8-8.7 3.45-2.9 3.85.45.5 4.05-5.2 15.25 3.75-.6 7.75-2.1l4.4-1.75q1.45-.5 1.7 1.05.25 1.8-2.2 4.6"/><path fill="#8f75a3" d="M327.65 25.4l12.05-6.45q8.2-4.85 14.45-9.8 3.95 1.9-5.65 8.95-8.2 6-30 18.3-1.4.8-2.85 5.3l-2.7 9.85Q308.9 66.25 304 70.2l-9.95-7.3q4.75-2.6 10.1-10.65 5-7.7 6.25-13.4 1-4.65 6.7-8.25 1.7-1.05 10.55-5.2"/><path fill="#00aca8" d="M354.85 49.15q-5.3 18.25-12.95 26.3-7.35 7.75-23.8 13.25l-13-24.05q9-21.6 27.4-30.45 12.9-6.2 19.05-4.25 8.15 2.55 3.3 19.2"/><path fill="#009693" d="M352.8 30.45q-8.05 3.9-15.5 13.35-6.6 8.35-10.95 18.55-4.1 9.75-4.2 16.35-.05 7 4.6 6.75l-8.65 3.25-13-23.55q7.4-21.3 27.4-30.95 14.3-6.9 20.3-3.75"/><path fill="#008086" d="M343.3 39.85q-2.2 11.85-5.65 18.55-6.85 13.5-21.4 20.45l-10-16.35q9.95-22.85 29.3-29.3 5.1-.35 6.2.1 2.55 1.15 1.55 6.55"/><path fill="#00666c" d="M335.55 33.2l5.3-.15q2.4.4 2.7 3.1-7.7 7.2-13.2 18.05-4.55 8.95-8 21.25l-6.1 3.4L306 62.9q3.25-7.55 7.55-13.25 9.15-12.15 22-16.45"/><path fill="#a586bc" d="M170.5 93.15q.65-5.7-4.95-16.35-6.25-10.6-7.3-12.9-1.4-3.2-.25-4.9 1.1-1.5 2.85-.65 2.05 1.05 28.4 16.65l31.4 10.85 29.1 12.45 25.2 63.55-62-30.6-42.45-38.1"/><path fill="#8f75a3" d="M170.5 93.15q.65-5.7-4.95-16.35-6.25-10.6-7.3-12.9-.95-2.1-.7-3.55.35-.95 10.5 7.8 12.4 8.9 22.6 7.3l30 10.4 29.1 12.45 25.2 63.55-62-30.6-42.45-38.1"/><path fill="#a586bc" d="M198.4 139.55l-20.5 55.25-60.7 5.4q.35-5.3 6.05-14.75 4.8-7.95 8.35-11.45.6-3.05-1.6-18.1l-2.4-15.85q0-8.2 4.55-4.3l9.6 7.55q7 5.15 8.35 4.45 1.4-.7 1.75-8.95.25-7-.25-13.65l46.8 14.4"/><path fill="#8f75a3" d="M191.5 167q-15.5 5.95-22 10.85-8.7 6.5-14.4 18.95l-37.9 3.4q-.15-5.5 5.8-14.9 4.55-7.3 8.6-11.3.6-3.05-1.6-18.1l-2.4-15.85q0-8.2 4.55-4.3l9.6 7.55q7 5.15 8.35 4.45 1.4-.7 1.75-8.95.25-7-.25-13.65l46.8 14.4-6.9 27.45"/><path fill="#a586bc" d="M177.8 287.55l-.65-22.35q10.35 7.5 22.5 10.5 9.7 2.35 20.5 3.1 10.65.75 23.45.05-16 6.25-33.35 8.65-18.15 2.55-32.45.05"/><path fill="#ccc" d="M293.6 187.15q-4.25 6.8-5.35 9.3-1.6 3.55-3.05 10.4-.55 2.7.75 8.05 1.7 7.05 1.95 10.3 1.25 15-11.95 32.55-4.45 5.95-13.1 11.55-8.25 5.25-19.25 9.55-12.8.7-23.45-.05-10.8-.75-20.5-3.1-12.15-3-22.5-10.5l-2.2-74.85 118.65-3.2"/><path fill="#999" d="M174.95 190.35l60.55-1.65q-7.65 5.15-14.95 13.55-7.65 8.9-12.4 18.65-11.55 23.65-.8 39.2 6.45 8.9 18 12.25 9.45 2.75 25.5 2.45-2.65 1.65-6.75 3.5-11.4.75-22.95.05-12.75-.75-22.4-3.1-8.55-2.1-21.55-8.5l-2.25-76.4"/><path fill="#8f75a3" d="M177.8 287.55l-.6-20.8q13 6.4 21.55 8.5 9.65 2.35 22.4 3.1 11.55.7 22.95-.05-13.9 6.2-33.75 8.9-19.4 2.65-32.55.35"/><path fill="#dbdcdc" d="M175 188.2l5.95-6 6.95-17.05 111.4 11.2q-3.25 4.45-6.65 10.6-6.8 12.3-7.5 20.7-.85 10.3-.95 14.1-3.05-6.1-11.65-10.75-7.05-3.85-15.6-5.7-5.8-1.2-22.35 5.85l-13.05 5.8q-7.25 3.2-10.85 4.3-7.6 2.3-16.9-3-7.25-4.15-8.8-7.3l-10-22.75"/><path fill="#b4b4b5" d="M175.15 188.05l6.15-6.5 6.95-15.6 111.05 10.4-3.95 6q-4.5 7.3-7.15 13.75-.3-2.2-8.6-5.05-9.65-3.3-20.95-3.3-32.95-.15-55.2 27.35l-2.4 3.5q-1 1.9.35 2.75-5.55-1.35-11.05-5.4-4.4-3.2-5.35-5l-9.85-22.9"/><path fill="#dbdcdc" d="M281.6 193q-2.75 1.4-13.3-2.4-9.45-3.35-12.9-5.85-2.3-1.65 1.4-12.9 2.7-8.1 5.3-13.3 1-2 3.75-3.55 1.3-.8 4.45-2.1l32.4-9.25q4.3 5.2 4.75 12.75.55 8.85-4.5 18.9-4.55 9.1-11.8 13.5-2.35 1.4-5.5 2.6l-4.05 1.6"/><path fill="#b4b4b5" d="M282.2 154.1q-7.2 4.35-9.55 6.7-2.6 3.9-4.3 12.95-1.7 8.85-.35 10.35 3.1 3.5 8.85 6.55l4.75 2.35q-2.75 1.4-13.3-2.4-9.45-3.35-12.9-5.85-2.3-1.65 1.4-12.9 2.7-8.1 5.3-13.3 1-2 3.75-3.55 1.3-.8 4.45-2.1l21.6-6.15q-2.8 3.15-9.7 7.35"/><path fill="#dbdcdc" d="M196.55 184.85q-7.3-6.15-11-10.85-2.7-3.45-3.05-12.3-.35-8.75 2-13.4l34.95-22.1q3.75 3.3 24.55 15.4 17.95 10.45 19.1 13.9 1.4 4.05-2.1 14.65-2.9 8.75-5.6 13.1-1.8 2.9-20.85 6.8Q216 193.8 210.2 193q-4.8-.7-13.65-8.15"/><path fill="#b4b4b5" d="M219.45 126.2q3.8 3.4 16 10.45-14.1 2.5-17 3.4-8.95 2.7-13.15 8.45-2.55 4.45.8 20.6 3.2 15.8 6.15 17.25 4.4 2.2 11.85 2.7l12.4.6q-8.3 1.75-15.7 2.75l-10.6.6q-4.8-.7-13.65-8.15-7.3-6.15-11-10.85-2.7-3.45-3.05-12.3-.35-8.75 2-13.4l34.95-22.1"/><path fill="#a586bc" d="M180.55 192.95q3.65 8.05 5.25 19.55 1.45 10.85.55 20.35-.9 9.8-3.9 13.6l-75-19.55q-.6-1.2.85-6.55 1.6-5.75 4.65-12.2 8.15-17.55 19.25-24.6 10.9-6.95 23.15-5.9 5.85.5 15.3 4.05 5.8 2.2 9.9 11.25"/><path fill="#8f75a3" d="M157.4 184.15q-4.35 4.7-7.75 13-3.35 8.3-4.55 17.05-1.25 9.45.55 16.55l-38.2-3.85q-.6-1.2.85-6.55 1.6-5.75 4.65-12.2 8.15-17.55 19.25-24.6 8.8-5.6 15.75-6.1 5.05-.4 18.45 2.3-4.35-.7-9 4.4"/><path fill="#dbdcdc" d="M151.05 309.5q3.5 6.1 4.15 11.45-3.4 7.6-14.45 10.75-10.8 3.1-23.3.35-11.15-2.45-19.2-12.75-3.2-4.1-4.75-8.2-1.55-3.9-.95-6.1 3.6-4.3 10.05-7.9 12.9-7.15 27.2-3.45 14.3 3.7 21.25 15.85"/><path fill="#b4b4b5" d="M107.2 312.45q.85 10.55 7.6 18.9-10.15-3.3-17.25-12.95-6.35-8.65-5-13.4 1.8-2.15 5.15-4.7 6.75-5.1 14.45-6.95-5.9 8.2-4.95 19.1"/><path fill="#a586bc" d="M99.7 236.65q2.3-5.5 11.05-12.55l11.05-8 53.65 16.05q2.9 3.6 4.7 8.65 1.45 4.15 2.4 10.1 1.05 6.6-3.35 27.95-4.15 20.35-2.9 24.1 3.3 9.95 3.65 12.3.55 3.35-1.6 5.15-2.3 1.9-10.6 1.65-8.25-.25-12.55-2.25-1.7-.75-3.7-3.05l-4.1-4.7q-6.6-6.7-18.25-10.05-12.15-3.55-25.85.05-4.2 1.05-9.1 3l-5.25 2q-3.35.85-7.85-1.4-4.9-2.45-7.05-6.8-1.9-3.8 3.45-9.15 6.8-5.75 8.85-8.35 2.35-2.9 6.9-21 5.2-20.55 6.45-23.7"/><path fill="#8f75a3" d="M99.7 236.65q2.3-5.5 11.05-12.55l11.05-8 22.95 51.75q-4.95 9.1-16.55 14.7-3.9 1.85-16.3 5.75-5.45 1.7-7.9 5.65-2.45 3.9-.95 8.15-4.1 1.1-8.9 3l-5.2 1.95q-3.35.85-7.85-1.4-4.9-2.45-7.05-6.8-1.9-3.8 3.45-9.15 6.8-5.75 8.85-8.35 2.35-2.9 6.9-21 5.2-20.55 6.45-23.7"/><path fill="#a586bc" d="M139.15 195.05q3.65-2.7 14-.6 8.4 1.7 11.7 3.65 3 1.8 5.55 7.55 3.65 8.3 4.35 21.75.65 13.75-8.35 28.25-3.5 5.65-7.55 9.75-3.75 3.85-6.2 4.65-4.95 1.65-13.55 0-9.2-1.75-14.7-6.15-5.25-4.2-7.25-19-1.8-13.2.05-20.55 1.4-5.65 9.8-16.3 7.55-9.65 12.15-13"/><path fill="#8f75a3" d="M139.15 195.05q3.45-2.5 12.55-.85Q132 207 128 228.75q-1.5 8-.6 16.15.75 6.6 2.65 10.95 2.6 5.95 8.9 9.05l12.15 5.55q-5.45 1.1-13.2-.65-8.45-1.85-13.5-5.9-5.25-4.2-7.25-19-1.8-13.2.05-20.55 1.4-5.65 9.8-16.3 7.55-9.65 12.15-13"/><path fill="#a586bc" d="M201.45 92.3q8.4 5.15 13.7 15.8 5.5 11 3.25 19.65-2.5 9.7-11.15 16.25-9.65 7.25-21.25 5.45-11.7-1.8-18.8-7.95-6.3-5.45-8.4-13.75l13.9-32.4q2.9-4.4 11.6-5.95 9.7-1.7 17.15 2.9"/><path fill="#8f75a3" d="M172.7 95.35q1.15-1.7 3.75-3.2 2.65-1.5 6.1-2.35-3.95 3-2.9 13.55 1 9.7 5.55 20.7 4.75 11.4 10.45 17.1 6.55 6.5 11.8 2.65-4.5 3.5-9.75 4.95-5.7 1.65-11.7.7-11.7-1.8-18.8-7.95-6.3-5.45-8.4-13.75l13.9-32.4"/><path fill="#a586bc" d="M174.75 133.4q-5.15-.6-16.4-5.45l-10.25-4.7 7.1-34.05q6.3.35 18.05 5.25 11.3 4.75 14.85 8.1 3.4 3.2 4.2 8.8.8 5.35-1.05 10.7-1.9 5.55-5.95 8.65-4.55 3.45-10.55 2.7"/><path fill="#8f75a3" d="M169 118.5q7.95 4.45 20.95 6.9-2 4.7-5.65 6.65-3.75 2.05-9.55 1.35-5.15-.6-16.4-5.45l-10.25-4.7 10.15-19.2q.25 8.65 10.75 14.45"/><path fill="#dbdcdc" d="M140.3 63q3.45.85 6.15 7.75 1.5 3.9 3.65 11.75l-69.45-4q18.55-9.85 38.3-13.85 15.35-3.1 21.35-1.65"/><path fill="#b4b4b5" d="M116.8 65.1q-12.6 5.5-21.25 14.25l-14.9-.85q17.3-9.2 36.15-13.4m-78.65 89.05q-8.25 5-10.85 5.45-2.35.4-.7-9.55 1.45-9.1 3.75-14.6l22.1 12.3q-5.9 1.25-14.3 6.4"/><path fill="#a586bc" d="M158.3 98.95q-.35 11.25-5.45 18.8-4.55 6.7-10.85 7.95-6.2 1.25-15.85 4.9-10.25 3.9-15.4 7.2-4.2 2.7-11.45 12.55l-9.5 12.6q-3.65 3.6-8.1 4.85-4.75 1.35-9.2-.5l-9.4-3.9q-5.2-2.75-7.65-7.45-.95-1.8-1.5-5l-.4-2.85-9.35-1.05q-7.1-1.6-11.25-8-6.55-10.05-4.05-22.5 3.25-16.05 21.95-26.65 19-10.7 46.9-14.1 23.8-2.9 36.4.55 10.85 3 15.75 6.3 8.75 5.9 8.4 16.3"/><path fill="#8f75a3" d="M50.85 89.9q3.8-2.1 7.55-3.75Q42.7 98.2 40.15 112.2q-1.15 6.2.95 11 2.1 4.85 7.05 7.1 3.5 1.6 5.75 1.4 1.5-.15 5.1-1.8.3 2.9-2.45 9.1-3.4 7.7-3.75 9.05-14.55-.75-19.85-9-6.55-10.05-4.05-22.5 3.25-16.05 21.95-26.65m21.65 77.4q-5.8-2.1-8.55-3.5-4.85-2.4-7.4-6.05 2.75.15 6.5-1.25l6.45-2.85q7.8-3.4 11.35-.65 1.85 1.45 5.85-3.15 8.45-9.7 11.35-12.4 21.9-20.45 59.05-25.3-2.6 5.8-7.5 9.65-3.95 3.15-7.6 3.9-6.2 1.25-15.85 4.9-10.25 3.9-15.4 7.2-4.2 2.7-11.9 12.7l-9.95 12.75q-7.75 7.65-16.4 4.05"/><path fill="#dbdcdc" d="M35.5 107.7q1.7-.75 3.5 1.3 1.75 2.05 2.75 5.7 2.4 9.15-2.15 16.65l-14.7 4.5q-9.3 3-9.45.2-.4-7.15 6.95-16.75 6.75-8.8 13.1-11.6"/><path fill="#b4b4b5" d="M27.3 121.3q-7.25 5.45-11.55 11.2 1.4-7 8.1-14.95 6.2-7.4 11.65-9.85 1.4-.6 2.9.7 1.5 1.3 2.55 3.95-8.6 5.15-13.65 8.95"/><path fill="#dbdcdc" d="M60.15 147.25q1.7-1.85 5.5-1.25 3.55.55 7.15 2.9 3.7 2.45 5.3 5.5 1.75 3.45-.05 6.55-3.6 6.05-13.95 10.85-9.95 4.55-11.35 2.15-1.1-1.95 2.15-13.2 3.15-11.15 5.25-13.5"/><path fill="#b4b4b5" d="M65.25 171.2q7.75-7 12.15-17.95 2.75 4.1.65 7.7-1.7 2.85-5.35 5.7-3.25 2.55-7.45 4.55"/><path fill="#a586bc" d="M215.3 91.9q3.3-4.9 5.55-6.75l86.7 46.2q-1.05 7.7-4.9 13.75-4.1 6.35-10.3 9.25-14.7 6.75-33.85-8.1-5.75-4.45-14-15.6l-8.6-12.15q-1.3-1.65-6.85-2.35l-8.8-.75q.85-2.7 4.25-6.7 3.9-4.55 7.85-6.7l-8.55-1.25q-9.4-1.05-13.6.25 1.95-4.35 5.1-9.1"/><path fill="#8f75a3" d="M215.25 91.7q3.25-4.6 5.6-6.55l23.35 11.7q-.1 3.85.05 5.45.25 2.85 1.35 6.05-3.1 1.2-4 7.75-.85 5.8.35 11l-6.05-8.6q-1.3-1.65-6.85-2.35l-8.8-.75q.85-2.7 4.25-6.7 3.9-4.55 7.85-6.7l-8.65-1.5q-9.5-1.25-13.7.05 1.95-4.2 5.25-8.85m92.05 39.65q-.75 5.95-3.15 10.45l-8.5-3.95-8.45-4.15 5.8-3.05q3.3-1.9 5.45-4.05l8.85 4.75"/><path fill="#ed8599" d="M297.75 144.35q-5.45 4.6-14.6 4.95-12.1.5-21.3-13.5-6.6-10-9-21.4-.75-3.6 26 7.05 13.4 5.35 26.9 11.4-4.05 8.15-8 11.5"/><path fill="#ce7486" d="M305.75 132.85q-2.25 4.55-4.25 7.35-6.55-4.85-16.15-5.05-9.85-.25-20.65 4.5-4.55-5.5-8-13.55-2.7-6.3-3.85-11.7-.75-3.6 26 7.05 13.4 5.35 26.9 11.4"/><path fill="#dbdcdc" d="M303.15 138.3q-1.2 1.2-2.05.8-.45-.15-1.35-1.25.2-1.05 1.55-3.05l1.35-1.8q1.15 3.85.5 5.3"/><path fill="#fff" d="M300.9 141.05q-1.2 1.2-2.05.8l-1.35-1.25q.2-1.05 1.55-3.05l1.35-1.8q1.15 3.85.5 5.3"/><path fill="#dbdcdc" d="M300.9 138.05q-.9.6-1.45 1.7l-.75 2.05-1.2-1.2q.2-1.05 1.55-3.05l1.35-1.8.5 2.3"/><path fill="#fff" d="M297.65 144.6q-2.15 2.15-4.05-.1.2-1.05 1.85-3.7l1.6-2.45q1.25 4.8.6 6.25"/><path fill="#dbdcdc" d="M297.05 138.35l.1.55q-1.45 4.3-1.65 6.7-.95-.05-1.9-1.1.2-1.05 1.85-3.7l1.6-2.45"/><path fill="#a586bc" d="M256 43.55q3.7-11.25 5.6-13.5 2.5-2.95 4.55-1.65 1.8 1.1 2.75 4.9 1.1 4.5 8.25 24.4l2.6.35q4.15.9 11.6 3.5 7.75 2.7 14.75 9.85 3.4 3.45 8.85 10.85 2.75 3.75 4 6.9.95 2.35 1.15 4.95.65 7.8-1 13.6.4 6.4-.15 9.7-.7 3.95-3.15 6.75-3.85 4.3-7.85 7.5-4.75 3.75-7.55 4.1-2.6.3-4.45-1.15-3.35-3.1-7.2-6.3-7.05-5.8-22.05-8.5l-9.1-1.75q-3.85-1.05-4.3-2.85l-13.85-11.4q-14.7-11.9-18.8-14.1 1.15-8.7 15.7-21.5 7.3-6.35 14.35-11 1.45-2.05 5.3-13.65"/><path fill="#8f75a3" d="M265.75 28.2q-1.7.4-2.45 5.25-.3 2.15-.85 10.85-1 16.5-5.15 19.8-6.15 4.9-10.4 19.45-4.55 15.35-1.3 24.35-4.05 1.6-13.65-7.4-9.55-9.85-11.3-10.8 1.15-8.7 15.7-21.5 7.3-6.35 14.35-11 1.45-2.05 5.3-13.65 3.7-11.25 5.6-13.5 2.25-2.6 4.15-1.85"/><path fill="#a586bc" d="M331.95 46.55q1.2 2.4-.65 5.85-6.85 11.55-12.35 21.65-10.7 19.6-11.6 26.3-.5 3.8-5.45.9-4.65-2.7-9.55-8.8-5.25-6.55-6.5-11.9-1.45-6.35 3.7-8.3 9.5-3.6 23.45-13.8 7.5-5.45 15.05-11.9 2.7-2.4 3.9 0"/><path fill="#8f75a3" d="M328.05 46.55l.35-.3q-7.8 13.5-19.95 23.95Q294.7 81.95 288.3 77q-2.55-2-2.05-3.35.4-1.1 2.75-1.55 7.1-1.3 22.5-12.45 8.95-6.55 16.55-13.1"/><path fill="#fff" d="M273.2 94.3q6.9 8.15 7.95 12.2-5.45-.9-13.45-5.3-7.25-4-7.95-5.6-.6-1.35 1.2-4.5 1.8-3.3 4.45-5.25 2.45 2.05 7.8 8.45"/><path fill="#dbdcdc" d="M272.15 96.3q-4.55-4.7-9.65-7.35l1.35-1.7q.75-.95 1.55-1.4 3.5 2.85 8.2 8.5 6.3 7.45 7.55 12.15l-2-.45q-2.7-5.25-7-9.75"/><path fill="#a586bc" d="M244.4 51.55q5.95 5.6 13.6 9.45 3.4 1.7 3.8 3.2.35 1.4-1.7 2.2-4.85 1.8-12.65-.8-4.6-1.55-37.4-7.2l-31.9-5.4-1.25-2.05q-1.75-2.35-4.15-4.05-2.75-1.95-2.95-3.05-.15-.85 1.4-3.9 1.35-2.7-.2-9.25-1.4-6.05-3.65-9.25-1.1-1.6-6.1-5.6-3.95-3.15-3.55-4.4 1.25-3.65 11.55-.4 7.35 2.3 25.2 6.3l.35-7.65q.65-7.8 1.85-8.3.75-.3 2.1 2.75 2.25 5.05 6.75 10 5.2 5.7 11.75 9.3l9.15 4.05q3.55 1.5 5 3.3 1.6 1.9 3.8 7.65 2.65 6.85 9.2 13.1"/><path fill="#8f75a3" d="M253.7 66.1q1.85 1.65-1.45 1.75l-5.65-.4q-2.8-.2-68.45-14.45l-1.25-2.05q-1.75-2.35-4.15-4.05-2.75-1.95-2.95-3.05-.15-.85 1.4-3.9 1.35-2.7-.2-9.25-1.4-6.05-3.65-9.25-1.1-1.6-6.1-5.6-3.95-3.15-3.55-4.4.95-2.75 6.75-1.65-1.4 1.5 9.2 5.4 10.75 4 16.25 3.55 2.1-.15 2.65-.85l.25-.9 1.65.35.35-7.65q.65-7.8 1.85-8.3.5-.2.85.15l.7 1.3q-2.1 3.1 3 10.55 4.75 6.9 10.4 10.65 3.35 2.6 10.15 5.05 4.65 1.65 6.2 5.35 2.15 5.05 10.3 15.1 8.25 10.2 15.45 16.55"/><path fill="#00aca8" d="M212.45 30.7q8.55 2.2 19.15 13.65 9.75 10.55 14.75 21.4-10.45 3.4-16.5 11.3-1.9 2.45-3.1 5.05l-.85 2.15q-1.4 1.15-5.7 1.15-8.6.05-23.2-5.75-13.85-5.5-18.2-18.35-3.6-10.5-.05-20.4 3.05-8.6 12.1-11.15 8.6-2.35 21.6.95"/><path fill="#009693" d="M246.35 65.75l-2.95 1.1q-14.45-12.8-30.25-18.35-17.65-6.15-35.65-2.7.5-2.8 1.25-4.9 3-8.45 11.5-11.05 8.55-2.65 22.2.85 8.55 2.2 19.15 13.65 9.75 10.55 14.75 21.4"/><path fill="#008086" d="M208.6 38.15q9-1.15 19.3 3.15 7.4 6.05 13.05 14.65 3.9 5.95 5.25 10-9.05 2.7-14.4 8.55-1.65 1.8-2.75 3.7l-.75 1.55q-16.8 1.1-27.6-10.9-4.5-5.05-6.15-10.8-1.6-5.8.25-10.25 3.5-8.35 13.8-9.65"/><path fill="#00666c" d="M210.2 38q8.45-.55 17.7 3.3 7.4 6.05 13.05 14.65 3.9 5.95 5.25 10l-3.7 1.3q-8.45-9.45-21.1-15.3-11.7-5.45-25.05-6.95 4.35-6.35 13.85-7"/><path fill="#fff" d="M278.75 147.2q-1.35 1.35-2.75 1.05-1.4-.3-1.6-2 .2-1.05 2.4-3.5l2.15-2.25q.45 5.25-.2 6.7m-5.15-2.6q-1.3 1.3-2.8.45-1.45-.85-1.35-2.45.2-1 2.8-3.25l2.55-2.1q-.1 5.5-1.2 7.35m-4.5-3.55q-1.3 1.3-2.8.3-1.45-.9-1.45-2.85.2-1.05 2.9-3.35 1.35-1.2 2.65-2.15-.65 6.6-1.3 8.05m-4.6-4.4q-1.35 1.3-2.75.25-1.45-1.1-1.55-3.4.2-1 3.05-3.45l2.75-2.25q-.85 7.35-1.5 8.85m-4.65-7.95q-1.5 1.55-3.75.45-2.4-1.25-2.55-4.9.55-2.05 4.45-6.9 1.95-2.45 3.8-4.45-.45 13.2-1.95 15.8"/><path fill="#dbdcdc" d="M274.4 146.25q.25-1.2 3.25-4.45-.6 1.25-1 3.15l-.6 3.3q-1.5-.25-1.65-2m-4.95-3.65q.25-1.35 4.05-4.3-2.05 2.9-2.3 6.9-.8-.25-1.3-1t-.45-1.6m-4.6-4.1q.25-1.2 4.1-4.35l-1.75 3.2q-1.25 2.05-1.5 3.5-.85-1-.85-2.35m-.45-9.45l-2.1 3.25q-1.3 2-1.25 3.8-.75-1-.85-2.6.25-1.2 4.2-4.45m-2.6-16.15l-.05.85q-5.1 6.5-5.8 15.25-2.25-1.25-2.4-4.75.55-2.05 4.45-6.9 1.95-2.45 3.8-4.45"/><path fill="#0d131a" d="M268.25 89q4.25 4.15 6.65 7.85-.7 3.75-4.95 3.75-2.25 0-3.85-1.8t-1.6-4.3q0-1.6.75-3.15 1.05-2.1 3-2.35M11.35 62.2q6.3-11.75 10.2-11.3 4 .5 3.9 13.65Q25.3 77.7 26.6 87.3q1.55 11.85 5.35 20.3l-.8 1.4-.85 1.65q-7.75-19.4-7.35-43.6.2-12.85-2.55-12.25-2.05.4-6.9 9.55-9.65 18.15-10.75 46.6-1.2 31.5 9.25 60.25 8.9 24.45 26.15 43.85 22.4 25.15 56.8 39.2l-.9 2.35q-30.45-11.75-52.2-33.2-22-21.65-32.55-50.65-10.6-29-9.1-62.1 1.3-30 11.15-48.45m71.5 105.4l2.15-1.4q9.3 4.45 20.75 7.55 9.25 2.5 21.35 4.45l-.1 2.2q-23-1.8-44.15-12.8"/><path fill="#0d131a" d="M14.3 90q3.65-.9 7.3-.05 3.5.9 5.15 2.95l-1.05.85q-1.35-1.7-4.35-2.3l-6.3.25q-3.7 1-6.55 3.45Q4 99 2.75 105.75l-1.3-.25q1.4-7.3 6-11.65Q10.6 90.9 14.3 90M4 148.3Q4 140 6.75 134q3.8-8.4 12.55-11l.5 1.25q-7.3 2.85-11.05 10-3.55 6.7-3.55 16.55L4 148.3m17.1 45.5q-2.6-9.95-.65-19.75 2.35-11.85 10.85-17.1l.85 1.05q-7 5.9-9.45 15.5-2.4 9.45-.1 21.05l-1.5-.75m32.5-15.9l3.5-3.65 3.95-.6q-2.85 2.45-4.95 5.1-9.2 11.5-9.55 26.9-.3 14.5 7.05 26.4l-1.6.05q-8.7-14.35-7.45-30.55 1.15-14.3 9.05-23.65m46.45 5.95q7.35-4.95 17.2-6.3l.2 1.4q-9.15 1.3-16.3 6.8-7.15 5.55-11.2 14.5-5.25 11.55-4.3 26.7 1 15.55 8.15 27.65l-2-.25q-8.2-13.8-8.75-30.5-.45-14.8 4.85-25.85 4.35-8.9 12.15-14.15m186.4 29.6q8.7 1.4 16.95 5.35l-1.5.55q-.95.25-1.4.65-6.8-3.1-13.8-4.65l-.25-1.9M256.7 290.4q-1.7-5.85 2.45-18.45.6-.2 3.6-2.6-4.4 12.5-3.85 18.1.55 5.55 6.25 7.95 12.1 5.1 24.35 4.2 10.45-.75 13.35-4.35l-1.15 3.1q-3.15 4.9-17.65 3.8-12.85-1.05-20.2-4.6-5.85-2.9-7.15-7.15m76.7-25.4q3.15 4.45 5 11.75 1.6 6.45 1.2 10l-2.8-1.75q.2-9.6-4.15-17.8l.75-2.2"/><path fill="#0d131a" d="M326.2 306.45q11.25 1.05 19.75.4 9.6-.75 10.7-3.5.85-2.1-3.8-5.75-12.8-10.25-19.7-12.75-5-1.8-10.2-.2-6.45 1.95-12.95 6.15-6.75 4.35-7.3 7.3-.2 1.05.7 1.8 3.75 3 9.45 4.5 4.75 1.25 13.35 2.05m8.15-23.25q7.1 2.75 20.5 13.3 2.8 2.2 3.9 4.65 1 2.3.3 4-1.05 2.65-8.45 3.95l-16.8.75q-23.45-1.05-32.95-8.55-1.7-1.3-1.3-3.35.75-3.75 8.55-8.7 7-4.45 13.95-6.55 6.25-1.85 12.3.5m-3.95-14.05q2.65-4.4 4.2-15.55 1.7-12.3-.95-17-3.45-6.05-10.45-13-7.35-7.3-10.2-7-12.4 1.35-15.3 9l-4.9 11.2q-2.45 5.3-4.55 10.5-1.2 3.05 1.2 7.4 1.85 3.25 5.55 6.95.95.95 2.05 2.95l2.05 4.15q5.05 9.95 7.7 9.6 5.5-.6 12.9-3.1 8.85-3 10.7-6.1m-5.95-47.95q8.15 7.55 11.95 14.9 2.75 5.25.7 18-1.85 11.5-4.8 16.35-2.25 3.75-12.65 7.05-7.55 2.35-12.15 2.85-2.8.3-4.85-2.05-1.7-1.9-5.05-8.5-2.95-5.7-4.15-6.95-4.85-4.85-6.75-8.5-2.05-4-.8-7.05.55-1.45 2.4-5.25l3.05-6.45 5.05-11.75q1.15-3.1 5-5.75 4.5-3.15 10.55-3.8l.25-.3q4-.45 12.25 7.2m16.05 2.3l1.6.45q1.65 6.95 3.05 9.7.8 1.55 1.3 1.45 1.45-.3 3.8-3.15 2.1-2.5 3.2-4.7l1.25.65-3.2 5.15q-2.85 4-4.85 4.4-1.55.3-2.95-3-1.3-3-3-10.2l-.2-.75m36.6-7.75l1.25.2.1 6.5q-.15 6.55-1.45 6.85-1.4.4-4.4-.7l-3.1-1.35.55-1.3q4.55 1.7 6.25 1.3.7-.2.8-11.5"/><path fill="#0d131a" d="M339 221.15q10.15 6.1 18.1 6.3l1.15 1.5q-9.85.15-19.85-5.85-5-3-7.45-6.7-2.05-3.1-2.95-7.85l-1.75-6.35-2.25-5.35q-5.15-9.35-6.7-15.1-1.7-6.3.05-11.1l1.6.5q-1.6 4.5 1.9 13.7 1.9 5.1 6.1 12.95 1.5 2.75 2.8 8.4 1.4 5.6 2.7 8.1 2.2 4.2 6.55 6.85m-1.15-83.65q8.75 2.7 15.25 10.9 5.7 7.2 15.2 18.2 7.7 9.25 11.9 17.55 8 15.65 1.1 28.55-3.8 7.1-11.5 12.35l.4-2.3.95-.9q8.25-8.2 9.95-15.45 1.95-8.65-3.55-21.05-3.4-7.65-11.9-18.2-9.55-11.25-13.2-15.9-6.3-8-14.85-11.35-8.7-3.35-14.25.3l-1.5-.75q6.8-4.85 16-1.95"/><path fill="#0d131a" d="M365.1 233.45q.65-.3 1.6-2.15l1.9-5.15q.85-3 1-5.2.15-1.9-.2-2.35-.95-1.3-4-1.45-3.1-.1-6 1.05-1.45.5-2.45 1.35-1.55 1.2-1.4 2.55.25 2.6 2.8 6 2.35 3.2 4.85 4.75 1.3.8 1.9.6m.85-17.95q3.25.35 4.6 2.25 1.85 2.4-.75 9.9-2.45 7.2-4.4 8-1.5.6-6.2-3.9-5.15-4.95-5.6-9.5-.15-1.55 1.75-3.3 1.7-1.6 4.25-2.6 3.2-1.2 6.35-.85m-32.5-62.35q1.7 7.15.3 12.5-1.2 4.75-4.4 6.65-3.9 2.35-9.4.45-3.05-1.05-5.35-2.8l.85-1.15q2.2 1.55 4.55 2.4 4.6 1.6 8-.4 3.9-2.35 4.6-7.85.55-4.2-.8-9.85-1.2-5-4-8.3-2.9-3.5-7.95-5.65l-.15-1.45q5.2 1.2 9 5.75 3.45 4.15 4.75 9.7"/><path fill="#0d131a" d="M308.4 131.05q.35-.65 2.3-.35 1.9.35 3.75 1.35 4.35 2.5 6.8 7.9 2.8 6.1 2 13.8-.55 6-3.05 10.9-2.3 4.35-5.65 7.1-6.45 5.1-10.4 2.45l.15-1.45q5.6.75 9.35-2.7 6.8-6.2 7.85-16.7.7-7.1-1.95-12.75-2.35-4.9-6.35-7.15-1.4-.8-3.5-1.15-1.65-.3-1.95 0l.65-1.25m57.75-111.9q2.65-.9 3.15.75.55 1.85-2.6 5.45-3.65 4.2-5.95 9-1.45 3.05-5.05 12.75l.7-5.9q2.65-7.15 4.6-10.5 1.3-2.25 4.35-5.7 2.35-2.65 2.2-3.85l-2.5-.05-5.05 1.95q-3.35 1.05-5.55 1.35-3.3.4-3.6-.05-.25-.4 2.9-1.2 5.1-10.1 5.25-14.05.1-3.6-3.5-.55-5.8 5-14.4 10.35-8.75 5.45-15.6 8.25-8 3.35-10.6 5.4-2.95 2.35-3.8 6.45-1.5 7-6.85 14.65-5.05 7.25-9.55 9.75l-1.4-.9q4.85-2.7 9.75-10.4 5.05-7.95 6.25-15.3.7-4.25 5.9-6.9 2.95-1.55 9.55-3.95 6.8-3.05 13.6-7.6L355.4 5.8q2.7-2.05 4.35-.85 1.45 1 1.45 3.5 0 2.1-1.95 6.55l-3.7 7.7q3.6-.65 7.1-2.05l3.5-1.5"/><path fill="#0d131a" d="M332.15 33.55q16.7-7.95 22.6-3.05 4.95 4.25 1.3 18.85-4.85 19.1-14.15 28-7.1 6.8-22.95 12.05l-.6-1.6q16.35-5.45 23.55-13.25 7.05-7.75 12.25-25.6 3.85-13.35-.65-17.2-5.15-4.3-20.7 3.1-9.25 4.5-15.45 11.2-6.25 6.75-10.55 17l-2 .75q7.4-20.55 27.35-30.25"/><path fill="#0d131a" d="M335.35 32.65q4.25-1.85 6.85.05 2.85 2.05 2.05 7.9-1.5 11.4-6.9 20.5-7.3 12.4-20.55 17.7l.2-1.45q13.2-6 19.95-19.1 3.65-7.05 5.6-17.55.9-5.1-1.75-6.8-2.5-1.6-7.25.4l1.8-1.65M162.6 58.25l22.9 14.05 3.4 3.3-9.55-4.95q-10.8-5.85-16.9-10.2-2.7-1.95-3.9-1.4-1.4.65.35 4.55t7.8 14.6q5.1 9.9 4.5 15.05l-2.1-.5q-.55-6.85-4-13.85l-8.25-15.15q-2.15-4-.55-6.1 1.7-2.25 6.3.6m-34.6 74.9q1.65-.6 3.75 1.15 6.45 5.45 11.6 9.2 5.4 3.85 6.4 3.6.65-.45 1.05-4.25.4-3.7.4-8.95l-.3-8.7 1.45-.1.55 11.5q.15 11.5-1.9 12.55-2.6 1.3-19.3-12.85-1.35-1.15-2.25-.95-1.9.25-.1 11.8l2.15 13.6q1.1 7.35 1.2 11.45l2.4-1.2q1.7-.55-1.65 2.7-4.85 4.8-9.7 12.4-5.3 8.4-6.4 14.1l-2.3 1.25q2-8.65 6.9-16.6 3.9-6.3 8.95-11.2-.95-13.3-3.85-27-2.55-12.15.95-13.5m37.4 7.3l1.4.4q-1.05 4.85-4.3 9.9l-7.95 10.5-7.45 9.2q-4.55 5.6-6.6 8.7l-2.4.35 4.9-7.25q2.75-3.9 5.75-7.65l9.95-12.65q5.4-7.35 6.7-11.5m121.4 56.85q1.1-2.45 4.35-7.6l2.45-1.95 2.4-2q-4.5 6.6-6.25 10.05-2.5 4.95-3.85 11.2-.35 1.65.3 4.4l1.35 5q2.5 10 1.95 15.45-1.15 10.75-10.85 24.9-11.95 17.45-45.7 26.95-14.7 4.15-29.45 5.35-14.9 1.15-25.95-1.05l.6-2.35q24.55 4.9 56.6-5.15 13.95-4.4 24.8-10.55 11.05-6.25 15.85-12.65 10.05-13.4 11.6-24.85.9-6.65-1.45-16.2l-1.4-4.95q-.6-2.6-.2-4.45 1.25-6 2.85-9.55"/><path fill="#0d131a" d="M249.2 276.25l-4.95 2.05q-17.85 3.7-39.5-.6-8.55-1.7-15.15-4.2-6.25-2.4-8.1-4.5l1-1.75q1.5 1.7 8 4.05 7.15 2.6 16.1 4.35 23.8 4.75 42.6.6m34.3-56.9l.05-6.75q.1-4.6.55-6.25l1.45 4.85q-.55 2.05-.55 5.6l-.1 4.95q-.2 1.7-.7 1.45l-1.05-1.5q-3.6-5.65-11.45-9.8-7.35-3.95-14.7-4.7-4.5-.4-13.4 2.3-7.9 2.4-17.2 6.6l-9.15 4.3q-5.4 2.55-7.85 3.25-6.15 1.9-14.75-3.1-7.5-4.35-9.55-8.45l.55-1.45q1.45 2.9 8.1 6.9 8.7 5.2 16.05 2.95 3.65-1.15 16.8-7 22.2-10 30.5-8.9 7 1 14.05 4.55 8.25 4.2 12.35 10.2m-99.85-47.1l1.35 2.45q-1.6 5.05-2.4 6.5-1.95 3.55-6.1 5.8l-.45-1.35q2.45-.85 4.7-5.45 1.15-2.45 2.7-7.3l.2-.65M271 154.2l-3.45 1.3q-2.35.9-3.5 1.85-.05-.65-.65-1.55 1.75-1.55 4.8-2.8l2.8 1.2m31.35-9.95l1.1-.9q5.2 5.2 5.25 14.85.05 8.95-4.2 17.5-4.05 8.1-11.65 13.65-5.7 4.15-11.25 5.6-3.85.95-13.2-2.7-8.4-3.3-13.4-6.9-.5-.35-.75-1.05l1.2-.7.4.6q3.35 2.4 12.45 5.55 9.85 3.45 13 2.6 5.05-1.3 10.05-4.8 7.15-4.95 10.95-12.6 4.5-8.95 4.5-17.15 0-8.15-4.45-13.55"/><path fill="#0d131a" d="M218.95 126.75l.95-1.1q2.6 2.3 8.7 6.1l11.85 6.95q11.25 6.55 15.6 9.45 7.15 4.8 8 7.3 1.45 4.35-2.25 15.5-3.05 9.2-5.75 13.4-2 3.25-21.65 7.35-18.95 4-24.85 3.15-4.55-.65-14.45-8.9-8.15-6.8-11-10.45-2.85-3.65-3.05-13.35-.2-9.3 2-13.65l2.1.1q-2.15 4.35-1.7 12.95.4 8.4 2.65 12 2.9 4.6 10.9 11.1 8.65 7 13.3 7.65 5.55.75 24.05-3 18.85-3.85 20.45-6.45 2.7-4.35 5.55-13.05 3.35-10.25 2.1-14.1-.7-2.05-9.6-7.4l-16.4-9.35q-10.85-6.3-17.5-12.2m-48.55 53.2l.95.35q4.9 1.85 8.7 8.75 2.8 5.1 4.8 12.5 4.1 14.8 3.55 27.9-.55 13.55-5.9 18.75l-.75-2.35q3.75-4.7 4.05-18.3.25-13.65-3.15-26-2.15-7.8-5.3-12.65-3.2-4.95-7.05-6.35l-.9-.4q-8.7-3.25-14.95-3.65-11.5-.75-21.75 5.8-10.75 6.8-18.85 23.95-2.95 6.3-4.6 11.95-1.5 5.15-1 6.3l-1.65.8q-.6-1.3.25-6 1-5.5 3.55-11.55 7.1-16.9 21.35-27 10.35-7.35 22.7-6.65 6.75.4 15.95 3.85m-30.05 150.5q10.85-2.85 14.05-9.9l2.3.5q-3.45 8.45-15.5 12.05-11.75 3.5-25.05.6-12-2.65-19.85-13.45-3-4.2-4.45-8.4Q90.45 308 91 306l2.4-.75q-.45 1.7.7 5.15 1.3 3.85 4.05 7.6 7.2 9.95 19.1 12.55 12.4 2.7 23.1-.1"/><path fill="#0d131a" d="M98.8 236.05q3.05-5.35 9.5-11.25 6.05-5.55 11.2-8.2l1.25-.85q-1.75 2.65-2.25 3.75-4.95 3.4-9.8 8.1-5.75 5.55-8 9.9-2 3.8-6.65 23.15-4.4 18.05-7 21.3-1.05 1.35-5.05 4.9-4.45 3.85-5.95 5.85-2.45 3.25-1.2 5.75 2.1 4.15 6.75 6.45 4.15 2 7.1 1.3l3.25-1.2q9.45-3.85 15.7-5.2 12.3-2.6 22.85.45 5.95 1.75 12.15 6.55 4.7 3.65 8.4 8.05l2.25 2.5 2.25 1.65q4.1 1.85 12.15 2.1 8.05.3 10.05-1.35 1.7-1.45 1.1-4.6-.4-2.15-3.45-11.25l-.5-1.45q-.85-2.55.35-8.95l2.9-13.85 2.95-15.8q1.25-8.5.55-12.8-.85-5.2-1.95-8.5-1.65-4.75-4.8-9.1l1-2.8q7.1 9.7 8.45 18.55.75 4.5-.45 13.05l-3 16.25q-1.65 7.95-2.3 14.45-.75 7.2.05 9.7l.5 1.45q2.85 8.45 3 12.15.1 3.8-2.45 5.9-2.5 2.1-11.55 1.8-8.9-.25-13.35-2.3-1.3-.6-3.15-2.55l-2.9-3.4q-10.8-12.9-25.05-14.4-12.5-1.4-30.55 5.95l-2.95 1-2.45.6q-4.35.3-8.9-2.25-4.9-2.7-7.2-7.3-1.65-3.3 1.25-7.45 1.8-2.55 6.7-6.85l5.15-4.9q3.45-4.7 7.25-21.5 4.05-17.75 6.8-22.55"/><path fill="#0d131a" d="M153 195.3q-9.95-2-13.3.45-4.5 3.3-11.85 12.95-7.9 10.4-9.25 15.85-1.9 7.5-.3 20.4 1.75 14.35 6.65 18.25 5.45 4.35 14.5 6.05 8.25 1.5 12.9-.05 2.3-.75 5.95-4.45 3.95-4.05 7.35-9.5 8.85-14.25 8.2-27.8-.65-12.45-3.95-20.55-2.5-6.15-5.5-8-3.15-1.9-11.4-3.6m-14.5-1.65q4-2.9 15.15-.65 9.05 1.8 12.4 3.85 2.55 1.55 5.3 7.05 4.75 9.45 5.5 24.55.75 14.25-9.25 28.95-3.8 5.55-8.2 9.7-4 3.8-6.55 4.65-5.2 1.75-14.4-.3-9.45-2.05-15.05-6.5-5.55-4.45-7.7-20.05-1.9-13.8-.05-21.2 1.45-5.9 10.3-16.9 7.9-9.75 12.55-13.15m33.45-98.8Q175 89.7 184.3 88.2q10.05-1.65 18.05 3.3 8.8 5.45 14.15 15.95 5.95 11.6 3 21.65-3 10.2-13 17-10.3 6.95-20.9 5.3-11.1-1.7-18.45-8.15-7.05-6.15-9.2-15.3l1.75-.45q2.15 8.55 8.95 13.95 6.85 5.45 17.5 7.1 10.95 1.7 20.3-5.1 8.6-6.35 11.1-15.95 2.2-8.45-3.3-19.25Q209 98 201 93.05q-7.15-4.4-16.25-2.9-8.1 1.35-10.8 5.45l-2-.75"/><path fill="#0d131a" d="M188.4 101.25q3.95 3.75 4.95 10.45.95 6.9-1.85 12.85-2.45 5.25-6.95 7.85-4.45 2.55-9.9 1.9-5-.6-16.25-5.45-10.45-4.8-11.2-4.9l1.95-1.75q.5-.05 10.2 4.75 10.7 4.95 15.5 5.55 4.8.55 8.65-1.7 3.85-2.3 6.05-7.05 2.55-5.4 1.95-11.35-.6-5.95-4-9.2-3.35-3.15-13.7-7.3-10.8-4.4-17.15-4.75l-1.1-2.45q6.5.35 17.9 4.75 11.3 4.35 14.95 7.8M119.8 65.2q-18.35 3.65-36.25 13.15l-6 .9Q94.85 68.4 117 63.3q19.05-4.35 24.6-1.85 3 1.35 6 8.5 2.7 6.45 3.45 12.35l-2.05-.6q-4.95-16.85-8.9-17.85-6.2-1.5-20.3 1.35m-90.15 69.95l1.4 1.15q-1.75 4.25-3.1 10.05-1.45 6.1-1.35 9.5.05 2.4 1.95 1.75l7.8-4.05q4.7-2.55 7.45-3.75 4.4-1.95 8.5-2.8l-.5 2.25q-3.3.85-7.3 2.55-4.05 1.8-7.4 3.85-5.75 3.6-8.45 4.65-3.1 1.15-3.75-.35-1.55-3.6.05-11.4 1.5-7.5 4.7-13.4"/><path fill="#0d131a" d="M43.85 146.3l9.1.5.2 3.1q-4.65.4-9.2-.95-7.85-2.3-12.55-9.2-1.6-2.3-2.8-5.2l1.35-.45 1.3-.45q1.15 3.05 2.45 4.9 4.2 6.1 10.15 7.75m38.3-69.45q18.95-4.35 36.55-3.7 18.65.65 29.45 6.8 12.05 6.8 11.65 19.15-.35 11.7-5.6 19.25-4.55 6.55-11.1 8.15-6.9 1.65-16.35 5.05-10.75 3.9-15.5 7-3.05 2-10.15 11.5-8.2 10.9-10.2 12.9-4.35 4.35-7.6 5.8-5.65 2.6-13.1.7l2.9-2.9q5 1.85 9.5-.75 2.2-1.3 7.25-6.35l9.15-11.4q6.8-8.55 12-11.9 5.05-3.25 15-6.75 9.05-3.25 15.8-4.55 5.95-1.2 10.3-7.6 4.95-7.25 5.3-18.3.35-11.2-11-17.35-10.2-5.55-27.8-6.05-16.7-.45-34.75 3.65-18.4 4.15-31.65 11.65Q37.7 99 32.65 108.7l-3.75 2.7q1.15-5.55 7-11.75 5.5-5.8 13.45-10.45 13.55-7.95 32.8-12.35"/><path fill="#0d131a" d="M41.75 120.45q0-3.4-.95-6.4-.9-2.9-2.4-4.55-1.4-1.65-2.6-1.1-6.25 2.8-12.85 11.55-7.1 9.35-6.75 16.05l.25.5q1 .65 5.05-.4l7.75-2.5 5.9-1.85q2.65-.9 3.85-1.8 2.75-2.1 2.75-9.5M43.1 115q1.15 4.95.1 10-.9 4.6-2.9 6.05-1.8 1.35-11.05 4.55l-9.4 3.15-5.3.15q-.9-.65-.9-1.65-.05-8.8 7.8-18.95 7-8.95 13.95-12.05 2-.85 4.3 1.7 2.35 2.6 3.4 7.05m9.4 26.45q1.15-5.85 4.55-10.3 1.35-1.8 2.05-1.75.75.05-.95 3.15-2.3 4.2-3.05 9.7-1 7 1.15 13.65l-1.4 3.9q-4.1-9.55-2.35-18.35"/><path fill="#0d131a" d="M65.95 146.85q-3.75-.7-5.2.9-1.8 2-4.65 11.65-2.85 9.5-2.85 13.15 0 .8.2 1l1.1.25q4.2.05 11.7-3.9 8.2-4.4 11.15-9.35 1.8-3.05-.4-6.55-1.35-2.1-3.8-3.9-3.55-2.55-7.25-3.25m-7.55.1q2-2.7 7.05-2 4.65.65 8.5 3.45 4.15 3.05 5.85 6.15 1.9 3.5.25 6.25-3.3 5.7-11.75 10.55-8.25 4.7-15.85 5.55l-1.45-.1q-.6-.35-.6-1.75 0-3.15 2.95-14 3.1-11.4 5.05-14.1m151.8-48.8q1.6-3.2 4.45-6.9 3-3.9 5.55-5.9l1.95.05q-1.55 1.15-6.25 7.55-4.75 6.4-3.9 6.35 5.8-.4 10.15 0 4.55.45 9.95 1.95l2.6-.4q.65.3-2.05 1.75-2.6 1.45-6.15 5.6-3.3 3.9-4.5 6.5l3.15.2 5.5.65q4.25.7 5.75 2l3.75 5.35q2.65 4.1 7.7 10.55 6.95 8.9 11.1 12.2 18.1 14.4 32.6 7.7 5.95-2.7 10.05-8.6 3.8-5.5 5-12.2l1.95-1.1q-1.05 7.9-5.2 14.2-4.35 6.55-10.85 9.6-15.5 7.25-34.4-7.45-6.3-4.9-19.2-23.35-3.3-4.65-4.3-5.55-1.5-1.4-4.3-1.8l-8-.3q-2.9.05-3.2-.5-.25-.5 1.05-2.9 3.7-6.7 10.2-11.05-7.55-2.05-17.95-1.35l-2.75-.3q-.45-.5.55-2.55"/><path fill="#0d131a" d="M240.75 110.65l-1.35.1q-.15-.4 1-1.25 2.15-1.5 4.65-2.55 2.5-1 3.45-.75 1.65.5 3.75 5.5l3.1 8.5-1.15 1.5-2.6-7.3q-2.2-5.5-3.6-5.85-1.8-.45-7.25 2.1m18.35 18.6l1.75 3.25-.4.95-.45.95-2.6-5.15 1 .15.7-.15m46 3.85l.8.4q-2.7 6.7-7.15 10.85-6.35 6-15.55 6.05-11.65.05-20.8-12.8l1.5-.3.65.9q-.25 1.7.6 2.6.8.8 2.25.75 7.2 7.65 15.75 7.3 7.45-.3 12.2-3.3l1.6-.65.8-1.15q2.15-1.9 4.25-5 1.1-.55.9-1.45l2.2-4.2"/><path fill="#0d131a" d="M302.7 135.75l.85-.5.15 1.95q0 1.05-.55 1.6-.8.8-1.75.75l-.7-.2v-1.1q.4.4.75.4.65.05 1-.5l.35-1.15-.1-1.25"/><path fill="#0d131a" d="M300.7 136.95l.4-.25.4 2.45q.15 1.65-.2 2.1l-.9.85-1.2.3q-.5 0-1.05-.45-.4-.1-.55-.8l-.35-1.25q.6-1.8 1.4-3l1.15-.1-1.1 1.95-.7 1.75.5.7q.4.3.75.3.7 0 1.15-.55l.25-1.15q0-1.15-.4-2.75l.45-.1"/><path fill="#0d131a" d="M297.2 141.15l-.35-1.7q-.15-.25-1.5 2.2t-1.25 2.7l.55.5.95.3.95-.25.75-.45.1-1.05-.2-2.25m-4 3.35q-.05-.3.2-.85l1.8-3.35 1.45-2.2.45-.35q.2 0 .35.55l.6 2.8.25 2.05q0 1.35-.55 1.95-.85 1.05-2.2.95-.95 0-1.9-.85-.4-.35-.45-.7m-25-111.05q-1.65-5-3.75-4.7-2.05.3-4.1 5.15-1.05 2.45-4.25 12.25-2.95 8.85-4.8 11.45l-1.2-.85q.9-1.25 2.3-4.9l2.5-7.3q2.55-8.35 3.8-11.6 2.75-7.15 6.2-6.75 3.1.35 4.8 5.85l3.45 11.05q2.9 8.95 4.95 13.8 4.7.4 11.8 3.05 7.4 2.8 12.3 6.2l-1.9 1.1q-3.65-2.75-9.7-5.25-6.65-2.8-12-3.35 1.45 3.7.95 4.2-.5.55-2.7-4.5-3.1-7.2-8.65-24.9m51.35 62.45q-.7-6.85-4.5-12.3.25-.45.15-1.55-.1-.85.45-.9 5.3 7.3 5.95 14.15.55 6.15-2.6 13.45-.2-.25-.3-1.35l-.35-1.8q1.8-3.75 1.2-9.7"/><path fill="#0d131a" d="M318.6 101.7q3 12.35 1.15 17.55-1.9 5.4-12.75 14.45-4.9 4.15-7.9 3.65-2.1-.35-6.5-4.35-5.85-5.3-9.35-7.1-7.25-3.8-21.65-6.35l.2-1.45q12.95 1.7 20.8 5.6 5.2 2.55 11.2 8.1 3.55 3.3 6.05 3.45 2.7.15 6.4-3.05 9.55-8.25 11.3-12.85 1.85-4.85-.4-16.8-.8-4.25-.15-4.55.65-.3 1.6 3.7m-60.5 15.55q.2.25-.2.7l-.7.7q-1.2.1-2.75-1.35-1.65-1.5-1.9-3l-1.25-2.95q1.25 2.75 3.3 4.35 1.75 1.4 3.5 1.55"/><path fill="#0d131a" d="M325.65 47.15q4.45-3.55 6.6-1.2 2.1 2.2-.05 6.35l-14.8 27.25q-5.75 10.95-8.95 19.85-1.45 4-1.85 2.8-.35-1.15.35-3.7 1.8-6.55 12.95-27.15 5.55-10.3 10.75-19.3 1.9-3.55.65-4.9-1.25-1.35-4.15 1.1-8.95 7.4-18.05 13.9-14.1 10.05-19.4 10.8l-2.5-.2q-.3-.5 2.25-1.25 6.2-1.8 17.55-9.9l18.65-14.45m-30.2 80.7q-.3-.45 0-.65.35-.2.9.25l.9 1 .45 1.95q.1.55-.2.45l-.5-.65-.7-1.25-.85-1.1m10.05-.6l-1.05 1.8-.35.55q-.2.1-.2-.3l.2-1.45.65-.8q.45-.4.7-.25.3.1.05.45M286.25 94.3q-.25-1.3.2-1.1.4.2.6 1.35.75 3.6.75 5.35.05 4.65-2.4 7.15-.7.7-.8.35-.1-.35.4-1.15 1.05-1.5 1.3-6.15.25-3.85-.05-5.8m-13 1.1q-4.4-5.65-7.9-8.75-2.2-1.95-2.15-2.6.05-.65 3 1.8 3.2 2.65 7.4 7.9 4.6 5.7 7.3 10.7 1.65 3.15 1.35 3.45-.35.35-2.15-2.55-2.95-4.85-6.85-9.95"/><path fill="#0d131a" d="M260.5 93.95q-.55 1.5-.9 1.55-.35.05-.05-1.5.45-2.35 2-4.85 1.45-2.35 3.05-3.55l.6.4q.35.35.6.35-3.35 2.3-5.3 7.6m2.05 4.35Q261 97.2 261 96.85q.05-.4 1.6.6 3.7 2.4 8.3 4.6 5.5 2.7 10.1 4l.45.9q-5.6-1.35-11.4-4.15-4.8-2.35-7.5-4.5"/><path fill="#0d131a" d="M274.35 96.7l.4.2.45.05q-.55 1.9-2.2 3.05-1.55 1.05-3.35 1-2.6-.1-4.25-1.8-1.85-1.9-1.6-5.2.15-1.85 1.15-3.4 1-1.4 2.5-2.2l.55.65q-1.3.75-2.2 2.2-.95 1.5-.95 3.15 0 2.4 1.45 4.15 1.45 1.7 3.5 1.7 1.5 0 2.75-.95 1.25-1 1.8-2.6m-29.2-45.45q5.2 5.2 13.45 9.65 1.15.65.75.9l-1.55-.1q-6-1.55-13.25-8.65-7.3-7.2-10-14.35-2.15-5.6-3.7-7.45-1.35-1.65-4.75-3.05-6.15-2.5-8.9-4-7.1-3.9-12.25-9.6-3.5-3.85-6.3-9.05-.95-1.8-1.55-2-.9-.3-1.3 2.5-.35 2.45-.45 6.25-.05 3.55.15 6.15.25 2.85-.55 2.35t-1.1-2.65l-10.3-2.55q-10.3-2.5-14.5-3.85-7.9-2.5-9.55-.85-1.5 1.5 3.05 5.1 4.05 3.15 5.4 5.05 2.95 4.2 4.15 10.3 1.2 6-.25 8.9-1.05 2.05-1 2.9.05 1.55 2.3 3.15 3.95 2.75 4.2 4.5l-.15 1.75q-2.35-2.4-6-4.95-2.7-1.9-2.85-3.7-.1-1.05 1.1-3.4 1.35-2.7.9-7.1-.5-5-3.4-10.6-1.2-2.25-6.8-6.55-4.65-3.7-2.8-6.6 2.05-3.25 11.2-.35l13.6 4.05 11.6 3.1q-.5-7.3.1-11.85.45-3.8 2.3-4.5 2.05-.85 4.05 4.1 2.2 5.5 5.8 9.45 5.4 5.85 13.05 9.5 2.2 1.05 8.3 3.15 3.7 1.55 5.1 3.3 1.3 1.7 3.55 7.5 3.05 8.1 9.15 14.15"/><path fill="#0d131a" d="M230.6 45q-10.45-11-18.35-13.6-11.9-3.95-21.3-.8-8.8 2.95-11.55 10.55-3.4 9.6.05 19.85 4.3 12.6 17.85 17.95 13.05 5.2 21.3 5.7 4.65.25 6.7-.85 1.6-4.8 3.9-7.75 5.35-7 16.15-10.7-4.7-9.85-14.75-20.35M247 65.45q.75 1.9.15 2.05-.6.2-1.3-1.1-8.9 3.15-14.2 9.55-2.05 2.5-5.05 8.5-1.1 2.25-1.4 2-.2-.2-.05-1.15-9.35 2.9-29.2-4.85-14.25-5.6-18.8-19.2-3.7-11.25.25-21.1 3.25-8.1 12.6-11.3 9.7-3.35 21.4.45 11 3.6 22.55 16.6 9.4 10.7 13.05 19.55"/><path fill="#0d131a" d="M203.15 38.15q5.35-1.85 12.55-1.05 7.2.75 12.5 3.7l1.15 1.85q-5.25-2.9-12.2-3.9-7.3-1-12.25.7-6.95 2.45-9.55 8.6-1.55 3.7-.55 8.45 1 4.75 4.2 9.25 4.9 6.9 12.65 10.45 7.75 3.55 16.6 3l.1 1.15q-9.2.6-17.7-3.2-8.6-3.8-13.65-10.9-3.45-4.85-4.55-9.7-1.1-5.05.55-8.9 2.9-7 10.15-9.5m74.15 109.7q.85-.15 1.05-.65.25-.5.35-3l-.1-2.75q-.1-.25-1.85 1.8-1.75 2.1-1.8 2.65-.05.55.25 1.1l.8.75 1.3.1m1.2-7.85l.85-.5q.25.05.35 1.25l-.15 5.35q-.1 1.6-1.1 2.3l-2.85.2q-.7-.25-1.25-.95-.55-.8-.5-1.5.1-.65 1.35-2.3l3.3-3.85"/><path fill="#0d131a" d="M271.2 144.75q1.1.4 2-.4.7-.65 1.25-6.3-.1-.3-2.25 1.85-2.2 2.15-2.3 2.75v.1q0 1.45 1.3 2m-.4.8q-.95-.45-1.45-1.3-.6-.9-.35-1.85.2-.85 2.2-2.85l2.9-2.5q1-.55 1.2-.4l.1 1.85q-.25 3.9-.65 5.15-1.05 3.2-3.95 1.9"/><path fill="#0d131a" d="M269.8 134.05q-.15-.25-2.25 1.8-2.15 2.05-2.25 2.65 0 .9.45 1.65.45.75 1.1 1 .9.4 1.9-.6.35-.75.75-3.5.45-2.75.3-3m.2-1.55q.45-.4.7-.25.3.2.25.85-.35 5.65-1.05 7.45-.95 2.45-3.4 1.45-.95-.4-1.6-1.45-.6-1.1-.55-2.1.05-.9 1-2l1.55-1.55 3.1-2.4"/><path fill="#0d131a" d="M260.65 133.55q.1 1.15.6 2.05.5.9 1.2 1.15.9.35 1.65-.4l.8-3.9.4-3.25q-.1-.2-2.25 1.75-2.25 1.95-2.4 2.6m.8 3.95q-.9-.65-1.4-1.7-.35-.85-.35-2.25 0-.6 1.05-1.9l2.2-2.1q1.8-1.65 2.65-2.25.65-.45.85-.45.25 0 .2.75l-.7 5.5-.6 3q-.55 1.65-1.8 1.9-1.1.2-2.1-.5m-.7-16.15q.95-6.8.5-6.75-.5.05-3.7 4.2-3.35 4.3-3.55 5.5-.25 1.35.4 2.75t1.7 1.8q1.35.6 2.95-.3.7-.4 1.7-7.2m1.7-9.6q.25.15.25 1.5l-.55 7q-.65 5.85-1.35 8.05-1 3-5 1.8-1.7-.65-2.6-2.8-.85-2.15-.15-3.8.8-1.85 4.1-6.1l4.3-4.95q.75-.8 1-.7"/><path fill="#fff" d="M269.85 93.1q0 .8-.5 1.35-.55.55-1.3.55t-1.3-.55q-.6-.55-.6-1.35t.6-1.35q.55-.55 1.3-.55t1.3.55q.5.55.5 1.35"/></svg>