<svg xmlns="http://www.w3.org/2000/svg" width="206" height="199" viewBox="-0.5 -0.15 206.15 199.05"><path fill="#f9dad9" d="M26.95 177.15q-7.5-10.85-6.95-25.4.5-12.55 9.4-21.65 8.45-8.6 19.6-9.65L90.8 171q-3.05 8.5-12.8 14.8-11.9 7.75-26.55 5.8-15.95-2.05-24.5-14.45"/><path fill="#d7bdbc" d="M53.75 145.55q-1.9-4.3-2.65-12.3-.75-8.15-.2-6.7 5.4 13.65 14.4 24.2 10.75 12.65 25.2 19-1.85 7.75-10.4 14.45-7.6 5.85-14.35 6.9-19.9 3.05-30.2-6.25 6.15 2.9 11.2 3.55 4.65.6 7.7-.75 2.65-1.25 3.35-4.85.8-4-2.25-6.65l-7.1-6.3q-5.4-5.45-6.35-9.2 2.6 3.2 6.3 5.15 3.65 1.95 7.55 2.2 3.65.2 7.95-1.7 4.2-1.8 3.15-2.6-2.85-2.1-6.85-7.45-4.25-5.7-6.45-10.7"/><path fill="#0d131a" d="M50.05 122.55q-16.65 1.5-24.3 14-6.85 11.2-3.95 25.65 2.75 13.3 12.45 20.95 8.7 6.85 20.6 7.45 11.4.65 20.9-4.65 10-5.6 13.45-15.55.9-2.65 2-1.9 1.1.7.1 2.9-5.05 11.15-16.05 16.85-10.3 5.35-22.2 4.25-12.1-1.1-20.95-8.45-9.65-7.95-12.25-21.1-3.85-19.45 7.05-31.7 4.55-5.1 10.8-7.65 6-2.5 11.85-2.05.3.4.4.2l.1.8"/><path fill="#0d131a" d="M42.35 142.3q1.4-1.1 1.95-.95.5.15-.3 1.05-4.25 4.65-2.15 12.95 2.2 8.85 9.95 10.95 5.5 1.45 10.9-.85 5.6-2.35 8.2-7.6.7-1.4 1.3-.75.6.65.1 1.65-3.05 6.3-10.05 8.9-6.2 2.25-11.25.45-10-3.55-11.35-13.85-.55-3.9.4-7.5.85-3.3 2.3-4.45"/><path fill="#0d131a" d="M47.35 96.75q.55.3.8.95l11.4 27.9q-2.9 13.65-11.25 16.6l-5.9.4q-4.45-.45-7.4-2.35-8.4-5.4.6-19.05-10.85-5.4-15.75-11.25-4.05-4.85-3.55-9.35.75-6.65 10.15-8.4 10.1-1.85 20.9 4.55"/><path fill="#f9dad9" d="M33.05 93.8q6.1.3 11.65 3.45L57.35 129q-1.35 4.1-3.9 7.05-2.6 3-5.9 4.15-5.9 2.05-11.8-1.95-1.35-.95-1.95-2.1-.5-.95-.65-1.8-.6-3.25 1.45-7.9l2.25-4.1q.9-1.25.75-1.75-.15-.5-1.55-1.15-7.3-3.35-12.65-8.8-5.2-5.25-4.85-8.45.55-4.4 5.2-6.75 3.95-1.9 9.3-1.65"/><path fill="#d7bdbc" d="M38.05 98.85l-.05-4.3q3.6 1 6.7 2.7L57.35 129q-1.9 5.75-6.05 9.05-5.75-7.1-9.2-17.1-3.55-10.4-4.05-22.1"/><path fill="#f9dad9" d="M164.95 54.25q3.3 3.65 4.8 6.2l13.4 4.55q13.55 4.5 14.9 5.75 1.9 1.7 2.1 5.4.2 3.5-1.1 5.2-1.6 2.05-6.75 4-4.35 1.7-8.3 2.3 2.95 8.8 2.85 19.8-.1 11.25-3.35 22.1-7.55 25.1-26.65 35.25-16 8.5-34.7 9.95-16.95 1.3-29.85-3.4-16.55-8-28-22.05-10.4-12.8-15.3-28.85-2-4.15-3.65-14-1.55-8.9-1.25-11.15Q31.15 91 14.4 71.75q-6.55-7.5-10.5-13.9Q0 51.5.95 50.05q5.9-8.85 29.9-14.25 20.75-4.65 34.8-3.5 2.3-11.9 12.55-20.65 8.55-7.25 19.3-10 7.2-1.8 15.5-.25 12.15 2.25 20.4 11.45 8.3-4 14.8-5.6 7.25-1.85 9 .25 5.1 6.25 5.15 21.3.05 13.35-3 20.25 2.2 1.45 5.6 5.2"/><path fill="#ed8599" d="M130 72.05q2.75-1.2 4.4-1.2 3.9 0 6.35 1.9-.45 2.5-1.05 3.1-1.85 1.75-5.45-.2-3-1.6-4.25-3.6"/><path fill="#922f00" d="M140.75 72.75q-3-1.95-6.75-1.95-.2 0-.45-.35-.2-.35-.45-.35 5.3-2.9 5.85-3.55.65.7 1.2 2.65.5 1.8.6 3.55"/><path fill="#0d131a" d="M130.4 72.4q-.5-.65-.15-.8l2.65-1.15q4.15-.5 7.85 1.85v1.15q-4.65-3.5-10.35-1.05"/><path fill="#ed85ad" d="M119.9 76.1q.9-.05 1.4.85.45.75.25 1.4-.25.8-1.05 1.5l-2.45 1.6q-2.7 1.55-4.45 1.5-.9 0-1.3-.85-.35-.85.05-1.7.75-1.55 3.45-3 2.4-1.3 4.1-1.3m34.85-19.55q1.1 1.45-1.95 3.9-1.15.95-2.4 1.1-1.25.1-1.7-.6-.8-1.3 2.05-3.45 1.6-1.25 2.55-1.5.9-.2 1.45.55"/><path fill="#524423" d="M37.25 39.1q3.9 3.15 6.8 6.9 3.7 4.9 5.75 10.1 2.05 5.2 1 6.8l-9.55.35q-8.1-.95-18.1-3.45-10.55-2.65-16.6-5.4-6.95-3.15-5.15-5.25 4.3-5.05 16.3-9.65 11.05-4.3 14.55-3.55 1.65.4 5 3.15m103-29.75q3.45-1.65 7.8-2.55l7.05-.2q2.15.7 4.35 6.4 2 5.3 1.85 8.2-2.7-3.45-10.45-7.7-7.5-4.1-10.6-4.15"/><path fill="#d7bdbc" d="M100.4 41.35q-1-1-1.2-3.7-.2-2.8.7-5.6 2.3-7.45 9.55-8.15 6.95-.65 10.8 4.95 1.9 2.8 1.9 5.1-3.4-3.5-7.05-4.75-2.9-1-5.2-.45-6.1 1.45-8.4 7.2-1.15 2.85-1.1 5.4m7.95 11.45q5.45 2.75 10.9 2 3.7-.5 7.5-2.45 5.65-2.9 8.55-8 0 2.3-1.5 5.6-1.75 3.8-4.6 6.5-4.9 4.45-11.3 4.1-5.75-.3-10.6-4.65-3.8-3.4-5.1-7.05l6.15 3.95m-40 22.55q-4.75 11.7-1.4 30.45 3 17.05 9.65 26.55 8.5 12.25 22.7 20.15 13.15 7.3 28.35 9.45 14.8 2.05 27.3-1.35 12.95-3.55 19.6-12.1-13.3 18.35-39.25 24.1-22.6 5.05-40.75-1.25-19.65-6.85-33.2-26.6-14.7-21.45-16.9-51.05-.4-5.6 9.85-12.55 9.65-6.6 14.05-5.8"/><path fill="#d7bdbc" d="M155.65 174.85q-8.4 11.5-14.9 14.75-2.8 1.45-6.5 1.75-4.65.4-7.85-1.55-2-1.2-4.85-5.6-3-4.65-4.25-8.85 9.1 0 21.65-3.5 14.9-4.15 24.65-10.95-.45 3.6-7.95 13.95M90.75 73.4q3.55.7 8.1 12.45 4.4 11.25 3.85 16.15-.35 3.25-3.45 3.85-3.1.55-3.3-3.25-.2-3.95-2.7-13.25-2.45-9.2-4.4-13.6-.4-.9.55-1.7.8-.75 1.35-.65m89.85 5.05q4.75-.5 11.5-2.05 6.3-1.45 7.7-2.25 1.3 4.5-.8 7.45-1.05 1.5-7.2 3.9-5.9 2.25-7.65 2.1-1.4-5.6-3.55-9.15"/><path fill="#fff" d="M198.85 82.35q1.55-1.05 1.5-4.05-.1-2.3-.8-3.85 1.7.75 3.55 2.35 1.95 1.7 1.65 2.45-.35.9-2.2 1.9-1.9 1.1-3.7 1.2m-71.4 109.1l2.45.1q3.6.55 6.3 0 1.8-.35 3.85-1.45 1.4-.75 1.85-.5.7.45-.75 3.55-1.55 3.3-3.5 4-1.5.55-5.7-1.95-4.05-2.4-4.5-3.75"/><path fill="#0d131a" d="M40.85 33q19.45-2.85 30.45-.1 2.55.65 2.5 1.15l-2.3.15q-18.75-2.65-40.55 2.6Q9.9 41.85 3.7 49.6q-1.65 2.05 2.25 8.55 3.6 5.9 10.5 13.55Q32.5 89.55 43.1 93.5q2.25.85 1.85 1.8l-2.75-.05q-10.8-4.7-22.3-16.3-8.55-8.6-15.85-19.2-4.25-6.2-4-8.9.25-3.05 5.9-6.6 13.3-8.1 34.9-11.25"/><path fill="#0d131a" d="M138.75 24.3q3.65 19.05-11.05 28.4-6.8 4.35-15 2.85-8.1-1.5-11.3-7.4-3.3-6.2-.85-12.3 2.25-5.65 7.4-7.4 7.25-2.4 11.9 1.95 4.25 3.9 2.75 8.8-.95 2.95-1.6 2.3-.7-.65-.15-2.8 1.25-4.95-3.6-7.65-4.8-2.65-9.5-.1-4.35 2.35-5.75 6.55-1.45 4.45 1.15 9.35 3 5.55 10 6.95 7.1 1.4 13.55-2.45 7.95-4.7 10.4-13.35 2.3-8.15-.95-16.65-3.35-8.75-11.1-14-8.6-5.85-20.05-5.4-12.95.45-23.85 8.8-11.45 8.8-14.85 22.1l-.95.35q-.9.05-.75-.45 4.1-15.25 16.2-24.3Q92.05 0 105.6 0q13.6 0 23 7.8 8.3 6.85 10.15 16.5"/><path fill="#0d131a" d="M156.25 6.1q4.05 2.6 6 14.7 2.3 14.45-2.35 28.6-.45 1.4-1.05.45-.6-.9-.3-2.05 3.85-12.75 1.6-26.2-1.95-11.55-5.45-13.3-2.2-1.05-8.95.75-6.65 1.8-11.8 4.75l-1.65-.1q-.55-.7.05-1.1 5.95-3.75 13.85-5.85 7.8-2.05 10.05-.65M17 74.5Q9.15 66.25 4.25 58.45q-4.75-7.55-2.6-7.8Q21.5 47.85 48.6 61q10.05 4.9 15.95 9.6 5.8 4.65 3.05 5.4-5.2 1.4-13.25 8.8-6.55 6.05-9.5 10.4-5.9-1.45-12.65-6.6-6.15-4.65-15.2-14.1m93.65-11.05q.8-.35 2.05.5 1.2.85 2.15 2.4 1.1 1.8 1.35 3.2.25 1.4-.6 1.85-.75.35-2-.7l-1.95-2.25q-2.8-4.2-1-5m8.25 8.95l.75-.7.4-.9q.8-2.05-1-4.3-.55-.7 0-1.3.55-.6 1.5.35 1.05 1.05 1.4 2.85.3 1.65-.15 3l-.85 1.6-1.3 1q-.8.45-1.2-.2-.4-.7.45-1.4"/><path fill="#fff" d="M112.8 64.9q.45.65.5 1.25.1.6-.25.85l-.9-.05q-.55-.25-1-.9-.45-.6-.5-1.2-.1-.6.25-.85t.9 0q.55.25 1 .9"/><path fill="#0d131a" d="M134.6 51.75l2-.05q1 .65 2 2.05.9 1.15 1.2 2.25.45 1.45-.4 2-.95.65-3.35-2.35-2.35-2.9-1.45-3.9m7.8.55q-.45-.6.15-1.15.6-.55 1.25.15l1.9 2.45q.9 1.65.85 2.9-.1 2.65-1.85 3.6-.85.4-1.2-.3-.4-.7.1-1.1 1.25-.9 1.1-2.5-.1-1.2-.8-2.2l-1.5-1.85"/><path fill="#fff" d="M135.5 53.6q-.9-1.25-.2-1.75l.75.05.85.75.4 1.05-.2.7q-.3.25-.75 0l-.85-.8"/><path fill="#0d131a" d="M140 72.8q.15-1.2-.45-3.2l-.85-2.25q-2.8 2.8-7.6 4.65l1.45 1.55q1.6 1.6 2.5 1.95 2.3.95 3.6.05 1.2-.75 1.35-2.75m-11.1-.65q-.4-.8.5-1.2 2.85-1.1 5.95-2.95 3.2-1.9 4.3-3.2.5-.55.75-.2.2.35-.15.9l-.8 1.05q.7.8 1.25 2.85.6 2.05.55 3.65-.15 3-2.15 4-1.95.95-4.7-.35-1.2-.55-3.05-2.05-1.9-1.6-2.45-2.5m-30.8 8.8q4.6 9.3 5.05 19.05.1 2.75-.65 3.15-.75.4-1.05-2.7-.55-7.15-4.35-16.3-3.85-9.3-7.25-11.2-3.05-1.7-5.85-.1-2.3 1.3-3.75 4.25-.95 2.05-2 10.7-.8 6.8-.95 10.1-.1 2.7-.8 2.7-.7 0-1-3.05-.3-3.35.8-10.95 1.2-8 2.7-11.1 2.3-4.65 6.2-5.45 3.1-.6 5.7 1.1 3.4 2.15 7.2 9.8"/><path fill="#0d131a" d="M86.4 73.05q0 .6-3.25 1.6-3.25.95-3.6.45-1.05-1.4-.75-5.35.3-4.1 1.85-4.6 1.4-.4 3.55 2.15 2.3 2.75 2.2 5.75"/><path fill="#fff" d="M82.7 72.65l-2.2.1q-.55-1.1-.25-3.45.25-2.35.8-2.45 1.05-.15 2.45 2.35 1.4 2.55-.8 3.45"/><path fill="#0d131a" d="M89.6 65.55q2.1.25 2.85 3.6.7 3-.1 4.3-.25.45-.6-.2-.3-.65-.25-1.15.15-1.5-.5-3.05-.65-1.6-1.55-1.65-1.05-.05-1.85 1.05-.6.75-.85 1.75l-.65.65q-.6.2-.5-.75.1-1.4 1.35-3 1.35-1.7 2.65-1.55"/><path fill="#0d131a" d="M84.05 72.7Q85 71.2 86.7 70q2.1-1.5 3.4-.8.8.4 1.1 2.3.3 1.8-.1 3.45-.35 1.4-1.95 2.15-1.75.75-3.45.05-1.45-.65-2-1.6-.7-1.3.35-2.85"/><path fill="#fff" d="M85.4 72.95l1.9-1.6q1.45-.95 2.05-.7 1.1.5.5 2.9-.95 3.15-3.65 2.35-.75-.2-1.15-.95-.55-.9.35-2"/><path fill="#0d131a" d="M168.75 60q-1-1.05-.5-1l13.55 4.8 14.75 5.25q3 .85 4.05 5.9 1.05 4.8-.6 6.65-2.05 2.35-8.85 4.95-6.4 2.4-7.7 1.9-.65-.3-.8-1-.15-.7.55-.75 3.75-.25 9.55-2.75 5.25-2.3 6-3.4 1.4-2.15.4-5.9-1.05-3.75-3.2-4.4-23.55-7.95-25.5-8.9l-1.7-1.35"/><path fill="#0d131a" d="M191.85 72.4l1.2-.05q2.3.3 3.85 1.35 1.35.95 1.45 1.95.15 1.6-1.95 3.2-1.75 1.35-2.95 1.5-2.7.3-.15-1.2l2.05-1.45q1.15-1 1.3-1.75.2-.9-1.1-1.65l-2.5-1.1-1.2-.8"/><path fill="#0d131a" d="M195.05 68.95q.95-1.4 4.3-1.75 3.35-.4 4.25 1 .7 1.1-1.05 3.8-1.75 2.65-3.35 3.2-1.35.45-3.25-2.15-1.95-2.65-.9-4.1"/><path fill="#fff" d="M196.2 70.4q.35-1.8 3.55-2 3.25-.2 2.8.95-.5 1.3-1.8 2.8-1.45 1.8-2.2 1.45l-1.7-1.3q-.85-1-.65-1.9"/><path fill="#0d131a" d="M199.05 81.35q.8.1 2.5-.55 1.75-.7 2.3-1.3.5-.5-1.35-2l-2.6-1.7-.4-.9q-.25-.8.3-.75 1.45.1 3.6 2 2.25 2 1.9 3.4-.45 1.7-3.9 2.85-3.1 1-4.3.6-.85-.25.3-1 1.1-.7 1.65-.65m-36.2 79.75q.65-1.95 2.1-3.05 1.5-1.15.7 1.35-3.05 9.7-12.45 20.3-8 9.05-13.05 11.3-4.35 1.95-8.7 1.5-5.1-.55-8.1-4.35-6.3-8.1-6.95-11-.05-.5.85-1.2t1.15-.55l1.65 3.75q2.1 4.4 4.5 7.35 2.75 3.35 7.4 3.9 4.1.45 7.4-1.25 7.3-3.9 15-13.75 6.65-8.55 8.5-14.3"/><path fill="#0d131a" d="M140.3 191.05q-.05-1.4 1.25-2.1 1.25-.7 1.35.35.2 2.95-1.4 5.65-1.55 2.45-3.5 3.05-2.85.9-7.95-2.85-5.1-3.7-5.65-6.85-.15-.65 1.55.9l2.15 2.15q1.35 1.6 4.5 3.5 3.55 2.1 4.95 1.5 1.4-.65 2.2-2.4.7-1.5.55-2.9M33.25 35.25q7.5 3.65 14.1 14.45 5.9 9.8 5.25 14.05-.55 3.8-2.25-.55-.5-6.8-6.65-15.8-6.5-9.5-12.9-11.2-2.25-.6-.2-.9l2.65-.05m128.2-12.8q-3.5-4.2-10.05-7.9-6.85-3.9-12.4-4.55-.6-.1.25-.6.85-.55 1.75-.4 5.15.85 10.9 3.85 6.3 3.25 9.25 7.1 1.4 1.8 1.1 2.5-.3.65-.8 0M182.2 136.8q-10.6 24.4-34.7 33.65-21.35 8.2-48.45 3.15-10.45-1.9-20.45-9.05-10.15-7.25-18-18.55-17.65-25.4-17.35-59.15.05-4.35.85-2.85.85 1.45.85 4.45 0 26.4 13.75 50.15 15.65 27.05 40.95 33 23.1 5.45 45.25-2.65 25.85-9.4 35.5-33.55 12.4-31-4.4-62.45-6.8-12.75-17.25-22.8-9.7-9.3-19.55-13.55-.45-.2-.7-1.5-.3-1.3.95-.65 30.05 15.45 42.4 45.7 5.7 14.1 5.9 28.6.15 14.9-5.55 28.05"/><path fill="#0d131a" d="M94.15 135.1q5.8-6.45 12.55-6.15 9.2.4 14.95 8.3 5.25 7.2 5.8 17.7.7 12.75-5 19.1-4.6 5.15-12.8 5.65-11.65.75-17.8-7.3-6.1-8-4.55-21.6 1-9.15 6.85-15.7"/><path fill="#f9dad9" d="M96.6 135.15q4.9-5.35 8.95-5.1 9.55.65 14.9 9.15 4.7 7.45 4.75 17.9l-.05 2.5q-.05-7.65-4.75-11.85-3.65-3.25-8.3-3.45-6.2-.3-11.15 5.6-4.7 5.55-5.4 12.7-.7 8.3 2.85 12.85-4.95-3.05-7.25-9.3-2-5.45-1.65-12.1.7-11.9 7.1-18.9"/><path fill="#d7bdbc" d="M112.1 144.3q4.65.2 8.3 3.45 4.7 4.2 4.75 11.85-.55 8.35-4.9 13.35-4.35 5-11.05 5.1-6.4.05-10.8-2.6-3.55-4.55-2.85-12.85.7-7.15 5.4-12.7 4.95-5.9 11.15-5.6"/><path fill="#0d131a" d="M99.35 138.1q-2-2.1.95-6.5 3.05-4.6 7.65-4.95 4-.25 7.65 2.9 3.7 3.2 2.95 6.6-.8 3.55-8.2 4.55-7.55 1-11-2.6"/><path fill="#fff" d="M101.1 136.5q-1.2-1.3 1.45-4.35 2.75-3.15 5.75-3.35 2.6-.2 5.6 2.15 3.05 2.4 2.55 4.55-.5 2.25-6.75 2.8-6.4.55-8.6-1.8"/><path fill="#0d131a" d="M138.75 66.15l.75-.8.1.8q.8 1.1.75 2.2-.05.8-.45 1.2-.25.3-1.2 0-1-.3-2.1-1.05l-.6-.4 2.75-1.95"/><path fill="#fff" d="M139.2 67l.3 1.1-.2.7-.5-.05-1-.7 1.4-1.05"/></svg>