<svg xmlns="http://www.w3.org/2000/svg" width="356" height="328" viewBox="-0.75 -0.9 355.55 328.3"><path fill="#f7c6bd" d="M256.05 80.3q-.25-5.3.9-5.65 2.6-.8 5.75 1.85 1.6 1.3 2.65 2.8l3.3-1.65q3.5-1.6 4.45-1.05 1 .55 1.25 4.15l.05 3.5 3.05.9q3.1 1.1 3.6 2.2.3.65-.9 2.35L277 94.4q.3 14.1-4.95 35.25-3.4 13.75-6.65 22.3 7.55 16.65 10.9 36.7 3.25 19.7 2 40-1.65 26.7-9.5 51.6-8 25.35-19.3 38.8-10.35 2.8-32.65 2-3.3-1.75-10.4-17.45-7.05-15.65-8.65-16.45l-6.2-.25-11.45.7q-17.75.7-28.75-3.7-14.1-5.65-25.2-16.2-10.65-10.1-17.05-23.25-5.3-10.95-8.45-20l-3.65-11.6q-9.6-1.7-26.25-13.75-14.35-10.45-17.35-15-3.45-.8-6.3-1.95-3.1-1.35-3.15-2.3-.05-.95 1.95-2.75l2.85-2.95-2.45-4.3q-2-3.4-1.75-3.85.65-1.2 7.9-1.2.7-2.2 1.85-3.85 1.35-1.95 2.6-1.95 1.4 0 4.35 3.05l13.75 2.65q14.35 2.95 17.2 4.7-.1-2.65.25-6.85l.4-4.95q0-.5-12.2-3.95l-27.75-7.95q-42.1-12.3-50.05-18.25-1.3-.9-.45-1.7.6-.65 2.7-1.3 7.85-3.6 52.25-12.1l44.4-8.1q-.5-8.75 2.1-15.85 3.85-10.45 13.85-15.5 6.9-3.5 15-3.35 10.9.15 20.05 7.4 5.4-7.45 50.4-42.25 46-35.6 49.85-33.55 3.8 2.05-13.75 45.6-8.85 21.95-18.75 45.2 2.9 2.05 8.65 7.75 6.3 6.2 6.9 8.1 7.1-10.4 20.45-22.25l-.5-5.25"/><path fill="#f09ba5" d="M21.55 192.85q-2.4-2.1-.5-3.7 1.3-1.1 4.1-1.8 4.3-1.1 15.4-1.65l13.75.6q7.25 7.65 18.85 14.55 12.6 7.5 23.9 10.15.4 4.35 5 17.95 4.3 12.65 5.45 14.45-2.05 1.5-7.7 4.65-7.35 4.05-10.7 4.8-2.1.45-2.45-1-.35-1.25.55-2.7 3.15-6.05 4.9-8.5.45-.6 0-1.25t-1.35-.6l-20.55 1.6-16.65.95q-3.9-.75-5.55-1.9-2.5-1.7.95-4l30.95-19.7-27.55-10q-28.1-10.5-30.8-12.9"/><path fill="#f7c6bd" d="M308.6 197.55l5.05 6.8q2.85 4 4.15 7.1 3.2 7.7 4.5 15.5 1.2 7.45.4 13.15-3.6 24.9-17.35 39.4-15.75 16.65-42.1 16 4.35-7.3 9.55-27.95 4.2-16.85 6.25-30.55 1.65-10.8.15-32.15-1.5-21.55-4.5-29.15 16.95 1.8 29.55 14.75 1.1 1.15 2.3 3.5 1.35 2.65 2.05 3.6"/><path fill="#d5aba4" d="M114 252.35q17.95 12.6 42.1 19.95 20.3 6.15 35.05 6.15 6.3 3.15 9.85 8.1 1.9 2.6 3.65 7.15l-1.8-2.35q-3.45-4-7.4-3.85-26.9 1.1-43.7-4.7Q129 274.9 114 252.35m149.25 3.2q5.15-10.25 9.15-30 3.35-16.35 5.25-35.45 2.25 10.35 1.3 35.2-1.05 28.8-6.4 46.05-5.4 17.4-10.8 29.05-10.05 21.85-18.45 20.65-1.25-.2-.9-1.9.25-1.05 1.8-4.9 4.25-10.4 5.6-19.2 1.05-6.8-4.6-11.7l-4.05-3.1q-1.95-1.45-2-2.4-.1-1.1 2.6-2.8l6.5-3.9q10.55-6.65 15-15.6m9.55-159q.8-1.6 2.15-1.8 1.25-.2 1.55.9 1.7 6.35-3.6 29.1-4.75 20.4-7.7 26.45l1.95 4.9q2.1 5.25 2.95 8.65.5 2-.5 2.4-.95.4-2.3-.9l-9.15-8.4q-4.75-4.3-6.1-6.05-.45-.6-.35-1.7.05-.9.3-1.3 6-9.25 13.7-31 6.6-20.25 7.1-21.25M252.75 1.5q2.6 1.6-13.45 43.5-14.1 36.65-19.65 48.1-1.7 3.45-3.8 2.8-1.8-.5-3.45-3.7-1.55-2.8-2.2-6.1-.65-3.35.15-4.45Q218.5 70.15 233.3 41q12.95-25.4 17.8-37.4l1-1.7q.5-.5.65-.4M1.15 126.8q-.4-2.15 41.65 8.3l49.3 12.15q4.45.75 6.4 5.8.75 2.1.35 3.55-.4 1.6-2.05 1.65-4.5.2-48.8-13.3Q1.9 130.9 1.15 126.8m74.7 64.8q17.95 10.45 18.9 10.6 1.25.15 2 5.05.75 4.9-.5 4.8-9.35-.85-24.65-12-14-10.15-18.65-17.5-.95-1.55.2-2.45l3.05.05 19.65 11.45"/><path fill="#d08690" d="M22.55 194.2q-2.45-1.35-3.3-2.1-1.45-1.35 1-2 .9-.2 30.6 9.65Q81.1 209.8 83.6 211.7q1.25.95.45 2.6-.9 1.95-5.1.9-4-1-29-10.3-25.2-9.35-27.4-10.7M88 233.5q3.8-.35 5.75 1.7 1.9 2.05-1.3 2.5l-42.75 3.25q-1.3-.05-1.85-.8-.55-.7.15-1.3 1.05-.85 18.8-3L88 233.5m20.1 10.3q-2.15 1.6-8.85 5.1-7.3 3.85-9.5 4.2l-3.15.15q-1.6-.15-.2-.95 1.3-.7 9.8-6.4l9.3-6.3q.75-.5 2.05 1.6 1.25 2.1.55 2.6"/><path fill="#d5aba4" d="M148.15 95.85q-.2-1.15 2.95-.3 1.95.65 2.9 6.7.9 5.75 0 9.1-1.85 7.2-8.2 12.65-6.95 5.95-15.75 6.4-8.3.4-15.75-4.95-6.55-4.7-7.5-9.45-.35-1.8.35-1.8l1.7.7 2.7 1.7q2.9 1.7 6 2.7 9.7 3.15 19.6-.7 6.1-2.3 9.2-8.6 3.1-6.35 1.8-14.15M288.8 194.4q12.5 3.15 18.2 3.1 1.3 0 1.3 1.05l-.25 1.3q.45 1.85-1.55 6.75-2.05 5.2-4 5.35l-13.05-.85q-10.9-1.2-10.45-2.6.2-.6-.15-7.6-.35-7.25-.85-9.05l10.8 2.55m33.45 50.95q-2.4 20.55-19.55 35.6-17.3 15.15-38.05 14.4-3.15-.15-1.05-4 2.1-3.8 4.65-3.85 14.85-.35 31-13.1 16.2-12.8 20.2-27.4.45-1.8 1.8-3.6 1.45-1.95 1 1.95m-26.95-4.85q.75-2.6 1.1-2.7.55-.15.6 4.25.2 9.15-7.15 17.8-7.1 8.45-15.2 9.55-1.5.25-.8-4.25.65-4.5 2.65-4.7 3.4-.3 8.95-5 7.3-6.2 9.85-14.95"/><path fill="#922f00" d="M162.95 146.2q4.35-1.2 4.55-.75 2.65 5.95 1.45 11.35-1.2 5.35-5.35 6.8-4.2 1.45-9.2-2.3-4.25-3.15-6.2-7.35-.45-1.05 2.45-2.9 2.3-1.45 5-2.5 3.3-1.3 7.3-2.35"/><path fill="#0d131a" d="M293.65 219.8q5.1 8.15 5.1 18.3 0 12.3-7.45 21.4-7.25 8.9-19.05 11.65-.7.2-.1-1.3t1.3-1.75q9.8-3.05 15.9-11.35 6.15-8.4 6.15-18.95 0-8.75-4.25-16.15-4.2-7.2-11.4-11.4-1-.55-1-1.95 0-1.35 1.05-.8 8.75 4.4 13.75 12.3"/><path fill="#0d131a" d="M275.95 180.3q-.95-.15-1.5-1.75t.4-1.4q23.45 4 37.5 24.1 13.35 19.1 11.05 41.35-2.55 24.85-20.2 40.1-17.55 15.1-41.75 13.6-.55-.05.3-1.4.9-1.4 1.35-1.35 21.6 1.45 38.05-13.4 16.4-14.85 18.8-37.95 2.3-22.5-10.45-40.4-12.75-17.8-33.55-21.5M.25 125.55q.9-1.6 4.6-2.95 13-4.7 47.75-11.35 27.75-5.3 48.35-8.15l1.2 1.15q.3.4-.35 1.7-8.05.7-36.5 5.95-32.5 6-50.55 10.9-8.65 2.35-8.05 3.9.3.65 7.1 3.85 10.2 4.7 44.45 15.05l34.2 10.05q5.75 1.9 5.75 3.1 0 1.15-5.45-.3Q69 152.3 49.15 146.3 15 135.95 2.05 128.8q-2.8-1.55-1.8-3.25m250.1-106.7q-4.45 14.4-12.05 34.2Q230.25 74 222.2 91.7q-2.15 4.65-3.6 4.8-1.5.15 1.15-6.3l15.3-38q9.4-24.05 12.45-35.25 2.65-9.7 2.15-10.2-.4-.35-2.1.6l-4.7 2.65q-12.2 6.35-46.8 33.45-32.55 25.5-41.65 34.8l-1.75-.6q-.4-.2-.55-.75 11.4-12.3 43.5-37.2 28.75-22.25 44.35-32.2l9.25-5.9q3.6-2.05 4.65-1.45 1.95 1.15-3.5 18.7"/><path fill="#0d131a" d="M103.35 85.75q5.55-10.4 16.3-14.9 10.35-4.3 22.1-.45Q152 73.75 157 80.6q1.4 1.95 1.1 2.75-.35.8-2.1-.95-15.6-15.9-34.6-9.25-8.65 3-14.25 12-6.5 10.5-2.55 21.6 3.25 9.2 11.65 13.95 9.35 5.25 20.15 1.35 7-2.55 10.7-8.75 3.6-6.05 2.35-12.35-1.3-6.75-5.6-9.65-3.55-2.35-7.75-1.55-2.55.45-4.55 2.65-2.15 2.45-2.1 5.55.05 1.7-.7 1.75-.7.05-1.05-1.75-.65-3.75 1.8-6.95t6.7-4.2q5.1-1.1 9.7 2.3 4.8 3.55 6.25 10.2 1.85 8.3-3.1 16.25-4.8 7.7-12.5 9.75-14.25 3.8-24.25-3.1-7.15-4.95-10.55-13.75-4.35-11.45 1.6-22.7M95.7 211.8q-.6-3.7.3-5.05.9-1.4 1.45 2.4 1.45 10.45 7.35 24.5 6.25 14.9 12.05 20.4 1.7 1.6.35 3.55l-2.6.05q-7.95-12.65-10.45-17.85-6.1-12.7-8.45-28"/><path fill="#f09ba5" d="M336.85 90.85q-2.85 5.6-7.45 12.35-8.1 11.85-32.7 43.45l23.2 1.7q24.35 2.05 30.05 3.6 3.15.9 2.05 3.2-1 2.1-4.55 4.15-4.35 2.45-53.8 20.15l4.5 4.7 5.85 6.45 3.7 4.7q1.45 3.1-4.45 2.55-6.05-.6-15.75-3.15-8.4-2.15-9.5-2.85-.3-.25-6.3-19.95-6.05-19.8-7.2-20.8 1.25-2.2 5.8-17 4.65-15.05 4.7-17.5 2.5-2.5 26.7-15.85 12.25-6.8 25.55-13.9 6.55-3.7 9.8-3.15 3.8.6-.2 7.15"/><path fill="#d08690" d="M279.55 193.6q-2.7-.9-3.25-3.3-.5-2.4 1.85-1.6 2.35.85 14.6 3.65l13.25 3.2q1.85.7 1.2 1.3-.65.6-3.7 1.05-2.65.4-12.3-1.55-8.35-1.65-11.65-2.75"/><path fill="#0d131a" d="M91.75 176.65q-1.25-7.6-1.4-10.8-.2-3.35.4-9.35.1-1.15 1.6-.6 1.55.6 1.45 1.5-.15 1.5-.05 7.75.1 7.25.55 11.25.45 4.05-.7 4.35-1.15.25-1.85-4.1M199 289.9q-1.65-1.55-8.6-1.1-10.15.6-15.4.05-2.05-.25-1.65-2.05.4-1.8 1.7-1.6 5.45 1 15.9.35 8.1-.55 9.75 1.05 2.35 2.25 5.75 12.8 3.55 11.05 8.85 16.85 2.75 3 3 3.75.25.85-2.1.25-5.1-1.35-11.15-15.45-5.25-14.15-6.05-14.9m79.8-97.15q3.6 22.1 1.35 44.85-2.45 25.25-13.05 51.85-8.15 20.6-15.6 30.25-.45.65-.9-.9-.5-1.55.15-2.6 7.8-12.95 13.9-28.7 9.65-24.9 11.9-49.55 2.5-27.5-1.75-50.3-2.9-15.9-10.3-33.6-.3-2 .2-3.75.45-1.65.75-1.05 9.65 20.9 13.35 43.5m-58.1-98.6q-1.65-1.25-1.15-2.6.5-1.3 1.85-.4 3.6 2.55 7.8 6.6 4.6 4.45 7.9 8.85.8 1.1-.65 2.1-1.5.95-2.1-.15-1.85-3.2-7-8.4-4.25-4.2-6.65-6m-173.05 47.9q4.35 1.95 2.25 2-2.15 0-4.2-1-12-3.05-22.65-6.35-21-6.55-20.7-11 .15-1.95 17.5-6.75 14.7-4 22.85-5.4 2.5-.4 2.5.45-.05.85-2.25 1.45-5.25 1.4-9.6 4.5-4.95 3.55-5.4 7.25-.65 5.3 6.95 9.4 4.2 2.3 12.75 5.45M246.7 28.15q-8.55 25.7-8.1 20.3.65-9.3-.35-16.95-.95-6.95-2.7-9.2-2.35-3.05-8.35-.9-3.9 1.4-14.75 7.55Q249 .15 252.7 2.25q2.2 1.25-6 25.9m-122.15 114.1q-.35-1.05.2-1.2.55-.15.85.9.8 2.8 2.15 4.75 1.1 1.55 2.25 2.2 2.45 1.35 5.55.55.95-.25.9.25 0 .5-.75.8-3.6 1.5-6.8-.8-2.55-1.85-4.35-7.45m45.75-22.75q.4-.3.8.25 3.8 6 3.45 9.45-.15 1.45-.6 2.35-.6 1.2-1.95 2.05-.7.45-.95-.1t.5-1.15q.9-.7 1.25-1.55l.35-1.9q.15-1.85-1.05-4.65l-1.9-3.8q-.35-.65.1-.95m-2.1 33.1q1.1.25.4 3.7-.75 3.55-2.7 5.3-1.85 1.7-4.25 2.4-2.3.65-2.75-.2-1.65-2.9-.55-6.35.95-2.85 4.5-4.25 3-1.2 5.35-.6"/><path fill="#ed8599" d="M168.1 153.85q.45.1-.2 2.75-.65 2.8-1.9 4.1-1.45 1.6-3.4 2.4l-2.3.15q-1.4-2.4-.45-5.3.8-2.4 3.75-3.6 2.55-1 4.5-.5"/><path fill="#0d131a" d="M168.35 141.75q0-.75.75-.7.75.05.7 1.35-.15 2.75-5.3 4.5-6.35 1.65-8.9 2.7l-7.15 4q-4.5 2.5-6.25 1.5-.85-.45-.7-1.05.15-.55.75-.2 1 .65 5.1-1.7 6.55-3.85 7.9-4.45l8.6-2.35q4.5-1.15 4.5-3.6"/><path fill="#0d131a" d="M166.7 145.8q-.3-.75.4-1t1 .35q2.85 6.5 1.1 12.25-1.5 5.05-5.2 6.65-8.25 3.5-16.95-10.15-.3-.45.35-.9.7-.4 1.05.15 3.2 4.9 5.95 7.3 4.6 4 8.65 2.2 4.2-1.85 4.9-7.75.6-5-1.25-9.1m-32.45-5.65q.9 2 1 3.7.1 1.65-.7 2-.8.4-2-.8-1.2-1.15-2.1-3.2-.9-2-.95-3.7-.1-1.65.7-2.05.8-.35 1.95.85 1.2 1.2 2.1 3.2m32.9-15.75q.9 2.05.95 3.7.05 1.7-.75 2.05-.8.4-2-.8-1.2-1.15-2.1-3.2-.9-2-.95-3.7-.1-1.65.7-2.05.8-.35 2.05.85 1.2 1.15 2.1 3.15"/><path fill="#fff" d="M132.7 138.85l.25 1.3-.45.75-.9-.15-.8-1.05q-.3-.65-.25-1.3.1-.6.45-.75l.9.15q.5.35.8 1.05m33.1-15.45q.35.8.25 1.5-.1.7-.6.9l-1.05-.15q-.6-.4-.95-1.2-.35-.75-.25-1.45.1-.7.6-.9l1.05.15q.55.4.95 1.15"/><path fill="#0d131a" d="M45.8 170.9q-1.85-3.45-1.6-4.5.2-1 4.05-1.95l4.65-.35q.75.5.65 1.9-.1 1.35-.8 1.15l-3.65-.45q-1.95.1-2.1 1l1.55 3.25q1.6 3.2 1.45 3.95-.15.8-1.9 2.5-1.65 1.6-1.55 1.9.3.95 2.5 1.75l4.55 1.6q7.75 9.8 22.8 18.5 11.6 6.7 21 9.55.15 1.05-.15 1.95l-.45.75q-11.6-2-26.4-12.6-11.8-8.45-17.5-15.5l-4.7-2.1q-4.25-1.85-4.4-3.4-.05-.8 1.75-3.1l2-2.4-1.75-3.4"/><path fill="#0d131a" d="M62.85 162.05q4.4-.15 14.7 1.8 9.1 1.75 15.25 3.6.85.25 1.05 2.2.2 1.95-.8 1.6-8.45-3.4-21.55-5.55l-11.4-1.85q-2.6-4.7-3.95-3.35-1.15 1.15-1.85 3.15-1.05 2.95.1 5.8.55 1.35-.65.65-1.25-.65-1.55-1.8-1.05-3.75.85-7.05 1.65-2.9 3.85-3.25.6-.05 3 2 2.35 2.1 2.95 2.05M258.2 76.5q-.6.25-.55 5.2.05 5.1-1.5 6.2-4.9 3.5-11.2 11.05-6.15 7.35-11.05 15.35-2.25 3.65-2.65 2.55-.35-1.1 1.4-5.4 4.1-10.2 21.95-25.55.35-.3.7-5.7.3-5.2 1.45-5.65 4.1-1.55 7.3 1.3 2.75 2.45 3.15 6 .25 2.15-.55 2.25-.8.05-1.45-1.85-1.15-3.3-3.05-4.9-2-1.65-3.95-.85"/><path fill="#0d131a" d="M273.5 76.5q.95.8 1.4 3.65.35 2.2.2 3.45l3.15 1.15q3.25 1.1 3.55 1.9.55 1.45-3.75 9.25.5 4.05-2.1 20.4-3.45 21.8-9.9 36.35-2.65 5.95-3.4 4.2-.75-1.8 1.85-7.85 3.15-7.45 7.15-25.3 4.55-20.15 3.85-28.45-.05-.6 2-3.75 2-3.1 1.8-3.75-.35-1.05-3.35-1.55l-2.95-.7-.1-3.2q-.1-2.55-.8-3.45-.6-.8-2.4-.35-1.75.45-3.2 1.7-1.35 1.15-1.55.3-.2-.75.4-1.55 1.3-1.8 3.9-2.7 2.8-1 4.25.25m-60.05 238.95q4.75-4.1 12.45-1.85 3.15.95 5 2.65 2 1.8 1.6 3.6-.7 3.5-4.85 5.5-4.2 2.05-8.15.65-4.25-1.55-6.4-4.85-2.2-3.45.35-5.7"/><path fill="#fff" d="M215.6 317.15q2.35-2.6 8.3-1.15 5.75 1.4 5.75 3.3 0 1.75-2.75 3.4-2.95 1.7-5.7.8-3.75-1.2-5.3-2.5-2.15-1.75-.3-3.85"/><path fill="#0d131a" d="M233.15 313.95q2.95-1.7 7.35-1.85 5.15-.15 9.25 2.25 3.1 1.85 2.85 5.65-.25 3.85-3.85 5.45-3.3 1.55-7.9 1.2-4.5-.3-8.2-2.25-2.45-1.3-2.6-4.75-.2-3.75 3.1-5.7"/><path fill="#d08690" d="M337.85 86.6q1.85 0 1.2.95l-2.2 3.55q-1.2 2.8-19.65 28.7-18.2 25.55-19.9 27.15-2.2 2.05-4.7 1.35-2.55-.75-2.3-3.8.4-4.4 22.8-31.3 22.25-26.6 24.75-26.6m12.1 68.8q2.25.45.1 2.2-1.85 1.5-4.4 2.45-47.7 16.9-51.15 17.65-3.05.65-3.75-1.6-.7-2.2 1.3-3.45 2.15-1.35 28.6-9.45 26.95-8.2 29.3-7.8"/><path fill="#fff" d="M234.8 316.05q2.3-1.1 5.8-1.2 4.05-.05 7.25 1.5 2.45 1.2 2.25 3.55-.2 2.4-3 3.45-2.6 1-6.2.8-3.6-.2-6.5-1.5-1.95-.85-2.05-3-.15-2.3 2.45-3.6"/><path fill="#0d131a" d="M334.35 165.8q-26.65 9.6-38.85 14.3l8.4 8.6q5.85 6.65 4.7 8.85-1.15 2.15-7.7 1.4-7.25-.85-22.75-5.3-1.7-.45-2.1-2.35-.4-1.85 1.6-1.2 8.25 2.8 16.9 4.8 10.7 2.45 11.45.9.3-.65-4.35-5.4-3.95-4.05-6.7-6.4-4.35-3.7-3.4-5.25.5-.9 5.55-2.85 10.35-4 35.05-12.05 19.25-6.8 18.3-9.8-.75-2.35-18.45-3.7l-33.1-1.8q-4.45-.25-4.3-2.3.1-1.9 4.3-6.9 10.15-12.05 21.75-27.45 18.55-24.6 16.3-26.95-1.3-1.35-29.95 14.8l-32.1 18.4q-1.5.8-1.35-1.15.15-1.95 2.45-3.3 27.1-15.55 39.2-21.85 22.7-11.75 24.25-8.65 2.25 4.5-15.2 28.65-20.25 26.7-25 33.6l30.6 2.05q24 2.4 24.5 6.5.45 3.75-20 11.8m-316.2 24.25q.45-3.1 13.15-4.75l19.9-1.15q1.6.05 4.15 1.55 2.5 1.5.4 1.3-9.7-.85-20.8 0-13.2.95-13.2 3.85 0 2.65 26.3 12.05l32 11.2q1.7.75 1.65 1.95-.1 1.2-1.65 2.2-3.1 2.1-19.9 11.2-11.7 6.35-11.55 8.35.2 2.85 15.95 1.7l25.95-2.7q2.5-.25 3.45 1.05.95 1.35-.55 3.55-7 9.9-5.75 10.55.7.4 8.65-3.55 7.8-3.85 10.2-5.6 1.35-1 1.95.3.55 1.35-.1 1.8-5.25 3.5-11.75 6.35-8.25 3.6-11.1 2.35-1.35-.55 1.3-6.4 2.3-5.05 4.2-7.6l-28.05 2.3q-16.35.65-16.85-3.9-.3-2.7 13.3-10.95l18.95-10.8Q57.2 209.15 43.5 204q-25.9-9.85-25.35-13.95"/><path fill="#f7c6bd" d="M129.45 248.7q5.2-1.8 10.6-2 14.95-.7 24.7 10.25 10 11.25 10.35 24.6.3 13.5-9.65 20.35-10.35 7.1-21.8 5.3-12-1.85-20.1-12.85-8.6-11.6-8.95-23.25-.4-12.1 8.45-19.25 2.15-1.7 6.4-3.15"/><path fill="#d5aba4" d="M154.9 256q6.75 5.25 11.25 12.2 5.3 8.3 6.6 14.6 2.2 10.4-5.25 16.9-9.5 8.25-22.9 6.75-12.6-1.45-20.05-10.1-10.15-11.8-9.85-23.6.25-10.2 7.8-17.3 4.45-4.15 11.5-5.4 5.85-1.05 10.55.2 4.5 1.2 10.35 5.75"/><path fill="#0d131a" d="M146.75 246.4q-.25-1 3 0 8.05 2.55 15 9.65 5.6 5.7 8.3 11.6 4.85 10.8 2.7 20.25-1.95 8.6-9 14.15-6.85 5.35-16.05 6-9.55.7-18.3-4.1-6.4-3.55-12.3-12.1-6.75-9.85-6.35-18.35.05-1.3.9-.35.85.95 1.05 2.45 1.2 7.65 6.7 15.2 5.3 7.3 12.25 11.2 7.25 4.05 16.1 3.5 8.95-.55 15.2-5.6 6.9-5.55 7.5-14.6.45-7.35-3.15-16.35-2.5-6.15-8.95-12.4-6.3-6.05-12-8.2-2.4-.9-2.6-1.95"/><path fill="#0d131a" d="M114.9 275.3q-3.2-3.4-2.45-11.5.8-8.3 5.2-12.3 1.3-1.1 3.15-1.1 2.05 0 3.15 1.4l6.45 7.85q3.8 4.6 3.6 5.35-.85 3.05-8.35 8-7.95 5.25-10.75 2.3"/><path fill="#fff" d="M116.3 273.2q-2.1-2.4-1.35-9.25.85-7.3 4.4-10.5 1-.9 2.1-.8 1.15.15 2.1 1.35l4.95 6.15q2.85 3.4 2.65 4-.95 3.25-6.9 7.15-6.1 4.05-7.95 1.9"/><path fill="#0d131a" d="M141.85 243.5q8.1 1.7 9.6 6.5 1.15 3.55-7.3 9.95-8.4 6.3-10.05 4.5l-4.95-5.6q-4-4.65-6.45-8.15-.65-.95.35-2.25.7-1 2-1.8 7.9-5.1 16.8-3.15"/><path fill="#fff" d="M125.2 251.95q-.95-1.45 1.1-2.8 6.55-4.45 13.8-3.7 6.3.7 8.75 4.25 1.8 2.7-5.8 8.4-7.6 5.75-9.4 3.85l-3.5-3.7q-2.8-3.1-4.95-6.3"/><path fill="#0d131a" d="M140.3 275.75q6-4.15 11.8-3.65 5.85.55 8.95 5.65 2.45 3.95.25 9.55-2.05 5.1-6.05 7.75-3.35 2.25-8.4 2.65-6.6.6-10.25-3.35-3.6-3.85-2.35-9.55 1.2-5.6 6.05-9.05"/><path fill="#f09ba5" d="M142 277.35q4.2-2.8 9.3-2.55 5.6.25 7.95 4.5 1.85 3.35-.1 7.7-1.75 3.95-5.1 6.2-2.7 1.8-7 2.15-5.45.4-8.85-2.55-3.05-2.65-1.55-7.85 1.4-4.95 5.35-7.6"/></svg>