<svg xmlns="http://www.w3.org/2000/svg" width="228" height="196" viewBox="-1.35 -1.05 228.45 195.8"><path fill="#69392b" d="M111.6 153.1l-1.8 8.55q-2.1 9.15-3.75 12-1.1 1.9-3.25 1.8-1.15-.05-3.2-.9-2.75 1.4-4.55 1-.85-3.8.05-12.25l1.1-7.75 15.4-2.45"/><path fill="#854c3b" d="M21.45 20.3q6.2 4.15 11.75 11.35 3.35 4.3 9.05 13.6l-7.85 10.5q-7.9-7.8-12-20.95-3.6-11.65-1.5-14.15l.55-.35"/><path fill="#ef8200" d="M46.9 26.45l6.65 3.75-11.3 15.05q-5.7-9.3-9.05-13.6-5.55-7.2-11.75-11.35 2.75-1.2 13.25 1.15 4.65 1 12.2 5"/><path fill="#ef8200" d="M126.9 37.1q5.5 1.45 7.3 2.8 1.45 1.1-3.35 7.9-4.55 6.4-11 12.95-4.85 4.9-11.2 9.55L103.3 74l-2.75 5.6q-3.5 6.45-7.4 10.5-1.8 1.9-1.85 4.25-.05 2.1 1.45 4.85 1.95 3.5 8.7 5.3 6 1.6 12.3 1.15l8.85-1.75q7.1-1 11.6 1.65 7.6 4.4 12.1 11.95 3.9 6.45 4.25 12.65.35 6-3.25 17.5 3.9.8 5.25 3.7 1.6 7.75 1.8 18.9l-6.3 2.35-11.6-3.15q-.1-4.15-.75-6.65-4.55-.5-7.05-1.5l-4.5-2.3q-2.55-1.25-5.1-4.45l-2.05-3q-4.05 1.55-10.65 2.5-13.25 1.9-26.05-1.25-10.6-3.85-17.6-11.7-4.6-5.15-5.65-8.9l-7.5 4.3q-6.6 4-11.05 5.85-2.3.95-8.7-.15-7.25-1.3-9.85-.95-.15-4.35.2-8.7.65-8.65 3.15-8.45 7.15.6 12.2-.95 2.85-.9 7.85-4.8 4.25-3.4 5.5-5 2.2-2.85 3.55-7.3l.85-3.9q-8.8-1.45-16.75-8.6-6.1-5.5-10.15-12.75-6.55-11.65-1.6-16.25 1.3-1.2 3.8-1.95l2.25-.45q.25-5.7 1.25-9.45.65-2.3 5.3-7.6l4.5-4.8 38.6 5.3Q92.8 34.2 113.1 35.05q7.15.3 13.8 2.05"/><path fill="#ef834a" d="M82.2 4.1q1.7 1.3 3.65 4.3Q96.5 9.85 99.75 18q2.1 5.35.8 12.1-.7 3.65-2.45 6.1-3.9.45-11.45 4.25l-6.5 5.35q-8.9-2.55-24.15 2.35l-.55-.1-.2-.2q-2.1.3-4.55 2.15-4.95 3.65-6.8 11.25-.55-.55-1.45-3.2l-.8-2.5q-2.45-1.8-3.75-6.4-1.3-4.6-.7-9.4 1.5-12.2 12.5-12.2-2.3-2.3-3.05-5.5-1.1-4.65 1.5-10.25 2.45-5.3 8.55-6.65l5.55-.25q2.8-2.05 3.35-2.3 3.2-1.6 7.5-1.3 5.8.4 9.1 2.8"/><path fill="#cf7100" d="M67.25 106.35q-3.35 1.9-7.9 1.85-4.6-.1-6.15-2.1-.2-.2-.1-2.35l.1-2.1q3 .9 7.45.8 4.3-.1 7.35-1 5-1.55 4.7.25-.3 1.8-5.45 4.65"/><path fill="#bf794e" d="M34.9 51.1q1.2.45.95 4.55t-1.6 5.6q-1.15 1.25-2.1 1.4-1 .15-1.2-.95-.25-1.45.45-4.35 1.75-7 3.5-6.25"/><path fill="#922f00" d="M38.15 81.4l-.8-4.65 9.1 2.8.4 2.35.25 3.05-3.85.15q-1.9 1.15-2.25 2.65-1.7-1.45-2.85-6.35"/><path fill="#ed8599" d="M41 88.15l.55-1.3q.85-1.45 2.35-2 2.35-.85 3.2-.45l.1 4.1q-.15 4.15-1.35 4.45-.95.25-2.65-1.35-1.7-1.65-2.2-3.45"/><path fill="#fff" d="M33.25 53.65q.05-.9.55-1.6.45-.65.9-.6.4.1.6.75l.1 1.65q-.25 2.3-1.2 2.2-.45-.05-.75-.75-.3-.75-.2-1.65"/><path fill="#e8b88f" d="M30.65 60.1q0-.95.4-1.65.45-.7 1-.7.6 0 1.05.7.4.7.4 1.65 0 1-.4 1.7-.45.7-1.05.7-.55 0-1-.7-.4-.75-.4-1.7"/><path fill="#854c3b" d="M5.05 126.95q5.1-2.15 13.85-2.65 4.4-.25 7.75-.05l-1.9 2.7 2.75-.45 3-.25q.25.25-1.7 2.7l2.75-.4 3-.05q.4.45-7.65 8.55l1.95.35q2 .45 2.05.75.1.5-5.95 3.25-3.05-.4-5.75.05l-5.85 1.4-4.75-.2-1.2-1.15q-4.2.55-5.75-2.25l-.65-2.9q-1.25-3.15.3-5.95 1.3-2.4 3.75-3.45"/><path fill="#fdeabe" d="M54.6 127.25q-1.3-5.15-.4-10.3 1-6.05 4.7-6.85 3.6-.8 8.35 5.45 4.7 6.15 4.85 11.6.1 4 1.6 23.2-3.75-1.9-8.05-5.7-8.5-7.7-11.05-17.4m44.55 14.15q5.1.5 10.55-1.05 2.7-.8 4.4-1.7.55 5.25 3.2 12.75-2.95 1.6-12.25 2.8l-8.7.9 2.8-13.7"/><path fill="#fdeabe" d="M53.75 116q1.45-6.2 5.5-6.4 4.45-.25 8.6 5.3 4.7 6.15 4.85 15.2l-.4.35q-.45.05-.5-.2-.6-8.7-4.95-14.45-3.8-5-7.55-4.85-3.7.2-4.65 6.8-.9 6.25 1.2 10.9l-.15.55-.45.05q-3.05-6.8-1.5-13.25m60.1 22.3q.25-.1.55.4.3.5.05.6-3 1.55-8 2.3l-7.35.55q-.25 0-.25-.55 0-.6.25-.6l7.65-.6q4.45-.75 7.1-2.1"/><path fill="#854c3b" d="M32 131.25l2-2.35-4.85.55h-1.4q-.15-.2.7-1.05l1.45-1.6-4.15.55-1.4-.05q-.25-.25.45-1.25.45-.7 1.45-1.65l.9-.85 1.7.3-3.1 2.65 3.2-.55 2.15.2q.3.5-1.25 2.15 4.95-.7 5.55-.05.5.55-6.95 8.65 3.45.65 3.45 1.2 0 .5-6.5 3.55H22q7.75-2.95 7.85-3.4L27 137.9q-.95-.05-.95-.3 0-.3.95-1.2l5-5.15"/><path fill="#ef834a" d="M197.25 33.9q6.2 4.15 9.3 10.9 3.35 7.25 2.25 15.85 7.85 3.95 12.4 11.3 4.2 6.85 4.55 14.8.3 7.85-3.3 13.95-3.8 6.55-11 8.95 3.35 8.95-.75 17.95-4.5 9.75-14.6 10.45-8.55.55-13.85-4.85-1.65-1.7-2.8-3.8l-.8-1.75q-4.2-2.8-10-4.75-11.6-3.9-19.5.3-2.6-6-7.35-11.35-9.5-10.65-20.2-7.45-2.2-.7-4.6-2.1-4.7-2.8-5.5-6.25-1.6-7-.55-13.35 1.65-9.85 9.55-13.9l2.2-6q3.25-6.35 8.45-8-.05-3.9 3.65-9.25 3.7-5.4 9.35-9.6 6.2-4.55 12.35-5.7 7.05-1.35 12.6 2.15 7-3.6 14.7-3.1 7.35.5 13.45 4.6"/><path fill="#69392b" d="M18.4 141.55l-6.65 1.65q-2.6.5-4.25-1.35-1.7.15-3.3-.6-3.2-1.45-2.75-5.9l1.2 1.6q1.7 1.65 4.3 2l2.95.7q3.8.35 7.95-1.25 3.35-1.3 8.25-.95-.2.45.9.45l2.85.35-7.05 3.1-4.4.2"/><path fill="#cf7100" d="M53.35 124l3.4 8.2Q40.1 142.65 37.3 143.1l-4.75-.45-7-1.1 3.5-1.7q2.85-1.45 2.85-1.75l-.15-.2 5.65-.4q6.6-1.3 11.4-5.65 4.45-4.05 4.55-7.85"/><path fill="#69392b" d="M31.9 138.1q0 .3-2.85 1.75l-3.5 1.7-2.75-.2 7.05-3.1-2.85-.35q-1.1 0-.9-.45l5.65.45.15.2"/><path fill="#dacaa5" d="M54.5 126.8l4.8 7.1q6.3 7.35 13.7 8.9l.9 7.1q-3.35-1.5-7.45-5.15-8.2-7.3-11.95-17.95m60.6 18.6l2.5 6.1-7.75 1.85q-8.7 1.85-13.5 1.75l2.65-7.75 7.85-.2q4.8-.55 8.25-1.75"/><path fill="#cf7100" d="M150 148.3q2.75 1.25 3 3.55.4 3.65 1.2 19.35l-17.45 1.35-.8-9.75q-4-.45-8.3-2.15-8.55-3.3-9.85-9.25 8.05 4.8 17.1 1 10.4-4.4 15.25-18.7-2.05 12.3-2.85 13.8l2.7.8"/><path fill="#ce723f" d="M207.15 132.8q-5.8 5.75-14.65 5-8.85-.7-12.4-6.4-1.1-1.8-1.55-3.85l-.2-1.7 2.95 2.05q3.7 2.3 7.6 3.55 12.5 3.85 22.3-4.6-1.15 3.05-4.05 5.95m-2.25-32.7q2.4 1.2 7.15.85 7.7-.55 13.1-6.55-1.15 3.55-3.45 7.2-4.7 7.25-10.7 7.75 0-1.55-.8-3.5-1.55-3.8-5.3-5.75"/><path fill="#ce723f" d="M162.1 116.6l7.85 1.95q4.9 1.6 8.45 4.65l-.05 5.05q-6.05-4.55-12-6.3-9.3-2.75-17.3 1.55l-.4-1.95-.05.05q-4.65-7.9-8.35-11.5-8.9-8.7-19.15-5.85-2.9-.65-5.75-2.65-5.6-4.1-5-11.05 2.25 1.9 5.55 1.6 3.2-.3 4.65-2.3Q127.1 80.8 134 81.1q7.45.4 13 9.3 4.8 7.7 5.95 17.5.5 4.2 3.05 6.2 1.85 1.5 6.1 2.5"/><path fill="#69392b" d="M154.05 170.6l-.15 11.75q-.25 5-.65 5.75-.5 1.15-1.55 2.1-1.8 1.6-4.45 1.65-4.75 2.9-9.25.05-3.75.3-4.8-4.15-.45-2 1-4.65l1.6-2.25q.75-5.7.65-11.4l4-5.25 7.5 5.85 2.15-3.25 3.95 3.8"/><path fill="#69392b" d="M144.4 166.4l3.4 3.05 1-1.8q1.05-1.85 1.45-1.85.4 0 2.05 2l1.7 2.1v1.4l-3.75-3.6-1.05 1.65q-.85 1.4-1.35 1.35l-1.9-1.25-5.2-4.2-1.6 1.9q-1.8 2.2-2.75 3.8l-.4-1.45 1.95-2.95q2.05-3 2.6-3.15.4-.05 3.85 3"/><path fill="#ce723f" d="M92.05 37.95q-7.1 3.25-11.5 7.75-2.5-.85-6.75-.95-8.55-.25-17.3 3.55 4.65-3.2 8.5-4.5 3.45-1.1 8.65-1.35 3.4-.15 2.25-2.3l-2.65-3.1q-3.7-4.1-7.9-6.25-6.5-3.25-16-3.4-1.05-1-1.85-2.9-1.6-3.7-1-8.65-.35 3.9 3.75 4.9 4.25 1.05 6.5-2.25 2.2 4.45 6.6 5.25 4.25.8 7.1-2.25-.95 3.15 3.65 5.6 4.7 2.5 8.4.4 2.95 2.35 7.35 2.4 4.25.1 5.65-1.9 1.65.25 3.2-.55 1.95-1.05 2.85-3.4l-.65 5.85q-.6 2.9-2.65 5.7-2.65.75-6.2 2.35M38.1 47.3q1.3 2.95 3.75.3-.5 2.75 1.4 5.3 2 2.8 4.45.55l-2 3.6q-2.05 3.75-2.05 4.5L41.2 54.8q-1.15-.7-2.2-2.45-2.15-3.45-1.75-8.55l.85 3.5"/><path fill="#69392b" d="M21.45 31.75q-.7-2.4-1-6.55-.4-4.85.7-4.95 1.65-.15 8.3 7.1 6.55 7.1 7.8 10.1Q32 33 27.1 31.7q-3.9-1.05-5.65.05"/><path fill="#bf794e" d="M75.8 63.55q-.4 3.5-3.75 6.3-3 2.5-5.35 2.35-3.1-.15-6.3-2.35-3.65-2.6-3.7-5.85-.05-3.2 3-6.35 3.05-3.1 6.2-3.35 4.15-.25 7.35 3.35 2.85 3.25 2.55 5.9"/><path fill="#fff" d="M61.2 61.9q-.65-.8-.5-2.15.1-1.35.85-2.45.8-1.1 1.8-1.3.95-.15 1.6.65.6.85.5 2.15-.1 1.35-.9 2.45t-1.75 1.3q-1 .2-1.6-.65"/><path fill="#e8b88f" d="M62.8 70.4q-.8-1.5.35-3.7 1.15-2.05 3.05-3.05 2.15-1.1 4.2-.8 1.95.25 2.75 1.6.9 1.55.05 3.6-.9 2.1-3.1 3.25t-4.3.9q-2.15-.2-3-1.8"/><path fill="#0d131a" d="M72.5 57.95q-2.7-2.8-5.95-2.75-3.15.05-6.25 2.75-3.05 2.7-3.25 5.55-.2 2.65 3 5.35 3.1 2.65 6.15 2.8 3.05.1 5.95-2.7Q74.9 66.3 75 63.7q.15-3-2.5-5.75m-5.95-4.4q3.6-.05 6.8 3.25 3.2 3.25 3.05 6.95-.1 3.2-3.25 6.35-3.35 3.3-7 3.15-3.15-.15-6.4-2.95-2.95-2.55-3.45-4.85-.75 2.2-1.25 1.95-.5-.3-.1-2.4.95-4.95 4.75-8.3 3.4-3.05 6.85-3.15m-34.65.75q.8-2.15 1.45-3.05.8-1.15 1.65-.9 1.1.3 1.4 3.8.3 3.35-.35 5.3Q35 62.5 32.75 63q-2.3.5-2.1-2.3 0-.2.3-.25.3-.05.35.15l.3 1.25q.15.3.65.35l1.3-.85 1.15-2q.6-1.8.65-4.65 0-2.75-.5-3-.4-.1-1 .65-.75.8-1.3 2.3h-.4l-.25-.35"/><path fill="#0d131a" d="M36.9 44.5q-.2 1.5.05 2.25-2.85 3.75-4.05 6.9-1.55 4.05-1.3 8.95-3.55.15-5.75 2.3-2.25 2.2-2.25 5.6 0 5.25 5.75 13.75 6.5 9.6 15.1 14.25 1.4.75 3.9 1.55 3.3 1.1 6.55 1.45 5.6.6 5.75 1.15l-4.7.3q-6.1-.25-12.1-2.8-6-2.5-13.75-12.25-8.4-10.5-8.4-17.65 0-6.85 8.6-8.8 0-5.8 1.9-10.05 1.45-3.4 4.7-6.9"/><path fill="#0d131a" d="M46.35 114.4q6.4-7.2 5.9-12.9l1.05.2.95.05q.1 7.2-7.6 14.65-5.8 5.6-10.4 7.25-2.55.95-9.2 1.25l-11.75.65q-7.65.85-11.1 3.25-3.8 2.65-2.85 7.4l.05 1.1q.05.8-.35.8-2.4-5.65.6-9.2 3.4-4 13.35-4.9l11.65-.7 8.8-1q5.05-1.35 10.9-7.9"/><path fill="#0d131a" d="M56.6 131.3l.5 1.45-18.15 10.55-9.7-.45q-8.1-1.5-12.5-.2-7.55 2.25-9.6.15-1.95-2.05-.9-4.65.95-2.4 3.75-3.9 1.1-.6 1.3-.3.2.3-.7 1.05-4.8 3.9-2.15 6.5 1.15 1.15 3.55.8l4.3-1.05q4.4-1.05 12.3 0l9.55.4q3.1-.9 18.45-10.35"/><path fill="#0d131a" d="M5.8 131.6q-4.45 3.25-3.4 6.65 1.05 3.2 5 3.05l.2.65.4.65q-7-.05-7.5-4.8-.45-4.55 4.15-6.65.95-.4 1.4-.3.55.15-.25.75M49.6 27.55l-2.1.4q-5.45-3.25-12.1-5.35-7.2-2.3-12.7-2.15 3.15 2 6.9 5.9Q34.2 31.1 38 37l-.45 2.1q-4.4-7.05-9.85-12.75-4.7-4.9-6.25-5.15-1.4 1.95.75 10.2Q25 42.05 32.8 52.65l-.55.6q-.3.35-.3.7-8-9.8-10.85-21.5-2.4-9.8-.25-12.55 1.2-1.55 10.05.05 10.45 1.9 18.7 7.6"/><path fill="#0d131a" d="M63.1 4.35l-1.25.85q-3-.15-6.3 1.25-4.9 2.05-7.05 6.6-1.9 4.15-1 8.6.7 3.35 2.7 6.1h-1.25q-2-2.4-2.9-5.65-1.35-4.8.65-9.55 2.35-5.65 8.4-7.75 4.8-1.65 8-.45M92.55 31.7q2.6-2.9 1.65-6-.95-3.25-4.9-3.25-3.4 0-5.3 3.05-1.65 2.65-1.65 6.8 0 2.9 1.5 5 1.45 2 3.75 2.65-1.4 0-2.05.65-3.45-1.8-4.4-6.65-.85-4.7 1.5-8.75 2.55-4.45 7.1-4.25 5.2.25 6.15 4.55.9 4.05-2.45 6.65-1.2.95-1.5.7-.25-.25.6-1.15"/><path fill="#0d131a" d="M101.85 27.8q-.35 4.15-2.65 7.75l-2.35.5q3.25-3.8 3.3-8.25.6-4-.65-8.25-2.55-8.6-11.8-10.05-3.75-.6-7.5 1-3.75 1.7-6.3 5.15-5.95 8.15-1.5 19.9.3.75-.15.6-.4-.2-1.05-1.4-4.8-9.55.7-18.9 5.6-9.5 15.95-8.3 5.85.7 9.95 5.7 4.8 5.85 4.05 14.55"/><path fill="#0d131a" d="M87.05 8.25H85.4Q82.6 4.15 78 2.6l-9.2-.25q-10 2.55-11.25 13.3-.5 4.35.9 8.2 1.35 3.9 4 5.35 1.65.75.05.3-1.4-.35-2.4-1.15-2.4-1.9-3.55-5.9-1.2-4.05-.45-8.4Q57.95 3.25 68.75.55q6.2-1.6 11.65 1.35 4.2 2.3 6.65 6.35m46.05 30.5q1.6.7 1.85 1.4.35.8-.55 2.6-3.15 6.55-12.35 16.55-9.5 10.3-16.4 14.25-2.2 1.25-2.65.9-.45-.35-.2-3.1-2.55 1.65-3.05 1-.3-.35.75-2.9l1.15-2.5-4.1.7q-2.15.4-2.15 0 0-.45 2.2-2.6 4.8-4.7 8.4-7.35l-6.3.9-7.2 1.2-5.65.65Q86.7 60 90.8 55q8-9.75 20.25-13.3 8.55-2.55 20.5-2.1-10.1-4.2-22.95-3.95-18.3.4-28.75 11.65-4.3 4.7-3.55 2.85.7-1.65 2.35-3.7 9.4-11.6 28.85-12.15 15-.45 25.6 4.45M109.5 92q-.55-8.3 2.45-14.85 2.85-6.2 8.4-9.8l-.3 1.25-.2 1.25q-3.3 1.4-5.85 6.85-3.1 6.6-2.55 15.05.4 5.7 4.7 9.2 3.65 2.9 7.3 2.65l-2.8.85q-3.9-.75-6.85-3.35-3.95-3.5-4.3-9.1"/><path fill="#0d131a" d="M170.7 31.6q-.15.95-.85 1.2l-1.7.25q-4.6-2.9-10.85-2-6 .9-11.8 4.95-13.35 9.45-14.85 25.6-.65 7.1 3.9 17.6 4.6 10.7 4.3 15.5-.3 5.45-1.7 9.2-.7 1.85-1.35 2.6l-1.4-.65 1.55-3.5q1.5-4.3 1.25-8.45-.25-4.55-4.9-15.75-4.2-10.15-3.6-16.4.8-8.7 5.2-16.1 4.15-6.95 10.55-11.35 6.3-4.35 13.15-5.15 7.15-.85 13.1 2.45"/><path fill="#0d131a" d="M121.7 63.45q3.75-7.4 9.7-10l-.05 1-.35 1q-5.55 3.4-8.2 9.1-2.2 4.85-2.65 12.35-.65 9.75 3.1 16.7l3.4 5.3q2.05 3.15 3 5.35l-2-.95q-4.05-5.2-5.95-8.9-3.5-6.6-3.45-17.05 0-7.1 3.45-13.9m41.3-25.8q-11.45 9.75-12.8 27.95-.25 3.6-.4 12.2-.1 7.4-.55 11.4-1.55 12.5-9.55 20.65l-1.05-1.55q7.85-7.35 9.05-19.9.35-3.6.35-11.1 0-7.65.35-11.5 1.75-19.25 12.45-29.2 10.3-9.6 25.8-7.8 11.7 1.4 18.6 11.95 6.35 9.8 4.45 20l-1.75-.85q2-7.35-3.6-16.8-6.4-10.7-17.55-12.4-13.35-2-23.8 6.95M201.4 80q-4.45-.75-8.3 2.8-4.1 3.85-4.25 10.25l-1.75-.2q0-6.45 4.05-11 4.25-4.75 10.15-3.9 5.65.8 8.15 5.7 2.05 4.1.95 8-.8 2.75-1.55 2.9-.75.1-.05-3.05.7-3.4-.95-6.8-2-4-6.45-4.7"/><path fill="#0d131a" d="M176.85 64.95q8.65-6.6 18.1-7.5 8.65-.75 16.25 3.35 7.3 3.9 11.55 11.2 4.35 7.5 4 16.25-.3 7.85-4.1 13.75-3.9 6.1-10.35 8.2l-.65-1.5q5.95-2.05 9.35-7.95 3.2-5.55 3.5-13.35.3-7.9-3.75-14.8-3.9-6.75-10.7-10.35-7.15-3.75-15.2-2.85-8.9 1.05-17.1 7.7-4.25 3.45-8.45 9.7-1.95 2.95-7.25 12.2-9.75 17.05-18.9 24.4l-.95-1.45q7.45-4.9 17.9-23.35 5.65-10 8-13.55 4.55-6.9 8.75-10.1"/><path fill="#0d131a" d="M184.35 92.6q11.3-.45 19.35 5 8.95 6.05 10.2 17.35.95 8.75-4.35 16.25-5.45 7.7-13.5 7.9-8.55.2-14.15-4.8-5.65-5.05-4.65-12.25.75-5.35 4.75-8.25 3.35-2.4 7.3-2.25 4.1.2 6.7 2.8 2.05 2.05 2.6 4.85.5 2.85-.25 3.2-.75.35-1.25-2.4-.45-2.35-1.95-4.05-2.15-2.4-5.8-2.45-3.7-.05-6.6 2.2-3.45 2.7-3.75 7.55-.35 5.35 3.75 9.3 4.85 4.6 13.65 4.2 7.5-.65 11.95-7.15 4.4-6.45 3.4-15.05-.95-8.5-8.3-14.4-7.9-6.45-18.95-5.7-9.3.6-18.95 8.85l-8.6 7.4q-5.5 4.4-11.05 7.15l-.8-1.6q4.55-1.6 9.55-5.65l8.6-7.75q11-9.85 21.1-10.25"/><path fill="#0d131a" d="M177.95 126.75l.2.6.2 1.35q-15.3-10.25-29.05-5.1l-.65-1.55q7.55-2.75 14.8-1.7 7.7 1.05 14.5 6.4m7.95-79.15q3.4.95 5.55 3.9 1.2 1.65.55 1.9-.6.3-1.85-1.15-3.85-4.45-9.7-2.4-6.05 2.05-6.05 9 0 3.45 1.6 5.7.8 1.1 1.6 1.5l-1.1 1.5q-1.05-.55-2.1-1.9-2.15-2.75-2.15-6.75 0-8.3 7.35-10.95 3.2-1.2 6.3-.35M95.05 174.45q1.4.25 2.55 0l1.9-.7 1.4 1.2-2.55.9-2.65.3q-.25-.05-.6-.9-.3-.85-.05-.8"/><path fill="#0d131a" d="M112.7 152.55q-.8 2.3-2.2 9.15-1.25 6.4-2.95 10.6-1.4 3.45-4.4 3.85-2.35.25-3.8-1-1.3-1.25-1.35-3.4 0-2.4 1.75-4.15 1-1 1.35-.9.3.1-.3.85-1.3 1.75-1.3 3.75-.05 1.85.9 2.55 1.4 1 2.9.55 1.55-.5 2.75-2.5 1.3-2.15 2.55-8.55 1.7-8.25 2.4-10.55.1-.3.95-.4.85-.15.75.15"/><path fill="#854c3b" d="M128.9 40.5l5 .5q.7 1.7-10.4 14.25-11.95 13.45-20 17.6.8-2.55.5-2.75l-1.8.5-1.55.7q3.1-5.4 2.55-5.7l-3.1.45-2.65.7 7.3-6.7q2.7-2.5 2.3-3.1l-3.75-.15q-6.85.65-14.2 2.25 9.4-13.45 27.9-17.3 6-1.25 11.9-1.25"/><path fill="#0d131a" d="M52.75 119.55q2.25 9 8.2 17.5 7.6 10.8 17.75 14.45 8.55 3.05 17.95 2.75 8.2-.25 20.1-3.25l.6 1.25Q105.7 155.5 97 156q-11.05.55-19.8-3.05-10.05-4.15-17.6-14.7-6.9-9.6-7.95-18.6-.2-2 .2-2.05.4 0 .9 1.95m50.5-46.4l.8.5q-1.75 5.45-5.4 10.8L92.8 91.7q-.85.95-.7 3.2.15 2.4 1.35 3.8 3.75 4.4 12.15 5.95 4.65.85 14.4-1.15 8.25-1.7 13.75.95 5.5 2.6 10.85 9.2 5.2 6.4 6.15 11.4 1 5.25-.55 14.05-1.5 8.2-4 13.6-1.25 2.75-2 2.95-.8.2.6-3.35 2.55-6.7 3.7-12.95 1.4-7.95.15-13.65-1.2-5.35-5.8-11.15-4.95-6.25-10.8-8.85-4.2-1.9-11.55-.55-9.2 1.7-14.65 1.05-8.85-1.1-13.75-6.7-.55-.6-1.1-2.8-.55-2.1-.45-2.95 0-1.35 4-6.4 5.1-6.4 8.35-14.95l.35.75m-75.1-.35q-1.65-.25-3.2-2.3-1.5-2.05-1.05-3.25.7-2.05 5.1-1.5 4.45.55 4.2 2.7-.25 1.6-2.2 3.1-1.85 1.4-2.85 1.25M37 77.4q-2.65-1.15-2.6-1.8l2.2.1 8.1 2.75q1.75.55 2.15 1.05.4.5.6 2.25.5 4.65.3 7.7-.25 3.65-1.45 3.95-2.55.7-5.95-4.85-3.5-5.7-3.35-11.15m8.85 15.1q.85-.2.55-5.55-.25-5-.8-6.6l-7.35-2.55q.5 5.15 3.45 10.3 2.75 4.75 4.15 4.4"/><path fill="#0d131a" d="M40.75 87.55q1.65-4.65 6.15-3.45l.2.85q-1.8-.45-3.45.6-1.45.95-2.45 2.9l-.45-.9m73.85 58.15q-1.4-5.65-1.3-9.2.1-3.8.6-3.6.5.2.8 3.95.8 9.2 4.35 15.6 1.75 3.2 5.7 5.75 4.9 3.15 11.45 3.95 3.9.5 2.95 1l-2.75.35q-6-.2-11.45-3.15-5.2-2.8-7.5-6.7-1.5-2.55-2.85-7.95"/><path fill="#0d131a" d="M147.4 148.35q-.3-.05-.35-.85-.05-.75.2-.65l2.7.8q2.7 1.2 3.5 3.35.7 1.85 1 11.05l.4 13.15q.45 8.65-.4 12.1-.8 2.95-3.05 4.25-1.75 1-3.9.9-3 1.75-5.4 1.65-1.95-.1-4-1.6-3.05-.15-4.7-2.1-1.4-1.6-1.4-3.6 0-1.4.95-3.1.85-1.6 2.1-2.8.65-3.2.55-8.95-.15-6-1.05-9.25 0-.25 1.1-.3 1.05-.05 1.1.25l.35 6.15q.25 6.65-.4 10.9l-.25 1.6-.6.9q-2.45 3.25-1.5 6.1.85 2.7 3.7 2.8l3.05 1.3q2.75.6 5.9-1.3l.4-.1q1.6.15 2.9-.85 1.55-1.2 2.25-3.75t.6-11.15l-.3-12.15q-.45-9.15-1.05-10.9-.6-1.7-2.55-2.95l-1.85-.9"/><path fill="#0d131a" d="M138.05 184.65q-1.4 4.25.45 6.3 1.2 1.3 4.4 2l-2.7.05q-2.65-.6-3.6-2.65-1.1-2.25.25-5.2.45-.9 1-1.2.5-.3.2.7m6.2.05q-.35 3.3.8 4.9 1.1 1.5 3.45 1.4-.05 1-1.4 1.2-2.3-.3-3.4-2.05-1.35-2.1-.3-5.4.4-1.25.7-1.25.3 0 .15 1.2"/><path fill="#69392b" d="M133.9 41q.25.55-2.15 4l-6.25 7.95q-7-2-14.6-.8-7.55 1.25-13.75 5.4l-8.05 1.5q9.4-13.45 27.9-17.3 6-1.25 11.9-1.25l5 .5"/><path fill="#ef8200" d="M74.3 163.5q.05-3.9-2.5-38.95l29.05 8.65-2.5 11.25q-2.65 13-3.35 21.95l-20.7-2.9"/><path fill="#854c3b" d="M78.9 157l2.1 2.55 3.05-3.7 2 6.55 4.05-2.85 4.95 5.15q-.7 8.5.8 13.95.85 3.2-1.4 6.5-2.2 3.2-4.15 2.45-1.85 2.95-5.05 2.6-2.6-.25-4.9-2.35-.55.05-1.45-.45-1.75-1-3.45-3.55-1.7-2.6-1.6-10.9l.45-9.45 4.6-6.5"/><path fill="#854c3b" d="M80.1 159.3l-1.1-1.5-4.6 7.15q-.15.25-.3-.7-.2-1 0-1.2l2.25-3.55q2.3-3.6 2.6-3.6l1.05 1.3 1.15 1.7 1.55-2.3q1.05-1.65 1.4-1.55.7.25 2.25 6.25l2.1-1.35q1.35-.85 1.7-.8.5.05 2.9 2.5l2.25 2.45q.2.25-.3.7-.45.5-.7.3l-4.2-4.95-2.85 2.2q-1.15.85-1.5.7-.3-.15-.75-1.5l-1.25-4.3-1.45 1.9-1.15 1.05-1.05-.9"/><path fill="#69392b" d="M73.9 177.05l1.15 3.65q1.7 3.6 4.15 3.45.95 1.75 3.8 1.7 3-.1 3.9-2.4 2.25 1.05 5.15-.1 3.7-1.45 3.75-6.1.65 4.35-.4 6.7-1.25 2.85-5.1 3.4-.6 1.1-1.95 1.85-2.7 1.5-6.5-.25-1.8-.15-3.75-1.7-3.8-3.1-4.2-10.2"/><path fill="#0d131a" d="M43.9 28.15q5.7-2.75 13.65-.75 7.7 1.95 14.4 7.6 2.4 2 2 2.25-.4.25-2.9-1.7-6.6-5.15-13.8-6.8-7.4-1.7-12.75.9-6.75 3.3-6.45 12.6l-.55.95-.6.4q-.9-5.2 1.1-9.45 1.95-4.05 5.9-6m.65 15.25q1.2-.9 2.05-.95.85-.05-.3.8-3.35 2.5-4.05 6.45-.75 4.2 1.4 10.3 1.15-4.6 4.25-8.15 3.1-3.55 7.55-5.15.25-.1.25.7-.05.85-.3.9-3.8 1.4-6.2 4.15-2.15 2.45-3.85 6.85l-1.45 3.2q-.3.1-1.6-2.7-2.25-5.1-1.65-9.5.6-4.4 3.9-6.9"/><path fill="#0d131a" d="M49.25 31.35l2.85.05q-.05.4-3 1.1-8 2-10.4 7.95-1.45 3.55-.4 7.85.95 3.95 3.55 7.15v2.1q-3.65-4-4.95-8.65-1.35-4.9.3-8.95 1.55-3.85 4.9-6.1 3.05-2 7.15-2.5m12.4 9.2q3.95-2.2 8.65-2.2 2.35 0 1.75.45-.55.4-3.1.8-3.8.6-7.3 2.85-3.55 2.2-5.4 5.2 12.9-5.5 23.95-2.5.75.2.4.55l-1.25.2q-4.9-.7-10.5-.1-5.8.65-10.65 2.45l-4.75 1.55q-.5-.25 2.35-4.1 2.35-3.25 5.85-5.15m36.4 101.75q1.35-7.95 2.2-7.75.85.2-.45 8.2-.95 5.75-3.3 16.15-1.65 8.95-.85 15.6.2 1.5 1.15 4.85.45 3.2-1.6 6.3-2.25 3.3-5.7 2.4-3.65-.95-3.65-6-.05-1.2.35-1.35.4-.1.6 1.05.65 3.85 3.55 4.35 2.7.55 3.8-1.95 1.15-2.55.7-5.3l-.8-3.6q-.7-5.9.7-14.8l3.3-18.15"/><path fill="#0d131a" d="M78.7 184.85q-.15-1.7.2-2.2.4-.5.75 1.15 1.05 4.7 4.9 5.2 3.4.4 4.75-1.65l1.1.6q.65.35 1.05 0-3.1 3.75-7.65 2.75-4.6-1.05-5.1-5.85"/><path fill="#0d131a" d="M71.35 132.75q-.5-8.5.3-9.1.85-.6 1.45 8.7l1.5 16.15q.85 10.4.15 20.8-.65 9.3 1.05 13.2 1.35 3.1 6.3 6.35l.6.45 1.15.55q-6.1-.85-8.65-4.95-3.1-4.95-2.25-16.1.75-9.45 0-18.15-1.15-10.25-1.6-17.9"/><path fill="#8a969d" d="M28.55 67.5q0 .35-.5.55l-1.25.25-1.25-.25q-.5-.2-.5-.55 0-.35.5-.55l1.25-.25 1.25.25q.5.2.5.55"/></svg>