<svg xmlns="http://www.w3.org/2000/svg" width="321" height="303" viewBox="-0.2 -0.05 321.0 302.5"><path fill="#fff8b0" d="M249.65 281.1q.25 2.2-1.1 3.65-1.45 1.6-4.15 1.55-1.1.95-2.75 1.25l-3.8-.1q-2.45.85-6.95-.1.25-.5-.35-1.6-1.25-2.1-5.65-4.75l-3.9-2.6 21.75-3.7q6.35 1 6.9 6.4"/><path fill="#ddd698" d="M238.6 280.7q-4.85 2.55-7.55 6.7l-.15-.05q.25-.5-.35-1.6-1.25-2.1-5.65-4.75l-3.9-2.6 21.75-3.7q3.7.55 5.65 3.2-5.2.35-9.8 2.8"/><path fill="#ef8200" d="M228.7 283.85q4.95 4.9 7.1 13.25-13.45-5.4-18.8-6.8-16-4.2-29.7-1.55l31.3-10.3q5.8 1.15 10.1 5.4"/><path fill="#cf7100" d="M231.7 287.55q-3.95-.6-7.65.05-3.85.7-6.9 2.75-16.15-4.3-29.85-1.6l31.3-10.3q8.2 1.65 13.1 9.1"/><path fill="#fff8b0" d="M180.85 46.2q3.5 2.95 7.5 7.6 12.75 14.8 25.95 40.6 13.2 25.75-23.65 66.1-18.4 20.15-39.45 35.15l6.2-154.9 9.55-.25q6.05.55 11.25 3.65l2.65 2.05"/><path fill="#ddd698" d="M171.75 101.4q2.1 7.25 3.5 19.15l2.15 19.2q1.35 10.15 3.6 15 2.85 6.2 8 6.65-12.15 14.65-26.2 25.9-7 5.65-11.6 8.35 4.7-12.45 9.6-30.45 9.85-36 10.95-63.8"/><path fill="#fff8b0" d="M185.05 114.3q-3 21.05-13.7 43.05-9.6 19.65-22.5 34.75l-4.1 2.1L89.5 44.5q12.05-12.05 27.9-14.9 17.25-3.1 32.8 6.3 22.25 13.45 30.8 35.25 7.45 19.05 4.05 43.15"/><path fill="#ddd698" d="M148.85 192.1l-4.1 2.1-3.85-98.55q11.1 31.55 19.6 45.85 8 13.4 13.2 10.8-10.05 22.55-24.85 39.8"/><path fill="#fff8b0" d="M85.1 44.05q14.95-.35 29.4 7.9Q135.6 64 146.4 85.7q9.05 18.2 10.3 41.8 1.05 19.15-3.05 38.3-3.45 16.25-8.15 23.3l-110-93.25q-.2-13.3 6.45-25.25Q48.5 58.9 59.7 51.8q11.7-7.4 25.4-7.75"/><path fill="#ddd698" d="M35.5 95.85q-.1-8.35 2.6-16.4 2.6-7.85 7.55-14.55-6.9 19.9 7.5 40.45 11.9 16.95 36.5 32.2 20.45 12.7 41.8 19.85 19.95 6.75 23.2 3.3-1.7 9.6-4.3 17.5-2.4 7.25-4.85 10.9l-110-93.25"/><path fill="#fff8b0" d="M35.7 95.85q13.2-5.45 28.6-5.1 14.55.35 26 5.6 34.8 16 48.15 51.55 7.95 21.15 7.3 45.55l-9.15 8.1-93.15-11.85Q38 191.3 30.9 189q-7.2-2.35-13.6-7.9Q2 167.75 2.35 147.7q.35-19.9 10.05-33.65 8.5-12.1 23.3-18.2"/><path fill="#ddd698" d="M2.35 147.7q.45-22.85 12.9-37.35-3.2 20.9 2.9 37.4 5.35 14.3 16.05 21.75 10 6.95 19.3 4.6 9.8-2.45 12.85-14.05 38.2 35.55 62.75 37.65 7.45.6 12.9-2l3.75-2.25-9.35 8.4-92.95-12.15Q38 191.3 30.9 189q-7.2-2.35-13.6-7.9Q2 167.75 2.35 147.7"/><path fill="#fff8b0" d="M34.6 193.95q12.65-7.9 29.15-10.35 14.45-2.1 29.9.2 13.95 2.1 25.05 7.15 10.75 4.95 14.5 10.6L86.45 293.9q-25.85 3.95-48.3-7.85-17.95-9.4-26.65-23.8-8.6-14.25-4.95-31.8 4.55-21.85 28.05-36.5"/><path fill="#ddd698" d="M89.7 250.65q15.2-12.6 30.9-32.5 12.4-16.9 12.6-16.6L86.45 293.9q-25.85 3.95-48.3-7.85-17.95-9.4-26.65-23.8-3.6-6-5.05-13.35 18.5 23.7 42.4 21.55 19.05-1.7 40.85-19.8"/><path fill="#fff8b0" d="M93.65 209.6q10.35-2.7 20.35-2.15l126.55 48.6q11.55.95 22.25 5.9 14.3 6.65 21.3 18.55-28.1-14.95-90.7 5.9-18.45 6.15-34.3 9.8-19.65 4.55-31.85 4.4-23.95-.35-41-7.4-25.15-10.4-28.85-33.65-4.2-26.2 16.5-41 8.45-6 19.75-8.95"/><path fill="#ddd698" d="M112.35 279.05q16.2 2.8 39.7 1.1 14.45-1.05 39.95-4.8 23.8-3.55 31.35-3.85 12.85-.6 13.8 4-19.15 2.65-43.75 10.9-18.45 6.15-34.3 9.8-19.65 4.55-31.85 4.4-23.95-.35-41-7.4-25.15-10.4-28.85-33.65-1.95-12.05 1.65-21.95 3.25-8.95 10.7-15.7-14.8 22.75 2.95 39.5 14 13.2 39.65 17.65"/><path fill="#ef8200" d="M262.8 261.95q14.3 6.65 21.3 18.55-21.05-11.15-60.75-2.5-5.1-1.95 5.05-8.95 5.2-3.55 12.1-7.45.9-.9-4.35-2.15-5.35-1.25-8.7-.7 1.05-1.7 7.15-2.4l5.95-.3q11.55.95 22.25 5.9"/><path fill="#cf7100" d="M251.8 271.7q20.2 1.2 29.7 7.55-20.8-9.35-58.15-1.25-4.15-1.6 1.85-6.55l11.3-.1q8.9-.05 15.3.35"/><path fill="#ddd698" d="M170.95 49.15q0-.5 1.8-.65l5.7.2 13.5 10.85-8.35 9.2q-1.7-6.1-7.35-13.05l-5.3-6.55"/><path fill="#fff8b0" d="M283.15 39.2q12.45 15.4 9.25 34.7-.8-6.8-2.3-10.3-2-4.5-6.35-7.15 5.7 8.3 6.95 21.95 1.75 19.8-10.35 36.45 1.9-15.15-.95-25.65-2.9-10.55-10.8-17.15 3.15 2.7 2.6 13.15-.6 11-4.95 17.05.3-7.85-1.5-14.45l-1.8-5.05.65 4.6q.3 5.4-1.45 9.5-.4-11.25-9.1-22.5Q244.25 63 234.5 61.3l-29.45-6.1q-4.3 4.35-11.05 6.05-8 2-11.85-2.75-4.4-5.5-3.55-14 .85-9.05 7.3-15.1 5.85-5.55 18.85-9.65 8.75-2.8 19.95-4.7 4.55-.8 10.5-4.05 6.6-3.6 10.5-8.1-.2 4.95-3.2 9.5l-2.9 3.6 6-1.45q7.4-1.4 14.65-1 23.1 1.15 35.4 19.25-5.8-4.1-16.3-5.05l-9.35-.1 4.2 2.9q5.05 3.85 8.95 8.65"/><path fill="#ddd698" d="M235.9 18.65q-6.45 1.5-8.9.8-.9-.25.2-.65l4.1-1.55Q239.35 13.5 245 5.3q-.3 3.6-2.9 7.5l-2.5 3.2 2.3-.65 6.15-1.2q-5.25 2.9-12.15 4.5m49.65 6.6q7.6 3.8 10.1 7.55-5.8-4.1-16.3-5.05l-9.35-.1 1.05.65 2.75 1.95q-6-3.15-14.8-3.7l-4.55-.35q-1.6-.3-1.3-1.35.7-2.35 7.4-3.35 6.6-.95 14.6-.05 3.75.45 10.4 3.8M284.5 50.3q3.85 2.4 5.5 6.3 2 4.65 2.55 8.4.65 4.2-.15 8.9-.8-6.8-2.3-10.3-2-4.5-6.35-7.15-2.75-3.3-4.05-5.5-1.7-2.75-.35-2.65 2.25.15 5.15 2m-30.15 7.3q-1.9-5.15-1.05-4.9 14.1 3.9 23.05 16.4 10 14.05 8.15 32.75-.6 6-1.6 8.7-.6 1.6-2.55 4.3 1.9-15.15-.95-25.65-2.9-10.55-10.8-17.15 3.15 2.7 2.6 13.15-.6 11-4.95 17.05.3-7.85-1.5-14.45l-1.8-5.05.65 4.6q.3 5.4-1.45 9.5-.4-11.25-9.1-22.5Q244.25 63 234.5 61.3l-29.45-6.1q-4.3 4.35-11.05 6.05-8 2-11.85-2.75-3.65-4.6-4.45-11.05-.9-7.35 3.25-11.35-.65 6.95 2.5 9.3 3.55 2.6 12.6.1l9.9-2.6 11.9-.5q15.5 1.9 36.7 18.7 1.55 1.25-.2-3.5"/><path fill="#fff8b0" d="M250.6 185.1q-2.5 5-5.75 18.9-3.25 14.05-3.25 20.25 0 5.9-9.2 7.7l-6.85.2q-3.3-.55-4.15-2.25 2.15-4.25 2.65-8.6.5-4.55-.2-13.55l27.4-54.85-.65 32.2"/><path fill="#ddd698" d="M251.25 152.9l-.65 32.2q-1.5 2.95-3.55 10.25-1.95 6.95-3.45 14.45-6.75 1.95-12.2 6.45-5.35 4.45-8.75 10.85 1.3-3.4 1.55-7.55.25-4.25-.35-11.8l27.4-54.85"/><path fill="#fff8b0" d="M204.45 143.5q12.1-3.45 21.8-4.5 30.95-3.3 26 18.95Q247.9 177.6 233.2 196q-7.35 9.25-13.8 14.5l-3.15 15.2q-11.3 3.7-24.65 7.4-26.7 7.4-36.8 7.4-16.4 0-22.75-8.05-4.5-5.7-3.4-14 1.05-12.3 13.7-22.9 5.35-4.45 19-12.2 7.4-4.15 19.3-17.95 10.8-12.55 13.65-18.65l10.15-3.25"/><path fill="#ddd698" d="M207.55 182.5q8.1-16.9 12.25-24.25 7.35-13 14.3-19.8 9.6.3 14.25 4.45 5.5 4.9 3.9 15.05-3.5 22.5-34.25 55.2-15.4 16.35-30.1 28.2l-10.25.8-11.6-.4q12.05-7.6 12.55-23.8.15-5.05-.85-10.35l-1.05-4.3 3.45 3.7q3.6 4.8 4.45 10.5 5.45-2.8 11.65-13 3.9-6.5 11.3-22m-13.25-35.75l7.15-2.45q8.7-2.8 16.55-4.3-4.85 3.7-19.65 13.55-12.55 8.35-20.55 15.05 5.65-6.2 10.45-12.6 4.65-6.2 6.05-9.25"/><path fill="#fff8b0" d="M195.25 172.9q.1-6.25 5.05-8.25 4.35-1.75 10.85.15 6.25 1.85 10.8 6 4.95 4.4 5.05 9.1.2 8.4-2.25 15.7-.85 2.5-3.9 8.65-1.85 3.75-4.6 21.45l-20.2 6.1q.55-2.75.95-7.3.8-9.1.1-17.95l-1.2-12.6q-.8-9.95-.65-21.05"/><path fill="#ddd698" d="M202.95 163.95q7.3-.95 15.5 4.15 8.45 5.35 8.55 11.8.2 8.25-3.6 16.05-1.9 4-4.25 6.95l-.65-5.7q-.9-7.45-3.75-11.4-.85-1.2-1.3 1.75-.3 2.1-.3 4.95 0 .95-1.65-1.75-1.75-2.85-3.65-7.1-5.2-11.85-4.9-19.7"/><path fill="#fff8b0" d="M203.4 40.5q-.8-11.15 1.2-11.45 2.3-.3 10.75 8.6 7.85 8.3 14.95 18.05 6.9 7 11.8 14.65 5.15 8.1 8.75 18.05 4.15 11.65 7.45 26.9 3.7 17.4 3.05 25.8-.55 7.6.7 19.55.65 5.95 1.4 10.4l-1.6-4q-2.05-4.65-4.4-7.85 2.9 17.35-5.25 31.45.15-2-.25-4.7-.8-5.4-3.45-8.85.4 5.95-4.15 14.2-5.05 9.2-12.2 12.45 4.95-8.8-1.8-18.95l-6.05-7.9q-3.65-4.55-4.75-7.25.15 1.2-.5 7-.05 6.05 2.8 9.8-4.05-1.45-8.05-8.6l-3.15-6.8-.25 4.05q-.1 4.7.9 8.05-5.85-4.35-8-16.5-.7-3.8-.9-7.9l-.1-3.35q-1.6 1.75-3.15 4.15-3.1 4.8-2.8 8-3-6.8-2.6-16 .35-8.4 2.85-11.8 5.8-7.75 8.45-20.15 2-9.35 1.4-14.4-1.45.45-6.4 3.55-4.8 3-5.7 3.2l-2.05.3q-.75-.15-2-1.3-2.25.4-6.75-.8-4.7-1.2-6.35-2.9-2-1.95-1.7-3.3.5-2.2 5.8-9.5 2.45-3.35 3.05-8.85.55-5.3-.7-11.15-.9-4.2 2.3-8.7 2-2.8 4.75-4.9l4.25-.55q5.15-1.25 9.95-4.65l-1.5-15.15"/><path fill="#ddd698" d="M210.2 97.15q1.65-.5.65.7-.8 1-2.75 2.5-1.4 1.1-.6 1.35l1.85-.3 4.3-2.25q3.75-1.85 5.55-1.6 1.25.15 2.5 2.7 1.45 2.85 1.7 6.6.7 10.3-7.45 18.75-5.65 5.8-8.4 5.45-2.15-.3-4.55-5.25 1.1-2.45 2.4-9.95 1.35-7.75 1.05-10.65-1.45.45-6.4 3.55-4.8 3-5.7 3.2l-3.4-.35q-2.2-.55-3.45-1.25 4.5-.95 11.65-6.35 7.6-5.75 11.05-6.85m-7.8 61.6l-.1-3.35q-1.6 1.75-3.15 4.15-3.1 4.8-2.8 8l-1.1-2.95q-.3-1.75.3-4.8.65-3.15 4.1-7.3 3.35-4 3.85-3.1l.3 6.2q.1 6 .9 7.7.8 1.75 2.45-1.8 1.75-3.8 1.95-3.7l2.7 7.55q2.35 6.85 3.35 5.5.8-1.15 2.75-6.7 1.55-4.5 1.65-3.6.2 1.65 3.2 6.4 3.45 5.4 6.8 8.25 3.35 2.9 5.65 6.45 1.55 2.4 3.2 6.15 1.2 2.85 5.7-7.8 4.45-10.5 4.9-16.45.1-1 1.35 3.6 1.4 5.25 2.05 4.6.5-.5 2.45-16.3 1.75-14.1 2.1-10.65.35 3.95 2.45.2l1.95-3.9q-.55 7.6.7 19.55.65 5.95 1.4 10.4l-1.6-4q-2.05-4.65-4.4-7.85 1.8 10.8-1.75 22.9-1.8 6.05-3.95 9.95.25-2.35-.05-5.4-.55-6.1-3.2-9.55.4 5.95-4.15 14.2-5.05 9.2-12.2 12.45 4.95-8.8-1.8-18.95l-6.05-7.9q-3.65-4.55-4.75-7.25.15 1.2-.5 7-.05 6.05 2.8 9.8-4.05-1.45-8.05-8.6l-3.15-6.8-.25 4.05q-.1 4.7.9 8.05-5.85-4.35-8-16.5-.7-3.8-.9-7.9m-7.65-94.1q-7.1 4.1-9.15 1.95 2.45-3.85 4.7-5.45l4.8-.85q5.5-1.4 9.2-4.2-2.6 4.5-9.55 8.55"/><path fill="#e50044" d="M199.75 86.55q0-7 2.25-9.9 2.2-2.9 9.1-4.85 0 7.25-2.7 10-1.25 1.25-8.65 4.75"/><path fill="#c6003a" d="M199.9 86.5l-.15.05q0-7 2.25-9.9 2.2-2.9 9.1-4.85l-.05 2q-5.2 1.05-8.15 4.85-2.5 3.25-3 7.85"/><path fill="#fff8b0" d="M216.25 45.05q5.75 7.5 7.05 10.55l-13.45 1.05q-1.35-.3-2.2-9.7-.85-9.25.05-10.7 2.3.6 8.55 8.8"/><path fill="#ddd698" d="M215.6 44.15q-1.75-1.3-2.6 3.2-.8 4.35.1 9.3-2.65.2-3.25 0-1.35-.3-2.2-9.7-.85-9.25.05-10.7 2.2.6 7.9 7.9"/><path fill="#fff8b0" d="M136.85 201.4l-3.1 3.9q-3.3 5.2-4.35 11.5-.75 10.6 4.85 17.05 5.5 6.35 15.4 6.5 12.2.2 25.45-2.55 8.4-1.75 22.7-6.15 15-4.6 21.65-6.05 12-2.7 22.2-2.45 27.9.7 50.95 16.85 19.15 13.4 26.9 30.5-21.85-19.75-61.55-16.45-28.3 2.4-52.9 13.65-17.45 8.05-40.25 10.6-24 2.7-39.85-2.6-22.85-7.6-27.6-27.65-2-8.5.15-17.2 2.1-8.55 7.6-14.95 7.2-8.35 17.15-11.95 7-2.55 14.6-2.55"/><path fill="#ddd698" d="M129.5 222.35q-3.25-4.25-4.6-9.2-1.4-5.1-.5-10 6-1.75 12.45-1.75l-3 4.55q-3.25 5.6-4.45 10.85-.2 2.8.1 5.55m-4.75 53.25q-17.45-5.8-24.8-19.2-6.85-12.5-2.35-25.85.2 20.4 18.45 29.85 14.5 7.5 35.4 6.5 20.1-1 38-5.05 10.35-2.35 27.7-8 15.85-5.15 24.4-6.75 13.65-2.6 28.15-1.45 13.05 1.05 29.05 8.6 17 8 20.75 16.25-21.85-19.75-61.55-16.45-28.3 2.4-52.9 13.65-17.35 8.05-40.35 10.55-24.1 2.65-39.95-2.65"/><path fill="#ef8200" d="M319.5 270.5q-15.6-14.1-40.8-16.45-20.05-1.85-43.85 3.75l-6.2 1.65-4.65 1q-.55-.85 8.75-5.9 9.8-5.35 10.1-5.8.65-1-9.1-3.85l-11.8-3.25q-1.65-.5 2.95-2.4 3.9-1.6 6.55-2.2l-7.5-1.8q-8.7-2.1-7.05-4.65 1.65-2.55 11.15-4.4l14.15-3.05q29.4 1.25 51.6 17.15 17.8 12.8 25.7 30.2"/><path fill="#cf7100" d="M292.5 251.35q8.9 3.4 16.6 8.25 5.8 3.6 7.75 5.75l2.65 5.15q-15.6-14.1-40.8-16.45-20.05-1.85-43.85 3.75l-6.2 1.65-4.65 1q-.55-.85 8.75-5.9 9.8-5.35 10.1-5.8.35-.45-1.9-1.45 25.35-6 51.55 4.05"/><path fill="#0d131a" d="M243.8 274.45q3.7.55 5.85 3.2 1.9 2.35 1.65 5.05-.2 2.1-2.3 3.25-1.85 1-4.2.8v-1.15q1.95.15 3.15-1 1-.95 1.15-2.5.2-2.3-1.4-4.2-1.85-2.15-5.05-2.65l1.15-.8"/><path fill="#0d131a" d="M243.55 279.95q-.65-.5-.45-.6.2-.1 1.15.4 1.45.75 2.05 2.55.6 1.85-.2 3.3-.9 1.75-3.2 2.45l-5.75-.15 1.5-1.3q4.65 1.3 6.25-1.85.5-1-.05-2.7-.55-1.55-1.3-2.1"/><path fill="#0d131a" d="M236.05 280.7l-.9-.5.7-.1q.85.1 2.35 1.05 1.75 1.1 2.25 2.25.8 1.9-.6 3.6-.85 1.1-2.2 1.45l-5.8-.35-.85-1.3q6.3 1.35 7.9-.7.7-.85.15-2.3-1.05-2.3-3-3.1"/><path fill="#0d131a" d="M185.25 289.55l1.95-1.4q12.95-2.55 26.3.5 7.55 1.7 20.3 6.95l1.55.55-.65-1.75q-3.25-6.5-8.1-10.8-4.25-3.75-8.1-4.55l2.5-.65q4.45.9 9.2 5.8 5.5 5.75 7.2 13.45.3 1.4-.2 1.35l-1.95-.9q-8.2-3.85-19.9-6.65-17.65-4.3-30.1-1.9M166.05 38.7q7.15.8 12.65 4.05l-.8 1.9q-4.95-2.9-10.75-3.5-3.2-.3-9.8.1l-1.7-1.85q3.95-1.5 10.4-.7"/><path fill="#0d131a" d="M183.45 76.75l.65 6.3q.3 3.15-.1 6.2l-.35-2.65q-5.1-31.75-34.5-49.6-15.2-9.2-32.25-6.05-15.05 2.75-25.7 13.4L89.3 44q9-11.4 25.45-15.3 19.05-4.5 35.85 5.65 11.9 7.2 20.4 18.4 8.2 10.7 12.45 24m.75 33.25l2 .65q-2.4 22-12.05 43.3-8.9 19.65-22.35 35.35l-3.9 2.45q13.7-16.05 23.45-36.95 10.75-23.2 12.85-44.8"/><path fill="#0d131a" d="M86.4 41.95q14.7-.15 28.05 7.45 15.3 8.7 25.75 23.1 10.4 14.4 14.85 32.85 5.6 23.65 1.65 50.8-3.4 23.65-10.55 33.4l-.7-1.85q6.2-10.7 9.25-32.25 3.7-26.4-1.75-49.25-8.65-36.45-38.8-53.6-13.2-7.5-27-7.75T61.4 51.7q-11.8 7-18.55 18.85-6.75 11.85-6.55 25.3H34q-.25-14 6.55-26.5Q47.5 56.65 59.5 49.5q12.55-7.4 26.9-7.55"/><path fill="#0d131a" d="M26.15 98.5q16.4-10.3 37.55-9.45 21.2.9 39.9 12.7 20 12.65 31.25 34.5 12.5 24.35 11.65 56.15l-1.75 1.05q.85-30.4-11.1-54.25-10.75-21.6-30-34.4-18.15-12.05-38.8-13.15Q44 90.55 27.35 101q-9.95 6.2-16 16-7.9 12.9-8.2 30.7-.4 20.25 15.1 33.15 6.25 5.2 13.3 7.45 6.85 2.15 11.7.7l-2.45 1.85q-3.2.95-9.45-.75-7.2-1.95-13.55-6.5Q.3 171.1 0 147.4q-.2-16.1 7.55-29.55 6.95-12 18.6-19.35"/><path fill="#0d131a" d="M37.55 153.1q-2.15.85-2.35.35-.25-.5 2.6-1.95 3.45-1.75 9.1-1.5 6.45.25 12.6 3.15 16.25 7.6 21.7 28.7l-2.5.6q-5.8-19.25-18.55-26.35-5.2-2.9-11.5-3.8-6.55-.95-11.1.8"/><path fill="#0d131a" d="M32.2 192.65Q44.25 185 60.15 182.2q14.55-2.55 30-.7 14.7 1.8 26.55 7.15 12 5.4 17.65 12.9l-1.8.45q-3.5-5.3-13.9-10.1-10.9-5.1-24.55-7.25-34.35-5.5-59.1 9.95-23 14.35-27.6 35.75-3.8 17.4 4.75 31.5 8.75 14.4 26 23.45 21.5 11.2 46.65 7.35l3.7 2.35q-24.95 2.95-45.55-4.95-22.2-8.5-33.75-27.6-3.25-5.4-4.7-13.15-1.65-9-.05-18.05 4.1-23.55 27.75-38.6"/><path fill="#0d131a" d="M115.7 206.6l-1.75 1.65q-11.45-.65-22.25 2.55-11 3.2-19.05 9.75-18.35 14.85-14.5 38.9 3.7 23.3 29.65 33.5 16.75 6.6 39.5 6.85 13 .15 34.25-4.95 14.6-3.5 31.6-9.15 30.35-10.15 52.35-11.9t36.45 4.8q-8.1-11.8-23.65-17.7-8.95-3.35-17.8-4.1l3.25-1.5q8.35.65 18.05 4.85 15.45 6.65 22.7 19l1.35 2.65-2.1-.6q-20.4-9-50.4-4.2-14.5 2.35-37.6 10.05-20.55 6.85-32.25 9.75-22.55 5.65-38.7 5.3-24.25-.5-42.05-8.7-24.05-11.1-27.9-33.85-1.8-10.95 1.65-21.05 3.45-9.95 11.55-17.4 17.65-16.3 47.65-14.5m53.75-159q1.5-.65 8.75-.15l.2 1.8-5.25-.35q-1.55 0-.85.8 4.6 5.3 6.4 7.8 4.3 6 5.45 11.1l-.9 2.7q-.7-5.3-5.65-12.4-3.3-4.7-7.3-8.7-2.05-2.05-.85-2.6"/><path fill="#0d131a" d="M296.5 32.25l1.05 1.85q-.1.45-2.25-.8-4.75-2.75-12.65-4.1l-10.7-.9q12.35 7.15 18.2 19.35 5.2 10.9 3.75 22.05-.6 4.6-1.05 4.3-.15-.15-1.35-4.3-.9-3.2-2.2-5.95-1.65-3.4-3.5-5.05 6.2 12.4 6.2 26.75 0 7.55-3.1 16-3.2 8.75-8.05 13.75l-1.85 1.65q-.25-.1 0-2.45 1.6-12.85.4-21.1-1.65-11.05-8.5-18.25 1.4 4.65 1.4 8.5 0 5.5-1.05 9.65-1.3 4.85-4.25 9.15l-1.3 1.6-.1-2.65-.45-6.95q-.4-4.45-.9-5.6 0 6.3-1.25 9.85l-.65 1.3q-.25-.2-.85-3.05-2.95-14.2-9-22-5.45-7.05-15.7-11.6l-2-2.35q10.8 2.5 18.65 12.25 7.35 9.2 9 20.6.55-2.4.55-5l-.05-3.7-.4-3.25q-1.3-3.4-.35-2.75.9.65 1.9 3.1 1.3 3.15 1.85 5.85.95 4.65.95 12.05 1.85-3.35 2.8-8.15.9-4.4.9-8.9 0-7.5-2.55-10.55l-2.6-2-1.35-1.3q-.1-.6 2.15.45 2.35 1.1 4.3 2.75 13.55 11.6 10.65 40.1 8.95-13.45 8.95-28.55 0-8.2-2.65-16.75-2.05-6.5-4.55-10.45-2.15-3.4-1.4-3.25.7.15 2.55 2.5 3.75 1.7 6.45 6.6l1.85 3.9q0-15.9-11-28.15-5.2-5.8-12.75-10.3-2.1-1.25-2.1-1.65 0-.55 3.4.7l9.55-.3q7.6.75 13.9 3.95-12.35-15.85-32.75-16.65-6.55-.3-13.75 1.05l-7.35 1.65-2.75-.05q.55-.55 2.4-1.15 2.45-2.4 4.35-6.9 1.9-4.4.9-3.6-2.4 2.5-5.65 4.8-6.4 4.4-14 5.8-29.15 5.35-38.5 14.2-3.6 3.4-5.45 8.05-1.75 4.25-1.75 8.85 0 5.95 3.7 10.6 3.15 3.85 10.7 2.65 7.1-1.15 11.1-5.2l.9.85q-4.6 4.6-11.7 6.2-8.3 1.8-12.45-3.15-5.2-6.25-4.55-14.8.65-8.9 7.4-15.35Q189.85 23.2 203 19q10.2-3.25 22.45-5.15 5.1-.8 11.1-4.6 5.15-3.35 8.85-7.35 1.8-1.95 2.3-1.9.6.1-.15 3-1.9 7.5-5.95 11.8 15.15-4.6 28.45-1.45 16.25 3.85 26.45 18.9M225.3 216q0 4.8-1.05 8.55l-1.75.55q.85-3 1-6.95.1-3.8-.4-10.35l2.1-2.4.15 5.7-.05 4.9m25.65-33.95l.55 4.8q-2.3 4.55-5.3 17-3.1 12.8-3.4 19.45l-1.95-.15q.35-6.95 4.05-21.8 3.65-14.5 6.05-19.3"/><path fill="#0d131a" d="M233.75 193.3l.5 2.05q-3.1 6-7.7 10.6l-7.85 6.95.15-2.3q5.1-4.65 8.9-9.15 3-3.6 6-8.15m-61.55 6.95q-1.1-.8-.8-1.1.25-.3 1.55.35 7.5 3.55 11.1 11.45 4.65 10.2.2 24.15l-2.05.25q3-13.7 0-22.4-2.5-7.25-10-12.7m22.45-9.8q-.8-9.3-.45-15 .15-2 .75-2.95.7-1 .75 1.55.1 4.1 1.1 15.3l1.4 15.25.1 1.4q.25 2.9-.1 8.7 0 8.9-1.3 17.35l-2.2.3q2.35-14.5 1.45-26.15l-.1-1.4-1.4-14.35"/><path fill="#0d131a" d="M228.45 181.5q-.6 9.05-2.8 15.25L222.3 204q-.95 2-2.8 10.35-1.55 7.1-2.25 11.5l-1.95.25q3.05-18.55 4.85-22.2 2.1-4.05 3.35-8.1 2.15-6.95 2.75-15.95l2.2 1.65"/><path fill="#0d131a" d="M243.8 70.65q4.45 6.75 7.7 15.3 3.85 10.05 7.05 26.35 3.35 16.8 3.15 26.25-.2 8.85 1.1 19.1l1.4 13.25q.05 2.95-.35 2.25l-1.05-2.75q-1.2-2.85-4.2-7.95l.2 4q-.2 9.7-1.65 15.25-1.15 4.45-3.9 8.5-1.75 2.65-2.1 2.5-.25-.1-.05-2.95.35-5.25-1.95-10-.9 7.4-3.7 12.35-3.9 6.95-12.65 11.9l-2.45 1.25q-.35 0 .55-1.25 1.1-1.45 1.8-3.4.85-2.35.85-4.65 0-4.2-2.75-8.95-1.6-2.75-5.8-8-3.35-4.1-4.85-6.55-.2 4 .45 7.7.65 3.65 1.95 6.05.5.9.15.9l-1.45-.5q-4.05-1.45-6.65-5.1-1.95-2.7-3.4-7.2v3.35q.1 3.35.85 5.3l.4 1.55-1.6-.7q-5.25-2.85-7.6-12.85-1.55-6.65-1.55-14.65-4.4 5.55-4.5 11.4-.1 2.25-.35 2.4-.3.1-1.4-1.95-1.15-2.1-2.25-6.15-1.25-4.7-1.25-8 0-4.7.75-8.3.7-3.65 2.05-5.45 5.35-7.1 8.7-18.7 2.65-9.3 2.65-15.2l-5.6 3.4q-4.75 2.7-6.15 3-3.1.7-5.1-.9-3.25.45-8.4-1.8-5.2-2.3-6-4.65-.7-2 2-6.2l4.8-7.1q2.1-3.6 2.25-7.5.1-3.2-1.15-9.25-1-4.65 1.9-9.4 1.85-3 4.25-4.9l3.1-.1q-2.55 1.85-4.65 4.55-3.8 4.75-2.95 8.8 1.3 5.9.95 10.4-.35 4.55-2.4 8.35l-4.7 7.5q-2.25 3.85-.5 5.6 1.6 1.6 5.3 2.95 3.65 1.35 5.6 1.05l2.5-.1q1.1 1 1.6 1.15l1.7-.1q1.25-.4 8.05-4.45 7.45-4.5 11.1-6.1 2.45-1.05 3.15-.85.75.2-1.15 1.05-1.4.7-4.25 2.35l-3.2 1.95q0 6.55-2.4 15.9-3.1 12.05-8.5 19.3-1.55 2.05-2.2 5.5-.6 3-.6 7.8 0 5.85 1.55 10.8.7-3.1 2.55-5.8l3.15-4q.3-2.4.75-2.55.5-.15.5 2.85 0 5.75 1 11.4 1.75 9.95 6.05 14.65-1.2-4.05.2-9.25-.65-2.2-.7-3.9-.05-1.95 1.9 3.05 2.15 5.75 3.25 7.65 1.75 3.15 5.05 5.85-.9-2.15-1.25-7.05-.35-5.55.6-9.35.7-2.8 1.1-.65l.3 2.75q.7 1.75 2.35 3.9l3.35 4.1q4.4 5.4 6.1 8.4 2.9 5 2.9 9.5 0 2.9-1.25 6 5.9-3.65 9.95-11.1 3.7-6.85 3.9-12.9.1-3.9.6-4 .5-.1.85 4.05 1.65 1.9 2.55 5 .75 2.65.85 5.45 1.9-2.85 3.2-9 1.35-6.15 1.25-12l-.5-11.4q-.15-2.8.1-2.75.35.1 1.4 5.5 1.15 1.25 2.2 3.2l1.55 3.2-1-7.95q-.55-5-.55-9.2 0-7.2-.55-14.2-.7-9.85-3.4-22.55-2.75-12.95-6.2-22.6-3.4-9.6-8.3-17.4-4.9-7.8-12.05-15.05h-.05l-.05-.05q-7.75-10.65-15.4-18.75t-9.5-7.6q-1.15.35-.75 7.4l1.8 19.8q.2 2.05-.25 1.8-.5-.2-.8-1.9-2.05-11.15-2.55-18.6-.7-10.65 2.05-11.05 2.3-.3 11.4 9.15 9.3 9.6 15.45 19 7.9 7.95 12.7 15.25"/><path fill="#0d131a" d="M207.8 38q-.1 4.65.8 11.2.8 5.7 1.4 7l12.35-1.35q-1.5-2.8-6.3-8.8-4.2-5.25-6.4-7.5l-1.6-1.5q-.25-.05-.25.95m-1.3-1.65l.3-1.55q.25-.2 1.45.8 5.25 4.3 10.55 11.35 4.3 5.7 5.2 8.15.65 1.65.15 1.85-.45.25-1.25-1.05l-7.05 1.1q-4.2.4-5.6.05 0 1-.45 1.1-.5.1-1.25-1.85-1.1-2.85-1.75-10.25-.55-6.65-.3-9.7m-20.95 66.55q1 1.55-.75 3.9-1.5 2.05-2.6 2.35-1.25.3-4.05-.95-3.3-1.5-3.4-3.8-.05-1.65 4.85-2.45 4.9-.8 5.95.95m24.15-5.1q1.15-.7 1.4-.4.25.25-1.15 1.25-1.55 1.05-4.65 3.75-4.4 3.75-8.6 6.3-5.7 3.35-8.95 3.1-4.1-.35-4.2-1-.05-.6 3.3-.6 4.35-.05 8.5-2.2 3.6-1.9 9.9-7l4.45-3.2m-60.6 143.4q-10.35-.45-16-6.2-6.05-6.2-5.2-17.15.35-4.65 1.95-8.4 1.45-3.45 4.45-7.2-6.7.4-13.95 3.65-7.75 3.55-13.35 9.35-13.9 14.25-8.3 33.9 3.55 12.5 15.25 19.9 10.6 6.7 26.75 8.45 15.05 1.65 32.25-1.25 16.8-2.8 31.8-9.25 26.95-11.5 53.15-13.7 37.35-3.15 59.3 14.4-9.1-16.85-25.7-28.25-21.4-14.75-49.85-15.55-9.85-.25-21.35 2.15-6.9 1.45-20.85 5.55l-24.05 6.75q-14.55 3.35-26.3 2.85m45.55-97.45l-.15 3.8q-2.8 6.05-13.35 18.4-11.75 13.75-19.4 18.05-16.8 9.5-24.15 17.5-4.55 4.9-6.45 11.3-1.9 6.35-.6 12.1 1.35 6.15 5.95 9.85 5.05 4.15 13.2 4.5 12.75.6 27-3 7.85-1.95 19.75-6 15.95-4.65 22.1-6 13.1-2.9 24.4-2.65 28.9.6 51.45 17.4 18.05 13.45 25.8 31.2l.6 2q-.2.3-1.85-1.1-10.7-9-26.3-13.2-16.35-4.4-35.45-2.8-14.25 1.15-27.95 5.1-10.4 3-22.65 8.35-16.95 7.4-34.95 10.3-17.95 2.85-33.5.75-16.2-2.2-27-9.45-11.55-7.8-15.35-20.35-2.4-7.85-.85-16.15 1.55-8.35 6.7-15.4 11.7-16 34.25-17.85 7.95-8.8 25.1-17.95 7-3.7 19.4-18.7 11.15-13.45 14.25-20"/><path fill="#fff" d="M204.6 75.1q-.1-2 2.25-2.55 2.3-.6 2.5.3.85 3.4-1.85 4.1-2.75.65-2.9-1.85"/><path fill="#0d131a" d="M202.35 76.9q-2.1 2.7-2.2 9.05l1.8-.8q5.2-2.35 6.65-4.1 2.1-2.6 2.15-8.75-6.25 1.85-8.4 4.6m-2.15 9.5l-.25.75q-.2 0-.3-.75-.85-6.55 1.55-9.95 2.6-3.65 9.8-4.95l1.05.1q.05.3-.65.5.4 7.15-2.35 10-1.8 1.85-8.85 4.3"/><path fill="#fff" d="M180.4 104.85q0 .4-.55.65l-1.3.3-1.25-.3q-.55-.25-.55-.65t.55-.7q.5-.3 1.25-.3.8 0 1.3.3.55.3.55.7"/></svg>