<svg xmlns="http://www.w3.org/2000/svg" width="165" height="181" viewBox="-1.9 -1.05 165.4 181.2"><path fill="#f6c8dd" d="M67.1 162.55q3.8.2 10.65 4.75 6.8 4.5 5.2 5.7-3.7 2.7-18.45 4.35-15.25 1.75-21.2-.35-1.6-.5-1.3-2.85.3-2.3 2.15-4.15 2.8-2.75 11.5-5.3 7.85-2.3 11.45-2.15"/><path fill="#d5adbf" d="M55.75 164.8q3.1-2.65 12.25-3.65l12.75.4q4.8 1.55 6.3 4.6 1.9 3.8-4.2 7.3l-3.85 1.4-5.75 1.2q.65-1.6-4.85-6.15-6.25-5.15-12.65-5.1"/><path fill="#0d131a" d="M79.85 161.75q.5-.65 2.05 0 6 2.55 6.5 6.3.45 3.55-4.1 5.6-11.9 5.3-26.45 5.9-13.65.6-17-3-2.25-2.95 2.9-7.2 5.55-4.5 15.55-6.8l3.85-.6 3.85-.25 2.1.35q1.3.35.65.4-14 1.7-21.9 6.25-6.6 3.8-4.95 6.05 3.2 3.5 18.75 2.15 14.85-1.3 22.15-4.9 3.55-1.75 3.05-4.3-.55-2.75-6-4.75-1.55-.55-1-1.2"/><path fill="#f6c8dd" d="M102.45 157.9l12.1.6 11.7 1.2q.45-.2 4.95 2.1 4.4 2.25 5.25 3.05 4.35 4 5.1 7.75.55 2.95-.6 3.1-10.6 1.8-23.8-4-6.75-3-13.8-7.9-2.05-1.4-1.65-3.65l.75-2.25-.95.2.95-.75v.55"/><path fill="#d5adbf" d="M103.45 158q7.35-2.45 12.35-1.8 2.5.3 10.15 3.1 1.85.65 4.85 2.55 3 1.9 1.7 1.55l-3.65-.9q-2.85-.3-5.85 1.1-5.9 2.85-6.45 7.65-2.6-.1-6.45-2-5.9-2.85-7.85-7.95-.35-.9.1-2 .4-1.05 1.1-1.3"/><path fill="#0d131a" d="M106.5 155.25q12.65-.85 25.9 6.15 4.9 2.55 8.05 6.25 3.3 3.9 2.95 7.1-.2 1-1.25 1.75-.9.7-2 .9-2.55.5-6.7-.05-8.25-1.1-17.5-4.9l-6-2.8q-3.35-1.8-5.45-3.75-1.65-1.5-2.5-3.6-1-2.4-.2-4.05.25-.4.7-.4l.05.05.4.5-.15 1.55q.15 2.45 1.65 4 2.15 2.25 5.65 4.1 2.1 1.1 6.5 2.8 8 3 15.65 4.15l5.7.4 2.2-.3 1-.7q.25-2.05-2.95-5.75-3.3-3.85-7.45-6.1-5.55-3.05-10-4.15-4.1-1-12.55-1.6-.75-.05-1.75-.75t.05-.8"/><path fill="#f6c8dd" d="M127.5 46.35q24.2 18.9 24.2 50.4 0 31.45-21.9 50.75-20.65 18.2-51.3 18.2-31.3 0-51.1-20.05-19-19.2-19-47.45 0-30.2 19.2-49.65Q46.45 29.4 75 29.4q30.7 0 52.5 16.95"/><path fill="#f6c8dd" d="M127.45 20.25q4.6 18.35 2.85 27.95-2.55-2.15-7.35-5.35-5.7-3.8-8.4-4.7-1.7-3.85-4.5-7.9-3.1-4.5-6.05-6.9-1.9-1.55-5.6-3.8-4.4-2.7-7.6-4 9.1-6.9 15.8-10.7Q114.95.15 118.5.9q4.4.95 8.95 19.35m23.75 66.3l4.55-1.35q4.65-1.1 5.1 0 .9 2.05-1.25 8.7-2.7 8.2-8.2 13.65l.45-11.55-.3-6.5-.35-2.95"/><path fill="#fff" d="M58.75 74.15q12.2 0 20.05 8.3 6.65 7.05 6.65 15.05 0 12.4-8.25 20.75-7.85 7.9-18.45 7.9-9.85 0-17-8.4-6.9-8.1-6.9-18.3 0-9.85 6.7-17.4 7.05-7.9 17.2-7.9m59-8.3q2.85-4.5 6.25-4.5 7.2 0 13.2 8.15 5.75 7.9 5.75 16.6 0 9.6-1.7 14.1-2.4 6.25-8.75 6.25-7.3 0-12.75-9.7-5.1-9.05-5.1-19.2 0-6.8 3.1-11.7"/><path fill="#2cb5a9" d="M60.6 77q7.8 0 14.05 5.55 6.5 5.8 6.5 13.9 0 9.8-6.6 15.75-6 5.4-14.55 5.4-7.15 0-12.85-6.05-5.55-5.9-5.55-13 0-8.95 5.45-15.25Q52.6 77 60.6 77m59.3-9.9q2-3.4 4.45-3.4 6.2 0 11.2 6.5 5.1 6.65 5.1 15.45 0 6.5-2.1 10.65-2.1 4.2-5.5 4.2-5.75 0-10.65-7.95-4.75-7.75-4.75-16.15 0-5.5 2.25-9.3"/><path fill="#0d131a" d="M123.25 42.9q-5.6-3.5-8.7-4.75-2.4-4.95-4.25-7.8-1.1-1.8-3.8-4.55l-2.5-2.45 1.95-3.25q2.3-3.65 4.2-5.55 3-3 6.15-5.3l2.4 4.85q2.6 5.95 3.55 11.55.95 5.65 1.1 12l-.1 5.25"/><path fill="#922f00" d="M109.8 115.15q-5.55-3.55-9.05-3.75l-2.9.2-.95.25-.05-1.15q0-1.2.45-1.35l3.55-.65q3.6-.65 6.05-1.55l5.5-2.3q2.5-1.1 2.65-.85l1.2 3.25q1 3.35 1 5.8l-.4 11.3-2.25-3.75q-2.65-4.05-4.8-5.45"/><path fill="#ed8599" d="M109.65 114.8q3.15 3.05 5.5 7.3 1.15 2.15 1.7 3.7l-1.4 6.6q-2.05 6.55-5.05 6.55-3.2 0-6.35-4.8-2.4-3.7-4.45-9.6-1.35-4.05-2.15-8.9l-.55-4.05 4.5-.2q5.15.35 8.25 3.4"/><path fill="#d5adbf" d="M11.8 119.25q-3.2-9.7-3.35-18.2.25 7.3 4.8 16.4 5.15 10.4 14 19.15 22.05 21.85 52.9 21.85 31.85 0 53.1-20.9 8.05-7.95 13.1-17.55 4.35-8.3 4.95-14.65 0 8.75-4.4 18.75-4.8 10.85-13.45 19.7-21.45 21.9-55.5 21.9-35.25 0-54.65-24.85-7.5-9.6-11.5-21.6"/><path fill="#d5adbf" d="M160.75 85.45l-.15 3.45q-.55 4.4-2.5 9.1-1.95 4.7-4.8 7.55l-2.45 1.9 1.4-11.25q6.05-4.4 8.5-10.75"/><path fill="#f6c8dd" d="M59.75 147.95q.75-1.65 3.7-.75 5 1.5 12.6.25 8.15-1.35 14.65-5.2l-.45 1.8q-1.1 2.2-4.4 4.25-2.6 1.6-9.95 3.55-3.85 1.05-6.95.9-4-.15-7.85-2.15-2.15-1.1-1.35-2.65"/><path fill="#0d131a" d="M150.3 96.85q0-29.35-21.2-47.95-21.15-18.55-54.65-18.55-13.05 0-24.8 4.9t-20.8 14.1Q19.7 58.75 14.8 71.2 9.9 83.65 9.9 97.65q0 13.25 4.85 25.35 4.85 12.05 13.95 21.45 9.55 9.8 22.35 15 12.8 5.25 27.25 5.25 14.9 0 28-4.6 13.15-4.6 22.85-13.25 10.35-9.25 15.75-21.95 5.4-12.75 5.4-28.05M130.6 47.6q21.8 19.1 21.8 49.25 0 30.75-20.75 50.25-20.7 19.45-53.35 19.45-31.5 0-51.45-20.3Q7.6 126.7 7.6 97.65q0-31.6 20.25-51Q46.8 28.5 74.45 28.5q34.35 0 56.15 19.1"/><path fill="#0d131a" d="M128.95 22.35q4.3 19.15 2.1 26.3l-.45.55-.7.1q-.85-.25-.6-1.15 2.05-6.85-2.15-25.4-4.3-18.9-8.9-20.8-2.15-.9-10.2 3.25Q99.2 9.75 90.6 16.95l-.7.2-.6-.35-.25-.7.35-.6Q98.05 8.25 107 3.6q9-4.65 12-3.4 5.45 2.3 9.95 22.15"/><path fill="#0d131a" d="M117.9 7.75l1.55.1q-.05.45-1.45 1.1-2.15.95-5.85 4.9-4.55 4.75-7.6 10.4-.2.35-1-.3-.85-.65-.65-1 3.25-5.95 8.2-10.6 4.2-3.9 6.8-4.6"/><path fill="#0d131a" d="M123.25 25.8q2.25 10.05 1.35 17.4l-1.15.05q-1-.95-.95-1.45 1.1-6.5-1.15-16.25-1.95-8.45-5.5-15.95 1.1-.75 1.2-.6 4 7.1 6.2 16.8m-7.5 51.6q0 11.5 5.4 20.15 5.15 8.15 11.2 8.15 9.6 0 9.6-17.4 0-10.1-5.35-18.1-5.4-8-12.15-8-3.15 0-5.7 3.65-3 4.35-3 11.55m-1.9 0q0-7.6 3.4-12.4 3.1-4.35 7.3-4.35 7.65 0 13.65 8.35 6.05 8.4 6.05 19.3 0 10.75-4.05 15.4-2.95 3.45-7.95 3.45-7.25 0-12.8-8.95-5.6-9-5.6-20.8"/><path fill="#0d131a" d="M120.5 67.65q-1.85 3.3-1.85 8.25 0 8.95 4.5 16.3 4.5 7.35 10 7.35 3 0 4.85-4.05 1.7-3.7 1.7-8.7 0-8.9-4.55-15.55-4.6-6.65-10.7-6.65-2.25 0-3.95 3.05m-3.7 8.25q0-5.9 2.4-9.65 2.25-3.5 5.25-3.5 7.35 0 12.4 7.65 4.7 7.15 4.7 16.4 0 5.85-2.15 10-2.35 4.6-6.25 4.6-6.3 0-11.3-7.85-5.05-7.8-5.05-17.65m-39.5 6.3Q70.15 75 60.05 75q-10.45 0-17.3 6.85-6.8 6.85-6.8 17.35 0 10.7 6.85 18.25 6.85 7.6 16.5 7.6T76.45 118q8.05-7.55 8.05-18.55 0-10.1-7.2-17.25m-36-1.6q7.6-7.45 18.75-7.45 10.9 0 18.6 7.7 7.7 7.75 7.7 18.6 0 11.8-8.65 19.9-8.05 7.6-18.4 7.6-10.45 0-18.05-8.15-7.65-8.15-7.65-19.6 0-11.1 7.7-18.6"/><path fill="#0d131a" d="M80.3 96.75q0-7.75-5.75-13.3-5.75-5.5-13.85-5.5-7.1 0-12.35 5.45-5.7 5.9-5.7 15.1 0 7.4 5.65 12.95Q53.9 117 61.45 117q7.65 0 13.25-6 5.6-6.05 5.6-14.25M40.75 98.5q0-10.05 6.3-16.45 5.8-5.95 13.65-5.95 8.9 0 15.2 6.05 6.3 6.05 6.3 14.6 0 9-6.15 15.55-6.15 6.55-14.6 6.55-8.25 0-14.45-6.1-6.25-6.1-6.25-14.25m71.95 5.25l1.5-.7q.55-.15.95 0 1.75.75 2.55 6.6.75 5.6.25 12.5-1.3 17.6-7.6 17.6-6.15 0-11.25-14.4-1.9-5.45-2.75-10.45-.8-4.9-.05-5.8.25-.3.85-.5l1.95-.4 7-1.85q4.4-1.4 6.6-2.6m2.95 6.7q-.55-4.25-1.2-5.45-.4.25-.85.45-4 2.15-7.45 3.1l-6.7 1.5-1.7.35-.05.65q0 3.35 1.9 10.15 2.25 8 5.3 12.5 2.8 4.15 5.45 4.15 2.3 0 3.75-3.5 2.1-4.95 2.1-14.4 0-4.95-.55-9.5"/><path fill="#0d131a" d="M96.75 111.15q6.45-2.25 13.6 3.2 7.6 5.7 6.65 14.2-.05.4-.6.4-.55 0-.5-.4.65-5.9-5.85-11.95-6.8-6.3-13-4.15-.35.1-.5-.55-.15-.65.2-.75m-27 21.7q-1.2-.8-.95-1.2.2-.45 1.45.25 2.4 1.35 6.1 2.55l6.05 1.9q4.85 1.6 6.55 2.45 2.6 1.35 2.85 3.05.35 2.7-3.15 5.45-3.2 2.5-8.5 4.25-12.45 4.05-18.7-.15-1.55-1-1.2-1.45.3-.4 1.8.6 3.55 2.35 11.2 1.1 7.25-1.2 12.55-4.5 4.45-2.75 4.15-5.05-.15-.95-2.65-2.05l-5.45-1.9-5.95-2.1q-3.5-1.45-6.15-3.2m80.65-47.6q9.15-2.35 10.85-1 2.25 1.85-.45 9.55-3.1 8.7-10.55 17.5-.25.25.05-1.85.25-2.1.5-2.45 6.15-7.6 8.45-14.75 1.75-5.3.85-6.5l-3.6.2q-2.8.75-5.75 2.1-.35.15-.55-1.25-.15-1.45.2-1.55"/><path fill="#fff" d="M74.45 87.75q0 3.25-2.3 5.6-2.35 2.3-5.6 2.3-3.25 0-5.55-2.3-2.3-2.35-2.3-5.6 0-3.25 2.3-5.6 2.3-2.3 5.55-2.3t5.6 2.3q2.3 2.35 2.3 5.6M133.9 69.9q1.25 2.25 1 4.45t-1.85 3.1q-1.6.85-3.6-.05-2-.95-3.25-3.2-1.25-2.2-1-4.4t1.85-3.1q1.55-.9 3.6.05 1.95.95 3.25 3.15"/><path fill="#f6c8dd" d="M90.4 83.15q-5.3 0-9.95-4.1-4.9-4.3-4.9-9.9 0-2.1.85-4.8.9-2.85 2-3.95L72.25 59q-4.25-1.1-5.7-2.15l-6.45-5.2q-4.85-4.25-5.35-6.1-1.1-3.6-1.1-8.5 0-7.5 8-14.7 8.6-7.7 19.2-7.7 14.95 0 25.95 11.8 10.4 11.15 10.4 24.6 0 15.2-6.95 23.6-7.05 8.5-19.85 8.5"/><path fill="#f6c8dd" d="M4 35.35q3.05-3.05 22.3-.1 18.25 2.75 25.75 6.4 2.6 1.3-10.1 23.85Q30.4 86 26.15 91.2q-2.65 3.3-8.3 1.15-5.7-2.2-8.45-7.65-4.25-8.3-6.5-26.85Q.55 38.8 4 35.35"/><path fill="#0d131a" d="M12.75 43.35q6.3-.65 13.45-.25 7.15.35 16.45 2.85-3.3 6.2-8.2 13.75-3.05 4.7-6.4 13.95-1.65 4.6-2.75 8.3-1.65-2.45-3.75-6.15-4.2-7.3-6.25-13.25t-2.5-13.2l-.05-6"/><path fill="#d5adbf" d="M109.55 75.3q-6.5 7.9-18.3 7.9-9.45 0-13.75-7.85-.95-1.7-1.35-5.15L76 67.55q.3 2.7 4.95 6.35 5.45 4.35 10.95 4.35 10.3 0 17.75-9.35Q116 61 116.4 52.2q-.25 15.1-6.85 23.1M2.9 36.95q-.25 12.1 3.35 26.3 3.9 15.15 9.85 22.65 4.35 5.45.75 4.85-3.6-.6-5.85-3.55-2.5-3.2-4.6-8.5-2.9-7.35-3.85-16.25-.9-8.35-.35-17.75l.7-7.75"/><path fill="#0d131a" d="M50 39.85q2.25 1.35 1.8 1.95-.45.65-3.15-.6-5.15-2.45-23.05-4.6-18.5-2.3-20.55-.1-3.75 4-1.5 22.95 2.25 18.8 7 25.5 2.55 3.65 2.2 4.05-.3.4-3.5-2.7Q3.65 80.9.9 60.5q-2.8-20.7 2-25.85 3-3.15 21.55-1.05Q42.9 35.65 50 39.85"/><path fill="#0d131a" d="M28 44.45q-9.45-.95-14.85-.4-.25 3.1.75 8.75 1.1 6.5 3.25 12.05 2.1 5.45 7.7 15.15 2.4-8.35 8.6-20 3.8-7.25 7.8-13.5Q36.4 45.25 28 44.45m15.95.15q.75.25.85.5.1.25-.35.9-3.5 5.25-7.5 12.15Q29.05 72 26.5 81.1q-.65 2.25-1.25 2.3-.55 0-1.7-1.9-5.9-10.05-8.15-16-2.45-6.35-3.4-14.05-.9-7.75.65-9.65 1.05-1.3 1.6-1.1.5.15-.35 1.4 6.35-.5 16.65.45 9.65.9 13.4 2.05m73.8 7.95q0 15.25-7.25 23.4-7.05 7.95-19.9 7.95-10.4 0-14.55-9-1.75-3.8-1.4-7.8.35-4.1 2.8-6.9 2.05.5 1.7.9-2.1 2.1-2.35 5.65-.3 3.5 1.25 6.95 3.75 8.35 12.55 8.35 12.8 0 19.4-9.4 5.6-7.9 5.6-20.1 0-15.2-10.35-26t-25-10.8q-10.25 0-18.5 7.85-8.9 8.4-7 18.85.45 2.5-.2 2.6-.7.1-1.15-2.4-2.05-11.55 6.25-20.55 8.25-8.9 20.6-8.9 15.35 0 26.45 11.7 11.05 11.65 11.05 27.65"/><path fill="#0d131a" d="M82.35 60.6q4.05 1.7 4.7 4.35.55 2.1-.35 2.35-.9.2-1.45-1.9-.5-1.9-4.25-3.3-2.25-.85-7.25-1.95L69.2 58.9q-2.15-.8-3.2-1.85-.85-.85-.7-1.2.2-.35 1.25.3 1.25.85 3.4 1.3l4.2.85q5.8 1.3 8.2 2.3"/></svg>