<svg xmlns="http://www.w3.org/2000/svg" width="175" height="202" viewBox="-0.4 -0.65 175.1 201.6"><path fill="#ef8200" d="M159.45 131.2q-.9 15.4-10.55 25.85-8.5 9.2-21.95 12.95-12.45 3.5-24.5 1.25-12.15-2.25-18.1-9.3 1.05-2.45 2.25-7.05 1.75-6.7 1.45-10.55 5.85 6.35 14.5 9.75 9.15 3.6 18.45 2.65 22.75-2.3 34.3-28.5l.9 1.5q1.3 1.45 3.25 1.45"/><path fill="#ddd583" d="M84.35 162.1Q97.6 174 116.7 172.15q17.45-1.7 31.95-13.6-14.75 17.15-37.5 17.65-9.05.15-17.05-2.55-7.5-2.6-11.2-6.7l1.45-4.85"/><path fill="#cf7100" d="M85.85 157.2q10.3 10.95 29.2 10.7 17.85-.25 33-9.95-12.5 12.5-31.4 14.1-19.5 1.65-32.3-9.95l1.5-4.9"/><path fill="#ef8200" d="M70.65 43.25q-.6 3.2-3.4 12.1-2.55 8.15-2.65 9.55-.15 1.95 1 9.35.9 6.05 1.75 10.35 4.3 22.55 9.65 31.15 6.35 10.15 8.6 15.75 4.15 10.35 2.1 18.85l-3.85 13.45q-1.5 4.9-1.6 8.1l2.9 6.2q2.6 6.6 1.35 8.75-1.75 2.9-4.25 4.75-3.05 2.25-6.75 2.6-4.35.4-9.2-1.4-5.25-1.9-5.3-4.55l.15-7.9q-.05-5.7-1.2-8.25l-3.15-3.3q-3.3-3.9-4-6.65l-7.55-1.35-2.35 1.75q-2.45 2.05-2.7 3.6l1.65 3.3q1.55 3.6.9 4.8-.9 1.65-8.1 4.25-7.8 2.8-13.3 2.8-6 0-11.2-3.5-5.25-3.5-1.8-5.4l6.25-3.5q-4.05-2.65-5.65-7.55-3.1-9.75 9.35-20.8-2.5-4.1-3.7-13.85-1.45-11.2.45-20.85l-3.1 3.3q-2.35 2.3-3.55 1.95-.85-.25-1.35-2.6l-.3-2.35q-5.25 1.75-5.65.4-.45-1.55-.05-3 .7-2.5 3.85-5.85 1.95-4.4 5.45-9.85 7-10.8 14.85-15.85-3.35-.65-5.35-2.35-3.55-2.95-8.8-10.45-7.3-10.3-7.15-17.05.05-3.4 2.95-7.6 2.6-3.9 4.1-4.1L16.3 16.9q-.35-.65-.45-1.55-.25-1.75.85-2.95 4.6-5 9-7.4Q35.9-.6 49.5 1.4q9.85 1.4 16.75 14.05 7.2 13.25 4.4 27.8"/><path fill="#cf7100" d="M4.05 103.65q3.25-2.4 5.15-2.6 1.5-.15 1.2.9-.35 1-2.25 1.75l-3 .35-1.1-.4m4.2 7.75q3.8-6 7.45-10.1l-.35 4.15q-5.9 6.1-7.1 5.95M32.4 71q7.1-1.25 11.2-3.2l2.85-.05q.25 1.15-1.5 3.45-4.55 6.15-9.8 6.1-4-.05-6.1-1.5-1.75-1.2-2.95-3.95l6.3-.85m21.3 93.45q-5.75-9.6-2.7-18.75-.55 5.65 4.5 9.9 4.65 3.85 11.8 4.9 7.2 1.1 12.7-1.45 5.75-2.65 7.2-8.45l-1.05 4.75-1.9 7.55q-.7 2-1.3 5.15-.65 3.2-.6 4.15.1 1.35 3.45 9.2-3-5.3-13.1-4.85-10.2.45-11.85 6.4 0-9.2-.75-10.75-3.5-2.95-6.4-7.75m-31.95-3.65q3.1-1.95 3.45-5.45.35-3.4-2.1-7.05 4.85 6.15 13.7 9.75 4.9 1.95 8.8 2.5-1.9.75-3.85 3.3l-1.6 2.35q1.2 1.6 1.85 3.9.6 2.15.5 3.85-.1 1.5-3.8 3.05-2.3 1-9.55 3.25l-6.4 1.05-3.85-.15q5.15-1.35 3.7-4.7-1.3-3.1-7.75-7.05-3.35-2.05-5.25-7.1l-1.25-4.65q2.6 3.65 6.65 4.4 3.7.7 6.75-1.25"/><path fill="#fff697" d="M36.9 79.2q4.25 5.55 7.95 13.6Q55 114.6 53.6 137.25l-2.65 8q-2 9.4 1.35 16.25-8-.3-16.7-4.2-17.35-7.85-20.55-25.95-2.55-14.3 1.3-32.3 2.2-10.05 5.8-19.15 1.2-1.45 2.95-2.95 3.5-2.9 6.2-2.8 1.8.05 5.6 5.05"/><path fill="#ddd583" d="M35.85 77.25L31.4 77q-1.8-.5-3.3-2l1.25-.5 2.55.05q1.8.7 3.95 2.7M33.1 143.8q10.65 2.2 18.4-1.4-1.05.75-1.35 7-.35 7.6 2.15 12.2-7.9.5-17.4-4.4-14.8-7.6-19.65-25.1 5.65 9.2 17.85 11.7"/><path fill="#922f00" d="M9.3 46.4l2.35 2.05q2.9 2.25 5.75 3.4l2.45.6q-3.7 1.1-6.35 3.55-2.65-4.4-4.2-9.6"/><path fill="#ed8599" d="M19.85 52.45L35.8 54q10.3.65 12.95.35-1.8 3.75-10.5 7.9-9.6 4.65-16.35 3.25-1.05-.25-3.3-2.65Q15.85 60 13.5 56q2.65-2.45 6.35-3.55"/><path fill="#ce7486" d="M13.8 56.1q-.35-.55 2.85-2.2l3.25-1.5 18.5 1.55 10.35.4q-1.85 2.6-5.65 5.05-1.85 1.25-3.4 1.95Q35.9 58 27.45 56.2q-8.6-1.85-13.65-.1"/><path fill="#fff" d="M50.1 23.9q-2.45 5.25-3.15 10.8-.8 6.05.7 11.2-2.8-.15-3.05-.7-1.3-3.4.3-10.5 1.7-7.6 5.2-10.8"/><path fill="#0d131a" d="M54.35 22.2q4.55.4 4.7 10.5.15 8.3-1.3 11.75-.4.95-3.9 1.35-3 .3-6.2.1-1.5-5.15-.7-11.2.7-5.55 3.15-10.8 2-1.9 4.25-1.7m-43.3 8.15q.95-4.1 2.4-8 2.9-7.85 5.45-6.8 2.35 1-.25 11.4-2.65 10.4-4.7 9.75-1.45-.5-2.3-3.45l-.6-2.9"/><path fill="#fff" d="M7.25 44.7q.55 1.25 4.3 3.45-1.95 1.8-2.75 1.55-.75-.25-1.55-5m6.45 11.6l1.2-.3 1.4.15q.3.5-.55 3L13.7 56.3m17.4 8.65l.35-1.6q.45-1.6 1-1.7.9-.1 2.05 1.9l-3.4 1.4m1.15-11.35l6.1.45q-2.7 3.25-3.75 3.25-1.1 0-2.35-3.7m-14.55 125q.6-.85 2.15-1.75l1.4-.75q1.65.3 2.65 2.5l.65 2.2q-1.6 1.5-5.95 2.2l-4.5.15q-.3-.3.55-1.25l.85-.95-5.3.75-2.95-.3q-.3-.3.75-1.45l1.1-1.05-3.95.35q-4.05.15-4.25-.75-.25-.85 3.35-3.55 3.7-2.75 4.85-1.95 1.25.8 1.95 3.65l1.1-1.1q1.3-1.1 2.55-1 1.25.1 2.25 2.1l.75 1.95"/><path fill="#efe908" d="M147.85 85.45l.55 2.1q.15 1.5-.35 2.65-.35.9-.1 2 .25 1.2 1.1 2.2l.4-1.65L152.7 96l-.05 2.75.95 1.7q.55.95.65 3.25l2.75 1.7-1.9 3.2q-.55.9-.6 2.9-.05 1 .05 1.8l4.45-2.7.1 1v1.55q-.55 3 .2 3.85 1.7 2 2.05 3.2.45 1.55-.55 3.6-1.05 2.15-1.1 4.5 0 2.05.65 2.7l-2.25-.15q-1.3-.6-2.65-2.45-1.2-1.75-4.3-2.55l-3.9-.7q-1.25-.25-2.75-2.4-1.65-2.35-1.3-4.35.25-1.55 1.55-4.15 1.1-2.35 1.1-3-.05-.65-1.1-2.6-1.05-1.85-1.05-2.6 0-.7 1.05-3.25 1.05-2.45.95-3l-.65-1.9q-.55-1.4-.55-2.2 0-.8.8-2.2l.85-1.75q.1-1.35-.45-3.55-.8-3.4 1.75-5.85l.05 1.2q.05 1.35.35 1.9"/><path fill="#e50020" d="M163.4 87.3q1.5 1.15 1.6 2.95.15 3.05-.55 6.75l1.7-1.45q1.85-1.4 2.3-1.1.75.55-.65 9.05l.9-.7q.95-.65 1.15-.35.3.45-.35 7.75l4.05-6.65-.05 2q-.05 2.15.05 2.6l.1 2.15-.45 2.65q-1.15 3.2-.8 4.05.2.55-.1 1.5-.35 1.1-1.1 1.75l-2.25 1.9q-1.45 1.35-1.65 2.2l-.8 1.65-2 1.6-4.2 3.35q-.6-.7-.6-2.7.05-2.35 1.1-4.45 1-2.05.55-3.6-.35-1.2-2.05-3.2-.75-.85-.2-3.85v-1.55l-.1-1-4.45 2.7q-.1-.8-.05-1.8.05-2 .6-2.9l1.9-3.2-2.75-1.7q-.1-2.3-.65-3.25l-.95-1.7.05-2.75-3.2-3.2q2-3.15 2.1-4.15l-.15-2.95q-.1-2.4.9-3.85.95-1.4 3.6-4.1l2.75-2.85q.5-.75 1.05-3.1.6-2.65.45-4.15l1.25 2.75q1.25 3.2.95 5.5l-1.25 5.55q-.75 3.05-.1 3.95l2.35 1.9"/><path fill="#dbdcdc" d="M10.5 175.2l.45 1.6-2.1 2.1-4.4.25-3.2-.25q.65-.8 5-2.35 2.2-.75 4.25-1.35m-2.8 6.7q5.55-4 9.2-4.95l.45 1.65-1.8 2.4-7.85.9m6.75 1.65q1.6-1.1 3.55-2.3 3.85-2.4 5.45-2.85l.6 1.1q.5 1.25 0 1.85-.8 1.05-4.85 1.65l-4.75.55"/><path fill="#efe908" d="M149.25 92.85l.55-.85q.6 1.3 3 3.35.6.5.45 2.05-.15 1.55.2 1.85.8.7 1 1.55l.1 1.8q0 1.2 1.9 1.8 2.45.75.2 3.35-.9.95-1.3 2.4-.3 1.2-.15 2.1l2.85-1.7q1.25-1 1.4-.95.25.05.35 1.65l-.3 3.1q-.2 1.75.65 2.6 1.65 1.65 1.95 3.2.45 1.95-1.05 4.55-.45.85-.6 2.2-.2 1.7.15 3.45.1.65-.5.95-.65.3-.65-.1l-.5-2.95q-.2-1.7.85-4 .9-2 .8-3.3-.15-1.55-1.5-2.9-1.25-1.25-.95-2.8.45-2.3.15-3.4l-2.15 1.4q-1.5.9-1.9.65-.3-.25-.3-2.1-.1-3.15 1.55-5.05.55-.6.35-1-.2-.4-1.5-1.15-.6-.35-.75-.8l-.1-1.15q0-1.45-1.2-2.75-.55-.55-.4-1.9l-.1-1.95-1.25-1.5-1.3-1.7"/><path fill="#fff" d="M54.95 23.55q1.15.2 1.75 2.15.55 2 .2 4.8-.45 3.35-1.85 5.1-1.15 1.4-2.2 1.2-1.2-.3-1.8-2.65-.5-2.2-.15-4.65.5-3 1.75-4.65 1.1-1.5 2.3-1.3M18.7 16.5q.4.05.5 2.05.05 1.95-.3 3.7-.65 3-1.55 4.55-.8 1.35-1.5 1.2-.6-.15-.75-1.55-.2-1.75.6-4.7.7-2.55 1.6-4 .8-1.3 1.4-1.25"/><path fill="#007f78" d="M46.65 35.9q1.1-1.9 2.4-2.05-.45 3.6.2 5.85.7 2.25 2.45 2.5 1.35.2 2.75-1.2 1.65-1.6 2.35-4.7 1.45 1.85 1.55 4.85l-1.1 3.55q-2.15 1.2-5.95 1.35l-3.4-.15q-1.2-2.5-1.35-6.5l.1-3.5m-29.3-8.05q.55 1 .55 2l-1.1 3.35q-1.35 3.3-2.65 3.35-1.35.05-2.25-2.4l-.85-3.3q-.15-.7.35-2.85l.5-2 .6-.6 1.3-.75q-.9 2.8-.7 4.95.2 1.9 1.15 2.2.8.3 1.7-.75 1-1.15 1.4-3.2"/><path fill="#0d131a" d="M45.4.1q17.65 1.75 24.05 20.55Q72.1 28.5 71.9 37.5q-.15 8.75-2.9 15.95-2.25 5.9-2.75 7.5-1.45 4.35-1.65 7.15-.35 5.4-1.2 5.3-.8-.1-.35-5.45.45-6.3 4.05-14.95 2.65-6.4 2.85-14.75.2-8.55-2.3-16.2-6-18.55-22.4-20.2-7.3-.7-14.9 2.1-7.65 2.85-12.1 7.9-1.15 1.3-1.5 2.4-.4 1.25.15 2.7.1.3-.5.55l-.7-.05q-1.3-3.7 1.45-6.75 4.8-5.4 12.65-8.35 7.9-3 15.6-2.25"/><path fill="#0d131a" d="M56.75 44q2.15-5.5 1.4-12.9-.75-7.65-3.85-8-3.4-.4-6.6 6-3.45 6.95-2.5 15.5.55.9 5.7.65Q56.1 45 56.75 44m-12.9 1q-1.35-7.95 2.1-15.85 3.55-8.05 8.5-7.55 5.25.5 5.25 10.85 0 8.8-2 12.35-.85 1.55-7.2 1.75-6.35.2-6.65-1.55M18.4 16.2q-1.5 0-4.1 5.65-2.6 5.7-2.6 9v.05q0 1.8.95 3.5.85 1.6 1.4 1.45 2.05-.55 4.15-10.1 2.1-9.55.2-9.55m-5 4.7q3-6.5 5.2-6.2 3.3.4.95 11.25-2.3 10.8-5.4 11.35-1.1.2-2.35-2.2-1.2-2.3-1.25-4.3-.05-3.7 2.85-9.9m.45 22.95q-.45-1.15.1-1.55.55-.35 1.05.85l.25 1.5q.05.9-.2 1.05-.4.25-1.2-1.85M26.9 46.5q1.25-.55 1.4.2.15.7-1.1 1.35-1.75.85-2 .6-.15-.2.4-1 .6-.8 1.3-1.15"/><path fill="#0d131a" d="M10.95 29.35q.25-.2.4.55.15.75-.1.95Q5.4 36.2 4.8 40.95q-.8 5.95 6.2 17 6.95 11 12.35 12.55 2.4.65 7.25 0 4.8-.7 9.9-2.4 3.45-1.15 3.6-.5.2.6-3.3 1.9-5.2 1.95-10.65 2.65-4.85.55-7.2-.1-5.7-1.6-13.1-12.95-7.65-11.65-6.8-18.6.4-2.75 2.55-5.75 2.1-3.05 5.35-5.4M50.7 20q-1.65 1.25-2.35 2-.85.95-1.5 2.35-.7 1.65-1.4 1.5-.7-.2-.05-1.95 1.15-2.95 4.2-4.6 1.5-.75 1.85-.45.3.35-.75 1.15m-30.35-6.35q-.45-1.05-.1-1.25.35-.2 1 .7 1.7 2.15 1.4 5.75-.15 1.7-.9 1.6-.75-.05-.6-1.7.2-2.85-.8-5.1"/><path fill="#0d131a" d="M5.15 40.7q.35-1.9.7-1.9.4.05.35 2 0 1.6.9 2.65 1.6 1.8 5.25 4.55 3.6 2.7 5.1 3.25 2.4.85 14.6 1.8l15.15.7q1.3-.05 2.05-.45l1.6-1.4q1.15-1.2 1.4-.85.3.3-.55 1.7-.7 1.15-1.65 1.7-1 .55-2.55.6l-14.85-.7q-12.8-.9-15.7-1.95-1.65-.55-5.7-3.6-4.05-3.05-5.3-4.65-.45-.6-.7-1.6-.25-1.05-.1-1.85"/><path fill="#0d131a" d="M10.15 49l.8.05q1.95 5.4 5.9 10.5 3.65 4.7 5.85 5.3 4.5 1.2 12.6-2.05 8.4-3.4 13-8.75l.95-.05q.7.15.5.35-4.6 5.85-13.7 9.7-8.8 3.7-13.75 2.35-2.6-.7-6.55-5.8-4.15-5.3-6.25-11.05-.05-.3.65-.55"/><path fill="#0d131a" d="M6.8 44.95q0-.3.7-.3.65 0 .65.3 0 .6.35 2.3.35 1.85.6 1.9.3.05.95-.45l.85-.9.95.95-1.65 1.15-1.4.45q-.55-.2-1.3-2.3-.7-2-.7-3.1m31.5 8.95q.55.35.4.6l-2.05 2.15q-1.5 1.15-2.2 1.15-.6 0-1.6-1.4-1.05-1.4-1.35-2.5-.05-.3.6-.45.7-.15.75.15l.8 1.95q.6 1.1.85 1.1.4.05 1.55-1l1.55-1.85.7.1m-24.7 2.5q-.25-.45.05-.55l1.55-.3q1.15-.05 1.45.25.3.3.05 1.7-.2 1.35-.55 1.9-.25.35-.95-.55l.65-1.6.1-.85q-.25-.25-1.8.35-.3.1-.55-.35m18.65 4.75q.4-.1 1.2.65l1.5 1.65q.2.25-.25.55-.4.25-.6 0-1.2-1.9-1.65-1.8-.25.05-.5 1.05l-.2 1.6q0 .3-.55.3t-.55-.35q0-.8.5-2.1.6-1.45 1.1-1.55m-7.75 10.3q.25-.15.6.65l.15.9q-6.05 4.35-10 9.4-3.8 4.85-9.65 15.45-2.7 3-3.6 5.6-.75 2.05-.05 2.55.95.75 4.95-.55l.7-.05.1.95q0 3.55 1.05 3.85.75.2 2.65-1.65 1.95-1.8 3.4-4.05.3.2.4.7l-.1.9q-.85 1.7-3.05 3.75-2.5 2.3-3.65 1.9-2-.55-1.95-4.9-2 .8-3.8.85-1.7.05-2.25-.55-.8-.85-.1-3.25.9-3.1 4.15-6.85Q10 86.4 14.8 80.55q4-4.95 9.7-9.1"/><path fill="#0d131a" d="M6 100.25q-1.6 2.35-1.1 2.9.5.45 3.15-.45 1.5-.65 1.7-.2.15.5-1.3 1.15-3.6 1.65-4.95.9-1.55-.9 1.6-5 1.05-1.35 1.45-1.05.45.25-.55 1.75m18.7-28.7l.8.1q.65.4.5.65-13.45 30.6-10.65 53.9 3.65 30.85 36.95 35 .3.05.5.8.25.8-.1.75-35.5-4-39.3-35.9-2.8-23.8 11.3-55.3"/><path fill="#0d131a" d="M20.45 82.25q1.9-4.1 4.65-6.45 2.7-2.3 5.5-2.3 3.75 0 8.45 6.75Q43.5 86.6 47.4 96.8q9.05 23.75 6.6 40.5l-.85 1.4-.75.75q2.55-18.25-6.8-42.05-3.75-9.6-8-15.9-4.3-6.35-7-6.35-1.95 0-4.55 2.1-3.15 2.55-5.15 6.9-.15.3-.35-.65-.25-1-.1-1.25m43-14.7q-.05-.35.65-2.45.75-2.05.8-1.75 3.05 21.8 5.8 32.45 3.65 14.45 9.95 24.6 10.25 16.5 7.65 30.7-.55 2.9-3.1 11-2.1 6.55-2.25 10.8-.15 4-.95 3.8-.75-.2-.55-4.3.3-4.7 2.25-11.35 2.3-7.7 2.75-10.6 2-13.05-8.05-29.95Q72.15 110 69 97q-.75-3-5.55-29.45"/><path fill="#0d131a" d="M59.55 171.55q.9.45 1 .75 1.35 3.45 1.25 10.1-.05 6.2.65 7.25 1.2 1.8 4.7 2.85t7.35.8q9.85-.6 11.5-8.05.4-1.85-1.85-7.15-2.4-5.7-2.45-6.25-.05-.3.45-1.2.45-.9.5-.55.15 1.75 2.85 7.55 2.4 5.25 2.05 7.8-1.15 8.2-12.45 9.1-4.5.35-8.6-.8t-5.55-3.2q-1.15-1.7-.75-8.6.4-7.15-1.4-10.55l.75.15"/><path fill="#0d131a" d="M53.6 135.65q1.85-3.35 2.4-3 .5.4-1.2 3.9-4.7 9.75-3.2 18.9 1.5 9.2 9.2 16.45 2.75 2.6 2.3 3.15-.4.55-3.2-1.95-8.5-7.5-10.3-16.8-1.9-9.9 4-20.65m-35.75 4.2q.25-.15.75.65.45.75.2.95-3.65 2.6-6.65 7.85-3.2 5.5-2.9 9.55.25 3.15 2.8 6.3 2.45 3.1 6.05 4.8 3.1 1.5 2.8 2-.25.55-3.65-.85-4.05-1.7-6.8-5.1-2.8-3.4-3.05-7.05-.4-5.15 3.35-11.2 3.15-5.1 7.1-7.9M39.5 166.8q-.2-.25.45-.7.6-.45.8-.2 1.7 2.4 2.4 4.75.7 2.45.1 4-.6 1.7-6.45 4-6.25 2.5-12.45 3.1-.35.05-.4-.7-.1-.75.25-.8 6.05-.6 11.55-2.85 4.95-2.05 5.85-3.75.45-.9-.1-2.8-.6-2.05-2-4.05"/><path fill="#0d131a" d="M14.2 168.35q.3-.1.8.6t.2.75q-1.35.5-3.4 1.6-2.05 1.15-3.15 2l-.95-.15q-.7-.35-.45-.55 1.3-1.05 3.3-2.35 2.25-1.4 3.65-1.9m25.45.45q-1.05 2.4-1.55 2.2-.5-.2.2-2.7.8-2.7 2.9-5.1 2-2.45 3.75-2.85.3-.05 1.1.5t.5.6q-1.3.3-3.45 2.45-2.35 2.4-3.45 4.9"/><path fill="#0d131a" d="M10.7 173.7q.75 1.25 1 2.85.05.3-.6.4-.65.05-.75-.25l-.75-2q-.65-1-1.05-1-1.5-.05-4.05 1.9-2.5 1.85-2.3 2.5.2.5 2.55.45l4.2-.45q.3-.05.45.6.15.65-.15.7l-6.7.35Q.3 179.5.2 178.9q-.2-1.3 3.3-4.05 3.45-2.75 5.2-2.7 1.1.05 2 1.55"/><path fill="#0d131a" d="M16.75 178.8q-.05-1.3-.65-2.4-.7-1.15-1.45-1.05-1.35.2-4 2.7-2.6 2.4-2.4 2.95.15.45 3 0l4.45-.95q.3-.1.3.55 0 .7-.3.75-2.45.8-5.6 1.05-3.25.25-3.6-.45-.5-1.05 2.65-4.35 3.15-3.4 5.3-3.7 1.35-.2 2.4 1.3 1.1 1.5 1.15 3.6 0 .3-.6.3-.65 0-.65-.3"/><path fill="#0d131a" d="M13.3 183.85q-.55-.9 2.6-4.5 3.2-3.65 5.1-3.8 1.4-.15 2.9 2.1 1.5 2.15 1.1 3.6-.35 1.35-5.9 2.3l-5.8.3m1.7-1.05l4.1-.45q4-.85 4.25-1.6.3-.85-.5-2.3-.8-1.45-1.7-1.4-1.25.1-3.85 2.75-2.5 2.5-2.3 3m139.45-54.7q.1-.3.8 0 .7.3.6.6-5.5 13.05-15 20.6-8.55 6.75-19.2 8.2-9.85 1.35-19.2-2.1Q93.2 152 87.3 145q-.2-.25.15-1.4.4-1.15.6-.9 6.4 7.6 15.7 11 9.15 3.4 18.75 1.85 10-1.65 18.1-8.25 8.85-7.2 13.85-19.2"/><path fill="#0d131a" d="M158.85 131.25q.05-.3.8-.2.75.1.7.4-2.1 17.35-12.3 28.85-8.9 10-22.55 14.2-12.25 3.7-24.55 1.8-11.95-1.85-18.3-8.15-.2-.2.2-1.2t.6-.8q5.95 5.95 17.5 7.95 11.95 2.1 23.8-1.2 13.3-3.7 22-13.3 10-11.05 12.1-28.35"/><path fill="#0d131a" d="M157.75 140.25l-.15 2.5q-4.8 13.05-15.35 20.85-9.25 6.9-21.5 8.8-11.15 1.75-21.45-1.05-10.15-2.7-15.2-8.65-.2-.25.2-1.05.4-.75.6-.5 5 5.85 15.1 8.6 10.3 2.75 21.4.95 12.2-1.95 21.35-9 10.4-8.05 15-21.45M168 97v-1.55q-.15-.3-1.05.4-2.45 2.05-2.8 1.75-.3-.25 0-3.15.6-6.2-2.6-7.7-1.35-.6-1.45-1.85-.1-.95.6-4.2.8-3.85.8-5.8 0-2.05-.8-5.2-.4 2.75-.95 4.2-.55 1.45-1.5 2.25-3.7 3.2-5.1 5.45-1.2 1.95-1.05 4.05.2 2-.05 3.05l-.9 1.95-.85 1.35q-.4.75-.55 1.9-.25 1.7-.55 1.75-.25.05-1.2-1.4-1-1.45-.25-4.55.4-1.5-.25-3.25-.65-1.7-.3-2.75-.7.65-1.05 2.35-.35 1.85.25 3.2.55 1.2.2 3l-.6 1.8q-.65 1.25-.65 2.25l.4 1.8q.6 1.9.25 2.9-1.45 3.45-1.45 4.8 0 1.1 1.05 2.7 1.05 1.55.95 2.85l-.85 2.65-1 1.95q-.45 1.1-.5 2.35-.1 2.05 1.15 4 1.25 2.1 3.05 2.5l4.7 1.35q1.95.8 3.35 2.4 1.5 1.6 2.6 1.75 1.2.2 2.6-1.25 1.35-1.45 2.95-2.25 1.2-.55 1.95-2.5.75-2 1.5-2.4 1.95-1.1 2.8-2.05 1.2-1.35 1-3.15-.15-1.1.5-3.4t.55-3.4v-2.8q.15-1.6.45-2.55l-1.2 2.35-1.55 2.8q-1.15 2.25-1.6 2.2-.45 0-.25-2.3l.4-3.1.25-3q-1.5 1.2-1.95 1-.4-.2-.25-1.75L168 97m-5.35-24.15l.25 3.25q-.05 1.35-1.25 5.85-.8 2.85.5 3.45 2.7 1.2 3.3 3.85.6 2.3-.3 6.55 3.2-3.2 3.85-1.9.75 1.35-.65 8.75 1.55-1.3 1.95-.55.55.95-.2 5.5l1.55-2.2 1-1.95q.8-2.05 1.1-2.1.4 0 .45 2.35l-.2 2.8q-.1 1.9.25 3.1.45 1.4-.5 3.85-1 2.5-.65 3.6.65 2.25-1.55 3.95-3.05 2.3-3.55 3.4l-.9 2q-.75 1.25-1.7 1.65-1.9.8-2.9 1.9-2.4 2.45-3.7 2.3-1.1-.1-3.45-2.7-2.85-3.2-7.75-3.8-2-.25-3.55-2.5-1.45-2.1-1.6-4.35-.15-1.55 1.3-4.3 1.45-2.7 1.4-3.4-.05-.9-.7-1.65l-1-1.25q-1-1.9 1.15-7.35.6-1.4-.05-2.7-.75-1.55-.75-2.5.05-.85.85-2.4l.7-1.7q.2-1.05-.1-2.45-.55-2.45.05-4.25.35-.95 1.6-2.85.75-1.15.95-1.1.25.05.3 1.45l-.05 1.4q.05 1.25.6 2.65.6 1.6-.1 3.8-.45 1.3.15 2.8l1.6-3.1q.65-1.15.6-2.35l-.2-2.15q0-3.8 2.1-6.05 1.25-1.4 4.8-4.3 1.4-1.7 1.75-5.65.4-3.55.7-3.6.4-.1 1.75 3.6.5 1.35.8 3.35M50.1 23.8l.95-.15q.65.05.45.3-3.25 3.55-4 11.3-.7 7.15 1.1 10.5.15.3-.45.5l-.75-.1q-2.1-4.05-1.25-11.45.85-7.5 3.95-10.9M20.5 52.1q.35 0 1.05.5.7.5.4.5-2.05.15-4.4 1.15-2.1.95-3.65 2.2-.2.2-.55-.3-.35-.5-.15-.7 3.7-3.05 7.3-3.35"/><path fill="#fff" d="M62.2 190.7q.3-1.05 1.3-1.9 1.2-.95 2.35-.6 1.55.5 2.35 2.15.7 1.45.4 2.5-.5 1.7-2.55 4.3-2 2.45-2.65 2.5-.8.05-1.25-3.65-.45-3.65.05-5.3m10.15 1.8q-.2-1.45.25-2.55.55-1.35 1.95-1.65 2.7-.5 3.8 2.05.65 1.55.3 5.4-.35 3.8-1.05 4.1-.7.3-2.65-1.95-2.15-2.5-2.6-5.4m9.6-1.05q.35-3.25 2-4.8 1.55-1.45 2.65-.2 1 1.15 1.85 5.8.9 4.55.35 4.8-.65.3-3.8-2.3-3.15-2.6-3.05-3.3"/><path fill="#ef8200" d="M54.75 72.1L66.1 89.75q-2.2 7.85-9.7 15.7-2.65 2.75-8.05 7.05l-4.1 3.6q-2.55 2.1-3.4 1.8-.75-.2-1.3-3.05l-.4-2.8-2.55 1.6q-2.7 1.45-3.4.75-.65-.65-.25-3.1l.5-2.3q-3.7 0-3.65-1.15.05-.8 1.9-2.35 2.3-1.95 3.15-3.2 2.05-9.95 11.2-21.05 4.55-5.55 8.7-9.15"/><path fill="#cf7100" d="M41.1 117.8q2.85-5.3 4.3-7.05l9.5-8.65q7.65-6.85 10.65-12-.6 5.15-6.55 12.7-5.5 7-9.85 9.2-6.4 5.15-8.05 5.8"/><path fill="#dbdcdc" d="M67.45 189.25q1.9 2.85-.1 6.55-1.7 3.15-3.5 3.7l2.55-5.55q1.15-3.15 1.05-4.7m5.8-.05l1.25 4.85q.8 2.9 1.85 5.25-.9.2-2.35-2.2-1.5-2.45-1.7-4.6-.15-1.85.4-2.75l.55-.55m9.5-.3l2.6 3.45q2.65 3.65 2.8 4.85l-2.95-2.15q-2.95-2.45-2.95-3.7t.25-1.95l.25-.5"/><path fill="#0d131a" d="M65.55 189q-1.9-.15-2.5 1.45-.6 1.5-.25 4.9.25 3.2.75 3.4.5.2 2.2-2.15 1.7-2.4 2-3.9.2-1.2-.45-2.35-.65-1.2-1.75-1.35m.3-1.25q1.65.4 2.6 2.05.85 1.45.7 3.05-.2 1.5-2.6 4.6-2.4 3.1-3.3 3-1.1-.05-1.65-4.45-.5-4.35.15-6.1.4-1.05 1.65-1.75 1.3-.7 2.45-.4m11.7 2.7q-.35-.8-1.15-1.2-.75-.4-1.55-.25-.7.15-1.25.85-.65.8-.6 1.8.05 2.4 1.95 5.15 1.7 2.45 2.25 2.25.5-.15.8-3.4.4-3.5-.45-5.2m-.6-2.5q1.15.6 1.75 1.85.85 1.85.4 6.25-.45 4.3-1.4 4.55-1.3.35-3.75-3.2-2.5-3.6-2.4-5.85.1-1.35.85-2.45.85-1.25 2.2-1.5 1.25-.25 2.35.35m5.95 3.25q.05 1.15 2.55 3.15 2.35 1.95 2.65 1.75.4-.35-.4-4.35-.85-4.25-2.05-5-1.15-.1-2 1.5-.85 1.45-.75 2.95m-1.4.1q-.15-1.95 1.3-4.05 1.5-2.25 3.15-1.95 1.8.4 2.95 6.35 1.15 5.85.15 6.35-.65.35-4-2.4-3.45-2.85-3.55-4.3M51.55 73.95q2.6-2 3-1.7.45.35-1.9 2.6-5.8 5.6-10.2 12.4-4.95 7.6-6.8 14.65-.35 1.2-1.55 2.55l-2.2 2q-1.2 1-.8 1.4.4.4 2.55.4.3 0 .25.7-.05.7-.35.7-2.8 0-4.05-.8-1.7-1.15 1.15-3.5l2.45-2.1q.85-.85 1.05-1.75 2.1-7.8 6.7-15.2 4.8-7.75 10.7-12.35"/><path fill="#0d131a" d="M63.75 92.85q1.4-3.5 1.85-3.25.5.25-.7 3.95-1.8 5.7-6.05 10.85-3.95 4.85-8.8 7.8-.95.6-4.6 3.9-3.55 2.9-5 2.45-.8-.25-1.4-1.9-.6-1.65-.55-3.45-1.95 1.4-3.8 1.8l-2.15-.1q-.65-.55-.4-2.5.25-1.9 1.2-3.75 1.35-2.6 1.9-2.4.55.15-.65 2.95-1.45 3.4-.75 4.1l1.85-.3q1.5-.55 2.9-1.45.7-.45.9-.35.25.05.3.85.3 4.4 1.3 4.7.85.25 3.65-2.15l4.7-3.85q3.95-2.45 8-7.4 4.2-5.15 6.3-10.5"/></svg>