<svg xmlns="http://www.w3.org/2000/svg" width="243" height="270" viewBox="-0.7 -0.95 242.55 269.8"><path fill="#f6c8dd" d="M31.2 165.6q-4.3-5.25-1.55-8.1 1.9-1.95 6.1-2.25 2.85-.25 11.3 1.4 8.6 1.65 13.7 3.5 2.45.9 3.8 4.8 1.25 3.55 1.1 8.05-.15 4.5-1.65 7.5-1.65 3.3-4.35 3.25-5.1-.15-15.9-7.7-9.35-6.55-12.55-10.45m63.05 70.3q1.3-.3 6.25.1 5.6.4 10.45 1.4 13.8 2.7 9.9 7.45-3.2 3.95-15.95 10.8-16 8.65-28.85 9.8-6.1.55-10.75-2.45-5-3.25-1.7-7.4 6.2-7.75 15.3-13.2 7.8-4.75 15.35-6.5m109.05-23.55q15.05 6.1 24.35 13.45 8.4 6.6 9.85 12.3 2.35 9-1.7 13.35-3.95 4.25-12.2 2.35-8-1.85-19.3-14.95-9.2-10.7-11.15-15.75-1.85-4.7 2.25-8.55 3.9-3.8 7.9-2.2M20.2 85.3Q13.95 73.6 9.05 60.6q12.5-4.7 22.7-13.45 7.05 7.35 13.45 15.5 5.9 7.55 8.95 12.8 2.3 3.95 5.05 12.8 2.35 7.6 2.75 10.6l.6 5.25q.2 2.4-.3 4.3-.65 2.7-2.05 3.65-1.1.75-3.9 1-2.45.2-13-5.15-10.05-5.15-13.15-7.8-3.7-3.15-9.95-14.8"/><path fill="#fff" d="M2.75 26.5Q5.4 24.45 14.1 31q7.5 5.6 17.65 16.15-10.2 8.75-22.7 13.45-4.9-13.15-6.75-22.05-2.1-10.1.45-12.05"/><path fill="#f6c8dd" d="M208.5 163.6q4.5 9.8 4.5 21.05.05 11.25-4.5 21.05l.8-3.15q.55-1.85.35-3.25-5.45 8.35-14.5 15.35-8 6.2-17.95 10.8 1.8-9.7-3.6-22.75-5-12.1-15-24.7-9.75-12.25-21.65-21.7-12.25-9.75-23.35-13.8-14.95-5.45-25.8-3.1-9.9 2.05-16.85 10.65-6.5 8.1-8.75 18-2.5 11.05 1.1 21.4l-.9-1.45q-7-15.35-9-35.95-2.65-27.7 6.75-49.9 1.8-4.25 9.9-8.9 6.65-3.85 18.7-8.5 13.65-5.3 30.85-3.6 17.7 1.7 27.25 9.8 4.05 3.45 14.8 15.4l18.2 20.4q13.35 14.8 19.55 22.8 6.4 8.2 9.1 14.05"/><path fill="#fff" d="M62.05 189.3q-3.5-10.2-.45-21.35 2.6-9.5 9.35-17.9 6.95-8.6 16.85-10.65 10.85-2.35 25.8 3.1 11.1 4.05 23.35 13.8 11.9 9.45 21.65 21.7 10 12.6 15 24.7 5.4 13.05 3.6 22.75-9.25 4.3-18.55 6.35-20.7 4.45-40.5 2.95-16.1-1.25-25.8-5.65l1.1 2.1q-8.9-7.05-16.4-16.3-8.15-10.8-15-25.6"/><path fill="#d5adbf" d="M209.65 199.3q.15 1.4-.35 3.2l-.85 3.15q-2.2 2.9-5.65 8.05-3.05 4.3-6.2 6.95-15.2 12.65-28.65 17.05l3.25-1.75q1.45-.9 2.2-1.9 2-2.7 2.6-4 .6-1.45 1.2-4.6 9.95-4.6 17.95-10.8 9.05-7 14.5-15.35"/><path fill="#dbdcdc" d="M146.3 242.6q-8.35.9-19.75.1-10-1.15-17.45-4.05l-1.25-.5q-2.65-1.15-5.45-2.7-1.5-.8-2.85-1.8l-3.1-2.05q-2.25-1.6-3.95-3.5 9.6 4.35 26.3 5.55 20.25 1.45 41.05-3.05l8.35-1.9q4.8-1.3 9-3.25-.5 2.65-1 4-.6 1.75-1.95 3.55l-1.75 2.2q-1.2 1.2-2.85 2-13.2 4.25-23.35 5.4"/><path fill="#f6c8dd" d="M143.4 158.75q2.05-1.3 5.85.95 3.45 2 6.95 6 3.4 3.9 4.9 7.35 1.6 3.75-.1 5-10 7.15-19.6 10.85-11.05 4.2-13.8.3-3.85-5.55 2.7-16.3 5.8-9.4 13.1-14.15"/><path fill="#d5adbf" d="M111.65 93.25q1.4.5 2.55 2 2 2.6 2.55 7.4.85 7.1-6.85 14.6-7.8 7.55-17.55 8.75-7.6 1-13-1.45-4.95-2.2-8.75-7.65-1.4-2.05 19.4-13.1 20.5-10.9 21.65-10.55M41.9 175q-11.85-8.65-12.85-13.5 2.35 2.1 13.1 8 7.25 4.05 16.4 6.85L61 185q-7.4-1.55-19.1-10m58.75 60.2l12.65 3.95q10.25 3.2 9.95 3.5-5.8 6.7-19.8 13.5-1.15-11.5-8.8-15.15-6.15-2.95-11.6 0 3.45-2.75 9.55-4.7 5.95-1.9 8.05-1.1m58.05-64.85q1.2-1.25 1.55-.85 1.6 1.85 2.2 4.4.75 3.1-1.1 4.35-4.7 3.2-11.35 6.3-10.2 4.8-17.1 5.1l-2.55-.35q-1.15-.45.1-.85 2.25-.75 7.8-3.4 4-1.6 10-5.8 4.9-3.45 8-6.25l2.45-2.65m44.2 56.1q-1.35 2.8-1.8 8.25-.1 1.25-2.75-2.75l-3.65-5.6q-3.35-4.2-1.35-7.8 2.3-4.05 10.8-5.8 1.5-.3 6.15 2 4.65 2.35 3.5 2.75-8 3.05-10.9 8.95"/><path fill="#0d131a" d="M185 130.85q16.8 16.5 23.85 31.25 8.95 18.75 3.4 36.4-4.85 15.45-20.3 27.4-15 11.65-34.95 16.2-20.85 4.75-40.3 0-21.4-5.25-36.3-21.15-8.45-9-15.15-23.15-6.75-14.3-10.2-30.65-7.85-37.45 4.15-66 .9-2.05 1.4-.35.55 1.7-.3 3.45-3.9 8.1-5.35 21.2-1.55 14 .35 29.3 4.55 37.55 26.3 63.2 13.25 15.65 34.05 21.2 19.05 5.05 39.8.7 20.25-4.25 35.05-15.9 15.55-12.25 19.75-28.65 3.65-14.25-2.45-29.2-6.15-15.1-22.6-31.75-4.1-4.15-16-18-10.35-12.05-17.15-18.25-21.4-19.4-43.8-15.65-1.8.35-2.25-.95-.5-1.25 1.05-1.5 24.55-3.45 46.3 16.2 6.75 6.1 16.75 17.85 10.95 12.95 14.9 16.8"/><path fill="#0d131a" d="M76.85 119.7q3.55 4.55 3.25 10.7-.25 6.2-4.15 10.4-3.85 4.15-9.1 3.95-5.25-.25-8.75-4.8t-3.25-10.7q.25-6.2 4.15-10.35 3.85-4.2 9.1-3.95 5.25.2 8.75 4.75"/><path fill="#fff" d="M75.8 120.65q3.1 4 2.85 9.4-.25 5.45-3.7 9.15t-8.05 3.5q-4.65-.25-7.7-4.2-3.1-4-2.85-9.4.25-5.45 3.7-9.15 3.4-3.7 8.05-3.5 4.6.2 7.7 4.2"/><path fill="#0d131a" d="M76.8 123.35q2.8 3.6 2.55 8.55-.25 4.9-3.4 8.3-3.15 3.4-7.35 3.2-4.2-.15-7-3.75t-2.55-8.55q.25-4.9 3.4-8.3 3.1-3.35 7.35-3.15 4.25.15 7 3.7"/><path fill="#2cb5a9" d="M76.2 124.3q2.5 3.2 2.3 7.55-.25 4.35-3 7.3t-6.45 2.8q-3.65-.15-6.15-3.35-2.5-3.2-2.25-7.55.2-4.35 2.95-7.3t6.45-2.8q3.7.15 6.15 3.35"/><path fill="#0d131a" d="M137.25 114q4.3 5.75 2.95 12.65-1.35 6.95-7.55 11-6.2 4.1-13.65 2.9-7.45-1.15-11.75-6.9T104.3 121q1.35-6.95 7.55-11.05 6.25-4.05 13.65-2.85 7.45 1.15 11.75 6.9"/><path fill="#fff" d="M135.95 114.75q3.95 5.25 2.75 11.55-1.25 6.3-6.9 10t-12.45 2.65q-6.75-1.1-10.7-6.3-3.9-5.2-2.7-11.5 1.25-6.35 6.9-10.05 5.65-3.7 12.45-2.65 6.75 1.1 10.65 6.3"/><path fill="#0d131a" d="M135.3 116.1q3.45 4.6 2.4 10.15-1.1 5.55-6.05 8.8-5 3.25-10.95 2.3-5.95-.9-9.4-5.5t-2.35-10.15q1.05-5.55 6-8.8 5-3.25 10.95-2.3 5.95.9 9.4 5.5"/><path fill="#2cb5a9" d="M134.2 116.85q3.15 4.15 2.2 9.2-1 5.05-5.5 8-4.55 2.95-9.95 2.1-5.4-.85-8.55-5.05-3.15-4.15-2.15-9.2.95-5.05 5.5-8 4.5-2.95 9.9-2.1 5.45.85 8.55 5.05"/><path fill="#fff" d="M73.4 126.05q.1 1.3-.6 2.3-.75 1-1.9 1.1-1.15.1-2.05-.75-.9-.85-1-2.15-.1-1.3.6-2.3.75-1 1.9-1.1 1.15-.05 2.05.8.9.8 1 2.1m54.2-11.15q1.45 1.1 1.75 2.8.35 1.7-.65 3-.95 1.3-2.65 1.5-1.65.15-3.1-.95-1.4-1.1-1.75-2.8-.3-1.7.65-3 1-1.3 2.65-1.45 1.7-.2 3.1.9"/><path fill="#0d131a" d="M2.3 25.55q3.15-1.7 9.2 2.05 5.5 3.35 20.15 18.2 18.5 18.65 24.1 31.05.75 1.6 3.55 10.1 2.85 8.7 3 10.05.15 1.5-.4 1.7-.6.2-.8-1.5-.35-3.3-6.7-19.3-2.5-6.4-17.1-22.75Q21.65 37.65 10 29.6q-4.2-2.95-6.3-1.95-2.15 1.05-1.25 5.8 2.8 15.2 12 36.85 9.7 22.8 16.9 29.2 2.75 2.45 11.05 6.7 7.7 3.95 12.65 5.7 1.45.5 1.65 1.65.25 1.15-1.65.55-1.2-.35-11.05-5.2-10.25-5-12.3-6.4-7.8-5.25-18.85-30.9-10.4-24.05-12.7-39-.85-5.45 2.15-7.05M40.4 175q-14.45-10.45-12.1-16.3 1.9-4.8 10.9-4.35 6.25.35 13.15 2.7 3.3 1.1 3.25 1.95l-3.75-.15q-7.55-1.9-11.75-2.3-8.45-.8-10 2.7-1.8 4.1 11.1 13.5 11.65 8.5 17.05 9.85 2.65.7 3.55 1.9.9 1.2-1.05.95-2.85-.35-8.75-3.35-6-3.1-11.6-7.1m102.9-15.8q.35.55-.25 1.1-4.45 3.95-9 10.55-5.3 7.6-6.2 12.75-.55 3.05 1.85 4.35 2.4 1.35 7.05.3 4.4-1 12.4-4.6 7.4-3.4 10.1-5.35 1.65-1.2 1.95-.4.35.75-1.1 2-3.15 2.75-10.9 6.15-6.75 2.9-11 3.95-14.45 3.35-12.1-8.05.95-4.55 5.95-12.2 5.5-8.3 9.95-10.6l1.3.05M125 243.05q-3.15 3.55-14.9 10.4-10.2 6-16.5 8.65-15.8 6.75-25.4 3.65-3.7-1.2-5.5-3.6-1.6-2.25-1.05-4.5 1.75-7.05 13.9-14.6 10.45-6.55 18.95-8.3l7.45-.35q2.4.7-3.8 1.65Q88 237.6 76.7 245q-10.75 7.05-12.15 12.15-1.25 4.85 4.55 6.5 7.05 1.95 21-3.05 7.9-2.8 18.9-9.15 8.4-4.9 13.6-8.7 1.45-1.05 2.45-.95 1 .05-.05 1.25m80.15-28.75q-2.45-1.15-2.35-2.1.1-.9 2.45 0 12.15 4.6 21.15 11.2 10.85 7.9 12.85 16 2.6 10.55-5.2 14.6-7.75 3.95-17.8-2.05-5.2-3.1-12.05-10.95-6.2-7.1-10.9-14.75-1.65-2.65-.75-3.35.95-.75 2.55 1.85 3 5.05 7.15 10.45 6.95 9 13.1 13.2 9.15 6.25 16.1 4.05 7.1-2.2 5.45-11.7-1.55-8.8-14-17.1-5.8-3.85-17.75-9.35"/><path fill="#0d131a" d="M8.2 38.2l-2.6-2.35q-1.4-1.2-1.1-1.5.35-.3 2.05.9 7.85 5.55 22.8 25.25 16.95 22.5 27 43.4 1.25 2.5.85 3.6t-2.1-2.2l-2.15-4q-6.05-.3-11.85-2.7-4.35-1.85-6.9-4.05-2.85-2.4-13.6-25.75Q9.9 45.6 8.2 38.2"/><path fill="#ed8599" d="M85.75 141.7q3.15-1.25 6.4 1.4 3 2.5 3.55 5.9.65 3.9-3 5.35-3.7 1.45-6.85-1.4-2.6-2.3-2.6-6.3.05-3.95 2.5-4.95"/><path fill="#f6c8dd" d="M170.4 24.4q12 10.55 27.2 15.9-8.8 19.55-19.5 34.15-12.6 17.2-24.55 22.75-7.35 3.45-10.7 3.95-2.05.3-5.05-.65-1.8-.55-3.05-1.45-1.3-1.05-2.6-3-2.25-3.4-2.1-11.45.1-8 2.4-12.75Q138.35 59.6 149 46.6q9.4-11.45 21.4-22.2"/><path fill="#fff" d="M206.1 1.4q2.55 1.3 2.25 4.1-.6 6.05-3.25 14.95-2.95 9.75-7.5 19.85-15.2-5.35-27.2-15.9 16.55-14.9 29-22.2 3.85-2.25 6.7-.8"/><path fill="#0d131a" d="M209.1 8.55q-1.8 10.2-7.6 24.85-6.25 15.65-14.4 29.45-20.7 34.95-39.3 35.85-2.95.15-4-.65-1-.85 2-1.05 20.75-1.6 41.95-39.9 7.9-14.3 13.65-29.9 5.2-14.05 5.85-21.15.2-2.3-1.75-3.25-2.25-1.1-5.8.85-12.05 6.5-30.45 23.8Q145 50.2 133.7 72.35q-3.7 7.15-1.95 20.45.3 2.2-.55 1.35-.85-.85-1.5-3.25-1.65-5.75-.3-11.9.45-2 2.95-8.7 5.35-14.15 29.15-38.25 22.7-23 36.7-30.15 5.65-2.85 8.7-1.45 3.35 1.5 2.2 8.1"/><path fill="#f6c8dd" d="M95 74.85q4.95.15 10.4 5.6 6.65 6.65 6.65 16.15.05 9.1-5.6 15.25-6.95 7.5-20.7 8.05-10.85.4-19.9-8.6-8.15-8.1-9.7-17.65-2.4-15.2 5.15-26.45 6.35-9.5 15.2-11.3 7.05-1.45 12.45.85 5.9 2.45 7.25 8.35 1.1 4.75-1.2 9.75"/><path fill="#d5adbf" d="M111.4 93.25q.4-1.6.6 1.05.15 2.65-.2 6.15-.55 6.05-5.2 11.35-5.8 6.7-15.55 8.35-10.55 1.75-20.3-4.65-6.9-4.5-10.4-10.3-1-1.6-1.5-3.15-.55-1.65 1 .35 6.35 8.25 16 11.5 8.95 2.95 16.2.4 7.8-2.75 12.45-7.75 4.7-5.1 6.9-13.3m-28.35-16q2.2 1.45 5.3 1.1 2.75-.35 5.1-1.85l1.75-1.4 1.55.2q1.6.3 1.75.8.4 1-2.35 3.6-3.15 3-7.05 3.1-4.2.1-7.15-4-2.65-3.65-1.85-4.55 1.45 2.1 2.95 3"/><path fill="#0d131a" d="M199.7 12.5l2.75.1q.45.95-1.7 1.55l-1.9.7q1.9 5.3-11.8 31.05-13.15 24.65-21.8 34.1-3.15 3.45-7.25 6.4-3.55 2.55-4.35 2.5-.4-.05-.15-1.25l.3-3.4V82.3q-.5-.15-5.05 2.95-4.7 3.2-6.5 5.1l-.15 1q-.3 2.3-1.25 1.9-.95-.35-.75-3.55.45-7.1 6.85-19.1Q153 59.3 162.45 47 172 34.55 181.7 25.4q10.4-9.8 18-12.9M97.45 67.4q.2 4.05-1.2 6.8 5.15 1.05 9.6 5.5 6.15 6.1 7.05 15.9 1.2 12.65-10.55 20.5-5.3 3.55-11.6 4.5-6.6 1-12.65-1.15Q65 114.8 59.15 104.5q-5.85-10.3-3.7-25.1 1.5-10.4 9.6-18.05 8.65-8.15 18.9-6.8 5.7.75 9.4 4.2 3.9 3.5 4.1 8.65m-15.1 2.8q-1.2 1.55-.7 3.65.8 3.35 5.35 3.55 4 .2 6.55-2.55v-.05q.15-.6.65-.75 1.8-2.55 1.55-5.95-.4-5-3.65-8.15-3.3-3.25-8.65-3.65-9.05-.75-16.8 6.25-8.15 7.3-9.85 19-1.85 12.8 4.55 22.9 6.1 9.7 17.45 13.6 4.15 1.45 9.65.85 5.75-.55 10.75-3.15 12.25-6.35 12-19.7-.15-7.95-5.7-14.15-4.95-5.55-10.45-6-2.4 2.8-7.05 3.15-3 .25-5.45-1.3-2.5-1.6-2.65-3.95-.2-2.55 1.75-4.1 1.85-1.55 2-.8l-1.3 1.3"/><path fill="#922f00" d="M83.4 144.65q.55-3.2 4-3.35 3-.15 5.95 3.1 2.4 2.7 2.45 4-.5-.7-2.5-.8-2.2-.1-4.5.7-1.85.6-2.75 3.15-.6 1.8-.9 1.2-2.3-4.9-1.75-8"/><path fill="#0d131a" d="M88.65 147.75q3.2-1.5 6.85-.1.65.25.6.9-.05.6-.65.3-2.85-1.45-6-.1-3.15 1.3-3.25 4 0 .7-.6.5-.6-.2-.5-.9.4-3.15 3.55-4.6"/><path fill="#0d131a" d="M92.85 143.05q2.85 2.8 3.7 6.5.8 3.3-3.3 5.15-4.25 1.95-7.85-1.3-2.35-2.15-2.6-6.35-.3-4.55 2.9-5.85 3.7-1.5 7.15 1.85m-6.55-.8q-2.35.95-2.35 4.7-.05 3.65 1.95 5.4 3.2 2.95 6.75 1.5 3.4-1.45 2.65-4.55-.65-2.65-3.05-5.15-2.95-3.1-5.95-1.9"/></svg>