<svg xmlns="http://www.w3.org/2000/svg" width="381" height="266" viewBox="-0.05 -3.1 380.6 265.8"><path fill="#a499c9" d="M63.85 93.25q3.1-1.55 4.7-1.55 1.6-.05 3.05 1.4l3.55 4.25q3 3.8 6.15 6.95 2.55 2.55 9.7 6.75 8.1 4.75 17.1 8.55 24.4 10.3 39.05 7 4.25-.95 7.2 1.2 2.05 1.45 5.8 6.65 3.3 4.55 2.7 11.3-.6 6.75-4.35 5.25-5.5-2.25-16.95-.35-10.7 1.8-22.85 6.5-12.45 4.8-21.25 10.65-9.65 6.45-11.85 12.3l-1.05 3q-.3.15-3.2-1.9-6.05-4.3-16.7-4.7-9.9-.4-21.35 2.65-11.35 2.95-20.75 8.3-9.9 5.6-14.8 12.3L5.4 202.8q-1.15 1-1-1.4.65-11.55 7.6-29.35 6.3-16.1 16.25-33.6 9.6-16.9 19.2-29.2 10-12.85 16.4-16"/><path fill="#8e84ae" d="M66.5 93.7q4-2.2 9.6 4.7l4.05 5.55q2.2 3.15 3.15 3.9 11.05 8.95 29.05 14.2 15.95 4.65 31.9 5 4.9.1 9.1 5.6 1.75 2.3 1.55 3.85-.2 1.75-2.9 1.85l-24.1-1.8q-19.95-1.1-27.4 2.65-6.9 3.5-11.85 14.9-4.7 10.7-4.7 20.7 0 1.8-1.2 1.6-1.15-.2-2.35-2.05-2.3-3.7-4.55-11.1-2.8-9.1-3.5-18.2-.6-7.65-6.25-10.65-5.3-2.75-13.45-.8-8.15 1.95-16.3 7.9-8.75 6.4-14.9 15.6-.95-1.25 3.1-9.7 4.15-8.7 10.75-19 17.35-27.2 31.2-34.7"/><path fill="#a499c9" d="M366.05 34.65q-24.3-2.4-48.45 10.95-10.5 5.8-18.1 13.3-7.6 7.5-10.55 14.9-1.1 2.85-1.4 2.75-2.3-.75-3-.75-17.55.65-37.75 13.1-18.75 11.6-28.1 25.55-2.8 4.15-6.5 3.2-3.3-.85-6-5.1-2.65-4.15-3.05-8.75-.45-5 2.3-7.65 13.85-13.4 18.35-38.9 3.85-22.1-.45-43.5-.45-2.2 1.5-3.6 1.15-.9 4.25-1.95 7.75-2.7 24.4-3.35 17.8-.7 37.5 1.45 50.3 5.45 77.5 24.45 2.65 1.85 1.55 3.05-.95 1.15-4 .85"/><path fill="#8e84ae" d="M324.8 10.65q17.5 4.5 23.25 10.15-30.5-2.9-50.7 4.1-16.05 5.6-18.9 13.8-1.95 5.65 2.65 18.7l3.3 8.95q1.55 4.25 1.35 5.5-12.9-14.6-24.2-13.2-3.8.5-7.85 2.9l-5.4 3.65q-5.35 3.3-16.4 18.55Q221.65 98 216.5 108.3q-2.5.5-6.55-5.4-4.1-5.9-2.4-7.55Q223.3 80.2 224.6 53.3q.4-8.8-.7-22.1l-1.45-19.7q7.8-5.45 26.65-7.15 17.05-1.55 38.4.25 20.85 1.8 37.3 6.05"/><path fill="#00aee5" d="M62.4 89.15q5.8-4.75 7.5-4.1 1.25.5 3.7 4.8 12.05 15.2 30 24.15 19 9.5 39.55 9.3l6.55-.95q2.4-.45 4.5 1.4 2.35 2.05-.4 4.15-2.2 1.65-5.6 2.3-12.15 2.3-33.5-3.95-20.85-6.1-33-15-6.4 9.9-3.65 36 2.2 21.1 6.8 33.05.95 2.45-1.05 2.65-1.95.25-3.2-3.05-8.8-23.75-8.6-45.7.1-12.1 3.85-28.85-.65-2.25-4-5.2-3.3-2.85-4.5-2.35-9.6 4.3-20.95 18.3-10.2 12.55-19.85 30.35-9.1 16.8-14.75 32.85-5.8 16.35-5.85 25.75 0 3.65-2.65 3.25-2.65-.35-2.4-5 1.35-27.8 22.6-64.7 9-15.6 19.6-29 10.3-13.05 19.3-20.45M373.05 37.4Q340.15 14.3 291 9.35q-18.35-1.85-35.5-.7-14.7.95-22.2 3.5-4.25 2-4.65 5.1-.15 1.2.95 11.85 18.95 3.25 34.3 13.85 17.15 11.8 25.9 30.35 1.55 3.3-.2 4.6-1.8 1.25-3.85-2.4-20.8-36.85-49.15-37.35l-5.1.55q-2.7.95-2.8 3.85-.8 16.15-3.45 26.85-4.55 18.2-15.05 27.3-1.4 1.2-3.55 1.5-2.05.25-3.45-.55-3.6-2.05 1.9-7.25 12.5-11.8 15.45-34.9 2.2-17.65-1.25-37.45-1.3-4.9-1.3-6.85 0-3.25 3.85-4.2 42.1-10.1 87.55-2.75 21.75 3.5 38.7 10.65 17.75 7.45 27.7 17.9 2.5 2.55 1.3 4.6-1.15 2-4.05 0"/><path fill="#00aee5" d="M176.3 54.65q10.8 3 19 14.55 2.6 3.7 4.3 10.8 1.55 6.65 3.85 9.3 6.4 7.3 10.5 14.75 6.8 12.4 5.5 22.45-1.45 11.75-11.35 21.8-9.95 10.15-20.75 10.7-21.35 1.05-31.75-13.25-3.5-4.85-5.95-11.75l-2.75-9.15q-.55-1.8-2.85-3.75l-4.9-4.05q-7.3-6.5-10.8-17.4-1.1-3.5-.8-9.25.3-6.4 2.35-12.45 5.3-15.9 18.65-20.7 16.25-5.8 27.75-2.6"/><path fill="#00aee5" d="M81.95 72.5q-.45-2.5.95-4.35 1.8-2.45 6.9-4.05 8.05-2.5 24.4-1.65 19.2 1.05 22.6 7.7 3.45 6.85 3.35 23.7-.1 17.9-5.65 18.4-18.85 1.8-34.85-11.4Q84.9 88.6 81.95 72.5m129.8-26.2q-1.75 20.45-11.8 31.4-4.9 5.35-9.95 1.55-1.8-1.35-4.35-4.4l-4.25-5.15q-1.65-1.85-10.9-7.95-6.35-4.15-5.75-7.95 1.85-11.6 11.45-23.55 10.15-12.7 22.55-17.25 3-1.1 4.95-.75 2.7.5 4.2 3.75 5.4 11.95 3.85 30.3M182.1 160.05q-2.15-1.65 7.9-3.9 9.8-2.2 9.05.75l-1.55 3.55q-1.2 3.4-.15 6.4 3.9 11.05 19.4 50.55 13.9 35.35 14.5 38 1.05 4.65-1.2 5.4t-3.95-3q-3.3-7.05-19.1-44.95-16-38.2-19-44.7-1.25-2.65-3.55-5.5l-2.35-2.6m25.8-13.6l3.3-5.9q1.45-2.7 3.95-3.95 2.9-1.45 3.55 1.75l.85 3.3q1 2.7 3.25 5.1 10.85 11.8 43.4 39.9l30.8 26.6q1.15 1.85.2 3.2-1 1.35-3.15.85-.8-.2-33.7-28.8-35.1-30.5-45.85-37.65-2.65-1.75-5.3-1.25-2.95.55-1.3-3.15"/><path fill="#a499c9" d="M111.05 69.6q15.75 2.1 18.55 7-3 6.25-2.2 15.4.75 8.1 4.15 16.3-20.45-1.95-35.3-17.75-5.4-5.8-8.3-11.6-2.65-5.3-1.6-6.95 8.4-4.6 24.7-2.4m94.6-50q4.25 11.2.6 30.7-3.45 18.3-9.05 23-3.9-6.7-10.15-12.25-6.55-5.85-11.95-7 .1-10.8 8.95-22.05 8.55-10.9 19.85-15.4.85-.35 1.15.65l.6 2.35"/><path fill="#0d131a" d="M173.2 64.7q8.2 2.85 13.65 13.55 5.25 10.3 2.35 15.65-2.4 4.55-18.1 13.1-16.8 9.2-22.75 6.8-4.65-1.9-7.7-5.25-3.8-4.1-5.95-11.05-2.3-7.35-.35-14.1 2.45-8.5 11.45-14 8.15-5 15-6 6.1-.9 12.4 1.3"/><path fill="#796bae" d="M115.8 98.25q-1.65-5.2-1.1-8.75.6-3.95 2.6-7.7 3-5.55 7.7-7.2 1.3-.45 2.8.4 1.55.9 1.2 2.15-1.8 7.75-1.2 16.05.65 9.35 4.3 14.3.75 1.05-4.45-.05-5.1-1.1-7.45-2.3-2.6-1.35-4.4-6.9m60.5-43.45q-1.5-.05-.9-3.4.6-3.25 1.8-3.75 11.35-4.5 19.3 2.75 2.95 2.7 4.8 6.45 1.55 3.25 1.65 5.65.1 1.9-2.4 6.55-2.55 4.65-3.2 3.7-6-8.4-10.2-12.35-5.65-5.25-10.85-5.6"/><path fill="#8e84ae" d="M119.15 79.3q-3 3.5-3.95 7.95-7.2-5.3-14.15-9.25-8.1-4.6-14.45-6.4 3.65-3.1 17.05-2.65 14.3.55 22.7 5.4-4.15 1.4-7.2 4.95"/><path fill="#695c97" d="M115.2 87.25q.95-4.45 3.95-7.95 3.05-3.55 7.2-4.95 1.95 1.1 3.5 2.55-2.4 3.3-2.95 8.9-.5 5.3.75 12-4.65-4.75-12.45-10.55"/><path fill="#8e84ae" d="M201.15 23.1q-5.9 10.3-8.5 15.6-1.05 2.15-3.1 8.6-7.85-2-14.05 2 1.75-10.6 12.25-21.1 8.55-8.55 16.6-11.8.8-.3-3.2 6.7"/><path fill="#695c97" d="M175.5 49.3q6.2-4 14.05-2l-2.1 6.75q-1.2 3.4-2.25 4.35-2.05-1.05-5.6-2.3l-4.4-1.65q-.15-2.6.3-5.15"/><path fill="#0098c7" d="M217.6 115.3q2.85 7.6-.3 17.55-2.95 9.15-9.6 16.3-9.45 10.15-24.95 9.8-12.15-.3-18.6-5.05-3.85-2.8-7.65-8.3-3.55-5.15-5.1-9.65 6.05 8.2 16.65 12 11.5 4.1 23.45.95 24.85-6.7 26.1-33.6"/><path fill="#0d131a" d="M371.15 38q-10.8-9.35-29.55-16.3-17.3-6.4-38.35-9.7-20.3-3.2-39.1-2.7-19.25.45-31.9 4.65-1.1.4-1.75 2.05-.8 2-.65 5.15.15 3.7.45 4.95.5 2.15 1.95 2.5 25.5 5.8 41.65 20.85 11.7 10.9 16.85 24.8 1.65 4.35-1.05 4.85-2.7.45-4.25-2.65-8.75-17.1-23.9-28.1Q246.4 37.4 234 39.1q-2.5.35-3.55 1.75-1.05 1.4-1.05 4.35 0 19.8-5.9 33.7-4.8 11.2-14 19.4-.4.4-.8-1.8l.5-.55Q220.1 84.4 223.75 72q2.5-8.45 3.55-28.25.25-4.35 1.4-5.7.8-.95 3.25-1.3 13.85-2 29.4 8.7 15.95 10.9 25.2 29.4 1 1.9 1.7 1.4.75-.55-.25-2.95-7.25-17.65-24.35-29.4-15.35-10.5-33.7-13.2-1.85-.3-2.45-5.75l-.4-7.65q-.2-2.3 1.15-3.9 1.15-1.4 3.2-2.1 9.55-3.25 27.1-3.95Q277.05 6.6 297 9q49.7 6.05 74.5 26.5 3.6 2.95 4.4 1.5.8-1.45-2.1-4.2-14.2-13.55-41.65-21.4-23.25-6.7-51.65-8.3-25.15-1.4-43.55 1.5-18.25 2.9-17.35 8 5.15 29.4 1.1 50.25-3.85 20.1-15.4 28.75-.75.6-1.35-.45-.6-1.05.05-1.5 13.45-8.5 15.65-37.9.85-10.9-.1-22.4-.8-9.95-2.4-15.4-.9-3.15 1.1-5.75 2.3-2.95 7.85-4.3Q239.15.8 258.25.15q20.8-.7 41.4 1.9 51.65 6.6 76.1 29.6 4.8 4.55 2.25 7.3-1 1.15-2.9.95-2-.2-3.95-1.9"/><path fill="#0d131a" d="M286.6 76.75q-18.3.55-37.1 11.6-19.15 11.25-30.35 28.6-1 1.6-1.05-.05-.05-1.7.55-2.75 8.7-15.3 28.7-27.35 20.8-12.55 38.2-11.55.85.05 1 .6l.05.9m83.2-40.85q-24.1-3.75-50 9.85-11.25 5.9-19.15 13.55-8 7.75-10.3 15.2-.35-1.1-.85-1.2-.4-.1-.55-1.1 9.45-19.8 35.35-31.4 11.3-5.1 22.85-6.9 11.6-1.8 20.55.15 2.9.65 2.75 1.05l-.65.8M50.4 98.4Q59.6 88.05 64 85.2q3.15-2 4.95-1.55 2.05.5 4.75 4.6 9.3 14.15 28.6 24 21.2 10.8 43.4 10.1.75-.05.95 1.2.25 1.2-.1 1.3-17 0-34.7-6.15-25.1-8.65-39-26.85-2.55-3.3-3.5-3.9-1.9-1.15-4.45.7-5.35 3.95-14.35 14.3-10.7 12.4-20.1 26.9-25.8 39.9-28.4 75.05-.2 2.15 1.1 2.1 1.3-.1 1.65-2l.1-1.1q3.25-33.05 28.35-71.05 9.6-14.5 19.55-25.2 9.25-9.9 13.8-11.4 2.4-.8 6.85 3.85 4.35 4.5 3.55 6.25-4.9 10.35-3.55 34.05 1.35 24.4 8.3 39.15 1.3 2.75 1.8 2.55.55-.2-.15-3.2-5.35-15.15-6.85-34.25Q75 124.5 79 113.4q1-2.9 2-3.3.9-.4 2.6 1.05 7.8 6.8 27.2 13.15 22.6 7.4 37.7 4.9l.05.5q-.1.25.15 1.4-12.35 1.75-31.1-2.8-21.4-5.2-35.95-15.8-4.6 11.85-2.95 32.4 1.45 18.7 6.9 34 1.25 5.25-1 5.7-2.25.45-4.8-4.3-5.95-11.1-8.05-34.55-2.3-25.85 3.55-40.35-2.45-3.35-4.75-5-2.65-2-4.45-1.05-6.45 3.35-16 14.55-9.6 11.25-18.8 26.3-22.1 36.35-24.6 64.05-.5 5.45-3.7 5-1.25-.2-2.15-1.35-.9-1.25-.85-2.8 1.85-37.1 29.55-79.25Q39.3 111 50.4 98.4"/><path fill="#0d131a" d="M79 178.45q3.05 3.3 3.9 4.9.9 1.65-2.05-1.3-3.65-3.65-14.1-4.05-10.3-.45-22.4 2.4-13 3-22.8 8.65-11.1 6.45-15.35 14.85-1.55 3.05-1.05-.25.55-3.35 1.9-5 14.7-17.7 42.95-21.95l19.25-.75q8.1.7 9.75 2.5m34.9-21.1q22.8-9.8 46.25-7.55 1.95.2 2.1 1.25.2 1.05-1.85.8-21.25-2.4-44.3 7.05-22.7 9.25-30.65 23.05-.95 1.1-1.05-.35-.1-1.45.55-2.5 8.3-12.85 28.95-21.75m26.45-83.95q.2 1.2 2.3 5.5 2.45 4.95 3.3 7.55.5 1.5-.1 2.15-.55.6-1.9.3-2.45-.55-5.35-2.35-2.55-1.6-4.3-3.4-.8-.8 2.5-5.85 3.35-5.1 3.55-3.9"/><path fill="#fff" d="M139.2 74.7q.35 1.4 5 11.4.7 1.4-1.25.8-2.2-.75-4.3-2.25-2.2-1.65-3.35-3.45-.55-.8 1.55-4.1 2.1-3.35 2.35-2.4"/><path fill="#0d131a" d="M188.3 95.1q.75.9-4.2 4.65-4.95 3.7-5.15 2.5-1.7-8.75-2.25-13.9-.25-2 .55-2.6.85-.55 2.6.7 3.45 2.6 8.45 8.65"/><path fill="#fff" d="M186.3 96.35q.4.9-2.8 3.05-3.2 2.15-3.3 1.2l-1-5.4q-.95-4.85-1.15-6.6-.1-.85.1-.95.2-.15 1.1.5 1.95 1.4 4.05 3.8 2.3 2.6 3 4.4"/><path fill="#0d131a" d="M163.25 63.05q6.4-.35 6.7.75.75 2.75.95 5.6.35 3.7-.4 6-.45 1.35-1.4 1.6-1 .3-2.05-.85l-5.05-6.6q-3.3-4.5-4.3-5.35-.95-.8 5.55-1.15"/><path fill="#fff" d="M163.75 63.9q3.9-.1 4.35.75 1 1.95 1.25 4.65.25 2.6-.25 4.85-.4 2.05-1.3.65-6.2-9.05-7.25-10.1-.7-.7 3.2-.8"/><path fill="#0d131a" d="M157.3 113.45q.95.85-5.65.55-6.55-.3-6.85-1.4-.6-2.4-.65-5.35 0-3.3.8-5.7.45-1.35 1.05-1.6.65-.25 1.65.9l5.25 6.95q3.45 4.8 4.4 5.65"/><path fill="#fff" d="M155.2 113.5q.7.7-3.6.45-4.25-.3-4.7-1.15-1-1.9-1.2-4.65-.2-2.55.35-4.85.25-1.1.6-1.2.25-.1.7.55l4.15 6 3.7 4.85"/><path fill="#0d131a" d="M197.5 156.9q1.25-2.45 3.35-3.1.8-.25 1.1 0 .35.3-.2.95-2.75 3.2-3.25 6.95-.5 3.8 1.15 8.9 1.15 3.5 16.1 42.3 14.85 38.65 15.9 41.9 2.05 6.5-1.45 7.2-3.45.7-5.85-5.1l-18.6-44.75-18.8-44.65q-2.3-4.55-5-6.1l-6.25-2.35q-1.65-.6.8-.95 2.4-.3 4.95.8 3.05 1.3 4.5 2.8 1.5 1.45 3.1 4.75 5.15 10.5 18.55 43.95 14.4 36.1 18.5 45.1 2.1 4.65 3.55 4.4 1.45-.3-.25-4.65-23.9-63.25-32.45-84.55-2.9-7.05.55-13.8m19-17.6q-.4-3.2 1.6-8.15 2.8-6.95 1.5-2.45-1.75 6.05-.15 10.65 1.25 3.75 5.45 8.1 4.8 5 35 31.85 27.6 24.45 35.15 30.8 2.35 2 3.3 4.2.85 2 .15 3.25-1.8 3.1-8.15-2l-73-60.8q-3.7-3.05-6.5-3.9-3.1-.95-5.5.6-2.05 1.3-1.15-.15.9-1.45 2.8-2.15 3.15-1.1 4.95-.8 2.45.5 6.2 3.7 12.15 10.5 42.6 35.85l30.7 25.6q4.8 4.25 5.35 2.9.55-1.35-4.65-6.1l-29.85-25.7q-26.7-23-38.9-35-2.65-2.65-5-6.65-1.7-2.85-1.9-3.65m-30.8-42.7q2.75-2.75 3.35-5.9.9-4.8-2.7-11.15-5.65-9.95-12.25-13.35-10.85-5.6-26.4 3.2-12.55 7.1-13.05 18.9-.35 9.4 6.6 19.4 3.25 4.7 10.2 5.9 4.35.75 18.5-7 12.6-6.9 15.75-10m2.45-17.9q3.1 6.5 2.85 11.1-.2 4.25-3.35 7.8-2.2 2.55-15.55 9.9-14.7 8.1-19.85 7.95-3.15-.05-6.7-1.8-3.85-1.9-5.9-4.8-7.75-11.05-7-21.35.9-11.95 13.6-19.55 15.85-9.5 28.15-3.7 8.8 4.1 13.75 14.45"/><path fill="#0d131a" d="M81.5 67.9q.85-1.5 4.25-3.3 6.2-3.25 21.55-3.65 18.55-.45 28.25 6.3 1.85 1.3-1.25 1.6-10.2-6.4-28.8-5.35-14.75.85-20.25 3.75-1.75.9-1.95 1.8l.2 2.05q3 18.1 20.45 30.4 7.4 5.2 15.55 7.8 8.05 2.55 14.55 1.9.55-.05 1.65 1 1.1 1 .25 1.15-6.7 1.15-15.05-1.1-8.55-2.25-16.45-7.45-18.6-12.25-23.15-32.1-.75-3.25.2-4.8m127.3-51.15q6.3 16.6 3.3 36.55-2.95 19.75-12.3 25.6-.25.15-.55-.65-.3-.8 0-1.1 9.2-8.55 11.05-29.55 1.7-19.45-3.55-30.5-1.3-2.7-2.1-3.25l-3.15.2q-12.65 4.4-22.65 15-10.9 11.6-13.2 25.5-.05.3-.85 0-.85-.25-.8-.6 1.45-13.65 12.45-25.85 10.2-11.3 22.9-15.6 4.1-1.4 6.1-.45 1.9.9 3.35 4.7"/><path fill="#0d131a" d="M109.45 68.4q14.15 1.6 21.15 7.55.25.2-.35 1.05-.65.9-1.25.95-5-4.65-16-6.95-13.05-2.8-24.6.7-2.75.85-3.65.4-.9-.5 1.55-1.5 9.35-3.7 23.15-2.2"/><path fill="#0d131a" d="M203.15 16.4q1.55-.75 2.05-.4.5.35-1.4 1.4-9.7 5.2-15.6 11.4-9.8 10.25-12.35 25.1 8.65 2.1 14.5 7.8 8.05 7.85 11.65 23.2.5 2 3.3 5.7l5.9 7.65q8.3 11.6 9.5 24.05.85 8.9-5.35 19.25-6.6 11.1-16.75 15.45-9.85 4.2-20.95 2.8-11.4-1.45-18.6-8.25-6.1-5.8-9.9-16.75l-2.4-7.35q-1.2-3.45-2.3-4.5-9.85-9.55-10.95-11-5.5-7-7.4-17.3-1.05-5.7.6-12.4 1.75-7.25 6.15-13.3 10.7-14.85 30.85-15.55 4.35-.15 4.7.85.4 1-4.1 1.05-16.15.25-26.7 11.55Q127 78.2 128.55 93.7q1.2 11.85 9.35 20.25 1.65 1.7 5.9 5.3 3 2.5 3.55 3.8 1.3 2.9 3.6 10.55 2.95 7.65 8.55 14.25 6.7 7.85 17.5 9.6 10.15 1.6 20.5-2.55 6.1-2.45 12.1-9.45 8.9-10.45 8.4-23.75-.3-7.05-5.85-16.8-2.45-4.3-10.45-15.85-1.1-1.55-2.05-4.7l-1.7-6.2q-2.7-8.55-8.4-14.05-4.2-4-5.8-5.05-3.8-2.6-9.25-3.3-.35-.05-.55-.5l-.1-.65q2.25-25.3 29.3-38.2"/><path fill="#0d131a" d="M113.9 90.2q.6-5.85 3.8-10.4 3.35-4.8 7.95-5.6 1.05-.2 1.15.2.15.45-.85.95-5.15 2.55-7.9 7.7-2.55 4.65-2.35 9.95.15 5.25 2.8 8.9 2.9 3.9 7.65 4.4 4.25.45 2.6.8l-3.5.1q-6.4-1.25-9.4-6.35-2.6-4.45-1.95-10.65m80.95-42.35q9.25 5.2 8.3 15.15-.25 2.05-1.25 3.55-1.05 1.45-.5-1.15 1.15-5.2-1.1-9.55-2.05-3.9-6.35-6.25-4.1-2.25-8.8-2.3-4.85 0-8.55 2.45-1 .6-.95-.4.05-1.05.95-1.55 9.05-5.1 18.25.05"/><path fill="#0d131a" d="M205.8 18.25q4.95 12.1 1.6 31.95-3.15 18.6-9.1 23.3-1.45 1.15-1.45 0 .05-1.1.95-2 4.55-4.5 7.6-21.45 3.45-19.45-1.05-32.9-.3-.95.1-1 .45-.1 1.35 2.1M85.55 72.15q-.1-.55.6-.9.75-.35.8.25 2.35 14.95 19.2 25.8 6.5 4.2 13.8 6.85 6.5 2.35 11.05 2.6 1.2.05 1.7.9.45.75-.2.9-3.45.6-10.4-1.55-7.6-2.4-14.85-6.85-19.2-11.7-21.7-28"/></svg>