<svg xmlns="http://www.w3.org/2000/svg" width="488" height="349" viewBox="-0.5 -0.6 487.75 348.9"><path fill="#a499c9" d="M478.8 3.15l4.05.1q-.1 1.1-2.6 3.35-34.8 30.65-51.75 85.05-16.3 52.3-8.9 101.6-25.1 6.85-43.45 24.9-29.4 29-27.75 77.65-9.15-10.35-23.85-18.3-29.4-15.9-56.95-3.95l-6.3.55-1.7-61.5q23.9 0 40.75-22.75 7.1-9.7 11.15-21.45 3.9-11.4 3.9-21.85 0-17.05-8.5-33.85-2.7-5.25-5.9-9.85l-2.65-3.55 1.95-2.85q3.15-3.85 9.1-8.8 18.9-15.95 58.4-37.3 31.2-16.9 66.25-31 23.15-9.3 44.75-16.2M31.6 20.85q37.5 18.9 72.55 53.95 17.1 17.1 24.5 30.2 3.7 6.55 4 9.7l-1.85 2.9q-2.25 3.75-4.1 7.9-6 13.4-6 26.2 0 8.3 2.75 17.9 3.05 10.7 8.55 19.4 13.9 21.9 36.5 21.9l-3.85 74.3q-21.85-10.95-41.1 1.75-9.6 6.35-14.85 14.9-19.45-38.45-52.25-58.3-10.2-6.2-20.55-9.8l-8.3-2.35q10.85-22.8 16.7-48.2 5.55-23.9 5.55-44.75 0-33.3-12.15-64.65Q26.35 44.45 1.1 8.9q11.75 2.45 30.5 11.95"/><path fill="#8e84ae" d="M36.75 38.65Q19.2 21.6 6.25 11.05l.7-.5q17.35 5.5 37.35 17.2 31 18.2 59.85 47.05 19.35 19.35 26.2 33.4l-26.2 30.4q10.5-13.5-31.45-62.05-15.75-18.3-35.95-37.9"/><path fill="#00aee5" d="M239.85 140.85q1.85-.35 5.9 7.65 4.3 8.4 8.7 21.45 11.4 33.7 14 67.85 3.45 46-12.8 73.45-7.35 12.45-17.95 19.05-10.4 6.45-22.6 6.45-25.6 0-40.6-26.7-13.65-24.25-13.65-60.3 0-30.6 9.15-69.05 3.7-15.65 7.45-25.8 3.85-10.2 6-10.2t6.2 6.2l3.6 6.15 5.05-1.35q6.4-1.45 13.35-2 6.95-.55 13.4.3l5.1.9 3.1-6.7q3.65-6.8 6.6-7.35"/><path fill="#0098c7" d="M160.85 249.75v-1.35l1.7-1.6q0 35.1 14.8 60 15.2 25.65 37.85 25.65 25.7 0 40.35-30.2 12.05-24.8 12.05-56.35 0-4.65.95-6.15 3 45.15-13.2 72.25-7.4 12.35-17.9 18.85-10.3 6.45-22.4 6.45-25.55 0-40.55-26.95-13.65-24.5-13.65-60.6"/><path fill="#a499c9" d="M187.95 156.55l-5.3 1.15-1.6.5q.1-1.65.45-3.4.65-3.4 1.9-3.55 1.25-.2 3.05 2.55l1.5 2.75m49.2-5.45q1.8-3.15 3.05-3.15 1.2 0 2.8 3.6l1.3 3.6-8.75-.9 1.6-3.15"/><path fill="#fff" d="M185.4 160.5l15.95 11.05q-1.35 2.15-3.6 3.7-4.55 3.1-9.15 0-3.4-2.3-4.05-7.35-.55-4.25.85-7.4m38.35 11.4l17.8-13.45q1 3.3.3 7.95-.85 6.2-4.8 8.2-5.1 2.6-9.7.2l-3.6-2.9"/><path fill="#0d131a" d="M184.45 183q1.85 0 10.9 3.1 9.05 3.05 16.05 3.05t18.1-3.65q11.05-3.65 12.75-3.65 5.3 0 9.45 19.3 4.5 20.65 4.5 50.75 0 34.1-11.5 53.4-11.3 18.9-30.65 18.9-20.55 0-32.1-20.5-10.9-19.35-10.9-51.25 0-28.2 5.1-50.25 4.45-19.2 8.3-19.2"/><path fill="#fff" d="M180.45 188.4l1.5-2.5q1.65-2.55 2.5-2.9 1.45-.55 6.85 1.45 0 4.4-2.3 10.55-2.15 5.85-3.35 5.85-1.05 0-2.7-3.95-1.65-3.95-2.5-8.5m59.75-6.75q2.65-.85 3.45.2l4.3 6.85q-.95 4.15-4.1 7.5-2.7 2.85-4.15 2.85-1.05 0-1.75-5.9t-.25-10.45l2.5-1.05m-55.45 126.6q1.8-4.25 4.6-7.65 2.6-3.2 3.5-2.7.75.4 1.75 8.85.95 7.9.95 12.05-4.65-2.95-6.35-5.05l-4.45-5.5m46.95 11.2q-1.05-6.1-.65-15.45.45-9.05 1.55-9.55 1.15-.45 4.9 4.55 3.95 5.25 5.3 9.85l-1.35 2.1q-1.55 2.2-2.6 3l-7.15 5.5"/><path fill="#00aee5" d="M37.8 27.35Q20.45 16.4 1.1 8.9q11.5 0 30.1 8.5 17.5 8.05 37.8 22 20.15 13.85 38.15 30.15 18.85 17 31.05 32.9 3.05 4 2.35 10.05-.7 5.7-4.05 8.75-4.05 3.6-7.15 10.9-3.95 9.3-3.95 20.25 0 22 12.4 37.8 11.9 15.15 27.3 15.15l-2.15 11.1q-7.5 0-15.85-4.95-8.3-4.95-15.35-13.45-16.2-19.55-16.2-43.5 0-12.45 5.5-28 5.45-13.35 5.45-14.85 0-4.2-8.8-15.75-12.8-16.9-37.6-37.5-25.6-20.55-42.3-31.1M476.75 2.2l4.55-.2q.9.55-3.9 2.45-44.45 17.25-83.25 37.05-62.35 31.85-87.7 59.65l2.15 3.2q2.55 4.25 4.7 9.5 6.8 16.9 6.8 37.7 0 28.15-19.15 48.1-8.05 8.35-17.8 13.1-9.35 4.55-17.7 4.55l-1.3-11.1q8.4 0 16.7-4.7 8.1-4.6 14.65-12.75 14.35-17.9 14.35-41.45 0-16.15-5.35-29.1-4.7-11.55-10.45-14.05-5.2-2.3-5.25-6.7-.1-4.5 5.25-8.25 40.25-28.35 93.4-53.75Q441.1 9.8 476.75 2.2m-315.9 335.95q-3.35-4.05-13.6-13.9-10.95-10.55-16.3-14.55-6.75-5-9.9-10.15-3.8-6.25-.1-9.8 7.85-7.45 25.2 7.5 8.7 7.5 15.8 16.45l6.55-4.75 4-2.65 5.4 9.95q-1.15 2.85-7.25 9.55l4.5 7.8q3.8 8.3.6 10.95-2.9 2.4-7.55-.05-3.85-2.05-7.35-6.35"/><path fill="#0098c7" d="M177.9 316.25q-1.15 2.85-7.25 9.55l1.25 1.9-2.65-.95q-1.25-2.2-1.05-4.3.15-1.85 1.4-3.05l6.5-6.5 1.8 3.35m-17.05 21.9q-3.35-4.05-13.6-13.9-10.95-10.55-16.3-14.55-3.65-2.7-6.45-5.7-3.15-3.35-4.45-6.35 3.1-5.4 10.8-1.45 8.95 4.55 22.3 21.05 13.5 16.7 16 20.15 4.95 6.85 3.2 8l-.7.25q-2.65-.35-5.75-2.65-2.75-2-5.05-4.85"/><path fill="#00aee5" d="M314.35 276.85q2.35 2.75.55 7.8-2.3 6.6-11.45 13.35-10.25 7.6-17.2 14.7-7.05 7.15-11.85 14.8-3 4.8-6 7.4-3.7 3.15-6.35 2-2.85-1.25-2.4-7.65.45-6.3 3.65-11.15l-7.65-6.85 5.95-11.1 9.85 3.4 9.8-10.2q10.65-10.75 14.95-13.7 6.25-4.3 10.4-5.15 4.8-1 7.75 2.35"/><path fill="#0098c7" d="M264.75 319.05q-.9 1.4-2.9 1.65l1.45-2.6-7.3-6.5 2.25-5.1q4.35 3.7 6.1 7.05 1.75 3.35.4 5.5m27.2-23.4q10-8.95 14.5-12.55 2.95-2.4 6.05-1.4 2.9.9 2.9 3.1l-2.9 4.15-3.65 4.15q-2.6 2.8-5.4 4.9-10.25 7.6-17.2 14.7-7.05 7.15-11.85 14.8-4 6.35-7.6 8.6l-1.8.35q-2.6.75 1.2-8.6 4.05-9.95 10.8-17.85 3.25-3.85 14.95-14.35"/><path fill="#8e84ae" d="M116.1 155.5q-.35 9.25 3.8 21.6 2.05 6.15 4.2 10.45l-4.55 28.5q.95-9.65-5.55-25.05-6.75-16.1-13.25-16.55-6.45-.4-39.75 27.65-16.65 14.05-32 28.15l96.2-114.8-5.4 17.9q-3.35 12.65-3.7 22.15m8 32.05l6.55 8.35q7.3 8.9 10.85 11.6 4 3.05 13.45 6.4l8.6 2.75-2.85 27.5q-.75-7.85-8.85-16.05-8.75-8.85-16.95-7.5-6.4 1.05-16.95 39.9-5.25 19.45-9.25 38.65l15.4-111.6M448.6 16.2q19.3-7.85 33.1-12.55Q405.15 39.6 363.2 83q-13.15 13.6-21.25 26.25l-5.45 10-28.5-18.8q18.9-21.1 74.6-52.95 27.4-15.65 66-31.3m-122.65 96.7q20.5 12.95 33.3 24 12.8 11.05 37.85 34.8l22.5 21.55q-21.6-14.8-62.6-40.4-19.6-12.3-29.7 15.4-5.05 13.85-6.2 30.15l-6.25-18.8q1.55-2.7 3.15-8 3.1-10.55 3.1-23.35t-6.55-30.75L308 102.15l17.95 10.75m-11.1 66.7l22.75 74.6q-9.15-22.5-20.55-32.25-12.7-10.9-26.1-3.65-9.25 5-16 16.2-5.7 9.5-5.7 15.35l-3.2-32.65 9.8-2.1q11.15-3.25 17.95-9.3 6.75-6.05 14.6-16.75 3.9-5.3 6.45-9.45"/><path fill="#0d131a" d="M239.85 142.65q-1.5-.1-4.15 3.95-2.6 3.9-4.15 8.3l-.7.85-1.1.15-4.4-.9q-5.85-.75-13.45-.3-7.9.45-13.7 1.9l-4.3 1.3q-1.2.25-1.8-.8-2.5-4.25-4.9-7.4-2.65-3.4-3.6-3.2-1.95.35-5.55 10.8-3.5 10.35-7 25.85-8.55 38.15-8.55 66.6 0 34.35 12.75 58.45 14.5 27.4 39.8 27.4 8.85 0 16.85-3.65 7.95-3.65 14.45-10.65 10.25-11.05 15.65-28.6 5.35-17.55 5.35-39.85 0-7.25-.6-14.9-2.35-31-13.05-64.75-4.2-13.2-8.25-22-3.85-8.4-5.6-8.55m-6.35 3.1q3.05-5.35 6.05-5.9 2.5-.45 7.15 8.8 4.55 9 9.4 23.7 11.6 35.2 13.85 65.35 3.6 47.3-14.15 75.5-7.7 12.3-18.5 18.85-10.4 6.3-21.9 6.3-26.95 0-42.5-28.35-13.65-24.95-13.65-60.55 0-28 9.35-67.35 4-16.8 7.95-27.35 4.2-11.1 6.9-11.1 2.35 0 5.45 4.5l4.5 7.5q6.1-2.35 17.2-3.1 12-.8 19.2 1.2 2.8-6.4 3.7-8"/><path fill="#0d131a" d="M187.1 156.15q-2.5-4.35-3.5-4.35-.9.5-1.55 5.6l5.05-1.25m1.45-.3q.55 1.1-.7 1.4l-6.05 1.4q-1.6.65-1.4-1.15.05-1.25.9-3.75 1-3.1 2-3.25.9-.1 2.6 1.65 1.65 1.7 2.65 3.7m51.7-7.15q-.5.1-1.6 1.55l-2.2 3.5 7.1.7q-2.15-5.45-3.3-5.75m-5.35 4.85q.95-1.95 2.7-4.15 1.85-2.25 2.6-2.25.85 0 2.35 2.25 1.55 2.3 2.4 5.2.5 1.5-1.05 1.3l-4.2-.6-3.9-.35-1.05-.3q-.2-.35.15-1.1m-48.85 8.85q-.9 3.5-.2 7.05.75 3.8 3.05 5.35 3.2 2.2 6.95.5 2.4-1.05 4.6-3.45l-14.4-9.45m.25-1.95l15.1 10.45.75.8q.05.35-.45.95-2.5 3.1-6.3 4.25-4.15 1.2-7.3-.9-3.05-2.05-4-7.05-.85-4.55.4-8 .35-.8.6-.9.35-.15 1.2.4m54.3 7.95q.7-2.55.7-6.65l-.05-1.6-16.6 12q2.1 1.8 4.5 2.55 3.75 1.2 7.25-.65 3.05-1.55 4.2-5.65m1.65-10.7q.3.15.55 1.35.8 4.45-.45 9-1.5 5.5-5.4 7.5-2.95 1.5-7.1.65-4-.85-6.4-3.25-.6-.6-.6-.95 0-.3.65-.8l17.4-12.9q1-.75 1.35-.6M201 189.15q-3.25-.75-8.75-2.55-5.75-1.85-7.65-1.9-3.25 1.8-7.25 19.3-4.9 21.6-4.9 48.45 0 32.45 11.25 51.55 11.25 19.15 30.35 19.15 18.75 0 29.9-19.3 11.2-19.35 11.2-51.95 0-29.85-4.9-50.75-4.1-17.6-8-17.6-1.65 0-8.8 2.25L223 188.85q-6.4 1.55-11.5 1.55-5 0-10.5-1.25m-20.7-2.75q2.4-4.75 4.15-4.75 1.5 0 4.05.95l4.8 1.75q5.3 1.7 8.3 2.4 5.2 1.2 9.9 1.2t10.85-1.45l10.1-2.95 5.6-2.05q2.8-1 4.2-1 5.35 0 10.1 17.8 5.55 20.95 5.55 53.6 0 34.25-11.9 54.05-11.8 19.65-31.95 19.65-20 0-32.15-19.8-12.2-19.95-12.2-53 0-30.5 5.75-52.6 2.2-8.65 4.85-13.8"/><path fill="#0d131a" d="M189.6 184.45q0-.65 1.2-.25 1.25.4 1.2.75-.35 5.15-1.95 10.4-2 6.5-4.45 6.5-2.15 0-3.95-4.35-1.2-2.95-2.15-7.45-.1-.5.9-1.9 1.05-1.4 1.15-.75 2.3 11.7 4 12.05 1.4-.35 2.75-5.9 1.3-5.25 1.3-9.1m46.8-.65q.1-.7 1.55-1.2l1.45.1v.2l-.2 4.15-.05 6.8q.1 3.65 1 3.7 1.35.25 3.55-3.15 2.2-3.4 2.95-6.8.15-.65 1.3.45 1.15 1.15 1 1.8-.65 2.75-3.9 6.6-3.6 4.25-5.65 3.35-1.9-.85-2.7-7.75-.55-5.1-.3-8.25m-52.75 122.8q1-2.25 4-6.1 3.75-4.85 5.5-4.35 1.9.55 3.05 11.9.55 5.75.75 11.45 0 .65-1.55-.5t-1.55-1.6l-.3-10.85q-.35-7.15-1.2-7.3-.95-.1-2.85 3.2-1.6 2.65-3.2 6.5-.25.6-1.5-.7-1.3-1.3-1.15-1.65m46.3 12.7q-.35-5.55-.1-13 .4-12.1 2.75-13 1.2-.45 5.4 4.4 4.3 4.95 5.95 9.15.15.45-1.2 1.8-1.35 1.35-1.55.7-1.15-3.85-3.95-8.6-2.95-5.05-4-4.4-1.15.5-1.1 9.65.05 8.9.95 11.65 0 .7-1.55 1.55l-1.6.1M87.65 62.65q17.8 15.6 28.4 28.45 11.45 13.9 11.45 21.15 0 1.25-2.05 6.4-3.55 9.3-5.15 15.3-3.05 11.15-3.05 20.6 0 23.45 16.1 42.55 6.85 8.15 14.85 12.9 7.95 4.75 14.75 4.75.7 0 .7 1.4 0 1.45-.7 1.35-19.5-1.85-34.1-20.45-14.6-18.6-14.6-41.4 0-11.45 5.25-27.5 5.25-14.1 5.25-15.9-.4-6.25-12.7-20.5Q100.2 78 81.8 62.1 62.5 45.35 43.05 32.4q-21.55-14.35-38-20.35Q44.2 68.2 50.8 115.8q7.2 52.4-21.2 114.75 22.5 5.75 40.6 19.85 22.5 17.55 38.7 48.3 12.6-16.75 29-19.45 13.25-2.2 27.2 4.75.65.35.05 1.7t-1.25 1.05q-20.8-10.4-39 1.25-9.15 5.95-14.75 14.75-.6 1-1.65.8-.95-.2-1.3-.9-16.2-33.9-45.15-53.75-18.9-12.95-34.75-15.85-.9-.15-1.25-.95-.35-.7 0-1.4 27.5-58.05 21.05-111.2-6.25-50.9-45-106.6Q.6 10.7.2 9.65q-.7-1.8.9-1.8 11.1 0 30.25 8.75Q49.6 24.95 70.55 39q21.15 14.25 39 30.2 19.05 17.1 29.65 32.2 3.5 4.95 3.3 10.15-.25 5.85-5.2 10.3-3.65 3.25-6.9 10.85-4.15 9.8-4.15 20.55 0 21.95 13.5 37.3 5.6 6.4 12.35 10 6.45 3.45 12.05 3.45.7 0 1.15 1.55.5 1.5-.2 1.5-7.35 0-14.85-4-7.5-4.05-13.55-11.25-13.75-16.35-13.75-39.4 0-9.65 3.95-19.3 3.6-8.8 8.45-13.15 3.45-3.05 3.7-8.4.25-4.95-2.2-8.1-21.8-28.3-58.65-55.55Q42 21.2 15.55 13.2q15.7 7.25 35.65 21.05 18.95 13.1 36.45 28.4"/><path fill="#0d131a" d="M125.85 110.35q.6-.7-2.3 9.45L29.4 232.55l-1.75-2.75 98.2-119.45m-3.05 73.95q.1-.6 1.55 2.4l1.45 3.15L110 301l-2.25-.85L122.8 184.3M479.45 8.7q-13.35 12.15-25.7 32.05-12.8 20.75-21.35 45-9.55 27.15-12.25 56.45-2.45 26.8 1.15 50.8l-.25 1.2-1 .7q-27.3 7.5-45.45 27.85-24.3 27.15-24 70.55.05 3.95-1.15 4.5-1.15.6-3.7-2-37.65-37.9-77.5-20.7-.5.2-.25-1.6.2-1.75.65-1.9 21.4-8.55 39.6-3.6 18.35 5 39 25.2v-.45q0-42.8 20.5-68.5 17.15-21.4 50.05-32.2-7.3-52 9.6-104.65 17-53.15 50.55-81.35-44.45 17.35-82.45 36.7-61.8 31.35-87.15 58.55 4.75 6.95 8.05 15.9 5.75 15.75 5.75 34.35 0 28.65-19.7 48.85-8.35 8.5-18.45 13.3-9.75 4.65-18.55 4.65-.7 0-.7-1.35 0-1.4.7-1.4 8.25 0 17.4-4.5 9.4-4.65 17.2-12.85 18.35-19.4 18.35-46.7 0-17.5-5.05-32.45-3.05-9.15-7.3-15.55-1.15-1.75-.85-2.9.2-.9 1.85-2.6 24.7-25.95 81.5-55.45 37-19.25 81.45-37.05-35.85 9.1-85.65 33.25-50.6 24.45-89.3 51.8-4.6 3.2-4.6 6.75l.05.45q.3 3.1 4.25 4.8 6.45 2.8 11.45 15.3 5.35 13.35 5.35 29.4 0 23.8-14.4 42.2-14.4 18.4-33 18.4-.65 0-.65-1.35 0-1.4.65-1.4 7.6 0 15.45-4.5 7.8-4.45 14.2-12.35 14.35-17.75 14.35-41 0-15.8-4.95-28.6-4.4-11.4-9.5-13.65-6.15-2.7-6.6-6.9-.25-2.8 1.3-5.6 1.6-2.9 4.7-5.05Q335 58.55 390 32.9q54.3-25.35 87.45-31.75Q486.7-.6 487 .55q.25 1.1-7.55 8.15"/><path fill="#0d131a" d="M350 295.9q.2.7-1.25.95-1.4.3-1.6-.4l-32.85-114.6.95-4.1q1-4 1.15-3.45L350 295.9m70.5-103.85q.5.5-.55 1.55t-1.55.55q-26.75-26.8-55-50.8-36.4-30.95-55.8-39.85-.5-.2-.4-2.45.05-2.25.65-2 19.15 8 56.4 40.3 26.3 22.75 56.25 52.7M128.85 286.3q7.4 1.1 16.05 8 4.95 3.95 10.45 10.35l6.55 7.95q9.4-7.6 9.7-7.75.55-.4 1.5 1.05.9 1.45.3 1.8l-3.95 2.65-6.4 4.65q-.55.45-1.2.4-.75-.05-1.2-.65l-5.4-6.25q-6.5-7.1-12.35-11.8-6.7-5.4-12.65-6.8-5.3-1.25-7.75 1.1-2.4 2.4-.3 6.85 2.4 5.05 9.75 10.5 5.55 4.1 16.55 14.75 10.2 9.85 13.65 14 3.3 4.05 7.25 5.8 3.7 1.7 5.3.35 1.8-1.5-.3-7.05-1.85-4.75-5.15-9.45-.35-.5-.3-1.1.05-.6.45-1l4.05-4.75q2.4-3 2.9-4.3.25-.55 1.75.25 1.45.75 1.4 1-.6 1.5-3.5 4.55l-4.15 4.2q4.5 6.75 6.05 12.45 1.65 5.85-.7 7.8-2.95 2.45-8 .4-5.1-2.1-9.7-7.65-5.2-6.3-13.1-13.9-9.45-9.1-17.1-14.3-8.15-5.55-10.75-11.9-2.35-5.75.7-9.4 3.05-3.75 9.6-2.8m166.05-7.5q8.05-5.55 14.15-5.55 5.5-.05 7.25 4.15t-1.3 10q-3.4 6.45-11.45 11.95-10.15 7-17.15 14.55-5.55 6-10.85 14.5-6.25 9.95-12.2 9.65-2.45-.15-3.95-2.2-1.5-2.05-1.5-5.25 0-4.6 4.25-12.15l-4.4-3.45-3.25-2.45q-.35-.3.7-1.65 1.05-1.35 1.55-.9l7.7 6.85q.45.4.55 1.05.1.65-.25 1.15-3.2 4.75-3.85 9-.6 3.8 1.05 5.5 1.65 1.7 4.5.15 3.2-1.75 6.55-7.1 4.8-7.75 11.95-15 7.05-7.15 17.5-14.95 6.55-4.85 9.35-9.9 2.55-4.5 1.35-7.45-1.15-2.95-5.3-2.7-4.6.25-10.7 4.45-4.1 2.85-14.65 13.5l-9.85 10.2q-.8.8-1.8.4l-9.8-3.4q-.65-.2-.1-1.8.55-1.65 1.2-1.4l3.8 1.95q3.95 2.05 5 2.4l10.95-11.8q9.1-9.6 13-12.3M192 165.7l1.7.9q-1.5 1.75-2.75 4.4-1.2 2.45-1.8 4.75l-1.15-.7q.95-6 4-9.35m39.4.6l1.7-.9q1.5 1.45 2.75 4.25 1.05 2.3 1.55 4.6l-1.4.7q-.45-1.85-1.8-4.45-1.45-2.8-2.8-4.2"/></svg>