<svg xmlns="http://www.w3.org/2000/svg" width="184" height="181" viewBox="-0.25 -1.15 183.95 180.7"><path fill="#0d131a" d="M183.2 55.55q.5.6-.95.9l-2.95.45q-2.85.75-10.05 9.15L157.5 79.7q-3.5 3.65-12.7 10.45-8.15 6-12.1 8.3-3.35 2-6.35 5.4l-2.3 3q12 7.7 16.45 17.55 4.2 9.35.6 18.05-3.65 8.8-14.2 13.95-11.4 5.6-28 5.45-20.3-.15-31.75-7.7-9.85-6.5-11.6-17.2-1.55-9.6 3.65-18.8 5.2-9.15 14.05-12.6l-5.2-.8q-6.1-1.2-10.55-3-4.7-1.85-17.9-9.1-11.5-6.3-15.7-8.95-5.6-3.45-20.65-8.35-2.8-.9-3.15-1.75-.35-.95 1.5-3 3-3.35 9.85-7.05 9.25-5.05 18.35-5.7 5.15-.4 11.6 1.1l5.4 1.55q-3.55-4.1-14.95-18.65-1.35-1.75-4.7-3.6l-4.1-2Q19 34.25 19 32.8q-.05-1.45 6.95-3.4 7.05-1.95 11.8-1.75 9.4.45 23.65 10.3 7.1 4.9 12.35 9.75-1.3-7.95-1.95-19.55-.35-5.8-.4-10.05-2.8.95-8.85 3.8-2.55 1.2-1.4-1.55 2.55-5.9 7.8-12.1Q75.25.9 80.25.1q7.65-1.25 18.9 16.15 8.6 13.3 11.2 21.55 6.45-11.65 14.7-17.8 8.85-6.6 19.2-6.5 2.55.05 4.2 1.05 1.75 1.05.3 1.85-7.15 4-9.8 18.5-.5 2.7-1.65 18.25-.4 5.2-2.15 10.4l-1.7 4.15q20.6-19.05 36.05-18.45 8.95.3 13.7 6.3"/><path fill="#00a63c" d="M167.2 51.05q6.65-.45 12.75 3.95l-1.55.1q-2 .45-4.15 2.1-1.35 1.05-4.85 5.2l-7.75 9.05Q149.1 85.2 133.8 95.4q-8.7 5.3-12.45 12.25l.45 1.45-36.2-2-.9-1.9q-.7-1.95.15-2.3 1.65-.65.9-1.2-.8-.55-3.05 0l-8 2.1q-13.1-1.75-26.2-8.55-15.85-9.3-26.3-14.9-4.95-2.65-13.1-5.25-6-1.9-6.05-2.75 0-2.05 9.3-6.95 10.7-5.65 20.4-5.8 9.45-.15 20.6 5.7 4.1 2.15 13.55 8.65 5.45 3.75 14.35 11.15l6.2 14.95q1.1 2.3 1.8 1.7.65-.6-.2-2.6Q80.3 79 75.75 46.55q-3.85-27.8-2.05-36.5.25-1.15-.2-1.35-.45-.25-1 .5-.45.55-.75 3.9l-.2 3.25q-2.5.4-6.1 2.15l-3.1 1.65 6.55-9q7.45-9 12-9.05 4.9-.05 12 9.45 4.55 6.05 11.9 19.1 3.35 6.1 5.4 17.9 1.55 9.2 1.7 17.05.15 10.15-.2 15.45-.4 5.7-1.65 9.8-.65 2.2-.25 2.7.35.45 1.2-1.35 2.35-4.95 2.95-15.9l.15-11.2q0-6.1-1.4-16l-1.4-8.7q7.35-13.15 15.35-19.3 8.9-6.85 19.45-5.85l-1.25 1q-1.55 1.55-3.35 4.3-2.25 3.4-4.3 13.2-2.1 10.15-2.2 18.75-.15 7.85-4.15 15.6-2.95 5.8-9.75 14.15-4.95 6.1-7.6 10.85-1.2 2.1-2.35 5-.5 1.3-.35 2.45.2 1.15.7.15 3.15-6.05 8.75-14.1 4.85-6.9 8.6-11.2 6.7-7.75 17.75-15.4 12.1-8.3 20.6-8.95"/><path fill="#00a63c" d="M36.65 29.8q6.15-.65 17.35 5.9 9.85 5.8 19.9 14.75.55 5.05 2.6 15.3 2.35 11.5 4 15.7L68.75 72.4q-13-9.5-19.35-11.7-4.7-5.55-7.2-9.35-2.05-3.1-6.05-7.7-4.3-4.95-6.05-6-1.55-.95-5.5-2.85l-3.7-1.65 4.1-1.3q5.35-1.4 11.65-2.05"/><path fill="#0d131a" d="M81.5 97.1q1.25.5 1.5 1 .2.5-.8.35-2.75-.45-5.9-1.95-2.5-1.2-4.3-2.6-13.2-10.55-23.2-15.8-12.9-6.8-26.35-8.45-1.25-.15-.45-.5l1.8-.3q11.6.25 28.05 9.1Q64.4 84.7 72.5 91.85q1.35 1.2 4.6 3 2.95 1.7 4.4 2.25M46.05 38.65q7.3 4.5 13 9.8 5.2 4.9 19 21.2l1 4.9q-4.4-6.85-20.9-24.35-5.3-5.55-13.5-10.6-7.85-4.8-11.9-5.25-1.85-.2-1-.6.9-.45 2.1-.3 4.3.35 12.2 5.2M83.6 8.15q-.5-1-.1-1.5.35-.55 1.35 1.15Q89.8 16.1 94 28.05q4.55 12.95 6.4 25.1 1.75 11.3 2.1 19.45.4 8.85-.25 24.5-.1 3.2-.85 2.6-.75-.65-.55-3.9.4-5.25-.3-18.25-.75-13.9-2.15-23.4-1.7-11.8-5.7-23.95-3.75-11.6-9.1-22.05m51.8 10.65q1.6-1.6 1.7-1.25.05.35-1.5 2.85l-3.5 4.7q-3.35 4.65-5.3 8.85-3.5 7.55-7.35 19.65l-2.35 8.3-3.5 11.7-.1-4.8q2.35-8.65 5-17.5 3.35-11.1 5.15-15.3 2.15-4.9 4.7-8.7 2.85-4.25 7.05-8.5m36.75 36.6q-10.8 2.85-19.4 9.3-2.6 1.95-16.85 15l-11.35 11.6-8.8 9.35q-.6.7-1.35.75-.8.1 0-.9l8.2-9.5q8.45-9.4 14.55-15.05 13.9-12.9 22.4-17.65 6-3.35 12.55-3.9 1.15-.1 1.35.25.2.35-1.3.75"/><path fill="#767cba" d="M57.85 133.4q-.25-16.35 13.95-25.05 11.1-6.8 26.1-7 17.3-.25 31.55 11.7 8.85 7.45 10.3 17.6 1.5 10.4-5.7 17.75-5.05 5.2-14.35 8.05-8.95 2.75-20.65 2.9-16.8.25-27.85-5.55-13.15-6.85-13.35-20.4"/><path fill="#0d131a" d="M111.1 122.95q-1.4.05-2.4-.95-1-.95-1-2.35-.05-1.4.95-2.4.95-1 2.35-1 1.4-.05 2.4.95.95.95 1 2.35.05 1.4-.95 2.4-.95 1-2.35 1"/><path fill="#e9545d" d="M111.05 121.65q-.8.05-1.45-.55-.6-.6-.65-1.45 0-.85.6-1.5.6-.6 1.45-.6.85-.05 1.5.55.6.6.6 1.45.05.85-.55 1.5-.65.6-1.5.6"/><path fill="#0d131a" d="M85.1 123.35q-1.4.05-2.35-.95-1-.95-1.05-2.35 0-1.4.95-2.4t2.35-1q1.4-.05 2.4.95 1 .95 1.05 2.35 0 1.4-1 2.4-.95 1-2.35 1"/><path fill="#e9545d" d="M85.1 122.05q-.85.05-1.5-.55-.6-.65-.6-1.5t.6-1.45q.6-.6 1.45-.65.85 0 1.45.6t.65 1.45q0 .85-.6 1.5-.6.6-1.45.6"/><path fill="#0d131a" d="M95.1 130.7l6.6.1-.65 2.7q-.95 2.65-2.65 2.7-1.65.05-2.65-2.75l-.65-2.75"/><path fill="#ed8599" d="M96.45 132l3.8-.05q-.55 3.2-1.85 3.2-.8.05-1.45-1.55l-.5-1.6"/><path fill="#0d131a" d="M124.65 178.25q-10.2 1.3-13.15-4.4-5-9.75 10.45-18.1 16.1-8.8 24.7-10.35 10.05-1.85 13.05 5.4 2.5 6.1-1.5 11.7-4.3 5.95-15.2 10.35-11.15 4.5-18.35 5.4"/><path fill="#767cba" d="M154.6 148.35q3.4 1.85 3.65 5.8.25 4.05-2.9 7.95-3.55 4.35-10.15 6.85.45-1.2-6.25-3.15-7.35-2.1-12.75-.15-6.45 2.35-11.85 8.55-2.7-2.35-2.05-6.05.85-5.25 9.05-9.7 16-8.65 23.8-10.7 5.8-1.5 9.45.6"/><path fill="#666ba1" d="M124.05 176.05q-10.25.6-9.95-2.85.3-3.5 11.95-7.7 6.7-2.45 13.65-.65 6.45 1.65 5.5 4.15l-11.3 4.7q-5.9 2.1-9.85 2.35"/><path fill="#0d131a" d="M40.2 162.4q-3.8-4.8-1.6-10.2 2.55-6.25 11.65-5.9 8.05.35 17.95 5.45 9.7 4.95 14.9 11.25 5.75 6.85 2.5 11.55-3 4.4-11 3.4-6.85-.85-19.8-6.1-10.6-4.25-14.6-9.45"/><path fill="#767cba" d="M71.3 165.65q-5.4-1.95-11.55-1.5-4.55.35-6.45 1.35-1.5.8-.8 2.75-6.4-2.85-9.95-7-4.3-5.05-1.25-9.25 3.25-4.45 11.35-3.45 7.1.85 15.55 5.4 8.1 4.35 12.8 9.6 5.1 5.65 3.3 9.25l-.9 1.25q-5.1-5.85-12.1-8.4"/><path fill="#666ba1" d="M70.4 174.65q-7.8-1.95-17.9-6.4-1.4-3.75 4.85-4.6 6.15-.8 13.95 2 7 2.55 12.1 8.4-2.6 3.15-13 .6"/><path fill="#0d131a" d="M124.65 107.3l-.25.9q-.4.8-1.05.25l-3.85-2.15q-2.95-1.6-2.4-2 .6-.45 3.5.8 2.6 1.1 4.05 2.2"/><path fill="#009233" d="M28.7 84.1l-12.5-6.6-7.55-2.35q-5.75-1.9-5.45-2.4 8.05-2.3 23.3 4.85 1.95.9 25.85 14.1 10.5 5.85 19.15 8.45 5.85 1.75 10.25 1.85l-7.05 1.8-5.45-.9q-4.25-.95-7.95-2.1-5.25-1-20.1-9.7-3.7-2.15-12.5-7"/><path fill="#666ba1" d="M70.5 153.75q-8.2-4.55-11.05-12.25 2.45 4.25 11.5 8.15 13 5.6 32.25 5.45 29.5-.25 36.65-22.45v-.75q1.65 8.9-5.9 16.7-9.65 10-30.25 10.75-21.5.85-33.2-5.6"/><path fill="#009233" d="M172.75 56.7q4.05-2.15 7.2-1.7-3.9.3-8.2 4.7l-4.6 5.6-5 5.65-7.5 8q-2.35 2.45-10.1 8.55-8.4 6.7-12.25 8.85-3.15 1.85-6.25 5-2.45 2.5-3.75 4.6-.8-.55-2-1 .8-1.4 5.75-6 5.85-5.45 10.5-8.35 4.8-3 10.75-9l13.05-14.25q6.8-7.65 12.4-10.65"/></svg>