<svg xmlns="http://www.w3.org/2000/svg" width="281" height="237" viewBox="-2.65 -1.2 280.6 237.3"><path fill="#0d131a" d="M171.3 32.9q1.3 15-8.6 26.65-9.9 11.6-25.05 12.9-15.15 1.3-26.85-8.4-11.8-9.8-13.1-24.8-1.3-15.05 8.5-26.45Q115.95 1.4 131.15.1q15.2-1.3 27 8.25Q170 17.95 171.3 32.9"/><path fill="#b76870" d="M156.4 9.9q10.8 9.05 12 23 1.2 14-7.9 24.75T137.35 69.6q-14 1.25-24.85-7.8-10.8-9.05-12-23-1.25-13.95 7.85-24.75 9.1-10.75 23.15-12 14.05-1.2 24.9 7.85"/><path fill="#904f57" d="M142.55 42q15.9-12.45 17.1-28.95 7.7 8.45 8.75 19.85 1.2 14-7.9 24.75T137.35 69.6q-8.7.75-16.65-2.7-7.65-3.4-12.95-9.95l2.65-.45q18.5-3.85 32.15-14.5"/><path fill="#f5e7e6" d="M124 14.1q-.6-.35.1-1.75.55-1.15 1.65-1.85 1-.6 1.9-.5 1 .1 1.2 1.1.25 1.05-.95 2.45-.3.4-1.7.7l-2.2-.15m17.35 2.55q-1.1-1.5-.95-3.1.1-1.65 1.45-3.15 1.45-1.6 3.3-1 5.1 1.7 6.7 5.3 1.45 3.2-.5 4.05-2.95 1.3-5.9.55-2.7-.7-4.1-2.65"/><path fill="#0d131a" d="M71.55 164.2q3.55-1.45 5.8-.45 1.1.45 2.6 2.2 1.5 1.75 1.85 4.6.35 2.95-.8 5l-.8 1.4q-2.85 5.35-6.45 8.7-5.85 5.5-14.65 7.45-6.45 1.45-11.25-1.3-4.15-2.35-5.2-6.55l-.2-1.05q-.3-4.25 3.95-5.5 8.9-2.55 19.35-10.45l3.2-2.45q1.65-1.2 2.6-1.6"/><path fill="#5892bf" d="M71.3 167.05q4.75-1.85 6.75.5 1 1.15 1.1 2.9.1 1.8-.75 3.2l-.8 1.45q-3.3 6.1-5.3 8.3-4.7 5.1-12.7 6.9-5.65 1.25-9.75-.7-3.45-1.65-4.15-4.5-.45-1.75-.25-2.55.2-1.1 1.65-1.5 5.3-1.5 10.85-4.85l8.25-5.7q3.75-2.85 5.1-3.45"/><path fill="#46799e" d="M78.05 167.55q1 1.15 1.1 2.9.1 1.8-.75 3.2l-.8 1.45-2.5 4.55q-1.75 2.9-4 4.95-4.55-7-10.95-9.8l6.05-4.3q3.75-2.85 5.1-3.45 4.75-1.85 6.75.5"/><path fill="#0d131a" d="M185.35 162.45q1-1.05 2.35-1.15 2-.15 4.3 1.7 4.65 3.75 8.15 5.65 7.9 4.15 19.35 6.15 2.6.45 3.8 2.25 1.2 1.75.85 4.35-.5 3.9-4.4 6.45-4.3 2.8-10.9 2.5-8.95-.45-15.95-5.45-4.05-2.8-8.15-8l-.35-1.15q-1.9-2.2-1.55-6.65.3-4.4 2.5-6.65"/><path fill="#5892bf" d="M190.45 164.9q9.8 7.9 27.85 11.6 1.65.35 2.5 1.7.8 1.3.6 2.95-.3 2.65-3.3 4.55-3.65 2.3-9.6 2-8.25-.4-14.8-5.05-3.85-2.7-7.8-7.7l-.55-1.55q-1.2-1.45-.5-4.6.7-3 2.25-4.6.95-1.15 3.35.7"/><path fill="#46799e" d="M202.4 171.75q-8.45 1.7-13.5 6.7l-3-3.5-.55-1.55q-1.2-1.45-.5-4.6.7-3 2.25-4.6.95-1.15 3.35.7 4.7 3.8 11.95 6.85"/><path fill="#0d131a" d="M99.15 187.45q1.75-.8 4.65-.5 3.05.3 4.85 1.65 2 1.45 1.7 3.6-1.5 13 .25 14.95 4.9 5.6.95 11.35-2.65 3.9-13.4 8.5-12.4 5.35-27.65 7.75-4.05.65-8.15-.9-4.05-1.5-6.35-4.35-2.45-3.05-1.75-6.45.75-3.8 5.5-7.1 4.35-3.05 20.15-6.85l15.8-3.55q1.35-.6 1.7-4.4l.05-6.8q-.1-3.7.05-4.95.15-1.25 1.65-1.95"/><path fill="#5892bf" d="M106.45 190.15q1.6.75 1.45 1.75-1.6 13.25.65 16.6 1.55 2.4 1.8 3.85.45 2.7-1.7 5.6-1.95 2.65-13.1 7.05-12.9 5.1-25.25 6.6-8.95 1.1-11.9-4.15-1.3-2.25-.6-4.8.75-2.65 3.4-4.7 4-3 19.65-6.65l15.9-3.55q2.3-1.1 2.95-5.25.35-2.45.2-8.2l.05-4.45q.55-.5 2.55-.5 2.25 0 3.95.8"/><path fill="#46799e" d="M99.9 194.3l.05-4.45q.55-.5 2.55-.5 2.25 0 3.95.8 1.6.75 1.45 1.75-1.6 13.25.65 16.6l1.2 2.05q.6 1.3.65 2.55-5.65-5-11.95-6.95 1.15-1.75 1.4-5.25.2-2.25.05-6.6"/><path fill="#0d131a" d="M164.35 190.15q1.55.6 1.7 1.85.45 3.05 3.9 8.25 3.6 5.35 6.15 6.4l13.7 2.65q14.35 2.95 22 6.8 3.35 1.7 5.05 5.05 1.65 3.4.75 6.7-2.15 8.25-15.65 7.2-9.5-.75-21.75-4.8-13.7-4.45-17-9-1.6-2.2-2.2-7.05l-.3-4.35q-.05-1.45-1.2-3.5l-2.45-3.85-2.4-3.65q-1.1-1.95-1.35-3.5-.3-2.1 1.55-3.65 1.75-1.4 4.8-1.85l4.7.3"/><path fill="#5892bf" d="M161.05 192.2l2.6.35q.6 3.75 4.45 9.35 3.95 5.75 7.05 7.05l13.2 2.25q13.75 2.65 21.55 6.55 1.95.95 3.45 3.3 1.6 2.55 1.55 4.9-.15 6.35-11.4 6.05-12.3-.35-25.2-5.25-10.5-3.95-12.95-6.9-1.95-2.3-2.25-6.4l.05-3.7q-.05-1.9-1.35-4.35l-2.75-4.3q-3-4.4-3.3-6.15-.15-.95 1.35-1.8 1.65-.85 3.95-.95"/><path fill="#46799e" d="M155.75 194.95q-.15-.95 1.35-1.8 1.65-.85 3.95-.95l2.6.35q.4 2.35 2.45 6 1.95 3.6 4.4 6.45-4.3 1.85-7.45 5.75l.1-1q-.05-1.9-1.35-4.35l-2.75-4.3q-3-4.4-3.3-6.15"/><path fill="#0d131a" d="M193.3 135.35q5.2 34-11.7 51.45-15.1 15.5-46.75 17.05-33.9 1.65-52.4-12.05-20.35-15.05-16.75-45.5 3.35-28.75 17.4-47.3 15.7-20.8 41.05-23 26.1-2.25 46.35 16.4 18.95 17.5 22.8 42.95"/><path fill="#5892bf" d="M178.05 185.2q-15.5 15.1-43.9 16.1-34.65 1.25-51.95-13.95-16.9-14.85-13.85-42.2 3-26.9 16.65-44.6 15.1-19.6 39.05-21.65 24.75-2.15 43.45 14.05 18.15 15.75 22.8 41.65 6 32.85-12.25 50.6"/><path fill="#46799e" d="M178.5 121.1q-10.85-3.6-18-3.6-1.35 0-3.55 1.6l-4.85 3.65q-8.05 5.35-19.9 5.8-9.95.35-18.55-3.25l-9.3-5.1q-4.4-2.5-17 3.65-11.45 5.6-17.5 11.6 4.75-23.5 17.95-38.3 14.55-16.4 36.25-18.25 22.2-1.95 39.8 11.15 16.95 12.6 24 34.55-3.95-1.7-9.35-3.5"/><path fill="#0d131a" d="M162.25 156.3q2.6 1.4 3.2 4.05.55 2.55-1 4.85-1.85 2.7-6.35 4.35-9.85 3.65-30.6 2.85-22.45-.85-29.5-7.05-4.45-3.95-2.35-8.4 1.15-2.4 3.95-3.45 2.65-.95 5.95-.45l5.3.95q11.6 2.45 24.15 2.55l21.45-1.2q3.3-.35 5.8.95"/><path fill="#b6aed1" d="M110.4 155.75q11.75 2.1 17.35 2.3l28.9-.9q2.5-.2 4.35 1 1.7 1.15 2.05 2.8.45 2-1.1 3.8-1.55 1.8-4.7 2.95-9.25 3.45-29.4 2.75-21.7-.75-28.25-6.5-3.35-3.05-2.05-5.8.8-1.75 3.05-2.7 2.2-.95 4.55-.6l5.25.9"/><path fill="#0d131a" d="M77 140.65q-2.15-.45-1.8-1.25.3-.75 2.4-.7 9.8.15 18.75-3.8 8.35-3.7 14.7-10.35 1.75-1.85 2.55-1.05.75.8-.65 2.65-4.8 6.35-14.7 11.05-11.6 5.55-21.25 3.45m100.85 2.05q-10.4 2.25-20.9-2.15-10.15-4.3-15.05-12.35-1.2-2-.45-2.75.7-.75 2.35 1.2 6.7 7.9 15.15 11.25 7.65 3 18.3 2.85 2.1-.05 2.4.7.35.8-1.8 1.25m-74.8 18.15q-1.55-.6-1.35-1.3l2.15-.05q7.45 2.65 22.1 3.45 16.15.9 28.45-1.4l3.1.15q-.45.8-2.5 1.3-9.65 2.5-23.85 2.4-17.1-.05-28.1-4.55M172.3 97q-1.65.05-2.35-1.1l-.7-1.9q-1.5-3.2 4.2-11.35 3.4-4.9 8.65-10.55l.15-.15-.05 2.8q7.75-3.9 19.1-2.35 12.45 1.7 22.15 9.45 11.5 9.2 16.15 21.9 4.65 12.7 1.25 25.9-.35 1.45-1.05 1.2-.7-.25-1.25-1.65-6.7-14-24.5-23.2-19.05-9.85-41.75-9"/><path fill="#ef8200" d="M201.55 73.85q11.3 3.1 20.8 10.7 6.45 5.15 10.7 11.5 5.85 8.75 6.7 18.7.45 5.35-.55 11.1Q231 111.8 214 102.7q-18.8-10-40.65-9.2-1.55.15-1.85-.5l-.1-.5q-.2-2.1 3.7-7.75 3.6-5.3 8.65-10.75 6.55-3.2 17.8-.15"/><path fill="#cf7100" d="M200.25 97q-13.05-4.05-26.9-3.5-1.55.15-1.85-.5l-.1-.5q-.2-2.1 3.7-7.75 3.6-5.3 8.65-10.75 6.55-3.2 17.8-.15 11.3 3.1 20.8 10.7 10.9 8.7 15.2 20.25-7.7.6-15.5 2.85-9.9-7-21.8-10.65"/><path fill="#0d131a" d="M246.75 31.05q-2.55-2.7-2.35-3.1.2-.55 3.95 1.35 15.15 7.6 21.9 22.8 7.7 17.45-2.15 34.05-5.4 9.15-15.15 15.65-9.7 6.55-21.7 9.2-27 6-51.3-8.45l-.05-.05-.1-.05q-2.15-1.7-2.25-4.6-.1-5.6 8.2-15.15 4.2-4.85 8.85-8.95l1.5-1.35.5 1.95q.5 2.15 3.3 3.75 2.8 1.55 7.35 2.25 11.4 1.7 24.2-2.3Q246.1 73.5 251.9 63.9q4.15-6.85 2.45-16.85-1.7-9.65-7.6-16"/><path fill="#ef8200" d="M265.7 47.7q4.75 7.45 5.4 15.55 1 10.85-5.05 21.05-5.3 8.9-14.5 15.3-9.25 6.4-20.65 9.05-25.7 5.95-49.6-8.15-1.15-1-1.3-2.45v-.3q-.1-3.9 5.5-10.95 3.95-5 9.45-10.1 2.75 4.7 11.95 6.05 11.95 1.85 25.45-2.45Q247.8 75.45 254 65.2q4-6.6 3.3-14.65-.75-8.35-6.55-17.9 9.75 6.85 14.95 15.05"/><path fill="#cf7100" d="M180 98.05v-.3q-.1-3.9 5.5-10.95 3.95-5 9.45-10.1 2.75 4.7 11.95 6.05 8.15 1.3 17.95-.6-5.45 12.2-6.9 28.1-19.3.5-36.65-9.75-1.15-1-1.3-2.45"/><path fill="#0d131a" d="M85.65 78.25l1.1.05q32.6 7.35 32.6 15.3 0 5.05-13.55 8.2-25 5.9-34.85 28.7-3.75 8.6-4.75 18.5-.85 8.2.25 14.8.4 1.85.2 2.1-.3.45-1.9-1.05-14.4-12.05-18.35-25.95-3-10.65.2-22.2 4.1-14.75 16.4-26.15 11.35-10.6 22.65-12.3"/><path fill="#ef8200" d="M115 95.9q-2.9 1.9-9.75 3.5-24.15 5.65-34.95 27.5-8.05 16.3-6.55 33.8l.1.65q-14.7-13.4-16.1-29.6-.65-7.2 1.45-14.75 3.85-13.9 15.4-25.05 10.85-10.45 21.2-12.1Q97 82.45 106 86.1q10.65 4.3 10.9 7.35v.15q0 1.1-1.9 2.3"/><path fill="#cf7100" d="M116.9 93.45v.15q0 1.1-1.9 2.3-2.9 1.9-9.75 3.5-11.2 2.65-19.7 8.95-4.7-4.7-11.05-8.2Q68.4 96.8 61.7 95q5.55-6.15 12.05-10.2 6.4-4.05 12.05-4.95Q97 82.45 106 86.1q10.65 4.3 10.9 7.35"/><path fill="#0d131a" d="M165.05 87.9q4.9-4.45 11.45-9l.2-.15.75 2q10.8-1.95 20.9 3.25 10.55 5.5 17.5 17.55 8.4 14.55 7.5 32.55-.9 18.25-10.95 30.1-2 2.1-1.95-.8.25-6.75-1.95-15.45-2.55-10.3-7.65-19.05-13.5-23.25-38.85-26.7l-3.2-.7q-1.2-.6-1.5-1.8-.9-3.9 7.75-11.8"/><path fill="#ef8200" d="M197.15 85.45q9.8 5.9 16.5 17.5 6.6 11.55 7.75 24.55 1.55 18.25-8.75 32.35l-.15-2.15q-1.55-18.5-11.65-33.6-13.85-20.75-39-24.2l-1.35-.1q-.65-.1-.8-.65l-.05-.25q-.2-2.35 5.95-8.15 5.2-4.85 12.05-9.65 9.7-1.6 19.5 4.35"/><path fill="#cf7100" d="M177.65 81.1q8.3-1.4 16.8 2.8 8.4 4.2 15.05 12.85-5.75.95-12.6 4.4-3.8 1.95-12 7.1-10.1-6.6-23.05-8.35l-1.35-.1q-.65-.1-.8-.65l-.05-.25q-.2-2.35 5.95-8.15 5.2-4.85 12.05-9.65"/><path fill="#0d131a" d="M38.2 143.45q-.85 7.8-4.45 11.8-3.5 3.9-9.4 3.95-8.4.1-14.1-9.1Q3.7 139.6 3 120l1.5.75q.9 9.65 5.9 17.5 4.85 7.6 11 9.55 9.1 2.95 15.1-5.85 1.1-1.5 1.45-1.05.3.35.25 2.55"/><path fill="#cf7100" d="M13.65 144.95q3.7 3.8 7.7 5.1 7.5 2.4 14.55-4-.85 5.05-3.95 8.1-3.05 3-7.2 3.05-5.75.05-10.25-4.7-5.35-5.7-7.05-16.6 2.65 5.4 6.2 9.05"/><path fill="#0d131a" d="M83.75 88.4l1.15 3.2-3.65-.3q-11.4-6.6-28.65-3.65-16.9 2.9-28.8 12.9-10.45 8.8-13.35 22.15-2.85 13.45 2.65 28.4l2 2.8-.55.9q-3.95-2.35-7.4-9-3.45-6.6-5.35-15.5-4.45-20.75 1.4-38.25Q8.35 76.8 19.5 67.9q15.9-12.75 41.45-9.85 6.9 1.25 15 14.7 5.15 8.5 7.8 15.65"/><path fill="#ef8200" d="M21.2 69.3q15.05-12.25 39.4-9.45 4.75.85 11.05 11.35 4.6 7.65 8.6 17.75-12.55-5.7-29.4-2.9-16.95 2.8-28.6 12.6-8.15 6.85-11.85 16-3.7 9.15-2.75 19.9.45 5.65 2.25 11.55-2.9-3.6-4.85-9.7-1.95-6.1-2.6-13.6-1.4-16 3.4-30.4 4.9-14.6 15.35-23.1"/><path fill="#cf7100" d="M80.25 88.95q-9.85-4.5-23.25-3.6.1-6.85-2.25-13.7-2.35-6.8-6.75-12.2l12.6.4q4.75.85 11.05 11.35 4.6 7.65 8.6 17.75"/><path fill="#0d131a" d="M91.1 21.05q16.15-1.4 28.95 10.1 12.6 11.3 14.05 27.85 1.35 16-9.2 26.85Q114.7 96.3 97.95 97.7q-16.55 1.45-29-8.5-12.6-10.05-14-26.3-1.4-16.25 9.2-28.4 10.5-12 26.95-13.45"/><path fill="#b76870" d="M117.15 31.5q11.55 9.7 12.8 24.65 1.3 14.95-8.4 26.45-9.65 11.5-24.6 12.8-14.9 1.3-26.45-8.4Q59 77.35 57.7 62.4q-1.25-14.95 8.4-26.45 9.7-11.5 24.6-12.8 14.95-1.3 26.45 8.35"/><path fill="#904f57" d="M114.4 89.1q-7.85 5.45-17.45 6.3-8.35.7-16.15-2.3-7.55-2.95-13.15-8.8 14.55 6.05 30.85 3.8 16.7-2.4 27.75-12.6-4.2 8.3-11.85 13.6"/><path fill="#0d131a" d="M169.25 23.7q15.75-1.35 27.85 8.75 12.1 10.1 13.5 25.8 1.35 15.7-8.85 27.55-10.15 11.75-25.95 13.1-15.8 1.4-27.85-8.45-12.1-9.95-13.45-25.6-1.4-15.75 8.8-27.75 10.2-12.05 25.95-13.4"/><path fill="#b76870" d="M195.05 34.2q11.3 9.5 12.55 24.1 1.3 14.65-8.2 25.95-9.5 11.25-24.15 12.5-14.65 1.3-25.9-8.2-11.25-9.5-12.55-24.15-1.25-14.65 8.2-25.9 9.5-11.25 24.15-12.55 14.65-1.25 25.9 8.25"/><path fill="#904f57" d="M197.75 86q-9.25 9.65-22.5 10.75-9.6.85-18.25-3.25-8.35-4-13.8-11.6 15.3 3.35 30.2-1.55 14.1-4.7 26.75-16.45 1.15-1.15 3.25-1.25 2-.15 4.25.7-.7 13.1-9.9 22.65"/><path fill="#0d131a" d="M123.75 27.95q4.7-1.6 9.7-1.5 4.95.15 9.3 2 4.4 1.85 7.45 5.05 4.85 5.15 4.7 11.65-.2 7.5-6.8 12.65-6.55 5.15-15.6 4.9-4.95-.15-9.35-2-4.35-1.85-7.4-5.05-5.55-5.8-5.35-11.65.15-6.5 5.3-11.4 3.15-3 8.05-4.65"/><path fill="#ef8200" d="M151.9 44.25q-.15 6.45-6 10.9-5.8 4.45-13.85 4.2-4.45-.1-8.4-1.75-3.9-1.65-6.65-4.5-4.15-4.45-4-9.9.15-5.55 4.55-9.7 2.85-2.7 6.85-4.15 4.05-1.4 8.5-1.3 4.45.15 8.35 1.8 3.95 1.65 6.65 4.5 4.15 4.4 4 9.9"/><path fill="#cf7100" d="M147.9 34.35q4.15 4.4 4 9.9-.15 6.45-6 10.9-5.8 4.45-13.85 4.2-5.5-.15-10.05-2.55 11.25.55 18.75-5.65 8.4-6.95 5.4-18.4l1.75 1.6"/><path fill="#0d131a" d="M126.75 37.85q16.7-1.4 29.4 9.45 12.65 10.8 14.1 27.55 1.45 16.7-9.25 29.4-10.75 12.7-27.5 14.1-16.85 1.45-29.95-9.15Q90.3 98.5 88.9 81.85 87.45 65.2 98.75 52.2q11.15-12.9 28-14.35"/><path fill="#b76870" d="M154.1 48.8q12.1 10.2 13.45 25.9 1.4 15.75-8.8 27.85-10.2 12.1-25.9 13.45-15.75 1.4-27.85-8.8Q92.9 97 91.55 81.3q-1.4-15.75 8.8-27.85 10.2-12.1 25.9-13.45 15.75-1.4 27.85 8.8"/><path fill="#904f57" d="M165 63.85q2.1 5.3 2.55 10.85 1.4 15.75-8.8 27.85-10.2 12.1-25.9 13.45-8.4.75-16.25-2.1-7.55-2.75-13.45-8.35 18.7 3.7 32.5-4.7 13.1-8 20.45-25.9 3.4-8.35 6-10.5 1-.85 2.9-.6"/><path fill="#f5e7e6" d="M139.65 56.85q.2-2.2 1.75-3.55 1.8-1.65 5-1.55 2.75.05 4.8 2.9 1.7 2.35 2.45 5.7.85 3.85-.55 5.55-1.2 1.55-3.6 1.55-2.3 0-4.7-1.35-5.75-3.3-5.15-9.25M99.9 38.25q.3 1.5-1.4 3.65-1.5 1.85-3.3 2.8-2.2 1.1-3.95.3-2-.95-2.65-2.55-.5-1.35.05-2.75 1.5-4.05 6.05-4.45 4.45-.45 5.2 3M112 75.3q-.4-.65-.45-1.75-.05-1.3.4-2.25.7-1.3 2.15-1.45 2.15-.2 3.4 1.65.6.95.8 1.9 1.5 4.3-1.15 5.15-2.6.9-5.15-3.25M72.2 48.85q.5.5.75 1.95.5 3.95-1.7 5.1-2.2 1.2-4.35-2.25-.4-.65-.45-1.75-.05-1.3.4-2.25.7-1.3 2.15-1.45 2.3-.25 3.2.65m63.6 37.95q-1-.65-1-1.7 0-1.05 1.1-1.8.5-.4 1-.25l1.05.75.55.85q.7 1.45.45 1.9l-1.35.55q-1.05.2-1.8-.3m27.65-39q-.9-.6-1-1.7 0-1 1.1-1.8.55-.4 1-.25 1 .3 1.65 1.6.7 1.6.4 1.9-.45.4-1.35.55-1.05.2-1.8-.3M85.4 70.6q-.9-.6-1-1.7 0-1.05 1.1-1.8.55-.4 1-.25.95.25 1.65 1.6.65 1.45.4 1.9l-1.35.55q-1.05.2-1.8-.3m33.85-18.2q-.7-.5-.7-1.2t.75-1.25l.7-.2q.65.15 1.15 1.15.5 1.1.3 1.3l-.95.4-1.25-.2m65.05 11.8q-.65-.4-.65-1.05t.7-1.2l.65-.15.65.5.35.55q.5 1 .3 1.2l-.85.35-1.15-.2m-67.1-42.1q-.45-.4-.55-.95 0-.55.6-.95.3-.2.55-.15.45.15.9.85.4.85.2 1.05l-.7.3-1-.15"/><path fill="#0d131a" d="M145.65 170.7q.15-.75-1.15-1.75l-2.4-1.45q-2.9-1.75-2.75-2.7.2-1.35 3.15-1.7l6.05-.2 6.25-.65 1.45-.7q.65-.4 1.1-.25 1.35.5 1.3 2.85-.05 2.15-.8 2.85-.25.8.15 3.25l.2 1.75q.1 1.35-.25 2.1l-.85 1.05q-.65.4-.95 1.3-.15.45.15 2.75.4 2.55.25 3.85-.3 2.15-2 2.65-2.45.7-3.3-4.7l-.65-2.6q-.4.85-1 1.25t-1.15.25q-2.1-.6-2.8-3.2-.65-2.4 0-6"/><path fill="#fff" d="M148.55 163.7q3.2-.05 6.5-1.2l.8-.3 1.05-.2.45.85.15 1.4q-.05.75-.85 2.4-.25.65-.15 1.95l.5 3.5v1.5l-.45.65-.8.6q-.55.5-.8 1.2-.2.55-.1 1.65l.5 3.6q.25 2.55-1.1 2.95-.7-.2-1.15-1.65l-.55-2.3-.95-2.6q-.4-.8-1-.85-.65 0-1.05.95-.25.65-.75.65-.7-.25-1.4-1.25-.85-1.3-1-3-.05-.5.45-3.25l.05-.65q-.1-1.15-1.35-2.25l-2.35-1.6-2.3-1.5q.2-.7 2.9-1l4.75-.25"/><path fill="#f5e7e6" d="M190.1 36.4q1.5 0 2.65 3.1 1.1 2.9.7 4.9-.3 1.5-2 1.8l-2.65-.2q-1.15-.6-1.7-1.9-1.05-2.4.3-5.15 1.2-2.55 2.7-2.55"/><path fill="#0d131a" d="M103.05 160.85q-1.55-.6-1.35-1.3l2.15-.05q7.45 2.65 22.1 3.45 16.15.9 28.45-1.4l3.1.15q-.45.8-2.5 1.3-9.65 2.5-23.85 2.4-17.1-.05-28.1-4.55"/></svg>