<svg xmlns="http://www.w3.org/2000/svg" width="350" height="305" viewBox="-1.8 -0.3 349.7 304.55"><path fill="#0d131a" d="M265.6 187.9q-1.4 15.95-12.55 23.35-6.8 4.55-21.7 7.4L220.55 204l7.3-1.15q3.95-.75 6.5-2.35 6.65-4.2 10.3-18.45 1.45-5.65 5.15-7.5 3.3-1.65 7.3 0 3.8 1.55 6.25 5.2 2.65 3.9 2.25 8.15"/><path fill="#5892bf" d="M262.5 189.35q-2.35 16.5-16.95 23-4.9 2.2-12.1 3.6l-10.15 1.8v-11.1q9.9-2.1 14.55-5.8 5.85-4.7 8.7-15.2 1.65-6 4.65-7.95l5.6-.15q2.7 1.4 4.4 4.8 1.8 3.5 1.3 7"/><path fill="#0d131a" d="M64 192.45q.8-4.6 4-7.5 3.3-3.1 7.5-2.7 4.8.5 9.15 5.45 13.05 14.85 18.9 12.75 1.65-.55 4.55-2.35 2.85-1.15 6.55.85l-1.75 15.65q-9.7 6.95-25.6 2.45-15.7-4.45-21.75-15.4-2.4-4.3-1.55-9.2"/><path fill="#5892bf" d="M67.2 194.3q.05-3.95 2.25-6.55 2.25-2.75 5.55-2.5 3.75.3 7.65 4.5 12.2 13.2 17.6 13.45l3.7-.85q2.15-.6 4.25.3l-.1 11.3q-7.85 4.7-20.5.5-12.25-4.05-18-12.35-2.45-3.55-2.4-7.8"/><path fill="#0d131a" d="M251.75 231.25q11.7-4.4 18.6-1.65 6.65 2.65 3.8 9.6-1.65 3.95-17.25 13.1-18.2 10.7-38.7 17.35-4.4 1.45-6.9-1.35-3.2-3.65-6-16.25-1-4.4-5.85-9.15-2.65-2.65-9.2-7.55-5.6-4.15-7-6-2.15-2.85.9-4.7 10.9-6.65 23.35 6.6 4.65 4.9 8.05 11.15 3.15 5.7 3.45 8.85.15 1.65 3.35-.35l8-5.85q14.35-11.15 21.4-13.8"/><path fill="#5892bf" d="M253.9 233.35q14.4-4.7 17.55-.1 1.15 1.75.3 4.25-.85 2.35-2.8 3.9-8 6.4-28.1 16.25-20.35 9.95-26.05 10.05-2.15.05-3.65-4.25l-4.65-16.3q-1.05-3.7-3.15-7.7l-2.85-5.35q-1.15-2.4-.7-3.55.55-1.4 3.55-2.15 2.7-.7 8.25 11.75l6.05 14.45q.95 1.6 13.75-7.7 15.45-11.25 22.5-13.55"/><path fill="#46799e" d="M206.5 247.15q-1.05-3.7-3.15-7.7l-2.85-5.35q-1.15-2.4-.7-3.55.55-1.4 3.55-2.15 2.45-.65 7.25 9.65 2.6 5.55 6.35 14.95l.7 1.6q-1.55-1.2-4-.5-2.45.65-4.4 2.85l-2.75-9.8"/><path fill="#0d131a" d="M145.75 240q8.7 17.45 13.75 21.45 9.55 7.55 7.85 13.75-1.05 3.65-5.65 6.25-20.75 11.9-38.15 16.9-20.65 5.9-23.8-2.5-2.7-7.15 6.75-13.4 11.4-7.55 37.7-11.15 3.1-.7 3.45-1.8.35-1.05-1.65-3.75-7.1-9.4-9.2-14.75-3.95-9.85.2-18.85 1.5-3.2 3.8-.65 1.65 1.8 4.95 8.5"/><path fill="#5892bf" d="M142.8 241.8q7.45 13.45 11.2 17.6l6.9 6.8q4.15 3.7 3.95 7.1-.15 3.6-5.05 6.35-16.4 9.25-33.6 14.85-21.3 6.9-24.15.25-2.9-6.75 11.95-13.1 11.6-4.95 32.4-9.1 4.4-1.1 4.45-3.1.05-1.1-2-4.1l-3.3-4.45q-2.1-2.9-3.4-5.4-3.85-7.35-4.1-17.8-.05-2.95 1.25-1.55.9 1 3.5 5.65"/><path fill="#46799e" d="M142.8 241.8q7.45 13.45 11.2 17.6l3.7 3.8q-1.95-1.3-5.25-1.95-4.35-.9-5.7 1.25-3.95-5.3-5.6-9.15-2.85-6.6-3.1-15.65-.05-2.95 1.25-1.55.9 1 3.5 5.65"/><path fill="#0d131a" d="M200.9 147.75q18.8 7.25 23 20.65 6.55 20.85 9.2 32.65 4.4 19.6 2.15 28.25-4.05 15.65-19.6 22-13.8 5.6-45.85 6.95-26.85 1.15-43.5-3.9-16.1-4.85-20.5-14.75-4.9-11.1-4.2-22.2.5-7.7 4.45-19.3 4.95-14.6 5.95-19.2 2.45-11.4.35-21.95-1.35-6.85 14.15-11.5 15-4.5 35.7-4.2 22.55.35 38.7 6.5"/><path fill="#5892bf" d="M227.2 189.05q3.05 11.4 4.25 17.95 3.6 19.55-2.25 29.8-4.75 8.25-18.25 12.95-15.45 5.4-41.4 5.75-30.4.4-43.7-3.9-13.25-4.35-18.05-16.1-3.7-9.1-2.8-19.15.6-6.85 4.1-18 4.15-13.25 5.1-18 2.05-10.4.2-19.3-1.35-6.3 14.15-10.95 14.95-4.45 35.35-4.45 22.2-.05 37.6 5.5 18 6.55 20.9 19.15l4.8 18.75"/><path fill="#46799e" d="M104.95 223.45q4 10.3 23.2 15.75 17.35 4.9 40.9 4.4 23.25-.45 40.85-5.9 19.1-5.85 22.95-15.2-.25 8.35-3.65 14.3-4.75 8.25-18.25 12.95-15.45 5.4-41.4 5.75-30.4.4-43.7-3.9-13.25-4.35-18.05-16.1-2.45-6-2.85-12.05m121.2-38.7q-25.2 3.7-59.95 2.2-36.35-1.55-51.9-7.8 1.85-9.65.1-18.1-1.35-6.3 14.15-10.95 14.95-4.45 35.35-4.45 22.2-.05 37.6 5.5 18 6.55 20.9 19.15l3.75 14.45"/><path fill="#0d131a" d="M138.5 196.7q-2.05.05-3.55-1.4t-1.5-3.5q-.05-2.05 1.4-3.55 1.45-1.45 3.5-1.5 2.05-.05 3.55 1.4 1.45 1.45 1.5 3.5 0 2.05-1.4 3.55-1.45 1.45-3.5 1.5"/><path fill="#e9545d" d="M138.45 194.75q-1.25 0-2.15-.85-.9-.9-.9-2.15-.05-1.25.85-2.1.85-.9 2.1-.95 1.3 0 2.15.85.9.9.9 2.15.05 1.25-.85 2.15-.85.85-2.1.9"/><path fill="#0d131a" d="M173.5 200.1q.35.35.15 1.5-.5 2.6-1.65 4.7-1.6 2.85-3.8 2.9-2.25.05-4-2.85-1.2-2.1-1.75-4.7-.15-.85.1-1.25.35-.5 1.45-.5l7.7-.1q1.4-.05 1.8.3"/><path fill="#ed8599" d="M164.75 201.75l6.7-.1-.8 2.85q-1.05 2.8-2.45 2.85-1.4 0-2.55-2.8l-.9-2.8"/><path fill="#0d131a" d="M320.3 70.85q4.2 14.9-1.65 25-2.15 3.8-7.6 7.45-6.45 4.35-15.35 6.95-23.25 6.8-54.55-.4-17.65-4.05-33.15-10.4-15.45-6.4-19.95-11.45-17.1 6.95-37.4 8.95-3.55 10.25-4.35 17.1-2.55 20.5-9.8 30.95-6.2 8.8-14 8.4-24.2-1.35-47.6-8.4-22.7-6.85-40.35-17.75-17.9-11.1-26.85-24.1-9.5-13.7-7.3-27.3 2.45-15 19.35-26.15 16.75-11 42.65-15.1 13-16.95 34.95-26 20-8.2 43.9-8.55Q163.95-.3 184 6.4q20.35 6.8 31.65 18.75 28.3-7.15 52.2-1.25 20.7 5.15 35.2 19.1Q316 55.45 320.3 70.85"/><path fill="#e9545d" d="M82 36.7q21.5.35 41.7 7.6 55.35 19.9 50.2 61.85-2.5 20.3-15.45 30.55-15.2 12.05-45.9 11.3-19.95-.45-40.8-7.25-19.75-6.4-36-16.95-16.25-10.6-24.8-22.6-9-12.65-7.15-24 1.85-11.25 12.95-20.75 10.9-9.35 27.85-14.6 17.6-5.5 37.4-5.15"/><path fill="#c94850" d="M3.8 77.2q.25-1.65.65-2.95Q7.8 87.3 24.9 99.85q15.75 11.5 40.15 20.5 23.5 8.7 48.75 12.7 25.95 4.15 46.45 2.15-15.1 13.55-47.7 12.8-19.95-.45-40.8-7.25-19.75-6.4-36-16.95-16.25-10.6-24.8-22.6-9-12.65-7.15-24"/><path fill="#e9545d" d="M201.2 33q-7.15 4.95-9.7 9.45-3.3-.95-9.45-1.75l-9.95-1.2q-13.3-1.65-22.65 0-8.25 1.45-16.5 6.1-14.2-6.85-32.45-9.95-17.8-3-33.85-1.55 9-12.45 28.55-21 20.35-8.9 43.9-9.85 22.95-.9 43.7 5.85 19.9 6.45 30.6 17.5-5.65 1.9-12.2 6.4"/><path fill="#e9545d" d="M310.3 55.85q10.2 14.85 8.35 28.35-19.1-13.45-50.3-17.3-12.8-1.6-27.15-.05-12.7 1.3-21.7 4.4l.25-3q1.85-15.05-25.8-24.8 11.25-15.8 38.9-18.6 25.5-2.6 47.05 6.6 19.4 8.3 30.4 24.4"/><path fill="#0d131a" d="M175.5 36.4q8.35 1 16.7 3.4l4.85 1.55q13.35 4.75 20.45 12t6.1 15.1q-.65 5.25-.2 19.95-.65 13.25-6.9 18.65-5.95 5.05-16.6 3.75l-40.5-4.65q-31-4-36.65-7.5-5.8-3.6-5.45-16.8.15-5 3.15-26.15 1.2-8.45 9.25-13.05 7.9-4.5 19.85-6.2 12.25-1.75 25.95-.05"/><path fill="#f2984f" d="M221.2 68.9q-.15 1.35-.55 12.35-.35 8.9-1.7 14.1-4.15 16.2-21.3 14.1l-37.5-4.3q-28.75-3.75-33.95-6.95-5.65-3.5-5.25-20.2.15-5.5 2.1-21.15 1.25-9.9 16.45-15.15 15.2-5.2 35.55-2.75 20.35 2.5 33.85 11.3Q222.4 59 221.2 68.9"/><path fill="#0d131a" d="M173.95 71.35Q155.7 69.1 146 65.45q-11.65-4.35-12.55-11.15-.95-7.3 12.2-11.25 12.85-3.85 29.55-1.8 16.55 2.05 27.8 8.8 11.4 6.85 9.5 14-1.65 6.2-11.95 7.9-9.3 1.5-26.6-.6"/><path fill="#c18963" d="M174 69.2q-16.95-2.1-26.05-4.9Q137 60.9 136 56.05q-1.1-5.2 11-7.65 11.8-2.35 27.3-.45 15.45 1.9 26.05 7 10.75 5.15 9.2 10.15-1.35 4.35-10.85 5.25-8.6.85-24.7-1.15"/><path fill="#0d131a" d="M344.5 116.9q3.4 16.2-5.3 29.85-10.45 16.45-34.4 19.1-16.65 1.85-34-.75-17.8-2.65-30.85-9.15-34.4-17.2-44.3-29.1-5.7-6.85-6.45-14.45-.75-7.45 3.15-17 6.2-14.9 23.2-23.85 21.5-11.3 53.15-7.4 33.8 4.15 53.35 18.5Q340.2 96 344.5 116.9"/><path fill="#e9545d" d="M340.7 115.9q3.2 15-4.8 28.3-9.7 16.15-31.8 18.45-18.05 1.9-32.9.15 4.95-8.85 2.3-23.7-.8-4.65-4.15-10.45-3.55-6.1-9.25-12.4-6.75-7.45-15.4-13.9-9.65-7.15-20.75-12.5-8.95-4.3-19.15-7.45 7.7-8.15 20.25-12.4 18.2-6.2 43.3-3.1 31.2 3.85 50.3 17.3 9 6.4 14.6 14.5 5.5 8 7.45 17.2"/><path fill="#c94850" d="M341.25 128.2q-1.45 12.9-9.75 21.9-9.95 10.7-27.4 12.55-18.05 1.9-32.9.15 3.95-7.05 3.1-17.75 25.55 3.9 43.9-1 17.65-4.65 23.05-15.85"/><path fill="#0d131a" d="M277.9 141.1q5.75 32.5-33.4 40.75-26.05 5.45-79.6.2-55.95-5.5-85.05-22-35.7-20.2-16.25-51 12.2-19.3 39.05-28.3 29.95-10.05 75.2-6 42.65 3.85 72.55 27.95 11.8 9.5 19.35 20.55 6.75 9.85 8.15 17.85"/><path fill="#e9545d" d="M177.55 77.15q13.95 1.3 27.25 5.25 28.4 8.55 48.9 27.45 8.45 7.75 13.8 15.85 5 7.55 6 13.4 2.65 14.85-2.3 23.7-3.75 6.8-12.4 10.9-6.15 2.9-18 5.6-22.4 5.1-69.45-.1-44.7-4.95-73.35-14.45-23.05-7.65-32.35-21.5-11-16.45 3.3-35.65 12.8-17.15 38.3-25.2 28.7-9 70.3-5.25"/><path fill="#f9dbe1" d="M119 123.85q0 4.6-6.25 6.85-6.3 2.25-14.1.4-8.55-2.05-12.1-4.3-4.15-2.65-4.15-7 0-4.9 5.5-8.35 5.95-3.7 14.15-2.75 8.7 1.05 13.2 5.85 3.75 4 3.75 9.3m-85.3-49.7q0 2.4-3.5 5.1-3.6 2.8-6.3 2.05-6.15-1.7-7.6-2.6-2.9-1.85-2.25-5.9.55-3.05 4.5-5.6 4-2.6 7.05-1.85 2.65.7 5.45 3.9 2.65 3 2.65 4.9m161.65 11.9q-.5 2.35-4.95 2.9l-8.3-.55-7.55-1.7q-3.6-1.1-3.6-3.05 0-2.2 2.95-3.15l7.25-.3q5.8.7 9.65 2.05 4.95 1.65 4.55 3.8m-8.4-72.2q-.45 2.4-5.5 3.3-4.7.85-8.95-.15-4.75-1.15-7.95-2.7-4-1.95-4-4.05 0-2.2 2.95-3.15l7.25-.3q5.45.6 10.7 2.65 5.95 2.25 5.5 4.4m-87.7 27.6q0 1.65-2.95 2.7-2.6.9-5.7.8l-5.35-.05q-2.6-.25-2.9-1.55-.35-1.5 1.55-2.55 1.75-1 4.85-1.25 4-.35 6.85 0 3.6.4 3.65 1.9m121.6 92.3q1 3.15-2.85 6.05-3.9 2.9-9.65 3.25l-9.25-.35q-3.45-.95-4.4-3.95-1.05-3.35 2.05-6.9 3.3-3.85 9.15-4.9 6.2-1.15 10.35 1.2 3.4 1.95 4.6 5.6m28.9-97.55q1 3.15-2.85 6.05-3.9 2.9-9.65 3.25l-9.25-.4q-3.45-.9-4.35-3.9-1.05-3.4 2-6.95 3.3-3.85 9.2-4.9 6.2-1.15 10.3 1.2 3.5 2 4.6 5.65m-13.95 66.1q4.55.4 7.55 2.35 3 1.95 3.8 4.5.65 2.15-.25 4.1-.85 1.7-3.55 1.4-2.7-.3-5.2-2.4l-5.6-4.55q-2.9-2.75-2.2-4.15.8-1.65 5.45-1.25m69.75 25.15q0 3.55-4.6 5.15-4.1 1.4-10.3.75-6.05-.65-8.65-3.25-2.2-2.2-2.2-6.25 0-4.85.95-6.45 1.7-2.9 7.2-2.15 7.1 1 12.5 5 5.1 3.7 5.1 7.2M67.5 80.75q2.25 2.75-.35 6.8-2.3 3.7-7.55 7.1-5.1 3.3-8.75 2.95-3.05-.35-5.65-3.5-3.05-3.75-3.3-5.65-.5-3.25 4.25-6.15 6.15-3.7 12.85-4 6.3-.3 8.5 2.45m247.8 8.5q.25 3.3-3 3.25-1.7-.05-7.55-1.7-3.85-1.1-5.65-2.25-3.15-2-3.05-5.25.1-3 3.5-3.95 3.1-.9 5.9.35 4.9 2.1 7.1 4.1 2.5 2.3 2.75 5.45M99.55 57.7q0 1.25-1.75 2.8-1.9 1.7-3.9 1.7-2.05 0-3.8-1.45-1.6-1.35-1.6-2.6 0-1.15 1.55-1.95t3.7-.8l4 .6q1.8.65 1.8 1.7M280.75 92q2.35 0 4 .55 1.85.65 1.85 1.7 0 1.25-1.75 2.85-1.9 1.7-3.9 1.7-2.05 0-3.8-1.5-1.65-1.35-1.65-2.6 0-1.1 1.55-1.9 1.5-.8 3.7-.8m-9.55-43.8q0 1.25-1.75 2.8-1.9 1.7-3.9 1.7-2.05 0-3.8-1.45-1.6-1.35-1.6-2.6 0-1.1 1.55-1.9 1.5-.8 3.7-.8 2.35 0 4 .55 1.8.65 1.8 1.7M138.05 82.75q0 1.15-1.55 1.9-1.5.8-3.7.8h-5.15q-3-.15-3-1.1 0-1.15 3-2.7 3-1.6 5.15-1.6 2.2 0 3.7.8 1.55.8 1.55 1.9M297.15 48q-2.25 1.95-6.7.85-3.8-1-5.7-2.9l-4.2-4.35q-2.4-3.35-1.2-6.3 1.05-2.5 7.4.4 5.45 2.5 7.75 4.8 1.55 1.55 2.5 4.15.95 2.6.15 3.35M94.8 23.55q0 1.05-2.7 1.95-2.5.8-4.9.8H82q-3-.2-3-1.15 0-1.2 3.3-3.7 3.45-2.6 5.5-2.6t4.6 1.8q2.4 1.75 2.4 2.9m66.1 93.1q-.25 2.35-3.6 3.4l-5.55.65q-6.25 0-6.8-4.05-.6-4.5 2.8-6.75 2.7-1.85 5.8-1.4 3.5.5 5.7 3.8 1.75 2.6 1.65 4.35M156.15 29q0 1.55-1.65 2.6-1.6 1.1-3.9 1.1t-3.9-1.1q-1.65-1.05-1.65-2.6t1.65-2.65q1.6-1.1 3.9-1.1t3.9 1.1q1.65 1.1 1.65 2.65m32.05-2.25q0 1.6-2.05 3.3-2.15 1.75-4.4 1.75-2.25 0-5-2-2.75-1.95-2.75-3.5t1.6-2.65q1.6-1.1 3.9-1.1 2.5 0 5.5 1.35 3.2 1.4 3.2 2.85M70.7 48.05q0 2.75-1.6 4-1.75 1.35-7.95 3.15-4.75 1.35-11.05 1.2-7.5-.25-9.25-3-2.05-3.2 2.85-6.45 3.5-2.35 6.6-3.05 11.75-2.7 16.8-.75 3.6 1.35 3.6 4.9m61.4-35.55q0 2-3.15 3.45-3.25 1.5-7.7 1.5l-9-.15q-4.55-.4-4.55-2.1 0-2.1 3.2-4.4 3.4-2.45 7.65-2.8 5.75-.5 9.8 1 3.75 1.4 3.75 3.5m138.65 70.25q-1.9 2.55-4.4 2.65-2.05.05-6.45-1.75l-8.55-3.7q-4.1-2.35-4.1-5.35 0-3.05 4.8-3.95l9.7-.55q4.7 0 7.95 4.95 3.25 4.8 1.05 7.7"/><path fill="#46799e" d="M267 242.55q-6.4 5.75-27.3 15.6-19.85 9.35-21.95 8.75-2.35-.7 6.85-6.2l15.1-8.65q9.5-5.75 20.65-9.6 11.05-3.8 6.65.1"/><path fill="#0d131a" d="M195.75 196.2q-2.05.05-3.5-1.4-1.5-1.45-1.5-3.5-.05-2.05 1.4-3.55 1.45-1.45 3.5-1.5 2.05-.05 3.5 1.4 1.5 1.45 1.5 3.5.05 2.05-1.4 3.55-1.45 1.45-3.5 1.5"/><path fill="#e9545d" d="M195.75 194.25q-1.25 0-2.15-.85-.9-.9-.9-2.15-.05-1.25.85-2.1.85-.9 2.1-.95 1.25 0 2.15.85.9.9.9 2.15.05 1.25-.85 2.15-.85.85-2.1.9"/><path fill="#c94850" d="M196.25 168.15q19.2.65 40.75-2.85 27.3-4.45 37.3-13.3-.5 6.15-3.1 10.8-3.75 6.8-12.4 10.9-6.15 2.9-18 5.6-22.4 5.1-69.45-.1-44.7-4.95-73.35-14.45-11.35-3.75-19.9-9.5 22.4 6.55 67.85 10.15l50.3 2.75"/></svg>