<svg xmlns="http://www.w3.org/2000/svg" width="176" height="140" viewBox="-1.8 -1.65 175.5 140.35"><path fill="#fff" d="M83.9 93.7q.45.9.6 3.95.1 2.9.6 3.55l-2.35 2.25q-.85.8-1.55.3-.7-.45-.7-1.4l-.35-4.1-.9-4.2 4.65-.35"/><path fill="#dbdcdc" d="M84.5 98l.05 3q-.65-1.4-2-2.4-1.25-.95-2.4-1.05l-.65-3.45 2.25-.05 2.15-.35q.55 1.7.6 4.3"/><path fill="#fff" d="M61.4 93.95q.7-1.65 2.95-3.9 2.2-2.2 3.4-2.5.4.85 2.2 2.5-3.2 2.1-5.45 7.85l-.65 1.15q-.45.25-1-.5-.5-.7-.95-2.2l-.5-2.4"/><path fill="#dbdcdc" d="M61.4 94.75q.6-1.6 1.35-2.7.8-1.15 2.3-2.55 1.75-1.6 2.85-1.9.6 1.25 2.2 2.5-1.6 1-3.45 3.25l-2.7.1q-1.7.4-2.55 1.3"/><path fill="#ef834a" d="M56.25 47.25L52.1 42.5q.9-1.5 2.15-3.05 2.45-3.05 4.05-3.15 1.5-.05 2.25 1.2l.7 2.15-5 7.6"/><path fill="#ce723f" d="M53.35 44.2q4.7-1.85 7.25-6.25.4.65.65 2l-5 7.6-2.9-3.35"/><path fill="#ef834a" d="M56.2 47l-6.4 2.25-2.2-2.7q-1.65 2.8-2.8 3.35-1.15.6-7.3-.55 5.05-6.45 6.75-9.75.6-1.15 2.4-1.4 1.75-.25 2.35.45L56.2 47"/><path fill="#ce723f" d="M51.45 41.45L56.2 47l-6.4 2.25-2.2-2.7q-1.65 2.8-2.8 3.35-.6.35-3.2.05 2.1-5.25 5.7-6.4l2.45-.7q1.2-.4 1.7-1.4m-2.2 23.8l1.85 2.4q-.75 1.2-1.35 4.1-.55 2.75-.3 3.65-2.55-.55-3.25-4.55L46 67l3.25-1.75m-12.8 9q-1.45 2.2-.95 6.05.1 1.1.95 4.3-2.55-.55-4.15-3.1L31.2 79l5.25-4.75"/><path fill="#ef834a" d="M3.6 86.4l11.5 4.55-1.6 4.5q-1.65 4.75-1.85 6.2l-.5 2.85-1.8.05Q7.6 103.3 5.4 97.1 3 90.4 3.6 86.4"/><path fill="#ce723f" d="M10.05 88.95l5.05 2-1.6 4.5q-1.65 4.75-1.85 6.2l-.4 2.55q-.35 1-1.15.75-2.3-8.4-.05-16"/><path fill="#ef834a" d="M31.1 78.75L19.7 90.4q-3.1 2.35-9.05.6-6.75-1.9-9.1-7.85Q-.9 77 4.55 68.1 9.6 59.8 17.4 55.2q8.05-4.75 20.7-6.15l13.95-.5-2.4 16.95Q41.7 68.4 31.1 78.75"/><path fill="#ce723f" d="M13.8 91.55Q9.5 87.1 10.75 80.8q1.2-6 6.95-11.95 5.8-6 14.35-10.05 9.25-4.3 19.25-5.1l-1.65 11.8Q41.7 68.4 31.1 78.75L19.7 90.4q-1.95 1.45-5.9 1.15"/><path fill="#ef834a" d="M134.6 35.35q6.25 5.7 9.25 12.55 3.1 7 2.25 13.65L124.4 81l-5.45 3.7q-4.45 2.6-9.1 3.9L89.8 87.4q-21.6-3-29.4-11.9-7.8-8.85-6.85-19.5.3-3.35 1.45-6.45l1.05-2.45q.9-2.35 3.85-6 3.7-4.65 8.65-8.5 13.9-10.75 31.4-10.45 20.65.4 34.65 13.2"/><path fill="#ce723f" d="M90.6 25.25q6.85.15-1.65 6.1-8.1 5.6-15.1 7.4-8.2 2.1-10.25 2.3-4 .4-1.45-2.5 4-4.6 12.25-8.8 9.25-4.65 16.2-4.5M126.35 31q5.45 4 9.1 12.7 3.75 8.8.15 10.1-4.4 1.6-14.05-3.35-10.8-5.5-15.65-14.25-5.4-9.7 4.55-9.95 3.85-.1 8.6 1.35 4.6 1.4 7.3 3.4"/><path fill="#ce723f" d="M119.8 42.75q-.9-5.9-4.95-11.4-4.3-5.75-10.7-8.95 19.1 1.7 31.65 14.1 12 11.8 10.3 25.05L124.4 81l-5.45 3.7q-4.45 2.6-9.1 3.9l-16.45-.8q-18.35-2-27.9-8.05 12.75-2.15 23.05-6.9 11.75-5.4 19.2-13.7 6.95-1.25 10.1-6 2.85-4.3 1.95-10.4"/><path fill="#ef834a" d="M93.6 93.55q-12.65.9-22.9-3.1-1.95-3.05-2.75-3.2l-1.9 1q-6.8-3.75-10.3-9.15-3.4-5.15-2.5-9.9.25-6.45 4.55-12.4 8.65-11.95 28.95-9.5 14.3 2.7 23.95 14.2 4.85 5.8 6.85 11 .7 1.35.65 3.95-.05 3.6-1.8 6.65-5.15 9.15-22.8 10.45"/><path fill="#ce723f" d="M81.2 83.05q10.65 1.15 19.45-2.4 10-4.05 14.3-13.2 1.8 2.95 2.6 5.05.7 1.35.65 3.9 0 3.45-1.7 6.5-5.1 8.95-22.9 10.65-12.85 1.2-21.7-2.1-1.8-2.8-2.95-3.5-1.5-.95-3.15.55-6.55-3.95-10.05-9.6-3.3-5.35-2.5-9.7 1.1-.4 2.2-1 2.2-1.2 2.4-2.15-.6 6.3 6.5 11.2 6.75 4.65 16.85 5.8"/><path fill="#0d131a" d="M90.15 89.4q-.5 2.75-4.25 4.15-3.7 1.4-8.1.55-6.2-1.15-9.75-5.9-3.7-5.05 0-9 1.55-1.65 4.05-1.1l6.45 1.65q4.45.8 8.2 3.85 3.85 3.1 3.4 5.8"/><path fill="#d2ecfa" d="M71.1 58.5q0 4.95-3.6 8.5-3.6 3.5-8.7 3.5-5.05 0-8.65-3.5-3.6-3.55-3.6-8.5t3.6-8.45q3.6-3.5 8.65-3.5 5.1 0 8.7 3.5 3.6 3.5 3.6 8.45m48.55 8.35q0 5.2-3.7 8.9-3.7 3.65-8.95 3.65-5.25 0-8.95-3.65-3.7-3.7-3.7-8.9t3.7-8.85q3.7-3.65 8.95-3.65 5.25 0 8.95 3.65 3.7 3.65 3.7 8.85"/><path fill="#d49433" d="M67.05 33.55l11.25-4.6q.4 3.8-5.65 5.65-2.35.7-4 .45-1.8-.25-1.6-1.5m51.05 9.4q-1.85-1.95-2.55-4.15-.7-2.25.25-3.5l12.4 10.35q-5.4 2.2-10.1-2.7"/><path fill="#d60040" d="M87.1 9.55q2.65 4.4-.55 10.3Q82.9 26.5 75.4 30.6 68.95 34.05 61 35q-7.45.9-10.95-1.3-3.8-2.4-3.2-8.5.65-7.4 2.9-12.95 2.75-7.05 7.4-9.35Q61.3.85 68.8 1.5q6.45.6 11.25 2.6 5.05 2.15 7.05 5.45"/><path fill="#b50033" d="M87.1 9.55q2.65 4.4-.55 10.3Q82.9 26.5 75.4 30.6 68.95 34.05 61 35l-8.75-.35q4.35-1.2 9.75-4.85 5.45-3.75 9.55-8.4 10.2-11.5 4.6-18.55l3.9 1.25q5.05 2.15 7.05 5.45"/><path fill="#d60040" d="M146.95 11.35q4 2.6 5.65 10.8 1.5 7.3.3 13-1.45 6.9-3.85 9.85-2.6 3.15-7.75 3.75-8 .9-17.05-5.05-8.2-5.4-11.1-11.65-2.5-5.4-1.9-11.1.6-5.35 3.35-7.65 3.75-3.15 14.9-4.3 12.05-1.2 17.45 2.35"/><path fill="#b50033" d="M130.45 35.1q12.9-1.5 20.45-18.55 1.75 4.05 2.3 9.6.5 5.2-.3 9-1.45 6.9-3.85 9.85-2.6 3.15-7.75 3.75-8 .9-17.05-5.05-8.2-5.4-11.1-11.65-1.4-3.1-1.8-6.3 3.4 4.95 8.45 7.45 5.2 2.55 10.65 1.9"/><path fill="#f5ac3c" d="M60.25 5.55q.25-.8 5.75-1.8 3.7-.7 5.85.8l2.3 1.9q.55 1.05-1.95 2.3-2.5 1.25-6.4 1.1l-4.35-.75q-.7-.3-1.05-1.65-.35-1.15-.15-1.9m1.8 12.15l2.1.7q1.9.85 2.7 1.7.9.95.15 2.45-.75 1.4-2.3 1.95l-3-.2q-1.4-.6-2.05-1.6-.55-.85.3-2.9.95-2.1 2.1-2.1"/><path fill="#d49433" d="M81.75 15.3q.55 1.15.35 2.4-.15 1-1.3 2.3-1 1.15-1.9 1.55l-1.35.2-1.15-.2q-.55-.1-.45-1.75l.3-2.7q.2-1.1 1.15-1.95 1-.9 2.55-1.05 1.2-.05 1.8 1.2"/><path fill="#f5ac3c" d="M49.05 15.3q3.3-.45 3.95.95.65 1.45.8 3.2.25 2.25-.7 3.05-.75.6-1.8 1.95l-1.2 1.15-2.85-.6q-.55-.2.15-4.85.65-4.7 1.65-4.85m4.7 17.65q-1.6-1.75-1.6-2.7 0-.65 2.4-.85l3.35.45 3.9.65q1.4.05 1.6.6l-.25 1.65q-.25.95-1.95 1.4l-3.8.65q-1.8.25-3.65-1.85"/><path fill="#d49433" d="M61.8 30.5q1.4.05 1.6.6l-.25 1.65q-.25.95-1.95 1.4l-3.8.65q-1.45.2-2.9-1.1 2.9-.65 6.6-3.3l.7.1"/><path fill="#f5ac3c" d="M121.5 14.5q1.65-.75 6.7-1.25l5.95-.2q1.7.3 0 3l-2.35 2.35q-1.95 1.65-3.25 2.05l-3.2.3-2.9-.65q-3.6-1.65-3.45-2.75.15-.9.4-1.3.55-.85 2.1-1.55m1.8 12.3q.6-.25 1.5.4.8.6 1.1 1.25.4.7-1.55 6.3-.65 1.85-2 2-.95.15-2.5-.55-1.15-.5-1.55-1.2-.45-.7-.25-1.8.2-1 2.3-3.55 2.05-2.5 2.95-2.85m10.15.1q1.35-.45 2.5.75 1.2 1.15.85 2.6-.35 1.25-2.45 1.15-2-.1-2.45-.8-.4-.6.05-1.9.45-1.45 1.5-1.8"/><path fill="#d49433" d="M141.7 34.3q2.05.6 4 2.35 2.25 1.95 1.85 3.5-1.05 3.85-4.3 4.55l-3.4.55q-1.75.1-2.85-.95-2.2-2.1-.35-5.45 1.45-2.65 2.1-3.35 1.4-1.65 2.95-1.2"/><path fill="#f5ac3c" d="M150.5 16.4q1.25.7 2.3 5.95 1 5.3.45 8.5-2.4 1.9-4.9-.15-1.2-1-3.1-3.9-.9-1.4-.45-4.6.35-2.9 1.3-4.6 1.5-2.9 4.4-1.2"/><path fill="#d49433" d="M118.05 33.2l.3-.8q3.3 2.25 6 2.5-1.1 2.9-4.5 1.3-1.15-.5-1.55-1.2-.45-.7-.25-1.8m32.45-16.8q1.25.7 2.3 5.95 1 5.3.45 8.5-2.4 1.9-4.9-.15-1.2-1-3.1-3.9l-.2-.45 3.6-5.35q1.15-2.15 1.2-4.9l.65.3"/><path fill="#ef834a" d="M163.55 68.5q-4.05-3.6-5.45-6.45l-11.2-1.95q-.85-1.15-.85-2.75 0-1.75 1.1-2.85l5.25-5.95q2.85-3.15 4.3-2.55 1.55.6 3.75 5.7 3 7 5 10 1.35 2 4.85 4.65 2.55 1.9 2.35 3.4L171.4 83.4l-2.55-2.3q-.45-7.6-1.3-9.15l-4-3.45"/><path fill="#ce723f" d="M152.4 48.55q2.85-3.15 4.3-2.55 1.5.65 3.4 5-1.65 5.45.3 10.6 1.15 3 5 8.5-5.65-4.7-7.3-8.05l-11.2-1.95q-.85-1.15-.85-2.75 0-1.75 1.1-2.85l5.25-5.95m15.55 24.55q1.8 1.9 4.05 3.15l-.6 7.15-2.55-2.3q-.3-5.35-.9-8"/><path fill="#ef834a" d="M162.65 84.8q-.8-3.5-1.75-4.55l-4.45-5.8q-3.75-5.5-4.9-9.6l-2.5 2.15-1.05.9-6.9-2.7 4.95-4.45q4.25-4 4.9-5.35.9-1.8 3-1.55 2.25.25 2.75 3.1 1.25 6.8 5.1 14 1.1 2.05 6.6 7.35 4.45 4.3 4.05 6.15l-.9 7.75q-.6 5.5-1.55 6.45-1.15 1.15-4.1-2.5-2.95-3.6-2.7-5.75.25-2.1-.55-5.6"/><path fill="#ce723f" d="M171.8 89.85q-.75 7.75-1.8 8.8-1.15 1.15-4.1-2.5-2.95-3.6-2.7-5.75.25-2.1-.55-5.6-.8-3.5-1.75-4.55l-4.45-5.8q-3.75-5.5-4.9-9.6l-2.5 2.15-1.05.9-6.9-2.7 4.95-4.45q4.25-4 4.9-5.35.9-1.8 3-1.55 2.25.25 2.75 3.1.65 3.5 1.75 6.6-1.6 7.55 2.5 15.05 3.8 6.9 10.85 11.25"/><path fill="#ef834a" d="M169.85 108.4q-1.05 5.2-3.85 8.65-2.15 2.6-6.85 3.05-3.85.35-7.35-.8-2.85-.9-4.9-3.5-2.05-2.55-2.95-6.3-.8-3.25-7-12.2-4.8-7.05-8.8-11.95-3.4-4.3-4-5.4-1.3-2.4-1.4-6.2-.15-3.95 2.5-6.5 2.35-2.2 6.05-2.75 5.05-.75 9.8.6 3.9 1.1 9.15 4.1 5.5 3.2 10.9 9.85 6.35 7.8 8.15 15.4 1.8 7.55.55 13.95"/><path fill="#ce723f" d="M169.85 108.4q-1.05 5.2-3.85 8.65-2.85 3.45-9.7 3.05l1.85-2.25q8.9-9.5.7-27.8-3.55-7.9-9.5-14.8-6-7.05-12.75-10.95 3.4.25 6.85 1.55 2.9 1.1 6.8 3.35 5.5 3.2 10.9 9.85 6.35 7.8 8.15 15.4 1.8 7.55.55 13.95"/><path fill="#ef834a" d="M163.9 110.2q.7 1.05.45 4.55-.3 4.3-2.05 8.25-1.75 4-5.55 8.4-3.1 3.55-5.45 5.25-1.8 1.3-2.8 1.15-.95-.15 0-1.5.7-1 1.05-9.25l.5-8.95q.4-.95 4.3-4.35 3.7-3.25 5.15-4.1.95-.55 2.4-.4 1.5.2 2 .95"/><path fill="#ce723f" d="M163.9 110.2q.7 1.05.45 4.55-.3 4.3-2.05 8.25-2.05 4.65-7 10 3.7-9.45 4.2-17.3-.2-5.9 0-6.05.95-.55 2.4-.4 1.5.2 2 .95"/><path fill="#fff" d="M67.75 82.5q-1.7.15-1.1 2.6.3 1.25.95 2.45-3.45 1.75-6 6.2-1 1.7-1.65-.15-1.1-2.95.45-6.95 1.45-2.4 4-3.7 2.35-1.2 3.35-.45"/><path fill="#dbdcdc" d="M65.6 88.85q-3.25-.45-6.05 1.7.1-1.95.85-3.9 1.45-2.4 4-3.7 2.35-1.2 3.35-.45-1.7.15-1.1 2.6.3 1.25.95 2.45l-2 1.3"/><path fill="#fff" d="M68.2 74.5l4.9 6.65q-4.75.3-7.95 2-1.75.95-3.95 3.1-1.55 1.55-1.9 1.35-.3-.15-.1-2.3.4-3.8 3.3-6.95 2.55-2.8 5.7-3.85"/><path fill="#dbdcdc" d="M68.2 74.5l4.9 6.65-4.35.65q-1.85-1.2-4.1-1.4-2.25-.2-4.1.7 1.25-2.35 3.45-4.2 2.05-1.7 4.2-2.4"/><path fill="#fff" d="M87.25 86.65q2.7.7 3.25 4.25.25 1.75 0 3.4-.15 1.05-.85 2.5l-1.8 2.9q-1.65 2-2.55 1.75-.8-.2-.75-2.25.15-3.9-1.5-8.7-.45-1.35 1.05-2.8 1.55-1.5 3.15-1.05"/><path fill="#dbdcdc" d="M87.25 86.65q2.7.7 3.25 4.25.25 1.75 0 3.4-.15 1.25-1 2.8-.6-2.25-2.25-3.8-1.75-1.65-3.85-1.75l-.35-1.05q-.45-1.35 1.05-2.8 1.55-1.5 3.15-1.05"/><path fill="#fff" d="M84.25 83.1l4.95-5.6q4.75 4.9 4.35 10.7-.3 4.55-3.15 7.4.8-2.2-1.9-7.1-2.5-4.55-4.25-5.4"/><path fill="#dbdcdc" d="M93.15 90.65q-2.25-7.1-7.85-6.7l-1.05-.85 4.95-5.6q3.15 3.25 4.05 6.95.75 3.1-.1 6.2"/><path fill="#ef834a" d="M89.4 78.2q-.5 2.8-3.9 4.2-3.45 1.45-7.8.65-4.35-.75-7.1-3.25t-2.25-5.25q.5-2.75 3.9-4.2 3.45-1.4 7.8-.65 4.35.75 7.1 3.25t2.25 5.25"/><path fill="#ce723f" d="M88.25 74.15q1.5 2.1 1.15 4.05-.5 2.8-3.9 4.2-3.45 1.45-7.8.65-3.9-.65-6.6-2.85-2.65-2.1-2.8-4.65Q72.65 80 80.25 79.7q7.75-.3 8-5.55M76.45 54.1q0 .7-.6 1.25-.6.5-1.45.5t-1.45-.5q-.6-.55-.6-1.25 0-.75.6-1.25t1.45-.5q.85 0 1.45.5t.6 1.25"/><path fill="#ef834a" d="M74.65 53.3q0 .5-.35.8-.3.35-.8.35t-.85-.35q-.35-.3-.35-.8 0-.45.35-.75.35-.35.85-.35t.8.35q.35.3.35.75"/><path fill="#ce723f" d="M86.2 52.85q0 .7-.6 1.2t-1.45.5q-.85 0-1.45-.5t-.6-1.2q0-.75.6-1.25t1.45-.5q.85 0 1.45.5t.6 1.25"/><path fill="#ef834a" d="M84.45 52.05l-.35.8q-.35.35-.85.35t-.85-.35q-.35-.3-.35-.8 0-.45.35-.75.35-.35.85-.35t.85.35q.35.3.35.75"/><path fill="#ce723f" d="M96.45 55.6q0 .75-.6 1.25t-1.45.5q-.85 0-1.45-.5t-.6-1.25q0-.7.6-1.2t1.45-.5q.85 0 1.45.5t.6 1.2"/><path fill="#ef834a" d="M94.7 54.85l-.35.8-.85.3-.85-.3q-.35-.35-.35-.8 0-.45.35-.75.35-.35.85-.35t.85.35q.35.3.35.75"/><path fill="#ce723f" d="M93.05 62.8q0 .7-.6 1.25-.6.5-1.45.5t-1.45-.5q-.6-.55-.6-1.25t.6-1.25q.6-.5 1.45-.5t1.45.5q.6.55.6 1.25"/><path fill="#ef834a" d="M91.25 62.05l-.35.8-.8.3-.85-.3q-.35-.35-.35-.8 0-.5.35-.8.35-.35.85-.35.5.05.8.35.35.35.35.8"/><path fill="#ce723f" d="M76.85 60.85q0 .7-.6 1.25-.6.5-1.45.5t-1.45-.5q-.6-.55-.6-1.25t.6-1.25q.6-.5 1.45-.5t1.45.5q.6.55.6 1.25"/><path fill="#ef834a" d="M75.1 60.1l-.35.8-.85.3-.85-.3q-.35-.35-.35-.8 0-.5.35-.8.35-.35.85-.35t.85.35q.35.3.35.8"/><path fill="#b6ccd9" d="M50.8 49.4q1.4-1.2 4.85-2.45 3.1.25 5.2 2.6 2.1 2.3 2.1 5.5 0 3.4-2.3 5.8-2.35 2.4-5.65 2.4-3 0-5.2-2-2.25-1.95-2.65-4.95 1.25-4.75 3.65-6.9m52.45 5.35q3.1.25 5.2 2.6t2.1 5.55q0 3.35-2.35 5.75t-5.6 2.4q-3 0-5.2-2-2.25-1.95-2.65-4.9 1.25-4.8 3.65-6.9 1.35-1.15 4.85-2.5"/><path fill="#0d131a" d="M58.25 36.05q2.35.1 3.15 2.4l-.85.85q-.5-2.25-2.25-2.2-1.2.05-3.2 2.4-1.45 1.7-2.35 3.3l-.8-.9q.9-1.75 1.95-3.1 2.2-2.8 4.35-2.75m-8.5 12.05l-.7.7q-.9-1.25-1.35-1.4l-.45.5-.5.85h-1.9q1.35-1.7 2.5-2.45 1.05-.7 1.6-.6.5.1-.4.95.85.6 1.2 1.45"/><path fill="#0d131a" d="M48.65 39l-1.9-.3q-1.6.25-2.05 1.15-1.35 2.7-6.05 8.85l-1.5.25 2.75-4 3.45-5.65q.35-.7 1.15-1.3.85-.65 1.75-.8l1.75.1q1.05.2 1.5.65l6.95 8.45-.75.7-7.05-8.1M45.7 70.35l-.25-3.4.5-.05q.55 0 .65.3-.3 2.35.95 5.3 1.2 2.9 1.35 2.1.8-5.75 1.75-7.2l.85.55q-.65 1.05-1.15 3.75-.45 2.4-.4 3.75.1 1.3-.2 1.45-.3.1-1.25-.85-2.15-2.15-2.8-5.7m-9.8 3.55l1.4-.1q-1.5 2.35-1.3 5.9l.75 4.95q.15.75-.15.8l-1.55-.6q-1.95-1-3.3-3-1.2-1.7-1.2-2.9l1.15-.3q.05 1.7 2.05 3.8 2.1 2.1 1.95 1.35-.65-1.65-.95-3.5-.55-3.65 1.15-6.4M2.95 86.55l1.45.8q-.55 3.8 1.4 9.5 1.85 5.3 3.9 7.15.45.45.6.3.25-.15.5-1.65 1.6-8.65 3.4-11.2l1.5-.25-1.15 2.65q-1.3 3.55-2.35 8.5-.8 3.8-1.15 4.15-.4.45-2-.95-2-1.8-3.7-5.65Q2.8 94 2.95 86.55"/><path fill="#0d131a" d="M50.95 47.9l1.1.05v1.2h-1.1l-14.25.7Q25.2 51.3 17.75 55.7q-7.65 4.55-12.7 12.75-5.25 8.7-2.95 14.5 1.35 3.25 4.25 5.3 2 1.5 4.5 2.15l5.15.55q2.2-.2 3.35-1.05l4.4-4.45q7.55-8.05 11.05-11.2 7.6-6.8 13.95-9.1l1.1.9q-7.15 2.65-14.25 9.3-.6.5-10.25 10.75-3.7 4.05-5.25 5.2-1.4 1.05-4.15 1.1-2.55.05-5.45-.8-7.25-2.1-9.75-8.3-2.55-6.35 2.7-15.45Q8.4 59.15 16.5 54.4q7.6-4.5 19.65-5.9l14.8-.6m14.1-13.5l2.8-.5q-4.35 3.6-7.65 7.85-2.55 3.25-3.25 5.15l-1.5-.05q.65-2 3-5.2 2.8-3.75 6.6-7.25m19.1-11q5.75-1.75 13.05-2 7.65-.25 14.05 1.2l.2 1.6q-5.65-1.3-11.5-1.45-8.8-.15-16.7 2.55l.9-1.9m59.4 25.3l1.35-.35q2.3 5.5 1.4 12.45l-.8.65q.75-6.1-1.95-12.75"/><path fill="#0d131a" d="M82.75 25.75q13.2-2.7 29.5 2.1l.2 1.4q-7.75-2.45-16.45-3l-14.1.5.85-1m55 23.45l.95.1q1.7 3.65 2.2 7.8.45 3.55.05 8.2l-.9-.1q.75-8.9-2.3-16M92.9 38.4q10.15 1.45 18.6 6.6 12.5 7.6 15.45 20.9l-1.2.35q-2.95-13.15-15.25-20.4-7.95-4.65-18.3-6.15-10.6-1.55-20.1.6-9.3 2.1-12.45 6.5l-1.1-.2q2.75-4.9 12.9-7.35 10.25-2.5 21.45-.85"/><path fill="#0d131a" d="M104.25 54.4l-1.5.55q-8.2-6.4-19.85-7.15-9.75-.65-15.65 2.4l-.55-1.1q7.5-4 19.1-2.55 11.95 1.5 18.45 7.85m10.45 31q3-1.1 5.7-2.9l3.65-2.75.75 1.4q-2.05 1.8-5.15 3.55-4.05 2.35-8.25 3.5l3.3-2.8M53.85 69.3q-.7 3.9 1.55 8.35 1.95 3.9 4.35 5.3l-.5 1.35q-2.8-1.95-4.85-5.9-2.6-4.85-1.75-9.3l1.2.2"/><path fill="#0d131a" d="M116.95 73.95l1.15-1.75q.75 1.6.7 4.6-.05 4.15-1.95 7.45-2.8 4.75-10.5 7.65-7.1 2.65-14.3 2.4-.35 0 .3-.7.6-.7.85-.65 7.55.15 14.5-3.4 6.05-3.05 7.85-6.5 1.45-2.75 1.75-5.65.2-2.4-.35-3.45M59.6 93.7q-.5-1.6-.55-3.25-.05-1.9.55-3.25l1.3-.35q-1 2-.55 5.35.25 1.45.65 1.3l1.05-1.4q2.4-4.05 5.35-5l.45.9q-2.85 1.45-5.4 5.4-1.25 1.9-1.7 2-.55.1-1.15-1.7"/><path fill="#0d131a" d="M83.65 93.3l.7.9-6.8.2q-3.05-.6-5.75-2.25-3.1-1.9-4.7-4.5-1.55-2.6-1.05-4.9l1 .2q-.45 1.95 1.05 4.3 1.45 2.3 4.2 4 5.5 3.45 11.35 2.05"/><path fill="#0d131a" d="M59.25 88.7q-.7-.2-.65-3.1.15-4.7 3.35-8.1 2.8-3 6.25-3.55l.35.95q-3.45 1.2-5.8 3.65-2.85 3.05-3 7.2l.1.95.7-.55q1.7-2.35 4.1-3.8 3.25-1.95 7.25-1.75l1.25 1.05q-4.45.25-8.05 2.25-2.45 1.35-3.35 2.6-1.8 2.4-2.5 2.2m26.15-2.55q1.05-.3 2 0l-.3 1q-1.3-.45-2.6.95-1 .9-1 1.9l.8 2.55q.75 3.05.8 5.95 0 1.9.45 2.2.55.35 2-1.3 2.05-2.35 2.55-5.6l1.15.35q-.45 4.15-3.95 6.95-1.7 1.4-2.5.85-.6-.45-.75-2.4-.15-2.65-.85-6l-.65-2.85q-.25-.75.05-1.75.35-1.05 1.1-1.85.75-.7 1.7-.95"/><path fill="#0d131a" d="M89.05 78.1l.75-.75q3.6 3.7 4.25 8.3.4 3.2-.6 6.5-1.05 3.3-2.35 2.95-.95-.3-1.6-2.3-1.05-3.15-3.15-6.2-1.9-2.8-3.15-3.35l1.25-.6q1.3.6 3.3 3.6 2.05 3.05 2.9 5.9.35 1.2.6 1.2.3.05.85-1.55.65-2.05.65-4.4 0-5.45-3.7-9.3"/><path fill="#0d131a" d="M85.1 81.65q3.2-1.2 3.65-3.6l.05-.65q0-2.25-2.55-4.2-2.5-1.95-6.3-2.6-4.1-.65-7.3.55-3.2 1.2-3.65 3.6-.3 1.55.9 3.25 1.15 1.55 3.25 2.65 2.1 1.1 4.65 1.55 4.1.7 7.3-.55m2.8-8.7q2.95 2.65 2.4 5.55-.5 2.9-4.2 4.4-3.7 1.55-8.4.75-2.9-.5-5.25-1.75t-3.65-3q-1.55-2.05-1.15-4.2.55-2.9 4.2-4.4 3.75-1.55 8.4-.75 4.7.8 7.65 3.4M70.55 58.5q0-4.75-3.45-8.1-3.45-3.35-8.3-3.35-4.85 0-8.25 3.35-3.45 3.35-3.45 8.1t3.45 8.1q3.4 3.35 8.25 3.35t8.3-3.35q3.45-3.35 3.45-8.1M57.5 46.1q5.4-.6 9.65 2.65 4.25 3.2 4.8 8.35.55 5.15-2.9 9.2-3.45 4.05-8.9 4.6-5.45.6-9.65-2.65-4.25-3.2-4.8-8.35-.55-5.15 2.9-9.2 3.45-4.05 8.9-4.6"/><path fill="#0d131a" d="M64.75 57.8q0 2.75-1.95 4.65-1.95 1.95-4.7 1.95t-4.7-1.95q-1.95-1.9-1.95-4.65 0-2.75 1.95-4.7 1.95-1.95 4.7-1.95t4.7 1.95q1.95 1.95 1.95 4.7"/><path fill="#0d131a" d="M64.4 57.8q0-2.6-1.85-4.45T58.1 51.5q-2.6 0-4.45 1.85T51.8 57.8q0 2.6 1.85 4.4 1.85 1.85 4.45 1.85t4.45-1.85q1.85-1.8 1.85-4.4m-1.35-4.95q2.05 2.05 2.05 4.95 0 2.9-2.05 4.9-2.05 2.05-4.95 2.05-2.9 0-4.95-2.05-2.05-2-2.05-4.9 0-2.9 2.05-4.95 2.05-2.05 4.95-2.05 2.9 0 4.95 2.05m52.55 5.55q-3.55-3.5-8.6-3.5t-8.6 3.5q-3.55 3.5-3.55 8.45 0 5 3.55 8.5t8.6 3.5q5.05 0 8.6-3.5t3.55-8.5q0-4.95-3.55-8.45m-4.95-4.05q5.4 1.6 8.2 6.4 2.75 4.8 1.25 9.95-1.55 5.2-6.45 7.75t-10.3.95q-5.4-1.6-8.15-6.4-2.8-4.8-1.25-9.95 1.5-5.15 6.4-7.7t10.3-1"/><path fill="#0d131a" d="M113.4 67q0 2.85-2 4.9-2 2-4.85 2-2.85 0-4.85-2-2-2.05-2-4.9 0-2.9 2-4.9 2-2.05 4.85-2.05 2.85 0 4.85 2.05 2 2 2 4.9"/><path fill="#0d131a" d="M101.95 71.65q1.9 1.9 4.6 1.9 2.7 0 4.6-1.9 1.9-1.95 1.9-4.65 0-2.75-1.9-4.65-1.9-1.95-4.6-1.95-2.7 0-4.6 1.95-1.9 1.9-1.9 4.65 0 2.7 1.9 4.65m-.5-9.8q2.15-2.15 5.1-2.15 3 0 5.1 2.15 2.1 2.1 2.1 5.15 0 3-2.1 5.15-2.1 2.1-5.1 2.1-2.95 0-5.1-2.1-2.1-2.15-2.1-5.15 0-3.05 2.1-5.15m-28.55-8.4q0 .45.3.8.3.3.75.3l.8-.3.3-.8-.3-.75q-.35-.35-.8-.35-.45 0-.75.35-.3.3-.3.75m1.05-1.65q.75 0 1.3.5.5.45.5 1.15t-.5 1.2q-.55.45-1.3.5-.7 0-1.25-.5t-.55-1.2q0-.65.55-1.15.55-.5 1.25-.5m10.9.5l-.3-.75q-.3-.35-.75-.35t-.75.35q-.35.3-.35.75t.35.8q.3.3.75.3t.75-.3l.3-.8m-1.05-1.65q.7 0 1.25.5t.55 1.15q0 .65-.55 1.15-.55.5-1.25.5-.75 0-1.25-.5Q82 53 82 52.3t.55-1.15q.5-.5 1.25-.5m9.35 3.7q-.35.3-.35.75t.35.75q.3.3.75.3l.75-.3.3-.75-.3-.75q-.3-.35-.75-.35t-.75.35m-1.05.75q0-.7.55-1.15.5-.5 1.25-.5t1.3.5q.5.45.5 1.15 0 .65-.5 1.1-.55.5-1.3.5t-1.25-.5q-.55-.45-.55-1.1m-1.7 6.2q-.45 0-.75.35-.3.3-.3.75t.3.75q.3.3.75.3l.8-.3.3-.75-.3-.75q-.35-.35-.8-.35m-1.25-.05q.5-.5 1.25-.5t1.3.5q.5.45.5 1.15 0 .65-.5 1.15l-1.3.45q-.75 0-1.25-.45-.55-.5-.55-1.15 0-.7.55-1.15m-15.65-.1q.3.3.75.3l.8-.3.3-.75-.3-.75q-.35-.35-.8-.35-.45 0-.75.35-.35.3-.35.75t.35.75m-1.05-.75q0-.7.55-1.2.5-.5 1.25-.5t1.3.5q.5.5.5 1.2t-.5 1.15q-.55.5-1.3.5t-1.25-.5q-.55-.45-.55-1.15M77.8 29l1-.1q.35 3.25-2.7 5.1-2.15 1.25-4.95 1.6-2.7.3-3.9-.5-.95-.65-.65-1.45l1 .2q-.2.1.2.4l3.1.25q2.3-.4 4.2-1.55 2.95-1.75 2.7-3.95m44.15 16.1l5.6.2.4.95q-2 1.5-5.55.4-3.45-1.05-5.8-3.75-1.4-1.6-1.9-3.9-.5-2.45.4-3.6l.8.6q-.45.65 0 2.3.5 1.7 1.75 3.35 1.8 2.35 4.3 3.45"/><path fill="#0d131a" d="M86.05 19.6q2.55-4.75 1.3-8.35-1.45-4.1-7.5-6.65-4.75-2-11.15-2.55-7.3-.7-11.3 1.3-4.95 2.5-7.7 10.35-1.75 5.1-2.35 11.55-.45 4.8 1.95 7.2 3.2 3.05 11.6 2 6.5-.75 12.45-3.5 8.9-4.1 12.7-11.35m2.65-8.9q1.45 4.2-1.45 9.5-4.15 7.7-13.4 11.85-5.8 2.6-12.8 3.45-10.05 1.25-13.4-2.05-1.7-1.65-1.9-6.3-.2-4.4 1.05-9.7 2.95-12.8 9.45-16.05 6.2-3.05 17.95-.1 12.3 3.1 14.5 9.4m63.4 11.5q-1.65-7.95-5.4-10.45-5.2-3.45-17.1-2.25-11 1.15-14.7 4.2-2.6 2.15-2.95 7.45-.45 5.55 2 10.8 2.85 6.2 10.8 11.45 8.75 5.75 16.5 4.85 4.85-.55 7.25-3.4 2.4-2.9 3.9-9.85 1.2-5.55-.3-12.8m-4-11.85q2.95 1.95 4.7 8.1 1.75 6.05 1.4 12.8-.35 7.4-3.15 12.15-3.15 5.5-8.85 6.05-9.45.9-18.45-4.85-7.9-5.05-10.95-11.7-2.65-5.7-2.3-12.1.35-6.15 3.15-8.5 3.95-3.25 16-4.4 12.9-1.2 18.45 2.45m20.15 61.1q.4.75.65 3.4l.3 4.3-1.1-1.15q-.55-4.95-1-5.8l-1.25-1.05-4.3-4.05q-2.75-3-3.9-5.4l-.3-2.35q1.1 2.35 4.3 5.85 2.65 2.95 4.75 4.65l1.85 1.6"/><path fill="#0d131a" d="M170.55 65.6q1.75 1.3 2.2 1.85.95 1.1.8 2.3l-1.5 12.2-.95-.95 1.05-11.35v-.2q0-.7-.65-1.4l-1.85-1.6q-3.15-2.3-4.6-4.5-2.35-3.55-4.75-9.25l-1.9-4.05q-1-1.8-1.9-2.15-.9-.35-2.55 1.15l-3.15 3.55-2.9 3.35q-.95.95-1.15 2.65-.15 1.65.55 2.6l-1 1q-.95-1.3-.85-3.3.1-2.1 1.35-3.35l3.2-3.6 3.7-4.4q1.95-2 3.25-1.45 1.15.45 2.1 2.15L161 51.1q3 7.1 5.1 10.3 1.25 1.9 4.45 4.2"/><path fill="#0d131a" d="M151.05 66.05l-1.2 1.3-1 1.2-.9-.65-.35-.2 1.3-1.4 1.55-1.6q-.25-1.75.3-1.55.55.2 1.15 1.8l2.8 5.5q2.35 4.05 4 6.25l-2.1-2.3-2.2-2.15-1.85-3.1q-1-1.75-1.5-3.1"/><path fill="#0d131a" d="M168.15 76.95q3.85 3.7 4.55 5.7.7 2-.15 6.85l-.9 6.55q-.4 3.2-1 3.9l-.6-2.4q.75-1.95 1.3-8.25.5-5.2.2-6.2-.5-1.5-4.45-5.3-4.55-4.35-5.75-6.6-3.8-7.05-5.15-14.15-.5-2.45-2.3-2.7l-1.45.25q-.7.35-1.05 1-.75 1.5-4.6 5.55-3.2 3.35-4.35 4.3l-1.65-.65q8-6.85 9.6-10.05.5-.95 1.45-1.4l2-.3q2.95.4 3.5 3.2 1.5 8.1 4.9 14.45.7 1.35 2.55 3.15l3.35 3.1"/><path fill="#0d131a" d="M162.3 78.9q6.6 7.95 8.45 15.7 2.45 10.15-.95 17.85-2.55 5.9-6.65 7.65l.7-2.05q2.8-1.7 4.6-6.7 2.55-7.15.25-16.75-1.8-7.55-8.1-15.25-5.4-6.5-10.7-9.6-5.1-3-8.95-4.1-4.6-1.3-9.55-.55-3.4.5-5.6 2.5-2.55 2.35-2.45 6.15.1 3.4 1.15 5.5.65 1.4 3.2 4.55l.95 1.15q3.9 4.85 8.6 11.7 6.4 9.3 7.3 12.7 1 4.05 1.95 5.45.85 1.25 3.4 2.9-.25.5-.15 1.4-2.7-1.5-4.55-3.55-2.25-2.6-2.7-5.7-.5-3.35-6.4-12.15-4.15-6.2-8.8-12l-.95-1.15q-2.35-2.9-3.25-5.15-.95-2.45-1.05-6.3-.15-4.3 2.9-6.75 2.35-1.9 6.3-2.5 5.15-.75 10.35.8 4.25 1.2 9.65 4.35 5.55 3.25 11.05 9.9"/><path fill="#0d131a" d="M163.75 113.5q0-2.45-.4-2.95-.4-.7-1.25-.9-1.05-.25-2.3.55-1.5.85-5.15 4.05-3.7 3.25-4 4.05-.2.45-.15 5.9-.25 7-1.4 11.1l-.25 1.5q.2.3 1.95-.75 2.3-1.4 5.5-5.1 3.7-4.25 5.45-8.2 2-4.5 2-9.25m1.3-1.5q.7 5.1-1.75 10.6-2.15 4.8-5.55 8.8-3.5 4.2-6.95 5.85-2.9 1.45-3.5 1.35-.35-.05-.1-1.05.55-1.85 1.05-6.1l.5-7 .1-4.75q.05-2 .2-2.35.4-1.1 4.7-4.4l5.45-3.8q5-2.85 5.85 2.85"/><path fill="#fff" d="M56.45 53.35q0 1.4-.9 2.35-.95.95-2.25.95t-2.25-.95q-.95-.95-.95-2.35 0-1.4.95-2.35.95-.95 2.25-.95t2.25.95q.9.95.9 2.35m48.6 8.45q0 1.45-.95 2.45-.95 1-2.3 1-1.4 0-2.35-1-.95-1-.95-2.45 0-1.45.95-2.45.95-1 2.35-1 1.35 0 2.3 1 .95 1 .95 2.45"/><path fill="#0d131a" d="M69.6 89.65l.8.8q-3.6 2.35-5.5 7.85-.6 1.65-1.2 1.65-.55 0-1.45-1.35-.9-1.4-1.45-4.05l1.05-.9.45 2.25q.4 1.35.75 1.9.65 1.15 1.05-.25 1.35-4.95 5.5-7.9m9 4.35l1.35.1q.95 3.25 1.15 8.35 0 1.3.85.8 1.15-.65 2.7-2.85l.6 1.25q-1.25 1.75-2.85 2.6-2.25 1.25-2.4-1.65-.25-5.45-1.4-8.6"/></svg>