<svg xmlns="http://www.w3.org/2000/svg" width="307" height="271" viewBox="-0.85 -1.4 306.7 271.05"><path fill="#d60040" d="M254.65 86.9q.4 19.75 16 41.55 4.3 6.05 11.9 14.9 6.65 7.8 8 10.05 8.45 14.1 4.45 24.75-5.1 13.75-30.8 19.6-26.5 6.05-55.6 7.7-28.3 1.55-60.5-.9-32.75-2.55-60.4-13.85-35.7-14.55-49.05-39.5-8.45-15.8-4-27.85 4.95-13.45 25.95-22.6 18.65-8.1 28.2-14.95 11.2-8.05 21.75-22.1 14.1-18.75 25.85-30.75 17.55-18.05 32.4-24.2 14.45-6 30.75-6.15 21.9-.2 34.9 11.9 13.2 12.3 17.2 31.05 2.4 11.25 3 41.35"/><path fill="#b50033" d="M251.65 45.55q2.4 11.25 3 41.35.4 19.75 16 41.55 4.3 6.05 11.9 14.9 6.65 7.8 8 10.05 8.65 14.5 4.8 24.9-5.05 13.5-31.15 19.45-26.5 6.05-55.6 7.7-28.3 1.55-60.5-.9-32.5-2.5-58.55-13.1Q61.7 180.1 45.5 161.1q39.3-30.15 109-25.1 27.05 1.95 55.1 9.1 24.05 6.1 42.45 14.25 1.3.55-1.6-3.7l-7.5-11q-12.1-18.4-11.65-26.7 3.25-27.45 3.95-47.8 1.4-38.25-7.95-60.95 3.75 2.2 7.15 5.3 13.2 12.3 17.2 31.05"/><path fill="#0d131a" d="M244.35 194.05q-19.55 4.85-53.6 4.65-18.25-.1-44.6-5.05-26.1-4.85-46.35-11.85-22.05-7.6-26.85-14.45-5.6-7.85 13.6-12.8l11.35-3.3q9.6-2.6 19.75-3.75 30.7-3.5 69.75 5.25 40.35 9 59.6 18.3 11.85 5.7 16.4 12.3-2.6 6.55-19.05 10.7"/><path fill="#f5ac3c" d="M70.75 114.6q3-2.05 10.6-3.5 8.5-1.65 17.1-.15 9.6 1.65 6.8 6.15-2.7 4.4-8.35 5.6l-12.55.7-13.6 1.25q-6.05.35-4.35-3.85 1.8-4.45 4.35-6.2m94.95-21.9q3.8 1.6 4.3 3.5.4 1.7-1.75 4.3-1.75 2.05-11.8 2.9l-13.9.6-12.25-.85q-8.4-1.55-10.2-5.15-2.15-4.3 3.5-7.15 5.1-2.6 14.65-3.2 6.75-.45 15.5 1.4 7.15 1.55 11.95 3.65m-50.2-35.3q5.65-.6 9.35 2.15 3.75 2.8.8 5.95-2.2 2.35-10.25 3.25-8.9.95-10.85 2.1L115.5 57.4m61.05 62.75q17.55 2.35 21.9 7.8 2.9 3.55.65 4.55l-7.7.75q-8.95.35-10.65.1-6.15-.75-10.25-5.15-4.85-5.25-1.45-7.25 2.55-1.45 7.5-.8M169.9 27.9q-4.7 1.85-12.25 1.3-5.2-.35-9.4-2.4l-3.2-1.95 6.05-5.7q6.75-5.6 10.35-5.3 5.05.4 9.75 2.85 5.4 2.85 4.35 5.95-1.15 3.55-5.65 5.25m29.85 46.65q-7.5-.95-13-4.25-5.6-3.35-5.4-7.1.2-3.5 6.45-5.35 5.65-1.65 11.15-.95 7.7 1 12.65 3.15 6.75 3 6.75 7.7 0 4.9-5.6 6.5-4.75 1.35-13 .3m34-30.5q5.85.85 8 4.6 1.7 3.1.3 5.5-1.25 2.15-8.1.75-6.7-1.4-8.3-3.8-1.85-2.75-.05-5.1 2.05-2.8 8.15-1.95M212.6 105.2l-2.55 9.15-5-2.05q-3.65-2.05-4.3-5.25-.7-3.5 3.6-3.75 3.8-.25 8.25 1.9"/><path fill="#d49433" d="M279.85 165.5q3.95-.55 8.1 1.95 5.3 3.2 5.25 9.4-.05 5.85-5.35 10.15l-5.3 3.15q1.95-4.35 1.7-6.9-.3-3.45-4.15-6.95-3.9-3.5-3.65-7.1.3-3.3 3.4-3.7"/><path fill="#ef834a" d="M105.25 196.4l-5.3-2.25-4.85 7.45q-4.9 7.6-5.1 8.5-.25.95-.7 7.95l-.45 6.85L96 236.55l-5.3-2.45q-5.8-2.95-8.2-5.2-1.65-1.55-2.25-9.35-.55-7.05.1-12.4l7-11.85q4.9-8.15 8.15-11.1 2.7 1.05 9.45 4 6.15 2.6 9.05 3.05l4.85 8.5q-6.95-.9-13.6-3.35"/><path fill="#ce723f" d="M89.3 197.95q.85-2.85-1.65-3.15 4.7-7.8 7.85-10.6 2.7 1.05 9.45 4 6.15 2.6 9.05 3.05l4.85 8.5q-6.95-.9-13.6-3.35l-5.3-2.25-4.85 7.45q-4.9 7.6-5.1 8.5-.25.95-.7 7.95l-.45 6.85L96 236.55q-3.95-1.65-7.8-3.75-7.1-13.25-1.95-27.25 2.55-5.8 3.05-7.6"/><path fill="#ef834a" d="M62.6 187.9q3-3.25 14.95-11.2 11.4-7.65 12.45-7.65l5.25 1.7 9.15 3.1 6.2 11.8q-3.95.25-11.3-3.1l-6.55-3.45-8.85 6.35Q74.2 192.7 69.8 197l-5.35 34.2q5.35 10.25 5 11.1-9.3-3.25-11.85-6.15-2-2.25-2-7.8 0-8.65 1.85-21.6 2.2-15.6 5.15-18.85"/><path fill="#ce723f" d="M62.6 187.9q3-3.25 14.95-11.2 11.4-7.65 12.45-7.65l5.25 1.7 9.15 3.1 6.2 11.8q-3.95.25-11.3-3.1l-6.55-3.45-8.85 6.35Q74.2 192.7 69.8 197l-5.35 34.2q5.65 10.6 5.4 11.2-.15.4-2.65-.9l-3.9-2.1q-4.5-4.2-3.25-22.55.7-9.4.6-11.6-.15-4.95-2.2-4.8 1.9-10.1 4.15-12.55"/><path fill="#ef834a" d="M70.65 144q.2-4.65 2.3-5.65 3.45-1.6 9.5 6.8 3 4.2 5.3 8.75l3 2.4q3.55 2.75 6.55 4.6l9.35 13.35-3.5-.35q-5.4-1.05-14.65-4.5-11.45-1.5-16.25-15.35-1.8-5.4-1.6-10.05"/><path fill="#ce723f" d="M74.75 159.45q-4.3-7.4-4.1-15.2 6.05 7.2 10.05 10.75 5.3 4.7 9 4.95l2.1-.25q2.45-.1 5.5 1.2l9.35 13.35-3.5-.35q-5.4-1.05-14.65-4.5-8.6-1.1-13.75-9.95"/><path fill="#ef834a" d="M48.3 135.7q7.15-3.4 13.95-5.85 7.4-2.7 13.3 9.9 4.9 10.6 5.9 23.75.55 6.8-5.15 13.85l-8.55 9.5q-2.95 7.05-12.25 20.6-9.2 13.4-10.6 12.95-.8-.25-1.4-3.05-.7-3.2-.45-7 .3-3.85 1.5-7.15-5.75 4.8-14.15 29.75-4.7 14.05-11 34.1-7.1-2.55-12.45-27.3-4.65-21.4-4.3-36.65.3-11.45 12.7-33.85Q27.1 148.1 34.1 143.5q5.95-3.9 14.2-7.8"/><path fill="#ce723f" d="M50.05 180.65q9.2-8.35 12.7-12.15 14.8-15.9 11.7-30.85 5.6 10.25 6.6 23.75.7 8.9-5.2 16.55l-5.25 5.8q-3.4 3.5-4.75 5.45-2.95 7.05-11.65 19.8-8.6 12.6-9.75 11.85-1.3-.9-1.4-6.05-.15-6 2-12l.35-.2 6.4-9.45q-4.6 3.75-6.75 9.65-5.85 4-14.75 30.6-4.7 13.95-10.9 33.65-2.7-1-5.25-5.5 2.2 2.6 3.35-2.95l2.5-16.85q5.15-31.65 19.45-50.35 2.85-3.7 10.6-10.75"/><path fill="#ef834a" d="M167.7 154.6q5 .75 13.3 5.2 9 4.8 16.2 11.1 19.05 16.65 11.2 29.9-8.15 13.75-25.5 17.9-17 4.05-38.9-1.95-13.95-3.8-25.6-18.15-10.1-12.45-11.75-22.9l61.05-21.1"/><path fill="#ce723f" d="M167.7 154.6q5 .75 13.3 5.2 9 4.8 16.2 11.1 19.05 16.65 11.2 29.9-8.05 13.55-26.75 17.65-17.45 3.8-37.65-1.7-6.7-1.8-12.95-6.2l-6.85-9.75q-4.5-6.55-6.7-11-6.35-13.15 2.45-18.7l47.75-16.5"/><path fill="#ef834a" d="M174 166.15q.7 7.05-10.85 12.65-12.9 6.25-31.75 4.7-34.2-2.9-34.85-21.9-.6-16.95 41.1-14.85 17.6.9 26.5 5.6 8.95 4.75 9.85 13.8"/><path fill="#ce723f" d="M163.25 152q10.85 5.2 10.6 14.85-.2 8.15-12.7 13.1-12.55 4.95-29.75 3.55-7.45-.65-15-2.95-7.55-2.3-12.25-5.4 12.5 4.45 28.85 4.05 18.9-.5 25.35-8.45 1.2-1.2-.35-4.3-1.75-3.45-5.9-7-11.15-9.45-30.4-12.1l15.95-.6q16.35.85 25.6 5.25"/><path fill="#fff" d="M120.7 134q3.7 3.6 3.7 8.75t-3.7 8.75q-3.7 3.65-8.9 3.65t-8.9-3.65q-3.65-3.6-3.65-8.75t3.65-8.75q3.7-3.65 8.9-3.65t8.9 3.65m37.9 10.05q0 5.3-3.85 8.9-3.7 3.5-8.9 3.5-5.05 0-8.65-3.85-3.55-3.8-3.55-9.25 0-5.4 3.6-9.1 3.6-3.7 8.65-3.7 5.1 0 8.9 4.05 3.8 4.05 3.8 9.45"/><path fill="#dbdcdc" d="M122.45 136.1q1.95 3.05 1.95 6.65 0 5.15-3.7 8.75-3.7 3.65-8.9 3.65-4.4 0-7.8-2.7 7.8.25 12.35-6.3 4.75-6.75.95-14.55 3.2 1.55 5.15 4.5m30.15-3.4q2.7 1.9 4.35 4.85 1.65 3.1 1.65 6.5 0 5.3-3.85 8.9-3.7 3.5-8.9 3.5-4.3 0-7.65-2.85 7.75.1 12.4-5.7 5.1-6.35 2-15.2"/><path fill="#ef834a" d="M240.35 184.05l-.05.25q-6.15.9-18.85 5.15l-15.3 5.15q-1.35-.15-2.45-1.15-2.25-1.9-1.1-5.85l29.05-11.55q13.25-3.05 13.7-2.95 1.05.2 2.75 4.2 3.2 7.2 5.3 11.1 2.7 4.95 9 10.05 4.95 4 4.8 6.1-.35 4.8-3.9 15.45-2.65 7.9-4.6 12.3-.95 2.1-4.35 4l-3.2 1.45q2.95-4.05 3.1-6.55l1.6-15.15q1-9.25-.1-10.4-4.7-3.95-7.65-7.35-5.45-6.25-7.75-14.25"/><path fill="#ce723f" d="M242.85 189.4l-1.6-3.25-1-1.8q-6.15.9-18.85 5.15l-15.25 5.1q-1.35-.15-2.45-1.15-2.25-1.9-1.1-5.85l29.05-11.55q13.25-3.05 13.7-2.95 1.05.2 2.75 4.2 3.2 7.2 5.3 11.1 2.7 4.95 9 10.05 4.95 4 4.8 6.1-.35 4.8-3.9 15.45-2.65 7.9-4.6 12.3-.95 2.1-4.6 4.35l-3.5 1.8q3.15-4.35 3.6-6.9 1.95 1.3 5.4-13.05 3.45-14.3.85-15.3-1.1-.45-3.85-3.55l-5.25-6.05q-6.85-7.65-8.5-4.2"/><path fill="#ef834a" d="M187.4 192.3q-3.85-2.65-2.8-6.15.95-3 3.05-3.4l36.25-8.5q5.4-.35 6.25.1 1.6.9 3 6.55 1.9 7.7 6.3 15.15 1.8 3.1 6.3 9.25 3.35 4.65 3.75 5.65 1.3 3.2-.45 7.3l-7.9 19.2q-4.5 11-5.4 11.9-.95.9-9.6 2.05l-8.45.95q5.9-5.5 9.5-8.45 3.35-2.75 6.85-16.65 3.4-13.7 1.7-16.05-1.95-2.6-6.55-11.4-5.3-10.15-6.8-15.3l-.2.75q-3.75-1.2-16.75 2.05l-18.05 5"/><path fill="#ce723f" d="M187.4 192.3q-3.85-2.65-2.8-6.15.95-3 3.05-3.4l36.25-8.5q5.4-.35 6.25.1 1.6.9 3 6.55 1.9 7.7 6.3 15.15 1.8 3.1 6.3 9.25 3.35 4.65 3.75 5.65 1.3 3.2-.45 7.3l-7.9 19.2q-4.5 11-5.4 11.9-.9.9-9.15 2 3.65-3 4.95-6.1 8-16.1 10.15-23.2 2.5-8.2-.25-12.05-5.35-9.6-8.8-15.1-6.45-10.25-8.85-6.5l-1.4-3.9-.2.75q-3.75-1.2-16.75 2.05l-18.05 5"/><path fill="#ef834a" d="M192.85 170.55l-1.05 7.1q-1.75 6.6-5.25 3.95l-4.7-3.2-3.8-3.45q-2.95-2.95-.45-6.2 2.25-3.05 4.5-2.65 1.35.2 4.85 1.8l5.9 2.65"/><path fill="#ce723f" d="M178.05 174.95q-1.5-1.5-1.2-3.95.3-2.7 2.95-4.25 1.65 1.75 5.65 4.3l6.8 4.4q-.65 3.8-1.85 5.55-1.55 2.3-3.85.6l-4.7-3.2-3.8-3.45"/><path fill="#ef834a" d="M193 186.5q-4.5-.45-5.6-3.8-.8-2.45.25-6.6.65-2.55 5.4-5.2 6.05-3.35 7.05-4.35l8-15.15 3.65 2.95q4.25 3.6 7.45 6.9 10.2 10.6 5.85 14.3-4.35 3.7-11.55 4.55l-6.35.1-4.6 2.7q-5.4 2.9-9.55 3.6"/><path fill="#ce723f" d="M193 186.5q-6.7-.7-5.85-7.8 3.9-3.2 6.7-3.8 3.6-.8 7.35 1.85.7-5.45 4.55-11.55 2.2-3.5 7.05-9.95 6.9 5.95 10.45 10.7 5.05 6.8 1.8 9.6-4.35 3.7-11.55 4.55l-6.35.1-4.6 2.7q-5.4 2.9-9.55 3.6"/><path fill="#ef834a" d="M284.75 30.1q1.8.5 4.65 5.4 3.5 5.9 7.3 19.75 4.65 16.8 5.65 32.75 1.2 19.25-8.3 42.4-10.45 25.2-26.75 35.7-15.8 10.15-27.3 11.05-10.1.75-23-5.55-10.15-4.95-11.7-15.9-.9-6.45 1.2-14.05l32.6-52.9q16.85-12.1 29.05-33.15 3.35-5.7 7.4-14.25 3.3-6.9 4.25-8.1 2.95-3.75 4.95-3.15"/><path fill="#ce723f" d="M284.4 29.75q2.05.7 5 5.75 3.5 5.9 7.3 19.75 4.65 16.8 5.65 32.75 1.2 19.25-8.3 42.4-10.45 25.2-26.75 35.7-15.8 10.15-27.3 11.05-10.1.75-23-5.55-8.15-3.95-11-11.8-2.6-7.3.1-15.65 9.95-2.15 20.55-16.25l8.35-11.65q4.8-6.65 8.35-9.9 1.75 5.1 7.2 4.3 5.15-.75 11.45-6.25 6.5-5.7 11.25-13.95Q278.6 81.3 280 71.7q6.5-43.6-.2-38.45 2.3-4.3 4.6-3.5"/><path fill="#ef834a" d="M216.5 89.15q2.5-6.55 6.15-13.35 4.2-7.75 7.55-11.1 3.1-3.1 4.2 1.45l1.45 12.25q.35 3 3.95 12.1 3.3 8.4 3.95 19.85.6 10.9-6.9 24.75-6.3 11.7-15.05 20.1-5.85 5.6-9.5 2.15-1.1-1.1-1.9-2.95l-.55-1.65q-1.2-2-2.5-8.5-1.55-7.8-.85-12.95 1-6.6 4.35-21.05 3.6-15.7 5.65-21.1"/><path fill="#ce723f" d="M231.95 90.35q1.5-23.4 3.9-11.95.35 3.05 1.55 6.05l2.5 5.5q3.35 7.85 4 19.3.75 13.35-7.3 27.6-5.95 10.45-15.2 19.3-5.8 5.55-9.25 1.65-1.1-1.25-1.8-3.25l-.5-1.8q-.6-1-1.35-3.8 5.6 3.75 12.5-3.95 6.95-7.75 8.85-20.3l2.1-34.35"/><path fill="#f5ac3c" d="M66.8 123.35q.6.8 3.2.7l5.6-.55 8.75-.7h1l11.7-.75q5.15-1.2 7.65-5.25.9-1.35.15-2.45-1.65-2.4-9.4-3.2l-14 .55q-7.55 1.4-10.4 3.45-2.3 1.65-4.05 5.9-.65 1.6-.2 2.3m8.95 1.45l-6.55.7q-3.1.05-4-1.1-.9-1.2.05-3.5 1.85-4.6 4.95-6.7 3.35-2.3 11-3.75l14.65-.45q8.8.9 10.85 3.85 1.2 1.65-.1 3.8-2.75 4.4-8.75 5.7l-12.5.7h-1l-8.6.75m93.65-28.4q-.35-1.6-3.95-3.15-4.85-2.1-11.85-3.55-8.65-1.85-15.3-1.4-6.95.4-11.65 1.95-4.7 1.55-6 3.85-.95 1.65.05 3.6 1.65 3.3 9.55 4.8l12.25.9 3-.1 12.75-.7q8.05-.8 9.5-2.5 1.95-2.3 1.65-3.7m-3.45-4.3q4.75 2 5.25 4.15.3 1.1.05 2-.25 1.1-1.4 2.45-2.75 3.2-24.3 3.85l-3 .1-12.55-.8q-9.1-1.6-11.05-5.5-1.25-2.55 0-4.8 1.5-2.55 6.7-4.3 5.1-1.75 12.55-2.25 6.85-.45 15.65 1.45 7.15 1.5 12.1 3.65m-50.9-22.9q-7.75.6-10.1 2l1.25-1.5q1.45-.85 3.95-1.25l4.8-.55 5.85-.7q3-.65 4.4-2.15 1.65-1.7.8-3.45-.8-1.65-4.15-2.8-3.5-1.2-7.05-.85l1-1.15q3.7-.4 7.2 1 3.45 1.4 4.55 3.65 1.3 2.6-.8 4.75-1.6 1.7-5.15 2.35l-6.55.65m56.55 51.6q-2.5.4-3.1 1.55-.9 1.75 2.45 5.45 3.55 3.8 8.6 4.75 2.95.55 9.2.2l4-.2 4.4-.25q2-.25 2.3-.85.4-.8-1.45-3.1-4.3-5.25-21.55-7.6-2.6-.35-4.85.05m-4.95.75q.9-1.7 4.45-2.15 2.55-.3 5.55.1 7.05 1 11.25 2.2 8.1 2.25 11.05 5.85l1.85 2.6q.65 1.15.35 1.85-.5 1.1-2.85 1.5l-5.5.35-4 .15q-6.25.4-9.5-.2-5.45-1.05-9.25-5.15-4.55-4.9-3.4-7.1M169.2 15q4.45 1.75 6.25 4.3 1.65 2.3 1.05 3.95-1.25 3.9-6.25 5.7-4.9 1.85-12.5 1.3-5.3-.4-9.25-2.45-1.1-.55-3.55-2.4l.85-.95q1.95 1.45 3.25 2.05 3.65 1.7 8.65 2.05 7.1.55 11.6-1.05t5.65-5.05q.4-1.15-.55-2.4-1.55-2.15-6-3.95-4.35-1.75-8.75-2.15l1-.95q4.55.4 8.55 2m20.65 41.65l9.2-.35q7.95 1 13.05 3.15 7.45 3.15 7.45 8.25l-.25 2.7q-.3 1.2-1.35 2.1-2.2 2-7.1 2.7-5 .75-11.2-.05-7.6-.95-13.45-4.15-6.4-3.5-6.2-7.65.1-2.15 1.9-3.6 2.5-2.1 7.95-3.1m.65 1.2q-4.8.9-7.05 2.8-1.4 1.2-1.5 2.6-.15 3.35 5.2 6.55 5.4 3.2 12.65 4.1 12.15 1.6 16.15-1.95 1.8-1.55 1.8-4.2 0-4.55-7.3-7.45-4.8-1.9-11.55-2.75l-8.4.3m50.85-8.55q-1.9-3.75-7.7-4.6-6-.85-7.7 1.85-.55.9-.5 2.05.1 1.15.75 2.15 1 1.45 5.1 2.8 4.1 1.3 7.3 1.2 2.4-.1 2.9-.9.45-.8.45-1.95 0-1.35-.6-2.6m-16.9-3q.85-1.4 2.75-2.25 2.7-1.15 6.6-.6 3.75.55 6.25 2.6 1.65 1.4 2.55 3.25 1.55 3.1.3 5.25-.75 1.35-4.25 1.45-3.5.1-8-1.4-4.7-1.5-5.9-3.35-1.75-2.6-.3-4.95m-17.65 56.2q3.35.55 5.9 1.95l-.55 1.15q-2.05-1.1-5.25-1.45-3.55-.4-4.95.7-.9.7-.6 2.05.5 2.7 3.4 4.5 1.55 1 4.65 2.05l.9.3-.45 1.2-.85-.3q-8.15-2.7-9.15-7.75-.25-1.2.25-2.3.4-.9 1.05-1.4 1.65-1.35 5.65-.7"/><path fill="#d49433" d="M279.9 166.1q-2.05.3-2.65 2.25-.5 1.65.35 3.65t2.9 3.85q4.05 3.7 4.4 7.05.25 2.4-1.7 6.8l-1.55.95q1.95-4.3 1.85-6.85-.15-3.65-3.85-7-2.35-2.15-3.5-4.8-1.2-2.7-.55-4.7.75-2.4 4.1-2.85 1.95-.25 4.95.75 3.3 1.15 5.65 3.25 1.9 1.7 2.65 3.25.85 1.75.8 4.15l-1.1 1.7q.1-2.25-.75-4.45-.85-2.25-2.45-3.7-2.1-1.9-5.1-2.75-2.55-.75-4.45-.55M234.85 44.3q5.2 1.05 7 4.65 1.5 2.95.2 5.2-1.05 1.8-6.65 1l-.55-10.85"/><path fill="#d49433" d="M241.35 49.3q-1.6-3.3-6.45-4.35l-.1-1.35q5.6 1.2 7.8 5.7 1.55 3.1.3 5.25-.75 1.35-4.25 1.45l-3.25-.2v-1.3l3.2.25q2.4-.1 2.9-.9.45-.8.45-1.95 0-1.35-.6-2.6"/><path fill="#0d131a" d="M251.25 201.7l-6.55.95-.75-1-.75-1 6.25-1.05 1.8 2.1m-47.7 5.1l1.75-1 1.4-1.4 24.05-2 .45 2.3-27.65 2.1m-121.1-20.65q5.15 2.35 9.6 4.15l-2.75 1.8-9.35-4.3q1.65-.9 2.5-1.65M255.65 72.6l-1.05 1.8-1.25 1.8q-.55-22.6-3.7-34.15Q245.4 26.2 233.7 15.3q-11-10.25-30.45-11.35-17.75-1-34.05 5.75-14.6 6.1-31.75 23.6-11.75 12-26.05 31.05-10.85 14.5-21.55 22.4-9.45 7-27.75 15-15.3 6.7-22.1 16.45-7.3 10.55-3.45 23.15-2.25 1.7-3.15 2.65-4.35-13.8 1-24.55 6.3-12.55 25.6-20.4Q77.35 92 88.25 83.65q10.8-8.35 21.9-23.1 16.7-22.3 28.25-33.65 13.8-13.6 29.1-20.85 15.75-7.45 35.95-5.8 21 1.7 32.45 12.4 11.45 10.7 15.8 26.55 3.1 11.3 3.95 33.4m28.85 75.8l1.5-2.2q15 17.55 10.05 31.75-5.35 15.2-32.45 20.9l-.85-.95-1.2-.7q25.75-5.75 31.35-19.5 5.35-13.05-8.4-29.3m-181.25 3.05q-8 1.3-15.1 3.55l-.9-1.25q8.6-2.95 14.35-4.1l1.65 1.8m136.45 44.9l-1.1-2 5.65-1.2 1.25 1.9-5.8 1.3m-34.8-40.85l.5 2.15q-19.75-4.7-40.75-7.2l-7.05-.75.55-2 5.95.6q21 2.5 40.8 7.2m49.35 18.45q4.15 2.6 5.75 3.85 2.75 2.15 4.3 4.45 1.8 2.6 1.55 3.65-.2 1.05-1.5-.55-.75 1.25-3 2.95-2.55 1.9-5.5 3.25l-1.7-1.6q6.55-2.85 8.55-6.4-3.45-4.25-10.6-8.6l2.15-1m-44.5 23.25l16.25-1.1 1.5 2-18.6 1.3.85-2.2"/><path fill="#0d131a" d="M92.5 185.4q1.05-1.75 1.9-2.2.85-.45 2.15 0l7.75 3.5q7.1 3.25 9.85 3.65l-.3 1.8q-4.05-.5-11.05-3.6-6.45-2.85-6.7-2.8-.8.2-7.1 9.15-6.25 8.85-7.3 11.05-1.55 3.25-.7 12.35.75 8.7 2.1 9.95 1.7 1.6 6.05 4.05 4.1 2.4 4.6 2.25.2-.05-2.5-4-3-4.4-3.25-5.7-.35-1.55.05-7.9.35-5.9.65-7.35.25-.95 4.55-7.05L98.6 195q-1.45-1.1-1.15-1.5.3-.4 2.65.65 3.35 1.4 8.15 2.8 5.95 1.65 10.8 2.25l1.7 2.75q-6.95-.4-13.55-2.8l-6.95-3.1-6.25 9.3q-2.95 4.45-3.15 5l-.75 7.25q-.5 6.5-.3 7.1l3.8 6q3.6 5.6 2.95 6.45-.7.9-6.65-2.1l-5.15-2.65q-3.05-1.65-4.55-3.05-1.45-1.35-1.8-11.2-.4-9.65.65-12.55.65-1.8 6-9.3l7.45-10.9m-15.4-7.35l2.45-4.55 7.35-4.55q1.9.65 2.8 1.2-3 1.4-12.6 7.9"/><path fill="#0d131a" d="M68.95 196.6l9.9-8.45q9.05-7.65 12.55-9.55-2-1.95-1.35-2.2.7-.25 3.75 1.8 6.7 4.6 15.7 6l1.4 2.8q-3.1.6-9.95-2.5-4.75-2.15-7.9-4.3-2.05 1.3-12.2 9.55-10.15 8.2-10.25 8.6-1 4.2-3.1 17.1-2.25 14.2-1.75 15.65.9 3.05 2.75 6.6 2.45 4.7 1.7 5.35-1.1 1-8.95-3.35-5.1-2.8-6.15-4.1-1.6-2.1-1.6-7.45 0-7.25 2.75-23.65 1.4-1.95 3-3.3-1.25 6.7-2.05 14.95-.7 7.5-.7 12.2 0 4.65 1.2 6.25 1.85 2.45 9.7 6.05 1.05.5-.85-3-2.6-4.8-3-6.35-.75-2.55 1.75-18.25 2.45-15.55 3.65-16.45m5.9-57.75l-.8-2.7q3.7.25 9.05 7.65 4.15 5.7 5.8 9.9l2.9 1.7q3.1 1.8 5.2 3.5v2.5l-3.8-2.9q-1.8-1.25-3.7-1.95.65 2.8-.2 2.1-.75-.65-1.9-3.35-1.25-3-5.15-8.7-4.75-6.9-7.4-7.75m13.3 29.35l2.4.05-1.3.9q2.45 1.15 10.65 3.3.35.8 1.55 1.6l1.75 1.35q-9.6-2.15-16.45-4.85l-3.2-.55-2.65-1.25.65-2.7q1.55 1.05 3.4 1.65l3.2.5"/><path fill="#0d131a" d="M77.3 147.3q-3.55-12.15-9.2-15.75-2.55-1.6-5.5-.7-15.7 4.65-27.9 13.55-8.8 6.45-19.7 26.9-11 20.65-11.25 31.8-.35 16.65 3.1 32.85 2.8 13.15 7 21.7 3.3 6.75 4.25 6.95.75.15 2.15-4.65 5-17.75 11.25-33.8 7.8-20.2 12.6-23.95 2.5-6.75 7-9.85 2.45-1.7 2.75-1.25.3.4-1.35 2.15-3.6 3.8-5.75 9.25-2.15 5.4-2 10.25.15 4.8.55 5.25.35.45 2.1-1.55 2.25-2.5 18.9-29.4l7.55-8.45q5.35-6 5.85-10.45.95-9.45-2.4-20.85m-16.15-19.2q4.9-1.15 8.1.9 6.1 3.95 10.3 17.2Q83 157.25 83 165.55q0 6.5-6.15 13.3l-4.85 5.1q-2.6 2.8-3.55 4.75-1.6 3.4-9.8 15.7-8.55 12.8-11.75 16.2-2 2.15-2.7 1.65-.6-.35-1.25-3.75-1.2-6.15 0-12.25-3.9 5.5-11.2 27-5.6 16.3-9.3 29.85-1.45 5.3-2.45 5.95-1 .6-3.3-2.2Q7.9 255.9 3.2 233.5q-4.05-19.2-3-32.75.75-9.8 11.7-31Q22.7 149 29.45 143.5q5.85-4.75 15.9-9.5 9.25-4.35 15.8-5.9m104.9 24.9q7.9 1.45 16.4 5.55 8.6 4.2 15.55 10.05-1.35.8-2.75 2.1-7-5.85-15.2-10.2-7.85-4.15-12.55-4.8l-1.45-2.7m-41.5-7.4l8.95-.5q-.1 1.8.4 2.6l-10.65.55q1.3-1.65 1.3-2.65"/><path fill="#0d131a" d="M175.1 166.8q-.85 8.15-11.3 13.05-9.35 4.45-23.3 5.1-13.6.65-25.05-2.5-12.25-3.35-16.45-9.7-4.75-7.2-4-13.5.85-6.55 7.5-8.35l.85.8 1.05.6q-6.9 1.9-6.9 8.6 0 6.05 4.95 11.7 4.6 5.25 15.9 7.9 10.6 2.5 22.8 1.85 12.55-.65 20.95-4.4 9.35-4.1 10.4-10.8.8-5.3-3.3-9.7-4.2-4.55-12.6-7.05l1.15-2.2q7.15 2.25 12.15 6.9 5.85 5.5 5.2 11.7"/><path fill="#0d131a" d="M120.05 134.6q-3.4-3.35-8.25-3.35t-8.25 3.35q-3.45 3.4-3.45 8.15t3.45 8.15q3.4 3.35 8.25 3.35t8.25-3.35q3.45-3.4 3.45-8.15t-3.45-8.15m-21.6 9.2q-.4-5.45 3.35-9.7 3.8-4.3 9.4-4.65 5.6-.35 9.9 3.35 4.25 3.7 4.6 9.15.4 5.4-3.35 9.5-3.75 4.15-9.4 4.5-5.65.4-9.9-3.2-4.25-3.55-4.6-8.95m59.25.25q0-5.05-3.55-8.8-3.55-3.8-8.25-3.8-4.75 0-8.05 3.45-3.3 3.45-3.3 8.45 0 5.05 3.3 8.65 3.3 3.55 8 3.55 5 0 8.4-3.35 3.45-3.3 3.45-8.15m-18.95-12.1q4.6-3.1 10.2-1.95 5.5 1.15 8.65 5.75 3.1 4.55 2.1 10.25-1 5.75-5.6 8.85-4.55 3.1-10.3 1.9-5.8-1.2-9.05-5.9-3.2-4.7-1.95-10.25 1.2-5.4 5.95-8.65m25.65 36.2q1.55-.9 1.5-.2-.05.65-1.5 1.55-13.5 8-33.65 6.1-18-1.7-25.7-8.5-1-.9-.9-1.4.1-.5 1.65.75 6.95 5.65 25.05 7.15 20.55 1.75 33.55-5.45m37.8 25.3q-1.35-2.35-.55-5.25l1.8-.35q-.35 1.1-.35 2.15 0 1.2.55 2.05.85 1.35 2.45 1.6l8.1-2.7L223 188l.65 1.85-8.85 2.8q-1.4.5-5.2 2.1-2.7 1.1-3.55 1.2-1.05.15-2.3-.8-1.1-.8-1.55-1.7m38-10.05l.55 2.3-5.2 1-.2-2.3 4.85-1"/><path fill="#0d131a" d="M238.75 181.35q-.25-1.4.1-1.95.3-.5.8 1.05 1.9 5.85 6.65 12.95 4.3 6.45 7.95 9.7l2.1 1.95q.9.9.9 4 0 2.8-1.1 12.35l-1 9.85q-.05.8-1.2 2.8l-1.1 2.1q0 .45 2.25-1.35 2.3-1.8 2.75-2.85 1.75-3.85 4.55-12.05 3.55-10.6 3.9-15.4v-.15q0-1.1-1.2-2.35l-3-2.6-4.8-4.3q-2.85-2.9-4.7-6.3l-3.6-7.3-2.15-4.6 2.25-.75 1.8 4.15q1.95 4.35 3.4 7 3.15 5.85 9.45 10.85l3.7 2.95q1.6 1.55 1.5 3.25-.4 4.95-4.4 15.9-2.65 7.1-5.05 12.45-1.1 2.4-4.3 4.2-4.6 2.75-5.25 2.45-.65-.3 1.55-4.15l1.85-4.05 1.1-13.15q.75-11 .15-11.7l-2.05-1.85q-4.2-3.8-7.85-9.35-4.8-7.2-5.95-13.75"/><path fill="#0d131a" d="M221.35 183.6q-.05-3.6.5-3.55.45.05.8 2.25.95 5.3 6.6 16.1 4.6 8.75 7.2 12.3.65.85.65 3.4 0 6.4-3.15 17.15-3.3 11-6.15 13.35-2.2 1.75-4.4 3.9-2.65 2.5-2.15 2.65l7-1.05q6.15-1.25 6.8-1.8.6-.65 3-6.05l4.6-10.85 5.6-13.5q.95-2.1.95-4.05 0-1.7-.9-3.35l-2.15-3.2-1.85-2.45q-3.9-5.3-6.2-9.3-4-7.15-5.8-14.45-.7-3-1.2-4.05h2.6l.75 2.75q1.35 7.1 5.55 14.45 2 3.45 6.35 9.4l1.8 2.45q2.65 3.45 3.15 4.9 1.05 2.9-.65 6.85l-6.35 14.25-5 12.5q-1.95 4.85-2.6 5.5-1.2 1.2-11.7 2.6l-8.1.25q-.45-.75 4.7-5.65l4.75-4.35q3.1-2.8 6.45-16.4 3.25-13.15 2-14.9-4.85-6.5-7.4-10.8-5.9-10.1-6.05-17.25"/><path fill="#0d131a" d="M184.4 184.45q1.3-2.2 3.1-2.6l.35 1.75q-1.45.3-2.25 2.3-.8 2-.2 3.35.55 1.15 1.75 1.55l2.5.05q5.9-1.8 15.3-4 14.45-3.45 17.5-2.45l.5 1.7q-3-1-17 2.25-10.6 2.45-15.6 4.1l-4.15-.2q-1.7-.75-2.2-2.15-1.15-3.05.4-5.65"/><path fill="#0d131a" d="M182.25 165.2q1.25.2 7.05 2.6l5.55 2.45-2.35 1.1-4.4-1.95q-4.75-2.2-6.15-2.45-.7-.1-2 .75-1.45.95-2.15 2.3-1.15 2.35.85 4.35 2.65 2.65 5.75 4.85l2.55 1.65.05 3.15q-5.1-3.9-9.6-8.4-3-3-1.2-6.4.9-1.75 2.8-3 1.85-1.2 3.25-1"/><path fill="#0d131a" d="M194.1 168.75q1-.5 3.05-1.45 1.8-.95 2.9-2.25l.45 2.5-2.5 1.8q-1.8.9-2.85 1.45-2.9 1.3-4.1 2-2 1.25-2.55 3.5-.6 2.55-.5 4.55.1 1.85.8 2.7 1.5 1.75 4.2 2 4.15-.7 7.4-2.3l4.5-2.8q-2.8-.5-2.4-.9l4.7-.25q11.7.5 17.1-4.2l2.45.9q-3.3 3.55-10.45 4.65-5.2.8-8.7.15l-5.15 3.45q-5.05 2.95-9.25 3.25-1.5.15-3.35-.8-1.8-.9-2.65-2.15-1.2-1.75-1.35-4.45-.15-2.15.4-4.4.55-2.05 2.95-4 1.6-1.25 4.9-2.95"/><path fill="#0d131a" d="M200.5 171.65q-.3 2.45-.7 2.25-.4-.2-.65-3.1-.75-8.4 5.95-16.4l.6 2.55q-1.5 1.8-3.1 6.25-1.7 4.6-2.1 8.45"/><path fill="#0d131a" d="M285.7 26.4q4.8 1.25 10.9 18.6 6.85 19.6 8.15 42.65 1.1 18.95-8.2 42.25-10.5 26.15-27.3 37-16.4 10.5-28.3 11.65-11.2 1-24.4-5.95-10.45-5.5-12.55-15.3-1.55-7.25 1.5-15.95l1.7 1.85q-2.1 7.5-.95 13.6 1.8 9.45 11.2 13.85 12.7 5.9 22.4 5.25 11.5-.85 26.85-10.7 16.4-10.5 26.6-35.9 9.15-22.75 8-41.2-1.2-19.25-7.65-38.8-5.9-17.8-9.4-18.3-1.25-.15-2.9 2.1-1.55 2.2-4.4 7.8-8.7 17.55-12.45 23.35-10.55 16.15-24.8 25.4l-1.25-1.75q15.65-13.4 21.4-21.45 4.2-5.9 13.75-26 3.6-7.55 6.8-11.2 3.05-3.45 5.3-2.85"/><path fill="#0d131a" d="M225.55 67.85q4.75-7.05 7.4-7.6 2.65-.5 2.9 5.6.6 14 4.35 22.35 2.7 5.9 3.2 7.45 1.75 5.5 1.9 13.6.15 7.35-2.25 15.65-2.25 7.75-6.2 14.45-1.8 3-4.4 6.05l-4.4 4.35q-3.45 2.85-3.9 2.6-.45-.25 2.35-3.3 5.4-5.75 8.5-11.2 6.55-11.55 7.1-26.9.3-8.15-1.7-14.65l-3.25-8.45q-1.95-5.55-2.35-9.35-1.05-10.25-1.15-12.75-.05-1.7-.95-1.5-.6.1-1.75 1.2-3.15 3.15-7.2 10.6-3.6 6.65-6.25 13.45-2.1 5.5-5.7 21.1-3.3 14.5-4.2 20.85-.7 4.8.6 12.35.8 4.45 2.1 8.85.55 2.05 0 2.05-.5 0-1.35-1.4-1.3-2.05-2.95-8.45-2-7.95-1.3-13.1 1-6.95 4.15-21.3 3.55-16.15 5.6-21.6 1.9-4.9 5-10.7 2.9-5.55 6.1-10.3m-23.6 120.45l.75 1.55q-6.35 11.45-21.1 16.7-14.3 5.1-30.85 2.45-22.5-3.6-33.2-12.05-9.1-7.2-11.65-19.9l2.5.7q1.85 10.45 11.55 17.7 11.2 8.4 31.25 11.1 13.6 1.8 24.7-.75 16.75-3.9 26.05-17.5"/><path fill="#0d131a" d="M212.15 192.6q-.05 7.75-5.65 14.25-5.45 6.3-14.9 10.2-20.8 8.55-46.25 1.8-11.95-3.15-20.45-11.2-6.5-6.2-10.35-14.5l3 1.95q5.2 7.75 11.15 12.65 6.95 5.65 15.6 8 27.3 7.45 47.3-1.5 8.2-3.7 13.05-9.5 4.65-5.55 4.8-11.25l1.35-.5 1.35-.4"/></svg>