<svg xmlns="http://www.w3.org/2000/svg" width="264" height="270" viewBox="-0.3 -0.9 263.7 270.2"><path fill="#e8b67d" d="M252.45 223.75q10.95 4.9 6.6 14.45-1.2 2.6-4.2 4.25l-4.25 4.05q-2.3 1.8-7.95 3.35-6.3 1.7-13.4 2.1-18.7 1.1-30.65-7.3-6.75-4.8-9.4-14-1.35-4.7-.45-8.75.6-2.7 2.7-6.3.45-.75 2.85-1.15l3.55-.1q1 .2 4.85 2.45l5.25 3 2.55 1.4 3.9 1.2q2.6.55 8.1-.1l8.95-1.2q11.65-1.5 21 2.65"/><path fill="#c39969" d="M256.3 225.75q3.2 1.5 3.85 6.75.7 6.15-5.3 9.75-2.15 3.75-9.1 6.35-6.65 2.5-15.45 3.1-20.6 1.4-31.7-7.05-3.3-2.55-5.45-5.5-2.55-3.6-3.95-8.5-1.35-4.7-.45-8.75.6-2.7 2.7-6.3.45-.75 2.85-1.15l3.55-.1q1 .2 4.85 2.45l5.25 3 2.55 1.4 3.9 1.2 10.25-.3q-6.6 2-5.6 7.2.95 4.75 7.05 8.95 6.4 4.4 13.35 4.5 8.1.1 13.15-6.2 1.2-1.4 2.25-3.5 2.1-4.1 1.45-7.3"/><path fill="#0d131a" d="M259.65 234.1q.6-4.25-3.6-7.4-9.85-7.5-33.4-3.7-5.35.85-9.65-.5-1.35-.45-13.55-5.7-6.3-2.65-8.85 1.6-2.45 4.05-.35 12.25 4.1 15.8 22.3 19.45 13.85 2.8 30.85-1.6 5.25-1.35 7.95-3.8 2.5-2.2 2.2-4.65-.3-2.45-3.3-4.15-3.2-1.8-8.5-2.05-1.75-.1-1.75-.55-.05-.45 1.35-.75 4.4-.75 8.65 1.2 4.55 2.1 5.55 5.95l.2.95q3.45-3.15 3.9-6.55m-4.05-9.75q5.5 3.2 6.15 8.15.6 4.3-2.45 8.15-1.75 2.15-3.85 3.25-.65 1.55-2.25 2.75-2.85 2.25-10 4.1-22.7 5.9-37.85-.45-16.7-7-18.45-27.05-.55-6.35 3.85-9.05 4.5-2.75 10.65.65 2.7 1.55 7.25 3.55 4.9 2.2 7.1 2.75l9.15-.35 11.95-.7q12.25.45 18.75 4.25"/><path fill="#e8b67d" d="M90.3 234.3q10 .4 14.4 1.65 16.7 4.7 27.3 11.2 11.65 7.15 8.3 12.2-3.55 5.3-14.85 7.55-12.2 2.4-27.25-.25-13.2-2.3-18.3-4.4-5.2-2.1-10.8-7.6-11.05-8.1-6.55-14.6 4.05-5.8 15.5-5.95 6.3-.1 12.25.2"/><path fill="#c39969" d="M96.8 242.45q-.15-4.8-3.5-7.55 11.95 1.8 23 5.55 10.4 3.55 18.5 8.3 8.85 5.2 5.3 10.8-1.65 2.6-4.8 4.35-3.15 1.7-8.25 2.75l-14 1.05-17.5-1.65q-7.65-1.2-15.3-4.05l-6.1-2.65-5.45-4.7q-4.85-2.85-6.85-6.45-1.95-3.55-.5-6.35.25-.55 2.15-2.4l2.55-2.3q-3.7 3.55-1.7 7.5 1.85 3.6 5.95 4.1 8.1 5.55 14.65 5.6 5.6.05 8.95-3.75 3-3.45 2.9-8.15"/><path fill="#0d131a" d="M115.85 266.6q10.45-.35 16.9-2.95 7.05-2.8 7.3-7.55.15-3.4-8.5-7.2-6.3-2.8-26.9-9.5-14.75-4.8-25.7-4.65-9.45.15-14.15 3.8-4.3 3.35-2.8 7.9 1.3 4.1 6.6 6.95-.2-1.4.15-2.85.55-2.5 2.6-4.25 2-1.75 4.55-1.9l2 .25q.65.35-.7.55-6.7 1.05-6.8 5.95-.1 4.85 6 8 7.65 3.95 18.7 5.95 10.5 1.85 20.75 1.5m-21.95.5q-11.25-2.15-18.55-6.05-4.4-2.35-5.95-5.25-7.25-3.45-9.4-8.45-2.25-5.4 2.4-9.6 4.95-4.5 15.3-5 11.95-.55 27.5 4.55 23.55 7.75 30.45 11.3 6.8 3.55 6.4 7.75-.55 5.85-8.3 9.15-7 3-18.2 3.35-10.7.35-21.65-1.75"/><path fill="#0d131a" d="M185.35 65.9l11.15-.2q7.1-.2 13.25.2 3.2.25 3.6 1.3.4 1.05-2.3 2.3l-3.95 1.4q-2.95 1-3.65 1.35l6.45 2.7 7.3 3.1q2.15 1.1 2.5 1.55.45.55-.65 1.1l-2.4.3q13.3 8.2 17.15 10.85 2 1.3 2 1.85.05.6-2.25.9l-6.3 1.25 5.15 5.15q1.9 2.25 1.3 3.25-.45.75-2.4.95 4.25 6.6 11.9 16.4l11.6 15.05q1.6 2.25 1 2.9l-3.5-.1q-5.1-1.45-12.45-5.75l4.55 5.85q2.9 3.75 4.4 6.35 1.5 2.55 1.3 3l-2.9-.15-2.15-1.1-1.75-.95q-.15.1 2.55 10.65L249 169.7q.95 4.4-3.25.4l2.45 11.6q.85 3.7-.1 3.7-.85-.05-2.75-3.1l-3.3-4.35-2.8-3.35 3.95 16.65.9 3.9q-.05 1-2.4-1.45l-1.4-1.15-1.25-.9.1 10.15q-.2 1.8-1.3 1.05l-3.3-3.25q.2 5.7-.2 17.3-.15 2.05-1.35 1l-2.1-2.4-.5 2.1q-.25 1.25-.75.7l-4.3-5.9q.6 4.75.25 4.5l-4.8-3.4-4.55-3.25.55 9.5q0 1.85-1.1 1.35-1.1-.45-2.85-3l-.7 8.2q-.45 5.15-.75 5.25-.8.2-3.55-4.6l-1.35 5.8q-1.2 4.5-1.75 4.5-.4 0-.85-1.2-.4-.95-1.05-3.5l-2.35-8.2-3.25 8.5-4.2 8.9q-.7 1.45-1.4.5l-2.05-3.6-1.3 4.3q-.75 1.55-.95-.1-.45-3.75-2.45-9-1.35 6.25-2.2 7.7-1.15 1.95-2.85-1.05l-1.05 2.9-.8 2.8q-.5 1.5-1.1 1.6-.7.05-1.15-1.8-.4-1.9-1.4-4.7l-1.95 3.4q-1.45 2.6-2 2.55-.55-.05-1.3-1.85l-.85-2.25-4.6 8.05-1.4 2.3q-.5.3-2.05-.9-3.75-2.7-6.1-4.05l-1.4 3.55q-.5.95-1.55 0-4.2-5.4-4.9-5.9-.25.55-.8 4.5-.45 1.6-.95 1.5l-2.05-1.3-2.1-1.5-3.45-2.4-.5 3.9q-.25 1.8-.75 1.75l-2.4-1.35q-3.2-1.85-6.75-4.4l-6.3-4.75 1.2 6.35.85 5.65q.3 2.5.1 2.6-.3.2-2.75-1.6-10-7.45-22.35-19.1-.1.15-.05 1.7.05 2 .4 4.3.45 3.05-.5 3.1-1 .1-3.35-3.2-2.55-3.65-7.35-12.45-5.1-9.35-7.7-15.45l-1.8 3.85q-1.25 2.3-1.8 2.2-.6-.15-1.35-3.2-.95-6.3-2.15-10.8l-1.15 4.9-1.6 6.35q-1.95 6.6-3.2-.55l-4.15-26.75q-2.65 2-3.15 2-.9.05-1.05-3.1l-.75-18.85-2.7 3.8-3.2 4.25q-1.6 1.75-2.3 1.75-1.05-.05-.85-3.5.9-14.35 1.15-16.7-2.6 2.6-5.1 4.4-1.7 1.2-2.55.5-1-.85-.05-4.25 3.9-14.2 10.3-26.65l-6.1 1.6-2.3.25q-.7-.35.85-2.8l5.8-8.05 5-6.9-4.05-1.4q-2.45-.85-2.85-1.3-.65-.65 1-1.75l7.35-4.25q5.85-3.1 8.9-4.25-3.8-.5-4.1-1.35-.25-.65 1.7-1.75 10.75-4.8 20.1-8.35.3-.1-.45-1.6l-1.35-2.3q-1.8-2.7-.95-3.25l4.75.1 14.1 1.25q6.7.35 8.05.05l-1.85-3.85-.65-1.3-.1-.65q0-.55.35-.9.65-.6 1.5-.2l.8.2L96.8 63.7q-6.25-10.75-8.95-16.1-1.05-2.2-.1-2.75 1.2-.7 5.2 1.95 11.3 7.45 26.4 24.2l1.9 1.85q.65.05 1.95-2.7 6.35-13.5 11.05-21.25 4.75-7.95 13.25-19 4.25-5.5 5.25-4.9.75.45.6 2.45l-.8 5.3q-2.05 11.45-11.2 37.85-1.05 3.05.1 3.25 1 .15 3.95-1.8 1.45-.95 8.4-5l8.4-5.05q2.45-1.6 3.55-1.35 1.3.3.25 3.3L165 67l-.2 1.15 1.05-.25 18.45-6.35q2.5-.85 3.05-.65.8.3-.2 2.75l-1 1.3-.8.95"/><path fill="#69308d" d="M163.4 63.4l-.75 2.15-1.05 3.75q-.5 2.25 3 1l21.25-7.7-1.7 1.8q-1.75 1.95-2 2.65-.3.7 1.9.65l3.4-.25 20.9.15-2.45 1.7-3.85 1.7q-2.45 1.05-1.7 1.7l3.55 1.5q13.1 5.25 12.1 5.15-1.15-.1-1.1.85.1 1.05 2.3 2.6 10.5 7.35 15.3 10.45l-6.25.75q-2.2.35-.3 2.75 1.95 2.45 5.7 6.1-1.65.1-2 .9-.4.95.7 3.1.55 1.15 11.6 15.95l10.95 14.55q-3.4-1.05-6.8-2.55l-6.65-3.05q-1.6-.75-1.9.35-.25 1 .7 2.4l8.75 12-3-1.6-1.85.1q-.95.45-.7 1.7l5.25 21.5q-.55-.55-1.55-1.05-.7-.3-1.05.45-.3.7-.2 2.05.15 1.7 2.15 10.45l-2.15-3.1-2.8-3.7q-1.2-1.45-2.4-.95-1.25.45-1.2 2.75.1 3.15 3.5 15.15-.8-.9-1.95-.9-.95-.05-1.5.45-.4.4-.55 2.1-.1 1.55.05 2.7.25 1.35-.2 4.8l-1.45-1.8q-.45-.45-1.2 0-.75.4-1.05 1.35-.25.8-.35 8.75l-.1 7.8q-1.9-2.15-2.45-2-.35.1-.4 1.3v1.15l-2.75-3.4q-2.85-3.4-3.4-3.25-.5.15-.15 2.25l.45 2.05-6.5-4.6q-1.2-.9-1.95-1.05-1-.2-.9.95l.4 9.9-1.8-3.3q-.35-.4-1-.15-.7.35-.85 1.35l-1.3 10.5-1.05-1.35q-1.15-1.35-1.65-1.3-.55.05-1.6 4.15l-.95 4.05q-2.4-6.9-2.85-8.55-.9-3.55-2.85.3l-7.2 14.8-1-1.5q-1.05-1.55-1.5-1.5l-.9.7-.35.65q-1.45-6.95-3.35-6.8-1.05.1-2.45 4.4l-1.15 4.3-.55-.7q-.6-.7-1-.6-.45.15-1.6 2.75l-1.05 2.6-.75-2.9q-.95-2.9-1.65-2.85-.7 0-2.4 3l-1.55 3-.45-1.55q-.65-1.55-1.65-1.6-1 0-4.35 5.2l-3.2 5.2-3.45-2.2q-3.55-2.15-4.1-1.85-.55.3-1.25 1.45l-.6 1.15-2.85-3.05q-2.45-2.35-3-2.3-.55.05-1.2 2.65l-.55 2.55-6.25-4.2q-1.2-.8-1.9-.35-.65.35-.8 1.55l-.8 3.4-13.55-9.35q-1.8-1.3-2.35-.85-.5.4 0 2.35.4 1.5 1.8 11.25-10.35-7.45-21.95-18.5-1.65-1.6-2.1-1.5-.3.1-.25 1.35.2 2.65-.1 7.5-6-9.4-15.65-28.85-.75-1.5-1.4-1.35-.6.1-1.3 1.45-2 4.1-2.6.25l-1.85-9.3q-.55-2.15-1.25-2.4t-1.1 1.45l-1.5 7.2q-.9 4.3-1.7 4.75-.85.4-1.15-2.95l-3.35-22.7q-.3-2.05-1.35-1.6l-1.8 1.3q-.15.1-.8-11.2-.7-11.5-1.5-11.7-.8-.2-3.8 4.05l-3.25 4.15q-.25-.05.05-9.1.3-9.1-.15-9.4-.5-.35-3.8 2.55L43 161.6q2.4-8.45 5.05-15.55l4.7-11.5q.8-1.85 0-2.4l-3.85.3-2.35.25q-.3-.55 1.85-3.5 4.35-5.85 8.05-12.25l-2.55-1.1-2.35-1.05q-.6-.2-.2-.7l1.95-1.5q6.35-4.1 12.9-6.5 2.2-.8.65-2l-2-1.1q5.7-2.85 9.95-4.7l9.8-3.9q.95-.35-2.65-6.3l13.55 1q13.65.9 13.95.35.5-.85-2.6-6.75l2.55.8 1.7.25q-1.2-2.85-8.95-15.65l-10.2-16.85q-3.05-5.35 4.25.2 4.9 3.7 12.05 11.1 5.7 5.9 10.6 11.7 1.5 1.85 3 1.5 1.6-.4 2.9-3.2 5.4-11.8 9.85-19.65 4.4-7.75 10.25-15.85 5-6.95 5.9-7.05.85-.15-1.05 6.4-5.3 18.4-11.1 35-1.45 4.15.45 4.6 1.2.25 4.75-1.15 3.6-1.35 19.6-11.45"/><path fill="#5b267d" d="M127.5 192.05q4.05 1 6.5 3.35 2.15 2.05 2.3 4.35.15 1.95-1.25 3.25-1.3 1.25-3.6 1.5h-4.05l-1.95.25q-.1.35 1.5 1.6l2.85 2.35q3.5 3.6 2.7 6.1-.8 2.35-5 2.85l-3 .15-1.95-.3 2.8 3.6q1.6 1.85 1 3.25-.65 1.55-3.95 1.6-6.5.05-11.55-6.95-5.6-7.85-1.95-16.9 3-7.45 10.2-9.6 4.6-1.35 8.4-.45m38.3-10.8q7.35-1.9 13.5 1.35 6.85 3.6 9.1 12.2 1.45 5.55-.1 9.55-1.5 3.95-6.15 7.3-2 1.4-3.95.6-2-.8-1.45-3.15l1.15-4.1q.45-1.75-.1-2-.4-.15-2.85 2.05-2.85 2.5-4.1 2.95-1.95.75-3.75 0-2-.85-1.95-3 .05-1.8 1.15-5.55l1.1-4.15q.15-1.5-.55-1.75-.8-.25-2.2 1.15l-4.7 4.15-3.9-.1q-1.9-1.4-1.65-4.2.4-4.5 3.55-8.25 3.2-3.85 7.85-5.05m-2.85-25.4q4.05 2.2 4.8 8.1.75 6.15-2.55 13.05-2.15 4.5-3.45 4.7-1.15.15-2.65-3.25-1.55-4.35-2.5-6.25-1.65-3.35-3.55-2.35-5.85 3-10.55 4.3-4.65 1.3-11.55 1.9-1.55.15-2.35 3.3-.65 2.65-.4 5.15.4 3.55-.55 4.2-1.15.7-4.45-1.9-3.2-2.55-4.2-7.55-.5-2.45-.6-8.75-.05-1.35.6-3.25.85-2.55 2.4-3.5 10.05-6.15 21.6-8.75 13-2.95 19.95.85"/><path fill="#0d131a" d="M147.5 144.65q6.75 3.5 8.8 11.3 1.25 4.85-3.65 9.2-4.9 4.3-14.1 6.7-8.95 2.3-15-.1-5.85-2.3-7.4-8.25-1.8-6.85 3.7-12.85 4.9-5.3 12.5-7.3 8.4-2.2 15.15 1.3"/><path fill="#e50020" d="M145.4 145.65q7.25 2.55 8.45 9.5.7 4.15-3.8 8.7-4.6 4.65-11.25 6.35-8.45 2.2-14.3-.3-5.4-2.3-7-7.8-1.3-4.7 3.6-9.9 4.85-5.15 11.95-7 6.3-1.7 12.35.45"/><path fill="#0d131a" d="M134 197.9q.1 1.9-1.55 3.1-1.5 1.1-3.9 1.35l-4.05.05-1.95.25q-.1.35 1.5 1.6l2.85 2.3q3.5 3.6 2.7 6.1-.8 2.4-5 2.9l-3 .1-2-.25 2.85 3.6q1.25 1.4.6 3.2-.75 1.9-3.5 1.95-8.1.1-12.7-7.5-4.65-7.7-1.2-16.2 3-7.45 10.4-9.8 4.85-1.6 8.55-.7 5.3 1.3 7.45 3.4 1.75 1.7 1.95 4.55"/><path fill="#e8b67d" d="M131.35 196.95q.1 1.45-.9 2.5-.95 1.05-2.35 1.15l-4.9.1q-3.2.15-3.55.95-.3.85 1.75 2.85l3.05 2.7q4.15 3.55 1.75 5.6-2.3 2-6.85.35-1.85-.65-2.2.45-.35 1.05.95 2.3 4.8 4.55 2.65 6.1-2.1 1.55-7.05-1.6-5.25-3.35-6.7-9-1.3-5.15.9-10.4 2.15-5.15 6.6-7.8 4.9-2.9 10.6-1.4 6.05 1.55 6.25 5.15"/><path fill="#0d131a" d="M162.75 179.8q8.6-3.1 15.65 2.05 7.05 5.2 8.05 12.8 1.15 8.45-6.5 15.05-2.45 2.15-4.6.85-2.05-1.25-1.5-3.6l1.1-4.1q.45-1.75-.05-1.95-.4-.15-3.1 2.15-3.1 2.65-4.35 3.1-2.15.85-3.7-.25-1.7-1.15-1.65-3.85.05-1.8 1.2-5.1l1.2-3.75q.15-1.55-.6-1.75-.75-.25-2.15 1.15l-4.75 4.1q-1.6 1.05-3.75-.65-2.3-1.75-1.55-4.4 2.4-8.75 11.05-11.85"/><path fill="#e8b67d" d="M176.95 183.2q6.3 4 7.45 10.8 1.25 7.65-5.4 14.25-1.25 1.25-2.55.55-1.35-.7-.95-2.15l.75-2.45.5-2.35q.2-1.45-.85-2.2-1.15-.8-2.7.2l-3.9 2.9q-2.45 1.7-3.55 1.35-1.25-.4-1.5-1.9-.2-1.45.45-3.3 1.2-3.55 1.5-6.9.25-2.2-1.1-2.8-1.35-.6-3.15.85l-4.6 4.1q-1.4 1.3-2.85.35-1.4-1-.85-2.65 2.75-8.1 10.4-10.35 6.95-2.05 12.9 1.7"/><path fill="#0d131a" d="M96.1 73.95q19.45 13.75 23.85 23.85 2.6 6.1-.55 7.95-3.15 1.85-6.55-3.8-5.5-9.2-21.1-21.45-17.45-13.7-32.8-18.65-8.9-2.9-12.85-3.65-8.5-1.55-13.8.8-4.3 1.95-8.7 2.35-4.75.45-10.4-.9-5.05-1.2-8.55-3.8Q.4 53.5.05 49.25q-.35-3.8 3.8-6.8 4.1-3 9.95-3.4 7-.45 12.3.9 5.9 1.5 11.1 5.6 4.5 3.55 9.9 5.75 3.2 1.3 10.85 3.45 18.2 5.1 38.15 19.2"/><path fill="#dcdbd6" d="M2.45 48.95q.1-2.7 3.3-4.85Q8.9 42 13.8 41.35q11.95-1.6 22.4 6.05 4.75 3.5 9.35 5.35 2.6 1.05 8.95 2.8 19.2 5.2 37.2 17.35 18.55 12.5 26.35 26.25 1.75 3.1.55 4.55-1.2 1.45-3.7-2.55-8.55-13.3-27.45-26.4-18.9-13.1-35.6-17.25-5.65-1.4-8.95-1.9-4.8-.65-7.35.15-6.8 2.15-10.1 2.75-5.2.9-10.25.1t-8.75-3.35q-4.15-2.85-4-6.3"/><path fill="#0d131a" d="M219.3 9.9q-2.95 6.15-8.35 9.9-6.5 4.5-15.3 4.5-4.7 0-8.75 1.65-4.1 1.65-8.3 5.2-13.05 9.95-22.7 25.65-10.1 16.35-17.45 40.45-1.9 6.15-5.55 4.75-3.65-1.35-2.1-7.75 4.65-19.25 16.15-38.1 11.45-18.75 24.15-28.1 5.15-3.8 7.7-7.1 2.05-2.65 4.7-8.35 3.55-7.55 13.45-10.8 8.3-2.7 16.45-1.4 4.4.7 5.9 4 1.3 2.75 0 5.5"/><path fill="#dcdbd6" d="M207.5 19.25q-4.25 2.1-11.3 2.85-5.95.65-8.05 1.25-3.65 1-7.9 3.9-14.25 9.85-25.1 27.2Q144.45 71.5 136.3 97q-.85 3-2.65 2.5-1.75-.5-1-3.65Q138 72.4 152.3 52q11.25-16.05 24.7-26.15 2.55-1.9 4.75-5.4l2.95-5.6q3.35-6.75 11.2-10.05 7.1-2.95 15.5-2.25 4.4.4 5.5 2.95.85 2.1-.65 4.95-3.15 6-8.75 8.8"/><path fill="#c60019" d="M153.85 155.15q.7 4.15-3.8 8.7-4.6 4.65-11.25 6.35-6.4 1.65-11.4.6-4.6-.95-7.35-4.1 12.05 2.65 20.05-1.3 6.9-3.4 12.95-13 .6 1.5.8 2.75"/><path fill="#0d131a" d="M146.35 150.4q2.9-1.95 7.2-1.1 4.45.9 6.9 4.2 4.7 6.35 4.5 14.15-.15 7.4-4.2 9.65l-1.85.25q-1.15-.25-1.65-1.1-3.25-5.75-6.7-9.65l-5.7-5.65q-2.15-2.05-1.7-5.5.5-3.45 3.2-5.25m-26.55 8.45q2.45 0 4.6 2.1 2.3 2.3 2.3 5.25-.05 2.5-1.05 6.6l-1.35 5.3-.4 5.85q-.45 4-1.8 4.2-3.65.5-7.4-4.25-3.8-4.8-4.15-10.7-.4-6.8 2.35-10.7 2.6-3.7 6.9-3.65"/><path fill="#dcdbd6" d="M118.2 161.35q2.45-.65 4.3.8 1.95 1.65 1.95 4.95 0 1.7-1 5.7l-1.2 5.05-.3 4.4q-.15 2.95-.45 3.15l-1.7.25q-1.2-.25-2.1-1.1-2.7-2.65-3.9-5.4-1.25-2.8-1.45-6.95-.2-4.5 1.65-7.55 1.6-2.6 4.2-3.3m29.7-9.7q2.55-1.65 5.9-.5 3 1 4.7 3.3 3.9 5.3 4.25 12.75.3 7.3-3.15 8.2-.55.1-3.55-4.35-3.45-5.2-4.5-6.2l-3.3-2.95q-1.8-1.7-2.45-3.15-.9-2.05-.3-4 .6-1.9 2.4-3.1"/><path fill="#b4b4b0" d="M159.6 175.4q-.35.05-1.25-1.15 2.35-3.8 1.15-9.35-1.2-5.55-6.15-13.9 3.3.95 5.15 3.45 3.9 5.3 4.25 12.75.3 7.3-3.15 8.2m-40.8 9.9q1.7-4.75 1.2-8.6-.2-1.55 1.05-7.2l1.45-7.2q1.95 1.6 1.95 4.8 0 1.7-1 5.7l-1.2 5.05-.3 4.4q-.15 2.95-.45 3.15l-2.7-.1"/><path fill="#c39969" d="M108.45 214.95q2.45 2.35 4.6 3.55 2.05 1.15 4.55 1.65 2.3.45 3.65 1.15-.4 1.3-2.55 1.05-2.2-.2-5-1.95-3.4-2.2-5.25-5.45"/><path fill="#5b267d" d="M201.35 179.5q-1.5-5.8.85-13.35 2.45-7.75 7.8-13.25 6-6.2 13.7-7.2 8.9-1.1 18.65 5.05l4.35 17.45q-.55-.55-1.55-1.05-.7-.3-1.05.45-.3.7-.2 2.05.15 1.7 2.15 10.45l-2.15-3.1-2.8-3.7q-1.2-1.45-2.4-.95-1.25.45-1.2 2.75.1 3.15 3.5 15.15-.8-.9-1.95-.9-.95-.05-1.5.45-.4.4-.55 2.1-.1 1.55.05 2.7.25 1.35-.2 4.8l-1.45-1.8q-.45-.45-1.2 0-.75.4-1.05 1.35-.25.8-.35 8.75l-.1 7.8q-1.9-2.15-2.45-2-.35.1-.4 1.3v1.15l-2.75-3.4q-2.85-3.4-3.4-3.25-.5.15-.15 2.25l.45 2.05-6.5-4.6q-1.2-.9-1.95-1.05-1-.2-.9.95l.4 9.9-1.8-3.3q-.35-.4-1-.15-.7.35-.85 1.35l-1.3 10.5-1.05-1.35q-1.15-1.35-1.65-1.3-.55.05-1.6 4.15l-.95 4.05q-2.4-6.9-2.85-8.55-.9-3.55-2.85.3l-7.2 14.8-1-1.5q-1.05-1.55-1.5-1.5l-.9.7-.35.65q-1.45-6.95-3.35-6.8-1.05.1-2.45 4.4l-1.15 4.3-.55-.7q-.6-.7-1-.6-.45.15-1.6 2.75l-1.05 2.6-.75-2.9q-.95-2.9-1.65-2.85-.7 0-2.4 3l-1.55 3-.45-1.55q-.65-1.55-1.65-1.6-.95 0-4.2 4.95l-3.35 5.4-4.15-2.6q4.6-6.9 6.9-10.05 4-5.45 5.8-5.9l4.6.3 4.1.5q.75-.2 1.6-5.45.85-5.25 2.45-5.65l5.9.3q4.1.35 5.35-1.8 4.25-7.2 6.9-19.7 2.9-13.65.85-21.5"/><path fill="#c39969" d="M184.25 199.45q-1.1 4.7-5.25 8.8-1 1.05-2.15.75-1.1-.3-1.35-1.4 3.05-2.9 5.2-7.4 2.05-4.3 2.9-9.1 1.6 4.1.65 8.35"/><path fill="#0d131a" d="M73.3 151.8q-2.4-13 5.3-26.2 7.45-12.7 17.95-15.4 8.85-2.25 15.7 1.65 6.25 3.6 7.95 10.2 1.55 5.85.45 13.7-1.05 7.8-4.4 15.25-7.75 17.4-20.9 20.65-8 2-14.55-4.65-5.8-5.95-7.5-15.2"/><path fill="#e50044" d="M79.8 127.45q7.5-12.65 17.55-15.25 7.3-1.85 13.35 1.05 6.15 3 7.9 9.7 3.25 12.4-4.3 27.85-7.65 15.6-18.9 18.55-6.7 1.75-12.35-3.05Q77.5 161.5 75 152q-2.95-11.45 4.8-24.55"/><path fill="#0d131a" d="M185 151.5q-14.55 4.15-28.35-6.7-6-4.7-9.85-11.05-3.95-6.4-4.6-12.7-1.35-12.75 4.2-21.2 5-7.65 14.2-10 13.1-3.4 26.9 5.65 13.2 8.65 16.3 21 2.95 11.9-3.05 22.3-5.65 9.8-15.75 12.7"/><path fill="#e50044" d="M182.75 149.7q-13.15 3.45-25.3-6.65-11.35-9.45-13.2-22.4-1.45-9.95 2.9-18.05 4.55-8.5 13.5-10.85 13.5-3.5 26.95 6.65 12.25 9.2 14.55 20.55 2.05 10.1-3.5 19.05-5.6 9.05-15.9 11.7"/><path fill="#c6002f" d="M148.4 103.2q-.85.5-1.45-.2l1.15-2.05.75.55q.25.45.15.95l-.6.75m3.65-4.6q.15-.5.55-.75l.95-.15q.5.15.75.55l.15.95-.6.75-.9.15-.75-.55q-.25-.45-.15-.95m7.3-1.9l-.95.15-.75-.55q-.25-.45-.15-.95.15-.5.6-.75l.9-.15.75.6q.25.4.15.9l-.55.75m5.45-3.2l-.95.15-.75-.6q-.25-.45-.15-.95.15-.5.6-.75l.95-.1q.5.1.7.55.25.45.15.95l-.55.75m-19.9 19.8q.25.45.15.95l-.55.75-.6.15.2-2.4q.5.1.8.55m5.45-3.25q.25.45.15.95l-.55.75-.95.15-.75-.6q-.25-.4-.15-.9.15-.5.6-.75l.9-.15.75.55m5.5-3.2q.25.45.1.9l-.55.75-.95.15-.75-.55q-.25-.45-.15-.95.15-.5.6-.75l.95-.15q.5.15.75.6m3.35-2q-.25-.45-.15-.95.1-.5.55-.75l.95-.15q.5.15.75.6.25.45.15.95l-.6.75-.95.15-.7-.6m5.45-3.25q-.25-.4-.15-.9.15-.5.55-.75l.95-.15.75.55.15.95-.6.75-.9.15-.75-.6m7.15-2.8l-.95.15q-.5-.15-.75-.55-.25-.45-.15-.95.15-.5.55-.75l.95-.15.75.6q.25.4.15.9l-.55.75m5.45-3.25l-.95.15-.75-.55q-.25-.45-.15-.95.15-.5.6-.75l.9-.15q.5.15.75.6.25.45.15.95l-.55.7m-31.5 28.15l-.9.1-.45-2.15.1-.1.95-.15.75.6q.25.45.15.95l-.6.75m5.9-4.95q.25.45.15.95l-.55.75-.95.15-.75-.6q-.25-.4-.15-.9.15-.55.6-.75l.9-.15q.5.1.75.55m5.45-3.25q.25.45.15.95l-.55.75-.95.15-.75-.6q-.25-.4-.15-.9.15-.5.6-.75l.9-.15.75.55m5.5-3.2q.25.4.15.9l-.6.75-.95.15-.75-.55q-.25-.45-.15-.95.15-.5.6-.75l.95-.15.75.6m3.35-2q-.25-.45-.15-.95.1-.5.55-.75l.95-.1q.5.1.75.55.25.45.15.95l-.6.75-.9.15-.75-.6m5.45-3.25q-.25-.4-.15-.9.15-.5.55-.75l.95-.15.75.55q.25.45.15.95l-.6.75-.9.15-.75-.6m5.45-3.2q-.25-.45-.15-.95.15-.5.6-.75l.9-.15.75.6q.25.4.15.9l-.55.75-.95.15q-.5-.15-.75-.55m5.9-4.95l.9-.15.75.6q.25.4.15.9l-.55.75-.95.15-.75-.55q-.25-.45-.15-.95.15-.5.6-.75m-35 31.65l.15.8-.65-1.25.5.45m5.45-3.25q.25.45.15.95l-.6.75-.95.15-.75-.6q-.25-.4-.1-.9.1-.5.55-.75l.95-.15q.5.15.75.55m5.45-3.2q.25.4.15.9l-.6.75-.9.15-.75-.55q-.25-.45-.15-.95.15-.5.55-.75l.95-.15q.5.15.75.6m5.45-3.25l.15.95-.55.75-.95.1q-.5-.1-.75-.55-.25-.45-.15-.95.15-.5.55-.75l.95-.15q.5.15.75.6m5.45-3.25q.25.45.15.95l-.55.75-.95.15-.75-.6q-.25-.4-.15-.9.15-.5.6-.75l.9-.15q.5.15.75.55m5.45-3.2q.25.4.15.9l-.55.75-.95.15-.75-.55q-.25-.45-.15-.95.15-.5.6-.75l.95-.15q.5.15.7.6m5.5-3.25q.25.4.15.9-.15.55-.6.75l-.95.15q-.5-.15-.75-.55-.25-.45-.1-.95.1-.5.55-.75l.95-.15q.5.15.75.6m3.35-2q-.25-.45-.15-.95.15-.5.55-.75l.95-.1q.5.1.75.55l.15.95-.6.75-.9.15-.75-.6m7.1-2.8l-.9.15-.75-.6q-.25-.4-.15-.9.15-.5.55-.75l.95-.15.75.55q.25.45.15.95l-.6.75M152.8 135.6q.45-.25.95-.15l.75.55q.25.45.1.95l-.55.75-.95.15-.75-.6q-.25-.4-.15-.9.15-.55.6-.75m7.15-2.85q.25.45.15.95l-.6.75-.95.15-.7-.6q-.25-.4-.15-.9t.55-.75l.95-.15q.5.15.75.55m5.45-3.2q.25.4.15.9l-.6.75-.9.15-.75-.55q-.25-.45-.15-.95.15-.5.55-.75l.95-.15.75.6m5.45-3.25q.25.45.15.95l-.55.75-.95.15-.75-.6q-.25-.45-.15-.95.15-.5.6-.75l.9-.15q.5.15.75.6m5.45-3.25q.25.45.15.95l-.55.75-.95.15-.75-.6q-.25-.4-.15-.9.15-.5.6-.75l.9-.15q.5.15.75.55m5.5-3.2q.25.45.1.9l-.55.75-.95.15-.75-.55q-.25-.45-.15-.95.15-.5.6-.75l.95-.15.75.6m3.35-2q-.25-.45-.15-.95.1-.5.55-.75l.95-.15q.5.15.75.6.25.45.15.95l-.6.7-.95.15q-.5-.1-.7-.55m5.45-3.25q-.25-.45-.15-.95.15-.45.55-.7l.95-.15.75.55.15.95-.6.75-.9.15q-.5-.15-.75-.6m7.15-2.8l-.95.15-.75-.6q-.25-.4-.15-.9.15-.5.55-.75l.95-.15q.5.15.75.55.25.45.15.95l-.55.75m-37.95 29.1l.9-.15q.5.15.75.6.25.4.15.9l-.55.75-.95.15-.75-.55q-.25-.45-.15-.95.15-.5.6-.75m7.1-2.8l.15.95-.55.75-.95.1-.75-.55q-.25-.45-.15-.95.15-.5.6-.75l.9-.15q.55.15.75.6m5.5-3.25q.25.45.15.95l-.6.75-.95.15-.75-.6q-.25-.4-.15-.9.15-.5.6-.75l.95-.15.75.55m5.45-3.25q.25.45.15.95l-.6.75-.9.15q-.5-.15-.75-.55-.25-.45-.15-.95l.55-.75.95-.15.75.55m5.45-3.2q.25.4.15.9l-.6.75-.9.15-.75-.55q-.25-.45-.15-.95.15-.5.55-.75l.95-.15q.5.15.75.6m5.45-3.25q.25.45.15.95l-.55.75-.95.15-.75-.6q-.25-.45-.15-.95.15-.5.6-.75l.9-.1q.5.1.75.55m5.45-3.25l.15.95-.55.75-.95.15-.75-.6q-.25-.4-.15-.9.15-.5.6-.75l.9-.15.75.55m3.35-1.95q-.25-.45-.15-.95.15-.5.6-.75l.95-.15q.5.15.75.6.25.45.1.9l-.55.75-.95.15-.75-.55m-31 26.4l.9-.15.75.6q.25.4.15.9l-.55.75-.95.15q-.5-.15-.75-.55-.25-.45-.15-.95.15-.5.6-.75m5.45-3.25l.9-.15q.55.15.75.6l.15.95-.55.75-.95.1-.75-.55q-.25-.45-.15-.95.15-.5.6-.75m5.45-3.2l.95-.15.75.55q.25.45.15.95l-.6.75-.95.15-.75-.6q-.25-.4-.15-.9.15-.5.6-.75m7.15-2.85q.25.45.15.95l-.6.75-.9.15q-.5-.15-.75-.55-.25-.45-.15-.95l.55-.75.95-.15.75.55m5.45-3.2q.25.4.15.9l-.6.75-.9.15-.75-.55q-.25-.45-.15-.95.15-.5.55-.75l.95-.15q.5.15.75.6m5.45-3.25q.25.45.15.95l-.55.75-.95.15-.75-.6q-.25-.45-.15-.95.15-.5.6-.75l.9-.1q.5.1.75.55m3.35-2q-.25-.4-.15-.9.15-.5.6-.75l.9-.15.75.55.15.95-.55.75-.95.15-.75-.6m-19.9 19.85l.95-.15.75.55q.35.65 0 1.3l-1.85.25-.25-.3q-.25-.4-.15-.9l.55-.75m5.5-3.25l.9-.15q.5.15.75.6.25.4.15.9l-.55.75-.95.15q-.5-.15-.75-.55-.25-.45-.15-.95.15-.5.6-.75m5.45-3.25l.95-.15.75.6q.25.45.1.95l-.55.75-.95.15-.75-.6q-.25-.45-.15-.95.15-.5.6-.75m5.45-3.2l.95-.15q.5.15.75.55.25.45.1 1.05l-.5.65h-.05l-.95.15-.7-.6q-.25-.4-.15-.9t.55-.75"/><path fill="#f1997e" d="M166.55 92.35q5.2-1.3 10.6.45 7.95 2.6 12.25 11.55 3.4 7.1.9 13.75-2.25 5.95-7.2 7.65-6.1 2.1-13.35-3.1-6.6-4.75-10.05-11.95-3.1-6.4-1.25-11.5 1.85-5.2 8.1-6.85"/><path fill="#d08575" d="M164.8 93.5q-.6.3-1.25 0 .85-.45 1.8-.75l-.55.75m-5.2 9.65l.95-.15q.5.15.75.6.25.45.15.95l-.6.75-.95.15-.7-.6q-.25-.45-.15-.95.1-.5.55-.75m6.7-1.1l-.9.15-.75-.6q-.25-.4-.15-.9.15-.5.55-.75l.95-.15.75.55.15.95-.6.75m5.5-3.25l-.95.15q-.5-.15-.75-.55-.25-.45-.15-.95.15-.5.55-.75l.95-.15.75.6q.25.4.15.9l-.55.75m5.45-3.25l-.95.15-.75-.55q-.25-.45-.15-.95.15-.5.6-.75l.9-.15q.5.15.75.6.25.45.15.95l-.55.7M162.6 112.3q.25.4.15.9l-.6.75-.5.2-1.15-1.9.4-.4.95-.15.75.6m3.35-2q-.25-.45-.15-.95.1-.5.55-.75l.95-.1q.5.1.75.55.25.45.15.95l-.6.75-.9.15-.75-.6m5.45-3.25q-.25-.4-.15-.9.15-.5.55-.75l.95-.15.75.55q.25.45.15.95l-.6.75-.9.15-.75-.6m5.45-3.2q-.25-.45-.15-.95.15-.5.6-.75l.9-.15.75.6q.25.4.15.9l-.55.75-.95.15q-.5-.15-.75-.55m5.9-4.95l.9-.15.75.6q.25.4.15.9l-.55.75-.95.15-.75-.55q-.25-.45-.15-.95.15-.5.6-.75m-15.3 19.95q-.25-.4-.15-.9.15-.5.6-.75l.9-.15q.5.15.75.55.25.45.15.95l-.55.75-.95.15-.75-.6m5.45-3.2q-.25-.45-.15-.95.15-.5.6-.75l.95-.15q.5.15.7.6.25.4.15.9l-.55.75-.95.15-.75-.55m5.45-3.25q-.25-.45-.1-.95.1-.5.55-.75l.95-.15q.5.15.75.6.25.4.15.9-.15.55-.6.75l-.95.15q-.5-.15-.75-.55m5.5-3.25q-.25-.45-.15-.95.15-.5.55-.75l.95-.1q.5.1.75.55l.15.95-.6.75-.9.15-.75-.6m5.45-3.25q-.5-.7.15-1.45l.85 2.05q-.7 0-1-.6m-15.1 18.4q-.25-.4-.15-.9.15-.5.6-.75l.9-.15q.5.15.75.55.25.45.15.95l-.55.75-.95.15-.75-.6m5.45-3.2q-.25-.45-.15-.95.15-.5.6-.75l.95-.15.75.6q.25.45.1.9l-.55.75-.95.15-.75-.55m5.5-3.25q-.25-.45-.15-.95.1-.5.55-.75l.95-.15q.5.15.75.6.25.45.15.95l-.6.7-.95.15q-.5-.1-.7-.55m5.45-3.25q-.25-.45-.15-.95.15-.45.55-.7l.35-.15-.25 2.3-.5-.5"/><path fill="#c6002f" d="M81.4 125l.1.15q.25.45.15.95l-.55.75-1 .15 1.3-2m5.2-1.4l-.95.15-.75-.55q-.25-.45-.15-.95.15-.5.55-.75l.95-.15.75.55q.25.45.15.95l-.55.75m5.45-3.25l-.9.15q-.55-.15-.8-.6-.25-.4-.15-.9.15-.5.6-.75l.95-.15.75.55.15.95-.6.75m5.5-3.25l-.95.15-.75-.6q-.25-.4-.15-.9.15-.5.6-.75l.95-.15.75.55q.25.45.15.95l-.6.75m5.5-3.25l-.95.15-.75-.6q-.25-.4-.15-.9.15-.5.6-.75l.9-.15q.5.15.75.55.25.45.15.95l-.55.75m-26.15 25l-.9.1-.75-.5.5-1.8.9-.05.7.55.15.95-.6.75m3.8-3.7q-.25-.45-.15-.95.15-.5.6-.75.4-.25.9-.15l.75.6q.25.45.15.95l-.55.75-.95.15-.75-.6m5.5-3.25q-.25-.45-.15-.95.15-.5.55-.75l.95-.15q.5.15.75.6.25.45.15.95l-.6.75-.9.15-.75-.6m5.45-3.25q-.25-.45-.15-.95.15-.5.6-.75l.95-.15.75.6q.25.45.15.95l-.6.75-.95.15-.75-.6m5.5-3.25q-.25-.45-.15-.95.15-.5.6-.75l.95-.15q.5.15.75.6.25.45.1.95l-.55.75-.95.15-.75-.6m5.5-3.25q-.25-.45-.15-.95l.55-.75.95-.15.75.6q.25.45.15.95l-.55.75-.95.15-.75-.6m7.15-2.8l-.9.15-.75-.6q-.25-.45-.15-.95.1-.5.55-.75l.95-.15q.5.15.75.6l.15.95-.6.75m5.05-3.1q-.85.1-1.25-.6l-.15-.65 1.4 1.25m-36 29.5q.25.45.15.95l-.55.75-.95.15-.75-.6q-.25-.45-.15-.95.15-.5.6-.75l.9-.15q.5.15.75.6m5.5-3.25q.25.45.15.95l-.6.75-.9.15-.75-.6q-.25-.45-.15-.95.15-.5.55-.75l.95-.15.75.6m3.35-2q-.25-.45-.15-.95.15-.5.6-.75l.95-.15q.5.15.75.6.25.45.15.95l-.6.75-.95.15-.75-.6m5.5-3.25q-.25-.45-.15-.95.15-.5.6-.75l.9-.15.75.6q.25.45.15.95l-.55.75-.95.15-.75-.6m5.5-3.25q-.25-.45-.15-.95.15-.5.55-.75l.95-.15.75.6q.25.45.15.95l-.55.75-.95.15-.75-.6m5.45-3.25q-.25-.45-.15-.95.15-.5.6-.75l.95-.15q.5.15.75.6.25.45.15.95l-.6.75-.9.15q-.55-.15-.8-.6m5.5-3.25q-.25-.45-.15-.95.15-.5.6-.75.4-.25.95-.15l.75.6q.25.45.15.95l-.6.75-.95.15-.75-.6m7.2-2.8l-.95.15-.75-.6q-.25-.45-.15-.95.15-.5.55-.75l.95-.15q.5.15.75.6l.15.95-.55.75M78.5 154.05l.9-.15.75.6q.25.4.15.9l-.55.75-.95.15-.75-.55q-.25-.45-.15-.95.15-.5.6-.75m7.15-2.8q.25.4.15.9l-.6.75-.9.15-.75-.55q-.25-.45-.15-.95.1-.5.55-.75l.95-.15q.5.15.75.6m3.2-2.95q.15-.5.6-.75l.95-.15.75.55q.25.45.15.95l-.6.75-.95.15-.75-.55q-.25-.45-.15-.95m5.65-2.3q-.25-.45-.15-.95.15-.5.6-.75.4-.25.9-.15l.75.55.15.95-.55.75-.95.15q-.5-.15-.75-.55m5.5-3.25q-.25-.45-.15-.95l.55-.75.95-.15.75.55.15.95-.55.75-.95.15q-.5-.15-.75-.55m5.45-3.25q-.25-.45-.15-.95.15-.5.6-.75l.95-.15.75.55q.25.45.15.95l-.6.75-.95.15-.75-.55m5.5-3.25q-.25-.45-.15-.95.15-.5.6-.75l.95-.15.75.55q.25.45.1.95-.1.5-.55.75l-.95.15-.75-.55m5.5-3.25q-.25-.45-.15-.95.15-.5.55-.75l.95-.15q.5.15.75.55.25.45.15.95l-.55.75-.95.15-.75-.55m-36.6 29.75l.15-.1.95-.15q.5.15.75.55t.15.9l-.45.7-1.55-1.9m7.35-2.95q.25.45.15.95l-.6.75-.95.15-.75-.55q-.25-.45-.15-.95.15-.5.6-.75l.95-.15q.5.15.75.55m5.45-3.25l.15.95-.55.75-.95.15-.75-.55q-.25-.45-.15-.95.15-.5.6-.75l.9-.15.75.55m5.5-3.25q.25.45.15.95l-.6.75-.9.15-.75-.55q-.25-.45-.15-.95l.55-.75.95-.15.75.55m5.5-3.25q.25.45.15.95l-.6.75-.95.15q-.5-.15-.75-.55-.25-.45-.15-.95.15-.5.6-.75l.95-.15.75.55m5.45-3.25q.25.45.15.95l-.55.75-.95.15-.75-.55q-.25-.45-.15-.95.15-.5.6-.75l.9-.15.75.55m3.4-1.95q-.25-.45-.15-.95.15-.5.55-.75.45-.25.95-.15l.75.55q.25.45.15.95l-.55.75-.95.15q-.5-.15-.75-.55m-24 23.7l.15.75-2.25-.8.4-.4.95-.15q.5.15.75.6m3.8-3.7l.9-.15.75.6q.25.45.15.95l-.55.75-.95.15-.75-.6q-.25-.45-.15-.95.15-.5.6-.75m5.45-3.25l.95-.15q.5.15.75.6l.15.95-.6.75-.9.15-.75-.6q-.25-.45-.15-.95.15-.5.55-.75m5.5-3.25l.95-.15.75.6.15.95-.6.75-.95.15-.75-.6q-.25-.45-.15-.95.15-.5.6-.75m5.5-3.25q.4-.25.9-.15l.75.6q.25.45.15.95l-.55.75-.95.15-.75-.6q-.25-.45-.15-.95.15-.5.6-.75"/><path fill="#f1997e" d="M106.15 111.8q4.3.75 7.4 3.25 2 6.1.15 11.8-2.15 6.6-7.9 10.25-6.55 4.2-14.05 1.4-5.05-1.85-6.2-8.65-1.15-6.45 1.85-11.7l.15-.3q5-4.45 9.8-5.65l8.8-.4"/><path fill="#d08575" d="M86.6 123.6l-1.1.1.55-2.4.95.6q.25.45.15.95l-.55.75m5.45-3.25l-.9.15q-.55-.15-.8-.6-.25-.4-.15-.9.15-.5.6-.75l.95-.15.75.55.15.95-.6.75m5.5-3.25l-.95.15-.75-.6q-.25-.4-.15-.9.15-.5.6-.75l.95-.15.75.55q.25.45.15.95l-.6.75m5.5-3.25l-.95.15-.75-.6q-.25-.4-.15-.9.15-.5.6-.75l.9-.15q.5.15.75.55.25.45.15.95l-.55.75M86.2 131.9q-.25-.45-.15-.95.15-.5.55-.75l.95-.15q.5.15.75.6.25.45.15.95l-.6.75-.9.15-.75-.6m5.45-3.25q-.25-.45-.15-.95.15-.5.6-.75l.95-.15.75.6q.25.45.15.95l-.6.75-.95.15-.75-.6m5.5-3.25q-.25-.45-.15-.95.15-.5.6-.75l.95-.15q.5.15.75.6.25.45.1.95l-.55.75-.95.15-.75-.6m5.5-3.25q-.25-.45-.15-.95l.55-.75.95-.15.75.6q.25.45.15.95l-.55.75-.95.15-.75-.6m5.5-3.25q-.25-.45-.15-.95.1-.5.55-.75l.95-.15q.5.15.75.6l.15.95-.6.75-.9.15-.75-.6M93.2 137.25q-.25-.45-.15-.95.15-.5.6-.75l.9-.15.75.6q.25.45.15.95l-.55.75-.95.15-.75-.6m5.5-3.25q-.25-.45-.15-.95.15-.5.55-.75l.95-.15.75.6q.25.45.15.95l-.55.75-.95.15-.75-.6m5.45-3.25q-.25-.45-.15-.95.15-.5.6-.75l.95-.15q.5.15.75.6.25.45.15.95l-.6.75-.9.15q-.55-.15-.8-.6m5.5-3.25q-.25-.45-.15-.95.15-.5.6-.75.4-.25.95-.15l.75.6q.25.45.15.95l-.6.75-.95.15-.75-.6"/></svg>