<svg xmlns="http://www.w3.org/2000/svg" width="478" height="320" viewBox="-0.55 -0.7 477.8 320.2"><path fill="#cea6cc" d="M472.05 41.7q-3.35 26.45-27.65 47.75-25.5 22.4-35.75 37.25-7.65 11.15-9.4 22.95l-3.6 23.6q-2.4 12.25-7.05 20.6-11.5 20.7-47.5 34.05-34.3.25-69.95-1.15-71.4-2.75-78.4-10.85t2.3-27.3q2.85-6 7.05-12.4l3.6-5.2q5.75-12.6 23.2-34.65 21.9-27.6 49.1-51.9Q312.3 53.8 349.1 34q44.25-23.85 89.25-30.3 11.15-1.55 18.05.25 6.8 1.85 10.55 7.3 2.9 4.2 4.45 11.65 1.9 9.05.65 18.8"/><path fill="#b390b1" d="M223.3 144.25q4.6 3.2 19.1-10.6 8-7.55 22.5-22.45-6.3 7.85-7.25 18.05-.45 4.85.7 19.7t22.7 41.65q8.55 10.65 17.35 19.25 8.6 8.35 13.25 10.75-8.35 3.3-26 4.9l-15.8 1.2q-70.15-2.8-77.1-10.8-4.65-5.45-1.95-16.05 1.95-7.85 7.75-17.9 2.9-4.05 11.25-18.25 6.7-11.5 13.5-19.45"/><path fill="#cea6cc" d="M343.65 287.6q2.5 7.1-2.7 9.75-7.95 4.05-13.2.95-6.05-3.6-8.25-16.75-15.35 5.8-27.95 2.9-19.7-4.6-39.25-29.5l-30.85-44.25q30.55-7.75 70.85-.45 16.7 3.05 31.05 8.1 13.7 4.85 21.25 10.05 14.35 9.95 11.1 19.9-3.05 9.3-24.65 26.25 9.9 5.5 12.6 13.05"/><path fill="#b390b1" d="M273.75 219.2q3.55 15.35.1 27-2.6 8.85-11.25 20.4-5.25-5.25-10.3-11.65l-30.85-44.25q15.65-4 34.9-3.9 17.2.1 35.45 3.4-11.3.8-13.65 1.55-5.7 1.8-4.4 7.45"/><path fill="#cea6cc" d="M2.85 98.3q-.05-6.75 1.5-13.45 1.3-5.65 3.05-8.75 3.75-6.65 10-7.4 7.55-.95 21.15 5.85 16.65 8.3 51.4 35.5 37.45 29.35 50.3 46.1l20.3 26q20.1 27.3 18.95 34-1.1 6.7-15.9 17.45-7.4 5.4-14.6 9.45-17.8 2-30.4-.05-13.55-2.15-24.55-9.35-10-6.5-18.2-23.85-2.8-5.85-6.1-14.65l-4.95-13.1q-7.5-18.6-50.3-55.65-11.45-9.85-11.65-28.1"/><path fill="#b390b1" d="M128.55 189.65q.25-25.65-10.1-43.4 18.6 16.65 33.9 21.6 10.2 13.15 18.55 27.3 9.45 16.15 8.6 21-1.1 6.7-15.9 17.45-7.4 5.4-14.6 9.45l-7.45.65q-6.8-4.05-11.05-11.9-3.8-7-4.1-13.9-.05-1.45.95-10.7 1.15-10.05 1.2-17.55"/><path fill="#cea6cc" d="M156.85 295.05q-16.65-4.85-24.45-13.95-6.55-7.65-5.1-15.5 1.1-5.95 16.35-18.85 12.6-10.6 20.8-15.3l2.15-1.25q2.7-1.35 5.55-1.85 9.15-1.65 16.35 5.8 7.25 7.45 7.1 25.7-.1 9.15-1.65 16.8-2 15.85-9.75 20-4.25 2.3-14.5 1.2-.3 2.35-.4 8.3-.4 5.35-2.5 8-2.7 3.45-8.1 2.95-5.3-.5-7.95-4.3-2.2-3.2 1.55-9.75l2.95-4.7q1.5-2.4 1.6-3.3"/><path fill="#b390b1" d="M160.3 253.65q-5.05-7.95-6.7-14.8 7-5.2 10.85-7.4l2.15-1.25q2.7-1.35 5.55-1.85 9.15-1.65 16.35 5.8 7.25 7.45 7.1 25.7-.1 9.15-1.65 16.8l-.05.25q-3.9 2.35-10.25-.55-5.8-2.65-12.3-8.95-6.3-6.2-11.05-13.75"/><path fill="#e5e3da" d="M251.6 264.45q-2 14.45-4.55 19.8-5.4 11.25-17.55 8.55-14.5-3.2-24.5-8.65-10.45-5.7-14.65-13.15-3.35-6-4.65-16.8-.55-4.55-1-15.45.15-10.8 4.7-19.7 9.15-17.8 31.1-8.25 22.7 9.9 29.25 28.8 3.8 10.9 1.85 24.85"/><path fill="#c1bfb8" d="M251.6 264.45l-1.45 9.6q-1.2 6.2-3.15 10.25-1.6-28.3-21.55-39.7-8.7-4.95-19.5-5.5-10.55-.5-21.1 3.3l-.15-3.65q.15-10.8 4.7-19.7 9.15-17.8 31.1-8.25 22.7 9.9 29.25 28.8 3.8 10.9 1.85 24.85"/><path fill="#e5e3da" d="M149.75 223.75l7.7 7.7.4 2.6q.2 2.8-.6 3.75-.9 1.05-4-3.1-3.5-4.7-3.5-10.95"/><path fill="#c1bfb8" d="M147.5 216.85l8.75 5.7 3.5 4.15q3.4 4.35 2.95 5.15-.4.8-2.45.4-2.2-.45-4.6-2.05-6.5-4.45-8.15-13.35"/><path fill="#beaaac" d="M204.7 176.35q8.7 6.15 13.25 19.45 4.15 12.1 2.5 21.35-1.05 5.8-6.25 11.25-5.35 5.6-13 8.6-18.7 7.25-36.05-5.25-3.3-2.35-6.7-7.2-3.75-5.3-6-11.25-5.65-15.15 1.65-25.2l9.6-13.95 41 2.2"/><path fill="#968587" d="M204.7 176.35q8.55 6.05 12.8 18.8 3.7 10.95 2.75 21.35-.35 4.2-3.1 8.4-2.75 4.25-7.15 7.25l-.4-1.15q-5.7-14.9-12.55-20-9.95-7.35-25.2 1.5-2.15 1.25-9.05-6.7-3.7-4.25-10.85-13.85 1.2-2.6 2.15-3.85l9.6-13.95 41 2.2"/><path fill="#e5e3da" d="M147.15 197.3q2.1-4.7 5.4-7.35l-2.65 10.2q-.3 8.15 3.85 16.95 3.6 7.65 8.3 11.55-8.25-1.95-12.1-6.7-3.25-4.05-4.5-12.05-1-6.55 1.7-12.6"/><path fill="#c1bfb8" d="M152 212.9q1.75 5 4.65 9.4 2.65 4.05 5.4 6.35-6.9-1.55-10.7-5.2 1.4-4.1.65-10.55"/><path fill="#e5e3da" d="M208.8 213.6q.3-1.5 1.2-2.1 1.05-.7 1.9 1.2 1.2 2.75 1.5 9.4.4 7.7-1.55 10.8-2.3 3.7-6.35 6.6-3.65 2.6-4.05 1.95l2.8-5.85q3.15-6.6 3.35-11.55l1.2-10.45"/><path fill="#c1bfb8" d="M211.9 212.7q1.15 2.65 1.4 9.3.25 7.55-1.7 10.65-1.7 2.8-4.55 5.35 1.85-2.35 1.9-5.3.05-3.1-2.3-2.45.8-3 .95-6.2l1.2-10.45q.3-1.5 1.2-2.1 1.05-.7 1.9 1.2"/><path fill="#e5e3da" d="M206.1 228.55q-3.05 2.9-8.55 5.1-5.1 2.05-5.6 1.2-.05-.15 3.05-3.95l3.9-4.65 5.9-20q.35-1.75 2.3-1.05 2.1.75 2.3 4.3.45 6.45.15 9.9-.6 6.4-3.45 9.15"/><path fill="#c1bfb8" d="M209.4 209.5q.4 6.1 0 9.9-.7 6.35-3.6 9.1-1.9 1.85-4.4 3.2 3.85-4.2 3.75-8.05-.1-4-4.4-3.65l4.05-13.75q.35-1.75 2.3-1.05 2.1.75 2.3 4.3"/><path fill="#e5e3da" d="M203.2 222.4q-5.05 6.4-12.05 8.2l-4.35.55-1.75-.35 4.4-3.85q5.2-4.3 7.75-9.45 1.75-3.45 2.5-8.85.6-4.15.45-7.5-.1-2 1.95-1.75 2.05.2 2.7 2.85.9 3.45.65 10.05-.3 7.6-2.25 10.1"/><path fill="#c1bfb8" d="M204.8 202.25q.9 3.45.65 10.05-.3 7.6-2.25 10.1l-.65.75q1.85-5.25 1.15-10.2-.75-5.15-3.75-6.65.3-3 .2-5.15-.1-2 1.95-1.75 2.05.2 2.7 2.85"/><path fill="#fff" d="M159 199.75q-1.55 1.85-2.15 3.3-1 2.45-1.25 6.95-3.3-3.05-3.45-7.7-.1-4.4 2.55-8.35l4.3 5.8"/><path fill="#dbdcdc" d="M159 199.75q-1.35 1.6-2 2.9-1.05 2.2-1.1 4.7-.95-6.9-3.05-9.35.7-2.4 1.85-4.05l4.3 5.8"/><path fill="#afcee5" d="M159.1 159.35q4.5 4.75 4.5 11.5t-4.5 11.55q-4.5 4.75-10.85 4.75t-10.9-4.75q-4.5-4.8-4.5-11.55 0-6.75 4.5-11.5 4.55-4.8 10.9-4.8 6.35 0 10.85 4.8"/><path fill="#93aec1" d="M148.25 154.55q6.15 0 10.6 4.55 4.45 4.5 4.7 10.95-9.15-1.25-13.95.1-7.45 2-13.55 10.6-3.2-4.3-3.2-9.9 0-6.75 4.5-11.5 4.55-4.8 10.9-4.8"/><path fill="#beaaac" d="M152.1 144.65l-1.1 30.8q-9.05-13.2-18.2-41.1-7-21.5-8.15-29.8-.7-5.15.7-6.35 1.45-1.2 3.65 3.5 4.85 10.5 10.3 21.2 9.1 17.85 12.8 21.75"/><path fill="#968587" d="M138.65 132.1q-10.35-23.4-11.85-30.8-.35-1.9.75-1.2 1 .6 1.45 1.6 16.4 35.45 22.25 41.6l-1.5 8.75q-.65 3.75-11.1-19.95"/><path fill="#beaaac" d="M177.4 47.5q3.15-5.4 5-4.8 1.85.55.7 6.3-2.75 14-5.2 54.25-2.35 38.05-1.5 43.2l40.3-50.4q4-4.85 5.9-4.65 1.85.2.2 5.1-2.2 6.45-31.4 71.6 1.9 10-8.8 26.9-4.25 6.7-8.8 11.5-4.55 4.8-7 5.15-2.15.3-5.05-2.65-3.15-3.3-5.75-9.15-6.6-15.25-5.25-38.25l.25-13.35q2-34.35 13.4-69 7.25-22 13-31.75"/><path fill="#968587" d="M179.15 49.1q1.8-5.75 3.3-5 1.5.75.65 4.9-2.65 13.4-5.05 51.35-2.25 35.15-1.75 44.9l-3.35 4.55q-1.75 2.4-3.25 5.2-2.7 5.1-2.25-21.2.4-24.1 2-37.1 1.25-9.9 4.55-25.85 3.15-15.3 5.15-21.75m40.45 48.55q2.3-2.9 3.05-2.75.6.1.15 1.6-2.2 6.45-31.4 71.6.45 12.8-10.65 29.3-4.2 6.25-8.45 10.5-4.05 4.05-5.5 3.75-2.3-.5-4.1-2.15-1.65-1.6-1.55-2.75 4.4 3 6.4-5.45l2.15-15.9q.9-6.55 2.75-10.95 1.5-3.5 5.35-9.35 7.8-5.6 24.45-35.55l17.35-31.9"/><path fill="#fff" d="M176.25 197.85q-.5-3.6 2.5-3.85 2.95-.25 3.7 3 1.3 6-.05 9.2-1.1 2.55-3.2 4.55-1.9 1.8-2.35 1.35-.25-.25-.05-3.9.2-5-.55-10.35"/><path fill="#dbdcdc" d="M176.25 197.85q-.2-3.6 2.65-3.85 2.8-.25 3.55 3 .75 3.4.65 5.75-.15 2.55-1.3 4.55-.8-5.85-5.3-7.1l-.25-2.35"/><path fill="#afcee5" d="M200.85 157.95q4.9 5 4.9 12t-4.9 11.95q-4.9 4.95-11.9 4.95t-11.9-4.95q-4.95-4.95-4.95-11.95 0-7 4.95-12Q182 153 188.95 153t11.9 4.95"/><path fill="#93aec1" d="M188.95 153q5.55 0 10 3.35 4.4 3.25 6.05 8.45-10.55-1.75-17.75 1.3-6.65 2.8-13.5 11.1-1.65-3.45-1.65-7.25 0-7 4.95-12Q182 153 188.95 153"/><path fill="#0d131a" d="M144 162.6l6.75 10.85.6 6.15-3.1.6q-3.7 0-6.5-2.7-2.85-2.8-2.85-6.65 0-2.6 1.45-4.85 1.4-2.2 3.65-3.4m35.9 7.3q0-4 2.8-6.85 2.85-2.85 6.8-2.85 3.95 0 6.75 2.85t2.8 6.85q0 4-2.8 6.85-2.8 2.85-6.75 2.85t-6.8-2.85q-2.8-2.85-2.8-6.85"/><path fill="#fff" d="M143.2 159.9q.25 1.35 1.1 3.1l1.5 3.05q-1.2 2.05-3.55 2.05-1.7 0-2.95-1.2-1.2-1.2-1.2-2.95 0-1.7 1.2-2.95 1.25-1.2 2.95-1.2l.95.1m45.8 1.6q0 1.75-1.3 3.05-1.35 1.25-3.2 1.25-1.9 0-3.25-1.25-1.3-1.3-1.3-3.05 0-1.8 1.3-3.05 1.35-1.25 3.25-1.25t3.2 1.25q1.35 1.25 1.3 3.05"/><path fill="#0d131a" d="M469.9 8.2q3.5 5.15 5.25 13.25 2.1 9.6.75 19.9-3.55 27.15-28.75 49.35-27.25 23.9-36.95 37.85-6.8 9.7-8.5 21.3l-1.25 7.8q-2 32.95-16.95 49.1-6.6 7.05-16.95 12.6-7.75 4.2-21.6 9.35l-3.15-1.6q33.3-12.3 44.75-30.55 4.8-7.6 7.3-18.3 1.4-5.85 3.45-20.95l1.1-7.75q1.75-11.7 8.95-22.35 10.3-15.35 36.5-38.35 24.9-21.85 27.5-48.6.95-9.45-1.1-18.25-1.6-6.75-4-10.3-5.5-8-23.3-7.3-17.45.7-45.2 9.65-34.35 11.1-67.95 32.25-26.55 16.7-51.2 38.75-27.8 24.85-49.7 52.7-16.85 21.4-22.45 33.6l-.65-.3.05-1.95-.15-1.95q33.15-54.5 85.7-97.4 51.3-41.95 105.5-60.2Q427.25-.7 447.75.05q17 .65 22.15 8.15"/><path fill="#0d131a" d="M467.25 10.75l.4 2.15q-5.55-3.45-16.45-3.4-11.1.05-24.65 3.7-23.9 6.5-54.25 22.35-31.4 16.35-61.65 38.5-32.7 24-57.8 50.3-27.75 29.05-42.9 57.6l-.8-1.4q15.35-28.7 42.75-57.8 25.05-26.5 57.4-50.5 30.2-22.4 61.65-38.85 30.7-16.05 55.6-22.85 13.65-3.7 24.5-3.55 10.35.1 16.2 3.75"/><path fill="#0d131a" d="M472.5 35.2l-.15 1.95q-21.1-1.45-53.5 10-32.9 11.6-69.7 33.7-38.65 23.3-73.2 52.55-34.8 29.4-59.2 59.6l-.55-1.55q24.95-30.75 58.75-59.9 34.75-29.95 72.7-52.75 37.2-22.4 69.9-33.8 32.7-11.45 54.95-9.8"/><path fill="#0d131a" d="M423.25 63.15q12.55 1.65 22.15 5.65 8.8 3.65 11.05 7.35l-.85 1.55q-2.2-3.6-11.35-7.15-10-3.85-22.95-5.4-33.9-4.15-62.9 9.3l2.8-2q29.35-13.65 62.05-9.3m6.5 39.35l-2.3 2.6q-31.4 6.1-72.6 21.3-82.2 30.3-135.15 76.35l-.7-1.3q53.8-46.9 137.15-77.5 41.8-15.35 73.6-21.45"/><path fill="#0d131a" d="M403.9 133.2q-13.1 3.05-36.15 10.45-26.6 8.55-52.2 18.45-68.65 26.7-93.15 48.65l-1.05-.95q26.05-23.35 96.15-50.3 25.65-9.85 52.65-18.4 22.65-7.2 35.65-10.2l-1.9 2.3"/><path fill="#0d131a" d="M328.25 174.95q22.5 3.6 35.5 16.3 5.2 5.1 6.95 11.35 1.6 5.7.05 10.9l-1.35.7q1.4-4.7-.7-10.6-2.2-6.1-7.3-11.1-12.75-12.5-35.35-16-26.8-4.2-59.5 6.3l1.85-1.5q33.05-10.6 59.85-6.35m17.9 52.35q6.15 4.25 9.4 8.55 3.25 4.45 3.05 8.25-.7 12.55-25.25 30.4 6.35 3.8 9.6 9.1 2.55 4.25 2.55 8.25l.05.15q-.05 2.2-1.35 4.3-1.25 2.1-3.1 3.05-7.6 3.9-13.6.85-6.4-3.2-8.95-17.2-15.35 5.75-27.35 3.3-19.8-4.1-39.15-28.85l.95-3q18.4 23.4 37.45 28.5 13.55 3.6 28.75-2.2l.9-.2.25.85q.6 5.05 2.9 9.85 2.5 5.15 5.45 6.6 4.65 2.4 11.85-1.25 2.85-1.45 2.95-5.05.1-3.35-3.45-8.1-3.85-5.1-9.4-8.15l-.85-.6q0-.25 1.35-1.15 8.95-6.1 16.5-14.95 8.05-9.45 7.85-14.65-.1-3.55-2.95-7-2.65-3.25-8.55-7.35-7.85-5.45-21.35-10.3-14-5.05-30.35-8.05-38.8-7.2-69.35-.1l-.95-1.4q29.7-7.55 70.2-.65 17.15 2.9 31.75 7.9 14.3 4.85 22.2 10.3"/><path fill="#0d131a" d="M346 252.35q3.2 3.05 3.2 6.65H348q0-2.1-3.3-5.3-4.95-4.8-15.7-10.6-11.65-6.3-25.9-11.4-35.7-12.75-67.8-11.7l-.8-1.35q30.65-1.45 66.75 10.65 15.1 5.1 27.3 11.4 11.8 6.15 17.45 11.65m-11.35 20l-1.1 1q-1.9-2.9-12.6-9.8-10.85-7.05-24.55-14.1-35.15-18.2-51.5-18.2l-.1-1.3q17.15 0 51.9 17.65 13.9 7.05 24.75 14.1 10.8 7.1 13.2 10.65m-47.6-6.65q14.6 11.15 17.2 19.35l-1.15.35q-2.65-8.35-19.15-20.15-16.6-11.85-33-16.95l.05-1.25q19.7 6.1 36.05 18.65M5.5 73.1q9.05-13.5 32.65-2.1 14.55 7 49.1 34.25 38.95 30.6 53.9 50.15l-1.55 1.25q-12.9-16.85-50.4-46.1-34.55-27.05-51-35.25-11.2-5.6-18.95-5.25-7.6.35-11.1 6.45-1.6 2.75-2.9 8.15-1.55 6.55-1.6 13.1-.05 18.15 11.4 28.05 18 15.45 30.25 28.45 16 16.9 20.25 27.5l3.1 8.05q6.1 16.4 10.25 24.2 7.05 13.35 15.6 18.95 10.55 6.9 23.45 9.1 12.85 2.2 30.95.15l-2.55 2.2q-18.6 2.1-31.6.1-12.85-2-22.6-8.35-10.25-6.7-18.1-23.7-1.65-3.6-11.55-30.55-2.85-7.75-19.8-25.45-14.4-15.1-31.25-29.6Q-.55 116.5.05 96.3.25 89 2.1 81.85q1.6-6.05 3.4-8.75"/><path fill="#0d131a" d="M5 78.85q6.75-4.85 13.35-4.6 8.35.4 22.15 8.3Q58.6 93 83.1 112.9q29.1 23.65 52.15 49.1l-.75 1.55q-19.55-22.05-49.85-46.8-26.9-21.95-44.35-32-14.35-8.25-22.8-8.6-5.9-.25-11.8 4l-.7-1.3m-1.5 24.2l-.05-1.1 12.95.8q11.75 2.2 26.85 9.5 38.8 18.85 90 61.9l.3 1.1.1 1.15q-44.9-37.05-77.9-55.65-33-18.6-52.25-17.7m148.4 87.55l-.8.9-5.3-4.5h2l4.1 3.6"/><path fill="#0d131a" d="M27.2 137.05l-.85-.65q7.15-5.35 19.35-5.85 17-.7 41.05 8.55l1.9 1.75Q66.4 132.3 48.1 132.4q-14.2.05-20.9 4.65m37.6 43.9l-.75-1.6q16.55 2.15 38.8 8.3 23.45 6.55 42.25 14.6l-.45 1.1q-18.7-7.6-43.5-14.4-23.35-6.45-36.35-8m81.8 34.1l-.4 1.1q-20.15-8.05-44.25-11.25-21.75-2.85-28.55 0l-.5-1.45q7.55-3.15 28.55-.35 23.2 3.15 45.15 11.95"/><path fill="#0d131a" d="M130.15 210.25l2 .65q-11.95-1-21.9 9-7.75 7.75-10.4 16.75l-1.5-.3q2.8-9.6 9.9-17.1 9.55-10.05 21.9-9m28.3 26.15l-.3-1.8 5.9-3.85.85 1.45q-2.25 1.25-6.45 4.2m-2.9 0l1.1 1.3q-10.15 7.35-18 14.65-9.7 9.05-10.5 13.4-1.4 7.55 5.75 15.15 7.75 8.35 22.8 13.35.85.3 1 .65.1.25-.2.95l-2.6 4.5q-2.65 4.05-3.5 6.25-1.4 3.6.05 5.7 1.7 2.5 6.9 3.3 5.6.85 7.8-2 1.45-1.85 2.1-5.6l.45-4.55.2-5.7q-.1-.85.4-.9l2.1.3q9.35 1.1 13.5-1.6 6.55-4.25 8.45-19.45l1.65 1.2q-2.1 16.65-8.5 20.85-4.65 3.05-15.75.65l-.15 4.05q-.1 4.8-.4 6.7-.55 3.9-2.2 6-3.1 3.95-10.8 2.2-7.35-1.7-8.45-5.35-.8-2.7-.15-5 .7-2.5 3.7-7.15 2.55-3.45 2.9-4.35-14.7-4.45-23.1-12.9-7.5-7.55-7.5-15.35 0-6.3 9.75-15.05 4.95-4.45 21.2-16.2"/><path fill="#0d131a" d="M137.4 285.9q-.25-6.05 16.1-26.7 13.8-17.4 20.4-23.25l1.35.3q-6.6 5.85-20.6 24-15.9 20.55-15.7 26.1l-1.55-.45m17.8 8.65l-1.55-.6q1-4.2 13.5-23.4 11.7-18.05 17.45-25.1l.4 1.45q-5.65 7-17.05 25.05-11.8 18.7-12.75 22.6m31.7-28.9l.8 1.1q-2.7 6.45-4 17.5-1.1 8.75-.75 13.1l-1.9.4q-.3-4.25 1.15-13.85 1.75-11.6 4.7-18.25"/><path fill="#0d131a" d="M253.6 263.9l-.25 1.8q-1.15 9.05-3 14.9-2.9 9.35-7.8 12.75-2.4 1.65-6.9 1.75l-8.15-.85q-13.45-2.8-23.7-8.8-10.3-6-14.45-13.4-3.2-5.75-4.55-15.95-.7-5.25-1.05-15.5l-.05-1.8 2-.05.1 1.75q.3 9.25 1.05 14.9 1.3 9.6 4.4 15.15 3.95 7.05 13.85 12.55 10 5.6 24.6 8.75l6.25.3q3.3-.4 5.45-1.9 4.05-2.9 6.4-10.8 1.4-4.7 2.55-13.3l.25-1.85q2.35-17.05-5.4-30.7-7.8-13.65-25.15-22.9l.5-1.6q18.6 9.3 27.05 23.15 8.45 14 6 31.65"/><path fill="#0d131a" d="M231.05 216.5l.9.05q3.15 5.65 2.95 5.85l-1.85.15-2.45.1 3.35 5.9-2.05 1.4-2.4 1.4 1.15 3.65.95 3.45-2.75.6-3.35.25 1 3.9.6 3.15-7.85-1.15q.75 6.5.35 6.85-.25.2-3.1-1.05l-3.4-1.5-1.25 3.8q-.95 2.75-1.25 2.9-.4.15-2.1-1.85l-2.95-3.95-2.05 3.25q-1.65 2.55-2 2.55-.3 0-2.35-2.75l-2.35-3.2-3 2.7-2.85 2.25q-.45 0-5.55-7.5l.3-.8 5.4 7 3-2.65q2.55-2.3 2.8-2.25.3 0 4.55 5.7l2.1-3.2q1.7-2.6 2.05-2.65.3-.1 2.2 2.75l2.35 3.2 1.2-3.45q.95-2.9 1.2-3.05.3-.2 2.8.9l3.25 1.5q-.55-6.15.05-6.35l7.3.95-1.2-4.55q-.45-1.85-.2-2.15l2.3-.4 3.6-.4-1.15-3.6q-.9-3-.85-3.25l4.3-2.7-2.05-3.25q-1.75-2.85-1.6-3.15l2-.25h2.45l-2.5-5.1"/><path fill="#0d131a" d="M243.45 232.05l1.8-.05.05.9-2.35.2 2 3.1q1.55 2.4 1.5 2.7-.05.3-2.35.6l-2.9.3 1.6 5.05 1.35 4.65-6.35-.15.5 3.45q.4 2.85.2 2.95l-5.85-.3.25 4.45-.15.65-.75.05-6.35-.35.05 3.4-.05 3q-.15.25-6.3-1.65l-1.15 3.1q-1.05 2.65-1.4 2.65l-2.9-2.5-3-2.95-1.75 3-1.6 2.4-5.3-5.45-4.25 5.15-1.85-2.25-2.15-3-1.25 2.75-1.2 2.05q-.4 0-4.1-5.2l.7-.55 3.25 4.1 1.25-2.75q.95-2.1 1.2-2.05l2.05 2.45L198 269l2.2-2.8q1.75-2.25 2-2.25.4 0 5.2 5.3 2.85-5.2 3.3-5.35.3-.05 2.8 2.35l2.95 3q2.05-5.15 2.4-5.3l2.75.6 3.15.95-.15-3.3q-.05-2.65.15-2.85.2-.2 3.4-.05l3.85.2-.25-3.45q-.15-1.5.35-1.5l5.4.25-.5-3.4q-.4-2.8-.2-2.95l6.15.15q-3.1-9.3-2.9-9.5l2.2-.5 2.75-.35q-3.8-5.55-3.5-5.9l1.95-.3"/><path fill="#0d131a" d="M249.05 255.55l1.65-.05 1.45.2-.05.9-2.15-.1q.45 7.85.15 8.35l-4.4-.1q0 5.95-.3 6.45-.1.2-2.65 0l-3.1-.3.2 3.65q.15 3.1-.05 3.3-.25.2-3.05-1.4l-3.85-2.35-.3 3.55-.3 3.1q-.2.3-5.15-1.55l-1.35 2.7-1.25 2.55q-.3.1-6.85-3.9-3.95 3.95-4.35 3.9l-3.6-4.25-1.15 2.05-1.1 1.4q-.35.15-7.05-2.65l-2.15-1.8 8.7 3.25 1.15-2.05q.95-1.5 1.3-1.55.45-.05 4.05 4.3l2.1-2.05q1.75-1.65 2-1.6.4 0 6.5 3.65 1.45-3.3 2.25-4.35.45-.6.85-.5l4.3 1.3q.15-4.15.45-5.55.15-.9.55-1 .25-.1 2.35 1.1l4 2.25q-.5-6.15-.15-6.45l2.8.05 3.05.25q-.1-6.05.3-6.35l2.2-.2 2.4.05q-.65-7.9-.4-8.2m-91.8-20.75l-.25-3.4 1.85.45-.05 4.15q-.15 1.95-.7 2.5-.75.75-2.7-.6-4.25-2.95-5.8-7.55-.95-2.85-.95-7.3l1.8 1.55q0 6.85 4.75 10.95l1.7 1.1q.6 0 .35-1.85"/><path fill="#0d131a" d="M146.9 218.1l1.8 1.9q1 3.15 3.3 5.8 2.8 3.25 7.15 5.25 3.1 1.4 1.65-.45l-2.6-3.35 1.45.85 1.45.25 1.05 1.1.75 1q.85 1.95-.05 2.75-1 .8-3.5-.2-6.1-2.45-9.3-6.75-2.65-3.6-3.15-8.15m6.55-26.65l-1.1 2.15q-.7 1.5-1.15 3.8-.4 2.2-.4 4.55v4.7q-.05 1.55-.5 1.5-.4-.05-.8-1.5-1.05-3.95-.1-10.35.4-2.7 1.35-4.6l1.55-2.7 1.15 2.45m51.8-16.35q6.3 4.9 10.55 12.85 4.05 7.55 5.25 16 1.25 8.5-.75 15.5-2.1 7.5-7.45 11.5l.3-2.5q4.25-3.85 5.6-11.1 1.25-6.7-.25-14.7-1.5-7.9-5.2-14.6-3.9-7.1-9.2-10.85l1.15-2.1"/><path fill="#0d131a" d="M158.4 227.4l1.2-.1.85-.5q12.1 10.85 27.2 11.35 12.05.35 18.25-4.65-.35 1.25-2.1 3.2-14.15 6.25-28.1 1.55-9.7-3.3-17.3-10.85"/><path fill="#0d131a" d="M152.05 189.1l.85 1.3q-2.7 2.2-4.6 5.9-2.5 4.75-2.5 10.05 0 2 .25 3.5 1 6.25 3.1 9.85 2.5 4.2 7.45 6.45 2.2 1 2.25.6l-1.6-2.4q-8.5-10.85-7.95-23.05l.65-1.25.6-1q-.35 8 2.55 15.05 2.1 5.15 6.45 10.8 4.1 5.4-2.2 3.05-5.8-2.15-9.15-6.8-3.1-4.25-4-10.25-1-6.4 1.35-12.85 2.35-6.35 6.5-8.95m60.55 23q1.4 3.25 2 9.2.75 7.6-1.5 11.55-2.65 4.8-7.15 7.55-4.1 2.6-5.15 1.95-1-.65.7-3.8l2.85-5.05q1.65-3.25 2.05-5.85l1.85-2.9q-.35 7.3-5.1 14-1.05 1.55-.8 1.7.3.15 2.05-1 4.1-2.7 6.8-7 1.65-2.65 1.65-8.95 0-3.25-.45-6.45-.4-3-.9-4.2-.45-.95-1.1-.8-.45.1-.8.65v-1.45q.2-.75 1.2-.75 1.1.05 1.8 1.6"/><path fill="#0d131a" d="M205.15 204.35l1.55-.25q3.35.2 3.75 4.65 1.7 15.95-2.85 20.25-4.8 4.65-12.35 6.1l-4.25.25q-.95-.5 1.15-2.55l3-3.25 1.45-1.75 2.7-1.35q-2 3.3-5.65 6.85-.75.75-.55.9l1.25-.2q6.65-1.55 11.15-5.8 3.65-3.45 3.65-13.45l-.15-5.25q-.3-2.85-1.85-3.55l-1.6-.15-.2-.75-.2-.7"/><path fill="#0d131a" d="M202.85 222.1q1.85-2.35 2.15-9.75.3-6.5-.6-10-.55-2.25-2.25-2.55-1.65-.35-1.55 1.35-.1 6.3-1.15 11.25-.85 4.1-2.1 6.2-4 6.8-10.05 11-1.1.75-.9 1l2.2-.1q4.25-.7 8.5-3.35 3.65-2.35 5.75-5.05m2.9-20.6q1.05 3.75 1 10.75-.1 8.15-2.2 10.8-2.8 3.6-7.05 5.95-4.35 2.4-9.25 2.95-3.6.4-3.85-.75-.2-.95 1.45-2.3 7.9-6.65 10.4-11.95 1.55-3.3 2.2-8.6.4-3 .5-7.75.1-2.9 3-2.65 2.9.3 3.8 3.55m-51.55-7.95l1.05 1.45q-2.3 3.5-2.55 7-.2 3.25 1.5 5.8l.9 1.1.3-1.75q.1-2 .5-3.75.45-1.9 1-2.55l1.25 2.1q-1.4 1.65-1.7 6.05-.1 1.55-1 1.5-.85-.05-2-1.4-2.65-3.2-2.2-8.5.45-5.1 2.95-7.05m-18.4-30.7q-2.1 3.65-2.1 8 0 6.4 4.25 10.95 4.25 4.5 10.3 4.5l3.9-.55.4 1.6-4.3.65q-6.8 0-11.85-4.9-5.15-5-5.15-12.05 0-4.75 2.6-8.95 2.5-4.05 6.6-6.3 0 .65.85 1.5-3.45 2-5.5 5.55"/><path fill="#0d131a" d="M125.75 99.3q-.8.85-.25 5.15.95 7.35 7.9 28.15 8.95 26.9 18.05 40.15l-.9 3.6q-10.2-15.1-18.8-40.65-6.4-18.95-8.2-30.4-1.15-7.15 1.4-8.95 2.5-1.75 4.85 3.3 2.4 5.25 9.55 19.3 8.85 17.45 12.45 23.1l-.35 3.15q-3.75-4-12.75-21.6-6.05-11.8-10.5-21.55-1.6-3.55-2.45-2.75"/><path fill="#0d131a" d="M151.5 189.4q-2.3-10.4-2.15-23.3.1-7.2 1.15-7.6 1.1-.4 1.1 8.4 0 11.2 2.05 21.05 2.6 12.4 7.8 18.65 3 3.6 4.25 3.95 1.1.3 3.35-1.35 3.95-3.05 7.3-7.9l.25 1.7.1 1.7-5.15 5.25q-3.3 2.65-5.35 2.5-2.55-.15-6.2-4.25-5.75-6.55-8.5-18.8m33.95-2.55q1.7.8 2.55.6-1.7 4.3-5.75 10.05 0-1.85-.7-2.85 2.05-3.15 3.9-7.8M215.2 95.4q6.3-7.45 8.95-5.5 2.7 1.95-1.4 11.65l-10.7 24.75-13.3 29.65-2.25-1.65q14.55-32.8 23.7-54.35 2.35-5.5 2-6.85-.45-1.55-4.7 3.6-28 34.2-40.7 50.25-8.1 10.3-8.15 8.6-.1-1.65 7.9-12.1Q195.95 118 215.2 95.4"/><path fill="#0d131a" d="M172.65 52.2q6.25-12.1 9.65-11.85 3.55.3 1.95 14-2.55 22.1-4.95 50.7-2.7 32.6-2.15 40l-2.5 3.35q-.7-4.2 1.75-39.3 2.55-36.15 5.05-54.75 1.3-9.45.05-10.1-1.3-.65-5.35 7.85-7.6 16-14.45 41.15-7 25.75-9.2 46.5-.9 8.6-1.85 8.4-1-.15-.7-8.2.55-15.65 8.3-45.35 7.65-29.4 14.4-42.4m6.15 142.4q-.85.15-1.4.85-.65.85-.55 2.35l.25 2.3q.55 4.45.1 9.75-.1 1.4.15 1.45l1.85-1.5q3.3-3.25 3.3-7.7 0-2.25-.65-5-.3-1.3-1.2-2-.85-.6-1.85-.5m-.1-1.65q1.4-.2 2.7.7 1.4.95 1.8 2.8 1.25 5.75.3 9.2-.85 3.15-3.9 5.75-2.3 1.9-3.1 1.65-.75-.25-.55-2.95.45-4.85-.45-9.8l-.35-3.1q0-1.8 1.25-3.05 1-1 2.3-1.2m21.55-34.35q-4.7-4.75-11.3-4.75-6.65 0-11.3 4.75-4.7 4.7-4.7 11.35 0 6.65 4.7 11.35 4.65 4.7 11.3 4.7 6.6 0 11.3-4.7 4.65-4.7 4.65-11.35 0-6.65-4.65-11.35m-11.3-6.75q7.3 0 12.8 5.5 5.45 5.45 5.45 12.8 0 7.4-5.15 12.85-5.25 5.45-12.5 5.45-7.35 0-13-5.55-5.65-5.6-5.65-12.95t5.35-12.7q5.4-5.4 12.7-5.4"/></svg>