<svg xmlns="http://www.w3.org/2000/svg" width="157" height="124" viewBox="0.0 0.0 156.95 124.4"><path fill="#b9bf9c" d="M101.1 57.9l18.5 6.2.75.1 2-.2 2-.5 2 .05.2.1.75-.05q.95 0 3 .85 1.9.75 2.5 1.3 1.2.5 2.55 2.2 1.45 1.8 2.45 2.4 1.25.7 2.65 1 1.2.3 2.45 1.1.85.55.85 1.65l1.2 2.5.15 1.4 7.35 5.15q3.95 2.9 3.95 5 0 4.75-2.35 7.55-2.25 2.65-8.25 5.4-.95.4-3.85 3.05-2.8 2.5-4.2 2.95-1.8.55-6.1 0l-5.05-.35-6.8 6.5q-6.25 6.15-9.85 6.5-.75.1-5.7-2.65t-5.7-2.7q-2.55.2-5.55.05l-5.9-.05q-1.3.05-5.1 4.25-3.8 4.15-5.15 4.15-15.2 0-21-2.95-1.4-.75-2.55-4.8-1.2-4.05-2.25-4.65l-2.9-1.7q-.9-.45-3-1-2.35-.65-8.6 2.75t-7.3 3.05q-6.3-2-9.15-3.4-3.5-1.7-6.75-4.6-1.35-1.2-2.05-4.5-.75-3.65-1.4-4.6L7 91.95l-2.95-4L1.7 84.9q-1.1-1.85-.4-3.35 1-2.2 5.4-5.3l7.1-4.85.65-.55q0-2 .3-2.5.4-.7 1.25-1.1.4-.2.75-.25l.8-.85L19.1 65q5.15-1.5 6.4-2.15 1.8-.85 3.25-2.6l1.25-1.1q.9-.6 1.5-.8l3.4-.15 1.1-.05 1.4-.2 4.1.55.1.3q17.8-4.7 38.8-4.7 8.85 0 20.7 3.8"/><path fill="#92967b" d="M97.35 80.05L96.4 78l6 .1q.8.15 3.35 4.25l4.2-2.35 4.25-1.05 4.4-.95q.65 0 .7-.8l.1-12.75 3.1-.4 4.05-.4q1.15-.05 5.25 1.55.95.4 3.1 2.6l2.5 2.55q.45.35 2.75 1l2.7.8q.7.35 1.9 5.4l1.05.7 1.65.95 4.6 3.5q3.95 3.3 4 3.7.15.75-.1 3.2-.25 3-.95 4.65-.65 1.55-5.5 4.55l-4.75 2.7-1.65 2.45q-.8 1.15-5.1 3.15-1.2.5-11.9-.3l-3.75 4.3q-2.15 2.5-12.4 8.65-2-18.5-1.85-21.55.1-1.7-4.2-7.2-4.65-5.95-5-6.95l-1.55-4"/><path fill="#0d131a" d="M108.7 12q12.05 12.05 12.05 28.3l.15 43.55q0 3.2-10.55 5.4-11.6 2.35-31.2 2.35-18.5 0-30.3-4.2-9.7-3.5-9.7-7.05l1.2-41q0-16.2 11.9-27.8Q64.05 0 80.4 0q16.3 0 28.3 12"/><path fill="#865b15" d="M117.6 40.3l.55 39.05q0 3.5-10.25 6.7-11.2 3.55-26 3.55-17.35 0-28-2.7-12.25-3.05-12.25-9.05l1.5-37.55q0-15.45 10.9-26.35 10.9-10.9 26.35-10.9 15.4 0 26.3 10.9t10.9 26.35"/><path fill="#6a4504" d="M107.3 14.6q4.9 5.1 7.55 11.6 2.75 6.7 2.75 14.1l.55 39.05q0 3.5-10.25 6.7-11.2 3.55-26 3.55L71 89.3q2.5-2.25 5.2-3.95 19.4-12.75 26.75-32.1 6.05-16 4.35-38.65"/><path fill="#0d131a" d="M90.2 33.85q4 2.05 4 5t-4 5q-4.1 2.05-10.3 2.05-6.2 0-10.35-2.05-4.05-2.05-4.05-5t4.05-5q4.15-2.1 10.35-2.1 6.2 0 10.3 2.1m2.2-4.6q-2.45 0-2.45-7.4 0-7.45 2.45-7.45 2.5 0 2.5 7.45 0 3.6-.7 5.55-.65 1.85-1.8 1.85m-25 0q-1.2 0-1.85-1.9-.65-1.9-.65-5.5 0-3.8.75-5.75.65-1.7 1.75-1.7 2.45 0 2.45 7.45 0 3.45-.75 5.5-.65 1.9-1.7 1.9"/><path fill="#eb6d80" d="M88.9 35.1q3.75 1.55 3.75 3.75T88.9 42.6q-3.7 1.55-9 1.55-5.25 0-9-1.55t-3.75-3.75q0-2.2 3.75-3.75 3.7-1.55 9-1.55t9 1.55"/><path fill="#cb5e71" d="M92.4 37.8l.25 1.05q0 2.2-3.75 3.75-3.7 1.55-9 1.55-4.9 0-8.5-1.35-3.6-1.35-4.15-3.35 5.1 2.75 11.3 2.75 8 0 13.85-4.4"/><path fill="#b9bf9c" d="M82.15 86q1.65-2 2.35-2.5.75-.5 3.55-1.4l.4-1.55q.5-1.6.95-1.8l6.4-.5q5.55-.75 6.6-.15.9.5 2.9 3.5l2.25-.35 2.05-1.05q1.65-.9 2.3-.95l1.75-.45 2.15-.45 2.35-.15q1.2-.1 1.5-.6l2.05-1.55q1.55-.95 1.95-1.05l2.4-.1 3 .35q2.2.7 3.25 1.75l1.7 1.95q1.35 1.5 2.4 2.15l2.9 1.8 2.25 1.7 2.25 2.75q1.55 2.3 1.55 4.1l-1.3 1.6q-1.5 2.05-2.45 4.4-.95 2.3-4.45 3.25-3.95.7-5.2 1.15l-5.55-.4-4.6-.9q-.8.2-2.35 5.95l-1.6 6.6q-.15.7-4.65.95l-5.35.45q-.4.2-6.45-2.5-6.45-2.9-9.3-2.55l-8.4.95q-5.25.8-5.85 1.8-.7 1.15-2.65 1.95-2 .8-3.6.55l-3.85-1.35-6.4-.4q-3.1.55-9.2-6.1-6.2-6.8-7.75-6.8-2 0-7.9 3.4-5.3 3.05-5.55 2.5l-5.35-.35-6.55.35q-1.5-.25-3-3.7-1.35-3.1-1.35-5.05 0-1.35 2.2-3.9l2.2-2.3q.85-1 2.45-1.9l1.9-1.25q.75-.95 6.2-5.25 7.25-5.85 8.6-6.1l2.5.2q1.35.35 1.9.8l1.25.5q.85.05 1.5-.4l3.35-2.5q.3-.15 3 0l3.9.25 2.5.25q1.3.2 1.85.65l2.45 2.35L65 81.1q.85.65 2.35 1.3l2.15.6 2.95-.5 3.05-.4q1.15.15 6.65 3.9"/><path fill="#92967b" d="M96.45 78.15l1.8-.15 4.15.1q.9.5 2.9 3.5l.45.75 4.3-2.4L117 78.3q2.3-.1 2.65-.7l2.05-1.55q1.55-.95 1.95-1.05l2.4-.1 3 .35q2.2.7 3.25 1.75l1.7 1.95q1.35 1.5 2.4 2.15.8.55 3.65 1.6 2.5.9 3 1.45 4 4.7 4 7.45l-1.7 2.05q-1.9 2.5-2.85 4.85-.95 2.35-4.45 3.75-3.95 1.15-5.2 1.6-1.45.5-5.85-.55l-4.95-1.05q-.8.2-2.45 5.75l-1.7 6.4q-.2.75-3.35.7-3.2-.05-5.2-.85-1.35-14-1.25-16.05.1-1.7-4.2-7.2-4.65-5.95-5-6.95-.95-2.85-2.45-5.9"/><path fill="#f6c7ce" d="M75.25 38.85l-4 .1q-1.75-.35-1.9-1.2-.2-.85 1.35-1.75 1.5-.95 3.8-1.35l4.05-.1q1.75.35 1.9 1.2.15.85-1.35 1.8-1.55.9-3.85 1.3"/><path fill="#fff" d="M68.45 17.75l-.3 1.45q-.35.6-.8.6-.5 0-.8-.6-.35-.6-.35-1.45t.35-1.45q.3-.6.8-.6.45 0 .8.6l.3 1.45m25.1-.05l-.3 1.45-.8.6q-.5 0-.8-.6-.35-.6-.35-1.45t.35-1.45q.3-.6.8-.6l.8.6.3 1.45"/><path fill="#92967b" d="M75.65 98.7q4.3-1.65 5.1-1.15.8.5 3.1 8.25 2.25 7.8 1.85 8.85l-3.1 3.75-3.15 2.75q-2.4 1.75-3 1.85-15.6-.7-15.6-2.35 0-1.7 4.35-9.9 3.7-6.85 5.25-9.15.9-1.25 5.2-2.9m-60.3-1.1q3-7 3.55-7.3 4.55-2.1 5.2-2.9l2.4-2.45 2.4-2.1 5.9-4.3 2-1.55q1.5-1.05 2.15-1.05l4.55 2.45q.45.25 1.25 4.6l.85 6q.1 2.2-.8 18.45-14.6 6.15-15.55 6.05-.65-.05-8.4-4.1-7.55-3.95-8.1-4.4-.4-.35 2.6-7.4"/><path fill="#0d131a" d="M99.5 78.5l-4.45.1-3.15.25q-1.95.25-2.35.65-.4.4-.85 1.85l-.4 1.4q-2.75.6-3.65 1.35-.55.45-1.2 1.8l-.95 1.95q-.35.7-.75 2.15-.35 1.35-.35 1.85l.05 1.1q-.05.6-.45.65-.45.1-.9-.7-.4-.8-.35-1.55l1.25-5-2.05-1.75Q76.9 83.1 76 82.85l-3.3.25-3.95.5q-1.6 0-3.55-1-1.8-.9-2.3-1.75-2.55-3.95-3.65-4.6l-3.4-.3-3.35.15q-3.9-.35-4.85.65l-1.9 1.35q-1.3.75-2 .75-.55 0-2.1-.9l-2-.95q-.65-.1-2.4.75t-2.5 1.6l-3.3 2.8L28 85.1l-2.25 1.95-2 1.7q-.45.5-2.35 1.3l-2.3.95q-.45.25-.75-.35-.3-.65.2-.9l2.15-.9q2.45-1.3 3.85-3.05 1.65-2.05 7.45-6.2 5.7-4.15 7-4.3 1.7-.2 2.45.75l.9.5 1.7.45q1.5 0 2.85-1.35 1.75-1.75 4.85-1.3l4.95.4 4.05.55q.75.3 1.7 1.85l1.5 2.25q3 3 5.45 3l3.35-.65 2.65-.65 2.3.55q1.4.5 2 .95l2.65 2.45q.7-1.4 2.95-2.7 1.1-.65 2.1-1.05.55-1.7.95-2.45.25-.55 1.75-1.15 1.5-.55 2.75-.55h5.45l2.95-.15q1.95-.05 2.3.55l2.25 3.75 3.75-1.9q1.1-.55 9.55-2.25l2.65-2.05 2.4-1.3 1.95.35 2.95.6 2.45.75q1.55.55 2.05 1.3 2.45 3.55 4.3 4.5 1.5.75 3.6 3 .4.65-.3.55-.6-.1-1.35-.6-.4-.3-3.15-1.6l-3.5-1.9q-.75-.55-1.7-2.45l-1.15-2.05q-.45-.35-3.45-.55-2.9-.15-3.45.05l-1.75 1.4-2.1 1.45-4.75.95-4.5.95-3.4 2.1 4.1 2q4.2 2.1 4.65 2.65.45.55.5 2.5l-.1 2.75q0 .8-.5.85-.45.05-.65-.6l-.25-2.05-.25-1.95q-.15-.5-2.35-1.9l-2.65-1.6-4.25-2.4q-.45-.3-1.3-2l-.95-2-3.4-.35"/><path fill="#0d131a" d="M22.3 70.6l1.7-1.1 2.45-1.5 2.6-1.45 3-.25q2 .25 4.65 1.55 2.65 1.3 3.6 2.55.75.95.9 2.15.15.8-.65 2t-.8.5L39.5 72q-.05-.65-2.2-1.9-1.85-1.1-2.8-1.35l-2.75-.6-2.85.1L22.35 72l-3.85 1.7-3.25 1.55q-.55.4-2 3.35l-.75 1.75q-.4.95-1 1.4-.8.6-1.2.55-.45-.1-.2-1 .4-1.25 1.9-3.85 1.35-2.4 1.85-2.9.35-.35 4.05-1.95l4.4-2"/><path fill="#0d131a" d="M120.15 65.1q-1.15 0-1.65-.7t.55-.9l3.55-.5 4.05-.25q1.35.1 4.15 1 2.95.95 3.25 1.5l1.6 2.4q1.4 1.85 1.9 2.1l3.1 1 2.8 1 .9 2.25.8 2.85q4.3 2.25 7.75 5 3.2 2.65 3.85 4.2.2.45 0 4.5-.2 4.2-.7 4.8-.85 1-4.3 3.35-4.1 2.75-6.7 3.6-2.5 4.65-6.05 5.95-1.2.45-6.7 0l-5.8-.55q-1.85 3-7.65 8.15-6.4 5.65-8.9 5.55-1.6-.05-6.25-2.9l-4.5-2.85q-.55-.15-5.85 0l-6.75.15-3.95 4.25q-4.1 4.1-5.95 4.35l-11.9-1q-9-1.4-10.25-2.25-.55-.35-2.1-4.9l-1.45-4.6q-.55-.45-3.2-1.8-2.7-1.4-3.25-1.5l-7.55 3.4-7.75 3.4q-1.6.15-17.15-9.4-2.15-4.6-2.3-7.9-.05-.65-1.75-2.5l-3.1-3.4Q0 85.85 0 82.05q0-1.85 4.6-5.85 4.65-4.05 8.75-5.75.65-.3 1.25-1.8 0-.55.15-.8l1.3-1.65q1-1 1.7-1.45.55-.35 3.75-1.15l3.65-1 2.7-2.35 2.65-2.4 1.9-.3 1.85.05 1.7-.55 1.55-.6q.75 0 4 1.25.6.15.35.9t-.7.65l-3.65-.75-1.55-.1q-.8.1-1.2.35l-1.85.2-2.15.15q-.35.1-2.35 2.2l-2.5 2.2-3.75 1.25-3.55 1.35-1.05 1.15-1.2 1.85-.15.25q-.85 2.15-2.2 2.75-3.8 1.6-8.15 5.4-3.95 3.45-4.05 4.55 0 1.35 1.75 4l3.55 4.6 3.25 4.25q1.15 1.75 1.2 2.9.1 2.85 2.05 6.95 14 7.7 15.65 7.85l7.35-2.95q7.25-3.15 8.05-3.05.95.1 4.15 1.75t3.6 2.25l1 2.45q2.05 5.6 2.55 6.05 1.15.6 9.4 1.9l11.15.95q2.35-.3 6.95-6 1.3-1.55 1.75-1.95.55-.5 1.05-.5l6.25.1 7.1.3q.35.05 2.4 1.3 5.8 3.55 7.95 3.65 1.95.05 8.35-5.35 6.2-5.2 6.85-6.95.15-.5.7-.6l4.15.15q6.85.5 8.45-.1 1.95-.75 3.6-2.5l1.65-2.3q.2-.35.5-.45 2.2-.6 6-3.5l4-3.4q.5-.55.9-3.35.4-2.9 0-3.8-.5-1.25-3.1-3.5-3.25-2.9-7.5-5.05l-.55-.65-.15-.55-.75-2.35-.05-1.05q0-.45-.7-.7l-2.75-.6q-2.05-.55-2.75-1.5l-2.15-2.25-2-1.5q-5.05-2.5-6.25-2.65l-3.05.35-3.2.4"/></svg>