<svg xmlns="http://www.w3.org/2000/svg" width="274" height="231" viewBox="-0.5 -0.05 274.25 230.95"><path fill="#b9bf9c" d="M11.3 195.1l9.75-5.2.05 5.65L8 205.65q-3.5-1.1-4.85-2-1.4-.9-1.5-2.15-.05-1.05 9.65-6.4"/><path fill="#b9bf9c" d="M234.1 179.2l2.55 1.4q3.6 1.65 8.8 3 6.85 1.8 11.05 6 2.1 2.1 2.8 3.85l2.1.4q2.85 1.1 6.55 4.7 5.8 5.8-5.8 6.4l-9.85 5.2q-10.3 5.15-12.4 4.9-2.15-.25-12 2.15l-11.1 2.95-11.15.95q-9.75.4-13.3-.2l-11.6.5-7.8 1.1-6.5 3.1q-10.45 1.7-18.8 2.1-5.2.3-19.9-4.2l-13.7-4.5q-7.75 5.35-9.9 6-2.2.7-15.9.15-14.65-.6-17.7-2.3-4.7-2.6-17.4-5.15-5.5-1.05-7.6-2.7-1.25-1-3.3-4.65-10.45 3.5-16 3.8-2.15-2-10-3.6L7.6 209q-1.05-.3-.5-2.7l.8-2.35 10.2-7.2q2.1-1.75 9.05-17.7l8.05-6 198.9 6.15"/><path fill="#92967b" d="M41.4 188.5q11.65-5.95 16 3.75.35.6-2.9 7.05-3.4 6.65-2.9 8.25.6 1.9-4.65 2.65l-5.35.35q-9.8 3.3-15.35 3.6.8-2.35 1.95-8.65 1.1-6.1 1.55-7.35.45-1.25 3.8-4.2 3.85-3.4 7.85-5.45m112.3 29.45q1-.05 4.55 2.8 3.8 3.05 5.1 5.3l-15.65 1.65 3.9-7.2q1.4-2.5 2.1-2.55m-55.1-2.55q1 0 4 2.55 2.75 2.3 5.35 5.15-2.8 1.65-3.8 1.9l-4.9.35-9.25-.15q1.7-3.05 4.6-6.4 3-3.45 4-3.4"/><path fill="#92967b" d="M234.1 179.2l2.5 1.55q3.55 1.75 8.85 2.85 5.1 1.05 8.25 3.45 2.6 1.95 5.6 6.4l2.1.4q2.85 1.1 6.55 4.7 3.65 3.65-.7 5.4l-5.1 1q-8.4 3.9-11.25 5.4-7.75-.55-22.35 1.45-15.55 2.1-17.7 4.6-1.65 1.95-15.4-3.05-14.15-5.15-15.85-4.2-3.25 1.95-12.6 3.95-10.05 2.15-12.4.7-2.9-1.85-6.8-6.6-4.45-5.45-6.85-10.9-7.45 9.65-12.3 13.55-4.65 3.75-13.5 7.4l-3.5-3.45q-3.05-3.3-4.2-2.65-9.65 2.35-26.6-5.55-15.4-8.4-16.95-8.3-1.8.1-7.35-7.35Q49 179.45 44.1 173.3l190 5.9"/><path fill="#92967b" d="M238.95 171.8q4.05 3.9 4.5 5.25l1.25 6.5-11-4.65 1.3-10.7 3.95 3.6"/><path fill="#865b15" d="M220.2 44.6q5.15 25-2.75 68.45L131.6 137.3l-17.45-62q-2.35-19.6.8-32.5 4.2-16.9 18.75-30.05 6.05-5.45 15.8-8.3 9.1-2.65 19.6-2.5 10.3.2 19.2 3 9.35 2.95 14.8 8.1 13.15 12.35 17.1 31.55"/><path fill="#6a4504" d="M206.45 17.85q11.05 12.4 14.2 31.5 4 24.15-3.2 63.7L131.6 137.3l-4.65-16.6q16.45-1.8 23.8-3.65 13.5-3.4 20.8-10.5 9-8.25 13.95-14.65 5.9-7.55 9.65-16.55 7.15-17.35 11.3-57.5"/><path fill="#865b15" d="M100.5 62.4q9.8 3.1 16.05 9.35 11.8 11.7 15.5 31.05 2.4 12.4 1.9 34.8l3.2 56.4q-7.45 2.35-9.7 2.55-1.2.1-4.5-1.2t-4.25-1.2l-21.9 2.95-15.3-5.1-14.85 1.4-3.3-3.25q-3.5-3.7-4.35-6.15-2.05-2.5-16.65-4.2-2.1-.25-4.1 1.5l-1.55 1.8-1.1-2.7q-7.7-44.95-4.35-70.35 2.9-21.75 15.25-35.8 5.7-6.45 15.1-10.3 8.95-3.6 19.3-4.05 10.4-.4 19.6 2.5"/><path fill="#6a4504" d="M113.5 96.95q.8-13.1 6.15-21.85 9.7 11.6 12.8 29.85 1.95 11.75 1.5 32.65l3.2 56.4q-7.1 2.65-9.35 2.9-1.2.1-4.7-1.35-3.45-1.5-4.4-1.4l-21.9 2.95-9.75-3.25q17.65-12.75 22.85-43.35 1.85-10.95 2.6-27.15l1-26.4"/><path fill="#865b15" d="M214.7 110.85q13.35 12.25 17.25 32.35 2.9 15.1 1.3 43.55-4.95 1.5-7.15 3.5-1.3 1.15-4.95 6.05l-4.25 5.55q-.7.75-4.7-1.1-4.45-2.1-5.95-1.9-1.4.2-4.5 3.05-3.05 2.85-5 3-1.7.15-8.85-2.85-7.5-3.15-11.1-3.35-3.95-.2-10.85 4.75-8.35 6-9.7 6.5-3.2 1.2-7.75-.4-4-1.9-4.45-1.95-1-3.9-9.4-7-6.3-41.2-3.3-59.25 1.5-8.7 5.35-15.7 3.1-5.55 9.5-12.8 5.65-6.4 14.95-9.9 8.65-3.3 18.9-3.4 10.05-.15 19.15 2.75 9.4 3 15.5 8.55"/><path fill="#6a4504" d="M214.7 110.85q13.35 12.25 17.25 32.35 2.9 15.1 1.3 43.55-4.95 1.5-7.15 3.5-1.3 1.15-4.95 6.05l-4.25 5.55q-.7.75-4.7-1.1-4.45-2.1-5.95-1.9-1.4.2-4.5 3.05-3.05 2.85-5 3-1.5.1-5.85-1.7l-8.05-3.15q7.6-1.75 13.95-12.15 5.95-9.75 9.3-24.55 3.4-14.8 3.2-30.1-.15-16.25-4.4-28.75 5.7 2.6 9.8 6.35"/><path fill="#fff" d="M149.15 30.8q.05.85-.45 1.45t-1.2.65q-.7.05-1.25-.5-.5-.6-.6-1.45-.05-.8.45-1.45.5-.6 1.2-.65.7-.05 1.25.55.55.55.6 1.4m28.2-.4q.05.85-.45 1.5-.5.6-1.2.65-.7.05-1.25-.55-.5-.55-.6-1.4-.05-.85.45-1.5.5-.6 1.2-.65.7-.05 1.25.55.55.55.6 1.4M64.95 93.2q.1.8-.4 1.45-.5.6-1.2.65-.7.05-1.25-.5-.55-.6-.6-1.45-.05-.85.45-1.45.45-.6 1.2-.65.7-.05 1.25.55.5.55.55 1.4m27.25-.95q.05.85-.4 1.45-.5.6-1.2.65-.75.05-1.3-.5-.5-.6-.55-1.45-.05-.85.45-1.45.45-.6 1.15-.65.7-.05 1.25.55.55.55.6 1.4m71.65 38.55q.05.85-.4 1.5-.5.6-1.2.65-.75.05-1.3-.55-.5-.55-.55-1.4-.05-.85.45-1.45.45-.6 1.15-.65.7-.05 1.25.5.55.6.6 1.4m26.95-.6q.05.85-.45 1.45-.45.6-1.2.65-.7.05-1.25-.5-.5-.6-.55-1.45-.05-.85.45-1.45.45-.6 1.15-.65.7-.05 1.25.55.55.55.6 1.4"/><path fill="#b9bf9c" d="M33.9 188.5q4.35-8.65 7.3-8.75 4.45-.15 16.7 3.15l1.85 3.6-.7 2.5q-1.25 2.75-3.9 4.25-7.5 4.3-15.05 8.55-8.5-2.65-9.45-3.85-.95-1.1 3.25-9.45m14.45 16.6q1.4.45 3.7 3.65 2.45 3.45 2.35 5.6-.1 2.25-.55 2.8-.35.5-1.9.6-1.3.1-3.9-1.2l-2.35-1.35-2.15-1.85q-2.1-2.05-1.75-3.05.5-1.35 2.9-3.4 2.55-2.2 3.65-1.8m25.6-10.2l2.95-3.05 2.25-1.25q2.4-1.2 3.2-.9 1.3.4 3.5 3.8l-1.1 3.9q-1.25 4.15-2.15 5.55-1 1.6-5.75-.05-4.65-1.65-5.25-3.4-.45-1.3 2.35-4.6m31-4.8q1.3-.1 4.25 2.2l2.7 2.3 1.25 1.95q1.4 2.25 1.85 3.75.45 1.55-4.8 4.15l-5.4 2.3q-3.45-1.4-5.1-2.85-1.05-.95-2.15-3.55-.95-2.2-1-3.15-.05-.8 3.4-3.85 3.55-3.1 5-3.25"/><path fill="#92967b" d="M104.05 190.4l.9-.3q1.3-.1 4.25 2.2l2.7 2.3 1.25 1.95q1.4 2.25 1.85 3.75.4 1.35-3.75 3.6-2.5 1.35-5.9 2.65 1.7-8.35-1.3-16.15"/><path fill="#b9bf9c" d="M155.75 221.4q2.4-1.75 6.7-.1 4.35 1.7 4 4.3-.2 1.9-3.8 2.45-3.85.65-6.65-1.85-1.3-1.1-1.15-2.75.05-1.45.9-2.05m52.3-7.1q1.45.6 3.55 3.75 2.15 3.15 2.5 5.2.45 2.85-7.6 3.2-1.4.05-7.05-2.05l-6.2-2.5q-.8-.5-.9-5.5-.15-5.1.95-5.65 1-.55 7.25 1.15 5.45 1.5 7.5 2.4"/><path fill="#92967b" d="M208.05 214.3q1.45.6 3.55 3.75 2.15 3.15 2.5 5.2.45 2.85-7.6 3.2l-.55-.05q.55-3.4-1.4-8.3l-2.8-3.35-2.8-3.25 5.55 1.55 3.55 1.25m43.5-3.55q-1.1-1.2-.9-3.5.25-2.6 2.4-3.4l8.2-.55q4.85.3 5.45 1.05.5.7.1 1.75-.45 1.1-1.75 2.05-1.45 1.1-7 2.3l-6.5.3M231.3 188.2q1.95-.45 6.9 3.8 4.45 3.9 5.7 6.25.35.65-.35 1.9-.8 1.3-2.35 2.35-.5.35-2.95-.55l-3.55-1.3-5.55-.25q-4.1-.1-4.8-.7-.9-.8-1.05-3.25-.15-2.25.45-3.55.6-1.2 3.15-2.75 2.5-1.55 4.4-1.95"/><path fill="#b9bf9c" d="M133.7 200.45q.95-.35 5.6 2.15 4.8 2.6 4.2 4.25-.65 1.7-8 3.55-7.1 1.75-9.15 1.15-1.9-.55-3.25-2.75-1.35-2.25-.35-3.3.85-.95 5.2-2.85 3.7-1.6 5.75-2.2"/><path fill="#6a4504" d="M181.75 64.1q.2 3.95-4.5 7t-11.55 3.4q-6.85.4-11.85-2.15-4.95-2.55-5.2-6.5-.2-3.95 4.5-7t11.55-3.45q6.85-.35 11.85 2.2 5 2.55 5.2 6.5M196 165.65q.2 3.95-4.5 7t-11.55 3.4q-6.85.4-11.85-2.15-4.95-2.55-5.2-6.5-.2-3.95 4.5-7t11.55-3.45q6.85-.35 11.85 2.2 5 2.55 5.2 6.5m-116.7-46.4q6.85-.35 11.85 2.2 5 2.5 5.2 6.5.25 3.95-4.5 7-4.7 3.05-11.55 3.4-6.8.4-11.8-2.15-5-2.55-5.2-6.5-.2-3.95 4.5-7 4.65-3.05 11.5-3.45"/><path fill="#eb6d80" d="M75.8 113q7.2.15 12.25 3.25 5.05 3.05 4.95 7.3-.05 4.25-5.2 7.15-5.15 2.9-12.35 2.75-7.2-.1-12.25-3.2-5-3.05-4.95-7.3.05-4.25 5.2-7.15 5.15-2.9 12.35-2.8m101.65-52.95q-.05 4.25-5.2 7.15-5.15 2.9-12.35 2.8-7.2-.1-12.25-3.2-5-3.05-4.95-7.3.1-4.25 5.2-7.15 5.15-2.9 12.35-2.8 7.2.1 12.25 3.2 5.05 3.05 4.95 7.3m14.5 101.8q-.05 4.2-5.2 7.1-5.15 2.9-12.35 2.8-7.2-.1-12.25-3.2-5-3.05-4.95-7.3.1-4.25 5.2-7.15 5.15-2.9 12.35-2.8 7.2.1 12.25 3.2t4.95 7.35"/><path fill="#0d131a" d="M4.25 197.2l18.95-9.6-1.7 3.2q-6.7 3.45-12.05 6.5-5.85 3.35-6.7 4.35.35 1.45 5.55 3l-.6 1.95Q-.5 204 0 200.95q.3-1.6 4.25-3.75"/><path fill="#0d131a" d="M26.35 178.4l8.25-6.15.8 3.45-7.4 4q-7.35 16.25-9.25 17.85l-10 7.1q-.9 2.1-.8 3.2v.2l2.3.4q12.9 2.1 16.25 4.65 5.4-.4 14.8-3.55l1.45-.8q1.3-.55.75.95-.65 1.75 3.5 4.6 4.1 2.85 6.5 2.45l7.55 1.85q7.25 1.85 9.95 3.4 2.85 1.55 16.3 2.2 12.45.6 14.45 0l6.95-3.85q6.5-3.85 8.65-4.7 3.9-1.65-1.55 2.25-1-.15 3.2 1.55 4.65 1.9 10.05 3.45 16.6 4.9 27.25 3.05 1.6 1.1 5.15 1.1 4 .05 3.95-2.2l7.25-3.35h.15l7.9-1.1 11.5-.55q1 1.45 2.6 2.3l-2.6-.25-10.85.4-8.05 1.15-5.2 2.65q-3.5 4.8-11.8 2l-1.9.25-6.7.4q-7.4.4-34-8.5-8.4 5.35-10.15 5.9-2.4.75-15.9.1-14.4-.7-17.6-2.5-2.75-1.55-10.15-3.45l-6.95-1.6q-2.1.4-4.2-.45-2.2-.8-4.25-2.4-2.65-2.05-3-4.2l-5.7 1.8q-4.75 1.4-7.15 1.8l-3.7-.2-.8-.7q-1.6-1.45-6.6-2.55l-7.65-1.35-2.55-.5q-.8-.25-1.2-1-.8-1.65.85-5.4l.35-.4q8.05-5.45 10.1-7.15.95-.8 3.95-6.85l4.85-10.5.1-.25m209.8 3.25l-2.75-1.7.55-3.85 2.85 2.65q3.85 2.8 8.85 3.85 4.95 1.05 9.45 4.85 2.8 2.35 4.7 4.95 3.55.15 8.85 5.45l1.95 1.95q1 1.15 1.05 1.85.1.75-.6 1.65-1.05 1.45-3.75 2.25-.5-1.2-2.9-1.5l-2.3-.1 3.9-.65q2.2-.65 2.5-1.55.4-.95-1.3-2.5-3.25-3.2-5.05-3.85l-1.15.05q.05.75-.25.95-.6.35-2.25-2.4-2.4-3.9-4.65-5.75-3.2-2.5-8.6-3.65-5.4-1.15-9.1-2.95m14.5 28.15q.45 1.1 1.25 1.65l-5.7 3.1q-2.7 1.2-7.1 1.15-1.95-.05-11 2.35l-11 3.1-2.8.4q-.6-.15-.8-.7l-.3-1.2 3.3-.45 10.35-2.75q10.7-2.7 13.15-2.4 1.7.2 10.65-4.25"/><path fill="#0d131a" d="M233.85 168.4l.55-1.3 5.4 4q4.3 3.3 4.75 4.75.7 2.25 1.15 7.55l-2 .3q-.6-4.3-1.25-6.35-.45-1.6-8.6-8.95m-29.7-156.95q13.45 12.7 17.85 33.3 5.7 27.1-3.15 70.3l-2.4-2.2q6.8-41.25 1.75-66.5-4.15-20.35-16.6-32.1Q190.35 3.7 168.3 3.8q-22.1.1-33.95 10.8-13.45 12.2-17.55 28.15-3.1 11.9-1.15 28l-2.9-2.25Q110.8 50.7 115 37.3q4.6-14.55 16.7-25.05 6.35-5.5 15.8-8.8 10-3.5 20.65-3.45 10.7.05 20.6 3.2 9.95 3.15 15.4 8.25"/><path fill="#0d131a" d="M81.05 57.4q11.1-.35 20.45 2.65 9.65 3.05 15.7 9.05 12.05 12 15.95 26.75 3 11.35 2.55 32.7l-3.1 8.95q.5-23.25-1.9-35.55-3.55-18.25-14.85-29.5-5.85-5.85-14.8-8.85-9-3.05-19.5-2.7-10.6.35-19.7 4.05-9.1 3.75-14.6 9.95-12 13.65-14.9 34.55-3.55 25.45 4.25 70.75l-2 .35q-8.75-45.95-5.5-72.1 2.7-21.75 15-35.7Q49.9 66.2 59.95 62q10.1-4.2 21.1-4.6"/><path fill="#0d131a" d="M216.4 109.55q14.15 12.95 17.9 33.95 2.9 16 .6 47l-2.7-3.8q1.65-27.55-1-42.1-3.75-20.65-17.2-33-6.15-5.65-15.9-8.6-9.8-2.95-20.45-2.4-9.7.55-17.7 3.9-8.05 3.4-13 9-6.2 7.05-9.3 13-3.7 7.1-5.05 16.1-2.65 18.05 3.65 59.4l-2.6-1.25Q127 163.95 129.4 144q2.4-19.5 14.8-32.45 11.75-12.25 34.05-13.4 11.1-.6 21.35 2.45 10.4 3.05 16.8 8.95m-69.1-82.6q1.15 0 2 .85.95.85 1 2.2.2 4.7-.25 13.8-.15 2.95-2.65 2.8-2.5-.15-3-2.4-.4-2-.4-7.1t.4-7.25q.3-1.4 1.15-2.2.75-.7 1.75-.7m28.2-.35q1.15 0 2 .8.95.9 1 2.25.2 4.6-.25 13.75-.15 2.95-2.7 2.8-2.45-.15-2.95-2.35-.4-2.05-.4-7.15 0-5.1.4-7.25.3-1.4 1.15-2.15.75-.7 1.75-.7m-4 39.85q4.9-2.65 4.95-6.4.1-3.75-4.75-6.55-4.8-2.85-11.45-2.95-6.65-.1-11.55 2.55t-5 6.4q-.05 2.35 2 4.5 2.15 2.25 6 3.6 3.8 1.35 8.25 1.4 6.65.1 11.55-2.55m2.45-14.3q5.45 3.35 5.35 8.15-.05 4.8-5.6 8.05-5.55 3.2-13.55 3.05-5-.05-9.25-1.55-4.3-1.5-6.8-4.1-2.75-2.75-2.65-6 .1-4.8 5.6-8 5.55-3.25 13.5-3.1 8 .1 13.4 3.5m-110.7 37.2q2.65.15 2.9 3.8.15 2.85-.3 12.75-.15 3-2.9 3.1-1 0-1.75-.85t-1-2.05q-.4-2.05-.45-6.5 0-4.5.4-6.6.4-1.85 1.3-2.8.8-.9 1.8-.85m27.2-.95q1.15.05 2 1.1.85 1.05.9 2.55.25 4.4-.25 13-.05 1.15-.8 2-.85 1-2.2.95-.95 0-1.8-1-.7-.8-.95-1.9-.4-2-.4-6.5t.4-6.65q.75-3.55 3.1-3.55m-27.6 26.5q5.55-3.2 13.5-3.1 7.95.15 13.4 3.55 5.45 3.35 5.35 8.15-.05 4.8-5.6 8t-13.55 3.1q-5-.05-9.25-1.55-4.3-1.5-6.8-4.1-2.75-2.75-2.65-6.05.1-4.75 5.6-8m12.95-.9q-6.7-.05-11.6 2.6-4.9 2.65-4.95 6.4-.05 2.35 2 4.45 2.15 2.25 6 3.6 3.8 1.35 8.2 1.4 6.7.1 11.6-2.55 4.9-2.65 4.95-6.4.1-3.75-4.75-6.55-4.8-2.85-11.45-2.95"/><path fill="#0d131a" d="M162.3 127q2.55.3 2.7 3.05.25 3.75-.25 13.8-.15 2.95-2.65 2.8-2.5-.2-2.95-2.4-.45-2.05-.45-7.15.05-5.05.45-7.25.6-3.15 3.15-2.85m23.8 2.25q.6-3.15 3.15-2.85 2.55.3 2.7 3 .25 3.85-.25 13.8-.15 2.95-2.65 2.8-2.5-.15-2.95-2.4-.45-2-.45-7.1.05-5.05.45-7.25m4.85 32.55q.1-3.75-4.75-6.55-4.8-2.85-11.5-2.95-6.65-.1-11.55 2.55t-4.95 6.4q-.05 2.35 2 4.5 2.15 2.25 6 3.6 3.8 1.35 8.2 1.4 6.7.1 11.6-2.55 4.9-2.65 4.95-6.4m-2.25-7.9q5.45 3.4 5.35 8.15-.05 4.8-5.6 8.05-5.55 3.2-13.55 3.05-5-.05-9.25-1.55t-6.8-4.1q-2.75-2.75-2.65-6 .1-4.8 5.6-8 5.55-3.25 13.5-3.1 7.95.1 13.4 3.5M34.45 180.8q-.35-1.5.4-3.1l.85-1.35.7 1.9q.8 1.95 1.25 2.5 2.3-1.4 3.25-1.75 1.1-.35 8.2.85 6.55 1.1 8.65 1.8 1.85.65 3.05 2.5l.85 1.75q-.35 1.15 5.35 6.65l8.8-1.05q3.3-2.7 5.45-2.8 2.2-.1 6.15 4.2 2.7 1.25 5.15 2.1l3.25.75 2.95-2.3 3.35-3.1q1-.95 2.7-1.05l1.45.15 6 4.15 4.7-.2 3.3.3 7.45 2.15 6-2.3.55 2.55-6.9 1.5-6-1.75q-2.85-.8-3.45-.65l-6.1.4q-5.2-4-6.85-4.35-.95-.2-4.25 2.8l-4.05 3.55q-2 .9-10.3-2.95l-.2-.05-.75-.45q-3-3.5-4.05-3.45-.7.05-3.55 1.65l-2.7 1.6q-4.6-.6-6.6 0-3.6 3.35-3.45 2.2l.9-1.85q-6.4-6.1-7.05-7.3-.9-3.1-1.85-3.45-1.3-.45-6.85-1.55l-7.5-1.2q-3.35-.15-5.35 2.85-1.5 2.25-2.9-2.85m106.9 26.5l-.15-.05q1.25-1.45-1.35-3.35-2.65-1.95-6.4-2-1.9-.05-5.35 1.75-.95.5-4.15 2.45l-.1 1.25q.1 1.2.5 1.75.6.85 1.9 1.1 3.05.5 8.95-.9 4.35-1 6.15-2m90.5-18q-1.2-.1-3.6 1.4l-2.9 2.05q-1 .85-1.35 3.6-.1.95.55 1.85.65.85 1.7 1.05l4.1.15 4.05.1 2.85 1.05q2.15.9 2.95 1 1.65.15 2.5-2.55l.05-.55-.25-.7q-.9-1.65-5.1-5-4.2-3.35-5.55-3.45m-12.65 8.35q2-2.7 3.05-3.4.5-2.3 3.7-4.8 3.05-2.4 6.25-3.15.35-.5.85-.1l1.35 1.4 4.7 3.9q4.1 3.35 5.15 5.25.8 1.3.35 2.85-.45 1.5-1.45 2.7l-1.15 1.1q-2.25 1-3.15.4l-2.25-1.3q-1.7-.9-2.5-1l-4-.1-4.65-.05q-2.1-.15-3.15-5.1l-2.6 3.9-2.3 3.1q-.85.85-6-1.6t-5.45-2.2q-5.2 5.3-7.05 6.25 2.7 2.1-.3 1.25-2.7-.7-7.7-3l-6.8-2.5q-6.45-1.95-9.2-1.45-1.9.35-12.85 7.65l-4.25 2.65q-1.3.7-2.95.9-2.6.35-8.4-1.75l-1.65-.7q-2.15 1.5-8.5 2.7l-10.35.75q-2.2-.4-3.25-2-.9-1.3-.85-3.2l.2-1.8.45-.6 4-2.2q4.25-2.2 6.65-2.5 2.75-.4 7 2.25 3.95 2.45 4.85 4.4 6.8 2.85 10.05 2.4 1.15-.15 3.9-1.75l5.1-3.35 5.85-3.75q2.95-1.75 4.65-2.1 2.95-.55 7.4.9l7.25 2.65 3.95 1.5q3.15 1.1 4.3.9.85-.15 3.3-2.35l3.25-3.15q.95-1 1.5-1.2l1.6.2 4.8 2.3q3.9 1.75 4.7 1.1l2.6-3.2"/><path fill="#0d131a" d="M29.75 196.7q.4-3 2.65-7.95 2.45-5.5 4.7-7.15 5.05-1.5 2.8-.55-1.45.6-4.65 6.55-2.65 5-3.45 7.3-.45 1.2 0 2.2l.6.8q.6.6 3.8 1.7 3.5 1.15 4.25.6.75-.5 7.65-4.1l6.7-3.5q2.55-1.45 3.4-3.6.55-1.45.4-3.8-.05-1.55.9-.2l1 1.6-.8 2.75q-1.3 2.95-4.15 4.55l-12.45 7.5q-3 1.65-4.25 1.25l-4.45-1.8q-3.7-1.6-4.35-2.4-.45-.5-.3-1.75m10.75 13.55q1.55-2.15 4.05-4.1 2.85-2.2 4.05-1.8 1.6.55 4.05 4 2.65 3.7 2.5 6.05-.1 1.95.05 3.05l.05.6-2.65-.15q.95-.9 1.05-3.55.1-1.9-2.25-5.15-2.15-3.05-3.3-3.4-.5-.1-2.05 1.35-1.5 1.45-3.25 3.7l-2.3-.6m35.15-18.5l3.05-.55q-6.75 7.05-6.4 8.05.3.8 2.75 2.05 2.6 1.3 4.9 1.55 1.65.2 2.05-.3.85-1.3 2.05-5.35l1.05-3.9 1.45.4-.8 4.4q-.95 4.4-1.9 5.85-.4.7-1.4 1l-2.3.15q-2.35-.25-5.5-2.05-3.25-1.8-3.75-3.3-.8-2.25 4.75-8m35.65 3.3l-.5-1.3q-.1-1.05 1.75.4 1.9 1.45 2.4 2.9l.75 3.05q.6 1.8-3 4.4-2.7 1.95-5.1 2.85l-4.25-.15q-2.9-.7-4.05-1.9-1-1.05-2.4-4.6l-1.4-3.8 3.05-1.75q-.75 1.85-.05 4.7.65 2.55 1.7 3.5 1.3 1.15 4.6 2.6 4-1.45 6.85-3.1 2.7-1.6 2.65-2.25v-.05q-.45-1.45-1.75-3.6l-1.25-1.9M154 220.8q1.75-1.2 5.1-.85 2.95.25 4.85 1.35 1.9 1.05 3.1 2.1 1.35 1.15.85 1.55l-2 1.15q-.5-1.6-3.05-3.5-2.45-1.8-6.6-.6l-.1 1.7q.05.95.35 1.55.55 1 2 1.75 1.7.9-.1.85-1.8 0-3.3-.95-1.45-.85-1.75-3.25-.25-2.2.65-2.85m57-2.35q-2.05-2.95-3.25-3.45-1.4-.65-7.3-2.2-5.9-1.55-6.5-1.45-.8.1-.45 8.3l.5 1.05 1.6 1.2q1.35.85 5.35 2.35 4.25 1.5 5.55 1.45 5.7-.4 6.65-1.6l.2-.6v-.1q-.3-1.9-2.35-4.95m-2.65-4.85q1.75.75 4.1 3.65 2.45 3.05 2.8 5.15l-.25 1.4-.65 1.25q-1.5 1.85-7.8 2.15-2.6.15-6.25-.9-4.85-1.4-7.9-4.3-1-1-1.25-5.3-.25-3.95.25-5.35.35-.95 1.95-1.3l1.55-.2q1.7-.8 13.45 3.75m57.85-8.2v-.2l-.1-.3-6.2-.5-6.25.2q-1.05.5-1.65 2.4-.7 2.05.5 2.85l6.3-.35q4.75-1.1 5.8-1.95 1.45-1.05 1.6-2.15m1.1-1.5l.75.6q.5.35.45.7-.15.75-1.1 1.85l-1.9 1.7q-1.25.95-6.4 2.1l-6.3 1.05-2.05-.25q-.85-.4-1.2-1.45-.3-.9.2-2.45l.9-2.7q.3-1.15 1.05-1.7.4-.35 2.05-1l7.4.4 6.15 1.15"/><path fill="#fff" d="M64.85 93.05q-.05 1.15-.5 1.9-.5.8-1.2.8-.65 0-1.15-.8-.45-.8-.45-1.95 0-1.1.5-1.9.45-.8 1.15-.8t1.15.8q.5.85.5 1.95m26.9-.85l-.55 2q-.45.8-1.15.8-.65 0-1.05-.8-.45-.85-.4-2 .1-1.15.55-2 .5-.8 1.15-.8.65 0 1.05.8.45.85.4 2m71.95 38.4q.1 1.1-.4 1.95-.45.85-1.15.9-.7.05-1.25-.7-.5-.8-.55-1.95-.05-1.1.45-1.95.45-.8 1.15-.9.7-.05 1.2.75t.55 1.9m-14.65-100q-.05 1.15-.55 1.95t-1.2.8q-.7 0-1.2-.8t-.45-1.9q0-1.1.5-1.95.55-.8 1.25-.8.65-.05 1.15.75.5.8.5 1.95m28.1-.1q-.05 1.2-.55 2-.5.85-1.2.85t-1.15-.8q-.5-.85-.45-2 0-1.15.5-2 .5-.8 1.2-.8.7-.05 1.2.8.45.75.45 1.95m13.4 99.6q.1 1.15-.35 2-.45.8-1.15.85-.65.1-1.15-.7-.5-.8-.55-1.9-.05-1.15.4-1.95t1.1-.9q.7-.05 1.15.7.5.8.55 1.9"/><path fill="#f6c7ce" d="M70.1 122.3q-2.9.25-4.4-1.1-.7-.55-.7-1.25-.1-1.1 1.3-2.05 1.35-.95 3.35-1.1 2-.2 3.5.5 1.55.7 1.65 1.85.1 1.15-1.3 2.05-1.4.95-3.4 1.1m84.2-63.05q-2.9.15-4.4-1.1-.65-.6-.75-1.3-.05-1.1 1.3-2.05 1.4-.95 3.4-1.1 2-.15 3.5.55 1.55.75 1.65 1.85.1 1.15-1.3 2.05-1.4.95-3.4 1.1m15.5 100.95q-2.9.25-4.45-1-.65-.5-.75-1.25-.1-1.15 1.25-2.1 1.35-.95 3.35-1.15 2-.2 3.55.45 1.55.65 1.65 1.8.1 1.15-1.25 2.1-1.35.95-3.35 1.15"/></svg>