<svg xmlns="http://www.w3.org/2000/svg" width="158" height="182" viewBox="-0.25 -0.25 157.6 181.95"><path fill="#cc5d00" d="M30.4 89q7.5 3.05 8.9 11.25 1.25 7.35-2.55 12.15-3.45 4.35-7.75 5.6-3.7 1.1-6-.3-1.7-1.05-2.1.55-.3 1-.05 2.75l1.3 4.55q1.2 3.55 1.75 4.1.6.6-.75 2.4-1.35 1.85-2.9 2.4l-2.9.8q-1.45.05-2.95-1.45-6.45-6.5-7.5-18.05-1.05-11.55 4.1-19.6 2.8-4.4 7.55-6.7 5.9-2.9 11.85-.45"/><path fill="#fff3c2" d="M42.55 137.9q9.5.4 15.4-4.75 1.25-1.05 3.35 2.15 2.1 3.25.8 4.35-10.6 8.95-25.85 7-14.6-1.85-21.7-11.65.95.3 3.65-.65 2.55-.9 3.2-1.55 1.45-1.35 2.8-3.5 7.6 8.15 18.35 8.6"/><path fill="#cc5d00" d="M23 127.1q-.8-2.7.45-.65 1.25 2.05 1.35 3.4.2 2.4-4.15 4.9-4.7 2.7-7.6-.4-.5-.55-.55-1.8-.05-1.3.75-.15 2.05 3.05 6.4.5 4.35-2.55 3.35-5.8"/><path fill="#fff3c2" d="M69 163.25l-4.65 4.3-.5-2.25q-.5-1.2-1.75-2.65-1.6-1.85-5-2.8-3-.85-5.65-.65 6.9-4.3 11.9-6.75 3.35-1.7 6.3-.8 3.7 1.1 3.35 6.2-.1 1.35-4 5.4"/><path fill="#cc5d00" d="M39.4 176.7q-1.35-.1-2.3-3.05-.85-2.7-.5-4.45.55-2.7 5.3-5.7 3.8-2.45 7.65-3.65l4.85-.5 3.4.55q4.3 1.3 5.7 4.6 1.25 2.9-.2 5.2-1.8 2.8-4.95 6-3.2 3.25-4.8 3.75l-2.75.15q-1.15-.3-1.55-1.05l-2.45.6-2.9.25q-.6-.05-2.05-1.35-1.4-1.25-2.45-1.35"/><path fill="#cc5d00" d="M63.65 167.5q-.95-5.75-7.2-7.2l-7.35-.2q-.85.2.15-.25l1.6-.6q4.6-1.05 8.6.85 4.35 2.1 5.1 6.8.25 1.35-.25 1.5-.5.2-.65-.9"/><path fill="#fbd6a0" d="M69.4 148.9q4.4 2.2 3.85 2.25-.35.05-1.1 1.15-.8 1.15-.95 2.1-.25 1.6-4.25.4-4.1-1.2-2.95-2.2 2.2-2.05 1.5-4.75-.25-1 3.9 1.05"/><path fill="#0d131a" d="M72.95 150.85q1-.55 1.55-.3.5.25-.45.85-2.15 1.25-2.35 3.9-.05.85-.65.95-.6.15-.6-.75 0-3.2 2.5-4.65"/><path fill="#0d131a" d="M71.4 161.6q-5.8 5.6-14.2 16.55-2.75 3.55-6.5 2.4-3-.95-3.85-2.95-1-2.5.2-5.05 1.15-2.35 3.05-3.05l1.35-.15q.15.3-.7.75-2.4 1.35-2.9 3.7-.4 2.1.75 3.85 1.2 1.8 3.15 1.9 2.25.05 4.35-2.35l6.65-8.35q4.45-5.65 7.45-8.45 1.45-1.35 1.9-2.8.7-2.1-.95-3.9-.15-.15.2-.7l.5-.45q2.1 2 1.85 4.65-.25 2.4-2.3 4.4"/><path fill="#0d131a" d="M40.05 177.05q-1.55-2.5-.7-5.75 1.05-4.1 5.8-5.85l1.15-.05q.4.2-.45.65-4.75 2.45-5.2 6.25-.35 2.8 1.4 5 1.1 1.4 2.9 1.55 1.4.1 3-.6.7-.3 1 0 .3.25-.5.8-1.6 1-3.8.85-2.95-.2-4.6-2.85"/><path fill="#0d131a" d="M65.05 148.25q-.1-.8.65-.75.75.05.75 1 0 2.8-2.7 4.85L53.7 158.4q-10.2 5.15-12.3 6.6-4.7 3.25-3.85 7.7.75 4.05 3.6 3.95.3 0 .65.5.35.45 0 .45-2.8.1-4.55-1.6-1.55-1.6-1.7-4.1-.4-6 5.45-8.6l21.1-10.7 2.3-1.75q.8-1.1.65-2.6"/><path fill="#cc5d00" d="M116.45 157.55l6.4 1.15q5.15.75 7.3 1.85 3.6 1.85 4.05 4.55l-.05 1.3q-.15.6.05 1.3.65 2.4-1 4.95-1.7 2.75-4.3 2.55l-2.05 1.35-3.4.3q-3.25-.75-8.6-3.5-5.85-3.2-8.35-4.4-1.1-.5-.65-3.8.55-3.5 2.65-5.4 1.4-1.25 3.9-2l4.05-.2"/><path fill="#fff3c2" d="M107.45 161.25q-1.95 3.45-1.2 7.85-2.4-1.7-12.05-5.2l-9.2-3.45q-2.95-4.65 2.75-8.7 2.05-1.45 4.1-1.95t2.05.4l-.2 1.35q-.05.45.5.7 2.55 1.1 11.35 2.8 8.1 1.55 9.35 2.4-1.05-.3-3.8 1.1-2.9 1.4-3.65 2.7"/><path fill="#cc5d00" d="M116.65 157.85l-4.2.6q-3 .85-4.3 2.55-2.5 3.15-1.4 7.45.1.55-.45.4-.6-.15-.8-.85-.4-1.2-.15-3.2.3-2.4 1.45-3.95 1.6-2.1 4.45-3 2.65-.9 5.25-.45l1.05.25-.9.2"/><path fill="#fbd6a0" d="M93.5 150.05q-.15 2.2.7 3.05.4.4-.1.95-.55.55-1.55.8l-3.85.15q-2.3-.2-2.1-.75l.35-1.05q.25-.85 0-1.3-.3-.6 3.15-1.5 3.45-.9 3.4-.35"/><path fill="#0d131a" d="M87.55 152.15q.65.15.05.4-2.3 1-2.8 4-.5 3.05 1.75 3.65 6 1.7 16.15 6.4 5.8 2.65 16.35 8 5.15 2.6 8.75.2 3.8-2.5-.85-7.65-.8-.9-.45-1.05.4-.1 1.5.95 2.7 2.55 2.8 5.15.1 2.4-1.8 4-1.95 1.6-4.85 1.65-3.15.1-6.2-1.7-21.85-11.1-31.85-14.05-3.1-.9-2.85-5.1.25-4.1 3.15-4.8l1.15-.05m30.8 4.65q8.85.9 13.05 3.35 4.75 2.8 3.25 7.4-.35 1-.75.7-.4-.3-.3-.8 1.2-4.35-4.95-6.65-2.7-1-10.4-2.2l-12.5-2.55q-8.85-2.05-11.5-3.1-.25-.1-.3-.85-.05-.8.05-.75 2 1.05 11.9 3.15l12.45 2.3"/><path fill="#0d131a" d="M129.6 162.75q4.35 1.5 5.25 5 .65 2.6-.6 4.85-1.05 1.9-2.95 2.6l-2.3.4q-.5.1-.7-.25-.2-.35.5-.55 3.25-.9 4.3-2.95 1.05-2.15.2-4.35-.85-2.3-3.45-3.8-.55-.3-.8-.75t.55-.2m-43-12.5q.35.6.5 1.75.15 1.4-.3 2.45l-.85.85q-.45.1-.25-.75.55-2.25-.3-3.55-.35-.55.25-1.05.55-.45.95.3m9.05-2.8q-.75 1.2-1 2.5-.35 1.75.35 2.8.6.9.1 1-.5.1-1.05-.55-.6-.75-.8-2.1-.2-1.65.6-2.8.85-1.3 1.75-1.7.85-.45.05.85"/><path fill="#fff3c2" d="M124.45 145.35l-4.15 1.4q-3.1.5-6-1.3-1.3-.85-2.75-2.95-1.4-2-2-3.75-5.5-3.2-7.1-6.45-2.6-5.4-5.3-16.8-2.55-10.6-2-11.15 1.05-1.15 2.9-1.95 2.55-1.1 2.85 1.2.6 4.45 7.1 15.4 6.4 10.75 8.45 11.15 4.55.8 7.6 2.5 3.5 2 4.15 4.9.75 3.35-.3 5.25-.95 1.6-3.45 2.55"/><path fill="#0d131a" d="M110.1 138.3q.9 2.2-.1 1.7-4.4-2.45-6.55-4.9-4.65-5.3-4.65-13.65 0-.55.35-.9.35-.4.4.25.85 5.35 2.6 9 2.75 5.75 7.95 8.5m14.15 6.7q2.25-.3 3.05-3.5.85-3.4-1.4-5.9-1.95-2.25-5.65-3.3-4.1-1.15-5.85-2.65-5-4.35-10-14.1-4-7.9-4.6-11.25-.15-.7.45-.85.55-.1.7.35 1.75 6.45 7 14.65 4.5 6.95 7.8 9.9 1 .85 5.3 2.3 4.2 1.35 6.2 3.35 2.45 2.45 2.15 6.15-.35 4.4-5.6 5.65-.7.2-.5-.25.2-.45.95-.55"/><path fill="#fff3c2" d="M64.95 147.3q-6.4-5.25-6.9-12.65-.2-2.95 5.15-13.15 6-11.45 7.25-18.4.55-3.1 5.2-4.4 3-.8 7.25-.8 2.65 0 7.95 3.35 5.2 3.25 7.45 6.15 3.6 4.65 5.4 12.85 2.4 11.3-2.3 19.85-4.65 8.45-10.9 10.95-3.7 1.45-11.8 1.35-7.65-.05-13.75-5.1"/><path fill="#fbd6a0" d="M58.8 138.05q2.35 4.05 9 7.3 6.6 3.15 12.85 3.35 5.7.2 10.8-1.7 4.1-1.55 7.1-4.15-8.15 10.5-18.2 10.05-8.4-.35-14.3-4.5-5.7-4.05-7.25-10.35"/><path fill="#0d131a" d="M126.15 141.25q.15 4.3-3.5 5.85-3.7 1.55-7.8-.7-4.35-2.4-5.15-7.3-.1-.8.35-.95.45-.2.4.5-.1 2.5 3.5 5.45 3.9 3.2 7.5 1.7 3.65-1.5 3-5.15-.6-3.65-4.5-5.15-.75-.3-.4-.55.4-.25 1.1 0 5.35 1.75 5.5 6.3"/><path fill="#fbd6a0" d="M83.15 103.55l8.35-.55q6.8-.05 6.9 1.35.15 2-.9 2.95-1.1.95-3.8 1.05l-5.15-.65-5.8-1.55q-1.85-.55-1.85-1.35t2.25-1.25"/><path fill="#0d131a" d="M70.6 150.05q6.6 2.65 13.7 1.45 7.65-1.25 12.35-6.6 4.2-4.7 5.55-9.9 2.5-9.9-2.75-24.15-1.05-2.95-.65-3.25.45-.45 1.7 2.2 4.8 10.4 4.5 20.3-.35 10.3-6.3 16.4-5.45 5.5-13.15 6.75-7.8 1.25-15.15-2.35-1-.5-.9-.85.1-.4 1.1 0m-3.05-1.6q.45.25.4.65-.1.35-.7.15-4.3-1.55-7-4.85-2.8-3.4-3-7.6-.25-6.85 3.6-13.55 5.6-9.7 8.1-18.7.5-1.85 1.05-1.1t.4 1.6q-1.7 9.05-7 17.95-4.3 7.15-3.95 13.5.45 7.95 8.1 11.95"/><path fill="#0d131a" d="M57.9 132.1q1.2-1.1 1 .4-.25 1.5-1.05 2-7.3 4.55-14.95 4.7-6.95.15-12.75-3.4-5.55-3.4-8.35-9.15-2.85-5.95-1.7-12.55.1-.6.6.15.55.8.55 2.1-.05 7.4 4.1 12.7 3.7 4.7 9.9 6.8 5.9 2 12.1 1.05 6.35-1 10.55-4.8"/><path fill="#0d131a" d="M15.55 89.55q8.25-5.35 16.5-1.05 7.9 4.15 8.5 13.1.55 7.4-3.1 12.15-2.7 3.55-6.45 4.95-3.95 1.5-8.1.15-4.95-1.6-4.95-7.8 0-5.95 4.15-9 .95-.75 1.4-.7.45.1-.65 1.4-3.6 4.3-3.05 8.55.55 3.85 3.95 5.5 2.65 1.25 5.65.3 3.4-1.1 6.1-4.75 3.8-4.95 2.55-11.7-1.25-6.85-6.8-10.15-6.9-4.15-14.45.95-8.1 5.45-8.8 17.3-.75 12.15 4.45 21.2 4.65 8.15 13.2 12.55 8 4.05 17.05 3.75 9.1-.3 16-4.95 1.1-.75 1.55 0 .45.7-.6 1.35-9.25 5.65-19.55 5.55-9.75-.1-18.05-5.25-8.35-5.2-12.8-13.95-4.75-9.35-3.75-20.55 1.15-13.1 10.05-18.9m29.15-54.4q13.35 1.8 20.6 6.3 1.75 1.05-11.25 18.25-13.1 17.2-13.85 16.25-4.7-6.2-8.8-19.7-4.6-15.3-1.1-20.45 1.65-2.4 14.4-.65m76.85-17.75q3.45 1.4 5.3 14.65 1.9 13.7-1.2 20.95-1 2.4-19.25-6.25Q88.05 38 89.05 36.7q6.1-7.85 18.65-14.45 11.2-5.9 13.85-4.85"/><path fill="#f29739" d="M100.85 38.05q2.55-3.3 8.75-7.5 6.1-4.05 7.75-3.75 1.95.4 2.4 8.75.45 8.45-1.55 12.35-.6 1.25-9.55-3.55-9-4.75-7.8-6.3m-50.95 7.4q9.8 2.45 9.9 3.8.1 1.6-5.65 10.55-5.9 9.2-7.45 7.9-2.3-1.95-5.6-11.3-3.4-9.65-2.1-11.8 1-1.6 10.9.85"/><path fill="#0d131a" d="M136.9 44.75q8.3-3.6 10.25-4.25 2-.7 2.7.7.7 1.4-1.4 2.8-15.55 10.6-20.05 13.95l1.3 3.55q1.25 3.85.65 8.2l12.5.8q9.75.75 13.1 1.65 1.4.4 1.4 1.8-.05 1.4-1.6 1.7l-27.85 2.7q-3.7 8.55-11.25 15-8.5 7.2-20 10.1-20.55 5.15-35.8 1.7-16.85-3.8-21.25-17.2-4.8-14.35 5.95-29.7Q56.2 43 75.05 36.9q14.6-4.75 28.3-.6 13 3.95 20.75 14.3 3.5-1.85 12.8-5.85"/><path fill="#fff3c2" d="M103.3 98q3-2.2 3.9-3.95.5-1 1.3-1.05.8-.05.5.9-1.5 4.55-5.05 7.7-2.9 2.6-5.95 3.35-4.9 1.3-10.25.55-5.1-.75-9.7-3.1-.85-.5-.05-1.2.75-.75 1.7-.5l6.6 1.35 9.45-.4q4-1.1 7.55-3.65"/><path fill="#fff3c2" d="M147.25 41.85q.7-.3 1 .15.35.4-.4.95l-22.2 14.45q-.3.15-.2.4 1.15 2.55 1.7 4.4 1.3 3.9.55 9.15l.3.2 14.05.55 12.6 1.2q.85.15.9.6.05.5-.8.55L126.5 76.5l-.25.2q-3 8.45-10.2 14.95-8.15 7.35-19.55 10.2-19.75 4.9-34.6 1.25Q46.2 99.25 42.15 87q-4.5-13.7 5.75-28.2 10.15-14.45 28.05-20.25 14.25-4.6 27.3-.25 12.35 4.1 19.4 14.6l.7.1q5.85-2.9 23.9-11.15"/><path fill="#0d131a" d="M107.95 95.2q.35-.55.85-.35.5.2.25.75-3.6 7.25-11.2 9.6-6.5 2.05-13.8.1l-1.2-.6q-.75-.45-.2-.35 8.6 1.75 15.25-.7 6.5-2.4 10.05-8.45"/><path fill="#fff" d="M98.3 65.5q-1.05-3.35.35-8.85 1.65-6.55 5.85-7.7 4-1.05 8.15 1.95 4.55 3.25 5.8 9.35.8 3.9-1.5 7.7-2.1 3.45-4.85 4.05-3.9.95-7.1.15-4.95-1.3-6.7-6.65"/><path fill="#fff3c2" d="M2.85 83.1q-1.45.1-1.35-1 .1-1.05 1.5-1.8 1.15-.65 21.95-3.45l22.15-2.8q2.3-.15 2 3.45-.25 3.65-1.8 3.8L2.85 83.1m49.5 6.8q2.4-.85 3.6 2.45 1.2 3.25-.1 4.05-1 .65-21.25 8.7l-21.05 8.2q-2.9.55-2.3-1.3.4-1.1 20.45-11.55 18.8-9.8 20.65-10.55"/><path fill="#922f00" d="M92.05 82.4q-2.35-.6 6.85-2.8 9.05-2.15 8.9-.65-1.05 9.1-5.15 15-.25-5.25-4.85-8.7-2.75-2.1-5.75-2.85"/><path fill="#ed8599" d="M81.7 86l8.65-3.15q3.3-.95 7.5 2.7 4.4 3.7 4.75 8.35.15 1.95-1.95 3.6-1.75 1.25-5.3 2.55-5.55 2-13.6-2.25-7.55-4-10.5-9.35-.9-1.7 1.05-1.25 3.25.8 9.4-1.2"/><path fill="#fff3c2" d="M51.2 9.45q2.05-.95 11.1 15.95 8.65 16.1 8.85 18.15.15 1.15-3.7 4-3.8 2.8-4.3 1.85-1.3-2.65-6.95-20.05-6.25-19.25-5-19.9m39.35 29.3q-.55-1.3-1.7-18.4Q87.65 3 88.2 1.7q.25-.55 1.1-.15.9.35 1.05 1.35l7.75 36.65q.15 1.2-3.1 1.5-3.35.3-4.45-2.3"/><path fill="#0d131a" d="M87.85 21.55l-.7-19.5Q87.05.25 88.7 0q1.65-.25 2.2 1.8l4 17.1 4 17.65q.4 2.15-.65 2.3-1.05.15-1.5-2L90.15 5.7q-.6-2.6-1-2.9-.5-.3-.3 2.25.75 21.75 1.35 30.9.1 1.5-1 .85l-1-.5-.35-14.75m-38.05-9.6q-.7-3.25 1.25-4 1.85-.75 3.5 1.5 1.55 2.2 10.15 18 8.3 15.2 9.8 18.4.55 1.25-.35 1.95-.95.65-1.4-.35-14.85-29-19.65-35.65-.95-1.25-1.3-.95-.35.25-.05 1.3Q55.1 23 63.65 48.3q.75 2.3-.3 2.45-1.05.1-1.65-1.6l-6.05-18.5q-5.55-17.3-5.85-18.7m-47.3 72Q.35 83.9.05 82.35-.25 80.9 1.5 80q3.6-1.8 22.25-4.45Q41.8 73 45.05 73.4q1.6.2 1.6.9 0 .65-1.5.7-6.8.2-23.05 2.55-16.15 2.3-18.6 3.4-1.05.45-1.25.95-.25.6 1.4.65l18.85-.95 22.5-1q1.7 0 1.9.95.15.9-1.9 1.05L2.5 83.95m49.75 13.1l1.65.1q.35.6-.5 1L12.7 114.3q-1.5.55-2.15-.75-.65-1.35.65-2.55 2.75-2.4 19.1-11.05 15.5-8.2 18.7-9.35 1.2-.45 1.5.25.3.7-.75 1.1-3.35 1.45-16 7.95-14.35 7.4-20.05 10.9-1.2.75-1.3 1.35l1.95-.05 17.55-6.95q16.1-6.55 20.35-8.1m65.4-38.2q-.3-1.2.35-1l.8.65q1.55 5.35-1.15 9.6-2.2 3.5-5.7 4.6-4 1.3-8.05-.4-4.4-1.85-6.15-6.2-.05-.2.25-.55.3-.4.45-.05 2.1 4.4 6.05 5.95 3.4 1.3 7.15.15 3.4-1 5.2-4.3 1.95-3.65.8-8.45M107 79.05q.15-.9.8-1 .7-.05.6.8-1.15 9.4-4.7 15.35-3.2 5.2-7.35 6.45-6.5 1.95-14.4-2.1-7.6-3.85-12.2-10.8-.3-.45.5-.35.75.05 1.15.65Q74.6 93.1 81.75 97q8.25 4.55 14.3 2.35 5.6-2.05 8.45-9.55 1.15-3.05 2.5-10.75"/><path fill="#0d131a" d="M111.6 49.4q5.2 2.95 7.15 9.05.2.55-.3.95-.5.4-.7-.4-1.3-4.9-5.85-7.8-4.2-2.65-7.45-1.55-3.5 1.2-5.15 6.1-1.6 4.6-.8 10.05.1.5-.3.6-.35.15-.45-.3-1.2-5.4.6-11.1 1.9-5.8 5.5-7.05 3.3-1.1 7.75 1.45M78.45 75.2q-4.7-6.35-11.1-7.45Q60.2 66.5 55 72.9q-.45.5-.7.15-.3-.35.05-.95 4.35-7.35 12.1-6.5 7.7.8 12.65 8.95.45.8.15 1-.35.2-.8-.35m20.8 5.35q.35-1.6 4.1-2 3.7-.4 4.05.9.35 1.15-.9 3.6-1.2 2.4-2 2.45-.7.1-3.05-2.1-2.35-2.2-2.2-2.85"/><path fill="#fff" d="M100.8 80.6q.25-1.05 2.75-1.35 2.45-.25 2.7.6.2.8-.6 2.4-.8 1.6-1.3 1.65-.5.05-2.05-1.4-1.6-1.5-1.5-1.9"/><path fill="#0d131a" d="M71.05 88.5q.05-1.45 4.05-1.75 3.95-.35 4.1.45.25 1.2-1.25 3.65-1.45 2.2-2.2 2.4-.6.1-2.65-1.95-2.05-2.1-2.05-2.8"/><path fill="#fff" d="M72.4 88.55q0-1.05 2.6-1.35 2.6-.35 2.7.55.1.85-.95 2.4-1 1.45-1.5 1.55-.4.1-1.65-1.25-1.25-1.4-1.2-1.9"/><path fill="#0d131a" d="M82.75 84.85l11.2-4.4q6.2-2 13.75-3 2.2-.3 2.9-2.25.2-.7.6-.45.4.2.25.95-.35 1.45-1.6 2.45-1.1.85-2 .85l-6.15 1.1-7.4 1.85q-4.45 2.2-9 3.85-8.9 3.2-14.2 2.25-.85-.15-2-.9l-1.45-1.4q-.4-.6-.1-.85.25-.3.9.15 1.8 1.2 2.8 1.35 4.95.75 11.5-1.55m25.5-23.1q1.05 3.25 1.4 5.7.35 2.45-.2 2.65-.55.2-1.7-2t-2.2-5.45q-1.05-3.2-1.4-5.7-.35-2.45.2-2.6.55-.2 1.7 2 1.15 2.15 2.2 5.4"/><path fill="#fff" d="M106 57.6q.65 1.9.2 2.1-.45.1-1.1-1.8-.6-1.85-.15-2.05.4-.15 1.05 1.75"/><path fill="#0d131a" d="M97.6 85.5q-3.7-3.05-7.85-2.8-.4.05.1-.2l1.05-.4 2.85.4q2.55.65 4.3 2 2.5 2 3.95 5.1 1.35 2.9.9 4.65l-.5 1.1q-.3.25-.25-.4.2-2.1-.95-4.65-1.25-2.9-3.6-4.8"/><path fill="#fff3c2" d="M80.05 73.65q-.65-2.15-2.3-4.15-1.5-1.85-2.9-2.35l-.25-.25q.1-.2.5-.15 2.1.4 3.6 2.6 1.25 1.8 1.8 4.15l-.1.5q-.2.1-.35-.35"/><path fill="#0d131a" d="M93.35 43.6q1.35 4.1-.7 7.95-2 3.85-6.15 5.2t-8.1-.65q-3.9-2-5.25-6.2l-5.4-16.75Q66.4 29 68.4 25.1q1.95-3.9 6.15-5.3 4.15-1.35 8.05.65 3.9 2 5.25 6.2l5.5 16.95"/><path fill="#f9be00" d="M91.7 43.2q1.25 3.8-.3 7.25-1.55 3.55-5.2 4.75-3.9 1.3-7.3-.8-3.25-2-4.5-5.95l-4.9-15.1q-1.25-3.85.3-7.2 1.55-3.45 5.25-4.65 3.7-1.2 7.1.7 3.35 1.85 4.55 5.7l5 15.3"/><path fill="#0d131a" d="M85.55 24.55q.65-.2 1.05.7.4.9-.1 1.1l-17.65 6q-.9.3-1.05-.75-.15-1 .7-1.35l17.05-5.7m2.15 6.4q.65-.2.95.8.3 1-.2 1.25l-17.8 6.05q-.9.3-1.1-.65-.15-1 .7-1.3l8.95-3.2 8.5-2.95m2.3 6.9q.65-.2 1 .6.35.75-.15 1l-8.5 3.15-9.1 3.25q-.9.35-1.3-.65-.35-.95.5-1.3 5.5-2.05 17.55-6.05m2.3 6.65q.65-.2.95.6.3.8-.2 1.05L75.4 52.1q-.9.35-1.15-.55-.25-.85.6-1.15l8.95-3.1 8.5-2.8"/><path fill="#fff3c2" d="M128.95 98.2q.7.6.8 2.25.1 1.6-.45 2.6 2.3.8 3.35 1.75 1.5 1.4 1.85 4.15.25 2-1.25 3.7-1.15 1.35-2.6 1.9-.15.05-.2 2.4-.1 2.55-1.35 3.6-2.15 1.8-4.5 1.65-2.75-.25-5.25-3.3l-1.85.15-3 1.3q-5.3 2.1-17.05 1.55-5.3-.25-13-2.6-7.3-2.25-9.6-4-2.05-1.6 2.7-5.15 4.7-3.55 7.5-2.95l5.8.7q4.5.3 6.8.1l11.65-1.55q6.6-1.55 9.3-4.75 2.6-3.1 5.05-4.2 2.95-1.3 5.3.7"/><path fill="#0d131a" d="M129.65 114.95q-.2-.5.3-.95.5-.4.8.25 1.4 3.25-.25 5.95-1.5 2.35-4.05 2.75-4.75.65-7.4-4.3-.35-.6-.05-.8.25-.25.8.35 3.45 3.65 6.5 2.7 2.15-.65 3.15-2.3 1-1.7.2-3.65M128 98.75q-2-1.5-4.55-.05-1.75 1-3.4 3.15-4.4 5.7-15.85 7.05-10.5 1.2-21.15-1.7-.65-.2-.45-.7.2-.45 1.15-.25 10.6 2.45 21.6.4 10.6-1.95 13.6-6.4 2.25-3.25 5.4-3.9 3.05-.65 5.05 1.45 1.05 1.1 1.25 2.7.25 1.75-.75 2.75-.5.55-1.3.4-.8-.15-.45-.55 1.05-1.2.85-2.6-.2-1.15-1-1.75"/><path fill="#0d131a" d="M75.25 115.8l-.8-1.05q-.15-.55 1 .1 9 4.8 23.35 5.6 14.25.8 20.05-3 .4-.25.85.4.4.7-.35 1.05-9.95 5.05-24.8 3.55-13.85-1.45-19.3-6.65m57.3-12.05q2.1 1.2 2.7 3.5.65 2.6-.5 4.9-1.45 3-5.4 3.05-.85.05-1.1-.5-.2-.5.65-.55 1.5 0 2.9-1.3 1.95-1.8 1.35-5.05-.3-1.6-1.55-2.55-1.4-1-3.8-.9-.9.05-.85-.4.05-.4.7-.6 2.6-1 4.9.4"/></svg>