<svg xmlns="http://www.w3.org/2000/svg" width="396" height="271" viewBox="-1.45 -0.05 395.65 271.45"><path fill="#f0e78e" d="M131.5 88.2q-9.3 3.55-14.1 5.8-8.3 3.9-14.1 9.6-7.95 7.75-15.45 19.95-7.75 12.65-11.45 24.4-5.9 18.75-13.55 28.6Q53 189.25 38.3 190.7q-13.45 1.35-23.85-7.1-9.5-7.65-11.95-19.15-2.35-11.05 1.2-19.9 3.95-9.85 14.15-13.75 9.65-3.7 18.6-.75 9.2 3.05 12.55 11.4 3.35 8.4.25 16.15-3.3 8.15-11.95 10.45-5.05 1.3-10.15-.6l-4.1-2.15q1.25 5.5 5.7 7.85 4.35 2.3 10 .8 5.9-1.55 10.9-6.7 5.6-5.75 8.65-14.65 4.55-13.25 9.55-23.65 6.55-13.7 14.65-24.4 9.6-12.6 25.2-21.85 13.75-8.1 26.3-10.45 2.65-.5 3.8 1.45 1.1 1.75.6 4.8-1.2 7.3-6.9 9.7"/><path fill="#c9c279" d="M37.3 168.05q-5.05 1.3-10.15-.6l-4.1-2.15 2.2 5.25q-4.2 1.45-7.55-1.95-3.05-3.1-3.85-8.4-.85-5.45 1.35-9.5 2.55-4.65 8.2-5.35-3.25 4.1-2.2 8.5 1.1 4.55 6.2 6.65 8 3.35 14.25.65Q47.7 158.6 50.6 151q-.25 6.05-3.6 10.6-3.6 4.8-9.7 6.45"/><path fill="#c9c279" d="M102.25 93.4q8.55-9.6 8.15-12.2 12.4-6.8 23.6-8.95 2.65-.5 3.8 1.45 1.1 1.75.6 4.8-1.2 7.3-6.9 9.7-9.3 3.55-14.1 5.8-8.3 3.9-14.1 9.6-7.95 7.75-15.45 19.95-7.75 12.65-11.45 24.4-5.9 18.75-13.55 28.6Q53 189.25 38.3 190.7q-13.45 1.35-23.85-7.1-9.5-7.65-11.95-19.15-1.6-7.35-.45-14.05 1.2-7.1 5.3-12.15-5.15 12.85-1.95 24 3.05 10.55 12.8 16.9 7.65 5 17 5.25 10.4.25 19.1-5.75 4.25-2.9 7.9-9.35 2.7-4.8 6.75-14.8 11.85-29.5 19.4-43.2 3.25-5.95 13.9-17.9"/><path fill="#dbdcdc" d="M193.85 226.75l3.7-1.7-.25 1.65q-.45 1.6-1.35 1.65-.3 0-.95-.4-.75-.5-1.15-1.2m-8.95 7.2l4.65-1.2q-.9 3.5-2.05 3.5-.8.05-1.5-.7l-1.1-1.6m-12.95 3.4l4.5 1.4q-.4.9-1.35 1.65-.9.75-1.3.55-.8-.35-1.25-1.55l-.6-2.05m-55.25.1l4.1-1.25q-1.45 3.35-2.9 3.35-1.05 0-1.2-2.1m-10.85 3.85l5.05.8-1.05 1.35q-1.2 1.3-2.25 1.15-.55-.05-1.1-1.05-.5-1-.65-2.25m-13.8 1.45l5.4.4-.8 1.85q-1.1 1.85-2.5 1.75-.85-.05-1.45-1.25-.55-1.15-.65-2.75m160.95-9.5l1.9-.75-.05 1.7q-.3 1.75-1.45 1.9l-.75-.2q-.65-.3-.9-.75l1.25-1.9m-7.95 5.8l4.35-.45q-1.05 3.05-2.25 3.1-.7 0-1.2-.9l-.9-1.75m-11.1 3.1l4.5.25q-1.4 3-2.6 2.9-.75-.05-1.2-1.15l-.7-2m73.2 19.75l4.5.45q-.35.85-1.3 1.65-1.05.85-2 .7-.85-.15-1.15-1.35-.25-1-.05-1.45m-14.55 4.9l5.45 1.2-.8 1.7q-1.05 1.6-2.25 1.3-1.2-.3-1.7-1.85l-.7-2.35"/><path fill="#f0e78e" d="M163.65 160.85q-1.55 5.9-1.4 9.5.2 4.05 4 16l6.5 19.35q4 3.45 15.1 5.25 4.55.7 6.5 1.65 2.85 1.35 3.45 4.2 1.1 5.15-.55 7.95-1.5 2.55-4.95 2.55-.5 4.45-3.35 6-2.1 1.2-5.85.9-3.55 4.9-8.4 3.8-3.7-.85-5.4-3.55-1.25-2-4.25-4.4-3.55-2.9-8.1-5.05-7.8-3.75-7.2-9.8v-4.15q-.15-3.3 0-6.5.2-4.1-6.85-17.85-6.35-12.4-10.15-17.25-4.3-5.55-3.45-10.35 4.45-7.9 11.4-13.35Q154.6 134.8 167 147l-3.35 13.85"/><path fill="#c9c279" d="M163.85 161.3q-1.45 6.25-1.25 9.95.2 2.8 1.3 8.6-5.25-.35-9.8 6-4.2 5.8-5.5 13.55-2.3-6.5-7.95-16.9-5.15-9.45-7.9-13.05-4.3-5.55-3.45-10.35 4.45-7.9 11.4-13.35Q154.6 134.8 167 147l-3.15 14.3m-6.9 63.7q-4.65-2.2-5.9-4.1-1.85-2.85-1.05-9.25 4.15 7.3 9.75 11.35 3.1 2.25 8.2 5 4.15 2.9 6.85 3.1 3.95.25 8.6-3.85l4.3-.35q2.3-.85 4.7-3.95 1.6.35 3.5-1.3 1.4-1.25 2.65-3.3.3 4.1-1.55 6.6-1.75 2.35-4.7 2.35-.5 4.45-3.4 6.05-2.1 1.15-5.8.85-3.55 4.9-8.4 3.8-3.7-.85-5.4-3.55-1.25-2-4.25-4.4-3.55-2.9-8.1-5.05"/><path fill="#f0e78e" d="M211.9 157.65l6.3-.95q7.35-.6 12.7 1.2 17.05 5.8 7.45 33.4-7.6 14.85-4.65 23.35l14.75 1.75q5.4 1.35 7.45 6.85 1.95 5.25.6 8-1.15 2.25-3.75 2.05-.6 4.05-4.4 5.45-3.5 1.35-5.4-.55-3.7 5.9-9.45 3.75-4.1-1.55-6.95-5.45-1.35-1.85-5.95-4.1l-8.7-4.55q-4.1-2.55-5.05-5.85-.65-2.25.15-6.25.5-2.5 2.85-6.05l3.75-6q1.4-3 .45-22.4-.9-18.35-2.15-23.65"/><path fill="#c9c279" d="M211.9 157.65l5.6-.9q6.65-.6 11.8.7 16.35 4.2 11.25 26.25-7.1-4.2-15.35.2-6.4 3.4-10.8 9.9 0-8.9-.85-21.05-.85-11.7-1.65-15.1m44 65.6q1.95 5.25.6 8-1.15 2.25-3.75 2.05-.6 4.05-4.4 5.45-3.5 1.35-5.4-.55-3.7 5.9-9.45 3.75-4.1-1.55-6.95-5.45-1.35-1.85-5.95-4.1l-8.7-4.55q-2.55-1.6-4.1-4.7-1.6-3.35-.95-6.6l.65-2.25q.55 6.65 8.25 10.85 2 1.1 6.6 3 4.15 1.75 5.85 2.8 4.8 3.05 9.45 3 4.5 0 6.35-2.9 1.5 1.35 4.45.05 3-1.35 4-4 2.05-.05 2.95-2.05l.5-1.8"/><path fill="#f0e78e" d="M329.25 96.1l-15.4 10.4q-4.1 2.8-7.05 5.7-10.6 10.7-18 24.45-7.95 14.8-28.45 22.8-19.9 7.75-35.7 3.3-9.6-2.7-28.2-9.6-12.55-4.6-20.25-5.25-8.1-.65-16.75.9l-12 1.95q-1.65 1.65-6 4-8.6 4.7-21.9 8.4-5.4 1.5-11.25 6.95-4.85 4.6-6.85 8.5-.9 7.9 3.75 21.3 2.55 7.25 7.45 18.45 5.9.5 9.15 2.75 2.7 1.85 3.15 4.55 1 5.75-2.1 8.8-2.25 2.25-5.55 2.4-2.3 5.2-7.6 5.5-4.5.25-6.55-2.1-5.5 5.3-11.55 3-5.1-1.95-5.75-5.6-.65-4.05-6-13.25-2-3.4-2.3-7.45-.15-2.85.55-10.65.9-9.95-5.75-30.8-1.65-5.2 2-11.4 3.4-5.8 10.35-10.75 5.9-4.2 10.25-12.55 2.55-4.8 6.15-15.1l6-19.3q4.25-13.1 8.1-18.1 6.5-8.25 15.05-14.65 8.95-6.7 16.6-8.65 7.3-1.8 20.3.05l20.55 3.7 18.55 1.4 12.55-.55q11.2-3.95 20.7-4.05 10.75-.15 21.7 4.5 7.85-3.05 13.45-7.1 5.85-4.25 12.3-11.75 7.05-8.15 17.4-4.4 8.95 3.25 17.4 13.9 8 10.15 10.55 20.35 2.75 11-3.05 15.05"/><path fill="#c9c279" d="M72.35 175.5q-1.65-5.2 2-11.4 3.4-5.8 10.35-10.75 5.9-4.2 10.25-12.55 2.55-4.8 6.15-15.1l.8-2.25q-.6 7.65-1.4 11.15-1.65 7.5-6.2 15.3-1.05 1.85-6.85 8.05-5.5 6-6.55 8.05-1.55 2.7-1.35 6.45.15 2.75 1.6 8.6 4.4 17.55 5.4 29.6l-.7 8.7q-.45 4.4 2.4 8.7 2.95 4.45 6 5.75 4.7 2 11.8-1.45 1.6 1.6 5 1.1 3.85-.55 6.5-3.75l4.55-.15q2.25-.65 3.05-2.85.6 3.7-1.7 6.8-2.35 3.15-6.15 3.35-2.3 5.2-7.6 5.5-4.5.25-6.55-2.1-5.5 5.3-11.55 3-5.1-1.95-5.75-5.6-.65-4.05-6-13.25-2-3.4-2.3-7.45-.15-2.85.55-10.65.9-9.95-5.75-30.8M332.2 80.8q2.85 11.25-2.95 15.3l-15.35 10.5q-3.9 2.75-7.1 5.6-4.7 4.3-10.35 11.9-6 8.05-10.6 16.6-2.4 4.5-8.9 9.35-6.65 5-15.2 8.6-20.7 8.7-37.1 4.1-9.6-2.7-28.2-9.6-12.55-4.6-20.25-5.25-8.1-.65-16.75.9l-12 1.95q3.1-2.15 6.75-5.7 7.25-7.1 10.95-14.7 3.75 2.55 14.4 4.6 14.2 2.7 18.55 4.1 38.65 12.1 59.05 3.85 34.3-13.85 19.85-82 3.1-2.05 5.15-5.15 3.25-5 4.35-6.25 7.05-8.15 17.45-4.15 9 3.5 17.55 14.5 8.1 10.5 10.7 20.95"/><path fill="#f0e78e" d="M217.35 113.35q.4-2.55 7.05-5.35 6.75-2.9 14.95-3.85 9.4-1.1 16 1.05 7.8 2.55 10.05 9.3 3.75 11.4 1.95 35.5l-1.45 16.25q-.55 7.65.05 9.8 2.05 6.95 26.2 53.8 1.3 2.55 3.3 3.65l4.35.45 6.5-.45q5.7-.25 7.9.15 4.35.8 7 4.2 3.8 4.85 2.3 9.35-1.35 4.05-4.6 3.85.1 4.7-2.6 7.9-5 6.05-10.9 2.3-2.25 5.2-5.75 6.7-3 1.25-6.35-.4-1.3-.65-5.55-4.2-4.3-3.65-10.25-6.7-5-2.55-6.05-5.55l-1.15-8q-1.05-6.45-2.3-10.9-1.75-6.1-4.9-12.4-5-10-21.3-24.75-3.9-3.55-5.45-10.05-1.35-8.4-2.5-13.55-1.4-6.15-3.2-11-2.05-5.55-6.4-14.2-4.25-8.5-6.1-18.45-1.65-8.9-.8-14.45"/><path fill="#c9c279" d="M241.8 195.05q-3.7-3.3-5.4-9.95l-2-11.95q-.6-3.85-3.2-11.55l-3.05-8.55q3.95 4.5 8.9 17.25l6.1 16.85q.8 2.05 4.85 7.2l9.05 11.55q14.05 18.5 22.25 36.8 3.9 8.7 12.7 12.85 9.05 4.25 13.15-1.65 4.2 1.2 7.2-1.3 2.75-2.3 3.65-6.9 2.8.25 4.6-2.95.95-1.6 1.4-3.45 2.8 4.85.8 9.05-1.7 3.5-3.85 3.4 0 1.7-1.05 4.2-.85 2.1-1.6 3-5 6.05-10.9 2.3-2.25 5.2-5.75 6.7-3 1.25-6.35-.4-1.3-.65-5.55-4.2-4.3-3.65-10.25-6.7-5-2.55-6.05-5.55l-1.15-8q-1.05-6.45-2.3-10.9-1.75-6.1-4.9-12.4-5-10-21.3-24.75"/><path fill="#f0e78e" d="M324.55 22.85q11.05.25 19.85 4.75 2.1-.15 7.15-2 5.05-1.85 7.65-3.4L354 34.55l1.6.9q4.8 3.05 6.75 7.95 2.2 5.45 1.45 14.1-.55 6.1-.5 7.65.05 1.8.9 3.3 2.55 4.55 2.9 8.2.6 6-4.15 10.7-5.55 5.55-9.65 12.65-1.35 2.35-2.15 3.1-1.15 1.05-3.05 1.1l-6.1 6.65q-3.5 3.6-7.95 3.8l-9.65-.65q-4.6-1.25-9.1-5.3l-8.05-8q-4.45-4.2-9.9-7-6.5-3.3-8.7-4.8-3.75-2.55-4.95-5.5-.7-1.7-.5-5.05.3-5.65.2-8.05-.5-6.5-.15-13.7.65-14.4 4.8-17.7 4.95-3.95 13.4-9.15l7.4-4.4q6.1-2.7 15.7-2.5"/><path fill="#c9c279" d="M355.6 35.45q3.2 2.05 5.15 4.85 3 4.4 2.2 9.65-.55-3.9-5.05-5.45l-7.45.2q-.5-9.4-10.85-15.3-8.55-4.85-21.45-6.3 6.4-.65 12.8.3 7.4 1.1 13.45 4.2 2.1-.15 7.15-2 5.05-1.85 7.65-3.4L354 34.55l1.6.9m-26.1 62.4q6 .3 8.55-2.4 1.15 1.8 5.8 4.1 5.2 2.55 8.5 2-1.6 2.4-4.25 2.85l-3.75-.3q-1.1-.35-.4 1.9l.9 2.35q-4.5 4.8-6.4 5.35-7.25 1.8-13.9 0-5.35-1.4-8.9-4.6l-8.45-8.75q-3.6-3.5-12.85-8.2-8.2-4.15-9.8-7.55-1.6-3.4-1.6-16.8-.4-5.9.05-12.45.9-13.15 5.05-16.45 6.65-5.3 18.65-12.3l5 9.25q2.5 5.25 1.35 6.95-2.35.75-4.05 5.95-1.8 5.45-.05 8.9-.8 7.45.35 12.15 1.35 5.2 5.9 10.25-.55 1.55 1.2 4.85l4.05 7.55q2.3 5.15 9.05 5.4"/><path fill="#e8b67d" d="M292.5 37.25q-7.6 5.05-8.5 14.85-10-6.6-16.1-16.7-8.1-13.4 1.05-21.5 8.4-7.4 21 .95 10.8 7.15 17.35 19.5-7.9-1.65-14.8 2.9"/><path fill="#c39969" d="M294.9 18.4q8.2 7.6 11.9 16l-2.75-.35q-8.55-7.85-18.55-10.3-10.8-2.65-20.6 1.8-.4-4.25.25-6.75 1-3.8 4.55-5.65 12.35-6.6 25.2 5.25"/><path fill="#e8b67d" d="M382.85 22.6q3.1 3.55.95 9.85-3.35 10-20.9 18.85.5-6.65-2.5-10.95l-4.95-4.8q5.2-9.6 14.25-13.7 8.9-4.05 13.15.75"/><path fill="#c39969" d="M382.85 22.6q1.8 1.35 1.7 5.2-.1 3.45-1.5 6.5l-1-.75q-3.45-3.45-11-1.05-5.85 1.9-12.25 6.45l-3.35-3.4q4.2-7.6 11.85-12.25 9.1-5.45 15.55-.7"/><path fill="#e63556" d="M344.2 55.95q0 2.5-1.75 4.3-1.8 1.8-4.3 1.8t-4.3-1.8q-1.8-1.8-1.8-4.3t1.8-4.3q1.8-1.8 4.3-1.8t4.3 1.8q1.75 1.8 1.75 4.3"/><path fill="#fff" d="M300.25 54q6.15 1.35 12.4 7.65 7.2 7.3 8 15.9-2.8 2.3-7.7 2.6-5.6.3-9.35-2.8-5.25-5.85-4.8-15.2.1-2.9.8-5.8l.65-2.35"/><path fill="#dbdcdc" d="M320.4 75.65q-2.95-6.45-7.45-10-5.6-4.5-14.05-4.85.2-2.45.8-4.9l.55-1.9q5.7 1.2 11.75 7 6.9 6.65 8.4 14.65"/><path fill="#fff" d="M357.4 58l1.3 4.9q.85 5.95-1.7 11.3-2.3 4.8-6.7 5-2.85.1-6.1-1.65 2.6-14.3 13.2-19.55"/><path fill="#dbdcdc" d="M357.45 57.75l.25 1.45.4 3.4q-3.65 1.15-6.75 3.8l-5.2 4.85q.85-4.25 4.75-8.6 3.6-4.1 6.55-4.9"/><path fill="#e63556" d="M309.75 67.35q0 3.65-.65 6.05-.65 2.3-1.55 2.3T306 73.4q-.65-2.4-.65-6.05 0-3.75.65-6.35.65-2.65 1.55-2.65T309.1 61q.65 2.6.65 6.35m38.1-.25q2.55-3.7 3.45-4.5.35 2.55.35 5.45 0 3.3-.85 5.95-.85 2.45-1.65 2.45-.75 0-1.15-2.2-.4-2.1-.4-5.65l.25-1.5"/><path fill="#c72b4a" d="M333.75 51.75q.25 3.55 2.3 6.25 2.1 2.8 5.05 3.25-1.35.8-2.95.8-2.5 0-4.3-1.8-1.8-1.8-1.8-4.3 0-2.4 1.7-4.2m-26.2 6.6q.8 0 1.45 2.15.6 2.15.7 5.35-2.3-2.65-4.2-1.65.25-2.6.8-4.2.55-1.65 1.25-1.65m40.3 11.1V67.1q2.55-3.7 3.45-4.5l.35 4.3q-.5-.15-1.7.6-1.35.8-2.1 1.95"/><path fill="#dbdcdc" d="M343.65 103.75l3.4 1.3-2.65 2.65-.75-3.95m-22.65 1.1l3.95-.55-2.25 4.1-1.7-3.55"/><path fill="#f0e78e" d="M275.4 82.15q-11.65-.45-11.55-1.35.1-1 12.9-1.35 12-.35 16.85.15l1.3 3.2-19.5-.65m21.7 5.5l2.8 3-23.25 6.2q-14.3 3.65-14.5 2.6-.3-1.2 12.7-5.5 12.65-4.25 22.25-6.3m9.9 7.85l3 2.25q-8.75 4.2-17.7 8.05-11.8 5-12.15 4.1-.45-1.05 9.75-6.6 10.4-5.6 17.1-7.8"/><path fill="#c9c279" d="M281.6 80.25l-3.6-.9q10.3-.25 15.6.25l1.3 3.2-10.75-.4q-.5-1.5-2.55-2.15m15.5 7.4l2.8 3-9.1 2.4q-1.05-1.85-3.8-1.85l-4.85.45q8.9-2.75 14.95-4m9.9 7.85l3 2.25-8.2 3.75-2.2-1.4-3.15-.2q5.8-2.8 10.55-4.4"/><path fill="#f0e78e" d="M361.45 80.2l14.3-2.25 12.2-.55q-2.1 1.6-11.9 3.45L361.6 83l-.15-2.8m-3.55 7.85q5.2.85 18 4.4 13.8 3.85 13.6 4.85-.15 1-14.65-1.95l-17.7-3.95.75-3.35m8.25 20.5q-11-6.4-14.2-9.1l1.6-3.2q5.2 3.1 14.5 9.7 10.65 7.55 10.1 8.4-.6.85-12-5.8"/><path fill="#3c4226" d="M366.95 23.35q-6.1 3.6-9.65 9.35-3.3 5.4-5.4 11.6-.5 1.5-1.5 1.55-1.1.05-1.4-1.8-.8-5.15 3.65-13.4 5.05-9.45 13.25-14.45 7.45-4.55 14.7-4.5 7.1.05 9.55 4.45 3.4 6.05 1.45 13.95-2.15 8.55-9.9 15.3-5.85 5.2-12.4 7.9l-5.35 1.65-.45-3.6 8.85-5.45q9.15-6.6 10.95-12.3 1.75-5.55.6-9-1.3-3.8-5.95-4.3-5-.5-11 3.05M315.7 39.9q.7 3.3-.75 3.85-1.35.5-2.7-1.75l-3.15-5.05-5.85-8.8q-7.45-10.75-16.75-14.9-6.8-3-11.65-1.85-4.3.95-7.1 4.65-3.65 4.65-2.2 11.5 2.15 9.9 9.9 17.65 2.95 2.95 10.45 8.1 1.1.75.95 1.7-.2 1-1.9.55-7.3-2.05-13.75-7.2-6.3-5-10.1-11.55-4.55-7.8-4.55-15.1 0-8.7 6.5-14.85 5.65-5.4 14.35-5.1 8.45.35 16.35 5.85 8.25 5.75 15.1 17.05 5.65 9.2 6.85 15.25m16.95 53.2q-1.25-1.8.65-3.3.75-.55 5.05-.65 4.4-.05 4.95.65.55.75.35 1.65-.25.95-1.2 1.75t-2.25 1.35q-1.3.6-2.25.6-1.1.05-3.1-.8-1.85-.8-2.2-1.25"/><path fill="#fff" d="M341.6 91.2l-.75.6-1.9.3q-2.65.1-2.75-.7 0-.65 2.7-.7 2.65-.1 2.7.5"/><path fill="#0d131a" d="M132.45 71.45q-1.25.6-2.15 1.7-1.05 1.35-2.1 2-9.75 2.2-22.75 10.35-14.5 9.1-22.35 19.5-8.45 11.1-15.2 25.45-4.6 9.8-8.9 22.4-3.85 11.25-11.6 17.4-6.8 5.4-13.7 5-4.15-.25-7.25-2.65-3.25-2.55-4.3-6.85l2.35.9q1.35 2.85 3.65 4.6 2.45 1.85 5.45 2 6.45.35 12.75-4.85 7.1-5.9 10.8-16.7 10.15-29.5 24.65-48.6 9.25-12.25 24.6-21.2 13.2-7.65 26.05-10.45"/><path fill="#0d131a" d="M2.05 144.5q4.05-11.1 15.05-15.35 10-3.85 19.75-.3Q46.55 132.4 50 141q1.85 4.65 1.85 9.4 0 4.9-2.05 8.9-1.75 3.5-5 6.15-3.2 2.55-6.5 3.3-4.7 1.05-9.7-.05-4.4-.95-7.3-3.15-4.75-3.65-5.55-9.2-.7-5.3 2.5-8.95 3.1-3.5 7.7-3.65 4.6-.15 7.2 3.15 1.9 2.4 1.1 2.7-.75.25-2.95-1.8-2.1-2-5.8-1.45-3.6.55-5.55 2.95-2.1 2.7-1.35 7.35.8 4.85 4.15 7.15 3.2 2.15 6.85 3.05l7.35.25q3.6-.85 6.45-3 2.95-2.2 4.55-5.4 1.9-3.75 2-8.25.05-4.45-1.65-8.7-3.2-7.95-11.9-10.95-8.75-3-18.25.65-10.4 4-14.05 14.05-3.1 8.45-.9 18.8 2.45 11.25 11.6 18.75 10.15 8.25 23.45 6.95 14.85-1.5 24.8-15 7.05-9.6 12.65-27.25 3.65-11.45 11.3-24.1 7.65-12.65 15.8-20.6 3.15-3.05 7-5.7l-.25 3.2-6 4.7Q95.6 113 88.25 125.4 81 137.6 77.4 149.05 71.75 166.9 64 177.1q-10.6 14-26.05 15.5-13.8 1.4-24.7-7.75-9.8-8.2-12.35-20.05-2.35-10.85 1.15-20.3m196.4 78.75q.2 1.8-.7 3.75-.95 1.85-1.9 1.85-.5 0-1.25-.5l-1.1-1.1 1-.6.8.95.6.25q.4-.2.8-1 .45-1 .45-2.25l1.3-1.35m-9.7 9.95l1.75-1.6q.1 1.25-1.1 3.15-1.2 1.95-2.3 1.9-.45 0-1.3-.75-.9-.8-1.2-1.6l1.35-.15.5.9.8.55q.4.05.9-.8.5-.8.6-1.6m-12.6 5.3l1.25.1q-.15.7-1.6 1.9-1.55 1.2-2.25 1.05-.6-.1-1.35-1.55-.7-1.4-.95-2.8l1.5.65.4 1.7q.3.9.65.95.65.05 1.55-.8.75-.8.8-1.2m-58.15.55l1.05-.9q.7-.9.75-1.7.5-.15 1.4-.65-.1 1.25-1.25 2.8-1.25 1.6-2.2 1.6-.45 0-1.1-.7-.65-.7-.85-1.55.6-.25 1.15-.55.75 1.7 1.05 1.65m-10.15 4.9l1.05-.4.95-.85 1.75-.25q-.8 1.3-2 2.05-1.15.7-2.05.55-.7-.1-1.35-1.05-.6-.95-.8-2.15l1.5.3q.35 1.7.95 1.8m-11.25-.4l1.95-.35q-.15.9-1.65 2.55-1.65 1.75-2.8 1.8-.75 0-1.85-1.45-1.05-1.4-1.25-2.55l1.6.15.8 1.7q.5.6.85.6.6.05 1.45-.9.8-.9.9-1.55m158-10.9l1.25-.55q.25 1.2-.55 2.65-.8 1.4-1.95 1.75l-1-.2-.9-.8.75-.8.6.5.55.3q.4-.05.8-.9l.45-1.95m-5.9 6.25l.8-.55.75-.6q-.1 1.55-1.25 3-1.1 1.4-1.85 1.3-.7.2-1.7-1.05-.85-1.05-1.05-1.85l1.45.3q.65 1.6 1.25 1.6.45 0 1-.6.6-.75.6-1.55m-13.85 3.55q.55 2.05 1.05 2.2l.95-.6q.75-.75 1-1.8l1.75-.7q0 .9-1.45 2.6-1.55 1.8-2.5 1.6-.5 0-1.4-1.5-.8-1.35-1.1-2.4l1.7.6m75.65 20.5l1.75-.15q-1 1.3-2.55 1.95-1.25.55-1.85.4-.55-.15-1.05-1.25-.45-1.05-.4-1.7l1.45.4q.15 1.35.4 1.5l1.05-.2q.85-.35 1.2-.95m-17.35 7q-.9-1.35-1.35-3.1l1.85.7.65 1.7q.55.9.95.9.5.05 1.15-.55l.85-1.3 1.75-.25q-.35 1.1-1.55 2.2-1.25 1.15-2.35 1.15-.95 0-1.95-1.45M165.35 147.9l2.55-.3q-6 19.6-4.25 26l8.85 30.65q1 3.85.15 3.85t-2-3.85q-6.95-21.75-9.3-30.95-1.1-4.15 1.35-15.2l2.65-10.2"/><path fill="#0d131a" d="M198.1 215.05q1.4 2.8 1 6.05-.35 3-2 4.75-.7.75-2.2 1.3-1.35.5-2.75.6l.6-1.6q2.5-.05 3.8-2 2.3-3.2-.4-8.45-1.5-2.85-7-4.1l-9.75-1.8q-3.75-.9-6.2-2.95-1.2-1.05-1.85-2.1.25 0 .1-.8-.2-.8.15-.8.6 1.1 3.3 2.95 2.95 1.95 4.75 2.25l11 1.8q5.7 1.45 7.45 4.9m-54.35-24.9q-2.55-5.1-11.9-20.45-3.55-5.85-3.65-10.15l2.65-.6q-.3 1.6.45 4.2.8 3 2.65 6.15l10.75 18.5q5.3 10 5.8 15.9.3 3.2-.05 11.55-.05 3.1 1.25 5 1.5 2.1 5.55 4.05 7.65 3.7 12.65 9.8 2.9 3.25 6.2 3.35 1.6.05 3.1-.9 1.4-.85 2.25-2.3 1.75-2.9.65-6-1.2-3.5-5.55-4.95-1.75-.55-1.5-.9l1.75-.05q4.85.65 6.7 5.6 1.9 4.95-1.3 8.4-1.2 1.25-2.25 1.85-1.5.75-4.1 1.1-1.55.2-3.7-1.1-2-1.2-3.45-3.05-1.7-2.1-5.3-4.85-4.25-3.25-8.5-5.3-3.5-1.7-4.9-3.35-1.95-2.35-1.85-6.25.55-7.65.2-11.3-.55-6-4.6-13.95"/><path fill="#0d131a" d="M187 217.85q2.85.75 4.8 3.25 2.3 2.9 1.6 6.4-.85 4.2-3.4 5.85-2.4 1.55-7.25 1.4l.5-1.55q3.75.65 5.95-1.1 2-1.55 2.35-4.6.75-5.95-5.3-8.75-1.55-.7-1.45-1.05l2.2.15m50.8-27.9l1.65 2q-5.7 11.05-5.7 17.95 0 2.7.55 4.5 12.7.7 16.2 1.75 4.7 1.4 6.6 6.05 1.4 3.4 1.05 6.6-.25 2.4-1.15 3.6-.55.75-1.95 1.2l-2.45.45q.4-.85.3-1.45 1.75 0 2.65-1.2 1.8-2.45-.15-7.85-1.6-4.3-4.7-5.7-3.9-1.7-15.85-2.3.75 1.65-.2 1.05-.95-.55-1.85-2.7-1.35-3.05.05-10.05 1.45-7.1 4.95-13.9"/><path fill="#0d131a" d="M212.7 181.8q-.75-12.3-2.25-23.85l2.8.85q1.15 11 1.7 22.4.9 18.3-.85 22.5-.9 2.2-3.65 6.35-2.35 3.6-2.85 5.75-.5 2.35.35 5.6.95 3.8 3.3 5.25 2.9 1.8 9.75 5.1 4.3 2.1 6.15 4.3 4.95 5.9 9.45 5.75 1.7-.1 3.25-1.1 1.6-1.05 2.25-2.65 1-2.3 1.1-4.95.15-2.8-.8-4.55-1.8-3.15-7-3.35l-2.15-.35q-.05-.35 2.3-.45 2.8-.15 4.7.6 2.45.95 3.85 3.45 1.1 1.85.85 5.65-.25 3.65-1.45 5.65-1.05 1.75-3.15 2.75-1.75.8-3.7.9-5.1.15-10.7-6.35-2.75-3.2-14.5-8.25-3.35-1.5-4.9-4.65-1.6-3.2-1.1-7.7.3-2.8 2.75-6.4l3.85-6.35q1.75-4.35.65-21.9"/><path fill="#0d131a" d="M243.9 221.9q.45-.25 1.95 0 4.05.65 6.4 3.6 2.65 3.4 1.2 7.95-.95 3.05-2.15 4.35-1 1.1-3.05 1.8l-2.95.25q-1.5-.15-2.55-.8l.45-1.45q.75.55 2.1.75l2.5-.15q2.75-.85 3.95-5.25 1-3.65-.45-6.3-1.6-2.85-5.8-3.95-2.15-.55-1.6-.8M99.75 185.6q-.05-1.6.45-5.15.5-3.4 1.1-5.8 1.3-5 2.25-4.9.9.05-.35 5.35-.75 3.15-1.05 6.15-.3 2.9-.05 4.45.9 6.45 5.6 18l6.15 14.8-2.7-.15-6.5-16.95q-4.7-12.5-4.9-15.8"/><path fill="#0d131a" d="M126.2 226q.9 5.1-2.6 8.6-2.8 2.8-6.35 3.35.6-1.4.6-2.1 3.05-.6 4.8-2.5 2.4-2.65 1.6-7.25-.45-2.8-3.55-4.65-3.4-1.95-9.55-2.55-1.4-.15-1.75-.5-.45-.35 1.6-.5 5.75-.4 10.05 1.85 4.45 2.3 5.15 6.25m46-111.35q1.9-4.3 2.85-4.7.95-.4-1.05 5.05-3.95 10.6-11.25 20.75-6.4 9-12.45 13.85l5.3-.95 8.95-1.5q5.8-.65 11.75-.15 5.4.45 11.55 2.3 3.9 1.15 12.15 4.25 14.1 5.3 24.9 8.35 2.85.85 6.3 1.15.25 1.15 1.05 2.65l-6.85-1.25q-6.8-1.95-14.4-4.65l-11.6-4.3q-8.2-3.1-12.1-4.25-5.9-1.75-11.15-2.2-9.8-.85-20.2 1.3l-8.35 1.3q-5.75 4.15-11.65 6.7-4.4 1.9-12.85 4.45-6.65 2.05-12.9 7.4-6.15 5.35-8.1 10.55-.25-1.85.25-4.65 2.6-3.9 6.25-7.25 5-4.45 10.6-6.55l14.5-5.9q7.65-3.4 13.15-7.5 13.75-10.3 25.35-34.25m119.4 15.2q5.5-9.7 12-16.25 4.05-4.15 9.4-7.7l1 1.4q-4.6 2.75-10.6 9.35-6.5 7.2-9.95 14.05-5.1 10.35-10.4 16-5.85 6.35-15.95 11.65l-.2-3q8.55-4.6 13.75-10 5.15-5.3 10.95-15.5"/><path fill="#0d131a" d="M266.55 138.15q0-11.7-.65-20.05-.5-6.55.3-6.5.75 0 1.45 6.25 2.55 22.9.75 42l-.9 11q-.1 2.95.75 5.85 1.3 4.4 12.1 27.15 9.4 19.75 12.45 25.55l1.35 2.35q.9 1.15 2.1 1.2l9.25-.6q6.55-.6 10 .15 3 .65 5.55 3.3 2.45 2.65 3.35 6 2.2 8.25-6.1 11.95l-.1-2.15q6.05-3.4 3.85-9.85-2.15-6.2-7.9-7.2l-9.5-.3-8.5.3q-2.1-.15-3.25-1.45l-1.7-2.9q-3.95-7.4-13.15-26.15-11.5-23.3-12.8-27.75-.5-1.75-.25-6.35l.8-10.2q.8-8.45.75-21.6"/><path fill="#0d131a" d="M222.65 144.55q-6.85-17.6-7.25-29.85-.15-5 .5-4.7.65.25 1 4.45 1 12.3 8.4 30.55 8.35 20.75 9.8 27.95l1.7 10.9q1.65 7.2 5.5 10.65 16.35 14.75 21.45 24.95 3.25 6.5 5 12.75Q270 236.6 271 243q.65 6.1 2 8.7 1.35 2.5 4.8 4.3 4.2 2.15 7.45 4.45l4.35 3.5q4.15 3.6 8.25 3.05 4.75-.65 6.95-7.05 1.3-3.7.1-6.75-1.5-3.75-6.65-6.15-3.5-1.65-3-1.9.45-.25 3.75.95 4.7 1.7 7.2 5.45 2.9 4.4.95 9.5-2.25 5.95-7.6 7.4-5.6 1.5-10.95-3.1-4-3.6-12.35-7.85-4.05-2.1-5.8-5.7-1.5-3.1-1.95-9.1-1.05-6.7-2.05-10.35-1.65-5.95-4.75-12.2-4.5-9.1-21.8-24.7-3.8-3.45-5.3-9.5-.25-1.1-1.95-12.8-1.4-6.3-4.45-14.45l-5.55-14.15"/><path fill="#0d131a" d="M316.85 247.05Q314.2 242 303.6 242q-2.2 0-2.25-.4-.1-.45 2.7-.65 8.1-.55 12.6 2.75 4 2.9 3.6 7.25-.3 2.75-1.3 5.35-.9 2.35-2.1 3.8-2.2 2.65-5.85 3-3.25.3-6-1.2l.8-1.3q2.8 1.45 5.4.85 2.9-.65 4.4-3.7 3.35-6.55 1.25-10.7M271.7 66.3q-5.95 3.85-15.5 6.45-3.6 1-3.8.4-.25-.6 3.55-1.8 8.55-2.75 15.6-7.5 6.6-4.45 10.35-9.6l2.15.8Q277.3 62.7 271.7 66.3"/><path fill="#0d131a" d="M253.5 66.65q7.35 2.45 12.4 2.5l-1.5.7q-1.35.4-1.65.55-4.15.15-9-1.6-6.9-2.55-13.35-2.45-9.15.15-25.1 4.9-11.45 3.45-12 2.45-.15-.3 2.65-1.15l5.5-1.65-9.6.05-14.3-1.35-7.25-1.35Q155.95 63.6 145 67q-7.35 2.3-16.15 9.25-7.85 6.15-12.95 12.6-3 3.85-6.1 12.2-2.1 5.65-4.8 15.15-8.6 29.95-19.75 37.85-8.45 6-10.9 12.45-2.1 5.45-.1 12.15 5.55 18.45 4.75 27.7-.85 9-.8 10.5.05 3.65 1.85 6.7 2 3.35 5.05 9.95l3.2 6.6q1.9 2.8 7.05 2.6 5.2-.15 7.15-3.1 2.85-4.2 2.2-7.55-.6-3.35-4.3-4.05-1.65-.3-1.35-.55l1.95-.1q4.65.3 5.5 4.7.85 4.3-2.6 8.75-2.65 3.45-9.05 3.75-6.5.3-8.2-3.4-3.4-7.15-9.3-17.7-1.6-2.85-1.5-6.6l.9-10.4q.35-5.8-.4-10.35-.9-5.75-4.45-16.5-2.45-7.5-.1-13.65 2.6-6.75 11.3-12.9 6-4.25 11.45-15.3 4.5-9.05 8.2-21.65 2.75-10.3 4.45-15.35 2.95-8.75 6.7-13.3 7.55-9.05 15.35-14.95 8.7-6.65 17-8.7l16.7-.6q6.75.65 17.7 2.75l7.2 1.65q7.9 1.35 18.4 1.45l11.95-.45q12.1-3.7 21.1-3.95 7.35-.2 14.2 2"/><path fill="#0d131a" d="M116.65 231.1q-.85-3.35-3.15-4.95-1.55-1.15-3.85-1.7-1.85-.4-1.4-.7l1.95-.05q1.9.15 4.35 1.5 2.3 1.35 3.6 4.75 1.25 3.25.7 5.35-1.7 6.7-7.7 7.55-5.05.75-8.35-2.15l1-1.1q3.8 2.25 7.3 1.55 3.8-.75 5.4-4.65.95-2.25.15-5.4M344.5 26.85q2.1-.2 6.9-1.95 4.85-1.8 7.4-3.35l-.8 2.1q-4.8 2.85-12.2 4.3 2.9 1.9 2.85 2.4-.05.45-3.15-1.1-19.95-9.95-35.9-2.8l-1.05-2.35q6.65-2.95 15.1-2.75 10.45.25 20.85 5.5M282.3 79.4q0-1.8.35-4.35l.55-4.2q.25-2.2.7-2.4.5-.2.55 2.35.1 3.4-.2 8.7l-1.95-.1m2.05 3.1q.2 1.6 1.45 2.95 1.45 1.6 5 3.6l-2.65.45q-6.2-4.45-6.15-7.05l2.35.05m19.5 14.3q-.5.55-1.75.55-5.55-3.65-9.4-4.55l2.4-.75q3.05 1.25 8.75 4.75m40.2 10.1h.95l1.05-.1-2.75 4.25q-1.95 2.4-4.35 3.4-3.25 1.35-8 1.3-5-.05-9.05-1.6-3.65-1.2-8.7-6.35l-8-7.85q.85-.6 1.7-.8l7.35 7.2q4.6 4.5 8.3 5.85 4.25 1.55 9.05 1.6 4.3 0 7.15-1.1 3.15-1.3 5.3-5.8"/><path fill="#0d131a" d="M315.2 44.35q-2.45.2-4.5-3.45-9.35-16.35-18.75-23.7-8.9-6.95-16.95-5.1-4.2.95-6.8 4.55-3.25 4.45-1.9 10.75 1.9 8.9 9.2 16.6 1.75 1.85 9.55 8.2 2.55 2.05 2.55 3.55-.05 1.55-3.2.4-21.35-7.75-27.95-24.7-2.9-7.45-1.6-14.45 1.3-7.15 6.7-11.95 5.65-5.1 15.1-5.05 9.55 0 17.15 5.35 7.2 5.05 13.5 15.1 5.4 8.5 8.4 17.65 2.05 6.1-.5 6.25m-.9-1.8q1.15.2.3-3.2-1.35-5.35-6.9-14.5-7-11.45-14.35-16.65-7.15-5-15.9-5.3-8.85-.35-13.9 4.45-5.25 5-6.1 11.9-.8 6.5 2.35 13.45 6.75 14.85 23.95 21.6 2.45.95 2.25.4-.2-.45-2.6-2.15-6.85-4.7-10.75-8.9-6.85-7.3-8.7-15.95-1.5-7.05 1.95-12.1 3.1-4.5 8.8-5.8 10.6-2.45 21.6 8.55 7.15 7.15 15.65 21.8 1.3 2.25 2.35 2.4"/><path fill="#0d131a" d="M291.25 37q3.35-2.45 7.4-3.4 4.1-.95 8.05-.1l.8 1.45q-3.7-.8-7.75.15-3.95.95-7.15 3.3-2.8 2.05-4.7 5.05-2.45 4-2.95 9.1l-1.5-.5q.5-5.45 2.95-9.6 1.95-3.35 4.85-5.45m42.15 24.05q-2.15-1.85-2.35-4.6-.2-2.75 1.7-4.8 1.9-2.1 4.75-2.3 2.8-.2 4.95 1.65 2.15 1.8 2.35 4.55.2 2.75-1.7 4.85-1.9 2.1-4.75 2.3-2.8.2-4.95-1.65m.8-1.2q1.65 1.65 3.95 1.65 2.3 0 3.9-1.65 1.65-1.6 1.65-3.9t-1.65-3.9q-1.6-1.65-3.9-1.65t-3.95 1.65q-1.6 1.6-1.6 3.9t1.6 3.9m-12.95 17.3q.5 2.9 0 2.75-.5-.15-1.15-2.6-2.4-8.65-6.8-13.65-4.7-5.4-13.85-9.25-2.95-1.2-2.4-1.5.55-.3 3.3.6 8.3 2.65 13.6 8.4 5.65 6.15 7.3 15.25"/><path fill="#0d131a" d="M300.75 54.1q-2.35 7.8-1.15 14.15 1 5.5 4.35 8.6 3.15 2.8 8.6 2.55 4.8-.25 7.85-2.3l.4 1q-4 2.5-8.95 2.55-5.3.05-8.75-2.85-4.95-4.85-5.5-12.3-.45-6.05 1.9-11.45l1.25.05m56.6 3.15q2.05-.95 2.15-.55.15.4-1.6 1.3-5.75 3.05-8.9 8.15-2.65 4.25-4.2 11.5-.35 1.75-.85 1.75-.45 0-.1-2.1 1.5-8.4 4.35-12.7 3-4.6 9.15-7.35"/><path fill="#0d131a" d="M358.05 57.4q1.65 7 .9 12.05-.7 4.8-3.45 7.5-2.2 2.3-4.7 2.65-2.8.45-6.5-1.4l.2-1.1q3.7 1.95 6 1.7 2.35-.25 4.55-2.9 2.2-2.65 2.7-7.5.45-4.8-.8-10.55l1.1-.45m-49.35 3.55q-.55-2.2-1.15-2.2-.6 0-1.15 2.2-.65 2.55-.65 6.4 0 3.8.65 6.1.55 1.9 1.15 1.9.6 0 1.15-1.9.65-2.3.65-6.1 0-3.85-.65-6.4m-3.4-.05q.9-3.4 2.25-3.4t2.2 3.45q.65 2.85.65 6.4 0 3.45-.65 6.2-.8 3.25-2.15 3.25-1.3 0-2.2-2.8-.85-2.75-.85-6.7 0-3.45.75-6.4"/><path fill="#0d131a" d="M351 63.05l.85-1.05q.85 4.9-.05 9.95-.9 5.05-2.65 5.05-1 0-1.7-2.5-.75-2.8-.2-6.3l.9-1.65q-.3 3.55 0 6.45.3 3 1.05 3 .8 0 1.55-3.85.85-4.35.25-9.1m-7.85 40.8l1-.2.15 1.4q.2 1.4.45 1.55.35.25 2.05-2.2l1.75-.15q-3.8 4.05-4.3 3.9-.3-.1-.75-2.2l-.35-2.1m-18.65.2l1.35.15q-2.25 4.6-3.1 4.5-.55-.05-1.4-1.8l-.8-1.8 1.05-.35.45 1.3.7 1.25q.35 0 1.75-3.25m53.35-83Q373 20.55 367 24.2q-5.95 3.6-9.35 9.1l-1.25 2.05q4.45 2.25 6.3 6.2 1.75 3.85.75 8.75 5.9-3.2 10.4-6.65 7.3-5.6 8.75-10.3 1.85-5.8.25-9.1-1.4-2.85-5-3.2m7.25-10.65q4.7 1.25 7 5.45 2.1 3.85 1.65 9.4-.85 12.1-10.25 20.3-5.95 5.2-13.4 8.25l-6.6 2.1-.1-.75q-.05-.75.4-.85 3.25-.8 6.8-2.45 5.75-2.75 10.65-7 9.6-8.35 10-19.35.2-4.7-1.65-8.05-1.9-3.4-5.35-4.3-3.65-.95-8.7.1-5.1 1.05-9.25 3.55-6.9 4.25-11.7 12.3-4.1 6.85-4.8 12.75-.3 2.5.3 2.85.65.3 1.6-2.2 1.95-5.25 5-10.2 3.6-5.9 9.95-9.95 6.5-4.15 11.65-3.65 4.55.5 6.4 4.45 1.95 4.1 0 10.35-1.5 4.75-8.9 10.4-4.85 3.75-11.6 7.35l-1.95.75q-.25-.15 0-1.9.55-4.4-1.05-7.6-1.5-2.95-5.35-6-1.1 2.1-2.15 4.55l-1.65 3.8q-.85 1.85-2.2 1.45-1.5-.4-1.4-3.95.2-6.3 4.1-13.7 4.8-9.15 13-14.1 4.5-2.75 10.05-3.95 5.6-1.25 9.5-.2"/><path fill="#0d131a" d="M363.9 64.75q-.75 4.6-1.3 4.75-.55.15.05-4.85.85-6.7.35-13.65l1.95-.75q.45 3.35 0 7.65l-1.05 6.85"/><path fill="#0d131a" d="M363.2 67.75q-.65-1.2-.45-2.35.2-1.1.85.05 2.2 3.95 3.45 7.5 1.4 3.85 1.25 6.15l-1.85.25q.2-2.05-.8-5.55-.95-3.35-2.45-6.05m-4.95 23.75h1.65q-1.15 1.25-2.2 3.05l-1.8 3.35-1.5-.95q1.9-3.1 3.85-5.45m-5.65 8.35l.95.55.45.4q-3.7 6.85-12.4 2.85-2.85-1.4-4.25-1.65-2.6 0-10.75 2.6-4.35 1.35-7.1.65-2.65-.7-4.3-3.55-.9-1.5-.6-1.85.3-.3 1.3 1 1.7 2.3 3.95 2.95l6.65-.35 6.3-1.8q3-.75 4.45-.75l2.6.8 2.75 1q4.25 1.45 6.55.65 1.9-.7 3.45-3.5M362 89.2l-1.1-.8 2.5-2.55q1.6-1.8 2.2-3.4l1.15-.2 1.2-.2q-.7 2.1-5.95 7.15"/><path fill="#0d131a" d="M337.55 95.15h1.3l-.45 3.55-.85 2.9-1-.15q1.05-3.55 1-6.3m-70.05-15.7l15.55-.55q8.15-.05 9.95.2 1.6.2 1.45.7-.15.45-1.55.35l-14.45-.1-13.75.7q-.05.6 10.75.95l18.85.6q1.05.05.9.55-.2.5-.95.45l-12.3-.25-14.6-.8q-4.6-.5-4.55-1.45.1-.95 4.7-1.35m-2.7 17.75q7.8-3.3 17.3-6.3 9.55-3 14.85-3.75.75-.1.8.4.1.5-.55.6-6.1 1.05-20.4 5.75-14.05 4.65-13.8 5.35.2.55 17.4-3.9l19.35-5.2q.7-.2.8.3.15.45-.55.7-5.65 1.9-15.6 4.45-11.35 3-19.05 4.35-3.95.75-4-.25-.05-1 3.45-2.5m42.05-2.2q.5-.2.6.35.15.5-.3.65-6.5 2.3-16.7 7.85-9.3 5.1-9.1 5.5.2.5 14.05-5.55l14.4-6.5q.6-.35.8.15.15.45-.4.8-2.3 1.35-11.15 5.25-9.7 4.3-15.5 6.3-3.8 1.3-4.05.5-.3-.8 2.95-2.95 4.75-3.15 11.55-6.6 7.05-3.6 12.85-5.75m54.85-11.5q-.6.05-.6-.4t.45-.65l12.95-2.15q12.5-2.1 12.4-2.65l-12.6 1.2-12.8 1.85q-.35 0-.45-.45-.1-.4.3-.6l7.25-1.25 14.2-1.6q5.6-.4 5.75.65.15 1-5.45 2.25l-13.7 2.65-7.7 1.15m-3.9 5.05q-.55-.1-.55-.65 0-.5.7-.4 2.65.45 11.85 3l15.6 4.45q5.05 1.55 4.85 2.5-.2.95-5.25.1l-17.85-3.45L357 91.9q-.55-.15-.45-.6.1-.45.7-.4l16 3.5q15.4 3.35 15.45 2.75.1-.95-30.9-8.6m-4.5 8.15q-.35-.2-.15-.65.25-.45.7-.25l8.75 5.8q9.3 6.35 13.95 10.2 2.55 2.15 2.1 2.8-.4.7-3.3-.7-5.85-2.75-15.1-8.5-7.75-4.75-8.65-5.6-.45-.4-.15-.8l.85.05q24.6 15.65 25.15 14.8.55-.85-24.15-17.15"/><path fill="#f2a6a3" d="M341.7 53.95q0 .65-.5 1.15-.45.45-1.15.45-.65 0-1.15-.45-.45-.45-.45-1.15t.45-1.15q.5-.5 1.15-.5.7 0 1.15.5.5.5.5 1.15"/><path fill="#0d131a" d="M333.55 90.35q-1.35 1.25-.6 2.25.55.8 2.3 1.4l2.8.55q1.1-.05 2.5-.7l1.8-1.25q1.3-1.45.7-2.35-.65-.85-4.7-.75-4 .1-4.8.85m-1.75 2.45q-.55-.8-.1-1.9.35-1 1-1.4 1.45-.95 5.95-.9 4.45 0 5.15.9.65.85.4 2.05-.25 1.15-1.3 2.05l-2.1 1.2-2.65.6q-1.75.05-3.7-.75-1.95-.8-2.65-1.85"/></svg>