<svg xmlns="http://www.w3.org/2000/svg" width="183" height="236" viewBox="-1.25 -0.3 182.6 235.7"><path fill="#0d131a" d="M83.2 40.2L70.55 39Q57.7 37.4 56.9 35.65q-.65-1.35-.2-5.7.4-4.3 1.25-5.1 1.4-1.35 12.25 3.65 5.4 2.5 10.55 5.25L70.2 21.65Q59.65 9.2 59.6 7.55q-.05-1.95 2.85-4.4T67.4.7q2.4 0 9.05 9.9 7.1 10.6 11.1 21.35l-1.4-14.85Q84.9 2.05 85.7 1q1-1.3 4.35-.9 3.2.35 4.35 1.6.85.9 0 19.05L93.35 38.7 83.2 40.2m61.6 194.55q-3.1.65-9.3-3.2l-5.55-4-8.05 3.75q-8.55 3.5-11.15 2.55-1.5-.55-1.25-6.25.25-5.3 1.65-10.1l37.25-12.65q7.75 4.45 14.85 12.65 7.45 8.65 5.1 11.6-1.45 1.85-10.2-1.25l-8.45-3.5-1.2 4.95q-1.6 5.05-3.7 5.45"/><path fill="#fff1ac" d="M149.2 219.45l-1.4 6.45q-1.55 5.5-3.4 6.05-1.65.5-6.65-2.2-5.9-3.2-9.2-8.05-.7-1.05-1.1-.75-.35.3.15 1.65l1.1 2.8q-3.35 2.15-8.1 4.1-5.5 2.25-7.25 1.55-1.35-.5-1.05-6.05.3-5.2 1.55-9.55L145 205.7q6.8 2.95 14.55 11.45 7.4 8.15 5.95 9.85-.65.7-6.35-1.35-5.75-2.05-9.05-4.15l.05-1.6q0-1.1-.3-1.4-.35-.35-.65.95"/><path fill="#dcd096" d="M132.55 218.15q-5 1.55-13 3.05l-7.05 1.2.45-4.55 33.25-12.2 4.45 3.5-6.4 3.7q-7.3 3.95-11.7 5.3"/><path fill="#0d131a" d="M82.15 216.3q3.85 6.6 5.4 10.4 2.5 6.05.45 7.05-2.55 1.2-11.3-2.8l-8.25-4.25-5.05 4.3q-5.55 4.3-8 4.1-2.35-.2-4.4-4.55l-1.55-4.3L39 228.5l-12.1.35q-2.05-2.35 7.25-11.05 9.15-8.45 16.8-11.8l31.2 10.3"/><path fill="#fff1ac" d="M84.25 224.45q2.45 5.9 1.25 6.65-1.2.75-6.9-1.8-5.7-2.5-8.5-4.95l.6-1.9q.25-1.1-.25-1.2-.5-.1-1 .75-1.8 2.9-6.95 6.6-5.15 3.75-7.1 3.45-3.4-.5-5.3-10.05-.2-1-.55-.9-.3.1-.4 1.25l.1 1.25q-4.75 1.65-11.65 2.7l-7.25.3q-.75-1.45 6.95-8.6 8.65-8.1 17.45-11.65l24.3 8.1q3 4.65 5.2 10"/><path fill="#dcd096" d="M62.4 216.9q-4.35-1.55-9.45-4.7l-4.25-2.9 3.7-2.05 28.05 9.05 2.55 5.25-6.6-1.05q-7.85-1.45-14-3.6"/><path fill="#0d131a" d="M12.15 187.2Q5.4 181.4 2.1 176q-3.35-5.35-1.45-7.25 3.1-3.15 12.3 1.75 5.6 3 7.4 3.7 4.2 1.7 7 1.15l.85 3.9q1.55 5 5.1 10.35t9.35 10.25q2.9 2.45 5.1 3.8-18.45-1.6-35.6-16.45"/><path fill="#f9be00" d="M15.45 186.3q-6.65-5.35-10.5-10.1-3.8-4.8-2.55-6.2 1.2-1.4 4.35-.2 1.65.65 6.95 3.6 11.1 6.2 17.1 5.45l15.55 22.55q-14-1.55-30.9-15.1"/><path fill="#d7a400" d="M23.45 192.25Q11.9 185 6.6 178.1q13.25 11.85 25.35 15.15 6 1.65 9.4.95l5 7.2q-10-1.1-22.9-9.15"/><path fill="#0d131a" d="M167.6 64.25q8.2 9.8 10.8 21.35 2.95 13.15-1.85 27.95-4.95 15.15-15.35 23.5l-26.1-31.75q3-3.5 5.55-9.05Q145.7 85.2 143.5 75q-2-9.1-7-18.35-3.7-6.75-3-7.45.95-.95 3.05-.65l1.9.55-.6-1.55q-.35-1.7.85-2.6l4.6-.1 3.2.95q.15-1 .6-2 .85-2 2.2-2.1 2.35-.2 4.75 3.7l4.7 9.2q.85 1.65 8.85 9.65"/><path fill="#f9be00" d="M165.35 65.35q8.8 11.2 10.25 22.1 2 14.45-1.75 26.2-3.85 12.15-13.65 20.9l-22.05-27.1q2.95-4.1 5.5-10 5.1-11.85 3.1-21.05-1.9-8.65-6.5-17.35-3.65-6.9-3.5-7.1.65-.85 2.55-.35.95.25 1.8.7-.5-1.05-.75-2.3-.55-2.45.55-3.25 1.05-.8 4.25.4l2.95 1.3.05-2q.25-2 .95-2.3 1.2-.45 3.45 3.25 1.85 3.1 3.85 7.95l2.9 3.15q3.55 3.65 6.05 6.85"/><path fill="#0d131a" d="M171.65 169.35q-.2 22.3-21.6 36.25-20.8 13.65-52.05 13.3-31.65-.35-52.6-15.15-20.85-14.65-20.65-36.15.1-11.45 5.95-25.35 5.9-14.1 15.8-26.25 10.7-13.1 23.45-20.5 14.2-8.25 28.8-8.1 14.8.15 29 9.15 12.65 7.95 23.2 21.7 9.6 12.5 15.3 26.75 5.5 13.85 5.4 24.35"/><path fill="#f9be00" d="M168.7 168.7q-.2 21.25-20.7 34.85-20.1 13.35-49.75 13-29.7-.3-49.95-14.1-20.75-14.1-20.55-35.3.1-10.85 5.8-24.1 5.7-13.35 15.35-24.95 10.35-12.4 22.6-19.45 13.6-7.85 27.5-7.7 13.9.15 27.35 8.3 12.1 7.3 22.2 19.95 9.4 11.8 14.85 25.3 5.4 13.35 5.3 24.2"/><path fill="#d7a400" d="M105.7 92.15l4.05.15q13.05 3.1 25.2 13.05 11 9 19.5 22.05l.05 1.6q0 15.25-14.3 26.05t-34.5 10.8q-20.2 0-34.5-10.8-14.25-10.8-14.25-26.05t14.25-26.05q14.3-10.8 34.5-10.8M90.7 210q19.5 1.95 38.65-2.25 18.2-3.95 27.5-11.4-9.5 9.8-24.85 15.15-15.5 5.45-33.8 5.2-29.75-.3-49.95-14.05Q27.5 188.5 27.7 167.3q6.95 19.7 25.1 30.85Q68.6 207.8 90.7 210"/><path fill="#0d131a" d="M90.55 35.5q28.75-1.6 48.95 11.65 19.1 12.6 20.8 31.45 1.8 19.85-15.65 34-17.35 14.1-45.4 15.7Q71 129.85 51 118.2q-20.2-11.85-22-31.6-1.8-19.95 15.9-34.75 17.75-14.8 45.65-16.35"/><path fill="#f9be00" d="M90.85 37.6q26.05-1.45 45.7 10.65 19.6 12.1 21.3 30.65 1.65 18.55-15.6 32.65-17.25 14.15-43.3 15.6-26.1 1.45-45.7-10.65-19.65-12.1-21.3-30.65-1.7-18.55 15.6-32.65 17.25-14.15 43.3-15.6"/><path fill="#0d131a" d="M40.45 63.6l.05 2.2L42 65q1.75-.7 2.95 0 1.2.65.3 5.35-1.3 6.75-1.2 10 .25 7.6 1.6 18.7 1.05 8.75 2.35 16.1 2.4 14.1.3 23.65-1.55 7.3-5.55 11.2l-4.45 2.9-4.75 2.05q-6.45 1.75-11.5-.9-8.4-4.45-11.25-15-2.6-9.65-1-26.4 1.15-12.4 7-25 5.7-10.5 5.9-11.8 1.25-7.5 1.95-10.25 1.2-4.6 3.5-5.05 1.35-.3 2.7 1.8l1.1 2.1q1.15-1.1 2.55-2.15 2.85-2.05 4.2-1.55 1.4.5 1.75 2.85"/><path fill="#f9be00" d="M31.15 67.2l2.5-2.05q2.7-2 3.95-1.55 1.25.45 1.4 3l-.1 2.4q.7-.65 1.55-1.15 1.7-1 2.55-.35.3.25-.15 4.25l-.8 7.1q-.1 2.2.75 13.7 1 13.45 2.25 20.85 2.4 14.25 1.25 22.15-.8 5.5-4.5 11.65-1.75 2.4-1.45 3.5.25 1.3 3.6-1.25l-1.1 1.4q-1.55 1.7-3.9 3-3.8 2.05-6.3 2.1 4.15-1.3 3.15-2.5-1-1.15-4.25-.65-9.85 1.6-15.1-7.7-5.8-10.3-3.95-31.1 1.1-12.9 6.85-26.2 5.6-10.9 5.65-11.7.6-5.15 1.6-8.7 1.15-4.2 2.4-4.1 1.25.15 2.15 3.9"/><path fill="#0d131a" d="M103.75 87.5q3.65-.3 9.3 3.4 6.9 4.45 9.8 5.3 3.6 1.05 10.25 1.1 5.35.05 6.55 1.15 1.3 1.2 1.4 4.95.15 4.15 1.55 6.2l3.4 2.65q3.5 2.4 5.6 4.4 7.55 7.2 6.8 16.9-.7 9.8-14.8 16.95-15.1 7.65-36.6 7.1-23.5-.55-35.9-5.85-14.9-6.4-14.3-19.75.2-4.15 1.6-9.4 1.3-4.6 1.15-6.45-.1-1.6-1.5-4.4-1.05-2.05-.2-3.85 1.5-3.1 9.95-4.1 11.05-1.25 14.85-3 3-1.4 11.3-7.75 6.9-5.35 9.8-5.55"/><path fill="#fff1ac" d="M104.65 89.7q3.35-.2 8 3.4 5.6 4.25 8.45 5.1 3.25.95 10 1.25 5.45.2 6.6 1.25 1.2 1.1 1.4 4.8.2 4.05 1.5 5.9 1.2 1.7 8.45 6 6.65 5.45 6.6 14.45-.05 6.65-7.65 12.5-5.9 4.6-15.05 7.85-3.75 1.35-11.5 2.35l-18.2.9q-10.3-.4-20.95-2.9-9.55-2.2-13.35-4.5-4.8-2.9-6.9-6.2-2.7-4.15-2.4-10.55.15-3.65 1.3-8.95.95-4.55.8-6.3-.1-1.35-1.2-3.8-.8-1.7 0-3.35.95-2 9.75-3.25 10.6-1.45 14.1-3.25l10.4-7.2q7.35-5.35 9.85-5.5"/><path fill="#0d131a" d="M95.35 98.7q1.2.45 2.45 1.65 1.25 1.25 1.75 2.6.55 1.35-.15 1.65-.7.25-1.55-.9l-1.4-1.9-2.25-1.35q-1.45-.9-.65-1.65l1.8-.1m17.8 2.95l-.9 1.4q-.6.85-1.35.55-.5-.15-.25-1.1.2-.95.9-1.85.65-.9 1.45-1.3l1.15-.1q.65.4.05 1.2l-1.05 1.2"/><path fill="#dcd096" d="M66.5 141.75q4.25 3.85 17.55 6.7 13.8 2.95 28.45 2.85 16.75-.1 27.75-4.35 12.95-5 15.5-14.95-.05 6.65-7.65 12.5-5.95 4.6-15.05 7.85-3.8 1.35-11.55 2.35l-18.2.9q-10.3-.4-20.95-2.9-9.55-2.2-13.35-4.5-4.85-2.95-6.95-6.15-2.75-4.15-2.5-10.55.2-4.15.85-6.75l1-4.4-.45 7.95q.55 8.85 5.55 13.45"/><path fill="#0d131a" d="M114.6 84.55q-5.1-4.85-4.25-10.5.85-5.65 7.2-8.7 6.35-3.1 14.5-1.85 8.1 1.25 13.25 6.1 5.1 4.9 4.25 10.5-.85 5.65-7.2 8.75-6.35 3.1-14.5 1.8-8.1-1.25-13.25-6.1"/><path fill="#fff" d="M116.3 83.65q-4.6-4.15-3.8-9.05.8-4.9 6.5-7.6 5.75-2.7 13.05-1.65 7.3 1.05 11.9 5.25 4.6 4.2 3.75 9.05-.8 4.9-6.5 7.6-5.75 2.7-13.05 1.65-7.25-1.05-11.85-5.25"/><path fill="#0d131a" d="M125.55 78.25q-.8.05-1.4-.5-.6-.55-.65-1.4-.05-.8.5-1.4.55-.6 1.4-.65.8-.05 1.4.5.6.55.65 1.4.05.8-.5 1.4-.55.6-1.4.65m-37.3 9.25q-5.8 5.45-14.95 6.75-9.1 1.3-16.2-2.2-7.1-3.55-8-9.9-.9-6.35 4.9-11.75 5.8-5.4 14.9-6.7 9.1-1.3 16.2 2.25 7.1 3.5 8.05 9.85.9 6.3-4.9 11.7"/><path fill="#fff" d="M86.6 86.45q-5.2 4.7-13.35 5.85-8.15 1.15-14.5-1.95-6.3-3.05-7.15-8.55-.8-5.5 4.35-10.15 5.2-4.7 13.35-5.85 8.15-1.15 14.5 1.9 6.35 3.1 7.15 8.6.85 5.45-4.35 10.15"/><path fill="#0d131a" d="M73.7 80.25q-.8.1-1.45-.45-.6-.55-.7-1.35-.05-.8.45-1.45.55-.6 1.35-.7.85-.05 1.45.45.65.55.7 1.35.1.85-.45 1.45-.5.65-1.35.7"/></svg>