<svg xmlns="http://www.w3.org/2000/svg" width="411" height="362" viewBox="-0.75 -0.35 411.3 362.35"><path fill="#6c9bd2" d="M82.4 21.7q7.95-5.35 11.95-4.6 4 .75-3.1 6.75-5.85 4.95-10.95 15.7-5.25 11.2-7.75 24.55-6.05 32.7 7.3 55.55 12.45 21.3-9.9 21.7-11.2.2-24.9-3.85-12.85-46.1 5.7-80.95Q61.95 35.5 82.4 21.7"/><path fill="#5d86b6" d="M56.15 140.05l-7.9-1.7-3.2-.85q-8.1-28.9-3.05-54.25 2.3 32.35 14.15 56.8"/><path fill="#f9f1ab" d="M349.4 193.9l-7.85-25.05 6.9-13.05 28.7 8.1 13.45 15.2q-39.25-11.15-41.2 14.8"/><path fill="#d3cd91" d="M345.95 160.6l2.5-4.8 28.7 8.1 13.45 15.35q-6.6-1.85-10.55-2.6l-8.15-.8q3.25-2.8-7.25-8.95-10.5-6.15-18.7-6.3"/><path fill="#6c9bd2" d="M376 135.4l11.05 1.15q7 1.3 7.55 6.5.75 6.8 3.2 13.95 1.3 3.9 3.65 9.6l-.25-.05 2.1 1.3 2.4 3.2q2.35 3.55 1.95 5.5-.4 1.95-5.45 3.8l-6.4 1.9q-1.2.45-8.8-7.1-6.25-6.25-9.75-10.4-1.95-2.3-15.4-5.7l-13.1-2.95q-1.85 2.15-3.65 5.2-3.55 6-3.15 10.25.3 3.45 5.5 11 5.1 7.3 5.05 10.1-.05 2.3-4.45 4.95-4.4 2.6-6.75 1.85-4.4-1.45-9.95-10.4l-6.55-11.95q-1.55-2.7-1.45-14.65l.4-14.2q0-1.8-5.45-5.35l-9.55-5.85-4.25-1.35 3.75-46.95q5.3 8.65 16.15 20.5 11.2 12.25 17.55 15.85 5.5 3.15 18.15 6.55l15.9 3.75"/><path fill="#5d86b6" d="M331.35 189.05l-6.55-11.95q-1.55-2.7-1.45-14.8l.4-14.35q0-1.85-5.45-5.25l-9.55-5.65-4.25-1.35 3.75-46.95q3.35 5.45 9.7 13.15-4.45 3.05-5.05 13.4-.65 10.55 3.95 14.3l5.1 3.8q3.1 2.4 4.9 5.05 5 7.4 3.5 22.05-1.5 14.4 5.65 25.8 2.4 3.8 5.4 6.55 2.3 2.2 3.1 2.3 1.5 3.5.5 4.55-.85.85-3.35-.2l-.35-.05q-4.4-1.45-9.95-10.4m32.45-29.55q-6.85-1.8-14.35-3.3-1.7-.2-1-1.8.65-1.5 2.55-2.6 1.8-1.05 12.35.75 10.6 1.8 14.1 3.85 2.2 1.2 11.75 11.05 9.05 9.2 11.15 9.75 3.9 1.05-4.55 5.05-1.2.45-8.8-7.1-6.25-6.25-9.75-10.4-1.8-2.15-13.45-5.25m10.6-19.05q10.25 1.35 12.1 5.05 3.8 7.85 9.15 14.15l4.85 5.6q-4.6-1.65-8.6-6.1-3.1-3.45-7.25-10.5-2.6-2.15-15.1-5.5-10.2-2.7-8.3-3 5-.75 13.15.3"/><path fill="#eeeeef" d="M347.25 194q2.95-1.4 4.35-.55l8.75 9.75q.95 1.1.7 2.25-.3 1.2-1.6 1.15-4.8-.2-7.6-1.2-2.65-1-4.2-2.15l-4.2-3.85q.35-3.75 3.8-5.4"/><path fill="#c8c9ca" d="M356.75 205.85l-4.6-.5q-2.65-.5-4.4-1.85l-4.3-4.1q.15-1.55.75-2.6 5.25 5.4 12.55 9.05"/><path fill="#eeeeef" d="M401.1 175.85q5.3-2.45 6.55.7 1.45 5.7 1.25 11.75-.15 5.6-1.25 5.6-1.3 0-11.35-14.1-.5-1.55 4.8-3.95"/><path fill="#c8c9ca" d="M401.05 175.85q.8 4.3 2.9 8.9 1.55 3.4 4.35 8.15-.1.35-.9.35-.75-.05-.95.3-2.7-4.15-6.7-9.35l-3.45-4.4q-.2-.55 1.3-1.8 1.45-1.2 3.45-2.15m-225.55 58.1l-1.25 9.6-6.55-2.75q-6.5-3-6.35-4.15.2-1.65 3-2.45 3.7-1.1 11.15-.25"/><path fill="#6c9bd2" d="M219.95 173.8q1.55 1.75 7.9 4.55l13.5 5.75q19.8 9 28.05 20.15 6.95 9.3 4.6 17.75-1.25 4.65-5.5 11.05 5.85 1.95 28.7 3.4 19.6 1.2 23.1 4.7 4.4 4.45 3 9.7-1.25 4.8-5.2 5.6-2.9.65-16.25-2.35-14.4-3.2-17.1-3.2l-9.2-.3q-4.4.2-4.7 2.55 17.75 6.1 30.05 14.55 9.2 6.35 10.8 10.05.95 2.1-.85 5.05-1.7 2.85-5.05 4.9-8.4 5.2-14.95-.15-7-5.75-17.5-12.2-10.35-6.3-14.25-7.3-4.05-1-7.4.75-3.6 1.8-3.95 5.8 1.95 3.2 11.75 16.05 8.7 12 7.95 15.1-1.1 4.4-6.55 7.6-5.9 3.45-10.35.35-3.7-2.6-12.8-19-9.9-17.8-11.05-19.15-8.35-9.7-24.2-19.8l-14.2-8.15q-7.3-.55-11.4-1.75-5.35-1.6-5.15-6 .1-3.45 2.75-6.1 1.65-1.65 6.5-1.9l7.95.2q1.2-2.05 7.95-5.4 3.7-1.85 10.55-4.85-5.2-2-15.55-1.8l-9.35.55 37.4-46.75"/><path fill="#5d86b6" d="M220.1 174.4l9.3 3.75q7.9 3.05 13.25 5.65 18 8.65 26.75 20.45l2.8 4.35q-19.3-16.25-39.5-9.85-13.1 4.15-32.4 21.55-5.15-.55-11.95-.2l-5.8.45 37.55-46.15m-43.2 71.45q-5.45-1-5.25-5.65.15-3.75 2.85-6.45 1.65-1.65 6.5-1.9l7.95.2q1.15-2.05 8.3-5.55-7.6 6.35-5.75 12.2 1.45 4.7 9.6 10.1 4.8 3.2 16.05 9.45 9.75 5.75 13.45 10.15l15.75 24.8q8.8 14 11.75 13.1l1 4 1.1 3.95q-4.85 1.8-8.85-.95-3.7-2.6-13.2-18.8-10.35-17.7-11.45-18.95-8.35-9.7-22.95-18.95l-12.9-7.3q-3.95-1.7-13.95-3.45m73.7 18.4q-.95-6.65 5.25-6.8 4.05-.1 10.8 2.6 1.5.6 18.3 11.3 14.6 9.3 17.2 8.5-1.1 7.25-2.5 9.15-2.45 3.35-8.15-1.3-6.95-5.7-17.85-12.25-10.6-6.4-14.55-7.4l-4.45-.2q-2.25.35-3.95 1.5-.55-1.75-.6-2.7-.1-1.25.5-2.4m25.2-29.5q-5.8 8.2-16.95 11.3-10 2.75-21 .75l17.1-4.6q7.5-2.7 15.15-8.9l2.7.75 3 .7m.85 17.35l-7.8.4q-4.1-1-4.8-1.8-1.1-1.25 3.45-3.3 7.05-3.15 21.5-3.45 18.1-.4 31.25 5.5-.3 1.5-.35 4.45-.25 2.25-1.8 2.55-2.9.65-16.25-2.35-14.4-3.2-17.1-3.2l-8.1 1.2"/><path fill="#eeeeef" d="M254.2 313.7q-.25-3.95 4-6.95 4.45-3.15 7.7.25 3.1 3.3 4.35 10.85 1.1 6.6.2 9.95-16.1-11.4-16.25-14.1m44.3-26.3q.2-4.55 3.55-7.55 3.6-3.25 7.1.05 3.6 3.4 6.6 12.1 2.95 8.45 1.3 8.65-1.95.2-9.5-5.7l-9.05-7.55m28.8-29.5l-9.2-3.6q-1.05-2.35-.2-5.8.9-3.8 3.6-4.15 4.25-.55 10.95 7.25 6.5 7.6 5.15 8.8-.95.9-10.3-2.5"/><path fill="#c8c9ca" d="M254.6 314.1q-.25-1.45.75-3.6.85-1.8 2-2.95 2.65 3.25 5.1 8.35l3.85 9.15-7.9-6.5q-3.5-3.05-3.8-4.45m43.9-26.7q.1-1.75.85-3.6t1.95-3.2q6.5 6.25 10.35 16.85L298.5 287.4m28.6-34.15q4.95 3.15 7.5 6.65l-16.5-5.6q-.5-1.1-.55-2.85 0-1.85.5-3.45l9.05 5.25"/><path fill="#f9f1ab" d="M277.2 247.65q12.85-2.35 34.85 4.95-2.85 4.25-5 10-2.4 6.4-1.55 8.95-3.9-2.6-15.15-9.45-7.1-4.3-15.7-7.4l-6.5-2.45q.25-.85 2.1-2.05 2.7-1.75 6.95-2.55"/><path fill="#d3cd91" d="M274.1 254.4q-2.3-.8-4.1-2-1.05-.75-1.2-.75l1.1-.85q2.35-1.75 6.05-2.7 12.75-3.25 36.1 4.5-1.35 2.1-2.55 4.65l-22.15-4.8q-13.1-2.05-13.25 1.95"/><path fill="#f9f1ab" d="M271.95 268.5q11.75 5.8 21 15.5-8.9 1.3-16.05 4.65-9.9 4.55-11 11.1l-18.15-25.15q-.8-3.35.8-6.85 2-4.45 6.95-4.3 6.75.25 16.45 5.05"/><path fill="#d3cd91" d="M255.5 263.45q6.75.25 16.45 5.05 11.75 5.8 21 15.5-5.75.9-10.8 2.55-8.4-10.65-14.05-15.2-9.2-7.35-18-5.95 2.1-2 5.4-1.95"/><path fill="#6c9bd2" d="M238.45 165.55q-7.75-3.25-15.8 6.25-2.7 3.15-6.7 9.25l-6.3 9.45-6.2 10.45q-4.25 7.35-8.8 12-13.9 14.25-41.9 16.7-16.05 1.4-31.85-3.4-14.9-4.55-25.95-13.3-11.05-8.85-14.75-19.2-3.95-11.1 1.6-21.05 10.35-18.5 36.7-35.65 21.95-14.3 36.2-17.4l55-17.1 28.75 63"/><path fill="#5d86b6" d="M238.45 165.55q-5.3-2.2-10.5 1.3-6.05-4-10.9-6.15-8.8-3.85-20.75-3.65-16.9.3-40 6.6-27.1 7.3-40.25 17.85-5.35 4.2-5.05 9.8.3 4.45 4.5 11.2 2.45 3.95 8.6 12.45 5.3 7.9 7.3 13.75-12.95-2.2-24.35-8.05-11.1-5.65-18.4-13.55-7.5-8.1-9.45-16.8-2.05-9.25 2.6-17.6 10.35-18.5 36.7-35.65 21.95-14.3 36.2-17.4l55-17.1 28.75 63"/><path fill="#eeeeef" d="M125.4 243.95l-3.65 4.65-6.65-7.15q.95-2.1 6.8-3.7t6.5 0q.55 1.3-3 6.2"/><path fill="#c8c9ca" d="M125.35 243.85l-3.6 4.75-6.65-7.15q.8-2.4 7.05-3.95 6.15-1.5 6.45.1.25 1.2-3.25 6.25"/><path fill="#6c9bd2" d="M88.05 183.35q12.35-1.05 26.55 6.7 13.05 7.15 19.15 16.5 6.45 9.85-.65 14.1-12.3 7.35-19.9 13.85-3.8 3.25-5.15 5.05l1.5 4.65q6.7-5.85 10.8-.6 2.4 3.05 2.15 6.6-.2 2.9-2.35 7.1-.9 1.7-3.35 4.3-1.7 1.85-2.95 5.95-.7 2.4-5.1 11.05-3.7 7.35-4.5 12.85-.95 6.15-.05 19.3.4 6.15 1.55 17.15.55 5.1-1.2 9.7-1.75 4.65-5.05 6.45-3.15 1.8-8.6.4-6.1-1.55-7.45-6.15-1.1-3.85.9-16.7 2.15-13.9 2-15.65-.65-7.15-3.85-12-1.45-2.25-9.25 6.85-7.65 9-11.85 17.6-4.5 9.25-7.2 12.9-3.25 4.45-6.45 4.6l-7.95-.55q-4.45-1.55-4.15-7.05.4-7.05 2.1-11.75 2.05-5.75 6.4-9.4 5.35-4.55 10.7-10.65 6.2-7.15 8.5-12.15-6.2.2-12.95 2.35-6.55 2.1-9.1 4.6Q30.55 302 26 308.65q-2.85 4.2-5.1 5.6-4.8 3-7.2 3.4-3.1.5-5.25-2.35-3.25-4.3-3.75-6.55-.95-4.1 2.8-8.65 4.05-4.9 9.5-9.3 6.55-5.3 13.95-8.85 8.95-4.3 12.1-6.3 5.75-3.75 9.25-9l.55-.25q-9.4-6.3-9.6-19.65Q43.1 235.8 48 228.3l8.15-11q4.85-6.7 10.55-18.75 6.75-13.95 21.35-15.2"/><path fill="#5d86b6" d="M86.8 183.5q11.5-1.5 25.3 5.3-9.8 7.9-19.75 18.9-11.2 12.3-18.05 23.75-17.55 29.35.6 39.15 4.25 1.75 11.25-1.75l4.45-2.45q1.9-1.05 2.2-.75.95 1.05-2.4 4.3-3.7 3.7-9 5.3l-7.7.95-10 .25q-13.7.6-20.4 4.6-9.6 5.7-20.6 15.25Q10.35 307 5.55 314.85l-.3-6.55q0-6.4 3.1-9.55 4.95-5.05 9.2-8.45 6.2-4.9 13.4-8.35 8.95-4.3 12.1-6.3 5.75-3.75 9.25-9l.55-.25q-9.4-6.3-9.6-19.65Q43.1 235.8 48 228.3l8.15-11q4.85-6.7 10.55-18.75 6.45-13.3 20.1-15.05"/><path fill="#5d86b6" d="M66.35 279.5q1.35-.55 1.15 2.8-.2 3.7-2.35 8.8-2.15 5.1-10.35 14.7-8.4 9.8-9.6 12.45-1.7 3.7-3.25 8.85l-2.4 7.65q-3.55-1.85-3.3-7 .4-7.3 1.8-11.5 1.8-5.5 6.1-9.1 5.35-4.55 10.7-10.65 6.2-7.15 8.5-12.15l-.65.05q.75-.4 1.65-2.45.85-1.95 2-2.45m16.15 14.45l-.35-.3q1.75-3.45 2.85-5 1.95-2.75 3.95-2.05 2.25.8 3.3 14.15 1.15 14.95-2.15 26.75-1.75 6.1-1.3 10.25.5 4.5.15 6.05-4.4-1.8-5.5-5.5-1.1-3.85.9-16.7 2.15-13.9 2-15.65-.65-7.15-3.85-12m20.8-48.5q1.6-2.2 5.05-5l1.2 3.75q5.6-4.9 9.35-2.05l-3.7 1.7q-1.9.95-3.8 3.3-2.1 2.55-5 3.45l-6.4 1.05q1.85-4.2 3.3-6.2"/><path fill="#6c9bd2" d="M176.25 90.2q7.65 1.95 14.4 2.8l3.25 6.5q3.75 7.8 5.9 14.4 6.85 21.05-4.35 21.85-11.6.85-20-2.65-4-1.7-10.15-6.45-5.6-4.35-13.1-8.2-10.4-5.35-16.8-5-3.65.2-14.5 8.75-11.5 9.05-14.45 15.35-.75 8.5 3.45 17.65 3.2 6.95 7.5 11.3 2.8 2.75 2.6 9.45l-1.45 12.7q-.5 4.1.9 14.65.9 6.8-2.75 11-2.45 2.8-7.75 1.45-5.4-1.35-8.55-5.75-2.3-3.15-1.25-12.25 1.2-9.95 0-13.05-3.2-8.2-5.85-10.9-5.35-5.4-15.8-3.65-7.05 6.05-12.2 19.35-1.2 3.05-3.5 10-1.85 5.45-2.85 7.5-2.65 5.35-7.3 6.2-4.2.75-8.9-2.25-3.85-2.45-2.7-10.8.7-5.2 3.7-13.65 1.65-4.65 6.6-15.05l4.6-9.5-5.95-.35q-7 .05-12 2.1-5.25 2.1-10.6 10.85-4.25 6.9-5.4 11.6-.9 3.55-4.2 4.95-3.65 1.55-8.2-.7-5.15-2.6-5.9-7.35-.85-5.2 4.2-10.45 9.2-9.55 13.8-17.35 3.15-6.45 5-9.2 3.15-4.75 8.5-6.55 4.15-1.4 13.9-3.75 10.6-3 23.5-9l25.2-24.05q17.65-17.1 20.15-20.35 5.35-6.95 7.4-8 1.65-.9 8.55-.9 4.05 0 12.25 4.15Q157.8 84 160.2 85q7.7 3.05 16.05 5.2"/><path fill="#5d86b6" d="M176.25 90.2q7.65 1.95 14.4 2.8l3.25 6.5q3.75 7.8 5.9 14.4 6.85 21.05-4.35 21.85l-9.4-.2q5.5-5.65-4.45-16.35-12.15-13.1-45.4-30.95-7-3.75-22.25 9.7-10.3 9.15-20.45 22.05-10.1 12.95-28.2 18.3-6.05 1.75-13.4 2.8l-9.3 1.1q-6.5.9-19.35 17.1-13 16.45-15.8 27.85-4.2-2.95-4.6-6.1-.5-3.7 4.05-8.45 9.2-9.55 13.8-17.35 3.15-6.45 5-9.2 3.15-4.75 8.5-6.55 4.15-1.4 13.9-3.75 10.6-3 23.5-9l25.2-24.05q17.65-17.1 20.15-20.35 4.4-5.7 7.8-7.05 2.5-1 9.8-1 4.05 0 11.45 3.75L160.2 85q7.7 3.05 16.05 5.2"/><path fill="#5d86b6" d="M50.05 161.6q2.45-1.1 8.6-9.85 2.15-3 2.75-3.2.85-.25.15 3.55 1.25 3.05-7.65 25.05-8.45 20.95-6 22.45-.25-.15-2.55 5.7-2.3 5.85-2.6 5.65-3.85-2.45-2.7-10.8.7-5.2 3.7-13.65 1.65-4.65 6.6-15.05l4.6-9.5-4.9-.35m33.5 8.15q4.5-2.1 7.6-2.25 3.75-.1 7.15 2.4 7.65 5.6 7.75 22.35l.05 12q.3 6 2.25 8.3l-4.4.15q-1.8-.25-3.55-2.7-2.3-3.15-1.25-12.25 1.2-9.95 0-13.05-2.7-7.05-4.6-9.5-3.95-5.05-11-5.45"/><path fill="#f9f1ab" d="M34.4 164.9q3.2-2.15 12.6-2.75 4.7-.3 8.75-.2l-6.85 12.7q-7.05 14.4-7.95 22.75-2.85-8.6-7.95-12.65-5.55-4.3-12-1.7 2.05-3.65 4.75-7.8 5.45-8.2 8.65-10.35"/><path fill="#d3cd91" d="M38.65 191.8q-1.25-2.4-3.05-4.35-.25-2.9 5.6-11.35 4.8-6.95 11.1-14.15h3.45l-6.85 12.7q-7.05 14.4-7.95 22.75-1.15-3.4-2.3-5.6"/><path fill="#f9f1ab" d="M65.75 188.3q7.05-16.45 10.9-18l9.2-.3q4.05 1.05 6.5 3t7.85 13.5l-1.35 17.65q-10.5-7.1-22.4-5.75-8.45.95-16.95 6.05 2.75-7.9 6.25-16.15"/><path fill="#d3cd91" d="M92.3 182.4q-1.45-4.05-7.6-12.65 4.65.9 7.65 3.25 2.45 1.95 7.85 13.5l-1.35 17.65q-2.65-1.8-5.65-3.15 1.7-11.4-.9-18.6"/><path fill="#eeeeef" d="M6.1 181.65q3.3-2.45 6.45 1.2 3.05 3.6 1.95 8.1l-4.9 6.9-5.95 8.35Q.5 200.15.6 193.55q.15-7.9 5.5-11.9m36.8 22.2q3.2-6.2 7.9-3.45 4.6 2.65 3.9 8.55-.3 2.6-4.35 7.7l-7.85 9.2q-1.65-6.15-1.45-12.55.15-6.1 1.85-9.45m60.6 4.9q.1-4 6.05-3.45 5.85.55 6.75 3.9.9 3.4-1.9 10.1-3 7.1-7.6 11.3l-2.25-9.5q-1.25-6.6-1.05-12.35"/><path fill="#c8c9ca" d="M47.25 199.8q-5.4 14.9-4.75 26.05l-.45.5q-1.6-6-1.25-12.8.35-6.25 2.1-9.7 1.75-3.4 4.35-4.05m56 9q.05-1.4 1.65-2.5 1.35-1 3-1.2-2.9 6.15-3.3 13.3l-.8-4.65q-.65-2.95-.55-4.95"/><path fill="#6c9bd2" d="M317.55 40.55l-4.45 25.9-5.7 30.3q-1.4 6.95-.4 12.45l2.1 10.3q.85 6.35-2.25 14.45-3.1 8.15-9.6 16.8l-54.2 22.5-13.35-11.7q-7.55-6.05-12.8-8.3-5.5-2.35-7.8-7.25-1.9-3.95-2.6-12.1-1.2-13.9-12.45-33.9-4.7-8.4-17.6-27.8L162.4 51.25q-1.9-2.85 0-2.95 1.25-.1 5.05 1.25l45.25 16 .65-27.05q.65-27.6.45-30.25-.35-4.95.9-5.15 1.2-.2 4.2 4L236.85 34q15.7 23.65 16.9 24.8 1.3-1.6 8.55-22.8 7.7-22.55 8.3-23.85 2.35-5.05 3.45-4.3.65.4 2.15 5.45 1 3.3 6.8 27.1l6.15 25.15q2.95-4.3 13.55-15.85l11.45-12.25q1.65-1.85 2.65-1.3 1.15.65.75 4.4"/><path fill="#5d86b6" d="M300.6 63.7q-7.15 14.7-8 13.1-1.45-2.7-3.35-11.35 3.65-5.3 22.8-25.7L300.6 63.7M273.9 9.15q-.45 1.2-3.6 28.75-3.05 26.65-3.85 26.95-1.2.5-5.45-1.7-4.65-2.35-6.7-5.3 1.8-3.8 8.7-23.9 6.85-20.25 7.6-21.8 1.75-3.7 3.3-3M213.35 38.5q.65-27.6.45-30.25-.2-3 .9-3.8 1.2-.85 3.2 1.4-1.45-.15 4 35.5 5.7 37.25 3.6 40.95-.75 1.35-4.9-1.9-4.15-3.3-7.9-8.25-4.55-2.2-9.25-6.05l-5.6-5.15 14.85 4.6.65-27.05m-36.75 34l-14.2-21.25q-2.6-3.85 2-2.65-1.15 1.7 23 25.5 19.8 19.5 31.1 29.55 3.45 3.05 4.1 11.9.25 3.6.95 4.95 1.05 1.95 3.8 1.85l8.8 11.2q6.15 7.55 8.8 10.2 2.95 4.4 5.85 10.4 3.5 7.15 6.3 11.8l-14.05 7.3-13.35-11.7q-7.55-6.05-12.8-8.3-5.5-2.35-7.8-7.25-1.9-3.95-2.6-12.1-1.2-13.9-12.1-33.25-4.75-8.4-17.8-28.15"/><path fill="#f9f1ab" d="M240.75 167.9q-1.55-3.65-.5-6.75 1.1-3.2 6-5.15 2.95-1.15 10-3.3 4.4-1.55 7.4-5.25l4.4-6.25q2.7-3.35 5.9-4.05 3.45-.75 5.9 2.05l4.5 5.4q2.1 2.15 5.35 3.05 9.25 2.55 9.55 7.3l.55 10.2q.6 8.65 2 14.25 1.95 7.7 2.1 13.3.2 7.1-2.1 13.7-3.35 9.45-6.25 13.4-4.25 5.9-8.95 2.9-6.7-4.35-14.05-8.15-7.95-4.15-11.4-6.5-6.2-4.25-6.55-7.55-.35-2.9-2.65-7.85l-5.8-12.95-5.4-11.8"/><path fill="#d3cd91" d="M265.2 145.35l2.85-4.15q3.2-4 7-4.15 0 4.2.75 15.85.4 10.4-.95 13.75-1.35 3.3-6-4.7-5.25-10-7.15-12.45 1.7-1.5 3.5-4.15m-24.45 22.55q-1.55-3.65-.5-6.75.95-2.8 3.85-4.25 1.25-.6 7.15-2.4 2.1 5.25 6.75 26.3 3.65 16.65 7.1 19.15 12.25 8.8 19.05 15.2 8.95 8.4 2.45 7.55-6.7-4.35-14.05-8.15-7.95-4.15-11.4-6.5-6.2-4.25-6.55-7.55-.35-2.9-2.65-7.85l-5.8-12.95-5.4-11.8"/><path fill="#fff" d="M237.2 145q-1.75-.1-2.85-1.3-1.25-1.25-2.75-4.75-1.4-3.25-2.85-8.75-1.45-5.65-1.4-7.85 8.8 1.5 19.95 8.1 10.45 6.25 12 10.05-2.75 3.2-11.25 4.2l-10.85.3"/><path fill="#dbdcdc" d="M228.15 127.7q-1.35-2.75-1.25-5.15 5.65.05 17.45 6.15 12.3 6.4 14.3 11.25l-1.3 1.1q-3.15-3.8-12.35-8.2-9.85-4.7-16.85-5.15"/><path fill="#fff" d="M295.5 136.85q-1.5 1.55-3.85 1.7l-5.9-.7q.1-3.7 5.5-10.95 5.3-7.15 9.5-9.45.4 2.85-.75 8.8-1.45 7.55-4.5 10.6"/><path fill="#dbdcdc" d="M300.6 122.65q-3.85 2.2-7.45 5.4-4.2 3.75-6.55 7.7 2.15-6.1 7.1-12 4.1-4.95 7.25-6.65l-.2 1.8-.15 3.75"/><path fill="#943d12" d="M241.3 141.45q-1.45-3.05-1.9-7.55-.35-4.4.35-7.6.15-.55 3.5 1.2 3.3 1.75 3.5 2.55l.45 3.1q.4 4.45-.4 7.75-.85 3.25-2.45 3.45-1.6.15-3.05-2.9"/><path fill="#752d01" d="M239.1 131.45q.1-3.85.75-5.3 1.7.5 3.65 1.35 2.15.95 3.3 1.75.55 1.6.9 4.75-1.85-1.95-4.4-2.8-2.75-.95-4.2.25"/><path fill="#943d12" d="M287.6 133.3q-.05-.4 3.05-5 3.15-4.55 3.2-4.15.45 4.5-.25 8.75-.85 5.45-3.3 5.3-.9-.05-1.65-1.4-.75-1.35-1.05-3.5"/><path fill="#752d01" d="M293.9 129.25q-1.2-.1-3 1.8-1.85 2-2.9 4.75l-.5-2.95q2.95-5 6.1-8.4l.3 2.2v2.6"/><path fill="#e63556" d="M280.05 120.3q0 2.65-1.9 4.55t-4.55 1.9q-2.65 0-4.5-1.9-1.9-1.9-1.9-4.55 0-2.6 1.9-4.5t4.5-1.9q2.65 0 4.55 1.9 1.9 1.85 1.9 4.5"/><path fill="#c72b4a" d="M267.2 120.3q0-2.25 1.45-4-.35 3.45 1.95 6.2 1.9 2.3 5.25 3.8l-2.25.45q-2.65 0-4.5-1.9-1.9-1.9-1.9-4.55"/><path fill="#fff" d="M274.45 117.85q0 .9-.65 1.55t-1.55.65q-.9 0-1.55-.65t-.65-1.55q0-.9.65-1.55t1.55-.65q.9 0 1.55.65t.65 1.55"/><path fill="#f9f1ab" d="M41.25 291.35q2.65-2.55 10.3-4.7 6.3-1.75 12.3-2.4-5.9 10-18.15 21.95-4.65 4.6-6.55 7.35-2.75 4.05-3.4 8.7-1.35-5.1-5.55-8.8-3.25-2.9-5.8-3.4 1.1-1.65 3.75-4.85 5.3-6.3 13.1-13.85"/><path fill="#d3cd91" d="M53.9 286.35l9.05-1.75q-.65 3.75-4.85 8.75-2.1 2.55-8.8 9.2-12.55 12.5-13.55 19.7-.95-3.55-4.05-6.75l16-17.05q8.9-10.35 6.2-12.1"/><path fill="#f9f1ab" d="M67.35 306.35Q77 295.9 82.5 293.45q5.2 8.5 3.45 20.3l-1.85 9.75q-1.1 5.85-1.1 9.75-6.95-5-16.6-5.85-7.5-.65-11.15.95.35-9.25 12.1-22"/><path fill="#d3cd91" d="M85.95 313.75l-1.85 9.75q-1.1 5.85-1.1 9.75-3.3-2.3-8.45-3.95 5.45-12.2 6.6-16.55 2.45-9.75-1.05-18l2.4-1.3q5.2 8.5 3.45 20.3"/><path fill="#eeeeef" d="M10.85 302.8q3.5-2.65 6.6.85 3.05 3.4 2.5 8.75-1.15.3-9.3 6.7-7.55 5.9-8.85 5.3-1.75-.75 1.95-9.85 3.75-9.2 7.1-11.75m35.3 24.1q2.1 1.05 3.4 3.1 1.35 2.1 1.1 4.2-.75 2.75-5.7 10.8-5 8.15-6 8.2-1.45.05-2.3-8.6-.85-9.35 1.75-14.95 2.55-5.4 7.75-2.75M100 339.5q2.2 5.55-2.95 13.85-1.85 3.1-4 5.25-2.05 2.05-2.7 1.7-1.2-.6-3.05-9.95-1.85-9.1-1.45-10.4 1.3-3.8 6.35-4.95 5.55-1.2 7.8 4.5"/><path fill="#c8c9ca" d="M10.85 302.8q1.9-1.4 4.05-.85l-7.55 9.6q-4.2 5.65-5.75 10.3.85-5.5 3.6-11.15 2.75-5.7 5.65-7.9M36.6 338q.35-5.15 1.8-8.35 1.6-3.4 4.75-3.5-2.4 6.35-3.65 10.5-1.75 5.85-2.5 10.85-.7-4.75-.4-9.5m49.25 1.95q.85-2.35 3.75-3.95-.8 4.9-.9 10.8-.1 3.5.1 10.6-1.2-4.1-2.2-10.45-1.05-6.1-.75-7"/><path fill="#0d131a" d="M374.75 134.2l2.45.35 3.85.45q6.7.45 9 1.25 4.75 1.65 5.25 6.25 1.1 9.95 5.55 21.15l1.45 2.65-3.7-1.4-3.15-10.55q-1.8-5.7-2.4-11-.4-3.7-4.15-5.2-2.4-.95-7.95-1.3l-6.55-.9-15.45-3.25q-11.3-2.75-16.45-5.7-6.75-3.9-18.05-15.35-11.5-11.65-16.5-19.85l1.05-3.15q5.2 8.45 15.95 20.05 11.15 12 17.45 15.6 5.1 2.9 16.65 6.1l15.7 3.8M95.35 15.55q4.05.95-4.3 10.5Q75.9 43.4 72.9 70.55q-3 26.95 7.65 47.6l-2.6 3.25q-11.75-23.1-8.1-52.5 3.6-29.4 20.35-46.3 4.9-4.9 1.7-4.3-3.1.55-10.1 5.25Q64.2 35.1 52.75 55.9q-19.6 35.65-6.8 81.35l-3.75.5q-12.25-46.4 7.65-82.9 6.85-12.55 16.8-22.6 7-7 12.75-10.4 12.1-7.2 15.95-6.3m261.8 164.95q-4.8 3.4-6.05 8.2l-1.5-1.5q1.75-5.45 6.1-8.55 5.4-3.7 14.55-3.55 8.95.15 22.5 4l.4 1.4q-25.6-7.2-36 0m-25.9 11.75q-1.75-2.6-6.6-11.95l-1.95-4.05q-1.2-2.1-.85-7.8l.95-12.5-.1-8.2q0-1.5-7-5.1-10.05-5.1-10.15-5.2l1-2.95q4.9 3.2 12.95 7.55 5.6 3.45 5.4 6.65l-.2 5.3q-.95 19.5.85 22.65l1.6 2.95q3.7 7.2 6.35 11.1 4.5 6.75 8.1 7.9l1.75-.05q.2.8.95 2.2l-3.1.25q-5.1-1.5-9.95-8.75"/><path fill="#0d131a" d="M350.9 152.8l-4.55 8.2q-3.25 6.3-3.55 9.75-.15 1.65 2.75 6.45l5.05 7.8q2.15 3.3 2.4 5.65l-.25 2.8-2.95-.5q1.2-1.65.75-3.3-.4-1.4-2.6-4.85l-4.4-6.7q-2.25-3.65-2.5-6.45-.45-4.75 2.6-10.7 2.25-4.45 5.6-8.3 2.45-2.75 2.75-2.65.3.1-1.1 2.8"/><path fill="#0d131a" d="M362.55 160.25q-12.05-3.25-14.4-3.1-2 .1-.95-1.2 1.05-1.25 2.75-.9 5.2.95 13.65 3.3 12.3 3.4 14.35 5.8 2.9 3.5 7.8 8.35 5 5 7 6.3 2.8 1.85 4.25 2.2.25-.25 1.4 1.4 1 1.4-1.05 1-5.7-1.05-13.75-9.55l-7.05-8.5q-1.4-1.7-14-5.1m14.25-16.05q5.55 1.4 8 3.2 2.05 1.5 3.6 4.75l.85 1.8q1.45 2.9 6.9 7.3l7.6 5.8q2.9 2.5 4.15 4.55 1.7 2.75 1 5.4-.5 2.1-.9.8-.8-2.4-1.65-2.8l-.7-2.7q-.7-1.5-2.95-3.75l-7.3-5.2q-6.3-4.5-7.8-7.5l-.85-1.8q-1.6-3.35-2.9-4.55-2.05-1.85-6.85-3.05-5.65-1.4-13.5-4.35-7.15-2.65-8.85-3.75-1.45-.95-1.5-1.6l1.4.05q1.75.9 8.85 3.35 7.95 2.7 13.4 4.05m-25.35 50.35q-1.9-.8-4.85 1.15-2.95 1.95-2.15 3.4 1.75 3.1 5.7 4.9 3.1 1.4 7.05 1.8 3.05.3 3.4-.4.25-.6-1.25-2.25l-4.65-5.2q-2.85-3.25-3.25-3.4m-4.75-1.15q3.45-1.85 4.9-1.15.8.4 4.05 3.9l5.4 6.1q2.25 2.75 1.65 3.95-.7 1.4-5.5 1.4-4.2 0-8.25-1.9-3.75-1.8-6.8-4.95l.15-1.9q.5-3.3 4.4-5.45"/><path fill="#0d131a" d="M402.25 176.6q-3.75 1.45-4.25 3.1-.25.7 2.1 3.7l5.1 6.5q1.55 2.15 2.1 2.05.6-.15.7-3.15l-.35-6.75-.85-5.2q-.65-1.7-4.55-.25m2.25 15.35l-4.7-6.05-4.1-4.7q-1.3-1.3.3-3.05 1.2-1.3 3.6-2.6 2.95-1.6 5.6-1.3 2.6.25 3.3 2.05 2.05 8 1.3 14.65-.8 7.4-5.3 1M176.35 232.5l-2.55 2.2-4.9.15-4.85.8q-3.3.75-.25 2.1 3.15 1.45 8.25 3.55l1.8 3.05q-7.6-3.5-11.2-5.35-2.9-1.5-3-2.5-.05-1.15 3.45-2.35 2.6-.9 6.5-1.4l6.75-.25m44.3-58.6q4.1 1.15 13.6 5.15 9.9 4.2 14.65 6.9l.95 3.5q-5.1-3-16.4-7.75-9.8-4.1-14.45-5.55l1.65-2.25m40.85 122l-9.1-12.9-6.95-9.5q-1.8-2.35-1.5-3.05.25-.65 1.75 1 3.45 3.7 12 15.2 10 13.55 10.7 16.95.3 1.55.2 3.5l-.2 2.15q-1.1-1.2-2.2-3.15.5-2.25-4.7-10.2"/><path fill="#0d131a" d="M210.75 221.3q8.35 2.9 9.55 4.3 1.15 1.45-2.35.15-3.5-1.25-9.85-2.75-4.95 1.5-10.95 4.85-6.3 3.55-9.25 6.7-2.5 2.7-1.8.75l1.15-2.45q-4.55-.25-6.85-.1-3.9.25-5.25 1.65-1.05 1.05-1.65 2.9-.65 2.05-.2 3.9.35 1.4 1.2 2.25.9.95 2.65 1.5 2.35.7 5.25 1.05l4.15.6q-1.85-2.1-.45-1.75 1.3.3 3.9 2.2l14.9 9.05q14.2 9.25 22.5 18.85l3.35 4.8q2.4 3.8 4.55 8.05 11.2 21.65 15.8 24.9 1.45 1.1 3.25 1.4.25.7 1.35 2-3.95.25-6-1.2-3-2.1-7.55-9.3-4.15-6.6-8.3-15.3-2.1-4.45-5.25-9.4-2.6-4.1-4-5.75-7.2-8.35-19.8-16.3-12.75-7.35-16.3-9.85-8.25-1-12.25-2.15-2.7-.8-4.1-2.7-1.35-1.75-1.35-4.1 0-2.15.85-4.45.85-2.3 2-3.1 2.9-2.05 7.9-2.05l6.95.8q4.5-4.3 10.5-7.15 3-1.4 5.25-2.05-5.3-1.3-13.9-1.1l-7.7.5 5-2.85 7.5-.2q8.35.4 15.6 2.9m89.85 68.3l1.1.85 1.3.65q-2.5.8-6.4-.1-5.1-1.25-10.8-5.2 1.6-.7 3.6-1.1 3.65 3.75 11.2 4.9m-33.35-37.05q-4-1.15-3.95-1.85.1-.7 3.95.45Q281 255.2 295.8 263.9q12.45 7.35 15.45 11.25 1.65 2.2 1.55 4.3l-.65 2.65-2.2-1.7q3.5-3.95-15.9-15.15-17.05-9.85-26.8-12.7M310.6 255l6.15 1q2.45.2 3.75-.85l1.8.75q-.9 2-4.8 2.1-3.15.1-7.75-1 .45-1.4.85-2m10.35-14.9q1.5 1.15 3 4.45l-2.85-.3q-1.05-3.45-7.45-5.05-4.7-1.2-14.55-1.65l-17.05-.85q-9.6-.75-14.85-2.6l1.8-2.35 4.95 1.85 6.25 1 23.1 1.15q13.3.95 17.65 4.35"/><path fill="#0d131a" d="M276.1 216.3q.55 10.7-7.8 19.1-10.55 10.55-32.1 12.6l-2.75-.25q-.35-.5 2.75-1.15 15.4-3.3 23.3-8.3 13.15-8.3 13.5-23.75l1.3.9 1.8.85m-17.55 103.75q-5.45-4.6-5.55-5.95-.15-2.55 1.65-5.35 2.35-3.6 6.65-4.45 3.2-.6 5.35 1.6 4.95 5.25 5.4 18.15.1 3.45-1 4.15-1.15.65-3.95-1.45l-8.55-6.7m10.35-3.65q-1.5-6.45-3.7-8.8-1.25-1.35-3.7-1.05-2.05.3-4.2 2.5-2.45 2.5-1.85 4.75.3 1.05 5.85 5.65l6.85 5.5q1.35 1.1 1.5.95l.25-1.75q.2-2.35-1-7.75m28.3-28.35q-.35-2 1.35-5.25 1.95-3.8 5.05-5 3.6-1.45 6.3 1.1 3.3 3.15 5.55 8.05 2.2 4.85 2.8 10.05.5 4.15-.55 4.7-1.05.55-4.8-2.05l-10.4-6.95q-5.1-3.5-5.3-4.65m3.65-5.1q-1.65 2.7-1.35 4.05.2 1 5.9 5.1l8.05 5.7q2 1.45 2.6 1.45.65 0 .35-1.75-.85-4.7-2.75-9.1-2.2-5.05-5.1-7.85-2.1-1.95-4.3-1.1-1.7.7-3.4 3.5M324.7 256l9.55 2.8 2.05.25q.4-.4-1-2.5-2.85-4.25-7.4-8-4.6-3.8-6.3-3.3-2.5.7-3.1 4.1-.45 2.8.35 4.25.45.75 5.85 2.4m12.05.05q1.95 3.2 1.5 4.4-.6 1.55-5.15.05l-9.45-2.7q-5.15-1.55-6.05-2.85-1.05-1.6-.95-4.25.1-2.6 1.2-4.65.65-1.15 1.85-2 1.2-.85 2.25-.85 2.55-.1 6.8 3.4 4.6 3.8 8 9.45m-56.5-7.5q-7.55.85-11.6 4.15l-1.85-.8q2.45-3.55 11.3-4.95 13.4-2.2 33.15 4.2 2.6.85 2.65 1.45l-1.15 1.4q-2.15 2.35-4.65 8.95-2.75 7.25-1.85 10-1.85-1.35-1.85-2.05 0-3.55 2.35-9.45 2.35-5.9 4.65-8.2-18.75-6.05-31.15-4.7m-33.5 25.7q-.65-6.7 3-9.75 2.45-2.05 5.75-1.95 6.6.25 16.6 5.15 12.1 5.95 21.5 15.7 1.05 1.1.9 1.45-.15.3-1.55.45-9.1 1.25-16.7 5.15-9.4 4.85-10.5 11.45l-.75-2.3q1.2-7.1 11.4-11.8 6.3-2.9 14.6-4.4-9.05-9.05-20.2-14.45-9.15-4.35-15.35-4.55-3.3-.15-5.1 2.1-1.25 1.55-1.55 4.95-.25 2.75.15 4.65l-2.2-1.85M155.9 120.1q-7.3 1.6-20.7 8.9-14.5 7.95-27.45 18-.8-2.4-.8-3.8 12.8-10.1 26.5-17.05 11.45-5.8 19.4-7.55l3.05 1.5m76.6 43.6q-.15.4.25 1l.9.95q-4.6.35-10 6.95-2.5 3.05-8.95 13.05l-9.05 15.6q-5.5 8.45-11.45 14-15.1 14-41.3 16.1-14.75 1.2-30.55-3.2l2.65-2q14.25 3.55 27.95 2.2 26.8-2.6 41.9-18.55 5.25-5.6 10.75-14.6 5.75-9.95 8.65-14.5 5.3-8.15 9.3-12.05 4.55-4.45 8.95-4.95m-106.65 72.7q3.55-.1 4.1 1.05.45.9-1 2.85l-6.55 8.35-.95-2.8 5.85-6.5q.5-.55.25-.85-.25-.35-1.75-.3-3.55.1-6.5 1.45-2.15 1-3.4 2.3l-.15.15-3.9-.5q5.15-4.95 14-5.2M50.35 334q2.5-1.75 5.35-6.7l1.95.8q-2.5 4.75-4.25 6.8-2.1 2.5-4.35 2.8 1.05-1.9 1.3-3.7m31.25-39.6q0-.45.95-.9l.9-.4q2.5 5.05 3.1 10.6.65 5.9-.65 14.1-1.95 11.9-2 16.35 0 4.65 1.9 7-.4.65-.1 1.55l.5 1.5-3.3-3.15q-1.7-2.3-1.5-6.2.15-2.95.95-8.25l1.55-9.1q1.7-10.55.7-16.2-.6-3.35-3-6.9m-65.9 21l3.9-1.65q2.9-1.5 4.1-3.7l2.45 1.55q-1.85 2.05-6.05 4.3-5.05 2.75-8.75 2.65 2.35-1.25 4.35-3.15m16.95-33.25q-5.9 2.45-12.65 7.65-6.2 4.75-9.9 9.2-1.95 2.4-2.8 4.05-1.15 2.3-1 4.35l-2.25 4.25q-.9-2.9-.5-5.45.55-3.4 3.5-6.95 4.9-5.95 8.95-9.5 6.5-5.7 14.4-9.2l11.9-5.4q5.1-3.15 8.55-9.5l2.2 1.5q-2.7 5.6-8.65 9.4-3.35 2.15-11.75 5.6"/><path fill="#0d131a" d="M119.65 244.2q-1.55-2.05-4.2-1.9-2.95.15-5.65 3.15l-.55-2.4q2.7-2.85 6.65-2.8 3.8.05 5.7 2.5 3.9 5.05 1.45 11.65-1.9 5.1-6.95 10-2.35 6.6-7.65 17.1-3.1 6.1-3.45 12.6-.3 5.1.25 15.05.6 10.4 1.85 20 .6 5.1-.8 8.7-1.55 3.85-5.65 6.75l-.05-1.2-.15-1.2q2.8-2.75 3.55-5.7.8-3 .15-9.15-1.25-11.35-1.5-22.25-.3-10.8.5-15.85.5-3.3 4.35-10.95 4.3-8.55 5.3-12.05 1.85-6.35 3.1-8.65 1.35-2.5.45 3.15 1.85-1.75 3-3.9 2.05-3.9 2.25-6.6.25-3.25-1.95-6.05m-66.1 52.7q6.05-6.55 8.6-11.3-5.4.45-11.65 2.55-5.75 1.9-8.7 3.9-1.6 1.15-8.5 8.55-7.4 7.95-7.2 9.1 3 .9 5.55 3.3 2.75 2.55 4.1 6.1 2.3-8.05 7.8-12.65 5.15-4.35 10-9.55m9.75-13.45q2.65-4.1 3-3.3.3.75-1.2 4.45-1.6 3.95-8.3 11.6-5.8 6.65-10.15 10.3-6.3 5.35-8.8 13.8-2.1 7.25-.4 10.55-.7 1.3-.9 2.65-3.05-3.05-1.6-10.9-1.65-4.2-4.55-7.3-2.4-2.6-4.75-3.55-2.3-.95-2.65-1.4-.55-.7.65-2.05l8.55-9.15q7.4-7.75 8.55-8.6 5.9-4.05 22.55-7.1m19.1 9.25q3.5-2 4-1.55.45.45-1.65 1.85-10.55 7.05-19.4 17.2-9.2 10.55-9 16.1.05.75 1.95.4l5.45-.8q9.85-.6 19.85 6.7l-.95 1.85q-4.9-4.55-12.5-5.95-7.15-1.35-13.7.55l-1.85.35q-.3-.2-.35-1.95-.1-8.55 10.65-20.25 8.8-9.6 17.5-14.5m-64.1 14.05q-1.2-2.65-2.85-3.6-2.05-1.15-4.05.4-2.45 1.85-5.1 6.95-2.65 5.1-3.6 9.65-.6 2.7-.05 3 .5.35 2.9-1.25l8.45-6q4.85-3.7 5.1-4.8.4-1.65-.8-4.35m2.05-.4q1.65 3.55.8 6.35-.6 1.95-6.05 5.8l-9.25 5.95q-3.55 2.2-4.65 1.25-1-.85-.6-4.9.45-4.45 3.05-10 3-6.3 6.65-8.7 3.25-2.1 6.05-.55 2.45 1.4 4 4.8"/><path fill="#0d131a" d="M44.1 343.55l3.55-5.1q2.05-3.15 2.1-4.9.05-2-1.6-3.9-1.55-1.8-3.55-2.4-3.6-.95-5.35 2.8-1.85 3.75-1.85 10.8 0 3.25.8 8.05.45 2.5.95 2.5.5.05 1.7-2.15l3.25-5.7m1-18.05q2.75.75 4.85 3.5 2.2 2.95 1.85 5.85-.35 1.25-1.6 3.35l-2.9 4.4-5 8.3q-1.75 3.6-3.1 3.45-1.4-.15-2.55-4.1-1.55-5.4-1.6-11.1-.1-6.35 1.75-10.35.7-1.2 2.1-2.2 2.75-2.05 6.2-1.1m48.6 10.25q-2.15.05-4.55 1.9-2.15 1.65-2.45 3-.55 2.75 2.8 15.2.7 2.7 1.5 2.6.6-.1 2.4-2.4 6.9-8.9 6.35-13.05-.4-2.95-1.65-4.8-1.65-2.3-4.4-2.45m-.05-1.8q2.45-.05 4.3 1.25 1.85 1.35 2.9 3.95 1.6 3.95.1 8.2-1.45 4-6.55 10.85-2.85 3.8-4.45 3-1.35-.65-2.55-5.55-3.3-13.25-2.4-15.95.75-2.2 3.35-3.95 2.55-1.7 5.3-1.8m-11.2-64.7q2.3-.6 8.6-3.85 3-1.5 2.9-.9-.1.6-2.5 2.4-4.15 3.05-8.5 4.4-8 2.5-18.95.9-15.2-2.1-20.15-13-3.4-7.45-2.5-16.3.8-7.8 4.5-13.8 1.8-3 10.3-14 6.3-8.25 7.8-13.05l3.7-1.95q-3.25 8.35-9.75 17.4L49.5 229q-4.35 7.3-5.2 14.55-.85 7.4 2.05 13.85 4.75 10.45 18.55 12.4 10.4 1.5 17.55-.55m25.65-24.3q-1-2.15-.4-5.3l2.75-1.5q-.5 2.85-.25 5.1.3 2.45 1.35 3.5 1.35 1.35 1.45 1.9.1.7-1.8-.5-2.25-1.35-3.1-3.2"/><path fill="#0d131a" d="M133.15 220.35l3.1-.15q-.25.8-2.3 1.65-4.25 1.95-14.2 9.7-13.4 10.45-18.45 19.1-1.15 1.95-1.85 2.05-.8.15 0-2.35 2.5-8 15.25-18.55 11.5-9.55 18.45-11.45m35.65-133.4q9.9 3.2 19.15 4.35l2.7 3.35Q182 94.4 169.2 90q-10.3-3.55-18.35-7.8-13.6-7.15-19.7-7.15-6.6 0-13.5 7.85-7.05 8-20.15 21.2-13.2 13.25-21.75 20.85 6.35-2.4 5.3-1.05-1.05 1.4-8.65 4.55l-12.1 5.1q-7.5 3-15.3 4.9l-5.35.9-5.15 1q-4.2 1.4-6.8 4.55-1.6 1.9-4 6.6l-3 6.25q-2.1 3.7-4.9 7.05l-7.35 7.95q-5.6 5.75-4.5 9.95-.8.4-1.25 2.5l-.5 2.8q-1.35-4.25-1.2-7 .25-4.65 3.95-8.5 11.6-12 14.95-17.7l2.45-5.7q2.65-5.3 3.55-6.4 2.25-2.9 6.85-4.45 2.4-.8 7.5-1.65l11.05-2.85q7.7-2.35 18.35-6.65l22.7-21.75q15.7-15.6 22.6-24.1Q123 71.35 131.9 72q5.3.35 17.7 6.9 9.1 4.8 19.2 8.05"/><path fill="#0d131a" d="M16.35 188.95q3.1-1.4 3.8-4.15 1.15-4.65 5.55-11.35 5.45-8.4 10.95-10.6 5.2-2.1 11-2.2l6.75.5q1-1.7 2.15-3 1.3-1.5 2.1-1.7.75-.2-.2 1.85l-2.85 5.55-5.35 10.45q-4 7.9-5.65 12.5-4.4 12.45-3.3 18.35-.55 4.05-.25 5.6-2.85-2.7-2.85-6.95 0-7.55 2.75-15.25 1.65-4.65 5.8-13.15 4.05-8.25 6.8-12.7-9.5-.85-16.2 1.8-5 2.05-10 10.6-3.8 6.55-5.05 11.35-.45 1.75-1.85 3.2-1.3 1.35-3.1 2.15-1.5.7-3.45.8.5-1.45.6-3.05l1.85-.6M76.6 171.3q-5.8 8.35-8.65 14.4-1.8 3.85-4.45 11.85l-1.85 5.8-1.1 3.25q-1.3 2.6-3.45 4.6-2.2 2.05-4.4 2.65.7-.95 2.2-4.05 2-1.2 3.2-3.6l1.65-4.2 1.75-5.25q4.25-12.8 5-14.45 4.1-8.95 12.3-16.85 1.8-1.75 2.45-1.6.65.1-.3 1.2l-2.75 4.05q8.35-1.2 12.75 1.75 3.35 2.25 8.15 10.45-.25-3.45-.05-4.05.2-.7 1.25 1.4 1.7 3.6-.1 17.95-1 8.2 1.95 12.3l.9 1.2v3.8q-2.1-1.5-3.4-3.35-1.75-2.35-1.95-6.2-.2-2.65.4-7.5l.65-5.7q.2-2.85 0-5.05-1-4.5-4.3-8.6-6.55-8.2-17.85-6.2m55.4-58.45q4.75-2.65 5.25-1.85.45.8-4.05 3.6-5.55 3.45-14.45 11.65-8.95 8.25-11.2 12 0 16.05 11.25 27.3 1.75 1.75 2.25 4.1.35 1.6.1 4.35l-.9 6.25q-.7 4.65-.85 7.45-.15 2.8.75 10.55l.95 8.25q0 2.85-1.25 5.1l-2.45 3.3q-1.1 1.25-2.95 1.8l.9-2.4.7-.6q3.1-3.3 2.25-12.35-1.5-10-1.4-13.65l1.35-12.6q.55-5.9-1.5-7.95-4.9-4.95-7.95-11.3-4.1-8.7-3.95-18.4.15-9.85 1.4-9.6 1.1.2 1.4 5.8 3.5-5 10.95-11.25 7.15-6.1 13.4-9.55"/><path fill="#0d131a" d="M193.45 134.5q4.05-.45 3.95.4-.05.85-3.95 1.75-8.45 1.95-15.75-.45-6.15-1.95-13.1-7.65-22.5-18.45-34-12.9-.3-.45 1.1-1.15 1.4-.75 1.15-1.15 3.9-1.95 10.45-.15 9.45 2.55 22.55 12.7 7.7 6 14.7 7.9 5.75 1.55 12.9.7M64.7 145.65q2.6-.9 7.15-1.65 2.15-.7 2.4 0 .2.75-1.85 1.35l-5.55 1.9q-3.75 1.7-4.5 4.15-.5 1.7-1.05 1.6-.5-.1-.75-1.75-.65-3.85 4.15-5.6m-42.35 36.4q7.8-2.1 13.65 3.9 4.1 4.25 5.25 9.25l-1.5 1.7q-.65-2.9-3.55-6.55-3.2-4-6.9-5.85-4.25-2.1-7.95-.6l1-1.85m77 21l-.2 2.05q-10-6.8-21.6-5.8-9 .75-17.6 5.9l-.1-1.85q6.8-6 16.95-6.75 11.8-.85 22.55 6.45M12.9 185q-.95-1.8-2.3-2.7l-3.95.1q-2.85 2.15-3.9 7.5-1 5.25.25 11.1.55 2.6 1.05 2.8.55.2 2.1-2.1l4.95-7.85 2.75-4.9q0-2.05-.95-3.95m-.95-4.35q2.3 1.5 3.7 4.05 1.6 3 .9 5.95L7.8 203.2q-3.1 4.45-4.75 3.65-1.25-.7-2.4-5.55-1.4-6.1.05-12.65 1.35-5.9 3.6-7.6 3.9-2.9 7.65-.4m42.4 21.55q2.1 3.2 1.7 6.5-.25 1.8-2.8 5.9-2.65 4.15-5.95 7.95-3.95 4.5-5.15 4.25-1.35-.3-1.9-6.4-.4-4.25-.1-9.6.3-5.4 1.1-7.65.45-1.35 1.7-2.6 2.55-2.5 6.5-1.95 2.85.4 4.9 3.6m-.3 6q.4-2.15-1.1-4.65-1.55-2.5-3.55-2.8-3.6-.5-5.7 3.55-.65 1.35-1 6.85-.3 4.4-.25 8.7 0 3.5.45 3.65.4.2 2.55-2.35 7.95-9.65 8.6-12.95m61.35 1.25q-.4-1.5-2.75-2.6-2.3-1.1-4.6-.85-1.4.15-2.4.9-1.1.8-1.15 1.8l.6 5.8 1.3 10.15q.55 3.8 1.1 3.9.5.15 2.3-3.05 2.05-3.6 3.8-7.95 1.95-4.85 1.95-6.85l-.15-1.25m-1.05-4.4q2.45 1.45 3.05 3.75.8 2.9-1.15 8.45-1.95 5.5-5.55 10.75-2.8 4.1-4.2 3.65-1.25-.35-1.9-4.7l-1.75-11.05q-.9-6.55-.5-8 .55-1.7 2.55-2.9 2.05-1.2 4.55-1.3 2.6-.05 4.9 1.35m190.7-97.25q-2.2-6.45-1.35-6.8.85-.35 2.9 5.25 4.65 12.85 2.75 22.05-1.6 7.45-10.75 23.45l-2-1.2q8.9-14.75 10.5-24.35 1.35-8.2-2.05-18.4"/><path fill="#0d131a" d="M316.05 41.95q.5-3.05-.15-3.2-.5-.1-2.6 1.8-5.4 4.95-22.85 25.05.55 2.95 1.95 7.65.95 3.25.75 4-.45 1.65-3.05-4.65-2.65-6.4-4-12.75l-5.6-24.35-5.3-21.9-1.35-4.05q-.8-1-2.25 3.1l-15.85 46 2.85 2.25q3.1 2.35 2.7 2.65-.35.3-3.85-1.3-3-1.45-5.7-3.5-2.9-2.15-18.75-27.15L216.9 5.75q-1.1-1.5-1.65-.45-.5.95-.35 2.85.3 4.45.25 29.95-.05 27.25-.8 30.2-1 4.1-1.55 3.9-.6-.2-1-5l-44.75-16.6q-3.65-1.7-3.8-.9-.1.6 2.45 4.35l12.75 18.5Q186.8 84.8 192.1 93.7q15.4 25.75 15.5 40.1.05 7.1 2.45 11.35 2.15 3.7 7.3 7.1 3.8 2.55 12.1 7.7 7.45 4.9 12.7 9.6l2.25 5.75q-5.35-4.8-15.25-11.7l-14.75-9.85q-5.95-3.95-7.85-9.25-1.25-3.5-1.9-13.35-.9-14.6-20.95-46.1-6.25-9.9-13.85-20.5l-6.65-9.1q-4.45-6.75-3.5-8.45 1-1.85 8.75.9l43.35 16.15.2-27.8q.05-24.15.2-28.9.25-6.85 2.05-7.25 1.85-.45 5.85 5.6l15.55 24.5q15.2 23.75 17.9 26.65 2.35-5.25 15.35-44.3 2.35-7.05 4.55-7.1 2.35-.05 4.25 7.35l12.15 50.15 8.75-10.1 12.7-13.7q5.35-5.5 6.8-4.55 1.45.9.1 9l-5.1 28.7-4.9 26.1q-.8 4.15-1 6.7-.2 3.25.3 5.95-.35 0-1.05-2.25-.7-2.3-1-2.3-.5-2.95.9-9.95l9.7-54.6"/><path fill="#0d131a" d="M241.1 161.45q-.7 2.15 0 4.25.5 1.55 2.6 5.1 5.45 9.4 8.7 18.55 1.2 3.35 2.85 9.85.9 3.45 7.3 7.95 4.1 2.85 11.25 6.55l.3.15q4.4 2.3 7.85 4.6l5.15 3.5q1.9 1.2 3.9.65 1.7-.5 4.9-5.9 3.2-5.3 5.05-10.6 2.2-6.25 1.75-13.45-.3-5.35-2.4-13.6-1.1-4.5-1.9-14.7l-.6-9.3q-.3-4.3-8.35-6.5-2.8-.8-4.7-2.35-1.2-1-3.25-3.6-2.5-2.8-4.15-3.5-4.3-1.7-8.5 4.1-3.15 4.35-5.45 6.4-2.9 2.55-6.85 3.95l-4.85 1.6q-4.85 1.45-6.75 2.4-3.1 1.6-3.85 3.9m.3 9.9l-2.35-4.05q-1.2-1.95-1.2-3.3 0-1.25.55-3 .95-2.85 4.95-4.85 2.1-1.05 7.8-2.75l4.8-1.55q3.35-1.2 5.75-3.6 1.45-1.45 3.5-4.6l2.15-3.05q3.65-4.55 7.5-4.7 1.55 0 3.1.75 1.5.7 2.6 1.95l2.35 2.85 3 3.35q1.55 1.3 4.05 2 5.4 1.5 7.25 2.6 2.4 1.4 2.55 3.9l.25 4.85q.45 12 2.7 21.05 2.45 9.75 2.8 13.2.7 6.8-1.55 13.1-3.6 10.1-7.7 16-5 7.25-10.3 2.8-1.95-1.6-18.5-10.9-13.4-7.5-14.2-11.25-2-9.65-5-16.7l-6.85-14.1"/><path fill="#0d131a" d="M269 155.7q-.6-1.1-.3-1.45.35-.35 1.45.9 2.3 2.85 2.8 5.95.3 1.75-.55 1.9-.85.1-1.15-1.1-.9-3.9-2.25-6.2m14.2-.1q-.05-1.85.2-2.9.3-1 .55-.75l.4 1.65.75 5.45q.2 1.3-.5 1-.65-.35-1-1.6l-.4-2.85m-55.6-33.15q1.75 8.95 5.1 17.2 1.5 3.6 1.15 3.8-.35.25-2.05-2.5-1.85-3.05-3.9-9.3-1.95-5.9-2.5-9.75l2.2.55m14.6 23.05q-5.55.3-5.5-.4.05-.7 5.8-1 8.25-.4 12.15-1.75 3.05-1.05 3.85-3.05l.6.8.6.75q-1.6 2.45-5.9 3.45l-11.6 1.2"/><path fill="#0d131a" d="M230.05 124.1q-6.25-1.4-6.05-2.3l5.8.3q17.95 3.9 28.95 16.45 2.3 2.6 2 3.3-.35.65-2.7-1.8-5.3-5.5-12.65-9.75-7.65-4.45-15.35-6.2m70.1-6.35l1.9-1.2q-.85 11.65-3.5 16.65-1.15 2.15-2.7 3.65-1.95 1.9-4.05 2.1l-3.7-.2-2.5-.65q-.15-.1 0-.8.2-.75.4-.7 3 1.5 5.8 1.15 1.75-.2 3.15-1.65 1.15-1.2 2.3-3.6 1.3-2.8 2.15-7.7.7-4.05.75-7.05"/><path fill="#0d131a" d="M239.2 138.45q-1.8-6.4-.3-12.3l.8-.1q.75.2.65.55-1.3 5.9.4 11.85 1.55 5.5 3.55 5.35 1.7-.15 2.35-4.6.7-4.6-.45-9.75-.1-.5.6-.1.75.45.9 1.1.95 4.8.2 9.1-.8 4.95-3.45 5.2-3.45.35-5.25-6.3"/><path fill="#0d131a" d="M242.2 131.85q.35-1.4.9-1.45.6-.05 1.15 1.2.5 1.35.65 3.45.1 2.05-.2 3.45-.35 1.35-.9 1.4-.6.05-1.1-1.2-.55-1.25-.7-3.35-.1-2.1.2-3.5m44.9 1.95q-.05-.3.4-.85t.5-.25q.2 2.4 1.1 3.8.75 1.25 1.6 1.15 1.35-.1 2.3-3.8 1-3.95.5-8.75-.05-.3.5-1 .5-.75.55-.5.65 4.75-.3 9.4-1.05 5.2-3.4 5.55-1.2.2-2.2-.9-1.2-1.3-1.55-3.85"/><path fill="#0d131a" d="M289.15 131.25q0-.25 1.15-2.1 1.15-1.9 1.2-1.6l.25 2.95q-.05 2.05-.55 3.3-.4 1.05-.85 1.05-.5-.05-.8-1.05-.35-1-.4-2.55m-19.5-14.9Q268 118 268 120.3q0 2.35 1.65 4 1.6 1.65 3.95 1.65t4-1.65q1.65-1.65 1.65-4t-1.65-3.95q-1.65-1.65-4-1.65-2.3 0-3.95 1.65m-3.55 4.2q0-2.95 2.1-5.1 2.15-2.1 5.1-2.1 2.95 0 5.05 2.1 2.1 2.15 2.1 5.1 0 2.95-2.1 5.05-2.1 2.1-5.05 2.1-2.95 0-5.1-2.1-2.1-2.1-2.1-5.05"/><path fill="#fff" d="M242.6 129.85q.8-.05 1.35.65.55.7.6 1.7.05 1-.5 1.7l-1.35.75q-.8 0-1.35-.7-.6-.7-.6-1.65-.05-1 .5-1.75.55-.7 1.35-.7m47.55-1.55q.8.8.7 2.2 0 1-.4 1.75-.45.7-1 .7-.8-.1-1.2-1.2.6-.35 1.05-1.6.55-1.45.85-1.85"/><path fill="#0d131a" d="M297.25 119q5.7-4.5 5.8-3.65.1.85-4.95 5.05-4.45 3.8-7.35 8.3-2.35 3.7-4.25 8.85-.75 2-1.3 1.9-.5-.1 0-2.2 1.1-4.7 4.4-9.7 3.35-5.15 7.65-8.55"/></svg>