<svg xmlns="http://www.w3.org/2000/svg" width="231" height="204" viewBox="-0.8 -0.2 231.4 204.25"><path fill="#0d131a" d="M42.6 33.75q-1.5 3.35-4.75 8.7-5.05 8.25-7.1 13.05-.7 1.65.3 3.45.95 1.65 2.9 2.9 3.4 2.1 9.6 4.3 7.65 2.7 12.1 2.35 4.35-.15 9.65 5.45 5.9 6.25 4.75 12.95-.9 5.25-7.05 8.5-6.25 3.3-11.85 1.1-4.45-1.75-11.4-6.65l-10.7-7.45q-11-6.9-15.85-11.4-6.25-5.8-6.25-10.7 0-3.55 2.7-6.65 1.7-2.05 5.65-4.85l3.9-2.6q2-1.45 2.4-2.6.55-1.7.55-3.6-.05-1.7-.5-2.8l-2-1.05q-8 3.85-12.3-.75-4.4.1-6.25-2.4-1.9-2.55-.6-7.5l.8-2.7.6-2.9q.4-3.8.85-5.15 1.15-3.2 4-4.15 1.2-.35 3.55-2.2 5.2-4.05 8.55-5.85 5.1-2.75 9.4-2.5Q35.4.4 40 5.5q5.45 6 5.4 17.1-.05 4.95-2.8 11.15"/><path fill="#f2d4b4" d="M33.1 47.05L31 50.9l-2.4 4.6q-.9 2 .45 4.4 1.25 2.1 3.7 3.7 2.9 1.8 9.8 4.25 7.6 2.75 11.95 3.2 6.05.2 10.05 4.85 3.8 4.45 3.8 10.2 0 4.15-6.05 7.1-6.25 3.1-11.75 1.05-1.7-.5-8-5.05l-12.3-8.7q-5.8-3.8-10.55-7.35l-5.45-4.35q-4-4.15-4.55-7.55-.5-3.05 1.8-6.25 1.75-2 5.25-4.75l4.65-3.85 1.15-1.35 2.55-.55.05.95q.1 1.35.55 3.3 1.9-1.55 7.4-1.7"/><path fill="#a3611c" d="M35.3 19.1l-.85-2.6q-.55-1.5-1.05-1.45-.7.15-.35 1.9l.85 3.15 1.15 5.5q.9 8.4-7.55 9.6-4.05.6-6.4-1.15-1.55-1.15-2.5-3.55-1.1-2.7-1-5.15.1-1.95 1.05-5.2l.85-4.25q.3-2.7-.35-2.65-.65.1-1.25 2.55l-.95 4.05q-1.45 4.1-1.05 7.45.3 2.5 2.25 6.8-4.5 2.75-7.8.95-3.45-1.9-2.75-7.4.1-1.25 1-3.8.8-2.35.8-3.5.15-4.35-.85-4.25-.55.05-.75 1.55l-.15 2.7q-.05 1.1-1.05 3.3-1 2.25-1.2 3.85-.2 2.2.15 4.25l.35 1.5Q2.55 32.7 2 30.7q-.5-2.05 1.15-8.25l.9-4.95q.6-3.15 1.45-4.1.75-.85 2.2-1.25l2.1-.9q6.65-5.2 8.45-6.3 5.2-3.2 9.65-3 6.7.3 10.75 4.95 4.95 5.7 4.65 16.75-.15 4.9-3.7 12.1-1.6 3.3-6.55 11.5l-2.55.1q-2.95.3-4.85 1.55l-.5-2.75-.1-1.45-2.65.6.9-1.8.4-1.85q.4-2-.05-4.2 6.65.75 10.55-3.1 3.7-3.65 2.75-8.7L35.3 19.1"/><path fill="#0d131a" d="M60.4 123.4l.35.25 1.7.9q3.45 1.6 5.35 2.9 3.3 2.25 4.45 4.85l.1.2v.25q0 2.15-1.8 4.45l-3.95 4-2.1 2.05q2.5.8 6.25 3.45l4.95 3.7q.5.35 2.2-1.15 2-1.85 2.45-2l4.95-1.4 5.45.15q2.15 1.85 2.9 5.05.8 3.45-.45 6.65-1 2.45-3.75 3.95-3.85 2.05-4.55 2.75-1.9 1.8-4.85 9.1-2.75 6.8-3.15 9.65 2.3 4.95 2.3 10.35 0 6.7-4.25 9.1-2.65 1.45-6.3.9-3.65-.6-7.7-3.15-9.55 0-11.5-7.3-2-7.35 6.1-14.25l3.5-3.75 5.85-8.1q3.25-4.8 3.25-6.3v-.15q-1.7-1.55-13.6-1.25-8.45.15-12-.3-5.85-.75-7.35-3.45-3.6-6.45 0-11.35 1.75-2.4 8.45-6.85l3.7-3.75q4.3-4.65 6.55-6.6 3.8-3.35 6.1-3.5l.4-.05"/><path fill="#f2d4b4" d="M42.15 140.85l2.8-1.95q11.65-12.4 16.85-12.85l4.25 2.5q3.6 2.35 4.95 5.3-2.8 3.45-5.7 6.05l-5.6 4.75q-5.4 4.75-6.2 5.9-.6.9-.3 1.15.3.2 1.15-.55l4.25-3.6q1.9-1.6 3.95-2.95 1.35.45 2 .8.9.45 2 1.35.7 1.2-.05 3.55l-4.55 2.15q1.3.75 2.15 2l-7.7 2.9H46.05q-7.1-.45-8.75-2.8-4.05-5.55.8-10.5 1.45-1.5 4.05-3.2"/><path fill="#a3611c" d="M77.9 151.85l3.15-2.7q1-.85 4.35-1.4l4.05.2q3.6 4.8 2.25 8.4-1.35 3.4-6.9 5.25-3.5 1.15-10.2 21.25 1.65 3.2 2.3 5.8.55 2.25.45 4.7-.15 4.3-2 6.2-1.85 1.9-5.8 1.75-4.4-.1-7.25-3.1-2.6-2.7-2.05-5.35.5-2.4 2.25-5.2l2.7-4.7q.85-2.15 1.05-4.75.25-2.55-.35-2.6-.5-.05-.9 1.95-.5 2.9-1.25 4.45l-2.85 4.5q-1.85 2.85-2.5 5.7-.35 1.3.1 3.25.4 2.05 1.4 2.95-4.1-.85-5.5-1.9-2.8-2-2.7-6.85.05-3.3 3.45-7.45l4.45-4.6q2.45-2.7 5.85-8.05 3.55-5.7 4.35-8.5 3.95 1.8 6.65-.4.9-.7.7-1.05-.15-.4-1.1 0-2.05.95-3.35.8-1.45-.15-3.75-1.7-1.8-1.25-8.4-1.25 3.15-1.4 6.55-2.1-.4-1.35-2.1-2.45 1.1-.8 2.45-1.2l1.1-.3q.1-2.95-.35-4.05 3.2 1.8 5.9 3.95 2.35 2 3.8.55"/><path fill="#d1b89d" d="M61.8 126.05l4.25 2.5q3.6 2.35 4.95 5.3l-5 5.4-4.65 4q-1.55-4.35-5.3-5.7-3.55-1.3-9.6-.2 10.45-10.9 15.35-11.3"/><path fill="#0d131a" d="M164.6 93.45q.8 1 .4 1.6l-1.45.85-3.85 1.35 2.1 6.35q.55 1.3.25 1.75-.3.4-1.8.4l-3.55-.15.25 1.8.85 6.95q0 .65-.6.95l-1.05-.1-.8-.65-1.65-1.2q-.65.35-3.75 11.3-3.05 10.95-3.9 11.3-1.55.7-4.3-3.5l-2.45-4.4q-6.5 18.15-7.75 18.15-1.3 0-4.85-6.05-.55.4-1.6 4.75-.45 1.8-1.1 1.95-.65.15-1.7-1.45l-1.95-2.9-2.05 3.3q-.85 1.65-1.4 1.6-.65 0-1.4-2l-1.5-3.7-1.8 3.35q-.85 1.85-2.65 7.3l-1.1 3.2q-.15.45-.65.55l-.9-.15-7.7-6.75-2-1.8-.35.9-1.9 4.7q-.75 1.4-1.2 1.45-.45 0-1.55-1.3l-4.85-5.65-4.55-5.2-1.8 4.05q-.8 1.7-1.25 1.7-.6.1-2.2-1.9l-6.15-6.7q-3.15-3.4-6.3-6.35-1.4 1.75-2.8 4.4-.9 1.75-1.5 1.65-.55-.15-1.25-2.05l-1.45-3.85-.75 1q-1.05 1.35-1.45 1.2-.35-.15-1.05-2.05-1.8-5.25-4.1-9.95l-2.4 3.1q-1.4 1.75-1.8 1.75-.55 0-.95-2.65l-.65-4.7q-.7-6.65-1.25-8.75l-8.1 4.7q-2 1-2.5.4t.7-2.75q.75-1.45 3.55-5.75 6-9.5 8.35-14.3 1.4-2.8 1.45-4.05.05-1.4-1.3-4-1.7-3.25-1.4-4.9.2-1.25 2.65-4.5 3.4-4.45 2.55-7.5-.45-1.6-.3-2.1.2-.75 1.5-.8l1.35-.05-1.75-5.25q-.45-1.25-.1-1.85.3-.6 1.5-.7l1.35-.15-8.3-12.95q-1.1-1.65-.85-2.3.3-.7 2.2-.6l2.25.15q-3.1-4.3-3.8-5.8-.9-1.85-.5-2.45.4-.65 2.55-.35l11.7 1.8L58 32.8q-.1-1.9.5-2.2.65-.3 2.55.8Q63 32.55 69 39.35l6 6.8q3.25-1.45 8-4.9 4.5-3.25 7.5-6.15.65-.65 1.2-.35.55.3.55 1.2L92.2 39q4.5-5.1 8.4-8.3 3.6-2.9 7.3-4.6 2.1-.95 2.55-.6.4.3-.05 2.3l-2.65 10.65q4.05-2.45 6.45-3.75 1.4-.75 1.75-.5.35.25.3 2.1l-.3 5.3q5.85-4.25 13.2-8.65 8.9-5.35 13.55-6.9l2.35-.5q.5.25 0 2.05l-1.2 3.35 2.85-1.85q1.45-.95 1.85-.7.35.2.15 1.95l-2.4 19.7 1.15-1.15q1.8-1.8 1.8.7l-.1 14.55 3.95-2.05 1.05.05q.45.3.45.9l-.05.15-1.15 10.1 1.5-.1 3.95-.15.7.35.25.65v1.1q.2 8.5.5 10.15.4 2 1.5 4l2.8 4.15"/><path fill="#f2d4b4" d="M129.1 34.95q3.5-2.35 7.9-4.65 4-2.1 5.55-2.55l-1 3.75q-.75 2.65-.5 2.8.2.1 2.6-1.4 2.6-1.55 3.3-1.65-2.15 12.75-3.05 23.1l2.05-1.5 1.45-1.1-.05 7.75q-.2 7.8.05 7.9l2.05-.7 2.5-1.15q.25.45-.25 5-.5 4.45-.3 4.6.3.3 6.05.1l.25 3.55q.05 3.65.35 5.15.3 3.15 2.75 6.95l2.35 3.4-2.45.65q-2.5.55-3.05 1.2-.55.7.9 4.15l1.4 3.55-2.4.05-2.65.1q-.25.2.35 4.15l.5 4.15-1-1.15q-1.15-1.05-2.2-.55-.95.5-4 11.45-3 10.8-3.6 10.8-.65 0-2.95-4.55-2.35-4.6-3-4.6-.6 0-3.95 9.35-3.3 9.3-3.95 9.3-.5 0-2.9-3.35-2.25-3.2-3.1-2.75-.35.2-.85 3.75-.45 3.55-.65 3.55l-1.45-1.85q-1.35-1.9-1.7-1.9-.55 0-1.7 2.1l-1.45 2.1q-.25 0-1.35-3.1-1.05-3.1-1.55-3.15-.35-.1-1.65 1.8-1.45 2.05-2.65 4.5-1.05 2.2-2.3 6l-1.1 3.05-4.75-4.4q-4.6-4.45-5.5-4.4-.45.05-1.6 3.35l-1.45 3.3q-.3.05-5.15-5.75-4.9-5.9-5.6-6-.6-.05-1.95 3.1l-1.45 3.2-6.85-7.7q-6.7-7.75-7.1-7.75-.5-.05-2.35 2.75l-1.9 2.75-1.35-3q-1.2-2.95-1.5-3-.25 0-1.05 1.3l-.95 1.3-2.5-6.2-2.55-6.05q-.4 0-1.95 2l-1.65 2-1.25-6.85q-1.1-6.95-1.7-7.3-.25-.15-4.05 1.85l-3.8 1.95 5.45-8.45Q48 95.9 49 91.7q.4-1.55-1.1-5.1t-1.4-4.35q.2-1.4 2.35-4.65 2.3-3.45 2.65-5.05.2-1.1-.15-2.5-.35-1.25-.2-1.45l1.65-.15 1.5-.05q.15-.4-1.1-4.05-1.2-3.6-1.1-3.75l1.65-.4 1.6-.45q.1-.2-4.4-7.45l-4.45-7.5 2.1-.25q2.05-.15 2-.55-.05-.7-2.3-4.3l-2.05-3.5L53 37.5l7 1.25q.25-.15.15-2.6-.1-2.4.05-2.5 1.2-.5 7.5 7.35 6.35 7.85 7 7.55 2.7-1.15 7.8-4.55 5.25-3.5 7.35-5.7l.1 2.6q.05 2.9.5 3.05 8.15-9.7 17.45-15.5.25.15-1.7 7.1-1.95 7-1.55 7.2.2.1 4.4-2.45 4.15-2.55 4.45-2.4.2.05.25 3.45.05 3.4.5 3.6.35.2 4.95-3.05l9.9-6.95"/><path fill="#d1b89d" d="M160.7 94.95q-2.5.55-3.05 1.2-.55.7.9 4.15l1.4 3.55-2.4.05-2.65.1q-.25.2.35 4.15l.5 4.15-1-1.15q-1.15-1.05-2.2-.55-.95.5-4 11.45-3 10.8-3.6 10.8-.65 0-2.95-4.55-2.35-4.6-3-4.6-.6 0-3.95 9.35-3.3 9.3-3.95 9.3-.5 0-2.9-3.35-2.25-3.2-3.1-2.75-.35.2-.85 3.75-.45 3.55-.65 3.55l-1.45-1.85q-1.35-1.9-1.7-1.9-.55 0-1.7 2.1l-1.45 2.1q-.25 0-1.35-3.1-1.05-3.1-1.55-3.15-.35-.1-1.65 1.8-1.45 2.05-2.65 4.5-1.05 2.2-2.3 6l-1.1 3.05-4.75-4.4q-4.6-4.45-5.5-4.4-.45.05-1.6 3.35l-1.45 3.3q-.3.05-5.15-5.75-4.9-5.9-5.6-6-.6-.05-1.95 3.1l-1.45 3.2-6.85-7.7q-6.7-7.75-7.1-7.75-.5-.05-2.35 2.75l-1.9 2.75-1.35-3q-1.2-2.95-1.5-3-.25 0-1.05 1.3l-.95 1.3-2.5-6.2-2.55-6.05q-.4 0-1.95 2l-1.65 2q-.15-.05-.75-3.85l-1.2-7 1.6 1.2 1.8-.95q1.65-1 2.05-1 .7 2.45 2.3 6.55L55 122.7l.9-.3 1.3-1.05 1.25 2.55.7 1.55 2.6-.6 3.75-.65 2.75 4.2 2.25 2.6q.35.15 2.25-2.1l2.6-2.95q.85 1.75 3.65 5.9 2.85 4.3 3.3 4.4l2.55-1.9q2.65-2.2 4.25-2.85.55 2.2 1.95 5.25 1.45 3.05 1.95 2.95.4-.05 1.9-2.55 1.45-2.45 1.95-3.9 1.15.95 3.5 5.05l2.35 3.65q.65-.15 7.3-13.3.55.05 3.45 3.05 2.85 3 3.3 2.85.85-.3 2.55-3.95 1.4 3.1 2.25 2.8.45-.1 1.55-3.1 1.15-2.95 1.55-3.1.45-.1 2.85 1.9 2.5 2.05 3.05 2.05.6 0 3.8-8.2 3.25-8.3 3.8-8.4.6-.15 2.85 1.85 2.25 1.95 2.8 1.8.6-.15 1.15-6.4.55-6.45 1.1-6.85l2.5-.05q1.7.35 2-.25.3-.5-.7-4.65-.95-3.95-.4-4.2 1.7-.45 2.85-1.25l1.55-1.45 1-7.5q1.15-7.65 2.8-9.05l.1 3.6.3 3.8q.3 3.15 2.75 6.95l2.35 3.4-2.45.65"/><path fill="#0d131a" d="M210.05 97.85q3.25-.55 6.55-.15 10 1.25 11.95 11.55 2.05 10.95-7.6 23.65-6 8-17.35 12.85-9.5 4.05-19.5 4.8-18.5 1.35-34.7-3.4-14.55-4.35-31.35-15-2.6-1.65-3.4-4.65-.75-2.7.15-5.35.9-2.6 2.85-3.35 2.15-.9 4.6 1.1 14.5 11.9 30.7 16.7 14.4 4.2 31.05 3.05 14.2-.95 23.25-7.35 7.7-5.4 9.9-13 .85-2.8.55-5-.25-1.95-1.2-2.65-1.4-1.05-5.95-.75l-5.15-.25q-2.7-.8-3.25-3.8-.7-3.75 1.55-6.05 2.05-2.2 6.35-2.95"/><path fill="#a3611c" d="M207.85 100.55q3.45-1.3 7.7-.95 3.85.35 7 3.2 3.65 3.3 4.15 8.35.95 9.15-5.35 18.2-7 10-19.95 15.2l-3 1.05q.25-1.15 1.35-2.6l-2.95-.4q1.65-.75 3.45-2.95-1.05-.3-1.9-.9 1.5-.45 4-1.65 12.05-5.6 16.1-15.95 1.6-4.1 1.2-7.4-.4-3.15-2.4-4-1.55-.65-8.15-.9-4.65-.15-5.1-2.75-.7-3.85 3.85-5.55"/><path fill="#f2d4b4" d="M191.35 147.5l-7.2 1.15q-16.4 1.6-34.8-3.5Q130.8 140 119.3 130.6q-1.4-1.15-2.45-3.65-1.15-2.8-.1-4.25 2.1-2.85 6.9 1.3 13 10.95 33.1 15.55 21.25 4.9 39.55-.2l2.3-.7q.55.35 2 .95-1.3 1.8-3.25 2.9l2.7.35-1.1 1.9-.4.8q-3 1.05-7.2 1.95m-1.6-76.4q-.7 8.25-1.6 14.65l-3.1 3.05-1.65-2.75-1.4 2.65-2.25-4.85-.7-1.35-.5-.75q-.3 1.85-.75 2.55l-1.5 2.4-3.15-4.3 1.15-16.35q-7.25 4.05-10 6.35-3.65 3.1-6.55 7.7-2.1 3.35-3.2 6.4-.6 1.7-4.95-.7-4.7-2.6-7.3-7.2-2.55-4.45-2.8-10.45-.2-5.3 1.1-6.45 2.3-2.05 4.3-3 1.9-.95 4.55-1.35l7.05-.85 6.2-1.15 7.75-3.15q6.55-2.45 9.75-2.45 10.15 0 10.15 10.1 0 3.7-.6 11.25"/><path fill="#0d131a" d="M189.3 64.4q.25-5.1-.25-8.4-.45-3.1-3.7-4.55-3.45-1.55-8.55-.45-2.05.45-6.15 2.1l-7.25 2.85q-2.8 1-6.8 1.45l-6.2.5q-5.9.45-8.95 4.25-1.15 1.4-1.4.65-.25-.7.7-2.35.9-1.55 3.2-2.85 2.35-1.25 4.55-1.4l7.9-.7q4.1-.45 6.3-1.25l6.4-2.4q4.4-1.6 7.95-2.4 5.7-1.3 9.75.8t4.1 6.5q.1 5.45-.4 13.25l-1.35 16.55q-.8 10.25-.4 12.25l.9 3.45q1.45 5.3 1.45 7.2 0 6.55-4.15 9.45-4.1 2.9-10.05.7-2.85 1.75-6.95.7-4.45-1.2-5.8-5-3.9-2.35-3.9-8.45 0-3.15 2.25-6.25 1.25-1.8 4.45-4.85 2.95-2.8 3.5-4.05.9-1.85 1.55-11.6.6-8.45 1.3-12.75-5.7 3.7-9.3 6.65-6.65 5.55-7.9 10.9-1 3.25-1.85 2.9-.85-.35.1-4.3 1.2-5.25 9.2-11.45 2.8-2.2 10.1-6.7l1.2-4.8q.45-1.35 1.05-1.3.55.1.3 1.5-1.75 10.45-2.1 18.2l-.25 5.15q1.35.85 2.25 3.3l1.1-1q1.15-1.45 1.4-3.9 1.8 1.9 2.7 4.5.45 1.3.5 2.25 1.5-1.55 1.7-2.75l1.15 2.95q2.75-2.3 2.9-3.9l.95-11.15.8-10"/><path fill="#a3611c" d="M166.85 98.7q4.85-4.85 5.35-5.9.45-.95 1.15-5.65l.55-4.55q1.2 1.3 2.25 3.6 1.45-2.05 2.25-5.25 2.25 2.55 3.6 7 .75-.6 1.35-2.6.95 1.2 1.6 2.8 1.8-.85 2.6-2.8l-.55 6.1q-.75 6.75-.45 8.3l1.55 5.05q.95 3.1.9 4.8-.1 4.4-2.2 6.8-1.9 2.2-4.85 2.2-3.25 0-4.55-2.05-1.05-1.65-.9-4.9.15-1.45 1.5-3.9 1-1.8.3-2.1-.8-.35-2.15 1.45-1.45 1.95-1.85 4.4-.35 2.2-.1 3.35l.9 2.45q-2.1.95-4.3.5-2.05-.35-3.15-1.6-.8-.85-1.05-2.6-.3-1.6 0-3.2.3-1.65 1.3-3.8.7-1.4.3-1.65-.55-.35-1.6.85-1.2 1.25-1.85 3.25-.6 1.75-.35 3.4-1.25-1.15-1.65-2.95-.25-1.1-.2-3.15.2-3.55 4.3-7.65"/><path fill="#0d131a" d="M53.8 41.65q.45-.45 1-.3l3 .8q3.4 1 5.95 2.15 4.2 1.85 7 4.95.4.4.3.9l-.6.75q-2.9 1.35-5.9 3.1-2.85 1.75-5.45 4.35-.4.5-1.05.3-.6-.25-.7-.9-.55-4.15-1.4-7.55l-1.55-5.1-.8-2.4q-.25-.55.2-1.05"/><path fill="#a3611c" d="M69.4 49.75q-2.7 1.15-5.6 2.95-3.3 2-5.05 3.7-1.1-7-3.4-13.35 9.35 1.75 14.05 6.7"/><path fill="#0d131a" d="M139 35.65l1.05.05q.5.3.5.9l-.8 22.55q0 .75-.65 1-.7.25-1.15-.3-3.95-4.55-6.6-6.75l-7.15-5.75q-.4-.3-.4-.8t.4-.8l2.45-2.05 4.6-3.5q3.2-2.15 7.75-4.55"/><path fill="#a3611c" d="M126.25 46.65q4.95-5.05 12.6-8.85.15.1-.1 3.25l-.4 6.3-.15 6.6-.2 3.3-5.5-5.35q-3.55-3.35-6.25-5.25"/><path fill="#804a0c" d="M52.35 186.65q2.65 5.3 6.05 5.45v.1q-.35 1.3.1 3.25.4 2.05 1.4 2.95-4.1-.85-5.5-1.9-2.8-2-2.7-6.85 0-1.45.65-3m7.9 6.3q3.6 4.1 7.7 4.7 3.95.55 9.2-2.15-.55 3.1-2.35 4.5t-5.25 1.3q-4.35-.1-7.2-3.05-2.6-2.65-2.1-5.3M35.45 32.8q-2.5 7.9-11.65 8.35.25-1.9-.15-3.7 4 .45 7.2-.9 2.9-1.2 4.6-3.75"/><path fill="#0d131a" d="M84.8 72l-.85 5.8q-.3 2.3-.7 2.25-.65-.1-.65-2.2-.05-2.4.85-6 .75-3.2 2.5-5.9 1.55-2.35 2-2.1l-1 2.35Q85.4 69.15 84.8 72m-13.55 5.05q-.8-1.6-2.75-3.75-1.6-1.75-1.45-1.9.4-.35 2.25 1.25 2 1.75 3 3.85 1 2.05 1.35 4.35.3 2.25-.35 2.4-.2 0-.7-2.1-.65-2.7-1.35-4.1m37.75-9.5q.9-.6 2.25-.8l1.5.2q.15.5-2.9 3.05.85 3.15.9 9.1l-.1 6.15 1.2-.4 1.3-.15q.2.5-.7 1.3-.85.75-1.75 1.15-5.95 2-11.9 3.15l-9.7 1.3-4.75-.2q-.2-.5 3.65-4.85 4.1-4.7 8.7-8.95 6.95-6.35 12.3-10.05"/><path fill="#fff" d="M104.7 73.5l3.5-2.75q.4-.2.8 7.2.4 7.45 0 7.65-5.1 1.7-10.45 2.75L90.35 90l-3.7.4q-.05-.15 3.25-3.4l7.75-7.4 7.05-6.1"/><path fill="#0d131a" d="M108.95 68.05l.15.35q.75 1.55 1.1 9.05.3 6.85 0 9.25l-.05.25-.2.05q-3.45 1.25-5.75 1.5l-.2.05-.1-.15q-.95-.85-1.95-6.5-1.05-5.9-.4-7.9l.05-.1 2.05-1.75 4.95-3.9.35-.2"/><path fill="#cc5d00" d="M109.1 85.75l-4.15 1q-.75-.7-1.4-5.7-.7-5-.25-6.3l2.4-1.95 2.55-1.85q.7 2.2.95 7.6.2 4.95-.1 7.2"/><path fill="#0d131a" d="M107.15 79.9l.1 2.55q0 1.4-.5 1.45-.4.05-.85-1.05-.35-1-.55-2.5-.15-1.45.05-3.05.25-1.8.85-1.85.4-.05.6 1.55l.3 2.9m-46.9-3.75l5.25 4q4.15 3.45 7.85 7.15 3.7 3.7 3.5 4.2-.2.55-4.75.05l-8.4-1.4-3.35-1-1.6-.6q-2.2-1.05-2.05-1.7.05-.2 1 0l.9.25-1-5.15q-.5-3.55-.05-5.85l-1.1-1q-1.05-1-.95-1.2.35-.7 2.15.55l2.6 1.7"/><path fill="#fff" d="M59.25 83.5q-.5-3.55-.25-6.25l2.15 1.4q2.35 1.6 4.55 3.45l6.95 5.65q3.15 2.6 3 3-.25.7-11.3-1.8l-3-1.05-1.35-.65q-.4-1.2-.75-3.75"/><path fill="#0d131a" d="M70.3 84.4l.15.15-.1 1.25-.6 5.2-.05.35-.35-.05L64 90.25l-.85-.2-.05-.25q-.5-1.9-.55-4.75-.05-3.8 1.05-5.7l.25-.4.3.25q3.6 2.75 6.15 5.2"/><path fill="#cc5d00" d="M68.9 90.35l-2.35-.7-2.5-.8q-.4-1.6-.3-3.75.05-2.55.75-3.95l4.7 3.95-.05 2.3-.25 2.95"/><path fill="#0d131a" d="M65.95 85.45l-.05 1.45q-.1.75-.4.8-.7.15-.6-2.4 0-.8.3-1.6.35-.75.6-.55.3.25.3.95l-.15 1.35"/><path fill="#d1b89d" d="M82.2 86.75q6.4 0 10.2 3.35 3.8 3.3 3.8 8.75 0 5.9-4.05 9.45-3.9 3.4-9.95 3.3-6.9-.1-11.05-2.7-4.65-2.85-4.65-8.05 0-5.5 4.65-9.75 4.7-4.35 11.05-4.35"/><path fill="#0d131a" d="M90.75 86q4.6 4.35 4.6 10.5 0 5.8-3.3 8.85-4 3.75-12.55 3.15-8.2-.55-12.4-3.55-4.25-3-4.25-8.2 0-6.05 5-10.6t11.7-4.55q6.55 0 11.2 4.4"/><path fill="#d18344" d="M89.7 87.6q3.6 3.65 3.6 9.35 0 4.95-3.65 7.55-3.85 2.75-10.9 2.15-6.25-.5-9.75-2.65-4.15-2.5-4.05-7.2.1-5.2 4.4-9.15 4.35-3.95 10.1-3.95 6.4 0 10.25 3.9"/><path fill="#0d131a" d="M83.8 96l.5 2.95q.4 1.85 0 2.05-.6.3-1.4-1.6-.7-1.75-.8-3.25-.1-1.3.5-2.9.65-1.6 1.25-1.45.45.1.3 1.45L83.8 96m-10.5-.3q-.05.55.45 2.8.4 1.8 0 1.95-.55.25-1.3-1.5-.65-1.65-.75-3.1-.1-1.25.5-2.75.55-1.55 1.15-1.4.45.1.3 1.4l-.35 2.6m51.5-7.25q3.55-5.35 9.6-5.5 6.55-.15 12 5.25 5.85 5.8 6.45 14.4.75 11.2-2.55 24.2-2.35 9.2-1.05 15.6.4 2.05 2.1 6.45l2.45 6.1q.5 1.2.35 2.7l-.45 2.7-.2 2.65.05 1.2q.95 6.35-2.85 8.3-3.85 1.9-6.85-4.05l-1.25-2.5q-.65-.75-2.65-1.8l-3.15-1.65-.6-1-.35-2.1-1.35-6.05q-1.3-4.1-3.5-7.1-2.8-3.75-8.35-7.8-3.5-2.55-11.5-7.45l-7.75-4.85q-4.4-2.85-7.35-7.4-2.95-4.55-3.5-9.35-.6-5.4 2.25-8.4 2.75-2.8 6.5-2.8 7.1-.1 16.9 9.55l3.85 4.35q4.65 5.75 6.1 6.5 0-1.55-1.6-7.05l-2.8-9q-2.8-8.15 1.05-14.1"/><path fill="#a3611c" d="M126 91.3q1.95-4.55 7.05-5.4 4.85-.8 9.6 2.05 5.1 3.05 6.95 8.7 3.3 9.85-1.45 29.3-2.35 9.7-1.25 15.85.65 3.8 5.15 14.05.3.7 0 2.65l-.7 3.65q1.5 7.5-1.75 8.4-3.25.85-5.05-5.45-.35-1.1-2.55-2.1-2.75-1.25-3.6-2.1l-1.55-5.8q-1.5-6.05-4-9.75-3.1-4.7-9.4-9.05-7.55-4.65-11.25-7.1-6.25-4.15-8.7-6.1-4.4-3.5-6.1-6.7-4.45-8.45-.65-13.4 3.9-5.15 12.5.4 6.4 4.15 17.25 16.45 1.5 1.7 2.65 1 1.1-.6.85-2.75l-1.3-6.9-2.05-6.4q-2.9-8.35-.65-13.5"/></svg>