<svg xmlns="http://www.w3.org/2000/svg" width="280" height="326" viewBox="0.0 0.0 280.35 325.85"><path fill="#a3611c" d="M122.65 219.75q7.6-1.85 16.25 2.5 8.3 4.1 11.85 10.75 3.85 7.2-1.05 12.7-5.35 5.95-18.45 25.7l4.55.95q1.6.5 3.05 4.55l3.2.7q3.35.75 3.95 1.05.65.35 1.25 3.25l.5 4.05q0 .95-3.25 7.65l-3.85 8.05q-.8 2.1-.8 14.35 0 1.25-4.55 5.15-4.45 3.75-5.3 3.75-.6 0-2.05-1.1l-1.35-1.15q-4.25 1.95-6.5 1.95-1.45 0-4.05-5.4-2.4-4.95-2.4-6.25 0-.85 1.45-4.35 1.4-3.4 2.4-5.05.8-1.3 2.05-4.65l1.05-3.1-2.25-4.05q-5.5 3.75-7.3 3.75-4.15 0-8.1-5.85-4-5.85-4-12.1 0-3.25 5.05-22.4 4.5-17.2 6.55-23.35 3.35-9.95 12.1-12.05"/><path fill="#515457" d="M118.4 292.25l1.85-1.6 1.4.75q1.65.7 2.6.7 1.6 0 5.6-3.5 4.5-3.95 4.5-6.95 0-2.8-1.95-6.15l-2-2.8.65-1.3 2.15.35 2.6.6q4.1 2.5 4.1 11.75 0 6.45-4.45 11-3.7 3.8-7 3.8-3 0-6.8-3.3l-3.25-3.35"/><path fill="#a3611c" d="M44.95 133.3q2.8.2 6.8-1.25l3.4-1.55.1 2.05.05 3.65-1 7.5 8.1-.8 12.5-.4q9.05.9 16.75 3.4 5.5 1.75 8.4 8.05 2.65 5.7 2.25 12.7-.4 6.95-3.6 11.05-3.55 4.6-9.1 3.35l-7.75-1.8-20.05-6.35-18.55-5.9-4.65.5-5.5.35q-1.85-.4-4.9-3.95-2.85-3.4-2.85-4.55 0-1 .8-4.25.85-3.25 1.35-4.25 2.8-4.9 4.25-8.35l4.15-10.7 2.85.6 6.2.9M56.9 48.25q8.45 3.8 9.55 5.25 7.4 10.5 7.4 20.1l2.55 1.95q2.6 2.15 2.9 3.05.5 1.6-.15 7.5-.7 6.55-2.3 7.75-2.4 1.85-11.5 5l-1 5.05q-1.75 5.6-5.8 8.65-5 3.75-9.5 6.35-4.8 2.75-6.65 2.75l-7.35-1.7q-6.4-1.7-6.95-1.7-7.5 0-8.85-1.35-3.6-3.7-9.45-11.8-8.5-11.7-8.5-16.45 0-4.6 3.8-10.5 4.2-5.6 5.05-7.2l4.25-9.2q3.4-7.2 5.35-8.65 2.6-1.9 11.8-5.3 9.65-3.55 13.05-3.55 3.35 0 12.3 4M257.85 4.6q4.8 2.65 10.95 15.6 6.05 12.75 6.05 19.65 0 7.25-10.35 18.25-10.75 11.5-19.4 11.5-7.6 0-12.9-5.55-1.65-1.75-2.85-3.85l-.9-1.75-6.5.5q-3.7 0-11.5-8.95-7.55-8.65-7.55-11.75 0-3.55 7.65-17.95 8-15 11.9-17.15 4.25-2.3 17.4-1.75 13.15.55 18 3.2m-14 76.8l4.9.75 6.85.55q2.55-.25 11.4-5.7l1.65 4.1q1.9 4.5 3.1 6.45 7.2 11.95 7.4 13.35.05.55-4.4 8.7-4.85 8.9-5.55 10.7l-4.1 11q-3.6 9.35-6.7 15.3-3.45 6.65-12.45 16.2-8.05 8.55-13.25 12.05-5.15 3.5-9.9.45-4.15-2.65-6.8-9.45-2.55-6.5-2.5-13.3.1-7.25 3.2-11.05l15.15-16.85q4.7-5.3 14.05-18.55-1.95-3-2.3-4.45-.35-1.55.5-11.2.2-2.8 0-6.2l-.25-2.85"/><path fill="#515457" d="M45.35 121.25q5.4-.8 12.1-7.65l5.6-6.65 1.85 1q1.8 1.75 1.8 5.3 0 8.25-7.65 14.4-6.8 5.5-13.7 5.5-5.45 0-10.7-2.05-4.25-1.7-5.45-3.3-.75-.95-1.85-5.25l-.95-4.05 6.1 1.05 4.85 1.4 8 .3m200.05-51.9q7.9 0 17.15-8.45 4.65-4.25 7.7-8.5l.85 2.8q.9 3.25 1.1 5.2.3 2.35.15 6.15-.15 3.8-.6 5.35-.55 1.85-7.4 6.35-7.2 4.8-10.7 4.8-5.7 0-12.1-2.9-5.2-2.35-7.05-4.45-1.1-1.3-1.15-6.05l.2-4.5 3.3 2.1q4.2 2.1 8.55 2.1m-125.6 221.3l1.4.75 3.05.7q1.75 0 5.8-4.2 4.15-4.35 4.15-6.8 0-2.2-1.6-5.4l-1.65-2.75.5-.7.95-.25 2.25 3.2q2.25 3.65 2.25 5.75 0 5.15-5 10.15-4.3 4.2-6.4 4.2-1.15 0-4.25-1.5l-2.85-1.55 1.4-1.6"/><path fill="#804a0c" d="M144.05 225.55l5.35 5.25q2.85 2.75 3 6.85.15 4.25-2.7 8.05-3.9 5.15-18.75 27.25l1.7 2.65q1.7 3.2 1.7 6.05 0 2.95-4.35 6.7-3.15 2.7-5.2 3.6-1.15.45-4.55-1.3l-3.6 2.45q-3.9 2.4-5.6 2.4-1.65 0-4-1.5l-2.05-1.5q6.65 2.4 17.05-14.65L129 265.1l3.9-7.55q.9-1.35 4.3-13.35 3.55-12.6 6.85-18.65"/><path fill="#804a0c" d="M138.85 276.9l2.75.6 3.75 1q.9.35 1.7 3.2.7 2.5.7 4.25 0 1.15-3.2 7.6l-3.9 8.1q-.8 2.15-.8 14.35 0 1.65-4.55 5.35-4.35 3.55-5.3 3.55-.6 0-2.05-.95l-1.35-1-6 .65q-.95 0-1.85-4.9-.75-4.15-.75-6.55 0-1.45 1.8-8.7l1.75-7 2.05 1.45q2.55 1.45 4.75 1.45 4.95 0 8.6-5.45 3.2-4.75 3.2-9.1l-.65-4.6-.65-3.3M58.45 91.7q3.3-2.95 8-8.3 6.5-7.45 6.55-10.1v6.5l3.15 2.45q3.15 2.75 3.15 4.1 0 1.95-.8 4.9-.9 3.35-1.9 3.85l-11.15 4.35-1 3.25q-1.35 3.75-2.85 6.2-1.95 3.15-8.75 7.85-7.15 4.9-10.45 4.9-2.65 0-8.25-1.7l-6.05-1.7-4.9-.3q-3.75-.4-4.55-1.05-1.2-.95-11.9-16.25 14.8 12.4 16.5 12.85 1 .3 3.6-.05l3.45-.4q10.45 0 12.35-1.5 2.3-1.7 4.4-7.5 2.1-5.95.7-7.5 8.75-3.15 10.7-4.85m-13.1 41.45q1.8.3 6-1.15l3.8-1.5.35 7q.25 2.45-2.9 8.75.3-.9-8.4-6.6l-8.8-5.55.5-2.3 9.45 1.35m-20 26.2l3.8 1.6q4 1.55 5.05 1.55l5.55-.35 6.05-.15 25.8 5.6 29.05 6.3-.45 1.6q-.7 1.9-1.9 3.3-3.9 4.4-11.5 2.15l-26.05-8.4q-17.3-5.7-18.1-5.7l-5.95.65-5.2.35-6.15-8.5M271.9 48.2q-2.7 4.85-6.1 9.05-9.85 12.1-19.65 12.1-5.55 0-10-2.4-1.15-.65-4.3-3.15-.8-.6-2.15-3.05l-1.25-2.3q-7.3 1-9 0-1.35-.75-6.45-5.55-5.25-4.9-6.65-6.8-1.2-1.7-1.9-4.05l-.5-2L211.5 46q7.95 6 9.9 6.15 2.6.2 10-1.1 7.7-1.35 9.4-2.55 2.45-1.7 11.4-11.65l1 6.35q1.55 6.3 4.6 6.3 3.9 0 9.85-7.5 5.6-7.05 4.7-11.1l1.25 4q1.35 5.25.9 7.55-.3 1.7-2.6 5.75M254 90.8q-3.25.7-6.65-1.4l-2.75-2.3-.75-5.7 4.1.85 5.7.8q2.1 0 13.35-6.05l.9 2.5-5 5.2q-5.7 5.4-8.9 6.1m-22.1 72.55q12.35-10.9 15.7-17.1l10.95-20.3q7.25-13.25 8.95-15.6 1.65-2.3 6.45-6.1l4.45-3.35q0 1.15-4.3 9.9l-5.4 10.95-6.5 16.5q-6.65 15.35-12.9 22.3-6.45 7.25-10.9 10.7-1.8 1.4-5.7 3.6-7.85 4.4-12.5-1.9l11.7-9.6"/><path fill="#0d131a" d="M54.5 130.3q-.05-.4.7-.35.75 0 .8.4.4 4.25 0 8.35-.6 5.85-2.75 9-2.05 3.05-2.75 2.6-.75-.5.65-3.6 3.55-8 3.35-16.4"/><path fill="#0d131a" d="M53.75 142.7q8.15-2.15 17.5-1.7 9.9.45 18.3 3.7 2.4.95 2.3 1.3l-2.6-.25q-9.55-2.35-19-2.45-9.5-.1-17.15 2.1-.35.1 0-1.25t.65-1.45M35.1 131q.1-.4 1-.15.95.2.85.6-.6 2.55-3.45 9.9-2.8 7.35-4.05 9.55-1.15 2.1-1.95 4.7t-.7 4q.1 1.15 2.65 4.05 2.5 2.8 3.45 3l4.7-.7 5.75-.45 19.5 6.55q19.4 6.5 22.05 7.05 5.2 1.1 5 2.05l-5.4-.15-22.1-6.75L43 168.1l-5.45.35-4.9.6q-1.65-.15-5.1-3.7-3.5-3.6-3.65-5.35-.15-1.8.8-4.8.85-2.75 2.1-4.95 1.4-2.55 4.45-9.45 3.3-7.55 3.85-9.8"/><path fill="#0d131a" d="M62.55 108.1q-.3-.25.3-1.5.55-1.2.85-.95 1.7 1.6 3.15 4.5 1.5 2.95 1.5 4.75 0 7.45-7.85 13.5-7.35 5.7-15.1 5.7-6 0-11.05-1.75-4.35-1.5-6.7-3.7-.95-.9-1.6-4.1-.6-3.15-.35-5.6.05-.4.95-.5.9-.1.95.3.2 1.75 1.1 4.65.9 2.75 1.35 3.25 5.65 5.2 15.2 5.2 7 0 12.9-4.5 6.3-4.8 7-11.8.2-2.35-.6-4.4-.7-1.85-2-3.05"/><path fill="#0d131a" d="M14.7 64.15l-3.2 6.4-2.4 3.9q-2.95 4.6-4.1 7-1.95 4.1-1.95 7.4 0 4.15 7.65 15.35 6.75 9.9 9.1 11.7 1.05.8 3.9 1.25l4.1.35q.9 0 5.4 1.15 7 1.75 8.35 1.75 5.9 0 13.7-6.65 8.45-7.2 8.45-14.55 0-2.1-1.1-4.45-4.55 5.15-7.45 5.7-1.8.35-3.8-.45-1.95-.75-3.25-2.15-.95-1-.7-1.4.2-.4 1.4.3 3.8 2.2 6 1.85 2.55-.45 7.25-6.15l.05-.15.1-.05q2.45-2.95 4.95-6.7L70.6 80q1.45-2.75 1.45-7.25t-1.4-9.05q-1.55-4.95-4.35-8.55-1.7-2.2-6.7-4.5-5-2.25-12.5-4.2-4.7-1.2-15 2.3-8.95 3.1-11.6 5.3-1.65 1.35-5.8 10.1m33-20.25q5.8 1.55 11.4 4 7.1 3.2 9.45 6.2 2.95 3.85 4.75 8.9 1.85 5.15 1.85 9.8 0 4.7-2.2 8.8Q70.6 86 63.9 93.2q1.05 1.25 1.8 3t.75 3q0 8.25-9.4 16.3-8.6 7.3-15.05 7.3l-6.55-1.65q-5.9-1.65-7.65-1.75l-3.95-.3q-4.25-.6-5.9-1.8-2.6-1.9-9.7-12Q0 93.6 0 88.85q0-4.1 4-10.45l5.8-8.75 4.25-8.85q3.75-7.75 4.95-8.75 4.3-3.55 13.9-6.4 10-3 14.8-1.75"/><path fill="#0d131a" d="M72.75 75.25q-.4 0-.4-.95t.4-.95q2.2 0 4.8 1.6 3.15 1.95 3.3 4.85l-.05 6.5q-.5 6.6-2.85 8.8-2.05 1.9-6.55 3.35-3.85 1.2-6.55 1.35-.4.05-.5-.75-.15-.8.25-.8 2.1-.1 5.6-1.55 3.8-1.5 5.6-3.2 1.55-1.45 2.2-6 .6-3.75.4-7.5-.05-1.95-2.25-3.45-1.9-1.3-3.4-1.3M231.1 127.5q-6.7 7.8-11.05 11.7-3.1 2.85-3.5 2.75-.45-.05 1.7-3.45 1.1-1.75 3.05-4l8.25-9 15.85-20.1q.25-.35 1 .25t.5.95q-12.65 17.2-15.8 20.9"/><path fill="#0d131a" d="M243.1 88.05q.2-3.9-.1-6.65-.05-.35.65-.25.7.05.8.3.7 2.75.75 6.5l-.2 6.6-.15 4.65q0 2.3.45 3.25 1 2.05 2.55 3.55 1.2 1.15 3.5 2.55.9.5.65.8l-1.1-.05q-3.55-1.2-4.95-2.05-2.2-1.35-3.3-3.7-.55-1.15-.4-3.65l.35-5.2.5-6.65m23.35-10.9q-.05-.25.6-.75.6-.5.7-.1.5 2.6 2.8 6.9l5.8 10.05 2.75 4.5q1.25 2.2 1.25 3.15 0 .85-2.05 4.5-3.25 5.85-4.75 8.9l-3.5 7.35-.75 1.95-3.6 9.9q-3 7.9-6.3 14.15-9.9 18.85-23.85 26.55-2.7 1.5-3.15.9-.45-.6 2-2.45 12.55-9.35 22.65-27.05 5.4-9.55 10.45-22.7l.8-2 3.55-7.45 3.65-7.55q1.95-4.25 1.95-5 0-.7-1.2-2.8l-2.05-3.55q-6.15-11-7.75-17.4"/><path fill="#0d131a" d="M269.3 52.8q-.4-.25.35-1t1.25-.15q2.45 2.95 2.9 11.55.45 7.6-.4 9.3-1.45 2.85-8.5 7.05-7.4 4.35-11.7 4.35-6 0-11.9-2.1-7.05-2.5-8.65-6.55-.4-.95-.5-5.35-.15-4.2.05-5.75.1-.4 1 0 .9.35.8.75-.15 1.05.45 5 .6 3.8.95 4.7 1.1 2.8 7.65 5.1 5.8 2.05 10.15 2.05 3.95 0 10.5-4.3 5.65-3.7 6.55-5.35.75-1.85.5-10.1-.25-8.55-1.45-9.2"/><path fill="#0d131a" d="M247.8 44.45q3.1-4.75 3.8-6.75 1-2.65 1.3-2.5.3.15-.15 2.75-.4 2.4-3.5 7.55-2.85 4.65-5.3 7.5-1.45 1.75-5.6 3.6-4.3 1.95-8.7 2.8 2.35 3.95 7.2 6.6 4.5 2.4 8.55 2.4 8.5 0 18.2-10.5 9.45-10.25 9.45-18.35 0-6.15-4.35-16.85-4.95-12.25-11-16.55-5-3.55-19-3.65-12.75-.1-15.55 1.7-2.65 1.75-10.55 15.45-8.2 14.25-8.2 18.45 0 3.85 7 11.25 6.05 6.4 9.2 8 1.9.95 10.75-1.05 9.1-2.15 11.15-4.55 2.25-2.6 5.3-7.3M259.7 3.9q6.55 4.6 11.7 18.25 4.35 11.55 4.35 18.1 0 8.95-10.3 19.45Q255 70.35 245.4 70.35q-5.05 0-10.25-2.8-5.95-3.15-6.95-7.75l-5.5.15-3.8-.7q-3.4-1.65-9.7-8.35-7.55-7.95-7.55-12.7 0-5.85 8.25-20 7.85-13.5 11.75-16 3.4-2.2 17.4-2.2 15.2 0 20.65 3.9M108.5 235q1.45-3.85 2.1-3.75.65.15-.2 4.15l-5.5 20.9q-4.65 17.8-4.65 20.6 0 6.25 2.9 11.45 3.3 6 8.55 6 2.05 0 5.75-3.1 3.85-3.25 5.5-6.55.95-1.8 1.4-1.5.5.3-.2 2.2-1.45 4.15-5.55 7.75-3.95 3.55-6.9 3.55-6.25 0-10.25-6.85-3.5-5.95-3.5-13 0-5.95 4.55-22.4 3.55-12.85 6-19.45m39.7 13.5q-4.3 6-11.1 16.15-6.75 10.1-8.35 12.95-1.4 2.45-2 2.25-.65-.2.25-2.9 1.25-3.65 8.05-13.5 6.6-9.55 12-15.65 2.55-2.95 3-2.7.45.25-1.85 3.4"/><path fill="#0d131a" d="M120.55 291.9l-1-1.2q-.25-.3.1-.65l.7-.05.85.5 3.1.45q2.15 0 5.65-3.8 3.45-3.7 3.45-5.75 0-2.15-1.2-4.95-1.15-2.7-1.9-2.8-.35-.05 0-.6.4-.6.65-.45 1.6 1.05 3 4.05 1.35 2.85 1.35 4.75 0 2.85-3.95 7.1-4.05 4.4-7.05 4.4-2.4 0-3.75-1"/><path fill="#0d131a" d="M118 292.55q-.05-.3.55-.75l.6-.05q0 1.2 3 3.65 3.3 2.7 6.05 2.7 3.95 0 7.25-4.05 3.45-4.25 3.45-10.05 0-3.3-1-6.45-.85-2.6-1.85-3.75-1.3-1.45-4.95-1.45-.4 0 .15-.6.5-.6.85-.7 3.45-.65 5.4 1.5 1.35 1.5 2.45 4.5 1.2 3.45 1.2 6.95 0 6.75-4.25 11.55-3.95 4.45-8.7 4.45-3.1 0-6.3-2.45-3.1-2.35-3.9-5"/><path fill="#0d131a" d="M120.45 295.5q.1-.35.65-.25.5.15.4.5l-2.1 5.65-2.15 4.9q-2.5 4.4-2.5 6.65 0 2 1.8 5.95 2 4.4 3.7 4.4 3.3 0 6.2-1.5.85-.4 1.3.4.2.35.05.75l-.45.55-2.2.9q-2.5.85-4.9.85-3 0-5.45-5.45-1.95-4.4-1.95-6.85 0-3.5 2.7-7.6 1.55-2.3 2.95-5.15 1.35-2.7 1.95-4.7"/><path fill="#0d131a" d="M138.5 277.4q-.25-.1-.2-.9.1-.8.4-.6.7.45 3.6 1.05l3.25.7q1.7.75 2.65 3.5.9 2.6.5 4.7-.25 1.3-3.3 7.35-3.25 6.45-3.8 8.35-.55 2-.65 8.25-.1 6.05-.4 6.8-.9 2.45-4.85 5.85-3.95 3.4-5.7 3.4-1.4 0-3.45-2.2-3.2-3.75-3.05-5.65l1.7-8.15q.3-1.75.8-1.7.55.1.35 1.9l-.9 8.15q-.05.95 1.85 3.35 1.9 2.35 2.65 2.4 1.05-.05 4.3-3.05 3.45-3.15 4.2-5.2l.6-6.25q.4-5.9 1.15-8.4.95-3.05 3.9-9.1 2.65-5.35 2.7-6.25.15-1.85-.5-3.9-.65-2-1.5-2.4l-2.4-.75q-2.8-.65-3.9-1.25"/><path fill="#0d131a" d="M118.2 293q-.25-.25.25-.6l.85-.2q1.25.8 2.85 1.35l3.3.55q3.45-.2 7.2-4.8 3.65-4.55 3.65-8.1 0-1.9-1.9-5.15-1.85-3.2-3.1-3.65-.35-.1-.1-.7.25-.55.6-.45 1.75.65 3.7 4.1 1.85 3.4 1.85 5.85 0 4.2-3.8 9.15-3.95 5.2-8 5.4-3 .2-7.35-2.75"/><path fill="#f2d4b4" d="M101.6 67.2l3.65 4.4q4.4 5 8.35 7.85l8.4 6.1q4.15 2.85 7.25 4.2 2.95 1.25 6.45 3.1l4.45 2.35q.9.45.95 3.65.05 3.45-.95 7.4-2.8 10.75-10.4 14.4-9.2 4.4-19.8 3.5-11.05-1-11.5-7.3-.55-7.45-1.75-15.2-1.4-9.25-2.95-12.8L88.4 75.9l2.9 1.75q3.05 2 3.85 3.35-.6-2.75-.85-6.2-.5-6.9 1.25-10.4l1.65 2.9q2.05 3.15 4.15 4.5l.25-4.6m99.7.35q1.2.85 4.95-1.7l-.85 5.1 3.75-1.1-.85 3q-.85 3.55-.85 6.1 0 1.75 1.25 10.05 1.25 8.15 1.2 11.4-.05 2.9.25 6.45.3 3 .1 5.1-.3 3.1-8.15 4.75-8.6 1.8-18.4-.4-9.7-2.2-14.55-7.3-4.25-4.45-2.8-8.35 5.15-14 15.05-23.5 5-4.85 11.75-10 6-4.6 8.15-5.55l-.45 2.65q-.35 2.75.45 3.3"/><path fill="#f2d4b4" d="M164.35 87.8q0-1.4.95-3.1l.95-1.4.4 1.4 1.1 3 2.35 4.95 9.6-.2q10.3 0 13.7 1.3 3.4 1.3 10.4 8.5 3.55 3.65 6.35 7l.9-.5q1.25-.55 3.1-.95l8.7-1.2-5.3 7.3 1.95-.25 4.7-.15 8.5 1q-2.3.95-5 2.55-1.65.95-3.4 2.25l-1.45 1.1 4.1 1.5q4.55 1.7 6.6 2.75 3.25 1.7 9.55 7.05-4.35 2.55-7.85 4.85-2.2 1.45-5.65 4.75l-3 3 14.2-1.1-4 3.55q-1.1.8-3.95 3.75l-2.6 2.8q29.1-6.95 29.85-6.1.7.85-20.5 26.6l15.15 3.85-13.45 8 12.75 9.7-9.95.4-7.8.35-2.3.35 6.2 8.85q3.4 4.75 10.7 12.6-8.4 0-14.2.15l-8.8.7-4.45.6q.3 2.75 2.1 10l-7.3-4.2 1.95 8.1-5.2-1.65-3.9-1.15-2.55-.6-.1 3.35q0 3.95.6 6.65.95 4.4 4.5 13.9-6.15-1.9-10.65-3.85-2.85-1.2-9.05-2.85l-5.65-1.35-.35 10.65-12.45-12.45-1.15 3.6q-1.5 4.35-3.55 8.2-3.2 6.15-9.55 14.25-6.8-7.4-13-13.1l-13.2-12q-1.2 3.15-2.2 16.35-3.05-2.2-13.2-12.95l-9.6-10.3.85 11.25q-2.05-2.65-7.8-12.1l-5.4-8.9q-1.6 1.95-4.75 10.1-.35-1.7-2.85-5.65l-2.45-3.6q-1.35.1-9.65 2.9l-8.05 2.8 7.25-16.25q1.45-3.15 3.1-8.1l1.4-4.35-7.3.7 4.15-5.45-13.25.95q.45-1.8 3.55-10.45l3-8.3q-2.35.3-7.65 2.25l-4.8 1.95q.95-3.4 6.7-9.6l5.55-5.55-10.4-2.2-7.45-1.4q3.4-3.65 9.8-8.75l9.1-6.75 4.25-2.95-14.8-2.05q3.2-1.85 9.7-2.75l5.85-.55q-2.6-1.75-9.95-2.1l-6.8-.05q2.9-2.35 7.45-3.6 2.25-.65 3.95-.8l-7.15-5.1q3.9-2.85 13.7-6.65 4.9-1.9 9-3.25-3.45-1.35-6.7-3.9l-2.55-2.3q4.25.25 10.2-1.35-1.75-1.3-3.6-3.8l-1.5-2.25 2.05.5 3.9.7q2.4.25 8-2.3l11.9-10.8 19-8.6q0-3.85 1.35-8.3l1.35-3.7 1.75 3.9q.75 1.45 2.95 4.3 2.7-7.85 4.65-12.2 1.2-2.7 4-6.55l2.55-3.3q.1 2.2.85 5.05.9 3.35 1.75 3.25 1.3-.15 6-10.2l1.3 6.35q.5 2.4 3.3 9.5l4.05 10.2"/><path fill="#d18344" d="M117.7 89.5q4.5 4.2 12.1 12.3l-4.15.6q-4.85.2-8.4-1.6l.65 1.9.9 3.55-3.6-1.7-.5 2.5q-.6 2.85-1.2 4.3l-3.15-3.55q-1.9 4.7-3.5 6.1-4.5-15.35-5.5-21.5-.75-4.95-.95-9.4-.2-4.85.45-5.3.7-.45 7.1 4.1 6.1 4.35 9.75 7.7m75.95 8.5q-3.15 2.8-4 3.85l-2.55 3.8q-1.2-3.55-1-6.35l.5-4.2-9.2 4.95 3.3-5.95q3.8-6.5 6.15-9.55l6.8-8.5q4.05-4.8 4.45-4.75.55.1 1.75 7.2 1.3 7.45 1.9 14.65.85 10.05.25 17.45-3.4-1.95-4-3.25l-.65-2.35-.2-1.3-1.7 2.65q-1.7-3.15-1.55-5.1l-.1-2.35-.15-.9m-22.6 79.35q-6.3 4-16.7 6.15-9.05 1.85-17.1-.6-9.3-2.9-10.9-10.35-1.5-7.1 7.8-13 6.95-4.4 15.1-6 9.35-1.85 17.5.45 9.8 2.75 11.35 10.45 1.55 7.5-7.05 12.9"/><path fill="#fff" d="M113.75 131.35l32.7 19.5q1.1.6 1.1 1.6-.05 1.05-1.55 1.55l-5.7 1.7-8.15-1.3-8.85-.65q-2-3.25-4.25-7.65-4.4-8.85-5.3-14.75m52 14.05q2.9-2.55 11.9-9.6 5.55-4.35 13.45-10.05.25 3.65-2.2 15.55-3.9.95-9.55 3.8-3.6 1.85-6.95 3.95-1.6.95-4.3 3l-2.35 1.85q-4.85-1.45-5.95-1.6-.8-.05-.75-1.15.05-1.05.65-1.4l6.05-4.35"/><path fill="#ab6b35" d="M173.8 170.9q3.45-3.4 4.3-6.45.5 5.2-3.15 9.7-5.7 7-20 9.2-14.25 2.2-22.2-2.55-5.2-3.15-6.15-7.65l1.4 1.5q1.9 1.7 4.6 3 8.6 4.1 21.65 2.05 12.7-1.95 19.55-8.8"/><path fill="#d1b89d" d="M238.95 159.7q11.7-3.15 19.25-11.85-5.2 11-8.1 13.9l-6.35 7.15-4.15 4.9 15.15 3.85-13.45 8 12.1 9.6-19.4 1.2 8.5 11.9 7.75 9.2-26.8 1.8 1.35 9.35-6.55-3.55 1.95 8.1-11.65-3.4q-1.2 2.95 1.75 13.75 1.5 5.35 3.25 10.15-1.55-1-13.6-4.6l-11.75-3.45-.35 10.65-12.45-12.45-4.45 11.25q-.95 2.65-9.8 14.8-1.6-2.3-14.05-13.9l-12.15-11.2q-1.35 3.5-2.2 16.35-2.65-2.3-13-13l-9.8-10.25.15 10.9q-1.2-1.7-12.5-20.65-.55.65-2.7 5.45l-2.05 4.65q0-1.1-2.1-5-2.2-3.95-3.2-4.25-.9-.2-9 2.3l-7.9 2.55 14.5-12.05q15.05-12.25 17.65-13.05l1.8 8.6q3.55-6.15 4.85-7.75l4.55 6.25q5.3 6.95 9.35 10.55 0-9.05.95-11.3l7.45 7.95q8.9 8.5 16.15 11.1-1.05-3.65-1.95-7.7-1.85-8.2-1.25-10.4l4.7 4.35q5.4 4.6 8.85 6l1.7-4.75q2.1-4.9 4.15-5.95l4.35 6.5q5.35 6.9 10.2 8.7-.9-4.05-1.3-8.85-.8-9.6 1.6-13.45l4.55 2.7q5.25 2.85 8.7 3.45-.7-3.3-1.15-7.25-.9-7.8.55-10.85l11.45 3.15q12.35 3.25 17 3.65-1.95-.95-4.2-2.6-4.55-3.25-6.15-6.45l4.45-.7q5-1.05 7.8-2.85-5.5-4.55-8.4-8.45l2.75-.95q2.95-1.15 3.75-1.95l-2.75-.7q-2.95-1-3.75-2.2l5.5-2.85 13.05-7.35q1.1-.65-1-3.05l-2.35-2.25 2.9-.1 7.3-1.35"/><path fill="#0d131a" d="M163.95 85.55q.7-2.25 1.8-3.2 1.2-1.05 1.4.75.25 2 1.2 4.6 1.05 2.75 2.3 4.5.25.35-.3.7l-.75.05q-.85-1.2-1.95-3.6-1.05-2.4-1.75-4.6-.7 1.55-.85 3.4-.25 2.85-.55 2.9-.35.1-1.3-2.7-3.4-10.15-4.5-12.3l-1.7-4.6q-1.1-3.55-1.75-6.5-2.3 5.8-5.2 7.75l-.6.15q-.45-.05-.7-.45-1.75-2.75-2.3-6.8-7.7 11.5-9.55 20.55-.3 1.45-.6 1.5-.3 0-1.15-1.15-2.3-3.4-3.75-7.2-2.1 6.6-2.25 14.35v.05q0 1.9-.6 1.95-.55 0-.75-1.85-.6-6.25.35-11.35.8-4.1 2.4-6.55.8-1.3 1.15-1.3.35.05.65 1.4.75 3.3 3.2 7.5 1.8-6.7 6.45-14.45 2.3-3.9 4.5-6.8 1.3-1.7 1.55-1.45.2.2.2 2.55 0 2.15.55 4.5.45 1.9 1 3.1 1.9-1.85 3.6-6.3l1.35-4.15q.55-2.1 1.1-1.9.5.25.75 2.55.25 2.05 1.6 7.1 1.4 5.25 2.2 6.9.8 1.5 3.55 10.4"/><path fill="#0d131a" d="M101.9 63.65q.35.05.9 1.9 1.3 4.75 11.1 13 8.5 7.15 14.2 10l.15.85q-.05.75-.4.6-7-3.2-15.65-10.3-8.2-6.7-10.05-10.3-.1.25-.05 1l.2 1.05q.4 1.6.15 1.8-.3.2-1.65-.75-3.5-2.5-5.3-5.95-.6 3.5-.6 6.55 0 4.2 1.05 7.35Q97.3 84.5 97 84.7q-.35.25-2.75-3.4-1.8-2.75-4.15-3.95 2.85 3.95 5 11.25 3 10.35 4.15 25.9v.05q0 2.9-.65 2.95-.65.05-1.05-2.85Q95 94.4 90.7 83.5q-1.4-3.4-2.75-5.5l-1.15-1.4q-1-.65-.95-1.15.05-.5 1.35-.65 3.1-.35 6.75 4.05-.85-5.8-.7-9.45.1-3.3 1.2-6.7.75-2.3 1.05-2.3.3.05.85 2.5.45 2 1.7 4.25 1.2 2 2.4 3.2-.05-3.05.5-4.9.5-1.9.95-1.8"/><path fill="#0d131a" d="M201.25 60.05q1-.6 1.2-.45l-.25 1.25q-1.05 2.5-.6 5.2l.2.5 1.55-.25 2.35-1.35q1.35-1.05 1.7-.7.25.35-.3 1.95l-.7 3.6q2.35-1.25 2.8-1.25 1.7-.55 1.85-.35l-.75 1.8q-.9 1.7-1.45 4.4-.55 2.65-.55 5.15l1.5 9.95q1.45 10.7 1.4 18.35 4.65-1.8 12.55-2.35l1.45.2q.1.35-1.15 1.45l-2.35 2.25q-1.95 2-3.1 3.55 3.05-.35 8.2-.1l5.95.45q2.15.4 2.15.7 0 .25-2.05 1.15-4.35 1.95-8.8 4.9 5.75 1.6 13.7 6.25 5.8 3.35 7.2 4.6.7.65.6.95l-.9.65q-2.6 1.1-7.9 4.6-5.2 3.45-8 5.9l12.7-1.1 2.5.05-1.9 1.7q-2.65 2-9.55 8.35 7.5-1.3 26.5-5.95l2.4-.05q.25.45-1.1 2.7-2.85 4.7-7.7 11.1-6.25 8.25-11.45 13.35 3.35.55 14 3.45 1.65.5 1.7.75l-1.55 1.05-12.65 7.3q4.15 3.25 12.3 9 1.6 1.15 1.5 1.5l-2.15.25-7.8.2-11.1.45q1.5 3.1 7.45 10.3 4.05 5 8.6 10l.95 1.4-1.9.15q-4 0-11.45.3l-14.7.85q.15 1.8 1.85 8.85.4 1.65.15 1.8-.25.15-1.75-.85l-5.3-3.25 1.8 6.4q.4 1.25.2 1.4l-1.65-.35q-5.9-1.95-10.6-3.05l-.1 1.6q0 4.55 3.1 13.65 1.55 4.55 3.15 8.3l.55 1.85q-.15.15-1.9-.65-5.5-2.35-13.8-5.35-8.45-3-11.3-3.6l-.1 1.75q0 3.5.5 9.35.35 2.1 0 2.25-.35.1-1.7-1.45l-6.65-7.95-4.95-5.3q-2.15 7.8-8.1 17.65-3 5-5.9 8.75l-.85.6-.7-.7q-2.85-4.1-12.5-13.7-8.1-8.2-12.5-11.95-.55 2.3-.9 8.15l-.4 7.7q-.05 1.25-.3 1.35-.2.1-1.2-.6-3.7-2.55-11.15-10.65l-10.2-11.45 1.1 9.3q.3 2.55.05 2.6-.2.05-1.75-1.9-3.6-4.55-13.1-20.95-1.65 3.3-3.65 9.75-.65 2-.9 1.95-.25-.05-1-2.25-.7-2.1-2.15-4.85L87.1 230q-4.15.7-11.5 3.6l-6.6 2.75q-1.9.9-2.1.7-.25-.2 1-2.2 3.3-5.25 7.5-15.05 3.6-8.6 4.8-12.85l-4.3.65-2.2.45-2.1.25q-.15-.2 1.05-1.7 2.4-3 3.95-4.45l-7.75 1.2-5.1 1.05-1.05-.15q-.15-.2 0-.95.65-2.55 3.7-9.45l4.05-9.2q-2.95.75-7.15 2.55-3.5 1.45-3.7 1.65l-2.15.9q-.15-.1.8-2.1 2.35-5 5.05-8.4 2.8-3.5 6.65-6.3-1.8-.6-8.85-1.55l-8.85-1-1.5-.4q-.1-.3.85-1.2 4.25-4.05 12.25-10.15 6.6-5 11.15-8l-9-.85-4.8-.3-2.7-.45q-.15-.3 2.2-1.3 3.45-1.5 7.05-2.4 3.85-.95 6.8-.9-4-1.15-9.7-.85l-5 .5-3.35.4q-.2-.25 2.5-2.05 2.4-1.6 5.8-2.9 2.95-1.15 5.45-1.65l-5.9-3.65-.85-.65q-.05-.25.55-.75 2.35-1.95 8.7-4.65 6.4-2.75 13.15-4.7-3.45-1.55-6.1-3.45-2.2-1.55-3.1-2.7-.65-.9-.5-1.1l1.65-.2 9.55-.35q-3.95-3.05-5.6-5.5-1.1-1.55-.9-1.8.25-.3 2.05.4 4.55 1.8 8.55 1.2 3.2-.5 5.55-2.35.3-.2.45.85.2 1.1 0 1.2-2.25 1.4-5.7 1.85-3.45.45-6.65-.15 1.5 1.7 4.4 3.6l1.05 1.1q-.05.35-1.3.7-4.8 1.2-9.4 1.35 2.25 1.9 8.05 4.4l1.55 1q0 .3-1.6.8-5.4 1.8-10.9 4.1-7.6 3.15-10 5.25 3.6 2.05 6.25 4.1l1.1 1.15q-.05.3-1.65.5-4.5.6-8.45 2.2 7.95-.5 15.9 3.35 3.1 1.5 2.95 1.9l-3.7-.2-4.95-.3q-5.65 0-9.55 1.35l12.9 1.45q1.4.25 1.5.6.1.35-1.2 1.15l-8.55 5.8q-9.35 6.65-14 11.55l8.1 1.4q5.35 1.15 8.55 2.15 1.05.3 1.1.55l-.9 1.05-4.5 4.05q-4.8 4.8-6.85 8.55 6.1-2.7 10.8-3.65 1.1-.2 1.3 0l-.25 1.35-2.65 6.6q-2.7 7.15-3.4 10.4l12.4-.65 2.15.15-1.5 1.55-1.35 1.2q-1.55 1.35-2.65 2.65l5.55-.7.9.2q.25.2.05 1l-3.15 10.35q-3.75 10.8-7.6 16.6 10.75-4.4 15.75-5.1.55-.1.9.35 3.45 4.75 4.65 7.5 1.4-4 3.75-8.7l.8-1 .8 1.1 4.05 7.05q4.6 7.8 7.55 12.2l-1-8.7q-.25-2.25 0-2.35.2-.05 1.65 1.6l7.85 8.7q8.7 9.35 13.4 13.15.8-11.7 2.15-14.8.35-.85.55-.9l.95.55 10.85 9.55q10.95 10 14.75 14.85 3.7-4.55 6.75-9.5 5.05-8.3 6.6-15.1.2-1.05.5-1.15.2-.1 1.05.6l3.55 3.15q4.15 3.85 7.55 7.65-.5-5.8-.05-8.3.1-.65.3-.8l.85.05 8.95 2.05q9.5 2.4 14.7 4.7-4.75-12.3-4.75-18.9 0-1.75.35-2.95.25-.8 1.1-.65l4.4 1 5.8 1.6q-1.15-3.65-1.65-6.75-.2-1.4 0-1.45.15-.1 1.45.6l5.25 3.05q-1.4-6.05-1.4-7.55 0-.75.15-.95.2-.2.75-.25l10-.9 15.1-.6q-2.95-3.3-8.3-10.45-4.95-6.7-6.95-9.9-.5-.75-.4-.9.1-.25 1.25-.3l6.75-.35 10.65-.4-6.55-4.85-4.5-3.5-.5-.65q0-.25.75-.8l11.8-6.85q-6.05-1.7-13-3l-1.25-.45q-.15-.25.5-1.1l7.4-9.75 11.05-15.05-15.35 3.35-12.15 2.4-2.05.05q-.05-.25 1.5-1.7l9.5-8.55-12.6 1.2q-2.05.35-2.15 0-.15-.25 1.4-1.65l6-5.15q6.4-5.25 9.9-7.2-3.7-3.05-7.55-5.4-6.15-3.75-11.05-4.6-1.55-.25-1.6-.55-.05-.3 1.25-1.2 4.35-3 7.45-4.75-8.2-1.1-12-.05l-1.7.05q-.25-.3.65-1.55 1.8-2.7 4.3-5.4-8.3 1.1-11.05 2.65-1 .55-1.25.4-.2-.15-.2-1.2 0-15.05-.45-18.55l-.5-3.6q-.95-6.1-.95-7.95l.4-3.6q.45-2.7 1-4.7-3 1.5-3.35 1.1-.45-.4.35-4.6-6.5 3.2-4.85-4.5-8.65 5.85-15.6 12.6-11.7 11.3-16.8 23.3-.9 2.15-1.5 1.9t.25-2.4q6.2-15.9 21.1-28.75 7.45-6.45 13.85-9.85"/><path fill="#0d131a" d="M121.6 101.1l9.3-.35q2.5-.95 2.7-.45.25.5-2.25 1.5-3.75 1.45-6.65 1.5-2.8.1-6.1-1.1.7 1.95 1.1 4.8l-.1.65-.55-.25q-.9-.65-3.35-1.7-.4 3.65-1.75 6.45-.5.95-1.05.2l-2.1-2.8q-.7 1.95-2.15 3.95-1.55 2.05-2.95 2.85-3.35 1.95-.6-1 1.35-1.5 2.45-3.7 1-2 1.35-3.7l.6-2.1q.3-.25 1.4 1.05l2.2 2.95q.75-2.6.75-5.05 0-1.35.25-1.65l1.05.2 2.95 1.95q-1.15-2.95-2.2-4.45-.85-1.3-.55-1.7.35-.5 1.85.35l4.4 1.6"/><path fill="#0d131a" d="M100.45 76.8q2.6-1.15 14.15 8.5 11 9.2 16.15 16.05.2.3-.85.5l-1.25-.05q-4.95-6.25-15.05-14.55-9.4-7.75-12.15-8.55-.8 3.25 1.65 16 2.1 11.2 4.3 18.4l-.65 1.15q-.75.9-.85.55-4.65-14.2-6.1-26.15-1.35-10.9.65-11.85m85.85 17.3l1.25-.25-.05 1.3q-.45 2.6-.45 5.7l.2 2.9q3.4-4.7 5.45-6.35 1.5-1.25 1.75-1.15.2.05.2 1.9 0 4.3.75 6.8.8-2.1 1.65-2.7.55-.4.7-.3l.15.7q0 3.4 1.5 5.15 1.05 1.25 4.95 3.45 1.05.6.8.85l-1.35-.2q-3.55-1.25-5.25-2.85-1.4-1.35-1.9-3.35l-.25.75q-.35 1.15-.65 1.2-.3.05-1.05-.9-1.6-2-1.95-6.95-2.35 2.7-5.05 6.75l-.95 1-.75-1.15q-.9-2-.9-5.55 0-2.05.3-4.25l-10.8 6.15q-1.5.95-1.75.55-.2-.45 1.25-1.45 9.65-6.95 12.2-7.75"/><path fill="#0d131a" d="M188.95 79.45q7.75-9.95 9.65-9.25 1.55.6 3.6 16.25 2.1 16.4.85 23.85-.1.5-1.9-.5.25-6.85-.95-21-1.25-13.85-2.2-16.35-2.35 1.8-8.65 10.45-6.7 9.2-11.05 17-.2.4-1.65 1l-1.25.2q5.25-11 13.55-21.65m-18.8 27.75q-.25-1.25.1-1.4.35-.15.75 1.05.8 2.15 3.35 2.65 2.7.55 4.65-1.25.95-.85 1.25-.45.3.35-.55 1.3-2.7 2.9-5.75 2.25-3-.65-3.8-4.15m11.35 2.8q1.9-.9 2-.75l-1.35 1.5q-1.25 1.05-.65 3.1.55 2.2 2.75 3.5 1.35.8 1.15 1.15l-1.7-.15q-3.5-1.1-4.15-4.1-.6-2.95 1.95-4.25m-8 14.5q1.2-4.15 4.45-5.1 3.3-.95 6.95 2 .9.7.75 1.05-.15.3-1.15-.25-3-1.75-5.95-.9-2.85.8-4.05 3.6-.6 1.35-1 1.15-.4-.15 0-1.55m-7.05-12.5l-1.2-.95 1.4.05q3.75.85 4.9 4.3 1.1 3.3-.95 5.95-1 1.3-1.25 1.05-.3-.2.2-1.8.75-2.25-.05-4.7-.8-2.75-3.05-3.9m-7 13.15q1.65-2.25 2-2.15.35.15-1.05 2.5-3.25 5.65-5.1 11.15-.35 1.15-1 .85-.65-.3-.45-1.3.45-2.45 1.65-4.85 1.3-2.6 3.95-6.2m-4.1 13.5q.4-1.8.75-1.85.4-.05.4 1.75 0 2.5.4 6.35.15 1.45-.7 1.55-.8.1-1-1.4l-.1-3.15q.05-2.1.25-3.25m39.85-16.45q2.3-1.3 2.55-.95.25.4-1.95 1.85-11.85 7.9-29.3 23.4l-3.55 2.65q-1.3.7-2.9 1.1l-1.65-.05q-.15-.45 1.3-1.1l13.35-10.8q13.85-11.35 22.15-16.1"/><path fill="#0d131a" d="M190.1 126.5q0-.3 1-.8.95-.55.95-.15 0 2.15-.55 5.45-.55 3.45-1.4 5.95-.35 1.1-.7 1-.35-.1-.15-1.25.85-5.3.85-10.2m-78.95 4.05q-1.65-1.25-1.35-1.7.25-.5 2 .55l16.55 9.35q15.25 8.7 17.75 10.7 1.5 1.2 1.25 1.75l-2.1-.05q-3-1.05-18-10.3-13.7-8.5-16.1-10.3"/><path fill="#0d131a" d="M138.6 147.95q.3 1.35.05 2.4-.3 1.05-1 1.25-.65.15-1.35-.7-.7-.85-1-2.2-.3-1.35-.05-2.4.3-1.05 1-1.2.65-.15 1.35.7.7.85 1 2.15"/><path fill="#fff" d="M137.5 147.75q.35 1.75-.25 1.85-.6.15-1.05-1.6l-.1-1.25q.1-.55.35-.6.6-.15 1.05 1.6"/><path fill="#0d131a" d="M172.25 145.75q-.2 1.35-.8 2.25-.6.95-1.3.85-.7-.1-1.05-1.15-.4-1-.25-2.35.15-1.35.75-2.25.6-.9 1.3-.85.7.1 1.1 1.1.4 1 .25 2.4"/><path fill="#fff" d="M171.25 145.15l-.35 1.2-.5.45q-.25 0-.4-.55-.1-.55-.05-1.25.1-.75.35-1.25.25-.5.5-.45.65.1.45 1.85"/><path fill="#0d131a" d="M172.2 175.1q5.6-4.95 4.5-11.05-.85-4.65-7.9-7.95-7.85-3.6-17.5-2.1-7.4 1.15-13.15 4t-8.5 6.75q-2.8 3.9-1.95 8.15 1.15 5.95 8.65 8.45 7.5 2.45 19 .65 10.95-1.7 16.85-6.9m-2.2-20.8q7.95 3.55 8.95 9.1 1.35 7.55-4.15 13.05-6.05 6.05-19.1 8.1-13.8 2.15-21.95-1.75-6.75-3.3-7.95-9.55-1.4-7.5 4.85-13.05 6.65-5.95 20.35-8.1 10.45-1.65 19 2.2"/><path fill="#0d131a" d="M143.05 163.55q1-.25 1.75 5.2.75 5.5.05 5.65-1 .2-2-5.15-1-5.4.2-5.7m17.6-2.35q1.35-.2 1.6 5.3.2 5.55-.8 5.65-.65.1-1.2-5.35-.5-5.45.4-5.6m29-20.65l3.4-.1q.05.5-3.3 1.2-5.3 1.1-11.15 4.4-5.15 2.9-12.05 8.3-.2.15-1.1-.35-.9-.5-.65-.75 6.35-5.2 13.1-8.55 6.35-3.2 11.75-4.15m-74.1-.7q-.35-1.5.05-1.65.4-.15 1.05 1.25 4.35 9.95 7 13.25 12.15.8 16.05 1.8 2.1.55 2.05 1l-2.2.2-10.75-.7-6.15-.45q-2.05-2.35-4.05-6.35-2.2-4.4-3.05-8.35"/><path fill="#a3611c" d="M180.6 182.65q.6-.4 7.05-.05 6.5.35 7.3.85l5.2 3.55 3.6-2.15q4.2-2.2 6.9-2.2 2.9 0 13.3 8.3 9.6 7.65 11.1 9.95.9 1.4.95 4.5l-.1 5.5q0 2.5-.85 7.45l-1.45 6.95q-.4 1.45-10.7 18.2-10.6 17.2-11.6 19.65-1.2 2.95-.65 9l.8 8.3q0 3.55-5.15 10.2-5.65 7.25-10.35 7.25-4.5 0-9.1-4.15-3.8-3.45-4-5.2-1.25-12.35-1.8-14.9l-2.95-12.9-3.35-13.95-4-13.75q-3.25-11.2-3.25-11.95 0-.8 2.55-6.95l2.95-6.95 2-8.95 1.85-9.15q.3-1.35 1.5-3.5 1.3-2.4 2.25-2.95"/><path fill="#804a0c" d="M202.9 208.65l.3-2.25 5.85-3.25q1.25-.75 8.95 1.4 7.8 2.15 9.45 3.8 1.65 1.6 2.2 11.9.5 10.05-.55 12.65-1 2.45-5.75 9.85-4.75 7.45-8.8 12.8-4.45 5.9-4.45 12.6 0 3.35.9 5.5Q202.55 284 200.95 284q-1 0-4.8-3l-5.55-4.45q-1.55-1.15-1.55-8.85l-.05-10.55q-.3-1.95-7.05-17.05-6.55-14.65-6.55-16.55 0-2.4 3.25-9.8 2.95-6.8 4.2-8.3.6-.75 10.15 1.95 9.35 2.65 9.9 1.25"/><path fill="#0d131a" d="M179.25 186.35q-.95 2.2-1.25 4.2l-1.65 8.6-2.05 9.45-2.7 6.15q-2.45 5.5-2.6 6.35-.3 1.95 3.4 13.75l1.9 6.2q1.5 5.15 4.7 19.3 3.2 14.05 3.6 17l.3 2.75q.95 7.8 1.55 9.35.75 1.85 4.35 4.15 3.95 2.55 7.15 2.55 3.6 0 7.8-4.1 4.65-4.65 5.8-10.9.3-1.85-.05-6.1-.35-4.4-.2-6.9.3-4.3 2-8.05 2.05-4.5 10.8-18.3l6.5-10.5q3.15-5.35 3.8-7.25 1.4-4.25 1.95-11.6.55-7.4-.3-10.15-.8-2.75-10.45-10.55-9.8-7.9-12.85-7.9-3.4 0-9.4 3 2.65 2.55 4.3 4.9 1.6 2.35 1.6 3.65 0 1.9-2.45 9.95l-3.05 9.55q-.7 2.25-1.1 2-.4-.25.05-2.35l2.2-10.2q1.45-7.3 1.45-8.95 0-1.75-3.95-6.15-3.9-4.35-5.6-4.5l-6.9-.4-7-.25q-.7 0-1.65 2.25m-2.45-.95q1.95-4 4.1-4l7.05.25 6.95.4q.75.05 2.5 1.35 1.55 1.05 3 2.4 1.75-1.6 4.75-2.9 3.3-1.4 6.05-1.4 3.7 0 14.2 8.5 10.35 8.3 11.4 11.7.95 3.05.45 11.2-.5 8.2-2 12.65-.6 1.85-4.25 7.4l-7.15 10.85-6.35 9.6q-3.35 5.1-4.45 7.5-1.5 3.3-1.4 7.75.05 2.55.6 6.95.4 4.65 0 6.65-1.2 6.65-6.6 11.8-5.1 4.85-9.7 4.85-5.1 0-9.2-2.75-3.5-2.3-4.7-5.35-.45-1.2-.65-4.65l-.4-5.85-.3-2.7q-.4-2.95-3.55-16.85-3.2-14.05-4.7-19.15l-3.25-9.4q-3.2-9.7-3-11.1.2-1 2.75-7.2l2.75-6.7 1.95-9.3 1.6-8.5q.55-2 1.55-4"/></svg>