<svg xmlns="http://www.w3.org/2000/svg" width="204" height="216" viewBox="-0.8 0.1 203.8 216.25"><path fill="#0d131a" d="M202.5 132.6q.5 2.2.05 2.6-.4.35-1.95-.55l-6.45-2.85-6.9-2.75 2.1 3.4q1.35 2.25 1.2 2.9-.15.65-2.25-.45l-3.35-1.75L191.8 145q4.75 9.4 5.6 16.5.35 2.7 0 3.2-.25.45-1.2-.75-1.8-2.25-6.75-6.05l.85 3.4.9 3.75q.35 2.05-.05 2.35-.4.25-1.9-.95l-3.55-2.85-4.55-3.25q.05.65.65 2.5l.75 2.9q.2 1.25-.65.7l-1.8-1.65q-2.95-3.05-5.5-5.05-.75 5.35-3.95 10.95-3.3 5.65-7.9 9.5-11.2 9.3-21.2 2.55-9.2-6.25-16.75-25.95-3.65-9.45-9.75-32.1-2.75-10.4-3.75-12.6-2.8-6.05-2.3-13.75.5-8.05 4.45-13.7 4.3-6.15 11.5-9.15 7.25-3.05 15.65-2.1 17.6 2 33.7 13.15 13.85 9.55 21.75 22 1.55 2.45 1.9 4.1.45 2-1.65.7-5.3-3.3-7.75-4.3 5.35 5.9 7.55 9.1 4.75 6.85 6.4 14.45"/><path fill="#fff3c2" d="M192.7 106.15q3.55 4.75 2.15 4.3l-3.6-1.85q-3.4-1.75-5.55-2.45-2.85-.95-3.45-.35-.6.55 2.6 1.6 5.25 5.2 8.1 8.95 6.1 8.1 7.9 16.45l-7-3q-4.85-2.05-7.9-2.8l-1.9-.15q-.2.25.55 1.35l2.75 4.25q-3.5-1.35-5.5-2.3-1.8-.9-1.4-.1.35.85 2.1 2 1.85 2.35 5.75 10.05 5.2 10.45 6.75 18.25l-3.2-2.75-2.8-2.45q-1-2.7-1.7-2.85-.7-.1-.2 1.95l1.25 5.4.75 4.25q0 .45-3.9-2.7-4.55-3.55-6.05-3.95-.25-.05.4 2.65.6 2.55.2 2.05l-2.45-2.65-2.15-1.9q2.6-14.65.75-27.05-1.85-12.15-7.4-18.95-1.35-1.7-1.9-1.65-.55.05.95 2.3 4.05 6 5.9 16.45 1.9 10.55.8 21.3-1.2 11.7-5.75 19.95-5.1 9.3-13.65 12.4-3.85 1.4-7.25 1.15-3.15-.2-5.2-1.75-8.7-6.5-16.2-25.7-4.2-10.8-9.75-31.55-2.3-8.7-4.2-12.85-2.35-5.05-2-11.7.35-7 3.75-12.7 8.45-14.35 29-11.25 21.35 3.25 39.65 19.6 6.05 5.45 10 10.75"/><path fill="#dbd2a9" d="M171.2 119.6q5.9 16.75 2.3 35.75-4.05 21.5-18.6 26.8-3.85 1.4-7.25 1.15-3.15-.2-5.2-1.75-7.05-5.3-13.3-18.85 20.3-3.75 32.45-16.95 11.5-12.5 9.6-26.15"/><path fill="#0d131a" d="M33.1 204.95l-6.45-.45-1.15-.4q-.1-.2.3-.95 1.05-1.85 2.6-3.7 1.9-2.3 3.75-3.6l.95 9.1"/><path fill="#fff" d="M31.35 198.4l.7 4.75-4.45-.35q.35-.75 1.4-2l2.35-2.4"/><path fill="#0d131a" d="M32.3 194q1.1-4.6-.55-10.65-1.5-5.45-2.6-12-1.3-7.35-.85-9.45v-1.15q.6-2.95 3.05-4.65 2.1-1.55 5.4-1.95 5.25-.7 11.45 2.8 6.2 3.5 8.75 8.55 3.3 6.6 3.3 23.25l-.25 8.1q-.5 8.1-1.7 8.8-3 1.7-11.6 1.75-8.1.05-10.95-1.15-7.45-2.95-5.35-7.8l1.9-4.45"/><path fill="#db4f03" d="M36.95 155.65q4.85-.65 10.55 2.6 5.75 3.25 8.1 7.95 3.15 6.35 3.15 21.95 0 5.8-.45 10.8-.4 4.65-.9 5.4-2.7 1.5-10.6 1.65l-10.05-.75q-2.7-.95-4.15-2.4-1.75-1.8-1-3.9l1.55-2.7q1.25-2.55 1.25-5.45 0-3.35-1.2-7.85-1.55-5.6-2.3-10.7-.8-5.5-.4-8.7l.1-1.8q1.15-5.4 6.35-6.1"/><path fill="#b94100" d="M30.8 171.25q-.65-4.9-.3-7.7l.1-1.8q1.15-5.4 6.35-6.1 4.85-.65 10.55 2.6 5.75 3.25 8.1 7.95 3.15 6.35 3.15 21.95 0 5.8-.45 11.1-5.1-8.4-12.3-15.55-6.15-6.05-15.2-12.45"/><path fill="#0d131a" d="M32.1 183.25l-1-5.2-.45-2.3.75.45 3.85 2.6 3.35 2.2q.95.4 17.45-7.5l.5-.2.45 5.15Q43.7 192.3 42.05 193.4l-1.15.55-1.05-.55-2.55-1.95q-2.4-2-4.25-4.25l-.1-.05V187l-.85-3.75"/><path fill="#0d131a" d="M38.55 182.6l17.15-7.7.5 3.3-15.1 14.6q-1.1-.65-3-2.25-2.45-2.05-4.15-4.05l-1.95-9 6.4 4.95.15.15m3.5 15.75l1.2 1.65 1.2 3.05q.5 1.9.15 2.75-.5 1.1-2.95 2.05-2.5.9-4.55.8-1.6-.05-1.45-1.25.15-1.2 1.65-4.45 1.65-3.45 2.65-4.35 1.15-.95 2.1-.25"/><path fill="#fff" d="M43.55 205.35q-.25.65-3.45 1.6l-3.3.45q.3-1.4 2.05-4.55 1.75-3.2 2.45-3.4.35 0 .95 1.1l1 2.35.35 2-.05.45"/><path fill="#0d131a" d="M7.8 46.5q1.6-2 4.25-1.2 1.1.35 5.2 2.65l2.15 1.2L8.15 75.5l-.75-1.15Q1.55 67 .25 64.4-.8 62.35 2.6 55.35q2.8-5.7 5.2-8.85"/><path fill="#db4f03" d="M16.5 49.25l1 .55-9.65 22.55q-1.65-1.6-3.65-4.4-2.3-3.25-2.45-4.8-.25-2.5 2.5-8.25 2.35-4.95 4.25-7.35 1.05-1.35 3.15-.7 1.2.4 4.85 2.4"/><path fill="#0d131a" d="M15.1 49.55q1.35.8 1.85 1.55l.2.25-7.6 19.3-.6-.55q-5-4.5-4.85-7.05.05-1.95 2.25-7 2-4.6 3.35-6.5.75-1 2.5-.9 1.35 0 2.9.9"/><path fill="#91301d" d="M5.5 62.95v-.1q.1-1.7 2.1-6.25 1.85-4.35 3.15-6.15.55-.7 1.45-.7.95.05 2.15.7l1.5 1.1-6.75 17.1q-3.6-3.75-3.6-5.7"/><path fill="#db4f03" d="M83.55 170.55q2.05-7.55 6.15-6.95 5.45.8 12.2 15.75 6.2 13.7 6 19.8-.15 2.8-2.9 4.35-4.5 2.7-15.1 2.15-9.2-.45-12.15-1.95-1.6-.85-1.85-2.35-.45-2.6 3.95-7 1.1-1.1 1.8-5.75l.85-8.85q.6-7.4 1.05-9.2"/><path fill="#dbd2a9" d="M100.55 179.95q6 13.35 5.8 19.15-.05 1.9-2.1 3.1-4.15 2.45-14.3 1.95-8.75-.45-11.5-1.8-.95-.5-1.1-1.2-.2-1.95 3.6-5.75 1.35-1.35 2.1-6.05l.95-9.5q.6-7.25 1.05-8.9 1.65-6.2 4.4-5.85 4.7.7 11.1 14.85"/><path fill="#0d131a" d="M18.35 44.75q4.5-4.5 12-6.8 18.5-4.05 29.8 3.2Q66.1 45 69.6 50.5q4 6.3 5.55 15.95 1.6 9.8 9.95 18.65 7.55 8 22.1 16.55 22.05 13 31.4 23.35 4.9 5.4 8.9 14.75 2.2 5.2 1.2 7.7-.5 1.3-1.45 2 0 2.45-1.15 4.05-1.45 1.95-5.35 2.9l-9.8 1.55-15.2 2.25q-10.3 1.85-20.6 4.95-.5 12.6-3 27Q89.35 208 86.6 210q-3.3 2.45-13.95 2.85-11.3.45-16.2-2.7-3.3-2.2-3.5-4.4-.15-1.8 2.15-3.95 1.4-1.25 1.25-6.95-.05-3.45-.95-11.35l-1.15-6q-.95-4.25-1.05-5.8-.6-9.45-6.95-30.75-6.8-22.95-11.7-28.05-9.85-10.2-16.6-20.95-11-17.55-8.4-29.3 2.6-11.7 8.8-17.9"/><path fill="#db4f03" d="M30.65 39.45q17.85-4 28.7 3 10.55 6.7 14.1 23.45 4.6 21.65 32.3 37.35 21.5 12.25 29.85 21.8 7.55 8.65 9.9 22.05.65 3.75-.6 5.5-1.2 1.6-4.8 2.45l-9.35 1.4q-9.4 1.15-15.5 2.25-10.45 1.9-21.05 5.15l-.55.15v.5q-.35 12.25-3.25 27.4-2.9 15.15-5.15 16.75-2.95 2.2-12.75 2.6-10.5.45-14.85-2.35-3.15-2.05-3.2-3.3-.05-1.1 1.65-2.65 1.8-1.6 1.75-7.4 0-3.4-.95-12.25-.7-6-.85-9-.6-9.15-7.5-31.95-7.55-24.9-12.95-30.5-9.75-10.15-16.25-20.5-10.8-17.1-8.3-28.35 2.55-11.45 9.3-17.85 4.7-4.45 10.3-5.7"/><path fill="#b94100" d="M29.6 45.85q0-1.3-2.05-5.4 1.35-.6 3.1-1 17.85-4 28.7 3 10.55 6.7 14.1 23.45 4.3 20.35 29.35 35.6-9.2-3.5-15.15-5.25-5.2-1.55-12.85-17.4L68.05 64.5q-4.15-8.7-7.45-14.1-3.95-6.95-13.8-7.1-5-.1-17.2 2.55m-7.65 49.4q6.6-.85 13.05.15 4.1.7 11.6 2.9 16.55 4.95 29.2 4.85l-4.95 3.8q-2.95 2.4-4.45 4.35l9.3 2.5 9.25 2.45q-5.35 2.5-10.45 5.55-5.3 3.15-6.35 4.6.9 2.65 3.45 12.85 2.55 9.5 4.45 12.35-.25 1 .05 8.1l.2 9.45-7.65-7.9-4.75 11.2q-3.2 6.6-7.15 9.35-.5-4.2-.7-7.5-.6-9.15-7.5-31.95-7.55-24.9-12.95-30.5-7.8-8.2-13.65-16.6m70.8 53.7l7.35-.2q-1.5.65-3.1 2.7-1.75 2.15-2.9 2.6l-2.15-3.5q-.6-.8-.5-1.25.15-.6 1.3-.35"/><path fill="#0d131a" d="M85.05 86.35l.2-.7.45.55q4 4.3 9.35 8.45l.2.15-.1.3q-3.25 8.9-8.05 14.65-2.45 2.85-4.4 4.1l-.75.45.95-5.2-7.95 5 2.4-7.1-3.7 2.65q-1.05.75-1.25.6-.2-.15.75-1.15 1.65-1.8 5.65-8.75 4.9-8.55 6.25-14"/><path fill="#0d131a" d="M85.65 87.7q3.7 3.9 8.25 7.5-4.5 12.05-10.55 16.95l.95-5.25-7.1 4.5 2.15-7.05-3.25 2.6q2.65-4.05 5-8.5 3.25-6.15 4.55-10.75m-29.15 103l-1.1-10.75.7.55q1.5 1.2 5.35 3 11.4-5.25 13.85-6.65 1.75-1 2.2-.9.45.1-.55 1.05l-1.65 1.6-1.35 1.5 6.1-3.05q2.9-1.4.4.6-1.25 1-4.15 4.25l2.15-.5 2.15-.6q1.8-.55.3.65l-17.15 14.4q-.9.55-1.2.55-.5 0-1.55-.7-2.2-1.4-4.45-4.95l-.05-.05"/><path fill="#0d131a" d="M56.35 181.6l4.75 3.3.6-.15 11.9-5.9-2.3 3.65 5.9-2.95-3.85 4.15 4.65-1.2L62.55 195l-2.3-1.75q-1.85-1.5-2.6-2.65l-.75-7.45q-.5-.8-.55-1.55m45.5-81.35l.4-.45 4.65 2.9 9.65 5.9.25.15-.1.25q-1.8 7.65-6.15 15.1l-4.7 7-1.15 1.1q-.45.1-.25-.85l.2-1.3-.05-1.05-2.7 3-2.5 2.55-.9.55q-.25.05.3-.95l1.15-3.1.9-3-7.25 3.65 2.85-6.7-3.4 1.85q-2.05.95-.25-1 10.15-18.8 9.05-25.6"/><path fill="#0d131a" d="M102.95 101.4l12.55 7.8q-1.3 5.3-4.05 10.9-2.6 5.3-5.6 9.1l-.35-2.75-4.9 5.55 1.85-5.85-6.7 3.3 2.5-6.2L94.5 125q4.05-6.55 6.45-13.05 2.15-5.8 2.15-9l-.15-1.55M91.7 150.85q-.7-1.45-.55-1.9.2-.6 1.85 1.25 1.5 1.75 1.45 3.05l-.4 1.8h-.75q0-.9-1.6-4.2"/><path fill="#db4f03" d="M124.25 129.65q10.2-7.95 13.95-3.6 19.15 22 14.95 49.15-1.5 9.85-5.85 18.75-3.6 7.25-7.25 10.7.25 4.5-7.65 6.75-5.1 1.45-14.5 2.05-8.3.5-12.05.15-4.25-.45-4.25-2.1l-5.3-.45q-3.3-.8-3.5-3.15-5.15-2.15-2.5-6.45 1.4-2.35 7.05-7.25-3.55-2.7-6-6.65-3.75-6.1-3.8-13.85-.05-12.7 7.95-22 5.4-6.3 13.75-10.25 3.85-1.8 15-11.8"/><path fill="#b94100" d="M152.45 178.9q-1.9 9-6.3 17.05-3.3 6.05-6.1 8.7.25 4.5-7.65 6.75-5.1 1.45-14.5 2.05 6.15-1.35 8.4-3.45 3-2.7 1.65-8 18.1-9.05 21.25-32.1 1.4-10.3-.9-21-2.3-10.75-7.85-19.7 17.45 23.55 12 49.7"/><path fill="#0d131a" d="M136.7 125.45q-2.15-2.15-1.5-2.55.65-.45 3.55 2.45 12.2 12.2 15.05 32.1 1.55 10.7.25 19.6-1.45 9.4-6.55 18.45-3.4 6.1-6.7 9.45-.05 7.45-19.35 9.35-7.35.75-13.55.1-6.25-.65-6.8-2.25l-5.4-.45q-3.3-.8-3.55-3.25-4.5-1.2-3.35-5.55.55-1.95 2.9-4.45 1.45-1.6 4.5-4.2-4.3-3.6-6.25-6.7-3.5-5.55-3.95-14.1-.55-10.9 6.75-20.35 5.9-7.6 12.45-10.05l2.7-.8q1.3-.3-.2.7-8.5 5.55-11.8 9.2-8.25 9.05-8.2 21.45.05 7.15 4.1 13.4 2.65 4.15 6 6.6 2.5 1.85 2.6 2.45l-1.15-.05-1.85-.85q-6 5.2-6.95 7.85-1 2.7 2.6 4.2l.45.2q.05 1.6 1.3 2.3 1.8 1.05 6.8 1.05h.75l.15 1.15q1 .9 6.9 1.2 6.15.35 12.65-.3 17.55-1.75 17.25-8.1v-.35l.25-.25q2.95-2.8 6.05-8.4 4.6-8.3 6-17.7 2.3-14.85-1.05-27.95-3.7-14.45-13.85-24.6"/><path fill="#0d131a" d="M115.5 172.35l-.85-.75q-.4-.7 1.9-.35 5 .75 14.9 6.2 12.7 7 16.7 14.8l.05.15-.05.2q-1.9 4.35-4.3 7.9l-2.8 3.65-.25.3-1.05.5q-9.9-11.5-19.95-17.95-5.05-3.25-9.4-4.75-1.3-.45-1.35-.75-.05-.4 1.45-.5l3.15.05h2.9l-11.7-6.1-1.2-.9q-.05-.45 1.9-.45l7.15 1 6.4 1.15-3.6-3.4"/><path fill="#0d131a" d="M108.9 175.65l12.9 1.6q-1.75-2.45-3-3.7 10 3.6 17.7 8.7 7.8 5.2 10.3 10.05-2.65 6-6.8 10.7-8.2-9.4-16.35-15.15-5.5-3.85-10.3-5.6l6.6-.25q-8.45-4.95-11.05-6.35m12.3-12.55q-1.5-.6-1.5-.95 0-.4 1.65-.4l5.75-.35-5.85-3.6q-4.65-2.9-3.65-2.85l7.95.35-3.95-1.8-.7-.35q-.45-.35.9-.35l6.2.5-1.3-1.35-.75-.45q-.4-.45 1.35-.15 9.95 1.55 17.15 5.45 5.35 2.95 8.2 6.55l.1.2q.9 9.75-1.25 19l-.15.7-.5-.5q-8.6-8.9-16.6-13.65-4-2.35-13.05-6"/><path fill="#0d131a" d="M151.2 163.6q.3 3.35.1 8.5-.25 5.35-.85 8.2-7-8.75-15.75-13.35-3.05-1.55-10.6-4l6.25-.7-9.1-6 6.2-.1q1.75.15.2-.75l-2.85-1.45 5.7.55-1.55-1.8q8.7 1.8 14.9 5.15 5 2.7 7.35 5.75m-49.95 48.55q-1.75-3.15.65-7.25 1.75-3.05 3.65-4.2 1.15-.7 1.35-.65.25.1-.7 1.55-1.75 2.75-2.55 4.55-1.4 3.35-1.05 6 .2 1.45-.55.85l-.8-.85M92.2 208q-.45-3 1.9-5.95 1.65-2.05 3.9-3.3 1.5-.8 1.7-.5.25.35-1.05 1.45-2.1 1.9-3.4 4-2 3.2-1.25 5.65 1.2 3.95-1.8-1.35M52 204.2q1.9-2.15 3.25-3.1 1.15-.9 1.7-.5.4.25.6 1.7l.3 3.6q-.05 2.35-.7 3.15-.6.8-2.95 1.25l-4.35.25q-1.35-.15-1.35-.85l.8-2q.6-1.25 2.7-3.5"/><path fill="#fff" d="M54.95 202.85q1-1.2 1.3-.6l.1 2.1q0 2.7-.7 3.55-.4.5-2.4.95l-2.7.2q-.6-.15 1.3-2.5l3.1-3.7"/><path fill="#0d131a" d="M62.5 208.95q1.65-3.3 3.55-4.25.85-.5 1.75.45 1.1 1.05 1.9 3.65.85 2.65.25 3.7-.7 1.2-2.5 2.3-1.7 1.1-3.55 1.55l-3.1-.15q-.2-.35.05-2.45.3-2.05 1.65-4.8"/><path fill="#fff" d="M67 205.95q.9.9 1.45 2.9.6 1.95.25 2.6-.3.65-2.15 1.8-1.85 1.2-3.3 1.6l-.95.05q0-1.2 1.3-4.5 1.5-3.95 3-4.7.1-.05.4.25"/><path fill="#0d131a" d="M92.95 17.2q1.85.75 1.95 1.15.15.4-1.8.95-2.45.65-5.3 1.75-3.6 1.35-5.35 2.45l4.2 1.65q2.8 1.15 3.25 1.55.45.45-3.1 1l-5.5.85q4.35 2.25 7.25 4.6 5.2 4.1 8.05 9.5 1.4 2.65 1.15 2.85l-2.05-.55-6.25-1.2-8.3-.85q2.1 1.15 3.9 2.6 1.8 1.45 2.15 2.3.5 1.15-19.85 2.85l-.25-.3q-2.75-3-7.5-5.8-9.4-5.6-19.65-5-1.1.05-3.1 1.65l-3.4 3-3.05 3q-1.3 1.1-2 .55-1.4-1.1-3.5-5.45-2.4-4.8-2.2-7.4.15-2.25 3.6-7.4 3.8-5.6 9.25-11Q50.1 2 64.5.1l2.1.1q.3.35-.9 1.65L62.65 5.7q4-1.7 7.15-2.4l10.75-.45 2.85.5q.7.5-2.85 1.5-2.8.75-6.8 2.9-3.95 2.1-2.8 1.95l4-.15q.7.3-1.2 1.85l-4.2 3.35q4-.7 11.25-.05 7.8.75 12.15 2.5"/><path fill="#fff3c2" d="M92.5 42.95q-4.65-1.1-12.35-1.25-1.35-.05-1.3.4 0 .3.9 1.05l3.8 3.65-15.65 2.25q-4-4.35-10.8-7.75-8.55-4.25-15.6-3.3.5-1.25.15-1.35-.35-.1-2.1.95l-3.35 1.95q-1.8 1.2-3.4 2.7l-2 2.15-1.6 1.4q-1.2-1.1-2.8-4.25-1.8-3.65-1.9-6.15-.1-2.9 3.5-8.05 3.55-5.1 9.25-10.4Q51.1 4.25 63.5 2.05 61.05 4.7 60.15 6.1q-1.1 1.6-.3 1.85l2.55-.55q4.9-2.1 8.3-2.8l8.95-.8q-4.25 1.4-6.6 2.6-3.3 1.7-6.2 4.4l2.35.2 2.45.15-5.3 5-.1.45 1.6.05q11.05-2.45 22.9 1.8-7.6 2.35-10.5 4.35-.95.65 2.2 2.05 2.95 1.3 2.5 1.4l-8 1.45q-1 .25-.05.65l1.8.65q4.75 2.1 8.4 5.1 3.35 2.75 6.55 6.9 1.55 2 1.3 2.25l-2.45-.3"/><path fill="#db4f03" d="M33.05 62.3q2.1-2.05 6.05-3.65 5.45-2.3 9.45-.85l.2.05.1.2q1.2 1.95 1.8 6.45.6 4.6-.3 5.75l-.15.2-.25.05q-13.55 1-14.6-.2-1.85-2.1-2.35-5-.3-1.8-.1-2.65v-.2l.15-.15"/><path fill="#db4f03" d="M39.6 59.65q4.85-2 8.4-.85.75 1.35 1.25 4.2.5 2.6.5 4.7 0 1.25-.2 1.7-12.25.9-13.35.1-2.2-2.4-2.2-6.05V63q2.05-1.9 5.6-3.35"/><path fill="#0d131a" d="M35.35 70.3q-1.85-2.05-2.3-4.65l-.1-2.35q-1.35 1.15-1.6.6-.25-.5 1.15-1.75 3.1-2.65 8.25-4.05 5.25-1.35 9-.45 2.4.6 2.2 1.25-.2.6-1.8.3.9 3.35 1.15 6.2.35 4.1-.95 4.85l-.15.2-.25.05q-13.55 1-14.6-.2"/><path fill="#fff" d="M34 63q2-1.85 6.65-3.2 4.6-1.4 7.35-1 2.15 4.65 1.75 8.9l-.2 1.7q-12.25.9-13.35.1-2.2-2.4-2.2-6.05V63"/><path fill="#0d131a" d="M39.5 58.5l.4-.15.25.3q2.1 2.35 2.35 5.9.25 3.15-1 6.05l-.15.35H41q-5.4.1-6.05-.75-1.3-1.4-1.85-3.5-.45-1.95-.2-4.05v-.2l.15-.15q.95-.9 2.6-1.9 1.9-1.15 3.85-1.9"/><path fill="#0d131a" d="M39.55 59.7q1.85 2.35 1.85 5.75 0 2.1-.85 4.4l-4.35-.35Q34 67.1 34 63.45V63q1.9-1.8 5.55-3.3"/><path fill="#0d131a" d="M37.5 59.4l.2-.15.25.1q1.25.4 1.9 2.9.55 2.2.25 4.25-.35 2.85-2.2 3-2.4.15-3.65-1.5-.9-1.25-1.35-3.9v-1.6l.15-.2q1.6-1.45 4.45-2.9"/><path fill="#0d131a" d="M37.75 60.55q.5.4.9 1.75.4 1.4.4 2.9L39 66.35q-.3 1.95-1.15 2-1.7.1-2.55-.85-.85-1-1.3-3.5v-1q1.35-1.25 3.75-2.45"/><path fill="#fff" d="M37.4 64.25q0 .85-.4 1.5-.4.6-.95.6-.55 0-.9-.6-.4-.65-.4-1.5 0-.9.4-1.5.35-.65.9-.65t.95.65q.4.6.4 1.5"/><path fill="#0d131a" d="M11.6 62.65q8.05-1.75 18.5 4.5 5.6 3.35 10.7 3.05l9.9-1.65q4.45-.55 8.55 1.8 4 2.3 6.25 6.45 5.35 9.85-2.45 19.55 2.35-.25 6.8-.15l6.25.35q1.65.2 1.6.55-.1.3-1.75.9-2 .65-5 2-3.6 1.55-5.1 2.55l4.55-.1q2.75-.05 2.25.35l-3.15 3.05-3.25 3.35 9.2 1.1q6.1.9 10.45 2.5 1.35.45 1.15.75l-1.4.55q-1.15.3-6.4 2.75-5.45 2.55-7.8 3.9l9.65.85q1.7.45 1 1.05l-1.05.55q-3.4 1.25-8.1 4.3 10.7 8.05 17.05 16.8 1.25 1.75 1.05 2.1-.2.3-1.9 0L82 145.35l-6.75-.65 5.3 7.1q4.25 5.65 4.05 6-.2.35-4.5-1.35l-5.5-2.15.7 5.55q.5 4.3.2 4.35-.4.05-4.4-4.85L69.55 167q-1.2 5.9-1.55 6.1-.35.2-2.6-1.75l-3.35-2.95.1 7.15q0 3.4.35 8.6.1 2.1-.65 2.15-.45 0-3.05-1.45-6-3.35-10.75-7.8l-6.4-6.45 1 6.15q.7 4.2.1 3.85-.55-.3-2.55-3.1l-3.15-4.4.2 3.3q.05 1.9-1.35.5-2.3-2.4-4.8-6.8-2.3-4.15-3.65-8L24 166.4l-3.5 4.7q-.8 1.25-1.05.7-.2-.4-.1-2.3.2-2.75 4.4-17.75l-3.9 2.6-1.15.55q-.15-.1.2-1.3l.9-3-4.35 4.95-1.15.95q-.25-.15-.1-1.5l1.3-8.9q-6.55 2.8-8.05 3.65l-1.35.45q-.15-.2.25-1.4.8-2.45 2.7-6.25 2.9-5.8 6.15-9.75l-3.45 1-1.3.2q-.3-.2.2-1.15l1.4-2.9-8.2 1.35-1.15.05q-.2-.2.3-1 .95-1.6 4.1-5.45 3.3-3.95 4.85-5.35L8.6 117.8l-1.3-.7q-.2-.25.6-.65l2.15-1.25-3.2-1.15q-1.05-.35-1.25-.65-.15-.3.4-.75l4.05-2.9q-1.7-1.45-3.95-4.45-.4-.65-.25-.85l1.1-.05 5.3.35q3.75-.15 4.9-1.55.65-.8.65-2.05l-.45-2.5q-1.95-2.05-4.9-6.6-3-4.55-4-5.6-2.3.25-4.9-2.7Q.45 80.2.45 74.8q0-5.15 2.8-8.1 2.65-2.8 8.35-4.05"/><path fill="#fff3c2" d="M38.1 71.45l7.65-.75q5.55-1.35 9.4-.45 7.3 1.7 10.3 10.55 1.7 5-1.35 10.75-2.95 5.5-9.3 10.1-1.75 1.3-1.1 1.6.65.3 2.05-.55 1.9-1.1 5.85-4.7l5.55-.45q4.2-.25 6.55-.15-2.9 1.05-7.1 3.25l-4.15 2.15-.75.55q-.5.5.7.5l4.6-.2q3.1-.1 2.65.35l-6.7 5.9q-.25.55 1.6.6l8.95 1.1 9.65 1.75q-6.9 2.45-14.3 7.3-1.15.75-1.1 1.2.05.45 1.05.35l3.7.05 5.75.55q-4.35 2-7 4.05-.65.45-.4 1l1.7 1.55q4.65 3.3 8.7 7.3l7.25 8.1-14.75-1.7q-1.55-1.5-2.15-1.65-.6-.2.55 1.35 4.95 6.55 8.9 12.25l-8.15-2.85.95 8.25-2.25-3-1.4-2-3 15.7-2.9-2.95-2.35-2.6q-.55-2.5-1-3.1-.5-.65-.35 2.15.5 11.55.4 19.45-4.85-2.25-9.95-6.3-5.45-4.35-9.85-9.75-2.15-2.65-2.65-2.5-.5.1 1 2.4l1.1 7.4-2.95-4.3q-1.75-2.75-2.15-3.8-.35-.95-.35 1.1l.05 2.2.35 3.25q-6.25-10-7.3-13.35-.5-1.7-1-1.65-.5 0-.2 1.45l-2.2 2.8-4.15 5.3q1.2-5.35 2.9-11.3 1.5-5.45 2.1-6.7 1.45-2.85-.2-1.5l-4.8 3.35 1.35-4.2q.7-2.15.3-2.15-.25.05-1.55 1.45l-2.3 2.8-2.95 3.2.8-4.35.95-5.25q.4-2.55-.35-1.3l-.85 1.8L8 148.05q3.75-8.8 9.6-16 1.85-2.3.7-1.9l-1.55.8-4.4 1.3 1.65-3.5q.95-1.85.2-1.35l-.95.85-8.7 1.7q1.6-2.8 4.65-5.9 2.5-2.6 4.6-4.1 2.55-1.7 2-1.95-.5-.25-2.55.85l-1.6-.95-1.6-1 2.4-1.85q.4-.25-1.6-.95l-3-.95 4.05-2.7h.8q.55-.2-.7-.95-1.25-.7-2.4-1.95l-1.55-1.8 6.35.15q2.55-.35 3.65-1.7 1.2-1.35 1.25-3.2.1-1.7-.7-3.25-1.95-2-5.15-6.85l-4-5.6-.2-.25h-.3q-3.15-.35-5.1-3.45-2-3.1-2-7.5 0-4.5 2.5-6.75 2.2-2 7.6-3.2 7.3-1.7 17.4 4.3 4.5 2.7 8.75 3"/><path fill="#dbd2a9" d="M14.5 84.4q2.4 2.4 4.8 4.1l-1.7 3-1.75 2.95-3.55-5.3q-1.95-2.95-2.85-3.85l2.35-.5 2.7-.4m27.15 25q.35.4 0 1.5-.75 2.35-3.7 4.05-2.55 1.5-4.15 1.4-1.85-.15-4.25-2.2-2.45-2.1-3.3-4.4-.9-2.35-.25-3.05.6-.6 2.4.25 1.6.75 5.75 1.3l5.85.65q1.3.1 1.65.5"/><path fill="#0d131a" d="M22.6 104.7l.7-.85.4.3q3.95 2.65 8.9 3.45 2 .35 1.95.8l-2 .35q-2.6-.05-5.7-1.45-2.45-1.1-3.9-2.3l-.35-.3M12.2 84q2.1-1.15 4.55-1.45 2.95-.3 5.3.85L34.2 89l.65.3-.25.65-2.05 2.95q-2.95 2.8-7.35 2.25-4.6-.55-8.8-4.55-2.5-2.35-4.5-5.55l-.4-.7.7-.35"/><path fill="#922f00" d="M21.35 84.75q3.75 1.9 11.5 5.3-.8 1.55-2.25 2.5-2.2 1.45-5.2 1.1-3.85-.45-7.45-3.65-2.4-2.15-4.3-5.05 1.85-.8 3.8-.9 2.2-.15 3.9.7"/><path fill="#0d131a" d="M25.15 87.7q2.4-1.25 6.5-1.35 5.95-.2 12.35 2.55l.7.3.1.8q-4.05 5.45-10.3 6.7-6.75 8.9-10.5 10.75-4.25 2.1-7.85 1.45-3.55-.65-5.05-3.65-2-4.05-.65-9.2 1.35-5.3 5.2-7.6 2.7-1.65 5.45-1.85 2.75-.2 4.05 1.1"/><path fill="#ed8599" d="M13.2 92.4q1.3-1.95 3-3 2.65-1.6 5.2-1.7 2.35-.15 3.2 1l.75.15L30 87.6q6-.65 12.85 2.1-2.55 3.2-5.2 4.8-1.35.8-2.2 1 .4-.15.8-1.25.3-.9-.05-1.05-.35-.2-1.05.75l-4.6 5.8q-4.3 5-7 6.35-3.1 1.6-5.9 1.6-3.65.05-5.45-2.75-.95-1.45-1.15-3.8-.15-2.1.35-4.45.55-2.35 1.8-4.3"/><path fill="#ce7486" d="M25.35 88.85L30 87.6q6-.65 12.85 2.1-2.55 3.2-5.2 4.8-1.35.8-2.2 1l.65-1.45q.35-.85.05-.95-.3-.1-1 .85l-2 2.65q.75-2.25-2.3-4-3.2-1.85-8.35-1.9l-.95-1.4q-1-1.2-2.25-1.25l3.3-.3q1.45.2 2 .95l.75.15"/><path fill="#0d131a" d="M20.6 91.95q.6-1.45 2.2-2.65 1.75-1.4 3.95-1.8l1.1.4q-3.85.7-6.35 4.8-.8 1.3-1.1.95-.35-.35.2-1.7"/><path fill="#fff3c2" d="M6.55 79.1q2.45-1 15.55-2 15.35-1.15 23.5.35 7.8 1.45 10.35 3.45 1.25.95.95 1.65-3.3 3.8-7.35 5.6-2.95 1.35-9.1 2.55-3.2.65-8.3-1-2.8-.95-8.3-3.5-4.8-2.25-5.85-2.3l-4.6.3q-2.75.4-4.25.95l-2-2.7q-1.8-2.8-.6-3.35"/><path fill="#0d131a" d="M20.3 61.9q1.25 1 .95 2.6-.35 2.05-3.05 4.65-2.5 2.4-4.25 2.9-2 .65-4.6-1.75-2-1.85-3.3-4.2-.8-1.55-.2-3.1 1.05-2.2 4.3-3 2.25-.55 5.3 0 3.05.6 4.85 1.9"/><path fill="#0d131a" d="M15.15 61.5q2.75.5 4.25 1.65.55.3.35 1.1-.3 1.6-2.65 3.85-2.2 2.1-3.6 2.5-1.15.35-3.2-1.5-1.85-1.7-2.9-3.7-.5-.95-.15-1.8.65-1.5 3.25-2.15 1.9-.5 4.65.05"/><path fill="#8a969d" d="M12.85 62.65q0 .65-.8 1.35-.85.75-1.7.75T8.8 64.2q-.65-.55-.65-1.2 0-.8 2.35-1 2.35-.15 2.35.65"/><path fill="#0d131a" d="M125 115.15l.05-.65.55.4q6.15 4.6 10.2 9.1l.15.15-.05.2q-1.05 3.55-3.25 6.85-2.7 4.05-5.75 5.2-1.15 1-.5-.5l1-3.15-4.2 2.9q-2.4 1.3-4.1 1.65-1.45.8-.35-.6.95-1.25 2.7-5.2l-2.7 1q-1.5.5-.4-.6 1.1-1 3.45-6.4 2.65-6.15 3.2-10.35"/><path fill="#0d131a" d="M123.55 128.95q-1.9 1.45-3.35 2 4.55-6.3 5.65-14.45 4.05 3.05 8.6 7.95-2.2 7.1-6.65 10.35.55-1.3.65-2.95l.05-1.4q-3.95 3.7-8.1 5.4l2.1-4.3 1.05-2.6M13 83.9q3.35-1.15 4.9-1.1.75.05 8.4 3.8 7.35 3.6 13.95 3.35 5.5-.25 9.05-2.1 3.45-1.85 6.45-5.9 1.5-2 1.3-.95-.15.9-1.1 2.7-1.55 2.9-4.9 4.9-3.75 2.2-8.9 2.75-7.5.75-15.75-3.3l-5.3-2.85q-2.5-1.3-3.55-1.25-1.2.05-3.95 1.15-2.75 1.1-4.15 1.15-2.05.1-2.85-.6-.8-.7 1.45-.6 1.5.05 4.95-1.15"/><path fill="#dbd2a9" d="M67.55 140.5q.15-1.7 5.7-1.8l10.75.85 4.5 5.25-14.75-1.7q-1.55-1.5-2.15-1.65-.6-.2.55 1.35 4.95 6.55 8.9 12.25l-8.15-2.85.95 8.25-2.25-3-1.4-2-3 15.7-2.9-2.95-2.35-2.6q-.55-2.5-1-3.1-.5-.65-.35 2.15.5 11.55.4 19.45-4.85-2.25-9.95-6.3-5.45-4.35-9.85-9.75-2.15-2.65-2.65-2.5-.5.1 1 2.4l1.1 7.4-2.95-4.3q-1.75-2.75-2.15-3.8-.35-.95-.35 1.1l.05 2.2.35 3.25q-6.25-10-7.3-13.35-.5-1.7-1-1.65-.5 0-.2 1.45L25 162.9l-3.9 5.05q1.5-3.55 4.25-8.45 2.65-4.85 3.5-5.6.8-.7 1.3.7l.95 3.1q.4 1 1-3.9.55-4.65.95-3 1.1 4.95 7.4 11.9 6.25 6.9 6.85 4.15l1.05-8.2q.85-7.2 1.4-9.9.35-1.7.85-1.85.7-.2 2.15 1.65l5 6.1q3.05 3.45 4.05 3.15 1.5-.4 3.5-7.05 1.85-6.1 2.25-10.25m114.3-10.35q-1.8-.9-1.4-.1.35.85 2.1 2 1.85 2.35 5.75 10.05 5.2 10.45 6.75 18.25l-3.2-2.75-2.8-2.45q-1-2.7-1.7-2.85-.7-.1-.2 1.95l1.25 5.4.75 4.25q0 .45-3.9-2.7-4.55-3.55-6.05-3.95-.25-.05.4 2.65.6 2.55.2 2.05l-2.45-2.65-2.15-1.9q2.25-12.7 1.1-23.95-1.1-10.85-5.15-18.15 10 3.45 19.15 13.05-2.65-.95-4.35-1.35l-1.9-.15q-.2.25.55 1.35l2.75 4.25q-3.5-1.35-5.5-2.3M93.65 41q1.55 2 1.3 2.25l-2.45-.3q-4.65-1.1-12.35-1.25-1.35-.05-1.3.4 0 .3.9 1.05l3.8 3.65-15.65 2.25q-2.15-2.35-5.75-4.75-4.2-2.85-8.6-4.55l13.65-2.5 13.8-2q-3.2-3.2-6.95-4.65-2.9-1.15-8.9-2.15l5.95-1.95q2.55-1.05 4.6-2.6l-3.3-.2q-1.7-.3-2.75-1.3l6.75-3.15 6.55-2.85 5.85 1.2q2.3.65 1.95.85-7.6 2.35-10.5 4.35-.95.65 2.2 2.05 2.95 1.3 2.5 1.4l-8 1.45q-1 .25-.05.65l1.8.65q4.75 2.1 8.4 5.1 3.35 2.75 6.55 6.9"/><path fill="#db4f03" d="M82.05 78.3q-4.4.9-11.6-1.7-2.6-.95-9.1-11.3-6.65-10.6-4.75-12.1 4.4-3.4 9.65-6.05 8.15-4.1 11.5-2 5.4 3.4 11.1 11.65 5.35 7.75 4.75 10.1-.75 2.8-4.55 6.7-4 4.15-7 4.7"/><path fill="#0d131a" d="M89.5 56.45q5.65 8.4 4.9 11-.65 2.4-4.9 6.65-4.45 4.4-7.3 5-2.4.5-7.2-.6-3.55-.85-5-1.55-.75-.4-.8-.65l1-.05 4.85 1.1 7 .25q2.55-.4 6.35-4.05 3.85-3.7 4.5-6.55.45-2-4.6-9.6-5.55-8.3-10.9-11.7-3.05-1.9-9.65 1.5l-10.6 6.55q-1.25.75-1.5.3-.25-.4.9-1.4 3.7-3 9.05-5.9 8.9-4.8 12.45-2.55 5.55 3.5 11.45 12.25"/><path fill="#0d131a" d="M84.1 57.3q5.5 7.2 4.8 9.75-.6 2.15-4.55 5.1-3.65 2.75-5.3 2.95l-4.8-.75q-3.7-.9-5.25-1.65-3.2-1.45-.1-1.3-.75-3.65-1.6-5.95-2.25-5.95-6.15-8.6l-1.6.25q-.5-.15.5-.95 2.85-2.3 6.65-4.45 5.95-3.4 8.55-2.65 3.4 1 8.85 8.25"/><path fill="#91301d" d="M83.5 71q-3.25 2.6-4.65 2.75-1.8.3-7.65-1.45l-2.95-1q-.7-5.45-3.45-9.8-1.8-2.85-3.95-4.55 2.9-2.4 7.1-4.55Q73 49.85 75 50.45q3 .85 8 7.55 4.9 6.6 4.35 8.55-.5 1.75-3.85 4.45"/><path fill="#0d131a" d="M59.9 57.05q-.2-.1.05-.35.2-.25.45-.15 3.25 1.45 5.65 6.1 2.35 4.5 2.45 9.05.05.25-.35.2l-.45-.3q-.75-5.65-3.85-10.35-2.4-3.55-3.95-4.2"/></svg>