<svg xmlns="http://www.w3.org/2000/svg" width="394" height="385" viewBox="0.0 0.0 394.25 385.05"><path fill="#0d131a" d="M332.6 231.55l.45.3q4.15 2.1 9.1 6.85 5.6 5.4 9.5 11.8 10.2 16.7 3.7 30.7-6.45 13.9-26.8 21.05-14.4 5.05-25.7 4.8-1.1-.1-1.95-1-3.75-4.1-3.8-29.95 0-14.55.95-29.1v-.6l34.55-14.85"/><path fill="#b94100" d="M345.4 246.9q9.25 12 9.25 22.7 0 4.9-2.1 9.4-6.1 13.2-25.4 20.7-14.35 5.6-24.2 5.3-.25 0-.55-.3-3.25-3.55-3.25-29.05 0-14.1.85-27.9l32.35-13.9q6.65 4.75 13.05 13.05"/><path fill="#0d131a" d="M332.45 268.05q1.45 6.35.35 10.55l1.05-1.1 1.1-1q.15 1.05-.2 3.65l-1 2.9q-.75 1.95-.55 2.75.4 1.5 2.5.45l3.1-2.25q-.3 5.05-1.2 8.05-1.4 4.65-4.4 6.25-4.85 2.55-11.35 4.2 1-3.75 1.05-5.5.15-2.85-1.3-5.15-1.1.4-3.3 2.6 1.1-3.2 1.2-5.2.15-3.05-1.7-4.9-.6.4-1.25 1.5l-1.15 1.65.8-5.8q.45-3.45.25-5.9-.2-2.95-1.4-5l-3-3.95.8.65q-1.25-1.8-3.6-3.3-2.55-1.65-4.55-1.8 3.3-1.45 8.1-8.55 4.75-7.05 8.15-8.4l8.45 12.25 3.05 10.35"/><path fill="#0d131a" d="M329.5 261.35l1.9 6.55q.9 3.75.9 6.6 0 2.15-.5 3.85l-.95 3.65 3-3.05v.4l-.1.7q-.05.7-.7 2.05-.9 2.2-.9 3.25l.1.7q.3 1.25 1.35 1.55 1.45.45 4-1.4-.9 9.05-4.85 11.2-3.6 1.9-9.5 3.65.7-3 .7-4.55 0-2.8-1.5-5.2l-.45-.7-.75.3-1.05.65.3-2.7q0-3.25-1.95-5.2l-.6-.6-.7.45-.35.3q.6-3.6.6-6.45l-.05-1.6q-.15-2.8-1.15-4.8-.6-1.2-2.4-3.45l-.4-.45.2-.15q-1.05-1.4-2.8-2.75l-3.65-2.15q1.65-1.25 3.35-3.4l2.95-4.1 3.35-4.55q1.85-2.25 3.75-3.2l7.85 11.4 1 3.2m-142.2-151q2.05 5.1 2.05 11.25 0 1.55-1.25 6.95-1.35 5.65-1.45 7.9 1.9-1.3 4.05-5.25l1.75-3.7 1.3 4.15q1.25 5.45 1.05 11.8-.65 20.3-15.7 41.9-7.15 10-15.25 20.15-16.2 20.25-21.05 21l-5.45.5q-10.75.15-19.45-6.05-6.7-4.75-11.15-12.35-6.1 2.7-17.3 3.05-13.25.35-22.9-3.65-9.65-4-15.5-13-5.65-8.75-3.35-15l.7-1.85 1.1 1.6q1.4 2.15 3.4 3.85 2.6 2.15 5.05 2.45l2.75-.3q1.35-.45 2.1-1.35.75-.95-3.8-9.15l3.4 1.85q2.8 1.6 4.4 2.15l4.55.2q3.6-1.1 5-3.25 1.55-2.3 1.55-7.2 0-13.8.3-16.3 1-9.3 5.65-12.35-2.1.85-3.2.95-1.8.15-2.9-1-.45-.5-1.35-2.4-.8-1.85-3.4-.5l-2.45 1.7q1.5-12.45 7.8-20.15 6.7-8.2 18.1-10.05l3.45-.7q3.45-1.1 3.5-3.2 0-1.25-4.4-3.95l-4.45-2.5 4.75-.65q4.75-.9 4.9-1.9.25-1.35-1.1-3.05-1.55-1.95-4.45-3.35l3.05-.9 7.75-.35 8.3-.35.1-.2q.15-2.25-1.7-4.9l-1.35-2q5.75.1 10 2.95 2.75 1.85 7.55 7.3 4.85 6.25 7.75 7.7 2.45 1.25 4.8-.55 2.25-1.7 1.45-5.55-.75-3.5-3.75-7.95 6.05 2.2 6.9 1.35.65-.95-1.75-4.8 12.8 5.85 21.25 18.2 4.2 6.2 6.3 11.15 3.9 0 5.15-4.75l.45-4.75q4.25 3.8 6.4 9.15"/><path fill="#fff3c2" d="M187.3 120.8l.05.8q0 1.9-.6 4.25l-1.2 4.15-1.25 4.25q-.6 2.45-.6 4.4l.15 2.5 1.35-.75q4.65-2.6 7-6.45l.15 3.9q0 9.25-2.8 18.9-3.6 12.4-11.6 24.35-8.45 12.6-18.55 25.65-13.35 17.2-16.9 17.75l-7.7.45q-8.1 0-15.9-6.4-6.65-5.5-10.1-12.8-4 2.75-16.15 3.45-14.15.75-24.2-3.4-8.25-3.45-13.6-9.5-5.5-6.15-5.5-12.35l.05-.3q1.75 1.75 4.1 3 2.55 1.35 5.05 1.65 3.75.45 6.05-1.7 1.2-1.05 1.2-2.3v-.05q0-1.35-1.8-3.15 4.5 2.1 7.85 1.1 8.25-2.6 9.1-13.5l.2-4.5q.35-10.6 1.6-15.65 2.15-8.95 7.85-9.8l2.85-.45-2.5-1.45q-1.35-.75-3.2-.4-1.1.2-3.2 1.05l-2.6.85q-1.05.2-1.55-.35l-.95-1.8-.9-1.9q-.65-.9-1.6-1-1.15-.1-2.5 1.2 2.15-9.8 8.6-15.8 6.5-6.1 16.65-7.75l1-.15q2.6-.4 4.35-2.15 1.6-1.6 1.6-3.3 0-2.6-5.3-5.4 4.95-.4 5.7-3.3l.1-.9q0-1.1-.65-2.2-1.2-1.9-4.3-3.55l7.1.35 7.05.35q2.8-.1 3.85-1.05.75-.75.75-1.6v-.1q0-1.95-2.25-4.3 3.1.55 5.6 2.2 2.5 1.65 5.05 4.75l1.4 1.8q3.75 4.8 6 6.85 4 3.55 7.25 2.95 3.7-.65 4.7-3.55.4-1.1.4-2.25 0-4-3.25-8.95l4.4 1q3.2.25 1.55-3.05 5.75 3.3 11.1 9.65 4.6 5.45 7.65 11.65l.85 1.95 1.25 2.7q.85 1.35 2 1.7 1.65.5 3.75-.8 3.6-2.3 3.6-6.85v-.3q2.3 3.2 3.75 7.7 1.3 4.05 1.55 8"/><path fill="#dbd2a9" d="M120.5 187.85q1.8 2.95 17.15 24.8 8.05 11.4 4.85 11.85-14.55 2.3-24.85-6.05-3.35-2.7-6.45-7.95l-2.4-4.75q-3.85 2.65-16.4 2.9-14.3.25-24.45-4 14.55.4 28.35-23 4.55-7.75 9.95-19.7 5.3-12.2 7.3-16.4l-.45 4.1q-.45 5.1-.25 10.3.7 16.65 7.65 27.9"/><path fill="#0d131a" d="M114.05 142.8q1.6-2.5 2.25-2.05.65.45-.95 2.95-10.25 16.2-11.75 31.25-1.5 14.7 5.2 30.8.5 1.1-.55 2.55-1 1.4-1.5.3-7.55-16.6-5.8-32.25 1.75-15.6 13.1-33.55m253.6-30.9l.9 2.15q.9 2.05 4.2 4 1.9 1.15 6.15 3.25 2.8 1.5 9.45 6.45l-3.95.85q-4.4 1.15-6.8 2.7 5.2 1.1 9.8 3.4l-2.5.9q-11.5 4.55-9.55 7.95.95 1.7 4.2 2.45-2.15 2.85-7.2 5.55-7.1 3.85-13.05 2.1-5.3-1.55-6.3-8.1l-.05-.3 14.7-33.35"/><path fill="#dbd2a9" d="M372 120.5l5.4 3.2 5.75 3.45q-5.35 1.1-9 4.15l-2.15 1.8 2.85-.05q2.8 0 7.1 1.65-7.75 2.1-9.8 6.1-1.45 2.8-.1 4.25 1 1.05 2.55 1.8-3.1 2.75-7.2 4.2-4.45 1.6-7.55.7-3.9-1.1-4.8-6.25l12.7-28.9q1.45 1.95 4.25 3.9"/><path fill="#0d131a" d="M86.7 263.95q1.95 5.8.15 18.05-1.9 13.1-6.4 15.5-8.35 4.4-18.05 3.55-9.7-.85-17.65-6.75l-3-2.3q-4.8-3.65-7.8-5.3-4.45-2.45-8.8-3-.3-.95.85-2 2.4-2.15 9.95-2.8-4.55-2.7-9.1-3.85-5.2-1.35-8.65-.1-.1-.65.3-1.6.8-1.85 3.5-3.1-10.2 1.15-17.15-2.5-3.45-1.8-4.85-3.85l2.05-.25q4.9-.65 8.55-2.65l5.85-4.25q4.7-3.9 8.3-5.55l-2-1.1-1.6-.95 4.95-.6q3.15-.7 4.45-1.55-1.8-.95-7.55-1.7l-5.45-.55q1.3-.1 3.6-2.1l3.45-2.95 1.7-1.2q9.15-5.9 17.8-7.35 12.25-1.95 22.5 4.25 13.15 8 20.1 28.55"/><path fill="#fff3c2" d="M84.85 281.9q-1.9 12-5.35 13.8-7.85 4.15-16.95 3.35-9.15-.85-16.6-6.35l-3-2.3q-4-3.05-6.2-4.45-3.5-2.2-6.9-3.2l4.95-1.4q2.65-.5 5.35-.05l3.95.65-3.2-2.45q-3.3-2.5-7.9-4.45-5.2-2.2-9.6-2.55l7.5-4.4-3.95.1q-7.1.3-11.1-.05-6.75-.55-10.25-2.7 4.3-.9 7.75-2.95l5.4-4.05 4.2-3.25q2.55-1.75 5.4-2.8.8-.3.8-1.05v-.05q-.05-.7-1-1.15 3.45-.9 4.95-2.6l.7-.8-.85-.65q-3-2.3-8.3-2.55l3.65-2.5q8.85-5.75 17.05-7 11.6-1.9 20.75 3.65 12.05 7.3 18.65 26.9 1.9 5.6.1 17.3"/><path fill="#dbd2a9" d="M40.15 281.3l3.95.65q-4.4-5.1-4.7-9-.55-7.9 20.15-2.15 10.3 2.85 17.35 13.05 2.8 4.1 3.6 7.5.75 3.4-1 4.35-7.85 4.15-16.95 3.35-9.15-.85-16.6-6.35l-3-2.3q-4-3.05-6.2-4.45-3.5-2.2-6.9-3.2l4.95-1.4q2.65-.5 5.35-.05"/><path fill="#0d131a" d="M129.05 315.1q5.15 2.65 8.15 7.8 1.85 3.05 4.1 9.8 1.9 5.9 3.4 8.8 2.1 4.05 5.7 5.7 2.85 1.3 7.5 1.3 6.6 0 11.3 7.95 4.15 7 4.15 14.35 0 3.35-2.45 5.55-2.45 2.2-6.2 2.25l-3.2-.2q-2.2 2.9-7.8 3.4l-7.05-.25q-1.4 1.3-6.65 2.4l-9.15 1q-5.75.1-9.5-2.25-3.4-2.1-4.95-5.95-.4-1-2.25-2.5l-3.45-2.7-3.95-3.3q-2.45-2.2-3.5-3.95-1.25-2.15-2.15-14.55-1.05-14-3.4-21.4-2.25-7.05-2.5-10.2-.2-2.5.95-3.2 5.5-3.3 16.4-3.1 10.5.2 16.5 3.25"/><path fill="#db4f03" d="M142.9 342.4q2.4 4.7 6.2 6.5 3.05 1.5 8.1 1.4 3.3-.05 6.45 3.25 2 2.15 3.65 5.3 2.3 4.45 3 8.85.6 4.15-.5 5.55-2.95 4-9.55 2.95l-.35-.05-.3.2q-3.85 2.25-8.95 2.55l-5.45-.2-1.1.6-5.05 1.6q-6 1.5-10.8.95-8-.9-10-5.9-.55-1.35-2.15-3l-3.45-3.05q-4.5-3.65-6.3-6.15-.95-1.25-1.5-4.7-.35-2.15-.8-7.05l-.8-7.2q-.75-5.2-3.6-16.95-2.25-9-2.25-11v-.3q5.1-2.95 15.35-2.7 9.9.25 15.35 3.05 4.7 2.4 7.45 7.1 1.7 2.9 3.8 9.35 2 6 3.55 9.05"/><path fill="#b94100" d="M128.1 316.9q4.7 2.4 7.45 7.1 1.7 2.9 3.8 9.35 2 6 3.55 9.05 2.4 4.7 6.2 6.5 3.05 1.5 8.1 1.4 3.3-.05 6.45 3.25 2 2.15 3.65 5.3 2.3 4.45 3 8.85.6 4.15-.5 5.55-2.95 4-9.55 2.95l-.35-.05-.3.2q-5.4 3.1-12.7 2.55-1.2-.1-1.3-5.85-.05-4.5-3.45-7.75-4.45-4.35-14.4-6.3-4.05-.8-5.8-8.05-1.55-6.25-1-15.2.55-8.45 2.5-14.1 2.15-6.05 4.65-4.75"/><path fill="#0d131a" d="M248.85 79.75l1.15-.1-5.25 91.95-.25.25q-7.35 8.15-20.2 9.3-11.85 1.1-22-3.95l-1.9-.95 1.95-.85q3.4-1.5 6.5-3.25-7-1.5-13.95-7.6-5.15-4.5-8-5.9-4.65-2.3-9.45-.9l-2.1.6.9-2q.95-2.1 3.45-4 1.9-1.4 5.25-3.15.55-.25 1.05-.55l-5.95-.65-2.05-.5 5.65-5.1 4.55-3.45 4.75-4.6 2.85-3.55q2.8-3.8 4.95-5.5l-3.95.55q-4.25.05-6.75-.9-4-1.5-9.05-6.55l-1.85-1.85 2.6.1q4.45.2 10.2-1.1 5.95-1.35 8.8-3.35-4.05.1-7.2-.95l-2.35-1.05 3.85-2.6q4.7-3.4 8.65-7.2 8.5-8.05 16.35-12.3 12.25-6.6 28.8-8.35"/><path fill="#fff3c2" d="M203.15 109.6q-3.15 1.1-7 .6 2.2-1.2 4.75-3.3l4.75-4.35q8.9-8.45 15.5-12.3 11.25-6.55 26.7-8.35l-5.05 88.85q-6.55 7.05-17.75 8.35-10.3 1.15-19.75-2.8l4.65-2.45 5.7-3.2-3.65-.1q-4.1-.1-8.3-2.65-2.4-1.45-7-5.45-4.85-4.25-7.6-5.8-4.55-2.55-9.1-2 1.35-1.3 5.85-3.65l8.2-4.35-7.8-.05-3.55-.1 2.3-1.7 4.75-3.6 4.9-4.75 2.95-3.7 7.5-9.5-8.3.6-5.65-.65q-3.1-1.05-6.95-4.55 6.4-.3 12.3-2.25 6.9-2.3 7.95-5.5l.6-1.9-1.9.6"/><path fill="#dbd2a9" d="M186.25 146.6l-3.55-.1 2.3-1.7q3.6-2.6 13.3-3.9 11.7-1.6 19.5 1.85 29.3 13.05 30.05 21.65.25 2.7-2.35 4.7-2.7 1.55-2.7 1.65-6.55 7.05-17.75 8.35-10.3 1.15-19.75-2.8l4.65-2.45 5.7-3.2-3.65-.1q-4.1-.1-8.3-2.65-2.4-1.45-7-5.45-4.85-4.25-7.6-5.8-4.55-2.55-9.1-2 1.35-1.3 5.85-3.65l8.2-4.35-7.8-.05"/><path fill="#0d131a" d="M251.75 67.9q9.2-1.65 19.9 1.9 5.85 1.95 14.7 6.65l4.25 2.15.85.25L277 154.1l-.15.2q-3.85 4.3-9.4 6.65-5.55 2.3-10.8 1.75l-3.4-.5-10.75-1.1q-6.8-.2-8.85 1.85-.35-.4-.3-1.3.1-1.8 2.15-4.35l1.7-2.35q-2.55.5-6.1 1.55l-11.05 2.9q.85-.35 2.55-7.25 1.35-5.55 2.6-8.6 2.25-5.55 6.2-9.5l-4.3.15-2.55 1.3q-.6-1.7.15-4.4 1.5-5.5 8.45-10.7l-14.7.8-9.45.25 15.15-16.65q-1.6-.6-4.95-1.1l-3.05-.35 23.1-13.8q-5-2.65-11.5-2.8l-9.7.75-5.25.15-2.95-.15 5.55-6.55q6.25-6.65 10-7.2l-6.5-3.35 2.45-.8q9.15-3.6 20.25-2.95l10.15 1.25"/><path fill="#fff3c2" d="M271.15 71.75q5.9 1.95 14.2 6.45 2.45 1.35 3.8 1.95l-14 73q-3.45 3.85-8.55 5.95-5.1 2.1-9.7 1.6l-3.35-.45-8.65-1.05-8.45.3.75-1.05q2-3.05 3.4-4.35l2.35-2.2-3.2.5q-3.45.5-9.25 2.15l-6.55 1.65 1.05-3.7q1.35-5.6 2.8-8.85 2.6-5.7 7.15-9.6l2.95-2.55-3.85.8-2.6-1q-2.4-.8-4.4.65 1.25-3.1 5.2-7.15 3-3.1 5.85-5.15l3.1-2.3-3.85.45-22.55 1.55 5.5-6.05q5.5-6.5 9.7-10.15l-7.15-1.1L230 97.4q10.25-6.7 11.75-7.1l2.25-.6-1.95-1.2q-5.85-3.65-13.05-4.1l-10.8.8-3.9.5q3.8-4.65 7.95-7.25 5.1-3.25 9.95-2.75l-6.4-4.3q6.7-2.1 12.4-2.3l8.2.55 5.7.25q8.75-1.55 19.05 1.85"/><path fill="#dbd2a9" d="M225 152.5q1.15-4.7 6.25-9.85 6.8-6.85 19.5-13.2 11.8-5.9 19.3 8.25 3.75 7.05 5.1 15.45-3.45 3.85-8.55 5.95-5.1 2.1-9.7 1.6l-3.35-.45-8.65-1.05-8.45.3.75-1.05q2-3.05 3.4-4.35l2.35-2.2-3.2.5q-3.45.5-9.25 2.15l-6.55 1.65 1.05-3.7"/><path fill="#0d131a" d="M340.8 16.6q2.7 3.65 4.9 9.5 2.75 7.25 2.8 13.7.05 7.25-3.5 14.75-1.05 2.25-6.7 11.4-3.7 5.9-4.45 8.4l-.25.75-51.75.25-.25-.25q-1.95-1.65-5.8-8.35l-7.15-13.2q-5-9.6-6.25-11.3l-1.45-1.9 4.25.55 3.65-.15q.65-.8-1.8-7.95l-2.6-7.05q1.2.9 3.7 1l2.8-.35q1.4-1.35-1.75-6-3.15-4.6-8.25-8.7 8.5-1.5 14.25.2 4.4 1.35 7.9 5l2.85 1.95q2.9 1.6 3.1-.25.2-1.4-1.4-3.75l-2.35-3.65 2.65.85q3.45 1.05 6.75 3.7 2.5 2.05 5.4 5.4l2.85 2.6q3.25 2.4 5.1 1.35 2.8-1.6-.85-10.4L303 6.25l6.35.35q.8-.8-.45-3.75L307.5 0q8.4 3.45 12.95 8.55 5.55 6.3 9.4 18.9.9-.55 1.45-2.1.6-1.8.55-4.3-.15-3.55-1.3-5.6l2.25 1.3q2.45 1.6 3.6 3.05l1.1 1.2.9.65q.9.05 2.4-5.05"/><path fill="#fff3c2" d="M334.85 21.15l1.9 1.85q1.05.8 2.05.6 1.15-.2 2.2-2 4.5 9.7 4.5 18.15 0 7.1-2.95 14.15-1.75 4.2-6 11-3.4 5.5-4.35 8.15l-49.55.3q-2.75-2.65-12.2-20.75l-5.25-9.7 3 .2q1.5-.15 2.25-1.1.85-1.05.5-4.1-.45-3.7-2.55-9.3 2.4 1.1 3.85.3 2.55-1.3.45-6.55-2.2-5.45-7.3-9.1 6.15-.65 10.5 1.2 2.55 1.05 5.85 4l2.3 1.85q2.6 1.85 4.65 1.25 1.5-.45 2.2-2.2l.25-1.35q0-1.25-.85-2.7 2.05 1.2 4.15 3.3l3.65 4.05 2.8 3.15q2.2 2.35 4.8 2.45 2.15 0 3.8-1.75 2-2.05 2-5.15 0-2.7-1.55-6.3L306.9 9.3l-.2-.35 3.55.6q2.45-.4 1.7-4.4l-.2-1.1q5.35 3.15 10 11.45 3.6 6.5 5.6 13.55l.2.7h.75q2.35 0 3.8-2.05 1.25-1.75 1.65-7.75l1.1 1.2"/><path fill="#dbd2a9" d="M334.85 21.15l1.9 1.85q1.05.8 2.05.6 1.15-.2 2.2-2 4.5 9.7 4.5 18.15 0 7.1-2.95 14.15-1.75 4.2-6 11-.95 1.6-21.85-2.1-17.8-3.15-20.6-2.7 25.9-11.5 24.45-34.65-.75-11.75-6.8-21.4 5.35 3.15 10 11.45 3.6 6.5 5.6 13.55l.2.7h.75q2.35 0 3.8-2.05 1.25-1.75 1.65-7.75l1.1 1.2"/><path fill="#0d131a" d="M331.8 343.9l3.8.85q2.6.65 3.3 1.15 3.9 2.75 6.75 10.1 3.45 8.75 1 15.7-1.35 3.85-7.8 4.2-4.55.25-8.5-.95-2.05 2-7.2 1.9-3.7-.1-7.45-1.15-2.75 1.6-9.55 1.9-7.3.35-11.85-1.3-2.55-.95-4.1-3.25-1.2-1.8-1.55-4-.2-1.15-7-5.2L274 359.4q-3.35-2.4-4.3-6.05-1-3.9.55-9.95.5-2.05.65-4.9.2-2.95-.1-5.05-.55-3.4-.55-5.35 0-3.05.95-5.45.45-.85.15-6-.3-5.25-.2-7.55.15-3.15 1.1-4.3 1.65-2.05.7-15.05-.95-13.2-3.3-13.45-13.55-1.35-48.65 6.25-33.95 7.3-37 11.05-.95 1.15-1.8 3.45l-1.55 4.75q-2.45 8.05-4.8 12.15-4.1 7.2-11.15 11.1-4.9 2.7-12.85-.95-11.35-5.3-26.95-22.2-13.7-14.85-14.5-18.75-.4-1.95-.5-6.2-.6-40.8 18.6-65.25 16.15-20.65 41.4-24.85 13.55-2.2 27.7-7.3 14.55-5.2 26.3-12.3l21.85-15q17.9-12.4 19.35-12.4 5.55 0 21.9 8.65 12.85 6.75 19.9 11.6 5.4 3.7 7.2 45.7 1.75 40.6-1.55 52.6-2.85 10.35-1.25 40.65 1.45 28.2 3.35 31.5 3.85 6.7 9 10 2.9 1.85 8.15 3.35"/><path fill="#db4f03" d="M329.25 373.25q-1.05 1.65-5.6 1.6-3.95-.05-7.8-1.15l-.5-.15-.4.35q-1.35 1.1-7.1 1.1-9.05-.05-12.75-1.5-3.35-1.3-3.95-4.5-.35-1.9-3.55-4.1-1.95-1.35-6.8-3.85l-5.05-2.85q-2.75-1.95-3.45-6.1-.75-4.15.65-9.75.5-2.05.4-4.6l-.55-4.6q-.5-3.2-.55-4.75 0-2.45.9-4.05.4-.75.45-2.7l-.2-5.1q-.6-9.2.4-10.5 2.25-2.85 3.4-12.65 1.3-11.1-1.7-16.75-1.05-1.9-5.65-2.35-13.75-1.35-49 5.35-34.85 6.65-38.3 10.9-1.05 1.3-2.15 4.75l-1.7 5.95q-2.4 7.85-4.6 11.7-3.8 6.65-10.35 10.3-3.9 2.15-10.4-.7-11.1-4.85-26.65-21.7-5.55-6-10.05-11.8-3.95-5.15-4.25-6.3-1.45-7.1.65-24 2.35-19.25 7.7-30.3 6.05-12.45 22.1-25.3 16-12.85 27.3-14.3 13.6-1.7 28.1-6.75 14.55-5.1 26.7-12.4 5.9-3.5 21.2-15.05L257.9 146q5.9-4.15 7.2-4.15 5 0 20.55 8.15 12.8 6.7 20.1 11.75 4.25 2.95 6.3 43.25t-1.4 52.85q-2.8 10.15-1.3 40.8 1.4 29.15 3.6 32.95 4.1 7.15 9.7 10.7 3.25 2.05 8.6 3.5 2.9.8 3.8 1.45 3.45 2.45 6.15 9.5 3.2 8.25 1.15 14.65-.15.5-1.3 1-2.05.95-5.55 1.1-3.35.1-5-.6l-.8-.35-.45.7"/><path fill="#b94100" d="M183.15 276.25q1.7-2.1 7.15-5.45 8.1-5 17.7-7.5 29.6-7.75 61.85 11-13.75-1.35-49 5.35-34.85 6.65-38.3 10.9-1.05 1.3-2.15 4.75l-1.7 5.95q-2.4 7.85-4.6 11.7-3.8 6.65-10.35 10.3-2.15 1.2-2.3-2.15-.2-3.35 2.6-5.15 5.4-3.45 7.3-6.7 2.05-3.45 1.65-9.05-.3-4.7-2.75-15.05l-5.85-24.6q-.75-3.4 1.6-3.5 2.2-.1 5.85 2.6 9.15 6.75 11.3 16.6m154.05 71.4q3.3 2.4 5.75 9.4 2.8 8.1.75 14.5l-.8.85-1.3.85q-1.95.9-5.85.65-3.45-.2-5.25-1l-.8-.35-.45.7q-1.05 1.65-5.6 1.6-3.95-.05-7.8-1.15l1.6-5V358l-2.9-2.25q-2.85-2.4-5.3-4.25l-3.9-1.15q-3.9-1.25-9.4-5.65-.8-.6-.65-1.2l1.05-1.8q2.9-4.4 4.7-11.15 1.05-3.9-3.1-19.25-4.75-17.7-13-35.8-1.35-2.9-2-26.05-.7-23.2-2.15-26.35-1.65-3.75-5.15-2.7-2.05.65-6.7 4.2-4.7 3.55-6.7 4.2-3.35 1.05-4.9-2.65-.6-1.55 3.4-19.25 3.95-17.7 3.4-19.2-1.4-3.65-5.05-3.95-2.35-.15-7.15 1.3-5.15 1.55-6.8 1.6-3.2.1-4-2.85-1.9-7.1-1.6-12.75.2-3.6 1.7-9l25.85-15.25q3.35 9.3 26 56.2 20.35 44.7 17.55 54.85-2.8 10.15-1.3 40.8 1.4 29.15 3.6 32.95 4.1 7.15 9.7 10.7 3.25 2.05 8.6 3.5l3.25.85q2.15.65 2.7 1"/><path fill="#0d131a" d="M332.25 62.7l.7.55-10.8 18-33.3 2.8-.3-.25q-5.05-4.95-14.65-6.85l-8.55-.85q-11.8-1.85-18.4-17.05-2.05-4.75-3.35-10.25l-.9-4.55 5.85.6 8.85.65 9.5.4q5.5.45 9.5 1.65 2.65.85 4.9 3.85 1.9 2.55 3.25 6.05 12.25-8.4 24.65-6.9Q321.25 52 332.25 62.7"/><path fill="#db4f03" d="M274.85 49.4q2.55.8 5.05 3.9 2.3 2.9 3.1 5.85l2.25 3.15-.15-3.05q13.25-7.7 22.7-6.7 9.2 1 22.5 11.2l-9.35 15.55-31.5 2.7q-5.65-4.5-10.95-6.25-3.15-1.05-8.7-1.55l-4.15-.4q-14.55-2.3-19.45-26.9l11.2.65 8.85.3q4.75.4 8.6 1.55"/><path fill="#b94100" d="M274.85 49.4q2.55.8 5.05 3.9 2.3 2.9 3.1 5.85l2.25 3.15-.15-3.05q13.25-7.7 22.7-6.7 9.2 1 22.5 11.2-18.25-8.55-30.3-4.4-4 1.4-7.85 4.45l-5.1 4.2q-9.35-14.9-25.9-17.4l-10.2-.95q-4.3-.55-4.75-2.75l11.2.65 8.85.3q4.75.4 8.6 1.55"/><path fill="#0d131a" d="M271.05 68.5q-4.1-.55-5.7-1.45-2.4-1.4-6.3-6.75-3.85-5.2-4.45-7.8l-.3-1.4 1.4.15 8.7 1.75q7.3 1.7 8.95 2.65 2.8 1.6 5.5 6.8 1.85 3.5 2.25 5.2l.45 1.35h-1.75l-8.75-.5"/><path fill="#fff3c2" d="M266.1 65.8q-2.55-1.45-5.8-6.1-2.5-3.6-4.3-7.25 3.2.6 9.1 2.4 5.9 1.75 7.25 2.55 1.8 1.05 4.1 4.75 1.8 2.95 2.9 5.75-8.45.2-13.25-2.1"/><path fill="#dbd2a9" d="M256 52.45q3.2.6 9.1 2.4 5.9 1.75 7.25 2.55 1.8 1.05 4.1 4.75 1.8 2.95 2.9 5.75-5-6.6-14.2-10.45l-5.85-2.4q-2.65-1.25-3.3-2.6"/><path fill="#0d131a" d="M325.75 58.75l-.55 7.7-1.45-.1q-3.65-.2-12.7 1.7l-6.35.9-3.35-1q-2.45-.95-3.7-1h-1.5L298 63.2q2.15-4 3.5-5.3 5.05-4.9 11.85-4.8 6.15.1 10.05 3.9l2.35 1.75"/><path fill="#fff" d="M302.9 59.35q5.05-5.4 12.75-4 6.2 1.15 9 4.65l-1.15 1.95q-1.2 1.95-1.1 2.4-2.15.05-9.45 1.75l-7.25 1.65-3.25-1.25-3.3-1.3q1.8-3.95 3.75-5.85"/><path fill="#0d131a" d="M128.35 245.1q1.15 5.9 2.75 10.05 2 5 5.2 8.95-3.1-1.9-4.35-2.45 1.05 4.1 4.85 7.8l7 6.15-2.2-.1-2.2-.3q1.55 2.15 5 3.85 2.25 1.1 6 2.2-6.5 2.15-14.65-1.1-6.6-2.7-12.6-8.1-4.4-3.95-6.6-10.25-1.85-5.35-1.85-11.55 0-7.85 4.95-19.75l4.9-10.35q0 5.65 1.25 12.55l2.55 12.4"/><path fill="#0d131a" d="M127.35 245.3q1.85 9.55 5.6 15.75l-2.5-1.15.55 2q.9 3.55 3.5 6.6 1.6 1.85 5.25 4.9l1.1.95-3.7-.5 1.45 1.9q2.15 3.05 7.85 5.25-5.5.45-12-2.6-5.6-2.6-10.65-7.1-4.75-4.25-6.75-11.2-1.35-4.55-1.35-9.55v-.3q.05-8.85 8-26.05.45 5.75 2.5 15.45l1.15 5.65m11.5-31.8q-1.55-5.6-.5-8.75 3.15-2.5 7.75-5.55 9.2-6.15 16.45-9-2 3.15-.7 6l2.2 4.7q.7 4.75 3.6 12.6 3.4 9 4.2 12.4-.85-1.1-1.6-2.8l-1.35-2.95q.3 13.6.55 16.65.75 9.1 3.4 16.25-4.75-1-8.15-5.65-1.35-1.95-4.85-8.95-.3.85-.3 2.15v2.15q-2.25-2.25-3.65-6.6-.8-2.4-1.8-7.5-1 1.9-1.4 5.05-.25 1.75-.35 5.25-3.3-3.2-6.05-8-1.7-3.05-4.35-9.1-2.2-5.1-3.1-8.35"/><path fill="#0d131a" d="M160.3 193.85q0 1.9 1.55 4.4 1.05 1.8 1.2 2.8.8 5.25 4.35 14.55l1.6 4.35-1.1.25.1 3.95q.1 8.9.55 13.75.7 7.45 2.7 13.6-3.25-1.25-5.75-4.8-1.55-2.15-3.95-7.1l-1.9-3.9-.75 2.45-.3 1.65q-1.2-2.05-2.15-5.25L155.2 229l-.7-3.3-1.3 2.45q-1.45 2.8-1.75 8.3-2.5-2.85-4.7-6.85-1.6-2.95-3.85-8.15l-2.5-6.4q-1.45-4.45-1.45-7.35 0-1.3.3-2.35 11.6-8.85 21.3-13.2-.25.75-.25 1.7m12.35-5.75l17.9-4.55.5 5.35q.25 3.75.6 5.4l1.95 7q1.1 4.2.65 7.2-1.5-1.15-3.65-4.8-.75 3.1.3 8.6 1.15 6.2.95 8.65-3.6-1.85-6.45-6.5-2.9-5.45-4.65-7.95l-.55 3.1-.65 3.1q-1.2-1.4-2.2-3.7l-1.55-4.05q-2.15-5.6-2.85-8.3-1.45-5.6-.3-8.55"/><path fill="#0d131a" d="M189.7 184.8l.35 3.85q.2 3.75.6 5.85l1.15 4.1q1.45 5.05 1.55 7.5l-1.85-2.9-1.25-2.25-.6 2.5q-.4 1.55-.4 3.4 0 2.05.85 6.6.65 3.6.7 5.55-1.95-1.4-3.65-3.7l-2.8-4.65-2.8-4.7-1.35-2.05-1.1 6.3q-1.1-1.85-2.05-4.75l-.7-1.8q-3.2-8.55-3.2-12.45 0-1.25.3-2.25l16.25-4.15m10 83.4q-.75-2-.2-3.2 3.75 4.75 7.85 7.35 5.3 3.3 10.15 2.3l-.55-1.35-.9-1.25q3.05.75 13.55 4.05 8.4 2.65 13.75 3.5-26.9 1.4-44.55 5.8-5.4 1.35-10.6 3.2l-5.65 1.95q-1.6.4-.6-1.85L185 283q5.1-9.4 1.85-12.1 3.7 2.2 4.15 1.65.55-.65-2.6-5.5l6.4 3.65q3.3 1.9 5.95.7-.05-.65-1.05-3.2"/><path fill="#0d131a" d="M192.4 270.4q2.7 1.7 4.1 2.2l4.65-.25.6-.3v-.7q-.05-1.05-.85-2.85l-.2-.55q3.5 3.85 7.2 5.85 5.05 2.8 9.8 1.8l.8-.15v-.85l-.25-.9 8.3 2.5 9.6 2.85q-20 1.45-34.35 4.65-8 1.75-16.25 4.75l-2.85 1q.4-1 1.95-3.75l3.05-5.85q1.5-3.5 1.5-5.8l-.05-.8 2.55.05q.4-.5.4-1 0-.85-1-2.7l1.3.8m12.65-80.15q2.7-3.3 3.8-5.3l-2.5.85-2.6.65 8.4-5.95q4.8-3.85 6.85-7.9l48.55-34.05-15 25.9q-4.3.65-15 8.65-3.1 2.35-7.45 6.4l-7.2 6.65q-5.5 4.7-12.6 5.95l-4.8 1.05q-2.65.85-4.25 2.3 1.05-1.7 3.8-5.2"/><path fill="#0d131a" d="M219.75 173.3L264.4 142l-12.35 21.25q-2.65 1.1-6.9 3.6-4.45 2.65-8.2 5.45-3.35 2.5-9.5 8.25l-5.25 4.8q-5.25 4.6-12.05 5.8l-.45.05q-3.2.6-5.05 1.2l1-1.3q2.75-3.3 4.05-5.65l1.3-2.25-1.55.5q3.6-2.5 5.75-4.55 2.95-2.85 4.55-5.85m37.05 13.25l8.3-7.65q4.6-4.1 7.9-5.6l16.75-2.45-4.8 12.15q-5.7 12.65-10.25 15-19.55 10-22.5 11.65-18.55 10.05-20.9 13.75l-.15-2.1-.3-2.1q-2.1 3.95-6.95 7.35-3.95 2.75-9.1 4.7l3.35.15 3.25.45q-.85.45-2.45 1.45-1.45.75-2.8.75l15.55 6.3q8.95 3.85 14.65 8.1l8.9-10.5q5.8-6.95 8.4-10.9L262 231.4q-1.5 3.65-.85 4.55 2.05-1.7 7-7.65 1.5-1.65 4.2-3.75l4.45-3.5q5.1-4.15 10.25-7.35 1.1 1.45 2.1 4.25l1.65 4.55q2.25 5.1 5.75 8.75-8.95 2.85-13.7 4.85-7.5 3.15-12.55 7.15-2.35 1.85-6.25 6.4l-6.1 6.6-4.65 3.2q-3.05 1.95-4.15 3.55l-4-3.9q-2.9-2.75-4.35-3.5-2.35-1.3-6.5-1.95-4.25-.7-6.55-1.85l-7.55-4.95q-3.9-2.9-7.85-4.25l-6.05-2.85q-4.15-1.75-6.05-.35 2.65-4.4 2.75-6.45.1-3.1-3.75-6.6l3 .5 2.9-.05q4.3-1.55 8.05-4.9l5.55-4.95q-1.9.2-4.65.05l-4.65-.3q2.45-1.65 13.6-5.8 11.45-4.25 13.65-5.6 4.65-2.8 3.3-5.7-.55-1.3-3.3-3.25 9.2-.1 20.1-9.8"/><path fill="#0d131a" d="M273.3 174.3l14.95-2.2q-2.7 7.7-6 14.2-4.55 9-8 10.8-1.4.75-2.85 1.45-32.4 16.25-39.3 22.5l-.7-4.95-1.45 2.6q-3.65 6.9-15.5 11.65l.2 1.9 3.7.2-2.2.55-.4 1.95 6.85 2.75q8.05 3.15 12 5.05 6.55 3.05 11.15 6.5l.8.6 4.85-5.8 8.85-10.65q-.3 1-.3 1.7 0 .9.4 1.45l.6.85.85-.65q1.6-1.35 5-5.4l2.1-2.4q1.7-1.85 5.8-4.95l2.7-2.15q4.4-3.55 9.3-6.7.95 1.55 1.95 4.45l1.25 3.35q1.8 4.15 4.9 7.8-8 2.55-12.75 4.6-7.35 3.15-12.35 7.1-2.35 1.85-6.95 7.15-3.75 4.35-5.5 5.9l-3.45 2.45q-3.4 2.1-4.75 3.6l-.5-.55q-5.25-5.25-7.25-6.3-1.65-.9-3.6-1.4l-3.35-.65-3.05-.6q-1.65-.4-3.1-1.15-2.7-1.35-6.4-4.15l-3.95-2.75q-2.35-1.4-5.2-2.35l-2.9-1.35q-2.45-1.25-3.7-1.7-2.15-.85-3.7-.85 1.65-2.95 1.65-5.05 0-2.4-2-4.9 2.2.35 3.5-.05 3.3-1.2 6.1-3.2l4.2-3.7 3.5-3.05 3.25-2.2-3.9.35q-1.75.2-5.6 0 3.75-1.7 11.3-4.45 10.65-4 12.9-5.35 4-2.5 4.05-5.15v-.1q0-1.9-2-3.8 6-.8 12.25-5.1 3.9-2.7 10.2-8.7l5.9-5.25q3.15-2.6 5.65-3.75M55.15 287.05q.65-.85 3.9-1.9 4.6-1.5 8.85-.35 11.2 2.9 16.05 6.75 7 5.55 7.2 16.2.15 7.05-4.55 22.35-4.9 16-8.75 18.75-3.1 2.3-7 3-3.85.65-7.2-.5-3.7 2-8.3.9-2.3-.55-5.45-2.2h-1.25q-6.95-.05-11.4-4.95-4.15-4.5-4.15-10.55 0-5.55 6.15-12.45l6.15-5.8q4.6-5.05 7.05-11.9 2.4-6.85 2.4-14.9v-.4l.3-2.05"/><path fill="#db4f03" d="M67.4 286.75q10.7 2.75 15.15 6.3 6.4 5 6.6 14.7.15 7.1-4.6 22.15-4.8 15.05-7.9 17.35-2.85 2.05-6.3 2.65-3.45.55-6.35-.55l-.35-.1-.35.1q-3.95 1.4-8.85.15l-4.1-1.5-3.1.05q-4.6-.25-8.05-4.5-3.25-4.05-3.25-8.85 0-4.5 5.75-10.95l5.7-5.6q9.85-10.75 10-27.75 1.55-1.6 3.55-2.7 3.35-1.8 6.45-.95"/><path fill="#b94100" d="M67.4 286.75q10.7 2.75 15.15 6.3 6.4 5 6.6 14.7.15 7.1-4.6 22.15-4.8 15.05-7.9 17.35-2.85 2.05-6.3 2.65-3.45.55-6.35-.55l-.35-.1-.35.1q-1.1.4-1.15-.3-.05-.5.65-2.4 2.6-6.85 3.5-11.1 4.4-21.4-8.9-45.15 1.55-1.6 3.55-2.7 3.35-1.8 6.45-.95"/><path fill="#0d131a" d="M58.45 336.7q.15-3.15.8-3.15t.7 3.05q.1 3.9-3 8.4-3.25 4.85-7.05 5.05-.4 0-.2-1 .25-1 .65-1.05 2.45-.2 5.25-4.2 2.7-3.85 2.85-7.1m13.15.95q.65-2.1 1.35-1.85.7.25 0 2.3-2.55 9.3-9.3 13.25-.35.2-.35-.9 0-1.05.35-1.2 2.2-1.05 4.15-3.85 1.9-2.8 3.8-7.75m71.2 25.6q1.55.95 2.2 2.15 1.35 2.6 2.3 8.5 1.05 6.65-.65 7.65l-1.15-1.05q-1-1.15-.3-1.8.75-.65-.15-5.7-.85-4.85-1.85-6.65-.4-.8-1.65-1.5-.7-.4-2.6-1.15l-2.85-1.2q-1.5-.8-2.35-1.8-1.85-2.25-1.25-2.8.65-.6 2.8 1.5 1.2 1.15 4.35 2.45l3.15 1.4m6-7.15q-2.8-1.9-2.35-2.55.45-.7 3.5.85l1.85.65q5.05 1.2 9 6 1.4 1.7 1.75 8.45.35 6.9-1.05 8.9-.2.3-.65.2l-.8-.2q-.35-.1-.4-1.05-.05-.9.25-1.2.8-.65.45-6.55-.35-5.85-1.2-7.4-1.85-2.6-4.2-3.85-1.25-.75-3.65-1.35l-2.5-.9m167.45 2.6l-.85-.85q-3.65-2.35-4.5-3.85-1.05-1.85-.7-2.15.35-.35 1.95 1.2l4.5 3.25 1.45 1.6q.3.6.25 2.05l.1 3.7v5.65q-.2 3.15-1.35 5.2-.45.85-1.35.4l-.5-.6q-.1-.4.1-.75.95-1.75 1.15-4.6l-.05-5.2-.1-3.85-.1-1.2m9.95-5.65q2.8.7 3.45 1.1l1.2.9.55 1.1.3.9q1.7 3.95 1.65 8.4-.05 4.4-1.85 8l-.6.5-.75-.05-.5-.6q-.15-.35.05-.75 1.6-3.2 1.65-7.15.05-3.95-1.5-7.55l-.4-1.05-.2-.5-.65-.45q-.45-.3-3-1.15l-3.3-1.15q-3.45-1.4-3.2-1.9.3-.5 3.7.55l3.4.85m-48.5-72.55l-.9-1.15.9.9v.25l4 3.85q3.75 3.25 5.1 4.95l-.6-4.75q4.6 4.25 6.7 6.65 3.6 4.1 5.05 7.95l2.9-6.5q1.9-4.2 4-5.5l-.35 2.15q-.2 1.3.4 1.95 1.1-.85 2.55-3.25 1.5-2.4 2.55-3.25-.45 1.65.75 14.1.65 12.45-2.55 15.85.2-4.45-.9-6.35-2.25 2.85-4.4 8.05l-3.55 8.6q-.15-5.35-3.7-11.3-2.9-4.85-7.65-9.4l.3 3.45.25 3.45q-1.9-.55-4.9-3.65l-4.35-4.7-3.05-2.75q-1.05-1.2-.85-3.45.3-2.75 1.15-8.2l1.15-7.95"/><path fill="#0d131a" d="M281.4 285.45q3.35 2.85 4.6 4.45l2.3 2.9-.75-5.6q7.35 6.75 9.5 12.3l.75 1.95 1.05-1.8 1.9-4.2q1.7-3.9 2.7-5.4.1 1.2.75 1.9l.6.65.7-.55q1.3-.95 2.85-3.55l.55-.85.35 4.35q.65 7.15.65 11.1 0 4.5-.85 7.55-.25-1.75-.9-2.85l-.75-1.25-.9 1.15q-1.75 2.25-3.35 5.65-1 2.05-2.65 6.25l-.65 1.55q-1.15-5-4.85-10.25-2.75-3.9-6.35-7.3l-1.95-1.9.7 7.75q-2.15-1.45-5.5-5.3l-3.75-3.7-1.35-1.3q-.45-.6-.45-1.6l.05-.8 1.1-8.05.9-5.95 3 2.7"/><path fill="#0d131a" d="M243.15 229.2l1.1-1.85 1.05 3q2.25 6.85 3.8 10.25 2.45 5.25 5.9 9.25 1.95 2.15 2.55 2.05.35-.05 1.1-2.65.75-2.7 1.45-3.95l1.5-2.75 1.1 6.6q1.3 7 2.2 9.15.55 1.25 6.1 7 5.2 5.35 7.25 11.9 2.15 7.2 1.4 14.9-.85 8.7-5.25 15.2-1 1.5.4 9.5.8 4.4.1 10.95l-1.4-3.1q-3.8-3.85-6.95-5.8-4.35-2.7-8.85-2.8-6.2-.15-11.2-1.4-3.8-.95-10.6-3.7-12.45-4.95-17.05-12.35-1.4-2.3-1.85-4.55l-.2-1.8q3.55 1.85 5.75 2.45 3.15.8 4.35-.75.4-.5.15-1.55-.5-1.7-2.75-4.4-1.5-1.8-4.05-3.5l-4.9-2.8q-4.5-2.35-6.75-4.1l-2.2-1.75 3.15-.05q6 .55 1.85-4.45l-5.4-5.05h2.5q.9 0 4.45 1.35 3.45 1.35 5.3 1.9 3.2.85 4.2.05.7-.55.45-2.3-.9-6.25-4.4-11.1-4.05-5.6-9.05-5.05l5.65-4.05-4.7-2.35 3.9-.25q8.2-.45 12.5 2.65l1.05.8 3.05 2.1q1.6.9 2.3.35.5-.3.5-1.5 0-1.35-1.1-5.55-1.05-4.05-1.15-5.45l2.35 1.1q2.55 1.25 3.65 1.5l1.55-.2q.8-1 1.4-2.75l.95-3.2q1-3.75 1.8-5.15"/><path fill="#fff3c2" d="M247.65 242.25q2.4 5 5.85 8.9 2.7 3.1 4.45 2.75 1-.25 1.65-1.35l.9-2.6q.85 5.9 2.65 9.3 1.3 2.45 5.1 6.35l2.85 3.15q2.35 2.8 4.1 8.45 2 6.4 2 12.85 0 9.55-4.5 16.1-.8 1.3-.8 3.65 0 2.5.95 7.35l.65 4.7q-3.65-3.5-6.95-5.3-4.3-2.4-8.8-2.5-6.8-.15-11.6-1.55-4.3-1.3-11.3-5l-2.5-1.25Q227.2 303.6 225 302q-3.45-2.65-4.95-6.1 2.6.85 4.8.8 2.55-.1 3.65-1.5.65-.8.65-1.95 0-2.6-3.35-6.55-1.7-2-4.45-3.8-1.45-1-5.05-2.95l-4.05-2.3q2.65-.35 3.2-1.75l.15-.8q0-1.95-3.3-5.5 4.15 1.65 6.25 2.1 3.55.75 5.15-.5 1.25-1.05 1.25-3.1l-.05-1.1q-.75-5.35-3.55-10.1-3.25-5.5-7.65-7.15l2.6-1q1-.55 1.05-1.45v-.15l-.15-.65q5.45.1 8.4 2.3l1 .75 4.05 2.65 3.75-.15q1.35-1 1.35-3.15 0-1.65-1.2-6.05l-.45-1.75q1.45 1.05 2.9 1.35 2.4.55 3.6-.9.95-1.2 1.65-3.15l1.05-3.55.6-2.25q2.1 6.2 3.75 9.65"/><path fill="#dbd2a9" d="M223.6 276q1.35 2.55 17.15 14.55 12.25 4.2 4.7 6.3l-6 1.35q-2.8.7-1.3 1.5l18.6 8.6q-1.85-3.25-.2-3.5 1.55-.2 4.95 2.2 8.85 6.15 12 14.85-3.65-3.5-6.95-5.3-4.3-2.4-8.8-2.5-6.8-.15-11.6-1.55-4.3-1.3-11.3-5l-2.5-1.25Q227.2 303.6 225 302q-3.45-2.65-4.95-6.1 2.6.85 4.8.8 2.55-.1 3.65-1.5.65-.8.65-1.95 0-.95-3.05-9.8l-2.5-7.45"/><path fill="#0d131a" d="M56.2 195.45l2.4.3q3.2.35 7.75 1.6 6.05 1.7 8 3.5 6.9 6.45 7.6 6.15.85-.3.95-1.35l-.05-3.2q6.9 4.35 14.05 16.7 4.05 6.9 11.2 20.7l.95-8.6 4.25 4.9 1.1-4.75 1.55.85q1.85 1.3 3.65 3.45 5.65 6.8 8.1 19.4 1.65 8.85 2.15 13.6.75 7.25 1.6 10.7 1.4 5.75 4.5 10.2 8.9 12.8 17.75 18 6.7 3.9 12.95 3.25 4.4-.5 7.85-3.15 2.85-2.15 3.8-4.55l1.95.3q1.55 17.65-9.85 27-9.7 7.95-26.45 8.45-26 .8-48.5-11.75-24.4-13.6-42.25-41.6l6.65 4.75q2.35 1.75 4.2 2.35 1.6.45 1.95 0 .25-.25-.1-1.2-.55-1.2-1.95-2.7l-2.25-1.9-2.45-1.8q-12.35-9.7-16.45-14.8-4.65-5.85-5.5-13.85 1.75 2.45 3.55 3.9 2 1.55 3.15 1.1.6-.15.1-2.45-.45-2.15-2.5-4.8-1.85-2.45-2.95-7.1l-.7-4.15q8.55 6.65 9.9 6.05 1.7-.75.5-4.15-3.95-10.9-8.65-18.4-6.65-10.75-13.2-11.7l-2.75-.4 3.15-1.75q2.95-1.75 6.95-1.7 2.4.05 6.2.95l3.4.5.5-1.2v-.25q-.3-1.2-3.6-2.55l-2.1-.9 2-.95q4.3-2.05 9.25-.4 2.8.95 7.35 3.95l3 1.75.05-.65-.2-2.05-.3-1.8 1.7.7q3.35 1.35 3.8.9l.05-.25q0-1.95-6.4-10.15l-2.35-3"/><path fill="#fff3c2" d="M84.55 205.75q4.35 4.3 18.7 29.9l2 3.55q1.95 3.35 3.55 2.85 1.5-.5 1.5-4.6l-.05-1.95 1.9 2.35q1 .8 1.9.5 1.4-.4 1.4-3.95v-.1q5.7 4.6 10.3 21.35 1.3 4.8 2.1 13.25l1.3 11.4q1.25 6.45 4.4 11.05 9.35 13.35 18.8 18.85 7.25 4.2 13.95 3.45 3.55-.35 7.05-2.6 2.75-1.7 4.8-4.1-.6 7.05-2.6 11.9Q172 327.25 164 331q-28.45 13.3-64.5-6.05-13.05-7-24.55-17-9.6-8.35-13.25-14.15 4.15 2.1 5.8.2.6-.65.6-1.65 0-2.2-2.7-5-1.75-1.8-5-3.95-6.65-4.55-12.35-11-5.75-6.45-7.1-10.85 2.95 2.25 4.75 1.4 1.45-.6 1.45-2.8l-.25-1.85q-.4-2.05-2.8-5.55-1.75-2.65-2.15-3.8 1.7 1.5 3.45 2l3.3-.15q2.6-1.2 2.6-4.7l-.25-2.05q-1.5-7.45-7.05-16.75-6.6-11.15-13.6-14.05l4.8-.3 4.45.8 3.3.6q1.4.05 2.05-.8 1-1.3 1-2.45l-.15-.8q-.35-1.5-2.55-2.8 3.1-.65 6.75.9 2.15.9 5.7 3.3l3.05 1.85q1.3.55 2.2 0 .95-.6.95-2.45l-.1-.75q3.55 1.2 4.65-.25.45-.6.45-1.35 0-1.55-1.6-4.3l-4.5-6.3q3.7.7 7 1.75 3.9 1.25 5.15 2.4l1.55 1.5 4.85 4.25q1.95 1.35 3.3.85 1.4-.55 1.85-3.15"/><path fill="#dbd2a9" d="M72.15 260.5q.3 3 5.1 10.95 5 8.4 11.8 16.8 17.85 22.2 30.2 23.45 8.7.85 7.95 2-.45.7-4.65 2.3-6.6 3.5 25.6 7.25 9.75 1.15 19.9-6.5 4.6-3.45 10.1-9.8-.6 7.05-2.6 11.9Q172 327.25 164 331q-28.45 13.3-64.5-6.05-13.05-7-24.55-17-9.6-8.35-13.25-14.15 4.15 2.1 5.8.2.6-.65.6-1.65 0-2.2-2.7-5-1.15-1.2-2.25-4.6-1.1-3.6-1.1-6.55 0-1.6 10 7.2l8.6 7.45q-11.15-13.1-11.05-24.1.05-3.55 1.25-5.65 1.15-2.05 1.3-.6"/><path fill="#0d131a" d="M336.15 48.5q5.25-4.1 11.4-6.05 5.85-1.85 11.7-1.55 15.55.75 25.75 8.85 9.25 7.35 7.4 14.15-.7 2.7-5.15 11.3l-8.85 17.6q-12.1 25.65-12.1 42.2l1.2 10.75q.65 10.9-1.8 14.5-1.3 1.85-7.65 5.25-6.5 3.2-7.25 3.7 4.7.55 11.95-2.7l6.25-3.3.9 2.75q.35 3.3-2.3 6.15 1.9-.35 3.6-1.2l-1 4.55q-2.15 4.9-7.65 6.75l9.35 2.55-9.35 4.55q3.9 1.6 5.8 4.45 1.05 1.6 2.2 5.2 1 3.25 3 6.55-2.3-1.1-5.5-2.25-6.45-2.3-10.95-2.6 1.2 1.3 1.85 4.7l.45 3.15q-3.2-1-6.6-1.7-6.85-1.45-7.95-.1h-.05q0 1.05 4.4 5l6.65 5.7 6.95 6.75q4.5 4.4 3.6 11.25-.5 3.4-1.85 5.95l-1.65-2.6q-1.25-1.95-2.25-2.75-.75-.6-3.05-1.65 2.75 6.25 2.75 12.5 0 5.4-2.2 9.15l-1.05 1.7-1.55-2.95q-1.9-4.45-3.35-6.65-1.55-2.4-4.75-5.5.75 4.75.75 9.5 0 11.85-4 17.5l-2.1 2.55-.65-4-1.1-3.15q-.55-1.55-.75-3.25-2.8 7.2-6.05 10.6-4.55 4.75-11.35 4.35l-1.8-.1 1.05-1.5q2.6-3.7 2.6-8.7 0-2.6-.7-6l-1.6-6.1-.65-2.55q-2.2 1-5.25 5.3-2.5 3.5-4.15 7.05l-1.6 3.5q-.7-1.1-1.1-2.8-.85-3.45.5-6.45l.8-2.05.25-2.05q-2.3.85-4.6 4.05l-4.3 6.65-6.7 9.7q-1.8-3.4-3.6-7.9-3.65-9.05-3.65-14.75 0-8.75 4.4-16.2-1.05.55-5.35 4.65l-4.1 4 .35-3.1q.1-1.55.65-3.55 1.2-3.95 3.75-6.45-8.05 1.75-17 8.45l-1.8 1.35q.05-4.25 1.35-9.9 2.55-11.2 8.65-17.9-2.7.7-4.2 1.3-1.6.6-3.6 1.8l-1.5.95q.35-2.7.6-3.3.6-1.55 2.75-3.6-9 2.05-16.9-2.1-2.45-1.25-4.55-3l-1.55-1.5 9-3.15q9.55-3.75 12.6-6.9-7.1 1.15-12.85-1.3l-4.3-2.65 9.7-2.7q10.95-4 17.25-10.65-7.7 3.15-14.25 2.85l-5-.9 3.05-2.1 4.8-3.65h-.15q-12.05.25-19.6-2.3-2.4-.85-4.05-1.8l-1.15-.85 8.45-5.8q8.25-6.5 7.2-9.75-.7-.55-6.05 1.25l-5.15 1.9 2.8-5.3q3.7-6.5 8.25-12.4-2.6-1.35-8.75-2.25l-5.6-.65q12.45-6.9 12.3-7.95-.4-2.4-8.6-.4-8.25 1.95-10.15 5.1-.9-2.75-.15-6.45 1.45-7.35 9.65-11.8 2.9-1.5 2.3-3.6-.3-1.05-9.8-.65l5-4.25q6.25-4.2 12.5-3.75 2.85.2 5.4-1.8 2.5-2 2.4-4.2-.05-2.25-4.3-5.25-4.75-2.9-5.85-3.85l5-1.4q5.85-1.45 10-1.75 7.95-.55 14.3-3.85 2.1-1.1 2.1-1.55 0-.35-2.05-2.95-2.3-2.8-2.65-3.55l5 .75Q286.4 69.1 285.9 67q-.45-1.95.1-4.8l5.1 3.05q6.65 3.5 14.45 5.55l6.25 1.9q13.8-16.05 24.35-24.2"/><path fill="#fff3c2" d="M387.55 68.85q-11.05 21.05-16.65 36.1-6.6 17.7-6.6 29.25 0 1.65 1.1 12.4.7 10.35-1.2 12.3-1.9 1.95-9.55 5.15l-5.15 2.3q-2.4 1.25-3.25 2.3l-.65.8.85.65q5.8 4.1 20.45-3.55-.6 4.1-4.85 8.2l-2.45 2.3 3.3-.6q2.1-.4 4.9-1.7-1.45 2.6-3.95 4.15-2.85 1.8-6.6 1.85l-3.65.15 3.2 1.75q2.2 1.25 4.1 1.9l3.65.9-1.55.7q-2.45 1.25-5.25 2.2l-3.05 1 3.05.9q4.9 1.5 7.1 3.75 1.35 1.4 2.7 4.75l1 2.45q-4.45-1.6-8.75-2.55l-7.45-.45-1.6.55 1.3 1.15q2.9 2.55 4.35 5.95l-1.7-.6q-4.15-1.45-6.15-1.65-3.45-.3-5.25 1.8-.5.55-.5 1.35 0 1.75 2.9 4.95 2.1 2.35 7.65 7.3 5.35 4.8 6.75 6.5 1.75 2.15 2.4 3.75.55 1.45.55 3.35l-.15 2.75q-1.35-1.7-3.15-2.85-1.75-1.1-4.65-2.15l-2.5-.95 1.3 2.35q3.65 6.85 3.65 13.95 0 3.6-1.05 6.25-1.95-4.25-4.35-7.35-2.35-3-6.5-6.75l-2.4-2.1.75 3.05q1.25 5.4 1.25 12.15 0 8.9-2.45 14.2l-2.1-11.1q-2.05 5-5.15 10.05-6.25 10.1-11.5 10.55 2-3.8 2-8.2 0-2.85-.75-6.4l-1.6-6.25-1.2-4.45-.85.1q-3.8.5-8.65 8.2.65-1.95-.4-6.95l-1.05.1q-3.15.35-6.1 3.95-.85 1.05-5.35 8l-4.15 5.85q-1.75-3.65-2.65-6.7-1.55-5.2-1.55-10.65 0-8.35 3.65-17.15l.55-1.35-1.45-.05q-1.8-.05-4.2 1.7l-4.25 3.75-.8.75q.45-2.2 1.9-4.15l3.1-3.4 2.9-2.8-2.8.25q-8.75.75-19.15 7.95 1.25-6.7 5-14.1 4.05-7.95 8.45-11.3l2.6-2.05-3.3.25q-4.25.25-10.05 3.05l.05-.05 2.05-1.95q1-1.1 1.15-2.1l.25-1.6-1.55.5q-4.75 1.5-10.7.55-5.9-.95-10.05-3.8 6.7-1.95 10.6-3.9 5.95-3 8.95-7.35l1.65-2.3-2.75.8-6.5.6q-4-.15-7-1.1 6.7-1.45 11.2-4.25l.5-.3 6.85-4.65q3.85-3.05 6.15-6.5l1.6-2.35-4.95 1.5-7.05 1.95-7.15.75.4-.25 5.55-4.2 2.05-1.75-5.65-.1-10.7-.5q-6.35-.65-10.1-2.45 4.95-3 8.35-6.15 5.3-4.9 5.3-8.85l-.05-.9q-.15-.9-.9-1.35l-3.15-.2q-1.6.3-4.95 1.5l5.7-8.25 4.65-6.55q-1-.7-2.95-1.55-3.9-1.7-8.7-2.25l4.2-2.5q4.1-2.7 4.15-3.85v-.1q0-1.25-1.95-2.15-2.1-.95-5.55-.95-6.85-.05-11.25 2.7.15-4.3 2.95-7.35 1.65-1.85 5.35-4l2.45-1.6q.95-.85 1.1-1.75l.05-.85q0-1.5-.85-2.5-1.3-1.4-5.1-1.4 3.45-2.2 6.9-3.1 2.1-.55 5.4-.75 3.3-.25 4.65-.85 2.3-1.05 3.55-4 .65-1.6.65-3.05 0-1.45-.6-2.9-1.35-3.35-5.35-5.65 2.9-.85 9.1-1.85l7.6-1.45q4.25-1.05 7.3-2.65 2.9-1.5 3.1-2.95l.05-.4q0-1.05-1.7-2.95l-.7-.8 5.2.7-3.25-4.35q-2.2-2.8-2.3-4.3 4.3 3.15 9.25 4.95 3.05 1.05 8.65 2.2l6.45 1.5.6.2.45-.5q8.9-10.6 25.4-23.35 10.2-7.9 20.45-7.3 7.45.4 16.6 4.15 9.75 4 12.7 8.55 3.6 5.6-.2 12.8"/><path fill="#dbd2a9" d="M360 158.85q2.1.3 1.75.75-1.75 2.2-7.1 4.45l-5.15 2.3q-2.4 1.25-3.25 2.3l-4.45 1.7q-4.1 1.9-2.35 3.1l6.35 6.3 11 2.9q2.2 1.25 4.1 1.9l3.65.9-1.55.7q-2.45 1.25-5.25 2.2l-3.05 1 3.05.9q4.9 1.5 7.1 3.75 1.35 1.4 2.7 4.75l1 2.45q-4.45-1.6-8.75-2.55l-7.45-.45-1.6.55 1.3 1.15q2.9 2.55 4.35 5.95l-1.7-.6q-4.15-1.45-6.15-1.65-3.45-.3-5.25 1.8-.5.55-.5 1.35 0 1.75 2.9 4.95 2.1 2.35 7.65 7.3 5.35 4.8 6.75 6.5 1.75 2.15 2.4 3.75.55 1.45.55 3.35l-.15 2.75q-1.35-1.7-3.15-2.85-1.75-1.1-4.65-2.15l-2.5-.95 1.3 2.35q3.65 6.85 3.65 13.95 0 3.6-1.05 6.25-1.95-4.25-4.35-7.35-2.35-3-6.5-6.75l-2.4-2.1.75 3.05q1.25 5.4 1.25 12.15 0 8.9-2.45 14.2-.85-3.8-1.2-9.75l-1.95-.3-.65 1.7q-3.05 7.95-5.35 11.4-4.05 6-9.6 6.45 2-3.8 2-8.2 0-2.85-.75-6.4l-1.6-6.25-1.2-4.45-.85.1q-3.8.5-8.65 8.2 1.35-4.05 1.35-6.15 3.25-4.2 6.15-10.2 5.9-12.05 4.5-21.2-.5-3.1-11.65 3.55-10.35 6.75-8.95 5.45 4.85-4.45 11-15.05 6.45-11.05 5.75-14.55-.6-3.05-13 .3l-9.75 3.2q2.5-.9 9.05-11 7.8-9.3 17.7-7.3 5.55 1.1-1.9-16.5l-4.6-10.45q-1.55-3.7.4-1 2.2 3.05 6.05 4.6 3.35 1.3 7.5 1.3 3.3 0 10.15-2.05 6.9-2.05 12.25-2.05l5 .3"/><path fill="#0d131a" d="M385.7 49.05q-.05 2.25-3.9 5.35-3.65 2.9-4.95 2.65-2.95-.45-13.35-13.7-1.3-1.65 3.45-2.7 5.15-1.1 10.6 1.25 5.4 2.35 7.15 4.3 1.05 1.15 1 2.85"/><path fill="#0d131a" d="M384.7 49.05v-.3q0-1.2-1.15-2.25-1.7-1.65-6.4-3.65-3.25-1.45-6.65-1.5-2.8-.1-4.85.75-1 .45-1.25.8l.25.3q9.8 12.35 12.3 12.85 1.2-.05 4.35-2.6 3.35-2.75 3.4-4.4m-16.2-9.65q4.8-.45 9.45 1.6 5.6 2.4 7.5 4.5 1.35 1.45 1.25 3.6-.1 2.7-4.1 5.9-4.1 3.35-5.9 3.05-3.2-.45-13.6-13.6l-.4-.45q-.8-1.15.05-2.3 1.45-1.9 5.75-2.3"/><path fill="#922f00" d="M334.55 83.3q6.4-10 12.3-16.7 6.45-7.35 9.75-7.7 3.5-.35 7.55 1.25l6.15 2.5 6.85.65 5.15.45q1.6.75-.45 5.85l-6.1 12.95q-11.25 23.25-14.2 39.05-2.85 15.55-.1 28.15.5 2.15-.6 3.35-1.05 1.15-2.5.6-2.55-.9-4.45-1.25l-8.65.4-7.6.3q-2.65-.95-8.75-17.1-4.95-13-7.6-22.55-.9-3.15 3.2-12.1 3.7-8.2 10.05-18.1"/><path fill="#0d131a" d="M361.7 60.35l-5-.45q-2.5.25-7.55 5.65-5.05 5.35-11 14.15-7.5 11.05-12.15 20.75-4.6 9.7-3.75 12.75 2.95 10.65 8.05 23.8 5.6 14.45 7.7 15.2l7.1-.35 9-.4 3.1.8q2.5.8 3 .45.75-.45.1-3.6-1.25-6.05-1.25-12.35 0-7.2 1.5-15.3 2-10.7 7-23.15 2.95-7.25 8.8-19.25l3.95-8.35q1.75-4 1.75-5.45l-.1-.5-.05-.1-4.4-.35-7.45-.7q-1.3-.3-4.05-1.55t-4.3-1.7m-5.2-2.45q2.8-.3 5.65.5 1.7.45 4.7 1.8l3.7 1.5 6.95.6 5.25.55q.8.4 1.1 1.25.6 1.6-.85 5.35l-4.85 10.45q-5.9 12.25-8.7 19.1-4.95 12.35-6.9 22.8-2.75 14.75-.35 26.65.9 4.35-.2 5.65l-5.2.15-3.1-.85-8.3.45-4.6.55-3.5-.3q-3.2-1.2-9.9-19.2-4.7-12.6-7.1-21.15-1.1-4.05 4.7-15.75 4.75-9.55 11.5-19.45 4.85-7.15 9.35-12.35 6.85-7.9 10.65-8.3"/><path fill="#0d131a" d="M327.85 93.75q3.6.7 7.45 3.1 3.9 2.35 6.75 5.65 2.75 3.1 4 6.45 1.2 3.3.8 6.4-.75 5.25-5.15 7.7-3.75 2.05-9.05 1.7-5.45-.4-9.75-3l-1.7-5.25q-.7-2.9-.5-5.35.65-7.65 7.15-17.4"/><path fill="#0d131a" d="M327.25 94.65q3.45.6 7.3 2.9 3.9 2.35 6.75 5.6 2.6 2.95 3.75 6.1 1.2 3.1.8 5.95-.65 4.8-4.75 7-3.45 1.85-8.35 1.55-5.95-.4-10.35-3.45l-1.25-4.65q-.6-2.65-.45-4.65.55-6.8 6.55-16.35"/><path fill="#0d131a" d="M329.75 113.45q4.85 1.95 6.9 4.4 4.9-1.3 10.15 1.6 4.05 2.25 7.3 6.25 3.35 4.1 4.95 10.75 1.6 6.7.4 11.75-.8 3.25-2.55 5.3-1.35-.7-3.25-1.15l-3.25-.25-8 1.05-4.4.2q-3.3-1.65-9.15-17.4-3.9-10.5-7.7-23.55 3.2-1.15 8.6 1.05"/><path fill="#ed8599" d="M338.65 123.2l1.35 2.55q.65 1 .8-.3.15-1.3-1.7-4.15l-1.85-2.6q3.15-1.25 8.45 2.5 4.2 3 6.7 6.5 3.2 4.5 4.65 9.8 1.65 5.95.3 10.55-.85 3-2.35 4.8l-2-.7q-1.65-.4-3.45-.05-9.8 1.95-11.95.85-2.75-1.4-8.95-17.5-4.9-12.75-7.6-22.15 3.5-1.2 8.7 1.35 5.85 2.85 8.9 8.55"/><path fill="#0d131a" d="M321.85 57.45q.95 2.6-.05 4.95-.95 2.35-3.25 3.1-2.3.8-4.55-.5-2.3-1.25-3.25-3.85-.95-2.55 0-4.9.95-2.4 3.25-3.15t4.6.55q2.3 1.25 3.25 3.8"/><path fill="#fff" d="M320.3 58.8q.1 1-.35 1.75-.45.75-1.2.8-.7.1-1.3-.55-.6-.65-.7-1.65-.1-.95.35-1.7.45-.75 1.15-.85.75-.05 1.35.55.6.65.7 1.65"/><path fill="#0d131a" d="M361.7 60.35l-5-.45q-2.5.25-7.55 5.65-5.05 5.35-11 14.15-7.5 11.05-12.15 20.75-4.6 9.7-3.75 12.75 2.95 10.65 8.05 23.8 5.6 14.45 7.7 15.2l7.1-.35 9-.4 3.55.95 2.7.15q.55-.55.05-3-1.35-6-1.35-12.8 0-7.2 1.5-15.3 2-10.7 7-23.15 2.95-7.25 8.8-19.25l3.95-8.35q1.75-4 1.75-5.45l-.1-.5-.05-.1-4.4-.35-7.45-.7q-1.3-.3-4.05-1.55t-4.3-1.7m-5.2-2.45q2.8-.3 5.65.5 1.7.45 4.7 1.8l3.7 1.5 6.95.6 5.25.55q.8.4 1.1 1.25.6 1.6-.85 5.35l-4.85 10.45q-5.9 12.25-8.7 19.1-4.95 12.35-6.9 22.8-2.8 15.05-.25 27 .85 4.15-.4 5.5l-4.6.1-3.6-1-8.3.45-4.6.55-3.5-.3q-3.2-1.2-10.35-19.2-5.2-13.25-7.5-21.15-1.1-4 5.1-16.3 5-9.8 11.9-20 4.4-6.4 9.4-11.8 6.8-7.35 10.65-7.75"/><path fill="#fff" d="M355.4 70.7q.05-2.25-1.25-6.15l-1.3-3.5q2-1.75 4.15-2.3 2.55-.7 3.55.9 1.15 1.8-.8 5.65-1.8 3.6-4.35 5.4"/><path fill="#0d131a" d="M359.95 61.3l-.25-1.1-.95-.6q-1.8-.3-4.65 1.8 1.65 4 2.15 7.15 1.5-1.6 2.6-3.7t1.1-3.55m-4.5-3.1q2-.85 3.6-.6 1.55.25 2.35 1.5 1.45 2.35-.75 6.65-1.95 3.85-4.65 5.8l-1.05.05q-.55-.25-.55-.9.05-2.1-1.2-5.85l-1.25-3.4q-.3-.6.25-1.15 1.5-1.3 3.25-2.1"/><path fill="#fff" d="M379.05 75q.05-2.3-1.2-6.85l-1.3-4.15q1.6-1.4 4.1-1.15 2.3.3 3.1 1.55.85 1.3-.75 5.1-1.65 3.8-3.95 5.5"/><path fill="#0d131a" d="M380.95 61.9q2.6.3 3.65 1.95 1.15 1.8-.7 6-1.8 4.15-4.3 5.95l-1.05.1q-.6-.35-.5-.95.05-2.15-1.2-6.55l-1.25-4.05q-.15-.7.3-1.1 2.05-1.8 5.05-1.35m1.95 3.05q-.5-.85-2.2-1.05-1.65-.2-2.9.55 1.6 5 2.05 8.3 1.35-1.6 2.3-3.95.85-2.1.85-3.35l-.1-.5"/><path fill="#8a969d" d="M370.2 45.9q-1-.1-2.25-1-1.5-1-1.55-2.1-.15-1.75 4.75-.95 4.85.8 3.8 2.65-.4.65-2.15 1.1l-2.6.3"/></svg>