<svg xmlns="http://www.w3.org/2000/svg" width="362" height="354" viewBox="-0.1 -0.25 361.75 354.1"><path fill="#0d131a" d="M254.45 135.7l-.65-.45.85 1.8q.4.8 1.8 1.9l1.4 1.25-.05-1.4q-.1-1-3.35-3.1m29.5-15.15q.6-2.3 2.35-5.65l1.7-3.05q.6-.9 1.65-.6 1 .35.9 1.45l-.5 6.9q-.45 7.3-.2 9.9.15 1.25.65 1.9l1.45 1.1 2.1 1.25q1.45 1 2.15 2.15 1.8 2.85 2.4 8.8.6 5.5-.25 8.2-.3.95-.1 1.65.15.65.9 1.5l1.15.65 1 .75.4 1.75q-.05.65-.7 1.4l-1.1 1.5q-.6 1.1-.6 2l.3 2.05q.2 1.65-.15 2.6-.45 1.4-1.85 1.45-1.6-.15-2.2 0-1.2.35-1.85.9-.95 1-1.25 2.65-.35 1.6.1 2.6l.95.3 1.15.3 1.55.35q.9.45 1.05 1.5l-.75 1.05-1.4 1.7-1.85 1.95q-1.2 1.35-.55 1.9.45.35 1.7-1.45 1.8-2.6 2.85-3.6 3.1-3 6.55-4.15 4.15-1.6 4.15-1.25l-.75 1-.8.95q3.3-1.6 9.2-3.8l2.35-.4q1.8-.25 1.85 0 .1.45-1.35 1.5l-1.9 1.3-12.85 10.05q-2 1.6-3.95 4.65-1.65 2.45-2.2 4.15-.35 1.15-1.25 1.75l-1.8 1.05-.95.7.05.3q.35 1.5-.1 3.95l-1.05 1.1-1.15.95q11.75 19.25 15.25 38.2 5.3 28.4-9.55 50.3-18.85 27.75-45.45 34.8-11.35 3-26 2.9L197 328.3q-24.2-2.75-45-18.25-6.6-4.95-12.15-10.7l-4.65-5.2.85-4.15 81.2-21.85 1.4 5.9 2.3-2.1q.25-.85 0-1.65-.25-.7-.65-1.05l11.4 5.65q11.4 5.6 23.5 1.9 14.6-4.45 24.9-21.7 6.8-11.4 5.6-26.6-.9-11.55-5.95-23.05-3.7.15-4.2.7-1.45 1.65-2.75 2-2.75.85-6.95-2l-.2-.15q-1.35-.9-1.15-3.8l-.15-1.5-.45-1.1q-.4-.45-1.25-.8l-2.05-.85-2.05.2-2.45 1.05q-2.85 1.7-3.5 1.85-2.2.55-3.55-3.05l-1.1-4.25-.25-.75-1.15-2.45q-.55-1.4.3-2.75.5-.85 1.05-4.15.55-3.3.5-5.1l-.05-2.05q0-1.45.6-2.75.35-.75 1.35-2.15l1.65-2.65.5-1.95-.25-1.75q-.5-1.95-.4-3.4l.15-2.45q.1-1.45.55-2.55.2-.5 1.35-2.45.8-1.4.75-2-.1-1-1.75-5.65-1.65-4.4-1.95-6.3-.3-1.95-.3-4.25l.05-2.05q.05-.55.55-.95l-4.45-3.9q-.4-.35-.45-.85-.1-.55.25-1 .25-.4.8-.55l.95.15q4.65 2.35 5.95 2.65l2.65-.05 1.2-.2q2.65-.4 5.75 2.7l.4.45-.65-5.4q-.15-2.15 1.55-6.75 1.3-3.3 3.2-7.1.8-1.6 1.3-6.3l.4-6.5q0-1.1 1.05-1.3 1.05-.25 1.55.7l.65 1.7q.65 2 .65 3.8 0 1.3.7 4.7l-.45-4.05q-.05-.55.25-1 .35-.5.9-.6.55-.05 1.05.25.45.3.55.85l.45 2q.6 2.2 1.3 3.7.65 1.45.6 3.4l-.4 3.35-.35 2.25q-.1 1.6 2.75 5.35l1.2 1.6.55.95.15-2.1q.25-3.75.75-5.55"/><path fill="#efe908" d="M281.55 148.35l.9-.5q.35.15 0 1.55-.5 2.05-.45 4.9.05 2.65.55 4.5.45 1.55 1.45 2.85.85 1.2.9 2.3.05 2.6-.4 4.9 0 .5.35.7.3.2.95-.35.65-.8 1.15-2.2.25-.75.05-1.8-.1-1.3.4-2.3l.8-1.65q.45-.9.9-.75l.15.85-.25 2.55.6.9.25 1.5q-.1.8-1.4 3.8l-1.15 3.35q-.55 1.7-.45 2.55.25 2.35.95 2.35l.4-.65.4-1.35 1.6-3.05q.5-.85 1.9-2.25-1.1 2-1.1 4.15 0 .95.5 2.2.35.8 2 1.15 1.6.25 1.7.95.1.8-1.1 1.8l-1.9 1.65q-.75.95-.8 1.95-.1 1.15.8 1.75 1 .7 2.9-1.95l2.85-3.85q1.6-1.35 6.9-3.9l-3.2 2.75q-.7.6-1.35 1.75l-.5 1.05 2-1.35q2.4-1.55 4.25-2.6 3-1.6 9.9-4.15l-13.15 9.45q-2.35 1.85-4.55 4.55-2.05 2.6-2.6 4.25-.45 1.25-2.1 2.6l-2.3 1.75q-.45.5-.25 1.45l.05 2.5q-.2.85-1 1.55l-7.4-8-3.2-2.85-1.75-1.25 3.65 4.95-2.8.3-.65.85-2.05-3.75.2 1.7q.45 2.3 1.55 5.5l-2.15.2-1.3.4-.85-.05q-1.45-1.25-1.55-1.75-.05-.3.2-.6l.35-.45q.6-1.15.4-3.2-.2-2.05-1.05-3.1-.8-1.05-2.95-2.35-2.3-1.35-3.65-1.35-.5 0-1.6.55l-1.75.8q-.95.25-1.6-.85-1.1-2.1-1.7-4.75-.6-2.8.05-3.45.75-.75 4.4-2.4l2.55-1.45q1.1-.75 1.35-1.55.6-1.65-1.3-4-2.5-3.05-1.1-5.85.6-1.3 2.9-2.15 1.4-.55 2.9-2.15l1.55-2.85 1.3-3.95q.5-1.8.95-1.8.3 0 .4 1.4.1 1.85-.2 3.65l-.4 2.4q-.1.7.1.9.35.35.85.25 1.4-.35 2.3-1.55 1.05-1.5 1.55-4.6.4-2.4 1.75-4.45l1.25-1.5"/><path fill="#e50020" d="M285.25 120.9q.6-2.2 2.35-5.45l1.6-2.85-.5 6.9q-.5 7.4-.2 10.15.25 2.45 2.2 3.75 2.65 1.75 3.55 3.15 1.7 2.7 2.6 8.25.9 5.4.2 7.7-.55 1.8.65 3.5l1.85 2.5q.45.95.15 1.4-.6.7-1.05 1.6-.45.95-.45 2.4 0 1.75-.5 3.1-.5 1.55-2.25 2.1-2.25.7-2.95 1.4l-.8 1.05q-1.6 1.7-2.75 4.35l-.6 1.9-.45.9q-.3.1-.6-.55l-.5-1.8q-.15-1.05.25-2.5L288 171l1.05-2.6.6-2-.05-1.2-.4-.55q-.4-.6-.4-1.2l.25-1.85q.15-.8-.05-.85-.45-.1-1.25 1.75-.75 1.6-.6 2.6v1.75q-1.1 3.1-2.25 2.9-.85-.15-.4-1.9l.25-3.5q0-1.4-.7-2.4-1.1-1.45-1.4-2.5-1.1-3.85-.9-7.35.05-1.15.6-2.95.7-2.35-1.4.15-1.55 2.05-2.1 4.5-.9 4.2-2.05 5.6-.35.4-1.1.8-.85.45-1.4.4l-.6-.4-.15-.55.7-5.25q.15-2.25-.3-2.25-.25 0-.55.95l-.7 2.25q-1.2 3.8-2 4.75l-1.9 1.75-1.9 1.15q-.9.35-1.35.7-.6.5-1 1.5-.75 1.7-.15 3.35l1.4 2.3 1.15 1.95q.35.9.05 1.9-.2.55-1.4 1.5l-3.35 1.9q-2.3.85-3.55 2.05-1.25 1.3 1.55 7.95.5 1 1.4.75l1.6-.75q1.25-.6 2.15-.6 1 0 3.4 1.5 2.25 1.35 2.95 2.15.7.75 1 2.85.3 1.95 0 2.95l-.7 1.25q-.3.5.1.85l1 .95q.5.45 1.05.35l1.35-.45 1.95-.2 1.1 2.95-.5-.1q-1.15-.25-2.9 1.6l-2.6 2.35q-1.55.4-6-2.55-.8-.55-.75-1.45.1-1.45-.2-2.25-.45-1.3-1.8-2-1.75-.65-2.8-1.25l-3.8.2-3.6 1.45q-1.25.3-2.65-1.7-1.05-1.55-1.75-3.6l-.75-2.65q-.2-1.25.55-2.45.7-1.15.8-5.55l-.1-6.2q0-1.65 1.15-3.3l2.3-3.65q.9-1.85.5-3.85-.55-2.85-.5-3.75.1-1.35 1.55-5 1.35-3.35 1.2-4.7-.1-1.35-1.75-5.85-1.7-4.75-1.95-6.15-.3-1.85-.25-4.1l.05-1.9.25.95q.4 1.2 1.15 2.5.6 1.1 2.05 2.3 1.6 1.3 2.3 2.35.7 1.05.95 2.55.7-4.2.45-6.25-.15-1.35-2-2.8l-3.1-2.05q-1-.7-3.8-3.2l-2.65-2.35 2.45 1.2q2.65 1.3 3.8 1.6l2.25.15 2.1-.4q2.05-.3 4.65 2.3.5.5.75 2.05.3 1.65 1.3 3.05 1.85 2.5 2.1 3.9-1.85-12-2.1-15-.15-2 1.65-6.5 1.2-3.15 3-6.65 1-2 1.5-7.85l.3-5.5.6 1.45q.6 1.8.6 3.4 0 1.35.6 4.5l.75 4.7q.25 2.75.45 2.3.7-.9 1.4-3 .7-2.05-.25-8.05l.5 2.05 1.35 3.95q.7 1.55.4 4.05l-.6 4.25q-.15 1.7 1.45 4.15l2.7 3.7q1.4 2.05 1.6 4.6.95-1.6 1.4-3.7l.3-3.5q.1-2.6.6-4.55"/><path fill="#ddd583" d="M153.25 307.6q-6.6-4.8-12.15-10.2l-4.25-4.5 38.9-10.45q5.5 10.35 14 18.55 13.35 12.8 30.6 16.2 32.75 6.4 62.2-14.3 6.15-4.35 11.5-10.8-18.45 26.45-44.15 32.9-10.85 2.75-24.9 2.55l-26.95-2.05q-23.65-2.7-44.8-17.9"/><path fill="#d18200" d="M179.85 281.45l17.65-4.8q6.8 12.35 20.8 19.85 14.35 7.65 31.65 7.65 15.05 0 28.1-5.9 12.65-5.75 20.4-15.65-6.45 11.7-16.95 18.8-28.95 19.55-60.85 13.3-16.45-3.25-28.3-15.4-6.6-6.8-12.5-17.85"/><path fill="#f29600" d="M278.4 195.25l-.7-3.95 2.05 1.8 1.8 2.55 6.05 8.15q7.85 11.2 13 26.2 4.95 14.4 4.95 24.95 0 14.7-7.1 27.65-7.75 9.9-20.4 15.65-13.05 5.9-28.1 5.9-17.3 0-31.65-7.65-14-7.5-20.8-19.85l20.55-5.55 1.1 1.05q2.8 1.9 11.2 6 12.15 5.95 25.5 1.95 16.1-4.8 27.1-23.15 7.1-11.85 5.4-28.1-1.25-11.7-6.75-24.35-2.75-6.3-4.7-9.6l-.5-2.35 2 2.7"/><path fill="#d18200" d="M189.25 295.85q-4.8-5.75-9.4-14.4l38.15-10.3.15.25q.45.5 2.15 1.5 1 4.4 1 8.9 0 8.45-3.35 16.1-3.25 7.4-9.15 13-11.15-5.05-19.55-15.05"/><path fill="#ddd583" d="M146.6 302.45q-3-5.1-4.5-10.95l33.65-9.05q4.05 7.75 10.2 14.55 9.15 10.3 20.8 15.75-5.3 4.35-11.6 6.7-6.6 2.45-13.65 2.5-18.7-5.95-34.9-19.5"/><path fill="#0d131a" d="M100.05 45.2L85.5 61.3q-.9 1.25-.9 7.05 0 6.5 1.3 13.55.8 4.6 3.6 11.85 2.85 7.5 4.9 10l7.4 8.35 6.85 7.75q1.55 2.25 2.2 7.45 1.4 9.15 2.3 11.8 1.25 3.6 3.1 6.95 1.35 2.4 4.05 6.45 3.65 5.35 8.45 10.25l2.2-.9 2.65-.15q1.35.45 1.9 2.5l.65 3.4 3.15 2.1q.95.65 1.2 1.9.15 1.15-.55 2.1l-7.3 9.45-4.6 11.65q-.55 1.45-2.1 1.7-.7.15-2.05-.5l-1.8-1.2q-5.3-6.4-10.9-11.6-8.4-7.75-13.4-8.7-3.65-.7-7.5.6-1.15.45-6 2.85-3 1.5-4.35 1.85-2.25.6-4-.3-1.45-.75-1.65-2.55l.1-2.3.25-1.1q.45-2.9-1.4-6.35-1.2-2.1-4.65-4.25-5.1-3.25-11.45-3.25-14.65 0-30.9 12.2-9.25 6.9-16 15.05-.25 2.1 0 5.15l.3 3.25q0 2.5-1.2 4.4-1.25 1.95-3 1.95-1.65 0-2.95-1.25-1.65-1.55-1.9-4.5l-.05-.3Q.4 183.75.1 176.85q-.2-4.65 0-5.6.9-6.15 4-19.45 2.9-12.5 5.25-20.7 2.05-7.2 6.6-19.55Q20.2 100 21.5 97.7q1.7-3.05 13.6-16.9 11.75-13.65 14.7-16.05 2.45-2 7.8-4.4l3.2-1.45q2.05-.95 2.5-1.3L75.7 48l12.8-9.75q3.75-2.7 7.15-3.25 3.55-.55 5.3 1.45 1.3 1.5 1.2 3.9-.15 2.7-2.1 4.85"/><path fill="#008086" d="M49.45 86.45q10.95-9.3 12.8-10.1 2.5-.35 7 .8 4.55 1.2 5.4 2.55Q75.2 80.75 81 99l2.75 8.2q1.05 2.75 14.65 14.6 1.75 1.55 4.5 10.95l1.2 4 2.35 9.05 3.2 13.15q1.05 4.05 1.9 4.6 3.35 2.3 7.6 7.15.8.95 3.4 7.3l4.7 11.85-1.75 3.95q-4.1-4.55-9.5-9.4-10.8-9.65-17.3-10.85-6.2-1.15-13.6 2.2l-4.6 2.15q-2.15.85-3.2.3-.55-.3-.75-2.05l-.1-1.65q.35-.8.35-2.2 0-2.75-1.65-5.8-1.4-2.65-5.6-4.95-5.5-3.05-12.55-3.05-14.2 0-29.3 10.25-9.35 6.35-17.4 15.3.55-20.2 1.2-22.65 2.15-8.75 9.2-28.75 9.4-26.55 15.05-33.7 2.4-3 13.7-12.5"/><path fill="#f29600" d="M97.45 43.9Q84.85 57.3 82.4 60.35q-1.6 2.05-1.05 9.7.35 5.1 1.6 11.85.8 4.55 4.05 12.3 3.3 7.8 5.7 10.75l13.7 16q1.4 1.85 2.45 8.2 1.3 7.8 2 9.8 1.3 3.8 2.65 6.75l3.35 6.5q1.85 3.45 6.2 8.7 4.05 4.85 4.85 5.15l1.8-.55q1.3-.65 2.05-.4 1.4.45 1.85 4.15l4.15 2.75-7.5 9.8-1.05 2.6q-6.05-13.65-7.8-15.6-5.35-6.15-8.8-8.45-.95-1.1-4.85-16.4l-2.4-9.2-1.2-3.95-1.85-5.85q-1.1-2.65-2.55-3.95l-7.7-7.5q-5.6-5.75-6.1-7.1l-2.75-8.1Q76.6 78.5 76 77.6q-1.3-2.15-6.75-3.5-4.95-1.2-7.95-.75-1.85.3-13.95 10.9-11.7 10.2-13.85 12.95-6.15 7.8-15.6 36.1-4.75 14.15-8.3 27.05-.8 3.3-1.35 26.15l-.45 8.85q0 1.15-.45 2-.45.8-1 .8-.7 0-1-.4-.55-.6-.7-2.3L4 185.25l-.55-9.75q.05-5.3 2.9-18.95 2.5-12.2 4.85-20 3.5-11.7 8.4-25.05 4.1-11 5.2-13 1.55-2.8 12.75-16.05 11.25-13.35 14-15.55 2.3-1.85 9.1-4.9 3.4-1.55 6.35-2.7l22.15-18.25q2.75-2.3 5.5-3.15 2.85-.85 3.75.4 1.8 2.6-.95 5.6"/><path fill="#00666c" d="M73.55 91.75q-1.15-.55-3.4-1.05l-3.7-.55q-3.5 2.4-12.7 10.25-9.7 8.25-11.6 10.65-5.25 6.65-14.55 32.7-7.1 19.7-9.35 28.45l-.3 4.2q-3.8 3.45-7.65 7.65.55-20.2 1.2-22.65 2.15-8.75 9.2-28.75 9.4-26.55 15.05-33.7 2.4-3 13.7-12.5 10.95-9.3 12.8-10.1 2.5-.35 7 .8 4.55 1.2 5.4 2.55Q75.2 80.75 81 99l2.75 8.2q1.05 2.75 14.65 14.6 1.75 1.55 4.5 10.95l1.2 4 2.35 9.05 3.2 13.15q1.05 4.05 1.9 4.6 3.35 2.3 7.6 7.15.8.95 3.4 7.3l4.7 11.85-1.75 3.95-4.35-4.5q-2.2-5.5-2.85-6.45-3.9-4.5-6.55-6.2-1.75-1.2-2.7-3.75-.7-1.8-2.25-8.3l-2.05-8.45-2.3-8.75-1.25-4.2q-1.2-4.1-2.35-10.05l-.9-5.1-13.95-12q-3.55-3.25-4.6-6.35l-5.85-17.95"/><path fill="#0d131a" d="M354.95 132.9q1.7 4.35 4.25 21.05 2.45 16 2.45 21.15v1.1l-.15 21.85q-.65 6.15-5.2 6.05-2-.05-2.85-1.85-.8-1.7-.8-5.6 0-2.45-.5-4.5-10.05-9.9-21.1-19.75-15-13.3-20.1-15.5-6.15-2.65-15.25-2.3-7.45.35-10.6 1.9-1.45.7-7.1 7.4l-4.35 4.75q-1.5 1.45-2.8 1.6l-1.9-.25-2.95-1.25q-7.6-3.3-11.1-4.25-8.15-2.15-13.8.15-8 3.25-17.85 10-7.5 5.15-10.05 7.7-.85.95-5.15 9.35l-8.6 16.95q-.65 1.2-2.9 1.3-1.6 0-2.5-1.35l-22.65-38.1q-.8-1.3-.1-2.65.75-1.4 2.25-1.5l9.65-.25q2.1-6.15 3.6-7.3.85-.6 3.25-1l4.65.1 8-5.3 12.15-8.8q9.95-7.6 17-16.45 1.25-2.95 4.05-13.25 2.95-10.9 5.55-22.5 2.4-10.75 4-21.55 1.45-9.85 1.3-12.6-.1-1.5-2.95-5.95-3.1-4.9-8.35-11.5-2.1-2.6-2.75-5.5-.8-3.5 1-6.1 1.35-1.95 3.35-2.3 2.2-.35 4.85.9 2.25 1.05 4.15 2.8l8.15 7.85 7.8 7.55q.4.35 3.5.95l4.1.85q1.45.45 11.65 5.7l11.1 5.5q4.9 1.55 10 2.15l4 .55q2.3.4 2.9 1 3.5 3.3 14 21.45l14.6 25.75q4.5 7.75 11.1 16.05l6 7.75"/><path fill="#f29600" d="M343.15 123.2l4.7 6.35 3.85 5.85q1.65 4.15 4.4 19.65 2.75 15.35 2.75 20.05v10.95l-.15 11.1q-.2 1.75-.65 2.55-.6 1.05-1.75 1-.75-.05-1.1-2-.25-1.35-.25-3l-.1-4.45-3.4-36.85v-.2q-4.95-18.3-20.65-45.85-14.25-24.95-22.75-33.4-2.35-2.4-21.05-8.65-17.3-5.85-18.4-5.85-3.1-.25-6.3 1.35-3.2 1.65-4.9 4.4-1.7 2.7-9.1 30.8-2.2 8.55-4.75 25.35-1.45 9.5-1.9 10.4-.8 1.5-12.5 9.9l-5.7 4.2q-1.7 1.4-3.6 4.45-1 1.55-2.85 5.05l-1.1 2.05q-.25.3-2.65.85-4.7 1.15-7.6 2.15-3.8 1.3-9.95 12.3-4.1 7.35-8.6 17.8l-13.35-22.4 11.55-.9 1.15-3.25q1.3-3.35 2.2-4 1.25-.85 4.2-.8l2.65.2 9.45-6.4 11.55-7.9q2.05-1.55 9.75-9 7.65-7.45 8.05-8.3 2.55-5.5 9.45-35.7 7.1-31.2 6.55-36.75-.2-1.95-5.6-9.5l-6.8-8.9q-1.45-1.8-2-4.15-.65-2.5.2-4 .85-1.45 3.4-.45 2.25.85 4.6 3l8.1 8.25 7.45 7.55 4.25.7 5.85 1.25q2.05.7 21.3 9.95l8.7 2.45q6.65 1.7 7.2 2.2 4.75 4.55 20.4 31.25l15.8 27.3"/><path fill="#008086" d="M349.75 154.8l3.1 34.5q-10.4-9.8-19.95-18.1-15.45-13.4-21-15.8-6.75-2.9-16.3-2.25-7.6.5-11.4 2.4-1.65.8-7 6.7-4.95 5.4-6.85 5.75-1.15.25-4.5-1.1l-6.95-2.8q-10.5-3.7-18.25-.55-8.6 3.55-18.75 9.65-8.55 5.15-10.7 7.2-1.3 1.3-8.15 14.15l-6.6 12.6-6.85-11q7.3-18.15 8.1-19.95 4.8-10.7 7.75-11.7 2.1-.75 8.3-2.05l2.5-.65 1.5-1.1 1.3-2.35 2.3-5.3q1.65-3.55 3-4.7l2.55-1.6 3.6-2.25 8.95-6.6q3.65-2.85 4.25-4.1l.9-3.55 1.2-7.55 1.7-11.9q1.15-7.6 2.45-12.55l5.35-20.4q2.4-8.9 2.95-9.8 1.35-2.1 4.7-3.35 3.05-1.2 5.7-.95 2.5.4 18.2 5.8Q304 75.4 305.9 77.3q8.7 8.75 22.9 32.6 16.15 27.1 20.95 44.9"/><path fill="#00666c" d="M344.7 181.75l-1.35-14.95q-4.7-17.25-20.45-43.65-13.8-23.05-22-31.4-2.45-1.7-17.2-6.75-13.2-4.5-17.55-5.6-1.5-.05-3.3.65-1.8.65-2.45 1.4-.75 2-6.2 22.8l-1.6 6.25q-1.6 6.05-3.25 18.15l-.8 5.8-1.45 8.55q-.5 2.7-1.15 3.9-.9 1.85-4 4.45l-10.6 8-4.25 2.65-1.65 1q-17.9 16.1-20.1 16.85-2.8 2.3-11.15 23.65v.05l-4.6-7.4q7.3-18.15 8.1-19.95 4.8-10.7 7.75-11.7 2.1-.75 8.3-2.05l2.5-.65 1.5-1.1 1.3-2.35 2.3-5.3q1.65-3.55 3-4.7l2.55-1.6 3.6-2.25 8.95-6.6q3.65-2.85 4.25-4.1l.9-3.55 1.2-7.55 1.7-11.9q1.15-7.6 2.45-12.55l5.35-20.4q2.4-8.9 2.95-9.8 1.35-2.1 4.7-3.35 3.05-1.2 5.7-.95 2.5.4 18.2 5.8Q304 75.4 305.9 77.3q8.7 8.75 22.9 32.6 16.15 27.1 20.95 44.9l3.1 34.5-8.15-7.55"/><path fill="#0d131a" d="M39.9 192l-1-.2-1.75-1.25q-1.75-2-1.5-4.95.15-2 3.65-6.55 2.9-3.8 4.35-5l.4-.35-2-5.45-.3-.6q-.7-1.45-.8-2.55-.1-1.4.55-3.15 1.2-2.95 4.1-4.15 2-.8 5.7-.7l3.85.45q1.7.7 5.55 6.15l.85.35 1.1.3 3.7-1.75q2.55-1.9 3.75-2.35 1.6-.6 3.6-.05 2.75.7 4.7 5.25 1.7 4.05 1.2 6.4-.2 1.05-1.35 3.45L76 179.7l-.55 1 .15 1.15q10.05 9.05 13.1 8.25l3.9-.95q3.95-1 7.5-2.5 5.85-2.45 10-4.9 1.2-3.15 2-4.35 2.05-2.9 6-4.6 3.35-1.45 10.9-1.6 4.45-.1 7.9.15l3.7.35-12.8 27.5-1.9-.35-8.65-2.8-5.7 2.85-8 3.85-3.4 1.8-2.9 1.75q-4.75 2.5-7.5 2.75-6.3.45-15.25-4.9-5.55-3.35-11.4-8.4-1.85 1.05-3.35 1.1-2.1.1-4.6-1.35-1.45-.8-3.2-3.1l-2.25-3.35-1.2 2.45-.85.9-7.75-.4"/><path fill="#f29600" d="M40 189.4q-.6 0-1.15-.45-1.15-.9-1-3 .1-1.5 1.1-3.1l2.55-3.25 3.2-3.05 2-1.8q.55-.85-2.3-7.5-1.3-3-1.3-4-.05-2.35 3.25-3.7l4.6-.25 3.35.55 2.1 2.4 2.2 2.95q1 1.4 3.55 1.6l4.75-2.3q1.7-1.3 2.95-1.55l2.8.25q1.55.4 3 3.9 1.35 3.3 1.05 4.75-.2 1.1-1.65 4l-1.9 3.75q-.7 1.4.2 3.7l6.35 5.05q7.05 4.9 10.6 3.95l4.65-1.6 7-2.7 10.3-4.35q.25-1.35 1.35-3.1 2.25-3.5 6.8-5.45 3.05-1.3 10-1.35l6.3.2-10.4 22.4-7.35-3.85q-10.3 5.35-16.4 7.85-2.2.95-7.55 3.7-3.5 1.85-5.15 1.95-5.7.45-14.35-4.8-5.3-3.25-10.8-8-.2-.15.5-1.4l.75-1.25-2.65 1.85q-.7.8-2 1.2-2.55.85-5.6-.85-2.6-1.5-4.35-4.3l-1.2-2.5-3.55 3.8-6.6-.35"/><path fill="#0d131a" d="M72.55 172.75l-4.05 2.45q-3.4 1.65-4.7 1.7-.8 0-1.35-.45-.95-1-.25-5.1.65-3.8 1.55-5.3 1.2-1.85 3.25-2.7l3.85-.15q1.75.65 2.55 2.4.7 1.5.4 3.25l-.1.7q-.3 2.25-1.15 3.2"/><path fill="#0d131a" d="M70.7 163.6l-3.55.2q-1.9.8-3 2.5-.85 1.35-1.5 5.05-.65 3.95.15 4.75.35.35.95.35 1.2-.05 4.55-1.65 3.25-1.6 3.9-2.35.8-.9 1.05-2.95l.1-.7q.25-1.65-.35-3.05-.7-1.55-2.3-2.15m-7.35 2.2q1.3-2 3.5-2.85l4.15-.2q1.65.65 2.55 2.15.8 1.35.8 3l-.2 1.75q-.3 2.35-1.25 3.4-.75.9-4.2 2.55-3.55 1.7-4.9 1.75-1 .05-1.65-.6-1.15-1.15-.4-5.5.65-3.85 1.6-5.45"/><path fill="#fff" d="M70 170.15q-.9 1.1-6.7 5.3-.45-.45-.05-3.85.45-3.45 1.2-4.85.85-1.45 2.4-2.2 1.6-.8 2.95-.3 1.45.5 2 2-.15 1.4-.65 2.35L70 170.15"/><path fill="#dbdcdc" d="M71.2 171.6q-.55.7-3.95 2.45-3.55 1.8-3.95 1.4 5.8-4.2 6.7-5.3l1.15-1.55q.5-.95.65-2.35.35.95.25 2.05l-.25 1.9-.6 1.4"/><path fill="#0d131a" d="M39.25 185.4q1-.85 2.85-1.2 1.95-.35 3.4.8 1 .8 1.4 2l2.6 4.1q.55.6 2 1.1l1.55.45-.7 1.45q-1.1 2.25-6.4 1.95l-4.05-.55q-2.1-.65-3.35-2.5-.85-1.25-1.05-2.85-.2-1.55.35-2.7l.15-.25q.5-1.15 1.25-1.8"/><path fill="#0d131a" d="M39.4 185.6q-.65.55-1.2 1.65l-.15.3q-.5 1.1-.35 2.6.2 1.55 1 2.75 1.25 1.75 3.25 2.35l4 .55q5.2.3 6.15-1.8l.65-1.2-1.3-.4q-1.6-.55-2.15-1.15-.7-.8-2.55-4l-.05-.05-.15-.25q-.4-1.15-1.35-1.9-1.3-1-3.1-.65-1.75.35-2.7 1.2m-1.05 7.55q-1.15-1.7-1.15-3.7 0-1.2.45-2.1l.15-.25q.6-1.25 1.3-1.85 1.05-.95 2.95-1.3 1.9-.35 3.3.7 1.05.75 1.6 2.05l2.7 4.25q.5.6 1.95 1l1.5.5.15.1.05.1-.75 1.55q-1.15 2.35-6.6 2.05l-4.1-.55q-2.2-.7-3.5-2.55"/><path fill="#fff" d="M39.15 188.05l.8-1.25q.75-.7 2.25-.95 1.55-.3 2.45.8.5.5.65 1.1l1.1 1.85 1.7 2.5q.8.9 2.6 1.45-9 1.3-11.55-5.5"/><path fill="#dbdcdc" d="M39.6 192.3q-.65-.95-.8-2.15-.1-1.1.25-1.85l.1-.25q2.55 6.8 11.55 5.5-.15.35-.9.65l-4.05.45-3.5-.4q-1.65-.5-2.65-1.95"/><path fill="#0d131a" d="M50.75 163.1q1.55 1.75 1.3 4.05-.15 2.05-1.25 2.9l-2.15 2-2.15 2.4q-.6.95-.7 3.15l-.35 1.3-1.45-.05q-1.3-.4-2.5-1.55-2.4-2.35-2.4-6.35 0-3.8 3.25-8.2.4-.55 1.65-1.05 1.15-.4 2.15-.45 2.8-.15 4.6 1.85"/><path fill="#0d131a" d="M41.95 162.5q.5-.7 1.9-1.2l2.25-.5q3.1-.15 5 2 1.6 1.85 1.45 4.4-.25 2.2-1.45 3.25l-2.1 1.9q-1.7 1.7-2.1 2.35-.55.8-.65 3l-.35 1.3-.15.25-1.75.05h-.1q-1.25-.25-2.7-1.7-2.55-2.45-2.55-6.65 0-3.85 3.3-8.45m6.4 9.25l2.15-2.05q.95-.7 1.1-2.6l.05-.4q0-1.8-1.25-3.3-1.55-1.75-4.25-1.7l-1.95.45-1.5.9q-3.15 4.3-3.15 7.9 0 3.7 2.15 5.9 1.15 1.2 2.4 1.55l1 .05.25-.9q0-2.15.75-3.35.45-.7 2.25-2.45"/><path fill="#fff" d="M48.75 168.3l-3.05 2.75q-2 2.55-.95 6.05v.25q-.95-.3-1.95-1.25-1.95-1.95-1.95-5.35 0-2 1.05-4.4.8-1.8 1.8-3.1.65-.8 2.8-.8 2.4.05 3.55 1.4l.5.65q-.5 2.5-1.8 3.8"/><path fill="#dbdcdc" d="M50.3 168.8q-3.6 2.7-4.65 4.25-.7 1.15-.9 4.05-1.05-3.5.95-6.05l3.05-2.75q1.3-1.3 1.8-3.8.7 1.25.45 2.7-.2 1.2-.7 1.6"/><path fill="#d18200" d="M50.15 180.2q0-3.4 2.55-6.15 2.6-2.75 5.9-2.85-3.75 4.9-3 8.25.5 2.25 4.05 3.8 2.95 1.3 5.8 1.4l-2.2 2.5q-1.3 1.1-3.05 1.1-3.65 0-6.75-2.3-3.3-2.5-3.3-5.75"/><path fill="#0d131a" d="M57.5 172.75q2.4-3.8 2.8-3.4l-2.05 3.55q-2.05 3.95-1.55 6.3.45 1.8 3.6 3.35 2.95 1.45 5.45 1.45 1.75 0 3.75-.85l1.65-.75q-2.25 2.25-5.5 2.25-2.8 0-5.9-1.35-3.65-1.55-4.15-3.85-.6-2.65 1.9-6.7m55.7 52.5l2.75-1.3 32.4 74.1-4.05.5q-3.65.45-6.25 1.25-1.15.4-4.3 2.75l-3.25 2.15q1.5 2.1 2.35 5.9.8 3.55.4 4.85-.5 1.75-1.85 3.05-1.25 1.2-2.75 1.65-5.65 1.2-9 2.6-2.15.85-6.45 3.7l-4.15 2.95-1.65 1.6q-1.25.85-3.05 1.15-1.5.25-5-.85l-3.7.85-3.95 1q-2.65.9-4.6 1.8l-1.95.95q-1.5.7-2.2.55-1.05-.25-.8-2.15.25-1.8 1.35-4.25l1.05-2.1-9.1.45q-1.7.3-3.25.9l-2.2.95-1.85.15q-.5-.3-.35-1.05.2-1.6 1-3.45 1.55-3.75 4.9-6.85l-3.9-.1q-2.8.05-4.5.8-2.55 1.2-1.5-2.2.85-2.75 5.15-6.1 2.4-1.8 5.2-3.15 2.35-1.15 3.95-1.5l.5-.1 1.15-.1 6.2-3.9q2.6-1.8 5.05-4.35l2.3-2.8.5-2.3-2.95-2.2q-2.35-1.85-3.7-3.65-5.2-7-6-12.3-1.45-9.95 6.75-23.95 5.5-9.45 17.35-19.4 9.5-7.2 7.95-6.5"/><path fill="#f29600" d="M106.3 233.4q2.95-2.45 5.8-4.15l2.3-1.25 29.5 67.55q-3.85.45-6.75 1.35-1.55.5-3.95 2.55-2.7 2.3-4.15 3-.85.45-2.65 1.65l-1.6 1.1 1.4.2q1.45.2 1.95.5.6.4 1.25 2.6l.9 4.15q-1 1.6-4.5 3.05-2.5 1-5.3 1.65-2.6.6-5.6 1.75-3.55 1.3-5.45 2.6l-3.75 2.35q-1.8 1-3.2 1.15l-2.5 3.75q-4.4-1.45-10.05-4.35-6.05-3.15-9.25-5.85-3.65-3.05-4.2-5.75l.2-2.1 11.3-7.05q2.95-2.05 5.4-4.8 1.9-2.15 2.4-3.35l.2-1.4 1.95.6 5.3.4-2.75-.6-2.15-.8q-.8-.25-2.05-1l-1.15-.75q-1.7-1.1-4.9-5.4-4-5.25-4.85-11.75-1.45-10.35 5.15-22.4 6.35-11.55 15.75-19.2"/><path fill="#d18200" d="M125.8 315.7q3.5-1.45 4.5-3.05.25 2.1.1 2.55-.6 1.55-2.3 2.5l-2.8 1.05-6 1.85q-1.05.2-5.25 2.75l-5.15 3.2-2.05 1.75q-1.3 1.1-3.1 1.4-1 .15-3.75-.75l2.5-3.75q1.4-.15 3.2-1.15l3.75-2.35q1.9-1.3 5.45-2.6 3-1.15 5.6-1.75 2.8-.65 5.3-1.65"/><path fill="#0d131a" d="M98.85 296.85q-1-.65-.85-.85l1 .3 2.1.7 2.75.25 1.55.2-1.5.4-2.75-.1q-1.15-.2-2.3-.9"/><path fill="#d18200" d="M114.25 290.7q-5.75-8.45-5.75-18.85 0-8.15 3.65-15.3 3.55-6.9 9.7-11.4l22.05 50.4q-3.85.45-6.75 1.35-1.55.5-3.95 2.55-2.7 2.3-4.15 3l-.05.05q-9.1-3.5-14.75-11.8"/><path fill="#fff" d="M79.55 308.65q.7-.2 1.2.6.55.85.75 2.55.25 2.45-.5 5.8H70.25q-1.7.1-4.05.9l-2 .8q-.2-.6.35-1.75 1.05-2.25 4.6-4.9 2.4-1.8 6.3-2.95l4.1-1.05"/><path fill="#dbdcdc" d="M74.75 315.5q5.55-.4 6-1.55h.05l-.35 2.95-10.25.05q-1.6.05-3.6.7 3.15-1.75 8.15-2.15"/><path fill="#0d131a" d="M78.75 308.15l.6-.15 1.35.2q1.2.8 1.5 3.55V314l-1.4-.05v-2.05q-.2-2-.85-2.55-.9-.6-4.45.75-3.5 1.3-5.95 3.1-3.75 2.8-4.55 5l1.6-.55 1 1.15-3.15 1.15h-.55q-.35-.15-.4-.45-.15-1 .4-2.15 1.1-2.45 4.85-5.25 3.3-2.45 10-3.95"/><path fill="#0d131a" d="M70.25 318.3l-2.65.5-1-1.15q2-.65 3.6-.7l10.25-.05.35-2.95 1.4.05-.5 3.75q-.15.55-.7.55H70.25"/><path fill="#fff" d="M79 324.2q-5.6 1.5-8.85 4.2l.85.3-2.3 1q-.1-1 .5-2.55 1.1-3.15 4.35-6.05 2.25-1.95 6.35-4.5l4.3-2.5q.75-.45 2.55 1.25 2 1.8 2.65 4.05l.25.95L87.6 322q-1.35.8-2.45 1L79 324.2"/><path fill="#dbdcdc" d="M75.95 327.05q-1.45.25-4.95 1.65l-.85-.3q3.25-2.7 8.85-4.2l6.15-1.2q1.1-.2 2.45-1l2.05-1.65q.65 2.95.25 5.6l-13.95 1.1"/><path fill="#0d131a" d="M69.6 328.35l.55-.05q4.1-1.7 5.7-1.95l13.4-1.05q.3-3.1-.5-5.7-.55-1.9-2.2-3.55-1.4-1.35-2.05-1.35l-.25.15q-7.2 4.05-10.25 6.75-3.35 2.95-4.3 6.2l-.1.55m2.15.8q-2.6 1.05-2.75 1.2l-.65-.05-.35-.55q-.05-1.15.55-2.85 1.15-3.3 4.55-6.3 3.2-2.9 10.45-6.95l.3-.15q.5-.3 1.45 0 1.2.5 2.65 2.15 1.65 1.8 2.35 3.8.95 2.7.75 4.85l-.45 1.75q-.1.5-.65.6L76.1 327.7q-1.4.2-4.35 1.45"/><path fill="#fff" d="M93.95 320.7q.6-.5 3.25.8 2.8 1.35 3.9 2.95l.2.35-.85-.45q0 1.8-1.8 2.65l-5.95 2.5q-5.45 2.45-7.35 4.3l.45.4-1.8.8q-.4-.65-.25-1.85.2-2.4 2.7-4.95 5.85-6.15 7.5-7.5"/><path fill="#dbdcdc" d="M102.3 328.55l-9.8 3.15q-2.45.8-6.7 2.5l-.45-.4q1.9-1.85 7.35-4.3l5.95-2.5q1.8-.85 1.8-2.65l.85.45q1.3 2.15 1 3.75"/><path fill="#0d131a" d="M100.5 324.85q-.9-1.35-3.3-2.6-2.1-1.1-2.9-1l-7.4 7.45q-2.3 2.35-2.5 4.5-.1.85.85.5l7-2.65 5.7-1.75 3.45-1.3q.5-1.2-.9-3.15m-7-4.7q.4-.3 1.3-.25 1.5.2 3.6 1.4 2.25 1.3 3.25 2.75 1.35 2 1.5 3.7.15 1.15-.3 1.7-.15.25-1.1.4l-3.4.8-5.65 1.7q-2.85.95-5.9 2.2l-2.5 1.05q-.55.25-.9-.25-.45-.85-.35-2.2.15-2.65 2.9-5.45 6.3-6.5 7.55-7.55m76.45-229.7q1.05.25 1.7 1.1.65.85.6 1.95l-.6 16.15q-.45 17.05.1 22.3.7 6.3 4 16.6 3.55 11 7.65 18.4 2.1 3.75 9.05 14.5l11.95 19q6.6 11.05 9.2 17.6 6.25 15.85 8.85 26.1 4.75 18.5 2.85 32.65-2.1 15.4-12.8 24.1-10.5 8.6-27.85 9.4-20.8.95-37.8-6.25-22.35-9.4-35.5-31.9-12.1-20.75-6.55-46.6 4.05-18.85 17.8-40.9 12.2-19.65 14.8-54.1.8-11.3-2.55-29.15l-3.55-15.8q-.1-.65.8-1.35l1.55-1.1q1.2-1.15 2.85-.75l33.45 8.05"/><path fill="#ddd583" d="M117.35 276q17.6 14.7 37.35 18.45 19.8 3.75 34.35-5.05 2.9 8.3 7.2 11.9 2 1.75 5.2 3.2-7.35 3.05-16.8 3.5-18.45.8-33.65-4.9-20.7-7.8-33.65-27.1"/><path fill="#fff697" d="M109.4 219.55q4.5-12.8 11.45-20.45 9.65-10.6 22.7-9.65 15.65 1.2 27.8 24.1Q182.2 234 183.6 256.7q1.3 21 5.45 32.7-14.55 8.8-34.35 5.05-19.75-3.75-37.35-18.45l-2.8-4.45q-13.25-22.65-5.15-52"/><path fill="#d18200" d="M185.9 193.25q0-5.85 3.65-10.7 13.3 20.6 18.1 29.95h-.2q-8.95 0-15.25-5.65-6.3-5.6-6.3-13.6"/><path fill="#f29600" d="M169.2 93.45l-.05 2.35-.2 19.3q0 9.95.35 15.15l.15 1.7q.75 7.2 3.85 17.65 3.4 11.5 7.45 18.8l15 23.85q11.6 18.3 15 26.9 6.3 16 8.95 26.45 4.4 17.45 2.6 30.8-1.3 9.65-6.2 16.6-4.65 6.65-12.35 10.45-3.95-1.5-6.35-3.55-4.8-4.1-7.4-14.15-2.4-9.55-3.5-27.35-.65-10.9-3.7-23.1-3.25-13-8.05-22.35-5.25-10.25-12.2-17.1-8.9-8.75-18.5-9.45-16.75-1.25-29.1 17.8 3.95-8.85 9.5-17.8 12.7-20.3 15.25-54.45.45-6.7-.9-18.15-1.45-12.05-3.85-19.8l.85-8.4v-.2l33.4 8.05"/><path fill="#d18200" d="M169.2 93.45l-.05 2.35-.2 19.3q0 9.95.35 15.15l.15 1.7 1 6.4q-9.1 2.45-17.75-3.6-7.2-5.05-13.35-15.5-1.25-15.05-4.4-25.25l.85-8.4v-.2l33.4 8.05"/><path fill="#0d131a" d="M224.6 233.85q7.75 8.85 12.85 19.1 6.8 13.55 6.8 28.75 0 7.85-3.65 16.95-1.8 4.6-3.65 7.75-.4 2.4-.4 4.85 6.65 5.1 8.75 7.8l2.3 2.8 1.7 2q2.3 1.35 3 2.9.65 1.55.55 3.7l3.15 5.75q1.75 3.9 1.4 7.45-.2 1.9-.9 3.1-.9 2-1.9 2.1l-1.1-.8-.65-.85q-2.5-2.6-3.5-3.1l-3.2-1.2-3.85-1.35-3.7.2v2.3q-.1 2.7-.75 4.5-.75 2.15-1.9 3.7-1.15 1.6-1.85 1.4-.35-.05-1.55-1.95-.95-1.5-2.1-2.6l-4.1-2.7-4.05-2.25-2.15-.75-3.1.05q-.8 3.2-3.25 7.4-1.3 2.5-1.9 2.45-.35-.05-1.25-1.25l-.8-1.15q-1.65-2.7-2.65-3.75l-3-2.65-3.5-3.05-2.3-.8-1.6-1.2q-.85-.75-1.2-1.8-.25-.75-.35-2.1-.4-8.5 5.9-18.8l-.3-3.9q-7-3.45-13.3-11.2-5.3-6.5-6.7-16.7l-.4-8.95q.3-8.15 5.9-16.2 3.3-4.8 7.4-8.25l21.15-26.15-.8-4.95 2.4 4.85 8.1 8.55m6.25-87l.2-1.1q.35-3.3 2.6-5.25l.3-.25q1.4-1.4 3.6-2.1 3.05-1 5.4.4 2.95 1.7 4.65 5.75 1.85 4.45 0 7.25l-1.4 2.65q-.85 1.75-.95 2.35.15.6 1.3 2.05l1.8 2.1 4.55-.85q2.8-.2 4.05 1.7.65 1 1.1 6.35.45 5.4-.15 6.6-.4.8-1.35 1.5l-2.35 1.55-2.05.8q-1.35.45-1.6.8-1.65 1.8-4.85 7.15-.8 1.35-2.8 2.1l-3.1.7q-3.8 15.3-6.8 21.8-2.35 5.15-5.5 7.2-2.8 1.8-6.9 1.9-3.65.1-5.75-1.05-.65-.35-6.05-6.05l-6.35-6.55-3.45-2.5-3.6-2.35q-2.05-1.4-4.9-2.7l-2.45-1-1.9-.15-2.15.4-1.15.35 2.2-1.55q-3-.4-3.05-.9-.05-.3.75-.4h.85l-14.9-23q-1.7.8-1.95 0-.15-.5.05-.85l.65-.7q.55-.45 4.45-2.6 3.55-1.9 8.15-2.85 5-1 7.65-.05 4.8 1.75 6.75 4.95 1.85 3.15 1.9 9.4l2.55 1.4q1.65.95 2.55 1.9l.85.95 4.35 4.9q3.1 3.45 4.65 4.55 2.1 1.5 5 1.6l3.9-.3.85-5.65q.45-4.65.1-6.25l-2.9-2.45q-2.25-.8-3-1.45-1.5-1.5-1.35-4.85l.05-2.4-.85-.75q-3.5-2.9-4.7-4.7-1.85-2.7-1.05-6.25.75-3.25 2.6-4.05 1.45-.6 1.4-.5l4.9-2.45q1.25-.45 2.4.2l1.55 1.4q1.4 1.4 1.65 1.45l3.45.45 3.15-5.1q2.1-3.65 2.4-4.65"/><path fill="#f29600" d="M233.6 147.4l.4-2.8q.3-1.7.95-2.25l2.6-1.95q2.35-.9 5.55.85l1.8 3.35q1.55 3.7.4 5.45-.75 1.1-1.6 3.65-.9 2.6-.75 3.4.3 1.85 2.65 4l2.3 1.75 2.75-.8q2.95-.5 4 1.05 1.1 1.6 1.2 5.65.1 3.55-.4 4.5l-2.85 2.05q-2.85 1.7-3.65 2.55l-3.2 3.8q-2.1 2.6-2.45 3.3-.8 1.35-3.4 2.05l-2.45.4-.75 4.7q-1.15 5.85-3.25 11.3-2.45 6.3-3.9 8.5-1.25 1.85-3.7 3.45-2.15 1.4-5.4 1.65-3 .25-4.4-.55-.8-.4-3.55-3.75-2.9-3.55-4.45-4.7l-5.1-4.15q-3.65-3.05-5.95-4.6-3.05-2.1-11.4-3.45l-2.35-.3h-.9l-14.15-22.65 6.95-3.1q7.6-2.85 10.75-1.75 3.7 1.35 5.4 2.95 1.55 1.4 2.3 3.85.9 3.05.6 6.6l2.1 1.2q2.35 1.45 3.6 2.8l4.4 4.75q3.3 3.35 5.3 4.8 4.35 3.1 9.85 2.65-.4 1.4-2.15 2.5l-2.5 1.75-2.05 1.2q-.8.65-.85 1.85-.05 1.35 1.1 4.15 1.15 2.75 1.55 2.6l-.55-1.75q-.9-2.3-.75-4.7 0-.5.65-1 .4-.25 1.95-1.15l2.2-1.25q1.85-1.2 3.35-3.6l.4-.9.7-2.6 1.25-5.75q.45-2.7.15-5.2l-.45-1.95q-3.25-3.15-4.3-3.6l-1.65-.85q-.85-.9-.85-3.15l.05-2.6-.2-1.1-2.8-2.1q-2.85-1.95-3.75-3.2-2.2-3.05-.95-5.5l1.65-1.85 6.5-2.15 1.4 1.25q1.4 1.5 2.4 1.85l3.35.55 2.5-.25q.65-.35 3.6-5.4 3-5.05 3.2-6.3"/><path fill="#0d131a" d="M223.4 164.75q-.2 2-2.15 2.6-1.8.55-2.9-.4-2.1-1.8-3.65-2.45l-1.6-.25-1.2-.15q-1.75-.3-2.45-2.85-.45-1.75-.1-3.5.5-2.1 2.1-3.55 1.9-1.7 4.6-1.45 2.45.25 3.3 1.45l.3.3q3.15 3.15 3.55 5.6.45 2.8.2 4.65"/><path fill="#0d131a" d="M223 163.3l-.25-3.1q-.4-2.2-3.4-5.35l-.35-.35q-.8-1-3-1.25-2.4-.3-4.25 1.3-2.1 1.9-2.1 4.75l.25 1.8q.65 2.3 2.05 2.55l1.2.15 1.75.25q1.55.7 3.3 2.2 1.05.8 2.7.55 1.8-.3 2-1.85l.1-1.65m.65-3.25q.5 3-.35 5.45-.95 2.5-1.8 2.95-.85.45-2.3-.85-1.45-1.3-4.7-2.7l-2.7-.35q-2-.3-2.8-3.2-.5-1.85-.1-3.7.5-2.2 2.25-3.75 2-1.85 4.95-1.6l2.2.6 1.4 1 .3.3q3.2 3.2 3.65 5.85"/><path fill="#fff" d="M216.1 154.05q1.6.25 2.1.85l1.7 1.9q1.5 1.85 1.75 3.25.55 3.4-.05 5.5l-.75 1.45-.35-.35q-.8-2.25-4.1-4.65l-1.4-.35q-1.25-.2-2.1-.75l-2.15-2.25q.2-2.2 1.75-3.5 1.5-1.35 3.6-1.1"/><path fill="#dbdcdc" d="M212.25 162.4q-.6-.1-1.1-1.2-.5-1.2-.4-2.55l2.15 2.25q.85.55 2.1.75l1.4.35q3.3 2.4 4.1 4.65-2.95-2.8-5.25-3.8l-1.45-.3-1.55-.15"/><path fill="#0d131a" d="M241.55 138.6q2.55 1.15 3.3 3.9.5 1.75.15 3.8-.25 1.8-.85 2.55-6.85 6.6-9 7.1-1 .15-1.45-.4-1.1-1.35-1.55-5.7-.5-4.6.55-6.75 3.05-7.05 8.85-4.5"/><path fill="#0d131a" d="M241.2 139.35q-2.95-1.3-5 .25-1.5 1.1-2.75 3.85-.95 2.05-.65 6.55.25 4.3 1.1 5.35l.75.1q1.15-.25 4.85-3.4l4-3.7.55-1.4.25-2.3-.25-1.95q-.6-2.35-2.85-3.35m-8.95 3.4q1.25-3.7 3.85-5 2.55-1.3 5.75.1 3.1 1.35 3.85 5.15.7 3.6-1.25 6.05-1.9 2.7-5.45 5.4-3.75 2.9-5.15 2.35-1.55-.6-2.2-5.3-.7-4.95.6-8.75"/><path fill="#fff" d="M233.95 143.2q1.2-2.65 2.65-3.65l4.35-.15q1.4.55 2.2 2-.2 2.85-1.5 4.9-3.3 4.95-7.3 8.9-.8.1-1.1-4.85-.3-5.05.7-7.15"/><path fill="#dbdcdc" d="M239.05 151.55q-3.65 3.4-4.65 3.65h-.05q4-3.95 7.3-8.9 1.3-2.05 1.5-4.9.8 1.55.55 3.8-.2 1.7-.65 2.4l-4 3.95"/><path fill="#0d131a" d="M242.7 168.35l2.4-4.55q1.35-1.55 3.4-1.6 2.05 0 3.7 1.7 1.8 1.8 1.35 4.65-.45 2.25-3.1 3.55l-3.85 1.35q-3.45 1.05-4.7.9l-1.05-.1q-.4-1.15 1.85-5.9"/><path fill="#0d131a" d="M242.8 169.3q-1.95 4.3-1.8 4.7l1.55-.1 3.5-.6q1.75-.45 4.25-1.7 2.45-1.25 2.8-3.15l.05-1q0-1.95-1.25-3.2-1.6-1.65-3.35-1.55-1.9 0-3.05 1.35l-2.7 5.25m-2.75 5.6q-.55-.5 1.2-4.95 1.8-4.6 3.5-6.5 1.55-1.65 3.75-1.7 2.25 0 4.05 1.85 2 2 1.45 5-.25 1.45-1.2 2.7l-1.95 1.65q-1.3.7-5.7 1.55l-5.1.4"/><path fill="#fff" d="M252.45 166.15q-1.35 2.05-3.85 3.95-3.1 2.25-7.15 3.6-.45-.05 1.95-4.6 2.3-4.35 2.95-5.1.85-.9 2-1.05 1.65-.25 3.1 1.25.85.85 1 1.95"/><path fill="#dbdcdc" d="M250.5 171.05l-4.4 1.55q-3.75 1.2-4.65 1.1 4.05-1.35 7.15-3.6 2.5-1.9 3.85-3.95.2 1.5-.6 3.15-.65 1.35-1.35 1.75"/><path fill="#d18200" d="M233.75 169.45q-1.4 1.15-2.7 2.75-2.65 3.25-2.3 5.6.2 1.6 1.1 3.15-2.65-.65-4.4-3.05-1.75-2.45-1.75-5.55 0-3.65 2.3-6.25 2.25-2.6 5.5-2.6 2 0 3.75 1.1 1.7 1.05 2.8 2.85-3.05 1-4.3 2"/><path fill="#0d131a" d="M233.75 169.45q.85-.65 2.95-1.5 2.05-.85 2.15-.65l-1.75 1-2.65 1.5q-1.35 1.05-2.95 3.55-1.85 3-1.6 4.85.45 3.25 3.75 6.15l3.1 2.35q-.25.65-3.7-2.15-3.75-3.05-4.3-6.75-.35-2.35 2.3-5.6 1.3-1.6 2.7-2.75"/><path fill="#f29600" d="M211.55 221.15l.85 2.05q1.05 2.35 2.15 3.8l6.45 6.5q6.25 7.05 11.65 17.9 6 12 7.5 22.15 1.1 7.75-.35 15.75-.95 5.5-3 11.2l-2 5.5q-.35 1.75-.4 3.85-.1 2.15.25 2.45l3.3 2.65q3.55 3 4.85 4.75l4.8 6.05 1.15.6q1.25.7 1.45 1.25.7 1.7-.2 4.4-1.1 3.15-3.8 4.6l-4.15 2.2q-.3-3-1.1-2.55-2.65 1.6-5.1.7v3.7l-7.05.7-3.55.15q-2.1-4.8-3.45-3.65-1.3 1.15-3.4.7-1.85-.4-2.85-1.6l-.15 4.5q-7.15-.25-11.6-1.5l-1.4-3.95q-1.5-.8-2.6-2.55-1.1-1.8-1.45-3.95 1.05-5.8 4.8-11.65.3-.55.2-4.4l2 .4 4.55.2 2.35-.35-2.3-.4-4.2-.7-2.45-.7v-.05q-1.15-.25-3.3-1.7-4.35-2.95-9.35-9.1-5.15-6.35-6.65-14.55-.8-4.35-.55-11.45.3-8.35 5.25-17.15l4.9-7.15 17.95-29.6"/><path fill="#d18200" d="M240.95 336.25q.8-.45 1.1 2.55-2.45 1.2-6.2 1.85v-3.7q2.45.9 5.1-.7m-19.15 1.6q1.35-1.15 3.45 3.65-5.1.15-9.85-.05l.15-4.5q1 1.2 2.85 1.6 2.1.45 3.4-.7m-23.45-8.35q.35 2.15 1.45 3.95 1.1 1.75 2.6 2.55l1.4 3.95q-5.75-1.5-5.9-4.45-.15-2.85.45-6"/><path fill="#fff" d="M242.1 335.55l-.2.1q1.2-3 3.05-4.65 2-1.75 2.9-2.2 1-.55 1.55.15l2.2 3.45 2.55 4.7q1.55 3.5 1.25 6.55-.15 1.55-.6 2.35-.3-2.1-3-4.5-2.2-1.95-3.7-2.5-1.85-.6-3.45-1.35-2.4-1.2-2.55-2.1"/><path fill="#dbdcdc" d="M241.4 338.65q-.65-.25.5-3l.2-.1q.15.9 2.55 2.1 1.6.75 3.45 1.35 1.5.55 3.7 2.5 2.7 2.4 3 4.5-2.9-3-4.25-3.7l-4.8-1.95-4.35-1.7"/><path fill="#fff" d="M230.7 330l3.25 4.5q2.9 4.5 2.9 7.15 0 4.75-1.05 7.55l-1.05 1.8-.45-.65q.15-2.95-3.15-5.95-2.3-2.15-4.5-3.05-3.45-1.5-3.9-3.8 1.2-3.4 2.7-5.05 1.6-1.7 3.35-2.4l1.9-.1"/><path fill="#dbdcdc" d="M226.65 341.35q2.2.9 4.5 3.05 3.3 3 3.15 5.95l-2.15-2.55q-1-.95-5.25-3.55-4.05-2.5-4.75-2.7-.3-.05-.1-1.25.15-1.2.7-2.75.45 2.3 3.9 3.8"/><path fill="#fff" d="M204.95 331.9q1.1-1.35 2.3-2.15 1.4-.85 1.9-.25l3.2 3.85q2.7 3.4 3 4.45.8 2.7-1.2 7.8-1 2.55-2.2 4.55l-.3-.5v-.25q-.15-2.5-1.8-4.8l-2.8-3.25-2.35-2.4-2-2.25q1.2-3.55 2.25-4.8"/><path fill="#dbdcdc" d="M207.05 341.35l2.8 3.25q1.65 2.3 1.8 4.8v.25q-1.9-2.85-2.75-3.75l-6.6-6.4q-.4-.3.4-2.8l2 2.25 2.35 2.4"/><path fill="#0d131a" d="M242.5 335q-1.1 2.35-.95 3.3l.2.3 1.2.45 7.5 3q1.25.7 4.05 3.55.45-.7.6-2.35.3-2.85-1.2-6.1l-2.4-4.5-2.15-3.3q-.25-.35-.6-.35-.85-.1-3.65 2.3-1.4 1.25-2.6 3.7m-.2 5.8l-1.25-.5q-1.05-.35-1.3-1.65-.25-1.55 1.1-4.4 1.35-2.85 3.05-4.35l2.7-2.1q1.3-.75 2.35-.65 1.1.15 1.9 1.1l2.2 3.45 2.5 4.7q1.75 3.8 1.35 7.25-.2 1.75-.8 2.85l-.6 1.1-.7.45q-.45.1-.75-.3l-.85-.85q-2.8-2.8-3.65-3.2-1.2-.7-7.25-2.9m-19.95.5l.2.25q.75.25 4.55 2.6 4 2.4 4.95 3.3l2.45 3.05q.55-.45 1-1.75 1-2.65 1-7.15 0-3.7-5.65-10.8l-.2-.3-.5-.2q-.75-.05-1.85.55-1.4.7-2.65 2.05-1.35 1.45-2.45 4.5-1.1 2.9-.85 3.9m-.4 2q-1-.3-1.35-1.5-.45-1.55.8-5 1.3-3.4 2.9-5.15 1.4-1.55 3.05-2.4 1.6-.85 2.9-.8 1.2.1 1.9.95l.15.25q6.05 7.6 6.05 11.95 0 4.9-1.15 7.9-.65 1.7-1.5 2.45l-.8.65-.75.25-.65-.45-.55-.9q-1-1.6-2.15-2.7-.8-.75-4.55-3.05-3.65-2.25-4.3-2.45m-12.35-12.75l-.45-.55q-.25-.25-.55-.25-.7 0-1.7.8-1 .75-1.75 1.75-.8.95-1.85 3.7-1.1 2.9-.7 3.55l2.95 2.75 3.35 3.3q1.05 1.15 2.9 4.05 1.6-2.7 2.6-5.65 1.3-3.95.65-6.1-.4-1.4-5.45-7.35m-5.9.6q.65-.9 1.8-1.85 1.7-1.4 3.1-1.4 1.15 0 1.95.9l.45.55q5.3 6.2 5.8 8 .9 3-.95 8.1-1.05 2.75-2.45 5.15l-.75 1.3-.8.5-.75-.45-.85-1.3-2.7-3.8-6.15-5.95q-1.45-1.25.15-5.45 1.2-3.05 2.15-4.3m5.5-14.9l-2.8-.6q-1.45-.5-1.35-.75l1.25.15 2.55.35 4.1-.1q2.7-.15 2.7 0l-2.55.6-3.9.35"/><path fill="#f29600" d="M163.1 1.7q3.6-.25 6 5.1.65 1.4 1.55 6.15l1.25 7q.35 2.05 3.45 15.2 1.1 4.8 7.05 14.2l2.85 5 .85 2.75q.2 1.6-1.65 7.35.95 3.15.7 9l3.25 9.25 1.75 4.5 2.05 4.05q.4.65 1.45.7.9.1 1.75 1.7 1.65 3.15-3.35 11.75l-5.3 8q.65 4.25-4 5.6l-7.05.85q-1.15.15-3.35 1.35-2 1.05-4.6 1.05-3.1 0-7.2-2.3-3.55-1.9-4.35-3.2l-3.15-3.9-4.35-5.25-5.85-6.4-5.35-5.6q-1.05-1.2-2.55-1.65l-1.25-.2q-3.4-3-5.8-7.8-1.9-3.85-1.9-5.45 0-1.15.55-4.65.6-3.75 1.25-6.05 1.5-5.3 1.5-8.8 0-3.05-2.65-10.6-1.15-3.4-7.35-13.6l-4.35-5.35-5.1-5.95q-1.6-1.95-1.45-4.9.15-2.55 1.2-3.3t3.55-.8q2.35 0 3.7.55 1.15.45 4.55 3.75l6.65 6.65q8.25 8.25 14.2 12.35 2.5 1.75 7.05.75 3.65-.75 7.25-2.85 2.55-1.5 3.25-5.7.3-1.9.3-7.2l-.55-9.4q-.5-6.75-.45-7.9.1-2.2.9-3.65 1-2 3.1-2.15"/><path fill="#0d131a" d="M174.15 101l2.35.9 2 .25 1.75-.05.95-.25.55.1q.15.4-.8.75l-2.4.4q-2.3 0-4.7-1.2-.6-.3-2.05-.45l-1.9-.05q-.6.1-3.35 2.85-1 1-1.5.3-.35-.45.95-1.5l2.1-1.55q1.75-1.15 3-1.15 1.3 0 3.05.65m.1 8l-2.2-.6-1.75.5q-1.1.15-1.5-.4-.2-.3.75-1 .95-.65 1.55-.7.55-.05 1.9.6l1.65.95q.35.3.2.55l-.6.1m17.8-9q.25.3-.3 1l-.9 1-1.7 2.6q-.4.7-.9.6-.55-.15-.25-.7.35-.7 1.8-2.7.35-.6 1.25-1.25.9-.7 1-.55M165.5 69.75l-.15-.55q0-.35.25-.45l.85.4.65 1.8.65.9.35.8-.4.95q-.45.4-.75.3-.35-.15-.35-1.85l-.45-1.15-.65-1.15m1.45 4.7q.45.2-.3 3.1l-2.3 6.55-1.3 1.75q-1.1 1.1-1.4.9-.5-.35.55-1.95l.65-.85.65-1 1.25-3 1.2-3.15q.75-2.55 1-2.35m11.65-4.85l.25.8.05 1.4-.3 2.4q0 2.4-.8 2.25-.5-.1-.5-.75l.1-1.1.55-2.25q.35-2.7.65-2.75m-22.85 38l.15 2.7q-.05.85.75 1.15.8.3 1.5-.65l.6.9q-1.15 1.45-2.5 1.45-.9 0-1.35-2.15-.45-2.1-.3-5.15l1.15 1.75"/><path fill="#fff" d="M156.45 111.65q-.9-.4-.7-4.05l2.4 3.2-1 .8-.7.05M184.4 67.3l.2 1.3q.3 2.35.05 5-.05 1.05-1.05 2.85-1.25 2.2-2.95 3 .1-3 1-5.8 1.05-3.2 2.75-6.35"/><path fill="#0d131a" d="M261.8 72.05q.35-.15 1.05.45l.9.95q5.35 7.1 10.2 23.45 5.05 16.9 7 35.25.2 1.6-.05 2.85-.2 1.15-.65 1.2-.9.1-1.25-3.9-1.65-16.6-6.6-33.5-4.6-15.75-9.9-24.65-1.15-1.9-.7-2.1m14.3 9q.35-.15 1.5 1.4l1.25 1.9q11.7 32.3 8.8 61.55l-.2 2.5q-.25 2.1-.6 2.1-.3 0-.65-1.85l-.3-2.3q1.2-38.2-9.1-61.85-1.4-3.15-.7-3.45M66.9 84.7l.65-1q.45-.65.75-.55.35.1.35 1l-.2 1.3q-2.9 8-4.4 21.9-1.65 14.85-.65 27.45v1.85q-.1 1.4-.45 1.4t-.7-1.4l-.3-1.8q-1.55-13 .1-29 1.6-15.8 4.85-21.15M60 96.35q.45-1.5.95-1.35.35.05.45.8v1.1q-3.45 13.45-5.2 27.55-1.85 15-1.4 28.2 0 2.9-.5 2.95-.35 0-.5-1.25l-.1-1.7q-1.75-12.95.25-28.4 1.7-13.5 6.05-27.9"/><path fill="#fff" d="M143.35 69.1q.65-.3 1.45.2l10.25 7.6.7.6q.9.55 1.3 1.65l.7 1.45 1.05 2.45-.2.7-2.2.1-6.25-1.2-.55-.15-5.3-1.4q-2.05-.75-2.3-1.75-.25-1.15-.05-4.25l.5-4.6q.2-1.1.9-1.4"/><path fill="#fff" d="M143.35 69.1q.65-.3 1.45.2l10.25 7.6.7.6q.9.55 1.3 1.65l.7 1.45 1.05 2.45-.2.7-2.2.1-6.25-1.2-.55-.15-5.3-1.4q-2.05-.75-2.3-1.75-.25-1.15-.05-4.25l.5-4.6q.2-1.1.9-1.4"/><path fill="#008086" d="M148.75 72.1l.1.1 6.9 5.3q.9.55 1.3 1.65l.7 1.45 1.05 2.45-.2.7-2.2.1-5.8-1.1q-2.15-3.4-2.15-7.65 0-1.55.3-3m32.6 7.55l-1.25.65.05-.9q.05-3.1 1-5.9l1.45-3.75q.7 1.85.7 3.85 0 3.45-1.95 6.05"/><path fill="#00666c" d="M181.25 77.75q-.45 0-.9-.6l.8-3.65q.55-1.75 1.4-3.6.7 1.4.7 3.4 0 1.85-.6 3.15-.55 1.3-1.4 1.3"/><path fill="#0d131a" d="M181.95 76.65q-.35 1.4-1.45 1.2.1-1.05.8-3.15.95.8.65 1.95"/><path fill="#00666c" d="M148.75 72.1l.1.1 6.9 5.3q.9.55 1.3 1.65l1.1 2.3-4.5.3q-2.7-.5-4.5-2.25-.7-2.1-.7-4.4 0-1.55.3-3"/><path fill="#0d131a" d="M151 82.4l-1.2-.05q-1.9-3.25-1.9-7.25 0-1.4.35-3.35l.05-.05q.05.7.9.7l-.25 2.7q0 3.95 2.05 7.3m2.8-.95q-.85 0-1.4-.6-.5-.6-.5-1.4 0-.8.5-1.4.55-.55 1.25-.55.65 0 1.15.6.5.6.5 1.4l-.35 1.3-1.15.65"/><path fill="#fff" d="M151.85 78.8q-.75 0-1.2-.55-.4-.5-.4-1.15 0-.75.45-1.25.5-.55 1.15-.55.6 0 1.1.6.45.55.45 1.3l-.45 1.1q-.5.5-1.1.5m29.8-3.3l-.6-.45-.2-.9q0-.65.25-1.05.2-.45.55-.45l.55.5.2 1.05-.2.9-.55.4"/><path fill="#0d131a" d="M144.5 69.75q-1.25-.75-1.55.85l-.5 4.55q-.2 3 .05 4.05.25 1 3.55 1.9l4.25 1 6.2 1.25 1.45.15q.4-.05.35-.4l-1.7-3.75q-.3-.75-1.15-1.45-3.4-2.75-5-3.95l-5.95-4.2M143.45 68q3.35 1.9 7 4.6l5 4.15 1.2 1.05q.8.7 1 1.25l2.6 5.45.35.9q.1.5-.35.65l-.4-.3-.25-.65q-.1-.25-.75-.5l-1.25-.25q-1.55 0-6.15-1l-7.8-1.9q-1.1-.45-1.8-1.6-.8-1.25-.8-2.95 0-1.4.3-3.95l.25-2.65.1-1.05-.1-.9q-1.4-1.5-1.25-1.75.2-.25 3.1 1.4m40.05 5.45q0 4.55-2.85 7.3l-.75-.25q1.3-1.15 2.05-2.95.8-1.85.8-3.95 0-1.85-.6-3.45l.55-.95q.8 2.1.8 4.25"/><path fill="#0d131a" d="M184.6 68.6l-.2-1.3q-1.7 3.15-2.75 6.35-.9 2.8-1 5.8 1.7-.8 2.95-3 1-1.8 1.05-2.85.25-2.65-.05-5M169.05 8.5q-1.9-6.1-5.45-6.1-2.35 0-3.35 2.7-.75 2.1-.5 4.75l.65 8.1.4 10.05q-.1 5.2-1.45 7.65-1 1.75-3.7 3.4-2.15 1.3-5.15 1.85l-4.6.3 1.95.85 2.35 1.25 1.85 1.45 2.4 2.05q1.15 1.3 1.15 1.65-.05.4-1.65-.75l-2.05-1.35-1.6-1.2q-1.3-1.3-2.7-1.65-.95-.15-2.5-1-1.85-.95-3.35-2.3-6.6-5.45-11.85-10.45L118.3 18.6q-1.4-1.3-4.2-1.55-2.8-.3-4.05.8-1.15 1-1 3.35.15 2.1 1 3.25l4.7 5.55 5.25 6.65q9.95 15.9 9.95 23.85 0 3.65-.65 6.85l-1.15 4.3-1 4.35q-.5 2.7-.5 3.9 0 1.45.7 3.45.75 2.3 2.15 4.3 3.2 4.7 4 5.4l.95.15q.85 0 1.3.3l3.55 2.8q3.25 2.9 5.5 5.65l6.85 7.85q3.65 4.25 4.45 5.75.75 1.25 4.05 3.4 4.15 2.7 7.45 2.7 1.7 0 3.25-.65l1.9-.95q2.45-1.1 5.05-1.15 5.15-.25 6.55-1.25.9-.65 1.5-2.45-1.85 1.8-3.55 2.1-2.3.5-5.95-1.25l-2.5-.85-2.95-.4-3.5.7q-2.6.5-4.3-.05-1.85-.6-2.9-1.7l-1.7-2.45q-1.95-3-5.45-6.85-6.35-6.85-8.3-8.4-.8-.65-3.3-1.5l-3.1-1.2q-.8-.5-1.2-1.8-.25-.85-.55-2.9-.2-1.45.05-2.6.2-.95.5-.95.45.1.5 1.4.55 4.5 1.1 5.45.35.6 2.5 1.25 2.55.8 3.55 1.55l5.25 4.45q3.8 3.55 5.7 5.9 2.7 3.4 5.05 7.25l1.85 1.25q1.45.6 3.25.6l2.55-.35 2.65-.35 2.95.35 2.85.75q3.8 1.65 4.5 1.65 1.45 0 3.8-2.45 2.85-2.95 5.75-8.2 1.65-3 2.75-5.85 1.25-3.2 1.25-4.8 0-1.3-1.05-1.95l-2.25-1.65q-1.1-1.3-2.55-4.75-1.3-3-1.9-5.25-.85-3.1-2.1-6.5-1 2.95-2.3 4.5l-1.45 1.3q-.85.6-.85 1.25l-.25.5-.45-.1q-.45-.9-.45-2.2l.45-3.25q.5-2.75.95-3.75l3.45-8.9q1.3-3.9 1.3-6.7 0-1.9-.75-3.5-.6-1.2-2-2.95-1.35-1.65-3.15-4.8-2.05-3.55-3.35-6.8-2.8-7.15-4.8-18.95-1.8-10.1-2.4-12m1.2-2.35l2.7 12.65 2.7 12.35q1.45 5.25 4.6 11.35l3.65 6.7q2.25 4.15 2.6 5.85.4 1.9.3 3.35l-.6 2.65-.95 3.4.35 2.4q.35 3.05.15 6.35l3.8 10.75 1.8 4.15q1.1 2.05 1.8 2.65l2.05 1.45q1.4 1.1 1.4 2.6 0 3.05-2.7 8.7-2.65 5.65-6.05 9.65-.2 2.6-2.3 5.15-1.1 1.25-4.3 1.8l-5.55.65q-1.45.2-4.15 1.5-2.3 1.15-4.3 1.15-2.5 0-6.05-1.7-2.95-1.45-4.4-2.8l-3.3-3.8-4.9-6.05-10.65-11.85q-1.4-1.45-3.15-1.8l-1.75-.35-2.7-3.1-2.7-3.5-2.1-3.85q-1.25-2.55-1.25-3.7 0-1.6 1.85-9.1 1.65-7.05 1.65-11.35 0-2.9-2.4-9.1-2.1-5.5-4.65-10-1.9-3.35-6.85-8.8l-5.85-6.4q-1.95-2.45-1.7-5.75.2-3 1.95-4.4 1.6-1.35 4.85-1.45 3.8-.15 6.2 2.15l9 8.95 8.4 8.35q5 4.45 7.05 5.35 1.3.6 4.35.5 3.15-.15 4.95-.95 2.6-1.1 3.85-2.4 1.95-2.1 1.95-5.6l.05-6.8-.2-5.95-.8-10.6q-.1-2.3 1.3-4.6Q160.8.4 163.2.05q2.4-.3 4.5 1.65 1.95 1.85 2.55 4.45"/></svg>