<svg xmlns="http://www.w3.org/2000/svg" width="325" height="198" viewBox="-1.45 -4.25 325.45 198.15"><path fill="#bad4ee" d="M87.4 38.4q14.2 10.15 26.1 28.8 8.3 13 17.4 33.7 1.95 4.4 5.2 9.45 3.25 4.95 4.75 5.9 2.55 1.55 13.05 2.3.75 1.65 3.35 5.2l3.85 4.75q-13.65-3.1-32.8-2.8-12.65.2-30.8-11.55-5.6-3.6-15.1-10.7L68.2 93.2Q48 80.7 35.7 72.65q-22.75-14.9-28.45-23.4Q.7 39.5 1.35 33.7q.6-5.95 8.75-10.05 5.3-2.65 15-2.95 9.45-.3 20.65 1.65Q71.2 26.85 87.4 38.4"/><path fill="#0d131a" d="M167.55 121.7q1.05 1.35 1.55 3.65l2 4.1q1.45 3 .6 3.65-1.35 1.1-3.65.5-1.3-.35-4.45-1.9-3.4-1.7-9.85-3-6.55-1.35-12-1.45l-20.2-.9q-10.9-1.1-28.5-13.35Q73.5 98.3 64.4 92.75 39.5 77.6 25.95 67.9 14.45 59.65 9.7 54.3 2.9 46.65.75 38.9q-2.2-8 1.75-11.95 7.85-7.85 25.2-7.6 18.1.25 44.15 9.3 19.1 6.6 33.85 24.95 11.35 14.05 22.7 38.9 4.8 10.55 8 15.8 4.35 7.1 7.55 7.75l5.75 1.15 4.95.6q2.65.1 8.9 1.45 2.6.6 4 2.45m-1.6 6.2q1.05-.8.75-2-.25-1.15-1.6-2.05-1.35-.9-3.5-1.35-4.85-1.05-9.95-1.25l-4.6-.4q-2.5-.55-5.4-2.1-3.6-1.95-7.7-8.75-2.55-4.2-8.1-15.5Q113.9 70.1 105 58.3 89.55 37.95 69.65 30.95q-24.1-8.45-39.2-9.1-15.1-.65-24.5 6.35-2.25 1.65-2.55 4.85-.4 3.9 1.9 9.05 2.3 5.1 6.7 10.05 4.45 5 18 14.5 15.25 10.7 39.9 25.6Q74.45 95 91.8 108.4q18.1 12.65 31.9 15.35l8.95 1 8.4.2 10.6.5q5.25.6 8.6 2.25 1.85.95 3.45.9 1.4 0 2.25-.7"/><path fill="#0d131a" d="M162.05 120.4q3.1.65 5.15 2.25 2 1.6 2.5 3.7.65 2.65-1.35 4.15-1.2 1-3 .95-1.85-.05-3.9-1.1-3.95-1.95-7.3-2.8l-8.05-1.3-9.2-.5q-12.85-2.85-23.7-13.9-4.15-4.25-9.7-11.35L93.3 87.2q-16-20.45-21.85-26.9Q58.6 46.1 47.2 40.15 43.15 38 36 35.4l-7.3-2.6q-1.8-.75-1.5-1.4l2.45-.2q13.25 2.7 20.4 6.05Q63.9 43.8 78.4 57.9q8.45 8.2 23.55 26.25 14 16.75 20.5 22.7 10.65 9.75 19.25 10.2l7.75.7 7.75 1.6 4.85 1.05"/><path fill="#5892bf" d="M162.3 128.7q-4.15-2.05-7.75-2.9l-8.2-1.4-10.05-1.45q-9.15-1.55-20.55-13-6.9-6.95-21.05-25.05-14.25-18.35-22-26.55-12.85-13.65-24.65-19.8l-2.35-1.1q2 .7 3.55 1.45 13.6 6.45 27.95 20.4 8.35 8.15 23.3 26.05 14.3 17.1 20.95 23.1 11 10 20.2 10.45l7.5.7 7.65 1.55 4.85 1.05q2.8.65 4.5 2 1.45 1.2 1.75 2.55.4 1.5-.7 2.3-.75.65-2.05.55-1.3-.1-2.85-.9"/><path fill="#0d131a" d="M168 131.4l-.05-3.1 2.15 1q6.15 2.85 10.2 5.7 6.85 4.8 5.5 8.2-1 2.45 1.1 4.7 2.1 2.3 7 4.1l16.6 6.55q17.35 6.95 21 8.9 3.8 2 4.35 5.8.5 3.55-1.9 7.55-5.45 9.15-16.9 11.2-10.5 1.9-29.3-7.7-16.7-8.5-25.55-17.75-4.4-4.65-3.7-10.65.85-6.7 8.1-11.25 1.85-1.15 2.1-5.35.2-3.4-.7-7.9"/><path fill="#46799e" d="M167.95 147.45q3.5-2.15 3.5-10.3l-.3-4.6q5.1 2.55 8.65 5.15 3.8 2.85 3.8 4.3l-.05.3q-.5 1.25-.5 2.45 0 5.7 10.25 10.1l16.05 6.15q-22.95 11.8-44.85-11.1l3.45-2.45"/><path fill="#5892bf" d="M188.55 181.2q-15.45-8.4-24-17.4-3.8-3.95-3.8-7.4l.05-.8q.4-2.95 3.7-5.7 21.9 22.9 44.85 11.1 15.1 5.85 19.95 8.4 3.05 1.6 3.05 4.95l-.1 1.2q-.65 4.25-4.9 8.05-4.65 4.2-11.4 5.4-9.75 1.8-27.4-7.8"/><path fill="#0d131a" d="M298.35 90.9q10.9-7.9 18.15-3.75 7.5 4.25 6.7 19.25-.7 12.2-13.2 28.5-11.95 15.65-22.55 19.95-8.35 3.4-15.1-.4-5.85-3.3-9.15-11.05-1.05-2.5-4.35-5.85-3.8-3.85-6.4-3.95l-1.95-1.35 1.55-1.9q4.5-5.55 6.45-7.4 5.75-5.45 8.7-3.3l5 3.25q3.15 1.05 5.75-2.4l3.4-6.1q4.55-8.6 6.7-11.9 4.95-7.7 10.3-11.6"/><path fill="#5892bf" d="M319.25 96.8q1.5 4.4 1.1 10.5-.65 10.65-12.5 25.85-11.5 14.75-21.3 18.7-7 2.8-12.3.35-3.15-1.45-5.6-4.7-1.85-2.5-2.7-5-1-3.1-4-6.7-3.4-4.1-6.75-5.4 3.05-3.45 5.85-5.5 3.25-2.4 4.55-1.5 4.25 3 7.65 2.8 3.6-.25 6.5-4.1 2.05-2.7 3.5-5.45 3.85-7.25 6.65-11.4 4.9-7.25 9.95-10.9 9.25-6.65 14.85-3.6 3.05 1.65 4.55 6.05"/><path fill="#46799e" d="M167.95 147.45q3.5-2.15 3.5-10.3l-.3-4.6q5.1 2.55 8.65 5.15 3.8 2.85 3.8 4.3l-.05.3q-.5 1.25-.5 2.45 0 5.7 10.25 10.1l16.05 6.15q-22.95 11.8-44.85-11.1l3.45-2.45m131.9-53.1q9.25-6.65 14.85-3.6 4.45 2.45 5.5 10.4l-1.9-.55q-11.85-2.95-24.5 12.25-4.1 5.8-10.45 18.85-5.95 12.2-10.4 17.95l-.9 1.2q-2.3-1.65-4.05-4.3-1.4-2.05-2.05-4.05-1-3.1-4-6.7-3.4-4.1-6.75-5.4 3.05-3.45 5.85-5.5 3.25-2.4 4.55-1.5 4.25 3 7.65 2.8 3.6-.25 6.5-4.1 2.05-2.7 3.5-5.45 3.85-7.25 6.65-11.4 4.9-7.25 9.95-10.9"/><path fill="#0d131a" d="M263.8 27.85q14 17.45 17.65 40.9 3.2 20.55-2.2 38.5-5.8 19.3-20 31-16 13.15-41.4 15.55-11.75 1.1-23.85-2.4-12.25-3.55-22.7-11.25-23.45-17.35-28.7-47.2-5.6-31.5 9.7-57.9 6.25-10.75 15.05-18.85 8.05-7.35 16.25-10.8 23.1-9.65 45.6-2.25 20.05 6.65 34.6 24.7"/><path fill="#5892bf" d="M277.9 64.05q3.9 18.55-.6 40.05-3.9 18.6-19.25 31.15-15.85 13.05-39.05 15.2-24.3 2.25-44.45-11.9Q151.3 122.2 145.7 90.5q-5.35-30.45 10.6-55.55 5.9-9.25 14-16.7 6.35-5.8 12.2-9.05 21.2-10.9 44.45-3.3 20.5 6.75 34.8 24.45 12.2 15.1 16.15 33.7"/><path fill="#46799e" d="M207.9 125.1q12.75 4.95 27.95 5.8l27.9-1q-7.95 8.5-19.15 13.75-11.65 5.5-25.6 6.8-24.3 2.25-44.45-11.9Q151.3 122.2 145.7 90.5q-4.95-28.15 8.45-51.95-4.85 26.8 11.45 51.85 15.55 23.85 42.3 34.7"/><path fill="#0d131a" d="M262 49.5q7.45 6.55 11.15 18.4 3.75 12.1 2.7 26.95-1.85 26.25-21.9 40.75-13.65 9.9-28.3 11.2-7.1.6-14.75-.9-10.2-1.95-16.05-7.1-12.7-11.15-13.6-34-1-25.55 19.1-44.5 7.5-7.1 16.8-12.05 7.8-4.2 13.75-5.35 9.05-1.75 17.25-.05Q256.4 44.6 262 49.5"/><path fill="#fff" d="M272.95 95.35q-1.75 25.05-21.05 38.95-6.85 4.95-15.05 7.75-6.4 2.2-10.75 2.3-19.2.55-28.85-7.95-12.25-10.75-13.15-32.55-.95-24.45 18.15-42.3 7.15-6.6 16-11.25 7.4-3.85 13.1-4.95 8.55-1.65 16.1-.2 7.75 1.55 12.85 6.05 6.9 6.1 10.3 17.9 3.35 11.8 2.35 26.25"/><path fill="#dbdcdc" d="M207.9 125.1q11.25 4.35 24.3 5.55 10.45.95 24.3-.1-7.5 6.8-17.45 10.7-7.65 2.95-12.95 3.1-19.2.55-28.85-7.95-9.95-8.75-12.45-24.95 10.7 8.65 23.1 13.65"/><path fill="#0d131a" d="M204.55 17.65q2.95 5.3 2.65 11.85-.4 10.2-6.05 16.2-5.65 6.1-15.2 6.4-4.85.15-9-1.8t-6.4-5.4q-2.45-3.75-2.45-9.1 0-5.4 2.45-10.45 2.5-5.15 7.1-9.05 4.3-3.6 9.5-5.35 6.3-2.15 10.9.1 3.9 1.95 6.5 6.6"/><path fill="#fff" d="M204.75 29.4q-.35 9.2-5.2 14.25-4.8 5.05-13.45 5.3-4.3.15-7.6-1.35-3.35-1.5-5.25-4.45-2.1-3.2-2.05-7.45 0-4.25 2.15-8.7 2.5-5.2 5.85-8.7 3.6-3.85 7.9-5.35 2.6-.9 5.65-.95 3.1-.05 4.85.8 3.2 1.6 5.2 5.95 2.2 4.75 1.95 10.65"/><path fill="#0d131a" d="M256 20.35q1.6 2.1 1.5 4.85-.1 2.95-2.1 5.45-3.55 4.3-9.55 4.25-7.15-.05-15.7-6.55-4.75-3.65-8.25-10.25t-2.85-10.75q.5-2.85 2.85-3.7 5.4-1.9 16.35 3.2 11.4 5.35 17.75 13.5"/><path fill="#fff" d="M245.4 32.45q-6.2-.25-13.8-6.05-4.3-3.3-7.6-9.2-3.4-6.1-2.5-9.45 1.4-5.3 13.75.1 12.1 5.3 18.35 13.2 1.5 1.95 1.45 4.15-.05 2.1-1.55 3.9-2.9 3.55-8.1 3.35"/><path fill="#0d131a" d="M169.2 34.95q0-6.5 5-12.5 5-6.05 10.35-6.05 5.5 0 9.65 5.75 3.9 5.5 3.9 11.9 0 6.45-4.1 11.3-4.1 4.8-9.6 4.8-5.65 0-10.3-4.35-4.9-4.6-4.9-10.85"/><path fill="#0d131a" d="M171.65 34.95q0-5.5 4.25-10.8 4.25-5.3 8.65-5.3 4.2 0 7.65 4.75 3.45 4.7 3.45 10.45 0 5.35-3.4 9.5t-7.85 4.15q-4.65 0-8.6-3.65-4.15-3.9-4.15-9.1m74.4-16.2q2.5 3.75 3.05 7.4l.1 1.6q0 2.85-1.6 4.7-2.2 2.45-7.05 1.7-4.8-.75-9.25-4.3-4.6-3.75-7.6-8.45-2.7-4.25-3-7.35-.15-1.9.8-2.95 3.35-3.8 10.2-2 4.15 1.1 8.65 3.85 3.2 2 5.7 5.8"/><path fill="#0d131a" d="M245.75 30.8q-1.4 1.6-5.2.85-4-.75-7.7-3.7-4.35-3.5-7.1-7.9-2.4-3.75-2.6-6.2-.05-.9.15-1.1 2.15-2.45 7.05-1.4 4.1.85 8.7 3.7 2.75 1.7 4.95 5 2.2 3.35 2.65 6.45.45 2.85-.9 4.3"/><path fill="#fff" d="M185.3 35.7q0 3.1-1.6 5.2-1.55 1.95-3.65 1.95-2.15 0-3.75-1.7-1.75-1.9-1.75-4.9 0-3.3 1.5-5.95 1.5-2.7 3.45-2.7 2.1 0 3.9 2.45 1.9 2.55 1.9 5.65m51.15-9.6q-.9 1.05-2.7.8-1.8-.3-3.35-1.7-1.65-1.45-2.55-4.15-.9-2.7 0-3.75l3.05-.15q2 .7 3.7 2.25 1.6 1.45 2.2 3.55.6 2.15-.35 3.15"/><path fill="#0d131a" d="M246 55.5q8.55 1.7 14.05 7.1 4.35 4.2 6.3 10.4 2.6 8.2.8 19.1-1.3 8.05-5.35 14.5-4.1 6.45-10.6 10.85-6.7 4.5-14.75 6.15-7.05 1.45-12.3.25-5.5-1.25-9.6-4.3-4.05-3-6.15-7.4-2.5-5.35-1.9-11.9.6-6.55 4.25-13.85 3.6-7.25 9.8-12.05 6.2-4.75 13.6-5.95 4.45-.7 8.1.1 3.7.75 5.85 2.9 2.35 2.35 3.6 6.3 1.25 3.95 1.15 8.6-.15 5.95-2.55 11.3-2.45 5.35-6.7 9.15-7.7 6.95-15.55 4.95-3.35-.9-6.05-3.3-2.45-2.25-3.3-4.7-2.2-6.5.75-12.4 3-5.9 10.05-9 3.95-1.7 7.2-.9 3 .75 3.65 3.15 1.65 6.4-2.3 10.85-3.2 3.6-7.1 3.85-2.75.2-2.55-1.7.25-1.85 2.55-2.45 2.3-.55 4.05-3.1 1.8-2.6 1.15-4.9-.55-2-4.7-.3-5.3 2.3-7.5 6.45-2.2 4.2-.6 8.85.45 1.3 1.95 2.65 1.75 1.6 3.95 2.2 5.25 1.35 11.1-3.85 3.5-3.15 5.45-7.55 2-4.45 2.15-9.4.1-3.55-.8-6.6-.9-3.1-2.5-4.65-1.25-1.25-3.9-1.7-2.65-.45-5.8.05-6.2 1-11.5 5.05-5.25 4.05-8.35 10.3-3.05 6.15-3.65 11.7-.6 5.55 1.4 9.75 3.3 6.95 12.4 9l10.7-.35q6.85-1.5 12.55-5.3 11.5-7.75 13.85-22.1 2.7-17-5.7-25.2-4.55-4.45-11.8-5.85-6.1-1.15-12.45.05-12 2.25-22.15 12.75-12.5 12.9-13.6 31.65-.35 6.75 2.3 12.15 2.05 4.15 5.7 7.2 5 4.2 11.1 5.6 5.9 1.3 14.9.4 7.85-.8 6.5 1.7-1.35 2.4-5.4 3.1-9.65 1.65-17.05-.15-7.05-1.7-13.2-6.85-10.6-9.05-9.75-23.45 1.1-19.25 13.65-33.35 11.4-12.8 26.1-15.6 7.3-1.4 14.5.05"/><path fill="#0d131a" d="M245.75 43.2q.5 2.15 0 4.65-.5 2.5-1.95 4.8-3.75 6-9.35 7.2-4.7 1.05-8.9.85-4.55-.3-7.25-2.05-4.7-3.1-5.45-6.8-.45-2.25.75-5.5 1.1-2.8 3-5.45 1.95-2.75 5.2-4.75 3.05-1.85 5.85-2.25 6-.75 11.25 1.65 5.65 2.65 6.85 7.65"/><path fill="#f09cb4" d="M242.9 43.8q.4 1.75.05 3.8-.4 2.1-1.55 3.95-2.8 4.45-7.75 5.6l-7.55.5q-3.6-.4-6.05-2-2.85-1.95-3.45-5.15-.8-3.85 2.1-7.85 1.9-2.6 4.7-4.4 2.55-1.65 4.6-1.9 5-.65 9.35 1.35 4.6 2.15 5.55 6.1"/><path fill="#d0879d" d="M216.8 46.55l.95 1.3q7.6 8.7 20.15 7.45-2 1.35-4.25 1.85l-7.55.5q-3.6-.4-6.05-2-2.85-1.95-3.45-5.15-.4-1.9.2-3.95"/><path fill="#0d131a" d="M226.45 47.6q5.35-3.6 10.95-1.7 1.2.4 1.05 1.1-.2.7-1.25.85-.5.95-2.15 2.05l-2.85 1.55-3.45.75h-2.85q-.95 1.05-1.75.55-.7-.45-.6-1.2.1-.7.85-1.8.9-1.4 2.05-2.15"/><path fill="#ed8599" d="M231.25 49.2q-1.85.8-3.65.8 1.5-.95 3.4-1.55l2.65-.55-2.4 1.3"/></svg>