<svg xmlns="http://www.w3.org/2000/svg" width="325" height="271" viewBox="-0.45 -1.5 325.2 270.9"><path fill="#0d131a" d="M68.15 76.85l3.75-2.25-11.05 61.3-26.95-12.65.55-1.65q5.2-15.65 13.5-26.7 8.35-11.05 20.2-18.05"/><path fill="#5892bf" d="M51.1 96.75q6.9-8.85 15-14.1-8.3 17.4-9.35 33.7-.5 8.15.6 12.8l-18.3-8.8q3.7-12.85 12.05-23.6"/><path fill="#0d131a" d="M50.2 116.2q8.05 4.95 11.4 9.5 2.55 3.45 4.1 9.8 1.4 5.65 2.95 17.5 1.6 11.85 1.6 16.75 0 9.8-4.15 14.1-3 3.15-8.6 3.55-4.4 8.75-13.95 10.9-9.7 2.2-17.25-4.25-4.95-4.25-12.8-7.2-6.7-2.45-10.4-9.35-3.55-6.65-3.05-15.05.5-8.85 5.25-16.5 5.35-8.5 14.75-13.5 3.7-1.95 3.75-4.4.1-4.7.75-6.4 2.7-6.8 10.6-8.35 7.75-1.55 15.05 2.9"/><path fill="#fff" d="M56.4 127.6q4.7 10.85 7.5 20.5 3.3 11.35 3.15 18.5-.15 8.35-2.65 12.45-2.15 3.5-6.6 4.6 1.1-6.75-.05-10.25-.6-1.9-1.2-1.45-.55.4-.55 2.35 0 16-10.4 20.05-4.45 1.7-9.7.45-5.2-1.2-9.75-5l-3.65-2.9q-1.6-1.05-3.2-1.45-9.05-2.4-13-9.95-4-7.65-1.45-18.15 1.45-6 5.8-12.1 4.9-6.8 10.6-9.2 3.9-1.65 5.05-3.5 1.05-1.65.95-5.5-.15-5.15 3.55-7.95 3.4-2.5 8.7-2.25 5.25.2 9.85 2.95 4.95 2.95 7.05 7.8"/><path fill="#0d131a" d="M247.6 59.9q15 9.9 24.05 18.75 11.75 11.4 19.4 26.1 1.5 2.85-.1 5.65-1.55 2.7-5.45 4.4-4.7 2.1-10.9 2.25-6.35.15-7.65-2.05-1.15-1.95-4.15-5.45l-4.2-4.5q2.9 10.1 2.85 24.75-.05 16.7-4.4 27.55-4.8 12.1-13.9 22.3-6.55 7.35-14.7 13.05-3.9 2.7-4.65 4.65-.9 2.5 1.4 6.7 1.55 3.5 6.1 6.8 3.75 2.75 8.85 4.95 11.3 4.9 17.5 8.65 7.95 4.85 13.45 11.2 3.8 4.4 4.65 9.8.85 5.35-1.4 10.15-5.25 11.15-21.45 11.45-24.65.45-39.95-13.8-6.65-6.2-9.5-13.7-2.8-7.45-1.1-14.3.4-1.6-1.3-7.5l-1.8-5.6Q197.1 206 189.9 208q-18.95 5.35-34.15 5.55-20.2.3-39.45-7.8-1.95-.8-2.35-.85-1.1-.15-1.7 1.05-1.05 2.15-1.75 4.3-.6 1.7-.6 2.65-.05 1.3.8 3.3.9 2.1 1.1 5.7.25 3.5-.25 5.8-2.95 13.05-17.7 24.95-14.25 11.5-30 14.7-9.9 2.05-16.2-.9-5.65-2.65-7.6-8.7-1.85-5.6-.1-12.45 1.75-6.8 6.35-12.1 4.8-5.55 17.35-12.65 9.75-5.55 19.45-9.5 4.65-1.95 6.7-5.45 1.45-2.5 1.9-6.8.4-3.85-.6-5.7-.95-1.8-4.7-4.35-13.35-9.15-21.45-22.3-10.65-17.35-11.1-40.1-.4-20 5.75-36.35 4.9-13.05 15.1-26.15 1.6-2.05 1.55-4.05-.05-1.8-1.45-4.2-5.25-9.2-5.65-18.5-.4-8.7 3.35-15.95 3.7-7.1 10.4-11.3 6.95-4.3 15.45-4.45 7.25-.15 13.25 3.2 3.45 1.95 8 6.35 2.6 2.5 5.75 3.1l5.35-.35q25.2-8.05 44.7-2.85 7.1 1.9 9.5 1.3 1.95-.5 5-4.3 7.15-8.9 18.05-11.2 10.15-2.15 19.65 2.1 9.7 4.35 14.1 13.5 4.9 10.05 1.45 22.85l-1.85 5.55q-1.05 3.1-1.1 5-.1 5.3 7.4 10.25"/><path fill="#5892bf" d="M246.25 63.05q16.25 11.95 23.65 19 9.65 9.3 15.9 20.5 2.15 3.95.65 5.8-.7.85-5.05 2.85-2.9 1.35-6.7.7-3.25-.6-4.4-1.9-2.45-2.8-7.7-7.55-4.9-4.5-8-6.8-.85-.65-1.5-.45-.75.3-.35 1.75 1.45 5.45 2.9 15.75 1.5 10.85 1.45 16.3-.25 19.75-8.1 34.55-7.8 14.65-24.75 27.45-5.35 4-5.3 8.15.05 4.65 6.55 12.3 1.5 1.8 7.55 5l17.4 8.6q11.35 5.5 16.65 13.3 4.8 7.15 3.1 13.7-1.7 6.55-9.1 9.35-8.1 3.05-20.05.25-15-3.5-24.4-12.2-11.25-10.5-10.5-25.75.1-1.85-1-6.35-1.15-4.6-2.65-8.3-1.45-3.6-5.1-4.9l-7.05-.3q-27.35 5.9-38.9 5.75-13.45-.15-34.1-7.65l-4.25-1.65q-2.55-.65-3.3 1.3l-2.75 7.1q-1 3-.45 5.7l1 5.85q.8 12.1-8.95 22.9Q90.7 251.9 78 257.9q-21.65 10.2-30.65 2.4-3.7-3.25-3.8-8.9-.05-5.5 3.4-11.35 5.6-9.35 19.2-16.95L87 213.05q3.55-1.8 6.45-6.7 3-5 2.95-9.4-.1-4.15-1.6-6.75-1.2-2.1-3.9-3.95-14.85-10.3-23.4-25.4-7.8-13.75-9.5-30.1-1.6-15.3 2.3-30.35 3.85-14.65 12.1-25.95 6.15-8.4 7.1-11.25 1.65-5.1-2.25-11.15-1.6-2.5-2.95-6.85-1.4-4.5-1.45-7.8-.2-9.2 4.25-16.25 4.05-6.55 10.95-9.75 6.8-3.2 14-2.1 7.65 1.1 13.35 6.65 4.05 4 7.45 5 3.95 1.1 9.55-.75 11.05-3.65 24.75-4.05 13.05-.35 22.75 2.35 3.05.9 5.4.65 3.85-.35 6.55-3.7 7.95-9.7 18.7-11.6 9.85-1.8 18.25 3.45 8.45 5.25 11.05 15.05 2.85 10.85-2.9 23.3Q234.5 51 239 56.6q2.15 2.75 7.25 6.45"/><path fill="#0d131a" d="M97.1 13.9q8.85-.2 14.9 6.45 5.55 6.1 5.7 14.25.15 7.5-4.8 13.7-6 7.5-16.55 7.55-7.75 0-13.25-4.85-6.6-5.75-6.8-16.55-.2-8.45 5.6-14.35 5.9-6 15.2-6.2"/><path fill="#fff" d="M97.6 15.95q7.55.25 12.6 5.55 5.2 5.45 5.2 13.7-.15 7.8-5.35 12.9-5.25 5.2-13.4 5.2-7.7-.25-12.6-4.65-5.6-5-5.7-13.85-.1-8.6 5.8-14 5.55-5.05 13.45-4.85"/><path fill="#0d131a" d="M231.1 44.1q-5.3 6.6-15.55 6.8-9.85.25-16.05-5.8-6.35-6.2-6.55-16.8-.15-9.15 6.8-15.1 6.3-5.4 14.6-5.55 8.35-.2 14.55 5.4 6.6 5.9 6.8 15.15.2 9.9-4.6 15.9"/><path fill="#fff" d="M215.8 48.45q-9.15.15-14.55-4.9-5.55-5.1-5.75-14.2-.2-8.55 5.4-13.75 5.35-5 14-5.2 7.15-.15 12.3 4.45 5.95 5.3 6.1 14.95.15 6.95-4.95 12.65-5.3 5.85-12.55 6"/><path fill="#0d131a" d="M139.7 28.05q.4-.2 1.1.35.65.6 1.15 1.55 1.1 2-.25 2.6-1.4.55-1.95-1.6-.7-2.6-.05-2.9M157.35 26q.4.3.15 1.85-.25 1.5-.8 2.6-.5 1.05-1.35 1.5l-1.65.1q-.7-.35-.55-1.55.1-1.15.75-2.1.75-.95 1.85-1.8 1.2-.9 1.6-.6m62.7 151q-23.85 24.85-62.95 25.6-38.75.8-63.55-20.65-26.2-22.6-27-62.3-.35-16.95 7.1-32.1Q80.4 73.7 92.85 62.8q11.6-10.2 26.05-16.1 14.1-5.7 27.65-6 39.25-.75 65.75 17.85 29.45 20.7 30.2 57.9.75 36.4-22.45 60.55"/><path fill="#fff" d="M233.15 90.75q5.25 12.2 5.5 24.85.35 16.65-5.25 31.65-5.6 14.95-16.3 26.35-23.15 24.55-60.5 25.3-36.65.75-60.75-20.35-24.7-21.6-25.4-57.15-.7-33.8 25.25-56.35Q106.85 55.3 121 49.8q13.75-5.35 27.35-5.6 43.5-.85 68.6 23.2 10.5 10.05 16.2 23.35"/><path fill="#0d131a" d="M230.9 120.95q.55 27.8-20.75 50.45-8.4 9-18.75 15.35-9.35 5.8-17.25 7.65-3.75.9-3.9-2.35-.2-3.25 3.55-4.4 18.45-5.55 33.85-24.25 16.75-20.4 16.3-42-.5-25.55-18.5-43.65Q185.8 58.05 153.5 57q-13.05-.4-25.55 3.75-12.55 4.2-22.3 12.25-21.8 17.95-21.25 45.8.55 27.3 20.6 44.7 18.4 16.05 42.85 16.05 23.15 0 40.8-17.45 8.2-8.1 12.7-18.15 4.65-10.5 4.45-21.25-.45-22.3-14.05-37.1-14.6-15.9-38.55-15.75-21.35.15-37.4 14.8Q99.55 99.5 99.95 119.3q.35 18.6 17.15 31.7 7.05 5.5 15.55 8.55 8.2 2.95 15.45 2.8 15.8-.35 28.3-12.85 12.25-12.3 12-26.6-.35-18-10.15-27.8-9.6-9.7-26.35-9.35-17 .35-26.25 11.3-7.55 8.9-7.35 20.3.2 10 8.05 17.15 8.55 7.8 21.4 7.4 8.35-.3 13.75-5.6 4.9-4.75 5.5-11.4.75-8.5-3.9-13.7-4.75-5.35-13.4-5.15-4.05.1-6.9 2.35-3.15 2.4-3 6.2.2 3.85 3.2 6 2.85 2.1 6.25 1.3 3.15-.75 4.35 1.9 1.2 2.7-1.8 4.4-5.85 3.35-12.7-.7-6.95-4.05-7.5-11.45-.55-7.85 5.7-13.35 5.95-5.2 13.95-5.05 11 .2 17.85 7.65 6.55 7.1 6.65 17.8.1 11.75-7.7 19.15-7.75 7.35-20.3 7.6-14.35.3-25.4-8.65-11.75-9.45-12-23.6-.35-16.2 12.6-27.7 12.35-11 29.25-11.35 19.45-.35 31.45 11.65 11.95 12 12.1 31.95.2 19.1-14.8 33.2-14.35 13.5-32.85 13.9-8.6.15-17.9-3-9.75-3.3-17.7-9.45-18.95-14.6-19.8-37.3-.8-23 16.85-39.25 17.65-16.2 44.05-16.75 27.5-.55 44.5 18.85 7.2 8.25 11.2 18.9 3.8 10.05 4 20.25.55 27.7-20.35 46.95-9.25 8.45-21.05 13.3-11.65 4.75-23.5 5-12.25.25-24.05-3.6-12.6-4.1-22.4-12.1Q79 152.2 78.35 119q-.7-34.2 25.05-52.7 10.75-7.7 24.85-11.55 12.85-3.5 26.15-3.3 33.65.6 55 20.7 20.9 19.6 21.5 49.45v-.65m63.3-20.65q3.75.85 5.5 2.45 2.5 2.2 3.25 7.2.65 4.3 1.65 6.85 1.05 2.85 3.45 6.3l5.3 7.65q3.25 4.9 6 9.75 5.4 9.55 5.2 19.35-.15 9.3-5.3 17.2-5.1 7.8-14.1 12.5-9.35 4.95-21.1 5.45-12.1.55-20-6.25-7.5-6.45-7.75-16.2-11.45-6.85-8.1-20.65 2.8-11.6 13.65-22.35 1.45-1.45 1.75-2.25.45-1.4-.95-3.15-1.9-2.5-2.1-5.1-.15-1.85.65-5 2.1-8.45 12.85-12.45 10-3.7 20.15-1.3"/><path fill="#fff" d="M293.3 104.15q4.05 1.15 6.05 6.4 1.1 2.85 2.2 7.65 1.95 4.95 6.25 11.65l7.15 11.2q9.6 17.15 3.7 30.6-5.05 11.5-19.05 16.7-13.2 4.9-24.85 1.25-12.6-4-13.9-15.8 5.3.65 8.8-3.4 2.75-3.15 2.95-6.55.25-3.5-1.15-3.7-1.35-.2-2.3 2.3-3.5 9.1-10 6.6-2.7-1.05-4.65-4-2-3.05-2.3-6.85-.5-6.8 3.7-14.4 3.9-7.05 9.75-11.2 3.8-2.75 4.05-4.8.2-1.75-2.35-5.5-1.6-2.4-1.45-5.6.1-3.2 1.85-5.6 3.1-4.3 10.15-6.55 7.9-2.5 15.4-.4"/><path fill="#0d131a" d="M86.8 45.45q-4.35-4.15-4.45-10.15-.1-6 4.05-10.3 4.15-4.35 10.15-4.45 6-.15 10.3 4.05 4.35 4.15 4.45 10.15.15 5.95-4 10.3-4.2 4.35-10.15 4.45-6 .1-10.35-4.05"/><path fill="#fff" d="M101.65 35.25q-2.25.05-3.9-1.55-1.6-1.55-1.65-3.8-.05-2.25 1.55-3.9 1.55-1.6 3.8-1.65 2.25-.05 3.9 1.5 1.6 1.55 1.65 3.85.05 2.25-1.55 3.85-1.55 1.65-3.8 1.7"/><path fill="#0d131a" d="M215.2 43.55q-6 .1-10.3-4.05-4.35-4.15-4.45-10.15-.15-6 4-10.3 4.15-4.35 10.15-4.5 6-.1 10.35 4.05 4.35 4.15 4.45 10.15.1 6-4.05 10.35-4.15 4.3-10.15 4.45"/><path fill="#fff" d="M219.7 29.25q-2.25.1-3.85-1.5-1.6-1.55-1.7-3.8-.05-2.25 1.55-3.9 1.55-1.6 3.8-1.65 2.25-.05 3.9 1.5 1.6 1.55 1.65 3.8.05 2.25-1.5 3.9-1.55 1.6-3.85 1.65"/><path fill="#46799e" d="M96.4 196.95q-.15-5.1-2.45-8 6.55 5.3 19 11.35-2.45-.6-3.15 1.3l-2.75 7.1-.6 2.65q-3.1 1.55-7.55-.1-4.45-1.6-5.55-4.65 3.1-5.15 3.05-9.65m122.55 2.8q.4 4.5 6.55 11.7l.35.4q-.45 3.05-2.5 4.15-3 1.55-7.3 2.05l-10.85-.55q-1.2-4.8-2.7-8.45-1.25-3.1-4.15-4.5-2.55-1.25-5.95-.95 19.35-4.9 30.7-11.7-4.5 3.75-4.15 7.85"/><path fill="#dbdcdc" d="M4.3 159.9q1.15 4.6 3.7 9.45 2.65 5.1 5.4 7.55 2.2 2 5.6 3.05 4 1.25 5.4 2.15 1.75 1.1 6.15 4.45 4.25 2.95 7.15 3.75 3.65 1 7.25 1.05 3.45.05 6.05-.8-4.55 5.1-11.75 4.75-6.95-.35-13.1-5.5l-3.65-2.9q-1.6-1.05-3.2-1.45-8.45-2.25-12.5-9.1-4.05-6.85-2.5-16.45"/></svg>