<svg xmlns="http://www.w3.org/2000/svg" width="390" height="326" viewBox="-2.2 -1.25 389.8 326.05"><path fill="#5892bf" d="M71.85 157.7q-15.65 7.85-30.05 3.25-12.5-4-18.5-14.8l47.75-4.75.8 16.3"/><path fill="#46799e" d="M39.4 147.75q-.55-1.6-1.45-3.05l33.1-3.3.8 16.3q-12 5.95-23.4 4.65-3.6-4.5-5.1-6.8-2.7-4.05-3.95-7.8"/><path fill="#5892bf" d="M113.65 232.35q2.95-19.05-.4-27.9l58.85 17.45-3.65 2.85q-4.45 3.8-8.2 8.5-11.95 14.95-12.75 32.95.55 4 1.85 10.4.8 5.1-.15 8.25-2.35 7.75-20.75 16.45-10.3 4.85-24.5 7.2-13.9 2.35-26.05 1.4-12.95-1-19.2-5.35-7-4.9-3.85-13 5.8-14.9 23.95-24.15 10.25-5.25 26.8-9.25 5.2-7.35 8.05-25.8"/><path fill="#46799e" d="M140.55 244.55q7.25-23.25 5.4-34.7l26.15 12.05-3.65 2.85q-4.45 3.8-8.2 8.5-11.95 14.95-12.75 32.95.55 4 1.85 10.4.8 5.1-.15 8.25-2.35 7.75-20.75 16.45-9.15 4.3-21.65 6.7-12.1 2.35-23.6 2.15-12-.2-19.6-3.1-8.35-3.15-9.5-8.95 14.95 6.45 33.35 3.2 11-1.95 30.15-9.6 7.2-2.85 13.8-9.8 7.95-8.35 4.15-13.9-1.3-1.9.45-8.6l4.55-14.85"/><path fill="#5892bf" d="M271.55 234.35q3.45 23 7.85 29.3 15.25 3.7 28.2 11.55 19 11.6 22.15 27.35 1.8 9-5.8 13.7-6.75 4.2-19.75 4.35-12 .15-25.8-3.05-13.7-3.25-23.95-8.65-10.7-5.65-15.3-16.35-4.65-10.75.1-19.6-1.75-12.1-13.55-32.65l-11.45-18.15 55-15.2q-.85 6.6 2.3 27.4"/><path fill="#46799e" d="M329.75 302.55q1.6 8-4.25 12.65-5.25 4.15-15.85 5.15-20.85 1.9-44.8-6.9l13.95 1.1q9.95.3 14.75-2 11.2-7.1 2.4-20.7-8.05-12.5-25.05-20.25-8.7-3.95-14.9-20.45l-4.55-11.9q-2.65-5.85-5.65-7.85-4-2.65-10.6-3.05-6.3-.4-13.5 1.25l-2.65-4.35-2.7-4.65 52.9-13.65q-.85 6.6 2.3 27.4 3.45 23 7.85 29.3 15.25 3.7 28.2 11.55 19 11.6 22.15 27.35"/><path fill="#5892bf" d="M327.85 157.25q-11.35 18-28.9 33.05-16.85 14.55-33.9 21.75-18.25 7.7-45.85 10.55-31.1 3.2-59.7-1.75-33.6-5.85-56.6-22.05-26.8-18.85-36.6-50.2-16.9-17.35-22.55-39.05-1.75-6.8-2.2-13.2l-.05-5.05q8.25-17.2 24.8-31.65Q97.55 32.5 149.6 23q18.25-10.65 39.6-9.4 19.65 1.15 37.35 11.85 14.75 0 19.6.35 14 1.05 26.3 5.2 34.9 11.8 60.6 49.65 11.55 17 9.3 38.05-1.95 18.75-14.5 38.55"/><path fill="#46799e" d="M41.45 92.35q7.9-8.95 18.75-16.2 10.45-7 20.4-10.3-9.85 48.75-.8 82.1 9.8 36.15 43.45 62.1-21.25-8.7-34.9-22.85-14.8-15.35-22.05-38.6-15.4-15.8-21.5-35.4-3.55-11.3-3.35-20.85"/><path fill="#5892bf" d="M124.45 45.4q-19.1 3.5-39.55 3.85 4-17.2 13.6-29.65 9-11.7 20.35-16.1 11.4-4.4 21.2.1 10.6 4.9 16.3 19 6.4 15.75-31.9 22.8M273.1 13.05q10.95 10.55 15.65 29.4 3.4 13.65-9.95 15.95-11.5 2-30.5-4.6-18.15-6.25-30-15.55-12.95-10.1-8.65-16.95 6.15-9.9 17.4-15.2Q238.4.7 250.4 2.15q13 1.55 22.7 10.9"/><path fill="#46799e" d="M341.85 119q-2.35 19-15.55 39.25-11.9 18.35-29.95 33.8-17.3 14.85-34.4 22.05-11.95 5.05-34.85 8.95-27.15 4.65-44.15 2.2 10.05-.95 29.4-11.9 15.5-8.75 28.75-26.8 12.7-17.3 19.9-38.35 7.35-21.5 6.7-40.4-.7-20.45-10.8-33-9.9-12.35-21.45-22.05-3-1.35-9.7-5.7-8.6-5.6-12.45-7.8-17.15-9.85-31.4-9.85-9.9 0-17.35 2.9-7.4 2.9-13.85 9.3-3.35 3.25-5.85 3.8 6.45-7.95 1.35-23.25-3.8-11.3-10.55-19.85 11.6 3 19.55 18l1.5-1.5q28.65-10.25 54.5-.25 9.25-7.7 21.1-10.4 11.35-2.6 22.55-.05 11.3 2.6 19.6 9.8 8.8 7.65 12.3 19.05 12 6.5 23.2 16.7 12.65 11.6 23.1 27 11.55 16.95 8.8 38.35"/><path fill="#fff" d="M7.7 97.3q3.65-6 7.65-9 6.65-4.95 13.4-2.5 5.25 1.9 7.75 6.3l24.25 3.2q7.05-8.05 14.7-1.9 7.1 5.75 9.15 17.9 1.9 11.65-1.85 22-3.9 10.85-12.2 14.5-12.4 5.4-25.25 5.2-18.85-.2-34.25-12.8-13.25-10.85-9-29.2 1.65-7.15 5.65-13.7"/><path fill="#dbdcdc" d="M22.85 85.1q4.45-.55 8.65 2 3.35 2.1 5 5l-3.05 13.45q-3.35 14-5 17.05-1.8 3.35-3.25 1.6-1.25-1.55-1.25-5.1 2.05-8.35 2.95-16 1.75-14.95-4.05-18m46.95 9.6q-4.2-.95-5.4 3.6-.45 1.6-1.65 15.2-1.6-2.2-1.95-10.4l-.05-7.8q7.05-8.05 14.7-1.9 7.1 5.75 9.15 17.9 1.9 11.65-1.85 22-3.9 10.85-12.2 14.5-12 5.2-24.5 5.2-18.25 0-33.35-11.55 8.2 2.75 12.8 3.6 6.5 1.25 16.65 1.3 11.45.1 18.45-2.2 9.6-3.15 12.7-11 4.3-10.75 4.25-22.65-.1-14.05-7.75-15.8"/><path fill="#fff" d="M44.1 85.55q5.65-.7 12 2.95 6.1 3.55 6.55 14.05.2 5.15-1.9 22.3-.7 5.75-6.15 8-4.85 2-11.45.55-6.55-1.4-10.8-5.25-4.7-4.25-4.15-9.55 1.1-10.3 3.9-18.9 2.35-7.4 4.8-10.45 2.5-3.15 7.2-3.7"/><path fill="#dbdcdc" d="M47.3 85.5q4.35.4 8.8 3 6.15 3.55 6.7 13.3.25 5.05-1.75 21.55-.45 4-4.35 6.35-1.5.95-2.15.25-.7-.75.2-3.35 2.25-6.45 1.45-19.75-1-17.15-8.9-21.35"/><path fill="#5892bf" d="M375.2 121.55q.55 8-2.55 17.25-3.3 9.9-9.65 17.75-15.65 19.45-40 16.7-20.9-2.4-29.05-15.35-2.9-4.65-4.45-11.15l-1.85-9.9 87.55-15.3"/><path fill="#46799e" d="M375.2 121.55q.55 8-2.55 17.25-3.3 9.9-9.65 17.75-15.65 19.45-40 16.7-8.05-.9-14.45-3.5 9.5-2.2 8.35-12.65-1.25-10.95-13.95-24.3l72.25-11.25"/><path fill="#fff" d="M105.55 32.25q0-6.1 3.3-11.5Q133.8 26.65 148 38.2q-2.15 7.2-8.05 12.3-6.3 5.45-13.5 5.15-10.8-.5-16.2-7.55-4.7-6.05-4.7-15.85"/><path fill="#dbdcdc" d="M137.45 31.15q6 3.3 10.55 7.05-.5 7.75-7.3 12.9-6.4 4.9-14.25 4.55-6.55-.3-11.15-3.05 7.55.35 13.7-5.5 6.3-5.95 8.45-15.95"/><path fill="#5892bf" d="M126.65 10.85q8.7 0 15.35 6.8 6.6 6.75 6.6 15.6 0 2.55-.6 4.95-14.2-11.55-39.15-17.45 2.85-4.55 7.5-7.2 4.8-2.7 10.3-2.7"/><path fill="#46799e" d="M148.6 33.25q0 2.55-.6 4.95-4.6-3.75-10.2-6.85 1.05-12.35-3.15-18.8 6.1 2.65 10 8.25 3.95 5.8 3.95 12.45"/><path fill="#fff" d="M262.1 18.4q5.55 6.35 5.55 14.7 0 9.35-6.65 15.9-6.65 6.6-16.05 6.6-7.55 0-13.6-4.55-5.95-4.45-8.1-11.45 19.55-16.2 38.85-21.2"/><path fill="#dbdcdc" d="M262.1 18.4q5.55 6.35 5.55 14.7 0 9.35-6.65 15.9-6.65 6.6-16.05 6.6l-3.65-.3q11.45-1.4 15.3-11.15 3.95-10-2.95-22.45l4.15-1.95q1.4-.6 4.3-1.35"/><path fill="#5892bf" d="M244.95 10.6q5.1 0 9.6 2.1 4.4 2.05 7.55 5.7-19.3 5-38.85 21.2-.95-3.25-.95-6.5 0-9.35 6.65-15.9 6.6-6.6 16-6.6"/><path fill="#46799e" d="M244.95 10.6q5 0 9.85 2.4 4.5 2.2 7.8 5.95-5 1.3-8.95 2.75-3.8-4.9-6.65-6.85-3.6-2.45-9.2-3.1 3.45-1.15 7.15-1.15"/><path fill="#fff" d="M244.95 60.15q16.6 3.95 26.15 16.4-.25.4 3.8 28.2t4.4 28.15q-3.6 16-12.7 29.65-9.05 13.6-22.35 23.2-28.85 20.7-66.3 16.8-22.45-2.35-40.85-10.8-18.3-8.35-30.55-21.85-12.55-13.8-17.5-31.45-5.1-18.4-1.45-39.35 4.3-24.4 22.35-33.15 16.6-8.05 45.75-3.25 17.65 2.9 29.9 2.8 12.6-.1 22.9-3.35 19.4-6.15 36.45-2"/><path fill="#dbdcdc" d="M257.5 64.95q8.15 4.5 13.6 11.6-.25.4 3.8 28.2t4.4 28.15q-4.25 18.9-16.05 34.35-11.8 15.5-29.1 24.75 15.9-15.05 22.95-36.5 6.2-18.8 5-40-1.1-19.05-7.65-35-6.35-15.35-14.95-21.4 9.9 1.4 18 5.85"/><path fill="#fff" d="M363.85 49.5Q375 58.2 380.3 70.8q5.65 13.3 4.15 29.7-1.35 14.95-15.2 26.55-9.9 8.25-24.95 13.9-16.4 6.15-36.1 3.25-19.9-2.95-28.45-13.1-9.2-11-11.75-27.8-2.6-17.3 4.2-27.3 5-7.3 11.35-8.45 4.85-.85 9.85 1.9 4.1-8.7 13-13.05 5.9-2.95 12.85-3.5 2.1-.15 4.2.45 5.2-12.1 17.55-12.5 11.3-.35 22.85 8.65"/><path fill="#dbdcdc" d="M326.65 46.45q3-3.4 9.55-4.7 6.85-1.4 14 .35 8.05 1.95 13.65 7.4 10.9 10.55 16 21.85 6.05 13.4 4.6 29.15-1.35 14.95-15.2 26.55-9.9 8.25-24.95 13.9-16.4 6.15-36.1 3.25-19.9-2.95-28.45-13.1 7.3 4.6 20.7 4.9 12.9.25 27.05-3.4 14.6-3.8 25.3-10.5 11.75-7.4 15.65-16.45 5.45-12.75 2.85-26.45-2.25-11.8-9.8-22.15-6.95-9.5-18.1-10.65-11.45-1.15-17.2 7.95-2.7-4.25.45-7.9"/><path fill="#dbdcdc" d="M293.4 69.45q1.95-2.1 6.2 3.8 3.6 5.1 7.8 14.3 3.9 8.6 5.9 15.4 2.15 7.2.5 7.2-1.15 0-4.4-7.05-4.55-9.95-7.5-14.65Q289.3 68.5 272.2 76q5.4-7.1 11.55-8.3 4.8-.95 9.65 1.75m58.15 26.85q-1.15 0-4.4-6.6-4.65-9.4-7.9-14.25-13.75-20.4-34.2-18.4 32.3-19.3 46.5 39.25"/><path fill="#0d131a" d="M68.85 158.05q.1.7.85 1.7-14.2 6.15-27.55 2.2-12.1-3.6-18.65-13.65l4.4 1.05q6.25 7.4 16.2 10.05 11.35 3 24.75-1.35m43.35 46.75l3.9 1.5q3.4 8.9.1 27-3.1 17.15-8.3 24.15 3 0 2.45.85-.6.85-4.75 1.4-11.75 1.65-24.7 7.8-20.15 9.65-25 24.45-.8 2.4.15 5.1.9 2.65 3.15 4.75 7.75 7.2 29.8 6.8 22.25-.4 39-8.3 15.65-7.4 19.1-13.5 1.6-2.75 1.5-6.3-.05-2.25-1.05-7.35l-1.05-4.75q-.95-5.45-.55-8.85 1.4-12.3 9.5-24.05 5.05-7.3 11.45-12.85l3.25-.25 2.55.4-3.75 3.7q-4.3 4.55-8 9.35-11.65 15.2-12.1 26.6-.2 4.35 1.15 10.2 1.4 6.2 1.4 8.65 0 5.75-4.2 10.2-4.9 5.25-17.55 11.25-17.4 8.2-40.05 9.25-24.35 1.1-33.25-7.95-6.3-6.45-3.65-12.9 6.35-15.25 24.25-24.55 11.3-5.8 28-9.4 3.6-5.4 6.25-17.55 2.65-12.05 2.65-22.6 0-7.85-1.65-12.25m219.6 97.7q.9 5.35-1.2 9.45-1.5 2.95-4.85 5.45-9.95 7.4-33.1 4.8-22.2-2.55-39.8-12.05-7.65-4.15-11.95-9.25-4.2-4.95-5.65-11.3-2-8.6 2.45-17.65-1.8-11.8-13.15-31.55l-11.15-17.65h6.05q3.25 4.7 9.85 17.75 9.45 18.7 11.05 29.15.2 1.6-.05 2.85-.25 1.2-1.3 3.6-.95 2.15-1 6.1-.05 4.4 1.2 8.35 3.15 10.2 15.95 16.95 16.3 8.65 37.7 11.2 22.5 2.7 31.65-4.15 5.7-4.2 4.2-11.8-3.45-17-24.2-28.35-7.2-3.9-15.5-6.55-6.3-2.05-10-2.45-3.75-.45-4.6-1.45-.85-.95 2.15-1.35-3.5-7.25-7.05-27.55-3.35-19.55-2.6-25.2l1.95-1.25q1.95-1.15 1.95-.5 0 10.6 2.6 28.4 3.05 20.7 6.75 26.4 16 2.7 29.2 10.4 19.45 11.3 22.45 29.2"/><path fill="#0d131a" d="M65.7 150.25l2.05-1.35q5.7 17.7 23.5 36.05 14.75 15.25 28.4 22.35 6.1 3.2 4.45 3.7-1.6.55-6.2-1.55-17.35-7.95-31.45-23.25-15.5-16.75-20.75-35.95m251.95 22.8q-10 12.9-22.95 22.8-12.7 9.75-26.2 15.05-6.5 2.6-6.8 1.3-.25-1.3 4.2-3.2 6.1-2.55 21.05-13.15 18.45-13.05 27.65-23.9l3.05 1.1m-95.95 47.6q6.9-1.25 6.9-.05t-8 3.3q-10.65 2.8-27.15 3.15-18.6.35-29.45-3.3-7.4-2.5-7.85-3.9-.45-1.4 6.55.35 12.45 3.15 32.05 2.8 15.6-.35 26.95-2.35m-9.35-203.3q-.85.6-1.8 1.7-12.85-4.1-27.8-3.5-14.85.55-27.15 5.6-.5-.7-.95-2 13.35-6.3 28.25-6.75 14.85-.45 29.45 4.95"/><path fill="#0d131a" d="M145.4 5.4q9.3 6.55 11.8 16.8.5 1.95-.05 2.55-.6.65-1.65-1.8-3.95-9.25-11.9-14.7-8.15-5.55-17.15-4.7-12.9 1.25-24.6 15.15-11.1 13.1-15.2 29.95-.95 3.7-1.7 3.9-.75.2-.3-3.9Q86.7 31.1 98.7 16.75q12.35-14.8 27.65-16.6 9.85-1.2 19.05 5.25m143.55 35.65q.8 3.25.35 4.1-.45.8-1.2-1.5-5.45-16.55-15.15-27.1-10.4-11.3-23.5-13.15-10.75-1.5-22.2 4.6-9.65 5.15-16.8 13.8-2.3 2.75-2.55 1.9-.25-.8.95-2.85 6.15-10.3 17.8-16.15Q238.6-1.25 250.6.4q14.05 2 24.2 12.8 10.05 10.7 14.15 27.85m-43 17.95q16.85 4.05 26.55 16.7l-1.95 3.25q-8.8-12.75-24.55-16.9-16.6-4.4-37.35 1.9-10.35 3.15-21.75 3.25-10.8.1-28.85-2.6-36.35-5.4-53.35 7.15Q92.55 80.7 89 100.9q-3.75 21.45 2.55 40.4 5.9 17.75 19.95 31.45 13.5 13.15 32.6 20.55 19.05 7.45 40.45 7.9 37.4.85 63.45-20.95 24.05-20.15 29.85-51.4l1.4 2.1 1.55 1.95q-3.65 16.25-12.85 30.15-9.2 13.85-22.75 23.55-29.25 21.05-67.3 17.1-22.8-2.35-41.5-10.95-18.6-8.55-31.1-22.25-12.75-14-17.75-31.9-5.2-18.7-1.45-40 4.35-24.8 22.7-33.65 16.85-8.15 46.5-3.3 17.9 2.95 30.35 2.85 12.75-.1 23.25-3.4 19.75-6.25 37.05-2.1"/><path fill="#0d131a" d="M165.45 55.35q.4-1.45 1.7-3.5.65-1.05.9-.75.25.25.1 1.25-.25 1.85-1.1 3.9-.3.8-1.05.3-.75-.45-.55-1.2m24.1-3.4q-.45-.8-.15-1 .3-.25 1.05.25l1.6 1.4 1.1 1.45q.4.75-.2 1.15-.6.45-1.2-.2l-2.2-3.05M199 94.8q-11.9-3.8-24.45-2.75Q157.8 93.4 145.8 107q-11.3 12.85-11 27.3.2 6.95 3.3 13.2 3.1 6.3 8.75 11.05 6.55 5.55 15.3 8 8.7 2.45 18 1.35 15.75-1.85 23.7-13.4 7-10.2 5.85-23.95-.9-10.55-11.05-17.75-9.6-6.8-20.55-6.25-10.3.5-17.75 8.65-6.7 7.3-6.85 14.95-.15 8.15 5.6 13.6 5.2 4.9 12.75 5.65 7.9.75 12.65-4.65 2.9-3.3 4.05-7.95 1.05-3.95-1.25-7.35-2.1-3.15-6.15-3.85-3.55-.6-6.3 2.1-1.8 1.8-2.3 4.85-.2 1.2.3 2.75l1.05 2.7q.5 1.25-1.55 1.75-2.1.5-3.7-1.3-2.4-2.8-2.15-7.25.05-1.55 1-3.85 1.1-2.7 2.75-4.35 2.35-2.4 5.5-3.4t6.4-.45q3.15.5 5.95 2.45 2.65 1.8 4.45 4.5 1.8 2.65 2.35 5.85.6 3.2-.2 6.35-2.25 8.8-8.55 13.45-6.3 4.65-14.9 3.8-10.45-1-17.35-8.3-6.9-7.3-6.7-17.2.25-10.45 8.95-19.45 9.25-9.55 21.6-10.2 13.25-.65 24.85 7.75 12.25 8.9 13.35 21.9 1.35 15.8-7 27.95-9.55 13.85-28.05 16-10.6 1.3-20.6-1.55-10-2.85-17.55-9.25-6.7-5.65-10.4-13.1-3.65-7.4-3.85-15.65-.4-16.8 12.25-31.35Q154.3 87.5 174 85.9q14-1.15 27.3 3.2 16.05 5.25 24.75 17 6.45 8.7 8.1 21.3 1.6 12.65-2.1 25.05-3.85 12.75-12.25 22-8.45 9.3-20.5 13.9-21.9 8.35-46 .2-22.25-7.55-33.85-24.05-10-14.2-10.15-32.35-.2-20.6 13.05-37.9 10.65-13.9 27.05-20.5T185 69q20.35 1.95 37.15 11.35 20.25 11.25 27.1 29.6 5.75 15.2 4 32.75-2 19.75-13.25 34.5-5.6 7.3-8.1 5.4-2.5-1.85 3.05-9.15Q245.2 160 247 141.95q1.6-15.95-3.65-29.9-5.9-15.75-23.9-26.05-15.85-9.05-35.05-10.9-21.2-2.05-37.65 6.55-11.45 6-19.35 16.3-11.95 15.6-11.8 34.05.1 16.25 9.05 29 10.45 14.85 31 21.7 22 7.3 41.3-.1 10.65-4.1 18.15-12.3 7.55-8.25 10.9-19.6 3.35-11.1 1.95-22.25-1.35-11.15-7-18.75Q213.3 99.4 199 94.8m-52.45-55.55q2.4-8.5-1.8-16.45-4.15-8-12.3-10.5-8-2.4-15.35 1.85-7.4 4.3-9.8 12.75-2.5 8.7 1.35 16.55 3.8 7.9 11.65 10.25 8.15 2.5 16.05-1.8 7.9-4.35 10.2-12.65M128.6 9.85q9.4.85 15.65 8.35t5.45 16.9q-.8 9.55-8 15.75-7.55 6.6-18.05 5.5-9.2-.95-14.85-8.4-5.6-7.35-4.75-17.05.8-9.45 8.05-15.65 7.25-6.25 16.5-5.4"/><path fill="#0d131a" d="M131.5 26.35q8.2 3.95 16.55 11.1l.05 1.85q-11.2-7.45-18.5-10.95-11.6-5.6-21.5-6.1l1.05-1.8q11.9.85 22.35 5.9"/><path fill="#0d131a" d="M131.1 28l4.25 1.5q2.65 1.1 2.65 1.3.3 4.65-.7 7.6-.9 2.65-2.35 2.75-2.15.1-3.3-3.65-1.15-3.8-.55-9.5M250 10.5q4.6.9 8.5 3.4 4 2.6 6.6 6.35 2.6 3.75 3.4 8.2.9 4.5-.05 9.05-.95 4.7-3.65 8.6-2.65 3.85-6.65 6.45-3.9 2.5-8.5 3.4-7.65 1.55-16.4-3.2-9.75-5.25-11.95-14.45-2-8.5 2.55-16.3 5.25-9.05 17.05-11.45 4.5-.9 9.1-.05m2.9 3.55q-4-1.6-8.3-1.6-4.3-.05-8.2 1.5-4.1 1.7-7.25 4.8-3.15 3.1-4.8 7.1-1.55 3.65-1.55 7.55 0 3.85 1.6 7.4 1.7 3.85 5.05 6.9 3.35 3.05 7.65 4.75 4.15 1.6 8.5 1.7 4.35.05 8.05-1.45 7.95-3.25 11.35-11.35 1.65-3.95 1.6-8.15 0-4.25-1.7-8-1.7-3.8-4.8-6.7-3.1-2.9-7.2-4.45"/><path fill="#0d131a" d="M261.35 18.25l.8 1.4q-6.6 2.4-14.6 6.15-16.05 7.55-24.2 15.1l-.65-1.95q8.9-7 16.25-11.35 12-7.2 22.4-9.35"/><path fill="#0d131a" d="M243.85 26.45q1.15 6.65.05 11.1-1.05 4.3-3.45 4.3-1.5 0-2.75-2.45-1.5-3-1.35-8.1l7.5-4.85M81.55 62.3q2.4-2.35 2.45-1.45.05.85-1.45 2.95-2.2 2.9-5.5 9.1-4.6 8.6-7.85 17.55-.4-.1-1.7.35l-1.7.5q3.4-9.5 8.45-18.35 4.3-7.6 7.3-10.65"/><path fill="#0d131a" d="M14.7 87.45q3.15-2.35 6.35-3.4 3.45-1.1 6.5-.5 4.65.95 9.05 6.7l-1.65 1.45q-1.35-1.85-3.4-3.25-2.35-1.6-4.9-2.1Q21.25 85.2 16 89.2q-4.6 3.45-8.5 11.4-4.4 9.1-4.6 18.15-.15 6.4 2.05 11.2 2.2 4.7 7.15 8.75 15.45 12.6 34.3 12.45 12.1-.1 23.8-5.25 7.7-3.35 11.45-13 3.8-9.75 1.85-21.4-1.2-7.15-4.7-12.6-3.55-5.45-7.75-6.65-5-1.45-9.5 3.75L60 93.75q5.25-6.1 12-4.1 4.8 1.35 8.6 7.5 3.7 5.95 5.05 13.95 1.9 11.5-1.7 22.1-4 11.65-12.95 15.6-12.1 5.25-24.8 5.3-19.75.05-35.8-13.05Q5.15 136.8 2.5 131q-2.65-5.75-2.5-12.6.2-8.9 4.9-18.25 4.3-8.55 9.8-12.7"/><path fill="#0d131a" d="M43.8 84.7q6.3-.75 12.75 3 5.4 3.1 6.55 13.9.9 8.7-1.05 18-.9 4.25-1.55 3.9-.6-.3-.3-4.1.9-11.55.55-16.7-.7-10.3-5.2-12.9-5.7-3.3-11.25-2.3-4.65.8-7.2 3.95-2.25 2.85-5.1 12.1-2.95 9.8-3.35 16.85-.2 2.85-.95 2.05-.75-.75-1.15-3.7-.65-5.2 2.95-16.35 3.35-10.3 5.95-13.6 2.8-3.5 8.35-4.1m332.8 35.55q.65 9.35-3.55 20.7-4.75 12.95-13.7 21.45-7.4 7.1-16.75 10.15-9.25 3.05-19.75 1.95-21.75-2.3-30.65-15.2-3.2-4.7-4.95-11.2-.8-2.8-2-10.1h.05q1.85 1.1 4.15 2 2.05 12.55 6.95 18.85 8.05 10.4 26.85 12.55 19.65 2.3 34.25-11.65 8.6-8.2 13.05-19.45 3.95-10 3.4-18.65l2.65-1.4"/><path fill="#0d131a" d="M336 40.3q6.35-1.7 14.4.6 8.1 2.25 15.15 7.75Q377.2 57.7 382.4 70.8q5.2 13 3.75 29.2-1.5 16.9-16.2 28.65-9.25 7.45-25.2 13.45-17.35 6.55-37.6 4.05-20.6-2.6-29.3-12.9-9.35-11.1-12.25-28.6-3.05-18.55 4.2-29.15 2.6-3.8 6.95-6.1 3.65-1.9 7.8-2.4 8.3-.95 13.2 4.05 5.35 5.35 10.65 15.25 6.1 11.45 7.15 20.6.4 3.8-1.45 3.8-1.9 0-2.35-3.6-.8-6.75-6.6-18.95-5.5-11.75-8.85-14.8-1.55-1.35-4.25-2.4-3.85-1.5-7.6-1.05-3.45.35-5.9 1.75-3 1.65-5.3 5.1-6.35 9.35-4.05 25.95 2.3 16.65 11.5 27.6 8.15 9.65 27.7 12.2 19.3 2.5 35.6-3.65 37-14 39.2-38.45 1.45-15.65-3.65-28.4-5.15-12.7-16.45-21.5-6.7-5.2-13.3-7.15-6.65-2-12.35-.45-8.35 2.2-12.2 11.35l-3.05-1.15q4.25-10.3 13.8-12.8"/><path fill="#0d131a" d="M341.35 65.65Q351 78.8 352.05 93.6q.3 4.05-.9 4-1.2 0-1.9-3.85-2.5-14-12.15-26.8-10-13.2-18.6-12.55-7.35.6-14.45 5.15-7.1 4.5-8.85 9.7l-2.05-.7q2.25-6.65 8.35-11.2 7.3-5.4 17.65-5.55 11.95-.1 22.2 13.85"/><path fill="#fff" d="M136.5 33.3q0 .8-.6 1.4-.65.55-1.4.55-.65 0-1.25-.55-.65-.65-.65-1.5t.55-1.45q.55-.6 1.4-.6.8 0 1.35.55.6.6.6 1.6m105.7-1.1q0 .95-.65 1.6-.6.55-1.35.55-1 0-1.6-.6-.6-.55-.6-1.5t.6-1.6q.6-.7 1.5-.7.8 0 1.45.6.65.7.65 1.65"/><path fill="#0d131a" d="M86.35 44.1l-.3 2.7q-11.45 7.45-20.8 15.8-13.85 12.35-19 23.4l-4.05.2q4.85-11.15 17.65-23.05 11.8-10.95 26.5-19.05m200.3-7.95q6.8 2.45 14.1 7.25 7.45 4.85 12.3 10.2l-3.8 1.55q-4.35-5-10.95-9.75-5.85-4.25-10.75-6.45l-.9-2.8"/></svg>