<svg xmlns="http://www.w3.org/2000/svg" width="361" height="259" viewBox="-1.3 -1.8 361.45 258.95"><path fill="#edc300" d="M348.4 42.2q11.55 38.25 5.7 73-5.65 33.25-26.1 57.85-20.4 24.5-51.65 35.65-32.5 11.6-71 6.5l40.45-56.55q39.35 1.3 63.75-30.65 18.4-24 24.4-59.5 2.75-16.15 4.85-24.55 2.35-9.55 4.35-11.05 1.25-.95 2.75 2.15 1 2.15 2.5 7.15"/><path fill="#c6a400" d="M333.95 144.9q14.05-24.1 21.9-60.5 1.45 30.85-9.2 57.25-10.35 25.8-30.75 43.85-20.6 18.3-48.45 26.05-28.95 8.05-62.1 3.65l40.45-56.55q6.95.25 10.65-.2l4.75-.8q6 15.4 18.35 20.25 12.5 4.85 26.6-3.05 15.35-8.6 27.8-29.95"/><path fill="#a4725d" d="M343.6 88.45q9.85 2.85 12.05 13.1l-.6 6.2q-.75 6.75-1.3 9.6-1.25-6.4-7.15-11.2-8.8-7.25-22.7-2.7 1.45-3.35 2.95-8.15l1.25-4.1q6.3-5.5 15.5-2.75"/><path fill="#815847" d="M355.65 102.6l-.6 5.65-1.3 9.1q-.2-1.05-1.25-2.95-1.35-2.5-3.3-4.65 2.55-6.5 3.95-13.8 1.55 2.55 2.5 6.65"/><path fill="#edc300" d="M119.8 193.3q-2-2.45-3.75-12.45-1.9-10.75.5-13.2 3.8-3.8 27.35 9.85 5.2 2.95 9.65 7.65 6.65 7.2 5.35 13.5-1.4 6.65-9.4 7.85l-6.1-.2q-2.9-.65-4.1-2-1.65-1.95-10.15-5.9-8.4-3.9-9.35-5.1"/><path fill="#c6a400" d="M119.8 193.3q-1.2-1.5-2.75-7.65-1.6-6.55-1.8-11.6 7.45 3.65 13.75 4.7 8.2 1.35 13.95-1.8l.95.55q5.2 2.95 9.65 7.65 6.65 7.2 5.35 13.5-1.4 6.65-9.4 7.85l-6.1-.2q-2.9-.65-4.1-2-1.65-1.95-10.15-5.9-8.4-3.9-9.35-5.1"/><path fill="#edc300" d="M101.05 159.8q4.35-9.65 10.15-10.45 7.4-1 10.5 17.8 3.6 21.95 2.8 32.05-.7 8.95-5.25 11-3.65 1.65-7.9.1l-6.7-3.4q-7.4-1.3-11.1-.8-7.85 1-14.2 8.05-3.5 3.9-6.25 3.2-2.45-.6-3.8-4.75-2.95-9 .75-21.7 3.75-12.85 11.45-21.15 8.5-9.2 19.55-9.95"/><path fill="#c6a400" d="M92.7 185.05l9.1-1.55q4.75-1.2 8.2-4.15 2.95-2.5 3.7-5.4.3-1.2.3-4.95 2.25 1.8 4.45-.05 1.75-1.45 2.8-4.4l.45 2.6q3.7 22.45 2.5 33.3-.95 8.4-4.95 10.2-3.9 1.75-14.6-3.75-5.9-1.05-11.4-.15-8.5 1.45-13.9 7.4-6 6.65-9.25.35-3.05-5.9-1.45-17.05 11.05-10.2 24.05-12.4"/><path fill="#edc300" d="M46.4 128q3.85 1.6 10.25 4.55 3.05 1.2 6.75 8.1l5.65 10q3.35 4.3 4.55 8.25 2 6.6 1.55 18.7-.45 13.6 2.6 24.5 1.9 6.9 5.8 13.85 1.75 3.2-.65 8.15-1.75 3.6-7 10.25-1.8 2.25-8.15 4.85-7.1 2.85-13.15 3-2.8.05-2.65-1.85.15-1.6 1.65-2.75 2.5-1.95 4.2-3.9 2.05-2.45 2-4.05-7.65-4.55-15.35-20.6-6-12.45-10.55-28.45-2.3-1.9-8.85-10.35-6.55-8.35-7.45-10.45-.55-1.25-3.15-2.9-2.5-1.65-5.55-2.75-3.6-1.35-6.05-3.95-2.65-2.8.2-3.55 3.15-.8 10.95-.1 7.95.75 11.35 2.3 2.35 1.05 7.3 5.45 5.45 4.9 8.5 6.65l4.7-1.9q3.1-1.9 3.75-5.85-.7-4.4-5.45-10.8-3.05-4.15-7.15-8.3-3.85-3.9-4-6.3-.15-2.3 3.2-2.55 3.15-.2 10.2 2.75"/><path fill="#c6a400" d="M2.6 147.9l.4-.8q.3-.6.7-.7 3.15-.8 10.65.05 7.55.85 11 2.4 2.35 1.05 6.9 5.05 5.3 4.75 7.85 6.4-1.55.85-2.8 3.1-1.05 1.9-1.65 4.25-1.5-4.5-6.75-9.95-4.85-5.05-7.85-6.1-2.9-1-8-2.05-5.6-1.2-10.45-1.65m51.6-10.85q-4.15-4.85-12.7-10.7 3.15.7 8.15 3l7 3.2q3.05 1.2 6.75 8.1l5.65 10q3.55 4.65 4.6 7.7 1.7 4.9 1.4 14.1-.55 16.35 2.15 27.3 1.85 7.55 6.6 16.2 1.75 3.15-.8 8.15-1.7 3.35-7.1 10.25-1.3 1.7-6.25 4.05-5.85 2.8-12.5 4.25 11.5-6.85 14.7-15 3-7.65-3.2-9.65-.9-10.3-5.5-35.8-3.65-20-2.85-27.7.95-9.15-6.1-17.45m170.3 67.3q-4.05-1.85-11.05 3.5l-5.45 4.5q-3.05 2.5-4.75 3.3-3.85 1.75-7.6.35-3.1-1.15-4.35-3.4l7.05-3.25 20-15.8 6.15 10.8"/><path fill="#edc300" d="M174.15 210.75q1.4 1.1 1.4 2.4 0 1.45-1.8 2.35-2.4 1.3-5.95.05-3.5-1.25-4.8-3.65l3.95-1.9q2.25-.95 4.2-.6 1.8.3 3 1.35m41.05-23.45q0-4.35 7.35-13.9 7.45-9.65 12.75-11.95 4.9-2.1 10.4.4 4.3 1.95 7.7 5.8l5.75 7.1q3.4 4.85 6.1 11 1.5 3.4-.2 12-1.6 8.25-5.2 16.55-3.85 8.85-7.95 12.85-4.7 4.55-8.3.95-6.85-6.85-18.1-23.7-10.3-15.45-10.3-17.1"/><path fill="#c6a400" d="M215.2 187.3q0-4.35 7.35-13.9 7.45-9.65 12.75-11.95 4.2-1.8 9.55.2 5.3 1.95 9.25 6.65-5.55 1.85-7.9 8.05-2.1 5.65-1.2 13.7.9 7.75 4.25 15.4 3.5 7.9 8.55 13.2-3.6 6.85-7.1 9.55-4 3-7.1-.1-6.85-6.85-18.1-23.7-10.3-15.45-10.3-17.1"/><path fill="#edc300" d="M288.7 130.7q6.65-.8 7.1 1.95.35 2.05-4.65 7.9-4.1 4.9-6.9 7.15-2 1.55-2.65 4.5-.7 3.05-.3 8.75 2.55 4.2 4.9 6.65l1.8 1.6 5.25-6.15q5.9-6.45 9.1-8.1 3.35-1.65 10.55-2.1 4.95-.3 8.85-.05 5.25.3 4.75 3.05-.5 2.5-4.45 4.25-4.4 1.85-6.3 2.8-3.2 1.55-5.1 3.45-3.85 3.9-12.3 16.8-10.4 15.85-18.1 31.5-6.4 13-12.95 19.05-6.3 4.45-8.6 6.9.05 1.35 1.85 7.5 1.25 4.3-.2 5.1-6.15-.05-11.15-3.8-7.15-5.45-10.55-17.75-1.05-3.2.95-7.8 1.65-3.75 5.1-7.85 6.1-7.3 10.25-28.2l2.9-14.95q1.6-7.9 2.8-11.65 2.35-7.1 5.2-13.25 3.95-8.7 6.85-10.65 8.5-5.65 16-6.6"/><path fill="#c6a400" d="M291.55 134.7q3.35-1.5 3.45-.65.35 2.05-4.2 7.2-3.55 4.05-6.55 6.45-2 1.55-2.65 4.5-.7 3.05-.3 8.75.65 2.5 3.55 4.95l3.6 2.95q.15 3.1 1.45 6.35 1.35 3.35 2.45 2.9.4-.15 4.25-7.75 3.9-7.75 6.35-8.95 3.25-1.65 8.35-3.05 4.8-1.35 9.2-1.95 4.4-.6 4.75.75.4 1.35-3.2 2.95-4.4 1.85-6.3 2.8-3.2 1.55-5.1 3.45-4.75 4.8-13.5 18.45-9.5 14.85-16.9 29.85-6.65 13.45-13.4 19.95-2.25 2.15-5.05 3.95-2.8 1.7-3.95 2.5-.25-8.85-.7-12.2-.75-5.6-3.7-5.85 7.2-10.4 9.85-24.1l2.4-13.9q1.7-9.55 4.05-18.15 2.65-12.1 3.35-14.05 2.9-8.55 8.55-12.3 6.15-4.1 9.9-5.8"/><path fill="#edc300" d="M177.5 98.45q3.2-3.75 10-6.1 6.45-2.25 14-2.55 7.75-.3 13.75 1.55 6.6 2 9.25 6.1 4.7 7.2 6.85 19.8 1.65 9.85 2.95 31.85.55 9.55-3.35 19.55-3.65 9.45-10.55 17.4-6.8 7.9-15.1 12.5-8.65 4.75-16.95 4.75-8.45 0-16.6-3.55-8-3.5-13.5-9.4-5.75-6.2-7.1-13.4-1.5-7.9 2.6-15.5 5.5-10.3 12.85-35.55 6.4-22.15 10.9-27.45"/><path fill="#c6a400" d="M177.5 98.45q3.2-3.75 10-6.1 6.45-2.25 14-2.55 7.75-.3 13.75 1.55 6.6 2 9.25 6.1 4.7 7.2 6.85 19.8 1.65 9.85 2.95 31.85 1.05 17.8-11.75 34.35-12.55 16.2-28.6 19.3 2.65-11.25 2.75-26.05.1-15.45-2.7-28.35-3.2-14.4-9.25-21.55-6.95-8.2-16.8-5.65 2.55-8.55 4.45-13.35 2.5-6.25 5.1-9.35"/><path fill="#a4725d" d="M177.5 98.45q3.2-3.75 10-6.1 6.45-2.25 14-2.55 7.75-.3 13.75 1.55 6.6 2 9.25 6.1 4.7 7.2 6.85 19.8 1.65 9.85 2.95 31.85.35 6.5-1.35 13.35-25.35-17.4-38.05-20.95-17.05-4.8-34.65 5.35l8.5-28.15q4.7-15.5 8.75-20.25"/><path fill="#815847" d="M177.5 98.45q3.2-3.75 10-6.1 6.45-2.25 14-2.55 7.75-.3 13.75 1.55 6.6 2 9.25 6.1 4.7 7.2 6.85 19.8 1.65 9.85 2.95 31.85.35 6.5-1.35 13.35-14.05-9.65-22.1-14.1-10.6-5.85-19.05-7.6-6.55-20.55-21.55-26.8 3.7-11.35 7.25-15.5"/><path fill="#0d131a" d="M177.5 98.45q3.2-3.75 10-6.1 6.45-2.25 14-2.55 7.75-.3 13.75 1.55 6.6 2 9.25 6.1 4.15 6.45 5.15 10.75.85 3.65 1.95 19l-5.25 6.15q-3.5 3.05-7.7 2.3-5.95-1-8.85-9-3.1-8.75-5.75-9.45-3.85-.95-10.95-1.25-7.5-.3-9.6.7-1 .5-3.75 5.85-2.8 5.5-5.75 7.25-2.15 1.3-4.5 1.85l-4.5.6q1.2-6.45 5.85-20.05 1.65-4.8 2.7-7.15 1.75-4 3.95-6.55"/><path fill="#edc300" d="M162.85 122.55q2.1 2.45 1.2 4.85l-3.6 8.65Q158.4 141 156.8 147q-.9 3.45-4.5 4.7l-7.2.25q-3.9-.85-6.25-3.05-2.5-2.4-1.6-5.15 2.3-6.85 3.95-11.1 2.3-5.85 5.3-12 1.15-2.35 4.5-2.7 3-.3 6.45 1.05 3.5 1.35 5.4 3.55"/><path fill="#c6a400" d="M163 122.65q2 2.35 1.05 4.75l-3.6 8.65Q158.4 141 156.8 147q-.95 3.75-4.9 4.85.9-14-8.55-25.7 1.3-2.7 3.15-5.5 1.5-2.2 4.85-2.5 3.1-.25 6.45 1.05 3.4 1.3 5.2 3.45"/><path fill="#a4725d" d="M175.6 118.55q0 1.25-1 3.15-2 3.8-6.95 7.25-4.15 2.9-11.8.2-6.5-2.25-11.95-6.95-2.4-2.05-8.2-1.8-4.5.2-7.8 1.3-3.05 1.05-3.9-.85-1.15-2.55 2.35-10 3.15-6.65 9.3-10.45 5.85-3.55 13.45-4l26.5 22.15"/><path fill="#815847" d="M175.6 118.55q0 1.25-1 3.15-2 3.8-6.95 7.25-5.6 3.9-13.75.05-4.4-2.05-10-6.8-1.85-1.6-5.7-1.75 1.95-1.85 5.5-2.2l5.8-.55q6.3-1.6 5.75-16.15l20.35 17"/><path fill="#edc300" d="M179.35 185.45q.55 7-2.45 15.1-2.85 7.55-12.75 9.3-9.4 1.7-13.75-2.85-3.4-3.55-5.15-7.8-2.2-5.15-2.5-12.2-.35-6.45-3.7-15.6-3.25-8.85-6-11.5-3-2.9-2.95-6.75 0-3.4 2.5-8.35 2.5-5.05 7.9-7.4 5.9-2.65 11.75-.1 5.2 2.3 7.1 8.75 1.05 3.6 2.1 10.25 1.6 5.25 5.1 9.75 2.6 3.4 8.2 8.6 4 3.7 4.6 10.8"/><path fill="#c6a400" d="M174.45 174.5q4.05 3.75 4.75 10.85.7 7.2-2.3 15.2-1.65 4.35-5.95 7.05-3.85 2.4-8.65 2.9.35-1.7.35-4.75 1.45-8.7-.85-21.3-2.05-11.45-6.55-22.75-4.35-11.1-9.15-17.4-5.15-6.75-8.75-5.25 3.25-2.35 7.15-2.8 4-.5 7.9 1.25 5.15 2.25 7 8.65 1 3.55 2.05 10.15 1.2 3.8 5.1 9.2 3.75 5.15 7.9 9"/><path fill="#c6a400" d="M175.8 178.45q2.9 1.55 3.05 8.65.15 6.85-1.4 7.15-2.4.35-7.25-1.5-5.95-2.3-5.9-6 .1-5.15 4.3-7.7 3.9-2.35 7.2-.6"/><path fill="#edc300" d="M156.4 213.65q-3.45-3.35-1.4-7.1 1.85-3.35 4.75-3.35 2.05 0 4.85 4.2l4.4 7.45q1.75 2.95-3.8 2.4-5.6-.5-8.8-3.6"/><path fill="#edc300" d="M164.85 190.6q4.45.25 9.25 7 4.6 6.35 3.35 8-1.6 2.1-6.35 2.6-6.2.65-10.95-3.9-5-4.8-2.2-9.6 2.5-4.35 6.9-4.1"/><path fill="#c6a400" d="M164.85 190.6q4.45.25 9.25 7 4.6 6.35 3.35 8-.7.9-2.8 1.75-2.6 1-5.4.95-.6-8.95-5.35-17.65l.95-.05"/><path fill="#edc300" d="M177.55 180.85l-3.45 11.9q-15.8-2.15-14.75-4.25 1.35-2.7 8.8-5.4 6.75-2.5 9.4-2.25"/><path fill="#c6a400" d="M175.35 188.4l-1.25 4.35q-15.4-2.05-14.75-4.2 9.05 2.15 16-.15m3.7 20.1l12.95 3.55q-11.25 10.55-24.75 6.8.45-1.25 4.8-4.95 3.7-3.15 7-5.4"/><path fill="#edc300" d="M158.95 210.55q-2.4-1.1-2.25-2.1.15-.7 2.1-2.05l7.45-4.7q5.95-3.65 7.55-4.4l5.1 13.25q-5 2.45-11.45 2-5-.35-8.5-2"/><path fill="#c6a400" d="M158.95 210.55q-3.2-1.45-2.05-2.95 9 1.1 18.75-5.5l3.25 8.45q-5 2.45-11.45 2-5-.35-8.5-2"/><path fill="#edc300" d="M224.8 126.9l18.35-6.55q.8 31.6-.9 34-1.5 2.1-9.35-.4-8.1-2.6-8.5-6.7-.3-3.45 0-12.25l.4-8.1"/><path fill="#c6a400" d="M236.8 137.95q-4.65-5.05-12.3-4.3l.3-6.75 18.35-6.55.25 12.95q.05 12.05-.45 17.4-2.45-8.7-6.15-12.75"/><path fill="#a4725d" d="M243.65 87.95q5.45 2.2 12.25 8.3 7.3 6.55 10 17.1 2.55 9.65-.25 15.05-2.2 4.3-11.15 5.85-7.3 1.25-10.95.25l.3-14.15-15 6.8q-4.2 2.05-11-1.8-7.7-4.35-9.9-12.85-2.9-11.45 1.8-17.2 3.95-4.75 15.9-8.05 9.7-2.65 18 .7"/><path fill="#815847" d="M246 89q4.55 2.35 9.9 7.25 7.1 6.35 9.8 17.05 2.55 10-.35 15.75-2.2 4.25-11 5.5-7.05 1-10.8-.05l.3-14.15-15 6.8q-2.8 1.35-7.2-.35-4.75-1.9-8.15-6.4 6.5 2.45 14.9.2 5.15-1.4 16.7-6.8 8.25-3.85 7.45-11.5-.6-6-6.55-13.3"/><path fill="#edc300" d="M174.3 192.55q.4-6.85 2.45-10.5 1.45-2.6 7.15-4.85 7.85-3.15 9.85-4.4 4.9-3.05 10.8-8.9 6.3-6.3 9.7-11.95 5.7-9.45 10.85-9.65 9.6-.5 15.75 6.3 5.05 5.55 5.95 13.1.55 4.85-4.35 9.45-6.95 5.45-10.85 9.1-8 8.35-14.55 14.5-12.5 11.8-20.75 15.8-7.5 3.7-12.95 1.45-4.6-1.9-7.4-7.7-2.1-4.4-1.65-11.75"/><path fill="#c6a400" d="M183.2 193.15l7.7-2.35q4.9-1.65 8.45-3.9 11.85-7.45 23.2-20.35 14.05-16.05 9.2-23.45 6.95 2.15 11.15 7.4 3.8 4.75 4.5 10.85.5 4.3-5.75 10.3l-10.05 8.6q-8.15 8.3-14.85 14.45-12.75 11.7-21 15.75-13.6 6.7-19.8-6.15-.6-1.3-1.15-3.6.55-5.05 8.4-7.55"/><path fill="#edc300" d="M154.35 14.55l-23.6 31.7q-4.5-7-8.5-21.6Q118 9.05 119.9 3.3q4.6-3.1 18.25 2.4 11.75 4.75 16.2 8.85"/><path fill="#c6a400" d="M126.1 2.35q6.55.7 16.45 5.3 8.7 4.05 11.8 6.9l-4.8 6.4q-4.05-6.05-10.4-11.05-6.2-4.9-13.05-7.55"/><path fill="#fffac6" d="M122.75 7.45q7.05 6.9 10 10.85 3.9 5.2 6.85 12.75l-5.95 12.3q-3.85-7.65-6.9-16.9-3.6-11.15-4-19"/><path fill="#edc300" d="M250.05 25.4q-4.95 15.25-10.65 22.4l-31.7-33.65Q217.6 8.9 234 5.5q16.25-3.35 19.75-1.05 1.2 5.95-3.7 20.95"/><path fill="#fffac6" d="M226.3 35.3q5.55-10.1 9.55-14.75 5.85-6.9 14.75-11.3-2.7 21.75-14.65 36.4L226.3 35.3"/><path fill="#dcd8ac" d="M250.6 9.25q-1.25 9.95-4.4 18.35-12.4 1.1-19 8.65l-.9-.95q5.55-10.1 9.55-14.75 5.85-6.9 14.75-11.3"/><path fill="#edc300" d="M206.5 9.45q4.25 1.5 5.95 2.75l7.7 6.25q6.25 5.6 10.9 11.65 7.2 8.75 11.05 21.75 3.15 10.6 3.5 21.45.25 8.1-6.45 11.4-2.45 1.25-7.1 2.4l-8.5 2.05q-6.55 1.8-16.25 6.8-10.65 5.5-14.7 9.85-6.8 7.25-9.3 9.1-5.8 4.35-11.85 3.45-5.15-.7-8.4-3.95-2.25-2.25-6-8.9-4.4-7.9-10.3-11.75-9.15-5-17.5-10.6-5.4-3.6-3.3-19.3 2.25-16.7 11.65-32.25 3.1-4.8 8.25-10.1 5.6-5.7 9.45-7.6 19.3-9.35 38.8-7.2 6.65.75 12.4 2.75"/><path fill="#fffac6" d="M169.4 95q6.25-1.1 13.25 3.4l6.6 3.95q3.55 2.05 4.2 2.6l-.85.85q-6.8 7.25-9.3 9.1-5.8 4.35-11.85 3.45-4.3-.6-7.9-3.75-3.45-3.1-5.9-8.25 4.1-10 11.75-11.35"/><path fill="#c6a400" d="M245.7 69.5l-.05 5.75q-1 6.15-5.55 8.35-6 2.9-13.25 5.2l-11.45 3.45q-12.8 4.1-21.95 12.7l-4.7-2.9 1-1.3q4.75-5.85 14.75-10.35 5.7-2.6 18.4-6.7 11.6-3.7 15.85-5.95 6.8-3.55 6.95-8.25"/><path fill="#dcd8ac" d="M192.6 105.8l-8.1 8.2q-5.05 4.1-10 4.45h-.3q3.3-1.5 7.35-6.6l7.2-9.8 4.7 2.9-.85.85"/><path fill="#0d131a" d="M205.5 214.25q14.2 1.9 27.5 1.45.05.5.65 1.1l.9.95q-14.1.55-31.4-1.75l2.35-1.75m41.15-56.95q7.75.25 16.15-1.25l-.55 1.35-.4 1.5-7.25.75-7.75-.05-.2-2.3m100.9-114.85q-1.6-5.45-3.2-7.3-1.55-1.75-2.2.6Q340.9 40 339.3 48.1l-4.45 22.3q-5.9 28.65-17.25 48.4-13.85 24.05-35.5 34.15l1-2.9q7.2-3.75 13.95-9.55 6.75-5.85 12.25-13.05 10.25-13.4 16.75-32.45 3.15-9.2 7-26.65l4.4-20.75q2.45-11.85 3.05-13.35 1.6-3.9 4.05-2.25 2.7 1.8 4.8 9.25 10.8 38.35 5.7 72.95-5.25 36.05-27 61.65-8.4 9.85-19.9 18.15-11.25 8.05-23.65 13.35 1.1-2.45 1.45-3.95 24.85-11.5 40.55-30.05 20.95-24.6 26.35-60.2 5.25-34.5-5.3-70.7"/><path fill="#0d131a" d="M324.05 103.05q10.8-5.4 21.15 1.25 4.25 2.7 6.75 6.65 2.45 3.9 2.1 7.4l-.75 1.65q-.5-10.75-11.15-15.8-4.65-2.2-9.65-2.1-5.2.1-9.2 2.75l.75-1.8m4.85-12.75q2.95-2.55 7.05-3.1 4.05-.55 8.5.9 4.8 1.6 7.65 5 2.75 3.25 3.85 8.4l-.5 1.95q-1.05-4.9-4-8.6-3.1-3.85-7.6-5.35-4.2-1.4-8.6-.8-4.4.6-7.15 2.95l.8-1.35m-189 83.5q1.25 1.6.9 3.05-13.15-7.35-19.05-8.75-.35-.9-.15-2.1 2.45.55 8.25 2.85 7 2.8 10.05 4.95m-15.1 23.6v-2.05l5.35 2.25q5.4 2.55 9.85 6.1 1.75 1.4 3.6 1.85 2.3.55 5.8.05 1.55 1 1.7 1.95l-7.65.2q-2.75-.7-5.2-2.85-2.1-1.9-6.4-4.25-3.9-2.1-7.05-3.25"/><path fill="#0d131a" d="M120.8 167.3q-2.65-16.3-8.4-17.05-2.6-.35-5.6 2.7-2.7 2.75-4.65 7l-1.05-.2-.7.1q2.55-5.9 6-9.15 3.3-3.15 6.25-2.7 7 1.05 9.95 19 2.05 12.5 2.65 20.2.55 8.05-.25 14.3-.45 3.45-2.45 6.8-2.05 3.45-4.15 4.05-3 .9-7.9-1.65-6.1-3.2-8.75-3.55-4.9-.65-10.1.95-5.6 1.7-9.75 5.55-.65-2-1.05-2.3 3.85-3.55 10.75-5.25 6.4-1.55 10.85-.55 2.45.55 9 3.4 4.3 1.9 6.65.8 4-1.8 5.1-8.4 1.65-9.55-2.4-34.05"/><path fill="#0d131a" d="M75.4 180.9l-.2-3.6q4.75-7.6 9.5-11.75 6.65-5.85 14.45-6.4 5.3-.4 10.05 3.05 6.2 4.5 7.35 13.8.25 1.75-.2 1.85-.45.05-.85-1.75-3.2-13.75-15.1-14.5-7.75-.45-14.9 6.05-5.35 4.8-10.1 13.25M3.7 145.45q5.25-.65 11.95-.1 7.4.65 11.6 2.5 1.3.6 6.9 5.85 5.8 5.45 7.15 6.25l.3-.15-2.1 1.2-7.3-6q-5.85-4.95-7.05-5.5-3.2-1.4-10.55-2.15-7.2-.8-10.4-.1-1.6.35-.9 2.1.85 2.1 5.9 3.9 4.4 1.6 6.1 2.8 1.3.95 3.15 3.4l12.8 16.45 3.35 4.5 1.5 4.15q4.55 14.55 10.75 26.55 6.9 13.25 13 17.45 0 .95-.6 1.9-7.55-4.05-14.65-18-5.75-11.2-10.35-27.05-.8-2.85-1.55-4.15-.8-1.45-3.25-4.3-7-8.3-12.05-15.3-2.25-3.05-3.3-4-1.5-1.3-4.8-2.5-7.35-2.6-9-5.9-1.6-3.2 3.4-3.8"/><path fill="#0d131a" d="M62.6 141.7q-3.4-6.3-6.3-8.3-3.65-2.45-9.25-4.6-4.7-1.8-8.2-2.45-3.45-.6-4.1 1.25-.75 2.05 2.9 5.85 5.3 5.5 8.8 10.5 2.55 3.7 3.4 6.05.4.95.6 6.1.15 4.3-.35 4.45-.5.15-1.15-4.1l-.55-3.55q-.35-2-1-3.4-.85-1.95-3.85-5.85-3.55-4.75-7.95-9.2-3.9-4-3.4-7.55.55-3.8 6.15-3 3.7.5 10.2 2.95 6.55 2.55 9.9 4.75 2.4 1.55 5.35 7.7 3.8 7.85 5.95 10.75l2.55 3.15q1.55 1.95 2.2 3.6 1.2 3.1 1.55 8 .25 4 .05 11.75-.35 16.2 3.6 28.25 1.35 4.15 4.9 10.65 2 3.6-1.4 10.65-2.8 5.75-7 10.05-1.9 1.95-7.85 4.2-5.9 2.3-10.4 2.85-5.15.65-6.75-1.3-1.75-2.25 3.1-6.15 2.6-2.1 3.9-4.5.95-1.75 1.65-4.5 1.15-4.8 3.5-7.35 3.6-3.9 9.05-.95 1.75.95 2.05 2.05.35 1.1-.95.2-3.25-2.35-6.4-1.05-3.5 1.45-5.05 6.85-1.25 4.45-2.05 5.8-1.4 2.25-5.85 5.85-1.4 1.15-1 2.15.5 1.05 2.9.9 4.9-.35 11.15-2.95 5.65-2.3 7.95-4.45 3-2.75 5.8-8.25 3.3-6.55 1.65-9.5-4.05-7.25-5.8-12.9-3.25-10.35-2.8-23.1.55-15.5-1.85-22.6-.95-2.85-3.85-6.25-1.7-1.95-5.7-9.5"/><path fill="#0d131a" d="M39.35 163q-2.25 2.45-3.35 6.05-.5 1.7-.85 1.35-.35-.35-.2-2.3.35-3.65 2.65-6.15.95-.95 2.85-1.65l3.15-1.2q2.9-1.4 4.35-3.8 1-1.65.85-2.25.95 1.65.75 2.75.1 1.3-1.55 2.95l-2.75 1.95-3.15.8q-1.8.5-2.75 1.5m169.85 47.15q5.15-4.35 7.85-5.75 4.5-2.4 7.8-.9l.5 1.75q-3.85-1.4-7.95.9-1.8 1-7 5.4l-3.4 3.1q-1.9 1.7-3.1 2.25-4.3 1.95-8.55.15-3.5-1.45-4.85-4l1.65-.9q1 1.95 3.8 3 3.4 1.25 6.9-.35 1.85-.8 6.35-4.65m38-48.65q4.8 2.65 7.55 5.65 1.3 1.35 3.05 4.15-.4 2.15-.95 2.8-.95-2.25-3.5-5.35-3.15-3.85-5.75-4.8l-.15-1.2-.25-1.25"/><path fill="#0d131a" d="M217.8 193.65l1.3-1.55q12.4 20.4 20.95 30.7-.55 1.5-.75 2.5-5.55-6.1-12.1-16.25l-9.4-15.4"/><path fill="#0d131a" d="M286.35 129.75q6.5-1.35 9.15.5 4.05 2.75-7.95 15-2.1 2.15-3.05 3.55-1.5 2.2-1.8 4.55l-.6 4.3-.35 2.75q1.2 2.65 2.55 4.25 1.25 1.4 3.15 2.4 1.45.8 2.2 2.6.65 1.55 1 4.7.3 2.3-.15 2.1-.45-.15-.95-1.75l-1.55-4.3q-.8-1.45-2.3-2.35-3.25-1.95-4.45-5.15-.65 2.75-1.65 4.55-.95 1.75-.75-.05l1.8-16.1q.25-2 8.15-10 7.1-7.2 5.4-9-1.35-1.5-7.15-.25-6.75 1.5-13.55 6-3.2 2.15-7 10.65l-5.45 13.65q-1.1 2.85-2.5 10.4l-2.7 15.25q-4 21.25-12.4 31.2-3.4 4.05-4 8.7-.4 3.3.55 6.15 2.5 7.45 6.8 11.9 3.35 3.35 8.45 5.35 3.5 1.3 4.5.75 1.15-.7-.2-4.25-1.75-4.5-2.1-6.3-.7-3.05-.8-8.8l-.1-4.05q-.25-2.55-1.45-3.7-2-1.9-6.05-.95l-1.55-.05q-.25-.4 1.25-1.05 4.75-2 7.5.2 2.6 2.05 2.4 9.35-.1 5.05.25 7.1.35 2.4 2.05 7.45 3.45 10.15-5.7 6.6-6.2-2.5-9.65-6.1-2.95-3.15-5.55-7.8-2.45-4.5-3-7.45-1.25-7.05 4.25-14.1 5.05-6.4 7.35-11.65 2.95-6.6 5.4-18.85 1.8-8.75 3.3-18.35.75-4.6 1.95-7.8 2.7-7.65 4.85-13 4.15-10.15 6.85-11.95 7.75-5.3 15.35-6.8"/><path fill="#0d131a" d="M321.95 161.05q-5.3 2.45-6.4 3.05-2.4 1.25-3.7 2.55-4.85 4.85-13.9 19.4-9.35 15-16.85 30.2-5.9 11.95-10.35 16.65-2.95 3.1-12 8.7-.1-.4-.05-1.1v-1.2q6.5-3.95 10.55-8.6 5.05-5.8 10.15-16.45 7.25-15 17.2-30.3 8.85-13.7 13.85-18.7 1.35-1.35 3.9-2.55 1.55-.75 5.45-2.4 6.55-2.95 5.6-5-.8-1.75-5.2-1.75-13.35 0-17.95 2.3-2.75 1.35-7.3 6.4-3.6 4.05-5.8 7.3L287.4 168q2.9-4.1 6.85-8.25 4.65-4.8 7.6-6.3 3.15-1.55 8.95-1.8 3.35-.15 10.25-.15 5.15-.15 6.15 3.15 1.1 3.45-5.25 6.4m-159.75-23.1l2.6-7.85 1.6-.35q-4.2 14.35-6.1 19.5l-1-3.45 2.9-7.85"/><path fill="#0d131a" d="M215.6 150.95l-.95 1.15q-14.7-10.95-32.4-10.65-14.55.25-21.8 6.55l.15-1.9q7.65-6.65 23.15-6.55 18.2.15 31.85 11.4m-69.85-27.1l-5.5 13.25-2.5 1.45q1-1.95 3.4-7.9l3.3-8.1 1.3 1.3m17.05 6.85l1.1-.2-2.25 5q-2.45 5.6-3.35 8.75-.4-.55-.45-1.45l-.2-1.8 2.4-6.4 1.6-3.85 1.15-.05"/><path fill="#0d131a" d="M167.15 128.2q2.55-.95 4.65-3.75 1.95-2.6 2.9-5.9l2.15-.15q-2.3 9.5-8.65 12l-10.5.3q-6.35-1.75-14.4-7.8-2.05-1.55-5.6-1.8-4.25-.25-9.5 1.5l-4.5-.1q-1.75-1.25-1.1-5.2 1.6-9.25 7.85-14.75 3.05-2.7 7.75-4.55 4.65-1.8 10.05-2.5l1.7 1.8q-5.15.15-10.45 2.6-4.4 2-7.2 4.65-2.5 2.4-4.4 5.8-1.95 3.5-2.45 6.65-1.45 5.05 2.15 3.85 10.7-3.6 17.55 1.1 7.2 4.9 11.65 6.35 5.4 1.75 10.35-.1m-.65 36.05q2.6 3.4 8.1 8.5 1.35 1.25 2.45 3.4 1 2 1.4 4l-2.5-1.65q-.05-.9-.95-2.35-.8-1.25-1.65-2-5.95-5.3-9.05-9.85-2.4-3.55-3.7-7.7l-1.25-6.25q-.8-4.3-2.3-7.4-2.1-4.3-7.8-5.55-5.2-1.1-9.1.9-2.5 1.3-5.55 5.25-3.3 4.4-3.8 7.9-.35 2.3.5 4.2.65 1.45 2.75 3.95 2.85 3.4 5.8 12.05 2.9 8.5 3.65 15.5.95 8.75 3.7 14 2.5 4.6 6.8 7.1l.25 2.35q-5.15-2.3-7.9-6.45-3.85-5.9-5.15-17.55-.7-6.75-3.45-14.9-2.75-8.2-5.3-11.1-2.6-3-3.55-5.25-1.2-2.85-.4-5.8.75-2.8 4-7.1 3.65-4.75 6.95-6.25 4.75-2.1 10.3-.85 6.35 1.45 9 6.65 1.4 2.7 2.05 7.1l1.15 6.35q1.45 4.75 4.55 8.8"/><path fill="#0d131a" d="M168.95 179.45q-2.6 1.4-3.6 4.55-.65.35-1.35.85 1.05-5.55 4.15-7 4.5-2 7.45-.3 1.7.95 2.55 2.85l-.85.7q-.6-1.35-2.5-2.15-2.7-1.15-5.85.5M156.3 214.5q-3.45-3.3-3.3-5.55.55-5.35 5.4-6.55l.7 1.45q-1.1.3-2.2 1.2-1.15 1.05-1.7 2.35-1.2 3.1 1.6 5.85 2.3 2.25 7.65 3 5.3.7 4.1-1.1l-1.8-3.15 1.4.25 1.55 2.2q.95 1.5-.45 2.7-1.7 1.35-5.95.6-4.5-.8-7-3.25"/><path fill="#0d131a" d="M169.15 192.3q3.55 2.6 4.8 4.15-.45.45-.45 1.25-1.8-2.45-4.2-4-2.4-1.55-4.65-1.65-1.95-.1-3.6.75-2 .95-2.85 3-1.85 4.1 2.35 8.1l1.35 1.2-.85.4-.7.05q-3.6-2.85-4.3-6.1-.45-2.1.4-4.15 1.55-3.5 5.7-4.5 2.4 1.05 7 1.5m-9.65 18.6l.55.15.8-.2q-.8 1-1.1 2.5-.25 1.25 0 2l-1.05.35q-.25-.85-.05-2.15.2-1.45.85-2.65"/><path fill="#0d131a" d="M171.6 194.85q-2.9.25-5.05 2.3-2.65 2.55-2.4 6.45l-.9.25q-.6.2-.85.35-.8-4.65 2.9-7.85 2.8-2.45 5.4-2.65l.9 1.15"/><path fill="#0d131a" d="M166.55 182.8q8.15-3.4 11.8-3.05l-.85 1.65q-2.75-.25-10.1 2.5-7.65 2.9-7.55 4.8.05 1.35 6.25 2.55l8 .95.2 1.85q-4.15 0-9.65-1.6-6.4-1.8-6.4-4 .05-2.2 8.3-5.65"/><path fill="#0d131a" d="M167.9 191.75q-1.25-1.6-1.3-4.5-.05-3.75 2.9-5.4l1.25-.05q-2.65 1.8-2.6 5.7.05 3.1 1.2 4.65l-1.45-.4m5.65 20.15l3.2-.25q-9.05 6.4-8.8 7.1 13.7 2.3 23.7-7.1l2.1.1q-6.65 6.65-15.8 8.45-6.9 1.3-10.95-.2-1.85-.7.85-3.45 1.9-2 5.7-4.65"/><path fill="#0d131a" d="M172.85 214l.85-.7q1.15 2.05 4.45 3.1 3.6 1.15 7.2.15l-.4 1.1-7.55-.2q-3.35-1.2-4.55-3.45"/><path fill="#0d131a" d="M174.5 195.55l-.3 2.2q-.7.3-7.5 4.45l-7.7 4.75q-1.2.8-1.1 1.6.05.75 1.1 1.25 3.65 1.7 8.65 2.1 6.3.45 11-1.8l2 .7q-6.3 3-12.75 2.65-5.15-.35-9.65-2.65-1.85-.9-1.9-2.1-.1-1.35 2.3-2.95l8-5.2q7.2-4.7 7.85-5"/><path fill="#0d131a" d="M171.9 212.85q-2.6.1-5-3.55-2.65-4.05-.05-7.75l1.5-.8q-2.5 2.95-.2 7.35 2.2 4.25 5.3 4.35l-1.55.4m53.25-70.45q-.45-.15-1.2.25l-1.05.6q0-3.95.55-10.15l.5-5.7 1.8-.45-.3 5.35-.3 10.1m17.35-8.3l-.25-13.75 2.15-.8q.2 1.15.2 13.2-.05 14.05-.85 19.35-.65-1.75-1.6-2.6.35-5.3.35-15.4"/><path fill="#0d131a" d="M209.95 94.55l3.2-.8q-7.55 6.25-4.65 16.85 2.85 10.4 12.7 15 2.15 1.05 4.15.95 2.25-.15 5.05-1.65 15.45-8.35 20.25-7.6 5.2.75 9.95 5.85 4.5 4.9 2.85 6.55-.85.95-2.15 1.35-1.5.45.05-.4 2-1.1-1.5-5.35-3.7-4.55-9.25-5.95-2.4-.6-8.1 1.85-2.5 1.1-13.25 6.5-2.2 1.1-4.3 1.15-2.25.1-4.65-1-10.4-4.85-13.85-15.5-3.55-10.8 3.5-17.8"/><path fill="#0d131a" d="M248.7 89.3q5.85 3.2 9.55 7 5.8 5.9 8.5 16.65 2.85 11.4-1.1 17.2-2 2.95-8.9 4.55-6.55 1.45-13 .8l.05-1.85q5.45.65 11.3-.75 5.9-1.4 8.85-4.1 3.35-3.1 1.05-13.55-2.45-11-8.8-17Q245 87.6 234.95 86.9l1.4-.75 1.15-.9q5 .7 11.2 4.05m-14.35 55.6q-4.6-1.95-9.2-1.7-2.9.15-4.55 1.55-2.25 1.9-6.05 8.1-3.5 5.8-8.95 11.4-5.5 5.7-11.35 9.35-1.45.9-9.25 3.75-6.1 2.2-7.45 4.55-3.2 5.75-2.05 15.05 1.1 9.05 5.15 12.95 1.65 1.6 5.6 1.95 4.7.35 9.1-1.8 7.1-3.5 20.65-16.35 17.1-16.25 22.35-20.3 4.65-3.6 6.05-5.55 1.6-2.25 1.7-5.85.05-2.65-1.4-6.25-1.55-3.8-4.05-6.6-2.3-2.55-6.3-4.25m-9-3.4q4.75-.15 9.85 1.75 4.45 1.65 6.35 3.65 2.7 2.75 4.55 6.65 2.35 4.8 2.15 9-.1 3.4-1.85 5.75-1.95 2.75-8.35 7.85-5 4-22.3 21.1-12.45 12.3-20.2 15.5-3.65 1.5-8.65 1-4.75-.45-7.05-2.35-4.55-3.75-6.1-13.65-1.6-10.25 2-16.55 1.55-2.75 7.6-4.9 8-2.85 9.65-3.9 5.1-3.2 9.3-7.4 6.6-6.55 13.2-17.2 2-3.2 4.4-4.7 2.35-1.5 5.45-1.6M134.2 3.15q14.45 5 21.2 11.1l-1.7.95q-5.85-5.35-19.1-9.55-12.85-4.1-14.1-1.75-1.6 2.95 1.9 17.35 3.7 15.3 8.9 23.4l-1.15 1.6q-5.15-6.35-10-24.7-4.8-18.1-2.4-20.85Q120-1.8 134.2 3.15"/><path fill="#0d131a" d="M214.85 11.1l-3.3 1.15q-14.3-6-30.35-4.75-17 1.35-30.5 10.5-2.1 1.4-2.4.8-.3-.65 2-2.25Q163.5 7.1 181 5.5q17.95-1.7 33.85 5.6"/><path fill="#0d131a" d="M255.55 2.55q2.1 2.1-2.4 18.15-4.85 17.55-12.3 26.85l-.95-2.05q6.05-7.55 10.65-23.65 4.35-15.15 2.4-16.5-2.25-1.6-16.6 1.1-15.6 2.95-28.15 8.25-2.95 1.25-2.9.4.1-.85 2-1.75 12.1-5.95 29.5-9.55 16.5-3.45 18.75-1.25"/><path fill="#0d131a" d="M248.25 9.55q3.35-1.7 4.1-1.55.8.15-3 2.35-4.85 2.85-9.5 7.4-4.8 4.75-7.1 9.1-.6 1.05-.6 1.7 0 .6.55 1.4 14 19.9 14.8 41.65.3 6.5-3 10.1-3.7 4-13.5 6.65-14.75 4-23.7 8.55-9 4.6-15.5 11.5-6.9 7.35-10.4 9.4-3.8 2.2-9.75 1.95-9.4-.45-14.6-12.9-1.85-4.4-7.15-8.8-7-5.75-22.2-13.8-2.15-1.15-3.15-3.6-.95-2.35-1.05-6.45-.1-5.05 1.7-14 1.85-9.05 4.3-15.4.9-2.4 2.8-5.95 2.05-3.75 4.3-7.05.85-1.25.9-1.8.1-.7-.55-2.15-2.25-5.45-7.65-12.3-4.7-5.95-8.25-8.85-3.3-2.7-2.5-2.9.8-.2 4.55 2.8 9.45 7.55 15.15 19.9 1.1 2.45 1.15 3.2.05.95-1.15 2.75-4.35 6.55-6.8 13-2.6 6.85-4.05 14.9Q126 68.3 126.35 74q.2 3.9.9 5.5.75 1.85 2.95 3.05 14 7.8 20.1 12.75 5.7 4.65 8.3 10.15 2.75 5.8 5.45 8.5 3.15 3.1 7.55 3.5 5.4.45 8.95-1.5 3.85-2.1 9.9-9.15 6.9-8.05 21.35-14.1 7.55-3.15 20.3-6.65 7.1-2 10.05-5.65 2.7-3.35 2.45-8.8-.85-22.2-13.1-40-1.35-1.95-1.35-2.9.05-1 1.65-3.8 2.75-4.65 7.5-8.95 4.45-4.1 8.95-6.4"/><path fill="#0d131a" d="M140.95 72.45q-3-2.45-2.85-3.1.15-.65 3.35 1.4 11 7 14.75 17 .95 2.4.35 2.5-.6.05-1.9-2.2-5.05-8.6-13.7-15.6M196 78.6q-3.65 4.3-6.2 9.1-1.5 2.8-2 2.3t.7-3.4q2.2-5.45 6.25-10.1 3.85-4.4 9.05-7.65 5.45-3.4 5.9-2.6.45.85-4.85 4.4-4.7 3.15-8.85 7.95m-31.65 29.9q-.05-.75.15-.8l.7.5q1.1 1.35 1.25 2.65.1.75-.45.75-.55.05-.9-.45-.7-1.15-.75-2.65m15.15 0q.95-1.1 1.3-.95.3.15.05 1.45-.3 1.4-.85 2.25-.55.85-1.25.7-.7-.1-.5-1.05.35-1.35 1.25-2.4"/></svg>