<svg xmlns="http://www.w3.org/2000/svg" width="322" height="395" viewBox="-1.9 -0.15 322.2 395.45"><path fill="#c8c9ca" d="M210.3 335.3l2 7.3-5.3-.05-4.65-.5q-.4-.6 2.05-2.65 2.4-1.95 5.9-4.1"/><path fill="#d7a400" d="M252.4 282.6q2.05-1.75 4.2-1.25 1.25.3 5.05 2.55 4 2.4 5 3.65.9 1.15-.65 4.55l-2.85 5.35q-.7 1.4-.35 5.1.3 3.8-.55 5.7-.75 1.65-5.9 9.1-4.75 6.9-5.05 8.25-.4 1.75.55 2.1l4.55.45 8.65-.4 9.1.4q2.05.55 7.7 3 5.35 2.25 8.6 3.85 3.95 2.05 5.75 3.6 2.75 2.45 3 5.5.25 3.55-4 5.75-4.4 2.2-7.5-.45.85 3.4-2.1 6.35-3 3.05-8 3.35-4.35.25-7.15-2.35l-4.15-5.35q-1.9-2.5-7.3-4.25-4.15-1.4-11-2.5l-11.05-1.1q-5.75 0-13.1 1.25-6.8 1.2-9.6-.6-.75-.5-3.4-4.5-1.45-2.2-.35-4.75.7-1.6 2.9-4.05 1.15-1.2 6.3-1.15 5.6.05 7.3-.9 8.7-7.55 4.7-14.2-1.7-2.9-1.95-5.05-.3-2.4 1.05-4.65.9-1.6 1.5-5.7.5-3.85 1.25-4.75l18.85-11.9"/><path fill="#b08600" d="M237.7 301.95q-4.15 9.3-2.35 18.95.8 5.75-3.2 9.95-4.3 4.5-12.1 4.8-3.9.15-3.4 3.6.2 1.6 2.25 6.05-3.65-.05-5.5-1.8l-2.55-3.8q-1.45-2.2-.35-4.75.7-1.6 2.9-4.05 1.15-1.2 6.3-1.15 5.6.05 7.3-.9 8.7-7.55 4.7-14.2-1.7-2.9-1.95-5.05-.3-2.4 1.05-4.65.9-1.6 1.5-5.7.5-3.85 1.25-4.75l13.2-8.35-4.8 7.85q-2.8 4.6-4.25 7.95m33.85 49.15q3.85 3.85 7.9 4.95l5.25.5q-3 2.35-7.1 2.55-4.35.25-7.15-2.35l-4.15-5.35q-1.9-2.5-7.3-4.25-4.15-1.4-11-2.5l-7.45-.95q8.75-2.2 17.85.25 8.25 2.25 13.15 7.15m15.5-7.8q6.6 3 12.15.8.25 3.55-4 5.75-4.4 2.2-7.5-.45.25.05.15-.45-.25-1-1.85-2.7-4.45-4.7-11.25-8.05 3 .6 6.6 2.25l5.7 2.85"/><path fill="#eeeeef" d="M278.75 355.25q-.7-3 1.9-5.35 2.6-2.35 5.35-1.4 2.45.85 4.7 5.55 2.05 4.25 2.5 8.35.05.45-.3.5-.35.1-.75-.3-10.8-6.4-13.4-7.35"/><path fill="#c8c9ca" d="M278.75 355.25q-.35-1.55.3-3.15 7.55 3.65 11.9 9.45-1.85-.85-6.7-3.5-4.2-2.3-5.5-2.8"/><path fill="#eeeeef" d="M292.6 342.05q2.25-2.65 5.1-2.1 2.4.45 5.1 4.35 2.45 3.5 3.7 7.5.2.7-.2 1l-1.1-.15q-9.75-4.1-13.75-5-1.1-2.9 1.15-5.6"/><path fill="#c8c9ca" d="M297.25 347.7l4.75 3.4q-8.4-3-10.55-3.45-.95-2.45.7-4.95 1.5 2.25 5.1 5"/><path fill="#d7a400" d="M86.8 192.7q9.1.25 15.8 3.2l42.95 8.75 64.7 81.7q-12.3 23.55-34.05 33.5-18.35 8.35-41.3 6.25-19.4-1.7-36.75-9.95-15.85-7.6-20.2-15.4-2.9 5.8-11.35 11.1-12.55 7.85-30.2 7.85-19.35 0-29.3-15.65-4.3-6.7-5.6-14.8-1.25-7.95.7-15.2 11.3 9.3 19.9 10.2 5 .5 9.9-2.2-6.35-11.1-7.15-23.55-1.15-17.4 8.75-35.85Q44.65 202 67.65 195.2q9.5-2.85 19.15-2.5"/><path fill="#b08600" d="M87.8 192.4q8.35.65 14.8 3.5l42.95 8.75 64.7 81.7q-12.3 23.55-34.05 33.5-18.35 8.35-41.3 6.25-19.4-1.7-36.75-9.95-15.85-7.6-20.2-15.4-2.9 5.8-11.35 11.1-12.55 7.85-30.2 7.85-15 0-24.9-10.15-8.95-9.2-10.5-22.8 12.8 20.5 32.3 21.5 10 .5 15.7-3.9 4.6-3.55 6.5-10.55.6-2.2 1.1-10.35.6-10.6 1.1-15 2.2-19.6 9.6-21.1.7 8 5.75 16.8 4.75 8.3 12 14.85 7.3 6.65 14.65 9.25 7.95 2.85 13.8.05 10.8-5.15 13.5-22.35 2.1-13.3-.85-26.9-3.3-15.15-13.55-26.15-15.25-16.3-42.9-18.95 8.95-2.2 18.1-1.55"/><path fill="#a4725d" d="M122.05 210.95q1.95 6.8 5.7 10.9-16.25 7.25-26 19.4-7.9 9.8-11.35 22.4-4.1 15.3-.1 32.2 2 8.5 4.8 13.9l-1.55 4.05-9.85-6.55q-13.15-18.6-13.55-37.95-.35-16.6 8.65-32.05 7.75-13.35 20.35-22.6 11.7-8.6 21.65-9.65l1.25 5.95"/><path fill="#815847" d="M91.8 301.7q1.7 5.05 3.3 8.05l-1.55 4.05-9.85-6.55q-16.65-23.55-12.85-48 5.7 12.25 17.3 22.15.3 10.2 3.65 20.3m31.1-90.6q2.85 6.9 6.55 11-2.35.35-4.5 1.3-.95.45-3.75 2-2.25-4.5-5.3-8.3-2.55-3.15-7.6-8 6.9-3.5 12.5-4.1l2.1 6.1"/><path fill="#d7a400" d="M248.7 239.25q1.35 1.35 1 4.1-.35 2.55-1.95 4.95-4 6-8.15 2.2-1.8-1.65-2.65-3.9l-1.4-4.05q-2.25-5.45-12-10.8l14.4-11 4.75 9.25q3.7 6.95 6 9.25"/><path fill="#b08600" d="M248.7 239.25q1.35 1.35 1 4.1-.35 2.55-1.95 4.95-4 6-8.15 2.2-1.8-1.65-2.65-3.9l-1.4-4.05q-2.25-5.45-12-10.8l14.4-11 4.75 9.25q3.7 6.95 6 9.25"/><path fill="#a4725d" d="M206.4 178.25l10.45.45q9.25.9 15.45 3.3 5.35 2.1 6.75 5.2 1.4 3 1.05 11.4l-.3 11.35q-.35 6.95-1.6 11.2-3.5 11.65-15.75 9-6.55-1.45-11.35-9.85-4.05-7.1-6.1-17.6-1.85-9.35-1.4-16.9.45-7.5 2.8-7.55"/><path fill="#815847" d="M215.75 178.45q-1.45 4.4 7 14.25 8.2 9.55 17.15 14.6-.4 12.2-3.15 17.4-4.05 7.65-14.3 5.45-6.55-1.45-11.35-9.85-4.05-7.1-6.1-17.6-1.85-9.35-1.4-16.9.45-7.5 2.8-7.55 5.75-.1 9.35.2"/><path fill="#d7a400" d="M305.05 199.2q2.5 1.15 4.3 3.55 2.4 3.25 1.95 7.25-.55 4.3-3.8 5.75-2.9 1.3-7.2.1-2.55 2.25-3.85 5.45-1.25 3.1-.55 4.8.55 1.4 5.65.8l7-1.15q1.8-.25 4.15.95 1.3.7 3.7 2.5 1.95 1.45 2.65 6.5.8 5.7-1.35 10.7-.4.9-2.35 1.4l-4.35.2q-6.05-.85-7.2-6.1-2.55-.3-4 1.9l-2.8 3.9q-3.1 2.45-8.9 3.75-7.35 1.6-10.5-2.05-4.95-1.25-15.9 2.7-13.3 4.8-15.9 5.1-3.1.4-5.5-1.8-2.25-2.05-2.85-5.35-.65-3.4.9-6.35 1.75-3.4 5.8-5l10.8-4.3q7.15-3 10.05-5.1l.25-.25q-.15-3.85-1.55-5.15-1.8-1.7-3.2-3.7-1.45-2.15-1.7-3.6-.9-4.9 1.5-7.65 1.65-1.85 5.25-2.95 3-.9 6.3.35 3.5 1.3 3.4 4-.2 3.95.15 5.25.6 2.45 3.15 2.8 5.95-3.85 9.05-8.4 1.8-2.6 3.75-6.95 1.5-2.7 6.8-3.85 4.8-1 6.9 0"/><path fill="#b08600" d="M265.15 217.05q2.5 3.05 2.95 5.35.7 3.7-1.45 6.45-2 2.5-2.95 1.3l1.3-.85.25-.25q-.15-3.85-1.55-5.15-1.8-1.7-3.2-3.7-1.45-2.15-1.7-3.6-.9-4.9 1.5-7.65 1.65-1.85 5.25-2.95l-.55 3q-.75 3.15-.55 3.1-1 2.8.7 4.95m30.15-3.7q1.3 1.65 4.45 3.05-2.1 2.15-3.25 4.85-1.15 2.65-.75 4.4-3.65-.35-4.7-2.45-.8-2.6.1-5.65 1.05-3.65 4.15-4.2m7.75 28.5q-2.05.05-3.4 2.2L297 247.7q-3.1 2.45-8.9 3.75-7.35 1.6-10.5-2.05-4.95-1.25-15.9 2.7-13.3 4.8-15.9 5.1-2.95.35-5.25-1.6-2.15-1.8-2.95-4.85-1.9-7.35 4.8-11.2l.35 3.15q.3 2.55 2.85 3.7 1.9.9 10.25-2.65 8.65-3.6 12.7-2.5 8.2 5.55 14.05 4.35 3.3-.7 11-6.25 2.2-1.6 8-3.3 5.95-1.75 5.2-.25-2.85 3.85-3.75 6.05"/><path fill="#eeeeef" d="M269.75 211.3q-1.7 1.1-3.8 1.9-4.25 1.65-6.45.3-2.65-1.7 3.65-8.15t8-5.5q.9.45.05 4.55l-1.45 6.9"/><path fill="#c8c9ca" d="M259.5 213.5q-1.75-1.15.9-4.9 2.45-3.45 6.4-6.3-2.45 3.4-3.4 6.2l-1.3 5.6q-1.6 0-2.6-.6"/><path fill="#eeeeef" d="M300.65 209.45q1.4-1.2 5.45-.45 4.25.85 4.65 3 .4 2.2-2.75 6.1-3.15 4-4.6 2.95l-1.75-7-1-4.6"/><path fill="#c8c9ca" d="M303.75 208.8q1.05 2.85.7 6.25-.15 1.7-1.25 6.25-.1 0-.25-.85-.15-.8-.3-.85l-1.1-6.35-.9-3.8q.9-.75 3.1-.65"/><path fill="#eeeeef" d="M313.55 244.7q3.65 1.05 2.85 4.25-1.05 4.35-7.65 7.65l-.7-.15q-.3-.3-.2-.7.85-3.55.5-7.2l-.55-2.9q2.25-1.9 5.75-.95"/><path fill="#c8c9ca" d="M307.8 245.65q1.2-1 3.15-1.15-1.25 6.1-2.75 9.2.45-2.9.05-5.75l-.45-2.3"/><path fill="#d7a400" d="M248.15 290.65q-1.3 1.35-6.95 2.6-6.4 1.4-9.7-.2-3.85-1.9-11.5-4.45-8-2.7-11.7-3.25-5.1-.7-6.75-3.3l10.95-27.6q3.1 0 6 1 5.35 1.85 11.4 7.05l12.3 11q5.9 5.1 8.55 6 2.7.95.75 5.65-1.55 3.75-3.35 5.5"/><path fill="#b08600" d="M240.4 293.4l-8.9-.35q-3.85-1.9-11.5-4.45-8-2.7-11.7-3.25-5.1-.7-6.75-3.3l6.15-15.5q.9 8.15 13.15 13.7 3.4 1.55 10.5 4.3 6.15 2.55 9.25 4.8 2.25 1.75 7.1 1.65-2.5 1.45-7.3 2.4"/><path fill="#a4725d" d="M224.9 196.8q.7 3.1 3.55 13.7 2.1 9.7.05 12.95l-8.45 8.85q-8.1 8.25-10.25 12.1-2.65 4.75-21 5.25-17.7.5-25.65-2.9-4.55-1.95-9.1-7.15-4.45-5.15-11.2-7.9-4.25-1.8-9.35-5.7-5.15-4-7.6-7.5-3.8-5.5-6.85-23.25-.8-5 11-14.45 9.85-7.95 20.65-13.45 9.65-4.95 25.3-2.9 17.4 2.3 29.65 12.5 10.95 9.05 16.2 15.35 2.6 3.15 3.05 4.5"/><path fill="#815847" d="M170.55 163.95q13.25.6 24.8 6.35-13.95 7.35-24.05 22.4-4.35 5.8-1.7 17.1 2.45 10.55 6.5 12.15l9.5-.25 11.5-2q9.85-.65 15.4.05 9.9 1.25 9.9 6.7 0 1.85-.7 3.2l-1.65 3.15q-7.8 7.3-10.25 11.6-2.65 4.7-21 5.25-17.7.5-25.65-2.9-4.55-1.95-9.1-7.15-4.45-5.15-11.2-7.9-4.25-1.8-9.35-5.7-5.15-4-7.6-7.5-3.8-5.5-6.85-23.25-.8-5 11-14.45 9.85-7.95 20.65-13.45 7.6-3.9 19.85-3.4"/><path fill="#a4725d" d="M96.65 183.85q-4.15-11.4-4.7-21-.3-5.55 6.95-11.1 4.95-3.8 11.55-6.55 3.5-1.5 13.05 2 5.05 1.8 12.3 4.8l15.1 23.6q1.6 9.65-5.1 18.4-5.25 6.9-15 12.55-2.65-1.3-7.85-2.45l-13.15-3.2q-7.7-2.15-13.15-17.05"/><path fill="#815847" d="M110.45 145.2l4.75-.3q-4.85 1.85-9.4 7.5-4.3 5.4-4.3 8.95.3 1.85 2.6 2.6l5.15.65q-1 2.3 1.65 2.85 3.35.65 3.85 2 1.1 2.8 1.8 7.65.85 5.65.15 8.5-2.15 7.15 3.4 9.6 4.2 1.9 12.1.9 3.75-.65 8.85-3.65 6.2-3.65 8.5-4.5-2.3 5.2-7.25 10.25-5.1 5.2-11 8.1-2.55-1.3-8.1-2.35l-13.4-3.05q-7.7-2.15-13.15-17.05-4.15-11.4-4.7-21-.3-5.55 6.95-11.1 4.95-3.8 11.55-6.55"/><path fill="#d7a400" d="M99.5 130.8q1.7 1.15 2.75 3.8l1.95 5.15q1.95 3.9 11.8 16.05 1.3 1.6 0 3.95-1.2 2.25-3.85 3.75-2.85 1.6-5.55 1.2-3.1-.5-4.85-3.75-2.2-4.15-5.25-8-3.2-4.1-6.25-6.5-5.7-4.4-6.55-5.3-3.25-3.2-2.35-5.65l18.15-4.7"/><path fill="#b08600" d="M90.25 146.45q-5.7-4.4-6.55-5.3-3.25-3.2-2.35-5.65l16.2-4.2q.3 2.75-1.8 5.55-2.2 2.9-2.2 3.35.5 5.8 7.05 12.45 8.95 9.1 10.35 11.4-2.65 1.1-4.95.5-2.65-.7-4.25-3.6-2.2-4.15-5.25-8-3.2-4.1-6.25-6.5"/><path fill="#d7a400" d="M106.8 86.35q-2.55 5.1-5.05 14.65-2.65 10.1-2.2 14.3.8 7.65.65 9.75-.35 5.65-3.9 7.65-7.05 4-8.8 4.4-5.2 1.3-8.65-3.8-3.5-5.15-3.95-15.55-.25-7.05.85-15.75l2.55-17.55 1.75-12.15 32.05.45q.5 1.8-1.2 5.45l-4.1 8.15"/><path fill="#b08600" d="M105.05 72.65q-6.8 4.5-12.5 14.35-5 8.75-8.1 19.75-2.9 10.35-3 18.8-.15 8.75 2.75 11.7-2.95-.5-5.35-3.95-3.5-5.15-3.95-15.55-.25-7.05.85-15.75l2.55-17.55 1.75-12.15 25 .35"/><path fill="#eeeeef" d="M158.65 43.75q5.8 1.6 5 2.4-1.2 1.2-13 5.15l.3-9.3q2.75.35 7.7 1.75"/><path fill="#c8c9ca" d="M150.85 44.95q3.6 2.2 9.35 2.9l-6.25 2.3-3.3 1.15.2-6.35"/><path fill="#d7a400" d="M152.4 47.55q.15 4.7-2.8 6.45-1.65.95-9 1.9-7.95 1-9.9 1.75-3 1.15-7.35 5.2-3.9 3.6-6.25 6.95-1.8 2.55-4.6 3.2l-6.3.9q-1.35.25-6.95 3.85-4.3 2.8-8.45 1.5-6.8-2.15-8.5-3.4-3.5-2.55-6.1-9.6l52.15-23.5q1.85.8 4.75-.05l5.15-2.15q2.8-1.35 6.9-1.35 4.4.05 5.5 1.9 1.6 2.65 1.75 6.45"/><path fill="#b08600" d="M100.95 65.4q-2.5 3.9-3.05 7.1-.5 2.95.6 5.7-3.8 2.25-7.7 1.05-6.8-2.15-8.5-3.4-3.5-2.55-6.1-9.6l46.35-20.9-2.9 5.55q-1.7 2.95-3.6 4.65-2.95 2.35-8.8 4.95-4.4 1.95-6.3 4.9"/><path fill="#c6dcdb" d="M203.85 8.6q4.1 5.25-.7 12.8-5.8 9.1-22.35 14.25-8.85 2.75-17.1.1l-5.95-1.85-6.8.3q-10.95 3-47.6 19.7Q65.7 71 62 72.15q-3.8 1.2-5.85-.1-1.8-1.15-1.85-3.85-.05-2.55 1.4-5.25 1.55-2.8 3.95-4.25 3.95-2.35 12.1-4.55l15.95-4.3q10.55-3.3 34.95-12.65 26.15-10.05 26.95-11.6l5.2-10.3q3.9-6.35 10.05-9.5Q175 .7 186.6 1.35q12 .65 17.25 7.25"/><path fill="#a7bab9" d="M202.15 22.85q-6.25 8.05-21.35 12.8-8.85 2.75-17.1.1l-5.95-1.85-6.8.3q-10.95 3-47.6 19.7Q65.7 71 62 72.15q-5.2 1.6-7-1.25.25-2.35 8.3-5.85 2.85-1.2 11.6-4.35 7.2-2.7 4.6-8.55l8.2-2.3 13.15-4.55q1.25 3.25 2.9 5.15l3.15-2.05q2.85-2.65 1.05-5.7l12.45-4.85q7.6-2.95 8.25-2.2.6.65.15 1.7l-.6 2 12.9-5.55q10.85-4.3 14.7-3.8l9.4 1.85q6.2.8 13.25-1.35 9.9-3 16.4-7.35 8.1-5.5 10.05-12.7 2.35 5.8-2.75 12.4"/><path fill="#d7a400" d="M127.85 44.3q-1.45 5.75-2.6 7.3-1.85 2.45-6.55 3.15-5.3.8-6.15-3.6-.85-4.15 0-6.85l1-1.85-2.4-1.2-9.05 3.6-2.7-5.65q.8-3.7 1.5-6.05 1.3-4.3 3.35-5.6 3.15-2.05 6.3-2.95 4.1-1.25 6.4.15 2.95 1.8 7.5 6.15 4.9 4.7 4.8 6.25-.15 2.15-1.4 7.15m-27.3-2.15q3.1 6.5 3 8.6-.15 2.1-1.25 6.15-1.25 4.6-2.45 6.4-1.3 1.95-3.75 2.6l-4.4-.25q-2.95-1.35-3.4-2-1.2-1.9.45-7-.85-1.75-2.35-2.9-1.3-.9-1.75-2.75l-9.6 2.35q.95-5.95 1.8-9.85 1.65-7.3 4.2-9.15 3.8-2.75 6.65-3.4 3.85-.9 6.65 1.6 2.85 2.55 6.2 9.6"/><path fill="#b08600" d="M99.4 39.2q.8-3.7 1.5-6.05 1.3-4.3 3.35-5.6.45-.3.65 1.15.25 2.1 1.7 3.25l6.5 4.45q4.55 3.2 4.55 4.75 0 1.25-2.4 7.15-1.45 5.55 2.65 6.55-4.55.35-5.35-3.7-.85-4.15 0-6.85l1-1.85-2.4-1.2-9.05 3.6-2.7-5.65m-18.35-4.85q.25-.15 1.1 3.4 1.55 4.65 4.8 8.5 3.75 4.55 4.8 6.9.8 1.85.45 4.1-.2 1.4-.8 3.2-.4 1.45.25 2.7.5 1.2 1.7 1.95.8.45 2.3.9-2.25.4-3.95-.35-2.95-1.35-3.4-2-1.2-1.9.45-7l-2.25-2.2q-1.3-1.3-1.85-3.45l-9.6 2.35q.95-5.95 1.8-9.85 1.65-7.3 4.2-9.15"/><path fill="#d7a400" d="M161.75 248.95q0-1.55.9-3.35l.85-1.55 10.85-4.5q11.95-4.6 17.4-5.25 10.6 3.05 13.05 4.35 5.9 3.2 6.8 9.6 1.15 8.05.9 17.1-.35 9.9-2.3 11.85-2.65 2.65-9.6 6.45-8.35 4.55-15.85 6.45-8.2 2.05-15.1.25-6.65-1.7-10.35-6.5l2.45-34.9"/><path fill="#b08600" d="M159.3 283.85l2.45-34.9q0-1.55.9-3.35l.85-1.55 4.65-2q.3 14.1 1.5 20.65 2.05 11.35 7.75 16.4 2.2 1.95 16.35.8 5.65-.5 7.5-.05 2.65.6.6 3.1-9.15 5.2-17.1 7.15-8.2 2.05-15.1.25-6.65-1.7-10.35-6.5"/><path fill="#d7a400" d="M169.75 290.45q4.2 0 11.05-2.85l12.3-5.15q1.1 3.3-3.85 9.9-5.1 6.8-9.4 6.8-3.7 0-7.25-4.35l-2.85-4.35"/><path fill="#b08600" d="M192.4 287q-2.55-1.75-7.25 3-3.55 3.5-6.85 8.95-3.2-.85-6.2-4.75l-2.35-3.75q4.2 0 11.05-2.85l12.3-5.15q.55 1.45-.7 4.55"/><path fill="#ed8599" d="M183.75 249.1l3.75 1.3-2.85 4.5q-2.85 4.7-2.65 5.75l1.5 3.55q1.2 2.7.95 4.25-.4 2.25-1.55 5.35-1.25 3.45-2.1 4.15l-3-.15-1.25-.4q3.3-5.8 3.55-8.95.05-.7-1.4-3.35-1.55-2.7-1.6-3.7 0-1.6 2.45-6.3 2.5-4.85 4.2-6m11.35-1.2l3.5 1.25-2.55 3.7q-2.5 3.95-2.35 4.9l1.4 3.3q1.1 2.55.85 4-.35 2.05-1.4 5.05-1.15 3.2-1.95 3.85l-2.8-.1-1.15-.4q3.05-5.45 3.3-8.4.1-.7-1.3-3.15-1.45-2.55-1.45-3.45-.05-1.45 2.1-5.4 2.2-4.05 3.8-5.15m6.05 23.1l-1.05-.35q2.75-5.15 2.95-7.9.1-.65-1.15-2.95-1.3-2.4-1.3-3.25-.05-1.4 1.7-4.7 1.85-3.4 3.3-4.4l3.1 1.15-2.1 3.1q-2.1 3.25-1.95 4.15l1.25 3.15q1 2.4.75 3.75l-1.25 4.75q-1.05 3-1.75 3.65l-2.5-.15"/><path fill="#d7a400" d="M118.95 269.6q1.35-5 4.15-6.5 1.75-.9 11.2-4.3 9.2-3.3 12.4-5.15 5.7-4.05 8.4-5.35 4.65-2.2 7.9.95 4.05 3.95 5.05 7.5 1.15 4.05-.55 10.75l-2.55 10.1q-1.2 3.4-4.25 5.45l-6.9 4.1q-4.8 2.65-8.2 4.95l-6.5 5.25q-4.7 3.1-7.05.1l-14.2-19.65q.15-4.75 1.1-8.2"/><path fill="#b08600" d="M117.85 277.8q.25-7.25 2.2-11.25 2.25 9.95 10.25 11.25 6.35.9 17.95-1.8 12-2.8 17.75-2.2-.9 3.85-1.8 5.55-1.1 2.1-3.5 3.7l-6.9 4.1q-4.8 2.65-8.2 4.95l-6.5 5.25q-4.7 3.1-7.05.1l-14.2-19.65"/><path fill="#eeeeef" d="M152.55 378.2q1.95 2.75 2.65 8.7.65 6.05-1.05 7.05-1.45.8-6.3-2.75l-4.55-3.7 9.25-9.3"/><path fill="#c8c9ca" d="M149.3 381.5q.65 6.5 4.8 10.65l-.55 1.1-.6 1.2q-3.2-1.55-6.75-4.4l-2.9-2.55 6-6"/><path fill="#d7a400" d="M112.9 279.05q2.3-1.8 7.5-1.45 4.75.3 9.15 2.1 3.4 1.4 3.25 6.05-.05 2.6-1.05 7.7-.1 1.3 1.5 6.65 1.5 5.05.75 10.95-.6 4.8-5.2 15-4.25 9.25-4.05 13.8.2 5.4 3.3 13.15 1.6 3.85 3.1 6.65l6.2 2.6q6.95 3.05 10.75 5.4 4.2 2.65 4.95 6.2.65 2.8-.8 6.95-1.25 3.55-7.2 6.05-5.45 2.25-9.2 1.8-4.2-.55-11.45-5.35-8.55-5.7-8.95-5.85-3-1.25-10.35-1.15l-13 .3q-6.05 0-19.4 2.5-12.95 2.4-20.9 4.9-7.75 2.45-11.95-1.2-4.3-3.7-3.1-12.25 1.1-7.8 7.75-10 4.75-1.6 14.15-.55 8.4.95 12.8-.55 2.2-.75 2.75-1.7l-11.5-3.2q-2.8-.7-3.15-3.45-.3-2.45 1.2-9.65 1.3-6.25 7.15-8.9 4.4-2 10.45-1.65 4 .2 10.3 4.8 3.15 2.35 5.5 4.6-.1-10.4-.75-20.95-.4-6.5 4.85-13.25 6.2-6.7 7.95-9.45 1.75-2.75 3.75-10.1 1.7-6.5 2.95-7.5"/><path fill="#b08600" d="M106.2 296.65q1.75-2.75 3.75-10.1 1.7-6.5 2.95-7.5 1-.75 2.55-1.15-1.3 4.3-2.7 13.15-1.65 7.95-5.55 13-6.85 7.6-6.2 21.55.35 7.05 4.05 23.1-2.45-.65-5.8-3.7l-5.1-5q0-7.55-.75-20.65-.4-6.5 4.85-13.25 6.2-6.7 7.95-9.45M39.85 382.8q-4.3-3.7-3.1-12.25.35-2.05 1.05-3.8 1.2-3.2 2.85-3.35 2.9-.25 7.55 2.7 5.55 3.55 5.2 8.2-.2 2.3 7.15 1.95l17.8-1.85q29.5-3.35 40.85 1.85l13.55 5.85q9.75 3.9 13.15 4.35-2.65 1.2-5.45 1.85l-4.6.35q-4.2-.55-11.45-5.35-8.55-5.7-8.95-5.85-3-1.25-10.35-1.15l-13 .3q-6.05 0-19.4 2.5-12.95 2.4-20.9 4.9-7.75 2.45-11.95-1.2m20.9-41.35q.85-3.85 2.45-5.95t4.5-3.15q-1.1 6.05-.75 11 .35 5.65 2.55 6.4 3.45 1.15 8.35 4.2 6.45 3.9 9.4 7.9l-8.6.55q-7.3-.4-11.75-2.15 3.8-.3 5.95-1.4l1.35-1.1q-5.9-1.85-9.75-2.8-3.1-.8-4-3.65-1.05-3.25.3-9.85"/><path fill="#eeeeef" d="M67.65 334.35q3.1 2.15.8 7.35-2.2 4.9-4.25 5.1-4 .3-9.4 2.4-5.2 2.05-6.1 2.05-.6-10.5 7.75-15.4 3.1-1.8 6.55-2.2 3.15-.35 4.65.7m-31.5 48.75q-5.65 3.15-6.6 3.35-.35-9.65 4.9-15.2 4.5-4.75 8.45-3.2 3.6 1.4 4.25 5.8.65 4.1-1.15 4.7-3.8 1.2-9.85 4.55"/><path fill="#c8c9ca" d="M57.15 342.4q5.15-2.15 11.65-1.6-.8 2.2-2.3 4.1-1.45 1.8-2.3 1.9-4 .3-9.4 2.5-5.25 2.1-6.1 2.1l-.1-1.05-.05-.95q3.35-4.8 8.6-7m-21 40.7q-5.65 3.15-6.6 3.35.2-4.7 1.7-8.85 6.25-6.15 14.55-7.25 1.55 2.15 1.45 5.05-.05 2.75-1.25 3.15-3.8 1.2-9.85 4.55"/><path fill="#d7a400" d="M212.1 141.75l7.45 12.4q7.2 12.8 5.9 14.6-.85 1.2-10.4 4.5-9.1 3.1-9.7 5.3-.3 1.85.45 13.1.65 9.6-.85 11.55-2.05 2.75-4.3 4.55-2.45 1.9-4.1 1.9-1.7 0-6.3-3.3-4.5-3.15-5.45-4.8l-2.9-11.4q-2.85-10.2-6.6-11.45-3.95-1.35-21-3.2l-19.7-1.8q-9.15-.45 4.45-30.3-7.45-10.55-18.45-32.3-11.5-22.75-8.65-22.75 2.55 0 26.5 12.7l30.7 16.65q7.95-2 17.25.1 4.65 1.05 7.7 2.5l17.05-13.25q14.05-10.5 13.5-7.8-.55 2.9-12.55 42.5"/><path fill="#b08600" d="M181.8 190.2q-3-10.2-6.75-11.5-4.05-1.45-20.95-3.25l-19.5-1.75q-4.25-.2-3.9-5.85.5-7.3 8.5-24.45-6-8.55-15.55-26.6-9.95-18.75-11.85-25.7 4.9 9.95 23.4 23.05l12.05 8.75q5.35 4.4 5.9 7.25-.65 3.7-5.75 18.9-4.1 14-1.35 16.35 2.7 2.3 16.7 6.65 15.35 4.8 16.35 5.3 2.15 1.1 7 11.75 4.8 10.65 6.65 11.6 4.4 2.25 5.65 2.3 3.4.1 7.6-4.9l-.45 2.75q-.3 2-.6 2.35-2.05 2.75-4.3 4.55-2.45 1.9-4.1 1.9-1.7 0-6.3-3.3-4.5-3.15-5.45-4.8l-3-11.35m25.55-56.05q-1.8-2.85 2.4-9.45 3.75-5.95 10.8-12.65l-8.1 28.85-2.75-3.15-2.35-3.6"/><path fill="#fff" d="M208.3 154.2q.85.85 1.95 3 1.25 2.45 1.25 4l-6.3 4.7-3.25 2.3q.25-2.85 1.9-6.55 1.7-3.8 4.45-7.45"/><path fill="#dbdcdc" d="M208.3 154.2l1.55 2.15q-2.65 1.65-7.55 10 1.2-6.8 6-12.15"/><path fill="#fff" d="M162.9 149.05q5.75 2.45 12.65 8.8 6.55 6.15 8.6 10.6-14.95-4.65-22.85-7.9-.8-2.25.3-7.1l1.3-4.4"/><path fill="#dbdcdc" d="M162.55 149.95l.4-.9q6.2 2.85 12.8 8.95 6.4 5.9 8.4 10.3l-2.5-.7q-8.4-11.4-19.95-15.1l.85-2.55"/><path fill="#ed8599" d="M188.9 132.5l3.45 5.2 5.25 2.05-2.35 2.6 1.75 6.4-6.4-3.2-6.05 4.35.25-5.8q-1.45-1.75-4.9-4.05l6.3-2.25 2.7-5.3"/><path fill="#d7a400" d="M182.2 177.45l1.6 5.35q-20.8 13.2-35 43.95-5 10.9-8.1 21.65-2.6 9.05-2.45 12.3-2.65-7.1-2.1-17.85l1.05-9.35-2.05 2.25q-2.5 2.9-4.45 6.2 2.25-23.5 23.15-43.9 12.5-12.15 28.35-20.6"/><path fill="#b08600" d="M135.3 229.8q.1.9 3.45-1.85 3.2-2.55 2.85-1.55-3.75 11.2-4 19-.1 4.7.35 15.2-2.8-6.7-2.05-17.6l1.3-9.5-2.1 2.1q-2.45 2.8-4.2 6.15.9-9.2 4.55-17.6 3.2-7.35 8.9-14.9-2.5 4.3-5.8 11.75-3.3 7.55-3.25 8.8"/><path fill="#d7a400" d="M205.35 179.05l.75-1.4q16 6.2 27.7 19.05 13.45 14.75 12.25 29.85-.9-2.75-3-7.3l-1.45-3.15q.7 2.1.65 6.95-.15 7.5-3 12.9-2.1-15-7.7-26.6-9-18.85-26-26.95l-.2-3.35"/><path fill="#b08600" d="M244.95 215.25q1.6 5.65 1.1 11.3-.9-2.75-3-7.3l-1.9-4.05 1.1 5.75q.45 7.25-2.95 14.75-2.05-10.65-3.55-15.6-3.55-11.7-9.75-20.3 3.25 3.45 8.45 12.05 4.8 8 5.1 8.2.7.45.35-3.4l-.6-6.4 2.75 2.6 2.9 2.4"/><path fill="#e4eeee" d="M162.15 15.75q-.45-.7-.25-1.65.25-1.2 1.3-2.5t2.6-2.25q2.3-1.45 4.55-1.7 2.2-.2 3 1 .45.65.2 1.65-.2 1.2-1.25 2.5l-2.65 2.25q-2.25 1.45-4.5 1.7-2.2.2-3-1"/><path fill="#0d131a" d="M202.8 339.25q2.45-2.45 7.4-5.4l.15 2.5-4.65 2.85q-2.25 1.5-2.15 2.2.1.5 4.1.45l4.75-.05.25 1.9h-8.4q-5.6-.3-1.45-4.45"/><path fill="#0d131a" d="M232.8 293.9l2.1.4q-.4.55-.95 2.05-.5 1.55-.7 2.8-.5 4.35-1.65 6.25-1.15 1.95-.9 4 .2 2.05 1.8 4.75 1.9 3.1.95 6.9-1.15 4.8-6.75 8.95l-3.75 2.3q-1.15.4.25-1.45-8.3-.15-9.1.7-2.2 2.45-2.85 4.05-.7 1.9.4 3.55l.85 1.4q1.45 2.55 3.05 3.25 2.5 1.1 8.15.1 7.4-1.3 13.2-1.3l11.25 1.1q7.05 1.15 11.2 2.55 5.65 1.85 7.7 4.6l1.2 1.65q2.1 3.1 3.5 4.1 2.3 1.7 5.8 1.55 2.65-.15 4.85-1.25l1.5.85q-9.65 6.7-17.25-4.15l-1.15-1.65q-1.75-2.35-7.25-4.1-3.85-1.2-10.4-2.3l-11-1.05q-5.55-.05-12.85 1.25-6.6 1.15-9.65-.05-2.15-.8-3.7-3.5-1.2-1.65-1.95-4.05-.5-1.65.5-4 .9-2 2.5-3.75 1.55-1.7 8.3-1.6l3.6-.05q1.85-.15 2.85-.7 5.55-4.8 5.55-9.15 0-1.95-1.1-3.8l-2-3q-.9-1.45-.9-2.65 0-2.75.95-4.4 2.15-3.65 2.45-6.15.55-3.9 1.4-5m55.5 54.8q2.55 2.2 4.9 1.4 1.15-.4 1.9-1.3l2.7.65q-1.05 1.2-2.5 1.95l-6.3-.2-.5-1.55-.2-.95"/><path fill="#0d131a" d="M257.15 279.85q1.35.3 5.15 2.75 3.95 2.5 5.1 3.9.55.8.55 1.75 0 2.5-2.85 7.65l-1.1 1.95q-.4.85-.4 2.35l.1 2.1.25 1.55.25 1.55q0 2.4-.6 3.75-.9 1.95-5.85 7.85-3.4 3.95-4.85 7.25-.75 1.65-.8 2.55l2.6.3 1.75.15 6.35-.3 5.95-.3 5.65.6q2.15.6 8.25 3.1 5.95 2.4 9 3.95 5 2.5 7.5 6.05l-1.45-.2-1.4-.1q-1.7-1.9-6.25-4.2-3.25-1.55-8.5-3.8-5.7-2.45-7.65-3-2.1-.55-5.3-.55l-5.6.35-6.65.25-4.5-.35-.05.7-.45 1.05q-.65.5-1.05-1.6-.45-2.35.75-5 .95-1.95 5.1-7.95 4.35-6.2 5.25-8.1.8-1.75.4-5.4-.3-3.8.5-5.45l1.1-2.05q3.25-5.85 2.5-6.8-.9-1.15-4.75-3.45-3.65-2.15-4.8-2.45-1.45-.4-4.45 2.25l-.15-2.6q3-2.65 5.4-2.05"/><path fill="#0d131a" d="M254.45 332.45q-.55-.5-.3-.85.25-.35.9 0l5.4 1.4 7.25.5q1.9-.4 6.1 2.4l5.8 4.25 5.35 4.05q2.25 1.45 3.1 2.45 1.1 1.25.95 2.9l-1.95.05q.1-1.2-1.05-2.4-.9-.95-3-2.25l-4.6-3.35q-8.75-6.85-11.3-6.35l-7.05-.4q-4.1-1-5.6-2.4"/><path fill="#0d131a" d="M281.2 350.5q-2 1.85-1.7 4.15l6.8 3.85q5.5 3.25 5.9 3.1.85-.5-1.6-5.9-2.55-5.6-4.85-6.4-2.3-.8-4.55 1.2m-1.3-.8q1.4-1.3 3.15-1.9l3.25-.1q2.6.9 4.7 4.8 1.95 3.6 2.6 8.1.25 2.3-.15 2.75-.6.6-2.6-.85l-5.6-3.35q-3.25-1.7-5.75-2.65l-.6.05q-.7-.1-1-1.15-.35-1.3.1-2.8.55-1.7 1.9-2.9m23.1-3.3q-3.4-5.25-5.45-5.65l-2.25.3q-1.15.5-2.05 1.55-1.3 1.6-1.3 3.3l.2 1.05q.9.2 7.35 2.9 5.85 2.45 6.2 2.2.55-.55-2.7-5.65m-11.3-4.45q1.25-1.5 2.9-2.3 1.75-.85 3.25-.55 2.55.5 4.95 3.7 2.1 2.8 3.65 7 1.4 3.3.6 3.8-.6.35-3.15-.8-6.05-2.8-12-4.1-.8.5-1.25-.75-.4-1.2-.25-2.75.2-1.95 1.3-3.25M103 195.6l1.15 2.2q-6.9-3.05-15.95-3.65-9.8-.65-19.25 1.8-23.2 6-34.5 27.15-9.6 17.9-7.7 36.65 1.6 15.15 9.85 27.1 2.9 4.25 2.9 5.15 0 .8-2.15-1.55L33.6 286l-1.75-2.3q-4.7 2.6-10.8 2-8.55-.9-16.15-8.4l-1.7-1.4q-.55.05-.85 2.9-.75 6.6.75 12.9 1.45 6.1 4.8 11.1 4.15 6.2 9.9 10.2 8.25 5.75 18.6 5.75 16.85 0 28.95-7.1 8.6-5.05 11.3-10.55Q66 291 63.85 271.85q-2.3-20.2 7-36.35 1.85-3.2 2.45-3.05.65.1-1.6 4.15-3.65 6.65-5.3 15.8-2.05 11.45-.05 23.25 1.95 11.7 9.4 21.3 6.75 8.75 17.6 15.25l-.7 2.55q-8.2-5.7-14.85-12.25-5.4 8.4-15.55 13.1-10.95 5.05-25.85 5-18-.1-28.45-13.7Q-1.9 294.05.35 277q.65-4.9 1.6-4.9.7 0 5.2 4 5.75 5.15 13.35 6.45 6.5 1.1 10.2-.9-6.85-12.4-7-27.4-.2-16.8 8.25-32.55 10.3-19.2 32.55-26.65 21.1-7.1 38.5.55m25.7 131.55q1.1-1.45.75-2.6 24.55 3.5 44.65-5.05 22.9-9.75 35.35-33.6l1.65.85Q197.65 312.5 175 322.4q-20.05 8.75-46.3 4.75"/><path fill="#0d131a" d="M95.95 215.6q13.15-10.05 24.8-11.3l.15 1.4q-11.15 1.15-23.9 11.45-13.8 11.15-20.75 26.55-6.05 13.3-5.35 27.2.85 18.3 13.35 35.95-2.55-1.3-3.2-2.3-11.2-17.3-11.9-35.35-.55-14.15 5.2-26.9 7-15.55 21.6-26.7"/><path fill="#0d131a" d="M128.15 221l1.95 1.25q-9.4 2.55-18.65 10.5-10.5 9-16.4 21.6-5.3 11.15-5.9 23.4-.85 16.05 6.55 32.5l-1.25.55q-7.55-16.85-7.05-32.95.45-12.6 5.7-23.75 6.1-13 16.35-22.2 9.3-8.3 18.7-10.9m116.4 10.75q1.7 3.5 3.35 5.45l-.75.45q-.6.25-.8.45l-2-2.9-1.25-2.75-1.5-3 .75-3.05 2.2 5.35m-7.4 12.9l.4 1.4-.75 2.15-1.15-3.1q-2.15-7-14.25-13.65l.8-1.25q7.95 4.35 11.15 7.65 2.5 2.65 3.8 6.8m1.95-59.45q2.05 2.4 2.5 7.2.5 4.7-.35 13.7-1.6-2.55-2.2-3 .7-6.95.1-11.35-.5-3.8-1.85-5.2-3.1-3.25-10.1-5.1-7.2-1.9-17.1-2-2.9-1.25-3.55-1.85 13.95.4 21.7 2.2 7.8 1.8 10.85 5.4"/><path fill="#0d131a" d="M232.7 227.9q2.05-1.55 3.5-4.75l.85 3.2q-1.15 1.8-2.6 2.9-2.2 1.65-5.4 2.15l-6.8-.35 1.55-1.85 5.15.45q1.9-.3 3.75-1.75m72.75-29.55q2.75 1.25 4.7 3.95 2.6 3.5 2.05 7.8-.25 2.4-1.55 3.95l-.45-3.45.15-.7q.45-3.6-1.75-6.55-1.65-2.25-3.95-3.3-1.85-.85-6.3.1-4.9 1-6.2 3.35l-1.25 2.5q-2.5 5.15-5.75 8.4-3.85 3.85-6.2 4.5-2.55.8-3.9-1.6-.75-1.25-.85-3.15l.05-3.3.05-.55q.1-1.2-1.15-2.2-1.05-.85-2.95-1.25l1.15-1.7q1.75.55 2.95 1.45 1.9 1.5 1.9 3.6l-.1 2.9q0 2.45.9 3.6.8 1.05 1.65.75l1.5-1.05q2.4-1.9 4.6-4.45 2.45-2.8 3.7-5.25l2.5-4.95q1.65-3.05 7.15-3.85 4.75-.75 7.35.45"/><path fill="#0d131a" d="M269.9 199.45q3.15-1.1 2.55 2.3l-1.75 8.75.45.2q.2.4-.95 1.25-2.35 1.7-4.8 2.55-3.8 1.25-6.3-.35-1.35-.95-.95-2.75.5-2.4 3.95-6.25 3.9-4.35 7.8-5.7m.45 5.6q.95-4.1.6-4.15-1.8-.4-6.3 3.95-4.45 4.3-5 6.9l-.05.4q0 .5.35.65 1.55 1 4.7.05 2.25-.7 4.4-2.05l1.3-5.75m39.6 7.1q-.25-1.15-2.45-1.95l-3.45-.6-2.45.3 1.1 6q.85 4.7 1.1 4.8 1.15.25 3.75-3.2 2.7-3.5 2.4-5.35m-6.1-3.85q2-.05 4 .65 2.95 1 3.25 3.05.3 1.7-1.15 4.25-1.5 2.75-3.8 4.25-2.1 1.4-2.8 1.15-.6-.2-.95-2.2l-1.9-9.25-1.05-.15q-.1-.3.9-.85 1.4-.85 3.5-.9m10.6 37.65q-1.15-.75-2.9-.7-1.7.05-2.85.8.25 2.5-.1 6.45-.25 3.15-.05 3.3.6.35 3.5-2.2 3.05-2.7 3.6-4.8.25-1.1 0-1.65-.2-.6-1.2-1.2m-7.15-.85q1.9-1.2 4.05-1.35 2.2-.2 3.95.85 2.3 1.45 1.65 4.4-.75 3.7-6.35 7.15-1.95 1.2-2.6.9-.65-.3-.5-2.4l-.15-5.65-.3-3.1-.25-.2q-.1-.25.5-.6m-61.85 30.1q3.45 2.7 5.6 3.4 1.65.6 2.1 2.35.5 2.2-1.45 6.05-1.5 2.95-2.85 4.35-1.65 1.6-7.5 2.85l-10.25-.3q-3.55-1.7-11.5-4.2-8.05-2.55-11.85-3.1-4.8-.7-7-4l1.55-1.05q1.5 2.2 6.15 2.9 3.8.55 11.95 3.3 7.55 2.55 11.55 4.45 2.95 1.45 9.15.05 5.3-1.15 6.4-2.25 1.05-1.05 2.45-3.75 1.7-3.3 1.35-4.9-.15-.65-.9-.95-2.05-.7-5.85-3.8l-7.95-6.85q-9.65-8.35-15.25-11.55-4.85-2.8-8.85-2.8v-1.9q5.2 0 10.15 2.55 6.65 3.45 15.2 12.3 4.05 4.1 7.6 6.85m-118.8-57.25q2.5 3.6 7.85 7.6-.05 1.2-.65 2.35-6.35-4.2-9.05-8.05-1.25-1.8-2.9-7.8-1.9-6.9-2.6-8.5-.5-1.1 1.25-.7 1.7.4 2.1 1.95l1.65 7.05q1.05 4.25 2.35 6.1m28.6 21.55q1.85 2.2 3.05 3.25 2 1.7 4.7 2.9l-.65 1q-5.65-2.55-8.55-5.9l-2.9-3.15q-1.9-1.75-4.4-3.15l-.15-2.2q3.15 1.65 5.5 3.7l3.4 3.55m71-39.15q6.2 17.6 1.95 24.35l-8.75 9.25q-8 8.15-9.1 9.95l-.55-1.2q.65-.9 7.85-8.55 7.25-7.7 9.1-10.35 2.25-3.3 1.55-8.45-.45-3.3-4.35-18.35l1.1 1.45 1.2 1.9"/><path fill="#0d131a" d="M95.05 184.2q-4.85-11.9-5.3-20.6-.25-4.8 6.2-10.65l1.25 1.45q-4.3 4.15-4.3 8.05v.35q.5 9.6 4.75 20.95Q102.9 198 110.05 200l12.7 2.95q6.7 1.4 8.05 2.1.75.4 3.8-1.6 3.4-2.2 6.7-5.5 9.15-9.15 9-18.15l-.45-4.75 1.95.4q2.05 12.25-9.55 23.7-3.95 3.9-8.35 6.55-3.9 2.35-4.35 1.8-.25-.25.2-.85-2.05-.75-7.4-1.85-6.5-1.25-12.8-3-8.3-2.3-14.5-17.6m15.75-38.15l-1.9.8-1-1.6 2.15-.95q3.05-1.25 9.8.6 4.4 1.2 11.55 4.15l3 .9 2.25.5-1.1 2.5-5.35-2.1q-7-2.9-10.6-3.95-6.25-1.9-8.8-.85"/><path fill="#0d131a" d="M100.4 164.5q-.9 1.7-.4 2.9l2.5 4q1.35 2.85 1.45 6.45.05 2.95-.6 4.45-.5 1.15-.8 1-.25-.1-.2-1.1.25-6.5-1.5-10.35l-2.6-4.6q-.75-1.8.5-3.95.6-1.15 2.35-2.9.3 1 1.1 1.75-1.1 1.15-1.8 2.35m19.5-12.1q-.85-.5-1.95-.35-1.05.2-3.8 1.65-.3-1.1-.6-1.45 2.85-1.3 4.1-1.6 2.3-.45 4.8 2l4.1 4q1.55 1 1.4 1.3-.2.25-1.75-.55l-2.55-1.75-1.7-1.6-2.05-1.65"/><path fill="#0d131a" d="M98.7 131.45l1-2.1q2.3 1.55 3.95 6.45l1.4 3.55q1.15 2.25 5.8 8.4l5.9 7.45q1.55 1.85.35 4.5-1.1 2.35-3.15 4-2.4 1.9-5.25 2-2.3.1-4.4-1.05-2.25-1.15-3.4-3.25-2.3-4.25-5.35-8.15-3.05-3.85-5.9-6.05L88 145.95q-4.6-3-6.35-5.2-2.2-2.8-1.15-5.55l1.75.65q-.65 1.75 1.7 4.25 1.35 1.45 5.2 4.35l1.65 1.25q3.05 2.35 6.2 6.35 3.15 3.95 5.6 8.45 1.85 3.45 5.3 3.3 2.3-.05 4.55-1.6 2.1-1.45 2.9-3.25.8-1.55-.1-2.55-9.75-12-11.9-16.2l-1.5-3.8q-1.2-3.55-3.15-4.95"/><path fill="#0d131a" d="M97.55 131.5l1.05-.2q.25 1.5-1.15 4.05-1.6 2.8-3.9 4.05-1.85 1-4.05.65-2.75-.4-5.25-2.8.55-.25 1.05-.55 3.55 3.5 7.5 1.35 2.1-1.1 3.6-3.5 1.35-2.05 1.15-3.05"/><path fill="#0d131a" d="M105.95 85.9l2.05-4.1 2.55-5.2q.95-2.4.65-3.6l1.8-.5q.45 1.7-.55 4.35l-2.75 5.85-2.1 4.05q-2.4 5-4.9 14.4-2.6 10.05-2.2 14.05l.2 1.9q.7 6.35.3 9.3-.65 5.1-4.25 7.15l-1.8 1.05q-5.35 3.2-8.3 3.6-5.15.7-8.6-4.35-3.5-5.2-4.4-14.75-.7-7.9.45-16.9l5-29.9 2.05 1.95-4.45 27.85q-1.4 10.7-.6 18.65.75 7.95 3.55 12.05 2.8 4.15 6.8 3.6 2.45-.35 7.55-3.4l1.8-1.1q2.9-1.65 3.4-6.2.25-2.6-.4-8.4l-.2-1.9q-.4-4.3 2.25-14.6 2.55-9.65 5.1-14.9m57.6-41.4q1.75.75 1.85 1.2.05.5-1.35 1.45-1.8 1.2-13.15 4.9l1-2.45 7.2-2.2q3.45-1.05 3.45-1.45 0-.7-4.9-1.85-4.1-1-6.8-1.3l.2-1.55 5 1.05q5.3 1.25 7.5 2.2"/><path fill="#0d131a" d="M133 41.75l4.85-2.05q3-1.45 7.35-1.4 4.85.05 6.25 2.35 1.15 1.85 1.75 4.25.8 3.1.2 5.55-.75 3.25-2.7 4.4-.9.55-9.7 1.95-9.2 1.45-11 2.2-3.6 1.55-7.6 6.65l-3.3 4.8q-1.55 2.25-4.45 3.15l-5.2.85-3.1.4q-1.65.3-4.85 2.5-6.8 4.9-12.45 3.1l-1.65-.5q-5.25-1.6-7.9-4.15-3.35-3.2-4.2-9.25l1.8-.65q2.3 6.3 5.2 8.75 1.9 1.6 7.15 3.2l1.65.5q2.65.85 5.1-.05l4.2-2.45q1.75-1.25 2.65-1.75 1.55-.85 2.95-1.1l3.25-.45 4-.75q1.75-.7 3.1-2.55 6.9-9.85 12.35-11.9 1.55-.55 4.9-1.25l6.05-1 5.6-.8 3.9-1.15q1.55-.9 2.05-3 .5-2.05 0-4.75-.45-2.35-1.35-3.8-.85-1.4-4.8-1.45-3.85 0-6.45 1.25l-5.4 2.25q-3.1.85-5.2-.05l.7-1.7 4.3-.15"/><path fill="#0d131a" d="M88.1 59.85l-.15 2.05Q65.6 72.05 61.4 73.35q-6.3 2-8.05-2-.55-1.35-.55-2.75 0-2.9 1.5-6 1.65-3.35 4.1-4.85 2.85-1.7 7.9-3.15l9.5-2.4 8.9-2.4.85 1.6-9.3 2.5-8.9 2.45q-4.45 1.45-7.25 3.1-2.2 1.35-3.6 3.95-1.3 2.4-1.3 4.65 0 1.2.35 1.95 1.25 2.85 6.2 1.3 4.1-1.3 26.35-11.45m24.15-9l-8.85 3.95.05-1.95 8.95-4.05q-.15 1.05-.15 2.05M205.7 7.2q3.1 3.9 1.35 9.55-1.55 4.9-6.5 9.7-7.15 6.8-19.2 10.6-6.3 1.95-11.9 1.6-3.9-.25-8.3-1.8l-4.65-1.8q-2.6-.75-5.3 0-3.55 1-10.25 3.75l-13.5 5.7.55-2.55q15.9-6.75 22.7-8.65l6.35-.4q1.95.3 5.45 1.5 4.6 1.55 7.45 1.8 4.75.45 10.55-1.4 11.85-3.7 18.25-9.65 4.15-3.85 5.4-7.9.7-2.35.45-4.45-.25-2.1-1.45-3.6-4.9-6.2-16.3-7-11.35-.8-21.6 4.4-4.8 2.4-8.7 8.1-.5.75-4.25 7.4l-1.85 3.35q-1 1.35-2.95 2.4-3.95 2.15-19.7 8.3l-.75-1.65 13.45-5.2q5.25-2.05 6.8-3.05 1.5-.95 2.4-3.3l1.4-3.9q1.8-3.9 3.6-6.4 3.65-5 8.8-7.6 10.3-5.2 23-5.05 13.7.2 19.2 7.2m-104.45 37l10.05-3.7.8 1.6-10.35 3.8-.5-1.7"/><path fill="#0d131a" d="M124.5 29.85q5.65 5.35 5.5 7.35-.15 2.65-1 7.4-1.15 6.1-2.4 7.8-1.15 1.55-4.6 2.8-3.7 1.3-6.3.85-2.65-.5-3.85-2.7-.95-1.8-1.15-5.25-.15-2.35 1.75-5.4-4-2.5-4.6-3.8-.4-.95-.2-1.85.2-.95.9.25 1.1 1.75 5.4 4.45.75.5.55.95l-.4.35-.85 1.75q-.7 2.45.05 6.2.5 2.45 2.75 2.95 2.1.5 5.05-.65 2.65-1 3.5-2.15 1.1-1.45 2.35-6.85 1.05-4.65 1.2-6.9.05-1.15-4.35-5.7-4.45-4.55-7.25-6.3-2-1.25-5.9 0-3 .9-5.95 2.8-1.5.95-3.15 6.15-.85 2.65-1.4 5.05l-1.1-2.25 1.4-6.05q1.15-3.75 3.05-4.95 2.55-1.65 5.55-2.65 4.95-1.65 7.8.05 2.85 1.75 7.65 6.3"/><path fill="#0d131a" d="M86.85 29.9q4.8-1.25 7.95 1.6 3.05 2.7 6.65 10.3 3.45 7.1 3.3 9.35-.15 2.4-1 6.2-1.1 4.75-2.35 6.65-1.5 2.25-3.8 3.2l-5.3.2q-2.85-.85-4.15-2.3Q87 63.7 87 61.5q0-1.75.9-4.75L86 54.8q-1.7-1.85-2.8-5.75-.35-1.3.3-2.35.65-1.05 1 .75.3 1.5 2.3 4.65l2.65 4.2q.65 1.15.1 1.7l-.65.35-.1 2.65q.45 2.9 3.25 3.95 3 1.15 4.65.4 1.15-.45 2.5-2.5 1.1-1.7 2.3-6.1 1.1-4 1.25-6.05.1-1.85-2.7-7.9-3.1-6.65-5.9-9.15-4.8-4.25-12.6 1.3-1.85 1.35-3.75 9.7-.95 4.2-1.5 8.1l-2 .4q.45-4.25 1.3-8.85 1.8-9.2 4-10.75 3.9-2.8 7.25-3.65m73.55 203.3q-5.25 1.95-6.8 1.5-1.7-.5-2.35-3.25-.25-1.35.05-1.75.35-.4.8 1 .45 1.5.85 2.05l1 .8q1.45.4 8.2-2.45 5.1-2.2 8.35-3.95 1.7-.95 1.6-.6l-1.35 1.2q-4.6 3.25-10.35 5.45m46-14.95q13-.2 14.5 5.4l.15 1.1-.8-1.15q-2.3-3.75-11.85-4.2-7.7-.4-16.35 1.25l-1.6.15q-.1-.15 1.5-.7 4.8-1.65 14.45-1.85m-44.9 26.1q-.1-.15.25-.45l.35-.25q2.7-1.15 11.15-4.2 11.55-4.15 17.15-5.3l4.15-.75 2.3.1q1.15.45-2.2 1.1 8.95 2.5 11.75 4.15 5.25 3.1 6.15 9.35 1.15 8.2 1.1 16.75-.1 10.55-2.4 12.85-2.05 2.05-7.2 5.1-5.85 3.5-11.85 5.85.9-1.5 1.05-2.6 5.05-2.25 9.7-5.35 4-2.6 5.8-4.45 1.1-1.05 1.95-4.9.9-4.15.9-9.05 0-7.25-.95-13.9-.75-5.5-5.4-8.4-2.9-1.8-11-4l-2.6-.75q-8 1.05-27.55 9.55-1.4 2.35-1.4 4.15l-1.2-.4q0-1.75.35-2.9l.35-.9q-.55-.1-.7-.4"/><path fill="#0d131a" d="M171.35 291.7q1.45 2.5 3.15 4.2 2.6 2.5 5.35 2.5 1.85 0 4.35-1.9 2.45-1.9 4.75-5.05 1.6-2.2 2.55-4.4.95-2.15 1-3.5-2.75 1-7.25 3L179 289.5q-3.7 1.55-7.65 2.2m-12.8-7.3l1.5-1.15q2 2.6 4.9 4.4 3.15 1.95 5.9 1.95 3.9 0 11.4-3.5 7.45-3.4 9.35-4l2-.5q.95.1.75 1.85-.5 4.2-3.9 8.95-2.5 3.45-5 5.7-3.3 3-5.75 3-3.4 0-6.6-3.7-2.05-2.4-3.6-5.65-8.5-2.05-10.95-7.35m28-33.7l-2.6-.9q-1.6 1.2-3.95 5.75-2.25 4.4-2.25 5.8v.05q0 .9 1.55 3.5 1.45 2.6 1.45 3.45v.15q-.25 2.85-3.3 8.55l3.05.3q.7-.75 1.8-3.85l1.5-5.15.05-.55q0-1.6-1.5-4.6-.85-1.8-.95-2.45l-.05-.2q0-1.95 5.2-9.85m-3.3-1.8l2.15.05 2.35.9q.7.25.1 1.25l-1 1.3-1.95 3.3-1.75 3.25q-.7 1.4-.55 2.2l1.45 2.95q1.3 2.95 1 4.5l-1.65 5.55q-1.55 4.2-2.6 4.45l-2.65.1q-1.8-.25-2.05-1.2-.1-.45 1.45-3.45 1.75-3.4 1.95-5.65l-1.5-3.25q-1.5-3.1-1.5-3.75-.05-.65.7-2.75.9-2.35 2.7-5.4 2.05-3.4 3.35-4.35m9.85 8.95v-.2q0-1.9 4.5-8.2-1.85-.75-2.35-.85-1.45 1.15-3.5 4.9-1.95 3.65-1.95 4.9v.05q.05.85 1.45 3.25 1.35 2.5 1.35 3.3v.1q-.2 2.5-3.05 8l2.75.25q.65-.75 1.7-3.6l1.35-4.8.05-.5q0-1.5-1.4-4.3l-.9-2.3m5.75-9.3q.7.3.25 1.05l-.85 1.15-2.35 3.55q-1.8 2.9-1.7 3.65l1.4 2.9q1.25 2.9 1 4.3l-1.8 5.85-.95 2.5q-.7 1.15-2.2 1.1l-2.3-.2q-1.75-.4-1.25-1.3 3-5.35 3.25-8.1l-1.4-3.05q-1.4-2.9-1.4-3.5l.05-.6q.35-1.9 2.8-5.9 2.4-3.85 3.4-4.45.65-.35 4.05 1.05m6.9-.4q-1.3 1.05-2.95 4.2-1.6 3-1.6 4.15 0 .7 1.3 3.1 1.2 2.2 1.2 3.1v.1q-.2 2.3-2.7 7.5l2.3.25q.6-.7 1.55-3.4.9-2.6 1.2-4.5v-.45q0-1.45-1.25-4.05L204 256v-.2q0-1.85 3.75-6.9l-2-.75m-.6-.95l1.7.2 1.65.6q.75.45.65.9l-.65 1.05q-3.7 5.35-3.55 6.15l1.3 2.9q1.2 2.8 1 3.85l-1.5 5.1q-1 2.95-1.85 3.55l-2.25.1-2.1-.65q-.2-.3.4-1.45l.8-1.65q1.55-3.3 1.7-5.15l-1.25-2.85q-1.25-2.75-1.25-3.3-.05-1.8 2.1-5.5l1.55-2.3q1.1-1.45 1.55-1.55m-86.35 30.65l-1.9-.05q.25-6.5.75-9.05 1.05-4.95 3.95-6.5 1.15-.6 4.1-1.65l5.75-2 5.2-1.8.3 2.05-4.25 1.5q-7.3 2.6-9.15 3.6-4.35 2.3-4.75 13.9"/><path fill="#0d131a" d="M146.25 252.8l3.5-2.3q4.65-3.2 6.95-3.8 3.9-1.1 6.95 1.85 4.15 4.1 5.25 7.8 1.3 4.4-.5 11.35l-1.15 4.95q-1.15 4.95-1.95 6.7-1.25 2.65-4.05 4.5l-6.45 3.8-4.55 3.3-5.2 3.85-2.35 1.9-3.85 2.9q-2 1.05-4.15.9-.8-.1-1.35-.7l-1.05-1.4.5-1.55q.8 1.05 1.9 1.1 1.55.15 3.95-1.45l3.9-3.15 2.5-2.05q3.75-2.5 8.85-5.3 3.8-2.1 6.3-3.75 2.35-1.55 3.4-3.75.7-1.55 1.8-6.3l1.2-4.95q1.65-6.45.55-10.3-.95-3.3-4.85-7.05-2.25-2.2-5.1-1.4-2 .55-6.35 3.55l-3.65 2.4q-2.75 1.55-7.7 3.45l.25-2.25q4.4-1.6 6.5-2.85m6.9 124.15q2 2.8 2.85 6.15.95 3.8.2 7.8-.7 3.55-2.2 4-1.4.4-4.3-1.6-1.95-1.35-5.25-3.35l-2.8-1.7 2-1.45q8.4 6.6 9.4 6.25 1.7-.65 1.5-5.75-.2-5.35-2.6-8.6l1.2-1.75m-115.2-7.65l-1.5.65-.95.05q1.45-10.1 10.45-11.65 3.05-.5 7.25-.05l5.55.75q9.2 1.05 13.35-.9l-9.65-2.7q-1.8-.45-2.95-3.75-.8-2.3-.8-3.4l2.5-.9q.1 2.9 1.15 4.65.95 1.55 2.5 1.95 4.65 1.15 11.45 3.4 8.95 2.9 11.25 4.55 4.05 2.9-1.3 1.05-7.35-2.85-11.85-4.2-2.3 2.15-3.7 2.5l-12.15-.35-13.65.5q-5.6 1.8-6.95 7.85"/><path fill="#0d131a" d="M120.4 278.55q-4.9-.35-6.9 1.25-1.05.85-2.65 6.9l-1.6 5.5q-1.05 3.05-2.25 4.95l-4.05 4.9q-4.3 4.7-6 7.55-2.9 4.9-2.6 9.7l1 20.5 3.65 2.9 6.5 5.5q2.95 2.55 2.7 3.1-.25.55-3.55-1.3l-12.6-9.95q-10.2-8.05-13.75-8.2-6.8-.4-11.3 2.25l-2-.7-2.15-.6q3.05-2.05 7.8-3l6.75-.6q3.35.15 8.65 3.55 3.65 2.3 7.15 5.35l-.6-8.35-.9-11.35-.05-1.05q0-4.85 3.4-9.4l6.5-7.15 3.85-4.65q1.75-2.7 3.65-9.95l1.3-5.25q.75-2.6 1.65-3.35 2.6-2.1 8.6-1.5 4.9.55 9.45 2.4 3.7 1.5 3.7 6.8l-1.05 8.7q0 1.3 1.45 6.95 1.4 5.4 1.2 7.65-.55 6.8-6 18.25-4.5 9.5-3.2 16.25.7 3.6 2.55 8.35 1.95 5.1 3.75 7.65 12.3 4.85 17.05 7.8 3 1.95 4.25 4.3 1.1 2 1.1 4.55 0 3.05-1.05 5.35-2.35 4.95-7.6 7.4-4.75 2.2-9.7 1.55-5.6-.7-15.15-7.3-4.55-3.6-5.65-4.05-4.15-1.7-16.55-1.3l-7.05.15q-5.9 0-20.35 3-13.2 2.7-21.55 5.3-4.05 1.3-7.55-.15-2.6-1.1-4.45-3.4l1.95-1.35q2.05 1.7 4.85 2.4l6.5-.25q7.85-2.5 20.9-4.9 13.45-2.5 19.7-2.5l6.95-.2q6.5-.25 9.5-.1 4.75.15 7.25 1.2l5.65 3.5q4.75 3.3 7.2 4.7 4.4 2.55 7.3 2.9 4.25.55 8.6-1.4 4.7-2.1 6-5.8 1.6-4.65.9-7.4-.7-2.65-3.85-4.65-3.7-2.3-8.4-4.35l-5.95-2.45q-3.3-1.25-4.45-1.9-2.05-1.05.35-1.55-1.55-2.2-3.05-6.6-2.1-6-2.3-11.75-.25-6.2 3.95-15.35 4.85-10.65 5.35-13.55.65-3.95.05-7.4l-1.35-4.85q-1.1-3.4-.95-5.3l.45-3.35q.75-4.15.5-6-.4-2.5-2.65-3.45-4.2-1.75-8.75-2.05"/><path fill="#0d131a" d="M67.15 335q-1.05-.75-3.05-.7-2.15 0-4.4.95-9.5 4-10.45 15.15.25.25 6.05-1.9 6.45-2.4 8.85-2.55.7-.15 2.1-2.1 1.6-2.3 2.1-4.55l.2-1.45q0-1.85-1.4-2.85m-14.9 3.25q2.9-3.35 6.15-4.7 2.75-1.2 5.7-1.05 2.6.15 4 1.15 3 2 1.8 6.5-.7 2.65-2.45 5.15-1.75 2.5-3.05 2.6-5.05.35-11.2 2.85-3.7 1.5-4.75 1.1-1.1-.45-.8-3.4.65-5.75 4.6-10.2m-19 35.65q-1.85 3.05-2.6 7.25-.65 3.75-.1 4.05.3.1 5.85-3.05 6.25-3.55 9.35-4.4l.4-.7.25-1.85q0-1.95-.85-3.6-1-2-2.95-2.75-1.9-.75-4.7.75-2.85 1.5-4.65 4.3m-.7 12.05q-2.5 1.55-3.2 1.05-.65-.5-.55-3.55.25-5.35 2.75-9.55 2.15-3.55 5.65-5.85 3.05-1.9 6.05-.75 2.55 1 3.85 3.55 1.1 2.15 1 4.6-.1 3.3-1.85 3.9-6.5 2.1-13.7 6.6m176.55-248.2q-.8-1.25-.7-1.7.05-.45.75.3l2.65 3.45q12.25-38.85 11.9-40.25-.4-1.65-28.15 20.85l.95 1q.9 1.1.9 1.55 0 .45-1-.15l-2.7-1.65q-3.35-1.9-10.2-3-9.8-1.55-17.2 1.45-2.65 1.1-1.95-.15l1.2-1.2.9-.6q-27.1-14.8-38.55-20.85-15-7.9-15.5-7.4-.8.75 9.75 21.75 10.95 21.9 17.25 30.9.45-.75 1.05-1.55 1.15-1.65 1.9-2.05.75-.4.1.8l-2.6 4.4q-3.15 5.35-5.9 14.25-2.35 7.7-2.35 10.15 0 2.1.65 3.3.8 1.35 2.4 1.4l19.25 1.95q16.8 2 20.9 3.35 1.25.4 2.4 1.65l-.3.7-.45.35-.95-1-1-.8q-3.85-1.3-20.75-3l-19.3-1.65-2.05-.2q-.8-.3-1.4-1.3-.85-1.5-.85-3.85 0-4.25 1.9-10.5 2.15-7 6.1-14.6-10.05-14.6-19.65-35.2-8.8-18.85-7.6-20.5 1.4-2.05 20.35 7.9 11.25 5.95 37.15 20.9 7.9-2.15 16.5-.55 4.65.85 9.05 2.8 28.1-23.4 31.2-21 .55.45-3.65 14.95l-8.35 28.45q6.4 10.05 9 14.95 4.95 9.1 4.2 12.05-.25 1.05-2.9 2.2l-6.35 2.35q-10.9 3.95-11.4 5.75l.4 8.1.45 9.3q0 5.75-1.5 7.75-1.85 2.5-4.25 4.15-2.6 1.75-4.75 1.75-1.95 0-6.4-3.25-4.25-3.15-5.3-4.95-.85-1.5-1.45-5.1l-.9-4.6q-.6-2.3-2.45-6.3l1.2-.8q2.6 5.45 3.75 12.25.45 2.8 1.15 3.9.8 1.4 5.1 4.5 4.4 3.1 5.8 3.1 1.35 0 3.5-1.7t4.15-4.35q.95-1.25.95-6.35-.5-16.7-.35-17.6.45-1.75 3.65-3.45 2.3-1.2 8.2-3.35l5-1.9q2.55-1.1 3-1.75l.1-.4q0-4.75-15.65-30.1"/><path fill="#0d131a" d="M127.2 108.3q-1-1-.6-.95.4 0 1.9 1.15l14 10.65Q154.85 129 154 130.9q-2.05 4.4-4.3 7.15-1 1.2-1.3 1-.3-.15.45-1.4l3.75-6.9q.5-1.1-11.9-11.4l-13.5-11.05m79.1 23.8q-.25-2.15 2.65-7 2.7-4.6 5-6.5 2-1.65 2.1-1.45l-1.5 1.95q-3.45 3.95-5.5 7.7-1.9 3.5-1.85 5.45.05 1.15-.35 1.2-.4 0-.55-1.35m-44.15 17.05l1.15.5q-.9 2.1-1.35 5.4-.45 3.35-.1 5.65l-1.5-.75q-.4-2.5.25-5.75.5-2.7 1.55-5.05m39.15 19q.15-2.8 2.3-7.3 2.35-5.05 5.35-7.85l1.25-1.05-.85 1.3-.6.8q.7.6 1.55 2.25 1.05 2 1.55 4.2.65-.4.8-.2l-1 1.05q-4.65 3.7-9.35 7.35-.2.75-.9 11.7l-.85 10.55q-.25 0 .75-22.8m3.95-8.35q-1.8 3.75-2.45 7.05l8.1-5.85q-.1-1.45-1.15-3.75l-1.45-2.65q-1.65 2.25-3.05 5.2"/><path fill="#0d131a" d="M173.6 164.75l10.05 3.3q1.45.4 1 .65l-1.6.05q-2.4-.45-11.55-3.8-9.2-3.35-12.95-5.2-1.4-.65-1.2-.9l1.55.35q6.55 2.65 14.7 5.55"/><path fill="#0d131a" d="M193.8 195.7q.4 2.15.1 1.85l-.7-1.75-4.95-17q-2.2-7.05-3.7-9.4-4.85-7.65-11.65-13.2-6.55-5.35-15.3-9.1-.95-.4-1.05-.8l1.25.05q9.1 3.2 16.4 9.1 7.1 5.75 11.6 13.4 1.9 3.2 4.5 12.3 2.25 7.9 3.5 14.55m-.35 6.65q.9-1.65 1.95-1.9 1.3-.4.3.75l-.8 1.15-.9.7-.6-.1q-.15-.2.05-.6m6.85-1.75q-.3-1.25.65-.45l.75.85q.4.65.4 1.15l-.15.6q-.1.05-.45-.25-.8-.6-1.2-1.9m-9.65-64.65q-1.4-2.25-1.6-2.05l-1.2 2.2-1.2 2.25-3 .95q-2.6.75-2.3 1l3.95 3.4.15.2-.25 2.45q-.2 2.4 0 2.3l5.35-3.85q5.05 2.85 5.5 2.75.4-.1-1.5-5.35l1.95-2.2q.25-.25-4.55-1.8l-1.3-2.25m-11.1 4.6l-.7-.9q.1-.25.95-.6l2.75-.85 3.15-.75 1.2-2.5 1.4-2.65q.35-.65.75-.55l.85.75 2.9 4.7q5.75 1.85 5.85 2.3l-1.15 1.5-1.55 1.5q2.5 7.15 2.05 7.45-.3.2-3.6-1.6l-3.7-2.05q-6.35 5.05-6.85 4.85-.35-.1-.05-3.3l.35-3.55-4.6-3.75"/><path fill="#0d131a" d="M181.85 177.2q1.2-.6 1.35-.15.15.4-1 .95-2.85 1.3-8.6 5.15-8.4 5.65-15.7 12.45-22.25 20.6-26.05 43.55 1.55-2.3 3.25-4.4l1.6-1.75.9-1.7q.8-1.05.35 2.35-1.05 7.45-1.05 14.35-.05 7.25 1.1 11.25 1.05-17.5 14.55-41.7 14.55-26.15 31-35.1 1.35-.75 1.45-.4.05.35-1.1 1.05-15.95 9.8-29.55 34.85-11.6 21.5-14.85 39.95-.6 3.45-1.15 3.65-.65.25-1.9-3.65-1-3.2-1.05-10.3-.05-6.65.65-11.7l-3.45 4.4q-1.85 2.8-2.3 2.35-.35-.35.1-3.4 2.85-19.25 17.7-36.4 13.75-15.85 33.75-25.65m24.25 1l.45-.6q17.3 6.6 29.05 19.85 12.75 14.45 11.2 29.15-.15 1.6-.6 1.55-.4-.1-.85-1.4l-2.4-5.9q.55 7.4-2.35 13.85-1.15 2.6-1.55 2.35-.35-.15-.8-3.35-1.95-13.6-7.85-25.35-8.95-17.9-24.7-25.4l-.45-1.3q17.4 8.35 26.75 27.4 6.1 12.4 7.55 25.75 1.6-5.25 2.05-12l-.25-3.4q-.35-2.4-.9-3.9-2.35-6.7 1.4-.1 2.3 4.4 4.05 9.45-.6-14.55-13.65-28.7-11.85-12.9-26.15-17.95m-35.4-17.5q0 1.6-.4 2.4l-.7.65q-1.05 0-1.05-3.15 0-1.65.4-2.95.35-1.2.75-1.2t.7 1.25l.3 3m35.6 3.05q0 1.85-.65 1.85-.75 0-.75-1.85l.2-1.85q.2-.75.5-.75t.5.75l.2 1.85m86.55 45q.1-.15.6.15l1.4 1.5q.9 1.1 1.25 1.9.45 1.2 1.7 1.95 1.4.85 4.15 1.35l.3 1.5-1.6-.2q-1.85 1.75-3 4.15-1 2.1-1 3.7 0 .65.15 1 .6 1.05 9.4-.6l2.2-.35q2-.3 5.1 1.45 2.85 1.6 4.4 3.5 2.4 3 1.75 10.15-.6 7.05-3.25 9.6v-1.2l-.1-1.25.5-1q2-4.7 1.7-9.4-.2-3.9-1.55-5.5-1.4-1.8-3.8-3.4-2.8-1.85-4.5-1.6l-6.45 1q-6.55.75-7.15-.7-.8-1.85.5-4.75 1.2-2.75 3.7-5.25-3.2-.65-4.3-3.35-.8-2.05-1.95-3.8l-.15-.55"/><path fill="#0d131a" d="M303.1 242.8q-1.1 0-1.8.65-.55.5-1.35 1.95-1.3 2.2-2.35 3-3.45 2.8-9.25 4.25-7.5 1.9-11.05-1.75-6.05-1.4-19.2 3.55-9.35 3.4-12.95 3.9-3.15.4-5.5-1.55-2.3-1.95-3.2-5.55-1.05-4 .6-7.5 1.85-3.95 6.75-5.9l2.45-.95q2.85-1.1 9.9-3.65 6.2-2.35 8.55-4.05l-.45-2.7q-.45-1.75-.95-2.25-1.85-1.7-3.25-3.6-1.6-2.25-1.9-4-.4-2.15-.3-3.4.15-1.45 1.05-2.5l.05 1.35q.1.55.55 1.3-.1 1.45.2 3 .25 1.4 1.4 3.35 1.25 2.05 2.9 3.6.65.65 1 1.7.45 1.35.7 4.1.15 1.95-.05 2.9-.25.9-.5.2l-.25-1.7q-2.65 1.85-8.3 4.3l-9.65 3.8-2.45.95q-4.05 1.6-5.55 5-1.25 2.8-.45 5.9.65 2.6 2.45 4.25 2.05 1.85 4.7 1.5 3.3-.4 11.8-3.6 6.25-2.35 9.3-3.2 5.1-1.45 8.55-1.3l-2.65-2.9-4-3.4q-2.25-2.1-2.55-5.1-.15-1.85.35-1.8.45.05.7 1.75.2 1.5 1.5 3.1 1.05 1.35 3.4 3.3l2.8 2.45 4.3 4.05.1.05q3.15 2.35 9.2.8 4.8-1.25 7.25-3.25 1.85-1.4 2.6-2.75.95-1.7 1.75-2.35 1.2-1.15 3.05-1.15.05-.95.65-1.9l1.35-1.75q1.4-2 1.4-4.2 0-.75.35-1 .35-.35.65.6l.35 2.25q-.05 1.35-1.1 2.85-1.95 2.85-1.65 5.05.3 2.1 2.4 2.95l-.1.9.2.9q-3.5-1.8-4.5-4.8"/></svg>