<svg xmlns="http://www.w3.org/2000/svg" width="398" height="342" viewBox="-1.8 -0.75 397.65 342.0"><path fill="#d7a400" d="M142.5 123.5l14.55 9.1q-5.3 3.1-15.75 14.4l-12.05 13.35q-1.3 1.3-3.1-1.25-1.6-2.25-2.8-6.3-1.25-4.1-1.15-7.1.15-3.4 2.05-3.55 3.55-.3 10.85-8.65 6.3-7.25 7.4-10"/><path fill="#b08600" d="M157.05 132.6q-4.95 2.85-14.9 13.45 2.25-6 2.2-10.4 0-5.55-3.4-9.65l1.55-2.5 14.55 9.1"/><path fill="#d7a400" d="M203.55 226q-5.8 5.45-11.15-2.85-1.65-2.65-3.1-6.3l-1.1-3.15q3.05 0 10.3-3.1 8.15-3.45 10.9-7 1.75-2.25 3.6-2.9l5.05.2q3.9 1.3 7.9 5.8 4.5 5.1 2.3 8.45-.6.9-3.4 1.7l-6.2 1.55q-9.75 2.55-15.1 7.6m90.5-1.9q-7.7-8.3-16.4-12-6.2-2.65-9.55-2.1l11.85-17.75q2.1 5.25 7.9 9.1 8.75 5.75 23.95 6.35 8.1.35 8.7 4.75.55 3.9-4.4 8.6-4.95 4.7-11 6-6.95 1.5-11.05-2.95"/><path fill="#b08600" d="M220.05 202.25q3.95 1.95 6.75 5.3 3.65 4.35 1.45 7.6-.6.9-3.4 1.7l-6.2 1.55q-9.75 2.55-15.1 7.6-3.3 3.15-6.6 1.65-2.55-1.2-4.95-5.2 10.85-3.6 17.05-7.85 7.7-5.25 4.9-9.7-2.7-4.3.15-4.45 2.1-.1 5.95 1.8m59.9-10q.9 2.25 4.25 5.5 3.85 3.75 8.5 6.15-3.8 6.1 2.15 11.3 4.8 4.2 17.45 8.8-4.85 3.05-9.5 3.35-5.4.35-8.75-3.25-7.7-8.3-16.4-12-6.2-2.65-9.55-2.1l11.85-17.75"/><path fill="#d7a400" d="M210.75 197.7q-1-2.05 1.55-7.95 2.55-5.95 5.3-8l53.7-10.45 4.35 2q4.4 2.2 4.75 3.45l2.65 8.5q1.75 7.2-.85 8.35-2.95 1.3-7.35 14-4.55 13.15-8.1 15.6-6.8 4.65-21.5 4.45-15.05-.25-15.4-5.8-.25-4.65-9.2-13.95-9.2-8.8-9.9-10.2"/><path fill="#b08600" d="M239.55 197.5q-.95-4.35.25-4 2.55.85 15.1-4.2 10.85-4.35 15.2-6.95 2.4-1.45 1.3-4.2-2.1-5.45-2.25-6.45l2.15-.4 4.35 2q4.4 2.2 4.75 3.45l2.65 8.5q1.75 7.2-.85 8.35-2.95 1.3-7.35 14-4.55 13.15-8.1 15.6-4.1 2.8-12.75 3.9-8.4 1.1-15.35 0 6.4-3.1 3.2-19.25l-2.3-10.35"/><path fill="#a4725d" d="M165.95 84.75q7.7 15 11.55 26.25 12.3 36.15-18.65 22-17.35-7.95-24.05-19.1-5.75-9.55-2.9-19.85 2.5-9.2 10.6-15.65 7.95-6.35 16.5-6.35l6.95 12.7"/><path fill="#a4725d" d="M191.9 162.65q-4.1-2.05-9.8-13.65-8.65-17.6 8.15-32.6 15.05-13.45 41.35-18.2 26.6-4.8 44.35 3.25 20.2 9.15 17.25 31.55-1.1 8.45-5.75 13.05-5.15 3.65-6.6 5.1-3.9 3.95-5.45 7.05-3.3 6.4-3.25 16.2-7.8 7.6-29.85 10.3l-15.4.7q-6.75-.45-7.5-2.25-2.3-5.4-7.95-11l-5.25-4.5q-11.4-3.55-14.3-5"/><path fill="#815847" d="M185.45 155.3q-1.95-3.4-3.35-6.3-8.65-17.6 8.15-32.6 15.05-13.45 41.35-18.2 26.6-4.8 44.35 3.25 20.2 9.15 17.25 31.55-1.1 8.45-5.75 13.05-5.15 3.65-6.6 5.1-3.9 3.95-5.45 7.05-3.3 6.4-3.25 16.2l-1.9 1.7q-3.6 2.95-5.85 3.6-6.65-10.25-10.85-15.2-7.2-8.55-13.35-10.45-10.75-3.25-29.85-3.8-22.1-.7-24.9 5.05"/><path fill="#a4725d" d="M301.15 79.2q5.4 4.2 7.95 10.6 2.2 5.4 1.55 9.8-1.45 10.25-4.45 18.95-4.05 11.8-9.35 15.2-5.1 3.25-21.9 4.8l-20.25 1q-3.75 0-9.5-8.7-4.8-7.3-5.75-10.9-6-7.15-6.65-16.1Q231.55 86 258.35 77.1q28.1-9.35 42.8 2.1"/><path fill="#815847" d="M258.35 77.1q7.8-2.55 14.5-3.5-5.4 6.75-5.85 18.1-.15 4.95 1.25 7.35 1.65 2.7 4.85 1.25 2.15-.95 7.65-4.45 5.6-3.55 8.9-5.1 11.4-5.3 19.9.3 1.6 4.75 1.1 8.55l-.55 4.85q-.35 3.25-.9 5.5-1.85 7.95-4.85 14.1-3.45 7.15-7.5 9.7-5.1 3.25-21.9 4.8l-20.25 1q-3.75 0-9.5-8.7-4.8-7.3-5.75-10.9-6-7.15-6.65-16.1Q231.55 86 258.35 77.1"/><path fill="#c8c9ca" d="M222.15 275.35q2.3.45 6.25 3.15 4.35 2.9 2.85 4.15-2.3 1.8-7.3 2.25l-1.8-9.55"/><path fill="#d7a400" d="M160.75 284.7q8.5-6.95 9.05-9.15.55-2.2-2.05-12.7l-3.45-13.7q-.55-3.1-.1-5.3l.55-1.55 6.15-2.9q7.45-3.3 13.7-5.3 20-6.4 20.85 2.6 1.1 11.5 2.15 16 1.3 5.35 4.25 8.6 2.05 2.3 9.45 9 6.15 6 5.4 7.9-1.1 2.85-1.8 6.3-.7 2.4-3.2 3.8-3.35 1.85-9.65 6.45-6.65 4.95-8.6 7.2l-6.05 11q-4.7 8.6-7.15 8.6l-9.2-.85q-6.25-1.4-7.15-4.65-.85-3.1-.3-6.85l.75-3.15-2.8.25q-3.05.45-4.5 1.55-2.6 2.1-6 3.25-4.5 1.6-6.3-.5-2.2-2.6-3.9-9.25-1.8-6.9-.2-8.5l10.1-8.15m183.4-51.05q1.7 1.75 3.85 8.25 2.2 6.65 3.9 15.45 1.75 9.1 4.35 12.45 2.9 3.6 10.2 5.3 7.85 1.75 11 3.3 3.55 1.75 5.85 5.35 2.2 3.5 1.35 11-.8 7.05-2.75 8.55-1.85 1.55-4.9 2.4l-6 .35q-6.5-1.8-11.4-2.9-9.3-2.05-12.75-1.2l4.8 8.35q1.6 3.75.7 9.4-1.1 6.85-4.15 9.15-3.5 2.65-11.35 1.35-7.45-1.25-11.7-6-3.4-3.8-4.25-9.05-.6-3.8-6.65-12.2-4-5.6-8.35-10.55-1.8-2.05-1.15-14.75.8-15.15.25-18.5-.65-3.9-3.15-12.4-1.9-6.4-1.4-7.6l43.7-5.5"/><path fill="#b08600" d="M161.6 310.9q-4.15 1.6-6.2.25 1.2-1.05 3.6-7 2.1-5.25 4.95-6.3l11-3.5q7.1-1.95 6.05-.55l-3.8 5.65-4 6.65q-4.25.25-6.15 1.75-2.25 1.85-5.45 3.05m2.55-66l.6-2.6 6.15-2.9q7.45-3.3 13.7-5.3 20-6.4 20.85 2.6 1.1 11.5 2.15 16 1.3 5.35 4.25 8.6 2.05 2.3 9.45 9 6.15 6 5.4 7.9-1.1 2.85-1.8 6.3-.7 2.4-3.2 3.8-1.6.85-5.1 2.85-4.35 2.55-5.7 3.45 1.1-5.5.25-8.15-.6-1.8-3.15-3.95-7.15-6.1-10.5-17.2-3.5-11.5-13.75-15.6-9.55-3.8-19.4.55-.65-2.3-.2-5.35m180-11.25q1.7 1.75 3.85 8.25 2.2 6.65 3.9 15.45 1.1 6.1 2.5 9.2-6.45-2-10.9-7.4-4.65-5.6-9.1-7.25-10.1-5.45-15.25-6.1-8.95-1.2-15.1 11.4l-2.2-9.7q-1.65-7.75-1.4-8.35l43.7-5.5m1.4 54.65l15.2.75q9 1.05 9 3.3 0 5.25 1.25 7.4 2.65 4.6 11.05 3.4l-.15.15q-1.85 1.55-4.9 2.4l-6 .35q-6.5-1.8-11.4-2.9-9.3-2.05-12.75-1.2l4.8 8.35q1.6 3.75.7 9.4-.7 4.5-3.95 1.2-3.35-3.4-2.85-4.95.65-1.25-.6-5.65l-2.5-8.7q-3-11.75 3.1-13.3"/><path fill="#eeeeef" d="M157.75 301.5q3.75 6.85 2 8.2-2.7 2.1-17.75 6.35.75-7.35 2.9-12.8 2.55-6.45 6.2-7.65 2.9-1 6.65 5.9"/><path fill="#c8c9ca" d="M149.45 313.85q2.5-5.75 8.8-11.35 1.25 2.5 1.7 4.5.5 2.15-.2 2.7-1.9 1.45-10.3 4.15"/><path fill="#eeeeef" d="M177.5 309.7q2.7-2.4 6.6 3.15 3.4 4.75 3.9 8.2.3 1.95-5.8 5.9l-8.8 5.5q-2.1-6.35-.05-14.15 1.7-6.45 4.15-8.6"/><path fill="#c8c9ca" d="M188 321.05q.3 2.15-7.2 6.8.7-6.25 4.6-13 2.2 3.85 2.6 6.2"/><path fill="#eeeeef" d="M343.25 313.8q7.95 3.95 9.2 13.35 1.1 8.2-2.4 11.7-1.85-1.85-7-5.2-4.1-2.65-8-4.85-1.45-.8-1.1-3.65.3-2.55 1.9-5.6 3.9-7.5 7.4-5.75"/><path fill="#c8c9ca" d="M346.1 315.6q4.6 3.6 6 9.75 1.2 5.2-.15 9.85-.65-3-3.05-9.8-2.2-6.25-2.8-9.8"/><path fill="#eeeeef" d="M382.4 285.55q2.85.95 7.55 8.15 5.3 8.15 3.8 13.25-3-1.2-6.7-2.05l-10.15-2.05q-6.1-1.2-1.8-9.7 1.6-3.2 3.85-5.55 2.3-2.4 3.45-2.05"/><path fill="#a4725d" d="M157.05 225.95q.7-6.15 8.45-14.05 8.15-8.25 15.65-9.2 2.1-.25 5.05 5.15 4.1 7.45 5.45 8.95 3.65 4.15 7.7 6.7 4.35 2.75 7.3 2.45 2.1 3 1.25 6.8-.7 3.15-2.15 4.1-1.1-.75-2.55-1.25-1.6-.55-2.9-.55-4.3 0-11.7 4.15-7.15 4-9.25 7.2l-3.1 4.95q-1.55 1.35-5.1-2.2-6.2-6.2-9.45-10.75-5.25-7.4-4.65-12.45"/><path fill="#815847" d="M206.65 225.95q2.1 3 1.25 6.8-.7 3.15-2.15 4.1-1.1-.75-2.55-1.25-1.6-.55-2.9-.55-4.3 0-11.7 4.15-7.15 4-9.25 7.2-1.05 1.55-2.1 1.8-1.3.3-2.15-1.4-1-2.05-1.65-6.15-.75-4.55-.35-7.65 1-7.7 9.8-12.75 4.45-2.55 8.75-3.45 3.65 4.15 7.7 6.7 4.35 2.75 7.3 2.45"/><path fill="#a4725d" d="M334.1 205q8.45 3.95 11.25 14 1.7 6.2 1.05 12.85-.35 3.75-5.4 12.75-5.15 9.2-6.4 7.25-1.75-2.6-10.6-6.8-9.85-4.7-15.35-4.1-5.65.6-10.4-5.45-4.35-5.6-3.75-10.05 1.6-.95 3.85-4.6l4.45-7.55q6.45-10.45 13.7-12.45 2.85-.8 6.85.1 4.1.95 10.75 4.05"/><path fill="#815847" d="M334.1 205q8.45 3.95 11.25 14 1.7 6.2 1.05 12.85-.35 3.75-5.4 12.75-5.15 9.2-6.4 7.25-1.25-1.85-7.4-5.2-6.75-3.65-12.5-5.1 6.15-1.45 8.35-2.65 4-2.2 6.25-7.35 2.4-5.4-.8-15.4-3.35-10.45-9.75-15.65 5.05-.3 15.35 4.5"/><path fill="#b08600" d="M311.2 117.9q-.8 1.4-2.7 6.95-1.95 5.55-3.4 8.1-4.95 8.65-12.85.5-3.4-3.5-5.8-6.85-3-4.3-2.4-5.85l3.5-9q4.25-8.65 8.1-6.9l11.5 5.2q6.4 3.75 4.05 7.85"/><path fill="#a4725d" d="M71.9 134.75q5.8-2.65 9.55-.8 3.75 1.85 15.2 2.4 9.4.45 18.5-.1 6.15.2 10.4 4.15 3.75 3.45 5.3 8.95 1.4 5.2.4 10.05-1.05 5.05-4.25 7.35-3.2 1.6-14.85 4.6Q100 174.5 95.9 176.3q-9.35 4.15-15.2 4.65-9.45.85-12.45-6.9l-3.15-33.7q1.55-3.15 6.8-5.6"/><path fill="#815847" d="M65.1 140.35q.6-1.25 2.2-2.6 1.6-1.4 3.65-2.5 9.8-1.8 14.6 13.1 1.7 5.35 2.3 11.5.55 5.35 0 7.65-.8 3.45 1.1 4.3 1.3.65 3.2-.05 1.55-.55 6.35-1.95 5.95-1.75 12.35-3.35l10.6-2.25q5.2-1.05 9.25-2.8-1.25 3.55-3.7 5.35-3.2 1.6-14.85 4.6Q100 174.5 95.9 176.3q-9.35 4.15-15.2 4.65-9.45.85-12.45-6.9l-3.15-33.7"/><path fill="#d7a400" d="M54.25 128.55q2.45 1.55 6.75 7.7 2.35 3.45 7.55 6.95 5.2 3.5 7.9 3.5 3.9 1.35 5.3 10.55 1.35 9-1.2 12.25l-16.7 5.05q-9.8 2.9-11.4 3.55l-12.5-49q8.55-4.15 14.3-.55"/><path fill="#b08600" d="M62.55 157.9q3.05 2.15 6.95 2.1 3.8-.05 6.8-2.2 3.15-2.25 4.1-6.05 1.65 4.45 1.7 10 .1 5.6-1.55 7.75l-16.7 5.05q-9.8 2.9-11.4 3.55l-5.75-22.5q.85.4 5.6-2.2 4.8-2.55 5.65-2.2 1.25 4.35 4.6 6.7"/><path fill="#c6dcdb" d="M3 98.3q-3.2-11.85.05-22.25 3.2-10.2 10.6-12.65 8.8-2.9 17.95 4.4 8.35 6.7 10.55 15.9 3.1 12.95.2 22.85l-2.3 6.8q-1.15 3.6-.9 6.5.65 8.1 6.85 32.75 6 23.75 8.6 29.6 1.65 3.75 5.2 8.05 3 3.65 3.45 5.65.6 2.75-6.7 3.15-6.65.4-10.15-.9-2.4-.9-3.25-7.3-.35-2.85-.85-14.55-.3-7.55-5.85-27.15Q31.3 131 28.2 124.4q-1.15-2.45-4.8-4.95L16 114.9Q5.7 108.2 3 98.3"/><path fill="#a7bab9" d="M18.35 86.35q2.55-6.7 7.95-10.65 4.2-3.1 9-1.05 5.2 2.2 6.85 9.05 3.1 12.95.2 22.85l-2.3 6.8q-1.15 3.6-.9 6.5.65 8.1 6.85 32.75 6 23.75 8.6 29.6 1.65 3.75 5.2 8.05 3 3.65 3.45 5.65.5 2.1-4.1 2.9-7.6-8.8-16.1-8.95-.35-3.2-.75-13.55-.25-5.85-3.9-19.9-3.15-12.25-6.9-23.35 3.55-7.25-3-16l-5.7-7.1q-3.25-4.2-4.3-7.35-3.2-8.15-.15-16.25"/><path fill="#d7a400" d="M19.55 143.05q.3-3 4.5-6.25 2.8-2.15 6.9-4.2l3.75 10.75 6.25 1.1q5 .95 6.15 10.55.45 3.7-.1 6.35-.6 2.7-1.95 2.2-1.9-.7-10.75-2.7-9.2-2.1-11.1-2.75-2.7-.9-3.55-6.3-.55-3.95-.1-8.75"/><path fill="#b08600" d="M34.3 160.85q-9.2-2.1-11.1-2.75-1.45-.45-2.45-2.45l6.7.1 6.55-.3q7.1-1.4 9-10.05 3.75 2.9 4.25 11.1.2 3.25-.4 5.35-.6 2.15-1.8 1.7-1.9-.7-10.75-2.7"/><path fill="#d7a400" d="M34.1 185.85q-2.55 0-3.85-2.6-1.15-2.3-1.15-6.05 0-3.1 3.95-6.7 3.25-3 7-4.65l1.85 6.85q4.65-1.8 9.55-1.9 5.25-.1 9.55 1.85 4.3 2 2.4 7.45-1.95 5.4-6.5 5.75-3.65.3-12.25.15l-10.55-.15"/><path fill="#b08600" d="M34.1 185.85q-1.5 0-2.6-.95 8.95-1.8 12.35-3.9 5.25-3.35 2.9-9.45l9.4-.4q2.35.35 4.85 1.5 4.3 2 2.4 7.45-1.95 5.4-6.5 5.75-3.65.3-12.25.15l-10.55-.15"/><path fill="#d7a400" d="M47.3 131.7l1.05-.05q1.25 0 2.4.5 3.65 1.6 4.75 7.3l1.85 8.6q.3 2.7-.9 8.7-1.15 5.8-5.65 7.15-2.35.7-6.65.1-2.05-.3-2.65-6.85l-.55-12.7q-.35-6.05.8-8.25 1.05-2.05 5.55-4.5"/><path fill="#b08600" d="M55.5 140.45l1.55 7.35q.45 3.7-.6 8.95-1.15 5.8-5.65 7.15-2.35.7-6.65.1-1.95-.25-2.55-6 4.3 3.15 8.7-2.95 4.1-5.7 5.2-14.6"/><path fill="#e4eeee" d="M11.4 92.25q-2.25-.05-3.5-2.7-1.35-2.8-.9-7.15.4-3.95 1.95-6.75 1.75-3.2 4.05-2.9 2.65.25 3.75 3.55.9 2.6.75 6.7-.1 4.35-1.75 6.85-1.65 2.4-4.35 2.4"/><path fill="#0d131a" d="M127.8 141.9l-.9-.9-1.05-.75q4.75-2.1 9.4-7.95 3.55-4.45 6.35-10.1l1.95 1.7q-.75 2-5.7 8.1-5.8 7.2-10.05 9.9m30.9-9.4q-5.95 3.4-13.35 10.75-6.8 6.7-13.1 14.95l-.2-3.8q5.7-6.55 12.05-12.65 7.8-7.5 12.35-10.15l2.25.9"/><path fill="#0d131a" d="M130.15 95.75q2.1-9.95 10.8-17.1 8.55-7.1 18-7.1l.05 1.65q-8.6 0-16.25 6.8-7.7 6.8-9.65 16.1-2.2 10.65 4.65 20.05 6.85 9.35 21.55 15.8l-.35 1.3q-17.35-6.8-24.7-18.05-6.2-9.45-4.1-19.45m57.1 225.55v-.1q-.3-2.3-2.6-6.15-2.55-4.35-4.7-5.15-1.05-.4-1.95.35-2.95 2.6-4.25 11.75-1.3 8.75.15 9.25 1.2.3 7.25-4.15 6.1-4.45 6.1-5.8m39.15-38.15l-.15.6q3.05-.45 4.5-1.7l.1-.2q-.5-1.85-3-3.6l-.1.4q-.7 1.8-1.35 4.5M207 230.7q0-1.85-1.05-3.6-3.55-.05-7.45-2.25-4.05-2.35-8-6.75-1.05-1.2-2.3-3.65l-2-4.15-2.5-4.4q-1.45-2.15-2.4-2.05-7.15.9-15.05 9-7.4 7.6-8.05 13.2-.8 6.55 6.9 16.15 2.95 3.75 5.95 6.2t4.2 2.2q.8-.15 1.75-1.55l2-3.2q5.35-8 15.25-11.05 4-1.25 7.2-1.05 3.2.15 4.1 1.65.9-1.2 1.3-3.2l.15-1.5m-56.55 82.25q7.2-2.55 8.85-3.85 1.8-1.8-1.55-7.75-3.4-6.05-6.4-5.05-3.7 1.2-6.75 9.45-2.95 7.8-1.7 9.25.45.45 7.55-2.05m5.6-23.05q-2.85 2-3.95 3.15-.9.95-1 1.75 4.25-1 7.75 5.05 3.3 5.65 2.2 9.35l-.75 1.45 2.35-1.3q2.55-1.45 3.7-2.4 2.3-1.85 6.95-2 1.2-4.55 5-8.95 1.8-2 2.75-2.2 1-.25-1.6 3.15-2.65 3.55-3.8 7.65-.95 3.4-1.1 8.2 1.3-2.55 2.45-3.65 1.5-1.35 3.45-.65 2.5.9 5.35 5.4 2.5 4 3.4 7.45.8.2 1.95-.35l1.9-1.55q1.6-2.05 5.4-10.35 3.4-7.45 6.25-10.15 2.35-2.25 7.95-6.2 5.25-3.7 8.45-5.45 1.6-.85 2.2-1.95l.85-2.7.85-2.85q.6-2.1.35-3.1-.25-.95-7-7.35l-7.55-7.15q-3.5-3.85-4.8-17-.6-6.3-2.9-8.35-1.1-1-3.2-1-4.8 0-11.15 3.65-6.4 3.65-8.45 7.55-2.55 4.75-4.75 5.05-1.7.2-4.85-1.95-3.1-2.15-5.5-5.15-.35 3.4 2.1 11.5 2.1 7 3.2 12.65 1.05 5.65.6 7.55-.9 3.5-15.05 13.2m1.25-55.75q-2.5-4.65-2.05-8.35.75-6.55 10.1-15.1 9.4-8.65 16.4-8.95 2.25-.1 5.35 5.2l3.05 6.1q10-2.7 15.75-7.9l3.55-3.55q1.65-1.75 2.7-2.25l.65.85.75.85-3.25 3.25q-3.15 3.45-9.5 6.6-5.4 2.7-9.8 3.7 1.95 3.55 5.2 6.15 3.3 2.6 7.45 3.95 9.7-6.35 19.6-8.65 3.05-.65 3.75-1.25l1.35 2.5-4.6 1q-4.15 1-6.75 1.9-4.75 1.75-9.65 4.75 1.9 2.8 1.55 6.9-.35 3.9-2.3 5.6l1.35 9.95q.65 6.2 3.75 12.6.75 1.55 7.85 7.95 7.15 6.4 7.8 7.7 1.85 1.1 3.65 3.55 1.6 2.25 1.5 3-.1.95-2.2 2.1-2.05 1.15-4.8 1.8-1.3 2.6-3.25 3.55-4.6 2.2-10.25 6.25-5.65 4-7.5 6.35-1.9 2.45-3.65 6.65l-2.8 6.8q-3.4 7.4-9.4 7.45-1.9 2.45-7.5 6.25-6 4.05-7.7 3.45-2-.8-1.9-6.85.05-5.1 1.2-9.65-.55-2-.5-4.7 0-2.55.55-4.85l-2.9.7q-1.65.6-2.5 1.25-2.25 1.85-4.65 2.95-3.85 1.75-6.35.6-8.55 3.8-12.2 4.7-3.5.85-3.4-2.4.1-4.75 2.55-10.65 2.35-5.75 4.95-7.95-.05-1.15.35-2.3.35-1.1.95-1.7 2.1-2.05 11.7-8.55 7.55-5.05 8.1-7.5.5-2.1-2.85-14.3l-3.7-12.95q-.65-4.05.35-6.1-4.05-4.9-5.9-8.45m185.6 80.3q-1.3-.65-3.2 1.1-1.75 1.55-3.2 4.25-1.9 3.65-1.9 6.35 0 1.55.8 2 1.65.9 5.3 3.5l.2.1q8.55 6 9.05 5.95.65-.05 1.3-2.6.65-2.6.65-5.1l-.25-3.25q-1.45-8.65-8.75-12.3m39.25-28.2q-.6-.2-2.25 1.4-2.15 2.1-3.8 5.2-1.9 3.4-1.9 5.85l.2 1.25q.5 1.75 2.65 2.2l3.85.75 12.25 3.05q.55.15.1-2.25-.5-2.55-1.75-5.65-3.65-8.6-9.35-11.8m-36.6-48.2q-1.6 3.8-3.8 7.8-2.2 3.95-3.5 5.45l-2.55 2.5q-.75.15-3.05-1.7-3.85-3.15-10.2-6.3-8.6-4.25-13.7-3.7-3.1.35-6.75-1.7-.55.9 1.2 6.8 2.35 8 2.95 11.8.55 3.8-.05 15.6-.45 7.55-.35 10.7.1 3.9 1 6.35l7.65 10.1q7.05 9.05 7.65 13.25.6 3.65 2.6 6.65 3.05 4.6 8.85 6.5-.8-1.75-.7-4.1.05-2.7 1.2-4.9 1.75-3.2 4.35-5.35 3.05-2.5 5.15-1.45 4.85 2.45 7.55 7.85l.15-.7q.7-4.45-.1-7.35-.6-1.95-3-5.9-1.55-1.7-2.9-4.3-2.75-5.2-1.8-9.5 1.3-6.05 2.1-.55l.5 4.4q.35 2.3 1.45 4.35 3.15-.45 9.35.75 4.5.85 12.3 2.95l2.2.6 5.25-.3-1-.25q-1.35-.4-2.4-1.5-.95-1-1.25-2-.8-2.8 1.25-7.4 1.85-4.1 4.5-6.75 1.2-1.2 2.8-1.8l1.2-.4q-1.6-3.3-4.8-5-3-1.6-10.65-3.35-7.8-1.75-10.85-5.7-2.8-3.55-4.6-12.95-2.95-15.1-5.2-19.5m-4.55 4.1q4-7.6 4.25-10.4l.15-3.35q0-6.5-2-11.65-2.95-7.55-9.75-10.7-6.3-2.95-10.2-3.9l-6.65-.2q-4.9 1.4-9.2 6.55-2.55 3-6.4 9.75l-2.85 4.7q-1.45 2.1-2.7 3.05l.55 3.3q1.2 3.85 4.25 7 3.9 4 8.05 3.5 5.55-.6 15.25 3.85 8.7 4 11.45 7.2 1.8-1.2 5.8-8.7m-6.05-38.2q10.3 5.4 12.7 15.9 1 4.45.25 12.1l-.85 3.15q3.2 5.4 6.35 20.55l1.1 6.35q.6 3.35 1.5 5.2 2.35 4.9 10.7 6.75 8.05 1.8 11.2 3.35 3.85 1.9 6.35 5.8.9 1.4 1.2 2.95 4.05 3.5 6.35 7.5 2.85 4.8 3.75 11.2.3 2.35-.15 2.95-.35.5-2.05.45l-5.1-1-7.6-1.7q-3.8 2-6.5 2.35-2.75.4-6.15-.7-5.05-1.95-10.4-3.15-5.5-1.2-8.8-1.05l1.25 2.15q2.1 3.35 2.75 5 1.05 2.6 1.05 5.6 0 1.7-.4 4.25l-.25 2.15-.35 1.85.6 3 .45 3.25q0 6.25-1.9 9.55-.9 1.55-3 .55-1.2-.6-3.15-2.3-7.2-6.3-9.2-6.65-7.65-1.2-12.05-5.8-3.95-4.1-4.8-10.15-.65-4.45-7.9-12.95-7.7-9-8.4-11.15-.75-2.35-.25-11.2l1.1-16q.2-3.55-1.4-9l-2.45-7.4-1.7-6q-.4-2.35.55-3-2.55-1.45-4.5-5.75-1.95-4.35-1.45-7.6-1.75-2.25-5.1-5.05-6.65-5.6-14.45-8.3l.45-2.25q10.75 3 20.6 13.6l1.65-2.1 2.65-4.1q3.55-6.1 5.65-8.85-9.8-1.3-16.35-5.15-5-2.95-7.8-7.05l1.35-1.3q2.5 3.9 7.55 6.6 6.65 3.6 16.95 4.65 4.35-4.75 9.65-6.25 6.95-2 18.75 4.2M80.95 135q-1.5-.75-3.6-.8l-3.35.5q-2.7.9-5.05 2.9-2.05 1.7-2.85 3.25l-1.55-.95q1.2-2.4 3.2-4.5 2.5-2.65 5.25-3.55 4.85-1.6 9 .45 3.55 1.75 14.55 2.55 10.05.75 18.65.25 5.9.2 10.35 3.75 4.4 3.5 6.25 9.6 1.75 5.8.6 11.2-1.2 5.45-4.75 8.05l-.05.05h-.1q-2.2 1.15-6.5 2.4l-8.65 2.35q-8.2 2.1-16 5.5-7.2 3.2-11.65 4.3-6.85 1.65-11.2-.15-4-1.65-6.3-7.7l2.15-.85q1.6 4.05 5 5.45 3.85 1.6 10.1.15 4.5-1.05 10.95-3.95 4.2-1.85 16.4-5 11.3-2.85 14.55-4.5 1.95-1.45 3.05-4.25 1.1-2.8 1.1-6.2 0-3.05-.9-6.15-1.25-4.15-3.9-7.05-4.05-4.45-10.5-4.7-8.75.5-18.1.1-12.15-.5-16.15-2.5"/><path fill="#0d131a" d="M59.75 136.45q-3.65-5-6.35-6.55-5.55-3.25-13.25.45l-.6-2.8q7.4-3.6 13.65-.85 5.35 2.35 8.95 8.85 1.5 2.75 7.15 6.45 5.35 3.5 7.35 3.55l-1.95-3.1q-.9-1.15-.65-1.3.25-.1 1.25.75 6.7 6.05 8 15.9 1.4 10.85-6.15 16.8-.8.6-1.4.5-.65-.15.3-1.15L78.7 171l-8.45 3.2-6.55 2.55-1.15-2.45q6.6-2.4 17.25-5.8 2-3.15 1.3-9.6-.7-6.45-3.5-10.85-3.2-.2-9.6-4.5-6.2-4.15-8.25-7.1m-19.1 26.1l1.95 9.3-1.85.75-2-10.1 1.9.05"/><path fill="#0d131a" d="M29.8 67.8q-8.45-5.75-15.8-3.3-7.1 2.35-10.05 12.3-2.9 9.95.15 21.2 1.85 6.75 6.75 11.45 2.9 2.85 9.35 6.65l5.45 3.6q2.55 2.05 3.6 4.2 2.55 5.4 6.95 20.2l-1 .1-1 .1Q30 130.05 27.6 125q-.8-1.75-3.4-3.6l-5.2-3.3q-6.6-3.95-10-7.25-5.55-5.4-7.5-12.7-3.3-12.05.3-22.8 3.55-10.65 11.5-13.3 8.35-2.8 17.55 2.9 9.95 6.25 12.85 18.5 2.25 9.5 1.25 17-.5 3.95-2.9 10.5l-1.65 4.45q-.75 2.5-.6 4.5.45 5.6 2.7 15.65l-.8.75-.65.9Q38.4 125.35 38 119.95q-.2-2.4.4-5.05.4-1.65 1.5-4.75 2.1-5.85 2.5-9.95.8-7.1-1.4-16.2-2.45-10.25-11.2-16.2m19.85 95.9l2.25 8-2-.2-2-7.2q.9-.55 1.75-.6m-6.8 31.2q-.65-2.65-.85-8.8l1.9-.1q.75 10.25 2.9 11.1 2.6.95 7.95.9 5.65-.1 7.15-1.4l.25-.45Q61.9 195 61 193.7l-1.95-2.5-3.6-4.75 2-.45 3.65 4.35q3.05 3.8 3.35 5.2.4 1.6-.95 2.7-2.1 1.9-8.85 2.05-6.05.1-8.9-.95-2.1-.8-2.9-4.45"/><path fill="#0d131a" d="M26.45 144.05q1.95-.8 5.85-1.1l8.05.25v2.3q-7.45-1.25-13.6-.2l-1.6-.2q-.25-.4 1.3-1.05"/><path fill="#0d131a" d="M18.3 142.5q.3-3.2 4.35-6.6 3.1-2.65 7.95-5.1l.85 2.85q-4.9 2.45-7.7 4.95t-3.05 4.6q-.5 5.1.45 9.35.95 3.95 2.4 4.45l10.25 2.55 4.05.9 3.9.45q.3 1.4 1.25 2.9-3.6-.45-10.7-2.2-6.35-1.6-9.65-2.7-2.85-.95-3.95-5.85-1-4.35-.4-10.55m14.2 27.05q3.5-3.3 7.3-5l.7 2.35q-3.6 1.6-6.7 4.45-3.55 3.3-3.55 5.85 0 2.5.6 4.4.95 3.1 3.25 3.1l9.7.15 13-.15q2.1-.15 3.6-1.85 1.35-1.6 1.75-3.85.25-1.35-.2-2.85-.6-2-2.2-2.75-2.75-1.25-10.4-.85-7.35.35-10.25 1.65-1.75.8-2 .4-.3-.4 1.7-1.5 3.55-2.05 10.85-2.6 7.6-.55 11.4 1.35 2 1 2.95 3.1.9 2.1.45 4.6-.5 2.95-2.45 5-2.05 2.2-5 2.4-2.8.2-12.9-.25l-9.55-.5q-3.05 0-4.8-2.35-1.75-2.4-1.75-6.45 0-3.65 4.5-7.85"/><path fill="#0d131a" d="M41.2 135.5q1.7-2.95 5.9-4.05l2.2-.05q.5.4-1.45 1.3-3.35 1.5-4.5 3.6-1.45 2.55-1.25 8.05.45 15.95 1.65 18.05 1.4 2.35 5.75.9 4.75-1.6 5.8-6.8 1.1-5.6.4-11.1-.45-3.45-1.3-5.6-.4-1.05-.1-1.2.3-.1 1.2.85 1.4 1.4 2.15 7.15.75 6.1-.15 10.6-1.35 6.65-7.4 8.2-5.6 1.4-8.1-1.9-1.25-1.65-2.2-19-.35-5.95 1.4-9m172.25 54.75q-2.4 5.45-1.65 6.95.3.65 4.5 4.75 6.6 6.35 9.55 9.95 4.95 6.05 5.15 9.85.15 1.5 2.45 2.7 5.45 2.65 16.6 1.9 11.2-.75 16.05-4.1 2.05-1.45 3.95-6.35l3.15-9.25q4.2-12.2 8.55-14.1 1-.4.85-2.95-.2-3.6-2.8-11l-.5-1.5q-.25-.85-1.95-1.75l-4.05-1.9v.95q0 1.45-4 4.1-4.5 2.95-10.95 5.15-17.65 6.1-35.65 2.35-3.35-.65-4.1-2.6l-.35-.7q-2.4 2.05-4.8 7.55M257.4 78.3l1.25-2.65q12.2-4.9 23.7-3.65 10.65 1.1 18.3 7.15 5.95 4.65 9.5 11.15 3.35 6.1 2.8 10.2l-.45 4.55q-.4 3.95-1.25 6.95l1.2.95.5.85-.8 1.7q-2.7-1.85-6.1-3.9-6.75-4.05-12.05-5.8-3.8 1.95-6.35 6.3-2.4 4.1-2.85 8.85.95 2.4 4.8 7.55 4.15 5.55 6.8 7.45-1.8 1.5-2.8 1.75-.55 2.75-3.7 6.5-3 3.65-6.65 6.2-3.55 2.55-6.25 8.15-2.75 5.75-3.6 12.75 2.85.6 5.1 2.15 2.1 1.45 2.85 3.1 2.85 5.85 3.35 11.55.45 5.4-1.3 6.3-1.7.9-3.8 4.95-1.85 3.5-3.55 8.35l-3.35 10.05q-2.05 5.2-4.5 6.9-4.9 3.35-17.1 4.05-12.4.7-18.5-2.3-3.7-1.8-3.9-4.5-.3-5.75-13.5-18.55-5.25-5.05-5.45-6.05-.45-2 1.85-7.35 2.6-6.05 6.15-8.95-2.6-5.35-12.1-12.3l-6.9-1.65q-6.5-1.6-8.2-2.45-1.8-.9-4.1-4.7l-4.4-8.15 1.9-1.75 4.3 7.1q2.5 3.65 4.15 4.5 6.1 3.05 11.75 4.2 5.9 1.25 5.75 2-.05.35-1.3.45l4.7 4q4.85 4.9 7.15 10.45l3 1.1q10.9 3.8 29.7-1.1 7.5-1.9 12.65-4.45 5.2-2.55 5.2-4.35.1-8.35 2.75-14.4 2.65-6 8.25-10.9 7.2-6.2 9.55-11.65-4.85 1.25-17.05 2.6l-18.4 1.1q-4.45-.3-11.05-9.45-5.6-7.7-6.4-11.05l1.95-.5q.75 3.15 6.35 10.25 6.1 7.8 9.25 7.8 8.55 0 16.25-.45 12.15-.65 18.75-2.3-5.6-6.7-7.2-10.4-.1.95.1 3.1.2 1.6-.2 1.65-.8.2-1.25-3.25-.85-5.7 1.4-11.25 2.6-6.4 8.75-10.55.85-.65 2.8-1.6 2.05-1.05 3.25-1.4.75-.2 1.15.25.45.45-.1.85l-4.3 2.35q9.2 3.55 13.15 5.9.4-1.85.5-5.65.05-4.25.25-5.5.5-3.7-2.15-8.85-2.9-5.6-8.1-9.65-6.15-4.8-15.2-6.25-12.5-2.05-26.65 3.6"/><path fill="#d7a400" d="M349.55 171.7l9.15 25.1q-4.6 4.6-15.4 3.6-10.35-1.05-19.2-6.35-8.55-5.15-14.05-12.75-5.5-7.65-4.15-12.75-2.3-3.05-2.9-4.6-1-2.45-2.55-10.4-1.15-5.75-4.95-14.6-3.25-7.5-3.25-10.45 0-4.25 2.9-9.15 2.8-4.7 5.3-5.4l11.8-2.75 16.5 20.7 20.8 39.8"/><path fill="#b08600" d="M349.55 171.7l9.15 25.1q-2.8 2.8-8.25 3.5l-11.35-.55q-3.05-14.15-13.8-25.9-10.1-11-24.2-17.15l-.65-3.15q-.95-4.5-2.7-9.1 5.55-5.35 6.6-14.15.95-8.5-2.6-16.7l10.5-2.4 16.5 20.7 20.8 39.8"/><path fill="#a4725d" d="M336.1 184.8l2.15 1.9q1.4 1.15 2.95 1.7 4.5 1.45 13.9-1.55l1.4 11.1q-4.5 4.55-14.3 3-8.9-1.35-18.1-6.9-8.45-5.05-13.85-12.2-5.5-7.3-4.55-12.4l7.85 5.8q3.15 2.15 8.8 4.15.9.3 6 2.65 3.9 1.8 7.75 2.75"/><path fill="#815847" d="M328.35 182.05q3.9 1.8 7.75 2.75l2.15 1.9q1.4 1.15 2.95 1.7 4.5 1.45 13.9-1.55l1.4 11.1q-4.35 4.35-13.6 3.1-8.4-1.1-17.45-6.2.65-7.8-3.15-15.45h.05q.9.3 6 2.65"/><path fill="#c6dcdb" d="M325 53.85q9.5 9.2 12.15 23.1 2.25 12.1-1.2 22.4L315 111.2q-7-2.2-12.6-6.9-6.45-5.4-12.9-15.4-6.7-10.4-4.8-23.95 1.85-13.3 10.25-18.4 5.45-3.3 11.95-2.55 9 1.05 18.1 9.85"/><path fill="#a7bab9" d="M329.4 58.85q6.7 9.05 8.2 21 1.3 10.6-1.65 19.5l-10.85 6.15q-3.25-2-5.9-2.9-5.4-2.15-7-3.4-2.85-2.15-4.05-6.55-3.55-13.25-2.95-23.55.8-13.7 9.25-16.8 3.65-1.45 7.95 1.1l7 5.45"/><path fill="#c6dcdb" d="M328.2 130.35l13.65-2.75q2.2 6.85 10.95 22.2l12.3 21.5q2.95 5.6 9.2 8.75 3.1 1.55 3.85 2.15 1.65 1.25 1.95 3.2.65 4.15-7 10.85-7.1 6.2-12.1 7.35-2.45.55-3.95-2.35-1.25-2.5-1.9-7.7l-.6-7.1q-.4-4.5-1.3-7.4-1.6-5.1-12-25.1-9.85-18.85-13.05-23.6"/><path fill="#a7bab9" d="M341.85 127.6q1.3 3.9 4.25 9.85-6.6 1.1-11.65 3.8-4.55-8.45-6.25-10.9l13.65-2.75M354 181.75l-.75-2.7q-1.9-6.1-14.05-28.95 5.1-3.75 10.85-5.25l8.3 14.5 6.75 11.95q2.95 5.6 9.2 8.75 3.1 1.55 3.85 2.15 1.65 1.25 1.95 3.2.5 3.5-5.15 9.1-5.1 5-10.75 7.85 6.55-9.55 7.35-12.35 1.85-6.35-6.25-9.05-4.95-1.2-11.3.8"/><path fill="#d7a400" d="M356.85 138.6q-4.8 2.05-7.5 2.7-1.7.4-4.7-6.6l-2.65-7.1q-11.2 4.1-15.15 5-.3 7.1-4.55 15.25-3.9 7.55-7.75 9.8-3.65 2.15-9.05.05-5.2-2.05-7.35-6-1.65-3 1.35-13.2 3.9-12.05 5.05-17.3 1.45-6.8 5.7-9.95.85-.6 8.4-4.15l14.95-6.85q11.4-4.8 16-4.5 4.85.3 9.45 6.15 3.75 4.75 4.65 8.85.65 2.75-2.1 12.9-2.15 7.9-4.75 14.95"/><path fill="#b08600" d="M363.7 110.75q.65 2.75-2.1 12.9-2.15 7.9-4.75 14.95-4.8 2.05-7.5 2.7-1.7.4-4.7-6.6l-2.65-7.1q-11.2 4.1-15.15 5-.3 7.1-4.55 15.25-3.9 7.55-7.75 9.8-3.35 1.95-8.35.25-4.8-1.6-7.35-5.1 7.8-2 14.6-11.95l5.3-8.55q3.15-5.35 5.05-7.8 2.85-3.2 8.15-5.95 1.65-.9 9.95-4.5 12.9-5.7 16.65-12.75 1.95 2.35 3.45 5.15 1.35 2.55 1.7 4.3"/><path fill="#d7a400" d="M369.55 131.25q4.7-1.15 9.2.45 4.3 1.5 6.35 7 1.8 4.7.9 8-2.15 8.4-8.4 18.35-4.95 8-8.65 11.45-4.45-6.55-6.6-11.15-8.15 3.7-11.7 4.75-7.05 13.25-16.5 13.25-3.35.05-6.45-1.7-2.55-1.4-3.6-3.05-1.55-2.55 3.65-15.1 5.1-12.15 7.75-14.05l11.2-6.25q10.3-5.55 13.6-7.65 5.25-3.3 9.25-4.3"/><path fill="#b08600" d="M380.1 132.35q3.6 2.05 5.25 7.1 1.4 4.3.65 7.25-2.15 8.4-8.25 18.2-4.9 7.85-8.55 11.3-4.9-6.45-7-11.05l-6.1 2.85q-3.35 1.5-5.45 2.1-4.05 7.6-9.05 10.9-4.15 2.75-8.6 2.35 3.5-3.8 7.45-11.35 5.45-10.35 6.4-11.8 2.15-3.15 7.7-6.35 3.3-1.9 10.65-5.5 13.75-7.25 14.9-16"/><path fill="#d7a400" d="M305.9 7.85q4-2.15 5-.65 1 1.4-1.35 4.3L283.3 44.3q-24.95 31.6-27.5 37.3-2.6 5.8 1.35 17.65 2.2 6.65 5.95 13.8 2.3 4.4 1.5 6.1-.6 1.3-3.3 1.3-35.5 1.7-43.7 3.05-5.2.85-21.65 15.4-9.4 8.35-17.5 16.45-2 2-6.55 1.6-4.4-.35-7.6-2.5-4.35-2.95-5.9-29.15-.3-4.85-10.65-9.85l-13.35-5.4q-3.35-1.5-3.85-2.45-.6-1.2 1.7-3.2l11.65-9.85q9-7.5 11.45-9.35.2-4.4 1.55-9.5 1.3-4.95 2.4-5.95-.9-5.2-9.4-33.7L140.65 5.6q-1.15-3.6-.2-4.8.9-1.2 3 .9l45.45 46.25q13.65-4.3 25.95-1.45 6.15 1.45 9.55 3.7 74.5-38.5 81.5-42.35"/><path fill="#b08600" d="M217.45 83.9q6.25-4.25 9.45-13.05l1.65-4.8q.65-1.65 1.3-.9 2.05 2.5 1.95 9.55-.15 8.25-4.6 12.85-2.75 2.85-7.45 14.45-3.9 9.5-7.8 10.15l-9.7 1.45q-4.9.85-7.4 2.2-2.1 1.15-11.15 13.85-8.45 11.9-9.05 11.35-.5-.5 6.7-17.7 7.2-17.3 8.8-19.05 1.7-1.8 10.45-8.35 8.7-6.5 16.85-12M170.2 28.5l19.1 19.7q-3.5 1.15-12.1 5.4-.95.5-8.25-13.25l-16.1-29.8L170.2 28.5m14 110.6l4.15 1.15q4.1 1.25 3.85 2.05-.35 1.05-3.3 3.95-3.2 3.15-5.85 4.75 1.55-3.2 1.5-7.85l-.35-4.05M295.35 21.65q7.5-7.75 11.8-10 1.45-.75 2.15-.65.6.05.25.5L283.3 44.3q-24.95 31.6-27.5 37.3-2.55 5.7 1.2 17.2-2.8-3.2-5-9.4-2.45-7.1-2.05-13.05.4-5.5 18.5-26 9.5-10.7 26.9-28.7"/><path fill="#fff" d="M168.85 100.95l-1 7.55q-.85-.3-2.05-1-2.35-1.45-4-3.45-1.15-1.45-1.4-5.55l-.05-4.8 8.5 7.25m38.45 8.7q-2.25 1.05-9.2 1.45-7.4.45-8.35-1-.85-1.3-.85-2.4l.15-.85 2.75-3.5 20.85-8.75q.15 4.05-1.65 9.1-1.8 5.1-3.7 5.95"/><path fill="#dbdcdc" d="M168.95 100.4l-.3 2.45q-3.7-3.25-8.35-6.5l.15-3.2 8.5 7.25m43.7-5.8l.2 1.35-.2 1.55-11.25 4.5q-5.9 2.15-7.05 2.7l-3 1.8-2.05 2.1q-.4.5-.35-.8l.1-1.45 2.75-3 20.85-8.75"/><path fill="#d7a400" d="M187.15 136.35q4.45-.2 9.35.95 5.4 1.25 9.9 3.9 3.85 2.35 13.5 14.65 11.95 15.35 16.7 20.2 11 11.3 26.25 13.85 11.95 2.05 21.6-1.45 1.2-.4 1.45.25.3.6-.65 1.45-2.35 2.2-5.9 4.4l-3.05 1.75 6.55-.65 8.85-1.4q-.3 1.8-9.75 7.95l1.95 2q2.1 2.05 2.9 2.35-.95 1.3-3.55 2.4l-2.35.9 3.1 5.05q3.55 5.4 5.65 7-2.25.5-8.15-.6l-5.45-1.2 1 2.75q1.35 3 3.1 3.95-2.5.8-5.95.6-3.85-.2-7.1-1.65 1.55 3.35 3.85 7.15-3.2-.05-8.25-1.85-10.05-3.6-19.2-12.45-6.65-6.5-12.45-16.7-5.25-9.2-14.7-30.2-7.7-17.15-17.5-25.7-7.3-6.35-13.95-6.8l2.25-2.85"/><path fill="#b08600" d="M284 214.9q3.55 5.4 5.65 7-2.25.5-8.15-.6l-5.45-1.2 1.75 3.25q2.05 3.5 3.8 4.45-2.25.75-6.65.1-4.4-.6-7.85-2.15 1.55 3.35 5.3 7.65-3.55-.15-8.95-2.1-10.8-3.85-19.95-12.7-4.8-4.75-8.9-10.9 7.4 5.7 19.4 9.3 10.35 3.1 12.05 2.15.65-.35-1.65-4.55-2.15-3.85-.8-3.6l4.85.85 6.35-.25q.85-.2-.3-3.6-1.1-3.15-.35-2.9 2.5.9 6.85 1.35l5.75.15q-.95 1.25-3.5 2.4l-2.35.85 3.1 5.05"/><path fill="#e4eeee" d="M290.25 64.9q.25-2.85 1.2-5 1-2.3 2.65-3.15 3.65-1.9 7.15 1 3.25 2.7 3.25 6.6 0 15.2-5.9 15.45-4.15.15-6.65-5.15-2.2-4.7-1.7-9.75"/><path fill="#d7a400" d="M190.6 52.85q1.15 1.55-2.5 4.2-6.1 4.45-9.5 11.05-2.3 4.4-3.7 10.75-.45 1.9-2 2.05-1.45.15-3.2-1.15-4.35-3.25-4.2-8.45.15-4.9 6.6-10.75 5.6-5.05 11.35-7.2 5.9-2.15 7.15-.5"/><path fill="#0d131a" d="M312 110.1l-2.65 2.9-8.8 1.9q-2.9.85-5.6 5.2-2.9 4.75-1.95 8.8.8 3.35 2.35 7.45 1.35 3.65 2.55 5.9-.75 1.75-.75 3.9l-3-6.2q-2.5-5.55-3.25-10.85-.6-4.15 1.75-8.7 2.6-5.15 7.4-7.15 2.95-1.2 11.95-3.15"/><path fill="#0d131a" d="M334.2 63.35q4.5 8.65 5.05 19 .5 9.3-2.2 17.4l-2.2-.75q2.55-7.7 1.8-16.8-.8-9.75-5.2-17.9-6.1-11.35-15.95-16.4-10.25-5.15-19.7-.95-7.8 3.5-9.3 17.4-1.45 13.45 4 23.9 4.55 8.85 11.45 13.95 5.3 3.95 13.65 6.6l-2.25 2q-7.15-2.45-13.2-7.35Q293 97.6 288.6 89.2q-6.8-12.95-4.8-26.4 1.95-12.9 10.5-18.15 8.75-5.35 21.15.55 12.35 5.85 18.75 18.15m-.25 121.3l1.25-1.2q3.45 3.75 8.6 4.5 5.7.75 10.45-2.75l.6 2.6q-4.05 2.9-10.2 2.2-6.5-.8-10.7-5.35m9-57.4q1.7 5.1 6.6 14.35l-2.1.9q-5-9.2-6.7-14.55l2.2-.7"/><path fill="#0d131a" d="M353.55 191.55q-.7-11.5-4.4-19.6l.65-1 .85-.85q2.6 5.5 3.7 11.05.8 4.1 1.25 11.15.2 3.3 1.5 6.4 1.2 2.75 2.4 3.65 2.45 1.7 11.2-5.1 9-6.95 8.25-11.65-.2-1.4-1.3-2.35l-3.1-1.8q-2.95-1.45-5.1-3.3-3-2.6-5.1-6.65l-2.9-5.75 1.8-.9q2.9 6.8 5.45 9.9 2.35 2.85 6.55 4.9 2.75 1.35 3.7 2.15 1.75 1.4 2.1 3.6.85 5.45-7.05 12.15-7.35 6.2-12.8 6.65-2.95.3-4.5-1.35-2.6-2.75-3.15-11.3m-15.15-45.2q-.7.45-1.9 1.75-7-13.35-9.25-16.7h2.65q2.55 3.9 8.5 14.95"/><path fill="#0d131a" d="M359.75 100.6q3.65 5.05 4.7 9.65.7 3.25-1.65 13.2-1.85 7.95-3.7 12.85l-3.35 1.9q2.65-7.15 4.8-15.2 2.6-9.55 2.05-12-.9-3.85-4.4-8.35-4.3-5.5-8.65-5.75-3.85-.25-16.25 4.85-7.85 3.2-15.15 6.75-4.35 2.15-6.8 4.55-3.1 3-5.7 8.4-1.7 3.7-4.5 15.2-3.05 12.55-2 14.5 1.05 1.95 3.3 3.55 2.25 1.65 4.85 2.35 4.05 1.15 6.65-.4 3.2-1.85 7.5-10.85 4.2-8.85 4.25-13.25l.1-1.65q.15-.5.6-.5l6.05-.7q2.5-.55 5.4-1.8 7-2.95 9.8-5.45 2.15-1.85 2.25-1.4.1.4-1.3 2.2-3.1 4.05-9.35 6.8-5.75 2.5-11.2 2.7-.55 6.65-5.3 15.6-4.4 8.35-7.7 10.25-3.4 2.05-8.5.6-3.1-.85-5.65-2.95-2.65-2.1-3.6-4.55-1.5-3.9 1.7-16.4 1.9-7.35 4.4-14.3 3.3-9.4 13.25-14.4 11.6-5.65 16.1-7.6 12.7-5.55 16.9-5.25 5.35.35 10.1 6.85"/><path fill="#0d131a" d="M379.1 129.95q5.3 1.9 7.35 7.8 1.8 5.1.55 10-2.3 8.8-8.3 18.4-4.65 7.55-8.3 10.9l-1.55-2.05q3.35-3.05 8-10.7 5.85-9.5 8.05-17.9 1-3.9-.85-8-1.9-4.25-5.7-5.6-3.4-1.25-6.75-.7-4.05.65-10.35 4.05l-13.7 7.2q-10.95 5.85-11.9 6.7-2.2 2.1-6.9 13.8-4.85 12.15-3.65 14.1.9 1.5 3.3 2.8 2.95 1.6 6.1 1.45 3.85-.1 9.15-5.15 4.95-4.65 5.15-7.15.1-.9 2.55-1.95 1.5-.65 5.95-2.2 9.6-3.8 14-9.45 2.15-2.75 2.25-2 .1.65-.85 2.5-2.3 4.35-8.8 8.35-6.05 3.8-13 5.65-4.05 7.4-8.85 10.85-3.75 2.75-7.7 2.9-3.75.15-6.9-1.7-2.6-1.5-3.9-3.65-2.05-3.2 3.05-16.5 4.9-12.7 7.8-14.75.75-.5 12.3-6.65l13.65-7.45q10.6-6.8 18.75-3.9m-213.2-23.3l2.2 1.15.1 1-2.7-1.25q-2.9-1.55-4.6-3.65-1.05-1.3-1.25-6.6l-.05-5.1 1.55 1.5-.1 4.2q.05 4.4.85 5.35 1.5 1.85 4 3.4m45.95-12l2.45-1q.15 4.1-2 9.65-2.15 5.65-4.45 6.7-3.3 1.55-10.45 1.55-7 .05-7.8-1.3-.65-1.1-.75-2.05l.1-.85.75-.45q-.1.1-.05.75.1 1 .75 2 .7 1 7.6.65 6.75-.35 9-1.35 1.6-.75 3.3-5.55 1.75-4.95 1.55-8.75"/><path fill="#0d131a" d="M207.9 96.05q7.15-3.1 10.5-5.6 1.9-1.45 2.2-1.15.3.3-1.35 1.8-4.1 3.8-14.8 8.25l-9.85 3.75q-2.85 1.35-4.35 3.45-1 1.3-2.55 5.05-10.7 24.75-12.1 27.3-1.05 1.9-1.35 1.8-.3-.1.55-2.1l11.3-27.7q2.15-5.15 3.45-6.85 1.05-1.35 3.35-2.45 8.2-2.6 15-5.55m-38.65 4.2l1 .95.1 1.25q-.9 4.1-5.1 34.85-.4 2.5-.7 2.1-.35-.4-.15-2.15l2-16.95 2.3-18.45-6.05-5.4q-2.85-2.55-4.4-4.75L157.2 90l1.05.85q4.3 4.3 11 9.4m-4.9 47.9q-.05-1.25.3-1.2l.75 1.15.75 2.8q.1 1-.4 1.1-.55.05-.8-.75-.5-1.3-.6-3.1m7.65 4q.15-1.6.9-3 1.15-2.15.95.2l-.65 3.2q-.3.8-.8.65-.5-.1-.4-1.05"/><path fill="#0d131a" d="M166.25 98.15q.9.9.8 2.1l-.35 2.25q-.35 1.05-.7 1-.4 0-.6-1.9-.25-1.8-.15-3.15.1-1.2 1-.3m29.4 4.15q0-.5 1.3-.95 1.25-.45 1.25.15 0 2.55-.45 4.15-.4 1.35-.8 1.35-.5 0-.85-1.2-.45-1.3-.45-3.5m-10.45 37.4q-1.55-.35-1.5-.75 0-.35 1-.15l4.7 1.05q4.05 1.25 7.85 3.85 11.35 7.8 20.15 27.55 9.35 20.85 14.5 29.9 5.8 10.2 12.4 16.6 6.95 6.75 15.85 11.15 6.4 3.1 11.05 3.95-3.65-3.35-5.15-6.6-1.15-2.45 1.5-1.55l5.9 1.55q4.8 1.15 6.9 1.25-4.05-3.75-5.4-7.1-.45-1.05-.2-1.35l1.6-.05q7.4 1.65 10.65 1.85-2.35-2.65-4.35-5.7-1.9-2.8-2.75-4.7-.55-1.35 2.65-2.3 2.95-.85 2.4-1.45l-2.9-2.9q-1.75-1.95-.75-2.6 3.4-2.05 7.15-5.1l-7.2.95-4.85.4q-1.8 0-1.95-.5-.15-.5 1.35-1.7l3.2-1.95q2.75-1.6 4.8-3.4-15.6 5.05-28.9-.65-15.7-6.75-33.9-30.1-10.65-13.75-16.9-17.85-5.7-3.75-16.5-4.85-1.75-.15-1.65-.5.05-.35 1.2-.4 10.4-.35 18.35 4.7 7.45 4.75 17.3 17.45 17.2 22.1 32.2 29 13.15 6.05 27.7 1.5 7.9-2.45 2.05 3.45-2.2 2.2-3.5 3l7.7-.85q2.6-.35 3.05.3.45.65-1 2.25l-2.8 2.8-4.45 3.25 3.45 3.25q1.65 1.4 1.55 2.15-.15.8-2.35 1.5l-4.45 1.15q1.25 2.15 4.2 5.8l4.2 4.75 1.8 1.6-2.3.45-6.55-.55-6.15-1.35q.9 1.5 3.55 4.6 1.6 1.9 1.55 2.4-.1.45-1.95.6-4.35.35-11.65-1.6 1.4 1.9 4.45 4.95 1.5 1.5 1.3 2l-3.85.2q-15.45-2.45-28.15-14.8-6.65-6.5-12.5-17-4.85-8.7-14.6-30.35-12.85-28.7-30.1-32.45"/><path fill="#0d131a" d="M304.25 7.4q5.65-2.55 7.15-.75 1.5 1.85-2.5 7.2L282.2 47.7q-24.35 31-25.8 34.3-1.85 4.1.8 14.05 2.4 9.1 6.5 16.4 2.75 4.8 1.35 7-1.25 1.95-6.05 2l-22.55.95-18.5 1.65q-4.25.75-19 13.95-1.05-.7-2.95-.8 16.1-13.95 21.4-14.85l22.5-1.95 19.05-.85q3.6.1 4.35-1.1.8-1.3-1.2-4.9-3.05-5.45-5.35-11.75-3.1-8.55-3.1-14.6 0-3.5 1.1-6.05 2.2-4.8 27.35-36.75l26.05-32.95q1.45-2.15 1.15-2.75l-2.85.2q-2.5.85-38.8 20-36.1 19.05-41.9 22.55 3.3 2.9 3.65 4.2.35 1.35-3.95-2.15-7-5.75-18.1-6.65-10-.8-19.5 2.35-2.4.8-2.45.45-.05-.35 2.15-1.45L142.6 2.5q-1.3-1.1-1.35.25 0 .95.5 2.5l8.2 26.7q7.65 25.25 9.65 33.6 2-2.65 4.9-4.85 2.2-1.65 6.2-3.85 2.75-1.5 2.75-1.1 0 .35-2.4 2.05-7.5 5.4-11.05 11.95-3.65 6.7-3.6 15.25l-.15 2.85q-.15.3-.85-1.25-3.35 2.55-12 9.6l-11.55 9.5q-.95.8-.5 1.7.5 1.05 2.85 1.6 10.35 2.35 18 7.5 7.1 4.8 7.35 8.75 1.55 26.25 5.15 28.65 2.9 1.95 7.1 2 4.05.1 5.7-1.55 6.25-6.2 13.8-12.95l1.2.3q.75.1 1.2.6l-8.4 7.9-7.25 6.35q-2.1 1.65-6.75 1.5-4.6-.15-7.2-1.85-4.65-3.05-6.25-30.3-.45-7.6-25.05-15.8-3.45-1.3-3.7-2.65-.3-1.5 2.7-4.2l11.35-9.75 11.75-9.6q-.45-3.75.2-7.75.65-4.55 2.55-8l-9.2-32.5-8-27.95q-1.55-6.25-.3-7.4 1.15-1.05 4.8 2.05 6.3 5.45 44.65 44.6 7.7-3.1 17.1-2.6 9.95.45 17.15 4.85l37.6-19.9q34.35-18.15 42.8-21.9m20.3 171.15l-.3 1.7q-10.5-1.55-17.4-9.2.3 4.85 5.45 11.25 5.2 6.45 12.4 10.75 9.55 5.75 19.2 6.5 8.7.75 12.1-2.65l.65 2.15q-3.3 3.3-12.55 2.9-10.65-.55-20.5-6.45-18.65-11.2-18.9-26.6-2.05-2.8-3.6-6.9-1.6-4.35-1.75-8.05l2.65 1.6q1.25 8.9 8.75 15.8 6.7 6.15 13.8 7.2"/><path fill="#d7a400" d="M161.3 135.2l.25 4.05q-4.15 4.45-5.3 9.35-1.15 5.05-1.55 15.1-.45 12.35-.85 15.8-1.85 15.15-8.6 28.05-5 9.55-11 15.2-5.4 5.15-11.6 7.65l-5.1 1.5 1.15-1.5q1.15-2.3 1.45-6.3-13.2 4.75-20 1.85 3.15-2.3 7.55-4.55l3.8-1.85-11.35-.45 8.15-6.4-3.85.2q-4.3.35-6.6 1.2l1.55-6q.9-3.55 2.55-4.95l-7.95.55-5.25.85q.85-3.45 5.3-6.85l4.25-2.75-5.45-2.7q5.5-2.4 12.3-1.85l11.25-.45q7.8-1.25 12.85-4.55 6.2-4.05 11.55-15.2 3.85-8 6.2-17.1 3.45-13 14.3-17.9"/><path fill="#b08600" d="M149.75 177.75q4.45-15.1 4.85-12.3.4 3 0 7.35l-.75 6.7q-1.85 15.15-8.6 28.05-5 9.55-11 15.2-5.4 5.15-11.6 7.65l-5.1 1.5 1.15-1.5q1.15-2.3 1.45-6.3-13.2 4.75-20 1.85 3.15-2.3 7.55-4.55l3.8-1.85-11.35-.45 8.15-6.4-3.85.2q-4.3.35-6.6 1.2l1.55-6q.9-3.55 2.55-4.95l-7.95.55-5.25.85q.3-1.05 5.75-3.4 5.55-2.35 8.2-2.35 3.1 0 4 .95 1.15 1.3-.15 4.95-.6 1.85 3.5.2l5.9-2.65q1.05-.35-.6 5.15-1.65 5.55-.25 5.25l6.1-2.05 4.7-.2.95 4.55q.5 3.2 1.1 3.2 1.1 0 7.1-6.8 6.6-7.5 8.35-12.35l6.35-21.25"/><path fill="#0d131a" d="M161.95 135.3q.6.35-2.2 1.8-8.45 4.25-11.6 16.3-2.2 8.2-5.45 15.4-5.8 13-12.8 17.55-6.05 4-15.45 5-5.35.6-9.4.2-5.1-.45-9.3.85 2.3.65 3.35 1.3 1.4.85 1.2 1.4l-1.5.9q-2.3.9-4.45 2.65-2.55 2.1-4.15 4.85l6.35-1.05 5.55-.45 1.45.25q.2.25-.25 1-1.6 2.55-2.4 4.45-.8 1.95-1.35 4.7l8.75-.85 2.9.15q.7.2-.75 1.05l-3.5 2.45-3.65 2.85 8.25.45q1.9.05.75 1.25-2.85 2.85-9.5 5.75l8.9-.35q5.5-.9 8.05-2.15 2.2-1.05 2.4-.95l-.15 1.35-1.1 3.6-1.55 3.45q8-2.8 14.15-8.55 6.35-6 11.45-16.3 6.05-12.3 7.75-26.25.55-4.9.85-13.45.35-10.25 1.05-14.6 1.15-7.25 4.3-10.6 3-2.85 3.3-2.5.3.35-2.4 3.5-2.7 2.9-3.55 10.05-.3 2.6-.7 14.15l-.1 7.05-.4 6.95q-2.1 17.2-9.7 30.95-4.55 8.2-9.3 12.7-4.5 4.3-13.2 7.5-5.1 1.85-5.85 1.45-.55-.3.85-3.4l1.25-3.65q-5.9 1.95-12 2.25-5.25.25-7.45-.7-1.45-.65-1.5-1.05-.05-.45 1.3-.95 5.4-1.95 8.7-4.5l-6.8-.05-4.4-.35q-.4-.2 2.75-2.45l5.05-3.6q-4 .3-6.5 1.1l-1.35.1q-.2-.2-.15-1.55.1-2.6 1.2-5.15.8-1.9 2.55-4.65-5.1 0-10 1.35l-2 .25q-.75-.35-.05-2.25 1-2.5 3.6-5 2.65-2.5 5.45-3.5L92.35 193q-1.3-.4-1.3-.7.05-.3 1.35-1.1 1.5-1 4.7-1.55l8.15-.4 10.95-.45q7.55-1.15 12.45-4.35 6.55-4.3 12.25-16.75 3.45-7.55 5.4-14.85 3.05-11.85 12.75-16.7 2.35-1.2 2.9-.85"/></svg>