<svg xmlns="http://www.w3.org/2000/svg" width="145" height="236" viewBox="0.0 -0.15 145.35 235.55"><path fill="#0d131a" d="M91.55 158.05l2.2-1.35q.95-.6 1.4-.2 6.2 5.4 13.3 7.6 10.8 3.3 22.85-1.1 5.15-1.9 7.85-2.35 3.2-.55 4.1.7 2.1 2.75-5.45 13.1-7.5 10.3-25.5 15.6-18.1 5.3-30.4.6-6.55-2.55-6.8-9.85-.2-6.15 5.9-13.7 5.35-6.6 10.55-9.05"/><path fill="#d3d9db" d="M83 188.6q-6.3-2.5-6.55-7.85-.2-5.6 5.6-12.75 5.15-6.4 10.05-8.75 1.85-.9 2.3-.45 6.05 5.25 13.75 7.2 11 2.85 23.6-1.75 8.1-2.95 9.4-1.25 1.5 1.9-4.85 10.55-6.85 9.45-25.3 14.35-17.9 4.7-28 .7"/><path fill="#adb2b4" d="M109.8 177.45q3.85 1.4 11.65.85 8.55-.6 13.7-3.3-7.75 8.8-25.35 13.2-17.15 4.2-26.8.4-6.3-2.5-6.55-7.85-.2-5.6 5.6-12.75 5.15-6.4 10.05-8.75 1.85-.9 2.3-.45l2.7 2.1q1.25 1.4 6.25 9.5 3.8 6.15 6.45 7.05"/><path fill="#0d131a" d="M85.6 92q4.4-.55 9.6.85 3.4.9 6.15 3.55 2.7 2.6 4.3 6.6 2 4.9 2 10.65 0 7-2.85 12l.5 4.55.2 6.65q-.1 6.4-2.4 18.05l-2.4 11.45.3 2.7.15 3.2q-.45 3.5-3.65 5.15-2.5 1.2-2.85 1.2-1.8 3.45-3.35 5 .15 2.95 1.75 8.1 1.75 5.75 3.55 7.75.75.85 4.5 2.45l6.85 2.85q4.15 1.75 8.35 4.6 3.9 2.65 5.7 4.75 3.4 4.05 1.05 12.1-1.55 5.15-7.85 7.25-5.7 1.95-21.6-.8-14.05-2.4-20-5.05-3.8-1.65-4.7-6.5l-.8-10.1-.7-6.7q-.4-3.8-2.55-8.25-1.4-2.9-2.75-4.7l-4.1-.65q-1.1.7-1.3 6.65-.2 5.95.75 10.5l.95 4.9q.5 3.05.5 6.2l-.05 3.5q-.2 1.7-1.15 2.6-1.6 1.6-4.5 2l-5.85.45-7.95 2.85q-7 2.6-15.65 2.85-5.8.15-9.2-.9-3.4-1-6.3-3.8-2.05-2-3.1-5.8-1.1-4-.05-6.9 1.75-4.7 9.7-7.7l6.95-2.4q4.15-1.5 6.65-2.9 2.65-1.55 2.65-7.2 0-2-1-7.7L29 182.35q-4.9-4.05-6.45-9.2l-.95-5.9-2.05-.05q-.4 1.05-2.4 1.75-1.95.65-3.7.5-3.5-.35-5.75-3.95-4.85-5.25-6.4-8.4-1.3-2.6-1.3-6.35 0-3.2 1.75-7.55l3.85-8.25q.65-4.85 3.3-8.7 1.6-2.4 5.85-6.5 5.4-5.3 7.95-9.1.2-7.35 2.85-12.9 2.55-5.2 6.45-7.35 3.5-1.95 8.3-1.15 2.65.45 6.25 2l.85.35.2.05q6.6 2.5 10.5 3.3l14.3.7q2.3-.15 6.5-1.75 4.1-1.55 6.7-1.9"/><path fill="#d3d9db" d="M100.45 97.4q2.45 2.4 3.95 6.1 2.15 5.25 1.9 11.3-.25 6.05-2.75 10.4l-.15.25.05.25q1.3 5.2-1.45 23.4-1.4 9.15-3.1 17.45v.15l.15 5.1q.2 2.35-2.4 3.6-1.7.85-2.25.95l-1.25.35-.3.5q-2.15 4.3-5.25 6.2l-3.1 1.35q-1.5.6-1 1.2.85 1 5.55-1.3 0 2.8 1.9 8.15 2 5.6 4.1 7.95.95 1.05 3.85 2.45l6.35 2.8q3.8 1.55 8.25 4.6 4.1 2.75 5.75 4.7 1.65 1.95 2.05 4.1.45 2.7-.85 6.5-.65 2.05-1.95 3.3-1.6 1.5-4.75 2.55-5.3 1.8-19.7-.75-12.75-2.2-18.55-4.8-3.35-1.5-4.6-6.7-.55-2.2-1.2-9.95l-.25-4.8q-.45-4.3-3.15-9.85-1.85-3.85-2.75-4.95l-7.4-.3q-1.25.5-1.3 3.35l.1 8.45q0 .95 1.1 7.95 1.1 7.15 1.1 9.75 0 3.45-1.75 5.15-1.3 1.3-4.3 1.5l-4.15.1-3.85 1.1-4.4 1.5-6.5 1.85-7.8.95-8.3-.7q-2.85-.75-5.3-2.95-2.35-2.15-3.05-5.4-.7-3 .2-5.7.75-2.2 5.65-4.75l8.65-3.95 4.45-2.15 3.1-2.05q2.65-2.4 2.9-8.3.25-4.85-1.15-11.1 2.5 1.55 4.1 1.3 1.55-.3-1.5-2.15l-1.55-.9q-.85-.55-2.05-1.65-4.35-4.1-5.8-9.7l-.6-4.85 1.4-1.35-6.55.9-.2.25q-.8.85-2.2 1.35l-2.9.35q-3.25-.3-4.85-3l-.05-.1v-.05q-7.1-7.55-6.9-14.5.2-4.5 4.95-14.7l.05-.1v-.1q.55-4.6 3.15-8.3 1.5-2.2 5.65-6.25 5.45-5.2 8.2-9.4l.05-.1.05-.15q2.4-15.35 9.4-19.2 3.15-1.7 7.2-1.1 2.3.4 5.45 1.75l.85.35.2.05q6.8 2.6 10.75 3.4l14.65.7q2.8-.2 6.85-1.85 4-1.5 6.45-1.85 4.1-.5 9.05.85 3.1.85 5.6 3.25"/><path fill="#adb2b4" d="M40 111.3q-3.35 5.85-2.5 7.8 1.35 3.15-2.75-2.5-3.5-4.85-1.7-4.95 1.6-.05 6.45-3.35l4.2-2.85-3.7 5.85M6.9 135.25q.45-3.7 2.15-6.75 1.35-2.4 3.95-5.1 1.5.9 5.35 2.6 2.45 1.8-1.4 4.85-3.55 1.25-7.05 1.85-1.95.55-3 2.6v-.05m56.95-2.8q.9-.8 4.35.65 3.2 1.3 4.85-1.05 1.85-2.6-.85-5.85 4.75-2.7 7.55-6.35L76 130.05q-1.5 4.5-1.85 7.65-3 1.8-9.6-1.3l-4.3 9.05q-2.9 5.75-2.6 7.55.2 1.25 4.15 4.1 4.15 3 9.3 5.5 14 6.7 20.7 2.85 3.85-2.2 2.75-19.3l-.95-12.35q-.3-6.1.4-7.55 1.45-2.9 5.15-4.5 2.15-.9 6.55-2.3-.65 3.1-2.15 5.75l-.15.25.05.25q1.3 5.2-1.45 23.4-1.4 9.15-3.1 17.45v.15l.15 5.1q.2 2.35-2.4 3.6-1.7.85-2.25.95l-1.25.35-.4.7-2-.95q-5.1-2.05-13.25-3.75l-13.7-2.8Q47.6 166.1 40 157q-7.9 7.9-15.85 9.7v-.4l1.4-1.35-6.55.9-.2.25q-.8.85-2.2 1.35l-2.9.35q-3.25-.3-4.85-3l-.05-.1v-.05q-4.95-5.2-6.35-10 .9.35 2.7 3.15 2.5 2.9 7.35 4 7.85 1.8 25.5-9.55 12.8-8.25 25.85-19.8M49.3 188.3l6.4 1.65q-.85.7-.85 3.6l.1 7.9q0 .95 1.1 7.95 1.1 7.15 1.1 9.75 0 3.45-1.75 5.15-1.3 1.3-4.3 1.5l-4.15.1-3.85 1.1-4.4 1.5-6.5 1.85-7.8.95q-1.35 0 .2-2.1 1.5-2.05 4.65-4.6 8.35-6.75 14.45-6.6 6.4.15 7.3-11.3.7-9.15-1.7-18.4"/><path fill="#adb2b4" d="M35.55 168.25q-8.15.1-10.95 2.25-.45-2-.45-3.8Q32.1 164.9 40 157q7.6 9.1 23.8 12.9l13.7 2.8q8.15 1.7 13.25 3.75l2 .95q-2.1 4.1-5.15 6l-3.1 1.35q-1.5.6-1 1.2.85 1 5.55-1.3 0 2.8 1.9 8.15 2 5.6 4.1 7.95.95 1.05 3.85 2.45l6.35 2.8q3.8 1.55 8.25 4.6 4.1 2.75 5.75 4.7 1.65 1.95 2.05 4.1.45 2.7-.85 6.5-.95 3.05-4 4.7.8-2.9.7-5.15-.1-2.95-1.7-6.1-.75-1.5-4-2.75l-7.15-2.35Q93.2 210.7 88.45 205q-5.2-6.15-6.75-11.9-.9-5.6-1.95-8.2-4.1-10.15-26.95-14.85-9.25-1.9-17.25-1.8"/><path fill="#0d131a" d="M49.5 189.1q-2-.85-2.05-1.6-.05-.75 2.2 0 4.05 1.4 7.85 1.7l7.05-.25q2.9-.35 2.4.4-.5.8-3.1 1.45-6.35 1.65-14.35-1.7M44 97.15q.6-1.4.95-1.2.3.15 0 1.5-.4 1.65-3.95 4.95-3.95 3.65-7.15 4.45l-2.05-.1q-.2-.55 1.8-.9 1.9-.3 5.9-3.8 3.8-3.35 4.5-4.9M64.35 136q3.15-.25 10.2 1.75 9.15 2.5 11.15 6.65 1.05 2.2.85 2.9-.25.75-1.95-2.4-1.6-3-10.55-5.6-7.65-2.2-10.35-2l.65-1.3"/><path fill="#0d131a" d="M75.5 154.35q-1.15-.8-1.15-1.5 0-.65 1.8.7 2.4 1.8 6.3 2.9 4.75 1.35 8.25.4 1.75-.45 2.45-1.9.95-1.9.6-4.35l-1.3-4.35q-.75-2.1-.2-2.05.6 0 1.15 1.65l1.35 4.4q.7 3.25-.35 5.3-.95 2-3.35 2.65-3.6.95-8.45-.5-4-1.15-7.1-3.35M55.7 122l4.2.15q4.95 0 7.3.75 4.6 1.55 8.9 6.75l-.85.85q-4.95-4.85-8.8-6.3-2.45-.9-6.55-.85l-4.35-.15q-16.6-2.15-28.95 3-5.8 2.35-11.7 7.4l-1.95 1.25.85-1.75q2.4-4.45 11.45-8.1 12.85-5.25 30.45-3m7.25 15.1l2.05-2.25q.95-.95 1.65-.5.65.45-.9 1.4-1.3.8-1.45 1.2l-.5.95q-24.3 27.7-40.85 29.2-1.85.2-2.45-.55-.6-.8 1.35-1 10.45-1.2 24.35-12.35 8.75-7.05 16.75-16.1m-56.7 5.1q-1.55-2-.6-5.75l.7-1.25q.65-.95.4.4-.75 4 .5 5.6 1.85 2.25 8.1 2.5 1.65.05 1.35.5-.3.4-1.35.5-6.6.6-9.1-2.5"/><path fill="#0d131a" d="M43.95 134.45l2.6-2.65q1.15-.9 1.7-.9.6 0-1.1 1.7l-2.45 2.55q-4.75 5.3-7.7 7.4-5.7 4.1-11.7 3.6-1.8-.2-2.2-.65-.4-.5 2.35-.35 4.6.2 10.3-3.55 4.4-2.9 8.2-7.15m-2.55 24.1q3 3.7 15.05 9.15 16.05 7.3 31.4 7.3 1.1 0 1.9.9.45.55 1.75.7l3.8-.45q1.6-.5.6.7-1.05 1.15-2.45 1.25-3.15.25-4.3-1.05-.6-.6-1.65-.6-16.25 0-31.35-6.65-12.2-5.35-15.7-10.5l.95-.75m1.7-53.1q1.25-1.1 1.35-.55.1.45-.65 1.5-1.6 2.35-3.05 5.4-2.45 4.9-2.2 7.2l-1.2-.75q-.3-2.75 2.05-7.35 2-3.95 3.7-5.45"/><path fill="#0d131a" d="M41.15 121.6l.5.85-1 .05q-4.15.15-12.45 3.1-7.25 2.6-9.15 3.85l-.3.2-.3-.2-1.5.3-2.2.5-2.65-.15q-1.5-.45-2.55-1.3-1.15-1-1.35-2.2l-.1-.8q0-.85 1.45-2.2l-.4-.8-.25-.8q0-1.05.3-1.65.65-1.45 2.7-2.15-.35-.7-.35-1 0-1.9.9-2.95 1.45-1.7 5.75-1.6.1-1.45.65-2.05.65-.65 1.65-.9.9-.2 1.75 0l3.25.35q5.7.35 7.45 1.1 1.3.6 2.2 2.15l1.15 2.55.5 1.25.65.6q3.3 3.2 3.7 3.9"/><path fill="#d3d9db" d="M25.4 111.2q5.5.35 7.1 1.05 1.5.65 2.7 4 .4 1.3.8 1.65l.65.65 2.8 2.85q-5.8.25-12.9 3.1-4.45 1.75-7.95 3.85l-1.95.25-4.25.35q-1.15-.3-1.9-1.2-.75-.8-.85-1.7-.1-1.2.9-1.8l.55-.35-.35-.5q-.8-1.2-.25-2.5.7-1.45 2.1-1.7l.65-.1-.15-.6q-.45-1.95.55-3.1.7-.8 2.05-1.25l3-.3.8.05-.2-.75q-.15-.75.65-1.55.95-.95 2.05-.7l3.4.3"/><path fill="#0d131a" d="M22.65 113.15l4.7.15q1.6.15 2.95 2l2.05 3.4.6 1q.35.5.1.9-.25.35-.55-.15l-.85-1.3-2.2-3.2q-1.45-1.7-2.85-1.85l-3.95-.15-3.55-.1.1-.85 3.45.15m-1.15 4.3l2.3-.25q1.2 0 2.45 1.3l2.15 2.5.95 1q.45.55.35.8-.1.2-.75-.25l-1.15-1-2.2-2.2q-1.35-1.15-2.35-1.15l-4.65.45-5.95.55v-.85l5.85-.55 3-.35M22 122q1.1.45 1.85 1.15l.95 1.05 1.35 1-.4.75-1.55-1.15q-1.05-1.05-2.65-1.65l-7.85.4-2.85.45-.55-.55 3.25-.7 4.45-.9 4 .15M94.1 19.4q13.45 7.5 18.65 23.8 5.15 16.05-.45 31.7-3.9 10.95-16.7 17.8-13.35 7.15-30.1 6.15-11.9-.7-19-4.8-6.15-3.55-9.8-10.35-6.3.2-11.3-5.7-4.85-5.65-4.75-11.95.05-3.35 2.65-6.9l4.45-4.95 1.35-1.55q1.3-1.8 1.55-4.6 1.05-11.25 6.6-19.8 5.5-8.3 14.25-12.55 8.95-4.35 19.65-3.55 11.35.8 22.95 7.25"/><path fill="#d3d9db" d="M91.15 21.95q16.25 8.7 20.55 24.35 3.85 14.15-2.8 29.9Q104.8 86 92.2 92q-11.6 5.5-24.95 5.55-11.2 0-19.3-4.55-6.7-3.8-9.9-9.7l3.65-.35q4.15 0 11.1 3.7 6.95 3.7 12.55 3.7 5.7 0 14.1-3.95 8.35-3.9 8.95-6.85.2-1-.2-1.25-.4-.2-.75.75-.95 2.85-9.1 6.15-8.05 3.3-13.7 3.3-3.45 0-10.7-3.5-7.2-3.5-12.65-3.5l-2.6.2-2.5.2q-5.5-.25-9.45-5.2-3.8-4.75-3.8-10.5 0-3.1 2-6.35 1.25-1.95 3.8-4.75l1.4-1.65q1.2-1.55 1.8-5.05 4.2-24.5 22.95-31 16.8-5.85 36.25 4.55"/><path fill="#adb2b4" d="M108.9 76.2q-3.1 7.3-11.15 12.65-7.45 4.95-17.45 7.2.5-2.35 4.65-3.8 8-2.85 15.7-9.6 6.8-5.95 10.25-12l-2 5.55"/><path fill="#0d131a" d="M38.15 71.3q-.25-.7.2-.9.45-.25.8.6l1.25 2.8q.25.6-.2.7-.5.05-.85-.25l-.65-1.3-.55-1.65m13.35 5.65q.4-.5 1.65-1.25 1.05-.65 2-1.05l.85.1q.05.4-.45.8L52.1 77.8q-.65.25-.8 0-.2-.3.2-.85M35.45 35.2q1.2-1.6 2.4-2.3 1.2-.65 2.2-.25 4.15 1.65 3.8 11-.3 9-4.3 16.8l-.05.6q-.15.45-.95.25l-1.5-.5Q32.7 59 30.8 56.6q-.9-1.2.55-9.35 1.6-8.7 4.1-12.05"/><path fill="#fff" d="M42.35 42.4q0 4.35-1.1 9.5-1.05 5-2.5 7.95-1.7-.05-4.1-1.55-2.15-1.25-2.95-2.35l-.1-.65q0-3.4 1.65-10 2-7.8 4.35-10.15 1.05-1.05 2.05-.65 1.25.45 1.95 2.35.75 1.9.75 5.55"/><path fill="#0d131a" d="M42.85 37.75l.15.15.05.2q.95 4.55-.35 12-1.2 6.75-3.15 10.55l-.1.25-.3.05q-2.6.1-6.3-2.55l-.2-.15v-.2q-.15-10.25 3.25-16.7 3.35-6.25 6.95-3.6"/><path fill="#e50020" d="M42.4 42.45q0 4.35-1.15 9.6-1.05 4.85-2.5 7.8-2.15-.05-5.05-2.2L33.6 56q0-4.85 1.8-10.35 1.95-5.85 4.3-7.2l2.35.1.35 3.9"/><path fill="#0d131a" d="M92.05 54.1q.15 4.95-1.05 9.4-1.2 4.5-3.2 6.35l-.1.1-.1.05q-4.55 1.5-10.15 1.3-6-.25-9.7-2.45l-1-.8q-.1-.25.55-.65-1.7-8.85 4-19.1 5.9-10.65 12.95-8.6 7.35 2.15 7.8 14.4"/><path fill="#fff" d="M89.6 48.95q.65 2.9.65 6.45 0 4.45-.95 8.45-.9 3.9-2.15 5.15-4.95 1.3-11.65.8-6.5-.45-7-1.95-.25-1-.25-2.25 0-4.55 2.35-11 2.55-7.1 6.1-10.8 3.55-3.65 7.05-2.6 4.3 1.25 5.85 7.75"/><path fill="#0d131a" d="M82.65 45.55q3.25-2.3 6.5-.6l.2.1.1.2q2.6 5.45 1.65 14.25-.9 8.15-3.3 10.35l-.1.1-.1.05q-4.45 1.15-10.8.9h-.3l-.65-.45q-1.5-3.45-.95-8.7.5-4.95 2.6-9.45 2.2-4.65 5.15-6.75"/><path fill="#e50020" d="M88.55 45.9q1.7 3.85 1.7 9.5 0 4.45-.95 8.45-.9 3.9-2.15 5.15-4 1-9.95.85-.75-1.95-.75-4.95 0-4.5 1.5-9.15 1.55-5.05 4.15-7.8 2.9-3.2 6.45-2.05"/><path fill="#0d131a" d="M40.05 47.85L40 51.5q-.2 2.15-.75 3.6-.5 1.5-1 1.4-.5-.05-.7-1.65-.15-1.55.05-3.65.25-2.15.75-3.6.5-1.45 1-1.4.5.1.7 1.65M84 60.75q-.25 2.6-.9 4.35-.6 1.8-1.2 1.7-.6-.05-.85-1.95-.2-1.9.05-4.45.25-2.6.9-4.35.6-1.75 1.2-1.7.6.1.85 1.95L84 60.75M63.95 0q2.85.05 6.15 1.4 3.8 1.55 5.8 4.05 2.7 3.4 1.4 9.5l-.05.3-.3.05q-7.5 1.2-12.7 4.75-5.8 4-11.9 12.95-.15.2-1.25 0-1.05-.15-1.25-.45-2.15-3.9-3-7.75-.95-4-.2-6.5 1.5-5.35 6.55-11.4Q59.05-.15 63.95 0"/><path fill="#ecde7b" d="M69.85 2.8q3.1 1.3 4.9 3.55 2 2.6 2 5.9l-.25 2.3q-10.6 1.75-18.2 9-4.15 4-6.35 8.4h-1.4q-2.75-7.35-2.75-10.9 0-.75.15-1.35 1.5-5.15 6.25-11.15 5.6-7.1 10.15-7 2.75.1 5.5 1.25"/><path fill="#0d131a" d="M64.4.7q3.25.1 6.35 1.55v.05h.05l-.3.75q-3.55-1.25-8.3 1.9Q57.8 7.9 53.75 14q-3.35 5-3.4 6.4-.15 3.65 2.1 11.25.25.75-.65 1.15l-1.05-.15q-1.1-.75-1.4-1.55-3.05-8.55-2.2-11.6 1.6-5.5 6.55-11.65Q59.5.55 64.4.7"/><path fill="#ecde7b" d="M66.65 1.85q-2.55.4-5.15 2.1-4.5 3-8.65 9.35-3.5 5.2-3.6 6.9v.45q0 3.25 2.4 11.25v.05h-1.1q-2.75-7.35-2.75-10.9 0-.75.15-1.35 1.5-5.15 6.25-11.15 5.6-7.1 10.15-7l2.3.3"/><path fill="#0d131a" d="M81.8.35Q84.15.2 86.85 1.6q2.6 1.35 4.35 3.55 2.15 2.7 2.9 6.3 1.05 4.85-.65 10.6l-.85.5-.5-.25q-4.75-2.55-13 .3-8.8 3.1-21 12.25l-1.4-.15-1.3-.5q-.3-1.95-.1-6.2.2-4.55.8-6.25 1.65-4.4 11.05-12.6Q77 .6 81.8.35"/><path fill="#ecde7b" d="M92.05 21.35q-7.15-3.4-20.15 3.35-7.2 3.75-13.9 9.15l-1.75-.5-.05-.6q0-6.95 1.2-10.3 1.55-4.2 10.6-12.1 9.4-8.3 13.9-8.55 1.95-.1 4.05.8 2.55 1.1 4.3 3.35 2.8 3.6 2.8 8.8 0 3.05-1 6.6"/><path fill="#0d131a" d="M81.85 1Q85.5.75 89 3.55l.95.8.05.05-.6.6q-.5-.5-1.65-.8l-2.3-.2q-5.55.55-14.05 7.15-8.15 6.35-11.4 12.1-1.4 2.45-1.75 10.3l-.1 1.2-2.75-.6v-.45q-.2-7.65 1.2-11.5 1.65-4.45 10.85-12.55 9.6-8.4 14.4-8.65"/><path fill="#ecde7b" d="M85.1 2.8q-5.95.6-14.75 7.55-8.15 6.5-11.3 12.05-.8 1.5-1.2 4.6l-.45 6.5v.15l-1.15-.3-.05-.6q0-6.95 1.2-10.3 1.55-4.2 10.6-12.1 9.4-8.3 13.9-8.55 2.1-.05 4.35 1H85.1"/><path fill="#0d131a" d="M83.55 13.8q10.6-4.75 15.4-4.6 2.7.1 5.8 1.7 3.5 1.8 5.35 4.65 2.2 3.45 2.4 9 .25 7.05-3.3 14.3l-.65-.5-.4-.75Q105.2 32.25 97 30.95q-6.15-.95-16.25.85-11 1.95-16.55 5.6-.4.3-.9 0l-1.15-.85-.65-.6.15-.5q.75-2.65 1.9-5.45 2.2-5.5 4.55-7.4 5.3-4.25 15.45-8.8"/><path fill="#ecde7b" d="M97.4 29.1q-8.05-1.3-20 1.95-9.95 2.75-13.35 5.35l-1.5-.95q3.8-9.4 6.9-11.9 5-4.05 14.8-8.3 10.1-4.35 14.8-4.25 5.2.15 8.55 4.3 3.3 4.1 3.3 10 0 2.35-.45 4.5-.5 2.4-1.75 5.6-3.35-5.1-11.3-6.3"/><path fill="#cbc06b" d="M95.55 24.2q11-2.05 15.3 2.65-.2 3.65-2.15 8.55-3.35-5.1-11.3-6.3-9-1.4-21.85 2.5 10.6-5.7 20-7.4"/><path fill="#0d131a" d="M83.95 14.45q10.2-4.4 15.1-4.3 2 .1 4.1 1 2.5 1.1 4.4 3.05h.05l.45 1.1q-3.8-3.7-19.45 1.6-14.25 4.85-18.15 8.8-2.4 2.15-6.3 11.35-.15.35-.65.2l-1.95-1.5.1-.3 2.3-5.3q2.6-5.35 4.95-7.25 5.2-4.2 15.05-8.45"/><path fill="#ecde7b" d="M84.85 16.75q-11.4 4.55-14.75 7.9-1.9 1.75-3.5 4.75-.95 1.8-2.4 5.4l-.6 1.45-1.05-.8q3.55-9.15 6.9-11.9 5-4.05 14.8-8.3 10.1-4.35 14.8-4.25 2.4.1 5.2 1.7-6.45-1.15-19.4 4.05"/><path fill="#d3d9db" d="M81.15 94.5q7.1-2.85 13.9-1 8.35 2.25 10.75 13.1 2.3 10-1.7 18.95-1.7 3.8-8.55.4-5.8-2.9-13.45-9.85-7.05-6.5-10.95-12-4.15-5.85-1.2-5.95 2.6-.1 5.75-1.3l5.45-2.35"/><path fill="#adb2b4" d="M89.85 92.7q2.75.1 5.2.8 8.3 2.25 10.7 13.6 2.2 10.45-1.8 19.45-.4.9-2.6 1.5-2.15.65-4.25.5-5.65-.25-1.9-4.45 4.45-4.95 3.15-15.25-1.4-10.85-8.5-16.15"/><path fill="#0d131a" d="M85.25 91.85l10.3.4q3.55.95 6.35 3.45 2.95 2.65 4.5 6.55 2.2 5.25 1.45 13.05-.7 7.3-3.15 10.55-2.05 2.7-2.05 1.9 0-.55.9-2.55 1.8-4.05 2.15-10 .4-6.75-1.6-11.6-3.15-7.85-9.25-9.45l-9.55-.4q-2.75.55-7.5 2.6-4.45 1.95-7.8 2.45l-2.8-.25q-.3-.65 2.7-1.1 2.55-.4 4.3-1.3l3.05-1.6q4.75-2.1 8-2.7"/><path fill="#0d131a" d="M86.75 103.4q-.05-2.55.25-2.25l.8 2.2 2.25 7.45q2.35 6.35 5.7 9.4 2.25 2 1.95 2.05l-2.5-1.2q-3.2-1.7-5.95-8.3-2.35-5.7-2.5-9.35m-7.1 15.4q.25-1.3.15-3.25-.1-1.7.25-2 .35-.3.85 1.65t0 3.95q-.45 1.6-2 4.7-1.6 3.2-3 8.85l-1.2 5.45-1.6-.2q1.2-8.1 4.75-14.6 1.4-2.55 1.8-4.55"/></svg>