<svg xmlns="http://www.w3.org/2000/svg" width="276" height="338" viewBox="-0.05 -0.2 275.55 337.8"><path fill="#d2ddf0" d="M39.3 80.3l.05 2.5q.3 2.9 1.85 4.85l2.15-3.4q2.35-3.5 3.45-3.85-3.1.15-4.5-1.05-2.15 1.2-3 .95m227.3-16.4q4.75 10.95 6.5 23.45 1.45 10.4.65 19.55-.45 5.15-1.9 9.5-1.45 4.2-3.6 6.8-3.1 3.75-7.9 4.85-.95 1.95-3.85 5.55-3.45 4.2-4.95 4.45-2.6.4-5.75-1-4.3-2-5.25-2.2-.8.2-2.1.9l-2.1 1.1-4.85 1.75q-8.6 2.55-18.3 1.65-9.85-.9-17.65-5.05l-5.55-3.05-2.7-2-5.9 6.75q-4 3.7-6.55 2.7-2.3-.9-7.25-2.3l-7.35-2.1q-9.9-2.15-14.3-2.1l-7.7 1.3-16.05 4.2q-11.45 3-15.55 3.4-14.05 5.9-19 13.75-2.6-5.65-7.2-10.5-4.15-4.4-5.15-3.8l-9.75 5.25q-8.1 4.05-11.45 4.75-1.45 1.3-1.8 3.55l-8.8.75-4.2.25q-1.15 0-4.05-1l-6.1-1.15q-3.9-1.1-7.75-2.75-9.8-4.25-14.4-9.55-2.85-3.3-3.85-5.05Q.7 132.3.9 127.8l.75-20.55q.4-13.7.15-18.6-.6-11.2 1.2-17.6 1.65-5.9 6.5-11.5l3.7-4.2 3.15-3.95q8.65-13.2 16-15.8l12.95-4.7q7.5-2.5 10.35-2.05 2.5.45 7.25 4 4.65 3.45 6.85 6.35 5.2 6.9 4.35 11.5-.55 3-4.2 5.85 1.5 2.75 1.65 4.7.15 2.2-1.2 4.55-.9 1.6-5.85 5.45-4.85 3.8-6.95 4.6 6-1.25 11.55-.9l8 .85q4-1.85 8.15-5.5 3.7-3.35 4.05-4.8.7-2.8.9-6.5l.15-5.7q.25-5.85.6-9 .55-5 1.75-8.9 1.05-3.45 5.85-7.15 4.55-3.55 10.9-6.15 6.95-2.8 13.75-2.9 6.65-.1 11.15 2.4 4.7 2.55 9.8 8.7l.85 1.8q.75 1 1.6.75.55-.2.95-1.7.4-1.55-.15-1.9 1.4.6 2.6 2.2.95 1.25 1.95 1.15.45-.05.95-1.9.45-1.9.05-2.25.9.35 2.05 2.5.8 1.45 2.05.35.7-.65 1.1-2.25l.5-2.55q4.5 3.3 5.25 4.8-.1-.2-2.25 1.95-2.3 2.2-2.9 3.45 1.9.6 6.8 2.9 4.3 2.05 6.1 6.5 1.9 4.85-.8 9.15l-1.6 1.5q-1.4 1.1-1.9.75-5.6-3.55-18.95-2.8-8.6.5-18.2 2.5-11.75 2.45-20.15 1.65l.35 2.1q.3.95 1.15 1.6 3.3 2.45 7.95 3.2l8.35.45 12.25-.5 12.2-1.15q12.85-1.2 14.55 1.55 1 1.6-1.45 4.85-2.35 3.1-5.5 4.8l2.25.15q1.35.1 2.75.75 4.15-3.3 9.25-4.5 3.45-.8 9.6-.9 4.5-.05 9.45 2.35 4.75 2.35 6.75 5.35l8.55-2.5q3.95-.85 6.95-.55 2.9.3 6.7 1.85.65.25 2.9 1.75l2.95 1.65 3.65-7q2.5-4.6 2.5-5.2l-.3-1.85-.55-1.9q-1.5.25-5.4-.1-1.2-.05-4.1-1.2l-3.85-1.85q-3.65 1-5.8.55-2.7-.6-4.65-3.55l-2.8.65q-1.9-.05-4-1.4l-1.45-1-1.1-1.2q-.95.35-3.25 0-2.2-.3-3.1-.8-1.5-.8-2.7-2.95-1.1-2.05-.95-3.3.75-5.85 5.4-13.45 4.8-7.9 8.9-9.2 10.5-3.4 24.65.45 16.55 4.5 28.7 17.25 3.05 3.2 5 8l3.8 11.8"/><path fill="#094b46" d="M106.15 141.85l4.8-.95 5-.2.95 29.05-13.45 1.8q-11.35 1.8-14.05 3.4 1.8-3.95 1.2-9.55-.55-5.35-2.95-9.65 2-3.15 5.95-6.55 5.65-4.85 12.55-7.35"/><path fill="#ffe100" d="M165.4 137.05q2.2 2.95 3.45 7.05 1.2 3.95 1.2 8.05 0 9.85-7.15 17.05-7.15 7.2-16.95 7.2-9.85 0-17.15-7.2-7.4-7.25-7.4-17.05 0-4.15 1.45-8.3 1.4-4.15 3.8-7.25l11.05-2.3q-4.4 2.7-7.45 7.5-3.3 5.15-3.3 10.2 0 8.05 5.4 13.4t13.45 5.35q8.1 0 13.55-5.25 5.5-5.35 5.5-13.35 0-6.5-4.55-12.1-4.5-5.6-10.6-6.65l5.9 1.05q6.35 1.3 9.8 2.6"/><path fill="#ffe100" d="M147.55 133.3q6.95.65 11.95 6.2 5.05 5.55 5.05 12.65 0 7.5-5.7 13.05-5.65 5.55-13.2 5.55-7.5 0-13.1-5.6t-5.6-13.15q0-5.95 3.8-11.1 3.75-5.05 9.25-6.9l7.55-.7"/><path fill="#ed8599" d="M159.4 64.25l-17.95 1.35-16.65.6q-13.85-.85-14.95-7 6 1.1 20.75-1.95l5.2-1.05 8.5-.6q4.8.65 9.6 3.5 4.75 2.75 5.5 5.15"/><path fill="#d2ddf0" d="M171.35 186.5q4.3-5.05 8.6-7.2 3.7-1.85 7.85-1.65 9.45.4 24.75 9.95 16.45 10.3 20.5 20.35l2.65 6.45q1.35 3.45 2 6.35 1.85 8.35 4.35 13.6 2.85 6 .35 11.1l-1.35 2.75q-.75 1.65-.9 2.95-.55 5.5-3.5 12.2l-5.75 11.9-3 6.35q-1.45 3.8-1.15 6.8.3 2.85 2.55 5.3 1.65 1.8 4.65 3.9L239 301q6.55 4.35 13.1 7.6 3.25.45 3.7 1.35 2.05-.9 3.5 1.1 1.15 1.6 1.3 3.9.1 2.3-1.55 4.45-1.8 2.45-3.8 1-.75 1.1-3.3 1.3l-3.85-.5q-1.8 1.4-4.15 1.8l-3.8-.1q-4.1 1.7-7.25 1.45-2.1-.15-4.9-1.35-2.1 1.55-7.55 2.3-5.05.7-8.5.15-5.45-.9-5.9-1.85-1-2-3.5-4.75-2.55-2.85-5.1-4.65-1.15-.8-4.7-2.65l-2.6-1.7q-1.2-1-1.45-1.55-.5-1.1-.6-6.25-.1-5.2.4-6.35.35-.9 1.85-3l1.95-2.4 1.65-2.65q.85-2.3.35-5.15l-.65-1.6-1-1.45-4.7-6.2q-2.8-3.75-3.05-4.55-.7-2.05-.25-8.4.4-6.1 1.3-9.35.7-2.4 6.25-6.75l2.35-1.75q.9-.95.15-2.45l-.55-2.3q-.4-1.3-1.5-1.45-.95-.15-2.8 0l-2.85.1q-2.95-.25-9.95-3.95-7.65-4.05-9.65-7.15l-.9-1.45-2.85-4.9q-1.3-2.2-2.95-3.45-1.05-6.1 2.05-14.35 3-8.05 8.6-14.6"/><path fill="#152139" d="M173.4 167.5l6.4-.45q.9 1.95 3.15 4.7 2.85 3.4 6.25 5.9-6.75 0-11.8 3.65-3 2.1-8.65 8.75-3.7 4.35-6.25 12.6-2.45 7.95-1.8 12.4-8.45-3.2-18.15-2.6-9.9.6-17.9 4.9 1.2-4.9-3.6-11.9-3.1-4.45-9.5-10.75-5.35-5.2-13.65-8.55-8.85-3.55-13.55-1.65 1-1.1 5.45-10.2l10.7-2q11.7-2.1 16.4-2.55l7.1 1.55 8.35 1.05q2.65 1.7 5.8 2.8 3.5 1.2 6.5 1.2 9.6 0 16.15-5 3.2-.45 7.05-1.7 3.7-1.15 5.55-2.15"/><path fill="#ffe100" d="M126.5 137.3q-2.3 3.25-3.7 7.05-1.55 4.2-1.55 7.95 0 5.25 2.7 10.65 2.5 5 6.45 8.5l-13.35-1.85-1.15-29.7q2.9-.9 10.6-2.6"/><path fill="#d2ddf0" d="M70.85 192.8q2.55-2.15 6.9-4.9 4.5-2.8 6.6-3.4l.3-.2q13.55-1.1 27.85 10.95 4.1 3.45 7.55 8.05 3.5 4.65 4.8 8.5l.2.5q.65 1.7.4 3.4-.3 2.5-2.3 5.75l-6.85 10.1q-1.05 1.5-4.15 6.7-2.25 3.8-4.6 6.4l-3.05 3.3q-1.8 1.6-3.7 2.5l-3.4.9q-2.4.45-3.3 1l-.7 7.85q-.3 4.1-1.25 8.8l-1.85 7.9q-1.3 4.5-3.15 7.4-1 1.5-4.4 4.55l-5.55 5.4q-3.35 3.65-5.15 7.35-1.05 2.15-.95 3.45.1 1.35 1.45 3.45 1.5 2.4 5 4.65 2.95 1.95 6.25 3.15l5.35-.3q2.55.25 5.15 2 2.9 2 2.75 6.15-.15 4.45-2.65 6.35-3.65 2.7-7.75 2.8l-7.75-1-2.8.75-2.6.45q-1.4.35-3 0l-2.85-.65q-1.45.85-5.25 1.3-4.25.5-5.4-.65l-1.9 1.05-2.7.8q-1.7.5-4.15 0l-3.45-1.1q-4.55 1.9-7.35 2.2-4.3.4-8.25-.95-.7-.45-1.8-4.2-1.2-4.05-1.2-6.9l.1-1.3q.25-2.25 2.25-4.7l3.45-4.55 1.25-1.8.8-1.95q-.55-1.55-.65-3.9-.1-2.75.65-4.3l2.15-3.2q1.4-1.95 1.65-3.45.35-2-.85-7.7-.95-4.5-2.05-8.05-.3-.9-.4-3.45-.1-3.55.45-9.55l.35-5.15q.35-3.1 1.35-4.9 1.3-2.45 4.05-5.05 1.35-1.35 4.95-4.25l8.25-6.6q-.2-1.7-.3-9.95-.05-8.55.05-10.95.15-5.6 1.05-7.3 2.9-5.4 8.8-12.1 4.4-5 7.3-7.45"/><path fill="#ffe100" d="M168.5 143.85q-1.4-4.3-3.35-7.4l7.7 3.2q.55 3.35.6 14.2.1 10.6-.35 14-3.15 1.3-11.3 2.9 2.8-2.1 5.25-6.9 3.1-5.95 3-11.85-.05-3.6-1.55-8.15"/><path fill="#094b46" d="M172.55 139.25q2.05.7 4.2.05 1.1-.3 1.75-.8l-.05.95q-.05 1.4.2 3.55-1.35 0-2.25 3.2-.85 3.05-.85 7.15 0 10.35 4.1 10.35.25 1.4 0 3.5l-6.25.5q.3-3.9.05-13.85-.3-10.25-.9-14.6"/><path fill="#ffe100" d="M141.3 142.3q2.05-1.1 7.05-.65l4.6.65q2.35 1.45 3.95 4.5 1.55 3.05 1.55 6.1 0 4.65-3.5 8.15-3.5 3.45-8.1 3.45-4.65 0-8.25-3.55-3.65-3.55-3.65-8.2 0-3 1.85-6.05 1.8-2.95 4.5-4.4m37 1q3.1 0 5.15 3.5 1.85 3.05 1.85 6.45 0 2.55-.9 4.95-.9 2.4-2.45 4.05-1.45 1.6-2.7 1.6-1.15 0-2.25-2.95-1.1-3.1-1.2-7.25-.15-8.05 1.6-9.95.35-.4.9-.4"/><path fill="#ffe100" d="M135.45 144.45q2.75-3.8 6.45-5.35l.3 2.3q-3.25 1.55-5.2 4.4-2.05 3-2.05 6.65 0 5.2 3.4 8.6 3.35 3.45 8.5 3.45 5.1 0 8.45-3.45 3.3-3.4 3.3-8.6 0-3.25-1.7-6-1.6-2.55-4.4-4.3l1-1.75q2.95 1.8 4.8 4.95 1.9 3.25 1.9 6.8 0 5.95-3.6 10-3.8 4.25-10.05 4.25-5.5 0-9.75-4.2-4.2-4.25-4.2-9.75 0-4.05 2.85-8"/><path fill="#b4a258" d="M157.45 17.3q-2-3.1-14.15-7.75l-4.35-2.2q-3-1.6-2.8-2.15 7.7 2.35 15.45 5.9 8.1 3.75 8.65 5.35.55 1.8-2.55 12.75l-.4 1.5q-.3 1.1-1.4.85-1.15-.25-.85-1.3 3.35-11.55 2.4-12.95"/><path fill="#b4a258" d="M157.45 17.6l.05.45q0 1.2-.6 4.35l-1.75 7.25-1.15-.75-1-.6q-.15-9-1.6-12.55l-1.15-1.9-1.75-2q2.75 1.3 5.55 3.1 2.85 1.8 3.4 2.65"/><path fill="#fff" d="M162 37.45l.2-2.35-.1-2.2q.3-.25 1.95-.8l.25 2.8-.25 3.25-2.05-.7M143.75 55.3l-1.1 3.85-1.65 4q-3.3-4.45-4.1-6.9l6.85-.95"/><path fill="#b4a258" d="M151.55 15.75q.65 1.55.85 6.1l.25 9.75q0 1.55-1.15.85L149.85 31q-.15-.2-1.5-.9l-1.3-.95-1.2-3q-1.15-4.3-2-6.2-1.4-3.1-3.8-5.05-2.3-1.9-10.2-5-8.6-3.35-14.85-4.45.95-1.55 2.2-2.75 1.65-1.55 2.9-1.6 4-.2 16.8 5.45 13.35 5.85 14.65 9.2"/><path fill="#922f00" d="M160.7 60.75l-1.3 2.5q-2.05-2.35-6.4-4.55-4.3-2.2-8.5-3.05 2.65-1.15 8.45-1.1l8.85.85.5 3.2-1.6 2.15"/><path fill="#fff" d="M164.4 62.85l.5 1.4-5.05-.5q1.2-3.15 2.3-4.9 1.2 3.1 2.25 4"/><path fill="#b4a258" d="M125.3 8.5q11.9 4.05 15.35 6.85 2.1 1.7 3.6 5.65l2.05 6.85.55 2.1.1 1.5q-.1 1.3-.5 1.45-.5.2-1.95-1.8-2.5-3.55-3.95-4.95-3.25-3.1-7.15-5.2-8.8-4.9-24.95 1.7-6.8 2.7-10.9 5.8 2.35-8.5 5.3-14.55 3.25-6.65 6.2-8.1 3.35-1.65 16.25 2.7"/><path fill="#ffe100" d="M102.3 168.9q-3.6 0-6.15-2.95-2.55-3-2.55-7.2t2.55-7.15q2.55-3 6.15-3 3.6 0 6.15 3 2.55 2.95 2.55 7.15t-2.55 7.2q-2.55 2.95-6.15 2.95"/><path fill="#fff" d="M139.2 41.25l-3.25.4q.9-2.5.85-5.15 3.1 2 4.7 3.8l-2.3.95"/><path fill="#d2ddf0" d="M197.5 62.6q-1.2-.95-1.15-3.1 0-1.75.7-3.4l2.5-.1q.35.65 2 1.95 3.4 2.35 7.3 1.85l1.1 1 1.45.9q3.6 2.6 8.95.85L221.6 64q-.35 2.05-1.2 3.55-.85 1.55-1.8 1.6-4.45.5-10.7-1.4-6.4-1.9-10.4-5.15"/><path fill="#fff" d="M164.2 62.05l-1.2-3-.95-3.35q2.8.7 4.8 1.85l-1.2 2.55-1.45 1.95m-21.85 3.4q1.4-3.95 2.65-5.6l1.6 2.2 1.6 2.9-5.85.5"/><path fill="#e50038" d="M162 35.35v2.1l-1.85-.4-.15-2 1.8-1.85.2 2.15"/><path fill="#fff" d="M123.05 31.5q1.9.15 5.2 1.15-.75 2.25-.5 5.1.2 2.8 1.3 4.95l-6.85-.4q-.8-.65-1.5-3-.75-2.45-.8-4.65 0-2.2.75-2.8.5-.5 2.4-.35"/><path fill="#e50038" d="M135.75 41.9l-6.6.6q-1.1-1.9-1.35-4.7-.3-2.85.4-5.05l3.1 1.3q2.45 1.1 2.45 1l2.85 1.5q.3 2.85-.85 5.35m82.6 51q-3.8-1.05-5.3-1.05l-7.15-.75-6.1-1.3q2.9-2.7 9.55-2.65 5.4.05 8.9 1.5 2.55 1.05 4.4 2.55 2.05 1.6 2.45 3.1-2.6-.25-6.75-1.4M67.2 125.5q6.15-1 10.55-4.3 2.6-1.9 5.9-6.05l.35.9-.95 3.55-1.35 3.35q-1.1 1.85-5 3.6-3.65 1.6-6.05 1.6-.8 0-3.45-2.65m132.25-28.8q.25-.35 1-.25l.65.15q15.95 5.9 24.75 8.1-4.1 1.45-11.2.5-7.05-.95-11.1-3.45-2.65-1.75-4.1-5.05m37.85-19.3l1.25-2.95q.75-1.85 2.05-2.55-2.8 17-3.3 27.15-1-1.6-1.9-5-.85-3.25-.85-5.3 0-2.9.95-6.4.75-2.7 1.8-4.95M262.7 98v-1.15q0-7.05-2.3-23.15 1.95 3.25 3.8 12.05 1.75 8.4 1.75 13.4 0 4-2.35 8.75-2.45 4.95-5.35 6.35Q262.6 103.1 262.7 98m-46.5 22.5l15.4.5q-1.65 2.45-7.7 3.25l-10.65-.4q-3.55-.85-6.55-2.55-3.45-1.95-4.3-4.15 5.4 2.2 13.8 3.35M13.3 98.9q.45-4.4 1.15-5.2 1.1 11.5 2.35 19.95 1.2 7.7 2.1 10.15.6 1.75 3.8 7.95l5.75 10.5Q23 139 19.9 135.3q-3.35-4-5.15-9.9-1.9-6.15-1.9-17.75 0-4.75.45-8.75m26.75 31.65q-6.25-3-11.55-19.3-2.15-6.75-2.75-12.2-.65-5.75.8-7.4 2.55 8.85 6.05 19.05 4.05 11.9 7.45 19.85m29.3-22.35l-1.5-.2-1.55-.4 6.3-4.45 7.3-5.85q-.3 4.25-4.3 7.55-2.75 2.35-5.55 3.15l-.7.2M251.5 72.1l.25 1.75q.15 2.75.65 4.55.6 2.45.6 5.25 0 2-.6 6.6l-.6 5.45q-.35 4.75-1.35 8.65-1 3.8-2.25 5.2l-.05-3.15v-9.95q.05-6.3.5-9.95l.55-6.05.25-5.3q.05-1 .5-2.65.5-2.05.85-2.15.35-.1.7 1.75M59.15 97.8q-.15-2.25 3.2-5.9 2.75-3 5.7-4.85 2-1.3 4.9-2.1 2.9-.85 4.55-.55-3.5 2.1-9.3 6.35-6.2 4.45-9.05 7.05M38.1 91.85q-1.85-1.65-.45-2.15 7.8 5.05 10.8 9.15 4.3 5.75 4.7 15-7.3-15.05-15.05-22"/><path fill="#ce7486" d="M135.9 56.15q-5.75 1.5-9 4.05t-3.7 5.85Q110.9 65 109.85 59.2q6 1.1 20.75-1.95l5.3-1.1"/><path fill="#b5bfd0" d="M160.7 215.45q-.9-5.2.85-10.8 1.3-4.1 4.75-10.25-.8 4.3-.6 8.8.25 5.4 2 7.6 5.25 4.8 15.7 9.75 11.45 5.45 16.3 9.15l9.7.35 9.1.35q1.75 3.15 2.15 6.85l.15 6.25q5.65 7.55 11.35 10 1.85.25 4-1.2l3.75-2.6q0 5.45-3.85 13.9l-5.7 11.95-3 6.3q-1.5 3.8-1.2 6.8.3 2.8 2.55 5.35l2.5 2.05 2.85 1.9q-13.65-.8-22.8 3.45-11.2 5.15-9.95 16-2-2.1-3.75-3.3l-2.35-1.4-2.4-1.3-2.55-1.7-1.5-1.55q-.45-1.15-.7-5.9-.2-4.85.25-5.95l1.85-3 1.8-2.6 1.45-2.75q1.2-3.45.85-5.5l-.65-1.6-1-1.45-2.4-3.2-2.45-3.15q-2.8-3.8-3.05-4.5-.65-2-.15-8.25.45-5.85 1.35-9.1.75-2.8 5.7-6.7l2.65-1.85q1.15-1 .4-2.5l-.85-2.2q-.6-1.25-1.7-1.45l-2.85.05-2.85.05q-2.85-.25-9.8-4.25-7.45-4.25-9.45-7.4l-.9-1.5-2.75-4.75q-1.25-2-2.8-3.25"/><path fill="#dcc200" d="M175.85 150.75q.45 3.05 3.5 4.75 2.95 1.6 5.85.8-2.3 5.55-3.35 6.5-1.6 1.4-2.75 1.4t-2.2-2.55q-1.15-2.7-1.2-6.2-.1-2.5.15-4.7"/><path fill="#ffe100" d="M135.3 144.45q2.7-3.75 6.45-5.35l.3 2.35q-3.25 1.55-5.2 4.4-2.05 3-2.05 6.65 0 5.15 3.4 8.6 3.4 3.45 8.5 3.45t8.45-3.45q3.3-3.45 3.3-8.6 0-3.25-1.7-6.05-1.6-2.55-4.4-4.3l1-1.7q2.95 1.8 4.8 4.95 1.9 3.25 1.9 6.8 0 5.95-3.6 9.95-3.8 4.25-10.05 4.25-5.5 0-9.75-4.2-4.2-4.2-4.2-9.7 0-4.1 2.85-8.05"/><path fill="#b4a258" d="M157.45 17.3q-2-3.1-14.15-7.75l-4.35-2.2q-3-1.6-2.8-2.15 7.7 2.35 15.45 5.9 8.1 3.75 8.65 5.35.55 1.8-2.55 12.75l-.4 1.5q-.3 1.1-1.4.85-1.15-.25-.85-1.3 3.35-11.55 2.4-12.95"/><path fill="#978949" d="M157.45 17.6l.05.45q0 1.2-.6 4.35l-1.75 7.25-1.15-.75-1-.6q-.15-9-1.6-12.55l-1.15-1.9-1.75-2q2.75 1.3 5.55 3.1 2.85 1.8 3.4 2.65"/><path fill="#fff" d="M143.75 55.3l-1.25 4-1.75 4.1q-.85-1.1-2.05-3.4l-1.8-3.75 6.85-.95"/><path fill="#978949" d="M133.6 11.45q-5.1-2.25-10.55-3.95 11.85.85 19.55 6.65 8.85 6.7 7.8 17.4l-.55-.55q-.15-.2-1.5-.9l-1.3-.95-1.2-3q-1.15-4.3-2-6.2-1.4-3.1-3.8-5.05-1.55-1.3-6.45-3.45"/><path fill="#fff" d="M164.4 62.85l.5 1.4-5.05-.5q1.2-3.15 2.3-4.9 1.2 3.1 2.25 4"/><path fill="#b4a258" d="M125.3 8.5q11.9 4.05 15.35 6.85 2.1 1.7 3.6 5.65l2.05 6.85.55 2.1.1 1.5q-.1 1.3-.5 1.45-.5.2-1.95-1.8-2.5-3.55-3.95-4.95-3.25-3.1-7.15-5.2-8.8-4.9-24.95 1.7-6.8 2.7-10.9 5.8 2.35-8.5 5.3-14.55 3.25-6.65 6.2-8.1 3.35-1.65 16.25 2.7"/><path fill="#dcc200" d="M109.45 153.3q1.4 2.5 1.4 5.5 0 4.15-2.55 7.15-2.55 2.95-6.15 2.95-2.15 0-4.3-1.6-2-1.5-3.25-3.7 6.8 1 11-3 3.2-3 3.85-7.3"/><path fill="#b5bfd0" d="M197.4 62.6q-1.15-.9-1.15-3.05 0-1.75.7-3.45l2.5-.1q.55.95 2.05 1.95 3.2 2.35 7.3 1.9l1.1 1 1.45.9q3.65 2.55 8.9.8l1.25 1.5q-.3 2-1.2 3.55-.85 1.5-1.8 1.6-4.45.45-10.65-1.4-6.4-2-10.45-5.2"/><path fill="#fff" d="M164.2 62.05l-1.2-3-.95-3.35q2.8.7 4.8 1.85l-1.2 2.55-1.45 1.95m-21.85 3.4q1.4-3.95 2.65-5.6l1.6 2.2 1.6 2.9-5.85.5"/><path fill="#b5bfd0" d="M93.15 51.15L95 57q2.8 8.5 9.4 11.35 13 5.7 22.15 8.05 20.35 5.2 32.15-.8l6.45.85q-4.15 5.2-13.75 8.65-4.3 1.5-5.3 2.1-1.95 1.15-1.45 2.75-1.35-2-3.9-3.15l-5.1-1.65-6.85-2.1-7.3-2.3q-13.6-5.7-22.5-5.95-9.3-.2-15.2 5.4-3.9-2.2-6.65-4.1 9.35-6.3 11.9-10.85.6-1.05 1.1-6.65.55-5.9.35-11.15 1.6.85 2.65 3.7m78.15 87.45l-9.35-2.5q-8.45-2.35-15.25-2.85-7.8.65-21.85 4.5-14.8 4.05-18.9 4.55-12.65 5.6-18.3 13.6-1.85-5.55-5.75-9.25-4.4-3.55-6.35-5.65 8.2-4.75 11.35-9.4 3.45-5.1 3.3-13.45 1.8 4.35 5.25 7.35 5.2 4.55 13 4.55l17.55-1q11.75-1.3 18.35-3.7 2.45-.85 5.15-4.3 2.35-3.05 2.6-4.55.4.6.65 5.45.2 4.35 1.55 5.3 3.15 2.2 12.55 3.75 8.75 1.45 13.8 1.05 1.3-.1 5-2.9l4.9-3.5-5.75 7.6q-4 5.05-7.1 5.95l-2.8.15-3.6-.75m32.65-61.1q6.3-2.8 13.6-1.2 5.85 1.35 10.65 4.95-.85.85-.75 4 .1 3.3 1.3 10.8-1.25-1.5-3.05-5.35-1.85-3.9-3.35-5.8-5.25-6.7-18.4-7.4m-80.7 131.55q1.1 1.2 1.65 4.2.45 2.65.25 4.55-.35 3-10.2 16.6-10.15 14.1-14 15.7l-3.5 1.5-4.3 1.55.75.5q-.4 11.5-3.35 21.1-1.9 6.3-4.05 9.65-1 1.55-4.4 4.6l-5.4 5.25q-3.15 3.45-4.95 7.2-1 2.1.3 5.4 1.3 3.35 4.2 5.9-8.2-3.65-23.45-2.1-15.65 1.55-23.55 7.25l2.5-3.35 1.25-1.8q.65-1 .75-1.95-.55-1.5-.65-3.9-.05-2.75.7-4.35l2.15-3.2q1.4-1.95 1.65-3.45.35-2-.85-7.7-1-4.7-2.1-8-.35-1.3-.35-3.45-.15-4 .4-9.55l.4-5.15q.35-3.15 1.3-4.95 1.3-2.4 4.05-5 1.45-1.4 4.95-4.25l7.7-6.3q.85.55.35 2.15-.4 1.4-1.5 2.7-1.2 2.5-.2 6.05 1 3.5 2.8 2.55-1 2.9-.95 5.15 0 1.05 1.65 3.75 1.9 3.2 3.8 3.95 1.75.75 4.2.5 3.2-.35 4.95-.1 4.05 3.1 8.2.9l6.65-5.35q.85-8.4 1.75-11.1.8-2.4 2.45-2.45-.15-.15.15-.65l.45-.5q.95-.5 7.35-7.1 6.65-6.9 7-8.25.5-2 2.6-6.4 2.45-5.05 3.95-6.2l5.45-3.9q4.65-3.5 9.05-8.2m-51.3-160.4l.8-4q2.95 5.7.2 9.4-1.4 1.85-3.4 2.55 1.65 2.9 1.9 4.9.2 1.65-.55 3.4-2.35 5.3-10.05 9-3.85 1.85-7.2 2.65-5.2 4.05-8.55 3.85-1.05-.05-1.75-.5l-.55-.45-3.5 1.45q2 6.75-1.75 8.5-3.35 1.6-8.8-1.3-5.6-2.95-8.25-7.95-3.1-5.85-.05-11.4 1.85-3.35 4.65-3.1 2.35.2 3.15 1.85l3.05 5.75q5.35 4.2 10.25 2.2 4-1.7 5.4-5.9 5.9-1.45 8-5.6l.85-2.75.05-1.15q5.3 0 8.2-3.4 1.45-1.75 1.85-3.45 4.4-.45 6.05-4.55"/><path fill="#b5bfd0" d="M75.25 133.45q12.5-5.15 14.9-11.1l-1.05 3.6q-2.3 5.95-6 9.55-4.5 4.35-14.65 9.85-10.15 5.45-14.75 6.05l-.55 1.85q-1.1 1.85-3.55 2.05l-8.8.8q-1.55.2-3.7-.7l-1.8-.9-4.2.1q-3.85-.75-8.45-2.8-12.3-5.6-19.25-15.65 16.75 10.8 33.6 7.4 15.95-3.2 25-17.3-.85 4.05-2.35 7.3-1.55 3.4-1.9 4.9 6.6-.5 17.5-5m135.25 6q-9.6-1.8-17.45-5.65l-5.95-3.45 5.05-11.25q4.95 5.95 16.75 9.05 14.3 3.75 28.1-1.05l11.15-4q4.15-1.5 7.1-1.8 5.6-.5 9.95-3.15 6.4-3.9 9.05-12l-2.3 8.65q-2.75 8.95-5.15 10.35-2.35 1.45-4.55 2.3l-1.7.6q-7.15 10.05-8.95 10.5-.95.25-5.75-1.65-4.9-1.9-5.85-1.85-3.5 1.85-8.95 3.3-10.9 2.9-20.55 1.1m33.75-75.95q-3.15 5-12.05 9.3l2.05-4.55-.8-2.75-6.3-.7q-6.45-1.05-6.95-2.7l-4.75.45q-4.9-.15-5.85-3.3-1.8.3-3.95.05-4.3-.5-5.85-3.35-4.75.85-7.45-1.65-3.3-3.15-1.35-10.4.65 3.8 3.7 5.65 2.75 1.65 6.35 1.2.25 1.9 3.15 3 2.9 1.15 5.95.4 1.7 3.45 5.2 4.1 2.55.45 4.95-.55.15 1.1 2.55 1.75 2.6.7 4.5-.3 1.4-.7 2.65-3.1 1.5-3.05 1.75-3.3 2.2-2.5 8.25-2.2 6.35.35 6.35 4.25 0 5.35-2.1 8.7"/><path fill="#dbdcdc" d="M137.6 58.2l-.6-2.15 7.6-.8-1.1 2.25q-1.95-.6-4.15 0l-1.75.7m24.7-.6l-.25-2.3 5 2-.7 2.3q-.5-1.25-2.3-1.75l-1.75-.25m3 7.15l-6.1-.4 1.45-2.85.85.95 3.4.2.4 2.1m-21.85-2.85l.65 1.45q1.15 1.3 3.6.25l.6 1.15-6.05.65 1.2-3.5"/><path fill="#0d131a" d="M122.75 18.2q7.05-.4 11.7 2.15 4.8 2.7 10 9.15.2.25.2 1.35t-.2.85q-1.95-2.5-4.85-5.2-3.25-3-5.85-4.45-4.4-2.45-10.9-2.2-6.45.2-13.45 3-6.15 2.45-10.5 6.1-4.3 3.55-5.4 7.1-1.2 3.9-1.75 8.9-.35 3.15-.6 9l-.55 8.7q-.5 4.4-1.75 7.3-1.1 2.55-1.75 2.6-.7 0 .2-2.5 1.15-3.25 1.65-7.55l.6-8.6.35-9.3q.35-5.5 1.55-9.35 1.15-3.7 5.85-7.45 4.55-3.55 11.15-6.25 7.45-3 14.3-3.35m-7.3 61.15q-11.05-4.05-18.5-3.45-7.15.6-13.4 5.3l-.9-1.4Q89.3 74.65 96 74q7.35-.75 18.55 3.35l17.65 6.35q4.5 1.15 4.45 1.6l-4.65-.35q-2.5-.45-16.55-5.6m65.5-9.05q6.15-.1 11.85 2.55 4.85 2.25 8.4 6l-1.15.75q-3.35-3.4-8-5.35-5.4-2.3-11.15-2.1-9.1.4-16.95 6.15l-5.3 4.15Q155.9 84.55 154 85l-2.3.1q-.2-.4 1.85-1.15 1.95-.7 4.85-3.05l5.5-4.5q7.9-5.9 17.05-6.1m-18.65-6.8q4.3.25 5.55 2.2.9 1.4-.35 3.95-1.65 3.45-6 6.15-4.85 3-10.95 3.6l-3.4-.2q-.6-.55 2.25-.85 5.9-.6 10.8-3.75 4.15-2.6 5.6-5.55.8-1.65.25-2.55-.9-1.45-4.8-1.6l-9.4.55q-25.75 2.55-34.25 1-4.15-.8-6.25-2.75-1.65-1.55-2.7-4.7-.1-.25.7-.4.85-.1.95.15 1.65 5 9.25 6.2 8.9 1.4 32.2-.9l10.55-.55"/><path fill="#0d131a" d="M164.65 37.95q5.05 2.45 7.3 6.5 1.9 3.4 1.45 7.05-.35 2.6-2.05 4.6-1.65 2-3.75 2.45l-.55-.15q-5-3.55-17.85-2.95-8.8.4-18.6 2.5-15.75 3.25-21.45 1.7-4.7-1.3-6.3-7.6-.6-2.55-.25-3.15.35-.65 1.25 1.65l2 4.45q1.35 2.05 3.65 2.85 5.25 1.95 20.8-1.3 9.8-2 18.2-2.5 13.4-.75 19 2.8 1.6-.4 2.7-1.9t1.35-3.65l.05-1.1q0-3.05-1.8-5.8-2.1-3.2-6.25-5.2-5-2.4-12.55-.8-5.25 1.1-15.05 5.1-3.25 1.3-2.7.6.5-.75 3.75-2.4 8.5-4.25 14.85-5.3 7.15-1.15 12.8 1.55"/><path fill="#0d131a" d="M164.9 31q1.05 2.35-.15 7.75l-.85.1q-.8-.15-.75-.4.95-4.35 0-6.6-1-2.2-5.1-5.15-.25-.15.15-.95.4-.8.65-.65 5.05 3.6 6.05 5.9M89.25 86.2q1.4 2.15 1.25 3.05-.2.9-1.7-1.05-4.1-5.2-6.6-7.4-4.15-3.6-8.65-4.25-6.7-.95-12.65-.25-5.45.65-9.7 2.6l1-1 .9-1.15q9.95-3.5 20.65-2 5.1.7 8.95 3.75 3.3 2.6 6.55 7.7M41 87.5q1.1-4.05 5.3-7.2h2.3q-2.45 1.5-4.15 3.75-1.55 2.05-2.15 4.25l-.7-.1q-.65-.45-.6-.7"/><path fill="#0d131a" d="M73.05 48.65q-.3-2.75-3.4-7.45-3.45-5.25-7.8-8.45-5.5-4.05-10.45-3.15-2.35.45-7.75 2.4-5.25 1.85-10.95 4.3-3.55 1.55-6.35 4.1-2.85 2.55-5.55 6.7l-4.65 5.8q-6.5 7.5-9.25 12.65-4.7 8.8-4.2 18.55.4 7.3-.4 29.75-.45 12.4-.35 15 .4 7.85 9.75 15.3 8.45 6.7 19.75 9.85l4.6.4 2.3 1.2-7.25-.3q-12.9-3.65-21.15-10Q.45 138 0 129q-.05-1.35.25-6l.5-9.2Q1.4 95.95.7 83.25.2 73.2 4.85 64.7q2.4-4.4 9.4-12.45l2.8-3.2 2.65-3.4q2.85-4.2 5.8-6.8 2.95-2.65 6.65-4.25 14.65-6.25 18.9-7.05 2.7-.5 5.85.45 3.1.95 6.1 3.15 4.55 3.35 8.25 9.4 3.25 5.25 3.6 8.45.4 4-2.05 6.4-2.1 2-5.85 2.45-.3.05-.4-.65-.05-.65.2-.7 2.5-.3 4.4-2.25 2.25-2.35 1.9-5.6M87.6 97.5q.2-3 .8-2.95.6 0 .55 3-.05 4.35 1.85 15.05 1.25 10.1-1.65 16.35-3.25 7.05-14.4 14-9.6 5.95-21.25 9.75.25-1.35.6-2.05 11.6-3.9 20.35-9.5 10.2-6.55 13.2-13.5Q90.1 122 89 111.45L87.6 97.5m90.7-12.35q-2.95-1.6-2.45-2.15.45-.55 3.4 1.15 5.45 3.1 9.7 7.8 4.55 5.05 4.55 8.65v.45q0 20.5-2.35 24.75-3.8 6.8-8.5 11.1-5.3 4.8-8.95 3.55-17.7-5.9-28.6-6.8-.25-.05.4-.55.7-.5.95-.5 4.85.05 15.2 2.45 8.35 1.9 12.55 3.3 2.7.9 6.8-2.75 4.15-3.75 8.1-10.9 2.35-4.1 2.3-22.8v-.45q0-3.25-4.2-8.25-3.85-4.55-8.9-8.05"/><path fill="#0d131a" d="M74.6 142.1q-.3-.1.3-.8.6-.7.9-.55 3.75 1.7 7.2 5.55 3.45 3.9 4.8 7.95l-.25 1.2q-.35.9-.45.55-1.2-3.7-5.2-8.05-3.85-4.3-7.3-5.85"/><path fill="#0d131a" d="M94.65 147.6q5.85-4.4 12-6.25h4.7q-8.35 2.15-14.4 6.4-5.2 3.6-8.25 8.25 3.75 8.95 1.4 18.8-1.95 8.25-4.9 9.55l-2.35 1.1q-1.75.8-1.7.5.05-.4.55-.85l1.15-.9q4-3.55 5.75-10.75 2.1-8.85-1.6-17.2-.15-.45.05-.8 2.4-3.9 7.6-7.85"/><path fill="#0d131a" d="M144.2 90.5q-1.55-2.35-.8-2.55.75-.15 2.6 2.2 2.4 3.05 4.15 6.1 2.2 3.95 2.45 6.65.25 3.25.1 11.9-.2 9.45-.8 11.2-.9 2.75-2.2 4.55-2.8 4.05-7.1 4.15-4.4.15-13.7 2.95-11.1 3.35-17.8 4.4l-6.95.35q-3.05-.45-6.3-2.8-2.2-1.6-5.35-4.85l-4.65-4.8q.7-1.05.75-1.85l5.6 5.35 5.1 4.6q2.3 1.9 4.6 2.45 2.55.6 6.5-.05 4.15-.7 17.05-4.25 10.95-3 15.1-3.1 3.2-.05 5.25-2.9 1.15-1.6 2.15-4.65l.05-.15q.55-1.55.65-10.05.15-8.05-.15-11.45-.4-4.55-6.3-13.4m51.3-7.2q-1.85 1.65-1.85.8 0-.9 1.85-2.55 7.25-6.4 17.5-6.2 9.55.2 15.35 5.6.25.2-.2.7-.45.5-.7.3-5.05-4.75-14.3-4.9-10.35-.2-17.65 6.25m46.25 51.2q-8.85 6.85-23.9 6.65-17.3-.25-31.7-10.65l.85-1.55q13.5 9.75 30.55 10.3 15.5.45 24.15-6.25 1.95-1.55 2-.8.05.75-1.95 2.3"/><path fill="#0d131a" d="M251.45 37.15q7.45 5.95 10.65 11.4 1.95 3.3 3.35 9.05.65 2.65 3.25 10.3 3.65 10.4 4.7 15.05 2.1 9.4 1.85 20.75-.15 8.25-3.45 15.15-2.2 4.65-4.35 6.4-1.5 1.3-3.5 2.1l-2.95.95q-1.75.5-2.15.8-2.35 1.75-2.7 1.15-.35-.6 2.05-2.3.75-.6 3.35-1.25l2.15-.7 2.55-1.75q1.75-1.7 3.45-5.1 3.35-6.75 3.55-15.45.25-11.35-1.65-20.5-1.15-5.55-4.4-14.85l-1.85-5.5-1.2-4.5q-1.3-5.5-3.1-8.55-3-5.1-10.2-10.9-11.6-9.25-26.1-11.95-11.8-2.2-19.8.4-3.95 1.25-8.55 8.7-4.45 7.2-5.15 12.75-.4 3.3 3.3 5.55 3.35 2 5.55 1.25l.45.55q.2.65-.05.75-3.35 1.1-7.4-1.4-4.45-2.7-3.9-7.15.75-6 5.75-13.45 5.1-7.6 9.6-9.05 8.4-2.7 20.25-.7 14.85 2.5 26.65 12M179.7 138.3l-.6 4.9-1.7.7q.2-4.25.5-5.05.05-.25.95-.45l.85-.1m1 28.5q.6 1.9 3.3 5.1 3.65 4.25 7.95 5.9l-3.35.3q-4-1.85-6.65-5.3-1.5-1.95-3-5.25l-.55-4.5 1.7.8.6 2.95m-64.05 3.8q-15.65 1.65-27.1 4.9v-1.7q11-3.05 27.1-4.9l13.9 1.75q1.85 1.5 3.7 2.4-11.15-.55-17.6-2.45"/><path fill="#0d131a" d="M179.9 166.35l.05.95.2.75-6.85.4q-4.2 2.4-13.7 3.7 1.35-.8 2.55-2.3 6.3-1.05 10.8-3l6.95-.5M81.45 184.8q6.45-3.6 15.5-.4 7.95 2.85 15.8 10 7.4 6.7 11.15 13.85 3.9 7.5 1.55 11.3-8.55 13.75-15.1 22.3-6.55 8.55-9.2 9.45l-4.95 1.35q-3.7 1.3-5.2 2.95-2 2.25-2.1 1.4-.05-.85 2.05-2.9 1.6-1.55 5.25-3.1 3-1.25 4.5-1.45 1.9-.25 7.75-8.1 5.9-7.9 14.75-22.1 2.6-4.2-1.3-11.25-3.6-6.45-11.05-12.65-7.55-6.3-15.05-8.95-8.35-3-13.35-.15-5.2 3-10.65 7.5-3.55 3.05-7.35 7.15-5.9 6.4-8.75 11.7-1.4 2.65-1.15 22.55l-.05 6.25q-.1 1.8-.55 3-.55 1.45-2 3.2-1.8 2.2-2.25 1.75-.5-.45 1.35-2.7 1.1-1.4 1.5-2.7l.35-2.6v-6.2l-.1-14.7q.15-7 1.1-8.75 2.85-5.3 8.65-11.85 4.35-4.9 7.55-7.6 3.8-3.3 11.35-7.55"/><path fill="#0d131a" d="M53.7 240.05q.25-.15.5.7t0 1q-3.7 2.2-9.55 7.5-6.65 5.95-7.55 8.7-.65 1.9-1.35 10.15-.75 9.1.05 11.65 1.1 3.4 2.1 8.05 1.2 5.7.85 7.7-.35 1.9-3.5 6.3-.8 1.2-.9 3.7-.05 2.3.55 4.3l-.7 1.15-.9.65q-.7-2.45-.65-5.95.1-3.85 1.25-5.1 3.1-3.3 3.45-5.25.25-1.6-1-6.75-1-4.15-2.35-8.35-.85-2.85-.1-12.35.65-8.65 1.4-10.8 1.05-3.15 8.4-9.45 6.05-5.15 10-7.55M91.4 270q1.95-8.9 1.55-16.75 0-.15.9-.5l.9-.05q.55 8.1-1.5 17.5t-5.5 14.8l-2.15 2.35-2.9 2.5q-3.45 3.2-5.05 5.05-2.9 3.25-4.65 6.85-.85 1.7-.8 3 .05 1.5 1.25 3.4 1.2 1.95 4.75 4.45 4.1 2.95 7.3 3.3.45.05-1.1.55l-2.05.25q-3.15-1.1-6.45-3.85-2.8-2.25-3.9-4-1.3-2.05-1.4-3.8-.1-1.75.9-3.95 1.85-3.7 4.95-7.2 1.75-2 5.3-5.3 3.5-3.15 4.4-4.6 3.3-5.15 5.25-14m33.85-53.6q5.5-4.3 16.5-5.05 10.8-.7 18.1 2.45.3.15 1 1.65t.4 1.25q-5.05-3.95-18.6-3.2-13.8.8-17.4 5.65-.25.3-.25-1.1-.05-1.45.25-1.65"/><path fill="#0d131a" d="M187.6 178.85q-12-.5-21.05 16.9-3.3 6.35-4.8 12.55-1.4 5.9-.2 7 1.25 1.15 2.75 3.35l2.7 4.3.95 1.45q2 3.1 9.35 7.4 6.9 3.95 9.7 4.25l3.8-.15q3.05-.05 4.05.6 2.2 1.45 2.3 2.3.1.85-2.1-.55-1.45-.9-4.65-.75l-1.8.25-1.95.15q-3.1-.35-10.35-4.65-7.75-4.6-10-8.1l-.9-1.45-2.55-4.25q-1.4-2.25-2.55-3.2-1.5-1.35-.25-7.75 1.35-6.7 4.75-13.6 9.25-18.75 22.85-18.15 12.7 1.9 27.2 11.15 14.7 9.35 18.2 18.05l3.1 7.25q1.75 4.25 2.4 7.15 2 9.2 4.1 13.65 3.1 6.55.45 12.15-.9 1.8-3.55 4.65l-1.6 1.35-1.4 1.25q-1.65 1.95-1.9 1.45-.25-.55 1.2-2.7l2.8-3.1 2.65-3.35q2.45-5.15-.35-11.1-1.25-2.6-2.3-6.35l-1.7-7.1q-.6-2.8-2.35-6.65l-3.05-6.7q-3.85-9.55-19.05-19.2-14.6-9.3-24.9-9.75"/><path fill="#0d131a" d="M239.15 249.7q0-.3.8-.9.8-.6.85-.35.55 4.4-1.6 10.85-1.4 4.3-4.6 10.9l-1.5 3.05-4.05 8.15q-1.95 4.4-1.95 7.15 0 2.2 2.75 4.8l6.55 5.1.5.35 9.9 6.55q5.85 3.45 7.7 3.6l-3.75.15q-3.3-1.55-8.05-4.4-4.5-2.7-7.35-4.8l-.45-.35q-4.75-3.5-6.6-5.5-2.6-2.8-2.6-5.5 0-3.1 1.6-7.25 1-2.6 3.7-8.1l1.5-3.05 4.65-10.35q2.25-6.05 2-10.1m-51.5-2.8l4.05-3.1 2.35-2.25v-.25l-.5-2.25-.7-2q-.1-.15.65-.35.75-.2.9 0l.95 2.5q.7 2.45.05 3.2l-2.85 2.5-3.4 2.9q-1.8 1.85-2.2 3.35-.9 3.3-1.35 9.15-.5 6.2.15 8.2.25.7 3.05 4.5l5.5 7.35q2.8 4.45 2.6 7.95-.2 2.5-.9 2.65-.7.2-.7-2.2 0-3.1-2.8-7.65l-5.25-7.25q-2.85-3.6-3.25-4.9-.75-2.05-.75-4.4 0-3.35.5-7.65.5-4.05 1.1-6.25.5-1.75 2.8-3.75"/><path fill="#0d131a" d="M194.15 282.55l.65 1.05.55 1.7q-.75 3.05-4.15 7.95-1.5 2.1-1.85 3-.45 1.1-.25 6 .25 4.75.7 5.85.3.75 4.15 2.8 2.6 1.35 4.45 2.6 2.45 1.75 4.85 4.55 2.2 2.6 3.25 4.65.55 1.1 5.85 1.8 3.6.55 8.15.1 5.15-.5 7.2-2.05 1.2-.9 2.05-2.45.9-1.6 1.1-3.25.3-2.65-1.5-4.9-2.05-2.65-5.75-2.8-2.6-.15-5.2.75-2.55.9-4.25 2.5-1.55 1.55-1.6.7 0-.8 1.55-2.4 3.65-3.4 9.85-3.1 4.35.2 6.8 2.9 2.4 2.7 1.95 6.75-.25 2-1.25 3.8-1 1.8-2.45 2.85-2.3 1.7-7.95 2.35-5.1.55-8.9-.05l-4.65-1q-1.8-.6-2.25-1.55-.9-1.8-3.3-4.45-2.45-2.65-4.85-4.35-1.3-.9-4.3-2.5l-3.05-1.75q-1.35-.9-1.7-1.7-.6-1.35-.8-6.55-.2-5.3.35-6.65.25-.65 2.45-3.7l2.65-4.2q1.35-2.65 1.45-5.25M38.7 80.5q.05-.3.7-.2.7.1.65.35-.3 2.2.4 4.2t2.15 3q4.95 3.5 11.2 11.5 7.5 9.5 8.75 16.4.95 5.4.1 10.3-.5 2.75-1.2 3.65-.7.85-.2-1.9.4-2.2.3-5.75-.05-3.35-.45-5.6-1.15-6.55-8.45-16.1-6.2-8.15-10.8-11.4-1.8-1.25-2.65-3.55-.85-2.3-.5-4.9m18.2 59.2q0-2.25.5-1.85.5.35.5 2.6 0 3.2-2.7 9.6l-2 5.05q-.9 1.2-4.6 1.15h-3.25l-3.4.4q-1.65.45-4.75-.55-2.65-.85-3.85-1.7-1.9-1.25-1.95-2-.05-.75 1.85.5 1.1.75 3.95 1.6 3.2.95 4.4.6l6.7-.5q2.35 0 3.25-.9.7-.7 2.2-4.15l2.1-5.2q1.05-3 1.05-4.65m182.25-3.7q-.25.1.05-.65.35-.75.65-.8 1.6-.25 5.2 1.25 2.1.9 3.3 1.2l3.25.25q1.85-.3 5.9-5.9l2.1-2.85q.8-1.05 1.5-1.3.25-.1.65.15t.15.35q-.45.15-1.45 1.65l-1.85 2.8-3.4 4.45q-2 2.2-3.4 2.45-1.65.25-3.85-.5l-3.6-1.5q-3.4-1.35-5.2-1.05m-6.5-70.55q0-.25.7-.25.65 0 .65.25l.25 1.1.45 2.05q0 .55-2.8 5.95-3.5 7.15-3.7 7.95-.7 2.75.05 7.85.65 4.7 2.1 8.9.8 2.55-.1 1.8-.9-.75-1.75-3.3-1.45-4.3-1.9-8.3-.45-4.25.3-7.25.3-1.25 3.85-8.25l2.6-5.35-.35-1.7-.35-1.45m-27.2-25.15q1.3-1.45 2.15-1.5.9-.1-.35 1.4-2.35 2.85-4.4 7.6-2.2 4.95-1.9 7.25.2 1.75 3.7 3.05 3.35 1.25 5.2.7l.45.55q.15.65-.1.75-2.65.8-6.7-.65-4.3-1.55-4.6-4-.3-2.65 2.1-7.85 2.2-4.8 4.45-7.3"/><path fill="#0d131a" d="M215.2 42.6q1.4-1.7 2.3-1.8.9-.05-.55 1.65-2.1 2.55-4.4 8.3-2.3 5.7-2.2 8.15.1 1.7 3.5 2.7 3.5 1 6.15 0 .25-.05.5.55.25.65 0 .7-3.95 1.45-7.9.05-3.9-1.35-4-4.05-.15-2.6 2.1-8.1 2.25-5.4 4.5-8.15"/><path fill="#0d131a" d="M224.65 46.8q1.75-2.6 2.7-2.75.95-.15-.85 2.4-2.25 3.3-4.05 8.4-1.7 4.9-1.45 6.75.2 1.4 5.95 2.5 5.5 1.1 6.55.5.9-.5 1.6-1.3l.95-1.6.15-1.25q0-.85-.2-1.15l-3.55.7q-3.2-.05-2.85-.7.35-.65 3.2-.75l3.4-.6q.6.1.85.55.85 1.15.25 3.55-.25 1.05-1.25 2.3-1 1.2-2 1.8l-7.7-.4q-7-1.15-7.4-3.75-.3-2.15 1.5-6.95 1.8-4.85 4.2-8.25"/><path fill="#0d131a" d="M233.55 56.8q.6.75 1.45.9 1.5.25 2.4-1 1.45-1.85 1.8-1.6.4.25-.95 2.25-1.4 2.05-3.55 1.7-1.5-.3-1.9-.75-.7-.7-1.15-3-.4-2.15-.15-2.65.3-.55.9 1.4.55 1.9 1.15 2.75m11.2-1.55q.9-1.6 1.1-1.15.2.45-.5 2.2-1.05 2.8-3.8 5.55-.6.6-2.45.5-1.7-.1-2.5-.6-.2-.15.15-.7.35-.6.55-.45l1.5.25 1.8-.4 2-2 2.15-3.2m-47.8.85l1.1-.1q.9.1.75.35-.8 1.45-1 2.9-.25 1.95 1 2.9 3.75 2.8 9.5 4.6 5.75 1.8 9.7 1.4.9-.05 1.7-1.5.85-1.4 1.05-3.25.05-.3.8 0 .8.3.75.55-.3 2.3-1.15 3.85-1.05 1.8-2.55 1.95-4.2.4-10.8-1.6-6.6-2-10.5-4.9-1.7-1.3-1.5-3.6.1-1.65 1.15-3.55M55.3 42.95q-2.2-1.35-1.3-1.6.85-.2 2.95 1.2 3.9 2.7 7.2 6.8 3.2 3.95 3.6 6.4.3 1.65-.65 3.85-.9 2.2-2.45 3.6-2.65 2.5-7.7 1.3-.3-.05-.15-.7.2-.7.45-.6l3.45-.1q1.75-.45 3.15-1.75 1.25-1.15 1.8-2.6.6-1.45.35-2.75-.5-2.65-4-6.85-3.45-4.2-6.7-6.2"/><path fill="#0d131a" d="M44.8 47.75q.7-.25 3.15 1.55 3 2.1 6.1 6.2 3.55 4.7 4.15 8.25.55 2.95-2.3 6.3-1.7 2-4.4 3.2-2.4 1.1-4.55 1.1-.25 0-.25-.65 0-.7.25-.7 1.85 0 4-1 2.4-1.05 3.9-2.8 2.05-2.4 1.6-5.25-.45-2.55-3.15-6.7-3.15-4.75-6.95-7.6-2.3-1.7-1.55-1.9"/><path fill="#0d131a" d="M36.95 57.15q-2.6-2.3-1.35-2.05t3.85 2.55q4.15 3.7 6.35 7.4 2.4 4.1 2.05 7.65-.2 2.4-2.7 5.25-2.4 2.85-4.55 3.25l-3.9-.3q-3.15-.7-4.45-2.35-.9-1.15-1.65-3.55l-.9-3.2 1.6.8q1 3.55 2.25 5.1.9 1.25 3.45 1.65l3.25.1q1.75-.35 3.9-2.6 2.2-2.35 2.4-4.3.3-3.1-2.85-7.75-2.65-4-6.75-7.65"/><path fill="#0d131a" d="M28.7 70.05q-1.2-2.4-.9-3.1.25-.75 1.45 1.65.75 1.5 2.55 3.65l3.3 3.45q1.9 1.75.7 1.55-1.25-.15-3.15-1.9l-2.35-2.5-1.6-2.8m-7.95 1.45q-.6-2.4-.2-3.25.35-.9.95 1.55.95 3.85 4.45 6.1 3.35 2.15 6.95 1.55.25-.05.4.6.1.7-.2.75-4.7.8-8.2-1.55-3.2-2.1-4.15-5.75M68.4 56.85q-.2-.15.7-.55l1.1-.3q1 1.2 1.55 3.6.6 2.55.25 4.55-.65 4.05-10.35 10.1-4.15 2.6-7.6 2.65-2.35 0-3.75-.95-1.25-.9-.95-2.5.1-.25.65-.35.6-.05.55.2l.25.65.8.95q3.2 2.05 9.35-1.8 4-2.45 6.6-5.1 2.6-2.6 2.9-4.5.3-1.9-.5-4.05-.65-1.9-1.55-2.6"/><path fill="#0d131a" d="M52.95 76.25q.2-.2.6.4.4.55.2.75-3.85 3.45-7.45 3.75-2.7.2-4.05-1.15-.2-.2.3-.65.45-.5.65-.3 1.15 1.15 3.65.7 3.1-.55 6.1-3.5m62.1 64.1q0-.35.7-.35t.75.35l1.05 29.35q.05.35-.8.4-.85 0-.85-.35l-.85-29.4m56.2-1.2q-.15-.3.75-.25.9 0 .95.35.8 3.65 1.15 14.85.3 10.95-.2 13.7-.05.35-.9.2-.8-.15-.75-.5.5-2.75.05-14.75-.4-12-1.05-13.6M125.7 7.35q11.75 4.05 15.4 7 2.3 1.9 3.85 5.75L147 27l.6 2.1q1.15 3.8-.85 4.4-2 .55-3.05-3.35-1.2-4.55-2.2-7-1.75-4.15-4-5.95-2.25-1.75-10.7-4.95-8.85-3.4-13.05-3.85-3-.35-1.95-.75 1-.35 4.05 0 4.6.55 12.55 3.55 7.55 2.85 9.95 4.7 2.5 1.95 4.35 6.45 1.05 2.45 2.35 7.4.7 2.75 1.3 2.3.55-.45-.1-2.6l-.55-2.1q-1.25-4.5-2.1-6.45-1.5-3.5-3.6-5.2-3.4-2.8-14.6-6.65-12.2-4.15-15.55-2.5-3.15 1.6-6.2 7.25-3.1 5.65-5.3 13.95l-1.3 1.3q-1.15.8-1.05.45 2.35-9.65 5.7-16.2 3.4-6.75 7.05-8.55 3.85-1.9 16.95 2.6"/><path fill="#0d131a" d="M146.7 29.3q-.2-.2-.05-.95.2-.8.4-.6l3.5 3.3q.25.25.3 1.1 0 .9-.15.6L149 31.2l-2.3-1.9"/><path fill="#0d131a" d="M152.3 15.8q.7 1.8.95 5.6l.25 9.3q0 1.15-.6 1.9-.55.65-1.3.7-.75.05-1.25-.45-.6-.6-.65-1.7l-.15-3.15q-.2-7.1-1.25-11-.6-2.05-9.15-6.1-7.7-3.6-14.95-5.8-4.35-1.3-3.2-1.6 1.15-.25 5.5 1.1 6.6 2 13.3 5 9.25 4.15 10.05 7 .75 2.65 1.1 11.35l.15 3.1q.1.85.45.85.55 0 .55-1.2l-.25-9q-.2-3.75-.85-5.4-1.35-3.35-14.25-9.1-12.4-5.55-16.4-5.35-2.5.1-4.7 4.15l-.75-.1q-.65-.3-.5-.55 1.25-2.3 2.3-3.45 1.65-1.8 3.6-1.9 4.4-.2 17.05 5.65Q150.7 11.8 152.3 15.8"/><path fill="#0d131a" d="M147.95 8.25q12.4 4.85 13.4 7.95.45 1.25-2.65 12.4l-.4 1.45q-.65 2.35-2.2 2.4-1.6.1-1.6-2.1l.1-.85q1.2-4.15 1.8-7.65.6-3.45.35-4.25-.25-.8-3.15-2.55-3.05-1.8-7.1-3.45-.8-.35-2.25-1.65-1.45-1.3-1.05-1.15 12.95 4.85 15 8.05.95 1.45-2.25 13-.3 1.05.2 1.05.5-.05.8-1.2l.4-1.45q2.75-9.85 2.2-11.4-.6-1.95-9.75-6.05-8.7-3.9-17.3-6.35-1.4-.4-3.1-1.35l-1.2-.85q8.7 1.7 19.75 6"/><path fill="#0d131a" d="M152.85 28.8q-.25-.15-.05-.85t.45-.5q1.75 1.45 2.2 2.25l-.15 1q-.3.75-.45.5l-1-1.3-1-1.1m9.65 26.95q.05.9.7 3 .65 2.3 1.05 2.35.4.05 1.2-1.35l.95-2.4q.05-.25.6-.15.55.15.5.45-.25 1.35-1.4 3.35-1.2 2-1.8 1.95-.7-.1-1.75-2.3-1.1-2.3-1.45-4.85-.05-.3.7-.3.7-.05.7.25m-18.7.7q-.25-.05-.35-.65-.1-.6.2-.55 11.25 1.3 16.95 8.4.2.25-.35.65-.55.45-.75.2-2-2.45-5.7-4.65-4.8-2.85-10-3.4"/><path fill="#0d131a" d="M143.3 55.7q0-.25.75-.2.75.05.65.3l-1.95 5.6q-1.05 2.35-1.75 2.4-.65.05-2.5-3.1-1.75-2.95-2-4.2-.05-.25.55-.4.65-.1.7.2.2.95 1.45 3.2 1.25 2.3 1.65 2.35.4.05 1.4-2.65l1.05-3.5m-.2 5.7q1.2-2.45 1.95-2.5.7-.05 2.25 2.65 1.45 2.45 1.65 3.45.1.3-.5.45l-.6-.15q-.2-.8-1.35-2.7l-1.45-1.9q-.25 0-1 1.55l-1.35 3.45q-.1.25-.7.35-.65.05-.6-.25l1.7-4.4m19-3.2l.4 1.45q-1.15 1.35-2.25 4.5l-.7.2q-.55-.05-.5-.3l1.5-3.6q.95-1.9 1.55-2.25m2.8 3.1l.95 3.35q.1.25-.5.3-.6.05-.7-.25l-.9-2.5.65-.4.5-.5m-41.5-30.85q3.8.3 9.95 3.35 6.3 3.1 8.85 6.15.2.25-.35.5l-.75.05q-2.15-2.6-8.2-5.4-5.9-2.75-9.65-3.05-1.7-.1-2.1.3-.6.55-.6 2.45.05 2.45.7 4.45.55 1.75 1.25 2.35 1.45 1.2 13.15-.1l4.3-.7-4.15 1.85-9.5.9q-3.7.2-4.7-.65-.95-.8-1.6-3.45-.6-2.4-.6-4.6-.05-3.2.65-3.9.65-.7 3.35-.5m40.6.75q.35.05-.2 1.4-.9.35-2.35 1.7-1.55 1.55-2.25 3.05l-.7-.1q-.55-.4-.45-.65.8-1.7 2.85-3.6 2.1-2.05 3.1-1.8M94.9 185.25q2.8-.2 3.3.4.55.6-2.25.8-2.3.15-5.2 1.1l-2.45.95q-1.7.75-9.6 9.9-8.35 9.65-9.45 13.1-.6 1.9-1.25 9.3-.6 7.3-.25 8.2.6 2.15 2.6 5 1.65 2.3 1.15 2.65-.5.4-2.3-1.7l-2.15-3.35-1.1-2.1q-.45-1.2.35-8.9.75-7.5 1.4-9.55 1.2-3.75 9.65-13.75 8.05-9.5 9.95-10.3l2.3-.75q2.8-.8 5.3-1m20.5 20.9q2.5-1.9 2.05-.55-.4 1.4-2.9 3.35-7 5.35-12.5 11.75l-7.75 9.9-3.4 4.45q-1.45 1.75-2.5 2.2-3.35 1.4-4 .85-.6-.5 2.75-1.9.8-.35 2.4-2.3l3.4-4.4q5.05-6.6 8.85-10.75 6.4-7.1 13.6-12.6m94.65 18.35q3.2 2.6 6.25 3.7l4.1.45q1.95-.3 3.25-1.55 1.6-1.55 1.2-2.85-.8-2.7-.15-2.7t1.5 2.7q.3 1-.15 2.4-.45 1.4-1.4 2.35-3.2 3-8.85.95-3.2-1.15-6.55-4.1l-5.55-5.45-3.75-3.7q-4.35-3.9-9.2-7.3l-6.85-4.6q-2.85-1.85-3.9-2.85-1.25-1.15-2-2.75-.95-2-.6-2.55.35-.55 1.3 1.45.6 1.25 2.25 2.6l4.2 2.95q8.55 5.6 15.75 12l3.8 3.8 5.35 5.05m9.55 9.45q-.2-1.9.25-1.7.45.2.95 2.1 1.15 4.25 1.15 7.45 0 1.65 4.55 6.6 2.5 2.7 1.95 3.15-.55.45-2.95-2.2l-3.5-3.85q-1.9-2.3-1.9-3.7 0-3.1-.5-7.85M60.25 241q.85-3.05 1.35-2.45.5.55-.35 3.6-.95 3.35-2.3 6.1l-2.35 4.2q-1.4 2.35-1.6 3.15-.7 2.9.4 5.9.85 2.2 2.9 4.9 1.7 2.2.85 2.1-.8-.1-2.55-2.3-2.3-3.05-3-4.75-1.2-2.95-.4-6.2.2-.9 1.75-3.5l2.65-4.45q1.75-3.2 2.65-6.3m25.9 8.95q1.9-1.45 2.45-1.15.6.3-1.3 1.75-1.55 1.2-2.2 3.75-.4 1.45-.65 4.75l-.2 3.1q-.15 1.55-.75 2.3-1.5 2-8.2 6.35-1.3.95-3.2.35-1.45-.5-2.45-1.5-1.7-1.7-1.55-2.35.2-.6 1.9 1.15l1.85 1q1.35.35 2.15-.25 6.85-3.85 8.15-5.6.65-.85.95-4.65.3-4.6.6-5.6.5-1.9 2.45-3.4m-38.6 78.35q.25 3.4-2 5.8-2.5 2.75-7.95 3.15-4.7.35-8.65-1-1.4-.45-2.65-5.15-1.3-4.7-.9-7.9.15-1.45 1.75-3.75l3.15-4.3 3.25-4.7q1.5-2.6 1.65-4.35.25-3.2.85-2.9.55.35.4 3.7-.1 2-1.6 4.55l-3.25 4.75-2.85 3.9q-1.35 2.05-1.5 3.25l-.1 1.35q0 2.85 1.05 6.3 1 3.15 1.7 3.55 3.65 1.2 7.75.95 4.9-.3 7.1-2.7 1.5-1.55 1.15-4.6-.25-2.45-2.45-3.55-2.6-1.35-7.15-.15-2 .55-1.55-.25.5-.8 2.5-1.35 4.9-1.3 7.65.5 2.35 1.55 2.65 4.9"/><path fill="#0d131a" d="M57.05 322.2q2.65 1.85 3 5.65.15 1.75-.4 3.4-.55 1.6-1.6 2.65-2.3 2.45-7.75 2.3-3.85-.1-7-1.15-.25-.1.35-.7t.9-.55q2.4.8 5.75.9 4.75.1 6.75-1.95 1.65-1.7 1.4-4.8-.3-3.2-2.3-4.6-1.4-1-3.5-.95-1.85.1-3.6.95-1.85.9-1.7.15.2-.75 2.05-1.5 4.6-1.9 7.65.2"/><path fill="#0d131a" d="M60.4 322l-1.8.1q.05-.65 1.9-1.45 4.25-1.7 7.45 0 3.25 1.8 3.7 6.35.3 3.25-1.6 5.45-3.15 3.65-13.8 2.15-.25-.05.2-.65.5-.65.75-.6 8.75 1.2 11.55-2.05 1.55-1.7 1.25-4.4-.25-2.85-2.35-4.5-1.25-.95-3.15-1.1-2.05-.15-4.1.7"/><path fill="#0d131a" d="M77.55 321.2q-2.75-1.6-6.6-.55l-1.65-.1q.05-.6 1.75-1.1 9.35-2.65 10.55 6.05.55 3.95-1.65 6.3-3.2 3.5-12.95 1.9-.3-.05.4-.65.75-.6 1-.55 7.45 1.2 10.3-1.85 1.8-1.95 1.3-5.2-.5-3.05-2.45-4.25"/><path fill="#0d131a" d="M77.4 332.9q-.25-.05.5-.75.75-.65 1.05-.6 4.65 1.15 8.55.8 3.85-.3 6.1-2 2.7-2 2.85-5.85.15-4-3.05-6.1-2.3-1.55-5.7-1.6-3.35 0-6.75 1.55-2.3 1.05-2.1.35.2-.75 2.5-1.8 7.95-3.55 13.05-.15 1.9 1.3 2.9 3.2 1.05 2 .95 4.25-.05 2.25-1.05 4.2-.95 1.95-2.55 3.15-2.45 1.85-7.4 2.2-4.85.35-9.85-.85m136.75-24.4q-1.95-.6-1.7-1.1l2.2.05q.95.25 1.95.9l1.15.95q.15.25-.7.55l-1 .05-.85-.75-1.05-.65m15.75 2.15q3.5-1.4 5.75-1.65 3.45-.4 5.9 1.45 1.25.95 1.85 2.95.55 2 .2 4.25-.4 2.35-1.8 4.3-1.45 1.95-3.4 2.6l-6.15.4q-3.65-.4-4.6-1.35-.2-.2.25-.7.5-.5.7-.3.6.6 3.65.9l5.45-.4q3.35-1.1 4.05-5.2.3-1.8-.15-3.5-.4-1.65-1.35-2.35-1.9-1.45-4.2-1.45-2.3-.05-5.65 1.35-.25.1-.5-.55t0-.75"/><path fill="#0d131a" d="M242 323.85q-2.05.05-2.6-.5-.2-.2.25-.65.5-.5.7-.3l3.05-.15q3.3-.45 4.5-1.85.95-1.05 1.4-2.8.45-1.7.2-3.4-.3-2.35-1.7-3.2-2.8-1.7-7.65.5-.25.1-.55-.5-.25-.65 0-.75 5.9-2.85 9.4-.65 2.1 1.25 2.45 4.1.3 1.95-.4 4.2-.7 2.15-1.9 3.45-2 2.25-7.15 2.5"/><path fill="#0d131a" d="M247.95 321.25q.35-.6.6-.45l2.65.4q2.1-.1 3.1-1 1.1-1 1.7-2.75.6-1.75.45-3.55-.25-2.45-1.65-3.3-1.25-.75-3.1-.65-1.8.1-2.9.9l-.6-.4q-.4-.6-.2-.75 1.45-1 3.7-1.25 2.45-.25 4.05.7 2 1.25 2.3 4.4.2 2.1-.65 4.3-.8 2.15-2.2 3.35-1.5 1.35-3.9 1.45-2.05.1-3.4-.65-.25-.15.05-.75"/><path fill="#0d131a" d="M254.3 309.05l2.3-.2q1.6.2 2.65 1 2.75 2.2 2.25 5.9-.2 1.6-1.15 3.1L258.3 321q-1.8 1.25-4.1.8-.25-.05-.1-.75t.4-.65q1.7.4 3-.55 1.65-1.15 2.05-4 .4-3.1-1.6-4.65-.8-.6-1.85-.85-.85-.2-1.25 0-.3.1-.55-.55-.25-.65 0-.75M107.85 152.2q-2.35-2.75-5.65-2.75-3.3 0-5.6 2.75-2.35 2.7-2.35 6.55 0 3.85 2.35 6.55 2.3 2.7 5.6 2.7t5.65-2.7q2.3-2.7 2.3-6.55 0-3.85-2.3-6.55m1.3 14q-2.8 3.45-6.95 3.45-3.95 0-6.8-3.2-2.8-3.2-2.8-7.7 0-4.55 2.8-7.75 2.85-3.2 6.8-3.2 4 0 6.8 3.2t2.8 7.75q0 4.2-2.65 7.45m73.9-18.9q-1.75-3.1-4.4-3.1-.5 0-.75.4-1.5 1.65-1.35 8.9.05 3.7 1 6.5.9 2.65 1.9 2.65 1 0 2.3-1.45 2.85-3.15 2.85-8.1 0-3.05-1.55-5.8m-4.4-4.95q2.7 0 5.1 2.85 2.7 3.2 2.7 7.85 0 2.6-1 5.2-.9 2.5-2.5 4.25-1.75 2-3.5 2-3.95 0-4.4-9.65-.4-9.2 1.65-11.55.8-.95 1.95-.95m-15.4-6.45q1 .15 2.15.65 5.5 7.1 5.5 15.4 0 10.35-7.45 17.75-7.4 7.35-17.75 7.35t-17.8-7.3q-7.5-7.35-7.5-17.7 0-7.3 4.5-14.05l1.8-.3q-4.7 6.3-4.7 14.25 0 9.85 6.95 16.85 6.95 7 16.75 7t16.75-7q6.95-7 6.95-16.85 0-9.15-6.15-16.05"/><path fill="#0d131a" d="M136.05 135l3-.3 2.9-.6q-6.2 1.35-10.3 6.3-4.15 5-4.15 11.55 0 7.5 5.35 12.85t12.85 5.35q7.55 0 12.85-5.35 5.35-5.35 5.35-12.85 0-7.55-5.35-12.85-5.3-5.35-12.85-5.35h-.2l1.35-1.25q7.7.45 13.1 6.05 5.45 5.7 5.45 13.4 0 8-5.8 13.7-5.75 5.65-13.8 5.65-8.1 0-13.9-5.65-5.85-5.7-5.85-13.7 0-5.35 2.75-9.95 2.7-4.45 7.25-7"/><path fill="#0d131a" d="M152.5 139.3q3.7 1.85 6.05 5.35 2.45 3.65 2.45 7.8 0 6.05-4.25 10.3-4.25 4.3-10.3 4.3-6 0-10.35-4.3-4.4-4.3-4.4-10.3 0-4.7 2.9-8.55 2.75-3.75 7.1-5.25v1.3q-3.75 1.5-6.1 4.85-2.4 3.45-2.4 7.65 0 5.5 3.9 9.45 3.9 3.9 9.35 3.9 5.5 0 9.4-3.9 3.9-3.95 3.9-9.45 0-3.9-2.1-7.2-2.05-3.15-5.4-4.85l.25-1.1"/><path fill="#0d131a" d="M152.7 141.65q2.85 1.6 4.5 4.5 1.65 2.95 1.65 6.45 0 5.15-3.55 8.8-3.55 3.7-8.65 3.7-5.15 0-8.75-3.7-3.65-3.65-3.65-8.8 0-3.9 2.15-7.05 2.15-3.1 5.6-4.55l-.5.8q-.15.45.1.8-2.75 1.4-4.4 4.05-1.7 2.7-1.7 5.95 0 4.65 3.25 7.95 3.3 3.3 7.9 3.3 4.65 0 7.95-3.3 3.25-3.3 3.25-7.95 0-3.05-1.55-5.7-1.5-2.55-4.05-4.05.4-.45.45-1.2"/><path fill="#e50038" d="M147.7 141.05q.9 0 1.2-.3l.3-.85-.3-.8q-.2-.35-1.05-.35h-.7v2.3h.55m-5.7-5.15q0-.25.25-.25h6.8q1.95 0 2.85 1.1.95 1 .95 3.05 0 2-1 3.15-1.05 1.2-3.15 1.2h-1.55v2.1l-.25.3h-4.65l-.25-.3V135.9"/><path fill="#0d131a" d="M151.45 137.15q-.75-.85-2.4-.85h-6.4v9.6h3.85v-1.75q0-.65.65-.65h1.55q1.85 0 2.65-.95.9-.95.9-2.75 0-1.7-.8-2.65m-10.05 9.1V135.9q0-.9 1.65-.9l6 .05q2.2 0 3.35 1.3 1.1 1.25 1.1 3.45 0 2.25-1.2 3.6t-3.6 1.35h-.95v1.5q0 .9-.85.9h-4.65q-.85 0-.85-.9"/><path fill="#0d131a" d="M147.75 139.2h-.15v1.4l.95-.15.15-.55-.15-.6-.8-.1m-.6-1.1h.7q1.1 0 1.55.6.4.4.4 1.2 0 .8-.45 1.25v.05q-.6.5-1.65.5h-.55q-.65 0-.65-.65v-2.3q0-.65.65-.65m2.7-89.25q.55-.45 1.2-.15.95.4 2.1 2.2.55.75.15.95-.45.25-1.05-.45-1.4-1.4-2.25-1.8-.65-.3-.15-.75m16.05 1q.25-.4.7-.3.45.15.45.55 0 .6-.75 1.35l-1.3 1-1.1.15q-.1-.4.8-1.2l1.2-1.55m.1 25.95q.3 0-.1.55t-.7.55l-6.55-.05q-.3 0 .3-.75l.9-.75 6.15.45m-37-32.85q-1.65-1.9-1.95-5-.3-3.3 1.1-5.9l.9.45q-.95 2-.7 5.05.2 3 1.5 4.8l-.85.6m6.9-6.9l1.05.05q.4 1.9.15 3.4t-1.25 3.05l-.9-.6q.7-1.05 1-2.65.3-1.8-.05-3.25m-4.65-2.45l2.3 1.4v.7q0 3.65-1.25 3.65-.7 0-1.1-1.6l-.25-2.05q0-.8.3-2.1m31.2-.65l.2 2.4q-.05 1.65-.4 2.5-.1.2-.55 0-.5-.2-.45-.4l.35-2.15-.15-2.1.45-.35.55.1m-1.85 1.2l.2 1.45-.15 1.5-1.15-.15-.55-.2q.25-.9.85-1.8.55-.8.8-.8m76.8 44.95q-2.15 4.6-2.15 9.45 0 4.1 1.55 7.8.5-9.05 2.75-22.4l-2.15 5.15m2.35-7.2l1.2-1.25q.45-.2.05 1.95-.95 5.4-1.75 12.45-1.05 9-1.25 16.15-.1 2.15-.6 2.6-.5.45-.65-1.8l.05-2.35q-.75-.85-1.8-4.5-1.1-3.95-1.1-6.6 0-2.95.55-5.1.45-1.65 1.75-4.45l1.85-4.25q.9-1.95 1.7-2.85m12.35 11.85q0-2.5-.55-4.75-.15-.55-.35-3.55l-.35-3.9-.4 4.8-.9 9.8q-.8 6.4-.8 18.15l.05 2.85q1.6-3.8 2.25-12.4l.55-4.95.5-6.05m-2-12.95q.8-2.5 1.3-1.65.6.9.9 6.25.1 1.5.55 3.25.75 3.05.6 5.6l-.8 5.7-.5 4.9q-.5 6.3-1.2 9.45-.7 3.3-1.95 4.8-1.05 1.35-1.2.9-.15-.4-.05-4.05-.2-3.8-.25-7.8-.1-7.8.7-12.15l.9-8.15q.5-5.5 1-7.05m13.35 25.9v1.05q-.15 5.9-3.6 14.5 2.35-2.45 3.9-5.95 1.65-3.8 1.65-7.2 0-3.25-1.2-10.1-1.2-6.65-2.5-11.1 1.75 12 1.75 18.8m-4.2-25.55q-.55-2.2-.1-2.2.45-.05 1.1 2.3l.95 3.05q1.9 3.5 3.9 12.05 1.9 8.4 1.9 12.75 0 4.1-2.2 8.4-2 3.95-4.85 6.45-2.05 1.8-2.3 1.15-.2-.5.75-2.45 1-2.05 2.2-6.45 1.45-5.3 1.5-8.45V96.7q0-7.9-2.2-22.15v-.05l-.65-3.35m-46.4 20.05q1.65 0 4.85.95l6.15 1.25q-1.9-2.2-6.1-3.9-8.3-3.35-15.8.05 6.45 1.65 10.9 1.65m-13.2-1.15q-.6-.3-.35-.6l1.15-.7q4.8-2.55 10.25-2.35 4 .15 7.55 1.6 2.3.95 4.4 2.6 1.8 1.4 2.8 2.7.65.9.5 1.2l-1.95.25-3.6-.5-3.05-.85-2.6-.7-2.2-.4-7.8-.95q-4.3-.85-5.1-1.3m1.35 7.4l-.75-.3q1.05 2.2 3.65 3.9 3.5 2.2 9 3.2l10 .55q-5.55-1.45-21.9-7.35m-2.5-1.25q-.15-.75.8-.6l2.15.55 9 3.25q9.1 3.25 13.5 4.35 3.7.95 3.25 1.5-.45.45-4.6.9l-10.15-.35q-5.4-.95-9.25-3.4-3.8-2.4-4.7-6.2m6.05 22.3q3.3 3.3 9.15 4.65l8.5.65q4.2-.35 7.65-2-6.35.6-13.35-.3-7.05-.95-11.95-3m26.25 1.9q4.8-.55-.5 2.3-7.4 4.05-16.9 1.75-6.85-1.65-10.25-5.5-2.1-2.3-1.15-2.35l3.75 1.2q4.45 1.55 11.1 2.4 7.65.95 13.95.2m-215.6 4.35q1.6 5.25 4.3 8.8 2.25 2.95 7.2 7-2.2-3.8-5.05-9.4-2.7-5.35-3.3-7.05-.9-2.5-2-9.05-1.35-7.85-2.3-17.9-.35 5.6-.35 11.3 0 11.5 1.5 16.3M12.95 97.3q.4-4.4 1.2-5.05.75-.6 1.1 3.2.9 10.35 2.4 18.8 1.2 6.7 2.2 9.4l3.9 8.25 4.05 7.9q1.6 2.6 1.1 3.15-.6.7-4.75-2.75-4.8-3.95-6.65-6.5-2.1-2.95-3.8-8.55-1.35-4.5-1.4-13.45-.05-6.65.65-14.4m16.7 15.95q3.3 9.05 9.2 15.65-3.3-7.8-6.95-17.8-3.6-9.95-5.7-17.1.15 10.15 3.45 19.25M25 94.65q.1-3.85.7-4.75.7-1 1.65 2.4 1.95 6.95 5.7 17.4 3.75 10.4 7.25 18.6 1.45 3.35.4 3.45-.95.05-3.6-2.85-6-6.6-9.05-15.15-3.2-8.85-3.05-19.1m9.25-8.3q.4-2.15 1.1-2.45.65-.35.15 1.85-.25 1.3 1.05 3.15l3.55 4.05q3.95 4.15 6.55 7.85 3.85 5.45 6.45 12l-.15 1.25-.35.7q-2.55-6.45-6.15-11.65-2.55-3.65-6.3-7.6l-4.35-4.7q-1.9-2.45-1.55-4.45"/><path fill="#0d131a" d="M36.25 89.15q-.9-.65-1.05-1.85-.15-1.9.15-.8.25.75 1.4 1.65L39.4 90q6.3 4.1 9 7.45 5.45 6.65 5.5 16.6 0 2.25-.7 3.05-.65.8-.7-1.45-.05-10.8-5.55-17.6-2.6-3.2-9.85-8l-.5-.45-.35-.45M67.6 90.2q4.45-3.35 7.45-5.2-3.2.4-6.9 2.75-5.5 3.6-7.7 8.3 2.75-2.5 7.15-5.85m-8.85 8.5q-.65-.15.4-2.65 1.25-2.9 3.6-5.65 2.25-2.7 4.7-4.25 1.8-1.15 3.75-1.65l3.45-.5q4.35-.4 3.35.8l-2.55 1.75Q72.4 88.4 69.5 90.6l-7.75 6.25q-2.4 1.95-3 1.85m20.1.3q-4.35 3.8-11.05 8.2l1.5.05.65-.2q2.55-.7 4.25-1.9 3.05-2.1 4.65-6.15m-.35-1.45q1.65-1.45 2.1-1.55.8-.2.05 2.1-2 6.2-6.3 8.8-3.45 2.15-7.4 1.5-3.2-.55-1.3-1.5 1.15-.6 5.15-3.4l7.7-5.95m-7.35 29.8q2.2 0 5.15-1.25 3.2-1.35 4.2-3.05 1.45-2.35 2.75-6.4l-.3.3q-2.85 3.6-5.1 5.25-3.75 2.7-9.4 3.6 1.55 1.55 2.7 1.55m0 1.35q-1.15 0-2.4-.9L67 126.35l-.6-.9q-.15-.65.7-.8 4.75-.55 8.55-2.9 3.25-1.95 6.25-5.6 2-2.4 2.4-1.75.45.65-.45 4.45-1.1 4.6-4.6 7.25-3.4 2.6-8.1 2.6M85.5 68.5q3.4-3.7 4.2-6.55l-.65 4.4q-2.65 4.05-5.4 6.4-2.75 2.4-7.1 4.25l-1.9-.85q6.4-2.85 10.85-7.65"/><path fill="#ffe100" d="M89.95 172.15q-2.6 0-4.5-2.35t-1.9-5.6q0-2.95 1.45-5.15 1.5-2.25 3.6-2.25 1.05 0 2.3 2.25 1.35 2.45 1.5 5.2.25 4.2-.35 6.1-.6 1.8-2.1 1.8"/><path fill="#dcc200" d="M91.45 161.45q.85 1.8.85 3.9 0 4-.5 5.5-.55 1.65-2.2 1.65-2.2 0-5.55-5.05 2.85.5 4.6-.75 2-1.45 2.8-5.25"/><path fill="#0d131a" d="M89 157.85l-.75-.2q-2.2.4-3.2 3.05-.95 2.25-.5 4.55.7 3.75 3.5 5.65 1.25.85 2.1.75 1.15-.25 1.55-2.55.3-2.05-.15-4.85-.75-5.1-2.55-6.4m-4.85 1.35q1.6-2.55 3.85-2.95.85-.15 1.8.4 2.65 1.55 3.35 8.55.7 7.2-2.75 7.85-1.4.25-3.2-1-1.55-1.05-2.7-2.8-1.15-1.75-1.5-3.75-.65-3.5 1.15-6.3"/></svg>