<svg xmlns="http://www.w3.org/2000/svg" width="350" height="452" viewBox="0.0 -0.65 350.3 452.25"><path fill="#094b46" d="M83.85 266.95l1.7-3.65.8-2.55 73.05 18.45-.3 1.8q-.05 2.1 1.25 3.8 1.1 1.45 3.95 3 2.4 1.3 2.4 1.85-27.3 33.2-37.2 30.8-12.45-3.35-23.5.8-3.45 1.3-6.35 3.2l-2.2 1.65q-5.85-8.95-11.75-19.9-11.75-21.95-11.75-31.9 6.85-2.5 9.9-7.35"/><path fill="#003a35" d="M95.5 284.05q5.5-7.8 5.3-19.55l58.6 14.7-.3 1.8q-.05 2.1 1.25 3.8 1.1 1.45 3.95 3 2.4 1.3 2.4 1.85-27.3 33.2-37.2 30.8-12.45-3.35-23.5.8-3.45 1.3-6.35 3.2l-2.2 1.65q-2.55-3.85-6-9.65-6.9-11.55-11.25-21.1 10.2-4.05 15.3-11.3"/><path fill="#b0d3da" d="M50.7 287.65q8.3-7 16.05-10.95 7.75-3.95 10.85-2.8 21.95 8.1 25.4 26.5 1.25 6.85-.35 14.05-1.3 6.05-4 9.95-4.4 6.5-10.9 12.75l5.8 1.65q5.75 2.7 5.5 8-.2 4.15-5.35 10.2-6.7 7.8-7.05 8.45-2.15 4-4.8 11.55-2.9 8.3-3.2 12.1-.3 4.6-3.6 9.5-3.75 5.5-8.85 7.05-6.1 1.8-10.45.35-5.05-1.65-5.8-7.45-.3-2.55 4.3-9.85 4.1-6.4 2.25-8.35-1.3.4-6.1 7.2-5 6.9-9 8.65-2.7 1.15-8.05-1.35-5.4-2.55-7.3-6.05-1.65-3.05 1.35-7.45 2.1-3 5.45-5.55.95-.7 6.15-6.9 4.7-5.55 7-6.6l-3.3-2.2q-2.1-1.6-4.7-4.45-15.4-5.45-10.9-33.4 2.7-16.9 23.6-34.6"/><path fill="#94b3b8" d="M35.35 395.65q-3.9-1.4-6.8-3.9.85-1.45 3-1.05l4.9.8q7.95.1 16.6-13.15.65 0 1.2.9.55.85.8 2.1l-5.7 7.6q-4.25 5.65-7.95 7.25-2.05.9-6.05-.55"/><path fill="#94b3b8" d="M56.6 340.25q2.65-3.15 1.4-6.25-.4-1.05.15-1.75.8-.9 4-2.2 12.1-4.9 21.95-15.8 7.6-8.45 15.65-22.95 4.7 8.6 3.6 19.1-.95 8.5-4.7 14-4.4 6.5-10.9 12.75l5.8 1.65q5.75 2.7 5.5 8-.2 4.15-5.35 10.2-6.7 7.8-7.05 8.45-2.15 4-4.8 11.55-2.9 8.3-3.2 12.1-.3 4.6-3.6 9.5-3.75 5.5-8.85 7.05-4.1 1.2-7.55.95-3.85-.35-6.1-2.5 9.15.8 14.15-4.4 2.55-2.7 4.25-7.85 1.45-4.3.8-10.85-.5-5.3-1.65-8.05-.8-1.85-11.45-4.5-9.4-2.35-16.45-3.1 2.3-2.4 3.8-3.05l-3.3-2.2q-2.1-1.6-4.7-4.45-5.65-2-8.65-7.05 5.35 3.8 14.35.45 8.1-3 12.9-8.8"/><path fill="#b0d3da" d="M129 320.15q.2-2.1 2.75-6.2 2.95-4.75 7.4-9.2 12-12.1 27.5-15.2 27.25 14.7 39.35 36.3 8.55 15.25 8.55 31.6 6 11.05-.3 20.55-2.35 3.55-5.75 5.75-3.15 2-5.2 1.7-2.7 1.65-9.5 10-7.35 8.95-7.6 12.15 3.9 7.3 14.5 14.7 5.3 3.75 9.85 6l4.1.4q4.25 1.1 5.15 4.7 2.05 8.2-4.7 10.45l-13 .55q-1.5 5.3-7.9 5.9-5.75.5-19.6-2.7-3.65-.85-5.45-5.25-1.65-5.65-2.9-8.6-1.7-3.9-6.35-6.2-2.6-1.3-11-3.9-5.5-1.7-6.9-5-1.25-2.95.25-8.5 1.1-4.05 4.35-7.05 3.7-2.75 4.95-4.4 1.75-2.25 1.8-5.5.05-2.3-.95-7.75-3.45-3.6-3.25-10.55.15-6.25 2.7-10 2.6-3.75 6.7-6.7 3.35-2.4 3.7-3.65-19.8-6.55-26.35-17.05-2.05-3.3-3.8-8.9-2-6.3-3.1-8.45"/><path fill="#94b3b8" d="M153.35 393.2q.05-2.3-.95-7.75-2.2-2.35-2.95-6.25-.65-3.45-.05-7.3l2.05 6.2q1.2 2.75 3.5 3.25 2.25.45 8.6-8.2 3.65-5.05 7.7-11.7.8-1.3 1.8.95l2.3 6.3q4.2 10.9 10.25 13.2 4.95 1.85 10.4 1.25 6.35-.65 10.35-4.5 3.15-3 5.45-9.85l3.05-10.75q5.5 10.75-1.45 20.75-2.55 3.65-5.8 5.65-3.05 1.95-4.3 1-2.7 1.65-9.5 10-7.35 8.95-7.6 12.15 3.9 7.3 14.5 14.7 5.3 3.75 9.85 6l4.1.4q4.25 1.1 5.15 4.7.9 3.7.15 5.8-1.6 4.6-9.6 5.5l-8.25-.3q-1.35 4.6-6.1 5.6-7 .15-7.25-6.05l-.15-4.55q-.25-2.25-2-2.65-10.45-2.5-11.65-3.7-1.5-.5.85-2.2 2.6-1.9.85-3.05-2.45-2.2-6.25-7.9l-6.45-9.35q-8.5-10.55-18.35-6.45l3.15-2.75 2.8-2.65q1.75-2.25 1.8-5.5m-9.2-63.9q-3 2.8-4.05 5.7-.8 2.3-.9 6.75-4.1-4.35-6.4-11.05l-3.8-10.55q.2-2.1 2.75-6.2 2.95-4.75 7.4-9.2 12-12.1 27.5-15.2 14.85 8.05 25.25 18.15-8.65-3.8-16.15-3.55-10.05.3-15.4 8.1-.9 2.65-.45 5.8.5 3.4 2.4 5.3 1.35 1.35-6.45 2.5-9.55 1.45-11.7 3.45"/><path fill="#b0d3da" d="M122.65 14.5q.6 3 .7 15.9.1 13.7.35 16.05 1.25 9.75-5.15 13.7-3.55 2.2-10.45 2.65 2.6 2.3 2.5 7.75-.15 5.15-2.5 9.35-2.6 4.6-15.55 4.6-12.35.05-18.25-3.5-3.4 1.55-9.5 2l-5.4.15.1 2.4q.55 3 2.8 5.95 4.6 6 1.85 14.9l9.1.85q6.4.3 9.8 2.05 6.95 3.65 13.5 12.7 6.15 8.5 6.45 13.5 16.15-8.9 30.3-4.1 4.95 1.65 10.4 5.3l8 5.7q5.8 3.9 5.2 42.3-.3 19.2-1.75 37.6L51.8 165.25q-10.9-2.75-20.35-11.8-8.5-8.15-9.45-14.35-3.75-.8-6.25-3.15-2.35-2.25-4.3-6.65Q.65 122.1.9 106.1q.15-10.05 5.45-27.3 2.45-7.9 10-16.6 3.25-3.75 4.55-6.1 1.95-3.5 2.2-7.8.5-9.45 1.9-12.75 1.25-3.2 4.85-4.3 3.05-7.15 3.45-7.75 3.2-4.5 9.75-4.65 4.65-.15 6.5-1.85 1.3-1.25 5.1-6.1 3.3-3.5 9.85-2.95l4.75.7 3.4.15q1.75-.35 5.55-2.55 4.5-2.55 6.65-3.4Q90.75.6 95.75 4.2q2.8 2.05 3.5 2.35 2 .9 4.15-.05 7.05-3.15 13.1.25 5.15 2.9 6.15 7.75"/><path fill="#94b3b8" d="M101.15 34.75q-1.85-15.6-1.8-16.25 3.6-2.9 4.7 15.35l.75 13.6q.5 6.7 1.4 7.55 2.65 2.5 9 .55 7-2.1 8.6-8.3.85 9.25-5.45 13-3.5 2.1-10.25 2.55 2.6 2.3 2.5 7.75-.15 5.15-2.5 9.35-.55 1-2.5 2.05-1.65.95-3.6 1.6.3-1.8-2.95-5.15-3.15-3.2-5.25-3.65L86.85 74l-8-.15q-3.65-.1-4.3 3.5-.6 3.4 1.3 4.45L74.3 81q-3.4 1.55-9.5 2l-5.4.15.1 2.4q.55 3 2.8 5.95 4.6 6 1.85 14.9l9.1.85q6.4.3 9.8 2.05 6.95 3.65 13.5 12.7 6.15 8.5 6.45 13.5 16.15-8.9 30.3-4.1 4.95 1.65 10.4 5.3l8 5.7q5.8 3.9 5.2 42.3-.3 19.2-1.75 37.6L94.7 188.95q4.7-1.75 5.15-9.6.5-7.45-2.85-15.75-3.55-8.9-9.4-13.2-6.7-5-14.3-1.85-7.05 2.2-18.8.25-8.9-1.45-16.35-4.35-12-4.6-6.95-8.55 7.25-5.65 6.8-20.95-.1-4.4-2.8-21.4l-3.6-15.3q-1.8-7.95.75-6.65 6.25 3.15 2.55-6.45l-3.05-7.6q-1.5-3.9-.8-4.6l1.45 2.85q1.7 3.9 3.6 6.25 6.6 8.35 17.2 1.6 1.9-1.2-.85-10.45-3.35-9.9-3.65-11.8l-1.55-5.55q-.7-2.75 1.25-2.55 1.55.15 4.15 13.4 2.75 14.05 4.8 15.8 2.8 2.35 9.85 1.05 6.45-1.15 9.4-3.55 1.7-1.4-.3-17.75-2-16.25-.3-17.45 1.9-1.3 3.05 14.6 1.3 17.3 2.25 18.45 1.95 2.35 10.4 1.95 8.8-.4 9.65-4.2 1.4-6.75-.3-20.85"/><path fill="#b0d3da" d="M340.25 141.45q9.95 18.95 7.85 29.25-1.95 9.6-5.7 12.7-3.1 2.65-11.25 3.1-4.35 1.9-13.85 15.9-9.3 13.7-15.1 15.9l-127.55 12.8 51.1-63.15q4.55-4.5 12.1-4.45 9.75.15 17.95 9.45 3.45-7.3 12.55-12.4 8-4.5 12.65-3.85 2.85.45 8 2.8 4.4 2 5.45 1.75-1.3-5.25-.55-13.75l1.05-9.8q0-2.8-1.1-5.4l-1.1-2.05q-6.3-2.2-9.65-5-3.35 1.45-8.1-.55-5.7-2.4-11.9-9.35-2.9.7-8.4-2.2l-8.3-5.25q-5.35-3.45-7.3-9.75-2.15-6.8 2.2-10.75-4.65-10.2 2.2-15.7l9.05-7.1q4.3-3.45 5.35-4.85 3.6-4.65 5.9-6.05 5.85-3.65 12.7.7 7.6 4.8 12.3 9.5 2.3 2.3 8.5 9.9l8.45 10.8q2.1 2.8 5.25 9.55l5.2 11.7q2.45 5.25 5.6 9.75 3 4.25 5.6 6.45 1.5 1.25 5.1 6.55 4.2 6.1 7.75 12.85"/><path fill="#94b3b8" d="M245.6 84.15q5.1 2.15 18.2-9.1l-3.9 4.15q-3.5 3.45-4.75 5.65-4.3 7.45 8.95 10.5 1.1 5.5 4.3 8.6 4.2 4.05 10.2 1l-2.15 3.8q-1.25 2.45-.55 3.8 1.85 4.8 4.8 6.1 2.85 1.3 4.6-1.3l7.8 4.6q4.6 1.65 8.65-1.6 8.05 4.35 11 15.25 1.15 4.15 1.1 7.85-.05 3.5-1.05 4.55-.8-2.2-3.05-4.5-2.45-2.6-5.15-3.55-7.25-2.6-10.75 8.2l.7-6.3.4-4.15q0-2.8-.9-5.75l-.95-2.4-4.15-1.15q-4.55-1.55-6.65-3.3-3.3 1.45-7.7-.45-5.3-2.3-11.5-9.3-2.6.65-7.2-1.6-2.85-1.4-7.65-4.6.45-.2 1.55-2 1.3-2.1 2.3-4.75 1-2.65-3-6.55-2.95-2.85-9.2-6.9l1.4-1.55q-2.55-5.65-1.7-9.7.95.6 2.75 3.3 1.65 2.5 3.25 3.15m-19.85 83.8q4.55-4.5 12.1-4.45 9.75.15 17.95 9.45-7.55 2.75-10.9 7.55-4.35 6.35-4.45 19.2-6.15 3.1-19.1.6l-10.25-2.1-9.15-.8 23.8-29.45"/><path fill="#94b3b8" d="M344.15 149.7q5.55 13.25 3.95 21-1.95 9.6-5.7 12.7-3.1 2.65-11.25 3.1-4.35 1.9-13.85 15.9-9.3 13.7-15.1 15.9-9.9 7-22.35 13.55-24.9 13.1-37.6 11.05-10.1-1.65-11.95-20.95-.7-7.2.3-13.05.95-5.8 2.7-5.6 9.85 3.85 24.55 2.1 12.95-1.5 20.75-5.85.9-.5-4.25-2.15-5.05-1.6-3.7-2.3 1.65-.85 8.45-3.75 5.9-2.55 9.35-4.5 10.9-6.15 12.55-14.05l2.85 2.8q2.8 2.1 7 3.2 5.25-.15 11.25 2.4 4.6 1.9 6.4.7 5.75-3.75 7.2-19.3 1.55-15.9-2.55-33.1 6.85 10.25 11 20.2"/><path fill="#b0d3da" d="M239.8 196.1q10.05 7.5 10.55 24.4 1.8-2.95 12.65-8.45l12.45-6.45q2.55-2.05 10.5-.65 8.6 1.55 9.9 6.2.65 2.2 2 3.45.8.7 2.55 1.8 3.25 2.3 3.7 9.35.15 2.3 1.2 4l2 2.6q2.4 3.1.95 8.85-.45 1.9-.05 7.7.5 6.35-.1 10.25-.7 4.65-6.4 10.75-2.85 3.1-5.6 5.2l1.3 3.1q1.45 3.9 2.1 7.7 2.05 12.1-4.4 18.7l-10.45 10.9q-2.15 2.05-4.5 2.6-3.6.8-7.7.1-5.35-.85-7.75-4l-6.75-7.1q-4.65-4.85-7.05-9.7-5.75-2.55-13.25-8.8-10-8.4-13.25-16.5-2.1-5.25-3.5-14.15-.95-6.15-4.15-9.6-1.6 4.55-8.35 9.7-8.05 6.15-16.45 6.3-4.6 7.9-17.25 10.4l-9 1.5q-4.45.85-5.95 2.3-12.15 2.6-40-4.25-27.5-6.85-33.4-13.55-.8-5.2-2.75-8.2-1.75-2.8-5.2-4.75-4.55 2.55-9.3 4.65-9.4 4.2-16.65 3.9l-7.1-1.05-4.2-.9-9.2.9q-5.8-.75-7.85-6.95-5.3-9.1-6.25-19.7-1.65-18.95 12.55-34.6 20.1-7.05 42.75-14.6 45.35-15.15 58.2-17.65 12.9-2.5 52.85 12.15 20 7.35 37.4 15.15.35 1.45 1.65 1.85l3.4.35q7.3.45 13.15 4.8"/><path fill="#94b3b8" d="M291.75 231.85q2.05 2.15-7.45 7.35-10.35 5.65-10.5 7.3-.15 1.95 1.6 5.35 1.85 3.65 3.95 4.35 1.45.5 9.45-2.95 7.3-3.25 7.55-2.1.25 1.25-7 5.3-7.2 4-7.05 4.4 1.2 2.75 1.75 3.55 1.75 2.6 3.95 1.85l11.5-5.05q8.85-3.75 8.6-2.05-.7 4.65-6.4 10.75-2.85 3.1-5.6 5.2l1.3 3.1q1.45 3.9 2.1 7.7 2.05 12.1-4.4 18.7l-6.85 7.3q-3.05 3.3-4.9 4.6-4.3 3.1-12 1.85 3.75-3.4 4.5-10.75.3-2.8-.05-4.45-.35-1.7-1.1-.9-2.55 2.8-3.35 2.25-.65-.45-1.15-4.4-1.75-13.7-6.7-24.05-1.5-3.15-6.95-2.75-5.55.45-7.1 4.3-.5-4.1 2.5-8.05 2.4-3.15 9-8.4l-5.1-.75q-4.3-.85-7-4.05 1.05 0 3.2-1.6 2.55-1.85 3.65-4.05 1-2-2.3-7.65-4.15-6.35-5.3-8.8-1.6-3.4-1.05-7.4.55-4.05 2.95-6.2.7 2.7 3.2 5 2.5 2.25 5.2 2.6 1.65.2 13.4-7.45 10.45-6.8 9.9-4.5-.55 2.35-9.4 7.85-9 5.65-9.7 7.25-1.05 2.5 1.55 6.15 2.35 3.35 5.15 4.6 1.8.8 11.95-5.1 9.95-5.75 10.5-5.2"/><path fill="#94b3b8" d="M205.6 182.25q9.55 3.95 16 6.85.35 1.35 3.7 2l4.1.55q-2.6 6.95 1.55 16.15 4 8.65 10.7 12.85 4.8 2.35 8.8 0-.8.9-1.45 3.2-.65 2.2-1.35 2.9-3.3 0-5.55 4.5-2.45 4.85-1.05 10.6.1 1.3 2.55 6l4.05 8.05q.75 1.75 6.75 3.45l7.45 1.8q.4 1.3-5.85 6.6-6.25 5.25-6 5.8-5.35-13.55-14.9-17.65-6.7-2.85-14.8-.9-.85-3.7-3.55-6.65-1.6 4.55-8.35 9.7-8.05 6.15-16.45 6.3-4.6 7.9-17.25 10.4l-9 1.5q-4.45.85-5.95 2.3-8.35 1.8-26.3-1.35-16.8-2.95-31.2-8.15-9.5-14.95-17.5-14.4-1.9-4.3-6.35-6.85-4.55 2.55-9.3 4.65-9.4 4.2-16.65 3.9l-7.1-1.05-4.2-.9-4.3.25 2.95-3.05q2.6-2.5 4-5.15 1.25-2.3-3.1-2.1-4.45.2-3.7-1.7 1.6-4.1 1.65-20.15.1-18.65-3.05-30.2 53.2-17.85 80.6-25.7l-.05 21.9q-.2 13.85.65 21.95 2.65 24.7 18.6 36.15 6 3.75 19-2.05 11.8-5.3 15.95-11.2.4 4.3-5.75 12.1-2.9 3.7-3.5 4.8-1.25 2.2 0 3.05 2.5 1.65 6.1-.3 2.3-1.25 5.8-4.55 5.95-5.8 9.9-14.05 5.85-12.45-2.9-16.9l-6.55-6.6q-4.05-4.45-6-8.95-5.35-12.8 3.65-32.6 15.4 5.05 34.5 12.9"/><path fill="#b0d3da" d="M80.6 157.65q2.85-1.55 6.05-1.75 3.1-.2 9.75 2.75 6.1 2.7 10 1.7 6.95-1.8 10.05-1 4.95 1.25 8.15 8.8 4.3 10.15 7.1 18.85 3.5 11 3.6 16.7.3 12-8 17.5 2.1 3.35 3 6.45 1.55 5.45-1.6 7.85-3.65 2.75-9.5 5.25-5.65 2.45-11.3 3.75-6.7 1.55-13.65 2.2l-12.2-.5q-3.3-1.15-5-2.7l-1.1-1.35q-8 2.35-12.05 2.4-6.8.1-13.1-7.15l-8.65-.95q-5.35-1.3-8.55-5.05-3.2-3.7-3.9-13.9-.2-2.75-.2-17.7 0-11.1 1.5-15.85 2.5-8 10.4-10.55 2.75-.85 5.35-3.2l4.15-4.3q5-5.05 10.75-3.7 8.45 1.95 14.3-1.6l4.65-2.95"/><path fill="#94b3b8" d="M46.6 191.25q.25-.25.9.45.75.8.9 2.55l.85 17.3q.9 11.85 3.8 15.15l7.65.25q5.35-1.1 7.55-2.35 2.95-1.85 2.85-9.3-.05-4.95-1.75-15.05-1.85-10.9-2-13.8-.4-6.05 2.05-5.75 2.05.25 2.6 5.85l.45 12.6q.5 18.75 6.6 21.2 6.7 2.45 16.15-1 8.3-3 9.4-5.85.35-.8-3-20.75-3.15-18.7-.65-19.15 4.25-.8 7.6 18.5l2.25 13.75q1.15 6.45 2.05 6.95 1.9 1.05 8.1-.1 4.7-.85 9.1-2.3 1.65-.55 2.5-7.9.6-5.5.55-10.75 2.15 7.55 2.2 11.95.3 12-8 17.5 2.1 3.35 3 6.45 1.55 5.45-1.6 7.85-4.85 3.65-13.25 6.75-1.3-5.6-9.1-6.9l-11.65.45q-3.65.9-10.9 3.65-6.65 2.6-7.5 3.2l-.35-.5q-7.85 2.2-11.95 2.2-7.1.05-13.2-6.95l-8.35-.9q-5.15-1.15-8.35-4.55 3.4.3 10.4-1.8 1.2-.35.85-5.4l-1.1-11.45q-1.65-17.45 2.35-22.05"/><path fill="#b0d3da" d="M229.15 148q.85 6.8-1.1 13.65-1.75 6.25-5.2 10.6-12.45 7.25-27.5 11.7-30.1 8.9-43.15-5.15-13.95-15-15.4-25.55-.55-4.15 1.05-6.55 1.4-2.2 3.95-2.2 5.35-.05 9.5-1.5 4.85-1.7 6.5-5 5.85-11.7 16.3-16.95 14.8-7.5 34.6 1.55 18.2 8.35 20.45 25.4"/><path fill="#94b3b8" d="M170.95 134.85q-2.2-2.2-3.65-2.8-2.45-.95-6.7 1.5 4.9-6.8 16.1-12.2 11.35-5.5 15.3-2.65 6.95 5 1.15 25.2-2.95 10.1-7.25 19.2-1.25-5.15-3.75-11.25-5-12.2-11.2-17m58.4 14.15q.6 6.65-1.55 13.5-1.9 5.9-4.95 9.75l-19.6 9.05q3.45-3.1 7.2-8.55 7.55-11 9.1-22.95-5.9 7.05-12.1 12.85-6.85 6.3-11.25 8.35 5.5-11.9 7.4-25.45 2.2-15.7-2-25.6 3.35.95 7.1 2.65 19.15 8.8 20.65 26.4"/><path fill="#fff" d="M169.8 148q3.2-5.4 5.4-6.5l9.25 23.4-1.4 2.6q-1.75 2.35-3.25 1.2l-7.3-6.1-5.5-4.8q-.9-3.65 2.8-9.8"/><path fill="#dbdcdc" d="M171.2 145.85q2.5-3.5 4-4.35l9.3 23.2q-.75 2.3-2.3 3.65-.45-5.95-3.95-12.35-2.55-4.65-7.05-10.15"/><path fill="#fff" d="M208.65 179.1q-5 2.75-6.4 2.35-1.35-.35.6-4.25l2.2-3.85 12.6-8.8q.45 1.4-.95 5.6-1.45 4.45-3.35 6.15l-4.7 2.8"/><path fill="#dbdcdc" d="M217.65 164.55q.5 1.5-1.1 6.1-8.85 2.55-13.75 6.6l2.25-3.9 12.6-8.8"/><path fill="#e50020" d="M179 150.3l3.5 10.35q-1.5 3.45-3.5 4.25-1.85.75-2.95-1.05-1.2-1.85-.65-5.25.7-3.9 3.6-8.3"/><path fill="#c60019" d="M179 150.3l3.5 10.35-1.2 2.2q-.05-2.1-1.6-4.4l-3.1-3.8q1.1-2.5 2.4-4.35"/><path fill="#e50020" d="M214.15 167.65q-1.05 6.3-6.15 10.1-2.05 1.55-2.95.7-1.05-.9-.05-4.7l9.15-6.1"/><path fill="#c60019" d="M214.15 167.65q-.35 2.05-1.5 4.35-4.55.3-7.75 2.25l.1-.5 9.15-6.1"/><path fill="#958c87" d="M163.55 128.9l-2.05 2.65q-1.2-6.25.2-18.35 1.6-13.8 5.7-14.65 5.25-1 9.4 5.25 5 7.6 7.55 24.95 1.9 13 1.45 27.25-.25 7.1-.85 11.6-2.75-8.85-6.35-18.3-7.15-18.85-11.2-21.75-1.5-1.05-3.85 1.35m54.3-10.35q-1.15 22.75-22.75 54.3 1.65-3.95 3.2-12.45 1.85-9.9 2-18.6.55-24.35-11.65-24.1 1.6-6.15 9.85-13.7 8.9-8.1 13.55-5.15 2.3 1.45 4 5.9 2.2 5.8 1.8 13.8"/><path fill="#958c87" d="M218.55 128.45q1.6-1.3 6.1-3.4 5.25-2.5 9.7-3.65 12.75-3.3 9.75 6.75-3.35 11.5-17.1 26.9-13.4 14.9-23.85 19.65 5.8-8.4 12.7-20.1 8.55-14.55 8.55-17.8 0-3.1-2.9-6.05l-2.95-2.3"/><path fill="#766e6a" d="M219.05 128.1q14.85-6.95 11.55 7.2-1.4 5.95-7.75 13.15-5 5.65-6.45 6.25 2.15-3.1 5.05-9.4 2.95-6.5 2.95-8.5 0-3.1-2.9-6.05l-2.95-2.3.5-.35"/><path fill="#fff1ac" d="M164.55 155.65l5.9 4.3q4.15 2.9 9.75 6.25 3.5 2.05 8.8 7.95 4 4.4 8.6 5.25 5.95 1.05 16.3-3.3 7.4-3.1 10.5-5.45 3.6 10.9-.6 16.1-2.95 3.7-9.35 4.25-5.4 3-11.25 11.95-6.9 10.7-7.75 11.5-3 2.9-8.45 1.05-3.3-1.15-8.3-4.55-2.15-1.5-8.55-2.75-7.3-1.4-11.25-3.2-4.6-2.1-5.95-5.8-2.45-6.5-3.9-8.6-3.85-5.65-4.5-8.9-.65-3.35 1.25-8.65 1.85-5.05 2.05-7.75.15-1.7-.25-8.8-.4-6.05 1.15-8.9 1.3-2.35 4.1-2.85 2.3-.4 6.25 4.45l5.45 6.45"/><path fill="#dcd096" d="M158.9 205q-2.7-1.25-4.1-2.65-1.15-1.15-1.8-2.95 7.65 4.45 15.5 5.75 9.25 1.5 11.25 2.35 3.75 1.55 8.5 5.15 3.95 2.3 8.55.2l-1.35 1.6q-3 2.9-8.45 1.05-3.3-1.15-8.3-4.55-2.15-1.5-8.55-2.75-7.3-1.4-11.25-3.2m33.95-9q-3.7-3.65-2-7.05 2.05-1.7 13.55-2.35 10.4-.6 11.2-3.3.95-3.05-.1-5.05l-1.65-2.15 6.45-3.25 4.1-2.2q3.6 10.9-.6 16.1-2.95 3.7-9.35 4.25-4.05 2.2-7.9 7.25l-2.55.25-2.55.45q-4.85.8-8.6-2.95"/><path fill="#ed8599" d="M176.25 197.8l-9.65-.9q-4.65-.55-6.6-3.1-1.75-2.2-2.05-6.85-.2-3.05.3-11.9.45-8.5.25-10.1 13.35 7.3 19.15 15.25 2.95 4.05 7.6 6.65 3.8 2.1 7.5 2.65 2 .3 5.8 0l1.6 2.2q.6 4.05.25 7.1-5 5.25-5.65 8.1-2.35.45-5.25-1.35-2.45-1.55-6.45-5.55-1.6-1.6-6.8-2.2"/><path fill="#ce7486" d="M177.65 180.2q2.95 4.05 7.6 6.65 3.8 2.1 7.5 2.65 2 .3 5.8 0l1.6 2.2q.6 4.05.25 7.1l-2.65 3.05q-4.6-5.85-16.4-9.85-12.95-4.4-23-1.95l-.4-3.1q-.2-3.05.3-11.9.45-8.5.25-10.1 13.35 7.3 19.15 15.25"/><path fill="#922f00" d="M200.15 191.7l-1.6-2.2 5.35-.4q3.45 0 6.55.85-5.8 4.4-10.05 8.85.35-3.05-.25-7.1"/><path fill="#ffe100" d="M94.1 270.2q0 1.2-.8 2.05-.85.85-2.05.85-1.15 0-2-.85-.85-.85-.85-2.05 0-1.15.85-2 .85-.85 2-.85 1.2 0 2.05.85.8.85.8 2m11.15 5.45q0 1.15-.8 2-.85.85-2.05.85-1.2 0-2-.85-.85-.85-.85-2 0-1.2.85-2 .8-.85 2-.85t2.05.85q.8.8.8 2"/><path fill="#dcc200" d="M102.65 272.8q1.1.1 1.85.9.75.85.75 1.95 0 1.15-.8 2-.85.85-2.05.85-.95 0-1.65-.55-.75-.55-1.05-1.4 1.3.35 2.2-.95.85-1.2.75-2.8m53.45 11.25q-.3 1-1.2 1.55-.85.5-1.8.25-.95-.3-1.45-1.2-.45-.95-.15-1.95.25-1 1.15-1.55.85-.5 1.85-.25.95.3 1.4 1.2.5.95.2 1.95m5.45-4.2q.7.65.7 1.6 0 .95-.7 1.65t-1.7.7q-1 0-1-2.3 0-2.35 1-2.35t1.7.7m-45-9.25l-1 18.1-4.6-2.3q-2.55-1.45-2.6-2.5-.15-1.55.75-6.2.75-4 1.4-6.25.2-.75 1.8-.9l4.25.05m29.35 4.9l2.6 1.65q1.5 1.1 1.45 1.65-.45 3.9-1.5 7.2-1.05 3.45-2.05 3.75l-5.8 2.15 5.3-16.4"/><path fill="#ffe100" d="M114.05 274.25q2.75-6.25 9.25-8.9 6.5-2.7 12.85-.25 6.4 2.45 8.9 8.6 2.5 6.15-.25 12.35-2.8 6.25-9.3 8.9-6.5 2.65-12.85.2-6.35-2.45-8.9-8.55-2.5-6.15.3-12.35"/><path fill="#dcc200" d="M145.05 273.7q2.5 6.15-.25 12.35-2.8 6.25-9.3 8.9-4.35 1.8-8.95 1.2-4.4-.6-7.9-3.25 19.45-9.95 22.9-24.35 2.35 2.25 3.5 5.15"/><path fill="#152139" d="M81.6 269.7l3 2.45q3.65 2.8 6.85 4.65 3.5 2.1 9.05 4.5 4.6 1.95 8 3.1 1.5 1.55 6 3.75 2.05 3.8 5.6 5.9 3.75 2.25 8.7 2.25 4.3 0 8.45-2.2l3.35-2.2 2.4-1q2.5-1.05 3-1.1 1.05-.15 1.65-1.45l7.25-1.8 5.4-1.95 2.35 2.3 1.8 1.1q1.25.65 1.75 1.35-13.45 3.6-25.4 13.85-11.65 10-11.65 17.35-3.8-2.55-12.25-1.7-8.7.9-17.4 4.9 2.1-3.6 3.2-8.4 1.1-4.55 1.1-9.25 0-4-1.35-8.7-1.4-4.8-3.75-8.5-2.85-4.45-9.85-9.35-7.15-4.95-12.6-6.1l3.3-2.05 2.05-1.7"/><path fill="#ffe100" d="M83.1 267.55q-.9-.7-1.15-2.05-.25-1.35.4-2.25.7-.85 1.75-1.05 1.1-.15 1.9.5.85.65-.6 3.05-1.45 2.45-2.3 1.8"/><path fill="#0d131a" d="M180.8 159.65l-.8 1.65-.85.55q-.3-.05-.3-.9 0-.8.35-1.85.35-1 .8-1.65.5-.65.8-.55.35.1.35.9l-.35 1.85m28.35 14.1l-.7 1.55-.75.45q-.3-.05-.3-.8 0-.7.35-1.65.3-.95.7-1.5.45-.6.7-.5.3.1.3.8l-.3 1.65m-49.5 111.6q-1.45-1.85-1.45-4.2l.2-1.6.2-.65 1.95.1q-.85.6-.7 2.3.15 1.65 1.2 3 .95 1.25 3.95 2.85l1.75 1.05q.7.55.8 1.2l-2.05.1-1.35-.8q-3.15-1.65-4.5-3.35M84.4 267.7q-2.55 3.7-6.95 5.95-1.45-.6-2.65-.65 5.35-2.2 8-6.1l.2.3.4.4 1 .1m2.8-6.6l-.75 2.2-.8-.85-.65-.15.55-1.9 1.65.7m41.6 58.25l.25 1.9q-11.05-2.95-21.2.3-5.75 1.85-9.55 4.95l.7-1.6.75-1.65q5.05-3.4 10.95-4.75 8.7-2 18.1.85M64.95 332q7.65-1.7 15.6-9.25 4.4-4.15 15.6-17.65 1.95-2.3 2-1.3.05 1-1.4 3.05-7.2 10.45-13.4 16.3-8.65 8.2-17.4 9.7l-2.15-.05q-.7-.4 1.15-.8m-11 10q3.25-3.8 4.05-6.4.65-2.3 1.2-2.05.6.2-.35 3-1.1 3.4-3.1 6.25-3 4.2-6.85 4.8-2.5.45-3.55.05-1.1-.35 2-.85 2.9-.45 6.6-4.8"/><path fill="#0d131a" d="M77.3 274.75q-1.6-.6-5.15.55-3.5 1.2-8 3.8-12.7 7.45-23 19.1-11.4 12.95-13.2 24.15-2.45 15.1 1.05 23.55 4.1 9.85 15.95 8.8 3.05-.25 3.75 0 .7.3-1.5.9l-4.45.65-2.2-.05q5.05 6.15 11.25 6.75 6.35.65 14.95-4.55 3.6-2.2 3.3-1.2-.3.9-2.6 2.6-3.55 2.55-8.7 4.05-7.6 2.25-12.7-.6-1.7.85-3.95 2.85-2.2 2-4.1 4.3l-2.6 3.6-2.05 2.5q-3.25 2.45-5.25 5.35-2.7 3.95-1.3 6.55 1.75 3.2 6.9 5.65 5.05 2.35 7.35 1.35 2.35-1.05 8.15-8.1l5.85-6.95q-1.65-1.8-1.7-2.5-.15-.95 3.8 1.9 1.45 1.35.4 4.35-.7 2.2-3.05 5.85-1.95 3.05-2.65 4.55-1.2 2.4-1 3.9.55 4.1 3.35 5.9 2.05 1.3 5.1 1.45 3.1.15 6.65-.95 4.8-1.45 8.35-6.7 3.2-4.7 3.5-9.1.3-4.1 3.15-13.05 2.7-8.45 4.7-12.15.6-1.05 2.1-2.65l2.85-3 4.5-4.75q2.6-3.2 3.1-6.3.8-4.75-4.65-7.4l-5.9-1.7-4.85 3.1q-5.1 3.35-6.2 4.55-1.4 1.6-1.85.8-.45-.75 1.65-2.5l10.25-8.6q8.6-7.45 11.3-11.45 2.95-4.35 4.2-11.15 1.45-8.35-.95-15.9-4.9-15.1-23.9-22.1m17.05 7.95q6.6 6 9.15 13.85 1.35 4.25 1.35 10.2 0 5.55-1.55 11.15-1.4 4.95-3.35 7.85-2 2.95-5.6 6.35l-4.75 4.4q11.05 2.3 11.05 9.2v.45q-.15 3.2-3.1 7.4l-5.7 6.8q-3.65 4.05-4.4 5.55-2 3.7-4.7 11.3-2.85 8.2-3.2 11.95-.75 7.35-3.4 11.5-2.9 4.4-8.6 6.1-4 1.2-8.45 1-4.5-.2-6.85-1.75-3.45-2.2-4.15-7.1l-.05-.7q0-1.7 1.75-4.5l3.25-4.7 2.25-3.7q1-1.95 1-3.1l-.1-.6q-1.1.8-3.9 4.75l-4.75 6.55q-3.15 3.75-6 5-3.05 1.35-8.9-1.55-5.85-2.9-7.85-6.65-.7-1.2-.7-2.7 0-2.95 2.9-6.7 2.3-2.95 5.3-5.2l1.75-2.3 2.3-3.4q4.25-5.1 7.5-7.4-1.6-1-2.65-1.9l-3.75-3.7q-6.7-1.05-10-7-3.15-5.7-2.8-15l.05-6.45q0-2.85.4-5.35 2.05-12.6 14.3-26 9.95-10.9 22-17.95 4.45-2.55 8.35-4.1 5.75-2.35 8.15-1.45 9.95 3.65 16.45 9.6m50.05 24.2q-1.15-1.05-1-1.45l1.8.15q1.8.6 7.65 6.2 6 5.75 7.15 8.2 1.1 2.35.9 2.7-.2.35-.85-1.05-.45-.95-7.55-7.45l-8.1-7.3m27.8 25.65q-.75-1.2-.75-1.55.05-.6 1.9.5 2.8 1.7 5.05 6.55 2.85 6.05 2.4 13.3-.2 3.35-.65 2.05l-.65-3.65q-.9-6.4-3.95-12l-3.35-5.2m-10.95 51.35q-1.75.7-2.05.3-.35-.45 1.15-1.55l5.3-5.55 4.9-6.15q.9-1.4.95-.6l-.15 1.1q-.75 2.9-4.6 7.45-3.6 4.2-5.5 5"/><path fill="#0d131a" d="M128.25 320.5l-.1-.2v-.25q.3-7.25 10.55-16.95 11.9-11.25 27.75-14.4l.3-.05.3.15q30.2 15.55 42.15 39.25 7.9 15.7 6.25 29.2 1.75 3.3 2.3 4.85.75 2.1.75 4.25 0 3.3-1.9 8.05-1.55 3.75-3.15 6.05-2.55 3.7-5 5.25-2.45 1.55-6.55 2.05-2.7 1.9-8.25 9-6 7.65-6.5 10.7 3.65 6.65 13.25 13.6 5.3 3.8 10.35 6.4 3.05-.2 5.65.9 3.4 1.5 4.25 4.85 1.45 5.8-1.25 8.95-3.9 4.6-16.2 3.45-1.85 5.3-9.2 5.7-6 .3-19.6-2.85-3.15-.75-4.95-3.6-1.05-1.7-2.35-6l-1.65-4.75q-1.45-3.2-9.25-6.75l-7.55-2.85q-4.55-1.4-6.55-3.4-1.95-2-1.95-5.1 0-3 .7-5.5.85-3.2 3.1-5.9 1.35-1.6 4-3.75l2.9-2.7q.9-1.15 1.25-5.8.3-4.7-.5-6.3l-2.35-4.25q-1.9-3.95-1.9-6.4 0-2.9 1.25-6.35 1.05-2.8 2.55-5.05 1.7-2.45 3.85-3.95l3.3-2.1 3.05-2.6q-16.4-4.4-23.6-13-3.7-4.45-6.9-14.75-1.4-4.6-2.6-7.1m4.5-6.35q-2.5 3.9-2.8 5.9 1.2 2.4 2.6 7.05 2.75 9.05 8.65 14.95 8.7 8.65 25.95 13.65 4.75 1.35 6 6.15 1.05 4-.1 5.15-.45.45-.6-.9l-.9-4.1q-.45-1.35-3.15-3.2-2.95-2-5.65-2.35-.8 1-4.85 4-3.9 2.9-5.3 4.9-1.15 1.7-1.8 4.45-.65 2.65-.65 5.6 0 2.7.6 4.55.55 1.85 2.2 4.2 1.4 2 1.5 4.75l-.2 3.95q0 3.8-2 6.4l-3.2 3q-2.3 1.85-3 2.75-1.4 1.7-2.15 4.55-1 3.7-1 5.65 0 2.85 1.2 4.5 1.45 2 5.05 3.1l1.2.35q7.65 2.4 10.45 3.85 4.5 2.4 6.25 6.4l1.7 4.95q1.25 4 2.1 5.45 1.45 2.35 3.95 2.9 18.4 4.3 23.9.7 2-1.3 2.75-5.05.7-3.65-.5-5.6-1.85-2.75-13.7-3.2l-3.4-.45q-.15-.35 3.6-.45 6.3-.25 9.05 0 5.35.45 6.7 2.5.75 1.15.8 3.65.1 2.35-.45 4.65 3.6.35 6.75.05 5-.45 6.7-2.4 1.1-1.25 1.3-2.8.25-1.65-.35-4.05-.85-3.5-4.1-4.45l-7.2.25q-3.35.8-1.65-.65l2.4-1.55q-5.25-2.85-10.25-6.45-9.95-7.1-11.05-12.2-.85 5.6-1.5 4.8-.65-.8-.25-5.65.35-4 6.85-12.05 5.5-6.75 8.35-8.7l-5.6-.65q-1.65-.65 1.6-.65 3.85 0 7.95-1.5 5-1.8 7.25-5.05l3.3-5.55q2.2-4.45 2.2-7.4 0-2.3-.6-4.05-.65-2.1-2.6-5.1-1.9-2.95-1.6-3.6.3-.55 2.05 1.2.7-2.85-.75-9.35-1.8-8.15-6.25-16.55-12.6-24-40-38.85-14.9 3.05-26.6 14.8-4.25 4.3-7.15 8.85m-9.85-267.6q-.3-2.55-.4-13.75-.1-15.25-.7-18.15-.35-1.95-1.85-3.9-1.7-2.2-4.25-3.5-5.55-2.9-12 0-2.25 1-4.3.3-1.25-.45-3.35-2.05-2.6-2-4.3-2.5-2.85-.8-6.6.65-2.4.9-6.15 3.1-4.3 2.45-6.15 2.85l-4.65-.3-6.75-.55q-3.9.25-6.2 2.75-1.7 1.85-3.25 3.85-1.9 2.5-3.15 3.2-1.85 1.05-5.75 1.1-5.35.15-8.7 4.1-2.25 2.6-3 5.85-.4 2-1.25 3.25-.9 1.45-1.25-.3-1.95.5-3.05 3.35-1.45 3.75-1.95 12.45-.25 4.55-2.4 8.35-1.3 2.35-4.85 6.4-3.5 4.05-5.1 6.5-2.8 4.35-4.4 9.45-5 16.05-4.15 29.3.95 14.6 8.9 20.25.7.5 3.55 4.95 2.4 3.75 5.1 4.35l-.2-2.1q.05-1.9 1-.95.9.9 1.3 2.25l.95 3.25q2.4 6.85 10.25 13.8 8.9 7.85 19.7 10.65l-1.95 1.25q-13-2.6-21.75-11.6-6.95-7.15-8.55-14.65-4.95-.15-7.05-2.65-1-1.25-3.45-7.3Q0 122.45 0 106.65q0-6.7 1.95-15.1 1.15-5 3.65-13 1.65-5.35 4.55-9.8 1.65-2.5 5.25-6.75 3.45-3.95 4.65-6.1 1.95-3.45 2.2-7.65.5-8.95 2.4-13.9 1.75-4.55 4.45-5.25 2.45-6.8 3.8-8.4 2.55-3 8.9-3.15l5.5-.6q1.9-.65 3.4-2.6l1.35-2.05q.95-1.55 1.85-2.5 2.8-2.95 6.05-3.5l6.3.3 3.45.85 2.8.55q.9-.2 2.75-1.6l3.15-2.2q4.1-2.35 6.35-3.25 4.2-1.6 7.4-.45 1.4.45 4.6 2.85l3 2.2 3.3.2q4.2-1.85 7.85-2 3.2-.1 5.55 1.15Q119 6.2 121 9.05q1.9 2.65 2.45 5.3.6 3.1.7 18.4.05 6.65.95 13.8l.2 3q0 2.75-.8 5.4-.8 2.6-2.2 4.3-2.1 2.55-6.15 3.5l-6.4.75q2.15 3.25 2.15 6.2 0 6.7-2.1 10.4-.75 1.3-2.9 2.65-2.15 1.4-4.55 2.05-6 1.6-14.3.75-8.15-.85-12.75-3.35-4.75 2.05-15.1 1.8 0 3.45 2.75 7 3.45 4.45 3.45 9.35 0 2.25-.85 5.35l8.15.35q7.55.45 10.9 2.3 6.75 3.6 12.7 12.35 5.25 7.7 6.35 13.55 8.25-4.3 14.5-5.35 6.9-1.2 14.4.85 7.45 2 13.1 6.25 3.1 2.25 6.5 5.65l.1.1-1.1 1.25-.1-.1q-8.75-7.55-16.85-10.25-15.1-5.1-30.8 3.55l-.7 4q-.9 3.8-1.6 3-.65-.8-.45-2.85l.45-4.55q0-5.4-5.6-13.55-5.95-8.6-12.85-12.2-2.1-1.1-9.4-1.65l-8.55-.45q-6.25 10.6-6.6 6.25 1.25-.9 4.7-7.95 1.05-2.1.95-6.55-.15-5.1-2.1-7.7-2.35-3.05-3.5-5.75-.65-1.6-.65-2.3-6.45-.1-13-3.15t-8.75-6.95q-.8-1.35-.55-1.7.2-.4 1.65.95 8.8 8 20.45 9.1 7.35.65 15-1.45-4.95-2.9-5.7-5.6-.6-2.05-.1-4.3.35-1.55 1.05-2.7l4-.2q-2.75 4.5-2.1 6.9 1.1 3.85 7.35 6.2 6.8 2.5 18 2.4l7.2-.8q4.3-1.15 5.4-3.15 2.15-3.9 2.35-8.8.2-5.2-2.2-7.25l-7.8-.8.75-2.05q15.05 2.95 20.15-3.4 3.1-3.75 2.25-10.65"/><path fill="#0d131a" d="M45.75 92.05q-.1-1.55 1.7-6.25l1.8-4.45 1.45.55-2.9 9.1q-.7 2.35-1.3 2.65-.55.25-.75-1.6m16.35 45.8q-2.9-7.55-2-16.75.15-1.2.45-.3l.55 2.85q.95 8.1 2.1 11.3 3.5 9.8 12.45 12.5 3.2 1 2.5 1.4l-3 .05q-9.25-1.05-13.05-11.05m37.3-110l-.8-3.6q-.4-2.3-.15-4 .25-1.85 1-1.7.7.1.9 1.3l.35 3.55q.35 3.15.95 6.1 1.65 8.3 2.05 16.25.7 14.8-4.1 19-4.4 3.85-12.9 3.4-8.05-.35-10.7-3.65l.95-1.2q2.95 2.35 9.8 2.5 7.55.15 11.4-3.2 3.5-3.05 3.2-16.7-.25-10.85-1.95-18.05"/><path fill="#0d131a" d="M75.9 40.45l-1.2-7.65q-.6-3.95-.5-5.95.15-2.75 1.3-2.25 1.1.45.95 3.4-.15 2.75.95 12.25l1.2 8.6q.75 5.2.7 7.55-.05 6.5-3.4 9.95-3.2 3.25-9.1 3.5-7.1.3-9.95-2.45-2.65-2.55-4.65-11l-4.9-19.1q-.65-3.05.2-3.5.85-.5 1.75 2.3Q50.5 39.9 53.6 55q1.95 8.3 4.4 10.7 2.45 2.4 8.65 2.15 5.8-.25 8.45-4.35 2-3.15 2.05-8.3.05-3.6-1.25-14.75"/><path fill="#0d131a" d="M29.1 48.45q-.65-2-.3-3.1.4-1.05.85.6Q35.1 65.75 41.95 69q5.15 2.45 10.35 1.1 3.7-.95 5.85-3.1l1.1 1.1q-2.95 2.9-7.3 4.2-5.7 1.7-10.9-.75-4.85-2.3-8.6-12.1l-3.35-11m251.9 148l-3.2.2q-.3-.5 3.15-1.7 3.3-1.15 9.95-6.55 6.15-5 7.8-7.3 1.4-1.95 1.9-1.65.5.3-.45 2.2-2 4-7.55 8.55-6.1 5.05-11.6 6.25"/><path fill="#0d131a" d="M329.35 122.75q4.15 3.45 11.7 17.1 9.25 16.9 9.25 27.9 0 2.25-1.05 5.55-3.1 9.1-6.55 11.55-2.8 1.95-11.3 2.45-2.65 1.2-6.8 6.85l-6.95 10.25q-4.6 7.25-6.8 10.1-3.65 4.7-7.6 6.2l-1.35-3.15q3.7-1.4 8.05-6.5l7.55-10.35 5.65-8.9q2.8-4.15 5.7-5.4l-2.6-.75q-2.3-.8-.65-1.15l3.15.05 3.3.5q4 0 7.65-2.3 5.85-3.7 7.6-12.2 2.05-10.15-7.8-28.8-3.5-6.6-7.65-12.65-3.55-5.2-5-6.4-2.8-2.4-5.9-6.85-3.1-4.5-5.5-9.65l-2.5-5.65q-5.3-12.05-7.85-15.5-3.1-4.1-8.4-10.65-6.2-7.65-8.45-9.95-4.5-4.5-12.2-9.35-6.05-3.85-11.05-.65-2.15 1.4-5.5 6.05l-.35.5q-.7.9-3.7 2.9l-6.05 4.2-5.35 4.25q-3.8 3.05-3.7 8.4.05 5.9 6.05 7.5 4 1.05 5.15 1.95 1.05.8-.6.9-2.7.15-6.1-1.25l-2.8-1.4q-3.1 2.8-2.75 6.5.25 3.35 2.4 6.85 2.15 3.45 5.15 5.45l1.35.85q5.55 3.7 8.05 4.8 5.55 2.4 9.1.35 2.45-1.45 3.15-1.35.4.05.25.4.1.45-.3 1.05-.8 1.3-3.3 2.35 5.55 6.55 10.25 8.15 2.95 1 5.3 0l9.3 4q2.25 1.85 6.65 1.65 3.95-.2 6.2-1.65 1.85-1.2 1.75-.35-.15.8-1.55 2.05-1.05.95-4.5 1.7l-3.25.55q.5 2 .5 5.9l-.45 4.3q-1.45 11.4-.45 17.35.95 5.5 6.4 11.85 5.85 6.8 11.05 7.25 4.9.4 4.6.85l-4.6.45q-6.15 0-11.65-6.2-4-4.5-6.4-10.5-1.15-.15-6.55-2.35-5.4-2.15-6.65-2.35-4.75-.7-12.3 3.7-9.2 5.4-12.75 14.5-1.25 3.25-1.9 3.55-.55.3-.55-1.5 0-1.3.8-3.3l.8-1.8q-6.85-7.8-17.5-8.15-3.8-.1-7.85 1.45-3.5 1.35-5.25 3.1l.55-2.55q2-1.95 5.15-3.25 3.85-1.55 7.95-1.4 9.45.35 17.4 8.9 3.85-7.1 12.8-12 7.95-4.4 12.65-3.7 1.75.25 6.95 2.35l5.45 2.15q-.7-3.2-.7-7.1 0-4.8.95-11.55l.4-4.05q0-2.25-.6-4l-.9-2.05-4.1-1.95q-3.35-1.75-5.4-3.35-3 1.05-7.3-.45-6.35-2.25-13.1-9.7-2.9.45-7.75-2-2.75-1.4-7.75-4.7l-1.3-.9q-3.55-2.35-6.15-6-2.8-3.9-3.1-7.5l-.05-1q0-3.2 3.7-6.9-3.05-3.75-3.05-6.9 0-4.65 5.7-9.2l5.4-4.3q7.6-5.85 8.85-7.5l.35-.5q8.5-11.95 19.35-5.1l7.1 4.6q3.25 2.25 5.55 4.55 2.4 2.4 8.25 9.5l8.05 10.2q1.65 2.2 4.25 7.7l4.3 9.6 2.5 5.65q2.45 5.2 6.45 10.55 3.4 4.55 5.95 6.7"/><path fill="#0d131a" d="M304.4 132.6q-1.05-1.25-1.05-1.75.05-.55 1.4.4 1.6 1.15 4.8 6.35 3.4 5.5 3.55 7.85.15 2.45-.35 3-.5.5-.8-1.3-.25-1.55-3.4-7.55-3.05-5.75-4.15-7m-36.2-63.85q1.7-1.9 2.45-2.1.7-.15 0 1.5-1.5 3.65-8.55 9.7l-5.2 4.7q-2.7 2.75-4.05 5.3-.5 1-.65 2.45-.1 1.85.55 3.35 1.95 4.55 8 6.2l-.4 1.5q-3.4-.95-5.85-2.7-2.65-1.9-3.75-4.35-1.7-4-.35-6.65 1.35-2.65 4.75-5.85l5.95-5.15q2.45-2.05 4.25-4.3l2.85-3.6"/><path fill="#0d131a" d="M269.5 88.4l7.8-5.45 2.45-2.85q1.9-2.45 2.35-1.45.45.95-1.2 2.75l-2.3 2.65q-1.7 1.6-7.55 5.5-3.5 2.3-5.75 5-2.4 2.9-2.85 5.55-.6 3.8 2.05 7.2 2.7 3.45 5 4.6 1.35.7 3.4.8l1 .1-.2 1.55-.9-.1q-2.4-.1-4.35-1.05-3.2-1.45-6.15-5.25-2.65-3.45-1.85-8.15.95-5.95 9.05-11.4"/><path fill="#0d131a" d="M287.7 93.7q1.45-2.4 2.1-2.2.65.15-.7 2.8-1.25 2.5-4.7 6.3-3 3.35-5.7 5.55-1.45 1.2-2.6 3.4-1.25 2.45-1.45 4.85-.3 3.1 1.4 5 2.5 2.9 6.85 5.4 4.95 2.8 7.45 1.95 1.8-.6 1.95-3.6l-3-2.15q-2.7-2.15-1.4-2.05 1.2.1 2.5.95l2.8 1.5 2.95.65q1.1-.1 2.95-1.2 1.95-1.2 2.7-.85.8.3-1.4 1.8l-3.4 2.3-3.3.1q-.55 3.2-2.85 4-3.15 1.05-8.75-2.15-4.65-2.65-7.25-5.65-1.1-1.25-1.85-3.25-.8-2.15-.65-3.9.4-4.5 4.55-7.95 2.65-2.2 5.95-5.7 3.45-3.7 4.85-5.9M29.75 193.45l.2 3.55q-12.05 14.6-11.2 31.1.5 10.1 4.95 17.6-.05-1.6.2-2 .55-.85 2 5.2 1 4.05 6.2 5.05 3.25.6 7.4 0 1.8-.25 3.9-1.1 2.55-1.1 3.2-1.25 1.55-.45 1 .5t-2.15 1.7q7 2.4 17.4-.1 10.75-2.6 16.55-8.5l1.45.7-1.35 1.5q3.6 2 5.3 4.95 1.55 2.75 2.4 7.95 2.4 2.65 8.85 5.6 6 2.7 14.55 5.25-.75.7-.75 2-14.9-4.65-24.15-11.8l-.2-.45q-.75-5.05-2.65-7.95-1.6-2.45-4.55-4.2-6.15 5.75-16.95 7.6-10 1.7-19.25-.5-4.55 1.7-8.7 1.55-8.1-.25-10.7-8.55-1.8-1.9-3.65-6.2-2.55-5.85-3.15-12.4-1.7-19.2 13.85-36.8m92.55-30.95q3.3-1.25 8.5-1.75l7.35.2q2.35.7 3.3 1.45 1 .75-1.15.35l-8.3.3q-6.25.7-8.85 1.7l-.85-2.25m94.7 42.2q0-2.35.25-3.1.25-.9.55 1.8 1.9 14.85 12.65 22.4 2.65 1.9 1.4 1.85-1-.1-4.1-1.3-4.6-1.85-8.05-10.9-2.7-7.05-2.7-10.75m-67.75 49.1l-3.5-.7q-.4-.3 2.55-.65 8.9-1.05 17.1-13.25 3-4.45 7.35-13.75 2.25-4.85 1.8-.5-.15 1.55-2.5 6.25-2.65 5.35-5.95 10.1-9.35 13.55-16.85 12.5m-34.6-11.85l1.2-.95q2 2.6 7.8 5.4 5.55 2.75 10.15 3.6 2.7.5 2.6.7l-2.9.2q-5.35.15-12.05-3.75-5.1-3-6.8-5.2"/><path fill="#0d131a" d="M153.75 255.75q-1-1.15-1.05-1.75-.1-.7 1.6.5l4.7 3.5q3.35 2.3 6.05 3.3 3.15 1.15 2.9 1.45l-3.25-.35q-2.6-.6-6.55-3.2-3.25-2.15-4.4-3.45m-5.5 5.8q-.55-.7-.25-.9.25-.2 1.15.7 4.3 4.25 7.7 6.15 3.35 1.8 7.2 2.05 3 .15 2.65.6-.35.4-2.65.65-4.9.55-10.6-3.95-3.05-2.45-5.2-5.3m-36.7-6.05q-2.15-1.35-2.45-2-.3-.7 3.15 1.1 4.35 2.25 10.25 3.05l14.25.45q1.5-.05 1.35.35-.15.35-1.35.6-8 1.85-14.55.7-5.55-.95-10.65-4.25M46.5 192.15q-.45-1.25-.15-1.85.35-.7 1.25.8t1.15 3.2l.2 4.65v11.65q0 8 .45 11.2 1.1 7.7 4.85 10 8.55 5.15 17.8 1.35 4.65-1.9 7.9-5.15l2.2 1.85q-3.45 3.4-8.8 5.45-10.65 4.2-20.65-1.95-4.2-2.55-5.4-12.75-.5-4.2-.5-15.2l.2-6.05q.15-5.1-.5-7.2"/><path fill="#0d131a" d="M69.75 184.3q-.3-2.35.5-2.7.85-.35 1.6 2.15 1.1 3.4.75 20.4.1 7.1 1.7 13.25 1.8 6.9 4.65 9 3.55 2.55 6.3 3.05 3.95.65 10.9-1.15 7.3-1.9 9.95-4.9 2.2-2.55 2.1-7.25-.1-3.75-4.25-22.95l-1.55-6.45-.8-3.2q-.8-5.65.3-7.25.4-.6.85-.3.4.3.5 1.1.2 2.75.85 6.45l2.15 11.1L109 207.4q1.35 6.75 1.4 9.3.15 5.5-3.1 8.65-3.1 2.95-10.7 4.95-7.25 1.9-12.55.9-3.95-.75-7.9-3.6-3.1-2.2-4.3-9.5-.75-4.6-.9-13.55l-1.2-20.25"/><path fill="#0d131a" d="M72.3 163.85q-4.2 1.4-10.3 0-3.75-.85-6.75.45-2.35 1.05-5 3.9l-3.7 3.6q-2.3 1.85-4.8 2.65-7.4 2.4-9.75 10-1.4 4.55-1.4 15.35v4.25q-.1 10.3.35 15.2.8 8.3 3.5 11.45 3.15 3.7 9.3 4.55 6.2.9 10.05-1.9l2.3 1.6-3.2 2.7q4.5 5.15 10.9 5.35 2.35.05 10-1.55l-1.95-6.3 3.8-1.6.7 4.95q1.7 5.3 6.95 6.9 3.4 1 11.2.25 6.6-.7 13.2-2.2 10.25-2.4 18.1-8.3 2.5-1.9 2.25-6.6-.2-3.35-1.4-6.15l-1.05.4q-5.35 1.75-9.85 2.3-6.05.7-7.85-1.25l.95-1.8q1.4 1.5 9.05.45 7.65-1.1 10.3-3.3 6.25-5.3 6-15.5-.1-5.4-3.5-16.05-2.8-8.85-7.1-19.05-2.95-7.05-7.4-8.2-2.75-.7-9.55 1-2.9.75-6.05-.05l-5.5-2.1-4.15-1.65q-2.25-.75-4.2-.6-2.5.15-4.7 1.15-1.35.65-3.7 2.2-4.35 2.9-6.05 3.5M28.25 191.6q0-4.7.8-7.7 2.15-8.2 12.05-11.5 2.15-.75 4.15-2.4l3.4-3.3q3.25-3.5 5.35-4.65 3.45-1.95 7.9-.9 5.5 1.25 9.3 0 1.6-.55 5.7-3.2 2.6-1.8 4-2.4 2.45-1.2 5.3-1.4 2.2-.15 5.1 1l4.7 2.1 4.35 1.7 4.5-.15q7.6-1.9 11-1.1 5.95 1.4 9.75 10 3.85 8.85 6.75 17 4.8 13.65 4.95 20.25v.65q0 5.3-2.4 9.35-2.05 3.45-6.15 6.55 1.45 1 2.2 3.5.7 2.2.7 4.65 0 4.95-2.3 6.75-4.1 3.1-9.55 5.8-6.3 3.15-11.75 4.4-5.95 1.4-13.8 1.7-8.65.35-12.55-1.05-4.55-1.6-6.25-3.9l-1.2.25-5.35 1.35-6.65.95q-8.4.05-11.95-7.45l-1.05-.05-8.3-1.15q-5.05-1.4-8.2-5.1-2.65-3.1-3.65-9.9-.75-4.95-.75-13.45l.05-9-.15-8.2m233.7 70.75q-1.7.6-4.95 3.6-4.35 4-6.4 8.5-2.2 4.9-.5 11.55.6 2.6.35 2.75-.25.2-1.8-2.2-1.6-2.45-1.6-6.4-.05-3.9 1.45-7.2 2.15-4.75 7.15-8.55 3.2-2.5 5.75-3.5l.55 1.45m6.5 8.95l.2-1.8 1.5.25-.15 1.65q-.4 5.55-1.85 6.75-.95.8-1.95-.35t.1-2q2-1.45 2.15-4.5"/><path fill="#0d131a" d="M260.1 260.8l1.3-.8q3.45 5.55 7.4 8.3 3.9 2.7 8.6 3 2.05.15 1.8.4l-.65.25q3.65 2.5 9.95.05 2.45-.95 2.2-.25t-2.55 2.2q-2.05 1.4-5.25 1-3-.35-5.7-2.1-9.7-.15-17.1-12.05"/><path fill="#0d131a" d="M244.55 226.3l3.75-.15-.35 2.15q-3.6-.9-5.6 4.55-1.3 3.7-1.3 5.5 0 2.65 2.2 6.2 1.5 2.5 2.85 5.8l2.25 4.4q1.25 1.95 2.8 2.45l1.95.7q2.6 1.1 4.15 1.4 2.5.5 4.4-.35 2.4-1 5.6-8.9l1.3 2.6-2.45 5.3q-1.4 2.3-3.2 3.1l-5.7.3q-2-.4-5.05-1.6l-1.85-.7q-1.9-.6-3.3-3.05l-2.3-5.05-2.75-5.6q-2.5-4.05-2.75-7.6-.15-2.75 1.15-6.45 1.4-3.95 4.2-5"/><path fill="#0d131a" d="M226.6 192.15l-.85-.05-3.2-.45q-1.4-.6-1.85-2.35l1.75-.4q.2.9.85 1.15l2.5.3.9.05q10.3.6 17.15 8.15 7.2 7.85 7.25 19.85 5.05-4.75 15.75-10.05l5.1-2.6 3.25-1.95q1.55-1.25 6.1-1.15 4.5.05 8.5 1.35 2.8.9 4.65 2.95 1.65 1.75 2.25 3.95.45 1.55 2 2.55l2.45 1.35q1.8 1.1 2.55 3.05.95 2.4 1.3 7.85.1 1.65 1.15 2.8l1.85 1.85q2.05 2.5 2.05 6.6l-.6 3.7-.6 3.5q0 2.25.45 4.95 1.1 5.85.45 10.35-.65 4.3-5.85 9.4l-6.8 5.65q4.65 10.05 4.65 17.4 0 7.1-6 13.35l-6.4 6.65-5 5.6q-1.4 1.45-3.25 1.9l-8.6.4q-6.25-.9-8.5-5.05-1-1.75-2.15-2.85l-2.15-1.85q-3.5-2.95-5.3-4.9-3.2-3.5-4.7-8.25-6.8-1.35-14.3-7.5-8.45-6.95-11.9-15.65-1.45-3.6-2.3-8.05l-1-6.4q-.5-3.3-1-4.95-.75-2.35-2.3-4.35-2.45 4.6-8.7 8.85-7.35 5-15.8 6.3-3.45 5.65-10.55 8.45-4.2 1.65-12.25 2.9l-5.55 1.05q-2.65.65-3.65 1.6l-1.95.25-8.8.25v-1.35l9.85-.6q1.35-1.15 4.1-1.85l5.75-1.1q4.55-.65 10.85-3.1 8-3.1 9.9-6.4l-7.3-.2q-7.5-.35-8.65-1.25-.95-.75 3.3-.65 7.5.1 11.95-.25 12.9-1 21.6-10.4 2.8-3.05 5.45-7.35l3.25-5.35q2.25-3.3 6.2-5.1 1.55-.75 1.95-.45.5.25-.75 1.6-3.1 3.25-4.5 5-2.55 3.25-4.75 7.35 2.05 1.05 2.9 3.8l1.2 7.05q1.15 7.4 3.25 12.7 3.15 7.9 12.95 15.8 7.25 5.85 11.35 7.35l-.1-2.45q.05-1.2.7-.15.4.65 1.2 3.15.8 2.6 1.95 4.5 1.25 2.1 3.7 4.5l4.5 4.2 2.15 2.55 1.8 2.5q2.25 2.9 7.35 3.65 4 .6 7.2-.15 1.8-.4 3-1.4l5.1-5.1 6.45-6.7q6.2-6.4 4.6-17.15-1.2-7.7-3.7-10.7l-3.2 2.65q-1.75 1.25.25-2.4.3-.55 7.7-7.35 6.5-5.9 7.1-10.05.55-3.95.05-10.55-.45-5.2.1-7.5.9-3.7.35-5.85-.35-1.3-1.8-3.05l-1.7-2.45q-.85-1.65-1-3.8-.3-4.6-1.55-6.75-.75-1.3-2.7-2.55l-2.2-1.75q-1.2-1.3-1.8-3.4-.85-3.1-6.05-4.75-3.7-1.2-7.95-1.2-3.9 0-5 .9-1.2.95-7.15 3.8-6.95 3.45-10.3 5.35-5.9 3.3-7.3 5.3-1.5 3.65-1.95 6.95-.5 3.75.5 5.85 1.4 2.7 4.55 4.45 1.55.9 2.85 1.2l-.35 1.5-3.8-.95q-3.9-1.5-5.5-4.65-1.6-3.2-1.15-7.55.4-4.1 2.35-7.25-.5-13.2-7.85-21.05-6.15-6.6-14.3-7.1"/><path fill="#0d131a" d="M275.45 220.5q3.5-2.1 5.05-3.75 1.7-1.75 2-1.05.3.7-.8 2-.8 1-3.9 3.05l-9 5.7-3.9 2.5q-1.7 1.15-3.85 4.65-2.3 3.65-2.65 6.2-.15 1.25.4 1.95 2.9 3.3 4.55 4.7 3.2 2.75 5.3 2.4l.25 1.5q-3.5.9-6.55-1.65l-4.55-5.1q-.5-.55-.85-1.75-.35-1.25-.25-2.25.4-3.05 1.65-6.15 1.2-3.05 2.65-4.6 1.15-1.3 3.8-2.65 1.5-.8 4.9-2.5l5.75-3.2"/><path fill="#0d131a" d="M289.8 234.4q2.05-.95 2.15-.25.05.65-1.65 1.7l-10.85 5.65q-9.35 4.9-10 5.7-.35.55-.3 2.05 0 1.7.55 3.65.35 1.25 1.55 2.75 1.25 1.65 2.65 2.35 1.85 1 10-2.05 6.2-2.3 9.8-4.25 1.85-1 2.1-.35.2.7-1.4 1.7-3.65 2.35-9.85 5-8.9 3.8-11.8 2.25-1.45-.8-2.75-2.6-1.4-1.85-1.9-3.8-.6-2.15-.55-4.45.05-2.1.55-3.05.8-1.25 10.25-6.25 7.85-4.15 11.45-5.75"/><path fill="#0d131a" d="M273.1 260.15l1.5-.25q.3 2.25 1.6 4.8 1.65 3.2 3.5 3.55 2.35.4 6.65-.15 5.8-.7 9.9-3 1.8-1 2.35-.6.55.35-1.2 1.65-7.95 5.8-17.95 3.6-3.55-.75-5.15-4.35-.75-1.75-1.2-5.25m-45.15-104.9l2.05-2.15q.3 10.7-5.6 18.2l-2.2.4q1.8-2.25 3.35-6.3 1.9-4.95 2.4-10.15m-38.85-38.7q.65.75 1.85 1.45l2.15 1.1q-5.4-.5-10.7.65.2-1.55 0-2.35 3.25-.8 6.7-.85M169 147.3q3.4-5 5.95-6.25l.5.95q-2 1-5.15 6.2-3.65 5.95-2.8 9.5l-1.6-.75q-.95-3.8 3.1-9.65m13.25 20.25q.9-.3 1.5-2.75l1.1 1.05q-.3 1.05-.9 1.6l-1.1.8-.6-.7m19.7 11.75l-.75-.35q.75-2.85 2.95-5.15l2.6-.6-2.1 2.15q-2.25 2.45-2.7 3.95m15.2-14.55l1.05-.35q1.25 1.15-.4 5.5-1.6 4.25-3.75 6.15l-1.8.55q2.45-2.15 4-6.65 1.35-3.95.9-5.2M175.5 164q-1.35-2.25-.95-5.35.5-4.1 4.1-8.1l.45.65q-2.7 4.05-3.25 7.5-.5 2.9.6 4.75.65 1.15 1.7 1.1 2.1-.15 3.85-4.1l.6.5q-1.95 4.55-4.4 4.7-1.75.1-2.7-1.65"/><path fill="#0d131a" d="M213.6 167.55l1.1.2q-.6 3.55-3.2 7.2-2.5 3.4-4.8 4.2-1.3.45-2.05-.3-1.25-1.15-.2-5.25l1.2-.45q-.55 2.05-.5 3.6.05 1.1.25 1.3l.95.05q1.9-.65 4.2-3.75 2.5-3.35 3.05-6.8"/><path fill="#0d131a" d="M177.65 106.85q-3.75-7.6-8.85-7.6-3.9 0-5.85 10.55-1.8 9.5-.9 19.55 2.15-2.55 3.8-2.9 3.2-.65 7.7 8.35 4.35 8.8 10.95 28.8 1.5-17.95-1-34.7-2.1-14.5-5.85-22.05m36.4-4.45q-1.2-2.05-2.4-2.85-2-1.2-5.2.05-4.6 1.85-9.95 7.55-5.1 5.45-6.7 9.8 4.7.45 7.4 4.45 3.95 5.8 3.95 18.8 0 6.85-1.1 14.75-.95 6.95-2.45 12.65 10.8-16.7 15.7-31.05 3.8-11.2 3.8-20.4 0-3.55-.65-7.1-.8-3.9-2.4-6.65m28.55 19.75q-2.8-1.85-11.05.95-6.7 2.3-11.4 5.25 2.65 2.35 4.1 4.5 1.45 2.2 1.45 3.8 0 5.4-20.05 35.8 10.45-6.15 22.2-19.65 12.35-14.25 15.5-24.9l.5-2.95q0-1.95-1.25-2.8m-37.85-24.5q2.25-1.15 4.15-1.3 2.4-.2 4.7 1.15 2.05 1.25 3.35 3.65 1.3 2.5 2.2 6.9.55 2.8.3 7.4-.3 5-1.5 10.85l1 .85q5.45-3.7 11.95-6.1 9.35-3.5 13.7-.75 3.05 2.05 1.4 7.65-3.6 12.3-15.75 26-12.4 13.95-26.8 21.5-1.4.75-1.85.6-.55-.15.85-1.8 2.4-2.85 11.85-18.95 10.2-17.35 9.65-19.3-.4-1.5-2.45-3.7-2.05-2.2-4.15-3.4-2.5 10.8-7.35 21.25-5.7 12.3-13.9 22.3l-1.45 1.3q-.85.45-.3-1.2 2.95-8.5 4.45-23.4 2-19.55-2.95-26.85-2.7-3.85-7.2-3.8h-1.05l.25-1.05q1.2-4.55 6.35-10.7 5.3-6.4 10.55-9.1m-37.4-.85q3.1-1.4 6.4.9 7.6 5.4 11.4 30.95 1.95 13.3 1.8 26.3-.15 9.65-.95 12.2-.4 1.3-.9 1-.45-.25-1.2-1.95-3.5-9.7-7-18.45-6.95-17.35-10-19.55-.3-.25-.7-.15-.85.15-2.7 2.4-2.5 3.05-4.95 7.95-1.7 3.4-7.45 5.55-5.35 2-9.3 1.35-2.15-.35-2.5-.85-.35-.55 2.5-.8 6.3-.45 9.8-2.05 3.25-1.45 4.5-3.95 1.6-3.25 4.45-6.8-.45-2.6-.35-7.4.05-5.1.65-10.35.85-7.25 2.35-11.15 1.6-4 4.15-5.15m30.65 93l1.5-.2q1.4 1.45 1.7 4.15.3 2.45-.3 4.75l-1.05.4q.5-2-.05-4.85-.55-2.95-1.8-4.25"/><path fill="#0d131a" d="M166.65 196.35l5.5.4q5.95.6 8.45 1.4 2.35.75 6.8 5 3.7 3.55 6.95 3.25 1.55-4.95 14.55-16.2-2.3-.4-8.65.2-6.25.6-9.7 0-7.65-1.3-13.7-9.55-3.15-4.35-8.45-8.65-4.55-3.7-9.5-6.45l.3 3.35q.25 3.5.1 5.4l-.5 5.05q-.35 3.2-.35 4.75l.05 2.6q.35 4.45 1.85 6.45 1.85 2.45 6.3 3m12.55-29.55q-4.65-2.75-8.35-5.4l-5.2-3.9-1.6-1.15q-.95-.7-3.75-4.3-4.75-6.3-7.35-5.85-2.4.4-3.4 1.95-1.5 2.4-1.15 8.3l.1 1.6q.35 5.7.15 7.75-.3 2.65-2.05 7.55-1.85 5.05-1.25 8.15.6 3.15 4.4 8.6 1.9 2.8 3.45 7.3.85 2.7 1.7 3.8 1.25 1.65 4.35 3.05 2.55 1.2 5.7 2l5.35 1.15 4.9 1.1q2.45.7 4 1.75 4.8 3.35 8.2 4.45 4.85 1.65 7.45-.85 1.6-1.55 5.15-7.35 3.3-5.25 5.75-8.4 3.7-4.8 7.2-7.25l-2.2-.4q-1.5.95-7.45 6.7-6.8 6.6-7.9 9.2l2.3-.1q-.15.65-2.6 1.1l-3.75-.1q-1.75-.6-4.7-3l-4.5-3.85q-1.5-1.05-3.2-1.45l-7.9-1-4.55-.5q-5.05-.6-7.35-3.05-2.1-2.2-2.4-6.65-.1-1.75.3-6.15l.65-7.25q.3-5.2-.3-9.15-.65-4.25-2.95-11.45-.55-1.6-.15-1.85.4-.2 1.05 1.45 2.5 6.4 3.1 9.8 4.55 2.15 10.65 7.35 6.2 5.2 9 9.4 2.65 3.95 7.25 6.45 3.6 1.95 7.45 2.6l7.75-.25 13.15.45 3.7.3 2.2-.55q2.55-1.15 4-3.3 1.6-2.4 1.6-6.15 0-3.2-1.3-7.5-5.15 3.2-11.4 5.65-9.4 3.6-15.05 2.6-3.4-.6-5.85-2.45-1.5-1.1-4.1-4.05-3.65-4.15-8.3-6.9m-7.3-6.5l8.35 5.55q5.25 3.1 8.45 6.75 2.3 2.6 3.8 3.7 2.2 1.6 5.25 2.3 6.15 1.35 16.2-3.1 6.4-2.9 9.95-5.55l1.05.15q2.1 4.85 2.2 9.4.1 4.75-2 7.9-2.75 4.15-9.9 3.9-3.75 2.1-7.45 6.9-1.95 2.6-5.7 8.7l-3.2 5.25-3 4.05q-3.4 3.3-9.55.5-2.05-.9-8.1-5.1-1.35-.95-3.65-1.6l-4.6-1-5.8-.95q-3.75-.7-6.3-1.85-3.5-1.6-5.05-3.7-1-1.3-1.9-4.15l-.8-3.3q-.6-2.3-1.75-4-4.5-6.55-5.15-8.55-1-3.1.8-8.15 1.95-5.45 2.45-7.9.65-3.4.35-8.3l-.1-1.6q-.35-5.9 1.1-8.95 1.45-3.1 4.85-3.65 2.05-.35 4.55 2 1.5 1.4 4.35 5.1 2.5 3.25 3.45 3.95l1.6 1.2 5.25 4.1M82.35 269.25q2.4 2.65 8.8 6.4 7.8 4.6 16.8 7.8.15 1.05.6 2.1-9.55-3.3-18-8.35-6.7-4-9.35-6.9l1.15-1.05m77.75 14.85l.55 1.45q-6.35 2.5-13.05 3.65l1.1-1.75q5.8-1.05 11.4-3.35m-71.45-14q0 1 .65 1.65.7.65 1.65.65t1.6-.65q.7-.7.7-1.65t-.7-1.6q-.65-.7-1.6-.7-.95 0-1.65.7-.65.65-.65 1.6m-.8.1q0-1.4 1-2.4t2.4-1q1.4 0 2.4 1t1 2.4q0 1.45-1 2.45-1 1-2.4 1t-2.4-1q-1-1.05-1-2.45m12.6 3.7q-.7.7-.7 1.65t.7 1.6q.7.7 1.65.7t1.6-.7q.7-.65.7-1.6 0-.95-.7-1.65-.65-.7-1.6-.7-.95 0-1.65.7M99 275.65q0-1.4 1-2.4t2.4-1q1.45 0 2.4 1 1 1 1 2.4t-1 2.4q-1 1-2.4 1t-2.4-1q-1-1-1-2.4"/><path fill="#0d131a" d="M155.9 283.7q.25-.8-.15-1.55-.35-.7-1.1-.95l-1.35.15q-.7.4-.95 1.25-.2.8.15 1.55t1.05.95l1.4-.15q.75-.5.95-1.25m-3.45-3.05q1.1-.6 2.2-.25 1.15.35 1.75 1.45.6 1.1.25 2.35-.4 1.25-1.5 1.9l-2.2.25q-1.15-.35-1.75-1.45-.6-1.1-.25-2.35.4-1.3 1.5-1.9m9.45.5q0-.7-.55-1.25-.55-.5-1.3-.5-.45.15-.45 1.75t.45 1.75q.75 0 1.3-.5.55-.55.55-1.25m-2.05-2.55q1.2 0 2.1.85.85.85.85 2t-.85 1.85q-.85.65-2.1.65-1.3 0-1.3-2.5 0-2.85 1.3-2.85m-50.1-7.35q.35-1.2 2.1-1.45 1.1-.15 4.75 0l-.1 1.55-3.35-.15q-1.6 0-1.7.35-.7 2.6-1.45 6.25-1 4.65-.9 6.05.1.9 5.65 3.6l.5 1.95q-1.85-.55-3.75-1.55-3.8-1.95-3.9-3.9-.1-1.65.8-6.45.75-4.2 1.35-6.25m30.3 21.45l.75-1.8 5.35-1.85q.6-.3 1.55-3.15.95-3.15 1.5-7.1-.2-.45-2.95-2.2l-.55-2.15 2.55 1.8q2.55 1.95 2.45 2.65-.4 3.45-1.3 6.7-1.3 4.5-2.8 4.9l-6.55 2.2"/><path fill="#0d131a" d="M115 274.4q-2.7 5.95-.3 11.8 2.25 5.55 8.05 8 6.25 2.6 12.65-.05 6.5-2.65 9.05-8.9 2.4-5.8.1-11.35-2.35-5.6-8.05-8-6.3-2.65-12.7.05-6.15 2.5-8.8 8.45m-1.95 12.45q-2.65-6.4.3-12.95 2.9-6.55 9.65-9.3 7-2.85 13.85-.05 6.35 2.7 8.9 8.85 2.55 6.15-.1 12.55-1.35 3.3-3.9 5.8t-5.95 3.9q-7 2.95-13.85.05-6.35-2.6-8.9-8.85"/><path fill="#0d131a" d="M120.1 275.5q-2.05 4.05-.75 8.2 1.25 4.1 5.1 6.05 4.05 2.05 8.35.5 4.25-1.45 6.35-5.5 2.05-4 .75-8.2-1.25-4.1-5.1-6-4.05-2-8.35-.55-4.25 1.5-6.35 5.5m-2.05 8.55q-1.4-4.6.85-9 2.3-4.45 7-6.05 4.7-1.7 9.15.55 4.25 2.15 5.7 6.7 1.45 4.6-.85 9.05-2.3 4.4-6.95 6-4.8 1.6-9.2-.55-4.25-2.15-5.7-6.7"/><path fill="#0d131a" d="M134.6 282.4q1-1.85.4-3.75-.6-1.85-2.35-2.7-1.9-.95-3.95-.25-2 .7-2.95 2.5-1 1.85-.35 3.75.55 1.8 2.35 2.75l3.9.2q2-.65 2.95-2.5m-1.6-7.35q2.2 1.1 2.9 3.4l.3 1.75q0 1.95-1.15 3.55-1.2 1.65-3.15 2.3-2.5.85-4.75-.3-2.2-1.1-2.9-3.35-.75-2.35.45-4.6 1.15-2.2 3.55-3.05 2.5-.85 4.75.3m-48.9-12.4q-.85.2-1.45 1.2-1 1.75.5 2.95 1.05.75 2.1-1.2 1.05-2 .15-2.75l-1.3-.2m2.05-.3q.75.6.65 2.05-.1 1.35-.9 2.4-.85 1.15-1.95 1.2-.7.05-1.15-.3-1.05-.75-1.25-1.9-.25-1.2.4-2.4.65-1.15 1.9-1.5 1.25-.35 2.3.45"/><path fill="#e50038" d="M134.25 269.9q1.55.2 2.4 1.3.9 1.05.5 2.5-.4 1.4-1.75 2.15l-1.05.55-1.1.05-1.9-.25-.75 2.9-.35.55-.65.3-2.05-.2-.45-.55-.05-.8 2.25-8.65.9-.45 4.05.6m-.95 2.3l-.85-.2-.45 1.75.85.15.8-.15.45-.55q.1-.4-.15-.65-.2-.25-.65-.35"/><path fill="#0d131a" d="M132.65 274.25q-1.3-.15-.95-1.5.3-1.4 1.65-1.2 1.45.2 1 1.5-.45 1.25-1.7 1.2"/><path fill="#0d131a" d="M130.65 269.8q-.9 0-1.1.75l-2.05 7.95q-.25.75.2.75l1.85.2q.45.1.65-.65l.65-2.4q.2-.8.95-.65l3.3-.3q1.3-.6 1.65-1.9.45-1.6-1.15-2.7-1.7-1.15-4.95-1.05m.65-.8q3.45.1 5.1 1.4 1.75 1.25 1.2 3.45-1 3.6-5.5 2.95-.45-.05-.55.3l-.45 1.8q-.25 1-.65 1.3l-1.05.25-1.9-.25q-.55-.1-.8-.7-.2-.65 0-1.45l1.85-7.15q.3-1.15.85-1.55.6-.4 1.9-.35"/></svg>