<svg xmlns="http://www.w3.org/2000/svg" width="224" height="239" viewBox="-0.55 -3.6 223.55 238.8"><path fill="#0d131a" d="M177.25 63.55q19.55 3.25 31.85 22.3 6.2 9.6 9.95 20.15 2.5 7 3.55 13.1.4 2.5-.55 2.8-.95.3-4.55-1.25l-7.5-2.85q-5.15-1.9-9.15-2.9-9.05-2.25-16.15-1.45-6.45.75-21.6 5.55-7 2.25-13.65-.25-4.35-1.65-9.15-5.7-.4-9.55-1.65-13.6-1.7-5.6-7-11.4 3.05-8 7.1-12.55 3.4-3.85 9.5-7.2 13.45-7.3 29-4.75"/><path fill="#a7d081" d="M173.5 64.5q21.05 2.95 35.55 24.7 5.4 8.15 8.8 17.4 2.9 7.95 3.15 13.2l-11.75-4.3q-7.8-2.65-13.85-3.75-11.35-2.05-32.7 5-6.1 2-13.1-.3-6.95-2.3-9.8-7.25-.3-2.4-3.4-10.4-2.95-7.5-3.8-8.8 5.25-13.5 16.7-20.5 11.2-6.8 24.2-5"/><path fill="#0d131a" d="M201.4 93.3q-7.75-8.5-17-12.55-21.75-9.6-41.2 7.95-1.3 1.25-1.8 1.1-.55-.1 1.15-2.1 8.2-9.55 18.9-12.15 10-2.4 20.55 1.6Q192.25 81 200.8 90q8.75 9.25 13.65 21.85.55 1.5 0 1.45-.55-.05-1.2-1.55-4.4-10.3-11.85-18.45m-78.25-54q1.75 1.7.95 4.35l-2.95 5.75q-5.65 9.8-5 17.95.3 3.8 4.35 8.15l8.6 8.25q12.3 12.2 12.3 27.55 0 17.2-10.15 35.55-8.9 16.05-23 28.9-3.55 3.25-3.2 12.85.45 10.5 6.5 15.05 2.95 2.2 6.2 3.35 3.15 1.2 5.7 1.1 1.1-.05 4.15-1.4 3.8-1.65 6.1-2.3 9.05-2.6 18.25 1.85 2.55 1.25 2.6 2.7.05 1.45-2.85.3-6.45-2.55-11.65-2.6-6.05-.05-11.4 3.2 16.75-.75 21.95 12.45 1.4 3.5.4 3.9-1.05.45-3-2.8-4-6.65-9.75-9.25-4.8-2.2-10.35-1.5 2.3 1.6 3.85 5.5 1.9 4.75 1.8 11.1 0 2.4-.85 3.25-.8.85-1-.95-.6-6.3-1.8-9.45-.15 5.05-2.4 10.45-1.15 2.65-2.2 2.65-1.05-.05-.35-2.65 2.4-9.05 1.55-14.35-.8-4.85-4.2-5.85l-6.15-1.55q-4.15-1.35-7.5-4.15-5.85-4.85-8.25-12-2.75-8.2.45-16.3-12 7.9-28.7 9.85-15.45 1.85-25.85-2.15-5.9-2.25-11.7-6.65l-6.75-5.8q-1.75-1.55-4.2-2.35l-4.2-.6q-6.05.2-10.95-2.35-5.95-3.1-8.1-9.4-.95-2.65.05-2.9t2.45 2.2l2.1 3.2 2.4 2.45Q5.55 159.8 6 155.8q.2-1.65.95-1.8.8-.1 1 1.5.6 4.15 1.35 6.3.85 2.4 2.3 3.65 3.4 2.95 9.45 1.75-8-8.65-4.4-22.05 1-3.6 2.25-3.9 1.2-.3.6 3.75l-.55 2.3q-.4 1.45-.4 2.45 1.8-3.1 4.2-4.85 1.3-.95 1.55-.35.3.6-.75 1.85l-2.7 3.6q-1.1 1.7-1.5 3.4-.6 2.6 1 6.5 1.85 4.55 5.55 7.05-2-5.65 0-11.2 1.9-5.3 7-9.45 2.25-1.8 2.85-.85.6 1-1.7 3.45-5.05 5.35-5.7 11.2-.5 4.6 1.75 8.75 4.3 7.85 17.1 12.6 11.5 4.2 29.7.4 16.9-3.5 24.4-10.15 8.75-7.75 13.95-20.5 4.7-11.7 6.75-28.5 2.4-19.4-5.25-28.9l-6.4-6.7q-3.55-3.75-4.7-7.7-5.95-20.45 3.45-33.5 3.5-4.9 7.9-6.75l6.15.15"/><path fill="#bf794e" d="M109.85 49.2q2.45-4.9 5.65-7.3 3.05-2.3 4.75-.7 2.1 1.95.85 4.7l-3.7 6.15q-5.95 10.25-.65 22.4.45 1.05 4.2 4.55l7.55 7.45q10.4 11.6 10.4 22.9 0 18.05-8.3 34.5-7.8 15.5-23.5 30.55-3.25 3.1-3.65 10.6-.4 6.7 1.4 11.65 2.95 8.1 11.3 11.3 6.7 2.55 9.6 1 8.9-4.85 16.95-4.1 5.85.5 10.55 3.8-8.45-4.25-16.65-2.9-6.75 1.1-10.95 5.2 13.2-1.1 19.95 5.7 3.35 3.4 4.05 7.05-5.05-9.7-14.85-11.65l-6.25-.35-2.55.35q3.6 3.05 5.4 9.2 1.15 4.05 1.35 8.35-.75-4.9-2.35-8.6l-1.5-2.7q.55 3.8-1.15 9.65-.8 2.95-1.75 5.1 2.4-8.05 2-13.5-.55-8.35-7.65-9.3-7.1-1-11.95-5.7-3.5-3.4-6.3-9.45-1.7-5.1-1.3-10.9.45-5.95 2.9-9.75-7.05 6.9-23.25 10.65-15.85 3.7-27.05 1.45-6.7-1.3-12.1-4.35-5.85-3.25-13-10.05-1.3-1.2-3.75-2.05-2.45-.9-4.35-.8-7.1.4-12.15-2.65-5.35-3.2-6.95-9.3.85 1.9 2.65 4.05 2.45 3 5.05 4.2-.65-1.35-1.2-3.25-1.1-3.85-.55-6.75l.25 3.2q.6 3.8 2.6 6.7 1.05 1.55 3.7 2.35 3.85 1.25 9.5-.1-4.05-4.25-5.45-8.7-2.15-7.1 1.1-16.7l-.6 3.25q-.5 3.6-.2 5.4l4.4-4.45-1.95 2.25q-2 2.65-2.25 4.75-.5 3.4 1.4 7.3 2.45 5.1 8.25 9-1.7-3.4-1.7-8.05 0-9.25 8.45-15.3-5.35 5.45-7.05 10.9-2.3 7.6 2.95 14.35 4.8 6.2 12.35 9.65 7.4 3.4 16.25 3.75 12.3.4 26.55-4.15 12.4-4 17.45-8.35Q115.4 162 122.1 135q2.55-10.3 3.25-19.25.7-8.55-.6-10.85l-9.45-15.55q-5.45-8.75-6.7-12.35-5.2-14.85 1.25-27.8"/><path fill="#0d131a" d="M177.45 42.55q2.05 10.8 7.1 19.9 2.15 3.95-2.4 10.05-4 5.35-9.6 8.4-4.4 2.45-12.5 3.45-9.45 1.15-11.1-2.55-2.4-5.3-15.4-16.05-13.45-11.15-16.7-17.1-6.7-12.25-2.7-25.05 3.7-11.8 14.05-18.15Q142.85-3.6 156.85 2q14.05 5.6 17.55 22.05 1.4 6.45 3.05 18.5"/><path fill="#f0e800" d="M172 22.95l3.45 18.85q1.65 8.85 5.7 17.2 1.7 3.45-3.25 8.7-3.95 4.2-9.35 7.2-3.45 1.9-10.15 2.15-7.5.3-9.45-2.7l-1.45 2.4q-3.35-4.5-13.8-13.25-9.95-8.35-15.05-15.8-5.4-7.95-2.9-20.4 2.8-13.65 13.75-19.95 13.85-8 26.65-3.1 12.55 4.8 15.85 18.7"/><path fill="#0d131a" d="M138.35 38.6q.6 1.1.25 2.25-.3 1.2-1.4 1.8l-2.25.25q-1.2-.3-1.8-1.4-.6-1.1-.25-2.25.3-1.2 1.4-1.8 1.1-.6 2.25-.25 1.2.3 1.8 1.4m29.2-11.65q.6 1.1.25 2.3-.35 1.2-1.45 1.8l-2.25.25q-1.2-.35-1.8-1.45-.6-1.1-.25-2.25.35-1.2 1.45-1.8 1.1-.6 2.25-.25 1.2.35 1.8 1.4"/><path fill="#cec900" d="M118.65 47.7q-4.85-7.05-3.25-18.35Q117.15 17.2 125.7 10q-10.05 31.3 9.3 47.3 5.6 4.65 9.5 8.7 3.7 3.9 5.15 6.45.75 1.35-.6 3l-1.55 1.3q-3.35-4.5-13.8-13.25-9.95-8.35-15.05-15.8"/><path fill="#0d131a" d="M187.2 61.55q1.85 3.75-1.8 9.45-4.05 6.25-12.5 10.9-8.5 4.65-16 5.05-7.6.35-10-3.85-2.5-4.35 1.9-10.4 4.4-6.05 13.4-10.6 8.95-4.55 16.05-4.65 6.95-.1 8.95 4.1"/><path fill="#f4b1b1" d="M185.95 62.3q1.75 3.1-2.45 8.55-4.25 5.45-11.65 9.5-7.5 4.15-14.3 4.85-6.95.75-8.75-2.6-2.4-4.35 2.4-9.85 4.05-4.65 12.3-9.2 7.3-4 13.95-4.35 6.55-.3 8.5 3.1"/><path fill="#d3999b" d="M181.5 66.9q-1.15 1.9.05 3.25 1.2 1.4 3.25-1.2-1.8 2.95-5.15 5.95-3.5 3.1-7.8 5.45-7.5 4.15-14.3 4.85-6.95.75-8.75-2.6-2.4-4.35 2.3-9.7 0 5.25 4.8 4.35 1.6-.3 14.8-6.35 11.6-5.35 10.8-4"/><path fill="#0d131a" d="M112.25 22.3q-6.75 16.55-7.35 22.15-.95 8.45 5.75 15.6 9.9 10.5 13.1 15.45 6.2 9.45 5.75 19.2-.7 15.95-15.1 20.75-13.4 4.45-28.9-2.9-11.55-5.45-18.9-16.35-7.55-11.25-7.75-24-.35-21.8 16.6-36.45 12-10.4 32.2-16.75 4.25-1.35 5.15-.65.75.65-.55 3.95"/><path fill="#a7d081" d="M92.55 26.95q6.75-3.55 12.8-5.6 5.5-1.8 5.65-1.05.1.35-3.6 9.05-4.05 9.6-4.6 17.85-.3 5.15 3.45 10.35 1.4 2 10.5 12 9.7 10.8 10.5 22.7.75 11.55-7.2 17.8-7.85 6.15-20.2 4.5-13.25-1.75-24.4-11.8-10.85-9.8-13.75-23.1-3.25-14.95 4.85-30.05 6.75-12.55 26-22.65"/><path fill="#d3999b" d="M181.4 67.45l.35.8q.45.8 1.05.85.6 0 1.4-.7-1.45 2.75-4.65 5.6-3.3 3-7.85 5.45-7.5 4.1-13.7 4.8-6.4.7-8.25-2.6-1.35-2.45-.5-5.05 0 2.55.9 3.25 1.55 1.2 3.75.2 1.1-.55 1.9-1.3l25.6-11.3"/><path fill="#0d131a" d="M182 66.15q.8 1.45-3.6 5.4-4.05 3.7-8.5 6.1-4.85 2.65-9.8 4.05-5.5 1.5-6.35-.05-.95-1.7 1.85-4.8 3.2-3.5 9.9-7.2 6.9-3.8 11.6-4.5 4-.6 4.9 1"/><path fill="#fff" d="M135.15 40.15q-.35 0-.65-.3-.3-.25-.3-.65t.3-.7q.25-.25.65-.25.95 0 .95.95l-.25.65q-.3.3-.7.3M164 28.45q-.95 0-.95-.95 0-.4.25-.65.3-.3.7-.3.4 0 .65.3l.3.65-.3.7-.65.25"/><path fill="#90b571" d="M92.55 26.95q6.75-3.55 12.8-5.6 5.5-1.8 5.65-1.05.15.6-2.85 7.35-3.5 7.9-4.7 14.45-3.85-2-6.85-.7-3.75 1.55-6.75 8.2-3.6 7.9-11.95 15.35-8.95 8-17 9.3-.95-12.4 5.65-24.65 6.75-12.55 26-22.65"/><path fill="#0d131a" d="M102.35 30.25l1.7-1q.45 0-.65 1.1Q97.05 37 93 45.8q-4.45 9.75-4.55 19.25-.2 23.65 25.9 36 2.35 1.1 2.3 1.5l-2-.25Q100 97.25 92.8 86.8q-6.25-9.05-6.2-21.1 0-10.6 4.7-20.8 4.5-9.65 11.05-14.65"/></svg>