<svg xmlns="http://www.w3.org/2000/svg" width="190" height="183" viewBox="-0.8 -2.35 190.45 182.7"><path fill="#84cabf" d="M86.45 91.9q-2.7-1.5-9.45-12.35-5.8-9.35-7.7-13.7-1.75-3.9-3.8-10.7-2.45-7.8-1.6-8.45 1.3-.95 7.8-1.15l1.5-5.05q1.75-5.1 2.95-5.1 1.2 0 12.85 9.45l11.4 9.45 2.4 4.85q3.55 5.9 9.15 10.85l-.6 6.9q-1.55 7.65-6.5 11.5-5.7 4.45-10.25 5.15-4 .6-8.15-1.65"/><path fill="#84cabf" d="M164.85 9.2q11.85 8.45 11.85 19.05 0 2-1.1 3.3l-1.65-2.25q-3.65 7.3-3.65 12.85 0 8.15 2.55 8.15 1.15 0 2.1-1.1l.75-1.15 1.4 1.75q1.35 2.3 1.35 4.9 0 2.65-1.75 4.6l-1.75 1.45q-1.6 7.4-10.7 13.7-10 6.9-22.25 6.9-18.6 0-32.4-13.35-13.4-12.9-13.4-29.1 0-17.15 13.4-28.15Q121.9.7 138.15.7q14.8 0 26.7 8.5"/><path fill="#84cabf" d="M163.6 76.45q2.4 1.05 4.75 2.3 3.8 2.05 10.45 6.55h3.2q3.25.15 3.35.85.25 1.05-.8 5.1l1.85.8q1.9.9 2.05 1.6.25 1.05-3.8 5.1 1.3 1.9.6 3.45-.65 1.4-6.35 3.4-6.45 2.2-12.35 2.2-5.4 0-10.3-1.5l-3.85-1.5q.75-6.3.5-12.5-.15-3.85-1.5-8.3l-1.35-3.7 6.4-2q1.7-.6 5.25-2.65l1.9.8M74.5 118.5q2.7 0 6.25 3.15 4.15 3.65 6.6 9.55 5.85 14.2 3.8 18.7-.75 1.75-3.95 6.05-4.2 5.65-5.7 8l-6.4 9.25q-3.65 5-4.3 5.25-.8.35-7-5.95-10.35 4.15-10.85 3.9-.45-.2-1.05-7.1-8.1-4.3-8.2-5.6-.05-.8 3.55-4.05l3.6-3.1q.35-4.1 1.35-9.2 2.05-10.25 5.55-15.4Q66.8 118.5 74.5 118.5m57 23.2q4.15-2.7 8.95-8.75l4-5.55 5.2 4.85q5.15 6.1 5.15 12.4 0 4.45-.7 7.25l-.75 1.9 4.1 2.05q4 2.2 3.75 3.1-.2 1-3.9 3.5-.3.2.45.8.75.65.35.9-5.15 3.1-13.9 6.2-8.3 3-10.35 2.75-1.3-.15-5.3-5.2-3.55-4.5-4.3-6.15-.45-.95-6.5-6.1l-6-4.95q13.05-4.75 19.75-9"/><path fill="#84cabf" d="M1.6 92.35q0-13.6 8.95-22.45 8.5-8.45 20.4-8.45 10.7 0 17.1 7.55 6.65 7.8 6.65 21.6l-.95 9.65q-.95 8.15-.95 13.85 0 6.25 2.8 12.25 1.35 2.95 2.75 4.7l-2.2 4.6-2.4 6.2q-3.5-.05-8.5-1.25-10-2.5-17.5-8.45-10.95-8.75-18.05-18.8-8.1-11.5-8.1-21"/><path fill="#f2e100" d="M111.95 70l5.1 3.3q6.3 3.75 12.35 6.05t13.95 1.85l6.7-.9 1.6 5.1q1.55 6.15 1.55 11.7 0 22.4-15.55 38.75-15.8 16.6-38.05 16.6-3.75 0-6.6-.85l-2.1-.9q.55-2.25.25-6.1-.65-7.7-5.05-15.75-4.35-8.05-9.05-10.05-1.45-.65-2.75-.6l-1.05.15 2.95-2.65q3.45-3.7 6.1-8.75Q85 101.9 86 96.6l.45-4.25 1.4.65q1.8.65 3.8.8 6.45.4 12.7-4.75 5.3-4.35 6.95-12.15l.65-6.9"/><path fill="#eeeeef" d="M82.25 88q1.25 1.75 4.45 4.3l-.75 4.65q-1.2 5.5-3.5 9.75-2.25 4.3-6.1 8.45l-3.4 3.3-1.55.55-3.2 1.35q-1.35.7-3.35 2.75l-1.75 1.95q.45-2.85 1.2-6.15 1.45-6.55 2.8-8.7.9-1.4 4.25-5.05 3.2-3.55 4.8-6.3 1.8-3.1 2.4-9.5l.3-5.8 3.4 4.45"/><path fill="#cf7100" d="M78.5 89.2q-.45 6.9-2.35 10-1.6 2.7-5.25 6.6-3.55 3.75-4.35 5.2-1.8 3.2-3.6 13.45l-4.6 6.6q-1.4-1.35-2.75-4.3-2.8-5.95-2.8-14.1 0-19.1 8.1-35.5 4.05-8.2 8.1-12.55l4.55 8.8 5 9.5-.05 6.3"/><path fill="#eeeeef" d="M90.2 45.95l5.5-3.8 3 11.5-8.5-7.7"/><path fill="#c6000b" d="M121.6 40.55q-.5-.9-.2-4.7.4-4.2 1.6-8.25 3.5-11.35 10.8-11.35 2.95 0 4.35 4.1 1.7 4.85-.75 12.3-1.3 3.9-3.3 7.15-1.95 3.15-3.3 3.7-1.2.45-5.1-.95-3.75-1.35-4.1-2m52.35-11.25q.75 0 1.85 2.15 1.5 2.9 1.5 7.1 0 4.75-1.65 8.5-1.55 3.5-3.2 3.5-2.4 0-2.4-6.75 0-5.4 1.95-10.5l1.95-4"/><path fill="#fff" d="M131.15 43.65q2.65-2.5 4.25-5.4 1.6-2.95 2.85-6.1l-.6 5.45q-.85 5.55-2 6.15l-2.95.3-1.55-.4"/><path fill="#0d131a" d="M131.75 21.35q1.25.25 1.9 2.6.65 2.5.05 5.8-.55 2.95-2.05 4.9-1.55 2.05-3.2 1.7-1.6-.35-2.15-2.85-.55-2.3.1-5.25.75-3.4 2.45-5.4 1.55-1.75 2.9-1.5M171.4 44.8q-.75-.25-.85-2.05-.1-1.55.3-3.45.4-1.9 1.25-3.45 1-1.75 1.85-1.35.9.4.95 2.35.1 1.6-.4 3.8-.4 1.75-1.5 3.1-1 1.2-1.6 1.05"/><path fill="#fff" d="M133.15 16.75q.95.55 1.6 2.35.7 2.2.05 4.3-.7 2.3-2.55 3.4-1.65 1.05-3.1.55-1.8-.55-2.4-2.5-.6-2 .35-4.55.8-2.1 3-3.2 2-1 3.05-.35m40.7 14.3q.45.15.7 1.2.25 1.1 0 2.25-.75 3.45-1.9 3.25-.7-.15-.9-1.2-.2-1.05.15-2.5.9-3.3 1.95-3"/><path fill="#cbbd00" d="M111.95 70l6.2 3.6q7.8 3.95 15.5 5.95 4.85 1.2 11.15.9l5.3-.55.75 1.85q-1.2 1.05-3.5 2.15-4.6 2.1-10.15 2.1-6.1 0-15-6.2-8-5.6-10.25-9.8m17.3 73.1q-13.6 9.35-29.15 9.35l-6.5-.85-2.7-.9.55-2.4q.4-2.85-.1-5.05l-.9-4.85-.35-2.25q10.1 3.65 25.3 3.35 16.7-.3 24.35-5.75-3.7 4.7-10.5 9.35"/><path fill="#72b0a6" d="M81.75 56.55q-.5 1.6-1.2 2-.65.4-.95-.9-.45-2.3-.35-5.9l.2-3.15q0-1.7.5-2.45.55-.95 1.4 1.35 1.75 4.7.4 9.05m4.35 35.5q-3.15-2.4-8.95-11.55Q72 72.3 69.8 67.15q-1.75-4-3.5-9.45-1.5-4.6-2.05-7.05-.65-2.7.25-3.3 1.05-.75 3.7 3.3l18.6 22.5q15.15 18.25 13.45 19.2-2.75 1.55-6.4 1.75-4.65.3-7.75-2.05m79.65 15.7q-5.55 0-10-1.45l-3.35-1.5.8-7.7q3.35 2 12.4 3.85 11.15 2.3 19.65 1.25-.95 1.4-3.85 2.8-5.85 2.75-15.65 2.75m-35.85 35.2q-2.5 1.8-1.55 5.2.85 3.25 4.45 6.5 8.8 7.95 20.85 6.45l-1.5-.65q-1.7-.65-1.5-.7l5.4-.5 5.45-1.15q-1.05 2.1-4.1 4.25-.2.1.25.85.45.7.2.85-2.1 1.35-8.7 4.6-6.55 3.15-11.35 4.1l-4.55.2q-1.15-.35-8.5-11.35l-13.25-10.4 3.9-1.4 6.7-2.7q3.85-1.75 7.8-4.15m-85.8 21.1q-.2-.95 4.5 1.1 4.5 1.95 3.9 3.8l-4.6-1.55-3.8-3.35m19.35 8.25l-6.5 3-2.75.6-1.7.2.45-1.6q.3.45 4.1-1.6 4.4-2.3 5.3-2.5 1.4-.35 1.7.6.25.85-.6 1.3m4.9 4.6q.5.25 3.1-2.85t3.9-5.55l8.1-15.65q6.65-13.6 6.15-16.1l1.4 5.05q1.2 5.65-.1 8.9-1.15 2.9-3.4 5.5-3.35 3.8-5.05 6.4-10.6 16.2-11.4 16.2l-1.65-.95-1.05-.95m-11.8-42.45l-2.8 7.4q-3.35.15-8.5-1.15-10.3-2.6-19.25-9.8-9.35-7.5-15.75-16.75l-4.5-7.75q9.65 5.3 11.05 5.45 1.45.2 9.6-2.1 5 10.3 15.1 17.9 9.05 6.8 15.05 6.8"/><path fill="#72b0a6" d="M2.7 82.5q1.1-3.55 3.05-6.8l1.7-2.55Q5.85 81.95 8.6 89q2.4 6.15 7.5 9.7 4.7 3.3 9.8 3.15 5.2-.2 8.05-3.95l-.65 2.45q-.85 2.75-2.05 4.55-1.6 2.45-5.15 4.55-4.05 2.4-7.7 2.4-3.85 0-7.6-2.3-3.65-2.2-5.55-5.45Q-.8 93.85 2.7 82.5"/><path fill="#a95b00" d="M59.3 81q1.75-4.2 3.75-7.45l1.65-2.45q-3.55 9.45-2.6 24.5.9 14.05 4.05 17.4l-3.2 11.45-4.6 6.6q-1.5-1-2.95-3.9-2.9-5.8-2.45-15.45.8-17.35 6.35-30.7"/><path fill="#c8c9ca" d="M78.35 112.8l-4.6 5.55-2.2.65q-2.45.85-3.85 1.75l-4.75 3.7q.95-4.95 1.45-6.85l1.05-3.05.7-1.55q.45 1.4 3.7 1.7 3.95.35 8.5-1.9"/><path fill="#0d131a" d="M172.5 15.55q3.8 4.95 4.9 9.7 1.1 4.7-.95 7-.2.25-.55-.85-.35-1.15-.2-1.45 1.2-1.95-.45-6.05-1.7-4.2-5.5-8.55-9.6-10.95-22.65-12.9-18.55-2.8-32.6 6.2t-16.65 25.4q-2.5 15.9 8.65 29 11.1 13 29.55 16.05 12.95 2.15 24.5-3.85 10.9-5.7 13.5-14.7l.9.05q.75.35.65.7-2.7 9.5-14.15 15.5-12.05 6.25-25.7 4-19.2-3.2-31.05-16.9-12-13.85-9.35-30.35Q98.15 15.9 112.5 6.8q14.4-9.15 34.9-6.05 15.65 2.35 25.1 14.8"/><path fill="#0d131a" d="M175.15 48.15q-.15-.15.35-.6.5-.4.75-.2 3.05 2.9 2.85 7.55-.25 4.6-3.4 6.9l-1.1-.1q-.6-.6-1.45-1.1-1.2-.7-2.15-.7l-5.4 2.25q-5.25 2.2-8.2 2.1-1.25-.05-6.2-3-5.55-3.3-6.85-3.75-2.1-.7-8.25-1.85l-9.2-1.4q-3.5-.35-6.75-2.85-3.1-2.35-4.7-5.55-.75-1.55-.2-1.8.5-.25 1.25 1.3 1.35 2.75 4.35 4.8 3.05 2.05 6.25 2.4l9.35 1.4q6.35 1.2 8.5 2 1.3.5 6.7 3.65 4.85 2.85 5.9 2.95 2.7.2 7.9-2l5.45-2.35q2.15-.1 4.35 1.8 1.8-1.6 2-5.3.2-4.05-2.1-6.55"/><path fill="#0d131a" d="M152.35 52.4q.6-.3 1.8 1.55 1.25 1.85.45 2.2-.8.35-1.8-1.55-1-1.95-.45-2.2m13.35 3.25q.3.6-1.15 1.7-1.4 1.05-1.7.65-.3-.4 1.15-1.7 1.4-1.3 1.7-.65m6.75-31.4l1.15-.15q.2.3-.7.9l-1.2 1.25-1.2 1.9q-.45.95-1 .65-.55-.3-.15-1.25 1.15-2.45 3.1-3.3m-35.25-10.9q-.95-.5-.8-.95.2-.4 1.15 0 1.8.8 3 2.3 1.3 1.65 1.5 3.65.1 1.6-.45 1.65-.6 0-.85-1.5-.7-3.5-3.55-5.15"/><path fill="#0d131a" d="M138.4 39.7q-1.3 4.5-2.35 4.95-2.05.9-8.35-.7-6.55-1.65-7.05-3.6-.45-1.8 0-5.8.45-4.5 1.8-8.55 3.7-11.05 10.95-10.55 7.45.5 6.6 14.45-.3 5.1-1.6 9.8m-5.1-22.55q-2.9-.2-5.3 2.7-2.4 2.95-4.05 8.8-.85 3-1.35 7.05-.45 3.5-.3 4.25l.25.3.95.65q2.25 1.15 6.7 1.9l5.1.35q.65-.7 1.55-4.45 1.05-4.2 1.3-8.2l.1-3.05q0-5.9-1.65-8.4-1.2-1.75-3.3-1.9"/><path fill="#0d131a" d="M137.75 22.05q-.05-.35.7-.45.75-.1.8.25.75 4.9-1 11.05-2 7.1-6.2 10.6l-.8-.1q-.6-.2-.35-.4 4-3.5 5.9-10.35 1.7-6 .95-10.6m37.9 11.2q-.65-2.15-1.6-3.15-1.4 2.7-2.25 6.7-.75 3.75-.75 7.2 0 3.05.65 4.85.35.85.65.85.65.05 1.25-.45 1.1-.9 1.85-3.4.7-2.5.9-6l.05-1.25q0-2.9-.75-5.35m-1.05-5.75q.6-.65.55-.05l-.55 1.6q1.7 1.3 2.7 4.65.95 3.15.75 6.25-.35 6.15-2.25 9.2-1.55 2.45-3.6 2.25-1.3-.1-2.05-1.95-1.45-3.55-.15-10.65 1.4-7.55 4.6-11.3M90.1 46.8l-1.2-1.25q2.8-3.45 6.95-4.2.5-.1.55.85.05.95-.4 1.05-3.6 1-5.9 3.55M68.55 63.4l1.25 2.45q-5.25 7.05-9.1 15.3-5.55 11.7-6.65 26.2-1.25 16.25 4.9 23.15.25.25-.35.8t-.85.3q-6.55-7.3-5.85-24.25.6-15.55 6.2-27.3Q62.4 71 68.55 63.4m8.7 28.05q.9-5.95.15-10.05-.1-.3.95.55 1 .85 1.05 1.2.85 4.55-.15 9.85-.95 5.05-2.95 7.9l-5.2 5.95q-2.8 2.9-3.6 4.55-1.25 2.7-2.4 6.55-1.1 3.85-1.35 6.05l-.9 1.4-.85.75q.4-3.35 1.55-7.9 1.25-4.75 2.5-7.5.9-1.95 4.05-5.4l4.6-5.55q1.65-2.6 2.55-8.35"/><path fill="#0d131a" d="M58.05 83q.05-.35.85-.15.8.15.75.45-1.1 5.6.6 13.75 1.9 8.85 6.25 15.65.2.3-.5.75l-.85.1q-5.2-8.05-6.9-16.5-1.55-7.4-.2-14.05m27.4 9.05q0-.3.95.15l.95.6q-.3 14.45-13.15 25.65-.25.2-1.3 0-1-.2-.75-.4 4.65-3.55 8.7-10.75 4.6-8.2 4.6-15.25m63.7-11.4q-.15-.35.6-.65.75-.35.85 0 3.55 8.05 3.55 15.35 0 34.7-26.95 50.2-10.05 5.8-21.25 7.25-10 1.25-15.25-1.35-.3-.15.05-.85.35-.75.65-.6 5.2 2.6 14.9 1.1 10.65-1.6 20.25-7.45 11.35-6.9 17.85-18 7.7-13 7.7-30.3 0-7.8-2.95-14.7"/><path fill="#0d131a" d="M108.8 83.9q-.1-.25.4-1.05.55-.75.65-.45 2.05 4.9 7.4 8.8 5.4 3.85 12.85 5.75 6.75 1.75 12.85 1.3 6.1-.5 9.3-3.05.25-.2.75.45t.25.85q-3.6 2.85-10 3.55-6.6.75-13.65-1.05-7.35-1.9-12.95-6.05-5.4-3.95-7.85-9.05"/><path fill="#0d131a" d="M139.75 99.25q-.85 9.8-8.3 26.5-7.65 17.15-13.6 21.35l-.75-.45q-.45-.65-.2-.85 4.85-3.45 12.8-21.25 7.75-17.4 8.45-25.45 0-.35.8-.25.85.05.8.4m-37.2-9.9l.6.2.25.55.85 13.1.6 11.85-.2.55-5.65 5.5q-6.45 5.8-12.05 8.6l-.6.05-.5-.4-.05-.35q0-.5.45-.75 7.7-3.85 17-13.5L102.6 103l-.8-12.8v-.05q0-.8.75-.8"/><path fill="#0d131a" d="M128.7 127.7l7.85.35q4.8-.15 7.65-.9.35-.05.1.7l-.55.8q-2.8.95-7.3 1.3-4.65.4-8.4-.1-7.45-.95-13.95-4.65-6.35-3.65-9.95-8.9-.2-.3.05-1.15.2-.85.4-.6 3.2 4.75 10.15 8.4 6.45 3.35 13.95 4.75m-37.3 17.8q-.35-.05-.2-.7.1-.65.45-.6l12.7 1.2q9.1.55 12.95.25l.55.15.3.5.25 2.5q.1.35-.6.5l-.75-.15-.35-1.85-13.2-.4-12.1-1.4"/><path fill="#0d131a" d="M77.9 120.15q-2.1-1.45-5-.8-2.8.55-5.85 3.05-4.35 3.55-8.45 10.5-3.1 5.2-5.4 14.9-1.1 4.85-1.65 8.75l-.3.5-4.55 4q-1.95 2-1.95 2.6.1.6 2.4 2 2.25 1.45 5.2 2.75.5.15.5.7 0 4.95.65 6.15 2-.4 10.1-3.7l.95.2 3.4 3.7q1.85 1.75 2.45 1.9.95-.5 4.6-5.55l5.2-7.7q1.7-2.75 7.3-10.05l1.95-2.55q1.25-1.6 1.25-5.05l-.25-3.35q-1.05-6.6-4.7-13.35-3.7-6.7-7.85-9.6m-26.25 25.6q1.95-9.5 4.95-14.55 5.5-9.25 12.2-12.4 5.9-2.85 10 0 8.3 5.8 12.1 17.85 3.6 11.5-.2 16.35-6.2 7.75-9.1 11.95l-5.4 8.6q-3.85 6.1-5.15 6.35-1.95.45-7.35-6.65-3.45 2.2-6.9 3.6-3.35 1.35-4.3 1-.8-.3-1.05-2.05-.15-1.35-.2-6.15l-5.65-2.4q-3.6-1.75-3.75-3.05-.1-1.1 1.85-3.2 2.2-2.4 6.3-5l1.65-10.25m101.05-5.6q-2.6-7.5-9.15-12.05-.2-.15.65-1.05.8-.95 1.1-.75 7.3 5.1 9.7 13.9 2.15 7.85-.5 13.3 8.05 3.45 8.05 5.4 0 1.2-4.75 4.35l-1.55-1.3q4.05-2.45 4.05-3.15 0-.55-2.3-1.8-2.1-1.2-4.95-2.35l-.55-.5.2-.75q2.55-5.95 0-13.25m9.35-64.65q.75-.75.95-.65 3.45 1.25 9.4 5.1 6.45 4.1 8.8 7 .55.7.15 1.15-.45.4-1-.3-2.25-2.8-9.4-6.95-6.5-3.75-9.4-4.5-.3-.1.5-.85"/><path fill="#0d131a" d="M178.75 85.2q-.6-.55-.3-.6l4.5-.2q2.7.2 3.3 1 .35.5.05 2.2l-.9 3.15q3.95 1.2 4.2 2.8.05.55-.95 1.95-1.2 1.7-3.35 3.5 1 1.25 1 2.7 0 1.45-3.05 3.25-3.2 1.85-7.9 2.9-12.25 2.75-23.15-2.2-.35-.15-.1-1.1.2-1 .5-.85 2.8 1.25 6.9 2.1l10.35 1q5.1 0 10.15-2.2 4.4-1.95 4.4-3 0-.85-.8-2.35-.3-.5.1-.95 3.45-3.45 3.7-4.55-.45-.75-3.2-1.75l-.55-.35v-.6q.9-3.15.9-4.6v-.1l-2-.4-3-.15-.8-.6m-152.1-1.15q-1.6-.45-3 0-1.4.5-2.2 1.75-.6 1-1.05.75-.45-.25.05-1.25 1.05-2.1 2.8-2.75 1.55-.55 3.85-.05 3.9.85 6.4 4.55 2.5 3.6 2.5 8.15 0 7-5.45 12.35-5.4 5.25-12.3 5.25-7.2 0-12.65-6.35Q0 100 0 91.25 0 77.5 9.9 68.4 19.05 60 30.95 60q12.2 0 18.5 8.6 6.35 8.6 6 24.8-.05 1.4-.9 2.4-.85.95-.8-.05.95-16.45-5.7-25.4-6.15-8.25-17.1-8.25-10 0-18.35 7.45-9.55 8.5-9.55 21.7 0 8.2 4.4 13.85t10.8 5.65q6.15 0 10.55-4.55 4.35-4.55 4.35-11 0-4.75-2.1-7.85-1.8-2.55-4.4-3.3"/><path fill="#0d131a" d="M1.15 97.95q-.1-.3.8-.15t.95.35Q8.8 115.4 23.95 128q15.2 12.7 30.15 12.7.35 0 .1 1.05-.25 1.05-.6 1.05-15.1 0-30.65-13.1Q7.1 116.35 1.15 97.95m109.3 53.75q-.25-.15.9-.7 1.1-.55 1.3-.45 7.25 3.7 14.85 13.25l4.55 6q1.95 2.5 2.65 2.45 4.8-.3 13.85-4 8.65-3.55 8.7-4.75.05-.5-1.4-1.3t-3.45-1.35q-1.95-.6-1.75-1.1l2.15-.15q2.85.55 4.9 1.9 1.9 1.3 1.6 2.15-1.05 3.15-11 7.05-9.8 3.8-14.3 3.2-1.1-.15-8.4-8.65-8.2-9.65-15.15-13.55M99.7 52.4q.35.2.6 1.6.3 1.35 0 1.15-2.9-1.8-13.75-10.7-9.7-7.95-10.25-7.85-.7.1-2 3.9-1.2 3.65-1.5 6.25-.2 2-.8 1.95-.6 0-.6-2 .05-3.9 1.35-7.9 1.4-4.15 3-4.5 1.5-.3 10.95 7.55 11.5 9.6 13 10.55"/><path fill="#0d131a" d="M112 69.95l.85.5q.3 3.2-.8 7.75-1.15 4.8-3.05 7.45-4.55 6.3-11.3 8.35-6.65 2.05-11.5-1.1-6.25-4.05-15.8-23.4-9.45-19.05-7.9-23.35.5-1.4 4.1-1.6l5.45.35q.3.05.25.85 0 .8-.35.75-2.1-.15-4.4 0-2.4.2-2.75.55-1.3 3.7 7.3 21.8 8.9 18.7 15 22.65 4.25 2.8 10.1.7 5.85-2.1 10.05-7.95 1.95-2.7 3.2-7.15 1.2-4.45.75-7.1l.8-.05"/><path fill="#0d131a" d="M84.1 45.5q2.45 1.6 3.35 2.95.95 1.5.25 1.95-.7.4-1.65-1.05-.6-.95-2.6-2.05-1.9-1.05-2.5-.9-.5.5-.75 3.1-.25 2.95.1 6.85.2 1.95-.65 2-.8.05-.95-1.9-.95-11.15 1.3-12.2 1.3-.6 4.1 1.25"/></svg>