<svg xmlns="http://www.w3.org/2000/svg" width="255" height="285" viewBox="-0.65 0.0 255.4 285.45"><path fill="#a7d081" d="M117.85 84.1q-7.1 2.45-14.75 4.3l-23.05 5.35Q63 97.2 61.2 95.6q-3.7-3.15-5.7-9.95-1.95-6.3-1.85-13.6.05-8.8 7.55-23.55l5.35-10.35q2.55-5.15 2.9-7.55.6-4.4-1.45-15.5-1.9-10-2.8-11.45-.6-.9.25-1.7.75-.75 2.3-.85 20.8-.65 37.85 12.55 17.15 13.25 20.95 33.2 1.7 4.65 2.95 17.05 1.3 13.35-.55 15-2.45 2.2-11.1 5.2"/><path fill="#90b571" d="M66.3 40.75l1.2.1Q64 51.9 61.85 62.75q-2.55 12.95-1.6 18.9.7 3.95 1.05 14l-.1-.05q-3.7-3.15-5.7-9.95-1.95-6.3-1.85-13.6.05-5.85 4.55-15.5l8.1-15.8"/><path fill="#0d131a" d="M128.4 69.1q-.95-32.1-20.15-50.8-17.65-17.15-42-15.85 1.7 5.3 3.1 11.75 2.75 12.95.95 19.2-1.1 3.8-5.8 12.15-5 8.8-6.7 13.9-4.55 13.7-1.45 24.25 1.9 6.5 6.05 10.4 2.9 2.75 1.45 3.3-1.4.55-4.15-1.6-5.45-4.2-7.3-14.65-2.1-11.6 2.45-22.55 1.15-2.85 7-13.1 4.7-8.25 5.75-13.3 1.3-6.35-.3-15.75-1.15-6.8-3.5-13.65-.65-1.8.65-2.35L68.7 0q23.45 0 39.75 13.95 20.9 17.95 22.5 54.6.05 1.25-1.25 2.05-1.25.75-1.3-1.5"/><path fill="#f0e800" d="M203.9 135.95q-6.1 13.35-16.85 25.9-27.45 32.15-67.4 40.7-8.5 1.8-19.35-16.55-9.75-16.5-17.1-41.25-7.4-24.9-7.55-42-.1-19.15 9.5-18.7 17.5.8 36.7-9.6l13.4-7.9q6.85-4.1 10.5-5 24.75-6.1 42.7 7.5 19.55 14.8 20.75 46.7.3 8-5.3 20.2"/><path fill="#bf794e" d="M244.35 97.95q-2.85 4.1-5.5 5.3-1.95.85-2.45.65-.5-.2-.75-1.95 1.45-5.05 1.85-9.45.75-8.55-5.3-11.35-3.85-1.8-9.15-.15-4.95 1.55-8.15 4.95-1.25 1.35-7.75-7.65-6.5-8.95-4.8-10.35 7.5-6.15 21.7-6.15 15.05 0 22.9 7.85 6.2 6.15 1.95 19-1.7 5.1-4.55 9.3"/><path fill="#f0e800" d="M188.25 65.5q4.1-1.75 10.65.45 7.75 2.65 12 9.4 4.55 7.15 3.75 14.35-.6 5.35-3.95 10-1.3 1.85-2.15.75-.65-.75-1.8-4.5-2.05-6.7-6.7-14.25-5.25-8.35-9.9-11.1-2.4-1.4-3.05-2.8-.7-1.5 1.15-2.3"/><path fill="#cec900" d="M180.6 167.85Q166.7 181 149.85 190.6q-17.45 9.9-34 13.6l6.1-10.95q6.35-11.05 7.75-11.5 27.7-7.85 50.1-28.75 18.9-17.65 29.05-39.3 1.3 12.2-6.65 26.95-7.5 13.8-21.6 27.2m25.2-76.45q3.25-1.05 4.75-2.8 1.7-1.95 2.8-6.25 0-2.15.7 2.25.55 3.85.05 6.4-.95 5.5-5.1 9.75-.55-.9-1.35-3.8l-1.85-5.55"/><path fill="#0d131a" d="M43.5 79.7q26.8-7.05 51.45 7.55 25.05 14.85 34.35 44.3 9.4 29.75-2.4 56.6-5.6 12.7-15.2 21.75-9.9 9.35-22.75 13.4-12.85 4.1-26.45 2.2-13.25-1.85-25.2-9-12-7.15-20.8-18.5-9.15-11.85-13.35-26.55-3.8-13.35-3-28.1.85-14.65 6.1-27.7 5.45-13.55 14.6-22.75 9.85-9.85 22.65-13.2"/><path fill="#0d131a" d="M196.8 79q-4.35-6.4-11.7-10.95-7.55-4.7-16.55-6.3-21-3.75-39.4 9.7-10 7.3-22.75 11.1-12.6 3.8-21.1 2.25-2.5-.45-4.45-1.8-2.05-1.4 1.65-1.15 13.75.9 25.3-2.3 11.05-3.05 19.1-9.65 17-13.95 39.05-10.9 9.9 1.35 18.4 6.2 8.65 4.9 14.1 12.4 16 22 10.9 46.65-3.9 18.75-20.4 39.5-11.9 15-32.7 26.3-18.7 10.2-41.2 15.65-3.45.85-2.7-1.2t4.4-3.1q24.5-6.7 37.55-13.4 17.85-9.05 30.3-24.55 17.4-21.55 21.7-37.6 6.25-23.6-9.5-46.85"/><path fill="#f4b1b1" d="M37.3 84.9q8.75-4.4 20.85-4.6Q71 80.1 83.5 84.85q30.45 11.6 42.55 44.7 8.1 22.15 1.85 45.65-6.45 24-24.9 37.25-18 12.95-39.15 10.3-20.3-2.55-38-18.6-12.95-11.8-18.9-29.45-5.6-16.65-3.8-34.7 1.8-18.05 10.4-32.45Q22.7 92.3 37.3 84.9"/><path fill="#0d131a" d="M69.25 94.7q24.25 8.25 34.45 32.75 10.15 24.25.4 49.3-3.9 10-11.9 16.85-7.9 6.7-17.85 8.85-10.35 2.25-20.6-1-11.05-3.5-20.1-12.9-13.55-14.05-16.9-32.95-2.7-15.45 1.65-30.3 6.4-21.95 23.85-29.3 13.7-5.85 27-1.3m168.5 84.5q11.15 15.4 14.2 34.2 2.8 17.25-1.7 33.65-4.3 15.95-14.15 26.25-10.2 10.7-23.3 11.95-2.1.2-2.55-1.8-.35-1.5-.15-7.5 1.2-40.25-38.95-51.2-16.95-4.65-26.2-14.2-8.35-8.65-8.95-19.7-.55-10.5 6-20.15 6.7-9.85 18.75-15.55 19.45-9.25 40.05-3.35 21.7 6.2 36.95 27.4M197.1 66.8q-6.15-1.85-10.2 1.15-.95.75-2.25-.5-1.3-1.3-.35-1.75 6.65-3.3 14.2-1.05 7.2 2.15 12.15 8.25 5.1 6.4 5.35 14.3.2 8.85-6.05 17.05-1.4 1.8-1.85-.6-.5-2.4.75-3.95 5.15-6.55 4.35-14-.75-6.5-5.65-11.95-4.6-5.15-10.45-6.95"/><path fill="#0d131a" d="M246.4 97.05q-3.4 5.25-7.05 7.45-3.8 2.3-4.6 1.05-.65-1.05.4-5.55 3.45-14.95-4.45-17.95-3.2-1.25-7.6.05-4.2 1.25-8.05 4.3-.65.5-1.2-.55-.55-1.05.25-1.65 5.95-4.25 11.45-4.95 5.25-.6 8.75 2.15 3.55 2.8 4.3 8.25.8 5.9-1.85 13.6 2.05.25 5.6-4.2 3.7-4.7 5.55-10.6 5.15-16.25-9.3-23.05-8.8-4.1-19-2.8-9.2 1.15-15.7 5.95-.75.55-1.4-.5-.7-1.05-.2-1.35 6.85-4.55 15.4-6.1 11.35-2 21.85 2.55 14.8 6.35 11.65 22.2-1.2 6.05-4.8 11.7m-75.6 32.6q1.6 7.6-2.15 14.05-3.75 6.45-10.7 7.9-6.95 1.5-13.05-2.85-6.05-4.35-7.65-11.95-1.65-7.6 2.1-14.05 3.8-6.45 10.75-7.95 6.95-1.45 13 2.9t7.7 11.95m-53.05-55.5q6.85-1.45 12.65 2.05 5.8 3.45 7.15 9.85 1.35 6.4-2.35 11.7-3.7 5.25-10.55 6.7-7.05 1.45-12.8-2.05-5.55-3.45-6.8-9.45-1.35-6.45 2.25-11.85 3.65-5.5 10.45-6.95"/><path fill="#fff" d="M118.25 75.75q5.95-1.25 10.95 1.75 5 3 6.2 8.55 1.15 5.55-2.2 10.35t-9.25 6.05q-5.9 1.3-10.9-1.75-5.05-3-6.2-8.55-1.2-5.55 2.15-10.35 3.35-4.8 9.25-6.05M169 129.9q1.4 6.6-1.85 12.15-3.25 5.6-9.3 6.9-6.05 1.3-11.3-2.5-5.2-3.75-6.65-10.35-1.4-6.6 1.85-12.2t9.3-6.85q6-1.3 11.25 2.45 5.3 3.75 6.7 10.4"/><path fill="#0d131a" d="M121.25 84.5q2.8-.6 5.2 1.1 2.4 1.7 3.05 4.7.65 3-.85 5.55-1.55 2.55-4.3 3.15-2.75.6-5.2-1.1-2.4-1.7-3.05-4.7-.65-3 .85-5.55 1.55-2.55 4.3-3.15m41.35 55.15q-1.85 3.1-5.25 3.85-3.35.7-6.3-1.35-2.95-2.1-3.75-5.75-.8-3.7 1.05-6.8 1.85-3.1 5.25-3.8 3.4-.75 6.35 1.35 2.95 2.1 3.7 5.75.8 3.65-1.05 6.75"/><path fill="#ed8599" d="M79.1 103.1q15.7 7.55 22.8 26.45 6.4 16.95 3.1 33.6-2.3 11.45-6.95 18.6-7.1 10.95-18.05 8.4-17.35-4.05-27.9-19.4-10.1-14.65-9.7-32.9.45-19.5 14-30.1 5.6-4.4 11.9-5.65 6.15-1.2 10.8 1"/><path fill="#babc79" d="M151.3 75.65q-1.5 1.3-4 1.9l-4.1-.25q-1.4-.85-1.6-2.5-.2-1.6.8-2.95 1.45-2 4.35-2.65 3-.75 4.7.85 1.2 1.15 1.15 2.85-.05 1.7-1.3 2.75m36.15 2.9q1 1.3.8 2.8-.25 1.5-1.75 2.65-1.6 1.2-3.55 1.3-2 .1-2.95-1.1-.9-1.25-.2-3.2.65-1.85 2.3-3.05 1.5-1.1 3-.9 1.35.2 2.35 1.5m-1.95 33.35q-1.05 2.8-3.45 4.35-2.45 1.5-4.8.85-2.35-.65-3.3-3.1-.95-2.45.1-5.25 1.05-2.75 3.5-4.3 2.45-1.55 4.8-.9 2.35.7 3.3 3.1.95 2.45-.15 5.25"/><path fill="#babc79" d="M151.05 73.15q-.2 1.05-1.75 1.95-1.5.95-3.1 1.05-1.4.1-2.3-.5-.9-.65-.75-1.75.15-1.4 1.85-2.5 1.35-.9 2.7-1.1 1.4-.15 2.4.5 1.25.8.95 2.35M186.7 81q-.25 1.85-2.7 2.6-1.05.3-1.95 0-1.1-.4-.95-1.55.15-1.3.9-2.3.8-1.1 2-1.35t2.05.55q.85.8.65 2.05m-3.3 31.35q-1 1.65-2.65 2.55-1.6.85-3.1.5-1.35-.3-1.85-2.3-.55-2 .25-4.1.9-2.25 2.75-3.2 1.5-.8 2.75-.45 2.05.65 2.6 2.75.55 2.15-.75 4.25"/><path fill="#a7d081" d="M163.5 157.2q18.9-7.45 37.4-1.6 20.15 6.4 35.7 27.65 10.6 14.45 12.95 32.65 2.1 16.4-2.75 32.3-4.65 15.2-13.85 24.7-9.55 9.85-20.45 9.8 1.6-21.3-4.9-34.75-9.1-18.75-34.75-26.45Q154.5 216 146 206.25q-7.4-8.5-6.5-19.1.85-9.5 7.85-18 6.8-8.25 16.15-11.95"/><path fill="#90b571" d="M169.9 214.05q5.35 2.45 16.85 6.35 18.55 6.3 25.5 29 2.75 9.05 2.75 18.3-.05 8.8-2.45 14.3 1.5-21-5.15-34.4-9.15-18.5-34.55-26.1-22.65-6.75-30.15-19.85-6.35-11.1-.7-23.95 6.8 21 16 29.05 4.6 4.05 11.9 7.3"/><path fill="#d3999b" d="M117.05 193.3l8.8-11.75q-3.45 9.45-9.1 17.2-5.9 8.05-13.75 13.7-13.15 9.45-28.35 10.6-14.55 1.05-29-5.6-1.2-1.4-.2-2.6l4.45-.15q28.3 10.65 51.8-6.6 7.9-5.75 15.35-14.8"/></svg>