<svg xmlns="http://www.w3.org/2000/svg" width="387" height="354" viewBox="-1.75 -4.05 387.15 354.25"><path fill="#0d131a" d="M130.15 259.1q2.55 7.1 2.55 14.6 0 5.05-1.15 9.35-1.15 4.2-3.2 6.9-3.25 4.2-5.7 6.25-3.8 3.15-7.95 3.5-8.05.8-17.55-3.2-9.2-3.85-17.25-11.05-19.3-17.3-38.65-21.2-11.65-2.4-19.95.25-5.65 5.45-7.95 16.3-1.65 7.95-1.05 13.3.4 3.3.2 3.4-.25.15-2.1-2.45l-4.85-7.45q-3.25-5.7-4.45-11.5-2.25-10.6.35-19.05 3.75-12.1 17.45-21.6 1.95-8.8 15.75-16.85 14.4-8.35 32.35-10 15.35-1.4 28.4 5.1 18.1 9 26.25 31.55 5.6 5.9 8.5 13.85"/><path fill="#a7d081" d="M119.9 246.6q9.2 9.5 10.4 23.65 1 12.25-3.7 18.35-4.3 5.6-12.95 6.45-8.1.75-16.45-2.1-9.05-3.15-16.1-9.85-16.3-15.55-36-20.35-15.3-3.75-25.45-.35-5.45 5.9-7.7 14.7-1.75 6.7-1.5 14.75-12.2-14.5-7.4-32 2.05-7.5 6.95-13.65 4.85-6.1 11.25-9.3v-1.7q1.05-6.55 14.8-14.15 14.8-8.2 31.45-9.75 14.85-1.4 27.15 4.7 17.25 8.45 25 30.2l.1.25.15.15"/><path fill="#90b571" d="M95.65 216.5q16.45 8.6 24 29.7l.1.25.15.15q9.2 9.5 10.4 23.65 1 12.25-3.7 18.35-4.3 5.6-12.95 6.45-10.95.95-21.75-4.35 2.45-23.4-.2-40.6-3.2-21.25-13.6-26.3-.3-4.95-3-8.1-1.7-2.05-6-4.55 14.7-.9 26.55 5.35"/><path fill="#0d131a" d="M117.9 246l-1.65 1.5q-16.6-21.65-44.45-23.7-26.15-1.9-51.7 13.65-4.65 2.8-2.6.75l2.95-2.65Q44.9 220.2 72.1 222.1q29.35 2 45.8 23.9"/><path fill="#0d131a" d="M177.8 117.9q13.8-6.75 18.65-5.45.9.25 2.2-.7.8-.6.8.35.2 18.5 2.65 28.2 3.6 14.05 14.45 27 18.45 22 27.1 38.5 12.6 23.95 14.45 51.1 2.3 33.7-14.7 57-18.55 25.4-55.25 30.9-36.2 5.4-61.9-9.75-18.3-10.75-25.9-27.1-9.35-20.1-2.8-48.1 2.7-11.7 12.15-33.95 3.95-9.3 2.1-20.45-2.15-12.5-10.95-20-2.9-3.25 1.1-9.6 4.65-7.5 18.35-19.2 12.65-10.85 28.7-21.7 16.15-10.9 28.8-17.05"/><path fill="#f0e800" d="M199.55 142.15q3.25 11.1 14.2 24.75 16.2 20.35 24.05 34.4 15.2 27.35 17.1 55 2.45 36-15.45 58.65-17.75 22.4-51.95 27.5-29 4.35-52-5.9-21.5-9.6-32.55-29.3-10.1-18.05-3.8-45.35 2.2-9.5 6.6-20.8l6.5-15.7q4.5-12.9 1.65-22.9-2.4-8.35-11.4-18.5-1.75-2.05 1.3-7 4.8-7.7 18.45-19 12.3-10.15 28.3-20.45 15.5-9.95 27.9-15.8 13.15-6.2 17.25-5.1 1.25.35 1.25 1.6.45 16.5 2.6 23.9"/><path fill="#0d131a" d="M107.9 189.25q1.6-1.9 8.2-1.35 5.6.45 11.25 2.2 3.75 1.15 5.5 2 2.05 1.05 2.3 2.15 1.5 6.15-.8 9.95-2.15 3.55-6.7 3.6-4.75.05-9.8-3.7-5.7-4.15-10-11.95l-.1-.25q-.8-1.55.15-2.65"/><path fill="#fff" d="M115.75 189.55q5.55.4 11.1 2.1 3.2 1 4.9 2 1.2.75 1.25 1.15.8 7.35-1.45 9.85-1.3 1.45-3.6 1.45-4.8 0-9-2.8-5.55-3.65-9.6-11.85l-.15-.3q-.25-.6-.05-.8 1-1.2 6.6-.8"/><path fill="#0d131a" d="M169.6 168.1q5-2.7 8.35-2.55 2.55.15 4 1.9 5.85 7 4.95 14.8-1.15 10.2-9.15 14.15-8.3 4.15-21.2-.15-6.15-2-7.7-6.75-.85-2.75 6.6-10.3 7.25-7.35 14.15-11.1"/><path fill="#fff" d="M168.95 196.05q-5.85.25-11.05-1.45-6.35-2.1-7.45-5.6-.55-1.7 6-8.45 7.05-7.25 13.95-11 7.7-4.15 10.3-1 2.15 2.6 3.1 6.2.9 3.55.4 7.55-.45 3.55-1.85 6.45-1.4 2.95-3.3 4.35-3.7 2.7-10.1 2.95"/><path fill="#dbdcdc" d="M109.35 191.45l-.15-.3q-.25-.6-.05-.8 1-1.2 6.6-.8 5.55.4 11.1 2.1 3.2 1 4.9 2 1.2.75 1.25 1.15.5 4.7-.2 7.45-4.25 1.15-7.9.95-4.05-.25-8.75-2.15-3.85-3.65-6.8-9.6m74.9-13.65q-5 6.25-11 10.4-5.65 3.95-13.45 6.95l-1.9-.55q-6.35-2.1-7.45-5.6-.55-1.7 6-8.45 7.05-7.25 13.95-11 7.7-4.15 10.3-1 3.1 3.7 3.55 9.25"/><path fill="#0d131a" d="M199.3 148.75q-6.2 13.6-17.1 24.9-11.2 11.65-24.9 18.3-14.7 7.1-29.8 7.1-22.05 0-37.85-15Q72.6 167.8 72.6 141.9q0-14.55 6.65-29 6.3-13.75 17.4-25 11.05-11.2 24.45-17.6 13.95-6.6 27.75-6.6 26.6 0 41.85 16.2 14.75 15.65 14.85 41.95.05 13.05-6.25 26.9"/><path fill="#f4b1b1" d="M174.5 178.05q-10.5 8.8-23.1 13.7-13.05 5.05-25.65 4.8-13.55-.3-24.4-6.75-19.1-11.35-24.55-34-2.95-12.45-.25-26.15 2.9-14.65 11.9-28.9 15.25-24 40.85-31.95 25.6-8 46.4 4.75 20.5 12.55 25 32.25 3.45 14.85 1.55 25.55-1.9 10.7-10.9 26.75-6.15 11-16.85 19.95"/><path fill="#d3999b" d="M182.7 123.1q-2.9 4-6.6 12.15l-6.55 14.7q-4.05 8.5-13.6 14.05-9.25 5.4-21.05 6.5-12.2 1.15-23.6-2.65Q98.85 163.7 90 154.4q-1.75-2.3-5.95-3.15-4.6-.95-7.9 1.15-2.05-11.9.85-24.75 3.05-13.65 11.45-26.9 15.25-24 40.85-31.95 25.6-8 46.4 4.75 20.5 12.55 25 32.25 1.85 7.95 2.2 14.05-12.15-7.55-20.2 3.25"/><path fill="#0d131a" d="M167.25 83.4q7.3 4.35 12.1 11 4.8 6.6 6.75 15.05 2.4 10.35.05 21.6-2.35 11.25-9 21.4Q164.3 172.05 144 179q-20.4 6.9-37.1-2.65-6.95-3.95-11.8-10.7-4.8-6.7-6.85-15.25-2.6-10.9-.4-22.55 2.25-11.6 8.9-21.8Q109.3 86.85 130 80.2q20.65-6.6 37.25 3.2"/><path fill="#0d131a" d="M177.55 95.7q4.55 6.3 6.4 14.25 1.15 4.75 1.15 10.2 0 7.85-2.5 15.8-2.5 8-7.3 15.3-12.15 18.55-31.9 25.35-19.7 6.8-35.4-2.15-6.6-3.8-11.1-10.1-4.6-6.35-6.5-14.45-2.55-10.5-.4-21.65 2.15-11.15 8.6-21 12.1-18.5 31.9-24.9 19.8-6.45 35.6 2.95 6.9 4.15 11.45 10.4"/><path fill="#0d131a" d="M102.2 157.7q.45.15.5.75.1 1.4.85 5.05l1.4 7.75q.45 3.3-.25 4-.8.8-2.65 1.2l-3.6-.1q-1.35-.45-2.4-1.85-1.35-1.75-1.65-4.4-.35-3.05 2.1-7.1 2.05-3.3 4.2-4.9.9-.65 1.5-.4"/><path fill="#fff" d="M102.45 163.7q1.35 7 1.35 9.05l-.25 1.2q-.6.6-1.8.9l-2.7-.05q-2.55-.85-3-5l-.05-.7q0-1.95 1.15-4.35.9-2.05 2.35-3.85 1.3-1.65 2.15-2.1l.8 4.9"/><path fill="#0d131a" d="M166.65 154.65q6.45 4 6.3 6.95-.2 4.8-2.4 6.5-.85.6-2.95.9-1.4.15-2.95-.95-1.55-1.05-1.85-2.2-2.05-8-4.8-12.3l-1-1.8q-.3-.6 0-1 .25-.3.8-.25l1.1.25q3.15 1.05 7.75 3.9"/><path fill="#fff" d="M164.65 165.6q-1.65-6.4-5.7-12.65l-.75-1.25.35.1q3.35 1.15 7.5 3.7 5.25 3.3 5.25 5.55-.05 2.65-1 4.25t-2.6 1.8q-1 .15-1.9-.3-.9-.45-1.15-1.2"/><path fill="#0d131a" d="M187.55 54.25q7.05 3.6 13.25 9.8 4.2 4.15 9.6 11.35 3.4 4.45 6.65 8 3.9 4.2 5.95 5.15l3.85 2.05q.5 1.05-4.15 3.25-5.75 2.75-11.25 3.15l-11-.5-11.5-.75q-5.55.2-8.65 2.45-7.25 5.2-4.9 25.55 1.1 9.25-3.5 16.05-6.2 9.05-22 12.3-7.3 1.5-15.3 6.1-4.6 2.6-11.75 7.85l-4.6 3.2q-5.5-4.55-13-10-14.9-10.85-24.7-15.3-5.95-2.7-7.2-9.2-.7-3.55-.15-15.5.4-8.8-6.05-11l-10.5-.45q-4.35.3-6.9.1-3.25-.25-6.05-1.45-3.85-1.6-4.45-2.4-.9-1.25 3.8-1.9 4.65-.65 11.6-9.25 5-6.2 10.25-15.2 10.9-18.6 25.9-22.75 15.1-4.15 33.35 6.7L129.7 60q18.15-9.8 31.05-11.2 13.3-1.45 26.8 5.45"/><path fill="#a7d081" d="M178.65 94.7q-7.35 3.65-6.55 15.4 1.3 18.7-1.75 25.95-4.45 10.5-20.9 13.9-7.6 1.55-16.05 6.4-4.65 2.65-11.85 7.9l-3.65 2.6q-4.15-4.65-15.15-12.1-9.5-6.45-19.35-11.85-6-3.25-7-6.4-.9-2.75-1-17.25-.05-9.7-3.15-12.3-3.1-2.6-13.65-1.8l-6.05.2q-3.35-.05-5.75-.85 3.95-2 10.9-11.7 4.45-6.2 9.1-13.95 5.45-9.05 10.4-13.75 9.7-9.15 21.8-8.9 8.25.2 17.05 3.9l5.2 2.1 3.5.1 3.65.65q28.45-16.85 50.4-9.45 16.05 5.4 31.3 25.7 6.4 8.5 11.5 11.9-4.55 2.5-10.5 2.8l-10.75-.6q-15.4-1.75-21.7 1.4"/><path fill="#90b571" d="M163.25 51.25q13.75-.4 25.75 7.2-5.15-.25-9.15-.1l-9.25 1.1q-20.95 3.75-36.15 22.5Q120.7 99 114.5 124.55q-5.25-15.25-6.8-24.5-3.2-19.2 2.65-32.65 1.4-3.25 1.45-5.4.05-2.35-1.5-4 2.15.65 9.05 3.45 3.85 1.6 5.4.85l3.65.65q18.95-11.2 34.85-11.7"/><path fill="#cec900" d="M135.5 336.55q-21.5-9.6-32.55-29.3-3.15-5.7-4.35-10.7 6.8 8.85 21.35 15.6 13.7 6.35 23.75 6.35 18.7 0 36.3-8.5 16.5-8 29.65-22.15 12.75-13.75 19.9-30.65 7.3-17.2 7.3-34.1 0-6.5-2.1-16.6-2.05-9.6-5.1-18.4 22.85 34 25.25 68.2 2.45 36-15.45 58.65-17.75 22.4-51.95 27.5-29 4.35-52-5.9"/><path fill="#0d131a" d="M113.45 144.65q-1.3-7.4-.75-19.35.55-11.45 2.4-20.1 1-4.55 1.85-4 .85.6.35 4.4-1.55 10.75-2 21.6-.6 13.55.85 23.55.75 5.05-.4 2.65t-2.3-8.75m253.8 81.85q1.3.75.9 3.05-.4 2.1-2.45 6.35-6.75 14.15-17.45 22.1-14.7 11-35.05 8.75-18.7-2.05-32.5-11.15-13.95-9.15-21.65-24.65-16.55-33.2-1.7-86.2 12.5-44.55 9.65-75.05-2.5-26.85-16.65-41.4Q238 15.6 218.2 13.6q-17.6-1.75-36.95 5.1-27.2 9.65-43.5 32.05-14.35 19.6-18.95 46.8-.75 4.35-1.7 2.45-.9-1.7-1.65-7.8-1.05-8.5 1.55-19.9 2.95-12.85 9.6-24.8 17.05-30.5 50-42.05 27.25-9.5 53.1-2.75 23.85 6.25 37.6 23.45 16.8 21.05 15.5 57.3-.95 26.3-12.5 67.65-6.9 24.6-3.9 46.1 2.7 18.9 12.6 33.4 8.85 12.9 21.45 19.75 11.9 6.45 22.75 5.25 9.5-1.05 17.5-5.1 7.85-3.95 11.4-9.3 11.25-16.8 15.15-14.7"/><path fill="#bf794e" d="M366.15 228.9q0 .8-2.3 5.95-7 15.5-20.85 23.45-14.6 8.3-32.85 5.7-16-2.3-28.5-11.2-12.7-8.95-20.1-23.45-16.25-32-3-78.85 7.05-24.75 9.55-43.95 2.85-21.45.85-41.45-3.1-31.15-25.7-45.1-20.45-12.6-48.9-7.15Q166.1 18.25 145 38.6q-23.05 22.35-27.05 53.75-.35-3.15-.35-6.55 0-10.65 3.6-20.8 15.2-42.95 56.35-57.3 27.3-9.45 51.95-2.7 23.95 6.5 38 26.1 14.45 20.1 12.3 55.55-1.45 24.65-12.3 64.7-6.95 25.65-3.45 47.7 3.1 19.25 13.7 33.9 9.35 12.9 22.55 19.7 12.25 6.35 23.15 5.15 9.95-1.05 18.45-5.4 8.25-4.25 12.05-9.95 4.8-7.2 8.5-11.05 2.55-2.65 3.65-2.9l.05.4"/><path fill="#babc79" d="M130.2 229.3q2.6-.55 5.8.5 3 .95 4.65 2.65 3.6 3.6 2.75 10.7-.5 3.8-2.6 9.45-.45 1.25-1.55 1.45-1.6.25-4.4-2.3-2-1.85-5.35-5.95l-.75-.95q-2.5-3-3.2-5.25-1.05-3.2.45-6.95 1.05-2.75 4.2-3.35"/><path fill="#babc79" d="M141.9 240.35q0 4.35-2.55 11.25-.25.55-.65.7-1.95.3-8.3-7.55l-.75-.95q-2.25-2.7-2.9-4.6-.85-2.75.45-6 .75-2 3.2-2.55 2.25-.45 5 .5 2.65.85 4.05 2.25 2.45 2.45 2.45 6.95m62.8-35.3l1.75 1q3.75 2.1 4.5 4.1.8 1.95 0 7.55-.8 5.55-4.2 7.55-2.35 1.4-6.9 1.4-3.25 0-5.05-1.95-2-2.25-2-6.65l.15-3.25q0-2.3-.9-5.8-.7-2.9-.7-4.25 0-1.55.55-2.7.55-.9 1.5-1.2 1.7-.55 5.05.9l6.25 3.3"/><path fill="#babc79" d="M206.55 223.45q-2.1 1.4-6.5 1.4-2.55 0-4-1.5-2-2.3-1.5-7.55.2-2.9-.9-7.05-.55-2.25-.6-3.2-.15-1.6.4-2.7.2-.5.75-.65 1.3-.4 4.5 1.05l5.5 2.9 1.7.95q3.25 1.85 3.85 3.35.65 1.6-.1 6.75-.65 4.5-3.1 6.25M170.7 278.4q1.8-2.7 6.2-4.7 4.2-1.9 6.95-1.5 2.35.3 2.6 1.25.75 2.25 4.35 3.9 3.7 1.7 5.25 3.2l2.2 1.9 2.95 2.5q1.45 1.8 2 5.25.45 3-1.9 6.65-1.65 2.5-5.65 6.55-5.55 5.65-7.9 9.2-3.65 5.5-6.2 5.2-2.4-.25-4-4.3l-1.85-4.5q-4.25-10.65-7.65-16.35-2.2-3.65-1.1-7.3.65-2.25 3.75-6.95"/><path fill="#babc79" d="M169.05 286.25q.5-2.2 3.2-6.3 1.65-2.5 5.35-4.5 3.65-2 5.95-1.65 1.2.15 1.4.95.45 1.3 1.9 2.3l3.1 1.65q3.5 1.6 4.8 2.9l2.25 1.9q1.85 1.45 2.55 2.5 1.15 1.7 1.65 4.9.35 2.55-1.65 5.5l-5.15 5.8q-5.4 5.4-7.85 9.1-3.2 4.75-4.95 4.55-.85-.1-1.6-1.35l-1.2-2.6-1.8-4.4q-4.4-11-6.75-14.95-1.95-3.25-1.2-6.3"/><path fill="#92945e" d="M223.5 312.6l.1.05.05.05q.75.5 1.7 1.85 1.55 2.15 1.15 3.95-.25 1.2-.9 2.1l-1.35 1.5q-1.5 1.5-2.05 2.4-.9 1.5-2 1.55-.6.05-1.9-.55-1.2-.55-1.95-.75-.95-.15-1.35-.85-.35-.6.05-1.65l1.05-2.55.45-2.6.4-3q.6-3.55 1.65-4 .65-.25 1.55.3l1.6 1.15 1.75 1.05"/><path fill="#92945e" d="M223.7 321.15q-1.4 1.3-2.1 2.55l-1 .95-1.35-.4-2.15-.8-.55-.3q-.3-.55.65-3.65l1.35-5.05q.4-2.35 1.05-2.6.35-.15 1.85.85l1.8 1.05 1.2 1.3q1.15 1.5 1.15 2.75l-.05.5q-.15.9-.7 1.6l-1.15 1.25m-64.9 14.55q-.8-.5-.9-1.35-.1-.85.65-1.85l1.75-1.9q1.4-1.5 4.35-1.15 2.95.4 4.45 3.1l1.05 1.95q.4.9.2 1.3l-.9.7-1.35.15-1.45.15-4.15.1q-2.4-.35-3.7-1.2"/><path fill="#92945e" d="M160.85 331.45q1.1-1 3.25-.75 2.7.4 4 2.65.8 1.45.65 1.8l-1.25.25-1.6.2q-1.4.35-3.5.05t-3.15-1l-.4-.5q-.05-.55 2-2.7"/><path fill="#babc79" d="M134.25 296.6q2.55-1.35 7-1.05 4.85.3 7.2 2.4 2.35 2.1 2.95 4.7.3 1.2.25 3.95-.1 2.4.4 3.65 1.05 2.45.25 3.9-.8 1.5-3.8 2.15l-6-.35q-4-.85-6.4-2.45-1.65-1.1-2.1-4.4-.2-1.25-.25-6l-.65-3.65q-.45-.55-.1-1.45.35-.9 1.25-1.4"/><path fill="#babc79" d="M142.7 314.05q-3.4-.95-5.6-2.4-1.3-.85-1.75-3.55-.25-1.5-.35-5.1l-.2-3.65q-.1-.95 1.1-1.6 2.1-1.1 5.55-.7 3.6.45 5.65 2.3 2.05 1.85 2.6 3.7.35 1.1.3 3.3-.1 2.55.5 3.95.8 1.8.3 2.85-.6 1-2.95 1.45-1.8.4-5.15-.55m-33.4-47.3q.45-.1 1 .4l.75.85q4.7 4.7 4.7 8.55l-.35 2.1q-2.3 5.95-4.5 6.3-1 .1-1.8-.9l-1.7-1.3q-1.95-1.2-2.5-2.3-.95-1.85.45-4.9l1.85-4.65 1-2.8q.5-1.2 1.1-1.35"/><path fill="#babc79" d="M109.65 268.3l.6.4q5.3 5.4 3.9 9.05l-1.95 4.05q-.85 1.2-1.45 1.3-.3.15-.7-.4l-1.95-1.55q-1.65-1-2-1.8-.6-1.3.45-3.7l1.8-4.6q1-2.65 1.3-2.75"/><path fill="#965e3a" d="M366.1 228.5l.05.4q0 .8-2.3 5.95-7 15.5-20.85 23.45-14.6 8.3-32.85 5.7-16-2.3-28.5-11.2-12.7-8.95-20.1-23.45-16.25-32-3-78.85 7.05-24.75 9.55-43.95 2.85-21.45.85-41.45l-.8-5.65q3.95 4.9 6.8 10.9 2.55 5.5 5 13.65-.65 14.95-4.35 33.65-2.85 14.35-8.1 33.7-6.95 25.65-3.45 47.7 3.1 19.25 13.7 33.9 9.35 12.9 22.55 19.7 12.25 6.35 23.15 5.15 9.95-1.05 18.45-5.4 8.25-4.25 12.05-9.95 4.8-7.2 8.5-11.05 2.55-2.65 3.65-2.9"/><path fill="#0d131a" d="M356.3 256.4q2.65 7.85 2.55 15.1-.15 9.4-3.5 15.2-2.05 3.4-5.75 6-2.2 1.6-2.65 1.35-.35-.15-.05-2.25.45-3.2.45-7.15-.05-5.95-1.25-10.4-1.1-4.25-4.2-9.3l-3.1-4.7q-12.35-5.85-27.25-4.2-16.8 1.85-28.25 12.95-28.3 27.4-51.4 27.6-9.45.1-16.25-4.6-6.25-4.3-8.75-11.45-6.55-18.55 7.7-38.9-1-2.8-.8-7.4.4-9.2 6.5-18.35 4.8-7.2 12.05-12.4 9.3-6.6 21.6-9.15 12.35-2.5 26.3-2 16.5.6 30.15 5.35 35.35 12.4 40.65 48.25 2.9 3.6 5.25 10.45"/><path fill="#a7d081" d="M349.15 247.1q2.55 3 4.95 10.85 2.55 8.5 2.55 15.6l-.55 3.85q-.45 4.05-2.25 6.75-1 1.6-4.35 4.95l.35-5q0-6.25-2.15-12.1-1.3-3.55-4.65-9.75l-2.55-3.15q-10.85-5.45-25.85-5.3-20.35.2-33.25 13.1-26.15 26.15-47.2 27.45-8.8.55-15.35-3.5-6.05-3.75-9.05-10.6-4.45-10.15-.2-23.65 2.95-9.25 6.7-13.7 1.4-1.6 1.6-2.2l-.1-.25-.1-.45q-3.55-13.2 7.8-26.35 11.1-12.95 28.3-16.5 12.85-2.65 26.3-2.4 16 .3 29.05 4.8 33.5 11.5 39.75 47l.05.3.2.25"/><path fill="#90b571" d="M352.6 266.75q2.35 1.2 3.9 3.9l.15 2.9-.55 3.85q-.45 4.05-2.25 6.75-1 1.6-4.35 4.95l.35-5q0-6.25-2.15-12.1-1.3-3.55-4.65-9.75v-.8q2.7 1 4.95 2.5l4.6 2.8"/><path fill="#0d131a" d="M366.45 184.55q-1.95-4-.5-3.6.85.25 4.15 2.95 3.65 3.1 6.65 7.5 4.35 6.45 5.85 14.05 2.8 13.9-.05 23.1-3.2 10.25-13 13-7.7 2.1-14.1-3.05-5.95-4.75-5.85-11 .05-5.35 2.5-9.75 1.95-3.5 6.15-7.7 7.35-7.35 9.15-14.45 1.5-5.95-.95-11.05"/><path fill="#f0e800" d="M369.05 185.25q8.65 7.85 11.85 22.65 3.3 15.55-3 24.85-2.7 4-7.15 5.65-4.15 1.6-8.4.7-4.3-.9-7.05-4-2.95-3.4-3.05-8.4-.1-5.45 5.15-12.1l4.5-5.4q2.7-3.2 4-5.3 3.3-5.35 4.05-9.7.8-4.5-.9-8.95"/><path fill="#90b571" d="M348.9 246.55l.05.3.2.25q2.4 2.8 4.7 10.15 2.45 7.85 2.75 14.8l-4.15-5.3q-6.05-22.6-24.2-36.5-14.2-10.8-28.55-12.35-17.15-13.25-31.55-16.3-12.45-2.6-29.9 1.5 7.55-4.35 15.55-5.95 12.85-2.65 26.3-2.4 16 .3 29.05 4.8 33.5 11.5 39.75 47"/><path fill="#0d131a" d="M332.2 229.15q10.35 6.5 16.7 14.9 4.45 5.9 4.75 7.5.35 1.55-3.1-2.9-7.1-9.25-14.4-14.7-15.25-11.25-38.4-15.6-20.4-3.85-43.95 3.3-22.9 6.95-36.95 20.55-4.4 4.25-3.05 1.65 1.3-2.55 3.65-4.95 13.05-13.25 36.2-19.75 23.3-6.55 44.5-2.7 19.55 3.55 34.05 12.7"/><path fill="#cec900" d="M381.05 208.7q1.4 6.85.7 12.95-.8 6.6-3.85 11.1-4.35 6.45-12.05 6.65-7.5.25-11.4-5.4 9.25 1.7 17.1-6.35 7.25-7.5 9.5-18.95"/><path fill="#90b571" d="M5 283.4q1-7.5 2.1-10.55.85-2.4 4.8-5.75 4.1-3.55 7.6-4.55-9.6 10.55-9.05 29.3-3.25-3.8-5.45-8.45m338.05-21.15l-2.4-3q16 13.35 16 14.5l-.25 1.8-.3 1.85q-.45 4.05-2.25 6.75-1 1.6-4.35 4.95l.35-5q0-6.25-2.15-12.1-1.3-3.55-4.65-9.75"/><path fill="#0d131a" d="M4.8 279.05q.65-6.75 4.8-11.2 4.4-4.75 12.1-5.95l5.45.2q1.55.7-4.3 1.2-8.1.65-12.7 6.85-4.5 6.05-4.3 15.7-.4 1.15-.85-1.6-.45-2.75-.2-5.2m337.55-17.4L338.2 259q-2.55-1.8.8-.55 6.4 2.4 11.7 6.95 7.45 6.5 5.8 13.1l-.65 2.95q.8-6.1-2.75-10.85-3-3.95-10.75-8.95m-217.45-62.7q-.45-1.2 1.25-1.55 1.7-.35 2.15.85.4 1.2.25 2.15-.2.9-.9 1.05-.7.15-1.5-.55-.85-.75-1.25-1.95m48.15-17.9q.4 1.45.05 3.45-.35 2-1.05 2.2-1.75.35-2.6-2.35-.4-1.45 1.35-3.05 1.8-1.65 2.25-.25"/><path fill="#92945e" d="M195.65 303.4q-5.55 5.65-7.9 9.2-3.65 5.5-6.2 5.2-2.4-.25-4-4.3l-.85-2 1.65-.75.45 1.15 1.2 2.6q.75 1.25 1.6 1.35 1.75.2 4.95-4.55 2.45-3.7 7.85-9.1l2.85-3 5.05-4.2q-1.5 3.25-6.65 8.4"/><path fill="#92945e" d="M178.8 311.9l-.45-1.15q9.65-4.35 18.9-11.55l-2.85 3q-5.4 5.4-7.85 9.1-3.2 4.75-4.95 4.55-.85-.1-1.6-1.35l-1.2-2.6"/></svg>