<svg xmlns="http://www.w3.org/2000/svg" width="330" height="283" viewBox="-0.7 -1.65 330.35 282.7"><path fill="#0d131a" d="M210.1 127.15q16.6 4.2 19.95 6.35 3.25 2.05 3.1 4.95-.2 2.85-3.85 10.8-3.95 8.45-15.45 16.1-11.65 7.75-22.55 9-10.55 1.2-21.7-3.5-7.8-3.3-10.6-4.25-7.1-2.4-15.2-3.5-3.85-.5-10.1.25l-11.2 1.25q-14.95.85-29.7-7.5-11.05-6.3-20.6-17.35-7.95-9.2-11.65-17.5-3.25-7.45-.35-10.65 1.75-2 6.35-2.5 30.2-3.45 67.9.9 18.9 2.2 31.7 5.05 17.95 5.5 43.95 12.1"/><path fill="#958c87" d="M122.45 138.4q.35 1.6-.4 3.7-7.6 2.7-11.95 14.3-3.35 8.9-5.65 26.15-1.3 9.85-3.7 30.55-2.4 17.7-6.05 27.6-6.7 18.2-19.9 27.65-12.95 9.3-29.95 8.75-15.05-.5-25.95-7.25-8.1-5-12.5-12.3-3.8-6.3-4.4-12.15-.75-6.7 3.45-8.8 4.85-3.35 10.15-.1 2.4 1.5 10.35 9.3 7.35 7.3 13.2 10.25 8.75 4.4 18.8 2.65 14.85-2.6 23.1-18.6 9.75-18.95 14.1-62.4 1.55-15.55 7.1-25.85 5.35-9.8 13.8-13.85 5.65-2.7 6.4.4"/><path fill="#766e6a" d="M113.1 139.15q5.25-3.35 7.65-.55 1.15 1.4 1.3 3.5-7 2.5-11.25 12.55-3.45 8.1-5.65 23-2.9-1.3-6.1 1.25-2.7 2.1-4.65 5.85l.75-7.05q1.5-15.35 6.2-24.95 4.3-8.85 11.75-13.6"/><path fill="#958c87" d="M205.3 151.85l5.6 4.3q3.65 3.3 6.25 7.9 7.2 12.9 8 39.75.8 26.3 6.7 40.3 4.9 11.7 14.3 16.5 9.3 4.75 23.65-3l12.05-7.15q7.35-4.3 12.3-6 5.5-1.85 13.35-1.55 10.15.4 14 5.3 8.15 6.25-2.45 10.65-3.65 1.5-10.6 3.25l-10.9 2.6q-3.45.95-10.75 4.1l-12.7 5.25q-16.6 6-29.05 2.3-13.3-3.95-19.95-16.4-4.25-7.95-5.95-20.35-.6-4.3-1.7-22.3-1.35-21.15-2.3-31.4-1.2-13.45-7.15-23.05-4.35-7-8.35-8.75l5.65-2.25"/><path fill="#766e6a" d="M205.3 151.85q6.35 4.85 7.9 6.65 5.1 5.7 8 15.5-2.15-2.25-4.35-.95-1.65.95-3.15 3.8-2.3-9.55-7.25-16.3-3.7-5.1-6.8-6.45l5.65-2.25"/><path fill="#00b8ee" d="M218.15 147.45q-5.8 3.4-13.35 2.15l-8.7-12.65 11.6-10.1 11.05 2.1q11.55 3 14.15 7.5-1.75-.65-3.8.75-1.65 1.1-4.1 4.05-3.5 4.25-6.85 6.2"/><path fill="#00a0cf" d="M222.7 130.6q-8.35.05-14 3.5-4.55 2.7-8.65 8.6l-3.95-5.75 11.6-10.1 4.85 1.05q5.75 1.3 10.15 2.7"/><path fill="#00b8ee" d="M72.2 123.65q-4.7-4.05-7.95-8.85l-2.3-3.95q2.95-2.7 12.05-3.3 6.95-.45 25.75.1 10.75.3 23.2 9.2 12.2 8.75 13.7 16.65.7 3.5-6.55 6.85l-7.35 2.65q-.8-2.15-4.65-4.8-7.85-5.35-20.25-4-6.05.7-13.4-2.6-6.35-2.85-12.25-7.95"/><path fill="#00a0cf" d="M72.2 123.65q-4.85-4.2-7.2-7.35-1.75-2.3-2.75-5.1 3-2.75 11.9-3.45 7.55-.6 25.6-.1 10.75.3 23.2 9.2 12.2 8.75 13.7 16.65.65 3.4-6.15 6.65-3.85 1.85-7.7 2.8l.3-.35q.15-.3-.5-.95 1.45-1.95 1.65-6 .15-3.85-.9-5.85-3.45-5.2-15.05-3.9-11.3 1.25-19.55 7.3-8.25-2.5-16.55-9.55"/><path fill="#00b8ee" d="M172.9 125.55q15.8 2.95 23.35 8.35 3.8 2.7 4.4 4.8 1.5 1 3.75 4.9 3.1 5.2 3.3 10.15-6.85-2.2-17 7l-6.8 6.4q-3.25 2.8-4.7 2.3-1.3-.45-4.45-3.55l-6.85-6.5q-10.75-9.45-22.35-11.75l-14.15.4-9.55 1.85q-1.45.25.2-6.6 1.3-5.1 2.9-9.45.85-2.45 2.35-3.65 1.05-.8 3.55-1.7l3.05-1.15q3.9-1.25 8.55-2.1 14.7-2.65 30.45.3"/><path fill="#00a0cf" d="M181.8 164.1l7.65-5.2q6.9-5.1 9.7-4.45-2.95 1.75-11.65 9.3-7.1 6.15-8.3 5.7-1.3-.45-4.45-3.55l-6.85-6.5q-10.75-9.45-22.35-11.75l-14 .5-9.35 2q-1.4.2-.25-4.9l2-7.95q1.4-7.1 5.55-8.55l6.5-1.85q7.25-1.9 10.8-1.9-5.15 1.75-8.4 10.5-1.2 3.35-1.45 6t.65 2.75q14.6 1.4 20.55 3.9 7.25 3.1 23.65 15.95"/><path fill="#00a0cf" d="M182.65 147.9q-5.2-3.8-10.7-10.6l-9.7-12.85 5.05.25 5.55.8q6.3 1.15 9.6 9.95 3.15 8.45.2 12.45"/><path fill="#fff" d="M169.3 124.8q2.45 2.3 3.4 4.95.45 1.35.4 2.2-1.25 1.25-6.85 3.4-5.8 2.25-9.5 2.7-3.4.45-10.9-4.5-6.65-4.35-8.3-6.7l10.4-1.8q12.2-1.55 21.35-.25"/><path fill="#dbdcdc" d="M169.2 124.7q.75.65 2.3 3.2l-15.1-.55q-11.4.45-16.15 2.55l-2.2-1.95-.5-1.1L147.9 125q12.15-1.6 21.3-.3"/><path fill="#fff" d="M197.15 140.1q-3.05-.7-4.85-3.65l3.85-4.95 7.05 2.95q-1.85 6.6-6.05 5.65"/><path fill="#dbdcdc" d="M201.95 133.95q-4.1-.55-8.4 1.6l3.25-4.2q5.05 2.25 5.15 2.6"/><path fill="#00b8ee" d="M209.05 27.55q3.5 6.45 5.7 14.4l3.75 11.65q3.5 11.45 5.15 20.9 5.15 29.8-7.95 37.95-1.8 5.7-5.7 13.55-4.4 8.85-6.15 8.85-1.05 0-3.4-1.3-3-1.6-4.3-2.05l-25.6-6.55q-22.75-3.15-41.4 4.4l-4.4-3.9q-4.1-2.35-12.5-2.75-5.65-.3-6.9-1.1-2.05-1.3-4.3-7.55-2.3-6.45-3.95-14.2-1.6-7.25-1.6-10.55-3.75-4.25-4.8-10.95-1-6.1.4-12.7 1.75-7.75 6.35-17.85 5.15-11.35 11.9-20.7Q126.8 2.8 145.4 3.9q3.15-1.65 9.15-2.4 6.85-.85 14 .05 18.9 2.4 29.05 15.5 6 .3 11.45 10.5"/><path fill="#00a0cf" d="M95.5 89.3q-3.75-4.25-4.8-10.95-1-6.1.4-12.7.65-2.9 9.8 4.15 6.1 4.75 17.3 15.1-1.1-.35-2.75.9-1.6 1.25-2.55 3.25-2.55 5.25 2.25 8.3 1.15 9.05 8.9 19.3 7.75 10.3 13.5 10.2l-4.2 1.05-4.2 1.05q-3.4-3.15-4.4-3.7-4.1-2.15-12.5-2.55-5.65-.3-6.9-1.1-2.05-1.3-4.3-7.55-2.3-6.45-3.95-14.2-1.6-7.25-1.6-10.55M163 1.65q15.9.5 25.05 7.15-9.5-2.95-16.2-3.25-11.4-.45-18.95 5.75-2.5-.95-7.15.55-5.45 1.7-11.2 6.15-1.65.35-6.9-1.55-5.05-1.85-8.4-.95Q126 9.1 131.9 6.4q6.05-2.8 12.7-2.4 5.3-2.75 18.4-2.35m6.75 86.65q0-10.6 7.65-18.25-3.9 11.5 1.1 18.95 4 6 12.75 8.3-3.65 4.55-9.55 6.8-6.6 2.45-8.65-1.7-3.35-6.65-3.3-14.1"/><path fill="#00b8ee" d="M181.75 109.25l10.55 2.55 1.55 6.5q1.7 7.6 2.3 13.2-2.75 4.4-8.15 10.65-5.75 6.65-6.2 5.35-.65-1.95-11.7-22.65l11.65-15.6"/><path fill="#00a0cf" d="M181.05 110.45q-2.3 9.85-2.05 18.45.3 10.3 4.35 18.05-1.3 1.15-1.55.55-.65-1.95-11.8-23.05l11.05-14"/><path fill="#ba0031" d="M147.35 27.05q4.35 16.4-.95 32.5-5.2 15.8-18 23.7-11.9 7.3-22.75 3.75Q95.1 83.5 90.4 69.9q-4.9-14.2 0-30.4 4.65-15.25 17.55-24.85 13.4-9.9 26.1-6.15 9.15 2.75 13.3 18.55"/><path fill="#990024" d="M134.05 8.5q5.25 1.6 9.25 8.45 3.95 6.75 5.3 16.2-9.05-7.15-20.25 3.9-9.3 9.15-17.7 28-4.55 10.25-7.15 13.25-2.5 2.85-6.7 2.75-6.2-6.85-8.1-17.75-2-11.6 1.7-23.8 4.65-15.25 17.55-24.85 13.4-9.9 26.1-6.15"/><path fill="#ba0031" d="M207.4 26.9q4.05-1.15 9.6 5.25 5.8 6.65 10.25 18.15 4.35 11.35 3.1 27.05-1.2 15.1-6 19.4-2.35 2.1-4.25-4.2-1.15-3.85-2.5-12.75-1.9-12.9-10.2-32.4-2.85-6.6-2.7-13.35.2-6.45 2.7-7.15"/><path fill="#990024" d="M207.4 47.4q-2.85-6.6-2.7-13.35.2-6.45 2.7-7.15 3.2-.9 7.65 3.25 4.5 4.2 8.6 12.15-4.6-1.55-6.95 7.65-1.45 5.55-2.2 16.45-2.6-8.4-7.1-19"/><path fill="#ba0031" d="M197.75 83.6q0 5.85-2.75 10-2.75 4.1-6.7 4.1-3.9 0-6.65-4.1-2.8-4.15-2.8-10 0-5.8 2.8-9.95 2.75-4.15 6.65-4.15 3.95 0 6.7 4.15 2.75 4.1 2.75 9.95"/><path fill="#990024" d="M197.75 83.6q0 4.5-1.7 8.15-1.7 3.55-4.45 5.05 1.25-7.2-1.15-13.9-2.6-7.2-8.2-10.1 2.65-3.3 6.05-3.3 3.95 0 6.7 4.15 2.75 4.1 2.75 9.95"/><path fill="#766e6a" d="M16.1 245q2.25 4.35 6.25 8.7 5.8 6.3 12.65 9.1 8.9 3.7 11.7 5.3 3.9 2.25 3.75 4.25-.1 2.15-1.65 3.55-1.5 1.35-3.75 1.5-4.55.15-10.7-1.15-12.3-2.65-20.45-9.85-9.1-8.1-11.85-17.75-2.5-9 1.95-11.05 3.6-1.65 7.35 1.35 2.7 2.2 4.75 6.05"/><path fill="#0d131a" d="M217.9 167.2q-3.7-8-10.8-13.2l.9-1q8.05 6.2 11.75 13.8 6.25 12.75 6.95 37 .85 27.7 7.05 41.35 4.4 9.7 12.8 14 6.25 3.2 14.2.75 5.65-1.75 16.5-8.3 10.4-6.35 16.5-8.4 5.3-1.8 13.7-1.4 11 .45 14.4 5.75h-1.95q-4.1-3.75-13.15-3.95-7.35-.2-12.35 1.55-3.65 1.2-8.25 3.65-2.7 1.45-8.1 4.75-10.65 6.5-16.1 8.3-9 3-16.1-.65-10.4-5.3-15.55-19.1t-5.85-38.25q-.75-23.9-6.55-36.65"/><path fill="#0d131a" d="M325.2 249.95q1.75 2.4.85 5.15-.8 2.5-7.15 5.4-5.55 2.55-11.7 3.95L296.4 267q-6.05 1.6-10.65 3.6-13.05 5.6-19.4 7.2-12 3.05-21.8.15-13.2-3.9-20.9-17.75-5.95-10.7-6.35-21.15-1.8-46.75-4.25-60-1.75-9.6-4.95-15.3-3.15-5.6-8.7-9l1.05-.8q12.15 5.4 15.8 33.1 2.15 16.05 3.6 52.5.85 10.55 5.85 19.7 6.9 12.65 19.55 16.4 9.4 2.8 20.8-.1 5.55-1.4 18.65-6.9 4.15-1.8 11.2-3.85l9.65-2.65 10.8-3.1q7.5-2.65 8.05-5.25.25-1.35-.6-2.85-1-1.75-3-2.35-2.95-.85-8.1-.75-6.65.1-12.9 2.05l-3.7 1.6q-3.45 1.55-4.95 2.35-1.55.9-1.6.65-.05-.25 1.25-1.4 1.7-1.45 7.6-4.2 5.4-2.3 12.75-2.55l8.7.45q3.6.7 5.35 3.15m-93.1-114.1q1.45.35 1.3.8l-1.75.25q-1.5-.2-3.9 2.15-1.15 1.1-3.85 4.35-2.85 3.45-5.3 4.85-4.55 2.5-11.5 1.95-.25-.35-.25-.85 6.55.55 11.9-3.1 2.75-1.9 6.2-6.1 2.1-2.55 3.15-3.35 1.85-1.4 4-.95m-160.75-11.4q-2.5-2.15-6.1-7.1l-4.05-5.9q-.35-.55.35-.95l.95.1 4.35 5.95q3.45 4.3 5.9 6.45 6.35 5.45 12.95 8.2 6.65 2.75 12.05 2.15 12.5-1.35 20.1 3.4 3.8 2.4 5.15 5.1l-.95 1.45q-1.5-2.6-5.2-4.9-7.5-4.6-18.9-3.35-5.8.65-12.85-2.15-7.2-2.8-13.75-8.45"/><path fill="#0d131a" d="M59.6 114.4q-.7 3.6 2.65 10.1 3.2 6.3 9.05 13.25 13.6 16.15 27.45 21.45l-.35 2.4q-18.7-8.9-31.3-26.3-4.9-6.75-7.4-12.95-2.3-5.7-1.65-8.3.85-3.25 4.05-4.7 3.75-1.75 13-2.35 6.4-.35 23.6-.15l1.05 1.65q-15.95-.05-23 .35-9.1.55-13.05 1.9-3.65 1.25-4.1 3.65m107.95 54.5q12.7 5.3 21.2 4.9 9.65-.45 21.5-8l.65 2.15q-12.2 7-21.6 7.5-9.2.5-22.4-4.95-11.9-4.95-20.1-5.85-7.5-.9-20.3.85l-8.95.9q-4.95.05-9.9-1.25l.5-1.05.3-1.1q5.75 1.4 12.05 1.05l10.4-1.2q9.4-1.25 18.35.35 7.95 1.45 18.3 5.7m65.75-33.7q2.3 4.1-2.3 12.8-4.85 9.2-13.75 15.8l-1-1.8q7.8-5.55 12.9-14.7 5.15-9.3 1.85-12.35-1.9-1.75-9.25-4-6.35-1.95-13.6-3.35l.75-1.2q8.2 1.55 14.25 3.45 8.7 2.7 10.15 5.35m-67.4-.1q6.1-2.3 7.3-3.5l.8 1.3q-3.6 2.4-8.55 4.3-5.65 2.2-9.65 2.35-4 .15-10.85-4.75-5.95-4.25-8.35-7.65l1.35-.6q2.05 2.85 8.05 6.75 6.65 4.3 10.3 4.25 3.1 0 9.6-2.45m36.9-.5l.95.4q-.85 2.5-2.1 4.3-1.3 1.85-2.45 2.05-1.15.15-3.95-1.35-2.85-1.6-3.35-2.85l.85-.95q.75 1.25 2.85 2.4 2.2 1.2 3.4.9 1-.25 2.05-1.55 1.2-1.45 1.75-3.35"/><path fill="#0d131a" d="M181.75 147.15l1.6.15q1.05 4.45.45 10.15-.6 6.45-3.15 12.25l-1.3-.15q2.45-5.55 3-12.2.45-5.75-.6-10.2m-18.8-23.7q1.15.1 1.15 3.3-.3 3.2-1.45 3.15-.8-.05-1.05-1.45-.2-.95-.1-1.85 0-.85.25-1.8.4-1.4 1.2-1.35m32.6 10l.4-1.5q.4-.7.95-.65.55.05.75.8.25.65.15 1.55l-.4 1.55q-.35.65-.9.6-1.15-.05-.95-2.35m3.05-116.4q-.85.15-1.35 1-9.55-12.35-28-14.95-14.5-2.1-23.65 1.7l-1-.75-1.05-.65Q156.3-1.65 170.5.65q17.3 2.85 28.1 16.4M94.15 87.8l2.2 2.35q.55 4.4 2.15 11.05 1.65 6.9 3.45 11.9 2 5.6 3.95 7.4 1.7 1.6 5.05 1.55l8.95.8q5.9 1.4 10.15 5.65l-1.2.7-.95.05q-1.95-2.45-6.45-3.85-4.7-1.5-10.85-1.35-4.65.1-6.65-1.75-1.95-1.8-4.25-8.3-2-5.5-3.7-14.1-1.45-7.35-1.85-12.1"/><path fill="#0d131a" d="M170.65 123.8l-.2 1.95q-13.3-1.85-28.05.55-13.05 2.15-15.25 4.85-1.05 1.25-2.45 6.45-1.5 5.4-2.05 10.45-.1.7.3.9l1.65-.15q3.1-.85 8.45-1.6 8.15-1.1 12.65-.2 8.95 1.75 17.1 7.45 4.6 3.2 11.25 9.75 4.15 4.15 5.4 4.6.85.3 3.05-1.45l4.3-3.9q5.5-5.25 8.7-7.45 5.5-3.7 10.1-3.35l1.05-.1q.2-.2 0-1.25-.75-4-3.05-7.9-1.75-3-2.8-3.7l.75-1.15q1.5.9 4 4.85 3.25 5 3.35 9.15.05 1.25-.35 1.55l-1.7.2q-4.85-.25-10.4 3.05-4.05 2.45-9.05 7.2l-4.95 4.75q-2.3 1.85-3.65 1.35-.9-.35-2.5-1.95l-3.25-3.5q-6.5-6.4-11-9.55-7.95-5.55-16.65-7.3-4.35-.85-12.05.15-5.5.75-8.45 1.65-2.65.85-3.35.6-.65-.2-.7-1.95-.05-4.3 1.8-11.3 1.85-6.9 3.35-8.4 2.25-2.3 15-4.5 15.45-2.7 29.65-.8m52.9-26.25q.65.1 1.3-.7l.7-1.15q-1.45 8.5-3.8 12.45-2.2 3.75-6 4.8l.35-1 .05-.95q3.1-1.4 5-5.45 1.35-2.8 2.4-8"/><path fill="#0d131a" d="M194 121.85l-2-9q-.45-1.8-.05-2 .35-.2 1 1.55.9 2.35 2.7 9.55 2.1 8.25 1.7 9.5-.25.95-4.6 6.35-4.4 5.4-7.5 8.6l-2.55 2.05q-.8.15-1.75-1.8-2-4-7.4-13.25l-5.05-8.5q.2-.65 5-6.55 4.5-5.55 7.55-9 1.35-1.55 1.7-1.25.35.3-1 2.05-8 10.2-9.9 13.25-.7 1.15-.7 1.6 0 .4.65 1.6 6.9 12.15 10.1 18.8.55 1.15 1 1.15l1.3-1q2.65-2.7 6.5-7.75 4.15-5.35 4.45-6.75.4-1.55-1.15-9.2M89.55 67.95l1.55 3.2q-.8 9.95 4 16.1 4.9 6.3 15.55 8.35 2.45.5 2.1.9l-2.1.1q-6.45-.9-11.25-3.2-4.75-2.35-7.2-5.75-2.75-3.8-3.2-9.55-.35-4.05.55-10.15m94.2-6.1q4-2.15 7.75 1.45 4 3.85 4.85 12.2l-1.85-2.25q-1.15-6.4-4.4-9.1-2.85-2.35-5.9-1.05l-1.7.15q-.3-.5 1.25-1.4m6.9 35.3l2.2-.55q-1.3 2.2-3.4 3.85-1.95 1.55-3.75 2-2.5.6-4.7-.65t-3.4-3.95q-.7-1.65-.35-2 .3-.35 1.1 1.3 1.1 2.3 3.05 3.15 1.85.85 4.05.3 3.05-.65 5.2-3.45m-32.4-78.3q.95 3.2.5 3.5-.5.3-1.85-2.8-2.8-6.3-5.55-9.55-3-3.55-6.75-4.65-5.55-1.6-12.4 2.65-2-.6-2.85-.65 4.55-2.95 8.95-4.3 4.45-1.35 7.2-.55 3.45 1 7.2 5.8 3.8 4.85 5.55 10.55M203 18.2q3.5 3.15 6.9 8.5l-2.45-.1q-1.2-2.65-4.2-5.65-3.2-3.2-4.65-2.65-.95.35-1.2 2.85l-.1 5.1q.05 2.1-.45 2-.4-.05-.7-1.35-.85-4.65-.15-8.15.65-3.1 1.9-3.25 1.85-.25 5.1 2.7"/><path fill="#0d131a" d="M216.3 100.05l.95 6.6q.45 4.35-.2 6.35-1.25 3.9-4.45 9.95l-5.4 9.3-1.9 2.65q-.75.8-1.45.8-.65 0-4.05-2-3.45-2.05-4-2.1l.3-1.35q.95.15 5.55 2.8 1.75.9 2.3.7.6-.25 1.7-2.25 2.65-4.1 5.2-9.2 3.15-6.15 3.95-9.7.55-2.45.4-6.1l-.6-6.4q-.5-5.15.2-5 .65.2 1.5 4.95m-69.4-72.7q-4.3-16.95-15.8-18.8-12.25-1.9-24.3 7.95-11.5 9.4-15.7 23.2-5 16.3 0 30.25Q95.8 83 105.85 86.3q10.75 3.55 22.35-3.7 12.45-7.75 17.55-23.25 5.2-15.85 1.15-32m-15.45-20.9q12.3 1.75 17.2 18.95 4.8 16.9-1.15 35.1-5.25 16.05-18.15 23.85-12 7.25-23.3 3.65-11.65-3.7-17-17.2-5.65-14.3-.45-31.3 4.5-14.85 16-24.55 12.55-10.55 26.85-8.5M216.4 32.6q-5.25-6-8.85-5-.6.15-1.15 1.3-1 2-1 5.8 0 6.35 2.65 12.45 8.2 19.1 10.25 32.55 2.5 16 4.7 16.85 1.55.55 3.4-3.65 1.85-4.35 2.9-11.05 2.7-17.4-2.7-31.3-4.45-11.45-10.2-17.95m-9.2-6.9q4.4-1.5 11.1 6.3 6.45 7.5 10.6 18.25 5.75 14.75 2.15 32.9-1.4 7.2-3.85 11.55-2.45 4.4-4.6 3.6-2-.75-3.75-6.5-1.5-4.8-2.65-12.35-2.05-13.55-9.9-31.75-3.35-7.85-2.65-14.8.6-6.25 3.55-7.2M194.65 74q-2.65-4-6.35-4-3.7 0-6.3 4-2.65 4-2.65 9.6t2.65 9.6q2.6 4 6.3 4 3.7 0 6.35-4 2.6-3.95 2.6-9.6 0-5.65-2.6-9.6m-6.35-5.4q4.2 0 7.45 4.45 3.3 4.55 3.3 10.5 0 6-3.25 10.55-3.2 4.5-7.3 4.5-4.35 0-7.65-4.3-3.45-4.45-3.45-10.7 0-5.2 2.85-9.8 3.25-5.2 8.05-5.2"/><path fill="#db8f86" d="M219.3 42q1.1 4.2.65 7.55-.45 3.3-2.15 3.8-1.75.5-3.75-2.15-2-2.6-3.1-6.8-1.1-4.2-.65-7.55.4-3.3 2.15-3.8 1.7-.5 3.75 2.15 2 2.6 3.1 6.8M108.9 27.65q3.25-4.7 6.85-7.05 3.6-2.4 5.4-1 1.85 1.4.85 5.7-1 4.3-4.25 9-3.2 4.7-6.8 7.1-3.6 2.35-5.45.95-1.85-1.35-.85-5.65 1-4.35 4.25-9.05m112.75 30.9q0 .7-.5 1.2t-1.2.5q-.7 0-1.15-.5-.5-.5-.5-1.2 0-.65.5-1.15.5-.5 1.15-.5.7 0 1.2.5.5.45.5 1.15m-28.6 18.4q0 1.25-.85 2.1-.85.9-2.1.9-1.2 0-2.05-.9-.85-.85-.85-2.1t.85-2.1q.85-.9 2.05-.9 1.25 0 2.1.9.85.85.85 2.1m0 6.45l-.3.85q-.35.4-.8.4-.45 0-.75-.4-.3-.35-.3-.85 0-.55.3-.9t.75-.35q.45 0 .8.35l.3.9m-91.4-34.7q.65.65.65 1.6 0 .95-.65 1.6-.65.65-1.6.65-.95 0-1.6-.65-.65-.65-.65-1.6 0-.95.65-1.6.65-.65 1.6-.65.95 0 1.6.65"/><path fill="#0d131a" d="M15.8 246.45q-3.8-5.4-5.15-6.9-1.25-1.45-3.4-1.65-2.9-.35-4.3 2.85-1.25 2.95.25 8 1.2 4.05 3.8 8.45 4.4 7.3 13.2 12.5 8.2 4.85 16.45 5.85 5.75.75 9.05.1 3.15-.55 3.6-2.3.95-3.95-8.65-7.05-9.55-3.15-16.55-9.7-3.8-3.6-8.3-10.15m106-105l.5 1.3q-8.8 3.15-13.15 19.95-2.35 9.2-5.3 35.5-1.95 17.05-3 23.6-2.05 13-5 20.95-7.7 20.85-25.15 30.05-15.65 8.25-33.95 4.95-19.5-3.5-30-17.1-4.2-5.4-5.9-11.2-1.55-5.35-.45-9.1 1.5-5.1 7.6-6.05 7.6-1.15 16.45 7.6 9.05 8.95 13.55 11.65 9.2 5.65 19.65 3.85 12-2.15 19.3-12.85 13-19.05 17.05-66.45 1.55-18.3 8.25-29.05 5.4-8.75 13.55-11.7l1.7.7q-18.7 8.1-21.5 39.7-4 45.45-15.2 64.85-8.25 14.25-22.75 16.8-11 1.9-20.55-3.45-5.6-3.15-14-11.6-9.4-9.4-15.1-8.05l.05.05q3.1 1.15 5.2 3.8l3.2 4.85q5.9 8.6 10.6 12.55 5.2 4.35 13.7 7.4 6.5 2.3 8.7 4.6 1.85 1.85 1.2 4.25-.3 1.35-2.1 2.55 15.5-.65 27.2-10 11.75-9.3 17.9-25.9 2.95-7.9 4.95-20.4 1.25-7.4 3-23.15 2.9-25.65 5.7-35.6 4.7-16.5 14.1-19.85"/></svg>