<svg xmlns="http://www.w3.org/2000/svg" width="385" height="355" viewBox="-1.5 -1.85 385.15 355.1"><path fill="#958c87" d="M329.9 214.1q-6.15-10.65-16.15-18.75-8.05-6.55-17.1-10.4l11.9-1.15q4.8-.8 9.9-2.4 17.75 10.85 26.25 26 8.6 15.3 10.1 33.65 1.55 19-4.95 37.65-2.2 6.35-7 8.85-4.25 2.2-7.9.45-8.55-4-4.3-16.9 5.2-15.9 5.4-30.05.2-15.9-6.15-26.95"/><path fill="#766e6a" d="M339.3 200.05q7.5 9.5 10.65 19.55-4.2-5.75-12.1-9.85-7.65-3.95-13.2-3.55-4.75-6.3-13.95-13.05-7.3-5.25-13.7-8.4l9.6-1.1q6.25-1 11.85-2.4 12.45 8.05 20.85 18.8"/><path fill="#0d131a" d="M210.9 165.15q5.65-1.2 10.25 2.2 11.5 8.35 13.45 10 9.85 8.35 12.4 15.6 3.55 10.15 1.85 32.35-1.7 21.85-6.45 31.2-5 9.75-8.4 10.25-3.6.5-4.05-10.1-.95-22.55-1.95-31.7-2.15-19.35-6.7-24.65l-15.55-17.75q-4.5-5.65-3.45-9.05 2.25-7 8.6-8.35"/><path fill="#00a0cf" d="M205.95 170.9q1.85-3.1 4.65-2.9 2.05.1 7.2 2.6 5.9 2.8 15 11.2 10.45 9.6 12 15.8 2.15 8.55.45 29.25-1.75 21-5.3 27l-3.75 6.5q-1.65 2.75-2.45 2.75-.55 0-.7-5.75l-.25-13.1q-.5-13.5-1.65-22-2.2-16-7.2-24.25-5.35-8.8-14.45-18.9-2.9-3.25-3.6-4.65-.95-1.9.05-3.55"/><path fill="#766e6a" d="M325.85 227.45q2.8 1.4 3.7 4.7.8 2.9-.3 4.65-1.1 1.7-3.5 2.65l-4.6.1q-12.85-6.1-31.85-8-16.7-1.65-36.45.1-17.7 1.55-36.85-6.1-21.5-8.65-32.55-24.85.15-1.65.85-5.85l.95-5.3q8.8 13.65 29.55 23.55 21.5 10.2 38.35 7.65 16.35-2.45 36.2-1.2 23.65 1.45 36.5 7.9"/><path fill="#0d131a" d="M325.05 237.9q2.25-.55 3.1-2.2.8-1.6-.3-3.75-1.15-2.25-3.7-3.7-9.75-5.45-28.05-7.05-17.65-1.5-40.55.7-18.3 1.75-37.5-6-21.15-8.5-33-24.95l.65-3.25q11.55 16.7 32.4 25.4 18.95 7.85 37.2 6.1 23.05-2.2 41.45-.55 19.05 1.7 28.95 7.2 4.05 2.25 5.35 6.05 1.05 3.15-.1 5.5-1.2 2.35-4.2 3.35-3.65 1.25-7.85-.7-11-5-29.45-7.1-17.95-2.05-32.6-.2-17.45 2.2-37.35-4.7-24.1-8.35-36.4-26.4l.6-2.9q11.9 18.25 35.75 26.55 19.6 6.8 37.1 4.55 14.8-1.85 33.4.25 19.05 2.15 30.2 7.25 2.55 1.15 4.9.55"/><path fill="#766e6a" d="M189.3 230.55q-3-12.95-8.3-24.3l2.85-11.5q8.45 11.25 13.6 28.05 4.75 15.5 4.65 28.6-.05 11.7 4.35 25.9 3.9 12.55 10.75 25.7 3.45 6.55-.55 9.4-1.5 1.05-3.55.65-2.25-.4-4.1-2.35-9.2-9.75-14.35-27.95-4.7-16.55-3.25-28 1.25-9.8-2.1-24.2"/><path fill="#0d131a" d="M183.3 195.45l.95-2.25q8.95 12.75 14.1 28.5 5.05 15.6 5.05 29.9 0 13.6 5 28.75 4 12.2 9.8 21.6 4.8 7.85-.6 11.7-2.4 1.65-5 1-3.2-.8-6.45-5-7.85-9.95-12.35-25.15-4.65-15.75-3.55-30.15 1-12.8-1.55-24.45-2.4-10.85-8.15-22.1l.85-2.9q6.6 11.95 9.35 23.2 3.1 12.5 2 26.45-1.05 14.15 3.5 29.25 4.3 14.4 12 24.25 2.3 2.9 4.5 3.7 1.85.65 3.25-.35 1.3-.95 1.5-2.75.25-2.4-1.7-5.6-5.55-9.15-9.75-21.7-5.35-16-5.3-29.65 0-14.1-4.5-28.95-4.65-15.35-12.95-27.3"/><path fill="#766e6a" d="M298.6 172.2q-18.1 4.5-40.45 1.4-18.2-2.55-26.55-7.35 14.85-3.35 32.5-1.8 17.75 1.55 34.5 7.75"/><path fill="#958c87" d="M199.4 182.2l7.8-3.7q24.05 13.35 37.45 28.85 15.1 17.4 20.45 41.4 4.35 19.55-3.5 42-7.9 22.6-26.1 42.15-3.05 3.25-7.25 3.85-3.85.5-5.7-1.4-1.9-2-1.95-5.6-.05-4.15 2.55-7.55 14.35-18.7 20.55-34.7 6.1-15.65 6.15-33.55.1-21-17.65-42.7-13.35-16.35-32.8-29.05"/><path fill="#766e6a" d="M215.1 193.65q-2.7-2.55-7.65-6.15-4.5-3.3-8.45-5.75l9.15-3.4q7.1 3.65 21.25 14.9-2.95-1.25-7.45-1.05-4.2.2-6.85 1.45"/><path fill="#0d131a" d="M198.9 183.3l2.5-1.55q18.05 12 30.05 26.35 15.5 18.65 18.9 39.2 2.85 17.3-3.3 35.75-6.1 18.4-20.85 37.2-4.15 5.25-4.35 9.3-.2 3.35 2.15 5 2.3 1.7 5.9.25 4-1.55 8.25-6.5 16.25-19.1 22.65-39 6.4-19.75 2.8-39.6-3.7-20.75-17.9-38.5-14.3-17.8-38.2-31.5l2.45-1.5q24.05 13.9 38.6 32 14.55 18.15 18.3 39 3.6 20-3.3 40.85-6.9 20.7-23.45 40.1-5.4 6.35-10.25 7.9-4.3 1.35-7.8-1.2-3.1-2.25-3-6.55.15-5.2 5.25-11.7 28.95-36.85 23.3-71-3.35-20.4-18.8-38.6-11.75-13.75-29.9-25.7"/><path fill="#958c87" d="M214.65 173.95l5.65-5.55 9.85 7.55 14.35 3.55q17.1 10.35 28.75 20.75 9.95 8.95 18.35 20.2 12.9 17.35 15.05 43.2 2.15 25.5-7.05 48.4-2.05 5.1-6.05 7.35-3.85 2.2-7.9.9-2.65-.8-4.4-4.9-1.95-4.55-.1-8.45 8.25-17.4 8-38.15-.2-22.9-11.05-40.95-8.25-13.75-29.15-30.6-17.35-13.95-34.3-23.3"/><path fill="#766e6a" d="M215.3 173.85l3.55-3.05q4.2 2.3 13.35 5.45 8.5 3 12.65 3.8 4 2 12.35 7.85 7.55 5.3 12.45 9.3-4.75-2.8-11.95-3.35-7-.55-10.95 1.35-10.6-7.85-31.45-21.35"/><path fill="#0d131a" d="M331.55 272.85q-1.9 5.25-.05 9.45 1.75 4 5.6 4.8 3.95.8 7.5-3.15 3.25-3.6 4.8-9.3 6.3-23.5 2.6-43.05-3.7-19.6-17.3-34.5-17.8-19.45-48-27.2-26.05-6.7-52.5-3.1l3.7-2.5q25.5-4 51.9 3.2 29.55 8.1 47.3 27.5 13.95 15.3 17.95 35.85 4.05 20.75-2.45 44.8-1.95 7.1-6.35 11.3-4.65 4.4-9.8 3.35-5.9-1.2-8-6.75-2-5.25.35-11.6 10.85-29.8 1.75-52-9-22-36.85-34.65l5.2-.45q27.05 12.95 35.4 35.5 8.25 22.4-2.75 52.5"/><path fill="#0d131a" d="M214.9 175.25l1.6-1.55q21.95 13.65 34.4 23.5 17.75 14 27.05 28 11.5 17.3 12.85 37.1 1.35 20.35-8 44.65-1.6 4.15-.1 8.05 1.5 3.75 4.8 4.45 2.85.55 6.05-1.9 3.55-2.8 5.25-7.8 14.05-41.75-.65-74.5-7.15-16-21.55-30.1-14.4-14.15-35.45-25.9l5.1.4q40.65 23.45 54.65 54.55 7.5 16.65 7.7 36.05.25 19.55-6.9 40.8-2 5.85-6.95 9.25-4.45 2.95-7.95 2.25-4.95-1-6.95-5.8-2.05-4.8.2-10.75 9.15-24.3 7.55-45.1-1.5-19.1-11.9-34.45-9.15-13.5-25.7-26.85-13.1-10.65-35.1-24.35"/><path fill="#958c87" d="M353.4 85.9q-4.4-14.05-21.05-25.85-4.55-3.25-13.75-8.8-8.6-5.15-11.95-7.65-2.65-2.05-4.05-4.9-1.4-2.9-.6-4.75 1.1-2.55 4.3-4.5 3.25-2.05 6.05-1.7 35.4 4.55 59.2 42.75 12.1 19.55 6.35 46.6-5.6 26.2-24.5 44.55-22.4 21.8-60.3 23.25-28.8 1.05-63.95-9.5l-8.85-7q1.15-1.35 3.1-4.6l3.2-5.4q2.35 4.7 4.45 6.6 1.95 1.85 6.5 3.7 8.7 3.6 21.75 5.05 13.9 1.55 28.15.05 35-3.7 53.15-22.85 12.5-13.25 15.6-30.4 2.95-16.35-2.8-34.65"/><path fill="#766e6a" d="M241.5 178.8q-12.45-3.4-22.65-8 4-3.85 8.45-12.6 1.45 5.45 5.75 8.5 2.2 1.55 8.75 3.7 5.75 1.85 10.6 2.9 1.5 2.05 6.05 5.5 4.95 3.75 7.75 4.5-11-.7-24.7-4.5"/><path fill="#0d131a" d="M354.75 84.3q5.8 13.95 4.2 29.85-1.55 15.65-9.7 28.7-8.5 13.65-21.95 20.75-23.25 12.25-51.85 12.7-25.6.35-43.5-8.25-2.5-1.2-4.25-5.05l-1.75-3.7 6.75 5.95q20.2 8.55 43.85 8.2 26.65-.45 48.95-12.6 11.2-6.05 19.2-18.25t10.25-26.45q2.35-15.25-2.65-28.6-5.6-14.85-19.55-24.75-4.15-2.95-12.4-7.95L308.8 47.6q-11.55-8.1-8.8-14.3 2.35-5.25 9.1-6.4 6.35-1.1 15.3 1.6 19.25 5.85 35 22.25 15.35 15.95 19.8 36.7 4.25 19.45-1.85 39.1-6 19.45-20.4 34.1Q341.8 176 321 182.3q-21.9 6.65-54.1 3.05-31.5-3.5-49.95-13.95l2.65-2.25q15.2 9.1 45.45 13.05 34.05 4.4 56.25-3.35 20.6-7.15 34.8-22.4 13.45-14.35 18.6-33 5.15-18.45.95-36.55-4.4-18.9-18.2-33.1-15.2-15.65-32.85-21.75-7.85-2.75-13.25-2.25-5.65.55-7.25 4.45-1.8 4.5 8.45 11.45 6.1 4.15 22.55 14.3 13.45 9.3 19.65 24.3"/><path fill="#958c87" d="M150.7 226.05l1.7 13.2q-6.3 11.6-17.5 20.05-11.8 8.9-28.45 13.85-19.9 5.9-31.85 14.45-8.65 6.2-25.65 24.2-3.05 3.2-6.5 4.25-3.45.95-5.3-.7-1.8-1.6-1.4-5.1.35-3.45 2.6-6.7 9.75-13.95 29.1-26.25 18.6-11.8 34.9-15.15 17.15-3.5 29-12.7 10.85-8.45 19.35-23.4"/><path fill="#766e6a" d="M136.35 245.15q11.65-10.7 14.7-19.85l1.55 14.55q-7.9 12.7-18.7 20.45-9.5 6.8-22.75 10.8-11.9 3.6-21.8 8.1-11.55 5.3-18.95 11.3 3.05-2.9 5.4-9.05 2.3-6 2.05-10.05 8.35-4.05 18.35-7.35 6.65-2.2 16.55-4.8 11.35-2.95 23.6-14.1"/><path fill="#0d131a" d="M152 238.2l.8 3.15q-7.05 11.2-17.9 19.7-9.75 7.65-18.55 10.3-24.7 7.35-36.55 14.6-11.2 6.8-26.8 23.5-11.25 12.05-16.8 7.15-2.55-2.3-2.05-6.4.6-5 6-11.2 13-15.1 29.6-24.65 16.55-9.5 41.1-16.1 12.4-3.3 22.95-12.6 10.4-9.2 16.35-21.8l.95 3.75q-6.25 12.25-16.6 21.05-10.5 8.95-22.8 12.2-24.45 6.55-40.5 15.75-16.3 9.25-29.1 24.1-3.9 4.55-4.9 8.4-.95 3.55.9 5.2 1.65 1.45 4.6.25 3.6-1.5 8.55-6.85 16-17.1 27.1-24.1 12.4-7.75 37-15.1 9-2.7 18.75-10.3 11.1-8.7 17.9-20"/><path fill="#958c87" d="M145.2 178.05l4.05 1.55q-22.75 14.15-37.2 35.85-15 22.55-16.65 46.95-1.1 16.7 6.95 35.8 8.3 19.65 24.2 36.7 3.55 3.8 4 7.8.4 3.6-1.75 5.95-2.05 2.25-6.2 1.75-4.3-.45-7.6-3.55-16-15.1-25.45-36.55-10.25-23.15-8.35-44.5 2.6-28.95 23.25-54.3 17.1-20.95 40.75-33.45"/><path fill="#766e6a" d="M123.45 192.9q12.65-10.35 22.05-14.45l2.9 2.1q-6 3.15-15.85 11.95-11 9.75-16.55 17.85-3.25-.3-7 .85-4.1 1.15-7.05 3.5 8.2-10.9 21.5-21.8"/><path fill="#0d131a" d="M146.6 180.1l1.85 1.6q-21.8 14.85-35.1 34.3Q100 235.55 97.4 256.6q-4.85 39.6 28.85 75.95 5.55 6 6.2 10.7.55 4.1-2.55 6.9-3.45 3.1-8.45 1.85-4.9-1.2-9.4-6.05Q93 325.35 85 302.75q-7.95-22.5-4.15-44.75 4-23.5 20.75-44.75 16.7-21.15 42.15-35.25l1.55 1.35q-25.25 13.95-41.55 34.8-16.2 20.75-20.2 44.2-3.7 21.9 4.05 43.6 7.75 21.65 26.6 42.05 3.45 3.7 7 4.7 3.7 1.05 6.25-1.25 2.3-2.05 1.65-5.25-.7-3.45-4.8-7.9-16.8-18.15-24.35-38.2-7.55-20-5.05-39.95 2.6-21.25 16.25-41.2 13.5-19.85 35.45-34.85"/><path fill="#958c87" d="M122.05 181.85q6.85-1.9 9.65-3.05 1.7-.75 4.9-1.35l5.85-1 2.75 1.6q-29.85 8.45-51.4 25.45-23.9 18.8-31.8 44-4.2 13.3-2.25 27.95Q62 292.8 73.1 316.1q2.8 5.85 2.1 10.1-.6 3.6-3.5 5.3l-5.45.15q-3.9-1.35-7-5.95-9.8-14.45-13.65-34.15-4.2-21.6.95-40.35 5.85-21.4 24.75-39.95 16-15.8 38.35-26.8 4.2-.35 12.4-2.6"/><path fill="#766e6a" d="M91.2 195.45l10.2-6.2q5.95-3.45 8.8-4.95 4.35-.15 12.6-2.45 7.1-1.95 9.6-3.2 1.6-.8 4.3-1.15l5.5-.55 1.5 1.35q-7.1 1.85-18.8 6.95-12.65 5.6-18.8 9.95-2.7-1.45-6.25-1.6-4.4-.15-8.65 1.85"/><path fill="#0d131a" d="M109.4 184.05l4.05.25Q88.9 195.4 72 212.35q-16.85 17-23.35 37.15-5.65 17.45-2.95 36 2.7 18.5 13.5 37.2 2.95 5.1 6.45 6.95l5.65.15q2.4-1.3 2.5-5.3.1-4-2.25-8.4-22.65-42.15-7.95-76.6 8.8-20.55 29.4-36.75 20.7-16.2 49.65-25.2l2.55 1.4q-29.35 8.85-50.05 24.9-20.75 16.05-29.25 36.6-13.95 33.55 8.05 74.5 3.5 6.6 2.7 11.9-.65 4.35-3.7 6.1-3.4 2-7.8-.1-4.85-2.35-8.6-8.8-10.95-18.9-13.65-38.3-2.7-19.35 3.05-37.2 6.4-19.95 22.9-36.65 16.35-16.55 40.55-27.85"/><path fill="#958c87" d="M111.1 162.75q1.45.9 3.9 1.9l3.9 1.25q1.3.2 3.1-.7l2.85-2q1.65-1.5 7.6-4.4l1.15 4.3q-1.55 3.2-4 5.35-2.05 1.8-3.25 1.8-27.1.55-51 11.2-27.5 12.3-41.95 34.7-7.45 11.55-11.3 27.15-4.55 18.5-3.55 41.15.2 4.15-1.85 8.1-2.1 4.05-5.15 5.05-2.3.75-5.1-1.5-3.2-2.45-4.05-6.9-3.45-18.5 2.15-41.85 5.5-23.15 16.9-38.85 15.4-21.2 41.6-33.7 23.7-11.3 48.05-12.05"/><path fill="#766e6a" d="M102.55 163.9q8.9-.9 14.2 1.55l3.95.25q1.4-.45 3.9-2.05l7.85-4.5 1.35 4.7q-3.85 4.55-6.65 6.55-4.5-.45-15.15 1-9.4 1.3-15 2.75 2.7-1.45 4.45-4.65 1.7-3.2 1.1-5.6"/><path fill="#0d131a" d="M29.45 196.85q15.2-16.2 36.55-25.2 21.15-8.9 44.8-9.3l2.7 2.1q-23.85-.05-45.35 8.9-21.6 8.95-37 25.4Q15.6 215.35 8.4 237.4q-7.2 21.9-5.35 46.85.45 5.9 3 9.15 2.15 2.8 4.75 2.65 2.55-.15 4.35-3.55 2.15-4 1.9-10.75-1.7-50.3 25.95-79.55 14.2-15.1 36.15-23.65 21.9-8.55 50.05-10l-3.8 3q-53.1 3.35-80.7 32.15-26.55 27.8-24.5 78.1.3 8.15-2.45 13.2-2.6 4.65-6.7 4.9-3.75.25-6.8-3.95Q.9 291.5.4 284.35q-1.9-25.15 5.65-47.95 7.55-22.7 23.4-39.55"/><path fill="#958c87" d="M60.8 28.65q5.1-3.6 9.85-4 5.3-.45 8.95 3.3 2.25 2.35-1.15 9Q75.2 43.4 69 49.5 44.4 73.95 36.75 93.9q-10.3 27.05 6.45 52.15 13.4 20.1 36.25 27.15 23.9 7.35 48.2-3.1 1.85-.8 5.7-5.5 2 3.8 5 7.3 3.65 4.15 7.05 5.55-3.05-.45-7.2.1-4.7.6-9.15 2.35-23.25 9-51.2 2.95-30.7-6.65-46.55-28.4-23.55-32.3-10.45-71.75 5.45-16.4 16.6-31.15Q47.9 37.8 60.8 28.65"/><path fill="#766e6a" d="M90.4 185.05q3.45-.45 6.65-3.35 3-2.65 3.8-5.4 6.15-.45 15.7-2.65 9.8-2.3 11.5-3.75 3.5-3.1 5.75-6.05 1.1 3.15 3.45 6.95 2.65 4.2 4.95 6.15l-5.6.25-4.15.9q-10.35 4.25-21.75 6.25-12.05 2.1-20.3.7"/><path fill="#0d131a" d="M79.1 25.25q4.3 3.6 1.1 10.55-4.15 9.05-21.25 26.25Q35 86.2 34.8 113.65q-.25 27.75 23.9 47.1 17.05 13.65 36.45 14.15 9.6.3 28.5-4.45 3.9-.95 6.9-4.55 2.6-3.15 3.05-6.05l-.25 6.05q-2.65 4-5.2 5.1-14.45 6.15-29.45 6.3-23.25.25-41.65-14.55-24.65-19.8-25.3-47.95-.65-28.85 24.55-54.6 16.05-16.45 20.1-23.6 3.35-5.95-.1-9-3.8-3.4-11.6.65-9.1 4.7-21.05 18.55-15.25 17.7-21.4 37.15-5.6 17.55-3.35 35.05 2.05 16 10.3 29.5 7.85 12.9 19.5 20.65 13.85 9.2 29.7 12.7 13.55 3 27.8 1.65 14-1.3 26.25-6.35l3.8-.9 5.35-.5 4.7 3.8q-1.65-.85-6.55-.6-4.55.2-6.3.9-17.1 7.1-38.4 6.5-26.55-.8-47.45-14.5-13.15-8.6-21.65-22.4-8.8-14.15-10.85-30.95-2.25-17.9 3.6-35.95 6.35-19.7 21.65-37.5Q51.5 32.15 61.5 26.5q11.3-6.4 17.6-1.25"/><path fill="#958c87" d="M147.45 202.95l1.1 8.5q-16.3 10.95-23.35 27.5-8.8 20.65 4 38.9 6.75 9.65 10.35 18 4.15 9.75 4.65 19.05.25 4.25-1.5 7.45-1.85 3.3-4.8 3.55-2.75.25-4.7-2.85-1.65-2.75-1.75-5.9-.6-15.6-13.3-33.6-7.55-10.65-7.6-23.7 0-11.55 5.75-23.75 5.25-11 14-20.15 8.4-8.75 17.15-13"/><path fill="#766e6a" d="M127.9 218.45q9.9-10.7 19.5-15.45l1.2 8.35q-8.7 6.4-13.95 12.8-5.05 6.2-10 16.3-4.4 9.05-2.55 19.85 1.7 9.85 8.25 19.3-3.65-3.4-8.6-4.25-4.25-.7-7.55.6-3.6-9.95-3.5-18.3.1-7.8 3.6-18.2 3.3-9.9 13.6-21"/><path fill="#0d131a" d="M148 209.95l.95 2.65q-20.35 16.25-24.6 32.9-4.15 16.05 6.65 32.75 8.05 12.35 11.5 21.4 3.45 9.1 3.05 16.85-.3 5.75-2.85 8.65-2 2.3-4.75 2.35-2.65.1-5.05-2.5-2.8-3-2.95-7.7-.3-7.85-3.25-15.5-3-7.9-9.2-16.6-7.35-10.35-8.2-22.75-.85-11.55 3.95-23.45 4.55-11.45 13.45-21.2 8.9-9.75 20.3-15.9l.4 2.4q-10.7 5.85-19.05 15.25-8.25 9.35-12.5 20.3-9.5 24.5 4.1 43.75 12.5 17.55 13 33.4.1 2.95 1.55 5.05 1.45 2.1 3.6 2.15 1.75 0 3-2.05 1.3-2.25 1.5-5.95.4-7.55-2.85-16.05-3.2-8.35-11.1-20.55-11.8-18.15-6.75-35.7 4.95-17.2 26.1-33.95"/><path fill="#958c87" d="M149.4 181.65l5.45 1.5q-13 11.9-17.15 26.6-4.95 17.5 2.35 39.85 2.55 7.8 7.95 18.4 4.95 9.6 10.5 18.3 2.2 3.45 2.35 6.35.1 2.9-1.8 4.65-1.8 1.65-4.8 1.25-2.7-.4-4.55-2-6.25-5.75-13.05-17.5-6.55-11.35-9.85-21.6-7.85-24.55.3-46.4 6.85-18.4 22.3-29.4"/><path fill="#766e6a" d="M139.8 190.35q6.2-6.65 10.6-9.75l4.55 2.7q-3.8 2.95-8.65 9.6-4.3 5.9-6.4 10.35-1.1-1.9-4.35-1.95-3.55-.05-5.9 2.5 3.05-5.8 10.15-13.45"/><path fill="#0d131a" d="M147.9 181.45l1.75 1.2q-21.2 16-24.85 41.4-2.35 16.3 3.2 33.65 5.6 17.3 18.5 33.85 2.75 3.55 5.9 5.05l5.15.15q2.3-1.6 1.9-4.45-.35-2.75-3.25-7.05-11.2-16.75-16.7-32.9-5.3-15.55-4.95-29.55.6-22.8 18.3-39.3l1.85 1.3q-16.65 15.25-17.6 38-.6 15.5 6.6 33.45 5.4 13.5 14.95 27.7 7.05 10.55.25 15.25-3.2 2.2-7.55 0-3.65-1.85-6.95-6.05-13.05-16.8-18.85-34.85-5.85-18.15-3.45-34.65 3.7-25.35 25.8-42.2"/><path fill="#00b8ee" d="M324.05 83.05q7.1 1.9 13.25 7.7 5.45 5.15 6.9 9.95 3.2 10.5-2.65 21.75-4.85 9.45-14.05 16.5-11.95 9.2-32.85 13.3-18.4 3.6-35.4 2-5.3-.5-9.85 1.5-3.15 1.35-8.85 5.5-2.45 1.7-4.55 1.8-1.6.05-3.55-.95-1.6-.85-5.15-3.85-3.3-2.75-6.45-5.85-5.35 4.2-18.05 11.85-10.8 6.5-19.15 10.9-5.65 3-13.05 2.45-6.35-.45-11.75-3.25-6.05-3.15-20.65-16.25-3.05-.25-7.8 2-2.55 1.25-6.45 3.75-2.25 1.5-4.55 1.85-2.4.4-3.95-.55-1.75-1.05-9.8-4.4-8.55-3.55-12.35-4.65l-11.65-2.7L66.8 150q-7.5-2.05-14.5-8.1-7.4-6.35-8.8-12.75-1.8-8.3 4.5-16.1 5.95-7.45 19.95-15.35 2.15-1.2 4-3.4 1.65-1.95 2.55-4 1-2.2 2.8-4.1 2.15-2.3 3.8-2.2l68.15-63.5q.9-3.15 2.9-5.3 6.15-7 23.5-11.75 7.6-2.15 16.55-1.9 6.95.15 11 1.4 4.7 1.4 6.45 6.85l78.6 41.65q4.1 2.9 7.75 11.05 3.55 8.15 12.2 13.75 6.7 4.3 15.85 6.8"/><path fill="#ba0031" d="M260 12.15q19.75 11.35 26.3 32.4 6.85 22.1-5.85 41.3-10.5 15.9-31.45 16.45-19.85.5-38.8-12.6-9.3-6.4-14.7-16.6-5.05-9.55-5.85-20.75-.8-10.9 2.65-20.85 3.55-10.3 10.9-17.1 10.25-9.5 27.35-9.75 16.05-.2 29.45 7.5"/><path fill="#990024" d="M267.05 41.1q10.3 7.75 14.55 18.7 4.55 11.75.65 24.05-7.15 9.8-18.05 14.6-10.3 4.55-22.2 3.95-11.7-.6-22.45-6.1-11.1-5.7-18.85-15.5-6.75-15.1-1.55-27.85 4.95-12.2 18.95-18.2 12.4-5.25 25.95-3.25 12.75 1.9 23 9.6"/><path fill="#00a0cf" d="M84.85 88.5q2.85 9 10.7 13.7 7.65 4.55 17.7 3.75 10.4-.85 20.35-7.25 10.85-7 18.8-19.3-12.05 20.4-31 28.85-20.25 9-36.9-1.5-4.5-2.85-6.9-5.3-3.65-3.8-4.85-8.6 2.35-3.85 4.4-6.05 2.5-2.65 4.3-2.5 2.1.2 3.4 4.2M205.9 3.75q1.4.9 2.45 2.8 1.05 1.9.95 3.45-10.3 5.75-15.55 15.85-7.1 13.7-4.65 34.75-6.2-17.45-1.85-32.85 4.45-15.95 18.65-24m79.8 71.65q5.1-13.7 2.1-24.6 3.95 2.5 6.9 8.7l3.45 7.25q1.1 11.6-5.95 23.5-6.5 11.05-16.5 17-22.95 13.75-47.8 1.3-10.85-5.45-19.9-15.25-8.8-9.55-14.15-21.4 15.85 23.4 39.1 28.9 20.8 4.9 38.05-5.65 9.5-5.85 14.7-19.75m55.5 48.05q-6.1 11.1-17.35 17.8-11.8 6.95-27.95 10.9-19.4 4.75-36.2 2.4l-7.05.35q-3.8.8-6.3 2.6-8.6 6.05-10.7 5.95-2.55-.2-7.25-4-3.6-2.9-7.55-7.05 3.15-3.4 7.95-3.85 5-.45 8.95 2.7 10.6-8.8 20.05-6.75 13.55 2.95 28.55 1.2 14.7-1.7 27.4-7.45 13.1-6 21-15Q343.2 113.6 344 102q3.7 9.65-2.8 21.45"/><path fill="#ba0031" d="M136.7 17q7.8.7 12.6 4.2 3.65 10.2 4.9 15.25 2.85 11.4 2.35 22.2-.55 13-7.5 24.05-6.85 10.9-18.25 17.4-9.6 5.45-19.15 5.9-8.45.35-15.7-3.1-5.85-2.75-9.8-8.1Q82.6 90 81.1 84q-2.95-12.8-.05-24.55Q83.7 48.7 91.8 37q9.7-13.9 28.85-18.6 8.45-2.1 16.05-1.4"/><path fill="#00a0cf" d="M64.9 148.35q1.15-1.4 2.95-1.65 1.9-.3 12.45 1.45 11.05 1.85 16.2 3.6l8.95 3.15q7.15 2.45 8.95 2.65 1.35.15 8.45-4.55 6.6-4.3 7.35-3.2l3.85 4.95q2.3 3.4.1 3.6-1.95.15-8.1 4.35-6.3 4.25-7.5 4.45-1.75.25-9.6-3.45-5.85-2.75-9.8-5-1.45-.8-17.15-4.15-15.7-3.3-17.15-4.15-1.1-.65.05-2.05"/><path fill="#0d131a" d="M168.3 99.5q6.3-1.05 11.5 2.65t6.25 10q1.1 6.35-2.9 12.25-4.05 5.9-10.3 6.95-6.1 1-11.2-3.35-4.85-4.25-6-10.75-1.05-6.3 2.65-11.5t10-6.25"/><path fill="#0d131a" d="M206.4 86.65l3.05 2.55q-7.3 3.05-15.35 9.85-6.65 5.6-11.3 11.4-.8 1.05-1.85.4-1.1-.65-.35-1.6 3.85-5.15 10.2-10.8 6.95-6.2 15.6-11.8m-53.15 8.8l6.1 9.65q.35 1.05.15 1.7-.3.85-1.45-.4-4.75-5.25-8.15-10.25-3.55-5.25-4.6-8.65-.3-.9.55-2.1.85-1.15 1.15-.05.25.85 6.25 10.1m14.45 33.8q.45-3.05 1.95-1.85 1.45 1.2 1 4.35-1.45 9.65-.95 25.75.5 15.8 2.15 19.15 1.05 2.1-.35 1.85-1.45-.25-2-2.2-2.75-9.65-3-24.25-.25-12.45 1.2-22.8"/><path fill="#990024" d="M121.5 38.3q18.65-5.15 33.85 8.7.95 4.8.9 11.05-.1 5.95-.95 9.15-7.2 26.4-28.55 35.55-8.6 3.7-17.6 3.55-8.4-.15-14.3-3.45-5.55-3.05-9.4-11.35-1.9-7.95 1.4-18.25 2.85-8.9 8.25-16.2 10.65-14.4 26.4-18.75"/><path fill="#db8f86" d="M93.4 40.55q3.5-4.95 7.9-7.1 4.35-2.15 7.1-.25 2.7 1.9 2.15 6.8-.55 4.85-4.05 9.8-3.55 4.95-7.9 7.1-4.4 2.15-7.1.25-2.7-1.9-2.15-6.75.55-4.85 4.05-9.85"/><path fill="#0d131a" d="M278.05 24.8q14.4 16.8 12 39.55-1.05 9.9-5.35 18.25-4.35 8.35-10.95 13-16.5 11.7-37.55 7.6-19.1-3.7-33.65-18.1-8.75-8.65-12.7-20.3-3.7-10.95-2.5-22.4 1.15-11.3 6.8-20.3Q200 12.65 209.4 7.95q15.9-7.95 33.85-4.4 20 3.95 34.8 21.25m3.05 56.75q4.05-7.6 5.1-16.75 2.6-21.5-11.2-37.7-13.55-15.85-32.6-19.7-17.25-3.55-31.7 3.7-8.8 4.4-14 13.65-4.8 8.65-5.6 19.65-.75 10.8 2.6 20.95 3.5 10.55 10.6 17.5 13.2 12.95 31.7 16.6 20.4 4 35.6-6.55 5.6-3.9 9.5-11.35"/><path fill="#db8f86" d="M222.85 19.5q5.15 3.15 6.7 8.9 1.5 5.7-1.5 10.65-3.05 4.9-8.85 6.15-5.75 1.25-10.95-1.9-5.15-3.15-6.7-8.85-1.5-5.75 1.5-10.7 3.05-4.95 8.85-6.2t10.95 1.95"/><path fill="#ba0031" d="M168.2 102q5.15-.85 9.35 2.15 4.25 3 5.15 8.15l.1 1.45q.25 4.9-2.95 9.15-3.2 4.35-7.95 5.1-4.8.8-8.95-2.6-4.15-3.45-5.1-8.9-.85-5.15 2.2-9.4 3-4.25 8.15-5.1"/><path fill="#990024" d="M168.4 111.85q4.15-2.4 8.3-2.05 4.15.4 5.85 3.3l.25.65q.25 4.9-2.95 9.15-3.2 4.35-7.95 5.1-4.8.8-8.95-2.6l-.45-.7q-1.7-2.9.05-6.7 1.7-3.8 5.85-6.15"/><path fill="#db8f86" d="M168.1 112.65q-1.3 2.05-3.45 2.8-2.1.7-3.75-.35-1.7-1.05-1.9-3.25-.25-2.25 1.1-4.35 1.3-2.05 3.45-2.8 2.1-.7 3.75.35 1.7 1.1 1.9 3.3.25 2.25-1.1 4.3"/><path fill="#0d131a" d="M205.4 2.2q2 .65 3.45 2.4 1.6 1.9 1.55 4.15l-2.6 1.2q-.1-1.85-1-3.25-.95-1.4-2.55-1.9-11.95-3.6-25.65-.65-11.35 2.5-22.1 8.95-3.35 2.05-4.75 4.45-1.35 2.25-.6 4.15 5.9 15.3 6.6 30.35.95 21.35-9.7 35.25-9.4 12.25-23.5 17.45-14.8 5.4-27.9.25-3.65-1.4-8.05-5.65-4.8-4.55-6.9-9.2l-1.5-3.85q-.5-.85-2.05.9-1.25 1.4-4.65 6.75-2.05 3.3-7.6 6.4-13.9 7.8-18.7 16.3-6.3 11.15 3.95 22.25 6 6.5 17.1 9.95 5 1.55 21.4 4.55 6.35 1.2 17.45 5.95 10.2 4.4 11.35 4.4 3.15 0 8.5-3.55 5.3-3.5 10.55-3.4 1.15 0 2.35 1 1.2 1-.35 1.15-6.9.6-13.1 5.1l-4.05 2.9q-2 1.25-3.75 1.15-1.1-.05-11.6-5.3-10.9-5.4-18.8-6.5-14.75-1.95-25.35-6.2-11.05-4.45-15.9-10.75-9.05-11.7-3.05-23 5.15-9.7 20.8-18.3l4.05-2.5q1.8-1.4 2.7-3 .95-1.8 2.4-3.95 1.5-2.25 2.5-3.35 2.7-3.05 4.8-1.7 1.65 1.05 3.5 5.3 1.95 4.4 5.8 8.2 3.65 3.55 7.35 5 11.5 4.5 25.35-.3 13.9-4.85 22.45-16.35 9.9-13.35 9-33.35-.6-13.2-5.85-28.5-2.15-6.4 5.75-11.85 10.55-7.35 23.35-10.25 14.7-3.3 27.55.75"/><path fill="#0d131a" d="M204.3 3.5l2.9 1.75q-2.55.85-5.75 3-2.75 1.85-5.15 4.05-1.15 1.05-1.6.65-.4-.4.6-1.6 1.65-2.05 4.45-4.45 2.7-2.35 4.55-3.4M74.9 91.05q-.95 3.45 2.2 7.8 2.35 3.3 5.85 5.75 7.4 5.3 16.6 6.35 1.8.2 1.65 1-.15.75-1.9.65-9.7-.4-17.85-6.1-4.15-2.9-6.6-6.25-2.7-3.65-2.75-7.15l2.8-2.05m216.1-.1q1.2-1.6 1.75-1.25.5.35-.4 1.9-7.65 13.25-23.05 20-14.65 6.4-25.9 2.85-1.45-.45-1.3-1.05.1-.6 1.6-.3 10.65 2.2 23.9-3.55 14.25-6.25 23.4-18.6m2.65-31.45l5.6 7.9q.45 3.85-1.25 10.4-.4 1.45-1 1.4-.6-.05-.4-1.65.5-4.7.3-7.35-.45-5.4-3.25-10.7M136.7 18.75q-7.25-.65-15.65 1.6-18.45 5-28.3 17.95-7.3 9.7-10.05 21.05-2.7 11.05-.55 21.8 2.05 9.85 8.1 16-.6.5-1.65.4-2.05-.15-4.15-2.95Q81.1 90.2 79 82.45 76.25 72 79.15 59.7q3.05-12.75 11.2-23.2 11.2-14.35 29.75-19.5 18.15-5 29.5 2.35l-.75 4q-4.5-3.9-12.15-4.6"/><path fill="#0d131a" d="M324.35 81.35q9.3 2.8 14.9 8.25 6.1 5.9 7.45 14.65 2.65 17.85-13.8 32.3-16.05 14.05-42.1 18.05l-15 1.45q-9 .4-17.3-.25-7.35-.6-14.75 5.4l-5 3.85q-2.6 1.55-4.85.95-2.35-.65-6.9-4.8l-8.3-8.25q-.6-.6 1.1-1.4.85-.4 1.85-.65 3.75 4.25 7.6 7.2 4.3 3.3 6.35 3 .95-.15 10.4-5.15 8.1-4.3 12.65-3.25 6.2 1.45 19.05.45 15.5-1.15 28.8-5.5 37.65-12.35 36.8-42.8-.2-6.7-6.25-12.5-5.4-5.15-12.4-7.2-9.85-2.85-17.7-8.15-9.05-6.1-11.4-13.1-.8-2.3-2.6-5.25-1.95-3.15-4.05-5.3l-.55-4q2.7 2.1 5.8 6.5 2.95 4.2 3.8 6.9Q300 69.1 308.2 74.3q6.65 4.25 16.15 7.05"/><path fill="#958c87" d="M188.4 183.8l6.35-.8q11 10.6 17.75 25.15 6.75 14.55 8 30.4 1.15 14.3-3.6 29.55-5.05 16.05-15.05 27.55-3.75 4.35-7.45 4.75-3.25.4-5.6-2.15-2.25-2.5-1.9-6.4.35-4.2 3.6-7.9 6.6-7.6 10.95-17.55 5.1-11.75 6.15-25 1.1-13.2-5.45-31.1-5.75-15.65-13.75-26.5"/><path fill="#766e6a" d="M189 184.6l6.4-.8q3.35 2.85 8.5 10.05 4.8 6.65 6.95 11.05-3.15-2.65-6.45-3.75-3.55-1.2-6.2-.35-5.1-10.5-9.2-16.2"/><path fill="#0d131a" d="M187.9 185.05l2.5-.45q35.85 55.6 1.95 98.95-3.5 4.5-3.85 8.45-.3 3.6 2.1 5.75 1.85 1.65 4.75.6 3.1-1.1 6.6-5 6.85-7.6 11.5-19.45 5.2-13.15 5.85-27.35 1.6-35.65-25.1-62.55l2.15-.6q27.05 27.45 25.35 64.2-.7 14.6-5.95 28.1-4.75 12.1-11.7 19.85-9.1 10.15-15.5 4.55-3.55-3.15-3.05-7.9.5-4.6 4.8-10.15 16.7-21.65 16.15-45.5-.6-23.95-18.55-51.5"/><path fill="#0d131a" d="M185.5 186.35l-9.65.5-18.55-.75q-8.8-1.25-16.5-8.55-7.55-7.25-11.2-17.65l3.2-1.85q3.75-1.3 6.55 1.25 6.35 5.65 16.25 11.5 11.25 6.7 16.9 7.1 7.85.55 28.5-12.6 10.3-6.55 19.05-13.2l7.9 6.35q-.1 2.7-2.65 6.8-2.9 4.75-7.7 8.9-12.9 11.1-32.1 12.2"/><path fill="#fff" d="M188.4 172.65l31.95-19.3q1.2 12.95-10.65 18.75-10.45 5.1-22.6 1.95-.35-.1.05-.45l1.25-.95m-52.55-16.35l15.25 11.6q10.25 7.95 9.85 8-10.35 2.35-16.8-1.55-7.9-4.7-8.3-18.05"/><path fill="#0d131a" d="M206.35 163.75q-.2-.95.35-1.7.6-.8 1.55-.95.95-.15 1.7.4.8.55.95 1.5.15.95-.4 1.7-.55.8-1.5.95-.95.15-1.7-.4-.8-.55-.95-1.5m-61.35 4.8q-.15-.75.35-1.35.45-.65 1.3-.8l1.5.3q.65.45.8 1.2.1.75-.4 1.4-.45.6-1.3.75-.8.15-1.45-.3-.7-.45-.8-1.2"/><path fill="#00b8ee" d="M163.6 176.05q1.45.2 5.4 1.65 3.85 1.1 6.45-.05 5.15-2.25 8.5-.95 3.15 1.25 2.9 4.7-.35 4.6-5.5 22.75-3.85 13.6-1.25 34.7 1.5 12 5.85 35.25l3 11.15q3.45 12.4 6.4 26.9 1.65 7.6-1.25 8.9l-3.5-.25q-2.3-.9-4.4-2.85-7.85-7.35-19.7-23.75-11.45-15.85-11.4-18.65 0-11.65-4-44.8l-3.8-31.5q.3-1.75 7.35-12.35 7.3-11.05 8.95-10.85"/><path fill="#00a0cf" d="M162 175.4l2.8 1.3q1.25.65 2.45.8 3.1.45 14.55-1.35 2.9-.45 4.5 4 1.55 4.45-.05 8.25-1.6 3.7-4.35 17.1-2.75 13.6-2.55 17.55.2 5 2.65 24.8 2.2 17.75 3.4 25.5.95 6.1 7.1 27.7 4.85 18.9 1.25 20.5-4.45 2-23.95-22.5-7.75-9.75-12.5-17.3-5.15-8.15-3.65-8.85.85-.4 2 1l2.4 3.3q3.6 4.85 7.5 3.5 4.15-1.4 8.2-5.6 5.1-5.3 4.05-10.4-1.8-8.65-2.85-23.95-1.3-19 .35-29.95.65-4.3 2.65-10.1 1.85-5.3 2.05-8 .4-4.1-5.65-7.2-5.6-2.9-10-2.15-3.55.65-7.95 4.1-3.75 2.95-6.05 6.1-4.1 5.6 3.45-7.6 6.45-11.2 8.2-10.55"/><path fill="#0d131a" d="M163.25 175.65q1.6 1.4.15 2.7-4.3 3.75-9.15 11.55-4.4 7.15-5.05 10.45-.2 1.1 1.35 13.05l3.05 24.8q1 9.65 2.05 24.45.85 12 1.1 13.05 1.1 4.75 15.75 23.3 13.6 17.25 16.1 19.05 3.3 2.35 4.7 1.5 1.25-.75 1-4.2-.1-1.7-5.05-20.15-5.1-18.95-5.7-24l-2.05-12.65q-1.7-10.4-3.05-24.55-.95-9.9-.35-16.55l1.4-10.85q.2-1.65 1.95-8.95 1.85-7.8 2.95-10.9.95-2.7-.05-5.45-1.05-3-3.9-4.1-1.9-.75-.3-1.8 1.65-1 2.7-.3 3.4 2.35 4.75 5.7 1.15 2.85.6 5.65l-2.35 8.15q-2.35 7.7-3.45 12.45-2.65 11.4-.5 30.3 1.2 11 4.75 34.65.2 1.65 4.95 20 4.8 18.7 5.25 21.5.85 5.5-.5 7.8-2.05 3.65-9.15-1.2-3-2.1-17.75-20.55-15.5-19.4-16.6-23.8-.3-1.25-.45-12.5-.2-13.4-1.05-22.5-.85-8.9-3.65-25.3-2.3-13.65-2.2-16.35.15-2.85 8-14l7.85-10.6 1.9 1.15"/><path fill="#0d131a" d="M182.95 174.2q8.55-4.55 20.45-12.05 11.8-7.45 17.4-11.8 8-6.3 14.95-2.3 2.45 1.45 2.7 3.15.2 1.75-2.55 0-2.7-1.75-6.1-1.55-3.75.2-6.8 2.8-6.8 5.9-20.3 14-9.55 5.7-18.2 10.1-5.3 2.65-11.55 2.8-7.1.15-13.85-3.05-6-2.85-13.9-9.75L131.7 154q-1.05-.95-2.95-1.45l-5.5-.55q-2.4-.1-2.25-1.1.2-1.05 2.95-1.25 4.7-.35 6.45-.1 2.65.45 4.45 2.6 2.5 3.05 9.7 9.35 8.2 7.25 14.1 11 5.35 3.4 11.8 4 6.95.6 12.5-2.3"/></svg>