<svg xmlns="http://www.w3.org/2000/svg" width="458" height="215" viewBox="-0.2 -0.2 458.0 214.95"><path fill="#dbd2a9" d="M87.25 69Q90.3 74 93 80.15q1.25 2.85.7 8l-1 7.35q3.9-.2 7.1 6.85 2.5 5.4 2.85 9.6.15 1.85-3.3 6.55-4.2 5.7-5.2 8.25-1.6 3.95-7.05 6.9-4.75 2.6-10 3.3 1.45 2.95 5.55 4.15l8.95 1.8q4.55.95 14.65 10.55 8.55 8.15 12.3 13.35 2.4 3.3 3.85 7l2.15 6.6q3.2-1.75 3.15-6l-.9-5.65q-.2-1.45 2-4.25l4.55-5.1q3.8-4.15 10.6-5.25l14.6 29.1q-1.75 2.45-13.85 8.4l-14.5 6.95q-2 1.1-2.9 3.75-.85 2.45-1.9 2.8-2.7.9-6.6.15-4.1-.75-7.6-3-2.65-1.7-7.25-1.7l-12.35-.85q-16.85-5.7-33-22.05-5.05-5.1-9.4-10.65l-3.35-4.55q-.35-.85-1.25-1.75-1.75-1.75-4.45-1.9-3.05-.2-12.15-7.4-8.75-6.9-14.55-13.35-4.65-5.2-7.4-15.5l-3.4-15.45q-1.4-5.9-.4-9.75.9-3.3 4.5-7.85Q9.95 85.6 13 83.9q2.4-1.35 6.45-2.05-.8-2.25-.6-3.8.4-2.8 4.75-5.7 4.7-3.1 9.5-4.05l6.8.2q.2-1.5 2.45-3.2 2.3-1.7 5.5-2.75 3.1-1.05 7.9-1.1 4.6-.1 7.4.8.6-1.35 6.65-1.65l9.55.25q3.15.35 7.9 8.15"/><path fill="#b3ac8a" d="M75.5 104q-3.55-3.5-4.85-1.55l-3.55 7.3q-1.5 4.1.05 7.25 6.05 6.9 15.2 4.75 8.55-2 11.7-8.95.9-2-3.4-2l-7.35-.3q-2.4-1.2-7.8-6.5m11.35-22.4L91 80.3l2-.15q1.25 2.85.7 8l-1 7.35q3.9-.2 7.1 6.85 2.5 5.4 2.85 9.6.15 1.85-3.3 6.55-4.2 5.7-5.2 8.25-1.6 3.95-7.05 6.9-4.75 2.6-10 3.3 1.45 2.95 5.55 4.15l8.95 1.8q4.55.95 14.65 10.55 8.55 8.15 12.3 13.35 2.4 3.3 3.85 7l2.15 6.6q3.25-1.8 3.15-6.2.8 4.45 4.3 4.75l6.15-.95-4.5 7.35q-3.65 6.15-5.5 6.85l-2.7-.1q-.4-.6-.75-4.1-.2-2.5-6.3-5-9.5-3.95-10.55-4.6 3.25-3.2-.5-9.95-3.25-5.8-10.45-12.25-6.9-6.15-13.05-9.05-6.6-3.1-8.25-.2-2.4 4.2-14.3 4.55l-8.15-.6q-3.6-.75-3.6-2.05 0-16.2-9.1-21.75-4.1-2.5-10.4-2.5 0-1.2 1.75-3.15 1.7-1.9 1.7-3.15 0-3.35-3.65-7.45-3.7-4.1-3.7-5.7 0-1.2 2.4-1.75l5.4-.85q8-1.55 8.65-7.8 4.35.6 8.4-1.8 4-2.35 6.6-7l6.4-.25q7.6-.65 13.9-5.1 2.5 2.75 8.95 1"/><path fill="#b3ac8a" d="M158.55 183.25q-2.2 2.95-20.1 11.4 5.5-7.3 3.3-19.95 3.2-4.35 1.6-9.9-1.75-5.85-7.6-7.55 3.35-2.35 8.2-3.1l14.6 29.1m-67.2 11.6q4.95-1 1.55-8.4-2.55-5.4 2.3-1.35 3.15 2.7 8.75 8.75l5.5 4.85q4.45 4 4.5 5.1l-2.75-1.5q-2.65-1.7-7.25-1.7l-12.35-.85q-7.05-2.35-14.65-7.05 10.7 2.95 14.4 2.15"/><path fill="#dbd2a9" d="M279.65 92.35q3.9 2.5 6.75 8.35 1.4 2.9 2.05 5.3l6.45 4.7q1.95 1.5 6.25 11.95 4.35 10.55 5.2 16l-6 34.1q-4 11.1-7.35 14.8-2.8 3.1-7.4 3.1-2.4 5.7-20.55 13.65-13.7 6-23.55 8.55-4.8 1.25-23.95-.6l-21.45-2.55q-6.65-.95-14.75-6.55-3.55-2.5-9.25-9.6l-4.95-6.6q-9.95-4.25-13.35-4.85-2.35-.4-5.85-7.25Q145 169 143 162.5q-1.35-4.25 3.35-12.65 5.1-9.1 5.1-10.4 0-1.3-2-8.2-2.25-7.8-2.75-10.5-.85-4.6 6.25-13.75 3.8-4.9 10.2-11.8 1.95-2.3 5.65-1.85 1.85.2 3.3.9l7.85-9.75q8.7-10.15 12.8-12.1 4.1-1.95 17.05-1.25l12.15 1.05.75-1.05q1.25-1.3 3.55-2.35 3.5-1.65 16.7-.85 14.35.9 18.2 4.55 1.55 1.45 6.15 11.4l3.85 2.75q4.6 3.25 8.5 5.7"/><path fill="#b3ac8a" d="M222.15 72.15q-2.7 4.95-9.95 12.05-7.5 7.4-7.1 3.65.45-4-.45-8.6T201.8 71l20.35 1.15m-59 23.05q1.95-2.3 5.3-2.1 1.7.15 2.95.7l5.1-5.95q7.05 5.8 10.85 11.5 4.05 6.15 2.95 10-.75 2.7-.1 7.85-.1 2.8-4.5-1.35-10.6-10.05-25.85-16.8l3.3-3.85m8.95 24.75q2.6 1.05 2.7 9.15.1 8.25-3.45 9.2-4.8 1.3-13-8.05-8.1-9.3-6-12.85 1.85-3.2 7.2-2 2.7.55 12.55 4.55m75.35-32.85q2.4-2.65 1.25-9.8-1.1-6.65-3.45-9.2 12.5 1.1 15.9 4.4 1.55 1.45 6.15 11.4l3.85 2.75q4.6 3.25 8.5 5.7 3.9 2.5 6.75 8.35 1.4 2.9 2.05 5.3l6.45 4.7q1.95 1.5 6.25 11.95 4.35 10.55 5.2 16l-6 34.1q-4 11.1-7.35 14.8-2.8 3.1-7.4 3.1-2.3 5.45-19.15 13.15-13.75 6.3-23.2 8.6-5.9 1.45-12.05 1.05l-14.05-1.7q25.55-1.65 24.45-8.9-.4-2.35-3.6-5-2.25-1.85-3.95-2.6-5.25-2.3-8.6-3.2-4.2-1.2-9.15-1.4 10.35-3.85 19.75-11.3 11.65-9.15 6.05-14-11.1-8.45-27.65-5.25-4.05.75-11.8 3.15-6.25 1.9-8.4 1.9-3.8 0-15.25-1.8-9.7-1.55-12.4-.85-2.35.6-3.8 2.85-1.3 2.05-1.3 4.2 0 .95 3 7.95 2.95 6.8 2.65 9.45-9.95-4.25-13.35-4.85-1.4-.2-3.6-3.3-.15-5.4 3.15-12 3.65-7.45 9.15-10.25 2.35-1.25 6.55-.95l12.25 2.05 7.95.65 6.05-.25q3.75-.8 10.75-5.6 6.55-4.5 12.25-5.15 7.05-.8 16.9 3.7 10.55 4.75 15.7 4.75 2.15 0 5.8-2.15 3.75-2.2 6.65-5.2 7.5-7.85 1.75-12.2-2.8-2.1-5.35-7.5l-4.3-10.65q-5.75-14.5-12.45-17.85-4.55 1.4-10.1 4.7-5.8 3.4-14.15 9.75-2.05 1.55-6.1 5.45-3.25 3.2-5.05 4.1-4.9 1.9-7.15-1.2-1.25-3.15-1.7-3.4 2.05.4 13.6-10.55 14.4-13.65 19.4-16.95 4.35-2.85 9.6-3.05 4.55-.2 6.1-1.95"/><path fill="#dbd2a9" d="M455.75 40.4q.95 4.1-.15 18.15-1.2 15.7-4.05 21-6.45 12.05-14.2 22.6-12.95 17.55-24.5 23.15-1.1 1.6-3.1 6.6l-4 9.75q-6.25 13.7-15.05 20.6l-19 15.4q-9.1 7.3-13.65 9-3.15 1.2-14.8 6.55-9.9 4.5-11.65 4.85-2.4.4-6.1-2.65-4-3.3-4.4-7.05-3.15-5.45-9.3-9.8-6.75-4.85-14.85-6.65-8.6-1.9-11.5-3.65-2.8-1.6-3.25-4.85-.45-1.85-.8-4.6-.8-5.5-.55-9.95.75-13.1 7.8-14l14.3-.45q5 1.15 6.8 6.55 1.9 5.7 5.6 10.75 3.7 5 6.9 6.3 2.65 1.05 5.15.5 1.25-.3 1.95-.8 1.3-6.9 3-14.3 3.5-14.85 5.8-17.5 3.7-4.3 22.7-19.35-4.25-2.75-8.3-6.55-8.15-7.6-7.3-12.75-.4-1.55-3.2-4.65l-5.45-6.05q-7.15-8.65-5.25-15.45 2.6-9.5 6.3-13.9 2.6-3.1 7-4.65-2.1-8.15-2.4-11.95-.55-5.7 1.6-8.95 2.4-3.75 12.2-11.7Q366 1.9 369.1 1.45q4.25-.55 9.35-.1 6.35.5 7.7 2.4l6.1-1q4.45-.25 9.55 1.55 5.55 2 8.65 4.8 2.7 2.45 2.7 4.6l5.4-.05q3.9.2 7.95 2.3 6.2 3.25 8.65 5.25 3.7 3.1 3.5 6.55 3.5.45 9.45 4.4 6.75 4.4 7.65 8.25"/><path fill="#b3ac8a" d="M448.1 40.3q2.3-1.55 5.05-1.2 2.35.3 2.6 1.3.95 4.1-.15 18.15-1.2 15.7-4.05 21-6.45 12.05-14.2 22.6-12.95 17.55-24.5 23.15-1.1 1.6-3.1 6.6l-4 9.75q-6.25 13.7-15.05 20.6l-19 15.4q-9.1 7.3-13.65 9-3.15 1.2-14.8 6.55-9.9 4.5-11.65 4.85-1.95.35-5.1-1.85-3.35-2.35-4.75-5.45 4.05 1.45 6.6-.95 3.5-3.3 6.6-3.75 8.1-1.35 14.35-3.45 9.2-3.1 11.6-7.1l8.45-9.05q6.7-7 9.3-11.05l7.05-12.1q3.5-6.35 6.45-10.35l4.8-7.95q1.85-3.25 4.35-4.15 4.2-1.55 5.8-8.2 1.85-7.8-4.3-13.65-6.25-6-14-7.25-6.3-1-10.9 1.1-5.15-6.65-11.55-8.15-6.85-.65-10.3-2.2-4.35-1.95-7.5-5.8l-2.25-3.45q12.8 4.25 22.35-3.1 3.9-3.05 6-7.3 2.05-4.15 1.7-8-1.65-.45-7.15-5.8l-7.4-7.2q-1.7-1.5-9.8-.4l-7.85.4q-.85-2.55-1.85-8.15-1.05-6.25.7-3 1.9 3.55 9.25 4.2 7.05.6 9.55-1.9 3.35 4.3 9.45 6.8 6.5 2.65 12 1.25 4.8 5.9 10.4 7.6 4.55 1.35 10.7.1.3 6.1 10.2 9.75 4.1 1.45 7.35 1.3 3.5-.2 4.35-2.25 1.45-3.6 10.5-9.9 4.75-3.3 11.35-7.35"/><path fill="#b3ac8a" d="M328.7 159.2q5 .55 7.4 0 1.3-.3.9.9-.4 1.15-2.05 2.7-4.5 4.2-10.4 4.45l-13.95-.75q-8.25-1.9-15.25-8.35 7.4-3.7 1.35-13.6-3.15-4.75-4-6.5-1.4-2.9.8-3.4 13.15-2.9 16.25 6.3 1.9 5.7 5.6 10.75 3.7 5 6.9 6.3 1.9.75 6.45 1.2m37.9-48.85q6.15 3 9 3.2 1.7.15 1.9 1 .15.8-1.05 2.8l-9.1 13.9q-5.45 6.2-15.3 15.8-9.85 9.6-7.15 6.05 13.65-18 9.35-27.85-1.35-3.1-4.35-5l-2.7-1.3 13.8-11.5 5.6 2.9"/><path fill="#fff" d="M207.45 124.15l12.9-10.45q12.65-10.15 18.25-12 5.1 2.9 6.55 14.2 1.35 10.8-1.7 16.7l-16.3-1.25q-13.55-1-16.9-.05-.95-1.9-2-4.7l-.8-2.45m-24.7 9.6q-2.7 2.25-11.7 4.9l-8.45 2.15q-2.15-3.1-3.8-7.7-3.25-9.25-.55-16.95 3.3-.85 12.45 3.45 7 3.25 11.6 6.4.6 1.2.7 3.35.15 2.25-.25 4.4"/><path fill="#0d131a" d="M70.05 71.7q-6-7.35-7.25-8.15-1.55-1-6.3-1.1-4.95-.1-8 .9-2.45.85-4.55 2.25-1.75 1.25-2.5 2.3 4.9 2.5 10.15 6.45 6.65 4.95 7.9 8.2 1.05 2.8 2.45 8.9 1.65 6.95 2.15 11.4.6-2.4 1.35-4.15 1.65-3.85 4.45-5.1 2.25-1.05 5.55-.45l.65-5.1.35-6.75q0-1.75-6.4-9.6m-36.2-2.2q-4.55.9-9.5 4.2-2.4 1.6-3.55 3.85-1.1 2.05-.45 3.2l4.5 1.05q2.45.7 11 7.2 8.4 6.45 9.6 8.4 1 1.6 1.75 7.25.75 5.6.5 9.95l3.2.5 4.55-.35q1.5-.45 3.1-2.7 1.35-1.9 2.35-4.5.7-1.65-.8-11.1-1.45-9.25-2.9-13.05-1-2.65-7.55-7.5-5.9-4.35-10.2-6.25l-5.6-.15M91.7 96.7l-5.15.35-8.4-.7q-4.1-1.3-6.3-.4-2.3.9-3.85 4.55-2.05 4.75-1.45 9.65.8 6.1 5.9 9.35 4.45 2.85 9.7 1.85 3.9-.75 7.75-3.5 2.95-2 3.4-1.15.45.8-1.75 3-4.05 4-9.9 4.75-6.3.85-11.75-2.65-6.45-4.15-6.55-12.8-1.3 2.65-2.95 4.75-2.2 2.75-4.25 3.35l-4.2.85q9.1 3.1 9.95 7.15.65 2.7 1.2 7.35.95 7.25-.05 9.15-1.55 2.95-1.75-4.8l-1-4.45-1.4-5.4q-.3-1.55-3.45-3.9-3.65-2.75-8.55-4.3-1.25 2.7-4.5 4.35-2.4 1.2-7.3 2.4-4.85 1.15-9.25-1.75t-4.3-7.3q-3.55.35-6.4-2.2-2.1-1.85-3.2-4.5-.8-2-.75-3.4.1-1.4 1.1.3 1.75 2.9 3.95 4.95 3.25 3.1 6 2.3l.55-1.05q.7-1.1 1.5-1.3.7-.2.4.55-.7 1.6-.55 3.35.35 4.2 4.3 6.45 3.4 1.95 6 1.25 9.6-2.6 10.5-6.1.8-2.9.1-10-.7-6.8-1.65-8.35-1-1.6-9-7.7-8.15-6.25-10.2-6.85l-2.65-.85-2.05-.25q-6.45 1.75-10.8 6.4-5.1 5.45-5.4 13.25-.05 1.25 1.75 9.8 1.7 8.6 3.15 13.1 2.4 7.5 6.15 11.7 4.8 5.35 11.75 11.15 7 5.85 11.25 8.15l4.3 1.7q3.65 1.6 5.25 3.6l4.5 5.25q5.25 5.9 10.7 11.1 17.2 16.45 29.55 19.95 3.1.85 7.25 1.1l5.7.1q-7.3-5.5-2.85-3.75 4.1 1.6 7.8 4.05 4.1 2.6 7.45 3.9 4.05 1.6 6.1.9l1.5-.75q1.2-.75 1.45-1.5.55-1.6 1.05-2.4.95-1.45 2.55-2.35l5.8-2.95 12.8-6.15q8-4.1 9.3-5.85l1.95 1.4q-1.75 2.45-6.55 5.15-5.5 3.1-16.3 7.25l-5.85 3.3q-.6.35-1.8 2.85-1.25 2.55-3.25 3.8-2.55 1.6-7.15.55-4.1-.95-8.1-3.55-1.6-1-3.4-1.3l-4.1-.2-4.85.1-6.75-.95Q81 198.2 69.55 189.7q-14-10.45-24.7-26.5-.9-1.4-3.9-2.65-3.45-1.25-4.75-1.9Q31 156 23.25 149.9 15.6 143.85 11.2 139q-3.95-4.4-6.35-13.1-.8-2.85-3.05-14.4-1.75-8.85-1.8-10.25Q-.2 94 6.7 87.4q5.5-5.35 10.1-6.35-.45-1.2.7-3.75 1.6-3.85 6.05-6.4 8.15-4.75 15.5-3.75 2-3.9 6.9-5.55 3.85-1.25 8.9-1.65 5.8-.4 8 .95 2.2-1.6 9.8-1.6l7.3.35q3.65.4 9 8.95 3.3 5.3 6.2 11.8.9 2.1.9 5.1 0 1.45-.95 5.05l-1 3.85q3.55.85 6.95 7.4 3.35 6.4 2.75 10.85-.35 2.65-1.35 4.25l-2.6 3.35-2.6 3.45q-1.35 1.9-2 3.5-1.6 4.05-7.15 7.05-4.6 2.45-10.4 3.5 3.2 2 7.9 3.1l7.4 1.4q4.85 1 14.85 10.8 7.9 7.75 11.7 13 2.2 3.05 3.6 6.35.8 1.9 2 5.85l.05.15q1.25-1.4 1.25-3.8l-.4-2.45q-.45-1.95-.45-3.25-.05-1.7 1.75-4.5 1.7-2.75 4.65-5.7 2.65-2.7 6.15-4.2 2.75-1.15 6.9-1.9l-.9 2.75q-3.05.5-5.8 1.9-2.45 1.25-4.1 2.95-6.4 6.75-6.25 8.4l.5 5.25q.1 5.45-2.1 6.6 2.05 2.2.75 2.55-1.15.35-2.55-.6-.85-.55-1.7-3.3l-.7-2.6-1.55-4.3q-.85-1.6-3.05-4.7-3.6-4.95-12.1-13.05-9.95-9.45-14.15-10.35l-3.65-.65q-4.4-.75-6.95-1.75-3.25-1.2-5.05-3.25-4.15 2.15-4.45 1.8-.2-.15 1.2-2.1.95-1.25 2.8-1.95l1.7-.45q5.1-.7 9.65-3.15 5-2.75 6.4-6.3 1.1-2.8 4.85-7.8l2.5-3.65q1.15-1.85 1.1-2.8-.3-3.7-3.25-9.2-3.4-6.3-6.5-6.15m.95-10.55q.15-3.45-.75-5.5-3.2-7.3-6.65-12.55-3.8-5.8-6.05-6.05l-7.9-.3-6.15.65q3.9 3.75 8.2 9.25 5.55 7.05 5.55 9.65l-.3 6.3q-.35 4.45-.8 6.1l1.1.35 10.55.4 2.2-.15.3-2.25.7-5.9"/><path fill="#0d131a" d="M74.6 145.75q-.6-1.6.9-.7 1.55.95 1.9 2.15.25.95 4.75 6.5l7.85 9.6q3.3 4.05 3.2 4.5-.05.35-3.15-1.7-2.6-1.8-8.85-10.35-5.8-7.9-6.6-10m-16.85 10.3q-1.45-.95-1.05-1.7l2.2-.1q1.9.75 10.25 7.45 8.45 6.75 10.2 9.05 1.9 2.4 1.75 2.65-.15.25-2.8-1.7-18.65-14.45-20.55-15.65m42.7 20.6q-1.2-1.4-1.05-1.95.2-.55 1.9.7 1.65 1.2 5.25 2.15l5.45 1.05q1.95.2 1.85.6-.1.35-2 1-1.8.6-6-.75-4.15-1.35-5.4-2.8M134 178.6l4.2-2.15q2.7-1.55 3.75-2.55 1.35-1.3 1.4-.9l-.6 1.4q-.8 1.15-3.35 3-3.05 2.2-5.1 2.6-2.15.4-1.95-.25.2-.6 1.65-1.15m156.45-29.15q1.5 3.5 4.55 7.2 3.4 4.15 6.7 5.85 2.55 1.3 2.65 1.75.1.45-3-.7-4.15-1.5-8.45-6.75-3.65-4.4-4.2-6.75-.5-2.05.2-2.25.7-.25 1.55 1.65m84.05-32.75q.3-1.3 1.35-.4 1 .95.95 2.75-.15 2.25-11.2 15.35-11.8 13.95-19.05 19.25-1.5 1.15-1.85.35-.35-.8.75-1.75 7.75-6.7 18.85-20.95 9.8-12.65 10.2-14.6m8.5 31.65q.6-3 4.6-10.15 3.65-6.55 5.4-8.55 1.55-1.7 2.9-1.05 1.4.6-.25 2.4-2.05 2.35-5.5 7.8-4.05 6.35-5.4 10.1-1.4 3.9-1.95 3.4-.5-.5.2-3.95"/><path fill="#0d131a" d="M383.75 3.55q-3.85-1.5-14.4-.15-2.7.35-12.35 8.4-9.65 8-12.1 11.8-1.8 2.8-1.5 7.05.25 3 2.05 10.15 11.9-2.95 15.35-.65-1.05-4.5-1.2-9.35-.15-5.25.95-8.45 1.4-3.95 10.5-10.75 7.6-5.65 12.7-8.05m28.05 9.5q-.45-1.6-2.85-3.35-2.75-2-7.6-3.7-4.35-1.55-7.9-1.8l-5.4.4q-5.65 3.35-11.55 7.35Q364.75 20 363.6 23.2q-1.35 3.9-1.05 10.3.3 6.15 1.8 9.65l.05.05 6.35 5.55q3.9 3.2 5.45 3.55 1.1.25 2.55 1.45 1.5 1.15 2.2 2.3-.15-8.65.6-15.8.9-9.05 2.95-12.4 2.2-3.6 12.55-8.85 9.4-4.85 14.75-5.95m21.8 8.55q-2.35-1.8-7.65-4.55-6.85-3.55-17.65.4-5.9 2.25-11.95 5.95-6.9 4.2-8.85 7.4-2.75 4.5-3.8 16.05-.95 11.2.55 17.6 1.4 6.05 6.2 8.9 1.9 1.15 4.6 1.05l5.2-.8q-.55-5.1.3-14.7.95-10.6 2.85-14 1.55-2.8 10.8-8.85 5.9-3.85 13.05-7.85 1.8-1 5.05-1.5l5.05-.25q-.5-2.4-3.75-4.85m23.85 18.1q.35 1.55.35 7.05 0 9.35-.95 18.1-1.2 11.2-3.5 15.4-9.1 17-20.15 30.1-11.65 13.8-19.45 15.85-1.15 1.7-3.5 7.65l-5.25 13.9q-4 8.55-10.7 13.75l-14.6 12q-15.3 12.25-18.7 13.55-.4.15-15.45 6.65-13.35 5.75-14.55 5.95-3.45.65-6.75-2.4-3.45-3.2-4.25-8.35-2.9-4.9-9.25-9.25-7.45-5.1-15.75-6.4-6.5-1.05-9.55-3.3-2.95-2.2-4.1-6.55-.5-1.95-.1-2.55.4-.6 1.35 2.3 1.05 3.1 3.95 4.5 2.45 1.2 10.7 3.05 17.25 3.9 23.75 15.05l.65-1.05q.75-.95 1.2-.6.4.3 0 2.15-.45 2.1-.2 2.85 1.25 3.2 3.9 5.65 2.75 2.5 4.85 2.1l12.5-5.3 13.7-6q3.15-1.2 18.05-12.85l14.3-11.4q6-4.7 10.25-11.75 3.5-5.75 7.8-16.55l2.5-6.85-3.6-1.3q-3.45-1.4-2.4-1.85.9-.4 4.1.05l5.15.35q5-.55 19.5-19.35 12.4-16.1 17.25-25.1 2.7-5.05 3.9-20.6 1.05-14 .15-17.7-1-4.4-9.6-8.5-9.55-4.6-16.65-1.25l-2.45 1.55q-17.2 10.75-19.6 15.05-1.8 3.25-2.55 14.1-.75 10.2.1 13.1 1.05 3.45 7.15 6.05 5.8 2.45 9.3 1.6 3.9-.9 6.9-4.3 3.6-4.2 3.25-9.85l-.3-3.4q0-2.1 1.05-2.35 1-.2 1.6 1.55l.8 2.35q.7.95 3.4.45 3.25-.6 7-3.25l2.6-1.7q.95-.2-.6 3.1-1.3 2.7-4.7 3.85l-7.85.35q-.1 7.55-4.1 12.15-2.9 3.4-6.85 4.3-4.15 1-11.45-1.6-7.75-2.7-9.95-6.75-3.3.6-7.15.15-2.8 1.6-5.95 4.85-3.3 3.35-5.2 6.65-2.85 4.85-3.6 9.75-.7 4.65.7 7.7 1.4 2.9.55 3.25-.8.35-2.75-2.25-2-2.6-1.35-8.65.65-6.25 3.75-11.6 2.1-3.6 5.05-6.4 2.75-2.6 5.55-3.9-1.95-.5-3.7-1.65-2.75-1.8-3.75-4.5-1.2 3.3-4.4 6.15-3.25 2.95-7.55 4.5-3.8 1.4-7.7 1.65-6.1.45-10.85-2.05-3.9-2-6.3-4.65-2.85-3.2-4.2-8-1.3-4.7-.15-5 1.1-.3 2.35 4.1.8 2.75 3.05 5.65 2.5 3.15 5.4 4.65 4.2 2.2 9.95 1.75 3.8-.3 7.25-1.55 4.65-1.7 7.75-4.6 3.2-3.05 3.35-6.15.25-3.7-1.1-7.3-1.35-3.65-3.25-4.3-3.25-1.1-10.25-7.5-6.5-5.9-7.8-5.9-8.55 0-15.35 3.15-3.05 1.45-5.25 4.15-3.5 4.25-5.65 12.05-1.25 4.6 1.9 9.95 1.85 3.1 6.9 8.6l3.3 3.75q1.45 1.85 1.8 3.15l.1.3-.05.25q-.7 4 4.95 9.9 4.15 4.3 8.7 7.1 8.7 5.4 7.95 6.7-.3.45-2.05-.45l-4.2-2.4q-1.45.4-10.25 8.25-8.6 7.7-11.4 10.95-1.9 2.2-5.5 15.1-3.6 12.85-2.9 14.65.5 1.35 2.95.9l3.7-.15q1.55.75-2.6 1.75t-7 .1q-1.4.55-3.55.5-2.4-.15-4-1.05-3.25-1.85-6.9-7.15-3.6-5.35-5.6-11.3-1.2-3.7-5.9-4.8-4.75-1.15-14.65-.1l-2.65-.05q0-.3 2.3-1.55 3.65-2 11.6-1.75 9.7.3 11.55 5.85 1.95 5.9 5.25 11.3 3.6 5.95 6.45 7.1 3.15 1.25 5.55.05 1.25-6.7 3.7-15.8 3.4-12.85 5.75-15.5 3.05-3.5 22-18.6-6.7-3.15-11.3-8.45-4.8-5.55-4.45-10.3l-1.45-2.55q-1.6-2.6-3-4.05L332.65 74q-3.75-4.9-4-9.3-.35-6.05 4.75-14.05 4.65-7.4 8.55-8.9-2.05-7.9-2.05-12.8 0-3.5 2.9-8 2.5-3.9 12.35-11.9Q365.4.7 368.95.25q3.3-.45 8.25-.2 7 .35 9.35 2.35l3.35-1.3q4.65-.7 12.75 1.95 10.85 3.6 11.5 9.4h1.45l5.25.2q3.8.5 7.15 2.25 5.4 2.85 7.9 5.05 3.6 3.15 3.9 6.85 4.65 1.2 10.15 4.75 6.6 4.2 7.5 8.15"/><path fill="#0d131a" d="M192.25 162.3l-12.6-1.6q-9.3-1.6-14.05-1.6-2.75 0-5.05 3.2-2.5 3.45-3.4 9.4 1.35 2.75 10.9 14.85 10.35 13.05 14 15.6 7.8 5.5 14.25 6.3l.55.1q16.95 2.25 29.25 2.9 11.35.6 14.95-.3 9.9-2.6 22.5-7.85 16.6-6.9 20.25-12 1.85-3.6.1-8.2-2.3-6.05-9.7-12.6-6.25-5.55-11.95-8.15-3.4 2.35-5.8 2.35-2.55 0-15.4-6.65-12.85-6.65-18.3-6.65-2.4 0-13.65 5.45-11.3 5.45-16.85 5.45m76.55-73.05q-.65.2-1.9-2.55l-3.55-7.75q-2.4-5.05-3-5.6-3.5-3.3-17.4-4.2-12.85-.8-16.2.75-.9.4-4.3 4l-7.4 7.8q-11.2 11.35-18.2 13.75-3.5 1.2-3.3.75.15-.4 3.65-2.1 4.3-2.1 8.3-5.7 4.3-3.9 14.5-15.2l-14.35-.55q-9.05.15-12.1 1.65-3.45 1.65-10.8 8.95-5.75 5.7-9.4 10.1 2.65 1.6 6.7 3.7 4.8 2.4-.3 1.15-4.25-1.05-8.85-3.3l-2.7-.6q-2.7-.15-4.1 1.7-5.45 6-9.4 10.9-7.6 9.5-6.9 13.4.45 2.55 2.6 10.65 1.75 6.6 1.75 8.4 0 3.25-4.15 11.15t-4.15 10.75q0 3.65 4.25 11.6 4.2 7.75 5.9 8.05 2.65.45 8.9 3l-3.65-4.85q-1.9-2.75-2.65-4.4 0 2-.9 2.05-.7 0-.35-3.55.8-8.05 4-12.45 3.1-4.3 7.9-4.3 2.25 0 11.95 1.9 9.7 1.85 13.6 1.85 4.15 0 15.85-5.65 11.7-5.7 13.95-5.7 5.3 0 18.3 6.25 13 6.2 14.65 6.2 3.05.05 6-1.95l6.4-4.85q1.5-1.05 1.9-.4.35.55-.7 1.8l-5.3 5.3q6.35 3.25 13 9.2 7.95 7.15 10.3 13.4 1.05 2.8-.25 5.65 3.35-.3 6.45-4.15 3.6-4.55 5.85-12.9l2.3.8q-1.45 8.6-6.25 13.6-4.1 4.25-8.7 4.4-3.55 6.3-22.35 15.05-14.3 6.65-21.65 8.55l-25.6-.9-20.65-2.2q-6.05-.85-15.65-7.5-6.85-4.75-16.45-18.1-1.25-.55-4.85-1.6L153.4 183q-2.85-.45-7.3-8.9-4.3-8.25-4.3-12.25 0-4.6 4.35-13.05 4.3-8.4 4.3-9.6 0-2.45-2.4-8.85-2.45-6.6-2.65-9.85-.25-4.75 6-13.8 5-7.3 10.05-12.1 2.75-2.6 4.8-2.85 1.7-.25 5.9 1.05 3.7-5.2 10.15-12 7-7.4 10.15-8.9 4.1-2 14.2-1.7 8.25.3 14.2 1.6l1.65-1.9q1.5-1.4 3.2-2.2 3.7-1.75 17.15-.95 14.9.8 19.15 4.85.95.95 3.1 5.45l2.7 5.85 14.55 9.3q3.75 2.4 5.6 7.25 1 2.55 1.55 5.8l7.05 4.35q2.2 1.35 5.15 8.7 3.3 8.3 4.85 18.5l-2.65-1.25q-.85-5.5-4.55-14.25-3.55-8.3-5.2-9.6l-2.2-1.6q-3.1-1.95-7.6-4-5.25-2.3-4.4-3.05.85-.7 5.9.85 0-2.05-1.25-4.55-1.85-3.55-5.6-5.95-3.5-2.2-6.6-4.5l-3.75-2.7q.75 2.85.15 3.05"/><path fill="#0d131a" d="M183.9 196q.05-1.25 1.05-2.5.9-1.2 1.15-.9.3.3-.55 2.05-.7 1.4.1 3.45 1 2.5 4.05 4.6 1.2.85.95 1.15-.2.3-1.5-.25-2.05-.95-3.65-3.2-1.65-2.35-1.6-4.4m8.65-5.45q-3.25.3-3.25.05-.05-.25 3.05-.95 8.15-1.85 22.5.05 13.15 1.75 17.5 4.35 2.1 1.25 1.9 1.4l-2.25-.6q-8.6-2.9-20.4-4.05-10.8-1.05-19.05-.25m48.45 11.4q-.35-1.1 0-1.45.35-.35.9 1.2.95 2.7-1.1 4.95-1.95 2.05-5.3 2.5l-1.75-.15q-.4-.35 1.65-.8 3.15-.7 4.75-2.6 1.45-1.75.85-3.65m-75.75-99.3q-2.25-.55-1.7-1.1.45-.4 2.05-.65 1.4-.25 6.2 2.4 5.25 2.85 6.75 5.4 1.55 2.7 1.2 2.75l-2.3-1.75q-1.95-1.75-5.7-4-4.05-2.4-6.5-3.05m52.4-13q12.15-5.9 17.9-6.15l2.4.3q-.1.4-2 .75-7.35 1.35-18.8 7.15-9.85 4.95-15.35 9.2-4.05 3.1-3.55 1.9.45-1.05 2.5-2.9 5.3-4.6 16.9-10.25M244 85.6q4.65 4.25 5.2 8.55.25 2.2-.15 2.4-.45.2-1.15-2.15-.85-2.75-2.2-4.9l-2.45-3.3q-1-1.2-.55-1.3.4-.1 1.3.7m-33.25 44.65l10.2-.5 13.05.6 7.6 1.15h1.1l.5-.7q1.3-3.75 1.3-9.35 0-6.1-1.5-11.15-1.65-5.65-4.55-7.55-6.8 2.5-25.2 17.95l-4.75 3.85q1.25 3.6 2.25 5.7m26.7-29.15q2.9-1.2 5.05-1.65l2.1-.05q.75.65-4.05 2.6 5.25 3.05 6.55 13.05 1.15 9.3-1.65 15.9-.9 2.05-1.7 2.6l-2.95.2-6.1-.85-22.2-1q-2.2.15-3.15-.45-.55-.4-1.15-1.65l-1.8-4.25q-6.05 2.3-8.3-5.15-1.45-4.85-1.05-11.4.25-3.25.85-2.7.6.6.5 2.85-.2 4.7.9 8.7 1.15 4.15 3.05 5.15 1.5.8 3.35.6 1.4-.15 2.3-.7l11.35-9.7q10.95-9.15 18.1-12.1m-69.95 15.95q8.75 3.5 14.3 7.85 1.9 1.55 1.55 1.75-.3.15-2.25-.75-6.45-3.25-12-5.65-10.75-4.75-13.65-4.05-.7.15-2.15 1.25-1.1.85-1.35.65-.2-.2.2-1.4.6-1.7 2.85-2.25 3.55-.9 12.5 2.6"/><path fill="#0d131a" d="M181.45 133.85l1.7-.15q.25.5-.95 1.3-2.75 1.9-8.25 3.8-5.1 1.7-9.95 2.6-.7.15-1.7-.5-.95-.6-1.6-1.55-3.05-4.35-4.15-12.85-.85-6.85-.15-11.15l3.05.85q-.8 5.05-.3 11.15.6 7.7 3.3 11.3.6.75 1.55.6 10.35-1.8 17.45-5.4"/><path fill="#0d131a" d="M176.4 121.9q1.2 4.7.25 9.2-.85 4.05-2.35 4.3-1.85.4-2.95-4.1-1.25-4.95-.3-12l5.35 2.6m45.25-9.1q1.15 8.9 0 13.1-.8 2.9-2.35 2.9-1.7 0-2.95-3.7-1.1-3.3-1.1-6.95 0-.65 3.15-3.25t3.25-2.1"/><path fill="#fff" d="M218.7 116.35q.6-.05 1.05.65.5.7.55 1.75l-.35 1.75q-.4.8-1 .85-.65 0-1.1-.75-.45-.75-.5-1.7-.05-.9.4-1.7.4-.8.95-.85m-44.65 6.25q.65 0 1.05.65.4.6.4 1.65 0 .85-.35 1.5-.35.75-1 .75-.55 0-1-.65-.45-.7-.45-1.6 0-.95.4-1.6.35-.7.95-.7"/></svg>