<svg xmlns="http://www.w3.org/2000/svg" width="521" height="271" viewBox="-0.7 -0.1 521.25 270.5"><path fill="#717069" d="M434.05 87.15l3.8-.6 5.25-.4q.7.1 5 4.05l-9.95 14.05-4.1-17.1"/><path fill="#888780" d="M159.85 259.8l-4.5-.4q-1.15-.55-.95-5.6.15-3.45.75-6.95.25-1.6 10.25-5.75l14.3-6q1.1-.5 2.85-7.3 1.8-7.1 1.15-9.9l-14.9-11.55 1.85-14.5 71.2 32.3-.4 6.15-14.6-.4-.3 4.25q-.1 4.55.7 5.9.95 1.6.8 4.2-.15 2.45-1.2 4.2-.8 1.35-16.15 9.8l-16.15 8.8q-1 .65-4.2.85-3.2.25-6.6-.05-2.5-.2-3.6-1.85l-.65-1.6-5.5.65q-6 .5-8.2-.2-1.6-.55-2.35-3l-.4-2.35-3.2.3"/><path fill="#717069" d="M241.45 230.3l-14.6-.4-.3 4.25q-.1 4.55.7 5.9.95 1.6.8 4.2-.15 2.45-1.2 4.2-.8 1.35-16.15 9.8l-16.15 8.8q-.45.3-.15-3.05l.7-5.05q.15-.75 7.95-7.9 7.4-6.8 6.75-8.85-.7-2.35-9.55-7.65-1.9-1.1-17.1-9.45 1-5.25.55-7.2l-14.9-11.55 1.85-14.5 72 22.75-1.2 15.7"/><path fill="#888780" d="M346.7 189.2q6.85.3 9.75 2.2l2.75 10.2-4.95 3.95 1.85 8.5q2.15 9.15 3.55 12.45 1.35 3.3 8.85 9.05l9.2 6.7q1.6 1.35 1.5 7.25l-.2 6.9q.3 1.15-2.15 2.75l-4.2 2.25-2.15-.05-1.2-.5-1.8 3.55q-9 3.6-11.2 3.2-1.35-.3-3.85-1.35l-2.2-1-8.5 2.9q-2.3.95-9.2-5.95l-9.6-8.3-8.95-7.65q-1-1-.95-4.5.1-3.5 1.1-5.55.8-1.65-.35-6.75l-1.3-4.8-14 3-3.3-4.9-15.7 1.4-1.35-4.45.95-1.8q1.6-2.35 4.55-4.95 9.5-8.4 29.4-16.35 19.9-7.95 33.65-7.4"/><path fill="#717069" d="M346.7 189.2q6.85.3 9.75 2.2l2.6 9.85-4.8 4.3 1.85 8.5q2.15 9.15 3.55 12.45 1.1 2.7 5.95 6.7-17.7-6.9-29.3-7.75-10.4-.75-22.7 3.15l-1.1-3.95-14 3-3.3-4.9-15.7 1.4-1.35-4.45.95-1.8q1.6-2.35 4.55-4.95 9.5-8.4 29.4-16.35 19.9-7.95 33.65-7.4m5.75 77.05l-2.2-1-8.5 2.9-2.15-.25.55-6.05q.1-2.6.45-2.45l3.2-.1q3.65-.4 7.3-1.75.8-.25 3.7.45l3.95.5 7.65-2.25q2.5-.85 3.85-1.85.3-.2.05-1.45-.2-1.15.35-1.35 3.5-1.45 8.3-6.55.35 2.2.15 6.65-.2 4.25-.1 4.7.3 1.15-2.15 2.75l-4.2 2.25-2.15-.05-1.2-.5-1.8 3.55q-9 3.6-11.2 3.2-1.35-.3-3.85-1.35"/><path fill="#888780" d="M350.4 48.95q5.1 2.85 5.75 4.1 1 2 4.65 19.75l9.7 23.95q9.4 25.35 7.7 32.25l-4.4 4.3-2.2 2.3-.4 3.75 3 2.8q3.05 3.15 3.25 4.6.4 2.7-1.8 12.25-2.5 11.05-5.8 14.8-3.55 1.9-8.5 3.5l-4.2 1.2v11.7q0 .75-10.65 9.25-10.65 8.45-11.45 8.45-.6 0-4.2-1.65l-3.5-1.7q-1.35 6.7-2.35 7.4-.85.55-14.45 4-13.8 3.45-14.95 3.2-1.05-.2-5.95-4.2L284.9 211l-16.75 11.3-16.1 1.1q-17.3.95-23.35-.1l-6.35-10.7q-9.9-5.55-22.65-14.35-25.45-17.6-39.55-33.7-1.45-1.65-1.95-11.9-.5-10.35-1.55-11.65-10.05-12.05-10.55-14.7.2-3.35 5.3-11.2 2.55-3.95 5.05-7.2l7.7-50.15-2.7-5.7 6.3-11.55q6.5-11.7 7.75-12.55 1.25-.8 10.1-.95 4.45-.05 8.6.05l7.1-3.8q7.95-3.95 11.9-5 1.5-1.95 4.25-9.65 2.35-6.7 3.2-6.7l16.25.5 17.35 1.15q2.3 1.45 4.4 4.15l1.65 2.35 14.65-.05q15.25.25 17.95 1.9l13.65 8.7L321 14.25l10.05 16.05 6.15 1.25q6.3 1.5 6.9 2.75 1 2.05 1.3 12.05l5 2.6"/><path fill="#717069" d="M169 122.8l-5.85 1.8-2.9 1.05q-7.05-5.5-9.8-9.1l1.3-2.4 1.25-2.3q2.15.75 5.2 1.2l3.7 3.25 7.1 6.5m44.65-105.05l-1.75 8.3-7.95 6.6q-8.85 6.85-13.1 8.05-3.3.95-8.85-2.55l-5.6-4.25q-.6-.6-.95-3.15-.35-2.5.05-2.8 1.25-.8 10.1-.95 4.45-.05 8.6.05l7.3-3.9q8.1-4.2 12.15-5.4m117.4 12.55l6.15 1.25q6.3 1.5 6.9 2.75 1 2.05 1.3 12.05l5 2.6q5.1 2.85 5.75 4.1 1 2 4.65 19.75l9.7 23.95q9.4 25.35 7.7 32.25l-4.4 4.3-2.2 2.3-.4 3.75 3 2.8q3.05 3.15 3.25 4.6.4 2.7-1.8 12.25-2.5 11.05-5.8 14.8-3.55 1.9-8.5 3.5l-4.2 1.2v11.7q0 .75-10.65 9.25-10.65 8.45-11.45 8.45-.6 0-4.2-1.65l-3.5-1.7q-1.35 6.7-2.35 7.4-.85.55-14.45 4-13.8 3.45-14.95 3.2-1.05-.2-5.95-4.2L284.9 211l-17.1 11.95-15.9.8q-17.15.6-23.2-.45l-6.35-10.7q-4.9-5.9-8.7-11.75-7.65-11.65-2.3-11.1 4.3.45 12.15.05l6.95-.45 1.1 1.35q1.2 1.3 1.7.9l5.8-5-.95-2.3q5.4-1.3 26.75-9.2 21.9-8.1 23.3-9.5 2.05-2 8.95-13.8l10.5-4.75q11-4.9 13.35-5.6 2.3-.7 2.65-10.3-.05-9.85.25-10.7.4-1.3-2.45-22.7t-3.6-23.35q-1-2.55-25.05-33.35-.65-.9-9-2.9-8.2-2-9.6-1.75-1.05.15-9.15-4.3l-9.35-5.15q-1.05-.45-2.45-8.25-1.45-8.2-2.45-9.3-2.4-2.75-31.9-5.05 1.25-2.45 1.8-2.45l16.25.5 17.35 1.15q3.65 2.35 6.65 6.5l14.35-.05q14.95.25 17.65 1.9l13.35 8.55 14.75-6.2 10.05 16.05"/><path fill="#717069" d="M241.1 154.65q-7.45 6.3-14.5 6.9-6.55.6-13.7-4.9-2.55-1.95-3.5-3.45-.9-1.5.8-.85 4.05 1.55 13.3 1.5 10.5-.1 17.2-2.65l3.35-.1q-.1 1.15-2.95 3.55"/><path fill="#888780" d="M169.55 71.2q11.95 7.4 13.35 13.95 1.45 6.55-3.65 24.5-2.55 9-5.4 16.65l-16.4-13.4-21.15-3.8-16.7 15.4-9.3-.2q-7.35 7.35-12.05 10.05-2.95 1.65-17.3-18.95L67.2 94.45l15.65-12.3q0-9.35.35-10.7.25-.9 10.6-6.7 9.85-5.5 11.8-6.2 1.25-.4 7.95 4.2l6.45 4.7 8.35-5.35 15.05 5 6.7-4 7.8 1.95 11.65 6.15"/><path fill="#717069" d="M120.65 67.9l-5.95 1.55q-6.05 1.4-6.5.95-.7-.75-1.8-5.8-1.15-5.35-.2-6 .9-.55 7.75 4.3l6.7 5m44.5 33.6q1.2 2.5 1.75 10.85l.35 7.85-9.8-7.3-21-3.95-16.85 15.55-9.3-.2q-7.35 7.35-12.05 10.05-.65.35-.5-3.2l.5-8.85q.5-14.5-3.4-20 10.3.15 23.4-5.1 6.55-2.65 11-5.3h5.9l9.4-6.1L153.9 96l3.7 1.65q4.3 2 7.55 3.85"/><path fill="#888780" d="M64.45 92.2q2.35 0 14.25 2.5l14.2 2.85q1.7.2 8 9.65 5.2 7.8 7.05 11.4.85 1.7.3 6.85l-.95 6.85q-.2 1.6-8.4 7.4l-10.35 7.35q-1.8 1.6-8.75.8l-11-1.15q-3.75 0-6.6 2.85l-4.1 4.85q-1.65 1.65-9.35-1.2l-10.35-4.5q-2.55-1.05-.3-11.65l3.3-12.4q.65-2.6 1.85-6.35 1.5-4.4 2.15-5.05l8.4-10.9Q62 92.2 64.45 92.2"/><path fill="#717069" d="M70.45 97.45l-1.4-5.1 10.45 2.4 13.4 2.8q1.7.2 8 9.65 5.2 7.8 7.05 11.4.85 1.7.3 6.85l-.95 6.85q-.2 1.6-8.4 7.4l-10.35 7.35-10 .3-13.35-.45q2.7-2.95 9.65-6.4l11.6-5.6q2.55-1.3 2.4-5.2-.15-3.7-2.65-8.5-5.8-11.15-16.25-16.6 1.6-1.75.5-7.15"/><path fill="#888780" d="M13.95 89.8q6.1-8.65 8.35-8.3l15.35.45 11.1-.8q2.5-.2 12.6 5.8l9.6 6.05.5 12.65-11.45 7q-11.7 6.9-13.15 6.6-1.9-.4-6.6-5.2l-5.4-5.95q-.85-1.05-10.8-2.9l-9.75-1.65q-3-1-5-3.35-1.5-1.75 4.65-10.4"/><path fill="#717069" d="M39.5 92.8L24 91.9q-1.75-.3-2-5.4-.3-5.15.3-5l15.35.45 11.1-.8q2.5-.2 12.6 5.8l9.6 6.05.5 12.1q-8.35-7.4-11.8-9.6-2.15-1.4-4.65-1.8l-15.5-.9"/><path fill="#888780" d="M42.4 121.95q1 0 2.35 9.05.15 1.3-3.05 9.1-3.3 7.95-3.3 8.6l-2.5-.05-5.2-2.3q-2.4-.85-10.1 1.5-6.55 1.95-8.65 3.2l-4.7.1-5-1.1q-1.4-.45-.6-6.45.8-5.85 1.95-7.25 2.15-2.7 8.05-8.3 7.4-6.95 9.35-6.75l10.8.45 10.6.2"/><path fill="#717069" d="M13.35 135.15q1.95-2.4 5.85-4.45 4.55-2.35 6.85-1 2.75 5.6 3.4 7.95 1.25 4.4-.2 8.5-3.2-.05-9.9 2.1-5.7 1.8-7.4 2.8-.6-13.4 1.4-15.9"/><path fill="#888780" d="M107.5 128.7q.9.4 3.05 7.85l3.75 14.15q1.55 6.05-1.9 9.75-2.35 2.5-8.05 4.55-1.8.65-3.95-.35-2.25-1.15-3.5-3.55-1.1-2.25-7.45-8.4-5.55-5.3-8.25-7.35.8 0 6.35-6.55l8.35-9.8q1.4-1.5 6-1.3 4 .15 5.6 1"/><path fill="#717069" d="M105.8 143.4q-4.5-10-7.95-15.4l5.55-.15q3 .3 4.1.85.9.4 3.05 7.85l3.75 14.15q1.55 6.05-1.9 9.75-2.35 2.5-8.05 4.55-3 1.05-5.45-1.75l4.4-2q2.9-1.45 4.25-2.85 1.05-.6 2-6.05l-3.75-8.95"/><path fill="#888780" d="M440.75 97.2q.15.25-2.9 23.6l-3.1 23.25-32.15 8.65v-20.05l-10.7-15.05 2.7-3.7-.75-5.6-4.95 3.6-13.4-.3-3.3 6.65-11.65.25q-11.8.2-12.45-.25l-1.55-1.4-.8-.9-8 4.35-16.35-3.5-3.05-21.95 3.85-7.95q4-8.1 4.85-8.75.8-.6 7.65-2.55l6.7-1.8 2.4-5.5q2.5-5.5 3.1-5.7l12.5-.7q12.3-.15 15.45 1.5 1.1.55 2 6.7l14.4-.3 5.45-6q5.85-5.8 7.95-4.75l12.6 5.75q10.1 4.75 10.1 6 0 2 1.35 11.35l4 4.05q4.7 5.2 8.05 11"/><path fill="#717069" d="M413.5 74.95q2.25 0-3.15-7.9l-5.9-7.95 11.45 5.3q11.45 5.5 11.45 6.4 0 2 1.35 11.35l4 4.05q4.7 5.2 8.05 11l-2.4 19.65Q433.3 106.6 419.1 90.4l-12.4-14.35q.85-1.1 6.8-1.1m-35.1 22.4l8 .85 7.4 1.2.05 8.9-4.95 3.6-13.4-.3-3.3 6.65-11.65.25q-11.8.2-12.45-.25l-1.55-1.4-.8-.9-11.25 6.5-8.75-1.25q-8.7-1.5-8.55-2.8.15-1.15 8.5-4.25 11.95-4.5 15.4-6.15 2.85-.1 15.05.25 10 .25 11.4-.25 1.5-.55 6.05-5.45l4.8-5.2"/><path fill="#888780" d="M484.25 142.35q-15.05 17.75-16.4 18.75-.95.7-2 .9l-4.05.4-10.85-.35-7.85-.65q-12.7 8.7-14.75 9.4l-6.9-.3q-6.35-1.55-12.9-6.35-6.5-4.75-5.35-13.6.5-3.75 4.45-13.9 2.35-6 8.05-11.25 6.1-5.65 14.35-8.8 7.5-2.85 18.8-.5 9.4 1.95 12.3 4.5 1.7 1.5 4.5 2.75l5.2 2.3q2.3 1.05 8.1 8.95l5.3 7.75"/><path fill="#717069" d="M470.85 125.65q2.3 1.05 8.1 8.95l5.3 7.75q-15.05 17.75-16.4 18.75-.95.7-2 .9l-4.05.4-10.85-.35-7.85-.65q-12.7 8.7-14.75 9.4l-6.75-.3q-6.2-1.45-12.65-6.05 6.65-1.2 20.8-5 14.1-3.85 15.65-4.85l5.35-4.75 5.95-5.65q1.85-1.55.8-13.85l-1.45-11.95 1.9.5q2.1.75 3.2 1.7 1.7 1.5 4.5 2.75l5.2 2.3"/><path fill="#888780" d="M473.5 97.6l-5.35 4.95-7 20.4q-21.05 5.35-24.4 5-2.1-.2-7.3-4.35l-4.75-4.15 6.55-10.2q6.75-10.45 7.8-11.7 1.3-1.5 9.55-8.8 8.25-7.3 9.25-7.85.9-.45 9.2.15l9.05.85q.9.3 2.75 4.75 1.95 4.5 1.05 5.2l-6.4 5.75"/><path fill="#717069" d="M476.1 81.9l1.95 3.6q2 3.9 1.95 5.1-.05 1.2-5.95 6.7l-5.9 5.25-7 20.4-5.55 1.35q-.85-5.95-4.5-15.25-3.3-8.45-3.65-8.1.7-1.1 5.85-5.7l5-4.35-.7-4.7q-.55-4.75.25-4.9l18.25.6"/><path fill="#888780" d="M513.7 121.9q4.7 3.45 5.2 4.4.5 1 .5 6.5 0 5.45-.5 6.2-.55.8-3.4 2.55-2.9 1.8-3.85 1.8l-7.05-1.55-7.25-1.8q-1.65-.3-20.5 4.05l-9.7-12.75q-.4-.6-.25-4.2l.2-3.45q20.5-8.5 21.85-8.8 1.35-.35 19.05 3.4 1.05.3 5.7 3.65"/><path fill="#717069" d="M508 118.25q1.05.3 5.7 3.65 4.7 3.45 5.2 4.4.5 1 .5 6.5 0 5.45-.5 6.2-.7 1-7.25 4.35l-.85-14.3-7.9-5.2-8.2-1.4q-9.3-1.85-14.8-4.05 8.55-3.45 9.05-3.55 1.35-.35 19.05 3.4"/><path fill="#888780" d="M401.9 171l-5.3 4.15q-1.05.65-5.1.7l-4.6-.05q-.8 0-3.7-6.3-2.9-6.4-2.65-8.1.25-1.65 3.35-6.6 3.2-5 4.35-5.4 3.65-1.35 19.05-12.4l3.95 1.5q4 1.6 4.4 2.2.7 1 5.05 21.4.2.9-5.25 2.75l-7.5 2.25q-1.6.4-6.05 3.9"/><path fill="#717069" d="M396.6 175.15q-1.05.65-5.1.7l-4.6-.05q-1 0-6.35-14.4l4.3.55q4.35.35 4.55-.75.25-1.25 3.3-5.35t3.35-3.75q5.65 9.05 11.55 14.5l-11 8.55"/><path fill="#ed8599" d="M194.85 139.7l.95-.7q1.4-.85 3.8-1.6 7.6-2.35 21.8-2.65 14.2-.3 27.75 2.3 6.8 1.3 10.7 2.65-22.4 9.55-42.6 7.55-14.9-1.5-22.4-7.55"/><path fill="#ce7486" d="M242.85 145.15q-5.2-5.15-18.35-6.05-13.7-.95-23.05 4-4.45-1.7-6.6-3.4l.95-.7q1.4-.85 3.8-1.6 7.6-2.35 21.8-2.65 14.2-.3 27.75 2.3 6.8 1.3 10.7 2.65-7.95 3.45-17 5.45"/><path fill="#888780" d="M260.95 48.65l-1.8 13.45 7.35-8.8q7.5-8.8 8.3-8.8 1.15 0 9.4 4.65 8.3 4.7 7.85 5.45-.45.65-5.85 12.8l-5.35 12.05 19.1-4Q305 87.8 304 88.8t-26.8 18.75q-7.55 4.85-18.15 9.95-21.2 10.2-36.55 11.6-15.35 1.45-33.55-7.15-5.7-2.65-11-6.05l-4.15-2.8-1.3-4.85-17.75-10.7.15-7.5q.3-7.55.9-7.55l14.05 1.65-7.6-6.45q-7.65-6.55-7.65-7.2 0-.6 5.65-7.9l5.65-7.15 13.65 10.65-4.75-20.7 7.1-4.7q7.3-4.6 8.15-4.15.85.4 6.3 10.5l5.25 10 9.8-2.5q11.3-2.35 18.65-1.5 2.3-2.65 14.55-24.25l9.05 2.15q9.05 2.35 9.05 3.2l-1.75 14.5"/><path fill="#717069" d="M178.8 65.55l1.65 3.9q.9 2.05.15 3.9-4.05-2.3-10.95-8.75l-6.15-6 2.7-3.15 12.6 10.1m11.95-18.4l-4.25-9.3 1.6-.65q1.65-.6 1.85-.5.85.45 6.35 10.45l5.3 9.9 9.25-2.45q10.55-2.3 17.05-1.6 2.05.5 1.7 1.65l-.75 1-20.85 4.8q-16.3 3.15-11.1-1.15-1.55-2.4-6.15-12.15m67.5-15.2q4.8 1.5 4.8 2.05l-1.95 14.55-1.95 13.55 3.5-4.2 6.9-8.15q-3.6 6.7-8.05 12.9-5.35 7.45-7.35 7.3-1.8-.1.95-19.05 1.4-9.5 3.15-18.95M275.2 87.6q-.85-.1 5.9-18.15l6.95-18q4.2 2.8 4 3.15-.45.65-5.85 12.8l-5.35 12.05 19.1-4L301 78.8q-4.95 1.1-15.7 5.25-9.55 3.65-10.1 3.55M264 94.55q1.85.75 4.4 3.95 2.65 3.35 1.85 4.5-1.15 1.6-12 10.2l-15.9 5.4q-15.25 4.8-15.7 3.05-.9-3.5 17.1-15.85 17.8-12.25 20.25-11.25m-51.7 11.15q2.15 2.2 2.75 9.25.7 7.6-2.95 7.75-1.5.05-11.35-2.8-10.55-3.1-13.55-4.9-5.35-2.65-7.25-3.85-3.25-2.1-.25-3.4 2.45-1.05 8.8.45 5.3 1.3 15.65 5 1.75.6 5-3.6 3.05-4 3.15-3.9"/><path fill="#fff" d="M200.25 114.8q5.6 2.8 10.5 5.7l-10.65 1.45-10.65-.5q-1.55-.95-2.8-4.6-1.35-3.85-1.05-7.15 3.45-.45 14.65 5.1m52.55-6.85l9.8-4.6q.35 1.6-.1 7-.6 6.25-2.1 7.9-2 2.3-14.05 2.4-11.15.15-14.3-1.05 9.15-5.9 20.75-11.65"/><path fill="#dbdcdc" d="M210.1 120.4l-4.8.75q-8.35-6.7-19.2-7.15l-.3-2.15q-.25-1.45-.15-2 3.45-.5 14.3 5 5.45 2.7 10.15 5.55m26.95-.15l-5-.65q9.55-6.1 21.05-11.6 5.75-2.75 9.6-4.3l-.1 2.3q-.25 2.4-.2 3.7-9.15 2.4-13.55 3.9-7.6 2.6-11.8 6.65"/><path fill="#888780" d="M151.45 142.35q.8-1.05 5.65-4.8l4.7-3.55 4 49.5q-3.65 3-5.7 3.35-1.3.2-7.5-5.05-5.75-4.8-6.5-6-.55-.8 1.9-16.45 2.45-15.75 3.45-17"/><path fill="#717069" d="M165 173.35l.8 10.15q-3.65 3-5.7 3.35-1.2.2-6.85-4.5-4.9-4.05-6.9-6.25l9.5-1.05 9.15-1.7"/><path fill="#888780" d="M166.15 143.05l5-1 6.05-.7q1.3.35 6.35 7.7l.3 10.7 7.05 8.7 1.2-1.45q1.45-1.6 2.5-2.25 1.25-.75 7.45-1.3 6.25-.5 8.25 0 2.3.55 8 3.35 6.1 3.05 7.7 4.65 1.5 1.5 1.35 5.9-.1 2.7-.65 5.15-.25.9-3.4 1.9l-4.65 1.1q-1.25.2-3.6 2.15l-2.1 1.85 3.7 3.35q.8.8 4.6 1.45l5.1.9q1.25.4.95 5.1l-.6 4.6-3 2 1.9 1.6q1.75 1.85 1.1 3.1-.75 1.5-4.25 4.6-3.45 3.05-5.45 4.1l-10.25.3-10.5-.65q-1.85 0-6.8-5.45l-5.35-6.25q-2.95-2.95-2.55-6-21.45-23.45-22.1-24.8-.5-.95.75-5.85 1.25-4.9 2.25-6.15l3.7-22.4"/><path fill="#717069" d="M210.15 191.4l-1.9-5.1 2.15-2.45 3.5-3.7q1.15-.95 7.4-1.2l6-.05-.6 3.6q-.25.9-3.4 1.9l-4.65 1.1q-1.25.2-3.6 2.15l-2.1 1.85 3.7 3.35q.8.8 4.6 1.45l5.1.9q1.25.4.95 5.1l-.6 4.6-3 2 1.9 1.6q1.75 1.85 1.1 3.1-.75 1.5-4.25 4.6-3.45 3.05-5.45 4.1l-10.25.3-10.5-.65 3.05-1.15q4.6-2 9.15-5.6.95-.75.6-2.25l-.6-1.35q2-2.1 3.65-4.55 3.35-4.85 1.8-6.55-1.55-1.7-3.75-7.1m-37.55-32.5q-.15-1.65 4.65-6.85 4.95-5.3 6.3-3 1.25 2.2.9 6.65l-.6 4.05 7.05 8.7-4.6 8.8-6.8-8.55q-6.85-8.8-6.9-9.8"/><path fill="#888780" d="M335.05 156.4q3.05.2 10.6 4.55 3.8 2.2 6.95 4.35l1.35 1.2q1.5 1.5 2.35 3.15-.25 2.25-2.55 10.85l-2.8 9.55q-.45 1.05-5.95 1.3l-5.45.05-3.65 9.05-14.85 6.4-7.9-.05q-11.05 2.65-12.7 3.35-.7.25-7.2 4.6-6.5 4.3-8 4.85-2.65 1-25.3 4.6l-8.7-10.4q-6.35-1.3-7.7-2.35-.9-.7-1.05-6.05-.15-5.15.4-6.3.4-.75 2.05-.55l3.3.2q1.45-.2 5.25-3.3l3.45-3.05.35-4.65-15.4-1.7-.6-3.95q-.5-4.05-.05-4.7.75-1.1 5.45-4.75 5.4-4.1 8.25-5 2.9-.9 10.15-1.7l8.9-.65q1.7 0 5.2 4.2l3.15 4.2 2.95-.8 5.9-1.8q1.35-.45 3.55-3.2 3.3-4 5.5-6.05 5.35-.15 19.35-2.95 13.2-2.65 15.45-2.5"/><path fill="#717069" d="M241.9 186.05q-.45-1.3-.65-3.85l8 1 7.85.75q1.45 5.75-.05 7.4l.25-3.6-15.4-1.7m110.7-20.75l1.35 1.2q1.5 1.5 2.35 3.15-.25 2.25-2.55 10.85l-2.8 9.55q-.45 1.05-5.95 1.3l-5.45.05-3.5 9.7-15.25 5.75-7.65-.05q-11.05 2.65-12.7 3.35-.7.25-7.05 4.65t-7.85 4.95q-2.65 1-25.6 4.45l-5.1-5.95 13.3-3.05q11.65-2.75 13.2-4l4.75-4.8 3.4-4.25q.15-.35 5-3.2l4.8-2.8.9 1.8q1.4 1.6 3.85.5 2.45-1.05 3.95-4.6l1-3.3q11.8-7.05 13.1-8.55 1.9-2.25.75-11.9-1.6-10.5-1.6-13.4 0-3.6 20-4.05 10-.2 20 .3l-8.65 12.35"/><path fill="#0d131a" d="M168.5 197.15l1.55-7.2q.35-1.75.85-.75.45.9.6 2.75l-.85 7.5q-.85 6-.45 6.4l9.3 7.3q9.4 7.3 10.8 8.55 1.8 1.65 1.3 1.95-.5.25-1.7-.55-2.05-1.3-4.75-3.4 0 3.75-1.85 9.65-1.85 5.85-3.2 6.55l-8.65 3.65q-14.95 6-15.45 7.5-.75 2-.75 8.2 0 1.25.35 2.2.3.8.65.85l6.65.35q-.15.3-.05.8l.1.95q-6.3.65-8-.2-.85-.45-1.6-2.15-.8-1.8-.8-3.6 0-2.25.3-4.8.35-2.45.75-3.6.55-1.65 4.85-3.35 2.8-1.15 12.35-4.75l8.45-3.55q.8-.85 2.3-7.1 1.55-6.45 1.35-8.95l-13.1-9.2q-2.15-1.65-2.55-2.45-.35-.65-.15-2.55.15-1.4 1.4-7m50.8 32.25q-.25-.55 2.9-.6l10.3.4 8.15.25q.45-.35.35-5.4l1.75.15q.5 6.3-.5 7-.65.45-6.9.05l-7.25-.5-.25 2.15-.15 2.25v2.7q0 1.25.3 1.75 1.15 1.95 1.15 4.3 0 3.1-1.15 5-.65 1.15-14.55 9.45-13.9 8.25-18.55 10.3l-4.85.7-6.6-.25q-1.45-.1-2.7-.9-1.65-1.05-1.9-2.85v-2.85l.25-3.1q.6-3.6 1.15-5.35.8-2.35 2.1-3.35 1.55-1.15 6.25-2.7 3.55-1.15 3.15-.65l-2.85 1.55q-6.1 2.8-6.7 5.55l-.55 3.45q-.55 3.85-.6 6.1.15 1.25.6 1.9.65.95 2.15 1.1 3.15.25 6.45-.05l3.8-.65q1.9-.7 16.35-8.85 14.9-8.35 15.7-9.45.9-1.55 1.1-3.75.2-2.35-.65-3.75-.9-1.5-.95-5l.15-4.9q-6.15-.55-6.45-1.2"/><path fill="#0d131a" d="M174.95 244.35q1.8-.6 1.8 0t-1.55 1.15q-2.05.75-5.1 2.25-3.75 1.85-4.35 2.7-.7 1-1.15 4.35-.45 3.4-.3 6.5.35 1.65 2.1 2.25l6.25.5 6.65-.45.2 2.6-6.85.4-7.15-.6q-1.55-.6-2.15-1.35-.45-.6-.55-1.45l-.25-3.55q-.15-4.5 1-9.1.7-2.8 11.4-6.2m202.2-1.4l-3.2-2.35-8.75-6.55q-5.15-4.4-6.35-7.2-1.25-2.95-3.25-10.5l-2.45-9.95 1.25-.9 1.25-1.05 2.15 10.6q1.8 8.4 2.95 11.15 1.1 2.5 6.2 6.75l8.35 6.25 4 2.75q1.05.85 1.35 2.25.3 1.15.3 3.75l-.35 7.1q-.1 2.95-1.95 4.3-4.3 3.05-5.9 3.25-1.35.15-3.65-.6l.2-.95.2-.45 1 .1 1.75-.05q1-.15 4.6-2.25.75-.45.95-1.15l.3-1.8.25-6.75q0-4.8-1.2-5.75m-32.4 7l2.8 2 2.8 2.15q1.75 1.75 1.7 3.95l.2 3.95q.1 2.85-.5 3.55-.85 1.05-5.05 2.55l-5.1 1.5q-2.35.8-10.1-6.25l-10.75-10.15-5.25-4.25-3-2.35q-.55-.55-.7-1.95l-.1-2.95q0-2.45 1.65-5.85l.25-1.6q0-1.4-1-4.35l-1.6-4.65 2.45-.4 1.45 5.65q.85 4.45 0 6.1-.9 1.8-.85 4.95 0 3.05.75 3.85l2.45 2.35 4.6 4.1 11.3 9.75q6.2 6.2 8.35 5.4l4.6-1.35 3.55-1.1q.7-.55.45-4.4l-.25-3.3q-.05-.85-6.8-6.1l-2.65-2.15q-.8-.6-.65-1.05.15-.5 1.15.15l3.85 2.25"/><path fill="#0d131a" d="M359.4 243.75q-1.3-1-1.15-1.35.15-.4 2.15.6l5.05 3.5 4.25 4.1q1.4 1.65 1.6 2.25.2.7-.15 3l-1.2 6.35q-.95 3.05-2.5 3.85l-3.4 1.25q-5.5 1.95-7.95 1.45-.95-.2-3.7-1.7l-2.5-1.45 1-.9 2.25.9 3.3 1.15 2.95-.5 4.7-1.5 1.2-.35 1.2-.55q.6-.35 1.2-1.45l.9-2.45.4-3q.55-4.2-.8-5.45l-4.25-3.8-4.55-3.95m18.7 1.45q.6-.9.95-.55.4.35-.1 1.25-.65 1.3-1.7 2.45-1.5 1.55-3.25 2.1l-2.05.25q-.05-.35 1.7-1.4 3.15-1.9 4.45-4.1"/><path fill="#0d131a" d="M364.3 258.05q-3.75 1.25-5.75 1.15-1.65-.1-1.65-.55-.05-.45 1.6-.7l6-1.85q4.3-1.55 5-2.05.6-.45.7-.15l-.55 1.15q-1.2 1.6-5.35 3m-16-.2q1.35-.6 1.8-.25.45.4-1.1 1.35-1.4.95-3.6 1.25l-3.1.05-1.5-.5q-.35-.35.85-.55l3.35-.45 3.3-.9m8.6-66.15l1.25 3 1.65 4.5q.35 1.5.15 2.3-.2.75-1.05 1.55l-7.8 6.05-8.65 6.2q-.55.3-1.95 0-1.35-.25-2.2-.7l-3.75-2.3q-1.4-.85-1.2-1.3.2-.5 1.75.25.9.4 2.65 1.15l1.85.9 1.55.15 1.65-.9 7.1-5.15 6.6-5.05 1-.95q.45-.7.15-2l-1.6-4.3-1.15-2.7 2-.7m-28.05 21.2q.4-2 .85-1.95.5.1.35 2.2-.6 8.75-2.1 9.45l-15.1 3.75-14.75 3q-.6-.25-1.85-2.75l-1.5-2.95-15.9 1.4q-.65-.1-1.4-2.15l-.65-2.05 2.3-.5.9 2.1q.25.4.75.65l8.1-.6 10.05-.95q3.15-.1 3.5.55.35.7-5.75 1.25l1.35 2.15q.7 1.2.9 1.2 27.3-4.95 27.85-5.5.65-.6 2.1-8.3m-173.6 34.3l1-.65 1.7 1.65q1.5 1.25 2.5 1.6 1.3.55 1.35.65l-1.6.1q-1.6-.1-3.2-1.4-1.1-.9-1.75-1.95m9.1 5.2q-.9-1.1-.3-1.25.5-.1 1.3.55 2 1.65 8.95 2.8 1.5.25 1.55.7.05.45-1.7.25l-7-1.2q-1.75-.55-2.8-1.85m16.85 3.05q-.75-1.05-.45-1.45.25-.35 1 .35.65.65 4.05 1.55l5.55 1.05q2.15.2 2.15.55l-1.8.35-6.35-.6q-3.35-.7-4.15-1.8m-27.15-143.1q-2.5 3.6-4.3 7.25-1.95 4.05-2.15 6.2 1.1 4.25 8.2 12.85l-1.05.45-1 .6q-3.75-4-6.1-7.35-2.8-4-2.75-5.9 0-4.4 7.05-14.6l2.1.5m189.5-77.1q-.4-.65-3.75-1.75l-6.8-1.8q2.2 5.3 2.05 7.05-.15 1.8-2.85-3.6l-6.65-12.6q-3.95-6.95-4.9-7.2-1-.3-5.8 1.9-4.5 2.05-7 3.75 3.45 3.2 1.9 2.85-1.45-.4-3.4-2-9.25-7.8-13.9-9.2-2.9-.9-13.7-1.4-10-.5-16.4-.25 2.2 3.3 2.05 4.9-.2 1.6-3.1-2.95l-4.15-6.2q-1.4-1.9-2.35-2.2l-16.7-1.1-16.5-.65q-1.5.3-7.1 16.9-2.35 7.1-2.9 6.5-.5-.6 1.25-6.75-4.95 1.3-13.8 6.2-7.35 4-13.45 8.25-1.6 1.1-1.95.8-.35-.3.95-1.6 1.75-1.75 6.95-5.35-6.05-.15-10.4.1-4.3.3-5.15.85-.9.65-7.05 11.3-6.1 10.6-6.25 11.75-.1.95.65 2.6l1.3 2.45-1.15 1.55-1.75-2.75q-1.55-2.55-1.3-3.8.4-1.95 6.3-13 6.2-11.65 7.95-12.6 1.8-.95 8.45-.6l10.65.65 5.75-3.55q6.3-3.6 14.05-6.45l3.05-10.2q1.55-4.85 2.25-5.4.9-.75 4-.65l13.75.65 18.25 1.5q1.4.25 2.75 1.95l3.7 5.25 18.1-.15q12.25.15 14.95 1.6 2.65 1.4 6.75 4.55l4.8 3.75 7.6-3.9q6.45-3.15 7.8-2.7 1.35.45 5.8 8.55l4.4 8.45 8.4 1.9q5.5 1.6 6.2 2.95.6 1.2.4 5.65l-.3 5.8 6.3 3.1q4.75 2.5 5.4 3.75.45.9 1.45 9.1h-1.8q-1.5-6.85-2.25-8.3-.35-.75-6.1-3.95-5.05-2.85-7.65-4-1.9-.85-2.45-1.35-.5-.5-.05-.8.4-.25 2.7.55l2.25.8-.05-5.65q-.05-2.95-.45-3.8m-84.75 186.9l1 1.65-14.35.95q-8.25.4-15.7-.05-.95-.05-1.4-.4l-1.15-1.35-1.6-2.85-2.35-4.25.8-.4.65-.6 4.5 7.65q7.75 1.15 29.6-.35"/><path fill="#0d131a" d="M376.6 110.95q1.35 4.6 2.15 9.1.85 4.6.85 7.4 0 .9-7.2 8.55l-.3 3 3.8 3.4q2.75 2.7 2.95 4.2.45 3.15-2.6 14.45-3.15 11.9-5.75 14-1.75 1.4-12.5 4.1 0 1.2 1.1 10.4.1 1.05-1.75 2.75l-10.05 8.2q-10.7 8.6-11.65 8.6-.6 0-3.25-1.35l-4.45-2.3q-1.5 7-2.45 7.6-.85.6-14.65 3.9-14.05 3.35-15.4 3.05-1.05-.2-4.65-3l.95-1.45q3.3 2.6 4 2.75 1.4.1 14.4-3.15 12.75-3.2 14.35-3.95l1-2.5 1-4.3 1.25-.6q3.8 1.9 7.1 2.9 1.4.4 11-7.45 9-7.4 10.4-9.3V177.8l.75-1.1 4.15-.7q4.7-1.1 8.15-2.9 3-3.55 5.4-13.65 1.95-8.25 1.95-12.15-3.65-5.3-6.05-7.3l.15-4.75q6.85-8 6.85-8.8 0-4.55-2.45-12.95l1.45-2.55m-202.45 14.8q2.6 2.5 2.5 2.9-.1.4-3.2-1.65-2.2-1.45-9.5-7.8-6.65-5.75-7.15-5.8l-20.4-3.05q-14.6 15-16 15.8-.85.5-5.1-.1l-4.55-.75-2.4 2.3.5-3.65 10.3-9.5 8.6-8.4q.55-.45.75-5.95l.25-7.25q.1-1.85.6-2 .55-.1.6 2l.35 7.85q.05 5.85-1.1 6.5l-6.65 6.5-10.45 10.05 4.4-.1 3.15-.5q1.05-.45 7.8-6.9 6.7-6.35 7.4-7.5.5-.8.6-4.75.1-4.45.3-5.3.35-1.5.85 1.8.55 3.45.4 7.8l10.35 1.65 10.35 1.8q.95.2 7.5 5.9 5.9 5.1 8.95 8.1m-38.35-56.4l2 .15q.5.3 1.45 2.2l4.3 9.85q3.3 8 3.25 8.8-.05.95-1.4 2.35-1.5 1.45-3.95 2.75-2.4 1.25-2.8 1.05-.4-.25 1-1.45L143 92.1q2.05-2 1.9-2.65l-3.85-9.35-4.05-9q-.25-.4-3.5 0l-4.75.6-1.85-.25q-.15-.35 1.75-.95l3.4-.85 3.75-.3"/><path fill="#0d131a" d="M120.6 69.1q-13.55-9.5-14.7-9.55-2.05.7-11.2 5.9-9.4 5.25-10.5 6.4-.15.95-.05 3.45.1 2.85.55 5.5 5.95-3.2 6.55-2.75.55.4-4.8 3.75-11.6 7.25-16.25 10.9-.35-.2-.8-.7l-.75-.75 8.2-5.7 5.2-3.4L82 76.3q0-4.3.2-5.1.4-1.6 11.6-7.95 10.9-6.15 12-6.05 2.15.2 13.95 9.2.55-.3 4.1-3 3.55-2.6 4.6-2.75 1.65-.25 7.6 2.15 5.15 2.1 7.5 3.5l3-2.2q2.65-1.95 3.4-2.15 1.25-.3 8.25 2.45l-1.4 1.95-2.95-1.1q-3.1-1.1-3.6-1.05-.4.05-2.05 1.1l-2.9 2.15q4 4.55 5.85 7.8 1.45 2.7 1.15 2.95-.3.25-2.25-2.2-5.7-7.55-6.5-8.05-1-.7-6.85-2.75-6.5-2.25-8.2-2-.95.15-3.2 1.5-2.35 1.45-3.95 2.9 2.25 2 1.85 2.5-.4.5-2.6-1m-75.85 48.1q-.35.9-.65 2.65l-.55 2.75-2.6-.2q1.05-3.75 2-6.35l1.8 1.15"/><path fill="#0d131a" d="M22.2 82.5q-.8.1-3.2 2.65-2.7 2.9-5.3 6.8-3.6 5.45-3.6 7.45v.15q1.75 2 4.45 3 19.55 2.9 21.1 4.9l5.75 6.35q4.15 4.1 5.6 4.4 1 .05 7.85-3.7l8.9-5.35q2.2-1.55 2.35-.85.1.65-2.05 2.45-2.85 2.35-8.95 6-7.05 4.15-8.7 3.8-2.25-.5-7.1-6l-4.7-5.75q-.75-.65-7.3-1.95l-13.15-2.25-.1-.05h-.1q-1.5-.5-3.75-2-2.65-1.75-2.65-2.75 0-2.85 5.9-11.45 6.15-9.05 9-8.6 7.55 1.2 17.2.2l10.05-1.1q1.55.05 10.3 5.9l10.9 7.7L93 96.5q2.4.3 9.3 10.95 3.5 5.3 6.55 10.7.8 1.55.8 5.05 0 3.15-.6 7-1.1-1-2.25-1.65.6-4.1.6-6.7 0-2-.4-2.8-1.8-3.55-7-11.35-5.8-8.7-7.25-9.15L70.5 94.1l-.1-.05h.05l-9.5-6.3q-9.55-6.15-11.2-6.05-18.6 2.05-27.55.8"/><path fill="#0d131a" d="M23.8 91.25l8.4.4 15.8.55 6.35-.55q2.2.4 8 5.15l7.8 6.75-.5-5.7-.55-5.25q-.05-1.15.9-.65 1 .45 1.25 1.6.35 1.75.55 9.9.1 3.25-1.75 1.9l-7.45-6.1q-6.9-5.4-8.9-5.8l-11.25.4-9.2-.65-9-.4-3.7 4.35-4.75 5.75q-1.2 1.35-1.85 1.1-.6-.2 0-1.3.75-1.4 4.9-6.25 4.2-4.95 4.95-5.2m21.1 44.1l-3 6.95q-2.45 5.8-2.5 6.4v.15q16.45 5.75 17.95 4.25l2.3-2.35q1.95-2.55 3.45-3.55 2.3-1.55 5.7-1.55l6.9.35 7.1.3 1.3 1.05 1.25 1.05-8.95-.45-8.4-.7q-2.6 0-4.35 2-1 1.2-2.7 3.9l-1.8 2.25q-1.35 1.4-15.25-3.3l-13.65-4.95q-2.05-.75-9.75 1.35-6.95 1.9-8.9 3.1-1.6.95-6.4.15l-4.55-1q-1.35-.45 0-7.3Q1.95 137 3 135.7q3.25-4 8.65-9.35 6.65-6.6 8.25-6.4l11.4.6 11.1.4q1.9 0 3.45 10.85.15.95-.95 3.55m-1.2-4.1v-.1q-1-6.85-1.7-8.15l-21.15-.7q-1.4-.05-8.1 6.2-6.05 5.6-8.35 8.5-.65.8-1.3 4.35-.65 3.5-.65 5.95 0 1.45.25 1.8l4.95 1.1q3 .4 3.75-.05 2.15-1.3 8.8-3.3 8.1-2.45 10.85-1.45 5.25 2.7 6.1 2.3 1.3-1.7 3.85-7.9 2.7-6.55 2.7-8.55"/><path fill="#0d131a" d="M43.95 129.7q.95.1 1.3.8.4.75-.55.7l-4.9-.5q-15.2-.9-17.6-.25-2 .55-5.4 3.1l-3.6 3.1-.6 7.8q-.4 5.55-.9 6.4-.35.6-.8.6-.45 0-.35-.5l.35-7.95q.3-6.1.7-6.95.5-1.05 4.35-3.8 3.75-2.75 4.9-3.05l8.15-.3 10.9.6 4.05.2m47.2 6.4l-8.25 9.35q3.65 3 8.3 7.55 5.55 5.4 6.65 7.6 1 2.05 2.9 3.05 1.8.9 3.25.4 5.85-2.15 7.95-4.7.75-.9 1.2-4.2.4-3.1.15-4.15l-.4-1.55q-4.8-18.55-5.95-19.85-1.5-.7-5.15-.85-4.05-.2-5.15.95l-5.5 6.4m-10.3 10.85q-.95-.7-.95-1.2.05-.55 1.05-1.4l6.9-7.8q6.4-7.25 8-8.3 1.9-1.25 6.55-1.3 4.25 0 5.9.8.5.25 3.3 8.8 3.05 9.4 4.15 15.5.35 1.9-.6 5.6-.9 3.5-1.65 4.2-2.6 2.45-10.35 4.15-.8.2-3.35-1.2-2.45-1.3-2.75-2-2.15-4.35-8.9-10.15l-7.3-5.7"/><path fill="#0d131a" d="M100.05 132.65q-.9-1.85-.6-2.1.3-.3 1.65 1.45 2 2.55 5.7 10.3 4.2 8.85 3.4 10.95l-.8 2.9q-1.05 3-2.2 3.5-1.3.55-3.15 1.6l-2.5 1.35q-1.05.55-1.3.2-.2-.4.95-1.2 3.4-2.15 5.5-3.1 1.2-.5 2.35-5.65.7-1.95-9-20.2m333.4-46.15l4-.9 5.75-.65q.9.05 3.35 1.8l2.1 1.6-1.4 1.4-4.3-2.75-4.1.15-4.65.85-.75-1.5M377.7 75.45q.2-.4 2.35-1.5l3.2-1.5q2.5-.95 2.35-.3-.15.6-1.85 1.55l-2.7 1.5-1.55 1.1q-.15.55 1.55 11.05 1.75 10.9 2.6 11.65l4.5 2.6q2.75 1.5 2.45 2.1-.3.65-3.15-.65l-5.5-2.7q-.9-.6-2.8-12.3-1.95-11.65-1.45-12.6"/><path fill="#0d131a" d="M395.4 110.15q3.85-3.95 6-4.15 1.85-.2 3.9.7 1.6.65 5.4 3.05 3.3 2.05 2.85 2.55-.5.55-3.95-1.45-5.65-3.2-7.4-3.15-1.65.05-5.6 4.6-3.85 4.45-3.55 5.35.4 1.3 5.55 7.7 4.95 6.25 5.05 7l.15 3.15-.15 4.35-2.05 1.15.15-5.75.15-2.8-5.9-7.05q-5.65-6.9-5.7-7.8-.05-.95 1.35-2.75.5-.8 1.9-2.25l-.35-2.4-3.95 3.1-13.1-.65-2.1 5.6-1.05 1.25-1.4.45-11.2-.05-11.6-.45q-1.55-.25-2.2-.85l-1.3-1.7-7.25 4.1q-1.55.9-2.2.65-.65-.25 1.1-1.7 2.55-2 7.3-5l-1.8-3.2q-1.75-3.4-1.4-4.15.3-.6 3.25 4 3.25 5.1 4.2 5.6l11.55.6q10.65.15 11.6-.25 1-.5 2.55-4.6 1.55-4.5 2.05-5.55 1-2.1 1.3-1.35.35.8-.6 4.55l11.65.45q1-.45 4.55-3.25-.25-5.85-.15-7.9.1-1.85.65-2.25.6-.4.9 2.4l.85 10.1m71.55 14.9l-5.05-3 .2-2q1.9 1.6 6.35 3.4-1.25.95-1.5 1.6m15.4 17.95l2.25-.25-7.85 10.8q-5.65 7.4-6.8 8.3-2.6 2-11 1.8-7.35-.2-15-1.85l-7.5 5.1q-6.25 4.1-8 4.5l-6.4-.2q-5.75-1.1-11.7-4.85l1.1-.4 1.15-.35q8.2 4.95 15.45 3.6 1.95-.35 7.6-4l9.65-6.25q3.85-2.3 3.85-1.6-.05.7-3.2 3.1 2.3 1.05 10.6 1.25 8.85.15 11.2-1.45 1.1-.8 6.05-6.6l8.55-10.65m-73.75-5.95l-2.5.35q2.6-6.6 6.7-10.85 4.45-4.6 12.3-8.4l-.25 1.05q-.2.6-.05.95-5.8 3.15-10 7.55-4.3 4.45-6.2 9.35"/><path fill="#0d131a" d="M457.8 81.85q-1.2.2-9.05 7.55-7.15 6.75-8.9 8.8-1.15 1.4-13.8 21.05l5.9 4.95q3.5 2.6 4.9 2.75 3.05.25 23.5-4.85l6.2-17.15q.6-2.25 1.9-3.95.8-1 5.1-4.9l5.5-4.9.05-.2q.4-1-1.15-4.25-1.4-3-2.3-3.9l-9-.75-8.85-.25m-11 6.3q7.85-7.75 9.7-8.65 2.8-1.45 19.9 1.5.95.3 2.85 4.45 2.05 4.45 1.35 6.2-.4 1-3.95 3.95-4.4 3.65-7.45 7.55l-3.35 9.1q-3.25 8.9-3.45 9.85-.2 1.05-1.75 1.6-20.75 4.95-24.2 4.65-2.25-.25-7.2-3.9L424 120.2l-.6-.6.45-.7 6.65-10.35q6.4-10 7.5-11.3 1.75-2.15 8.8-9.1m66.2 34.6q-4.35-3.15-5.25-3.45l-9.35-1.95q-8.2-1.6-9.2-1.5l-10.75 4q-10.1 3.9-10.35 4.5-.2.6-.25 2.15l.05 2.35q0 1.55.15 1.9 1.45 2.15 9.25 12.1 18.4-4.25 20.25-3.85l4.25 1.05 9.85 2.25q.75-.05 3.35-1.6 2.5-1.6 3-2.25.35-.9.35-5.65 0-5.1-.4-6.05-.5-.8-4.95-4m-5.65-5.9q2.15.55 6.95 4.3 4.6 3.65 5.25 5 .6 1.2.8 6.55.2 5.55-.45 6.55-.7 1.05-3.75 3.2-3.3 2.3-4.5 2.3l-7-2.05q-6.75-2.05-7.85-2.05l-10 2.3q-8.95 2.15-10.1 1.85-1.3-.35-5.5-6.5l-4.5-6.85q-1.15-1.7-.65-7.05l.65-1.7 11.2-4.95q9.8-4.35 10.65-4.55 1.15-.3 8.9 1.35l9.9 2.3"/><path fill="#0d131a" d="M488.35 120.95q2.7-.3 14.75 2.4h.05l.05.05 4.65 2.15q3.45 1.7 3.9 2.6.5 1 .5 6.95-.05 5.8-.5 7.85l-.7.9q-.5.5-.5-.85l.15-7.35q.05-5.95-.6-6.75-.25-.5-2.55-1.85l-4.8-2.5q-11.95-2.3-14.45-2-1.1.15-6.75 2.45l-7.25 2.75-2.1.2q-.1-.3 1.6-1.3 1.9-1.1 7.05-3.2 5.6-2.25 7.5-2.5m-30.1-30.8q1.1-.55 9.55-.05l12.1 1.05-.4.6-.5.45-11.25-.45q-8.35-.35-9 0-.8.4-6.4 5.45-5.75 5.25-6.35 6.35l-2.75 6.6-4.3 10.45q-1.95 4.6-2.65 4.25-.7-.3 1-4.8l4.25-10.8 2.95-6.9q.7-1.15 6.75-6.45 5.95-5.25 7-5.75m-69.2 60q-1.2.7-3.9 4.65-2.4 3.55-3.1 5.2-.6 1.4 0 3.2 1.05 3.2 2.6 6.75 1.9 4.35 2.85 4.8l4.2.55q3.35.05 4.35-.55l3.2-2.75 4.9-3.9q2.35-1.7 3.55-2l7.55-2.15q4.45-1.45 4.35-2.05-4.25-19.3-4.8-20.6-.45-.45-3.55-1.75-3.05-1.3-3.8-1.4-.5-.1-8.1 5.15l-10.3 6.85m-1.15-2.1q3.3-1.65 9.65-5.7l9.15-6.2 5.45 1.95q3.55 1.35 4.1 2.1.8 1.1 3.1 10.8 2.4 10 1.8 11.35-.5 1.15-3.35 2.25l-9.15 2.65q-2.05.5-6.85 5-4.85 4.55-6.1 4.95-1.15.35-5.2 0l-4.6-.8q-.95-.6-4-7.45-3-6.75-2.9-7.7.25-1.85 3.8-7.1 3.5-5.35 5.1-6.1"/><path fill="#0d131a" d="M390.35 167.65q-2.2-5.1-1.7-6l2.1-4.45q2.45-4.7 4.15-5.65l17.05-10.5q2.05-1.35 3.2-1.05 1.15.35-.15 1.2l-18.55 11.1q-1.45.9-3.8 4.9-2.05 3.55-2.45 5-.3.95 2.4 6.65 2.5 5.4 3.5 6.6 1.1 1.3-1.25.55-2.3-3.25-4.5-8.35m26.6-92.4q.65-.25 2.9.75 4.6 2 7.65 4.15-.65-6.9-1.05-8.9-1.05-1.45-11.35-6.3-10.2-4.8-11.6-4.7-1.3.1-4.55 3.3-3 2.95-6.8 7.7-3.4 4.3-4 3.8-.55-.55 1.8-4l-12 .05-.7 1.75q-.8 1-1.25-2.6-.2-1.75-.8-3.7l-.9-2.25q-3.1-1.5-14.6-1.6l-12.4.65q-.85.45-3.1 5.2-2.15 4.55-3.9 9.25-1.4 3.85-1.85 3.15-.45-.75.85-5.55-10.2 2.25-11.6 3.55-1.5 1.1-4.3 7.1l-4.15 9.25q-1.4 3-1.65 1.95-.25-.95.6-3.35 5.55-15.65 7.2-16.95 1-.8 6.8-2.3l8.2-2 3.2-7.8q1.45-3.25 2.65-3.75l13.25-.65q12.35.25 15.85 2.05 1.45.75 2.35 6.55l13.45-.25q8.65-10.6 11.25-11.25 1.95-.45 13.85 5.4 11.85 5.75 12.5 7.25.4.85.6 5.4.2 5.45.35 6.4 7.1 6.55 11.5 13.7-1.45.9-1.6 1.05-4.55-7.55-10.1-12.45-4.15-3.65-11.8-8-1.35-.75-.75-1.05M193.75 140l1.5-.8q7.45 6.05 22.2 7.3 18.8 1.6 40.4-6.65l2.15.65q-22.55 9.35-39.7 8.6-15.1-.6-26.55-9.1M210 152.95q-1.3-.7-1.2-1.2l1.75.1q3.1 1.05 9.65 1.4l14.7-.8 2.85-.1q.05.4-2.55 1.3-4.85 1.75-13.4 1.45-8.25-.3-11.8-2.15"/><path fill="#0d131a" d="M205.3 135.05q8.65-1.9 16.95-1.85 12.25.05 24.25 2.25 6.55 1.25 15.3 3.7l4.95 1.4q1.05-.15 4.5-4.25 1.85-2.15 2.3-1.8.5.4-1 2.55-3.6 5.1-5.2 5.55-.9.2-6.4-1.35-8.65-2.5-14.35-3.55-11.2-2.1-23.25-2.15-18.3-.1-31.1 5.75-2.75 1.25-4.15.6-1.95-.95-4.3-5.85-.85-1.8-.35-2.15.45-.4 1.7 1.8 2.3 3.9 3.5 4.4.7.25 2.9-.7 5.9-2.7 13.75-4.35m77.8-85.85q-7.15-4.05-8.15-3.8-.55.15-6.1 6.65l-9 10.7q-3 3.5-3.55 2.75-.55-.75 2.25-4.25L260.1 48l1.4-13.45q-.05-.75-7.7-2.8-7.55-2.05-8.55-1.75-.75.2-6.8 10.4l-7.75 13.2q-1.7 2.85-2.2 2.65-.45-.2.65-2.25-16.1-.35-30.7 5.85-3 1.3-2.7.55.25-.65 1.4-1.45l3.75-2-5.35-9.75-5.8-9.9q-.7-.6-7.1 3.6-6.45 4.15-6.7 5.3-.15.75 1.3 6.9l2.65 10.8q1.15 4.5.95 5.9-.15 1.4-1.75-2.8l-7.8-6-5.35-4.1q-.65-.05-5.45 6.25-4.75 6.35-4.7 7.25.1.8 6.6 6.55l9.35 7.85q2.45 2 2 2.2-.4.2-1.65-.6l-2.35-1.4-8.35-1.15-4.8-.3q-.7.2-.95 6.5t.4 7.1q.2.25 8.35 5.1 8.35 4.95 8.9 5.35.4.35.65 1.75l.4 3.4q.2 1.6-.3 1.5-.45-.1-.75-1.4-.85-3.65-1.4-4.25-1.45-1.25-9.6-5.4-7.75-3.9-8.55-4.9-.85-1.05-.25-8.55.65-7.45 1.7-7.8 1.1-.4 11.75 1.05-5.75-4.5-9.6-8.15-3.7-3.6-3.95-4.85-.2-1.05 5.65-8.4 5.9-7.4 7.1-7.3 1.1.1 11.9 9.6-4.65-17.15-4.35-18.2.45-1.6 7.7-6.35 7.25-4.8 8.75-4.35 1.1.35 5.1 7.35l7.55 13.8q6.75-2.3 11.95-3.4 7.55-1.55 14.55-1.3l7.9-13.65q6-10.05 6.9-10.65.9-.6 9.65 2.1 8.9 2.8 9.85 4.35.45.7-3.15 25.9l9.9-12.35q3.65-4.4 4.3-4.55 1.45-.35 9.85 4.65 8.55 5.1 8.5 6.85l-4.6 10.8-6.1 14.15q-.25.6-1.55 1-1.25.35-1-.25l6.7-15.05q4.25-9.7 4.1-10.25-.25-1.15-7.45-5.3"/><path fill="#0d131a" d="M281.85 80.3q-4 1.25-3.6.3.45-1 4.3-2.4 3.45-1.3 9.25-2.9 7.15-1.95 8.15-1.45 1.2.55 3.45 7.25 2.25 6.65 1.85 8.3-.3 1.35-12.2 9.2-9.6 6.3-15.35 9.65-3.25 1.9-3.25 1.2t2.4-2.4l14-9.5q11.75-8.2 12.15-9.8.15-.75-1.3-5.65-1.55-5-2.3-5.65-.55-.45-7.6 1.2-6.1 1.45-9.95 2.65"/><path fill="#0d131a" d="M279.4 111.2l.7-6.15 1.7-.1-.35 2.5-.85 3.85q-.5 1.5-.9 1.55-.4.05-.3-1.65m-49.85-13.35q.75-1.35 3.4-4.25 2.7-3 4.9-4.85 2.25-1.9 2.55-1.7.25.2-1.55 2.2l-8.35 9.3q-1 1.05-1.35.85-.35-.25.4-1.55m-38.5-26.2q-.15.5.55 2.5l1.1 3.65q.45 2.9-.85.85-.5-.75-1.45-3.1-1-2.35-1.05-3.1l-.1-1.35q.1-.7.9-1.2l4.4-2.65 1.45-.15 1.25 1.2 2.85 4.05q.6.9.4 1.1-.15.25-1-.25l-2.05-2-1.7-2q-.45-.45-2.5.65-1.95 1.05-2.2 1.8m18.2 47.85l1.1.6 1.35.95-10.4 1q-6.9.4-9.95.2-1.9-.1-1.75-.5.1-.4 2.05-.4l9.1-.6 8.5-1.25M187.4 117q.5 2.25.25 2.45-.3.2-1.15-2-.7-1.7-1.35-4.55l-.6-3.4 2.05.05q-.05 1.05.2 3.2l.6 4.25m43.15 3.35l2.3-1.6 11.45.75q7.5.15 11.6-.25l3.7.1q-.3.5-3.6.9l-11.6.65-13.85-.55m31.8-6.6q-.65 3.25-1.1 3-.45-.25 0-3.15.35-2.45.35-6.1l-.2-4.05 2.1-.75q.45 3.55-1.15 11.05m38.15-88.2q-.9-.15-5.1 1.2-4.1 1.25-4.45 1.6-.3.35-.1 3.45.25 3.1.65 4.35.35 1.15 2.35 2.15 1.4.75 2.85 1.1.95.25 1.05.8.1.6-1.25.4-5.5-.55-6.45-3.3-.6-1.9-1.05-5.4-.5-3.9.05-4.5.6-.7 5.3-2 4.85-1.3 6.35-1.05 1.85.3 6.05 1.9 5.2 2 6.15 3.55.9 1.55 1.45 4.25l.65 3.65q.25 1.35-.05 2.5-.35 1.3-1.3 1.65l-1.75.2q-.75-.25-.05-.9.65-.7.9-1.35l.2-1.7q0-3.1-1.2-7.8v-.15q-.4-.7-5-2.5-4.4-1.75-6.25-2.1m-81.5 4.6q-.8-.35-.35-.75.45-.4 1-.3 2 .45 3.25 1.3.75.5.95 1.05.25.5.15 1.3l-.65 2.95q-.75 2.3-1.7 3-1.35 1-7.1-.9-1.35-.5-2.5-1.35-1.15-.9-1.35-1.65-.5-1.9 2.85-4.6 1.1-.9 1.4-.5.25.4-.55 1.4-1.85 2.45-1.65 3.25l1.45 1.25q1.5.9 3.45 1.35l3 .25q1.05-.8 1.7-4.95l-3.35-2.1m89.7 80.4q-.75-.25-.7-.6.05-.3.9-.25 1.25.05 3.45 1.05l1.05.8-.05 1.6q-.2 1.05-1.8 4.15l-2.15 3.9-.8 1.05-.7.15-3.65-.6q-1.85-.5-1.85-1.75l.1-4q.2-3.7.85-4.7.75-1.2.95-1.15l-.05 1.35q-.2 1.25-.15 4.15 0 2.85.25 3.55.2.65 1.6 1l1.85-.1 2.2-3.9q1.75-3.5 1.55-3.9-.2-.4-1.2-1l-1.65-.8m60.4 13.65q-.45-1.9.05-1.7l1.15 1.45q.85 1.4 1.5 4.3.75 3.6.6 7.2l-.95 5.45q-1.85 6.35-6.15 10.55-1.25 1.2-1.6.8-.4-.4.65-1.6 5-5.7 5.75-14.25.5-6-1-12.2m-204.75 8.55q.8.2-1.15 1.35-2.2 1.4-6.25 4.45-4.3 3.25-5.05 4.2-.75 1.1-2.7 15.85-1.95 14.7-1.6 16.25.9 1.3 5.9 5.75 5.35 4.75 6.45 4.65l2.95-.9 2.55-1.35.75.95q-3.85 3.15-5.95 3.5-1.7.25-7.75-4.65-5.3-4.35-6.85-6.3-1-1.3.85-17.65 1.85-16.25 2.95-17.55 1-1.1 5.5-4 4.25-2.7 6.5-3.8 2.1-.95 2.9-.75"/><path fill="#0d131a" d="M172.3 142.8l-6 1.05q-4.85.85-.35-.95 2.8-1.15 6.45-2.2 4-1.15 5-.9.95.25 3.65 3.35l3.2 4 .85 1.3q.2.45.05 1.3l-.25 5.1-.15 4.6 2.9 3.1q2.7 2.85 3.25 3.85.75-.9 3.25-2.5 1.55-.9 7.75-1.85l8.45-.45q2.25.55 8.65 3.95 6.6 3.55 8.3 5.3.85.85 1.1 2.5l.15 3.25q0 3.05-1.05 6.1-.35 1.4-4.4 2.65l-4.3 1q-1.45.25-4.55 3.15l3 2.75q.4.4 2.55.7l3.6.4 3.55.7q.9.3 1.15 1.15l.25 2.45q0 4.15-.35 6.25l-.25 1.2-.7.7-.9.6q-.65.3-1 .55l1.95 1.8q1.2 1.3 1.2 2.3l-.25 1.1q-.85 1.65-4.6 5.05-3.7 3.35-5.75 4.4l-6.25.35-10.6-.85-4.6-.3q-3.55 0-11.8-10l-1.25-1.45q-1-1.15-1.8-3.15-.9-2.15-1.1-4.15l-11.45-12.5q-9.7-10.7-10.15-11.7l-.2-1.2q0-2.2 1.45-6.35 1.3-3.85 2.35-5.4 1.05-1.5 1.35-1.25.35.25-.5 2.3-.95 2.25-1.85 6.05-.9 3.85-.6 4.65.55 1 9.15 11 8.45 9.9 10 11.45-.25-2.3 0-3.95.2-1.35.65-1.15.45.2.8 2.45l.95 5.9q.75 3.7 1.65 5.2 1 1.65 5.6 6.3 5.2 5.25 6.75 5.25l4.75.25q13.95 1 15.6.15 1.9-.95 5.25-3.9 3.4-3 4.05-4.4l.1-.3q0-.65-1-1.75-.8-.85-1.8-1.5l-5.55 2.7q7.35-5.15 8.15-6.45.55-.85.65-2.6v-2.8q0-2.15-.4-2.5l-3.25-.6-4.25-.8q-1.85-.45-2.5-1.15l-4.35-3.9.65-.65q3.9-3.9 6.15-4.25l4.6-1.1q2.45-.8 2.75-1.3.65-2.4.65-5.7 0-3.4-1.1-4.5-1.5-1.5-7.5-4.45-5.65-2.8-7.8-3.35-1.95-.45-8 .05-6 .55-7.1 1.2-.95.55-2.25 2.05l-1.85 2.3-7.9-9.8-.15-11.05q-1.55-2.3-3.5-4.45-1.8-2.05-2.4-2.35l-4.65.6"/><path fill="#0d131a" d="M179.5 159.25l4.2-.6.3 2.05-5.25-.15q-1.5-.05-1.1-.6.35-.5 1.85-.7m5.15 18.95q.7-1.7 3.15-5.8 2.25-3.8 3.15-5.05l3.55-2.15-8.75 13.55q-1.25 1.9-1.55 1.65-.3-.25.45-2.2m28.3 1.8q1.5-1 9.05-1.15 1.75 0 1.75.35 0 .3-1.55.5l-4.75.55-3.8.75-1.9 2q-1.4 1.7-1.65 2.4-.2.65 1.05 1.7l2.95 2.5q1.9 1.7 2.8 3.35.9 1.7-1.4 0l-4.05-3.25-2.65-2.25q-1-.75-.95-1.3 0-.4.85-1.55 2.95-3.75 4.25-4.6m13.1 25.25q2.45-.9.75.7l-4.35 3.7q-2.4 1.75-3.25 1.95l-5.7-.4-5.95-.75q-1-.1-2.6-1.25l-2.7-2.1q-1.2-.95-1.25-1.65 0-.7 1.15.2 2.6 1.9 5.1 2.85l11.05 1.4 5-3.45 2.75-1.2m-35.8-14.45q-.85.1-.75-.35.1-.4.7-.85.45-.35 2.65-.7l2.75-.3q1.5 0 1.8 1.25l.25 3.05v3.05q-.05.7-1.75 2.65l-2.1 2-1.75-.45-2.05-1.05q-.8-.55-.7-1.05l1.15-.05 1.9.9 1 .25 1.45-1.6 1.15-1.85v-2.65q0-2.3-.3-2.55l-5.4.3m161.9-4.8q1.25-.9 5.1-12.95 3.5-10.85 4.3-14.8.65-3.05 1.2-3.15.55-.1 0 3.45-.9 5.7-4.1 15.8-3.9 12.25-6.5 13.9V186m-12.2-49.1q.7-1.2 1.95-2.7 1.55-1.8 2.6-2.15l4.9-.2 4.9.65 1.45.85.95 2.3q2.25 7.05.95 9.35l-2.1 4.05-1.9 3.25q-.8 1-1.35.95-.6-.1.25-1.45l1.65-3.2 1.75-3.55.3-1.8-.5-4.25-.85-3.4-.5-1.2q-.25-.4-.9-.65l-3.85-.25-4.3.35q-.95.2-2.3 1.6l-2.2 2.3q-1 .9-1.2.55-.25-.35.3-1.4"/><path fill="#0d131a" d="M350.55 136.4q-1.9 1.55-2.2 2.45-.35 1 .5 5.35t1.5 4.65q.65.3 3.15-1.85 2.4-2.05 2.9-3.1.35-.8.6 0l.2.9q-5.75 6.35-7.65 6.05-1.3-.2-2.35-5.65-1.05-5.2-.6-6.5.45-1.2 6.55-5.65l1.35.45q-2.85 2-3.95 2.9m6.2 18.4q.85-.55-.05 2.45l-1.8 5.15-1.25 2.65q2.75 2.25 3.45 4.15.4 1.05-2.15 10.75l-3.15 10.85q-.4 1-3.2 1.3-2.4.25-8.1.1-2.4 7.9-3.45 9.2-.65.9-6.6 3.1L323 207l-2.05.6-1.7.1-5.55-.4-7.1 1.9-5.85 1.75-2.15 1.55-3.6 2.5-4.6 3.5q-2.4 1.9-4.2 2.45l-12.55 2.6-11.9 2q-1.55.1-2.25-.4l-1.35-1.5-3.65-4.3q-2.9-3.6-3.35-4.75l-4.55-.9q-3.65-.75-4.45-1.35-.7-.5-.7-3.05l.15-4.95q0-4.65.55-5.65.45-.9 1.5-1.05l2 .15 2.5.1q1.05-.15 4.4-2.65 3.3-2.5 3.55-3.25l.25-1.75v-1.75l-11.7-.55q-3.4-.25-3.85-2.45-.6-2.65-.6-6.65 0-1.4.3-1.95.95-1.4 5.7-5.3 5.5-4.55 8.5-5.45 2.9-.85 10.65-1.45l9.3-.4q1.35 0 3.6 2.5 1.65 1.85 4.5 5.9l3.75-1 5.05-1.45q1.05-.35 3.45-3.2l4-4.9 2.35.15-3.55 4.55q-3.35 4.15-5 4.7-6.6 2.15-10.2 2.95-3.05.7-2.65 0l1-.85q-5.15-7.45-6.95-7.45l-8.9.65q-7.15.8-9.9 1.65-2.6.8-7.8 4.75-4.55 3.4-5.45 4.6l-.05.75q0 1.4.75 6.65 0 .5 7.8 1.15l7.75.55-.05 3.7-.15 1.8q-.25.85-1.6 1.8l-3.85 3.1q-2.65 2.05-4.15 2.25l-3-.1-1.1.05q-.55.2-.75 1.05-.2.85-.15 2.7l.05 3.2q0 2.15.15 3 .1.8.5 1.3 1.25.85 7.35 2.15l.3.1q8.25 9.6 9.15 9.85l12-1.75 12.65-2.4q1.8-.6 8.95-5.55l3.05-2.35q1.15-1.05 2.55-1.5 7.25-2.2 12.95-3.4l4.8-.25 2.9.15 7.45-2.7q6.6-2.6 7.05-3.4 2.8-5.05 3.35-7.75-5.2-.15-6.1-.85-.85-.65 1.35-.8l8.4.05 7.9-.7q1.45-1.15 5.25-19.85.2-.9-2.85-3.1l-4.45-3q-3.25-2.45-1.2-1.75 1.5.5 5.25 2.25l3-6.95q.8-2 1.6-2.5"/><path fill="#0d131a" d="M314.35 137.15q1.9 0 2.25 2.75.15 1.05-.15 1.65-.35.6-.55.1l-.45-1.45q-.45-1-1.05-1.05-1.3-.05-8.5 4.65-7.5 4.85-8.3 6.75-.45 1.15-.2 5.85.25 4.65.65 5.05.6.6 10.5-.8 9.95-1.4 10.8-2.15.6-.5.45-2.85-.05-1.45.5-1.55.5-.15.75 1.2l.5 2.55q.2 1.3-.4 1.85-1.45 1.3-12.1 2.55l-12 .85q-.95-.1-1.65-4.75-.7-4.9.15-8.1.45-1.8 9.05-7.5 8.3-5.55 9.75-5.6m-60 45.75l2.55.4 1.25.75q.35.5.3 2.85l-.3 4.3q-.3 2-1 .6t-.6-3.5q.15-2.55-.15-3.2-.15-.35-.9-.5l-6.5-.7-5.7-.6q-2-.4-1.8-.85.15-.4 1.5-.4l5.4.35 5.95.5m16.3 23.35q.15.4-1.75 1.45l-7.25 3.6-7.05 3.15-2.65.4-5.1-1.3q-3.8-1.05-2.85-1.65l3.5.1q4.35 1.25 6.8.45l6.55-2.8 7.6-3.1q2.05-.7 2.2-.3m27.6-9.4l-.75-6q-.15-1.05.25-1.4.45-.3.95 1.15l.8 3.65.6 2.6q.3.6 2.05.9l2-.1 2.1-3.1q1.75-2.85 1.75-3.7-.75-.45-2.75-1.2-.9-.35-1.05-1-.2-.6.95-.3l1.75.4q.75.2 1.7.7 1.1.6 1.2 1.1l-.5 1.85-2.05 3.95q-1.6 2.55-2.5 2.85l-2.5.2-2.6-.35q-.85-.25-1.1-.8l-.3-1.4M235.4 183.1q-.6-.85-.2-1.1.4-.2 1.15.3 2.15 1.5 3.2 2.95.7.9-.4 2.7l-2.55 2.4-3 2q-1.05.35-2.5-1-1.15-1.1-1.8-2.35-.85-1.7 1.05-4.3.7-.9 1.1-.7.4.15-.1 1.4l-.85 1.9q-.3.7-.1 1.15l1.4 1.75 1.2.65q.45-.15 2.7-2.1 2.25-2 2.35-2.4.1-.3-.95-1.4l-1.7-1.85m-37.45-68.95q1.6.35 2.4 1.25 0 3.55-1.25 3.55-.7 0-1-1.25-.35-1.3-.15-3.55m44.9 3.95q-1.45 0-1.25-3.75.8-.8 2.55-1.2.2 2.2-.2 3.6-.35 1.35-1.1 1.35"/><path fill="#0d131a" d="M211.3 119.65q1.45.85 1.3 1.5l-1.7-.05-10.7-5.25q-10.1-4.75-15.85-6.2-2.45-.6-2.3-1.5.15-.9 2.75-.2 5 1.4 13.8 5.35 8.4 3.7 12.7 6.35m18.85 1.3q-2.4 1.25-2.7.7-.3-.55 2.05-2.05 2.55-1.65 15.1-8.35 13.1-6.95 18.35-9.4 4.2-1.9 4.35-1.1.15.85-4.15 2.95l-16.9 8.8-16.1 8.45m-18.85-8.85q.2-2.4.9-2.5.7-.1.65 2.55l-.05 4.55q-.05 2.1-.4 2.15-.35 0-.7-2.1-.55-2.7-.4-4.65m14.7 5.75l-1.05-3.8q-.35-2 0-4.3.25-2 .9-2.05.65-.05.6 1.75-.1 4.4.5 8.7.1 1.05-.25.9-.4-.1-.7-1.2"/></svg>