<svg xmlns="http://www.w3.org/2000/svg" width="353" height="360" viewBox="-0.05 0.0 353.45 359.9"><path fill="#696838" d="M283.4 96.85q1.65 7.55 2.3 13.55.65 5.95-.85 17.45-1.45 11-2.6 11.75-.85.6-6.75 7.5l-5.75 6.8-107.95-.6-8.35-22.65q23.35-15.8 47.05-31.6 47.35-31.55 49.1-31.25 6.45 1.1 15.1 5.3 9.65 4.7 13.6 9.5 2.65 3.3 5.1 14.25"/><path fill="#dbd2a9" d="M306.85 304.7q3.35-.15 9.55 1.8 8 2.45 9.5 6.25.3.8-6.8 1.35l-7.15.35-5.1-9.75"/><path fill="#696838" d="M149.35 284.6l-1.95-1.9-1.6-1.95 30.4-22.95 31.4 8.25 12.25 9.5q-20.45 8.8-27.7 11.6-5.05 1.95-21.25.75-15.1-1.15-21.55-3.3"/><path fill="#dbd2a9" d="M106.15 299q3.25 0 10.6 2.05 8.25 2.3 6.85 4-1.3 1.55-10 5.9-4.3 2.2-8.4 4.05l.95-16"/><path fill="#fff3c2" d="M221.6 297.1l-1.55 14.55-8.75-4.9-2.6-1.65q-1.5-1.2 3-3.85 4.2-2.45 9.9-4.15"/><path fill="#d3965c" d="M103.7 291.6q.3 2.65 2.7 7.9 2.35 5.1 2.5 7.5.2 3.35-3.15 7.6-3.3 4.15-6.8 5.15-4.2 1.15-17 7.5-14.05 7-18.9 11-5.1 4.2-22.3-3.55-7.05-3.2-12.25-6.95-5.5-4-6.25-6.75-1.75-6.35.7-10.75 3.25-5.7 15.7-14.05 0-2.2-1.25-6.55l-2.45-8.4q-3.05-11.8-.7-20.1 2.35-8.3 11-21.6 9.8-15.05 16.95-18.2l41.35 34.4 9.5 22.35q-4.5 2.7-6.55 5.1-3.35 3.8-2.8 8.4"/><path fill="#ad7b49" d="M103.55 255.75l9.5 22.35q-4.5 2.7-6.55 5.1-3.35 3.8-2.8 8.4.25 2.2 1.45 5.15l2.35 5.1q2.05 4.2 0 9.8-2.3 6.4-8.55 8.1-4.2 1.15-17 7.5-14.05 7-18.9 11-2.6 2.15-6.15 1.95-4-.2-3.3-4.35.6-3.4 3.95-6.4 3.85-3.45 4.85-5.75 1.2-2.9-7.65-7.95-10.75-6.05-12.65-9.1-.25-.35 11-2.5 12.8-2.4 16.85-5.1 12.95-7.1 5.35-31.9-5.8-18.75-20.2-40.35 3.95-4.1 7.1-5.45l41.35 34.4"/><path fill="#d3965c" d="M285.05 233.1l2.75 6.1q3.2 6.85 5.65 10.75 11.3 18 9.35 33.15-.95 7.55-4.15 11.5l4.35 5q5 6.3 8.15 12.6 1.8 3.55-3.1 10.1-4.35 5.85-12.2 11.85-7.75 5.9-14.35 8.55-7.25 2.9-9.5.2-4.2-5.05-21.1-14.2-14.3-7.75-23.05-11.05-6.45-2.45-8.45-6.35-1.85-3.7.05-9.2 1.4-3.9 5.3-8.05 3.85-4.05 4.4-5.85-3.65-6.4-9.3-11.2-3.65-3.05-9.65-6.45L237.5 240l47.55-6.9"/><path fill="#ad7b49" d="M285.05 233.1l2.75 6.1q3.2 6.85 5.65 10.75 11.3 18 9.35 33.15-.95 7.55-4.15 11.5l4.35 5q5 6.3 8.15 12.6 2.2 4.35-5.35 12.85-6.8 7.7-16.65 13.7 6.8-9.1-2.05-18.1-5.85-5.95-21-13.45-2.2-1.1-2.35-1.55-.35-1 .95-5.25 2.55-8.25-.5-16.3-2.85-7.35-9.85-13.35-6.75-5.75-15.65-8.95-9.05-3.25-17.95-3.05L237.5 240l47.55-6.9"/><path fill="#fff3c2" d="M26.2 321.15l-3.8 2.4q-13.75 2.55-15 1.9-.95-.5 5.95-6.3 6.85-5.85 8.65-6.2 1.55-.25 2.8 2.85.95 2.3 1.4 5.35"/><path fill="#dbd2a9" d="M18.8 324.15q4.05-3.2 6-6.3 1.05 1.65 1.3 3.3l-3.7 2.4-3.6.6"/><path fill="#fff3c2" d="M33.2 330.5q-14.4 5.5-19.05 5.95-3.35.3 3.8-7.6 7.2-7.95 10.15-8.25 2.4-.3 3.75 3.9l1.35 6"/><path fill="#dbd2a9" d="M32.2 325.75l1 4.75-11.3 4q4-2.55 10.3-8.75"/><path fill="#fff3c2" d="M43.5 328.1q1.75 3.1 2.4 5.8.55 2.4-9.3 6.3-9.75 3.85-10.4 2.8-.6-1.05 4.05-8.1 5.1-7.65 9.3-9.9 1.65-.9 3.95 3.1"/><path fill="#dbd2a9" d="M45.9 333.9q.4 1.65-4.5 4.15-4 2.1-9.45 3.8 1.65-3.2 5.2-7.25l6.05-6.9q1.9 3.05 2.7 6.2"/><path fill="#fff3c2" d="M60.25 338.75q0 1.1-10.35 5.85-10.3 4.7-10.8 3.9-.6-1.1 4.15-8.75 5.2-8.25 9.4-10.5 1.75-.9 4.75 3.4 2.85 4.05 2.85 6.1"/><path fill="#dbd2a9" d="M60.25 338.75q0 .65-7.25 4.4-6.8 3.45-11.95 5.6 2.15-3.75 7.15-8.95 4.7-4.9 8.7-7.8 1.35 1.75 2.35 3.8 1 2 1 2.95"/><path fill="#fff3c2" d="M304.3 326.1q-2.15-.05-.3-5.55 1.8-5.5 4.55-5.9 2.95-.45 11.6 5.85 8.65 6.25 5.3 6.8-2.8.5-11.3-.3l-9.85-.9"/><path fill="#dbd2a9" d="M308.55 314.65q2.45-.35 9.8 4.55 7.25 4.9 7.8 7.2-9.35-7.95-19.55-10.55 1-1.05 1.95-1.2"/><path fill="#fff3c2" d="M290.4 335.55q.85-3.85 2.15-6.65 2.3-4.95 5.25-4.95 3.1 0 9.9 8.35 6.55 8.1 5.95 9.15-.65 1.1-12.2-1.2-11.6-2.3-11.05-4.7"/><path fill="#dbd2a9" d="M313.55 341.5q-2.85-4.9-8.55-9.25-3.6-2.8-10.4-6.65 1.5-1.65 3.2-1.65 3.1 0 9.9 8.35 6.55 8.1 5.95 9.15l-.1.05"/><path fill="#fff3c2" d="M276.4 332.4q4.8-3.3 8.7 5.7 2.05 4.65 3.2 11.85 1.05 6.85.2 7.35-.75.5-8.25-5.95t-7.6-7.55q-.4-3.7.75-6.95 1.05-3.1 3-4.45"/><path fill="#dbd2a9" d="M288.5 357.3l-.5-.1q-2.95-15.1-9.55-25.55 3.8-.25 6.65 6.45 2.05 4.65 3.2 11.85 1.05 6.85.2 7.35"/><path fill="#d3965c" d="M69 123.85q2.9 7.55-5.8 24.95-4.35 8.7-9.3 15.9-4.4-1.45-9.5-4.5-7.25-4.35-9.5-8.85 7.4-9.9 15.35-18.3 15.9-16.75 18.75-9.2"/><path fill="#ad7b49" d="M69 123.85q2.2 5.7-2.3 17.15-3.1 8-8.9 17.5-9.25-6.4-21.75-5.35l-1.15-1.8q7.4-9.9 15.35-18.3 15.9-16.75 18.75-9.2"/><path fill="#d3965c" d="M61.85 90.75q3.9 12.6 4.65 19.5.45 4.05-1.15 9.95-1.75 6.35-5.25 12.2-8.85 14.8-22.8 17.9-9.45 2.1-18.95-3.35-7.4-4.3-11.45-10.6-3.25-5-4.15-31.35Q1.9 78.1 5.2 68.95l51.55 7.45q1.75 3.45 5.1 14.35"/><path fill="#ad7b49" d="M16.9 86.95L12.1 82q-4.45-4.5-8.3-6.95.55-3.95 1.4-6.1l51.55 7.45q1.75 3.45 5.1 14.35 3.9 12.6 4.65 19.5.7 6.2-3 15.25-4.15 10.2-11.45 16.9-2.7-8.75-15.85-27.7-14.7-20.45-19.3-27.75"/><path fill="#d3965c" d="M80.8 46.4q2.75 4.65 1.5 11.55-1.2 6.8-5.2 10.6-3.25 3.15-10.55 3.95l-6.65.2q-2.15 4-13.3 7.65-12.25 4.05-19.5.8-16.9-7.55-23.05-13.7Q1.4 64.8 1.8 56.6l1.8-16.1Q5 28.4 15.4 20.05q10.85-8.75 21.7-4.55 4.1-3.35 9.3-3.8 5.75-.5 9.4 3.15l7.1 7.3q3.2 3.9 2.9 7.7-.6 7.65-7.6 16.3 9.45-2.35 11.2-2.55 9.05-1.2 11.4 2.8"/><path fill="#ad7b49" d="M50.9 30.75q-1.65-2.3.45-4.1 1.85-1.5 5.65-2l6.5.4q3.15.95 3.15 3.15-.4 4-3.1 9.45-2.35 4.75-5.35 8.5 9.45-2.35 11.2-2.55 9.05-1.2 11.4 2.8 2.75 4.65 1.5 11.55-1.2 6.8-5.2 10.6-3.25 3.15-10.55 3.95l-6.65.2q-2.15 4-13.3 7.65-12.25 4.05-19.5.8-7.65-3.45-13.5-6.8 3.95-1.15 2.9-7.3-.7-3.7-3-8.55-1.2-2.45 0-13.35 1.2-10.45 2.55-13.3.9-1.9 4.45-.6 4.75 1.75 6.75 1.35l9.4-2.7q7.25-1.5 14.25.85"/><path fill="#fff3c2" d="M51.45 32.05q1.6-1.75 7.15-2.2 5.95-.5 7.4 2.2 1.45 2.55-2.55 8.4-2.9 4.25-6.15 7.25-2.15-2.85-4.75-6.85l-2.2-3.4 1.1-5.4"/><path fill="#dbd2a9" d="M66 32.05q1.3 2.35-2.05 7.65-2.5 3.85-5.95 7.3-1.6-7.75-5.3-15.8 3-1.4 7.2-1.4 4.85-.05 6.1 2.25"/><path fill="#fff3c2" d="M42.5 31.55q3.1-.1 3.95 1.15 6.25 9.1 4.1 18.65-.7 3.2-2.15 5.55-1.3 2.05-1.75 1.65-1.2-1.2-6.55-5.45-6.8-5.4-12.15-8.9-.55-7.55 8.1-11.2 3.3-1.4 6.45-1.45"/><path fill="#dbd2a9" d="M46.45 32.7q4.7 6.9 4.6 14.3-.1 5.4-2.45 9.55-.85-8.4-2.85-13.75-2.8-7.6-8.1-10.4 3-.95 5.55-.85 2.55.05 3.25 1.15"/><path fill="#fff3c2" d="M60.55 42.9q-.75-8.55.45-9.8 1.5-1.5 9.85 4.75 8.3 6.25 7.55 8.55-4.2 12.35-10.55 12.25-2.25-.05-4.15-1.7-1.65-1.5-1.8-2.95l-1.35-11.1"/><path fill="#dbd2a9" d="M61 33.1q1.5-1.5 9.85 4.75 8.3 6.25 7.55 8.55-2.55 7.5-6.05 10.45-2.8 2.4-5.85 1.6.55-4.8-.85-11.55-1.65-7.95-5.1-12.8.15-.7.45-1"/><path fill="#696838" d="M316.15 194.75q-2.45 5.85-7.85 13.7-6 8.8-9.5 10.3l-12.8 5.6-12.45-38.45 30.85-40.85 9.4 9.8 2.25 17.45q1.85 18.25.1 22.45"/><path fill="#85834a" d="M142.6 47.55L123.35 79.3 83.8 83.05l-.7-5.35q-.6-5.75.1-7.5.9-2.15 4.25-6.1 4.95-5.85 11.4-10.1 7.9-5.15 19.65-10.1 9.65-4.1 12.2-4.45 2.45-.35 7.4 3.85l4.5 4.25"/><path fill="#696838" d="M134.35 40.55q3.85 2.25 8.25 7L123.35 79.3 83.8 83.05q-.9-5.2-.95-9.15 4.7 3.6 11.2 3.6 23.85 2.65 40.3-36.95"/><path fill="#85834a" d="M81 83.6q3.7-1.9 9.5 0l24.65 50.05-52.6 13.6-4.45-16.2q-.45-1.4 1.55-9.8 2.1-8.85 4-11.95l8.45-13.9q6.8-10.75 8.9-11.8"/><path fill="#696838" d="M62.55 147.25l-4.45-16.2 6.55 1.9q5.35.9 10.2-1.15 5.35-2.25 15.05-10.45 9-7.65 11.25-11.1 1.25-2-2.85-10.85l16.85 34.25-52.6 13.6"/><path fill="#85834a" d="M68.1 197.7l28.75-5.1 10.55 54.6L97.2 259q-6.2.35-7.3 0-2.7-.9-12.95-10.1-9.4-8.4-11.6-11.15-1.45-1.8-3.1-16.25-1.4-12.3-1.4-15.8 0-1.4 3.65-4.85l3.6-3.15"/><path fill="#696838" d="M68.1 197.7l28.75-5.1 6.05 31.45 1 1.1-.45 1.7 3.95 20.35L97.2 259q-3.75.45-7.3 0 1-2.9-1.2-14.35-2.05-10.6-3.2-12.65-2.7-4.7-8.25-11.75-8.7-11-16.1-15.55.9-1.6 4-4.45l2.95-2.55"/><path fill="#85834a" d="M228.2 48.4l-45.35 28.8-42.65-25.1q0-1.8 4.75-8.15 4.2-5.65 5-6.2l20.6-4.75q21.05-4.65 23.35-4.05 4.5 1.1 15.5 5.1 12.95 4.65 14.15 6.45l4.65 7.9"/><path fill="#696838" d="M207.9 49.45q14.4-7 15.3-9.85l5 8.8-45.35 28.8-23.35-13.75.2-.05q3.55-.9 11.5-1.9 7.45-.95 11.5-2.1 10.95-3 25.2-9.95"/><path fill="#85834a" d="M270.8 87.75q.65 5.6-2.35 13.75-2.55 7.05-4.1 8.1-1.4.9-18.05 5.85l-54.9-2.95-11.35-33 6.25-7.9q7.4-8.65 13.2-12.1 6.8-4.05 20-9.4 13.05-5.3 15.15-4.95 3 .5 13.85 5.65 12.15 5.8 14.9 9.15 2.65 3.25 5.05 14.25 1.6 7.1 2.35 13.55"/><path fill="#696838" d="M270.8 87.7v.05q.65 5.6-2.35 13.75-2.55 7.05-4.1 8.1-1.4.9-18.05 5.85l-54.9-2.95-11.35-33 5.3-6.55q6.3-7.35 11.35-11.4l.05 3.35q0 2.4.15 3.45 2.8 22.55 5.05 23.85 2.65 1.55 16.9 4.6 16.8 3.55 25.95 2.8 6.25 0 14.7-4.5 5.5-2.9 11.3-7.4"/><path fill="#85834a" d="M68.1 141.7q8.4-6.1 10.05-6.75l9.45-1 7.7-.35 28.85 4.9-35.9 57.2-7.3 4.15q-15.75-1.45-18.05-3.3-2.55-2-6.85-7.05-5.05-5.95-4.75-7.75l1.95-16q2.05-14.25 4.05-15.95l10.8-8.1"/><path fill="#696838" d="M61.85 195.95q5.5-2.55 11.4-7 5.5-4.25 6.9-6.6 1.7-2.75 4.6-22.1 3.05-20.05 1.05-21.65-1.8-1.4-4.2-2.25l-3.95-1.3q5.1-1 10.3-1.35 3.9-.3 7.35-.1l28.85 4.9-35.9 57.2-7.3 4.15-9.1-.6q-9.25-1.1-10-3.3"/><path fill="#85834a" d="M96.4 241.95l1-6.8q.3-2.1 4.05-6 2.7-2.85 5.05-4.65l67.6-1.75 4.2 39.9q.25.75-4.5 5.1-5.5 5-6.3 6.15-1.85 2.75-40.25 11.1-1.5.3-12.9-5.45-9.9-5-13.95-7.5-2.45-1.55-3.7-8.85-.95-5.5-.95-12 0-4.1.65-9.25"/><path fill="#696838" d="M157.3 245.15q-2.45-1.75-19.65-4.1l-19.55-2.15q-3.05-.15-10.35 3.4-7.75 3.75-12 7.9-.05-4.2.8-9.95L97.7 233q.3-2 3.75-4.85l4.75-3.5 67.9-1.9 4.2 39.9q.2.65-2.95 3.65l-5.7 5.25q1.6-3.8 2.05-6.25.65-3.15-.3-4.95-2-4.25-6.75-8.95-3.35-3.35-7.35-6.25"/><path fill="#85834a" d="M287.4 228.45q-4.35 11.7-6.45 13.5-2.9 2.5-18.35 7.5-16.4 5.3-20.5 4.05-3.8-1.15-6.65-2.3l-2.15-.95 17.05-42.45 38.05-3.35q1.8 2.2 2.9 4.75 1.4 3.25.8 5.4-1.6 5.5-4.7 13.85"/><path fill="#696838" d="M292.1 214.6q-3.05-.05-10.95 3-8.9 3.4-12.75 7-4.55 4.3-13.4 14.65-9.3 10.85-11.4 14.6l-7.4-2.5-2.9-1.1 17.05-42.45 38.05-3.35q1.8 2.2 2.9 4.75 1.4 3.25.8 5.4"/><path fill="#85834a" d="M264.35 143.65l14.45-2.25q14.8-2 16.55-.85 2.75 1.85 12 11.1l-.3 10.2q-.3 10.9-.6 14.35-.4 4.8-4 13.75-3.95 9.75-7.1 11.7l-11.05 7.8q-8.35 5.7-12.05 5.4-4.5-.35-9.85-1.9-5.3-1.55-6.7-2.95-1.35-1.35-4.55-7.3-3.2-5.9-3.2-6.95l-2.2-38.7q-.85-.85 8.8-7.2 4.8-3.2 9.8-6.2"/><path fill="#696838" d="M264.35 143.65l14.45-2.25q14.8-2 16.55-.85 1.85 1.25 11.75 10.8-3.4.05-16.1 4.1-12.1 3.8-12.75 4.5-1.6 1.9-8.15 14.25-7.05 13.3-6.1 14.65.45.65 3.3 10.5 3.05 10.5 5.65 15.45l-.7.05q-4.5-.35-9.85-1.9-5.3-1.55-6.7-2.95-1.35-1.35-4.55-7.3-3.2-5.9-3.2-6.95l-2.2-38.7q-.85-.85 8.8-7.2 4.8-3.2 9.8-6.2"/><path fill="#85834a" d="M247.15 194.25q7.9 13.9 8.35 15.3l1.95 7.4q1.6 6.5 1.3 7.4l-3.15 7.05q-3.35 6.7-6.6 10.55-3.5 4.2-18.95 15.85-14.85 11.25-17.15 11.9l-10.75.4q-8.9-.25-11.95-1.3-3.45-1.2-7.9-4.1-4.75-3.1-5.05-4.7-5.1-33-5.55-34.4-.2-.6 1.65-4.85 2.05-4.8 4.75-9.6 7.8-13.7 14.05-15.2l55-1.7"/><path fill="#696838" d="M192.15 195.95l55-1.7q7.9 13.9 8.35 15.3l3.05 15.35q-3.5-4.4-7.8-9.2l-3.65-3.95-16.9 1.5-20.1 3.75q-5.45 3.5-11.2 8-11.5 9-12.95 14.1 0 6.75.85 13.45 1.3 10 4.2 16.95-3.65-1.5-8.35-4.65-5.1-3.35-5.4-4.85-1.9-8.55-3.35-16.35-2.8-15.25-1.75-18.45 1.8-5.6 6.5-14.25 7.35-13.5 13.5-15"/><path fill="#85834a" d="M219.05 109.25q19.2 2.1 21.65 3.5 1.65.95 7.25 3.75 5 2.7 6.15 4.1 2.8 3.45 8.95 18.85 6.65 16.6 6.35 21.9-.25 4.8-8.15 17.4l-8.5 13.2q-.65 1.55-7.05 5.15-5.85 3.25-8.7 4.1l-20.1.7-19.75-.7q-1.75-.6-9.35-19.1l-10.1-25.35q-2.4-6.05-2.2-13.95.2-6.05 1.3-8.75l19.2-26.2q3.85-.7 23.05 1.4"/><path fill="#696838" d="M219.05 109.25q19.2 2.1 21.65 3.5 1.65.95 7.25 3.75 5 2.7 6.15 4.1.9 1.1 6.4 13.6-2.75-3.35-7.6-7.95-4.55-4.3-6.85-5.85-1.4-.95-7.9-1.85l-13.05-.85q-4.3.1-11.65 1.55-2.3.4-10.95 10.9-8.45 10.3-8.85 12.6-.55 3.1 5.85 26.05 6.55 23.5 8.95 23.9l20.45-.85q18.1-1.5 20.3-3.3 3.5-2.85 15.1-14.75l-7.2 11.2-4.35 6.95q-.65 1.55-7.05 5.15-5.85 3.25-8.7 4.1l-20.1.7-19.75-.7q-1.75-.6-9.35-19.1l-10.1-25.35q-2.4-6.05-2.2-13.95.2-6.05 1.3-8.75l19.2-26.2q3.85-.7 23.05 1.4"/><path fill="#85834a" d="M166.35 139.8q6.15 2 8.6 4.45Q177 146.3 185 169.8l9 27.25q1.15 3.45-4.1 10.35-2.65 3.55-6.15 7.2-.8 1.15-7.6 6.6-7.1 5.7-10 7.3-3 1.65-17.2 2.3-13.7.65-20-.3-7.2-1.05-17.9-3.75-12-3.1-12.9-4.65-1.7-2.8-5.2-10.35-4.2-8.95-4.2-11.05v-10.3q.1-8.35 1-10.95.85-2.6 9-19.15l8.4-16.95q.9-1.75 2.95-2.7 1.25-.55 4.2-1.55 7.7-3.2 22.95-2.6l17.75 1.25q5.2 0 11.35 2.05"/><path fill="#696838" d="M173.3 180.15q-8.5-18.8-9.8-20.25-2.35-2.75-17.45-4.85-18.45-2.6-36.05.7 0-.5-1.4-3.5-1.5-3.25-1.85-5.3-1.1-7.05 9.2-8.35 17.35-2.1 32.1-1.3 21.65 1.15 27.85 8.7 1.15 1.9 9 23.6l9 25.55q1.75 5.2-3.7 12.45-2.8 3.65-6.45 7-.55.75-4.1 3.75.8-3.75 1.4-12.1l.5-7.65-8.25-18.45"/><path fill="#d3965c" d="M172.15 63.65q3.45 1.25 14.5 18 10.6 16.1 10.95 19.05.65 4.85-4.25 15.5-3.8 8.35-7.4 13.4-2.2 3.2-17.65 7.75-14.15 4.2-20.8 4.65-3.5.2-12.25-1.95-9.45-2.3-15.75-2.45-9.1-.2-16.5 1.05-4.05.7-5.45-.5-4.55-3.95-6.1-7.7-1.4-3.5.05-6.05 1.5-2.6 6.4-6.75 4.45-3.75 4.6-4.75.35-2.5-4.55-6.95-1.95-1.8-8.1-6.5-2.75-2.15-3.25-7.2-.4-3.8.5-7.9.55-2.4 4.6-8.05 4-5.5 6.85-8 2.65-2.3 36.3-4.25 33.2-1.9 37.3-.4"/><path fill="#ad7b49" d="M172.15 63.65q3.45 1.25 14.5 18 10.6 16.1 10.95 19.05.65 4.85-4.25 15.5-3.8 8.35-7.4 13.4-2.2 3.2-17.65 7.75-14.15 4.2-20.8 4.65l-6.7-.55-8-1.8q3.55-1.5 4.2-5.35.5-3.3-.85-4.95 1.45 0 3.55-2.2l3.55-3.95q3.9-3.9 7.65-11.65 4.05-8.4 3.25-12.5-3.8-5.7-13.25-9.4l-11.6-3.75q-2.35-.95-12.9-1.3l-10.1-.1-4.05-7.95q-4-8.05-3.7-8.25 2.65-2.3 36.3-4.25 33.2-1.9 37.3-.4m-85.5 29.1q-.45-3.55.3-7.6.3 4.5 4.35 6.5 2.95 4.1 14.3 15.6 10 11.2 10.7 18.3l-13.05-1.5q-7.55-.55-10.4 3.75-.55.55-.45 2.1v2.4q-2.75-4.65-.9-7.9 1.55-2.65 6.45-6.55 4.35-3.45 4.55-4.95.35-2.5-4.55-6.95-1.95-1.8-8.1-6.5-2.6-2.05-3.2-6.7"/><path fill="#922f00" d="M93.25 98.8q-1.3-1-1.85-2.45-.85-2.2.4-4.9l18.8-1.2q16-.2 18.8 1.5l3.05 1.8q-13.8 4.7-22.1 13.45-9.55 10.05-7.75 22-5.7.1-7.25-1.3-2.55-2.2-1.2-4l5.6-5.05 5.1-4.6q.9-1.6-1.3-5.45-2.05-3.6-6.4-7.05l-3.9-2.75"/><path fill="#ed8599" d="M133.15 93.55l5.45 3.05q3.1 1.6 5.6 2.3l13.15.3q10.55.05 14.6 2.95l-11.7 10.75-12.75 11.5q-2.75 2.8-6.55 3.55-4.25.85-13.2.05-4.9-.45-13.1.15l-12.05.85q-1.25-12 8.4-22 8.4-8.75 22.15-13.45"/><path fill="#ce7486" d="M132.95 93.55l5.6 3.05q3.15 1.55 5.65 2.3l13.15.3q10.55.05 14.6 2.95l-15.05 13.7Q137 101.1 115.05 103.2q6.95-5.95 17.9-9.65"/><path fill="#fff" d="M94.25 126.35q-.6-.95.15-5.1.7-3.9.95-4 .25-.1 2.85 4.65l3.45 6.65-3-.05q-3.25-.45-4.4-2.15"/><path fill="#dbdcdc" d="M101.65 128.55l-4.15-.3-.95-4.95q-.7-3.2-.4-5 1.9 3 5.5 10.25"/><path fill="#fff" d="M136.55 128.2q-1-.55.15-5.6 1.1-5.1 2.2-5.1.4 0 3.5 3.75 3.15 3.85 3 4.6-.25 1.05-3.6 2.15l-5.25.2"/><path fill="#dbdcdc" d="M145.4 125.85q-.15.55-1.5 1.15-1.35.65-3 .95 1-1.15.5-4.2l-1.25-5.1 3.45 4.05q1.95 2.6 1.8 3.15"/><path fill="#fff" d="M162.6 81.3q-6 1.05-16.45-2.15l-13.45-4.7 3.95-3.35 16.45-3.45 15.25-1.45q-.3 2.25-1.95 7.15-2 6-3.8 7.95"/><path fill="#dbdcdc" d="M168.35 66.2q-.2 2.15-2.15 7.8-10-2.45-18.45-1.55-7.65.9-9.85 3.85l-5.2-1.85 4.5-3.75 15.9-2.85 15.25-1.65"/><path fill="#b50029" d="M138.75 76.35q-.8-1.35-.75-2.7.05-1.1.75-3.3.7-2.45 8-4.2 7.4-1.8 7.9 1.7.75 5.45-.85 8.75-1 1.95-3.35 3.75l-11.7-4"/><path fill="#8f001a" d="M154.65 67.85q.55 4.2-.25 7-4.05-2.85-8.95-2.45-4.75.4-7 3.45-.5-1.2-.4-2.45.1-1 .7-3.05.7-2.45 8-4.2 7.4-1.8 7.9 1.7"/><path fill="#d3965c" d="M171.95 65.95q-3.75-.15-19.2 2.2-16.05 2.5-17.6 3.8l-5.4 5.4q-4.1 4.15-5.6 4.8-1.8.8-15.45 1.25-13.55.45-15-.15-1.4-.6-2.6-2.4-1.2-1.75-1.2-3.05 0-1.1 1.8-3.9 1.5-2.3 3.35-4.45-1-3 1.75-7 3.2-4.8 9.95-7.65 6.95-2.9 21-4.05 13.2-1.1 18.15.25 5 1.35 14.15 4.6 9.65 3.45 11.15 4.55 2.7 2.1 3.6 3.55 1.4 2.4-2.85 2.25"/><path fill="#ad7b49" d="M171.2 60.15q2.7 2.1 3.6 3.55 1.4 2.4-2.85 2.25-3.75-.15-19.2 2.2-16.05 2.5-17.6 3.8l-5.4 5.4q-4.1 4.15-5.6 4.8-1.8.8-15.45 1.25-13.55.45-15-.15l-1.5-1.15-1.35-1.4q-1.4-2.1-.45-3.8l.95 1.45q1.1 1.6 2.4 1.8 2.5.35 12.85-.2 11.5-.65 13.2-1.95l6.8-5.8q5.3-4.5 7.1-5.25 1.55-.6 14.9-3.9 12.65-3.7 12.85-6.9 8.4 3 9.75 4"/><path fill="#d3965c" d="M333.05 69.4q5.6 20.35-1.45 42.6-3.05 9.75-11.5 25-3.2 5.85-14.4 9.9-9.35 3.4-19.4 4.15-7.6.55-12.2-3.05-2.55-1.9-8.95-10.45-4.8-6.3-4.9-11.85-.05-4.1 2.95-12.05 2.45-6.35 7.25-14 4.05-6.4 7.05-9.65 2.15-2.3 4.2-8.85 1.45-4.5 2.15-8.45l49.2-3.3"/><path fill="#ad7b49" d="M333.05 69.4q5.6 20.35-1.45 42.6-3.05 9.75-11.5 25-3.2 5.85-14.4 9.9-9.35 3.4-19.4 4.15-4.6.35-7.9-.75-2.95-.95-5.55-3.35 4.9 1 10.65-15.8 5.45-15.9 8.15-36.8-1.65-10.05-8.85-17.1l1.05-4.55 49.2-3.3"/><path fill="#d3965c" d="M325.35 11.75q4.45 4.9 6.3 7.9 2.7-.65 8.65 2.6 6.3 3.5 9.2 7.85 1.95 2.9.8 7.85-1.05 4.45-4.35 9.75l-5.4 11.3q-3.6 7.25-8.9 11.25-5.55 4.15-22.8 5.75l-18.7.8q-2.15 0-9.6-6.6-5.75-5.1-9.35-9.05-2-2.2-2.7-6.75-.6-3.9-.05-5.35-1.6-1.45-2.95-3.9-2.8-4.95-1.75-10.1.7-3.3 2.3-6.9 2.3-5.15 5.95-9.3 7.35-8.5 20.65-6.6 5-8.1 12.55-10.3Q312 0 316.55 3.45q3.85 2.85 8.8 8.3"/><path fill="#ad7b49" d="M349.5 30.1q1.95 2.9.8 7.85-1.05 4.45-4.35 9.75l-5.4 11.3q-3.6 7.25-8.9 11.25-5.55 4.15-22.8 5.75l-18.7.8q-.6 0-2.25-1.35-1.9-1.6-3.15-3.6-3.7-5.9.5-11.25 0-2.65-2.3-11.85-2.15-8.65-1.8-11.5 1.1-9.6 8.5-12.85 2.45-1.1 5.95-1.55l4.75-.5q3.05-.4 4.9-4.4 1.05-2.25 2.2-6.4.95-2.75 5.6-3.55 5.1-.85 10.5 1.85 5.9 6.15 8.1 9.8 2.7-.65 8.65 2.6 6.3 3.5 9.2 7.85"/><path fill="#0d131a" d="M145.05 73.35l-.3 2.35q-.25.95-.65.95t-.7-.95q-.3-1-.3-2.35t.3-2.3q.3-1 .7-1 .4 0 .65 1l.3 2.3m182.75 239.5q.15.4-.1.8-.5.8-4.5 1.4l-10.75.75-.55-2.05q13.05-.35 13.05-1.15 0-2.1-6.7-4.95-6.7-2.8-10.8-2.55l-.9-1.8q3.35-.2 10.7 2.4 8.95 3.1 10.55 7.15m-179.1-27q-.65-.2-2.55-2.55l-1.75-2.25 2.15-.9 1.55 1.85 1.55 1.65q6.45 2.15 21.55 3.25 15.85 1.15 20.6-.65 7.15-2.75 25.75-11.2l1.4 1.3q-16.7 9.4-23.9 12.2-5.25 2-23.15.7-16.85-1.25-23.2-3.4"/><path fill="#0d131a" d="M154.55 283.2l-3.1-.05q0-.25 2.3-1.35 2.7-1.25 14.9-4.55 13.05-3.5 16.25-3.5l8.75.25 15.4.6q2.7.15 2.75.55.05.4-2.75.4l-24.15-.05q-2.25 0-15.15 3.7-13.3 3.8-15.2 4m-31.5 21.4v-.05q0-.75-6.5-2.45-6.5-1.7-9.25-1.7l-1.15-2.1q2.75 0 10 1.75 8.45 2.05 9.35 3.95.75 1.6-5.75 5.5-6.3 3.8-14.3 6.75l.3-1.2q.35-1.2.7-1.4l10.35-5.1q6.25-3.3 6.25-3.95m98.75-6.8q-4.85 1.45-8.8 3.55-3.75 2-3.95 3.05l.05.15q.45.4 5.4 3.3l4.85 2.8.2 2.1-5.9-3.2-6.5-3.75q-.75-.65-.55-1.5.35-1.85 6.65-5.25 5.75-3.15 10.3-4.45l-1.75 3.2M45.4 235.25q8.3-10.75 16.4-15.5l.8 2.5q-6.95 3.05-16.6 18-8.45 13.05-10.8 21.15-1.7 5.9-.6 13.2.6 4.2 2.9 11.9l2.45 7.7q1.5 5.2 1.3 7.2-.25 1.85-1.25-.35l-1.5-3.25q-13.25 8.8-15.35 16.05-.9-.6-2.35-.7.1-3.85 4.65-8.65 4.8-5.1 12.5-8.95-4.3-9.7-6.05-18.9-1.8-9.5-.2-15.05 4-13.8 13.7-26.35"/><path fill="#0d131a" d="M102.2 291.2q-.55-5.3 2.45-9.15 1.85-2.4 5.7-4.65l3.25 1.55q-4.55 2.75-6.6 5.2-2.75 3.3-2.3 7.35.3 3.05 3.5 9.45 2.55 5.2.85 11.05-2 7-9.5 9.05-4.05 1.1-17.65 8.05-14.65 7.45-19.45 11.4-.7.55-1.65.6l-2-.05.65-2.55q2.05-.25 2.95-1 4.95-4.1 19.1-11.15 12.8-6.35 17.2-7.6 4.2-1.1 7-5.75 3.3-5.5.35-11.15-3.35-6.6-3.85-10.65m106.4-21.7l3.2.3q6.4 3.65 9.75 6.6 5.25 4.65 8.45 11.3 3.1 6.45 1.8 6.15-1.25-.3-2.45-2.7l-1.7 1.45-1.5 1.45-3.15 3.6q-1.7 2.25-2.6 4.75-1.85 5.25 0 8.65 1.85 3.4 7.85 5.65 8.3 3.15 22.2 10.6 16.85 9 21.8 14.35.1 2.15.6 3.75-1.4-.4-2.2-1.35-4.15-5-20.65-14.3-14.45-8.15-22.5-11.15-5.45-2.1-8-4.4-2.95-2.65-2.95-6.25 0-2.55 1.1-5.5.95-2.7 3.3-5.6l3.75-4.15q2.8-2.95 3.3-4.4-3.7-6.45-9.05-10.9-3.7-3.1-9.25-6-3.55-1.85-1.1-1.9m83.2 68.75l-.35.2-4.35 2.65-1-1.7 4.1-2.5 1.6 1.35m-4.6-97.2l-2.65-5.1 1.45-3.2 3.75 6.8q4.1 7.3 6.55 11.25 5.25 8.35 7.35 15.5 1.6 5.6 1.6 12 0 8.55-5.75 16.85l6 5.65q5.05 5.3 7.3 10.9.9 2.4.65 3.9l-1.4-.55-1.45-.4q.1-1.2-.35-2.05-3.25-6.5-6.25-10.45l-5.15-5.65q-1.7 2-3.05 2.35-1.4.4-.2-1.3 4.4-5.95 5.65-13.95 2.4-15.55-8.6-33.15-2.5-3.9-5.45-9.4M21.65 312q.65-.1 1.7.6 1.2.9 2.3 3.3 1.2 2.55 1.55 5.25l-1.5.35-1.35-3.8q-1.5-3.85-2.25-4.05-.8-.25-7.15 5.45-6.35 5.65-5.95 5.85l5.05-.4L23 323.2l-.9 1.65L11 326.5q-3.7.45-4.2-.8-.5-1.1 1.9-3.35 3.65-3.4 7.35-6.45 4.5-3.7 5.6-3.9"/><path fill="#0d131a" d="M19.35 328.2q-6.1 6.5-5.35 7.55l6.85-1.9 10.15-3.3q.9-.3 1.1-.75.15-.4-.1-1.6-1.4-7.15-3.8-6.9-2.65.3-8.85 6.9m25.3 6.85l.55-.9v-.1q-.5-1.95-1.85-4.65-1.6-3.2-2.85-3.75-.35-.2-.65 0-3.6 1.95-8.75 9.45-4.8 7.05-4.15 7.3.75.2 7.9-2.45 7.85-2.85 9.8-4.9m-3.35-11.1q1.8.8 3.8 4.95 1.55 3.2 2 5.2l-1.4 2.1q0 1.15-5.9 3.75-5.65 2.45-11.2 3.85l-3.65-.2q-.6-.9.95-3.6 2.2-3.8 5.05-7.55-5.4 2.3-14.7 4.4-3.05.75-3.75-.05-.75-.8.7-3.15 3-4.8 7.7-9.2 4.85-4.6 7.4-4.9 3.85-.4 5.75 9.1 3-3.4 5.4-4.7.95-.45 1.85 0"/><path fill="#0d131a" d="M54.05 330.1q-.7-.4-1.05-.25-3.7 2-8.9 9.8-4.95 7.4-4.2 8.15.3.45 9.1-3.5 8.9-4 9.85-5.15-.15-1.6-1.55-4.6-1.65-3.5-3.25-4.45m1.05-2.15q2 1.2 4.1 5.7 2 4.25 1.85 6.25-.1 1.5-8.8 5.2l-10.3 4q-3 1.05-3.65.3-.7-.75.65-3.75 2.25-4.95 5.35-9.6 4.15-6.3 7.55-8.1l1.35-.35q1.15-.1 1.9.35m237.4 1.95q-2.4 5.15-1.1 6.3 2.05 1.85 11.7 3.75 9.4 1.8 9.7 1 .4-1.15-5.9-8.6-6.55-7.7-9.1-7.7-2.85 0-5.3 5.25m26.25-9.6q-7.35-5.35-10.1-4.95-1.7.25-3.3 3.65-1.5 3.2-1.35 5.5.1 1.5 10.7 2.25 10.5.75 10.8-.2.3-1.15-6.75-6.25m7.95 4.25q2.4 2.5 2.4 3.1 0 .6-2.2.85-2.1.25-12.25-.2l-9.35-.5 1.3 1.3q5.85 6 7.6 9.75 1.3 2.65 1.05 3.35-.3.8-3 .95-2.95.1-9.85-1.3-7.25-1.45-11.4-3.2-1.05-.4-1.5-1.2-.5-1-.25-2.75.65-5.35 3.45-8.95 2.4-3.15 4.55-3.15 1.7 0 4.45 2.05 0-2.5 2-6.15 2.35-4.2 4.75-4.55 2.65-.4 8.6 3.15 5.75 3.4 9.65 7.45m-48.75 7.9q-2.1.55-3.8 4.7-1.7 4.15-.8 6.5.5 1.25 7.25 7.2 6.8 5.95 7.5 5.65.45-.3-.75-7.15-1.3-7.35-2.9-11-1.4-3.25-3.1-4.8-1.7-1.55-3.4-1.1m-6.8 10.85q-.45-4.5 1.4-8.4 1.85-3.9 4.7-4.6 1.75-.5 4.2 1.05 3.1 2 5.1 6.6 2.45 5.7 3.35 13.8.85 7.4-.15 7.85-.8.3-3.95-1.65-4.1-2.5-9.1-7.4-5.3-5.15-5.55-7.25M34.05 151.8l1.75-.85q2.15 4.3 9.3 8.5 4.95 2.95 9.1 4.3l-.9.9q-4.25.1-10.05-3.25-6.8-3.95-9.2-9.6M57.65 76q2.45 4.9 4.95 12.2 3.3 9.75 3.85 16.6l-1.4 2.5q-1.25-7.15-4.8-18.2-3-9.45-4.4-12.25l1.8-.85"/><path fill="#0d131a" d="M4.15 68.85l1.95.45q-3.2 8.8-2.35 35.5.8 26.15 3.95 31.05 4.1 6.25 11.4 10.35 9.05 5.1 18 3.1 6.4-1.4 12.3-6.3 4.9-4.05 8.85-10l.45 1.45q.25 1.1-.05 2.2-4.1 5.55-9.55 9.5-6.05 4.5-12.4 5.9-9.6 2.15-19.2-3.1-7.8-4.3-12.05-10.9Q1.9 132.5.95 106.4q-1-27.25 3.2-37.55"/><path fill="#0d131a" d="M16.85 77.25l1.1.55.2 7.55q.05 4.5-.25 8.35-1.55 20.95.1 31.1 2.8 17.55 14.8 25.65l-1.8.25q-12.5-8.45-15.1-25.85-1.4-9.25.25-31.25.85-11.35.7-16.35m.1-44.15q.2-1.35.85-1.75.65-.45.6 1.55-.05 3.15 1.5 7.55 1.95 5.35 4.65 5.5l5.15.1.55-.25 3.2 1.65q-1.1 1.35-8.25.9-3.8-.2-6.35-5.25-2.5-4.85-1.9-10m33.35 5.5l.8-1.6q6.3 9.05 6.65 8.95l2.5-2.75L61 45q-.85.95-1.4 2.05l-1.1 1.4q-.8.75-1.4.3l-1-1.15-5.8-9m.5-7.15q1.1-1.25 4.55-2l6.4-.45q3.85.4 5.05 2.6.7 1.35.3 3.3l-1.65-.65q.1-.55-.6-1.5-1.05-1.45-3.3-2l-5.75.2q-2.85.7-3.7 1.65l-1.3-1.15"/><path fill="#0d131a" d="M82.05 46.15q2.9 4.95 2.1 11.65-.85 6.8-5.15 10.9-3.15 3.1-10.35 4.35l-8.3.65q-3.3 4.45-14.35 7.8-12.35 3.8-19.8.45-17.45-7.8-23.75-14.1-2.5-2.5-2.45-8.8 0-3.4 1.3-13.1l.65-5.55q.8-7 4.65-13.3 4-6.6 10.05-10.25 4.7-2.85 10.85-3.6 5.35-.65 8.7.45 4.5-3.45 9.85-3.85 5.9-.4 9.7 3.35l4.5 4.55q3.2 3.1 5.15 6 1.9 2.9 2 4.7.05 1.45-.5 2.75l-.65 1.3q-1.55-1.4-1.8-2 1.6-2.3-.95-6.05-1.6-2.3-6.05-6.6l-2.35-2.3q-3.35-3.3-7.9-3.05-4.2.2-8.05 3.3 3.45 2.4 7.8 7.3 5.2 5.85 5.5 9.15.45 5-1.55 9.1l-1.75-2.15.75-1.65q.7-2.2.45-5-.25-2.7-5.15-8.15-3.75-4.15-8-7.75-1.5-1.25-7-1.05-6.4.2-11 2.95-5.8 3.55-9.85 9.6Q5.3 34.25 4.6 40.6l-.7 5.6q-1.15 8.9-1.15 12.5-.05 6 2 8.05 5.95 5.95 22.75 13.5 6.9 3.1 17.6-.55 8.5-2.95 12.6-6.75-1.25.15-2.7-1.1-1.4-1.15 1.6-1.1l9.8.35q6.9-.35 10-3.25 3.8-3.65 4.95-10.2 1.1-6.5-1.4-10.75-.8-1.3-2.4-1.9l-.5-2.25q3.5.9 5 3.4"/><path fill="#0d131a" d="M50.2 46.65q0-6.95-4.5-13.45-.5-.75-2.8-.8-2.55 0-5.45 1-2.7 1-4.75 2.6-3.4 2.65-3.8 6.35-.15 1.3.7 1.9 3.65 2.5 10.85 8.5 5.7 4.75 6.35 4.75.65 0 1.45-1.75.75-1.65 1.35-4.35.6-2.3.6-4.75m-6.75-16q1.7-.05 2.7.65.85.55 1.85 2.2 5 8.15 3.65 16.75-1.05 6.45-3.9 8.8-1 .85-1.7.15l-6.3-5.3q-6.45-5.2-11.65-8.6-1.65-1.2-1.35-3 1.45-7.55 10.1-10.55 2.8-1 6.6-1.1m33.95 15q0-1.95-7.05-7.25-7.05-5.25-8.75-4.6-.55.25-.35 5.05.2 5 1.15 12.2.3 2.85 1.6 4.65 1.3 1.85 3.4 2.05 2.95.35 6.6-4.75 3.4-4.65 3.4-7.35m-17-13.15q1.5-1.5 7.3 2.1 3.75 2.35 7.2 5.45 5.05 4.45 4.35 6.6-2.85 8.3-7.3 11.5-4.65 3.3-9.05-.4-1.75-1.45-2.3-6.1-2.15-17.2-.2-19.15m-3.9 14.8l1.45 1q-.85 1.3-1.3 3.45-.55 2.65.15 4.9.7 2.25.15 1.95-.45-.2-1.35-1.6-1.15-1.8-.9-4.6.25-2.75 1.8-5.1m248.3 99.6q1.4-.55 2.2-.55l2.1 1.95 3.55 3.1q2.7 2.15 3.6 8l2.45 17.2q1.65 15.05-.2 19.4-2.15 5.15-8.4 13.8-6.15 8.55-8.75 10.05l-11.55 4.55q-1.1-.35-.7-1.15l.9-1.45 8.4-3.95q3.3-1.45 9.15-10.05 5.3-7.75 7.65-13.45.75-1.7.75-6.85 0-6.35-1.15-17l-1.95-15.2-8.05-8.4"/><path fill="#0d131a" d="M306.7 159.85q.7-2.4 2.35-3.85l3.4-2.05q.55-.25 1 .35.45.6-.1.9-2.7 1.35-4.8 5.9-1.05 2.3-1.6 4.3l-.25-5.55m-11.45 48.25q.25-4.45 1.3-8.05l2-1.7q-.75 2.7-1 7.4-.3 5.25.35 8.5.25 1.3 1.2 2.4l1.25 1.05q.05 1-.8.75-1.1-.35-3.1-2.8-1.55-1.95-1.2-7.55m-27.3-133q2.65-.55 7.25 2.75 4.65 3.3 5.65 6.6l-1.4 2.3q-1.85-4.45-5.5-7.2-3.1-2.3-5-1.95l-1-2.5m-137.1-37q2.7-.35 7.25 3.25 2.4 1.85 5.05 4.45l-1 2.55q-8.8-8.25-11.3-7.9-2.4.35-11.85 4.3-11.7 4.95-19.6 10.1-6.35 4.15-11.15 9.8-3.25 3.85-4.1 5.9-.5 1.25-.2 5.45.25 3.25.8 6.85l-1.95.35-1.2-5.7q-.85-5.25-.15-7.1.95-2.3 4.75-6.9 5.5-6.7 12.1-11 7.9-5.15 19.9-10.05 9.7-3.95 12.65-4.35"/><path fill="#0d131a" d="M83.5 72.55l-.15-1.1q-.1-.85.2.45.45 1.95 1.5 2.65 1.65 1.15 6.4 1.15l-1.15 1.9q-5.2 0-6.5-2.45l-.3-2.6m48.55-31.8q-.35-.9.45-.8.8.05 1.3.9.45.85-.8 4.8-1.25 3.9-2.2 5l-1.95-.4q1.1-1.4 2.3-4.3 1.5-3.65.9-5.2m-45.5 40.7l2.1-.05-1 2.5-1.25-.2q-2.95-.2-4.95.8-1.6.8-6.9 8.95Q72 97.35 66.8 106l-2.3 3.8q-1.85 3-3.9 11.55-1.85 7.95-1.55 9.4.05 2.5 4.4 15l-2.5 1.8-4.5-16.15q-.6-1.85 1.5-10.95 2.2-9.35 4.15-12.45l2.25-3.75q4.7-7.9 9.5-14.15 4.75-6.25 6.85-7.3 2.35-1.2 5.85-1.35"/><path fill="#0d131a" d="M74.5 133.25q-2.4 1-6.45.7-3.15-.2-5.7-.95-2.55-.75-2.4-1.35l2.6-.1 5.9.7q3.85.05 6.05-.85 3.3-1.45 13.55-10.1 10.5-8.85 11.5-11.4 1-2.55 1.45-1.05.45 1.5-.65 2.95-6.55 8.6-15.3 15.1-5.9 4.35-10.55 6.35m15.75 124.8h2.1l3.8-.25-.2 2.35-3.25.55-2.95.15q-2.95-.95-13.75-10.6-9.85-8.75-12.1-11.55-1.65-2.1-3.2-17.7-1.25-12.45-1.25-16.1 0-1.55 3.25-4l4.55-3.2 1.45.75q-2.75 2.25-4.8 4.4-2.05 2.15-2.05 2.85 0 3.25 1.9 16.45 2.1 14.4 3.35 15.95 2.1 2.65 11 10.55 9.65 8.6 12.15 9.4"/><path fill="#0d131a" d="M85.1 230.65q2.85 5.3 4.5 14.55 1.45 8.25 1.05 13.35-.1 1.25-.65 1-.55-.3-.4-1.25.55-3.9-1.15-12.15-1.85-9-4.9-14.7-2.8-5.25-11-14.7-5.7-6.5-8.8-9.5-1.2-1.2-1.1-1.55.1-.45 2.1.75 2.6 1.55 9.6 9.55 7.65 8.85 10.75 14.65m124-198.4q13.35 5.1 14.75 6.7 2.15 2.55 5.05 8l-2.35.8q-2-3.95-3.8-6.7-1-1.45-13.15-5.9-10.9-4-15.9-5.25-1.75-.4-16.8 2.75l-26.5 6q-1.7 1.5-5.25 6.9l-3.25 5.05-2.4.3q3-6.05 6-9.85 3.15-4.15 5.7-4.95 4.35-1.35 20.95-5.2 19.6-4.55 22-3.95 3.35.9 14.95 5.3"/><path fill="#0d131a" d="M220.45 42.05q2.1-1.35 1.55-.25-.55 1.15-2.5 2.3-2.65 1.65-16.8 8.05-15.1 6.8-19.65 8.1l-4.3.6-5.8.5-1.1-1.35q6.45-.5 9.35-1.35 4.65-1.3 20.75-8.15 15.95-6.8 18.5-8.45M150.4 38.1l-.8 5.45q-.75 5.25-.8 8.25l-.95-.8q-.55-.6-1-.7.15-2.8.95-6.65.65-3.45 1.05-4.25.75-1.45 1.2-1.9.55-.55.35.6m114.25 20.75q3.05 3.75 5.4 16.55 1.15 6.45 1.7 12.25.65 5.75-2.35 14.1-2.65 7.45-4.5 8.7-.95.65-8 3.05l-9.05 2.95-2.75-1.35 12-3.8 6.7-2.5q1.4-1.25 3.75-7.75 2.85-7.85 2.25-13.2-.75-6.2-2.3-13.4-2.35-10.75-4.9-13.85-2.6-3.15-14.45-8.85-10.75-5.15-13.65-5.6-1.8-.3-14.55 4.85-13.2 5.3-19.95 9.35-5.6 3.35-11.3 10.2l-4.7 6.3-1.1-2.15 4.15-5.65q5.15-6.05 11-9.6 7.35-4.4 18.65-9.65 12.55-5.85 16.5-6.15 4.3-.35 16.2 5.35 11.9 5.75 15.25 9.85"/><path fill="#0d131a" d="M244.3 98.9q8.1-1.05 15.35-4.85 6.6-3.5 10.75-8.25.6-.65.8.25.15.95-.4 1.65-9.05 10.65-26.3 12.95-5.15.7-22.85-2.6-17.15-3.25-20.65-5.2-.65-.35-1.15-1.85l-1.5-5.6q-1.25-5.05-2.05-13.55-.7-7.4-.5-9.65.1-.85.95-1 .9-.2.75.6-.45 2.55 1.2 14.8 1.8 13.35 4 14.55 3.35 1.85 19.75 5.1 17 3.3 21.85 2.65m-165.75 37q-1.5.6-9.9 6.6-8 5.75-10.7 8.05-2.4 2.05-5.2 27.65l-.45 3.7v.1q0 1.45 4.4 6.75 4.15 4.9 6.8 7.05 1 .75 8.6 1.9l8.6 1.1q1.55.1 7.95-3.5l-.1 2.55q-6.2 2.65-7.7 3l-8.95-.6q-8.05-.95-9.65-2.25-3.1-2.5-7.3-6.9-6.05-6.4-5.65-8.75l.4-3.6q3.05-27.05 6.3-29.8 2.35-2 11.5-8.15 9.3-6.2 11.15-6.95 1.55-.6 8.35-.95 7-.3 5.85-.05l1 1.4-8.3.55q-5.85.6-7 1.1"/><path fill="#0d131a" d="M73.75 189.9q-4.05 2.95-7.4 4.25-2.05.85-2.45.35-.4-.5 1.35-1.45l7.1-4.4q5.65-4.1 7.35-7.75 1.7-3.7 4.05-22.3 2.2-17.85 1.75-19.05-.5-1.25-3.9-2.8-1.4-.6-1.2-.9l1.95.05q1.5.3 2.4.7l1.4.7 1.6.75q.75.55.55 1.5l-2.6 19.35q-2.7 19-4.45 22.75-1.9 4.2-7.5 8.25"/><path fill="#0d131a" d="M81.3 184.9l3.8 2.7 3.65 2.15.3 2.5q-5.5-3.9-7.65-6.2-1.1-1.15-1.2-1.65-.05-.5 1.1.5m14.15 54.4q.8-6.05 1.2-7.15.45-1.15 3.05-3.75 2.75-2.85 4.6-3.75.45-.2 2.5.9-1.1.8-4.3 3.75-3.35 3.1-3.65 3.7-.35.95-1.2 6.6-1 6.4-.95 9.55.15 3.95 1.1 10.85 1.4 10.15 3.1 11.2 4.05 2.5 13.6 7.3 10.55 5.35 12.55 5.5 2.05.2 20-4.65 17.65-4.85 19-5.75l2.75-2.45 3.35-3.3 3.45-3.65 2.15-2.9 1.95 1.4q.25.75-5.2 6.25l-6.15 6.15q-1.55 2.35-19.05 6.95-16.5 4.4-21.85 4.6-3.8.15-15.3-6-6.25-3.3-12.3-7.1-3.05-1.9-4.4-12.8l-.8-11.3q-.15-3.25.8-10.15"/><path fill="#0d131a" d="M138.9 239.7q16.9 2.15 19.45 4.35 2.05 1.75 7.75 8.05 6 6.65 6.4 7.85.55 1.55 0 5.05-.65 3.95-2.25 5.95-1.7 2.15-2.2 2.2-.5.1.45-1.6.85-1.55 1.6-4.9.7-3.25.7-5.25 0-1.45-5.25-7.5-4.9-5.6-8.3-8.5-1.8-1.5-16.05-3.5l-21.45-2.35q-3.2-.25-10.4 2.75-6.35 2.6-8.3 4.2-1.45 1.15-2.75 3.05-1.25 1.8-1.85 3.45-.55 1.5-.55-.4.05-1.85.5-3.1.4-1.15 1.85-2.8 1.4-1.6 2.6-2.35 1.9-1.25 7.8-3.6 7.15-2.85 10.15-2.85l20.1 1.8m151.25-34.55q4 5.9 2.9 9.75l-3.9 13.2q-4.4 13.4-6.8 15.45-2.85 2.5-18.9 7.25-17.05 5.1-21.65 3.65l-5.1-1.7 2.15-1.35 3.5 1.15q3.75 1.15 19.9-4.05 15.3-4.95 18.05-7.3 1.85-1.6 6-12.6 3.15-8.4 4.85-14.25.45-1.5-.45-3.9-.75-2.1-2.25-4.2l1.7-1.1"/><path fill="#0d131a" d="M291.75 213q1.25-.2 1.05.7-.2.85-.95 1-3.65.6-9.3 3.15-6.45 2.95-13.8 7.65-2.5 1.6-10 10-5.9 6.55-11 12.9-1.25 1.55-1.5 1.3-.25-.2.7-1.65 3.5-5.3 10.5-13.5 7.4-8.6 10.35-10.55 14.65-9.35 23.95-11m-26.55-66.8q-.1-2.2-.5-3.6l2.85-.5 2.35 1.65-3.65.6 6.95 8 5.7 6.8q.55.75-.1.95-.65.25-1.15-.2-3.2-2.85-12.45-13.7m43.35 6.2q.3.45 0 7.35l-1.1 16.5q-.45 5-4.1 14.05-4.05 10.1-7.5 12.2-1 .55-4.95 3.45-6.4 4.7-9.8 6.7-5.8 3.45-8.95 3.2L264 214.4q-4.7-1.2-7.3-2.55-1.1-2.5-1.2-3.7l.9 1.15q1.2 1.2 6.2 2.65 5.2 1.55 9.7 1.9 2.7.2 8.25-3.15l9.2-6.35 5.05-3.55q2.95-1.75 6.75-11.2 3.5-8.75 3.9-13.5 1.85-22.15.55-23.9-1.4-2.1-3.9-3.5l2.75-.8q2.7 2.6 3.7 4.5"/><path fill="#0d131a" d="M278.5 161.35l-2.65 4.4q-11.45 18.5-11.15 21.95.35 3.4 3.8 13.85 3.35 10.15 4.75 12.55.6 1-.05.85l-1.35-.75q-1.15-.9-5.1-11.75-3.95-10.8-4.25-13.75-.25-2.45 3.55-9.7 2.6-4.9 8.3-14.2l2.6-4.3q1.8-3.2 13.85-6.35 8.75-2.35 15.3-3.1 1.25-.2 1.45.35.2.55-.75.75-26.3 5.65-28.3 9.2"/><path fill="#0d131a" d="M261.9 187.15q1.85 0 1.5.9l-.7.85-8.2.4.6-1.1q.4-.75 1.15-.85l5.65-.2m-14.35 9.8q.9-.3 1.6-1.25 8 14.45 8.25 15.25 2.95 11.75 2.3 13.7-.8 2.45-3.15 7.15-3.4 6.8-6.75 10.8-3.7 4.35-19.2 16.05-14.95 11.3-17.4 12l-10.7.45q-8.85-.3-12.05-1.4-3.35-1.1-7.2-3-4.45-2.2-5.7-3.65-1.25-1.5-3.85-16.15-2.5-14.15-3-21.3 0-.5 1.15-1.65 1.1-1.15 1-.3-.25 2.8 2.35 19.2 2.65 16.4 3.55 17.7.9 1.35 4.65 3.75 3.9 2.45 7.15 3.55 2.85.95 11.65 1.25l10.4-.35q2.1-.6 16.9-11.8 15.35-11.6 18.75-15.65 3.2-3.75 6.5-10.4 2.3-4.55 3.05-6.85.15-.95-1.3-6.95l-1.95-7.25q-.25-.95-7-12.9"/><path fill="#0d131a" d="M249.5 212.35l2.75 3.4 3.05 3.75 2.95 4.3q.5 1.15.35 1.65-.15.45-.65-.1-4.9-5.45-7.15-8.6l-2.2-2.8q-1.15-1.25-1.9-1.25l-19.05 2.05Q211.4 216.9 209.8 218q-5.85 3.9-12.95 9.85-9.6 8.1-10.4 11.5-.85 3.6 1 13.05.8 4.25 2.8 12.25 1.05 3.9.15 3.75-.85-.15-2.1-3.95-2.2-6.75-3.25-13.35-1.3-7.85-.3-12.15.95-4.3 12.95-14.1 6-4.95 11.95-9.1 3.05-2.05 37.05-4.8 1.4 0 2.8 1.4"/><path fill="#0d131a" d="M247.1 204q2 6 1.85 8.3-.15 2.4-.95.25-.6-1.5-1.25-4.3l-1.85-5.3-1.8-4.7 1.65-.6 2.35 6.35m-70.65-57.65q-.3-.25-.9-1.6l-.9-1.65q.05-3.1.5-6 .4-2.35.8-3.4l1.65.7q-.5 1.25-.85 4.85-.35 3.6-.3 7.1m-75-5.55q-.45-1.2.25-1.55.7-.3 1.25.65 2.45 3.9 2.7 5.35l-1.15 2.55-1.35-3.15-1.7-3.85m-15.3-3.15l4.6-.7q3.6-.15 5.8.6l.5 1-4.8-.35-4.7.6-1.75-.25q-.8-.45.35-.9"/><path fill="#0d131a" d="M228.65 118.7q-12.35-.35-16.2 2.2-3.7 2.45-10.85 11.6-6.55 8.4-7.3 10.6v.2q0 3 6.45 25.3 6.45 22.25 7.6 23.5 1 1.05 18.75-1 16.7-1.95 20.35-3 3.85-1.1 12.35-12 8.45-10.8 8.7-14.8.2-3.2-2.6-11.6-2.35-7-6.05-15.6l-.85-.85q-7.45-8.05-13.2-11.4-4.8-2.8-17.15-3.15m-17.15.75q4.35-2.95 17.45-2.5 12.75.45 17.75 3.35 3.6 2.15 7.6 5.9 3.1 2.95 3.85 4.15-3.2-7.2-4.7-9.2-1.35-1.65-9.5-5.7l-3.7-1.95q-2.35-1.35-21.05-3.4-18.75-2.1-21.35-1.25-2.4.8-2.15-.4.3-1.25 1.8-1.55 3.25-.65 22.05 1.5 19.05 2.15 21.55 3.6l3.65 1.9 6 3.15q3.1 1.8 4.05 3 2.85 3.55 9.05 19.05 6.75 16.8 6.4 22.3-.25 3.95-5.05 12.45-2.7 4.75-8.55 13.5l-5.25 7.85q-2 1.85-7.3 4.25-4.45 2-7 2.7l-20.55 1.15q-18 .35-20.15-.4-.5-.15-1.55-2.25-.7 3.25-3.8 7.7-2.3 3.25-4.9 5.9-2.25 2.4-9.45 7.9-7.1 5.45-10.15 7.15-3.1 1.7-18.95 2.45-15.1.75-18.85-.1l-15.8-3.9q-12.9-3.3-14.7-4.35-1.95-1.1-6-10.75-3.8-9.1-4.35-12.7-.45-3-.05-11 .4-7.8 1.05-9.8.95-2.75 9-19.25 7.7-15.8 8.5-17 2.5-4 12.65-5.55l2.7.55 2.65.55q-13.8 1.15-16.5 5.35-.8 1.3-8.45 16.85-8 16.35-8.9 19.05-.55 1.65-.85 9.95-.3 7.9-.05 10.3.3 2.5 4.3 11.8 4.15 9.8 5.8 10.75 1.4.8 14.2 3.45l14.6 3.15q2.7.85 17.9.45 15.85-.45 18.65-2 4.35-2.4 17.9-13.4 2.65-2.15 6.4-7.35 4.7-6.55 3.8-9.3l-9.1-26q-9.25-26.1-9.8-26.65-1.45-1.5-4.75-2.95-3.1-1.35-6.9-2.25l2.9-1.05q7.2 2.2 10 5 1.15 1.15 11.5 29 10.25 27.65 10.45 27.75l19.55.65 19.7-.65q2.15-.6 6.8-3.05 4.7-2.5 7.05-4.35l1.8-2.35 2.8-4.2 6.2-9.6q-4.25 5.15-8 8.9-4.3 4.35-5.95 4.8l-19.65 2.45-20.55.8q-2.25-1.1-8.9-25.1-6.5-23.7-5.75-26.1.95-2.75 7.75-11.3 7.25-9.2 11.15-11.8"/><path fill="#0d131a" d="M118.9 155.1q-6.9.3-7.8.95-1.6 1.1-8.45 15.95-5.15 11.2-9.95 22.65-1.5 3.55-1.8 3.2-.3-.3.8-3.65 2.75-8.55 9.25-22.85 6.85-15.1 9.1-16.7 3.15-2.25 26.35-1.05 24.05 1.2 27.2 5.4 4.25 5.65 19.1 39.1.65 1.55-.05 6.65l-1.45 9.45q-.4 2.9-1.05 2.65-.7-.3-.4-3.65l.85-8.4q.45-5.2-.1-6.55-14.25-32.8-18.3-38.2-1.2-1.55-8.25-2.85t-17.6-1.85q-9.8-.5-17.45-.25M187.65 85q-9.1-14.2-13.8-18.85 1.2-.2 1.8-.9 5.45 5.7 14.85 19.7 8.95 13.4 9.2 15.5.65 5.2-5.25 17.2-4.35 8.75-8.15 14.1-2.45 3.55-18.25 7.65-13.55 3.5-20.5 3.9-2.3.15-6.2-.8l-6.75-1.85q-8.2-1.95-15.1-2.05l-10.85.7-6.25 1.2-3.2.25q-1.2-.2-2.45-1.25-4.6-4-6.25-8.3-1.6-4.25.15-7.3.9-1.5 3.4-3.5v2.65l-1.7 1.85q-1.3 2.3.25 5.65 1.55 3.3 5.6 6.85.75.6 1.5.65l2.8-.35q7.7-1.3 17.05-1.1l8.85.95 7.65 1.7 6.05 1.35 5.35.4q6.6-.4 20.7-4.6 15-4.5 17-7.35 3.7-5.3 7.5-13.65 4.55-10.15 4-14.55-.3-2.3-9-15.85"/><path fill="#0d131a" d="M173.05 101.45q3.9 3.3-1.15 1.75l-4.5 4.15-7.7 7.2q-9.85 8.75-11.55 10.5-3.05 3-7.3 3.8-4.3.8-13.2 0l-16.75.5-10 .5q-4.45-.1-6.1-1.5-2.05-1.7-2.05-3.3 0-1.05.85-2.05.15 1.4.9 2.05l.35.7 1.05 1.3q1.25 1.05 4.35 1.05l7.95-.55q12.95-1.05 19.6-.45 8.95.8 13 0 3.5-.7 6.1-3.3 4.4-4.55 12.6-11.85l6.6-5.7 4.45-3.9q-2.9-1.6-8.35-2.1-3.25-.25-9.6-.15l-8.6-.4q-2.85-.8-7.6-3.35l-7.45-3.85q-3.55-1.55-17-.8l-18.1 1.1-1.65.3q-.35.3-.3 1.2.05 1.65 1.7 2.95l3.95 3.25q3.95 3.65 6.75 7.65 2 2.8 2 4.45 0 1.1-.95 2.25l-2.5 2.35-4.5 3.8-1.15-1.35 4.5-3.85q2.4-1.9 2.6-2.8.2-1.05-1.5-4-1.95-3.4-6.15-6.75l-3.8-2.7h-.05l-.05-.05q-1.2-.85-2.05-2.2-1.05-1.65-1-3.25.05-2.3 1.05-3 .75-.55 2.95-.55l17.7-.9q14.15-.55 17.8 1.05l8 3.85q5.2 2.45 8.1 3.25l7.25.6q16.6-.25 20.5 3.1"/><path fill="#0d131a" d="M132.5 93.45l1.4.65q-8.3 2.8-16.15 8.45-15.7 11.3-14.5 25.9l-1.5.15q-1.3-15.7 11.95-25.8 6.3-4.85 18.8-9.35"/><path fill="#0d131a" d="M94.5 117.15q.45-1.4.75-1.55.6-.35 1.8 1.4 1.75 2.65 6.2 11.55l-2.65.1-2.3-5.3q-1.8-4-2.45-4-.45 0-.85 3.65l-.35 3.6-1.2-2.85q.55-5.2 1.05-6.6m42.45 1q.55-1.85 1.7-1.9 1 0 2.35 1.35l3.4 3.95q2.25 2.7 2.45 3.3l-1.8 1.55-2.55-3.5q-2.45-3.2-2.95-3.5-.8-.55-1.8 4.25l-.8 4.9h-1.8q-.15-1.2.55-4.85.55-3.1 1.25-5.55M162.2 80.6q1.95-2.35 3.75-7.4 1.75-4.85 1.5-6.75l2.05-.15q-.55 6.65-4.75 13.1-1.35 2-2 2.45-.65.4-2.6.45-7.9.3-18.6-3.4l-9.15-3.75 1.2-1.15q11.8 4.85 20.4 6.45 6.75 1.2 8.2.15"/><path fill="#0d131a" d="M137.85 71.35l1.2.2q-.55 3.15 1.05 5.95l-1.9-.85q-.75-1.3-.75-2.6-.05-1.05.4-2.7m16.35-2.7l.55-.1.55-.15q.5 5.15-.75 8.1-1 2.3-3.75 4.35l-1.7-.45q2.95-2.1 4.1-4.5 1.3-2.75 1-7.25"/><path fill="#0d131a" d="M172 64.95l1.6.05q.35-.05.5-.3.45-.75-3.5-3.75-1.55-1.15-9.05-3.9-7.95-2.9-15.9-5.1-5.05-1.35-18-.35-13.95 1.15-20.55 4.15-4.3 1.95-7.3 4.95-3.05 3.05-4.25 6.55l-.3 2.15q-.2 1.45-.7 2.05-1 1.15-2.45 3.5-1.5 2.4-1.5 2.9 0 1.05 1.2 2.55 1.2 1.45 2.3 1.9 1.75.6 14.2.2l14.05-1.1 4-2.95 4.15-3.9q1.65-1.9 4-3.35 2-1.7 16.95-4.1Q166 64.75 172 64.95m.3-5.6q5.5 4.2 4.8 6.2-.2.6-1.4 1l-3.8.4q-6-.25-20.5 2.2-14 2.35-15.6 3.55l-3.05 3.1-4.55 4.7q-2.05 2.1-3.15 2.55-2 .9-16 1.4-14.05.45-15.8-.3-2.15-.95-3.9-3.9-2.25 5.9-2.15 10.7.15 5.3 3.25 7.7l1.5 1.1q5.25 4.05 8.35 7.35 3.55 3.8 3.2 5.6-.3 1.5-6.2 6.45l-.55-.6-.5-.65 3.4-2.7q1.7-1.45 1.85-2.45.25-1.85-4.3-6-2.45-2.2-7.35-5.9l-1.5-1.15q-5.25-4.05-2.85-14.85 1.65-7.65 7.2-14.2.8-.95 1.1-3 .4-2.45 1.1-3.9 1.25-2.5 3.95-5.1 2.95-2.8 6.8-4.9 6.6-3.55 21.65-4.95 13.8-1.25 19.25.25 4.55 1.25 14.3 5.15 9.75 3.9 11.45 5.15m159.75 10.3l1.95-.5q6.25 18.6-.15 40.85-3.5 12.1-11.6 26.55l-1 1.75q-3.35 6.2-15.1 10-9.05 2.95-19.75 3.7-7.6.6-11.9-2.25-2.9-1.9-8.15-8.9l-2-2.7q-5.1-6.75-5.5-12.5-.25-4.5 2.6-12.1 2.5-6.55 7.95-14.55 4.2-6.25 7.4-9.65 1.85-2.05 3.8-8 1.5-4.7 2.25-8.85l2.1 2-1.85 6.5q-2.3 6.95-4.85 9.7-2.85 3.1-6.55 8.95-4.6 7.25-7.05 13.7-3.05 8-3.15 11.85-.15 5.7 4.45 11.75l1.4 1.85q5.2 6.95 7.95 8.85 4.1 2.9 10.95 2.4 9.5-.7 18.6-3.9 11.25-3.9 14.4-9.6l1-1.8q6.8-12.15 10.4-25.65 5.7-21.2 1.4-39.45"/><path fill="#0d131a" d="M290.3 96.85q1.3-2.85 3.75-11.15l2.45-8.35 2.3-.7-2.15 7.65q-2.15 7.5-3.45 10.4l-11.3 24.5q-6.65 14.8-6.9 18.75-.55 8.1-.05 10.75l-.95-.8q-.55-.7-.95-2.4-.9-3.4-.55-8.8.25-3.95 6.5-16.7l11.3-23.15"/><path fill="#0d131a" d="M330.8 20.2q-1.8-3.35-6.35-8.2-4.4-4.7-8.5-7.75-3.65-2.7-9-1.7-3.7.7-7.5 3.7-3.4 2.7-5.15 5.75 3.85 2.85 2.7 2.75l-4.5-1.55q-3.1-1.15-9.5.6-7 1.95-10.25 5.7-3.75 4.35-6.05 9.65-1.35 3.25-1.95 6.1-.85 4.15.95 8.4.95 2.15 2 3.45.95-5.2 2.75-6.7 1.8-1.55.2 3.85-1.15 3.85-1 8.6.15 5.1 1.85 7.55 2.55 3.65 9.65 9.55 7.15 5.9 9 5.9l23.95-1.45q12.6-1.7 16.95-4.95 3.9-2.9 6.6-7.3 1.6-2.55 4-8 2.2-5.05 3.45-7 3.35-5.35 4.3-9.7.95-4.3-.7-6.8-2.75-4.2-8.2-7.4-5.05-3.05-7.25-2.5l.15 2.3q-.3 1.45-2.6-2.85m-4.9-9.8q3.7 4.35 6.25 8.2 3.75-.2 9.5 2.5 6.4 3.05 8.95 7.2 2.8 4.5.8 10.8-1.15 3.65-4.6 9.1-.8 1.3-2.05 4.15l-1.9 4.45-3.5 7.7q-2.4 4.2-6.45 7.25-5.5 4.1-21.4 5.65-11.95 1.15-20.85.5-4.35-.3-10.95-5.6-5.65-4.5-9.65-9.7-1.5-1.95-2.35-5.85-.9-4.05-.35-7.35-2.25-1.45-3.7-4.2-1.75-3.3-1.75-7.45 0-3.4 2.35-9.1 2.75-6.6 6.9-11.4 3.6-4.2 9.05-5.6l11.95-.45q3.15-4.85 5.7-7.2 3.2-2.9 7.1-3.65l6.75-.2q3.9.45 5.85 1.9 3.6 2.7 8.35 8.35"/></svg>