<svg xmlns="http://www.w3.org/2000/svg" width="298" height="288" viewBox="-1.4 -0.2 298.0 287.6"><path fill="#827aa0" d="M133.55 234.85l15.25 3.55-.6 9.15q-.3 2.85-7.95 3.4-7.5.5-11.4-1.75-3.05-1.8-.65-6.9 1.8-3.9 5.35-7.45"/><path fill="#675f80" d="M142.45 236.95l6.35 1.45-.6 9.15q-.15 1.45-2.75 2.5-2.55.95-5.9.95 1.65-2.9 2.45-6.8.75-3.8.45-7.25"/><path fill="#f9f1ab" d="M144.35 192.9q-1.25-10.65.65-15.75l15.05-16.4 5.85 24.45q-2.45 3.9-5.7 12.2l-5.1 13.65q-1.8 4.7-2.45 13.3-.7 9.1-1 10.1-.9 3-3.05 4.1-2.4 1.2-7.7.95-4.9-.25-6.95-2.9-1.55-2-.95-4.2.5-1.7 4.1-6.8 3.7-5.25 4.5-7.35 1.25-3.45 2.25-11.65 1.05-8.8.5-13.7"/><path fill="#d3cd91" d="M144.35 192.9q-1.25-10.65.65-15.75l15.05-16.4 5.85 24.45q-2.45 3.9-5.7 12.2l-5.1 13.65q-1.65 4.3-2.3 11.75-1.05-6.55-2.9-11.05-2.5-5.95-5.9-6.55.8-8.15.35-12.3"/><path fill="#e95504" d="M162.2 177.55q-.95-6.4 8.3.05 3.35 2.35 6.65 5.45 3.1 2.9 3.55 4 .75 1.85-1 2.55l-4.25.8q-2.15.35-3.45-.4-.8-.45-1.6-1.6-.4-.6-2.1-.95l-3.3-1q-1.1-.55-.45-1.55.5-.8-2.2-1.4 1.45-.55.8-3.3l-.95-2.65"/><path fill="#827aa0" d="M86.1 252.85l14.7-.2q1.5 3 2.35 6.9 1 4.8-.25 6.35-1.95 2.3-7.15 5.6-5.95 3.75-8 3-3.45-1.3-4.45-2.1-2.05-1.65-1.3-4.45l4.1-15.1"/><path fill="#675f80" d="M100.8 252.65q1.5 3 2.35 6.9 1 4.8-.25 6.35-1.7 2.05-6.55 5.2-5.45 3.6-7.9 3.5 5.7-9.7 6-21.85l6.35-.1"/><path fill="#f9f1ab" d="M72 193.4l-7.25-13.95 30.7 32.3q1.4 4.7 3.85 21.95.5 3.4 2.95 9.1 1.75 4.15 1 7.2-.8 3.2-7.2 5.35-6.65 2.25-8.95-.95-1.9-2.6-4.1-18.35l-2.95-22.35q-.95-5.95-8.05-20.3"/><path fill="#d3cd91" d="M72.1 194.8l-7-13.2q1.9 3.05 7 6.7l4.7 3.1 18.65 20.35q1.4 4.7 3.85 21.95.5 3.45 3 9.15 1.8 4.2 1.05 7.25-.4 1.5-2.2 2.8-1.6 1.15-3.8 1.9 3.9-6.95-15.8-24.9-.55-7.9-1.8-15.55-.95-6.05-7.65-19.55"/><path fill="#ffe100" d="M278.65 73.35q.5 2.05 1.8.8l3.1-2.55q1.95-.9 4.75.45-2.7.5-4.75 2.85-2.15 2.45-1.05 4.1.85 1.25.9 3.5.05 2.55.55 3.7 1.1 2.6 3.5.85 2.35-1.75 2.1-4.7-.35-3.15 1.1-5.2 1.6-2.3 5.35-2.65-1.45 1.85-2 4.6-.5 2.75.05 5.65.6 3.15-.55 5.2-1.35 2.35-4.85 2.9-4.45.7-7.65 3.15-3.55 2.7-2.75 5.7 1 3.6 2.25 4.6 1.6 1.3 5.3.25l-2.2 3.45q-1.85 2.45-5.35 2.7l-7-.95q-3.3-.8-4.95.65-1.35 1.15-3.1 4.7-1.5 3-3.4 3.85l-6.35 1.6q-3.65.8-3.2 1.9.55 1.25 3.6 1.35 3.55.1 7.05-1.8-1.25 1.45-2.35 5.25-.55 2.1-4.5 2.85-3.45.65-8.55-2.55-4.35-2.7-6.5-.9-2.05 1.7-4 5.2-1.5 2.65-2.9 2.85-1.25.2-5.15-1.7-3.3-1.6-3.7-.6-.7 1.7 0 3.2.8 1.8 3.45 2.6-1.85 1.55-4.85 1.05-3.2-.55-4-3-1.1-3.35-2.25-4.35-1.75-1.55-4.85.25-8.35 4.9-16.75-.85l-10.4-19.65q4.2-2.7 6.8-7.7 2.9-5.4 2.45-11.2-.6-7.5 0-10.85.7-3.85 3.45-6.05-.7 2.8-.15 5.65.55 3.2 2.4 1.65 1.5-1.25 1.45-3.8-.1-3.7.55-5.8.95-3.15 3.05-4.8 1.1-.8 1.95-1l-.75 1.6q-.8 1.8-.8 3 0 .9 1.15 1.6 1.1.65.9 1.85-.4 2.3 2.05 2.3 2.55.05 4-3.4 1.35-3.35 4.25-4.4 2.55-.9 8.05-.6 5.4.3 9 2.5 4 2.5 8.7 9 7.6 10.7 15.75 5.8 2.6-1.55 3.2-6.1.55-4.05 4.8-5.35-1.15 2.15-.95 4.05.25 2.35 2.6 3.15 2.4.8 4.1-.7 1.4-1.3 2.05-3.9.4-1.6-.55-3.6-.95-2.05-.6-3.35.45-1.65 3.1-3.1l3.7-1.95q-1.2 3.1-.65 5.2"/><path fill="#e95504" d="M279.25 68.1q-1.15 3.65-.6 5.5.45 1.8 1.8.55l3.1-2.55q1.95-.9 4.75.45-2.7.5-4.75 2.85-2.15 2.45-1.05 4.1.85 1.25.9 3.5.05 2.55.55 3.7 1.1 2.6 3.5.85 2.35-1.75 2.1-4.7-.7-6.85 6.45-7.6-1.6 1.2-2.1 4.2-.45 2.7.15 5.8.6 3.15-.55 5.2-1.35 2.35-4.85 2.9-4.45.7-7.65 3.15-3.55 2.7-2.75 5.7.75 2.7 2.45 4.15 2.1 1.85 4.95.85-1.15 2.2-2.1 3.25-2.15 2.3-5.3 2.5l-6.7-.7q-3.55-.6-5.05.7-1.3 1.15-3.2 4.7-1.6 2.95-3.5 3.8l-6.2 1.6q-3.5.75-3.05 1.85.6 1.5 3.75 1.35 3.15-.15 6.3-1.85-.8 1.35-2.2 6.1-.45 1.6-4.5 2.35-3.45.65-8.5-2.65-4.25-2.8-6.4-1.05-2.05 1.7-4 5.2-1.5 2.65-2.9 2.85-1.25.2-5.15-1.7-3.3-1.6-3.7-.6-.7 1.7 0 3.2.8 1.8 3.45 2.6-1.85 1.55-4.85 1.05-3.2-.55-4-3-1.25-3.8-2.75-4.75-1.8-1.15-5.1.8-3.85 2.25-7 2.15-3.9-.1-9-3.6-.6-.4-1.35-2.05l-1.1-2.4q1.25-1.35 3-2.3l3.25-1.7q2.05-1.15 2.8-3.75.8-2.75-.65-4.75-.65-.9.5-1.4.7-.3 2.6-.85 3.5-1.35-.25-5.25 2.05-.8 6.65 1.3l5.35 2.5q4.2.65 5.8-1 .7-.75 2.35-5.15.9-2.5-1.9-5.35-4-4.05-4.95-6.3-1.25-3.05 2.65-6.3l2.45-2.2q.9-1.15.05-2.15 3.8-.3 3.7 2.95-.15 4.9 1.35 6.7 1.85 2.3 5.65 0 3.6-2.2 4.6-.5-2.1 1.75.9 6.1 2.9 4.2 5.45 4.4 1.5.15 3.6-1.8 2.15-1.95 3.55-2 1.05-.05 2.05 1.25 1 1.25 4.3 1.05 3-.15 3.25-1.15.1-.5-1.1-2.7-2.95-5.55.9-10.35.85-.95 1.7-5.55.65-3.35 4.7-4.6-1.15 2.15-.95 4.05.25 2.35 2.6 3.15 2.4.8 4.1-.7 1.4-1.3 2.05-3.9.4-1.6-.55-3.6-.95-2.05-.6-3.35.45-1.6 3.1-3.05l3.65-2.05m-101.9 29.45q-.8 1.6 1.25 3.4 5.3 4.65 5.05 7.1-.5 4.55-13.95 9.65l-67.25 22.1L81 129.4 55 75.45l24-6.35q-.8 1.15-.9 2.6-.15 1.95 1.2 3.85 1.15 1.55 3.35.75 2.75-.95 4.85.1-.45.35-2.25 2.85-1.3 1.8-2.85 2.05-1.25.2-4.2-.95-2.2-.85-2.2.2 0 1.25 2.55 2.85 1.9 1.2 3.45 1.75.55.2.1 1.2-.7 1.45-.5 2.65.3 1.7 1.25 2.15l4.15.4q2.65 0 2.05 1.55L87 96.7q-.55 1.35 1.15 1.9 1.9.65 1.7 2.3-.25 2.3 2.3 2.05t2.8-3.9q-.25-4.3-.05-5.7.35-2.2 3.9-3.4-.8 2.85-.85 4.05-.05 1.7 1 3.85.65 1.35-1.4 3.05-2 1.6-.55 3.85 2.2 3.45 3.4 4.15 1.45.8 2-1.8.8-3.7 1.6-5.1 1.25-2.25 3.8-2.25-1.7 1.3-.8 3.15 1.2 2.55.8 4-.6 2.25 2.95 3.6 3.55 1.35 4.35-1.9-2.45-2.45-.8-5.2.9-1.5 3.5-4 1.9-2.3 2.05-3.9l.55 2.7q.4 2.9-.3 3.85-.7.95 1.5 1.35l2.35.2-1.35 2.15q-.95 2.1.95 2.1 2.4 0 4.1-2.2 1.95-2.55-1.8-5.05 1.85-.85 3.95.25 2.65 1.45 4.25 1.45 2.5 0 2.9-2.1l-.05-5.1q-.1-4.5 6.6-3.9 2.7.3 2.6-2.65l-.6-3 2.4 1.8q2.1 2.1.65 3.55-1.9 1.95-2.7 4.4-.9 2.6.75 2.6 1.15 0 2.3-2.2 1.35-2.65 3.15-3.65 6.8-3.75 8.45 1.55 1.25 3.9 3.6 2.65 1.4-.7 4.65-3.2l2.8-.25 1.25.45q-1.85 1.2-2.7 2.6-1.45 2.35.8 4.3 1.3 1.15 2.8-.45 1.45-1.5 1.45-3.4 0-1.6 2.05-1.85 1.9-.25 4.1.7-3.15.75-3.95 2.4"/><path fill="#f9f1ab" d="M19.65 75.2l-6.85 6.3q-5.95-6.3-8.85-13.3-2.4-5.75-2.85-12.4-.1-1.75 3.5-.55 3.8 1.25 8.85 4.9l6.2 15.05"/><path fill="#d3cd91" d="M18.65 72.75l-8.2-9.25q-4.8-5-9.3-7.85.1-1.55 3.7-.3 3.7 1.25 8.6 4.8l5.2 12.6"/><path fill="#f9f1ab" d="M187.85 115.95q8.25 8.8 8.95 15 .4 3.8-1.25 11.95-.6 7.15-8.5 14.7-7.75 7.5-17.7 10.7-10.85 3.5-21.8 7.8-12.4 4.85-18.6 8.35-8.3 4.7-22.55 7.9-16.95 3.75-26.05.65-8.95-3.1-15.45-12.05-4.8-6.65-6.75-13.85-1.8-6.55-4.65-28.45-.8-6.2-2.6-12.55-1.65-5.6-3.25-8.8l-4.55 4.1q-4.9 5-6.6 9.65-.4 1.1-5.4 3.05-6 2.25-6.3 2.45-1.05.65-3.65-.85-2.55-1.5-5.45-4.4-2.8-2.8-3.45-6.8-.65-3.7.25-10.1 1-7.8.4-12.7-.15-1.15-.8-2.45l-1.4-3.65q-2.15-7.3 4.35-18.55Q17.7 72.5 27.2 67.7q11.4-5.75 21.7-4.5 9.55 1.2 16.45 15 1.8 3.65 5.2 12.05 3.1 7.75 4.9 11.05 5.9 10.8 11.4 14.9 5.1 3.8 14.85 5.3 7.35 1.15 24.5-5l27.75-10.2q19.5-5.85 33.9 9.65"/><path fill="#d3cd91" d="M80.35 193q-10.25-3.55-16.1-12.05-3.7-5.35-6.1-13.85-.95-2.7-1.35-4.45 20.65 29.5 55.35 23 12.25-2.3 24.25-8.8 9.55-5.2 14-9.9 2.45-2.6 3.4-5.8.7-2.2 1-6.45l5.55 5.55q5.7 6.1 6.55 8.85-8.1 2.7-20.8 8l-17.15 7.35q-11.15 4.7-22.75 7.5Q89.15 196 80.35 193m-34.2-79.35l8.3-6.55q4.2-3.6 8.65-9.05-.1 10.95-1 17.25-.75 5.35-2.55 9.8l-3.4 6.1q-2 3.1-2.7 6.95-.9-6.2-2.65-12.35-1.6-5.6-3.15-8.65l-1.7 1.2q-2 1.5-3.4 3-3.05 3.25-6.15 9.35-.9 1.85-5.6 3.6l-6 2.25q-1.05.65-3.6-1.05l3.55-1.05q4.1-1.7 7.6-5.7l5.4-7q2.6-3.35 8.4-8.1"/><path fill="#827aa0" d="M185.35 241.8l16.1.4q.95 3.45.9 7-.05 4-1.45 6.45-1.6 2.95-8.5 3.85-5.7.75-10.65-.15-2.85-.5-3.4-3.15-.45-2.15.6-4.65.7-1.65 3.05-5l3.35-4.75"/><path fill="#675f80" d="M191.8 241.95l9.65.25q.95 3.45.9 7-.05 4-1.45 6.45-1.35 2.4-9.1 3.25 2.1-5.4 2.35-8.75.35-4.8-2.35-8.2"/><path fill="#f9f1ab" d="M171.85 105.65q5.65.9 13.85 8.1 8.45 7.4 11.55 14.7 2.25 5.3.7 19.7-1.55 14.7-.1 18.6.8 2.25 7.4 13.9 4.95 8.8 4.5 13.05L204.6 211q-4.25 13.85-2.85 18.45 1.95 6.2 1.4 9.6-.45 3-3 4.4-1.65.9-5.7-.4-4.45-1.4-7.4-.5-3 .9-2.55-5.7.45-6.55 3.5-11.8 1-1.7 1.45-10.25l.55-11.65q.3-3.2-5.95-8.65-4.95-4.35-15.45-11.2-9.15-6-11.35-12.15-.9-2.55-1.45-7.15l-1.1-9.8 17.15-48.55"/><path fill="#d3cd91" d="M191.2 136.1q-.1-12.1-2.1-18.6 5.6 5.95 8.1 11.65 2.2 5.25.8 18.9-1.5 14.25-.35 18.1l-3.35-4.75q-1.25-2.45-2.35-8.45-.6-3.25-.75-16.85m14.65 58.75q.85-2.3 2.5-2.9 1.65-.6 1.4 1.75-.15 1.4-4.95 16-4.05 12.4-2.95 19.2 1.45 8.45.95 11.15-.4 2.45-3.1 3.5l-3.1.2-3.2-.95 3-1.85q1.65-1.75 2.25-6.1.1-7.55.7-13.8 1.15-11.85 6.5-26.2"/><path fill="#827aa0" d="M84.45 267.65l.4 2.85q.3 3.2-.15 5.15-.6 2.35-4.45 5.4-3.9 3.1-7.9 4.2-3.5 1-6.15-2.9-1.75-2.7-2.7-6.7-.55-2.45.8-6.55 1.15-3.7 3.05-6.55l17.1 5.1"/><path fill="#675f80" d="M84.45 267.65l.4 2.85q.3 3.2-.15 5.15-.5 1.95-3.35 4.5T75 284.3q1.9-3.85 2.65-9.1.55-3.75.6-9.4l6.2 1.85"/><path fill="#f9f1ab" d="M76.75 181.3q-.7-17.7.35-20.8l36.45 17.4q-1.1 6.35-9.4 21.85-8.15 15.15-8.3 16.65-.25 2.45-2.9 10.5l-4.05 12.6q-1 3.6-1.3 12.75-.25 9.15-1 11.85-1.15 4.4-6.75 5.2-5.7.8-10.55-2.9-4.2-3.2-3-8 .65-2.5 3.4-6.2 1.05-1.5 2.5-10.1 1.7-10.3 2.5-13 1.6-5.45 2.7-13.4 1.3-8.75.75-12.8-.8-5.75-1.4-21.6"/><path fill="#d3cd91" d="M85.45 239.15q2.9-9.95 9.5-18.6l-3.05 9.55-3 9.4q-1 3.6-1.3 12.75-.25 9.15-1 11.85-.9 3.4-4.75 4.7 1.45-2.95 1.75-4.45.5-2.45.05-6.75-.95-9.1 1.8-18.45"/><path fill="#ffe100" d="M117.8 14.35q1.5-2.95 2.35-7.55 2.75 4.65 2.85 12.15.1 8.2-3.1 16.05-8.3 20.25-32.55 26.35 3.4.45 6.85-.05 3.65-.5 6.7-2.05-4.55 7.4-12.8 9.15l-17.25 2.1L56 58.8q-7.4 11.35-15.4 16.7-3.8 2.5-9.65 4.25-.75 3.6-.4 7.25.15 1.85.45 2.95-5.6-1.2-10.4-6.4-6.75-7.25-7.5-19.2-.65-10.6 6.5-23.15 8.15-14.3 22.3-22.15-1.15 1.85-2.05 5.2-1.1 4.1-.6 6.65 3.05-5.75 10.2-9.45Q57.3 17.4 66 18.25l16.3 2.8q8.4 1.55 11.85.1 4.45-1.85 7.4-5.7 2.75-3.55 2.1-5.75 1.85 1.05 2.1 4.45.2 2.95-.65 5.2 5.3-3.25 7-6.85 1.8-3.75 1.45-11.25 2.2 2.75 3.45 8.2l.8 4.9"/><path fill="#e95504" d="M82.2 43.9q2.6-3.4 8.2-3.95-4.3 2.95-2.55 4.3 1.85 1.4 8.8-1.25 5.15-2 7.45-8.35 1.2-3.35 1.9-4.4 1.35-2.15 3.8-2.95-1.4 4 .45 5.8 1.8 1.75 3.4-1.25 1.05-2 4.7-4.7 3.6-2.7 4.4-4.2-.75 10.6-6.4 19.2-9 13.8-28.9 19.15 7.05 1 13.6-2.3-4.25 7.45-12.85 9.3L80 69.4l-9.15 1.1L56 58.8q-6.5 10-13.6 15.4 5.45-6.5 4.65-11.5l-.8-3.5q-.35-1.85.35-3.3.6 1.2 3.45 1.65 2.8.4 2.05-1.4-.8-2 .4-5.3 1.2-3.35 2.55-2.05 1.65 1.6 3.9 2.7 2.65 1.25 3.75.55-1.7-1.5-1.7-4.25.05-2.65 1.7-3.2.05 2.1 2.25 2.4 1.65.3 3.7-.45 1.45-.5 1.25-2.6-.25-1.9 1.2-1.95 1.4-.05 3.55 2.8 2.1 2.8 3.65 2.65 1.3-.15 2.25-1.2l1.65-2.35"/><path fill="#f9f1ab" d="M49.75 67.75l6-8.15q2.65-1.3 13.7-4.1 11.85-3 11.65-1.5-.65 5.8-7.75 17.6-6.3 10.45-9.5 13.2l-14.1-17.05"/><path fill="#d3cd91" d="M51.9 68.25Q54 65.3 67.55 59.4q13.8-5.95 13-2.4-1 4.7-7 15-6.1 10.4-9.25 12.65-3.8-9.65-9.55-13.2L51.9 69.9q-.75-.6 0-1.65"/><path fill="#eb6d80" d="M55.75 68.15q5.4-4.1 11.8-7.3 6.3-3.15 8.95-3.15.4 2.65-5.15 10.45l-8.4 10.8q-1.6-6.6-4.55-9.35l-2.65-1.45"/><path fill="#cb5e71" d="M72.15 67q-8.95-.65-14.7 1.85l-1.85-1.1q4.25-3.2 9.85-6.05 7.1-3.65 11.05-3.65.15.8-1 3.2Q74.25 64 72.15 67"/><path fill="#fff" d="M39.25 95q.8 0 1.4.9.55.95.55 2.25t-.55 2.25q-.6.9-1.4.9-.8 0-1.35-.9-.6-.95-.6-2.25t.6-2.25q.55-.9 1.35-.9"/><path fill="#ffe100" d="M120.6 175.7q1.9-1.55 3.15-.95 1.35.6 2.2 2 .65 1.05 1.6.95l3.9-2.2q3.1-1.95 5.2-1.4-1.7 1.15-2.3 1.85-1.1 1.3-1 3.05.05 1.5 2.35 1.95 2.35.45 3.3-1.3.8-2.95 1.8-4.5 1.85-2.75 7.35-3.35-2.3 1.7-2.5 3.8-.25 2.2 2 3.05 2.35.85 2.15 2-.15 1.15-2.65 1.7-2.4.55-3 1.65-.4.7-.1 1.8.45 1.75 2.05 2.15l2.45.45q-1.05.65-2.6 3.8-1.3 2.7-3.2 2.95-1.85.25-3.9-.55-1.35-.55-2.05.35l-1.95 3.05q-1.45 1.75-3.75 1.65l-6.55-.85q-2.35-.05-3.3 3l3.9.15q1.05.5 2.1 2.05.5.8 2.15 1.2l2.6.25q-1.1 1.45-4.25 2-2.85.45-3.25 1.65-.65 1.85-2.35 1.95-1.65.05-6.6-1.55-.9-.25-1.1 2.15-.15 2.55-1.25 2.55l-3.6-.25q-2.1-.1-2.55.9-.7 1.75.7 3.6.75.9 1.6 1.45-1.15.25-2.5 0-2.75-.5-3.95-3-.8-1.7-2.5-1.05-1.6.6-2.3 2.5-.65 1.75-1.45 2.15-.85.4-2.05-.4 4.75-6.7 9.2-15.1 8.95-16.7 7.5-25 1.5-.35 3.4 0 1.25.2 2.2-.7l3.7-3.6"/><path fill="#e95504" d="M113.65 179.95h1.55q.1 1.35-1.25 4.8-.65 2.85 2.2 3.15 1.65.15 4.1-1.85 1.6-1.3 4.85 1.35 1.2 1 2.65 1.6l2.9.25q1.75-.75 2.75-1.95 1.4-1.65-.65-2.7.95-.6 3 .8l2.95 2q1.65.6 3.55-.55l1.55-1.05q.45 1.7 2.3 2.05l2.65.35q-1.35.4-2.85 3.55-1.45 2.95-3.5 3.2-1.85.25-3.7-.45-1.15-.45-1.9.45l-1.95 3.05q-1.45 1.75-3.75 1.65l-5.05-.55q-2.85-.2-4.05 1.25-2.35 2.15-4.65.3l-1.35-1.2q-.55-.45-.75.2.1 4.65-2.95 5.35-3.8.05-5.15.95-1.55.8-.15 3.15 1.4 2.3 3.45.45 1.95-1.75 2.45.8.45 2.4-.3 3.75l-3.3-.2q-1.8-.05-2.25.95-.7 1.75.7 3.6.75.9 1.6 1.45l-2.55-.1q-2.75-.6-3.95-3.15-.75-1.65-2.4-.65-1.55.9-2.3 2.9-1.1 3-4.65 1 0-1.6.35-3.8.7-4.35 2.4-7.05.85-1.35 3-3.2l2.8-2.6q.7-.85 1.05-3.3.4-3.15.7-4.1.4-1.05 2.9-3.25 2.4-2.1 2.9-4.1l1.15-5.1q.35-2.45-.35-3.05l3.25-.4"/><path fill="#ffe100" d="M202 156.35q1.4.35 1.3 1.25-.3 1.85 1.45 2.6t2.2-1.45q.45-2.3 1.7-4.85 1.35-2.75 2.55-3.35l3.8-1.25q2.9-1 4.2-2.35-.2 2.2-2.9 4.3-2.5 1.9-2.35 2.6.4 1.7 2.95 1.7 2.05 0 1.45 1.35-1.3 3.3.05 4.45l3.2.1q1-.35 3.35-3.95 2.2-3.4 3.7-3.55l3.25.2q1.1.65.7 3.15-.4 2.85.75 3.1 1.2.3 3.05-2.6 1.65-2.55 3-2.3.85.2 2.75 1.55 1.85.9 3.5.55 1.8-.4 2.75-2.3 1.55-3.05 3.2-4.35 2.5-2.1 6.4-1.8l-2.95 2.55q-2.05 2.15-1.75 5.55.3 3.8-2.3 5.7-2.85 2.05-2.9 2.5-.15 1.3 1.75 2.4 1.95 1.2 4.7 1.25l-3.55 1.7q-2.2 1-3.7 3.15-.9 1.3-2.15 5.95-1 3.5-3.25 4.6l-5.4.25-3.9.2q-1.3 1.35-1 3.1.25 1.45 1.3 2.25 1.05.75 3.4.35l3.2-.6-2.65 2.7q-2.1 1.6-3.8 1.75-1.95.25-4.4-.5-2.55-.75-3.6-2-1.05-1.2-3.75-1.05-2.55.1-3.4 1.1-.75.9.5 2.45 1.2 1.45 2.55 1.65l-7 .25q-2.75-.95-4-.25l-2.95 1.7q-.8.2-1.75-1.55l-1.5-3.15q-.85-2.35-.1-3.75.75-1.35-1.9-2.95-3.35-1.75-4.5-2.65-.7-.55.05-1.6l1.85-2.1q2.4-3.1-1.4-5.6-1.5-.95-.05-3.2 1.4-2.15.05-2.9-2.3-1.2-3.5-3.05-1.3-2.05-.65-3.95.4-1.25 3.25-3.45 2.6-2.1 2.75-3.75.6 1.65 2.4 2.15"/><path fill="#e95504" d="M197.6 174.4q1.35.15 2.6 1.1 1.3.95 2.6 1.1 1.2.15 2.5-.6 1.7-1.05 2.5-1.25.4-.1 1.1 2.4.75 2.4 3.05 1.6 2.15-.7 3.7-4.05 1.5-3.35 2.8-3.75-1.6 6.05 4.5 4.65.45-.1 1.85-2.5 1.65-2.9 3.6-4.5 3.15-2.5 6.85-1.3 3.65 1.2-1.7 5.3-.65.55.05 2 .7 1.5 2.65.35 1.7-1.05 3.45-3.5 2.15-3 2.85-3.65l2.5.3q1.95.4 3.05-2.2.15 1.3 2.05 2.25 1.8.85 4.3 1l-3.5 1.65q-2.15 1-3.65 3.15-.9 1.3-2.15 5.95-1 3.5-3.25 4.6l-5.5.3q-3.05-.7-4 .25-1.35 1.3-.95 3.05.35 1.4 1.45 2.2.9.7 3.05.35l3.3-.55q-.8 1.3-2.45 2.65-2 1.6-3.75 1.75-1.95.25-4.4-.5-2.55-.75-3.6-2-1.05-1.2-3.75-1.05-2.55.1-3.4 1.1-.7.85.35 2.25.85 1.1 2.3 2-3.95 1.3-6.8.15-2.55-1-3.8-.3l-2.95 1.7q-.8.2-1.75-1.55l-1.5-3.15q-.85-2.35-.1-3.75.75-1.35-1.9-2.95-3.35-1.75-4.5-2.65-.7-.55.05-1.6l1.85-2.1q2.4-3.1-1.4-5.6l-.15-.1"/><path fill="#0d131a" d="M10.35 93.8q.1.9 1.2 3.15l1.4 2.75q.4.85.3 5.7-2.7-2.75-3.05-7.45l.15-4.15m91 158.55q5.2 10.35 1.55 14.5-5.65 6.35-11.3 8.1-4.75 1.45-6.15-.65l-.3-2.25q1.35 2.15 4.95 1.45 4.85-.95 11.4-7.5 3.25-3.25-1.3-13.1l1.15-.55m24.4-5.3q-.4-1.95 2.35-6.3 2.35-3.7 5-6.35l.65 1.45q-2.55 2.5-4.3 5.4-2.1 3.4-1.7 5.35.2.75 1.2 1.65 1.2 1.05 2.85 1.5l9.35.5q4.85-.5 6-1.75 1.3-1.4 1-5.75l-.5-4.1 1.15-.5q1.1 5.85.8 8.7-.25 2.6-1.65 3.3-2.75 1.4-7.4 1.8-5 .45-9.05-.65-2.4-.65-3.95-1.85-1.55-1.15-1.8-2.4"/><path fill="#0d131a" d="M165 185.85l1.85 1.15q-3.4 5.25-10.8 24.3-2.25 6-2.85 16.3l-.25 4.4q-.1 2.2-.4 3.15-1.5 4.95-9.05 5.15-7.4.25-10.95-4-1.35-2.45 1.2-7.2l3.35-5.1q2.7-4.15 3.4-6 1.15-3.1 2.15-10.25 1.1-7.65.9-12.8 1.35-.55 1.5-1.5.45 5.1-.55 13.6-.95 8.05-2.15 11.4-.7 1.95-3.7 6.35l-3.6 5.4q-1.75 3.3-.8 5.1 2.85 3.5 9.1 3.35 6.45-.15 7.7-4.35.35-1.3.75-6.8.3-5.2.75-8.3.65-4.9 1.95-8.35l3.8-10.1q4.25-10.95 6.7-14.9"/><path fill="#0d131a" d="M163.85 185.5q.6-.8-.65-1.3l-1.65-.7 2.15.05q1.3.1 2.25.75 1.05.65-.3 1-1.3.35 1 1.1 3.5 1.15 4.55 2.45.95 1.2 3.65 1l2.55-.45 1.15.95-4.3.9q-2.8.25-3.45-.7-.9-1.35-1.95-1.95l-2-.85-2.3-.45q-1.25-.1-1.4-.55l.7-1.25m-92.1 10.65q-4.05-8.1-7.85-14.8l2.25 1.75 2.2 1.8q5.25 10.15 10 22.05v4.55q-1.55-5.05-6.6-15.35m28.2 37.45q.35 2.25 2.65 8.8 1.9 5.2 1.45 7.7-.4 2.45-4.8 4.55-3.3 1.6-6.9 2.3l-2.5-.1q-1.05-.35-2.6-1.5l.05-1.6 2.15 1.55q1.3.65 2.7.4 2.7-.55 5.8-2.1 3.6-1.85 4.2-3.5.6-1.7-1.15-6.85-2.3-6.65-2.7-9.45l-1.85-12.85.75-.5.6-.55 2.15 13.7M279.3 73.95q.6.4 1.5-.65 2-2.3 2.9-2.7 1.35-.6 3.95.55 1.35.6 1.15.95-.15.35-1.75.85-2.4.7-4.05 3.6-.65 1.1.05 2.45 1 1.8 1 3.35L284 84.2q0 1.15.3 1.85.6 1.55 1.95 1.15 1.2-.25 2.1-1.7.95-1.45.8-3.1-.4-3.7.55-5.3.9-1.65 4-2.55l2.9-.4-1.05 2.25q-1.55 3.6-.6 8.3.9 4.6-.3 6.3-.7 1-2.55 1.9-1.7.75-3.5 1.1-7.3 1.15-9.1 4.4-1.15 2-.45 4.85.95 3.65 5.55 3.05l1.9.05-1.2 2.3q-2.2 3.85-5.85 4.55l-6.6-.45q-4.2-.75-5.6.05-1.15.65-3.15 4.45l-1.35 2.55q-.85 1.35-2.15 1.9l-2.7.55-2.85.35q-3.85.85-4.15 1.4v.25q.2.45.9.7 2.55.9 7.35-.9l2.3-.7q.3.1-.75 1.85-1.2 2.15-1.45 3.1-.5 2.1-1 2.75-1.05 1.5-3.75 2-2.4.45-4.85-.45-1.45-.55-4-2.15l-3.35-1.75q-1.75-.55-3.05.5-1.25 1.05-2.25 2.75l-1.35 2.6-1.25 2q-.7.8-1.75.95-.95.15-2.65-.5-1.5-.55-2.8-1.45-2.65-1.8-3.5-.5-.75 1.05-.1 2.45.5 1.05 2.25 1.9 1.7.8 1.75 1.05.05.35-2.25 1.05l-4.55.3q-2.65-.55-3.4-2.7l-1.1-3.25q-.7-1.6-1.55-1.95-1.65-.65-3.5.45-7.75 4.5-12.6 2.45l.05-.9-.05-.9q2.1 1.05 5.8.6 3.45-.45 5.85-1.8 1.7-1 2.75-1.25l2.1.1q1.15.45 1.95 2.25l1.1 3.25q.6 1.8 3.2 2.45 2.55.6 4.35-.35-2.05-.85-2.8-2.45-.4-.75-.4-1.75 0-1.8.3-2.2 1-1.35 4.65 1 2.75 1.75 4.55 1.5l1.45-.9 1.2-1.9q1.85-3.35 4.05-5.2 1.6-1.3 3.55-.8 1.15.3 3.5 1.75l3.7 2q2.25.85 4.45.4 2.45-.45 3.4-1.45.65-.65 1.05-2.3.5-1.95 1.4-3.05-2.25.85-4.5 1.05l-3.75-.3q-2.8-1-2.15-2.35.25-.6 2-.9l3.5-.55 4.75-1.25q1.2-.55 2.1-1.65l1.4-2.35 1.15-2.35q.8-1.55 1.65-2.3 1.3-1.1 3.3-.95l3.7.75 6.2.25q3.85-.8 5.65-4.85-4.6 1.05-6.35-2.95-1.55-3.5-.25-6.15.95-1.95 4.1-3.55 2.9-1.5 6.3-2.05 3.05-.45 4.35-2.35 1.25-1.9.75-5.25-.35-2-.35-3.55 0-3.9 1.6-6-5.3 1.05-5.1 5.95.3 6.1-3.45 7.1-2 .5-2.75-1.4l-.5-2.1-.15-2.05q-.1-1.6-.95-3.65-.6-1.3.05-2.75.6-1.35 2-2.6 1.4-1.2 3.05-1.75-1.9-.7-3.4-.05-.9.4-2.45 1.85l-1.55 1.3q-1.6.55-1.8-3.1-.05-1.25.6-2.9l-1.7.95q-3.6 1.9-4 3.2-.25 1.05.5 2.9.85 2.05.85 2.85 0 1.2-.85 3.15-1 2.2-2.05 2.8-2.1 1.15-4 .35-1.75-.75-2.5-2.5-.4-1-.3-2 .05-1.05.7-2.65-2.2.85-3.05 2.3-.55.95-.8 3-.2 2-.7 3.15-.8 1.85-2.65 2.95-8.25 4.95-16.2-6.15-4.75-6.6-8.75-9.05-3.45-2.05-8.7-2.35-5.3-.3-7.7.55-2.9 1-4.2 4.25-.9 2.1-2.4 3.05-1.25.8-2.55.65-1.3-.15-1.75-1.9l-.65-2.1q-1.5-1.05-1.5-2.2 0-1.4 1.1-3.85-2.4 1.25-3.4 4-.9 2.5-.9 7.1 0 2.9-1.45 4.1-1.1 1-2.45.15-1-.65-1.15-2.95-.1-1.8.35-4-3.3 3.65-2.65 10.4.95 10.05-2.1 16.9-2.15 4.8-5.8 7.2l-.55-.55-.6-.4q4.15-3.45 6.4-8.6 2.2-5.1 1.7-9.9-.7-6.9 0-10.7.8-4.3 3.75-6.65 1.3-1.05 1.45-.9.25.2-.5 2.55-.65 2-.5 3.95.15 1.9.95 2.35.9.6 1.6-.5.85-1.25.7-4-.35-7.95 5.05-11.05 1.8-1.05 1.85-.5l-1.2 2.95q-.85 1.7-.85 2.9 0 .4.6.7.9.4 1.05.5.5.35.6 1l.15 1.9q.05 1.5 2.05.7 2.05-.8 3.2-3.55 1.45-3.5 4.55-4.6 2.6-.9 8.1-.6 5.7.3 8.45 1.8 3.85 2.2 9.05 9.45 3.95 5.5 7.4 7.25 3.8 2 7.55-.25 2.65-1.6 3.3-6.5.25-2 1.05-3.15.95-1.3 2.85-1.95 1.85-.65 2.25-.45.45.2-.45 1.7-1.45 2.3-.6 4.3.5 1.2 2.15 1.55 1.6.35 2.9-.4.9-.5 1.6-1.75.7-1.2.85-2.4.1-.65-1.05-3.25-1.05-2.5-.8-3.5.35-1.05 2.35-2.45.75-.5 3.8-2.25 2.35-1.25 2.45-.85.1.45-.8 3.8-.45 2.4.3 2.85"/><path fill="#0d131a" d="M162.6 96.2q.55.15 1.5-.5l1.75-1.45q1.65-1.5 3.05-2.05 1.95-.75 4.05-.05 1 .35.9.75l-1.2.95q-2.4 1.35-2.6 3.1-.2 1.5 1.15 2.65.75.65 2-.2 1.4-.9 1.4-3.1 0-1.5 1.95-2.2l4.3.15 1.4.65q.15.25-1.2.7-3.3 1.2-3.4 2.65-.1 1.15 1.85 2.65 4.25 3.3 4.95 5.8.6 2.3-1.65 4.15-.65.55-.95.3-.35-.25.35-1.05 1.45-1.55.8-3.35-.75-2.15-4.6-5.5-4.45-3.65 1.9-6-2-.65-3.4-.35-1.4.3-1.4 1.4 0 1.95-1.65 3.6-1.75 1.8-3.2.55-1.3-1.15-1.5-2.55-.3-2.3 2.9-4.6-1.55-.5-2.85 0-1.05.4-2.9 1.85-1.95 1.6-3 1.75-2.1.35-3.15-3.15-.45-1.5-2.1-2.2l-2.95-.2q-1.5.25-2.9 1.05-1.7.95-2.95 3.3l-1.1 1.85q-.75 1-1.6 1-1.65 0-1.4-2.4.3-2.65 3.15-5.5 1.6-1.6-2.15-4.25.7 2.55.1 3.9-.6 1.5-2.75 1.3-3.95-.35-5.3.9-1.05 1-.75 4.65.3 3.6-.8 4.65-1.1 1.05-3.45.85-2.2-.15-3.65-1.2-1.2-.85-2.45-.9-1.3-.05-.4.35 2 1.05 2 3.4 0 2.25-2.95 3.55-2.95 1.25-3.75-.35-.5-1.1 1.2-3.55l-2.6-.35q-1.6-.5-.8-2.15.9-1.85-.05-4.65-.3 1.2-3.1 4.25-2.6 2.85-2.65 4.55 0 1.35 1.35 2.75.6.65-.15 1.7-.65.9-1.35 1.1l-2.85-.2q-1.6-.55-2.5-1.45-1.45-1.35-1.05-2.7.35-1.4-.65-3.3-.95-2-.15-3.15-1.95.7-2.65 2.5-.45 1.1-1.25 4.4-1.65 5.35-6.1-2.05-.7-1.1-.7-2.35 0-1.3 1.65-2.5l1.1-1.25q.2-.45-.1-1.1-1-1.85-1-4.15 0-1.8.8-3.15-2.85 1.25-3.05 3.5l-.1 5.35q-.35 2.1-1.5 3.25-1.05.95-2.1.8-1-.1-1.65-1.05-.65-.85-.55-1.7.05-.75-.3-1.2-.3-.4-1.2-.7-1.1-.35-1.3-.5-.7-.6 0-1.9l1.5-2.45q.7-1.25.25-1.8-.35-.35-1.4-.35-3.1.05-4.35-.6-1.15-.65-1.4-2.3-.2-1.15.3-2.5l.25-.75q-.15-.45-1.45-1.05-4.75-2.2-4.75-4.2 0-.65.85-.9l2.25.15q3 1.2 3.85 1.1 1.05-.15 2.5-2.25l1.75-1.9q-1.6-.55-3.85.05l-2 .3q-1.1-.15-1.95-1.35-1.35-1.85-1.6-2.95-.3-1.55.95-3.35l1.35-.2q-2.1 3.25-.1 6.05.65.9 1.35.9l1.65-.4q3-.85 4.3-.6l2.65.7-1.6 1.35-2 2.65q-1.5 2.35-3.2 2.4-1.05 0-4.1-1.3-1.85-.85-2.05-.3-.25.7 2.15 2.05l3.6 1.75q1.55.55.85 1.65l-.8 1.35q-.3.7-.15 1.45.2 1.3 1.05 1.4h4.05q2.45 0 2.8.65.4.65-.55 2.65L88 96.8q-.25.65-.15.9.15.35 1.05.5l1.2.2q.45.25.3 1.5-.1.9.1 1.65.3.95 1.15 1.05.9.1 1.7-.8.85-1 1.15-2.75l-.05-5.5q.1-2.45 3.25-3.9 1.5-.7 1.7-.5.3.2-.4 2-.5 1.3-.25 3.35.25 1.95 1 3.5.55 1.05-.2 1.85l-1.5 1.1q-1.05.85-1.2 1.35-.3.85.5 2.25 1.6 3 2.95 3.45 1.15.35 1.75-1.05l.8-4.15q.55-2.25 3.2-3.6 1.95-1 2.2-.8.25.2-.5 1.85-.85 1.85-.35 2.9l.95 1.65q.35.8.1 1.85-.35 1.4.6 2.3 1.35 1.4 3.75 1.25.9-.1 1.5-.55.8-.55.15-1.1-1.3-1.2-1.45-2.45-.3-2.05 2.15-4.95 3.2-3.9 3.9-5.4.7-1.45.95-1.4l.6 1.55q.7 2.35.25 4.45-.4 1.9-.3 2.15.15.35 1.45.4l2.05-.15q1.95-.35.55.75-.8.65-1.45 1.9-.7 1.3-.45 1.75.4.9 2.25.2 1.95-.7 2.6-2.4.25-.7-.1-1.8-.4-1.2-1.3-1.8-2.3-1.45.05-1.7 2.4-.25 3.85.8 1.5 1.05 3.25 1.3 1.85.3 2.75-.65.8-.8.2-4.5-.55-3.7.65-4.9.95-.9 3.2-1l3.45.15q1 .1 1.5-1.1.6-1.4-.05-3.55-.45-1.6-.1-1.6.25-.05 2 1.1 2.15 1.35 2.75 2.85.65 1.6-.75 2.7-1.4 1.15-2.3 3.25-.9 2.1-.3 2.55.9.7 2.25-1.7l1.2-2.1q.9-1.35 2.1-2 3.8-2.15 6.65-1.05 1.55.6 2.35 3.3.75 2.4 1.75 2.7M13.05 60.65Q9.7 58.25 6 56.6q-3.4-1.5-3.7-1.05-1.3 2.15 2 11.1 3.6 9.8 8.95 14.4l-1.05 1q-7-6.75-10.5-17.4-3.1-9.55-1.05-11.2.85-.65 4.55 1.05 3.95 1.8 8.6 5.15l-.75 1m144.65 110.9l.7 1.5q-8.65 3.5-11.9 4.5l-.75-1.6q9.55-3.25 11.95-4.4M53.75 147q-2-16.85-7.05-29.2-.25-.6.6-1.1l1.05.1Q54 131 55.7 145.6l1.1 10.85q.7 5.95 1.9 10.4 2.25 8.15 7.5 14.75 4.95 6.2 11.2 9.4l.4 2q-7.35-3.55-12.25-8.85-6.15-6.65-9.1-16.55-.85-2.9-1.5-8.85L53.75 147"/><path fill="#0d131a" d="M11.6 98.5q-2.75-5.1-2.25-9.1.55-4.85 5.95-14.6l.7 1.85q-4.15 7.6-4.95 12.1Q10.15 94 13 98.5q.95 1.5.75 7.65-.15 4.65-.65 8.35-.85 6.5-.2 9.95.65 3.5 3.3 6.2 3.85 3.85 5.9 4.75 2.45 1.1 5-.35l5.25-2.3q2.85-1.25 3.55-2.6 3.85-7.7 9.7-12.45 8.7-7.05 12.3-11.25 2.1-2.5 3.9-7.4 1.2-3 1.55-2.65.35.35-.55 3.35-2 6.45-3.95 8.75-3 3.65-11.35 9.85-6.1 4.6-10.15 12.7-.65 1.35-2.85 2.25l-6.2 2.6q-2.8 1.3-4.5 1.4-2 .1-3.95-1.25-3.1-2.15-5.8-4.9-2.5-2.5-3.05-6.25-.5-3.55.4-10.6l.85-5q.55-3.65.35-6.65l-.25-2.45-.75-1.7m173.15 143.2l1.1.45-4.1 6.45q-2.3 4.05-2.35 6.4-.05 1.85.7 2.6.8.9 3.25 1.25l9.55-.3q6-.9 7.45-2.85 1.45-1.9 1.45-6.05-.05-3.45-.95-6.9l1.25-.35q1.05 3.85 1.15 7.4.15 4.4-1.25 6.9-1.45 2.6-8.45 3.5-5.55.75-10.4.2-3.65-.45-4.75-1.9-.7-.9-.65-3.2.15-2.85 2.55-7.1 1.8-3.15 4.45-6.5m13.65-112.55q1.6 4.6.7 15.95l-1.35 12.1-1.35 1.5 1.15-13.15q.75-11.95-.95-16.15-2.7-6.75-9.7-13.55-6.7-6.45-12.85-8.85-7.2-2.45-16.6-.7-8.4 1.6-20.5 7.05-31.9 14.35-47.25 5.4-7.05-4.1-12.9-13.85-4.5-7.5-10.45-22.6l1-1.45q6.25 15.5 10.35 22.5 5.6 9.6 12.3 13.55 7.35 4.35 18.2 3.3 11.1-1.1 28.15-8.15 12.65-5.2 17.4-6.5 11.2-3.1 19.15-.65 6.5 2 14.3 9 8.6 7.65 11.2 15.25"/><path fill="#0d131a" d="M183.55 195.6q-4.85-4.25-15.55-11.25-8.55-5.6-10.7-10.2-1.7-3.6-3.2-17.35-.35-3.55.2-3.6.55 0 1.05 3.45 1.9 12.9 3.7 16.25 1.8 3.5 9.95 9.35 13.55 9.8 17.3 13.3 4.9 4.55 4.6 8.1l-.55 9.8q-.85 10.45-2.35 13.5-2.35 4.75-2.85 9.6-.4 4.25.7 5.3l1 .1 4.3-.35 3.35.9 3.1.75q1.7.05 3.7-1.25.5-.35.9-2.2.4-2.15.15-4.35-.15-1.75-1.05-5.35-.7-2.8-.55-4.95.25-4.75 4.25-17.9 4.95-16.3 3.5-10.45l2.2-.75-4.35 12.45q-3.65 10.9-4 17.1-.1 2.05.55 5.1l.95 4.9q.2 2.2-.5 4.7-.65 2.5-1.6 3.05-1.95 1.15-4 1.1-1.45 0-3.65-.75l-3.55-1.05-3.3.5-2.05.5q-1.15.05-1.4-.75-.85-3.05-.35-7.25.55-5 2.9-9.1 1.6-2.85 2.2-13.4l.3-9.95q.25-2.75-5.3-7.6M85 267.05l.8 3.15q.65 3.35.15 5.3-1 4.05-7.35 8.1-6.05 3.8-8.95 3.15-2.45-.55-4.85-4.45-2.3-3.75-2.45-7.05-.1-2.65 1-5.95 1.15-3.5 3.3-6.5l1.05 1.05q-2.05 2.9-3.05 6.25-1 3.3-.5 5.4.85 3.85 2.5 6.35 1.6 2.4 3.45 2.9 2.1.5 7.6-2.95 5.65-3.55 6.35-6.3.45-1.8.15-4.95l-.4-2.8 1.2-.7"/><path fill="#0d131a" d="M76 183.35q-.5-16.45.8-23 .35-1.5.7-1.75.4-.3.2 2.15-.25 3 .25 20 .5 17.65 1.1 22.1.55 4.45-.35 12.2-.9 7.1-2.65 14.2L73.85 240q-1.9 8.8-3.4 12.1l-1.9 4.4q-1 2.6-1 4.55-.05 1.8 2.25 4.2 2.35 2.5 5.1 3.15 2.5.65 6.2-.7 4-1.4 4.65-3.75.45-1.7.6-4.6l.15-5.85.25-6.7q.2-3.45.85-5.9l6.45-20.5h1.5l-3 9.7-3 9.55q-1 3.6-1.3 13.35v6.45q-.05 3.6-.5 5.3-.7 2.6-5.35 4.35-4.6 1.7-7.95.8-2.8-.8-5.7-3.4-3.4-3.15-3.3-6.15.1-3.25 3.65-9.1 1.25-2.05 2.9-10.85 1.65-9.4 2.2-11.6 1.65-6.85 2.55-13.9 1.05-7.9.5-11.9-.85-6.25-1.25-19.65m45.55-174.7q2.45 6.5 2.05 14.55-.4 7.9-3.35 13.95-4.15 8.5-11.8 14.75-8.35 6.8-18.95 9.1l4.85-.35q2.75-.5 4.9-1.35 2.35-.9 2.5-.65l-1.35 2.4q-4.3 6.15-11.55 8.05L73.8 70.85l.8-1.4 14.25-1.85q6.5-1.55 11.45-7.75-2.95 1.5-5.8 1.95l-5.15.2q-2.9-.2-2.8-.6.1-.4 3.05-1.3 10.45-3.1 18-9.55 6.95-5.9 11.05-14.2 3.55-7.3 3.7-15.45.1-7.05-2.25-12.85l-.6 3.5-1.2 2.6-.35 2.55q-.2.35-.5-2.1-.8-6.3-2.65-10.3l-.8-1.5q-.1.05-.05 1.5.1 6.05-2.2 9.8-1.9 3.05-6.15 5.4l-1.25 2.15q-.3.15.05-.95.95-2.95.95-5.55 0-2.55-1.25-4.2-.2 2.7-2.5 5.6-2.55 3.2-6.4 4.8-4.25 1.75-14.25.05-11-2.25-15-2.65-8.3-.8-16.55 3.75-6.9 3.85-9.65 8.6l-1.05 1.3q-.35-.1-.3-2.5.05-3.85.6-6.1.45-2.05 1.5-3.55-12.1 8.3-19 19.55-6.25 10.25-7.35 21.5-1.05 10.2 4.75 18.8 5.05 7.5 11.4 9.2-.8-2.5-.9-4.65-.05-3 1.05-6.5.65-2.05 2.3-3.95 1.5-1.85 1.6-1.3l-.95 2.25q-1.25 2.45-1.75 3.95 6-1.75 13.45-8.6 5.95-5.45 10.85-12.15.8-1.1 1-.85.2.3-.5 1.6Q52 67.55 43 74.35q-7.6 5.7-11.6 6.05-.6 1.4-.55 3.9 0 2.05.45 4 .4 1.9.2 2.2-.3.45-2.25-.3-7.45-2.85-11.85-9.4-4.5-6.75-5.05-16.4-.65-10.65 6.95-23.9Q27.2 26.65 39 19.25q2.75-1.75 3.35-1.45.55.3-.5 2.45-1.65 3.45-2.05 6.55-.2 1.6-.1 2.5 3.65-5.6 10.35-9.15 7.7-4.1 16-3.3L80.1 19.9q9.8 2.15 14.2.55 4.05-1.45 6.45-4.55 2-2.6 2.35-5.5.25-1.7.45-1.75.25-.1 1.3 1.3 1.05 1.35 1.35 3.65.3 2.35-.35 4.8 3.95-2.45 5.6-5.95 1.5-3.1 1.5-7.85 0-4.4.5-4.6.55-.2 2.35 3.7 1.9 4 2.2 9 .8-1.25 1.2-3.9.4-2.85.85-2.85.45-.05 1.5 2.7"/><path fill="#0d131a" d="M81.55 53.35q1 1.1.2 3.9-1.65 5.65-7.6 14.85-4.8 7.45-7.9 10.8-2.15 2.3-2.1 1.6 0-.7 1.45-2.6 3.7-4.95 7.5-11.25 4.95-8.25 6.65-13.5.55-1.75.05-2.35-.45-.65-2.1-.4-3.4.45-10.75 2.35-8.6 2.2-12 3.9l1-1.7q2.45-1.2 8.15-3.1 7.85-2.55 13.85-3.3 2.7-.25 3.6.8"/><path fill="#0d131a" d="M75.5 60.15q.6-1.3.25-1.6-.3-.35-1.65.2-7.95 2.45-17.45 9.1 2.35 1 4.1 3.6 1.85 2.75 2.4 6.55 3.15-3.8 7.1-9.5 4.1-5.85 5.25-8.35m-.55-2.8l2.3.05q.45.6-.4 2.5-2.15 4.75-7.45 11.85l-6.1 7.5q-1.1 1.1-1.05.45l.25-.9q-.7-3.45-2.6-6.45-1.9-3.05-3.95-3.9-1.35.8-1.75.6-.4-.3.95-1.4 8.25-6.7 19.8-10.3m-49.8 73.1q0-.9.4-2 .35-1 .85-1.6.5-.55 1.25-.35.8.15.5.55l-.85.8q-.7.75-1.25 2.25-.3.9-.6 1.05-.3.15-.3-.7m96 45.7q-1.7 1.1-4.65 4.05-.7.7-2.2.4l-3.1-.15q-2.35.5-1.8-.15.5-.55 3.1-.9h2.3q1.05 0 1.7-.75 2.35-2.65 3.95-3.75 2.35-1.7 3.95-.95.85.35 1.55 1.7l.95 1.4q.8.4 3.2-1.45 2.85-2.2 5.3-2.4 2.1-.2 2.15.25.05.35-1.5 1.55-2.45 1.85-2.15 3.95.25 1.7 2.25 1.5 2-.25 2.65-2.25.9-2.95 1.85-4.05 1.9-2.1 6.35-2.65l1.9-.05q.25.25-1.1 1.3-1.7 1.35-1.55 3.2.1 1.75 1.7 2.35 2.75 1 2.6 2.35-.15 1.35-2.9 1.95-2.35.55-2.95 2.45-.65 2.05 2.65 2.65l2.05.4q.3.2-.85 1.2-1.5 1.35-2 2.3l-1.2 2.65q-.9 1.45-2.35 1.65-1.8.25-4.35-.8l-.85-.2-.7.5-1.25 2.35q-1.3 2.25-3.35 2.6l-4.25-.2-3.95-.5q-1.6 0-2.4 1.65 4.3-.75 5.5 1.9.75 1.45 3.5 1.75 2.1.2 2.15.5.05.2-1.65 1.35-.65.45-3.6 1.15-2.35.6-2.7 1.55-.75 2.15-1.7 2.45-1.8.5-5.65-1.3-2.7-1.25-2.8.9l-.35 2.35q-.35.8-1.55.8l-2.2-.35q-6.3-.2-1.8 4.55 1.25 1.3 1.05 1.65l-2.55.3q-1.8-.1-3.2-1.05-1.45-1-1.95-2.55-.4-1.3-1.6-1-1.3.3-2 2.2l-.8 2.2q-.5 1-1.7.7-2.25-.45-2.95-1.2-.7-.7 1.3-.2l2.3-.05.8-1.7q.7-1.85 2.6-2.65 2-.85 2.85.95 1.4 2.95 5.1 3.1-2.6-3.05-1.85-4.9.55-1.55 4.45-1.1l1.7.1q.7 0 1-.65l.45-2.05.2-1.5q.45-.7 2.1-.2l3.5 1 2.85.05q1.05-.35 1.45-1.35.55-1.55 3.5-2.05 3.1-.5 3.55-1.2l-2.4-.35q-1.4-.45-1.9-1.15-.8-1.25-1.5-1.7-1.5-1-3.8-.4l-.5.5q-.4.3-.2-1 .45-2.6 2.6-3.1l4.8.2 4.35.2q1.55-.4 2.95-2.8l.9-1.45q.6-.75 1.25-.8l1.15.25 1.35.45 2.1.1q1.25-.15 2.15-1.25l1.25-2.3q1-2 1.75-2.65-3.6-.05-4.35-2.55-.8-2.65 3.9-3.95 1.7-.5 2-1.35.3-1-1.55-1.65-2.2-.8-2.45-2.55-.25-1.85 1.85-4.05-3.55.65-5.3 2.65-.9 1.1-1.85 3.7-1.2 3.45-4.1 2.95-2.85-.55-2.7-2.95.1-2.8 2.4-4.25-1.8.15-4.15 1.85l-3.05 1.75q-1.25.1-2.1-.5l-1.85-1.85q-.85-1.05-3.05.4m96.9-28.8q1.3-1.05 1.65-.9.35.15-.45 1.9-.55 1.25-3.25 3.4-1.35 1.1-1.2 2.15.1 1.15 2.05 1.2l1.6.05q.95.3.55 1.6-.75 2.6-.2 3.8.6 1.25 2.5.5 1.05-.35 3-3.4l2.1-3q1.3-1.5 2.45-1.6 3-.3 3.8.65.8.9.35 3.7-.25 1.75.75 2 1.05.2 2.35-1.8 1.6-2.5 2.4-2.85 1.05-.55 3 .85 1.6 1.1 3.3 1.15 2.25.15 3.3-1.9 1.65-3.3 2.95-4.45 1.75-1.65 4.75-1.8l3 .15q.3.3-2 1.9-1.45 1-2.3 3.25-.8 2-.65 3.65.25 2.95-.7 4.25-.55.7-3.1 2.2-1.2.7-1.35 1.6-.1.8.7 1.5.75.65 3.8 1.1 2.25.3 2.25.8t-2.35 1.65q-2.55 1.25-3.1 1.6-1.75 1-2.4 1.95-.65.9-1.15 2.85l-.7 2.95q-.65 2.35-1.3 3.6-.75 1.35-1.85 1.9-1.4.7-3.4.45l-2.95-.65q-2.6-.65-3.55.25-1.05 1.05-.8 2.45.2 1.25 1.25 2 1.1.85 4.2.05l2.85-.65q.65.1-.95 2.05-3.05 3.85-8.05 3.8-4.4-.05-6.45-2.5-.85-.95-3.15-1-2.3 0-2.9.95-.8 1.3 1.15 2.6 1.35.9 1.35 1.3-.05.4-1.6.7-4.05.75-6.4-.55l-3.25.1q-3.9 2.15-4 1.65-.15-.55 3.8-2.7 1-.55 2-.45l1.75.45 6.25.25q-1.2-.6-2.05-1.75-1.1-1.5-.1-2.5 1.15-1.15 3.9-1.2 2.75-.1 3.85 1.15 1.9 2.25 6.2 2.25 4.75-.05 7.1-3.6l-2.35.6q-2.55.45-3.6-.35-1.3-1-1.65-2.7-.4-2 .95-3.35.75-.7 2.05-.7l2.35.4 2.55.45q1.5.1 2.8-.55 1.45-.75 2.25-2.3l1.05-3.2q.8-3.3 1.9-4.95 1.15-1.6 2.8-2.65l2.9-1.4.8-.35q-2.8.1-4.6-1.45-2.8-2.4.8-4.6l2.2-1.65q1.1-1.35 1.1-3.5l-.1-1.75q.25-3 2.2-5.2 1-1.1 2-1.7-3.25 0-5.4 1.9-1.45 1.3-2.9 4.05-2.2 4.3-7.3 1.55-1.8-1-2.75-.8-.95.15-2 1.8-2.2 3.45-3.6 2.7-1.3-.65-.85-3.45.25-1.9-.4-2.5-.75-.65-3.15-.45-.9.1-1.95 1.4-.6.65-1.85 2.55l-1.55 2.25q-.85 1.05-1.6 1.3l-3.1.1q-1.3-.6-1.3-2.3 0-1.3.55-2.65.2-.6-.05-.85-.2-.2-1-.25-1.2 0-2.1-.4-1.2-.55-1.15-1.5.05-.95.65-1.7l1.55-1.45q2.55-2 2.75-3-.65 1-3.5 1.85l-3.7 1.25q-1 .7-2.3 3.2-1.3 2.5-1.7 4.7-.2 1.05-.95 1.7-.7.6-1.35.5-.85-.15-1.5-1.15-.65-1-.65-2l-.15-.55q-.25-.45-.65-.55-1.6-.35-2.35-1.55-.35.95-1.4 2l-2 1.8-1.8 1.15q-.9.35 0-.45l2.7-3.2 2.05-3.2q.85-1.85 1.2 0 .2 1 .85 1.8.65.75 1.3.9.6.15.85.4.3.4.15 1.25-.05.7.5 1.35.55.65 1.2.75.85.1 1.2-1.7 1.35-6.5 3.65-7.85l3.75-1.1q3-.8 4.1-1.75M10 90.3q0-.35.3.35l.3 1q-.05 4.6.75 8.35.75 3.55 2 5.35l.1.8q-.1.5-.3.25-3.7-3.7-3.15-16.1M49.9 89q2.4 1.3 1.9 7.6-.55 6.8-5.35 9.05-3.3 1.55-7.3.5-3-.8-4.15-2 2.95-10.35 8.55-13.95 3.9-2.45 6.35-1.2"/><path fill="#fff" d="M39.25 95.15q1-.1 1.9 1.2.75 1.15.85 2.45.1 1.4-.45 2.5-.6 1.1-1.5 1.15-.95.1-1.7-1-.9-1.15-.85-2.8 0-.75.85-2.2l.9-1.3"/><path fill="#0d131a" d="M50.8 91.15q-.25-1.1-.75-1.5l-1.5-.2q-4.8.9-7.85 4.15-3.45 3.65-5.05 10.6 7.45 4 12.25-.1 1.8-1.45 2.75-4.5 1.15-3.9.15-8.45m-6.55-1.9q5.95-2.85 7.4 1.75 1.3 4.3.3 8.05-.9 3.5-3.45 5.6-2.65 2.15-6.65 2.35-4.05.15-6.5-1.9-.85 1.65-1.05 1.2-.2-.45.3-2.75 1.3-5.6 3.7-9.1 2.3-3.45 5.95-5.2"/></svg>