<svg xmlns="http://www.w3.org/2000/svg" width="394" height="369" viewBox="-1.0 0.1 393.7 369.1"><path fill="#e95504" d="M108.25 252.7q5.15 1.25 14.3 14.05 9.2 12.85 4.85 14.05l-9.5.8q-5.1.15-5.55 2.05-.65 2.5-.05 3.95.55 1.55 2.05.9 1.3-.5 3.6.35l2.1.9-2.05.3q-2.2.6-3.25 2.1-.8 1.25-1.3 3.5-.65 1.45-3.15.2-2.35-1.2-3.95-.3-2.6 1.4-3.4 1.5l-9.75-6.95-10.7-6-6.8-7.4q.4-1.25 2.8-1.6 2.75-.45 3.75-1.6.95-1.1.8-4.35-.15-3.15 1.35-4.65 1.8-1.8 3.65-2.9l1.5-.75q-4 7.35-2.45 8.15.7.35 2.8-1.45 2.1-1.75 3.25-1.1l3.05 2.05q1.5.65 2.3-1.15.4-.9-.15-1.35l-1.1-.6q-1.3-.75 1.25-3.75 1.35-1.6 2.5-3.85l1.6-3.25q1.75-2.85 5.65-1.85"/><path fill="#ffe100" d="M100.2 295.1l-7-5-10.7-6-3.85-4.15q4.3-4.95 7.2-2.1l2.25 3q1.35 1.9 2.4 2.4 1.7.85 3.55-2.4 1.9-3.35.55-6.15 1.65-.55 2.65 4.05 1.05 4.75 2.15 4.7.85-.05 3.3-4 2.3-3.7 4.9-3.2-2.3 4.75-2.8 9.05-.75 6.55 5.4 3.95.3 2.85-3.5 4.2-4.75 1.05-6.5 1.65m148.05-59.5q2.5-3.05 5.95-5.25 3.5 6.25 4.75 14-2.1 3.85-4.95 6.85-2.6 2.75-4.1 3.1-3.3.45-4.4.95-1.8.85-.8 4 1.15 3.3.2 5.3-.8 1.65-2.6 2-.7.15-4.5-1-3.2-.95-3.65.2-.5 1.3.25 2.6l.85 1.05-2.15 1.15q-2.4.95-3.95-.35-1.1-.9-1.9-4.05-.7-2.6-2.2-2.85l-3.5.1q-2.2.8-3.85 3.8-1.75 3.2-1.1 5.05.6 1.75 2.9 1.75l5.2-.65q3.95-.05 8.2 2.9l-2.95.2q-3.4.8-5.7 3.5-.6.75-1.1.3l-.95-1.45q-1.55-2.4-4.05-1.3-4.25 1.95-5.95 2.25-2.7.5-3.8-1.4-.95-1.6-2.9-2.45-1.85-.8-2-1.25l1.5-11.5 5.4-25.1q1.15-1.15 4.7 0 3.7 1.15 3.45 3.65-.3 2.55 1.3 3.2 1.45.6 2.8-.75l3.05-4.05q2.2-2.8 3.45-2.85-1.05 1.35-.15 3.95t2.6.9q1.35-1.35.75-3.55-.9-3.45-.75-5.4.25-3.05 2.4-4.7 1.05-.8 2.05-1l-.9 2.25q-.65 2.45.9 3.45.95.65 3.8.65 2.1 0 2.3 1.8.35 2.95 1.55 3.35 1.55.5 4.55-3.35"/><path fill="#e95504" d="M246.15 240.7q3.45.35 6.05-4.9l2.45-5.7q3.45 5.6 5 11.25-2.4 4.9-5.1 8.7-2.8 4-4.3 4.4-3.45.4-4.6.85-1.95.85-.95 3.95 1.1 3.3-.1 5.3-.95 1.65-2.85 2-.7.15-4.3-.9-2.95-.85-3.4.3-.5 1.25.2 2.45l.8.95-2.05 1.2q-2.3.95-3.85-.35-1.05-.9-1.85-4.1-.6-2.65-2.25-2.8-2.4-.25-3.95.4-2 .9-3.4 3.5-1.75 3.2-1.1 5.05.6 1.75 2.9 1.75l5.2-.65q3.95-.05 8.2 2.9l-2.95.2q-3.4.8-5.7 3.5-.6.75-1.1.3l-.95-1.45q-1.55-2.4-4.05-1.3-4.25 1.95-5.95 2.25-2.7.5-3.8-1.4-.95-1.6-2.9-2.45-1.85-.8-2-1.25 1.45-10.85 2.55-14.4 3.2-10.5 9.45-7.5.95.45 2.15 3 .85 1.85 2.5 1.15.85-.35 1.5-3.85.6-3.55 3.15-4.6-.45 2 .1 3.25.5 1.35 2 1.7 1.6.4 3.3 1.35l2.7 1.45q1.9.8.8-2.05-1.55-3.8-1.05-4.8 1.2-2.45 3.85-2.6 3.55-.2 4.7-.95 1.5-1 1.7-3.65.15-1.75 3.25-1.45"/><path fill="#827aa0" d="M127.4 312.95q2.45 2.45-1.85 10.75-3.95 7.6-6.7 9.2-1.95 1.1-5.9-3.95-3.55-4.45-4.7-7.9l5.3-13.8q2.85-.3 6.95 1.3 4.25 1.7 6.9 4.4"/><path fill="#675f80" d="M127.4 312.95q1.2 1.2.65 4.1-.45 2.55-2.15 5.9-2.45-3.05-6.5-6.4l-7.3-5.5 1.45-3.8q2.85-.3 6.95 1.3 4.25 1.7 6.9 4.4"/><path fill="#827aa0" d="M184.35 285.65l13.85 3.25.5 5.35q.45 5.8-.1 8.1-.5 2.4-11.3 2.7l-13.1-.65q-2.2-.55 2.95-9.05 4.9-8.1 7.2-9.7"/><path fill="#675f80" d="M198.2 288.9l.5 5.35q.45 5.8-.1 8.1-.45 2.15-9.35 2.6 3.4-7.2.9-17.95l8.05 1.9"/><path fill="#f9f1ab" d="M202.65 196.65q11.65-5.4 11.7-1.65 0 1.85-2.3 4.8-2 2.75-.05 12.3l3.3 14.15q.5 3-1.1 6.45-3.35 7.05-4.4 10.15-2 5.8-3.45 13.5-.45 2.3-.95 13.5-.4 10.05-1.1 11.35-1.05 2.15-4.1 5.8-3.3 3.95-4.45 3.95-1.05 0-5.1-1.35l-5.45-2q-1.45-.55-1.9-4.65-.45-3.95.55-5.55l2.7-5.1q2.2-4 3.95-5.75 1.75-1.8 2.15-13.55l.05-15.1q0-3.05-5.65-9.25l-5.7-5.55q.7-4.45 3.7-10 6-11.05 17.6-16.45"/><path fill="#d3cd91" d="M202.65 196.65q11.65-5.4 11.7-1.65 0 1.85-2.3 4.8-2 2.75-.05 12.3l3.3 14.15q.5 3-1.1 6.45-3.35 7.05-4.4 10.15-2 5.8-3.45 13.5-.45 2.3-.95 13.5-.4 10.05-1.1 11.35-1.1 2.2-3.75 5.6-2.95 3.8-4.05 3.8-7.55-.55-6.45-1.8 6.85-3.1 6.2-11.6-.15-1.9.75-6.85l1.35-8.9q.95-11.7-5.8-17.6l.15-5.95q0-3.05-5.65-9.25l-5.7-5.55q.7-4.45 3.7-10 6-11.05 17.6-16.45"/><path fill="#f9f1ab" d="M83.15 281.25q5 4.95 8.4 7.65 2.05 1.65 6.4 3 4.05 1.3 5.45 2.7 1 1 2.3 4.3 1 2.65 3.8 4.25 3.5 2.05 4 3.65.45 1.25-.35 6.15-1 6.15-2.05 8.25-1.3 2.55-2.85-.15-3.75-6.55-8-9.1-3.05-1.9-7.85-2.25-3.4-.3-4.75-1.9l-3.8-5.85q-2.9-4-11.45-9.3-8-4.9-12.35-5.95-3.6-.8-6.7-5.9-2.5-4-3.75-8.85-.55-2.05.95-5.95l4.5-11.75q2.1-6.1 7.15-31.7 4.6-23.25 5.05-27.5l38.15 47.05q-13.3 5.1-22.55 15.45-8.15 9.2-7.55 15.1 2.25 3.1 7.85 8.6"/><path fill="#d3cd91" d="M105.4 242.1q-8.45 3.25-15.25 8.85-5.85 4.8-9.85 10.8-.55-14.2-2.4-20.55-3.05-10.5-15.95-20.05l3.6-16.7 1.7-9.4 38.15 47.05m-21.8 39.6q4.7 4.6 7.95 7.2 2.05 1.65 6.4 3 4.05 1.3 5.45 2.7 1 1 2.3 4.3 1 2.65 3.8 4.25 3.65 2.15 4.25 3.7.6 1.55-.6 6.1l-6.9-8q-7.7-8.25-11.4-7.95-2.2.2-6.5-2.9-4.05-2.95-7.85-7.25-9.45-10.75-4.7-13.55 2.5 3.25 7.8 8.4"/><path fill="#ffe100" d="M364.25 98.05q.25.35 3.55 1.1 2.45.5 1.35 2.55-.6 1.15-4.1 2.6-2.05.85.3 3.4 3.75 4.15 4.7 6.35 1.5 3.45.15 8.1-2.1-4.6-5.4-8.9-4.05-5.35-4.7-1.9-.85 4.9-2.3 6.25l-2.9-.05-3.05-2.35q-1.8-1.4-3.05-.9-1 .4-1.05 1.7-.15 1.35-1.4 2-2.2 1.1-3.4 2.3-1.55 1.5-1 2.85.4 1.05.7 4.8.75 2.9 3.85 1.5 6.4-3.05 8.4-4.55 1.05-.8 3.45-.45l2.25.45q-2.1.7-3.8 1.9-3.3 2.4-1.1 5 1.15 1.35 4.25 3.55 1.8 1.3 1.5 2.9-.3 1.55 2.8 6.85 2.95 4.95 1.75 7.35-.95 1.95-4.25 4.3-2.55 1.8-2.75 5.2-.35 4.75 2.6 7.2 3.1 2.5 6.35-.7 5.05-5.15 8.95-3.25-2.05.7-3.7 4-1.7 3.4.55 3.95l5.15-.45 4.5-.2 4.55-.15 2.75-1.05-1.05 1.9q-1.5 2.1-3.8 3.4-1.75.95-1.55 5.5.2 3.65-2.15 3.05-3.5-1-6.3.95t-.2 4.3q1.9 1.7 4.3 2.15 1.8.35 2.2 1.55.45 1.25 2.4 4.5 1.4 3.15-.35 5.65-1.65 2.35-1 7.4.75 6.05.5 7.35-.75 3.8-2.9 6.35-2.05 2.45-6.75 5.35-5.4 3.3-7 9.2-2 7.05 6.45 9.5-4.85 1.2-9.5-2.65-5.15-4.25-3.4-10.75.85-3 .4-3.7l-1.45.1q-1.4.6-1.85.45-.9-.25-.75-2.55.1-1.5 1.65-8.4.75-3.05-1.65-2.6-2.55.55-4 2.55l-.9 1.95-1.45-1.7q-1.35-2.15-1.15-4.2.1-1.1 1.55-5 .85-2.5-.15-5-1.25-3-3.2-3l-4.15.6q-2.65 0-4.05-1-1.6-1.2-1.9-4.05-.2-1.95.45-5.55.5-3.25.1-4.95-.7-2.75-3.3-3.3-2.8-.55-4.2 2.85-.8 1.95-1 6.45-.15 2.65-1.95 2.2-2.8-.7-4.05.05-1.65.95-1.9 4.65-1.6-1.9-1.3-3.55.95-2.9 1.55-6.05.75-4.05-2.5-2.95-3.25 1.15-3.6 3.4-.95 5.7-2.85 5.7.2-1.3-.6-1.65-1.2-.45-1.85-2.85-.65-2.4 1.1-3.8 1.45-1.2.5-2.3-.65-.8-3.5-2.1-2-.95-2.1-3.1-1.85.75-1.25 2.95 1.15 3.95 1.15 4.7 0 1.75-1.9 3.4-2.15 1.8-2.55 4.3-.65 3.95-2.5 3.6-1.85-.4-1.55-5.6.3-5.2-.65-7.75-.7-2.05-3.05-4.05-1.45-1.25-.8-3.5.6-2-.8-2.6l-4.35-.6q-2.55-.5-4.05-3.95-1.7-3.95-3.9-1.9-2.15 2-1.55 5.2.5 2.7 2.85 5.7-1.1 0-2.6-.6-2.95-1.25-4.75-4.3-.9-1.55-.35-4.15l1.3-4.65q1.6-6.05-3.25-8.7-3.45-1.9-10.25-.75-5.95 1-7.8-1.25l-10.15-23.6q3.45.65 6-2.2 3.65-4.05 8.65-17.35 4.95-13.25 19.1-18 5.55-1.9 10.4-1.6 4.75.35 6.3 2.5 3.35 4.7 6.05 6.45 3.1 2.05 6 .6 2-1 6.8-9.95 5.55-8.15 12.5-6.85-3.4 2.65-3.85 3.25-1.5 1.8.6 2.85 2.45 1.2 3.8 2.9 1.4 1.7 1.1 3.2-.4 1.9 1.65 2.25 2.25.35 4.45-2.65 2.55-3.55 9.1-7.3 6.8-3.9 10-3.3l5.15 1.25q2.15.5 3.8-.05 2.9-.95 6-3.55l2.5-2.4v3.2q-.65 3.45-4 4.8-2.05.85-2.45 1.75-.45 1 .8 2.75"/><path fill="#e95504" d="M328.4 132.2q2.75-.5 4.85 1.25 1.4 1.15 2.35 6.4.8 4.5 2.4 4.4 2.35-.15 2.9-3 .65-3.25 1.55-3.8 1.7-1 3.1 1 1.65 2.55 2.45 2.65 1.75.25 3.3-1.5 1.75-1.9.75-4.1 2.15.4 3.45 4.1l1.7 5.25q1.05 1.95 3 1.05 2.6-1.2 3.3-1.05 1.75.45 2.55 3.3.8 2.7-.05 4.3-.95 1.95-4.25 4.3-2.55 1.8-2.75 5.2-.35 4.75 2.6 7.2 3.1 2.5 6.35-.7 5.05-5.15 8.95-3.25-2.05.7-3.7 4-1.7 3.4.55 3.95l5.15-.45 4.5-.2 4.55-.15 2.75-1.05-1.05 1.9q-1.5 2.1-3.8 3.4-1.75.95-1.55 5.5.2 3.65-2.15 3.05-3.5-1-6.3.95t-.2 4.3q1.9 1.7 4.3 2.15 1.8.35 2.2 1.55.45 1.25 2.4 4.5 1.4 3.15-.35 5.65-1.65 2.35-1 7.35.75 6.05.5 7.35-.8 4.05-2.75 6.4-1.9 2.3-6.9 5.35-5.5 3.35-7.05 9.25-1.9 7.15 7.2 9.6-5.85.9-10.4-3-4.95-4.2-3.2-10.55.85-3 .4-3.7l-1.45.1q-1.4.6-1.85.45-.9-.25-.75-2.55.1-1.5 1.65-8.4.75-3.05-1.65-2.6-2.55.55-4 2.55l-.9 1.95-1.45-1.7q-1.35-2.15-1.15-4.2.1-1.1 1.55-5 .85-2.5-.15-5-1.25-3-3.2-3l-4.15.6q-2.65 0-4-1.05-1.55-1.25-1.85-4.1-.2-1.9.4-5.5.45-3.2.05-4.9-.7-2.75-3.3-3.3-2.8-.55-4.2 2.85-.8 1.95-1 6.45-.15 2.65-1.95 2.2l-4.05.15q-1.65 1-2.15 4.8-1.3-1.9-1-3.7l1.5-6.15q.8-4.05-2.45-2.9-3.3 1.1-3.65 3.35-.95 5.7-2.85 5.7.2-1.3-.6-1.65-1.2-.45-1.85-2.85-.65-2.4 1.1-3.8 1.45-1.2.5-2.3-.65-.8-3.5-2.2-2.05-1.05-2.1-3.1-1.8 1.1-1.2 3.2l1.1 4.55q0 1.75-1.9 3.4-2.15 1.8-2.55 4.3-.65 3.95-2.5 3.6-1.85-.4-1.55-5.6.3-5.2-.65-7.75-.7-2.05-3.05-4.05-1.45-1.25-.8-3.5.6-2-.8-2.6l-4.35-.6q-2.55-.5-4.05-3.95-1.7-3.95-3.9-1.9-2.15 2-1.55 5.2.5 2.7 2.85 5.7-1.1 0-2.6-.6-2.95-1.25-4.75-4.3-.9-1.55-.35-4.15l1.3-4.75q1.6-6.05-3.25-8.6-3.55-1.85-10.3-.7-5.9.95-7.75-1.3l-5.2-12.15 3.2.2 3.1-.4q.95-.4.95-2.65-.1-2.5.45-3.1 1.25-1.3 3.65-.15 2.85 1.35 3.9.95 2.25-.8.5-4.3-2.1-4.35-1.65-5.5l1.9-5.55q1.25-3 3.05-3.45 1.95-.5 3.15-1.35l2.65-2.45q.45-.45 1.25 1.6l1.65 4.4q2.45 5.9 4.65 1.3 2.3-4.75 5.45-4.7l3.05.4 3.7-.1q-2.2 2.7-2.15 5.2.05 2.1 1.6 3.05 1.5.9 3-.2 1.75-1.25 2.2-4.55 1.4-9.6 6.1-8.7-1.5 2.75-.85 4.25.4 1 2.35 1.95 2.55 1.2 3.3 1.8 1.7 1.45 1.9 3.9.15 2.1-1.05 5.6-1.45 4.15-1.6 5.45-.25 2.15.3 4.4.65 2.85 2.35 3.4 1.05.3 2.75-1 1.75-1.35 2.45-1.25 1.75.3 2.55 3.7.95 3.95 1.75 4.6 1.7 1.35 3.3.65 1.6-.7 2.25-2.85.8-2.55-.2-4.45-.65-1.25-2.95-3.2-3.65-3.15-.75-3.5l2.25.15q1.2.3 1.25.65l-.85-2.95q-.6-1.75-.1-3 1.1-2.5 3.9-3"/><path fill="#827aa0" d="M253.55 299.9l15.5 5.7.6 2.6q.5 3.6-.3 8.7-6.65 4.25-16 3.45-7.75-.7-9.55-2.95-1.5-1.85 1.95-8.5 3.6-6.9 7.8-9"/><path fill="#675f80" d="M269.05 305.6l.45 2.45q.3 3.45-.45 8.55-5.4 3.4-12.2 3.65 1.85-3.5 2.95-8.45.75-3.5 1.35-9.1l7.9 2.9"/><path fill="#f9f1ab" d="M29.45 75.05L18.7 63.65q-.7-4.2-1.25-8.6-1.15-8.75-.35-9.5.8-.8 8.2 7.8 6.05 7.05 9.7 12.1l-5.55 9.6"/><path fill="#eb6d80" d="M23.5 82.3l-2.35-14.75q-2.25-14.7-1.9-14.4 1.25.85 4.45 5.75 4.15 6.4 5.2 11.85L23.5 82.3"/><path fill="#cb5e71" d="M21.2 55.35q6.35 8.3 7.7 15.4l-4.65 9.95q1.85-5.05.55-13.4-1.15-7.35-3.6-11.95"/><path fill="#f9f1ab" d="M204.4 120.15q17.45-3 25.75 1.55 19.15 10.45 23.85 33.6 1.7 8.35 1.05 16.45-.55 7-2.3 9.7-1.45 2.25-8.4 5.1l-15.6 5.7q-24.5 8.95-35.85 18.95-4.95 4.4-13.55 14.25-8.75 8.7-20.6 13.4-16.75 6.6-34 6.5-24.85-.15-41.65-15.5-12.9-11.75-17.15-34.3-2.45-12.95-1.9-30.8.3-8.35-5.6-23.1l-5.95-13.1L43 109.5Q32.55 89.1 27.6 82.45 36.45 68 43.35 68.35q3.45.2 5.1 3.25 10.05-2.8 19.5 4.35 7.2 5.45 16.35 18.95l15.8 23.95q9.55 13.55 17.95 19.5 5.1 3.6 20.55.1 7.4-1.65 32.05-9.4 22.1-6.9 33.75-8.9"/><path fill="#d3cd91" d="M56.5 137.6l-5.4-12q5.5-2.2 9.25-4.2 4.65-2.5 8.2-5.45 3.55 9.55-.45 25.5-.9 3.6-2.85 7.85-2.05 4.4-2.75 6.9-1.7-8-6-18.6m136.6 58.15q3.65-1.6 4.5-9.35.75-7.15-1.25-11.15 2.3 1.75 7.65 12.7 5.35 11 6.45 11.9-10.85 5.4-17.55 11.35-4.95 4.4-13.55 14.25-8.75 8.7-20.6 13.4-16.65 6.6-34.1 6.4-24.9-.3-41.75-15.6-10.55-9.6-16.05-27.9 13.1 21.4 34.2 27.25 16.35 4.5 38-.3 7.95-2.05 14.8-6.15 4.7-2.8 11.55-8.45 8.5-6.95 11.9-9.35 7.55-5.35 15.8-9"/><path fill="#f9f1ab" d="M21.4 87.75q7.35-6.9 18.45-5.7 9.8 1.1 19.05 7.85 9 6.6 12.15 14.6 3.45 8.75-2.3 14.65-7.85 8.1-14.9 10.25l-5.75 1.65q-3.45 1.25-6.9 3.7-2.25 1.6-7.45 6.75l-6.9 7q-1.75 1.75-5.05 2.15l-5.1.3q-1.8.25-2.9-.85l-.8-1.2q-1.5-.4-3.3-1.4-3.55-2.05-4.8-5.1-3.75-8.95.4-14.65 3.6-5 12.2-24-1-4.2.15-8.85 1.15-4.7 3.75-7.15"/><path fill="#d3cd91" d="M33.15 88.65q-7.9 2.55-8.7 1.45l-1.5-1.55q-.7-.8-.1-1.35 7.05-6.4 15.35-6.9 3.1-.15 4.8.7 1.7.8.75 2-2.4 3-10.6 5.65M54.2 124.7l10.2-3.95 5.65-3.35q-7.75 8-15.4 11l-6.3 2.35q-3.75 1.55-7.15 4-2.2 1.6-7.75 7.2l-7.15 7.45q-1.35 1.3-6.55 1.45-5.85.15-8-2.4l6.7-.6q4.65-.7 6.15-2.7 7.1-9.5 12.5-13.05 4.5-3.05 17.1-7.4"/><path fill="#ffe100" d="M285.05 19.85q-.55 2.5 1.5 2.9 2.55.55 3.45 2.2.9 1.7-.6 3.5-1.55 1.9.65 2.75 2.25.85 4.65-.95 2.8-2.1 6.65-2.4 4.5-.35 7.9 2.2l-5.2.3q-2.95.2-3.7 2.4-.6 1.8 1 4.7 1.05 1.95-.6 1.95l-5.3-.95q-3.45-.45-6.2 1.8-2.7 2.2-6.75.9-4.45-1.95-6.55-2.15-3.55-.25-4.9.1-2.7.75-5.7 4-3.65 4.85-5.3 6.15-2.55 2-6.5-.85-2.15-1.55-4.35-1-1.9.55-3.15 2.35t-1.1 3.5q.2 1.9 2.1 2.45l3.1-.2 2.35-1.7q3.35-2.5 8.95-.45-2.75.45-4.7 1.8-1.25.85-2.95 2.8-.35.4-.35 3.75 0 2.4-2.35 1.75-4.9-1.4-7.65.8-2.7 2.1.75 4.05 3.3 1.9 3.85 3.45.55 1.7-2.2 3.5-3.4 2.15-1.3 3.7 1.95 1.45 5.35.75 2.05-.4 4.8-2.2 2.55-1.15 5.85.75-3.45.55-4.9 1.6-1.7 1.2-1.7 3.55l.25 3.15q.05.85-1.05 1.3-1.55.7-4.5-.4-2.65-.95-4.85.8l-4.8 4.9q-2.55 2.7-5.4 3.65-2.25.75-3.6-1.1-1.25-1.8-4.5-.5-6.35 3.25-9.5 4.25-5.5 1.65-8.85-2.25-4.2-4.85-6.15-6.05-2.25-1.35-4 .35l-4.2 5.05q-2.95 3.15-5.45 2.9Q172.4 98 175.8 89.5q2.65-6.6.35-11.9-2.5-5.75-9.1-4.65-2.65.45-4.4 2.55-2.25 2.7-1.9 7.45.25 3.05-3.7 2.85-4-.15-4 1.65 0 1.8-2.05 3.5-1.7 1.45-.8 3.85l1.95 5.4q-.8-1.25-2.75-2.75-2.65-2.05-4.5-1.85-3.6.35-4.4-1.95-.8-2.15 1.15-5.4 2.65-4.4 1.6-6.8-1.35-3.15-9.6 1.5-2.8 1.55-2.85 5.45-.1 4.9-1.95 7.5-3 4.1-9.45 4.95-6.25.85-9.1-2l-24-1q-4.5-8-11.5-15.25Q60.85 68 48.4 71.55l-1.2-2.1q-.9-1.1-2.45-.3-5.7 2.85-7.7 2.85-.85 0-.3 1.95.6 2.3-.95 3.45-3.7 2.7-6 3.15-3.75.8-2.95-4.5.25-1.6 2.5-5.7 2.3-4.15 3.2-4.45 1.25-.45 1.9-1.8.8-1.75-.25-3.9-1.3-2.55-1.4-6.45-.05-4.1 1.4-4.95.85-.55 3.4 2.55 2.15 2.6 2.9.4.35-1.05-.55-2.2L38 47.45q-2.5-2.85.25-6.3 3.1-3.85 3.6-5.1.3-.9-.35-2.3-.8-1.8.95-3.1.9-.7 1.9-1l-.1 1.2q0 1.5.5 3.3.2.6-.35 4.25-.4 2.35 2 3.05l4.7.1q1.7-1.1 1.4-5.4-.25-3.6 2.5-5.2l3.7-2.5 1.1-4.65q.8-2.85 3.3-3.1 2-.2 6.3 1.75 3.85 1.7 5.1 1.1 2.55-1.3 3.4-2.45 1.45-2.05.65-6.1-.8-3.95 1.95-6.05 1.3-1 4.95-2.1 1.6-.45 2.95-2.5 1.55-2.3 2.35-2.8 2.05-1.2 6.1-.4-1.2.4-2.5 1.35-2.5 1.8-2.8 4.35-.3 2.85.8 4.85.8 1.55 2.9 3.3 2.05 1.75 2 4.05-.1 2.55-3.25 3.7-4.4 1.6-7.35 3.65-3.9 2.75-2.8 4.9.6 1.25 5.4 3.95 4 2.3 3.55 4.6l-1.45 5.8q-.55 3.1.65 4.75 2.15 2.95 5.1 3.25 3.65.35 6.7-4.05 1.5-2.15 1.2-4.35-.2-1.3-1.4-3.9-2.45-5.3-.15-9.5 2.45-4.5 5.3-5l1.8-.35q.9-.45 1.5-1.9 1.8-4.45 1-8.25l-1.15-2.95 3.7 1.2q3.5 1.8 2.45 4.9-1.1 3.2 1.7 3.6 2.8.35 4-3.2.4-1.2.4-7.35 0-4.2 2.85-6.1 2.6-1.75 8.9-2.15l6.05-.8q-.4 1.2-1.5 2-1.25.95-2.05 2.6-1.2 2.4-.2 3.5l3.45.15q1.3-.5 4.3-4 2.45-2.95 4.25-2.5l-1 3q-.25 1.85 1.8 3.9 1.5 1.5.05 4-.45.85-.1 1.1l2.9.2q3.35-.2 8-2.8 3.75-2.1 5.85-1.25 1.25.5 3 2.25l3.1 3.15q4.15 3.8 8.15 2.3 1.55-.55 1.75-4.45.25-3.95 3.1-5.3l-1 2.85q-.4 2.05 1.4 2.85.8.35 5.15-.05 3-.3 3 2.1 0 3.3 1.2 4.6 1.3 1.45 3.3-.55 2.75-2.75 5.3-3.05 3.1-.4 2.85 4.25-.3 4.8-1.55 5.65l-8.25 2.9q-7.1 2.45-9.95 6.2-2.95 3.85-2.65 10.5.35 7.6 1.1 9.45 1.1 2.85 5.4 4 3.6.95 6.85-.55 2.2-1 5.35 1.7-1.2.75-1.9 1.9l-1.35 2.2-2.3.1q-1.75-.75-2.6.35-1.5 1.85.6 5.45 2.35 4.05 7.3 4.9 3.7.6 8.35 2.75 3.45 1 6.15-2.55 4.95-6.6 2.95-9.8-3.8-3.55-5-7.3-2.25-7.35.6-8.2l2.5-.35q1.4-.2 1.7-1.35 1-3.85 4.35-5.5 1.65-.8 3.1-.85l-.45 2.25q-.35 2.4.45 3.45 1.55 2.05 4.45 2.8 3.5.85 3.25-3.65-.1-2.15-1.75-5.25l-2.95-5.25q-3.25-6.4 1.05-10.25 4.1-3.65 5.6-6.45 1.1-2.05 2.15-2.5 1.65-.75 3.6.5 2.25 1.35 2.9 4.4.25 1.25 3.05-.7 3.7-2.55 6-2.55 2.95 0 4.85 1.6 1.55 1.25 1.55 2.45 0 1.65 2.25 3.5 2.9 2.45 7.1 1.4l7.5-2q2.55-1.35 2.3-5.35-.25-4.1 1.55-6.35 1.4-1.75 3.35-1.75-1.2 2.3-1.5 3.6"/><path fill="#e95504" d="M285.05 19.85q-.55 2.5 1.5 2.9 2.55.55 3.45 2.2.9 1.7-.6 3.5-1.55 1.9.65 2.75 2.25.85 4.65-.95 2.8-2.1 6.65-2.4 4.5-.35 7.9 2.2l-5.2.3q-2.95.2-3.7 2.4-.6 1.8 1 4.7 1.05 1.95-.6 1.95l-5.3-.95q-3.45-.45-6.2 1.8-2.7 2.2-6.75.9-4.45-1.95-6.55-2.15-3.55-.25-4.9.1-2.7.75-5.7 4-3.65 4.85-5.3 6.15-2.55 2-6.5-.85-2.15-1.55-4.35-1-1.9.55-3.15 2.35t-1.1 3.5q.2 1.9 2.1 2.45l3.25-.1 2.35-1.8q3.1-2.55 8.4-.65-4.45 1.6-7.25 4.8-.35.4-.35 3.75 0 2.4-2.35 1.75-4.9-1.4-7.65.8-2.7 2.1.75 4.05 3.3 1.9 3.85 3.45.55 1.7-2.2 3.5-3.4 2.15-1.3 3.7 1.95 1.45 5.35.75 2.05-.4 4.8-2.2 2.55-1.15 5.85.75-3.35.55-4.85 1.6-1.75 1.2-1.75 3.55l.15 3.2q0 .85-.95 1.25-1.55.65-4.55-.45-2.6-.95-4.8.85l-4.8 4.9q-2.55 2.7-5.4 3.65-2.25.75-3.6-1.1-1.25-1.8-4.5-.5-6.35 3.25-9.5 4.25-5.5 1.65-8.85-2.25-4.2-4.85-6.15-6.05-2.25-1.35-4 .35l-4.25 5q-3 3.1-5.5 2.85-6.35-.65-9.1-2.15-4.4-2.45-2.35-7.7 2.65-6.6.35-11.9-2.5-5.75-9.1-4.65-2.65.45-4.4 2.55-2.25 2.7-1.9 7.45.25 3.05-3.7 2.85-4-.15-4 1.65 0 1.8-2.05 3.5-1.7 1.45-.8 3.85l2 5.4-3.1-2.95q-2.45-2.1-4.2-1.65-3 .7-4.05-1.8-1.05-2.45.8-5.55 2.65-4.4 1.6-6.8-1.35-3.15-9.6 1.5-2.75 1.55-2.7 5.2.05 4.65-1.85 7.3-2.95 4.15-9.55 5.2-6.4 1.05-9.25-1.8l-24-1q-4.5-8-11.5-15.25Q60.85 68 48.4 71.55l-1.7-2.3-2.7.1.45-6.7q.3-4.55 3-4.3-.4 1.65 1.35 1.9 1.45.2 3.55-.55L61.9 56q8.8-3.35 9.55-3.25 3.85.65 3.85 3.5-.05 3.15 1.75 3.85 2.35.95 5.45-1 3.2-2.05 4.65-1.75l1.35 2.85q2 2.7 7.4 2.25 1.35-.1 8.15-3.55 5.65-2.85 8.05-1.55 1.65.9 2.5 1.75 1 1.05 1.55 2.55.35.95 1.4 1.85l1.7 1.5q1.2 1.6 2.45 6.2l2.3-1.3q1.95-2.05.65-5.65-.35-1 .3-2 .55-.95 1.6-1.25l1.4-.2q.8-.15 1.15-.85.25-.5.05-1.25l-.3-1.3q-.4-3.1 4.15-4.4 3.4-1 7-.65 1.5.15 3.05-.8 1.6-1.05 1.8-2.55.1-.6-.35-2.2-.35-1.45-.05-2.3.55-1.6 2.2-2.1l3.2-.3q1.65-.05 3.25-1.15 2.4-1.7 2.9-1.95 4.1-1.95 5.8 2.2l1.65 4q1.15 2.45 2.95 3.65 2 1.35 4.15.75 1.95-.55 3.2-2.4 3-4.6-1.2-8.3-3.75-3.3-1.6-6.25 1.55-2.15 5-3.2-2.5 5 .8 6.35l2.55.7q1.3.35 1.2 1.05-.5 4.6 2.45 5.55 2.8.85 3.8-1.45-1.35 3.35-1.15 7.95.35 7.6 1.1 9.45 1.1 2.85 5.4 4l6.85-.3q2.2-.85 5.35 1.9-1.55.4-2.15 1.45-.45 1.4-1.1 2.2l-2.3.1q-1.75-.75-2.6.35-1.5 1.85.6 5.45 2.35 4.05 7.3 4.9 3.7.6 8.35 2.75 3.45 1 6.15-2.55 4.95-6.6 2.95-9.8-3.8-3.55-5-7.3-2.25-7.35.6-8.2l2.5-.35q1.4-.2 1.7-1.35 1-3.85 4.35-5.5 1.65-.8 3.1-.85l-.45 2.25q-.35 2.4.45 3.45 1.55 2.05 4.45 2.8 3.5.85 3.25-3.65-.1-2.15-1.75-5.25l-2.95-5.25q-3.25-6.4 1.05-10.25 4.1-3.65 5.6-6.45 1.1-2.05 2.15-2.5 1.65-.75 3.6.5 2.25 1.35 2.9 4.4.25 1.25 3.05-.7 3.7-2.55 6-2.55 2.95 0 4.85 1.6 1.55 1.25 1.55 2.45 0 1.65 2.25 3.5 2.9 2.45 7.1 1.4l7.5-2q2.55-1.35 2.3-5.35-.25-4.1 1.55-6.35 1.4-1.75 3.35-1.75-1.2 2.3-1.5 3.6"/><path fill="#f9f1ab" d="M12.9 71.75Q2.85 53.2 2.1 51.15q-1.35-3.8-.7-4.35.9-.7 5.25 3.65L34.35 80l.65.9q.55 1.25-.05 3.1-.6 1.8-2.35 3.65l-1.65 1.45q-3.55 1.8-6.2 1.45l-1.95-.65-9.9-18.15"/><path fill="#d3cd91" d="M34.35 80l.8 1.2q.65 1.55-.2 3.4-.85 1.9-2.5 3.4l-1.5 1.1q1.1-5.35-21.45-35.65L34.35 80"/><path fill="#fff" d="M42.4 107.4l-4.95 3.2q-.6-3.65 2.7-8.85 3.65-5.8 8.25-5.05 2 .6 2.9 3.1.85 2.4-.05 3.25-3.3.95-8.85 4.35"/><path fill="#dbdcdc" d="M48.4 96.7q1.4.45 2.35 1.95-4 .4-7.6 2.85-3.35 2.25-5.75 5.8 1.65-4.8 4.1-7.65 3.2-3.65 6.9-2.95"/><path fill="#eb6d80" d="M47.45 104.75l-10 5.75q-.1-3 1.8-7.3 1.95-4.3 3.55-4.75 1.85.65 3.3 2.4 1.65 2 1.35 3.9"/><path fill="#cb5e71" d="M45.95 100.3q-2.3 1.25-4.55 4.45-1.85 2.65-3.85 3 .2-2.1 2.2-5.55 1.95-3.45 3.05-3.75 1.7.55 3.15 1.85"/><path fill="#f9f1ab" d="M66.05 47.1q1.4 3.85 4.5 17 3.3 13.95 5.25 24.95L50.05 74.8q1.4-6.65 6.6-18.9 4.85-11.5 6.2-12.65 1.1-.95 1.55-.35l1.65 4.2"/><path fill="#eb6d80" d="M66.85 81.8q-5.4-5.35-9.8-6.8l-3.3-.4Q55.3 68.85 57.2 63q3.7-11.75 5.2-12.4 1.35 3.45 2.95 13.95 1.65 11.1 1.5 17.25"/><path fill="#cb5e71" d="M62.4 50.6q1.35 3.45 2.95 13.95 1.65 11.1 1.5 17.25l-1.6-1.55q.5-6.15-1.05-11.2-1.8-5.8-6.05-9.05 2.95-8.8 4.25-9.4"/><path fill="#ffe100" d="M160.1 307.15q.35-5.55 1.9-7.5 1.4-1.75 3.25-2.8 1.55-.85 4.3-4.75.2 1-.45 3.8-.4 1.8 1.05 2.3l3.55 1.35q1.5.9 1.1 2.45-.6 2.3 1.5 2.4 2.1.1 3.45-3 2.9-6.7 12.8-6.7-.2.35-4.35 2.65-3.4 1.85-2.35 3.75.9 1.6 3.5 4.65 1.8 2.65.05 4.5l-4.75 5.2q-2.35 3.2-.85 4.85 6.7 7.4.3 9l-8 .85q-3.65.3-3.65 2.35 0 2.65 2.15 3.85 2.15 1.15 6 .5-1.85 1.45-4.85 2.85-2.85 1.35-4.45 2.7-1.7 1.4-5.85.5-4.1-.85-5.2.05-1.1 1-.55 4.1.45 2.45-1.2 2.3-1.25-.1-3.7-3.25-2.05-2.65-4.35-1.7-.65.3-4.7 4-2.1 1.95-3.8-.8l-2.8-4.8q-.9-1.45-2.15-2.15l-1.9-20.45 3.05-8.35 4.25.8q3.15.5 3.35-1.65.3-3.8 2.6-6.45 2.25-2.55 4.95-2.55-1.75 2.1-.75 3.65.55.9 2.75 2.15.8.45.05 3.3-.6 2.15 2 1.35 2.5-.8 2.75-5.3"/><path fill="#e95504" d="M141.9 312.5q2.35.65 3.5-.45l1.4.8 1.5.3 2.25.15q1.25.15 2.05.8 1.2.9.75 1.6l-.95 1.75q-.4 2.2 1.2 3.35 1.5 1.05 3.45.6 1.05-.2 3.7-1.95 2.35-1.25 3.5.4.95 1.45 1.05 3.75.05 1.95.75 2.35.55.35 2.6-1.5 2.3-2.05 5-1.65-1.5.75-2.45 2.75l-1.15 2.7-1.55 2.25-1.9 2q-1.05.85-4.15.3-2.75-.55-3.8 1.15-.65 1-.5 1.95.2.95 1.3 1.4l2.25-.2q1.5-.6 1.95-.65l2.65.2q1.5.45 1.35 1.7-.15 1.95-5.35 3.8-1.75.65-2.15 1.1-.7.65-.65 2.25 0 .65.35 2.45.1 1.55-1.35 1.4-1.25-.1-3.7-3.25-2.05-2.65-4.35-1.7-.65.3-4.7 4-2.1 1.95-3.8-.8l-2.8-4.8q-.9-1.45-2.15-2.15l-1.9-20.45 3.05-8.35q.8-.15 3.75.65"/><path fill="#f9f1ab" d="M208.15 138.2q11-9.05 21.05-9.85 12-.95 19.7 10.6 8.65 12.95 10.75 33.8 1.1 11.15.9 26.65.35 6.8 5.85 14.05 3 3.95 8.3 10.1 2.25 3.45.35 10.95-3.1 12-3.2 13.15-.3 3.4.05 8.4l.45 6.85-.2 12.5q-.1 6.5.3 8.55.6 2.95 1.9 6.4.5 3.35-2.35 10.65-2.05 5.25-5.25 5.25L258.8 304q-4.3-1.3-5.2-2.95l-.6-3.45q-.95-4.1-1.05-5.6-.35-4.05 1.3-6.3 4.8-6.35 4.1-18.9-.6-9.65-1.9-17-1.8-10-4.5-12.9l-7.65-8.8q-6.25-6.45-14.45-11.55-9.3-5.8-15.75-12.95-5.85-6.4-8-12.25-2.25-6.35-4.75-10.5-3.4-5.55-9.55-11.7-3.35-3.35 2.15-13.15 5.55-9.85 15.2-17.8"/><path fill="#d3cd91" d="M252.75 191.2l2.35-9.75q3.4-13.65.6-28.2 3.7 11.2 4.45 26.55.45 8.25.4 19.6.35 6.8 5.85 14.05 3 3.95 8.3 10.1 2.25 3.45.35 10.95-3.1 12-3.2 13.15-.3 3.4.05 8.4l.45 6.85-.2 12.5q-.1 6.5.3 8.55.6 2.95 1.9 6.4.5 3.35-2.35 10.65-2.05 5.25-5.25 5.25L258.8 304q1.85-.65 3.8-2.85 3.95-4.45 3.4-12.35-.65-9.1-.55-22.9.2-16.8 1.55-33.3.55-6.25-6.3-16.3l-5.1-7.6q-2.55-4.15-3-7.1-.8-5 .15-10.4"/><path fill="#ffe100" d="M328.25 215.1q.2-2.55 2.35-3.35 1.2-.45 3.45-.75 1.75-.55 4.65-3.75l.2 2q-.2 2.35-2.2 3.8-1.5 1.1-.95 3.15.6 2.15-1.4 3.8-4.05 3.45-5.65 5.4-2.55 3.15-.45 3.9 2.2.8 4.9-.35 2.25-.95 3.55-2.55.9-1.1 2-1.3l.95.05q-.3-.05-.75.7-.65.95-.75 2.3-.2 2.45-2.15 4.65l-4.55 4.35q-1.8 1.8-1.25 5.2.6 3.75-.8 5.85-1.55 2.35-3.25 2.45-1.45.05-1.95 1.35-.6 1.45-1.15 4.7-.95 2.45-4.4 2.25-4.7-.2-8.4 1-4.15 1.35-2.35 3.4 1.5 1.65 3.85.65 2.25-.9 2.55-.4.45.75.6 2.35.5 1.5 2.55 2.5l-5.05.15q-3-.25-4.5 2.3-1.4 2.3.65 3.6l.8.65-1.45.95q-2 .8-7.6-1.05-5.35-1.75-7.8-.4-4.65 2.3-5.65 3.1-1.5 1.2 2.45 2.15 6.1 1.45 8.75 3.05l-3-.2q-3.45.05-5.45 1.5-2.55 1.9-3.9 1.95-1.65.1-3.95-1.95l-2.5-2.2q-1.65-1.25-3-1.25-1.3-.05-2.6 1.4l-1.6 1.85q-.8.25-.95-.85-.15-1 .15-1.8 2.2-4.6 1.15-8.15l-2-4q-.8-1.75.35-3.3 1.3-1.75 1.1-3.15l-1.85-6.35q-.9-3.1.8-6.1l2.15-3.2q1.5-1.7 3.3-1.55l3.5.5q1.05.45.85 1.8-.4 2.8 1.6 3.15 1.95.35 3.6-1.95 5.4-7.35 6.7-6.7.6.3.85 2.25.55 1.2 2.65-1.1 1.75-1.9 1.45-5.1-.45-3.9 1.1-6.95.7-1.4 2.5-2.2l1.65-.55-.7 2.05q-.7 2.3-.5 3.75.3 2.2 2.1 3.6 2.05 1.55 3.45-1 1.1-2.05 1.05-4.4-.05-2.3.4-3.15.45-.75 3.5-1.5 2.95-.7 3.75-2.85.7-1.8.35-4.25-.25-2.1.8-3.6 1.3-1.8 3.2-3.05.95-.6 1.65-.85l-.4 1.55q-.05 1.75 1.4 2.65 1.95 1.25 3.5.75 1.8-.55 2-3.35"/><path fill="#e95504" d="M336.7 226.4q1.15-1.35 2.95-1.25l-.85.85q-.45.7-.65 2.15-.35 2.45-2.25 4.6l-4.45 4.4q-1.8 1.8-1.25 5.2.6 3.75-.8 5.85-1.55 2.35-3.25 2.45-1.45.05-1.95 1.35-.6 1.45-1.15 4.7-.95 2.45-4.4 2.25-4.7-.2-8.4 1-4.15 1.35-2.35 3.4 1.5 1.65 3.85.65 2.25-.9 2.55-.4.45.75.55 2.3.45 1.5 2.6 2.55l-4.7.1q-3.35-.2-4.85 2.35-1.1 1.85.45 3.5 1.05 1.2-.45 1.7-2 .7-7.6-1.1-5.3-1.75-7.8-.35-4.65 2.3-5.65 3.1-1.5 1.2 2.45 2.15 6.1 1.45 8.5 3.1l-2.9-.25q-3.3.05-5.3 1.5-2.55 1.9-3.9 1.95-1.65.1-3.95-1.95l-2.7-2.4q-1.8-1.25-3.35-1-.75.15-1.85 1.1l-2.4 2.4q-.55.6-.8-1.1-.25-1.8.2-4 .6-3.1.45-5.15l-1-3.5q-.7-2.2-.25-3.7l1.45-3.05q.6-1.7-.85-4.65l2.1 1.9q2.7 2.55 3.5 2.15.7-.4 1.65-3.35.65-2.1 2.7-.85.7.45.5 3.85-.15 3.05 2.9 3.6 1.4.25 1.75-2.15.4-2.85 1.5-3.4l3.4-.4q2.8-.2 3.55-.7.7-.5 1.1-2.15.5-2.05.75-2.45 2.2-3.95 3.9-4.5.8-.25 2.05.95 1 1 1.3.4l1.2-4.4q.9-2.9 3-3.25.8-.15 1.25 2.35.35 2.25 3.2 1.1 1.5-.55 1.2-2.4-.35-2.45 0-3.15.95-1.9 4.6-3.3 2-.8 5.45-1.8 1.75-.6 2.05-3.7.25-2.95 1.3-3.05l5.4-.85q2.8-.9 4.75-3.25"/><path fill="#ffe100" d="M224.1 122.15q-10.5 3.55-15.35.65-3.1-1.9-8.35-.95-5.5 1-6.15 4.2l-1.05 5.35q-1.05-1.25-3.05-2.15-4.1-1.9-9.1-.4-4.95 1.45-5.7 3.8-.35 1.15.3 2-.7.55-1.75.95l-3.85.15q-2.1-.8-4.2 0-2.15.8-1 1.95 1.7 1.7 1.65 3.15-.05 2.1-4 3.1l-7.55 1.5q-3.3.6-4.15 1.35l-2.3 2.1q-.95 1.45.55 3.45-3.45-.7-5.2 1.25-1.8 2 2.85 3.35-3.5 1.65-9.65-.5-5.85-2.1-7.45-4.9-1.35-2.45-3.1-2.95-1.65-.5-1.65 1.2 0 4.9-3.65.2-4.05-5-4.35-.4-.2 3.9-.05 4.95l-4.1-4.35q-4.1-4.9-3.85-7.75l.9-4.6q.2-1.35-1.55-2.3-1.8-1-2.35-1.8l-1.1-2.1q-.75-1.35-1.9 1.05-1.1 2.25-1.1 4.15-2-2-2.15-4.5.2-2.65 0-3.75-.2-1.05-1.35-1.45-1.15-.45-1.5-1.75-.15-.7.3-4.7.3-2.65-1.35-2.25l-3.85 2.1q-1.8.85-2.2-2.3-.3-2.4.25-8.55.45-5.1-.25-6.15L85.5 97.3l4.25.15q1.65-1.4.3-3.65-2.8-4.7-2.95-5.4-.3-1.4 2.3-2.15l4.95-1.4q2.45-1.5.9-5.5 2.55 1.5 3.15 3.15.65 1.7-.75 3.75Q96 88.6 95.9 90.5q-.1 2.05 2.15 1.15 3.95-1.6 4.45-1.65 1.95-.2 1.4 2.75-.6 3.2.1 3.85l3.15.25q1.7-.1 3.55 2.85 2.4 3.7 4.45 4.95 1.85 1.1 3.6.5.7-.2 3.45-1.9 5.6-3.45 12.6-2.3-1.15.55-2.45 1.3-2.75 1.45-2.35 5 .3 2.9-1.8 4.2-3.1 1.95-3.55 2.7-.7 1.1 1.75 3.3 2.55 2.3 2.15 3.6-.3.95 1.4 2.25 1.7 1.25 4.1 1.9 6.3 1.75 7.8-2.75.65-1.9-.8-5-1-2.25 1.75-4.4.65 2.3 1.25 3 .95 1.05 3.1.7.85-.15 1.9 2.1.85 1.85 3.05.25 1.75-1.25 3.15-6.5 1.35-4.95 4-6.25-.75 1.75-.2 4.15.6 2.75 3 1.05 1.7-1.2 2.9.75 1.2 1.9 3.6.1 1.45-1.1 5.1-5.9 2.45-3.3 5.05-3.15.05.5-1.55 2.5-1.3 1.6-.2 2.45.75.6 3.55 1.25 2.35.55 2.95 1.8.35.7.7.35l.85-1.4q1.75-3 4.65-3.95 2.5-.8 4.5.35 1.05.6 2.05-1.65 2.5-5.5 7.4-5.5-1.4 2.45-1.5 3.6-.2 2.05 2.75 1.5 2.85-.55 3.5-.05l2.1 2.4q2.25 1.95 4.95.2 4.7-3 7.6-3.65 4-.9 6.55 3.4l2 2.95q1.35 1.25 3.35.8 0-2.55.7-4.25 1.05-2.65 3.4-1.8l3.85.95q1.15-.15 2.2-2.25 1.35-2.7 2.7-3.55l4.65-.15q-.9.5-1.55 1.55-.75 1.2-.3 1.9 1.4 2.05 11.9-1.3-3 4.2-7.55 5.55-5.35 1.6-6.55 2.65-2.8 2.5-2.85 4.75-.05 2.05 2.15 4.6 1.45 1.65-1.4 6.8-3 5.45-2.05 7.45-1.95-.05-4.45-2.25-2.2-1.95-3.1-3.8-1.3-2.6-2.9-3.4-1.85-.9-2.5 1.9-1.1-.1-2.85-2.7-1.5-2.2-4.3-1.2"/><path fill="#e95504" d="M228.8 123.3q-1.45-2.3-4.7-1.15-10.5 3.55-15.35.65-3.15-1.9-8.45-.95-5.6 1-6.05 4.2-.55 3.9-1.15 5.35-1-1.25-3-2.15-4.05-1.9-9.05-.4-4.95 1.45-5.7 3.8-.35 1.15.3 2-.7.55-1.75.95l-3.85.15q-2.1-.8-4.2 0-2.15.8-1 1.95 1.7 1.7 1.65 3.15-.05 2.1-4 3.1l-7.55 1.5q-3.3.6-4.15 1.35-1.55 1.35-1.9 2.1-.7 1.35.15 3.45-3.45-.7-5.2 1.25-1.8 2 2.85 3.35-3.5 1.65-9.65-.5-5.85-2.1-7.45-4.9-1.35-2.45-3.1-2.95-1.65-.5-1.65 1.2 0 2.25-1.1 2.2-1-.05-2.55-2-1.65-2.05-2.8-2.45-1.5-.55-1.55 2.05l-.05 4.95-4.1-4.35q-4.1-4.9-3.85-7.75l.9-4.6q.2-1.35-1.55-2.3-1.8-1-2.35-1.8l-1.1-2.1q-.75-1.35-1.9 1.05-1.1 2.25-1.1 4.15-2-2-2.15-4.5.2-2.65 0-3.75-.2-1.05-1.35-1.45-1.15-.45-1.5-1.75-.15-.7.3-4.7.3-2.65-1.35-2.25l-3.85 2.1q-1.8.85-2.2-2.3-.3-2.4.25-8.55.45-5.1-.25-6.15L85.5 97.3l4.05.1q1.9-1.25.5-3.6-3.05-5.1-3.15-5.55-.25-1.2 2.5-2l4.95-1.4q2.45-1.5.9-5.5 2.55 1.5 3.15 3.15.65 1.7-.75 3.75Q96 88.6 95.9 90.5q-.1 2.05 2.15 1.15 3.95-1.6 4.45-1.65 1.95-.2 1.4 2.75-.6 3.2.1 3.85l3.15.25q1.7-.1 3.55 2.85 2.4 3.7 4.45 4.95 1.85 1.1 3.6.5.7-.2 3.45-1.9 5.6-3.45 12.6-2.3-1.15.55-2.45 1.3-2.75 1.45-2.35 5 .3 2.9-1.8 4.2-3.1 1.95-3.55 2.7-.65 1.05 1.15 2.8 2.4 2.2 2.65 2.9l-1.3 1.5q-1.6 2.2-3.85 2.1-1.35-.05-1.35.6-.05.6.95 1.35 2.6 2.05 5.7 1.4 2.8-.55 3.6.55 1 1.3-.05 5.7-.8 3.4 2.1 1.85 3.75-1.95 4.45-.95.85 1.2 1 3 .5 1.2 3.6 1 4.2-.3 5.65-1.15 1.95-1.15 4.15-5.35 1.7-3.25 2.5-1.6 1.15 2.4 2.5 1.7 1.5-.75 1.55-5.35 0-5.05 1.9-7.05 2.05-2.15 5.35-.75 3.5 1.55 4.4.95.75-.5 1.1-3.6.35-3.05 1.3-3.5.2 2.7 2.1 4.6 2.05 2 3.1-1 .9-2.4 2.7-1.45 2.45 1.3 3.7.6 1.6-.9 2.55-1 1-.1 2.6.55 2.4 1 3.35 1.1 1.75.25 3.6-.9.9-.55 2-2.2 1.1-1.65 1.9-2.2 1.15-.75 3.6-.5l3.75-.1 1.25-1.15q.65-.85 1.35-.95l.9.3.95.2q1.6-.55 5-2.45 3-1.7 4.9-2.15 4-.9 6.55 3.4l2 2.95q1.35 1.25 3.35.8 0-2.55.7-4.25 1.05-2.65 3.4-1.8l3.85.95q1.15-.15 2.2-2.25 1.35-2.7 2.7-3.55l4.65-.15q-.9.5-1.55 1.55-.75 1.2-.3 1.9 1.4 2.05 11.9-1.3-3 4.2-7.55 5.55-5.35 1.6-6.55 2.65-2.8 2.5-2.85 4.75-.05 2.05 2.15 4.6 1.45 1.65-1.4 6.8-3 5.45-2.05 7.45-1.95-.05-4.45-2.25-2.2-1.95-3.1-3.8-1.4-2.75-2.9-3.55-1.8-.9-2.5 2.05-.7-.05-2.45-2.75"/><path fill="#f9f1ab" d="M127.25 209.75q14.15-2.2 23.2 4.05 3.8 2.6 5.05 5.8 1.3 3.3-.45 5.95-3.7 5.6-7.9 19.05-4.4 13.95-4.6 21.9-.15 5.65 1.55 13.35 1.55 7 1.15 10.5-.5 4.25-2.95 12.25l-4.05 13.6q-1.05 4.05-1.4 10.75-.4 6.65.15 11.05.6 4.85-1.05 10.5-1.35 4.7-3.9 8.7-2 3.25-7.3.1-4.9-2.95-6.65-7.05-.4-1-.6-4.1-.25-3.05-.85-4.55-.8-2.1-.7-5.05.1-2.85 1-4.35 1.85-3.15 3.95-9.2 2.6-7.4 4.2-15.5 1.25-6.55-2.6-14.45l-2.6-5.5q-1.05-2.85-.6-5.05.95-4.35-2.55-11.3l-10.25-17.9q-6.1-10.85-8.9-18.1-2.3-5.95-3.45-12.75-.9-5.5 8.5-8.3 4.15-1.2 24.6-4.4"/><path fill="#d3cd91" d="M142.4 239.6q6.05-14.25 13.45-18.7 3.6-2.15 2.1.5l-2.9 4.15q-3.7 5.6-7.9 19.05-4.4 13.95-4.6 21.9-.15 5.65 1.55 13.35 1.55 7 1.15 10.5-.55 4.3-2.85 12.35l-3.95 13.7q-1.65 6.4-1.9 11.6-.25 4.3.45 10 .6 4.85-1.05 10.5-1.35 4.7-3.9 8.7-2 3.25-7.3.1-4.9-2.95-6.65-7.05-.85-2.05 9-1.75 5.1.15 4.95-6.85l-1.55-13q-.3-3.95 1.5-20.1 2.1-18.85 2.35-28.25.7-23.35 8.05-40.7"/><path fill="#827aa0" d="M109.4 366.2q-4.85-1.55-.2-8.95 4.15-6.7 8.65-9.05 4-2.15 9 .75l6.1 4.75.85 9.6q-1.25 3.45-10.15 4.2-8.25.65-14.25-1.3"/><path fill="#675f80" d="M133.8 363.3q-.75 2.15-4.8 3.3-3.6 1-8.75 1 1.7-3.95 2.8-9.85l1.35-10q2.9 1 6 3.6l2.55 2.35.85 9.6"/><path fill="#fff" d="M44.9 100.25q.35.75.15 1.5l-.85 1.05q-.65.3-1.35 0-.7-.35-1.05-1.1-.35-.7-.15-1.45.2-.75.85-1.05.65-.3 1.35 0 .7.3 1.05 1.05"/><path fill="#0d131a" d="M105.7 252l.6 1.1q-1.6-.05-2.75 1.25-.7.8-1.85 3.05l-1.05 2.2-1.8 2.35q-2.1 1.95-.8 3.05 1.55 1.35 1.1 2.5-.6 1.45-2.05 1.65-.25.05-3.1-1.5l-3.9.1-1.6 1.5q-.8.65-1.25.4l-.7-.6-.2-.35q-.4-1.3.1-2.6l1.85-3.85-3 2.2q-1.75 1.75-1.75 4.65v.7l.15 2.05q0 1.3-.6 2-.65.8-2.4 1.05l-3.4.8-.65-1.1q1.35-.65 3.15-.6 1.3 0 2.2-1.05.5-.65.6-2.1l-.05-2.3q0-3.5 1.4-5.05 1-1.15 5.15-3.3 1.6-.85 1.8-.55.25.35-1.05 1.85-2.4 2.7-2.25 4.85.1 2.05 2.2.45 2.7-2.05 4.95-.45l2.2 1.95 1.1-.75q.55-.85-.5-1.55-1.6-1-1.75-1.4-.35-.9 1.35-2.9l2.35-2.7q1.4-1.65 1.9-3.05.65-1.95 1.5-2.8 1-1 2.8-1.15m5.8 32.05q.45-1.7 1.75-2.25 1.7-.75 6.35-.7l-.1 1.2-4.3.25q-2.2.3-2.45 1.2-.4 1.6-.25 2.8.1 1.1.55 1.5l.9.1 1-.25q1.4-.55 3.45.35l1.9 1.1.75.7q-3.55.35-4.55 1.15-1.05.85-1.95 4.15-.55 1.95-1.65 1.95-.7 0-2.8-1.1-1.55-.75-2.65-.35l-2.05 1.25-.6-1q1.85-1.2 2.25-1.3 1.3-.35 3.45.65l2.05.1q.65-.4.85-1.15.45-1.6 1-2.45 1.3-2 3.6-2.45-2.45-1-3.45-.6l-1.6.3-1.15-.25q-1.2-1.05-.3-4.9m132.85-46.85q1.1.3 2.25-1.05l2.15-2.85.5.95.45 1-2.55 2.85q-1.9 1.75-3.5 1.3-1.55-.4-1.9-3.75-.15-1-.7-1.3l-1.75-.15q-6.8.2-4.1-5.95-2.9 1.4-3.2 4.95v.9q0 1.85.6 3.75l.4 2.15q0 2.05-1.35 2.85l-2.2-.1q-1.2-.95-1.2-3.55l.1-1q-1.4.85-2.4 2.45l-1.9 3q-1.95 2.5-3.9 1.95-2.05-.6-2-3.95 0-2.55-3.2-3.35-2.9-.7-3.8.25l.6-1.5q1-1 4.45.05 3.55 1.1 3.45 3.15-.15 3.2.95 3.55.95.3 2.5-1.35l2.05-3.05q1.4-2.2 3.35-3.4 1.35-.8 1.55-.35l-.35 1.25q-.75 1.35-.6 3 .15 1.55.9 2.2.7.65 1.5-.65.85-1.35.25-3.35l-.7-2.45q-.45-1.8-.3-3.2.2-2.6 1.7-3.95l3.6-1.95 1.15.05q.15.4-.5 1.1-1.4 1.45-1.15 3.2.35 2.15 3.95 2.05l2.05.3q1.05.55 1.2 2.05.2 1.45.75 1.75l.85.15m-119.5 72.3l-.2 1.85q-2.65-1.85-5.85-2.85-3.05-1-5.2-.75l.35-1.4q2.3-.2 5.25.6 2.95.85 5.65 2.55M117.1 332l-.2 1.05-.2 1.05q-2.7-2-5.25-5.55t-3.65-6.8l1.75.05q.7 2.15 3 5.35 2.45 3.35 4.55 4.85m61.9-40.95q3.35-4.35 4.9-5.4l.75 1.25q-1.5.95-4.95 5.8-3.55 5-4.95 8.35l-1.25-1.5q1.8-3.7 5.5-8.5m19.7-2.2l.95 5.75q.8 5.9.25 8.25-.15.85-1 1.35-2.55 1.55-9.55 1.8l-1.05-1.5q7-.25 9.2-1.6l.6-.65q.5-2.2 0-7.45l-.65-4.85 1.25-1.1"/><path fill="#0d131a" d="M212.9 210.25q.6 4.6 1.7 9.2l1.4 4.05q.95 2.6 1.1 3.55.4 2.15-.35 3.8l-1.95 3.65q-2.85 5.7-4.25 9.55-2 5.55-3.55 13.1-1.2 6.05-1 15.5.2 8.4-.15 9.1-1 2.05-4.2 5.55-3.65 3.95-5.25 3.95-1.3 0-5.65-1.2l-5.2-1.55q-1.95-.9-2.5-2.55-.7-1.95-.7-4.95-.05-3.05.6-4.7.55-1.35 2.85-4.45l3.4-4.75q1.75-2.8 2.5-15.05.7-10.9.15-14.15-.6-3.5-3.1-6.75-2.15-2.8-7.45-7.4l1.05-2.1q2.95 2.55 5.35 5.45 4.65 5.45 5.6 9.95 1.05 5.1.1 16.85-.95 11.35-2.3 13.25l-3.8 5.8q-2.3 3.75-2.7 4.9-.4 1.15-.35 3.9.1 2.65.45 3.65.4 1.3.85 1.4l5.75 1.95 4.7 1.05q.9-.2 3.75-3.4 2.75-3.15 3.75-5.1l.55-9.05q.45-10 1.45-16.05 1.95-11.55 7.2-22.5l1.4-3q.5-1.4.5-2.7l-.15-1.6-1.5-6.55q-3.65-14.5-2.4-18.75l1 .55q.8.25 1 .45-.35 2.9.35 8.15"/><path fill="#0d131a" d="M255.25 248.3l.6.95q.45.8-.25 1.75l-1.75 2.3-2.3 2q-1.4.9-5.25 1.05-2.05.1-.95 2.75 1.95 4.6-.2 6.9-2.05 2.2-6.25.95l-2.7-1q-1.35-.5-1.55 0-.3.65-.25 1.35 0 .65.25.95l.95 1.9q.1.7-.85 1.25-1.25.75-2.7.75-1.85.05-3.2-1.1-1.45-1.2-2.25-4.45-.75-3.3-4.05-2.55-3.05.7-4.5 3.35-1.7 3.1-.75 4.65.45.8 1.25 1.1l3 .15 4.3-.6q2.7.15 6.4 2.65 1.35.9 1.15 1l-2.45.35q-1.5.2-3.2 1.45-1.65 1.2-2.9 2.95l-1.2 1.2q-.35-.05-1.4-1.7-.95-1.5-1.5-1.85l-2.4.05q-4.15 2.1-6.25 2.35-2.75.3-4.05-1.9-.8-1.5-2.7-2.4v-1.3l1.7.8q1.05.65 1.7 1.75.95 1.65 3.3 1.25 1.7-.3 5.9-2.2 1.95-.9 3.3 0 .7.45 1.6 1.9l.7.95.35-.3q3-3.55 7.45-3.9-2.95-1.75-5.25-2l-4.4.35q-4.15.7-5.25-1.2-.45-.8-.4-2.3.1-1.75.9-3.2 2.3-4.35 6.15-4.9 3.85-.5 4.75 3.35l.5 2.2q.4 1.25 1.05 1.75 1.95 1.65 5.15-.55-1.1-1.25-1.1-2 0-2.45 1.3-2.6.7-.1 3.9.85 3.45 1.05 5.15-.4 1.9-1.6.5-5.8-1.2-3.55.6-4.25 1.15-.45 4.9-1.2 2-.85 5.45-5.6m-154.35-5.4l1.1 1.9q-8.45 4.1-15.55 10.9-6.4 6.2-9.3 12.15l-.8 1.8q-.35.95-.4 2.25 2.5 3.25 6.9 7.75l7.3 6.85 3.05 2.4q1.85 1.35 3.15 1.75l4.05.95q2.6.65 3.6 1.6.4.4 2.2 4.55 1.65 3.85 3.15 4.75l4.1 2.6q1.45 1.2 1.45 2.9 0 2.8-1.5 8.6-1.8 7.05-3.8 6.95-1.4-.05-2.05-1.25-3.65-7.25-7.35-9.4-2.25-1.35-8.15-1.8-3.1-.25-4.35-1.1-1.05-.65-2.4-2.95l-3-5.35q-5.15-7.2-23.6-14.1-3.8-1.4-6.85-6.65-2.35-4-3.65-8.9-.65-2.6 2.3-9.15 1.5-3.25 3.45-8.95 2.05-5.85 6.45-29 4.5-23.45 4.8-30.4l1.95 5.95q-.35 3.65-4.5 24.6-4.65 23.15-6.8 29.4l-3.45 9.2q-1.95 4.8-1.6 8.6.2 2.6 2.95 7.15 3.15 5.35 6.5 6.4 4.85 1.55 12.65 6.3 8.8 5.35 11.65 9.3L87 305.2q1.3 2.2 2.05 2.7.95.7 3.4.9 4.8.4 7.8 2 4.3 2.35 7.45 8.15l1.25 2.2q.7.75 1.5-.25.85-.95 1.85-6.45l.85-6.05q0-1.4-.95-2.35l-3.15-2.15q-1.9-1.1-3.95-4.65l-2.35-4q-.85-.85-2.2-1.5l-2.85-1q-4.5-1.4-6.65-3.15-3.7-2.9-8.1-7.2-5.1-4.95-7.4-8.25-.1 3.6-.75 3-.6-.55-.45-4.35.1-3.15 1.1-5.4 3-6.5 9.95-13.3 7.25-7.15 15.5-11.2M327.6 88.45l-3.35 2.65q-3.75 2.7-1.7 3.7 2.85 1.4 3.65 2.25.95 1.1 1.5 3.9.45 2.45 2.6 1.5 1.6-.75 3.05-2.6 4-5.25 9.7-8.1 5.4-2.65 9.5-2l5.45.85 3.45-.05q1.2-.2 3.25-1.65l3.55-2.9q2.7-2.55 3.3-2.35.7.2-.05 3.85-1 4.6-4.75 6.35-3.7 1.7-2.15 3.95l1.55.4 2 .15q3.75.25 2.6 2.55-1.15 2.2-4.8 3.5-1.1.4-.75 1.35.25.7 1.55 2.2 3.25 3.5 3.9 4.85 1.25 2.5.7 6.75-.5 3.75-1.1 3.7-.4 0-1.4-2.3-1.4-3.25-4.4-7-2.9-3.7-3.7-3.35-.25.1-.6 3.65t-1.9 4.35q-1.55.85-4.8-1.7-3.4-2.6-4.5-2.2-.45.15-.5.6l-.05.85-.15 1.35q-.3.9-1.25 1.4l-3.3 1.7q-1.85 1.2-1.35 2.4.3.8.4 2.7.05 3.7 2.9 3.3 1.4-.2 2.8-1.15 2.7-1.3 5.95-3.3 2.4-1.25 4.3-.9 2.95.5 2.95.95.05.55-3.3 2-3.2 1.4-2.8 3.5.4 2 3.9 3.9l2.3 1.35q1 .9.85 2.55-.3 3.45.95 5.35 4.05 5.85 3.8 8.45-.25 2.35-4.75 5.35-3.3 2.25-2.9 5.3.6 4.15 3.3 5.85 2.6 1.7 4.6-.35 4.15-4.1 7.8-4.3 3.1-.2 3 .6-.05.75-2.95 3-2.3 1.8-2.2 3.9.1 2.5 5.35 1.25l2.9-.9q1.7-.45 2.55 0 1.95 1 5.2-.35 3.05-1.25 3.25-.65.2.6-2.3 3.5-1.75 2.1-4.25 3.45-.95.55-.95 1.95l.25 2.7q.15 2.8-.55 3.35l-2.65.2q-4.4-.4-5.95 1.7-1.3 1.8-.15 2.85 1 .9 4.05 1.5 2.5.45 2.75 1.7.35 1.45 1.15 2.75l2.15 3.65q.9 2.3-.55 4.4-2.2 3.15-1.5 7.9.9 6.15.2 9.25-.65 2.95-3.45 5.4-1.65 1.45-6.5 4.45-3.75 2.3-5.9 8.2-2.45 6.75 2.8 8.65 3.9 1.4 3.7 1.95l-4.6.2q-3.05-.25-5.85-2.25-2.7-1.85-3.9-4.95-1.3-3.35-.3-7 .5-1.9.1-2.65-.3-.55-.75-.4-2.1.95-2.8.55-.9-.45-.7-2.95.1-1.5.85-3.8l.9-3.25q.5-3.85-2-3.15-2.35.65-3.1 3l-.55 1.85q-.1.15-.9-.75l-1.9-2.4q-1-1.8-.75-4.1.1-1.05.7-2.25l.85-1.85.65-2.25q.05-1.05-.65-2.75-1-2.35-1.85-2.95l-2.3-.2-2.5.3q-5.5 0-6.55-4.45-.6-2.9-.05-5.8l.65-2.95q.35-1.65.1-2.65-.3-1.15-1.25-1.85-.9-.65-2.1-.75-2.3-.15-3.3 2.2-.55 1.3-.6 3.3v3q-.1 2.4-.4 2.95-.4.7-1.75.35l-2.35-.8q-1.7-.35-2.75.65-.65.6-.85 2.25-.5 3.8-1.3 2.95-.75-.85-1.05-4.6-.1-1.5.5-3.35l.7-3.05.05-1.8q-.15-.9-.85-1-.95-.1-2.35 1.1-1.5 1.25-1.55 2.55-.1 2.2-.65 3.3l-1.6 1.95-1.2.85-.3-1.25-.35-.8q-3-1.15-3-4.05 0-1.7 2.2-3.55l.7-.75-.4-.8q-.45-.5-1.2-.7l-1.4-.4q-1.2-.45-1.95-1.3-.95-1-.95-2.25l-.55.4q-.4.8.3 2.65 1.15 2.8 1.15 4.45 0 1.4-.4 2.15l-1.15 1.3-1.75 1.4q-1 1.05-1.25 2.55-.3 1.9-1.2 3.4-.95 1.55-1.9 1.45-1.1-.1-1.8-2-.75-1.95-.6-4.6.3-5-.85-7.75-.85-2-3.2-4-1.05-.9-.8-2.3l.7-2.1.2-1.25q-.1-.4-.8-.7-.45-.2-1.65 0l-1.7.3q-1.65-.1-2.7-1-1.3-1.15-2.55-4.1-1.1-2.6-2.45-2.2-1 .3-1.75 1.95-.75 1.7-.45 3.35.2 1 1.2 2.5l1.5 2q1.5 2.05.9 2.2l-2.85-.55q-5-1.35-7.05-4.9-.8-1.35-.2-3.55l1.35-3.9q2.3-7.7-2.25-10.05-2.75-1.45-5.05-1.15l-4.1 1.05-2.85.3-2.05-1.2-.25-2.3q1.15 1.4 2.2 1.65l2.65-.1 4.05-.75q2.9-.2 5.8 1.3 4 2.15 4 6.35 0 1.6-1.05 5.15-1 3.2-1 4.5 0 1.2.55 2.1 2.25 3.9 6 4.55-2.2-3.25-2.55-5.05l-.1-1.05q0-1.95.75-3.4.9-1.7 2.6-2.2 1.7-.55 3.25 3.1 1.05 2.45 2.5 3.25l2.8.55 1.45-.15 1.4.1q1.9.8 1.1 3.55-.3 1.05-.25 1.6.05.85.9 1.55 2.4 2.1 3.2 4.3.9 2.65.6 7.85-.15 2.5.35 3.95.35 1.15.95 1.2.5.1 1.05-.7.6-.9.85-2.5.3-1.8 1.2-3l1.6-1.65 1.3-1.1q.55-.65.55-1.7l-.9-3.75q-.9-2.5-.15-3.5 1-1.45 1.45-1.2l.55 1.65q.15.8.75 1.2l1.55.75q2.1.8 3.05 1.9.75.95.65 1.5l-1.05 1.3q-1.3 1-1.3 2.25 0 3.15 1.85 3.85.85.3.85 1.25v.05q1.5-1.1 1.9-5.1.15-1.35 1.85-2.7 1.75-1.45 3.2-1.25 1 .15 1.4.4.8.6.8 2.2l-.05.55-.7 3.4-.8 2.8q-.5 2.3.3 2.6 0-2.05 1.15-3.15 1.7-1.55 5.2-.7 1.3.35 1.4-2.55.15-4.1 1.05-6.35 1.3-3.1 4.15-2.85 1.4.1 2.75 1.25 1.3 1.15 1.65 2.6.3 1.15.05 2.85l-.55 3.05q-.45 2.7.2 5.15.95 3.8 4.25 3.85h3.1l2.9-.1q1.6.55 2.65 3.1.65 1.45.65 2.85 0 1.2-1.05 3.5-1.6 3.7-1.05 5.9.3 1.15 1.95 3 .65-1.55 1.25-2.3 1.25-1.45 3.35-1.85l1.25-.1q.85.1 1.2.5.95 1 .15 4.2l-1 3.15q-.6 2.15-.7 3.75-.05 1.55.4 1.9.4.3 1.45-.2l1.1-.4q.55-.1.9.2 1 1 .1 4.25-1.5 5.45 2.55 9.55 3.7 3.85 8.45 3.55-7.4-1.45-5.95-8.5 1.3-6.7 8.1-10.85 4.4-2.7 6.2-5.15 1.6-2.15 2.3-5.85.5-2.45.1-5.75-.55-3.1-.55-3.85 0-3.25 1.35-5.25.95-1.4.95-2.75 0-1.1-.6-2.45l-1.3-2.35-1.15-2.25q-.2-.6-.6-.85-.3-.2-1.15-.35-3.65-.7-5.15-2.4-1.5-1.65-.45-3.55.8-1.5 3.15-2.3 2.25-.8 4.7-.5 1.05.15 1.3-.25.5-.75.25-3.6-.25-3.05 1.85-4.2 2.6-1.45 4.15-4-4.45 1.75-6.6.7l-1.95-.25-2.45.5-2.6.5-2.55-.1q-2.45-.6-1.7-3.3.75-2.65 3.8-4.9-3.3-.75-7.5 3.4-2.75 2.75-5.9 1.1-3.45-1.8-3.8-7.95-.15-2.3.55-3.35.6-.95 3-2.6 3.15-2.1 3.5-3.85.55-2.7-2.75-8.35-2-3.35-2-6.5 0-.5-.5-1-.3-.35-1.4-1.15-2.45-1.7-3.55-3-1.3-1.4-1.2-3 .1-2.75 5.1-4.05-2.85-.55-5.3 1l-5.05 3q-3.85 1.5-4.75 1.4-2.05-.3-2.35-4.7-.05-1.05-.65-2.7-.55-1.35.8-2.7 1.2-1.25 4.15-2.75l.95-.8.2-.95q.15-1.75 1.35-2.2 1.5-.6 4.55 1.75 2.95 2.3 4.25 1.7 1.25-.6 1.75-4.05.5-3.5 1.25-3.8 1.35-.55 4.75 3.7t4.7 8.15l.35-2.75q0-2.85-1.5-5.5-1.1-1.9-3.75-4.85-1.45-1.6-1.35-2.65.1-1.05 2-1.75 2.4-.85 3.1-2.5.75-1.75-2.05-1.75-2.05 0-2.8-1.05-1-1.4-.7-2.7.35-1.55 2.55-2.45 3.7-1.55 3.7-5.85 0-.65-2.35 1.45-3.1 2.8-5.05 3.45l-5-.3-4.65-1.15q-3.5-.5-9.6 3-5.95 3.45-8.85 7.4-2.6 3.55-4.95 3.4-2.15-.15-2.65-2.8.05-1.85-.3-2.85-.65-1.75-3.9-3.35-2.8-1.35-1.05-3.25.95-1.05 3.55-2.9-4.7-.45-7.95 2.8-1.75 1.7-5.8 8.4-4.25 7.05-7.1 7.2-3.45.2-9.9-8.05-1.2-1.5-3.9-2.3l-6.5-.45q-7.3.95-13.55 5.35-7.5 5.2-10.7 13.75-4.1 10.9-6.6 15-3.15 5.15-6.7 5.15l-1.1-1.35q3.35 0 6.65-5.05 2.9-4.5 6.7-14.65 3.3-8.8 11.2-14.45 6.8-4.85 14.2-5.85 3.7-.5 6.85.8 2.7 1.05 4.15 2.9 5.75 7.3 8.6 7.4 3.05.15 6.8-7.5 2.25-4.55 5.75-7.35 4-3.25 8.85-3.25 3.15 0 3 .55m-85.3 229.9q-.75-.9-.4-2.5 1.25-5.8 4.9-10.9 3.3-4.65 6.55-6.3l.45 1.7q-2.85 1.45-5.5 5.35-2.9 4.3-4.1 9.75-.25 1.4 0 1.65 1.45 1.8 10 2.25 9.65.5 14.35-3.1.9-.65.55-5.6l-.55-4.85 1.1-.4.65 4.05q.5 4.45.2 7.05-.05.9-1.25 1.5-7.45 4-17.25 3.1-8.1-.75-9.7-2.75M17.85 62.5q-1.3-6.35-1.7-12-.5-6.25.55-6.4 1.55-.2 8.6 7.7 6.75 7.65 9.25 12.05l-1.1 1.35q-1.65-3.45-8.5-11.25-6.45-7.4-7.4-7.6-1.05-.15 1.85 17.2l-1.55-1.05"/><path fill="#0d131a" d="M19.3 53.55l-.7-1.25q0-.4 1.15.65 2 1.9 4.85 6.5 3.75 6.15 4.7 11.25l-.85.15Q27 65.8 23.3 59.55l-4-6m39.45 92.75q-1.75-4.75-7.4-16.2l2.35-1q11.05 22.25 11.45 38.2.5 18.7.75 21.4.9 9.95 4.6 19.35 3 7.65 2.35 7.85-.7.2-3.85-6.6-4.5-9.7-5.4-19.75l-.3-20.25q-.1-11.1-4.55-23m41 92.75l.35 2.45q-4.4-1.4-8.6-3.95-4.2-2.55-7.3-5.65-3.6-3.55-2.8-3.75.8-.25 4.45 2.9 3.2 2.8 6.3 4.6 3.15 1.8 7.6 3.4m56.15 2.25l-4.05 1.4-4.45 1.35q1.05-2.25 1.45-2.8 5-1.4 9.55-3.2 9-3.55 15.75-9.05 4-3.3 10.15-10.2l3.95-4.45q2.35-2.55 4.25-4.2 6.5-5.8 17.2-11.1l.85 1.6q-9.65 4.8-15.3 9.9-6.4 5.85-9.65 9.4-6.95 7.85-11.15 11.3-8.05 6.55-18.55 10.05"/><path fill="#0d131a" d="M16.55 95.35q.7-2.95 3.9-8.4l1.65 1.3q-3.4 5.75-4.05 7.9-.8 2.55-.15 6.5 1.65-2.5 1.75-1.85.1.6-1.25 3.3l-5.45 11.3Q8.05 125.45 6 128.25q-3.9 5.3-.3 13.8 1.25 3.1 3.35 4.4 1.75 1.05 4.7 1.15 2.2.05 1.4.55l-1.3.5.15.65q.3.5 1.3.6h5.05l3.05-.35q1.6-.4 2.85-1.65l2.2-2.25q9.15-9.4 12.25-11.6 3.5-2.5 7.85-4l9.35-2.95q1.95-.65 4.85-3.25l5.7-5.6q2.25-2.2 2.45-1.9.2.35-1.85 3.05-2.1 2.8-4.95 5.55-3.05 2.95-4.65 3.6l-9.6 2.95q-5.5 1.65-9.35 4.35-1.7 1.2-5.15 5.05l-5.65 6.25-2.25 2.25q-1.55 1.55-3 1.9l-3.3.25-5.85.15q-1.25-.1-2.35-1-.9-.75-1.45-1.75-5.35-.5-7.85-6.5-1.7-4-1.7-7.85 0-4.2 2.65-7.65 3.1-4.1 7.15-12.35l5.05-10.55q-1.05-5.3-.25-8.7m19.5-21.75q-.25-1.15-.1-1.55.2-.5 1.1-.5 1.95 0 7.55-2.8l2.2-.1q1.45.7 2.35 3.5l-.95.1q-.7-2.15-2.2-2.8l-1.05.1q-6.2 3-7.9 2.85-.45-.05-.25.7l.5 1.85q.25 1.85-.95 2.7l-2.65 1.7-.55-1.05 2.75-1.6q.65-.65.15-3.1"/><path fill="#0d131a" d="M286.45 23.15q-1.25-.2-1.7-1.2l-.25-1.15q0-1.45 1.25-3.95-1.7.5-2.4 1.25-1.3 1.4-1.3 5.25l.05 1.9q0 3.15-1.95 4.5-1.25.85-5.25 1.7l-2.9.65q-3.55.9-6.45-.55-3.05-1.55-3.45-4.75-.2-1.75-1.95-2.7-1.65-.9-4.05-.9-2.2 0-5.85 2.55l-1.7 1.25q-.8.5-1.25.3-.35-.1-.7-1.2-.7-3.15-3.05-4.35-1.4-.7-2.55-.3-1.2.35-1.9 1.75-1.8 3.4-6 7.2-2.95 2.6-2.3 6.05.35 2.1 2.9 6.5l2.25 3.95q1.1 2.2 1.2 3.9.2 3.25-1.75 4.05-1.5.55-3.95-.7-2.15-1.1-3.05-2.25-.95-1.25-.95-2.55 0-.65.3-1.6l.4-1.3q-1.8.25-3.3 1.3-2.3 1.6-3.1 4.65-.25 1.05-1.25 1.45l-1.85.35-1.35.2-1 .65q-.4.65-.4 1.75 0 1.95 1.05 5.3.5 1.6 1.5 3l1.75 2.15 1.7 2.05q.7 1.2.7 2.5 0 2.9-3.7 7.75-2.15 2.85-4.45 3-1.45.1-4.65-1.2-3.15-1.4-6.2-1.8-5.6-.85-7.85-6.45-1.35-3.55-.3-4.85.7-.85 1.7-.8l1.55.5 1.1.4q.45.05.9-.3l.85-1.7q.65-1.45 2-2-2.25-2.05-4.8-1.1l-2.45.8-4.3-.35q-4.7-1.25-5.95-5-.55-1.7-.9-9.1-.3-7.4 2.65-11.1 2.7-3.4 10.25-6l4.5-1.45q3.55-1.1 4.15-1.9.65-.85.85-4.8.1-3.15-1.2-3.7-1.05-.45-2.95.45-1.75.85-3.25 2.35-1.75 1.7-3.65.95-.8-.35-1.2-2-.35-1.4-.35-3.3 0-.95-.45-1.35-.4-.35-1.35-.35l-1.95.15q-2.45.35-3.75.05-1.45-.4-1.95-1.65l-.2-1.05q0-1.1.65-2.5-1.1.85-1.5 2.25-.25.8-.35 2.6l-.1 2.5q-.2 1.3-1.4 1.75-3.1 1.2-6.25-.45-2.15-1.1-4.85-3.95-2.6-2.75-4-3.3l-2.75-.05q-.9.25-2.9 1.4-2.25 1.25-3.45 1.7-2.25.9-4.55 1.05l-2.8-.2q-1.05-.45-.25-1.95l.65-1.75q0-.8-.75-1.55-1.65-1.65-2.1-2.95-.75-2.1 1-3.9-.95 0-2 .95l-1.9 2.1-1.85 2.1-2.05 1.4q-3.3 1.25-4.55-.25-1.15-1.3-.05-3.65.45-1 2.1-2.5L141 4.3l-4.15.45-5.05.45q-2.9.5-4.6 1.6-1.55 1.1-2.15 2.6-.5 1.25-.5 3.15l.1 3.65q0 2.8-.5 4.25-.85 2.6-3.15 3.05-1.65.3-2.65-.45-1.05-.75-1.05-2.2l.25-3.5q-.3-1.65-2-2.45l-2.75-.8q2.35 4.9-.05 10.7-.6 1.4-1.6 1.95l-1.8.45q-1.5.2-2.4.85-1.55 1.05-3.15 4-1.2 2.25-1.2 4.2 0 1.9 1.5 5.1l1.2 2.35q.7 1.45.7 2.45 0 2-1.2 3.7-1.35 2.05-3.4 3.2-1.85 1.05-3.7 1.05-3.6.1-6.05-3.3-1.2-1.55-1.2-3.2 0-.95.4-2.35l.8-2.5q1.05-2.7.6-4.25-.25-1-1.55-1.9L88 35.05l-3.35-1.9q-1.9-1.5-1.65-3.6.25-2.05 5-4.6 2.75-1.45 5.85-2.6 1.2-.45 2-1.3.75-.75.9-1.6.15-.95-.4-2.2-.55-1.2-1.4-1.9-2.5-2.05-3.35-4.25-.7-1.85-.45-4.3.35-3.3 4.15-5.4l-3.45.3q-1.3.5-2.5 2.35l-1.25 1.9Q87.1 7 85.25 7.4q-7.45 1.5-6.3 7.5.7 3.35-.4 5.7-1.05 2.3-3.65 3.25l-2.5.15q-1.05-.2-3.25-1.2-3.55-1.55-5.55-1.4-3.05.3-3.75 4.4l-.8 2.85q-.5.9-2.55 2-2.15 1.05-2.75 1.8-.95 1.2-.8 3.7v3.45q-.2 1.25-1 1.9-1.95 1.55-5.05.85-3.15-.65-3.15-2.9l.4-2.25.3-2-.1-.95q-.5-1.8-.5-3.4v-.5q-1.6.6-2.1 1.7-.25.5-.05 1.05l.5 1.1q.25.65 0 1.75-.25 1.15-.95 2.05l-2.55 3.45q-2.45 3.5.45 6.5 2.7 2.75 1.6 4.75T37 51.45l-1.4-1.7q-.8-.8-1.2-.6-1.3.75-1.15 4.65.1 3.75 1.35 6.2 1.3 2.7.4 4.3-.4.7-2.3 2-1.65 1.15-4.5 7.25l-1.3-1.4q2.75-5.1 4.95-6.85 1.75-1.25 2.1-2.1.5-1.15-.45-3-1.55-3.05-1.65-7.3-.1-4.45 1.6-5.45.8-.5 2.1.85l2.1 2.6q1.8 2.4 2.25 1.2.4-1.2-1.8-3.55-1.5-1.65-1.75-3Q36 43.5 37.9 40.9l2.6-3.2q1.5-1.9.5-3.3-2.15-3.5 3.45-5.6l.8-.1-.25.9q-.55 1.25.8 4.95.25.6-.15 1.3-.55 1-.65 1.55-.35 2.05 0 2.75.65 1.35 2.9 1.4 2.05.1 2.95-.65 1.7-1.35 1.2-4.7-.4-2.95.35-4.2.55-.9 3-2.1 2.05-1 2.6-2.2.45-.9.7-2.6.4-2.1 1.15-3.2 1.1-1.55 3.2-1.75 2.9-.35 6.45 1.35l2.65.9 2.45-.2q2.25-.8 2.95-2.4.9-1.85.1-5.7-.8-4 2.2-6.2 1.5-1.1 4.6-1.9 1.25-.3 2.2-1.35l1.3-1.9q1.5-2.3 3.1-2.65l5.05.35 1.5.4-1.5 1.05q-1.55 1-2.4 2.05-1.15 1.5-1.35 3.6-.25 2.3.35 3.7.65 1.65 2.8 3.4 1.25 1.05 2.1 2.5.85 1.6.65 2.8-.15.95-1.15 1.9-1.15 1.1-2.9 1.75-9.95 3.6-10 6-.05 1.1.65 1.9.9 1.05 3.55 2.5.6.35 3 1.35 2.2 1.15 2.5 2.5.2.9-.2 2.3l-1.4 3.75q-1.6 4.05.05 6.25 1.85 2.65 5.4 2.55 3.35 0 5.7-3.35 1.35-1.95 1-4.1-.2-1.2-1.4-3.8-1.65-3.45-1.8-4.15-.6-2.65.95-5.45 1.75-3.15 3.95-4.5 1.3-.75 3.1-1l1.3-.35q.65-.4 1.1-1.6 1.4-3.3.85-6.7-.35-2.45-1.45-4.2-.75-1.2-.2-1.15l2.05.7 3.7 1.3q2.25.9 2.45 2.1.15.85-.4 3.05-.45 1.95-.1 2.5.6.9 2.15.5 1.85-.5 2.6-2.75.4-1.1.3-2.5l-.25-2.55v-4.45q.35-2.5 2.3-4.15 1.9-1.6 7.35-2.3l7.6-.8 2.05.05q.1.4-1.25 2l-1.5 1.7-1.15 1.55q-1.35 2.45.1 3.1l2.65-.05q.8-.3 1.85-1.6l1.65-2.2q1.3-1.55 2.25-2.1 1.2-.7 3.05-.65 1.15.05 1.15.3l-.8.75q-1.05.85-1.05 2.9 0 .6.55 1.25l1.5 1.6q1 1 1 2.15l-.45 1.35-.65 1.1q-.15.3.3.55l1.95.25q2.15-.15 4.3-1.1l3.35-1.8 3.3-2.1q1.9-1.05 3.3-.45.95.35 2.15 1.75l2.05 2.4 4.15 4q2.55 1.8 5.05.8 1.95-.7 1.8-3.3-.15-2.4.5-3.85.5-1.15 1.65-2.1 1.55-1.3 1.75-1.05.2.2-.5 2.65-.6 2.2-.35 2.8.35.85 1.9.75l3.55-.5 2.25-.35q1.25-.1 1.8.4l.4 1.05v4.4q.05 1.6.55 1.9l1.6.1q.8-.3 1.45-1 1.8-1.8 3.75-2.85 2.4-1.25 3.75-.65 2 .95 1.6 4.65-.45 4.95-1 6-.9 1.7-4.55 2.8l-4.9 1.2q-7.1 2.45-9.85 6-2.85 3.65-2.55 10.05.3 6.25.85 8 1.2 3.9 5.3 5l4 .35q1.05-.2 2.35-.95l2.6-.2 2.25 1.2q1.55 1.05 1.6 1.4l-1.1 1.1q-.85.6-1.55 1.8l-.95 1.65q-.5.8-1.3.7l-1.35-.5-1.25-.35q-.6 0-1 .55-.85 1.1.05 3.45.65 1.7 2 3.05 2.2 2.25 5.6 2.8 3.8.65 5.9 1.5 3 1.25 4.25 1.15 1.85-.15 3.75-2.7 2.65-3.5 3.1-5.95.4-2.65-1.55-4.8l-2.1-2.25q-1.25-1.55-1.75-3.2-1.1-3.5-1.35-5-.3-2.1.3-2.95.45-.7 1.8-.9l2.1-.2q2.05-.15 2.35-1.7 1.1-5.2 6.25-6.75 1.95-.55 2.25 0 .2.45-.45 2.6-.8 2.75.1 3.85.7.95 2.4 1.75 1.95.9 3.1.45 1.55-.5 1.45-2.7-.1-1.45-2-4.5l-2.95-4.6q-2.25-3.8-2.15-6.3.1-3.15 3.55-6.2 4.25-3.85 5.85-7.05 2.1-4.05 5.9-2.1.85.4 1.75 1.95 1 1.7 1.45 3.85l.15.3 1.1-.55 1.45-1.05q1.9-1.35 2.95-1.9 2-1 3.55-1 5.3 0 6.5 4.9 1.6 5.8 8.65 4.05l2.95-.65q4.4-.95 5.1-1.4 1.6-1 1.35-4.2-.3-4.3.6-6.3.85-1.8 3.1-2.4 2.4-.6 2.8-.45.45.2-.55 1.95-1.8 3.15-1.2 4.3.25.55 1.05.7 3.7.8 4.4 2.75.4 1.2-1.7 3.75-.8 1-.15 1.65.55.6 2.25.2 1.8-.35 3.25-1.45 5.75-4.3 12.35-.65 2.35 1.25 2.5 1.85.25.7-2.35.7-3.35 0-4.8.6-1.3.5-1.7 1.65-.35 1.1-.15 2l.8 2 .85 2.05q.15.8-.75.95l-4.75-.5-3.7-.5q-2.05.1-4.1 1.75-2.15 1.75-4.25 1.75-1.45-.05-4.15-1.1-3.9-1.6-4.7-1.75-2.8-.45-4.75-.05-3.1.65-5.7 3.55l-2.5 3.5q-2.45 3.15-4.05 3.7-2.3.75-5.85-1.85-2.55-1.9-5.1-.45-1.3.75-2.15 2.2-.8 1.45-.65 2.75.25 1.6 1.8 2.05l2.45-.1 2.05-1.35q1.6-1.2 3-1.65l4.6-.3q2.9.55 2.65 1.2-.15.45-2.2 1.15-1.55.55-3.05 1.85-1.35 1.15-2.3 2.6-.35.55-.35 3 .05 2.25-.35 2.6l-2.25-.1-3.8-.7q-1.85-.05-3.15.55-1.15.55-1.5 1.45-.4 1 1.9 2.35 4.05 2.35 4.15 4.55.05 1.3-3 3.2-2.15 1.4-1.75 2.45.3.8 1.95 1.2 1.65.4 3.55.05l1.9-.8 1.7-1q2.75-1.35 5.2-.65 2.65.8 2.7 1.2.05.4-2.65 1-1.85.4-2.95 1.55-1.2 1.35-.9 3.15.65 4.05-1.2 4.85l-2.6.2-2.2-.75q-1.25-.5-2.1-.35-1.1.2-2.55 1.35l-3.65 3.6q-3.65 4.15-6.1 5.1-2.75 1.05-4.6-1.65l-1.25-1.05q-.95-.25-2.9.55l-4.45 2.45q-4.75 2.35-7.4 2.55-4 .35-6.95-3.1-4.95-5.7-7.6-5.95-1.1-.1-4.6 4.1-3.7 4.4-7.2 4.65-2.6.2-6.65-1.05-4.7-1.5-6.1-3.8-1.05-1.7.7-6.1 1.5-3.7 1.2-7.25-.25-3.5-2.15-5.85-2.55-3.2-7.5-2.45-6.4 1.15-5.75 9.15l.2 1.8q.1 1.05-.25 1.4-.55.6-1.95.65l-2.45-.1-1.7-.3-1.3.15q-.3.3-.3.9 0 2.8-1.35 3.85-1.35 1.1-1.3 2.5 0 .95 1.1 4.15 1 2.95.45 3.1-.45.15-2.6-2.1-1.55-1.6-2.65-2.2-1.15-.6-2.5-.45-3.7.35-5.05-1.6-1.5-2.2 1.05-6.4 3.3-5.7 1.95-7.15-.7-.7-2.3-.45-2.4.35-6.4 2.65-1.65.9-2.05 2.55l-.1 3.15q.1 5.9-3.6 9.15-3.25 2.8-9.15 3.3l-5.2-.2q-2.15-.35-2.95-1.15l-.8-1.95q.95.95 3.55 1.65l4.6.55q12.55-1.05 12.35-11.85-.05-2.2.35-3.35.6-1.85 2.6-2.95 7.65-4.35 9.9-2 1.2 1.2.45 4.05-.55 2.2-1.8 4.2-1.9 3.2-.95 4.95t4.35 1.4q1.65-.15 3.3 1.25l2.6 2.9-1.05-3.25-.85-2.65q0-.95.5-1.65l1.05-1.05 1.15-1.1q.5-.75.5-1.85 0-1.3.45-1.7.5-.5 1.55-.5l2 .1h1.9q.95-.05 1.4-.5.55-.6.45-1.85-.4-4.7 1.8-7.55 1.85-2.4 4.8-2.9 3.05-.5 5.6.55 2.05.8 3.3 2.3 1.95 2.45 2 6.4.05 3.8-1.6 7.85-1.3 3.2-.4 4.75 1.3 2.1 4.65 3.3 2.95 1 6.5 1.05 3.95.05 7.2-4.35 3.25-4.4 4.95-4.3 1.5.05 3.5 1.75 1.7 1.45 4.85 5.1 2.55 3 6.8 2.2 1.95-.35 6.85-2.6l3.8-1.9q2.25-.9 3.7-.5 1 .35 1.85 1.45 1.1 1.6 3.6.6 2.6-1.05 5.7-4.55 1.9-2.25 3.7-3.7 1.65-1.3 3.25-1.3.9 0 2.5.6l1.75.5 2-.3q.8-.35.75-1.7l-.2-2.35q0-2.6 1.7-3.9 1.35-1.1 4.05-1.4-1.7-.65-3.2-.4-1 .2-2.65 1.05-2.1 1.1-3.45 1.4-2.15.4-4.25.05-2.3-.45-2.8-1.65-.25-.65.35-1.55.7-1.1 2.3-2.1 2.1-1.4 2.1-2.6-.05-1.5-3.7-3.6-3.15-1.8-2.45-3.45.7-1.6 3.45-2.35 3-.8 6.25.1 1.15.35 1.45 0 .35-.35.2-2.35-.15-2 .6-2.95 2.65-3.55 6.35-4.45-2.75-.65-4.8-.05-1.25.35-2.95 1.6-1.4 1.05-2.2 1.35l-3-.05q-2.1-.6-2.35-2.75-.2-1.7.45-3.3.75-1.75 2.2-2.6 1.45-.8 3.3-.65 1.85.15 3.3 1.25 3.1 2.2 5.05 1.45 1.25-.55 3.7-3.65l2.5-3.05q4.9-5.35 10.4-4.6 1.4.2 2.8.75l2.2.95q2.9 1.15 4.35 1.3 2.3.25 4.15-1.3 2.2-1.8 4.75-1.95 1.45-.1 4.2.55l2.15.2q1.3-.1.9-1.05L300.2 36q-.45-1.1-.45-2l.2-1.4q.65-1.85 2.4-2.4l3.55-.35 2.1-.1q-3.25-1.95-7.35-1.35-3.35.45-5.7 2.2-1.6 1.2-3.75 1.25-2.05.1-2.9-.85-.55-.55-.3-1.25.15-.55 1.05-1.6.8-.95.8-1.95l-.1-.75q-.65-1.75-3.3-2.3"/><path fill="#0d131a" d="M.7 45.6q1.7-.8 5.7 3.2l28.55 30.8q1.4 2.1.25 4.5l-.75.95q-.2-.15.15-1.4.25-1.05.1-1.8-.15-.7-.8-1.5L5.3 49.75q-2.8-2.9-3.6-2.7-.75.15.35 2.8 1.1 2.7 19.6 36.7 1 1.85 1.7 2.55.9.85 2.2.85l3.25-.7q1.8-.7 3.15-1.75 2-1.55 1.4-.4-.65 1.1-2.95 2.45-2.95 1.8-5.55 1.8-2.05 0-3.05-.95-.95-.9-10.2-18.6Q2.8 54.95 1.1 51.15-1 46.35.7 45.6m14.9 96.55q-.85-2.2.15-4.1.6-1.2 1.65-1.9 1.6-1.2.75.05l-1.4 2q-.75 1.5-.4 3.25.2.85-.15 1.2-.3.3-.6-.5"/><path fill="#0d131a" d="M14.4 147.5q4.4 0 5.8-1l2.05-1.85 1.55-2.8q2.8-5.2 5.85-7.2 1.8-1.2 1.95-.8.15.35-1.2 1.45-1.25 1.05-2.95 3.3-1.6 2.15-2.8 4.35l-1.45 2.8-1.1 1.55q-1.2 1.3-5.3 1.75l-5.3-.3-2.4-1.9 5.3.65m30.45-51.4q1.95-.6 4.9.4 1.6.55 1.7.8l-1.7.05q-2.5-.35-4.05 0-2.3.55-4.4 3.7-1.95 2.85-3.1 6.85-.4 1.3-.25 1.55.15.25.95-.3 4.3-3.1 10.05-5.6 2.5-1.1 2.75-.8.25.3-2.45 1.6-5.2 2.55-10 5.75-2.95 2.05-2.45-.95 1-5.05 3.1-8.55 2.2-3.7 4.95-4.5M34.6 106.7q-.15-2.65.5-4.9.2-.7.75-.75.5-.1.15 1.2l-.85 4.3q-.2 1.15-.4 1.05-.15-.05-.15-.9"/><path fill="#0d131a" d="M46.7 100.35q1.5 1.8 1.1 3.95l-.85.45q.3-1.75-.9-3.4-1.25-1.8-3.55-2.35l.55-.65q2.2.35 3.65 2m192.55 4.8l-.4-.1-1.85.1q-1.15.8-1.35 4-.15 1.8-.55 2.25l-1.95.15q-1.2-.35-2.2-1.6l-1.6-2.4q-1.25-2.25-2.2-3-1.55-1.15-4.05-.6-3.2.75-6.65 3.1l-2.9 1.7q-1.55.4-3.25-1l-1.1-1.25-.7-1q-.5-.65-.95-.75l-2.6.3-2.05.2q-.85-.05-1.15-.6-.3-.65-.1-1.8.3-1.4 1.3-2.85-4.25.6-6.35 5.25-.8 1.9-1.5 2.2l-1.1-.2-1.6-.7-2.8.1q-1.75.6-2.9 2.2l-1.45 2.3q-.75 1.05-1.25 1.1-.55.1-.95-.75-.35-.7-1.25-1.1l-1.9-.55q-2.3-.5-3.2-1.2-.6-.55-.7-1.15v-.15q0-.75 1.25-2.3 1.45-1.8-.6-.65-2 1.15-3.55 3.55-1.9 3-4.3 4.8l-1.5 1.1q-.75.45-1.25.35-.5-.1-.95-.75l-.6-1.1-.9-.95q-.5-.1-1.3.5-1.9 1.3-2.8.6-1.1-.9-1.1-3.6 0-.8.15-1.5-1.2.9-1.95 2.6-.5 1.1-1.05 3.3l-.85 3.4q-.6 1.75-1.8 2.65l-1.65.8-1.4.15q-.8-.25-1.45-1.85-.6-1.4-1.2-1.3l-2.75.05q-.8-.25-1.25-1.15-.3-.7-.35-1.55l-.1-.8q-.7.4-1.15 1.15-.45.7-.45 1.25 0 .6.55 1.7.9 1.8.9 2.95l-.35 1.85q-.95 2.8-3.4 3.65l-5.05-.2q-6.05-2.1-5.95-4.4.1-1.35-.4-2.3l-1.3-1.55q-2.1-1.9-2.05-3.1 0-1.5 3-3.1l1.8-1.2q.7-.85.7-2.25 0-3.25.75-4.65.8-1.4 3.2-2.25-4.1-.45-7.3.55-1.9.6-4.6 2.3l-3.2 1.75q-1.7.5-3.5-.55-1.4-.85-2.8-2.7l-1.9-2.85q-1.4-2.25-3.75-2.25-2.55 0-3.05-.55-.4-.45-.35-1.45 0-.9.35-2.85.4-1.7-.15-2.1-.55-.45-3.75.95-3.35 1.4-4.2.05-.9-1.5 1.9-5.55.9-1.25.9-2.4l-.05-.55q-.3-1.35-2.1-2.65l.3 1.7q0 1.05-.45 1.8-.55 1.05-2.1 1.65l-2.65.75-2.15.4q-.9.25-1.05 1.15-.1.9.8 2.7l1.75 3.05q1.3 2.2.45 3.8-.95 1.65-3.65 1.3 2.4 3.7 2.85 4.9.75 2 .3 7.2-.55 5.9-.35 7.4.2 1.45 1.25 1.6.8.15 1.6-.4 1.65-1.15 2.7-1.35.9-.2 1.45.25.5.5.5 1.5l-.25 2.1-.2 2.35.1 1.05.5 1.05.75.45 1.25.45q.75.55.7 2.2l-.25 3.4q0 1.65 1.25 2.9.8-4.55 2.35-4.85 1.2-.25 1.95 1.7.45 1.05 1.05 1.6l1.7.95q1.25.65 1.7 1.2.45.5.45 1.15l-.6 2.1q-.65 2.05-.7 3.2-.15 1.9 2.4 5.3 1.9 2.6 4.85 5.4l-.45-3.05.05-1.55q.05-1.7 1.25-2.15 1.35-.45 4.15 3 1.4 1.8 2.2 1.75.7-.05.7-1.7 0-1.6 1.1-1.9.9-.25 2.1.6 1.3.95 2.35 2.8 1.4 2.45 6.5 4.45 5.3 2.05 8.9 1.15-1.65-.3-2.25-1.4-.35-.75-.25-1.3.3-1.05 2-1.75 1.6-.65 3.45-.6-1.35-1.8.1-3.65 1.8-2.4 7.6-3.4l6.35-1.25q3.25-.85 3.6-2.3l.1-.45q0-1.25-1.35-2.35l-.9-1.05q-.25-.65.45-1.4.75-.85 2.5-1.05 1.75-.2 3.4.4l3 .25q1.3-.25 2.05-.8.15-.15-.1-.65l-.3-.8.15-.9q.8-2.45 5.95-4.05 4.7-1.35 7.65-.6 2.2.6 4.35 2.75.45-.9.9-4.65.15-1.2 1.3-2.3 1.15-1.05 2.9-1.7 2.65-1 5.85-.85 3.1.2 5.05 1.35 2.75 1.7 8.1.8 4.25-.65 7.95-2.4 1.9-.9 3.75 1.8l1.95 3.05q.8-2.25 2.3-2.55 1.95-.35 3.85 3.45.9 1.8 2.5 3.45 2 2.1 4.25 2.9-.35-2.15 2.15-6.8 2.05-3.7 2.05-5.1 0-.8-.45-1.4-2.65-3-2.65-4.8 0-2.45 2.75-4.95 1.65-1.4 5.8-2.55 2.55-.65 3.95-1.35 2.2-1.1 4.05-3.35-10.1 3.1-11.15.5l-.15-.6q0-1.35 1.5-2.65-2.1-.55-3.6.45-1.2.85-2.4 3.2-1.15 2.3-2.5 2.5-.9.15-3.7-.85M202.6 98.8q1.55-.15 1.7 0l-.75 1.75-.8 1.8q-.3 1.05-.1 1.5l2.6.15 2.85-.15q.35.1 1.1 1.15l1.55 1.65q2.05 1.75 5.2-.35l3.1-2.05q2.3-1.45 4.4-1.9 2.8-.65 4.45 1.15l2.2 3.6 1.3 1.95 1.6 1.15 1.15-.1.25-1.75q.4-2.85 2.1-4.05l2.65-.1.35.15q2.5.9 3.3.65.8-.25 1.8-2.2 1.35-2.7 2.45-3.55 1.85-1.4 5-.35 1.05.35 1.1.65.1.3-.85.8-2.05 1.05-1.45 2.4.4.85 3.9.3 3.05-.45 6.1-1.5 1.95-.65 2.15-.3.2.25-.85 1.7-2.05 2.75-3.9 3.85-1.15.7-3.75 1.4l-3.05.75q-1.9.55-2.8 1.35-2.7 2.4-2.55 4.75.1 1.85 2.2 4.3 1.1 1.3.45 3.15l-2.2 4q-1.1 1.75-1.35 4.25-.2 2.3.45 3.75l-1.55-.5q-2.8-.75-5-2.65-1.85-1.65-2.85-3.6-1.55-3.15-3.1-3.35-1.5-.15-1.5 2.5 0 .65-.5.7-.45 0-1.15-.6l-2.15-3.4q-1.25-1.85-3.6-1.05-4.6 1.6-7.45 2.05-4.9.75-7.8-.95-2.25-1.3-5.15-1.5-2.95-.2-5.5.8-1.65.6-2.25 1.1-.8.65-1.2 1.85l-.2 1.65-.15 1.75q-.6 2.95-1.2 2.95l-2.4-2.05q-1.2-1.05-3.5-1.35-2.9-.35-6.5.7-4.45 1.35-5.15 3.15-.4 1.05.55 1.6.85.5.7.75-.45.7-2.6 1.25l-4.55-.15-3.7-.1q-1.95.55-1.05 1.35 1 .8 1.65 1.8.9 1.35.6 2.4-.5 1.95-4.45 2.9l-3.65.7-3.1.5q-3.4.65-5.4 2.05-2.3 1.6-1.65 3.5.4 1.2.25 1.35l-1.95.25q-1.35.1-2.3.55-1 .5-1.15 1.1-.15.6.55 1.2.8.7 2.25.85 1.65.15 1.9.5.25.4-1.1.75-5.75 1.6-11.8-1-4.85-2.05-6.45-4.6-1.15-1.85-2.15-2.75-.95-.85-1.4-.5-.25.2-.25 1.95-.05 1.7-1.15 2.3-.6.35-1.7-.75l-1.85-2.15q-1.25-1.6-2.25-1.9-1.1-.35-1.3 1.2-.15 1.45.25 3.85.1 2.25-.5 2.2-.55-.1-2.55-2.4l-4.55-4.8q-2.4-2.8-2.2-5.15.1-.9.65-2.4l.7-1.95.2-1.85q-.15-.55-1.3-1.2l-2.25-1.3q-.6-.55-.8-1.65-.3-1.4-1.1-.4-.85 1.15-1.1 4.7-.05 1.2-.45 1.2l-1.1-1.05q-1.65-1.95-1.95-3.85-.15-.8-.05-2.95l-.05-1.9-.35-.75-.65-.35-1.1-.35q-.75-.35-1-1.3-.15-.65.05-2l.35-2.2q.45-3.55-2.85-1.35-1.9 1.25-3.15.7-1.5-.8-1.75-2.9-.2-1.55-.05-4.1l.25-4.25q.2-4.05-.7-6.75-.7-2.15-3-5.55l-.05-.05q-6.3-9.2-10.8-14.35-1.1-2.75-1.1-3.65 4.85 4.85 13.55 17.85 1.7.45 2.6-.65.95-1.2-.1-2.95l-2.3-3.9q-1-1.8-.75-2.7.25-.85 1.65-1.45l2.85-.6 2.55-.45q1.35-.35 1.8-1.15.25-.4.1-1.4l-.35-1.65q-.5-2.25-.1-2.35.4-.05 2.55 1.8 2.05 1.75 2.25 2.85.15 1.3-1.55 3.75-2.05 2.9-1.4 4.1l2.65.1 2.9-1.5q1.55-.75 2.15-.25.8.6.15 3.85l-.35 2.1q-.1 1.05.15 1.35l3.6-.15q1.3-.1 2.1.75l1.45 2.25 1.6 2.7q1.1 1.7 2.35 2.45 1.45.85 2.7.3l3.4-2.15q5-3.15 11.9-2.35 2.8.3 2.65.7-.1.3-2.8 1.8-1.5.85-2.05 2.05-.7 1.4-.4 3.85.25 2.15-.85 2.9-1.55.6-2.35 1-2.15 1.15-2.35 2.2-.15 1.05 1.55 2.6l1.8 1.3q.8.75.65 2.15-.3 2.45 4.2 4 2.7.9 4.8.5 2.45-.5 3.25-2.75.4-1.2-.2-2.75l-1.15-2.15q-.6-1.2.05-2.6.7-1.45 2.55-2.6.9-.55 1-.3l.2 2.05q.15 1.15.95 1.8.85.75 2.2.5 1.35-.2 2.15 1.8.85 2 2.65.65 1.1-.8 1.8-2.4l1.05-3.3.95-3.4q.7-1.95 1.8-3.05 1.5-1.55 1.8-1.45.35.1.05 2.55-.25 2.3.5 3.35.8 1.05 2 .15 1.45-1.05 2.1-.85l1.35 1.55q1 1.7 3 .15 1.15-.85 2.35-2.55l1.8-2.7q1.5-2.05 2.7-2.9 1.55-1.1 3.6-1l.7.35q.35.65-1.5 2.35-1.05 1.05-1.05 1.75v.05l.4.55q.7.55 3.25.8 2 .15 3.15 1.45.7.8.9.45l1.5-2.85q1.3-1.95 3.2-2.6l3.25.15 1.85 1.1.45.15 1-1.7q2.55-5.65 6.8-6.1"/><path fill="#0d131a" d="M75.5 85.35q.45 3.75 0 4.1-.45.4-1.15-3.4-2.55-13.9-5.55-26.45-3.6-15.3-5-15.55-1.35-.3-5.05 8.35Q55.4 60.15 51 73.15q-1.05 3.05-1.75 3.05-.65-.05.3-3.2 3.8-12.05 7.5-20.65 4.7-10.9 7.05-10.75 2.25.15 6.45 17.75 3.7 15.5 4.95 26"/><path fill="#0d131a" d="M64.85 64.95q-1.4-8.95-2.7-13.05-1.15 1.7-3.45 8.3-2.15 6.3-4.3 14 2.5-.05 4.65.9 3.25 1.5 7.3 5.55-.05-6.05-1.5-15.7m-2-14.55q2.3 6.75 3.75 17.4 1.35 9.8 1 14.35-.2 2.45-.7 1.5l-.4-1.45q-6.8-6.75-12.35-7.15-.5 1.25-.9 1.25t0-1.85q.9-4 3.2-11.05 3.15-9.75 5.35-12.9-.25-1.35.1-1.6.35-.35.95 1.5m30.9 175.05q-.65-3.5-.05-5.35.6-1.85 1.35 2.45 2.1 12.35 12.2 30.3L112 261q5.35 9.1 6.8 12.6 2.15 5.2 1.35 9.1-.4 1.75.35 4l2 4.4q2.3 4.55 3.05 7.25 1.35 4.65.4 9.3-1.65 8.55-4.4 16.2-2.05 5.75-3.85 8.8-.65 1.15-.95 3.1-.35 2.25.25 3.9t.8 4.05l.4 4.2-1.7 1.15q-.2-5.7-1.45-8.85-.55-1.3-.15-4.25.4-3 1.3-4.3 1.85-2.75 4.15-9.2 2.65-7.45 4.25-15.6.85-4.15-.95-8.75l-3.5-7q-1.65-3.25-2.05-4.5-.75-2.3-.3-4.45.8-3.6-1.2-8.45-1.65-4.1-7.05-13l-4.75-8.2q-9.2-16.85-11.05-27.05m51.65 20q3.9-13.15 9.35-20.65 1.75-2.45 2.4-2.2.65.25-1.4 3.55-4.25 6.95-8.05 18.85-4.1 12.8-4.3 21.55-.1 3.5.7 7.4l1.45 6 1.25 4.8q.6 2.55.3 4.85-.3 2.55-3.6 13.3l-3.9 12.9q-3.15 12.25-1.2 24.2.4 2.35-1.45 8.05-1.7 5.4-3.05 7.05l-.75-1.75q1.6-3.4 2.6-7.45 1.05-4.15.7-6.4-.5-3.65-.35-9.9.2-8.55 1.75-14.45l3.4-12.35q2.8-10.1 3.1-12.55.25-2.3-.05-4.95l-1-5-1.2-6.15q-.55-3.85-.45-7.65.25-9.15 3.75-21.05"/><path fill="#0d131a" d="M159.05 302.9q.25-1.65 1.35-3 1.35-1.75 4.6-4.1 2.45-1.85 3.4-4.05.7-1.65 1.2-1.55.5.15.9 2.25.3 1.65-.65 3.65-.65 1.35.45 1.7l3.75 1q2 .8 1.55 2.65-.5 1.9 1 1.9 1.55-.05 2.65-2.6 1.6-3.75 3.85-4.95 2.7-1.45 9.45-1.5l1.2.1-.7.65-4.2 2.55q-2.6 1.75-2.25 2.9.5 1.85 1.45 3l3.1 3.65q1.45 2.1-.15 3.6-4.75 4.6-5.8 5.9-1.8 2.25-.85 3.45 3.75 4.8 3.5 7.6-.2 2.3-2.95 2.95-1.25.3-3.55.05l-3.35-.25q-2.65.1-3.6.55-1.05.5-1.05 1.75 0 1.65 1.85 2.7 1.65.9 3.35.8 6.6-.25.8 3.05l-3.45 1.35q-1.05.55-4.8 3.55-1.15.95-2.8.6l-3.1-.95-2.65-.7-2 .15q-.6.5-.45 1.8l.4 2.15q.65 3.5-1.4 3.7-2.05.2-4.45-2.8l-1.8-2.6q-1.1-1.25-2.35-.7-.85.35-1.8 1.9l-1.55 2.4q-1.95 2.3-3.3 2.1-1.25-.15-2.75-2.6-3.1-6.35-4.1-7.3l-.1-1.9.1.05 1.55 1.5 1.8 2.5 1.95 3.9q1 1.5 1.7 1.55.5.05 1.1-.45l1.4-1.3 1.8-1.85q1.15-1.15 2.15-1.55 1.7-.75 3.1.35l2.05 2.45q1.6 2 2.8 2.2 1.25.25.85-1.85l-.65-2.25q-.3-1.35.5-2.05 1.45-1.3 6.05-.25l3.2.45q1.65.05 2.7-.8 1.6-1.35 4.5-2.7l3.5-1.9q-3.7.25-5.45-1.3l-1.35-1.7q-.65-1.15-.65-2.25 0-1.8 1.7-2.4l4.05-.35 6.65-.55q2.15-.55 2.3-2.3.25-2.2-2.8-6-1.9-2.35 1.85-6.6 4.35-4.9 4.35-5.65 0-.85-2.7-4.1-2.5-3-1.75-4.7.8-1.9 3.35-3.2l2.75-1.15q-8.7.4-11.2 6.35-1.55 3.65-3.95 3.6-2.4 0-1.95-3.2.15-1.2-1.45-2.1l-2.8-1.25q-1.45-.45-1.45-1.8l.4-1.35.25-2.1q-1.5 2-3.4 3.35-2 1.45-3.45 3.25-1 1.25-1.4 3.1-.25 1.2-.35 3.5-.15 2.75-.55 3.9-.7 1.85-2.55 2.4l-1.5.4q-.55 0-.9-.4-.5-.6 0-2.4l.35-1.55q0-.5-.4-.75-1.6-.9-2.45-2-1.25-1.75-.2-3.55-2.35.6-4.1 2.75-1.85 2.25-2.05 5-.15 2.2-.8 2.7l-2.6.25-2.95-.7q-.55-.1-.35-1.1.2-1 .75-.85l2.35 1.05q1.4.65 1.9.3l.25-.95.05-1.1q.25-3.2 2.1-5.55 2.25-3 6.3-3.65 1.35-.25 1.55 0 .25.25-.75 1.1-1.6 1.45-.75 2.7.5.7 2.7 1.95.75.45.55 1.95l-.6 2.25q-.15.45.2.7l1.25.05q1.4-.4 1.55-1.95l-.05-3.45.15-3.15m-51 64.2q-1.15-.45-1.6-1.45-.35-.85-.3-2.35.1-4.1 4.2-9.7 3.6-4.95 6.75-6.75 3.1-1.8 6.9-.25 3.8 1.6 9.9 7.2l.4 3.2.5 5.25q.15 2.05-.25 2.9l-1.6 1.4q-5.15 2.65-13.5 2.45-6.95-.2-11.4-1.9m9.9-18.4q-2.15.55-6 5.5-4.1 5.35-4.2 8.95v.1q0 1.95 1.8 2.5 4.9 1.55 12.1 1.35 7.5-.3 10.45-2.45 1.25-.9 1.05-3.05-.3-6.3-.7-7.6-5.15-4.3-8.2-5.55-3.45-1.4-6.3.25m130.8-208.55l-2.25-2.7-3.35-3.95 1.65-.9q.3.8 1.7 2.4l4.15 4.95q6.45 7.85 9.2 25.2 1.85 11.7 1.85 26.95l.1 7.25q.25 5.15 3.3 10.35 1.95 3.45 6.1 8.15l2.55 2.7 2.1 2.55q1.75 2.65 1 7.05l-2.3 8.35q-1.25 4.45-1.8 9l-1.9 1.8.15-1.75q.3-3.05 2.15-9.55 1.55-5.35 1.85-7.7.45-4-1.05-6.25-1.05-1.65-4.05-5.1-4.65-5.35-6.6-8.5-3.35-5.5-3.65-11l-.1-7.35q.05-18.6-2.2-30.45-2.55-13.6-8.6-21.5m-52.5 35.75q-2.75-3.2-6-6.05-2.4-2.15-2-2.65.35-.5 3.5 1.85 3.35 2.55 5.7 5.4 2.15 2.6 4.8 8l4.15 9.4q5.7 13.2 22.9 23.95 7 4.4 13.35 10.4 4.25 4.05 9.2 9.95 3.25 3.85 4.9 14.7.85 5.65 1.45 15.9.75 12.8-4.25 19.5-1.55 2.05-1.15 6.15.15 1.6 1.25 6.6.25 1.75 2.85 3.1.8.45 5.2 2.1 4.55 1.75 5.8 1.35 1.55-.5 3.25-4.85 2.25-5.65 2.4-8.55.1-1.85-.85-4.35l-.8-2.3q-.25-.9-.1-1.8l.4-.8.45-.5q.4 1.25 2.35 5.5 1 2.7.85 4.55-.3 2.85-2.95 8.9-2.15 4.95-3.75 5.6-1.4.55-6.45-1.15-6.2-2.05-8.4-3.4-2.4-1.4-2.55-3.25-2.4-10.35 0-13.6 2.45-3.3 3.7-7.9 1.35-5 1-10.9-.65-11.5-1.25-15.9-1.4-9.7-4.55-13.05-2.4-3.15-6.65-7.4-8.5-8.5-17.85-13.95-9.7-5.65-15.15-12.3-3.95-4.75-6.9-11.9-5.8-13.9-7.85-16.35"/><path fill="#0d131a" d="M337.1 207.1l.9-1.35q.55-.3 1.25 1.7.45 1.2.15 2.6-.4 1.95-2.2 3.35-.9.7-1.1 1.3-.2.45 0 1.25l.5 2.15q0 1.5-1.4 2.7-2.8 2.2-4.5 3.65-3.15 2.7-2.95 3.85.15.5.65.6 3.2.7 6.2-1.8 3.6-3.05 3.95-3.15 1.55-.35 1.75.25.15.6-.9 1.9-.6.7-.7 2.9-.15 2.1-1.35 3.6l-3.05 2.95-2.55 2.7-1 1.15q-.3.4-.3 1.1 0 1.15.55 3.85.35 2.55-.65 4.2-1.05 1.7-2.5 2.25l-1.95.3-.7.15-.6.9q-.15.4-.15 1.8v1.9q-.4 2.3-1.05 3.15-1 1.2-3.3 1.05l-8.85.65q-4.25.95-3 2.35.85.95 2.1.7l2.05-.8q1.7-.8 2.2-.2.35.35.5 2.45.05.7 1.9 2.2 1.65 1.3 1.3 1.7l-3.6.2-3.35-.15q-1.9.25-2.8 1.75-.75 1.3-.5 2l1.1 1.45q.7.95.6 1.9-.15 1-1.1 1.35-1.4.6-3.85-.05l-4.1-1.35-4.15-1.3q-2.3-.45-3.8.4l-2.65 1.35q-2.65 1.4-2.6 1.6v.4q.35.45 1.9.8 5.9 1.45 7.4 2.05 2.95 1.25 2.35 1.9l-3.7.4q-3-.15-5.75 1.7-2.8 1.9-3.8 2-1.45.1-3.85-2.1-3.75-3.4-5.05-3.8-2.1-.65-4.5 2.05l-1.55 1.55q-.25-.05.65-1.65 2.1-3.7 4.35-3.55 2 .2 6.1 3.95 2.1 1.9 3.5 1.85 1.25-.05 3.8-1.9 2.3-1.7 6.65-1.35-3.55-1.5-6.8-2.25-3.1-.7-3.25-1.75v-.1q0-.6 3.4-2.6l3.35-1.9q1.7-.95 4-.5l4.3 1.4 3.75 1.05 3-.2q.85-.5.1-1.35-1-1.2-1-1.7 0-.9.7-2 1.1-1.85 3.1-2.35l3.45-.1h1.8q-.9-.35-1.3-1.25-.25-.55-.35-1.65l-.35-1.2-1.3.05q-1.5.65-2.35.7-1.5.05-2.65-1.25-.55-.6-.65-1.3-.1-.6.1-1 .7-1.6 4.65-2.35l7-.4q2.5.15 3.45-1.1.6-.8 1-3.1.3-1.8.65-2.5.35-1 .95-1.35l1.15-.3 1.35-.3q.85-.45 1.8-1.95 1-1.45 1-3.2l-.25-2.15-.2-2.1.1-1.75q.25-.95 1.05-1.8l2.55-2.15 3.05-3.1q1.2-1.65 1.35-3.55.15-1.4.8-2.4-.95.35-1.5.95-1.4 1.7-3.8 2.7-2.8 1.2-5.1.35-1.1-.45-1.2-1.3l-.05-.3q0-2.45 7.25-8.45 1.4-1.2 1.4-2.35l-.2-1.2-.25-1.25q0-1.2 1.4-2.2 1.15-.85 1.7-2.25.45-1.2.3-2.3l-2.2 2.05q-1.5 1.1-3.5 1.5-2.35.5-2.9.85-1 .65-1.15 2.55-.15 1.5-.85 2.6-.6.8-1.3 1.15l-1.75.4q-.95-.05-2.1-.8-.75-.45-1.2-1.4-.4-.85-.4-1.65l.2-1.4q-2.5 1.5-4.05 3.65-.8 1.2-.8 2.3l.1 1.2q.45 3.2-.7 4.95-1.2 1.85-4.45 2.6-1.9.4-2.4 1.2-.45.7-.45 3.25 0 2.1-1.15 4.2-1.6 3-3.8 1.65-2.15-1.3-2.5-4.4l-.05-.7q0-1.95.9-4.5-1.95.7-3 2.3-.95 1.45-1.05 3.8l.05 4.4v1.95q-.15 1.15-1 2.1l-1.8 1.5q-.9.55-1.35.4-.7-.15-1.1-2-.25-1.4-1.25-.75-1.45 1-5.3 6.25-1.7 2.4-4.05 2.3-2.45-.1-1.95-3.8.15-.95-1.5-1.45l-2.45-.35q-1.55-.15-3.25 2.05l-2.2 3.6q-.75 1.4-.7 3 .05 1.55.85 4.2 1.25 4.2-.7-.5-2.05-5-.95-7.05.75-1.55 2.1-3.45 1.75-2.5 2.75-3l4.1-.25q2.1.5 2.7 1.2.35.45.1 2.15-.3 2.25 1.7 1.9 1.95-.3 3.55-2.45 4.45-6.15 5.65-6.75 1-.5 1.65 2.45l.35.95q.5 0 1.75-1.35 1.1-1.2 1.25-2.4l-.1-2.35q-.55-5 1.35-7.5 1.2-1.55 4-2.6 1.55-.6 1.65-.2l-.7 1.6q-1.1 1.9-.65 5.85.2 1.5 1.6 2.55 1.55 1.25 2.6-.75.7-1.3.65-3.05l-.2-2.5q-.15-2.55.85-3.3.55-.5 3.4-1.1 2.7-.6 3.6-1.95.75-1.2.45-3.6l-.15-2q.1-1.2.85-2.3 1.1-1.55 2.75-2.95 1.4-1.15 2.65-1.75 1.15-.55 1.15 0l-.7 1.9q-.65 1.95 1 3 2.05 1.25 3.5.55.8-.4 1.05-3.85.15-2.25 2.15-2.9l2.95-.55q3-.8 4.5-3.5M47.7 71.5q.7-.35 1.85-.8l1.85-.5-.45.8-.35.9q-2.05.35-2.95.65l-1.6.15q-.35-.3 1.65-1.2"/></svg>