<svg xmlns="http://www.w3.org/2000/svg" width="315" height="296" viewBox="-2.2 -1.85 315.4 296.35"><path fill="#ed8599" d="M178.35 102.4q21 2.65 37.45 11.9 17.5 9.8 32.95 28.6 9.2 11.1 13.5 28.7 4.1 16.45 3.3 35.7-.75 18.8-5.95 36.1-5.35 17.75-14.2 29.8l-19.95.3q-2.65-4.05-6.35-14.75-3.5-10.05-4.45-15.5-19.65 13.3-61.6 14.9-38.35 1.45-65.35-6.9l-76.25-67.4q.7-5.45 4.35-14.35 3.35-8.2 6.8-13.75-2.1-1.35-3.7-5.05-1.6-3.75-1.85-8.1-.6-10.9 7.2-15.35 8.35-4.8 17-2.55 8.1 2.05 12.1 8.8 8.8-2.9 19.3-4.05 10.85-1.2 17.35.25 11.25-14.25 36.5-22.45 26.35-8.55 51.85-4.85"/><path fill="#fff1ac" d="M32.45 174.65q7.35-1.7 13.4-1.05 8.6 1 17.4 6.6 10.8 6.85 22.2 12.65 12.05 6.15 20.35 8.8 8.85 2.85 12.15 9.05 3.6 6.75-1.1 15.15-8.7 15.65-27.1 24.4-15.85 7.6-32.5 7.6-18.05 0-27.95-9-10.4-9.45-9.1-26.6l-3.55-5.8q-4.6 1.6-8.4-.2-3.6-1.65-5.5-5.75-1.95-4.1-1.55-9.2.45-5.45 3.5-10.45 3.6-5.9 13-10.7 7.15-3.7 14.75-5.5"/><path fill="#ed8599" d="M38.6 270.35q-.1-2.65.25-7.65.4-4.75.85-7.65 7.25 3.75 21.05 2.75 13.65-.95 25.7-5.95-3.35 8-13.85 16.2-10.55 8.25-18.95 9.45l-15.05-7.15M281.9 32.2q19.85 16.65 25.95 40.55 5.35 20.95-.35 44.7-5.1 21.25-17.5 39.4-11.95 17.4-25.55 24.8-1.1-12.75-8.85-27.9-9.3-18.25-23.45-28.3 24.3-9.45 26.65-33.8.95-10-2.3-20.15-3.15-9.65-9.1-16.35-16.25-18.25-45.35-25.9-30.3-8-60.55-.45-5.35 1.3-7.7-1.2-2.4-2.6 1.5-6.35 11.45-10.9 29.65-16.05 17.65-5 38.35-3.7 21.05 1.35 41.05 8.9 21.1 8.05 37.55 21.8"/><path fill="#fff" d="M162 25.55q-12.45.85-20.95 3.55-5.35 1.75-7.25-1.65-1.8-3.3 1.5-6.2 10.3-9.05 23.15-13.8 13.35-4.95 32-6.3-5.15 3.75-6.8 10.65-1.9 7.85 2.85 14.2-11.95-1.35-24.5-.45"/><path fill="#ed8599" d="M42.4 214.9q2.35.45 6.9 2.1l8.4 2.95q8.9 2.95 21.8 2.9 13.05-.1 21.8-3.3-3.8 16.9-21.7 24.8-15.3 6.7-31.7 4.05-12.55-4.95-14-15.55-1.4-10.3 8.5-17.95"/><path fill="#fff" d="M13 217q2.25.2 8.85-1.75.65 4.05-.6 6.1-.7 1.2-3.2 1.45-2.25.2-3.1-.4-.65-.45-1.3-2.4-.5-1.6-.65-3m21.1 57.25q.3-2 3.55-3.35 3.45-1.5 7.25-.8 4.1.75 6.55 2.8 2.55 2.15 2.2 4.6-.3 2.25-3.8 3-2.65.55-6.4.1-4.05-.5-6.75-2.1-2.95-1.85-2.6-4.25M242.55 278q-2.75 1.4-6.75 1.7-3.75.3-7.05-1-3.6-1.4-3.65-3.6-.05-2.4 2.85-4.2 2.95-1.8 7.5-2 4.15-.2 7 1.25 3.05 1.55 3.1 4.25 0 2.1-3 3.6M22.8 156q2.5-2.25 4.95-2.1 2.9.15 3.55 4 .55 3.3-.4 8.8-1.05 6.35-3.45 9.7-3.45 1.05-7.95 3.1-5.4 2.5-7.95 4.6.5-5.35 3.95-13.75 3.25-8 7.3-14.35m54.05 12.7q5.65-11.1 17.9-11.25 8.95-.1 14.75 8.75 5.45 8.35 3.9 17.25-1 5.75-5.75 9.9-5.2 4.55-12.25 4.35l-17.9-9.25q-2.95-4.25-3.05-9.7-.1-5.25 2.4-10.05"/><path fill="#ce7486" d="M19.2 133.3q-.8 4.8 1.6 10.2 2.55 5.75 6.55 6.85l-2 2.2-2.2 2.95q-4.6-2.55-5.9-9.9-1.25-7.3 1.95-12.3m88.95 103.4q11.05 4.3 29.2 5.95 18.65 1.7 37.65-.1 20.85-1.95 36.25-7.65 17.4-6.45 25-16.8-3.1 11.25-16.2 21.3-13.95 10.65-32.9 14.65-20.95 4.45-48.95 4-30.4-.5-50.5-6.8 12.1-6.2 20.45-14.55"/><path fill="#ce7486" d="M229.2 230.35q-2.05 7.8-1.85 20.3.15 12.25 2.25 19.25l-2.25 1.55q-1.5 1.2-2.05 2-2.4-3.05-5.9-12.85-3.75-10.6-4.4-17.65 3.8-2.35 7.65-5.7 4.3-3.7 6.55-6.9m-69.3 34.7q-3.75-1.45-7.2-1.05l4.1-6.1q11.3-.3 19.3-1.75-1.55 3.15-5 7.1-3.7 4.25-6.85 6.25-.1-2.8-4.35-4.45M44.5 257q9.95 1.8 23.05-.15 11.25-1.65 19-5-3.15 7.9-14.3 16.3-10.9 8.2-18.45 8.95 0-2-2.35-4-1.9-1.65-3.85-2.35.55-2.85-.3-6.85-.9-4.3-2.8-6.9M309.4 80.25q2.3 17.05-1.65 35.55-4.2 19.75-14.6 36.25-11.45 18.25-28.8 29.55-.4-4.7-2.1-10.9-1.9-6.8-4.4-11.85 27.55-16.8 39.9-44.65 13.45-30.55 1.6-61.25 7.75 10.4 10.05 27.3"/><path fill="#dcd096" d="M106.55 216.5q1.7-1.35 3.6.15 1.9 1.45 2.75 4.65 2.25 8.3-4.75 15.4-10.55 10.75-25.4 16.3-15 5.65-31.3 4.75-15.25-.9-24.2-10.85-9.2-10.25-6.7-24.85.85-.8 1.3-2.6.45-2 .15-4.3l2.35-.55 2.7-.4q-3.25 5.15-3.3 11.1-.1 5.9 2.95 11.05Q33.75 248.15 51 249q17 .9 30.2-5.45 16.1-7.7 20.2-24l2.55-1.3 2.6-1.75"/><path fill="#dcd096" d="M51.4 217.55q-6.1-2.75-14.1-3.6-9.85-1-18 1.8-4.4 1.55-8 1.25-3.35-.3-5.9-2.2-2.4-1.75-2.85-3.85 2.7 2.1 6 2.1 2.55-.05 9.45-1.7 10.45-2.5 18.6-2.1 8.8.45 17.25 4.4 9 4.2 26 5.25 17.55 1.15 26.7-2.4-9.3 6.25-27.1 6.25-16.75-.05-28.05-5.2"/><path fill="#ce7486" d="M83.25 222.45q12.75-.65 18.15-2.9-.45 5.75-5.4 12.15-3.85 4.95-8.6 8.45-3.55-4.95-11.3-8.45-7.1-3.2-15.9-4.45-8.65-1.2-15.75-.1-7.55 1.2-10.75 4.65-.65-4.05 2.1-9.5 2.9-5.8 7.1-7.35l7.1 2 9.55 3.25q9 3 23.7 2.25"/><path fill="#922f00" d="M35.3 223q-2.05 4.75-1.25 10 .8 5.25 4.25 9.35 3.7 4.35 9.4 6.15-13.9-1.15-20.45-11.3-6.85-10.55.05-22.95 6.9-1.5 15.1.6-4.9 3.1-7.1 8.15"/><path fill="#dbdcdc" d="M35.05 272.55q1.25 3.15 6.7 2.95 5.65-.25 6.2-4.6 2.85 1.15 4.6 3.3 1.85 2.3.8 4.05-.8 1.4-3.1 2.05l-6.75.3q-5.1-.5-7.5-2.6-2.5-2.25-.95-5.45m117.45-8.45q4.15-.4 7.75.95 4 1.5 4.1 4.2.1 3.05-6.35 4.15-6.65 1.15-11.25-1.75 1.9-1.95 5.75-7.55m90.7 13.35q-2.9 1.95-7.45 2.15-5.05.25-8.45-1.8-3.6-2.2-1.3-5.05 1.1 3.25 9.1 3.2 7.75-.1 10.3-2.6.6 2.25-2.2 4.1"/><path fill="#fff" d="M65.55 221.6l9.1 1.05q-.75 4.5-2.05 5.7-.75.7-3.2.45-2.35-.2-2.95-.75-.9-.85-.9-6.45"/><path fill="#0d131a" d="M43.4 137.7q7.15-4.75 16.7-7.3 9.55-2.5 20.45-2.5 23.45 0 41.9 15.3 18.85 15.65 25.3 41.4.3 1.25-.2 1.35-.45.15-.85-1.05-8.2-24.8-25.7-39.55-17.95-15.1-40.5-15.1-20.55 0-36.5 8.4-1.2.6-1.45.2-.25-.4.85-1.15m-14.4 10q1.15-.9 1.45-.5.3.4-.75 1.35-5.75 5.5-11 16.3-5 10.35-6.35 18.9l-2.25 1.65q1.3-9.15 6.7-20.4 5.8-12.1 12.2-17.3"/><path fill="#0d131a" d="M20.75 159.45l2.5-4.4q1.25-1.25 2.85-1.7l2.9-.1q3.95 1.1 3.35 9.65-.55 7.85-3.7 13.25l-2.5.65q3.85-6.6 4.35-14.1.45-7-2-7.7-2-.55-4.1.7-1.95 1.2-3.65 3.75"/><path fill="#0d131a" d="M24.85 166.9l.65.45.2 1.15-.35 1.05q-.35.4-.75.4l-.6-.5q-.25-.45-.2-1.1.1-1.45 1.05-1.45m72.2 7.55q.45 0 .8.5.35.5.35 1.2 0 .65-.35 1.15-.4.55-.95.5-.45-.05-.8-.45-.4-.5-.4-1.2 0-.75.35-1.2.4-.5 1-.5m-76.9 27.5q-.3-1.5.55-1.7.85-.25 1.1 1.15.65 3.25 1.2 4.1.35.6.05.85l-.8-.15q-.65-.4-1.3-1.8-.6-1.25-.8-2.45m21.75 1.25q-1.25 1.8-3.8 3.15l-.85-.05q-.2-.3.2-.65 2.05-1.8 3-3.45.6-1 1.35-.45.75.55.1 1.45m22.85 18.25l1.9.45q-.2 1.7 0 3.35.15 1.55.6 2.2.35.55 2.25.65 1.95.15 2.6-.5.9-.9 1.55-4.9l1.9.05-.85 3.15q-.85 2.2-1.7 3-.95.9-3.7.65-2.75-.2-3.35-1.15-.65-.95-1-3-.4-2.2-.2-3.95"/><path fill="#0d131a" d="M34.35 175.5q-12.65 2.95-20.6 8.3-8 5.4-10.3 12.6-3 9.5 1.1 15.5 4.2 6.05 12.6 3.65 9.9-2.8 17-2.7Q42.7 213 53 217.1q12.8 5.15 29.55 4.7 16.3-.45 23.8-5.6 1-.7 1.3-.3.3.35-.65 1.15-7.3 6.05-24.35 6.6-17.05.6-30.3-4.7-10.15-4.05-18.25-4.25-6.9-.2-16.5 2.55-9.45 2.7-14.6-3.8-5.2-6.6-1.7-17.55 2.5-7.85 11.35-13.9 8.5-5.85 21.15-8.8 15.6-3.65 30.65 6.2 9.9 6.4 21.85 12.65 12.7 6.65 19.2 8.55 11.85 3.5 14.4 12.15 2.35 8.15-4.25 17.1-10.15 13.75-25.8 21.4-15.8 7.75-33.9 7.75-19.85 0-29.65-11.4-8.8-10.25-6.7-25.25l2.05-.6q-2 14 5.9 23.7 9.15 11.3 28.45 11.3 17.9 0 33-7.35 15.05-7.35 25.05-20.85 5.65-7.7 3.9-14.8-2.05-8-13.1-11.25-7-2.05-20.4-9.1-12.1-6.3-21.2-12.25-6.35-4.1-13.3-5.65-7.95-1.8-15.6 0"/><path fill="#0d131a" d="M79.45 189.15l-3.35-1.45q-2.9-4.15-2.9-9.65 0-5.3 2.65-10.25 6.1-11.45 18.8-11.45 8.6 0 14.45 7.3 5.8 7.15 5.7 17.35-.05 7.85-6.45 13.15-5.6 4.65-11.7 4.4l-2.85-2.05q6.05 1.15 12.1-3.15 6.65-4.75 6.65-12.4 0-8.95-5-15.5-5.25-6.85-12.9-6.85-5.8 0-10.5 3.15-4.4 2.95-6.75 7.85-2.35 4.85-1.9 9.95.45 5.45 3.95 9.6M100.3 220l2.2-.8q-3.05 14.75-17.65 23.45-14.3 8.55-32.75 7.3-21.2-1.45-27.2-15.15-2.4-5.35-1.65-11.3.65-5.5 3.5-9.2l2.2-.25Q25.9 217.6 25 222.8q-.95 5.65 1.2 10.75 5.4 12.95 26.05 14.35 17.8 1.2 31.35-6.65 13.65-7.85 16.7-21.25"/><path fill="#0d131a" d="M41.7 214.65l2.35.7Q39.6 217.6 37 222.1q-2.6 4.55-2.25 9.55.9 12.25 16.6 17.05l-4.95-.3q-13.45-5.15-13.75-17.3-.15-5.05 2.35-9.6t6.7-6.85m-6.6 60.15q-.1 1.65 2.15 3 2.15 1.25 5.7 1.75l7.15-.25q2.75-.75 2.85-2 .2-2-2.35-3.9-2.65-2-6.55-2.5-3.7-.45-6.3.75-2.55 1.15-2.65 3.15m-2.05-.1q.15-2.7 3.3-4.35 3.25-1.75 7.75-1.15 4.75.6 7.75 2.95 3.1 2.35 2.8 5.35-.2 2.5-4.2 3.65l-7.75.4q-3.55-.5-6.4-2.2-3.4-2.05-3.25-4.65"/><path fill="#0d131a" d="M39.75 262.85q-.4 4.1-.2 7.35l-1.6.5q-.5-3.05-.15-7.95.35-4.5 1.2-7.95l1.95.7q-.85 3.05-1.2 7.35M85.8 251.7l2.8-.8q-4.45 9.25-15.05 17.6-10.5 8.2-20 10.05l.15-2q7.9-1.55 17.45-8.75 10.05-7.55 14.65-16.1"/><path fill="#0d131a" d="M86.05 252l2.3-1.45q23.65 6.3 53.6 6.5 29.7.2 49.9-5.7 17.6-5.2 28.55-13.75 10.3-8.1 15.5-19.85.55-1.2 1-1.05.45.15.05 1.4-3.65 12.2-14.8 21.35-11.35 9.25-29.6 14.55-20.4 6-51.45 5.45-31.3-.5-55.05-7.45m60.2 20.35l.95-1.55q3.55 2.5 10.05 1.65 6.4-.85 6.15-3.4-.2-2-3.65-3.35-3.6-1.4-7.75-.7l1.1-1.6q4.45-.55 8.25 1.3 3.65 1.75 3.9 4.2.4 3.9-7 5.25-7.45 1.4-12-1.8"/><path fill="#0d131a" d="M175.3 256.1l2.45-.15q-2.5 4.15-6.3 8.3t-7.5 6.75l.4-2.7q6.4-5 10.95-12.2m60.3 13.5q-4.2 0-7.05 1.75-2.5 1.55-2.5 3.25 0 1.95 2.8 3.1 2.45.95 6.05.95 3.5 0 6.4-1.2 3.15-1.3 3.35-3.25.15-1.85-2.1-3.15-2.55-1.45-6.95-1.45m8.35.4q2.85 1.85 2.55 4.4-.3 2.8-4.05 4.65-3.45 1.7-7.65 1.7-4.25 0-7.45-1.65-3.4-1.75-3.4-4.5 0-2.25 3.35-4.35 3.6-2.25 8.25-2.25 5.3 0 8.4 2"/><path fill="#0d131a" d="M213.9 243.55l2.05-1.1q.75 6.8 4.1 16.75 3.25 9.65 5.95 13.55l-1.15 1.8q-2.85-4.1-6.4-13.85-3.7-10.2-4.55-17.15"/><path fill="#0d131a" d="M212.35 114.05Q192.1 103.8 168.5 102.7q-22.45-1-43.2 6.3-20.8 7.35-34.75 21.3l-2.9-.75q14.2-14.85 35.85-22.7 21.4-7.7 44.85-6.65 24.45 1.1 45.45 11.65 22.8 11.4 37.8 32.25 18.35 25.5 14.8 67.55-1.5 18.15-7.15 35.15-5.55 16.75-13.7 28.35l-.35-2.8q7.35-11.45 12.3-27.45 5.1-16.5 6.45-33.85 3.1-40.6-14.8-65.45-14.7-20.4-36.8-31.55"/><path fill="#0d131a" d="M247.25 52.6q12.2 13.55 13.35 30.9 1 15.05-7.3 27.55-7.95 11.9-20.05 15.4l-2.15-2.25q11.3-3.45 19-14.25 8.35-11.85 7.4-26.3-1.05-15.85-12.65-28.75-10.7-11.95-28.55-19.45-17.3-7.3-37.15-8.7-20.35-1.5-38.3 3.5-6.4 1.8-8.3-2.4-1.9-4.1 2.9-8.25 20-17.2 52.8-19.3 32.7-2.15 63.7 11.7 28.45 12.7 43.95 33.25 15.5 20.55 16.1 46.5.6 25.8-13 52.55-13.85 27.1-34.3 39.1l-.75-3.35Q283 168.4 296.2 142.4q13.2-25.9 12.7-50.6-.5-25-15.55-45.1-15.1-20.1-42.6-32.35-31.3-13.9-62.1-12.15-31.05 1.8-51.6 19.15-3.6 3.05-2.4 5.5 1.2 2.4 5.55 1.2 18.05-4.95 38.7-3.7 20.6 1.25 38.4 8.35 18.75 7.5 29.95 19.9M21.05 215.5l1.9-.45q.25 1.55-.15 3.65-.4 2.25-1.2 3.35-.7 1.05-3.45 1.4-2.85.35-3.8-.65-.75-.75-1.45-2.5-.75-1.85-.8-3.25l2-.1q.05 1.4.5 2.8.4 1.3.85 1.8l2.5.3q2.05-.2 2.6-1 .35-.5.5-2.05.2-1.65 0-3.3m33.5-82.4l-2.2.9q-5.25-7.5-13.45-8.65-7.3-1-13.75 3-6.65 4.15-7.2 13-.5 8.85 5.55 13.55l-1.05 1.65q-7.1-5.1-6.55-15.3.6-10.15 8.15-14.8 7.1-4.35 15.4-3.05 9.2 1.5 15.1 9.7"/><path fill="#ed8599" d="M131.2 124.5q8.85.4 14.2 8 4.5 6.35 4.7 14.2.2 6.75-4.25 11.5-4.55 4.9-11.7 5.2-6.95.25-11-4.3-3.75-4.25-2.95-9.85-1.05 3.05-6.5 2.4-5.6-.7-5.9-5.1-.9-11.05 5.65-16.95 6.3-5.65 17.75-5.1m-9.3 100.65q2.7-3.6 10.4-4 6.75-.35 15.4 1.7 8.1 1.95 13.75 5 5.9 3.15 5.55 5.75-1.95 14.9-16.9 33.85-13.75 17.45-24.45 22l-19-4.35q-2.35-17.55 2.8-34.75 4.2-14.15 12.45-25.2"/><path fill="#fff" d="M103.8 289.2q0-2.6 3.3-4.1 3.05-1.4 7.65-1.4 4.35 0 7.4 1.3 3.25 1.45 3.45 3.9.15 2.3-3.75 3.65-3.1 1-7.1 1.05-4.45.05-7.65-1.25-3.3-1.3-3.3-3.15"/><path fill="#ce7486" d="M125.65 289.2q0-3.4-4.35-4.5 12.5-6.7 25.8-20.75 14.75-15.5 19.45-29.2-1.95 12.2-13.4 28.6-12.75 18.2-27.5 25.85"/><path fill="#dbdcdc" d="M104.55 287q1.15 3.2 8.8 2.45 7.65-.8 8.9-4.35 1.85.8 2.85 2.3 1 1.5.3 2.5-1.05 1.55-3.75 2.55-2.9 1.05-6.45 1-6.65-.1-9.45-1.65-2.95-1.65-1.2-4.8"/><path fill="#ce7486" d="M124.05 159.7q-4.45-3.95-3.65-9.95 3.25 9.75 14.75 8.75 4.65-.4 8.6-2.7 4.05-2.3 5.5-5.45-.6 5.05-4.65 8.8-4.3 4.05-10.05 4.1-6.3.1-10.5-3.55"/><path fill="#0d131a" d="M115.05 284.55q-5.15-.15-7.95 1.45-2.25 1.25-2.4 3.05-.1 1.4 2.35 2.3 2.7 1 7.75 1.05 4.8.05 7.5-1 2.45-1 2.45-2.55 0-1.65-2.55-2.85-2.8-1.35-7.15-1.45m-12.45 4.5q.1-2.65 3.1-4.35 3.4-1.95 9.35-1.8 5.2.15 8.4 1.85 3.15 1.7 3.15 4.1 0 2.6-3.55 4.15-3.35 1.5-8.35 1.45-5.3-.05-8.65-1.5-3.5-1.5-3.45-3.9"/><path fill="#0d131a" d="M122.6 224.3q.4.3-.25 1.15-8.7 12.2-12.45 27.6-3.65 14.95-2.35 31.8l-2 1q-2-17.35 2.05-33.25 4.15-16.15 13.85-27.8.7-.8 1.15-.5m2.75 66.3l.4-2.3q11.4-5.55 24.5-22.75 13.6-17.9 16-31.8.25-1.35.7-1.3.5.05.4 1.45-.95 13.95-15.6 33.2-14.25 18.65-26.4 23.5m12.15-144.9q-3.95-5.55-10.15-3.6-6.25 1.95-6.25 8.7 0 5.35 3.75 8.45 3.7 3.1 9.95 3.1 5.1 0 9.25-4 4.65-4.55 4.65-11.4 0-8.8-4.9-14.6-5.6-6.65-15.7-6.65-9.5 0-15.05 5.65-5.75 5.85-4.7 15.25.1.95-.35 1.05-.5.1-.75-.85-2.45-9.7 4.1-16.65 6.35-6.7 16.85-6.7 10.75 0 17.05 6.9 5.95 6.5 5.95 16.45 0 7.5-5.35 12.75-4.95 4.85-11.05 4.85-6.7 0-11.05-3.7-4.55-3.85-4.55-10.05 0-4 2.35-6.85 2.2-2.65 5.6-3.55 3.35-.9 6.4.3 3.3 1.3 4.95 4.6.4.8-.05 1.05-.4.2-.95-.5"/></svg>