<svg xmlns="http://www.w3.org/2000/svg" width="250" height="273" viewBox="0.0 -1.8 250.2 272.5"><path fill="#0d131a" d="M19.75 22.85q-.9-19.1 4.2-22.25 3.85-2.4 8.55 3.75 5.8 7.45 9.3 19.95 4.25 15.25 4 34.7.2 4.55-.4 9.25l-1.65 9.85-2.1 11.7q-.95 5.85-4.65 6.35-4.6.6-11.15-6.8-5.65-6.4-10.2-15.5-3.5-6.95-2.15-11.15 1.45-4.55 7.8-.4-4.35-7.1-5.85-19.4-1.75-14.2 4.35-17.4l-.05-2.65"/><path fill="#afcee5" d="M30.05 5.7q12.3 9.75 14.2 53.35.2 4.45-.4 9.1l-1.65 9.7-2.1 11.7q-.75 4.75-3.3 5.05-3.7.45-9.8-6.2-5.65-6.2-8.55-12.75-4.3-9.9-2.3-11.8l3.5.2 4.55 1.2q1.7.55 2.15-.35.5-.95-2-1.85-2.65-.95-5.05-12.3-2.4-11.25-1.35-17.45.85-5.3 3.05-6.85l.35-.2v-.45q-.4-19.3 4-21.5 1.7-.9 4.7 1.4"/><path fill="#93aec1" d="M25.5 13.05q.55-1.65 1.75 0l1.55 2.1q2 3.45 4.15 11.25 2.7 9.75 4.55 21.9 1.85 12.1 1.65 18.6-.25 7.3-3.1 3.45-5-6.75-5.35-20.4l-.25-9.8q-.35-5.05-1.7-7.6-3.1-5.7-3.6-14.4-.2-3.55.35-5.1"/><path fill="#0d131a" d="M28.35 15.35q-1.75-3.55-1.2-3.8.55-.2 2.4 2.8 2.6 4.2 5.5 16.65 3.5 15.15 2.35 25.75l-2 2.45q1.1-10.2-2-25.85-2.55-12.9-5.05-18m32.4 96.1q6.4 3.25 11.15 18.6 4.6 14.85 3.15 25.45-1.05 7.7-5.7 8.7-8.7 1.65-23.45-7.05-12.5-7.45-24-18.75-15.5-15.3-15.6-27.3 0-3 1.15-5.8t3.2-4.85q5.65-5.65 25.85.95 11.3 3.65 24.25 10.05"/><path fill="#88a3d4" d="M70.55 130.8q4.35 14.45 2.95 24.5-.85 6.65-4.45 7.35-7.9 1.5-21.2-6.4-11.8-6.95-23.45-18.4-7.45-7.3-11.4-14.25-4-6.95-4.05-12.6 0-5.35 3.65-9.1 4.5-4.5 20.85.25 12.35 3.6 26.6 10.7 5.95 3 10.5 17.95"/><path fill="#778db8" d="M52.25 139.05q3.1-2.7 7.6-8.45 5.25-6.75 7.25-8.8 3.55 7.4 5.4 17.05 1.95 9.85 1 16.45-.85 6.65-4.45 7.35-7.1 1.4-18.75-4.95-10.25-5.55-21.3-15.5 13.55 5.2 23.25-3.15"/><path fill="#0d131a" d="M9.2 98.1q5.5-1.15 7.65.4.5.35.2 1.6l-.85 2.65q-.5 1.6-1.4 3.1-1.05 1.8-1.75 1.8-1.15 0-5.7-1.75-5.1-1.95-5.8-3.35-.4-.85.65-1.75 2-1.65 7-2.7"/><path fill="#fff" d="M13.05 106.85q-1 0-5.05-1.7-4.35-1.8-4.9-2.95v-.1l.45-.7q1.75-1.5 5.75-2.2 4.35-.8 6.25.55.3.15.3.9l-.05.65q-.25 1.6-1.35 3.6l-1.4 1.95"/><path fill="#0d131a" d="M.65 106.4q1.5-.85 5.45-1.2 3.5-.3 5.55-.05.5.05.8.6.7 1.45-.4 4.9-1.25 3.8-3.65 5.25-1 .65-7.65-6.9-.75-.95-.7-1.65 0-.65.6-.95"/><path fill="#fff" d="M1.9 107.6q-.05-.8 4.05-1.4l5.6-.3.2.2.1.7q0 1.35-1.25 4.45-1.3 3.2-2.05 3.2-.85 0-3.7-2.95-2.9-2.95-2.95-3.9"/><path fill="#dbdcdc" d="M2 108q4.7 2.8 8.15 4.35-1.05 2.1-1.6 2.1-.8 0-3.35-2.55-2.6-2.55-3.2-3.9"/><path fill="#0d131a" d="M4.8 100.6l7.25.35 5.75 1.35q.9.2 1.25 1.3.85 2.85-2.4 6.5-3.1 3.55-4.4 2.7-2.25-1.4-5.2-5.85-2.85-4.35-2.65-5.7 0-.4.4-.65"/><path fill="#fff" d="M6.4 102.3q-.45-.8 5.55.05 5.95.85 6.1 1.7.35 1.95-1.8 4.8-2.1 2.75-3.55 2.7-1.1-.05-3.6-4.3l-2.7-4.95"/><path fill="#dbdcdc" d="M12.7 111.55q-1-.05-3.15-3.55l-2.8-5.05 9.1 6.35q-1.9 2.25-3.15 2.25"/><path fill="#0d131a" d="M64.4 190q4.05-3.15 12.65.45 9.8 4.1 21.85 14.75 11.5 10.1 11.95 13.95v.25l.5 1.45.35 1q-14.5 10.2-14.85 12 1.6 8.35.95 11.2-.3 1.2-8.85 5.1l-8.65 3.65q-2.3.85-4.3-2.05l-2.25-4.3-5.8 2.9q-4.55 2.25-6 2.35-1.7.2-3-2.55l-1.45-3.95-4.6.9-5.05.75q-.9 0-1.3-.7-.25-.4-.25-1 0-2.4 1.9-6.25.25-.55 1.65-2.5l1.45-2.25q-3.6-5.25-5.05-8.55-1.85-4.15-2.05-8.7v-.2q.55-7.1 9.3-17.15 5.65-6.5 10.9-10.55"/><path fill="#88a3d4" d="M72.75 190.6q4.9 1.3 11.7 5.6 9.25 5.85 17.55 13.95 7.3 7.2 7.3 9.2v.05q-3.05 2.2-8 6.65-6.55 5.95-6.55 7.7l.75 5.15q.6 4.65.1 5.1-.65.6-6.3 3.25-5.75 2.65-8.85 3.75-1.85.65-3.6-1.55l-2.05-3.35q-.5-.85-5.7 1.1-3.85 1.4-6.45 2.7-1.9.95-3.95-4.8-.25-.75-4.8-.1l-5.2.2q-.6-.7.85-3.5l2.95-5.2q1.65 1.55 3.55 2.5 1.95.9 1.1-.35l-1.5-1.9-2.8-3.55q-5.15-6.75-5.5-15.35v-.2q0-4.35 7.75-14.7 6.65-8.95 10.25-11.75 2.45-1.9 7.4-.6"/><path fill="#778db8" d="M66.85 190.45q5.55-1.9 17.6 5.75 9.25 5.85 17.55 13.95 7.3 7.2 7.3 9.2v.05q-3.05 2.2-8 6.65-6.55 5.95-6.55 7.7l.75 5.15q.6 4.65.1 5.1-.75.7-7.4 3.9-6.9 3.25-7.75 3.1.9-2.8 1-8.1.05-3.5 2.85-7.1 4.2-5.45-4.1-22.75-5.6-11.65-13.35-22.6"/><path fill="#0d131a" d="M166.25 72.4q5.05-8 13.4-13.75 8.25-5.7 16.85-7.3 13.1-2.4 25.15 3.05 13.25 6 17.25 18.55 4 12.45-.8 20.35-3.35 5.5-9.55 7.5 6.25 7.6 6 17.5-.1 3.15-1.75 9.6 10.15 5 13.95 15.15 3.45 9.15 1.2 20.7-2.1 10.9-8.55 20.6-6.55 9.85-15.25 14.9-17.3 10-31.65 9-6.8-.5-16.85-5.05-2.85-1.25-4.35-9.95-1.05-6.15-2.35-23.75-1.35-17.75-2.4-26.75-1.9-16-4.85-27.35-3.55-13.55-1.65-25.75 1.5-9.9 6.2-17.25"/><path fill="#afcee5" d="M197 53.8q12.4-2.3 23.85 3.2 12.45 5.95 16.25 18 3.1 9.8-.55 16.65-1.65 3.15-4.55 5.4-2.45 1.85-4.95 2.6l-.35 1.3q5.7 6.3 5.6 17.5-.05 5.6-1.25 10.05l.4.5 1.65.85q2 1.15 3.9 3 5.9 5.75 8.3 15.6 2.6 10.75-3.7 25.5-6.65 15.7-18.75 23.45-14.55 9.3-29.15 8.75-8.5-.35-17.45-4.35-2.35-1.05-3.75-10.55-.85-5.75-2.05-21.85-1.25-17.5-2.35-26.85-1.9-16.05-4.9-27.5-3.4-13.05-1.15-24.75 1.65-8.95 6.45-16.45 4.95-7.75 12.6-13.1 7.65-5.4 15.9-6.95"/><path fill="#93aec1" d="M179.55 193.05q4.8 3.45 10.9 3.8 5.25.35 13.3-1.65 13.85-3.85 27-12.85 6.65-4.55 11.05-8.85-3.05 7.35-7.75 13.4-5.05 6.55-11.2 10.5-14.55 9.3-29.15 8.75-8.5-.35-17.45-4.35-.55-.25-.1-.85l1.4-1.5q2.5-2.85 2-6.4m20.85-51.3q.65 2.65 3.35 5.95 3 3.75 6.2 4.8 5.6 1.7 8.65-1.35 2.8-2.8 2.5-8.55 4.3 3.25 2.95 8.55-1.25 5.05-6.2 7.2-9.6 4.15-15.65-4.65-2.35-3.35-2.9-7.1-.55-3.75.95-5.4l.1.35.05.2m16.2-40.85q5.4 1.1 10.1.05 3.6 4 4.85 9.85-4.4 3.05-10.05 3.1-5.8.05-11.05-3.1-4.75-2.85-6.95-11.1-1.8-6.8-1-11.4 3.3 10.45 14.1 12.6"/><path fill="#0d131a" d="M201.45 88.75q-.4-3.2.55-6.2 1-3.05 3.2-5.4 2-2.1 4.9-2.65 2.1-.4 4.15-.05 2.55.45 4.5 2 1.6 1.3 2.2 2.9.85 2.4.8 3.05-.15.85-1.8-2.05-1.8-3.15-5.85-3.7-3.95-.55-7.15 1.8-1.55 1.15-2.65 3.95-1.15 3-.8 5.7.35 2.9 2 5.45 1.65 2.5 4.2 4.1 3.85 2.35 8.65 2.9 4.6.45 8.65-.85l2.9-.15q.2.75-2.35 1.6-6.15 2-11.3 1.15-3.9-.7-8.25-3.4-5.7-3.55-6.55-10.15m18.85 57.85q.35-1.95-.2-3.55l-.5-1.15q-.4-.7-1.35-1.45-.95-.8-.9-1.1l.75-.05q1.4.4 2.45 1.4 1.1 1.05 1.55 2.4.65 1.9.15 4.05-.55 2.35-2.3 4.15-1.9 1.95-4.65 2.65-3.15.8-6.8-.15-2.55-.65-4.8-2.95-2.45-2.45-3.3-5.65-2.3-8.35 6.55-16 4.4-3.85 12.15-4.15 7.4-.25 13.2 2.7 3.35 1.7 3 2.4-.4.7-3.65-1-3.8-2-11.15-1.95-8.3.05-12.2 3.35-6.55 5.5-4.85 12.85 1.5 6.6 6.35 7.85 6.05 1.55 8.7-1.15 1.4-1.4 1.8-3.5"/><path fill="#0d131a" d="M214.4 101.05l.85-.75q2.8 2.35 3.1 7.1.2 4.05-1.35 8.5l-1.1 2.95q-.15.05.35-3.1 1.65-10.25-1.85-14.7m-8.05-4.15l1.1-.4q1.8 5.45-1.1 17.65-3.25 13.85-10.1 21.3l-4 4.05q-.35.1 3.1-4.8 6.5-9.2 9.7-22.05 2.8-11.35 1.3-15.75m-22.6 95.35l-.25-1.15q12.65-2.85 22.7-15.5 3.4-4.3 5.9-8.95 1.95-3.7 2.15-5 .35-2.1.9-2.5.55-.35.25 2.75-.5 5.9-7.7 14.75-9.6 11.9-23.95 15.6m-.25 3.6q4.2 1.1 12.55-.05 8.9-1.2 15.05-4.1 3.45-1.6 3.45-1.1.05.5-2.85 2.1-8.05 4.45-16.75 5.15-6.2.55-11.75-.85l.3-1.15"/><path fill="#0d131a" d="M164.4 109.65q16.15 12.6 22.15 35.85 3.25 12.65 2.75 25.1-.45 12.25-4.4 21.5l-.4 1-.8-.7q-8.05-6.75-14.05-13.75-3.65-4.15-5.4-12.25-1.1-4.95-2-15.5-.8-8.65-1.4-12.25-1.1-6.25-3.1-9.8-2.45-4.3-6.9-8-2.6-2.2-8.45-5.9-7.05-4.45-10.05-7.25-5-4.8-6.7-11.05l-.3-1.1 1.15.1q23.05 2.4 37.9 14"/><path fill="#b94100" d="M170.8 177.6q-3.45-3.9-5.1-11.75-1-4.7-1.9-15.1l-1.45-12.5q-1.15-6.4-3.25-10.15-2.55-4.55-7.15-8.4-2.75-2.3-8.75-6.05-6.5-4.1-9.35-6.7-4.5-4.2-6.3-9.55 21.05 2.55 36.1 16.05 15.1 13.55 20.8 35.05 3.1 11.7 3.1 21.8 0 11-3.7 20.2-7.4-6.35-13.05-12.9"/><path fill="#922f00" d="M184.45 148.5q3.1 11.7 3.1 21.8 0 11-3.7 20.2-4.3-3.75-7.65-7.1 5.15-6.45 7.25-16.7 1.85-8.9 1-18.2m-23.1-37.05q-13.15-4.45-24.55-2.1-3.4-2.55-5.5-5.1-2.55-3.1-3.75-6.85 19.3 2.3 33.8 14.05"/><path fill="#0d131a" d="M163.75 167q2.1 7.5 5.7 11.55l6.4 6.45 7 6.1 1.85 1.5-.25.55q-5.5 12.9-14.9 20.1-10.2 7.85-28.65 12.15-11.7 4.6-25.25 3.2-14.75-1.6-25.1-9.9-13.45-5.25-23.3-17.2-9.4-11.4-13.75-26.7-5-16.3-2.15-30.55 2.4-12.1 10.7-23.2 6.6-8.8 16.9-15.1 10.3-6.35 23.55-9.75 5.45-1.4 10.9-1.6l10.85.5.5.05.15.55q1.6 5.9 6.15 11.05 2.7 3.1 9.35 8.6l8 7.1q4.3 4.25 6.8 8.75 2.15 3.85 3.6 10 .9 3.85 2.1 11.5 1.55 9.8 2.85 14.3"/><path fill="#fff8b0" d="M182.8 193.05q-5.2 11.85-16.85 19.75-11.6 7.95-30.1 12.25-11.3 2.65-23.8.1-12.45-2.5-23.95-9.7-12.7-7.95-21.35-19.75-8.65-11.8-11.7-25.35-6.05-26.75 6.6-46.05 12.7-19.25 41.2-26.6 5.2-1.35 10.45-1.5l10.3.4q1.8 6.05 6.35 11.25 2.85 3.25 9.5 8.7l7.8 6.9q4.15 4.2 6.6 8.5 2.05 3.7 3.45 9.6l2.1 11.4q1.55 9.95 2.9 14.65 2.2 7.75 5.95 12 2.6 3 6.6 6.6l7 6.05.95.8"/><path fill="#ddd698" d="M181.85 192.25l.95.8q-5.2 11.85-16.85 19.75-11.6 7.95-30.1 12.25-7.7 1.75-16.4 1.15 9 0 18.8-9.55 8.55-8.3 14.15-19.95 2.15-4.3 1.3-10.25-1.05-7.15-6.5-10.75-3.65-5.1-5.55-14.25l-2.4-14.75q-1.4-7.55-4.1-9.9-3.45-3-10.6.3-14.75 6.9-29.2 8.4-23.75 2.55-38.85-10.95 4.95-13.35 16.7-22.75 11.85-9.5 29.65-14.1 5.2-1.35 10.45-1.5l10.3.4q1.8 6.05 6.35 11.25 2.85 3.25 9.5 8.7l7.8 6.9q4.15 4.2 6.6 8.5 2.05 3.7 3.45 9.6l2.1 11.4q1.55 9.95 2.9 14.65 2.2 7.75 5.95 12 2.6 3 6.6 6.6l7 6.05"/><path fill="#0d131a" d="M72.85 145.8L64.8 140l-1.4-2.05.7-.95 2.55 2.05q10.5 8.4 13.1 9.5 4.85-2.6 14.85-10.65 9.6-7.75 14.5-12.9l.85.8q-8.3 8.7-11.6 11.6-8.3 7.3-18.3 12.35l-.2.1-.25-.1q-1.8-.65-6.75-3.95"/><path fill="#0d131a" d="M79.05 160.75q-.4-4.3-.2-8.35l.25-3.25 1.15.15q-.3 1.3.2 6.95.65 7.8 2.65 15.65 1.8 7.1 4.9 14.4 6.8 15.8 17.75 26.2l-1.25.5q-6.6-5.35-11.4-12.35-5.05-7.35-6.75-14.5-6.15-11.6-7.3-25.4"/><path fill="#0d131a" d="M126.8 216.45l11.35 1.05-.1 1.15q-4.35.3-10.6-.2-12.45-1.05-22.25-5-5.65 4-10.05 5l-3.4.2-3.8-2.05q-3.15-1.8-.1-.55 3.6 1.45 7.15.6 3.3-.75 9.85-4.35l.2-.1.25.05q8.6 2.6 21.5 4.2M56.4 178.8l.45-1.05 1.2.6q17.4 8.9 30.9 7.15l.15 1.2q-11.5 1.75-21.3-1.6-6.55-2.25-10.3-5.75l-1.1-.55m115.1-58l1 .8q1.1 5.25-1.5 14.75-3.15 11.4-9.35 13.65l-.75-.9q6.35-5.3 9.25-15.45 2.3-8.1 1.35-12.85m1.35 57.75q6.1-2.7 10.35-12.55 3.1-7.1 3.4-11.45l.55 1.5q-.45 5.35-3.25 12.05-4.15 10.15-10.6 11.5l-.45-1.05"/><path fill="#0d131a" d="M163.5 128.95q.8 2.35 1.5 7.9l1.25 9.85q1.4 9.7 3 15.95 2.05 8.3 4.9 12.65l1.05 1.65 3.55 5.6q2.75 3.45 7.35 6.3 1.85 1.15 1.4 4.4-.4 2.65-1.8 4.8-.85 1.35-2.85 1.6-2.6.3-5.85-1.75l-6.65-4.2q-4.05-2.95-6.7-6.6-7.3-10.1-7.4-30.2-.05-16.2-5.4-23.85-3-4.25-11.65-8.9l-3.35-.65q-8.1-4.45-10.85-11.75-.9-2.3-1.75-9.7l-.15-1.25q-.3-2.05.4-4.4.75-2.6 2.35-4 3.25-2.75 5-2.2 3.15 1 4.7 3.7.7 1.2 2 5.3l1.3 4.5q.95 2.75 2.45 4.3l4.75 3.8 9.95 7.4q5.9 4.95 7.5 9.75"/><path fill="#eeeeef" d="M164.7 146.9q1.65 11.4 2.85 16.7 2 9 4.85 13.35l1.05 1.65q2.15 3.55 3.9 5.5 2.9 3.3 7.65 6.55.4.35.25 1.95-.2 1.85-1.2 3.3-2.15 3.25-6.25.7-8.05-5.05-12.55-12.45-6.35-10.45-7.45-27.35-1.05-16.95-6.25-24.7-3.2-4.75-11.6-9.3l-1.65-.9q-7.75-4.3-11.05-10.85-1.8-3.65-2.45-9.15l-.15-1.35q-.3-1.65.3-3.7.65-2.2 1.9-3.3 1.35-1.1 3-.6 2.7.9 4.05 3 .85 1.3 1.9 4.65.8 2.75 1.5 4.25 1.15 2.45 2.9 4.2.85.9 4.9 4 6.4 4.75 9.5 7.75 5.5 5.25 7.05 9.9.85 2.5 1.65 7.1l1.4 9.1"/><path fill="#c8c9ca" d="M124.95 96.85q.65-2.2 1.9-3.3 1.35-1.1 3-.6 2.7.9 4.05 3 .85 1.3 1.9 4.65.8 2.75 1.5 4.25 1.15 2.45 2.9 4.2l.3.35q-6 2-7.8 8.6-4.4-3.85-6.35-8.95-1.05-2.8-1.55-7.15l-.15-1.35q-.3-1.65.3-3.7m60.05 93.8q.4.35.25 1.95-.2 1.85-1.2 3.3-2.15 3.25-6.25.7-4-2.55-7-5.45 2.75.45 3.75-3.2 1.05-3.75-.75-8.75 1.9 3.15 3.85 5.25 2.8 3.05 7.35 6.2"/><path fill="#0d131a" d="M96.4 172.3l.55-.35.5 8.2-.2.15-9.05 3.85q-1.05-2.05 1.7-5.8 2.6-3.55 6.5-6.05"/><path fill="#fff" d="M89.55 182.7l-.15-.05-.1-.35q0-1.3 1.9-3.95 2.15-2.95 5.05-5l.4 6.4-4 2.1q-2.4 1.05-3.1.85"/><path fill="#0d131a" d="M99.3 185.45l.15-.05.15.05q10.3 4.55 10.2 7 0 .9-1.25 1.3-3.65 1.3-9.4-.35-5.8-1.6-7.85-4.55-.65-.9-.15-1.85.35-.65 1.9-.9l3.1-.25 3.15-.4"/><path fill="#fff" d="M92.7 188.4l-.35-.85.05-.15q.3-.55 3.8-.8l3.15-.4q3.55 1.5 6.4 3.25 3.3 2 3.3 2.95v.05l-.75.6-8.5-.35q-5.2-1.55-7.1-4.3"/><path fill="#dbdcdc" d="M105 189.05q4.05 2.3 4.05 3.35v.05l-.75.6-6.1.2q-3.6-.65-6.45-2.25l5.85-.65 3.4-1.3"/><path fill="#0d131a" d="M95.9 177.45q1.35-1.15 3.65.2 1.8 1.05 3 2.95 1.3 2 1 3.65l-.65 1.95q-.8 1.2-2.45 1.5l-9.15 1.1q-3.85.05-4.9-.9-.6-.6-.45-1.4.15-1.4 2.95-3.75l5.05-3.8 1.95-1.5"/><path fill="#fff" d="M87.7 186.15q.2-1.85 6.7-6.6l2-1.5q1-.8 2.75.25 1.6.95 2.7 2.6 1.2 1.8.95 3.2-.3 1.75-2.9 2.2-10.55 1.85-11.95.6l-.25-.6v-.15"/><path fill="#dbdcdc" d="M87.95 186.85q9.15-.85 14.85-3.65v.9q-.3 1.75-2.9 2.2-10.55 1.85-11.95.6v-.05"/><path fill="#0d131a" d="M124.55 132.4q6.5-10.95 19-11.55 5.95-.35 11.2 5.7 5.85 6.75 7.7 18.4 2.05 12.85-6.3 25.6-7.95 12.15-22.35 19.9-10.8 5.8-22.05 4.9-10.2-.8-15.45-6.3-4.85-5-4.65-9.6.2-2.6 2.5-5.45 1.9-2.35 5.9-5.65 2.6-2.1 10.75-14.2 7.65-11.35 13.75-21.75"/><path fill="#88a3d4" d="M159.95 145.5q1.9 11.95-6.95 24.65-7.95 11.35-20.5 18.3-10.3 5.7-20.25 5.35-9.1-.35-13.95-5.4-4.35-4.6-4.15-8.7.3-4.75 6.9-10.15 2.95-2.4 11.2-13.9 7.9-11.05 13.55-20.4 7.85-13.05 19.1-11.6 5 .6 8.75 5.35 4.55 5.7 6.3 16.5"/><path fill="#778db8" d="M156.8 134.25q2.1 4.85 3.15 11.25 1.9 11.95-6.95 24.65-7.95 11.35-20.5 18.3-8.75 4.85-17.45 5.3-7.9.45-13.45-2.8 24.05-2.4 40.2-17.2 17.75-16.35 15-39.5"/><path fill="#0d131a" d="M122.85 53.05q2.5 3.3 5.4 10.1Q133 74.2 133.9 85.4q1.25 15.35-7.2 28.85-8.45 13.5-24.6 22.2-12.85 6.9-30.85 5.05-16.45-1.65-31.25-9.7-8.05-4.35-9.95-9.35-1.85-4.85-.25-16.55.25-1.75-.45-4.3l-1.4-4.15Q26.25 92.1 26 88.8q-.6-6.4 1.45-15.45Q30.9 58 44.7 47.2q13.7-10.7 31.5-12.1 15.7-1.2 30.05 5.6 11.3 5.35 16.6 12.35"/><path fill="#88a3d4" d="M130.95 85.55q1.2 14.9-6.75 27.75-8 12.8-23.75 21.25-13.35 7.2-31.9 4.7-14.2-1.9-26.1-8.1-7.95-4.1-10.35-9.55-2.25-5.05-.9-14.65l.15-.85q.25-2.1-.1-4.2l-1.05-3.85q-1.55-4.75-1.85-8.5-.45-6.25 1.55-15.15 3.35-14.9 16.35-25.2 13-10.25 30.2-11.55 15.2-1.15 28 5 9.75 4.7 14.85 11.55 2.95 3.95 5.7 9.75 5.1 10.75 5.95 21.6"/><path fill="#778db8" d="M96.05 39.45q8.1 2.3 14.75 6.85 5.4 3.75 8.5 7.9 2.95 3.95 5.7 9.75 5.1 10.75 5.95 21.6 1.15 14.4-6.25 26.85-7.45 12.5-22.15 21 3.65-2.95 6.55-6.35 15.2-18.9 10.55-45.25-4.45-25.1-23.6-42.35"/><path fill="#fff" d="M36.3 85.3q8.55 10.5 11.85 13.55 1.15 4.2 1.15 9.3 0 1.6-.7 4.8-.2.8-1.1 1.85l-1.25 1q-3.05-.3-5.95-2.95-2.6-2.4-3.45-4.9-1.05-3.2-1.75-7.65-.7-4.4-.7-7.6 0-1.75.8-4.25l1.1-3.15m46.65 10.5q13.1-11.2 15.5-12.05 1.25.75 2.15 3.35.9 2.8.9 6.2 0 7.5-.9 11.45-1.05 4.7-3.95 8-1.75 2.6-6.45 2.1-4.65-.5-6.95-3.35-1.4-1.4-2.15-5.8-.65-3.6-.65-7.2l.85-1.1 1.65-1.6"/><path fill="#0d131a" d="M52.3 98.5l-1.25-3.25q-.25-.7.4-.85.65-.15.85.55l.75 2.85q.2.7-.15 1-.3.35-.6-.3m20.55-3.25q0-1 .5-1.1.5-.05.6.85.1 1.2.85 3.8v.8q-.15.2-.65-.4-1.2-1.25-1.3-3.95m-32 28.8l3.1 1.05q3.15 1.1 4.2 1.9l.25.2.55.35-1.55 2.25q-1.25 1.45-1.9 1.3-.5-.05-2.1-1.7-1.95-2.05-3.6-4.7l.1-.95.95.3"/><path fill="#fff" d="M41.65 125.1q4.15 1.35 5.75 2.35-1.5 2.55-2 2.7l-1.5-1.8-2.25-3.25"/><path fill="#0d131a" d="M96.15 125.6l3.65-.7.15.2.45.25q.3.1.25.35-.45 1.7-2 4.25-1.8 3-2.95 3-1.25 0-4.15-2.6-2.85-2.55-2.55-3.3l1.25-.45h.25l5.65-1"/><path fill="#fff" d="M96.3 126.4l3.05-.6q-.1.85-1.7 3.3-1.55 2.35-2.2 2.7-.5-.05-2.3-1.8-1.75-1.8-2.15-2.65l5.3-.95"/><path fill="#0d131a" d="M52.2 123.8q-.1-.5.3-.8.4-.3.65.25l.65 1.05.6 1q.3.6-.05.7l-.8-.2-.9-.9-.45-1.1m10.5 2.5q.45-1.7 2-2.55 1.05-.55 1.1 0 .05.5-.5 1.05l-.8.95-.8.9q-.55.45-.85.3-.25-.15-.15-.65m35.75-42.55q.95-.4 1.85-.85 2.85 5.25 2.85 13.7 0 6.75-3.05 12.35-2.9 5.4-6.05 5.4t-5.5-4.5q-2.4-4.5-2.4-10.4 0-5 1.3-7.8l1.3-.7L93 87.4q2.85-2.25 5.45-3.65"/><path fill="#ba5400" d="M98.45 83.75q1 1.3 1.75 5 .7 3.7.7 7.85 0 5.45-2.05 10.95-2.15 5.65-4.45 5.65-2.5 0-4.5-4.25-2.1-4.4-2.1-10.35 0-2.65 1.1-7.15l4.25-3.8q2.95-2.6 5.3-3.9"/><path fill="#0d131a" d="M41 91.2l.75.05 1.75 1.85 5.05 5.65.5.35.55 1.65q.5 2.4.5 6.45 0 3.45-1 5.95-1.05 2.5-2.55 2.7-3.9.5-6.05-9.4-2.15-9.85.5-15.25"/><path fill="#ba5400" d="M42.95 93.65q3.15 3.25 4.9 5.5l.65 3.2.3 4.65q0 3.5-.7 5.8-.65 2.2-1.65 2.3-1.35.15-2.8-3.15-1.6-3.5-2.25-8.7-.3-2.4-.3-4.55 0-3.85.9-6.1l.95 1.05"/><path fill="#0d131a" d="M45.6 96.4l1.05.3q.85.65 1.5 2.5.7 1.85 1 4.3.35 3-.05 5.2-.45 2.45-1.65 2.65-.45.1-1.05-.3-.85-.65-1.5-2.45-.7-1.85-1-4.3-.35-3 .05-5.2.45-2.5 1.65-2.7m45.35 2.45q0-3.6.95-6.25 1.05-2.95 2.7-2.95 1.65 0 2.7 2.95.9 2.65.9 6.25 0 3.65-.9 6.3-1.05 2.95-2.7 2.95-1.65 0-2.7-2.95-.95-2.65-.95-6.3m71.7-88.6q3.75 2.05 2.55 8.95-1.5 8.45-4.2 16.15 3.7 6.55-3.3 18.65-5.75 9.95-13.8 16.75.5 1.05-.1 5.3-.8 5.35-3.25 8.3-2 2.45-5.05 4.25-3.6 2.15-7.25 2.45-5.95.45-12.8-7-7.3-7.9-3.5-24.35 3.55-15.15 13.75-27.95 5.75-7.2 13.25-12.95 7.25-5.55 13.65-7.9 6.65-2.5 10.05-.65"/><path fill="#afcee5" d="M160.3 39.6q-.55 6.35-5.4 15.25-5.05 9.25-11 14.1 0-2.3-.75-4.85-.6-1.9-1.3-1.5-.7.4-.5 2.5 1.05 12-2.4 17.15-1.45 2.25-4.15 3.95-3.1 1.9-6.4 2.15-6.45.5-11.85-5.35-6.8-7.45-2.85-23.25 3.75-14.9 13.85-26.3 9.65-10.85 20.35-16.7 9.55-5.3 13.65-3.65 2.2.9 1.1 8.9-.95 7.1-3.25 13.2l-.15.4.3.35q.9 1.05.75 3.65"/><path fill="#afcee5" d="M160.3 39.6q-.55 6.35-5.4 15.25-5.05 9.25-11 14.1 0-2.3-.75-4.85-.6-1.9-1.3-1.5-.7.4-.5 2.5 1.05 12-2.4 17.15-1.45 2.25-4.15 3.95-3.1 1.9-6.4 2.15-6.45.5-11.85-5.35-6.8-7.45-2.85-23.25 3.75-14.9 13.85-26.3 9.65-10.85 20.35-16.7 9.55-5.3 13.65-3.65 2.2.9 1.1 8.9-.95 7.1-3.25 13.2l-.15.4.3.35q.9 1.05.75 3.65"/><path fill="#93aec1" d="M133.2 41.1q3.95-5.95 8.85-11.55 5.45-6.25 10.35-10.1 3 .2-3.05 8.85-7.75 11.1-8.55 14.3-1.9 8.2-7.15 19.35-6.3 13.35-9.6 11.45-3.45-2-.1-13.4 3.3-11.15 9.25-18.9"/><path fill="#0d131a" d="M133.5 38.6q4.55-6.4 9.8-12.15 4.5-4.85 6.6-6.25 3.2-2.15 3-1.2-.2.9-2.2 2.5-4.95 3.95-14 16.85-12.55 17.85-13.45 30.5-.3 4.4-.95 2.7l-.6-2.6q-.9-12.3 11.8-30.35m34.05 149.15q7.05.8 15.35 8.25 8.35 7.5 14.75 18.85 4.8 8.4 6.5 17.25.65 3.5 1.2 12.15l.1 2.8.1 1.95 1.95 4.65 1.7 4.85q.55 1.55.65 3.6.2 3.25-3.05 2.2l-4.7-1.6q-4.25-1.55-7.4-3.1l-3.4 4-4.15 4.55q-2.85 2.55-14.15-5.95l-11.4 1.05q-2.95 0-3.95-1.15-.9-.9-1.05-2.25-.15-1.05.1-3.35l.55-3.15q.25-1.4.1-2.45-.3-2.7-3.15-5.9l-6.85-7.15-8.1-8.55q-3.15-3.6-2.85-9.9.3-6.15 3.75-12.75 4.25-8.05 11.9-13.65 8.25-6.05 15.5-5.25"/><path fill="#88a3d4" d="M142.3 208q4.05-7.8 10.8-13.05 7.45-5.85 14.2-5.1 6.8.8 15.7 10.2 7.55 7.95 11.8 16.2 7.75 15.1 9.15 31.9.1 1.05 2.2 7.55 1.85 5.75 1.35 6.3-.85.95-11.95-3.6l-.1-.75q-.35-.55-1.5.5l-3.6 3.75-4.25 4.15q-.95.85-5.55-1.35-4-1.95-6-3.6-1.15-.95-4.45-.5l-7.75.75q-2.15 0-2.9-.8-.45-.45-.45-4.5l-.1-5.35q-.4-3.25-2.8-6.6-1.6-2.25-6.6-7.55l-7.9-8.7q-2.85-3.25-2.65-8.55.15-5.25 3.35-11.3"/><path fill="#778db8" d="M156.1 244.1q-1.6-2.25-6.6-7.55l-7.9-8.7q-3.35-3.8-2.55-10.3 8.1 7.3 15.15 16.05 7.45 9.3 7.95 13.2l.7 7.9q.45 3.55 2.1 3.7l5-.15 4.25.15 5.4 2.3q4.3 1.8 5.35 1.8.9 0 4.9-3t4.65-3q.35 0 5.2 2 5.15 2.1 7.9 2.5l-.1 1q-.85.95-11.95-3.6l-.1-.75q-.35-.55-1.5.5l-3.6 3.75-4.25 4.15q-.95.85-5.55-1.35-4-1.95-6-3.6-1.15-.95-4.45-.5l-7.75.75q-2.15 0-2.9-.8-.45-.45-.45-4.5l-.1-5.35q-.4-3.25-2.8-6.6"/><path fill="#0d131a" d="M60.2 133.45q-.9.4-2.8-1.05l-2.5-2.15q-.75-.65-5.2-2.25-4.4-1.6-7-2.2-2.55-.6-3.75-1.4-1-.65-1.55-1.9-.55-1.15 0-1.25.6-.15 1.5.95.75.95 2.1 1.6l2.4.9q10.65 3.55 11.85 4.45l1.95 1.5q1.2.85 1.9.85l3.2-1.25q2.8-1.3 4.15-1.35l14.8-1.55 16.1-2.15q2.7-.55 5.5-2.25 2.45-1.55 3.6-3 1-1.25 1.65-.95.6.3-.15 1.45-1.85 2.9-4.7 4.4-2.1 1.15-5.55 1.85l-15.9 2.05-14.4 1.6q-.95.15-3.65 1.4l-3.55 1.7"/><path fill="#5084c4" d="M39.8 114.85q1 .75.85 1.55-.15.8-1.35 1.15l-2.8.05q-1.6-.3-2.6-1.05-1-.7-.85-1.5.15-.8 1.35-1.1l2.8-.1q1.6.25 2.6 1m71.75-2.45q.3.95-1.3 2.15t-4.15 1.95l-4.5.6q-2-.1-2.25-1.05-.3-.95 1.3-2.15t4.1-1.95q2.55-.75 4.55-.6 2 .1 2.25 1.05"/><path fill="#fff" d="M99.25 93.35q0 1.8-1.1 3.1-1.1 1.25-2.65 1.25-1.55 0-2.7-1.25-1.1-1.3-1.1-3.1t1.1-3.05q1.1-1.25 2.7-1.25 1.55 0 2.65 1.25 1.1 1.25 1.1 3.05m-54.3 4.2q.65.8.65 1.9 0 1.15-.65 1.9-.65.8-1.6.8-.9 0-1.55-.8t-.65-1.9q0-1.1.65-1.9.65-.8 1.55-.8.95 0 1.6.8"/><path fill="#0d131a" d="M67.1 140.4l3.8.25 8.2.2q5.8 0 15.25-1.75Q81 149.2 79.7 149.2q-1.25 0-12.6-8.8M36.6 86.85q-1.25 2.25-1.2 6.85 0 5.75 1.95 14.35.3 1.25-.15 1.3-.4.05-.75-.85-2.7-6.9-2.8-14.5-.1-6.8 1.6-8.5l-1.55-2.65q-.5-.85-.2-1.25.3-.45 1.3.65l14.75 16.6q1.15 1.35 1 1.8-.1.4-1.3-.35-8.2-7.95-12.65-13.45m45.25 8.55q4.55-3.85 11.05-8.65 5.9-4.4 8-5.6 1.55-.85 1.8-.45.25.4-.8 1.45L91.3 90.5l-10.1 7.95q-.35 2.75.45 6.65.7 3.6 1.95 6.2.25.55-.1.6-.4.05-.8-.5-1.9-2.3-2.8-5.95-.85-3.45-.4-6.3l-2 .25q-.4-.15.4-.8l3.95-3.2"/></svg>