<svg xmlns="http://www.w3.org/2000/svg" width="355" height="357" viewBox="-4.2 -3.8 355.2 356.9"><path fill="#b4ce8e" d="M137.2 140.55q13-.4 23.1 1.8 4.6 1.05 8 2.45-1.05 2.25-16.3 28.7-15.25 28.3-18.05 42.35l-.9 3.65-16.15.75-10.35-.4q-8.5-.3-10.9 0-5.2.65-10.1 3.45-4.85 2.75-8.95 7.35-1.2 1.4-4.35 6.65-3.35 5.55-4.1 7.8-1.1 3-1.75 6.5-1.75 9.05.65 16.6 1.05 3.25 1.45 6.05.9 6.8-2.6 6.1-4.2-.8-13.6-12.7-2.65-3.3-4.65-8.55Q39.5 258 32 254.8q-8.6-3.65-14.05-9.1-3.35-3.4-2.1-4.75.9-1 4.05-.8l9.4-.4 14.05-1.8-.3-6.4Q42.9 217 46.3 204.9q5.55-19.7 22.1-35.65 18.95-18.25 47.15-25.8 9.35-2.5 21.65-2.9"/><path fill="#fff" d="M84.8 223.75l3.45-1.85q3.45-1.6 7.4-2.05.65 3.3 2.75 6.5 2 3.05 2.05 3.5.25 2-1.5 3.4-1.7 1.3-3.3.85-1.55-.45-5.25-3.75-4.2-3.7-5.6-6.6m-5 23.15q-2.2.35-5.45-.05-3.75-.45-6.2-1.75 1.65-4.8 4.45-9.2 3.55 4.75 8.3 7.8 2.05 1.35 2.05 1.9 0 .8-3.15 1.3"/><path fill="#0d131a" d="M68.15 245.1q2.45 1.3 6.2 1.75 3.25.4 5.45.05 3.15-.5 3.15-1.3 0-.55-2.05-1.9-4.75-3.05-8.3-7.8 1.75-2.65 4-5.25 10.45 20.1 30.95 37.1-14.3.6-26.95-5.65-9.15-4.55-14.2-10.5.65-3.5 1.75-6.5"/><path fill="#ed8599" d="M306.15 5.9q5.65 3.95 8.45 10.1 2.5 5.4 2.3 11.2-.2 5.45-2.6 8.9-2.5 3.6-6.15 3.15-5.6-7.4-13.5-12.85-7.6-5.25-16.55-8.2-.2-3.6 1.95-7.45 2.25-3.95 6-6.35 9.4-6 20.1 1.5"/><path fill="#fff" d="M116.15 225.75q-.2 1.15-3.3-1-3.15-2.25-4.7-4.95l8.75.45-.75 5.5m22.3-46.3l-1.5-2.5q2.1-1.9 11.9-9.5l13.1-10.1-9.7 17.75-5.75 2.2q-4.75 1.75-8.05 2.15m174-93.5l7.8.95q-1.3 2.75-2.3 4-1.25 1.55-2.05 1.45-.8-.15-1.65-2.05l-1.8-4.35m24.4-11.6v.75q-.45 1.15-1.6 1.75-1.55.7-3.7.05 0-3.75-2.1-7.15.55-3.95 1.45-4.45.95-.55 3.15 2.45l1.7 3.2q.9 2.15 1.1 3.4M256 48.75q5.45 7.3 4.9 17.25-13.55 9.05-21.15 13.25-7.4-2.45-10.65-8.45-2.9-5.3-1.85-11.95.95-6.3 4.85-11 4.15-4.95 9.6-5.7 8.55-1.15 14.3 6.6m39.8-13.7q4.85 0 10.15 7.05 5.35 7.2 6.2 15.35l-1.15-.7q-6.3-4.2-14.7-4.45-3.35-3.15-3.95-10.1-.6-7.15 3.45-7.15"/><path fill="#922f00" d="M287.55 88.2q7.75-3.1 12.95-3.5 4-.3 9.1.7-3.4 7.2-1.85 14 .85 3.75 3.45 9.35.6 1.8.55 3.2-.3 3.45-2.9 6.45-2.7 3-7.15 4.95 3-2.7 3.7-7.6.75-4.8-1-10.1-4.05-12.5-16.85-17.45"/><path fill="#fff" d="M272.95 95.15l6.6-3.4q-.3 1.95-1.5 5.35-.55 1.45-1 1.6-.45.15-1.6-.9-1.55-1.3-2.5-2.65"/><path fill="#ed8599" d="M336.85 75.1v-.75q14.15 23.3 7.3 51.3-3.05 12.55-10 22.85-7.05 10.4-16.6 16.4-3.35-15.05-9.35-32.15 1.9-1.5 3.5-3.6 4.2-5.45 3.9-11.55-.3-5.8-4.4-8.85-2.6-5.6-3.45-9.35-1.55-6.8 1.85-14l2.85.55 1.8 4.35q.85 1.9 1.65 2.05.8.1 2.05-1.45 1-1.25 2.3-4l3.45-.55q4.05-1.25 6.05-3.9 1.75-2.35 1.8-5.55 2.15.65 3.7-.05 1.15-.6 1.6-1.75m-63.9 20.05q.95 1.35 2.5 2.65 1.15 1.05 1.6.9.45-.15 1-1.6 1.2-3.4 1.5-5.35 5.05-2.35 8-3.55 12.8 4.95 16.85 17.45 1.75 5.3 1 10.1-.7 4.9-3.7 7.6-5 2.2-11.3 2.65-11 .75-22.5-5.85-10.5-6.05-15.65-14.45 2.8-.8 5.45-2.15l6-3.3 9.25-5.1"/><path fill="#fff1ac" d="M329.45 69.75q2.1 3.4 2.1 7.15-.05 3.2-1.8 5.55-2 2.65-6.05 3.9l-3.45.55-7.8-.95-2.85-.55q-5.1-1-9.1-.7-5.2.4-12.95 3.5-2.95 1.2-8 3.55l-6.6 3.4-9.25 5.1-6 3.3q-2.65 1.35-5.45 2.15 5.15 8.4 15.65 14.45 11.5 6.6 22.5 5.85 6.3-.45 11.3-2.65 4.45-1.95 7.15-4.95 2.6-3 2.9-6.45.05-1.4-.55-3.2 4.1 3.05 4.4 8.85.3 6.1-3.9 11.55-1.6 2.1-3.5 3.6-6.25 5-15.7 5.85-9.35.75-19.15-2.75-5.7-2.05-21.35-10.75l-22.25-12.3q-10.15-5.2-9.45-14.6.65-9.6 12.4-15.25l7.05-3.7q7.6-4.2 21.15-13.25l4.75-3.15q16.35-11 30.65-10.55 8.4.25 14.7 4.45l1.15.7 6.25 3.65q5 2.9 8.35 5.5 1.55 1.25 2.7 3.15"/><path fill="#ed8599" d="M294.65 26.4q7.9 5.45 13.5 12.85 7.45 9.8 10.25 21.85l-6.25-3.65q-.85-8.15-6.2-15.35-5.3-7.05-10.15-7.05-4.05 0-3.45 7.15.6 6.95 3.95 10.1-14.3-.45-30.65 10.55L260.9 66q.55-9.95-4.9-17.25-5.75-7.75-14.3-6.6-5.45.75-9.6 5.7-3.9 4.7-4.85 11-1.05 6.65 1.85 11.95 3.25 6 10.65 8.45l-7.05 3.7q-11.75 5.65-12.4 15.25-.7 9.4 9.45 14.6L252 125.1q15.65 8.7 21.35 10.75 9.8 3.5 19.15 2.75 9.45-.85 15.7-5.85 6 17.1 9.35 32.15 4.3 19.2 4.6 36.75-7.75 5.55-26.5 6.7-17.2 1.05-28.7-1.95l.1 4.4q-.25 4.05-1.25 6.95-.8 2.4-2.05 4.15-1.35-1.25-4 0-2.8 1.4-2.2 4.35l.25.4q-3.25 1.3-7.1 1.05l-.1-1q-.95-1.55-4.15-1.8-3.15-.2-3.4 1.15l-.3-.1q-14.65-5.6-26.35-17.15l-2.35 4.45-2.2 3.1q11.2 5.55 19.1 14.85 5.95 6.95 9.35 15.15 3.35 8 3.75 15.9.15 3.55-.2 6.55-.95 8.05-4.55 15.2-4.25 8.5-11.95 15-4.1 3.45-8.85 6.05l-4.9 2.3q16.75 18.05 18.15 24.05-2.05-2.3-3.75-3.5-2-1.45-4.75-1.35-2.65.05-4.75 1.5-5.15 3.55-1.9 10.1l.25.35-1.15.5q-2.6-3.8-4.25-5.25-2.3-2.05-5.45-2.1-2.95-.05-5.55 1.65-6.1 4-3.4 10.8.5 1.3 3.9 2.7-5.6-.1-20.75-8.85-15.65-9-21.95-16.25-5.95-6.8-4.4-12.35 1.2-4.45 7.6-8.75l-3.85-4q-16.4-17.9-22.6-35.9-6.8-19.8-1.95-41.2l.9-3.65q2.7-10 7.75-20.7 3.25-6.95 10.55-20.05l9.7-17.75 6.35-12.55q6.55-13.7 12.05-28.2 5.9-15.6 8.1-33.8l1.4-12.8q.7-6.6 1.75-10.35l-2.2-.45q-10.35-2.6-13.9-13.75-3.65-11.3 3.15-21.3 8.75-12.85 22.6-12.35 13.9.5 21.1 14.2 11.1-8.7 26.4-10.7 14.75-1.9 29.35 2.9 8.95 2.95 16.55 8.2"/><path fill="#b4ce8e" d="M22.65 89.55Q17.8 86.4 13.6 81.7q-4.15-4.5-5.8-8.3-1.4-3.2-.2-3.5l3.05.7q6.45 1.7 13.85 2.45 1.65-7.4 4.05-12.75 6.4-14.25 15.7-1.25 4.15 5.9 8.7 11.55 5.6 6.95 10.7 11.7l6.7 5.55Q55.7 88.95 43.6 95.9q-10.2 5.95-17.6 15.95-3.6-9.05-3.35-22.3"/><path fill="#fff1ac" d="M322.15 201.65v1.3q.15 12.55-1.8 24.7-1.1 6.75-2.95 13.8-1.9 7-4.9 13.4-6.25 13.2-17.05 23-13.15 12-32.65 18.95-19.7 7.1-44.3 8.25 4.75-2.6 8.85-6.05 7.7-6.5 11.95-15 3.6-7.15 4.55-15.2.35-3 .2-6.55-.4-7.9-3.75-15.9-3.4-8.2-9.35-15.15-7.9-9.3-19.1-14.85l2.2-3.1 2.35-4.45q11.7 11.55 26.35 17.15l.3.1q-.15 1.3 3.3 8l1 1.55q.5.55.9.15.45-.35.95-1.9 1.4-4.4 1.5-6.15 3.85.25 7.1-1.05 1.55 1.7 5.05 4.1 1.05.75 1.35.25.2-.35.2-2.05 0-5.9-.45-6.7l-.2-.35q1.25-1.75 2.05-4.15 5.65.15 6.05-.85.15-.4-1.8-2.75l-3-3.35-.1-4.4q11.5 3 28.7 1.95 18.75-1.15 26.5-6.7"/><path fill="#ed8599" d="M84.8 223.75q1.4 2.9 5.6 6.6 3.7 3.3 5.25 3.75 1.6.45 3.3-.85 1.75-1.4 1.5-3.4-.05-.45-2.05-3.5-2.1-3.2-2.75-6.5 4-.5 12.5-.05 1.55 2.7 4.7 4.95 3.1 2.15 3.3 1l.75-5.5 16.15-.75q-4.85 21.4 1.95 41.2 6.2 18 22.6 35.9-6.5-2.5-12.6-5.35-20.9-9.8-37.45-23.5-20.5-17-30.95-37.1 3.65-4.1 8.2-6.9m240.6 64.75q3.5 1.75 5.9 3.05-2.3-1.15-4.7 1.6-2.6 2.95-1.15 6.85-3.7-1.7-5.9-1.55-5.85.35-7.85 5.25-1.9 4.6.9 7.45l-.15.45q-.25.4-.15.45-12.2.55-27.8-.7-16.7-1.35-18.95-3.6-2-2-1.4-5.45 1.15-4.1 1.4-6.25 5.9-1.75 12.3-5.3 8.95-5 17.6-12.9 10.8-9.8 17.05-23 3-6.4 4.9-13.4 1.85-7.05 2.95-13.8 1.95-12.15 1.8-24.7 24.8 17.9 22.55 41.25-2.2 22.95-29.1 39.75 2.45.9 9.8 4.55"/><path fill="#fff" d="M326.8 293.85q2.55-2.15 4.9-.9l3 1.75q2.1 1.3 6.6 4.6 3.5 2.5 2.65 3.95-1.2 1.95-10.05 2.3-3.75-3.3-8.45-5.55-1.45-3.85 1.35-6.15M85.1 193.9q-2.9-5.5-3.9-8.85l41.1-3.95 1.7 3.3q-6.3 4.85-19.5 10.8-12.3 5.5-14.5 5.2-1.6-.25-4.9-6.5"/><path fill="#b4ce8e" d="M81.2 80.45l.05-5.45q0-3.2 1.45-3.45 1.55-.2 4.45 3.3 5.6 6.8 7.65 16.45 7.6 3 12.85 8.2 5.55 5.55 8 13.1-25.35-2.85-47 7-14.85 6.75-25.75 20.8-9.9 12.75-14.8 29.15-9.65-8.55-12.05-20.4-3.8-2.35-7.55-6.55-3.65-4.05-5.5-7.85-1.9-3.9-1.05-4.75l3.35.15 4.45 1.55q3.65 1.25 6.4 1.9 2.25-11.45 9.85-21.75 7.4-10 17.6-15.95 12.1-6.95 26.75-8.05 4.9-.35 9.85.1.8-3.8 1-7.5"/><path fill="#b4ce8e" d="M42.9 140.4q10.9-14.05 25.75-20.8 21.65-9.85 47-7l10.3 1.65 5.95 1.5q12 3.4 18.75 9.6 6.8 6.35 9.65 17-10.1-2.2-23.1-1.8-12.3.4-21.65 2.9-28.55 7.6-46.45 24.2-16.65 15.4-22.8 37.25-3.4 12.1-3.25 26.65-7.85-3.2-12.65-11.45-4.55-7.75-5.7-18.85-.9-9.55.75-20.05.9-5.75 2.65-11.65 4.9-16.4 14.8-29.15"/><path fill="#fff" d="M267.05 210.8l3 3.35q1.95 2.35 1.8 2.75-.4 1-6.05.85 1-2.9 1.25-6.95"/><path fill="#b4ce8e" d="M13.4 197.2q-5.3-2.65-9.4-6.75-3-3.05-2.6-4.5.4-1.6 4.8-1.6l8.4-.5q6.85-.8 10.85-2.65-1.65 10.5-.75 20.05-6.5-1.6-11.3-4.05m94.15 70.55q16.55 13.7 37.45 23.5-22.5 5.5-44.7.15-21.05-5.1-31.8-17.15-.4-2.8-1.45-6.05-2.4-7.55-.65-16.6 5.05 5.95 14.2 10.5 12.65 6.25 26.95 5.65M62.8 67.9q2.7-1.55 3.65-1.15.95.45.95 3.35 0 1.95-1.3 6.15-1.3 4.15-2.45 6.05-5.1-4.75-10.7-11.7 6.3-.75 9.85-2.7m83.15 33.25q1.75 3.5 3.45 11.2 1.85 8.55 1.25 13-6.75-6.2-18.75-9.6 2.75-3.8 4.95-7.9 2-3.8 2.95-6.7 1.05-3.1 2.4-3.5 1.7-.6 3.75 3.5"/><path fill="#fff" d="M263.95 222.25q.45.8.45 6.7 0 1.7-.2 2.05-.3.5-1.35-.25-3.5-2.4-5.05-4.1l-.25-.4q-.6-2.95 2.2-4.35 2.65-1.25 4 0l.2.35m-13.35 4.45l.1 1q-.1 1.75-1.5 6.15-.5 1.55-.95 1.9l-.9-.15-1-1.55q-3.45-6.7-3.3-8 .25-1.35 3.4-1.15 3.2.25 4.15 1.8m83.35 78.85q3.95 3.45 3.85 4.45-.1 1.35-5.8 1.9l-9.75.6q-7.1.1-9.15-1l-.5-.35q-2.8-2.85-.9-7.45 2-4.9 7.85-5.25 2.2-.15 5.9 1.55 4.7 2.25 8.45 5.55h.05M206 331.65q3.15.05 5.45 2.1 1.65 1.45 4.25 5.25 2.2 3.05 4.6 7.05 2.55 4.2 1.15 4.85l-6.7-.35-5.85-1.25q-4.9-1.2-7.95-2.5-3.4-1.4-3.9-2.7-2.7-6.8 3.4-10.8 2.6-1.7 5.55-1.65m10.6 6.5q-3.25-6.55 1.9-10.1 2.1-1.45 4.75-1.5 2.75-.1 4.75 1.35 1.7 1.2 3.75 3.5 3.1 3.55 5.35 7.2 2.9 4.6 1.65 5.55l-6-.2q-4.3-.8-8.8-2.2-5.85-1.8-7.1-3.25l-.25-.35"/><path fill="#0b6f6b" d="M78.35 213l1.85 1.45q1.9 1.55 1.85 1.95-.1 1.35-2.5 2.25-2.5.9-3.4-.35-.15-.2.9-2.4l1.3-2.9m-11.8 1.4q1.1 5.55.7 5.75l-4.3 3.2q-4 2.95-4.25 2.75l-8.65-5.2q-.2-.35-.05-6.6.15-6.35.45-7.6l7.05.4q6.95.85 7.4 1.3.5.4 1.65 6m-14.3-37.75q-2.15 1.6-2.35 1.25l-1.1-1.15-1-1.35q-.1-.4 1.4-.9 1.5-.55 1.85-.35l.9 1.25q.55 1.05.3 1.25m.95-32.25l1.55-.15q1.3.15 1.35.65.15 1.9 1.95 6.65 1.65 4.25 1.4 4.6-3.05 4.6-3.55 4.5-7.4-.8-7.7-1.35-.55-1.05 1.7-7.5 2.2-6.3 3.3-7.4m-10.75-32.05l4.65 2.6q3.6 1.9 3.4 2.2-2.25 3.05-3.1 5.4l-3.4-.2q-3.3-.5-3.55-.9l-1.8-3.1q-1.45-2.75-1.1-2.95l3.05-2q1.65-1.2 1.85-1.05m-7.8-20.05l-1.15-.7-1.05-.75q-.15-.1 1.65-2.5 2.6 1.25 2.4 1.6-1.5 2.45-1.85 2.35m28.6 24.7q-3.05 3.25-3.2 3.1l-1.25-1.9q-.1-.15 1.1-1.35l1.4-1.35q.25-.15 1.15.65l.8.85"/><path fill="#97ae79" d="M43.35 237.95l-.3-6.4.05-4.2q2.25 8.05 10.2 17.1 8.4 9.55 13 7.8-1.55 8.7.75 15.95 1.05 3.25 1.45 6.05.9 6.8-2.6 6.1-4.2-.8-13.6-12.7-2.65-3.3-4.65-8.55-12.45-1.65-22.5-7.8 10.6-2.85 13.25-12.5l4.95-.85"/><path fill="#dbdcdc" d="M97.1 224.1q-4.2-.1-9.6 3.45-1.9-2.05-2.7-3.8l3.45-1.85q3.45-1.6 7.4-2.05.45 2 1.45 4.25m-18.2 18.2q-7.2.1-8.35 3.75l-2.4-.95q1.65-4.8 4.45-9.2 2.65 3.6 6.3 6.4m38-22.05l-.45 3.6-5.75-.9q-1.65-1.6-2.55-3.15l8.75.45"/><path fill="#6a1a00" d="M299.8 97.15q-4.8-6.05-12.25-8.95 7.75-3.1 12.95-3.5 4-.3 9.1.7-3.4 7.2-1.85 14 .85 3.75 3.45 9.35.6 1.8.55 3.2l-.3 1.65q-2.15-1.8-3.75-2.9l-2.45-1.6q-1.15-6.5-5.45-11.95"/><path fill="#ce7486" d="M272.95 95.15q.95 1.35 2.5 2.65 1.15 1.05 1.6.9.45-.15 1-1.6 1.2-3.4 1.5-5.35 5.05-2.35 8-3.55 7.45 2.9 12.25 8.95 4.3 5.45 5.45 11.95-8.85-5.6-20.3-7.45-8.85-1.45-22-.95l10-5.55M157.6 296.6q-12.15-13.25-18.65-26.45-7-14.25-7.85-29.05 12.3 26.9 41.45 37.9 26.45 9.95 58.5 4.35 6.35-1.5 10.05-3.5l-1.8 4.15q-4.25 8.5-11.95 15-4.1 3.45-8.85 6.05l-4.9 2.3 8.35 9.35q-18.35-3.65-32-2.4-18.2 1.6-27.15 11.75-2.65-2.2-4.55-4.35-5.95-6.8-4.4-12.35 1.2-4.45 7.6-8.75l-3.85-4"/><path fill="#97ae79" d="M24.5 73.05l2.1 11.65q2.9 13.35 6.95 18.7-4.15 3.85-7.55 8.45-3.6-9.05-3.35-22.3l-5.45-3.9-5.2-4.3q2.15-.35 4.65-3.15 2.7-3.1 2.55-5.85l5.3.7"/><path fill="#dcd096" d="M305.65 266.4q-4.7 6.45-10.2 11.45-13.15 12-32.65 18.95-19.7 7.1-44.3 8.25 4.75-2.6 8.85-6.05 7.7-6.5 11.95-15l.15-.35q41.15 2.65 66.2-17.25"/><path fill="#ce7486" d="M108.15 219.8l1.1 1.6q1.1 13.55 8.75 25.3 7 10.7 18.95 19.1 6.6 15.5 20.65 30.8-6.5-2.5-12.6-5.35-20.9-9.8-37.45-23.5-20.5-17-30.95-37.1 3.65-4.1 8.2-6.9 1.4 2.9 5.6 6.6 3.7 3.3 5.25 3.75 1.6.45 3.3-.85 1.75-1.4 1.5-3.4-.05-.45-2.05-3.5-2.1-3.2-2.75-6.5 4-.5 12.5-.05"/><path fill="#dbdcdc" d="M326.8 293.85q2.55-2.15 4.9-.9l.7.4q-2.3 5.85.45 11.3-3.8-2.9-7.4-4.65-1.45-3.85 1.35-6.15"/><path fill="#97ae79" d="M20.4 121.1q-.75 9.7 3.1 17.85 4.3 9.05 12.55 11.85-4.95 8.75-7.95 18.75-9.65-8.55-12.05-20.4-3.55-2.25-7.1-6.1-3.45-3.7-5.45-7.35 4.45 2.75 8.1 1.85 3.25-.8 4.55-3.95 1.25-6.3 4.25-12.5m5.05 60.1q.8-5 2.35-10.55 1.5 12.25 5.3 22.8 4.4 12.25 11.25 20.25-1.45 8.95-1.3 17.85-7.85-3.2-12.65-11.45-4.55-7.75-5.7-18.85-.9-9.55.75-20.05"/><path fill="#97ae79" d="M5.6 191.9q9.7-1.55 12.9-8.65 4.2-.75 6.95-2.05-1.65 10.5-.75 20.05-11.85-2.9-19.1-9.35m118.35 87.75q10.15 6.5 21.05 11.6-22.5 5.5-44.7.15-21.05-5.1-31.8-17.15-.4-2.8-1.45-6.05l-.2-.7Q78.7 275.7 94 278.7q14.2 2.85 29.95.95"/><path fill="#dbdcdc" d="M317.05 298.9q0 4.5 3.7 8.1 3.15 3.05 8.6 5.15-13.2 1.05-16.25-.65l-.5-.35q-2.4-2.4-1.2-6.55 1.25-4.35 5.65-5.7m-120 45.2q-1.05-2.65-.55-5.15.5-2.3 2.15-4.1 3.6 5.8 9.55 10 5.05 3.55 12.35 6.25l-5.8-.55-5.85-1.25q-4.9-1.2-7.95-2.5-3.4-1.4-3.9-2.7m21.15-15.8q3.2 8.85 11.4 14.95-4.25-1-7.55-2.15-4.2-1.45-5.2-2.6l-.25-.35q-1.6-3.2-1-5.9.5-2.35 2.6-3.95"/><path fill="#ce7486" d="M295.9 277.7l6.05-6.25q11.35.45 21.2-2.95 10-3.4 17.9-10.6-7.2 14.7-25.05 25.9 2.4.85 8 4.1-10.25 2.9-19.8 8.95-9.35 5.9-16.85 14.1-19.25-1.2-21.55-3.55-1.9-1.9-1.4-6.7.45-4.15.3-4.1 17.1-6.05 31.2-18.9M180.65 54.8q-3.3-3.25-5.25-7.6 6.65 6.15 18.4 6.2 11.45.05 16.7-5.45-.55 3.5-3.15 6.8-5.25 6.55-15.65 5.4-6.3-.7-11.05-5.35m123.9-20.6l4.15-.25q4.9-1.3 8.5-6.25l-.15 1.65q-.25 2.05-1 3.8-2.25 5.6-7.9 6.45l-3.6-5.4m-104.7 148.3q6.15 7.9 13.2 14.7 22.55 21.95 45.8 25.15l-1.7 4.05q-4.05 1.5-6 1.15-.25-.5-.9-1.05-1.25-1.15-3.05-1.45l-3.25.25-1.1.65q-14.65-5.3-24.3-13.8-14.55-12.85-23.45-36.2l4.75 6.55M339.5 139q-8.9 19.35-22.15 26.3l-2.55-11.5 2.65-.9q3.4-1.5 7-4.25 11.6-8.9 21.3-27.55l-1.45 5.35q-2 6.55-4.8 12.55"/><path fill="#97ae79" d="M99.35 138.45l1.8-3.95q1.1-1.85 2.8-2 4.25-.4 6.35-2.35 2.15-1.9 1.75-4.95 1.15 1.2 2.7 6.35 1.55 5.15 1.2 6.55-.5 2.2-3.55 3.5-2.75 1.2-6.3 1.25-3.5.05-5.5-1.05-2.2-1.25-1.25-3.35m48.4-34.15q2.45 5.95 3 13.85.3 3.95.05 6.7-1.95-1.5-5.25-3.45-6.55-3.85-13.2-6l1.3-2.8 1.3-1.4q2.85 1 6.95-.9 4.45-2.1 5.85-6M87.3 87.05q3.35-4.6 2.35-8.8 3.5 4.65 5.75 11.85 2.05 6.6 1.45 9.4-.85 3.55-4.5 5.55-3.2 1.8-7.45 1.85-4.1.05-6.75-1.5-2.8-1.7-2.25-4.45.6-3.05 1.6-5.3.85-1.85 1.35-2.05 5.2-2.05 8.45-6.55M53.6 70.9q10.45 4.9 13.9.65L64.3 82.6 53.6 70.9"/><path fill="#0d131a" d="M248.7 14.35q16-2.05 30.8 2.85 15.8 5.3 26.5 17 10.95 11.95 13.6 27.45l-1.2-.2-1.35-.95q-3.15-14.35-13.15-25-10.05-10.6-25.15-15.65-15.55-5.2-31.45-2.85-15.95 2.3-26.25 11.25-2.25 2-2.5 1.05-.2-.9 2-2.9 10.75-9.85 28.15-12.05"/><path fill="#0d131a" d="M214.05 14.6q5.55 4.1 8.9 10.7.2.35-.8.8l-1.15.05q-3.05-6.05-8.15-9.55-5.05-3.55-11.15-3.95-6.4-.35-12.25 2.8-5.95 3.15-10.05 9.2-6.45 9.5-2.85 20.5 3.5 10.75 13.1 13.15 6.05 1.5 10.85-.25 3.35-1.2 5.7-3.8 2.5-2.75 3.4-6.4.85-3.65-.25-6.85-1.2-3.4-4.25-5-2.75-1.4-5.9-1.05-4.45.55-5.95 4.8-.65 1.8-1.2 1.4-.6-.35-.25-2.2.5-2.65 2.25-4.4 1.95-2 4.95-2.35 3.6-.45 7.15 1.75 3.75 2.3 5.2 6.45 1.25 3.65.25 8.1-1.05 4.45-3.85 7.55-2.6 2.9-6.55 4.3-5.55 1.95-12.2.3-11.15-2.75-15.15-14.85-3.95-12.1 2.9-22.3 4.45-6.5 11.2-10.25 6.9-3.8 13.85-3.35 6.55.45 12.25 4.7M306.9 4.5q7.45 5.2 10.25 13.9 2.55 7.95.2 14.7-1.1 3.05-3.35 5-2.1 1.8-4.55 2.05-.25.05-.8-.9-.55-.95-.2-.9 2.05.1 3.8-1.4Q314 35.4 315 32.5q2.2-6.25-.05-13.25-2.45-7.75-9.35-12.6Q295.1-.7 286.05 5.6q-3.5 2.4-5.5 6.15-1.95 3.55-1.55 6.3.05.45-1.15 0t-1.25-1.1q-.2-3.5 2.05-7.5 2.35-4.15 6.3-6.75 10.1-6.5 21.95 1.8"/><path fill="#0d131a" d="M299.1 28.95q.1-3.05.9-4.1 1.25-1.75 5.2-1.45 1.95.15 2.35.85.35.65-1.6.65-2.7 0-3.9 1.15-1.4 1.4-1 4.55.05.4-.95-.4t-1-1.25m28.6 36.9q5.75 3.9 5.5 11.25-.3 7.95-8.75 10.55l-5.85.5-6.05-1L306.8 86l-6.25-.35q-7.7.6-19.3 6.35l-17.4 9.7-6.6 3.5q-8.2 3.95-13.7 3.15-4.05-.6-7.35-4.1-1.45-1.5-1.05-2.3.45-.75 1.95.65 3.35 3.25 8.5 3.3 5.1 0 11.7-3.15l5.75-3.2q12.55-7.05 18.25-9.8 11.95-5.7 19.1-6.25l6.35.35L312.4 85l5.75.95 5.25-.45q6.1-1.85 7.25-7.65 1.15-6.05-4.5-10.55-1.95-1.55-7.25-4.7l-8.4-5.1q-7.25-4.8-16.5-4.35-12.6.6-27.95 10.8Q256 70.7 249.15 74.9q-8.75 5.4-16.05 8.9-5.65 2.7-8.75 6.65-3.1 3.95-3.2 8.5-.05 4 2.3 7.4 2.35 3.4 6.7 5.65 1.85.95 20.1 11.15 18.45 10.05 23.4 11.8 11.45 4.05 21.7 2.3 10.3-1.75 15.6-8.65 3.55-4.6 3.75-9.9.2-5.4-3.25-8.6-.25-.25-.2-1.2 0-1 .3-.8 5.35 3.65 5.25 10.55-.05 6-3.85 10.95-6.25 8.05-17.25 9.9-10.5 1.8-22.7-2.5-4.85-1.75-22.55-11.5-19.05-10.5-21.65-11.65-4.95-2.25-7.85-6.25-2.85-4.05-2.8-8.55.1-5 3.75-9.65 3.65-4.6 9.75-7.6 7.65-3.65 16.95-9.1l16.85-10.65Q278 53.5 289.1 51.55q12.6-2.25 22.15 4.35l8.95 5.5 7.5 4.45"/><path fill="#0d131a" d="M308.65 85.15l1.4.05q1.25.35 1.15.55-2.95 6.1-2.6 11.25.2 3.35 2.25 8 1.95 4.6 1.8 7.05-.5 5.95-6.85 10.2-6.35 4.3-15.65 4.95-11.4.8-23.1-5.7-11-6.05-16.1-14.7-.2-.35.75-1.05 1-.75 1.2-.45 4.95 8.35 15.35 14.2 11.25 6.3 22.1 5.55 8.45-.55 14.25-4.3 5.8-3.7 6.2-8.85.1-1.15-.4-2.75l-1.25-3.1q-2.25-5.2-2.7-8.65-.7-5.9 2.2-12.25"/><path fill="#0d131a" d="M286.45 88.75q-.6-.2.9-.85 1.45-.6 2.25-.25 8.95 3.75 13.55 11.9 4.2 7.3 3.45 15.15-.35 4.4-2.85 7.7-1.2 1.65-2.85 1.75-1.8.05-.6-.85 3.75-2.65 4.3-8.65.7-7.55-3.9-14.7-5.05-7.9-14.25-11.2M189.4 60l1.75-.1q1.6.3 1.5.65-1.3 4.45-2.4 15.2-1.4 12.85-2.35 18.2-2.15 12-6.4 23.25-6.25 16.6-14 32.25-4.6 9.3-13.2 24.75-7.75 13.9-11.05 20.8-5.3 11.15-8.1 21.4-6.15 22.55.4 42.9 6.6 20.4 26.75 40.9 1.25 1.25.6 1.85-.65.65-1.9-.6-21.3-20.25-28.45-40.95-7.2-20.75-.9-44.1 2.85-10.45 8.35-22.2 3.75-7.95 11.3-21.5l13.55-24.5q8.3-15.9 14.35-31.95 4.1-10.95 6.15-23.75l2.2-18.85.85-7.4q.4-3.5 1-6.25m147.1 15.8q-.2-.35.05-1.75T337 73q7.35 11.8 9.7 25.6 2.45 14.35-.95 28.05-3.15 12.65-10.35 23.15-7.15 10.35-16.75 16.35-.35.2-.9-.95-.55-1.1-.1-1.4 9.05-5.85 15.8-15.85 6.7-10.05 9.75-22.2 3.3-13.25 1.6-26.1-1.75-12.8-8.3-23.85m4.65 144.8q6.75 11.2 6 22.35-.85 12.9-10.35 24.5-9.35 11.45-25.9 20.15-2.65 1.45-3.55.85-.9-.65 1.65-2.2 16.55-9.95 25-20.3 8.8-10.75 9.6-23 .7-10.55-4.65-20.45-5.45-10-16.4-18.15-.35-.2-.45-1.9-.15-1.75.15-1.5 12.3 8.7 18.9 19.65M189.3 159.65q-.4-2.8.6-3.9 1.05-1.1 1.45 1.7 3.25 22.75 17.5 41.4t34.25 26.2q.25.65 0 1.55l-.35.8q-18.4-6.7-32-21.4-17.55-18.95-21.45-46.35m68.1 65.85l1.5 1.65q-3.8 1.75-8.4 1.45v-2.15q3.7.3 6.9-.95m-23.9-74.05q-2.5-1.7-1.2-2.1 1.3-.4 3.8 1.3 12.5 8.55 22.1 25.45 10.55 18.55 9.75 34.75-.35 7.1-3.5 11.6-.15-1.2-1.45-1.55 2.15-3.4 2.5-10.45.65-13.9-10.05-32.85-10.2-18.1-21.95-26.15"/><path fill="#0d131a" d="M237 146.7q-1.05-2.05.15-1.6 1.2.4 2.2 2.45l1.7 3.2q1.75 3.7 2.05 6.15.05.35-1.75-.8t-1.9-1.45l-1.45-5.2-1-2.75m-30.55 68.9q-3.5-1.35-2.05-2 1.45-.6 4.9.8 18.65 7.7 28.65 24.3 9.2 15.3 7.3 30.75-2.2 18.35-16.4 30.2-10.5 8.75-20.1 9.9-2.55.3-3.05-.35-.5-.65 1.85-1.3 9.95-2.9 17.95-9.25 14.25-11.35 16.5-29.95 1.75-14.25-7.15-29.25-10.05-16.8-28.4-23.85"/><path fill="#0d131a" d="M212.25 308.1l2.95-1.55q5.9 6.15 11.1 13.35 6 8.35 6.45 12 .05.4-1.3-.9-1.3-1.3-1.9-2.3-3.5-6.15-17.3-20.6m-51.8-8.5q.35-.2 1.15.6.85.8.55 1.05-7.05 4.65-7.65 9.4-.6 4.7 4.4 10.45 5.7 6.5 19.4 14.65 12.6 7.5 20.05 9.65 1.1.3 2.6 1.2 1.5.9 1.1 1-4.7 1.25-21.8-7.8-17.35-9.15-23.8-16.6-2.8-3.2-4.15-6.45-1.35-3.25-1-6 .8-5.6 9.15-11.15m167.35-11.55q6.45 4.45 8.3 6.8l-2-.45q-2.35-.85-3.75-1.75-3.85-2.45-8.95-5.05-4.95-2.5-6.75-2.95-.4-.1 1.15-1.35 1.5-1.25 1.9-1.1 3.65 1.45 10.1 5.85m-64.3 8.85l2.85.05q-1 3.9-1.05 5.55 0 2.2 1.4 3.6 1.9 1.95 17.6 3.65l27.9 1.2q.5-.05 1.95 1.05 1.4 1.05 1 1.1-13.4.8-29.8-.3-18.25-1.3-21.1-4.1-1.85-1.85-1.85-5.2 0-2.4 1.1-6.6m-48.7-89.85q.15-.35 1.45.65 1.3 1.05 1.15 1.4-1.5 4-4.85 8l-1.3-.25q-1.05-.55-.85-.9 3-5.5 4.4-8.9m107.2-6.4q.3-.2.4.85l-.1 1.2q-7.7 6.1-26.25 7.45-16.7 1.2-28.85-1.8-.2-.1-.45-1.55-.2-1.45.15-1.35 11.4 3.05 28.9 1.95 18.9-1.2 26.2-6.75m-1.75 26.1q.3-.2.35.85l-.25 1.35q-9.8 8.65-36.15 10.6-28.15 2.1-51.9-6-.65-.2-1.65-2-1-1.85-.6-1.65 24.7 9.3 54.95 6.7 12.1-1.05 22-3.9 9.3-2.7 13.25-5.95m-37.1 39.35q-20 2.45-38.6-1.65-.2-.05-.45-1.65-.25-1.6.1-1.55 19.35 4.45 40.45 1.95 21.15-2.45 28.3-10 .3-.35.1 1.1-.15 1.45-.65 1.8-9.15 7.55-29.25 10m15.85 8.5q-2.9 3.6-4.35 4.4-10.1 5.4-25.85 7.5-16.95 2.25-29.35-1.2-.35-.1-.1-1.45.25-1.35.6-1.25 13.15 3.65 32.65.65 18.4-2.8 26.4-8.65m-59.6 27.1q-8.15.05-13.45-1.15-.4-.05.7-1.25 1.05-1.15 1.4-1.05l18.5.55q10.9-1.05 20.3-4.15-6.05 4-11.05 5.2-7.3 1.75-16.4 1.85m-130.95-34.45q20.65 17 47.4 27.65.4.95 1.7 2.6l1.95 2.2q-29.75-11.3-51.55-29.1-21.15-17.3-32.3-38.55-.15-.3.7-1.25.85-1 .95-.75 10.45 20.1 31.15 37.2"/><path fill="#0d131a" d="M307.55 134.15q-.15-.35.85-1.4 1.05-1.1 1.15-.75 11.45 32 14 58.6 2.65 27.4-3.8 51.7-8.8 33-40.65 49.8-13.45 7.1-30.45 10.75-15.15 3.3-32.1 3.65l2.65-2.35q15.55-.75 29.55-4.1 15.45-3.7 28-10.3 31.25-16.45 39.75-48.5 6.5-24.35 4.35-50.1-2.15-25.8-13.3-57M106.15 266.9q.65-.05 1.3 1.05.6 1.1.25 1.15-15.1.75-27.75-5.65-8.85-4.5-13.65-10.55-.15-.15.35-1.05.5-.85.7-.6 3.8 5.3 12.35 9.8 11.95 6.2 26.45 5.85m37 23.85q.55-.15 2.7 1.1 2.15 1.25 1.75 1.35-24.55 6.05-47.1.4-20.3-5.05-32-17.35-.45-.5-.6-2.35-.15-1.9.15-1.55 9.6 11.9 30.1 17.5 22.15 6.05 45 .9"/><path fill="#0d131a" d="M132.75 218.55q.4-.05.4 1.25.05 1.3-.35 1.35l-13.25.6-10.9-.8L98 220.6q-5.35.25-9.35 2.1-12.5 5.75-18.45 20.3-5.55 13.55-2.05 24.85 3.95 12.6 1.25 14.8-2.55 2.15-10.4-5.15-4.05-3.75-7.65-8.65-4.35-5.9-5.15-9.75l2.7.4q.7 2.85 4.65 8.15 3.65 4.9 7.25 8.2 5.3 4.85 6.45 2.9 1.05-1.9-1.4-10.3-3.65-12.35 1.45-26.35 5.8-15.95 20.25-22.6 4.15-1.9 9.95-1.85l11.05.75 10.95.75 13.25-.6m35.05-74.8q.35.1-.15 1.25-.5 1.1-.85.95-14.25-5.05-32.35-3.95-18.4 1.15-35.7 8.4-18.55 7.8-31.55 21-14.4 14.55-20 33.75-4.4 14.95-3 32.9l-2.15-.25q-1.55-18.05 2.7-33.1 5.9-21 21.2-36.35 13.7-13.75 33.15-21.45 17.8-7.1 36.75-7.8 18.25-.7 31.95 4.65"/><path fill="#0d131a" d="M45.75 235.75q3.55-1.05 4.15 0 .6 1.05-2.95 2.15-5.2 1.55-15.7 2.55l-11.4.6q-3.6-.2-3.75.6-.15.75 2.5 3.4 6 6 15.7 9.7 8.05 3.05 16.1 3.7 3.65.3 3.45 1.75-.15 1.4-3.8 1.1-8.2-.65-16.9-4.3-9.8-4.1-16.2-10.5-3.4-3.35-3.35-5.3.05-2.65 6.35-2.3l10.85-.65q9.95-1 14.95-2.5M35.9 155.2q-11.2 21.9-10.25 42.35.6 12.4 5 20.9 4.4 8.55 12.1 12 .45.2.45 1.5 0 1.25-.35 1.1-8.65-3.45-13.8-12.55-5.2-9.2-5.85-22.3-1.05-22.6 10.5-44.9 12.8-24.65 34.6-34.55 13.1-5.95 28.25-7.4 15.15-1.45 30.45 1.85 15.7 3.4 23.9 10.4 8.2 6.95 11.3 19.5.05.35-1.35 0-1.4-.4-1.5-.75-3.1-11.4-10.9-17.7-7.75-6.25-22.7-9.5-13.25-2.85-28.05-1.35-15.5 1.55-28.65 7.55Q48.4 130.7 35.9 155.2"/><path fill="#0d131a" d="M28.3 167.4q.25.25-.25 1.65-.55 1.35-.85 1.15-5.2-3.85-8.45-9.7-3.2-5.75-4.2-12.7l1.65 1.75q.9.85 1.7 1.15 2.6 10.15 10.4 16.7m14.85-72.3q8.2-4.7 17.9-6.85 9.55-2.2 18.95-1.5v2.1q-9.2-.75-18.5 1.25-9.55 2.05-17.45 6.6-9.95 5.7-17.1 15.9-7.15 10.1-9.3 21.3-2.05-.2-2.65-.6 2.2-11.7 9.75-21.85 7.4-10 18.4-16.35m51.95-2.7v-2.35l1 .35q8 3.3 13.55 8.95 5.6 5.7 7.95 13.1.1.35-1.4.3-1.45-.05-1.6-.5-2.3-6.75-7.25-11.8-4.95-5.05-12.25-8.05"/><path fill="#0d131a" d="M21.35 88.55l2.25 1.9q-.15 11.8 3 20.35l-2 2.9q-2.15-6.7-2.9-12.45-.85-6-.35-12.7m14.6-34.85q-3.45.1-6.55 6.95-2.3 5.05-3.9 12.3l-2.7-.2q1.4-6.5 4.3-12.85 3.25-7.15 7.7-8.05 5.05-.95 10.5 6.65 13.45 18.95 28.5 29.1l-4.75.45Q63.15 83.7 57 76.8 50.9 70 43.5 59.6q-4.25-6-7.55-5.9m111.1 47q2.1 4.2 3.9 12.1 2 9.05 1 13.15-.05.35-1.45-.45-1.35-.8-1.3-1.15.95-3.85-.75-11.9-1.45-7.15-3.35-10.9-1.55-3.1-2.55-3.1-.9.1-1.85 2.95-2.15 6.4-7.55 14.15l-1.35-.1q-1.15-.35-1-.55 6.55-9.3 8.15-14.05 1.55-4.7 3.45-4.85 2.25-.15 4.65 4.7m-64.9-29.75Q84.3 70 87.9 74.3q4.15 5.05 6.25 9.9 2.35 5.5 3.15 12.95.3 3.05-.85 4.1-1.2 1.05-1.45-2.05-1.15-14.75-8.55-23.75-4.5-5.5-4.3.6.35 11-4.5 23.7-.95 2.35-1.95 1.65-1.05-.7-.15-3.05 5.1-13.4 4.75-22.3-.1-4.25 1.85-5.1"/><path fill="#0d131a" d="M62.35 67.1q3.45-1.9 4.6-1.65 1.55.35 1.55 4.45 0 2.65-.95 6.9-1 4.55-2.05 5.8-.25.3-1.5-.65-1.3-.95-1.05-1.25 1-1.15 2.25-4.85 1.3-3.75 1.3-5.75l-.2-2.05-.2-.45q-.55-.2-2.85 1.1-3.5 1.95-9.9 2.8l-.85-2.35q7.85-.95 9.85-2.05m-34.9 4.65q2.7.2 2.65 1.4-.05 1.2-2.75 1.05-9.3-.55-16.95-2.7l-1.9-.2q-.5.25.15 1.75 1.8 4.05 5.15 8.05 3.95 4.7 8.95 7.7 2.65 1.55 3.4 3.65.75 2.1-2 .55Q18 89.55 12.7 83.4q-4.35-5.1-6.35-9.6-1.75-4 0-4.65.95-.35 4.5.55l6.75 1.15 9.85.9M8.2 132.1l-3.15-1.05-2.2-.15q-.5.5.95 3.45 2.25 4.55 6.9 9.25 4.95 4.95 9.05 6.35 2.35.8 1.5 1.85-.8 1-3.2.2-4.4-1.5-9.3-7-4.3-4.85-6.8-10-2.5-5.2-1.15-6.15.85-.6 4.7.45l3.35 1.1q7.6 2.65 13.75 3 2.8.15 2.75 1.25-.05 1.05-2.85.9-3.55-.2-7.85-1.35l-6.45-2.1m-5.7 54.1q-.45 1 2.15 3.6 3.75 3.75 8.45 6.25 4.75 2.5 11.15 4.15.35.1.75 1.7.4 1.6.05 1.5-13.7-3.3-22.15-12.35-7.1-7.6 3.3-7.6 6.15 0 11.4-1.1 4.65-1 7.75-2.7.3-.2.2 1.2l-.4 1.45q-6.35 2.95-18.95 2.95-3.3 0-3.7.95m78.9 56.75q2.7 1.7 2.75 2.8.05 1.45-4.15 2.3l-5.5.15q-3.8-.4-6.4-1.85l.05-1.25q.2-1.15.45-.95 2.2 1.35 5.75 1.8 2.95.4 5.3.05 1.65-.3 1.4-.9l-.65-.6q-4.5-2.85-7.95-7.35-.4-.45.05-1.75.4-1.25.65-.95 4.3 6 8.25 8.5m13.5-22.5q-.05-.35 1.1-.65l1.3.05q1.75 5.85 2.75 7.25 1.2 1.75 1.3 2.6.3 2.35-1.8 4.1-2.05 1.75-4.15 1.15-1.85-.5-5.65-3.9-4.4-3.95-5.5-7.15-.15-.35.95-.8l1.25-.05q.95 2.75 4.75 6.45 3.35 3.3 4.7 3.7 1.15.35 2.45-.65 1.4-1.05 1.2-2.6-.1-.55-1-1.75-2.35-3.4-3.65-7.75m21.05.05l1.25-.2q1.25.15 1.2.5-.25 2.15-1.35 5.1-.55 1.5-1.25 1.5-.5 0-2.5-1.25-4.45-2.85-6.1-6.05-.2-.35 1-.5l1.35.2q1 1.95 3.3 3.8 2.05 1.65 2.45 1.55.3-.1.65-4.65M333.3 68.3q-1.25-1.75-1.75-1.75l-.35.6q-.35.95-.55 2.8-.05.4-.85-.5l-.75-1.25q.75-3.95 1.85-4.55 1.4-.8 3.9 2.65.95 1.3 2.2 4.45 1.45 3.6 1.05 4.7-.5 1.25-1.95 2.05-1.85.95-4.25.4-.25-.05-.5-1.1t.1-.9l3.2.15q1-.35 1.35-1.25v-.05q0-.8-.9-3-.95-2.3-1.8-3.45m-21.8 17.65q-.15-.25.85-.25.95 0 1.1.4l1.65 3.85q.6 1.3.95 1.35l1.2-1 1.95-3.35 1.1-.1q.95.2.85.35-1.5 3.15-2.5 4.3-1.9 2.25-2.85 2.15-1.15-.1-2.4-3-1.2-2.5-1.9-4.7m-39.3 9.75q-.1-.15.65-.6.8-.5.95-.35.65.9 2.25 2.4.55.5.75.35l.4-.75 1.35-4.45q.1-.4 1.25-.85l1.05-.1q-.35 2.35-1.7 6.05-.8 2.25-1.7 2.45-.9.2-2.7-1.4l-2.55-2.75m-23.55-53.95q3.45 1.3 6.25 3.95 3.45 3.3 5.45 8.8 1.95 5.3 1.85 10.95-.75-.2-2.05.85.45-3.75-1.1-9.05-1.9-6.55-5.85-10.3-4.95-4.75-11.35-3.9-5.3.75-9.3 5.8-4.05 5-4.6 11.6-.5 6.2 2.8 11.05 3.25 4.75 9.3 6.9l-1.2.85-1.2.85q-6.25-2.5-9.55-7.75-3.3-5.25-2.75-11.95.6-7.3 5.45-13 4.75-5.6 10.8-6.45 3.5-.5 7.05.8"/><path fill="#0d131a" d="M248.7 53.55q.65-.1.85 1.85l-.1 1.4-.4.55q-.3 0-.55-.6l-.25-1.15q-.15-1.95.45-2.05m50.6-9.2q.4-.1.8 1.15.4 1.3 0 1.4-.45.2-.85-1.15-.35-1.25.05-1.4"/><path fill="#0d131a" d="M291.65 37.55q1.1-3.4 4.15-3.4 5.4 0 11.7 7.9 6.55 8.3 5.7 15.55-.1.7-1 .3-.85-.45-.9-.9-.65-7.7-5.85-14.45Q300.4 36 295.8 36q-3.5 0-2.45 7.1 1.05 7 3.7 8.2.35.15-.7.55l-1.25.15q-2.25-2.35-3.35-6.8-1.05-4.5-.1-7.65M311.4 72.1q-.25-.1-.15-1 .15-1 .6-2.15l.6-1.1q.4-.45.6-.25.5.45-.4 2.55-.9 2.1-1.25 1.95m-18.7-1.25q-.7-1.4.05-1.35.7.05 1.65 1.45 1.85 2.55 1.25 2.9-.3.15-1.4-1l-1.55-2m-26 140.95q-.2-.25 0-1.25.2-1.05.5-.85l3.3 3.15q3.2 3.3 2.8 4.35-.3.85-2.7 1.35l-5.1.4q-.35-.05-.3-1.1.05-1.05.4-1.05l5.1-.25q-1.1-1.85-4-4.75m-4.4 10.5l-1.6.25q-2.7.9-2.25 3.4l1.95 1.8 2.95 2.25.2-3.55q0-2.7-.4-3.8-.15-.25-.85-.35m-2.2-1.5l2.75-.25q1.4.25 1.95 1.3.5 1 .5 7.75 0 2.85-.6 3.35-.55.5-2.4-.8-5.6-4.35-5.85-5.6-.4-2.1.85-3.75 1.1-1.45 2.8-2m-13 5.1q-2.65-.3-3.1.3 0 .7 1.35 3.7l1.85 3.75.55.7q.3.05.55-.8 1.5-4.35 1.5-6.2 0-1.1-2.7-1.45m1.25-1.6q2.4.6 3.25 1.95.85 1.35-1.55 8.5-1.05 3.25-2.25 2.95-.85-.2-2.2-2.55-3.7-7.5-3.45-9.25.25-1.4 2.2-1.8l4 .2m77.1 68.9q2.85-3.75 6.65-1.7l4.8 3.15 4.95 3.9q5.15 4.2 3.8 5.85-1.4 1.65-10.65 2l-1.05-.95q-.7-.95-.35-1 7.9-.15 9.2-1.3 1-.9-2.05-3.15-6.45-4.6-9.5-6.25-2.1-1.15-4.3 1.3-2.25 2.55-.35 5.35.2.3-1.15-.35l-1.5-1q-1.15-2.35 1.5-5.85"/><path fill="#0d131a" d="M331.95 311q4.7-.45 4.6-1.55-.1-.5-3.2-3.2-3.3-2.8-7.15-4.8-4.2-2.25-6.6-2.1-3.2.2-5.2 2.05-1.35 1.25-1.95 2.9-.65 1.7-.45 3.45.25 1.75 1.25 2.75.95.95 6.15 1.1l12.55-.6m-4.25-11.45q3.95 2.3 7.45 5.3 4.85 4.15 4.7 5.65-.1 1.95-7.15 2.65l-11.55.85q-7.9.15-9.5-1.45-1.9-1.6-1.95-4.8-.05-2.5.95-5.1 1-2.65 3.4-4.25 2.35-1.6 5.45-1.8 2.95-.15 8.2 2.95M210.8 334.4q-2.15-1.95-5.2-1.8-2.65.05-4.85 1.6-2.15 1.5-3 3.8-1.05 2.75.15 5.8.8 1.9 8.15 3.9 5.4 1.5 10.1 2.1l4.6.15q.55-.45-1.25-3.45-5.7-9.45-8.7-12.1m1.25-1.35q1.95 1.75 5.45 6.7l4.2 6.4q2.85 4.75 2.25 5.75-.8 1.2-7.4.35l-9.7-2.05q-9.85-2.6-10.95-5.4-.85-2.1-.85-4.35 0-6.15 5.5-9.2 5.85-3.25 11.5 1.8"/><path fill="#0d131a" d="M216.4 333.75q0 1.9 1.05 4 .5 1.05 5.55 2.75 4.75 1.55 9.95 2.55l4.7.45q1.1-.6-1.3-4.4l-3.85-5.4q-2.85-3.45-5.05-5.05-1.9-1.35-4.5-1.2-2.65.2-4.5 1.8-2.05 1.75-2.05 4.5m-.6 5.4l-.4-.8q-1.5-3.05-.95-6.15.5-3 2.8-4.95 2.3-1.95 5.65-1.9 3.15 0 5.6 1.8 2.4 1.7 5.65 5.5 2.65 3.1 4.35 5.75 3.25 5.2 2.5 6.5l-7.8.25-8.15-1.8q-8.25-2.15-9.25-4.2M78.3 186.25q-4.7.45-4.25-.6.45-1.1 4.6-1.65l24.95-2.2 18.85-1.3q.4 0 .55.8.15.75-.25.75l-44.45 4.2m38.55 1.75q2.9-1.45 3.8-1.3.95.15-3.2 2.45-5.7 3.1-21.35 10.15-4.2 1.9-4.6 1.1-.4-.85 3.75-2.65 14.95-6.5 21.6-9.75"/><path fill="#0d131a" d="M81 184.85l1.25.1q.45 2.1 2.1 5.75 1.8 4.2 3.75 7.1.75 1.15.45 1.6-.35.45-2-1.45-2.2-2.6-4.45-7.35-1.75-3.7-2.1-5.15-.1-.35 1-.6m40.05-5.8q-.6-1.8-.3-2.25.3-.45 1.25 1 1.4 2.15 2.3 5.3.7 2.4.05 2.35-.6-.1-1.45-2.05l-1.85-4.35m13.75-5.1q-.9-2.3-.4-2.45.45-.1 1.35 1.45 1.55 2.5 2.55 5.3.55 1.6.1 1.75-.5.2-1.5-1.55-1.35-2.35-2.1-4.5"/><path fill="#0d131a" d="M161.75 155.6q.45-.4-.15 1.4-.65 1.75-1.55 2.45l-11.4 8.85q-10.7 8.3-11.15 8.95-.3.4-.95-.2-.65-.6.05-1.35.85-.9 12.95-10.45 6.05-4.8 12.2-9.65m-10.45 19.25q1.4-.25.9.5-.55.7-2.5 1.65l-3.45 1.25-2.15.5-2.15.25q-.35-.3 1.3-1.1l8.05-3.05m-39.8 12.1q-.2-.6-.05-1.15.15-.55.55-.7.4-.15.85.2l.7.9q.25.6.1 1.15l-.6.7-.85-.15-.7-.95M145.35 174q-.15-.5 0-.95.1-.4.4-.5.7-.15 1.05 1.1l.05.95-.45.5q-.3.1-.6-.25-.35-.35-.45-.85"/><path fill="#0b6f6b" d="M78.75 214.4l-1.9 3.75 2.45-.25q1.75-.6 2.2-1.5l-1.1-.85-1.65-1.15m3.75.95q.5.55.5 1.1-.05 1-1.2 1.95-1 .8-2.35 1.2-2.85.85-4.05-.8-.3-.35.9-3.3l1.2-2.85q.55-1.05 1.4-.4 2.7 2 3.6 3.1m-17-.8q-.7-4.4-1.15-5.45l-6.25-.85-6.9-.5q-.25 2.05-.4 12.85 1 .7 8.1 4.15 1-.45 7.3-4.5l-.7-5.7m.3-6.6q.75.65 1.6 6.25.8 5.25.65 6.5-.15.7-.6.9-8.25 5.6-8.85 5.15l-4.65-2.65-4.8-2.9q-.45-.75-.15-7.2.25-6.05.5-7.25.15-.55.7-.75l7.85.5q6.95.8 7.75 1.45"/><path fill="#0d131a" d="M99 138.8q-1.5 0 .2-2.1 2.1-2.65 3.4-5.35 1.2-2.5 2.25-6.1 1.35-4.7 3.2-4.9 2.1-.25 5.15 5.15 3.5 6 3.45 10.8 0 3.25-1.05 2.45-1.05-.8-1.35-3.65-.5-4.9-2.8-9.1-1.7-3.15-2.9-3.2-1.15-.1-1.95 2.9l-1.75 5.35q-1.45 3.85-2.75 5.6-1.55 2.15-3.1 2.15"/><path fill="#0b6f6b" d="M50.55 174.35l-1.05.5-1.1.75 1.8 1.85 1.75-1.2-1.4-1.9m1-1q.65.4 1.75 2.9.2.6-.7 1.35-2 1.65-2.75 1.3l-1.65-1.55-1.25-1.65q-.15-.8.5-1.35.55-.45 1.9-.85l2.2-.15m4-28.2q-.35-.2-1.8 0-1 1.15-3.05 6.6-2.05 5.5-2.05 7.1l7.05.85 2.85-3.9q-.05-.65-1.2-3.55-1.35-3.5-1.8-7.1m-3.15-1.05q.35-.45 1.7-.6l1.85.1q.8.2 1.25 2.85.6 3.7 1.2 5.2l1.6 3.45q.55 1.15.2 1.6l-2.85 3.4q-1.1 1.15-1.85 1-7.8-.5-8.1-1.1-.8-1.4 1.85-8.55 2.35-6.4 3.15-7.35M41 120.95l2.75.5 3 .25 2.9-4.45-7.35-3.85-3.75 2.5q.3.9 1.15 2.6l1.3 2.45m.8-9.15q.65-.15 2.4.85l4.85 2.55q2.5 1.25 2.6 1.65l-1.25 1.95-2.05 3.2-.9 1.15-1.4.15-3.75-.55q-2.3-.6-2.7-1.2-3.55-4.95-3.25-6.05.1-.4 1.35-1.1l2.3-1.35 1.8-1.25m-9.05-21.15l2 1.35 1.35-2.05-1.9-1.35-1.45 2.05m4.4-.75q.1.5-1 1.9-1.05 1.35-1.8 1.2-.65-.15-2-1.15L31.6 91q-.1-.65 1.5-3.05l.6-.65.85.1q2.6 1.55 2.6 2.5M63 117.1l-1.6-1.45-2.2 2.55.95 1.45L63 117.1m.95-.75q.6.8-.1 1.35-3.25 3.3-3.75 3.3l-.65-.25-1.35-1.95q-.25-.5-.2-.75.1-.6 1.5-2l1.4-1.3q.55-.35 1.55.2.9.5 1.6 1.4"/></svg>