<svg xmlns="http://www.w3.org/2000/svg" width="200" height="131" viewBox="0.0 0.35 200.25 131.45"><path fill="#0d131a" d="M38.45 87.45q-1.75-.4-3.9.4L7.3 97.55l-.9.1L1 94.7q-.6-.45-.65-1L0 79.8q0-1 .8-1.25Q23.05 69.5 29.85 67.1q11.4-4.1 18.55.05 7.15 4.15 11.15 17.3 3.1 10.15 2.3 19.05-1 10.5-7.5 13.15-6.65 2.7-22.65 8.45l-11.45 3.7-10.5 3-1.15-.15-5.3-4.5-.5-1.4-1.1-14.4q-.15-.7.55-.9l10.35-2.95 11.6-3.55 6.05-2.25 5.25-2.15q7.6-3.95 5.4-10.1-.6-1.55-2.45-2"/><path fill="#e50020" d="M9.05 77.1l1.1 12.75-8 2.85-.4-12.75 7.3-2.85"/><path fill="#c60019" d="M7.25 96.4l-4.5-2.7 7.8-2.8 2.85 3.2-6.15 2.3"/><path fill="#759ab5" d="M33.65 86.8L14.9 93.6l-2.85-3.2 13.6-4.9q5.95-2.15 9.6-1.7 3.55.45 5.35 3.4-1.2-.85-3.05-.95-1.95-.15-3.9.55"/><path fill="#87b1d0" d="M30.3 69.05q11.5-4.15 18.35.35 6.45 4.25 8.5 16.05 1.55 8.85-.1 14.95-1.65 6.05-6.15 8.25-3.8 1.85-36.05 13.05l-1.6-12.65 11.5-3.45q12.3-4.4 15.95-8.3 3.3-3.45 1.55-8.9-3-9.05-17.05-3.95l-13.6 4.9-1.1-12.8q13.45-5.2 19.8-7.5"/><path fill="#00a4e3" d="M11.35 109.6l1.6 12.8-8.15 2.8-1.3-13.35 7.85-2.25"/><path fill="#008fc5" d="M9.65 130.35l-3.85-3.4 7.95-2.75 3.7 3.7-7.8 2.45"/><path fill="#759ab5" d="M53.6 114.8q-15.75 6.5-34.1 12.45l.05-.05-3.7-3.75Q48.4 112 51.8 110.4q11.1-5.45 6.35-27.45Q62.2 94.7 60.45 104q-1.55 8.55-6.85 10.8"/><path fill="#0d131a" d="M83.7 36.95q17.2-6.2 33.55 1.25 16.45 7.5 22.55 24.6 6.15 17.05-1.85 32.95-7.9 15.75-25.2 21.95-17.2 6.2-33.25-1.25t-22.2-24.6q-6.15-17.1 1.5-32.95 7.65-15.8 24.9-21.95"/><path fill="#88bda5" d="M84.45 38.35q16.1-5.75 31.55 1.5 15.5 7.3 21.25 23.4 5.8 16.1-1.45 31.55-7.3 15.5-23.4 21.25-16.1 5.8-31.55-1.45-15.5-7.3-21.3-23.4-5.75-16.1 1.5-31.55 7.3-15.5 23.4-21.3"/><path fill="#c8ded2" d="M95.4 36.05l-.1.6q-9.5 1.5-17.45 8.1-7.95 6.55-12.75 16.8-5.75 12.25-4.95 23.95.25 3.65 2.75 12.8-1.9-3.3-3.35-7.1-5.75-16.1 1.5-31.55 7.3-15.5 23.4-21.3Q90 36.4 95.4 36.05"/><path fill="#77a48f" d="M90.1 42.6q-3.6 1.3-6.95.95-3.3-.35-5.25-2.15 3.3-1.85 6.55-3.05 6.75-2.4 13.65-2.4-.95 2.05-3 3.8-2.15 1.8-5 2.85m39.85 49.25q8.6-14.15 6.55-30.5l.75 1.9q5.8 16.1-1.45 31.55-7.3 15.5-23.4 21.25-8.45 3.05-17.35 2.3-8.6-.7-16.2-4.8 13.45 3.05 26.55-1.6 15.85-5.7 24.55-20.1"/><path fill="#0d131a" d="M91.5 62.85q8.55-3.1 16.85.7 8.25 3.8 11.25 12.1 3 8.35-1.25 16.4Q114.2 99.9 105.6 103q-8.2 2.95-16.25-.55-8.1-3.55-10.9-11.4-3.2-8.95.65-17.1 3.8-8 12.4-11.1"/><path fill="#fff" d="M81.2 74.55q3.45-7.3 11.05-10.05 7.65-2.75 15 .7 7.3 3.45 10.05 11.1 2.75 7.6-.7 14.95t-11.1 10.1q-7.6 2.75-14.95-.7-7.35-3.5-10.1-11.1-2.75-7.65.75-15"/><path fill="#0d131a" d="M98.9 83.45l-.9-.05-.65-.65q-.15-.5.05-.95.2-.45.7-.6l.95.05.6.65-.05.95-.7.6m-19.95 43.6q-4.15-1.7-5.7-6.05-1.6-4.4.35-8.55 1.95-4.1 6.35-5.7 4.45-1.6 8.45.15 4.05 1.8 5.65 6.15 1.55 4.4-.3 8.4-1.9 4-6.3 5.6-4.5 1.6-8.5 0"/><path fill="#dbdcdc" d="M79.8 125.2q-3.4-1.65-4.7-5.2-1.25-3.55.35-6.95 1.6-3.4 5.15-4.7 3.55-1.25 7 .35t4.7 5.15q1.3 3.55-.35 6.95-1.6 3.45-5.15 4.7-3.55 1.3-7-.3"/><path fill="#0d131a" d="M122.7 94.65q1.85-4.35 6.2-5.95 4-1.4 8 .5 3.95 1.9 5.3 5.7 1.55 4.2-.3 7.95t-6.1 5.3l-7.7-.25q-4.35-1.7-5.75-5.7-1.3-3.55.35-7.55"/><path fill="#dbdcdc" d="M124.35 94.75q1.55-3.3 4.95-4.5 3.4-1.25 6.7.3 3.25 1.55 4.5 4.95 1.25 3.45-.3 6.75-1.55 3.25-5 4.5-3.4 1.25-6.7-.3-3.25-1.6-4.5-5t.35-6.7"/><path fill="#0d131a" d="M128.15 98.3l2-.85.3-.25.1-.4-.95-2.65-.05-.5q-.1-1.15 1-1.75l2.25-.9 1.3.15 1 .85.65 1.55.3.85.2.1 1.6-.75 1.35-.1q.65.15.9.65l.85 2.3q.35 1.45-.7 2.3L139 100q-.35.6-.25 1.1l.05 1.6q-.05 1.2-.4 1.7-.35.5-1.4 1l-1.1.45q-1.25.5-1.85-.55l-1.15-2.05-.1.05-2.2.8q-.6.2-1.2 0-.6-.15-.9-.65l-.7-1.4-.7-1.55-.1-.45.2-.8q.3-.7.95-.95"/><path fill="#888" d="M131.3 93.25l2-.75q.25 0 .5.35l.85 2.25q.3.6 1 .85l1.1.05 1.6-.8.45-.05.6 1.8.05.15-.2.55-1.5 1.4q-.6.75-.6 1.95l.1 1.1-.15 1.4-1.7.9h-.05l-1.1-1.95-.9-.7-1.05.05-2.25.8h-.2l-1.25-2.55.1-.25 2.15-.9.9-.85q.4-.65.4-1.25l-.1-.5-.95-2.65.2-.4"/><path fill="#0d131a" d="M76.25 112.75q.3-.9 1.15-1.3l2.2.15q1.1.55 1.6 1.55l.9 2.05q.3.3.65.2l1.6-.25 1.4-.15q2.25-.2 2.95 1.7l.15 1.1q0 1.4-.7 1.95l-1.65 1-.35.2-.1.25v.05l.3 1.35q.1 1-.2 1.65-.25.75-.9.95l-2.45-.05q-1.35-.55-2.05-1.85-.55-1-.95-1l-2.95.3q-1.05-.3-1.65-1.7l-.15-.8q0-1.35 1.5-2.15l.55-.3-.85-2.35q-.25-.5-.25-1.3 0-.6.25-1.25"/><path fill="#888" d="M77.7 114.65q-.25-.6 0-1.35l.35-.4.95.2.8.75 1 2.25 1.15.75 1.35.05 2.55-.35 1 .1.35.55.1.55-.2.8-1.3.8-.5.25q-.8.55-.8 1.6l.15.75.15 1.05-.15.7-1.35-.05q-.75-.3-1.15-1.1l-1.05-1.25q-.8-.7-1.65-.5l-2.15.25q-.35-.1-.65-.8-.1-.3.2-.6l.35-.25q1.9-.9 1.45-2.05l-.95-2.7"/><path fill="#dbdcdc" d="M83.6 14.15l1.45.4q1.5.45 1.7 1 .3.8-1 2.2l1.2.4q1.2.45 1.4 1 .3.8-1 3.3.55.3.55 1.8l1.35.35q1.4.4 1.6.85.35.75-1.15 3.25l1.3.7q1.35.85 1.55 1.4.35.95-.15 2.25.7 1.85-1.3 4.15-2.05 2.3-5.65 3.6-3 1.1-5.3.6l-1.75-.7-2.35-1.85q-.25-.3.05-1.1.25-.75.7-1.15.7-.7-.8-1.4-1.9-.95-2.1-1.45-.2-.7.95-2.4.65-1.1-.5-1.95-2.35-1.45-2.55-1.8-.15-.3.45-1.15l.9-1.2q.3-.4.2-1l-.5-.8-1.35-.55-1.2-.65q-.1-.3.35-1.4l.85-1.75 12.1-4.95"/><path fill="#b4b4b5" d="M83.35 38.2l2.7-1.1q2.2-1 3.2-1.7L92 33.5q.6 1.3-.1 2.5-.6.95-2.7 2.45-2.2 1.6-3.95 2.2l-3.8.65-2.45-.2q-.4-.15-.75-.9l-.3-.75 2.4-.45 3-.8m-8.3-20.35l7.25-2.4q-4.25 3.8-5.4 4.25l-2.95.6q-1.95.1-2.4-.85l3.5-1.6m6.1 5.5l-2.65 2q-2.05.7-5.3-.85l.05-1.4 4.4-.8 6.85-3.55-.05 1.1-3.3 3.5m5.35 3.25l-5.85 4.35q-1.05.35-3.35-.05-2.1-.4-2.7-.85l.5-1.45 4.9-1.3 4.6-2.55 2.75-2.3.7 1.45-1.55 2.7m-3.65 9.05q-1.5.55-3.4.55l-3-.4.15-1.1 9.9-4.2 1.8-1.15.4.95-2.3 2.9-3.55 2.45"/><path fill="#dbdcdc" d="M84.6.85q6.35.65 7.3 3.4 1.05 2.95-4.35 7.2-5.05 3.9-12.35 6.5-6.15 2.2-10.95 1.85-4.05-.3-4.6-1.85-.35-1.05.9-4l1.35-2.75q.55-1.25 3.2-3.7 2.5-2.35 3.3-2.6l4.7-1 .65-.95q1-1.1 2.65-1.7l8.2-.4"/><path fill="#0d131a" d="M85.4 39.8q5.95-2.15 6.35-5.2-2.65 1.85-7.1 3.45-3.95 1.4-6 1.7.55.7 2.1.85 1.95.2 4.65-.8m-3.5-4.2q-.05-.4.65-.8 2.95-1.5 5.1-4.15-2.85 1.85-6 2.95-2 .8-4.15 1.1.3.3.4.75l-.05.6q-1.5 1.5-1.25 2.3l.7.7 3.4-.75 3.6-1.15q3.9-1.6 6-3.45 1.85-1.65 1.45-2.7-.5-1.4-1.95-1.25-1.6 3.5-6.95 5.9l-.95-.05m5.5-11.9l-.05-.3q-2.9 2.75-7.7 4.45-2.25.75-4 .95l.25.45.1.75-.25.7q-1.35 2.35-1.3 2.7.2.25 1.65.7 2.35-.35 5.25-1.4 3.05-1.1 6.05-3.55 3-2.45 2.6-3.55-.2-.6-1.45-.8-.55 1.65-2.9 3.45-2.25 1.7-5 2.7-.55.2-.65-.15-.1-.35.4-.6 2.85-1.3 4.85-3.25 1.85-1.75 2.15-3.25m.05-4.3q-.25-.75-1.35-.75-.95 2.05-3.1 3.95-2.15 1.9-4.5 2.75l-.8-.15q-.1-.35.55-.65 2.7-1.15 5.65-4.65-2.55 1.5-5.45 2.55l-4.45.9q.55.6.15 1.3l-.9 1.35q-.7 1.15-.65 1.3.05.2 1.8.65 1.9.1 4.95-1.05 3.5-1.25 6-3.5 2.7-2.35 2.1-4m-.75-4.95q1.25.45 1.4.9.3.9-1.2 2.3.8.1 1.55.5l.9.85q.6 1.6-1.2 3.6l.45.7.1.45 1.8.25q.9.4 1.15 1.15.55 1.65-1 3.2 2.35.55 2.85 1.85.3.85.2 1.75-.15.95-.65 1.5.15 1.95-1.4 3.9-1.95 2.45-6.05 3.85-4.2 1.45-6.6.55l-1.5-1.2-1.2-.35q-.85-.45-1-1.05-.2-.8.4-2.1l.6-1.3q-.1-.25-.9-.45l-1.5-.45q-.6-.25-.8-.8-.15-.55.1-1.15l1.1-2.6q.2-.4-.3-.65l-2.5-1.4q-.3-.2-.3-.55-.05-.4.15-.7l.75-1.45.45-1.15-1.25-.75-1.55-.65-.45-.55q-.1-.4.1-.75l1.5-2.4 1.8-.35-.95 1.5Q70.8 22 70.9 22.1l1.75.4q2.75-.15 5.4-1.1 3.4-1.2 5.95-3.1 2.4-1.75 2.1-2.55-.25-.75-2.35-.75l-3.3 2.8q-1.95 1.35-3.25 1.8-.55.2-.6-.15-.05-.4.35-.55.8-.25 3-1.85l2.8-2.4 1.9-.75-.15.2 2.2.35"/><path fill="#888" d="M85.6.75l.45 1.05-.4 1.7-1.4.55q-5.85-.2-6.85-.1-.7.05-1.55.7-.65.5-.95.95-.3.55.8 4.7.1 1.15-2.25 1.95l-1.55.25q-1 0-1.3-.4l-.55-2.05-.5-2.2q-.15-.5-.65-.35-.4.1-1.25.65-.6.4-2.05 1.85l-1.65 1.7q-.35.25-1.1-.35l-.65-.7 2.85-2.8 3.6-3.1 4.45-1.1 1.35-1.15L76.4 1l9.2-.25"/><path fill="#0d131a" d="M84.55 3.5l.25-2.35 2 .1q-.55 3.4-1.45 3.65L81.5 5h-4.2Q76.15 5 76 6.05l.4 3.25q.1 1.3-1.25 2.45-1.3 1.05-2.8 1.25-2.25.25-2.65-1.6L69.1 9l-.3-.5q-.15 0-.55.4l-3.45 3.55-1.8.15q-.8-.35-1.35-.95l1.45-1.35 1.1.85 3.4-3.25q.7-.65 1.7-.45 1 .25 1.2 1.1l.9 3 1.9-.3q1.5-.65 1.65-1.1l-.4-4.2q.3-2.3 2.55-2.4l7.45-.05"/><path fill="#0d131a" d="M89.5 11.3q-4.8 3.95-14 7.25Q68.6 21 64.2 20.8q-4.25-.2-5.15-2.75-1.25-3.45 2.4-8.2 3.4-4.4 7.55-5.9 2.15-.75 3.6-.85l.8-.95Q74.45 1.1 75.8.6l9.45-.25q6.75 1 7.8 3.9 1.15 3.2-3.55 7.05m-4.35-9.7l-8.75.25q-1.3.45-2.2 1.55l-.75 1.05q-2.15-.05-3.95.6-3.7 1.3-6.75 5.8-3.05 4.4-2.15 6.8.55 1.6 4.45 1.65 4.2 0 9.6-1.95 7.45-2.65 12.5-6.6 5.1-3.9 4.2-6.35-.7-1.9-6.2-2.8M163 17.3q4.75-1.55 19.3-5.4 1.45-.3 1.85.85l5.9 17.25q.5 1.45-1.1 2L161 41.3q-3.95 1.4-5.7 4.65-1.7 3.15-.45 6.7 1.7 4.1 4.25 5.1 2.75 1 8.4-.7l26.7-7.95h.75l.4.6 4.7 16.55q.2.75 0 1.1l-.75.55q-13.65 5.15-29.75 9.9-11 3.2-19.4-1.05-8.55-4.35-13.4-15.95-6.5-13.6-1.35-24.15 6-12.3 27.6-19.35"/><path fill="#f19a86" d="M194.45 52.95l-9.55 2.6-.2-2 9.15-2.75.6 2.15"/><path fill="#bbd4e7" d="M167.65 60.1q-4.75 1.15-7.55-.65 2.55.45 6.2-.5l16.5-4.85.15 2-15.3 4"/><path fill="#00a4e3" d="M188.3 30.5l-8.8 2.9-4.75-13.5 9.05-2.4 4.5 13"/><path fill="#9fd2f1" d="M183.2 16l-9.05 2.4-.75-2.55 9-2.4.8 2.55"/><path fill="#bbd4e7" d="M172.3 18.95q-14.75 4.35-23.4 9.15-8.95 4.85-12.6 10.75 5.05-13.1 26.5-19.95l8.7-2.5.8 2.55"/><path fill="#87b1d0" d="M177.65 34l-18.25 6.15q-3.95 1.45-5.85 5.1-1.9 3.8-.45 7.95 2.05 5.55 5.05 7.5 3.35 2.15 9.35.75l15.7-4.35 4.3 13.1-18.65 5.8q-11.35 3.45-20.35-2.4-7.5-4.95-10.75-14-3.9-10.7-.9-17.55 2.8-6.4 11.65-11.7 8.85-5.35 24.35-9.9l4.8 13.55"/><path fill="#e50020" d="M189.4 69.6l-4.3-13 9.6-2.8 3.8 12.9-9.1 2.9"/></svg>