<svg xmlns="http://www.w3.org/2000/svg" width="297" height="294" viewBox="-0.1 0.3 296.75 293.65"><path fill="#dbdcdc" d="M239.4 247.8q2.95 2.8 3.5 6.85.5 3.9-1.3 7.2-1.95 3.5-5.65 4.7-4.15 1.4-9.4-.6l12.85-18.15"/><path fill="#b4b4b5" d="M238.55 247.3q2.6 1.85 2.7 5.8.05 3.95-2.45 7.7-2.55 3.8-6.2 5.15-3.65 1.4-6.3-.45-2.65-1.8-2.75-5.75-.05-3.95 2.5-7.75 2.55-3.75 6.2-5.15 3.7-1.4 6.3.45"/><path fill="#88bda5" d="M212.75 180.65q17.9 11.35 22.55 32.05 4.6 20.65-6.75 38.55T196.5 273.8q-20.7 4.6-38.6-6.75Q140 255.7 135.4 235q-4.6-20.7 6.75-38.6 11.35-17.9 32.05-22.5 20.65-4.6 38.55 6.75"/><path fill="#77a48f" d="M185.9 172.65q14.5.15 26.85 8 17.9 11.35 22.55 32.05 4.6 20.65-6.75 38.55-10.3 16.25-28.75 21.65-18.25 5.35-35.55-2.45 13.85 1.1 23.7-2.35 14.1-4.95 21.4-19.15 4.4-8.65 5.05-19.35.65-12.05-3.9-22.15-11.75-25.85-50.95-27.8 12.2-7.15 26.35-7m-47.1 72.4l6.55-5.35q3-2.1 4.5-.3l1 9.65q.9 8.95 3.7 15.65-10.45-7.95-15.75-19.65"/><path fill="#87b1d0" d="M160.7 292.05V268.2l4.3 2.9q5.65 3.05 12.25 3.8l-.1 9v8.2l-16.45-.05"/><path fill="#759ab5" d="M160.7 272.3v-4.1l4.6 2.95q5.85 3.05 12.15 3.6l-.3 5.6q-10.5-3.4-16.45-8.05"/><path fill="#00a4e3" d="M160.7 292.05l-.15-12.25 16.7.9-.1 11.4-16.45-.05"/><path fill="#87b1d0" d="M194.45 292.9l-.35-18.3 2.75-.55q3.3-.75 5.85-1.65 4.15-1.35 8.75-4.2l.1 12.6-.05 12.1h-17.05"/><path fill="#759ab5" d="M194.5 280.45v-5.75l2.25-.25q2.95-.45 6.35-1.75 5.5-2.05 8.35-4.5l.1 12.35-8.55-.05-8.5-.05"/><path fill="#e50020" d="M194.5 280.9h6.4l10.65-.35-.05 12.35h-17.05l.05-12"/><path fill="#c60019" d="M202.3 285.15q-5.2-.5-7.8-1.8v-2.45h6.4l10.65-.35v4.9l-9.25-.3"/><path fill="#dbdcdc" d="M34.75 181.6q-3.6-1.25-5.45-4.75-1.75-3.35-1.25-7.2.5-4 3.25-6.6L44.05 181q-5.2 2-9.3.6"/><path fill="#b4b4b5" d="M32.05 175.95q-2.55-3.75-2.5-7.7.05-3.95 2.7-5.8 2.65-1.8 6.35-.4 3.65 1.35 6.15 5.1 2.55 3.8 2.5 7.75-.05 3.95-2.7 5.8-2.65 1.8-6.3.4-3.65-1.35-6.2-5.15"/><path fill="#dbdcdc" d="M35.55 171q-1.3-2.55-.85-4.45.2-.95.55-1.3.6-.65 1.95-.5l1.9-1.25 6.05 8.35-4.1 3.2q-3.75-.75-5.5-4.05"/><path fill="#b4b4b5" d="M35.8 171.25q-1.55-2.7-1.1-4.7.05-.4.6-.95 1.95 3.85 8.85 4.9l1 1.35-4.1 3.2q-3.4-.65-5.25-3.8"/><path fill="#87b1d0" d="M112.7 184.1l1.45 1.1q1.65 1.85 2.95 5.5 1.3 3.65 2.35 24.65l.85 20.3-7.15 8.8-15.6-3.95q-1.7-20.65-1.9-26.85-.1-4.3-1-7.35-.75-2.4-2.2-4.5-1.1-1.6-3.7-.8-2.4.75-2.65 1.75-.5 1.9-.1 8.65l1.6 20.45-6.2 5.85-15.8-4.15q-2.85-26.1-3.2-33.1-.65-11 1.95-13.3l48.35-3.05"/><path fill="#759ab5" d="M62.7 191.2q.45-3 1.65-4.05l48.35-3.05 1.45 1.1q1.65 1.85 2.95 5.5 1.3 3.65 2.35 24.65l.85 20.3-7.15 8.8-.8-16.7-1.15-17.6q-9.15-1-16.25-3.25l-2.5-5.1q-1.1-1.6-3.7-.8-2.4.75-2.65 1.75-.5 1.9-.1 8.65l1.6 20.45-6.2 5.85-1.35-14.8q-1.1-14.3-1.2-19.1-6.9-2.2-16.15-12.6"/><path fill="#e50020" d="M86.2 217.45l1.4 14.4-6.2 5.85-15.8-4.15-1.45-14.65L80 222.35l6.2-4.9"/><path fill="#c60019" d="M86.4 217.25l1.2 14.6-6.2 6q-.75-5.2-1.35-15.5l6.35-5.1"/><path fill="#00a4e3" d="M112.1 227.95l7.55-8.25.65 15.95-7.15 8.8-15.6-3.95-1.35-15.9 15.9 3.35"/><path fill="#008fc5" d="M120.3 235.65l-7.15 8.8-1.05-16.5 7.55-8.25.65 15.95"/><path fill="#87b1d0" d="M36.8 80.15q15.85 10.9 18.35 13.55l2.95 3.75-23.45 44.7q-1.25 0-3.9-1.2-3.35-1.55-6.45-4.1L10.7 124.4.6 114.8 3 100.35l9.5-2.6q22.45 17.75 24 18.6 1 .55 2.7-.3.15-.9-.45-2.45-1.15-3.05-4.6-6.05-3.5-3-16.05-12.7l-11.9-9.1L9.4 71.1l12.05-1.35 15.35 10.4"/><path fill="#759ab5" d="M9.35 70.85l12.1-1.1 15.35 10.4q15.85 10.9 18.35 13.55l2.95 3.75-3.1 2.7-4.75 4.3q-.25-2.75-3.2-5.7l-4.9-4.25q-2.7-2.35-32.8-23.65m28.15 51.3q-1.45 1.2-2.6 1.55-2.4.7-5-1.1l-12.55-10.35-14.7-11.8 9.85-2.7q22.45 17.75 24 18.6l3.45-.2-2.45 6"/><path fill="#00a4e3" d="M22.3 80.1L19.35 96 6.2 85.75 9.4 71.1l12.05-1.35 12.25 8.3q-2.8.2-7.4 1.15l-4 .9"/><path fill="#008fc5" d="M21.45 69.75l3.65 2.35 8.7 5.75-11.55 2.05-7.55-5.3-5.15-3.8 11.9-1.05"/><path fill="#e50020" d="M14.85 110.2l-2.55 16.1L.6 114.8 3 100.35l9.5-2.6 11.85 9.35-9.5 3.1"/><path fill="#c60019" d="M24.35 106.8L15 110.35l-6.2-5-5.95-5.05 9.65-2.55 11.85 9.05"/><path fill="#88bda5" d="M49.25 104.8q15-15 36.2-15 21.2 0 36.15 15 15 14.95 15 36.15t-15 36.2q-14.95 15-36.15 15t-36.2-15q-15-15-15-36.2 0-21.2 15-36.15"/><path fill="#77a48f" d="M83.5 89.85l1.95-.05q21.2 0 36.15 15 15 14.95 15 36.15t-15 36.2q-14.95 15-36.15 15l-8.95-.8q3.1-1.75 7.7-6.35 12.05-7 18.1-19.55 5.65-11.65 5.15-25.9-.45-13.95-6.65-27-6.35-13.5-17.3-22.7"/><path fill="#fff" d="M80.55 147.55q4.7 6.45 3.9 14.05-.8 7.55-6.6 11.8-5.85 4.25-13.3 2.7-7.45-1.55-12.15-8-4.7-6.5-3.9-14.05.8-7.55 6.65-11.8 5.8-4.25 13.25-2.7 7.45 1.55 12.15 8"/><path fill="#88bda5" d="M215.25 91.05q15.55 15.6 15.55 37.6t-15.55 37.6q-15.6 15.55-37.6 15.55t-37.6-15.55q-15.55-15.6-15.55-37.6t15.55-37.6q15.6-15.55 37.6-15.55t37.6 15.55"/><path fill="#77a48f" d="M136 140.6q2.1 1.6 2.2 3.8.1 1.35-.8 4.55-2.05 7.65.2 13.7-5-4.9-7.35-9.35-2.2-4.05-4.1-11.5 3.05-1.3 5.6-1.75 3.15-.55 4.25.55m43.6-57.1q-7.7 4.05-16.7 5.45l-21.65 1q7.25-6.85 16.5-10.6 9.5-3.85 19.9-3.85 22 0 37.6 15.55 15.55 15.6 15.55 37.6 0 20.9-14.2 36.15-14.1 15.2-34.75 16.8l3.4-8.65q2.35-6 4.4-6.05 7.05-.1 13.4-9.45 6.55-9.6 7.75-22.5 1.4-14.7-5.3-27.35-7.95-14.9-25.9-24.1"/><path fill="#fff" d="M186 229.5q7.95-.5 13.95 4.2 5.95 4.75 6.4 11.95.45 7.2-4.85 12.65t-13.3 5.95q-7.95.55-13.9-4.2-6-4.75-6.45-11.95-.45-7.2 4.85-12.65t13.3-5.95"/><path fill="#87b1d0" d="M172.95 52.75q2.8 5.95 1.7 12.6-1.2 7.35-6.9 11.7-7.25 5.6-13.8 8.8-7.35 3.6-15.85 5.2-6.15 1.2-13.25-2.65-7.75-4.2-11.2-12l-10.3-25.05-8.7-21.45 15.15-9.6 9.5 4.9 16.55 36.1q3 6.25 6.85 6.6 3-2.25 3.35-5.2.4-2.8-1.45-7.75-1.45-4-10.65-24.4l-8.85-19.6L141.05.75l11.7 9.55 20.2 42.45"/><path fill="#759ab5" d="M117.7 38.75l-8.25-18.5 9.85 4.95 16.55 36.1q2.85 5.9 6.4 6.55-.75 1.5-3.35 2.25-2.9.75-5-.65-1.85-1.25-4.15-5.35-4.25-8.25-12.05-25.35m55.25 14q2.8 5.95 1.7 12.6-1.2 7.35-6.9 11.7l-2.3 1.5-2.35 1.4q4.35-5.6 5-7.75 1.8-5.8-.4-12.85-1.75-5.35-11.2-25.9L141.2.5l11.55 9.8 20.2 42.45"/><path fill="#e50020" d="M149.4 18.6l-16.6 9.6-7.7-17.25L141.05.75l11.7 9.55 8.15 16.6-11.5-8.3"/><path fill="#c60019" d="M160.6 26.6l-11-8.1q-2.85-5.75-8.15-17.7l11.3 9.5 7.85 16.3"/><path fill="#00a4e3" d="M116.3 36.5l-15.2 9.3-6.45-15.9 15.15-9.6 9.5 4.9 7.05 15.35-10.05-4.05"/><path fill="#008fc5" d="M116.6 36.6l-3.7-8.4-3.3-7.85 9.7 4.85 7.15 15.45-9.85-4.05"/><path fill="#87b1d0" d="M271.4 54.85l8.25 7.05 5.1 16.85L253.9 94q-4.1 2.1-7.35 4.2-4.4 2.9-5.55 4.95-1.45 2.6-.9 5.05.65 2.85 3.95 3.8 19.15-9.15 38.25-18.35l8.55 5.75 5.05 18.55q-29.65 15.85-38.25 19.85-6 2.85-10.65 3.9l-7.7.7q-7.8-.3-17.6-7.85-3.5-2.15-7.3-13.45-3.55-10.7-3.6-17.3-.05-7.2 3.45-13.55 3.65-6.7 10.15-10.35 5.65-3.15 23.95-12.95 19.6-10.5 23.05-12.1"/><path fill="#759ab5" d="M244 89.35q12.05-6.7 32.25-17l8.5 6.4L253.9 94q-4.1 2.1-7.35 4.2-4.4 2.9-5.55 4.95-1.45 2.6-.9 5.05.65 2.85 3.95 3.8-2.4 1.8-5.2 1.7-3.15-.1-5.25-2.7-3.15-6.55-.55-11.8 2.55-5.15 10.95-9.85m-4.7 53.05q-7.8-.3-17.6-7.85 5.15 3 11.75 2.75 6.35-.25 13.3-3.45 9.35-4.3 40.35-20.75l8.05 5.1q-28.9 15.6-37.5 19.6-6 2.85-10.65 3.9l-7.7.7"/><path fill="#e50020" d="M260.2 80.4l-5.35-16.85 16.55-8.7 8.25 7.05 5.1 16.85-15.3 7.55-9.25-5.9"/><path fill="#c60019" d="M269.45 86.3l-9.05-5.75 15.85-8.45-4.7-17.15 8.1 6.95 5.1 16.85-15.3 7.55"/><path fill="#00a4e3" d="M290.85 99.4l5.05 18.55-16.35 9-9.5-5.05-5.5-19.7q8.9-4.25 17.75-8.55l8.55 5.75"/><path fill="#87b1d0" d="M214.45 197.6q-.3-6.3 3.2-12.05 3.1-5.2 8.05-8.15 3.45-2.05 21.35-10.75l20.75-9.9 6.6 5.2 3.25 15.35q-31.1 13.5-37.6 16.95-2.05 1.05-1.9 4.35.15 3.4 2.9 4.2l32.1-15.45 7.15 4.4 2.95 16.45q-8.95 4.85-18.9 9.6-19.9 9.55-24.95 9.3-3.85-.15-7.05-1.2-4-1.3-8.85-4.5-4.7-3.05-7.05-10.85-1.65-5.55-2-12.95"/><path fill="#759ab5" d="M257 177.95l13.15-5.75 7.5 4.6q-31.1 14-37.6 17.45-2.05 1.05-1.9 4 .15 3.2 3.25 4.6-4.3 2.4-7.55 2.05-1.15-.15-2.1-1.95-.95-1.95-1-4.45-.1-6.65 6.1-10.45 5.85-3.6 20.15-10.1m1.85 34.75q8.8-4.25 16.6-8.3l8.25 3.4q-9.05 4.95-19.1 9.8-20.15 9.75-25.2 9.5-3.85-.15-7.05-1.2-4-1.3-8.85-4.5l3.55.95q4.6.8 9.4-.2 4.8-1 22.4-9.45"/><path fill="#e50020" d="M257.75 194.7l15.4-7.35 7.15 4.4 2.95 16.45-13.9 7.25-8.85-3.9-2.75-16.85"/><path fill="#c60019" d="M272.6 187.45h.7l7 4.3 2.95 16.45-13.65 7.3-8.65-3.85 14.6-7.15-2.95-17.05"/><path fill="#00a4e3" d="M255.6 178.6l-2.5-14.9 14.7-6.95 6.6 5.2 3.2 15.15-13.85 6.25-8.15-4.75"/><path fill="#008fc5" d="M290.85 99.4l5.05 18.55q-8.1 4.5-16.2 8.95l-9.65-5 16.9-8.6-5.25-19.5 9.15 5.6m-13.3 77.65l-13.65 6.2-8.2-4.55 14.6-6.6-2.8-15.35 7.15 5.6 2.9 14.7"/><path fill="#dbdcdc" d="M190.2 167.2l-.25 2.55q1.3 3.45-.65 3.75l-.05 4.6-13.7-3.7q1.65-1.9 1.8-3.45-1.25-1.1.15-2.4.7-.65 1.65-1.1l.9-2.65 3.75-.85q4.15-.2 6.4 3.25"/><path fill="#b4b4b5" d="M189.95 170.3q.5 1.3.45 2 0 1.05-1.1 1.2l-.3 4.15-7.55-1.85q2.9-.8 2.8-2l-.65-1.05.15-2.95 3.1-.65q.45-.35-1.9-2.6v-.95q.1-1.05.4-1.6 3.3.45 5 3.2l-.4 3.1"/><path fill="#dbdcdc" d="M169 180.5q.5-3.5 4.4-5.25 3.5-1.6 8.15-1.05 4.7.5 7.7 2.95 3.35 2.75 3.05 6.85-.55 3.25-4 6-3 2.3-5.8 2.8-1.1-.85-3.7-1.2l-3.3.2q-3.35-1.6-5.2-4.65-1.85-3.2-1.3-6.65"/><path fill="#b4b4b5" d="M175.3 191.65q-1.8-.85-3.05-2.1 5.5.7 10.35-3t6.15-9.5q1.85 1.5 2.7 2.8 1.1 1.75.95 3.85-.6 3.65-3.75 6.3-3.05 2.65-6.9 2.95l-1.15-1.2-2.7-.35-2.6.25"/><path fill="#888" d="M176.85 181.45l.45-2.5 5.75.7-.55 6.85 2.7-.15q3.05-.4 4.85-1.7.05 1.75-.85 4.4l-2.75.85-4.65.5q-.35.25-.2 1.25l.1.8q-.45-.65-2.65-.95l-3.3.1-.1-1.95q-4.15-2.3-6.1-4.15-1-2.2-.55-5l1.45 1.95q2.15 2.35 5.8 3.7l.6-4.7"/><path fill="#dbdcdc" d="M147.95 246.15l-1.25 2.75-10.7-5.6 1.2-2.2q-.6-1.15.8-2.1l1.5-.7 1.65-2.15 3.5-.1q3.85.65 5.45 4.25l-1 2.9q.35 2.2-1.15 2.95"/><path fill="#b4b4b5" d="M146.85 236.75q2.2 1.15 3.25 3.55l-1.15 3.3.2 1.25q.1.65-1.2 1.3l-1.25 2.75-2.8-2.3-.85-2.4 1.2-2.55 1.5.05q.9-.05 1-.35l-.45-1.25-.6-.9 1.15-2.45"/><path fill="#dbdcdc" d="M132.65 243.85q3.25-.85 7.1.35 3.9 1.2 6.35 3.9 2.65 3 2.4 6.7-1.25 3.75-4.85 5.6-3.6 1.9-7.65.95-.55-1.4-1.8-2l-2.65-.1q-2.65-2.05-3.7-5.15-1.1-3.15-.05-6.25 1.25-3.05 4.85-4"/><path fill="#b4b4b5" d="M148.5 254.8q-1.25 3.65-4.7 5.55-3.45 1.85-7.4 1.05-1.3-1.6-2.25-2.1l-2.55-.05-1.6-1.45q6.1 1.4 10.75-1.55 4.9-3.15 4.3-9.15 3.8 3.35 3.45 7.7"/><path fill="#888" d="M145.85 256.1l-.7 2.25-.85 1.7-.35.15-4.35-.4-2.5-.3-.45.65q-.4.7-.35 1.25l-.7-.75-1.45-1.25-1.85-.35-.9.1.65-1.7-2.5-2.45q-2.45-2.7-2.1-3.8l.45-3.55q1.8 4.65 5.2 6.35l2.65-6 5 2.1-2.05 5.9 1.45.35 5.7-.25"/><path fill="#dbdcdc" d="M123.7 141.55l3.4-1q.9-2.4 3.2-1.2l3.5-.85q3.65 1.9 4.1 6.05.2 2.05-.3 3.75l-2.4 1.35-1.2 1.8-1.85.05q-1.2.8-3.4 1.6l-5.05-11.55"/><path fill="#b4b4b5" d="M125.75 146.2l1.95.7 1.3.05q.15-.45-.2-1.75l-.4-1.25 2.75-.95q2.8 2.25 2.8 1.85l-.3-2.6q2-.45 2.65-.95 1.5 2.05 1.45 4.8 0 1.4-.35 2.35l-2.2 1.2q-2.2 4.2-3.05 1.85-1.2.8-3.4 1.6l-3-6.9"/><path fill="#dbdcdc" d="M111.6 142.8q2.3-3.25 6.1-4.25 3.85 0 6.8 3.2 2.7 2.85 3.7 7.2 1.05 4.25-.05 7.75-1.2 3.75-4.5 4.85-3.6.9-6.95-.5-3.4-1.4-5.25-4.6.6-1.2-.05-3.25-.6-1.95-1.7-2.65-.55-4.3 1.9-7.75"/><path fill="#b4b4b5" d="M116.65 161.05q-3.25-1.45-5.05-4.8.45-1.3.15-2.55 8.35 3.4 16.7.15-.2 2.75-1.35 4.75-1.3 2.2-3.55 2.95-3.65.95-6.9-.5"/><path fill="#888" d="M111.5 147.95q-.2-2.95.65-5.15.65-.45 1.9-.85l2.2-.5q-1.7 5.05-.55 7.8l6.7-1.95 1.45 5.7q-4.75 1.4-6.75 2.25.8 1.75 2.4 3.5 1.65 1.8 3.2 2.65l-2.3.3-2.2-.4q-1.3-.95-3-3.05l-1.45-1.95-2.2.15q.5-1.55-.1-3.1l-.8-1.7-.55-.85 1.75-.35q-.25-1-.35-2.5"/><path fill="#dbdcdc" d="M97.65 177.85q3.45 1.75 4 5.8l-1.1 1.75-1.1 1.65q-.25.35-.3 1.35-.25.95-1.65 1.5-1.85 2.1-2.95 2.5l-7.9-9.5 2.6-2q-.6-1.25.85-1.75l1.6-.3 2.6-1.95 3.35.95"/><path fill="#b4b4b5" d="M96.45 177.8q2.1.7 3.2 1.65 1.65 1.45 2 4.05l-1.1 1.8-1.1 1.75q-.25.35-.3 1.35-.25.95-1.65 1.5-1.85 2.1-2.95 2.5l-5.75-6.9q.8-.25 1.35-.7l.85-.95 2.15-1.85q2.1.1 2.9-.4.8-.5-1-2.1l1.4-1.7"/><path fill="#dbdcdc" d="M77.45 197.45q-1.9-2.65-1.85-6.65 0-3.7 1.5-5.85 2.2-2.7 6-2.55 3.55.15 7.05 2.5 3.5 2.4 5.15 5.8 1.8 3.8.45 7.4-2.4 3.4-6.05 4.35-3.5.9-7.4-.75.15-1.35-1.2-2.95-1.6-1.75-3.65-1.3"/><path fill="#b4b4b5" d="M77.5 197.55q-.9-1.2-1.4-2.45 9.65 5.8 18.55-5.55 2.7 4.35 1.1 8.55-2.35 3.4-6.1 4.25-3.65.8-7.5-1-.25-1.9-1.55-3-1.35-1.15-3.1-.8"/><path fill="#888" d="M78.85 197.45q-.9.1-1.15-.3l1.15-1.45q-1.85-2.8-3.05-6.9.3-1.75 1.9-4-.2 2.7 1.45 5.65l1.7 2.4 4.35-5.2 4.45 3.3-3.75 5.5q1.3 2 7.15 2.45l-1.7 1.9-1.4 1.25q-2.2-.4-4.55-1.55l-1.9-1.1-1.2 2.15q-.4-.65-.4-1.3l-1.05-1.65q-1.05-1.25-2-1.15"/><path fill="#b4b4b5" d="M188.25 68.1l.6.1 15.7 8-.85 1.9.45 3.3q-.25 1.75-2.55 1.5-1.85 4.4-1.75 4.5-4.45 2.9-10-.15-5.2-2.9-5.4-6.8.25-1.6.45-2.25-.45-5.25 2.55-5.05.25-.7-.05-2.25-.25-1.55-.1-2 .25-.75.95-.8"/><path fill="#dbdcdc" d="M182.9 59.65q-.3-1.05 1.4-3.35 1.8-2.45 4.7-4.4 7.95-5.4 16.6-2.4-.6 2.7 3.1 4.4 3.7 1.7 5.45-.2 2.4 1.9 4.05 7.15 2.15 6.7.15 12.65-3.65 2.45-9.1 2.75-5.35.3-10.75-1.5-12.6-4.25-15.6-15.1"/><path fill="#b4b4b5" d="M214.15 53.7q2.4 1.9 4.05 7.15 2.15 6.7.15 12.65-4.4 2.95-11.15 2.8-6.7-.15-12.75-3.3 7.6-1.35 12.95-6.25 5.85-5.35 6.15-12.6l.6-.45"/><path fill="#888" d="M200.7 66.65q-4.45-1.6-6.6-3.4 4.65-7.8 7.55-10.15-2.7-1.95-7.95-.75-4.55 1.1-7.35 3.45-.2.3-.05-.65l.2-1.25q3.55-3.35 8-4.65 5.5-1.7 11.1.25-.6 2.7 3.1 4.4 3.7 1.7 5.45-.2 1.25.95 2.8 4.55 1.75 3.95 2.25 7.75l-2.1 1.3-2.15 1.1q-.55-3.55-2.2-6.7-1.4-2.65-4.2-6.1l-7.85 11.05"/><path fill="#c8ded2" d="M58.15 122.6q-3.5 3-6.65 2.95-3.1 0-3.95-3.05-.9-3 .95-7.25 1.9-4.25 5.4-7.25 3.55-3 6.65-3 3.1 0 4 3.05.85 3-1 7.3-1.9 4.25-5.4 7.25m86.8-8.2q-3.55 3-6.65 3-3.1 0-4-3.05-.85-3 1-7.25 1.9-4.25 5.4-7.25 3.5-3 6.6-3 3.1 0 4 3.05.85 3-1 7.25t-5.35 7.25m4.25 88.15q3.3-4 7.4-4.95 4.15-.95 6.65 1.65 2.5 2.6 1.95 7.25-.55 4.7-3.85 8.65-3.3 4-7.4 4.95-4.15.95-6.65-1.65-2.5-2.6-1.95-7.25t3.85-8.65"/><path fill="#fff" d="M182.65 120.75q6.1 8.65 5.05 18.75-1.05 10.15-8.65 15.85-7.6 5.65-17.3 3.55-9.7-2.1-15.8-10.7-6.15-8.6-5.1-18.75 1.05-10.15 8.65-15.85 7.6-5.65 17.3-3.6 9.7 2.1 15.85 10.75"/><path fill="#0d131a" d="M161.7 269.1l-.15 22.1 14.75.05-.05-17.55 2.3.6-.1 17.75q0 1-1.1 1l-16.2-.1q-.65-.1-.85-.45-.15-.2-.15-.8l-.6-23.45 2.15.85m33.6 22.95h15.4V278.9l-.1-10.5 1.95-.85.15 11.25v14.3q-.2.85-1.65.75l-16.75-.05-.75-.55q-.25-.45-.15-.95l-.15-18.1 2.2-.75-.15 18.6"/><path fill="#0d131a" d="M160.95 279.25l15.95.65-.05 1.15-15.95-.65.05-1.15m34.1.9l15.95-.2v1.15l-15.95.2v-1.15m43.9-31.9l.45-1.25q3.6 3.3 4.25 7.75.55 4.2-1.8 8-2.35 3.75-6.25 4.8-4.05 1.15-8.95-.75l.1-1.5q4.5 1.7 8.2.85 3.7-.9 5.75-4.15 2.05-3.2 1.55-7.15-.5-3.95-3.3-6.6"/><path fill="#0d131a" d="M232.25 246.15l1.4-.4q3.15-.55 5.6 1.15 2.65 1.8 2.65 6.35 0 4.15-2.55 7.95-3.6 5.35-7.8 6.1-3.45.7-5.55-.85-1.45-1-2.25-2.9-.8-1.85-.8-3.95l1.45-1.75q-.4 2.3.2 4.15.6 1.9 2.05 2.95 1.85 1.25 4.3.8 2-.35 3.95-1.8 1.9-1.4 3.3-3.5 2.4-3.55 2.4-7.25 0-3.65-2.45-5.35-1.75-1.2-4.25-.75-1.55.3-3 1.15l1.35-2.1"/><path fill="#0d131a" d="M231.85 247.4l2.1 1.85q1.65-.25 2.4.9.75 1.05.25 2.55.65 1.2-.8 4-1.8 3.4-5.55 3.7-1.5.1-2.15-.95l-2.25-1.4-2.15-1.1.4-1.05 1.65.8q2 1.05 4.15 2.6 3.35-.75 4.8-3.2.95-1.65.95-3.75.25-1.05-.2-1.55-.45-.55-1.5-.35-.9-.45-2.45-1.9l-1.4-1.35.7-.85 1.05 1.05"/><path fill="#0d131a" d="M236.2 253.05q-.5 1.25-4.15 3.1-4.1 2.1-6.9 1.5l.15-.85q2.4.55 6.55-1.8 3.7-2.1 4.15-3.2l.2 1.25m-1.95-2.9q-.3.65-2.3 2-2.15 1.45-4.5 2.45l.6-1.25 3.55-2.15q1.6-1.15 1.75-1.65l.9.6M29.15 177.7q-2.35-3.75-1.75-8 .6-4.4 4.25-7.7l.4 1.25q-2.75 2.65-3.25 6.55-.5 3.95 1.5 7.2 2.05 3.25 5.75 4.1 3.7.9 8.2-.85l.15 1.55q-4.9 1.9-8.95.75-3.95-1.1-6.3-4.85"/><path fill="#0d131a" d="M31.75 161.9q1.1-.8 2.6-1.1l3-.05 1.4.4 1.35 2.1q-1.4-.9-3-1.2-2.45-.45-4.25.8-2.4 1.65-2.4 5.35-.05 3.7 2.35 7.2 1.4 2.15 3.35 3.55 1.9 1.4 3.9 1.75 2.5.45 4.3-.75 1.5-1.05 2.05-2.95.6-1.9.2-4.2l1.5 1.75q-.05 2.15-.8 4-.85 1.9-2.25 2.9-2.15 1.45-5.6.85-2.2-.45-4.35-2.15-2.05-1.6-3.7-4-2.3-3.45-2.3-7.9 0-4.55 2.65-6.35"/><path fill="#0d131a" d="M40.15 162.85q-1.65 1.85-3.05 2.6-2.2-.4-1.75 1.9 0 2.05.95 3.7 1.45 2.45 4.8 3.25l3.15-2.25.5-.55.75.9q1.1-.3-.4.8l-2.25 1.5q-.95.8-2.1.7-3.75-.3-5.55-3.7-1.45-2.85-.8-4.05-.5-1.5.25-2.55.75-1.15 2.45-.85l1.65-1.5.7-.75.7.85"/><path fill="#0d131a" d="M34.85 168.05l.2-1.25q.4 1.05 4.1 3.15 4.15 2.4 6.55 1.85l.2.8q-2.85.65-6.95-1.45-3.6-1.85-4.1-3.1m1.95-2.95l.85-.55 1.75 1.6 3.6 2.2q.05.5.55 1.2-2.35-.95-4.5-2.4-2-1.4-2.25-2.05m27 21.4l1.1 1.3q-1.75 1.5-1.75 9.1l.1 3.55q.4 7.05 3.1 32.45l14.8 3.85 5.55-5.2-.45-5.4q-1.3-16.55-1.3-19.95 0-2.1.25-3.45l2.3-.25-.1.3v.25l-.4.85q-.3.7-.35 2.25-.1 2.3.3 7.5l1 12.35q.7 5.75.5 6.2l-3.25 3.35q-3.1 3-3.6 3.1-.65.1-15.85-4.1l-.75-.35q-.25-.25-.4-1.1-2.7-25.7-3.05-32.6-.6-11.45 2.25-14m52.5 4.5q-1.15-3.3-3-5.1l-1.65-1.2 1.9-1.6q.75.25 1.6 1.25 1.65 1.85 3 5.65 2.05 5.9 2.95 44.55l-.1 1.25-.3.8-2.95 3.8-3.85 4.65q-.4.4-.95.35l-8.45-2.05-7-1.9q-.55-.1-.75-.6l-.1-.45q-1.65-20.6-1.8-26.75-.15-4.35-1.05-7.35-.7-2.15-2-4.05-.35-.5-1.05-.6l1.85-.95.55.6q1.45 2.1 2.2 4.45 1 3.2 1.15 7.85l1.85 26.25 14.5 3.65 6.6-8.15q-1.25-39-3.15-44.35"/><path fill="#0d131a" d="M81.8 237.65l-.85.1-.95-10.1q-1.4-16.2-1.5-20-.25-7.95 1.5-9.55l.75.75q-1.7 1.7-1.25 10.85l1.5 18.5.8 9.45m27.35-45.8q1.8 4 2.45 12.9.95 13 1.8 38.55l-.8.75-2.3-39.4q-.65-8.65-2.4-12.45-1-2.2-3.45-3.95l1.1-.55q2.5 1.7 3.6 4.15"/><path fill="#0d131a" d="M86.55 217.75l-6.55 5.4-15.95-3.85.2-1.1 15.5 3.7 6.25-5.1.55.95m33.7 1.8l-7.85 8.85-16-3.35.15-1.2 15.5 3.25 7.55-8.45.65.9m-97.7-150.2q1.75 1 15.25 10.35 15.45 10.75 18 13.45 2.8 3.1 2.8 4.25 0 .85-1.7 1.15-1-2.8-2.35-4.25-2.4-2.55-17.1-12.7L21.2 70.65 10.05 71.9 7.1 85.4q20.75 15.65 27.6 21.5 3.15 2.75 4.5 5.65.85 1.8.85 3.25l-.1.85-.4.2q-2.1.95-3.45.25-1.9-1.1-23.8-18.4l-8.55 2.35L1.5 114.5q18.6 17.85 23.3 21.7 3.1 2.5 6.35 3.85 2.3.95 3.45.95l.15 2.4q-1.6 0-3.95-1-3.1-1.3-6.25-3.8-2.95-2.45-13.25-12.3L1 116.25l-.8-1q-.3-.5-.15-1.3l2.1-13.65q.15-.7.9-.9l4.6-1.25 3.9-.85 1.35-.05q.45.1 1.5.9l11.35 8.95q10.45 8.1 11.2 8.5l1.4-.1q-.3-3.5-4.75-7.3L18 95.95l-11.7-9-.6-.65q-.3-.4-.15-.95l3-14.4q.15-.65.9-.8l5.9-.7L20.3 69q1.5-.1 2.25.35"/><path fill="#0d131a" d="M32.7 123.2l2.55-.45q2.8-1.1 3.8-4.4l.8.25q-.6 2.05-1.9 3.6-1.15 1.25-2.4 1.75l-2.75.45-2-.45L5.75 103.5 3 101.25l.45-.95 2.75 2.25 24.95 20.35 1.55.3M16.8 75.65q27.85 19.95 29.95 22.1 3.8 3.8 3.8 5.85h-.85q0-1.7-3.55-5.25-2-2.05-29.85-22L9.65 71.6l.55-.7 6.6 4.75"/><path fill="#0d131a" d="M33.95 78.15l-11.3 2.2L19.9 95.9l-.85-.15 2.9-16.15 11.85-2.3.15.85M24.4 107.3l-9.1 3.3-2.5 15.8-.85-.7 2.35-16.1 9.3-3 .8.7m61.35-18.85q12.85 0 24.2 5.9 10.95 5.7 18.3 15.7-.8 1.1-1.4 2.6-6.9-10.1-17.65-15.9-11.1-6-23.75-6-20.75 0-35.5 14.75-14.7 14.7-14.7 35.45 0 17.8 11.6 31.8 11.35 13.75 28.5 17.45-.15.55.05 1.45l.35 1.4q-18.55-4-30.55-18.45-12.1-14.65-12.1-33.45 0-21.8 15.45-37.25 15.4-15.45 37.2-15.45m9.8 101.7q12.65-2.6 22.5-11.1 9.8-8.4 14.35-20.35l1 1.45.85 1.55q-5.05 11.65-14.95 19.85-10.05 8.4-22.5 11.05l-1.25-2.45"/><path fill="#0d131a" d="M80.05 147.95q-4.55-6.25-11.75-7.75-7.15-1.55-12.8 2.55-5.25 3.85-6.25 10.5-.6 3.65.35 7.45.95 3.8 3.3 7 2.35 3.2 5.65 5.25 3.3 2.1 7 2.7 6.75 1 11.9-2.75 5.25-3.85 6.25-10.5.6-3.65-.35-7.45-.95-3.8-3.3-7m-25.3-6.25q6.05-4.4 14.05-2.9 8 1.55 12.8 8.15 4.75 6.55 3.7 14.6-1 7.95-7.1 12.35-6.05 4.45-13.65 3.15-7.95-1.35-12.95-8.25-5-6.9-3.85-15 1.1-7.8 7-12.1"/><path fill="#0d131a" d="M64.6 159.55l.5 1-.25.85q-.35.3-.85.2-.55-.1-1-.6-.45-.5-.5-1.05-.1-.55.25-.85l.85-.15q.55.1 1 .6m150.6-70.6l-1.3 2.2q-4.95-4.8-11.15-8.2 1.15-.8 1.45-2 6 3.3 11 8M168.4 180l-.2 2.6q-12.7-2.25-23.05-10-10.2-7.65-16-19l2.05-1.3q5.5 10.8 15.25 18.1 9.85 7.4 21.95 9.6m60.25-40.35q1.1.8 2.5 1.2-3.45 15.15-13.8 26.05-10.5 11.05-25.35 14.75l-.65-1.25-.65-1.2q14.4-3.55 24.6-14.25 10.2-10.65 13.35-25.3m-89.85-49.1l3.2.05q-7.75 7.3-12.1 16.95-4.45 10.05-4.45 21.1 0 5.7 1.35 11.65l-2.3.6q-1.35-6.2-1.35-12.1 0-10.95 4.2-21 4.05-9.7 11.45-17.25m46.5-15.9q-.9 1.05-.4 2.35l-7.25-.55-9.55.9 2.6-2.75 7.15-.45 7.45.5m1.8 64.75q1-9.85-5-18.3-3.1-4.3-7.45-7.1t-9.25-3.6l-8.2.3q-4.05.95-7.3 3.4-7.4 5.55-8.4 15.45-1 9.85 4.95 18.3 3.05 4.3 7.45 7.1 4.35 2.8 9.25 3.6l8.25-.3q4-.95 7.3-3.45 7.4-5.5 8.4-15.4m-19.8-30.1q10.1 2.15 16.35 11 6.2 8.7 5.15 18.9-1.05 10.45-9.35 16.65-7.5 5.6-17.4 3.9-10.45-1.8-16.95-11-6.25-8.8-5-19.3 1.2-10.45 9-16.35 8.05-6 18.2-3.8"/><path fill="#0d131a" d="M163.6 136.25q.45.5.5 1.05.1.6-.25.9l-.9.15q-.55-.1-1-.6-.45-.5-.55-1.05-.1-.55.25-.9l.95-.15q.55.1 1 .6m-22.7 59.85q6.9-10.9 18-17.3l1.65 1.4q-10.8 6.1-17.6 16.75-6.35 10-7.5 21.65-1.15 11.3 2.65 22.05l-2 2.3q-4.3-11.45-3.2-23.6 1.2-12.55 8-23.25m72.65-16.25q2.9 1.9 5.25 3.8-.85.75-1.4 1.6-2.5-2.1-5.15-3.8-5-3.1-9.9-4.85l1.85-1.45q4.9 1.9 9.35 4.7M157.1 268.8q-6.6-4.25-11.2-9.35l1.05-1.05.95-1.15q4.75 5.3 10.55 8.95 8.5 5.4 18.25 7.1 9.8 1.7 19.6-.5 9.8-2.15 17.9-7.85 8.15-5.75 13.5-14.2 7.15-11.3 7.75-24.3l2.45 1.05q-.8 13.55-8.1 25.05-5.65 8.9-14.15 14.9-8.5 5.95-18.8 8.3-10.3 2.3-20.55.5-10.3-1.8-19.2-7.45"/><path fill="#0d131a" d="M200.2 234.8q-2.8-2.45-6.5-3.7-3.7-1.2-7.65-1-3.95.25-7.5 1.95-3.5 1.7-6 4.5-4.45 5.05-4.05 11.5.4 6.5 5.5 10.9 2.8 2.45 6.5 3.7t7.65 1q7.7-.5 12.85-5.75 5.15-5.25 4.7-12.2-.4-6.5-5.5-10.9m-14.05-6.55q9.2-.6 15.2 5.3 5.2 5.1 5.6 12.05.5 7.5-5 13.25-5.5 5.85-13.7 6.35-8.1.5-14.25-4.4-6.25-5-6.75-12.65-.5-7.5 5-13.35 5.55-6 13.9-6.55"/><path fill="#0d131a" d="M187.55 249.4l1.15.1.55.7q.1.4-.3.8l-1.05.5-1.15-.1q-.45-.25-.55-.7-.05-.4.3-.8.4-.4 1.05-.5m-76.9-227.7q2 5.25 10.1 22.4 8.4 17.8 11.1 22.2 1.65 2.8 4.35 3.1 2.4.25 4.95-1.2-1.9-.3-3.25-1.8-1.2-1.4-2.8-4.75L118.65 25.8l-8-4.1m56.6 54.7q3.5-2.7 5.25-6.65 1.65-3.65 1.65-7.85 0-4.75-1.95-8.8l-20.1-42.25L141 1.8l-14.8 9.45 9.65 21.45q8.2 18.25 9.55 22 1.6 4.15 1.6 6.9 0 4.05-3.2 6.9-3.25 2.95-7.6 2.45-3.2-.4-5.4-3.9-2.7-4.4-11.3-22.75-8.55-18.25-10.1-22.75l-13.7 8.7 9.4 23.2 9.3 22.6q3.45 7.75 11.15 11.75 6.7 3.5 12.4 2.45 8-1.55 14.85-4.75 6.85-3.25 14.45-9.1m6.45-24.05q3.3 7.05 2.1 13.75-1.25 7.2-7.35 11.85-7.6 5.9-14.85 9.2-6.95 3.15-15.35 4.75-6.6 1.25-13.95-2.85-7.95-4.4-11.45-12.35L102.7 52.4q-8.55-20.65-8.8-21.6l-.25-1.2.8-.75 6.3-4.05q5.9-3.8 7.85-4.9l2.25-.05L115.1 22l3.5 1.7q.9.35 1.35 1.2l16.65 36.05q2.65 5.55 5.85 6 2.85-2.25 2.85-5.35 0-2.35-1.5-6.35-1.4-3.85-10.4-23.5l-8.95-19.4-.3-1.25q0-.65.6-1l15.4-9.8 2.2.1 10.75 9.1.55.65 20.05 42.2"/><path fill="#0d131a" d="M166.7 58.15q-.85-3.2-12.75-28.8-10.3-22.15-13.2-27.95l1.35.05 13.05 27.7q11.75 25.4 12.65 28.75l.35 1.3q1.9 6.4 1.1 10.55-1.4 7.45-10.05 13.8l-.65-.9q8.25-6.1 9.55-13.1.75-3.95-1-10l-.4-1.4m-40.3-17.2q-5.85-2.05-8.35-3.1l-1.6-.7-15.1 9-.25-.85 14.85-9.6 9.65 4.2.8 1.05"/><path fill="#0d131a" d="M149.5 17.7l10.4 8.05.45 1.3L149.7 19l-16.25 9.35-.55-.95 16.3-9.9.3.2m129.4 44.7l-7.6-6.55q-4.3 2.1-23.45 12.3-17.5 9.35-23.05 12.45-6 3.4-9.55 9.65-3.6 6.25-3.6 13.35v.2q.05 6.3 3.55 16.9 3.65 11.15 6.95 13.15 9.7 7.4 17.2 7.7l7.05-.6q4.7-1 10.9-3.9 8.75-4.05 37.6-19.55l-4.75-17.55-7.9-5.35-19.65 9.5-18.2 8.65-.25.15-.3-.1q-3.15-.9-4.25-3.5-.45-1.05-.45-2.4 0-2.1 1.15-4.15 1.35-2.4 5.55-5 2.35-1.45 7.15-3.95 1.9-1.1 16.9-8.45 13.75-6.7 13.85-7.05.15-.55-4.85-15.9m1.55-.25l2.5 7.95 2.35 7.95q.3 1-.65 1.6L269.8 87.3l-15.8 8q-3.15 1.55-6.6 3.65-4.7 2.95-5.65 4.65-.9 1.6-.9 3.35 0 .95.3 1.7.75 1.75 2.9 2.4 4.15-1.85 36.75-17.85l1.2-.35 1.1.4 4.25 2.75 4.05 3q.65.85 5.05 18.1.2.85 0 1.2l-.75.75-15.9 8.5q-16.1 8.4-21.8 11.05-6.4 3-11.3 4.05l-7.45.6q-4.55-.2-10-2.8-4.3-2.05-8.4-5.2-3.8-2.3-7.6-14.2-3.45-10.85-3.5-17.45-.05-7.7 3.8-14.3 3.85-6.5 10.4-10.15 6.05-3.35 46.5-24.7 1.05-.55 1.5-.25 8.2 7.25 8.5 7.95"/><path fill="#0d131a" d="M276.95 72.1l.1.45-.4.2Q248 87.1 241 91.75q-5.1 3.4-7.2 7.55-2.05 4.05-.85 8 1.35 4.1 3.7 5.1 3.25 1.3 7.35-.9l.9 1q-3.15 1.55-5.4 1.85-2.1.3-3.95-.5-3.05-1.2-4.45-5.85-.5-1.75-.5-3.1 0-3.6 2.65-7.35 2.55-3.65 7.1-6.7 7.05-4.7 35.05-18.7l-4.5-16.6 1.05-.3 5 16.85m5.35 21.8l5.45 19.55-.4.2-20.6 10.95q-20.4 10.55-25.3 11.95-9.45 2.75-15.6.55-4.15-1.45-7.25-5.45l.85-.65q2.85 3.65 6.85 4.9 5.85 1.85 14.9-.7 4.65-1.35 23.7-11.1 12.6-6.4 21.2-11.1l-4.9-18.8 1.1-.3"/><path fill="#0d131a" d="M260.55 80.1l8.75 5.75-1.1.5-8.9-5.45-4.9-17.6 1.05-.3 5.1 17.1m8.55 42.05l-2.7-9.8q-2.25-8.6-2.25-9.7l1.05-.4q0 .8 1.8 7.5 1.6 6 3.35 11.85l9.25 4.75-.5.95-9.95-4.9-.05-.25m7.1-50.65l9.15 7.3-1.15.45-8.7-6.65.7-1.1m19.6 46.5l-.6.95-9.1-5.35.9-1.35 8.8 5.75m-69.65 60.15q-4.5 2.65-7.5 7.35-3.35 5.25-3.35 11.15v.95q.35 7.1 1.9 12.4 2.25 7.75 6.75 10.7 4.65 3.05 8.45 4.3 3.2 1.1 7.05 1.25 4.6.2 22.5-8.2 10.55-5 20.35-10.3l-2.8-15.5-6.4-3.95-31.75 15.25-.25.1-.65-.05q-2.7-.75-3.1-4.55l-.05-.75q0-1.6.65-2.9.65-1.35 1.7-1.9 7-3.7 37-16.7l-3-14.35-6-4.7q-5.1 2.3-20.95 10-17.1 8.35-20.55 10.4m14.3 16.8q-.65.4-1.05 1.3-.4.95-.4 2.05v.6q.35 2.3 2.05 2.95l30.5-14.5q.9-.4 1.45-.45l.9.2 6.45 4.1q.65.5.8 1.25l1.55 7.95 1.25 6.55q.1.85-.15 1.3l-1.25 1.05-18.95 9.75q-19.05 9.15-24.25 8.9-4.1-.2-7.45-1.3-4.05-1.35-8.9-4.55-8.2-5.4-9.1-24.8-.3-6.65 3.25-12.5 3.1-5.15 8.15-8.15 5.2-3.05 40.65-19.9l1.6-.6q.6-.05 1.25.6l3.45 2.85 3 2.75q.45.85 2.8 13.75l-.1 1.25q-.25.6-1.1 1l-16.25 7.25q-16.3 7.35-20.15 9.35"/><path fill="#0d131a" d="M237.25 187.1q4.8-3 32.35-15.15l-2.65-15.05.9-.15 2.9 15.25.1.35-.35.15Q244 184.2 238 187.9q-4.4 2.75-5.7 5.95-1.1 2.65-.4 6.8.5 2.85 1.8 3.5 2 1.05 7.9-1.9l.65.9q-3.95 1.95-6.35 2.25-1.9.3-3.3-.45-1.65-.8-2.3-4.15-.3-1.65-.3-3.2 0-6 7.25-10.5m35.95 1.1l2.95 16.2-.05.35q-31.65 16.05-38.25 17.65-6.4 1.5-11.6.15-4.2-1.1-5.85-3.4l.7-.55q1.55 2.05 5.5 3l11.05-.35q6.2-1.45 37.15-17.15l-2.5-15.7.9-.2"/><path fill="#0d131a" d="M256.05 178.3l1.15.55 7 4.1-.5.75-8.7-4.9-2.4-14.7.9-.15 2.55 14.35m2.3 16.65l2.75 16.25 8.75 4.15-.7.3-9.05-3.7-.1-.25q-2.55-14.85-2.5-16.25l.85-.5m19.05-18.85l-.5.75-7.2-4.4.85-.75 6.85 4.4m-1.55 27.65l7.8 3.65-.4.8-8.15-3.45.75-1m-134.7 31.9q.55-.95 3.85-.3 3.9.8 5.6 4.7l-1.15 3.15q.3 2.1-.4 2.85l-.75.35-1.1 2.75-1-.5 1.6-3.9.7-.15q.2-.35.05-1.6l.95-2.65q-1.35-2.95-4.45-3.65-1.75-.4-3.55-.05l-1.3 1.8q-1.35.35-1.95 1.15-.6.75.4.8l-1.9 2.95-1.05-.15 1.2-1.95q-.35-1.35 0-1.9.4-.8 2.25-1.2l1-1.1 1-1.4"/><path fill="#0d131a" d="M137.65 238.75q.15-.35 1.65-.8l3.6-.15q2.1.35 3.75 1.5 2.5 1.7 2.65 3.7-.2 1.75-.65.3-.65-2.05-2.45-3.25-1.4-.95-3.8-1.2-1.85-.2-3.55.05l-1.2-.15"/><path fill="#0d131a" d="M141.65 240.05q2.1.45 3.85 1.65 2.6 1.65 2.7 3.95l-.65 1.15q-.05-.9-.8-2.2-.85-1.45-1.95-2.2-1.5-1-3.8-1.45-2.2-.4-3.4 0l.6-.85q1.4-.5 3.45-.05"/><path fill="#0d131a" d="M144.2 244.1q1.25.85 2.1 2.15.8 1.25.9 2.25l-1.15-.4q-.05-1.55-2.4-3.15-1.6-1.05-3.95-1.6l-2.65.05-2.4-.35q1.45-1.15 3.9-.95 2.8.15 5.65 2"/><path fill="#0d131a" d="M138.8 243.3q4.4 1.05 7.35 4 3.35 3.4 3.05 7.75v.05l-.05.1q-1.35 3.95-5.2 5.9-3.85 1.9-8.2.85-.25-.5-.15-1.4 3.9 1.15 7.45-.55 3.6-1.7 4.85-5.35v-.45q0-3.6-2.95-6.35-2.65-2.45-6.45-3.35-3.15-.75-5.8 0-3.15.85-4.3 3.6-1.25 3.5.55 7.05.95 1.95 2.85 3.45.2 1.85-1.25.65-1.8-1.55-2.75-3.55-2-4.05-.6-8.05 1.2-2.95 4.35-4.15l7.25-.2"/><path fill="#0d131a" d="M144.05 259.1l1.15-2.45q-3.4.85-6.6-.15-.55-.3-.35-1l1.95-5.25-4-1.6-1.4 2.9-1.1 2.75q-.1.55-.65.25-2.5-1.4-4.75-4.9-.5.95-.2 1.9.2 1.8 4.1 5.15l.2.35.05.7-.35.75q1.35-.1 2.5.55l1.7 1.35.25-1q.2-.65.9-.45l4.05.45 2.55-.3m-1.75-3l3.5-.45q.4-.15.5.15l.05.3-1.6 3.55-.25.25-2.15.45-4.85-.5q-.2.25-.45 1.4-.95.85-1.3.7-.2-.1-.3-.6l-.3-.8-.7-.5-.5-.25-1.3-.4-.7.1-.45.1q-.25.05-.4-.4l-.1-.4.5-1.5q-3.65-2.8-4.45-6.35l1.25-3.15.5 1.05 1.1 1.75q1.45 1.85 3.15 2.9.95-2.85 2.3-5.55.15-.3.5-.3l.3.05 4.7 1.8q.55.25.4.8l-1.95 5.5 3 .3m48.5-89.35l-.4 3.6q.9 2.15.35 3.15-.3.5-.75.55l-.2 3.5-1.4-.6.7-4.55.65-.3q.15-.4-.3-1.75l.25-3q-2.2-2.7-5.6-2.65-1.85 0-3.8.85l-.9 2.25q-1.3.65-1.7 1.65-.45 1 .6.75l-1.2 3.6-1.15.15.75-2.4q-.7-1.25-.5-1.95.25-1 2.05-1.85l.45-1.35.75-1.65q1.1-1.25 4.25-1.4 4.25-.25 7.1 3.4"/><path fill="#0d131a" d="M186.15 167.9l-4.1-.4q-2 .2-3.55.85l-1.5.3q-.1-.3 1.35-1.15 1.55-.9 3.75-1.05 2.3-.2 4.35.55 3.05 1.1 3.75 3.2.25 1.9-.6.5-1.2-2-3.45-2.8"/><path fill="#0d131a" d="M185.3 170.75q-1.85-.7-4.35-.55-2.4.15-3.6.9l.4-1.1q1.35-.85 3.65-.9 2.35-.1 4.45.7 3.15 1.05 3.9 3.45l-.4 1.35q-.3-.9-1.45-2.1-1.25-1.3-2.6-1.75"/><path fill="#0d131a" d="M174.8 174.1q1.15-1.6 3.85-2.1 2.95-.5 6.45.7 1.5.5 2.8 1.65 1.2 1.1 1.55 2.15l-1.35-.15q-.55-1.6-3.3-2.65-1.95-.65-4.6-.6-2.6 0-2.8.7l-2.6.3"/><path fill="#0d131a" d="M179.2 174.6q-3.5.05-6.1 1.5-3.1 1.7-3.6 4.9-.3 4 2.45 7.25 1.85 2.25 4.85 3.25l-.6.4-.6.5q-1.75-.6-2.85-1.45l-1.85-1.8q-3.15-3.75-2.75-8.35.55-3.4 3.5-5.45 3-2.05 7.55-2.1 4.85-.1 8.8 2.3 4.4 2.65 5.25 7.3v.15q-.3 3.8-3.6 6.8-3.1 2.8-7.25 3.6-.75-.15-1.05-.6l-.5-.6q4.1-.25 7.3-2.9 3.25-2.75 3.6-6.5l-.1-.5q-.95-3.8-4.8-5.9-3.4-1.85-7.65-1.8"/><path fill="#0d131a" d="M177.85 179.5l-.65 3.45-.5 3.2q.05.55-.55.4-3.05-.8-6.3-3.9-.35 1.1.25 2 .7 1.9 5.7 4.4l.25.2.2.5.05 1.25 2.9.2 1.95.35q-.2-.95-.1-1.1l.2-.3q.2-.2.65-.15 1.9.1 4.4-.6 1.85-.5 2.6-.95l.55-2.85q-3.65 1.85-7 1.55-.65-.15-.6-.95l.65-6.05-4.65-.65m-1-.5q.05-.35.4-.45h.35l5.9.8q.4.2-.5 6.85l3.25-.4q2.35-.6 3.55-1.45.6-.4.7.35l-.75 4.15-.2.3q-3.1 2.05-7.4 1.75-.15.6.3 1.45.5 1-.05 1.1-.45.05-.95-.45l-.35-.5-4.45-.6-.5.25q-.35.3-.5.25l-.4-.15-.2-.15.15-2.3q-1.45-.55-2.9-1.6-2.3-1.65-3.45-3.9l.7-3.3.6.7 1.6 1.5q2.05 1.6 4.1 2.25.3-3.6 1-6.45m-77.55-.85q3.8 2.75 2.6 6.05l-1.1 1.95-.8 1.15q-.3 2.2-1.25 2.55l-.85-.1-1.85 2.45-.8-.8 2.65-3.45.7.05.55-1.65 1.65-2.4q.2-3-2.7-4.9-2.4-1.55-4.1-1.25l-1.75 1.4q-1.4-.05-2.2.55-.85.65.15.95l-2.7 2.45-1-.45 1.75-1.65q.05-1.45.5-1.95.65-.65 2.55-.5l2.65-1.95q1.75-1.1 5.35 1.5"/><path fill="#0d131a" d="M98.3 182.05q2.05 2.4 1.55 4.55-.65 1.7-.7.1-.05-2.35-1.5-4.05-1.15-1.4-3.15-2.35-1.7-.85-3.3-1.05-1.4-.25-1.35-.5.05-.3 1.65-.3 1.65 0 3.55.95 1.95 1 3.25 2.65"/><path fill="#0d131a" d="M96.55 184.1q2 2.5 1.5 4.85l-.95.95q.2-.9-.2-2.45-.4-1.75-1.25-2.8-1.25-1.55-3.35-2.65-2-1.1-3.3-1l.85-.75q1.5-.05 3.35 1.05 1.95 1.1 3.35 2.8"/><path fill="#0d131a" d="M89.65 182.4q2.65 1 4.9 3.75 1 1.2 1.5 2.8.45 1.5.25 2.6l-1.05-.8q.4-1.6-1.45-3.85-1.25-1.55-3.4-2.85-2.15-1.25-2.65-.75l-2.25-1.05 4.15.15"/><path fill="#0d131a" d="M77.95 185.4q-2.15 3.25-1.45 7.35.45 2.55 2.05 4.65l-1.45.25q-1.4-2.3-1.85-4.7-.85-4.6 1.65-8.35 2.05-2.6 5.45-2.85 3.45-.25 7.15 1.95 4.2 2.45 6.2 6.05 2.4 4.3.7 9l-.05.1-.05.05q-2.35 3.55-6.55 4.35-4.15.8-8.05-1.35v-1.55q3.5 2.2 7.4 1.55 3.9-.7 6.1-3.9l.15-.5q1-3.65-1.1-7.35-1.9-3.25-5.4-5.3-2.85-1.7-5.65-1.8-3.35-.1-5.25 2.35"/><path fill="#0d131a" d="M78.8 197.85l-.5.05-.4.15q-.3 0-.75-.45-.15-.15.45-.9l.8-1.05-1.6-2.75q-1.1-2.55-.95-5l2.1-2.45.8 2.95q.9 2.35 2.25 3.9 2.1-3.15 3.85-4.9.2-.3.55-.2l.3.15q4.2 3.25 4.45 3.65.2.35-3.7 5.55.95.6 2.85 1.2 2.2.7 3.6.6.65-.05.4.65l-2.6 3.1-.25.15q-3.5.2-6.85-2.15-.25.2-.55 1.05-.95.95-1.3.75-.25-.1-.35-.85l-.1-.9-.65-1-.9-.75-.95-.55m-1.35-10.9q-.75.85-.75 1.85-.2 1.2 1.15 4l1.4 2.55.05.85-.6.9 1.05.2q1.3.8 2.1 1.7l.6 1.1.35-.75.45-.4q.15-.1.55.2 1.5 1.05 3.8 1.7l2.6.5 1.8-2.15q-3.65-.2-6.4-2.15-.45-.45-.05-1.1l3.4-4.8-3.5-2.8-2.15 2.5-1.9 2.45q-.25.55-.7.1-2.15-2.3-3.25-6.45m53.2-47.1l-1.7-.1q-.3.15-.25.7l-4.4 1.35-.4-1.15 3.05-.85q0-.45.45-.8l3.15-.15 3.4-.8q4.2 2.15 4.5 6.7.1 2.25-.6 4.15l-2.7 1.85q-.55 1.9-1.6 2.2l-2.2-.35-2.25 1.1-.05-1.15 3.4-1.75q-.05 1.05.85.5t1.4-1.95l2.05-1.2q.6-1.85.35-3.85-.45-3.4-3.45-5.2l-3 .75"/><path fill="#0d131a" d="M134.45 142.3q1 1.95 1.2 4.25.15 2.2-.5 3.85-.65 1.55-.95 1.5-.3-.1.05-1.55.45-1.65.35-3.65-.1-2.35-1-3.95-1.05-2.1-3.25-3.05-.95-.4-.35-.55l.75-.1q2.15.4 3.7 3.25"/><path fill="#0d131a" d="M131.75 143.25q1.1 2.05 1.35 4.35.3 2.35-.4 3.75l-1 .55q.6-1.3.35-3.65-.2-2.5-1.15-4.3-.65-1.25-2.1-2.3-1.35-1-2.3-1.15l1.25-.55q2.45.35 4 3.3"/><path fill="#0d131a" d="M128.05 144.9q-1.4-2.6-3.1-2.9l-.35-1.3q1.1.2 2.35 1.25 1.35 1.1 2.05 2.5 1.7 3.3 1.6 6.3-.05 2.65-1.45 4.1l-.15-2.65q.7-.25.35-2.85t-1.3-4.45"/><path fill="#0d131a" d="M118.55 139.35h-.5q-3.9.9-6.1 4.4-2.2 3.45-1.65 7.65-1.25 0-1.4-.45-.4-4.6 2-8.3 2.45-3.8 6.7-4.75l.1-.05h.1q4.65.15 7.95 4.15 2.95 3.5 3.6 8.35.55 4.5-1 7.75-1.6 3.3-4.9 4.3-4.5 1.05-8.65-1.5-2.4-1.55-4-4.1-.15-.35.2-.75l.55-.65q1.5 2.7 4 4.35 3.5 2.2 7.55 1.35 3.05-.95 4.3-4.3 1.05-2.8.55-6.25-.55-4.2-2.9-7.3-2.65-3.5-6.5-3.9"/><path fill="#0d131a" d="M115.6 142l-2.75 1q-.35.8-.55 2.7-.35 2.55.05 4.45v.7l-.6.2-.85.05.95 1.95q.55 1.4.35 2.75l1.05-.1q.65-.05.95.35l1.85 2.35q2.05 2.35 3.3 2.6.95.45 2.05 0-3.5-2.6-4.8-5.65l-.05-.3q.05-.3.4-.35l3.05-.9 3.3-1.2-1.3-4.5-5.9 1.55-.8-.2-.2-.3q-.8-3.35.5-7.15m-4.2 2.7q.35-1.9.7-2.25l.25-.25q3.5-1.35 3.95-1.35l.35.1q.35.15.15.55-.7 1.3-.9 3.75-.2 2.1 0 3.25l3.6-1 3.15-.55.95 3.05.7 2.7q.2.65-.35.85l-6.25 1.95q1.55 3.05 4.55 5.05l.8.5-3.2 1.15q-3.7-1.25-6.35-5.45l-1.85.2-.7-.8q.8-.9.05-2.7-.55-1.25-1.1-1.85l-.4-.4.7-1.1.5.05.7-.15q-.55-2.65 0-5.3m75.9-69.55q-.35-1.35-.8-.9l-.7.2 1.95-5.6.7 2.9-1.15 3.4m12.2 11.25q.65-2.3 1.2-3.6l2.05-.3-1.55 3.8q.25.25.15.7l-1 1.1q-4.9 2.8-10.2.1-2.65-1.35-4.45-3.55-1.75-2.25-1.85-4.3l-.05-.15 1.1-3.1q.25.9 1.05 2.05l-.4 1.25q.1 1.6 1.65 3.4 1.55 1.8 3.75 2.9 1.65.85 4.95 1.05 3.7.15 3.6-1.35m5.85-9.9l-1.25 2.8-1.7-.35 1.4-3.1 1.55.65"/><path fill="#0d131a" d="M186.85 73.8q-.55.2-.95 1.05-.35.9-.4 2.05-.05 2.2 2.05 4.75 3.15 3.8 10.2 6.75l-1.2.35q-6.75-1.9-10.3-6.45-2.5-3.25-2.4-5.75.05-1.45.9-2.55.75-.9 1.7-1.25l.4 1.05"/><path fill="#0d131a" d="M187.5 73.05q-.5.9.6 3.4 1.1 2.35 3.25 4.45 3.55 3.4 8.9 4.7l-.2.85q-5.6-1.35-9.3-4.95-2.3-2.2-3.45-4.7-1.3-2.85-.6-4.15l.8.4"/><path fill="#0d131a" d="M187.95 68.55q-.4.45.65 3 1.5 3.7 4.85 6.85 3.9 3.65 8 4 1.4.15 1.85-.55.35-.55.15-1.55-.2-.9-.55-1.45l.95-.6.65 1.8q.3 1.5-.25 2.4-.45.65-1.25 1.1l-1.9.35q-4.45-.4-8.45-4.15-3.5-3.3-5.4-7.85-1.2-2.75-.15-4.05l.85.7"/><path fill="#0d131a" d="M197.3 76.45q3.25 2.35 5.55 1.9l.15.85q-2.95.6-6.2-1.55-3.4-2.15-4.45-5.65l.8-.3q1 2.55 4.15 4.75"/><path fill="#0d131a" d="M188.75 67.85q3.7 3.7 9.15 5.75 5.35 2 10.7 1.85 5.35-.2 9-2.5.85-2.6.85-5.4 0-4-1.55-7.9-1.25-3.15-2.8-4.85-1.15.8-2.95.6-1.6-.1-3.15-.9-3.3-1.75-3.3-4.35-5.6-1.75-11.05.3-3.55 1.3-6.4 3.9-1.75 1.55-2.75 3.15-.8 1.25-.8 1.8v.1q1.3 4.75 5.05 8.45m17.1-19.15l.6.55.05 1.1q-.1 1.35 2.25 2.65 1.35.7 2.85.65 1.45 0 1.95-.55.3-.35.7-.3.3.05.45.25 2.6 2 4.35 7.6 2.2 6.9.1 13.1l-.55.75q-3.9 2.6-9.7 2.75-5.65.15-11.6-2.05-5.85-2.15-9.8-6.2-3.95-4-5.4-9.15l-.05-.5q0-2.7 3.2-5.75 3.1-2.85 7.3-4.5 6.75-2.7 13.3-.4"/><path fill="#0d131a" d="M202.1 52.25q.8.5.2 1l-3.4 4.25q-3.05 4.2-3.75 5.9l2.4 1.45 2.7 1.25q1.3-2.3 4.15-6.25l3.2-4.2q1.1-1.1 2.05.1 1.05 1.35 2.9 4.8 2.5 4.6 2.8 6.9.6-.05 1.9-1.05l2-1.8.3 1.7-1.6 1.2q-1.3.8-2.35 1.2l-1.25-.1-.15-.55q-.15-2.1-2.05-5.9-1.85-3.65-3.55-5.45-1.1 1-4.05 5.65l-3 4.9q-.35.65-1.25.25-1.15-.35-3.35-1.55l-3.05-1.9-.15-.65q.55-1.7 3.05-5.15 1.85-2.65 3.95-5.15-4.25-1.45-9.5.65l-4.45 2.4q-1.45 1.3-1.3.25.15-.6.85-1.7l.7-1v.75q3-1.9 6.1-2.7 4.9-1.3 8.95.5"/></svg>