<svg xmlns="http://www.w3.org/2000/svg" width="240" height="286" viewBox="-3.2 -0.5 240.05 286.45"><path fill="#0d131a" d="M17.45 170.85q10.3 4.5 25.45 15.55 4.85 3.55 6.7 9.25.95 2.9.95 5.3l-.1 1.65-11.15 9.5-1.9-.5-3.15-.6q-3.65-1.15-7.7-4.65Q12.6 194.4 6.4 182.3.95 171.65 4.65 169q3.25-2.3 12.8 1.85"/><path fill="#bf794e" d="M13.9 189.8q-6.4-8.25-8.2-16.2-1.45-6.6 10.7-.25 6.7 3.5 20.25 12.25 6.6 3.95 9 10 1.2 3 1.1 5.2l-8.4 7.15q-2-.5-4.75-1.7-5.45-2.3-9.15-5.45-6.1-5.25-10.55-11"/><path fill="#965e3a" d="M13.9 189.8q-6.4-8.25-8.2-16.2l-.05-.4q13.2 19.55 35.2 32.6l-2.5 2.15q-2-.5-4.75-1.7-5.45-2.3-9.15-5.45-6.1-5.25-10.55-11"/><path fill="#efeaba" d="M119.3 184.5q1.15-1.65 1.9-4.75.6-2.5.8-5.2 1 .25 2.35 1.45l1.75 1.9q.4-1.75.4-3.8l-.2-4.15q1.4.3 2.9 1.5l2.85 2.65q1.2-5.35 4-8.9 1.45 3.4 5.15 4.3 1.3-4.35 4.55-7l3.65 2.35q2.4 1.3 3.95 1.55 7.9 12.05 10.5 15.5.95 20.95-2.5 31.9-4.05 12.9-16.9 23.3-14.5 11.75-33.65 12.55-19.25.8-35-9.95 19.55-3.15 31.7-18.45 12.25-15.45 11.8-36.75"/><path fill="#bf794e" d="M166.55 51.2q.65 1.4-.3 2.8-4.15 6.25-8.25 14.55-5.3 10.65-7.6 19.15 7.85 2.1 14.8 8.7 8 7.6 9.5 17l-4.4 6.7q-4.65-3.4-8.35-2.75-3.5.6-6.65 4.9-4.05 5.55-8.4 9.5-4.4 3.95-13.05 9.9-3.15 2.15-3.65 4.7-.55 2.7 2.35 3.95 4.65 2.05 10.8 6.65 7.25 5.3 10.05 9.6-1.3-.15-3.9-1.55l-3.75-2.5q-1.3.7-2.7 3.1-1.2 1.95-1.85 3.9-1.35 0-3.05-1.5-1.45-1.3-2.1-2.55-1.05.85-2.4 3.75l-1.8 4.65q-3.15-3.4-5.55-3.9l.1 4.15q-.05 2.55-.3 3.8-1.25-2-4.1-3.35-.45 5.1-2.6 10.3.25 15.5-6.8 28.7-5.65 10.65-14.95 18.05-6.1 4.85-19.9 7.8l-18.55 3.15-8.9 2.45q-5.65 1.6-10.05 1.85-2.45.15-6.85-3.15l-7.55-6.05q-2.4 1.5-5.35 2.3l-4.55.45q-1.7-.35-6.4-2.25-4.8-1.95-6.1-2.85-1.4-1-1.65-2.65-.35-1.85.85-3.8 2.35-3.9 10.4-10.9 6.75-5.85 13.6-10.65 6.7-16.2 27.15-28.2 17.85-10.55 34.8-12.2 7.05-5.5 17.3-6.7l.7-.85q-7.4-5.6-11.25-15.55-3.5-9.1-3.75-20.7-.2-11.6 7.4-22.55 8.15-11.8 21.05-15.7l-4.25-8.25q-2.55-5.2-3.1-6.85-.75-2.3-.55-3.45.2-1 1.45-2.6.8-1 3.45-2.55 2.3-1.4 3.6-1.9 3.25-1.2 4.95-.1-.1-1.05.4-2.7.55-1.65 1.45-2.8 2.2-2.85 5.9-6.25 4.1-3.7 6.65-4.75l3.05-.2q1 .55 1.15 2.15l.35 8.65q.05 6.7-.45 11.75l2.2-7.1 2.1-6.25q.6-1.45 1.2-2.05.75-.7 2.1-1l6.35-.15 6 .8q1.85.55 2.5 1.95"/><path fill="#c9c59d" d="M151.35 178.25q-5.4-3.25-10.15-8.75 1.85-5.5 4.55-7 4.2 3.35 7.75 4.15l5.45 8.2 5 7.45q-6.45-.4-12.6-4.05"/><path fill="#965e3a" d="M145.75 162.5q-2.7 1.5-4.55 7-4.5-5.2-7.8-11.5-2.95-5.65-3.9-10.05 1.05 1.3 5.1 3.7l5.85 3.35q2 1.15 5.7 4.3l5.7 5.3 1.65 2.05q-3.55-.8-7.75-4.15m34.75-57.65q.85 4.85 3.9 9.65 2.7 4.15 5.4 6-5.95 2.15-9.8 2.35-5.65.25-9.85-2.95l10.35-15.05m-2.75 43.5q4.6.25 8.45-.05 4.75-.4 6.6-1.65.65 3.85 2.05 7.1l-12.6 9.65q-.9-4.6-4.5-15.05"/><path fill="#0d131a" d="M94.2 238.5l-2 2.85q-1.1 1.55-1.85 3.3-.8 1.75-.75 2.5l3 1.85q3.4 1.85 9.75 7.4 10.25 9 13.1 12.7 2.25 2.95 1.25 4.8-.3.6-1.7.75l-3.85-.45q-6.65-1.75-12-3.6 1.55 5.7 1 9-.3 2.15-1.35 2.9-.55.45-1.5.4-1.3-.05-2.9-.95-5.8-3.45-11.8-5.6-1.05 8.8-3.95 9.45-.55.15-1.5-.7-1-.95-1.85-2.7-7.4-14.8-12.3-21.55-4.15-5.75-9-8.85-2.8-1.85-3.65-4.6-1-3.05.85-5.85 2.15-3.4 6.5-3.35l8.15 1.25 5.4.6q1.7-.55 4.1-2.35l2.9-2.5 1.05-1.05 14.9 4.35"/><path fill="#fcd13e" d="M84.3 244.35q-1.5 1.15-2.3 3.9-.3 1.15.3 2.6.55 1.4 1.15 1.25l.15-1.75q-.1-1.9 1.45-3 1.5-1.1 6.1 2.45l10.35 8.25q6.65 4.9 11.25 10.15 5.2 6-.2 4.6-6.6-1.75-13.8-4.45l-.3-.75-.35-1.5-.1-1.25-.15-.9q-.55-.7-.95.75-.35 1.3-.25 2.05l1.7 8.05q.95 7.2-2.2 5.35-2.05-1.2-6.75-3.45l-6.55-3.15q-.2-.1-.3-1.8l.2-1.35v-.7q-.55-.25-1.05.8-.45.85-.5 1.65-.2 3.85-.9 7.4-1.2 6.2-2.8 3l-6.05-12.4q-5-9.7-8.8-13.8-2-2.15-4.7-4.25l-3.7-2.75q-3-2.5-1.05-5.4 2.3-3.4 9.45-2.45l5.4.9q2.85.45 4 .05 2.35-.8 5.4-3.2l2.6-2.25 10.1 2.95q-3 2.65-5.85 4.4"/><path fill="#d9b536" d="M52.3 246.5q-.1-1.15.9-2.55 2.35-3.45 9.45-3.2l5.35.4 4-.2q3.8-1.3 8.05-3.95l5.8 1.7q-6.6 7.7-13.75 10.05-9.15 3.05-19.8-2.25"/><path fill="#0d131a" d="M124.5 240.3q6.6 3.2 9.05 4.2 13.55 5.15 22.95 11.35 10.6 7 8.95 11.15-.3.8-1.05.9l-2.1-.2-9-2.6q4.75 8.6 2.65 10.8-.55.55-2.05.5l-3.25-.85-12.55-5.95q-.4 6.75-2.8 8.45-1.95 1.4-3.85-.8l-9.35-9.95q-13.4-15.25-16.55-17.75l-7.95-5.25q-3.1-2-2.65-4 .55-2.5 3.9-3.25l7.8-1.6q2.95-.25 7.85 1.1l2.55.7q2.55.7 7.45 3.05"/><path fill="#fcd13e" d="M116.25 240.8q7 1.9 18.9 6.7 11.95 4.85 17.3 8 7.9 4.7 10.75 8.2 1.5 1.9.95 2.55-.55.6-2.25 0-4.6-1.55-9.25-3.7-1.2-.55-1.65-2.2-.2-.55-.25-1.6l-.25-.9q-.7-.25-.95 1.15-.25 1.35.1 1.95 5.55 12.1 4.95 12.85-.2.35-.8.45l-1.35-.2-14.2-6.45q-.25-.05-.15-1.55l.3-1.5.1-.75q-.65-.3-1.35.85-.65 1-.75 2l-.45 6.5q-.85 5.15-3.3 3l-6.95-8-10.75-11.8q-1.5-1.6-13-11.1-6-5-2.55-5.75 5.4-1.15 7.8-.9 1.55.15 9.05 2.2"/><path fill="#d9b536" d="M100.7 244.15q-4.5-3.95-1.3-4.65 5.4-1.15 7.8-.9 1.55.15 9.05 2.2 7.45 2 20.25 7.25-3.15 5.05-9.75 6.65-7.05 1.6-15.05-1.5l-11-9.05"/><path fill="#0d131a" d="M169.15 119.25l11.2-15.7.5 2.5-9.65 14.5-2.05-1.3M182 162.3l12.55-9.5.45 1.9-12.45 9.95-.55-2.35"/><path fill="#965e3a" d="M202.1 148.15l-1.75 2.3-2.3-32.35.95.95 3.1 29.1"/><path fill="#0d131a" d="M173.8 49.25l-8.6-7.5q-.85-.85-5.8-4-4.35-2.75-4.8-3.85-1.2-3.1-1-6.2.15-2.95 1.35-3.35 2.45-.8 12.75 3.05l-6.6-12.75q-1.8-4.1.75-7.95 2.25-3.4 6.95-5.3 4.6-1.9 8.65-1.2 4.5.8 6 4.55L188.9 18q5.35 13.1 9.75 25.2Q212.5 81.65 217 110.1l4.15 25.65q4.75 29.2 6 41.25 1.5 13.85-.05 17.8-1.4 3.55-4.25 6.4-2.85 2.8-6.1 3.95-3.55 1.2-8.3-1.7-5.05-3.05-2.2-7 1.65-2.35 2.4-5.3l.7-4.25q1.25-10.2-.4-25.25-2-17.75-8.5-46.6Q194.9 90.3 189.8 75.3q-4.1-12.05-8.45-19.35l-7.55-6.7"/><path fill="#6cba5a" d="M181.15 6.15q9.1 21.15 16.3 41.05l-3.3-2.2-2.95 3.35-1.7-1.7-2.95 5.1-2.95-.45-.85 3.15q-1.1-1.4-6.3-5.8l-8-7.05q-2.35-2.3-7.5-5.65-4.3-2.75-4.7-3.8-.7-1.75-.8-3.7-.1-2.1.8-2.4.7-.2 5.85 1.25 5.4 1.5 6.6 2.55.8.7 6.55 10.6 5.45 9.35 5.9 9.05.9-.6-17.3-34.95-1.2-3.05.75-6.1 1.75-2.75 5.3-4.4 3.45-1.7 6.55-1.3 3.45.5 4.7 3.4"/><path fill="#d6e6ae" d="M189.5 46.65l1.7 1.7 2.95-3.35 3.3 2.2q13.05 36.35 17.3 63.45l8.9 56.1q3.25 22.6 1.7 26.6-1.25 3.25-3.8 6.1-2.4 2.65-4.6 3.6-2.2.9-6.25-.75-4.15-1.75-2.9-3.65 3.3-5.15 4-13.45.8-9.2-.4-21.4-1.9-19.4-8.85-50.2-6.3-28.05-12.2-42.95-1.8-4.7-4.15-9.3l-3-6.25-.45-.65.85-3.15 2.95.45 2.95-5.1"/><path fill="#b9c897" d="M221.6 194.9q2.65-3.2 4.3-7.6.1 4.4-.55 6.05-1.25 3.25-3.8 6.1-2.4 2.65-4.6 3.6-1.95.8-5.7-.6-3.85-1.4-3.7-3.15 5.55 1.65 8.45.15 3.1-1.55 5.6-4.55"/><path fill="#0d131a" d="M205.2 57.95q4.35-3.55 7.85-3.2 3.4.35 6.65 4.4 5.9 7.4 7.4 22.25 4.1 2.05 6.75 12.75 2.9 11.7.85 23.65 2.15 4.3.6 12.85-1.35 7.85-4.2 12.25-2.25 3.55-16.55 10.35-14.3 6.75-17.35 5.85-2.4-.7-4.45-8.5-1.9-7.1-1.45-8.65-3.4-4.1-4.7-12.6-.3-1.95.7-4.7l1.35-3.65q-4.65-3.2-7-8.75-2.35-5.45-2.05-12 .45-10.25 6.35-20.5 6.5-11.35 19.25-21.8"/><path fill="#bf794e" d="M184.85 86.45q3.1-8.6 11.5-17.55 5.95-6.35 10.4-9.15 3.7-2.35 4.95-2.45 2.85-.25 6.2 3.9 3.15 3.95 5.35 13.4 1.15 4.75 1.6 8.7 2.45.6 4.05 3.75 1.45 2.85 3.15 9.75 1.55 6.45.9 14.6-.3 4.1-.9 6.85 2.1 1.85 1.3 9.65-.8 7.55-3.45 13.1-2.1 4.5-15.3 10.2l-15 5.8q-3.25 1.4-5.45-10.1-.6-2.95-.5-4.05.05-.7.6-1.65.9-1.55 9.3-8.5 9.4-7.7 16.2-11.85 2.45-1.5 5.95-1.5l2.8-.05q-.05-.7-3.05-1.15-3.45-.5-6.25.95-6.3 3.25-17.1 11.5l-9.4 7.2-1.5-5.65-1.3-6.3q-.4-2.1-.1-3.5l.75-2.3q.6-1.5 7.7-10.85 7.95-10.5 14-17.05 2.75-3 5.85-4.7l2.2-1.45-2.65.1q-2.95 1.1-6.3 4.35-5.8 5.65-14.8 17.65l-7.8 10.45-2.8-3.5q-1.7-2.4-2.35-3.95-2-4.95-1.95-9.55.05-6.1 3.2-15.1"/><path fill="#965e3a" d="M215.05 144.5q10.8-5.95 17.65-12.35-1.05 5.25-2.8 8.85-2.1 4.5-15.3 10.2l-15 5.8q-2.55 1.1-4.55-6.1 3.1 1.2 7.25-.3 5.4-2.05 12.75-6.1M1.5 232.9q-.05-.6.5-2 .6-1.45 1.3-2.55 4.55 2.3 11.85 4.4 7.8 2.25 13.15 2.55l-4.45 2.8q-3 1.75-4.9 2.3-3.15.95-10.3-2.3-7-3.15-7.15-5.2m47.55.45l11.55-.95 16.8-.6 21.15-1.05q-6.85 5.6-21.45 8.8-15.25 2.55-19.3 3.55l-11.05 2.85-7.25.65q-2.35-.2-6.7-3.5l-6.4-5.45 3.1-1.95q3.5-1.95 7.05-3.65 3.95 1.35 12.5 1.3"/><path fill="#c9c59d" d="M123.85 233.5q15.75.35 28.85-4.25-14.55 15.35-33.45 19.35-22.15 4.7-43.3-8.5 15.1-2.45 23.9-10 11.5 3.15 24 3.4"/><path fill="#0d131a" d="M96.7 173.95l.6-.15 4.05-.4 7.35.45q3.1.75 5.8 2.85 1.4 1.05 2.2 2.05l.25.85-.35.75-.85.25q-.5-.05-.8-.4v.05l-1.7-1.85q-2.25-1.95-4.8-2.6l-6.9-.9-3.75-.1q-1.75.2-1.75-.45 0-.2.65-.4m23.55-79.55q-1.25-.65-1.05-1.25.25-.6 1.55-.6 5.9 0 17.65 4.4 9.25 3.5 14.3 6.35.5-1.95.5-5.9l-.1-5.05q-.05-1.45.75-1.25.75.2 1.35 1.45 1.9 3.8 3.25 11.55 1.15 6.75.95 9.95-.05 1.4-.95 1.85-.75.4-1.55-.25-3.3-2.8-17.95-11.1-12.45-7.05-18.7-10.15"/><path fill="#543823" d="M122.55 93.65q2.9.1 13.85 4.25 11.05 4.2 17.3 7.6 1.1-3.9.5-11.3-.3-2.65.6-.4 1.15 3 2.15 8.4 1.05 5.95 1.25 11.35.05 1-.2 1.15-.15.15-.6-.25-2.95-2.55-16.65-10.4-13.3-7.6-18.55-9.9l-.7-.4 1.05-.1"/><path fill="#0d131a" d="M127 140q-5.2-3.5-6.15-18-.4-6.1.5-10.65 1-4.85 3.15-5.8 2.05-.9 6 1 3.8 1.8 7.7 5.35 9.45 8.7 9.45 17 0 4.7-8.6 9.1-8.5 4.35-12.05 2"/><path fill="#fff" d="M128.05 138.25q-4.1-2.85-5.4-16.2-1.35-13.35 2.3-15.25 1.4-.75 4.9 1.15 3.5 1.9 7.1 5.3 9.2 8.65 8.8 16.2-.15 3.5-7.65 7.05-7.45 3.55-10.05 1.75"/><path fill="#0d131a" d="M132.75 136q-1.25.3-2.95-2.55-1.8-3.05-3.05-8-1.6-6.6-1.45-9.95.15-2.65 1.4-2.9 1.5-.4 3.1 2.35 1.7 2.9 3.2 9 1.15 4.85 1.05 8.35-.1 3.4-1.3 3.7"/><path fill="#fff" d="M128.6 119.7q-.45.1-1.05-.6-.65-.8-.95-1.95-.3-1.2-.05-2.2.2-.95.65-1.05.45-.1.95.5l.95 2.1q.35 1.35.1 2.3-.2.8-.6.9"/><path fill="#0d131a" d="M168.35 110.65q-.4-1.4-1.15-2.25-.85-.95-1.85-.8-1.05.2-1.55 3.6-.4 2.9-.25 5.95l-1.15.1q-.5-3.3-.25-6.55.4-5.15 2.85-5.65 1.6-.35 2.9 1.2 1.3 1.45 1.8 4 .2 1.3-.4 1.35-.65.05-.95-.95"/><path fill="#0d131a" d="M214.1 115.55q1.75 1.7.2 6.5-1.45 4.5-5.15 10-8.85 13-18.1 16.25-1.9.7-4.85.85l-7.45-.1q6.15 17.35 5.9 28.1-.3 10.55-6.65 12.85-4.85 1.75-9.1-1.45-4.05-3-10.05-12.45-5.85-9.2-9.8-13.3-4.8-5-13-9.6-3.95-2-5.1-2.85-1.85-1.3-1.85-3.45 0-2.55 5.95-7l10.45-7.55q2.55-2.1 8.2-9.05 4.65-5.7 6.7-6.3 3.9-1.15 8.75 1.35 6.1 3.25 7.65 3.45 3.4.5 8.55-.7 5.6-1.3 10.35-4 3.95-2.3 10.2-2.85 6.3-.55 8.2 1.3"/><path fill="#fcd13e" d="M205.95 115.9q5.6-.7 7.1.65 1.1.95-.45 5.15-1.5 4.25-4.75 9.25-8.3 12.85-17.3 16l-10.25.65q-10-.35-13.85-.05-4.5.35-8.8 1.6-4.3 1.3-8.35 1.6l-4.7-.35q-2.05-.45-4.9-1.7-1.3-.55-1.65-.25-.4.3 1 1.2l6.7 3.15q6.55 3.3 10.15 7.3 2 2.25 6.15 9.25 3.9 6.65 7.3 10.15 6.45 6.6 9.9 5.1l.9-.75-.75-.1q-2.35.8-5.5-1.4 2.25.45 3.85-.85 3.85-3.15 1.85-15.3-1.95-11.75-6.55-17.25l3.7.1 3.1 8.25q1.95 6.05 2.5 10.2 1.15 8.5.35 13.3-1.15 6.45-5.85 7.75-5.15 1.45-10.45-4.65l-11.85-16.8q-5.5-7.9-15.35-13.8l-5.8-3.45q-2.3-1.55-2.3-2.75 0-2.45 5.05-6.15l10.1-7.25q3.25-2.65 8.4-9.4 4.2-5.55 6.1-6 3.6-.85 7.75 1.65 5.3 3.15 7.85 3.6 3.25.55 9.2-.9 5.95-1.5 10.95-4.05 3.95-2 9.45-2.7"/><path fill="#922f00" d="M171.25 149q5.35 6.25 7 18.3 1.6 11.75-2 12.95l-2.3-.1q-3.8-1.15-6.7-4.9-1.4-1.85-3.45-5.45 6.6 4.45 8.5 3 1.55-1.2-.8-10.15-2.45-9.4-6.1-13.55 2.55-.25 5.85-.1"/><path fill="#ed8599" d="M165.4 149.1q3.65 4.15 6.1 13.55 2.35 8.95.8 10.15-1.95 1.45-8.5-3l-3.05-5.65q-2.75-5-7.9-8.85l-4.6-2.85q3.3.4 8.85-1.2 6.9-2 8.3-2.15"/><path fill="#ce7486" d="M165.4 149.1q1.7 2 3.35 5.6-8.35-1.1-13.35 2.7-2.3-2.1-4.95-3.75l-2.2-1.2q3.3.4 8.85-1.2 6.9-2 8.3-2.15"/><path fill="#0d131a" d="M162.4 168.7q0-.45.4-.1 1.8 1.85 4.65 3.2 3.2 1.55 4.55.7 1.6-1-.95-10.2-2.6-9.65-6.4-13.45-.35-.35.4-.6.8-.25 1.25.3 3.85 4.5 6.1 14 2.3 9.55-.3 10.65-1.7.7-4.75-.55-2.95-1.25-4.65-3.1-.35-.4-.3-.85m2.95-117.15q-1.85-1.85-8.55-2.05-6.6-.15-7.25 1.45-1.05 2.5-3.8 11.2l-1.6 11.95q-1.45 11.3-1.8 11.3-.4 0-.1-7.4l1.2-22.7q.3-6-.2-9.3-.5-3-1.45-2.8-2.2.4-8.15 5.8-6.6 5.95-6.6 9.3 0 2.3 2.15 15.9 1.9 12.15 1.35 12.25-.6.15-2.85-11.3l-2.4-12.8q-.3-1.6-.9-2.1l-1.55-.15q-3.8 1.3-6.2 2.75-4.15 2.6-3.35 5.3 1.15 3.8 7.45 16.2l.35.85-.5.4q-10.25 3.05-17.5 11.7-6.95 8.25-9.25 19.3-2.35 11.3.85 22.1 3.5 11.7 12.9 20.15.7.6-.2 1.65l-1.05.9q-3 .6-6.65 1.7-7.25 2.25-10.4 4.85-11.85 1.8-19.3 4.55-9.85 3.65-21.55 11.85-13.9 9.75-18.95 19.15l11.3-7q11.5-7.05 12.1-6.25.45.65-2.7 3.3-3.4 2.85-8 5.5-8.8 5.05-16.05 10.3-11.05 7.95-17.5 14.4-6 6.05-5.8 8.5.1 1.4 6.7 4.35 6.85 3.05 9.6 2.25 2.95-.85 6.7-3.35 3.8-2.2 9.9-5.25 12.15-6.1 23.6-10.2 10.65-3.8 19.6-5.55 7.95-1.55 8.3-.5.15.55-7 2.35-10.45 2.55-18.35 5.5-9.4 3.5-22.2 9.95-11.6 5.9-11.25 6.25 2.95 2.65 5.85 4.45 3.65 2.3 6.15 2.5l6.5-.6 10.35-2.8 9.25-1.3q8-1.1 14.05-2.8 19.3-5.55 27.65-19.65 6.6-10.85 9.05-21.35 1.55-6.85 1.1-11.6-.25-3 .75-3t1.25 2.95q.7 7.15-1.65 16.4-2.75 10.6-8.6 19.1-6.05 8.8-13.1 13.4-7.55 4.9-19 6.75-15.45 2.6-19.8 3.7l-8.9 2.8q-6.55 1.95-9.2 1.75-3.45-.25-8.1-3.7l-6.6-5.5q-3.3 1.6-5.85 2.35l-5.4-.35Q10 240.7 6.45 239q-9.65-4.65-5.05-11 6-8.2 23.9-22.2 6.05-14.2 24.65-25.8 17.95-11.25 37.85-14.3 3.8-2.65 8.3-4.35 4.25-1.55 8.3-2-8.1-7.15-11.75-18.45-3.45-10.95-1.8-22.4 1.75-11.9 8.55-20.7 7.45-9.65 19.4-13.4-2.25-3.85-4.6-8.55-2.5-5.05-3.15-7.3-1.25-4.2 4.7-8.3 5.7-3.85 8.6-2.7.4-4.55 8.2-11.55 8.15-7.3 11.65-4.2 1.8 1.55 1.35 15.95 2.05-8.5 3.45-9.5 1.5-1.1 8.25-1.1 7.4.05 9.65 2.3 1.75 1.75 0 5.35l-4.05 6.7q-3.95 6.75-6.45 12.3-2.5 5.55-5.1 13.3 20.1 7.85 24.2 24.65l-1.65 2.55q-2.1-11.6-11.65-19.15-5.65-4.5-12.2-6.5-.6-.2-.7-.45-.1-.25.1-.95 2.5-8.55 6.4-17.4 2.3-5.25 7-12.6 3.2-5.05 2.55-5.7"/><path fill="#0d131a" d="M164.95 188.9q.6 21.45-5.85 33.6-6.55 12.35-23.8 21.8-15.75 8.65-34.9 6.2-16.5-2.1-26.25-10.25l3.05-.7q9.6 6.15 22 8.2 18.8 3.05 35.55-6.15 20-10.95 25.5-28.35 2-6.4 2.45-15l.25-14.3.05-2.8 2.05 2.55-.1 5.2"/></svg>