<svg xmlns="http://www.w3.org/2000/svg" width="252" height="331" viewBox="-0.4 0.0 252.1 331.05"><path fill="#fff3c2" d="M90.65 290.35q3 .6 5.85 2.3 2.8 1.6 2.2 2.2-.55.55-4.5.8-3.9.3-4.5-.05.3-.1.7-2.2l.25-3.05m3.85-37.55q1.25 1 3.15 1.1 1.8.15 3.1-.6l-.5 4.65q-.4 2.7-1.2 2.9-1.3.3-2.85-2.75-1.4-2.75-1.7-5.3"/><path fill="#152139" d="M117.7 67.2q2.8 12.4-3.65 31.35-6.55 19.15-16.05 25.7l-.4-1.2-.6-1.3-1.4.65-1.65.3 1-3 1.15-3.65q-.95 1.05-4.45 2.25 7.95-8.9 12.2-24 4.25-14.95 1.9-25.35l3.05-1.2q.7 1.1 1.75 5.55l7.15-6.1"/><path fill="#fff3c2" d="M121.05 264.55q-.65-3.05-.8-5.7l1.15.85 2.45.1q1.5-.3 2.8-1-.65 3-2.25 6.2-1.55 3.15-2.2 2.95-.5-.15-1.15-3.4"/><path fill="#be9c59" d="M84.65 287.05q.75-.4 3.25.7 2.45 1.1 2.6 1.6v2.15l-.35 2.7q-.45.95-1.25 1.2l3.6 2.5q3.5 2.5 3.7 2.85.6 1.15.35 2.15-.85-.4-1.45-.25-3.45.55-3.25 3.75.15 3.1 2.75 3.45-.8 1.7-3.75.9-3.1-.85-4.55-3.65-1.85-3.55-10.65-5.8-7.7-1.95-13.2-1.55.4 4.4 2.55 9l2.1 4.5q.15 1.55-.3 3.2-.55 1.75-1.5 2.3 0-1.6-.3-2.3-1.35-3.45-4.6-2.6-3.25.85-3.05 4.25l.65 2.15q-3.85-2.4-3.85-4.25l.25-8.05q-.15-4.35-2.2-6.85-6.5.6-10.1 1.8-4.2 1.3-5.6 3.7-.6 1-2.6 1.1-1.95.1-1.7-.45 1.1-2.35-.45-4.7-1.45-2.15-2.85-2 4-4.9 4.75-5.25l3.45-.1 4.65.1q1.5-.3 3.85-3.8 2.45-3.65 2.2-5.65-.7-5.5-9.3-22.7-7.9-15.9-12.3-21.95-3.35-4.7-3-7.5.15-.9 2.2-4.25 2.7-4.4 5.7-12.3 3.65-9.8 2.55-13.4l2.15-.35v3.7l5.7-2.4.45 3.8q.65-.2 6.1-2.8l.7 4.1q-5.9 5.45-11.4 20 .6 3.75 4 13.05 3.5 9.7 7.65 18.85l5.3 11.35q2.85 5.6 5.35 9.15 5.35 4.3 13.25 5.65 7.5 1.3 11.75-.8"/><path fill="#ed8599" d="M139.05 50.15q2.15 1.9 3.25 5.2 1.2 3.5.45 6.4Q135.95 54 135 50.3l4.05-.15"/><path fill="#fff3c2" d="M142.75 61.75q5.1 5.8 10.25 10 5.7 4.6 8.7 4.85-1.85.2-5.55-1.35-3.25-1.4-6.9-3.7-6.1-3.85-13.8-11.85-5.9-6.15-8.45-9.8l8 .4q.95 3.7 7.75 11.45"/><path fill="#cf7100" d="M123.9 6.85l2.95 3.65q.65-1.15.65-2.05l1.25 1.75.95 1.25 2.2-2.25 3.35 6q1.9-.2 4.65-1.5l-.4 9.6q.9.1 2.5-.75 0 3.1-.5 4.3l3.85.1-1.65 6.55q.6.45 2.2.95-1.45 2.9-1.7 2.85-5.55-1.25-7.35-1.35-4.05-.25-5.15 2.1-1.65 3.65-4.85 7.05-2.45 2.55-2.3 3.7.15.7 2.45 1.1 3.15 4.5 7.55 8.95l-1 3.15q-1 2.35-2.2 3.6l-.9-1.8-1.2-1.7q-1.3 2.75-2.6 4.3l-2.05-2.5-2.65 2.95-3.4 3-.85-2.65-7.15 6.1q-1.05-4.45-1.75-5.55l-2.3.9-2.15.7.35-1.8-4.45 1.35.1-1-.1-1q-.3.4-1.85 1.05-1.9.85-3.75 1.15.6-2.15.3-4.3l-1.5.85q-1.35.6-2.3.65l.05-1.4-.15-1.55-2.45.15-3.1.5q.9-1.95 1.75-5.8l-2.45-.1-2.9-.7 1.2-1.4 1.05-1.35q-2.35-.35-3.5-1.8 1.25-.85 2.1-2.2-4.35-1.85-4.9-2.45l1.6-2L80.9 44q-.15-.55-1.65-2.4l-3.15-3.45 1.55-.9 2.15-1.15q-.45-.15-1.25-.9l-1.15-1.35q1.75-.7 3.95-2.05l-4.8-6.75 7.1-3.9-1.5-2.85 3.55-.35q-.25-1.45-2.05-3.65l2.3.25 2.15.5-.1-4.45 10-.1-.5-3.6-.5-3.2 4.95 1.5 4.75 1.5-.45-2.75q.7-.05 2.8.95l2.3 1.15.05-2.55q2.25.55 5.1 3l1.5-2.9 1.3-1.9 4.6 5.15"/><path fill="#922f00" d="M162 71.55q1.55 1.5 1.6 2.95 0 1.3-1.1 1.9l-.8.2q-3-.25-8.7-4.85-5.15-4.2-10.25-10 .75-2.9-.45-6.4-1.1-3.3-3.25-5.2l4.25-.25q3.6 6.9 18.7 21.65"/><path fill="#cf7100" d="M203.35 128.7l1.25-1.3q.8-.55 1.4-.6l1.25 6.3 1.6-.75 1.6-.95.75 3.5.95 3.7q2-.3 3.2 0l-.95 4.6-1.35 5.05 1.55.45q1.4.45 2.3.85-.45.25-1.8 1.6l-1.55 1.75 2.75 1.85q-2.65 1-3.1 1.6.1.45 1.4 1.7l1.35 1.35-3.3.15 1.15 4.15-5.15-4.5q-2.9-2.45-4.95-2.95-2.75-.6-4.45 2.1-1.4 2.2-5.05 4.7-3.15 2.15-3.25 3-.2 1.1 3.45 3.65 1.45 3.55 5.35 7.2-1.55 2.85-2.5 3.85l-1-1.25-1.3-1.35q-1.85 2.3-2.5 2.25l-.55-1.2-.85-1.2q-4.05 3.25-8.15 4.95l.05-2-.15-2-5.5 2.95-.2-1.45-.65-1.65-2.75 2.25-.6-1.55-.8-1.55q-.5 1.4-3.1 2.7-3.2 1.55-3.65 2l.2-4.85-3.3.7-3.65.35.85-1.2.75-2.05-2.5-.35-2.85-.55.8-1.2.6-1.5q-2.5.25-3.7 0l.95-1.35.8-1.55-2.65-.2-3.4-.45.35-.3 1.7-2.3 1.15-1.85-3-.95.75-.9 1.15-1.75-3.75-1.35 1.1-1.1 1.05-1.6-1.35-1.5q-3.75-3.65-5.2-4.4 4.5-2.9 5.15-3.2l-.9-.95-1.25-1.3.85-.65 1-.85-2.8-2.85q.4-.6 4.2-2.9 3.6-2.15 4-3.35l-.45-.95-.5-1.1q.8-.65 2.4-1.1-1.15-1.95-1.35-2.75l2.1-1.25q0-2-.4-3.45l3.25-.35-1.3-2.85q.7-.2 2.55 0l2.6.4.05-2.9.35-2.8q.2.3 4.05 1.45 4 1.15 5.1 1.1-.15-1.05.1-1.95l.9.25 1.25.2.25-1.15q.05-.85.25-1.4l2.85 1.8q2.15 1.25 3.55 1.75l1.15-1.75 1.5-2 2.85 2.35q2.75 1.9 5 3 0-.95.35-2.15l1 1.3 1.65 2 1.5-2.6 1.3 2.3 1.4 2.65q1.9-1.5 2.8-2.9.45.55 1.45 4.05t1.15 5.1"/><path fill="#fff3c2" d="M199.75 176.9q-3.9-3.65-5.35-7.2 3.75 2.65 10.7 6.25 5.9 3.1 10.25 4.95l7.85 3.25q5.2 2.2 9 4.2l-11.2-1.7q-8.75-1.7-14.8-5.05-3.25-1.8-6.45-4.7"/><path fill="#152139" d="M96.25 152.15l2.9.2q4.5 3.05 10.05 4.8 8.4 2.65 18.35 2.05 9.85-.6 20.05-4.35l1.35 1.5-1.05 1.6-1.1 1.1 3.75 1.35-1.15 1.75-.75.9 3 .95-1.15 1.85-1.7 2.3q-17.75 6.6-40.2 0-6.2-1.8-12.3-4.45l-1.6-1.35-2.1-1.95 5.55.45-2.45-2.3-2.65-2.85 1.4-.2 1.6-.4-1.15-1.65-.9-1.65 2.25.35"/><path fill="#cf7100" d="M71.95 109.5l1.65-1.15 1.2-1.35 1.15 1.4 1.1 1.6q2.55-2.25 3.15-3.5 1.8 1.8 4.45 6.35 2.65-1.15 3.65-2l.95 5.4q2.7-.15 4.75-1.1l-1.55 2.1-.8 1.05q3.5-1.2 4.45-2.25l-1.15 3.65-1 3 1.65-.3 1.4-.65.2 1.75-.05 1.65q1.35-1.55 3.3-3.15 1.85-1.5 1.75-1.2-1.55 4.5-1.1 7.2l2.9.65 2.5.15q-2.1 2.3-2.35 4.2.65 1.05 3.5 3.15l-2.3 2.25 1.4 1.15 1 .25-1.2.8q-1.05.65-1.3 1 1.4.45 4.2 2.65l3.15 2.35q-.25.3-2.45.7-2.4.45-3.1.85l2.05 2.75 1.75 1.95-2.25.2-1.5-.05q.65 2.2 2.1 4.15-5.55-1.75-10.05-4.8l-2.9-.2-2.25-.35.9 1.65 1.15 1.65-1.6.4-1.4.2 2.65 2.85 2.45 2.3-5.55-.45q.85 2.15 5.9 4.35 3.5 1.5 10.1 3.4-.9.6-2 2 .35.95 1.4 2.65l1.25 1.9-2.4.3q-1.6.4-2.3.9-.05.45.45 1.85l.75 1.8-1.95.45-1.65.15q.4 1.45 1.75 3.15-1.35.3-3.9-.05-.05.8.55 4.2l.55 4.1-2.05-1.45-2.4-1.55-1.1 3.15q-.8 2.65-1.05 4.1-.5-.25-1.5-1.7l-1-1.7q-1.05 2.55-1.95 5.9-.65-.65-1.1-1.7l-.4-1.3q-3.25 7.5-5.8 10.5-.6-2.25-1.85-3.8l-2.3 3.75-1.7-2.15-.25-.4-.7 1.6-1.7-.8-1.15-.75q-.7 3.85-2.2 5.7l-5-4.1q-1 3.9-1.7 4.7l-3.1-3.5q-.15.55-.2 3.9-1.65-1.15-3.1-3.2-1.9 1.95-4.75 6-.15-3.35-1.6-5.8l-1.3 2.2-1.2 1.45-.9-4.9q-5.45 2.6-6.1 2.8l-.45-3.8-5.7 2.4v-3.7l-3.9 1-4.35 1.4 1.8-5.35-3.4.35-2.85-.15 1.35-3-2.05.1-1.6.2.25-2.15.3-1.7-6.4.45 1-3.45.8-2.35-3.6-.65q.6-1 1.5-1.9l-1.45-.6-1.05-.3.65-1.55-3-.15H7.85L9.6 181l.9-1.9q-.6-.7-2.25-1.35-1.35-.6-1.95-.65 2.2-2.8 2.7-3.25-.45-.35-2.35-.35l1.5-2.45-1.2-.3-1.55-.3Q7 169 8.05 167.1l-3.65-2q-2.35-1.25-2.75-1.35.7-.7 3.25-2.55l2.75-2.25-1.55-.6-1.4-.45 1.55-1.05 1.25-.8-2.95-2.8 1.65-.75 1.55-.6q-.2-.35-1.4-1.25l-1.4-1 3.9-1.45-2.6-4.95-1.8-3.75q.2-.35 2.95-1.4l3.05-1.15-1-.9-1-.95q.25-.25 1.8-.55l1.7-.35-2.4-2.15 2.8-1.15 2.6-.9-1.6-2.55-1.35-2.6q.75-.4 3.4-.65l3.35-.3q-.95-1.5-.95-1.8l3 .1-.4-1.6-.75-1.5 1.4-.05 1.5.2.45-3.5q.4-2.55.85-3.75 1.7.1 5.45 1.2 3.5 1 3.8 1.3l-.5-2.95-.25-2.15 1.8 1 1.5 1.1-.15-2.2-.3-1.75q.55-.05 2.95.85 2.4.9 3 1.4.7-.9 1.1-2.4l.5-1.7q1.55.1 4.3 1.1L50 108l.6-3.55q.65.05 3.9 2.3l3.45 2.4.25-3.8 1.9 1.25 1 1.05q.35-.75.35-2.7.45-.2 2.7 1.65l2.3 2.2 1.4-2 .95-2.15 3.15 4.85"/><path fill="#fff3c2" d="M155.2 235.75q2.3 2.5 3.45 6.85 1.1 4.1.3 3.65l-3.3-2.8-4-3.5.9-.5q2.5-2.15 2.65-3.7"/><path fill="#be9c59" d="M124.9 218.35q3.2.85 4 2.85.3.75 7.05 2.8 6.5 1.95 9.45 2.35l3.05 2.3q2.7 2.35 5.25 2.95.95.25 1.35 1.6.3 1.1.2 2.5l-.05.05q-.15 1.55-2.65 3.7l-.9.5-2.4-.1q-1.05-.45-1.85-1.45-1.2-1.5-3.8-1.9 1.05.95 3.25 5.75 2.2 4.7 3.25 5.6.45.4.5 2.05 0 1.75-.75 2.55-.15-1.1-.45-1.4-1.4-1.5-3.65-.65-2.2.85-2.5 2.65-.05.5.2 1.6-1.1-.35-2.15-1.2-1.15-1-1.15-1.85-.1-1.95-1.2-4.55l-1.5-3.15q-.55-1.15-6.55-6.2-6.15-5.2-7.05-4.8-.35.15-.8 1.9 1.15 3.75 3 8.65 1.85 4.75 2.5 5.7.55.8.15 4.6t-1.1 4.4l-.95.65q-1.3.7-2.8 1l-2.45-.1-1.15-.85-1.4-1.8q-.6-1.05-.4-1.7 1.15-3.45.7-8.15-.5-5.15-2.8-8.95-1.4-2.4-2.05-2.8-1.35-.9-3.1 1.4l-3.95 5.8q-2.85 4.15-3.65 4.65-.65.4-1.25 2.9-.55 2.45-1.55 3.05l-.05.05q-1.3.75-3.1.6-1.9-.1-3.15-1.1-1.05-.8-1.4-1.95-.45-1.8.05-4.95.5-3.4 1.7-4 2.05-1.1 5.5-4.2 4-3.6 5.5-6.45l.15-.35q-1.8-1.25-5.6-1.3l-8.5.25q-6.85.1-14.85 1.65-7.65 1.45-9.85 2.9-2.9 1.95-5.8-1.25-2.8-3.1-1.8-5.4.7-1.65 1.4-8.4.85-7.75 0-11-.1-1.6.1-2.3l3.1 3.5q.7-.8 1.7-4.7l5 4.1q1.5-1.85 2.2-5.7l1.15.75 1.7.8.7-1.6.25.4-5.25 17.25q-.3 1.15 8.15 1.05l17.35-.6 11.7-.9q9.35-.85 10.35-1.45 2.45-1.45 5.7-.6"/><path fill="#fff3c2" d="M187.3 42.35q5.05 2.15 6.85 5.5.7 1.4.05 1.9l-2.85-.15q-5.1-1.8-21.1-1.65l-18.3.95-8.65 1-7.9.15q-7.1.1-8.4-.15-2.3-.4-2.45-1.1-.15-1.15 2.3-3.7 3.2-3.4 4.85-7.05 1.25-2.7 6.15-2.1L144 37.4q11.6 2.55 27.55 3.4 13.7.7 15.75 1.55m7.1 127.35q-3.65-2.55-3.45-3.65.1-.85 3.25-3 3.65-2.5 5.05-4.7 1.7-2.7 4.45-2.1 2.05.5 4.95 2.95l5.15 4.5q10.3 9 15.1 12.15 5.65 3.7 11.5 8.2l7.35 6.1q3.4 3.35 2.85 7.95-.2 1.75-1 2.45-.85.75-1.8-.3-5.95-6.7-15.6-11.9-3.8-2-9-4.2l-7.85-3.25q-4.35-1.85-10.25-4.95-6.95-3.6-10.7-6.25m-44.55 82.75q.3 1.95.25 5.95l-.25 4.75q-.3 1.95-1 1.8-.6-.1-1.45-1.8-3.15-5.65-3.95-8.5-.25-1.1-.2-1.6.3-1.8 2.5-2.65 2.25-.85 3.65.65.3.3.45 1.4M103.3 307.8q2.1 1.9 1.35 2.3l-3.2.2-7.35-.55q-2.6-.55-2.3-3.55.35-3.05 3.3-3.55.6-.15 1.45.25 2.4.9 6.75 4.9m-38 10.95q.1 3.35-.55 7-.65 4-1.5 3.55-.5-.3-2.35-3.45-1.9-3.2-2.9-5.6l-.65-2.15q-.2-3.4 3.05-4.25 3.25-.85 4.6 2.6.3.7.3 2.3M28.8 300.2q1.4-.15 2.85 2 1.55 2.35.45 4.7-.25.55-4.3.9l-5.9.3q-2.05-.05 2.2-4 4.2-3.9 4.7-3.9"/><path fill="#dbd2a9" d="M93.4 291.5q-1.85 1 2.95 3.9l-6.85.2q.35-.1.8-2.2.45-2.1.35-3.05l1.45.45 1.3.7m1.1-38.7q1.25 1 3.15 1.1 1.8.15 3.1-.6l-.5 4.7q-2.1-.9-4.55-1.05-.95-2.25-1.2-4.15m26.05 8.9l-.3-2.85 1.15.85 2.45.1q1.5-.3 2.8-1-.35 1.8-1.25 3.9l-4.85-1"/><path fill="#a5874c" d="M41.5 204.7l.45 3.8q.65-.2 6.1-2.8l.7 4.1q-4.05 3.8-7.85 11.7-4.55-5.55-9.7-4.7 3.55-9.6 2.45-13.05l2.15-.35v3.7l5.7-2.4"/><path fill="#ce7486" d="M139.05 50.15q2.65 2.35 3.65 6.6-2.85-1.65-5.7-2.45-1.55-2.4-2-4l4.05-.15"/><path fill="#dbd2a9" d="M135 50.3q.65 2.6 4.4 7.45-3.5-1.45-7.15-1.5-4.1-4.55-5.25-6.35l8 .4"/><path fill="#6a1a00" d="M162 71.55q1.6 1.5 1.65 3.25.05 1.7-1.15 1.6-.85-2.15-7.5-9.05-7.3-7.55-12.3-10.6-1-4.25-3.65-6.6l4.25-.25q3.6 6.9 18.7 21.65"/><path fill="#dbd2a9" d="M199.75 176.9q-3.9-3.65-5.35-7.2 3.75 2.65 10.7 6.25 5.9 3.1 10.25 4.95l4.5 1.9q-10.65-.55-17.25-3.55l-2.85-2.35m-44.55 58.85q1 1.1 1.85 2.75-1 2.25-1.3 5.05l-4.1-3.6.9-.5q2.5-2.15 2.65-3.7"/><path fill="#a5874c" d="M70.9 208.95q1.5-1.85 2.2-5.7l1.15.75 1.7.8.7-1.6.25.4-2.65 8.8q-6.5-.2-13 3.95.35-5.5-.25-8-.1-1.6.1-2.3l3.1 3.5q.7-.8 1.7-4.7l5 4.1m26.5 40.45q3 .25 5.5-1.45-1.05 4.7-2.1 5.3l-2.5.3q-2.75.1-3.8-.75-1.05-.8-1.4-1.95-.35-1.35-.1-3.6 1.5 1.85 4.4 2.15m24 10.3l-1.15-.85-1.4-1.8q-.6-1.05-.4-1.7l.65-2.8q2.35 1.65 5.9.5 3.2-1.05 3.8-2.8.15 1.65-.3 4.8-.5 3.05-.8 3.2l-3.35 1.25-2.95.2m28.7-11.85q.45.4.5 2.05 0 1.75-.75 2.55-.15-1.1-.45-1.4-1.4-1.5-3.65-.65-2.2.85-2.5 2.65-.05.5.2 1.6-1.1-.35-2.15-1.2-1.15-1-1.15-1.85l-.6-1.6-.6-1.6q2 1 4.8-.65 2.7-1.55 3.75-4.05 1.65 3.35 2.6 4.15m-7.7-12.25q4.15 1.35 7.75.45 3.7-.85 4.9-3.55l.2 3.2-.05.05q-.15 1.55-2.65 3.7l-.9.5-2.4-.1q-1.05-.45-1.85-1.45l-5-2.8"/><path fill="#dbd2a9" d="M150 254.05q-3.6-.15-5.75 2.8l-.8-2.2q-.25-1.1-.2-1.6.3-1.8 2.5-2.65 2.25-.85 3.65.65.3.3.45 1.4l.15 1.6m-46.3 54.1q1.7 1.6.85 2l-3.1.15-7.35-.55q-1.55-.3-2.1-1.85-.5-1.45.15-3 2.4 1.8 5.45 2.7 3.3 1 6.1.55m-38.7 8.3q.3.7.3 2.3v.05q-2 .3-3.5 1.4-1.6 1.2-2.35 3L58 320.25l-.65-2.15q-.2-3.4 3.05-4.25 3.25-.85 4.6 2.6m-33.7-14.7q.85 1.05 1.15 2.3.3 1.5-.35 2.85-.25.55-4.3.9l-5.9.3q-1-.05-.45-1.1 3.45-.2 5.45-1.15 2.7-1.2 4.4-4.1"/><path fill="#a5874c" d="M52.5 301.95q-4.65-.85-10.15 1-4.95 1.7-6.25 3.85-.5.75-1.5.85l-2.4-.1q0-.5.25-1.05l.7-1.9q.8 0 1.75-.65 1.15-.7 2-2 .8-1.2 6.55-2.45l6.25-1q.55 0 2 1.8 1.45 1.75.8 1.65m21.25-.7q-6.25-1.15-11.4-.85-.2-.4-.05-1.65l.05-2.6 9.95 1.4q9.75 1.75 12.5 3.6l3.8 3.4q1.75 1.7 2.9 1.45-.35 1.55 2.8 4.7-1.45.8-4.3-.4-3.5-1.4-5.05-4.9-3.7-2.8-11.2-4.15"/><path fill="#a95b00" d="M8.15 171.05l-1.2-.3-1.55-.3Q7 169 8.05 167.1l-1.75-.95.2-.05 2.7-.55 2.55-.2q.5.25.65 1.45l.3 1.65 1.5-.75q.9-.45 1.35-1-.1 3.3-.8 6.1l.9-.95 1-.8-.25 1.8q-.2 1.15.35 1.3.5.15 1.5-1.05 1.1-1.25 1.45-1.25.55.05.9 1.45l.5 1.9 2.1-.8.9 2.4q1.1 2.6 1.9 3.65l2-1.5q1.5-1.05 2.2-.8.75.25.7 2.05l.05 2.6q2.75-2.1 4.5-2.8-.15 2.5.5 5.05 2.95-1.3 5.05-2.7l.35 2.55.9-.95q.6-.6 1.15-.8 0 2 .15 2.95.25 1.6 1.1 2.6l2.35-2q.15 1.85 1.05 3.65 1 2.05 2.5 2.65l2.3-3.95q.85.4 1.7 2.3.8 1.75.8 2.8L57.2 192l1.7-2.75 2.1 1.65 1.95 1.8q.25-1.95.75-3.5.55.05 1.1.65l.9.95 1.9-3.65 2.4 1.95q1.5 1.25 2.55 1.5 1.35.3 2-1.3l.9-2.95 2.35 2.25 2.45 2.15.15-2.2q0-1.4.4-2.2l.75 1.1.4-.6q.95 0 2.65 1.25.2-4.05.55-6.05l1.05 1.1 1.1 1.15.55-1.65q.4-1.05.9-1.35l1.2-.05 1.2.8q1.15-2.35 1.95-3.35l1.6 2.3q1.2 1.5 2.15 1.55l.35-2.65.15-2.95 1.6.75q.45-1.9.85-2.85.1.25 2.7 1.7l2.8 1.9.45 1.1-1.95.45-1.65.15q.4 1.45 1.75 3.15-1.35.3-3.9-.05-.05.8.55 4.2l.55 4.1-2.05-1.45-2.4-1.55-1.1 3.15q-.8 2.65-1.05 4.1-.5-.25-1.5-1.7l-1-1.7q-1.05 2.55-1.95 5.9-.65-.65-1.1-1.7l-.4-1.3q-3.25 7.5-5.8 10.5-.6-2.25-1.85-3.8l-2.3 3.75-1.7-2.15-.25-.4-.7 1.6-1.7-.8-1.15-.75q-.7 3.85-2.2 5.7l-5-4.1q-1 3.9-1.7 4.7l-3.1-3.5q-.15.55-.2 3.9-1.65-1.15-3.1-3.2-1.9 1.95-4.75 6-.15-3.35-1.6-5.8l-1.3 2.2-1.2 1.45-.9-4.9q-5.45 2.6-6.1 2.8l-.45-3.8-5.7 2.4v-3.7l-3.9 1-4.35 1.4 1.8-5.35-3.4.35-2.85-.15 1.35-3-2.05.1-1.6.2.25-2.15.3-1.7-6.4.45 1-3.45.8-2.35-3.6-.65q.6-1 1.5-1.9l-1.45-.6-1.05-.3.65-1.55-3-.15H7.85L9.6 181l.9-1.9q-.6-.7-2.25-1.35-1.35-.6-1.95-.65 2.2-2.8 2.7-3.25-.45-.35-2.35-.35l1.5-2.45M81.8 47l.9.95.65 1.15.35-.75.15-.75.75 2 .8 1.95q.1-.35.7-.85l.9-.85 1.8-2.45q.6 1.25.95 3.5l.6 3.55q.35-1.35 1.2-2.25.5.95.85 3.1.35 2.1.8 2.95l.65-.95.65-1 1.95 4.1 1.1-2.35 1.15-2.25 3.2 3.4q1.95 1.85 3.75 2.75l.55-1.95.7-2 2.55 3.15q1.6 1.65 3.25 2.35l.8-3.2q.55-1.9 1.3-3.05l1.55 1.3 1.75 1.1q-.05-1.2.25-2.65l1.55 1.75 1.8 1.7.05-.95.1-.9q1.25.5 3.6 1.85l.1-3.2q0-2.05.45-3.25l1.3 2.05q.85 1.2 1.7 1.5l1.05-3.65 4.5 4.95-1 3.15q-1 2.35-2.2 3.6l-.9-1.8-1.2-1.7q-1.3 2.75-2.6 4.3l-2.05-2.5-2.65 2.95-3.4 3-.85-2.65-7.15 6.1q-1.05-4.45-1.75-5.55l-2.3.9-2.15.7.35-1.8-4.45 1.35.1-1-.1-1q-.3.4-1.85 1.05-1.9.85-3.75 1.15.6-2.15.3-4.3l-1.5.85q-1.35.6-2.3.65l.05-1.4-.15-1.55-2.45.15-3.1.5q.9-1.95 1.75-5.8l-2.45-.1-2.9-.7 1.2-1.4 1.05-1.35q-2.35-.35-3.5-1.8 1.9-1.4 1.95-2.1l-1.05-1.1q-1.05-.8-1.4-.45L81.8 47m103.75 125.2q.55-.7 1.05-.95.75 1.9 1.6 2.55l1.1-.95 1.55 1.8q1.2 1.45 1.75 1.2.5-.2.75-1.55l.05-.1q.25.25 1 .5l.25-.7 1.15.35.5-1.35q1.5 2.05 3.45 3.9-1.55 2.85-2.5 3.85l-1-1.25-1.3-1.35q-1.85 2.3-2.5 2.25l-.55-1.2-.85-1.2q-4.05 3.25-8.15 4.95l.05-2-.15-2-5.5 2.95-.2-1.45-.65-1.65-2.75 2.25-.6-1.55-.8-1.55q-.5 1.4-3.1 2.7-3.2 1.55-3.65 2l.2-4.85-3.3.7-3.65.35.85-1.2.75-2.05-2.5-.35-2.85-.55.8-1.2.6-1.5q-2.5.25-3.7 0l.95-1.35.8-1.55-2.65-.2-3.4-.45.35-.3 1.7-2.3 1.15-1.85-3-.95.75-.9 1.15-1.75-3.75-1.35 1.1-1.1 1.05-1.6q-.1-.2 1.1.35 1.15.55 1.3 1 .25 1.9.8 1.95.4.05.85-.95l.5-1.3q.75.7 1.2 3 .4-.35.5-1.1l.4 3.35q.4 2.15 1.1 3.05l1.25-1.8q-.25.45.15 2.2.4 1.55.75 2.15.45-.45 1.5-.75l1.65-.5.45 1.95q.2 1.3.7 1.9l1.3-1 .7.9.5.95 1.15-1.3.8-1.3 1.1 1.6 1.25 1.5.8-1.05.6-1.2 1.1 2.05 1.25-1.9.45 1.25.5 1.3.9-1.6 1 1.25.95 1.2.9-2.1 1.3 1.85q.8 1.1 1.7 1.3l1.75-2.65 1.55 1.5.85-1.2"/><path fill="#a5874c" d="M85.7 295.15l-6.65-.25q-5.7-.9-7.85-3.5 9.9 1.85 12.95.95 1.65-.5 4.2 0l2.2.6-1.25 2.2q-1.85-.3-3.6 0"/><path fill="#0d131a" d="M142.55 21.6l.25.95-.2 2.1-.35 1.8 1.9-.3 2-.4q1.1-.1.8.95l-2.6 6.4 2.1.55q.55.15.65.4l-.2.75-1.75 2.65-1.05-.2-.75-.55 1.4-1.8-1.5-.75q-.4-.25-.35-.7l.2-.85 1.2-4.8-3-.2q-.8-.2-.55-1.05l.4-2.75-1.75.3q-.7-.1-.7-.8l.55-8.6-1.75.75-1.9.5q-.55.1-.75-.35l-3.05-5.1-1.6 1.55q-.6.5-1.2-.25l-1.2-1.5-.25.6-1.45-.05q-.2-.45-2.55-3.15l-4.2-4.75q-1.1 1.6-2.15 3.85l-.45.6q-.3.1-.75-.3-2.15-1.8-3.8-2.45l-.1 1.6q-.2.95-1 .55l-3.8-1.75.2 1.65-.15.75-.95-.05-8.45-2.55.85 5.65q0 .8-.8.8l-9.65-.35.55 4.1q0 1.05-1 .8l-2.55-.6q.9 1.3 1.15 2.55.15.9-.75.95l-2.45.15 1.05 1.85q.45.7-.35 1.1l-6.3 3.45 4.35 6.2q.3.65-.3 1l-3.1 1.65 1.4 1.2q.6.35.6.75l-.55.75Q78 37.9 77.4 38.3q1.55 1.55 2.95 3.45 1.5 2 1.3 2.45Q81.3 45.25 79 48l4.15 1.95.55.45-.25.7-1.65 1.8 2.45.95q1.25.3.4 1.4l-1.4 1.8 3.9.35.85.15.05.8-1.3 4.6 4.35-.4.55.2.2.45.15 2.1q1.7-.5 2.4-1.05 1.1-1.1 1.35.45l-.35 3.85 2.75-1.2 1.5-1q.65-.6.95-.5.35.1.4 1l.1 1 3.35-1.05.9-.1.15.8-.1.75 3.05-1.25q.7-.25 1 .3.6.9 1.55 4.55l6.2-5.3q.7-.6 1.2.25l.55 1.75q2.85-2.4 5.05-5.15l1.15-.05 1.5 1.75 1.9-3.35 1.4-.05 1.55 2.4 1.65-3.2.65-2.25q0-.35.6.15.65.45.6.9-.2 1.7-1.1 3.65-.85 1.9-2 3.05-.5.55-.8.3l-.5-.9-1.3-2.7-.8 2.6q-.6 2-1.1 2.6l-1.25-.05q-1.05-2.9-1.55-3.45l-2.85 3.45-3.15 3.2q-1.6 1.2-1.45-.4.4-2.2.2-2.75l-6.3 5.6q-.9.85-1.25-.4l-1.25-5.1-2.1 1-2 .7-.75-.05q-.3-.2-.15-.55l.5-1.2q-.5.15-1.95 1.15l-1.8.95h-.9q-.2-.1-.1-.6l.5-2.05-2.45 1.35q-1.8.95-2.95 1.15-.9.15-1.05-.25l.15-.75.55-1.75.4-1.9-1.7 1.2q-1.25.9-1.8.95l-.7-.15q-.15-.2-.15-.65l.25-3.05-2.3.5-2.35.65q-1.45.3-.9-1.1l1.65-5.2H83.1q-2.4-.1-3.1-.55-.95-.65 0-1.35l3.2-1.95-1.95-.6-1.5-.95q-.45-.65.2-1.1l1.05-.6 1.05-.7q-4.85-1.75-5.3-2.2-.45-.5-.1-1L80.3 44l-2.4-2.35-3.45-3.05q-.8-.7.1-1.25l1.8-.5 2.4-.85-1.5-1.15-.95-1q-.05-.35.8-.7l3.1-1.6-4.85-5.9q-.55-.65.25-1.15l7.25-3.4q-1.4-1.7-1.7-2.55l-.05-.65.55-.35q.55-.2 3.25-.05l-1.85-2.7q-1-1.25.6-1.25 1.45 0 3.9 1.05l-.65-2.55-.6-2V9.3q.15-.45.8-.5l4.6.6 5.65.6-.85-3.5-.8-2.95q-.2-1.2.4-1.3l1.15.2 8.55 3.35-.3-1.6-.15-.85q.1-.3.7-.25.6.05 2 .85l2.55 1.4-.35-3.2q0-1.2 1-.75 1.15.5 2.7 1.85l2.25 2 1.4-2.9 1.1-2q.3-.3.55-.35.3 0 .6.35l3.3 4.3 3.45 4.75.15-1.65q.05-.95.45-.95l.85.75 1.75 3 1.45-2.1q.65-.75.95-.7l.55.65 3.1 6.2q1.4-.6 4.45-3.05 1.4-.95 1.3.45l-.8 5.55-.75 5.1 1.6-.8.9-.25"/><path fill="#0d131a" d="M191.6 48.85l2.1.3v-.1l-.1-.45q-.45-1.2-2.1-2.7-1.9-1.75-4.5-2.85-1.4-.55-4.7-.85l-7.4-.45-14.25-.95q-9.3-.95-17.4-2.8l-1.45-.3-5.75-1q-2.8-.05-3.65 1.7-1.7 3.85-5.25 7.5-1.8 1.95-1.8 2.65v.05q1.05 1.1 11.35.8 9.9-.25 15.1-1.3l18.5-1q16.05-.1 21.3 1.75m-17.7-8.55l8.25.15q4.1.05 5.45.6 2.05.9 4.1 2.65 1.8 1.55 2.95 3.2 1.7 2.5.9 3.5-.85 1.1-4.5-.05-6.25-1.95-21.8-1.65l-17.4 1.15-11.9 1.65q-7.55.65-11.95-.05-4.4-.7-4.9-2.4-.45-1.65 2.75-4.35 1.9-1.55 2.8-2.95l2.05-4q1.45-3.2 6.05-2.8l6.85 1.5q6.45 1.55 15.65 2.6l14.65 1.25"/><path fill="#0d131a" d="M162.55 70.95q1.75 1.7 2.1 3.5.4 2.05-1.4 2.95-1.8.95-6.75-.95-4.65-1.8-8.2-4.5-15.9-12.1-22.45-21.65-.15-.3.9-.45 1.05-.2 1.15 0 7 9.8 21.85 21.05 3.35 2.6 7.45 4.05 3.75 1.35 4.9.75.8-.4.6-1.5-.15-1.05-1.25-2.1-6.05-5.85-10.75-11.1-6.5-7.25-8.35-11.25-.15-.25.75-.25l.95.15q3.55 6.75 18.5 21.3"/><path fill="#0d131a" d="M133.9 50.6q-.05-.2.95-.3l1.05.1q1.65 5.25 11.65 15.4 10.25 10.4 14.5 10.3-2.15.95-3.5.3-6.2-3.1-14.8-12.1-8.55-8.95-9.85-13.7"/><path fill="#0d131a" d="M138 50.3q-.3-.2.65-.35l1.2.1q2.25 2.15 3.2 5.45 1 3.65 0 7.4-.05.3-.5-.75t-.4-1.4q.4-2.85-.9-6Q140 51.7 138 50.3m-20.2 19q0-.3.8-.3.75 0 .8.35.5 16.45-3.7 28.95-4 11.95-13.65 24.3-.2.25-.4-1.1t0-1.6q15.7-20.15 16.15-50.6m-12.8-.2q-.05-.2.7-.4l.85.05q2.25 10.05-1.8 24.7-4 14.45-11.45 23.8-.05-.85-.7-1.35-.45-.35-.2-.7 6.6-7.75 10.6-23.05 3.85-14.8 2-23.05"/><path fill="#0d131a" d="M102.1 119.15l1.2-.05q.25.5-.05 1-1.35 2.4-1.35 6.25l.05.8 4.95.6q1.55.15.45 1.65-1.85 2.65-2.1 3.45 1.25 1.5 2.4 2.2l.9.65q.25.4-.3.95l-1.45 1.65 2.05 1.1q.6.35-.25.9l-1.85 1.1q1.45.8 7 4.55 1 .8.35 1.25l-5.8 1.35 3.4 3.8.65 1-.75.5-3.1.15 1.55 2.7-1 .1q-1.15-.15-1.5-.75-.95-1.85-1.2-2.85-.25-1.05.75-1l2.15.05-2.9-3.65q-.45-.8.3-1.15.5-.3 2.3-.7l1.9-.4q-4.15-3.1-5.85-4l-.7-.5q-.1-.25.35-.8L106 140l-1.3-1.1-.25-.4.15-.45 1.8-1.85q-2.15-1.5-2.95-2.8.5-2.6 1.4-3.85-2.5-.2-4-.8-.2-.05-.45-.9l-.2-1.25q0-1.9.7-4.25l-3.2 3.3q-.55.65-.95.55-.4-.1-.4-1.05v-2.2l-2.4.55q-.9 0-.95-.35l.2-.8 1.5-4.45q-1.35.65-3 .9l-1.8-.15q-.45-.35.3-.6l1.7-1.4q-3.35.8-5.8.1-1.65-.5-1.85-1.25-.25-.75 1.4-.25l4.15.2q2.35-.3 3.85-1.05l1.3-.15q.3.35-.25 1.3l-.55.85 1.4-.9q1.05-.8 1.35-.5.3.25 0 1.3l-1.75 5.4 1.3-.55q.6-.45.85-.4l.4.75.25 1.6q3-3.2 4.15-3.95"/><path fill="#0d131a" d="M98.1 152.6q-.35-.25.3-.85.7-.65 1.15-.35 9.1 6.1 22.5 6.7 12.5.55 24.85-3.8.3-.15.75.55.45.7.2.8-14.2 5.1-27.3 4.3-13.1-.8-22.45-7.35m-4.15 11.3q-.3-.1.7-.6t1.35-.35q30 13.15 52.95 4.3.4-.15.55.65.2.75-.25.95-12.6 4.75-25.85 3.6-13.25-1.2-29.45-8.55"/><path fill="#0d131a" d="M94.4 147.45q-1.1-1.9-.8-2.35.3-.45 1.4.95l5.25 5.75q.85.95.25 1.2l-1.5.15-3.55-.3 1.35 1.7q.85 1.05-.2 1.35l-2.05.4 3.35 3.2 1.5 1.6q.35.7-1.3.55l-3-.25 2.65 1.7q1 .65.6 1.05-.35.35-1.1.3l-6.1.25q-1.7.25-1.75-.25-.05-.55 1.85-1l3.9-.35q-2.35-1.45-3.3-2.65-.65-1 .8-.85l3.65.5q-3.3-3-4.05-4.1-.5-.8.45-.95l2.55-.35q-1.95-2.35-2-2.75-.25-1.1.9-.95l3.45.5q-1.5-1.35-3.2-4.05m12.95 20.7q.3-.25 1.5.3t.9.7l-.95.55-1.15.85q.55 1.15 2.45 3.65.45.65.25.95-.2.25-.9.35-3.35.15-4.3.65l1.35 3.05q.45.85-.3 1.05l-3.3.45 1.95 2.35q1 1.35-.3 1.4l-3.75-.1 1.15 7.4q0 .8-.3 1-.3.15-1.1-.4l-3.65-2.95q-.6 1.7-1.65 6.55l-.35.9q-.3.2-.8-.35l-2-2.8-1.3 4.85q-.55 1.9-1.3.5l-1.1-2-2.3 5q-1.5 3.1-2.65 4.45-.95 1.15-1.35-.3l-1.2-3.3q-.5.8-1.65 3.35l-1.15.05-1.3-1.5-.15.35q-.3.65-1 .4l-2.1-1.4q-1.05 4.1-2.05 5.3l-.55.3-.6-.2-3.9-3.45-.75 2.9-.65 1.8q-.3.5-1.05-.15l-2.45-3.3.1 2.8-.45.75q-.25.1-.75-.3l-1.6-1.6-1.15-1.55-1.45 2.3-2.05 3.5q-2.2 3.35-2.5-.45v-2.4q0-1.5-.3-2.25l-1.2 2.25-.95 1.7q-.4.4-.7.2-.25-.15-.35-.7l-1.05-5.45q-.35-2.9.35-3.35.75-.5 1.25 2.3l.65 3.65 1.35-2.15q.35-.7.65-.75l.75.7q.95 1.65 1.45 4.2l3.6-4.55q.35-.4.6-.4l.65.45 1.75 2.05q0-2 .15-2.5.25-.8.55-.85l.85.6 2.3 2.65 1.1-3.55.4-.8q.25-.1.85.4l4.3 3.5q.95-1.55 1.65-4.6.15-.65.45-.7l.9.3 1.85 1 .35-.85q.6-1.4 1.4-.1l1.2 1.6 1.75-2.9q.6-.9 1.25 0 .85.95 1.5 2.65 2.15-3.15 4.8-9.2.5-1.1.9-.95l.65 1.25.4 1.15 1.5-4.3q.35-.9.7-.85.3.05.8 1l1.3 1.95q1.15-4.6 1.9-6 .45-.75 1.2-.25l3 1.9q-.95-5.7-.95-6.45 0-1.05.9-.95l2.35.2q-.8-1.35-1.05-2.3-.3-.85.45-.95l2.85-.3-.7-2.1q-.4-1.4-.15-1.65 1.45-.95 4-1.35-1.45-2.15-2-3.55-.15-.45.1-.8l1.4-1.5"/><path fill="#0d131a" d="M79.5 105.05q.7-1.2 1.45-.45 1.5 1.5 4.2 7.1 1.2-.55 2.65-2 1-.75 1.35.4l1 5.6-1.75.3-.65-3.85-2.8 1.45q-.6.25-.9-.25l-3.75-5.55-2.75 2.8q-.65.55-1.15-.15l-1.6-2.2q-1.25 1.45-2.55 2-.65.3-1-.35L69 106.3q-1 2.1-2 3.1-.5.55-1.25-.2l-3.55-3.1-.35 1.9-.45.75q-.25 0-.95-.65l-1.55-1.4-.15 2.55q-.05 1.3-1.15.65l-6.35-4.3-.5 2.6q-.3 1.05-1.15.5l-2.5-1.05q-2.3-.85-3.8-1.05l-.45 1.45-1.05 2.25q-.45.6-1.15.15l-1.9-.9-2.6-1 .25 2.3q0 1.2-.3 1.4-.25.15-1.1-.35l-1.75-1.1q.35 2.65.6 3.45.3 1.05.05 1.2-.25.1-1.55-.4l-3.3-1.05-4.65-1.15q-.45 1.45-1.05 6.5-.15.9-1 .65l-1.45-.15.7 2.3q.1.95-.8.85l-1.75-.15.4.65q.4.65.25.9-.15.25-.9.3l-5.65.65 2.35 4.1q.75 1-.35 1.3l-4.2 1.5 1.5 1.3.45.7-.55.65-2.4.5.9.9.6.7q.1.4-.75.7l-5.6 2 4.45 8.05q.25.55.1.85l-.55.35-2.45.95 1.75 1.55q.5.8-.3 1.15l-2.2.85 2.05 1.95q.9.75.15 1.2l-1.7 1.05q1.1.25 1.65.65l.5.45-.3.7-5.1 4.1 5.3 2.85.5.5-.2.6L7 169.95l1.6.4q.65.45.2 1.1l-.75 1.3q1.4.2 1.75.6.3.35-.25 1.05l-1.9 2.25q2.35.8 3.6 2.05.3.3-.4 1.7l-1.4 2.4 3.4.15q.75.1.75.8l-.7 1.45 2.15.3q1.1.3.15 1.25l-.7.8 2.4.4q.75.15.75.6l-.25.8-1.45 4.4 5.3-.45q.65-.1.8.2l.05.9-.4 1.45-.4 1.45 3.2-.45.6.15q.2.2.05.7l-.95 2.35 5.2-.4q1.2.05.65 1.2l-1.25 3.6q4.8-1.8 6.95-1.85.65-.05.8.4l.05.75v2.15l4.6-1.95.75-.1.35.65.35 2.85L47.7 205l.35 1.35-6.3 3.95q-1.15.6-1.05-.9l.25-2.1.2-1.9-5.75 3.2q-1.15.5-1.15-.75l.9-3.75q-1.1.15-3.95 1.45l-4.25 1.85-1.05.05q-.4-.2-.05-.8l1.45-2.95 1.3-2.75-3.85 1-3.15.5q-.25-.1.7-1.9l1.3-2.3-2.1.5-2.05.65-.7-.1q-.2-.25.05-.85l1.9-3.9-6.4 1.15q-.6-.05-.7-.3v-.65q.15-.8 1.15-2.8l1.3-2.75-4.35.3q-1.75-.25-.55-1.15l2.65-1.9-2.3-.15q-.8-.05-.3-.95l.95-1.3-2.9.15-1.9.2Q6 184.35 6 184q-.05-.2.4-.7l1.9-2.1 1.6-1.95-2.05-.65-1.75-.4q-1.3-.35-.55-1.35l2.75-2.75-1.55.2q-1.55 0-.7-1.35l1.35-1.65-2.7.05q-1.15-.25-.2-1.4l2.5-2.7q-1.15-.65-3.7-1.65l-2.65-1.05q-1.05-.55-.35-1.3.4-.4 3.3-2.2l3.15-2-3.6-.65q-1.15-.35-.25-1 .35-.3 1.8-.7l1.9-.7-3.65-2.45-.45-.55q-.05-.2.4-.55l1.85-.35 2.25-.35-1.2-.75-1.2-.6q-1.35-.8.1-1.65l3-1q-4-5.75-4.9-7.55-.7-1.35-.7-1.7.05-.55 1.4-.8l3-.45 2.9-.5-1.4-1q-.8-.75-.35-1.2.25-.25 1.25-.35l1.85-.25-2.85-1.3-.5-.75q0-.35.75-.75l2.8-.65 3.15-.7-2.25-2.95-1.7-2.2q-.35-.85.35-1 .8-.15 3.65 0l3.85.05-1.3-1.65q-.55-.85.9-.7l2.75.5-1.3-2.2q-.75-1.15 0-1.35l3.15.4q0-6.05.65-7.65.15-.5.75-.5 1.05.1 3.9 1.25l4.3 1.7-.7-3.05-.25-1.85q0-.85.2-1.05.2-.2.85.25l1.65 1.5 1.6 1.4-.75-3.15q-.15-1.15.65-1 1 .15 2.9 1.05l2.9 1.5.75-2.65.4-2.05q.1-.4.7-.4 1.2.05 3.55 1.5l3.25 1.9.3-3.05q.15-1.8.7-1.75.55.05 3.85 2.9l3.2 2.9-.45-3.7q-.2-1.05.15-1.15.3-.1 1.05.5l2.55 2.5.05-1.8q0-1.9.35-1.95.35-.05 1.9 1.5l3.3 3.3q.75-1.1 1.6-4.15.5-1.4 1.4-.25l1.5 2.65 1.3 2.55 1.05-1.85.7-1.85q.45-.95 1.25-.15.6.6 1.9 4.25l1.6-2.3.75-1.45m124.25 22.25q1.85-1.45 2.5-1.5.45 0 .55.85l.8 5.9 2.5-1.95q.55-.45.8-.35l.4.85.55 3 .8 3.85 2.45-.5 2.35-.1q.3.35-1.25 4.4l-2.35 6 3.4 1.05q1.45.75 0 1.45-2.05 1.25-3.05 2.45l2.6 1.45q1.25.8-.2 1.35l-2.6 1.05 2.65 2.4q.55.55.4.8l-.8.25-3 .15 1.05 2.3.9 2.05q-2.35-1.4-2.55-2.15l-.75-2.55q-.4-.95.6-.8h2.35l-1.6-1.45-1.05-1.2q-.1-.35 3-1.65l-2.1-1.2q-.55-.3-.25-.9.2-.75 2.5-2.8l-2.35-.7q-.95-.3-.7-1.1 1.75-5.65 2.35-8.75l-2.35.15q-.6.1-.85-.45-.55-1.1-1.55-6.25-1.85 1.1-2.55 1.2-.7.1-.9-.65l-1.05-5.45-1.4 1.35q-1.3 1.55-1.45-.35-.1-1.2-.8-3.75l-1.2-3.95-2.15 2q-.7.6-1.1-.2l-2-3.85-.9 1.5-.5.6-.75-.5-.85-1.2-.75-1.2-.25.7q-.2.7-.55.75l-1-.35q-2.3-1.1-6.55-4.9l-1.35 1.9-.85 1.35q-.35.65-1 .4-1.15-.4-3.45-1.7l-2.15-1.3-.3 1.5q-.05.45-.65.55l-1.6-.25.05.95-.15.65-.65.15-3.7-.7-4.8-1.5-.25 4.55-.2.75h-.75l-3.7-.45.75 1.95q.15.5-.3.85l-2.7.5.2 2.65q0 .5-.35.7l-1.55.9 1.1 2.05q.35.65-.5 1.05l-2.2.75.8 1.05.45.9q-.25.75-1.8 2l-3.35 2.25-2.7 1.75 2.35 2.4q.45.4 0 1l-1.6 1.05 1.45 1.3.85 1q.05.35-.9.8-1.7.85-3.9 2.25l3.8 3.15q2.2 2.05 2.25 2.55l-.55 1.1-1.05 1.45 2.6.95q.85.35.35 1.15l-1.15 1.85 1.8.6.6.3v.65q-.25.9-2.45 3.7l4.4.4.9.25q.2.2 0 .8l-1.1 2 2.2-.1.9.05q.2.1 0 .65l-.95 2.2 4.05.65.7.2.05.75-.8 2.25 5.1-.9q1.05-.45 1.1.7l-.1 3.3 1.45-.75q3.15-1.4 3.65-2.7.3-.75.5-.85.35-.2.95.7l1.1 2.25 1.75-1.45q.55-.65.95-.4.4.15.6.9l.55 1.95q3.4-1.65 4.3-2.4.8-.6 1.1-.3l.3 1 .1 2.65 4.5-2.65 2.25-1.65 1.1.05 1.2 2.2 1.35-1.75.65-.6q.4-.1 1.1.6l1.35 1.5 1.25-2.65 1.4.35q-.8 3.2-1.95 4.5-.6.6-1.3-.2l-1.75-2.7-.8 1.1-.8 1.1-.8.8q-.25 0-.75-1l-.9-2.05-2.95 2.6q-2.7 2.25-4.95 3.2-1.1.45-1.1-.75l.55-3.95-4.6 2.9q-1.35.5-1.35-.25l-.15-2.75-2.1 2-.65.45q-.35.05-.55-.55l-.75-2.6q-1.8 2-4.1 3.05l-2.75 1.65-.85.3q-.25-.1-.2-.9l.4-2.25.4-2.15-6.4 1.25q-.8.05-.85-.35l.45-1.15 1.45-2.4-3.4.05-2.7-.05q-.8-.2-.85-.55-.1-.3.45-.8l2.35-2.15-3.05.3q-1.65.05-.35-1.35l1.5-2-4.8-.1q-1.05-.1-1.35-.55-.3-.45.45-1.05l1.3-1.45 1.6-2.1-2.55-.4q-1.05-.3-.1-1.4l1.4-1.85-3.35-.65q-1.3-.35-.2-1.45l2.15-2.3q-.6-.65-3.55-2.55l-3.6-2.35q-1.15-.9.1-1.45.55-.3 2.6-1.05l3.35-1.4-2.65-1.9q-.3-.3-.25-.5l.65-.5 1.5-.9-3.05-1.95q-1.05-.6-1-1l1.2-1q.85-.55 3.85-2.1l2.7-1.5q1.5-.9 1.8-1.5l-.8-1q-.7-1-.6-1.35.15-.4 1.3-.7l1.7-.5-1.35-1.8-.3-.9q0-.2.45-.45l.9-.2 1.2-.45-.35-1.5-.55-1.8q-.25-.85.9-.85l2.65.15-.8-1.25-.85-1.05q-.3-.6-.25-.85.05-.3.7-.4l2.55.35 2.65.65q-.3-5.15-.1-6 .15-.7.5-.85l.95.2 3.45 1.75q3.3 1.55 4.65 1.75l-.1-1.8q-.05-.7.2-.75l.8.25 1.5.85.15-2.45q.1-.7.4-.75l.75.3 2.3 1.65q2.5 1.7 3.45 2.1l.9-2.1.95-2.3q.65-1.25.95-1.25.35-.05 1.5 1.25l2.55 2.9q1.9 2.1 3.3 2.8l.35-1.75q.25-.75.45-.8.35-.1.9.85l1.8 2.95.95-2.35.45-.65.55.1 2.4 5.35 1.3-1.9 1.25-1.95.75-.65q.35-.05.7.6.5.9 1.75 9.35"/><path fill="#0d131a" d="M202.25 156.95q-1.3.2-2.35 1.8-.95 1.55-2.65 3l-2.95 2.2q-2.5 1.65-2.6 2.2.2 1.5 8.75 6.35 7.9 4.55 15.2 7.7l4.25 1.75q9.15 3.7 14.15 6.5 8.65 4.85 14.35 11.25.45.5.75.2l.5-1.05q.45-1.65 0-3.75-.6-2.55-2.45-4.35l-7.25-6.05q-5.75-4.45-11.5-8.2-5.7-3.8-17.55-14.3L207 159q-3.1-2.3-4.75-2.05M196 160.7q1.65-1.3 2.45-2.65 3.7-5.85 10.25-.2l9.25 8.55q5.05 4.55 10.6 8.4l11.95 8.3q6.15 4.3 7.8 5.95 2.1 2.05 2.8 5.45.6 2.9-.05 5.15-1.3 4.6-4.1 1.4-6.2-7.05-13.75-11.4-4.95-2.85-13.85-6.2-8.1-3.1-18.6-8.85-11.6-6.4-11.3-8.35.1-.8 1.3-1.8l2.45-1.75 2.8-2"/><path fill="#0d131a" d="M193.25 169.2q-.05-.3 1.1.35 1.15.65 1.35 1.05 1.55 2.85 4.75 5.8 2.95 2.7 6.15 4.5 5.05 2.75 11.8 4.35l10.45 1.8q1.65.25 3.3 1.05 1.7.8.15.7-17.6-1.15-26.85-6.25-3.75-2.05-7.2-5.7-3.75-3.95-5-7.65M91.9 229.05q3.85-.4 8.65-.05 5.05.4 5.9 1.25-.5 2.45-.8 2.15-1.25-1.3-7.5-1.6h-6q-6.6.1-14.7 1.85-7.6 1.6-9.8 3.05-1.4.95-3.15.9-1.75-.05-3.2-1.25-1.65-1.35-2.75-3.8-1.15-2.65-.5-4.15 1.4-3.3 1.75-9.85.25-5.7-.35-8.2-.1-.25.95-1.1 1.05-.8 1.2-.5 1.35 2.8.4 11.15-.8 7.05-1.65 9.15-.4.85.25 2.45.7 1.65 2.05 2.75 2.15 1.85 4.1.5 2.25-1.55 10-3 8.05-1.6 15.15-1.7"/><path fill="#0d131a" d="M124.75 216.75q4.05.75 5.45 3.95.75.7 6.6 2.45 5.85 1.8 8.7 2.15.8.1 2.65 1.75 1.25 1.1 3 2.1 2 1.2 3.75 1.6 1.4.3 1.7 2.35.25 1.4-.05 2.65-.55 2.4-3 4-2.05 1.3-3.4 1.15-2-.25-3.4-2-.75-1-2.25-1.4l-1.2-1q-.85-.95-.55-.9 3.7.35 5.25 2.3 1.05 1.3 2.35 1.45.85.1 2.4-1.25 1.6-1.4 1.7-2.45.2-3.05-.65-3.3-3.4-.75-6.7-3.85-1.45-1.35-1.8-1.4-2.5-.3-9.1-2.2-7.5-2.2-8.05-3.4-.55-1.35-2.85-2.2l-3.05-.4q-1.5.05-2.65.75-1.85 1.1-22.4 2.45l-4.1.15-16 .45q-5.25-.1-6-1.1-.4-.4-.2-.95l5-16.55q.15-.5 1.4 0 1.25.55 1.1 1.15l-5.2 15.2 7.65.4L93 220.4l4.15-.15 11.4-1.05q8.55-.95 9.5-1.45 2.9-1.75 6.7-1"/><path fill="#0d131a" d="M130 225.95q-.95-1.35-.9-2.45.05-1.1 1.05.25 3.55 5.05 7.7 8.4 3.45 2.75 5.65 3.2 1.05.2 2 1.8l2.1 4.5 1.85 3.35q1.1 1.75 1.75 2.3.75.65.5 2.65-.3 1.9-1.2 3-.15.25-.65-.8-.45-1.05-.35-1.3l.2-1.45-.2-.95q-1.25-1.1-3.4-5.95-2.45-5.35-3.45-5.65-2.45-.75-5.8-3.45-3.9-3.2-6.85-7.45m-6.85 7.85l.25-.75q.25-.45.45-.55 1.4-.6 7.55 4.6l3.85 3.35q2.55 2.4 2.9 3.1l1.4 2.9q1.35 3.25 1.35 5.15.05.45.85 1.15.8.7 1.7 1.1.2.05.4.9t-.1.8q-1.5-.25-3.15-1.2-2-1.15-1.95-2.4.05-2-1.1-5.05l-1.1-2.65q-.85-1.55-4.9-5.15-4.45-3.9-7.05-4.9l-.75 1.55q-.85-1.5-.6-1.95"/><path fill="#0d131a" d="M124.75 241.85q-2.6-6.65-3.25-9.75-.45-1.95.35-1.75.75.2 1.25 2.05.75 2.7 3.5 9.1 2.65 6 3.5 7.3.7 1.05-.15 5.15-.85 3.95-1.8 4.8-1.2 1.05-3.4 1.65-2.4.65-3.7 0-1.45-.7-2.95-2.3-1.7-1.9-1.35-3.15 1.2-3.65 1.15-7.75-.1-5-2.2-8.5l-.85-1.45q-.95-1.5-1.35-1.5-.45-.05-1.65 1.6l-3.3 4.75-4.25 5.85q-.3.35-.85 2.65l-.55 2.05q-.45 1-1.3 1.55-1.15.7-3 .65l-3.25-.65q-2.65-1.05-3.2-3.15-.55-2.05-.25-5.4.3-3.95 1.8-4.7 8.25-4.5 11.15-10.05 1-1.9 1.25-3 .45-2.55 2.15-2.7 1.85-.1 2.1.4.3.5-1.6.8-.5.1-.7.45l-.4 1.35q-.45 2.25-1.1 3.4-1.6 3.05-5.75 6.8-3.45 3.1-5.6 4.2-.8.45-1.25 3.5-.45 3-.05 4.55.35 1.35 2.05 2.1l2.35.4q1.25-.05 2.1-.6.75-.4 1.25-2.8.3-1.35 1.55-3.15l7.4-10.2q1.5-2.05 3-2 1.45.1 3.45 3.45 2.35 3.95 2.75 9.3.35 4.75-.85 8.45-.15.5.85 1.7t1.95 1.7l2.6-.15q1.8-.45 2.7-1.25.55-.65 1-3.95.45-3.35.1-4.05-.95-1.4-3.4-7.75m-76.4-34q.25-.2.8 1.2l.35 1.5q-2.85 2.15-6 7.7-3.1 5.45-5.9 13.2-1.15 3.15-1.7 2.35-.6-.85.55-4 3.1-8.65 5.8-13.65 2.95-5.6 6.1-8.3"/><path fill="#0d131a" d="M36.7 230.6q-.15-.7.8-2.25 1-1.6.85-1.05-.3 1.55 3.25 12.05 3.9 11.5 8.65 22.05 4.85 10.6 7.1 14.65 3.75 6.85 7.5 10.25 2.25 2.05 1.3 2.4-.9.3-3.2-1.9-3.8-3.65-7.6-10.35-2.8-4.95-7.05-14.4-3.95-8.75-7.35-18.05-3.35-9.05-4.25-13.4"/><path fill="#0d131a" d="M31.65 204.3q-.05-.2 1.4-.45 1.45-.3 1.45 0 .45 6.75-3.75 16.75-2.8 6.6-5.35 10.35-1.4 2.05-1.35 3.45 0 2.45 2.8 6.3 4.3 6 12.25 21.9 8.8 17.45 9.5 23.15.3 2.35-2.3 6.2-2.55 3.8-4.4 4.1-1.65.3-4.85-.05-2.5-.3-3.05 0-.95.4-4.45 4.9-.2.25-.8-.2-.65-.5-.45-.75l2.2-3.25q1.7-2.55 2.45-2.9 1.45-.7 3.9-.4l2.15.45 2.25.15q1.1-.2 3.1-3.2 2.05-3.15 1.85-4.85-.75-6.2-9.1-22.65-7.35-14.45-12.35-21.65-3.25-4.65-3.5-7-.2-2.05 1.9-4.65 3.05-3.85 5.9-11.55 3.3-8.85 2.6-14.15m58.05 85.4q-.45-.5-2.3-1.3-1.85-.8-2.4-.65-2.9 1.45-9.25 1.05-7.65-.5-13.55-3.9-1-.6-2.7-3.25l-1.35-2.2q3.4 5.25 12.6 7.05 8.7 1.7 13.55-.95 1.1-.6 4.15.8 2.8 1.25 3.05 2.55.3 1.05.1 2.75-.15 1.7-.7 2.85l-.85 1.1q-.35.35-1.3.3-1 0-1.05-.35l.2-.4.55-.45q.6 0 .95-.85.25-.45.3-2.2v-1.95"/><path fill="#0d131a" d="M86.75 293.9q2.05-.25 6 2.25 3.5 2.25 4.1 3.3 1.25 2.2.65 3.8l-.95.05q-.9-.3-.8-.6l.1-.75-.35-.8q-.7-1-3.7-3.15-3.45-2.45-4.85-2.25l-7.05-.25q-5.4-.85-8.3-3.3-1.4-1.2-1.3-1.8.1-.65 1.5.55 2.55 2.2 8 2.85 3.9.45 6.95.1M62.2 299q5.35-.5 13.4 1.5 9.4 2.35 11.4 6.25 1 1.85 2.8 2.7 1.5.75 2.8.6l.95-.5 1.05.1q.95.35.85.65-.15.75-.75 1.4-.65.7-1.5.8-1.55.2-3.4-.5-2.85-1.15-4.45-4.25-1.55-2.9-9.5-5.25-7.95-2.4-13.35-1.55-.35.1-.5-.95-.15-1 .2-1m-10.8 1.4l.95.85q.7.85.4.85-6.2-.15-10.35 1.55-3.6 1.45-5.2 4.15-.85 1.25-2.5 1.65-1.6.35-4.1-1.25-.25-.15.7-.85 1-.7 1.2-.6l2.1.1q.95-.25 1.2-.7 1.6-2.6 5.75-4Q45 301 51.4 300.4"/><path fill="#0d131a" d="M50.75 298.8q3.1 2.4 4 6.2.6 2.5.35 7.35l-.15 3.65q0 1.2 2.35 2.8l.5 1.2q.25 1.05-.05.9-4.9-2.3-4.9-4.9l.1-3.75.25-6.35q-.25-3-2.4-5-1.9-1.75-1.95-2.7-.05-.9 1.9.6m10.85-2.35q.1-2.15.8-1.75.7.45.7 2.6-.05 4.25 1.75 8.1 1 2.15 2.85 5.1l.9 1.65.5 1.2q.2 1.65-1.05 3.7-1.2 2.05-2.75 2.55-.25.1-.15-.9.1-.9.3-1.2l.75-1.85q.25-1.2.1-2.3l-.85-1.85q-1.8-3.5-2.6-6-1.5-4.6-1.25-9.05m40.45-43.65l-.7 4.65q-.85 3.85-2.15 4.15-.85.2-1.75-.5-1.4-1.1-2.65-4.15-1.15-2.9-1.15-4.9 0-.35.85.3.85.6.9 1 .4 1.9 1.55 4.25 1.2 2.4 1.85 2.45.5-.5 1-6l1.15-.8q1.15-.75 1.1-.45m17 4.45q0-.35 1 .7l1 1.4q.35 4.3 1.35 7.45l1.7-3.05q1.1-2.35 1.65-4.45.1-.35 1-.8.9-.5.85-.15-.6 3.25-2.45 6.95-2.05 4.15-3.35 3.6-.9-.45-1.9-5.55-.9-4.55-.85-6.1m24.5-6.35q.95-.95 2.25-1.35 2.8-.85 4.3.8.8.85 1 5.8.15 4.4-.2 7.1-.5 3.55-1.35 3.65-.9.05-3.1-3.4-1-1.5-2.5-5.25-1.65-4.1-1.5-5.35.2-1.1 1.1-2m1.2 1q-.6.6-.7 1.25l-.05.2q0 1.9 3.65 8.45l.5.95.7 1.2.2-.9.25-5.85q0-4.9-.5-5.6-.85-.9-2.55-.55l-1.5.85m10.3-16.95q.25-1 .45-.8 1.9 1.85 3.25 5.3 1.1 2.95 1.25 5.3.2 3.1-1.45 2.2l-7.65-6.55q-.25-.2.5-.6.8-.35 1.05-.15l5.85 5.05q-.3-1.95-1-4-.95-2.85-2.3-4.5-.2-.25.05-1.25M90.8 291.2q-.2-.05-.25-1.05-.05-1 .1-.95 2.75.55 6.15 2.5 3.35 1.9 3.7 3.05.5 1.6-9.3 1.75-.45 0-1.3-.8-.85-.8-.5-.8l8.3-.5q-.85-.8-2.7-1.7-2.15-1.05-4.2-1.5m16 19.5q-.25.7-5.55.5l-7.3-.65q-1.4-.3-2.2-1.4-.8-1.1-.75-2.65 0-1.6 1-2.9 1.1-1.45 2.95-1.75 2.75-.45 9.15 5.35l2 1.9q.95 1.05.7 1.6m-5.35-1.2l2.4-.05-1.05-1.1q-5.75-5.1-7.6-4.95-1.25.2-1.95 1.2-.65.85-.7 1.9 0 2.1 1.7 2.5l7.2.5"/><path fill="#0d131a" d="M64.3 316.75q-.55-1.4-1.65-1.95l-1.95-.25q-1.05.25-1.75 1.05-.8.95-.8 2.25v.2q.05 1.15 2.15 5.1 1.95 3.65 3.05 5.1l.85-3.95.35-5.15-.25-2.4m-.75-3.25q1.45.9 2.2 2.75.65 1.65.15 7.5-.55 6.15-1.7 7.15l-1.35.15q-.95-.55-3.7-5.9-2.85-5.4-2.9-6.95-.1-2.05 1.25-3.55 1.2-1.25 2.85-1.65 1.7-.35 3.2.5m-32-6.75l.3-1.4q0-1.35-1-2.65l-1.1-1.1q-.5-.3-.75-.25L24.3 305q-2.05 1.85-2.35 2.65h.1l5.05-.2 4.45-.7m-.35-6q1.5 1.3 2.15 3.05.7 2.1-.15 3.95-.55 1.15-6.05 1.7l-5.45.3q-1.85 0-2.05-.75-.45-1.55 3.85-5.35 3.2-2.8 4.65-3.65 1.25-.8 3.05.75m27.5-10.85q-.7-.1-.5-.85.25-.7.95-.55 1.45.35 1.55 2.5l-.35 1.5q-.3.7-.35.15l-.35-1.95q-.3-.7-.95-.8m59.3-65.8q-.8-.05-.6-.8.2-.75 1-.7 1.4.1 2.1.85.7.8.95 2.6.25 1.65-.3 2.4-.6.75-.7-1-.15-2.1-1-2.85-.5-.45-1.45-.5m-62.8-31.8q.2-1.4 1-1.5.8-.1.5 1-.9 3.4-1.95 3.95-.4.25-.1-1.15l.55-2.3m-15.6-5.25l-1.7 1.05q-.2-.25.9-1.5l1.8-1.7q1.15-.85 1.6-.5.45.35-.5.95l-2.1 1.7m-2.35-5.45q.6-.5.85-.1.3.4-.25.8l-1.45.65-1.2.15.9-.75 1.15-.75m-8.75-22.05l1.6.05q.45.45-.5.7-5.3 1.2-5.85.7-.2-.2 1.95-.7l2.8-.75m-3.45-12.05l1.3.4 1.7.7q.55.1.45.55-.05.5-.6.4-.8-.1-2-1-1.2-.95-.85-1.05m1.65-2.9l1.25.15q1.4.35 1.85.65.45.25.15.6l-.9.15-1.3-.65-1.05-.9m4.45-8.85q.55.2 2.3 2.2.6.45.2.7-.4.2-1.05-.25l-1.1-1.45q-.7-1.3-.35-1.2m10.7-7.2q-.85-3.4-.85-4.8 0-.9.9.75t1.1 2.85q.2 1.2-.35 1.6-.6.45-.8-.4m126.65 26.9q0-3.05 2.1-5.2 2.05-2.15 5-2.15t5.05 2.15q2.1 2.15 2.1 5.2 0 3.05-2.1 5.2-2.1 2.15-5.05 2.15-2.95 0-5-2.15-2.1-2.15-2.1-5.2m35.5-12.1q.55-2.3 2-2.65 1.45-.35 3 1.45 1.5 1.8 2.2 4.7.7 2.9.15 5.25-.5 2.3-1.95 2.65-1.45.35-3-1.45-1.55-1.85-2.25-4.75t-.15-5.2"/><path fill="#fff" d="M204.9 145.45q-.25-.95.05-1.7.25-.8.9-.95.6-.15 1.2.45.65.55.85 1.5.25.95-.05 1.7-.3.8-.9.95-.65.15-1.25-.45-.55-.55-.8-1.5m-29.8 7.1q0-1.1.75-1.85.7-.75 1.75-.75 1 0 1.75.75t.75 1.85q0 1.1-.75 1.85-.75.8-1.75.8-1.05 0-1.75-.8-.75-.75-.75-1.85"/><path fill="#0d131a" d="M100.65 37.4q0-3.1 2.15-5.25 2.1-2.2 5.15-2.2 3.05 0 5.15 2.2 2.15 2.15 2.15 5.25t-2.15 5.3q-2.1 2.2-5.15 2.2-3.05 0-5.15-2.2-2.15-2.2-2.15-5.3m34.05-7.95q-.75-2.8-.45-4.55.35-1.85 1.7-2.2 1.25-.35 2.65 1.2 1.4 1.55 2.05 3.95.65 2.45.25 4.45t-1.65 2.3q-1.3.4-2.6-1.05-1.3-1.45-1.95-4.1"/><path fill="#fff" d="M135.1 26.5q-.2-.95.05-1.7t.8-.85q.55-.15 1.1.45l.75 1.55q.2.95-.05 1.7t-.8.85q-.55.15-1.1-.45-.5-.55-.75-1.55M106.65 34q0-1.15.8-2 .8-.8 1.9-.8 1.1 0 1.85.8.8.85.8 2t-.8 2q-.75.8-1.85.8t-1.9-.8q-.8-.85-.8-2"/></svg>