<svg xmlns="http://www.w3.org/2000/svg" width="353" height="450" viewBox="-5.45 0.0 353.25 449.75"><path fill="#f9dad9" d="M235.85 292.95l40 44.75q-29.35 15.65-47.55-37.1l7.55-7.65"/><path fill="#ed85ad" d="M237.4 321.7q-3.4-5.85-6.25-13.1l-2.85-8 7.55-7.65 26.95 30.15q-7.95 3.2-11.8 3.4-6.85.4-13.6-4.8"/><path fill="#cd7497" d="M237.95 306.35q-4.7-.35-8.5-2.35l-1.15-3.4 7.55-7.65 11.05 12.4q-4.5 1.3-8.95 1"/><path fill="#f9dad9" d="M235.25 291.6l5.8-9.15 59.45 47.15.35 1.7q.15 2-.9 3.55-3.25 5-16.85 3.7-16.9-1.55-32.25-21.15-7.45-9.5-15.6-25.8"/><path fill="#ed85ad" d="M235.25 291.6l5.8-9.15 40.3 31.95q1.15 3.2-.45 6-1.55 2.7-5.25 4.2-8.45 3.45-19.85-1.35-6.95-7.45-13.4-18.25-2.7-4.55-7.15-13.4"/><path fill="#cd7497" d="M235.25 291.6l5.8-9.15 18.7 14.85-7.45 6.4q-4.45 2.95-9.1 2.55l-4.9-8.65-3.05-6"/><path fill="#f9dad9" d="M313.85 312.75q8.5 11.3-2.15 15.2-4.3 1.55-10.55 1.3-6.05-.2-11.4-2-8.85-2.95-27.3-21.65-8-8.05-21.7-23.6l3.75-10.15q54.6 21.4 69.35 40.9"/><path fill="#ed85ad" d="M298.45 298.7q2 9.3-5.2 15.25-7.45 6.1-18.55 3.25-12.95-11.15-33.95-35.2l3.75-10.15q35.3 13.8 53.95 26.85"/><path fill="#cd7497" d="M256.65 276.8q1.3 7.4.95 12.15-.35 4.5-2.4 9.15L240.75 282l3.75-10.15q6.85 2.7 12.15 4.95"/><path fill="#dbd2a9" d="M186.8 410.2q1.9 1.25 4.2 5.3.5.85.2 1.2l-1.05.1q-3.3-1-4.5-.8l1.15-5.8m34.5-1.15l-.3 2q.05 2.3 1.75 3.8l-3.15.25-2.8.2q-.45-.65.65-2.5 1.3-2.2 3.85-3.75"/><path fill="#be9c59" d="M199.25 330.45q-1.35 3.45-4.2 12.1-3.8 11.55-6.65 22.15-8.4 30.9-5.65 40.85l2.25 2.7q1.7 2.3 2.2 4 1.1 3.65-3.3 4.65.2 2.6 3.95 7.7l5.05 6.8q1.3 2.35.5 4.8-.8 2.4-3.4 4.15-1.45 1-3.8 1.55l-4.85.45q-5.45-.35-7.3-4.3-1.2-2.6-1.8-9.65-.45-6.2-2.85-9.2l-1.65.2q-4.1 1.2-12.15 7.25-7.8 5.75-10.25 9.1-2.6 3.45-7.75 4.3-5.1.9-7.05-1.7-2.6-3.45-2.3-6.8.25-2 1.4-3.65 1.45-2 7.85-5.35l6.1-3-6.05 1.3-7.6 1.85-2.65-.1q-1.65-.5-2.95-1.7-2.6-2.4-2.2-6.35.35-4 4.4-4.6l7.2-.3q5.25-.7 15-3.8 12.3-3.95 16.3-7.55l9.65-26.4q8.9-24.6 12.6-39.05 3.4-13.15 2.7-18.35l4.55-2.4 5 2.1q-.15.75.6 6.5.55 6.25-.9 9.75"/><path fill="#a5874c" d="M129.95 422.7l-2.65-.1q-1.65-.5-2.95-1.7 1.8-.1 3.85-1.4l3.05-2.25q.8-.55 6.65-1.4l13-1.9q-2.4 3.5-7.3 5.6-11.75 2.5-13.65 3.15m37.15-6.2q1.55 0 2 2.4-5.65 1.75-13.8 7.8-7.25 5.4-9.95 9.05-2.6 3.45-7.75 4.3-5.1.9-7.05-1.7-2.6-3.45-2.3-6.8l4.85 2.7 4.5.2q2.9-1.3 6.9-4.55l7.1-5.95q9-7.45 15.5-7.45m20.1-4.25q1.1 3.65-3.3 4.65.2 2.6 3.95 7.7l5.05 6.8q1.3 2.35.5 4.8-.8 2.4-3.4 4.15-1.45 1-3.8 1.55l-4.85.45q2.75-4.1 3.75-6.7 1.9-4.6-1.35-8.2-1.4-1.55-3.5-9.15-1.8-6.35-2.05-8.65-.2-2 .95-.7 1.05 1.25 2.15 3.85 3.5 1.05 5.9-.55m12.35-98.05q-.15.75.6 6.5.55 6.25-.9 9.75-1.35 3.45-4.2 12.1-3.8 11.55-6.65 22.15.85-10.75.9-16.1.1-9.15-2-15.75 3.4-13.15 2.7-18.35l4.55-2.4 5 2.1"/><path fill="#fff3c2" d="M132 430.35q2.8.95 4 4 .6 1.5.65 2.85l-11.85 5.7q-1.95.9-2.45.35-.55-.6.4-2.65 2.05-4.3 5.05-7.55 2.9-3.15 4.2-2.7m-6.7-16.65q1.3-.2 2.35 3.2l.85 3.45q-6.95 2.2-12.55 4.65-3 1.25-1.1-2 2.1-3.7 5.75-6.6 3.05-2.45 4.7-2.7m62.95 17.95q2.25.45 3.25 7.8 1.05 7.25-.65 7.85-2.8-2-5.9-5.15-3.5-3.55-3.35-4.6.4-2.05 1.8-3.85 2.05-2.6 4.85-2.05"/><path fill="#be9c59" d="M222.85 304.8l.2 6.2q-3 10.1 6.2 42.1 8.3 28.7 17.9 48.4 6.15 3.8 13.65 7.25 6.45 2.95 10.1 4.05l7.7 2.15q4.45 1.95 4.2 6-.25 4.4-4.5 6.45-3.9 1.95-5.65.2-5.7-5.7-13.6-8.65l-6.7-1.8 3.3 4.25q4.7 5 11.8 8.8 2.65 1.45 3.2 5.4.55 4-1.75 6.2-2.65 2.6-7.7 2.8-5.5.2-7.4-3.35-3.25-6.2-7-11.65-5.45-7.75-8.1-7.8-9.3 3.95-16.5 14.5-4.4 6.45-11.6-.3-2.3-2.1-2.6-4.45-.25-2.35 1.45-4.5.6-.8 6.95-5.45 5.5-4 6.05-6.45-2.95-4.3.55-8.6l7-6.15q-1-10.15-9.5-38.85-8.6-27.8-9.3-30.85-.65-2.75.05-7.15 1.05-6.2 1.1-10.8l10.5-7.95"/><path fill="#a5874c" d="M220.35 338.5q-2.95-3.8-8.65-5.9l-.5-1.9q-.65-2.75.05-7.15 1.05-6.2 1.1-10.8l10.5-7.95.2 6.2q-2.75 9.25 7.25 48.3-5.85-15.45-9.95-20.8M250 413q4.25.3 9.5 2.35l8.65 3.9q9.9 4.5 14.65 1.2v.5q-.25 4.4-4.5 6.45-3.9 1.95-5.65.2-5.7-5.7-13.75-8.6l-6.9-1.7q-.9-2.45-2-4.3m11.2 31.6q-5.5.2-7.4-3.35l2.65.75q3.45.05 6.45-4.65 2.1-3.1.95-6.4-.9-2.45-4.1-5.8 3.6 2.9 7.7 5.05 2.65 1.45 3.2 5.4.55 4-1.75 6.2-2.65 2.6-7.7 2.8m-19.4-20.4q-2.8-2.4-3.1-2.4-9.3 3.95-16.5 14.5-3.75 5.45-9.6 1.4 4.05-1.3 12.6-10.7 7.7-8.4 11.25-8 4.75-1.1 8.6 7.95l-3.25-2.75"/><path fill="#fff3c2" d="M264.65 434.85q2.55-.75 4.5 4.55 1.85 5.15.85 9.5-1.7-.8-6.35-4.5l-4.35-3.6q.2-1.15.95-2.45 1.55-2.65 4.4-3.5m22.3-6.05q-2.65-1.1-6.8-2.5l-4.3-1.3q0-1.9.55-3.7 1.1-3.7 3.85-3.4 1.75.2 4.65 4 2.8 3.6 3.4 6.05.2.75-.4.95l-.95-.1m-75.5 2.05q2.75-.1 4.85 3.3 1 1.75 1.5 3.45-.9.1-5.8 2.85-4.9 2.75-5.7 3.6-.15.2-.4 0-.3-.15-.3-.45-.1-5 2.15-9.05 1.95-3.6 3.7-3.7"/><path fill="#dbd2a9" d="M135.75 433.9q.85 1.7.9 3.3l-11.05 5.1q4.25-6.15 10.15-8.4m-7.9-16.4l.65 2.85q-6.85 2.15-12.45 4.6 4.7-5.55 11.8-7.45m60.9 21.8q-1.25-4.1-3.4-7 1.4-.9 2.9-.65 1.75.35 2.85 5.2 1.2 5.4-.15 10.75l-.5-.75q-.95-5.2-1.7-7.55m70.55 1.5q.15-.85.65-1.9 1.05-2.1 2.9-3.25 5.3 7.45 7.25 12.4l-.3.6-.5.25-10-8.1m29.3-11.2v.05q-3.95-1.75-8.75-3.35l-4-1.3q0-3.35 1.3-5.45 6.6 3.9 11.45 10.05m-82.5 13.9q3.9-6.4 10.25-9.45 1.05 1.65 1.45 3.55l-3.55 1.7q-4.2 2.2-7.6 4.4l-.45.15q-.2-.1-.1-.35"/><path fill="#152139" d="M164.75 282l9.3-22.3 41.45 1.55 22.9 25.2q.35 3.05-4.15 8.05l-6.25 6.95q-1.45 2.2-2.8 7.5l-1.05 4.85-2.55-5.4-.75 1.8-1 2.85q-.9-.9-2.25 1.05l-1.2 2.15-2.05-3.5q-.55-.85-1.3.15-.65.85-2.15 4.2-1.2-3.45-2.05-9.55-.75-5.45-1.2-6.6-.85-2.1-3.45-2.7-2.6 5.3-3.55 19.55-.85-.5-1.6-2.1l-1.05-2.45-2.8 5.45-2.3-3.6-.8.65-3.15 2.15q.95-3.05 0-5.25-1.05-2.35-4.45-4.25-7.95-4.35-11.35-8.3-5.1-5.9-8.4-18.1"/><path fill="#cf7100" d="M184.7 196.5l15-1.65 5.45.6 4.6.2q1.4-.55 3-3.05l.85 2 1.45 3q.6 1 1.5-1.5.9-2.45 1.55-6.55 2.5 3.6 4.15 8.05l6.7 3.05q7.2 3.65 9.8 6.75 2.35 2.85 4.6 3.45 1.95.5 4.25-.65l.65-.05-.1.85-1.75 4.5-.4 1.3 1.7-.25 2.4-.95-1.1 3.2q-.6 1.7-.3 1.85.45 0 2-1 1.45-.9 1.75-.8.5.25-.95 6.6l1.45 3.85q1.35 5.15 1.05 11.75-.15 3.65 1.6 3.7.7.05 4.75-1.6l-.9 3.35q-1.45 3.7-4.05 5.4 3.3 3.35 2.65 4.1l-4.6.85 2.8 5.75-5.3.9.95 6.85q-3.5-1.95-4.85-2.4-.25 1.65-2.85 7.8l2 4.55-4.45 1.4v7.25l-2.35-1.7q-2.4-1.65-2.95-1.5-.55.2-4.05 2.95l-3.45 2.75-1.5-4.7-4.65 4.15q-.8-3.65-.55-5.85.15-1.2-1 .05-2.05 2.15-3.15 2.75.7-3.35-.65-11.55-.75-4.85-1.85-9.25-1.9 6.1-3.25 15.2-.65 4.55-.95 7.9-1.65-1.25-1.95-1.2-.85.05-2.2 2.8-1.75-4.45-3.7-4.15-1.85.25-3.55 4.95l-1.95-6.4-1.2 1.2-3.3 3.05q-1.25-8.05-2.5-8.2-1.1-.2-2.75 4.25-1.3-4.95-6.4-13.1-4.75-7.75-5.5-7.3-.5.35 1.85 8.1l4.2 13.7q.75 3-.05 3.35-.75.3-2.9-1.7l-4.25-4.4.45 1.95.5 3.35q.05 1.35-.2 1.65-.25.2-.8-.5l-6.65-8.45q.5 3.75-.45 4.1-.9.35-2.8-1.4l-1.75-1.85-1.25 4.15-6.85-14.75-5 3.05 2.2-8.35q-3.05 1.1-5.3.85 1.8-1.7 3-5.55 1.2-3.65.55-4.75l-4.95-.45q-4.95-.55-5-.9l3.7-3.1q3.7-2.9 3.55-3.85-.2-1.05-3.2-2.3l-3-1.05 2.25-1.65q2.4-2.05 3.1-3.95.15-5.55 2.2-11.4.15-.4-1.05-2.2-1.15-1.8-1-2.2.3-.85 4.3.7 2.25-4.5 5.25-9.5l3.1-4.95q.7-.85-.1-3.55l-1-2.55 7.2 2.85-1.9-5.35 1.95.75q2.35.85 4.45 1.2 1.25-1.65 6.25-4.75 4.95-3.05 7.7-3.9"/><path fill="#a95b00" d="M155.45 273.35l-5 3.05 2.2-8.35q-3.05 1.1-5.3.85l6.15-5.65 2.05 5.4 2.45-3.4 3.85 7.25.8-3.7q.9-3.45 1.35-2.3.7 1.65 2.85 3.2 2.25 1.6 2.25-.3 0-2.15.7-7.9.7-5.85 1.15-6.75.35-.65 2.65 2.3 2.75 3.6 3.85 4.2 1.6.85 4.2 4l1.8 2.5q.05-1 .45-3.15.75-4.05 1.1-3.8l3.2 4.6q2.95 4.3 3.3 4 .6-.45.9-8.95 4.8 4.95 5.6 4.2l2.75-2 2.15-1.4 3.85 6.6q.05-.9 2.25-5.15 2.6-5 2.85-5 .2 0 1.15 1l1.05 1 1.5-3.55 1.7-5.1q.35-1.35 1.3.7l1.35 4.25q.45 2.05 2.55 5.75 2.05 3.65 2.55 3.2l1.25-5.85q1-5.55 1.5-5.9.55-.35 2.2 2.8l1.7 3.1 2.65-7.85 2.75-9q.3-1.2 1.95 2.35 1.6 3.5 1.6 4.9 2.15-3.75 2.5-14.3 0-9.85.15-10.25.25-.55 1.4 1.6l1.8 3.95q.75 2 .7-3.85-.05-5.65-1.15-6.15-1.05-.55.5-2 1.45-1.35 3.2-1.95l-.8 2.6q-.45 1.25-.2 1.4l1-.2 1.15-.7q1.2-1 1.55-.7.25.2 0 1.55l-.9 4.95 1.35 3.85q1.35 5.15 1.15 11.75-.1 3.6.75 3.75l5.6-1.65-.9 3.35q-1.45 3.7-4.05 5.4 3.45 3.2 2.7 4.1-.5.55-4.6.85l2.8 6-5.35.65.95 6.95q-1.15-.7-2.35-1.25-2.35-1.1-2.5-.3-.35 1.65-2.85 6.55l2 4.85-4.45 1.4v7.25l-2.45-1.65q-2.6-1.6-3.1-1.4-.55.15-3.95 2.85l-3.3 2.7-1.65-4.45-4.5 3.9q-.8-3.65-.55-5.85.15-1.2-1 .05-2.05 2.15-3.15 2.75.7-3.35-.65-11.5-.75-4.6-1.9-9.2-1.9 6.1-3.2 14.85-.65 4.35-.95 7.5-.55-.4-1.35-.35-1.6.15-2.8 2.6-2.3-5.75-5-3.05-1.35 1.35-2.25 3.85l-1.95-6.4q-2.25 2.5-4.75 3.65-1.2-8.2-2.8-7-.9.65-2.2 3.65-1.5-5.55-10.35-19.05-1.45-2.2-1.85-2.05-.45.15.35 2.6 4.8 15.05 6 19.9 1.2 4.9-2.7 1.85l-4.15-4.05.9 5.2-.5.7q-.65.55-1.35-.35l-6.1-8.1q.7 4.7-2.1 3.35l-2.95-2.25-1.1 3.35-6.95-14.2"/><path fill="#60615f" d="M167.7 34.55q-15.3 14.6-23.65 23-15.15 15.25-18.1 22.15l-24.25 20.9q.75-10 10.65-24.55 10.1-14.95 22.65-23.9 11-7.85 20.25-12.95l11.85-6.4q1.75-1.1 2.15-.65.4.45-1.55 2.4"/><path fill="#4a4b4a" d="M139.15 62.6q-10.75 11.35-13.2 17.1L111.6 92.1q9.9-31.7 47.45-49.2-14.05 13.5-19.9 19.7"/><path fill="#60615f" d="M182.35 35.75q-4.05 10-17.1 27.3-13.3 17.65-21.1 22.95Q133.3 93.95 120 96.4q-12.7 1.35-16.5 2.75-.75-8.85 37.05-28.65 16.6-8.65 28.35-20.5l7.7-8.35q3.8-4.3 5.75-5.9"/><path fill="#4a4b4a" d="M159.85 70q-9.85 12-15.7 16-9.75 7.15-21.85 10l-13.5 1.95q21.35-7.7 38.15-20.65 15.5-11.95 29.15-29.95Q169.05 58.7 159.85 70"/><path fill="#be9c59" d="M115.7 163.95l10.55 7.8q0 2.2 2.35 7.75 2.7 6.4 6.9 12.9 11.55 17.95 26.55 25.15-1.35.9-4 .6l-2.35-.5 4.15 5.75-5.25-1.2 2.85 5.5-4.2-1.25q-4.5-1.2-5.9-.9l-8.8-8.55q-8.15-8.4-15.45-18.85-4.15-5.9-7.6-15.9-3.75-10.75-4.9-12.7l5.1-5.6"/><path fill="#a5874c" d="M115.3 181.7l-2.3-6.8q-1.25-3.45-2.4-5.35l5.1-5.6 10.55 7.8q0 1.6 1.35 5.35 1.55 4.1 4.05 8.9-8.3-4.45-16.35-4.3"/><path fill="#be9c59" d="M174.55 138.1l10.35.3 5.05 30.35 3.3 36.15-3.85-7.45-1.45 2.45q-1.75 2.2-3.1 1.15.35-7.15-4.35-34.1-4.45-25.55-5.95-28.85"/><path fill="#a5874c" d="M174.55 138.1l10.35.3 3.8 22.6q-5-4.65-10.2-5.1-3-15.7-3.95-17.8"/><path fill="#be9c59" d="M233.25 185.5q7.25-15.95 8.8-21.2l13.35 1.15.35 2.7q-2.2 6.45-10.85 23.95-8.85 17.95-9.6 20-3 4.45-4.1 3.1-.7-.9-.7-4.55-3.85 3.85-4 2.2l.65-5.8q-4.6 4.75-5.2 3.8.05-2.7-.35-4.5 3.3-2.35 11.65-20.85"/><path fill="#a5874c" d="M239.45 171.05l2.6-6.75 13.35 1.15.35 2.7q-1.95 5.7-8.9 19.95-.1-11.15-7.4-17.05"/><path fill="#cf7100" d="M118.35 98.1q8.1 1.2 13.95 5.95l4.9-.95 1.75-.25q.3.3-.5 2.25-.8 2-1.9 3.45-.9 1.2.6 1.15 1.4-.05 5.8-1.35 0 1.65-1.15 3.5l-1.15 1.5 2.15 4.5q2.15 5.65 2.15 11.35l3.7-.5 1.8.15q.35.7-2.5 3.65l-3.7 3.6 1.9-.25 2.65-.15q-.4 1.1-2.25 3-1.75 1.8-1.85 2.2l-1.5 6.15q-1.65 5.85-3.45 8.25l4.85 3.8-3.55 1-6.1.25q-.25 1.2 2.8 5.85l-3.85-.2q-4.2-.5-5.85-1.85.75 6.7 1.45 7.85-1.05.25-3.3-.85-2.15-1.05-6.2-3.75l-1.25-.8q-.4-.2-.7 0-.6.7-.4 3.6l.3 2.75q-2.3-.4-4.8-2.4-4.95.9-10.85-1.15l-4.9-2.25v1.05l.3 2.6q.2 1.2-.05 1.45-.2.3-.8-.55l-4.25-5.95-2.5 4.05-.75.9q-.8.7-.85-.5-.1-3.55-.85-6.35-1-3.85-3-5.35l-9.85-30.25q.3-2.45 2.3-7.2 2.55-5.9 5.4-8.4l-2.7-1.15q-1.05-.45-.95-.7.05-.25 1.1-.6 5.5-1.75 5.9-2.55.35-.75-2.9-2.45 1.8-.9 3.85-.9l1.7.15-.95-6 5.05 3.6q.5-1.7 1.45-3.8 1.9-4.25 4.25-6.4.25 4.55 1.7 6 1.7 1.6 6.05.6l12.3-.35"/><path fill="#a95b00" d="M133.3 119.95q-2.05-10.8-10-20.45 6.8 2.4 9.45 4.5 4.35-.4 6.2-1.15-.7 2.7-2.05 5.15-.9 1.6-.15 1.7.9.1 5.7-1.3 0 2.65-1.8 4.95l2.15 4.5q2.15 5.65 2.15 11.35l3.5-.4q1.9-.35 2.1 0 .4.6-5.7 7l1.9-.2q1.95-.05 2.05.4.1.4-1.8 2.2-2 1.85-2.1 2.35l-1.6 6.1q-1.75 5.9-3.55 8.3.95 1.9 5.1 4.35l-3.65.85-6.2.15q-.2 1.2 2.75 5.9l-3.85-.25q-4.15-.55-5.8-1.9 0 1.45.7 4.85l.9 3.65-3.95-1.7q-2.65-1.2-5.8-3.3l-1.15-1q-.55-.5-.8-.4-.55.15-.4 3.45l.25 3.25q-3-.8-4.95-2.3-4.95.9-10.7-1.15l-4.8-2.25.05 1.1q.05 1.3.25 2.4.2 1.4-.05 1.65-.4.3-1.45-1.25l-2.4-3.9-1.15-2.05-2.4 4.5-1.25 1.3q-.45.15-.5-1.4-.3-5.25-1.05-7.25-.65-1.9-2.7-3.4l-2.05-6.4q6.85 5.55 14.9 7.25 8.6 1.75 16.65-1.3l-.85-2q-.75-1.45-.15-2.05l5.1.25q1.8.5 5.1 1.75l-1.9-2.65q-1.15-1.6-1.15-3.45 2 1.05 6.95-.6l-6.95-3.45q2-.65 4.45-2.65l3.65-3.45q7.15-7.8 4.8-20.15"/><path fill="#fff" d="M93.7 129l-1.9.65q-.3-.15.2-1.2 1.35-2.85 4.85-7.25 4.35-5.5 8.15-7.85l1.6 2.9q1.5 3.15 1.3 4.5-.2 1.35-7.2 4.95l-7 3.3"/><path fill="#dbdcdc" d="M105 113.35l.8 1.45 1.5 3.2q-2.7-.25-7.05 2.65-2.9 1.95-7.1 5.8 1.9-3.35 5-6.9 3.65-4.25 6.85-6.2"/><path fill="#922f00" d="M78.15 146.75q-9.8.35-31.2-8.9-12.15-5.25-16.7-6.95-9.25-3.4-16-4.1l7.65-4.05 65.75 18.45-14.7 43.95-5.6 8.95q.7-15.7 2.7-26.2 2.75-13.95 8.1-21.15"/><path fill="#ed8599" d="M78.15 153.5q-2.2.95-9.25 7.95-5.7 5.75-6.35 4.05-.9-2.35 6-11.85 6.85-9.45 10.8-11.25l5.75.55-3.9 4.5-3.05 6.05"/><path fill="#ce7486" d="M74.8 146.15q2.8-2.9 4.55-3.75l5.75.55-4.3 4.25-2.65 6.3q-1.3.55-2.95 1.95 1.55-2.65-1.15-2.9-3.55.2-4.65 0 2.75-3.65 5.4-6.4"/><path fill="#fff3c2" d="M78.4 153.95q1.65-5.85 5.1-9.3l3.1-2.25q1.25.05 2.9 3.15 1.75 3.25 1.05 4.95-2.85 1.95-10.2 22.1-8.55 23.5-12.85 30.8-1.15 2-2.15 1.6-.95-.4-.3-2.7l7.6-27.1 5.75-21.25"/><path fill="#dbd2a9" d="M79.9 173.85q.95-6.55 1-11.7.05-6.3-1.15-11.85 1.75-3.95 4.5-6.3l2.35-1.6q1.25.05 2.9 3.15 1.75 3.25 1.05 4.95-1.9 1.3-4.85 8.15-1.75 4.1-5.8 15.2"/><path fill="#fff3c2" d="M77.7 127.05q3-1.6 4.75-.45 1.7 1.1 3.15 5.5 1.95 5.75 2 10.7-2.5.95-11.35-.85-9.8-2-25.25-7-16.5-5.3-25-7.1-12.2-2.5-20.15-.95l-3.2-.1q-.35-.75 2.45-2.4 5.2-3.2 11.4-4.8 7.2-1.95 13.15-.95l27 5.7q18.6 4 21.05 2.7"/><path fill="#cf7100" d="M279.6 93.5q.9 2.35 1.65 5.7l1.15 5.85.3 2.5q.3 1.25 1.5 1.6l2.8-.3q.75-.3.3.55l-1.35 2.2-.65.95q1.85.3 2.8.95.95.6.85 1.4l-1.35 2.6q-1.25 2.25-1.15 3.45l.5 3.3.6 3.3q2 .8 4.45 2.75-1.7 2.25-2.55 4.6-1.7 4.4-1.85 11l-9.75 12.65q-3.35 1.25-6.6 3.25-3.45 2.15-4.7 3.8-.95 1.3-1.35 2.85l-.2 1.35-4.9-3.4-6 4.35q-1.3.95-1.75.65-.35-.25.2-1.15l2.15-4.2-4.35.35q-7.55-.1-12.2-2.85-1.8 1.05-4.05 1.25h-1.9q4.95-6.6-.9-5.15l-5.85 1.1q-1.5.05-2.75-.8 1.7-1.3 3.05-3.45 1.6-2.55 1-4l-5.6-.15-3.2-1q3.85-3.85 4.05-5.1-2.5-.15-5.1-1.5-1.8-.95-1.7-1.4.15-.45 1.95-.35l2.95-.45q-2.35-8.75-1.95-17.2.3-6.8 2.05-10.85.45-.8.85-.7.4.1.65 1.15.9-2.5 2.55-5.25 1.55-2.65 3.1-4.3l-1.15-1.8q-.5-.95-.15-1.3l7.45-.55-1.3-1.25q-1.35-1.75-1.65-4.15 3.35 2.4 6.15 2.5 2.65.1 1.6-1.4l-3.7-5.35 8.55 2.25q7.55-2.6 15.3-2.1 7.15.45 11.6 3.25 4.65 2.95 6.5 2.8 2.3-.2 3.05-4.8"/><path fill="#a95b00" d="M249.7 92.75q6.1-.95 11.55-.2 5.35.75 8.7 2.9 3.6 2.25 6.45 1.6 2.75-.65 3.2-3.55.9 2.35 1.65 5.7l1.15 5.85q.55 3.05 1.35 3.75.6.45 2.55.3l.9-.05q.15.15-.3 1l-1.1 1.8-.55.65q2.1.4 3.05 1.15.75.65.55 1.35l-.95 1.95q-.9 1.65-1.45 3.4l.7 3.8.8 3.85q2 .8 4.55 2.15l-2.4 3.45q-2.4 4.9-2.5 12.3l-10 12.7q-3.85 1.55-6.8 3.4-3 1.9-4.25 3.6-.95 1.3-1.35 2.85l-.2 1.35-4.9-3.4-4.65 3.4q-2.4 1.7-2.9 1.65-.6-.1.65-2.35l1.9-2.95-4.75.25q-7.55-.1-12.2-2.85-1.95 1.1-4.1 1.25l-1.75-.1q1.25-1.6 1.7-3.05 1-2.9-2.7-2l-5.7 1.05q-1.25 0-2.55-.85 1.7-1.3 3-3.7 1.5-2.75.2-3.55-2.5.95-7.25-.6l6.35-1.05q2.75-.8 5.85-2.85.7 2.65.2 4.85l-1.3 4.1 7.05-1.85q2.6-.25 3.25 4.3 3.05-1 13.75-1.35 9.65-1.5 12-9.2 3.65-2.4 5.3-4.8l3.65-5.1q8.5-9.65-2.15-24.45-7.65-10.65-23.25-21.85"/><path fill="#cf7100" d="M166.75 73.05q2.1-.75 10.25-1.5l10.35-.45q1.85.25 6.55-.9 4.95-1.15 6.8-2.45.15 4 .85 4.6 1.25 1 6.75-.9-1.4 1.2-1.55 2.35-.1 1 .6 2.65l2.15 2.25q1.75 1.7 2.1 3.35 3-.5 4.85 0 .95.25 1.25.6-1.25.55-2.6 2-1.45 1.55-1.1 2.35 1.6.6 3.7 1.95l3.2 2.1q-.35.45-2.95 1.7-1.8.85-.75 1.35 3.05 1.5 4.7 4.2-.4-.3-2.6.65-2.2.9-2.1 1.25l3.15 4.45q2.9 3.95 2.55 3.85l-2.75-.2q-1.2.1-1.15.65.55 3.4-.95 8.2 2.8 3.25 1.45 3.65-2.55.05-3.55.95 0 1.05 1.4 2.95l1.95 2.9-2-.05-3.4-.8q1.2 7 .5 7.05l-2.45-2q-1.15-.8-1.7.2-3.75 6.9-4.15 8.65l-2.45-2.75q-1.05-.8-3.1-.4l-16 2.25q-.95-.2-2.6.75l-3.85 2.4q.35-.75-.65-2.6-1.05-1.95-2.2-1.9-.35 0-2.85 2.2-2.5 2.25-2.45 2.5l-.25-3.05q-.15-2.55-.5-2.95-.25.15-5.4 4.2-.25-.35-.6-3.95-.25-2.5-1.95-1.6-1.15.55-2.65 1.7-1.95 1.5-1.9 2.3-.1-1.35.75-4.05l1.05-3.9-2.8-3.25q-2.25-2.7-2.85-5.1l-3.2.6-1.4.45q-.2-.1.7-2.7.9-2.65 1.35-3.25l-1.6-3.2q-1.95-3.7-1.6-7.45.1-1-1.65 0l-1.75 1q-.2-1.65 1.2-4.45 1.15-2.35 2.6-3.95-.85-.8-2.85-1l-3.15-.4 4.3-3.05 4.2-2.6q-5.35-2.95-7.7-2.8.2-.85 3.95-1.55l4.65-.85q2.2-.6 4.15-3.6 1.75-2.7 1.45-3.6l-.95-1.15q-.95-1-1.05-.85.45-.5 3.1-.85l3.35-.6-1.7-1.3q-1-.85-1-1.7 2.4.45 8.5-1.55"/><path fill="#a95b00" d="M196.9 87.55q-2.6-6.9-10.25-16.5l.7.05q2.05.25 7.25-.95 5.55-1.3 6.2-2.7.1 4.1.75 4.75 1.3 1.15 6.75-.75-1.4 1.2-1.55 2.35-.1 1 .6 2.65l2.15 2.25q1.8 1.65 2.15 3.25 3.05-.5 4.85.05.9.3 1.2.65l-1.35 1.2q-1.5 1.55-2.15 3.35 1.65.65 4 2.05l3.45 2.15q-.35.45-3.5 1.3-2.15.55-.45 1.4 4.45 3.8 4.2 4.2l-2.6 1q-2.3.75-2.25.95l3.25 4.45q2.95 3.9 2.6 3.8l-3.6.2q-.3.35-.15 2.3l-1 6.6q2.45 2.65 1.9 2.95-2 .2-3.8 1.1-.55.6.8 2.6l2 3.15q.25.65-1.75.25l-3.3-.8q1.1 6.9.4 6.95l-2.7-2.1q-1.35-.85-1.45.3-.05.75-2.35 4.35-2.1 3.4-1.8 4.3l-2.45-2.75q-1.05-.8-3.1-.4l-16 2.25q-1.05-.25-3.1.9-1.75.95-3.35 2.3.3-.6-.65-2.45-1-1.9-2.05-2.35-.35.05-2.7 2.2-2.35 2.15-2.3 2.4l-.45-2.9q-.4-2.35-.75-2.75-.25.15-5.4 4.2-.25-.35-.6-3.95-.25-2.5-1.95-1.6-1.15.55-2.65 1.7-1.95 1.5-1.9 2.3-.25-3 4.2-6.45 2.05-1.55 3.8-3.8l.7 6.25 4.25-3.1 1.65.7 4.75 1.1q8.25 1.1 17.35-2.7 3.1-3.25 5.35-6.4 4.35-6.1 3.05-8.7 1.05 0 4.1 1.65-1.9-5.25-2.9-6.25 1-1.05 4.9-2.5l-4.05-1.5q-4.55-1.55-7.1-1.55 3.95-9 .15-18.95"/><path fill="#fff" d="M261.15 136.1l-9.25-1.25q-4.45-.85-5.35-1.4-.6-2.2.8-6.45 1.45-4.45 3.1-3.75 8.75 3.9 15.9 12 .3.3-.25.6l-4.95.25"/><path fill="#dbdcdc" d="M266.35 135.25q.2.2 0 .45-.45.4-2.45.45l-7.15-6.6q-4.25-3.25-8.65-4.4 1.2-2.4 2.35-1.9 8.75 3.9 15.9 12"/><path fill="#fff3c2" d="M335.5 184.95q-6.6 3.35-23.4-7.6l-12.7-8.7q-6.75-4.6-9.7-5.55-8.4-2.75-12.7-5-5.4-2.8-5.8-5.55 20.9 6.95 40.2 18.1 4.2 2.4 13.5 8.15 7.1 4.4 10.6 6.15"/><path fill="#dbd2a9" d="M332.55 183.4l2.95 1.55-.8.35-2.15-1.9"/><path fill="#dbd2a9" d="M332.55 183.4l2.15 1.9-36.15-17.2q-6-4.05-8.85-5-8.4-2.75-12.7-5-5.4-2.8-5.8-5.55 21.9 7.3 42.45 19.4 3.75 2.2 10.35 6.3l8.55 5.15"/><path fill="#fff3c2" d="M338.5 177.05q6 6.65 7.8 13.4-4.45-1.5-15.4-8.2l-21.8-13q-13.3-7.4-27.15-12.55-12.2-4.55-16.2-8.1l2.25-2.3 5.1-5.9 3.7-4.65q1.15-.8 3.2 1.45l3.25 4q2.75 3.35 5.85 6.15 9.55 8.5 24.3 13.85 16.05 5.85 25.1 15.85"/><path fill="#dbdcdc" d="M284.7 135.8l-2.95.4q-1.15-.1-1.2-.4-.05-.45 1.35-2.7 1.3-2.1 2.45-3.25l1.7-1.45q1.05-.85.95 4.65-.3 1.95-2.3 2.75"/><path fill="#fff" d="M178.6 107.6q1.5 1.65.95 2.5l-.9.55q-2.05 1.45-6.9-.15-4.25-1.35-8.55-4.2-1-.65-.85-5.95l.35-5.15 6.75 4.9q7.15 5.35 9.15 7.5"/><path fill="#dbdcdc" d="M162.4 98.8l.3-3.6 6.75 4.9q7.15 5.35 9.15 7.5 1.45 1.55.95 2.45-4.2-3.65-8.65-6.65-5.1-3.4-8.5-4.6"/><path fill="#fff" d="M205.5 106.8q-4.25 2.55-6.25 2.85-2.45.35-3.75-1.95l9.15-13q1.85 2.05 2.1 6.6.3 4.55-1.25 5.5"/><path fill="#dbdcdc" d="M206.65 101.15q.3 4.75-1.15 5.65l-.75.45q-.45-2.5-2.75-2.95l-4.25.2 6.9-9.8q1.75 1.6 2 6.45"/><path fill="#fff3c2" d="M195.6 114.8q4.2 4.8 3.9 6.25-.3 1.55.15 8.65l1.6 21.35q1.05 12.65-1.45 39.7-2.25 24.05-3.65 28.5-.9 2.8-2.85-14.45-1.05-9.55-3.15-32.4-2.2-24.3-6.05-36.05-1.15-3.4-2.8-6.7l-1.8-4.15q-.45-1.6 2.05-6.9 2.5-5.2 5.05-8.2 1.45-1.8 2.2-1.8l1.55.9q1.55 1.05 5.25 5.3"/><path fill="#dbd2a9" d="M196.8 145.65l-7.55-36.95 1.1.8q1.55 1.05 5.25 5.3 4.2 4.8 3.9 6.25-.3 1.55.15 8.65l1.6 21.35q.85 10.25-.8 32.1.05-16.3-3.65-37.5"/><path fill="#60615f" d="M260.1 33.5q-.75-2.55-.1-2.55.7-.05 2 2.15 4.35 7.25 7.2 12.9 4.2 8.25 8.6 19.3 8 20.15 4.6 31.9-.95 3.4-3.75 8.25-2.7 4.8-3.4 7.2l-1.1-5.55-2-5.6q-.6-10.95-3.95-31-3.85-22.75-8.1-37"/><path fill="#4a4b4a" d="M277.8 65.3q8.05 20.25 4.7 32-1.05 3.55-3.8 8.25-2.85 4.85-3.55 7l-.9-4.95-2.1-6.1L271 89.95q2.45 6.3 4.35 8.95 2.9-11.55.85-26.4-1.75-12.35-6.7-25.9 4.05 7.95 8.3 18.7"/><path fill="#60615f" d="M251.6 68.9q11.8 14.95 18.7 29.3 6.45 13.35 4.7 17.25-1.6-1.8-5.45-4.9l-7.65-6.15q-10.75-9.2-18.2-20.25-10.25-12.6-15.3-31.55-3.8-14.15-3.55-25.2 6 11.95 11.65 20.75 5.7 8.75 15.1 20.75"/><path fill="#4a4b4a" d="M260.05 87.4l-14.6-18.7Q228 45.85 224.9 26.8q4.85 11.05 11.35 21.05 5.5 8.5 15.35 21.05 11 14 17.75 26.85 6.45 12.4 6 18l-2.25-6.25q-4.65-9-13.05-20.1"/><path fill="#60615f" d="M213.5 29.95q-2.3 12.45-6 21.1-3.7 8.55-13.85 22-9.25 12.1-9.7 14.45l-.05-5-.85-6.1q0-5.25 5.3-18.65 5.8-14.6 11.8-22.05 5.7-7 9.75-15.4 2.45-5.15 4.95-12.5 1.1 8.7-1.35 22.15"/><path fill="#4a4b4a" d="M202.7 42.3q8.45-17.95 12.85-33.8.05 9.5-2.45 22.6-2.45 12.65-5.6 19.95-3.95 9.2-13.6 21.8l-10 13.3V81.4l-.9-4.75q0-1.6 1.9-8.45.65 4 .65 6.75Q196.5 55.5 202.7 42.3"/><path fill="#60615f" d="M183.05 88.05q-1.3-2.05-4.4-5.25l-6.05-6.3q-8.5-9.4-14-21.45-15.7-27.7-12.35-53.65 4.6 13 7.9 19.85 4.25 8.8 12.25 20.7 9.85 14.7 14.7 28.65 4.65 13.35 1.95 17.45"/><path fill="#4a4b4a" d="M178.75 64.55q4.55 10.7 5.3 17.8-2.7-9-8.55-19.55-2.25-4-11.1-18.25-6.9-11.1-10.25-18.3-4.75-10.3-6-19.8 2.75 9.1 6.95 17.15 3.7 7.1 11.3 18.35 7.45 11.15 12.35 22.6"/><path fill="#0d131a" d="M227.8 301.8l1.15-1.45q5.55 17.3 13.8 27.75 6.4 8.1 13.05 10.75 9.25 3.65 19.65-1.9l1.8 1.3q-5.7 3.05-11.2 3.8-5.8.8-10.6-1.1-8.25-3.3-15.25-13.25-7.05-9.9-12.4-25.9"/><path fill="#0d131a" d="M234.9 292.9l1.55-.8q10.7 21.5 22.45 33 11.7 11.45 24.25 12.6 12.65 1.2 15.9-3.05 1-1.35.95-3.15l-.3-1.6 1.6-.65.4 2.15q.15 2.45-1.25 4.25-1.95 2.6-6.4 3.75l-11.3.55q-25.65-2.45-47.85-47.05"/><path fill="#0d131a" d="M245.2 273l.65-1.6q55.25 21.65 69.75 40.85 5.8 7.75 2 13.2-3 4.2-11.75 5.15-8.35.9-16.1-1.65-8.6-2.9-26.1-20.55-8.65-8.75-22.45-24.55l1.3-1.15q34.45 39.35 47.55 43.75 7.2 2.4 14.9 1.9 8.1-.55 10.7-4.1 2.8-3.9-2.5-10.95-14.55-19.35-67.95-40.3m-58.75 137.75l-.1-1.6q1.45.95 2.9 2.6 1.45 1.7 2.3 3.45.5 1.3.05 1.8-.4.45-1.3.25-2.95-.8-4.55-.6l.2-.65q.2-.7.4-.65l2.5.65 1.8.3q.3-.3-1.35-2.5-1.65-2.25-2.85-3.05m34.5-2.25l.7 1.1q-1.65 1-3 2.85-1.25 1.75-.95 2.25l1.65-.2 2.65-.45q.35.05.6 1.45-1.45-.4-4.1.35-4 1.1-1.15-3.7 1.05-1.75 3.6-3.65m-62.55-1.25q1.85-1.45 2.1-.95.25.45-1.4 2.15l-5.75 5.4q-4.25 3.85-6.5 5.35l-8.8 4.5q-6.65 3.3-7.7 4.7-1.15 1.65-1.25 3.5l-1.65 1.65-.1-1.3-.05-2.25q.1-1.15.8-2.1 1.65-2.25 9.65-6.2l-7.5 1.8q-4.3 1.4-5.95-1.5l2.1-.7q1.9 1 3.3.55 3-1 15.45-3.5 1.3-.5 6.55-5.15l6.7-5.95m30.85-90.65q0-.45.95-.65l.9-.05q1.05 7.95-7.35 33.35-3.15 9.55-14.15 39.1l-3.75 10.25q-1.3 3.35-3.1 4.2-1.75.9.75-2.65-3.05 3.05-14.95 6.7-9.6 2.95-14.7 3.65l-3.5.1-5.15.6q-1.95.85-2.2 3.45v.4l-1.75.9v-1.45q.35-3.8 2.95-5.1 1.65-.85 5.35-.85l3.7-.05 3.55-.2q4.85-.7 13.3-3.55 10.3-3.55 14.2-6.95l3.7-10.05q8.95-24.1 13.25-37.45 8-24.65 8-33.7"/><path fill="#0d131a" d="M201.2 323.85q0 4.1-1.1 6.9-3.75 9.2-9.35 28.75-7.8 27.2-7.8 40 0 3.3.6 5.7l.25.3 2.8 3.6q1.65 2.6 1.65 4.5l-.15 1.2q-.65 1.85-3.2 2.7.6 2.8 5.7 9.2l2 2.05q1.2 1.05 1.5 1.65.9 1.65.9 3.4 0 1.6-.95 3.4-.95 1.8-2.55 3.15l-.05-2.45q2.4-2.9.7-6.1l-2.95-4.05q-2.1-2.65-5.55-8.5-3.4-5.85-3.75-7.35-.3-1.55.1-1.95.35-.4.8 1.15.55 2.05 2.9 4.95 2.3-.5 2.75-1.8.5-1.45-.95-3.8l-2.5-3.2q.3 3.4-.3 2.5l-.9-2.6-.45-1.95q-2.8-10.15 5.95-41.05 5.65-20.2 11.15-34 1.05-2.6.8-7.5l-.75-7.05q-.15-1.15.95-.3 1.1.85 1.2 1.6l.55 6.95m-34.25 91.8q.6-.3 2.45 2.85 3.15 5.3 3.55 11 .45 5.25 1.85 8.2 1.3 2.6 4.4 3.4l5.35.25 1.45 1.8-7 .25q-4.45-1.2-5.75-4-.9-1.85-1.3-4.85l-.45-4.95-.6-5q-.6-2.65-2-4.55-4.05.05-12.5 6.8-7.4 5.85-10.75 10.35-2.95 3.95-10.15 3.95-2.65 0-4.5-1.2l1.65-1.05 2.85.5q2.65 0 5.2-1.15 2.55-1.2 3.95-3.05 3.1-4.1 11.25-10.15 8.9-6.65 12.4-6.3-.85-1.35-1.2-2.3-.25-.7-.15-.8"/><path fill="#0d131a" d="M125.8 436.65q-3.8 5.6-2.75 6.15.15.2 5.9-2.6l7-3.45q-.25-2.45-1.5-4.1-1.25-1.6-2.85-1.6-2-.05-5.8 5.6m-.35 6.6q-2.9 1.45-3.6.5-.55-.8.55-3.25 1.45-3.3 3.8-6.45 2.35-3.25 3.95-3.95 2.15-.95 4.15.55 2.15 1.55 2.85 5.2.2 1.05 0 1.5l-1.1.85q-4.05 2.15-10.6 5.05m2.3-23.35l-1.15-3.95q-.7-1.65-1.2-1.6-3.55.5-7.6 5.35-3.8 4.5-3.1 5.15l5.9-2.15 7.15-2.8m1.25-.45q.15.75-.1 1.15l-.85.65q-7.25 2.5-10.8 3.9-3.3 1.3-3.9.45-.55-.8 1.1-3.5 2.45-4 5.55-6.55 2.6-2.2 4.55-2.55 1.8-.35 3.05 2.15.9 1.7 1.4 4.3m61.75 19.95q-.75-6.75-2.65-7.1-2-.4-3.75 1.4-1.85 1.9-1.85 4.55 0 .5 3.8 4.35 3.85 3.85 4.3 3.7.9-.35.15-6.9m-9.85-1.05q-.15-.55.3-2.2.7-2.4 2.8-4 2.15-1.6 4.4-1.15.9.25 1.7 1.45 1.4 2.2 2 5.9.65 4.25-.25 8.45-.3 1.35-.75 1.45-.45.05-1.45-.85l-3.55-3.4-4.35-4.35q-.8-.85-.85-1.3m82.2 5.15l1 1.55-5.4.25q-4.05-.6-5.65-3.65-3.9-7.35-7.85-12.75-4.35-6-6.35-6.2-9 3.9-15.95 14.1-2.1 3.15-5 3.45-2.1.3-4.6-1.1l2.35-.85 2.05.25q2.05-.25 3.75-2.75 3.85-5.55 7.6-9 3.95-3.55 8.65-5.55l-1.3-2.05q-.45-1.05 2.25.9 4.55 3.35 9.35 9.8 4.45 5.95 6.55 10.95 1 2.3 4.45 2.75l4.1-.1m-49.55-130.95l-.45 4.8-.9 5.8q-.4 2.6-.45 3.75-.1 1.85.25 3.6l3.25 10.85 10.6 34.45q6 20.8 6.8 32 .05 1.3-.4 1.4-.55.05-2.6-7.1-4.5 3.4-6.15 5.9-2.45 3.6-.35 6.65l3.5-3.85q.85-.95.95-.55.15.35-1.2 2.75-1.45 2.55-2.6 3.65-3.55 3.35-9 7.15-4.05 2.95-4.7 3.75-2.15 2.8-.6 5.75l-1.2 1.6q-1.65-1.85-1.9-4-.2-2.25 1.25-4.2.55-.7 2.6-2l3.55-2.3q6-4.25 8-6.85-1.7-2.7-1.7-4.45 0-2.4 2.05-4.8l3.05-2.9 3.85-3.7q-1.6-12.5-15.45-57.85-2.8-9-3.25-11-.4-1.55-.4-3.2 0-1.55.55-4.75l.5-3.1.2-4.75 2.35-2.5m38.9 103.75l7.1 1.9q7.9 2.95 13.7 8.8.4.4 1.45.45l2.45-.5 1.75-.9 1.15.2q.95.3.75.5-1.35 1.2-3.05 1.85l-3.3.55q-1.6-.1-2.4-.95-7.3-7.3-17.8-9.8 4.7 6.25 13.6 11.05 3.45 1.9 4 5.85.2 1.55-.3 3.4-.55 2.1-1.75 3.4l-.6-2.15q.9-1.95.55-4.25-.5-3.5-2.75-4.7-8.2-4.45-12.05-8.35-3.4-3.5-5.25-8.75-.8-2.3-.2-2.45.5-.2 1.1.95l1.85 3.9m-30.2-105.55l1.45 1.8q-.25.95-.2 2.5l.1 3.05q0 13.6 8.5 41.25 7.6 24.85 15.7 41.55 6 3.7 13.35 7.05 6.4 3 10 4.05l2.45.6 6.3 1.55q3.4 1.4 3.75 4.95-1-.95-2.45-1.15-.9-1.35-3.1-2.25-1.7-.7-4.9-1.4l-2.55-.65q-3.55-1.05-9.45-3.8-6.75-3.2-13.2-7.15l2.05 3.7q.55 1.05-.65.1-1.25-.95-2.35-2.65-8.3-13.35-17.85-46.9-10.15-35.55-6.95-46.2"/><path fill="#0d131a" d="M259.3 441.45l-.55-.65q-.45-.8.1-1.85 2.2-4 5.6-5 1.1-.35 2.25.3 1.1.6 1.75 1.9.95 1.95 1.4 3.65.75 3 .8 7.1.05 2.25-.6 2.55-.65.3-2.25-1.15l-5.15-4.3-3.35-2.55m1.95-3.45q-1.15 1.45-1.15 2.35 0 .35 4.6 4.2 4.55 3.85 4.8 3.75.7-.15-.25-5.35-1-5.45-2.85-6.95-.9-.7-1.55-.5-2.15.6-3.6 2.5m26.05-9.95q.6-.6-2.5-4.95-3.15-4.4-4.65-4.55-1.1-.1-1.85.6-.95.85-1.5 2.8-.5 1.8-.25 2.5.15.35 5.3 2.1l5.45 1.5m-3.15-8.4q2.15 2.3 4.3 6.5 1.5 3 .9 3.55-.5.5-3.45-.75-2.25-.9-5.7-1.95l-4.2-1.1q-1.15-.1-.65-3.2.5-3.1 2.1-4.55 1.2-1.1 2.85-.9 1.75.15 3.85 2.4m-77.9 23.55q.2.15 4.85-2.85 4.95-3.1 5.85-3.3-.85-2.9-2.5-4.2-1.15-.85-2.4-.8-2.8.1-4.8 5.5-1.95 5.2-1 5.65m6.55-13.1q1.85.3 3.45 2.35 1.15 1.55 1.85 3.55.45 1.3.15 1.9l-.4.35-2.9 1.2q-3.3 1.5-5.6 3.1-2.95 2.1-3.65 1.9-.8-.25-.5-3.35.3-3.05 1.4-5.7.8-2 1.65-2.9 1.1-1.3 1.9-1.85 1.2-.75 2.65-.55m-48.65-145.8l2.9 2.15q4.7 14.05 17.85 21.2 5.45 2.95 5.45 6.55l-.3 2.05q1.8-1.5 2.4-2.9l.75-.9q.5-.3.65.3l.6 2.35q.5 1.8.85 2.25.4-.35 1.5-3.55.95-2.95 1.45-2.85.5.1.95 2l.65 2.1q.45-5.7 1.55-10.45.85-3.7 1.8-5.7.15-.45-3.55-1.65-3.75-1.2-3.85-1.5l2.5-.1q2.75.5 5.65 1.7 3.1 1.25 4 2.4 1 1.35 1.5 5.1l1.65 9.85 2-4.5.55-1.15q.35 0 1.2 2.05l1 2.45.5.9 1.7-2.8q.3-.6.75-.25l.5.5 1.8-5.2q.35-1.35.6-1.4.3-.05.7 1.4l.7 2.7.8 2.65q1.4-8.1 3.35-11.1l3.55-4q1.85-1.9 3.9-5.3l2.85-4.75 2.65.6q-1.05 2.55-3.4 5.4l-4.75 5.25-3.35 3.8q-.95 1.4-1.9 4.5-.85 2.9-1.3 5.75-.55 3.4-1.2 3.55-.65.15-1.7-2.7l-.85-2.35-.8 3.5-.85 2.85q-.4.1-.85-3.4-.35.1-1.65 1.95-.7 1.55-1.2 1.55-.6-.05-1.5-1.8l-1.05-1.7-1.25 2.05q-1.4 2.5-2.15 2.35-.7-.15-1.15-2.75l-1.5-8.45q-1.35-6.2-2.7-6.7-1.2 2.7-2.3 7.8-1.1 5.2-1.2 8.95-.1 3.25-1.5 2.35-1.1-.75-1.65-2.35l-.5-1.45-.95 1.85q-1.2 2.1-2 2.2-.8.1-1.5-1.75l-.75-1.4-1.1.95q-2.05 1.8-2.85 1.65-1-.25-.45-3.35.3-1.85-.4-3.15-1-1.75-3.9-3.3-7.8-4.15-11.4-8.05-5.45-5.9-8.5-16.8m35.55-88.6v-1.75l4.45.5 5.25.4q1.25-.4 2.15-1.7 1.05-1.55 1.3-1.55.3-.05.95 1.65.7 2.05 1.65 3.25l.95-3.1.85-4q.25-1.7.45-1.8.25-.05 1.1 1.45 2 3.5 3.7 7.85l4.6 1.7-1.05 1.25-3.35-1.35q.65 3.1-.6.55l-1.6-3.4-1.95-3.75-.95 3.75-1.45 2.7q-.85 1.2-1.25.85l-.6-1.15q-.75-1.1-1.7-4.15l-1.35 1.45-1.7 1.55q-2.45 2.55-3.35 2.1-.9-.4 1.65-2.55l-4.3-.45-3.85-.3m-15.3 0l.15 2.2q-2.85.9-7 3.15-4.45 2.4-5.55 3.85l1.1 1.05q.7 1-1.1.55l-5.95-1.7 1.25 2.25q.75 1.45.9 2.25.15.8-2.95-.4l-4.7-1.85.75 1.8q.5 1.35.8 3.2.25 1.7-.3 1.05l-.95-.75-2.05 3-1.55-1.2 2-2.6.4-.85q0-.55-.8-2.15l-1.1-2.5-.6-1.85q.05-.65 1.9.4 3.2 1.8 6.1 2.6l-2.3-4.8q-.85-1.75-.7-2.05l1.05.3 2.7 1.75q2.15 1.25 4.05 1.6 1.75-1.85 6.85-4.75 4.85-2.7 7.6-3.55"/><path fill="#0d131a" d="M140.95 247.15q0-.55 2.35-2.3 2.4-1.7 3.2-3.75.2-5.9 2.55-12.35l1.45 3.25q-1.3 3.95-1.55 6.95l-.55 2.95q-.45 1.05-1.5 2l-3.3 2.8q3.25.7 5.2 2.85l1.45-1q1.4-.9 1.2-.1-.15.8-3.65 3.8l-5.2 4.4 5.65.65 4.15.6q.2.45-.8 4.3-1.05 4.25-2.3 5.75l3.05-.7 1.15-.8q1.05-.5.6.95l-2.3 7.15 2.45-1.8q1.4-1.05 1.55-.65l6.45 13.2.25-1.6.05-1.15-.8-2.3q-.5-1.9.95-.05 4.5 5.85 4.85 5.7.25-.9.1-2.7l-.1-2.35q.2-.65 1.7 1.75 1.4 2.3 3.3 4.65l3.1 3.8q-.05-1.3-.7-3.8l-.6-2.25q-.65-1.55-.65-2.2-.05-1.25 3.25 3.35 2.65 3.7 4.9 4l-5.5-20.15q-1.55-5.4-.35-5.3 1.1.05 3.95 4.45 6.25 9.4 8.55 15.15l1.1-2.4q.7-1.35 1.5-1.25 1.6.2 2.85 7.8 1.5-.9 2.3-2.15l1.25-2 .9-1.05.55 2.2q.45 2.4 1.2 4.7 2.2-4.1 3.9-4.1.85-.05 1.75 1.2l1.55 2.7.85-1.85q.5-1.25.95-1.35l.75.75.75.8q.4-3.7 3.25-18.25.85-4.3 1.7-4.35.85-.05 1.5 4.3l1.3 7.75q.8 4.7.8 7.1l-.05 1.1 1.2-1.2 1.15-1.05q.55-.4 1.05-.15t.5 2.55q0 1.05.35 3.15l4.25-3.75q.6-.5 1.05 1.5l.65 3q5.75-4.65 6.55-4.95l1.15-.25q1.4.15 3.85 1.8v-5.05q0-.5.65-.65 2.85-.65 3.4-1.1.45-.35-1.45-3.55l-.2-.55.25-.6q2.5-5.2 2.65-6.35l-.85-1.65q-.4-1 1.85 0l2.45 1.35q1.1.7 1.25.6l-.4-2.85q-.6-2.85-.25-3.2l2.4-.55 2.1-.45q.1-.2-.55-1.5l-1.1-2.15q-.55-1.75-.35-2l1.6-.25q2.75-.05 3.1-.5 0-.75-2.6-3.05l-1.1-.15q-.7-.3 1.15-1.2 2-.95 3.6-4 1.45-2.8 1.05-3.05-.05-.05-2.5 1.15-2.45 1.15-3.3.65-.65-.35-.7-3.2l.1-3.15q0-5.75-1-9.95l-1.05-3.05-1.15.75q-.95.45-.15-1.2l1.7-4.15q.7-2.15.5-2.25l-1.8.9q-1.75.95-2.15.7-.45-.25.5-2.7l.95-2.4-2.05.85q-1.95.8-2.15.3-.05-.15 1.25-3.25l1.2-3.25-1.2.3-1.85.4q-3.1 0-6.4-3.95l-.4-.45q.55-1.05.85-.7l2.35 2.35q1.45 1.2 2.45 1.45l3-.2 2.2-.25q.2.25-1.1 3.5l-1.25 3.3q.45 0 2.3-1 2.5-1.4 1.4 1.7l-1 2.75 2.5-1.4q.95-.55 1.15-.35.25.25.15 1.9-.2 2.8-.75 4.75.9 1.75 1.6 4.5 1.15 4.65 1.15 10.05l-.05 2.2q0 1.9.3 2.05.65.4 3.2-.5l2.5-.8q-.4 6.25-4.15 9.45.8.75 1.7 2.4.8 1.55.7 1.8-.2.5-2 1l-2.7.35 1.8 3.1q1.25 2 1.2 2.4-.1.45-2.55.7l-3 .35q.9 6.65.45 6.9-.55.3-2.4-.75-1.55-.8-2.05-.9-.35 1.75-2.9 6.8l1.4 2.3q1.1 1.95 1.1 2.45 0 .45-2.05.9l-2.8.6.3 7.3-.1.95q-.35.75-1.45-.35l-2.85-2.3q-1.6-1.1-2.15-1.2-1.7 1-6.55 5.8l-1.6 1.8q-.5.45-.7-.45l-.2-2.8q-.1-1.9-.4-2.65-1.85 1.7-3.2 3.4-.9 1.2-1.4.35l-.3-1.1q-.65-2.7-.65-4.9l-1.4 1.35q-1.7 1.45-2.2 1.1-.45-.35-.5-2.55-.05-3.25-.65-8.65l-1.15-8q-1.45 5.65-2 12.8l-.65 9.75q-.3 3.2-.9 2.2l-.55-1.6-.55-1.35q-.55-1.3-.9-1.2-.4.1-.95 1.1l-1.25 2.3q-.65 1.1-.8.6l-.5-2q-.4-1.15-1.3-2.3l-1.2-1.05q-.8.05-1.7 1.35-.9 1.2-1.4 2.8l-.8 1.9q-.3.3-.75-.85l-.85-3-.75-3.1-3.65 4.35q-.7.8-.95.4l-.6-2.65q-1.1-5.55-1.55-6.3-.45.45-1 1.8l-1 2.25q-.4.9-.65.75l-.8-1.75-4-7.95q-3.65-6.9-6.05-10.55 1.4 4.3 3.8 12.75l2.4 8.9q0 2.05-.8 2.5-.85.45-3.1-1.65l-3.45-3.5.4 2.2.1 1.2q.2 2.2-.4 2.4-.55.2-2.1-1.4-2.3-2.4-4.85-5.75l.1 1.8q.15 1.35-.25 1.5-.85.4-2.75-1.05l-2.6-2.3-.4 3.2q-.35 2.35-1.25 1.9-.9-.45-3.85-7.85l-3.3-8.4-3.25 2.4q-2.5 1.75-2.8 1.3-.35-.5.8-4l1.55-4.95-4 .35q-1.45-.1-1.45-.4l.8-1.05q1.25-1.1 2.45-4.9 1.25-3.85.35-4.25l-2.85-.15-5-.45q-2.45-.4-2.25-1l1.8-1.5q5.75-4.45 5.85-5.35l-1.3-.95q-1.25-.65-2.5-1.1-2.35-.9-2.35-1.45m10.2-206.55l.6 1.6q-7.5 4.45-16.25 10.65-12.05 8.6-21.7 22.55-9.1 13.1-10.9 23l-1.7-.35q2.05-11.15 10.05-23.2Q120 61.7 132.65 52.7q9.15-6.6 18.5-12.1m16.25-7l-4.9 2.75-1.1-1.4 3.65-1.7q4.7-1.9 5.1-1.8.95.2-3.45 4.9l-2.1 2.45-1.15-1.3 3.95-3.9m-13.7 13.3l.7 1.65q-11.55 10.95-16 15.65-7.75 8.25-9.85 13.2l-3.4 1.95q2.25-5.3 11.05-14.85 6.2-6.8 17.5-17.6m24.25-7.75q3.9-4.35 4.65-3.55.7.75-2.1 5.85-3.65 6.75-7.15 11.9l-.8-1.7q3.8-5.85 7-12L171 49l-.25-.6-.45-.8 7.65-8.45"/><path fill="#0d131a" d="M163.25 64.4l.95 1.65q-5.4 7-10.5 12.45-5.45 5.75-9 8.2-6.85 5-13.55 7.45-5.65 2-15.35 3.6-3.05-.55-6.6.45-4.5 1.25-6.6 1.35.55-5.45 9.2-12.4 9-7.3 28.35-17.4 10.5-5.5 18.9-12.2l.95 1.5q-8.65 6.75-19.05 12.25-18.55 9.7-27.6 16.4-9.05 6.75-9.8 11.45 2.65-1.05 9.15-2.1 9-1.55 14.15-3.2Q136 90.9 143.7 85.3q3.55-2.45 9-8.35 5.1-5.5 10.55-12.55m-54.2 105.65l3.25.45q1.1 1.8 1.75 4.1l1.2 4.2q2.05 6.15 3.4 9.35 2.3 5.4 5.15 9.5 6 8.6 12.55 15.8 3.75 4.1 8.9 8.85l2.45 2.35q2.05-.1 8.05 1.6l-1.9-3.1q-1.15-1.95-.9-2.2l2.2.3 3 .85-1.45-2-1.45-1.5L154 217q-.3-.8.95-.3l2.5.5 2.1-.05q-14.75-7.85-26-26-4.1-6.55-6.7-12.95-2.3-5.5-2.3-7.6l2.55 1.15q0 1.95 2.4 7.3 2.75 6.1 6.95 12.55 11.35 17.55 25.2 25.5l3.7 1.85-1.3.25-5.75-.4 2 3.3q1.3 2.15 1.25 2.55l-2.1-.2-3.25-1 2.7 4.6q.65 1.15.4 1.15l-2.1-.65q-8.15-2.45-9.65-2.15l-3.5-2.85q-13.4-12.65-22.9-26.25-2.6-3.75-7.15-15.15l-4.95-12.1"/><path fill="#0d131a" d="M146.6 226q-1.35-2.1-.05-1.7.65.2 1.55.85l1.95 3.7q1.9 4 2.3 6.55.75 2.35-.05 2.55-.75.25-1.55-2.25-1.9-6.4-4.15-9.7m9.7-10.85q-1.8-1.25-1.55-1.85l2.1.05 5.4.75q3.2.15 4.85-.05l3-.1q1.3.2-1.6.9-9.25 2.35-12.2.3m17.55-76.3l1.45-1.1q1.45 3.15 5.85 27.7 4.6 26 4.6 34.65v.4h.15q.7-.2 1.65-1.3.95-1.2 1.1-2.1.2-1.5.55-2 .5-.8 1.15 1.2 1.05 3.05 3.05 6.55l-.9 2.45-3.1-6q-1.5 2.45-3.1 2.9l-1.45-.3-.9-.45q-1.1-10.45-2.95-23.5-3.65-26.05-7.15-39.1"/><path fill="#0d131a" d="M178.8 207.35l3.15-4.9 2.1-3.65.7-.8q.65-.4.45 1.45-.25 2.35-1.95 4.95-1.8 2.7-4.05 3.95-2.05 1.1-1.9.8l1.5-1.8m20.3-11.3q.35-.95 1.05.5.85 1.75 3.75 5.7 3 4.15 4.15 5.05 1.2.9 1 1.05-.25.15-1.45-.6-1.4-.9-4.7-4.35-3.6-3.7-3.8-4.9-.25-1.55 0-2.45m33.3-10.5q7.45-16.55 8.35-20.9l2.2.75q-.45 3.15-8.35 19.9-8.5 18.1-12.2 21.35l.15 2.35v1.2l2.25-1.7q2.05-1.65 3-2.9 1.05-1.35 1.2-1.05.15.25-.3 2.1l-1.45 5.85 3.45-3.25q1.3-1.15 1.4-1.15.2.05-.1 1.7-.3 1.55-.3 3.25-.05 1.55.15 1.7.8-.1 2.8-3l9.1-19.15q8.8-18.35 10.15-22.25l3.2-1.3q-1.35 3.95-11.05 23.3l-10 20-.1.2q-3.1 4.55-4.95 4-.75-.25-1-1.5l-.2-2.65-2.05 1.6-1.35.05q-.7-.35-.7-1.5l.4-3.35-3.05 2.7q-1.1.8-1.65.55-.55-.2-.45-3.5l.25-3.25q3.15-2.25 11.2-20.15"/><path fill="#0d131a" d="M235.8 211l1.5-1.9q1 4.75 1.5 9.25.25 2.2-.3 1.6-.55-.55-.75-1.85l-.8-3.05-1.15-4.05m-20.5-2.9q2.2-.85 6.8-4.15 1.7-1.25 2.15-1 .45.3-.7 1.95-.95 1.4-2.75 2.2l-3.2 1.15-2.55.45q-1.05-.1.25-.6M97.85 93.75q-1.2 1.3-2.45 3.65-1.4 2.65-2 5-.55 2.15-1.1 2l-.4-.55q-1.7-2.45-3.2-3.5l.65 3.95.9.75q.6.65-1 .35-2.4-.5-4.45.05 1.95.85 1.8 2.1-.1.6-2.3 1.75l-3.85 1.55 2.4 1 1.55-.35q1.1-.05-1.35 1.75-2.55 1.9-4.7 7.4-1.7 4.3-2 6.95l-2.4.55q.25-2.25 2.25-6.95 2.4-5.6 5.05-8.5l-.9-.25q-2.5-.75-2.45-1.35.1-.6 3-1.65 3.75-1.45 4.2-2 .45-.55-1.35-1.4-1.2-.6-1.1-.95.05-.3 1.4-.65l3.7-.45-1-4.05q-.75-3-.4-3.4.35-.4 2.7 1.55l3.2 2.65q1.1-4.05 4.85-8.25 1.8-2.2 2-2.05l.15 2.95q0 2.45 1.3 3.75 1.35 1.35 5.3.45 6.1-1.35 13.35-.15 8.45 1.45 14.3 6.05l3.75-.95 2.35-.15q.4.3-.2 1.95-.8 2.3-2.55 4.9l2.35-.6q1.9-.7 3.3-1.65 1.3-.9 1.4-.5v1.7q.2 1.7-2.2 5.2 1.3 2.25 2.3 5.25 1.65 4.8 1.8 9.65l3.35-.2 2.25.1q.2.5-1.2 2.45-1.3 1.85-4.55 4.75l3.9-.1q.4.5-1.05 2.2l-2.85 3.3-1.75 6.6q-1.55 4.95-3.25 7.9l3.1 2.45q2.9 1.35 2.8 1.75l-3.1.85-7.05.9 1.3 3q.95 1.9.7 2.35-.3.5-2.3.45-1.8-.05-4.1-.7-2.3-.6-3.35-1.3l1.2 6.25.35 1.7q0 .25-.5.2-.9-.15-4.85-2.1-4.5-2.25-6.55-3.9l.15 4.25q.15 1.6-.35 1.95l-1.95-.35-3.45-1.4q-7.1 1-14.9-3.35l.35 2.6q.2 2.4-.35 2.5-.5.1-1.9-1.75l-3.3-5-1.45 2.3q-1.8 3.35-2.5 2.95-.6-.25-.75-3.35-.3-5.95-3.1-8.05l1.15-1.8q2.15 1.55 2.85 5.05.4 1.75.55 6.2l1.8-3.6q1-2.05 1.35-2.3.35-.25 2 2.5l2.5 4.15-.45-3.45q-.6-2.8.6-1.95l1.35 1.35 4.4 2.1q5.35 1.85 10.05 1l1.85 1.05 2.6 1.35q-.6-2.4-.2-6-1.55-2.45-.05-1.5l2.2 1.75q5.1 3.4 9.2 5-1-3.35-1.1-6.85-1.05-1.3-.7-1.35l2.4.9q1.8.75 3.8 1l3.35.2q-1.95-3.9-2.25-5.4-.25-1.1.5-.65l.75.65 2.95-.3 4.9-.6q-1.4-.6-3.65-2.85-.6-.6-.15-1.55 3.4-8.25 4.6-14.15l3.55-3.8q.9-.9-2.65-.2-1.55.8-1.55.25-.05-.55 1.5-1.9 2.5-2.25 4.7-5.5l-5.4.75q-1.3.25-.8-.25l.8-.6q0-5.45-1.9-10.75l-1.9-4.25-1.05.45q-.8.1.3-1.4l1.3-1.7q.8-1.15 1-2.2l-4.75.9-1.35-.25q-.25-.4.5-1.85 1.9-3.9 1.7-4.3l-2.25.35-4.95 1.05q-2.4.4-1.25-.25.55-.35 1.6-.75-5.45-4.4-12.85-5.45l-12 .5-3.9.7q-1.55.05-2.45-.85-.8-.8-1.4-2.25-.65-1.55-.65-3v-.15"/><path fill="#0d131a" d="M86.35 124.85q.4-3.05 1.6-5.35.6-1.2 1.2-.8.55.4 0 1.55l-1.65 3.9-.95 1.85q-.45.4-.2-1.15m7.45 3.75q2.95-1.2 7.45-3.8 5.25-3.1 7.6-5.4 1.2-1.15 1.45-.9.25.25-.95 1.6-1.9 2.1-5.3 4.35-4.6 2.95-10.05 4.75-2.15.75-1.9.35.25-.35 1.7-.95"/><path fill="#0d131a" d="M104.4 113.85l.8-1.05q2.1 1.6 3.2 7.45.1.45-.35.85-.5.4-.65-.15-1.25-5.8-3-7.1M75.7 145.9q-1.1.55-2.55 2.05-6.45-.6-14.4-3.85l-14.4-6.4q-8.9-3.9-17.3-6.65-10.25-3.4-16.7-4.1l4-1q6.45.65 15.1 3.75 5.15 1.85 15.6 6.4 9.95 4.3 16 6.35 8.65 3 14.65 3.45m-8.4 33.8q1.6-12.2 4.25-20.85l2.55-2.45q-4.8 12.85-5.9 37.7l-2.55 5q.35-9.7 1.65-19.4"/><path fill="#0d131a" d="M79.55 142l1.4.25q-3.75 1.7-10.85 11.2-6.8 9.1-6.8 11.5l.05.1q.95-.2 5.9-5.15 7.1-7.2 9.6-8.3l-.35 2.65q-2.35 1.05-8.55 7.15l-5.35 5.25q-2.55 2.1-3.3 1.15-2.05-2.45 5.55-13.2 7.55-10.75 12.7-12.6"/><path fill="#0d131a" d="M72.5 189.2l6.95-16.95 4.9-14.05q2.25-6 6.05-9.45l-1.9-5.1-2.7-.25q-1.5.9-3.05 3.05-2.2 3.1-3.5 7.75l-3.05 11.25-10.7 38.4q2.95-5.15 7-14.65m2-24.2l3.1-11.3q1.7-6.05 5-9.45l3.15-2.25 2.95.7q1.15 1.15 2.75 8L88.3 155q-3.8 6.55-7.25 17.9-5 16.45-11.8 28.75-2.85 5.1-4.55 5.15-1.75 0 .1-6.4l9.7-35.4"/><path fill="#0d131a" d="M51.3 134.15q14.4 4.65 24.2 6.45 7.6 1.35 11.1.85-1.1-6.5-1.8-9.1-1.2-4.45-3.2-5.25-1.2-.5-3.5.7l-10.45-.4-21.4-4.45-16.75-3.45q-6.65-1.05-14.6 1.45-6.95 2.15-11.65 5.75 8.2-2.4 20.9-.05 9.2 1.7 27.15 7.5m-4.7-12.85l19 4.15q10.3 2 11.9 1.2 2.4-1.3 3.95-1.15 2.65.25 4.25 4.05.7 1.75 1.65 6.55.9 4.8 1.65 6.65 3.75 9.1 3 10-.75.85-4.8-9.5-5.65.95-13.5-.75-6.45-1.4-22.95-6.7-15.55-5-25.15-6.8-11.35-2.1-19.8-.95-11.25 1.55-.5-5.1 5.75-3.55 12-5.1 5.85-1.45 10.2-.75l19.1 4.2m202.5-29.35l1.25 1.55-4.3.85-2.6.65-6.6-1.45 1.4 1.95 1.45 2.35q.7 1.3.15 1.35l-.9-.15q-3.8 1.05-7.5-1.15.65 1.75 1.95 2.7 1.75 1.3 1.4 1.7l-2.05-.15-5.25.7q-.8.15-.6.55l.85 1.6q1.05 2.15.7 2.2-.3.05-1.1-.9-2.85 3.05-4.95 8.6-.65 1.75-1.05 1.05l-.35-1.05q-.65.35-1.55 4.5l-.7-.4-.55-.7q.9-3.55 1.95-5.2.85-1.35 1.2-.65l.35.95q.95-2.35 2.2-4.45 1.45-2.4 2.85-3.5l-.8-1.4-.7-1.8q.1-.45 2.85-.8l3.75-.45q-1.2-1.2-1.7-3.85-.2-1.1.05-1.25.3-.15 1.45.5l3.5 1.2 2.45.3q-1.75-3.2-3.2-4.85-1.05-1.2-.65-1.4l2.1.1 2.85.5q1.35.35 3.55 1.25l6.85-1.55m-30.45 32.35l-.1 1.85-1.3-2.35.4-3.05h1.55l-.55 3.55m-1.45 3.55q.95 0 1.4.4.15 3.4.75 7.5.65 4 1.35 6.4l1.6.3q1.1.4-1.3.95l-2.85.2-1.65.2q0 .25 2.15 1.1 2.2.85 3.2.9.4-.15.75-.35.6-.1.05 1.35-.6 1.5-1.55 2.55l-1.95 1.8 3.85.75 3.6.05q.85-.15 1.1.2.4.55-.35 3.05-.85 2.75-2.25 4.25l1.85.4 4.4-.7 1.7-.4q1.25-.1 1.85.75.4.65.4 1.35 0 1.35-1 3.15.8.05 2.05-.5 1.35-.6 2.2-1.4 1.1-1.05.55.9 4.15 2.4 10.25 2.7l5.3-.15q2.15-1.4 1.3.1l-3 5.25 7.55-5.55q2.2-1.9.45.8l3.7 2.25q.1-1.8 1.2-3.3.9-1.25 2.9-2.65l4.4-2.85 3.55-1.55 2.25 1.15-4.9 1.85q-5.65 3.5-6.8 5.1-.85 1.05-1.05 1.75-.65 2.4-1.05 2.6-.4.15-2.15-1.15l-2.85-2.25q-8.1 5.9-8.75 5.45-.45-.35 2.2-5.4-11.1.9-15.55-2.8-2.45 1.2-5.35 1.2-2.75.1-1.45-.95l1.6-2.15q.85-1.6.6-1.95-.25-.4-1.9 0l-3.35.75-4.2.15q-.9-.05-1.9-.55-1.15-.6-.35-1.05.95-.55 2.7-2.95 1.8-2.5 1.8-3.5l-1.9.15-5.65-.8q-1.7-.4-1.75-.9-.05-.6 1.9-2.45l2.15-2.4q-2.4-.6-4.65-1.95-1.9-1.15-1.7-1.7.15-.55 2.2-.85l2.1-.3q-1.55-6.1-1.75-14.3m50.9-33.95l3.4 1.6q-.05.25.35.9.4.6.2.9l-2.85-1.4-.6-.95-.5-1.05m16.45 14.6q.95.25 1.95 0 2.3-.55.9 1.75l-1.05 1.9q1.45.4 2.75 1.55.6.55.55.9l-.65 1.15q-1.7 2.9-1.7 4.3 0 2.9.75 7.25 2.2.95 4.3 2.2l.95.6-.65.8q-2.05 2.55-2.85 4.65-1.6 4.05-1.35 10.45l-1.5-.9q.5-5.85 2.05-10.05.8-2.15 2.25-4.6-1.85-1.5-4.15-2.35l-.2-.2.15-.2q-1.2-5.45-1.4-7.4l.85-2.15 1.6-3.35q-.85-1.1-2.55-1.4-1.65 2.65-1.35.4.15-1.05.9-2.1l1.3-1.95-2.05-.05q-1.45-.4-2.1-1.55-.35-.7-.6-2.25l-.9-4.6q.4-.95 1.05-1.55l1.15 5.6q.25 1.6.65 2.3l.95.85m-103-38.15l3.25-.15-.9 1.75-2.5.15.15-1.75"/><path fill="#0d131a" d="M201.2 72.9q-.8-.5-1.1-1.6l-.3-2.35q-1.75 1-4.5 1.7.9-1.5 1.8-2.35.4.7 2.5-.45 1.9-1.05 1.9-.65l.1 2.65q.15 1.95.55 2.25l2.5-.35L208 70.6l1.45-.05-.6 1.55q-.6 1.1-.8 2.3-.15 1.1.1 1.7l1.3 1.25q1.25 1 2.4 4.1l6.4-.2q1.25.4 1.35.55l-.75.75q-.8.5-2.5 2.4l-1.55 1.9q2.95 1.2 6.4 3.4l1.6 1.3q.05.25-.9.55l-4.45 1.35q2.35 1.4 4.85 3.8.9.9.7 1.25l-1 .45-2.35.75-1.8.7 2.5 3.05 3.2 4.05q1.9 2.8-.8 1.85l-2.2-.35-1 .2.2 2.75q-.05 3.2-1.25 5.6l2 2q1.3 1.2 1 1.55-.25.25-2.25.5-2 .2-2.35.6-.25.25 1.45 2.85 1.75 2.6 1.6 2.85-.3.45-1.95.4-1.75-.1-3.4-.75.6 1.55.65 4.1 0 2.45-.45 2.65-.3.1-1.7-.75-1.65-1.05-1.9-1.1-.45-.15-2.35 3.75l-2.1 4.9-.45 1.3q-.3.25-.95-.9l-1.45-2.5q-1.1-1.15-3.2-.65l-.35-1.7 3.25.25 2 1.85 2.4-4.3 2.2-3.7q.7-.3 1.65.35l2.35 1.95q-.4-1.5-.65-4.15-.25-2.6-.1-2.7l1.85.35 3.3.65-2.6-3.3q-1.1-1.75-1-2.2.25-.85 1.8-1.4l2.2-.4-2.1-2.05q1.2-2.6 1.4-6.1 0-2.95.15-3.2.85-1.1 2.95-1.05l-4.9-7.2q-.95-1.4-.2-1.15l.9.5q0-.65 3-1.85l-2-2.05-1.85-2.15q0-.6 1.4-1.5l1.55-.95-5.15-3.3-1.35.5q-.7 0 .05-1.2l1.6-2.7q.9-1.45 1.5-1.85-1-.35-5.45 0-1.3.15-.6-.3.3-.2.9-.45-.2-.95-.95-1.8l-1.5-1.35q-1.45-1.15-1.75-1.9-.3-.65-.45-2.1-.2-1.35-.05-1.7-3.45.95-4.9-.1m-36 .1l2.9-1.2 1.25 1.55-4.3 1.05-5.45 1.05.3.55 1.15.95 1.3.9q.2.4-.95.65l-3.1.5-2.3.3 1.35 1.85q1.45 1.95 1.05 2.3-.4.3-1.7-.85-.4 2-2.05 4-1.75 2-3.5 2.5l-6.95 1.3q3 .8 5.75 2.35l.5.4q.35.5-.55 1.1l-6.4 4.3 1.95.25q1.95.4 2.65 1.05l.75-.15q.5.1-.7 1.35-2.5 2.65-3.4 6.3 1.85-1.1 2.65-.65l.35 1.15.15 1.25q0 2.35 1.15 5.3 1 2.55 2.2 4.05.2.2-1.75 4.85l3.3-.4q1.45-.1 1.35.3l-.45.4q.3 1.3 2.4 4l2.95 3.4q.45.4-1.05 5.8 1-.75 2.75-1.5 1.75-.7 2.2-.5 1.05.6 1.3 5.1l4.5-3.55q.85-.65 1.1-.35l.3 1.7q.2 3.75.8 3.15l2.15-1.85q1.75-1.35 2.25-1.4 1.7-.05 2.45 1.25l1.05 2.75 2.35-1.4q2.55-1.55 3.55-1.3l.05 1.35q-.65-.05-2.35.9-1.8.95-3.3 2.25-.85.7-1.25.5-.35-.25-.65-1.6-.55-2.9-2.55-3-.45.3-1.8 2.05l-2.05 2.65-.95 1q-.2 0-.45-1l-.45-3.3-.3-2.35-2.7 2.35q-2.35 2.15-2.8 2.05-.5-.1-.8-3.2l-.3-3.2q-3.35 2.15-4.55 3.3-.9.9-1.4.85-.5-.05-.35-1.15 0-.9.9-4.1l.95-3.55-1.9-2.1q-2.2-2.5-3.4-5.45-1.4.1-2.55.55l-1.7.7q-.8.3-.9 0-.1-.25.3-1.65.7-2.6 1.8-4.8-.75-1.05-1.45-2.9-1.45-3.6-1.5-7.85 0-.2-.9.45-1 .75-1.45 1.5-.55.9-.95.35-.45-.55-.25-2t1.3-3.95q1.1-2.4 2.15-3.8-2.05-.75-5.1-1-1.4-.1-1.4-.55l.3-.45q.7-.7 3.75-2.45 2.85-1.7 5.2-2.85-.9-.45-5.15-1.5-3.6-.9-3.4-1.25.55-1.2 5.45-2.35l4.75-.9q1.85-.5 3.6-2.85 1.5-2.1 1.65-3.45l-1.95-1.4q-.7-.65-.1-1.3.95-.95 5.7-1.25-2.2-1.85-2.75-2.75-.45-.65-.2-.75l1.8.05q3.65.25 6.8-.75m107.7 51.25q-.45-1.85.3-1.85.7 0 1 1.5.5 2.65.15 4.75-.3 1.7-1.05 2.5-.6.7-.95.3-.3-.35.2-.85.55-.45.7-2.4.1-2.05-.35-3.95M245.3 134q-1.1-.55-1.45-1.35l1.05-.05q1.65.95 8.05 2.1l11.95 1.15q.9 0 1.3.35.35.35-.8.4l-11.05-.3q-5.95-.75-9.05-2.3"/><path fill="#0d131a" d="M246.25 133.6q-.3-2.5.45-5.6.8-3.35 2.35-5.15l1.3.5q-1.3 1.55-2.35 5.15-.95 3.2-.95 5.15 0 1.1-.8-.05m88.3 50.75l.95 1.05q-4.65 3.05-13.2-.95-5.25-2.45-16.7-10.45l-8.65-6.15q-4.95-3.4-6.95-4.05-9.15-3-13.2-5.15-5.9-3.1-6.9-6.8l2.15.5q.8 3.05 5.9 5.5 3.15 1.55 12 4.45 2.3.75 6.3 3.25l8.1 5.5q11.9 8.3 16.5 10.75 9.15 4.85 13.7 2.55"/><path fill="#0d131a" d="M326.55 178.8l10.2 6.05 8.2 4.15q-2.35-6.6-8.15-12.55-8.75-9-23.7-14.4-13.2-4.8-22.3-12.3-5.1-4.2-10.05-10.55l-1.5-1.9Q278 136 277.5 136t-2.15 2.4l-1.95 2.65-6.4 7.45q4.25 3.25 15.25 7.4 11.05 4.15 23.85 11 7.4 4 20.45 11.9m13.25-1.5q5.95 6.9 7.5 12.65.5 1.7.3 1.85-.15.2-1.55-.5-12.5-6.25-20.4-11-11.5-7.45-18.15-11.25-11.6-6.6-25.85-11.55-5.3-1.8-10.15-4.45-3.55-1.9-5.25-3.25-1.05-.85-1.1-1.3 0-.45.8-.85 1.1-.5 9.15-10.65 1.1-1.5 1.6-1.85.65-.5 1.55-.2.65.2 9.4 9.75 11.1 10.35 23.45 14.45 18.3 6.05 28.7 18.15"/><path fill="#0d131a" d="M286.75 132.65q.2-.7.4-.85.25-.1.15 1-.2 2.15-1.6 2.95-1.3.8-3.9.55-1.15-.05-1.05-.25l1-.2 3.5-.65q1.05-.65 1.5-2.55m-113.7-22.15q3.75 1.1 6.05-.65.75-.6.8 0 .05.6-.8 1.1-5.1 3.15-20.05-6.3-.9-.6-.8-1.4.1-.85 1.1-.2 9.05 6.1 13.7 7.45"/><path fill="#0d131a" d="M162.95 101.2q-.15 3.5.3 5.05l-.85-.35q-.45-1.65-.5-6.55l.05-4.55 1.3 1.15-.3 5.25m21.8-2.2q1.35 4.35.7 6.2-.4 1.05-.65.9-.25-.2-.1-.95.15-.65-.25-2.7-.45-2.05-.9-2.9-.45-.9.2-1.3.65-.45 1 .75m5.7-1q.5-.5.55.65l-.15 2.75-.65 2.4-.85.85q-.45 0-.1-.9l.45-1.95.15-2.2q.1-1.15.6-1.6m13.75-2.9l.75-1.45q1.6 3 2.05 5.55.5 3.1-.45 6.7l-1.1.6q.9-3.4.55-6.15-.35-2.5-1.8-5.25"/><path fill="#0d131a" d="M204.75 106.6q3.05-1.8 5.45-3.7.85-.75 1-.2.15.55-.7 1.25-8.15 6.8-12.8 6-2-.3-2.5-2.2l.55-.65q.05.75.65 1.35.6.65 1.2.75 2.25.35 7.15-2.6m-17.8 2.2q.65-.75 1.2-.85.7-.1 1.8.75l5.45 5.1q5.35 5.45 4.95 7.4-.3 1.35.45 10.95l1.9 22.85q1 12.35-1.7 37.5-2.4 21.85-4 27-.35 1.15-1.2 1-1.35-.15-2.5-6.75-1.7-10.1-4.5-40.95-1.8-20.15-4.4-31.35-1.65-7.05-4.15-12-1.2-2.2-1.6-3.75-.5-1.8 3.15-8.65 3.25-6.1 5.15-8.25m2.95 1.4l-1.1-.75q-.3 0-1.55 1.5-2.35 2.8-4.7 7.65-2.25 4.65-2.25 6.35v.3l1.45 3.4q2.8 5.5 4.5 12.1 2.9 11.4 4.75 31.55 3.4 36.9 4.8 44.4 1.45-8.5 3-24.7 1.9-19.7 1.9-32.55l-.3-8.35q-1.9-23.3-1.9-27.8 0-1.65.15-2.4v-.1q0-1.15-3.75-5.5-3.5-4.1-5-5.1m-15.25-5.35q0 1.2-.35 2.2-.35 1.05-.85 1.05t-.8-1.1q-.25-1-.25-2.25 0-2.05 1.05-2.05 1.2 0 1.2 2.15"/><path fill="#0d131a" d="M201.8 102.75q0 3.45-.9 3.45-.45 0-.8-1.1-.35-1-.35-2.15 0-1.05.4-1.75.35-.7.8-.7.85 0 .85 2.25m82.1 31.45q-.25 1.15-.6 1.15-.3 0-.6-.85l-.25-1.7q0-.85.85-1.85t.9-.15q.05 2.05-.3 3.4m-20.55-1.65q0 1-.4 1.85-.35.9-.85.9-.55 0-.95-1.45-.4-1.55-.35-3.45.05-.8 1.3.3 1.25 1.05 1.25 1.85m-167.2-5.7q-.4.3-.95-.45-.45-.65-.8-1.7-.2-.75.3-1.45.45-.6 1-.6.45 0 .6 2 .15 1.95-.15 2.2M259.9 34.5q-1.6-5.5-.55-5.45.9.05 3.05 3.6l7.35 12.9q4.6 8.7 8.85 19.45 6.55 16.4 5.85 26.65-.4 6.1-4.7 14.1l-2.35 3.5q-1.4 2.1-1.9 3.85l-1 .2q.85-3 3.7-8.4 2.25-4.15 3.1-6.65 1.45-4.15 1.45-8.8 0-9.3-5.75-23.8-4.5-11.35-8.8-19.75-2.75-5.4-7.45-13.2 4.35 14.2 8.2 38.05 3.35 20.55 4 31.75l-1.45-2.65q-.6-10.1-3.95-29.9-3.75-22-7.65-35.45"/><path fill="#0d131a" d="M268.5 95.95q-6.6-12.6-17.55-26.5-8.9-11.25-14.4-19.7-6.45-9.9-11.3-20.35 1.05 13.3 4.6 25.4 5.05 17.15 14.55 28.85 5.55 8.25 12.7 15.2 4.05 3.95 11.25 9.7l6.15 5.15.05-.65q0-5.55-6.05-17.1m-16.2-27.6q11.6 14.75 18.1 27.95 5.9 12.15 5.2 17.9-.25 2.05-.75 1.8l-1.4-1.4q-1.15-1.05-2.75-2.2l-3.4-2.5q-7.25-5.8-11.4-9.8-7.2-7.05-12.85-15.4-9.2-11.35-14.3-28.6-3.6-12.15-4.75-25.4-.65-8.7 3.1-.65 3.5 7.7 10.7 18.45 6.4 9.6 14.5 19.85M212.05 11.8q2.2-6.2 3.3-5.85 1.05.4.9 6.85-.25 10.2-2.6 21.55-2.2 10.7-5.3 17.9-2.4 5.7-7.35 12.55l-8.5 11.15-5.5 6.85q-2.6 3.35-2.85 4.7l-.5-.65q.35-1.8 2.35-4.9 1.5-2.35 5.1-7.05l8.4-11.4q4.7-7.05 7.2-12.8 2.95-6.95 5.35-18.85 2.4-12.15 2.6-21.55-1.9 6.25-5.4 12.95-3.85 7.35-8.45 13-5.9 7.25-11.85 22.45-5.5 13.95-5.5 19.05l-.5-1.65q0-6.25 3.85-17.1 4.8-13.55 12.7-23.8 7.7-10.05 12.55-23.4"/><path fill="#0d131a" d="M177.9 81.05l5.15 5.75.3-2.3q0-6.35-4.65-17.8-5.05-12.25-13.05-24.25-8-11.95-11.9-19.6-4.3-8.55-7.15-18.75l-.1 3.9q0 10.05 2.45 20.35 3.2 13.6 10.45 26.35 4.05 8.9 9.6 16.25 3.2 4.15 8.9 10.1m3.3-12.55q4.6 12.25 3.2 19.8-.35 1.9-1.55.2l-2.4-2.45-3.8-3.8Q163.95 69.05 157 53.8q-7.25-12.8-10.25-27.55-2.1-10.35-1.9-20.55.1-5.7 1.05-5.7.85 0 2.55 5.3 2.35 7.25 7.05 16.75 5.2 10.55 11.3 19.65 9.75 14.6 14.4 26.8"/><path fill="#fff" d="M173.9 104.75q0 1.45-.2 1.45-.25 0-.25-1.45t.25-1.45q.2 0 .2 1.45m27-1.9q0 1.35-.25 1.35-.3 0-.3-1.35t.3-1.35q.25 0 .25 1.35m61.7 29.4q0 .75-.2.75-.15 0-.15-.75t.15-.75q.2 0 .2.75m20.6.2l-.15.55q-.15 0-.15-.55l.2-.55q.2 0 .1.55m-188-7.85q.35 1.25.15 1.35l-.5-1.25q-.25-1.35-.15-1.35.2-.1.5 1.25"/><path fill="#0d131a" d="M243.9 120.9q6.05 1 12.15 4.9 5.95 3.75 10.3 9.1 1 1.25.6 1.5-.4.2-1.05-.7-3.4-4.45-10.1-8.55-6.65-4.05-12.6-5.4-.8-.2-.55-.6.25-.4 1.25-.25m39.65 9.6q1.65-1.9 2.95-2.7 1.1-.6 1.25-.4.15.25-.75 1-3.5 2.9-5.55 6.05-.65 1-.9 1-.25.05.5-1.4.8-1.6 2.5-3.55M178.6 106.9q1.75 1.85 2.1 2.6.35.85-1.7-.85-16.35-13.6-19.9-15.2-.95-.4-1.05-1-.1-.65 1.4-.25 2.6.65 9.45 6.1 6.1 4.85 9.7 8.6m27.25-17.2q.45-1.1.95-1.2.5-.1.45 1.1-.1 1.95-3.6 8-4.2 7.2-8.5 10.45l-.9.05q-.25-.45.6-.9 1.15-.6 4.7-5.85 4-6.05 6.3-11.65M91.5 128.5q2.4-5.65 8.45-11.45 5.55-5.35 11-8.05 1-.55 1.25-.25.2.3-.8.85-4.55 2.6-9.4 7.15-6.3 5.85-9.9 12.3-.85 1.45-1 1.05-.15-.4.4-1.6"/></svg>