<svg xmlns="http://www.w3.org/2000/svg" width="355" height="288" viewBox="-2.15 -2.9 354.8 288.3"><path fill="#fff" d="M194.15 167.8q1.35.45 1.95 4.75 1.45 9.85-1.45 16.85-2 4.9-5.55 6.75-3.65 1.85-8-.2 1.95-5.2-.5-10.7l.55-.4q2.75-2.2 5.8-6.55 2.7-3.9 4.9-8.5 1.1-2.4 2.3-2"/><path fill="#f0e78e" d="M118.45 170q-1.85-2.5-2.95-2.3-1.25.2-2.35 3.65-2.1 6.4-1.15 14.55 1.1 9.75 6.55 11.95 4.95 2.05 8.6-.95 3.2-2.7 3.15-6.85 0-1.55-.65-2.8-1.15-2.2-4.7-7.7l-6.5-9.55m76.2 19.4q2.9-7 1.45-16.85-.6-4.3-1.95-4.75-1.2-.4-2.3 2-2.2 4.6-4.9 8.5-3.05 4.35-5.8 6.55l-.85-.3q-10.65-3.7-18.9-3.5-5.9.15-13.35 2.45-4.8 1.5-16.7 6.15 2.85 5.15 7.5 8.95-10.5 6.65-21.1 5.2-9.3-1.3-16-8.2-3.6-3.75-5.45-8.15-4.5-10.75.95-19.35 5.45-8.5 17.6-10.5 10.55-1.7 25.85 1.35 10.5 2.1 20.35 5.7l15.2-6.85q8.35-3.15 14.7-2.4 4.55.55 7.9 3.05 7.05 5.25 5.7 15.4-1.35 10.15-9.9 15.55"/><path fill="#ed8599" d="M180.6 185.25q2.45 5.5.5 10.7-2.5 6.7-11.45 9.25-6.6 1.9-14.75.45-9.3-1.6-16.05-7.05-4.65-3.8-7.5-8.95 11.9-4.65 16.7-6.15 7.45-2.3 13.35-2.45 8.25-.2 18.9 3.5l.3.7"/><path fill="#d3ebea" d="M47 109.3q7.85 2.55 17.4 12.3 8.8 9.05 13.85 18.6-3.85 12.9-1.6 24.85 2.45 12.7 11.4 21.5-3.4 9.55-4.75 19.85-1.8 13.15.3 24.05-1.8-7.5-3.55-11.55-3.05-6.85-12.3-16.2-10.6-10.75-21.5-17.65-9.95-6.35-29.9-15.45Q4.7 164.25 2.5 154.55.45 145.7 6.65 140.8q2.2-1.7 4.9-2.3-2.35-8.25 2.8-14.15 5.3-6.15 14.4-4.2-1.1-5.1 4.9-9.05 6.2-4.05 13.35-1.8"/><path fill="#d3ebea" d="M177.25 109.6q12 8.8 17.55 21.8 5.2 12.2 4.05 27.05-3.35-2.5-7.9-3.05-6.35-.75-14.7 2.4l-15.2 6.85q-9.85-3.6-20.35-5.7-15.3-3.05-25.85-1.35-12.15 2-17.6 10.5-5.45 8.6-.95 19.35 1.85 4.4 5.45 8.15-7.9-3.45-13.7-9.05-8.95-8.8-11.4-21.5-2.25-11.95 1.6-24.85 4.35-14.45 14.9-25.5 11.2-11.7 26.1-15.85 7-2 15.3-2.25 8.75-14.65 10.4-17.05 4.25-6 5.15 2.25l1.6 16.45q14.4 3.15 25.55 11.35"/><path fill="#d3ebea" d="M340.55 14.6q6.5 7 8.75 16.15 2.05 8.5-.35 14.85.65 3.3.45 6.3-.4 7-6 12.2-5.5 5.15-12.05 4.9.4 4.15-1.25 7.5-1.85 3.7-6 6.15-4.1 2.45-8.9 1.1-4.95-1.45-8.6-6.45-6.95-9.7-15.05-13.15-9.75-4.15-18.75 2.1-7.85 5.5-8.1 17.35-.2 9.85 5 24.5 24.6 69-8.5 116.7 8 1.05 12.9 3.85 5.35 3.05 8.15 8.8 3 6.15-.25 12.5-3.1 6.05-8 6.2l-.15 2.1q-.8 5.3-6.05 9.15-5.75 4.25-12.55 3-1.4 4.7-6.15 7.5-5.2 3.05-12.9 2.75-14.05-.6-26.55-10.95-31.65 15.7-63.5 11.55-30.5-4-49.45-24.25-4.9-5.25-8.4-12.7-3.25-6.8-4.7-14.2-2.1-10.9-.3-23.9 1.35-10.05 4.75-19.65 5.8 5.6 13.7 9.05 6.7 6.9 16 8.2 10.6 1.45 21.1-5.2 6.75 5.45 16.05 7.05 8.15 1.45 14.75-.45 8.95-2.55 11.45-9.25 4.35 2.05 8 .2 3.55-1.85 5.55-6.75 8.55-5.4 9.9-15.55 1.35-10.15-5.7-15.4 1.15-14.85-4.05-27.05 3.15-2.3 15.75-9.45 12.35-8.1 18.4-18.05 3.9-6.4 5.75-15.5 1.85-9.15 0-13-2.25-4.6-6.6-7.5-3.55-2.35-9.6-4.1-9.1-2.65-17.8.95-8.7 4.75-13.25 5.6-5.9 1.1-9.95-.1-3.55-1.1-5.3-3.8-2.2-3.45-2.05-6.8.1-3.1 2.2-5.9-7.3-6.25-5.45-15.1 1.65-8.3 9.8-13.7 4.35-10.3 13-15.4 8.6-5.05 19.35-3.8Q220.3 7 231.5 14.9q12.15 8.55 22.35 23.65 7-11.8 17.8-21.2 10.8-9.35 20.3-12Q308.6.8 321.75 3.9q11.25 2.7 18.8 10.7"/><path fill="#fff" d="M118.55 197.85q-5.45-2.2-6.55-11.95-.95-8.15 1.15-14.55 1.1-3.45 2.35-3.65 1.1-.2 2.95 2.3l6.5 9.55q3.55 5.5 4.7 7.7.65 1.25.65 2.8.05 4.15-3.15 6.85-3.65 3-8.6.95"/><path fill="#dbdcdc" d="M181.9 190.8q3.4.9 7 0 3.65-.95 6.5-3.55l-.75 2.15q-2 4.9-5.55 6.75-3.65 1.85-8-.2.9-2.5.8-5.15"/><path fill="#ed8599" d="M180.6 185.25q2.45 5.5.5 10.7-2.5 6.7-11.45 9.25-6.6 1.9-14.75.45-9.3-1.6-16.05-7.05-4.65-3.8-7.5-8.95 11.9-4.65 16.7-6.15 7.45-2.3 13.35-2.45 8.25-.2 18.9 3.5l.3.7"/><path fill="#b6cbcb" d="M60.85 181.6q10.5-2.6 17.5-10.4 3.05 8.85 9.7 15.35-3.55 9.95-4.95 19.5-1.95 12.85.15 23.65-1.7-7.35-3.4-11.2-2.85-6.45-12.1-15.8-6.8-6.9-13.05-11.75-6.4-4.95-14.3-9.45 10.7 2.5 20.45.1"/><path fill="#dbdcdc" d="M112.3 187.85q4.55 3 8.75 4 5.15 1.15 9.2-.85-.4 3.95-3.5 6.2-3.55 2.55-8.2.65-4.85-2-6.25-10"/><path fill="#b6cbcb" d="M96.45 256.55q-.95-1-2.05-3.25l-1.85-3.4q18.15 9.25 46.95 10.45 27.15 1.05 55.95-5.2 1.95 3.3 6.75 7.75 5.45 5.1 7.05 7.2-31.35 15-63.35 10.65-30.75-4.25-49.45-24.2"/><path fill="#b6cbcb" d="M256.65 264.05q-.25 8.1-5.1 12.4-5.25 4.6-15.35 4.2-7.2-.25-17.1-5.35-12.15-6.25-20.4-16.4 13.85 9.1 30.1 11.25 18 2.35 27.85-6.1"/><path fill="#b6cbcb" d="M254.55 260.6q4.5 2.35 10.95-1.2 6.6-3.7 7.85-9.8 1.95 13-5.75 18.35-4.75 3.3-12.15 3.3.65-1.5-.05-6.2l-.85-4.45"/><path fill="#b6cbcb" d="M268.2 244.3q4.1 2.15 7.4 2.15 5.7 0 8.1-6.4 1.1 4.85-1.4 9.6-2.75 5.05-7.9 5.95 0-1.5-1.75-4.8-1.9-3.55-4.45-6.5m75.55-210.5q1.5-3.95 1.5-8.05.05-4-1.35-8.8 4.3 5.7 6 12.9 1.75 7.4-.4 11.75 1.55 7.6-.05 13.55-1.2 4.5-4.05 7.75-2.55 2.9-5.9 4.55-2.65 1.25-6.85 2.2-.75 6.25-4.15 10.25-2.8 3.3-7.05 4.7-5.95 2-13.55-5.5-7.95-9.15-11.5-11.5-1.7-2.5-5.35-4.05-7.3-3.1-17.1 1.8Q264.65 70 265.4 86q.45 9.45 3.7 19.2-9.8-14.8-22.55-14.3-5.15.25-9.6 3.1-4.2 2.65-6.35 6.7 3.2-9.1 3.85-14.45.6-4.55-.3-10.8-.5-3.5-6.55-7.45-7.05-4.7-15.7-4.7-7.25 0-17.15 4.6-9.5 4.35-15.4 4-2.6-.15-5.25-1.85-3.35-2.05-1.85-4.5 3.25 1.95 7.55 1.15 3.35-.6 8.9-3.25l10.6-5.1q6.8-3.05 12.6-4.4Q232 49.25 235.35 33q1.7-8.15-.65-15.35 4.55 1.4 12.25 10.95 3.85 4.75 6.8 9.25-.65 5.15 9 11.35 9.05 5.75 22.5 9.75 13.95 4.1 25.05 3.95 12.55-.15 16.75-5.95 7.4-1.3 12.2-6.85 5.65-6.5 4.5-16.3"/><path fill="#ce7486" d="M155.35 200.95q20.15 1.7 26.6-8.85.3 2.8-1.7 6.05-4 6.45-15.4 8.55-7.25 1.35-17.55-3-8.8-3.7-10.75-6.55l5.65 1.6q6.9 1.65 13.15 2.2"/><path fill="#0d131a" d="M134.6 95.25l-1.15 2.45q-20.35.85-36.15 14.3-17.6 14.9-20.05 38.7-1.4 13.6 4.4 24.7 5.8 11.1 17.8 17.85l2.25 2.9q1.85 2.65 1.45 2.45-15.2-6.4-23.05-20.15-7.55-13.15-6-28.4 2.3-22.95 19-38.4 17.05-15.8 41.5-16.4m58.2 34.05q-4.7-9.5-13.35-16.7-11.8-9.75-28.05-13.3-.5-1.25-.5-2.6 8.55 1.7 16.6 5.4 8.25 3.75 14.45 8.9 21.7 17.9 18.35 48.3-.05.4-1.4-.7-1.35-1.1-1.3-1.5 1.35-15.35-4.8-27.8"/><path fill="#0d131a" d="M166.15 160.45q7.6-3.6 12.85-5.1 6.95-2 12.7-1.3 5.3.65 9.2 3.6 4.05 3.15 5.3 7.95 1.8 7.15-1.9 14.85-3.65 7.4-10 10.6-.55.25 1.55-4.15 4.7-4 6.6-9.45 1.9-5.5.45-10.7-1.2-4.3-4.4-7-3.2-2.75-7.7-3.3-5.2-.65-11.75 1.5-4 1.3-12.1 5.1l-5.5 2.55h-.8q-8.7-3.15-17.95-5.2-16.5-3.6-27.7-1.75-5.95 1-10.5 3.85-4.6 2.9-6.95 7.15-4.3 7.9-.25 17.4 2.15 5.2 6.65 9.2 4.5 3.95 10.05 5.65 11.85 3.6 23.95-3.95.25-.15 1.25.8l.8 1.1q-7.35 4.7-15.3 5.6-6.25.7-11.7-.95-6.1-1.85-11.05-6.25-5-4.4-7.4-10.1-2.15-5.1-2.15-10.15.05-5.15 2.35-9.35 2.6-4.75 7.75-8.1 5.2-3.45 11.6-4.5 11.25-1.85 28 1.75 10 2.15 18.9 5.4l5.15-2.75"/><path fill="#0d131a" d="M117.6 170.6q-1.4-1.85-1.95-1.75-.65.15-1.5 2.8-1.95 6-1.2 13.75.95 9.4 6 11.5 2.85 1.15 5.25.4 1.7-.5 2.95-1.85 1.45-1.6 1.9-3.85.45-2.25-.35-3.85-1.05-2.15-4.65-7.7l-6.45-9.45m-7.45 16q-.55-7.65 2-15.6 1.65-5.1 3.35-5.15 1.25 0 3.8 3.55 9.7 13.25 11.9 17.6 1.15 2.25.6 5.2-.55 2.9-2.55 5.05-1.95 2.15-5.2 2.75-3.15.55-6.25-.6-6.9-2.6-7.65-12.8"/><path fill="#0d131a" d="M181.7 183.45q.5.2.1 1.4-.35 1.2-.8 1.05-13.5-4.85-23.8-3.4-7.15.95-25.6 8.15l-.75-1.95q18.9-7.95 26.55-9 10.05-1.35 24.3 3.75"/><path fill="#0d131a" d="M179.15 184.6q-.15-.35.85-.3 1.05.05 1.15.3 3.65 6.65 1.25 12.9-2.75 6.95-12.15 9.65-9.65 2.7-21.35-1.25-13.7-4.6-18.55-15.9 1.75-1.15 1.85-1.05 5.65 10.5 17.85 14.45 10.35 3.35 19.3.8 7.25-2.1 10.15-7.45 3.05-5.65-.35-12.15"/><path fill="#0d131a" d="M162.6 180.8q2.15 2.4 3.6 5.85 1.15 2.9 1.5 5.65.4 2.95-.4 3.35-.75.4-1.05-1.7-.3-2.8-2.3-7.05-2.2-4.75-4.25-5.85-.45-.25 1.05-.5 1.45-.25 1.85.25m28.3-11.45q4.7-7.7 6.25 3.05 1.2 8.25-.25 14.85-1.5 6.9-5.45 9.7-2.3 1.6-5.15 1.75-2.8.1-5.6-1.3-.1-.05-.05-1.45.1-1.35.4-1.2 4.8 2.5 8.55-.15 2.85-2 4.4-6.2 1.5-4.2 1.5-9.7l-.45-6q-.5-3.4-1.15-3.7-.45-.2-1.15 1.25-2.35 5-5.25 9.1-3.45 4.95-6.65 7.05-.35.2-.45-1-.1-1.2.15-1.4 2.2-1.75 4.9-5.8l5.45-8.85m.85-125.3q3.35-.2 3.45.85.05 1.05-3.3 1.25-6.6.3-12.15 3.05-5.5 2.7-7.55 6.7-2.45 4.8.9 10 3.05 4.75 10.9 3.8 5.55-.7 11.55-3.65 6.05-3.05 9.85-3.9 6.35-1.4 13.4.65 6 1.75 9.55 4.05 4.85 3.05 7.25 8.1 1.95 4.05.15 13.4-1.85 9.4-5.9 16.1-5 8.25-13.55 15-4.85 3.8-13.65 8.95-5.7 3.4-6.85 4.5-.45.4-.85-1.65-.35-2.05.7-2.6 9.55-5 16.1-9.65 10.85-7.75 15.65-15.65 3.75-6.15 5.45-15.05 1.7-8.8-.05-12.45-2.25-4.55-6.2-7.15-3-1.95-8.4-3.55-6.4-1.9-12.6-.2-2.95.8-9.6 4.15-7.15 3.55-13.55 3.8-8.25.35-11.9-5.4-1.95-3-2.2-6.25-.25-3.2 1.25-6.1 2.3-4.5 8.6-7.65 6.25-3.1 13.55-3.45"/><path fill="#0d131a" d="M166.05 34.15q2.8-6.45 9.85-10.6 7.9-4.65 17.1-3.7 3.25.35 3.45 1.3.2 1-3.05.65-8.4-.85-15.3 3.4-6.1 3.8-8.7 9.8-2.1 4.85-1.05 9.4 1.05 4.6 5.05 8.05.3.3-.8 1.4-1.05 1.05-1.4.75-4.55-3.95-6-9.45-1.5-5.65.85-11"/><path fill="#0d131a" d="M254.5 36.95q.2.35-.55 1.4-.8 1.05-.95.75-11.15-16.45-24.65-25.05-13.45-8.6-26.3-7.4-7.85.8-14 5.25-6.2 4.5-9.75 12-.2.45-2.2 1.2-2 .7-1.8.3 3.75-9.05 11.05-15.2 7.6-6.4 16.3-7.25 13.25-1.25 28.45 8.6 15.1 9.75 24.4 25.4"/><path fill="#0d131a" d="M326.2 2.7q10.35 3.8 17.25 12.2 6.3 7.65 7.65 17.7 1.2 8.85-1.8 14.8-.2.45-.6-1.25-.45-1.75-.25-2.45 1.5-5.65-.2-12.7-1.9-7.75-6.95-13.9Q335 9.4 325.25 6q-14.05-4.85-33.05.4-11.3 3.1-23.6 15.35-12.2 12.15-17.8 25.8-1.45 3.5-2.1 1.85-.65-1.6.8-5.1 5.65-13.85 18.05-25.85 12.15-11.8 24-15.4 19.5-5.95 34.65-.35"/><path fill="#0d131a" d="M352 51.5q-.45 7.45-7.2 13.5-6.6 5.95-12.9 5.2-.45-.05-.45-1.2 0-1.2.45-1.2 5.65 0 10.75-4.6 5.35-4.9 5.75-11.4.55-9.9-6.95-17.1-7.55-7.2-20-8.65-3.55-.45-2.95-1.4.6-.9 4.15-.5 13.5 1.6 21.65 9.1 8.35 7.6 7.7 18.25M87.15 186.65l1.45-.05q1.3.35 1.15.75-7.5 20.45-5.15 38.1 2.15 16.4 12.5 28.85 9.8 11.8 25.6 18.55 15.5 6.6 34.1 7.15 25.9.85 51.45-11.6l2.75 2.5q-13.05 6.65-26.9 9.9-13.75 3.25-27.3 2.85-18.2-.55-34-7.1-16.55-6.8-27.05-18.8-11.35-12.95-13.9-30.1-2.8-18.85 5.3-41"/><path fill="#0d131a" d="M332.9 66.6q1.3 5.45-.75 10.25-2.05 4.85-6.9 7.7-4.6 2.7-10.4 1-5.8-1.7-9.55-6.9-5.85-8.05-12.2-11.65-10.05-5.65-19.7 1.05-6.85 4.8-7.3 14.45-.4 9.4 5.25 25.25 12.55 35.25 11 63.85-1.6 29.2-17.95 53.1l-2.1-.35-2.3.3q16.5-23.7 18.7-52.85 2.25-29.2-9.95-63.35-5.85-16.4-5-27.05.85-10.65 8.45-16 8.5-5.95 17.85-2.95 9.35 3 17.4 14.25 3.3 4.6 7.75 6 4.45 1.4 8.35-.95 4.2-2.45 5.85-6.3 1.65-3.8.55-8.5-1.75-7.15-8.2-12.85-6.45-5.7-13.35-6.15-3.95-.2-3.15-1.15.8-.95 4.75-.75 7.6.5 14.35 6.6Q331 58.7 332.9 66.6M144.1 78.95q2.95-4.15 4.5-3.85 1.9.3 2.55 6.6l1.8 15.6 1.55 14q0 3.1-1.05 3.6t-1.5-2.5q-.3-2.05-1.45-14.9l-1.45-15.6q-.35-3.4-.8-3.8-.6-.55-2.45 2.05-2.75 3.95-15.95 26.45-1.7 2.9-2.95 2-1.25-.85.45-3.75 1.7-2.85 8.3-13.05 6.55-10.2 8.45-12.85m-96.7 28.5q7.8 2.5 16.95 11.65 8.5 8.45 13.9 18.2.45.75-.15 2.25t-.9.9q-5.1-9.5-13.8-18.3-9.25-9.45-16.75-11.85-7.05-2.25-12.75 1.6-5.45 3.7-4 8.4l-1.35-.05-1.5-.65q-1.15-6.45 5.05-10.6 6.5-4.35 15.3-1.55"/><path fill="#0d131a" d="M48.65 132.35q2.2 2.65 1.9 3.65-.25 1.05-2.5-1.5-8.75-9.9-17.35-12.7-7.25-2.4-12.5.65-3.9 2.3-5.45 6.65-1.55 4.4-.2 9.15.1.2-.95.45-1 .2-1.1 0-2.1-5.05-.3-10.9 1.85-5.8 6.35-8.4 4.7-2.8 11.2-1.6 10.45 1.95 20.9 14.55"/><path fill="#0d131a" d="M5.2 139.55q5.85-4.6 14.75-2.2 8.3 2.25 15.1 9.2 2.2 2.2 2.1 3.5-.05 1.3-2.25-.9-6.2-6.4-14.05-8.85-8.5-2.7-13.55 1.3-5.9 4.65-3.45 13.25 2.55 9.05 12.9 13.8Q36.5 177.6 46.55 184q11.15 7.05 21.95 17.95 6.5 6.6 9.95 11.4 2.85 4 4.4 7.9.5 1.25.85 7.05.4 5.85-.1 4.2-2.3-7.5-4.5-11.85-4.25-8.25-12.15-16.3-10.4-10.55-20.8-16.9-7.9-4.8-30.9-15.65Q3.5 166.25.65 155.6q-2.8-10.25 4.55-16.05M249.65 276.3q4.45-3.15 5-8.15.6-5.25-3.55-9.7-4.7-5.05-13.65-6.6-3.45-.6-2.75-1.4.7-.85 4.15-.25 9.95 1.75 15.3 7.4 4.75 5.05 4.15 10.95-.6 5.85-6.05 10-6.15 4.65-15.4 4.25-19.3-.75-38.15-21.6-13-14.35-22.65-34.05-1.65-3.35-1.05-4.9.6-1.55 2.3 1.75 9.25 18.25 21 32.15 19.25 22.7 37.95 23.45 8.3.3 13.4-3.3"/><path fill="#0d131a" d="M251.1 238.9q-3.5-.45-2.95-1.45.5-1 4-.55 6.7.85 12.25 3.55 5.55 2.7 8.5 6.6 4.2 5.6 3.1 11.9-1.05 6.45-7.15 10.5-2.8 1.85-6.55 2.65l-6.9.25q-.35-.05-.2-1.5.15-1.5.5-1.45 5.75 1 10.8-2.35 5.05-3.35 6.15-8.7 1.1-5.4-2.4-10-2.7-3.6-7.8-6.1-5.1-2.5-11.35-3.35"/><path fill="#0d131a" d="M284.25 236.1q1.95 3.95 1.45 8.55-.4 4.05-2.4 7.05-1.75 2.6-4.35 4.2-2.65 1.65-4.9 1.5-.45-.05-.5-1.25-.1-1.25.35-1.2 3.5.25 6.35-4.1 1.75-2.65 2.2-5.8.55-3.8-1.1-7.15-3.45-7-11.05-9.9-6.25-2.45-18.1-2.85-13.3-.5-23.45-3.45-10.95-3.2-22.45-10.4-3.05-1.9-3.35-3.45-.3-1.55 2.75.35 11.25 7.05 22.6 10.3 10.55 3.1 23.55 3.55 12.5.45 19.75 3.15 8.95 3.35 12.65 10.9M166.3 157.35q2.5 1.45 2.75 3.75.2 2.25-2 4-2.3 1.85-5.8 2.05-3.95.25-6.75-1.2-2.7-1.4-2.9-3.5-.25-2.7 2.35-4.5 2.4-1.65 5.95-1.85 3.8-.2 6.4 1.25m7.45-13.75q-.9-4.2-.25-7.3.8-3.5 3.35-4.2 2.35-.6 4.65 1.45 2.55 2.25 3.75 6.75.85 3.35-.15 6.45-1.05 3.15-3.3 3.75-2.75.7-5.1-1.5-2.25-2.05-2.95-5.4"/><path fill="#fff" d="M175.1 137.55q-.45-1.4.15-2.65t1.9-1.65q1.3-.35 2.5.3 1.2.7 1.65 2.1.4 1.4-.2 2.65-.6 1.3-1.85 1.65-1.25.4-2.5-.3t-1.65-2.1"/><path fill="#0d131a" d="M123.8 132.4q3.3.25 5 3.4 1.65 3.15 1.2 8.15-.4 3.9-2.55 6.25t-5.3 2.1q-3-.25-5.05-2.9-2.2-2.85-1.9-6.85.35-4.5 2.9-7.45t5.7-2.7"/><path fill="#fff" d="M123.8 133.45q1.55.1 2.55 1.35 1.05 1.25.95 2.95-.1 1.7-1.25 2.85-1.2 1.15-2.75 1.05-1.55-.1-2.55-1.35-1.05-1.25-.95-2.95.1-1.7 1.25-2.85 1.2-1.15 2.75-1.05"/><path fill="#0d131a" d="M123.1 117.55q3.5 0 6.05 2.75 2.6 2.8 3.25 7.45.35 2.25-.45 2.45-.75.2-1.25-2-.85-3.8-2.85-5.85-1.95-2.1-4.7-2.1-3.3 0-6.3 2.95-3.3 3.3-4.55 8.7-.4 1.8-1.1 1.15-.7-.6-.45-2.45.8-5.9 4.4-9.55 3.45-3.5 7.95-3.5m50.85 1.15q2.75-.5 5.7 2.2t3.9 6.55q.4 1.7-.1 2.05-.5.35-1.2-1.2-1.45-3.35-3.65-5.25t-4.2-1.55q-1.65.3-2.65 2.25-1 1.9-1.2 5.1-.1 1.7-.7 1.7-.65-.05-.75-1.8-.4-4.8 1.6-7.65 1.45-2.05 3.25-2.4"/><path fill="#8a969d" d="M161.85 158.8q.1.7-.9 1.3-.95.6-2.4.8l-2.5-.25q-1.05-.4-1.15-1.1-.05-.7.9-1.35.95-.6 2.35-.75l2.55.25q1.05.4 1.15 1.1"/></svg>