<svg xmlns="http://www.w3.org/2000/svg" width="309" height="365" viewBox="-0.8 -0.05 309.25 364.9"><path fill="#ed8599" d="M101.15 257.3q.7 6.1 2.6 11.15-10.45 3.8-23.65 2.5-12.8-1.3-19.75-6.5.65-4.65.65-8.05 6.7-1.55 9.7-2l11.2-.85q8.15.2 19.25 3.75"/><path fill="#fff" d="M51.35 258.25L61 256.4q0 3.4-.65 8.05l-.25 1.85q-.45 3.25-1.4 3.8-1 .55-2.55-1.3-4.5-5.2-6.6-10.4l1.8-.15M13.55 344q-5.85-.95-7.45-2-4.3-2.8-2.9-4.9 1.25-1.95 6.9-2.65Q22.05 332.9 42.9 321q25.35-14.45 40.3-33.1 4.15 9.45 10.75 18.5 7.15 9.85 16.3 17.85-1.55 6.1-3.55 10.85-2.4 5.65-4.9 8.1-3.75 3.6-8 2.6-4.15-1.75-5.8-1.55-3.25.4-6.55 6.35-3.25 5.9-5.95 6.25-2.9.35-7.35-3.45-4.65-4-6.85-4-1.75 0-3.65 2l-3.7 4.5q-5.55 6.45-13.25 6.3-8.5-.2-13.15-6.2-3.65-6.8-5.65-8.55-2.95-2.6-8.35-3.45m87.6-86.7l7 2.2q3.6 1.05 6.05 1.2l-2.4 4.85-3.15 4.95q-1.65 2.25-2.65 1.85-.8-.35-1.95-3.2l-.3-.7q-1.9-5.05-2.6-11.15"/><path fill="#fff" d="M179.9 55.6q15.65 22.75 41.15 39.1 39.6 25.3 58.1 49.3 19.75 25.55 22.15 57.8 4.45 58.1-19.6 94.45.2 1.6 1.5 3.7l2.5 3.65q3.05 4.9 1.7 9.7-2.1 7.4-11.55 10.45-6 1.95-7 2.4-3.5 1.65-4.9 4.45-.8 1.6-.3 5.6.45 3.5-1.3 5.4-4.2 4.55-12 5.5l-6.5.55q-3.85.35-6.3 1.1-4.3 1.35-6.75 5.6-2.35 4.05-3.6 4.35-3.6.85-10.05-2.35-6.15-3.1-13.4-9l-1.1-.05-1.15-.1q-27.85 5.9-52.55-1-21.5-6.05-38.7-21.15-9-7.95-16.3-18.3-6.5-9.15-10.75-18.85-1.95-4.45-3.1-8.25-11.95-2-21.4-9.55.95-.55 1.4-3.8l.25-1.85q6.95 5.2 19.75 6.5 13.2 1.3 23.65-2.5l.3.7q1.15 2.85 1.95 3.2 1 .4 2.65-1.85l3.15-4.95 2.4-4.85q-2.45-.15-6.05-1.2l-7-2.2q-11.1-3.55-19.25-3.75l-11.2.85q-3 .45-9.7 2l-9.65 1.85-1.8.15q-7 .4-11.1-2.1-3.7-2.25-4.25-6.45-.55-4.05 2-8.7 2.6-4.8 7.75-8.7-.15-17.8 9.05-31.65 9.15-13.75 24.2-18.65 4.35-11.45 6.55-16.65 1.15-2.7 1.95-2.65.9.05 2.25 3.2L94 179.6q16.7-.05 30.8 10.05 11.2 8.1 23.25 24.85 7.45 10.4 21.6 12.25 14.1 1.9 28.5-5.5 15.65-8.05 25.9-24.4 11.6-18.5 13.7-44.2.85-10.1-2.55-19.75-3.2-8.9-9.5-16.2-17.1-10.35-36-5.95-18.25 4.2-28.55 19.6-3.05 4.6-6.9 4-3.75-.55-4.95-5.55-.95-3.65-1.65-5-1.05-1.95-3.9-4.9-2.15-2.2-10.1-6.4-7.1-3.7-9.9-7.95-2-3-1.25-9.05.9-6.85.3-8.65-1.15-3.5-3.55-7.7-2.35-4.15-2.9-5.8-2-6.2 4.35-17.9 1.8-3.3.5-12.6-1.15-8.65 2-12.35 2.05-2.4 5.85-4.3 2.2-1.15 6.8-3.1 8.4-3.85 10.1-10.7 2-8.1 5.95-9.1 4.7-1.25 8.4 10.75 7.35 23.8 19.6 41.55"/><path fill="#ce7486" d="M101.75 261.3q-9.9-3.1-20.2-1.9-10.1 1.1-19.45 6.2l-1.75-1.15q.65-4.65.65-8.05 6.7-1.55 9.7-2l11.2-.85q8.15.2 19.25 3.75l.6 4"/><path fill="#dbdcdc" d="M60.5 263q-4.75-3.25-8.85.15l-1.1-2.15-1-2.6 1.8-.15L61 256.4l-.5 6.6M34 361.25q-1.7-.75-3.65-3.1Q50 351 66.8 337.85q15.8-12.4 28.5-29.7 6.6 8.7 14.95 16.1-1.55 6.1-3.55 10.85-2.4 5.65-4.9 8.1-3.75 3.6-8 2.6-4.15-1.75-5.8-1.55-3.25.4-6.55 6.35-3.25 5.9-5.95 6.25-2.9.35-7.35-3.45-4.65-4-6.85-4-1.75 0-3.65 2l-3.7 4.5q-5.55 6.45-13.25 6.3-4.65-.1-6.7-.95m67.15-103.95l7 2.2q3.6 1.05 6.05 1.2l-.95 2.45-1.1 2.3q-2.2-1.45-4.7-2.05-3.1-.75-5.1.35-.75-2.5-1.2-6.45"/><path fill="#ccc" d="M110.25 324.25q-5.15-4.5-10.65-10.75 22 12 44.9 16.1 21 3.75 42.15.75l7.85 8.3 8.2 8.25-1.2.3q-27.7 5.85-52.55-1.4-21.35-6.25-38.7-21.55m176.55-45.7q-.45-1.2-2.15-1.1-1.25.1-3.7 1 10.65-11.9 17.05-23.75-5.1 22.55-16.8 40.6-.7-2.85 2.85-9 3.4-5.95 2.75-7.75"/><path fill="#dbdcdc" d="M211 105.35q9 5.1 13.6 10.7-16.95-9.7-35.4-5.2-17.9 4.4-28.05 19.5-3.05 4.6-6.9 4-3.75-.55-4.95-5.55-.95-3.65-1.65-5-1.05-1.95-3.9-4.9-2.3-2.4-8.6-5.65-6.45-3.3-9.15-5.95 30.35-17.6 62.4-10.55 12.2 2.65 22.6 8.6"/><path fill="#ccc" d="M83.1 288.3q-1.3-2.6-2.15-5.75l-.55-2.6q8.75 2.75 19.1.15 13.6-3.45 24.8-15.55-3.2 14.35-12 23.25-8.2 8.3-17.65 8.6-7.4.2-11.55-8.1m127.95 11.9q11.3.4 31.7-3.55 14.7-2.85 22.25-5.15-8.15 7.95-28.75 10.6l-15.55.6q-7.15-.5-9.65-2.5m10.25 24.25q7.35 2.5 13.6 4-8.6-1.35-16.55.25-6.85 1.4-7.9 3.4-8.45-5-19.85-16.9l-9.7-10.95q6.3 4.9 12.55 7.95 5.95 2.9 7.35 2.05 5.7 5.15 20.5 10.2"/><path fill="#0d131a" d="M77.8 180.8l-.95 1.45q-.8.8-1.05 1.3-14.15 5.2-22.6 18.45-8.5 13.35-8.35 30.45 0 .45-.4.75-5.45 4.2-7.95 9.35-2.45 5.15-.9 9.1 1.3 3.35 5.4 4.75 4.05 1.35 10.25.7 5.5-.6 10.05-1.7l9.5-1.95 11.15-.8q5.7.15 11.65 1.45 4.15.9 9.95 2.75 9.35 3.05 12.55 2.9 5.2-.35 8.55-6.75 1.1-2.1 1.65-1.2.5.85-.5 3-3.4 7.15-9.35 7.6-3.6.25-13.05-2.8l-9.95-3.2q-6.3-1.8-11.55-1.95l-10.85.8-9.3 1.95-6.2 1.75q-4 1.15-6.1 1.15-6.9 0-10.95-1.8-4.2-1.85-5.75-5.75-1.6-4.1.4-8.95 2.35-5.75 9.5-11.3l.25-.05q-.7-17.55 7.2-30.7 9.05-15.1 27.7-20.75m129.55-78.3q14.15 4.6 23.2 17.75 9.85 14.4 8.4 32.45-2.75 33.5-18.5 53.05-12.6 15.6-32.2 21-12.3 3.4-23.6.15-11.15-3.25-17.3-11.85-11.7-16.25-22.25-24.1Q111 180.5 94.15 180.5l-.75-.95q-.2-.35-.25-1Q111 178 126 188.2q11.7 8 22.1 22.95 7 10.1 18.65 13.4 10.15 2.85 20.75-.1 18.3-5.05 30.8-21.2 14.9-19.2 17.35-49.7 1.45-17.3-7.55-31.5-8.75-13.85-23.15-18.5-2.7-.9-1.5-1.4 1.25-.5 3.9.35M78.6 279.9q-.1-.45 1.15-.45 1.2 0 1.4.55 3.9 12.25 12.55 24.5 10.2 14.5 24.45 24.95 15.35 11.25 33.3 16.1 23.65 6.3 49.85.75l2.05-.45 1.35 1.55 1.4 1.55-3.35.75q-26.6 5.65-51.8-1.1-19.35-5.2-34.95-16.65-14.55-10.7-24.95-26.3-8.45-12.7-12.45-25.75"/><path fill="#0d131a" d="M220.6 95.45q-26.9-17.2-43.1-41.8-11.15-16.95-18.05-39.35-1.55-4.95-3.3-7.6-1.8-2.65-3.5-2.6-1.65.05-3.25 2.4t-2.55 6.1q-1.25 5.05-5.3 8.25-2.4 1.9-8.1 4.35-3.6 1.55-5.25 2.45-2.7 1.55-4.3 3.45-1.95 2.25-2.15 5.85-.15 2.05.5 6.85.6 4.15.6 6.25-.05 3.45-1.35 5.85-4.85 8.85-4.8 13.8 0 3.2 2.95 8.35 2.85 5.05 4 8.55.5 1.45.4 3.55l-.45 3.95q-.5 3.5-.45 5.25.1 2.85 1.35 4.7 1.85 2.75 5.05 5 1.85 1.3 6.1 3.5 6.2 3.1 8.75 5.7 3 3.1 4.05 5.15.8 1.5 1.7 5.2.55 2 1.65 3.3 1.05 1.3 2.5 1.55 1.6.25 3.2-.7t2.9-2.95q5.7-8.45 14.9-14.05 9.15-5.55 19.7-7 9.15-1.25 17.35 1 8.25 2.2 14.45 7.6l1.4 2.4q1.05 2.15.75 1.9-6.3-5.5-15.1-8.55-9.65-3.4-18-2.25-9.9 1.3-19.25 7.55-8.9 5.9-14.55 14.35-1.65 2.4-3.85 3.6-2.2 1.15-4.35.8-1.95-.35-3.4-2.3-1.4-1.75-2.05-4.45-.95-3.8-1.7-5.4-1.2-2.45-3.85-5.2-1.45-1.45-4.15-3l-4.85-2.55q-5.3-2.75-6.95-3.8-4-2.6-6-5.55-1.4-2.15-1-5.45l1.1-5.6.55-3.65q.25-1.9-.15-3.05-.7-2.05-2.65-4.8l-2.7-3.9q-2.85-4.9-2.45-8.75.45-4.85 5.75-14.65 1.1-1.95.75-5.5l-.9-6.2q-.7-5-.55-7.45.3-4 2.6-6.7 1.7-2 5.4-3.7 2.05-.95 6.1-2.55 5.35-2.3 7.2-3.75 3.2-2.55 4.3-7.05 1.55-6.2 4.45-9.55 2.2-2.55 4.1-2.6 2.5-.05 5.15 3.55 2.7 3.55 4.5 9.35 7.15 23.1 17.1 38.85 15.5 24.4 42 41.1 39.3 24.75 59.45 51.2 20.75 27.15 23.1 58.5 4.35 57.45-22.35 96-.2.25-.75-4.55 23.6-36.95 19.4-92.15-2.3-30.95-21-55.8-18.6-24.85-58.8-50.6M61.3 256.4l1.15.15q.05 1.85-.45 5.45l-.7 4.4q-.7 4.45-2.1 5-1.3.5-4-2-4.7-4.3-7.1-10.45-.1-.35 1.1-.75 1.2-.35 1.35 0 1.25 3.3 3.15 6.05l3.1 3.95q1.25 1.45 1.6 1.15.35-.25.8-3.2.9-5.55.9-9v-.55l1.2-.2m40.8 1.45q.85 6.3 2.75 10.95.95 2.2 1.45 2.4.55.2 1.6-1.25 3-4.05 5.35-9.35l1.55-.25q1.5-.05 1.35.25-2.15 4.9-6.25 10.55-2.1 2.85-3.6 2.6-1.7-.2-3.35-4.3-3-7.15-3.6-12.4l1.35.05q1.35.35 1.4.75"/><path fill="#0d131a" d="M103.7 267.55q.35-.15.7.7.3.8-.05.95-9.2 4.4-22.55 3.45-13.4-.95-21.2-6.75-.2-.1-.15-1.3.05-1.2.35-1 7 5.35 19.9 6.55 12.85 1.15 23-2.6"/><path fill="#0d131a" d="M112.65 275.95Q105 280.4 95.7 281.9q-9.85 1.6-19.5-1.3-9.25-2.75-17.65-9.4-.3-.2.35-.95.6-.75.9-.55 8 5.95 17.45 8.25 9.45 2.35 19.15.75 8.85-1.4 16.2-5.8 7.35-4.35 11.95-10.9 1.45-2.1 1.75-.8.35 1.35-1.1 3.4-4.75 6.8-12.55 11.35m-30.25 9.9q.45-.55 1.1.9.65 1.4.1 2.1-15.45 19.05-41.15 33.45-20.55 11.5-32.25 13.05-10.55 1.3-3.6 5.9 1.65 1.05 5.8 1.65l5.05 1.05q2.9.9 5.05 2.8 1.15 1 3.15 4.45 2.6 4.65 4.9 6.65 3.85 3.3 10.15 3.45 5.1.15 8.95-2.6 2.2-1.55 5.3-5.45 1.9-2.45 2.95-3.35 1.65-1.4 3.4-1.4 1.7 0 3.65 1.2l3.35 2.6 3.45 2.65q2 1.2 3.65 1 1.5-.15 2.85-1.85l2.3-3.7q1.8-3.2 2.9-4.5 1.95-2.2 4.4-2.55 1.3-.15 3.85.8 2.75 1.05 4.3 1 2.6-.15 5.15-2.6 4.1-4 8.3-18.8.25-.9 1.25-.15 1.05.75.65 2.2-1.7 6.4-3.85 11.4-2.5 6-5.05 8.4-3 2.9-6.35 2.5l-5.05-1.7q-2.05-.8-2.95-.7-1.8.2-3.15 2.5-.8 1.3-2.25 4.45L80 357.1q-1.75 2.3-3.85 2.55-2.15.25-4.8-1.6l-4.25-3.55-2.95-2.35q-1.55-1-2.85-1.05-1.2 0-2.45 1.2-.8.7-2.45 2.85-3.6 4.55-5.85 6.3-4.4 3.4-10.05 3.25-6.9-.15-11.5-4.25-2.55-2.3-5.5-7.5l-1.2-2.45-1.25-1.85q-1.9-1.6-4.9-2.4l-5.05-.9-3.45-.6q-1.85-.45-3.1-1.3-3.95-2.6-4.5-5.2-.85-4.35 9.9-6.25 14.45-2.55 34.25-13.85 24.5-13.95 38.2-32.3"/><path fill="#0d131a" d="M72.65 327.2q-13.95 10.6-26.2 15.2-3.25 1.2-4.25.7-1-.45 2.2-1.7 12-4.55 26.5-15.9 12.6-9.9 21.8-20.45.25-.25 1.3.5t.1 1.8Q85 317.8 72.65 327.2m9.7-32.05q1.2-1.95 1.5-.95.25.95-.9 3.1-3.85 6.95-8.5 12.4-4.35 5.1-8.65 8-2.4 1.7-3.45 1.3-1-.4 1.55-1.95 2-1.2 8.25-8.5 6.65-7.75 10.2-13.4m15.5 23.65q1-2.35 1.45-1.55.5.8-.35 3.7-1.25 4.3-2.35 6.6-1.2 2.5-3.7 5.95-1.55 2.15-2.4 2.3-.8.15.4-2.05 3.55-6.25 6.95-14.95m57.75-33.6q-1.15-3.45-.35-4.5.8-1.1 1.95 2.35 3.45 10.4 12.95 24.1 8.75 12.8 20.15 24.75 11.35 11.95 21.1 18.7 10.45 7.25 15.7 6.05l1.25-.8 1.15-1.65q1.4-2.2 2.55-3.35 2.1-1.95 5.2-2.95 3.1-.95 8.95-1.35 8.55-.65 12.8-3.5 4.25-2.8 3.65-7.35l-.2-2.65q.05-1.6.7-2.85 1.35-2.7 4.25-4.45 1.85-1.05 5.75-2.4 5.1-1.8 7.3-3.4 3.7-2.65 5.05-7.4.9-3.15-.1-6-.65-1.7-2.7-4.6-3.1-4.35-2.85-8.25.25-4.1 4.2-9.8 2.85-4.2 1.25-4.95-1.2-.65-4 .7-5.65 2.6-9.7 3.65-28.35 7.35-59.9 4.1-14.5-1.5-24.8-5.1-10.8-3.8-14.6-9.2-1.75-2.45-1.15-3.05.55-.65 2.65 1.5 10.25 10.45 39.55 13.35 30.4 3 58.3-4.9 5.85-1.7 8.9-3.1 6.15-2.8 8.2-.45 2.05 2.4-2 8.6l-2.2 3.35q-1.4 2.6-2.05 6-.3 1.5.8 3.3.6 1.05 2.3 3.15 2.4 3.45 3.05 5.2 1.3 3.35.25 7-1.55 5.35-6 8.45-2.65 1.8-9.15 4.1-5.35 1.9-7.25 4.15-1.9 2.3-1.4 6.25 1 7.25-3.85 10.05-3.75 2.2-14.45 3-7.55.55-9.6 1.45-2.75 1.15-5.6 5.7l-1.7 2.6q-1.25 1.5-2.4 1.75-5.6 1.3-16.25-5.8-10-6.65-21.5-18.65-11.55-12.05-20.6-25.25-9.7-14.2-13.55-25.65"/><path fill="#0d131a" d="M166.85 281.2q-1-3.05-.25-4.15.75-1.15 1.75 1.9 4 12.5 18.15 29.6 15.5 18.8 30.35 26.25 2.45 1.25 2.05 2-.35.8-2.85-.35-16.3-7.55-31.55-25.9-13.4-16.15-17.65-29.35m11.6-9.4q-.75-1.65-.1-1.7.6-.05 2.05 1.3l6.7 6.2q4.95 4.5 6.05 5.2-5.4-.85-6.65-2.05-7-6.75-8.05-8.95m88.2 17.8q1.9-1.85 1.9-.7 0 1.1-1.9 2.95-8.6 8.3-25.95 11.15-17.35 2.8-31.95-1.7-2.65-.8-2.4-1.65l2.9-.05q12.35 3.8 30.3 1 18.8-2.95 27.1-11"/><path fill="#0d131a" d="M216.65 322.15q12.7 5 23.8 5.3 2.6.05 1.75.85-.8.8-3.35.7-13.15-.35-24.85-5.35-9.35-4-15.05-9.55-2.3-2.2-1.65-2.85.6-.65 2.9 1.55 5.1 4.9 16.45 9.35m-43.4-255.5q10.45 11.8 27.1 24.7 2.4 1.85 1.85 2.3-.6.45-3.1-1.3-16.55-11.8-28-24.5-14.05-15.65-17.45-29.9-.65-2.75-.1-3.8.55-1.05 1.35 1.6 4.6 15.3 18.35 30.9M135.9 38.4q-1-1.7-.9-3 .05-1.35 1.05.35 2.5 4.2 10.35 12.75 9.1 9.85 15.45 13.95 2.4 1.55 2 2.2-.35.65-2.8-.8-7.65-4.5-15.1-12.35-6.4-6.8-10.05-13.1m56 58.8q1.65.4 2.35 1.25.7.85-.95.5-19.9-4.2-33.1-2.6-8.35 1-24.8 6.9-2.6.9-1.8-.2.8-1.05 2.95-2.05 13.7-6.1 24.3-7.2 13.25-1.35 31.05 3.4"/><path fill="#0d131a" d="M185.5 99.35q2.15-.2 2.65.3.55.55-1.5.9-5.65 1.1-11 4.55-5.25 3.45-8.1 7.8-1.1 1.7-1.6 1.65-.45-.05.2-2.05 1.4-4.3 7.2-8.4 6.05-4.25 12.15-4.75M71.45 240.3q0-2.05 7.6-1.8 7.5.2 7.45 2.3-.05 2.05-7.6 1.85-7.5-.25-7.45-2.35m50.2-22.6q2.75 5.65 1.8 18.1l-.45 2q-.3.5-.95.7-2.45.8-7.55.8l-7.75-.75q-1.1-.3-1.4-.7-.3-.35-.4-1.4-1.2-12.5 1.9-18.65 2.4-4.7 6.65-4.9 5.65-.25 8.15 4.8m-63.5 20.65L53 237.3q-2.8-.9-2.95-2.3-1-9.8.95-15.95 1.65-5.3 4.5-5.65 4-.5 5.25 5.2 1.1 5 .45 16.9-.1 2.25-.6 2.7l-2.45.15"/><path fill="#fff" d="M111.6 219.95q0-2.1 1.05-3.55 1.15-1.6 3.05-1.6 2 0 3.15 1.8 1 1.5 1 3.35 0 2.35-1 3.85-1.15 1.65-3.15 1.65-1.8 0-2.95-1.7-1.15-1.6-1.15-3.8m-57.45 0q.05-2.35.9-3.6.75-1.05 1.7-1 1.1 0 1.8 1.35t.65 3.35q-.05 1.95-.7 3.1-.65 1.25-1.8 1.25-1.1-.05-1.85-1.3-.75-1.3-.7-3.15"/><path fill="#0d131a" d="M80.55 175.9l-4.15 10.8q-1.1 3.15-2.25 2.2-1.15-.95-.05-4.1.7-1.9 4.35-10.15l4.2-9.5q1.5-3.5 2.7-3.55 1.4 0 3.4 4.1l9.65 19q1.15 3-.15 3.5-1.3.5-2.45-2.5l-8.7-19.3q-.75-1.85-1.25-2-.5-.15-1.25 1.45-.7 1.4-4.05 10.05"/><path fill="#8a969d" d="M78.3 240q0 .65-2.3.65l-1.65-.2-.65-.45q0-.25.65-.45l1.65-.2 1.65.2.65.45"/></svg>