<svg xmlns="http://www.w3.org/2000/svg" width="293" height="265" viewBox="-0.65 -4.15 293.45 264.75"><path fill="#8b92c7" d="M192.4 185.6q-1.95 1.75-4.65 2.6l-6.15.5q1.7 2.3 2.85 4.7 2.85 5.9 2.7 12.35-.2 3.5-1.3 5.95-1.1 2.25-2.75 3.35-3.5 2.4-8.2 2.05-4.9-.4-7.9-3.65-1.9-2.05-4.15-9.25-2-6.35-5.6-8.7-3.55.2-5.45 1.3-2.1 1.2-3.15 3.85.45 2 1.95 6.65 1.3 4.5 1.2 8.15-.15 3.7-1.1 6.6-1.4 4.4-4.4 6.85-3.1 2.5-7.15 2.25-5.1-.35-7.7-4.4-1.6-2.55-2.4-6.95-.5-3.1-.8-8.55l-.3-2.2q-.65-3.55-2.85-6.9-1.85-9.45 4.95-16.05.95-.9 2.05-5.8 1.15-5 5.1-8.9 6.25-6.35 16.55-8.75-5.3-1.7-11.6.5-5.45 1.9-10.25 6.25-4 4.05-6 10.8l-2.65 9.1q-1.95 5.2-4.8 6-2.1-1.5-4.55-2.35-2.75-2.35-4.65-4.8-2.4-3.1-2.65-5.45l-1.3-6.35q-.85-3.65-.4-6.35.7-4 2.2-6.85 2.05-3.9 5.1-4.45l2.35-1.4q1.3-1.15 3.25-1.1.85.05 2.95-1.2 2.15-1.25 4.35-1.25l4.3-1 11.8-.8 3.25 2.5q1.95 1.35 4.55 2.55 9.25 4.35 25.85 5.4 10.35.75 15.95 6.25 2.4 2.4 3.7 5.45.65 1.55.95 3.4.4 2.2-.45 4.35-.8 2.1-2.6 3.75M81.35 82.1q3.7-.35 12.05-4.65 7.85-3.05 13.5 1.2-3.5 10.65-2.75 22.3 1.05 16.05 9.4 28.9-4.2-2.2-6.35-3.55-3.3-2.1-5-3.9l-1.5-1.85-2.5-3.7Q90.05 112 82 114.9q-7.6 2.75-11.7 10.95-2.7 5.3-3.65 12.7-1.05 8.15.9 13.55l2.25 5.9q1.2 3.55 1.8 6.9l.65 5.6q.35 8.5.15 15-3.2-2.35-6.4-9.35-3.95-8.55-4.75-9.65-1.85-2.55-10.3-1.4-8.9 1.2-12.05-1.75-15.55-14.45-5.65-34.1 3.25-2.1 5-3.85.1-3.4-1.85-8.4-2.55-6.5-2.95-8.4-2.35-10.7 9.4-22.95 6.1-6.3 11.8-14.3 4.15-5.8 9.6-14.75-.4 9.6 4.5 17.65 5.25 8.6 12.6 7.85"/><path fill="#8b92c7" d="M187.25 22.2q10.25 11.15 12.1 24.85 1.85 13.45-5.55 20.15-4.2 3.8-10.1 5.55-5.55 1.65-11.85 1.4-4.2-.15-8.45-1.15-5.9-1.4-11-4.35-9.5-5.45-14.85-6.75-4.85-1.2-10.25.25-6.8 1.8-11.3.3-4.95 5.5-7.95 13-5.75-4.9-13.05-3.3-7.9 2.8-11.75 3-6.95.35-11.8-8Q67.1 59.7 67.3 51.6l5.7-9.9q3.4-5.9 6-9.55-1.25 5.65 3.85 11.15Q88 48.8 94.2 48.1q3.05-.35 7.8-3.7 4-2.9 8.95-2.3l.4.6q.4.3.45.7 8.45 7.6 15.45 8.85 7.35 1.3 11.65-4.65l.15-.2q2.65-.3 4.15.75.9.7 2.1 2.7 2.6 4.6 6.95 5.45 5.3 1.1 10.4-.5 5.15-1.6 8.2-5.45-4.45 2.25-8.4 2.7l-8.3-.55q-1.9-.4-3-2.25l-1.6-3.7q-2.35-4.8-9.65-4.35.5-7.75-2.85-14.55-3.75-7.55-10.85-10.5-6.7.4-11 5.6-4.35 5.2-5.2 13.85-5.05.2-7.15 2.1-2.3 2.05-5.85 2.4-5.9.55-9.75-4.05-3.35-4-3.7-9.55 12.8-14.7 31.3-21.35Q135.2-1.2 154.9 4.4q21.75 6.2 32.35 17.8"/><path fill="#797fad" d="M87.25 37.05q3.85 4.6 9.75 4.05 3.55-.35 5.85-2.4 2.1-1.9 7.15-2.1-.1.95.4 2.65l.55 2.8q-5.25-.4-9.2 2.45-4.55 3.25-7.55 3.6-6.2.7-11.35-4.8-5.1-5.5-3.85-11.15l.2-.3 2.1-2.2 2.25-2.15q.35 5.55 3.7 9.55"/><path fill="#8b92c7" d="M125.6 137.7l.55.25 5.5 5.2 6 5.65q-5.4-2.35-10.2-1.75-3.8.5-5.6 2.3-.7.65-5.45 2.05t-6.25 2.85q-3.4 3.3-5.3 5.95-3.3 4.6-3.65 8.95-.3 3 .85 7.4l1.6 6.75q.15 1.35 1.25 3.3 1.05 1.9 1.2 3.3-4.8-2.3-8.95-5.4 0-1.25-1.1-3.05l-1.75-2.95q-1.1-2.1-1.7-4.45-1.5-4.75-1.95-7.45-.85-4.5 0-10.75.7-5.45 2.05-8.2 2.65-5.35 8.55-7 3.4-.95 10.85-2.05 6.1-1.65 13.5-.9"/><path fill="#cea6cc" d="M148.4 109.3q1.65 3.25 3.1 5.05 12.5 15 3.8 25.85l-.35.15q-6.45 2.05-14.25 1.35-7.7-.65-14.55-3.75l-.25-.25-3.3-2.75-.4-.3q-2.05-1.4-8.65-4.8-8.35-12.85-9.4-28.9 4.5-3.35 9.7-3.45 3.7-.05 8.7 1.65 7.85-2.25 14.25-1.7 5.55.45 8.95 6.5l2.65 5.35"/><path fill="#8b92c7" d="M87.85 190q3.05-8.25 5.85-8.2l3.45 2.7q4.15 3.1 8.95 5.4 3.8 1.85 6.8 2.7l1 .35q2.45.85 4.55 2.35 4 2.65 6.65 6.85 2.2 3.35 2.85 6.9-6.8-.15-13.8-2.55-5.35-1.85-9.05-4.3l-5.2.15q-2.9 2.3-4.35 2.75l-4.25-.55q-3.55-1.05-6.1-1l-.1-1.5q0-4.55 2.75-12.05m31.55-56l-3.35-.65-2.5-3.5q6.6 3.4 8.65 4.8l-2.8-.65"/><path fill="#797fad" d="M121.7 134.05q2.05 1.55 3.9 3.65-7.4-.75-13.5.9-7.45 1.1-10.85 2.05-5.9 1.65-8.55 7-1.35 2.75-2.05 8.2-.85 6.25 0 10.75.45 2.7 1.95 7.45.6 2.35 1.7 4.45l1.75 2.95q-2.8-1.3-4.4-5.2-1.35-4.15-2.05-5.25-3.25-5-4-12.55-1.1-10.6 4.95-17.85 4.2-5.05 10.2-6.85 6.35-1.9 15.3-.4l5.65.7m53.25-1.95q.8-5.8-1.45-12.05-.15-6.5 2.95-10.9t8.9-5.8q-5.85 4.55-7.15 15.35l-.85 7.75q-.7 3.9-2.4 5.65m-7.9 44q8 4.55 13 10.55-9.8-9.05-19.9-7.4-9.25 1.55-12.05 10.05.35-8.95 7.3-12.25 5.45-2.6 11.65-.95m-39.1 32.95l.15.9q-6.2 1.75-13.25-.5l-9.2-3.7q-3.6-1.2-6.55.15-2.95 1.95-4.4 2.6-1.3.6-3.55 0l-4.75-.95q-.9-1.75-1.2-4 2.55-.05 6.1 1l4.25.55q1.45-.45 4.35-2.75l5.2-.15q3.7 2.45 9.05 4.3 7 2.4 13.8 2.55"/><path fill="#0d131a" d="M162.6 111.75q4.7 8.65 2.65 17.1-2.1 8.65-9.95 11.35 8.7-10.85-3.8-25.85-1.45-1.8-3.1-5.05l-2.65-5.35q-3.4-6.05-8.95-6.5-6.4-.55-14.25 1.7-5-1.7-8.7-1.65-5.2.1-9.7 3.45-.75-11.65 2.75-22.3l1.15-3.2q3-7.5 7.95-13 4.5 1.5 11.3-.3 5.4-1.45 10.25-.25 5.35 1.3 14.85 6.75 5.1 2.95 11 4.35-4.75 7.15-5.5 16.9-.9 11.55 4.7 21.85"/><path fill="#8b92c7" d="M151.8 196.8q1.9-1.1 5.45-1.3 3.6 2.35 5.6 8.7 2.25 7.2 4.15 9.25-4.75 1.6-8.9 4.3-3.3 2.3-7.4 4.3.95-2.9 1.1-6.6.1-3.65-1.2-8.15-1.5-4.65-1.95-6.65 1.05-2.65 3.15-3.85"/><path fill="#797fad" d="M78.3 122.2q-.3.8-1.05 3.75-1.05 2.85-3.15 4.2-1.9 1.3-3.1 6.6-1.25 5.8-1 14.05.05 1.75.95 7.3.8 4.9.65 6.8-.6-3.35-1.8-6.9l-2.25-5.9q-2.05-5.5-.95-13.65.95-7.2 3.7-12.6 4.1-8.2 11.7-10.95 8.05-2.9 16.2 1.95l2.5 3.7q-2.35-1.7-5.55-2.9-3.65-1.4-5.8-1-3.15.55-6.9 2.45-3.7 1.9-4.15 3.1m178.5-9.7q1.25 2.55 1.9 5.8-3.1-4.75-5.65-7.25-2-1.9-3.4-2.25-3.65-.8-6.65.4-1.95.75-6.7 4.05 4.5-10.95 15.95-6.25l.15.05q1.75 1.5 3.1 3.25l1.3 2.2"/><path fill="#797fad" d="M265.6 93.7q4.15 1.25 8.5 3.3-9-2.3-14.3 3.05-4.2 4.2-4.3 10.25-1.35-1.75-3.1-3.25l-.15-.1q-.95-5.7 2.75-9.55 3.85-4 10.6-3.7m-35.85 1.15q2.95-1.15 5.7-1.95-2.9 2.1-5.35 4.85l-3.9 4.9q-1.05 1.45-1.9 5.85-.75 3.85-2.15 4.85l-8.7 5.5q-4.3 2.65-5.1 3.85-1.85 2.85-1.45 6.75.1.9.9 2.3l1.25 2.45q-.75-.65-2.1-1.2l-2.55-1.1q-1.65-2.7-1.15-6 .4-2.95 2.7-7.35.5-.95 6.55-4.7 5.8-3.55 7.05-6.9 2.05-5.45 4.7-7.75l5.5-4.35"/><path fill="#8b92c7" d="M198 140.3l-.25-.45h.2l.05.45"/><path fill="#797fad" d="M120.75 155q-2.1 1.25-2.95 1.2-1.95-.05-3.25 1.1l-2.35 1.4q-3.05.55-5.1 4.45-1.5 2.85-2.2 6.85-.45 2.7.4 6.35l1.3 6.35q.25 2.35 2.65 5.45 1.9 2.45 4.65 4.8l-1-.35q-3-.85-6.8-2.7-.15-1.4-1.2-3.3-1.1-1.95-1.25-3.3l-1.6-6.75q-1.15-4.4-.85-7.4.35-4.35 3.65-8.95 1.9-2.65 5.3-5.95 1.5-1.45 6.25-2.85 4.75-1.4 5.45-2.05 1.8-1.8 5.6-2.3 4.8-.6 10.2 1.75l3.55 3.15-11.8.8-4.3 1q-2.2 0-4.35 1.25m53.75-63.4q3.25 2.05 6.35 3.55-8.7-.25-11.55 3.3-2.25 2.85-1.85 10.45l-.3-.45q-1.6-2.25-2.75-5.1.35-5.55 3.65-8.7 2.55-2.4 6.45-3.05m-97.7 4.1q-3.6-.15-6.9 2.05-3.85 2.6-6.1 7.75 1.5-10.1 9.2-12.85Q80.45 90 89.2 95.8q.55 3.3 2.35 7.85-4.95-3.9-7.9-5.6-3.85-2.2-6.85-2.35m55.1 73.7q4.8-4.35 10.25-6.25 6.3-2.2 11.6-.5-10.3 2.4-16.55 8.75-3.95 3.9-5.1 8.9-1.1 4.9-2.05 5.8-6.8 6.6-4.95 16.05-2.65-4.2-6.65-6.85 2.85-.8 4.8-6l2.65-9.1q2-6.75 6-10.8"/><path fill="#8b92c7" d="M192.4 185.6q1.8-1.65 2.6-3.75.85-2.15.45-4.35-.3-1.85-.95-3.4.85-1.65 6.1-5.35 4.85-3.35 5.1-5.4.25-2-1.7-4.65-1.95-2.7-5.9-5.7l11.05 2.45q5.8 1.45 8.25 3.9 3.3 3.3 2.3 8.35l1.6 1.6q.6 1.2 2.9 4.05 1.75 2.15 1.8 3.65.15 2.65-.55 4.6-.75 1.95-2.15 2.75-2.65 1.6-13.7 2.5-12.25 1-17.2-1.25"/><path fill="#797fad" d="M207.75 100.25l3.6-.25q-1.8 1.55-8.1 5-5.9 3.15-7.35 4.8-1.05 1.2-1.9 3.85-.75 2.45-.75 4.15l-1.35.15q-1.35.8-1.1 5.6.05.7 3.65 6.15 3.5 5.3 3.5 10.15h-.2q-2.05-4.4-5.3-9.8l-4.95-7.9q-1.9-3-.1-8 1.55-4.3 4.45-7.2 1.8-1.8 7.55-3.6 6.65-2.1 8.35-3.1"/><path fill="#8b92c7" d="M162.4 94.2q-.25-5 1.25-9.4l10.85 6.8q-3.9.65-6.45 3.05-3.3 3.15-3.65 8.7-1.75-4.4-2-9.15m6.9 4.25q2.85-3.55 11.55-3.3 8.8 4.3 17.25 4.95 5.45.35 9.65.15-1.7 1-8.35 3.1-5.75 1.8-7.55 3.6-2.9 2.9-4.45 7.2-1.8 5 .1 8l4.95 7.9q3.25 5.4 5.3 9.8-3.45-.6-7.85-2.1-4.7-1.6-7.25-2.1-2.2-.45-2.75 1.9-.65 2.65 2.45 6.4 3.8 4.6 9.8 7.1 6.8 4.6 5.4 10-1.15 4.4-6.75 7.6-5.6-5.5-15.95-6.25-16.6-1.05-25.85-5.4 1.9-4 3.85-5.25l8.05-1.95q8.25-2.7 10.6-7.45 2.7-5.45 3.45-10.25 1.7-1.75 2.4-5.65l.85-7.75q1.3-10.8 7.15-15.35-5.8 1.4-8.9 5.8-3.1 4.4-2.95 10.9-1.8-4.95-6.05-11.15-.4-7.6 1.85-10.45"/><path fill="#8b92c7" d="M267.65 189.6q.8 1.4 3.7 2.6l5.4 2.2q6.7 3.1 4.9 9.4-1.5 5.35-10.8 6.75-12.45 1.05-19.6 2.95-11 3-16.9 7.65-5.9 4.65-6 10.5-.4 20.05-13.85 23.55-11.8 3.1-23.15-.05-10.15-2.85-23.85-12.05-7.85-5.25-20.5-3.85-12.85 2.45-16.9 2.25-5.3-.25-14.05-4.9-10.15-5.35-16.05-6.7-4.15-.95-10.55-.1l-12.85 2.4q-19.3 4.05-31.85 3-10-.8-18.6-2.75-10.15-2.3-16.05-5.75 8 2.6 19.75 2.45 13.4-.15 18.4-4.45 1.4-1.2 3.35-5.15 2.2-4.5 4.25-6.95 4.6-5.55 13.2-4.85l1.2-3.5q1.55-6.1 2.05-15.25l.1-3.5q.2-6.5-.15-15l-.65-5.6q.15-1.9-.65-6.8-.9-5.55-.95-7.3-.25-8.25 1-14.05 1.2-5.3 3.1-6.6 2.1-1.35 3.15-4.2.75-2.95 1.05-3.75.45-1.2 4.15-3.1 3.75-1.9 6.9-2.45 2.15-.4 5.8 1 3.2 1.2 5.55 2.9l1.5 1.85q1.7 1.8 5 3.9 2.15 1.35 6.35 3.55l2.5 3.5q-8.95-1.5-15.3.4-6 1.8-10.2 6.85-6.05 7.25-4.95 17.85.75 7.55 4 12.55.7 1.1 2.05 5.25 1.6 3.9 4.4 5.2 1.1 1.8 1.1 3.05l-3.45-2.7q-2.8-.05-5.85 8.2-2.75 7.5-2.75 12.05l.1 1.5q.3 2.25 1.2 4l4.75.95q2.25.6 3.55 0 1.45-.65 4.4-2.6 2.95-1.35 6.55-.15l9.2 3.7q7.05 2.25 13.25.5l.15 1.3q.3 5.45.8 8.55.8 4.4 2.4 6.95-8.35.05-15.45-3.55 5.3 10.25 19.6 9.7 13.05-.5 24-8.75 8.05-6.05 19.55-6.05 4.8 0 22.35 3.5 16.6 2.1 22.85-4.1 1.15-1.15 1.15-3.7l-.3-4.95q-.25-6.55 4.75-8.4 5.7-2.1 17.4-3.45 7.05-.85 9.05-5 1.9-3.95-1-7.75-2.45-3.1-7.65-5.6l3.65.3q11.05.7 14.15 4.7 1.65 2.2 2.1 5.95"/><path fill="#797fad" d="M224.65 195.25l11-1q7.05-.35 10.95-2 3.4-1.4 4.4-4.8 1-3.25-1-5.25-1.2-1.2-4-2.45l-4.4-2 6.15.9q5.2 2.5 7.65 5.6 2.9 3.8 1 7.75-2 4.15-9.05 5-11.7 1.35-17.4 3.45-5 1.85-4.75 8.4l.3 4.95q0 2.55-1.15 3.7-6.25 6.2-22.85 4.1-17.55-3.5-22.35-3.5-11.5 0-19.55 6.05-10.95 8.25-24 8.75-14.3.55-19.6-9.7 7.1 3.6 15.45 3.55 2.6 4.05 7.7 4.4 4.05.25 7.15-2.25 3-2.45 4.4-6.85 4.1-2 7.4-4.3 4.15-2.7 8.9-4.3 3 3.25 7.9 3.65 4.7.35 8.2-2.05 1.65-1.1 2.75-3.35 4.35.45 8.5 1.6 3.2.85 5.1 1.75 7.15 3.3 14.9.65 8.3-2.8 6.5-9.95-1.35-5.2-.5-7.45.8-2.2 4.3-3.05"/><path fill="#8b92c7" d="M235.65 194.25l-11 1q-3.5.85-4.3 3.05-.85 2.25.5 7.45 1.8 7.15-6.5 9.95-7.75 2.65-14.9-.65-1.9-.9-5.1-1.75-4.15-1.15-8.5-1.6 1.1-2.45 1.3-5.95.15-6.45-2.7-12.35 2-.8 19.3-1.5 16.95-.7 22.55-3.2 3-1.3 5.35-3.75 2.7-2.8 2.15-4.95-.4-1.5-3.7-3.85-3.75-2.7-4.6-3.95 6.5 3.75 16.1 5.55l4.4 2q2.8 1.25 4 2.45 2 2 1 5.25-1 3.4-4.4 4.8-3.9 1.65-10.95 2"/><path fill="#797fad" d="M200.6 168.75q-5.25 3.7-6.1 5.35-1.3-3.05-3.7-5.45 5.6-3.2 6.75-7.6 1.4-5.4-5.4-10l5.95 1.95q3.95 3 5.9 5.7 1.95 2.65 1.7 4.65-.25 2.05-5.1 5.4"/><path fill="#8b92c7" d="M265.6 93.7q-6.75-.3-10.6 3.7-3.7 3.85-2.75 9.55v.05q-11.45-4.7-15.95 6.25 4.75-3.3 6.7-4.05 3-1.2 6.65-.4 1.4.35 3.4 2.25 2.55 2.5 5.65 7.25-.65-3.25-1.9-5.8l-1.3-2.2q.1-6.05 4.3-10.25 5.3-5.35 14.3-3.05 8.15 3.9 11.8 8.55 3.6 4.7 4.75 10.5 1.35 7.1-3.4 9-5.4 2.1-11.8-.95-4.8-2.3-7.45-5.65-.6-.8-2.05-1.3l-3.2-.45q-.6 4.05.45 6.2.9 1.9 4.35 4.8 3.7 3.2 5.65 6.05l-2.25-.5-4-1.65q-2.85-1.15-5.35 0-2.9 1.35-4.15 3.05-1.55 2-1.6 5.45 2.65-3.45 4.75-4.7 2.35-1.35 5.4-1 2.6.35 4.45 2.05 1.85 1.65 1.85 3.5 0 .45 1.25 2.45l1.85 3.1-.45 2.1q-1.35 5.5-6.3 6.65-4.45 1.05-8.25-1.8-1.45-1.15-2.85-3.45l-2.3-4.05-4.65.25-1.6 1.45q-1.05 1.05-2.65 1.15l-3.9-.6q-3.45-.85-5.05-1l-3.65-3.3q-2.55-2.35-2.2-4.95.55-3.9-.4-6.85-1.45-4.35-6-5.8 2.6 3.55 2.7 7.45.05 2.1-.9 5.5-1.25 4.75 5.35 8.55l-.3.15q-2.9 2.05-4.65 2.85-3.05 1.4-7.2.5-2.65-.55-4.85-3.75-1.5-2.1-3.1-6.05l-1.6-4.05q-.5-1.3-1.55-2.25l-1.25-2.45q-.8-1.4-.9-2.3-.4-3.9 1.45-6.75.8-1.2 5.1-3.85l8.7-5.5q1.4-1 2.15-4.85.85-4.4 1.9-5.85l3.9-4.9q2.45-2.75 5.35-4.85 3.6-1.05 7.05-1.55 10.6-1.5 23.1 2.35"/><path fill="#797fad" d="M257.45 134.65q1.25-1.7 4.15-3.05 2.5-1.15 5.35 0l4 1.65 2.25.5q3.3 5 2.2 11.75l-1.85-3.1q-1.25-2-1.25-2.45 0-1.85-1.85-3.5-1.85-1.7-4.45-2.05-3.05-.35-5.4 1-2.1 1.25-4.75 4.7.05-3.45 1.6-5.45"/><path fill="#8b92c7" d="M221.45 97.9l8.3-3.05-5.5 4.35q-2.65 2.3-4.7 7.75-1.25 3.35-7.05 6.9-6.05 3.75-6.55 4.7-2.3 4.4-2.7 7.35-.5 3.3 1.15 6l2.55 1.1q1.35.55 2.1 1.2 1.05.95 1.55 2.25l1.6 4.05-14.25-.65q0-4.85-3.5-10.15-3.6-5.45-3.65-6.15-.25-4.8 1.1-5.6l1.35-.15q0-1.7.75-4.15.85-2.65 1.9-3.85 1.45-1.65 7.35-4.8 6.3-3.45 8.1-5 5.1-.55 10.1-2.1"/><path fill="#797fad" d="M231.55 137.95q-.35 2.6 2.2 4.95l3.65 3.3q-3.25-.25-5.1.6-6.6-3.8-5.35-8.55.95-3.4.9-5.5-.1-3.9-2.7-7.45 4.55 1.45 6 5.8.95 2.95.4 6.85m-47.1 55.45q-1.15-2.4-2.85-4.7l6.15-.5q2.7-.85 4.65-2.6 4.95 2.25 17.2 1.25 11.05-.9 13.7-2.5 1.4-.8 2.15-2.75.7-1.95.55-4.6-.05-1.5-1.8-3.65-2.3-2.85-2.9-4.05 2 1.65 4.2 2.9.85 1.25 4.6 3.95 3.3 2.35 3.7 3.85.55 2.15-2.15 4.95-2.35 2.45-5.35 3.75-5.6 2.5-22.55 3.2-17.3.7-19.3 1.5"/><path fill="#fff" d="M185.1 47.45q-3.55-3.4-6.5-13-3-9.9-1.15-13.75 4.85-.85 10.65 6.25 5.1 6.15 6 10.8 1.25 6.2-2 9-2.95 2.55-7 .7"/><path fill="#797fad" d="M162.45 53.05q3.95-.45 8.4-2.7-3.05 3.85-8.2 5.45-5.1 1.6-10.4.5-4.35-.85-6.95-5.45-1.2-2-2.1-2.7-1.5-1.05-4.15-.75h-.1q.7-2.25.95-5.2 7.3-.45 9.65 4.35l1.6 3.7q1.1 1.85 3 2.25l8.3.55"/><path fill="#8b92c7" d="M163.4 73q4.25 1 8.45 1.15Q166 78 163.65 84.8q-1.5 4.4-1.25 9.4.25 4.75 2 9.15 1.15 2.85 2.75 5.1l.3.45q4.25 6.2 6.05 11.15 2.25 6.25 1.45 12.05-.75 4.8-3.45 10.25-2.35 4.75-10.6 7.45l-8.05 1.95Q150.9 153 149 157q-2.6-1.2-4.55-2.55l-3.25-2.5-3.55-3.15-6-5.65-5.5-5.2q6.85 3.1 14.55 3.75 7.8.7 14.25-1.35l.35-.15q7.85-2.7 9.95-11.35 2.05-8.45-2.65-17.1-5.6-10.3-4.7-21.85.75-9.75 5.5-16.9"/><path fill="#797fad" d="M57.35 206.15q6-2.25 12.9-1.9l-1.2 3.5q-8.6-.7-13.2 4.85-2.05 2.45-4.25 6.95-1.95 3.95-3.35 5.15-5 4.3-18.4 4.45-11.75.15-19.75-2.45-6.55-3.75-7.35-8.6-.5-3.1.6-5.5.95-2 3.25-3.85 2 8.1 12.8 11 10.1 2.65 22.2-.35 3.5-.9 8.2-6.4 4.95-5.85 7.55-6.85m-32.3-67q1-3.65 3.35-6.15 1.4-1.45 4.85-3.75-9.9 19.65 5.65 34.1 3.15 2.95 12.05 1.75 8.45-1.15 10.3 1.4.8 1.1 4.75 9.65 3.2 7 6.4 9.35l-.1 3.5q-5.8-1.1-9.6-8.9l-2.75-5.7q-1.6-2.85-3.45-3.65-1.9-.85-8.2.55l-8.85.4q-2.7-1.1-6.15-5.45-3.35-4.2-4.6-7.8-2.55-4.75-3.6-7.65-1.85-5.15-.05-11.65"/><path fill="#8b92c7" d="M29.5 161.55q0-1-.5-2.25 1.75 3.6 4.6 7.2 3.3 4.15 5.85 5.2l8.85-.4q6.3-1.4 8.2-.55 1.85.8 3.45 3.65l2.75 5.7q3.8 7.8 9.6 8.9-.5 9.15-2.05 15.25-6.9-.35-12.9 1.9-2.6 1-7.55 6.85-4.7 5.5-8.2 6.4-12.1 3-22.2.35-10.8-2.9-12.8-11l7.6-4.85q4.7-3.1 6.45-6.6-4.65-3.35-6.7-7.65-1.9-4.05-1-7.85 1.3-5.7 8.55-9.8l4.95-3.15q2.3-1.95 2.8-4.65l.25-2.65"/><path fill="#797fad" d="M83.25 75.15q3.85-.2 11.75-3 7.3-1.6 13.05 3.3l-1.15 3.2q-5.65-4.25-13.5-1.2-8.35 4.3-12.05 4.65-7.35.75-12.6-7.85-4.9-8.05-4.5-17.65l3.05-5q-.2 8.1 4.15 15.55 4.85 8.35 11.8 8"/><path fill="#fff" d="M126.2 17.15q7.1 2.95 10.85 10.5 3.35 6.8 2.85 14.55-.25 2.95-.95 5.2-5.85 7.8-16.15 4.05-6.45-2.3-11.15-6.95-2.15-2.05-1.65-7.9.85-8.65 5.2-13.85 4.3-5.2 11-5.6"/><path fill="#b390b1" d="M108 98.75q3.6-1.5 7.65-1.2 3 .25 6.9 1.6 7.85-2.25 14.25-1.7 5.55.45 8.95 6.5l2.65 5.35q1.65 3.25 3.1 5.05 11.35 13.55 5.4 23.55-8.2-14.4-20.75-24.65-13.1-10.65-28.15-14.5"/><path fill="#797fad" d="M175.15 128.6l-.2 3.5q-.75 4.8-3.45 10.25-2.35 4.75-10.6 7.45l-8.05 1.95Q150.9 153 149 157q-2.6-1.2-4.55-2.55l-3.25-2.5-3.55-3.15-3.7-3.05q11.5 4.8 23.6.65 13.4-4.6 17.6-17.8m-144.5 80q-8.2.05-16.5-3.5l3.2-3.35 2.85-3.65q6.35 4.05 17.1 5.6l15.2.75q-13 4.1-21.85 4.15m201.8-88q2.6 1.45 3.7 2.7.85.95 3.8 6.35 3.9 4.8 10.4 4.05 10.5-1.2 8.9-16.35.85-.7 3.5-.3-.45 3.15.15 5.05.55 1.8 2.45 3.65l2.85 2.8 2.95 2.6 2.05 2.6-2.25-.5-4-1.65q-2.85-1.15-5.35 0-2.4 1.05-3.65 2.4-2.2.7-4.55 2.4l-4.05 3.05q-1.7 1.15-4.3 1.05l-4.5-.6-4.55-.45-4.4-.1q-.15-.6-.05-1.4.55-3.9-.4-6.85-1.45-4.35-6-5.8 2.6 3.55 2.7 7.45.05 2.1-.9 5.5l-.15.8q-5.3-.75-7.85-4.4-2.6-3.75 2.25-9.9 4.6-5.9 8.1-5.5.9.15 3.15 1.35"/><path fill="#63688f" d="M270.95 133.25l2.25.5 1 1.8q-8.35-4.05-16.25-1.55 1.25-1.35 3.65-2.4 2.5-1.15 5.35 0l4 1.65m-39.4 4.7q-.1.8.05 1.4l-4.8-.3.15-.8q.95-3.4.9-5.5-.1-3.9-2.7-7.45 4.55 1.45 6 5.8.95 2.95.4 6.85"/><path fill="#797fad" d="M152.6 196.7q-2.95 1.45-3.95 3.95-1.3-5.35 1.05-6.75 2.05-1.2 7.8 1.55-2.4 0-4.9 1.25m15.5-20.35q10.2 5.35 15.05 6.5 6.2 1.45 11.8-1.35 0 3.5-5.2 6.15-4.75 2.45-6.8 1.65l-7.7-7.35q-3.35-2.9-7.15-5.6m-84.45-6.75q.6 1.85 3.75 6.2 3.45 4.85 5.35 5.75-1.65.7-4.05 6.4-2.65 6.35-3.55 13.15-1.5-1.95-1.15-12 .45-13.25-.35-19.5"/><path fill="#797fad" d="M160.95 197.45q3.85 2.9 5.9 7.4 3.25 7.15 11 7.15 7.4 0 9.6-5.65l-.05 1.55q-.2 1.85-1 3.5-2.55 5.2-10 6-5.05.55-8.7-2.65-3-2.6-4.1-6.65-2.75-10.15-6.1-12.65l3.45 2m-8.45 19.25l-.5 2.35q-.8 2.8-2 5.15-3.95 7.5-11.15 7.35-7.2-.15-9.8-9.7-.8-3-1.05-6.55l-.1-2.95q3.3 11 12.2 11.4 3.65.15 7.1-1.8 3.4-1.9 5.3-5.25M283.85 126q-5.55.25-10.2-2.3-3.25-1.8-4.8-4-1-1.4-3.35-2.2l-6.25-.15-1.9-4.55 3-.6 5.9-.3q2.35.25 6.45 2.25l7 3.4q8.4 3.55 11.3-2.15l.45 1.6q.45 1.95.2 3.55-.75 5.2-7.8 5.45m-26.2 21.1q2.45 1.45 4.95 2.35 7.9 2.8 12.8-1.3-.6 1.55-2.15 3.1-3.1 3.15-7.85 3.45-4.75.25-7.7-4.3l-2.05-4.6 2 1.3m-18.3-21.3q3.25 1.4 6.25 1.95 9.65 1.65 13.7-6.05l.05 1.7q-.05 2.1-.7 3.9-2.05 5.8-9.1 6.75-7.9 1.05-12.8-9.55l2.6 1.3"/><path fill="#797fad" d="M266.55 195q-1.6-1.25-2.8-4.2l-2.35-5.15q-3.85-6.25-15.95-7.15l8.25.25q8.75.8 11.1 3.5 1.95 2.25 2.25 5.45.25 2.55 1.8 3.25l7.85 3.05q5.5 2.8 6.05 6.8.7 4.75-3.85 7.35-4.55 2.65-15.8 3.9-12.4 1.45-20.1 4.55-9.1 3.7-13.2 10.25-.9 1.4-1.1 5.6l-.65 8q-1.8 10.85-11.85 15.05-12.05 5-26.2.35-7.25-2.35-15.8-7.9l-9.4-6.05q-7.05-3.45-14.6-2.35-11.1 2.2-16.1 2.5-8.35.55-15.45-3.35-10.85-6-15.4-7.55-8.05-2.7-15.6-.55-24.1 6.8-47.1 4.7-18.15-1.65-29.35-7.7 4.6 1.45 11.15 2.1 6.9.65 13.05.1 12.5 2.05 26.2-.1l27.7-4.05q9.05-.8 16.9 1.75 2.45.8 9.1 3.55 6.2 2.5 9.9 3.6 12.25 3.65 22.1-.2 5.2-2 12.4.45 3.85 1.3 13.85 6.45 9.45 4.9 15.25 6.65 8.9 2.65 16.7.95 13.4-3 16.65-11.6l2-7.55q1.2-4.65 3.35-7.5 4.9-6.5 15.25-10.75 8.05-3.3 18.3-4.9 9.75-1.45 10.2-4.95.35-2.6-4.7-6.6"/><path fill="#63688f" d="M259 133.7l-2.35.8q1.25-1.9 4.75-3.6 2-.9 4.05-.5 1.15.25 3.2 1.25l1.25.7 1.1.4 1.95.4.95 1.6q-1.05-.8-2.95-1-1.1-.1-2.7-1-1.85-.9-2.9-1.15-1.8-.35-3.5.4-2 .95-2.85 1.7"/><path fill="#797fad" d="M256.65 134.5l2.35-.8q-2.15 1.85-2.55 4.85 2.3-2.75 4.35-3.8 2.3-1.2 5.25-.85 2.75.4 4.7 2.15 2 1.8 2 3.9l1.5 2.6 1.15 1.95-.6 1.15-1.4-2.35-1.3-1.95q-.55-.85-.55-1.2 0-1.85-1.2-3.2-1.5-1.65-4.4-2.05-2.8-.35-4.9.8-2.1 1.2-4.8 4.7-.4.5-.65.15-.25-.3-.25-.95.05-3.2 1.3-5.1M83.15 28.15q0-.15.5-.4l.45-.05q.1 3.05 1.35 5.85 1.2 2.75 3.25 4.55 3.4 2.95 8.25 2.5 2.3-.25 3.6-.85l1.7-1.2q1.15-1.1 2.35-1.6 1.9-.7 5.5-.85l.05.5-.25.5q-3.2.15-4.85.8-1 .35-2.1 1.35l-2.05 1.7Q99.25 42 96.8 42.2q-4.65.5-8.95-3.2-2.1-1.85-3.3-4.75-1.2-2.8-1.4-6.1"/><path fill="#797fad" d="M84.3 43.75q4.45 4.45 9.85 3.85 2.1-.25 3.75-1.1l2.6-1.8q1.85-1.45 3-2 2-.95 4.6-1.1 1.75-.05 1.5.4-.2.5-2 .65-2.2.15-3.85 1-1.05.55-2.65 1.85l-2.8 2.1q-1.85 1.2-4.05 1.45-5.6.65-10.6-4.35-2.3-2.2-3.75-5.25-1.5-3-1.3-5.05.1-1.05.6-1.35.45-.35.35.7-.15 1.7 1.1 4.6 1.45 3.2 3.65 5.4m78.2 8.8q3.75-.45 8.15-2.65.85-.45.65.15l-.7 1.15q-3.05 3.8-8 5.3l-10.45.3q-3.15-.65-4.95-2.35-1.1-1.05-2.2-3.25-1-1.95-1.8-2.55-1.3-.95-3.8-.75-.7.05-.75-.45-.05-.45.65-.55 3-.25 4.5.75 1.05.65 2.05 2.6 1.25 2.4 2.05 3.25 1.65 1.8 4.45 2.35 4.5.9 8.95-.2 4.35-1.1 7.4-3.8-3.75 1.55-7.2 1.8-3.45.3-7.45-.65-1.75-.45-2.85-1.85-.7-.95-1.5-2.95-1.1-2.65-2.2-3.7-1.8-1.7-5.25-1.75-1.7-.05-1.9-.5-.15-.45 1.55-.5 4.15-.05 6.2 1.55 1.35 1.05 2.45 3.75l1.35 3.05q.95 1.6 2.35 1.9 4.45 1.05 8.25.55M98.9 72.3q-2.85-.05-8.15 1.65l-3.7 1.35-3.75.85q-4.8.25-8.9-3.8-3.45-3.45-5.65-9.45-1.95-5.45-1.9-10.1 1.1-1.5 1.1-1.25-.2 4.4 1.7 10 2.05 6.2 5.45 9.6 3.75 3.75 8.15 3.5 2.35-.1 7.2-1.65 5.65-1.8 8.4-1.8 4.85-.05 9 3.55.15.1-.1.6l-.4.35q-3.9-3.4-8.45-3.4"/><path fill="#797fad" d="M81.3 81.6q1.7-.15 3.95-1.05l4.1-1.85q5.55-2.7 8.45-3.15 4.9-.85 8.7 2.2l.15.7-.2.35q-3.5-2.8-8.3-2.15-3.2.45-8.35 2.9l-4.35 2.25Q83 83 81.25 83.15q-5 .55-9.4-3.65-3.85-3.65-6.4-10.45-2.35-6.25-2.15-10.8.1-1.45.55-1.85.45-.4.35 1.1-.2 4.25 2.25 10.55 2.6 6.75 6.25 10.2 4.1 3.9 8.6 3.35m7.55 13.35l.45.9q.2.7 0 .6-4.4-3-8.85-3.8-4.45-.8-8.1.8-5.1 2.25-7.2 8.6 2.4-3.65 5.75-5.45 2.9-1.5 5.95-1.4 2.95.15 6.7 2.2 2.9 1.6 7 4.85.65.5 1.3 2.25-5.1-4.05-8.35-5.9-3.75-2.05-6.7-2.2-8.15-.3-12.05 8.65-.35.75-.8.4-.5-.35-.35-1.2Q65 94.9 72 91.9q3.5-1.55 8.05-.65 4.2.85 8.8 3.7M78.9 117.1q-5.95 3.85-9.4 12.45-3.45 8.5-2.45 16.9.5 4.4 0 4.05-.45-.35-.95-4.7-1-8.7 2.5-17.45 3.5-8.8 9.7-12.8 8.1-5.25 18.9.2.55.3 1.2 1.8-5.05-3.05-10.1-3.15-5-.1-9.4 2.7"/><path fill="#797fad" d="M78.75 122.85l-.35 1.3-.9 3.3q-.8 1.95-2.6 3.1-2.65 1.75-3.7 8.15-1.15 6.6-.15 16.05.55 4.95 0 4.65-.5-.35-1-5.3-1.05-10-.05-16.25 1-6.15 3.85-8.1 1.6-1.1 2.55-3.05l1-3.25.45-1.45q.55-1.4 4.35-3.4 3.9-2.05 7.15-2.6 1.9-.35 5.05.75 2.6.95 5.25 2.55.85.5 1.5 2.25-1.9-1.65-5.6-2.95-3.9-1.35-6.15-.95-3.1.55-6.75 2.4-3.5 1.8-3.9 2.8m-47.15 9.1q1.6-3.5 2.3-3.3.7.2-.95 3.7-4.6 9.8-1.5 18.7 2.15 6.2 7.8 11.45 2 1.85 5.5 2.05l6.5-.5 6.1-.2q2.95.45 4.3 2.35 1.3 1.75 3.5 6.85l3.2 6.3q1.95 3.2 4.15 4.9l.15 1.1-.15.85q-2.5-1.65-4.75-5.5-1.35-2.3-3.5-7.25-2.2-5-3.4-6.65-1.1-1.55-3.85-1.75l-5.6.45-6.85.55q-3.75-.25-6-2.35-5.9-5.55-8.25-12.1-3.45-9.5 1.3-19.65"/><path fill="#797fad" d="M28.4 158q-.5-2.5 1.2 1.2 1.9 4.1 4.35 7.2 2.9 3.7 5.7 4.8l4.1.35 4.75-.85 4.5-.8 3.7.35q1.8.8 3.2 3 .9 1.45 2.25 4.6 1.85 4.25 3.65 6.5 2.6 3.2 6.2 4.05.2.1.05.55l-.35.4q-5.1-1.2-7.2-4-.6-.75-3.3-6.95l-2.1-4.3q-1.3-2.1-2.85-2.8l-3.3-.1-4.25.95-5 .9-4.45-.4Q36 171.3 32.7 166.9q-3.35-4.5-4.3-8.9m36.7 45.5l5.65.25.2.5-.25.5q-6.9-.55-13.15 1.9-1.7.65-3.55 2.4-1.05 1-3.35 3.65l-4.1 4.65q-2.5 2.4-4.85 3-8.3 2.1-16.15 1.5-7.9-.55-13-3.7-5.05-3.15-6.45-9.5l.4-.3.55.1q1.15 5.1 6.2 8.2 4.9 3.05 12.6 3.65 7.65.6 15.6-1.4 2.25-.55 4.55-2.6l3.9-4.25 3.5-4.15q2.05-2.25 3.8-2.9 3.6-1.35 7.9-1.5m62.1 5.05q.2 0 .4.55.15.55-.05.55-6.2-.25-12.05-2.05-5.95-1.8-10.7-4.95-1.6-1.05-3.25-.55-1 .3-2.9 1.75l-2.95 1.7-2.15.1-2.35-.6q-3.2-1-5.7-1 .1-.75-.3-1.25l3.5.45 2.8.85q2.7.85 3.9.5l1.3-.85 1.35-1.2q2.15-1.55 3.3-1.85 2-.65 4 .65 10.3 6.75 21.85 7.2"/><path fill="#797fad" d="M128 209.4q.2-.1.25.55 0 .65-.2.7-5.3 1.55-10.95.25-3.15-.7-8.4-3.1l-3.25-1.3q-2.8-.95-5-.45-1.45.35-3.5 1.65l-2 1.5-2.3.35-2.45-.5q-2.3-.7-4-.75l-.45-1.25q1.85 0 4.7.8l2.2.45 1.85-.25 1.9-1.15q2.35-1.55 3.8-1.9 2.55-.7 5.6.3l3.3 1.35q5.05 2.3 8.35 3.05l10.55-.3m38.05-34q1.25.25 1.65.9.45.65-.4.4-2.6-.8-5.6-.65-3.45.15-6.2 1.5-5.2 2.5-6.5 8.65 1.6-2.7 4.15-4.6 2.6-1.9 5.75-2.65l9.3.3q4.85 1.35 9.45 4.95 1.25.95 3.45 4.5-5.1-5.15-10.95-7.35-5.85-2.2-11.05-.95-3.85.9-6.55 3.15-2.8 2.4-3.95 5.9l-.6.35q-.4-.1-.4-.5.2-5.2 2.6-8.95 2-3.05 4.85-4.45 4-1.9 11-.5m-46.85 20.15l-.75-.8q2.15-.7 3.7-4.45.8-1.85 2.2-7.2l.85-3.05q2.2-7.45 5.9-11.2 4.65-4.3 10.1-6.25 6.45-2.3 12.05-.45l.8.5q.3.4-.2.5-5.95 1.35-10.3 4.05-2.7 1.7-5.5 4.55-4.75 4.7-5.75 10.2l-.5 2.6q-.4 1.35-1.2 2.1-7.45 7.15-4.55 17.35l-.6-1.25-.95-1.3q-.3-1.7-.3-3.3 0-7.05 5.55-12.4 1.05-1 1.55-4 .6-3.05 1.35-4.75 1.4-3.15 4.2-5.95 5.7-5.8 14.9-8.35-5-.95-10.6 1.35-4.8 1.95-8.9 5.7-3.85 4-5.9 10.6l-.8 3q-1.4 5.1-2.35 7.3-1.7 3.9-4 4.9m3.35-60.8q.75.7.25.55-11.5-3.1-19.2-1.75-7.65 1.35-12.65 7.35-6.15 7.35-4.85 17.9.85 7.25 3.9 11.95l1.2 2.85q.8 2.45 1.5 3.75 1.15 2.1 2.85 3.25l.8 1.15.35.95q-4.25-2.2-6.45-8.25l-1.1-3.15q-3.25-5.05-4.3-12.4-1.55-11 4.85-18.65 5-5.95 12.65-7.5 7.7-1.55 18.65 1.1.8.2 1.55.9"/><path fill="#797fad" d="M125.05 137.15q.75.05 1.15.6.45.55-.15.45-6.95-.7-13.8 1.1l-5.6 1.05q-5.35.8-7.5 1.75-3.7 1.65-5.75 5.75-1.65 3.3-2.25 8.05-.7 5.15-.15 9.05.3 2 1.55 6.15l.8 2.85q.95 3.75 2.65 6.45l1.25 2.3q.5 1.2.4 2.35l-.55.15q-.5-.05-.45-.25.1-.95-.35-1.95l-1.15-2.05q-2.15-3.45-3-6.75l-.8-2.85q-1.25-4.3-1.55-6.25-.6-4.05.1-9.35.65-4.65 2.35-8.3 2.2-4.45 6.25-6.3 2.45-1.15 8-2l5.5-1.05q5.9-1.55 13.05-.95"/><path fill="#797fad" d="M126.45 146.2q3.9-.75 10.15 1.65l.85.9.25.65q-5.15-2.35-9.85-1.9-3.85.35-5.65 2.2-.85.85-4.8 1.95l-3.85 1.25q-2.1.8-3.05 1.7-3.3 3.15-5.15 5.7-3.3 4.6-3.7 8.85-.15 2.1.3 4.55l1 4.3q1 3.65 1.2 5.25.1 1.15 1.1 3.05 1.25 2 1.35 3.85l-1.05-.35q-.1-1.25-1.15-3.05l-1-1.5q-.65-1-.75-1.9l-.2-2.5-.45-2.55-1.2-4.45q-.55-2.6-.35-4.75.65-7.55 8.9-15.5 1-1 3.5-1.75l4.25-1.15q3.75-1.05 4.4-1.7 2.3-2.3 4.95-2.8"/><path fill="#797fad" d="M115.75 157.2l-1.2 1-1 .85q-.7.45-1.35.6-3.05.5-4.95 4.4-1.25 2.5-1.85 6.05-.45 2.95.75 7.75l.95 4.8q.25 2.25 2.6 5.25 1.9 2.45 4.7 4.85-1.05-.6-2.15-.4-2.4-2.25-4-4.6-1.9-2.8-2.15-4.95l-.9-4.7q-.65-2.7-.8-3.95-.3-2.2.05-4.2.65-3.9 2.05-6.75 2.2-4.4 5.65-5l1.75-1q.8-.75 1.4-1 1.05-.5 2.55-.45.75 0 2.2-.9l2.1-1.05q1.35-.55 2.95-.55l1.7-.35q5.65-1.55 13.65-1.45.6 0 1.1 1l-9.75.65q-1.55.25-4.7 1.2l-2 .35q-2.7 0-4.55 1.05-1.65 1.05-2.75 1-1.2-.05-2.05.5m130.95 21.45l.9-.1 1.7.3q6.6 3.5 8.1 7.6 1.35 3.65.15 6-1.45 3.05-4.6 4.2-1.9.75-7.05 1.3l-7.05.8q-4.7.7-8.7 2.15-3.3 1.2-4.1 4.2-.5 1.75-.2 5.85l.1 4.25q-.2 2.35-1.25 3.4-4.95 4.9-15.85 4.45-5.15-.25-18.75-2.85l-10.95-1.6q-11 0-19.25 6.2-7.6 5.7-15.8 7.85-8.3 2.15-16 .35-4.35-1-7.25-3.05-3.05-2.15-4.85-5.7-.45-.8-.4-1.25.05-.5.6-.2 6.25 3.1 14.65 3.2l.35 1.45q-6.9 0-13.9-3.1 3.75 5.8 11 7.45 7 1.6 15.55-.6t15.45-7.4q8.2-6.15 19.85-6.15 3.05 0 11.15 1.6 12.35 2.3 18.35 2.4 10.65.2 15.35-4.5.85-.85 1-2.6l-.1-3.55q-.35-4.2.2-6.25 1-3.4 4.7-4.75 4.15-1.55 8.6-2.35l6.9-.95q4.9-.5 6.65-1.15 2.7-1 4.05-3.75 1.2-2.55.3-5-1.7-4.55-9.6-8.15"/><path fill="#797fad" d="M158.4 218.15q-3.7 2.5-7.6 4.35.1-.75.7-1.45l3.2-1.95 3.15-2.25q2.7-1.8 8.65-3.85l.5.5.6.3q-4.8 1.45-9.2 4.35m82-23.85l-6.55.5-9.1.95q-2.8.65-3.65 2.1-1.25 2.1.2 7.8.65 2.5 0 4.85-.7 2.35-2.6 3.9-3.25 2.7-9.1 3-5.65.25-10.35-1.9-5.2-2.4-13.05-3.25l.45-1.45q4.65.65 9.1 2.2 2.3.8 3.9 1.6 4.4 2 9.85 1.6 5.45-.45 8.6-3.05 3.3-2.75 2.05-7.5-1.6-6.1-.1-8.5.9-1.55 4.5-2.35l9.25-1q7.25-.25 12.6-2.5 1.7-.65 2.85-2 1.1-1.35 1.45-3.05.45-2.25-1.05-3.7-1.25-1.35-4.8-2.7-3.3-1.4-4.55-2.5l1.75.5 3.2 1.05 2.75 1.25q1.5.8 2.35 1.7 2.15 2.05 1.55 5.05-.4 1.9-1.8 3.5-1.4 1.55-3.3 2.3-2.75 1.15-6.4 1.6"/><path fill="#797fad" d="M198.55 192.6q-10.8.35-13.4 1.45l-.45-.5q-.25-.6-.05-.7 1.3-.6 5.15-.9l8.7-.35 15.15-.75q8.45-.8 12.45-2.6 2.95-1.3 5.2-3.6 2.5-2.65 2-4.55-.25-.85-1.5-1.95l-2.55-2q-3.55-2.5-4.4-4.05l.6.05q.8.3 1.3.75l3.05 2.4 3.25 2.15q1.75 1.25 2.05 2.3.65 2.5-2.75 5.8-2.8 2.75-5.85 4.1-4 1.8-12.7 2.4l-15.25.55"/><path fill="#797fad" d="M192.3 186.1q-.2-.1 0-.55l.4-.35q4.6 2.1 16.7 1 10.85-1.05 13.4-2.5 1.35-.8 2.05-2.45.8-1.85.7-4.25-.1-1.45-2.2-3.9-1.85-2.3-2.55-3.7-.1-.35.5-.15.6.15.85.6l1.95 2.6 1.65 2.2q.7 1.2.75 2.35.15 2.7-.65 4.8-.8 2.1-2.3 3-3 1.75-14.1 2.7-12.4 1.05-17.15-1.4m5.9-32.15q-.9-.65-.6-1.05.25-.4 1.15.25 8.65 6.4 7.95 10.3-.35 1.55-2.3 3.35l-3.95 2.9-3.3 2.25q-1.85 1.55-1.85 3.2 0 1.05-.3.45-.3-.55-.45-1.7-.15-1.05 1.35-2.4.9-.8 3.5-2.6l3.75-2.75q1.8-1.6 2.05-2.9.3-1.25-.8-3.1-1.65-2.85-6.2-6.2"/><path fill="#797fad" d="M192.45 151.2q5.95 3.55 5.95 8.05.05 2.7-2.15 5.5-1.9 2.35-4.75 4.1l-.45-.3q-.25-.4-.05-.5 2.6-1.6 4.25-3.8 1.95-2.55 1.95-5-.05-1.9-1.9-4.15-1.85-2.2-4.65-3.85l.75-.1 1.05.05M173.6 91.3l.95.3.45.45q-3.65.5-6.35 2.95-3.25 2.95-3.7 7.75-.1 1.3-.5.75-.35-.55-.25-1.85.8-8.6 9.4-10.35"/><path fill="#797fad" d="M179.75 94.6q.55.05 1.75 1.05l-6.95.45q-2.4.6-3.95 2.15-1.35 1.35-2.05 3.75-.75 2.7-.55 6 .1 1.45-.4 1.1-.5-.4-.6-1.8-.45-6.75 2.4-9.75 2.95-2.95 10.35-2.95m5.45 8.3q1.75-.45.45.85-4.05 3.15-5.55 8.15-.8 2.65-1.35 9.05l-.85 6.25q-.75 3.3-2.35 5.5-.15.2-.15-.95-.05-1.1.15-1.55.9-1.85 1.35-4.55l.6-5q.45-5.45 1.25-8.25 1.35-4.65 4.55-7.85-4.1 1.65-6.45 5.35-2.4 3.65-2.4 8.3l.05 3.45-1.3-3.3q-.2-5.7 3.15-9.95 3.3-4.15 8.85-5.5m20.9-2.35l1.45-.15.8.1q-2 1.3-7.4 2.9l-5 1.7q-2.6 1.05-3.75 2.2-2.7 2.75-4.25 6.85-1.85 4.9-.05 7.75l2.35 3.5q4.95 7.5 7.25 12.55.55 1.15.1 1.35-.45.2-1-.95-1.5-3.35-3.75-6.95l-3.7-5.6-2.85-3.55q-1.95-3.05.2-8.35 1.8-4.55 5-7.8 1.25-1.2 4-2.1 1.6-.55 5.15-1.55 3.65-1.05 5.45-1.9"/><path fill="#797fad" d="M210.4 100.15q.3-.25 1.15-.35l.65.1q-1.2 1.2-3.6 2.65l-4.65 2.65q-6.1 3.25-7.65 4.95-1 1.05-1.45 3.75-.35 1.9-.35 3.95 0 .65-.9.55h-.8q-.6.1-.8.3-.5.45-.25 5.05.05.65.65 1.6l1.5 2.05q3.9 5.45 4.6 11.5 0 .5-.45.5-.45.1-.55-.4-.35-3.25-1.95-6.4l-2.95-4.65q-2.25-3.05-2.3-4.4-.3-4.75 1.05-5.85.35-.3.9-.5l.75-.15q.15-1.95.75-3.95.7-2.45 1.8-3.65 1.5-1.65 7.9-5.1l6.95-4.2"/><path fill="#797fad" d="M228.45 95.4q.3-.25 1.3-.55l.8-.1q-1.8 1.85-4.05 3.35-2.25 1.55-3.3 2.9-1.7 2.1-3.2 6.15-.95 2.4-3.75 4.7L211 115.3q-4 2.4-4.6 3.45-2.45 4.65-2.75 7.65-.3 3 1.4 5.6l-.6-.1-.9-.55q-1.4-2.85-1-6.15.4-3 2.45-6.9.65-1.25 5-3.85l5.3-3.3q2.95-2.2 3.75-4.35 1.6-4.25 3.4-6.45 1.15-1.4 3.5-3.05l2.5-1.9"/><path fill="#797fad" d="M234 93.35q.7-.5 3.1-.9-3.35 2.25-6.05 5.25-1.6 1.7-4.1 5.1-.65.9-1 2.5l-.55 2.8-.8 3.25q-.65 1.65-1.7 2.4l-3.85 2.35-3.65 2.1q-5.25 3.2-6.45 4.95-1.9 2.95-1.6 6.25.1.8 1.1 2.5l1.15 2.45-.75-.5-1.25-1.45q-1.1-1.9-1.2-2.9-.4-4.05 1.5-7.1.95-1.4 7-5.05l6.95-4.45q.85-.55 1.35-2l.7-3q.85-4.05 1.9-5.5 2.05-2.85 3.45-4.45 2.2-2.55 4.75-4.6m37.95 2.7q1.6.25 4.9 2.35-4.6-1.75-8.5-1.55-3.9.2-6.75 2.3-2.85 2.1-4.3 5.85-1.2 3.25-1.05 6.35l-.6-.65q-.65-.9-.6-1.25.25-3.25 1.45-5.9 1.45-3.3 4.05-5.2 1.9-1.4 4.6-2.05l6.8-.25"/><path fill="#797fad" d="M263.55 93.45q1.6-.1 4.85 1.3-4-.75-7.4.1-3.35.85-5.5 3.1-1.75 1.85-2.35 4.4-.65 2.5 0 5.3.1.35-.8-.4l-.95-1.2q-.55-5.3 3.05-9.15 2.9-3.05 9.1-3.45"/><path fill="#797fad" d="M242.75 106.7q-3.05 1.15-5.15 5.1 3.7-2.55 5.85-3.3l6.3-.2q3.25.75 8.3 8.1.6.9 1 3.4-3.6-5.8-6.55-8.45-1.75-1.55-2.95-1.8l-6.35.25q-2.1.7-6.55 3.8-.35.25-.6 0-.3-.15-.2-.55 2.55-6.1 6.55-7.65 3.15-1.25 7.85.15 1.2.35 3.25 2.55-6.45-3.1-10.75-1.4m-18 18.9q-.75-1.05 1-.35 4.6 1.8 5.95 5.95.85 2.65.35 6.8-.25 1.75 1.2 3.35l2.8 2.4q2.15 1.75 2.55 2.75.05.2-.85 0t-1.05-.4l-1.75-1.55q-1.85-1.45-2.6-2.45-1.3-1.65-1.3-3.45l.05-.75.15-2.6q0-6.55-4.9-8.95 2 3.4 2 6.65 0 2.15-.85 5.1l-.25 1.75q0 3.7 5.85 6.85-1.35.6-1.7.4-4.3-2.6-5.3-5.4-.45-1.3-.05-3.85 1-3.75 1-5.3.1-3.65-2.3-6.95"/><path fill="#63688f" d="M231.25 135.3q0-6.55-4.9-8.95 2 3.4 2 6.65 0 2.15-.85 5.1l-.2 1-1.4-.2.15-1.05q1-3.75 1-5.3.1-3.65-2.3-6.95-.75-1.05 1-.35 4.6 1.8 5.95 5.95.85 2.65.35 6.8-.1.8.05 1.35h-1l-.05-.7.05-.75.15-2.6"/><path fill="#797fad" d="M61.2 208.05q3.2-1.15 7.8-.75l-.05.75-.45.65-7.1.45q-2.85.95-5.15 3.75-1.25 1.55-2.5 3.8L52 220.3q-1.9 3.95-3.45 5.3-5 4.3-17.95 4.45-11.45.15-19.7-2.55l-1.55-1.25-.65-.95q6.1 2.95 19.25 3.25 14.65.35 19.95-4.2 1.35-1.15 3.2-4.95 2.35-4.7 4.4-7.15 2.5-3.05 5.7-4.2"/><path fill="#63688f" d="M35.4 229.8q-6.15.55-13.05-.1-6.55-.65-11.15-2.1-3.25-1.75-4.85-3.5-4.2-4.65-4.95-7.3-.85-3.1 2.05-6.2-.2 4.15 8.2 10 9.75 6.85 23.75 9.2"/><path fill="#0d131a" d="M188.05 21.2q6.35 6.95 10.1 15.5 3.9 8.9 3.55 16.5-.2 4.6-1.9 8.55-1.7 3.85-4.5 6.35-8.05 7.3-21 7.4-11.8.15-21.5-5.4-9.55-5.45-15.5-6.85-5.2-1.2-10.3.15-7.05 1.9-11.15.7-3.25-.9-6.4-4.6-1.5-1.8-1.1-2.4.4-.6 1.7.65 3.55 3.25 6.5 4.15 4.15 1.25 10.55-.45 5.7-1.5 10.95-.15 5.3 1.35 14.7 6.7 9.4 5.4 20.55 5.5 12.3.05 20-6.85 5.2-4.7 5.6-13.55.4-7.5-2.9-15.65-3.3-8.2-9.3-14.75-10.45-11.5-32-17.6-21.65-6.15-43.45 3.2-19.1 8.15-30.85 24.3-4.3 5.85-12.45 19.3-6.9 11.45-10.9 17.35-6.65 9.65-13.65 16.9-8.85 9.2-9.5 16.95-.4 4.5 2.8 11.7l1.95 4.85q.8 2.65.5 4.95l-.95 1.15q-.85.8-.8.5.3-2.05-.7-5.7-.8-3-2.05-5.7l-2.55-5.55q-1.25-3.25-1.15-6.2.25-7.7 10.15-17.95 7.05-7.35 13.8-16.85Q59.75 61.4 66 51l6.2-10.25q3.65-5.85 6.5-9.8Q90.6 14.7 108.55 6.3 131-4.15 155.1 2.7q21.7 6.2 32.95 18.5"/><path fill="#0d131a" d="M132.9 19.9q7.35 6.85 7.75 18.45.1 2.6-.5 2.75-.55.2-.85-2.4-1.2-10.9-7.85-17.1-6.85-6.35-16.95-5.15-2.05.2-1.55-.45.5-.65 2.6-1.05 10-1.8 17.35 4.95"/><path fill="#0d131a" d="M124.05 16.6q.9-.1 1.9.65 1.05.8.25.8-7.35.2-11.7 6.95-3.6 5.65-3.7 12.75-.05 2.5-.6 2.05-.6-.45-.75-3-.45-8.05 4.15-13.9 4.25-5.35 10.45-6.3m14.3 30.6q.85-1.5 1.4-1.15.5.35-.35 1.9-3.55 6.4-11.25 6.05-6.85-.35-12.55-5.4-1.35-1.2-1.4-1.95 0-.7 1.45.35 6.25 4.8 13 5 6.95.2 9.7-4.8m42.35-5.9q-5.05-9.95-5.15-17.15-.1-7.05 4.55-5.8 1.25.35 1.4.9.2.55-1.05.2-3.7-1-2.6 7.05.9 7.1 4.25 14.7.8 1.85.15 1.9-.65 0-1.55-1.8"/><path fill="#0d131a" d="M177.25 20.75q.05-.7.3-.75 2.45-.65 5.55 1.3 3.9 2.5 7.85 7.9 3.75 5.1 4.35 8.25 1.4 7.05-2.5 9.9-3.1 2.25-6.5 1-1.55-.55-1.8-1.3-.3-.8 1.25-.1 3.3 1.4 5.85-.75 2.95-2.5 1.8-8.3-.6-3-3.95-7.85-3.65-5.25-7.15-7.5-2.75-1.75-4.75-1.2-.3.05-.3-.6M162.1 73.3l1.55.05q1.4.3 1.15.5-4.05 3.35-5.6 13.8-1.9 12.85 4.05 23.75 2.75 5.05 3.4 10.65.65 5.7-1.15 10.2-1.35 3.4-4.1 5.85-2.65 2.4-6.1 3.5-6.15 1.95-13.5 1.45-7.15-.5-13.9-3.2l-1.55-1.3q-1.45-1.55-1.15-1.9 6.8 3.4 14.8 4.25 8.1.85 14.7-1.25 6.4-2.05 9-8.5 1.75-4.25 1.25-9.3-.45-5-3-9.75-6.15-11.3-4.9-23.2.85-8.2 5.05-15.6m-47.15-10.8l1.1-.15q.95.1.75.3-10.85 11.7-12 30.85-1.2 20.3 9.85 36.65.55.8-1.15.1-1.65-.7-2.4-1.9-9.9-16.15-8.15-35.7 1.6-18.2 12-30.15"/><path fill="#0d131a" d="M122.05 98.5l6.3-1.65 8.7-.5q4.35.35 7.2 3.8 1.45 1.8 4 7.1 2.25 4.7 3.85 6.6 7.65 9.2 7.9 16.7.2 4.95-2.9 8.9-.2.3-1.55.45l-1.15-.05.05-.1q3.35-3.95 3.75-8.05.6-7.45-7.25-16.9-1.75-2.1-4.05-6.9-2.2-4.65-3.75-6.45-2.55-2.95-6.4-3.3l-7.7.25-5.4 1.35q-.3.1-1.1-.55-.8-.6-.5-.7"/><path fill="#0d131a" d="M124.55 99.15q2.05.8 2.45 1.7.4.9-1.6.15-6.15-2.3-10-2.6-6.5-.45-10.95 3.6-.2.2-.35-.6-.15-.8.05-1 4.8-4.1 10.75-3.75 3.4.15 9.65 2.5M170.7 74.3l1.9.05 1.4.35q-4.25 2.65-6.65 5.45-2.85 3.3-3.9 7.75-.8 3.55.15 8.8 1.2 6.4 4.65 11.3 10.45 14.95 7.35 28.05-3.35 14.25-21.85 16.75-.95.25-1.65 1.05-.9 1-2.05 3.4l-.8-.2-1-.2q1.6-3.35 2.55-4.5 1.15-1.35 2.95-1.55 16.3-1.95 19.6-15.2 3.1-12.5-6.8-26.75-3.35-4.75-4.7-10.35-1.3-5.55-.35-10.65 1.6-8.45 9.2-13.55"/><path fill="#0d131a" d="M163.6 85.65q-.25-.15-.1-1.5.2-1.4.45-1.25l3.2 2.05 3.35 2.3q8.35 5.4 12.15 7.25 7.75 3.75 15.5 4.35l17.55-.75q4.55-.9 12-3.75l6.85-2.7q4.15-1.5 8-2.05 10.6-1.55 24.9 3.3 14.3 4.9 19.75 11.95 5.6 7.25 5.25 13.9-.35 6-4.8 7.75-5.25 2.1-11.45-.6-5.3-2.3-8.75-6.65-.8-1-3.35-1.45-2.8-.45-4.85.5-.3.1-.3-.65-.05-.8.25-.9 2.5-1.1 5.45-.65 2.8.45 3.95 1.85 2.6 3.35 7.3 5.55 6 2.85 11.05.85 4.05-1.6 3.25-7.5-.8-5.5-4.9-10.85-4.95-6.45-17.75-10.9-13.45-4.7-24.95-3-3.9.55-7.9 1.8-2.2.7-6.65 2.35-7.3 2.8-12 3.75-7.9 1.55-18 .8-8.1-.6-16.05-4.25-4.6-2.15-12.3-7.1-4.1-2.7-6.1-3.8m48.1 54.1q.3 0 .6 1.25l.05 1.2-14.75-.8q-3.25-.6-8.55-2.4l-3.1-1.15-3.45-1q-2-.4-2 1.6 0 2.1 2.45 5.05 3.75 4.55 10.1 6.85 2.9 1.1 11.3 2.8 11.75 2.4 15.1 5.75 3.2 3.2 1.85 8.8-1.25 5.15-4.6 7.05-1.55.95-2.35.65-.75-.3.85-1.15 2.9-1.55 3.75-6.3.95-5.05-2.05-8.05-1.85-1.85-5.45-3-2.15-.75-7.4-1.8-8.4-1.7-11.95-3.05-6.8-2.55-10.8-7.4-3.55-4.25-2.3-7.45 1.05-2.85 3.8-2.3 2.75.6 6.75 1.95 4.65 1.65 8.15 2.2l14 .7"/><path fill="#0d131a" d="M264.1 116.9q-1.05 3.1-.15 5.35.85 2.15 4.1 4.9 5.95 5.05 7.9 9.45 2.05 4.8.65 11.1-1.2 5.4-6.55 7.25-5.55 1.9-10.6-1.95-1.3-.95-2.45-2.7l-1.9-3.25-2.3-3.95q-1.35-1.65-3.4-1.75-2.15-.15-1.75-.8.4-.65 2.55-.5 2.55.15 4.2 2.05l2.5 4.25q2.25 4.2 3.95 5.5 4 3.05 8.1 1.65 4.1-1.35 5.25-6.05 1.5-6-.1-10.3-1.6-4.3-7.05-8.85-3.45-3-4.4-4.85-1.25-2.35-.7-6.4.05-.2 1.15-.25l1 .1"/><path fill="#0d131a" d="M204.75 131.4l3.05 1.25q2.55 1.35 3.5 3.5l2.55 6.55q3.05 6.15 6.45 6.9 3.2.7 5.55 0 1.4-.45 3.7-2 2.4-1.85 4.75-2.1 2.8-.35 8.05.9l3.8.65q1.6-.05 2.7-1.3.95-1.1 1.75-1.3l3.95-.25q.3 0 .6 1.8l-3.5.1q-.95.25-1.7 1.1-1.55 1.75-3.15 2.05l-4.2-.55q-4.85-1.4-7.55-1.4-2.85 0-4.7 1.55-2.85 1.95-4.1 2.4-2.9 1.15-6.4.35-4.4-.95-7.25-6.7l-2.9-7.9q-.8-1.85-3.6-3.25-.35-.2-3.1-1.25-1.7-.8-.85-1.35.9-.55 2.6.25m31.5-30.2q.35-.8 2.3-.9 3.9-.25 9.85 2.9 6.85 3.65 9.35 9 3.65 7.7 2.2 14-1.35 5.75-6.05 7.7-5.3 2.2-9.9.15-2.7-1.25-5-4.25-1.9-2.5-2.8-5.1-.65-1.85-3.1-3.2-1.45-.8-5.4-2.1-2.3-.8-2.85-1.75-.55-1 1.75-.25 4.95 1.6 6.9 2.6 3.25 1.75 4.1 4.25.65 1.9 2.25 3.95 2.1 2.65 4.8 3.85 4 1.8 8.5-.1 4.15-1.75 5.05-7.35.85-5.6-2.05-11.8-2.25-4.8-9.15-8.4-6-3.1-9.2-2.7-1.95.25-1.55-.5m-194 15.4q.55-2 1.25-1.55.75.5.35 2.55-1.05 6.05-4.35 8.8-1.9 1.6-5.9 3.55-3.25 2.1-4.6 3.55-2.3 2.35-3.25 5.85-1.45 5.05-.6 9.05.5 2.35 2.55 6.15 1.5 2.85 2 4.45.75 2.55.25 5.3-.45 2.8-2.65 4.8l-4.75 3.15q-3.75 2.1-5.4 3.6-2.65 2.5-3.5 6.15-.6 2.6.25 5.5.9 2.9 3.1 5.5 3.65 4.35 10.2 7.05 10.1 4.25 24.55 3.3 2.5-.15 1.75.7-.75.8-3.25.95-12 .8-21.4-2.05-9.3-2.9-14.35-8.85-2.5-2.95-3.45-6.15-.95-3.2-.25-6.15.95-3.95 4.5-7.1 1.95-1.75 6.25-4.25 3.05-1.7 4.25-2.85 1.8-1.65 2.25-4.05.4-2.35-.3-4.45l-1.85-3.85q-2.45-4.6-3-6.5-1.25-4.45.25-9.8 1.05-3.75 3.95-6.55 1.45-1.45 5.25-3.95l5.55-4.2q3.05-3 4.35-7.65m19.85 4l-1.2-2.15q-2.1-4.2-2.85-6.35-1.2-3.45-1.2-6.85 0-2.35.7-3.05.7-.75.5 1.7-.2 2.9 1.3 6.8.75 1.9 3.15 6.6.95 1.9 1 4.1.05 2.3-.4 1.15l-1-1.95"/><path fill="#0d131a" d="M61.35 113.7q-.35-2.45.55-2 .9.45 1.25 2.9l.9 5.6q2 12.65 1.75 18.65-.2 4.05.8 8.05.6 2.3 2.35 6.8l2.9 7.25q1.65 4.8 1.85 9.5.95 21.8-1.95 33.15-2.85 11.2-9.3 11.5-2.2.1-2.5-.65-.25-.8 2-.9 5.6-.25 8-11.25 2.45-10.95 1.55-31.8-.2-4.65-1.55-9.1-.5-1.8-2.6-7.15l-2.8-7.05q-1.4-4.3-1.2-8.4.4-9.15-1-18.35l-1-6.75"/><path fill="#0d131a" d="M219.45 168.55q-.3-.3-.2-1.35.05-1.1.25-.8 3.75 4.7 12.4 7.7 8.4 2.9 19.55 3.6 9.75.65 13.65 3.2 2.45 1.65 3.1 5 .55 2.7 1 3.4 1.1 1.55 4.7 2.9 5.25 1.95 7.75 4.05 3.95 3.35 2.7 7.8-1.25 4.35-6.4 6.5-3.85 1.6-11.45 2.45l-7.3.8q-4.65.55-7.75 1.4-10.85 2.95-16.15 6.95-5.4 4.05-5.5 9.5-.3 14.1-5.75 20.55-3.15 3.7-8.95 5.2-12.2 3.2-24.7-.75-9.95-3.2-23.8-12.45-5.75-3.8-13.65-3.45-2.15.1-13.35 2.15-7.7 1.35-11.3.7-4.1-.75-12.85-5.4-4.7-2.65-7.3-3.95-4.55-2.3-8.3-3.15-3.8-.85-9.75-.05l-11.7 2.3-16.15 3.15-18.3.8q-16.4-1.35-28.55-5.95-14.05-5.3-15.25-12.7-.8-4.8 2.75-8.5 2-2.15 7.3-5.15 3.4-1.9 5.3-3.45 2.75-2.2 3.95-4.8.15-.25 1.05.4.85.65.75.9-1.35 2.85-4.2 5.15l-5.55 3.5q-4.65 2.6-6.2 4.35-2.5 2.8-1.85 6.95 1.1 6.75 14.5 11.35 11.15 3.85 26.9 5.15l17.65-.55q5.6-.7 15.6-2.8 8.3-1.75 12-2.15 6-.75 10.1.2 4 .9 8.3 2.8 2.55 1.1 7.1 3.55 8.4 4.45 12.35 5.1 3.15.5 10.95-.9 9.3-1.65 14.3-1.55 8.55.15 14.75 4.3 13.15 8.85 22.75 11.7 11.6 3.45 23.6.3 12.9-3.4 13.3-22.85.1-6.05 6.2-10.95 6.05-4.85 17.25-7.9 4.5-1.25 14.15-2.35 7.65-.8 10.4-1.75 4.35-1.5 5.35-5.1 1.2-4.15-1.45-6.6-1.55-1.5-6.25-3.25-4.3-1.6-5.4-2.6-1.05-.95-1.5-3.4-.65-3.3-2.65-4.85-3.4-2.65-12.35-3.2-10.7-.65-19.1-3.6-8.4-2.95-12.8-7.55"/><path fill="#0d131a" d="M91.6 181.85q1-.7 2.75.4 2.5 1.6.2.65-.3-.15-1.65.9-2.3 2.15-4.6 8.6-2.25 6.2-2.25 9.8 0 4.35 2.45 7 2.1 2.25 4.7 2.25l1.35-.3 1-.8 1.85-1.45q1.45-.8 3.45-.4.8.15 1.65 1.3l1.5 2.3 2.1 2.85q1.45 1.6 3.1 2.4 2.25 1.1 2 1.75-.25.7-3.3-.8-1.9-.95-3.15-2.25l-1.95-2.65-1.15-1.85q-.65-1-1.05-1.1-1.6-.35-2.6 0-.55.2-1.45 1-1.9 1.65-3.75 1.65-3.2 0-5.65-2.45-3-2.95-3-8 0-4.05 2.25-11.05 2.5-7.95 5.2-9.75m89.65 6.9q-.85-1-.5-.9 6.5 1.1 10.8-2.65 3.9-3.4 3.2-7.55-1.05-6.25-6.35-10.1-5.3-3.85-13.6-4.4-21-1.35-30.8-8.1-2.45-1.65-6.25-5.1l-6.7-6.35q-6.9-6.6-8.9-8.05-1.55-1.15-7.75-4.45-5.25-2.7-7-3.75-3.8-2.25-5.6-4.2-4.25-4.6-8.55-13.3-4.7-9.55-4.7-15.25 0-2.85.85-3.6.8-.75.8 2.1 0 5.6 4.65 15.4 4.15 8.9 7.9 12.95 1.65 1.8 5.45 3.85 2.2 1.2 6.9 3.5 6.05 3.15 7.9 4.55 2.15 1.55 9.1 8.2l6.6 6.75q3.95 4.05 6.15 5.55 4.65 3.2 12.25 5 7.05 1.65 17.8 2.35 8.75.55 14.95 5.05 6.2 4.45 7.35 11.15.85 5-3.15 8.8-4.35 4.1-11.6 3.6-.4-.05-1.2-1.05"/><path fill="#0d131a" d="M84.15 172.3q-1.4-2.4-1-3.3.4-.9 1.8 1.5 4.2 7.35 12.85 13.6 7.8 5.65 15.3 7.8 6.25 1.8 10.9 7.45t4.95 11.85q.5 9.3 2.1 13.2 2.3 5.65 8.15 6 4.05.3 7.05-2.45 2.2-2 3.45-5.25 1.25-3.3 1.35-7.3.05-2.65-.6-5.65l-1.4-5q-1.1-3.4-1.25-4.35-.45-2.05.1-3.75.65-2 1.35-2.1.7-.05.05 1.95-.4 1.4.1 3.55l1.3 4.25 1.6 5.15q.8 3.2.7 6-.1 4.3-1.55 8.1t-3.8 5.95q-1.65 1.5-4 2.25l-4.65.55q-6.65-.45-9.6-6.8-2.15-4.75-2.65-14.2-.3-5.9-4.25-11.1-4.05-5.45-9.8-6.9-9-2.25-16.35-7.6-7.7-5.55-12.2-13.4m81.5 3.9q-2.35-1.3-1.55-1.7.75-.45 3.1.8 10.55 5.7 16.15 13.65 5.6 7.95 5.35 16.9-.3 10.1-8.85 12.55-3.6 1.05-7.35 0-3.9-1.05-6.55-3.95-1.4-1.5-2.4-3.85l-1.5-4.35q-1.7-5.7-2.8-7.4-2.3-3.65-7.35-4.65-1.95-.4-1.35-.9l2.55-.1q5.1 1.05 7.7 4.7 1.6 2.15 3.2 7.4.85 2.85 1.4 4.15.9 2.15 2.15 3.5 4.7 5.15 11.5 3.1 7.1-2.1 7.35-10.35.25-8.6-5.15-16.3-5.45-7.75-15.6-13.2"/><path fill="#0d131a" d="M156.35 194.8q.45-.05 1.45.65 1 .7.65.7-4.45.1-6.45 1.35-2.05 1.3-3.05 4.5-.15.35-.5-.8t-.15-1.55q1.15-2.7 3.25-3.75 1.55-.8 4.8-1.1m-21.9-156.25q.7-.1 1 1.4.3 1.55-.4 1.75-.75.15-1.1-1.3v-1.2q.15-.6.5-.65m50.45-2.15q.55-.3 1.15 1.2l.15 1-.25.55-.6-.15-.55-.95q-.4-1.3.1-1.65"/></svg>