<svg xmlns="http://www.w3.org/2000/svg" width="486" height="306" viewBox="-0.6 -0.65 486.35 305.85"><path fill="#767cba" d="M327.15 127.1q5.85-4.7 8.75-13.05 2.75-8.05 1.95-17.15 4.65 6.9 8.05 11.15 4.6 5.8 9.2 9.9 3.95 14.2-.25 21.7-3.35 6-13.6 9.75-7.1 2.6-20.55 1.5-12.4-1.05-14.55.35-3.35-5.4-6.3-8.5-3-3.2-4.8-3.15-5.95.1-9.5 5.7-3.15 5.05-3.85 13.7-.15 2.1-.15 4.3 0 2.4-1.05 4.15l-2.3 2.9q-3.45 4.15-3.8 11.35-.5 10.55 2.45 18.15 3.25 8.5 10.2 11.7l2.55-.05 2.35-1.75q3.95-2.65 12.1-.65 8.85 2.2 13.8-2.25 5.55-5 3.35-16.75-2.4-13.25-8.6-26.6l-2.85-5.85q2.65-1.7 18-.7 17.1 1.15 23.4-.4 1-.25 2.55-1.35l2.2-1.6q-3.95 9.65-1.65 18.1 2.5 9.15 11.75 13.25 9.5 4.3 17.9 2.25 7.4-1.75 12.55-7.95 6.8-8.25 12.95-8.45 5.6-.25 13.2 6.35l-.95-1.85q3.25-.8 4.5-6.95 1.15-5.9-.2-12.95 8.65 6.7 8.85 20.45.05 6.8 2.85 12 2.4 4.55 7.15 8.3 3.05 6.7 1.75 12.35-1.45 6.35-8 8.55-3.6 1.2-8.7 1.6l-8.5.55q-9.9.95-15.1 7.05 6.55-2.8 15.4-3.8 7.6-.8 15.7-.2 9.45.75 14.45-4.65 5.15-5.55 3.15-15.2l7.55 3.65q4.85 2.3 7.65 3.75 6.4 3.35 9.25 8.05 2.75 4.5 1.5 8.85-1.3 4.4-6.35 7.2-5.5 3-14.15 3.2l-13.6-1-10.75-2q-12.3-1.9-28 3.85-15.2 5.55-20.45 12.3l-2.85 4.15q-1.45 1.75-3.95 2.35-5.65 1.35-9.15 5.55-4.3 5.2-5.9 6.05-10.3 5.7-18.35 5.8-6 .1-12.9-3.15-7.65-4.1-11.9-5.7-7.45-2.8-15.3-1.85-10.3 1.25-19.15 6.7-11.45 2.95-24.95 4.95-13.65 2-25 2.35-7.7.25-14.6-1.45-3.6-.95-10.55-3.65-5.9-2.35-9.45-2.85-5.3-.8-11.2.9 5.85.95 17.7 6.9 11.45 5.75 23.05 7.35 10.3 1.45 20.45-.55 11.55-2.25 17.6-1.95-6.35 4.25-12.7 7.35-8.05 3.95-17.65 6.8-29.7 8.9-49.5 1.2-20.7-8.1-22.4-31.4-.8-10.75-4.75-17.25-3.2-5.3-9.35-8.85-1.65-.95-11.55-5.4-7.35-3.25-11.55-6.9-9.2-8-4.6-15.9 4-6.9 15-9.65 2.75-.7 5.7-2 2.4 2.45 2.15 4.1-.15 1.05-1.9 2.95-4.15 4.5-2.3 10.65 3.7 12.25 16.85 22.5 10.1 7.85 20.4 11.2 10.55 3.45 29.7 1.25-6.5-.6-15.1-2.55-8.35-1.9-13.55-3.9-11.35-4.4-20.25-13.15-8.2-8-10.4-15.55-.75-2.6.4-5.5l2.6-5q3.25-6.15-1.55-11.4 3.1-2.9 3.7-6-2.9-3.1-3.55-4.8-1.05-2.75 1.6-7.95 1.05-2.05 8.15-4.95 6.2-2.6 6.15-6.2-9-2.25-15.85-6.6-6.95-4.4-10.9-10.45-4.65-7.15-4.35-16.5.35-8.65 4.95-18.6.6 17.3 11.1 25.05 13.05 9.65 37.95.45 12.7-4.7 22.35-7.15 9.85-2.55 20.65-3.8l21.55 3.45q10.6 1.3 11.25.3l1-2.15 1.05-3.85q9-.1 18.9 1.4l14.9 2.7q7.55 1.3 11.9.9 5.6-.55 9.75-3.9"/><path fill="#767cba" d="M414.5 149.75q3.85 6.5 4.95 11.15 1.35 5.75-1.1 9.75l-4.3-4.65q-3.85-4.5-4.85-8.4-1.05-4 .1-10.25 1.65 1.1 5.2 2.4"/><path fill="#666ba1" d="M354.95 139.3q4.3-7.75.15-21.35 2.6 2.35 5.8 4.5 3.3 6.9 2.6 14.85-.55 6.65-3.5 12.15-4.6 4.35-8.85 7.1-6.3 1.55-23.4.4-15.35-1-18 .7l-3.6-6.4q2.15-1.4 14.55-.35 13.45 1.1 20.55-1.5 10.2-3.75 13.7-10.1"/><path fill="#767cba" d="M376.65 129.7l5.75-7.9q5.55-7.75 12.1-9.85 5.75-1.9 10.95.8 4.8 2.55 7.15 7.8 2.35 5.45.75 11-3.2 11.3-4.05 15.8-1.15 6.25-.1 10.25 1 3.9 4.85 8.4l-8.1.3q-5.3 1.45-9.3 5.8-5.05 5.5-11.65 7.65-7.5 2.4-14.1-.9-7.8-3.9-9.45-13.9-1.55-9.2 2.55-19.55 5.4-5.85 12.65-15.7"/><path fill="#767cba" d="M363.5 137.3q.7-7.95-2.6-14.85 7.1 4.85 15.75 7.25-7.25 9.85-12.65 15.7l-4 4.05q2.95-5.5 3.5-12.15M325 85.6q6.95 16.05 2.35 26.8-3.15 7.45-13.65 8.65l-26.4-.9-28.4-1.85q-18.15-.25-41.1 3.3l-6.9 1.4q-4.7 1.15-13.7 3.95l-12.1 3.45q-20.4 4.8-28.45-6.6-7.8-11.05.75-29.6l1-1.2q5.65-6.55 12.1-12.35 9.35-8.4 19.7-14.65 19.05-11.5 36.45-16.9 38-11.8 71.05 5.45 5 2.55 10.1 6.35 11.1 10.65 17.2 24.7"/><path fill="#fff" d="M218.05 123.6l21.7-1.95q17.35-1.5 32.5-.7 0 2.1-.55 5.05l-1.05 3.85-1 2.15q-.65 1-11.25-.3l-21.55-3.45q-14.35-2.8-18.8-4.65"/><path fill="#666ba1" d="M327.15 185.15q-2.8-4.65-1.4-10.7 1.6-6.95 8.3-11.65 3.6-.35 7.35-1.55-7.15 6.8-6.95 15 .2 7.2 5.55 12.2l5.95 4.35q4.15 2.9 6.35 5.75-3.1-2.35-13.85-6.15-8.8-3.1-11.3-7.25m45.3 33.1q2.35 3.5 3.95 5.15-4.15 1.85-5.45 5.85-.55 1.65-1.1 8.15-.45 5.65-2.2 9.2-2.55 5.15-8.8 8.95-8.5 5.15-28.25 1.85-22.3-4.9-31.2-5.85l-24.45-1.5q-9.7.3-21.35 3.3 9.25-5.65 21.4-6.75 8.3-.8 23.95.5 8.2.7 28.95 5 18.35 3 25.75-1.3 4.8-2.8 6.6-7.4 1-2.45 1.75-8.75.7-5.8 2.25-8.8 2.4-4.65 8.2-7.6m82.5-15.85q2 9.65-3.15 15.2-5 5.4-14.45 4.65-8.05-.6-15.45.2-8.6.95-15.15 3.75 5.2-6.15 14.85-7.05l8.3-.5q5.05-.4 8.65-1.6 6.55-2.2 8-8.55 1.3-5.65-1.75-12.35 3.85 3 10.15 6.25"/><path fill="#cea6cc" d="M210.5 183.65q11.8-8 27.15-14.1 15.4-6.1 30.75-8.85 1.75 13.1 1.6 25.3-.2 19-5.35 27.25-2.5 4.05-10.75 7.45-8.35 3.5-19.25 4.9-26.6 3.45-45.9-6.7-2.65-8.55 3.6-18.05 5.75-8.75 18.15-17.2"/><path fill="#0d131a" d="M187.95 188.65q4.55-9.55 4.15-14.95-.15-1.8-.9-3.4l-1.1-2.15q13.15.05 26.85-3.6 14.55-3.85 28.3-11.55 10.5-5.85 16.75-3.15 5.1 2.15 6.1 8.8l.3 2.05q-15.35 2.75-30.75 8.85-15.35 6.1-27.15 14.1-12.4 8.45-18.15 17.2-6.25 9.5-3.6 18.05-4.1-2.15-7.6-4.95-3.1-7.25.25-14.35 4.85-7.4 6.55-10.95"/><path fill="#666ba1" d="M418.35 170.65q2.45-4 1.1-9.75-1.1-4.65-4.95-11.15l5.65 2.3q3.4 1.5 5.8 3.35 1.35 7.05.2 12.95-1.25 6.15-4.5 6.95-1.35-2.3-3.3-4.65"/><path fill="#666ba1" d="M354.4 171.35q-2.25-8.55 1.35-17.5l8.25-8.45q-4.1 10.35-2.55 19.55 1.65 10 9.45 13.9 6.6 3.3 14.1.9 6.6-2.15 11.65-7.65 4-4.35 9.3-5.8l8.1-.3q2.05 2 4.7 5.2 3.35 4.15 3.85 5.95-7.6-6.6-13.2-6.35-6.15.2-12.95 8.45-5.15 6.2-12.55 7.95-8.4 2.05-17.9-2.25-9.1-4.05-11.6-13.6M183.95 46.9q3.55-5 11.75-5.95 9.05 3.4 15.8 5.15l-14.8.75q-10.8 1.95-12.3 11.1-4.1-5.9-.45-11.05M145.8 217.85q-1.85-6.15 2.3-10.65 1.75-1.9 1.9-2.95.25-1.65-2.15-4.1 4.3-1.9 7.05-4.4 4.8 5.25 1.55 11.4l-2.6 5q-1.15 2.9-.4 5.5 2.2 7.55 10.4 15.55 8.9 8.75 20.25 13.15 5.3 2.05 12.9 3.85 8.1 1.9 14.5 2.5l-17.35.8q-6.25-.35-11.1-1.95-10.3-3.35-20.4-11.2-13.15-10.25-16.85-22.5M325.2 78.5l12.65 18.4q.8 9.1-1.95 17.15-2.9 8.35-8.75 13.05-4.15 3.35-9.75 3.9-4.35.4-11.9-.9l-14.9-2.7q-9.9-1.5-18.9-1.4.55-2.95.55-5.05-15.15-.8-32.5.7l-21.7 1.95q4.45 1.85 18.8 4.65-10.8 1.25-20.65 3.8-9.65 2.45-22.35 7.15-24.9 9.2-37.95-.45-10.5-7.75-11.1-25.05 2.2-4.7 5.2-9.35 3.2-4.9 7.4-10.15-8.55 18.55-.75 29.6 8.05 11.4 28.45 6.6l12.1-3.45q9-2.8 13.7-3.95l6.9-1.4q24.7-3.85 37.9-4.4l25.1 1 31.15 2.05q12.3-.55 15.4-7.85 4.65-10.8-1.85-26.3-5.75-13.75-16.75-24.25 8.75 6.6 16.45 16.65"/><path fill="#767cba" d="M162.5 61.3q2.5 10.7.85 18.4-.7 3.35-4.95 13.3l-1 1.2q-4.2 5.25-7.4 10.15-3.45-7.95-10.55-15.8-6.8-7.5-11.15-8.75-.9 6.2.9 16.15.6 3.15-.75 5.45-1.25 2-3.45 2.55-2.2.55-4.1-.7-2.05-1.35-2.7-4.4-4.65-21.45-9.75-20.6-3.15.6-4.4-.45-1.45-1.25-2.55-6.2l-.05-.6v-5.3q.15-1.05 2.2-2l2.65-1.35q.7-.75.55-4-.2-3.55-1.4-7.8-.7-2.6-3.75-6.1l-6.2-6.7q-8.65-9.3-9.8-16.75-1.3-8.4 3-12.6 3.45-3.35 12-4.95l8.25 1.7q-4.45 5.35-2.9 10.35 1.25 3.95 6.85 8.65 3.2 2.75 10.65 8.15 6.4 4.95 8.75 8.75-.9-5.35-4.75-10.1l-7.05-7.2q-3.95-3.95-4.85-6.9-1.25-4.1 1.75-9.2 13.15 4.3 37 15.25-7.2 3.35-1.65 16 1.55 3.6 5.45 11.25 3.3 6.95 4.3 11.15"/><path fill="#666ba1" d="M280.05 275.75q-6.35 4.7-8.85 6.4-6.05-.3-17.6 1.95-10.15 2-20.45.55-11.6-1.6-22.6-7.3-11.4-5.9-17.25-6.85 5.9-1.7 11.1-.95 3.4.55 9.1 2.85 6.7 2.7 10.25 3.6 6.75 1.7 14.45 1.45 11.35-.35 25-2.35 13.5-2 24.95-4.95l-8.1 5.6M95.45 44.9l-7.65-5.85q-10.4-8.1-12.1-15.3-1.85-8.1 2.5-13.8Q82.05 4.9 90 2.5l6.15.35 4.55.6q-8.55 1.6-12 4.95-4.3 4.2-3 12.6 1.15 7.45 9.8 16.75l6.2 6.7q3.05 3.5 3.75 6.1 1.2 4.25 1.4 7.8.15 3.25-.55 4l-2.65 1.35q-2.05.95-2.2 2V71l-1.65-2.15-1.35-4.35q-.6-2.3.9-2.75 3.2-.9 3.7-2.5.8-2.55-2.5-8.85-1.25-2.35-5.1-5.5m31.7-14.65q3.8 4.65 4.7 10-2.5-3.65-8.9-8.45l-10.5-7.9q-5.4-4.55-6.55-8.5-1.4-4.9 3.05-10.25l8.45 2.5q-3 5.1-1.85 9.05.85 2.9 4.75 6.65l6.85 6.9M73 3.75Q66.85 5.9 63 9.5q-4.95 4.55-3.55 9.65 1.65 5.9 1.15 10.7-.7 6.75-5.9 8.15-8.7 2.4-9.6 2.85-3.9 1.95-5.2 7.15l-.55 2.95-2.1-2.9q.1-4.35 1.95-7.2 2.45-3.7 8.3-5.6 5.65-1.85 6.8-6.2 1-3.9-1.75-8.2-3.15-5-2.5-8.55.55-3.15 4.2-5.55L60 5.8l13-2.05"/><path fill="#767cba" d="M54.25 6.75q-3.65 2.4-4.2 5.55-.65 3.55 2.5 8.55 2.75 4.3 1.75 8.2-1.15 4.35-6.8 6.2-5.85 1.9-8.3 5.6-1.85 2.85-1.95 7.2-3.85-4.3-10.3-5.45-4.55-.8-12.55-.1-10.1.9-12.25-5.35-.9-2.55.25-5.25 1.2-2.8 4.05-4.55 4.65-2.8 10.65-4.95l8.85-3.2q1.45-9.55 7.4-12.6 7.6-3.85 26.65-.8l-5.75.95"/><path fill="#666ba1" d="M169.8 30q-5 .95-5.7 8.25-.65 6.75 2.55 14.15 4.2 9.9 4.95 13.25 1.7 7.45-1.1 15-6.45 5.8-12.1 12.35 4.25-9.95 4.95-13.3 1.65-7.7-.85-18.4-1-4.2-4.3-11.15-3.9-7.65-5.45-11.25-5.55-12.65 1.65-16l15.4 7.1"/><path fill="#767cba" d="M87.8 39.05l7.65 5.85q3.85 3.15 5.1 5.5 3.3 6.3 2.5 8.85-.5 1.6-3.7 2.5-1.5.45-.9 2.75l1.35 4.35q-7.55-9.15-15.85-9.1l-5.55.7-3.7-.2q-4.55 2.65-10.2 7-7.75 5.95-16.6 4.65-8.35-1.2-10-6.9-.9-3.2.2-6.9 1.55-3.95 1.9-6.05.4-2-.1-4.05 1.3-5.2 5.2-7.15.9-.45 9.6-2.85 5.2-1.4 5.9-8.15.5-4.8-1.15-10.7-1.4-5.1 3.55-9.65 3.85-3.6 10-5.75 9.35-1.4 17-1.25-7.95 2.4-11.8 7.45-4.35 5.7-2.5 13.8 1.7 7.2 12.1 15.3m123.7 7.05q7.8 2.2 15.15 3-17.4 5.4-36.45 16.9-10.35 6.25-19.7 14.65 2.8-7.55 1.1-15-.75-3.35-4.95-13.25-3.2-7.4-2.55-14.15.7-7.3 5.7-8.25 15.45 7 25.9 10.95-8.2.95-11.75 5.95-3.65 5.15.45 11.05 1.5-9.15 12.3-11.1l14.8-.75"/><path fill="#0d131a" d="M285.55 145.3q3.55-5.6 9.5-5.7 1.8-.05 4.8 3.15 2.95 3.1 6.3 8.5l3.6 6.4 2.85 5.85q-11.6-5.8-30.9-4.5.7-8.65 3.85-13.7"/><path fill="#cea6cc" d="M274.4 181.7q.35-7.2 3.8-11.35l2.3-2.9q1.05-1.75 1.05-4.15 0-2.2.15-4.3 19.3-1.3 30.9 4.5 6.2 13.35 8.6 26.6 2.2 11.75-3.35 16.75-4.95 4.45-13.8 2.25-8.15-2-12.1.65l-2.35 1.75-2.55.05q-6.95-3.2-10.2-11.7-2.95-7.6-2.45-18.15"/><path fill="#666ba1" d="M169.5 272.8q12 15.45 41.85 18.25 23.2 2.15 50.65-3.35-9.35 5.05-21.15 8.6-25.95 7.8-44.45 2.9-20.85-5.5-26.9-26.4m304.75-60.45q4.7 3.55 6.3 7.8 1.55 4.2-.2 7.95-4.05 8.6-19.95 9-7.45.15-20.75-2.4-10.6-2.05-19.75-.2 4.35-1.65 10.95-1.95l12.2.05q16.1.25 24.2-4.2 4.25-2.8 6.05-7.15 1.7-4.15.95-8.9"/><path fill="#b390b1" d="M268.4 160.7q1.6 11.8 1.6 23.4-23.5-6.1-49.05-6.75 10.75-5.8 22.95-10.1 12.4-4.4 24.5-6.55m5.95 24.6l.05-3.6q.35-7.2 3.8-11.35l2.3-2.9q1.05-1.75 1.05-4.15 0-2.2.15-4.3 19.3-1.3 30.9 4.5 6.2 13.35 8.6 26.6 1.9 10.4-2.25 15.55-19.1-13-44.6-20.35"/><path fill="#666ba1" d="M175.7 167.85l6.1.7q4.75.25 8.3-.2 2.95 5.15 1.4 11.4-.75 2.85-4.05 9.4.65-2.4-.45-4.75-1.2-2.6-3.65-1 .15-5.25-1.85-8.75-1.3-2.3-5.8-6.8m74.35 76.1q1.85-.1 7.6-2.2 7.3-2.65 10.75-3.6 14.65-3.9 21.3 3.2-6.3-2.4-19.4 1.4l-11.5 3.45q-6.95 1.95-12.15 2.55-6.35.75-15.45.3-11.65-.55-22.05-3.05-28.9-7.05-37.65-26.35 18.25 20.05 47.5 24.2l19.9.9 11.15-.8m155.55-47.1q8.8-4.35 16.6-3.45-1.25 3.45-7.85 6.15l-9.8 3.25q-4.9 1.65-7.8 9.3-1.55 4.15-3.1 10.5-1.05 2.85-6.1 3.8l-7.6-.3q-1.25-.45-3.45-3.1l-4.3-5.4q-6.15-7.45-10.95-7.85 3.8-1.95 7.05-1.35 1.4.25 5.2 2.05 3.2 1.5 5.65 1.4 3.6-.15 8.2-3.4 12.8-8.95 18.25-11.6M120.95 95.8q5.8 4.2 7.1-8.85l.8 2.7q.9 3.3 1.1 6.05.6 8.85-5.6 9.4-6.1.6-7.35-5.65-.45-7.7-1.65-10.45l1.7 2.6q2.05 2.9 3.9 4.2m-82.8-38.55q1.2 6.1 7.55 8 6.25 1.9 13.35-1.5 10.9-5.15 16.3-6.95 5.9-1.9 11.8-2.1-2.65.95-6.55 2.85-7.85 3.85-14.1 8.8-6.85 5.4-14.8 6.2-6.8.65-10.05-2.05-3.05-2.45-3.95-5.2-1.05-3.3.45-8.05M1.45 33.1l3.65 2.2q4.75 2.25 10.3 2.45 14 .55 19.25 7.65-2.3-1.05-5.95-1.8-7.25-1.55-13.8-.25-7.1 1.4-11.45-3.15-1.7-1.75-2.25-3.85-.55-2 .25-3.25m26.5-22.75l.7 2.15q1.25 2.15 3.7 2.25l-2.4 2.3q-2.65 2.3-4.1 2.15l.35-4q.55-4.15 1.75-4.85m26.65-3.2q-3.6 2.45-3.95 5.7-.3 3.25 2.5 7.65 3.1 4.9 1.55 9.3-1.45 4.15-6.9 5.9-5.9 1.95-8.25 5.7-1.65 2.75-1.65 7.15l-.05.1-1.05-1.85q.2-4.2 1.85-6.7 2.35-3.45 8.3-5.4 5.5-1.75 6.75-5.25 1.25-3.4-2-8.4-3-4.65-2.55-8.05.4-3.2 3.9-6l1.55.15"/><path fill="#666ba1" d="M70.05 4.4l5.2-.7q-3.8 1.1-7.3 3.2-4.2 2.5-6.15 5.5-2.45 3.7-1.7 6.55 1.15 4.15 1.45 6.95.6 5.75-1.25 9.05-1.4 2.45-4.35 3.4l-4.25.95q-5.45 1.55-6.55 2.3-3.75 2.55-4.65 9.5l-1.4-1.25q1.1-6.8 5.45-9.4.8-.45 6.9-2.2l4.4-1.35q2.05-.95 3.05-2.7 2.8-4.95.2-14.95-1.05-3.85 1.25-7.45 2.75-4.2 9.7-7.4M96.4 46.35l-5.5-4.4Q83.8 36.6 81.2 34q-5.05-5-6.25-10.15-1.7-7.25 1.8-12.85Q80.2 5.5 87.9 2.65l3.15.1q-10.8 2.9-13.95 10.3-2.05 4.75-.75 10.55 1.15 4.9 5.9 9.75 2.7 2.8 9.3 7.75 4.05 3.05 5.8 4.6 2.7 2.4 3.8 4.45 3.65 7 2.55 9.55-.45 1-1.65 1.65l-2.45.9q-1.15.3-.4 2.75l1.3 4.15-1.3-.95-1.55-4.6q-.5-1.9 1.15-2.4 2.7-.7 3.25-1.95 1.1-2.5-2.1-8.65-1-1.9-3.55-4.25"/><path fill="#666ba1" d="M89.4 8.9q-4.05 3.95-2.8 11.95.75 5.05 4.5 10.3 2.15 3.05 7.35 8.5l5 5.55q2.25 2.9 2.9 5.2 1.25 4.45 1.5 7.85.3 3.45-.6 4.35l-1 .55-1.35.55q-2.7 1.25-2.8 2-.15 1.5.05 6l-1.05.05q-.2-4.55-.05-6.15.15-.95 1.2-1.7.65-.5 2.2-1.15l1.55-.85q.6-.55.45-3.45-.15-3.45-1.4-7.8-.55-2.15-2.75-4.9l-4.85-5.35q-5.25-5.45-7.55-8.7-3.8-5.4-4.6-10.7-1.25-8.15 2.7-12.55 3.1-3.4 10.2-5.05l3.4.5q-8.8 1.65-12.2 5m33.35 16.15q4.65 4.4 5.95 6.15 2.95 3.85 3.75 8.7v1.35q-.15.6-.5.05-1.7-2.8-5.45-5.9l-7.25-5.5q-7.1-5.3-9.55-7.7-4.45-4.4-4.9-8.45-.4-3.6 3.45-8.45l1.15.25q-3.5 4.25-3.05 8.05.35 3.75 4.45 7.85 2.55 2.5 9.1 7.3l6.2 4.75 5.2 5.1q-1.15-3.7-3.95-7.2l-5.3-5.6q-3.7-3.5-5-5.35-2.2-3.05-2.2-6.15 0-3.05 2.05-6.65l1.3.4q-2.85 4.85-1.35 9.15 1.2 3.35 5.9 7.85m40.35 36.1q2.3 10 1.15 17.25-.7 4.45-4.1 12.25l-2.8 1.7q4.2-9.25 5.05-12.95 1.8-7.85-.55-18-.75-3.15-2.6-7.35l-3.65-7.65q-4.35-8.75-5.25-11.2-2.15-5.8-.8-9 .7-1.8 3.85-3.55l1.65.55q-2.85 1.2-3.8 3.45-1.25 2.95.65 8.45 1.15 3.25 4.9 10.85l3.7 7.7q1.85 4.3 2.6 7.5m.45-19.5q-.25-6.25 2.15-9.55 1.25-1.75 3.25-2.45.95.15 1.9.7-2.25.2-4.05 2.65-2.15 2.95-1.75 8.6.4 6 3.65 13.8 3.8 9.1 4.35 12.35.75 4.85-1.5 11.8-.3.8-1.9 2.05 3-7.25 1.8-14.15-.7-3.95-4.3-12.4l-1.05-2.35q-2.3-5.35-2.55-11.05m46.1 4.05l3 1-5.9.35-8.75.65q-11.55 1.9-12.95 10.25-.2 1.25-1.05.1-1.85-2.6-2.15-5.35-.3-2.75 1-5.2 1.5-2.8 4.5-4.7 3.05-1.95 7.1-2.6 1 .75 2.45 1.1-4.55.4-8.05 2.2-3.5 1.85-5 4.7-2.05 3.95.45 8.3 1.8-7.1 9.6-9.5 4.45-1.35 13.15-1.3h2.6m117.3 43q5.55 15.15 1.4 24.8-3.15 7.4-12.5 8.4-5.8.65-24.65-1.45l-10.95-1.7q-13.15-1.15-25.45-.65-15.5.65-36.8 4-4 .6-17.6 4.5l-15.15 4.35q-9.7 2.3-17.15.8-7.55-1.5-11.65-6.7-3.95-5.05-3.9-12.95.05-7.7 3.85-16.6l1.55-2q1.3-1.6 1.7-1.85-4.45 9.45-5.1 17.75-.75 8.9 3.15 13.9t10.95 6.5q7.1 1.45 16.45-.75l14.3-4.15q13-3.75 18.4-4.65 20.2-3.25 35.25-3.85 12.65-.5 27.3.75l9.7 1.35 24.3 1.25q9.45-.8 12.35-7.6 3.95-9.15-3.7-26.95-7.1-16.6-17.5-26.55-1.8-1.65 1.75.9 3.15 2.35 5.2 4.7 9.6 11.1 14.5 24.45"/><path fill="#666ba1" d="M235.4 127.9l4.2.85q-11.05 1.3-22.25 4.15-10.85 2.8-23.6 7.55-25.3 9.35-38.3.1-5.25-3.8-8.2-10.85-2.85-6.95-2.85-15.55l1.05-2.2q-.05 8.85 2.9 15.8 2.9 6.95 8.3 10.75 12.8 9.2 37.15.15 12.15-4.5 21.5-6.95 9.6-2.5 20.1-3.8m101.95-31.95l1.55 2.4q.65 9.2-2.15 17.35-2.9 8.4-8.6 12.95-4.9 4-12.25 4.05-4.6.05-15.4-2.05l-13.05-2.4q-8.5-1.35-16-1.2.5-.6.65-1.6l15.7 1 12.85 2.15q10.5 1.95 14.75 1.9 6.85-.05 11.55-3.85 5.8-4.65 8.6-13.1 2.8-8.35 1.8-17.6m18.5 22.35q3.75 13.95-.35 21.45-3.45 6.25-13.95 10.1-4.85 1.8-11.6 1.9l-11.35-.55-7.15-.45q-3.35 0-4.8.85l-.65-1.9q1.6-1 5.1-1.05l7.6.4 11.05.45q6.5-.2 11.25-1.95 10.45-3.8 13.45-9.9 3.65-7.25-.5-21.5l1.9 2.15M352 155.75q-.55.3-1.6 1.55l-1.25 1.7-10.15.4-11.3-.95-10.45-.65q-5.1-.1-6.9 1l-.5-1.8q2-1.1 7.1-1.15l10.85.5 13 .6q7.1 0 11.2-1.2m10.95-9.3l-1.75 1.4-1.7 1.55q3.15-5.7 3.6-12.65.6-8.45-3.35-15.6l2.15 1.4q6.4 13.5 1.05 23.9M332.7 163q.4-.3 1.35-.25l.75.2q-6.85 4.65-8.45 11.55-1.35 5.9 1.35 10.35 1.65 2.75 5.65 4.8 2.4 1.3 8.05 3.3 6.95 2.5 9.75 4.1.9.55 2.9 3.75-3.55-2.75-13-6.05-5.85-2.1-8.95-3.8-4.75-2.5-6.5-5.45-2.7-4.45-1.15-10.55 1.7-7 8.25-11.95"/><path fill="#666ba1" d="M339.8 161.8q.4-.4 2.05-.65l1.4.05q-7 6.2-7.55 13.9-.6 7.5 5 12.7l4.4 3.35q4.75 3.2 6.95 5.4 3.7 3.75 4.8 8.2.55 2.1-.3 2-.8-.15-1.35-2.25-1-4.05-4.4-7.2l-6.6-4.85-4.6-3.45q-5.95-5.6-6.1-12.8-.2-7.55 6.3-14.4m23.15-15.35q.35-.9 1.2-1.35.8-.5.55.2-4 10.1-2.7 18.75 1.5 9.6 9.25 13.5 6.35 3.15 13.7.8 6.45-2.05 11.4-7.45 6.85-7.45 17.4-5.6.5.1.85.85.4.7.1.65-3.8-1.05-8.15 0-5.5 1.3-9.4 5.6-5.15 5.65-11.95 7.8-7.75 2.45-14.45-.95-7.9-3.95-9.8-13.7-1.7-8.9 2-19.1"/><path fill="#666ba1" d="M354.85 153.95q.15-.3 1.2-.7l.9-.2q-2.35 4.9-2.8 10.15-.4 5.3 1.2 9.8 2.8 7.75 10.95 11.45 10.85 4.85 19.85 1.55 5.85-2.1 10-7.15 6.75-8.15 12.95-8.6 3-.2 6.1 1.1 3.15 1.4 6.95 4.55.65.55 1.25 2.45-4.15-3.7-7.75-5.2-3.2-1.35-6.45-1.1-3.05.25-5.7 1.85-2.8 1.75-6 5.65-5.7 6.9-14.35 8.8-8.85 2-17.7-2-8.6-3.85-11.55-12.05-1.6-4.45-1.35-9.95.25-5.55 2.3-10.4m60.55-4.25q3.8 6.45 4.8 11.2 1.3 5.95-1.4 10.2l-.7-.85q2.35-3.95.5-9.9-1.25-4.2-5.25-10.9l2.05.25"/><path fill="#666ba1" d="M426.5 155.3q.7.35 1 .7.85 5 .05 10.2-.75 4.9-2.6 7.6-1.25 1.9-3.1 2.3l-.1-1.4q1.2-.3 2.2-1.75 1.8-2.65 2.2-7.75.4-5.05-.75-10.35l1.1.45m17.7 40.55l1.55.9q3.45 8.2 1.45 13.5-.95 2.5-3.25 4.45-2.15 1.85-5.1 2.8-2.9.95-6.5 1.4l-6.35.5-9.25 1.05q-4.9 1.2-8.3 4.4 5.95-2.1 13.45-2.9 7.55-.85 15.6-.25 4.7.4 8.4-.9 3.7-1.25 6.05-4 4.7-5.6 2.4-15.1l1.75 1.1q2.05 9.7-2.75 15.4-2.4 2.85-6.75 4.05-4 1.15-9.15.75-8.9-.7-16.8.25-8.2.95-14.1 3.45-.9.4-.8-.15.05-.4.65-1.1 3.85-4.55 9.2-6.2 3.35-1.05 10.35-1.45l6.25-.45q3.5-.4 6.3-1.35 2.85-.95 4.5-2.3 1.85-1.5 2.7-3.8 1.1-2.95.7-6.65-.45-3.7-2.2-7.4m-71.95 21.6l.6.45q.35.6.15.65-6 2.95-8.3 7.75-1.4 2.85-2.15 9.2-.65 5.7-1.8 8.45-1.95 4.5-6.7 7.25-5.75 3.35-16.8 2.55-6.6-.45-21.15-3.35-11.75-2.35-17.1-2.8-13.05-1.1-21.45-.55-12.15.8-21.15 5.05 10.05-2.45 20.05-2.55l23.1 1.45q5.05.5 17.6 3.15 15.5 3.25 22.75 3.85 12.4.95 18.8-2.95 6.55-4 8.95-9.6 1.45-3.3 1.9-9.8.35-5 1.2-7.2 1.4-3.65 5.25-5.45l.9.35.55.5q-3.65 1.65-4.9 4.9-.8 2.05-1.15 7-.45 6.45-2.3 10.6-2.85 6.55-9.7 10.7-6.55 3.95-19.3 2.65-5.65-.55-23.2-4.25-11.95-2.55-17.45-3.15l-24.9-1.3q-10.45.4-22.25 3.85-.95.25-.45-.7.45-.9 1.4-1.45 9.7-5.9 22.45-7.15 8.65-.9 23.15.35 4.4.35 17.5 2.95 14.1 2.75 20.3 3.25 10.85.85 16.35-2.35 4.45-2.55 6-6.5.8-2 1.45-7.85.7-6.1 2.6-9.65 2.8-5.15 9.2-8.3M246.3 284.6l9.45-1.5 7.5-1.25q4.6-.55 9.3-.2l-.75.9-1.45.85q-7.3-.25-14.45 1.2l-9.6 1.55-13.1-.5q-7.85-1.1-14.8-3.75-3.55-1.4-10.55-4.95-4.65-2.4-7.25-3.45-4.15-1.7-8.2-2.35-.5-.1-.25-.6.3-.55 1.25-.85 6.3-1.85 11.4-1.1 3.2.45 9.45 2.9 6.45 2.55 10.15 3.5 6.55 1.6 13.9 1.35 11.25-.35 27.15-3 14.85-2.5 27.05-5.8-3.9 3-5.35 3.35-11.35 2.85-24.6 4.75-13.2 1.95-24.2 2.3-7.5.25-14.2-1.35-4-1-10.3-3.5-5.75-2.25-8.85-2.85-4.95-.95-10.1.1 5.6 1.35 13.45 5.4 6.5 3.3 10.4 4.75 6.8 2.55 14.6 3.6l12.95.5m-91.45-88.3l.45-.35q.5-.3.65-.15 3.1 3.35 3 6.95-.05 2.65-2 6.35l-2.25 4.2q-1.1 2.4-.65 4.2 1.95 7.2 10.9 15.4 9.05 8.35 19.45 12.4 5.45 2.1 13.2 4.05 8.95 2.3 15.35 2.85 1.1.1.4.6l-1.85.55-18.2 1.05q-5.75-.25-10.05-1.6-9.9-3.15-20.25-10.8-14.5-10.7-18.4-23.6-1.2-3.95.05-7.15.7-1.85 2.75-4.3 1.6-1.8 1.7-2.75.2-1.35-1.8-3.35-.15-.15.5-.5.6-.4.75-.25 2.4 2.4 2.1 4.35-.15 1.2-1.9 3.2-1.9 2.2-2.45 3.8-.95 2.6.1 6.2 3.85 12.65 17.55 22.9 9.75 7.3 19.35 10.45 9.15 3 24.8 1.7l-13.25-2.65q-6.65-1.65-10.8-3.25-11.6-4.45-20.7-13.35-8.45-8.25-10.5-15.7-.55-1.9.05-3.9.45-1.6 2.3-5.2 2.05-3.9 2.15-6.45.1-3.15-2.5-5.9"/><path fill="#0d131a" d="M408.95 147.9l.45-2.4q1.3 1.05 6.3 3 11.5 4.35 15.25 8.2 5.95 6.05 6.1 19.1.15 11.25 7.55 18.05 4.45 4.1 17.5 10.25l8.55 4.15q6.6 3.45 10.7 8.7 4.4 5.6 3.35 10.1-1.2 5.25-7.25 8.65-6.15 3.45-14.95 3.65l-11.45-.9-9.3-1.8q-8.55-1.75-13.7-1.55-8.4.25-19.6 4.35-10.45 3.85-15.45 8.4-1.8 1.65-4.9 6.45l-1.95 3.3q-1.35 1.7-3.5 1.75-3.4.05-6.65 1.8-2.9 1.5-4.55 3.7l-2.45 3q-1.65 1.9-3.1 2.7-12.05 6.65-21.3 5.85-5.65-.55-14.8-5.3-7.55-3.9-9.75-4.7-6.1-2.2-12.5-1.4-8.55 1.05-15.55 4.65-4.4 2.3-12.45 8.3-9.95 7.35-15.45 10.55-10.6 6.2-23.4 10.05-17.8 5.35-33.05 4.55-15.3-.75-25.15-7.55-6.6-4.5-10.65-12.45-3.95-7.75-4.65-16.95-1-13.75-7.35-20.2-3.45-3.5-14.2-8.1l-7.7-3.45q-4.3-2.2-7.35-4.85-4-3.5-5.9-7.2-2.15-4.1-1.25-7.8 1.05-4.3 6.3-8.2 5.1-3.85 11.8-5.55 6.55-1.65 10.85-4.65 5.1-3.5 5.1-7.75 0-.35 1 .6t.9 1.35q-1.05 4.25-6.2 7.8-4.65 3.15-10.75 4.7-6.15 1.55-10.4 4.85t-5.2 7.2q-1.45 6.1 5.5 12.15 3 2.6 7.05 4.75 2.55 1.35 7.4 3.4 10.9 4.7 15.05 9.1 6.95 7.25 8 21.7 1.3 17.7 14.2 26.7 9.55 6.55 24.4 7.3 14.85.75 32.25-4.5 12.75-3.8 22.9-9.55 5.9-3.35 15-10.1 8.15-6.05 12.6-8.3 7.35-3.85 16.15-4.9 6.9-.85 13.2 1.05 3.75 1.1 10.35 4.5 8.75 4.55 14.15 5.05 8.9.8 20.45-5.6l2.45-1.95 1.95-2.35q2.2-2.85 3.85-4.2 2.8-2.2 7-3.2 1.8-.4 2.85-1.35l1.85-2.45q2.5-3.95 5.8-6.5 5.65-4.45 16.65-8.5 11.5-4.2 20.1-4.45 5.2-.15 14.1 1.6l8.25 1.45 10.15.5q8.15-.2 13.45-2.95 5.35-2.75 6.4-7.35 1-4.15-1.85-8.3-2.8-4.15-8.6-7.2l-8.45-4.15q-13.75-6.45-18.8-11.05-8.35-7.55-8.5-19.4-.15-11.8-6.65-18.15-3.7-3.65-12.35-6.95-4.4-1.6-6.2-2.85"/><path fill="#0d131a" d="M378.05 128.4q-1.5 2.3-1.85 2.2-13.9-3.95-24.6-14.9-6.3-6.45-16.95-22.4-9.6-14.3-15.35-20.8-9.85-11.05-21.85-17.3-24.05-12.55-50.15-9.75-26 2.75-56.6 21.15-18.2 11-31.9 27.3-13.65 16.35-17.05 31.15-3.1 13.6 3.25 23.25 5.2 7.95 15.45 12.75 10.25 4.85 23.7 5.7 30.1 1.9 60.85-15.3 12.1-6.75 18.3-3.65 2.4 1.15 4.25 4.3 1.75 3 2.25 6.35 2.7 17.9 1.95 32.9-.8 16.1-5.4 23.4-2.85 4.6-12.15 8.25-9.3 3.6-21.3 4.75-13.2 1.3-25.45-1-18.85-3.6-30.65-15.3-2.05-2-2.05-3.4.05-1.4 2 .7 11 11.75 29.7 15.35 12.15 2.3 25.25 1 11.45-1.1 20.6-4.6 9.2-3.5 11.8-7.75 5.7-9.2 5.2-31.9-.2-7.25-1-15.1l-.85-7.05q-.95-5.9-5.2-8-5.9-2.95-16.45 2.9-32.25 18-63.35 15.9-14-.9-24.75-6.1-10.7-5.2-16.25-13.7-3.25-4.95-3.9-11.8-.65-6.4 1.05-13.75 3.45-15.15 18-32.1 14.3-16.65 33.3-28.1 31.3-18.85 57.4-22.1 26.65-3.3 50.9 9.3 12.25 6.4 23 18.5 6.8 7.65 16.35 22 11.05 16.5 16.5 22.2 10.3 10.8 24 14.55"/><path fill="#0d131a" d="M189.1 169.15q-.25-.3.95-.45 1.25-.2 1.35 0 1.65 3 1.6 6.05-.05 5.4-4.25 14.2l-3.1 5.2q-3.8 5.85-4.65 9.15-1.45 5.6 1.65 11.7.2.4-1.15-.6-1.3-.95-1.55-1.55-2.05-5.95-.45-10.85.85-2.65 4.85-8.7l3-5.05q3.95-8.3 3.75-13.55-.1-3.25-2-5.55m-18.8-3.45q0-.3 1.05-.2 1.1.1 1.05.5-.05 2.7-2.85 4.6-1.4.95-5.6 2.65-2.7 1.05-3.9 1.7-1.9 1.1-2.55 2.35-2.1 4.15-1.8 6.35.15 1.45 2.05 3.65l2.95 3.1q1.55 2.35 1.3 6.35-.15 2.35-.85 2.8-.75.45-1-1.85-.35-3.5-1.35-5.65-.65-1.35-2.25-3.2-2.7-3.1-3.25-4.85-1.1-3.35 1.15-7.75.8-1.55 3.25-2.85l4.55-2 5.7-2.35q2.45-1.4 2.35-3.35"/><path fill="#0d131a" d="M171.4 166.5l2.2.2 2.7.65q6.9 6.1 7.8 13.6 1.05 8.3-5.45 15.95-7.7 8.9-7.1 16.85.6 6.85 7.4 12.45 14.5 12.1 39 16.4 24.5 4.3 41.7-2.25 11.9-4.55 17.95-4.7 6.2-.2 10.8 4 1.65 1.55 1.5 2.5-.15 1-1.8-.5-3.9-3.6-10.6-3.15-6.25.45-17.25 4.65-17.55 6.7-43.25 2.15-25.7-4.55-40.45-16.9-7.9-6.55-8.5-13.8-.35-4.2 1.85-9.15 2.1-4.8 6.25-9.6 6.05-7.05 5.05-14.7-1.05-8.5-9.8-14.65m123.8-26.15q-5.95.1-9.1 6.2-3.1 5.95-3.1 16.7 0 2.25-1.15 4.1l-2.25 2.7q-1.6 1.85-2.3 3.95-.95 2.8-1.2 7.7-.55 11.15 2.3 18.55 2.9 7.65 9.1 10.55l1.45.15 1.4-.9q2.15-1.8 4.3-2.3 3.7-.95 9.7.55 8.6 2.1 13.25-2.25 5-4.7 2.95-15.85-3.25-17.4-12.5-34.35-8.55-15.6-12.85-15.5m-10.7 4.4q3.7-7.1 10.3-7.25 6.45-.15 16 17.9 9.35 17.65 12.55 34.85 1.25 6.65-.3 11.7-1.15 3.8-3.65 6.15-4.7 4.35-15.45 1.7-5.35-1.3-8.75.05-1.1.45-3.85 2.75l-1.85 1.2-2.65-.25q-6.7-3.1-10.2-11.8-3.45-8.55-2.9-20.15.25-5.7.9-8.45.6-2.75 2.05-4.4.7-.8 2.65-2.25 1.55-1.45 1.55-3.25 0-11.6 3.6-18.5"/><path fill="#0d131a" d="M200.8 189.25q11.25-9.85 29.85-18 18.75-8.25 37.8-11.6v1.9q-18.45 3.4-36.3 11.25-18.2 8.05-29.7 18.1-7.45 6.5-10.85 12.9-4.5 8.45-1.6 16 .2.35-1.25-.6-1.4-.95-1.5-1.45-1.7-6.7 1.7-13.95 3.45-7.25 11.85-14.55m80.75-29.4q.1-1 .35-1.8 18.85-1.2 30.75 4.45.4.2.85 1.35.4 1.1.1.9-11.6-6.35-32.05-4.9M195.7 38.75q19.8 7.7 33.25 8.9l-3.45 2.05q-13.35-1.65-32-8.85-11.25-4.35-33.8-14.75-22.7-10.5-33.55-14.6Q108.5 4.75 96.2 3.6q-7.8-.75-16.3.05l-16.55 2.4-6.9 1.4-7.5 1.35Q46 9.2 47.2 8q1.15-1.2 4.15-1.7L69.4 2.4Q85.25-.65 96.55.2q12.3.9 30.1 7.9 7.85 3.1 33.55 14.95 25.7 11.85 35.5 15.7M128.15 78.9q4.3.8 11.4 8.45 7.35 7.9 11.05 16.15-.35.3-1.05 1.35l-.9 1.45Q145.2 98 138.5 89.9q-6.5-7.85-10.35-8.85V78.9m-26.35-9q.2.25.05 1.55-.15 1.25-.35 1-4.95-6.9-11.75-9.85Q84.2 60.15 79.5 61q-4.45.85-5.9-.3l1.9-1.3 1.5.15 2.2-.35q5.5-1 9.5.2 6.75 2.1 13.1 10.5"/><path fill="#0d131a" d="M42.05 3.1q6.35-.05 18.55 1.95l-3.3 1.1Q38.7 3.5 32.2 8.3q-3.75 2.75-5.1 9.85l-2.5 1.3q1.55-10.1 6.3-13.6 3.7-2.7 11.15-2.75"/><path fill="#0d131a" d="M25.7 18.5q3-1.35 5.25-3.2 2.15-1.7 2.25-.65.1 1.05-2 2.8-2.45 2-5.05 3.2-1.55.7-5.6 2.05l-6.35 2q-4.1 1.4-7.25 3.3-2.5 1.5-3.5 4-1 2.4-.25 4.75.9 2.7 3.8 4 2.95 1.3 7.45.95 9.05-.8 13.95.35 7.05 1.55 11.05 7.4.2 2-.1 2.9-3.55-6.6-10.75-8.1-4.25-.85-14.35 0-5.05.45-8.95-1.4Q1.4 41 .35 37.7q-.95-2.85.55-6.3 1.45-3.45 4.45-5.25 3.25-1.95 7.7-3.4l6.75-2.1 5.9-2.15"/><path fill="#0d131a" d="M90.5 54.65q2.15.25 2.55.95.4.75-1.75.5-5.7-.55-13.7 3.9-4.6 2.6-12.5 8.65-5.05 3.85-11.35 4.9-5.45.9-9.7-.5Q41.2 72.1 39.1 70q-1.95-1.95-2.6-4.3-.75-2.5-.1-5.45l1.55-4.7 1.15-3.1q.55-1.75.4-3.25-.35-3.4.55-3.5.9-.1 1.25 3.35.2 1.7-.4 3.7l-1.2 3.35q-.95 2.75-1.2 4.05-.35 2.3.3 4.55.55 1.9 2.25 3.4t4.25 2.3q3.95 1.35 8.6.6 5.5-.85 10.2-4.45Q72.05 60.5 76.85 58q7.55-3.95 13.65-3.35m21.2 27.8q-1.5-3.05-3.65-2.25-3.45 1.2-5.3-1.35-1.55-2.2-2.9-9.05-.05-.3.9-1.05.95-.8 1-.5 1.35 7.05 2.65 8.6 1 1.15 4 .6 5.95-1.1 10.7 21.2.55 2.65 2.3 3.85 1.5 1.05 3.3.7 2-.35 3.15-2.15 1.25-2 .7-5-3.2-17.9 1.9-23.5 2.25-2.55 6-2.25 2.25.15 3.15-1.25 1.5-2.35-.2-8.3-1.5-5.25-4.75-10.95-1.15-2.05-.05-1.75 1.15.25 2.25 2.25 3.45 6.15 4.9 11.25 1.75 6.25-.1 9.15-1.45 2.15-4.6 1.9l-3-.05q-1.65.15-2.4 1.05-2.15 2.35-2.25 8.2-.1 5.2 1.5 13.95.7 3.6-1.25 6.9-1.85 3.1-4.4 3.6-3.1.6-5.55-1.3-2.65-1.95-3.5-5.95-2.7-12.75-4.5-16.55m269.2 37.25q5.1-7.2 11.9-9.7 6.5-2.4 12.65.15 6.65 2.75 9.5 9.05 2.65 5.95.9 12.1-5.4 18.7-5.4 23.15-.05 6.55 7 13.85 5.25 5.4 7.65 10.45 2.7 5.7 1.5 10.3-1.1 4.15-5.55 7.45-4.05 3.05-9.9 4.7-7.65 2.2-10.5 6.9-1.25 2.05-4.4 12.6l-1.55 3.8q-1.1 1.85-3.9 3.35-2.2 1.15-4.75 1.4t-4.9-.5q-2.45-.75-5.3-4.4l-4.8-7-.9-1.3q-1.75-2.6-3.85-4-2.05-1.35-4.1-1.25-2.85.15-5.2 4.5-1.55 2.85-4.25 3-1.65.05-3.1-.6-1.55-.7-2.35-2-1.1-1.7-3.1-1.65-2.25.05-4.75 1.45t-3.55 3.25q-1 1.85-1.5.95-.45-.85.55-2.7 1.3-2.3 3.85-3.95 2.7-1.85 5.35-1.9 2.95-.05 4.45 2.4.65 1 1.7 1.55 1.1.55 2.25.5 2.05 0 3.05-1.85 3-5.4 6.5-5.6 2.5-.1 4.9 1.45 2.45 1.55 4.45 4.5 6.15 10.15 9.4 11.15 4.35 1.4 8.45-.8 2.6-1.35 3.55-3l1.15-3.15q2.75-9.2 4.1-11.3 3.45-5.2 12.6-7.8 10.15-3 12.2-10.65 1.15-4.35-.85-9.4-1.95-5-6.55-9.75-7.7-7.95-7.85-14.9-.15-5.05 5.05-23.2 1.55-5.25-.75-10.45-2.25-5.25-7.1-7.6-5.35-2.6-11.05-.2-5.8 2.4-10.65 9.2-16 22.25-23.95 29.7-14.3 13.35-29.95 12.8-3.35-.1-3.5-1.15-.15-1.05 3.2-1.3 16.1-.95 28.55-12.75 7.05-6.65 23.4-29.85"/><path fill="#0d131a" d="M370.5 213.95q.4-.05.95 1.5.6 1.55.3 1.6-8.3 1.1-12.7 5.3-2.8 2.65-5.45 8.7-2.05 4.6-3.2 6.35-2.2 3.3-5.2 4.2l-9.35.3q-2.65-.65-8.3-3.2-7-3.25-10.3-4.25-6.9-2.05-14.8-1.65-2.3.1-1.75-.8.6-.95 2.9-1.05 8.25-.45 14.75 1.35 3.45.95 9.85 3.9 4.75 2.2 7.8 2.7 4.05.7 8.5-.6 2.6-.8 4.35-3.1 1.2-1.6 2.8-5.3 2.9-6.65 5.6-9.55 4.8-5.1 13.25-6.4m-167.2-102.1q-2 3-2.5 4.15-1.2 2.8-1.6 2.4-.4-.35.4-3.5 1.7-6.4 3.7-5.1.95.65 0 2.05m4.05 9.15q-.3-1.2.1-1.75.35-.5.85.55 1.15 2.7 6.8 2.75l14.8-1.3 18.75-1.95q12.45-.9 24.45.45 4.55.55 4.85 1.45.3.85-2.85.65-12.35-.8-25.4-.15l-19.65 1.65-15.7 1.55q-6.05-.05-7-3.9"/><path fill="#0d131a" d="M216.55 124.15q-.35-.1 1.4-.5l2.2-.2q8.3 2.8 27.75 5.9 19.05 3.05 21.2 2.1 1.8-4 2.15-6.4.55-2 1.1-1.85.5.1.3 2.2l-.7 4.3-1.2 4.25q-.25.65-3.6.35l-20.55-3q-8.6-1.45-17.45-3.5-9.25-2.2-12.6-3.65"/><path fill="#0d131a" d="M240 124.45q.15-1.05.55-1.75t.8-.65q.4.1.6.85v1.85l-.55 1.75q-.4.7-.8.6-.4-.05-.6-.8-.15-.8 0-1.85"/></svg>