<svg xmlns="http://www.w3.org/2000/svg" width="326" height="413" viewBox="5.75 -2.15 326.35 413.25"><path fill="#6f4e25" d="M233.05 83.05q25.45 15.7 42.3 38.9 18.4 25.35 22.8 55.1-70.45 2.1-139.7-1.05Q20 169.65 26.2 143.4q7.25-30.55 59.5-56.75 26.1-13.1 50.75-20.1 20.2-7.65 46.45-3.05 25.85 4.5 50.15 19.55"/><path fill="#4a311c" d="M172.55 61.95l12.6 1.35q-15.9 5.7-29.95 16.9-10.55 8.45-21.85 21.7-5.05-5.75-12.4-12.85l-13.15-12.4q30.7-12.6 49.95-14.55 7.3-.7 14.8-.15M279.1 127.4q15.1 23.2 19.05 49.65-16.35.5-41.05.65 13.85-21.25 22-50.3"/><path fill="#6f4e25" d="M134.95 60.3q4.25 12.2 4.75 17.25l-20.85 56.8-65.4-6.7q-2.2-2.05-11.35-17.4-9.65-16.2-10.35-20.35-1.4-7.75 44.4-30.4 15.35-7.6 31.5-11.55 11.1-2.7 17.55-2.85 4.4-.1 9.75 15.2"/><path fill="#4a311c" d="M134.95 60.3q4.25 12.2 4.75 17.25L125.2 117q-8.45-12-30.3-36.3-18.95-21.1-18.75-21.2 15.35-7.6 31.5-11.55 11.1-2.7 17.55-2.85 4.4-.1 9.75 15.2"/><path fill="#6f4e25" d="M277.05 95.35q15.05 12.3 24.55 23.25 10.1 11.6 8.45 15.5-1.5 3.55-15.6 16.2-12.95 11.65-15.85 13.3l-70.35-43.25L221.8 86.9q1.25-3.65 5.1-9.55 5-7.7 7.95-6.95 5.1 1.3 15.65 7 13.95 7.6 26.55 17.95"/><path fill="#4a311c" d="M302.35 119.5q9.3 10.9 7.7 14.6-.75 1.75-6.8 7.9l-11.05 10.7-11.35-2.45q-7.95-1.55-15.3-1.55 5.55-8.65 10.25-29.3 3.85-17.1 3.65-22.05 14.2 11.95 22.9 22.15"/><path fill="#0d131a" d="M122.7 63q3 5.4 4.65 11.15l1.55 4.4q1.75 5.4 2.55 10.5 2.45 16.35-5.55 23.65-8.05 7.3-34.5 10.6-13.25 1.7-24.9 1.9-4.75-5.25-12.6-17.7-8.6-13.6-8.15-16.65.45-3.4 31.6-18.2 31.2-14.8 39.7-15.6 2.25-.25 5.65 5.95m115.35 21q4.65 1.7 31.3 23.2 27.25 21.95 27 24.9-.25 2.9-11.45 14-10.35 10.25-15.8 14l-47.95-46.45q3.7-10.45 7.3-17.95 6.15-12.9 9.6-11.7"/><path fill="#dcdbd6" d="M240.6 104.55q13.35-.75 25.45 10.95 4.65 4.5 7.8 9.75 2.9 4.85 3.2 8.05.7 7.25-2.65 12.6-4.15 6.7-13.85 8.5l-30.75-15.1-5.7-19.8q1.05-5.1 3.8-8.65 4.5-5.8 12.7-6.3"/><path fill="#b4b4b0" d="M277.05 133.3q.7 7.25-2.65 12.6-4.15 6.7-13.85 8.5l-10.4-5.1 9.1-39 8.7 9.3q8.75 10 9.1 13.7"/><path fill="#dcdbd6" d="M240.55 140.95q-8.2-6-9.55-14.15-1.2-7.7 4.45-12.55 3.95-3.4 8.2-3.95l25.7 22.65q1.1 6.5-4 10.65-4.7 3.75-10.95 3.15-6.85-.65-13.85-5.8"/><path fill="#b4b4b0" d="M269.35 132.95q1.1 6.5-4 10.65-4.7 3.75-10.95 3.15l-3.8-.8 1.75-16.4 1-9.8 16 13.2"/><path fill="#dcdbd6" d="M329.7 81.45q-.85 6.9-4.3 13.1-3.2 5.8-7.7 9.25-7.65 5.85-23 15.9-14.15 9.25-19.95 12.45-5.15 2.9-11.8 2.35-6.6-.5-13.5-4.25-6.45-3.5-8.95-11.2-2.2-6.85-.3-12.6 1.9-5.75 10.5-24.9 8.9-19.95 11.4-23.4 3.9-5.5 10.65-9.5 6.85-4 14.7-5.4Q305.8 40 318.1 51.6q13.65 12.85 11.6 29.85"/><path fill="#b4b4b0" d="M285.75 110.95q13.4 3.3 25.75-2.65-8.8 6.25-20.8 14l-15.95 9.85q-5.15 2.9-11.8 2.35-6.6-.5-13.5-4.25-.3-.15 9.85-11.95l10.85-12.6 1.2-1.2q.75-.25 2.15 1 3.65 3.3 12.25 5.45"/><path fill="#dcdbd6" d="M87.25 78.5q15.15-6.65 31.15-.8l5.95 28.1L80.1 127q-9.4-4.2-11.95-12.15-1.8-5.75 0-13.75 3.5-15.7 19.1-22.6"/><path fill="#b4b4b0" d="M92.75 76.55q12.95-3.5 25.65 1.15l5.95 28.1q-10.65-1.65-22.4-4.45-23.5-5.55-29.15-11.1 6.95-10.15 19.95-13.7"/><path fill="#dcdbd6" d="M113.2 88.75q3.45 6.2.3 13.95-3.35 8.15-11.4 11.85-6.75 3.05-13.85 2.1-6.6-.85-11.55-7.2-5.3-6.8-2.6-13.3l32.9-13.3q3.7 1.4 6.2 5.9"/><path fill="#b4b4b0" d="M107 82.85q3.7 1.4 6.2 5.9 3.45 6.2.3 13.95-3.35 8.2-11.4 11.8l-7.3-9.6-3.45-4.25L107 82.85"/><path fill="#dcdbd6" d="M107.1 95.25q-4.15 6.75-11.55 8.8-8.2 2.25-15 1.4-7.05-.95-11.6-5.1-6.1-5.55-15.85-15.5-12-12.2-18.25-19.8-3.85-4.7-6-12-2.3-7.85-1.75-15.9Q28.45 17.2 45.6 7.2q15.95-9.35 32.85-3.15 16.1 5.9 24.05 22.15 2.15 4.4 5.35 26 3.25 21.8 2.95 30.65-.25 6.8-3.7 12.4"/><path fill="#b4b4b0" d="M109.15 61.5q1.85 15 1.65 21.35-.25 6.8-3.7 12.4-4.15 6.75-11.55 8.8l-2.05.9q-.75.3-1.1-.3-11.75-21-13.65-25.2-1.35-2.95-1.35-3.4-.05-.9 1.75-1.4 12.45-3.8 19.8-14 7.75-10.85 6.2-24.35 2.2 11.1 4 25.2"/><path fill="#dbdcdc" d="M186.55 350.5q3.45-.65 7.6 5.15 4.15 5.65 4.6 11.35-2.25 2.85-15.35.9-12.55-1.95-14.3-4.1-1.4-1.8 5.65-7.1 6.95-5.3 11.8-6.2"/><path fill="#eeeeef" d="M201.6 93.95q8.75 6.2 20.75 20.25 10.5 12.25 17.85 19.25 11.35 10.85 21.55 15.95 27.5 13.75 38.15 26.55 13.35 16.1 4.5 34.5l-277-4.3q-3.05-1.5-6.9-6.5-4.05-5.3-7-12Q6.05 170.5 11 157.5q4.25-11.15 17.05-20.35 14.35-10.25 32.05-12l11.1-.9q6.05-.55 10.25-1.7 11.1-3.05 22.2-13.9 15.2-14.9 30.55-21.4 15.6-6.65 33.15-5.45 19.1 1.35 34.25 12.15"/><path fill="#c8c9ca" d="M11 157.5l.8-1.85q2 26.35 21.95 37.8 8.7 5 22.4 8.4 10.3 2.55 28.55 5.2l-57.3-.9q-3.05-1.5-6.9-6.5-4.05-5.3-7-12Q6.05 170.5 11 157.5m156.35-75.7q19.1 1.35 34.25 12.15 8.75 6.2 20.75 20.25 5.9 6.9 12.15 13.45 8.95 9.45 14.85 14.15-17 4.9-32.35 25.8-12.45 16.9-21.8 41.15l-25.2-.4q-1.2-34.9-23.85-63.85-10.1-12.9-22.3-21.15-12.25-8.35-24.1-10.3 13.05-13.85 32.6-23 19.9-9.3 35-8.25m113 77.95q17.7 11.2 23.95 22.6 7.25 13.2.1 28.1l-27.1-9.9q5.3-4.35 8.35-11.6 6.05-14.55-5.3-29.2"/><path fill="#0d131a" d="M208.55 182.45q-19.7 10.1-46.2 7.95-26.5-2.1-44.3-15.2-17.8-13.1-16.5-29.55 1.3-16.4 21-26.55 19.65-10.1 46.15-8 26.5 2.15 44.3 15.25 17.8 13.1 16.5 29.55-1.3 16.45-20.95 26.55"/><path fill="#3396cd" d="M182.6 344.35q4.75-5.15 14.6-6.65 9.85-1.55 39.8 6.1 14.95 3.85 27.95 7.95 1.8 5.7-4.1 13.05-5.55 6.95-14.55 11.4-12.85 6.35-28.55 5.65-16.35-.7-29.1-8.9-6.65-4.3-8.9-13.15-1.85-7.45.1-10.6.4-2.25 2.75-4.85"/><path fill="#2880ae" d="M182.6 344.35q4.75-5.15 14.6-6.65 2.45-.4 7-.15 7.05 5.55 11.8 14.25-13.9-3.2-22.8.35-7.6 3.1-12.15 11.55-1.8-4.25-2.05-8.8-.2-4.05.85-5.7.4-2.25 2.75-4.85m48.7 36.35q-10.6 1.85-19.3.55 14.5-9.85 4.4-28.65l23.85-1.05q13.7-.45 23.85-.05l.85.25q1.8 5.7-4.1 13.05-5.55 6.95-14.55 11.4-5.95 2.9-15 4.5"/><path fill="#c8c9ca" d="M30.1 290.15q-9.8-15.1-11.2-39.7-.9-14.9.95-25.6l22.1 5.05 7.55 62.9-19.4-2.65"/><path fill="#3396cd" d="M278.45 292.15q6 13.9 3.6 30.25-2.45 16.5-9 24.25-3.45 4.1-10.55 7.15-11.55 5-24.55 5-23.55.05-42.05-17.25 6.85-13.15 15.85-27.85 18-29.4 28.85-37.2 10.9-7.8 20.35-4.65 4.75 1.55 7.3 4.65 6.85 7.95 10.2 15.65"/><path fill="#2880ae" d="M268.25 276.5q6.85 7.95 10.2 15.65 6 13.9 3.6 30.25-2.5 16.9-7.75 23.5-2.15 2.7-5.45 4.65l-6.35 3.25q-7.25 3.55-14.15 4.85l-16.6.55q6.45-4.1 5.9-9.85-.5-5.25-6.35-9.5-5.95-4.3-13.95-4.95-8.95-.7-16.9 3.75 12.15-21.85 19.65-34.35 13.8-22.95 20.5-27.8 10.9-7.8 20.35-4.65 4.75 1.55 7.3 4.65"/><path fill="#fff" d="M191.1 372.45q5.3-4.05 12.75-3.45 9.1.7 16.95 8.55 3 3-5.55 9.5-7.9 6-11.3 6.2-2.4.15-7.9-8.35-5.6-8.65-4.95-12.45"/><path fill="#dbdcdc" d="M220.8 377.55q2.45 2.45-4.8 8.7-6 5.2-12.15 8.25 3.55-4.55 5.8-11.35 2.15-6.75 1.9-12.15 4.85 2.15 9.25 6.55"/><path fill="#fff" d="M236 371.55q11.3-4.15 20-.9 4.9 1.85 9.15 13.95 1.75 5.05 2 8.6.25 3.9-1.55 4.25-6.65 1.35-22.5-6.05-16.35-7.55-16.95-13.45-.1-.95 2.7-2.85 3-2.05 7.15-3.55"/><path fill="#dbdcdc" d="M256 370.65q4.2 1.6 8.3 11.65 3.95 9.85 2.55 13.85-2.95-7.85-8.2-15.45-5.75-8.25-11.15-11.4 4.75-.1 8.5 1.35"/><path fill="#f0e9a5" d="M201.45 169.9q13.85-5.45 20.65-13.75 3.7-4.5 10.35-2.4 6.1 1.95 8.95 7 2.3 4.15 2.8 13.35.35 7.2-.4 13.65-.4 3.3 3.3 49.4 2.9 46.75-1.4 56.2-6.2 13.55-17.6 26.55-11.85 13.5-22.6 18.6-17.8 8.4-35.6 11.75-28.4 5.35-54-2.55-15.1-3.55-31.65-13.5-33.1-19.9-40.5-51.7-7.35-31.8 15.3-83.45Q70.4 173.2 83.2 153.7q.4-3 5.6-8.7 5.75-6.35 9.6-5.8 3.55.45 10.05 6.85l12.1 12.35q6.4 6.05 19.5 11.3 15.85 6.35 30.5 6.1 16.5-.25 30.9-5.9"/><path fill="#c9c48b" d="M89.45 144.25q1.85-.8 3.7-.95l5.1.4q-4.65 4.2-6.95 9.1-2 4.4-2.6 10.45-3.25-5.3-5.2-10.65.65-1.55 2.25-3.85 1.7-2.4 3.7-4.5M68.8 280.2q-11.35-1.35-25.3 1-1.85-8.7-1.4-19.05 6.2 2.7 12.9 3.2 6.6.5 13.05-1.25.1 8.05.75 16.1m122.85-101.25q-.15-1.25-2.25-2.8-1.6-1.15-3.35-1.9 11.85-2.25 21.5-7.1 9.45-4.8 14.55-11 3.7-4.5 10.35-2.4 6.1 1.95 8.95 7 2.3 4.15 2.8 13.35.35 7.2-.4 13.65-.4 3.3 3.3 49.4 2.9 46.75-1.4 56.2-6.2 13.55-17.6 26.55-11.85 13.5-22.6 18.6-18.95 8.95-36.6 12.5-29.35 5.8-53-3.3-7.15-1.7-17-6 7.75-1.9 13.45-9.05 2.25-2.85 6.05-10.15 25.6-6.55 44.2-30.75.45-.55.75-2.3l.2-1.6q1.9.05 2.25-.5 15.5-22.3 22.35-52.8.2-.8-.25-2.45l-.45-1.55q1.7-.75 1.8-1.25 5-25.8 2.4-50.35"/><path fill="#3396cd" d="M48.4 395.4q-19.85.35-29.2-15.4-11-18.55-3.65-55.45L115.9 313.8q4.8 14.55.35 39.55-4.4 24.6-12.6 32-7.65 6.95-26.1 9L48.4 395.4"/><path fill="#2880ae" d="M77.55 394.35L48.4 395.4q19.6-17.2.35-38.5l67.15-43.1q4.8 14.55.35 39.55-4.4 24.6-12.6 32-7.65 6.95-26.1 9"/><path fill="#fff" d="M113.9 386.55q1 11.05-2.15 13.05-3.25 2.1-12.2.05-9.15-2.1-14.25-6.35-1.45-1.2-.6-4.85.9-3.9 3.75-7.4 7.8-9.5 21.35-6.25 3.1.75 4.1 11.75m-92.4-2.5q1-5.5 8.8-6.65 5.3-.85 18.95.2 11.8.9 21.4 5.2 10.1 4.55 9.8 9.55-.3 5.25-19.2 11.25-19.05 6.1-33.15 5.25-5.05-.3-6.75-8.85-1.45-7.4.15-15.95"/><path fill="#dbdcdc" d="M113.9 386.55q1 11.05-2.15 13.05-3.25 2.1-12.2.05-9.15-2.1-14.25-6.35-1.45-1.2-.6-4.85.9-3.9 3.75-7.4 7.8-9.5 21.35-6.25 3.1.75 4.1 11.75m-51.6-6.7q8.05 2.2 13 5.45 5.35 3.5 5.15 7.05-.25 5.05-18.1 10.95-17.85 5.9-32.25 5.65 13.1-3.7 22.95-11.4 11.6-9.1 9.25-17.7"/><path fill="#3396cd" d="M60.35 273.45l11.75-1q21 .7 33.25 14.45 10.6 11.95 11.35 28.85.6 12.55-9.5 25.95-10.4 13.85-25.05 18.55-5.8 1.85-18.9.9-10.4-.8-20.95-2.9-17.85-3.55-24.05-20.45-3.8-10.45-2.9-25.65Q16.2 298.9 25.4 288q12.5-14.9 34.95-14.55"/><path fill="#2880ae" d="M63.25 361.15q-10.4-.8-20.95-2.9-12.75-2.5-19.65-12.05 8.7 5.05 18.85 4.7 12.1-.45 22.55-8.9Q79 329.95 84.7 312.75q7.4-22.35-8.4-40 19 2 30.05 15.35 9.65 11.7 10.35 27.65.6 12.55-9.5 25.95-10.4 13.85-25.05 18.55-5.8 1.85-18.9.9"/><path fill="#3396cd" d="M17.25 182.4q1.25-9.7 7.3-18.05 6.25-8.6 16.1-13.6 10.55-5.4 23.3-5.5 18.85-.2 23.35 16.1 1.65 5.9 1 12.85-.55 5.85-2.25 9.25-13.6 10.5-28.6 18-30.05 14.95-37.25-.15-4.2-8.9-2.95-18.9"/><path fill="#2880ae" d="M56.35 145.85l7.6-.6q18.85-.2 23.35 16.1 1.65 5.9 1 12.85-.55 5.85-2.25 9.25-6 4.35-14.3 8-16.7 7.25-28.45 3.65 13.8-13.7 18.35-27.95 4.95-15.55-5.3-21.3"/><path fill="#3396cd" d="M40.5 179.5q15.9-8 28.15-5.5 14.4 2.95 19.55 14.85 2.15 4.95 1.95 10.2-.2 5.1-2.55 8.9L30 233.6q-11.95-5-13.55-17.05-1.35-9.9 4.15-20.25 5-9.3 19.9-16.8"/><path fill="#2880ae" d="M62.25 173.5l6.4.5q14.4 2.95 19.55 14.85 2.15 4.95 1.95 10.2-.2 5.1-2.55 8.9l-26.9 9.6q1.1-.95 3.4-4.9 3.1-5.3 4.7-10.85 4.8-16.9-6.55-28.3"/><path fill="#fff" d="M36.4 268.35l-6-14.1 21.95 7.65-2.2 7.1q-2.85 7.3-6 8.25-3.15.95-7.75-8.9"/><path fill="#dbdcdc" d="M45.05 259.35l7.3 2.55-2.2 7.1q-2.85 7.3-6 8.25-.1.05.75-5.9 1-7.3.15-12"/><path fill="#fff" d="M99.9 254.4q-.05 4.8-.85 8.6-.75 3.7-1.65 4-1.55.5-9.45-4.6-7.45-4.8-8.25-6l14.85-20.35q5.35 5.6 5.35 18.35"/><path fill="#dbdcdc" d="M86.75 246.75l7.8-10.7q4.6 4.85 5.7 13.75 1.1 9.35-2.4 17.9-.6-5.55-4-11.7-3.1-5.65-7.1-9.25"/><path fill="#fff" d="M78.2 256.55q.7 3.7-1.9 14-2.85 11-5.7 10.5-3.6-.65-8.6-6.1-5.7-6.15-8.95-14.25l25.15-4.15"/><path fill="#dbdcdc" d="M78.2 256.55q.7 3.7-1.9 14-2.85 11-5.7 10.5l-.6-5.85q-.75-7.95-3.9-16.65l12.1-2"/><path fill="#3396cd" d="M89.85 211.3q5.25 4.4 6.7 9.4 3.1 10.5-4.75 24-8.35 14.35-21.85 17.65-15.15 3.7-29.15-1.2-15-5.3-16.65-17.15-1.7-12.05 3.35-21.5 4.7-8.8 14.65-14.35Q59 198.75 77 204.4q7.5 2.4 12.85 6.9"/><path fill="#2880ae" d="M96.55 220.7q3.1 10.5-4.75 24-8.35 14.35-21.85 17.65l-2.25.5q11.7-11.2 13.1-29 1.45-18.25-9.2-30.75 9.35 1.65 16.4 6.75 6.8 4.95 8.55 10.85"/><path fill="#3396cd" d="M286.6 184.45q12.95 7 17.4 23.6 3.75 14-.15 23.4-3.15 7.7-12.6 14.4-7.05 5-30.65-16.9-7.4-6.85-15.5-15.55l-6.7-7.35q-1.25-7.45 4.45-15.05 6.1-8.2 16-10 15.95-2.9 27.75 3.45"/><path fill="#2880ae" d="M284.65 184.2q6.65 4.1 11.6 9.75 5.8 6.7 7.75 14.1 3.75 14-.15 23.4-3.15 7.7-12.6 14.4-3.45 2.45-12.1-12.5l-7.95-15.4 3.5-1.25q4.1-1.8 7-4.85 9.25-9.7 2.95-27.65"/><path fill="#3396cd" d="M274.25 209.7q10.45 9.35 14.35 22.65 3.75 12.65.15 20.9-4.15 9.6-17.8 12.5-12.1 2.65-28.15-16.6-5-6-9.8-13.5l-3.8-6.25q-2.1-6.85 1.7-15.35 4.9-10.95 17.55-12.95 13.75-2.2 25.8 8.6"/><path fill="#2880ae" d="M260.7 244.65q6.3-1.95 11.15-7.3 9.7-10.7 2.45-27.65 5.05 4.55 8.9 10.75 3.6 5.85 5.4 11.9 3.75 12.65.15 20.9-4.15 9.6-17.8 12.5-3.75.8-7.35-10.05l-2.9-11.05"/><path fill="#fff" d="M221.5 264.35l-4.6 1.2q-5.05 1.1-7.2.6-2.4-.5 2.2-10.3 4.45-9.45 7.45-12.1l2.15 20.6"/><path fill="#dbdcdc" d="M209.7 266.15l4-2.9q4.9-3.6 6.95-7l.85 8.1-4.6 1.2q-5.05 1.1-7.2.6m31.6 23.2l-10.6 1.3q-1.85 0-.1-5.3 1.6-5.05 3.3-6.8l23.45 6.05q-6.45 3-16.05 4.75"/><path fill="#fff" d="M221.8 263.9l13.6 16.1q-6.1 2.05-12.8 2.7-6.7.65-7.6-.75-1.95-2.85 2.2-10.75l4.6-7.3"/><path fill="#dbdcdc" d="M215.15 282.1q7.95-3.2 14.5-8.9l5.75 6.8q-5.9 1.95-12.45 2.65-6.5.65-7.8-.55"/><path fill="#3396cd" d="M269.3 248.55q5.15 11.05 4.05 20.15-1.2 9.7-9.3 13.9-9.45 4.9-16.05 4.2-8.5-.9-19.2-10.6-11.4-10.3-10.9-25.8.2-6.05 2.2-11.25 1.9-4.8 4.45-6.8 10.75-8.45 24.2-3.65 13.55 4.8 20.55 19.85"/><path fill="#2880ae" d="M269.3 248.55q5.15 11.05 4.05 20.15-1.2 9.7-9.3 13.9-9.45 4.9-16.05 4.2-8.5-.9-19.2-10.6l-1.65-1.6q7.3 4.1 14.9 3.6 7.15-.5 13.2-4.9 5.95-4.3 9.4-11.25 3.6-7.2 3.6-15.55l1.05 2.05"/><path fill="#f0e9a5" d="M200.9 166.4q-16.35 6.7-38.1 4.55-12.45-1.25-23.9-6.35-13.95-6.2-21.6-16.3-5.4-7.05-3.5-16.45 1.9-9.75 10.1-11.9 7.05-1.85 51.1 2l42.7 4.2q9.15 29.7-16.8 40.25"/><path fill="#c9c48b" d="M208 127.9q5.55-1.6 9.7-1.75 9.15 29.7-16.8 40.25-16.35 6.7-38.1 4.55-10.85-1.15-20.75-5.05l11.75 1.75q6.8.55 13.3-.9 14.65-3.25 21.75-10.75 7.95-8.4 1.15-17.55 6.95-7.35 18-10.55"/><path fill="#3396cd" d="M174.7 77.1q3.8-4.55 16.15-.5 9.9 3.25 14.15 6.75 7.25-.75 13.4.3 5.4.9 7.2 2.65 1.6 1.55-.6 9.25-2.15 7.5-5.75 13.65 2.6 6.4 2.8 14.7.2 8.7-2.6 11.6l-5.05-3.45q-3.5-1.8-7.25-1.55 2.2 6.1-1.15 8.5-2.3 1.65-7.9 1.65-2.95 0-13.05-3.45-11.2-3.85-15.95-4.55l-16.3-.75-16.7.4q-14 .05-7.45-11.45-7.15-.7-11 3.1-2.35 2.3-2.7 4.75-1.8-6.3-.55-14.55 1.3-8.85 5.4-13.4-1.9-5.35-2.9-11.45-1.95-12.25 2.5-16.15 1.4-1.25 7.9-.05 6.8 1.3 12.1 4.1 8.75-4.25 20.8-4.55 12.45-.25 14.5 4.45"/><path fill="#2880ae" d="M120.6 86.45q-2.2-12.4-1.2-13.3 1.4-1.25 7.9-.05 6.8 1.3 12.1 4.1 1.45-.7 8.2-2.35-12.75 5.7-22.9 21-1.95 2.9-4.1-9.4m44.2-13.5q5.1-.1 7.1.8 1.7.8 2.8 3.35 3.8-4.55 16.15-.5 9.9 3.25 14.15 6.75 7.25-.75 13.4.3 5.4.9 7.2 2.65 1.6 1.55-.6 9.25-2.15 7.5-5.75 13.65 2.6 6.4 2.8 14.7.2 8.7-2.6 11.6l-5.05-3.45q-3.5-1.8-7.25-1.55 2.2 6.1-1.15 8.5-2.3 1.65-7.9 1.65-2.9 0-12.3-3.5-10.35-3.85-15.15-4.6 1.05-3.65.55-7.1l-.75-2.75 1.45-.15 2.35.35q2.7 1.4 4.55-4.2 1.8-5.45.05-7.35-2.1-2.3-7.25-3.4-6.3-1.35-11.2 1.3-2.55 1.4-2.7.6-.1-.55 1.3-3 4.3-7.45 4.55-9.75 2.9 2.15 7.15 2.7 4.9.65 7.95-1.65-.75 4.15.3 4.5.8.3 3.7-1.85 9.55-6.95 15.5-7.9 3.4-.55 1.3-4.05-2-3.35-6.95-6.3-5.45-3.3-10.2-3.3-5.75 0-8.5 5.05-.35-4.15-2.2-6.8-2.2-3.05-6.8-4.55"/><path fill="#fff" d="M134.4 98.1q1.35-2.2 2.65-3.55 5.45 2.05 11.85 7.3l5.3 4.85-1.3 1.8-10.8-1.2q-8.85-.85-10.85-.15.4-4.55 3.15-9.05m74.4 14.35l-13.15.15-10.75.4-.65-1.65-.35-.6 6.25-4.9q7.35-5.05 13.1-5.75l2.35 3.85q2.45 4.65 3.2 8.5"/><path fill="#0d131a" d="M279.9 58.75q8.15-5.85 18.25-4.45 10.15 1.45 16.4 9.2 6.25 7.75 4.95 17.35-1.3 9.6-9.4 15.4-8.15 5.85-18.3 4.45-10.1-1.4-16.35-9.15-6.25-7.8-4.95-17.4 1.3-9.6 9.4-15.4M86.55 23.8q7 8 6 18.25-.95 10.3-9.25 16.85-8.35 6.6-19.2 5.6t-17.85-9q-7-8-6.05-18.3.95-10.3 9.3-16.85 8.35-6.55 19.2-5.55t17.85 9m66.2 81.8q-.65 1.6-2.1 2.8l-4.7-.95-4.7-.65q-.9-1.7-.9-3.65 0-1.25.8-2.9.7-1.45 1.65-2.45 2.2.45 5.15 3.15l4.8 4.65m47.4 2.65q0 2.6-1.9 4.6l-9.9-.1q-1.2-.9-1.55-1.9-.35-.85-.35-2.6l3.8-2.6q4.2-2.5 6.55-3.1 1.55.9 2.45 2.35.9 1.55.9 3.35M43.3 113.4l1.5 1.9q-5.25 5.9-9.9 12.1-5.2 6.95-6.15 9.7l-1.7-.6q1.2-3.6 6-10.65 5.35-7.9 10.25-12.45m184.25-35.8q-1.55 1.45-2 2.1-22.85-12.5-46.15-15.65-23.1-3.15-42.65 3.35l.15-2.05q20.05-7.7 44.6-4.15 23.45 3.45 46.05 16.4m65.95 73.6q2.9 7.7 5.75 23.35l-3.05-3.25q-1.7-8.75-5.1-17.95l2.4-2.15"/><path fill="#0d131a" d="M43.3 74.85l1.65 2.85Q32 86.15 32.65 89.75q.7 4 10.05 19.75 8.9 14.95 11.05 16.95l-2.75.35q-2.35-2.2-11.25-16.75-9.5-15.55-10.25-19.8-.9-5.25 13.8-15.4m64-25.9v-2.9q13.9-2.75 18.95-2.85 5.3-.1 10.35 16.95 2.55 8.55 4.05 17.3l-1.85.2q-.5-5.05-4.75-17.15-5.15-14.55-8.85-14.5-6.55.1-17.9 2.95"/><path fill="#0d131a" d="M44.95 90.6q.2-1.75 7.55-6.15l1.1 1.5q-6.35 3.75-6.85 4.95v.15q0 3.05 8 15.8 7.7 12.25 12.55 17.6l-1.35 1.25q-4.6-5-12.55-17.55-8.9-14.1-8.45-17.55m76.4-28.4q-2.7-4.5-4.1-4.35-2.55.2-8.85 2.35v-1.75q6.3-2.25 8.7-2.45 2.85-.3 6.55 6.4 2.75 5.05 4.5 10.65l-2.25-.95q-1.85-5.5-4.55-9.9M252.85 77l-.5 1.25-.8 1.1q-12.15-6.9-16.9-8.05-1.95-.45-5.8 4.85-3.05 4.25-5.35 9.05l-1.75-.5 5.1-10.35q3.9-6.65 6.9-5.9 1.95.5 7.25 2.8 5.65 2.55 11.85 5.75m48.3 38.75q5.7 6.7 8.6 11.65 3.3 5.7 2.3 8.1-1.3 3.05-12.3 12.4-6 5.1-17 13.75l-1.65-1.15q7.55-6.1 16.2-14.05 10.65-9.9 11.9-12.75.8-1.8-2.05-6.35-2.75-4.35-8.35-10.45l2.35-1.15"/><path fill="#0d131a" d="M297.15 131.1q-.25 2.7-8.45 11.25-6.8 7.1-14.45 13.65l-1.9-.8q6.9-5.75 14.5-13.6 8.15-8.5 8.45-10.65-.35-1.5-7.45-7.75l1.85-.9q7.6 6.95 7.45 8.8M247.45 89l-.55 1.8q-7.75-5.6-9.3-6.1l-1 .15q-3 1.45-7.9 11.55-3.65 7.55-6.8 16.5l-1.75-.6q2.95-8.25 6.1-15.1 5.65-12.15 9.55-14.05l2.45-.2q1.35.5 9.2 6.05m-23.3 27q1.65-4.75 4.95-7.8 4.5-4.15 11.4-4.55l-.9 1.95q-6.2.65-10 4.65-2.8 3-4.15 7.6l-1.3-1.85m53.8 17.25q.45 4.8-.95 9.15-2.25 7-8.9 10.45l-1.3-1.4q6.15-3 8.35-9.15 1.45-4.1 1-8.9l-.4-1.75 1.6-1q.5 1.4.6 2.6m-46.2-8.55l-1.8-2.05q-.9-4.75 2.75-8.4 3.05-3.05 7.15-3.75v2q-4.75 1.75-6.8 6.05-1.4 2.9-1.3 6.15m38.7 9.4q.4 6.45-2.8 9.75-1.5 1.65-4.3 2.6l-5.25 1.15-1.6-1.75q2.7-.1 5.2-1.2 2.55-1.05 4.25-2.85 2.9-3.2 2.65-7.4l1.85-.3"/><path fill="#0d131a" d="M329.45 65.6q2.65 6.95 2.35 13.4-.4 7.85-3.5 14.35-3.35 7.1-9.75 12.05-7.2 5.6-23.25 15.6l-20.1 12q-5.55 3.1-12.3 2.85-7.2-.25-14.05-4.2-6.45-3.75-9.1-12.15-2.35-7.55-.4-13.35 2.1-6.25 10.3-25.2 8.7-20.15 11.1-23.55 4.55-7.05 11.95-11.35 7.3-4.3 16.2-5.15 8-.8 16.5 2 8.35 2.75 13.95 7.95 6.85 6.3 10.1 14.75m-4.05 27.05q3.2-6.5 3.55-13.6.35-6.4-1.8-12.4-2.85-7.9-9.7-14.35-5.15-4.85-13.2-7.2-7.95-2.3-15.75-1.35-8.85 1.1-15.35 5.55-5.35 3.65-10.1 10.35-2.5 3.5-11.4 22.7-8.7 18.85-10.55 24.4-1.75 5.3.25 11.85 2.35 7.5 8.5 10.85 6.75 3.65 13.15 4.15 6.4.5 11.3-2.25 5.7-3.15 19.8-12.35 15.35-10.1 23.05-15.95 5.05-3.85 8.25-10.4"/><path fill="#0d131a" d="M279.8 59.7q-3.55 2.65-5.75 6.4-2.2 3.75-2.75 8-.6 4.25.5 8.45 1.15 4.15 3.8 7.7 2.95 3.85 7.1 6.25 4.2 2.45 9.15 3.1l9.6-.5q4.7-1.25 8.5-4.15 3.55-2.7 5.75-6.4 2.2-3.75 2.8-8 1.25-9.2-4.8-16.7-6-7.45-15.75-8.8-4.95-.65-9.6.55-4.7 1.15-8.55 4.1m-7.3 5.45q2.35-4 6.2-6.95 4.15-3.1 9.15-4.4 5.05-1.3 10.35-.6 10.5 1.45 17 9.55 6.5 8.1 5.1 18.05-.65 4.65-3 8.7-2.4 4-6.2 6.9-4.15 3.15-9.2 4.45-5.05 1.3-10.3.55-5.3-.7-9.8-3.3-4.5-2.6-7.65-6.75-2.9-3.85-4.1-8.35-1.25-4.5-.6-9.15t3.05-8.7M74.3 124.7q-9.4-5.65-9-15.9.1-3.2 1.2-6.55l1.1-2.95 1.45 2q-1.5 6.75-.5 11.6 1.45 6.9 8 11.15l-2.25.65m42.75-48.45v1.95q-3.4-1.05-6.25-1.55l-.1-1.9 6.35 1.5m-4.1 14.05q-.95-2.15-2.85-4.15l.35-2.15q2.8 2.35 4.2 5.55 1.7 3.95 1.1 8.5-2.1 2.45-3.05 2.7 1.75-7 .25-10.45M74.7 108.45q-1.15-2.05-1.85-4.55l1.05.15 1 .25q.35 1.1 1.15 2.6 2.05 3.45 5.45 5.95 3.45 2.45 6.85 2.9 3.1.4 6.25-.05l-2.3 1.75q-1.9 1.2-2.8 1.05-9.75-1.3-14.8-10.05"/><path fill="#0d131a" d="M94.25 11.85q7.5 7.3 10.1 14.8 1.9 5.65 4.75 26.5 2.9 21.5 2.6 29.75-.25 7.4-4 13.45-4.3 7-11.7 9.05-8.5 2.35-15.8 1.15-7.15-1.2-11.85-5.5-7.4-6.7-16.75-16-12.4-12.35-18.3-19.7-5.4-6.65-7.25-14.3-1.95-8.05-.15-18 1.35-7.5 5.1-13.95 5-8.6 13.5-13.6Q51.75 1.3 61.05.3q9.05-1 17.05 1.4 8.35 2.5 16.15 10.15m8.05 16.6q-2.55-8.1-10.35-15.05-7.35-6.6-15.9-9.2-7.6-2.3-15.25-1.3-7.65.95-14.75 5.1-8.15 4.75-12.75 12.25-3.5 5.7-4.7 12.55-1.65 9.15.7 18.45 2.1 8.15 6.25 13.2Q41.7 71.9 53.4 83.9 63.3 94 69.55 99.7q4.3 3.9 10.95 4.8 6.65.9 14.8-1.35 6.8-1.85 10.8-8.1 3.55-5.5 3.75-12.25l.05-1.3q0-9.95-2.6-27.75-2.5-17.45-5-25.3"/><path fill="#0d131a" d="M87.1 23q7.25 8.3 6.25 18.95-.45 5-2.8 9.4-2.35 4.4-6.3 7.65-4.2 3.5-9.45 5.15-5.25 1.6-10.9 1.05-11.2-1.05-18.45-9.3-7.25-8.3-6.3-18.95.5-5 2.85-9.4 2.3-4.4 6.25-7.7 4.25-3.5 9.5-5.1 5.3-1.55 10.9-1.05 11.2 1 18.45 9.3m4.4 18.8q.95-9.9-5.8-17.6-6.75-7.7-17.2-8.65-5.3-.5-10.2.95-4.9 1.5-8.85 4.8-3.65 3.05-5.85 7.1-2.15 4.05-2.6 8.7-.9 9.9 5.85 17.6 6.75 7.7 17.2 8.65 5.25.5 10.15-1t8.9-4.75q3.65-3.05 5.8-7.1 2.2-4.1 2.6-8.7m86.8 312.1l-.05 1.45q-6.15 4-8 6.9l-.4.95q.55.65 3.9 1.65 3.4 1 7.75 1.8l1.6 2.75q-14.75-2.35-16.15-4.15-.7-.8-.2-2.1.6-1.7 4.4-5.15 3.7-3.35 7.25-5.55l-.1 1.45M117.55 95.5l.95 2.4q-6.55 4.9-13.05 11.25-10.05 9.85-20.3 13.4-6.5 2.3-18.75 3.2l-6.2.5q-17.15 1.65-31.1 12.1-12.45 9.25-16.7 20.5-2.95 7.85-1.2 17.55 1.5 8.3 6.15 16.55.4 2.55 1.4 6.2-7-9.65-9.5-18.4-3.5-12.05.75-23.65 4.9-13.45 17.95-22.2 13.4-9 32.05-10.8l6.25-.5q11.85-.9 17.6-2.95 9.35-3.3 19.05-12.75 7.3-7.15 14.65-12.4m122.4 39.25q-7.55-7.15-18.45-19.85l-.65-.8-1.1-4.55 3.4 3.95q10.75 12.55 18.2 19.6 10.95 10.4 20.9 15.35 28 14 38.25 25.3 15.2 16.75 4.85 37.15l-1.35-2.5q7.1-17.55-6.9-33.35-10.8-12.15-35.85-24.7-10.15-5.05-21.3-15.6"/><path fill="#0d131a" d="M189.05 372.3l2.1 1.25q.2 1.65.95 3.35-2.8-1.35-5.3-2.95-6.95-4.45-8.9-13-1.6-7.1.55-10.55l2.05-.8q-1.75 2.8-.05 9.9 2.05 8.6 8.6 12.8m39.9 10.15l-8.7.45 1.3-2.6 5.45-.35 1.95 2.5m37.6-30.95q2 4.55-.85 10.05-2.55 4.8-8.35 9.5l-2.6-1.25q5.25-4.3 7.85-8.95 2.8-5 1.6-8.85l2.35-.5M18.7 224.95l1.9 2.15q-1.25 11.1-.35 23.65 1.55 20 8.65 33.8l-2.05 2.15Q17.9 272.1 16.9 251q-.65-13.3 1.8-26.05"/><path fill="#0d131a" d="M270.3 277.2q6.9 8.25 10.4 16.5 5.95 14 3.65 29.6-2.4 16.35-9.6 24.15-3.55 3.85-11.35 7.15l-.45.2q-13.1 5.6-26.4 5.6-22.9-.1-41.05-17.05l2.85-1.5q16.25 14.1 38.1 15 14.9.6 25.65-4.05l.45-.2q6.5-2.75 10-7.05 6.15-7.55 8.45-23.3 3.6-24.45-12.1-43.35l1.4-1.7m-76.15 109.25q-5.3-8.8-4.3-12.55.65-2.4 5.15-4.65 5.2-2.6 11.1-2 8.5.85 13.4 6.5 4.1 4.7 2.95 7.85-1.4 3.7-9.05 8.8-7.05 4.65-9.75 4.85-4.05.3-9.5-8.8m-1.2-12.7q-1.15.9 1.7 6.55 2.7 5.5 5.9 9.15 2.5 2.85 3.35 2.85 2-.1 8.35-4.3 6.95-4.65 8.15-7.85.7-1.9-3.05-5.1-4.2-3.6-10.4-4.95-7.25-1.55-14 3.65m32.3 5.2q.15-2.5 3.4-5.2 3.25-2.65 8.05-4.35 11.75-4.15 20.15.55 4.1 2.25 8.45 11.95 4.3 9.45 3.85 14.6-.25 3.05-2.3 3.5-4.75.95-17.05-3.75-12.2-4.65-19.55-10.1-5.2-3.9-5-7.2m10.65-7.35q-3.75 1.5-6.2 3.75-2.3 2.05-2.3 3.7 0 4.25 15.85 11.5t22.15 6q.65-.1.8-1.85.4-4.85-3.3-13.25-3.75-8.65-7.2-9.95-10.1-3.8-19.8.1m-34.65-200.65q-14.35 5.5-30.7 5.75-14.95.25-31.15-6.3-13.15-5.35-19.5-11.35l-7.3-7.4q-5.2-5.5-7.75-7.7-4.05-3.5-6.55-3.85-2.05-.3-5.3 2.15-3.05 2.35-6.15 7.15-2.7 4.2-2.9 5.8l-1.65-1.65q.25-2.15 2.85-6.25 2.85-4.55 6-7 1.75-1.3 3.95-1.85l3.45-.2q2.95.4 7.15 4 2.55 2.15 8.25 8.15l7.2 7.3q6.25 5.85 19 11 15.8 6.4 30.4 6.15 15.9-.25 29.9-5.6 14-5.3 20.95-13.7 1.6-1.95 3.8-3 2.4-1.15 4.9-.95 3.7.35 7.1 2.5 3.5 2.2 5.25 5.35 2.2 3.85 2.8 13 .45 7.3-.2 14.45l-1.5 1.85q-.9.95-.75-.4l.05-.7q.8-6.6.4-13.75-.45-8.75-2.65-12.7-1.55-2.75-4.75-4.8-3.15-2.05-6.3-2.3-4.2-.45-6.75 2.6-7.1 8.75-21.55 14.25"/><path fill="#0d131a" d="M118.05 349.55l-.2-1.65-.3-1.65q25.55 8.75 55.55 2.45 17.8-3.7 32-11.05 12.2-6.3 23.7-19.95 5.85-5.2 11.75-15.25 5.7-9.8 5.5-13.7l2-.6q.75 5.2-5.1 15.4-5.6 9.8-11.75 15.05-5.7 9.95-18.85 18.35-12.7 8.15-29.15 12.95-16.9 4.95-33.5 5.05-17.8.15-31.65-5.4m96.55-182.3l13.45-10.2q5.85-3.5 10.2-.6l.4 1.35q-3.9-2.6-8.9.4L215 169.3q-9.5 7-25.4 10.7-17.35 4-32.2 1.4-18.55-3.25-33.5-13.6-8.65-5.95-18.55-16.75l-2.6-3.15q-3.7-3.9-7.95-4.1-3.1-.2-6.15 1.55l1.2-1.75q3.55-1.4 5.95-1.25 3.8.25 7.2 3.8l2.65 3.25q9.7 10.6 18.5 16.65 14.95 10.25 33.3 13.4 14.15 2.45 30.9-1.2 16.4-3.6 26.25-11"/><path fill="#0d131a" d="M132.05 330.8q12.7 2.85 27.35 3.55 40.35 1.95 66.35-13l.8 1.35-4.7 2.5q-26.2 13.65-64.75 11.1-14.1-.9-26.1-3.8-10.6-2.55-13.3-4.9l.4-1.75q2.75 2.4 13.95 4.95"/><path fill="#0d131a" d="M160.8 332.85q-15.15-.95-28.2-4.1-11.6-2.8-14.5-5.35l1-1.2q2.35 2.05 14.65 4.6 14.1 2.9 29.75 3.7 44.1 2.15 67.15-14.1l-2.2 4q-26.2 15.1-67.65 12.45m-65.45-66.1q9.55 7.6 24.15 13.65 15.85 6.6 33.6 9.5 43.1 7.15 79.3-9.05l-.75 1.05-.65 1.1q-37.9 16.9-83.25 7.7-18.35-3.7-34.25-11.25-14.7-6.95-23.05-15l2.45 1.3 2.45 1"/><path fill="#0d131a" d="M115.95 275.7q-12.3-5.55-18.45-10.65l1-1.2q5.8 4.8 17.9 10 14.35 6.2 30.85 9.8 38.1 8.2 69.65-1.45l2.4.85q-18.75 6.65-39.6 6.65-15.2 0-32.25-3.65-16.45-3.55-31.5-10.35m-28.5-66.8l1.05-1.1q7.65 7 20.65 13.5 15.2 7.55 31.9 11.15 40.75 8.85 87.4-10.75v1.85q-24.75 10.55-45.6 13.15-20.95 2.65-42.7-2.05-16.65-3.65-32-11.7-12.5-6.55-20.7-14.05"/><path fill="#0d131a" d="M89.35 203.5l1.1-1.05q6.3 6.5 19.25 13 15.35 7.75 32.85 11.5 46.9 10.15 87.2-11.95l-.2 2.15q-24 12.6-50.25 14.65-20.1 1.55-40.05-3.15-17.2-4.05-32.05-12.25-11.65-6.45-17.85-12.9m-74.9 120.8l2.15.45q-3.8 19.2-2.55 33.7 1.3 14.5 7.65 23.35l-1.2 2.05q-7.85-8.9-9.55-23.9-1.8-15.75 3.5-35.65m64.35 71l.95-2.3 2.35-.75q1.55-.7 2.3-.85l1.2 1.35 1.3 1.25-8.1 1.3m37.75-73.45q1-2.25 1.3-4.9 3.45 13.35 1.35 31.2-1.95 16.85-7.65 28.7l-2.5-2.1q4.55-10.65 6.75-25.55 2.3-15.6.75-27.35"/><path fill="#0d131a" d="M84.7 394q-1.45-1.2-1.75-3.45-.35-2.6 1.1-5.5 3.05-6.05 9.5-9.4 7.55-3.9 16.45-1.75 1.7.4 3.2 4 1.1 2.7 1.65 5.85.95 5.7.75 10-.2 5.75-2.4 7.15-3.6 2.3-13.45-.1Q90 398.4 84.7 394M95 376.95q-5.35 2.7-8.1 8.15-1.55 3.15-1.55 5.6 0 1.45.55 1.9 4.8 4.05 13.8 5.8 8.6 1.7 11.65-.25 1.4-.9 1.75-5.2.3-4.25-.55-9.65-.6-3.55-1.55-5.7-.8-1.75-1.45-1.9-8.2-1.95-14.55 1.25m-75.2 7.2q1.15-6.3 10.25-8 6.5-1.2 19.4-.2 12.1.95 22.3 5.95 10.7 5.25 10.35 10.85-.05 1.75-2.3 3.75-5.85 5.25-22.3 9.85-17.1 4.75-29.35 4-1.45-.1-3-1-1.7-.95-2.45-2.25-2.65-4.5-3.4-10.8-.65-5.95.5-12.15m10.75-5.9q-7.25 1.1-8.15 5.95-1.05 5.75-.2 11.6.9 5.9 3.4 9.05 1.5 1.85 3.45 2 12 .7 27.85-3.3 15.55-3.95 20.95-8.8 1.65-1.45 1.7-2.45.25-4.3-9.2-8.6t-21.15-5.2q-13.5-1-18.65-.25m17.6-104.7q5.55-1.1 12.2-1.2l-.05 2.15q-7.45.15-13.95 1.95l1.8-2.9"/><path fill="#0d131a" d="M40.7 275.6l1.95 2.1q-12.95 4.9-20.2 16.85-5.5 8.95-6 17.65-1.05 16.55 3.75 27.45Q26.55 354 42.55 357.2q9.8 1.95 20 2.8 13.45 1.1 19.3-.8 14.5-4.7 24.5-18.35 9.35-12.85 8.85-24.8-.7-16.05-10.2-27.5-10.8-13.05-29.4-14.8l.15-2.15q20.35 1.8 32 15.5 10.1 11.95 10.85 28.9.55 12.6-9.5 26.5-10.65 14.8-25.8 19.7-6.05 1.95-20.75.55-10.65-1-21.35-3.15-15.1-3-22.35-14.5-7.4-11.8-6.15-31.8.6-9.75 6.05-19.25 7.65-13.3 21.95-18.45m23.25-131.45q7.45-.05 13.1 2.65 5.6 2.75 8.85 7.9 4.35 7.05 4.25 16.4-.1 8.25-3.15 12.85l-1.9-.95q2.25-4.6 2.25-12.05 0-8.85-3.85-14.95-2.85-4.6-8.2-6.9-5.2-2.25-12.2-2.2-12.95.1-23.3 5.65-10.35 5.55-16.5 15.75-4.2 6.95-5.15 14.55-.95 7.55 1.5 14.4-.85.9-1.5 2.15-3.2-7.75-2.7-15.9.5-8.65 5.05-16.25 6.4-10.6 18.2-16.8 11.65-6.15 25.25-6.3"/><path fill="#0d131a" d="M19.05 195.85q5.05-9.5 19.85-17.05 16.25-8.3 29.95-5.85 7.25 1.3 12.85 5.5 5.55 4.15 8.2 10.15 2.15 4.9 1.65 10.45-.45 5.25-3.05 9.5l-1.85-1.15q2.25-3.65 2.4-8.6.15-4.95-1.85-9.55-2.4-5.5-7.25-9.15-4.8-3.65-11.5-5.05-12.15-2.45-27.75 5.5-14.4 7.35-19.15 16.25-2.85 5.4-3.85 11.3-1.15 7.05.85 12.65 1.8 5 5.95 8.4-.65.75-.9 2-2.85-2.2-4.55-4.1-2.15-2.45-3.1-5.15-2-5.6-1.15-12.55.8-7.05 4.25-13.5m19.1 78.55q-1.85-3.35-6.2-14.2l-1.7-4.1q1.05 1.2 2.85 2l.55 1.4q7.15 17.8 10.2 16.85 2.15-.65 4.35-5.2 1.6-3.35 2.8-7.8l2.3.05q-1.4 5.1-3.2 9.05-2.85 6.3-5.75 7.15-2.85.9-6.2-5.2m57.1-36q.45-2.35.85-3.05 4.95 6.55 5.2 16.75.15 6.5-1.55 13.45-.85 3.45-2.1 3.75-2.9 1-18.2-11.85l2.05-1.3q3.1 2.55 8.2 5.95 5.95 4.05 7.3 4 .45-.4 1-2.65.65-2.7.85-6.4l.1-2.65q0-10.4-3.7-16M77.3 259.3l2.55-1.15q-.2 5.05-2.3 12.85-2.3 8.7-4.7 11.1-1.15 1.15-2.4.95-3.45-.65-8.45-6.2-5-5.65-8.5-12.9l2.35.55q3.25 6.35 7.85 10.95 4.2 4.15 7.05 4.7.3.05.8-.45 1.9-1.95 3.75-9.1 1.65-6.4 2-11.3"/><path fill="#0d131a" d="M91.5 211q4.7 4.6 6.1 9.4 1.45 5.05.2 11.65-1.3 6.65-4.95 13-4.1 7.1-10.05 11.9-5.9 4.8-12.6 6.45-10.1 2.5-20.2 1.35-10.35-1.2-17.3-5.9-3.95-2.65-6.6-6.8-2.65-4.1-3.2-8.3-1.7-11.95 3.05-21.45 4.7-9.6 15.3-15.5 9.3-5.15 19.35-6.05 10.3-.85 19.65 2.95 6.4 2.6 11.25 7.3m-1.05 33.5q3.55-6.15 4.95-12.45 1.45-6.5.1-11.05-1.25-4.2-5.45-8.1-4.2-3.9-10.25-6.35-9-3.65-18.7-3-9.7.65-18.4 5.5-10.05 5.6-14.55 14.6t-2.95 20.2q1.05 7.55 8.4 12.55 6.7 4.55 15.7 5.85 9.1 1.3 18.55-1 6.65-1.65 12.5-5.8 6.35-4.55 10.1-10.95m153.8-57.05q8.2-7.35 21.05-8.4 13.45-1.1 24.2 5.7 12.3 7.75 16.5 23.5 3.65 13.55-1.25 24.55-4.25 9.45-13 14l-1-1.9q7.2-3.75 10.95-11.35 5.15-10.25 1.4-24.2-3.85-14.4-14.55-22-9.4-6.7-21.35-6.45-11.4.2-19.35 6.35-8.45 6.55-8.55 16.65 0 .7-1.95 2.35-1.8-10.95 6.9-18.8"/><path fill="#0d131a" d="M290.35 231.9q2.05 6.95 1.65 13.4-.35 6.15-2.9 10.65-2.3 4.05-6 6.65-4.15 2.9-9.55 3.55v-2.25q9.75-3.25 13.4-9.85 4.6-8.05.6-21.4-3.7-12.7-13.65-21.85-11.7-10.8-25.25-8.65-10.4 1.65-15.35 9.7-2.65 4.25-3.35 9.65-.6 4.6.3 7.6l-2.05.6q-1.15-3.65-.95-8.15.25-6.2 3.2-10.95 2.6-4.2 7.5-7 4.6-2.65 10.35-3.55 14.5-2.3 27.2 8.95 10.95 9.65 14.85 22.9M219 241.55l.85 2.75q-4.1 3.7-7.8 12.1-3.5 8-2.2 9l6.35-.35 5.1-1.4.45 1.45-5.6 1.5q-5.8 1.35-8.1.85-.95-.15-1.25-1.25-.7-2.9 4.55-12.85 4.95-9.4 7.65-11.8m29.2 45.5l2.35.3 2.3.3q-8.9 2.6-15.45 3.7-6.95 1.1-8.05-.1-.95-1.05.25-5.2 1.05-3.7 2.6-6.4l1.3.8q-1.6 2.8-2.5 5.7-1 3.1-.3 3.75l6.2-.3q5.25-.9 11.3-2.55"/><path fill="#0d131a" d="M220.3 264.65l.95 1.4q-3 4.45-4.7 8.3-2.3 5.2-.95 7.2.65.8 5.7.45 5.5-.4 11.2-1.95.3.7 1.35 1.2-6.5 1.9-12.5 2.7-7.15.9-8.2-.7-2.85-4.2 7.15-18.6"/><path fill="#0d131a" d="M246.05 226.75q7.75 2.05 14 7.5 6.5 5.6 10.25 13.85 5.7 12.5 3.85 22.65-1.75 9.5-9.3 13.8-9.55 5.45-17.35 4.35-8.75-1.25-19.6-11.1-5.35-4.85-8.3-11.95-2.8-6.8-2.8-14.35v-1.35q.2-14.85 9.25-21 8.1-5.55 20-2.4m12.65 9.15q-5.95-5.2-13.15-7.05-7.85-2-15.85 2.8-9.7 5.8-10.55 18.45-.35 5.65 1.55 11.3 2.6 7.8 9.05 13.65 10.7 9.7 18.95 10.55 6.05.65 14.85-3.95 7.35-3.8 8.65-12.7 1.3-8.9-3.85-19.95-3.7-7.85-9.65-13.1M175.55 78.5l-1 4.9q-.55 2.65-.9 2.45-.85-.5 0-6.4.35-2.15-.7-3.3-.65-.75-2.45-1.45-4.9-1.8-15.95-.25-10.15 1.45-15.1 3.95-1.9.95-2.25.6-.35-.4 1.2-1.55-3.45-2.1-10.55-3.4l-7.95-.35q-2.6 2.3-2.6 9.05 0 5.5 1 10.35.8 3.95 2 6.45 1.75-1.25 1.95-.85.2.4-.8 1.95-1.4 2.2-3.25 6.75-2.45 5.95-3 9.95-.5 3.35-.45 5.35l.3 4.1-.45 1.4q-.35.9-.6.75-.4-.95-.85-3.3-.55-2.6-.55-4.05 0-5.55 1.7-11.4 1.8-6.25 4.65-9.6-1.35-3.45-2.35-6.7-1.9-6.25-1.9-11 0-7.95 3.3-10.9 1.85-1.6 8.75-.35 7.35 1.3 12.65 4.7 7.1-3.3 16.6-4.4 9.7-1.15 15.15.9 2.1.75 3.75 3.05 3.8-4.3 15.9-.25 9.55 3.2 14.4 6.9l13.5.4q5.5.95 7.45 2.8.8.8.8 3 0 3.7-2 9.55-1.9 5.65-4.55 10.25 3.8 9.9 2.35 19.95-1.05 7.05-2.7 8.7-.65.7-1.65-.2-1-.9-.3-2.45 1.25-2.6 1.9-9.05.8-8.35-1-15.05-1.3.6-1.35-.25-.05-.8.75-1.65.9-1.05 3.9-8.85 3.2-8.4 3.2-11.05 0-1.35-.45-1.8-1.35-1.35-7.75-2-6.45-.7-12.25-.05-1.75.2-2.85-.4-1.2-.65 1.1-1.35-.6-.65-4.6-2.3-4.5-1.9-9.05-3.15-12.8-3.55-14.1.9"/><path fill="#0d131a" d="M133.25 81.95l-8.25 11q-.75-3.05-1.35-6.3-1.2-6.45-.25-7.25 1.7-1.45 9.85 2.55"/><path fill="#0d131a" d="M123.75 79.8q-.25.25-.25 1.25 0 3 1.75 10.65l7.2-9.5q-7.35-3.6-8.7-2.4m9.75 1.7q1.1.7.15 1.25-.6.4-3.8 4.6l-4 5.35q-.75 1.05-1.1.8l-.25-.45Q121.3 80.5 123.05 79q2-1.75 10.45 2.5m85.75 7.8q0 1.65-2.7 10.15l-8-10.15 6.05-.8q4.6-.3 4.65.8"/><path fill="#0d131a" d="M209.25 88.5q8.35-1.35 10.1-.05l.45.85q0 1.25-1.1 5.4-1.1 4.1-1.65 4.9-.45.7-.85.55l-.8-.75q-5.9-8.35-6.75-9.15-1.55-1.45.6-1.75m9.45.85l-3.8-.35-5.4.65 6.8 8.65q2.4-7.65 2.4-8.95m-55.25 5.6q.15-1.35.5-.85.35.5.3 2.15-.1 2.6-1.2 5.8-1.1 3.4-2.3 4.1-1.15.7-1.35.2-.2-.45.55-1.5.7-1.05 2.05-4.8 1.3-3.75 1.45-5.1m14.35 3.45q-.15-2.5.35-2.9.5-.4.8 2.25.6 5.5 2.05 8.7.85 1.85.7 2.4-.2.55-1.55-.65-1.25-1.1-1.8-4.3l-.55-5.5m-14.65 9q3.15-1.25 5.55-1.1 6.1.4 9.75 3.95 1.2 1.15.95 1.55-.2.35-1.2-.45-.95-.8-3.7-1.7-3-1-5.45-1.2l-4.65.25q-2.1.35-3.55.95l-1.5.4q-.3-.1.35-.7.85-.85 3.45-1.95m-15.05 10.05q-1.55-.7-1.65-1.75-.1-1.1 1.85-1.1 2 0 4.55 2.65 2.3 2.35 3.05 4.45.55 1.65-.15 1.7-.6 0-1.25-1-1.85-2.9-6.4-4.95m21.4 3.6q5.9.8 9.3 4.2 1.25 1.25 1.2 1.9-.05.6-1.5-.45-4.35-3.35-10.4-3.75-5.65-.4-10.45 1.75l-1.6.1q-.15-.55 1.25-1.4 5.65-3.25 12.2-2.35m11 3.45q1.4-2.05 4.35-3.65 3.25-1.75 5.45-1.25.6.15.85 1.35.2 1.25-.7 1.25-1.6 0-4.05.75-3.25.95-4.8 2.65-1 1.1-1.35.5-.4-.6.25-1.6m-27.55-16.3l.6-1.3-5.75-5.1q-5.75-4.6-10.6-6.5-1.4 1.65-2.6 3.75-1.95 3.5-2.45 7.15l10.3.55 6.95 1 3.55.45m-19.8-9.75q.55-1 2.95-3.5-1.7-.85-2-1.7-.3-.95 2.85.15 5.1 1.8 10.65 6.1 4.75 3.7 6.7 6.55 1.05 1.6.7 1.65l-.6-.25-.55.95.45.5q.05.5-1.85.35l-9.95-.95-11.05-.55q-2.85.2-2.9-.4-.1-.6 2.35-1.15.45-4.8 2.25-7.75m70.05 1.05q3.65-.6 3.65.25-.05.8-2.4 1.15 1.6 1.05 3 3.9 1.75 3.4 1.6 6.8 1.8.3 1.85.9.05.55-2.05.55l-12.1.15-11.7.4q-1.45.2-1.2-.35l.55-.55q-.5-.65-.65-1.25l-.9.05q-.3-.25.6-1.2 2.7-2.8 8.05-6 6.6-3.95 11.7-4.8m4.6 12.15q-.35-2.75-1.95-6-1.35-2.8-2.85-4.4-5.05.75-11.45 4.65-4.1 2.5-6.9 5l.65 1.45 12.2-.55 10.3-.15"/><path fill="#0d131a" d="M142.6 97.45l.9.7q-2.6 1.8-2.6 5 0 2.4 1.55 4.05l-1.6-.25q-1.05-1.8-1.05-3.8 0-3.55 2.8-5.7m9.7 7.7l.85.9q-.65 1.45-1.75 2.4l-1.3-.35q1.6-1.1 2.2-2.95m34.7 3.1q0 2.95 2.4 4.75l-1.5.1q-1.8-1.85-1.95-4.55l1.15-1.1-.1.8m13.7 0q0 2.55-1.7 4.55h-1.55q1.8-1.5 1.8-4.6 0-3.8-3.05-5.35l1.3-.5q1.45 1 2.3 2.5.9 1.6.9 3.4m-7.3-.3q0 1.45-.45 2.4-.45 1-1.15 1-.65 0-1.1-1-.45-1-.45-2.4t.45-2.35q.45-1 1.1-1 .65 0 1.15 1 .45.95.45 2.35m-43.2-3.9q0 1.25-.5 2.2-.45.9-1.15.9-.65 0-1.15-.9-.45-.9-.45-2.2 0-1.3.45-2.2.5-.9 1.15-.9.7 0 1.15.9.5.9.5 2.2"/><path fill="#fff" d="M197.8 105.9q0 1.6-1.5 1.6-.65 0-1.05-.4-.45-.45-.45-1.2t.45-1.2q.4-.5 1-.5.65 0 1.1.5.45.45.45 1.2m-51.55-4.15q0 .65-.5 1.15-.45.45-1.15.45t-1.15-.45q-.5-.5-.5-1.15 0-.65.5-1.1.5-.5 1.15-.5.65 0 1.15.5.5.45.5 1.1"/><path fill="#0d131a" d="M206.3 129.15q-.35-1.65.25-1.55.6.15 1.55 2.15l.7 2.9.25 2.65q-.2 4.05-2.9 5.6-2.3 1.25-7.15 1.1-2.95-.1-6.6-1.4l-7.25-2.8q-4-1.35-8.95-2.6l-8.35-1.75-11-.75-11.85.15-9.45.45q-7 .05-9.3-3.75-.75-1.35-.75-3.05 0-1.5.65-3.2.85-2.15 2.3-3.25 1.45-1.15 1.7-.95.15.2-.6 1.25-.8 1.15-1.3 3.65-.55 2.85.2 4.1 2.05 3.45 7.65 3.4l8.85-.15 12.55-.25 11.7.8q6.25.9 15.7 4.15l7.5 2.6q3.85 1.2 5.7 1.2 2.55.05 4.75-.65 2.5-.8 3.6-2.35 1.25-1.8-.15-7.7"/><path fill="#0d131a" d="M207.65 129.7q13.7.25 13.8 11.85 0 4.3-1.9 9.3-1.65 4.3-3.8 6.9-7.7 9.4-25.6 12.8-13.55 2.55-27.45 1.15-26.2-2.6-40.35-15.4-13.5-12.15-9.25-26.7 1.4-4.85 4.95-7.3 4.15-2.9 10.65-2.25.5.9-1.1 1.2-3.65-.25-6.9 2.1-3.25 2.35-4.95 6.55-2.1 5.2-.1 11.45 2.1 6.45 7.95 12.2 13.95 13.65 39.85 16.2l6.5.35 13.9-.65q20.95-2.45 29.7-13.2 2.9-3.55 4.25-8.85 1.25-4.95.6-8.75-.5-3.15-3.25-5.15-2.7-1.95-6.8-2.3l-.35-.65-.35-.85"/></svg>