<svg xmlns="http://www.w3.org/2000/svg" width="156" height="137" viewBox="0.0 -1.4 155.75 137.0"><path fill="#8b92c7" d="M27.8 26.55l-6.7-5.9q2.5.2 5.4 1.1 3 .9 4.9 2.1l-3.6 2.7"/><path fill="#fff" d="M118.15 59.3q-.5-2.85-.5-6.45 0-3.45.45-5.95 6.05.35 11.85 1.9 1.85 3.6 2.5 7 1.2 5.7.2 10.8-1 5.45-3.85 6.2-3.5 1-6.6-3.1-2.95-3.95-4.05-10.4"/><path fill="#0d131a" d="M98.35 48.5q10-2.25 19.75-1.6-.45 2.5-.45 5.95 0 3.6.5 6.45 1.1 6.45 4.05 10.4 3.1 4.1 6.6 3.1 2.85-.75 3.85-6.2 1-5.1-.2-10.8-.65-3.4-2.5-7l3.1.9q1.6 3.1 2.15 7.6.6 4.4.05 9.05-.4 3.4-1.25 6.25-1.75 6.05-5.2 9.2-3.85-2.85-6.25-3.85-5.95-2.55-13.8 1.75-3.15 1.75-4.95 3.8-1.85 2.15-1.25 3.5 1.7 4 2.8 8.7-13 6.85-31.85 5.25Q53.05 99.25 43.75 88l-1.7-3.4q4.55.45 8.1-4.15 3.45-4.55 7.75-8.95L58 74q.35 6.75 5.45 11.45 5 4.65 11.45 4.6 6.6-.05 11.15-5 4.7-5.1 4.45-12.65-.2-5.5-3.65-10.25-3.45-4.65-8.35-6.25 9.55-5.15 19.85-7.4"/><path fill="#8b92c7" d="M46.95 1.85q1.3.25 4.95 4.25 3 3.2 4.4 5.25-11.95 3.4-24.9 12.5-1.9-1.2-4.9-2.1-2.9-.9-5.4-1.1l-1.45-1.3q.45-5 1.3-6.25Q23.5 9.4 33.6 5.2q9.8-4.05 13.35-3.35m9.75 9.35q-1.3-1.95-5.3-5.95 4.7-1.35 9.5-1.85l6.45.4q1.25.8 1.9 1.85l.95 2.6q-4.9.5-13.5 2.95M142.75 7l-4.2 9.4q-3 7.1-2.95 11.5-7-5.7-15.75-9.9 3.5-2.9 9.6-9.5l6.2-6.7q2.5-2.15 5.45-.35 3 1.85 1.65 5.55m6.45 74.15q.2.35-1.05 3.95t-1.7 3.65q-3.05-1.4-7.05-1.05-1.3.75-1.95 1.3-4-3.8-8.65-7.2 3.45-3.15 5.2-9.2 2.4 2.75 8.05 5.55 4.15 2.1 7.15 3M15.4 51.85l.05-.75.15.75h-.2"/><path fill="#fff" d="M86.85 62.15Q90.3 66.9 90.5 72.4q.25 7.55-4.45 12.65-4.55 4.95-11.15 5-6.45.05-11.45-4.6Q58.35 80.75 58 74l-.1-2.5q9.15-9.45 20.6-15.6 4.9 1.6 8.35 6.25"/><path fill="#797fad" d="M78.65 111.1q-4.3-.4-11.7 5.75-3.9 3.2-8.55 7.95-1.65 1.5-7.1-.35-5.55-1.85-5.65-4l.65-12.95q.2-12.35-2.55-19.5 9.3 11.25 29.75 12.95 18.85 1.6 31.85-5.25 1.15 4.4 2.05 10.95-5.55 3.35-14.3 4.35-6.8.8-14.45.1"/><path fill="#8b92c7" d="M134 72.6q.85-2.85 1.25-6.25 1.85 3.25 6.8 6.6 4.75 3.25 10.5 5.35 1.75.65-.7 7.75t-4.4 6.5q-1.9-.65-3.15-.95l-4 .2-2.85-2.8q.65-.55 1.95-1.3 4-.35 7.05 1.05.45-.05 1.7-3.65t1.05-3.95q-3-.9-7.15-3-5.65-2.8-8.05-5.55M32.75 99.35q-14.6 9.05-17.4 10.4-2.45 1.15-4.6-.8-2.2-1.95-1.15-4.85 1.4-3.9 10.9-20.75 4.15 8.55 12.25 16M15.4 51.85q-.45 5.85-.15 10.95Q8.05 61.5 4 57.7q-3.1-2.95-2.95-5.3 0-.3 1.1-1.35 1.2-1.1 1.65-.95l3.7 1.25 7.9.5"/><path fill="#8b92c7" d="M20.5 83.35q-4.5-9.1-5.25-20.55-.3-5.1.15-10.95h.2Q17.25 60.7 24 70.1q5.9 8.25 11.85 12.1 3.85 5.95 5.25 11.95 1.2 5.3.85 12.4-4.95-3.3-9.2-7.2-8.1-7.45-12.25-16"/><path fill="#8b92c7" d="M35.85 82.2l1.15.7q2.6 1.45 5.05 1.7l1.7 3.4q2.75 7.15 2.55 19.5l-.65 12.95q.1 2.15 5.65 4 5.45 1.85 7.1.35 4.65-4.75 8.55-7.95 7.4-6.15 11.7-5.75 7.65.7 14.45-.1 8.75-1 14.3-4.35l.95 5.85q-8.35 4.85-28.15 3.25-6.5-.55-15.85 10.7-2.85 3.5-4.4 4.25l-5.1.2q-3.6-.65-7.35-2.1-3.35-1.35-4.85-2.5-1.55-1.2-2-2.45-.45-1.3-.15-3.65 1.2-9.3 1.45-13.65.35-7.1-.85-12.4-1.4-6-5.25-11.95M1.2 32.4q3.55-.25 9.05 2.2 3.95 1.75 6.8 3.75-1.15 2.4-1.6 4.8-3-2-7.4-3.5l-5.2-1.5q-1.3-.4-1.75-1.15-.6-1-.3-3.25.15-1 .4-1.35m14.2 19.45l-7.9-.5q5.2-1.15 7.6-3.45l.3 3.95"/><path fill="#8b92c7" d="M17.05 38.35q-2.45-1.75-6.5-3.4Q5.3 32.75.8 32.4q1-1.3 4.45-3.85l4.75-3.5 8.3 11.15-.1.15-1.15 2"/><path fill="#8b92c7" d="M101.05 10.75q10.6 2.6 19.9 7.1 7.3 3.5 15.65 10.25 10.85 8.8 16.4 23 1.25 3.1-1.4 5.05-2.45 1.85-4.15.65-6.6-4.6-14.4-7.1-12.55-4.1-26.6-2.6-14.5 1.55-27.95 8.8-11.45 6.15-20.6 15.6-4.3 4.4-7.75 8.95-3.55 4.6-8.1 4.15-2.45-.25-5.05-1.7l-1.15-.7Q29.9 78.35 24 70.1q-6.75-9.4-8.4-18.25-.9-4.6-.3-8.2.6-3.85 2.9-7.3l.1-.15L10 25.05l-.8-1.2q-2.05-3.4 1.3-6.3 3.4-2.9 6.55-.45l10.75 9.45 3.6-2.7q13.7-9.6 25.55-13.05Q63.6 8.95 70.4 8.2l9.9-.4q9.95.2 20.75 2.95"/><path fill="#ed8599" d="M105.35 95.7q-1.1-4.7-2.8-8.7-.6-1.35 1.25-3.5 1.8-2.05 4.95-3.8 7.85-4.3 13.8-1.75 3.5 1.5 9.7 6.55 4.9 4.05 8.05 7.3 7.75 8 11 15.05 3.5 7.55 1.65 13.2-1.85 5.65-9.05 9.6-8.2 4.45-17.2 3.4-9.9-1.25-14.65-8.95-2.3-3.75-3.7-11.6-2.1-13.3-3-16.8"/><path fill="#797fad" d="M122.25 15.9q11.05 1.8 18.1-3.6-2.2 4.8-3.2 7.75-1.6 4.6-1.55 7.85-7-5.7-15.75-9.9l2.4-2.1m26.95 65.25q.2.35-1.05 3.95t-1.7 3.65q-3.05-1.4-7.05-1.05-1.3.75-1.95 1.3-4-3.8-8.65-7.2 3.45-3.15 5.2-9.2 2.4 2.75 8.05 5.55 4.15 2.1 7.15 3M78.65 111.1q-4.3-.4-11.7 5.75-3.9 3.2-8.55 7.95-1.65 1.5-7.1-.35-5.55-1.85-5.65-4l.65-12.95q.2-12.35-2.55-19.5 9.3 11.25 29.75 12.95 18.85 1.6 31.85-5.25 1.15 4.4 2.05 10.95-5.55 3.35-14.3 4.35-6.8.8-14.45.1m-62.7-19.45l4.55-8.3q4.15 8.55 12.25 16L17.8 108.4q1.3-4.4.9-8.75-.5-4.55-2.75-8m-.55-39.8q-.45 5.85-.15 10.95-8-1.4-12.1-6 7.25-.45 10.85-4.85l1.4-.1"/><path fill="#797fad" d="M20.75 83.9q8 5.2 19.2 6.4 2.45 7 2 16.25-4.95-3.3-9.2-7.2-7.65-7.05-12-15.45M1.9 32.35q3.5-.25 8.7 2.2 3.35 1.6 6.45 3.8-1.15 2.4-1.6 4.8-3-2-7.4-3.5l-5.2-1.5q-1.2-.35-1.55-1.25-.35-.95-.05-3.35.05-.35.65-1.2"/><path fill="#ce7486" d="M131.3 128q11.4-.05 21.25-6.9-2.1 5-8.65 8.55-8.2 4.45-17.2 3.4-9.9-1.25-14.65-8.95-1.15-1.8-2.05-4.55 8.9 8.45 21.3 8.45"/><path fill="#797fad" d="M153.25 52.1q.45 2.7-2 4.3-2.3 1.45-3.8.4-6.6-4.6-14.4-7.1-12.55-4.1-26.6-2.6-14.5 1.55-27.95 8.8-11.45 6.15-20.6 15.6-4.3 4.4-7.75 8.95-3.55 4.6-8.1 4.15-2.45-.25-5.05-1.7l-1.15-.7q-3.6-2.3-7.65-6.85-4.35-4.9-7.55-10.5 5.05 5.2 10.6 9.05 6.05 4.2 9.3 4.25l7.3-8.05q4.7-5.4 8.05-8.2 21.65-18.25 45.2-22 27.4-4.4 52.15 12.2"/><path fill="#0d131a" d="M132 49.25l.85.15q1.05.35 1.2.75 3.1 6.9 2 16.9-1.1 10.45-6.15 15.25-.25.25-1.1-.25-.8-.5-.65-.65 5.3-4.55 6.45-15.45 1.1-10.65-2.6-16.7m-26.85 45.8l.45.9q.3.95.05 1.05-12.6 6.5-31.15 5-19.8-1.65-29.85-11.9-.65-.7-1.3-2.6-.65-1.95-.35-1.6 8.4 12.15 29.4 14.3 19.3 1.95 32.75-5.15"/><path fill="#0d131a" d="M154.3 51.1q1.2 3.1-2.15 5.55-3.2 2.3-4.8 1.2-9.25-6.55-21.7-8.75-12.55-2.25-25.75.4-29.95 5.95-48.65 31.95-2.65 3.65-5.35 4.6-3.8 1.3-9.2-1.6-5.7-3.05-12.05-11.4-7.15-9.35-9.4-18.45-1.3-5.2-.7-10.1.65-4.9 3.05-8.5l.55.5.7.85q-4.4 7.15-2.25 16 2.15 8.85 9.1 17.9 6.15 8.05 11.65 11.05 4.45 2.4 7.75 1.3 2.35-.8 4.5-3.6Q69.9 53.3 100 47.45q13.3-2.6 25.9-.25 12.45 2.35 21.95 9.05 1.35.95 3.35-.7 2.1-1.75 1.15-4.2Q144.7 31.7 122.4 19.8 102.6 9.3 80.25 8.75 64.95 8.4 50 14.45q-11.75 4.75-21.75 12.7-.6-.6-.75-1.45 10.15-8.3 22.9-13.3 15.1-5.95 30.05-5.6 23.3.6 43.3 11.45 22.5 12.25 30.55 32.85"/><path fill="#0d131a" d="M15.5 50.25l.45 3.4q-1 17.05 5.15 29.45 6.15 12.35 20.65 22.5l.25 1.25q0 1.1-.25.95-17-11.1-23.25-25.35-6.1-13.9-3.55-34.4l.55 2.2m97.2 28.5q-4.85 1.6-7.85 4.65-2.2 2.2-1.65 3.35 1.95 4.5 3.25 10.4.8 3.55 1.8 10.15.95 6.45 1.6 9.2 1.05 4.5 2.75 7.2 4.55 7.45 14.05 8.7 8.75 1.1 16.9-3.35 6.95-3.8 8.75-9.2 1.75-5.4-1.65-12.7-4.15-8.95-14.45-18.4-8.6-7.9-13.95-10.15-4-1.7-9.55.15m-8.85 3.7q3.35-3.35 8.3-5.2 5.95-2.2 10.5-.3 5.5 2.35 14.5 10.6 10.75 9.85 15 19 3.6 7.75 1.55 14.05-2.05 6.25-9.5 10.3-8.65 4.7-17.95 3.55-10.15-1.3-15-9.2-1.75-2.9-2.9-7.55-.7-2.8-1.7-9.35L105 97.9q-1.2-6.3-3.1-10.6-.85-2.05 1.95-4.85"/><path fill="#0d131a" d="M112.15 78.15q-.25-.15.65-.45l1.2-.15q5.6 3.25 11.45 9.9 5.95 6.75 8.45 12.8.9 2.15.65 2.95-.25.85-1.1-1.35-2.65-6.3-9.25-13.65-6.65-7.4-12.05-10.05m-77.05 4.9q-.3-.45.85-.3 1.2.2 1.6.9 4.65 7.9 5.15 16.95.3 5.8-1.5 19.7-.3 2.15.1 3.25.35 1.1 1.75 2.2 1.4 1.05 4.65 2.35 3.75 1.5 7.3 2.15l4.65-.15q1.4-.7 4.2-4.05 9.6-11.6 16.4-11 19.55 1.65 27.8-3.15.15-.15.35.85.25.95 0 1.05-8.1 4.55-28.05 2.85-3.1-.25-6.95 2.25-4.05 2.65-8.5 8-3.05 3.65-4.8 4.6-2 1.05-5.55.4-3.65-.65-7.5-2.1-3.65-1.35-5.2-2.55-1.65-1.3-2.25-2.95-.55-1.65-.25-4.2 1.95-15.1 1.65-20-.5-8.6-5.9-17.05m100-15.65q-.25-.4 0-1.85.25-1.5.35-1.1 1.15 3.45 5.3 6.75t10.55 5.85q2.4.95 2.85 1.4.6.65.35 2.45-.55 3.85-2.9 8.25-2.5 4.7-4.15 4.2l-3.2-1.05-3.3-.1-.75-.45-.3-.55q2.65-1.1 7.75.7 1.35-.5 3.1-5.05 1.5-3.9 1.9-6.45.15-.9-.15-1.25l-1.35-.65q-5-2-9.2-4.8-4.75-3.15-6.85-6.3"/><path fill="#0d131a" d="M41.1 85.15q-.15-.2.75-.35.85-.1 1.05.25 3.7 7.2 4.05 19.1l-.65 16.25q0 .55 1 1.3l3 1.65q4 1.6 6.25 1.25 1.5-.2 2.65-1.5 5.5-5.4 9.05-8.15 6.5-4.9 10.45-4.55 7.2.65 13.7 0 9.15-.95 14.85-4.45.15-.1.35.75.2.85 0 1-6.2 3.65-15.1 4.35-5.55.45-13.95-.3-3.5-.3-9.8 4.65-3.2 2.55-8.55 7.8-3.05 3.6-10.65.5-4.95-2-4.85-4.15l.55-18.1q-.4-11.1-4.15-17.3m92.85-11.6q-.2-.2-.05-1.35.2-1.2.35-.95 1.55 2.45 6.65 5.45 4.25 2.55 7.7 3.75l1.05.55q.25.35.1 1.15l-1.1 3.75-.85 2.35q-.5 1.05-1.1 1.15l-1.6-.35q-3.8-1.2-5.3-1.15l-1 .75-.7.7q-.1.1-.6-.35-.45-.45-.3-.65l1.25-.9.9-.45q2.7-.3 5.7.55l1.1.1.6-.8 1.5-4.3v-.75l-.75-.5q-9.35-3.5-13.55-7.75m-6-64.55l7.25-7.65q3.15-2.75 6.5-.35 3.4 2.45 1.7 6.25-3.3 7.25-4.25 9.75-2.55 6.85-2.45 11.2l-.85-.05-.9-.65q-.05-4.1 3-11.7l4.2-9.25q1.25-2.7-1.45-4.45-2.7-1.7-4.6.25l-7 7.6q-5.8 6.2-8.35 8.4-.2.2-1.2-.5-.95-.75-.7-.85 2.55-1.25 9.1-8M47.3.95q1.65.35 5.35 4.4 2.8 3.05 4.75 5.85l-.5.45q-.65.2-.85 0-1.7-2.4-4.65-5.4-3.35-3.45-4.6-3.7-3.25-.65-12.85 3.3-10 4.05-12.4 7.6-.75 1.15-1.25 6.25-1.4-1-1.35-1.35L19.2 15q.15-1.9.65-2.65 2.55-3.8 13.2-8.05Q43.4.15 47.3.95"/><path fill="#0d131a" d="M60.95 2.65q5.35-.6 6.95.35 2.45 1.45 3.4 5.55l-.8.3q-.85.2-.9 0l-.9-2.35q-.6-1.05-1.65-1.7-1.25-.75-5.9-.5-4.8.3-9.2 1.5l-.7-.5q-.55-.6-.3-.65 5-1.45 10-2M22.2 21.45q-.35-.05-1.05-.85-.65-.85-.35-.8 2.6.15 5.7 1.1 3.3 1 5.7 2.5-1.3.9-1.65.7-3.85-2-8.35-2.65m-12 3.45l.2.7-4.55 3.3-3.45 2.9q-.8.9-.6 4.55.05.8 1.2 1.1l5.45 1.7q4.2 1.4 6.9 3.15.25.1.2.95-.05.8-.3.6-2.35-2.05-7.15-3.6L2.6 38.8l-1.45-.45q-.6-.3-.9-1.2-.25-.85-.2-3.1 0-2.55.55-3.1 1.45-1.55 4.85-3.75l4.2-2.7q.2-.15.55.4"/><path fill="#0d131a" d="M17.1 37.3q.25.2.15 1.05-.1.9-.35.75-2.75-2.05-7.3-3.8-4.95-1.95-8.7-2.2-.3 0 .05-.6.3-.6.65-.55 4.1.3 9.25 2.3 4.05 1.6 6.25 3.05m-1.4 13.85q.3-.05.4.65.05.65-.25.7-2.85.35-6.1 0-3.35-.4-5.1-1.35-.65-.4-.95-.3l-.7.4-1.25 1.3q0 2.05 2.85 4.7 3.8 3.55 10.45 4.85.25.05.25 1 .05.95-.2.9-7.65-1.4-11.75-5.8-3-3.15-2.9-5.65.05-.5.85-1.55l1.15-1.2q.65-.45 1.35-.3l1.35.6q4.35 1.75 10.55 1.05"/><path fill="#0d131a" d="M1.55 53.85l-.4-.85q-.2-.7.05-.55 1.9 1.05 5.95 2.1 4.55 1.25 7.7 1.2.15 0 .1.8 0 .8-.2.8-3 0-7.25-1.25-3.35-1-5.95-2.25m13.5-7.1q.15-.25.25.8t-.15 1.25q-2.3 1.9-6.1 2.9l-1.4-.35-.7-.55q2.5-.45 4.6-1.4 2.7-1.15 3.5-2.65M32.9 55.3q-1.45-.15-1.65-.55-.25-.4 1.15-.4 3.45-.05 5.7-1 2.5-1.05 4.95-3.65 1.6-1.75 1.8-.9.2.85-1.4 2.6-4.25 4.55-10.55 3.9m1.8 21.75q-2.8-1.55-4.8-3.25-1.65-1.4-1.5-1.75.2-.4 1.95.8 2.25 1.55 5.1 2.8 3.15 1.4 4.3 1.15t3.3-2.3l4.1-4.35q8.3-9.2 12.55-12 2.4-1.6 2.55-1.3.15.35-1.9 2.05-3.95 3.25-12.2 12.35l-5.25 5.8q-1.65 1.8-2.4 1.85-2.1.2-5.8-1.85m18.9-45Q67.3 37.8 74.1 45.6q1 1.2 1.15 2.2.1 1-.95-.2-6.85-7.7-19.95-13.4-12.8-5.5-24.45-6.05l-1.3-.95q-.95-.95-.65-.95 11.95.05 25.65 5.8m35.35-13.9q14.65 6.9 22.5 17.3 1.15 1.5.95 2.2-.15.65-1.3-.85-7.55-9.9-23.7-17.25-17.4-7.9-33.7-7.25-.3 0 1.5-.7 1.85-.7 2.4-.7 16 .05 31.35 7.25m33.5 1.5q-1.55-.85 2.1.65 3.05 1.2 4.8 2.75 4.6 4 8.2 9.35 3.25 4.8 4.45 8.75.8 2.6.4 3.55-.4.9-1.15-1.6-1.8-6.3-6.9-12.75-5.25-6.65-11.9-10.7M141.2 48.1q.45-1 .8-1.05.35 0 .05 1.05-.5 1.9-1.6 3.95-.3.5-1 .4-.75-.1-.3-.75 1.1-1.4 2.05-3.6M87.55 61.75q3.4 4.7 3.6 10.65.3 7.85-4.6 13.3Q81.8 91 74.9 91.05q-7.2.05-12.5-5.2-5.45-5.35-5.65-12.95l2.2-1.95q-.55 1.7 0 4.55.6 3.25 2.4 6.15 4.7 7.7 13.55 7.7 6.15 0 10.6-4.85 4.5-4.95 4.3-12.05-.2-5.45-3.6-10.05-3.45-4.55-8.35-6l-7.1 4.65 8-5.65q5.3 1.55 8.8 6.35m35.7-14.2h.6l6.5 1.1q1.95 3.05 2.8 7 1.25 6.1.2 11.6-1.1 5.9-4.3 6.8-3.95 1.1-7.35-3.55-3.1-4.3-4.25-11.1-1.25-7.5.05-12.1l3.1.05.25.05-2.05.3q-1.2 4.35 0 11.45.75 4.35 2.45 7.7 1.7 3.3 3.85 4.7 1.75 1.15 3.55.6Q131 71.5 132 66.5q.95-5-.2-10.6-.8-3.65-2.65-6.55-.65-.55-3.2-1.2l-2.25-.55-.45-.05"/><path fill="#0d131a" d="M75.4 72.6q0-.4.3-.75.3-.3.7-.3.4 0 .75.3l.3.75-.3.7q-.35.3-.75.3t-.7-.3q-.3-.3-.3-.7m49.9-14.2q0-.9.85-.9l.6.25.25.65-.25.6-.6.25q-.85 0-.85-.85m-106 24.1q.35-.6 1.1.25.7.9.25 1.75-9.35 16.95-10.4 19.85-.75 2 .85 3.9 1.7 1.9 3.95.85 3.05-1.45 16.75-10 .5-.35 1.15.45.6.8.15 1.1l-8.95 5.25q-6.55 3.65-8.45 4.45-3.2 1.35-5.6-1.05-2.4-2.35-1.15-5.4l4.8-10.3 5.55-11.1m26.95-45.6q1.75.1 1.85.65.15.55-1.6.8-5.8.75-25.65-17l-4.25-3.7q-2.6-2.05-5.55.5-2.9 2.6-1.25 5.3.8 1.45 5.05 6.95l9.65 13.2q4 5.9 3.95 8.1-.05 2.1-.75 2.35-.7.2-1-1.85-.4-2.85-4.95-9.6L13.5 31.25 8.35 24.2q-2.3-3.7 1.4-7.25 3.75-3.55 7.4-.75L21.5 20q6.85 6.2 12.6 10.45 8.55 6.3 12.15 6.45m65.85 3.75q.15-1.1.5-1.1.4 0 .35 1.75-.1 3.55-.65 5.35l-.7.25q-.65-.05-.6-.3l1.1-5.95m-36.3 11.2q-.1-1.35.35-1.6.5-.2.65 1.5l.15 4.35q-.05 1.15-.7 1.35-.7.2-.65-.95l.2-4.65"/></svg>