<svg xmlns="http://www.w3.org/2000/svg" width="348" height="342" viewBox="-0.25 -2.3 347.6 342.4"><path fill="#b4b4b5" d="M173.4 114.45q7.55 12.25 4.65 21.6-1.6 5.3-5.95 12.25-4.8 7.65-6.05 10.8-5.8-4.7-8.65-9.75-2.4-4.3-4.35-12.05l-1.35-10.5q-1.15-9.25-3.05-15.65-6.1-20.7-22.1-22.25 8.45-.45 17.2 1.9 8.05 2.15 12.85 5.6l1 1.05q9.4 6.55 15.8 17"/><path fill="#888" d="M167.2 192.9q2.65-3.2 3.25-7.5 5.6 8.6 7.15 12.7 3.15 8.4 1.75 18.9-1.45 10.55-11.9 18.65-5.8 4.55-17.35 11.3 1-3.15.4-7.6l-1.75-8.35q-2.55-11.4.3-18.65 1.95-4.95 5.6-8.75 2.05-2.15 6.65-5.55 4.2-3.15 5.9-5.15"/><path fill="#a499c9" d="M114 56.25q-4.45 8.35-6.95 11.25-4.35 5.05-9.9 5.2l-5.6-4.1q-9.55-6.9-13.6-7.2-3.8-.3-1.6 5.3-5.3-6.6-37.95-53.6-4.1-5.9-.8-9.65 3.4-3.8 10.25-.6 6.4 3 28.9 16.75Q97.9 32.5 107.6 39.1q5.95 4 6.4 17.15"/><path fill="#b4b4b5" d="M76.35 66.7q-2.2-5.6 1.6-5.3 4.05.3 13.6 7.2l45.1 31.6q6.35 6.45 7.6 19.2l.55 10.65q.2 6.55.75 9.95-5.3-3.05-11.7-5.1-6.7-2.15-13.05-2.7-3.2-4.3-39.05-56.15-3.95-5.65-5.4-9.35"/><path fill="#8e84ae" d="M135.5 39.55q7.05-5.9 17.4-5.15 4.65 2.3 8.7 5.55-4.55 8.1-6.65 29.15-2.1 21.55 1.65 27.3-4.8-3.45-12.85-5.6-8.75-2.35-17.2-1.9l-5.35.65-11.9-8.35q4.9-2.75 9.1-11.3 4.55-10.75 7.15-16.2 4.6-9.7 9.95-14.15"/><path fill="#a499c9" d="M141.65 30.7q1.85.15 4.65 1.05 3.25 1 6.6 2.65-10.35-.75-17.4 5.15-5.35 4.45-9.95 14.15-2.6 5.45-7.15 16.2-4.2 8.55-9.1 11.3l-11.85-8.5q5.55-.15 9.75-5.2 2.25-2.65 6.8-11.25 7.75-14.45 10.55-17.85 7.15-8.55 17.1-7.7"/><path fill="#b4b4b5" d="M63.45 146.9q2.6-3.5 12.8-9.95l16.15-10.3q4.4-3.2 7.8-9.15 2.4-4.25 3.9-9.1l3.5 5.1q-1.2 10.3-17.9 22.4L77.6 144q-6.1 3.9-7.1 5.15-5 6.3-6.8 14.25-2.05 8.85 1.55 13.8-.65 3.85-.65 8.25 0 8.35 2.15 15.95-4.9 9.15-6.05 12.6-2.9 8.4-.4 15.3 1.6 4.35 8.45 8.5 6.8 4.1 8 7.7.7 2.15.75 6.85l.05 8.5q.35 10.9 5.35 14-6.2 2-9.55-2.25-4.55-5.9-2.55-22.95.4-3.1-6.65-8.6l-8.45-6q-1.95-1.6-3.5-7.85-1.5-5.85-1.25-9.25.2-2.4 3.95-8.15l6.25-9.9q2.1-3.9-1.45-15.3-4.35-11.75-4.95-14.4-.85-3.9 1.75-10.7 2.5-6.65 6.95-12.6"/><path fill="#888" d="M65.25 177.2q-3.6-4.95-1.55-13.8 1.8-7.95 6.8-14.25 1-1.25 7.1-5.15l12.1-8.1q16.7-12.1 17.9-22.4 9.65 13.95 13.2 18.7l-3.7-.15q-18.4 0-33.35 12.65-15.45 13-18.5 32.5"/><path fill="#b4b4b5" d="M164.4 170.05q.25 4.2 2.05 8.3 1.25 2.85 4 7.05-.6 4.3-3.25 7.5-1.7 2-5.9 5.15-4.6 3.4-6.65 5.55-3.65 3.8-5.6 8.75-2.85 7.25-.3 18.65l1.75 8.35q.6 4.45-.4 7.6l-1.8 1.4q-5.1 4.2-6.65 11.05-9.85 1.25-18.9 3.5-11.95 3-14 6.1-3.15 4.8-5.8 11.8-2.65 6.8-1.75 7.45l.15.1q-2.15.1-3.4-.6-1.35-.75-1.2-2.15.85-7.75 3.5-14.95 3.05-8.3 6.5-9.55 3.4-1.15 18.7-5.55 13.85-4.45 14.8-7.7 2.8-9.35 2-15.35-1.95-9.05-2-12.55-.1-5.3 5-12.75 1.55-1.6 2.65-3.55 6.6-7 9.3-10.55 4.7-6.1 5.05-12.5.5-9.6-2.25-16.1-2.55-5.95-10.05-14.1-3.3-3.5-4.4-10.4-.55-3.4-.75-9.95l-.55-10.65q-1.25-12.75-7.6-19.2L121.2 89.55l5.35-.65q16 1.55 22.1 22.25 1.9 6.4 3.05 15.65l1.35 10.5q1.95 7.75 4.35 12.05 2.85 5.05 8.65 9.75-2.05 5.2-1.65 10.95"/><path fill="#a499c9" d="M248.9 184.1l5.15-2.25q1.4-4.75 1.35-11.5-.05-5.85-1.15-11.85l10.25-5.15q1.55 7.05 2.8 18.65 1.45 13.9.5 19.7 3.65 4.4 3.75 9.55.05 3.5-1.85 8.85l-21.35-8.9q1.05-11.05.55-17.1"/><path fill="#8e84ae" d="M255.25 235.25q-2.3 4.6-4.9 11.35-2.65 7-3.15 10-1.95-1.2-4.95-2.2-3.05-1-5.8-1.35v-.3l-.3-.65-.7-3.95q-.6-2.75-.45-4.4.15-1.3 2.15-4.65 2.05-3.35 2.35-6.4l15.75 2.55"/><path fill="#a499c9" d="M249.2 258.35q1.1 1.9-5.45 11.9-6.65 10.2-9.75 9.95-3.9-.25-10.4-5.8 4.2-4.35 8.55-11.75 4.2-7.1 4.3-9.6 2.75.35 5.8 1.35 3 1 4.95 2.2 1.5.95 2 1.75m3.15-134.55q5.85 2.15 11.6 12 5.4 9.35 4.85 14.4-.05.75-4.3 3.15l-10.25 5.15q-1-5.95-2.5-9.5l-3.1-2.4q-2.85-2.1-4.45-3.85l-3.8-11.5q9.15-7.1 11.95-7.45"/><path fill="#a499c9" d="M336.4 47.5q3-.3 5.45 1.45 2.25 1.65 3.25 4.45 2.25 6.65-3.8 10.8-17.8 12.15-45.7 27.75-27.6 15.45-38.3 19.3-3.7 1.35-8-.4-3.45-1.4-7.75-4.95-6.7 2.6-11.75 9.2 2.95.85 4.8 1.95 1.85 1.15 2.2 2.4l3.6 11.8 3.8 11.5q1.6 1.75 4.45 3.85l3.1 2.4q1.5 3.55 2.5 9.5 1.1 6 1.15 11.85.05 6.75-1.35 11.5l-5.15 2.25q.5 6.05-.55 17.1l21.35 8.9q27.2 11.35 28.8 12.35 2.05 1.25 2.75 4.45.65 3.05-.2 6.4-2.05 8.2-9 7.6l-36.8-5.65-15.75-2.55q-.3 3.05-2.35 6.4-2 3.35-2.15 4.65-.15 1.65.45 4.4l.7 3.95-.05.9.35.05q-.1 2.5-4.3 9.6-4.35 7.4-8.55 11.75-3.45 3.7-5.5 3.5-1.75-.2-3.7-1.05-2.55 1.5-7.45 5.5-5.1 4.15-7.7 6.9 2.55 8.15 10.45 22.45 4.05 7.35 8.8 15.4 1.15 2.3-.4 4.9-1.4 2.4-4.4 4.05-7.4 4.05-12.2-.5-6.3-5.95-19.7-20-9.25-9.65-13.55-12.6-4.85.65-10.85 4.05-5.85 3.35-9.05 7.2-4 4.8-19.15 8.3-12.95 2.95-20.4 2.65l-1.25-.35q-1.2-.6-1.7-2.6-.35-1.45-.5-4.35-.1-3.1 3.55-10.8 3.4-7.15 6.9-11.95 1.85-2.5 13.6-7.3l13.75-5.7q2.25-1.35 3.95-7.85 1.2-4.55 2.7-14.1.45-2.8 6.15-6.25l12.65-7q18.65-10.95 21.6-25.65 3.65-18.2-5.7-34.4L177.35 176q-3.6-5.4-3.95-8.4-.4-3.8 1.9-7.9 1.3-2.4 5.4-7.45 8.35-10.45 8.75-18.1.55-12.15-8.05-24-2.45-3.35-8-9.65-5.45-6.2-7.85-9.5-1.9-2.6-1.75-10.95.1-7.75 1.85-17.25 1.8-9.75 4.45-16.55 2.95-7.55 5.95-8.8l2.1.5q9.95 2.9 18.15 8.15 9.35 5.9 9.9 11.15.8 7.3.8 16.9.95 7.15 7.5 13.4 8.4-2.15 17.05-5.9 1.1-6.05 3.75-10.95 3.1-5.7 6.9-6.9 10.1-3.1 50.05-9.6 34.2-5.6 44.15-6.7M21.75 294.6q-2.8-5.45.6-8.85 10.75-11.45 15.25-15.3l9.45 6.55q4.8 3.5 5.65 6.65l.4 1.8q-3.6 2.35-13 7.6-9.65 5.45-10.9 5.75-4.7 1.25-7.45-4.2"/><path fill="#8e84ae" d="M53.1 109.55q-.1 2.05.45 15.5.4 9.3-1 13.6l-3.85-3.55q-2.25-2.15-2.65-3.15-1.1-2.95.45-9.4 1.85-7.75 6.6-13"/><path fill="#a499c9" d="M50.45 142.6l-.95.9q-9.5 7.45-13.6 11.35-6.2 5.95-9.75 12L15.4 158.7Q6.6 152 3.85 149q-4.05-4.4-2-9.95 2.05-5.6 8.05-5 3 .35 18.65 3.65l21.9 4.9"/><path fill="#a499c9" d="M83.85 79.05l7.75 11.2Q78.95 91.6 72.3 95.1q-10 5.25-11.65 16.8-.5 3.55.1 18.85.4 10.95-3.05 16.45-.95 1.5-5.6 5.4-5.65 4.75-8.8 8.1-11.9 12.8-13.8 30.35-.65 5.9 1.2 10.9 1.15 3.15 4.4 8.05 3.4 5.2 4.5 7.9 2 4.8 1.65 10.25-.2 2.9-1.35 6.6L37.8 241q-2.4 7.7-.05 14.35 2.25 6.45 11.45 13.6 9.9 7.7 11.3 10.25 1.85 3.4 4 16.3 3.1 12.3 10.55 16.85l-5.8.3q-3.55-.4-6.25-2.15-5.15-3.3-7.35-11.4l-2.55-13.65-.4-1.8q-.85-3.15-5.65-6.65l-9.45-6.55q-7-5.55-9.1-12-2.7-8.5-.1-16.45 3.95-8.85 5.3-14.5.9-3.75-1.35-7.6-1.25-2-5.6-6.85-4.2-4.55-5.9-7.75-2.65-4.9-2.25-10.3.65-9.15 2.55-16.1 1.8-6.65 5-12.05 3.55-6.05 9.75-12 4.1-3.9 13.6-11.35l.95-.9q1.4-1.55 2.1-3.95 1.4-4.3 1-13.6-.55-13.45-.45-15.5l.05-1.75q.9-11.85 10.2-19.35 7.35-5.95 20.5-9.4"/><path fill="#888" d="M117.65 282.2q-10.1 3.35-11.55 5.7l-1.25 2.15-1.5-.6q-1-.45-2-1.1l-.15-.1q-.9-.65 1.75-7.45 2.65-7 5.8-11.8 2.05-3.1 14-6.1 9.05-2.25 18.9-3.5l-2 9.75q-1.7 5.1-6.75 7.6-2.05 1-15.25 5.45"/><path fill="#a499c9" d="M164.05 37.4q5.25-1.45 12 .05-3 1.25-5.95 8.8-2.65 6.8-4.45 16.55-1.75 9.5-1.85 17.25-.15 8.35 1.75 10.95 2.4 3.3 7.85 9.5 5.55 6.3 8 9.65 8.6 11.85 8.05 24-.4 7.65-8.75 18.1-4.1 5.05-5.4 7.45-2.3 4.1-1.9 7.9.35 3 3.95 8.4l7.15 10.85q9.35 16.2 5.7 34.4-2.95 14.7-21.6 25.65l-12.65 7q-5.7 3.45-6.15 6.25-1.5 9.55-2.7 14.1-1.7 6.5-3.95 7.85l-13.75 5.7q-11.75 4.8-13.6 7.3-3.5 4.8-6.9 11.95-3.65 7.7-3.55 10.8.15 2.9.5 4.35.5 2 1.7 2.6-4.15.7-7.6-.55-3.15-1.1-4.65-3.3-2.05-2.9.25-10.75 2.45-8.55 9.3-20.15l1.25-2.15q1.45-2.35 11.55-5.7 13.2-4.45 15.25-5.45 5.05-2.5 6.75-7.6l2-9.75q1.55-6.85 6.65-11.05l1.8-1.4q11.55-6.75 17.35-11.3 10.45-8.1 11.9-18.65 1.4-10.5-1.75-18.9-1.55-4.1-7.15-12.7-2.75-4.2-4-7.05-1.8-4.1-2.05-8.3-.4-5.75 1.65-10.95 1.25-3.15 6.05-10.8 4.35-6.95 5.95-12.25 2.9-9.35-4.65-21.6-6.4-10.45-15.8-17l-1-1.05q-3.75-5.75-1.65-27.3 2.1-21.05 6.65-29.15 1.25-2.25 2.45-2.55"/><path fill="#8e84ae" d="M57.7 147.2q3.45-5.5 3.05-16.45-.6-15.3-.1-18.85 1.65-11.55 11.65-16.8 6.65-3.5 19.3-4.85l12.5 18.15q-1.5 4.85-3.9 9.1-3.4 5.95-7.8 9.15l-16.15 10.3q-10.2 6.45-12.8 9.95-4.45 5.95-6.95 12.6-2.6 6.8-1.75 10.7.6 2.65 4.95 14.4 3.55 11.4 1.45 15.3l-6.25 9.9q-3.75 5.75-3.95 8.15-.25 3.4 1.25 9.25 1.55 6.25 3.5 7.85l8.45 6q7.05 5.5 6.65 8.6-2 17.05 2.55 22.95 3.35 4.25 9.55 2.25l2.4-1q2.95-1.5 7.7-3.35 4.65-1.8 8.55-3-1.75 3.8-3.1 8.95-1.2 4.75-1.7 9.15-.15 1.4 1.2 2.15 1.25.7 3.4.6 1 .65 2 1.1-10.7 4.5-17.65 11.9-3.7 4-7.4 9.6-.65.85-3.25 1.4-7.45-4.55-10.55-16.85-2.15-12.9-4-16.3-1.4-2.55-11.3-10.25-9.2-7.15-11.45-13.6-2.35-6.65.05-14.35l2.1-6.25q1.15-3.7 1.35-6.6.35-5.45-1.65-10.25-1.1-2.7-4.5-7.9-3.25-4.9-4.4-8.05-1.85-5-1.2-10.9 1.9-17.55 13.8-30.35 3.15-3.35 8.8-8.1 4.65-3.9 5.6-5.4"/><path fill="#888" d="M85.45 228.75q13.75 10.2 31.65 10.2 13.35 0 25.15-6.45.8 6-2 15.35-.95 3.25-14.8 7.7-15.3 4.4-18.7 5.55-2.7 1-5.2 6.4-3.9 1.2-8.55 3-4.75 1.85-7.7 3.35l-2.4 1q-5-3.1-5.35-14l-.05-8.5q-.05-4.7-.75-6.85-1.2-3.6-8-7.7-6.85-4.15-8.45-8.5-2.5-6.9.4-15.3 1.15-3.45 6.05-12.6 4.8 17.05 18.7 27.35"/><path fill="#0d131a" d="M63.95 185.75q0-3.95.65-8.25 3.05-19.55 18.5-32.75 15-12.9 33.35-12.9l3.75.15q6.35.5 13 2.65 6.45 2.05 11.7 5.15 1.2 7.4 4.4 10.95 7.55 8.15 10.05 14.05 2.75 6.5 2.25 16.1-.35 6.5-5.4 13.25-3.1 4.05-11.6 13.35-5.5 6.5-4.7 14.85.4 4.45 2.2 9.85-12.9 7.05-25.65 7.05-17.85 0-31.6-10.2-13.9-10.3-18.7-27.35-2.2-7.5-2.2-15.95"/><path fill="#888" d="M168.95 108.25q5.65 6.9 8.15 13.7 2.9 7.85.95 14.1-1.6 5.3-5.95 12.25-4.8 7.65-6.05 10.8-5.8-4.7-8.65-9.75-2.4-4.3-4.35-12.05l-.75-5.15-.95-7.8q10.9-5.65 17.6-16.1"/><path fill="#8e84ae" d="M91.25 46.2q8.95-6.95 17.9-5.85 4.5 4.55 4.85 15.9-4.5 8.45-6.9 11.3-4.3 5.05-9.8 5.2l-5.75-4.15q-6.25-4.6-10.4-6.3 1.1-9.15 10.1-16.1"/><path fill="#0d131a" d="M80.25 183.55q4.55 8.6 8.55 12.9-1.2 4.8-6.6 5.8-6.05 1.1-10.55-5.6Q68 191.2 69 181.7q1-9.3 5.4-13.7 1 6.25 5.85 15.55"/><path fill="#888" d="M94.4 94.3l.2.05q9.65 2.65 15.8 2.75 9.7.15 14.4-5.15l11.85 8.25q6.35 6.45 7.6 19.2l.55 10.65q.2 6.55.75 9.95-5.3-3.05-11.7-5.1-6.7-2.15-13.05-2.7L94.4 94.3"/><path fill="#fff" d="M140.25 216.7q-.4 2.4-.1 4.55-1.9 3.8-6.95 6.6-5.25 2.95-11.95 3.65-16.55 1.75-30.25-10.25 12.7 2.95 28.9.8 13.4-1.8 20.35-5.35m8.2-36.55q2.85 6.6.2 15.45-2.55 8.6-7.75 11.3-7.1 3.7-15.65 1.2-8.65-2.55-12.65-9.65 6.2-1.25 18.1-7.35 11.8-6.05 17.75-10.95M74.4 168q1 6.25 5.85 15.55 4.55 8.6 8.55 12.9-1.2 4.8-6.6 5.8-6.05 1.1-10.55-5.6Q68 191.2 69 181.7q1-9.3 5.4-13.7"/><path fill="#8e84ae" d="M264.5 153.35q1.8 8.45 3.1 17.85 2.2 16.05.25 19.65-1.35 2.55-9.25 4.6-6.05 1.55-9.65 1.7v-12l6.1-3.65.5-9.3q.15-10.05-1.3-13.7l10.25-5.15m-150 143.5l4.25-.4q5.6-.55 11.45-1.8 19.4-4 38.55-14.2 4.6 4 7.5 5.5 4.25 2.15 7.35.7 10.75-5.1 13.95-15.15 5.85 0 8.2-1.4 1.85 2.6 5.9 5.15l2.75 1.6q-2.55 1.5-7.45 5.5-5.1 4.15-7.7 6.9 1.55 5.05 5.75 13.65-6.9 14.45-6.75 29.5l-17.55-18q-8.3-8.6-12.45-11.45-4.85.65-10.85 4.05-5.85 3.35-9.05 7.2-4 4.8-19.15 8.3-12.95 2.95-20.4 2.65l-1.25-.35q-1.2-.6-1.7-2.6-.35-1.45-.5-4.35-.1-3.2 2.9-9.95 2.85-6.45 6.25-11.05M226.4 83.7l5.15-2.05q.5-2.8 1.45-5.55 2.2 6 6.7 11 4.4 4.85 9.65 7.25 12 6.2 27.7 7.6-13.9 7.25-19.75 9.3-3.7 1.35-8-.4-3.45-1.4-7.75-4.95-6.25 2.35-11.15 8.45l-1.15-15.3q-.9-8.9-2.85-15.35M21.75 294.65q7.55-3.35 12.4-8.65 5.25-5.85 6.55-13.3l7.6 5.25q3.65 2.9 4.4 5.7l.4 1.8q-3.6 2.35-13 7.6-9.65 5.45-10.9 5.75-2.25.6-4.35-.65-1.9-1.2-3.1-3.5m11.4-137.05q-4.2 4.5-7 9.25l-8.55-6.5q-7.4-5.55-10.9-8.6 17.05 1.3 35.6-2.5-5.6 4.55-9.15 8.35"/><path fill="#8a969d" d="M90.3 145.25q2.15-2.45 6.3-4.4 4.05-1.9 7.95-2 3.7-.15 4.5 1.35.8 1.55-1.15 3.85-2.2 2.6-6.95 4.75-3.65 1.7-7.25 1.85-3.5.15-4.4-1.2-1.15-1.7 1-4.2"/><path fill="#8e84ae" d="M295.5 241.05q-2.35.6-39.55-5l-36.7-5.75-1.9-4.45q-1.95-5.3-2.1-9.4 17.3 4.7 46.2 11.1 38.6 8.55 39.45 6l-1.3 3.4q-1.75 3.55-4.1 4.1m-51.7-98.45l-1.15-4.4 5.05 1.3q7.1.7 17.45-2.05l2.55 5.6q2.35 5.9 1.3 7.55-1.1 1.65-8.05 4.95l-6.7 2.95q-.9-8.1-2.05-9.25l-4.65-3.75-3.75-2.9m11.25 61.4l6.7 1.15q7.3.7 10.3-1.7l-1.95 6.45-15.05-5.9m-19.75 52.3l2.9 4.9q3.65 5.35 7.6 7.75l-4.95 6.1q-5.25 6.15-7.05 6.25-1.8.1-6-3.1l-3.85-3.25 5.55-7.9q5.6-8.35 5.8-10.75m-54.95 30.95q-2.3-.6-.8-4.55 1.35-3.6 5-8 3.7-4.55 7.3-6.8 4.05-2.55 6.05-.8.85.7-.65 4.25-1.45 3.55-4.15 7.35-7.1 10-12.75 8.55m37.9-145.15q1.3-4.05 2.9-3.75 3.4.7 4.6 13.25 1.2 12.7-2.7 14.55-6.45-1.25-6.15-14.9.15-5.25 1.35-9.15"/><path fill="#0d131a" d="M63 185.9q0-23.8 17-39.75 15.95-14.9 37.1-14.9 14.75 0 27.55 7.7l.05 1.65q-5.9-3.65-13.4-5.75-7.3-2-14.2-2-19.8 0-35.2 14.5-16.5 15.5-16.5 38.1 0 22.55 14.8 37.6 14.8 15.1 36.9 15.1 13.55 0 25.3-6.65v1.8q-12.35 6.7-25.3 6.7-23.05 0-38.5-15.25Q63 209.35 63 185.9"/><path fill="#0d131a" d="M120 90.2L91.1 69.8q-11.65-8.5-13.7-6.25-1.95 2.1 5 12.05l17.85 25.8q18.45 26.7 21.65 31l-3.45-.4-21-30.4-17-24.95q-8.2-11.75-4.5-14.7 3.7-2.95 16.1 6Q103 75.9 134.7 97.6q.4.9 2.45 3.3l2.75 3.1L120 90.2"/><path fill="#0d131a" d="M69.9 148.4q.7-.9 3.1-2.4l5.45-3.35q27.1-16.75 28.1-30.15 0-.35.85.35.8.7.8 1.05-.6 8.45-10.6 17.3-5.7 5-18.3 12.8-6.25 3.9-7.65 5.65-5 6.35-7.05 13.6-2.2 8 .75 12.5.15.15-.3 1.5-.4 1.3-.6 1.05-4.3-5.35-2.3-14.25 1.8-8 7.75-15.65"/><path fill="#0d131a" d="M71.15 141.3q-5.25 3.6-7.1 6.05-4.4 5.9-6.85 12.45-2.5 6.55-1.7 10.2.4 1.7 4.85 13.9 3.75 12.2 1.5 16.4l-4.6 7.35q-2.6 3.85-3.65 5.75-1.7 3.05-1.85 4.6-.25 3.3 1.2 8.95 1.55 6 3.3 7.45l8.45 6.2q7.3 5.95 6.9 9.15-1.3 10.9.2 17.2 1.1 4.8 3.7 6.6 2.15 1.45 5.1 1.05 2.15-.3 4.35-1.5 7.05-3.6 16-5.9.3-.05.1.95l-.35 1.05q-5.1 1.35-15.35 6.6-2.5 1.35-5 1.65-3.5.45-6.05-1.3-3.45-2.4-4.65-9.35-1.15-6.8.05-17.1.35-2.9-7.05-8.3l-8.6-5.65q-2.15-1.8-3.75-8.15-1.45-5.8-1.15-9.2.15-1.8 2.25-5.25l4.25-6.4 4.5-7.2q2.05-3.85-1.85-14.85-4.7-11.45-5.3-14.15-.85-4.05 1.75-11.5 2.65-7.6 7.25-13.7 1.8-2.4 7.7-5.8l10.95-6.25q9.75-6 13.7-10.1 5.9-6.2 8.55-16.1.1-.3.9.65.85.9.75 1.2-2.75 10.15-8.8 15.95-2.95 2.8-14.25 9.75-7.3 4.5-10.35 6.65"/><path fill="#0d131a" d="M84.75 274q.3.1-1.05.55l-1.55.35q-4.15-2.25-5.3-8-.65-3.3-.45-11 .2-7.85-.75-10.35-1.3-3.45-7-6.9-4.05-2.45-5.5-3.65-2.9-2.4-4-5.45-2.5-7 .1-15.3 1.45-4.5 6.35-13.55l.8 3q-3.85 7.1-5.15 11.65-2.15 7.45.1 13.65 1 2.8 3.3 4.95l4.8 3.35q6.35 3.8 7.8 7.2 1.15 2.7.95 10.95-.15 6.9.95 10.95 1.5 5.8 5.6 7.6M121.4 90.3l-1-1.25-1.2-1q9.85-2 21.2.5 10.05 2.2 15.7 6.4.45.4.85 1.85.4 1.5.1 1.25-4.75-4.2-14.5-6.7-11.1-2.8-21.15-1.05m12 8.15q-3.3-2.45-2.6-3.15.7-.7 4 1.75 6.9 5.1 9.15 14.5 1.2 5 1.6 17.05.25 8.3.9 12 1.1 6.05 4.05 9.3 7.55 8.2 10.1 13.95 3 6.8 2.45 16.8-.3 5.45-3.4 10.4-1.9 3.05-6.9 8.4-7.45 8.1-9.95 13.6-3.1 6.9-.95 14.1 1.3 4.35 1.4 7.55.1 5.45-2.2 13.35-1.05 3.6-15.85 8.45l-18.15 5.35q-3.05 1.1-5.95 8.7-2.65 7.15-3.55 15.15-.1.85.85 1.4l2.45.45 1.15.7q.8.7.45.75-2.85.45-4.85-.45-2.2-.95-2-2.95.95-8.4 3.3-15.45 2.95-8.9 6.7-10.2l17.5-4.8q15.3-4.6 16.15-7.55 2.2-7.55 1.95-13-.15-3-1.45-7.4-2.45-8.15.35-14.15 2.15-4.6 11.45-14.65 4.15-4.45 6.1-8.05 2.4-4.5 2.7-9.8.55-9.65-2.25-16.2-2.5-5.8-9.7-13.6-3.15-3.45-4.1-9.75-.3-2.25-.65-12.35-.35-11.7-1.6-16.6-2.15-8.8-8.65-13.6"/><path fill="#0d131a" d="M166.8 157.6l-.6 1.15-.5 1.1q-7.75-6.2-11.25-14.55-2.65-6.3-3.05-14.55-.8-15.85-5.45-25.85-7.15-15.35-22.75-15.55-.35 0 1.15-.5l1.85-.5q13.75.6 20.3 12.7 5.1 9.5 7.05 29.55.8 8.1 3 13.7 3.35 8.55 10.25 13.3m0 34.5q2.75-3.45 3-8.3l1.8 3.15q-.8 4.1-3.5 6.95-1.2 1.35-5.75 4.7-9.7 7.15-12.2 14.7-2.45 7.25.35 19.45 1.85 8 .65 13.45-1.2-.1-2 1.15 1.05-2.85.7-6.7-.25-2.35-1.45-7.55-3.05-13.25-1.15-19.65 2.2-7.65 13.35-15.9 4.55-3.3 6.2-5.45m-57.4 77.35q-2.8 4.3-5.3 10.55-2.3 5.65-2.3 7.5v.15q1.6 1.05 3.5 1.7l-1.05 1.35q-2.4-1-3.5-1.85-1.55-1.1 1.5-9.25 2.75-7.35 5.6-11.7 3.6-5.45 33.65-9.3v1.6q-10.55 1.35-19.6 3.75-10.75 2.8-12.5 5.5"/><path fill="#0d131a" d="M196.2 46.95q-8.2-5.3-18.3-8.2-7.55-2.2-13.65-.6-1.5.4-3.3 5.1-2 5.35-3.6 14.25-2.45 13.8-2.25 25.6.2 11.85 2.95 13.7 9.7 6.8 16.25 17.35 7.75 12.5 4.8 22.1-1.1 3.6-3.3 7.45l-3.9 6.4q-6.75 10.6-6.65 18.45.1 7.65 6.85 17.9 5.2 7.85 6.85 12.35 3.1 8.35 1.75 18.4-1.2 8.95-8.8 16-4.05 3.75-14.35 9.95-8.4 5.1-11 8.15-3.55 4.15-4.9 12.4-.9 5.4-2.05 7.75-1.9 4.05-6.35 6.25-2.75 1.35-15.3 5.45-10 3.3-11.15 5.15-7.25 11.8-9.8 20.85-2.25 8-.2 10.95 1.3 1.85 3.3 2.9 3.05 1.65 7.15 1.05l1.15 1.5 1.3 1.3q-5.15 1.1-10.3-1.5-3.85-1.95-5.35-4.2-2.2-3.15.05-11.3 2.65-9.5 10.65-22.55 1.65-2.65 12.85-6.3l14.9-5q3.95-1.9 5.55-5.6.8-1.9 1.7-7.3 1.55-9.4 4.55-13.15 2.45-3.15 12.05-8.9 10.25-6.2 13.7-9.4 6.8-6.35 7.95-14.8 1.35-9.75-1.3-17.5-1.6-4.65-6.45-12.05-7.45-11.25-7.65-18.3-.2-7.75 7.4-19.75 4.35-6.85 6.5-14 2.7-8.8-4.6-20.8-6.35-10.5-15.7-17.05-3.6-2.5-3.5-15.9.1-11.05 2.4-24.25 3.6-20.8 8.15-21.95 6.45-1.75 15.15.75 10.1 3 18.3 7.8 10.95 6.45 11.65 13.05.25 2.3 0 5.6l-.35 4.8q.1 7.7.95 10.25 1.6 4.8 7.85 9.8l-3.25.35q-5.1-5-6.6-10.05-.95-3.2-1.05-10.35-.1-6.7-.5-10-.45-4.7-9.2-10.35"/><path fill="#0d131a" d="M169.7 43.25q1.2-2.75 2.75-4.25 1.15-1.15 2.85-1.75l1.25.25q1.1.3.75.35-1.25.15-2.9 2.05-1.7 1.95-2.95 4.75-4.35 9.85-6.2 25.9-1.9 16.1.95 20 2.05 2.8 7.8 9.45 8.8 9.95 11.8 15.05 5.45 9.25 4.95 19.15-.25 5.2-3.45 10.5l-6.25 8.4q-6.45 8.05-6.6 12.8-.1 4.35 5.4 12.35 7.9 11.45 10.25 17.25 5 12.3 2.25 25.95-2.1 10.6-12.25 18.9-5.1 4.15-17.95 11.05-5.8 3.1-7.85 4.55-3.4 2.35-3.7 4.3l-2.7 15.25q-1.7 7.2-4.1 8.6l-2.85 1.05q-2.95.95-4.75 1.65-7.95 2.9-11.75 4.45-6.75 2.7-8 4.35-3.55 4.8-6.9 11.95-3.5 7.4-3.4 10.25.1 3.35.65 4.8.6 1.7 2 1.75 7.05.3 19.95-2.6 15.15-3.4 19-8.05 3-3.65 8.65-7 5.8-3.5 10.85-4.4l3.15 2.3q-4.45-.45-11.35 3.1-6.65 3.4-10.1 7.55-4.2 5.1-19.55 8.95-13.25 3.3-20.6 2.95-2.55-.1-3.85-3.5-.9-2.35-1-5.6-.1-3.4 3.5-11.35 3.4-7.4 6.85-12.1 1.35-1.8 7.6-4.6 3.2-1.45 13.45-5.45l7.4-3.15q2.1-1.25 3.9-9l2.35-12.95q.4-2.5 3.6-4.95 2.15-1.6 8.15-4.85 12.2-6.55 17.1-10.6 9.5-7.8 11.55-17.95 2.65-13.3-1.85-25.15-2.4-6.3-9.65-16.8-5.95-8.65-6-12.85 0-5.15 7.25-14.2 4.1-5.05 5.8-8.15 2.65-4.85 2.9-9.85.45-9.55-4.55-18.4-3.05-5.45-11.1-14.65-5.8-6.65-7.9-9.55-3.3-4.5-1.15-21.65 2.05-16.45 6.55-26.6m69.95 88.25L236 119.65q-.25-.9-1.75-1.85-1.65-1.05-4.35-1.85 1.2-1.5 1.25-2.25l4.85 2.25q2 1.15 2.35 2.4l3.2 12.2q2.8 10.65 3.3 11.75.9.95 3.8 2.75 3.25 2 3.9 2.5 3.05 2.4 3.7 18.65.6 16.05-1.55 17.15-3.45 1.8-10.05 3.4l-5.9 1.3-3.1-.1q-.8-.7 1.5-1.25l6.15-1.7q6.75-2.05 10.05-3.7 1.6-5.5.95-15.4-.6-10.4-3.25-16.45l-3.2-2.5-4.25-3.65-.15-.15-3.8-11.65"/><path fill="#0d131a" d="M240.3 156.8q-1.95.75-2.75.4-.85-.4 1.1-1.1 3.2-1.2 7.4-3.9 3.65-2.35 5.2-3.85.25-.25.9.7.6.95.3 1.15l-5.7 3.75-6.45 2.85"/><path fill="#0d131a" d="M240.75 132.3q-.25.2-.4-.75-.15-.95.1-1.2l6.3-5.1q4.4-3.5 5.8-3.65 5.5 1.15 12.3 12.45 6.65 11.1 5.95 16.95-.15 1.45-7.8 5.1l-8.4 3.75-.4-2.2q13.25-6.6 13.85-7.6.6-4-4.3-12.95-5.45-9.85-11.5-12.45-1.35.25-6.55 4l-4.95 3.65m7.4 52.35l1.9-1q.95 10.35-.45 18.15l-2.05-.95q1-9.9.6-16.2"/><path fill="#0d131a" d="M267.2 192.2q-.25-.25-.15-.65.9-5.75-.55-19.4-1.2-11.4-2.75-18.5 1.45-.8 2.25-1.1 2 8.95 2.95 21.65 1 13.25-.3 17.3 4.15 4.5 4.7 8.7.55 4.25-2.3 10.4-1.7-1-2-1.05 1.8-5.15 1.7-8.5-.1-4.75-3.55-8.85"/><path fill="#0d131a" d="M267.35 191.05q.25-.2.75.45.45.65.2.85-4.05 2.9-13.15 4.55-1.9.3-2.9-.4-1.05-.65.8-1 10.7-1.8 14.3-4.45M199 88.45q-1.5-1.75-1.05-2.35.45-.65 1.95 1.1 2.4 2.8 14.8-.7 11.45-3.2 17.25-7.1l-.4 3.1q-8.9 3.75-16.4 5.8-13.1 3.6-16.15.15m-2.8 2.9q.3-2.1 1.3-2.5 1-.4.7 1.7-.55 4.6 1.75 9.2 2.3 4.65 7.9 10.1 1.9 1.9 1.1 1.95-.8.05-2.95-1.7-5.55-4.55-8.05-9.5-2.35-4.7-1.75-9.25m44.5 14.05q.25-.1 1.65.85t1.05 1q-2.95.35-6.7 2.75-4.95 3.15-8.2 8.3-1.3 2.1-1.7 1.35-.4-.75.9-2.85 5.2-8.15 13-11.4"/><path fill="#0d131a" d="M336.3 46.15q3-.35 5.7 1.65 2.55 1.9 3.75 5.05 1.1 3.05.4 6.35-.85 4.05-4.25 6.35-17.9 12.25-45.4 27.9-28.2 16.1-38.8 19.95-4.7 1.7-9.95-1.3-3.1-1.75-9.15-7.35-1.45-1.25-1.4-2.5l1.45.05q5.45 4.95 9 6.9 5.2 2.8 9.4 1.3 10.75-3.9 38.55-19.5 27.8-15.55 45.25-27.45 2.9-2 3.65-5.05.65-2.6-.25-5.1-.85-2.35-2.85-3.8-2.2-1.6-4.95-1.3-10.4 1.15-44.5 6.75-39.65 6.5-49.5 9.5-4.5 1.4-7.85 9.5-2.9 7.15-2.75 12.9.05 1.8-.75 1.85-.8 0-.85-1.8-.2-6.4 2.8-14.3 3.5-9.3 8.6-10.85 15.75-4.8 94.65-15.7m-131.75 89.7q-1-1.5-.6-2.1.45-.65 1.5.85 1.2 1.7 6.55 2.15l8.05.15q2.75.1 4.55 4.45 1.55 3.75 2.15 9.8.45 5.25-.55 10.2-1.2 5.95-3.9 6.35-5.1.75-7.3 1.55-4.6 1.6-6.4 4.95-.95 1.7-1.4 1.35-.45-.35.2-2.2 1.4-3.85 7.25-6.25 3.05-1.25 6.85-1.95 1.7-.3 2.6-3.4 1.1-3.8.5-10.5-1-11.6-5.7-11.8l-7.6-.6q-5.25-.85-6.75-3m13.5 66.85q1.6-1.8 2.85-1.85 1.25-.05-.8 2.1-3.3 3.45-3.9 8.65-.55 4.7 1.15 8.85 1.7 4.2.3 3.3-1.45-.9-2.6-4.05-1.95-5.15-.8-9.85.9-3.9 3.8-7.15m13.1-7.75q-3.35-1.7-2.1-2.6 1.3-.9 4.65.8l32.9 14.15q31.35 13.35 32.35 13.95 2.45 1.5 3.4 4.7 1.1 3.75-.45 8.5-1.4 4.25-3.7 6.25-2.5 2.1-6.25 1.75l-35.4-5.2L221.7 232q-4.25-.5-3.75-1.85.55-1.35 4.8-.85l34.4 5.4 34.95 5.4q5.65.5 7.95-6.1 1.1-3.35.55-6.5-.6-3.2-2.5-4.35-.9-.55-33.1-14l-33.85-14.2m-9.25 51.2q.15-.7 2.2.55l2.75 1.05 3.45.9 6.4 1.7q1.25.5 1.35 1.85.25 2.6-4.75 11.6-5.2 9.4-9.6 13.7l-3.15 2.45-2.3.35q-3.55-.4-7.05-3.25l-5.6-5.55q-1.45-1.55-1.25-2.55.2-1.05 1.65.5 3.05 3.2 5.5 4.9 3.35 2.35 6.65 2.75 1.4.15 4.15-2.5 4.3-4.1 9.05-12.1 4.5-7.6 4.3-9.65-.05-.8-5.75-2.4-4.6-1.15-6.35-2.4-1.8-1.25-1.65-1.9"/><path fill="#0d131a" d="M250.95 257.45q1.4 2.45-5.95 13.95-7.45 11.6-10.8 11.35-2.55-.2-6.55-3.15l-5.05-4.2q.45-.1.9-.65l.5-1.05q6.45 5.4 10.05 5.7 2.45.2 8.5-8.8 5.95-8.8 5.95-11.7v-.15q-.8-1.4-4.7-2.95-3.9-1.55-7.6-2l-.1-2.05q4.35.55 8.8 2.15 5.05 1.75 6.05 3.55"/><path fill="#0d131a" d="M237.4 240.15q-1.5 2.45-1.45 3.95 0 .45.95 4.5l.65 2.3q.3 1.15.05 2.05l-.95-.8-.55-.4-.55-1.3-.7-1.45q-.95-4.05-.95-4.95.05-1.95 1.85-4.8l1.8-2.95q1-1.9 1.2-3.85l2-.1q-.2 2.25-1.35 4.5l-2 3.3m16.95-4.9l1.6.4q-2.1 4.2-4.65 11.55-2.45 7-3 10.2l-2.3-1.5q.7-3.15 3.5-9.95 2.35-5.6 4.85-10.7M160.05 301q-2.35.25-2.1-.55.3-.75 2.65-1 4.65-.5 10.5 4.35 2.85 2.4 13.6 13.65 11.35 11.8 17.35 17.5 4.2 4 11.1.4 2.8-1.5 4.15-3.6 1.5-2.3.5-4.3l-2.85-5q-7.75-13.2-11.15-19.95-6.8-13.55-6.8-19.7 0-3 .9-2.85.9.15 1.15 3.55.45 5.75 7.4 18.75l11.1 19.2 3.15 5.65q1.25 2.5-.7 5.5-1.8 2.8-5.45 4.8-3.8 2.05-7.55 2.1-4.2.1-6.85-2.4l-9.25-9.35-7.85-8.35-13.1-13.55q-5.85-5.25-9.9-4.85"/><path fill="#0d131a" d="M199.7 290.9q-.9-1.65-.95-2.3 2.5-2.65 7.35-6.6 4.55-3.75 7.4-5.55l1.4 1.05q-2.35 1.3-7.6 5.95-5.3 4.65-7.6 7.45m-37.85-6.9q-1.7.95-1.65.3.05-.7 1.7-1.8 3.35-2.2 5.35-2.6 2.4-.45 4.3 1.2 6.05 5.25 9.7 5 6.65-.4 12.1-8.75 2.1-3.3 3.1-6.5.95-3.1.25-4.4-.95-1.75-3.9-4.8-3.45-3.6-4.3-5.15-1.85-3.35-.9-7.55.6-2.9 1.35-3.2.7-.3.2 2.9-.55 3.5 1.3 6.6.95 1.55 4.3 5.05 3 3 4.15 5.1 1 1.85-.15 5.65-1.15 3.75-3.8 7.65-6.5 9.55-13.75 10-2.45.15-5.95-2.2l-5.25-4.15q-2.05-1.75-8.15 1.65m19.25-33.7q1.9-.4 2.4.25t-1.4 1.05q-4.1.8-8.3 3.7-4.5 3.1-6.05 6.8-1.1 2.6-1.25 1.05-.15-1.55.85-3.45 1.8-3.3 5.25-5.75 3.8-2.7 8.5-3.65m14.95-112.25q1.15-1.8 2.05-1.85.9 0-.2 1.85-1.6 2.6-2.45 7.95-.9 5.6-.2 9.6.4 2.35-.15 2.1t-1.25-2.6q-1.15-3.9-.5-8.85.65-4.9 2.7-8.2M141.2 28.95q7.85-.4 20.75 9.95l-.95 1.6q-5.05-4.1-11.1-6.75-5.4-2.35-8.2-2.25-10.15.5-16.55 7.4-3.8 4.1-8.9 14.75-4.85 10.2-7.05 13.05-4.4 5.75-11.4 7.05-.35.1-.9-.7-.55-.8-.2-.85 6.55-.95 10.95-6.65 2.35-3.1 7.15-13.15 5.55-11.7 8.9-15.45 6.55-7.45 17.5-8"/><path fill="#0d131a" d="M151.8 33.65q.45 0 1.5.7l.65.65q-12.45-1.15-20.35 7.55-4.9 5.4-10.8 19.35l-5.2 11.45q-3.1 5.65-6.85 8.1l-1.75-1q3.75-2.15 6.9-7.8 1.9-3.4 5.15-11.65Q127 46.25 133.3 40.15q7.2-6.9 18.5-6.5M102.85 52.1q-1.65 0-1.2-.65.4-.65 2.05-.65 4.45 0 7.6 2.4 2.2 1.65 2.45 2.7-.6 2.4-.8 2.05-1.1-1.8-2.65-3.05-3.25-2.8-7.45-2.8m-10.1 8.3q.4-1.6 1.15-1.85.75-.25.45 1.3-.55 2.8.65 6.65 1 3.25 2.4 5.1l-1.2-.15q-1.4-.4-1.55-.65-.95-1.6-1.65-4.7-.8-3.6-.25-5.7"/><path fill="#0d131a" d="M108.85 37.45q3.4 2.3 4.6 7.15.75 3.15.95 10.15l-.75 2.1-.75 1.5q-.3-8-.9-10.65-1.25-5.3-5.1-7.95-10.85-7.3-31-19.75Q53.6 6.25 47.5 3.55q-6.7-3-9.3.65-2.45 3.45.85 8.45 3.4 5.2 17.2 24.25l19.15 26q.5.6 1.4 4.2.9 3.6.65 3.3-2.9-3.4-19.65-27.1L37.25 14q-4.2-6.1-.45-11.15Q40.65-2.3 48.2 1.3 55 4.55 77.85 18.2q22.4 13.4 31 19.25M82.55 77.9L84 79.8q-21.3 5.65-27.35 18.45-2.3 4.85-2.7 11.45-.2 3.4.2 11.2.5 9.75.05 13.8-.8 6.75-4.25 9.45-16 12.6-21.15 20-8 11.45-9.4 30.9-.4 5.45 2.35 10.3 1.7 2.95 6.2 7.85 6.8 7.45 6.9 12.4.05 2.6-3.65 11.45-2.55 6.15-3.1 9.5-.85 5.45 1.15 11.7 1.65 5 6.05 9.2 2.7 2.55 8.5 6.35 4.5 3.05 6.15 4.5 2.8 2.55 3.5 5.1l1.35 7.05q1.1 7.4 2.4 10.9 2.1 5.85 6.25 8.5 3.65 2.35 8.8 2.05 4.4-.2 5.45-1.45l1.9-2.6q3.95-5.7 7.6-9.15 6.4-6 15.55-9.9l1 .85q.8.9.5 1.05-9.1 3.75-15.65 10.25-3.3 3.25-7.7 9.5l-2 2.7q-1.35 1.65-7.05 1.5-6.2-.15-10.35-2.85-4.45-2.8-6.4-9.35-.6-2.05-2.15-11.75l-1.3-6.85q-.6-2.25-3.1-4.5l-5.65-4.2q-7.95-5.25-9.4-6.45-5.25-4.4-6.95-9.6-2.1-6.45-.6-12.65.55-2.35 3.8-10 3.1-7.4 2.65-10.65-.6-4.35-7-11.35-4.7-5.1-6.45-8.2-3-5.3-2.55-11.15 1.4-19.65 10.55-32.05Q32.3 155.7 49 142.6q3-2.35 3.5-8.8.25-3.3-.3-13.25-.5-9.2-.2-13.4.45-6.9 2.95-11.75 5.95-11.65 27.6-17.5"/><path fill="#0d131a" d="M91.15 89.5l.6 1.55q-12.4 1.3-19 5.2-8.95 5.25-10.5 16.3-.9 6.2-.4 14.15.7 12.35-1.6 17.9-1.65 3.85-7.6 8.85-8.4 7.05-12.75 13.3-7.3 10.55-8.8 24.4-.65 6 .85 10.75 1.1 3.55 4.1 8.1 3.7 5.7 4.7 7.85 2.2 4.95 1.85 10.35-.25 3.5-2.4 9.65-3.7 10.45-1.25 16.9 2.5 6.7 13.75 15.2 6.55 4.95 8.5 8.3 1.45 2.6 2.9 10.2 1.65 8.6 3.65 13.2 3.2 7.3 9.05 10.5l-1.85.2-1.65.35q-5.3-3.55-8-10.9-1.15-3.25-3.05-13.05-1.3-7-2.85-9.5-1.75-2.9-8.2-7.75-12.15-9.2-14.75-15.75-2.6-6.5 1.4-17.75l1.6-4.85q.85-2.9 1-5.05.35-5.15-1.45-9.65-1.1-2.7-4.3-7.55-3.65-5.5-4.85-8.55-2.2-5.45-1.55-11.6 1.5-14.15 9.65-25.15 4.35-5.85 13.7-13.65 5.85-4.95 7.2-8.8 1.55-4.45.85-16.6l-.35-7.65q-.1-4.55.35-7.7 1.75-12.05 12.65-17.3 6.3-3.1 18.8-4.4"/><path fill="#0d131a" d="M53.35 110.4q-4.4 5.1-6.1 12.55-1.4 6.1-.45 8.7.2.55 2.55 2.7l3.55 3.3-.85 2-4.35-3.8q-3.5-3.1-3.8-3.85-1.15-3.1 1.15-10.25 2.6-8.3 7.95-13.9.2-.2.4 1.05.15 1.25-.05 1.5m-1.6 30.6l-2.1 2.25q-7.15-1.8-21.9-4.9l-17.9-3.5q-2.3-.2-4.1.75-1.8.95-2.8 2.95-1.2 2.35-.8 5.15.45 2.8 2.3 4.8 1.85 2 12.05 9.75l10.4 7.9q.25.25-.75 1.2-.95.95-1.2.7L14.75 160q-10.1-8.05-12.3-10.45Q.3 147.2.05 143.8q-.3-3.3 1.2-6.25 1.2-2.35 3.75-3.65 2.5-1.25 5.3-1l19.1 3.4 22.35 4.7m-30.7 154.55q-1.45-2.6-1.6-5.4-.15-3.3 1.8-5.25L36 269.3l1.15.75q.8.6 1.05.95-3.4 2.9-15.3 15.3-1.55 1.55-1.45 4.1.05 2.25 1.25 4.3 1.05 1.8 2.55 2.75 1.8 1.1 3.7.6 1.3-.35 11.65-6.3 10.3-5.9 11.9-7.2.25-.2.75 1.2.45 1.4.15 1.55-21.35 12.2-23.6 12.8-5.3 1.4-8.75-4.55m119.5-79.95v1.8q-8.55 4.35-22.6 6.1-18.2 2.35-31.65-2.75-1.95-.75-2.5-1.75-.6-.95 1.35-.3 14.25 4.85 33.5 2.55 15.4-1.85 21.9-5.65"/><path fill="#0d131a" d="M127.2 229.8q3.5-1.1 7.35-3.9 4.3-3.15 5.3-5.9l.3 1.2.25 1.1q-1.95 2.95-5.25 5.45-3.5 2.65-7.4 3.8-9.45 2.8-19.55.05-10-2.75-18.25-10.2-.3-.25.95-.2l1.65.35q7.75 6.4 16.8 8.6 9.2 2.2 17.85-.35m21.75-51.4q1.55-1.4 1.65-.4.15 1.05-1.4 2.45-5.15 4.7-16.8 10.95-11.9 6.35-18.7 7.95-3.3.8-3.9-.35-.6-1.15 2.7-1.85 6.65-1.4 18.8-7.55 12.4-6.35 17.65-11.2m-75.3-11.1q-.05-2.1.6-2.7.65-.65.8 1.45.45 6.15 5.5 15.7 4.55 8.5 9.05 13.35 1.6 1.7.95 2.55-.7.85-2.3-.8-4.6-4.75-9.25-13.7-5.15-9.85-5.35-15.85"/><path fill="#0d131a" d="M73.95 166.85q.25-.25.75.35t.25.85q-3.9 3.55-4.95 13.1-1.1 9.85 2.35 15 2 3 4.75 4.35 2.75 1.3 5.6.7 2.05-.45 3.45-1.75 1.4-1.35 1.7-3.05.05-.3.8 0l.7.45q-.6 2.1-2.25 3.85-1.8 1.9-4.05 2.4-3.35.7-6.55-.95-3.2-1.6-5.55-5.05-4.25-6.3-2.55-17 1.55-9.65 5.55-13.25m73.95 13.85q-.1-.3.45-1t.65-.4q1.75 3.95 1.55 9.3-.2 5.5-2.4 10.3-5.35 11.8-17.8 11.45-5.6-.15-10.6-3.35-4.95-3.15-7.6-8.15-.2-.3.55-.65l.85-.1q2.45 4.7 7.2 7.5 4.7 2.8 10 2.75 9.85-.05 15.15-8.9 5.2-8.7 2-18.75m-33.2 41.9q-.05-.35.6-.35.65-.05.7.3l1.7 9.4q.05.3-.8.3-.85-.05-.95-.35-1.2-7.75-1.25-9.3m14.6-1.95q-.05-.35.65-.65.7-.35.75 0 .1 1.2.9 4.4l1 4.55-.75.45-.85-.2-1.7-8.55"/><path fill="#0d131a" d="M82.5 192.35q.4-3.1 1.5-2.95.55.05.75 1.05.2.9.05 2.15l-.5 2.1q-.45.95-1 .9-.55-.05-.75-1.1-.15-.9-.05-2.15m54.8-2.35q-.15-1.35.05-2.4.3-1.15.95-1.2.65-.1 1.2.95.45.9.6 2.3.15 1.4-.05 2.4-.25 1.15-.9 1.2-.7.1-1.2-.95-.5-.9-.65-2.3"/></svg>