<svg xmlns="http://www.w3.org/2000/svg" width="331" height="308" viewBox="0.0 0.0 331.4 308.0"><path fill="#664497" d="M327.9 132q-2.2 6.05-7.7 10.35-2.45 1.9-5.6 3.4l-4.4 2.1q-3.8 2.05-2.9 6.8-3.35 3.9-9.55 4.7-3.9.5-12.15-.25l-12.65-.45q-6.75.55-10.85 3.95-1.5 1.25-1.65 3.95-.2 2.85 1.4 5.35 4.3 6.7 16.7 4.75-5.9 7.4-19.75 10.7l-9.3 2.25q-4.4 1.35-5.85 3.5-3.15 4.75-3 8.85.15 3.8 3 5.5 2.75 1.65 8.65.3 6.55-1.5 7.75-5.85 1.9-.6 3.4 2.55 1.6 3.4 3.8 3.15l10.05-.4q7.9-.6 13.55-3.25 3.85-1.8 5.8.7 1.75 2.25 1.65 7.1-.05 4.6-1.7 9.5-1.65 5.05-4.25 7.9-4.2 4.6-11.65 3.7l-5.85-.55q-3.3 0-5.7 1.55-2 1.3-4.8 5.6-2.6 4.05-6.65 6.15-5.35 2.8-12.3 1.75-6.95-1-10.25-5-4.95-6-11.45-6.05-5.25 0-12.3 4-2.4 1.4-3 5.9-.65 4.8 1.45 8.8 5.8 11.05 24.4 3.95-8.7 13.7-19.35 16.8-6.3 1.8-14.65-.25-3.7-.9-8.1-7.15-4.15-5.8-6.3-5.75-15 .4-20.35 4.95-2.05 1.7-3.2 4.45l-1.65 4.95q-1.6 4.75-10.5 6.9-9.15 2.2-13.25-2.2-5.65-6.1-8.5-8.6-4.7-4.1-8.2-4.9l-8.75-2.1q-6.8-1.3-6.8.65 0 9.4-.95 11.45-1.55 3.4-8.45 3.8-2.8.15-9.35-1.8-7-2.1-13.95-5.4-18.35-8.7-20.55-17.9-1.2-4.9 2.3-9.1l2.5-2.85q1.15-1.45.95-2.55-1.1-6.75-8-9.2-7.6-1.55-9.6-3.1-2.7-2.1-5.65-9.65-2.6-6.7-2.85-10-.15-1.65-2.6-1.8-2.85-.25-3.75-1.75-1.55-2.7-2.7-7.45-1.25-5.15.25-4.85l3.95.6q2.3-.1 2.2-2.35-.2-4.25-1.75-6.25l-4.15-3.75q-3.4-3-8.05-3.45-3.9-.4-4.7-1.95-1.55-3.1-3.6-8.5-2.85-7.5-3.25-11-1.4-11.9.05-23.15.85-7.05 4.2-21.15.3-1.3 3.5 7.15 3.6 9.55 5.3 10l5.95.4q3.85-.9 5.45-5.2 2.25-6.05-3.15-17.05l-4.45-8.95q-2.4-5.15-2.95-8.75-.65-4.3 1.2-8.2 1.75-3.75 5.25-6 8.15-5.15 17 1.25Q44.05 81 47.9 74q3.55-6.4 2.9-9.2-.45-2.15-2.3-5.6-1.65-3.05-1.65-3.65.15-4.15 5.55-9.75 5.7-5.9 9.7-4.35 4.2 1.6 11.7 6.3 7.35 4.55 9.7 6.9 2.55 2.55 9.4 2.75 7.05.25 7.05-3.15 0-4.25 1.65-5.9 1.95-2.05 5.95.75 2.1 1.45 4.5.65 2.1-.7 3.65-2.8 1.5-2.05 1.45-4.05-.05-2.2-2.1-3.2-5.2-2.5-6.35-8.55-1.35-7.1 6.2-12.25 6.95-4.8 14.05-7.1 4.15-1.35 10.6-2.3 1.45 2.55 3.65 4.55 2.4 2.2 3.95 1.9 1.1-.2 7.6-7.05 7.75-6.75 15.6-6.75 10.35 0 15.8 2.7 5.75 2.85 0 6.1-17.4 10.05-16.4 15.25.6 3.35 4.75 7.4 3.8 3.65 6.1 4.05 1.55.25 5.65-2.2 4.9-2.95 5.65-3.2 1.5-.5 1.55.6.2 2.15.65 2.9 1.55 2.55 5.05 3.5 3.5.95 5.8-.7.95-.65 1.55-2.9.6-2.85 1.1-4.4 1.95-6.1 7.9-7.65 6-1.6 17.6-1.1 12.2.55 15.95 3.15 5.95 4.15 4.85 7.5-1.2 3.6-10.25 4.8-6.1.8-10.5 3.1-5.2 2.7-3.3 5.7 1.1 1.75 5.7 1.8 4.4 0 5.45 2.3.6 1.25-1.75 2.8-3.3 2.15-3.8 2.8-1.5 1.9-1.4 4.35.15 2.65 2.55 2.65 2.25 0 4.15-1.1l3.5-2.4q1.85.9 1.95 2.2.1.7-.65 2.85-1.6 4.85 1.3 9 2.8 4 5.65 4.75 4.1 1.05 9.05-3.85l7.2-7q3.5-3.1 6.85-4.6 7.35-3.3 23.45-1.6 3.2.35 5.6 2.75 2.15 2.1 2.95 5.1.8 2.95-.15 5.1-1 2.35-3.7 2.6l-9-.25-8.7-.8q-9.05-.35-8.7 6.6-17.2 4.75-21.7 19.15-1.8 5.7-1.05 11.8.65 5.55 3.1 9.55 2.75 4.4 7.55 6.5 4.45 1.9 9.5 1.4 4.95-.5 8.7-3.1 3.95-2.75 5.2-7 1.45-4.95 6.05-5.5 2.9-.35 7.9 1.25.65.2 3.35 3.7 2.4 3.1 7.2 3.6l14.2 1.8q2.6.35.55 6.05M162.3 287.85q2.35-2.5 3.9-2.85.3-.05 3.85 2.15 3.75 2.3 7.75 2.15l5.35-.95q3.35-.7 5.35-.1 1.3.4 3.55 2.45 2.15 1.95 3.2 3.55 1.85 2.8-1 6.75-2.65 3.65-9.1 5.05l-10.8.7q-7.7-.45-11.9-4.35-4.4-4.05-2.95-10.2.4-1.85 2.8-4.35"/><path fill="#664497" d="M103.15 5.4q3.8 0 3.85 2.35.05 1.3-1.65 4.85-1 2.15-3.05 4.35l-3.8 3.7q-1.2 1.1-6.45 8.05-3.5 4.55-6.9 5.15l-8.8-.25q-3-1.4-3.95-6.2-.45-1.95-.3-5.7.15-4.45 1.3-5.25 1.55-1.05 4.25-1.35 3.35-.45 4.55-.9l3.7-3q2.6-2.55 7-3.9 6.2-1.9 10.25-1.9M280.2 245.7l1.4-.75q.45 0 1.35.8.5.45 2.4 1.15 1.75.7 2.25 1.3 2.15 2.7-.05 7.05-2 3.85-5.5 7.6-3.7 4.05-7.75 6.5-3.15 1.9-7.85 1.5-4.05-.35-8.15-2.25-1.85-.85-3.55-2.9-2.15-2.6-1.6-5 1.05-4.4 7.6-6.25 3.65-1.05 11.35-2.25 2.6-.6 4.5-2.75 2.95-3.25 3.6-3.75m45.45-77.3q1.75.75 1.2 4l-1.4 4.85q-.9 2.85-4.55 5.35-4.35 2.6-6.3 4.2-4.45 3.75-11.05 5.5-8.25 2.15-9.9-3.45-1.2-4.15 2.1-11.6 2.95-6.65 5.65-8.65 1.1-.8 3.4-.7l3.35.55q3.75 1.35 9.75.2l7.75-.25m-.4-76.8q1.8.5 2.15 2.95.3 2.15-.65 3.65l-.85.8-.9.8q-.15.25-.2.95l-.3.85q-1.2 1.45-4.2 2.55-3 1.15-4.65.65-3.7-1.05-3.8-4.35-.1-1.95 1.3-5.3.8-2.05 4.9-3.25l7.2-.3"/><path fill="#51308e" d="M200.05 79.35q3.1-5.55 7.1-8.8 5.25-4.25 5.7 3.15.4 6.4 9.75 10.35l6.5 2.7q3.05 1.55 3.3 3.4.35 2.8-1.65 4.75-1.25 1.25-4.65 2.9-3.65 1.8-4.85 2.8-2.25 1.85-2.2 4.4 0 1.95 1.3 3.8l2.35 2.9q2.65 3.3-.6 7.2-2.5 3 .5 4.2 2.05.8 8.25 1.1l9.25.7q4.25.85 3.55 3.2l-2.1 6.2q-1.35 4.15-1.5 6.85-.55 8.05 8.25 10.05 5.9 1.35 3.75 6.1l-5.55 8.15q-1.55 2.4-3 5.9l-2.15 5.35q-2.55 5.55-7.95 6.85-3.1.75-4.9 3.25-1.6 2.3-1.25 4.45.25 1.5 2.55 4.85 2.1 3.1 2.05 4.9 0 4.1-5.6 7.35-6.85 3.85-19.55 4.45-3.55.2-2.3 5.3l1.4 4.9q.85 3.1.9 5.2.05 2.75-5.9 7.1-6.15 4.4-6.4 7.8-.5 6.15-3.65 7.1l-3.3.2-3.85-.1-13.65.45q-7.25.85-8.55 4.8-1.3 4-8.8 5.8-7.7 1.85-11.15-1.85-3.1-3.3-7.55-4.9l-7.25-1.75q-.6-.1-6.95-4.1-5.35-3.3-5.35-1.8 0 7.35-2.9 9.35-3.5 2.35-14.1.15-2.5-3.55-6.3-5.3-1.85-.9-6.4-2.05-3.75-.95-5.35-2.25-2.35-1.85-3-5.8-1.75-11.35-12.15-13.15L56 226.85q-4.4-.85-6.35-3.25-2.3-2.85-3.5-5.8-2-4.9 1.15-6.55 3.9-2 1.65-6.4l-1.95-3.8q-.95-2.35-.45-4.15l2.2-5.9q1.65-4.4 1.6-6.15-.2-4.35-1.1-6.1-1.1-2.05-3.85-2.25-12.3-.95-13.45-8.5l-.45-6.5q-.45-3.8-2.6-5.95-4.6-4.55 1.9-14.25 2.35-3.6 5.25-6.25 2.8-2.55 3.8-2.3 7.35 2.1 9.6-4.05 1-2.65 1.05-8.95l.1-11.05q.75-13.25 9.3-12.9 4.6.2 7.25-4.9 2.75-5.25 2-13.55-.15-1.95-1.8-4.7-1.5-2.65-1.5-3.05.05-2.95 14.45-2.9 14.2 0 16.35 2.15 4.4 4.4 9.1 4.4 4.7 0 4.7-4.75 0-3.05 4.5-4.45 4.5-1.35 8.6.4 9.1 3.95 17.45-3.6l5.9-6.1q3.15-3.3 5.1-3.9 6.95-2.05 12.1 3.25 4.55 4.7 9.25 17.05 3.45 9.15 13.15 12.15 4.3 1.3 7.85.4 3.85-1 5.7-4.35m-27.4 217.4q2.65-1.35 5.95-1.45l7.05-1.05q4.6-.65 5.4.55 2.4 3.7-2.85 7-5.15 3.2-12.05 2.8-4.35-.3-6.1-1.75-1.55-1.3-.7-3.1.75-1.7 3.3-3M276 265.1q-3.2 1.9-5.6 1.75-1.85-.1-5.9-2l-2.35-.75q-.9-.6-.35-2.9 1.05-4.3 5.8-5.05l9.6-1.05q6.8-1.65 6.5 1.95-.35 3.6-7.7 8.05m23.1-84.9q.15-2.6 2.8-4.5.85-.65 4.4.05l4.3.35q5.05-2.55 8.3-1.25 2.8 1.1 2.1 3.3-.85 2.65-3.9 3.3-4.1.85-5.6 2.15-2.85 2.45-6 2.45-2.75 0-4.65-1.8-1.85-1.75-1.75-4.05M321.8 96q.95.3 1.1 1.5.15 1.15-.3 1.95l-.45.4-.45.4-.15.5-.15.45q-.6.75-2.15 1.35l-2.45.3q-1.9-.55-1.95-2.25-.05-1.05.7-2.75.4-1.05 2.55-1.65l3.7-.2"/><path fill="#3e4e57" d="M208.25 194.9q-6.8 15.45-19 27.5-12.25 12.05-27.8 18.7-16.1 6.9-33.25 6.9t-32.85-6.85q-15.1-6.6-26.85-18.65-11.65-12-18.1-27.45-6.65-16-6.65-33.35 0-37.45 22.85-61.05 23.25-24 60.9-24 17.2 0 33.4 6.65 15.7 6.45 28 18.1 12.4 11.8 19.25 26.95 7.15 15.9 7.15 33.15 0 17.3-7.05 33.4"/><path fill="#ed8599" d="M106.1 225.05q-15.75-.1-26.45-4Q68.2 216.9 58.3 207q12.7-2.1 52.95-3.5 40.55-1.35 56.15-.15-11.5 10.2-26.75 15.8-16.25 6-34.55 5.9"/><path fill="#fff" d="M201.75 104.6q4.85 7.95 6.6 19.65 1.8 12-.3 24.35-5 29.4-27.4 43.15-10.3 6.3-21.45 6.55-10.5.25-20.05-4.9-9.35-5-15.75-14.1-6.6-9.4-8.65-21.2 11.8-8.5 28.55-19.45 33.5-21.85 58.45-34.05m-135.4 32.5L89 159.3q.55 6.75-2.8 15.25-3.4 8.7-9.05 14.25-6.35 6.25-13.2 5.9-7.9-.4-15.15-9.8-11.35-14.75-13.25-37.3-1.7-20.9 5.05-37.8 2.55 4.25 25.75 27.3m89.3 65.95q.45 3-.4 12.2-.85 9.15-1.7 10.6-3.05-2.45-6.5-9.3-3.75-7.3-4.6-13.5h13.2m-80.2 2.5l.2 10.05q0 6.65-.35 8.65-3.55-3.4-7.15-9.9-3-5.45-3.55-7.9l10.85-.9"/><path fill="#51308e" d="M88.9 16.8q2.55 0 4.25 2.5 1.65 2.45.4 3.65l-4 5q-2.2 2.85-4.35 3.25l-5.5-.2q-1.9-.85-2.5-3.85-1-5.2 3.15-8 3.4-2.35 8.55-2.35m197.15 118.1q8.4-2.45 11.3-4.45 2.75-1.9 4.1-1.6 1.1.2 1.8 2l1.3 3.9q1.05 2.55 2.75 4 1.9 1.6-.3 4.9-1.95 2.9-5.9 5.65-4 2.8-6.9 3.2-3.25.5-3.1-2.55.15-2.9-3-3.75l-6.45-.4-5.4-.55q-1.75-.9.35-4 3.05-4.45 9.45-6.35m-18.3 80.35q7.2 2.15 13.8 2.35 9.65.25 5.15 5.85-1.7 2.1-4.75 4-2.95 1.85-4.95 2.15-1.45.2-4.65 0-3.3-.2-5.05 0-6.25.75-10.65 7.5-6.3 9.65-8.2 4.7-.5-1.35-.95-4.95-.4-3.25-.8-3.9-1.3-1.95-6.25-4.6-3.7-1.95-3.3-4.95.95-6.7 5.25-7 1.5-.1 3.05.6 1.35.7 1.7 1.4 1.25 2.5 6.7 1.8 5.45-.75 8.2-3.85 1.3-1.45 2.6-1.6l3.1.5M162.95 40.4q-5.65 3.1-9.15-1.2-1.25-1.55-6.15-.25-5.15 1.4-7.55-.6-3.35-2.7-7.95-3.55-4.45-.8-5.75.65-1.25 1.45-1.25-.75t1.35-4.9q4.05-7.9 11.95-4.7l6.95.7q4.4-.5 8.8-4.85 3.6-3.6 8.3-4.85 4.55-1.15 4.55 1.1 0 1.45-2.25 4.8-2.3 3.3-2.3 4.75l-.4 4.25q.35 2.5 4.55 4.85.7.4-.45 1.9-1.25 1.5-3.25 2.65"/><path fill="#ce7486" d="M148.95 215.6q-21.9-4.85-38.75-4.9-20.85-.1-38 6.95-7.3-4-13.9-10.65 12.7-2.1 52.95-3.5 40.55-1.35 56.15-.15-8 7.2-18.45 12.25"/><path fill="#dbdcdc" d="M180.3 148.4q1.8-14.15-6.8-28.5 15.3-9 28.25-15.3 4.9 8 6.75 19.65 1.9 12.05-.05 24.35-4.65 29.45-27.05 43.15-16.55 10.2-34 5.05-16.7-4.9-27.1-21.5 12.75 7.55 26.55 5.8 12.95-1.65 22.3-10.6 9.55-9.2 11.15-22.1"/><path fill="#27333a" d="M159.9 241q-15.3 6.15-31.7 6.15-21.75 0-40.85-10.7 46.85 10.9 82.05-11.35 30.25-19.15 44.9-57.1-1.25 16.25-8.65 30.95-7.15 14.25-19 25.15-11.9 10.9-26.75 16.9"/><path fill="#dbdcdc" d="M65.55 195.05q-10.1 0-18.85-13.9-7.45-11.75-8.6-22.5 2.7 5.75 8.8 9.45 6.1 3.7 12.8 3.65 7.3 0 12.65-4.6 6.05-5.15 8.3-15.3 6.9 6.75 8.35 7.45.85 10.7-6.15 22.75-7.6 13-17.3 13"/><path fill="#fff" d="M75.45 205.55l.2 10.05q0 6.65-.35 8.65-3.55-3.4-7.15-9.9-3-5.45-3.55-7.9l10.85-.9m80.2-2.5q.45 3-.4 12.2-.85 9.15-1.7 10.6-3.05-2.45-6.5-9.3-3.75-7.3-4.6-13.5h13.2"/><path fill="#dbdcdc" d="M75.45 205.55l.2 4.85q-2.5-1.55-5.05-1.3-2.3.25-4.05 1.85l-1.95-4.5 10.85-.9m80.2-2.5l.1 5q-2.8-1.75-6.4-1.6-3.7.1-5.75 2.15-.65-2.3-1.15-5.55h13.2"/><path fill="#664497" d="M326.2 133.7q2.9-6.65 1.05-6.9l-14.2-1.75q-3.7-.4-6-2.15-1.3-1-2.8-3.2-1.1-1.8-1.9-2.05-3.1-.95-5.2-1.15-2.8-.3-4.6.65-2.15 1.1-3.05 4.2-1.25 4.2-5 7.05-3.7 2.9-8.9 3.6-5.15.7-9.9-1.1-5.6-2.1-8.7-7.15-3.5-5.65-3.5-13.4 0-5.5 2-10.55 2.15-5.5 6.45-9.6 5.65-5.4 14.55-8 0-3.25 1.8-5 1.9-1.75 5.8-1.9l8.3.55 11.25.55q2-.25 2.9-1.85.55-1.05.55-2.5 0-3.05-2.05-5.85-2.35-3.25-6.05-3.65-14.95-1.55-22 1.1-4.8 1.85-12.7 9.75l-2.15 2.1q-4.6 4.65-8.75 4.25-3.75-.35-7.25-5.2-2.15-3.05-2.15-6.1 0-1.45.85-4.1l.5-1.95q0-.8-1.05-1.45l-1.1.8-2.8 1.8q-1.75.8-3.8.8-2.15 0-3-1.8-.7-1.4-.3-3.45.4-1.9 1.45-3.2.85-1.05 3.15-2.45l1.85-1.25q.65-.6.45-1-.5-1.15-1.8-1.5l-3.15-.3-3.35-.25q-1.85-.5-2.8-1.95-1.1-1.7-.25-3.5 1.2-2.5 6.15-4.4 4.05-1.6 8.55-2.2 4.2-.55 6.7-1.7 2.55-1.15 2.9-2.7.65-2.75-4.6-6.35-3.55-2.45-15.6-2.95-11.45-.5-17.25 1.05-4 1-5.95 4.1-1.1 1.8-2.05 5.75l-.8 2.95q-.55 1.35-1.45 2-2.4 1.75-5.95.95-1.95-.35-3.6-1.45-1.7-1.1-2.55-2.55-.6-.95-.75-2.9v-.35l-.45.1q-.95.3-3.85 2.15l-4.3 2.45q-2.25 1.1-3.55.85-2.6-.4-6.55-4.25-4.35-4.2-5-7.85-1.1-5.95 16.85-16.2 2.6-1.5 2.25-2.65-.45-1.7-5.35-3.05-5.25-1.45-12.3-1.45-5.9 0-11.7 3.9-3.25 2.2-7.8 6.95L148.7 16l-1.35.8q-1.85.4-4.4-1.8-2.2-1.85-3.85-4.55-5.85.85-10.05 2.25-6.9 2.3-13.65 6.9-2.75 1.85-4.3 4.2-1.8 2.75-1.7 5.65.1 2.9 1.75 5.55 1.65 2.7 4.25 3.9 2.55 1.25 2.65 4v.1q0 2-1.3 4t-3.3 3.1q-3.4 1.8-6.4-.3-2.85-1.95-4.35-1.25-1.9 1.05-1.9 5.7 0 2.2-2.55 3.3-3.05 1.25-8.2.5-5.15-.75-7.15-2.75-2.3-2.3-9.5-6.8-7.45-4.65-11.6-6.2-2.2-.85-5.5 1.35-3.25 2.2-5.95 6-2.55 3.7-2.6 5.9-.05.75.7 2l1.15 1.8q1.6 3.2 2.1 5.25.4 1.95-1.7 7-2.3 5.6-5.15 7.45-2.7 1.7-5.1-.05-3.95-2.85-8.05-3.2-4.15-.35-7.8 1.8-3.45 2.15-5.15 5.8-1.7 3.65-1.1 7.65.45 2.95 2.15 6.85l3.35 6.95q3.75 7.3 4.85 10.85 1.85 6.05.2 10.55-1.45 3.9-4.7 5.3-3.2 1.35-7.8.05-1.35-.4-2.95-3.6-1.15-2.25-3.45-8.3l-1.7-4.35q-2.35 10-3.2 15.35-1.35 8.1-1.35 15.65 0 5.7.7 11.45.4 3.4 3.25 10.85l3.55 8.35q.4.8 1.15 1.05l2.2.35q5.8.55 10.3 4.5 4.8 4.25 5.05 9.85v.25q0 1.55-.95 2.35l-3.25.45-2.65-.3q-.3 1.05.15 2.85l.85 2.75q.9 3.3 2.1 5.35l1.15.95 1.8.3 2.15.45q1.15.6 1.3 2.15.25 3.3 2.85 9.85 2.85 7.3 5.3 9.2 1.05.8 5.05 1.8 5.3 1.25 7.8 2.85 4.25 2.75 5.1 8.2l.05.5q0 1-.75 2.15l-1.7 2.05q-1.8 2-2.45 3.15-1.2 2-1.2 4.2 0 1.15.3 2.4 2.2 9 20.25 17.45 6.8 3.2 13.7 5.25 6.4 1.85 9 1.7 6.1-.35 7.5-2.9 1.1-1.9 1.05-9.75v-1.7q0-.85.7-1.4 1.25-.95 4.9-.45l9.15 2 1.85.45q3.7.85 8.55 5.05 2.8 2.45 8.65 8.7 1.7 1.85 4.85 2.4l7.05-.3q3.85-.85 6.8-2.7 2.9-1.8 3.55-3.75l.55-1.65q1.9-6.35 5.35-8.85 5.75-4.15 20.15-4.5 1.8-.05 3.5 1.65l3.15 4q2.3 3.2 3.5 4.45 2.2 2.3 4.45 2.85 7.5 1.85 13.1.5 10.15-2.45 18.55-14.55-10.45 3.4-17 .45-4.3-1.95-6.3-6.15-2.05-4.35-1.25-9.2.8-4.65 3.4-6.15 6.7-3.8 11.85-4.05 7.45-.35 13 6.3 3.2 3.8 9.8 4.75 6.6.9 11.7-1.75 2.65-1.35 4.4-3.25l2.45-3.4q2.25-3.55 4.55-5.05 2.35-1.5 5.35-1.65l5.3.35 6.3.25q3.4-.55 6.05-3.5 3.75-4.1 5.25-12.05 1.45-7.95-.9-11.2-1.55-2.1-4.8-.55-4.75 2.2-10.85 3l-9.3.55-3.75.15q-1.85.2-3.15-1.1l-1.6-2.55-.95-1.75q-.4-.45-.95-.4-1.35 3.45-5.55 5.15-3.15 1.25-6.85 1.35-3.5.05-5.1-.95-2.5-1.55-3.2-4.55l-.25-2.1q0-4.2 3.15-8.95 1.35-2.05 4.9-3.35 2.1-.8 7.5-2 7.05-1.55 10.8-3 6.25-2.45 10.2-6.45-7.2.65-11.65-2.05-2.9-1.8-4.2-4.65-1.15-2.5-.8-5.2.3-2.65 1.9-4 4.2-3.5 10.95-4.1l12.6.4 9.35.5q4.85-.1 8-1.5 2.45-1.1 3.1-1.95.65-.8.65-2.65 0-2.65 1.75-4.25 1.1-1 4.3-2.45 4.8-2.15 7.4-4.25 4.05-3.1 6.55-7.95m4.5-7.5q.7 2.65-1.9 7.7-2.8 5.5-7.5 9.15-2.7 2.1-7.75 4.45-2.85 1.3-4.25 3.6-1.3 2.2-.65 4.15.8 2.25-5.1 3.85-6.95 1.85-18.65.85-12.65-1.15-19 1.65-6.55 2.85-3.85 8.8 3.2 7.05 15.35 5.15 1.55-.25 2.45.3 1.05.65 0 2-4.1 5.15-11.55 7.9-3 1.05-12.6 3.2l-7 1.8q-3.25 1.15-4.35 2.8-2.25 3.45-2.75 6.8-.65 4.45 2.5 6.35 2 1.2 5.5.8 3.05-.35 5.35-1.6 1.15-.6 2.65-2.85l2.2-3.3q1.9-2.3 4.4 3l1.25 2.7q.75 1.4 1.7 1.3l3.95-.15 9-.55q5.9-.8 10.4-2.9 2.65-1.25 5-.6 1.8.5 2.65 1.7 2.85 3.85 1.9 12.4-1 8.75-5.15 13.3-5.25 5.75-15.8 4.3l-4.85-.35q-2.65.15-4.6 1.4-1.3.85-2.3 2.05l-1.7 2.45-2.7 3.65q-1.95 2.15-4.85 3.65-5.5 2.85-13.2 1.45-7.6-1.35-11.15-5.65-4.25-5.1-9.45-5.25-4.9-.15-12.5 4.15-1.95 1.1-2.55 4.7-.65 3.9 1.15 7.65 1.8 3.8 6.45 5.5 5.95 2.25 13.9-.8 7-2.6 5 .55-15.15 23.75-34.5 18.95-2.85-.7-5.55-2.8-2.4-1.85-4.25-4.5l-3.2-4.4q-2-2.5-3.1-2.45-13.55.35-18.55 3.95-2.8 2-4.6 8l-.5 1.65q-.95 2.75-4.5 5.3-3.4 2.4-7.2 3.2l-8.65.25q-4.35-.7-6.35-2.85l-7.6-8.8q-4.1-4.45-7.2-5.15l-1.95-.5q-11.6-3.05-12.55-1.85.5 9.95-.55 12.35-1.6 3.85-9.05 3.9-3.05.05-9.65-1.7-7.5-2.05-14.5-5.15-19.2-8.6-21.85-19.65-.9-3.7.85-6.95.8-1.4 3.55-4.5l1.5-1.75q.55-.85.45-1.45-.7-4.6-4.5-6.2l-7.3-1.7-3.6-.9q-2-.55-2.85-1.25-2.85-2.2-5.45-11-2.05-6.85-2.4-11-.05-.55-.65-.75l-1.75-.25-2.3-.4q-1.3-.5-2.05-1.75-1.4-2.35-2.7-6.75-1.6-5.15-.6-6.5.8-1.1 3.5-.45 2.8.7 3.65 0 .6-.5.3-2.45l-.7-2.5q-.95-2-3.6-4.2-3.35-2.65-10.1-3.3l-3.45-.5q-2.1-.55-2.75-1.85-.9-1.9-2.9-8.95-2.15-7.7-2.6-11.55l-.9-6.05Q0 148.75 0 146.6q0-7.7 1.75-17.05l3.8-16.85q.5-2.1 1.7-1 1.45 1.4 3.7 7.4 1.3 3.35 2.7 6.15 1.8 3.65 2.65 3.9 4.1 1.15 6.5.45 2.55-.8 3.75-4 1.45-3.9-.6-9.5-.8-2.15-5.05-10.45l-3.75-7.15q-1.95-4.15-2.45-7.15-.65-4.45 1.8-9.4t6.4-7.35q3.8-2.3 8.8-1.3 4.45.9 9.1 4.25l3.1.05q2.4-1.6 4.15-6.65 1.55-4.45 1.2-6-.3-1.35-2.45-4.85-1.85-3.05-1.8-4.85.05-2.7 3.45-6.75 3.15-3.8 6.9-6.3 2.45-1.6 3.9-2.2 2.1-.85 3.45-.3 4.2 1.65 11.65 6.5 7 4.6 9.5 7.1 1.6 1.6 6.3 2.6 4.9 1.05 7.45 0 1.45-.6 1.45-1.65 0-3.25.4-5 .45-2.3 1.7-2.95l3.15.1q1.75.6 3.75 2l4.55.15q1.6-.85 2.7-2.5 1.05-1.6 1-3.1-.05-1.7-1.6-2.45-2.95-1.35-4.95-3.5-2.6-2.75-2.85-6.05-.6-7.5 6.45-12.3 12.25-8.35 21.75-10.7l4-.45q1.3.25 2.65 1.85l2.95 3.8q1.7 2.1 2.3 1.95l2.6-2.4q5.65-5.95 8.15-7.85Q164.05 0 170.35 0q6.85 0 12.9 2 6.25 2.05 7 4.85.7 2.4-3.1 4.6-9.65 5.5-13.5 9.8-2.7 2.9-2.3 4.8.55 3.2 4.2 6.95 3.3 3.5 5.2 3.8 1.4.2 6.6-3.1l2.35-1.75q1.3-1.05 1.9-1.25 2.35-.8 2.9 1l1.05 3.5q.65 1.05 2.25 2.1 1.5 1.05 2.7 1.3 2.6.5 3.85-.8.95-1 1.65-3.9 1.1-4.5 2.65-7.05 2.6-4.3 7.2-5.5l17.85-.55q12.1 1.05 16.15 3.85 6.2 4.3 5.3 8.15-.6 2.35-3.5 4.15-3.15 2-7.9 2.6-4.2.5-7.65 1.55-5.25 1.6-5.65 3.75-.45 2.65 5.25 3 6.5.4 7.4 2.35.65 1.35-.75 2.7-1.1 1.05-2.95 1.75-2.8 1.05-4.1 4.35-1.35 3.45 2.3 3.45 1.75 0 3.3-1.35l2.85-2.6.85-.05q3.25 1.5 3.2 3.1-.05.95-1.3 3.35-.75 2.35-.75 3.7.05 2.4 1.85 4.9 3 4.25 5.95 4.55 3.1.3 7.25-3.65l3.7-4.4q2.4-3.1 3.8-4.3 6-5.2 14.85-6l16.6.75q4.2.45 7.15 3.95 2.75 3.35 2.75 7.2 0 2.65-1.4 4.7-1.45 2.05-3.65 2.55l-13.3-1.15q-9.95-1.3-11.8.8-.55.6-.5 1.9l.25 2.65q.1.7-.65.9-8.8 2.45-14.55 7.45-4.6 4.1-6.55 9.1-2.3 5.85-1.55 12.55.7 5.7 3.25 9.8 5 8.15 16.15 6.65 9.6-1.2 11.75-8.65.55-1.9 1.85-3.7 1.3-1.8 2.65-2.55 2.1-1.1 5.5-.55l6.05 1.65q.95.3 1.65 1.1l1.2 1.65q1.5 2.25 2.3 2.95 1.8 1.6 4.95 1.9l8.05.55 6.9.5q2.05.2 2.5 1.85"/><path fill="#0d131a" d="M196.55 107.8q-1.65.65-2.05.95-3.45-4-6.15-6.5-12.15-11.7-27.95-18.1-15.8-6.4-32.45-6.4-18.3 0-33.65 6.05-15.35 6.05-26.6 17.65-8.85 9.15-14.45 21.4-1.8-1.25-2.25-2 9.8-21 28.85-33.15 20.5-13.1 47.65-13.1 19.9 0 38.65 9.35 17.65 8.85 30.4 23.85m13.2 27.7q.3-3.4.1-5.5 6.45 15.55 6.45 31.25 0 17.95-7.05 34.35-6.8 15.85-19.15 28.05-12.35 12.2-28.2 18.9-16.45 6.9-34.25 6.9-30.3 0-54-19.75-24.65-20.6-30-53.2 1.15 1.55 2.45 4.55 1.35 2.95 2.25 4.2Q56 212.05 78 229.1q22.45 17.35 50.7 17.35 17.05 0 32.9-6.8 15.25-6.5 27.2-18.35 11.9-11.8 18.5-26.95 6.85-15.75 6.85-32.65 0-13.55-4.4-26.2"/><path fill="#0d131a" d="M213.45 97.35q5.5-2.35 6.2-1.65.65.75-4.75 3.3-16.55 7.8-52.15 29.2-36.15 21.75-47.55 30.95-3.75 3-4.35 2.1-.65-.9 3.1-4.05 12.65-10.65 48.55-32.05 34.75-20.75 50.95-27.8m-179.45 6q-2.2-3.2-1.95-4 .25-.85 3.3 2.5L61.6 130.5q19.1 20.3 29.15 28.55 3 2.45 2.95 3.6-.05 1.15-3.15-1.15-10.8-8.15-31.6-29.9Q39.5 111.25 34 103.35M146 216q.25.7 1.1 1.7-19.75 9.2-40.8 9.05-17.7-.05-30.95-6.3v-2.2q6.3 3 13.9 4.45 7.4 1.45 16.85 1.5 21.5.1 39.9-8.2m9.7-2.95l-.15-2.1q5-3.05 9.55-6.85-16.65-.95-53.65.25-36.9 1.25-51.2 3.25 3.45 3.35 7.6 6.25l2 3.55q-6.2-3.8-12.15-9.75-1.35-1.35.45-1.65 17.55-2.95 53.1-4.1 35.45-1.1 56.2.6.9.05 1.05.45.2.4-.5 1.05-5.7 5.05-12.3 9.05"/><path fill="#0d131a" d="M203.2 104.2q5.35 9.8 6.85 22.45 1.5 12.5-1.05 25.05-5.75 28.3-26.8 41.2-9.9 6.1-21.45 6.5-11.1.45-21.25-4.4-10.3-4.9-17-14-7.2-9.75-8.8-22.35-.05-.4.9-.7 1-.35 1.05 0 2.15 12.55 9.05 21.9 6.5 8.75 16.05 13.3 9.35 4.5 19.65 3.95 10.6-.5 19.95-6.25 20.25-12.4 26-39.75 2.55-12.2 1.2-24.3-1.45-12.3-6.6-21.8-.2-.35.95-.75l1.3-.05m-162.55 4.7q.8 1.05.7 1.35-6.35 15.95-4.6 37 1.9 22.75 12.6 36.65 4.8 6.25 10.35 8.55 5.45 2.25 10.6.25 7.6-2.9 13.2-14 5.3-10.55 4.65-19.3l.9.1q.9.4.9.7.35 9.55-4.85 20.15-5.6 11.5-13.6 14.6-4.95 1.9-10.95.1-7.55-2.3-13.5-10.1-11.25-14.65-12.95-38.3-1.6-22.05 5.6-38.5.15-.35.95.75"/><path fill="#b05965" d="M107.8 138.8q.35-2 .8-1.9.5.05.5 2.05-.05 6.1.95 11.25.35 2-.05 2.6-.45.65-1.3-2.15-1.9-6.5-.9-11.85m-14.25 1q.1 3.35.45 5.9.35 2.5 1.25 6.05.5 1.9.05 1.95-.45 0-1.15-1.5-1.3-2.8-1.8-6.2-.45-3.15-.05-6.05.25-2 .7-2 .5-.05.55 1.85m-5.05 35.5q.75-4 1.35-4.15.6-.1.25 3.4-.65 5.75-2.35 9.45-1.55 3.45-4.65 6.5-2.3 2.3-2.6 1.7-.3-.6 1.5-2.65 2.25-2.6 4.05-6.55 1.8-3.9 2.45-7.7m26.75-.85q-.4-3.5.05-3.7.45-.25 1.3 3.4 1 4.45 2.85 8.15 1.7 3.4 4.7 7.25 1.4 1.85 1.05 2.15-.4.3-2.05-1.2-3.4-3.1-5.55-7.85-1.8-4-2.35-8.2m83.15 10.25q-2.25 1.6-3.25 1.45-1-.15 1.25-1.8 4.7-3.55 7.9-9.45 3.2-5.9 4.15-12.75.5-3.35 1.1-2.95.65.45.25 3.85-.85 7.7-3.35 12.6-2.65 5.15-8.05 9.05"/><path fill="#0d131a" d="M154.8 203.05q0-.3.85-.4.85-.05.9.3.4 2.95-.4 11.55-.75 8.1-1.5 10.75l-.5 1.45q-.4.2-2.1-1.2-3.05-2.45-6.2-8.9-3.4-6.95-4.25-13.45-.05-.35.8-.45.9-.1.95.25.75 5.5 3.95 12.15 2.9 6 5.85 9.1.9-2.9 1.4-11.95.4-8 .25-9.05v-.15m-80.2 2.5q0-.35.7-.35.7-.05.75.3.6 16.05.1 18.85-.15.8-.5.85-.5.1-1.7-1.05-3.55-3.35-6.8-9.6-2.65-5.1-3.25-7.95-.05-.35.7-.5.8-.2.85.15.5 2.1 3.05 6.85 3.05 5.6 6.15 9.1l.05-7.85-.1-8.75v-.05"/><path fill="#664497" d="M160.4 292.65q-1.2 4.25 1.35 7.7 1.75 2.35 5.05 3.85 3.35 1.45 7.6 1.7 6 .4 10.95-.8 5.85-1.35 8.15-4.6.95-1.2 1.35-2.5.6-1.9-.3-3.25-1-1.5-3.05-3.35-2.15-1.95-3.25-2.3-2-.6-5.2.1l-5.2.95q-2.95.15-7.4-2.05l-4.05-2.2q-4.8 2.2-6 6.75m-2.5-.65q.5-2.15 3.4-5.5 2.95-3.45 4.75-3.8.95-.15 2.95 1.25l4 2.9q2.45 1.6 4.45 1.55l5.65-.95q3.45-.7 5.65-.05 1.5.45 4.3 3.05 2.6 2.4 3.65 4.05 1.15 1.75.7 4-.4 1.85-1.75 3.75-3.05 4.2-11.1 5.25-3.9.5-10.25.15-4.75-.3-8.7-1.95-4.05-1.7-6-4.3-2.95-4-1.7-9.4m112.5-38.8l-4 .7-5.9 1.15q-3.4 1-5.1 3.1-2.05 2.45-.85 5.5 1.1 2.8 4.1 4.15 3.9 1.8 7.7 2.15 4.5.45 7.5-1.35 3.75-2.3 7.85-6.8 4-4.45 6-8.35 1.25-2.45-.8-4.25-.9-.8-5.2-2.95-2 0-3.95 2.35-2.35 2.85-3.5 3.4-1.55.7-3.85 1.2m6.35-6l2-2.05q1.6-1.3 2.6-1.45 1.45-.2 4.4 1.65 3 1.9 3.9 3.7.7 1.4.1 3.35l-1.45 3.25q-2.15 4.25-5.8 8.4-3.9 4.45-7.75 6.75-3.3 2-8.75 1.25-4.25-.6-8.8-2.65-1.9-.85-3.85-3.5-2.45-3.3-1.75-6.15.95-3.95 6-5.65 1.7-.6 9.6-1.9l4.7-.85q1.6-.4 2.9-1.7l1.95-2.45m47.9-70.2l.3-.9 1.1-3.95q.35-2.45-.75-2.95-1.15-.5-2.9-.35l-3.5.55-5.25.7q-3.15.15-5.8-.85l-3.1-.5q-1.95-.05-2.8.55-2.5 1.85-5.4 8.3-3.15 7.15-2.05 11 .7 2.4 2.95 3.1 3.25 1 8.9-1.25 4.8-1.9 7.7-4.35 1.1-.9 4.15-2.85l3.95-2.65q1.85-1.65 2.5-3.6m1.35-9.4q1 .4 1.55 2.35.5 1.8.25 3-1 5.15-3 7.55-1.35 1.6-5.65 4.25l-2.05 1.65-1.9 1.8q-2.85 2.35-8 4.15-6.3 2.2-10.25 1-3.15-.9-4.15-4.25-1.3-4.5 1.75-12.55 2.85-7.4 5.65-9.4 1.3-.9 4.25-.5 2.15.3 4 1 2.25.8 5.05.7l5.05-.7 3.9-.55q2.1-.15 3.55.5m-.8-69.15l.8-.7q.45-.7.55-1.85.1-1.2-.25-2.15-.4-1.05-1.3-1.3l-6.65.3q-3.75 1.05-4.4 2.7-.8 2.05-1.05 3.2-.45 2.05.15 3.3.65 1.35 2.85 2.05 1.3.4 4.1-.65 2.85-1 3.8-2.25l.45-1.7.95-.95m.3-8.75q1.7.45 2.4 2.35.4.85.4 3.35l-.2 1.05-.6 2.2-1.7 1.6q-.25 1.45-.65 1.9-1.35 1.7-4.5 3.2-3.35 1.6-5.25 1.05-2.9-.85-3.9-2.95-1.45-2.9.85-8.65 1-2.5 5.45-4.25 4.5-1.75 7.7-.85M105.95 7.1q-.45-.85-2.8-.85-3.9 0-10 1.9-3 .95-4.95 2.3l-2.55 2.25q-2.3 2.3-5.2 2.85L77.1 16q-2 .35-3.2 1.2-.75.5-.9 4.4-.15 3.65.25 5.6.85 4.3 3.35 5.55L85 33q2.2-.4 4.25-2.4l3.6-4.5q1.3-1.85 6.2-6.8 4.1-4.15 5.55-7.1l.05-.1 1.2-2.8q.55-1.55.1-2.2m-2.8-3.3q3.95 0 4.4 3.05.4 2.45-1.35 6l-.05.1q-1.5 3.15-5.6 7.3-5 5.05-6.3 6.85l-3.95 5.25q-2.4 2.65-5 3.1l-9.45-.25q-4-1.6-5.05-6.9-.45-2.15-.2-5.45.25-3.4 1.1-5.3 1.15-2.6 5.65-3.55 5.5-1.2 6.8-2.25L88.1 8.3q2.3-1.85 4.55-2.55 6.1-1.95 10.5-1.95"/><path fill="#0d131a" d="M135.15 153.95q-.2-4.3 1.2-4.35.7-.05 1.15 1.35l.5 2.75q.2 4.25-1.2 4.4-1.4.05-1.65-4.15m-63.35.6q-.5-3.95.8-4.15.7-.1 1.25 1.2l.65 2.5q.55 3.9-.8 4.2-1.35.2-1.9-3.75"/></svg>