<svg xmlns="http://www.w3.org/2000/svg" width="436" height="352" viewBox="-0.45 -0.55 436.4 352.35"><path fill="#664497" d="M367.5 116.7q6.15 1.7 36.25 2.35l28.6 1.25q.5.85-25.1 23.3-29.95 26.3-35.25 31.55l23.85 4.2q18.75 3.05 18.9 4.1.2 1.2-15.15 11.5-14.95 10.05-23.15 14.45l.5 2.1L344.3 296l3.15 7.1q3.25 7 6.4 11.7 1.1 1.65 1.1 2.8-.05 1.35-1.95.45l-10.55-5-6.45-3.3 7.7 11.35q6.95 10.1 12.65 17.8 4.85 6.55 4.15 7.4-.75.9-8.15-4.05-29.15-19.6-35.15-22.2l3.35 8.15q1.75 4.45 2.7 5.9-1.75-1.7-8.75-6.15-8.15-5.1-15.1-8.4l-26.9-12.75q-17.75-8.6-31.15-16.3-38-21.75-56.9-44.75-20.45-18.2-56.35-45.5-28.35-21.6-28.1-22.55.35-1.25 13.9-3.2 15.15-2.15 18.85-3.95-49.2-68.9-47.95-71.25.75-1.35 23 4.15 25.15 6.15 30.45 6.35-10.7-36.7-17.45-60.55-12.65-45.05-11-46.2 2.05-1.35 35.05 19.7 30.95 19.7 56.95 38.35l-.2.2q20.75-10.6 49.75-11 33.7-.5 59.7 14.45 30.4-9 70.1-19.55Q427 33 428.05 34.35q1.1 1.45-29.6 42.05l-30.95 40.3"/><path fill="#593984" d="M336.35 286.55q4.8 4.95 7.95 9.45l3.35 7.55q3.45 7.4 6.8 12.2.8 1.15.3 1.65-.55.55-2.4-.25l-12.7-5.75q-1.7-.75-2.25-.2-.55.5.4 1.85 9.8 14.25 21.2 29.4 2.05 2.8 1.45 3.75-.7 1-4-1.2l-19.3-12.95q-12.2-8.15-17.65-11.2l-1.55-.1q-.65.4-.25 1.15l4.05 7.6q1.95 3.7 1.5 3.9-.85.3-6.95-4.1-8.05-5.8-14.15-8.7-33.4-14.5-53.9-25.2-37.5-19.6-55.05-39.65 32.05 20.15 64.5 24.75 31.35 4.4 60.45-5.95 8.5 2.1 18.2 12"/><path fill="#664497" d="M137.65 226.85q3.4 0 7.95 8.45 4.95 9.2 4.05 17.75-.2 2.15-5.95 7.2-5.95 5.25-9.1 5.25-6.85 0-16.15-3.15l-17.75-6.75q-3.65-1.35-8.6-.85L83 256.1q-3.9 3.7-9 5.55-4.65 1.65-7.4.85 4.85-17.2 7-21.9 1.35-2.95 10.1-8.1l13.95-7.8q.85-.5 9.75 1.7 10 2.45 16.05 1.75l14.2-1.3"/><path fill="#fff" d="M298.65 103.85q1.7 10.95 1.6 22.75-.1 11.65-1.9 19.55-1.6 7.3-4.35 10.55-3.15 3.7-10.35 5.7-11.95 3.35-28.1 4.3-14.65.85-21.75-.6.7-8.6 22.55-29.5 21.7-20.8 42.3-32.75M162 104.9q6.05 4.55 20.5 30.15 13.6 24.15 14.2 28.65-9.75.35-19.75-3.3-11.2-4-13.95-10.35-3.15-7.15-3.45-21.8-.3-14.55 2.45-23.35"/><path fill="#ed8599" d="M177.95 185.6q16.8 3.7 17.75 3.6 1.25 4.5 5.1 10.5 3.45 5.45 4.15 5.35.45-.05 2.25-6.35l2.05-7.25 17.9.2 4.7 9.05q3.65 7.25 4.3 7.25.85 0 3.35-6.55 2.55-6.65 2.9-10.25l13.3-1.75 16-2.45q6.45 12.4 7.15 12.5.6.05 2.85-5.2 2.35-5.65 3.1-9.95l10.95-3.45q11.6-3.9 14.9-5.85-17.4 36.7-50.9 47.55l-.05.15-8.95-8.15-4.95 11.2-9.3-11.7-7.1 12.5-9-13.65-6.25 11.7-8.4-13.3-1.85 4q-1.85 4.25-2.15 5.45l-7.65-11.35-1.25 2.6-1.4 3.25-1.5 1.4q-10.35-6.4-18.9-17.65-6.35-8.35-13.45-22.05 2.25 1.45 10.4 5.05.75 3.1 4.1 7.9 3.05 4.35 3.55 4.25.3-.05 1-3.35l1.3-5.2"/><path fill="#664497" d="M65 225.8q.4-.85.35-3.05-.05-2.1-.4-2.5-.6-.7-5.2 4.2l-5.3 5.85q2.45-.2 6.35-1.9 3.8-1.65 4.2-2.6m-22.75-30.7q11.8-10.8 14.2-10.8 2.4 0 15.6 3.55 13.4 3.55 14 4.5 1.75 2.55 14 16.55 14.15 16.25 19.1 20.1l2.7 34.25q-3.9.15-11.4 6.3-8 6.6-10.85 7.25l-7.2-.5q-5.3-1.3-6.8-1.25-1.3.05-6.95 2.15-5.35 2.05-10 1.85-4.85-.2-10.85-3.5l-10.45-6.75q-6.4-4.45-10.25-6-5.6-2.35-10.3-1.15l-.05 9.1q.7 11.3 4.55 22.15-12.85-7.15-21.6-20.4-6.65-10.05-7.4-16.35-.4-3.45 5.9-13.15 4.8-7.35 7-9.7.55-.6 4.85-.8l10.15-.2.75.2q-3.8-14.4-1.6-22.85.95-3.6 12.9-14.55"/><path fill="#dbdcdc" d="M236.95 166.55l-3-.45q.9-8.6 23.45-30.1 22.15-21.1 41.25-32.15l.9 7.25q-16.1 8.65-33.45 23.1-21 17.5-29.15 32.35M162 104.9q6.05 4.55 20.5 30.15 13.6 24.15 14.2 28.65h-2.8q-3.95-9.65-14.65-24.55-10.3-14.4-19.45-23.5l1-5.65 1.2-5.1"/><path fill="#664497" d="M406.85 281.4q5.25 5.2 12.6 10.25 1.1 3.95 1.6 15.1.5 11.85-.7 15.45-1.3 3.85-10.35 8.45-10.1 5.1-21.8 6.45l-4.05.1q-.7-.5 1.55-3.1 3.8-4.35 6.15-10.95 2.6-7.35 1.85-13.8-8.55-9.8-20.9-6.85-9.6 2.3-18.65.15-9.05-2.1-9.3-6.8l-11.35-.9q-7.75-1.75-11.35-7.2-2.35 1.7-7 3.15-4.15 1.35-4.8 2.1-5.1 5.85-7.15 10.25-3.4 7.25-3 16.95.2 3.8-1 3.6-1.1-.15-3.2-3.7-6.65-11.15-11.95-25.85-5.7-15.95-4.2-21.45 1.25-4.55 9.5-11.55l11.55-9.5q2-2 6.4-1.65l6.5.8q3.4 0 18.55-6.45 16.5-7.05 20.55-11.6 2.35-2.7 6.9-11 4.4-8.05 5.55-9.2 2-2 12.15-2.4 10.35-.45 14.05 1.55 2.3 1.25 5.9 5.8 4.05 5.05 7 11.05 8.05 16.05 3 26.55l-4.95 7.45q-3.65 5.05-3.6 5.2-.05 5.6 7.95 13.55"/><path fill="#593984" d="M342.95 296.1q-3.85.85-10.15-1.2-7.55-2.45-9.85-7.3 4.2-2.25 4.4-11.4 9.8.75 21.7-8.55 11.9-9.35 17.5-22.15 5.95 7.25 7.1 18.35 1.05 10.25-2.15 22.3 2.35-.25 6.65 2.65 4.25 2.85 8.55 7.6 10.55 11.65 11.75 22.4.45 4.15 6.5 5.8 6.3 1.75 14.6-.35-10.55 8.95-23 11.75l-8.55 1.25-5.6.75q7.3-7.7 10.6-19.1 1.1-3.75 1.5-7.05.35-2.85.05-2.65-3.65-4.75-9.65-6.35l-8.95-.4q-9 1.35-15.2 1.05-11.5-.5-17.8-7.4"/><path fill="#593984" d="M372.45 254.45l1.85 4.1q2.45 4.65 5.8 7.35 10.65 8.65 25.65-5.4-5.45 6.5-12.5 13.1-14.05 13.2-22.1 13.8 1.55-4.25 2.45-10.45 1.85-12.5-1.15-22.5M299.3 295.5q6.3.05 11.3-3.05-5.5 3.7-8.65 17.3-2.75 11.75-1.85 17.05-6-5.45-13.15-23.25-6.25-15.55-8-25.4 7.2 17.2 20.35 17.35M82 256.15l-4.7 4.4q-5.7 4.05-10.6 2.25l5.7-20.55-.25 1.9q-.05 2.15.75 3.6 2.45 4.55 12.5 0 5.15-2.35 16.2-.9 6.5.85 20.4 3.65 12.1 2.15 18.05 1.25 8-1.25 9.25-8.1l.9 4.6q.4 5.15-2.15 7.8l-6.25 6.15q-3.55 2.95-6.1 3.4-3.15.5-13.55-2.15-10.9-2.75-15.65-5.6-4.95-3-10.3-3.3-5.15-.35-14.2 1.6"/><path fill="#593984" d="M47.5 247.2q2.95-13.45 7.45-16.95 3.4-.2 6.7-2.15 4.8-2.8 3.75-7.4.85.75 5.1 2.5l-5.85-3.45q-1.5.5-6.45 5.6-5.45 5.6-7.1 9.2-1.9 4.1-4.05 14.05-2.2 10.15-1.6 12.6-.3-3.3 2.05-14m41.05-20.45q1.3 1 1.85 2.2l-1.2.45-.6.25q-3.4 1.55-8.05 4.65-4.9 3.25-6.5 5.2-1.5 1.85-3.45 9.35l-3.9 13.95 5.85-1.15q5.85-1.7 9.45-5.5l6.55-.95 8.5-.65q2.85 0 9.8 2.9 5.6 2.3 12.2 5.8l-8.55 7.05q-7.9 6.25-10.4 6.55l-7.8-.35-5.55-1.4q-1.9-.4-7.7 2-6.35 2.65-9.05 2.75-6 .3-16.85-6.85L45 267.35q-4.45-3.05-6.65-4.05v.05l-.5-.25-.95-.3v-.1q-3.5-1.45-7.15-1.4l-2.95.35q-1.8 4.75 1.05 18.2 1.45 6.75 3.2 12.5-14.2-6.95-23.55-22.85-2.9-4.95-5-10.2L1 255.05q7.4 8.05 17.3 3.95 5.05-2.1 9.9-6.2 2.45-.7 10.5 1.35l.5-.45q-9.35-15.35-11.4-43.5 2.85 11.35 11.3 13.05 6.75 1.35 12.35-2.95l8.4-6.7q4-3 5.65-2.75 7.35-.35 14.7 5.8 5.55 4.65 8.35 10.1m79.3-45.45q-3.45-1.2-7-2.8-7.15-3.1-7.8-4.9l10.9 3.65q14.25 4.05 31 6.1 53.6 6.6 112.3-9.25 2.9-.8 6.15-1.3l2.25-.1q-4.25 2-10.25 4.4-12 4.8-20.65 6.7l-.6 4.4-10.35 3.05-2.1-4.3-29.25 3.7-1.2 4.85-11.85.3-2.25-4.15-17.9-.2-1.15 4.05-10.95-1.2-1.55-4.6-17.4-4.05-.75 3.85-8.6-4.35-1-3.85"/><path fill="#ce7486" d="M240.5 198.7l-1 2.7q-1.85 4.9-2.8 6.15.7-1 1.8-4.35 1.25-3.8 2-4.5 1.65-4.75 1.9-7.55l13.3-1.75 16-2.45q6.45 12.4 7.15 12.5.6.05 2.85-5.2 2.35-5.65 3.1-9.95l10.95-3.45q11.6-3.9 14.9-5.85-5.1 10.7-11.5 19.55-7.65 10.55-15.9 16.45-6.25-5.1-17.95-8.4-10.8-3.1-24.45-4.1-.15 0-.35.2m-62.55-13.1q16.8 3.7 17.75 3.6 1.25 4.5 5.1 10.5 3.45 5.45 4.15 5.35.45-.05 2.25-6.35l2.05-7.25 17.9.2 4.7 9.05q3.65 7.25 4.3 7.25-1.25-.05-3.25-4.05-2.45-4.95-3.25-5.85-11.75-.1-21.8 1.4-.6.1-1.5 3.15-.95 3.05-1.5 3.1-.7.15-2.15-2.5-1.5-2.6-2.15-2.5-14.55 3.15-20.15 8.8-7-6.45-13.75-16.7-4.3-6.65-9.05-15.85 2.25 1.45 10.4 5.05.75 3.1 4.1 7.9 3.05 4.35 3.55 4.25.3-.05 1-3.35l1.3-5.2"/><path fill="#593984" d="M413 46.65q7.45-5.3 8.85-3.75 1.75 2-19.85 29.6-27.9 34.8-39.6 50.1 8.55-32.95 33.4-60.25 9-9.9 17.2-15.7M402.9 148.1q-26.2 22.85-31.85 28.55 2.75-20.95 28.2-38.2 8.95-6.05 17.45-9.4 7.8-3.05 8.05-1.45.2 1.2-21.85 20.5m-6.6 41.6q8.45-3.2 14.95-3.65 1.05 1.2-16.6 12.75l-17.9 11.3-7.45.15q10-14.05 27-20.55M118.6 23.8q7.65 12.85 13.95 27.85 18.25 43.7 7.3 62.95Q132 90.2 124.4 65.35 109.25 15.7 110.8 13.5q.9-1.3 7.8 10.3m-30.9 82.05q.75-.65 9.3 5.85 9.8 7.5 18.25 16.35 25.35 26.5 19.35 45-12.35-16.25-24.35-32.8-24.1-33.1-22.55-34.4m15.9 76.55q25.95 7.2 42.6 19.55 19.1 14.15 37.35 42.65l-79.95-62.2"/><path fill="#0d131a" d="M204.35 59.5q.35.25-1.6 1.2-1.95.95-2.15.8-19.7-14.1-44.2-29.9-23.6-15.2-36.6-22.4-7-3.85-7.7-3.3-.95.65 1.15 9.7 3.8 16.55 15.55 56.9l11.7 39.6q1.1 4.1.15 4.85-1 .8-2.7-3.9-2.4-6.45-12.75-40.6-11.4-37.7-15.2-53.25-2.3-9.6-2.65-13.65-.35-4.5 1.5-5.35 1.7-.75 6.35 1.55l12.1 7.05q11.85 7.25 37.9 24.4 27.05 17.75 39.15 26.3"/><path fill="#0d131a" d="M81.7 97.6q1.15-2 10.1 0l23.05 5.85q20.65 5.2 23.9 5.3.4 0 .75 1.4.3 1.4-.15 1.35-5.2-.3-21.25-4l-24.6-6q-5.25-1.25-6-.45-.65.75 1.7 4.6 3.85 6.2 16.55 24.3l28.1 40.3q3.15 4.45 2.25 5.4-.95 1-4-3.3-35-46.8-47.05-66.1-4.3-6.95-3.35-8.65"/><path fill="#0d131a" d="M121.25 174.7l-14.2 2.25q-4.6.65-4.7 1.4-.05.7 3.85 3.8l32.35 24.7q32.2 24.85 45.4 37l2.95 5.55q-13.2-11.7-47-37.5l-37.1-27.95q-6.65-5.05-6.75-6.6-.2-2.1 8.25-3.25 24.25-3.35 27.45-4.9.35-.2 1.1.95.8 1.15.5 1.25-3.25 1.65-12.1 3.3m191.9-110.75q.4.25-1 1.15-1.4.9-1.8.65-30.6-17.7-68.4-14.2-15.75 1.45-29.3 6.5-12.9 4.85-20.35 11.6-3.55 3.15-4.35 2.45-.85-.75 2.5-4.1 7.7-7.7 20.85-13 13.7-5.5 30-6.95 38.4-3.45 71.85 15.9"/><path fill="#0d131a" d="M419.75 32.55q9.9-2.2 10.95-1.05 1.2 1.3-4.4 10-6.2 9.65-30.4 40.7-18.4 23.6-30.95 39-3.05 3.8-4.15 3.2-1.15-.55 1.65-4.45 5.35-7.5 29.6-38.65 22.9-29.45 29.65-39.3 3.7-5.45 3.2-6-.45-.5-7 1-16.8 3.75-58.9 16.1-31.65 9.3-55.35 16.7-4.1 1.25-4.35.05-.2-1.25 3.8-2.9 14.5-6 58.2-18.7 40.45-11.7 58.45-15.7"/><path fill="#0d131a" d="M367.25 117.7q-.35-.1-.1-1.1.25-1 .65-.9 5.9 1.7 26.2 1.6l28.5-.2q10.35.3 11.6 1.65 1.85 2.1-6.75 10l-29 24.9Q372 176.3 370.1 178.85q-2.85 3.7-3 1.95-.2-1.75 2.5-4.85 4.85-5.6 27.05-25.05l27.05-23.45q5.5-4.85 5.25-5.9-.25-.85-6.1-1.05l-28.8-.2q-20.75-.45-26.8-2.6"/><path fill="#0d131a" d="M387.8 179.15l-16.45-3.1 1.45-2.1 30.55 4.75q12.15 1.95 12.85 4.3.75 2.7-10.5 10.3-6.55 4.45-13.9 8.95l-14.75 8.35-4.2-.65q2.25-.45 15-8.55 12.3-7.8 20.5-13.8 3.25-2.35 3.15-3.3-.05-1-3.65-1.65l-20.05-3.5m-211.85 57.9q-2.15-2.95-1.6-4.05.5-1.05 2.75 1.8 21.4 27.05 51.8 46.7 17.9 11.6 51.1 26.95l12.8 6 1 3.3q-4.45-2.15-14.65-6.35-32.55-13.45-51.75-25.8-30.8-19.75-51.45-48.55m181 83.05q-.45.95-6.05-1.55-2.55-1.15-7.5-3.85l-5.15-2.8q3.05 4.45 18.8 25.3 8.05 10.65 7.15 12.55-1 2.05-12.3-5.5l-18.45-12.8q-11.95-8.35-14.9-9.95l2.75 5.7q3.25 6.65 2.35 7.45-1 .9-7.6-3.75-9.55-6.6-16.4-10.1l.6-2.65q10.45 5.25 17.65 10.9 2 1.55 2.35 1.3.3-.25-.55-2.2l-2.65-6q-1.4-3.1-.9-3.55.4-.4 2.9.9 6.05 3.15 29.85 19.15l7.4 5q2.5 1.7 2.8 1.4.3-.3-1.45-2.65-9.35-12.45-20.8-29.2-2.15-3.15-1.75-4.15.4-1.05 3.3.3l4.85 2.6q4.4 2.45 6.9 3.5 2.45 1.05 2.7.6.25-.4-1.25-2.95-7.45-12.05-9.15-16.85l3.5.95q4.05 9.35 7.2 14.55 4.35 7.3 3.8 8.35"/><path fill="#0d131a" d="M406.3 227.9q8.1 17.05 2.85 27.9-3.85 8.05-13.65 17.8-10.55 10.4-19.2 13.7-5.75 2.15-6.4 1.45-.5-.55 1.2-6.3 3-9.8 1.35-20.45-1.6-10.1-6.35-15.3-2.75-3.05-1.2-2.85 1.6.15 4.1 3.25 11.45 14 3.85 38.1 8.2-1.9 19.3-12.35 10.4-9.8 14.35-18.1 1.8-3.75 1.8-8.35 0-9.65-6.85-21.25-5.9-10.05-10.4-12.45-3.55-1.9-13.65-1.4-9.7.45-11.35 2.1-1.1 1.1-4.75 7.9l-3.8 6.7q-2.25 3.65-3.85 5.55-5.45 6.2-20.2 12.55-13.6 5.85-19.65 5.85l-3.5-.4-4.75-.45q-2.6.05-3.9 1.4-1.4 1.35-6.15 5.15-6.1 4.8-8.9 7.5-4.85 4.65-5.75 7.95-.25.8-.25 2.35 0 6.55 4.95 19.95 4.7 12.75 10.4 22.6 1.85 3.15 2.35 3.45.85.5.85-3.3 0-9.4 2.3-15.25 1.6-4.05 5.7-8.8 1.3-1.45 2.65-2.2 1.35-.8 4.5-1.8 5.3-1.65 8.2-4.75 2.8-3 3.55-7.65.6-3.7 1.2-4.05.65-.45.8 4.05.15 6-3.55 9.7-2.9 2.95-8.5 4.7l-2.9.8q-1.7.45-1.95.8-4.4 5.05-6.55 10.4-2.85 7.15-3.25 17.8-.25 6.3-.9 6.5-.8.25-4.75-5.4-6.75-9.55-12.85-25.9-6.5-17.2-5.05-23.75 1.15-5.25 10.4-13.55 4.75-4.25 10.85-9.5 1.55-1.95 5.4-1.75l6.15.95 3.2.35q3.05 0 17.7-6.15 16.1-6.8 20.05-11.3 2.8-3.25 7.35-11.55 4.45-8.05 5.8-9.45 2.35-2.35 13.3-3 11-.7 14.8 1.4 2.5 1.35 6.3 6.3 4.1 5.35 7.2 11.8"/><path fill="#0d131a" d="M338.55 294.8q10 .85 17.35-2.3 3.7-1.6 3.3-.5-.4 1.05-4.1 2.65-9.05 3.85-18.2 2.85-10.8-1.15-15-9.2-.2-.35.7-.85l1.1-.1q3.4 6.45 14.85 7.45"/><path fill="#0d131a" d="M344.9 296.95q.85-.6 1.1-.25 2.4 3.6 11.35 5.1 8.15 1.35 13.8.05 10.45-2.35 18 1.25 6.95 3.3 8.95 10.25 1 3.3.45 3.95-.5.65-1.55-2-2.45-6.55-9.95-10.15-7.85-3.75-15.5-1.25-6.1 2-14.9.3-9.35-1.8-12.35-6.35-.25-.35.6-.9"/><path fill="#0d131a" d="M405.1 278.25q2.85 3.3 9.15 7.55l4.6 3.3q2.2 1.75 2.55 3.05 1.05 3.95 1.1 15.6.05 12.05-1.25 15.95-1.2 3.65-10.55 8.55-11.15 5.9-24.35 7.15-5 .5-5.35-.55-.3-1 3.05-5.25 4.55-5.65 6.7-10.5 3.5-7.7 2.15-15-.05-.4.8.1.9.5 1 .9 1.25 5.2-1.1 12.5-2.25 6.9-6.35 11.9-1.85 2.25-1.6 2.6l3.1-.05q11.1-1.55 20.85-6.5 8.65-4.4 9.75-7.65.8-2.45.8-8.95 0-5.6-.55-11.75-.5-6.05-1.15-8.35-.3-1.25-5.35-4.65-6.4-4.35-9.35-7.6-5.15-5.65-5.5-12.4 0-.25 1.05-1.25t1.05-.6q0 6.45 4.75 11.9M123.35 227.1l5.95-.8 8.7-.85q1.15 0 2.8 1.1l2.45 2.1q3.4 3.8 5.8 10.3 2.8 7.75 2.1 14.6-.3 2.6-6.4 7.95-6.35 5.55-9.9 5.55-5.7 0-13-2.3l-13.65-5.15-7.85-3q-2.9-1.05-6.4-.95l-6.75.85-3.75.55q-4.55 4.25-8.1 5.95-3.5 1.65-7.4 1.45-3.35-.2-3.55-1l.85-2.6q6.25-18.1 7.4-20.7 2.05-4.55 18.05-13.35l6-4.3 3 .1 5.35 1.45 8.75 2.3q5.6 1.25 9.55.75m17.55 3.1q-2.2-2.35-3.25-2.35l-13.1 1.2-1 .1-10-.4q-3.25-.5-9-2-5.7-1.45-6.35-1.15-3 1.7-6.05 3.35l-10.8 6.2q-5.8 3.7-6.8 5.85-1.95 4.4-6.6 20.6 2.25.2 5.4-.85 3.45-1.15 6.5-3.4l-2.35.15q-3 0-.9-.95t5.95-1.45l4.3-.65 7.1-1.2q4-.4 7.1.7l7.9 3.75q9.15 3.55 13.25 4.75 6.9 2 12.4 2 2.75 0 8.45-5.05 5.4-4.8 5.6-6.45.6-5.8-1.9-12.65-2.3-6.1-5.85-10.1"/><path fill="#0d131a" d="M40.5 194.25q12.15-11.3 15.95-11.65 3.9-.4 16 3.1 12.25 3.55 15.2 6.1l13.85 16.7q12.55 15.3 19.2 19.8l-1.65.25q-2.1-.05-2.6-.55-5.9-5.45-18.5-19.95-10.5-12.1-12.65-15-1.35-.95-14-4.3-12.7-3.4-14.85-3.4-2.4.3-13.7 10.7-11.55 10.65-12.4 13.85-.7 2.75-.7 6.6 0 8.85 3.7 20.55 3.5 10.9 8.15 18.35 2.3 3.65 2.7 3.55.25-.05.7-3.9 1.05-8.5 3.05-15.6 1.7-6.1 3.1-7.8 2.25-2.8 6.65-7.45 5.75-6.1 6.8-5.9.9.15 3.95 1.7 1.85.95 6.35 3.65 3.95 2.1 5.45 1.6l2.8-.1q0 .85-2.8 1.75-2.35.8-7.8-1.55-2.5-1.1-8.05-4.15-8.9 8.9-10.6 11-1.55 1.95-3.75 9-2.8 8.9-3.6 18.2-.3 3.35-1 3.5-.6.1-2.85-2.45-6.85-8-12.05-23.95-5.65-17.35-3.1-27.3.95-3.75 13.05-14.95"/><path fill="#0d131a" d="M27.85 231.3l1.95-.05.95 2.05-2.85.05-12 .65q-2.6 3-6.9 9.65-5.7 8.8-5.7 12.05 0 4.1 5.4 13.4 7.7 13.4 20.85 21.55-3.65-9.85-4.4-17.8-.8-7.55.95-14.45.8-3.25 1.8-3.65.95-.4.55 2.85-.8 6.55-.4 13.65.65 11.2 4.2 21.3.5 1.3-.15 1.65-.7.4-2.6-.65-12.7-7.1-21.6-20.15Q.8 263.05 0 256.25q-.45-4.1 5.9-14 5.85-9.05 8.15-10.35 1.4-.75 4.25-.75l9.55.15m36.3-10.85l1.05.1q1.2.55 1.2 1.2 0 3.4-.7 4.45-2.65 4.05-13.05 5.75.75-1.2 1.95-2.45 7.4-1.5 9.4-4.45 1.25-1.95.15-4.6"/><path fill="#0d131a" d="M119.25 262.7q.6-.2 1.85.65 1.25.9.75.95-2.95.1-10.35 6.55-7.75 6.8-11.15 7.5l-4.8-.15-4.65-1.2q-3.6-.9-5.3-.8-1.75.1-4.9 1.35l-5.6 2.15q-3.9 1.25-7.15 1.1-4.7-.2-10.05-3.15l-9.5-6.25q-8.35-5.7-10.8-6.95-5.95-3-10.55-1.8-.4.1-.7-.9-.25-1 .2-1.1 5.25-1.35 11.7 1.5 3.9 1.75 11.3 6.9Q55.8 273.3 59 275q5.35 2.8 9.7 3l6.25-.65 5-1.75q3.65-1.45 5.75-1.5 1.75-.1 5.7.85l4.1.9 3.9-.1q1.75-.4 4.35-2.2l4.9-3.85q3.55-2.95 5.3-4.15 2.95-2.1 5.3-2.85m115.95-97.95q-2.65 4.75-3.7 4.1-1.1-.6 1.4-5.3 8-15.15 26.6-32.55 19.1-17.8 39.95-29.15 3.85-2.1 5.6-1.75 1.8.3-2.05 2.4-19.85 10.8-40.6 30.25-19.45 18.25-27.2 32"/><path fill="#0d131a" d="M233.4 166.95q-.45-.05.2-.95.65-.9 1.1-.85 6.8 1.4 20.95.55 15.8-1 27.7-4.3 6.95-1.9 9.95-5.45 2.55-3.05 4.05-10 1.75-7.9 1.85-19.6.05-11.7-1.55-22.35-.05-.45 1.1-.85 1.2-.4 1.25 0 1.8 11.55 2 23.1.2 12.5-1.55 20.35-1.65 7.5-4.85 11.25-3.65 4.35-11.3 6.45-12 3.35-28.9 3.8-14.4.45-22-1.15m-35.9-6.1q1.8 4.6.75 5.05-1.1.5-3-4.05-4.45-10.55-17.05-30.8-12.35-19.85-19.6-28.35-2.55-3-1-3 1.5 0 4.1 2.9 8.9 9.9 20.1 28.3 10.9 17.85 15.7 29.95"/><path fill="#0d131a" d="M162.15 104.5q.95.3.85.7-2.7 8.65-2.4 23.1.3 14.4 3.35 21.35 2.6 6 13.6 9.9 9.8 3.45 19.1 3.1.45 0 .65.95t-.25.95q-10.15.35-20.8-3.05-12.5-4-15.4-10.7-3.1-7.1-2.9-22.2.15-14.6 3.05-24l1.15-.1m15.35 80.2q.55-.55 1.9-.2 8.2 2.15 14.75 3.25 1.6.25 2.15 1l1.05 2.3q2.2 4.95 5.8 10.2l1.3 1.65q.45 0 1.3-2.75l2.3-7.95.7-1.9q.45-.7 1.65-.6l15.05.45q1.6 0 2.2.55.3.25 1.4 2.25l5.6 10.95 1.35 2.2q.3.05 1.25-2.3 2.3-5.75 3.8-11.45l.6-2.25q.35-.65 2.05-.8 12.9-1.1 26.15-3.65l2.4.05 1 2q4.25 8.05 5.6 10.1 3.4-6 4.6-12.55.4-1.95.65-2.3.45-.7 2.4-1.2 17.55-4.85 28.05-9.65 2.9-1.3 2.95-.35.05.9-3.35 2.75-5.5 3.05-13.45 5.75l-14.8 4.35q-1.1 5.55-3.3 11.05-2.4 6-3.8 5.85-.5-.05-2.15-2.9l-5.6-10.4q-13.75 2.8-27.9 4-1.5 6.15-3.2 11-2.35 6.65-3.85 6.7-1.15.05-5-7.75l-4.35-9.15-16.7-.55-.3 1.1-3.2 11.35q-.7 2.1-1.4 2.15-1.35.15-4.9-5.9-3.2-5.4-5.25-10.5-8.8-1.5-16.2-3.7-1.55 8.05-2.6 9.35-.85 1.1-4.5-4.7-3.5-5.5-4.55-8.8-5.8-2.45-11.3-5.8-4.75-2.9-4.8-4.2-.05-1.25 4.7 1.65 4.1 2.45 11.55 5.8l1.2.9 1.25 2.65q2.05 4.3 4.35 7.25l1.05 1.1.55-1.5 1.1-4.3q.4-1.3.7-1.65"/><path fill="#0d131a" d="M309.1 175.5q.2-.35 1.4-.4 1.25 0 1.05.35-8.4 19.5-22.55 32.25-12.05 10.85-27.45 16.15l-1.9.05-2.05-1.4-5.15-4.95q-.9-.85-1.15-.85-.3 0-.75 1.05l-3.05 6.75-1.45 2.3q-.55.2-2.2-1.8l-6.05-7.6-.95-1.15q-.35-.05-1.25 1.5l-4.55 8.05q-1.1 1.9-1.6 1.9-.5.05-1.85-2l-5.75-8.7-1.2-1.55q-.4-.1-1.3 1.5l-3.5 6.5q-1.25 2.5-1.65 2.45-.45-.05-2.35-3.1l-4.95-7.7q-.6-.95-.9-.95-.3 0-.7 1.05l-1.85 4.65q-1 2.1-1.65 2-.7-.1-2.55-2.9l-3.85-5.75q-.75-1.2-1.1-1.2-.3-.05-.65.95l-1.1 3q-.85 1.8-1.85 2-.95.15-2.8-1-10.5-6.75-18.95-18.6-5.05-7.15-12.45-21.5-.2-.35 1.1 0t1.45.65q6.25 11.9 12.35 20 8 10.6 17.3 17l1.55.95q.4 0 .9-1.35l1.6-4.6q.8-1.7 1.2-1.75.5-.05 1.8 1.9l4.55 7.1q1.1 1.7 1.3 1.65.25 0 .95-1.95l1.65-4.45q.95-2.35 1.45-2.35t2.05 2.55l5.45 9.25 1 1.35.95-1.55 3.6-7.55q1.15-2.3 1.7-2.3.5 0 1.95 2.2l6 9.4q.8 1.25 1.15 1.15l.9-1.45 4.2-7.7q1.3-2.3 1.85-2.35.55 0 2.25 2.15l5.9 7.75q.8 1.1 1 1l.7-1.45 2.9-6.9q.9-2.05 1.4-2.1l2.15 1.5 6.15 5.9q.6.6 1.35.6l1.75-.4q14.45-5.2 25.45-15.1 12.9-11.55 21.65-30.1m-52.8-8.85q-.7.1-1.3-1.4-.7-1.7-1.05-5.25-.8-8.35.7-8.65.8-.2 1.45 1.95.7 2.25 1.05 6.3.2 2.8 0 4.8-.2 2.2-.85 2.25m-72-17.55q.7 0 1.2 2.05.5 1.9.7 5.05.25 3.35 0 5.15-.2 1.35-.55 1.4-1.5.15-2-6.15-.35-3.5-.15-5.55.2-1.95.8-1.95"/></svg>