<svg xmlns="http://www.w3.org/2000/svg" width="289" height="337" viewBox="-0.1 -0.25 289.25 337.35"><path fill="#664497" d="M243.1 57.8q25.2-3.95 41.45-2.15l-18 29.95q-14.5 23.9-21.95 37.85 4.9-1.9 12.6-3.6 7.2-1.6 11.95-1.95.7-.1.7.4l-.25 1q-.55 1.9-2.65 6.4l-3.65 8.15 10.35-.6q9.95-.25 11.7 2.4 1.75 2.7-11.95 16.8l-14.4 14.1q4.2-.2 9.45.85 5.4 1.1 5.65 2.4.25 1.2-10.75 12.65-9.15 9.55-15.95 15.9 2.2 14.65 1.4 27.15-.95 14.55-6.05 27.05-7.5 18.6-40.25 29.7-16.9 5.75-36.7 8.35-19 2.6-40.75-5.1-24-8.6-41.05-26.75Q68.25 242 59.95 221.4q-9.6-23.95-8.7-52 .25-8.55 1.5-17.8 1.45-11.1 3.7-18.35Q48 109.3 47.25 62.5q-.35-20.45 1.25-36.55Q50.25 9 53.65 2.2q.55-1.1.95-1.05.45.1 1.45 1.5Q70.2 22.85 77.5 32q13.9 17.4 23.05 22.85 3-4.9 10.3-11.45 7.15-6.4 11.1-7.9.15 4.05 1.4 9.85 1.25 5.9 2.85 9.7 10.25-15.1 24.65-27 16.3-13.45 31.8-17.35-1.6 7.8-1.6 24.85 0 8.5.3 15.45l8.65-2.4q10.1-2.4 17.6-2.4l-2.5 10.1-2.85 12.2q15.7-6.75 40.85-10.7"/><path fill="#664497" d="M1.9 193.5q.15-.85 3.75-3.2l4.25-2.85 1.15-.95q.5-.45.8-1.45.4-1.45 3.05-5.65 3.7-5.8 8.45-10.65 14.75-14.95 33.35-14.5 4.65.15 8.45 8 3.5 7.2 5.05 18 1.15 7.85-1.2 16.1-2.5 8.65-6.45 7.65-12.65-3.1-29.95.45-12.5 2.6-19.1 6.05-.85.45-1.1-2.65-.2-2.95.2-3.9l-4.35-.4-5.05-.25q-.3-.45 1.35-2.9L6.3 198q-4.6-3.05-4.4-4.5m123.15 70.8q5.4 11.65 1.65 17.2-10.35 15.3-33.8 24.5-8.2 3.25-15.9 4.85-6.7 1.4-8 .8-.75-.3-.35-1.9l1.1-3.35-6.5.4-3.85-.5q-.25-.4.85-3.95l1.1-3.8-1.55-.7q-1.5-.6-1.6-.9-.35-1.05 3.85-6.5l.95-.9q-1.8-2.4-3.75-8.65-2.75-8.65-2-16.1.75-7.55 7.55-15.4 7.2-8.25 15.9-10.15 6.5-1.45 13.7.05 8.95 1.9 17.65 8.2 7.85 5.75 13 16.8m46.75 2.55q12.2-9.7 22.9-12.9 12.45-3.75 24.55-2.5 11.9 1.2 16.15 6.45 8.8 10.8 10.05 31.2.9 15.2-1.75 24.15.85 2.95.85 6.8 0 3.95-1.05 4.35l-4.75-.1q-3.7-.45-4.8-1.15l-2.6 4.75q-1.85 3.25-2.6 3.7-.7.45-5.75-1.25l-5.45-2q-1.75 2.05-4.45 4.25-2.8 2.2-3.45 2.1-1.05-.25-5.45-11.75-17.55-7.4-29.65-18.95-11.75-11.25-14.1-22.15-1.1-5.1 11.35-15"/><path fill="#664497" d="M253.2 284.3q-8.45 1.95-13.25.1-4.9-1.95-8.05-5.9-3.85-4.85-3.7-11.4.15-5.25 5.4-8.6 4.85-3.05 7.3-1.6 1.95 1.2 11.65 10 10.4 9.5 10.25 10.85-.5 4.5-9.6 6.55m-30.9-110.6q14.55-1.2 26.5 9.2 6.85 5.9 11 13.55.95 1.7 1.9 1.2 1.3-.65 4.55-.95 3.9-.4 4.85.85l-.8 2.4q-.9 2.15-.65 2.15 1.15 0 4.1 1.15 3.7 1.45 3.7 3.15l-2.75 1.9q-2.75 1.6-2.75 1.85l2.25 2.1q2.15 1.9 1.95 2.45-.15.4-2.5 1.15l-2.65.8q-5.6 3.1-15.15 5.3-8.5 1.95-16.35 2.4-6.4.4-14.7-1.35-9.1-1.95-13.2-5.15-2.35-1.9-5.1-8.9-3.65-9.25-2.45-17.9.8-5.9 7.95-11.8 6.3-5.15 10.3-5.55"/><path fill="#fff" d="M174 173.5q2.4-.9 3.1.55.5 1.1.05 3.3-1.5 6.6-4.8 13.4-3.4 7-7.45 11.6-1.9 2.1-5.65 4.6-4.6 3.05-8.05 3.8-13.4 2.8-33.95-2.15-20.45-4.95-28.9-12.85-6.2-5.85-11.05-12.75-4.7-6.7-6.1-11.4-.75-2.5-1.65-7.1-1-5.1-.4-4.45 5.65 5.9 20.65 11.4 14.65 5.35 27.05 6.25 13.4 1 26.3.6 20.35-.65 30.85-4.8"/><path fill="#593984" d="M284.05 136.15q1.4-.75 1.8-.25.35.45-.25 1.55-2.15 3.7-15.75 18.2-14.55 15.55-19.2 17.85l-1.1-5.4-1.15-4.8q2.55-1.25 17.1-12.55l18.55-14.6M251.2 184.6l9.2-6.15 11.7-8.4q1.35-1.15 1.15.35-1.3 2.45-9 10.6l-8.75 8.95-1.85-2.35q-1.6-1.7-2.45-3M176.35 29.7q3.05-12.1 5-16.2l.5-.55q.35-.3.3.35-.85 6.7-1.45 16.65-.75 13.1-.05 19.15.05.6-.45 1.6l-.95 1.1-3.1 2.05q-1.45.75-1.9-.75-2.05-6.9 2.1-23.4m30.85 19.65q-.1 2.45-2.05 9.9-1.95 7.4-1.95 8.25-1.4.1-4.05 1.75-2.8 1.75-3.9 1.95-1.15-1.45 3.75-12.45 4.95-11.1 7.15-10.85l.6.45q.45.45.45 1m-84-3q1.15 5.15 2.45 9.1l-2.75 5.45q-1.6-1.85-2.8-4.4-1.5-3.05-1.75-5.8-.3-3.5 1.4-9.05 1.55-5.1 2.15-5-.05 3.45 1.3 9.7M47.65 27.4q.35-2.85 1.2-4.65.85-1.85.9.65.45 20.05 4.15 43.5 4.6 29 11.95 45.4l-4 7.95q-3.65 7-5.8 11.95-7.7-23.6-9.45-58.5-1.45-27.9 1.05-46.3m4.75 168.85l1.75 6.95q-9.6-.75-15.15.25-3 .55-14.9 4.35l-.9-.6q-.7-.7-.15-.95 22.75-9.95 28.1-15.75.05 1.25 1.25 5.75m201.3 26.35q-7.9 1.95-13.75 2.25-7.2.45-16-1.6-8.4-2-11.25-4.5 8.3.65 19.3.3 11.3-.35 16.25-1.55l4-.55 2.35.05q1.8 1.8 9.45.55l7.25-1.6q-7 4.1-17.6 6.65m-144 45.7q25.45 13.2 49.3 12.5 1.6-.05 3.75 4.8 2.2 4.85-.3 5.1-12 1.3-25.95-2-14.35-3.45-27.9-11.15-31.2-17.75-45.1-49.1-1.6-3.55-1.85-4.7-.2-.95.65.4 17.65 28.65 47.4 44.15"/><path fill="#593984" d="M106.1 276.55q1.45 1 7.3 3.5l9 3.95q2.95 1.4-4.8 8.4-7.45 6.75-14.9 10.2-4.2 1.95-12.05 3.95-7.7 1.95-6.5 1.25 7.65-4.4 14.55-14.55 6.45-9.45 7.2-15.9v-.85l.2.05m137.6 9.3q-3.05-17.9-.95-15.75 3.45 3.6 10.1 6.85 5.35 2.65 8.65 3.35 1.8.4-5.6 3.5-7.35 3.1-12.2 2.05m8.05-191.65q11.5-14.65 21.15-25.7 9.85-11.25 10.75-10.6-5.45 7.45-22.9 37.05-18.25 30.85-25 44.5l5.85 7.85q3.7 5.55 5.25 10.3 2.25 6.75 3.9 17.25 1.5 9.95.7 9.75-1.45-1.35-7.15-4.7-7.45-4.3-13.5-6.25 0-9.95-2.45-19.8-2.2-8.85-5.55-14.7-1-6.6 28.95-44.95M232 224.75l10.35-.55 7.45-1.35q-1.6 12.4-11.25 38.7-3.6-5.1-6.2-7.25.45-5.35-1.4-12.95-1.65-6.85-2.65-7.25-6.6-2.2-11.75-7.5-4.4-4.5-5.55-8.7 4.2 2.1 10.75 4.25 6.3 2 10.25 2.6"/><path fill="#0d131a" d="M100.6 53.8q1.15.85.35 1.8-.85 1-1.55.45-9.85-7.4-23.4-23.2Q63.15 17.85 56.75 7q-1.25-2.15-1.7-2.25-.85-.2-1.8 3.1Q47.9 25.6 49 65.2q1.1 39.6 7.7 64.6.8 3.2.5 5-.35 1.85-1.6-1.35Q47.7 113 45.8 70.6q-1.95-43.05 4.55-63.95Q52.3.35 54.6.05q2.25-.3 5.25 5 7.2 12.45 20.2 27.9Q92.7 48 100.6 53.8"/><path fill="#0d131a" d="M125.15 46.6q1 5.2 2.05 8.05.25.6-.65 1.65-.9 1.05-1.25.2-1.6-3.8-2.8-9.75-1-4.9-1.2-8.15l-.15-.6-.6.1q-4.95 2.95-13.2 11.2-11.6 11.55-15.75 21.85-.65 1.65-1.35 1.3-.7-.4.15-3.25 2.1-6.95 11.85-18.15 9.15-10.55 16-14.9 3.75-2.4 4.55-2.2.7.15.95 3.1.4 4.5 1.4 9.55"/><path fill="#0d131a" d="M182.8 33.4q-.75 10.5-.6 16.5.05 1.85-1.1 2.3-1.15.45-1.3-1-.75-7.6-.25-17.1.35-6.3 1.5-16.75.45-3.7-.2-4.4l-2.7.2q-13.25 4.45-28.9 18-16.4 14.15-25.3 29.85-1.1 1.95-1.55 1.45-.45-.55.45-3.15 3.6-9.9 19.2-25.35 17.8-17.7 34.75-24.25 6.95-2.7 8.05-1.7.75.6-.05 6.15-1.2 8.55-2 19.25"/><path fill="#0d131a" d="M202 45q6.6-.5 7.3.1.5.45-.85 4.75-2.75 8.75-4.1 17.15-.2 1.35-1.2 1.75-1 .35-.95-.8.15-4.25 1.05-9.3l1.55-7.4q.5-2.6-.1-3.05l-3.4-.1q-6.15.75-12.7 2.5-6.15 1.6-11.45 3.75-3.6 1.45-3.75.6-.2-.8 3-2.55 4.85-2.65 12.35-4.8 7.5-2.2 13.25-2.6m58.05 72.55l10.4-.3q1.05.65-1.25 7.15-2.2 6.15-4.25 9.2-.7 1.05-2.4.75-1.75-.3-1.25-1.15 2.95-4.65 4.8-9.05 1.75-4.25 1.05-4.55-1.05-.45-7.5.9-8 1.65-16.25 5.1-1.5.65-1.1-.7.4-1.35 2.35-2.45 5.85-3.25 15.4-4.9"/><path fill="#0d131a" d="M243.2 59.25q-23.45 3.85-45.2 11.8-5.15 1.85-5.6 1.3-.45-.55 3.8-2.8 11.9-6.25 35.95-11.25 25.05-5.25 44-4.85 9.15.2 9.95 1.85.65 1.5-4.15 9.2l-23.1 37.25q-9.5 15.75-19.35 33.15-4.4 7.75-4.95 6.55-.6-1.2 3-8.15 8.3-16.1 22.2-39.45Q270.45 76 280 61.15q1.75-2.7 1.3-3.6-.4-.8-3.4-.95-14.65-.6-34.7 2.65m-187.05 70q5.15-14.95 12.55-24.5 3.6-4.7 5.45-6.2 2.1-1.75-1.65 4.55-9.85 16.5-14.25 30-5.2 15.7-5.75 34.8-.9 30.5 9.95 55.75 9.7 22.5 27.7 38.8 16.2 14.7 36.3 21.9 18.9 6.85 35.75 5.2l1.65 1.25q1.4 1.25 1.05 1.3-19.3 1.85-39.6-5.15-21.25-7.35-38.05-22.65-18.4-16.65-28.15-39.95-10.8-25.8-9.8-57.1.65-20.05 6.85-38"/><path fill="#0d131a" d="M3.5 193.85q0 .3 1.4 1.4 1.3 1.05 2.1 1.45.75.35.6 1.25-.15.9-1.75.25Q-.1 195.9 0 194q.1-1.25 4.8-4.2 4.85-3 4.95-3.35 4.3-11.75 15.25-21.4 12.2-10.75 27.5-13.6 1.55-.3.85 1.85-.75 2.15-2.15 2.45-13.6 3.2-23.8 11.5-10.3 8.35-15.6 20.65-.3.7-4.35 3.2-3.95 2.45-3.95 2.75m121.8 92.1q-10.1 12.4-30.55 21.1-8.65 3.7-15.95 5.1-7.45 1.45-10.9 0-1.45-.6-.35-3.95.7-2.2 1.85-4.15 1.75-3 2.45-2.65.7.3-.15 3-.6 1.75-.75 3.15-.15 1.65.4 2.1 1.05.85 7.35-.65 6.6-1.65 14.4-4.85 20.75-8.5 28.6-19.15.6-.8 2.4-.3 1.85.45 1.2 1.25"/><path fill="#0d131a" d="M63.45 298.5q-.85 1.6-1.65 4.1-.85 2.65-.55 3.1.5.7 8.5-.95 1.6-.1 1.2.8-.3.8-1.35 1.25-2.75 1.25-6.4 1.95-4.45.85-5.25-.45-.65-1.05.7-5.2 1.35-3.95 2.6-5.35 1.45-1.65 2.35-1.4.9.25-.15 2.15"/><path fill="#0d131a" d="M57.55 293.5q2.3-3.7 4.5-5.2.65-.5 1.65.65.95 1.1.35 1.5-2 1.35-3.5 3.7-1.3 1.95-1.15 2.5.15.35 1.55.6l2 .35q.55.1 0 1.3-.6 1.2-1.3 1.15l-2.9-.35q-2.3-.5-2.85-1.4-.65-1.05 1.65-4.8"/><path fill="#0d131a" d="M70.35 243.4q2.3-1.2 2.6.15.3 1.35-.95 2.05-11.55 6.7-13 21.5-1.55 15.25 9.3 27.3 2.05 2.25 1.45 3.1-.55.85-2.9-1.55-14.05-14.4-11.1-31.35 1.25-7.05 5.35-12.85 3.9-5.55 9.25-8.35m88.4 38.05q-1.65-6.05-.55-6.2 1.1-.15 3.35 6.05 5.35 14.7 17.9 25.35 9.45 7.95 25.5 15.35.85.4 2.85 5.5 2 5 2.55 5.15 1 .3 3.9-3.25l2.65-3.55q10.3 5 11.35 4.65 1-.3 4.65-10 8.9 2.8 9.7 2.1.65-.6.45-2.55-.3-2.25-1.65-5.4-.1-.3.15-1.25 3.4-11.75 1.1-27.6-2.45-16.7-10.05-28.85-2.55-4.1-1.3-4.35 1.25-.2 3.7 2.95 9 11.7 11.25 29.7 1.9 15.75-1.85 28.05-.1.3 1.15 5.25 1.05 5.15.25 6.45-.85 1.35-5.9.3l-5.3-1.35-1.5 4.6q-1.85 4.85-3.5 5.8-1.1.65-6.7-2.1l-5.35-2.85-3.3 3.9q-3.55 3.8-4.8 3.55-1.75-.35-4.1-6.65-2.45-6.5-3.6-6.95-18.05-7.4-28-16.65-10.95-10.2-15-25.15M77.2 118q1.9 6.5 9.9 21.2 9.05 16.6 15.2 22.55l1.7 1.55q.65.7-.1.65-11.05-.7-19.2-3.4-9.85-3.3-13.35-9-4.1-6.75-2.55-16.6 1.55-9.7 7.75-17l.25-.3q.25-.15.4.35"/><path fill="#e50020" d="M76.9 120.4q1.55 4.5 9.8 19.75 9.25 17.05 13.2 20.7.9.85.35.9-6.15 0-13.55-2.5-9.55-3.25-12.8-8.7-3.95-6.6-2.5-16.2 1.25-8.5 5.5-13.95"/><path fill="#0d131a" d="M175.95 163.35q-6 5.15-20.55 5.6-13.1.4-23.7-2.8-1.15-.35 0-.6l2.8-.75q6.75-2.7 26.55-14.6 19.1-11.5 21.3-13.8 1.1 6.85-.2 14.1-1.55 8.85-6.2 12.85"/><path fill="#e50020" d="M172.45 162.6q-7.05 4.35-20.9 4.35-10.05 0-15.8-1.5 4.4-2.1 22.7-13.05 19.25-11.5 22.05-13.95.85 3.4-.2 10.15-1.55 10.1-7.85 14"/><path fill="#0d131a" d="M181.85 164.55q.25-1.8 1.1-.7.8 1.1.25 3.7-1.6 7.6-20.2 10.85-18.9 3.25-46.4.35-14.7-1.55-30.05-7.85-15.3-6.3-20.35-12.85-1.45-1.9-.8-2.2.7-.3 2.95 1.85 6 5.75 18.85 10.9 13.95 5.65 28.65 7.4 27.1 3.2 45.6.2 19.2-3.15 20.4-11.65"/><path fill="#0d131a" d="M176.85 173.15q.45-1.9 1.55-2.35 1.05-.4.85 1.2-1.4 11.5-6.5 21.55-6.85 13.5-17.95 17.85-3.65 1.4-11.8 1.45-8.7.1-18.35-1.45-24.55-3.95-37.2-14.75-7.45-6.4-11.65-12.95-6.75-10.6-7.7-24.2-.1-1 .8-.45.9.6 1.1 1.8 1.1 8.4 5.1 16.35 5 10.1 13.8 17.7 11.2 9.65 35.45 13.8 9.85 1.65 18.3 1.65 8.35 0 11.8-1.65 10.75-5.1 17.15-19.05 2.65-5.75 5.25-16.5M90.2 147.5q.55 2 .45 3.9-.1 2.5-.6 4.2-.5 1.75-1.15 1.75-.6 0-.95-2.1-.3-1.75-.3-3.9 0-2.1.35-3.9.45-2 1.05-2 .65 0 1.15 2.05m75.15 7.95q0 2.1-.4 3.8-.55 2.25-1.6 2.25-.8 0-1.45-2.3-.55-2-.55-3.85 0-1.8.5-3.55.6-1.95 1.4-1.95.8 0 1.45 2 .65 1.85.65 3.6"/><path fill="#0d131a" d="M83.15 191.1q-.65-3.95-1.3-11.5l-1.05-12.1q-.1-1.2 1.25-.45 1.4.7 1.3 1.75-.1 2 2.4 24.25 0 .95-1.05.7-1.15-.3-1.55-2.65m17.6-2.85l1.5 15.1q.15 1.3-1.2.65-1.4-.7-1.6-2.65l-1.5-13.75q-.8-8.4-.65-13.9.05-1.35 1.35-.9 1.35.45 1.25 1.8-.15 2.4.85 13.65m23.7 6.3q-1.35-14.1-1.15-16.55.1-1.15 1.35-.8 1.25.4 1.3 1.65 1.35 19.85 3.6 31 .3 1.55-1.15 1.75-1.4.2-1.9-1-.7-1.7-2.05-16.05m27.55-.95q-1.85-12.95-1.9-14.75-.05-1.35 1.4-1.3 1.4.05 1.5 1.1.35 3.9 2.15 15.05l2.25 13.9q.3 2.1-.95 3.05-1.25.9-1.65-.45-.8-3-2.8-16.6m76.05-20.6q10.4.7 19.1 6.6 10.15 6.85 13.8 18.5.3.9-.75 1.4-1.05.5-1.5-.8-2.9-8.5-11.25-15.1-8.85-6.95-20.8-9.3-1.7-.35-1-.85.7-.55 2.4-.45m10.9-38.75q9.6-1.95 28.25-2.1 19.8-.15 20.7 2.5 1.25 3.6-15.65 21.3Q256.2 172.7 251.6 175l-1.55-.1q-.3-.75 1.3-2.45l17.6-17.65q15.8-16.5 14.7-18.45-.85-1.45-18.25-1.35-18.25.15-28.4 2.3-1.35.3-.35-1.25.95-1.55 2.3-1.8M192.9 165.8q.1-3.5-1.1-5.25-1-1.5-2.9-1.55-3.55 0-.95-.95 3.45-1.25 5.25.85 1.9 2.2.95 7.05-.4 2.05-.85 2.15-.45.1-.4-2.3"/><path fill="#0d131a" d="M267.5 169.1l-9.95-.7q-.9 0-.25-1.25.65-1.3 2.2-1.4 4.75-.35 10.9.9 6.1 1.2 6.6 2.65.45 1.35-9.6 11-9.85 9.5-11.6 10-.6.2-1.3-.6-.7-.75 0-1.35 4.85-4 11.45-10.95 6.2-6.55 6.05-7.1-.2-.6-4.5-1.2M245 286.55q-2.15-.9-2.2-2-.05-1.2 2.65-.95 5.05.4 9.7-1.2 4.7-1.65 5.6-4.3.55-1.6-5.95-8.15-6.65-6.75-14.15-11.95-.6-.45.05-1.65.6-1.25 1.1-.95 6.75 4.35 14.2 11.2 9.9 9.1 8.9 12.95-1 3.85-9.25 6.15-7.55 2.1-10.65.85m-236.9-91q1.6-1 1.75-.45.15.5-.8 1.8l-2.7 3q-1.8 1.95-1.55 2.4.35.55 3.3.55l5.3-.4q.3-.05.4.9.1.9-.45 1.05l-7.1.7q-4.4.05-4.9-.8-.65-1 1.15-3.55 2-2.9 5.6-5.2"/><path fill="#0d131a" d="M53.65 201.55q1.05.1 1.55 2.05.5 1.9-.95 1.7-13.05-1.9-28.35 2.8l-9.25 3.25q-3.85 1.35-4.55.95-1.15-.6-.9-4.1.15-2.95.9-4.9 1.05-2.85 1.9-3.05.8-.25.4 2.45l-.5 3.65q-.3 2.3.1 2.65.3.3 3.4-1 4.9-2.1 8.05-3.15 13.9-4.7 28.2-3.3m216.85-5.9q2.85.55 1.1 3.25-1.05 1.55-2.9 5.9-.75 1.75-1.3 1.35-.6-.4.15-2.85.35-1.25 1.2-3.2l.7-1.9-3.75-.1q-4.15.55-6.9 2.25-.55.3-1.05-.45-.5-.8.1-1.25 2.5-1.85 6.2-2.75l6.45-.25"/><path fill="#0d131a" d="M278.55 206.25q.1 1.55-6.85 5.05-2 .95-2.15.35-.1-.55 1.7-1.95l3-2.3 1.5-1.25q-.15-.95-2.25-1.85-2.5-1.1-5.3-.6-.8.15-.4-.75.35-.9 1.55-1.2 3.05-.7 6.2 1.15 2.85 1.7 3 3.35"/><path fill="#0d131a" d="M270.75 210.25l1.65-.2q1.7.3 3.45 2.6 1.7 2.25 1.2 3.2-.35.75-3.1 1.1l-2.95.3q-16.9 7.5-31 8.6-15.5 1.15-26.25-5.55-3.9-2.4-3.05-2.85.85-.4 4.95 1.55 11.5 5.5 28.8 3.15 10.2-1.35 26.3-6.5l2.3-.4q1.5-.25 1.6-.6.2-.45-1-1.65-1.25-1.25-2.85-2.15-.5-.25-.05-.6"/><path fill="#0d131a" d="M250.95 222.95q-2.2 13.95-4.2 21.8-3.05 11.9-7.55 19-1.6 2.55-1.95.8-.35-1.65.45-3.6 3.4-8.5 5.6-16.7 2.3-8.8 4.05-20.5.15-1.1 1.95-1.5 1.85-.4 1.65.7m-10-75.05q-1.2-2.25.1-1.4 1.25.9 2.9 3.7 4.3 7.3 6.5 17 1.75 7.7 2.25 17.75.15 3.55-1.8 1-2.05-2.55-2-4.3.2-8.15-2.05-17.45-2.15-9.05-5.9-16.3"/><path fill="#fff" d="M88.95 148.45q.1-1.4.25-1.4.2 0 .2 3.7 0 2.95-.25 2.95-.35 0-.35-2.8l.15-2.45m74.75 6.2q0 3.25-.35 3.05-.4-.2-.4-3 0-3.65.35-3.65.4 0 .4 3.6"/><path fill="#0d131a" d="M185.65 134.95q-3.9 4.2-19.85 13.95-15.2 9.3-28.75 16.05-3.1 1.55-4.85 2.1-2.55.8-4.65.4-2.35-.4-2.9-1.85-.2-.5-.05-.85l.4-.05q1.25 1.2 4.1.85 2.75-.4 6.3-2.2 9.7-4.95 23.35-13.1 15.75-9.4 24.6-16 3.1-2.3 3.8-1.95.65.4-1.5 2.65M76.7 114.3q2.65 11.2 11.75 26.5 8.35 14 16.3 22.15 1.9 1.9 1.15 2.45-.8.55-3.7-2.3-8.95-8.85-17.25-23.7-8.35-14.75-9.65-24.05-.4-2.65.2-3.15.55-.5 1.2 2.1"/></svg>