<svg xmlns="http://www.w3.org/2000/svg" width="487" height="493" viewBox="-0.7 0.0 486.95 492.6"><path fill="#0d131a" d="M474.55 229.55q1.1-.4 2.9.3 1.45.55 2.95 1.65 5.85 4.35 5.6 7.85-.35 5.4-2.6 13.9-2.75 7.7-5.95 10.85-2.65 2.6-7.1 4.85-5.3 2.6-9.2 2.4-1.7-.1-4.9-1.85-3.1-1.7-4.05-2.9-4.7-5.75.5-21.25 1.6-4.8 9.65-9.8 5.65-3.55 12.2-6"/><path fill="#c4bfd7" d="M483.05 244.8l-1.05 3.05q-4.2 11.65-6.25 13.65-2.25 2.2-6.7 4.15-5 2.15-8.6 1.95-2.75-.15-4.1-1.8-2.6-3.25-2.85-9.05-.25-5.3 1.45-10.3 1.25-3.8 10.15-9.75 4.4-3 8.6-5.25 1.6-.7 2.95-.25l2.75 1.6q1.8 1.35 2.9 3.05 1.3 2 1.2 3.9l-.45 5.05"/><path fill="#a5a1b5" d="M483.5 239.45v.3l-.45 5.05-1.05 3.05q-4.2 11.65-6.25 13.65-2.25 2.2-6.7 4.15-5 2.15-8.6 1.95-2.75-.15-4.1-1.8-2.25-2.75-2.75-7.7 14.9-1.9 19.2-3.8 8.8-3.9 10.7-14.85"/><path fill="#0d131a" d="M469.2 236.05q1.1-.55 2.55 2l4.35 9.7q2.2 5.15 2 6.1l-1.5 5.05-1.55 4.45-2.25.85 2.5-5.4 1.7-4.15q0-.7-2.55-6.2l-5.15-11.1q-2.05.9-6.45 3.15l-6.95 3.8-.9-1.45q3.85-2.35 14.2-6.8m-58.65 52.75l14.4-13.6L435.7 265q5-4.8 6-6.2 1.2-1.6 8.15-1.9l8.25.45q2.05.8 4.8 8.7l2.35 7.8-1.45 22.8-.45 2.25q-2.4 4.1-12.8 16.9-10.75 13.25-14.15 16-2.35 1.9-8.75-.25-5.15-1.8-8.25-4.05l-2.45-1.7-5.5-3.25q-3-1.65-3.4-2.1-2.7-2.9-4.6-12.55-1.8-9.15-.8-10.8.95-1.6 7.9-8.3"/><path fill="#c4bfd7" d="M444.1 261.7q.75-1.05 5.95-1.5 4.95-.4 6.35.1 1.15.45 3.3 5.1 1.8 3.95 3.05 7.95l-2.2 23.75q-2.55 4.2-12.3 16.25-10.15 12.55-13.3 15.15-1.8 1.5-7.2.4-4.95-1-7.4-2.75l-2.45-1.75q-6.45-4.35-7.3-5.25-2.4-2.7-4.15-10.55-1.6-7.1-1.05-8.55 1.45-2.4 20.85-20.75l11.4-10.9 6.45-6.7"/><path fill="#a5a1b5" d="M460.55 297.1q-2.55 4.2-12.3 16.25-10.15 12.55-13.3 15.15-1.8 1.5-7.2.4-4.95-1-7.4-2.75l-6.85-4.8q14.75-1.75 28.25-17.85 7.75-9.25 21-29.75l-2.2 23.35"/><path fill="#0d131a" d="M448.35 259.65l2.2-.65 1.05 8.1q1.1 9.6 3 17.4 1.1.2 4-4.35l5-7.65.75 2.75-4.9 7q-3.15 4.65-3.85 5l-2.3.25-.15-1.2-2.85-16.7-1.95-9.95"/><path fill="#0d131a" d="M446.55 295.9q4-5.2 6.8-10.2l1.3 1-7.05 10.55-15.15 18.45-19.3 7.45-1.35-3.55 19.6-5.25 5.3-6.2 9.85-12.25"/><path fill="#0d131a" d="M431.55 315.75l2.15-2.85q1.2.6 1.45 6.2l.25 9.1-.75 1.3q-.3-3.95-1.4-8.65-1.05-4.55-1.7-5.1m-37.7-.05q3.9-2.85 10.2-4.35 5.85-1.4 8.35-.6l.35.15 3.9 3.2 4.6 3.85q2.4 2.35 3.35 4.45 1.25 2.6 3 9.65 1.9 7.8 1.3 9.85-1 3.5-3.8 7.15-3.05 3.9-6.1 5.25-3.95 1.65-10.95 2.4l-11.8.75-3.05.1-8.45-23.4.05-.3q.1-3.9 3-9.8 2.95-6.1 6.05-8.35"/><path fill="#c4bfd7" d="M396.05 318.55q3.25-2.35 8.8-3.8 5-1.25 7-.8l3.5 2.95 4.2 3.5q2.2 2.05 2.95 3.75 1.05 2.2 2.4 8.15 1.3 5.9 1.3 8.2l-.05.6q-.85 2.85-3.3 6.1-2.6 3.4-5 4.4-3.55 1.55-10.45 2.25l-11.25.7-.95.05-7.5-20.85q.2-3.25 2.95-8.25 2.8-5.1 5.4-6.95"/><path fill="#a5a1b5" d="M389.8 339.55l10.4-.05 10.05-.5q10.9-1.35 14.25-8.25 1.7 6.8 1.7 9.75l-.05.6q-.85 2.85-3.3 6.1-2.6 3.4-5 4.4-3.55 1.55-10.45 2.25l-11.25.7-.95.05-5.4-15.05"/><path fill="#0d131a" d="M400.8 353.2l-1.25-.5 3.95-12.3q3.25-9.75 4.55-10.7 1.65-1.15 6.8-3.75 5.45-2.75 8.05-3.65l.45 1.3q-2.4.8-6.85 3.25l-5.65 3.4q-.85.65-3.95 7.9-2.8 6.45-6.1 15.05"/><path fill="#0d131a" d="M366.25 331.3q7.5-6.6 10.8-6.05l12.1 4.3q11.9 4.65 11.95 6.7l1.25 6.8q2.65 12.25 2.25 15-.5 3-3.9 6.25l-6.15 4.75-.6.4q-4.1 2.85-12.65 4.4-11 1.95-15.35-2.95l-.3-.3-6.8-32 .5-.55q3.15-3.5 6.9-6.75"/><path fill="#c4bfd7" d="M376.6 328.1q2.75.45 11.5 4.15 8.1 3.4 10.2 4.75l1.25 6.65q2.2 10.3 2.2 13.15l-.05.8q-.3 2.2-3.4 5l-5.4 4.1-.6.4q-2.55 1.75-11.35 2.95-9.8 1.35-12.7-1l-6.25-29.6q3.4-3.75 7.9-7.45 5.1-4.15 6.7-3.9"/><path fill="#a5a1b5" d="M399.4 343l.15.65q2.2 10.3 2.2 13.15l-.05.8q-.3 2.2-3.4 5l-5.4 4.1-.6.4q-2.55 1.75-11.35 2.95-9.8 1.35-12.7-1L365.7 357q16.4 3.6 23-.35 2.8-1.65 5.45-5.5l5.25-8.15"/><path fill="#0d131a" d="M375 331.05l-1.5-1.85q-1.2-.9.1-1.2l1.5-.15 4.4 6.3 3.25 6.9 3.6 4.75q.6.9-.3 7.05-.95 6.6-2.7 11.45-2.7 7.5-6.8 8.7l-.35-1.3q4.3-1.25 7-11.6 2.05-7.75 2.05-13l-.05-.55q-1.75-1.35-3.7-4.7l-1.8-3.35-1.85-3.5-2.85-3.95"/><path fill="#0d131a" d="M366.7 333.05q3.2 4.25 4.8 7.5 1.65 3.35 2.75 6.65 1.7 5.15.95 7.75-1.2 4.3-1.9 10.3-.9 7.9-1.55 11.25-.95 4.65-2.2 6.15-3 3.65-8.3 6.95-4.65 2.9-9.1 4.4l-2.9.45-3.55-.3-7.65.65-12.9.95q-2.1 0-4.55-2.4l-11.15-11.7-3.8-3.85v-.55q-.15-3.2.4-12.45l.5-11.1q.1-6-.4-8.75l-.2-1.05 31.9-15q2.55-.8 8.25-.9l5.8-.45 4.7-.55 4.25.4q2.05.65 5.85 5.65"/><path fill="#c4bfd7" d="M352.3 330.4l7.7-.25q1.15.4 4.25 4.45 3.15 4.05 4.65 7.2 1.5 3.05 2.5 6.65 1.15 4.1.65 5.85-.7 2.3-1.6 10.6l-1.3 9.55q-.9 5.25-1.8 6.35-2.65 3.25-7.55 6.3-4.4 2.75-8.6 4.15-1.3.45-5.25.05l-8.15-.45-13.25 1.2q-1.85-.95-13-12.4l-3.05-3.1v-1.05l.4-10.55.55-13.6-.3-5.75 29.6-13.95q2.45-.75 7.35-.75l6.2-.5"/><path fill="#a5a1b5" d="M336.1 367.85q6.75 10.15 15.15 12.75 6.2 1.95 15.15-.05l4.05-15.65-1.3 9.55q-.9 5.25-1.8 6.35-2.65 3.25-7.55 6.3-4.4 2.75-8.6 4.15-1.3.45-5.25.05l-8.15-.45-13.25 1.2q-1.85-.95-13-12.4l-3.05-3.1v-1.05l.4-10.55 13.6 1.45 13.6 1.45"/><path fill="#0d131a" d="M369.2 341.4l2.3 2.2-.85 1.05-2.4-2.3q-2.6-2.6-4.4-3.4l-5.8-.15q-3.25 1.05-9.95 6.75-4.55 3.9-9.8 9.15l-2.95 2.85-.2.55q-.15.7-.05 2 .4 5 3.65 12.8 3.1 7.4 4.9 8.55 2.75 1.75 5.6 1l7.85-1.5q5.6-.7 11.45.1l-.2 1.35q-5.75-.75-11.15-.1-3.2.35-7.65 1.5l-3.9.8q-1.8.2-2.85-.5-2.2-1.4-5.5-10.2-3.15-8.6-3.55-13.7-.2-2.75.75-3.65l2.85-2.8q6.5-6.5 10.15-9.7 6.7-5.95 10.15-7.05 3.65-1.15 6.75.5 1.8.9 4.8 3.9"/><path fill="#0d131a" d="M332.7 307l11.25 2.7.8.15.95 2.7 6.65 18.75q2.95 9.05 1.85 12.3-1.55 4.7-10.1 15.95-8.6 11.3-11.05 11.75-2.35.4-10.2 3l-13.35 4.6q-7.4 2.2-11.25.9-3.85-1.35-14.35-9.5-11.25-8.7-12.6-12.4-.35-1.05-.35-7.3l-.25-14.25q-.6-14.7-1.05-16.65l-.25-1.25 42.85-15.05h.2q4.7-.05 10.35 1.1 3.35.7 9.9 2.5"/><path fill="#c4bfd7" d="M350 343.25q-1.5 4.5-8.8 14.55-6.9 9.55-8.85 10.7-2.55.45-10.4 3.05-8.6 2.8-12.8 3.75-7.15 1.6-10.6.45-3.35-1.15-12.7-8.7-9.75-7.9-10.85-10.85-.6-1.75-1.4-19.95l-.95-15.9 40.05-14.05q4.4 0 9.75 1.1l9.5 2.35 10.6 2.6.4 1.15 4.7 14.55q2.6 9 2.6 13.05l-.25 2.15"/><path fill="#a5a1b5" d="M346.45 342.8q3.8-2.3 3.8-1.7l-.25 2.15q-1.5 4.5-8.8 14.55-6.9 9.55-8.85 10.7-2.55.45-10.4 3.05-8.6 2.8-12.8 3.75-7.15 1.6-10.6.45-3.35-1.15-12.7-8.7-9.75-7.9-10.85-10.85-.6-1.75-1.4-19.95-.15-4 18.35-4.7l12.65-.45q5.75-.3 5.6-1.25.2-.05.6 2.3l1 5.7-.1 1.5q-.2.8-.05 1.5l4.7 6.1q2.3 2.9 3.25 5.5 4.3 3.3 18-4.35l8.85-5.3"/><path fill="#0d131a" d="M278.4 332.35h1.35q0 .65 1.1 2.85 2 4.1 1.85 6.05-.35 2.95-2.2 9.7-2.1 7.7-3.7 10.3l-1.25-3.65q1.6-2.65 3.65-8.55 1.9-5.6 2.15-7.95.1-1-.45-2.55l-1.25-2.75q-1.25-2.4-1.25-3.45m27.5 2.5l1.05-.85 1.8 2.2q10.2 12.5 11.2 15.05.85 2.15-.55 11.65-1.3 9.1-2.4 11.2l-1.2-.6q.95-1.95 1.95-10.9 1-9.2.25-11-.6-1.6-4.25-6.65l-6.05-7.9-1.8-2.2"/><path fill="#0d131a" d="M331.05 337.3q1.55-.5 6.9-8.6 5.15-7.75 6.05-10.35l1.25.4q-.8 2.55-5.45 10.75-5.25 9.3-7.3 10l-20.45-.7-2.4-.15v-1.35l2.5.15 10.55.3 8.35-.45"/><path fill="#0d131a" d="M337.75 252.9l.4.4q1.85 1.75 5.8 4.95 3.65 3.1 6.2 6.7 1.65 2.3 3.5 6.75 1.9 4.5 2.4 7.55.5 2.95-1.45 11.75l-4.5 19-.8 10.25q-.55 3.1-6.9 6.2-8.2 3.5-12.2 5.45l-6.8 3.5q-6.85 3.85-10.85 5.4-6.7 2.6-12.65 2.4-1.9-.1-5.3-1.35l-5.4-2-4-.05-9.25-2.95L262.4 334q-3.95-.85-4.55-1.75-.95-1.35-6.05-17.65-5.45-17.2-5.2-20.6l.7-8.25q.75-6.35 2.15-11.15.9-3.15 4.3-11.75 2.45-6.3 2.4-8.45v-1.5h81.6"/><path fill="#c4bfd7" d="M351.85 279.75q0 5.9-5.6 29.6l-1.75 7.95q-.45 2.35-5.55 5.6-2.9 1.8-10.05 5.4l-6.95 3.55q-6 3.4-10.65 5.15-6.6 2.4-12.2 2.2-2.85-.1-9.05-2.1l-12.2-3.15Q262.4 330.5 261 329.4q-1.45-3-6.2-16.7-5.3-15.25-5.3-18.3v-.2q.15-2.15 1.5-7.35l2.85-10.15 3.3-11.65q1.6-6.1 1.85-9.25h77.55q2.5 2.4 5.4 6.1l4.8 6.45q4.35 6.1 5 10l.1 1.4"/><path fill="#a5a1b5" d="M336.55 255.8q.7.65-10.1 18.25-10.8 17.55-10.15 18.35-5.5 7.1-9.4 20.45-2.9 9.95-2.9 13.25-.05 3.2 4.45 7.1l4 3.3q-7.15 2.9-13.35 2.7-2.85-.1-9.05-2.1l-12.2-3.15Q262.4 330.5 261 329.4q-1.45-3-6.2-16.7-5.3-15.25-5.3-18.3v-.2q.15-2.15 1.5-7.35l2.85-10.15 3.3-11.65q1.6-6.1 1.85-9.25h77.55"/><path fill="#0d131a" d="M336.1 281.1l5.25-2.55q2-1.1 5.1-1.7l5.6.15q1.45.65 1.75 2l-1.3.3q-.25-.8-1-1.05-1.6-.7-4.9-.05-2.8.55-4.6 1.55l-5.3 2.55q-5.05 2.35-13.75 7.75-9 5.55-9.55 6.85l-5.1 15q-4 12-3.85 13.65.15 1.65 2.85 4.6l5.3 5.15 1.75 1.35-1.95.35-.75-.7-5.9-5.45q-3-3.15-3.2-5.05-.2-2.05 3.55-16.25l3.9-13.95q.9-2.65 26.1-14.5m-64.65-9.85l1.15-.65q.75 1.25 5.45 13.85 4.95 13.25 4.95 15 0 1.85-4.95 13.3-4.75 11.1-5.8 12.4-1.1 1.35-5.55 3-4.8 1.8-7.45 1.35l.25-1.35q2.3.4 6.75-1.25 4.1-1.5 4.95-2.6.95-1.15 5.15-12.6 4.2-11.55 4.2-13.1 0-1.5-4.3-14.05-4.15-12.15-4.8-13.3"/><path fill="#0d131a" d="M352 188.9l2.75 8.3 8.05 23.45q3.15 11 .2 14.4l-4.2 5.05-5.45 5.8q-2.7 3.25-3.45 6.65-.65 2.85-3.05 8.8-2.85 7.15-4.85 9.5-3.6 4.15-29.35 8.45-23.5 3.95-27.05 3.3-3.2-.55-10.65-3.9-8.45-3.95-11.85-5.4l-4.85-1.95q-2.3-.75-10.5-17.65-8.55-17.6-7.55-22.4 1.1-5.55 4.9-12.3l6.85-11.35 4.4-7.7L352 188.9"/><path fill="#c4bfd7" d="M350.7 243.85q-2.75 4.05-3.65 8.1-.45 1.95-3.25 7.65-3.05 6.15-4.9 8.25-2.85 3.25-26.1 7.6-21.65 4-25.85 3.5-5.05-.85-22.7-8.3l-4.65-1.85q-2.45-3.3-8.5-16.2-7.05-14.95-7.05-19.7l.1-.8q1.1-5.5 4.1-11.75 1.8-3.75 6.2-11.25l3.7-6.45L350 192l2 6.15q3.4 9.9 5.1 15.8 2.95 10.45 2.95 15.75 0 3.2-1.05 4.45l-2.7 2.95q-3.9 4.3-5.6 6.75"/><path fill="#a5a1b5" d="M352 198.15q3.4 9.9 5.1 15.8 2.95 10.45 2.95 15.75 0 3.2-1.05 4.45l-2.7 2.95q-3.9 4.3-5.6 6.75-2.75 4.05-3.65 8.1-.45 1.95-3.25 7.65-3.05 6.15-4.9 8.25-2.85 3.25-26.1 7.6-21.65 4-25.85 3.5-5.05-.85-22.7-8.3l-4.65-1.85-2.15-3.6q3.9.3 10.55 2.2 8 2.3 11.05 2.8 13.6 2.45 25.1-5.35l16.2-13.7q8.8-7.85 9.15-10 1.6-9.8-7.45-23.6-8.6-13.1-19.9-20L350 192l2 6.15"/><path fill="#0d131a" d="M339.45 213.65l1.55-8.4 1.35.25-1.1 8.4q-.95 8.85-.1 11.85 1.15 3.8-4.35 10.8-4.85 6.2-9.55 9.05-2.15 1.3-10.55 9.45l-14.55 14.35-9.55 9.25q-1.8 1.4-4.4 2.1l-5.1.15-2.9-1.1q-1.85-.9-2.15-2.15-.7-2.65-8.95-14.55-10.25-14.8-8.9-18 .5-1.15 1.75-9.1l2.3-13.2q.75-3.5 1.9-5.6l1.1-1.8 1.25.5-2.1 9.3-2.3 12.4q-1.15 6.85-1.6 8-.5 1.1 2.45 6.55 2.6 4.8 6.2 10.05l5.95 8.85q2.75 4.35 3.2 6.2.2.85 1.55 1.15l2.1.4q3.25 1.2 6.45-1.35l9.5-9.15q22-21.65 25.55-23.8 4.5-2.75 9.35-9.2 5.15-6.8 4.25-9.9-.95-3.2.4-11.75"/><path fill="#0d131a" d="M339.8 228.95l1.35-2.4q.15.9 2.9 7.6l4.1 11.9q1.55 5.15.95 6.5l-1.25-.55q.45-1.05-1.6-6.8l-3.6-9.65-1.8-4.1-1.05-2.5M326.55 113.5q9.6 1.35 13.75 2.45 5.95 1.55 7.55 3.9l2.6 1.55q2.5 1.15 3.9 2.6 9.5 10.05 10.95 13.9 2.7 7.25 3.85 20.8 1.3 15-1.25 21.7l-5.75 16.7q-6.35 16.65-9.9 17.55l-11.55 2.95q-6.3 1.65-16.4 3.7l-11.45 2.25q-8.4 1.65-25.1 1.8-17.55.15-20.4-1.95-5-3.75-15.15-17.05-10.5-13.75-10.95-17.9-.25-2.6 3.7-30.55 3.4-24.2 4.75-32.15l-.85-.5 68.8-13.35.35.1 8.55 1.5"/><path fill="#c4bfd7" d="M361.25 140.05q1.75 4.7 3 12.8 1.3 8.3 1.3 15.55 0 7.3-1.4 10.95-3.45 9.2-8.65 19.45-5.55 11-7.45 11.65l-7.1 1.9-28.7 7.35q-8.35 1.65-23.8 1.65-15.15 0-17.15-1.5-5-3.7-14.7-15.35-9.85-11.9-10.2-14.95v-.5q0-4.25 2.5-29.7 2.45-24.6 3.5-32.15l65.1-12.35 8.65 1.5 11.6 1.9q6.5 1.45 7.65 3.2 1.05 1.5 6.05 6.8l5.95 6.5q3.25 3.75 3.85 5.3"/><path fill="#a5a1b5" d="M326.15 116.35l11.6 1.9q6.5 1.45 7.65 3.2 1.05 1.5 6.05 6.8l5.95 6.5q3.25 3.75 3.85 5.3 1.75 4.7 3 12.8 1.3 8.3 1.3 15.55 0 7.3-1.4 10.95-3.45 9.2-8.65 19.45-5.55 11-7.45 11.65l-7.1 1.9-23.5 6.1q-.5.15-.3-.55.2-.6.7-1.3 2.15-3-.15-8.6-1.9-4.5-10.2-18.25-.15.05-4.95 2.45-3.3 1.65-4.5 1.65l-11.7-1.25q-9.3-1.55-17.7-1.9-2.6-.75-7.8-1.75-3.1-.6-4.8-1.65-4.45-11.45-4.75-34.5-.2-16.45 1.1-25.6l65.1-12.35 8.65 1.5"/><path fill="#0d131a" d="M259.1 189.2l3.35.5q0 2.2 1.15 12.85 1.2 11.55 1.85 12.7l-1.95-1.3q-.85-1.5-2.7-12.8-1.7-10.5-1.7-11.95"/><path fill="#0d131a" d="M324.05 139.55l1.2-.65 5 7.2q4.95 7.3 5.85 9.45 1.1 2.6-4.65 12.8-5.35 9.5-7.3 10.8l-12.9 8.7q-12.9 8.35-14.25 7.25l-6.35-1.35-11.15-1.5-16.25-1.6q-6.3-.8-7.25-1.5-2.05-1.55-3.35-8.95-1.3-7.45-.4-12.3l1.3.25q-.85 4.55.8 11 1.45 5.9 3.1 7.1 1 .75 8.1 2.35 7.75 1.7 14.1 2.3l13.05 1.3 3.95.8q1.45.15 12.8-6.5l13.95-8.45q1.45-1 5.9-9.7 4.7-9.2 3.85-11.25l-5.05-10-4.05-7.55"/><path fill="#0d131a" d="M331.9 70.35q12.05 4.35 12.45 7.1l1.1 7 5.05 30.5q2.1 12.85 1.75 14.45-.6 3.15-13.2 20.15-12.85 17.35-16.8 19.6-5.3 3.05-22.2 8.95-19.15 6.65-26.65 6.9-7.75.25-29.8-17.1-8.1-6.4-15.25-12.95-6.65-6.1-7.8-7.95l-.15-.2-12.8-48.6 52.55-47 .8.25 9.75 2.1q9.05 1.7 14.5 3.15 33.45 8.9 46.7 13.65"/><path fill="#c4bfd7" d="M341.6 85.4l3.55 22.75q2.3 15.65 2.3 18.85l-.05.65q-.55 2.7-11.65 19.55-11.55 17.5-14.9 19.45-4.55 2.6-21.4 7.75-18.35 5.6-25.55 5.85-6.7.25-27.9-15.3-19.55-14.3-22.9-19.35l-12.25-46.45 50-44.7 22.3 6.15q23.05 6.15 34.95 9.65 20.75 6.1 22.4 8.3l1.1 6.85"/><path fill="#a5a1b5" d="M334.45 112.8l-1.5 17.5q-.1 8.15 3.65 15.6-5.05 7.8-9.2 13.35-4.75 6.35-6.55 7.4-4.55 2.6-21.4 7.75-18.35 5.6-25.55 5.85-6.7.25-27.9-15.3-19.55-14.3-22.9-19.35l-12.25-46.45 50-44.7 19.75 5.45q8.05 12.2 17.85 21.6 10.3 9.85 21.25 15.35 2.35 1.15 7.2 8.25 4.6 6.8 7.55 7.7"/><path fill="#0d131a" d="M299.9 130.1l.7-1.15 3.1-.3q4.65 2.05 8.35 4.85 3.55 2.65 4.1 4.35 1.2 3.5 3.55 24.85l2.5 5.05-4.6 2.1.85-3.85-1.8-15.6q-1.25-10.7-1.75-12.15-.6-1.7-12.2-6.85l-2.8-1.3m34.7-17.65q2.45 1 7.55 3.75 6.3 3.3 7 4.45l-1 2.45q-.5-.85-6.4-4.75-5.8-3.9-7.7-4.7l-11.6-.4-11.45.45-.15-3.15 11.4.5q10.8.75 12.35 1.4"/><path fill="#0d131a" d="M331.85 92.4q.9 5.15-3.7 15.2-4.35 9.55-10.45 16.75l-9.1 10.75q-6.4 7.7-10.5 13.3l-10.3 13.9q-2.25 2.65-11.8 6.3-10.55 4.05-27.55 8.3h-6.35q-5.6 1.4-28.5-5.85-23.9-7.6-31.75-14.45-7.3-6.3-17.3-37-10.25-31.55-11.6-53.8-.9-16.15 4.05-21.7 1.45-1.55 5.25-7.8 2.45-4 6.6-12.9 4.05-7.05 9.4-7.9l13.05-2.7 17.75-4.45Q239.55 0 244.7 0q5.5 0 33.65 15.3 27.45 14.9 30.8 18.9 2.95 3.5 12.55 28.6 9.2 24.25 10.15 29.6"/><path fill="#c4bfd7" d="M324.15 105.7q-3.45 8.75-9.15 15.5-3.95 4.65-19.25 25.5l-10.15 13.7q-3.5 4.15-38.1 12.8l-.75.2q-4.8 1.2-29.15-5.3-26.25-7-33.9-13.65-6.5-5.7-16.25-35.3-10.3-31.3-11.6-53.55-.9-14.85 3.3-19.55 1.75-1.95 5.55-8.25 4.95-8.1 7.8-11.45 5-5.95 9.8-6.7 5.2-.85 28.1-7.15L230 7.3q10-2.55 12.35-2.55 4.8 0 33 14.35 27.75 14.15 30.55 17.5 2.5 2.95 11.3 27.3 8.5 23.55 9.45 29.05.8 4.45-2.5 12.75"/><path fill="#a5a1b5" d="M220.4 55.35q9.25 6.85 21.15 19.95 12.1 13.25 15.8 16.05 1.85 9.25 7.15 20.45 6.8 14.45 14.85 20.3l2.25-3.9 2.2-3.85q7.65-3.95 17.95-10.5 9.2-5.85 10.55-6.4 6.3-2.25 9.2-1.3 2.95.95.4 4.55-2.95 5.8-6.9 10.5-3.95 4.65-19.25 25.5l-10.15 13.7q-3.5 4.15-38.1 12.8l-.75.2q-4.8 1.2-29.15-5.3-26.25-7-33.9-13.65-6.5-5.7-16.25-35.3-10.3-31.3-11.6-53.55l-.15-5.65q11.55-1.5 34.3-5.9 19.3-2.75 30.4 1.3"/><path fill="#0d131a" d="M326.85 96.65l.85 1.05-19.4 13.25q-19.7 13.15-22.7 13.5-.8.1-1.75 2.4l-1.2 3.9-3.55 5.25-.45 1q-14.5 31.85-21.1 34.6l-.5-1.25q2.3-.95 5.5-5.95 4.75-7.5 12.95-25.65l2.95-5.75q.8-3.6 3-7.25 2.25-3.65 3.75-3.85 2.45-.3 21.45-12.15 17.4-10.9 20.2-13.1m-79-43.7l1.3-.35 2.4 1.6q2.15 8.3 4.05 21.2 2.25 15.6 1.2 21.05-.65 3.2-.55 9.55l.5 11.15.35 7.9q.05 3.1-.35 4.1-.85 2.4-15.95 14.75-15.05 12.3-18 13.05l-.3-3.05q2.75-.7 17.45-11.85 14.8-11.25 15.55-13.35.5-1.4-.1-11.45-1-15.8.05-21.1 1.6-7.8-7.1-41.15l-.5-2.05"/><path fill="#0d131a" d="M310.45 41.15l-.05 3q-1.25 1.3-15.9 7.65-14.85 6.5-18 6.95-3.3.45-15.1-1.85-12.05-2.35-14.5-4.15-1.65-1.25-18.4-17.45-21.05-20.35-22.5-21.2-1.9.15-6.75 5.1-6.85 7-18.65 22.75l-.95 1.25-1.05-.85-.7-2.45q9.95-13.25 18.15-20.8 7.05-6.4 10.1-6.4.6 0 4.55 3.65l18.75 18q5.55 5.35 12.1 10.75l6.65 5.3q2.35 1.75 13.8 4.55 11.45 2.85 14.35 2.45 2.7-.4 17.95-7.8 14.8-7.2 16.15-8.45"/><path fill="#0d131a" d="M211.05 45.05Q223 47.5 224.9 48.9q3.1 2.25 12.6 22.1 8.6 17.95 10.3 23.45 1.55 5.05-.8 26.25-2.55 22.45-6.55 28.35-4.4 6.4-20.1 14.6-15.55 8.1-26.8 10-10.55 1.8-41.85-22-11.7-8.85-21.8-18-9.6-8.65-11.25-11.55-3.15-5.5 8-39.7 5.55-17.15 11.95-33.6 3.65-7.2 18.8-9.8 13.15-2.25 23.85 0l29.8 6.05"/><path fill="#c4bfd7" d="M232.75 73.1Q242 90.35 243.5 95.3q1.4 4.3-1.15 24.3-2.65 21.05-6.25 26.4-4 5.9-17.75 14.15-14.7 8.85-25.3 10.65-9.2 1.55-39.45-21.35-11.55-8.7-21.3-17.45-9.45-8.45-11.1-11.35-.45-.65-.45-2.35 0-8.2 9.5-37.3 8-24.5 10.95-30.9 3-6 17.1-7.8 12.2-1.6 22.35.55 21.2 4.5 31.8 7.6 6.85 1.95 8.35 3.05 2.45 1.8 11.95 19.6"/><path fill="#a5a1b5" d="M217.7 77.55q1.55-.5 2.35-2.9.85-2.6.3-6.2-1.4-9.4-10.9-18.85 9.45 2.55 11.35 3.9 2.45 1.8 11.95 19.6Q242 90.35 243.5 95.3q1.4 4.3-1.15 24.3-2.65 21.05-6.25 26.4-4 5.9-17.75 14.15-14.7 8.85-25.3 10.65-9.2 1.55-39.45-21.35-11.55-8.7-21.3-17.45-9.45-8.45-11.1-11.35-.45-.65-.45-2.35 0-8.15 9.75-38 12.65-.4 44.2-5.6 28.65-3.45 43 2.85"/><path fill="#0d131a" d="M198.4 71.4l.2-1.35q6.75 1.15 19.4 9.5 2 1.35 2.25 1.6.35.45.1 1.35-1.65 5.25-2.05 10.6l-1.35-.1q.4-5.3.4-9.35l-.25-3.05q-3.95-2.7-8.1-4.95-6.65-3.6-10.6-4.25"/><path fill="#0d131a" d="M216.3 79.15q.8-.1 7.7-4.45 6.95-4.35 8.1-5.5l1.2 2.6q-1.25 1.25-8.05 4.7-6.7 3.4-7.65 3.4l-1.3-.75M168.8 44.5l8.55 2.85q8 2.1 41.25 43.95 2.5 3.5 3.75 13.8l1.95 17.75q1.35 8.15 1.65 9 .85 2.85-1.85 11.8-2.7 9.1-8.3 21.6l-6.35 13.85q-4.3 10.8-108.4 25.1-7.25 0-30.15-24-9.4-9.85-16.05-18.5-7.05-9.15-7.55-12.5-.6-3.85-3.55-8.1l-5.5-7.2q-2.65-3.65-4.05-7-1.5-3.7-1.05-5.8.8-3.85 17.5-33.1 16.75-29.3 19.9-32.2 2.95-2.65 30.3-11.35 24.6-7.85 32.85-9.7 3.9-.85 14.35 2.5l20.75 7.25"/><path fill="#c4bfd7" d="M195.05 68.4q11.6 13.3 18.5 22.95 2.45 3.4 4.75 14.15 1.4 6.35 3.15 17.8l.65 6.3q.25 3.2.45 3.9 1 3.2-11.25 31l-4.45 10.1q-2 5.1-50.15 16.2-45.45 10.5-55.65 10.5-5.7 0-27.75-22.75T50.15 148.8q-.7-4.5-3.7-9.75-1.75-3.1-5.65-8.5-1.85-2.55-2.95-5.55-1.05-2.9-.75-4.2.7-3.45 17-31t19.2-30.2q2.35-2.15 28.55-10.55 24.75-7.95 33.25-9.8 3.8-.85 14.8 2.2 5.95 1.7 17.95 5.8l9.35 4.25q4 1.05 17.85 16.9"/><path fill="#a5a1b5" d="M168.2 89.05l16.8-4.5q7.9-2.1 10.6-4.35 3.55-2.85 2.45-8.3 10.35 12.1 15.5 19.45 2.45 3.4 4.75 14.15 1.4 6.35 3.15 17.8l.65 6.3q.25 3.2.45 3.9 1 3.2-11.25 31l-4.45 10.1q-2 5.1-50.15 16.2-45.45 10.5-55.65 10.5-5.45 0-26.45-21.4-20.95-21.35-24.1-29.95 11.85-4.3 49.4-25.3l47.25-26.7q9.6-5.3 21.05-8.9"/><path fill="#0d131a" d="M209.3 145.05q-14.05 11.3-14.9 11.5l30.15-24.25q-1.25 1.45-15.25 12.75"/><path fill="#0d131a" d="M209.15 144.3q13.65-11 14.9-12.45l1 .85q-3.35 4.05-11.3 11.2-11.8 10.65-19.2 13.3l-.4-1.25 15-11.65M196.3 79.4q.7-.15 2.15-1.3 1.75-1.35 3.05-3.1l1.1.8-2.75 3.5q-2.2 2.45-3.25 2.65l-6.5 2.4q-5.1 1.9-19.75 8-9.6 4.05-11.05 3.8l.2-3.15q2.45.4 30.1-9.95 2.6-.95 4.8-2.4l1.9-1.25M87.1 62.15l5.15 3q5.6 3.55 10.9 7.85l13 11.5q6.7 6.25 7.3 6.45l-.4 1.3q-1.25-.35-22.85-17.9L86.5 63.4q-1.15-.6-8.4-.15-7.15.4-8.4 1l.8-3.6q1.4-.65 8.3.05 6.7.7 8.3 1.45"/><path fill="#0d131a" d="M171.5 129.5q15.85 9.7 21.2 17.15 6.85 9.5 8.6 40.5 1.65 28.7-1.9 45.45-1.4 6.6-3.9 8.1-3.55 2.1-21.65 10.45-20.8 9.65-41.1 18.3-58.45 24.8-67.35 22.25-7.65-2.2-24.75-16.75Q27 263.35 18 253.6l-4.4-5.15q-1.55-1.55-.95-6.65l1.85-12.25.7-5.25q.55-4.5-2.4-15.55-2.55-9.4-2.85-11.5-.95-5.75 1.25-7.6 1.45-1.2 5.55-7.55 4.7-7.2 8.65-14.95 11.25-22.1 16.75-31.55 7.6-13.2 11.2-15.15 6.75-3.65 42-8.8 36.4-5.3 40.4-1.9 1.1.95 10.6 5.9 17.05 8.85 25.15 13.85"/><path fill="#c4bfd7" d="M188.5 147.65q6.55 9.1 9 39.8 2.3 29.1-.95 44.55-1.1 5.25-2.5 6.2-13.65 8-63.9 29.2-56.25 23.75-63.95 21.55-10.8-3.1-45.45-40.45l-2.25-2.45q-1-1-.65-6.3.2-3.1 1.1-9.7l.7-5.3q.35-2.8-.55-7.4l-2.05-8.5q-1.65-6.25-2.1-8.95-.75-4.75.55-5.85 1.35-1.15 4.9-7.6l9.15-17.65q10.25-20 15-28.45 8.55-15.2 11.75-16.95 7.05-3.8 40.7-8.8 33.6-4.95 36.9-2.65 1.4 1.2 11.15 6.3 15.5 8.05 23.75 13.2 14.55 9.05 19.7 16.2"/><path fill="#a5a1b5" d="M173.5 134.5q10.8 7.3 15 13.15 6.55 9.1 9 39.8 2.3 29.1-.95 44.55-1.1 5.25-2.5 6.2-13.65 8-63.9 29.2-56.25 23.75-63.95 21.55-10.8-3.1-45.45-40.45l-2.25-2.45q-1-1-.65-6.3.2-3.1 1.1-9.7l.7-5.3q.3-2.95-.5-7.05 3.95 3.95 7.2 11.75l5.15 13.35q4.9-1.65 15.95-10.45 10.15-8.2 15.9-9.15 30.2-7.9 56.9-20.55 24.75-11.75 51.4-30 13.45-8.95 1.85-38.15"/><path fill="#0d131a" d="M49.7 142.1q-1.1-2.85 1.6-10.65 2.55-7.3 4.75-9.45l.95.95q-1.85 1.8-4.35 8.85-2.6 7.4-1.7 9.8l3.55 10.25q2.9 9.1 4.05 15.1l2.8 4.1-4.6 4.2-1.5-7.35q-4.55-23.15-5.55-25.8"/><path fill="#0d131a" d="M166.85 165.05q16.9 8.1 18.6 9.85l-.95.95q-1.55-1.55-18-9.45-15.75-7.55-22.3-10.1-5.95-2.25-22.7-2.8-17.05-.6-23.1 1.5-5.8 2-21.9 10-14.9 7.45-16.7 8.8-1.45 1.2-6.55 17.25-5.3 16.55-6.35 24.1l-2.25-.45q1.05-7.4 6.55-24.3 5.5-16.95 7.3-18.2 2.1-1.5 16.15-8.85 15.6-8.1 21.35-10.05 6.15-2.1 24.55-1.35 18.05.75 24.1 3.1 6.4 2.45 22.2 10M18.55 218.6l-.3-3.25q1.75 3.5 10 8.75l7.95 4.6-.55 3.25-7.65-4.5q-7.55-5.05-9.45-8.85m287.35-28.7l2.45-1.1q1.5 1.8 5.45 9.75l5.25 10.3q.9 1.55.9 4.55 0 2.6-.55 4.75l-3.05 2.2 1.35-5.6q.8-4.1.15-5.25-9.15-16.15-11.95-19.6M39.85 395.85q-1.3-2.65-1.9-6.1-.45-2.5-.45-4.65 0-4.15 1.85-9.45l2.6-6.35.1-.75-.9-6.3q-1.4-8.75-1.4-12.75 0-10.05 5.7-13.7 4.7-3.05 44.8-3.75 20.9-.4 45.6-.1 30.25.45 51.6 1.55 33.25 1.75 35.8 4.9 2.45 2.95 2.45 8.45 0 2.1-.6 7.8-.85 7.55-.85 11.6 0 3.75.5 7.45.8 5.9.8 11.15 0 5.2-.75 10.75l-1.45 8.55-.85 4.5q-.7 4.4-5.65 9.85-2.75 3-7.95 7.3l-1.5 1.25q-1 1.35-4.45 14.2-3.3 12.15-3.85 15.5-.5 3-5.4 6.55-4.65 3.35-9.25 4.4-2.1.45-8.1 5.8l-9.45 8.95-5.25 7.35q-3.05 2.5-9.8 2.65-7.05.15-11.3-2.65-5-3.4-10.9-6.7-8.15-4.55-13.85-6.45-9-3-13.45-4.95-7.4-3.25-9.55-6.2l-19.1-29.55q-.75-1.1-3.1-2l-4.55-1.35-4.45-1.35q-2.1-.8-3.05-2-1.3-1.65-9.35-16.15l-9.35-17.25"/><path fill="#c4bfd7" d="M76.8 336.05q23.95-.75 57.15-.35 80.25.9 86.55 5.1 1.6 2 1.6 6.05 0 2.6-.6 7.4-.85 7.45-.85 12 0 4.15.55 7.95.75 5.8.75 10.6 0 5.1-.7 10.4l-1.45 8.25-.85 4.65q-.85 5.4-12.35 14.9l-1.8 1.6q-1.5 1.5-5.45 14.45-3.6 11.6-4.1 14.7-.3 2.05-4.3 5.8-4.15 3.9-7.3 4.6-2.65.6-8 5.15-3.75 3.2-11.3 10.6l-4.6 4.35q-2.3 1.95-7.95 2.5-6.05.55-9.05-1.45-4.1-2.75-11.9-6.4-7.75-3.6-13.9-5.65-6.6-2.2-12.4-5.45-5.8-3.25-7.6-5.75l-20.3-28.2q-3.6-7.95-5.3-7.9-.95.05-2.45 4.5-1.7-.4-4.35-1.65l-3.2-1.8q-2.25-2.85-18.9-36.25-1.25-2.45 0-9.6 1.1-6.35 2.8-10.4.5-1.15.3-3.4l-.8-5.75q-1.45-8.55-1.4-12.8.15-7.45 4.05-10 2.95-1.9 29.4-2.75"/><path fill="#a5a1b5" d="M108.1 469.65q3.15-2.45 8.3-2.9 6.5-.6 9.3-1.7.95 3.95 3.4 7.7 2.85 4.5 3.9 7.2-8.9-4.35-16.05-6.7-4.55-1.55-8.85-3.6"/><path fill="#a5a1b5" d="M47.4 338.8q2.95-1.9 29.4-2.75 23.95-.75 57.15-.35 80.25.9 86.55 5.1 1.6 2 1.6 6.05 0 2.6-.6 7.4-.85 7.45-.85 12 0 4.15.55 7.95.75 5.8.75 10.6 0 5.1-.7 10.4l-1.45 8.25-.85 4.65q-.85 5.4-12.35 14.9l-1.8 1.6q-1.5 1.5-5.45 14.45-3.6 11.6-4.1 14.7-.3 2.05-4.3 5.8-4.15 3.9-7.3 4.6-2.65.6-8 5.15-3.75 3.2-11.3 10.6l-4.6 4.35q-1.3 1.15-4.5 1.9 3.65-7.45 4.7-12.25 1.15-5.2.25-11.8 15.3-4.7 24.45-22 3.4-6.4 6.8-16.1l5.5-16.7-22.45 9.3q-14.35 5.75-24.5 8.3-28.7 7.15-41.5-6.8-11.55-14.75-20.55-20.5-12.35-7.85-24.6-2.95-5.65-3.45-7.75 2.55-1.95 5.35-.9 17.7l-12.25-24.15q-1.25-2.45 0-9.6 1.1-6.35 2.8-10.4.5-1.15.3-3.4l-.8-5.75q-1.45-8.55-1.4-12.8.15-7.45 4.05-10"/><path fill="#0d131a" d="M72.95 360.05q0-8.5 3.55-9.45 7.65-2.15 28.45-3.25 19.55-1 42.65-.7 55.45.75 61.3 6.55 1.2 1.15.8 2.55-1.1 4.15-4.75 28.05l-2.5 16.05q-1.2 7.25-1.8 9l-8.9 22.6q-9.5 22.45-12.95 23.45-1.9.55-3.15-.3-.7-.5-1.5-1.8l-1.35-1.75q-1.1-.85-3.1-1.2l-23.8-.95q-18.6 0-20.9 1.35l-2.85 2.05-4 2.8q-2.35 1.3-4.3.85-2.3-.5-3.85-3.5-1.45-2.8-11.55-15.6-9.55-12.2-13.05-17.2-4.9-7.1-4.9-9.6 0-1.55-2.1-12.15-5.45-27.95-5.45-37.85"/><path fill="#0d131a" d="M148.6 349.55q27.15.4 43.45 2.35 13.25 1.55 14.8 3.35-1.25 4.9-4.75 28.1-3.35 22-4.2 24.55-2.55 7.8-9.6 24.15-8.05 18.7-10.35 20.1h-.7l-.6-.85-1.95-2.4q-1.7-1.45-4.5-1.9l-24-1q-19.55-.05-22.65 1.75L120.4 450l-3.1 2.25q-1.8 1.1-2.8.9-1.05-.2-1.9-2-1.5-2.85-11.85-16.1l-11.25-14.7q-6.1-8.4-6.1-10.3 0-1.45-2.15-12.7-8.3-42.8-4-44 7.2-2 27.15-3.1 19.85-1.05 44.2-.7M46.85 370.7q-1.6-4.9-.6-5.1 1-.15 3.15 3.75l3.9 6.85 6.65 12q3.35 6.5 4.8 11.5 1.55 5.1-.05 4.5-1.55-.55-2.8-4.05-1.05-3.1-4.45-9.95-3.45-7-6.65-12.55-.45-.05-1.15-.9-1.45-1.8-2.8-6.05m165.5 37.3q-1.3 4.85-1.75 7.5l-.7 6.05-.15 1.65-4.3 3.3 1.6-5.25.85-7.35q.65-3.6 2-7.4 1.6-4.4 2.7-4 1.1.4-.25 5.5"/><path fill="#0d131a" d="M211.4 186.7q1.75 2.2 4.5 9.4l5.5 15.8q3.8 11.4 5.7 16.6 3.25 8.55 5.25 11.3 2.35 3.15 6.35 6.95l7.55 6.65 5.85 4.55q3.4 2.7 5.1 4.55 3.5 3.75 3 14-.2 4-2.3 17.75-1.1 6.9-1 8.45.5 4.3-1.35 19.45-1.85 15.4-3.5 19.55-.7 1.7-4.3 4.35-4.7 3.35-7.05 6-8 8.8-9.35 11.45-1.65 3.35-3.95 11.55-1.75 6.25-3.25 12.85-.75 3.35-6.25 7.6-4.95 3.8-12.05 7.1l-2 1.2q-1.1.55-3.1-1.1l-4.35-3.55q-3.3-2.25-5.05-3.15-3.05-1.6-4.45-1.15-1.5.5-9.25 4.7-11.75 6.35-16.55 8.25-5.65 2.25-7.85 1-3.95-2.25-18.7-7.45-15.8-5.6-19.15-5.3-2.2.3-7.45 2.75-4.4 2-6.5 2.65l-5.95.2q-2.55-.85-6.05-5.65-2.45-3.35-7.35-11.75-3.55-6.25-4.95-8.05-2.3-3-5.2-3.95-2.6-.85-13.25-2.3l-2.95-.4q-28.5-3.9-34.55-11.7-1.7-2.2-9.45-29.35l-7.4-26.7q-3.6-12.65-4.2-17.4-.85-7.55 4.2-13.2l13.9-14.4q14-14.85 14.6-17 16.2-56.8 37.5-62.15l18.95-5.2q43.35-12.25 57.1-11.25 11.2.85 35.95 10.55 24.8 9.7 29.05 14.95"/><path fill="#c4bfd7" d="M207.9 188.95q1.5 1.85 4.2 9.15l5.15 14.95q4.1 12.25 5.95 17.2 3.3 8.65 5.5 11.65 2.5 3.4 6.7 7.4l7.8 6.9q6.9 5.8 9.9 9 2.4 2.6 2.4 10.25 0 6-1.9 18.25-1 6.9-1 8.55l.1 2.05q0 5.1-1.75 16.7-1.8 11.95-3.3 15.65-.7 1.75-3.95 5.65l-6.4 7.3-6.05 6.9q-2.9 3.45-3.85 5.4-2.05 4.15-4.8 14.35-1.7 6.45-2.65 10.85-.8 3.6-16.9 11.15l-1.05.45-4.3-2.55q-4.3-2.9-6.45-3.9-3.7-1.65-6.2-.8-1.7.55-9.85 4.9-18.35 10.1-20.9 9.3-4.15-2.3-19-7.6-16.75-6-20.95-5.55-1.75.15-4.15 1.05l-4.45 1.95-5.4 2.25q-2.95.95-4.45.45-1.8-.6-5.45-6-2.2-3.3-5.9-9.8-4.05-6.85-5.25-8.4-2.95-3.8-6.8-5.1-2.95-1-14-2.5l-2.95-.4q-11.85-1.65-19.8-4.4-7.95-2.8-10.6-6.25-1.65-2.05-4.9-14.05-1.9-6.95-5.55-22.2l-4.5-17.8q-3.4-12.2-3.85-17.05-.65-6.9 2.4-10.65l7.1-8.05 13.4-15.25q5.55-6.8 6.35-9.5 7.6-26.5 16.7-41.55 9.15-15.05 19.25-17.55l19.05-5.25q20.7-5.85 30.65-8.2 16.95-4 24.15-3.45 10.75.8 35.1 10.35 23.8 9.4 27.4 13.8"/><path fill="#a5a1b5" d="M180.5 175.15q23.8 9.4 27.4 13.8 2.15 2.7 7.7 19.1-1.55-1.4-7.95.75-6.2 2.05-14.2 6.55-19.6 10.95-27.2 22.3-21.75-31.5-33.2-71.85 8.25-1.35 12.35-1 10.75.8 35.1 10.35m48.25 166.3l10.65-11.55q7.55-8.3 12.1-12.75-2 14.95-3.85 19.5-.7 1.75-3.95 5.65l-6.4 7.3-6.05 6.9q-2.9 3.45-3.85 5.4-2.05 4.15-4.8 14.35-1.7 6.45-2.65 10.85-.8 3.6-16.9 11.15l-1.05.45q-.75-.15-4.05-2.35 11.2-4.25 15.75-11.7 3.5-5.75 6.7-21.2.8-3.9 3.9-12.2 3.15-8.4 4.45-9.8M95.85 276.2q12.05 2.7 18.2 5.75 8.8 4.3 12.5 11.65 10.1 17.6 14.45 40.15 3.6 18.65 3.6 42.85-7.15-21.5-14.65-34.3-10.6-18.05-21.45-18.05-23 1.2-35.4-15.35-8.15-10.85-15.15-37-1.15-4.65.6-10.45l1.2 1.45q5.9 5.3 16.55 8.6 3.7 1.15 19.55 4.7m-89.3 9.85q-.95-6.45.75-10.15 5.95 28.15 20.25 49.05 1.3 1.9 4.5 8.95 2.85 6.15 5.1 8.6 1.45 1.55 5 2.5 3.8 1 5.3 2.3 14.3 12.65 33.95 22.1 2.7 1.35 10.1 11.05 8.1 10.7 14.05 15.15l-5.25 2.2q-2.9.9-4.4.4-1.8-.6-5.45-6-2.2-3.3-5.9-9.8-4.05-6.85-5.25-8.4-2.95-3.8-6.8-5.1-2.95-1-14-2.5l-2.95-.4q-11.85-1.65-19.8-4.4-7.95-2.8-10.6-6.25-1.65-2.05-4.9-14.05-1.9-6.95-5.55-22.2l-4.5-17.8q-2.95-10.7-3.65-15.25M243.2 256.2q6.9 5.8 9.9 9 2.4 2.6 2.4 10.25 0 5.45-1.25 13.9-3.15-5.25-6.55-6.8-3-1.3-5.25.5-.35.5-4.55 10.05-3.1 7-8.45 11.3-2.2 1.65-17.95 8.45-13.75 5.9-17.9 11.1-4.55 7.4-6.35 19.2-1 6.7-2.05 19.45-1.3 10.4-4.85 15.15-4.65 6.2-14.85 6.5-1.4-14 1.75-39.7 3.25-26.8 2.05-43.45 2.6 2.65 7.15 9.35 4.45 5.55 9.65 6.6-7.9-9.9-10.15-14.2-4.25-8.15-.65-12.9 7.1-11.3 14-20.75 7.55-10.3 16.65-20.75.65-.65 6.35-1.1 5.3-.45 6.3-2.5 2.05-3.4 2.8-8.35.45-3.05.65-9.4 4 11.15 6.65 14.8 2.5 3.4 6.7 7.4l7.8 6.9"/><path fill="#0d131a" d="M13.45 280.5q.5-5.5 1.55-5.1 1.05.4 1.25 5.85.2 5.95 8.95 31.2 9.05 26.05 12.55 28.8 1.9 1.5 9.25 4.2l14.5 4.95q8.75 2.85 12.05 4.05 5.5 2 7 3.15 2.25 1.65 3.75 4.35 1.55 2.75 3.35 8.4.8 2.4 1.65 7.95 1.1 5 3.4 7.75 2.9 3.4 1.65 4.25-1.25.85-3.95-2.5-2.25-2.75-3.15-5.8l-1.75-6.55-3.25-9.5q-1.95-4.95-3.4-6.05-1.3-.95-8.45-3.65-6.15-2.35-13-4.6-4.35-1.45-13.7-3.5-6.4-1.4-8.2-2.85-4.35-3.45-13.55-31.4-9-27.4-8.5-33.4m118.5 36.45q-.25-5.25.45-6.7.85-1.65 2.25 5.7l7.2 38.5q5.3 30.9 3.3 33.4-1.3 1.6-5.8.7-3.55-.75-12.9-4.05l-4.5-1.4-5-1.5q-4.05-1.3-4.95-2.6-.95-1.4 4.95-.25l6.45 1.4 4 1.65q12.9 4.5 13.85 3.15.5-.75-.1-5.4l-.7-4.95q0-5.95-4.15-30.6-4.25-25.25-4.35-27.05m38.2.2q-.2-5.25 1.25-5.1 1.45.15 1.6 5.1.15 3.85-.55 8.8l-1.6 11.65q-1.2 10.05-2.05 23.15-.75 11.65-.75 17.95l.05 2.3q.3 1.65 1.55 1.65 1.6 0 5.2-1.1 3.95-1.2 7.85-3.05 4.15-2 5.1-.75.9 1.25-3.65 3.25-7.1 3.6-10.85 5.05-6.7 2.6-8.95.35-1.15-1.15-.55-10 .7-9.75 4.15-39.15l1.65-11.1q.75-4.75.55-9m71.6 13.3l-9.2 10.65q-4.9 5.95-6 8.6-1.45 3.5-5.35 19.3l-1.7 6-1.4 5.7q-.65 3.55-1.95 3-1.35-.55-.75-4.05.5-2.6 1.35-5.55l1.65-5.75q1.6-6.6 3.5-13.35 2.3-8.15 3.45-10.9 1.1-2.6 5.4-6.75l8.85-8.8 6.75-8.5q4.6-6.1 5.65-7.1 1.55-1.45.7 1.6-.75 2.95-2.6 6.1-1.4 2.45-3.65 4.85l-4.7 4.95"/><path fill="#0d131a" d="M46.75 232.9q-1.15-3.95-.55-4.45.7-.6 3.25 3.4 2.75 4.25 5.15 15.8 2.4 11.65 1.7 17.6-.6 5.45-3.2 15.85l-4.85 18.4-1 4.8q-1.2 5.25-2.25 7.45-1.2 2.55-2.75 3.55l-2.4.1q-.65-.65 2.75-10.5 3.65-10.6 3.65-11.75 0-1.15 3.25-12.1 3.45-11.6 3.95-16.1.85-7.4-6.7-32.05m174.9-5.4q-.75-8.65 2.65 2.45.95 3.2.95 7.25l-.2 3.35q.4 5.65-.15 8.5-.75 3.7-3.8 7.55-2.9 3.7-2.65 1.35.2-1.55 1.9-6.25.95-2.7 1.1-6.05.05-2.45-.3-6.55l.5-3.05q.45-4 0-8.55m-153.7 57.7q.85-8.7 2.95-13.55 1.1-2.55 2.75-2.75 2.95-.5 29.45 12.45 26.5 12.9 28.4 15.8 1.95 2.9.75 8.7-.65 3.4-2.3 7.35-1.5 3.5-19.3 7.35l-17.8 3.15q-4.35.45-14.3-12.3l-9.25-13.1q-2.25-3.4-1.35-13.1"/><path fill="#fff" d="M74.15 271.8q3.55.35 28.3 12.5 24.8 12.15 26.65 14.5.4.6-.2 5.65-.6 5.3-1.6 7.6-1 1.85-13.5 4.75-11.1 2.6-18.65 3.4-2.35.3-10.1-8.35-6.95-7.65-11.65-14.7-.7-1.1-1.1-4.25l-.6-6.7q-.4-4.55.95-9.85 1-4.05 1.5-4.55"/><path fill="#dbdcdc" d="M71.65 285.35q-.2-4.35 1.1-9.3.95-3.8 1.4-4.25 3.55.35 28.3 12.5 24.8 12.15 26.65 14.5.4.55-.15 5.4-25.35-15.5-57.3-18.85"/><path fill="#0d131a" d="M170 293.45q7.85-6.85 17.1-13.2 18.55-12.7 26.7-11 1.6.35 2.85 1.9.85 1 1.8 3.05 1.6 3.25 2.15 12.4.5 7.95-.05 12.95-.4 4.3-10.9 12.55l-12 8.5-3.6.4q-2.8-.1-4.9-.8-5.05-1.55-11.65-6.05-6.45-4.4-7.35-6.65l-.2-.5q-1.1-2.65-1.2-7.35-.1-5 1.25-6.2"/><path fill="#fff" d="M189.75 282.35q17-10.55 23.1-9.25 2.15.5 3 2.35 1.15 2.35 1.15 9.4 0 5.75-.7 12.95-.3 3.1-8.7 10.9-6.9 6.4-11.55 9.5-4.15 1.3-13.4-4.15-8.35-4.95-9.85-7.65l-.2-.5q-.5-1.3.1-6.75.65-5.45 1.3-6 7.25-5.5 15.75-10.8"/><path fill="#dbdcdc" d="M173.05 296.8q.5-3.3.95-3.65 7.25-5.5 15.75-10.8 17-10.55 23.1-9.25 2.15.5 3 2.35.55 1.05.85 3.4-6.55 1.7-15.4 5.55-17.65 7.7-28.9 18.4.1-2.8.65-6"/><path fill="#0d131a" d="M120.7 304.85q0 1.3-.8 2.2-.85.9-2 .9t-2-.9q-.85-.9-.85-2.2 0-1.25.85-2.2.85-.9 2-.9t2 .9q.8.9.8 2.2m63.75-.55q0 1.3-.8 2.2-.85.9-2 .9t-2-.9q-.85-.95-.85-2.2 0-1.25.85-2.2.85-.9 2-.9t2 .9q.8.9.8 2.2M170.2 159.2q1.8 5.85 5.1 24.95 3.6 20.65 2.7 23.4l-1.2 5.95q-2.8 8.9-5.25 12.4-2.6 3.6-5.9 2.8-1-.25-1.65-1.45-3.8-6.45-7-40.25-3.2-33.85-.85-42.45l.7-3.15q.6-2.3 1.25-2.3 2.5-.05 6.8 7.95 3.65 6.65 5.3 12.15"/><path fill="#a5a1b5" d="M172.05 183.95q2.8 18.1 2.8 23.25l-.05 1.05-.5 1.55q-4.95 15.8-7.75 16.1-2.35-2.8-5.4-27.9-3.05-25.2-3.05-41.8 0-7.05.7-10.2 1.75 1.3 4.45 5.5 3 4.65 4.2 8.55 1.75 5.7 4.6 23.9"/><path fill="#0d131a" d="M163.3 165.05q.25 2.4 3.45 10.4 3 7.45 3.3 9.9l1.5 25.55q1.1 25.65-.55 27.85-1.7 2.25-10.65 3.1-7.45.7-10.45.2-1.8-.3-9.2-7.8-7.5-7.65-15.55-17.45-21.1-25.7-20.75-34.7.4-8.15 8.25-85.35 7.85-77.3 8.8-82.25.2-.9.85-2.2.75-1.6 1.4-2 2.25-1.45 7.25-1.75l6.45.35q2.6.65 11.6 18.65 8.35 16.65 8.55 18.1.9 4.3 1.7 22.9l2.3 57.65q1.6 37.55 1.75 38.85"/><path fill="#c4bfd7" d="M166.45 185.8q.3 2.45.6 13.35l.3 21.35q0 14.25-.6 16.45-1.25.95-7.25 1.5-5.85.5-8.85.05-1.85-.9-8.65-8.1-7.15-7.5-14.45-16.35Q108 190.25 108 182.5v-.25q.4-8.15 8.35-85.35 8-77.4 9.1-83.4.8-.9 5.3-1.45l6.3-.2q1.85 2 9.15 17.3 6.75 14.2 7.95 17.65.65 2.9 3.8 79.55l.95 24.5q.45 11.7.8 14.6.3 2.75 3.7 11.35 2.85 7 3.05 9"/><path fill="#a5a1b5" d="M163.4 176.8q2.85 7 3.05 9 .3 2.45.6 13.35l.3 21.35q0 14.25-.6 16.45-1.25.95-7.25 1.5-5.85.5-8.85.05-.55-.25-2.4-1.85 4.55-32.75.85-46.45-4.3-17.75-5.35-37-.8-13.6-.05-34.5 1-27.75 1-34.8 0-20.4-2.35-38.05-.8-5.05-9-19.1l-7.9-13.25q.8-.9 5.3-1.45l6.3-.2q1.85 2 9.15 17.3 6.75 14.2 7.95 17.65.65 2.9 3.8 79.55l.95 24.5q.45 11.7.8 14.6.3 2.75 3.7 11.35"/><path fill="#0d131a" d="M126.25 18.1l-.95-2.7q-.45-2.25 1.85.1 2.8 2.9 9.1 14.25 6.4 11.4 6.4 13.65-.2 1.45-.7 2.15-.95 1.5-2.2-2.05-1.5-4.15-6.3-13.1-4.65-8.75-7.2-12.3m15.5 33l.9-1.2q1.05-.3 1.65 4.45.5 3.85.6 53.4.1 50.25.55 55.05.55 6.15-1.1 3.9l-1.75-3.5q-.4-2.65-.85-55.2-.5-53.15 0-56.9m1 122.75q-.95-3.65.3-3.45 1.1.15 2.2 2.05 1.7 2.9 2.9 7.15l1.7 7.1 1.15 4.6q.85 2.55 1.5 21.6.55 16.55.45 24.45-.05 4.8-2.1 2.55l-2.05-3.25q.5-3.05.35-22.5-.15-19.85-.85-21.9l-1.3-4.9q-.5-2.1-1.95-6.3-1.6-4.45-2.3-7.2M103.7 143.5q1.1-5 2.45-7.1 1.45-2.3 3.75-2.1l1.6-1.6q5.15.55 10.5 9.55 2.7 4.6 4.75 10.1.95 2.6 1.45 9.5l.65 13.5q.3 10.65.8 13.95l1.1 6.75q4.5 25.5 4 30.8-.2 1.85-7.1 1.2-6.5-.65-7.4-1.4-2.55-2.1-14.2-22.8Q94.3 183.1 94.3 180.5q0-1.9 4.4-18.4l5-18.6"/><path fill="#c4bfd7" d="M117.2 142.4q5.25 6.55 6.85 10.95.85 2.3 1.3 9.1l.6 13q.4 11.6.85 14.3l1.1 6.8 2.95 15.85q1.65 9.35 1.35 12.25-.1.95-4.2.7-4.25-.3-6.15-1.85-2.2-1.85-12.35-21.7-9.95-19.5-10.3-21.95 0-1.4 2.6-13.85 2.2-10.8 4.7-21.85.7-3.1 2.2-5.2 1.7-2.4 3.6-2.25l4.9 5.7"/><path fill="#a5a1b5" d="M114.9 148.1q-2.6-5.6-5.95-9.5 1.6-2.1 3.35-1.9l4.9 5.7q5.25 6.55 6.85 10.95.85 2.3 1.3 9.1l.6 13q.4 11.6.85 14.3l1.1 6.8 2.95 15.85q1.65 9.35 1.35 12.25-.1.95-4.2.7-4.25-.3-6.15-1.85-.2-.2-.45-8.85-.3-8.95-1.3-10.7-2.1-12-2.15-23.3-.1-18.4-.45-23.85 0-3.2-2.6-8.7"/><path fill="#0d131a" d="M124.1 292.4q2.95 1.7 4.55 2.05 2.05.45 3.15-.9 1-1.2 1.25-5l.35-6.15q.3-2.7 1.45-1.1 1.1 1.55 1.55 5.35.45 3.4-1.05 7.65-1.3 3.7-2.45 4.5-1.05.7-2.2.4-2.45-.55-8.5-3.9-12.8-7.2-25.65-13.1-17-7.9-23.3-8.2-8.2-.35-10.5-7.4-1-2.95-1.25-13.3l-.4-9.3q-.35-8.9-1.7-18.65-1.6-11.3-3.4-13.55-2.3-2.9-1.95-4.25.35-1.4 4.25 2.55 3.65 3.65 4.8 14.9l.85 18.85.4 9.35q.25 8.2 1.35 10.9 1.4 3.4 5.6 3.95 6.7.9 25.05 9.8 13.25 6.45 27.75 14.55m48.75-.1l3.55-3.15q7.6-6.15 11.3-9 6.5-5.05 9.4-6.5l12.75-6.05q4.35-2.25 5-4.8.85-3.35 2.15-3.75 1.35-.45.75 3.75-.55 3.65-6.35 7.25l-13.3 7.65-9.35 5.6q-7.2 4.55-10.55 8.15-5.45 5.8-8.45 6.3l-1.5-.25-.4-.45q-2-1.3-3.75-5.7-1.65-4.05-1.7-6.9 0-2.85 1-3.35t1.85 2.9q2.15 8.1 4.8 9.15 1.2.5 2.8-.85"/></svg>