<svg xmlns="http://www.w3.org/2000/svg" width="244" height="270" viewBox="-1.1 -1.55 243.5 270.4"><path fill="#ffeb3f" d="M167 28.05q4.4 5 8.2 11.75 7.2 13.05 9.1 28.5 1.9 14.95-1.7 28.05-2.05 7.4-4.45 11.6-1.25 2.2-3.25 2.05-.55-.05-2.15 1.45-1.7 1.6-3.4 1.75-3.3.3-5.6-1.3-2.15-1.6-2.55-1.5-3 .65-5.4-.1-2.5-.75-3.2-2.6l-.35-1.15-1.4-6.2-6.2.9 4.4 6.9q8.15 13.35 12.35 24.7 4.95 13.35 5.8 27.15.35 5.75-.4 11.45-.5-2.4-2.05-3.8-1.45-1.25-3.3-1.3-2.1 0-4.4 1.7-.8.55-4.05 3.65-5.3 5-10.1 4.1-2.35-.45-4.4-2.45l-3.55-4.15q-4.8-5.95-10.55-7-4.05-.75-7.9.7-1.85.65-6.45 3.4-4 2.3-6.75 2.95-4.15.95-8.9-.55-3.7-1.2-6.1-4.1-1.3-1.65-3.5-5.95-2.05-4.1-3.8-6.1-2.7-3.15-7-4.6-4.85-1.7-13.4 1.25t-13.85 1q-5.25-1.9-7.45-9.35-1.2-3.9-1.95-5.3-1.5-2.65-4.2-3.75-3.9-1.55-9.05 1.1-5.45 2.8-7.6 2.3-3.65-.85-3.95-4.6 5.1-23.55 16.15-46.65Q40.1 60 55.45 41.9 64.9 30.7 75.8 22.95q-3.8-4.8-7.35-11.55-3.75-7.1-2.5-7.8Q71.75.35 80.75 2q9.65 1.8 19.55 8.7 13-3.95 25.95-2.95 12 .95 22.35 6l2.2 1.15q9 4.95 16.2 13.15"/><path fill="#ffeb3f" d="M171.4 9.2q1.15 2.35-.2 8.25-1.35 6.05-4.2 10.6-7.2-8.2-16.2-13.15l-2.2-1.15q3.2-2.9 10.6-4.6 7.9-1.75 12.2.05"/><path fill="#763a00" d="M120.85 245.7q-.55-2.5-5.3-7.1-4.3-4.15-9.2-7.4 22.7-4.7 39-19.2 17.75-15.85 21.6-38.3 11.4 20 8.35 38.2-2.75 16.65-17.3 30.8 5.7 1.4 11.2 6.9h-.05q-3.55-.7-9.15 3.8-5.85 4.7-4.75 8.75l.1.15q-9.3-.4-17.85-2-8.25-1.55-13.25-3.7-5.65-2.45-6.1-5.95-.4-3.05 2.7-4.95"/><path fill="#763a00" d="M165.05 167.65q1.95 1.45 2.45 3.8l-.35 2.25q-3.6 21.1-21.15 37.45-17 15.85-39.65 20.55-18.65 3.8-37.55-2.15-4.9 5.5-14.3 12.2-7.75 5.45-9.05 8.3-.75 1.6.75 5.4.5 3.95-5.15 7.85 1.15-2.3-3.2-6.15-5.05-4.45-13.15-5.2-7.95-.7-12.95 1.6-4.35 2-3.9 4.65l.35.75q-8-3.55 1.8-14.7 1.9-2.2 2.3-4.05.55-2.65-1.5-5.8-8.2-12.45-8.95-25.8-.9-15.35 7.4-36.35-1.85-17.85 3.3-41.65.3 3.75 3.95 4.6 2.15.5 7.6-2.3 5.15-2.65 9.05-1.1 2.7 1.1 4.2 3.75.75 1.4 1.95 5.3 2.2 7.45 7.45 9.35 5.3 1.95 13.85-1t13.4-1.25q4.3 1.45 7 4.6 1.75 2 3.8 6.1 2.2 4.3 3.5 5.95 2.4 2.9 6.1 4.1 4.75 1.5 8.9.55 2.75-.65 6.75-2.95 4.6-2.75 6.45-3.4 3.85-1.45 7.9-.7 5.75 1.05 10.55 7l3.55 4.15q2.05 2 4.4 2.45 4.8.9 10.1-4.1 3.25-3.1 4.05-3.65 2.3-1.7 4.4-1.7 1.9.05 3.6 1.3"/><path fill="#ffeb3f" d="M228.1 22.3v1.4q.15.8.95 1.5l4.95 2.3q4.2 1.95 6.1 4.85.85 1.35-3.75 2.4-7.15 1.6-9.55 2.65-3 2.55-8.45 11.1-2.55 3.95-10.05 16.75-6.35 10.9-12.5 18.4-6.3 7.65-13.2 12.7 3.6-13.1 1.7-28.05-1.9-15.45-9.1-28.5 5.6-1.9 12.1-6.75 4.25-3.2 9.85-8.5 5.65-5.35 9.05-7.2 4-2.15 9.2-2.1l4.3-1.1q3.8-1.15 6.1-1.1 3.5.05 6.65 1.85 2.75 1.6 3.2 3 .5.75-2.25 1.95-4.4 1.9-5.3 2.45m-77.25 78.05l1.4 6.2.35 1.15-3.55.45-4.4-6.9 6.2-.9m4.5 161.95l-.1-.15q-1.1-4.05 4.75-8.75 5.6-4.5 9.15-3.8h.05q2.2.5 5.25 3.65 3.6 3.75 1.35 6.25-1.95 2.2-10.75 3.05-8.35.8-9.7-.25M24.7 251.95q8.1.75 13.15 5.2 4.35 3.85 3.2 6.15l-.1.25q-1.05 1.4-7.4 2.55-7.15 1.25-12.95.25-3.8-.7-7.75-3.25-3.4-2.2-4.65-4.15l-.35-.75q-.45-2.65 3.9-4.65 5-2.3 12.95-1.6"/><path fill="#a3611c" d="M99.9 21.35q-5.5.85-10.3 3.6-3.75 2.1-4.1 1.9-4.8-2.65-10.05-11.35-5.05-8.45-3.25-8.95 5.9-1.6 16.05 4.15 9.8 5.55 11.65 10.65"/><path fill="#ffeb3f" d="M42.25 89.5q5.2-8 10.45-10.5 4.05-1.9 12.9.5l11.5 3.95q5.15 1.8 9.8 9.5 2.85 4.65 9 16.8 5.7 10.15 22.05 25.9 5.6 2.3 7.95 3.85 5.2 3.4 6.35 8.2.25 1.1-3.7 1.95l-6.55.9q.8 2.9 1 6 .15 3-.4 4.75-1.55 5.35-5.3 1.2l-4.2-4.45q-3.15-2.95-5.25-3.3-1.65 6.65-5.15 10.2-3.4 3.4-4.15.35-1.45-5.9-3.55-9.8-2.1-3.9-7.35-5.7-22.05-7.9-32.2-18.3Q44.3 120.1 38.1 96.95q1.55-3.5 4.15-7.45"/><path fill="#fff" d="M139.5 67.8q.1 1.3-.45 1.85-.55.5-1.4-.3-6.4-6.15-13.9-12.65-.95-.8-.95-1.2-.05-.55 1.25-.95 6.05-1.65 10.65 1.85 4.95 3.8 4.8 11.4"/><path fill="#542400" d="M158 242.7q1.3.3 3.85 1.55l3.55 1.9q-6.5-1.15-17.9 4-12 5.35-10.6 10.45l-6.05-1.65-5.9-1.65q-5.75-2.5-6.95-5.8-1.15-3.3 2.85-5.8-.5-2.5-5.3-6.95-4.2-4-9.2-7.3Q129 226.75 146 210.9q17.55-16.35 21.15-37.45 11.8 20.65 9.2 37.7-2.5 16.15-18.35 31.55"/><path fill="#542400" d="M106.85 231.45q-9.25 1.95-18.95 1.45-9.9-.45-19.1-3.35 2.05-2 4.9-6.45 5.9-9.25 5.45-16.6 14.2 5.35 36.05 3.55 27.3-2.35 44.8-16.6-7.9 14.3-22.1 24.45-14.15 10.05-31.05 13.55M64.9 233.5q-3.45 3.25-12.05 9.4-6.15 4.4-7.4 7.15-.4.85-.1 2.15l.7 2.45q-6-4.85-17.5-7.45-12.2-2.7-20.6-.3 1.15-1.7 2.05-2.65 1.7-1.95 2.2-4.1.7-3.1-1.2-6-4.4-6.7-6.6-12.85-2.75-7.75-2.7-16.1 12.95 11.45 29.35 19 17.25 7.9 33.85 9.3"/><path fill="#ddcb37" d="M182.6 96.35q2.4-8.8 2.3-18.35 12.35-2 21.35-9.35-11.3 18.7-23.65 27.7m-31.75 4l1.4 6.2.35 1.15-3.55.45-4.4-6.9 6.2-.9m4.5 161.95l-.1-.15-.15-.9q5.25 1.2 11.1-.55 5.7-1.7 9.75-5.5 1.5 2.55-.15 4.3-1.95 2.2-10.75 3.05-8.35.8-9.7-.25m-121.8 3.8q-7.15 1.25-12.95.25-4.5-.8-9-4.1l3.8.65 13.2.85q8.2-.55 10.2-5.7 1.45 1.55 2.05 3.05.6 1.4.2 2.2l-.1.25q-1.05 1.4-7.4 2.55"/><path fill="#804a0c" d="M88.25 10.7q9.8 5.55 11.65 10.65l-.65.1q-11.1-6.7-24.85-7.75-1.6-2.9-2.2-4.9-.65-2.05 0-2.25 5.9-1.6 16.05 4.15"/><path fill="#ddcb37" d="M144.65 101.25l2.95 4.7 4.05 6.05q1.05 1.35-.5 2.45-1.55 1.05-4.65 1.2-8.75.45-22.05-9-13-9.25-16.9-18.15 8.15 7.25 20.45 10.9 10.6 3.15 16.65 1.85m-94.3 24.55q-8.35-11.85-10.9-25.05l5.25 8.75q7 10.2 15.8 17.55 10.95 9.2 24 16.05 11.3 5.85 11.95 6.7 2.2 2.75 2.95 7.8.7 4.9-.35 9.15l-3.2-9.8q-1.5-3.75-3.3-4.5-17.9-7.4-27.95-12.7-7.05-3.65-14.25-13.95m58.45 24l4.3 3.85q4.45 4.85 5.45 10.05l-3.65-3.8q-4.25-4-7.3-5.2l1.2-4.9m13.15.9l-2.05-4.75 4.3.6q4.7.9 6.65 2.35-5.75 1.9-8.9 1.8m41.1-127.3l3.15-1.6q3.55-2.45 5.5-6.65l-1.05 4.8q-1.5 5.35-3.45 7.8l-4.15-4.35m65.1-.6q-1.3 1.8 2.5 3.7-2.75 1-1.9 4.35.9 3.55 5.6 4.4l-6.1 1.8q-2.3.7-2.7 1.35-1.85 3.15-4.2 4.5-2.05 1.15-4.05.75-2.4-.55-3-3.5-.65-2.95 1.2-5.2 2.75-.5 6-2.8 3.4-2.45 3.55-4.35-1.55-1.65-4.3-2.8-5.5-2.3-11.4.35 1.65-1.45 8.5-3.65 8.6-2.7 13.35-1.1l-3.05 2.2"/><path fill="#0d131a" d="M53.6 41.7Q63.25 30.3 75.2 22q.15.95.75 1.7Q65.3 31.35 56 42.35q-22.5 26.5-35.5 63-13 36.3-10.5 65.2-1.35 2.1-1.75 2.95-3.15-32.25 10-69.4Q30.9 68.4 53.6 41.7m129.75 14.1q3.9 13.75 2.55 28.45-1.35 14.35-7.25 24.8-.8 1.3-1.55 1.55l-2.15-.15-1.2.95q-4.85 5-11.3.55-.95-.65-1.3-.65-4 .45-6.55-.55-2.8-1.15-3.3-3.85-1.6-9.3-4.85-14.25-3.25-4.95-8.65-6.2-12.5-2.85-14.5-3.7-6.25-2.5-7.85-8.25-.5-1.8.05-2.3.6-.55 1.1 1.25 1.45 5 8.1 7.65l13.55 3.75q6 1.55 9.5 6.7 3.45 5.1 5.2 14.85.35 2.15 2.7 3.1l5.2.25q1-.2 2.4.85 2.75 1.9 5.3 1.7 2.35-.2 4.25-2.1 1.35-1.45 2.25-1.35l1.55-.25.7-1q5.7-10.05 6.75-23.85 1-13.8-2.9-27.55-3.85-13.65-11.8-24.15-7.9-10.5-18.9-16.5-10.35-5.7-22.8-6.95-13.15-1.3-26.55 2.65l-1.55-1.5q14.15-4.3 27.95-3.05 13.15 1.2 24 7.15 11.25 6.15 19.55 17.1 8.4 11 12.3 24.85"/><path fill="#0d131a" d="M107.35 89.05Q105.8 87.5 106 86.7q.15-.8 1.7.75 6.95 7.05 18.5 10.75 12.75 4.05 24.4 1.5l.5 2q-12.3 2.65-24.85-1.35-11.4-3.7-18.9-11.3M172.5 7.7q1.55 1.95 0 9-1.5 7.05-4.45 11.9l-1.55-1.1q2.85-4.55 4.05-10.35 1.15-5.25.3-7.4-4.05-1.55-11.35.1-6.85 1.55-10.1 4.15l-1.2-.85q4.65-4.05 14.1-5.65 8.8-1.55 10.2.2m60 13.3q-2.45 1-3.55 1.65-1.9 1.05-2.4 2.05-.65 1.4-1 .7-.3-.7.4-1.9.8-1.3 2.45-2.2.8-.45 3.55-1.6 2.75-1.15 3.1-1.55-.5-1.1-2.6-2.4-2.9-1.85-6.65-2-1.85-.05-5.85 1.1l-4.55 1.1q-5-.15-8.85 1.95-3.3 1.8-8.95 7.15l-7.8 7.3q-7.85 6.55-14.25 8.35-.25.1-.6-1.3-.35-1.35-.1-1.35 4.8.05 13.3-6.75l8.7-7.85q5.85-5.55 9.15-7.25 3.8-1.95 9.4-1.65l3.95-1.45q3.95-1.5 6.3-1.45 3.65.1 7.4 2.3 3.3 1.95 3.9 3.6.55.9-.3 1.5L232.5 21m-83.75 86.5l3.7-.4 1.25 1.95-3.85.4-1.1-1.95"/><path fill="#0d131a" d="M228.75 22.35q0 1.4.65 2.05.55.5 2.85 1.45 3.1 1.2 4.65 2.1 3 1.75 4.45 4.05 1.05 1.5.3 1.95-2.2 1.2-6.05 2-5.15 1.1-8.4 2.5-2.75 2.3-7.85 10.6l-8.8 14.9q-6.95 11.95-11.4 17.9-7.6 10.2-16.55 16.45.55-1.7.5-3.3 7.95-6.05 15-15.6 3.5-4.7 10.6-16.2l8.7-14.25q6.15-9.75 9-12.1 1.1-.95 8.45-2.5 4.5-.95 4.7-1.45-1.45-3.1-8.1-5.7-2.15-.9-3-1.65-1.1-.95-1.1-2.45 0-.2.7-.55l.7-.2"/><path fill="#0d131a" d="M209.25 24.7q3.3-1.8 8.05-1.25 4.15.5 7.05 2.35 2 1.3 2.1 1.85.1.55-1.4 2.25-1.95 2.15-5.85 4.05-3.85 1.9-6.85 2.2-1.8.15-2.25-.4-.4-.55 1.35-.75 3.35-.3 7.55-2.8 4-2.4 4.85-4.25-1.55-1.7-5.9-2.65-5-1.05-8.45.8-1.55.85-1.7.15-.1-.75 1.45-1.55"/><path fill="#0d131a" d="M214.3 34.8q-.05-.3.85-.45l.95.15q.2.85-.4 2.1l-1.25 1.65q-1.15.9-1.7.7-.6-.25.3-.95.7-.6 1.05-1.55.35-.9.2-1.65m-55.1 94.75q-5.1-12.05-15.9-28.45l1.95-.15q10.8 15.9 16.1 28.15 6.55 15.15 7.5 30.6 2.1 33.9-27.6 57-15.55 12.2-34.7 15.95-19.55 3.85-38.1-2 .65-1.3 1.05-1.6 17.45 5.3 36.3 1.55 18.9-3.75 34.05-15.6 13.7-10.7 20.65-25.05 7-14.35 6-29.9-.95-15.4-7.3-30.5"/><path fill="#0d131a" d="M166.4 175q-.15-.2.4-1.6.5-1.35.65-1.15 12.35 21.7 9.5 39.65-2.8 17.2-19.9 32.7-1.4 1.3-2.35 1.2-.9-.15.55-1.45 16-14.4 19-31.9 3.1-17.95-7.85-37.45m-62.35 56.8l1.85-.3 2.25-.15q5.05 3.6 8.55 7.15 4.2 4.25 4.8 7.05.15.4-.3.75-2.25 1.35-2.1 3.65.25 3.45 6.1 6 5.55 2.4 13.25 3.8 7.7 1.45 16.6 1.7l1 .9q.65.9.35.9-9.5-.3-17.7-1.65-8.9-1.45-14.35-3.85-5.45-2.3-7.1-5.7-1.95-3.8 2.75-6.6-.75-2.55-6.9-7.65-5.8-4.75-9.05-6"/><path fill="#0d131a" d="M157.75 243.35q-.3-.05.45-.9.7-.85.85-.8 2.6 1 6.1 3.55 3 2.25 5.05 4.4l-1.9.05q-5.5-5.1-10.55-6.3"/><path fill="#0d131a" d="M158.35 255.85q-2.95 3.25-2.45 5.95 1.8.8 9.5 0 8.2-.85 9.9-2.75.95-1.1.45-2.6-.7-2.05-3.1-4.1-2.2-1.9-3.6-2.05-1.85-.25-5.1 1.4-3.35 1.7-5.6 4.15m-1.2 7.65q-2.65-.2-3.2-1.15-.5-.9.4-3.35 1.45-4.15 6.55-7.4 5-3.15 8.65-2.45 2.65.5 6 4.05 4 4.2 1.35 7.15-1.75 2-8.95 2.85l-10.8.3"/><path fill="#0d131a" d="M163.2 251.75q-.1-.45.4-.6l.95.05q3.55 1.45 6.05 4.15 2.55 2.75 2.8 5.55l-.65.55-.7.1q0-2.75-3.05-5.85-2.75-2.7-5.8-3.95m-152.1-85.3q1.1-2.1 1.85-2.25.75-.15-.2 2Q1.8 190.85 2.9 208.8q.85 12.95 8.7 24.95 2.15 3.25 1.25 6.75-.6 2.2-2.3 4.2-2.5 2.85-3.7 5.5-1.2 2.65-.9 4.7.3 1.85 1.8 2.95.85 2.5.5 2.35-1.7-.7-3.1-2.15-1.35-1.45-1.6-2.85-.65-4.35 5.45-11.4 2.3-2.65 2.4-4.35.1-1.9-2.15-5.25Q.95 221.6.1 208.6q-1.2-18.4 11-42.15m57.05 7.45q-1.5-1.85-.6-1.9.9-.05 2.4 1.8 8.7 10.7 10.4 24.7 1.65 13.05-3.3 21.95-4.1 7.4-11.15 13.6-2.95 2.55-11.2 8.4-7.2 5.05-8.65 7.9-.3.65.75 3.9.9 2.95.4 4.6-.95 2.95-6.05 5.25-.25.1-.2-.75.05-.85.25-1 3.55-2.6 4.2-5.05.35-1.45-.4-3.8l-.7-1.85q-.35-1.1.05-1.9.95-2.05 3.7-4.45l5.85-4.45q6.95-4.9 10.55-8.25 6.1-5.75 10.2-13.1 4.8-8.65 3.4-21.45-1.5-13.85-9.9-24.15"/><path fill="#0d131a" d="M35.6 256.3q-4.55-3.1-10.95-3.65-5.7-.5-10.05.65-3.6.95-5.25 2.7-1.05 1.1-.8 2.05.2 1.3 3.9 3.9 4.25 3 8.3 3.7 5.7 1 12.65-.2 6.1-1.1 7-2.35.4-.5-.2-1.85-1.15-2.65-4.6-4.95m-10.85-5.5q6.2.55 11.15 3.75 4.25 2.75 5.8 6.1.95 2.15.05 3.3-1.75 2.3-8.2 3.55-6.85 1.35-13.2.2-3.55-.6-8.3-3.65-5-3.2-5.45-5.6-.25-1.4 1.4-3.25 2-2.1 5.9-3.4 4.9-1.55 10.85-1"/><path fill="#0d131a" d="M24.45 251.85l.9.15q.7.3.45.5-3.05 2.55-4.55 7.25-1.4 4.5-.1 6.15.2.25-.75.2l-1.05-.25q-2.55-7.25 5.1-14M84.6 1.65Q96.2 5.15 107 15q1.45 1.35 1.15 2.05-.3.65-1.8-.65Q95.75 7 84.8 3.7 75.2.8 68.35 3.3q-1.4.45-1.7 1-.35.55.15 1.85 4.45 12 15.5 21.7 2 1.45 1.6 2.05-.4.55-2.4-.9-6.05-4.85-9.95-9.95-4.4-5.75-7.05-13-.7-2.05-.5-2.8.35-1.05 2.55-1.9 7.5-2.9 18.05.3"/><path fill="#0d131a" d="M88.45 9.95q10.4 6 12.3 11.15.25.75-.75.95-3.8.6-7.2 2.05-1.85.8-4.4 2.35l-1.95 1.2-1.45.1q-3.5-1.95-9.2-10.4Q70.2 9 70.5 6.5q.1-.95.85-1.1 6.2-1.7 17.1 4.55m10.45 10.9q-2.55-4.85-11.45-9.8-9.4-5.25-14.9-3.85v.15q0 2.35 4.3 9.1 4.8 7.45 8.95 9.8l1.85-1q5.6-3.4 11.25-4.4M76.55 84.3q-2.85-1.55-2.1-2.05.7-.45 3.55 1.1 4.55 2.45 8.15 7.4 2.5 3.35 7.25 12.15l2.8 5.15q3.75 6.7 9.1 13.15 5.25 6.35 12.95 13.5 1.1 1 .6 1.55-.45.5-1.55-.55-8.35-7.9-12.1-12-6.5-7.1-9.9-13.15l-2.8-5.15q-4.95-9.1-7.65-12.95-4.1-5.85-8.3-8.15"/><path fill="#0d131a" d="M126.45 138.8q4.85 3 6.5 6.95 1 2.2.5 3-.35.6-2.45 1.3-2.9.95-9.3 1.2-.3.05-.3-.65-.05-.7.25-.75l6.35-.8q3.2-.65 3.55-1.25-1.05-4.3-5.65-7.45-2.6-1.8-7.45-3.75-3.35-1.3-4-2.3-.65-1.05 4.5 1 5.05 2 7.5 3.5"/><path fill="#0d131a" d="M118.45 145.2q-1.55-1.4-.9-1.6.65-.15 2.2 1.25 2.75 2.6 3.85 8.2 1 5.15 0 8.65-1.2 4-2.55 4.4-1.7.45-5.05-3.55-5.75-6.75-8.55-6.95-.4 0 .45-1.55 3.8.55 9.6 7.6 1.95 2.3 2.9 2.05.85-.2 1.55-2.6.9-3-.1-8.15-1.05-5.5-3.4-7.75"/><path fill="#0d131a" d="M37.45 98q-.55-2.35.05-2.95.6-.55 1.25 1.75 6.3 23.45 17.8 34.9 9.8 9.75 31.3 17.45 5.6 1.95 7.75 6.05 2.1 3.9 3.65 9.95.55 2.2 3.5-1.25 1.8-2.1 3.1-5.35 1.55-3.7 2-7.95.3-3.1.95-2.8.65.35.3 3.5-.75 7.9-4.7 13.4-2.95 4.05-4.9 3.8-1.5-.15-2.05-2.5l-1.35-5q-.95-3.35-1.95-5.15-.95-1.75-2.6-2.95-1.5-1.05-4.15-2-22.55-8.05-32.3-17.4Q42.85 121.75 37.45 98"/><path fill="#0d131a" d="M60.65 148.45q4.4-1.55 6.55-1.9 3.85-.65 7.2.5 4.5 1.6 7.4 5.15 1.5 1.9 3.8 6.5 1.95 3.9 3.35 5.6 2.25 2.7 5.65 3.75 4.85 1.55 9.05.4 2.5-.65 6.95-3.3 3.95-2.35 6.35-3.15l1 1.35q-3.25.95-6.65 3-5.2 3.15-7.45 3.8-4.45 1.35-9.85-.35-3.75-1.2-6.2-4.4-1.15-1.5-3.4-6.05-2.05-4.05-3.75-5.9-2.65-2.9-6.9-4.4-3.15-1.1-6.5-.75-2.5.25-6.15 1.5-4.95 1.65-7 2-4.2.7-7.9-.65-3.65-1.35-5.55-4.65-.9-1.55-2.2-6-1-3.25-1.85-4.6-1.3-2-3.7-3-4.25-1.65-9.45 1.15l-3.55 1.75-3.6.35q-2.65-.65-3.95-2.85-.95-1.6-.2-3.35.9-2.15.85-.55 0 1.6.8 3 1 1.7 2.85 2.15l3-.25 3.1-1.5q3.25-1.75 4.9-2.2 3-.8 5.85.3 2.8 1.15 4.3 3.9.85 1.5 1.95 5.3 1.2 3.9 2.2 5.55 1.75 2.7 5 3.9 3.45 1.25 7.15.7 2.15-.3 6.55-1.8M166.9 169q.65 1.45-.6 5.65.3-3.85-1.55-5.85-1.4-1.5-3.3-1.5-1.75 0-3.65 1.2-1.35.85-3.4 2.8-3.55 3.45-4.9 4.3-3.2 2.05-6.6 1.45-2.25-.4-4.35-2.5l-3.4-4q-2.35-3-4.3-4.45-2.8-2.05-6.6-2.75l-1.9-.25.6-1.8 1.55.2q4.05.75 7.15 3.25 1.9 1.5 4.6 4.95 1.95 2.5 3.05 3.45 1.75 1.6 3.75 1.95 3 .55 5.8-1.05 1.7-.95 4.6-3.75l3.9-3.4q2.25-1.6 4.35-1.6 3.5.05 5.2 3.7M84.25 80.55q1.7 3.25 2.4 6.65.4 1.75.2 2.7-.2.95-.75-.65-3-9.15-7.4-13.85-1.25-1.35-.85-1.7.4-.3 1.75.85 2.7 2.4 4.65 6M169.6 64.9q9.05-.85 14.7 1.05.3.1.1.85-.25.8-.5.7-5.15-1.75-14.15-1-9.5.8-16 3.9l-1.35-.05q.2-.8 1.75-1.55 6.4-3.05 15.45-3.9m14.8 17.85q.3-.05.45.75.1.85-.2.9l-11.3 1.25q-8.7.45-14.7-.3-2.05-.25-2.45-1.05-.35-.75 1.7-.5 5.2.65 14.75.15l11.75-1.2m-1.55 12.65q.25-.15.15.85l-.4 1.1q-6.1 3.4-12.95 3.6-6.9.25-12.85-2.85-1.65-.85-1.9-1.65-.25-.75 1.4.1 5.9 3.05 13.3 2.75 7.4-.35 13.25-3.9m-44-38.35q-1.25-1.25-.65-1.3.55-.1 1.85 1.1 2.8 2.55 3.4 6.25.5 3.15-.65 5.85-.8 1.85-1.35 2.05-.6.25 0-1.6 1.05-3.15.4-6.5-.7-3.55-3-5.85M121.3 53.1q-2.35.7-2.7 1.4-.35.7.15 1.55.6.9 2.4 2.25 1.25.95.55.9-.75-.1-2.15-1.05-2.95-2.05-2.75-3.45.25-1.55 4.05-2.25l1.8-.05q.2.25-1.35.7"/><path fill="#0d131a" d="M137.7 61.4q-1.2-2.85-4.1-4.75-3.5-2.35-8.55-1.5-.85.15-1.05.4-.3.25.25.7 7.5 6.5 13.6 12.3.6.6.8.5.25-.1.2-1.2-.1-4.05-1.15-6.45m-3-5.6q3.15 2.15 4.55 5.7 1.3 3.35.9 7.3-.2 1.6-.9 1.75-.8.2-2.4-1.25L123 57q-1.2-1.05-1.05-1.7.1-.7 2-1.15l5.5-.25q3 .4 5.25 1.9"/><path fill="#0d131a" d="M136.4 62.1q.85-.95 1.4-.5l.2.65-.45.8-.75.55-.65-.05q-.25-.25-.15-.65.05-.45.4-.8"/></svg>