<svg xmlns="http://www.w3.org/2000/svg" width="387" height="373" viewBox="-0.9 0.25 386.7 373.0"><path fill="#ffeb3f" d="M167 63.4q6.55-3 16.6-3 9-.05 16.1 2.1 3.5-8.75 22.4-27.6 18.35-18.35 21.35-17.45 2.4.7-1.6 31.8-3.2 24.8-6.35 41.4l1.05 5.8q2.7 15.25 2.6 26.4-.15 13-4.1 22-4.5 10.2-13.55 17.95-9.55 8.15-20.45 10.25-3.4 6.8-7.85 11.4-4.75 4.95-8.3 4.75-3.9-.2-8.55-5.2-4.3-4.65-7.5-11.3-11.2-2.6-20.7-10.35-9.1-7.45-12.5-16.15-4.05-10.5-4.55-22.65-.35-9.15 1.4-21.05l1.65-10.3q-7.55-18.15-12.55-44.8-4.75-24.95-2.2-26.05 3.05-1.4 21.5 14.4Q160 52.1 167 63.4M47.6 110.5q2.6 1.3 7.05 4.1l6.7 6.65q6.3 6.55 9.1 8.65-4.75-1.05-12.55 0-7.65 1-10.9 2.95-.7.45-1.6 1.45l-3.15-2.45-1.6 3.4q-1.8 2.8-5.65 5.5-4.2 2.95-7.35 3-1.65 0-2.55-.65-2.8-1.9-1.65-9.3.85-5.65 3.7-13.2 1.9-5.1 3.05-7.15.95-1.6 4.45-3 2.9-1.15 6.6-1.85 1.95-.35 6.35 1.9"/><path fill="#ffeb3f" d="M25.1 143.1q.9.65 2.55.65-1.4 6.4-2.5 7.5l-3.55 3.15q-2 1.4-4.25 2-2.85.8-4.75-.4-1.9-1.25-2.35-4.05-.95-5.7-.05-12.3 1.1-8.45 4.55-13.15 1.6-2.25 6-4 3.15-1.3 6.4-1.9-2.85 7.55-3.7 13.2-1.15 7.4 1.65 9.3"/><path fill="#ffeb3f" d="M6.6 142.05q.75-1.55 1.85-2l1.75-.4q-.9 6.6.05 12.3.45 2.8 2.35 4.05 1.9 1.2 4.75.4-1.25 3.6-4.65 5.85-3.05 1.95-6.4 2.05-4 .1-5.1-2.6-1.1-2.55 1.55-10.35 1.85-5.35 3.85-9.3m234 54.95l-1.1-3.25 2.5-.85q1.15 1.05 3.65 2.65l4.35-5.15q1.55 7.4 7.7 24.2 5.65 15.45 9.5 23.75l21.75 23.85q13.05 14.9 14.55 19.35 1.6 4.6 2.25 12.85.7 8.7-.55 12.85-2 6.7-7.5 15.15l-11.2 16.3q.8 2.55 2.85 6.15 2.35 4.2 4.9 6.85 2 1.5 6.65 4.15 3.15 1.75 4.45 3.55 1.7 2.4.5 6.75-1.3 4.45-4.15 4.8-2.6.3-7.75.05l-7.45-.8-1.15.45-6.95.45-8.65-.45q-.7.5-1.2.6l-11.15.9q-8.8-.1-12.95-2.15-5.1-2.55-9-16.5-3.5-12.65-2.6-18.25.35-2.1 2.3-4.95l4.1-5.9q6.1-9.4 8-23.35-8.25-6.85-16.05-12.3-9.15-6.4-15.7-9.5-6.55-3.05-24.05.7-17.05 3.6-26.95 9.7-.4 6.2 3.6 11.65 2.7 3.75 6.85 6.5 1.3.85 2.05 3.6.75 2.65.75 6.1 0 1.95-7.15 18.2-1.7 3.75-5.05 7.25-3.1 3.15-4.65 3.35l-9.85 1.2-10.25-.45q-12.6 1.55-17.55-.5l-10.4.35q-4.35-.7-5.65-2.35-1.55-2-1-5.9.5-3.55 2-5.1 1.05-1.1 5.35-3.1l5.25-2.3q.85-.35 3-4.8 2.2-4.65 2.55-5.2-5.5-4.5-12.3-17.65-6.1-11.8-5.95-14.3.15-2.5 1.9-8.85 1.9-7.1 3.5-9.35l15.1-17.7q13.8-16.15 15.55-20.25 2.35-5.6 2.75-14.95l-.15-12.6.95-1.3.95-.8 1.65.55q1.5.45 2.45 1.05l-1.45 3.9q-1.3 3.65-.75 4.75.45-.05 3.6-1.7 3.15-1.7 3.65-1.75l.4 2.5q.45 2.05.85 2.2.45 0 2.15-1.4 1.8-1.45 2.15-1.55.65.6.95 3.85.3 3.05.75 3.1l2.8-2 3.05-2.3 1.9 2.9 3.1-1.65 1.3 3.75q1.4 3.4 2.2 4l2.5-2.9 3.55-3.75 1.75 2.8q1.15 1.7 2.7 3.1 1.55-4.55 2.5-6.6l1.35 1.65 2.45 2.3q1.8-1.65 3.4-3.8l1.65 2.5q1.65 2.25 2.5 2.9 1.6-3 2.4-3.5.5 1 2.3 2.7l3 2.5 1.4-4q1.3-3.7 1.85-4.6l2.65 1.8q2.6 1.6 3.25 1.85.4-3.85.9-6l2.15 1.55q1.4.95 1.8.9.5-1.55.6-3.5l1.7 1q1.2.85 1.9 1.15 0-3.8.3-4.85l2.85 1.7q2.15 1.15 2.6 1.15-.3-2.25-.45-5.1 5.3 2.15 5.3 1.6 0-1.2-1.45-6.2l4.25.2q.15-.15-.45-2.15"/><path fill="#ffeb3f" d="M22.3 164q-.35 4.9-1.45 7.5-1.4 3.25-5.85 5.4-4.55 2.15-7.2.8-1.25-.65-1.55-5.35-.25-3.4.05-8.05 3.35-.1 6.4-2.05 3.4-2.25 4.65-5.85 1.95-.5 4.3-2.2 1.2 3 .65 9.8"/><path fill="#ffeb3f" d="M40.65 135.25l1.6-3.4 3.15 2.45q.9-1 1.6-1.45 3.25-1.95 10.9-2.95 7.8-1.05 12.55 0 2.1.5 3 1.25 2.5 2.1 4.25 11.3 1.95 10.5 2.85 12.15 2.1 4 9.9 15.1 8.85 12.6 13.8 17.75l12.65-9.75h.25q-.4.8-.85 2.65l-.6 2.85 1.9-.25 1.95-.4-1.6 4.6 5.8-.55-1.1 5.2q-.75 3.6-.6 4.05l4.25-1.85 3.75-2.05q.45.75.85 3.35l.5 2.75q1.9-.55 3.2-1.85l2.45 4.9q.6-.05 1.95-1.7l1.45-2.25 2.35 6.4q-5.95 6.2-19.7 14-14.35 8.15-20.2 8-6.9-.15-30.25-20.6-21.7-19-26.7-26.75-.35-.5-3.75-1.55-3.8-1.15-5.6-2.6-1.4-1.1-4.5-5.3-2.7-3.6-4.4-4.35-2.55-1.1-5.4-.4.55-6.8-.65-9.8l3.5-2.95q1.1-1.1 2.5-7.5 3.15-.05 7.35-3 3.85-2.7 5.65-5.5m211.4-93.45q1.95 3.7 4.2 7.2 2.05 3.2 3.1 4.3 1.3 1.35 3.7 2.25 2.85 1.05 5.9.9h.2l6.65.3.95.6q1.4 1.1 2.4 3.5.9 2.25 1.2 4.7.4 2.85-.3 4.5-.35.85-3.9 2.8-4.15 2.35-7.8 2.95L266 76q-1.15 0-7.85-3.05-7-3.2-8.45-4.65-1.75-1.7-2.85-5.3-1.2-3.85-.35-6.1l3.15-5.9q2.35-4.8 2.4-9.2m60.2 15.5l3-3.1q.7 4.55 6.6 29.85 6.3 26.75 8.45 39.2-13.9-11.45-25.85-26.4-12.15-15.1-20.05-31.05 2-.8 6.5-4.05 3.7-2.65 6.8-5.25l4.45.2q2.15-.15 2.7-.75l.2-.25q.8 1.75 3.05 2.4 2.4.65 4.15-.8"/><path fill="#ddcb37" d="M291.8 54.4q1.2 1.5 5.9 2.1-3.1 2.6-6.8 5.25-4.5 3.25-6.5 4.05-2.6-5.3-4.8-11 3.15 1.55 6.55 1.7l3.05-.65 2.6-1.45"/><path fill="#ffeb3f" d="M319.6 31.05q1.3 2.1 2.3 5.85 1.35 5.1.1 7.75-1.95 3.95-6.75 9.55l-3 3.1q-1.75 1.45-4.15.8-2.25-.65-3.05-2.4l-.2.25q-.55.6-2.7.75l-4.45-.2q-4.7-.6-5.9-2.1l-2.6 1.45-3.05.65q-3.4-.15-6.55-1.7-.8-.4-2.3-1.4l-1.7 1.05q-3.1 1.75-6.45 2h-.2q-3.05.15-5.9-.9-2.4-.9-3.7-2.25-1.05-1.1-3.1-4.3-2.25-3.5-4.2-7.2-4-7.65-4.2-11.05-.25-4.15 5.35-15.6 5.2-10.65 6.95-12 1.4-1 4.95-1.5l5.25.2q2.15.95 6.8 5.2l5.3-.35 7.1.25q1.9.85 5.15 3.85l3.25 3.25 4.65.8 4.95.95q4.15 3.6 4.95 9.95 6.1 3.65 7.1 5.3"/><path fill="#fff" d="M236.75 97.15q4.05-1.95 5-2.05.2.6-.7 2.65l-.8 2.3 3.5-.65 3-.7q-.05 1.3-.7 3.55l-.95 2.8q1.45 1.2 5.25 1.35l-.8 1.5-1.2 1.4q2.45.6 2.8 1.45.25.7-.9 2.2l5.1.3q3.3.15 3.85.65-.6 1.2-3.15 4.25-2.4 2.85-2.45 3.1l7.95-.1-2 3.2 1.15 1.25.7.95-1.1 1.35-1.35 1.3 2.55.45q1.85.15 2.05.95.3 1-2.5 4.5l.45.95 5.1-.35-.9 1.6-1.95 3.35q.45.65 2.7 2.5l2.25 2-1.45 1.2-1.25.85q0 .55 1.85 2l2.25 2.1-3.95 2.25 2.3 2.3 2.25 2.25q-3.4 1.45-4.05 1.45.75 1.55 5.65 7.95l-4.6.5-3.85.25q-.1.55.8 3l.95 2.55-4.05.2q.25 1.2 1.45 2.65l1.6 1.45-3.4 1.05-2.9.6.05.2 1.2 3.5q.95 2.45 1.4 2.9l-3.35.15-3.55-.35q-.1.45.15 2.8.25 2.35.45 2.7-3.35-.65-4.5-1.4l-.15.15-4.35 5.15q-2.5-1.6-3.65-2.65l-2.5.85 1.1 3.25q.6 2 .45 2.15l-4.25-.2q1.45 5 1.45 6.2 0 .55-5.3-1.6.15 2.85.45 5.1-.45 0-2.6-1.15l-2.85-1.7q-.3 1.05-.3 4.85-.7-.3-1.9-1.15l-1.7-1q-.1 1.95-.6 3.5-.4.05-1.8-.9l-2.15-1.55q-.5 2.15-.9 6-.65-.25-3.25-1.85l-2.65-1.8q-.55.9-1.85 4.6l-1.4 4-3-2.5q-1.8-1.7-2.3-2.7-.8.5-2.4 3.5-.85-.65-2.5-2.9l-1.65-2.5q-1.6 2.15-3.4 3.8l-2.45-2.3-1.35-1.65q-.95 2.05-2.5 6.6-1.55-1.4-2.7-3.1l-1.75-2.8-3.55 3.75-2.5 2.9q-.8-.6-2.2-4l-1.3-3.75-3.1 1.65-1.9-2.9-3.05 2.3-2.8 2q-.45-.05-.75-3.1-.3-3.25-.95-3.85-.35.1-2.15 1.55-1.7 1.4-2.15 1.4-.4-.15-.85-2.2l-.4-2.5q-.5.05-3.65 1.75-3.15 1.65-3.6 1.7-.55-1.1.75-4.75l1.45-3.9q-.95-.6-2.45-1.05l-1.65-.55-2 2.3-1.5 1.9-2.7-7.45-1.45 2.25q-1.35 1.65-1.95 1.7l-2.45-4.9q-1.3 1.3-3.2 1.85l-.5-2.75q-.4-2.6-.85-3.35L126.3 194l-4.25 1.85q-.15-.45.6-4.05l1.1-5.2-5.8.55 1.6-4.6-1.95.4-1.9.25.6-2.85q.45-1.85.85-2.65h-.25l-3.45-.35-3.7-.8 2.4-3.55 2.65-3.1-1.4-.8-1.3-1 2.15-2.5q-2.75-.8-3.3-1.9 1.55-2 3.4-3.6-2.35-1.25-3.3-2.6l1.5-1.85q1.4-1.55 2.35-2.35l-1.45-2.15-2.35-3.15q5.7-1.7 8.35-1.45l-.05-1.25q-3.75-1.6-5.7-3.15l2-2.05 2.4-2.5-1.1-.4q-1.25-.55-2.3-1.8l1.65-1.45 1.95-1.55-1.4-1.5-1.85-2.2q.45-.4 2.05-.8l1.9-.6-4-5.25 5.2-2.95-.55-2.05-1-2.5 4.8-.4-.5-1.45-.55-1.7 2.7-.1-.7-1.95q-.45-1.65-.4-2.45l4.3-.05-.05-2.8q-.05-2.3.25-3l1.65.75q1.6.55 2.35 1.1-1.75 11.9-1.4 21.05.5 12.15 4.55 22.65 3.4 8.7 12.5 16.15 9.5 7.75 20.7 10.35 3.2 6.65 7.5 11.3 4.65 5 8.55 5.2 3.55.2 8.3-4.75 4.45-4.6 7.85-11.4 10.9-2.1 20.45-10.25 9.05-7.75 13.55-17.95 3.95-9.05 4.2-21.65.2-10.95-2.5-26.05m114.75 40.5q-.8.05-1.3.6-.55.55-.55 1.35v.1Q340.6 135 331 127.6q-15.3-11.9-28.7-28.3-13.6-16.6-21.95-33.75-.3-2.45-1.2-4.7-1-2.4-2.4-3.5l-1.15-2.9 1.7-1.05q1.5 1 2.3 1.4 2.2 5.7 4.8 11 7.9 15.95 20.05 31.05 11.95 14.95 25.85 26.4 10.7 8.85 21.2 14.4"/><path fill="#ffeb3f" d="M331 127.6q1.65 11.35.55 14.55-2.05 5.9-24.45 17.75-21.75 11.5-42.5 18.2l-1.6-1.45q-1.2-1.45-1.45-2.65l4.05-.2-.95-2.55q-.9-2.45-.8-3l3.85-.25 4.6-.5q-4.9-6.4-5.65-7.95.65 0 4.05-1.45l-2.25-2.25-2.3-2.3 3.95-2.25-2.25-2.1q-1.85-1.45-1.85-2l1.25-.85 1.45-1.2-2.25-2q-2.25-1.85-2.7-2.5l1.95-3.35q22.6-9 27.05-15.8l-1.15-2.35q-3.5-6.05-12.9-24L268.35 75.8q3.65-.6 7.8-2.95 3.55-1.95 3.9-2.8.7-1.65.3-4.5Q288.7 82.7 302.3 99.3q13.4 16.4 28.7 28.3"/><path fill="#a3611c" d="M223.4 46.05q11-14.45 14.7-16.95.75 4.85-2.85 26.7-3.5 21.15-5.75 27.65-2.95-4.7-9.15-9.65-5.45-4.35-10.15-6.45 1.4-5.8 13.2-21.3m-66.8 23.5q-3.3.95-9.75 6.55-6.15 5.4-7.55 8.15-3.6-6.6-8.8-25.95-5.2-19.45-4.85-25 5.6 2 17.95 16.85 11.95 14.4 13 19.4"/><path fill="#cad3cc" d="M365.1 136.55q8.05 0 13.7 5.65 5.65 5.7 5.65 13.7 0 8.05-5.65 13.7-5.65 5.65-13.7 5.65-8 0-13.7-5.65-5.65-5.65-5.65-13.7 0-4.1 1.65-7.8 1.6-3.6 4.45-6.3l1.7 1.8q-2.5 2.35-3.9 5.5-1.45 3.25-1.45 6.8 0 7 4.95 11.95 4.95 4.95 11.95 4.95 7 0 11.95-4.95Q382 162.9 382 155.9q0-6.95-4.95-11.95Q372.1 139 365.1 139q-5.4 0-9.75 3.1l-1.65-1.85q5.15-3.7 11.4-3.7"/><path fill="#cad3cc" d="M365.1 139q7 0 11.95 4.95 4.95 5 4.95 11.95 0 7-4.95 11.95-4.95 4.95-11.95 4.95-7 0-11.95-4.95-4.95-4.95-4.95-11.95 0-3.55 1.45-6.8 1.4-3.15 3.9-5.5 3.05 3.65 4.85 7.15-1.75 2.3-1.75 5.15 0 3.5 2.5 5.95 2.45 2.5 5.95 2.5t5.95-2.5q2.5-2.45 2.5-5.95t-2.5-5.95q-2.45-2.5-5.95-2.5-2.65 0-4.8 1.5-1.8-3.25-4.95-6.85 4.35-3.1 9.75-3.1"/><path fill="#cad3cc" d="M359.15 161.85q-2.5-2.45-2.5-5.95 0-2.85 1.75-5.15l.65 1.35.5.7q-.8 1.3-.8 3.1 0 2.65 1.85 4.5 1.9 1.85 4.5 1.85 2.65 0 4.5-1.85t1.85-4.5q0-2.6-1.85-4.5-1.85-1.85-4.5-1.85-2.1 0-3.9 1.3l-.9-1.9q2.15-1.5 4.8-1.5 3.5 0 5.95 2.5 2.5 2.45 2.5 5.95t-2.5 5.95q-2.45 2.5-5.95 2.5t-5.95-2.5"/><path fill="#fff" d="M355.95 147q-2.15-3.45-3.8-5.05l.9-.8.95-.75q2.25 1.85 4.75 5.3 2.4 3.3 2.8 4.9.35 1.45-.35 2.35-.75.9-1.45.35l-1-1.25q-.85-2-2.8-5.05m-5.95-8.55q.55-.6 1.35-.6t1.35.55q.6.6.6 1.4l-.05.35-.35.8-.65.55-.9.2q-.75 0-1.3-.5-.55-.55-.6-1.3v-.1q0-.8.55-1.35M210.1 126.1q6.7-2.85 12.75 1.35 1 .7.5 2.2-.55 1.5-1.9 1.75-5.25 1.05-9.65 3.05-4.75 2.15-9.7 5.95-.45.35-1.5-.6-1.1-1-.75-2 3.35-8.75 10.25-11.7m-41.85 10.75q.6 1.55-.5 2.55-1 1-1.7.45-3.25-2.45-9.8-5.2-6-2.55-8.3-2.75-1.9-.1-2.6-2-.75-1.95 1.1-3.55 2.65-2.4 6.4-2.75 2.5-.25 8.15 4.45 5.75 4.8 7.25 8.8"/><path fill="#ddcb37" d="M165.4 163.4q.5 4.85 3.2 9.25-8.55-2.05-16.3-7.25-7.4-4.95-12.3-11.5 11.5 6.35 25.4 9.5m38.05 5.55l.9-3.95q11.25-1.7 20.8-5.65-10.25 10.5-22.8 13.4l1.1-3.8"/><path fill="#ffeb3f" d="M47.6 110.5q2.6 1.3 7.05 4.1l6.7 6.65q6.3 6.55 9.1 8.65-4.75-1.05-12.55 0-7.65 1-10.9 2.95-.7.45-1.6 1.45l-3.15-2.45-1.6 3.4q-1.8 2.8-5.65 5.5-4.2 2.95-7.35 3-1.65 0-2.55-.65-2.8-1.9-1.65-9.3.85-5.65 3.7-13.2 1.9-5.1 3.05-7.15.95-1.6 4.45-3 2.9-1.15 6.6-1.85 1.95-.35 6.35 1.9"/><path fill="#ffeb3f" d="M25.1 143.1q.9.65 2.55.65-1.4 6.4-2.5 7.5l-3.55 3.15q-2 1.4-4.25 2-2.85.8-4.75-.4-1.9-1.25-2.35-4.05-.95-5.7-.05-12.3 1.1-8.45 4.55-13.15 1.6-2.25 6-4 3.15-1.3 6.4-1.9-2.85 7.55-3.7 13.2-1.15 7.4 1.65 9.3"/><path fill="#ffeb3f" d="M6.6 142.05q.75-1.55 1.85-2l1.75-.4q-.9 6.6.05 12.3.45 2.8 2.35 4.05 1.9 1.2 4.75.4-1.25 3.6-4.65 5.85-3.05 1.95-6.4 2.05-4 .1-5.1-2.6-1.1-2.55 1.55-10.35 1.85-5.35 3.85-9.3"/><path fill="#ddcb37" d="M106.2 285.95v-.4q13.6 7.85 29.1 10.5 15.85 2.7 30-.7 1.25 4.1 4.5 7.7 2.3 2.55 5.25 4.5 1.25.85 2.05 3.6.75 2.7.75 6.1 0 2.2-7.2 18.2l-.2.45q-23.95-9-50.8-8.75.95-1.3 2.75-5.15l2-4.1q-5.5-4.5-12.25-17.65-6.1-11.8-5.95-14.3m126.95 55.8q-.6-4.6-.2-6.75.35-2.05 2.15-4.75l4-5.65q5.85-8.95 7.9-21.7 14.7 7.35 31.35 4.95 17.4-2.55 27.4-14.6.9 9.25-.45 13.75-2 6.7-7.5 15.15l-11.2 16.3q.7 2.25 2.4 5.4 1.95 3.6 4.15 6.25-29.5-5.9-58.05 1.5-1.35-5.1-1.95-9.85"/><path fill="#ffeb3f" d="M22.3 164q-.35 4.9-1.45 7.5-1.4 3.25-5.85 5.4-4.55 2.15-7.2.8-1.25-.65-1.55-5.35-.25-3.4.05-8.05 3.35-.1 6.4-2.05 3.4-2.25 4.65-5.85 1.95-.5 4.3-2.2 1.2 3 .65 9.8"/><path fill="#ddcb37" d="M142.8 203.55q-5.95 6.2-19.7 14-14.35 8.15-20.2 8-4-.1-14.55-7.85-8.95-6.55-20.4-16.9 16.65 5.75 32.5 5.25 17.75-.55 30.7-9l.25 1q1.9-.55 3.2-1.85l2.45 4.9q.6-.05 1.95-1.7l1.45-2.25 2.35 6.4M279.15 62.9l1.2 2.65q.4 2.85-.3 4.5-.35.85-3.9 2.8-4.15 2.35-7.8 2.95L266 76q-1.1 0-7.8-3-6.95-3.15-8.5-4.65 8.1 2.35 15.2 1.25 7.95-1.25 14.25-6.7m12.65-8.5q1.2 1.5 5.9 2.1-3.1 2.6-6.8 5.25-4.5 3.25-6.5 4.05-2.6-5.3-4.8-11 3.15 1.55 6.55 1.7l3.05-.65 2.6-1.45M266 147.2l1.25-.85 1.45-1.2-2.25-2q-2.25-1.85-2.7-2.5l1.95-3.35 4.65-1.9q2.2 10.2 9 18.15 6.25 7.35 15.9 12.25-16.1 7.6-30.65 12.3l-1.6-1.45q-1.2-1.45-1.45-2.65l4.05-.2-.95-2.55q-.9-2.45-.8-3l3.85-.25 4.6-.5q-4.9-6.4-5.65-7.95.65 0 4.05-1.45l-2.25-2.25-2.3-2.3 3.95-2.25-2.25-2.1q-1.85-1.45-1.85-2"/><path fill="#804a0c" d="M238.1 29.1q.45 2.75-.75 12.4-1.1 8.6-3 19.5-2.95-5.25-8.95-4.9-5.65.35-12.65 5.5 4.5-7.95 13.8-19.65 8.75-11 11.55-12.85m-112.45 4.2q3.3 1.15 9.85 7.8 5.75 5.85 11.75 13.6-5.55.75-8.65 6.1-2.8 4.9-3.4 13.15-3.65-10.8-6.65-23.4-3.15-13.15-2.9-17.25"/><path fill="#fff" d="M210.4 202.2l-3.05.1v-1.05q1.2.7 3.05.95m33.3-23.1l.7.2-.7.05v-.25"/><path fill="#dbdcdc" d="M242.65 179.5q-4.4.8-6.45-.7.4.3 5.2-1l6.2-1.8q-2.75-1.5-3.4-3.15l4.8-.55 5.25-.55-1.2-1.5-1.2-1.55 3.45-.5q2.3-.2 3.35-.9l-2.45-1.5q-1.7-.8-2.25-1.7l6.8-4.45 1.35-.95q1.1-.85 1.2-.8-1.2-.5-3.9-1.1l-3.9-1.15q1-1 3.6-1.75 2.65-.85 3.55-1.55-1.35-1.4-3.85-2.5l-4.3-1.95q.1-.65 1.35-1.7l1.8-1.45 1.05-.9.9-1.05-1.75-.95q-1-.55-.7-1.15.2-.5 2.1-1.15l2.5-.8-.65-.95q-.45-.6-.55-1v-2l-1.25-1.65-.55.65-.55.8-2.1.1q-.05-.45.25-1.1l.45-1.05-2-.15-1.85-.55q.5-1 2-2.85l.8-1.2-2-.65-1.95-.9 1.45-.95 1.45-.85-2.1-1.9-1.1-1.05q-.1-.8 1.35-2 1.6-1.4 1.75-2-.7-.1-2.2-.95l-3.25-1.5q-2.2-1.05-2.25-1.45-.05-.45 1.35-2.2 1.5-1.8 2.3-1.3.6.35.5 1.65-.1 1.25-.7 1.2l5 .3q3.3.15 3.85.65-.6 1.2-3.15 4.25-2.4 2.85-2.45 3.1l7.95-.1-2 3.2 1.15 1.25.7.95-1.1 1.35-1.35 1.3 2.55.45q1.85.15 2.05.95.3 1-2.5 4.5l.45.95 5.1-.35-.9 1.6-1.95 3.35q.45.65 2.7 2.5l2.25 2-1.45 1.2-1.25.85q0 .55 1.85 2l2.25 2.1-3.95 2.25 2.3 2.3 2.25 2.25q-3.4 1.45-4.05 1.45.75 1.55 5.65 7.95l-4.6.5-3.85.25q-.1.55.8 3l.95 2.55-4.05.2q.25 1.2 1.45 2.65l1.6 1.45-3.4 1.05-2.9.6.05.2 1.2 3.5q.95 2.45 1.4 2.9l-3.35.15-3.55-.35q-.1.45.15 2.8.25 2.35.45 2.7-3.35-.65-4.5-1.4l-.15.15-4.35 5.15q-2.5-1.6-3.65-2.65l-2.5.85 1.1 3.25q.6 2 .45 2.15l-4.25-.2q1.45 5 1.45 6.2 0 .55-5.3-1.6.15 2.85.45 5.1-.45 0-2.6-1.15l-2.85-1.7q-.3 1.05-.3 4.85-.7-.3-1.9-1.15l-1.7-1q-.1 1.95-.6 3.5-.4.05-1.8-.9l-2.15-1.55q-.5 2.15-.9 6-.65-.25-3.25-1.85l-2.65-1.8q-.55.9-1.85 4.6l-1.4 4-3-2.5q-1.8-1.7-2.3-2.7-.8.5-2.4 3.5-.85-.65-2.5-2.9l-1.65-2.5q-1.6 2.15-3.4 3.8l-2.45-2.3-1.35-1.65q-.95 2.05-2.5 6.6-1.55-1.4-2.7-3.1l-1.75-2.8-3.55 3.75-2.5 2.9q-.8-.6-2.2-4l-1.3-3.75-3.1 1.65-1.9-2.9-3.05 2.3-2.8 2q-.45-.05-.75-3.1-.3-3.25-.95-3.85-.35.1-2.15 1.55-1.7 1.4-2.15 1.4-.4-.15-.85-2.2l-.4-2.5q-.5.05-3.65 1.75-3.15 1.65-3.6 1.7-.55-1.1.75-4.75l1.45-3.9q-.95-.6-2.45-1.05l-1.65-.55-2 2.35-1.5 1.85-2.7-7.45-1.45 2.25q-1.35 1.65-1.95 1.7l-2.45-4.9q-1.3 1.3-3.2 1.85l-.5-2.75q-.4-2.6-.85-3.35L126.3 194l-4.25 1.85q-.15-.45.6-4.05l1.1-5.2-5.8.55 1.6-4.6-1.95.4-1.9.25.6-2.85q.45-1.85.85-2.65h-.25l-3.45-.35-3.7-.8 2.4-3.55 2.65-3.1-1.4-.8-1.3-1 2.15-2.5q-2.75-.8-3.3-1.9 1.55-2 3.4-3.6-2.35-1.25-3.3-2.6l1.5-1.85q1.4-1.55 2.35-2.35l-1.45-2.15-2.35-3.15q5.7-1.7 8.35-1.45l-.05-1.25q-3.75-1.6-5.7-3.15l2-2.05 2.4-2.5-1.1-.4q-1.25-.55-2.3-1.8.65-.95 1.6-1.55 1.15-.7 2-.45.3.1.15-.6-.2-.75.15-.6l2.05 1.4 2 1.6-1.75 1.9 1.2.75 1.15.8-1.25 1.25q-.95.75-1.25 1.25l1.85 1q1.25.75 1.35 1.3l-2.3.95q.2-.1.7.4l.5.6q1 1.3 1.5 1.5l-2.8 1.3-2.95 1.15 3.45 3.1q-.25-.2-1.95 2.15l-2.4 3.55 2.55.25q1.75.1 2.4.6l-1.65 2.4q-.9 1.4-1.25 2.65l2.75-.1q0 1.9-.9 3.8l2.7.15 2.55.1-5.35 5.25 2.6.05 4.95-.4q-.3 1.45-.45 3.45l-.35 3.15 3-.4 3-.45q-.3 3.05-1.5 7.35l3.85-1.9 3.75-2.45-.3 3.7q0 2.25.3 3.2l2.55-.25q1.95-.4 2.15-.9l.45-.85q.3-.85.5-.4 2.5-.85 5.25-1.4l4.05-.35-1.65 1.75-2.05 1.6 3.7.7-.75 2.5q-.6 1.55-.55 2.55l3.4-.2.05 2.3q.2 1.5.7 2 1.2-1.2 1.95-1.55-.2.15.4 2.25.55 2.1.8 2.35l1.9-1.3q1.45-1.05 1.9-.9-.05.7.55 3.1.65 2.7 1.2 2.95 2.6-4.1 4.9-5.8l1.6 4.1q1.1 2.5 2.25 3.8l1.75-1.75q1.05-1.3 1.55-3.25 1.95 3.85 4.1 6.75.45-.75 1.35-4 .85-3 1.55-3.9.7 1.35 3.35 4.4 2.85 3.25 4.05 3.8l2.65-7.4q.55-.05 3.05 2.25l3.55 3q.05-1.3.85-4.9l7.2 4.8q0-.75.65-2.55l.7-3.15 2.7 1.2q1.95 1 2.7 1.2.2-.55.2-2.3l-.05-3.05 3 1.5 2.8 1.6v-3.45q.1-2.3.8-3.25 3.65 2.2 6.5 3.35l-.65-7.15q.55.45 6.25 1.9-.95-1.7-.8-3.8 3.1 1.5 4.75 1.4-.25-2.7-.15-3.65.3 0 2.3-3.45l2.1-3.45-1.75.2"/><path fill="#ddcb37" d="M40.65 135.25l1.6-3.4 2.9 2.2Q35 152.1 35.4 153.3q2.15 4.05 7.55 4.4 5.1.3 8.1-2.6.5 4.7 1.25 7.15.9 2.9 2.5 3.65 1.75 3.3-4.75 6.45-6.55 3.15-13.15 1.95l-.3-.25q-1.4-1.1-4.5-5.3-2.7-3.6-4.4-4.35-2.55-1.1-5.4-.4.55-6.8-.65-9.8l3.5-2.95q1.1-1.1 2.5-7.5 3.15-.05 7.35-3 3.85-2.7 5.65-5.5m213.8-89.15q3.8 3.25 11.4 2.55 6.7-.65 7.75-2.35 3.75 4 11.3 4 6.55-.05 7.85-1.7 2.45 3.3 8.2 3.95 5.45.6 6.4-1.35 1.85 2.1 3.5 2.65 2.3.75 5.45-.9l-1.05 1.25-3 3.1q-1.75 1.45-4.15.8-2.25-.65-3.05-2.4l-.2.25q-.55.6-2.7.75l-4.45-.2q-4.7-.6-5.9-2.1l-2.6 1.45-3.05.65q-3.4-.15-6.55-1.7-.8-.4-2.3-1.4l-1.7 1.05q-3.1 1.75-6.45 2h-.2q-3.05.15-5.9-.9-2.4-.9-3.7-2.25-1.4-1.4-4.9-7.2M199.6 176.3q-2.35 4.9-6.85 8.9-4.35 3.95-7.6 4.25-3.55.4-9.05-5.35-5.05-5.25-5.1-7.35 6.5 5.3 14.25 5.05 7.5-.2 14.35-5.5"/><path fill="#a6ada8" d="M350 168.55q9.3-1.15 19.7-5.3 10.9-4.4 14.95-9.05 1.15 3.8-1.1 9.35-3.1 7.65-11.8 11-5.2 1.95-10.95.55-6.2-1.55-10.8-6.55"/><path fill="#0d131a" d="M365.1 136q8.4 0 14.35 5.75 6 5.85 6 14.15 0 8.8-6.15 14.7-5.95 5.6-14.15 5.6-8.6 0-14.45-5.85-5.8-5.9-5.8-14.45 0-8.7 6.2-14.35l.85-.15q.4-.05.55.25-2.9 2.6-4.6 6.35-1.75 3.85-1.75 7.9 0 7.7 5.65 13.4t13.3 5.7q7.8 0 13.4-5.45 5.7-5.55 5.7-13.65 0-7.6-5.7-13.2t-13.4-5.6q-6.5 0-11.1 3.4l-.65-.95q4.9-3.55 11.75-3.55"/><path fill="#0d131a" d="M365.1 138.45q7.3 0 12.4 5.05 5.05 5.05 5.05 12.4 0 7.3-5.05 12.3-5.05 4.95-12.4 4.95-7.35 0-12.4-4.95-5.05-5-5.05-12.3 0-7.85 5.25-12.8l.35.45.45.45q-2.4 2.2-3.65 5.3-1.3 3.05-1.3 6.6 0 6.6 4.85 11.4 4.85 4.8 11.5 4.8t11.5-4.8q4.85-4.8 4.85-11.4 0-6.65-4.85-11.5t-11.5-4.85q-5.3 0-9.3 2.95l-.4-.45q-.25-.15-.25-.5 4.55-3.1 9.95-3.1"/><path fill="#0d131a" d="M358.95 162.2q-2.7-2.6-2.7-6.3 0-3.25 1.7-5.45l.7.95q-1.45 2.1-1.45 4.5 0 3.15 2.4 5.55 2.35 2.35 5.5 2.35 3.65 0 5.9-2.55 2-2.3 2-5.35 0-3.5-2.45-5.75-2.3-2.15-5.45-2.15-2.2 0-4.05 1.2l-.5-.45-.3-.3q2.2-1.4 4.85-1.4 3.85 0 6.45 2.7 2.5 2.6 2.5 6.15 0 3.85-2.75 6.4-2.6 2.45-6.2 2.45-3.55 0-6.15-2.55M201.9 64.15q-6.3-2.75-17.15-2.6-11.95.15-19 4.1l-1.75.05q.45-1.25 1.95-2.05 7.8-4.2 18.3-4.35 9.7-.2 17.45 3 1.95.8 2.55 2 .55 1.15-2.35-.15"/><path fill="#0d131a" d="M243.9 17q1.3.75 1.25 5.4-.15 11-3.4 35.95-2.75 21.2-5 33.5 2.05 10.35 2.9 16.4 1.1 7.65 1.1 13.75 0 18.45-9.35 32.25-10.7 15.85-30.55 19.7-.3.05.05-.85t.6-.95q18.4-4.95 28.05-19.2 8.8-13 8.8-30.95 0-12.85-3.65-31.2 1.7-8.95 4.95-32.45 3.9-28.15 3.9-36.45 0-3.05-.85-3.25-.7-.15-3.05 1.65-8.6 6.35-21.7 20.2-14.6 15.35-17.2 22.3-.15.35-1.45 0-1.35-.35-1.2-.65 4.3-8.5 18.25-23.2 13.3-14.05 22.05-20 4.1-2.8 5.5-1.95m-75.7 46.25l-.9.85-1.25.25q-5.45-9.2-20.2-22.85-13-11.95-21.85-17.55-2.7-1.65-3.6-1.5-.95.15-.95 2.3.1 11.05 5.1 32.25 4.8 20.5 10.45 35.2l-.2 1.25q-2.95 17.4-3.1 26-.15 13.8 4.7 26.45 3.35 8.7 12.45 16 9 7.25 19.65 9.9l.5 1q.3.85 0 .8-12.05-2.75-21.6-10.05-9.75-7.45-13.45-17.1-4.75-12.25-4.35-26.5.25-8.3 3.35-26.8-6.65-17.3-11.25-39.3-4.1-19.75-3.8-28.5.15-4.05 1.35-4.7 1.4-.7 5.95 1.85 8.85 5.05 21.85 17.1 13.9 12.9 21.15 23.65"/><path fill="#0d131a" d="M237.35 30.8q-5.1 4.8-14.2 16.9-10.2 13.55-11.95 19.25 4.3 2.05 9.15 5.85 5.65 4.4 8.85 8.85 2.25-7.75 5.15-25.25 3.05-18.3 3.05-25.25l-.05-.35m.3-2.4q.65-.4.9-.25l.35.8q.7 4.55-2.25 24.5-2.8 19.05-5.25 28.5-.75 2.8-1.5 2.75-.45 0-1.95-2.1-3.05-4.2-8.45-8.4-4.55-3.55-8.75-5.65-1.6-.8-1.7-1.35-.05-.55.95-2.85 3.25-7.3 14.25-21.05 10.05-12.65 13.4-14.9M155.6 69.05q-1.85-5.25-12.35-17.95-10.95-13.35-16.75-16.5.25 6.65 4.8 23.65 4.6 17 8.1 24.35 2.4-3.2 7.45-7.55 5.4-4.6 8.75-6m-30.75-35.8q0-1.1 1.1-.75 5.95 2.15 18.4 17.2 12 14.5 13.05 19.7.15.7-.55.95-2.95.85-8.9 6.15-5.05 4.5-7.25 7.35l-1.2 1.75q-.65.8-1 .2-3.6-6.65-8.85-26.85-5.2-20.1-4.8-25.7M171.8 139.2q1.65-2.05 2.2-1.75.6.35-1.05 2.75-2.1 3.2-4.3 8.85-2.65 6.9-2.55 11.2.2 7.85 6.6 17.7 6.55 10.15 12.25 10.45 4.95.25 11.7-9.5 6.8-9.7 7.65-18.3.4-4.1-2.6-11.05-2.45-5.6-5.2-9.2-1.65-2.2-1.15-2.65.5-.45 2.25 1.6 2.9 3.3 5.75 9.25 3.6 7.5 3.1 12.2-.85 8.8-8.2 19.1-7.5 10.45-13.35 10.2-6.35-.35-13.65-10.95-7.15-10.4-7.4-18.85-.1-4.6 2.95-11.85 2.55-6.1 5-9.2M243.2 94l-.2 1.4-.95 2.1-.8 1.65 5.5-1.45q.7-.2.95 0l.2.75-.5 2.05-1.25 4.1q1.9.95 4.2.95.7.05.85.3l-.05.75-.65 1-1.05 1.3 1.9.65q.95.4 1.1.8.15.4-.35 1.15l-.8 1.1 3.85.05 3.85.25q.9.35 1.05.6l-.15.8q-.65 1.25-5.15 6.25l7.1-.3q.8-.05.95.25l-.15.8-2.45 2.95 1.55 1.4q.5.6.45 1l-.3.65-.9.75-1 .7 1.05.05 3.1.4q.8.3.5 1.55l-1.05 2.45-1.75 2.75-1.1-1.95q2-2.4 2-3.1v-.05l-1.8-.4q-1.7-.1-2.45-.55-.5-.3-.5-.6-.05-.2.35-.65l2.05-2.1L259 125q-.55-.45-.15-1.05l1.25-1.95-6.55.1q-.95-.05-.9-.6 0-.45.7-1.35l2.15-2.65 2.5-3.2-7.85-.55q-.9-.05-.95-.45-.05-.3.4-.85 1-1.4.75-1.4 0-.4-2.2-.95-1.25-.3-.2-1.5l1.1-1.5q-3.2-.35-4.45-1.4-.45-.4-.25-.95 1-2.3 1.45-4.95l-5.45 1.05q-.95.1-.95-.95l.65-1.85.8-1.9q-2.2.5-3.55 1.45-.3.2-.55-.4-.25-.6.05-.8 2.85-1.85 5.1-2.45l1.3.05"/><path fill="#0d131a" d="M240.65 193.45q-.25-.25.95-.6l1.4-.2 2.5 1.85 4-4.75q.4-.6 1.1-.2.8.5 3 1.05-.35-2.45-.35-4.25 0-1.3 1.1-.95l5.3.3q-1.1-2.25-2-5.1-.45-1.55.6-1.65l4.75-1.1q-1.9-1.9-2.25-3.7v-.6q.1-.25.6-.35l3.1-.2q-1.35-3.85-1.4-4.65-.05-.95.8-.95l6.95-.5q-3.8-4.75-4.9-7-.35-.8.75-1.2l2.6-.95-3.7-3.7q-.6-.75.3-1.25l3-1.7-3.2-2.75q-.55-.65-.55-1.1.05-.45.6-.85l1.85-1.3-1.9-1.55-2.1-1.9-.55-.95q-.05-.35.25-.85l1.9-3.2-3.45.2q-.75 0-1-.65l-1.2-2.15-2.65 3.5q-.85 1.15-1.4 1.05-.6-.1-.1-1.35.4-1 1.95-3.05l1.45-1.9q.3-.4.7-.4 1 0 2.55 3.55l4.5-.55q1-.15 1.15.2l-.3 1-2.6 4.45 5.15 4 .25.5-.2.5-3.15 1.95 1.75 1.3 1.8 1.4q1.1 1.3.15 1.85l-3.05 1.7 4.25 3.7q.85.85-.35 1.3l-3.9 1.15q1.15 1.9 5.35 6.95l.55 1q.1.55-.7.7l-3.7.3-4.15.15 1.1 3.15.6 2.05q-.05.4-.9.4l-3.3-.25 1.4 1.9 1.25 1.1q1.7 1-.65 1.8l-2.3.65-2.7.6q.85 2.55 2.25 5.4l.3 1q-.15.3-.8.4l-2.6.1-3.55-.2q.1 1.35.9 4.65l.05 1-1.05.1-4.45-1.55-2.15 2.95-1.55 2.1-.75.6q-.35.1-1.05-.3-3.05-1.9-4.2-3.2M277.3 95.5l-10.35-19.05.8-.5 1.35-.5 10.7 19.85q10.45 19.6 12.45 23L294 122q1 2.55 1 3.95 0 2.2-.85 2.8-.9.65-.9-1.55 0-1.1-1.05-3.95l-1.85-4.1L277.3 95.5"/><path fill="#0d131a" d="M291.75 121.3l.9-.05q.75.3.6.65-2.55 6.5-27.85 16.45l.8-2.6q12-4.75 18.05-8.1 6.4-3.6 7.5-6.35m-40.8-81.85l.85 2.2.9 2.2q-.35 2.95-1.65 6.05l-2.4 4.65-1.4 2.65q-.75 2 .4 5.65 1.05 3.35 2.6 4.9 1.35 1.3 8.2 4.4 6.45 2.95 7.55 3.05 3.75.05 8.65-2.45 3.95-2 4.65-3.05.95-2.3-.25-6.6-1.25-4.6-3.55-5.55l-6.5-.25q-5.35.35-7.85 1.4-1.95.85-1.85-.15.05-.95 2-1.8 2.7-1.15 8-1.35 5-.15 6.85.6 3.15 1.35 4.6 6.6 1.3 4.8.05 7.75-.55 1.4-5.25 4.15-5.45 3.15-9.6 3.05-1.45-.05-8.5-3.05-7.3-3.15-8.8-4.65-2.15-2.15-3.25-5.8-1.2-4.05-.1-7.05.15-.45.85-1.5l1.05-1.8q4.25-7.25 3.75-14.25m69.35-8.85q1.65 2.9 2.75 6.05 1.85 5.55.45 8.45-1.35 2.9-5.15 7.4-3.35 3.95-5.5 5.7-2.1 1.8-5.15.85-2.1-.75-3.2-2.7.55-.8 1.3-1 .6 1.3 2.35 1.85 2.1.7 3.6-.55 1.85-1.5 4.9-5.4 3.25-4.15 4.6-6.95 1.15-2.35-.15-7.15-.95-3.55-2.2-5.7-.65-1.15-6-4.5l-.55-2.75 4.4 3.05q2.95 2.25 3.55 3.35"/><path fill="#0d131a" d="M309.3 43.45q.5-2.55 1.2-2.4.75.15.3 2.7-1.85 9.7-5.2 13.25-.9 1-4.1 1.1l-4.9-.35q-1.6-.25-3.2-1.1-1.65-.9-2.3-1.85-.1-.1.55-.7.6-.6.75-.3l1.15.8q1.3.6 3.45.95l4.85.35q2.05-.1 2.4-.5 1.65-1.8 3.1-5.3 1.3-3.2 1.95-6.65m-1.15-28.65q4.15 3.1 5.15 8.95.5 3.05.1 8.15-.2 2-1 2.4-.8.35-.6-1.65 1-11.2-4.75-16.2l-4.8-.7q-4.6-.65-4.95-1.2l-3.2-3.25q-3.1-2.8-4.9-3.6-.95-.4-6.6 0l-5.7.25Q271.75 3.4 270 2.6l-4.8-.15q-3.35.5-4.55 1.35-1.45 1.2-6.55 11.55-5.65 11.4-5.4 15.35.2 3.7 4.9 12.2 4.1 7.5 6.35 9.85 2.05 2.15 6.2 2.75 5.55.85 10.5-2.65 1.9.7 1.5.95-5.35 4.05-11.9 3.45-5.45-.5-8.1-3.25-2.35-2.45-6.5-10.15-4.7-8.7-4.95-12.7-.25-4.3 5.3-16.4 5.2-11.3 7.1-12.8 1.55-1.15 5.7-1.7l6.05.2q1.95.9 6.7 5.85l6-.95q4.9-.5 6.3.1 2.5 1.1 5.05 3.8l3.55 4.15 4.5.35q4.4.4 5.2 1.05"/><path fill="#0d131a" d="M275.55 11.85q.85-1.75 1.7-1.9.85-.2.05 1.6-5.05 11.2-4.75 17.2.15 2.4-.6 2.1-.75-.3-1-2.7-.35-3.55.65-6.95.95-3.3 3.95-9.35m19.55 5.5q-.05-1.5.65-1.25.7.25.95 1.75.4 2.4.1 6.9l-.75 6.55q-.4 2.2-1.1 2.6-.7.4-.5-1.8.75-9.2.65-14.75m-2.5 30.35l1.25-9.1q.2-2 .85-1.55.55.45.65 2.5.05 2.35-.85 8.45l-1.15 6.35q-.45 1.1-3 2.35-2.55 1.35-4.2 1.25-4.1-.2-6.95-1.7l-2.9-2.1q-1.05-.85-3-7.35-2-6.55-2-9.3 0-2.2.65-2.3.65-.1.85 2.3.25 3.25 2.15 8.8 1.75 5.25 2.8 6.4 1.25 1 3.2 1.8 2.6 1.05 5.25 1.2 1.25.05 3.2-.85l2.1-1.35q.35-.95 1.1-5.8m4.15 8.5l1.65.75q-2.2 2.45-6.5 5.75-4.4 3.35-6.85 4.4-.6-.85-.9-2.05 1.8-.75 5.9-3.7l6.7-5.15m33.3 70.8l2.8 2.5q1.45 9.7.2 13.35-2.2 6.4-28.1 19.9-25.8 13.4-46.05 18.8-.85-1.25 1.95-2.5l2.95-1.4q20.55-6.55 42.65-18.3 22.35-11.9 24.3-17.45 1.15-3.1-.7-14.9m-2.8-24.25q3.1 13.1 4.65 21.3l-2.6-1.45q-2.05-11.5-9.1-41.3-5.4-22.5-5.8-26.8-.05-.35.9-.9.95-.6 1-.25.7 6.4 5.55 26.9l5.4 22.5"/><path fill="#0d131a" d="M352.75 137.55q.3.15-.85.3l-1.35-.05Q328.3 126 308.1 102.7q-20.25-23.35-29.6-48.15l1.15.7 1.2.65q9.6 24.5 29.85 47.45 20.2 22.9 42.05 34.2"/><path fill="#0d131a" d="M349.6 139.05v1.55q-18.4-9.3-37.75-29.3-20.05-20.7-31.25-42.9l.2-3.5q10.75 22.35 29.85 43.05 19.3 20.85 38.95 31.1M276.05 53.8l1.85 4.65q-1-.85-2.95-1.9l-.55-1.4 1.65-1.35m84.6 106.9q-2.1-2-2.1-4.8 0-1.8.95-3.25.05.2.3.25.35.05.5.2-.75 1.4-.75 2.8 0 2.3 1.65 3.9 1.6 1.65 3.9 1.65t3.9-1.65q1.65-1.6 1.65-3.9T369 152q-1.6-1.65-3.9-1.65-1.95 0-3.65 1.35l-.25-1.15q.55-.55 1.7-.9l2.2-.4q2.75 0 4.65 2 1.85 1.95 1.85 4.65 0 2.75-1.95 4.7-1.9 1.95-4.55 1.95-2.5 0-4.45-1.85m-124.1 12.4l1.25-.1q.4.2.05 1.2l-1.4 4.5 2.7-.05 3.95.1q1.3.15 1.5.45.15.3-.25 1.5-.55 1.55-3.2 4.6l3.4 2.25 3.2 2.4.25.55-.4.55q-1.4 1.2-7.35 3.15l.85 2.3.8 2.55-.2.9q-.2.25-.85.3l-3.15-.5 1.15 3.35.8 2.4q0 .85-.45.9l-1.25-.2-2.15-.8-2.2-1.05.6 3.85q.1 1.1-.15 1.3l-1.5-.25-2.05-1.2-2.1-1.4.1 3.75-.2.9-.95.1-1.6-1.1-1.2-.9-.1 1.4-.2 1.7q-.2.95-.5 1-.3.05-1.2-.7l-2.65-2.35q-.3 1.45-.5 5.2-.05 1.05-1.1.7l-2.45-1.6-3-2.15q-.6 1.35-2.6 8.75-.3.85-1.15.35-1.6-1.05-4.95-5.5l-1.7 3q-.55.8-1.25.25l-1.8-2.3-1.75-2.75-1.4 1.9-1 1.4-1.2.85-1.05-.7-1.35-1.85-1.15-1.85q-.6 1.55-1.55 5.2-.75 1.95-1.6 1.1-1.25-1.15-2.7-3.5l-1.2-2.15-5.4 6.8q-.55.65-1.05.35l-.75-.85q-.7-.95-1.5-3.7l-1.05-3.8-1.6 1.1-1 .8-.6.15-.5-.5-1.1-2.75-5.45 4.25-1 .05q-.3-.25-.55-1.1l-.4-2.55-.35-3.45-3.05 2.75q-1.05.65-1.6.55-.55-.1-.7-1.05l-.5-3.9-6.4 3.45q-1.95.55-1.35-2.2.2-.95 1.35-3.85l1.25-3-2.25-.75-1.7-.5-.6-.55.45-.7.9-.6.95-.6-1.8-.85-1.55-.75q-.55-.4-.25-1.05.55-1.05 4.3-4.05l-5.35-4.95q-.95-.85.15-1.4l8.1-1.1-.9-3.35-.8-2.45q-.25-.8.7-.9.85-.1 2.1.5 1.35.7 2.2 1.8.8 1 .55 1.5t-1.4-.65q-.5-.55-2.25-1.25l1.05 4.55.05 1.1q-.1.45-.75.45l-2.85.3-3.4.65 4.15 4.6.35.8-.75.8q-1.55 1.05-2.95 3.2l2.45 1.5q.75.4.75.7l-.65.75-1 .95q1.5.45 2.4.85.95.55 1 .85l-.65 2.35q-1.6 3.75-1.7 5.4l3.3-1.65q2.85-1.4 3.2-1.45l.7.15.2.65.8 3.65 3.55-2.7q1.6-1.1 2.2 4.75l.2 1.85 5.05-3.8q.45-.35.65-.3l.55.55 1.45 2.2 2.25-1.15q.65-.3.9-.25l.55.75q1.3 4.3 2.65 6.55l5.45-5.95q.8-.7 1.25.15l1.25 1.9 2.2 2.95q1.4-3.95 2.15-5.45.65-1.45 1.45-.05 1.15 1.75 3 3.2l2.8-3.15q.4-.55.65-.55.35-.05.75.75l1.2 1.8 2 2.6q1.25-2.1 2.15-2.9.4-.35.55-.3l.65.6q1.45 2.2 4.15 4.3 2.35-6.75 2.9-7.75l.6-.5.7.35 4.65 3q.35-3 .8-4.95.15-.65.4-.75.3-.1.85.3l2.95 2 .35-2.4q.2-1.1 1.1-.8.95.35 2.5 1.5 0-2.5.3-3.6.25-1.1 1.25-.5 1.75 1.2 4.05 2.35l-.3-3.85q-.1-1.45 1.15-.8 1.55.8 3.95 1.45L236 199.2q-.3-1.3 1-1.05l3.15.45-1.2-3.9q-.25-.75-.2-1.1.1-.45.7-.65 4.5-1.65 5.95-2.55-4.6-3.4-5.55-4.3l-.35-.4q-.1-.25.25-.7 1.8-2.4 2.7-4.6l-3.85-.15h-2.95q-.85 0-.85-.85l1.2-4.75-2.95.9-1.25-.1q-.05-.5 1-1 2.35-1.1 3.75-1.35"/><path fill="#0d131a" d="M122.3 143.9l2.6 2.7q.7.9.4 1.2-.35.3-1.2-.45-1.75-1.6-3.9-3.05l.1 2.3q0 .85-.95.8l-3.6.2q-2.1.35-3.25.85 2.85 3.85 3.1 4.5.3.5-.2.95-1.5 1.35-3.3 3.55l2.65 2.1.6.5-.45.7q-1.35 1.1-2.9 2.95.7.65 2.45 1.1.75.2.85.5l-.4.8-1.65 1.9 2 1.2q.55.35.55.65l-.45.65q-2.05 1.85-4.3 5.6l3.5.6 2.5.2q.9-.1 1 .3l-.2.85-1.1 4.2 2.75-.5.85.15-.05.95-1.2 3.35 4.55-.45q1.15-.15.9 1l-1.6 7.95q1.65-.7 5.45-2.8l1.3-.65q.65-.35 1.05.3.65 1.15 1.05 4.4l.15 1q1.25-.5 2.1-1.35.65-.7 1.2.1.65.8 2.15 4.25 1.4-1.35 2.35-3 .45-.75.75-.8.3-.05.65.6l2.3 6.15q2.3-3.35 3.95-5.2.1-.1.7.5.55.6.4.75-1.35 1.5-4.6 6.15l-1.35-.05-2.05-6.55-2.25 2.85-1.1.75q-.5.15-.85-.65l-1.75-4.25-2.9 1.65q-.7.15-.95-.35-.4-.6-.9-5.8-6.6 4.15-7.95 4.4-.95.1-.95-1.1l1-4.4 1.1-4.15-5 .5q-.7.05-.85-.25-.15-.2 0-.75l1.55-3.65q-2.2.75-3.05.7-1-.05-.75-1 .75-3.55 1.05-4.5-5.5-.45-6.95-1.15-.8-.35-.35-1.15.6-1 2.45-3.05l2.85-3.05-1.95-1.05q-.75-.45-.85-.7-.1-.25.3-.75l2.05-1.7q-1.35-.4-2.4-1-1.05-.6-1.15-.9-.1-.25.35-.8l1.55-1.4 1.7-1.45q-2.9-1.7-3.5-2.35-.35-.35-.1-.85l1.8-1.7 2.55-2.25-1.7-2.05-2.15-2.65q-.7-.9.4-1.25l3.85-.9 4.35-.45q-.45-2.55-.4-3.05l.25-.7.85.05q1 .4 2.55 1.7"/><path fill="#0d131a" d="M132.65 101.6q.2.1.05 1.05-.2.9-.45.7l-1.75-.95-1.4-.5v3.7l-.05 1.15q-.15.5-.8.55l-3.35.05.9 3.2.15.9q-.15.25-.75.3l-1.75.05.85 2.2q.35.95-.85.95l-3.7.2 1.2 3.25q.25 1-.3 1.4l-4.45 2.5 3.5 4.5q.45.65-.5 1.15l-2.9 1.05 2.75 3.05.15.5-.35.45-3 2.4 2.95 1.75.25.45-.3.5-3.8 3.9 1.95 1.35 1.95 1.25.4 1.5q-4.55-1.75-6.35-3.25-.6-.45-.15-1.1l2.25-2.05 2.25-1.95-1.4-.6-1.95-1.1q-.9-.6-.05-1.45l3.75-2.3q-2.65-2.2-3.25-3.2-.3-.6.15-1.05l1.85-.7 1.55-.35-3.95-4.6q-.5-.8.25-1.2l5.4-2.4-1.95-4.2q-.4-.95.5-1.05l2.4.05 2.15.15q-1.15-2.1-1.35-2.8-.2-.85.75-.85l2.4.05-1.3-3.45q-.25-.95.7-1l3.75.25-.15-2.45-.05-2.9q.15-.8.45-.95l1.25.3 3.5 1.65"/><path fill="#0d131a" d="M125.7 126.35q2.3-.25 5 .85-.4.9-.4 1.8-1.75-1.3-4.5-1.4-2.5-.05-2.55-.55-.05-.45 2.45-.7m18.1 32.3l1.25 1.35q-3.1.85-4.8 2.1-1.6 1.15-2 .8-.4-.4 1-1.7 1.75-1.65 4.55-2.55m2.95 3.5q.3-.2 1.3.45t.7.8q-2 .8-6 4.6-4.25 4.1-5.9 7.15-1.1 2.05-1.65 1.7-.5-.35.5-2.5 1.65-3.4 5.15-7.15 3.15-3.35 5.9-5.05m60.95 19.05q-.85-.9-.25-1 .55-.1 1.5.75 2.55 2.2 4.4 6.7.7 1.65.25 2.35-.45.65-1.2-1l-2-3.75q-1.6-2.8-2.7-4.05m3.5-10.9q-.3-.1.45-.75t1.05-.55q1.25.55 3.4 2.25 2.5 1.95 3.7 3.6 1.25 1.65.95 2.3-.3.65-1.5-.85-1.1-1.35-4.15-3.55-2.8-2-3.9-2.45m26.95-36.05l.35-1.75 6.6.25q3.4.5 5.35 1.65 1.85 1.05 2.05 1.95.2.85-1.6-.2-1.9-1.1-5.85-1.65l-6.9-.25m.75-4.9v-1.75q4.55-.55 7.95.05 2.45.4 2.8 1.1.4.65-2 .5-6.45-.2-8.75.1m7.35 21.55q-1.25-1.45-.95-1.9.35-.4 1.75.8 1.5 1.3 6.4 3.45 1.6.7.75 1l-2.5-.3q-4.1-1.45-5.45-3.05m105.2-12.5q-.6 0-1 .45-.45.4-.45 1t.45 1.05q.4.4 1 .4t1-.4q.4-.45.4-1.05 0-.6-.4-1-.4-.45-1-.45m-1.85-.55q.8-.8 1.9-.8 1.15 0 1.9.8.8.8.8 1.9 0 1.15-.8 1.9-.75.8-1.9.8-1.1 0-1.9-.8-.8-.75-.8-1.9 0-1.1.8-1.9"/><path fill="#0d131a" d="M353.3 140.45q-.25-.15-.05-.9.2-.7.45-.5 1.9 1.45 4.5 4.8 2.9 3.8 3.85 6.55.4 1.05-.05 2.1-.4.9-1.15 1.2-.7.3-1.4 0-.75-.35-1.15-1.3-.95-2.3-3.25-5.55-2.35-3.25-4.35-5-.2-.2.7-.25l1.15.15q2 2 4.05 5.15 2.05 3.05 3 5.35.4.95 1.1.45.7-.45.3-1.65-.9-2.4-3.15-5.6-2.4-3.25-4.55-5M114.65 177.7l2.3 1.2q-9.6 7.55-11.95 9.05l-1.1-1.5q1.75-.95 10.75-8.75M28 163.65q1.35.55 2.75 2.1l2.5 3.2q2.45 3.4 4 4.55 1.8 1.35 5.85 2.55l2.25.8q.95.4 1.3.95 4.8 7.45 26.4 26.4 23.25 20.4 29.85 20.55 5.9.15 20.5-8.25 14.05-8.1 19.3-14l.7 1.05.65 1.1q-6.2 6.4-20.65 14.5-15.05 8.45-21.1 8.3-7.45-.15-30.35-21-20.85-18.9-26.15-27.15-.6-.85-3.85-1.5-3.75-.8-5.95-2.45-1.85-1.4-4.1-4.65l-1.95-3.2q-1.25-1.8-2.6-2.35-2.4-1.05-4.85-.35v-1.7q2.8-.65 5.5.55"/><path fill="#0d131a" d="M56.55 148.35q1.1-1.5 1.35-.45.25 1-.85 2.55-5.3 7.2-10.85 8.25-3.5.65-7.8-1.7t-3.8-4.75q.7-3.45 4.7-10.8 4.35-8 7.15-9.7 4.2-2.55 14.4-3.25 10.65-.8 13.75 1.8 1.85 1.55 3.15 5.9.8 2.7 1.85 8.6l.75 4.95q.4 2.45 1.15 4 2.25 4.65 10.9 16.95 9.55 13.55 13.7 16.95 3.15 2.6 2.95 3.75-.2 1.2-3.35-1.4-4.3-3.5-14.55-17.95Q82.25 159.6 79.8 155q-1.1-2.2-2.45-9.7-.95-5.55-1.65-8.05-1.2-4.15-2.75-5.45-2.6-2.15-12.15-1.4-9.4.75-13.35 3.15-2.3 1.35-6.2 8.9-3.6 6.85-4.4 10.3-.4 1.75 3.4 3.25 3.6 1.45 5.65 1.05 2.55-.5 5.75-3.25 2.65-2.35 4.9-5.45"/><path fill="#0d131a" d="M50.7 155.45q.05-.4 1.25-1.25 1.2-.8 1.1-.45-.8 3.3.2 7.7 1.05 4.7 3.45 7.1 1.25 1.2.4 1.45t-2.05-1q-2.45-2.45-3.65-6.3-1.1-3.6-.7-7.25m-8.8-22.85q-.3-.2 0-.95.3-.8.6-.6l3.4 2.6q.15.15-.3.9-.45.75-.65.5-.75-.9-3.05-2.45"/><path fill="#0d131a" d="M41.1 107q1.95-.35 6 1.8 1.95 1.05 7.95 4.85l1.85 1.8 3.4 3.6 6.6 6.25q3.95 3.5 6 4.9l-1.45.2q-1.9-.15-2.8-.9-3-2.5-9.5-9.35l-4.95-4.85q-10.05-6.4-12.8-5.9-3.6.7-6.4 1.8-3.3 1.3-4.05 2.7-2.75 4.7-5.4 14.35-3.3 11.95 0 14.2 2.2 1.45 7.1-1.2 4.85-2.6 7.3-6.45.65-.95 1.75-3.7 1.25-3.1 1.5-4.85.35-2.05.95-1.55.65.55.3 2.6-.35 2-1.45 5.05-1.05 2.85-1.7 3.8-3.05 4.8-8.35 7.4-5.35 2.6-8.35.55-4.4-2.95-.95-16.7 2.5-10.15 5.05-14.75 1.05-1.75 5.1-3.5 3.55-1.45 7.3-2.15"/><path fill="#0d131a" d="M26.8 143.7l1.65.05q-1.35 6.75-2.7 8.05-3.4 3.45-6.75 5-3.4 1.6-5.85.8-3.3-1-4-5.15-1.05-6.4-.05-13.75 1.1-8.35 4.4-12.95 1.9-2.6 7.4-4.65 3.85-1.45 6.9-1.95.05.85-1.05 2.35-3.15.65-6.05 1.9-3.9 1.65-5.3 3.55-3.05 4.35-4.25 11.9-1.1 7-.1 12.95.45 3.15 2.85 3.9 2.05.65 4.85-.7 2.85-1.3 5.85-4.35 1-1 2.2-6.95"/><path fill="#0d131a" d="M10.2 138.1l-.4 2.45-1.25.35q-.65.4-1.2 1.5-2.1 4.15-3.95 9.65-2.35 7.1-1.45 9.3.95 2.25 4.65 2.1 2.95-.15 5.6-1.9 2.95-1.9 4.2-4.95l1-.4.85.05q-1.2 3.95-4.7 6.6-3.3 2.5-6.8 2.65-2.3.1-4-.7-1.75-.85-2.4-2.4-1.25-3 1.8-12.4l3.35-8.95q1.35-2.6 4.7-2.95"/><path fill="#0d131a" d="M21.05 154.9l1.25-1.3q1.1 2.45 1 8.65-.05 6.6-1.55 10-1.75 4.05-6.6 6.2-4.75 2.05-7.85.45-1.6-.8-2.1-5.4-.4-3.8-.05-9.1l2-.05q-.35 5.35 0 8.95.3 3.3 1.05 3.7 2.1 1.1 6.35-.9t5.55-4.95q1.2-2.75 1.45-8.25.3-5.35-.5-8m121.8 49.45l2.8-2.4q.3 8.15.05 13.55-.55 9.6-2.8 14.9-1.4 3.25-9.5 13.15l-14.5 17q-5.85 6.7-6.7 7.95-1.45 2.05-3.35 8.95-1.75 6.3-1.9 8.8-.1 3.25 7.35 16.8 8.25 14.95 13.55 16.1 2.2.5 1.85 1.1l-2.6.15q-6.1-1.35-15-16.75-3.25-5.6-5.65-11.05-2.25-5.05-2.2-6.15.15-2.7 1.85-9.3 1.95-7.55 3.65-9.9l6.7-7.85 14.6-16.6q8.8-10.15 10.05-13.05 2.25-5.25 2.55-13.65.2-6.8-.8-11.75m106.4-13.45l1.45-.05 1.4.1q1.3 8.3 8.3 27.35 6.85 18.55 10.7 24.75l-2.6-2.85q-2.85-3.3-3.25-4.2-3.55-7.5-8.75-22.05-5.6-15.55-7.25-23.05"/><path fill="#0d131a" d="M260.25 231.7q-1.3-1.8-1.15-2.85.15-1.05 1.45.75l4.05 4.5 7.2 7.65 20.85 22.6q11.3 12.75 12.75 16.85 1.6 4.65 2.2 12.8.65 8.75-.65 13.15-1.6 5.35-5.5 11.65l-7.95 11.6-3.85 5.35-4 5.75q-1.3 2-1.5.8-.25-1.2 1.05-3.2l6.55-9.5q5.35-7.6 7.55-11.3 3.55-6.05 5.15-11.3 1.25-4.1.5-12.75-.65-8-2.2-12.45-1.4-4-12.55-16.9-6.3-7.35-20.05-22.2l-9.9-11m-100.1 62.55q-1.25 1.7-1.35.7-.1-.95 1.15-2.65 5.55-7.3 26.65-12.8 21.1-5.5 29.1-1.7 12.9 6.05 34.5 24.6 1.25 1.1 1.45 2.35.25 1.3-1 .25-8.7-7.5-17.6-13.9-10.5-7.6-17.9-11.1-7.55-3.5-28.65 1.95-21.15 5.5-26.35 12.3"/><path fill="#0d131a" d="M237.2 328.8l-2.3 3.4q-1 1.75-1.25 3.2-.9 5.4 2.6 17.9 3.85 13.6 8.55 15.95 3.9 1.95 12.45 2.1 7.35.1 11.1-.9 1.5-.35 2.35-2.65.65-1.7.7-3.65.05-1.75-.3-2.35-.7-1-2.35-2-2-1.2-4.75-1.9-1.85-.5-1.4-1.15l2.3-.15q3.15.8 4.9 1.6 2.2 1 3.05 2.3.7 1 .6 3.5-.05 2.5-.8 4.45-.55 1.45-1.65 2.55-1.1 1.05-2.25 1.3l-11.85.95q-9.7-.1-14.05-2.25-5.45-2.75-8.95-17.3-3.1-12.75-2.15-18.6.5-2.8 4.05-7.75 3.9-5.35 5.8-9.85 3.2-7.5 3.9-17.8.05-.35 1.3.75 1.25 1.05 1.15 1.35-1.45 10-4.9 17.45-2 4.35-5.85 9.55"/><path fill="#0d131a" d="M282.9 356.4q-2.15-.7-1.7-1.2l2.7.05q6.2 1.45 7.2 4.95.85 2.9-.9 6.9-1.75 3.9-3.95 4.6l-8.3.5-9.6-.85q-.35-.1.55-.8.95-.75 1.4-.7l8.45.4 6.4-.4q1.75-.35 3.15-3.4 1.4-3 .8-5.05-.35-1.4-2.1-2.8-1.7-1.35-4.1-2.2"/><path fill="#0d131a" d="M285.9 339.45q-.1-.25.7-1.35.8-1.15.85-.8.5 2.5 2.45 6.35 2.3 4.7 4.9 7.4 2.2 1.7 5.7 3.6l3.4 1.65q1.9.95 2.75 2.15 1.1 1.55 1 4.4-.1 2.65-1.15 5-.75 1.7-2 2.9-1.3 1.15-2.6 1.35-2.8.4-8.35-.05-5.5-.45-7.85-1.25-.3-.1.45-.75.75-.6 1.2-.5l7.1.65q4.75.2 7.15-.05 1.8-.25 2.95-2.85.85-1.95.9-4.1.05-2.15-.75-3.3l-2.1-2.1-2.9-1.7q-3.3-1.8-5.95-3.75l-.1-.1q-2.45-2.55-4.75-6.5-2-3.45-3-6.3m-12.8-43.2q.7-2.15 1.35-2.15.65 0 .05 2.15-.7 2.35-.95 5.05-.25 3.35.55 4.45l2.55 3.6q2.2 3.75 2.35 7.2.1 1.7-.65 2.25-.7.55-.7-1.15 0-2.75-2.3-6.45l-3.25-4.5q-1.35-1.95-.45-5.95l1.45-4.5m-16.85 36.85q-.75-1.75-.2-1.85.5-.05 1.35 1.05 2.2 3 5.3 5.2 1.15.8.65 1.1-.55.35-1.8-.35-3.8-2-5.3-5.15m-5.45 23.3q3.45-1.15 6.75-.45 1.6.3 1.6.75 0 .5-2 .45l-6.35.4q-1.45.2-1.4-.25 0-.45 1.4-.9m21.45-.5q-2.5.35-2.35-.35.15-.7 2.65-1.1l1.8-.2 2.85.1q1.4.25 1.3.7-.15.45-1.45.4l-4.8.45M149.1 307.55q1.3-2.15 1.8-2 .5.15-.2 2.3t-2.85 4.9q-2.35 3.05-5.35 5.2-1.9 1.4-3.15 1.35-1.25 0 .65-1.4 2.55-1.85 5.4-5.3l3.7-5.05m-13.25 37.35q-1.45-3.35-1.3-6.5.2-3.25 2.05-5 .95-.85 4.8-2.1l3.6-1.05 2.6-.1q.85.5-.9 1.15l-3.7 1.4q-3.8 1.55-4.6 2.25-1.55 1.45-1.75 3.85-.2 2.45 1 5.2 1.25 2.9 11.75 2.55l11.4-1.05q1.4-.3 4.2-3.2 3.25-3.35 4.85-6.95 7.1-15.9 7.1-17.85 0-3.45-.75-6-.7-2.35-1.7-3-4.55-3-7-6.05-4.45-5.5-3.9-12.25l1.7-1.4q1.65-1.25 1.6-.95-1.85 7.15 1.4 12.5 2.1 3.45 7.15 6.8 1.6 1.1 2.6 4.25.85 2.8.85 5.9 0 1.3-2.3 7.25l-4.8 11.4q-1.95 4.35-5.35 8.15-3.2 3.55-4.95 3.75l-12.6 1.3q-11.15.2-13.05-4.25"/><path fill="#0d131a" d="M127.65 330.65q2.25-1.05 2.6-.45.35.6-1.9 1.65-5.75 2.65-6.75 4.35-1.45 2.45-1.2 5.15.2 2.6 1.85 3.75 4 2.8 17.05 1.3.6-.05 1.65.6 1.1.7.7.75l-11.2 1.05q-6.65.1-9.5-1.9-2.15-1.5-2.7-5-.55-3.65 1.2-6.55.9-1.45 4.1-2.95 1.65-.8 4.1-1.75"/><path fill="#0d131a" d="M123 316.95q.75-.05 1.45.7.7.8.35 1.55-4.35 9.15-5.7 9.7l-4.7 2.1q-4.8 2.25-5.6 3.1-1.3 1.35-1.75 4.6-.55 3.6.8 5.35 1 1.35 4.8 2 4.45.8 9.65-.15.35-.05 1.25.6.85.65.5.7-5.55 1.75-11.6.9-5.55-.8-7.15-2.85-1.4-1.85-1.1-6.2.25-4.4 2-6.2.85-.85 6.6-3.2l5.6-2.2q.45-.3 2.25-4.7l2.35-5.8m103.45-60.4q1.55-2.05 2-1.6.45.4-.5 1.95l-2.15 4.05-2.75 5.55q-.8 1.9-1.1.95-.3-1 .15-2.35.85-2.7 1.8-4.5.9-1.85 2.55-4.05m-4.6-130.25q1.9 1.1 1.65 1.5-.25.4-2.2-.6-5.3-2.7-10.8-.15-5.6 2.6-9.5 9.7-1.3 2.35-1.6 1.85-.35-.5.8-2.85 3.6-7.3 9.2-10.15 6.2-3.1 12.45.7"/><path fill="#0d131a" d="M221.1 131.2l1.6.15q-.15.45-1.9.9-4.15 1.2-9.3 3.55-5.45 2.5-9.05 5-1.25.9-1 0 .2-.85 1.5-1.8 8.2-6.05 18.15-7.8m-8.65 9.75q1.65-.65 1.6-.25l-1.6 1.3q-1.45.85-4.05 1.5l-4.35.5-2.1-.55q-.35-.3 1.25-.45 5.05-.4 9.25-2.05m-44.5-5.45q1.2 1.9.9 2.35-.35.5-1.7-1.5-5.95-8.8-11.75-10.7-4.75-1.55-8.9 1.6-1.4 1.1-1.55.7-.15-.35 1.15-1.65 4.5-4.3 9.9-2.45 6.1 2.05 11.95 11.65m-2.15 3.75q1.45 1.15 1.15 1.45-.3.25-1.8-.65-8.25-5.1-16.9-7.45-2.95-.8-2.8-1.35l3.2.15q4.55.95 9.05 3 4.65 2.1 8.1 4.85m-.65 3.65q1.7.05 1.1.45l-2.4.45-4.05-.4q-2.6-.6-4.05-1.45-1.85-1.05-1.65-1.4.2-.4 2.15.5 1.25.6 4.1 1.15l4.8.7"/><path fill="#0d131a" d="M160.05 130.55q-.05-1.2.15-2.05.25-1 .7-1 .45-.05.75.9l.3 2.1-.15 2.05q-.25 1-.7 1-.45.05-.75-.9l-.3-2.1m47.1-.55q0-1.15.3-2.05.3-.95.75-.95.45.05.7 1l.2 2.05-.3 2.05q-.35.95-.8.95-.45 0-.7-1-.2-.85-.15-2.05"/></svg>