<svg xmlns="http://www.w3.org/2000/svg" width="312" height="212" viewBox="-0.7 -0.9 311.8 212.0"><path fill="#ef8337" d="M64.55 59.7q.75 1.55 3.4 3.65 3.05 2.4 6.6 3.65 9.8 3.5 16.9-3.8-.25 5.9-4.6 11.8-4.65 6.35-10.8 7.75-7.45 1.65-16.65 1.6-9.1-.05-10-1.65-2.05-3.55-5.8-8.6-4.6-6.2-7.2-8.25-.7-.5-.85-5.3-.1-5.3 1.85-6.85 5.5 7.1 13.1 8.5 7.1 1.35 14.05-2.5"/><path fill="#fad7b5" d="M114.2 58.15q2.45-1.2 4-.4-.8.45-1.4 1.35-2.45.1-2.55 2.75-.15 2.7 2.95 3.8.8 1.4 2.05 1.9-1.9 5-2.05 6.55l-7.45-2.95q1.25-3.3 1.45-5.1l.2-4.4q.25-2.25 2.8-3.5"/><path fill="#0d131a" d="M37 36.35q-1.75-1.4-6.85-.85-4.85.5-9.55 2.3Q26 31.3 32 28.7q2.7-1.15 11.2 1.85 9.1 3.2 13 7.65 1.45 1.65 3.9 9.75 2.65 8.8 4.45 11.75-6.95 3.85-14.05 2.5 1.6-.65 1.85-2.75.35-2.35-1.2-5.2-2.95-5.4-7.8-11.2-3.85-4.65-6.35-6.7"/><path fill="#fad7b5" d="M77.6 120.55q-1.1-1.6-.55-3.95.45-2.1 1.85-3.85.9-1.15 4-1.95t4.75-2.95q.45 1.3 1.5 2.3.95.95 2.05 1.25 2.1.6 4.25-.7.3 3.25-1.45 5.4-1.55 1.95-3.9 2.1l-5-.45q-3.95.05-7.5 2.8"/><path fill="#fad7b5" d="M96.45 76.8q.85.2 8.2 4.45-.95 1.8-1.85 6.8l-1.65 9.15q-.6 2.8-1.5 9.25-.5 2.95-3.25 4.35-2.55 1.35-5.2.6-1.85-.45-3.4-2.8-1.95-2.9-.3-5.9 1.95-3.5 4.95-12 3.25-9.15 4-13.9m194.6-.6q.85-.7 1.25-1.9.45-1.4 0-2.85 2.5-1.65 5.65-1.95 1.45-.15 3.3 1.2 1.85 1.3 2.5 2.8-4.75.65-7.3 3.8-2.85 3.55-5.2 4.3-2.95.95-4.9-3.3 2.4-.35 4.7-2.1"/><path fill="#fad7b5" d="M263.1 55.85q2.3-.55 1.65-3.35-.7-2.8-3.5-2.35-.75-.75-1.85-1.25 1.15-.9 2.4-1.2 1.55-.4 2.75.35l9.9 7.95q10.15 8.25 16.1 12.5 1 .7 1.35 1.45l.4 1.5q.4 1.25-.1 2.8-.45 1.35-1.15 1.95-1.95 1.5-4.1 1.85l-2.65-.3q-1.55-.55-2.2-1.6-2-3.25-7.6-8.75-4.5-4.35-6.6-5.95-.85-.65-3.35-1.85-1.9-.95-2.3-1.65l.5-.9.35-1.2"/><path fill="#fad7b5" d="M261.05 49.5q3.45.55 3.8 3.35.3 2.7-2.1 3.25.25-3.25-.4-4.5l-1.3-2.1M117.2 65.65q-3.1-1.1-2.95-3.8.1-2.65 2.55-2.75-.75 1.2-.65 3.1.1 1.9 1.05 3.45"/><path fill="#fad7b5" d="M129.9 62.25q-.4 4.65 1.75 9.3-2.25-1.15-5.3-2.35-3.95-1.5-5.55-1.4l-1.55-.25q-1.3-.5-2.15-2.1-1-1.7-.95-3.9.05-2.25 2.15-3.7 2.1-1.4 3.9-.5.55.3 2.9 2.15 2.65 1.95 4.8 2.75"/><path fill="#ef8337" d="M198 47.4q-4.4-5.55-10.7-4.95-8.75.85-13.5 9.55-4.4 8.1-1.4 14 6.9 1.8 16.5-1.55Q198 61.3 200.7 57q1.35-4.5-2.7-9.6m-6.35-37.65q2 .1 2.55 3.35 3.05 17.55 8.95 24.65 1.95 2.35 6.1 4.65.65.4 8 4.05Q227.9 51.8 231 57.7q1.65 3.05 2.05 8.55.3 3.75-.05 7.3-.35 4.2-1.55 6.75-2.6-4.15-6.35-3.1-3.85 1.1-3.75 6.9-3.15-4.7-8.7-7.65-5.25-2.75-12-3.7-1.3-3-3.3-5.1-2.15-2.2-4.5-2.75.95 3.4.55 7.4-10.85.15-20.25 4.5-10 4.65-14.65 12.5-2.1-4.05-7.65-8.35-5.4-4.1-9.2-4.9-1.9-4.15-2.05-8.15-1.7.9-3 2.85-1.3 1.9-1.85 4.25l-1-.25q-1.25-1.3-2.1-3.2-2.15-4.65-1.75-9.3.25-2.85 1.5-4.2 1.55-1.7 5-3.5-.65 3.85 1.1 7.25 1.8 3.65 6.6 5.45 4.65 1.75 9.2.8 1.6-2.15-.45-8.8-2.15-6.95-5.85-10 4.6-2.5 7.4-5 3.6-3.2 5.15-6.95 1.15-4.5 1.8-11.1l.55-7.25q.4-3.2 2.3-3.6 1.9-.4 2.95 2.5l3 10.35q3 8.95 6.05 10.7 3.9-1.7 7.3-10.5l5.4-16.35q.85-2.35 2.75-2.3"/><path fill="#fad7b5" d="M247.3 98.8q-.3-3 2.45-3 2.75-.05 3.4 3.2l-1.75-.95q-1.95-.35-4.1.75m-6.1 26.4q-2.8-2-10.1-4.5 2.1-2.35 5.7-3.45 5.35-1.65 11.05 1.1 6.35 3 8.35 11.3 2.1 8.55-3.4 12.9-.1-2.35-1.4-5.35-.95-2.05-1.9-3.4-.75-3.85-3-6.2-2.3-2.4-5.3-2.4"/><path fill="#fad7b5" d="M251.4 98.05q1.55.25 3.1 2.15 1.8 2.1.95 3.9-1.5 3.2-2.35 8.3-1 5.75-.4 9.8-1.85-2.65-6.05-4.35-3.7-1.5-6.1-1.25 2.6-4.45 3.55-7.85.9-3.2.85-7.3l.15-.75q.5-1.45 2.55-2.2 1.9-.75 3.75-.45"/><path fill="#ef8337" d="M249.5 153.7q2.15-3.9 2.85-8.75 3.5 9.4 4.45 17.85 1 9.15-1.65 12.25l-6.7 9.25q-4.3 6-6.75 6.85l-10.3.6q-8.45-.3-9.5-.05-.75.2-3.3-4.75-2.55-4.85-2.25-5.35 2.45.75 5.25.9 6.55.3 10.1-3.4 7.75-8.15 5.7-17.4 8.4-1.05 12.1-8"/><path fill="#fad7b5" d="M241.3 96.1q-5.4-5.65-15.05-7.95-1.25-.3-1.8-2.15-.7-2.1.6-4.05 1.35-2.05 3.4-2.35 1.8-.3 3 .7l1.25 1.3 2.15 1.9q5.8 4.5 16.2 9.05 2.5 1.1 3.3 3.3.8 2.15-.5 3.9l-.7-.75q-.65-3.25-3.4-3.2-2.75 0-2.45 3-1.4.8-1.75 1.8-.75-.3-1.8-1.55l-2.45-2.95"/><path fill="#fad7b5" d="M241.05 81.95q-4.65 1.7-6.2 1.55-1.95-1.5-3.15-2.9l1.15-6.05q1.15-.9 2.75-1.2l6.1-.45 6.05-.5 6.3-1.25q4.25-1.05 7.8-2.9 2.95-1.45 5.55 1-.5.35-.95 1.05-2.15-.55-3.15 1.1-1 1.75 1.05 3.65-.1.65.25 1.3l.65 1.2q-.85 1.35-4.9 1.4l-11.2.65q-2.65.4-8.1 2.35"/><path fill="#ce712e" d="M224.4 174.25q.3-5.05-1.1-8.05-.3-.6-1.9-.6l-3.6.45q4.1-2.2 6.55-3.15 3.3-1.3 5.5-1.15 4.35.35 7.55-.05 2.05 9.25-5.7 17.4-3.55 3.7-10.1 3.4 2.45-2.75 2.8-8.25"/><path fill="#fad7b5" d="M262.35 51.6q.8 1.45.45 4.15-.35 2.75-1.35 3.05-5.05 1.45-10.55 5.9-4.8 3.85-8.15 8.35l-4 .1-3.15.2q-.7-2.95-2.05-3.05l-.15-4.35q4.5-.3 8.4-3.95l7.7-7.55q5.6-5.4 6.95-5.85 1.2-.35 3.2.7 1.95 1 2.7 2.3m27.55 40.05l3.4 3.1q2.4 2.35 2.55 3.55l-1-.15q-2.65-.8-5.45 1.6-2.75 2.4-1.75 4.5l.8 1.3q-5.6 1.3-7-3.95-.85-3.25-5.65-10.65-4.8-7.4-7.5-9.45-4.55-3.4-3.5-7.55.6-2.25 1.25-3.35.75-1.3 1.85-1.6 1.3-.35 3.7.95 2.75 1.5 3.8 4.05 1.15 2.75 7.35 9.9 5 5.75 7.15 7.75"/><path fill="#fad7b5" d="M264.35 75.05q-2.05-1.9-1.05-3.65 1-1.65 3.15-1.1-1.1 1.4-1.65 3.65l-.45 1.1"/><path fill="#0d131a" d="M240.65 125.05q7.25.15 9.1 9.45-3.75-5.6-9.1-9.45"/><path fill="#fad7b5" d="M225.1 87.85q.35 1.6-2.8 4.6-3.1 2.9-6.25 4 .25-1.35-.25-2.5-1.05-2.6-6.1-3.45-5.6-.9-13.1 1.1-8.8 2.35-14.15 6.9-4.9 4.1-3.85 7.05l.75 1.15q-6.7 1.55-13.1 0-4.5-1.1-9.85-4.1-5-2.75-10.05-7.9-4.45-4.6-7.2-5.65l-2-.1-1.15-.25q-2.1-1.2-3.6-3.3-2.2-3.1-1.75-6.75.25-2 1.35-3t2.75-.65q.55-2.35 1.85-4.25 1.3-1.95 3-2.85.15 4 2.05 8.15 3.8.8 9.2 4.9 5.55 4.3 7.65 8.35 4.65-7.85 14.65-12.5 9.4-4.35 20.25-4.5.4-4-.55-7.4 2.35.55 4.5 2.75 2 2.1 3.3 5.1 6.75.95 12 3.7 5.55 2.95 8.7 7.65.35 1.75 1.35 2.85 1.05 1.2 2.4.9"/><path fill="#ef8337" d="M225.25 87.45l.5-.15-.2.45-.3-.3"/><path fill="#fad7b5" d="M116.25 77.7q1.75 1.2 1.95 1.5 2.15 2.75-.15 5.8-2.2 2.85-5.05 2.3l-.55-.1q-.3-.05-.45-.2l-6.7-5.05-5.85-4.15q-1-.6-3-1 2.7-2.45 4.2-4.55 2-2.95 2.55-6.35l2.25 3.1.85 1.15q2.1 2.4 9.95 7.55"/><path fill="#ef8337" d="M175.7 150.15q5.2-7.8 10.8-14.85 5.05-6.3 6.6-7.45 5.55-4 20.1-5.9l19.95-.6 1.1.3q5.7 1.85 11.25 7.35 5.65 5.5 6.75 10.35.7 2.85-.2 7.2-.85 4.05-2.55 7.15-3.7 6.95-12.1 8-3.2.4-7.55.05-2.2-.15-5.5 1.15-2.45.95-6.55 3.15-5 2.7-13.45 9.8-7.1 6-9.4 8.6-2.1 2.4-1.1 12.5l1.7 13.35q-6.3-.05-13.55-2.7-5.5-2-9.15-4.45-2.6-1.75-6.8-10.25-4.05-8.35-4.3-11.95-.65-9.1 13.95-30.8"/><path fill="#fad7b5" d="M302.2 96.8q2.8-.15 5 2.25 1.8 2 2.7 5-4.5-1.2-8.15.7l-4.65 3.05q-4.95 2.6-8.1-1.75l-.9-1.5q-1.2-2.45 1-4.7 2.25-2.25 5.25-1.35l1.1.2q1.2.05 3.5-.9 2.35-.95 3.25-1"/><path fill="#ef8337" d="M83 13.95q6.75 7.55 10.35 20.85 3.25 11.9 2.1 19.8-.3 1.85-1.35 4.25-1.15 2.55-2.65 4.35-5.25 6.15-13.85 4.75-7.85-1.3-12.25-7.1l-.8-1.15q-1.8-2.95-4.45-11.75-2.45-8.1-3.9-9.75-3.9-4.45-13-7.65-8.5-3-11.2-1.85-6 2.6-11.4 9.1-3.8 4.55-6.1 9.5-2.25 4.75-1.85 7.3-5-1.5-9.2-14.3Q-.7 27.65 1.6 22.2q1.95-4.55 11.35-12.4 9.8-8.25 14.7-8.55Q43.8.2 63.15 5.6q16.5 4.65 19.85 8.35"/><path fill="#fff" d="M173.8 52q4.75-8.7 13.5-9.55 6.3-.6 10.7 4.95 4.05 5.1 2.7 9.6-2.7 4.3-11.8 7.45-9.6 3.35-16.5 1.55-3-5.9 1.4-14m-37.4 2.55q.45-2.85 2.1-4.7 1.75-2 4.45-2.15 2.05-.15 4.05 1.55 3.7 3.05 5.85 10 2.05 6.65.45 8.8-4.55.95-9.2-.8-4.8-1.8-6.6-5.45-1.75-3.4-1.1-7.25"/><path fill="#d8ba9d" d="M130.65 78.65q-.4 1.1.4 3.95.8 2.55 1.75 4.05-.6-.35-4.3-.75-3.9-.4-4.6 0-5.1 2.75-7.65 1.1 2.55-1.05 2.75-4.8.15-3.75-2.55-4.2l4.6.6q4.4.85 9.6.05m94.05 8.95q-3.15-1.25-3.45-4.15-.2-2.25.9-3.7 1.95-2.65 4.1-2.9 2.25-.3 3.8 2.2-3.5.55-4.85 2.9-1.3 2.25-.5 5.65"/><path fill="#ce712e" d="M76.05 82.75q-7.45 1.65-16.65 1.6-9.1-.05-10-1.65-1.4-2.45-3.6-5.5 8.75.7 16.5-1.7 8.55-2.55 13.3-8.15 9.15 2.7 15.85-4.15-.25 5.9-4.6 11.8-4.65 6.35-10.8 7.75"/><path fill="#d8ba9d" d="M103.15 61.3q1 4.8-2.1 10.4-2.55 4.7-6.9 6.55-4.65 2-9.1-.4 3.7-4.5 5.3-9.25 2.25-1.65 3.25-3.75 1.1-2.45.05-4.7l1.35-3.5 1.25-3.8q5.8 3.3 6.9 8.45"/><path fill="#0d131a" d="M90.45 68.65q.85-2.6.9-4.6 1.5-1.75 2.65-4.25.9 1.9-.45 4.8-1.2 2.6-3.1 4.05"/><path fill="#d8ba9d" d="M117.2 74.1l-7.1-2.8q4.55-2.3 7-5.7l.1.05q.8 1.4 2.05 1.9-1.9 5-2.05 6.55m-26 37.3q2.1.6 4.25-.7.3 3.3-1.15 5.2-1.3 1.75-3.65 1.9l-3.95-.05-4.9.35q6.05-2.8 8.6-7.05l.8.35m8.6-7.2l.35-2.6.5-3.5q1.8 1.1 3.45-.55.9 1.8 3.1 2.15 2.05.3 3.6-.75 1.2 2.05.45 3.85-.7 1.7-2.5 2.15-1.3.3-3.75-.55l-5.2-.2"/><path fill="#d8ba9d" d="M106.9 82.9l3.3 2.55q2.25 1.75 4.15 2.1-.35 1-.95 5.4-.5 3.75-1.5 4.95-1.95 2.4-5.1 1.55-3-.85-3.4-3.15-.3-1.55 1-6.1 1.05-3.75 2.5-7.3m-1.8-2.05q-1.05 1.9-2.35 7.3l-2.2 9.65q-2.1-7-6.3-11.55 1.65-5.7 2.2-9.45l3.65 1.5q3.05 1.4 5 2.55m128.05-10.5q.85.05 1.55 1.05.65.85.9 1.95-1.6.3-2.75 1.2l.3-4.2m53.2 7.95q2-.3 4-1.6l7.05-.35-2.45 2.85q-1.4 1.7-3.7 2.4-2.95.95-4.9-3.3M129.9 62.6q-.35 4.55 1.75 8.95-2.25-1.15-5.3-2.35-3.95-1.5-5.55-1.4l-1.55-.25q-.9-.4-1.7-1.4 6.7-.3 12.35-3.55"/><path fill="#ce712e" d="M230.6 56.95l1.35 4.55 1.1 4.75q.3 3.75-.05 7.3-.35 4.2-1.55 6.75-3.6-4.35-7-2.55-3.2 1.7-3.1 6.35l-2.15-3.15q-1-1.25-2.95-2.4 13.95-6.5 14.35-21.6m18.9 96.75q2.15-3.9 2.85-8.75 3.5 9.4 4.45 17.85 1 9.15-1.65 12.25l-6.7 9.25q-4.3 6-6.75 6.85l-10.3.6q-8.45-.3-9.5-.05-.4.15-1.8-2.05 14.45-1.25 22.6-11.25 3.75-4.6 4-9.25.25-5.1-3.7-9.1l3.35-3q2.65-2.35 3.15-3.35"/><path fill="#d8ba9d" d="M236.2 92.1q-4.35-2.6-9.95-3.95-1.25-.3-1.8-2.15-.7-2.1.6-4.05 1.35-2.05 3.4-2.35 1.8-.3 3 .7l1.25 1.3 2.15 1.9q3.6 2.75 9.7 5.95-4.75.15-8.35 2.65"/><path fill="#d8ba9d" d="M241.05 81.95q-4.65 1.7-6.2 1.55-1.95-1.5-3.15-2.9l1.15-6.05q1.15-.9 2.75-1.2l9.85-.7q3.8 3.65 8.45 5.2 4.7 1.6 9.65.95l-5.3.25-9.1.55q-2.65.4-8.1 2.35"/><path fill="#0d131a" d="M224.4 174.25q.3-5.05-1.1-8.05-.3-.6-1.9-.6l-3.6.45q4.1-2.2 6.55-3.15 3.3-1.3 5.5-1.15 4.35.35 7.55-.05 2.05 9.25-5.7 17.4-3.55 3.7-10.1 3.4 2.45-2.75 2.8-8.25"/><path fill="#d8ba9d" d="M242.75 73.05l-4 .1-3.15.2q-.7-2.95-2.05-3.05l-.15-4.35q4.5-.3 8.4-3.95l.45-.4q5.75 2 13.2-.1-6.15 3.7-11.3 9.8l-1.4 1.75m-21.4 11.05q.35 1.75 1.35 2.85 1.05 1.2 2.4.9.35 1.6-2.8 4.6-3.1 2.9-6.25 4 .25-1.35-.25-2.5-1.05-2.6-6.1-3.45-5.6-.9-13.1 1.1-8.8 2.35-14.15 6.9-4.9 4.1-3.85 7.05l.75 1.15q-6.7 1.55-13.1 0-4.5-1.1-9.85-4.1-4.1-2.3-7.45-5.4 17.85 1.45 36.15-4 17.8-5.35 30-15.3 3.95 2.7 6.25 6.2"/><path fill="#ef8337" d="M225.25 87.45l.5-.15-.2.45-.3-.3"/><path fill="#d8ba9d" d="M131 77.15l-.35 1.5-4.95.35-5.1-.5-2.25-.9-2.1.1q-7.4-4.8-9.65-7.45l-1.35-1.2q5.1 2.5 11.5 4.75 9.2 3.3 14.25 3.35m25.4 25.45l2.15 1.15q-11.6 2.35-18.3-5.2-2.35-2.65-3.6-5.95-1-2.75-.65-3.9l1-.05 2.15.4q2.75 1.05 7.2 5.65 5.05 5.15 10.05 7.9"/><path fill="#d8ba9d" d="M110.2 73.35q-2.9.5-4.95 1.95-2.3 1.65-2.95 4.2l-2.85-1.7q-1-.6-3-1 3.15-2.45 4.8-5.25 1.25-2.2 2.05-5.45l1.95 2.95.65.45q.55.2.7.4l3.6 3.45m99.5 17.15q5.05.85 6.1 3.45.5 1.15.25 2.5-.6 3.15-4.95 6.5-4.1 3.05-9.7 5-6.95 2.4-13.7 1.8-6.05-.6-8.35-3.05l-.75-1.15q-1.05-2.95 3.85-7.05 5.35-4.55 14.15-6.9 7.5-2 13.1-1.1"/><path fill="#ce712e" d="M223.35 150.85q11.8-3.85 15.1-8.85 4.6-7-2.6-19.75 5.4 2.3 10.35 7.45 5 5.15 6.05 9.65.7 2.85-.2 7.2-.85 4.05-2.55 7.15-3.7 6.95-12.1 8-3.2.4-7.55.05-2.2-.15-5.5 1.15-2.45.95-6.55 3.15-5 2.7-13.45 9.8-7.1 6-9.4 8.6-2.1 2.4-1.1 12.5l1.7 13.35q-6.3-.05-13.55-2.7-5.5-2-9.15-4.45-1.3-.85-3.35-4-1.8-2.9-3.65-6.75 5 2.4 9.35-1.45 1.65-1.5 9.05-11.35 7.1-9.45 14.25-15.35 10.6-8.75 24.85-13.4"/><path fill="#d8ba9d" d="M288.65 100.35q3.65 5.2 12.05 5.1l-3.6 2.35q-4.95 2.6-8.1-1.75l-.9-1.5q-1.05-2 .55-4.2"/><path fill="#ce712e" d="M84.6 51.95q7.6-7 9.05-16.15Q95 41.2 95.5 46.25q.45 4.9-.05 8.35-.3 1.85-1.35 4.25-1.15 2.55-2.65 4.35-5.2 6.1-13.65 4.8-7.65-1.2-12.2-6.85l1.5-.2q10.2-2.25 17.5-9"/><path fill="#0d131a" d="M136.1 53.7q-.5.9-.2 1.95-2.7 1.45-4 2.85-2 2.15-1.2 7.55.85 5.6 3.95 8.7.2.2-.7.3l-1.05-.2q-3.05-3.8-3.95-9.35-.85-5.55 1.25-7.85 1.6-1.7 5.9-3.95m23.85-18.2q-.7 4.25-1.85 5.75-3.3 4.55-10.8 8.65l-1.1-1.25q5.45-2.95 8.4-5.5 4.05-3.5 5.35-7.65"/><path fill="#0d131a" d="M164.15 14.75q2.5-.45 3.7 2.9l2.95 10.5q3.45 9.95 6.55 10.45.4.1-.65.5l-1.45.05q-2.95-2.25-5.8-10.7L166.5 18.1q-.85-2.35-2.15-2.2-1.4.15-1.75 3.15l-.7 9.8q-1 9.05-3.25 13.6-.95 2-2.15 2.4-1.15.45-.05-1.55 2.45-4.5 3.8-14l1-10.45q.4-3.7 2.9-4.1"/><path fill="#0d131a" d="M188.25 11.85q.9-2.7 3.5-2.4 2.55.3 3 3 1.5 8.4 3.85 14.85 2.35 6.3 5.2 9.75 2.75 3.3 11.4 7.5 7.6 3.75 9.65 5.05 5.3 3.35 7.45 7.4 2.25 4.15 2.05 12.3-.2 7.65-2.15 11.85-.15.35-.75-.35-.65-.75-.5-1.1 1.6-3.9 1.5-10.75-.1-7.2-2.1-10.95-2.05-3.9-6.75-7.1-2.85-1.95-9.2-5.05-4.6-2.25-6.65-3.5-3.35-2.05-5.1-4.15-6.05-7.3-9.15-25-.45-2.5-1.9-2.65-1.4-.15-2.05 1.75l-1.95 6.15q-3.4 10.8-4.9 13.95-3.05 6.65-7.05 7.45l-2.9-.1q-.4-.6 2.15-1.15 3.5-.75 6.5-7.1 1.8-3.8 4.85-13.45l2-6.2m36.55 75.9l.95.1q.8.3.7.5-1.55 3.2-4.4 5.5-2.7 2.25-6.1 3.35-.25.1-.05-.7l.4-.9q5.6-2.15 8.5-7.85M178.65 106l.95.6q.65.7.4.75-6.15 1.55-11.8.75-5.9-.85-12.2-4.4-3.25-1.8-6.05-4.45l-4-4.1q-2.25-2.4-3.8-3.5-2.25-1.65-4.75-2l1.3-.3 2.05-.05q1.75.75 3.35 2.1l2.85 2.8 3.9 3.75q2.6 2.25 5.85 4.05 11.9 6.6 21.95 4m-5.8-29.95q9.65-4.7 20.6-4.9-.5 1.15-.45 1.65-10.95.25-20.3 4.9-9.25 4.65-13.6 11.95l-.65.55-.55-.6q-2-3.8-7.3-7.9-5.05-3.9-8.7-4.9-.4-.1-.75-1.1-.4-1-.1-.95 3.65.5 9.3 4.75 5.55 4.25 8.2 8.45 4.8-7.3 14.3-11.9m48.45 5.9q.3.4.15 1.75-.15 1.4-.35 1.15-2.8-4.65-8.1-7.65-5.2-2.95-12.2-3.95l-.7-.9-.45-.95q7.2.7 12.7 3.4 5.65 2.7 8.95 7.15"/><path fill="#0d131a" d="M132.25 74.45l2.25-.2-.35 1.3q-.75-.15-1.05 0-2 1.55-1.8 4.3.1 2.3 1.6 4.75 1.45 2.35 3.45 3.5l1.25.15 3.9.4q2.95.65 6.75 2.9 1.45.85 1.6 1.65l-1.3-.05q-3.55-2.1-6.9-2.8l-4.2-.4-2.3-.25q-2.2-1.3-3.7-4.2-1.4-2.75-1.55-5.55-.2-3.55 2.35-5.5"/><path fill="#0d131a" d="M134.55 88.35q-.1-.5.7-.15.75.4.9 1.05 1.8 7.2 7.6 11.15 5.95 4.05 13.55 2.85.75-.1 2.05.85-10.2 2.25-17-2.7-6.05-4.4-7.8-13.05m78.95 2.6q5.15 2.45 3.1 7.15-1.55 3.4-5.85 6.45-3.95 2.8-8.9 4.5-8.15 2.85-15.8 1.4-6.95-1.3-8.15-4.6-1.35-3.85 5.3-8.75 6.05-4.5 13.2-6.25 11.3-2.7 17.1.1m-3.55 11.9q3.8-2.7 4.95-5.3.75-1.75.25-3.15l-.05-.15q-.9-2.2-5.5-2.95-5.4-.95-12.8 1.05-6.6 1.8-11.35 4.9-4.25 2.75-5.7 5.55-.8 1.5-.4 2.5.9 2.6 7.15 3.55 7.05 1.05 14.65-1.6 5-1.75 8.8-4.4m17.55-26.3q3.15.65 3.25 3.1 0 .25-.6.3-.6.05-.65-.25-.15-1.5-2.35-1.9-2.35-.4-4 1.55-1.2 1.5-1.25 3.5 0 1.8 1 3.05.8 1 1.9.95l.3.55-.15.65q-3.1.6-4.25-2.9-1.25-3.55 1.4-6.65 2.15-2.6 5.4-1.95"/><path fill="#0d131a" d="M228.8 78.85q2.25-.15 3.45 1.3 2.8 3.3 10.65 7.6 4.4 2.4 8.45 4.15 3.15 1.4 4.05 4.05.85 2.45-.55 4.5l-.8-.55-.6-.8q.85-1.45.2-3.15-.75-1.8-2.9-2.75-15-6.7-19.55-12.15-.8-.9-2.3-.8-2.35.15-3.4 2.3-.95 1.9-.25 3.65.5 1.1 1.15 1.25 10 2.45 15.4 8.2l2.05 2.4q1.25 1.6 1.8 1.85l-.05.85-.35.7q-.9-.35-2.45-2.3l-2-2.55q-5.15-5.5-14.75-7.8-1.35-.3-2.1-2.1-.85-2.25.35-4.8 1.4-2.9 4.5-3.05"/><path fill="#0d131a" d="M241.5 116.75l-.95-.05h-1q4.6-8.15 4.5-15.1 0-1.75 2.3-3.2 2.45-1.5 5.15-1.05 2.25.35 4 2.7t.95 4q-1.4 2.95-2.4 8.55-1.2 6.4-.7 10.9l-1.85-2.2q.05-4.45 1.1-9.9 1.05-5.15 2.25-7.7.5-1.1-.8-2.9-1.35-1.8-2.8-2.05-1.8-.3-3.85.75-1.95 1.05-1.95 2.1.1 7.3-3.95 15.15"/><path fill="#0d131a" d="M247.8 96q1.7-1.4 3.7-.45 2.15 1 2.45 4 .05.25-.7-.4l-.85-1q-.85-2-2.8-1.7-1.9.3-1.85 2.05-1 1.25-1.05.85-.4-2.05 1.1-3.35m-17.5 24.6q3.05-3.45 8.3-4.4 5.35-1 9.45 1.4 8.25 4.75 9.05 13.9.3 3.75-.9 6.9-1.15 3.15-3.3 4.45-.3.2-.3-1.05-.05-1.25.2-1.5 3.55-3.2 2.55-9.9-1.15-7.45-7.7-11.4-3.4-2.05-8.3-1.3-4.6.7-6.95 3.2l-1.25.1q-1.05-.15-.85-.4"/><path fill="#0d131a" d="M173.35 151.15q12.3-19.45 19.3-24.55 5.3-3.8 21.95-5.65 15.05-1.65 18.6-.5 5.4 1.9 10.25 5.85 5.5 4.5 8.7 10.45 1.7 3.15 1.05 8.6-.6 4.85-2.55 8.45-3.3 6.15-9.55 8.1-4.6 1.45-11.45.65-5.1-.6-17.55 8.55-10.55 7.75-16.15 14.15-2.55 2.9-.2 20.25.5 4.25.05 4.95-.4.65-3.45.4-6.05-.6-12.7-2.95-5.35-1.9-7.9-3.65-2.7-1.8-6.8-10.65-4-8.55-4.3-12.45-.6-8.9 12.7-30m20.15-22.7q-1.6 1.15-6.6 7.5-5.5 6.95-10.7 14.75-14.35 21.55-13.75 30.25.05 1.55 1.2 4.6 1.85 5 4.7 10.2 3.1 5.65 4.9 6.85 3.25 2.15 8.25 4.05 7.05 2.7 13.25 2.9l-.6-4.6q-1.15-8.2-1.3-12.1-.25-6.8 1.6-8.9 4.25-4.85 15.6-13.1 14.1-10.3 19.85-9.8 6.5.55 10.55-.65 5.6-1.7 8.45-7 2-3.7 2.55-8.2.55-4.75-.95-7.35-4.25-7.6-9.9-11.85-3.65-2.8-7.55-3.95l-18 .65q-16.25 1.9-21.55 5.75"/><path fill="#0d131a" d="M241.55 125.85l-.85-.75q-.6-.7-.35-.75 4-.15 6.45 2.15 2.85 2.65 3.3 8.15l-.6-.35-.8-1.2q-1.85-6.95-7.15-7.25m-17.5 40q1.45 3.15 1.4 8-.05 5.65-2.45 8.7-.2.25-1.2 0t-.85-.4q2.9-3 3-8.8.05-4.45-1-6.7-.3-.45-2.4-.35-2.3.15-4.35 1-.6.25 1.25-1.05 1.7-1.15 2.65-1.2l2.5.05q1.15.1 1.45.75"/><path fill="#0d131a" d="M252.4 147.15q-.25-.65.1-2.5t.45-1.6q3.7 9.9 5 18.75 1.5 10.25-1.3 13.55-1.95 2.25-4.7 6.15-6.1 8.9-10 10.3l-5.45.65-7.1-.1q-6.1-.3-7.6.05-.75.2-1.75-1.15-1.15-1.55-2.95-5.1-2.15-4.25-1.7-5.05.15-.15.55-.2l.6.05q3.1.9 6.15.85 5.5-.05 8.5-3.2 7.4-7.75 5.55-16.5-.05-.2.9-.5l1-.05q2.05 9.55-6.2 18-3 3.1-8.15 3.55l-7-.5 2.35 4.8q1.7 3.15 2.35 3.6 1.45-.3 7.45-.05l12-.45q1.65-.6 4.25-3.7l4.5-6.25 4.4-5.95q2.4-2.8 1.6-11.05-.75-7.65-3.8-16.4M192.2 65.1q-.4-1.15.85-.85 4.3 1 7.25 6.1 2.9 5.1 2.1 10.1-.35 1.95-.95 1.95-.65.05-.35-1.8.5-3.1-.8-6.8-1-2.65-2.7-4.75-1.75-2.2-3.8-3.1.75 3.8.05 7.8-.65 4-2.65 7.15-.95 1.5-1.25 1-.25-.5.5-2.15 3.6-7.95 1.75-14.65"/><path fill="#0d131a" d="M190.9 83.1q-.2-.85.15-1.1.4-.25.7.55.25.75 1.3 1.3l2 .25q.85-.35.85.15-.05.55-.9.9l-2.35.15q-1.3-.5-1.75-2.2m-48.15-5.75q.75 1.4.55 2-.2.6-1.05-.7-2.7-4.05-3.25-9.5-2.05 1.6-3.1 4.55-1.1 2.95-.55 5.7.65 3.35 2.45 4.1 1.6.7 3.65-.95 1-.8 1.1-.45l-.7 1.3q-1.5 1.8-4.05 1.25-2.95-.65-3.8-5-.7-3.45.7-6.9 1.35-3.35 4.05-5.2.7-.45 1.15-.35.4.15.4.65.15 5.3 2.45 9.5m92.8 6.65q-.75.05-1.1-.75-.4-.8-.05-.75l2.9-.4 4.1-1.3q4.2-1.25 7.65-1.8l9.15-.95 4.75-.3q1.5-.2 1.9-1.25.1-.3.45.55.4.85.2 1.1-.9 1-2.65 1.35l-4.4.15-9.7.75q-4.2.75-6.95 1.75l-3.4 1.2-2.85.65M233 73.6q1.2-.75 2.9-1l3.5-.15 10.4-.9q7.7-1.65 12.15-4 1.7-.9 3.35-.6 1.7.3 2.95 1.8l-.55.65-.85.3q-1.3-1.25-2.6-1.35-.95-.05-2.1.5-3 1.6-6.8 2.65l-5.4 1.2q-5.75 1.15-10.55 1.15l-3.55.2q-1.6.25-2.7 1.2-.2.2-.3-.65-.05-.85.15-1"/><path fill="#0d131a" d="M290.15 91.25l3.9 3.2q2.6 2.2 2.8 3.6l-.8.45q-.85.3-.9 0-.15-1.2-2.55-3.45l-3.2-2.9-7-7.7q-6.45-7.45-7.6-10.15-1-2.3-3.55-3.75-2.1-1.15-3.15-.9-.6.2-1.35 1.4-.8 1.3-1.3 3.1-.45 1.8.75 3.95 1 1.75 2.5 2.85 2.8 2.1 7.7 9.65 4.85 7.45 5.75 10.8 1.2 4.6 6.1 3.45l.65.7.25.75-4.9-.2q-2.6-1.05-3.45-4.3-.85-3.15-5.55-10.4-4.75-7.35-7.35-9.35-2.7-2-3.55-3.65-.95-1.95-.25-4.65.5-1.9 1.45-3.4 1.05-1.75 2.25-2.1 1.5-.45 4.2 1.2 3 1.8 4.15 4.5 1.65 3.85 14 17.3"/><path fill="#0d131a" d="M264.6 76.55q-2.85-2.4-1.9-5.05 1-2.7 4.5-1.65.45.15-1.35.95-1.75-.2-2 1.15-.2 1.2.7 2.2l.25 1.4q.05 1.2-.2 1m-31.4-5.4q-.25-.05-.2-.75.1-.7.4-.65 1 .15 1.8 1.25.75 1.05.9 2.25l-.55.55-.6-.05q-.15-.95-.8-1.8l-.95-.8m18.85-20.05q3.15-3.1 4.2-3.4 1.75-.55 3.7.5 1.95 1.05 3 3.05 1.1 2 .65 5.2-.45 3.1-1.75 3.4-6.2 1.4-11.05 5.5-3.4 2.85-6.85 7.8l-1.2.2q-1.05-.05-.85-.3 3.35-4.7 8.4-8.75 5.7-4.65 10.95-6.2.95-.4 1-2.8.05-2.25-.5-3.35-.8-1.5-2.3-2.3-1.5-.75-2.8-.35-1.35.35-10.75 9.65l-3.65 3.6q-4.1 3.85-8.8 4.35-.25.05-.3-.95-.1-.95.15-.95 5.25-.6 8.1-3.3l3.6-3.5 7.05-7.1"/><path fill="#0d131a" d="M258.9 48.8q3.3-2.3 5.5-1.45 1.35.5 5.5 4.35 5.9 5.4 20.85 16.1 2.6 1.9 2.65 4.65 0 2.55-2 4.05-2.5 1.95-5.6 2-3 .1-4-1.55-1.95-3.2-7.95-9.05-4.9-4.75-7-6.3-.2-.15-2.35-1.2-1.9-.9-2.7-1.7-.2-.15.25-.9t.5-.45q.05.35 2.1 1.55l2.8 1.65q2.35 1.7 7.25 6.4 6.2 5.95 8.3 9.3.8 1.25 3.2 1.1 2.45-.2 4.4-1.7 1.4-1.1 1.35-2.95-.05-2.15-2.25-3.7-11.6-8.35-20-15.65l-5.55-4.7q-1.6-.95-3.85.5h-.95q-.6-.2-.45-.35"/><path fill="#0d131a" d="M303.8 72.15q1 .95.65 1.35-.3.4-2.25.85-2.05.45-3.45 1.45-.95.65-2.15 2.05l-2.1 2.55q-1.5 1.45-3.4 1.75-1.85.35-3-.6-1.05-.9-2.15-3.5-.05-.15.5-.15.55.05.7.3 1.75 3.35 3.85 2.65 1.65-.55 2.85-1.5l1.9-1.95 2.6-2.5q1.85-1.25 4.5-1.8-.95-1.2-2.55-2.15-1.65-1-2.55-.9-2.15.25-4.95 2-.15.1-.35-.5-.2-.6-.1-.7 2.85-1.65 5-1.85 1.7-.15 3.45.8 1.25.7 3 2.35m-41.85-21.6l-.95-.75q-.6-.7-.25-.7 4.05.05 4.8 3.25.75 3.1-2.3 4.5-.2.05-.2-.65 0-.75.15-.85 1.75-1.15 1.05-2.8-.65-1.55-2.3-2m29.5 48.55q-1.1.45-1.9 1.35-1.65 1.95-.7 3.75 1.4 2.85 3.55 3.55 1.9.6 4.3-.65l1.65-1.05q2.3-1.65 4.15-2.35 3-1.1 6.4-.55-1.05-2.35-2.9-4-2.1-1.85-4.3-1.75-.75.05-2.35.8-1.6.7-2.4.85l-2.7-.05-2.8.1m-4.1 3.35q.2-1.65 1.25-2.9 2.15-2.55 6.05-1.6 1.45.35 3.8-.45l3.4-1.05q4.15-.45 7.55 4.45 1.7 2.45 1.5 3.1-.2.65-2.7.3-2.8-.35-5.35.6-1.7.6-3.75 2.05l-2.15 1.45q-2.55 1.35-5.1.55-2.7-.8-4.1-3.65-.65-1.3-.4-2.85m-83.3-48.35l2.9-2.4q1.7-1.2 2.6-1.35l3.65.1q2.2.5 2.3.85l-1.75.2-3.9.15q-1.2.2-5.1 3.4-1.65 1.35-1.9.9-.3-.45 1.2-1.85M125.8 78.5l4.8-.55.15 1.35-5 .4-5.3-.5-1.25-.4-1.65-.25-1.05-.65q-.7-.65-.5-.75l2.8.05 2 .65q2 .85 5 .65m-2.85 7.15q2.65-1.05 9.25-.15l.95 1.1.45.95q-2.6-1-6.15-1.15l-4.1.35q-3.6 1.45-5.15 1.4-1.4-.05-3.2-1.5-.2-.2.65-.35l1.1-.1q1 .7 2.1.65 1.3-.1 4.1-1.2"/><path fill="#0d131a" d="M131.45 76.1q.3 0-.15.9l-.6.85q-5.25-.15-13.1-2.9-5.75-1.95-11.8-4.85l-1.25-1.35q-.7-1.15-.35-.95 6.1 3.05 12.25 5.2 9.2 3.25 15 3.1m-9.1-19.25l1.65 1.3q2.2 1.7 5.25 3.1.35.15.3.9 0 .7-.3.6-2.45-1-6-3.75l-1.35-1-1.55-.2q-1.05.05-1.85.55-1.65 1-1.65 3.65.05 2.65 1.65 4.25 1 .95 2.25.85 2.8-.15 9.75 3.1 1.15.55 1.4 2.25-1.15-.75-4.95-2.35-4.6-1.9-6.2-1.85-2.15.2-3.25-.9-1.95-1.9-1.9-5.4.1-3.5 2.2-4.8 1.15-.7 2.5-.75 1.15 0 2.05.45"/><path fill="#0d131a" d="M117.25 66.35q-4.05-1.15-3.75-4.45.3-3.25 3.8-3.1.4 0-1.05 1.1-1.55.6-1.35 2.25.2 1.65 1.7 2.5l.6.95q.3.8.05.75"/><path fill="#0d131a" d="M113.75 57.4q3.05-1.6 5.1-.25.35.2-1.5 1.05-1.6-.3-3.3.75-1.75 1.05-1.95 2.75l-.15 3-.25 2.6-1.35 4.25-.5-.05q-.45-.35-.35-.6l1.15-3.9.1-2.4-.15-3.2q.1-2.35 3.15-4m4.85 9.9l1.3.5q-2.25 5.75-2.2 6.8.05.3-.55-.2-.6-.5-.55-.75.3-2.05 2-6.35"/><path fill="#0d131a" d="M103.05 67.35q-.45-.55-.35-1.7.15-1.15.55-.6 2.3 3.2 6.5 6.9 4.35 3.85 8.1 5.8 1.35.7 1.75 3.3.4 2.7-.8 4.45-1.1 1.6-3.5 2.3-2.6.75-4.1-.65-2.8-2.5-8.7-6.3-5.6-3.55-6.45-3.65-.95-.05-.2-.85.75-.8 1.6-.65.85.2 6.15 3.9 5.65 3.95 8.5 6.55l2.9.1q1.95-.6 2.65-1.55.85-1.1.75-3.1-.1-2.05-1.2-2.65-3.55-1.9-7.75-5.35-4.15-3.4-6.4-6.25"/><path fill="#0d131a" d="M118.75 80.6q-.1-.6.1-.5 3 1.15 2.6 3.45-.2 1.25-1.5 1.85l-2.65.15q-.25-.05.4-.45.6-.35.75-.35.85.1 1.4-.5.65-.65.35-1.6-.25-.85-1.15-1.25l-.3-.8M96.2 53.8q-.25-.15-.35-1.3-.1-1.15.2-1 5.15 2.6 7.05 7.85 2.25 6.05-1.35 12.55-2.85 5.15-8.25 6.85l-9.1-.25q-.35-.15.15-1.05.5-.85.8-.75 3.35 1.75 7.55.6 4.85-1.3 7.45-6 3.15-5.7 1.65-10.55-1.3-4.3-5.8-6.95m16.7 38.85q.2-3.75.6-5.5.05-.2.65-.15l.6.15q-.25.8-.35 2.5l-.1 3.1q-.25 3.4-1.9 5.4-1.85 2.3-5 2.1-1.85-.1-3.25-1.2-1.45-1.1-1.75-2.65-.3-1.6 1.05-5.8l2.8-8.25q1.2.7 1.1 1l-2.55 7.15q-1.35 4.3-.8 5.8.75 2.1 3.5 2.65 1.85.35 3.3-.95 1.85-1.65 2.1-5.35"/><path fill="#0d131a" d="M95.55 76.95l.85-.15q.8.05.75.25-.7 4.4-4.2 13.8l-5.05 13.1q-.7 1.9.5 4.15 1.2 2.15 3 2.65 2.35.65 4.65-.6 2.4-1.25 2.85-3.75l1.85-11.8q1.9-10.55 3.65-13.95l.7.2.5.5q-1.95 3.8-3.45 12.8l-1.9 12.45q-.5 3-3.15 4.6-2.75 1.65-6.15.7-2.65-.75-4.1-3.25-1.55-2.7-.35-5.45l4.95-11.9q3.05-8.2 4.1-14.35"/><path fill="#0d131a" d="M100.2 104.55q-.55-.7-.55-1.05l3.1-.25 2.55.6q4.25 1.25 5.5-1.25.65-1.35-.1-3.1-.1-.25.4-.4.5-.1.6.15 1.3 3.1-.4 5-1.9 2.15-6.4.6l-4.7-.3m3.1-7.2l.95.75q-1.9 1.2-3.8.6-.05-.45.4-1.1l2.45-.25m-22.45 14.8q-.85.4-1.4 1.05-1.1 1.45-1.6 3.1-.5 1.85 0 3.15l.05.05q2.85-1.95 5.85-2.35l4.45.15 1.85.15q2.25-.15 3.5-1.8 1.3-1.7 1.2-4.4l.7-.55.75-.1q.4 3.5-1.1 5.6-1.5 2.05-4.55 2.25l-2.7-.15q-4.35-.6-8.25 1.75-1.9 1.2-2.3 1.15-.7-.1-.95-2.6-.25-3.4 1.75-6 .7-.9 2.05-1.35l2.25-.6q3-.75 5.05-3.7.15-.25.35.7l.05 1.15q-1.85 2.05-5.25 2.8l-1.75.55M36.9 52.9q.3-.25.55-.15l.5.5q4.95 6.5 11.9 7.9 6.85 1.4 14.05-2.4.15-.1.5.75.4.9.2 1-7.4 3.9-14.6 2.35-7.25-1.55-12.55-8.1-1.25 1.65-1.15 5.85.05 3.4.6 4.75v.05q2.7 2.15 7.35 8.4 3.65 5 5.75 8.55.75 1.25 9.2 1.3 9.1.1 16.7-1.6 4.7-1.05 9.35-6.55 4.85-5.7 5.45-11.45.05-.35.85-1.4.85-1 .85-.7.1 6.9-5.1 13.85-5.15 6.8-11 8.1-7.5 1.7-16.9 1.6-9.65-.1-10.8-2.1-2.25-3.85-5.7-8.8-4.45-6.3-6.95-8.2-1.35-1.05-1.15-6.4.15-5.6 2.1-7.1"/><path fill="#0d131a" d="M21.05 36.9q4.8-2.15 9.55-2.45 4.75-.35 6.85 1.4 2.7 2.2 6.65 6.9 4.95 5.9 7.85 11.2 1.6 2.95 1.55 5.2-.05 1.9-1.15 2.95-.65.65-2.35-.4 1.3-.35 1.65-2.1.45-2.15-1.1-5-2.8-5.25-7.55-10.95-3.9-4.65-6.45-6.75-1.75-1.45-6.95-.8-5 .65-9.5 2.7-.25.1.2-.8l.75-1.1"/><path fill="#0d131a" d="M83.95 12.9q6.85 7.7 10.7 22.8 3.7 14.55 1.25 21.3-2 5.55-6 8.7-3.15 2.4-6.9 3-5.3.8-10.8-1.5-5.05-2.1-7.85-5.75-1.4-1.85-2.7-5.85l-2.2-7.35q-2.2-7.3-4.2-9.6-3.8-4.45-12.6-7.5-7.95-2.85-10.35-1.8-6.65 2.85-12.5 10.6-5.15 6.8-6.3 12.25-.6 2.85-1.5 2.95-.8.05-2.85-2.05-2.5-2.5-4.2-6.25Q2.05 40.65.7 33.3-.7 25.55.8 22q2-4.75 11.5-12.9Q22.3.45 27.45.15q16.2-1.05 35.8 4.2 17.1 4.6 20.7 8.55m9.3 24.1q-3.55-14.5-10.8-22.6-3.05-3.45-19.25-8.05-19.25-5.4-35.5-4.4-4.55.3-14.15 8.25-9.35 7.75-11.3 12.25Q1.2 25 1.9 30.6q.7 5.45 2.8 11.2l1.65 4.05q2.75 5.9 5.6 7.65.35-5.45 5.9-13.4 6.25-8.95 13.8-12.25 2.9-1.25 11.65 1.85 9.35 3.3 13.45 8.05 1 1.2 2.1 4l1.95 6.1 2.3 7q1.4 3.8 2.8 5.6 2.8 3.65 7.6 5.6 4.85 1.95 9.3 1.25 3.4-.5 6.1-2.55 3.45-2.75 5.3-7.85 2.35-6.45-.95-19.9"/><path fill="#0d131a" d="M93.5 60.95q-.05-.3.5-1.15.55-.85.65-.6.9 2-.4 5.45-1.4 3.65-4 5.15-.2.15-.1-.8.15-.95.55-1.35 3.45-3.45 2.8-6.7m80.85-10.9q5.1-7.8 13.15-8.6 8.15-.8 12.25 6.6 1.5 2.75 1.95 5.7.4 2.7-.3 3.8-2.55 4.05-11.05 7.25-9 3.35-16.35 2.35-1.6-.2-2-.65-.35-.35-.8-2.15-1.75-6.9 3.15-14.3m13.05-6.9q-7.45.7-12.25 8.3-4.75 7.5-2.4 14.2 6.75 1.6 16-1.75 8.65-3.15 11.3-7.2 1-3.65-2.05-8.45-3.7-5.75-10.6-5.1m-51.1 8.9q1.75-4.8 6.6-5.05 5.35-.3 9.2 8.05 3.75 7.95 1.8 12.9l-7.8.2q-7.5-1.75-9.35-6.4-2.05-5.15-.45-9.7m12.6.35q-2.85-4.2-5.9-4-3.15.1-4.8 3.05-1.1 1.85-1.25 4.3-.15 2.4.7 4.6l.45 1.15q1.65 3.25 6 5t8.75.9q.6-1.05.25-3.7-.3-2.75-1.4-5.75-1.15-3.15-2.8-5.55"/><path fill="#0d131a" d="M147.35 58.7q.65-.2.9 1v.85l-.4.4q-.3.1-.55-.2l-.35-.75v-.85q.15-.4.4-.45m43.9-6.4l.7.2.55.85v1.05l-.45.55q-.35.1-.75-.2l-.5-.9q-.2-.5-.05-1 .15-.45.5-.55"/></svg>