<svg xmlns="http://www.w3.org/2000/svg" width="707" height="677" viewBox="0.0 -8.65 706.5 676.6"><path fill="#f2d4b4" d="M124.9 469.15q4.25-1.85 5.4-5.35 1.35 3.2.25 5.95-.95 2.55-3.45 3.8-2.5 1.3-5.15.6-2.9-.7-4.75-3.55 4.15.1 7.7-1.45"/><path fill="#e95504" d="M371.65 390.7q10.5-22.85 11.85-25.3 4.45-7.9 9.5-6.5 5 1.4 3.6 10.25l-5.25 25.65q-5.45 26.25-8.4 42.55-1.1 6.2 3.1 7.95 4.35 1.8 10.6-3.35 8.45-7.05 28.9-26.35l23.05-22q2.75-2.55 5.75-3.4 2.85-.75 4.75.25 4.6 2.5-.15 10.65l-17.5 26.85q-15.15 23.25-19.3 31.85-1.75 3.7.65 5.95 2.8 2.7 9.5-.5l27.25-13.05 22.6-10.85q7.7-3.5 10.7-.1 3.05 3.5-3.55 9.9-10.15 9.9-21.05 22.1Q454 489.2 447.3 499.5l-1.8.75q-2.9-8.15-9.1-14.2-6.25-6.15-14.2-8.5-7.6-2.25-15.55-.65-7.65 1.45-14.55 6.2-8.05-2.15-24-13.1-14.5-9.95-21-10.4-5.6-.4-12.15 2.9-4.25 2.1-11.7 7.5-8.1 5.95-11.7 7.95-6.6 3.75-12.2 4.1-7.85-5.75-16.75-6.2-10.35-.5-19.3 5.35-8.85 5.75-12.3 14.95l-4.1-.5q-4.25-7.65-22.5-22.75-14.2-11.7-21.25-16.1-3.55-2.2-5.05-5.15-1.4-2.7-.6-5 .85-2.35 3.55-3.15 2.95-.85 7.25.55l29.8 10.3q23.75 8.1 28.85 9.15 2.55.55 5.05-2.5 2.65-3.35.45-6.75-3.85-5.9-17.4-24-13.35-17.8-19.55-27.45-1.85-2.9-1.85-5.9.05-2.8 1.65-4.6 1.65-1.8 4.25-1.6 2.9.2 6.05 2.95l27 23.95 25.9 23.2q3.35 3.1 7.1.75 3.85-2.4 3.15-7.75-1.4-10.4-5.2-32.8-3.75-21.75-5.05-31.9-1-7.55 3.85-9.1 4.85-1.55 8.45 5.7 3.2 6.35 15 33.7 10.7 24.65 14.2 30.65 3.2 5.45 6.65 5.6 3.75.15 6.85-6.15l18.15-38.8"/><path fill="#e95504" d="M299.35 482.05q5.6-.35 12.2-4.1 3.6-2 11.7-7.95 7.45-5.4 11.7-7.5 6.55-3.3 12.15-2.9 6.5.45 21 10.4 15.95 10.95 24 13.1-9.55 6.55-15.3 17.3-6 11.3-6 24.25l31.25-8.15q33.55-8.4 45.15-9.55-.45-3.1-1.7-6.7l1.8-.75q6.45-2.65 9.5-1.1 3.8 2 6.45 11.55-7.2 16.1-16.8 27.85-11 13.45-23.1 18.55-1.75-4.4-4.6-7.8-3.3-3.95-7.25-5.4-.4 4.2-2.8 9.1-2.45 5.05-5.4 7.3-1.8-6.8-6.85-12.7-4.9-5.8-10.3-7.75 0 9.35-4.45 20.55-10 3.15-34 3.8-24.15.65-35.95-2-4.8-10.2-6.95-22-5.15 2.2-9.1 7.75-3.95 5.55-5.65 12.85-5-7.15-8.25-16.45-3.05 1.6-5.8 5.25-2.65 3.5-3.95 7.55-9.65-5.5-20.5-18.3-10.85-12.75-18.9-27.95.5-4.45 1.85-8.3 1.55-4.4 3.5-5.55 1.8-1.1 3.8-1.15l5.1.5 4.1.5q-2 5.35-1.65 10.95 13.3 1.3 34.4 6.6 19.4 4.9 35.7 10.65-.65-13.45-6.15-24.85-5.4-11.15-13.95-17.45m-139.8-105.1l-1 .1-3.75.1q-4.5-.3-8.3-2.55-3.55-2.05-5.95-5.35 2.6.3 4.85-.65 2.2-.9 3.65-2.8.2-.25-2-8.05-2.25-8-1.45-9.8 2.65-5.9 20.1-23.1 19.3-19.05 20.7-20.9 3.15-4.25-3.45-16.9l-5.35-9.6q-2.75-5.1-3.2-7.35-1.6-8.5 13.4-32.2 4.85 1.55 10.05 5.55 5.05 3.95 9.85 9.8 4.55 5.55 8.55 12.55 11.3 19.85 13.55 37.7 2.15 17.4-4.05 35.1-3.4 9.65-25.75 22.65-22.5 13.05-40.45 15.7"/><path fill="#e95504" d="M240.35 199.95q-7.5 6.2-15.95 16.75-9.05 11.2-9.85 16.25-1.1 6.7.15 16.65 1.55 12.7 1.55 16.2-4-7-8.55-12.55-.5-6.9-.3-13.25.25-7.55 1.55-11.45 1.85-5.6 7.65-12.5 6-7 14.35-13.2l9.4-2.9m-99.8 169.3q2.4 3.3 5.95 5.35 3.8 2.25 8.3 2.55-2.1 2.4-5.5 2.85-3.2.45-6.35-.95-7.4-3.25-6.3-10.95 1.8.9 3.9 1.15"/><path fill="#f2d4b4" d="M594.85 459.8q1.4 3.95.5 10.3-.85 5.8-2.95 9.65-1.85 3.45-15.6 14.7-20.6 16.8-29.9 25.3-18 16.45-31.1 32.45-3.3 6.55-11.45 7.9-8.65 1.4-14.6-5.15-3.2-3.55-2.05-10.9 1.25-8.05 7.5-11.05 17.55-8.45 34-23.15 18.1-16.15 30.4-36.05 1.9-3.05 4.3-10.6 2.75-6.6 8.1-9.1 1.2 3.6 4.6 6.3-.2 3.6 1.55 5.8 1.6 1.95 4.05 2.2 2.45.2 4.4-1.3 2.15-1.65 2.65-4.65l2.9-1.15q1.9-.85 2.7-1.5"/><path fill="#f2d4b4" d="M531.2 536.05q8.85-10.05 15.7-16.3 3.4-1.6 16.15-9.05 9.45-5.55 11.65-5.35 2.75.3 5.75 4.05l.7.95q2.15 3.15 2.6 6.4.45 3.7-1.65 6.2l-.2.25h-.2v.2q-1.95 2.2-5.3 3.75l-7.25 3.4q-6.25.6-17.15 7.25-4.4 2.75-15.5 7.5-15.2 6.55-20.9 9.3 9.9-12.05 15.6-18.55"/><path fill="#0d131a" d="M212.9 209.95q7.45-3.6 18.05-7.1-8.35 6.2-14.35 13.2-5.8 6.9-7.65 12.5-1.3 3.9-1.55 11.45-.2 6.35.3 13.25-4.8-5.85-9.85-9.8-5.2-4-10.05-5.55 5.15-8.15 13.95-20.35 2.4-3.4 11.15-7.6m211.7-84.6q22.05 5.5 32.75 11.9 10.5 6 29.1 34.5 16.05 24.55 27.6 48.65-14.95 6.6-25.5 20.2-12.1 15.65-9.9 31.55-4.65 4.7-9 7.65-5.9 3.95-12.8 5.9-24.4 6.9-43.45-5.1 7.8 2.25 17.3-5.6 7.55-6.2 15.45-18 1.3-2 1.4-11.8.05-9.65.85-10.65.8-1.1 8.1-7.1 7.45-6.15 8.85-7.85 1.8-2.1-.7-12.05-2.95-11.8-10.35-25.15-21.25-38.05-64.7-63.8 18.2 2.55 35 6.75"/><path fill="#e95504" d="M555.6 356.25q-7.15 3.65-14.4-1.15 11.8-3.9 21.7-11.95.05 9.4-7.3 13.1"/><path fill="#e95504" d="M568.8 57.35Q580.05 69.4 579.15 86l-1.45 12.55q-.85 6.9.1 10.7 2.25 9.35 14.9 34.45 12.2 24.25 12.9 28.65 1.1 6.8-6.4 29.75-7.45 22.9-6.95 25.65l4 14.15q3 10.35 3.45 19.35 1.35 27.5-19.2 61.8-16.1 26.9-43.1 33.65-23.6 5.9-48.95-4.5 6.6-3.55 10.25-6 5.85-3.9 9.15-7.7 8.7-11.45 10.5-25.95 1.6-12.6-2.1-25.35-3.4-11.55-9.85-19.2-6.35-7.65-12.55-7.6-3.85.05-8.05 3.6l-8.05 8.05q-2.2-15.9 9.9-31.55 10.55-13.55 25.5-20.2-11.7-24.25-27.6-48.65-18.65-28.5-29.15-34.45-10.7-6.45-32.75-11.95-16.8-4.2-35-6.75-12.25-1.65-14.05-1.3-6.65 1.65-21 13.35-14.2 11.55-15.7 11.85-3.95.8-5.55-7.9-1.6-8.5 0-20.85 1.65-13.45 6.4-24.5 5.5-12.8 13.8-18.85-.85-17 6-35.05 7.15-18.8 16.8-22.05Q429.9-5.35 484.6 8.6q25 6.4 46.8 19.1 21.45 12.45 37.4 29.65"/><path fill="#f2d4b4" d="M663.65 579.8q7.7 7.2 8.65 13.85 1.05 7.3-6.8 11.35-4.95 2.5-9.6 2.1-3.75-.35-6.45-2.6-2.65-2.15-3.55-5.5-1.5-5.55-23.55-32.55-22.5-27.45-28.25-29.7-4.05-1.6-7.6-4.95-4.45-4.15-4.8-8.4l.2-.2q3.05.5 5-1.3 1.8-1.6 1.95-4.3.15-2.75-1.55-4.9-1.9-2.45-5.5-3.1 3.6-3.55 9.15-3.35 5.85.15 9.15 4.7 7.6 10.35 26.6 31.05 20.25 22.15 36.95 37.8m-81.85-70.2l-.65.75-.7-.95 1.35.2M544 380.15q-4.95-2.7-8.85-9.05-4.5-7.25-3.4-13.6 5-.95 9.45-2.4 7.25 4.8 14.4 1.15 7.35-3.7 7.3-13.1l4.45-3.95q4.1 2.45 6.25 7.25 1.95 4.35 2.05 10.1.15 8.35 6.25 31.85 6.4 24.85 16.55 55.35 2.35 7.1-.9 12.45-2.75 4.6-8.3 6.25l-5.05.7q-5.5.15-9.7-4.55-4.35-4.85-4.05-11.25.55-12.25-9.3-37.65-9.95-25.65-17.15-29.55"/><path fill="#f2d4b4" d="M582.1 522.95q2.1-2.5 1.65-6.2-.45-3.25-2.6-6.4l.65-.75q3.6.65 5.5 3.1 1.7 2.15 1.55 4.9-.15 2.7-1.95 4.3-1.95 1.8-5 1.3l.2-.25m-.4.25h.2l-.2.2v-.2m-42.25 19.95q13.75-6.15 18.2-8.55 11-6.05 16.75-3 2.85 1.5 4.85 6.45-1.85.3-2.75.7-1.35.65-2.35 2-2.7-1.35-5.1 0-2.4 1.35-3.15 4.8-.65 3.2.05 5.55.75 2.75 3.3 3.9.1 1.65 1.2 3.7l1.65 2.3.75.75q-3.4 2.4-8.15 1.9-7.95-.9-14.4-.1-14.05 1.8-32.25 10.7-17.25 8.4-26.15 16.95-1.15 1.1-2.75 1.25 2.55-4.4 4.2-8.5 1.6-4.1 2-6.85.35-2.3-1.45-6.35-1.6-3.5-3.9-6.55 1.85-1.3 5.7-2.35 4.15-1.1 5.8-2.05 3.5 1.05 7-.15 4.2-1.4 7.5-5.85 6.55-3.15 23.45-10.65"/><path fill="#f2d4b4" d="M209.8 494.6q4.5-11.75 11.05-18.9 1.7 15.35 11.8 34.45 8.05 15.2 18.9 27.95 10.85 12.8 20.5 18.3 1.3-4.05 3.95-7.55 2.75-3.65 5.8-5.25 3.25 9.3 8.25 16.45 1.7-7.3 5.65-12.85t9.1-7.75q2.15 11.8 6.95 22 11.8 2.65 35.95 2 24-.65 34-3.8 4.45-11.2 4.45-20.55 5.4 1.95 10.3 7.75 5.05 5.9 6.85 12.7 2.95-2.25 5.4-7.3 2.4-4.9 2.8-9.1 3.95 1.45 7.25 5.4 2.85 3.4 4.6 7.8 12.1-5.1 23.1-18.55 9.6-11.75 16.8-27.85 3.9-8.75 6.55-17.5 2.55-8.5 3.45-15.6 10.35 11.55 14.1 29.9 4.65 22.55-3 48.05-.1 2.4 2.4 6.3l4.05 5.45q2.45 3.35 3.45 5.35 1.45 2.95 1.1 5.2-.4 2.75-2 6.85-1.65 4.1-4.2 8.5-4.75 8.2-10.5 13.7l-.05-.25q-2.8-7.05-17.45-9.45-17.5-2.8-41 4.45-18.5 5.7-32.05 17.45-5.9 5.1-8.6 9.65-2.75 4.65-1.4 7.45-12.2 2.9-32.6 2.55-20.35-.35-33.7-3.75 2.55-6.75-10.15-17.5-12.65-10.6-31.05-17.5-17.5-6.5-36.1-6.15-16 .35-19.95 4.4-1 1.1-1.25 2.85-4.3-5.3-8.05-11.1-4.05-6.25-6.3-11.45-3.6-8.25-1.85-11.7 1.15-2.35 3.6-5.95l3.9-5.75q2.25-3.5 2.8-5.8-.75-2.15-1.35-4.5-.85-3.3-1.4-7.3-1.15-8.45-.45-17.1 1-13.1 5.6-25.1"/><path fill="#f2d4b4" d="M197.1 566.1q-.95 1.9-.8 3.15.1 1.3 1.7 4.95-13.85-11.1-28.4-16.1-9.95-3.45-23.2-4.7l-11.9-1.15q-4.4-.85-7.3-4.45l1-1.65q.55-1.15 1-1.55 3.6-.55 5.25-3.25 1.5-2.35 1.05-5.65-.45-3.15-2.5-5.6-2.2-2.65-5.35-3.15l-.6-.65-.65-.5q3.3-3.8 8.8-5.8 5.05-1.85 6.5-.7l9.7 6.45 11.45 7.1q12.05 7.65 25.75 13.65 12.7 5.6 16 7.9l-3.9 5.75q-2.45 3.6-3.6 5.95"/><path fill="#f2d4b4" d="M124.8 524.6q3.7 2.4 5.7 8.4 2.6 7.9-3 13.75l-.05.1-2.3 2.55q-12.4 14.35-31.3 49.5-13.5 25.05-18.35 36.5-1.25 2.95-4.75 3.85-3.5.9-10.1 0l.65-2.65q.5-5.1-3.75-8.55-4.25-3.45-10.15-2.9 0-2.9 1.5-5.35 1.7-2.8 6.2-6.6 7.7-6.65 28.3-38.05 21-32.05 26-45.4 1.5-4.05 6.7-5.75 5.15-1.75 8.7.6m525.7 109.6q1.45 1.1 1.85 2.8l.15 2.95q-4.4-.2-8.15 5.5-3.65 5.55-2.05 8.95l1.2 2.1q-2.65 1.05-5.1 1.5-3.1.65-4.25-.05l-4.9-3.1q-2.75-2-2.95-2.85-1.15-4.9-11.15-23.25-6.55-12-14.05-24.75l-12.25-20.8q-9.1-14.55-16-21.45l-.75-.75q-3.3-3.2-2.5-9.5.75-5.9 4.55-10.75 1-1.35 2.35-2 .9-.4 2.75-.7l9.2.25q5.45 1.15 6.45 4.45 3.55 11.75 5.05 15.05 5.1 11.3 19.8 34 13.05 19.95 17.5 26.3 8.85 12.7 13.25 16.1M130.9 363.8q2.7 2.85 5.75 4.3-1.1 7.7 6.3 10.95 3.15 1.4 6.35.95 3.4-.45 5.5-2.85l3.75-.1q2.05 4.8 2.55 7.6.8 4.55-1.5 6.7-14.25 13.15-22.35 32.85-8.1 19.5-7.25 38.35.15 4-4.75 6.85-4.95 2.8-10.05 1.55-6.55-1.55-9.2-7.65-3.45-7.85 2-20.35 5.65-13.05 10.6-31.25 4.1-16.7 5-19.55 1.45-4.5.75-10.35l-.75-7.65q.1-1.4 2.6-4.9 2.4-3.35 4.7-5.45"/><path fill="#f2d4b4" d="M569.05 540.75q2.4-1.35 5.1 0-2.25 2.9-3.6 6.5-1.5 3.95-1.3 7.35-4.75-2.2-3.35-9.05.75-3.45 3.15-4.8m15.15-77.6l5.05-.7q-.5 3-2.65 4.65-1.95 1.5-4.4 1.3-2.45-.25-4.05-2.2-1.75-2.2-1.55-5.8 1.85 1.35 3.9 2.1 2 .7 3.7.65m-473.95 30.2q1.75-2.15 4.25-2.35-2.05 3-2.45 6.95-.35 3.75.95 7.15-2.65-.2-3.95-2.35-1.1-1.9-.75-4.7.35-2.7 1.95-4.7m586.65 104.8q6.45 7.25 7.8 15.65-2.85-1.6-7.95-2.7l-9.05-.3q-.3.1-7.95 5.35-6.5 4.5-11.25 4.25-6.2-.3-10.1-3.55-4.6-3.8-2.5-9.75 4.65.4 9.6-2.1 4.85-2.5 5.85-5.9 5.2.45 10.3-2.95 5.75-3.85 6.45-3.95 3.05-.45 8.8 5.95M5.55 587.9q3.65-6.15 9.45-9.7l3.3-.15q1.15.4 3.75 1.95 5.8 2.9 12.7-.1 1.3 8.25 8.85 10.3l5.7.4q2.65-.35 3.9-1.4-.5 6.05-4.05 10.1-3.3 3.8-7.5 3.9-4.65.1-12.95-4-8.4-4.2-9.9-4.2-3.5 0-7.95 1.35-5.5 1.6-9.05 4.45 0-6.6 3.75-12.9m198.85-70.1q-.35 4.7.05 12.2.45 8.25 1.6 14.1-2.65.1-5.65-.8-3.35-.95-5.6-2.7-10.5-8.25-28.75-21.3l-22.45-15.9q-4.1-2.95-21.2-11.6-4.5-2.25-6.7-8.15-2.15-5.7-1.55-12.85 2.2 1.4 4.8 1.5 4 4.65 8.85.9 2.05-1.55 2.8-4.05.85-2.65-.3-5.35.7-2 .7-4.1 4.1.5 7.65 2.05 4.25 1.9 5.5 4.6 5.65 12.3 22.45 27.25 10.9 9.65 21 16.2 7.75 5.05 16.8 8"/><path fill="#f2d4b4" d="M104.9 485.85q6.65-3.45 14.35 1.15-2.95 1.4-4.75 4-2.5.2-4.25 2.35-1.6 2-1.95 4.7-.35 2.8.75 4.7 1.3 2.15 3.95 2.35.55 1.45 2.75 3.7 1.95 2.05 2.55 2.25-.2 3.2-2.35 5.1-1.85 1.65-5.7 2.8-10.5 3.15-28.3 26.95-7.45 9.95-12.6 19.15-5.4 9.6-6.1 14.55-.95 6.2-6.7 8.85-4 1.85-9.7 1.75-7.55-.2-11.3-6.6-4-6.8 2.1-12.65 2.8-2.7 13.15-16.8 12.45-17 19.55-25.55l17.7-21.1q7.75-9.45 8.8-12.15 2.55-6.6 8.05-9.5m22.75 41.1q7.85 3.4 7.45 10.65-.15 2.95-1.85 4.9-1.8 2.1-4.45 2.1 2.5-5.05 2.05-9.15-.4-3.2-3.2-8.5"/><path fill="#f2d4b4" d="M173.9 524.8q18.9 13.75 24.1 17 2.25 1.4 4.2 1.9l3.85.4 1.55 4.9q-.3 1.1-1.2 2.6l-1.8 2.8q-32.1-15.25-40.75-20-3.85-2.15-11.5-7.3l-9.65-6.8q-3.75-.2-9.85-3.6-6.3-3.45-13.7-4.1-2.3-.8-4.1-3.6-1.9-2.85-2.45-6.5-1.45-9.05 5.4-15.1 1.45 1.4 9.75 6.35 11.55 6.95 17.45 10.85 8.75 5.75 28.7 20.2m287.75 71.85q7.25 1.2 11.9 3.9 4.35 2.45 5.05 5.35.7 2.95-1.8 7.95-2.75 5.6-8.35 11.05-14.45 14.15-38.5 19.5-21.95 4.85-38.2-.1-6.3-1.95-10.25-4.95-3.55-2.7-3.85-5.15-.3-2.4 2.15-6.45 2.65-4.45 7.65-9.05 12.7-11.65 32.7-17.8 23.4-7.2 41.5-4.25m-160.2 19.6q12.55 10.35 10.35 18-1.1 3.8-8.05 6.35-6.6 2.45-16.55 3.05-22.75 1.35-40.85-6.25-16.7-7-27.3-20.5-4.45-5.65-6.15-10.65-1.7-5-.1-7.65 3.35-5.7 20.8-5.95 18.6-.25 37 6.6 18.8 7 30.85 17M671.7 635.4q5.35.55 12.85 8 9.1 9.1 9.35 19.8-4.5-3.25-10.45-4.75-6.25-1.55-10.75-.25-1.2.35-8.95 4.1-5.1 2.4-9.45 1.7-3.7-.6-7.5-3.6-3.9-3.05-4.5-6-1.1-5.55 3.45-10.4 4.3-4.55 7.95-3.8 3.2.65 9.2-2.15 6.2-2.95 8.8-2.65"/><path fill="#e95504" d="M456.85 285.7q6.9-1.95 12.8-5.9 4.35-2.95 9-7.65l8.1-8.05q4.2-3.55 8.05-3.6 3.45 0 9.7 6.55 7.1 7.45 11.25 17.5 11.75 28.4-8.35 54.95-7 8.25-17.15 13.7-14.15 7.6-31.9 7.7-17.35.15-34.05-6.85-17.3-7.25-30-20.45-13.6-14.15-19.5-32.9-3.85-12.75-1.6-29.6 2.3-17.4 9.05-19.45 1.95-.6 4.9 2.25 1.65 1.6 6.35 7.5 10.9 13.55 19.9 19.2 19.05 12 43.45 5.1m-292.1-101.95q25.25-15.3 31.8-15.9 9.5-.9 26.6 3.3 20.05 4.9 33.6 13.6 9.65 6.15 9.7 8.25.05 2.55-11.7 3.75-5.05.5-14.4 3.2l-9.4 2.9q-10.6 3.5-18.05 7.1-8.75 4.2-11.15 7.6-8.8 12.2-13.95 20.35-15 23.7-13.4 32.2.45 2.25 3.2 7.35l5.35 9.6q6.6 12.65 3.45 16.9-1.4 1.85-20.7 20.9-17.45 17.2-20.1 23.1-.8 1.8 1.45 9.8 2.2 7.8 2 8.05-1.45 1.9-3.65 2.8-2.25.95-4.85.65-2.1-.25-3.9-1.15-3.05-1.45-5.75-4.3-1.4-1.45-2.9-3.6-10.65-13.15-16.3-21.35-10.55-15.2-7.2-21.55 10.15-19.3 13.85-38.1 2.6-13.1 2.35-29.25-.3-19.75-.1-22 .95-10.2 6.55-16.3 10.6-11.5 37.6-27.9"/><path fill="#f2d4b4" d="M47.4 625.15q5.9-.5 10.15 2.9 4.25 3.45 3.75 8.55-.8 7.15-8.5 9.25-8.15 2.2-17.9-3.25-4.3-2.4-10.85-1.7-7.65.8-14.15 5.9.9-9.1 7.35-17.3 6.4-8.15 12.65-8.3 1.35-.05 7.15 2.15 5.65 2.15 10.35 1.8"/><path fill="#fff" d="M263.3 481.2q8.95-5.85 19.3-5.35 8.9.45 16.75 6.2 8.55 6.3 13.95 17.45 5.5 11.4 6.15 24.85-16.3-5.75-35.7-10.65-21.1-5.3-34.4-6.6-.35-5.6 1.65-10.95 3.45-9.2 12.3-14.95m143.35-4.3q7.95-1.6 15.55.65 7.95 2.35 14.2 8.5 6.2 6.05 9.1 14.2 1.25 3.6 1.7 6.7-11.6 1.15-45.15 9.55l-31.25 8.15q0-12.95 6-24.25 5.75-10.75 15.3-17.3 6.9-4.75 14.55-6.2"/><path fill="#f2d4b4" d="M486.95 549.75q1.1 3.3 4.2 6.15 3.35 3.05 7.85 4.45l-4.5 2-4.9 2.25-2.45-3.2q-2.1-2.85-2.6-4.25-.55-1.55.1-3.3.5-1.5 2.3-4.1"/><path fill="#ca4800" d="M432.8 482.95q20.4-3.45 36.55-10.95-15 16.6-22.05 27.5l-1.8.75q-3.75-10.6-12.7-17.3m-29.5 76.6q-1.1-4.15-3.6-8.2l10.25-1.95q-1.2 3.2-2.95 5.85-1.8 2.85-3.7 4.3m-109.2-9.85q-2.8 4.75-4.05 10.35-4.25-6.05-7-13.15l11.05 2.8m129.25 6.65q-2.1-5.2-5.4-8.7 13.9-3.35 26.75-7.8-10.3 11.85-21.35 16.5m-111.6 5.1q-1.9-4-3.65-9.05 36.65 5.9 75.65 1.3l-2.05 5.95q-10 3.15-34 3.8-24.15.65-35.95-2m-32.9-15.75q-2.2 1.95-4.05 4.85-1.75 2.85-2.75 5.85-11.3-6.4-24.05-22.65 14.75 7.2 30.85 11.95m-119.3-168.75l-2.05.15-2.7.05q-4.5-.3-8.3-2.55-3.55-2.05-5.95-5.35 2.6.3 4.85-.65 2.2-.9 3.65-2.8.2-.25-2-8.05-2.25-8-1.45-9.8 1.75-3.9 9.1-11.85 5.2-5.6 14.7-14.85 1.2 14.8 17.7 21.6 14.35 5.95 31.35 3.3-10.4 10-27.35 19.1-18.05 9.7-31.55 11.7"/><path fill="#ca4800" d="M140.55 369.25q2.4 3.3 5.95 5.35 3.8 2.25 8.3 2.55-2.1 2.4-5.5 2.85-3.2.45-6.35-.95-7.4-3.25-6.3-10.95 1.8.9 3.9 1.15"/><path fill="#d1b89d" d="M535.8 530.2l.2-.05q-4.3 4.25-9.1 9.85l-9.9 11.7q-7.65 8.95-15.3 9.1-6.45.15-11.95-5.85-3.25-3.6-2.3-10.1 1.05-7.25 7.35-10.3 3.25-1.55 7.55-4.45l7.85-5.3q4.65 3.85 12 5.4 7.35 1.55 13.6 0m15.65-12.75q2.25 5.3 8.4 8.25 5.2 2.5 12.7 3.15l-3.4 1.7q-3.2.3-22.6 9-13.35 6-30.2 14.05 9.2-11.25 15.2-18.05 8.4-9.45 15.35-15.8l4.55-2.3"/><path fill="#ca4800" d="M555.6 356.25q-7.15 3.65-14.4-1.15 11.8-3.9 21.7-11.95.05 9.4-7.3 13.1"/><path fill="#ca4800" d="M599.85 260.85q.8 12.75-3 26.65-4.6 16.75-16.1 35.95-5.25 8.85-12.7 16.05l-4.5 4q-9.9 8-21.65 11.9-4.7 1.5-9.5 2.4-20.7 3.65-42.35-5.2 10.1-5.5 17.1-13.7 12.6-16.65 12.7-34.5 25.4-.85 46.35-11.85 22.05-11.6 33.65-31.7"/><path fill="#d1b89d" d="M565.5 381.5q-7.75-1.5-19.05.25-4.4-5-6.85-6.4-3.45-1.9-5.35-7.65-1.85-5.5-1.05-10.35l4.1-.95 3.9-1.3q7.25 4.8 14.4 1.15 7.35-3.7 7.3-13.1l4.45-3.95q4.1 2.45 6.25 7.25 1.95 4.35 2.05 10.1.1 5.7 1.3 12.8 1.65 9.9 5.1 20.4-7.65-6.5-16.55-8.25m-49.15 172.1L522 551q3.2 6.6 11.3 9.7 5.25 2 16.55 3.45-14.15 2.05-32.05 10.55-17.25 8.2-25.9 16.5-1.15 1.1-2.75 1.25 2.55-4.4 4.2-8.5 1.6-4.1 2-6.85.35-2.35-1.25-5.95-1.4-3.15-3.7-6.15 1.9-1.35 4.95-2.55 3.5-1.35 5.05-2.25 4.75.95 9.25-.75 4.85-1.8 6.7-5.85M311.8 634.25q1.55-4.05-2.95-10.1-4.3-5.75-12.95-11.75 53.75 10.6 96.1 2.55-8.4 6.4-11.3 9.95-3.6 4.45-3.9 10.1-14.2 3.5-33.15 3.1-17.95-.35-31.85-3.85M197.1 566.1q-.95 1.9-.8 3.15.1 1.3 1.7 4.95-13.85-11.1-28.4-16.1-9.95-3.45-23.2-4.7l-10.1-1.05q-4.2-.7-6.65-2.45 14.35 1.4 25.6.2 13.45-1.45 23.8-6.7 10.35 3.9 15.1 5.85 7.5 3.1 10.45 5.15l-3.9 5.75q-2.45 3.6-3.6 5.95m-66.2-202.3q2.7 2.85 5.75 4.3-1.1 7.7 6.3 10.95 3.15 1.4 6.35.95 3.4-.45 5.5-2.85l3.75-.1q2.05 4.8 2.55 7.6.8 4.55-1.5 6.7-4.75 4.4-9 9.8-5.2 6.65-8.55 13.5-3.15-8.55-7.3-12.6-5.15-5-12.9-4.45 2.9-6 2.3-13.15-.8-8.95-.55-10.3.25-1.45 2.7-4.85 2.4-3.5 4.6-5.5m527.85 243.25q4.9 3.4 12.25 4.55l14.15.6q-4.55 3.55-7.4 5.25-5.15 3.15-9.25 2.95-6.2-.3-10.1-3.55-4.6-3.8-2.5-9.75l2.85-.05m40.15 4.55q3.1-.1 5.35.05l.45 2.15q-2.1-1.2-5.8-2.2M44.45 590.4l5.25.15q2.4-.4 3.5-1.35-.5 6.05-4.05 10.1-3.3 3.8-7.5 3.9-3.35.05-8.05-1.8-2.5-1-7.8-3.75 9.6-2.15 18.65-7.25m160.7-72.5q-2.5 6.8-1.55 14.4.55 4.3 2.45 11.8-12.75-1.15-49.55-33.1h.05l16 1.7q10.1.2 14.65-3.3l3.7 2.6q4.25 2.75 8.6 4.25l5.65 1.65"/><path fill="#d1b89d" d="M207.4 548.6q-.55 2.3-2.8 5.8l-19.8-9.35q-12.5-5.9-18.4-9.25-4.35-2.5-17.65-11.9-6.45-4.55-11.7-4.25l8.1-1.35q9.45-2.2 12.45-6.35 12.2 10.55 24.65 19.45 17.75 12.75 23.8 12.7.6 2.35 1.35 4.5m268.9 65.3q-4.95 8.95-15.2 16.65-13.25 9.85-31.15 13.85-22.2 4.9-37.65.8-13.4-3.55-14.65-11-.5-2.9.5-4.55l3-4q19.9 8.75 50.2 3.55 25.3-4.4 44.95-15.3m-167.2 10.35q1.65 1.45 2.55 3.9 1.15 3.1.15 6.1-1.35 3.9-8.15 6.5-6.55 2.5-16.25 3.15-22.2 1.4-41.05-6.5-10.95-4.6-19.2-11.95-7.05-6.35-10.9-13.55 19.8 11.95 46.5 15.8 27.7 4 46.35-3.45m365.65 33.5l-2.05.45q-1.2.35-8.95 4.1-5.1 2.4-9.45 1.7-3.7-.6-7.5-3.6-3.9-3.05-4.5-6-.5-2.15.1-4.45 13 6.4 32.35 7.8"/><path fill="#ca4800" d="M380.7 314.25q7.5 4.9 23 10.55 19 6.9 37.7 9.85 52.5 8.25 76.5-18.3-2.85 12.15-11.4 23.45-7.15 8.3-17.15 13.7-13 6.95-28.8 7.75-15.45.8-30.75-4.4-15.65-5.3-28.15-15.9-13.3-11.2-20.95-26.7m-267.8 27.1q-7.9-11.5-10.9-18.95 10.9 10.1 29.35 11.1 19.15 1.05 34.6-8.55-18.95 19.8-20.35 23-.8 1.8 1.45 9.8 2.2 7.8 2 8.05-1.45 1.9-3.65 2.8-2.25.95-4.85.65-2.1-.25-3.9-1.15-1.6-.75-5.9-4.65-4.7-4.2-6.95-7.25l-10.9-14.85"/><path fill="#d1b89d" d="M58.15 628.6q3.6 3.35 3.15 8-.8 7.15-8.5 9.25-8.15 2.2-17.9-3.25-.95-.55-2.95-1.2 15.3-2.9 26.2-12.8m428.8-78.85q1.1 3.3 4.2 6.15 3.35 3.05 7.85 4.45-7.85 3.8-9.4 4.65-4.25-5.7-5.05-7.85-.55-1.55.1-3.3.5-1.5 2.3-4.1"/><path fill="#ca4800" d="M196.55 264.55q-10.9 3.7-17.15 15.35-1.45-2-3.15-5.5-1.8-3.65-2.3-5.75-.7-2.7 5.1-15.45 6.1-13.5 10.5-15.45 8.35 4.3 16.9 13.9 9.05 10.25 12.2 19.9-9.5-11.3-22.1-7"/><path fill="#ca4800" d="M210.3 222.5q0 6.05.3 8.55.95 7.8 4.4 9.6l.85 12.35q.8 11.5.6 12.35-.3-.75-3.95-5.75-4.05-5.55-5.85-8.75 0-7.8.35-12.15.75-10.45 3.3-16.2m47.4 262.25l-3.25 5.85q-2.2 3.8-3.5 5.3l-1.7.25q-1.3 0-3-1.3-.25-1.55-14-13.8-14-12.5-21.8-17.9 2.2.7 21.25 11.55 19.45 10.5 26 10.05"/><path fill="#0d131a" d="M244.05 493.15q2.3.25 6.9 1.6l-.75 2.65-5-.45q-5.2-.3-6.5.5-2 1.2-3.6 7-1.45 5.4-1.3 9.5.05.9-1.55-2.4-1.5-3.15-1.25-4.65 1.6-10.4 5.25-12.65 2.9-1.75 7.8-1.1m208.05 2.9l6.1-.15q2.05 1 3.55 4.7.9 2.1 2.8 8.85.15.6-.85 2.2t-1.1 1q-2.85-11.3-6.55-13.1l-4.15-.15q-2.05.45-5.85 2.1-.25.1-.65-1.2-.35-1.3-.05-1.45 5.55-2.4 6.75-2.8"/><path fill="#0d131a" d="M219.85 474.3q1.15-1.2 1.95-.6.65.5.85 1.85 2.9 21 18.05 44.2 14.75 22.7 32.25 33.95.35.25-.45 2.15-.8 1.95-1.15 1.7-15.45-8.8-31.3-32.4-16.55-24.65-20.05-46.2-11.7 14.7-13.9 38.3-1.85 19.3 2.6 31.65-.5 2.1-2.15 4.95l-3.45 5.25q-1.25 1.85-3 5.4-1.75 3.6-1.75 4.4 0 4.6 4.5 13.2 4.3 8.3 10.6 16.3.3.4-.35 2.6-.6 2.2-.95 1.8-7.25-8.9-12.1-16.5-7.2-11.4-7.35-17.3-.05-2.45 5.85-10.1 5.8-7.6 5.6-9.6-5.05-20.05-1.3-39.8 4.05-21.05 17-35.2m272.6 90.2l4.4 5.9q2.1 3.4 2.1 6 0 4.05-5.3 13.75-6.3 11.4-14.3 18.05-.4.3-1.15-1.4-.75-1.75-.5-1.95 7.25-6 12.1-16.65 3.8-8.2 3.8-12 0-3.7-5-10.3l-3.9-5.55q-1.75-3.05-1.75-5.4 5.3-18.45 4.3-36.6-1.3-23.2-13.15-38.25-3.65 22.25-15.8 43.7-14.35 25.4-33.4 34.4-.55.25-1.2-1.85-.7-2.05-.2-2.3 19.2-9.05 33.25-34.35 11.9-21.5 14.7-43.05.2-1.4 1-1.6.8-.25 1.8.9 13.55 15.1 16.2 34.65 2.2 16.65-3 44.35 0 1.8 1.6 4.55l3.4 5"/><path fill="#0d131a" d="M281.15 542.4l1.4-.15.55.9q1.4 4.1 3.35 7.75 1.55 2.9 4.25 6.8.25.35-.3 2.4-.6 2.05-.9 1.6-5-7-8.4-16.05-3.45 2.4-5.8 6.8-2.35 4.35-2.75 9-.5 5.25-1.85 5.3-1.4.1-1.9-5.35-.55-5.85 3.55-11.45 3.5-4.85 8.8-7.55"/><path fill="#0d131a" d="M304.3 538.2q1.2-.55 1.5-.35l.35 1.35q2.55 13.95 8.4 24.8 2.05 3.85.65 4.5-1.45.65-3.5-3.2-4.9-9.1-7.8-23.8-4.95 2.8-8.55 8.85-3.6 6.05-4.65 13.5-.75 5.35-2.6 4.4-1.85-.95-1.1-7.05 1-8.35 6.1-14.6 4.45-5.5 11.2-8.4m80.5.9q0-1.3.55-1.5l1.25.2q6.85 2.5 12.4 9.55 5.6 7.15 6.35 14.75.45 4.45-1.1 5.2-1.6.7-2.05-3.75-.65-6.9-5.15-13.45-4.3-6.2-9.65-8.9-.35 6.8-2 13.9-1.35 6.05-2.65 8.6-3 5.65-4.9 5-1.9-.65 1.1-6.3 1.95-3.7 3.65-9.5 2.2-7.6 2.2-13.8"/><path fill="#0d131a" d="M404.4 560.75q-.45.4-1.4-1-1-1.4-.55-1.8 2.75-2.35 5-6.55 2.35-4.4 2.7-8.35.15-1.75 1.8-1.15 5.85 2.1 10.2 7.95 3.9 5.3 4.45 10.5.55 4.65-1.05 5.5-1.55.8-2.05-3.85-.45-4-3.25-8.85-3.3-5.6-7.7-7.95-.8 4.35-3.1 8.75t-5.05 6.8m-91.3 2.8q-.35-.1-1.05-1.95-.7-1.9-.2-1.75 11.4 3.05 36.5 2.45 25-.65 32.4-4.2.5-.25.2 1.7-.3 2-.65 2.15-8.95 3.35-31.95 3.9-22.95.55-35.25-2.3m167.6 46.25q-.65 2.75-1.75 4.8-5.4 10.1-16.8 18.65-13.75 10.25-31.45 14.2-18.5 4.1-33.35 1-9.25-1.9-15.65-6.25-6.4-4.25-6.9-7.55-.45-2.7 2.25-7.2 2.9-4.75 8.35-9.7 13.65-12.4 34.3-18.75 24.25-7.45 42.5-4.45 15.55 2.55 18.6 10.25.7 1.65-.1 5m-5.45 2.9q1.25-2.3 1.75-4.2.4-1.5.2-2.05-1.05-2.6-5.1-4.85-4.55-2.5-11.3-3.6-17.15-2.75-40.2 4.3-20.1 6.2-32.45 17.8-4.6 4.3-7.1 8.45-2.2 3.6-1.9 5.4.15.95 1.2 2.3 1.3 1.55 3.5 3.05 5.65 3.75 14.35 5.25 13.55 2.35 31.45-1.65 20.3-4.5 34-16.3 7.9-6.85 11.6-13.9m-189 29.7q9.4-.45 15.85-2.65 6.7-2.3 8.2-5.85.9-2.05-.35-5-2.9-6.8-14.3-14.85-11.45-8.1-25.6-13.35-17.15-6.4-35.3-6.1-15.5.25-19.1 3.95-1.55 1.65-.7 5.9 1.65 8 9.55 16.4 9 9.55 22.4 15.15 17.8 7.5 39.35 6.4M298 611.65q12 8.65 15.15 16.1l1.55 4q.55 2.1-.1 3.5-1.5 3.5-8.2 6.45-6.85 3-16.5 4.25-23.55 3.05-44.95-5.7-14.55-5.95-23.65-15.9-8.5-9.25-10.8-20.25-.55-2.7.05-5 .5-2.1 1.85-3.55 4.3-4.45 21.65-4.6 19.4-.1 37.05 6.45Q286 603 298 611.65"/><path fill="#0d131a" d="M311.55 636.2q-.55-.15-.15-2 .4-1.9.95-1.7 12.7 3.6 32.5 4.1 19.8.45 32.45-2.5.3-.05 1.2 1.7.9 1.75.5 1.85-16.3 4.1-34.55 3.55-17.2-.55-32.9-5m176.65-42.55q1.45-2.2 2.75-3.45 8.35-8.05 28.1-17.1 19.45-9 31.1-10.4 3.4-.4 14 .2 6.6.4 7.5-2 .15-.45 1.8 1.6 1.65 2 1.3 2.35-2.95 2.95-10.35 1.95l-14.55-.45q-12.95 2.5-31.5 11.2-19.55 9.15-30.85 18.65-.95 0 .7-2.55m1.15-30.75l9.1-3.45 2.6.8 2.45.85-6.1 1.85q-3.65 1.1-6.25 2.4-.75.15-1.4-.75-.65-.95-.4-1.7m72.9-28.9q-5.95 3.4-9.85 5.1-5.75 2.5-17.3 7.95l-20.35 9.45 1.8-4.75q15.9-6.95 36.25-17.25l8.8-4.75q5.25-2.55 9.2-2.15 3.85.45 6.55 3.9 1.55 2 3.1 5.85.25.55-1.15.85-1.35.25-1.6-.3-2.4-5.45-7.35-6-3.3-.35-8.1 2.1"/><path fill="#0d131a" d="M564.8 552.1q-1.45-3.5-.75-6.95.5-2.3 2.1-3.95 1.5-1.55 3.5-2.2 2.8-.85 5.65.85.45.25-.7 1.15-1.2.9-1.8.7l-2.35-.1q-2.5.8-3.2 4.25-.35 1.6.1 3.4.4 1.8 1.5 3.2 1.05 1.45 1.3 3.1.3 1.85-1.2 1.2-2.7-1.1-4.15-4.65m31.6-93.65q1.7 4.6 1.55 11.55-.15 7.15-2.2 10.9-1.2 2.25-6.95 6.7-8 5.95-13 9.95-16.4 13.2-27.05 23.1Q531 537.2 519.4 552.9q-6.75 9.1-17.45 9-9.6-.05-13.6-6t-1.9-14.95q1.95-8.6 6.65-10.4 15.1-5.7 33.45-21.7 19.4-16.85 30.6-35.35 1.05-1.7 2.2-5.6l2.15-6.7q3.1-8.2 9.3-9.7.5-.1 1.2 1.85.65 1.95.4 2.05-5.3 2.6-7.85 9.45l-1.8 5.65q-1.05 3.25-2.15 5.05-9.9 16-28.8 33.55-19.6 18.15-36.45 26.25-3.95 1.9-5.95 7.95-2.2 6.85 1.95 11.35 4.4 4.8 11.55 4.2 6.05-.55 8.7-3.6l11.05-12.9q10.1-11.6 15.85-17.15 8.4-8.05 18.85-16.85l15.85-12.95 11.75-9.65q5.1-4.45 6.25-6.65 1.85-3.35 2.4-8.8.6-5.7-.7-9.5-.2-.75 1.5-1.9 1.75-1.15 2-.45"/><path fill="#0d131a" d="M550.5 516.65q2.75-1.45 12.5-7.8 9.05-5.55 11.7-5.3 5.25.5 8.8 8.1 3.75 7.8-.35 12.2-2.5 2.65-11 6.7l-3.6.4q-2.7 0-2.15-.35.6-.4 7.2-3.65 5.25-2.55 6.55-3.95 2.95-3.15-.1-9.2-2.9-5.8-6.4-6.15-.9-.1-13.25 6.85-13.2 7.4-15.8 8.25-.65.2 2-2.6 2.65-2.85 3.9-3.5"/><path fill="#0d131a" d="M581.35 510.9q-.5 0-1.55-1.65-1.1-1.7-.55-1.7 6.85 0 10.1 5.55 3.3 5.55-.9 10.05-2.6 2.8-6.55 2.15-.45-.05-.25-1.75.25-1.7.65-1.65 2.55.3 3.95-1.25 2.55-2.75.3-6.4-2.2-3.45-5.2-3.35"/><path fill="#0d131a" d="M668.1 580.7q3.4 3 4.9 7.55 1.7 5.2.2 11-1.15 4.2-7.6 7.65-7.45 3.95-14.2.95-5.4-2.35-7.7-7.15-5.75-11.9-25.05-35.5-18.75-22.9-25-26.55-6.25-3.7-8.05-5.1-5.3-4.15-5.95-8.5-.15-.85 1.65-1.9 1.75-1.1 1.75-.65-.1 3.75 4.3 7.7l7.25 5.3q7.75 5.3 27 27.55 20.95 24.2 25.65 35.6 1.9 4.7 5.3 6.2 5.3 2.35 11.25-.35 5.4-2.45 6.3-5.95 2.05-7.8-6.25-15.9-15-14.65-36.1-37.25-24.9-26.7-28.75-33.65-2.2-3.95-7.45-4.2-4.65-.2-7.9 2.2-.4.35-1.6-.85-1.25-1.15-.9-1.45 3.55-3.25 9.75-3.6 7.55-.45 10.75 5.65 3.7 7.1 26.7 31.7 23 24.65 39.75 39.5"/><path fill="#0d131a" d="M682.95 593.5q4.15-3 5.8-3.25 3.7-.55 9.55 6.6 6.3 7.75 7.75 16.7.45 2.5-2 1.4-8.35-3.65-13.5-3.1-3.2.35-6.85 3.1-4 3.45-6.5 5-4.35 2.75-9.25 2.55-9.75-.25-13.6-6.65-1.05-1.6-1.4-3.55-.5-2.55.3-5.1l2.1-.2 1.85.4q-1.35 3.8.35 6.45 1.5 2.4 4.95 3.85 2.85 1.15 6.1 1.3 3.15.15 7.1-1.95l6.35-4.25q4.15-3.15 7.4-3.65 4.95-.8 13.25 2.25-1.95-7.05-7.55-13.05-4.8-5.15-6.85-4.85-1 .15-3.7 2.2-3.5 2.55-5.65 3.5-3.9 1.7-8.1 1.2-.45-.05.1-1.35t1.1-1.3q3.2.15 6.25-1.25 1.85-.9 4.65-3m-34.35 35.85l4.7 5.4q1.7 2.55 1.65 5.5l-3.75-.45q.05-1.25-1.55-3.55-1.6-2.35-4.15-4.7-4.9-4.4-12.3-15.85l-14.45-22.9q-13.7-21.05-18.4-29.6-4.7-8.45-5.85-14.05l-1.25-5.25q-.8-2.6-5.15-4-5.2-1.75-10.95.85-4.25 1.95-6.1 8.45-2 7 2.1 11.1 7.5 7.25 17.45 23.25 5.3 8.5 11.75 20.05l11.6 19.8q8.55 15.1 11.7 22.75 2.6 6.2 7.05 8.6 4.35 2.3 9 .15.5-.25 1.7 1.2 1.2 1.5.7 1.75-7.35 3.35-14.55-.35-5.85-3-7.65-7.55-3.05-7.9-11.3-23.8-6.9-13.4-11.5-21.2L587.25 585q-10.15-15.75-17.9-22.25-1.4-1.2-1.9-4.5-.5-3.35.15-7.2 1.75-9.65 8.45-13.2 5.35-2.8 12.25-1.8 7.3 1.05 8.65 5.65l1.3 5.45q1.25 6.15 5.4 14.4 5.3 10.55 17.8 29.8 9.7 14.95 14.65 21.95 7.55 10.9 12.5 16.05"/><path fill="#0d131a" d="M671.55 636.75q-1.45-.15-3.5.55-1.25.5-3.8 1.75-3.55 1.75-5.4 2.3l-5.55.15q-4-1.2-7.6 4.5-3.4 5.4-2.2 7.8 1.15 2.5 3.85 5 3.4 3.2 7.15 3.85l5.75-.4q1.8-.6 5.25-2.4 4.35-2.25 6.8-2.95 4.3-1.25 10.05-.05 5.15 1.05 9.75 3.7-1.35-9.25-9.5-17-6.75-6.4-11.05-6.8m-17.65 1.65q1.75.5 5.1-.85l5.45-2.55q4.1-2 8.6-1.2 5.15.95 10.25 5.5 4.95 4.4 8.1 10.05 3.7 6.7 3.85 13.8V665q-.35.6-2.15-.7-4.45-3.2-10.2-4.55-5.8-1.4-9.85-.25-1.35.4-3.6 2l-3.35 2.3q-7.9 4.15-14.45 2.2-6.8-2-11.05-10.3-1.95-5.2 3.2-11.95 5.1-6.75 10.1-5.35M539.8 378.3q-6.25-6.15-7.9-9.05-2.6-4.65-1.55-11.3.05-.55 2.6-.85l2.45.1q-1.35 6.9.55 10.85.8 1.7 5.7 7.05 11.55 12.8 19.1 29.3 9.35 20.45 11.55 44.65.55 5.7 4.5 9.45 3.55 3.4 7.35 3.3 7.2-.15 10.6-4.6 4-5.25.95-14.9-20.35-64-21.5-83.65-.3-5.15-2.3-10.1-2.2-5.4-5.45-7.75-.6-.45.8-1.85 1.4-1.4 2.15-.9 4.9 3.4 6.95 8.7 1.55 4 2.4 12.4 1.95 18.65 7.8 40.35 2.85 10.7 12.95 42.75 3.4 10.9-2.1 17-4.55 5.1-13.2 5.25-5.6.15-10.3-4.1-4.8-4.45-5.25-10.7-1.6-24.55-13-47.55-8-16.15-15.85-23.85"/><path fill="#0d131a" d="M590.45 463.25q-.45 2.05-1.5 3.75-1.2 1.8-2.8 2.6-1.9.95-4.05.75-2.1-.2-3.75-1.5-1.6-1.25-2.45-3.65-.8-2.35-.65-5.05l1.35.05q1.35.7 1.4 1.5.15 3 2 4.45 1.05.8 2.4.9 1.35.1 2.55-.5 2.3-1.15 2.9-4 .1-.5 1.45-.2 1.3.3 1.15.9m-208.1-98.55q2.3-4.05 5.4-5.95 2.95-1.7 5.6-1 2.65.7 3.95 3.6 1.4 3.15.65 8l-5 27.85q-5.2 28.7-7.55 40.25-.95 4.85 1.4 5.85 2.75 1.2 8.75-3.8 10.4-8.6 52.15-46.85 3.05-2.85 6.5-3.6 3.25-.7 5.55.7 2.4 1.4 2.65 4.4.3 3.35-2.25 7.65l-16.7 26.7q-16.2 26.1-19.1 32.1-1.7 3.55-.05 4.1 1.8.65 7.85-2.2l49.45-22.35q3.85-1.75 7.25-1.6 3.25.15 4.9 2 3.85 4.45-3.65 12.35-12.35 12.95-19.55 21.25-12.25 14.1-18.3 23.85-.3.5-3.6 1.1l-3.05.1q6.2-10.05 20.6-26 10.55-11.7 22.15-23 5.55-5.45 3.4-8.1-2.1-2.65-9 .5l-49.85 23.9q-7.2 3.4-10.75-.1-3.2-3.1-1.2-7.2 2.95-6.1 19.65-32.2l17.2-26.6q3.85-6.55.7-8.85-3.15-2.3-8.95 3.05Q408 434.3 397.5 443q-6.1 5.05-11.6 2.9-5.45-2.1-4.3-8.75 1.95-10.6 7.95-40.1l5.7-28.15q1.2-7.6-2.6-8.85-3.9-1.25-7.95 6l-13.2 28.3-16.8 35.75q-3.2 6.55-7.95 6.45-4.55-.1-7.9-5.85-2.1-3.55-14.75-32.1l-14.5-32.3q-2.9-5.8-6.75-4.85-3.85.95-3 7.5.65 5.2 5.1 32.2l5.15 32.45q.85 6.2-3.6 9.25t-8.9-1.05l-26.1-23.4-26.8-23.75q-5-4.3-8.35-1.3-3.35 2.95.3 8.7 3.55 5.5 19.35 27.15l17.6 24.3q2.9 4.5.1 8.45-2.65 3.8-7 2.9-6.35-1.3-58.85-19.5-7.15-2.4-8.75 1.5-1.65 3.9 4.75 8.8l22.1 17.05q19.05 15.45 22.9 22.4.3.5-2.4.55-2.7.1-3.1-.4-6.1-8-22.35-21.85-9.8-8.35-19.25-15.5-3.85-2.9-5.25-6.35-1.3-3.25-.1-5.85 1.15-2.65 4.3-3.55 3.4-.95 8 .6 52.15 16.65 58.25 17.9 3.75.75 4.1-1.1.3-1.6-1.95-5.05l-16.45-24q-14.7-21.35-18.25-26.95-2.35-3.65-2.3-7.25.05-3.3 2.05-5.35 2.05-2.05 5.2-1.8 3.5.3 7.15 3.45l26.5 23.25 26.2 23.2q2.75 2.6 4.9 1.8 2.5-.95 1.7-6.8l-8.65-64.75q-.5-4 .95-6.9 1.4-2.65 3.95-3.4 2.6-.8 5.2.65 2.9 1.6 4.8 5.45l14.85 32.15q13 28.2 15.1 31.75 3.05 5.2 4.75 4.95 1.65-.25 4.45-6 28.85-59.15 31.15-63.25"/><path fill="#0d131a" d="M313.65 478.95q-6.15 3.55-11.9 4.15-.25.05-3.8-2.05-3.55-2.05-3-1.9 5.95 1.85 13.85-1.9 4.85-2.35 12.15-7.9 7.15-5.4 12.25-7.9 7.5-3.65 14-3.2 8.9.6 24.95 12.3 6.7 4.95 11.3 7.2 6.8 3.4 12.3 3 .6-.05-2.2 1.7-2.75 1.75-3.3 1.7-4.55-.75-10.55-4.3-3.45-2.1-10.7-7.35-7.55-5.5-11.2-7.65-6.25-3.6-10.8-3.9-5.8-.4-11.95 2.9-3.8 2-11 7.65-6.75 5.3-10.4 7.45m168.85-208.8q-6.05 6.35-10.05 9.35-6.95 5.2-15.2 7.5-23.35 6.55-41.85-3.6-10.45-5.75-23.3-20.85-3.75-4.45-5.5-6.1-2.65-2.5-3.95-2.15-5.9 1.8-7.6 18.05-1.7 15.75 1.95 27.95 6.85 21.7 23.85 36.95 17.05 15.3 39.6 19.9 19.3 3.95 36.55-1.2 17.2-5.15 28.4-18.2 12.3-16.25 12.4-33.7.1-12.2-5.6-23.45-4-7.95-9.85-13.75-5.05-5-7.55-5-2.95.05-6.15 2.45-1.85 1.45-6.15 5.85m-26 14.25q7.6-2.15 14.4-8.1l9.65-9.85q7.55-7.9 15.25-7.95 4.15-.05 10.7 6.7 7.35 7.55 11.6 18.1 5.1 12.8 3.65 26.1-1.8 16-13.05 30.85-12.7 14.8-30.25 20.3-17.65 5.55-38.6 1.25-28.15-5.75-47.75-27.65-7.7-8.55-12.9-18.4-4.5-8.55-6.05-15.7-4.3-19.75-.15-36.15 1.65-6.4 4.2-10.7 2.35-3.95 4.55-4.6 2.4-.75 5.9 2.7l7 8.1q12.95 15.3 22.1 20.75 17.6 10.45 39.75 4.25"/><path fill="#0d131a" d="M479.8 270.5q.1.65-1.7 2.4-1.75 1.75-1.85 1.2-3.4-19.75 11.6-37.1 13.45-15.6 32.45-20.3 3.3-.8 4.8.4 1.5 1.2-1.9 1.8-6.6 1.15-14.4 5.75-8.05 4.7-14.7 11.6-15.95 16.55-14.3 34.25m-96.4-151.9q-1.55-.8 2.95-.85 4.45-.05 6.7 1.35 33.6 20.6 54.15 49.7 15.85 22.35 19.5 41.75 1.45 7.8-.3 9.9l-8.75 7.8-8.2 7.15q-.55.9-.55 8.55l-.25 8.1q-.35 4.15-1.4 5.7-7.25 10.95-14.35 17.2-9.15 8.1-17.1 7.45l-3.15-1.8-1.9-1.6q7.8 2.3 18.65-6.3 8.45-6.75 14.95-16.45.7-1 .45-5.1l-.45-7.2.2-6.8q.25-2.5.95-3.45l9.2-7.3 9.6-7.7q.45-6.8-3.9-18.25-4.9-12.85-14.1-26.3-23.7-34.65-62.9-55.55"/><path fill="#0d131a" d="M352.4 66.15q.35-.25 1.05 2.6.7 2.85.15 3.25-12.7 9.85-17.7 34.15-2 9.7-2 18.8 0 8.75 1.8 13.3 1.5 3.9 4.75 2.1l8.75-7.1q8.7-7.25 13.35-10.55 7.8-5.5 12.65-6.7l11.35.8q10.9 1.4 22.95 3.8 33.75 6.65 48.55 15.5 11 6.25 30.4 35.15 16.9 25.15 27.95 48.15.3.6-1.95 1.3l-2.5.25q-11.8-24.5-27.55-48.45-17.8-27-27.75-32.7-14.45-8.65-47.75-15.6-11.65-2.45-22.4-4l-10.65-1.1q-4.3 1.05-12.1 7.25l-12.8 10.8q-9.1 7.55-12.25 8.1-3.9.65-6.7-6.45-1.95-5-1.95-14.65 0-10.1 2.2-20.75 5.65-26.8 20.15-37.25"/><path fill="#0d131a" d="M572.3 57.15q7.85 8.5 9.1 22.2.65 7.35-.95 20.95-.8 6.95-.4 8.7 1.35 5.7 6.75 16.75l9.75 19.5 8.05 17q2.85 6.55 3.2 11.2.4 4.85-1.5 12.45-1 4.25-5.95 20.7l-4.45 12.65q-2.45 6.55-2.2 8 .3 1.6 4.4 13.85 3.55 10.5 4.3 19.6 2.4 28.7-19.3 64.85-14.4 24.1-41.1 31.95-26.05 7.7-52.6-3.05-.75-.3.5-1.6 1.2-1.3 2.25-.9 25.5 9.6 49.2 1.55 23.8-8.05 37.6-31.05 17.45-29.2 18.9-53.15.8-13.7-4.85-31.95-2.05-6.75-2.5-9.3-.4-2.1.95-7.65.9-3.75 3.95-13.95l5.8-19.7q1.9-7.25 1.6-11.75-.3-4.45-3.1-10.85L591.6 147q-6.45-13.6-9.25-20-4.75-11.05-6.3-17.35-.35-1.4-.2-4.05l.55-5.6q1.4-12.35.65-19.25-1.3-12.2-8.7-20.15-15.1-16.25-35.4-28.65-21.45-13.1-45.75-20.1-55.5-15.95-110.5 2.7-4.25 1.45-8.35 6.95-4.15 5.45-7.45 13.95-2.8 7.25-4.45 15.55-1.7 8.65-1.7 16.35 0 11 3.5 17.3.8.9 5.25 2.35 4.9 1.65 10.35 2.6 15.1 2.55 21-2.3 2.9-2.4 3-1.2.1 1.2-2.75 3.85-6.05 5.7-22.4 4.1-6.65-.65-11.8-2.4-5.25-1.75-6.4-3.8-4.85-8.7-3.85-25.8.95-15.95 6-29.05 2.6-6.7 7.2-12.8 5.75-7.75 11.7-9.75 56.25-19.1 112.3-3.65Q512.9 13.7 535 27.05q21.25 12.8 37.3 30.1"/><path fill="#0d131a" d="M561.5 343.95q.05-.6 1.45-1.3 1.35-.7 1.4-.3.45 4.7-1.55 8.9-1.95 4.05-5.6 6.3-8.55 5.3-18.05-2.25-.45-.35 1.2-.85l2-.2q7.1 4.7 13.1.8 5.5-3.6 6.05-11.1m-357.6 172.1q1.9.85 1.6 2.4-.3 1.5-2.2.85-13.6-4.65-32.75-19.85-21.4-17.05-28.1-31.6-1.05-2.25-4.9-3.95-3.45-1.55-7.25-1.95-.5-.05-.5-1.85t.5-1.75l8.85 1.25q5.4 1.35 6.85 4.45 7.85 17.2 24.55 31.4 14.6 12.45 33.35 20.6m1.55 25.55q.55-.25.65 1.2.1 1.45-.65 2-2.05 1.45-6.95-.6-3.25-1.35-5.85-3.2l-18.15-13.45-26.3-19.7q-3.25-2.45-13.25-7.2Q127.3 497 123 495.3q-5.7-2.3-8.85-9.7-3.2-7.45-2.15-16.15.05-.5 1.75.45 1.75 1 1.7 1.65-.35 6.7 2.7 12.25 3 5.45 8 7.75 2.75 1.2 10.7 5.75 8.5 4.85 12.1 7.45l44.85 32.55 5 3.35q3.95 2.05 6.65.95"/><path fill="#0d131a" d="M130 362.2q.55-.5 1.75.95 1.15 1.45.6 1.95-2.6 2.6-4.4 6.8-2.15 4.9-1.6 8.95.5 3.4.45 6 0 3.7-1 7.35l-5.45 20.4q-5.6 19.95-11.8 37.9-2.25 6.55.3 11.2 2.15 3.95 6.85 5.25 5.45 1.6 10-1.4 4.85-3.15 4.35-9.1-1.35-15.3 7.5-36.05 8.4-19.6 19.2-29.65 2.5-2.3 3-6.85.5-4.9-1.85-9.05-.25-.5 1.55-.65 1.85-.2 2.25.55 2.6 4.45 2.2 10.2-.45 5.75-3.65 8.35-11.75 9.5-19.85 28.95-8.05 19.3-6.75 34.4.65 7.2-5.5 11.05-5.7 3.6-12.7 2.1-6.4-1.4-10-7.7-3.7-6.55-1.1-13.1 7-17.65 13.1-38.1l5.45-19.45q.95-3 .5-6.85l-1-5.95q-.6-4.55 1.65-9.8 2.15-5.05 5.95-8.65"/><path fill="#0d131a" d="M116.55 471.2l1.6-.05q1.85.4 2.35.85 2.35 2.25 5.65.45 3.55-1.85 3.4-6.5 0-.5.9-1.85.95-1.4 1.1-.9 1.45 3.6.15 7-1.15 3.05-4 4.65-2.9 1.65-5.85.85-3.3-.85-5.3-4.5m43.4-91.65q-5.45.85-11.1-1.8-5.65-2.65-9.1-7.65-.3-.45 1.15-.85l1.7-.15q7.85 7.85 16.75 6.5 17.35-2.55 39.9-16.65 21.9-13.7 25.2-23.05 6.1-17.35 2.1-38.3-3.35-17.65-12.6-33.05-5.95-9.9-13-16.6-7.05-6.75-13.6-8.8-.75-.25-.1-1.45.65-1.25 1.6-.9 7.05 2.45 14.45 9.4 7.6 7.1 13.65 17.15 10.5 17.5 13.9 34.45 4.15 20.85-2.6 40.15-4 11.4-26.9 25.2-22.6 13.65-41.4 16.4"/><path fill="#0d131a" d="M196.7 169.2q-6.4.6-31.4 15.8-26.7 16.25-37.15 27.55-4.75 5.1-5.9 13-.75 4.95-.4 17.25.6 19.35-1.3 31.75-3.35 21.55-14.85 43.4-2.5 4.7 4.05 15.45 3.7 6.15 13.15 17.95l7.95 10.1q5.85 6.4 10.6 6.55 3.8.1 6.25-2.75l-1.9-7.2q-1.8-7-1.8-8.6 0-5.15 20.8-25.75l14.3-14.4q6.55-7 6.6-9.15.1-4-5.85-15.95-6.2-12.4-6.5-16.2-.45-6 8-21.9 7.15-13.5 16.4-26.55 2.5-3.6 4.2-5.1 1.85-1.65 5.95-3.9 9.2-5 25.6-10.05 14.15-4.35 22-5.5 7.85-1.15 7.85-2.9 0-1.7-7.35-6.2-13.7-8.45-33.35-13.35-16.9-4.2-25.95-3.35M162.65 182q26.65-15.3 33.8-15.95 9.55-.9 28.25 3.75 21.85 5.4 35.6 14.4 8.7 5.7 7.55 9.2-1.1 3.25-10.6 4.4-9.6 1.15-28.9 8-21.65 7.65-25.5 13l-14.8 22.45Q176.5 260.2 176.5 268.2q0 1.9 6 13.1 6.6 12.35 7.45 14.9 1.55 5.05-1.9 9.75-.9 1.25-19.8 18.95-18.9 18.25-20.8 23-.65 1.7 1.6 8.5 2.55 7.55 2.55 9.8 0 1.3-2.95 3.2-3.35 2.05-6.7 1.95-5.7-.15-12.6-6.4-4.25-3.9-10.45-11.8-10.85-13.85-14.1-19.3-6.75-11.4-3.75-17.1Q114 292.1 116.4 272.9q.85-7.1.6-15.75l-.7-14.85q-.4-12.6.45-17.95 1.35-8.6 6.55-14.25 10.75-11.6 39.35-28.1"/><path fill="#0d131a" d="M227.9 203.45q.9-.7 3.55-.95l2.1.15q-8.75 6.15-15.1 13.3t-8.2 13q-1.3 4-1.5 12.1-.15 6.7.45 13.7.1.95-1.95-.7-2-1.7-2.1-3.3-.4-6.25.05-12.3.5-6.4 1.75-10.3 1.7-5.35 7.55-12.1 5.5-6.45 13.4-12.6"/><path fill="#0d131a" d="M237.85 200.3q.9-.75 3.25-.9 2.4-.2 1.85.25-7.15 5.2-16.6 17.05-9.65 12-10.45 17.05-.7 4.15 1.05 18.2l2.2 18q.1 1.3-2.1-2-2.15-3.35-2.25-5.2l-1.35-13.05q-1.05-12-.25-17t9.25-15.75q7.7-9.8 15.4-16.65m-125.3 292.2q2.05-4.45 5.35-6 .95-.45 1.65.85t-.4 2q-7.2 4.4-5.25 13.05.8 3.55 3.1 6.15 2.35 2.75 5.4 3.25 7.55 1.25 15.85 7.1-1.8.25-3.15.85-2.55-1.75-5.7-3.1-3.4-1.45-5.8-1.65-6.15-.55-9.5-4.55-2.95-3.45-3.25-8.7-.25-4.9 1.7-9.25"/><path fill="#0d131a" d="M206.05 551.95q.55.15-.8 1.6-1.35 1.5-1.9 1.3-15.1-6.1-28.35-13.25l-19.8-11.35-10.85-7.4q-2.95-1.95-7.75-1.4-1.7.2-4.85 2.25-2.75 1.75-4.6 3.55-.3.35-1.3-.9-1.05-1.25-.6-1.65 7.4-7.1 10.65-7.5 5.5-.7 9.35 1.95l4.35 3.3q3.35 2.5 6.9 4.5l19.35 11.85q14.95 8.55 30.2 13.15m-9 19.55q1.5 1.1 1.4 2.9-.05 1.8-.9 1.1-11.6-9.4-25.8-14.7-13.1-4.85-26.75-5.7l-10.45-1.2q-5.9-1.35-8.65-4.7-.3-.35.65-1.95.95-1.65 1.15-1.4 2.9 3.8 9.35 5l8.25.65q28.6 2.75 51.75 20m-81.1-87.15q1.25.3 2.25 2.15 1 1.9.3 1.6-6.8-3.05-12.5-.7-5.5 2.25-7.9 8.45-.8 2.1-4.45 7L84.7 513.8q-4.95 5.7-14.2 17.6-9.85 12.55-19.35 25.45-7.7 10.45-12.6 15.1-1.9 1.9-2.4 4.55-.55 2.65.55 5.35 3.7 9.5 14.25 6.6 4.15-1.1 7.35-3.8 3.25-2.65 3.6-5.25.85-5.7 6.2-15.55 5.15-9.4 12.6-19.35 17.6-23.4 29.15-26.85 3.75-1.1 5.4-2.7 1.65-1.6 1.7-4.3l1.75-.05q1.7.3 1.65.85-.35 3.75-3.3 6.1-2.15 1.75-6.1 2.9-11.6 3.5-28.55 28-6.65 9.6-11.55 18.9-4.75 9-5.35 12.9-.85 5.25-5.25 8.65-4.05 3.1-9.6 3.65-5.6.55-10.1-1.75-4.9-2.45-6.6-7.5-3.1-9.2 1.15-13.3 5.65-5.55 12.9-15.1 15.35-20.45 34.25-43.35 11.25-13.7 13-18.1 2.75-6.9 8.1-9.05 5-1.95 12.6-.05"/><path fill="#0d131a" d="M107.9 493.55q1.2-1.9 3.25-3 2.05-1.05 4.15-.95.5.05-.35 1.4-.85 1.35-1.25 1.5-1.85.55-2.9 2.45-1.55 2.5-1.3 5.2.3 2.9 2.8 3.5.35.1 1.1 1.45.75 1.4.25 1.45-5.15.1-6.8-4.45-1.55-4.3 1.05-8.55m18 30.05q6.15 3.7 6.7 12.35.55 7.85-3.2 11.75-13.25 13.8-30.9 47.85-10.6 20.45-19.65 41.6-2.8 6.5-18.95 4.25-.45-.1.25-1.8.65-1.7 1.15-1.65 6.55.85 9.7-.2 2.3-.75 3.25-2.9 5.5-12.9 19.75-39.15 20.05-36.9 32.5-49.85 3.85-4 3.2-10.15-.65-6.1-5.05-9.2-3.35-2.4-7.95-1.25-4.65 1.2-6.05 5-5.05 13.5-26 45.55-20.75 31.65-28.7 38.4-4.1 3.55-5.75 6.05-1.35 2.1-1.45 4.3 0 .5-1.8.6-1.85.05-1.85-.45.2-5.25.6-6.65 1.25-4.3 5.75-7.1 8.75-5.45 29.9-37.15 20.5-30.65 25.7-44.65 1.95-5.2 8.2-6.8 6-1.55 10.65 1.25"/><path fill="#0d131a" d="M128.75 529.85q-.45-.1-1.4-1.5-1-1.35-.55-1.35 4.35.05 7 3 2.35 2.65 2.45 6.45.05 3.8-2.25 6.55-2.6 3.05-7.1 3.3-.45.05.4-1.35.8-1.4 1.25-1.5 5.35-1.35 5-6.85-.4-5.35-4.8-6.75M13.55 576.4q1.65-1 3.8-.55 1.35.3 3.45 1.45 3.1 1.85 5.25 2.2 3.75.65 8.25-1.4.5-.2 1.15 1.25.65 1.4.15 1.65-5.35 2.45-9.85 1.7-2.55-.45-6-2.4-1.7-1-2.45-1.2-.85-.2-1.55.25-5 3-8.35 8.1-3.3 5.05-4 10.6 3.65-2.2 8.4-3.4 4-1.05 7-1.05 1.35 0 3.6.95l4.7 2.25q8.45 4.35 12.1 4.95 5.15.8 8.75-3.15 3.3-3.6 3.85-9.1.1-.75 1.9-1.25 1.8-.45 1.75.25-.2 3.8-1.75 7.55-1.45 3.6-3.55 5.9-4.3 4.65-10.9 3.15-3.6-.8-13.4-5.85-5.6-2.9-7.05-2.9-3 0-7.95 2-5.25 2.1-8.6 4.85Q0 605 0 602.15 0 595 3.65 587.7q3.9-7.65 9.9-11.3m41.75 67q4.1-2.1 4.65-6.95.4-3.8-2.55-6.75-1.9-1.85-4.65-2.7-2.75-.8-5.7-.45l-6.95-.3q-1.65-.45-4.15-1.9l-2.55-1.3q-1.55-.55-3.5-.5-5.15.15-10.75 6.85-5.55 6.6-7.35 14.5 6.6-4.15 13.8-4.45 6-.3 9.95 1.95 4.95 2.75 10.55 3.35 5.55.55 9.2-1.35m-14.8-20.2q2.85 1.05 6.2.65 8.25-1.05 12.4 3.05 4.75 4.7 4.25 11-.55 6.45-6.3 9.7-4 2.3-10.7 1.3-6.25-.9-12.15-4.2-4-2.3-9.8-2.05-7.45.3-13.7 5.2-1.35 1.1-2 .95-.6-.15-.5-1.3.95-9.9 7.3-19 6.5-9.4 13.15-9.6 4.1-.1 7.9 2.15 2.8 1.7 3.95 2.15m242-146q-14.75-.7-24.15 9.85-7.9 8.95-7.7 18.85 13.15 1.4 33.3 6.5 18.1 4.55 34 10-1.45-18.55-11.6-31.5-10.2-13.05-23.85-13.7m-26.3 6.7q10.6-10.75 26.1-10.05 15.05.7 26.3 15.45 11.2 14.7 12.2 35l-.2 1.15q-.45.6-1.6.2-16-5.65-35.7-10.6-21.65-5.4-35.05-6.7-1.1-.15-1.2-1.3-.85-13 9.15-23.15m181.05 5q-6.5-7.4-15.45-10.05-7.45-2.2-15.4-.5-8 1.65-15 6.9-8.65 6.45-13.7 16.4-5.05 9.9-5.45 21.2 54.85-14.85 73.3-17.05-1.85-9.5-8.3-16.9m-31.5-14.2q9-1.8 17.4.8 19.45 5.9 25.95 29.95.65 2.5-1.75 2.85-12.7 1.8-45.45 9.85L371.15 526l-1.45-.2q-.25-.3-.25-1.15 0-12.7 5.1-23.75 5.3-11.55 15.1-18.95 7.3-5.5 16.1-7.25"/><path fill="#0d131a" d="M400.8 507.8q0-2.6.5-4 .35-1.2.9-1.2 1.35 0 1.35 5.25 0 2.6-.45 4-.35 1.1-.9 1.1-.5 0-.9-1.15-.5-1.4-.5-4m-108.2.4q.05-2.55.5-4 .4-1.15.95-1.15 1.3 0 1.2 5.1-.05 2.65-.45 4.05-.4 1.25-.9 1.2-.5 0-.85-1.15-.5-1.45-.45-4.05M135.5 366.75q.1-.45 1.3.45l1.15 1.15q-.9 6.75 5.65 9.35 2.65 1.05 5.45.8 2.85-.35 4.45-1.95.3-.3 1.95.35 1.65.65 1.5.9-2.3 3.25-6.5 4.05-3.95.75-7.8-.95-4.05-1.75-6.05-5.25-2.25-3.95-1.1-8.9M491 556.3q.45-.35 1.25.75.8 1.05.35 1.4l-5.15 3.8-1.3-2.4 4.85-3.55"/></svg>